<svg xmlns="http://www.w3.org/2000/svg" viewBox="0 0 190.1 206">
    <path d="M173.4 144.1c-10.2-5.2-23.8-3.6-35.5-3.5.3-7-.8-20.3-6.2-19l-.6-2.5c-.8-4.1-1.4-8.4-2.4-12.7-1.9-8.4-5.6-15.9-9.9-23.5-2.4-4.1-4-4-7.7-6.8-2.2-1.7-3.6-2-6.6-3.3-1.9-.8-4.8-2.3-8.4-2.5.6.2.5 1.2-.2 1.2-.5 0-.7-.6-.5-.9-.2-.1-.4-.3-.4-.6-1.4-3.3-3.2-6.4-5.2-10-1.3-2.5-2.2-5.6-4-7.7-2-2.4-5.2-4.4-7.7-6.3-2.6-1.1-3-3.4-4.1-5.7-1.2-2.5-2.7-4.5-4.3-6.8-3.3-5-6.6-7.6-12.7-8.2-7-2.8-11.5-11.6-18.5-15.5-4.8-2.7-5 .7-4.2 4.7.4 2.2.7 5.1.8 7.8l-.1-.2c-4.5-1.1-8.6-8.8-10-8.5-1.4.3-1 2.1-.6 3 .4.9 4.5 12.5 2.7 14.2s-6.8 4-8.8 7.3c-1.9 3.3-4.2 5.2-3.7 6.9s2.2 3.7 1.1 6.8c-.9 2.6-4.1 8.2-4.7 10.5.1 0 .3.1.3.2.1-.2.3-.3.5-.3h.2c.1-.1.3-.2.5-.2.8 0 .8 1.2 0 1.2h-.2c-.1.1-.3.2-.5.2s-.4-.1-.5-.3c-.1.1-.2.2-.3.2.6 1.2 2.3 2.6 2.8 3 .6.4.5 2.9 4.1 4.2 0 0 2.7 4.3 4.8 4.6 2.2.2 5.2.2 9.4-.5 0 0 1.5.8.4 3.5l.1.8c0 3.3-.2 6.2-.7 9.3-.6 4 .9 6.3 2.7 9.8 3.8 7.2 7.4 14.2 10.2 21.9 3.1 8.2 5.5 16.7 8.1 25.1 2.7 8.7 5 16.9 4.6 25.8 0 .5 0 3-.2 3.4-.7 1-1.4.3-2.3 1.1-1.8 1.7-2.4 3.3-3.4 5.3-2.3 5.2.9 5.9 6.1 5.7l2.2-.1h.2c0-.3.2-.5.6-.5h.1c-.1-.4.1-.8.6-.8.8 0 .8 1.2 0 1.2h-.1c.1.4-.1.8-.6.8h-.1c-.5 1.3-.7 2.5-.3 3.4 1.6 4.1 8.1 3 11.4 2.7 9.3-.9 9.8-7 11.1-14.4 0-.2 0-.3.1-.4v-.2c-.5-.3-.4-1.1.2-1.2v-.1h-.2c-.8 0-.8-1.2 0-1.2.7 0 .8 1 .2 1.2v.1c.6 0 .7.7.4 1 0 0 0 .1.1.1.2.1.3.3.3.5 1.4 2.4 4.7 5.9 11.8 2.4 4.4-2.2 6.1-6 11.5-6.2 3.8-.1 7.1 1.9 11 1.3 2.3-.3 6.3-.8 8.7-2.1 3.6-2.1 4.3-15.9 6.7-20.5 5.8-3.2 14.9-4.2 20.3-4.4 7.8-.4 11.7-1.1 18.8 2.3 2.5 1.2 6.7 3.5 7.5-.7.7-3.7-4.3-5.1-6.8-6.4zM13.5 62.4c-.8 0-.8-1.2 0-1.2s.8 1.2 0 1.2zm2.9-2.8c-.8 0-.8-1.2 0-1.2.8-.1.8 1.2 0 1.2zm10-16.3c.8 0 .8 1.2 0 1.2-.8.1-.8-1.2 0-1.2zm-4 3.7h.2c-.4-.3-.3-1.1.4-1.1h.1c-.2-.4 0-.9.5-.9.8 0 .8 1.2 0 1.2h-.1c.2.4 0 .9-.5.9h-.2c.2.1.2.3.2.5.1-.1.3-.3.5-.3.8 0 .8 1.2 0 1.2-.4 0-.6-.3-.6-.6-.1.1-.3.3-.5.3-.8 0-.8-1.2 0-1.2zm-1.3 6.7c-.8 0-.8-1.2 0-1.2.8-.1.8 1.2 0 1.2zm2.3-3.9c-.4 0-.6-.3-.6-.5 0 .1-.1.2-.2.3.2.1.2.3.2.5.1-.1.2-.1.3-.1.8 0 .8 1.2 0 1.2-.2 0-.4-.1-.5-.2-.1.1-.2.1-.3.2.2.4 0 1-.5 1-.7 0-.8-1-.2-1.2-.1-.2-.1-.4 0-.6-.1-.3-.1-.6.2-.8-.4-.3-.3-1.1.4-1.1.4 0 .6.3.6.5.1-.2.2-.5.6-.5.8.1.8 1.3 0 1.3zm1.2 1.3c-.7 0-.8-.9-.3-1.2-.5-.3-.4-1.2.3-1.2s.8.9.3 1.2c.5.3.4 1.2-.3 1.2zm.3-5.9c-.8 0-.8-1.2 0-1.2s.8 1.2 0 1.2zm1.3 5.2c-.8 0-.8-1.2 0-1.2.8-.1.8 1.2 0 1.2zm1.3-1.6c-.8 0-.8-1.2 0-1.2.8-.1.8 1.2 0 1.2zm2.7-6.6c-.8 0-.8-1.2 0-1.2s.8 1.2 0 1.2zm9.2-27.5c.8 0 .8 1.2 0 1.2-.8.1-.8-1.2 0-1.2zm.8 15.3c-.8 0-.8-1.2 0-1.2.8-.1.8 1.2 0 1.2zm.6-11.9c.8 0 .8 1.2 0 1.2s-.8-1.2 0-1.2zm.8 1.2c.8 0 .8 1.2 0 1.2s-.8-1.2 0-1.2zm.6 1.3c.8 0 .8 1.2 0 1.2-.8.1-.8-1.2 0-1.2zm.6 1.7c.8 0 .8 1.2 0 1.2s-.8-1.2 0-1.2zm.1 4.4c-.8 0-.8-1.2 0-1.2.9 0 .9 1.2 0 1.2zm23.6 110.6c.8 0 .8 1.2 0 1.2-.8.1-.8-1.2 0-1.2zm-1.5-6.1c.8 0 .8 1.2 0 1.2s-.8-1.2 0-1.2zm-1.8-4.4c.8 0 .8 1.2 0 1.2-.8.1-.8-1.2 0-1.2zm-1 58.5c-.8 0-.8-1.2 0-1.2.8-.1.8 1.2 0 1.2zm.6-1.1c-.8 0-.8-1.2 0-1.2s.8 1.2 0 1.2zm2-1.2c-.1 0-.2 0-.3-.1.1.4-.1.8-.6.8-.8 0-.8-1.2 0-1.2.1 0 .2 0 .3.1-.1-.4.1-.8.6-.8.8-.1.8 1.2 0 1.2zm1-.9c-.8 0-.8-1.2 0-1.2.8-.1.8 1.2 0 1.2zm.2-1.4c-.8 0-.8-1.2 0-1.2.8-.1.8 1.2 0 1.2zm.3-1.9c-.8 0-.8-1.2 0-1.2s.8 1.2 0 1.2zm.1-2.6c-.8 0-.8-1.2 0-1.2s.8 1.2 0 1.2zm.1-4.1c-.8 0-.8-1.2 0-1.2.8-.1.8 1.2 0 1.2zm0-1.9c-.8 0-.8-1.2 0-1.2s.8 1.2 0 1.2zm0-1.5c-.8 0-.8-1.2 0-1.2s.8 1.2 0 1.2zm0-7.5c.7 0 .8 1 .2 1.2.6.2.5 1.2-.2 1.2s-.8-1-.2-1.2c-.6-.2-.5-1.2.2-1.2zm0-.8c-.8 0-.8-1.2 0-1.2s.8 1.2 0 1.2zm.2-1.7c-.8 0-.8-1.2 0-1.2s.8 1.2 0 1.2zm.5-2.3c-.8 0-.8-1.2 0-1.2s.8 1.2 0 1.2zm0-1.7c-.8 0-.8-1.2 0-1.2s.8 1.2 0 1.2zm0-11.6c-.8 0-.8-1.2 0-1.2.8-.1.8 1.2 0 1.2zm15.5 32.5c-.8 0-.8-1.2 0-1.2.8-.1.8 1.2 0 1.2zm.1-1.8c-.8 0-.8-1.2 0-1.2.8-.1.8 1.2 0 1.2zm.2-1.4c-.8 0-.8-1.2 0-1.2s.8 1.2 0 1.2zm.3-1.3c-.8 0-.8-1.2 0-1.2.8-.1.8 1.2 0 1.2zm1.5-3c.1.3 0 .7-.3.8.2.4 0 .9-.5.9-.7 0-.8-1-.3-1.2-.2-.3 0-.8.4-.9-.1-.4 0-.9.5-.9.9.1.9 1.2.2 1.3zm1.3-2.2c-.8 0-.8-1.2 0-1.2s.8 1.2 0 1.2zm1.6-2.3c0 .2-.1.4-.3.5.1.4-.1.8-.6.8-.7 0-.8-.9-.3-1.2-.1-.3 0-.5.3-.7 0-.3.2-.6.6-.6.7 0 .8.9.3 1.2zm1.2-3.1c.3.4.1 1-.5 1-.8 0-.8-1.2 0-1.2-.3-.4-.1-1 .5-1 .8 0 .8 1.2 0 1.2zm1.9-2.6c-.8 0-.8-1.2 0-1.2s.8 1.2 0 1.2zm.9-1.4c-.8 0-.8-1.2 0-1.2s.8 1.2 0 1.2zm3-5.3c-.8 0-.8-1.2 0-1.2.8-.1.8 1.2 0 1.2zm2-79.5c.8 0 .8 1.2 0 1.2-.8.1-.8-1.2 0-1.2zm-.4 75.4c-.8 0-.8-1.2 0-1.2.8-.1.8 1.2 0 1.2zm1.2-73.9c.8 0 .8 1.2 0 1.2-.8.1-.8-1.2 0-1.2zm1 2.2c-.8 0-.8-1.2 0-1.2s.8 1.2 0 1.2zm1.2 1.2c-.8 0-.8-1.2 0-1.2.8-.1.8 1.2 0 1.2zm1.8 1.6c-.8 0-.8-1.2 0-1.2s.8 1.2 0 1.2zm3.7 4c-.8 0-.8-1.2 0-1.2s.8 1.2 0 1.2z"/>
</svg>
