<svg id="Layer_1" xmlns="http://www.w3.org/2000/svg" viewBox="0 0 105.7 96.6">
    <style>
        .st0{fill:#fff}
    </style>
    <path class="st0" d="M97.6 23.3c-.3-.4-.6-.8-.9-1-.1-.1-.1-.2-.2-.3-.9-1.1-1.8-2-2.9-2.8-.4-.4-.8-.7-1.3-.9-.4-.2-.9-.3-1.3-.3-5.1-3-10.6-3.9-17.2-2.7-4.5.8-8.7 2.7-12.8 4.5-.7.3-1.5.6-2.4 1-.2 0-.4 0-.6.1-.9.3-1.8.6-2.6.9-2.9 1-5.9 2.2-7.9 4.4-.6.7-.8 1.5-.6 2.2-.9 1.8-.6 4.1 1.3 5.8 2.9 2.7 8.6 2.9 13.2 2.5 1.3 0 2.5-.1 3.8-.4.4-.1.7-.2.9-.4 6-.8 12.1-1.6 17.8-3.3 4.5-1.3 9.5-2.2 12.1-5.8 1.5-.2 2.5-1.9 1.6-3.5z"/>
    <path class="st0" d="M72.9 33.8c-5 2.6-10.7 3.7-16.3 2.8-4.7-.8-12.7-3.3-9-9.1.5-.8 9.7-6.5 14.8-7.8.7-.2 1.2-.6 1.5-1 2.1-.5 4.2-1 6.3-1.6 2.1-.6 2.5-3.5.6-4.6-4.8-2.7-9.2-6-14.9-5.8-5.8.1-12 .9-17.5 2.7-.6.2-1.2.4-1.7.6h-1c-.8.1-1.3.5-1.8 1l-.2.2c-3.6.8-7.3 2.3-8.9 5.5-.1.3-.2.5-.2.8-1.9 1.2-3.5 2.7-4.2 4.9 0 .1 0 .2-.1.3-3.6 4.2-6.5 9.4-8.5 14.4-.5.3-1 .8-1.2 1.4-.3 1.1-.6 2.1-.8 3.2-.8.1-1.6.7-1.8 1.8-.9 4.1-1 8-.2 12.2.2 1.1 1.2 1.6 2.2 1.6v.2c-.4 1-.9 1.9-1.3 2.9-1.3 2.9 2.9 5.5 4.3 2.5 0-.1.1-.1.1-.2.4-.1.8-.3 1.1-.6l1.1-1.1c.9.9 1.7 1.9 2.2 3.2.8 1.9 1.4 3.6 3.1 4.9 2 1.7 4.5 1.9 7.1 2l.3.6c-.8 2.3 2.1 4.9 4 2.7.4-.5.9-1.1 1.4-1.6.8 0 1.6.1 2.4.1h.2c.1.1.2.1.3.2 1.4 1.3 2.2 3.2 3.1 4.9-.1.5-.1 1-.2 1.5-.2 1.8 1.7 2.7 3.2 2.4 1.1 1 2.2 2 3.5 2.8.2.2.5.2.8.3 0 .3 0 .5.1.8.2 1.7 1.7 2.6 3.1 2.4.1.1.3.1.5.1.6 1.5 1.7 2.7 3.8 3 .9.1 1.7 0 2.3-.3 1.1.9 2.9.9 3.8-.6 2.5-4.2 4.5-8.4 4.4-13 1.8-4.2 1-11.3.3-15.4 1.9-7.1 6.1-13.7 9.6-20.1l1.2-2.1c.3-.6.3-1.2.2-1.7.2-.3.4-.6.6-.8 1.3-2.2-1.7-4.5-3.7-3.5zM33.1 51.9c0 .1 0 .1 0 0-.1 0-.1 0-.1-.1 0 .1.1.1.1.1zm4.7-2.4h-.1c0-.1-.1-.1-.1-.2 0 .1.1.2.2.2zm3.3-16.6z"/>
    <g id="XMLID_190_">
        <path id="XMLID_1777_" d="M93.8 18.5c-5.2-3.7-13.4-4.1-21.2-2.9-1.2-2.6-4.3-4.3-6.9-5.4l-1-.4c-2.7-1.2-5.5-2.5-8.6-2.7l-.9-.1c-4.4-.3-9.8-.6-13.9.5-4.5 1.3-9.7 2.8-13.6 6-1 .8-1.9 1.8-2.8 2.7-1 1-2 2.1-3 2.9-.5.4-.9.9-1.3 1.5-.3.5-.6.9-1 1.2-.4.3-.6.9-.7 1.4-.1.3-.1.6-.3.8-.2.3-.4.6-.5.9l-.3.6c-.4.2-1.3.8-1.3 1.6 0 .1-.4.6-.6.9-.7.8-1.6 2-1.7 3.2h.2c-.3.3-.7.6-1 .9-1.1 1-1.6 2.2-2.2 3.8-.4.1-.4.6-.3.9-.3.1-.5.2-.5.6 0 .6.7.8 1.1.4h.1c.1-.4.2-.7.4-1.1 0-.1 0-.1.1-.2 0-.1.1-.3.1-.4.5-.1.6-.6.4-1 .4-1 .9-1.7 1.5-2.4 3.3-3.1 6.1-4.8 9.6-6 1.7-.6 3.1-.9 4.5-1.1.8-.1 2-.2 3.1-.3.4 0 .8 0 1.1-.1.3.3 1.1.2 1.1-.4v-.1c0-.6-.7-.7-1-.5v-.1c-.4 0-.8.1-1.3.1-1.2.1-2.4.1-3.2.3-1.5.2-2.9.6-4.7 1.2-2.8.9-5.3 2.3-7.8 4.3.3-.6.8-1.2 1.2-1.7.5-.6.9-1.1.9-1.5 0-.2.5-.6.9-.8l.2-.1c.2-.3.4-.7.5-1 .1-.3.2-.5.3-.7.3-.4.4-.8.4-1.2.1-.3.1-.7.3-.8.5-.4.9-.9 1.2-1.4.3-.5.7-.9 1.1-1.2 1.1-.8 2.1-1.9 3.1-3 .9-.9 1.8-1.9 2.7-2.7 3.8-3.1 8.6-4.4 13.3-5.8 3.9-1.1 9.2-.8 13.5-.5l.9.5c2.9.2 5.6 1.4 8.2 2.6l1 .4c2.1.9 4.6 2.2 5.9 4.1-.4 0-.6.4-.5.7-.1 0-.3 0-.4.1 0-.1 0-.2-.1-.3.8 0 .8-1.2 0-1.2H70c-.5 0-.7.5-.5.9-.4.1-.6.5-.4.9h-.2c0-.3-.2-.7-.6-.7.5-.2.5-1.2-.3-1.2s-.8 1.2 0 1.2c-.1 0-.2.1-.2.2-.1 0-.2-.1-.3-.1h-.1c-.4 0-.6.3-.6.6h-.2c-.4 0-.6.3-.6.6-.2.1-.4.1-.6.2.1-.2 0-.5-.1-.7.1-.1.1-.3.1-.4.1.3.4.4.7.4h.1c.2 0 .4-.2.4-.4v-.1c.2-.7-.8-1-1.1-.5-.2.1-.2.3-.2.5-.1-.2-.3-.3-.5-.3-.6 0-.7.6-.5 1-.2.2-.2.7 0 .9h-.1c-.8 0-.8 1.2 0 1.2.2 0 .4-.1.5-.2 9-2.6 21.6-3.9 28.4 1 1.7 1.2 4 4 4.2 6.3-.9-.1-2.2-.6-3.4-1.1-1.1-.4-2.2-.8-3-1-2.6-.4-11.1 0-18.8 2.2-.9.3-1.7.7-2.5 1.1-.9.5-1.8.9-2.7 1.1-.9.2-1.8.3-2.8.5-1 .1-2.1.3-3.2.6-2.6.7-4.8 1.6-6.8 3-.1 0-.2-.1-.3 0-.4 0-.6.2-.7.6H53c-.5 0-.7.4-.6.8-.1-.1-.2-.1-.3-.1-.8 0-.8 1.2 0 1.2.5 0 .7-.4.6-.8.1.1.2.1.3.1.3 0 .5-.2.6-.5.2 0 .5-.1.6-.2l.2-.2c.1.2.3.4.5.4.3 0 .4-.1.5-.3h.2c.6 0 .7-.6.5-1 .1-.1.2-.1.3-.2.4.5 1.1.1 1.1-.5.2-.1.5-.2.7-.3.1.1.2.2.4.2h.1c.3 0 .5-.2.6-.4.3.2.6.1.8-.1.1.2.3.3.5.3.3 0 .4-.1.5-.3.1.1.3.3.5.3s.4-.1.5-.3c.1 0 .2.1.3.1.5 0 .7-.6.5-.9.1 0 .3 0 .4-.1-.1.4.1.8.6.8.6 0 .7-.6.5-1 .1 0 .3 0 .4-.1v.2c0 .8 1.2.8 1.2 0v-.1c0-.1 0-.2-.1-.3.4-.1.7-.1 1.1-.2.1.1.2.2.4.2.4 0 .5-.3.6-.5.6-.2 1.2-.5 1.7-.8 0 .8 1.2.8 1.2 0v-.1c0-.2-.1-.3-.2-.4.3-.1.5-.2.8-.3 0 .3.2.6.6.6.5 0 .7-.6.5-.9.2 0 .3-.1.5-.1.1.2.3.4.5.4.4 0 .6-.3.6-.6 7.4-1.8 14.5-2 16.3-1.7.7.1 1.7.5 2.8.9.9.3 1.8.7 2.6.9-.8 1.3-3.2 2.8-4.4 3.1-1.3.3-2.4.7-3.5 1.2-.4.1-.8.3-1.2.4-1.1.4-2.2.7-3.3 1-1.5.4-3 .8-4.5 1.5v-.2c.3-.1.4-.5.4-.8.1-.1.2-.2.2-.3h.2c.3 0 .5-.2.6-.4.1 0 .2.1.3.1.6 0 .7-.6.5-1 0 0 0-.1.1-.1s.2.1.3.1c.8 0 .8-1.2 0-1.2-.3 0-.5.2-.6.4-.1 0-.2-.1-.3-.1-.2 0-.4.1-.5.2l-.9.4c-1.4.6-3 1.3-4 1.6-1.4.4-2.8.9-4.2 1.5H71l-2.1.9-2.7 1.2c-.8.3-1.6.6-2.4.8-.8.2-1.6.5-2.4.8l.4.9c.7-.3 1.5-.5 2.3-.8.8-.2 1.7-.5 2.5-.8l2.7-1.2 2.1-.9c1.2-.3 2.7.5 3.4 1.1.2.2.4.2.6.3 0 1.9-1.1 3.6-2 5.1-.4.7-.8 1.3-1.1 1.9-.3.6-.5 1.1-.8 1.7-.6 1.4-1.3 2.8-2 4.1-.6 1-1.1 2.1-1.5 3.1-.5 1-1 2.1-1.5 3.1-1.3 2.4-2.1 4.2-2.4 6.7-.2 1.8-.1 3.7 0 5.5.1 1.2.1 2.3.1 3.5-.1.3 0 .7.3.8-.7.1-.7 1.2.1 1.2.7 0 .8-.9.3-1.2.5-.1.6-.7.4-1 0-1.1 0-2.3-.1-3.4-.1-1.8-.2-3.6 0-5.3.3-2.3 1-4.1 2.3-6.3.6-1 1.1-2.1 1.5-3.1.5-1 .9-2 1.5-3 .8-1.4 1.4-2.8 2.1-4.2.3-.5.5-1.1.8-1.6.3-.6.7-1.2 1.1-1.8 1-1.6 2.2-3.5 2.2-5.7.6-.2 1.2-.5 1.8-.9l.1-.1c1.8-1 3.5-1.5 5.3-2 1.1-.3 2.2-.6 3.4-1 .4-.1.8-.3 1.2-.4 1.1-.4 2.2-.8 3.4-1.1 1.5-.4 4.4-2.2 5.2-3.9h.8l.4-.1v-.4c.2-3.4-2.5-6.9-4.5-8.3zM77.5 34.4v-.1h.2c0 .1-.1.2-.2.1 0 .1 0 .1 0 0zm.9-.6c.1.1.1.1.2.1-.1.1-.2.1-.3.2 0-.1.1-.2.1-.3zm-3.3.7h.3v.1c-.2 0-.2-.1-.3-.1z"/>
        <path id="XMLID_1780_" d="M11.4 62.7c.6-.6-.3-1.5-.9-.9-.2.2-.2.5-.1.7-.2.1-.3.3-.3.5v.1c0 .2.1.3.2.4-.1.4 0 .9.6.9s.8-.7.4-1.1v-.5s.1 0 .1-.1z"/>
        <path id="XMLID_1781_" d="M11.4 60.5c-.6-.6-1.5.3-.9.9.6.6 1.5-.3.9-.9z"/>
        <path id="XMLID_1782_" d="M9.7 42.6c.1 0 .1 0 0 0 .7 0 .8-.9.4-1.2.3 0 .5-.2.5-.6 0-.2-.1-.3-.1-.4.1 0 .1-.1.2-.1.3-.3.2-.8-.2-1 .1-.1.3-.1.4-.2.6-.6-.3-1.5-.9-.9 0 0 .1 0 .1-.1-.5.2-.4.9-.1 1.2-.1 0-.1.1-.2.1-.3.3-.2.6 0 .8-.2.1-.4.3-.4.6 0 .2.1.4.3.5-.8.1-.8 1.3 0 1.3z"/>
        <path id="XMLID_1783_" d="M8.7 43.2c-.6.6.3 1.5.8.9.7-.6-.2-1.5-.8-.9z"/>
        <path id="XMLID_1784_" d="M8 44.7c-.1 0-.1 0 0 0-.9 0-.9 1.2-.1 1.2H8c.8 0 .8-1.2 0-1.2z"/>
        <path id="XMLID_1785_" d="M49.9 21.9c.8 0 .8-1.2 0-1.2-.8-.1-.8 1.2 0 1.2z"/>
        <path id="XMLID_1786_" d="M83.1 29.6c-.8 0-.8 1.2 0 1.2s.8-1.2 0-1.2z"/>
        <path id="XMLID_1787_" d="M36.5 28.8v-.1c0-.8-1.2-.8-1.2 0v.1c-.1.8 1.2.8 1.2 0z"/>
        <path id="XMLID_1788_" d="M33.5 29.2c0 .8 1.2.8 1.2 0v-.1c0-.8-1.2-.8-1.2 0v.1z"/>
        <path id="XMLID_1789_" d="M32.7 29c-.8 0-.8 1.2 0 1.2.8.1.8-1.2 0-1.2z"/>
        <path id="XMLID_1790_" d="M27.3 30.9c-.8 0-.8 1.2 0 1.2.8.1.8-1.2 0-1.2z"/>
        <path id="XMLID_1791_" d="M26.2 31.5c-.8 0-.8 1.2 0 1.2s.8-1.2 0-1.2z"/>
        <path id="XMLID_1792_" d="M23.9 32.9h-.1c-.8 0-.8 1.2 0 1.2h.1c.8 0 .8-1.2 0-1.2z"/>
        <path id="XMLID_1793_" d="M29 31.5c.8 0 .8-1.2 0-1.2-.8-.1-.8 1.2 0 1.2z"/>
        <path id="XMLID_1794_" d="M30.4 29.8h-.1c-.8 0-.8 1.2 0 1.2h.1c.8 0 .8-1.2 0-1.2z"/>
        <path id="XMLID_1795_" d="M37.7 31.4c-.1-.2-.3-.3-.5-.3-.1 0-.2 0-.3.1-.1 0-.2-.1-.3-.1-.2 0-.3.1-.4.2-.1-.2-.3-.3-.5-.3-.8 0-.8 1.2 0 1.2.2 0 .3-.1.4-.2.1.2.3.3.5.3.1 0 .2 0 .3-.1.1 0 .2.1.3.1h.2c.1.2.3.3.5.3.8 0 .8-1.2 0-1.2h-.2z"/>
        <path id="XMLID_1796_" d="M33.3 32.5c.8 0 .8-1.2 0-1.2-.8-.1-.8 1.2 0 1.2z"/>
        <path id="XMLID_1797_" d="M31.6 32.4c-.8 0-.8 1.2 0 1.2.8.1.8-1.2 0-1.2z"/>
        <path id="XMLID_1798_" d="M29 35.3h.1c.4 0 .6-.4.6-.7h.2c.8 0 .8-1.2 0-1.2-.4 0-.6.4-.6.7H29c-.8 0-.8 1.2 0 1.2z"/>
        <path id="XMLID_1799_" d="M27.2 35c-.8 0-.8 1.2 0 1.2.8.1.8-1.2 0-1.2z"/>
        <path id="XMLID_1800_" d="M38.3 34.2c.2 0 .3-.1.4-.1.8 0 .8-1.2 0-1.2-.2 0-.3.1-.4.1-.3 0-.5.2-.6.4-.1-.1-.2-.1-.4-.1-.8 0-.8 1.2 0 1.2.3 0 .5-.2.6-.4.1.1.2.1.4.1z"/>
        <path id="XMLID_1801_" d="M36.1 34.5c.8 0 .8-1.2 0-1.2s-.8 1.2 0 1.2z"/>
        <path id="XMLID_1802_" d="M34.8 33.8c-.8 0-.8 1.2 0 1.2.8.1.8-1.2 0-1.2z"/>
        <path id="XMLID_1803_" d="M33.5 34.8c-.8 0-.8 1.2 0 1.2s.8-1.2 0-1.2z"/>
        <path id="XMLID_1804_" d="M53.2 21.5v-.1c0-.8-1.2-.8-1.2 0v.1c0 .8 1.2.8 1.2 0z"/>
        <path id="XMLID_1807_" d="M50.3 22.2c-.1-.2-.3-.4-.6-.4-.1 0-.2 0-.3.1 0-.2-.2-.3-.3-.4.1-.3-.1-.7-.4-.8.1-.4-.1-.8-.6-.8-.8 0-.8 1.1-.1 1.2v.3c-.1-.1-.2-.2-.4-.2h-.2c0-.5-.5-.7-.9-.5 0-.3-.2-.7-.6-.7h-.1c-.1 0-.2 0-.3.1 0-.2-.1-.3-.3-.4.2-.4 0-.9-.5-.9-.2 0-.4.1-.5.3h-.1c.1-.3-.1-.7-.6-.7 0-.3-.2-.5-.6-.5h-.2c0-.3-.2-.5-.6-.5h-.2v-.1c0-.8-1.2-.8-1.2 0v.1c0 .5.4.7.8.6 0 .1 0 .2.1.3h-.1c-.1 0-.2 0-.3.1-.1-.2-.3-.4-.5-.4s-.4.1-.5.3c-.1-.2-.3-.3-.5-.3-.3 0-.5.2-.6.5-.1-.2-.3-.4-.6-.4-.4 0-.6.4-.6.7-.2-.1-.5-.1-.6 0-.8 0-.8 1.2 0 1.2h.2c.2.1.5 0 .7-.2.1.1.2.1.4.1.3 0 .5-.2.5-.3.7-.1 1.3-.2 1.8-.2l-.1.1c-.6.2-1.2.6-1.6 1-.3.3-1.3 1.8-1.4 2.2-.2.6.2 1.3.4 1.8l.1.2c.5 1.3 1.7 2.3 3.2 2.7.5.2 1 .2 1.6.2.9 0 1.8-.2 2.5-.7 1-.6 1.9-2.2 1.9-3.8h.2c.2 0 .3-.1.4-.1.3.4 1.1.3 1.1-.3.1 0 .2 0 .3-.1 0 .1.1.2.2.3.1.2.2.5.6.5h.1c.4 0 .5-1-.1-1.2zm-5 2.8c-.2 0-.3.1-.4.3h-.4v-.2c0-.1-.1-.3-.1-.4.1-.1.1-.2.1-.4.1.2.3.4.6.4.2 0 .3-.1.4-.2v.4c0 .1-.1.1-.2.1zm-1.2.7c.1 0 .1 0 0 0zm-2.2.6c0-.1 0-.1 0 0 0-.1 0-.1 0 0 0-.1 0 0 0 0zm-.8-.3c0-.3-.2-.5-.6-.5h-.2c0-.3-.3-.6-.7-.6 0-.1-.1-.3-.2-.4v-.2c0-.4-.3-.6-.6-.6.2-.1.3-.3.3-.5h.2c.1.3.5.3.7.3 0 .1 0 .5.3.8-.1.4.1.8.6.8h.1c0 .4.3.6.7.6 0 .1 0 .3.1.4-.1-.1-.2-.1-.3-.1-.2-.1-.3-.1-.4 0zm4.1-2.5c.1 0 .1-.1.1-.2l.3.3c0 .1.1.1.2.2 0 .1.1.3.1.4-.1 0-.2.1-.3.1.2-.4 0-.7-.4-.8zm-2.4.4l-.1.1v-.1h.1zm-.9-.5v.1c-.1 0-.1 0-.2.1v-.2c.1.1.2 0 .2 0zm.6 1.2c0 .1 0 .1 0 0 0 .1 0 .1 0 0 0 .1 0 0 0 0zm.5.5h.3v.2h-.4c.1 0 .1-.1.1-.2zm1.7-3.2c0 .1.1.2.1.3 0 .1-.1.2 0 .3-.4 0-.6.3-.6.6-.2.1-.3.2-.3.3-.1-.4-.5-.6-.9-.4l-.1-.1c-.1-.1-.3-.2-.4-.2h-.1c0-.1 0-.2-.1-.3 0-.1 0-.2-.1-.2.1-.2.1-.4 0-.6h.1c.5 0 .6-.4.6-.8h.1c.1.2.3.3.5.3s.3-.1.4-.2c.1.1.2.2.4.2h.1v.2c0 .3.1.5.3.6zm-4.2 1.2c0 .1.1.1 0 0 0 .1 0 .1 0 0 0 .1 0 .1 0 0zm.9 1.3c0-.1 0-.2-.1-.3.1 0 .1 0 .2-.1v.3c0 .1 0 .1-.1.1zm1.2 1.7c0 .1 0 .1 0 0 0 .1-.1.1 0 0-.1.1 0 .1 0 0zm1.2-.4c-.1 0-.1 0 0 0h.1-.1zm-5.1-2c-.1 0-.1 0 0 0-.1 0-.1 0 0 0-.1 0-.1 0 0 0zm9.3-1.6v-.3c.1.1.1.1.2.1v.1c0 .1-.1.1-.2.1z"/>
        <path id="XMLID_1823_" d="M59.9 18.4c-.8 0-.8 1.2 0 1.2s.8-1.2 0-1.2z"/>
        <path id="XMLID_1824_" d="M62.9 17.9c-.8 0-.8 1.2 0 1.2s.8-1.2 0-1.2z"/>
        <path id="XMLID_1825_" d="M35.9 19.5c-.8 0-.8 1.2 0 1.2.8.1.8-1.2 0-1.2z"/>
        <path id="XMLID_1826_" d="M34.6 20.4c-.8 0-.8 1.2 0 1.2s.8-1.2 0-1.2z"/>
        <path id="XMLID_1827_" d="M39.8 15.9c-.8 0-.8 1.2 0 1.2s.8-1.2 0-1.2z"/>
        <path id="XMLID_1828_" d="M44.3 28.3c-.8 0-.8 1.2 0 1.2.5 0 .7-.5.6-.8.1.2.3.4.6.4s.5-.2.6-.4c.3.1.8-.1.8-.5.5-.1.6-.7.3-1 .8 0 .7-1.2 0-1.2h-.1c-.6 0-.8.7-.4 1.1-.3 0-.4.2-.5.5-.2 0-.4.2-.5.4h-.2c-.5 0-.7.5-.6.8-.1-.3-.3-.5-.6-.5z"/>
        <path id="XMLID_1829_" d="M42.7 29.7c.8 0 .8-1.2 0-1.2-.8-.1-.8 1.2 0 1.2z"/>
        <path id="XMLID_1830_" d="M41.7 29c.4-.6-.4-1.1-.9-.8-.6.2-.5 1.2.2 1.2.3 0 .5-.1.7-.4z"/>
        <path id="XMLID_1831_" d="M38.9 27.7c-.8 0-.8 1.2 0 1.2.8.1.8-1.2 0-1.2z"/>
        <path id="XMLID_1832_" d="M46 50c.5-.3.1-1.3-.6-1.1h-.1c-.2 0-.4.2-.4.4v.1c0 .2 0 .3.1.4-.3.1-.4.4-.4.6h-.1c-.8 0-.8 1.2 0 1.2.4 0 .6-.3.6-.7h.1c.5 0 .7-.5.6-.9 0 .1.1.1.2 0z"/>
        <path id="XMLID_1833_" d="M40.6 54.1c.1 0 .2 0 .3-.1.2.1.5.1.7-.1.2-.2.4-.4.7-.5.1 0 .2-.1.3-.2.2-.2.2-.4.2-.5.1.1.2.2.4.2.8 0 .8-1.2 0-1.2-.5 0-.7.4-.6.8-.2-.2-.5-.3-.7-.1h-.3l-.1.1c-.2.2-.5.3-.7.5-.1 0-.2-.1-.3-.1-.7-.1-.7 1.2.1 1.2z"/>
        <path id="XMLID_1834_" d="M38.5 53.8c-.8 0-.8 1.2 0 1.2s.8-1.2 0-1.2z"/>
        <path id="XMLID_1835_" d="M37.4 54.4c-.1 0-.1 0 0 0-.9 0-.9 1.2-.1 1.2h.1c.8.1.8-1.2 0-1.2z"/>
        <path id="XMLID_1836_" d="M35.6 56s.1 0 0 0c.9 0 .9-1.2.1-1.2h-.1c-.8 0-.8 1.2 0 1.2z"/>
        <path id="XMLID_1837_" d="M33.5 56.9c.8 0 .8-1.2 0-1.2-.8-.1-.8 1.2 0 1.2z"/>
        <path id="XMLID_1838_" d="M36.5 47.2c0-.8-1.2-.8-1.2 0v.1c-.1.8 1.2.8 1.2-.1 0 .1 0 .1 0 0z"/>
        <path id="XMLID_1839_" d="M34.8 48.6c.8 0 .8-1.2 0-1.2-.8-.1-.8 1.2 0 1.2z"/>
        <path id="XMLID_1840_" d="M34.1 48.7c.2-.7-.7-1-1.1-.6-.4.4-.1 1.2.6 1.1h.1c.2 0 .4-.2.4-.5 0 .1 0 0 0 0z"/>
        <path id="XMLID_1841_" d="M31.5 50.7c.8 0 .8-1.2 0-1.2h-.1c-.8 0-.8 1.2.1 1.2z"/>
        <path id="XMLID_1842_" d="M34.1 43.5c-.8 0-.8 1.2 0 1.2s.8-1.2 0-1.2z"/>
        <path id="XMLID_1843_" d="M32.7 45.6c.8 0 .8-1.2 0-1.2-.8-.1-.8 1.2 0 1.2z"/>
        <path id="XMLID_1844_" d="M29.2 46c-.8 0-.8 1.2 0 1.2.8.1.8-1.2 0-1.2z"/>
        <path id="XMLID_1845_" d="M37.1 43.3h.1c.8 0 .8-1.2 0-1.2h-.1c-.4 0-.5.2-.6.5h-.1c-.4 0-.5.2-.6.5-.1-.1-.2-.1-.4-.1-.8 0-.8 1.2 0 1.2.4 0 .5-.2.6-.5.1.1.2.1.4.1h.1c.3 0 .5-.2.6-.5z"/>
        <path id="XMLID_1846_" d="M41 72.3s-.1 0 0 0c-.9 0-.9 1.2 0 1.2.8 0 .8-1.2 0-1.2z"/>
        <path id="XMLID_1847_" d="M41.5 75c0-.8-1.2-.8-1.2 0-.1.9 1.2.9 1.2 0 0 .1 0 0 0 0z"/>
        <path id="XMLID_1848_" d="M40.2 76.8c0 .1 0 .1 0 0 0 .9 1.2.9 1.2.1v-.1c.1-.8-1.2-.8-1.2 0z"/>
        <path id="XMLID_1849_" d="M41.6 82c0-.1-.1-.3-.2-.3l.1-.1c.3-.3.2-.7 0-.9.1-.1.1-.2.1-.3 0-.2-.1-.3-.1-.4.1-.2.1-.5-.1-.7.6-.6-.3-1.5-.9-.9-.3.3-.2.6 0 .8-.2.2-.2.6 0 .8-.1.1-.1.2-.1.3 0 .2.1.3.2.4-.3.3-.2.7.1.9-.1.1-.2.2-.2.4v.1c0 .4.2.5.5.6v.1c0 .8 1.2.8 1.2 0v-.1c.3 0 .7-.2.7-.6-.1-.6-1.1-.7-1.3-.1z"/>
        <path id="XMLID_1850_" d="M43 80.5c-.8 0-.8 1.2 0 1.2s.8-1.2 0-1.2z"/>
        <path id="XMLID_1851_" d="M36 69.9c-.5 0-.7.4-.6.8-.1-.1-.3-.2-.5-.2-.4 0-.6.3-.6.6-.1 0-.2-.1-.3-.1h-.1c-.4 0-.5.3-.6.5-.1-.1-.2-.2-.4-.2h-.1c-.3 0-.5.2-.6.4-.1-.1-.2-.1-.4-.1-.3 0-.4.1-.5.3h-.5c-.2 0-.3.2-.3.3l-.1-.1c0-.1.1-.2.1-.3v-.1c0-.3-.1-.4-.3-.5.2-.4.1-1-.5-1-.1 0-.2 0-.3.1v-.2h.1c.6 0 .7-.6.5-1 .1 0 .2.1.2.1h.1c.8 0 .8-1.2 0-1.2h-.1c-.6 0-.7.6-.5 1-.1 0-.2-.1-.2-.1-.4 0-.5.2-.6.5h-.1c-.2 0-.4.1-.5.3h-.1c-.3 0-.5.2-.6.4h-.2c-.3 0-.4.1-.5.3-.1-.1-.3-.2-.5-.1h-.1c-.1 0-.1.1-.2.1-.2-.2-.7-.3-.9 0-.4.4-.1 1.2.6 1.1h.1c.1 0 .1-.1.2-.1.2.2.7.3.9 0l.1-.1c.1.1.2.1.3.1.3 0 .5-.2.6-.4h.2c.2 0 .4-.1.5-.3h.1c.1 0 .2 0 .3-.1-.1.3-.1.6.2.8-.1.1-.1.2-.1.3v.1c0 .2.1.4.3.5-.2.4 0 .9.5.9.3 0 .4-.1.5-.3.1.1.3.2.5.2.3 0 .5-.1.6-.3h.2c.3 0 .5-.2.6-.4.1.1.2.1.4.1h.1c.4 0 .5-.3.6-.5.1.1.2.2.4.2h.1c.4 0 .6-.3.6-.6.1 0 .2.1.3.1.5 0 .7-.4.6-.8.1.1.3.2.5.2.8.1.8-1.2 0-1.2z"/>
        <path id="XMLID_1852_" d="M36.4 69.5c0 .1 0 .1 0 0 0 .9 1.2.9 1.2.1v-.1c.1-.8-1.2-.8-1.2 0z"/>
        <path id="XMLID_1853_" d="M24.7 70.9c-.9 0-.9 1.2-.1 1.2h.1c.8 0 .8-1.2 0-1.2z"/>
        <path id="XMLID_1854_" d="M29.1 65.4c-.9 0-.9 1.2-.1 1.2h.1c.8 0 .8-1.2 0-1.2z"/>
        <path id="XMLID_1855_" d="M30.4 64.5c.9 0 .9-1.2.1-1.2h-.1c-.9 0-.9 1.2 0 1.2z"/>
        <path id="XMLID_1856_" d="M33 61.7c0-.9-1.2-.9-1.2-.1v.1c-.1.8 1.2.8 1.2 0z"/>
        <path id="XMLID_1857_" d="M22.1 69.1c-.3.1-.4.2-.5.4-.1-.1-.2-.1-.3-.1 0-.2-.2-.5-.4-.6.3-.2.4-.6.1-.9-.1-.1-.2-.1-.3-.2.5-.2.4-1.2-.3-1.2-.8 0-.8 1.1-.1 1.2-.3.2-.6.6-.2 1 .1.1.1.1.2.1h-.1c-.3.3-.2.7.1.9-.3.6-.1 1.3.5 1.3.3 0 .4-.1.5-.3.3 0 .5-.1.6-.4.1.1.2.1.3.1.4 0 .6-.3.6-.6.3 0 .6-.2.6-.6 0-.9-1.3-.9-1.3-.1z"/>
        <path id="XMLID_1858_" d="M25 69.6c.1.1.2.1.4.1.4 0 .6-.3.6-.6.1.1.2.1.3.1-.4.4-.1 1.2.6 1.1h.1c.2 0 .4-.2.4-.4v-.1c.1-.5-.3-.8-.6-.8.1-.1.1-.2.1-.3.1.2.3.4.6.4h.1c.5 0 .7-.5.6-.9h.2c.8 0 .8-1.3 0-1.3-.5 0-.7.5-.6.8-.1-.2-.3-.3-.5-.3-.4 0-.5.2-.6.5-.1 0-.2-.1-.3-.1-.4 0-.6.3-.6.6-.1-.1-.2-.1-.3-.1-.3 0-.5.2-.6.4-.1-.1-.2-.1-.4-.1-.8 0-.8 1.2 0 1.2.2.2.4 0 .5-.2z"/>
        <path id="XMLID_1859_" d="M19.7 65c0 .1 0 .1 0 0 0 .8 1.2.8 1.2 0 .1-.8-1.2-.8-1.2 0z"/>
        <path id="XMLID_1860_" d="M20.1 63c-.6.6.3 1.5.9.9.6-.6-.3-1.4-.9-.9z"/>
        <path id="XMLID_1861_" d="M21.2 60.5c-.7-.4-1.4.7-.6 1.1.8.3 1.4-.7.6-1.1.1 0 .1 0 0 0z"/>
        <path id="XMLID_1862_" d="M25.1 55.6c-.1-.1-.3-.2-.5-.2h-.1c-.8 0-.8 1.2 0 1.2h.1c.4 0 .6-.3.6-.6.1.1.3.2.5.2.3 0 .5-.2.5-.4.4.3 1.1.2 1.1-.4 0-.7-1-.8-1.2-.2-.1-.2-.2-.2-.4-.2-.4 0-.6.3-.6.6z"/>
        <path id="XMLID_1863_" d="M22.7 56.8c.9 0 .9-1.2 0-1.2-.8-.1-.8 1.2 0 1.2z"/>
        <path id="XMLID_1864_" d="M20.9 55.7c-.8 0-.8 1.2 0 1.2.8.1.8-1.2 0-1.2z"/>
        <path id="XMLID_1865_" d="M18.9 55.9h-.1c-.8.3-.4 1.5.3 1.2h.1c.8-.2.4-1.4-.3-1.2z"/>
        <path id="XMLID_1866_" d="M17.7 57.1c-.8 0-.8 1.2 0 1.2.8.1.8-1.2 0-1.2z"/>
        <path id="XMLID_1867_" d="M16.5 58.8c-.8 0-.8 1.2 0 1.2.8.1.8-1.2 0-1.2z"/>
        <path id="XMLID_1868_" d="M15.9 60c-.5 0-.7.5-.6.9-.3 0-.6.2-.6.6h-.1c-.4 0-.6.3-.6.6h-.5c-.7.4-.1 1.4.6 1.1h.1c.2-.1.3-.3.3-.5h.1c.4 0 .6-.3.6-.6.3 0 .7-.1.7-.6v-.2c.8-.1.8-1.3 0-1.3z"/>
        <path id="XMLID_1869_" d="M12 62.9c-.6.6.3 1.5.8.9.7-.6-.2-1.5-.8-.9z"/>
        <path id="XMLID_1870_" d="M11.5 58.8c.5.1.8-.5.6-.9-.2-.6-1.2-.6-1.2.2 0 .3.1.5.4.6h-.1c-.8 0-.8 1.2 0 1.2.7 0 .8-.8.3-1.1z"/>
        <path id="XMLID_1871_" d="M12.3 56c.8 0 .8-1.2 0-1.2-.9 0-.9 1.2 0 1.2-.1 0-.1 0 0 0z"/>
        <path id="XMLID_1872_" d="M33.9 24.3c-.6.6.3 1.5.9.9l.1-.1c.6-.6-.3-1.5-.9-.9-.1 0-.1 0-.1.1z"/>
        <path id="XMLID_1873_" d="M35.7 25c.8 0 .8-1.2 0-1.2s-.8 1.2 0 1.2z"/>
        <path id="XMLID_1874_" d="M47.4 79.8c.9 0 .9-1.2.1-1.2h-.1c-.8 0-.8 1.2 0 1.2z"/>
        <path id="XMLID_1875_" d="M52.9 85.9c-.9 0-.9 1.2-.1 1.2h.1c.8.1.8-1.2 0-1.2z"/>
        <path id="XMLID_1876_" d="M53.6 82.9c-.1 0-.1 0 0 0-.9 0-.9 1.2-.1 1.2h.1c.8.1.8-1.2 0-1.2z"/>
        <path id="XMLID_1877_" d="M52.5 87.9c-.7 0-.8.8-.5 1.1-.5.1-.6.5-.5.9-.7.1-.7 1.2.1 1.2.5 0 .7-.5.5-.9.5-.1.6-.8.3-1.1.9 0 .9-1.2.1-1.2z"/>
        <path id="XMLID_1878_" d="M48 87.6c.2-.4 0-.9-.5-.9-.7 0-.8 1-.3 1.2-.2.4 0 .9.5.9.8 0 .9-1 .3-1.2z"/>
        <path id="XMLID_1879_" d="M47.1 85c-.8 0-.8 1.2 0 1.2.8.1.8-1.2 0-1.2z"/>
        <path id="XMLID_1880_" d="M46.8 84.7c.5 0 .7-.5.5-.9.4-.2.4-.8.1-1 .1-.1.2-.3.2-.5v-.1c0-.2-.1-.3-.1-.4.3-.3.2-1.1-.4-1.1-.6 0-.7.6-.5 1-.1.1-.2.3-.2.5v.1c0 .2.1.4.2.5-.2.2-.3.5-.2.7-.4.2-.4 1.2.4 1.2z"/>
        <path id="XMLID_1881_" d="M64.5 73c-.8 0-.8 1.2 0 1.2.8.1.8-1.2 0-1.2z"/>
        <path id="XMLID_1882_" d="M42.2 66c-.6 0-.7.7-.5 1-.4.2-.5.8-.1 1.1-.7.1-.7 1.2.1 1.2.7 0 .8-.8.3-1.1.5-.1.6-.7.4-1 .6-.3.5-1.2-.2-1.2z"/>
        <path id="XMLID_1883_" d="M41.4 69.5c-.8 0-.8 1.2 0 1.2s.8-1.2 0-1.2z"/>
        <path id="XMLID_1884_" d="M45 76.2c-.7 0-.8.8-.3 1.1-.5.1-.6.6-.4.9-.5.1-.6.7-.3 1h-.2c-.8 0-.8 1.2 0 1.2.6 0 .8-.7.5-1.1h.2c.6 0 .7-.6.5-1 .5-.1.6-.8.2-1.1.6.1.6-1-.2-1z"/>
        <path id="XMLID_1885_" d="M45.8 73c-.8 0-.8 1.2 0 1.2.8.1.8-1.2 0-1.2z"/>
        <path id="XMLID_1886_" d="M38.5 67c-.8 0-.8 1.2 0 1.2s.8-1.2 0-1.2z"/>
        <path id="XMLID_1887_" d="M39.7 65.1c-.8 0-.8 1.2 0 1.2.8.1.8-1.2 0-1.2z"/>
        <path id="XMLID_1888_" d="M47.8 76.9c-.8 0-.8 1.2 0 1.2.8.1.8-1.2 0-1.2z"/>
        <path id="XMLID_1889_" d="M53.2 84.2c-.8 0-.8 1.2 0 1.2s.8-1.2 0-1.2z"/>
    </g>
</svg>
