<svg id="Layer_1" xmlns="http://www.w3.org/2000/svg" viewBox="0 0 108 210.1">
    <style>
        .st0{fill:#fff}
    </style>
    <path class="st0" d="M89.3 33.6c.2-.9.4-1.9.6-2.8l-1.2 3.9c.4-.2.5-.7.6-1.1z"/>
    <path class="st0" d="M8.4 192.4c.1.1.3.1.4.2.1-.1.2-.1.4-.1h.3c0-.1.1-.2.2-.3-.1 0-.3 0-.4.1-.4 0-.7.1-.9.1z"/>
    <path class="st0" d="M10 193.3h-.1c.1.1.2.1.3.2v-.2H10z"/>
    <path class="st0" d="M10.9 193.9c.1 0 .1.1.2.1 0 0-.1-.1-.2-.1.1 0 0 0 0 0z"/>
    <path class="st0" d="M14.7 195.3s0 .1 0 0c.1.1.1 0 .2 0v-.1c-.1.1-.2.1-.2.1z"/>
    <path class="st0" d="M13.5 195.4l.2-.2s-.1 0-.1-.1c0 .2-.1.2-.1.3z"/>
    <path class="st0" d="M11.5 194.2c-.1 0-.1 0-.2-.1.1.1.3.2.4.3 0-.1.1-.2.2-.3h-.2c-.1.1-.1.1-.2.1z"/>
    <path class="st0" d="M63.9 120h.3l.9-3.6c-2.2-.2-4.8-.5-7.5-.7-5.3-.5-11.2-1.1-16.1-1.4-.3 0-.5 0-.8-.1-1.2-.1-2.3-.2-2.9.5-.6.6-.9 1.9-.6 2.8.1.3.3.5.5.6 3.2.6 8.3 1.3 11.9 1.6 1.4.1 2.8.3 4.2.5.8.1 1.5.2 2.3.3.7.1 1.3.1 2 .2l1.1.1h.6c.1-.3.2-.5.6-.5.4 0 .6.3.6.6.3 0 .7 0 1 .1 0-.3.2-.6.6-.6h.1c.5 0 .6.4.6.7h.3c-.4-.3-.3-1.1.3-1.1z"/>
    <path class="st0" d="M55.3 149.3c0-.3.2-.7.6-.7.2 0 .3.1.4.2.4-1.3.7-2.6 1.1-3.9-3.3-.1-8-.8-11.8-1.4-1.1-.2-2.1-.3-3-.4-1-.1-2.1-.3-3.1-.5-2.1-.3-4.3-.7-6.5-.8-.2 0-.5 0-.7-.1-1.2-.1-2.2-.2-3.1.7-.7.6-1.1 1.9-.9 2.7.1.4.3.7.7.8.8.3 1.6.4 2.4.5h.3c.8.1 1.5.2 2.3.2.8.1 1.5.1 2.2.2 1.9.3 3.6.5 5.2.7.8.1 1.5.2 2.3.3l2.4.3 2.4.3c0-.3.2-.5.6-.5h.1c.4 0 .6.4.6.7.4 0 .8.1 1.2.1.1-.3.2-.5.6-.5.4 0 .6.3.6.6.6.1 1.1.1 1.6.2 0-.3.2-.7.6-.7.5 0 .7.5.6.8.1.2.2.2.3.2z"/>
    <path class="st0" d="M79.9 58c-6.5-.2-15.1-.7-22.6-1.2-.4 0-.8-.1-1.2-.1-1.6-.2-3.7-.4-4.7.5-.4.4-.7.9-.7 1.7 0 1.2.4 1.4 1.5 1.5h1c3 .2 6.1.3 9.1.5 2 .1 4.2.3 6.5.5 3.5.3 7 .6 10.1.8.4-1.4.7-2.8 1-4.2z"/>
    <path class="st0" d="M71.2 90.5h.2c.2 0 .3.1.4.2.3-1.3.7-2.7 1-4-2.7-.2-5.8-.4-9-.6-4.7-.4-9.6-.7-13.9-.9-.4 0-.9-.1-1.5-.2-1-.1-2.4-.3-2.8-.1-.8.4-1.6 2.1-1.6 3.1 0 1.7 3.8 1.8 6.1 1.9h1c2.9.1 8.3.6 11.9 1 0-.3.2-.6.6-.6h.1c.5 0 .7.4.6.8.4 0 .9.1 1.5.1 0-.3.2-.6.6-.6.4 0 .6.4.6.7h.6c.1-.2.2-.5.6-.5.4 0 .5.2.6.5h.1c0-.3.2-.7.6-.7.5 0 .7.4.6.8h.7c-.3-.5-.1-.9.4-.9z"/>
    <path class="st0" d="M30.8 147.4h-.3c.1.1.2.2.2.3.1-.2.1-.3.1-.3z"/>
    <path class="st0" d="M51.2 61.3l.1-.1c-.1 0-.2-.1-.3-.1.1.1.2.1.2.2z"/>
    <path class="st0" d="M45.1 91.2c0-.2.1-.3.1-.5 0 0-.1 0-.1-.1.1.3.1.4 0 .6z"/>
    <path class="st0" d="M30.4 149.1s-.1 0 0 0c-.1 0-.1 0 0 0z"/>
    <path class="st0" d="M29.9 148.9h.2c-.1-.1-.1-.2-.1-.3 0 .1-.1.2-.1.3-.1 0 0 0 0 0z"/>
    <path class="st0" d="M37.9 119.8s.1.1 0 0c.1 0 .1 0 0 0z"/>
    <path class="st0" d="M47.5 200.9c.1 0 .1 0 0 0 .1 0 .1 0 0 0z"/>
    <path class="st0" d="M46.2 200.6c.1 0 .1.1.2.1 0-.1.1-.2.2-.2 0 0-.1 0-.1-.1-.2.1-.2.1-.3.2z"/>
    <path class="st0" d="M48 200.8c.2 0 .3.1.4.3.1-.3.2-.5.6-.5l-.7-.3c0 .3-.1.5-.3.5z"/>
    <path class="st0" d="M48.3 201.8c.1 0 .1 0 0 0h.2l-.1-.1-.1.1z"/>
    <path class="st0" d="M94.1 9.2l-1-.5c-.3 0-.7 0-1.1.1-.4.1-.8.1-1.2.1-1.1 7.7-3.6 19.8-5.5 28.5-.7 3.4-1.4 6.7-2.1 10.1-1.1 5.2-2.2 10.2-3.3 15.3v.1c0 .1 0 .2-.1.3-.8 3.4-1.6 6.9-2.6 10.4-2.6 9.8-4.9 19-7.2 27.9-3.5 13.7-6.8 26.6-10.5 40.1-2 7.3-3.8 13.3-5.7 19.7-1.4 4.7-2.8 9.4-4.3 14.8-.4 1.3-1.1 3.4-1.9 5.9.3 0 .7.2.7.6v.1c0 .6-.7.7-1 .5-.1.2-.2.5-.2.7.8.1.8 1.3 0 1.2H47c-.1 0-.2 0-.3-.1.4 0 .8.3.7.8v.1c0 .2-.2.4-.4.4h-.3c.4.3.2 1.1-.4 1.1h-.1c-.1 0-.2 0-.3-.1 0 .1-.1.2-.1.3.3.1.7.3.6.8 0 .2-.1.3-.2.4-.2.3-.5.2-.7.1l-.3.9c.5.3.4 1.2-.3 1.2h-.1l-.3.9c.5.3.4 1.2-.3 1.2h-.1c-.1.2-.1.4-.2.6.1.1.2.3.2.5v.1c0 .4-.3.6-.6.6-.2.5-.3 1-.5 1.5.5.2.4 1.2-.3 1.2h-.1c-.1.2-.1.4-.2.6h2.4c.2.6.7 1 1.3 1.3H46c0 .1 0 .2-.1.3h.2c.2 0 .3.1.4.1 0-.1.1-.1.2-.1l-.5-.2c.3.2.7.3 1.1.3.7 0 1.4.1 2.1.1l2.4 1.2c1.2-3.9 4.3-13.2 6.6-20.1 1.1-3.4 2-6.1 2.4-7.2 1.5-4.6 8.2-29.1 10.9-39.9 1.5-6.2 10.1-41 12.5-50 2.5-9.3 14.1-63.1 15.9-71.7l-6-3.1zM50.8 199.7c-.2 0-.3-.1-.4-.2.4-.1.7-.3 1-.6 0 .4-.2.8-.6.8z"/>
    <path class="st0" d="M22.4 175.6h-.2v.3c0 .2-.1.4-.2.5.1 0 .2.1.2.2l.3-.9c0-.1 0-.1-.1-.1.1 0 0 0 0 0z"/>
    <path class="st0" d="M42.5 174.6h.3c0-.3.2-.5.6-.5.4 0 .6.3.6.6.2 0 .4 0 .7.1 0-.3.2-.5.6-.5.4 0 .6.3.6.6.1-.2.3-.4.5-.4h.2c.1-.2.3-.3.5-.3h.2c.3 0 .5.2.6.5.1-.2.3-.4.6-.4.2 0 .3.1.4.1.3-1.1.6-2.2.9-3.2-2-.4-4.2-.6-6.4-.8-1.9-.2-3.8-.4-5.6-.7l-1.8-.3c-3.1-.5-6.2-1-9.2-1.2-.4 0-.9-.1-1.3-.2-1.1-.2-2-.4-2.8.3l-.6.6c.1-.6.2-1.1.3-1.7.9-.6 1.9-.5 2.8-.3 1.3-4.4 2.9-10 4.3-15.3-.2.2-.6.3-.8 0-.1-.1-.2-.3-.2-.5-.2-.8 1-1.1 1.2-.3 0 0 0-.1-.1-.1.1.1.1.2.1.2.1-.3.2-.7.3-1h-.3c-.4 0-.6-.4-.6-.7h-.2c-.7 0-.8-1-.2-1.2 0-.1.1-.3.2-.4-.1-.1-.1-.1-.1-.2-.2 0-.3 0-.5-.2-.1-.1-.2-.2-.2-.4s0-.3.1-.4c-.2.2-.7.3-.9 0-.1-.1-.2-.3-.2-.5v-.2c.1-.1.1-.3.3-.4 0-.1-.1-.2-.1-.3.3-1.1.5-2.1.8-3.2.1-.2.2-.3.4-.4 1.2-1.2 2.6-1.1 3.9-.9h.2c.9-3.2 1.6-5.9 2.1-8 .4-1.5 1.1-4.3 2-7.9-.1 0-.2-.1-.3-.2l-.1-.1c-.5-.5.2-1.3.7-1 .1-.3.2-.7.3-1h-.1c-.6 0-.8-.8-.4-1.1-.4-.1-.5-.7-.2-1-.5-.3-.4-1.2.3-1.2-.2-.1-.5-.2-.5-.6v-.1c0-.1 0-.2.1-.3l-.3-.6c-.4-1.2 0-2.9.9-3.8.7-.7 1.7-.9 2.6-.8 1.4-5.4 3.2-12.7 4.7-18.8-.6-.2-.5-1.2.2-1.2h.1c0-.1 0-.2.1-.3-.4.2-.9 0-.9-.5v-.1c0-.2.1-.4.3-.5-.5-.2-.5-.9-.1-1.1.1-.2.3-.4.6-.4-.1-.1-.1-.2-.1-.3-.1.2-.4.4-.7.3h-.1c-.2 0-.4-.2-.4-.4v-.1c-.1-.2 0-.4.1-.6-.3-.3-.5-.8-.5-1.3 0-1.2.9-3.4 2.2-4 .4-.2 1-.2 1.7-.2.6-3.1 2.5-11.6 4.3-19.4-.2-.1-.4-.3-.4-.6v-.1c0-.3.2-.5.4-.6-.4-.1-.5-.6-.3-.9-.3.1-.7-.1-.7-.6v-.3c-.2-.3-.2-.7.1-.9-.3-.4-.4-.9-.4-1.6 0-1.1.4-1.9 1-2.4s1.5-.8 2.4-.8c1.4-6.3 3-12.9 4.4-19.1-.3 0-.7-.2-.7-.6v-.1c0-.6.6-.7 1-.5.1-.2.1-.5.2-.7-.4-.1-.6-.6-.3-1l.1-.1c.2-.2.3-.2.5-.2l.2-.7h-.2c-.1.2-.3.4-.5.4-.8 0-.8-1.3 0-1.3h.1c0-.1.1-.2.2-.3-.1-.2-.1-.6.1-.8h-.5c.1.4 0 .9-.6.9s-.8-.7-.4-1.1c-.2-.1-.5-.2-.7-.4-.4-.4-.6-1.1-.6-2 .4-.1.7-.3 1-.5v.6c0 .6.1 1 .3 1.2.4.4 1.2.3 2.1.3h1.3c1.1.1 2.2.1 3.3.2 1.5.1 3 .3 4.6.3h.5c3.3 0 6.8.1 10 .4.6.1 1.5.1 2.5.1 1.6.1 3.4.1 4.6.4.3-1.4.6-2.9.9-4.3-3.1-.1-6.4-.2-9.6-.3-4.7-.1-9.5-.3-13.8-.5-.4 0-.8-.1-1.3-.1-1.7-.2-3.8-.4-4.8.5v-1.1c.9-.4 2.1-.5 3.3-.4 1.8-7.8 2.8-12.5 3.3-14.5l-6.1-2.3V8c-.3-.1-.6-.2-1-.2v-.4c-.3 0-.7 0-1.1.1-.4 0-.8.1-1.2.1l-.3 2.1c-.1.2-.1.4-.1.7-1.1 6-2.8 13.6-4.2 20-.5 2.2-1 4.2-1.3 6-1.4 6.3-2.8 12.6-4.4 19.2-1.5 6.3-3 12.8-4.4 19.2-4.4 19.9-8.5 34.3-13.2 51-1.2 4.3-2.5 8.8-3.8 13.5-.9 3.4-1.8 6.5-2.7 9.6-2.3 8.3-4.5 16.1-7.1 25.4-.3 1.1-.7 2.6-1.2 4.2-1.3 4.5-2.9 10-3.7 13 .4-.1.9-.1 1.3-.2.3 0 .7-.1 1-.2-.2-.1-.4-.2-.4-.4-.1-.2 0-.4.1-.5.1-.2.2-.4.4-.4h.1c-.5-.3-.4-1.2.3-1.2.1 0 .2 0 .3.1-.2 1.3-.2 2.5.1 3.5l-.3-.1c-.1 0-.2.1-.3.1.2.1.3.3.3.6h.1c.2 0 .3.1.4.2.2.4.5.8 1 1.1l-.1.1h.1c.7.5 1.7.7 3.1.7 1 0 1.8-.6 2.2-1.4v-.2c.1-.2.1-.4.2-.6v-.3c0-.3 0-.6.1-.9.1 0 .2.1.2.2 0-.1.1-.2.1-.3-.1 0-.2 0-.3-.1 0-.4 0-.9.1-1.3l.2.2h.4c0-.2.1-.3.1-.5l.3-1.2h-.2c-.8 0-.8-1.2 0-1.2.2 0 .3.1.4.2.8-2.7 1.6-5.6 2.3-8.1-.7-.1-.7-1.2.1-1.2h.3c0-.2.1-.3.1-.5h-.2c-.6 0-.8-.8-.4-1.1-.2-.1-.4-.3-.4-.6v-.1c0-.5.4-.7.8-.6-.1-.2 0-.4.1-.6-.3-.1-.3-.5-.3-.7-.1 0-.2-.1-.3-.1.1-.4.1-.7.2-1.1.1-.4.1-.7.2-1.1.1.1.2.2.4.3 1.5.5 2.6.7 3.8.8.3 0 .5.1.8.1 1.1.1 2.4.3 3.8.4 1.8.2 3.7.3 5.2.6.9.1 1.8.3 2.7.4.1-.2.3-.4.6-.4.4 0 .6.3.6.6.5.1 1.1.1 1.6.2 0-.2.2-.4.4-.4h.1c.4-.4.7 0 .7.3zm-31.6 13.8c-.6-.2-.5-1.2.2-1.2-.1.4-.2.8-.2 1.2zm.3-1.5c-.2-.1-.4-.3-.4-.5v-.1c0-.4.4-.6.7-.6l-.3 1.2zm.4-1.3c-.3-.3-.2-1 .3-1.1-.1.3-.2.7-.3 1.1zm.3-1.2c-.2-.2-.4-.5-.2-.8 0-.1.1-.1.1-.2.1-.3.4-.3.6-.3-.2.5-.3.9-.5 1.3zm1.7-4.8c-.2.8-.6 1.8-1 3 .1-.3.2-.7.3-1-.6-.2-.5-1.2.2-1.2h.1c.1-.3.1-.5.2-.8-.5-.2-.4-1.2.3-1.2h.1c0-.1.1-.2.1-.3-.6-.2-.5-1.2.2-1.2h.1c0-.1.1-.3.1-.4-.3 0-.7-.2-.7-.6v-.1c0-.6.6-.7.9-.5-.3 1.5-.5 3-.9 4.3zm1-5c-.4 0-.8-.5-.6-.9 0-.1.1-.1.1-.2.2-.3.4-.4.7-.3 0 .5-.1.9-.2 1.4z"/>
    <path class="st0" d="M45.3 199.8c0-.1 0-.1 0 0z"/>
    <g id="XMLID_3_">
        <path id="XMLID_129_" d="M100.6 11.1L94 7.9c-.1-.1-.2-.2-.4-.3-.6-.1-1.1 0-1.7.1-.5.1-1 .1-1.4.1-.1 0-.3 0-.4.1 0 0-.1.1-.1.3-.7 4.7-1.9 11.1-3.1 17.5-3.1-.1-6.5-.2-9.7-.3-4.7-.1-9.5-.3-13.8-.5-.4 0-.8-.1-1.3-.1-.2 0-.4 0-.6-.1 1.9-8.3 3-13 3.3-14.8 0-.2-.1-.5-.3-.6l-7.2-2.7H57c-.5-.1-1.1 0-1.6 0-.5.1-1 .1-1.4 0-.1 0-.3 0-.4.1-.1.1-.2.2-.2.3-.9 6.2-3 15.6-4.7 23.2-.5 2.2-1 4.2-1.3 6-1.4 6.3-2.8 12.6-4.4 19.2-1.5 6.3-3 12.8-4.4 19.2-4.4 19.9-8.4 34.3-13.1 50.9-1.2 4.3-2.5 8.8-3.8 13.5-.9 3.4-1.8 6.5-2.7 9.6-2.3 8.3-4.5 16.1-7.1 25.3-.3 1.1-.7 2.6-1.2 4.2-1.5 5-3.3 11.2-3.9 14v.2c0 .1.1.1.1.2H7c.7.3 2.3 1.3 3.8 2.2 2.6 1.5 3.2 1.9 3.5 1.9.1 0 .2 0 .2-.1.9-.5 2.9-1.1 3.2-1.1h.2c.1 0 .1-.1.2-.1v-.1l.1-.1c.4-1.4.9-3.3 1.5-5.5 1.6-5.7 3.8-13.5 4.7-16.3.5.1 1 .2 1.5.2.3 0 .5.1.8.1 1.1.2 2.4.3 3.8.4 1.8.2 3.6.3 5.2.6 4.2.7 9 1.2 12.8 1.4-.6 2.1-1.9 5.7-3.2 9.6-1.8 5.3-3.6 10.7-4.1 12.7v.2c0 .1.1.1.1.2h.1c.7.3 2.1 1.1 3.5 1.9 2.7 1.5 3.3 1.9 3.6 1.9.1 0 .2 0 .2-.1.8-.5 2.8-.8 3.1-.8h.2l.1-.1v-.1s0-.1.1-.1c1-3.5 4.3-13.4 6.7-20.6 1.1-3.4 2-6.1 2.4-7.2 1.5-4.7 8.2-29.2 10.9-40 1.5-6.1 10.1-41 12.5-50 2.5-9.4 14.5-64.9 16-72.2.2.1.1-.1-.1-.2zM63.3 25.8c4.4.3 9.2.4 13.8.5 3.2.1 6.5.2 9.6.3-.3 1.5-.6 2.9-.9 4.3-1.2-.2-3-.3-4.6-.4-.9 0-1.8-.1-2.5-.1-3.3-.3-6.7-.4-10-.4h-.5c-1.6 0-3.1-.1-4.6-.3-1.1-.1-2.2-.2-3.3-.2H59c-.9 0-1.8.1-2.1-.3-.2-.2-.3-.6-.3-1.2 0-.8.2-1.4.7-1.8 1-.9 3.2-.7 4.9-.5.2 0 .7.1 1.1.1zM50.1 170.3c-2.1-.4-4.3-.6-6.5-.9-1.9-.2-3.8-.4-5.5-.7l-1.8-.3c-3.1-.5-6.3-1-9.3-1.3-.2 0-.4 0-.6-.1 1.6-5.6 3.8-13.2 5.6-19.7.7.1 1.4.2 2 .2.8.1 1.5.1 2.1.2 1.9.3 3.6.5 5.3.7.8.1 1.5.2 2.3.3l2.4.3c3.3.4 7.1.9 9.9 1.1-1 3.6-2 7-3.1 10.6-.9 3.2-1.8 6.4-2.8 9.6zm-19.3-22.7c0-.1-.1-.2-.2-.3h.3c0 .1 0 .2-.1.3zm-.7 1c0 .1.1.2.1.3H30c0-.1 0-.2.1-.3zm.3.4c0 .1 0 .1 0 0 0 .1 0 0 0 0zm26-.2c-.1-.1-.2-.2-.4-.2-.4 0-.6.3-.6.7h-.3c.1-.4-.1-.8-.6-.8-.4 0-.6.4-.6.7-.5-.1-1.1-.1-1.6-.2 0-.3-.2-.6-.6-.6-.3 0-.5.2-.6.5-.4 0-.8-.1-1.2-.1 0-.3-.2-.7-.6-.7h-.1c-.4 0-.6.3-.6.5l-2.4-.3-2.4-.3c-.8-.1-1.6-.2-2.3-.3-1.6-.2-3.3-.4-5.2-.7-.7-.1-1.4-.2-2.2-.2-.7-.1-1.5-.1-2.3-.2h-.3c-.8-.1-1.6-.3-2.4-.5-.4-.1-.6-.4-.7-.8-.2-.8.2-2 .9-2.7.9-.9 2-.8 3.1-.7.2 0 .5 0 .7.1 2.2.1 4.4.5 6.5.8 1 .2 2.1.3 3.1.5.9.1 1.9.3 3 .4 3.8.6 8.6 1.2 11.8 1.4-.3 1.1-.7 2.4-1.1 3.7zm1.4-5c-3.2-.1-8-.8-12-1.4-1.1-.2-2.1-.3-3-.4-1-.1-2.1-.3-3.1-.5-2-.3-4-.6-6.1-.8.8-3.1 1.5-5.8 2-7.8.4-1.8 1.4-5.8 2.7-10.7l.8-3c3.2.5 7.3 1 10.4 1.3 1.4.1 2.8.3 4.1.5.8.1 1.6.2 2.3.3.7.1 1.4.1 2 .2l1.1.1c.2 0 .5 0 .9.1 1 .1 2.7.1 3.6.3-1.7 6.3-3.3 12.6-5.1 19-.1 1.1-.3 2-.6 2.8zm-19.8-24zm26.3.2c-.1 0-.1-.1 0 0H64c-.7 0-.8.8-.3 1.1h-.3c.1-.3-.1-.7-.6-.7h-.1c-.4 0-.6.3-.6.6-.3 0-.7 0-1-.1 0-.3-.2-.6-.6-.6-.3 0-.5.2-.6.5h-.6l-1.1-.1c-.7-.1-1.3-.1-2-.2-.8-.1-1.5-.2-2.3-.3-1.4-.2-2.8-.4-4.2-.5-3.6-.3-8.7-1-11.9-1.6-.2 0-.4-.2-.5-.6-.3-.9 0-2.2.6-2.8.7-.7 1.8-.6 2.9-.5.3 0 .6 0 .8.1 4.9.2 10.8.8 16.1 1.4 2.7.3 5.3.5 7.5.7-.3 1.1-.6 2.4-.9 3.6zm1.2-4.6c-2.3-.2-4.9-.5-7.7-.7-5.3-.5-11.3-1.1-16.2-1.4-.3 0-.5 0-.8-.1h-.1c1.7-6.7 4.1-16.1 5.6-22.7 1.2.2 2.6.2 3.7.3h1c3.2.2 9.5.7 13 1.1.9.1 2.6.2 4.1.3 1.2.1 2.4.1 3.2.2-.8 3-1.5 5.9-2.3 8.8-1.1 4.7-2.3 9.5-3.5 14.2zM45.2 91.2c.1-.2.1-.3.1-.5l.1.1c-.1.1-.2.2-.2.4zm26.6-.6c-.1-.1-.2-.2-.4-.2h-.2c-.5 0-.7.5-.6.8h-.7c.1-.4-.1-.8-.6-.8-.4 0-.6.4-.6.7h-.1c0-.3-.2-.5-.6-.5-.3 0-.5.2-.6.5h-.6c0-.3-.2-.7-.6-.7-.4 0-.6.3-.6.6-.6 0-1.1-.1-1.5-.1.1-.4-.1-.8-.6-.8h-.1c-.4 0-.6.3-.6.6-3.6-.3-9.1-.8-11.9-1h-1c-2.3-.1-6.1-.2-6.1-1.9 0-1 .8-2.7 1.6-3.1.5-.2 1.9 0 2.8.1.6.1 1.1.1 1.5.2 4.2.2 9.1.5 13.9.9 3.2.2 6.3.5 9 .6-.1 1.4-.4 2.8-.8 4.1zm1.3-5c-2.8-.2-5.9-.4-9.2-.7-4.7-.4-9.7-.7-13.9-.9-.3 0-.8-.1-1.4-.2-.3 0-.5-.1-.7-.1.6-2.9 2.3-10.6 5-22.5h.4c3 .2 6 .3 9.1.5 2 .1 4.2.3 6.5.5 3.4.3 6.9.6 9.9.8-.8 3.3-1.6 6.6-2.5 10-1.1 4.4-2.2 8.5-3.2 12.6zM51.4 61.2s-.1 0-.1.1c0-.1-.1-.1-.1-.2 0 0 .1 0 .2.1zm27.6 1c-3-.2-6.6-.5-10-.8-2.3-.2-4.5-.4-6.5-.5-3.1-.2-6.2-.4-9.1-.5h-1c-1.2-.1-1.6-.4-1.5-1.5 0-.8.3-1.3.7-1.7 1-.9 3-.6 4.7-.5.4 0 .8.1 1.2.1 7.6.5 16.1 1 22.6 1.2-.4 1.3-.7 2.8-1.1 4.2zm1.2-5.3c-6.5-.2-15.2-.7-22.8-1.2-.4 0-.8-.1-1.2-.1-.6-.1-1.3-.1-2-.2 1.6-7 3.3-14.4 4.9-21.2l.9-3.7h.2c1.1 0 2.2.1 3.3.2 1.5.1 3.1.3 4.7.3h.5c3.3 0 6.7.1 9.9.4.7.1 1.6.1 2.5.1 1.6.1 3.4.1 4.5.4-.4 1.8-.8 3.6-1.1 5.2-.7 3.4-1.5 6.7-2.2 10.1-.7 3.3-1.4 6.5-2.1 9.7zm-64.1 138c.1 0 0 0 0 0zm-6-1.6h.1v.2c-.1-.1-.2-.1-.3-.2h.2zm2.3.3v.3h-.2c.1 0 .1-.1.2-.3zm-.4.5c-.1.1-.1.2-.2.3-.1-.1-.3-.2-.4-.3.1 0 .1.1.2.1h.2c.1 0 .1-.1.2-.1zm1.5 1.3c.1-.1.1-.1.1-.2 0 0 .1 0 .1.1 0-.1-.1 0-.2.1.1 0 .1 0 0 0zm1.2-.1h.2v.1c0-.1-.1-.1-.2-.1.1 0 .1 0 0 0zm2.9-4.1c-.2 0-.3.1-.4.2h-.1c.2-.1.2-.3.2-.6.1 0 .2.1.3.1h.1c.1.2.2.3.5.3 0 .1-.1.2-.1.3-.1-.2-.3-.3-.5-.3zm-.3 1.2c.1 0 .2.1.3.1h.2l-.3.9h-.1c0-.3-.2-.5-.5-.5 0-.1 0-.1-.1-.2.3-.1.4-.2.5-.3zm-.9 1.5c0-.1 0-.1 0 0 .1 0 .1.1.2.1l-.2-.1zm.2.1c.1 0 .1 0 .2.1v.1l-.2-.2zm-1.2.4c-.1 0-.1.1 0 0-.1 0-.1 0-.1-.1l.1.1zm-1.1-.3c-.1-.1-.2-.1-.4-.1-.1 0-.3 0-.3.1v-.6l.9.5s-.1.1-.2.1zm-1.7-.9c0-.1 0-.1 0 0v-.2l.2.1c-.1 0-.2 0-.2.1zm-1.3-.2c-.1-.2-.3-.3-.6-.3h-.1c0-.2-.1-.5-.3-.6.1 0 .2-.1.3-.1l1.1.6c-.2 0-.3.1-.4.4zm-.1 1c-.1 0-.1-.1-.2-.1h.1l.1.1zm-1.7-1.5h-.3c-.2 0-.3.1-.4.1-.1-.1-.3-.2-.4-.2.3 0 .6-.1.8-.1.1 0 .3 0 .4-.1 0 .1-.1.2-.1.3zm9.8-5.2c-.1-.1-.2-.2-.4-.2-.8 0-.8 1.2 0 1.2h.2l-.3 1.2c0 .2-.1.3-.1.5h-.4c-.1-.2-.3-.3-.5-.3-.4 0-.6.4-.6.7-.1 0-.2-.1-.3-.1-.7 0-.8 1-.3 1.2-.2.2-.3.5-.2.7-.1-.1-.3-.3-.5-.3-.1 0-.2 0-.3.1.1-.3 0-.6-.3-.7.8 0 .8-1.2 0-1.2-.7 0-.8.9-.3 1.2-.8 0-.8 1.2 0 1.2.1 0 .2 0 .3-.1 0 .2 0 .5.2.7-.1.1-.1.1-.1.2l-4-2.1c.6-2 1.4-4.9 2.2-7.9 1.4-5.2 3.1-11.1 3.7-13.2.9-2.8 3.9-13.4 6.7-23.7 2-7.1 4.1-14.5 5.3-18.9 1.9-6.5 3.4-12.7 4.6-18.1.6-2.6 1.2-5.1 1.8-7.4v-.2c.1-.1.1-.2.1-.3.2-.7-.7-1-1.1-.6-.2.2-.2.6 0 .8-.6 2.4-1.2 4.8-1.8 7.4-1.3 5.4-2.7 11.5-4.6 18.1-1.3 4.3-3.2 11.4-5.3 18.9-1 3.6-2 7.3-3 10.7-.3 0-.5.2-.5.6v.1c0 .2.1.4.2.5-.3 1.1-.6 2.1-.9 3.1-.7 0-.8.9-.3 1.2-.1.3-.2.6-.3 1-.1-.1-.2-.1-.3-.1-.8 0-.8 1.2 0 1.2-.1.2-.1.5-.2.7-.1-.1-.2-.1-.3-.1-.6 0-.7.7-.5 1-.5.2-.4 1.1.2 1.2-.1.3-.2.5-.2.8h-.3c-.8 0-.8 1.1-.1 1.2-.1.3-.2.5-.2.7-.1.2-.1.4-.2.6-.5.1-.6.7-.3 1-.2.6-.3 1.2-.5 1.9-.3-.3-.7-.3-1 .1 0 .1-.1.1-.1.2-.3.5.3 1 .7.9-.1.3-.2.6-.2.8-.4-.2-1-.1-1 .5v.1c0 .4.3.6.7.6 0 .1-.1.3-.1.4h-.1c-.7 0-.8 1-.2 1.2 0 .1-.1.2-.1.3h-.1c-.7 0-.8.9-.3 1.2-.1.3-.1.5-.2.8h-.1c-.7 0-.8 1-.2 1.2-.1.5-.3 1-.4 1.4v.1c-.2-.1-.5 0-.6.3 0 .1-.1.1-.1.2-.2.4 0 .7.3.8-.7 0-.8 1-.2 1.2-.4-.2-.9 0-.9.5v.1c0 .4.3.6.6.6 0 .1-.1.2-.1.3h-.2c-.8 0-.8 1.1-.1 1.2 0 .1-.1.2-.1.3-.1-.1-.2-.1-.3-.1-.7 0-.8.9-.3 1.2h-.1c-.2.1-.4.2-.4.4-.1.1-.2.3-.1.5 0 .2.2.4.4.4-.3.1-.6.1-1 .2s-.9.1-1.3.2c.8-3 2.4-8.5 3.7-13 .5-1.6.9-3.1 1.2-4.2 2.6-9.2 4.8-17.1 7.1-25.4.8-3.1 1.7-6.2 2.7-9.6 1.3-4.7 2.6-9.2 3.8-13.5 4.7-16.7 8.8-31.1 13.2-51 1.4-6.4 2.9-12.9 4.4-19.2 1.6-6.7 3-13 4.4-19.2.4-1.8.9-3.9 1.3-6 1.7-7.4 3.7-16.5 4.7-22.7.4 0 .8 0 1.2-.1.4 0 .7-.1 1.1-.1-.1 2.1-.9 6.8-2.4 14.1-.1.3.1.5.4.6.3.1.5-.1.6-.4C57 14.6 57.8 9.9 58 7.7l6.1 2.3c-.4 2.1-1.5 6.7-3.3 14.5-1.5-.1-3 0-4 .9-.6.6-1 1.4-1 2.5 0 .9.2 1.5.6 2 .2.2.4.3.7.4-.3.3-.2 1.1.4 1.1.5 0 .7-.5.6-.9h.5c-.2.2-.3.5-.1.8-.1.1-.2.2-.2.3h-.1c-.8 0-.8 1.2 0 1.2.3 0 .5-.2.5-.4h.2l-.2.7c-.2 0-.3 0-.5.2l-.1.1c-.4.4-.1.9.3 1-.1.2-.1.5-.2.7-.4-.2-1 0-1 .5v.1c0 .4.4.6.7.6-1.4 6.2-3 12.8-4.4 19.1-.9.1-1.7.3-2.4.8-.6.6-1 1.4-1 2.4 0 .7.1 1.2.4 1.6-.3.2-.3.7-.1.9v.3c0 .5.4.6.7.6-.2.3-.1.8.3.9-.2.1-.4.3-.4.6v.1c0 .3.2.5.4.6-1.8 7.8-3.7 16.3-4.3 19.4-.7 0-1.3 0-1.7.2-1.3.6-2.2 2.8-2.2 4 0 .5.2.9.5 1.3-.1.1-.2.3-.1.6v.1c0 .2.2.4.4.4h.1c.3.1.5-.1.7-.3 0 .1.1.2.1.3-.3 0-.5.2-.6.4-.4.2-.4.9.1 1.1-.2.1-.3.3-.3.5v.1c0 .5.5.7.9.5 0 .1 0 .2-.1.3h-.1c-.7 0-.8 1-.2 1.2-1.5 6.1-3.3 13.4-4.7 18.8-.9 0-1.9.1-2.6.8-.9.9-1.3 2.6-.9 3.8l.3.6c-.1.1-.1.2-.1.3v.1c0 .3.2.5.5.6-.7 0-.8.9-.3 1.2-.2.3-.2.8.2 1-.4.3-.2 1.1.4 1.1h.1c-.1.4-.2.7-.3 1-.6-.3-1.2.5-.7 1l.1.1c.1.1.2.1.3.2-.9 3.6-1.6 6.4-2 7.9-.5 2.1-1.2 4.7-2.1 8h-.2c-1.3-.1-2.7-.2-3.9.9-1 .9-1.5 2.5-1.2 3.6 0 .1.1.2.1.3-.3.2-.4.7-.1 1 .2.3.6.2.9 0-.1.1-.1.2-.1.4s.1.3.2.4c.2.2.3.2.5.2 0 .1.1.2.1.2-.1.1-.2.2-.2.4-.6.2-.6 1.2.2 1.2h.2c0 .3.1.7.6.7h.3c-.1.3-.2.7-.3 1 0-.1-.1-.2-.1-.2s0 .1.1.1c-.2-.8-1.4-.5-1.2.3 0 .2.1.3.2.5.3.3.6.2.8 0-1.5 5.3-3.1 10.9-4.3 15.3-1-.2-2.2-.3-3.2.6-1.1.9-1.8 2.6-1.6 3.7.1.6.5 1.1 1 1.4-.6.2-.6 1.2.1 1.2-.1.3 0 .6.3.7-.1.2-.1.4-.1.6-.4-.1-.8.1-.8.6v.1c0 .3.2.5.4.6-.4.3-.3 1.1.4 1.1h.2c0 .2-.1.3-.1.5h-.3c-.8 0-.8 1.2-.1 1.2-.7 2.2-1.6 5.1-2.3 7.9zm2.8-11c.1-.1.2-.3.2-.5v-.3h.4l-.3.9c-.1 0-.2-.1-.3-.1zm8.4-3.2c-1.4-.1-2.7-.2-3.8-.4-.3 0-.6-.1-.8-.1-1.2-.1-2.3-.3-3.8-.8-.3-.1-.5-.4-.6-.7-.1-.8.4-2.2 1.2-2.8.8-.7 1.8-.5 2.8-.3.4.1.9.2 1.3.2 3 .2 6.1.7 9.2 1.2l1.8.3c1.8.3 3.7.5 5.6.7 2.2.2 4.4.5 6.4.8-.3 1.1-.6 2.1-.9 3.2-.1-.1-.2-.1-.4-.1-.3 0-.5.2-.6.4-.1-.3-.2-.5-.6-.5h-.2c-.3 0-.4.1-.5.3h-.2c-.3 0-.5.2-.5.4 0-.3-.2-.6-.6-.6-.4 0-.5.3-.6.5-.2 0-.4 0-.7-.1 0-.3-.2-.6-.6-.6-.4 0-.5.2-.6.5h-.3c0-.4-.3-.7-.8-.6h-.1c-.2 0-.4.2-.4.4-.5-.1-1.1-.1-1.6-.2 0-.3-.2-.6-.6-.6-.3 0-.5.2-.6.4-.9-.1-1.8-.3-2.7-.4-1.5-.2-3.4-.3-5.2-.5zM48 197.3c-.1 0-.2-.1-.3-.1-.2 0-.4.1-.5.2h-.3v-.2c.1 0 .2.1.3.1.3 0 .4-.1.5-.3l.3.3zm-.2-.8c.1 0 0 0 0 0zm1.2 4.1c-.4 0-.6.2-.6.5-.1-.1-.2-.3-.4-.3.2-.1.3-.3.3-.5l.7.3zm-2.7-.1l.2-.2s.1 0 .1.1l-.2.2s-.1 0-.1-.1zm1.4.3c-.1 0-.1.1 0 0-.1 0-.1 0 0 0-.1 0-.1 0 0 0zm-1.2-1.4c-.1 0-.1.1-.2.1-.1-.1-.2-.1-.4-.1h-.2c.1-.1.1-.2.1-.3l.7.3zm-1.1.3zm-.7-.3zm2.5-.7c.2 0 .3-.1.4-.2h.1c0 .2 0 .4.1.5l-.6-.3zm-.2-3c0-.1-.1-.2-.1-.2.2 0 .3-.1.4-.3v.2c-.2 0-.3.1-.3.3zm-.6.8c.1 0 .2 0 .3-.1v.3c-.1 0-.2-.1-.3-.1h-.2c0-.1.1-.2.1-.3 0 .2 0 .2.1.2zm-.6 1.5c0-.1.1-.2.1-.3l.1.1-.2.2zm-1.1.9c-.1 0-.1 0 0 0-.1 0 0 0 0 0zm3.8 2.9s-.1-.1 0 0v-.2l.1.1c-.1 0-.1 0-.1.1zM84 83.6c-2.4 9-11 43.9-12.5 50-2.6 10.8-9.4 35.2-10.9 39.9-.3 1.1-1.3 3.8-2.4 7.2-2.3 6.9-5.4 16.1-6.6 20.1l-3.2-1.5c.4 0 .6-.3.6-.6h.2c-.1.3.1.7.6.7h.1c.1 0 .3 0 .3-.1.1.2.2.5.6.5.8 0 .8-1.2 0-1.2-.1 0-.3 0-.3.1-.1-.2-.2-.5-.6-.5h-.2c.1-.3-.1-.7-.6-.7-.4 0-.6.3-.6.6h-.2c.1-.3 0-.5-.2-.7.1.1.2.1.3.1.8 0 .8-1.2 0-1.2-.1 0-.2 0-.3.1.1-.2.1-.4.1-.6.2-.1.4-.3.4-.6 0-.5-.5-.7-.9-.6.1-.3 0-.5-.2-.7.7 0 .8-1.1.1-1.2 0-.1.1-.2.1-.3.2.1.5.1.7-.1.4-.4.1-.9-.3-1 0-.1.1-.2.1-.2.6 0 .7-.7.5-1 .3 0 .6-.2.6-.6 0-.3-.2-.5-.4-.5 0-.1 0-.1.1-.2h.1c.7 0 .8-.9.3-1.2 0-.1.1-.2.1-.3.3.3 1.1.2 1.1-.4 0-.4-.4-.6-.7-.6.1-.2.1-.4.2-.5.3.1.8-.1.8-.6v-.1c0-.3-.2-.5-.4-.5h.2c.7 0 .8-1 .2-1.2 0-.1 0-.1.1-.2h.3c.7 0 .8-1 .2-1.2.1-.3.2-.6.3-1 .6 0 .7-.7.4-1.1 0-.1.1-.2.1-.3.4.1.9-.1.9-.6v-.1c0-.3-.2-.5-.5-.6 0-.1.1-.2.1-.3.5-1.6 1-3.1 1.4-4.3 0 0 .1-.1.1-.2l.9-2.7c.1-.2.1-.4.2-.7.4.2.9 0 .9-.5v-.1c0-.4-.3-.6-.6-.6 1.9-6.2 6.5-22.3 9.7-33.3l2-6.9c1-3.5 2.7-10.5 5.4-22v-.3c.1 0 .2-.1.3-.2.6-.6-.3-1.5-.9-.9-.3.3-.2.6 0 .8l-.3.3c-2.7 11.5-4.4 18.5-5.4 22l-2 6.9c-3.6 12.5-9 31.3-10.3 35.2-.3 1.1-1.3 3.8-2.4 7.2-2.4 7.1-5.6 16.7-6.7 20.4h-2.4c0-.2.1-.4.2-.6h.1c.7 0 .8-1 .3-1.2.1-.5.3-1 .5-1.5.3 0 .6-.2.6-.6v-.1c0-.2-.1-.4-.2-.5.1-.2.1-.4.2-.6h.1c.7 0 .8-.9.3-1.2l.3-.9h.1c.7 0 .8-.9.3-1.2l.3-.9c.2.2.5.2.7-.1.1-.1.2-.3.2-.4.1-.4-.2-.7-.6-.8 0-.1.1-.2.1-.3.1 0 .2.1.3.1h.1c.6 0 .8-.8.4-1.1h.3c.2 0 .4-.2.4-.4v-.1c.1-.5-.3-.8-.7-.8.1 0 .2.1.3.1h.1c.8 0 .8-1.2 0-1.2.1-.2.2-.5.2-.7.4.3 1 .1 1-.5v-.1c0-.4-.3-.6-.7-.6.8-2.5 1.5-4.6 1.9-5.9 1.5-5.4 2.9-10.1 4.3-14.8 1.9-6.4 3.7-12.5 5.7-19.7 3.8-13.5 7.1-26.4 10.5-40.1 2.3-8.9 4.6-18.1 7.2-27.9.9-3.5 1.8-7 2.6-10.4.1-.1.1-.2.1-.3v-.1c1.2-5 2.2-10.1 3.3-15.3.7-3.3 1.4-6.7 2.1-10.1 1.9-8.7 4.3-20.8 5.5-28.5.4 0 .8 0 1.2-.1.4-.1.7-.1 1.1-.1-.1 2.7-1.7 11.5-4.8 25.5-.1.3.1.5.4.6.3.1.5-.1.6-.4 3-13.5 4.6-22 4.8-25.3l5.7 2.7c-2 8.7-13.7 62.6-16.1 71.9z"/>
        <path id="XMLID_180_" d="M87.1 42.3c-.3-.1-.5.1-.6.4-3.3 14.5-7 29.6-8.1 34.2v.3c-.6.2-.5 1.2.2 1.2.6 0 .7-.6.5-1 .1-.1.2-.2.2-.3 1.1-4.5 4.8-19.7 8.1-34.2.1-.3-.1-.6-.3-.6z"/>
        <path id="XMLID_181_" d="M46 59.2h.1c.2 0 .4-.2.5-.4.8-3.4 1.2-5.1 1.8-7.6.4-1.6.8-3.5 1.5-6.4.4-1.7.8-3.3 1.2-4.9.5-2.1 1-4.2 1.5-6.4.1-.3-.1-.5-.4-.6-.3-.1-.5.1-.6.4-.5 2.2-1 4.3-1.5 6.4-.4 1.6-.8 3.2-1.2 4.9-.7 2.9-1.1 4.8-1.5 6.4-.6 2.5-.9 4.1-1.8 7.6 0 .2.1.5.4.6z"/>
        <path id="XMLID_182_" d="M49.2 193.7c-.8 0-.8 1.2 0 1.2s.8-1.2 0-1.2z"/>
        <path id="XMLID_183_" d="M49.5 192.6c0-.9-1.2-.9-1.2-.1v.1c0 .8 1.2.8 1.2 0z"/>
        <path id="XMLID_184_" d="M49.5 189.5c-.8 0-.8 1.2 0 1.2.8.1.8-1.2 0-1.2z"/>
        <path id="XMLID_185_" d="M50.5 189.2c.8 0 .8-1.2 0-1.2-.8-.1-.8 1.2 0 1.2z"/>
        <path id="XMLID_186_" d="M50.3 196.5c-.8.4-.2 1.5.6 1.1h.1c.7-.4 0-1.5-.7-1.1z"/>
        <path id="XMLID_187_" d="M52.6 184.6c-.8 0-.8 1.2 0 1.2s.8-1.2 0-1.2z"/>
        <path id="XMLID_188_" d="M72.2 103.5c-.1 0-.1.1 0 0-.6.6.3 1.5.8.9.6-.6-.3-1.4-.8-.9z"/>
        <path id="XMLID_189_" d="M73 101.2c-.8 0-.9 1.2 0 1.2.8 0 .8-1.2 0-1.2z"/>
        <path id="XMLID_190_" d="M73.7 99.1c-.8 0-.8 1.2 0 1.2s.8-1.2 0-1.2z"/>
        <path id="XMLID_191_" d="M78 80.1c-.8 0-.8 1.2 0 1.2s.8-1.2 0-1.2z"/>
        <path id="XMLID_192_" d="M88.4 35.2c-.8 0-.8 1.2 0 1.2s.8-1.2 0-1.2z"/>
        <path id="XMLID_193_" d="M87.9 37.2c-.8 0-.8 1.2 0 1.2s.8-1.2 0-1.2z"/>
        <path id="XMLID_194_" d="M17.4 187.8c-.8 0-.8 1.2 0 1.2s.8-1.2 0-1.2z"/>
        <path id="XMLID_195_" d="M18.4 185.2c0 .1 0 .1 0 0 0 .9 1.2.9 1.2.1v-.1c0-.8-1.2-.8-1.2 0z"/>
        <path id="XMLID_196_" d="M35.7 99.2c-.8 0-.8 1.2 0 1.2.8.1.9-1.2 0-1.2z"/>
        <path id="XMLID_197_" d="M36.8 95.9c.8 0 .8-1.2 0-1.2s-.8 1.2 0 1.2z"/>
        <path id="XMLID_198_" d="M45.4 62.2c.8 0 .8-1.2 0-1.2-.8-.1-.8 1.2 0 1.2z"/>
        <path id="XMLID_199_" d="M54 23.8c.8 0 .8-1.2 0-1.2-.8-.1-.8 1.2 0 1.2z"/>
    </g>
</svg>
