<svg id="Layer_1" xmlns="http://www.w3.org/2000/svg" viewBox="0 0 133.9 204.9">
    <style>
        .st0{fill:#fff}
    </style>
    <path class="st0" d="M44.3 88.4c.5.7 1.4 2 2.6 3.8.1 1.4.9 2.6 2.1 3.3 2.8 4.4 6.5 10.4 10.9 17.5 11.4 18.3 27 43.4 39.7 62.6.1.7.4 1.4 1.1 1.9.2.1.3.3.5.4 3.7 5.5 7.1 10.5 10.1 14.6v-1.3c.3.1.6.3 1 .3v2c2 .3 4 0 6.1-.2.6-.1 1.1-.1 1.7-.2l.4-7.8h-.1c0-.9-.3-1.7-.9-2.3C109 165.6 57.3 88 52.8 81.7c0-.1-2.9 2.2-2.9 2.1-.2.1-5.6 4.5-5.6 4.6z"/>
    <path class="st0" d="M52.9 81.9c-.4-2.4-.4-5.6-.3-9.4.1-4.7.2-10-.7-15C48.2 37 32 12.9 27.8 12.3c-.5 0-1.3.5-2 1.4-3.8 4.4-7.3 16.7-5.5 38.4 1.8 22.1 24 36.3 24.2 36.4l8.4-6.6z"/>
    <g id="XMLID_63_">
        <path id="XMLID_293_" d="M121.7 185.1v-.2C114.6 172.4 59 89 53.9 81.7c-.4-2.3-.3-5.4-.3-9.1.1-4.7.2-10.1-.7-15.2C49.3 37.1 33 12 27.9 11.3c-.9.1-1.9.7-2.9 1.8-3.9 4.5-7.5 17.2-5.7 39.1 1.8 21.8 23 36.2 24.6 37.1 1.9 2.6 7.9 12.3 15.5 24.5 15.5 25 39 62.8 52.3 80.8 0 .1.1.1.2.1h.1c.8.1 1.6.2 2.5.2 1.5 0 2.9-.2 4.4-.3.7-.1 1.4-.2 2.1-.2.2 0 .4-.2.5-.5l.2-8.8zM48.1 93.9h.3c.2 0 .4-.1.5-.2h.4c.7 0 .7-1.1 0-1.1h-.2c-.2 0-.4.1-.5.2h-.4c-.3 0-.5.2-.5.4-1.4-2.2-2.4-3.7-3-4.5 0-.1-.1-.1-.1-.1-.2-.1-22.4-14.4-24.2-36.4-1.8-21.7 1.7-34 5.5-38.4.8-.9 1.5-1.4 2-1.4 4.1.6 20.4 24.6 24 45.3.9 5 .8 10.3.7 15-.1 3.7-.1 7 .3 9.4 0 .1 0 .1.1.2 4.6 6.5 59 88.2 67.5 102.6-2.4.5-5.2.6-7.8.4-11.4-21.7-39.8-64.3-55.1-87.2-5-7.5-8.6-12.9-9.8-14.9h-.1c0-.2-.2-.4-.4-.4 0-.3-.2-.6-.6-.6h-.1c-.8 0-.8 1.1-.1 1.2 0 .1 0 .2.1.2-.3-.1-.7.1-.7.5v.3c-.2-.1-.4-.2-.6-.2-.3 0-.5.2-.6.4-.6.2-.6 1.2.2 1.2.2 0 .3-.1.4-.1.3.3 1 .1 1.1-.5V85c.3.1.8-.1.8-.5V84h.1c.1.1.2.3.3.4-.2.1-.4.3-.4.6v.1c0 .2.1.3.2.4-.3.3-.2 1 .4 1 .2 0 .3-.1.4-.1 0 .5.7.7 1 .4l.6.9c-.7-.2-.8 0-.8.3v.1c0 .2.1.3.2.4-.2.1-.4.3-.5.6v.4c0 .5.5.7.9.5-.1.2-.1.4 0 .6.1.3.2.5.4.8.3.7 1.4.1 1.1-.6-.1-.3-.2-.5-.4-.8-.2-.3-.5-.4-.7-.3 0-.1.1-.2.1-.2v-.4c0-.2-.1-.3-.2-.4.1 0 .2-.1.3-.2 1.7 2.6 4 6 6.6 9.9 14.6 21.9 41.3 62 53.5 84.3-.8 0-.8 1.2 0 1.2.3 0 .4-.1.5-.3.4.7.7 1.4 1.1 2 0 .5-.1.9-.1 1.4-.1-.2-.3-.3-.5-.3h-.2c.2-.1.4-.3.4-.6v-.2c0-.8-1.2-.8-1.2 0v.2c-.1-.1-.2-.1-.3-.1-.8 0-.8 1.2 0 1.2.4 0 .6-.3.6-.6.1.1.2.1.3.1-.4.1-.4.6-.3.9-.8 0-.8 1.2 0 1.2.5 0 .7-.6.5-.9h.2c.2 0 .4-.1.5-.2-.1 1.7-.2 3.4-.2 5-3-4.1-6.4-9-10.1-14.6.8 0 .8-1.2 0-1.2-.3 0-.5.2-.5.4-12.9-19.4-29-45.3-40.7-64-5.2-8.2-9.4-14.9-12.2-19.4zm-.2-8.3c0-.1 0-.1-.1-.2.1 0 .1-.1.1-.1 0 .1.1.1.1.2 0 0-.1 0-.1.1zm72.4 107.9c-.6.1-1.1.1-1.7.2-2.1.3-4.1.5-6.1.2 0-2.5.1-5.1.3-7.8 2.6.2 5.4.1 7.9-.4l-.4 7.8z"/>
        <path id="XMLID_298_" d="M40.2 45.5c6.3 9.2 8.4 12.4 9.2 29-.1-.1-.2-.2-.4-.2-.8 0-.8 1.2 0 1.2.2 0 .4-.1.5-.2v1.1c-.1-.1-.3-.1-.4 0-.2-.3-.5-.5-.9-.5-.7 0-.8 1-.2 1.2.1.4.5.5.8.4.1.1.2.1.3.2-.2 0-.3.1-.4.2-.2-.6-1.2-.5-1.2.2v.1c-.2-.5-1.2-.4-1.2.3v.8c0 .8 1.2.8 1.2 0v-.5c.1.2.3.3.5.3-.3 0-.6.2-.6.6v.8c0 .7 1 .8 1.2.2.1.5.7.6 1 .3.1.2.2.3.5.3.5 0 .7-.6.5-.9-.6-22.3-2.7-25.4-9.5-35.5-3.1-4.6-6-6.7-8.3-6.2-2.2.5-3.7 3.4-4.4 8.4 0 .3.2.5.4.6.3 0 .5-.2.6-.4.6-4.6 1.9-7.2 3.6-7.6 1.8-.4 4.4 1.7 7.2 5.8zm9.4 33.2c-.1 0-.1 0 0 0-.1 0-.1 0 0 0zm-.1-1c-.1 0-.2-.1-.2-.1.1 0 .2 0 .2-.1v.2zm-.9 1.6c-.1-.1-.3-.2-.5-.2.2 0 .5-.2.5-.4l.2.2c-.1 0-.2.1-.2.4z"/>
        <path id="XMLID_301_" d="M46.5 76.6h-.4c-.8 0-.8 1.2 0 1.2h.4c.8.1.8-1.2 0-1.2z"/>
        <path id="XMLID_302_" d="M46 75.2c0 .6.4 1 1 1 .7 0 .8-1 .2-1.2-.1-.6-1.2-.5-1.2.2z"/>
        <path id="XMLID_303_" d="M46.8 73.7v.4c0 .8 1.2.8 1.2 0v-.4c.1-.8-1.2-.8-1.2 0z"/>
        <path id="XMLID_304_" d="M42.8 74.7v1.2c0 .8 1.2.8 1.2 0v-1.2c.1-.8-1.1-.8-1.2 0z"/>
        <path id="XMLID_305_" d="M42.5 72.7v.4c0 .8 1.2.8 1.2 0v-.4c.1-.8-1.2-.8-1.2 0z"/>
        <path id="XMLID_306_" d="M44.6 71.2v-.4c0-.8-1.2-.8-1.2 0v.4c-.1.8 1.2.8 1.2 0z"/>
        <path id="XMLID_307_" d="M48.7 73.6c.8 0 .8-1.2 0-1.2-.8-.1-.8 1.2 0 1.2z"/>
        <path id="XMLID_310_" d="M40.1 75v.8c0 .8 1.2.8 1.2 0V75c0-.4-.2-.6-.5-.6.1 0 .1-.1.2-.1h.3v.4c0 .8 1.2.8 1.2 0v-.8c0-.6-.6-.7-1-.5-.1-.1-.2-.3-.5-.3v-.4c.3.3 1.1.2 1.1-.4v-.8c0-.2-.1-.3-.1-.4.1-.2.2-.4.1-.6.1 0 .2.1.3.1.5 0 .8-.3.8-.8 0-.6-.7-.7-1-.3-.3.1-.4.5-.3.7-.1 0-.2-.1-.3-.1-.6 0-.7.6-.5 1-.1.1-.1.2-.2.3 0-.3-.2-.6-.5-.6H40c-.3 0-.5.2-.5.5h-.1c-.7 0-.8 1-.2 1.2v.2c-.2.2-.3.6 0 .8l.2.2c-.1.4.1.8.6.8h.2c.1 0 .2.1.3.1-.3 0-.4.2-.4.4zm.9-3.4v.9c-.1-.1-.2-.2-.4-.2h-.3c0-.1 0-.3-.1-.4h.3c.2.1.4-.1.5-.3z"/>
        <path id="XMLID_311_" d="M41.8 77.7h.8c.8 0 .8-1.2 0-1.2h-.8c-.8-.1-.8 1.1 0 1.2z"/>
        <path id="XMLID_312_" d="M42.7 79.6c.3.1.7 0 .8-.4.1.6 1.2.6 1.2-.2v-.8c0-.8-1.2-.8-1.2 0v.5c-.1-.4-.3-.7-.8-.7s-.7.4-.8.8c-.2.6.3.9.8.8z"/>
        <path id="XMLID_313_" d="M44.7 86.4v-.2c0-.8-1.2-.8-1.2 0v.1c0 .2.1.4.2.5-.1.4 0 .9.6.9h.4c.7 0 .7-1.2 0-1.3z"/>
        <path id="XMLID_314_" d="M45.8 87.6c-.8 0-.8 1.2 0 1.2.8.1.8-1.2 0-1.2z"/>
        <path id="XMLID_315_" d="M46.6 87.3c.8 0 .8-1.2 0-1.2s-.8 1.2 0 1.2z"/>
        <path id="XMLID_316_" d="M48.8 87.9v-.4c0-.8-1.2-.8-1.2 0v.4c-.1.8 1.2.8 1.2 0z"/>
        <path id="XMLID_317_" d="M109.4 184.3c-.1-.1-.3-.2-.5-.3h-.2c-.8 0-.8 1.2 0 1.2h.2c.2 0 .4-.1.5-.2.1.1.3.2.5.2.8 0 .8-1.2 0-1.2-.2.1-.4.2-.5.3z"/>
        <path id="XMLID_318_" d="M106.7 181.2c.8 0 .8-1.2 0-1.2s-.8 1.2 0 1.2z"/>
        <path id="XMLID_319_" d="M104.7 178.3c.8 0 .8-1.2 0-1.2s-.8 1.2 0 1.2z"/>
        <path id="XMLID_320_" d="M101.6 173.1c.8 0 .8-1.2 0-1.2-.8-.1-.8 1.2 0 1.2z"/>
        <path id="XMLID_322_" d="M104.6 176c.8 0 .8-1.2 0-1.2-.9-.1-.9 1.2 0 1.2z"/>
        <path id="XMLID_323_" d="M106.8 179.1c.8 0 .8-1.2 0-1.2s-.8 1.2 0 1.2z"/>
        <path id="XMLID_324_" d="M108.8 180.7v-.2c0-.8-1.2-.8-1.2 0v.2c-.1.8 1.1.8 1.2 0z"/>
        <path id="XMLID_325_" d="M108.5 182.5c-.1 0-.1 0 0 0-.1-.2-.3-.4-.6-.4-.8 0-.8 1.2 0 1.2.2 0 .3-.1.4-.1.1.2.3.4.6.4.5 0 .7-.4.6-.8.5-.3.4-1.2-.3-1.2-.6.1-.8.6-.7.9z"/>
        <path id="XMLID_326_" d="M100.1 167.7c-.8 0-.8 1.2 0 1.2.8.1.8-1.2 0-1.2z"/>
        <path id="XMLID_327_" d="M97.1 164.1c-.8 0-.8 1.2 0 1.2.8.1.8-1.2 0-1.2z"/>
        <path id="XMLID_329_" d="M110.9 191.3c.8 0 .8-1.2 0-1.2-.8-.1-.8 1.2 0 1.2z"/>
        <path id="XMLID_330_" d="M42.2 75.2c-.7 0-.7 1.1 0 1.1.8.1.8-1.1 0-1.1z"/>
        <path id="XMLID_331_" d="M51.5 92.9c.5.2 1.1-.5.6-.9-.4-.4-1.1-.5-1.3.1-.3.5.3 1 .7.8z"/>
        <path id="XMLID_332_" d="M52.8 96.5c.3.5 1.2.2 1-.5-.1-.6-.6-.7-1.1-.6-.6.1-.5 1 .1 1.1z"/>
        <path id="XMLID_333_" d="M56.6 100.7c-.7 0-.7 1.1 0 1.1s.7-1.1 0-1.1z"/>
        <path id="XMLID_334_" d="M47.4 89.6c.7 0 .7-1.1 0-1.1-.7-.1-.7 1.1 0 1.1z"/>
        <path id="XMLID_335_" d="M48.3 90.2c-.3 0-.5.2-.5.4 0-.1-.1-.3-.3-.4-.1-.1-.2-.1-.3-.2 0-.7-1.1-.7-1.1 0v.2c0 .2.1.4.3.5 0 .1.1.2.2.2.1.1.3.2.4.2.4.2.7-.1.8-.4 0 .2.2.4.4.5-.6.1-.6 1.1.1 1.1s.7-1 .2-1.1c.5 0 .4-1-.2-1z"/>
        <path id="XMLID_336_" d="M58.2 102.9c-.7 0-.7 1.1 0 1.1.8.1.8-1.1 0-1.1z"/>
        <path id="XMLID_337_" d="M59.9 106.1h.2c.7 0 .7-1.1 0-1.1h-.2c-.7-.1-.7 1 0 1.1z"/>
        <path id="XMLID_338_" d="M62.6 109.6c-.7 0-.7 1.1 0 1.1s.7-1.1 0-1.1z"/>
        <path id="XMLID_339_" d="M62.2 114.1c-.7 0-.7 1.1 0 1.1.7.1.7-1.1 0-1.1z"/>
        <path id="XMLID_340_" d="M61.2 112.6c-.7 0-.7 1.1 0 1.1s.7-1.1 0-1.1z"/>
        <path id="XMLID_341_" d="M60.3 111.2c-.7 0-.7 1.1 0 1.1.8.1.8-1.1 0-1.1z"/>
        <path id="XMLID_343_" d="M59.6 109c-.7 0-.7 1.1 0 1.1.7.1.7-1.1 0-1.1z"/>
        <path id="XMLID_344_" d="M54.2 100c-.1 0-.3.1-.3.1.1-.3 0-.8-.5-.8-.7 0-.7 1.1 0 1.1.1 0 .3-.1.3-.1-.1.3 0 .8.5.8.7 0 .8-1.1 0-1.1z"/>
        <path id="XMLID_345_" d="M53.2 97.8c-.7 0-.7 1.1 0 1.1s.7-1.1 0-1.1z"/>
        <path id="XMLID_346_" d="M52.8 98.9c-.1-.3-.3-.5-.5-.8-.1-.1-.2-.2-.3-.2.1-.1.1-.2.1-.3v-.2c0-.4-.2-.5-.5-.5.2-.3.1-.9-.5-.9h-.4c-.7 0-.7 1.1 0 1.1h.4c-.1.1-.1.2-.1.3v.2c0 .4.3.6.6.5-.1.2-.2.5 0 .7.1.2.2.4.3.5.2.8 1.2.2.9-.4z"/>
        <path id="XMLID_347_" d="M50.5 95.8c.1 0 .2 0 .3-.1.1.1.2.1.3.1h.2c.7 0 .7-1.1 0-1.1h-.2c.1 0 .1-.1.2-.2.1.1.2.2.4.2h.2c.7 0 .7-1.1 0-1.1h-.2c-.2 0-.3.1-.4.2-.1-.1-.2-.2-.4-.2-.7 0-.7 1.1 0 1.1 0 0-.1 0-.1.1-.1-.1-.2-.1-.3-.1-.1 0-.2 0-.3.1 0-.3-.2-.6-.5-.6-.7 0-.7 1.1 0 1.1.1 0 .2 0 .3-.1-.1.3.1.6.5.6z"/>
        <path id="XMLID_348_" d="M43.5 84.2c.8 0 .8-1.2 0-1.2h-.2c-.2-.2-.6-.3-.9-.1.1-.1 0-.3-.1-.6.1.1.2.2.4.2.3 0 .4-.1.5-.3.1.2.3.3.5.3.1 0 .2 0 .3-.1 0 .2.1.3.2.4-.3.3-.1 1 .4 1 .6 0 .7-.7.4-1.1.2-.2.2-.5.1-.7.6-.2.6-1.2-.2-1.2-.5 0-.7.6-.5.9h-.1c0-.3-.2-.5-.4-.6 0-.3-.2-.7-.6-.7h-.1c-.5 0-.7.4-.6.8-.4 0-.6.3-.6.6-.7-1.6-2.4-4.4-2.5-4.6-1.4-2.2-3.1-4.2-4.4-6.6-.3-.6-1.3-.1-1 .6 1.9 3.5 4.8 6.4 6.3 10.2.4 1.1.9 3.3 2.3 2.4.4.3.6.4.8.4z"/>
        <path id="XMLID_350_" d="M43.3 84.3c-.8 0-.8 1.2 0 1.2.7 0 .7-1.2 0-1.2z"/>
        <path id="XMLID_351_" d="M41.1 68.4s0-.1 0 0c0-.9-1.2-.9-1.2-.1v.1c0 .8 1.2.8 1.2 0z"/>
        <path id="XMLID_352_" d="M39.9 70.5c.1 0 .2.1.3.1.8 0 .8-1.2 0-1.2-.3 0-.5.2-.6.4-.4-.2-.9 0-.9.5v.1c0 .8 1.1.8 1.2.1z"/>
        <path id="XMLID_353_" d="M39.2 69.6c.8 0 .8-1.2 0-1.2s-.8 1.2 0 1.2z"/>
        <path id="XMLID_354_" d="M44.4 66c-.1 0-.1 0 0 0-.9 0-.9 1.2-.1 1.2h.1c.7 0 .7-1.2 0-1.2z"/>
        <path id="XMLID_355_" d="M45.9 66.6c-.8 0-.8 1.2 0 1.2s.8-1.2 0-1.2z"/>
        <path id="XMLID_357_" d="M47.2 67.8c-.8 0-.8 1.2 0 1.2.8.1.8-1.2 0-1.2z"/>
        <path id="XMLID_358_" d="M47.9 69.4c-.8 0-.8 1.2 0 1.2s.8-1.2 0-1.2z"/>
        <path id="XMLID_359_" d="M50.1 81.2H50c-.8 0-.8 1.2 0 1.2h.1c.8 0 .8-1.2 0-1.2z"/>
        <path id="XMLID_360_" d="M51.1 84.2c.8 0 .8-1.2 0-1.2-.8-.1-.8 1.2 0 1.2z"/>
        <path id="XMLID_361_" d="M51.7 85.4c.8 0 .8-1.2 0-1.2-.8-.1-.8 1.2 0 1.2z"/>
        <path id="XMLID_362_" d="M54.2 89.1c.8 0 .8-1.2 0-1.2-.8-.1-.8 1.2 0 1.2z"/>
    </g>
</svg>
