<svg id="Layer_1" xmlns="http://www.w3.org/2000/svg" viewBox="0 0 114.3 152.7">
    <style>
        .st0{fill:#fff}
    </style>
    <path id="XMLID_131_" class="st0" d="M57.9 66.3c-.6-.2-1.3-.3-2-.3H55c-.7 0-1.7-.1-2.4 0-3.8.3-7.3 2.3-10.8 4.5-.7.5-1.5 1-2.2 1.6-.1-.2-.3-.4-.6-.4-.7 0-.8.9-.3 1.2-.3.3-.6.5-.8.8-.6.7-1.5 1.6-1.8 2.5-.1.4-.3.9-.3 1.5-.1 0-.1.1-.2.1-.6-.3-1.3-.7-1.7-1.4-.9-1.6-2.6-4.3-4.1-6.2-.8-1-1.4-2.1-2-3.2-.6-1-1.2-2-1.7-2.7 0 0 .1 0 .1-.1v-.1h.4c.1 0 .2-.1.2-.1.1.1.3.1.5 0h.1c.2-.1.3-.2.4-.3.1.2.3.3.5.3h.1c.8 0 .8-1.2 0-1.2h-.1c-.3 0-.5.2-.5.4-.1-.2-.4-.4-.7-.3H27c-.1 0-.2.1-.2.1-.1-.1-.3-.1-.5 0h-.1c-.1 0-.2.1-.3.2-.2 0-.4 0-.5.2 0 0 0 .1-.1.1-.4-.5-.5-1.2-.3-2.2.7-3.2 4.7-8.5 9.6-11.1 5.3-2.8 9.5-1.4 12.2-.6l.4.1c1.3.4 2.3 1.2 3.2 2.7.3 2.1 1.1 3.5 2.1 5l.1.1c.9 1.5 1.7 2.7 2.5 3.9.4.7.9 1.4 1.4 2.2.2.4.5.7.8 1.1.4.8.7 1.2.6 1.6z"/>
    <path class="st0" d="M98.7 124.4c-1.5-4.1-.4-8.2-1.6-12.2-.7-2.2-2.1-4.4-3.5-6.4 0-.1 0-.2-.1-.3-.9-2.6-2.1-4.1-4.4-5.6-.2-.2-1-1.1-1.3-1.2-2.4-2.6-4.2-4.5-5.4-7.5 0-.3 0-.5-.1-.8-.2-.4-.3-.9-.5-1.3-.4-.9-1-1.5-1.7-1.7-3.9-4.2-8.6-7.6-12.9-11.3-1.7-4.3-6.4-8.6-11-9.4-4.7-.8-11.6 2.5-15.1 5.3-1.5 1.2-3.2 2.8-3.8 4.6-1 3 1.2 3.5 2.1 6.2.8 2.2.7 4.2 2.2 6.3 1.1 1.6 2.3 2.9 3.4 4.4-.1.5 0 1 .3 1.5.7 1.4 1.5 2.7 2.4 3.9.1.1.2.3.3.4.1.2.2.3.3.4.3.4-.3.9 0 1.3.2.2.3.5.5.7.4 1.6 0 3.1 1.6 4.7 0 .8 1.3 1.6 2.1 2.2 2.6 2 4.5 4.6 5.5 7.7.6 2 .7 4 1.9 5.7 1.2 1.7 3.2 2.8 4.9 3.9 2.5 1.7 4.2 3.6 6.4 5.5 1.3 1.2 2.6 1.5 4.2 2 1.5.5 2.3 1.4 3.7 2.1.6.3 1.1.4 1.6.4v.1s0 .1.1.1c.1.2.2.3.4.4v.1c.1.4.6.4.9.2.1 0 .1-.1.1-.2.1-.2.1-.3.2-.5.1-.1.2-.1.2-.3 0-.2.1-.3.2-.5.6-.3.9-.6 1.3-1.1.2-.2.4-.5.5-.7.4 1.4 2.3 2.2 3.7 1.5 1.4-.7 2.1-1.5 2.6-2.7.2 0 .3-.1.5-.1 1 1.1 3 1.4 4.1-.2.3-.4.4-.7.5-1.1.5-1.3.7-2.5.5-3.8 1.5.2 2.8-.9 2.2-2.7zM59.3 88zM88 124.4c0-.1-.1-.1 0 0-.1-.1 0-.1 0 0 0-.1 0-.1 0 0zm4.9-3.3v-.6.6z"/>
    <g id="XMLID_514_">
        <path id="XMLID_1664_" d="M90.2 133.3c0-.1.1-.2.1-.3.1.1.2.2.4.2.8 0 .8-1.2 0-1.2-.1 0-.2 0-.3.1v-.6c.2 0 .3-.1.4-.3-.1.3.1.7.6.7.8 0 .8-1.2 0-1.2h-.1c.2-.1.4-.4.3-.7 0-.2-.1-.3-.2-.4-.2-.2-.4-.2-.6-.2 0-.3-.2-.6-.5-.6.4-.3.3-1.1-.3-1.1h-.3v-.1c.5-.2.4-1.2-.3-1.2h-.1l-.1-.2c-.6-1.6-.9-2.6-.9-4.6 0-2.2-.7-3.2-1.6-4.4l-.3-.4c-.1-.2-.3-.4-.5-.4-.1 0-.2 0-.3.1v-.2c0-.8-1.2-.8-1.2 0 0 .6.6.7 1 .5-.1.3.1.8.5.8l.1.1c.9 1.2 1.4 1.9 1.4 3.8 0 2.2.4 3.3 1 4.9l.3.8c.9 2.6 1.2 4.5.8 5.6-.3.7-1.6 1.7-2.9 1.9-.3 0-.5 0-.7-.1.6-.2.6-1.2-.2-1.2-.1 0-.2 0-.3.1-.1-.2-.2-.4-.5-.4v-.3h.2c.8 0 .8-1.2 0-1.2-.3 0-.5.2-.6.4-.1-.2-.3-.4-.6-.4-.1 0-.2 0-.2.1v-.3c.1.1.2.2.4.2.8 0 .8-1.2 0-1.2-.2 0-.3.1-.4.2-.1-.1-.2-.1-.3-.2.2 0 .4-.2.5-.4.1.1.2.2.4.2h.1c.7 0 .8-.9.3-1.2.6-.2.5-1.2-.2-1.2s-.8.9-.3 1.1c-.2.1-.4.2-.4.4l-.1-.1h-.1c-.7-.4-1.4.7-.6 1.1h.2c-.3 0-.5.2-.5.6v.3c.6 2.8-.6 4.3-1.4 5.3l-.1.1c-.7-1.1-1.3-1.8-1.9-2.2-.3-.2-.6-.3-.9-.5-.9-.4-1.7-.8-1.7-2.2v-.3c0-.8-1.2-.8-1.2 0-.5.1-.5.8-.2 1.1 0 0 0 .1-.1.1h-.1c-.1-.4-.5-.6-.8-.5.4-.3.3-1.1-.3-1.1-.5 0-.6.4-.6.7h-.2c-.3 0-.4.1-.5.3-.3-.1-.5-.2-.8-.4.1-.2.1-.5-.1-.7.1-.1.3-.3.3-.5v-.1c0-.8-1.2-.8-1.2 0v.1c0 .2.1.3.1.4l-.1.1c-.2-.1-.4-.3-.6-.4.5-.3.4-1.2-.3-1.2h-.1c-.3 0-.5.2-.5.4-.6-.6-1.1-1.2-1.6-1.9-.8-1.1-1.7-2.2-2.9-3-.4-.2-.8-.4-1.1-.6-1.4-.8-2.8-1.6-3.8-2.7-1.4-1.5-1.6-3.9-1.7-5.6-.1-1.3-.2-2.3-.8-2.7-.2-.1-.5-.1-.7.2-.1.2-.1.5.2.7.2.2.3 1.2.3 1.9.2 1.8.4 4.4 2 6.1 1.2 1.3 2.7 2.1 4.1 2.9.4.2.7.4 1.1.6 1.1.6 1.8 1.6 2.7 2.7.5.7 1 1.4 1.7 2 1.3 1.2 3.8 3.2 6.7 3.2h.4c.1 0 .2-.1.3-.1 0 0 .1 0 .1-.1.5.8 1.2 1.2 1.9 1.5.3.1.5.3.7.4.5.3 1.2 1.2 2 2.5l.4.7.4-.7c.1-.2.3-.4.4-.6.5-.7 1.3-1.6 1.6-3 .1.1.2.2.4.2 0 .1 0 .2.1.3.1.1.2.2.2.3-.4 1.4.6 2.7 1.4 3.7.3.3.5.6.6.9.3.4.3 1.1.3 1.8 0 .4 0 .7.1 1l.1.7.6-.3c3.5-1.8 2.5-4.8 1.9-6.7-.1-.4-.3-.8-.3-1.1v-.1c.3-.4.8-1 1-1.5zm.8-2.5s0-.1 0 0c.1-.1.1-.1.2-.1-.1.1-.2.1-.2.1 0 .1 0 0 0 0zm-17.4 1.3h.4c-.1.1-.2.1-.2.2h-.2c0-.1.1-.2 0-.2zm11.5 3.6c0-.1 0-.1 0 0 0-.1 0-.1 0 0 0-.1 0-.1 0 0zm3.2.6c.5 1.7 1.2 3.7-.7 5.1v-.2c.3-.2.5-.6.2-1l-.1-.1c.2-.1.3-.3.3-.5 0-.4-.3-.6-.6-.6.1-.3-.1-.7-.4-.8.2-.4.1-1-.5-1h-.1c.1-.3 0-.6-.3-.7.1-.2.2-.5.1-.7h.4c.5 0 1.1-.2 1.6-.5-.1.3 0 .6.1 1zm2.1-6.4v.2h-.1v-.2h.1z"/>
        <path id="XMLID_1669_" d="M99.2 129.8c-.3-.6-.6-1.1-.7-1.8-.1-.3-.3-.4-.6-.4-.3.1-.4.3-.4.6.2.8.5 1.5.8 2.1.5 1 1 1.8.5 3-.1.3 0 .5.3.6h.2c.2 0 .4-.1.5-.3.6-1.7 0-2.8-.6-3.8z"/>
        <path id="XMLID_1670_" d="M52 93.4c-.8 0-.8 1.2 0 1.2s.8-1.2 0-1.2z"/>
        <path id="XMLID_1671_" d="M50.8 93.8c.8 0 .8-1.2 0-1.2s-.8 1.2 0 1.2z"/>
        <path id="XMLID_1672_" d="M83.4 104.2c.8 0 .8-1.2 0-1.2-.8-.1-.8 1.2 0 1.2z"/>
        <path id="XMLID_1673_" d="M82.2 102c-.8 0-.8 1.2 0 1.2.8.1.8-1.2 0-1.2z"/>
        <path id="XMLID_1674_" d="M83.3 115.7c.8 0 .8-1.2 0-1.2-.8-.1-.8 1.2 0 1.2z"/>
        <path id="XMLID_1675_" d="M82.5 127.4c-.8 0-.8 1.3 0 1.3s.8-1.3 0-1.3z"/>
        <path id="XMLID_1676_" d="M83.2 125.9c0-.8-1.2-.8-1.2 0-.1.9 1.2.9 1.2 0z"/>
        <path id="XMLID_1677_" d="M75.1 129.8c0 .9 1.2.9 1.2.1v-.1c.1-.8-1.2-.8-1.2 0z"/>
        <path id="XMLID_1678_" d="M75.5 127.5c-.8 0-.8 1.3 0 1.3.8-.1.8-1.3 0-1.3z"/>
        <path id="XMLID_1681_" d="M96.2 127.3c.1.1.2.1.3.1.5 0 .9-.5 1.4-1.1 1-1.9.4-3.5-.2-5.1l-.2-.5c-.6-1.5-.5-2.5-.3-3.8v-.2c0-.2.1-.4.1-.7v-.3c.3-2 .1-3.3-1-5.2-.2-.4-.5-.8-.8-1.2-.7-.9-1.3-1.8-1.3-2.8l-1.5-3.4c-1-1.8-2.7-3.6-4.2-5.1l-.5-.5c-.4-.4-1-.9-1.5-1.3-1.3-1.2-2.7-2.4-3.3-3.8-.2-.5-.4-1.1-.5-1.7-.2-1-.5-2.1-1.2-3-.8-.9-1.8-1.6-2.7-2.2-.8-.5-1.5-1.1-2.1-1.7-.3-.3-.7-.8-1.1-1.4-.8-1-1.6-2.1-2.3-2.4l-.9-.6-.1-.1c-3-1.2-5-3.9-7-6.5-1.9-2.5-3.8-5-6.5-6.2.3-1-.3-1.8-1-2.6-.2-.3-.5-.6-.7-1-.5-.8-1-1.5-1.4-2.2-.8-1.3-1.6-2.5-2.5-3.9H53c-.9-1.5-1.7-2.8-1.9-4.7v-.1l-.1-.2c-.7-1.1-1.8-2.5-3.8-3.2l-.4-.1c-2.7-.9-7.3-2.4-13 .6-.4.2-.7.4-1.1.6 0-.3-.2-.7-.6-.7H32c-.8 0-.8 1.1-.1 1.2-1.1.7-2.1 1.6-3 2.5-.1-.1-.3-.2-.5-.2-.6 0-.8.8-.4 1.1-2.2 2.3-3.8 5-4.3 7.2-.3 1.3-.1 2.3.5 3.1l.1.1c.8.6 1.6 1.9 2.4 3.4.6 1.1 1.3 2.2 2.1 3.3 1.4 1.9 3.1 4.5 4 6.1.8 1.4 2.5 2 3.1 2.2l.2.2.3-.1c.8.7 1.7 2 2 2.6.5 1 .7 2.1.8 3.6.2 2.1 2.2 5 4.2 7.9 1.2 1.7 2.3 3.3 2.7 4.4.1.3.2.6.4.9.5 1.3 1.1 2.8 1.9 3.9l.1.1.3.1c.1 1.1.5 2.2.9 3.3.2.5.4 1 .5 1.5.4 1.2 1.9 2.3 3.3 3.3.9.7 2.1 1.5 2.2 2l.3 1.2.8-1.4c0-.1 0-.1.1-.2.4.1.9-.1.9-.6v-.1c0-.3-.2-.5-.4-.5.3 0 .6-.2.6-.6v-.1c0-.3-.2-.5-.5-.6.8 0 .8-1.2 0-1.2v-.1c.3 0 .6-.2.6-.6v-.1c0-.4-.3-.6-.7-.6-.1-1.1-.1-2.4-.1-3.6v-1.4c0-1.1-.1-2.2-.4-3.3-.5-2.2-1-3.3-3.1-4.5-.1-.2-.3-.4-.6-.4-.8 0-.8 1.2 0 1.2 1.9 1 2.3 1.8 2.7 3.9.2 1 .3 2 .3 3.1v1.4c0 1.3 0 2.6.1 3.8.2 1.6 0 2.8-.4 4.2-.4-.5-1.1-1-2-1.6-1.2-.9-2.7-2-3-2.8-.2-.5-.4-1-.6-1.6-.4-1.1-.9-2.2-.9-3.3v-.3l-.6-.2c-.6-.9-1.2-2.3-1.7-3.5-.1-.3-.3-.6-.4-.9-.5-1.2-1.6-2.8-2.8-4.6-1.8-2.6-3.8-5.6-4-7.4-.1-1.3-.3-2.6-.9-3.9-.3-.6-1.6-2.4-2.6-3.2-.1-.6 0-1.1.2-1.5.2-.5.7-1.2 1.6-2.1 1.1-1.1 2.4-2.2 3.7-3 3.4-2.2 6.8-4.1 10.4-4.4 1.1-.1 2.8 0 3.3.1l1.4.1c3.1.7 5.1 3.4 7.2 6.2 2 2.7 4.1 5.5 7.4 6.8l.9.7c.6.3 1.4 1.3 2 2.2.4.6.8 1.1 1.2 1.5.7.7 1.5 1.2 2.3 1.8.9.6 1.8 1.3 2.5 2 .6.7.8 1.6 1 2.6.1.6.3 1.3.5 1.9.7 1.6 2.2 2.9 3.6 4.2.5.4 1 .9 1.4 1.3l.5.5c1.5 1.5 3.2 3.1 4 4.8l1.4 3.1c.1 1.2.8 2.3 1.5 3.2.3.4.5.7.7 1.1 1 1.6 1.2 2.7.9 4.5v.6c-.4.2-.5.8-.2 1.1v.4c-.1-.1-.2-.1-.3-.1-.8 0-.8 1.2 0 1.2.1 0 .2 0 .3-.1 0 .8.2 1.5.5 2.5l.2.5c.6 1.5 1.1 2.8.3 4.2-.1.1-.3.4-.5.6-.1-.2-.3-.3-.5-.3.1-.1.1-.2.1-.4 0-.6-.7-.8-1.1-.4.4-.1.7-.6.3-1 0 0-.1-.1-.2-.1h-.3c.1-.1.1-.2.1-.3v-.1c0-.5-.4-.7-.8-.6 0-.1.1-.2.1-.3v-.1c0-.5-.4-.7-.8-.6 0-.1-.1-.2-.1-.4 0-.1.1-.2.1-.3 0-.2-.1-.4-.2-.5-.1-1 0-1.8.1-2.8.1-1.2.3-2.4-.1-3.8-1-4.1-3.7-6.3-6.6-8.7-.5-.4-1-.8-1.4-1.2-.2-.6-1.2-.6-1.2.2 0 .4.3.6.6.6.5.4.9.8 1.4 1.2 2.9 2.3 5.4 4.4 6.3 8.1.3 1.2.2 2.3 0 3.5 0 .3-.1.6-.1.9-.3 0-.5.2-.5.6v.2c0 .3.2.5.5.6v.9c0-.3-.2-.6-.6-.6h-.1c-.8 0-.8 1.2 0 1.2h.1c.3 0 .5-.2.6-.4 0 .2.1.3.2.4.3 1 .8 1.9 1.3 2.7.5.8.9 1.6 1.2 2.4v.1c.2.8.7 2.2.5 3-.3 1.2-1.7 2.8-3.6 2.5-.3 0-.5.2-.6.4 0 .1 0 .2.1.3-.3 0-.5.2-.5.6v.1c-.2.1-.4.3-.4.5.2 1.2.9 1.7 1.7 2.2l.9.6c.8.8.9 1.1 1 2.1 0 .2.1.5.1.8l.1.3.3.1c.2.1.5.1.8.1.3 0 .6 0 .8-.1l.2-.1.1-.2c1.2-3 .8-6.1-1-8.3.5-.6.8-1.2 1-1.8.2-.9-.1-2-.4-3 .3-.4.3-.4.4-.4zm-38.8-17.5c.1 0 .1 0 0 0 .1 0 .1 0 0 0zm.4-43.4c-.6-.2-1.3-.3-2-.3h-.9c-.7 0-1.7-.1-2.4 0-3.8.3-7.3 2.3-10.8 4.5-.7.5-1.5 1-2.2 1.6-.1-.2-.3-.4-.6-.4-.7 0-.8.9-.3 1.2-.3.3-.6.5-.8.8-.6.7-1.5 1.6-1.8 2.5-.1.4-.3.9-.3 1.5-.1 0-.1.1-.2.1-.6-.3-1.3-.7-1.7-1.4-.9-1.6-2.6-4.3-4.1-6.2-.8-1-1.4-2.1-2-3.2-.6-1-1.2-2-1.7-2.7 0 0 .1 0 .1-.1v-.1h.4c.1 0 .2-.1.2-.1.1.1.3.1.5 0h.1c.2-.1.3-.2.4-.3.1.2.3.3.5.3h.1c.8 0 .8-1.2 0-1.2h-.1c-.3 0-.5.2-.5.4-.1-.2-.4-.4-.7-.3h-.1c-.1 0-.2.1-.2.1-.1-.1-.3-.1-.5 0h-.1c-.1 0-.2.1-.3.2-.2 0-.4 0-.5.2 0 0 0 .1-.1.1-.4-.5-.5-1.2-.3-2.2.7-3.2 4.7-8.5 9.6-11.1 5.3-2.8 9.5-1.4 12.2-.6l.4.1c1.3.4 2.3 1.2 3.2 2.7.3 2.1 1.1 3.5 2.1 5l.1.1c.9 1.5 1.7 2.7 2.5 3.9.4.7.9 1.4 1.4 2.2.2.4.5.7.8 1.1.4.7.7 1.2.6 1.6zm37.8 73.1c0-.1 0-.1-.1-.2v-.2c0-.3-.2-.5-.4-.6.2-.3.1-.9-.3-1 .2-.4.1-1-.5-1v-.2c0-.7-1-.8-1.2-.2.3-.3.2-1.1-.4-1.1 0-.2-.1-.4-.3-.5 0-.3 0-.5-.3-.7 0-.1 0-.2-.1-.3h.2c.9 0 1.8-.4 2.5-.9 1.5 1.8 1.9 4.3.9 6.9z"/>
        <path id="XMLID_1684_" d="M87.3 133.8s0-.1 0 0c0-.9-1.2-.9-1.2-.1v.1c-.1.8 1.2.8 1.2 0z"/>
        <path id="XMLID_1685_" d="M91.2 123.3s.1 0 0 0c.9 0 .9-1.2.1-1.2h-.1c-.8-.1-.8 1.2 0 1.2z"/>
        <path id="XMLID_1686_" d="M93.1 131.9c.8 0 .8-1.2 0-1.2s-.8 1.2 0 1.2z"/>
        <path id="XMLID_1687_" d="M72.6 130.3c-.8 0-.8 1.2 0 1.2s.8-1.2 0-1.2z"/>
        <path id="XMLID_1688_" d="M45.8 52.4c-.8 0-.8 1.2 0 1.2.8.1.8-1.2 0-1.2z"/>
        <path id="XMLID_1689_" d="M44.4 51.5s-.1 0 0 0c-.8 0-.8 1.2 0 1.2.8.1.8-1.2 0-1.2z"/>
        <path id="XMLID_1690_" d="M47.4 54.1c-.8 0-.8 1.2 0 1.2s.8-1.2 0-1.2z"/>
        <path id="XMLID_1691_" d="M42.4 51.1c-.8 0-.8 1.2 0 1.2.8.1.8-1.2 0-1.2z"/>
        <path id="XMLID_1692_" d="M40.7 51.5s-.1 0 0 0c-.6.6.3 1.5.8.9.6-.6-.3-1.5-.8-.9z"/>
        <path id="XMLID_1693_" d="M36 55.7c.8 0 .8-1.2 0-1.2s-.8 1.2 0 1.2z"/>
        <path id="XMLID_1694_" d="M35.4 56.9c.8 0 .8-1.2 0-1.2s-.8 1.2 0 1.2z"/>
        <path id="XMLID_1695_" d="M35.4 58.5c.8 0 .8-1.2 0-1.2s-.8 1.2 0 1.2z"/>
        <path id="XMLID_1696_" d="M36.3 59.2c0-.8-1.2-.8-1.2 0-.1.9 1.2.9 1.2 0z"/>
        <path id="XMLID_1697_" d="M36.6 62.3c.8 0 .8-1.2 0-1.2s-.8 1.2 0 1.2z"/>
        <path id="XMLID_1698_" d="M37.2 64.4c.8 0 .8-1.2 0-1.2s-.8 1.2 0 1.2z"/>
        <path id="XMLID_1699_" d="M39.1 67c-.8 0-.8 1.2 0 1.2.8.1.8-1.2 0-1.2z"/>
        <path id="XMLID_1700_" d="M40.1 70.3c0 .3.1.5.4.6.6.3 1.1-.3.9-.8-.3-.6-1.3-.5-1.3.2z"/>
        <path id="XMLID_1701_" d="M37.7 70.4c-.8 0-.8 1.2 0 1.2s.8-1.2 0-1.2z"/>
        <path id="XMLID_1702_" d="M36.6 69.3c-.8 0-.8 1.2 0 1.2s.8-1.2 0-1.2z"/>
        <path id="XMLID_1703_" d="M35.4 67.6c-.8 0-.8 1.2 0 1.2.8.1.8-1.2 0-1.2z"/>
        <path id="XMLID_1704_" d="M34.8 66.7c-.1 0-.1 0 0 0-.4-.8-1.5-.2-1.1.5v.1c.3.8 1.4.1 1.1-.6z"/>
        <path id="XMLID_1705_" d="M32.1 65.5c0 .9 1.2.9 1.2.1v-.1c.1-.8-1.2-.8-1.2 0z"/>
        <path id="XMLID_1706_" d="M31.6 64c-.1 0-.1 0 0 0-.8-.4-1.4.7-.7 1h.1c.7.4 1.3-.7.6-1z"/>
        <path id="XMLID_1707_" d="M29.6 63.1c-.8 0-.8 1.2 0 1.2.8.1.8-1.2 0-1.2z"/>
        <path id="XMLID_1708_" d="M50 56.7c-.8 0-.8 1.2 0 1.2.8.1.8-1.2 0-1.2z"/>
        <path id="XMLID_1709_" d="M51.7 59.6c-.8 0-.8 1.2 0 1.2.9.1.9-1.2 0-1.2z"/>
        <path id="XMLID_1710_" d="M27.4 53c.8 0 .8-1.2 0-1.2-.8-.1-.8 1.2 0 1.2z"/>
        <path id="XMLID_1711_" d="M26.5 52c.8 0 .8-1.2 0-1.2-.9 0-.9 1.2 0 1.2z"/>
        <path id="XMLID_1712_" d="M25.4 51.3c.8 0 .8-1.2 0-1.2-.8-.1-.8 1.2 0 1.2z"/>
        <path id="XMLID_1713_" d="M24.8 50.1V50c0-.8-1.2-.8-1.2 0v.1c0 .8 1.2.8 1.2 0z"/>
        <path id="XMLID_1714_" d="M20.1 48.8c-.8 0-.8 1.2 0 1.2s.8-1.2 0-1.2z"/>
        <path id="XMLID_1715_" d="M17.3 48.1c-.8 0-.8 1.2 0 1.2s.8-1.2 0-1.2z"/>
        <path id="XMLID_1716_" d="M16 47.6c-.8 0-.8 1.2 0 1.2.8.1.8-1.2 0-1.2z"/>
        <path id="XMLID_1717_" d="M14.6 47.2c-.8 0-.8 1.2 0 1.2.8.1.8-1.2 0-1.2z"/>
        <path id="XMLID_1718_" d="M12.3 45.8c-.8 0-.8 1.2 0 1.2.8.1.8-1.2 0-1.2z"/>
        <path id="XMLID_1719_" d="M11.3 44.9c-.8 0-.8 1.2 0 1.2s.8-1.2 0-1.2z"/>
        <path id="XMLID_1720_" d="M9.8 42.4c-.8 0-.8 1.2 0 1.2.8.1.8-1.2 0-1.2z"/>
        <path id="XMLID_1721_" d="M9.7 41.1c-.8 0-.8 1.2 0 1.2s.8-1.2 0-1.2z"/>
        <path id="XMLID_1722_" d="M9.7 40.9c.8 0 .8-1.2 0-1.2s-.8 1.2 0 1.2z"/>
        <path id="XMLID_1723_" d="M10.1 39.5c.8 0 .8-1.2 0-1.2s-.8 1.2 0 1.2z"/>
        <path id="XMLID_1724_" d="M10.7 38.1c.8 0 .8-1.2 0-1.2s-.8 1.2 0 1.2z"/>
        <path id="XMLID_1725_" d="M11.4 36.9c.8 0 .8-1.2 0-1.2s-.8 1.2 0 1.2z"/>
        <path id="XMLID_1726_" d="M15 33c-.8 0-.8 1.2 0 1.2s.8-1.2 0-1.2z"/>
        <path id="XMLID_1727_" d="M16.2 33.5c.8 0 .8-1.2 0-1.2s-.8 1.2 0 1.2z"/>
        <path id="XMLID_1728_" d="M17.6 31.5h-.1c-.8 0-.8 1.2 0 1.2h.1c.8.1.8-1.2 0-1.2z"/>
        <path id="XMLID_1729_" d="M19.1 32.2c.8 0 .8-1.2 0-1.2H19c-.8 0-.8 1.2 0 1.2h.1z"/>
        <path id="XMLID_1730_" d="M20.4 31.7c.8 0 .8-1.2 0-1.2s-.8 1.2 0 1.2z"/>
        <path id="XMLID_1731_" d="M23.3 29.7c-.8 0-.8 1.2 0 1.2s.8-1.2 0-1.2z"/>
        <path id="XMLID_1732_" d="M24.5 29.2c-.8 0-.8 1.2 0 1.2.8.1.8-1.2 0-1.2z"/>
        <path id="XMLID_1733_" d="M25.2 29.2v.1c0 .8 1.2.8 1.2 0v-.1c0-.8-1.2-.8-1.2 0z"/>
        <path id="XMLID_1734_" d="M27.2 28.3c-.8 0-.8 1.2 0 1.2s.8-1.2 0-1.2z"/>
        <path id="XMLID_1735_" d="M28.4 29c.8 0 .8-1.2 0-1.2-.8-.1-.8 1.2 0 1.2z"/>
        <path id="XMLID_1736_" d="M31.9 26.7c.8 0 .8-1.2 0-1.2s-.8 1.2 0 1.2z"/>
        <path id="XMLID_1737_" d="M32.5 25.3c.8 0 .8-1.2 0-1.2-.8-.1-.8 1.2 0 1.2z"/>
        <path id="XMLID_1738_" d="M32.3 22.6c-.8 0-.8 1.2 0 1.2s.8-1.2 0-1.2z"/>
        <path id="XMLID_1739_" d="M31.3 21.6c0 .8 1.2.8 1.2 0v-.1c0-.8-1.2-.8-1.2 0v.1z"/>
        <path id="XMLID_1740_" d="M32 20.6c.8 0 .8-1.2 0-1.2-.8-.1-.8 1.2 0 1.2z"/>
        <path id="XMLID_1741_" d="M32 18.2v.1c0 .8 1.2.8 1.2 0v-.1c0-.8-1.2-.8-1.2 0z"/>
        <path id="XMLID_1742_" d="M34.8 17c.8 0 .8-1.2 0-1.2-.8-.1-.8 1.2 0 1.2z"/>
        <path id="XMLID_1743_" d="M35.8 16.1c.8 0 .8-1.2 0-1.2s-.8 1.2 0 1.2z"/>
        <path id="XMLID_1744_" d="M36.8 15.1c.8 0 .8-1.2 0-1.2s-.8 1.2 0 1.2z"/>
        <path id="XMLID_1745_" d="M37.6 11.9v.1c0 .8 1.2.8 1.2 0v-.1c.1-.8-1.2-.8-1.2 0z"/>
        <path id="XMLID_1746_" d="M38.1 11.2c.8 0 .8-1.2 0-1.2s-.8 1.2 0 1.2z"/>
        <path id="XMLID_1747_" d="M37.9 9.8c.8 0 .8-1.2 0-1.2-.8-.1-.8 1.2 0 1.2z"/>
        <path id="XMLID_1748_" d="M37.7 8.3c.8 0 .8-1.2 0-1.2-.8-.1-.8 1.2 0 1.2z"/>
        <path id="XMLID_1749_" d="M37 7.1c.8 0 .8-1.2 0-1.2-.8-.1-.8 1.2 0 1.2z"/>
        <path id="XMLID_1750_" d="M35.7 7.7c.8 0 .8-1.2 0-1.2s-.8 1.2 0 1.2z"/>
        <path id="XMLID_1751_" d="M34.7 8.7c.8 0 .8-1.2 0-1.2-.8-.1-.8 1.2 0 1.2z"/>
        <path id="XMLID_1752_" d="M33.8 9.7h.1c.8 0 .8-1.2 0-1.2h-.1c-.8 0-.8 1.2 0 1.2z"/>
        <path id="XMLID_1753_" d="M33.1 10.8c.8 0 .8-1.2 0-1.2-.8-.1-.8 1.2 0 1.2z"/>
        <path id="XMLID_1754_" d="M32.3 12h.1c.8 0 .8-1.2 0-1.2h-.1c-.8 0-.8 1.2 0 1.2z"/>
        <path id="XMLID_1755_" d="M31.8 12.2v-.1c0-.8-1.2-.8-1.2 0v.1c-.1.9 1.2.9 1.2 0z"/>
        <path id="XMLID_1756_" d="M29.6 13.6h.1c.8 0 .8-1.2 0-1.2h-.1c-.8 0-.8 1.2 0 1.2z"/>
        <path id="XMLID_1757_" d="M28.1 14.2h.1c.8 0 .8-1.2 0-1.2h-.1c-.8-.1-.8 1.2 0 1.2z"/>
        <path id="XMLID_1758_" d="M25.3 15.2c.8 0 .8-1.2 0-1.2s-.8 1.2 0 1.2z"/>
        <path id="XMLID_1759_" d="M23.8 15.5h.1c.8 0 .8-1.2 0-1.2h-.1c-.8 0-.8 1.2 0 1.2z"/>
        <path id="XMLID_1760_" d="M22.5 16c.8 0 .8-1.2 0-1.2-.8-.1-.8 1.2 0 1.2z"/>
        <path id="XMLID_1761_" d="M21.1 16.3c.8 0 .8-1.2 0-1.2-.8-.1-.8 1.2 0 1.2z"/>
        <path id="XMLID_1762_" d="M19.6 16.5h.1c.8 0 .8-1.2 0-1.2h-.1c-.8 0-.8 1.2 0 1.2z"/>
        <path id="XMLID_1763_" d="M18 16.8h.1c.8 0 .8-1.2 0-1.2H18c-.8 0-.8 1.2 0 1.2z"/>
        <path id="XMLID_1764_" d="M16.6 17.3h.1c.8 0 .8-1.2 0-1.2h-.1c-.8 0-.9 1.2 0 1.2z"/>
        <path id="XMLID_1765_" d="M15.1 18.1h.1c.8 0 .8-1.2 0-1.2h-.1c-.8 0-.8 1.2 0 1.2z"/>
        <path id="XMLID_1766_" d="M15.5 19.7c.8 0 .8-1.2 0-1.2s-.8 1.2 0 1.2z"/>
        <path id="XMLID_1767_" d="M15.3 21.4c.8 0 .8-1.2 0-1.2h-.1c-.8 0-.8 1.2 0 1.2h.1z"/>
        <path id="XMLID_1768_" d="M15.3 23.3h.1c.8 0 .8-1.2 0-1.2h-.1c-.8 0-.8 1.2 0 1.2z"/>
        <path id="XMLID_1769_" d="M15.3 24.8c.8 0 .8-1.2 0-1.2-.8-.1-.8 1.2 0 1.2z"/>
        <path id="XMLID_1770_" d="M15.5 26.2c.8 0 .8-1.2 0-1.2-.8-.1-.8 1.2 0 1.2z"/>
        <path id="XMLID_1771_" d="M15.4 27.5c.8 0 .8-1.2 0-1.2s-.8 1.2 0 1.2z"/>
        <path id="XMLID_1772_" d="M15 28.9c.8 0 .8-1.2 0-1.2s-.8 1.2 0 1.2z"/>
        <path id="XMLID_1773_" d="M14.5 30.3c.8 0 .8-1.2 0-1.2s-.8 1.2 0 1.2z"/>
        <path id="XMLID_1774_" d="M14.4 32c.8 0 .8-1.2 0-1.2s-.8 1.2 0 1.2z"/>
        <path id="XMLID_1890_" d="M14.3 35.4c-.8 0-.8 1.2 0 1.2s.8-1.2 0-1.2z"/>
        <path id="XMLID_1891_" d="M14.3 38.1c.8 0 .8-1.2 0-1.2-.8-.1-.8 1.2 0 1.2z"/>
        <path id="XMLID_1892_" d="M14.8 38.3c-.8 0-.8 1.2 0 1.2s.8-1.2 0-1.2z"/>
        <path id="XMLID_1893_" d="M15.8 40.5c.8 0 .8-1.2 0-1.2-.8-.1-.8 1.2 0 1.2z"/>
        <path id="XMLID_1894_" d="M17.1 40.1c-.8 0-.8 1.2 0 1.2s.8-1.2 0-1.2z"/>
        <path id="XMLID_1895_" d="M18.4 41.8c.8 0 .8-1.2 0-1.2-.8-.1-.8 1.2 0 1.2z"/>
        <path id="XMLID_1896_" d="M19.7 42.2h.1c.8 0 .8-1.2 0-1.2h-.1c-.8 0-.8 1.2 0 1.2z"/>
        <path id="XMLID_1897_" d="M21.3 41.2c-.8 0-.8 1.2 0 1.2s.8-1.2 0-1.2z"/>
        <path id="XMLID_1898_" d="M22.6 42.4c.8 0 .8-1.2 0-1.2s-.8 1.2 0 1.2z"/>
        <path id="XMLID_1899_" d="M24 41.2c-.8 0-.8 1.2 0 1.2s.8-1.2 0-1.2z"/>
        <path id="XMLID_1900_" d="M30.5 41c.8 0 .8-1.2 0-1.2s-.8 1.2 0 1.2z"/>
        <path id="XMLID_1901_" d="M31.2 39.9v.1c0 .8 1.2.8 1.2 0v-.1c.1-.8-1.2-.8-1.2 0z"/>
        <path id="XMLID_1902_" d="M33.2 40.2c.8 0 .8-1.2 0-1.2-.8-.1-.8 1.2 0 1.2z"/>
        <path id="XMLID_1903_" d="M34.5 39.9c.8 0 .8-1.2 0-1.2s-.8 1.2 0 1.2z"/>
        <path id="XMLID_1904_" d="M35.9 38.4c-.8 0-.8 1.2 0 1.2h.1c.8 0 .8-1.2 0-1.2h-.1z"/>
        <path id="XMLID_1905_" d="M37.3 38.2c-.8 0-.8 1.2 0 1.2s.8-1.2 0-1.2z"/>
        <path id="XMLID_1906_" d="M37.7 42.1V42c0-.8-1.2-.8-1.2 0v.1c-.1.8 1.2.8 1.2 0z"/>
        <path id="XMLID_1907_" d="M36.2 42.4c-.8 0-.8 1.2 0 1.2.8.1.8-1.2 0-1.2z"/>
        <path id="XMLID_1908_" d="M35.9 44.1V44c0-.8-1.2-.8-1.2 0v.1c0 .8 1.2.8 1.2 0z"/>
        <path id="XMLID_1909_" d="M34.2 44.5c-.8 0-.8 1.2 0 1.2.9 0 .9-1.2 0-1.2z"/>
        <path id="XMLID_1910_" d="M33.3 46.7c.8 0 .8-1.2 0-1.2h-.1c-.8 0-.8 1.2 0 1.2h.1z"/>
        <path id="XMLID_1911_" d="M32.4 46.4c-.8 0-.8 1.2 0 1.2.8.1.8-1.2 0-1.2z"/>
        <path id="XMLID_1912_" d="M31.8 49.1h.1c.8 0 .8-1.2 0-1.2h-.1c-.8-.1-.8 1.2 0 1.2z"/>
        <path id="XMLID_1913_" d="M26.8 14.8c.8 0 .8-1.2 0-1.2s-.8 1.2 0 1.2z"/>
        <path id="XMLID_1914_" d="M37.8 12.8c-.8 0-.8 1.2 0 1.2s.8-1.2 0-1.2z"/>
        <path id="XMLID_1915_" d="M33.8 17.9c.8 0 .8-1.2 0-1.2s-.8 1.2 0 1.2z"/>
        <path id="XMLID_1916_" d="M30.9 27.8c.8 0 .8-1.2 0-1.2s-.8 1.2 0 1.2z"/>
        <path id="XMLID_1917_" d="M29.7 27.1c-.8 0-.8 1.2 0 1.2.8.1.8-1.2 0-1.2z"/>
        <path id="XMLID_1918_" d="M21.2 30.8c0 .8 1.2.8 1.2 0 .1-.8-1.2-.8-1.2 0z"/>
        <path id="XMLID_1919_" d="M13.7 34.9c.8 0 .8-1.2 0-1.2-.8-.1-.8 1.2 0 1.2z"/>
        <path id="XMLID_1920_" d="M12.5 35.8c.8 0 .8-1.2 0-1.2s-.8 1.2 0 1.2z"/>
        <path id="XMLID_1921_" d="M11 44.3c0-.8-1.2-.8-1.2 0s1.2.8 1.2 0z"/>
        <path id="XMLID_1922_" d="M13.4 46.7c-.8 0-.8 1.2 0 1.2s.8-1.2 0-1.2z"/>
        <path id="XMLID_1923_" d="M19.1 48.7c-.6-.6-1.5.3-.9.9.6.6 1.5-.3.9-.9z"/>
        <path id="XMLID_1924_" d="M22.2 49.5c-.4.8.7 1.4 1.1.7.3-.8-.8-1.4-1.1-.7z"/>
        <path id="XMLID_1925_" d="M21.4 49.1c-.8 0-.8 1.2 0 1.2s.8-1.2 0-1.2z"/>
        <path id="XMLID_1926_" d="M25.3 42.3c.8 0 .8-1.2 0-1.2-.8-.1-.8 1.2 0 1.2z"/>
        <path id="XMLID_1927_" d="M26.7 42.2c.8 0 .8-1.2 0-1.2-.8-.1-.8 1.2 0 1.2z"/>
        <path id="XMLID_1928_" d="M28.1 40.7c-.8 0-.8 1.2 0 1.2s.8-1.2 0-1.2z"/>
        <path id="XMLID_1929_" d="M29.3 41.6c.8 0 .8-1.2 0-1.2-.8-.1-.8 1.2 0 1.2z"/>
        <path id="XMLID_1930_" d="M38.3 39c-.8 0-.8 1.2 0 1.2s.8-1.2 0-1.2z"/>
        <path id="XMLID_1931_" d="M38.2 41.4c.6-.6-.3-1.5-.9-.9-.5.6.4 1.5.9.9z"/>
    </g>
</svg>
