<svg id="Layer_1" xmlns="http://www.w3.org/2000/svg" viewBox="0 0 118.2 157.2">
    <style>
        .st0{fill:#fff}
    </style>
    <path class="st0" d="M94.1 147.1l.1-.6h-.7v-.2l1.1-.8h-.4v-.7c0-.5 0-1 .1-1.5v-.8l-.7.3s-.1 0-.1-.1 0-.1.1-.2l1-.4-.9-.6c0-.1 0-.1.1-.1l.1-.1.1-.1.4-.1v-.4c0-3.6-.3-7.9-.7-11.8-.7-7.3-4.3-38.1-6.2-45-.2-.9-.5-1.7-.7-2.7-2.2-8-4.4-16.3-9.5-23-.6-.7-1.1-1.4-1.7-2.1l-.1-.1c-5-6.5-10.3-13.2-12.3-21.3-1.1-4.3-.3-8.3.4-12.1.4-2.3.9-4.6 1-7 .1-3-.4-6.7-2.1-7.2-1.5-.5-3.3 1.8-4.6 3.7-1.8 2.8-3.3 4-4.3 4.9-.6.5-1 .8-1.1 1.2-.9 2.6-.1 9.3 1 11.7 2.7 6.4 1.9 11.9-.1 18.1-.5 1.6-1.3 3.3-2.4 5l-.2.4.4.3c0 .2-.1.3-.4.3h-.4l-.6 1 .5.3v.3h-.2l-.6.6v.2h-.1l-.4.9v.2c0 .1 0 .1-.1.1h-.2l-.4-.7-.7.8c-.2.2-.3.4-.5.6l-.3.5.5.3v.2c0 .1 0 .1-.1.1H47l-.4-.5-.4.5-.7.8.3.3c0 .2-.1.3-.4.3l-.4-.2-1.3 1.6.6.3c0 .1 0 .1-.1.1l-.1.1s-.1.1-.2 0l-.4-.5-1.3 1.4-.2.6c-.2.2-.4.4-.6.7l-.2.2-.5.7c-.4.5-.8 1.1-1.2 1.6l-.1.2-.5.7c-.3.4-.5.7-.8 1.1l-.3.5.5.3s.1.1 0 .2c0 .1 0 .1-.2 0l-.4-.4-.3.5-.6.9-.2.4.4.3s.1.1 0 .2c0 0 0 .1-.1 0l-.4-.2-.8.9.5.2s.1.1 0 .2c0 .1 0 .1-.1 0l-.4-.3-.3.5c-5.5 9.6-9.3 21-11.3 34.1-1.3 8.6-2.3 18-1 27.6 0 .3.1.7.2 1.3.6 4.9 1.3 9.5 3.3 10.3.6.3 1.3.1 2-.5.8-.6 2-2.5 2.4-3.2l.2-.3.2-.4.2-.3c.1-.3.3-.5.4-.7 0 0 1.1-1.6.8-4.5l-.5-2-.8-1.1-1.2-3 .2-.2-.1-.3c-1.3-4.5-1.1-9.6-.9-14.5.1-1.5.1-3 .1-4.5 0-13.2 3.4-25.3 10-35.8 2.5-4 7.2-9.3 11.3-14l2.4-2.7.4-.4-.5-.3s-.1-.1 0-.2c0 0 0-.1.2 0l.4.5.6-.7-.1-.3v-.2h.1l.3.1 1.1-1.3.1.1v-.3l.2-.3H56l1.2-.9c.5-.4 1-.7 1.6-1.1l.2-.1v-.3c0-.1.1-.1.2-.1l.3-1v-.2l.8-1.6.2.4.4-.9h.1v.6l.4.1c.1 0 .1.1.1.1l-.1.6.6-.1c.1 0 .1 0 .1.1v.2l-.3.3.2.3c.1.2.2.4.4.5l.5.7.7 1 .5.5.4-.3v.2l-.9.9 1.3-.1v.8l.7-.2h.1v.2l-.3.6.6.2v.1l-.1.3.8.8.4-.7v.2l-.3.7.7.1v.2l-.4.3.8 1.1.4.4.4-.2v.2l-.3.3.3.3 1.2 1.5.3.2h.3v.2l-.1.2.2.2c.7 1 1.4 1.9 2 2.8l.3.4.4-.2h.2s.1 0 .1.1v.2l-.6.2.5.7c.1.2.2.3.3.5l.2.3.4-.1h.1v.2l-.3.3.2.3c.5.7.9 1.4 1.2 2.2l.2.2.2.1v.1l-.1.2.1.2c.2.5.5 1 .7 1.5 3.4 7.6 5.8 16.8 7.4 28.1.1.4.1.7.1 1.1l.1.7.1.7.3 2.7v.5l.6-.1s.1 0 .1.1-.1.1-.1.1h-.5l.1 1.2.2 1.9.6-.1s.1 0 .1.1-.1.1 0 .1l-.7-.1.1 1.2.4.1s.1 0 .1.1c0 0 0 .1-.1.1l-.4.1v.9l.4.1c.1 0 .1 0 .1.1v.2c0 .1 0 .1-.1.1l-.4.1.1 1.4h.4s.1 0 .1.1c0 0 0 .1-.1.1l-.4.1.1 1v3.3l.7-.4c.1 0 .1 0 .2.1v.2l-.2.4.4.2v.2l-1 .6 1.1.4v.2s0 .1-.1.1-.1-.1-.1-.1h-1c0 4.9-.1 9.2-.3 12-.1 1.8-.6 3.5-1.2 5-1 2.9-1.8 5.4.6 8.1 1 1.1 2 2.1 3 2.9l.6.5.2-.7c0-.1.1-.2.3-.2v.2l-.2.8.8-.1.4.3-1.3.2 1.6.7c.6.3 1.1.4 1.6.4.2 0 .4 0 .6-.1.7-.2 1.2-.9 1.6-2l.1.3.3-1.7v-1.1c0 .1 0 .1 0 0zm-63.9-6.2l.2.2h-.1v.2h-.1v-.4zm-.6-2.3h.2l.2.2h-.4s-.1 0-.1-.1 0-.1.1-.1zm-.2 1.6c.1 0 .1 0 0 0l.2.2-.2.1s-.1 0-.1-.1.1-.2.1-.2zm-.3-3.4l.1.1-.1.1s-.1 0-.1-.1 0-.1.1-.1zm-1.1-4.3s-.1 0-.1-.1 0-.1.1-.1h.1l.1.2H28zm.5-1.2h-.2v-.2l.7.1-.5.1zm.6-1.1H29s0-.1.1-.2c.1 0 .1 0 .1.1s-.1.1-.1.1zM40 68.4l-.2-.1-.1-.2h.3s.1 0 .1.1c0 .2-.1.2-.1.2zm1.6-2.6l-.1-.2.2.1c.1 0 .1.1.1.1 0 .1-.1.1-.2 0zm1.2-1.6l-.2-.4.4.2s.1.1 0 .2c0 0-.1.1-.2 0zm12.1-8.5s-.1 0-.1-.1 0-.1.1-.1h.1l.2.2h-.3zm1-.1v-.5h.2l-.2.5zm.6-1.5l-.1.3-.2-.2s0-.2.1-.3l.1-.1h.1v.3zm2.6-5.3s.1 0 0 0c.1.1.1.1.1.2h-.1s-.1 0-.1-.1l.1-.1zm-.5 2.6s-.1 0 0 0c-.1-.1-.1-.2 0-.2l.4-.2-.4.4zm.6-.5l-.4-.5v-.2h.1l.6.4-.3.3zm.4-.4v-.6h.3l.2.2-.5.4zm1-1.6h-.2s-.1 0-.1-.1.1-.1.1-.1h.1c.1 0 .1 0 .1.1.1 0 .1.1 0 .1zm2.9 4.3l-.4.1.3-.4.1-.1h.1c.1.3 0 .3-.1.4zm21.6 50.5l-.6-.1.5-.1h.2s.1 0 .1.1c-.1.1-.2.1-.2.1zm.4 5.3l-.3-.1.3-.1s.1 0 .1.1c.1.1 0 .1-.1.1zm0 7.6l.4-.1s.1 0 .1.1-.1.1-.1.1l-.4-.1zm.5 1.5l-.1-.1.2-.1s.1 0 .1.1c-.1.1-.1.1-.2.1zm5.2 31.7H91c-.1 0-.1 0-.1-.1l-.9.3s0 .1-.1.2h-.3l.3-.3c.1 0 .1 0 .1.1l.9-.3c0-.1 0-.1.1-.2h.2s.1 0 .1.1c0 .2-.1.2-.1.2zm1.8-1.7s-.1 0-.2-.1v-.2s0-.1.1-.1c0 0 .1 0 .1.1v.3zm.1-2.8c0-.1.1-.1.1-.1h.2l.3.3h-.6c.1 0 0 0 0-.2z"/>
    <g id="XMLID_17_">
        <path id="XMLID_171_" d="M93.9 129c-.5-4.5-4.2-37.6-6.2-45-.2-.9-.5-1.8-.7-2.7-2.2-8.1-4.4-16.4-9.6-23.2-.6-.8-1.2-1.5-1.8-2.3-5-6.4-10.2-13.1-12.2-21.2-1-4.2-.3-7.9.4-11.9.4-2.3.9-4.7 1-7.1.1-3.3-.5-7.1-2.5-7.7-1.5-.4-3.1.8-5.1 3.9-1.8 2.7-3.2 3.9-4.2 4.7-.6.5-1.1.9-1.2 1.4-1 2.9 0 9.9 1 12.1 2.7 6.3 1.9 11.4-.2 17.7-1.6 5-5.2 9-8.7 13-1.2 1.4-2.5 2.9-3.7 4.3-8.4 10.6-14.3 25.3-16.9 42.5-1.3 8.7-2.4 18.1-1 27.8 0 .3.1.7.2 1.3.5 4.7 1.3 9.8 3.6 10.7.8.3 1.6.1 2.5-.6 1.3-1 4.2-5.7 4.6-7.3.6-2.1-.3-3.9-1.2-5.7-.3-.6-.6-1.3-.9-1.9-1.9-4.8-1.7-10.5-1.5-16 .1-1.6.1-3.1.1-4.5 0-13.2 3.4-25.1 9.9-35.6 2.5-4 7.2-9.2 11.3-13.9 1.8-2 3.4-3.9 4.7-5.4 1.5-1.8 4.6-3.5 5.7-4 1.8 2.9 3.9 5.5 5.9 8.1 2.8 3.6 5.5 7.1 7.6 11.1 0 .1.1.2.1.3.3.5.5 1.1.8 1.7 3.3 7.5 5.7 16.7 7.4 28 1.5 10.6 1.2 24.5.9 31.9-.1 1.7-.6 3.3-1.1 4.9-1 2.9-1.9 5.7.7 8.6 3.1 3.4 5.5 5 7.2 5 .3 0 .6 0 .8-.1 1.4-.4 2.2-2 2.5-4.7.8-5.1.4-13-.2-18.2zm-62.6 11s.1 0 .1-.1h.3c.1 0 .2 0 .3-.1-.1.2-.2.4-.3.7 0-.2-.2-.4-.4-.5zm-1.6-8.6zm.6.9c0 .1.1.2.1.3h-.1c-.1 0-.2 0-.3.1v-.1c.2-.1.3-.2.3-.3zm.2 6.5h.2c-.1 0-.2.1-.2.2-.1-.1-.2-.1-.3-.1h-.1v-.3c.1.1.2.2.4.2zm-.8 1.1c.1.1.2.2.4.2s.3-.1.4-.2c.1.1.2.1.3.1-.2.1-.3.4-.3.7-.1-.2-.3-.4-.6-.4h-.2c.1 0 .1-.2 0-.4zm2.6-.7c0-.2-.2-.3-.4-.4v-.2c0-.5-.3-.7-.8-.8h-.2c-.1-.1-.2-.2-.4-.3l.1-.1h.1c.3 0 .5-.2.6-.4h.1c-.2.4 0 .9.5.9h.1c.2 0 .3-.1.4-.1.1.5 0 .9-.1 1.4zm0-2.4H32c.2-.4 0-.9-.5-.9h-.1l-.1-.1c0-.1.1-.2 0-.3.2-.1.3-.4.3-.6.2.6.5 1.3.7 1.9zm-1-2.4c-.1-.1-.2-.1-.4-.1-.1 0-.2 0-.3.1-.1-.1-.2-.2-.4-.2 0-.1 0-.2-.1-.3.1 0 .2.1.3.1.2 0 .4-.1.5-.3.1.2.2.5.3.7 0-.1.1 0 .1 0zm24.9-79.7zm3-4.4c.1 0 .1.1.2.1h-.2v-.1zm.6 1.3c0-.1.1-.1.1-.1l-.1.1zm26.1 69.3c-.2.1-.4.3-.4.5V120h.1c-.1.4 0 .7.3.9zm7.4 26.7c-.2-.6-1.2-.5-1.2.2v.2c0 .6.7.8 1.1.4-.3 1.2-.7 2.3-1.6 2.5-.5.2-1.1.1-1.8-.3.4-.1.6-.5.5-.8.1.2.3.4.6.4h.2c.8 0 .8-1.2 0-1.2h-.2c-.5 0-.7.5-.6.9-.1-.2-.3-.4-.6-.4-.2 0-.3.1-.4.2-.1-.1-.2-.2-.4-.2h-.1c.1-.4 0-.9-.6-.8-.4 0-.6.2-.7.5-.9-.7-1.8-1.7-2.9-2.8-2.2-2.4-1.5-4.7-.5-7.6.5-1.6 1.1-3.3 1.2-5.2.1-3.1.3-7.3.3-12 0 .8 1.2.8 1.2 0v-.2c0-.3-.2-.5-.4-.5.5-.2.5-.9 0-1.1v-.4c0-.5-.6-.7-.9-.5v-.4c.1.1.2.1.3.1.8 0 .8-1.2 0-1.2-.1 0-.3 0-.3.1v-.3h.2c.8 0 .8-1.2 0-1.2h-.2v-.1c.7-.1.7-1.2 0-1.2v-.6c.2-.1.4-.3.4-.6v-.2c0-.3-.2-.5-.5-.6v-.1c.6-.1.6-1.1-.1-1.2v-.2h.1c.8 0 .8-1.2 0-1.2h-.2v-.6h.2c.8 0 .8-1.2 0-1.2-.1 0-.2 0-.3.1v-.3c.8 0 .8-1.2 0-1.2H85l-.3-2.7h.2c.8 0 .8-1.2 0-1.2h-.3c-.1-.4-.1-.9-.2-1.3C82.8 90.2 80.3 81 77 73.3c-.2-.5-.5-1-.7-1.5.1-.3 0-.7-.4-.8-.4-.7-.8-1.5-1.2-2.2.3-.3.2-1.1-.4-1.1h-.2c-.1-.2-.3-.5-.5-.7.5-.2.4-1.2-.3-1.2h-.2c-.1 0-.2 0-.3.1-.7-1-1.3-1.9-2-2.8.1-.4-.1-.8-.6-.8h-.1c-.4-.5-.8-1-1.2-1.6.3-.3.2-1.1-.4-1.1-.1 0-.2 0-.3.1-.2-.2-.4-.5-.5-.7.4-.3.3-1-.3-1.1.2-.4 0-.9-.5-.9-.2 0-.4.1-.5.3.1-.3 0-.7-.4-.8.2-.4.1-1-.5-1h-.2c0-.3-.2-.6-.6-.6.3-.3.2-1.1-.4-1.1-.2 0-.3.1-.4.1-.1-.2-.2-.3-.3-.5.3-.1.5-.3.6-.7.1-.7-.8-.8-1.1-.3 0 0-.1 0-.1.1-.2-.3-.4-.5-.5-.8.1-.1.2-.2.2-.4v-.1c0-.4-.4-.6-.7-.6 0-.3-.1-.6-.4-.6.1-.3-.1-.7-.6-.7.4-.3.3-1.1-.3-1.1h-.1c-.8 0-.8 1.2 0 1.2h.1c-.1.1-.2.1-.2.2 0-.1-.1-.1-.1-.2-.2-.2-.4-.3-.6-.2.2-.4 0-1-.5-1-.8 0-.8 1.2 0 1.2h.1v.2c-.1-.1-.2-.1-.3-.1-.6 0-.8.7-.5 1.1-.6.2-.5 1.2.2 1.2.2 0 .3-.1.4-.2-.2.3 0 .8.4.9-.1 0-.2-.1-.3-.1-.4 0-.6.3-.6.6-.5.3-1.1.7-1.6 1.1 0-.1.1-.2.1-.3.1-.7-.8-.8-1.1-.3-.3.2-.3.7-.1.9-.2.1-.4.2-.4.5-.1-.1-.2-.2-.4-.2-.8 0-.8 1.2 0 1.2-.2.2-.3.4-.5.6h-.2c-.5 0-.7.5-.6.9-.1-.1-.3-.2-.5-.2-.7 0-.8.9-.3 1.2l-2.4 2.7c-4.1 4.7-8.8 9.9-11.4 14-6.6 10.6-10 22.7-10.1 36.1 0 1.4-.1 2.9-.1 4.5-.2 5-.3 10.1 1 14.7-.1.1-.1.2-.2.3-.1-.1-.3-.2-.4-.2.5-.3.4-1.2-.3-1.2-.6 0-.8.7-.4 1.1h-.2c-.8 0-.8 1.2 0 1.2h.3c-.1.1-.1.2-.1.3-.1-.2-.3-.3-.5-.3-.8 0-.8 1.2 0 1.2h.2c0 .3.2.7.6.7.3 0 .5-.2.6-.4.1.1.2.1.3.1.1 0 .2 0 .3-.1 0 .1 0 .3.1.4-.1 0-.2-.1-.3-.1-.7 0-.8 1-.2 1.2 0 .2.1.4.3.6-.5.2-.4 1.1.2 1.2v.1h-.1c-.2 0-.4.1-.5.2-.1-.2-.3-.4-.6-.4-.8 0-.8 1.2 0 1.2.2 0 .4-.1.5-.2.1.2.3.4.6.4h.2c-.1.1-.2.4-.1.5-.1-.1-.3-.2-.5-.2h-.1c-.8 0-.8 1.2 0 1.2h.2c0 .2 0 .3.1.5-.1-.1-.2-.2-.4-.2-.8 0-.8 1.2 0 1.2h.2c-.1.4.1.8.6.8s.7-.4.6-.8c.1.2.3.4.6.4h.2c-.1.2-.3.5-.4.7h-.1c-.6 0-.7.6-.5 1-.9 1.4-1.8 2.7-2.3 3.1-.9.7-1.4.5-1.5.5-1.9-.8-2.7-7.2-3-9.9-.1-.5-.1-1-.2-1.3-1.4-9.6-.3-18.9 1-27.5 2-13 5.8-24.6 11.2-34 .1.1.2.1.3.1.7 0 .8-.9.3-1.2 0-.1.1-.2.1-.2.1 0 .2.1.3.1.7 0 .8-.8.3-1.1l.6-.9c.1.1.2.1.4.1.7 0 .8-.9.3-1.2.3-.4.5-.7.8-1.1.1.2.3.4.5.4h.1c.8 0 .8-1.2 0-1.2H40c.4-.5.8-1.1 1.2-1.6.1.2.3.4.5.4.7 0 .8-1.1.2-1.2.2-.2.4-.4.6-.7.1.2.3.3.5.3.7 0 .8-.9.3-1.2.1-.2.3-.3.4-.5.2.3.8.3 1-.1.4-.3.4-.9 0-1.1.1-.1.2-.2.3-.4l.3-.3c.1 0 .2.1.3.1.5 0 .8-.3.8-.8 0-.2-.1-.3-.1-.4.1-.2.3-.3.4-.5.3.4 1.1.3 1.1-.3V59c0-.2-.1-.4-.2-.5.2-.3.5-.6.7-.8.3.5 1.2.4 1.2-.3v-.2c0-.2-.1-.3-.2-.4h.1c.5 0 .7-.5.6-.9.4.1.9 0 .9-.6v-.2c0-.3-.1-.4-.3-.5 0 0 0-.1.1-.1h.2c.5 0 .8-.3.8-.8 0-.2-.1-.4-.2-.5 1-1.6 1.8-3.3 2.4-5.1 2.1-6.3 2.9-11.9.1-18.4-1-2.3-1.8-8.9-.9-11.4.1-.3.4-.5.9-1 1-.8 2.6-2.1 4.4-5 1.6-2.5 3.1-3.8 4-3.5 1.1.4 1.9 3.1 1.8 6.7-.1 2.4-.5 4.7-1 7-.8 3.9-1.5 7.9-.4 12.3 2.1 8.3 7.3 15 12.4 21.5.6.8 1.2 1.5 1.8 2.3 5.1 6.6 7.3 14.8 9.4 22.8.2.9.5 1.8.7 2.7 1.9 6.8 5.4 37.6 6.2 44.9.3 3.3.6 7.7.7 11.7-.2 0-.3.1-.4.3-.3.3-.3.8 0 1-.6.2-.5 1.2.2 1.2.1 0 .2 0 .2-.1 0 .5 0 1-.1 1.5-.1-.1-.2-.1-.4-.1h-.2c-.8 0-.8 1.2 0 1.2-.4.3-.3 1.1.4 1.1v.1c-.4.3-.4.5-.4.7z"/>
        <path id="XMLID_184_" d="M26.6 127.3v.1c0 .8 1.2.8 1.2 0v-.1c.1-.8-1.2-.8-1.2 0z"/>
        <path id="XMLID_185_" d="M26.9 124c.8 0 .8-1.2 0-1.2s-.8 1.2 0 1.2z"/>
        <path id="XMLID_186_" d="M26.6 124.9c-.8 0-.8 1.2 0 1.2s.8-1.2 0-1.2z"/>
        <path id="XMLID_187_" d="M26 119.1c-.8 0-.8 1.2 0 1.2.8.1.8-1.2 0-1.2z"/>
        <path id="XMLID_188_" d="M26.2 117.3c.8 0 .8-1.2 0-1.2s-.8 1.2 0 1.2z"/>
        <path id="XMLID_189_" d="M27.8 128c-.5 0-.7.3-.8.8 0 .3.1.5.3.6-.8 0-.8 1.2 0 1.2.7 0 .8-1 .2-1.2.2 0 .4-.1.5-.3.5-.3.4-1.2-.2-1.1z"/>
        <path id="XMLID_190_" d="M28.4 142.3c.8 0 .8-1.2 0-1.2s-.8 1.2 0 1.2z"/>
        <path id="XMLID_191_" d="M27.1 143.2c.8 0 .8-1.2 0-1.2s-.8 1.2 0 1.2z"/>
        <path id="XMLID_192_" d="M56.7 52.8v.1c0 .8 1.2.8 1.2 0v-.1c.1-.8-1.2-.8-1.2 0z"/>
        <path id="XMLID_193_" d="M56.4 50.3c-.8 0-.8 1.2 0 1.2.8.1.8-1.2 0-1.2z"/>
        <path id="XMLID_194_" d="M59.2 46.4h-.1c-.8 0-.8 1.2 0 1.2h.1c.8 0 .8-1.2 0-1.2z"/>
        <path id="XMLID_195_" d="M58.4 44.4c-.8 0-.8 1.2 0 1.2.8.1.8-1.2 0-1.2z"/>
        <path id="XMLID_196_" d="M58.3 42.8c.8 0 .8-1.2 0-1.2-.9 0-.9 1.2 0 1.2z"/>
        <path id="XMLID_197_" d="M57.2 27.4h-.1c-.8 0-.8 1.2 0 1.2h.1c.8.1.8-1.2 0-1.2z"/>
        <path id="XMLID_198_" d="M57.3 26h-.1c-.8 0-.8 1.2 0 1.2h.1c.8 0 .8-1.2 0-1.2z"/>
        <path id="XMLID_199_" d="M57.7 23.3h-.1c-.8 0-.8 1.2 0 1.2h.1c.8 0 .8-1.2 0-1.2z"/>
        <path id="XMLID_200_" d="M56.4 21.4c-.8 0-.8 1.2 0 1.2.8.1.8-1.2 0-1.2z"/>
        <path id="XMLID_203_" d="M56.6 20.6c.2.1.4.1.6 0 0 .1.1.1.2.1 0 .1-.1.2-.1.2v.1c0 .3.2.5.5.6-.7.1-.6 1.2.1 1.2.8 0 .8-1.1.1-1.2.3-.1.5-.2.5-.6v-.1c0-.3-.1-.4-.3-.5.1-.2 0-.5-.2-.7.1-.1.1-.2.1-.3v-.1c0-.3-.2-.5-.5-.6.4-.3.2-1.1-.4-1.1-.6 0-.7.6-.5 1-.1 0-.2-.1-.3-.1-.6 0-.8.7-.4 1.1-.7.1-.7 1.2.1 1.2.3 0 .4-.1.5-.2zm.5-1.7s0-.1-.1-.1c.1 0 .1 0 .1.1z"/>
        <path id="XMLID_204_" d="M58.1 32.4v-.1c0-.8-1.2-.8-1.2 0v.1c-.1.8 1.2.8 1.2 0z"/>
        <path id="XMLID_205_" d="M57.5 49c-.8 0-.8 1.2 0 1.2.8.1.8-1.2 0-1.2z"/>
        <path id="XMLID_206_" d="M86.6 125.5c-.8 0-.8 1.2 0 1.2h.2c.8 0 .8-1.2 0-1.2h-.2z"/>
        <path id="XMLID_207_" d="M87.8 135.9c.8 0 .8-1.2 0-1.2-.8-.1-.8 1.2 0 1.2z"/>
        <path id="XMLID_208_" d="M87.9 136.6c-.8 0-.8 1.2 0 1.2.8.1.8-1.2 0-1.2z"/>
        <path id="XMLID_209_" d="M88.2 140.1c.8 0 .8-1.2 0-1.2s-.8 1.2 0 1.2z"/>
        <path id="XMLID_210_" d="M88.7 142.7c.8 0 .8-1.2 0-1.2-.8-.1-.8 1.2 0 1.2z"/>
        <path id="XMLID_211_" d="M85.8 143.4c-.8 0-.8 1.2 0 1.2s.8-1.2 0-1.2z"/>
        <path id="XMLID_212_" d="M89.1 143.5c-.1-.2-.3-.3-.5-.3-.8 0-.8 1.2 0 1.2 0 .1.1.2.2.2-.1 0-.1 0-.1.1-.3-.3-.8-.3-1 .1 0-.1 0-.2-.1-.3.2-.1.3-.3.3-.5v-.2c0-.8-1.2-.8-1.2 0v.2c0 .2.1.3.2.4-.3.1-.4.3-.5.7-.1.7.8.8 1.1.3l.2-.2c0 .4.4.6.7.6-.1.4.1.8.6.8s.7-.5.6-.8c.5-.2.5-.9 0-1.1.2-.2.1-1.1-.5-1.2z"/>
        <path id="XMLID_213_" d="M88.4 140.8c0-.8-1.2-.8-1.2 0v.2c0 .8 1.2.8 1.2 0v-.2z"/>
        <path id="XMLID_214_" d="M86.3 124c.8 0 .8-1.2 0-1.2-.8-.1-.8 1.2 0 1.2z"/>
        <path id="XMLID_215_" d="M56.9 30.7c.8 0 .8-1.2 0-1.2-.8-.1-.8 1.2 0 1.2z"/>
    </g>
</svg>
