<svg xmlns="http://www.w3.org/2000/svg" viewBox="0 0 276.07 232.62">
    <defs>
        <style>
            .cls-1{fill:#fff}
        </style>
    </defs>
    <title>
        house_Asset 27
    </title>
    <g id="Layer_2" data-name="Layer 2">
        <g id="Layer_1-2" data-name="Layer 1">
            <path class="cls-1" d="M150.54 228.33c-6.88-4.3-25.36 2.4-33.52 2-17.62-.43-35.67-2.15-53.29-2.58-15.9-.43-31.8.43-47.28-2.58A94.75 94.75 0 0 0 1 223.43l.08.24c2.75-11.93-.46-27.06 0-39.91.46-16.05.46-32.11 1.38-48.16 1.8-29.36 1.34-58.71 2.26-88.07.46-10.09.92-21.1 5.5-30.27C13.89 9 18.94 7.17 27.65 4.87c22-6 46.33-3.67 69.26-2.29 48.62 3.21 97.24 2.75 145.41 0 15.6-.92 28.44 3.21 32.11 19.72 1.83 10.09-.46 19.26-.92 29.36-.46 14.68 0 29.36-1.83 43.58-5.5 45-11 90.36-9.17 135.77-6.88 1.84-16.05-.46-23.39-.46s-2.7 1.38-9.58-.92z"/>
            <path class="cls-1" d="M49.54 38.61l1.5 1.5c-4.94-1.72-8.17-2.58-11.6 2.58-4.94 7.74-2.15 18.05 8.17 17 5.58-.69 8.16-6.25 8.39-11.41a11.35 11.35 0 0 0-2.15-6.88c-.85-1.07-4.1-4.72-4.31-2.79z"/>
            <path class="cls-1" d="M87.36 37.32l.21.64C79 33 71.89 56.24 86.72 57.1c5.8.22 9-6.23 8.17-11.6-.44-2.8-5.6-9.68-7.53-8.18z"/>
            <path class="cls-1" d="M123.55 39c-5.14-3-14.83 16.55-.74 16.76 11.19.05 9.32-16.46.74-16.76z"/>
            <path class="cls-1" d="M166.44 41.84l1.72-.43c-11-2.79-12.25 19.77 0 15.9 7.95-2.36 8.17-18.31-1.72-15.47z"/>
            <path class="cls-1" d="M206.58 42c-15.2.33-6.34 24.31 4.78 16.34 6.99-5.1-.2-18.9-4.78-16.34z"/>
            <path class="cls-1" d="M243.67 44c-4.88-1.63-10 5-10.61 9.26A8.08 8.08 0 0 0 246 61c6.31-4.75 6.59-16.68-2.33-17z"/>
            <path class="cls-1" d="M55.56 106.31c1.29 23 0 45.77.43 68.55 8.81 1.72 17.19 1.08 26.22.86 7.52-.21 15.9-1.72 23.42-.86.22-5.59-.86-11.6-1.07-17.19-.21-7.31 0-14.4 0-21.7q0-14.51-1.29-29c-8.81-1.29-18.05-.21-26.86-.64-6.66-.43-15-2.58-21.49-.86a1.12 1.12 0 0 1 .43.86"/>
            <path class="cls-1" d="M146.67 208.13c2.15 6.45 2.58 13.32 3.87 20.2 14.18-2.15 28.8.43 43-.43 11.6-.43 23.64.86 35.24 0-.43-6.88-1.29-14.61-2.15-21.49-12.89-2.58-27.51 1.29-40.4 2.58-13.75 1.29-27.08-.86-40.4-.43z"/>
            <path class="cls-1" d="M158.74 208.19c.63-12.5 1.26-30.58.4-43.9-1.29-18.91 0-38.25-1.72-57.16 18.48-4.3 37.82 2.58 56.3.43-1.29 16.33 0 33.52-.43 49.86-.43 15-.21 34-1.73 48.13-25.51 5.51-52.82 2.64-52.82 2.64z"/>
            <path d="M151 227.49c-6.79-3.69-16.41-.68-23.48.6-12.58 2.28-25.46.66-38.14-.11-14.61-.88-29.17-1.26-43.8-1.45a199.35 199.35 0 0 1-21.71-1.2c-7.68-.94-15.16-2.73-22.93-2.89a1 1 0 0 0-.94 1.24l.08.24c.27.85 1.66 1 1.86 0 2.86-13.52-.25-27.46.06-41.12.41-16.06.48-32.13 1.41-48.18 1-16.62 1.34-33.26 1.59-49.9.22-16.07-.15-32.34 1.4-48.35.73-7.54 2.29-15.64 6.53-22.08 3.32-5 8.77-6.81 14.33-8.3C42.78 1.8 58.91 1.55 74.89 2.26 107.55 3.7 140 5.93 172.74 5.77q25-.12 50-1.24c12.3-.54 27.55-3.81 39.1 2 13.93 6.95 12.71 23.71 11.36 36.83-1.65 16-.45 32.17-2.1 48.19-3.39 33-8.11 65.81-9.49 99-.34 8.22-.51 16.44-.47 24.67 0 3.93.35 7.92.21 11.85-.1 2.86-.11 3.44-3.26 3.64a46.52 46.52 0 0 1-6.34-.13c-5.7-.42-11.16-.85-16.86-.72-2.06 0-3.78-.93-5.81-1.18-4.06-.51-8.42-.14-12.5-.21l-22.58-.39-41-.68h-2.43a1 1 0 0 0 0 1.93l37 .61 27.13.45c4.68.08 9.88-.48 14.52.24 1.42.22 2.73 1.07 4.18 1.26 1.61.21 3.31-.29 4.93-.32 8.2-.2 16.3 2.23 24.45.41a1 1 0 0 0 .71-.93c-1-25.67.27-51.35 2.6-76.92 2.29-25.21 6.93-50.44 7.87-75.73.45-12 .1-24 1.33-35.95 1-9.38 1.94-19.39-2.66-28-8.25-15.48-27.36-12.86-42-12.14-25.49 1.25-51 1.83-76.55 1.54-24.93-.35-49.71-1.96-74.57-3.3-11.94-.64-24-1-35.88.38-8.45 1-18.05 2.26-25.7 6.27-6.88 3.61-10 11.47-11.81 18.64-2.65 10.84-2.44 22.35-2.67 33.43-.59 28-1.21 56-2.37 84-.58 14-.91 28.06-1 42.07-.12 12.65 2.68 25.49.07 38H2l-.08-.24-.92 1.29c7.13.14 14 1.68 21.06 2.64a177.89 177.89 0 0 0 20.74 1.4c14.3.27 28.54.42 42.82 1.26 11.84.7 24.58 2.77 36.39 1.26 8.19-1 20.27-6 28.07-1.79 1.07.6 2.04-1.07.92-1.67z"/>
            <path d="M145.74 208.39c2 6.59 2.67 13.43 3.87 20.2a1 1 0 0 0 1.19.68c13.29-1.82 26.61.16 39.94-.27 12.67-.41 25.37.69 38-.12a1 1 0 0 0 1-1c-.48-7.19-1.27-14.34-2.15-21.49a1 1 0 0 0-.71-.93c-12.79-2.27-25.42.74-38.11 2.26-14.3 1.71-28.62-.48-42.95-.15l.49 1.8.86-.43c1.11-.56.14-2.22-1-1.67l-.86.43a1 1 0 0 0 .49 1.8c16.58-.39 32.74 1.69 49.28-.72 8.15-1.19 16.39-2.64 24.66-2.24 2.09.1 4.79-.4 6.11 1.58.72 1.09.47 4 .63 5.36.27 2.43.53 4.86.75 7.29.11 1.18 1 4.52.44 5.36-1.51 2.29-8.48 1.08-10.94 1.05-4-.05-8.08-.21-12.12-.3-8.05-.18-16.09.33-24.14.07s-16.25-.86-24.36-.25c-2 .15-3.53 1-5-.55-.8-.88-.69-4.52-.86-5.61a86.77 86.77 0 0 0-2.68-12.72c-.33-1.13-2.2-.63-1.83.57z"/>
            <path d="M78 106.74c-1.08 12.89-.38 25.78-.08 38.68.23 9.46 3.17 19.82 1.62 29.18-.2 1.22 1.66 1.74 1.86.51 1.5-9.07-1.32-18.63-1.5-27.76-.28-13.55-1.1-27.08 0-40.61.1-1.24-1.83-1.23-1.93 0z"/>
            <path d="M58.18 141.62c3.6-.87 7.8 0 11.52.06 4.21 0 8.42.12 12.64 0 6.91-.15 13.81-.46 20.72-.48a1 1 0 0 0 0-1.93c-7.51 0-15 .42-22.52.51-4.21.05-8.43 0-12.64-.08-3.49-.06-6.8-.8-10.23 0-1.21.29-.7 2.16.51 1.86z"/>
            <path d="M51.3 39.19c-3.16-1.08-6.53-2.18-9.58-.26s-4.81 5.73-5.4 9.11c-1 6 2.11 11.92 8.53 12.6 7.78.82 12.65-6.35 12.05-13.61a12.87 12.87 0 0 0-4.45-8.55c-1.27-1.13-3-2.21-3.84-.12a1 1 0 0 0 .25.94l1.5 1.5a1 1 0 0 0 1.37-1.37c-.14-.14-1.24-1.29-1.27-1.27-.78.5 1.52 2.56 1.83 2.92A10.55 10.55 0 0 1 55 48.8c-.33 6-4.81 11.46-11.35 9.68-4.82-1.32-6.35-6.48-5.27-10.88.64-2.62 2.21-6 4.72-7.27s5.3-.09 7.69.72c1.21.4 1.68-1.46.51-1.86z"/>
            <path d="M88.06 37.13C78.2 32 73.59 51.25 81.2 56.36c6.57 4.42 13.91-.4 14.7-7.71.38-3.51-.93-6.29-3.1-9-1.32-1.65-3.55-4.31-5.93-3.16a1 1 0 0 0-.44 1.09l.21.64c.39 1.18 2.26.67 1.86-.51q-.31-.95.16.62a7.71 7.71 0 0 1 1.48 1.22 16.05 16.05 0 0 1 2.49 3.23 8.91 8.91 0 0 1 1 7.28c-1.62 6.06-9.48 8.44-13.23 2.87-2.68-4.06-.4-17.76 6.69-14.13 1.1.57 2.08-1.09.97-1.67z"/>
            <path d="M124.79 38.79c-6-5.38-11.26 8.74-9.89 13.11 1.31 4.18 6.27 5.52 10.19 4.64 4.34-1 6.68-5 6.45-9.27-.26-4.75-3.45-9.22-8.51-9.19a1 1 0 0 0-.26 1.9l1.07.43c1.16.46 1.66-1.41.51-1.86l-1.07-.43L123 40c9.86-.07 8.16 18.46-3.19 14.37-8.29-3 .63-16.86 3.58-14.23.96.86 2.33-.52 1.4-1.35z"/>
            <path d="M168.42 40.48c-8.19-1.81-12.34 8.73-8.61 15 2 3.31 6 3.93 9.36 2.5 3.95-1.66 6-6.22 5.79-10.33-.24-5-3.85-7.95-8.77-6.74l.51 1.86 1.72-.43a1 1 0 0 0-.51-1.86l-1.72.43a1 1 0 0 0 .51 1.86c10.2-2.52 6.9 17.23-2.83 13.76-6.67-2.38-3.44-15.84 4-14.19 1.25.27 1.77-1.6.55-1.86z"/>
            <path d="M207.7 41.09c-4.15-.12-8.38 1.32-9.76 5.61a12.06 12.06 0 0 0 2.21 10.66c2.32 3 6 4.47 9.64 3 5-2 6.31-7.43 4.8-12.27-1.09-3.52-5.07-9.79-9.31-6.28-.78.65.07 1.83.94 1.62L208 43a1 1 0 0 0-.51-1.86l-1.72.43.94 1.62c4-3.34 6.9 7.87 6.54 10.2-.69 4.42-5.78 7.23-9.65 4.61a10.31 10.31 0 0 1-4.12-8.65c.2-4.66 4-6.44 8.26-6.31 1.21.02 1.21-1.92-.04-1.95z"/>
            <path d="M245.15 43.58c-5.85-2.85-11.63 3.32-12.9 8.73a9.22 9.22 0 0 0 9.65 11.29c11.35-1.09 13.68-21.23.4-20.58-1 .05-1.38 1.69-.26 1.9l2.36.43c1.22.22 1.74-1.64.51-1.86l-2.36-.43-.25 1.94c9.65-.47 8.84 12.18 2.1 15.88a7.14 7.14 0 0 1-10.45-6.32c0-4.51 5.16-11.74 10.24-9.26 1.1.49 2.08-1.17.96-1.72z"/>
            <path d="M156.77 107.13c1.72 18.91.43 38.25 1.72 57.16.86 13.32.2 32-.42 44.46h6.79v-94h48.22v-7.14c-18.49 2.1-37.83-4.78-56.31-.48z"/>
            <path d="M262.4 64.07l-13.34-17.52c7 20.56-12.28 14.88-12.28 14.88l14.75 16.44c15.7.93 10.87-13.8 10.87-13.8z"/>
            <path d="M67.7 61.49L54.37 42c7 20.56-12.28 16.82-12.28 16.82L56.83 75.3c15.71.92 10.87-13.81 10.87-13.81z"/>
            <path d="M178.25 73.29c11.51-1.31 7.43-13.74 7.43-13.74L172.35 42c7 20.56-11.64 14.88-11.64 14.88L173 71.21a6.08 6.08 0 0 0 5.25 2.08z"/>
            <path d="M129.15 40.75c7 20.56-11.64 14.24-11.64 14.24l12.25 14.28a6.08 6.08 0 0 0 5.29 2.09c11.51-1.31 7.43-13.73 7.43-13.73z"/>
            <path d="M93 41.39C100 62 81.41 55.63 81.41 55.63l12.25 14.29A6.08 6.08 0 0 0 99 72c11.51-1.31 7.43-13.74 7.43-13.74z"/>
            <path d="M224.86 61.1l-12.54-16.48c5.92 21.93-10.85 12.91-10.85 12.91l10.59 14.65a8 8 0 0 0 10.65 2.25c4.21-2.63 3.85-8 3.34-10.65a6.38 6.38 0 0 0-1.19-2.68z"/>
            <path d="M77 106.31c-6.66-.43-15-2.58-21.49-.86a1.12 1.12 0 0 1 .43.86h.21c1.29 23 0 45.77.43 68.55l4.62-.32v-61.25h42.66V107c-8.76-1.34-18-.26-26.86-.69z"/>
            <path d="M134.89 162.17a1 1 0 0 0 0-1.93 1 1 0 0 0 0 1.93z"/>
            <path d="M134.25 133.3a1 1 0 0 0 0-1.93 1 1 0 0 0 0 1.93z"/>
            <path d="M168.25 112.13a1 1 0 0 0 0-1.93 1 1 0 0 0 0 1.93z"/>
            <path d="M152.21 97.37a1 1 0 0 0 0-1.93 1 1 0 0 0 0 1.93z"/>
            <path d="M111.79 97.37a1 1 0 0 0 0-1.93 1 1 0 0 0 0 1.93z"/>
            <path d="M127.83 107.64a1 1 0 0 0 0-1.93 1 1 0 0 0 0 1.93z"/>
            <path d="M36.09 97.37a1 1 0 0 0 0-1.93 1 1 0 0 0 0 1.93z"/>
            <path d="M20.69 135.86a1 1 0 0 0 0-1.93 1 1 0 0 0 0 1.93z"/>
            <path d="M45.07 147.41a1 1 0 0 0 0-1.93 1 1 0 0 0 0 1.93z"/>
            <path d="M24.54 183.34a1 1 0 0 0 0-1.93 1 1 0 0 0 0 1.93z"/>
            <path d="M54.05 194.24a1 1 0 0 0 0-1.93 1 1 0 0 0 0 1.93z"/>
            <path d="M63 204.51a1 1 0 0 0 0-1.93 1 1 0 0 0 0 1.93z"/>
            <path d="M105.38 189.75a1 1 0 0 0 0-1.93 1 1 0 0 0 0 1.93z"/>
            <path d="M124 203.23a1 1 0 0 0 0-1.93 1 1 0 0 0 0 1.93z"/>
            <path d="M145.79 180.13a1 1 0 0 0 0-1.93 1 1 0 0 0 0 1.93z"/>
            <path d="M238.82 169.22a1 1 0 0 0 0-1.93 1 1 0 0 0 0 1.93z"/>
            <path d="M252.93 116.62a1 1 0 0 0 0-1.93 1 1 0 0 0 0 1.93z"/>
            <path d="M223.42 94.16a1 1 0 0 0 0-1.93 1 1 0 0 0 0 1.93z"/>
            <path d="M226.63 129.45a1 1 0 0 0 0-1.93 1 1 0 0 0 0 1.93z"/>
            <path d="M251.65 133.94a1 1 0 0 0 0-1.93 1 1 0 0 0 0 1.93z"/>
            <path d="M226.63 167.3a1 1 0 0 0 0-1.93 1 1 0 0 0 0 1.93z"/>
            <path d="M242 194.24a1 1 0 0 0 0-1.93 1 1 0 0 0 0 1.93z"/>
            <path d="M242 210.92a1 1 0 0 0 0-1.93 1 1 0 0 0 0 1.93z"/>
            <path d="M204.18 90.31a1 1 0 0 0 0-1.93 1 1 0 0 0 0 1.93z"/>
            <path d="M199.69 31.93a1 1 0 0 0 0-1.93 1 1 0 0 0 0 1.93z"/>
            <path d="M136.81 17.82a1 1 0 0 0 0-1.93 1 1 0 0 0 0 1.93z"/>
            <path d="M61.11 22.31a1 1 0 0 0 0-1.93 1 1 0 0 0 0 1.93z"/>
            <path d="M61.75 36.42a1 1 0 0 0 0-1.93 1 1 0 0 0 0 1.93z"/>
            <path d="M29.67 36.42a1 1 0 0 0 0-1.93 1 1 0 0 0 0 1.93z"/>
            <path d="M22 77.48a1 1 0 0 0 0-1.93 1 1 0 0 0 0 1.93z"/>
            <path d="M77.15 84.54a1 1 0 0 0 0-1.93 1 1 0 0 0 0 1.93z"/>
            <path d="M75.87 20.38a1 1 0 0 0 0-1.93 1 1 0 0 0 0 1.93z"/>
            <path d="M104.09 23.59a1 1 0 0 0 0-1.93 1 1 0 0 0 0 1.93z"/>
            <path d="M143.87 25.52a1 1 0 0 0 0-1.93 1 1 0 0 0 0 1.93z"/>
            <path d="M161.19 22.31a1 1 0 0 0 0-1.93 1 1 0 0 0 0 1.93z"/>
            <path d="M233.69 29.37a1 1 0 0 0 0-1.93 1 1 0 0 0 0 1.93z"/>
            <path d="M202.25 17.82a1 1 0 0 0 0-1.93 1 1 0 0 0 0 1.93z"/>
            <path d="M191.34 75.56a1 1 0 0 0 0-1.93 1 1 0 0 0 0 1.93z"/>
            <path d="M158 75.56a1 1 0 0 0 0-1.93 1 1 0 0 0 0 1.93z"/>
            <path d="M150.93 55a1 1 0 0 0 0-1.93 1 1 0 0 0 0 1.93z"/>
            <path d="M113.08 67.22a1 1 0 0 0 0-1.93 1 1 0 0 0 0 1.93z"/>
            <path d="M249.08 28.72a1 1 0 0 0 0-1.93 1 1 0 0 0 0 1.93z"/>
            <path d="M260 39.63a1 1 0 0 0 0-1.93 1 1 0 0 0 0 1.93z"/>
            <path d="M159.71 208.19c1-19.49.19-38.68-.17-58.15-.21-11.14 0-22.29-.51-33.42-.08-1.69-1.19-6.19-.47-7.59 1.3-2.53 6.22-2.13 8.78-2.26a114.74 114.74 0 0 1 16.41.58c5.18.47 10.34 1.09 15.53 1.4 2.42.15 4.84.24 7.26.22 1.2 0 3.37-.54 4.5-.18 1.92.61 1.26.61 1.47 2.57.58 5.53-.36 11.68-.32 17.28 0 5.79.18 11.58.22 17.37.08 10.2-.25 20.42-.43 30.62-.09 4.88-.19 9.76-.39 14.64-.13 3.19.71 11.94-2.09 13.74-2.24 1.44-8.17 1.39-10.69 1.7q-4.42.53-8.86.83c-5.24.36-10.5.49-15.76.45s-10.32-.21-15.44-.73c-1.24-.13-1.23 1.81 0 1.93a175.49 175.49 0 0 0 53.08-2.68 1 1 0 0 0 .71-.93c1.54-15.2 1.3-30.51 1.67-45.76.42-17.4-.77-34.84.49-52.22a1 1 0 0 0-1-1c-18.91 1.91-37.75-4.4-56.56-.4a1 1 0 0 0-.71.93C158 125.52 157 144 158 162.4a430.64 430.64 0 0 1-.28 45.79c-.01 1.24 1.93 1.24 1.99 0z"/>
            <path d="M54.59 106.31c1.21 22.84 0 45.7.43 68.55a1 1 0 0 0 .71.93c8.15 1.44 16.31 1.21 24.55.95 8.45-.27 16.9-1.67 25.35-.91a1 1 0 0 0 1-1c.09-5.21-.68-10.32-1-15.5-.34-5.8-.17-11.64-.12-17.45.1-11.68-.25-23.31-1.25-35a1 1 0 0 0-1-1c-9-1.14-17.89-.08-26.86-.64-7.31-.46-14.44-2.41-21.75-.83a1 1 0 0 0-.58 1.42l.43.86c.56 1.11 2.23.14 1.67-1l-.43-.86-.58 1.42c8.78-1.91 18.05 1 26.95 1 5.14 0 10.29-.28 15.43 0 2.65.14 4.18-.22 5 2.48.6 2 .35 4.69.47 6.77.58 9.74.57 19.46.5 29.21 0 4.79-.12 9.6.22 14.38.14 2 .37 4 .55 6.05.1 1.11 1.14 6.08.4 6.91-1.1 1.24-4.65.45-6.2.49-1.83.05-3.66.19-5.49.33-4.88.37-9.73.73-14.63.87-4.35.13-8.71.3-13.06.1-2.58-.12-7 .53-8.39-2.05-.84-1.55-.06-6-.06-7.81 0-19.6.7-39.2-.34-58.79-.07-1.24-2-1.25-1.93 0z"/>
        </g>
    </g>
</svg>
