<svg xmlns="http://www.w3.org/2000/svg" viewBox="0 0 552.97 349.9">
    <defs>
        <style>
            .cls-1{fill:#fff}.cls-2{fill:none;stroke:#000;stroke-miterlimit:10;stroke-width:.59px}
        </style>
    </defs>
    <title>
        house_Asset 23
    </title>
    <g id="Layer_2" data-name="Layer 2">
        <g id="Layer_1-2" data-name="Layer 1">
            <path class="cls-1" d="M544.18 293.21c0-18.36-.68-36.72-1.36-55.08a143.63 143.63 0 0 0-1.36-17.68c-35.36 3.4-59.84 0-95.88 1.36-27.2 1.36-54.4 5.44-81.6 6.8-15 .68-51.75-1.12-51.4 2.72 1.46 16 2.49 34.51 3.2 51.57-3.65-64.08-12.55-128.48-12.42-191.72.48 16.62 4.05 81.91 4.05 81.91 8.32-1.57 18.2-1.38 27-1.38 42.16-1.36 83.64-8.16 125.8-8.16 10.2 0 28.94-2 39.14-2-.06-1.12-.16-2.34-.29-3.62-.85-8.46-3.07-20.06-4.62-29-1.79-12.06-1.34-33.47-1.34-46-34.83-2.68-58-.47-92.87 0-21.88 0-43.31-.89-64.74.45-8 0-15.12-1.33-22.67.42l1.24 3.59c-4.91-.89-1.77-.37-6.68-.37l-4 .33c-4.79-.06-1.41 0-6.32 0-20.54.45-39.54 2.88-60.08 2.88-27.68.45-55.81-1.79-83.5-2.68-28.13-.89-55.37-2.23-83.5-.45-22.31 1.34-29.2-5.49-51.06.31 0 80.91-2.35 166.07 3.09 247 .68 8.84 1.29 8 1.88 12.4 6.8 2 24.64 2.56 31.44 1.87 22.44-1.36 44.2-.68 66.64-2.72 33.32-3.4 66 1.36 99.28 1.36 32 0 63.92.68 95.88 0 .09-3.81.13-7.63.15-11.44v1.61c32 .68 67.75-4.82 100.39-4.82 36.72 0 73.44-4.08 110.16-4.08 11.56 0 13 1.11 17.82-1.47.7-8.18-1.47-25.75-1.47-33.91z" transform="translate(-.31)"/>
            <path class="cls-1" d="M141.09 318.77c4.1-28.22-6-57.87-5.58-86.09 16.84.45 35.05 2.28 51.44 0 .91 26.4 4.74 61.24 3.37 84.91z" transform="translate(-.31)"/>
            <path class="cls-1" d="M462.76 96.5l.31.22c-3.7-4.16-32.81.92-40.67.92 3.7 19.41-.46 39.29 2.77 58.23 12.48-2.77 28.66-4.16 41.13.46-2.3-18.94.62-41.33-3.54-59.83z" transform="translate(-.31)"/>
            <path class="cls-1" d="M375.08 96.72c-3.7-4.16-32.81.92-40.67.92 3.7 19.41-.46 39.29 2.77 58.23 12.48-2.77 28.66-4.16 41.13.46-2.31-18.95.61-41.35-3.55-59.84z" transform="translate(-.31)"/>
            <path class="cls-1" d="M269.08 231.72c-3.7-4.16-32.81.92-40.67.92 3.7 19.41-.46 39.29 2.77 58.23 12.48-2.77 28.66-4.16 41.13.46-2.31-18.95.61-41.35-3.55-59.84z" transform="translate(-.31)"/>
            <path class="cls-1" d="M91.08 231.72c-3.7-4.16-32.81.92-40.67.92 3.7 19.41-.46 39.29 2.77 58.23 12.48-2.77 28.66-4.16 41.13.46-2.31-18.94.61-41.33-3.55-59.83z" transform="translate(-.31)"/>
            <path class="cls-1" d="M91.08 119.72c-3.7-4.16-32.81.92-40.67.92 3.7 19.41-.46 39.29 2.77 58.23 12.48-2.77 28.66-4.16 41.13.46-2.31-18.94.61-41.33-3.55-59.83z" transform="translate(-.31)"/>
            <path class="cls-1" d="M261.31 179.34c-2.31-18.95.61-41.35-3.55-59.84l.31.22c-3.7-4.16-32.81.92-40.67.92 3.7 19.41-.46 39.29 2.77 58.23 12.49-2.77 28.66-4.15 41.14.47z" transform="translate(-.31)"/>
            <path class="cls-1" d="M171 119.72c-3.7-4.16-32.81.92-40.67.92 3.7 19.41-.46 39.29 2.77 58.23 12.48-2.77 28.66-4.16 41.13.46-2.31-18.95.61-41.35-3.55-59.84z" transform="translate(-.31)"/>
            <path class="cls-1" d="M516.37 172.5c-8.84-10.2-11.56-10.88-25.16-10.2-10.2 0-21.08 1.36-31.28 1.36-42.16 0-83.64 6.8-125.8 8.16-8.84 0-18.72-.19-27 1.38L312 231c13.38-3.43 36.44-2 51.4-2.72 27.2-1.36 54.4-5.44 81.6-6.8 36-1.36 72.08 1.36 107.44-2-2.75-15.02-26.55-35.42-36.07-46.98z" transform="translate(-.31)"/>
            <path class="cls-1" d="M313.77 87.51l-1.24-3.59c7.55-1.75 14.67-.42 22.67-.42 21.43-1.34 42.86-.45 64.74-.45 34.83-.45 69.65-2.68 104.48 0-7.59-11.61-10.72-25.9-18.31-37.51-3.57-5.36-7.14-10.27-10.27-16.07-3.12-6.25-3.12-9.82-9.38-10.27-14.73-1.79-32.59 2.68-47.78 4-23.68 1.35-47.31 1.8-71.42 2.69-13.84.45-27.68 2.23-41.52 1.79-3.57 0-12.06-2.68-12.06 1.34l10.13 29.65C297.17 39.5 290.54 20.19 284.3.89c-13.84 1.79-28.13 0-42 .45-21.88.89-43.31 1.34-65.19 1.34-38.85-.45-79.48 5.8-117.88 0-9.38-1.34-16.52-1.79-20.54 8-3.57 9.38-5.36 19.2-9.38 28.13-4.91 10.72-10.27 21.43-15.63 31.7-1.79 4-3.13 7.59-5.36 11.16a53.93 53.93 0 0 1-7.14 8C23.1 83.94 47.66 88.4 70 87.06c28.13-1.79 55.37-.45 83.5.45 27.68.89 55.81 3.13 83.5 2.68 20.54 0 41.08-2.23 61.62-2.68 4.88 0 10.24-.89 15.15 0z" transform="translate(-.31)"/>
            <path d="M313.46 231.33c.26-3.18 38.73-1.65 42.4-1.67 24.47-.15 48.84-3.85 73.2-5.85 25.16-2.07 50.21-1 75.4-.91 5.64 0 11.27 0 16.9-.25q4.44-.16 8.88-.43c2.82-.18 9.28-2 10.67.82.93 1.9.57 5.49.72 7.58.18 2.51.24 5 .3 7.52.2 7.21.53 14.43.76 21.64.39 12.53.11 25.12.73 37.63.22 4.5.61 9 .93 13.48.3 4.3 1.58 10 .55 14.27-.74 3.05-4.57 2.81-7.36 2.77-5.86-.09-11.69-.25-17.55-.16-13.78.2-27.55.9-41.31 1.65s-27.53 1.58-41.31 2c-13.19.43-26.39.23-39.58.91-13 .67-25.93 1.78-38.89 2.72-6.12.44-12.25.84-18.38 1.14-6.44.31-13.35-.38-19.71.45-3.06.4-2.61 1.4-2.65-1.61q-.06-3.8-.14-7.6-.25-12.67-.66-25.34c-.75-23.61-1.78-47.23-3.9-70.76-.1-1.12-1.87-1.13-1.77 0 3.18 35.25 4.3 70.76 4.73 106.14a.9.9 0 0 0 .88.88c24.44.43 48.77-2.3 73.12-3.83 24.79-1.56 49.66-1.25 74.48-2.6 24.56-1.33 49-2.07 73.54-2.24a15.41 15.41 0 0 0 6-1c2.77-1.14 2.26-2.2 2.28-5.19.05-8.71-1.07-17.4-1.5-26.09-1.27-25.64.6-51.68-2.88-77.18a.88.88 0 0 0-.85-.65C505 223 468.44 219 432 221.8c-20.1 1.56-40.11 4.11-60.23 5.46-12.67.85-25.33.52-38 .62-2.92 0-21.63-1.5-22 3.44-.17 1.14 1.6 1.13 1.69.01z" transform="translate(-.31)"/>
            <path d="M19.13 88.27a66.69 66.69 0 0 1 22.11-2.1c6.26.51 12.44 1.62 18.72 1.9 8.86.4 17.75-.58 26.61-.8 9.35-.23 18.7-.19 28.05 0C152.2 88 189.73 91 227.3 91.16c18.26.08 36.37-1.24 54.59-2.29 4.41-.26 8.83-.48 13.24-.59 1.5 0 4.84-.73 6.36-.05 2 .89 1 9.33 1 11.53q.07 7.17.28 14.33c1.08 37.32 4.65 74.5 7.84 111.69s6.08 74.54 5.77 111.92c0 2 .45 4.84-.09 6.72-.75 2.63-2.55 2.07-5.17 2.11q-7.49.12-15 .16c-9.65.06-19.31 0-29 0-19.21-.11-38.47.12-57.68-.42-18.79-.53-37.54-2.12-56.34-2.37-19-.25-37.77 2-56.72 2.6C80 347 63.4 348.13 47 348.06a119.86 119.86 0 0 1-19.15-1.32c-2.62-.44-3-.5-3.57-3a51.52 51.52 0 0 1-1.12-6.85c-3.56-36.59-3.48-73.83-3.73-110.56-.25-37.17.17-74.35.35-111.52q.07-13.72.07-27.44a.89.89 0 0 0-1.65-.45c-.55 1 1 1.89 1.53.89L18 87.36c0 71.6-1.79 143.26 1.32 214.82C20 317.25 20.86 332.13 23 347a.87.87 0 0 0 .62.62c12.39 3.41 25.93 2.11 38.58 1.55 20.57-.92 41.16-.71 61.69-2.55 20.08-1.8 40.2-.83 60.29.24 20.68 1.1 41.29 1.28 62 1.42 23.64.16 47.28.38 70.91-.1a.9.9 0 0 0 .88-.88c1.49-67.76-8-135-12.07-202.53-1.15-19.12-1.82-38.26-1.7-57.41a.9.9 0 0 0-.88-.88c-17.11-.2-34.16 1.67-51.23 2.48-20.26 1-40.56.3-60.81-.63-41.1-1.88-82.05-3.64-123.18-2-8.48.34-16.69-.89-25.09-1.74a69.24 69.24 0 0 0-24.4 2 .88.88 0 0 0 .52 1.68z" transform="translate(-.31)"/>
            <path d="M312.21 231.83c12.67-3.05 26.15-2.4 39.08-2.46 15.09-.07 30.1-1.38 45.11-2.86 16.49-1.62 33-3.55 49.55-4.21s33.38-.34 50.06-.24c18.82.11 37.65 0 56.4-1.77a.9.9 0 0 0 .85-1.12c-2.82-13.49-15.12-24.77-24.24-34.32-4.76-5-9.32-10.1-14-15.18-3.6-3.93-7.4-7.27-12.81-8.13-8.25-1.32-17.47 0-25.74.48-10.71.68-21.39.65-32.11 1-22.6.8-45.11 3.14-67.63 5.1-12.25 1.06-24.51 2-36.79 2.55-11.05.48-22.16-.27-33.11 1.63a.88.88 0 0 0-.65.85l4.91 57.85c.1 1.12 1.86 1.13 1.77 0l-2.94-34.83-1.65-19.47c-.06-.7-.63-2.81-.29-3.46-.37.7 4.8.06 5.61 0 1.7-.16 3.4-.26 5.11-.33 4-.18 8.06-.18 12.08-.17 31.46 0 62.9-4.74 94.26-6.85 15.29-1 30.61-.81 45.89-1.69 7.27-.42 14.53-.82 21.81-1 5-.16 10.27-.55 14.74 2.14s7.55 7.18 10.93 10.94c4 4.41 8.15 8.6 12.21 12.92 8.07 8.57 18.44 18.58 20.94 30.55l.85-1.12c-33.78 3.14-67.69 1-101.54 1.85-32.29.85-64.25 6.91-96.56 7.2-14.08.13-28.77-.78-42.57 2.54-1.11.17-.64 1.88.47 1.61z" transform="translate(-.31)"/>
            <path d="M1.46 90.59c19.26-4.86 39.11-2.38 58.71-2.38 10.1 0 20.19-.89 30.29-1.06s20 0 30 .2c40.82 1 81.67 4.45 122.51 3.67 11.94-.23 23.86-1.08 35.78-1.76 5.63-.32 11.26-.61 16.9-.78 5.91-.17 12-.95 17.93-.11.61.09 1.33-.38 1.09-1.09-9.97-28.85-20.12-57.61-29.51-86.63a.9.9 0 0 0-.86-.65c-12.08 1.42-24.16.41-36.3.38-12.42 0-24.87.79-37.3 1.06-23.88.51-47.73.23-71.59 1.38C115 4 90.77 5.47 66.73 2.77 59.86 2 50.74-.9 44.19 2.67c-7.07 3.85-8.53 14.22-10.57 21.14-4 13.52-10.27 26-16.64 38.5C12.15 71.79 8.73 81.89.6 89.12c-.85.76.4 2 1.25 1.25 8.06-7.17 11.41-16.9 16.2-26.29 6.46-12.65 13-25.25 17-38.9 1.83-6.16 3-14.6 7.68-19.24 3.72-3.65 9.12-3.3 13.91-2.73A343.09 343.09 0 0 0 98.9 6c28.75-.15 57.42-2.35 86.18-2.5q22.68-.11 45.36-.88c14.8-.5 29.59.36 44.37-.16 1.27 0 2.54-.1 3.81-.19s2.53-.19 3.8-.32a2.75 2.75 0 0 1 2.24 2.83c1.74 3.29 2.48 7.57 3.66 11.11q4 12 8.12 24c5.45 15.93 11 31.83 16.48 47.76l1.08-.99c-8.85-1.26-18.44 0-27.34.4-10.94.52-21.86 1.34-32.8 1.83-21.17.95-42.35.34-63.51-.64-20.73-1-41.45-1.83-62.2-2.46-20.95-.63-41.69 0-62.61.58C44 87 22.19 83.54 1 88.89a.88.88 0 0 0 .46 1.7z" transform="translate(-.31)"/>
            <path d="M312.67 84.79c7.85-1.61 15.6-.21 23.51-.47s15.59-.64 23.4-.67c16.08-.07 32.17.47 48.25.15 32.2-.63 64.43-2.26 96.6.13a.89.89 0 0 0 .76-1.33c-7.49-11.82-10.74-25.73-18.31-37.51-3.43-5.34-7.37-10.4-10.27-16.07-1.74-3.4-2.68-8.07-6.44-9.87-4.3-2.06-10.66-1.36-15.24-1.15-6.52.3-13 1.23-19.44 2.16-15.82 2.28-31.57 3-47.53 3.52-15.54.54-31.11.76-46.64 1.6-13.83.74-27.57 2.35-41.38.84-4.1-.45-8 .14-6.57 4.75 1.6 5.31 3.59 10.53 5.39 15.77l12.82 37.54c.37 1.07 2.07.61 1.7-.47l-9.7-28.4-6.36-18.63-2-5.92c-.88-2.59-.19-2.82 3.17-3 4.25-.25 9 .93 13.29.9 7.92-.06 15.83-.7 23.73-1.22 14.29-.94 28.62-1.19 42.93-1.64 14-.45 28.09-.51 42-1.82 13.23-1.24 26.3-4.46 39.65-4.27 3 0 7.53-.31 10.09 1.43 2.06 1.4 2.87 4.16 3.84 6.3 2.89 6.39 7.11 12 11 17.86 7.88 11.94 11.15 26.16 18.79 38.23l.76-1.33c-32.83-2.44-65.71-.68-98.57-.09-16.4.29-32.8-.33-49.21-.17-7.76.07-15.54.76-23.29.69-7.15-.07-14.09-1-21.17.5-1.14.18-.67 1.87.44 1.66z" transform="translate(-.31)"/>
            <path d="M498.23 157.9l.29 3.62c.09 1.12 1.83 1.14 1.77 0s-.17-2.42-.29-3.62-1.88-1.13-1.77 0 .22 2.41.29 3.62h1.77l-.29-3.62c-.1-1.13-1.86-1.14-1.77 0z" transform="translate(-.31)"/>
            <path d="M492.26 83c0 14.91-.83 30.15 1.2 45 1.24 9.05 3.31 18 4.43 27q.24 1.93.41 3.87a7.55 7.55 0 0 1 .14 1.74c-.53 1.27.56-.27-.13.06-.92.44-3.25.09-4.22.13-2.05.09-4.1.2-6.15.33-17.32 1.08-34.62 1.34-51.94 2.24-21 1.08-41.86 3.28-62.78 5-11.61 1-23.23 1.84-34.87 2.3-10.42.42-20.84-.24-31.17 1.55l1.12.85c-1.46-26.72-3.1-53.45-4-80.19 0-1.46-.54-3.74-.1-5.17 0-.12-1.19.59 0 .44 1-.13 2-.19 3-.25a27 27 0 0 1 6.67.32c.61.11 1.32-.4 1.09-1.09-1.08-3.14.26-3 3.08-3.25a55.34 55.34 0 0 1 6-.09c3.53.1 7.06.45 10.59.43 8.1 0 16.21-.67 24.32-.72 16-.1 32.06.48 48.09.17 28.76-.56 57.39-2 86.12.13 1.13.08 1.13-1.68 0-1.77-29-2.17-58-.65-87.07-.11-16.37.3-32.73-.33-49.1-.17-7.76.07-15.54.76-23.28.69-7.11-.07-14-.95-21.08.48A.89.89 0 0 0 312 84l1.24 3.59 1.09-1.09c-3-.55-11.11-2.08-11.91 1.65-.37 1.74.08 4 .15 5.79.13 3.49.28 7 .44 10.48.82 18.1 1.78 36.19 2.75 54.27q.38 7.17.77 14.34a.9.9 0 0 0 1.12.85c8.32-1.44 16.73-1.3 25.14-1.35s16.66-.65 25-1.23c17.73-1.25 35.41-3.07 53.12-4.53 17-1.4 34-2.1 51-2.42 12.51-.23 25-1.93 37.48-2a.89.89 0 0 0 .88-.88c-1-12.79-4.41-25.25-5.52-38-1.17-13.42-.75-27.01-.75-40.47a.88.88 0 0 0-1.74 0z" transform="translate(-.31)"/>
            <path d="M340.72 336.8c-1.24-11.05-2.49-22.19-3.86-33.29-.67-5.46-1.17-10.93-1.43-16.43-.14-2.9-.1-5.82-.26-8.71-.18-3.24.23-4.55 2.58-6.85 3.28-3.22 6.44-6.48 9.47-10 3.34-3.81 7-10.73 12.24-11.51 4.13-.62 8.52-.14 12.71-.56a117 117 0 0 0 14.41-2.22c11.39-2.58 22.28-.73 33.77-.45s23.21-1.3 34.78-1.68c11.08-.37 22.15-1.24 33.22-.08 2.55.27 2.84.53 4.17 2.5 1 1.55 1.93 3.13 3.11 4.59 2.54 3.17 7.34 6.2 8.16 10.18.43 2.08-.11 4.47-.11 6.65 0 3.12 0 6.23.05 9.35.1 6.34 0 12.62-.4 18.95s-.72 12.43-.6 18.66c0 1.3 1.65 10.51.75 11.59-.73.86.51 2.12 1.25 1.25.89-1.05.5-2.67.39-3.93-.29-3.3-.6-6.52-.64-9.84-.12-10 1.08-20 1.1-30 0-5-.21-10.07-.14-15.11 0-2.78 1.2-6.16.22-8.85s-3.51-4.45-5.34-6.31a32.12 32.12 0 0 1-7.51-10.9.91.91 0 0 0-.85-.65c-8.17.33-16.29-.9-24.47-.39-8.57.53-17.17.57-25.74 1.13-8.75.58-17.39 1.42-26.16.85-7.85-.51-15.88-1.6-23.72-.42s-15.17 3.08-23 3.64c-4.68.33-10.48-1-14.45 2.13-2.61 2.06-4.47 5.53-6.64 8.09-2.76 3.24-5.56 6.49-8.56 9.5-1.66 1.67-3.76 3.08-5 5.06s-.83 4.1-.74 6.52c.73 19.23 3.41 38.4 5.54 57.46.13 1.12 1.89 1.13 1.77 0z" transform="translate(-.31)"/>
            <path d="M361 259.94c-2.26 4.85-6.54 7.95-9.24 12.37-1.83 3-.77 8.37-1 11.9a.9.9 0 0 0 .88.88c8.62 1 17.07-.8 25.66-1.23a.91.91 0 0 0 .85-.65c2.08-7.06.33-14.41.18-21.6a.91.91 0 0 0-.88-.88c-3.57-.46-7 .17-10.53.14-1.68 0-3.4-.45-5.07-.11-1.11.23-.64 1.93.47 1.7 2.48-.51 5.86.1 8.4-.06 1.18-.07 4.22-.79 5.09-.12 1.18.91.87 2.35 1 3.75.26 3.45.69 6.9.62 10.36 0 2.36.29 4.51-1.94 5.79-1.19.68-4.19.36-5.5.5-3.65.39-7.3.88-11 1-1.6 0-4.85.59-5.92-.69-.93-1.11-.37-4.51-.25-6 .35-4 2.27-5.66 4.69-8.58a35.85 35.85 0 0 0 5-7.61c.48-1-1-1.92-1.53-.89z" transform="translate(-.31)"/>
            <path d="M385.35 261.62c.11 7.55-.34 15.11 1.41 22.52a.89.89 0 0 0 .85.65c10.07-.34 20.07.55 30.17 0 9.65-.52 19.34-1.21 29-1.54a.91.91 0 0 0 .88-.88c.23-3.62-.55-7.06-1.06-10.61-.64-4.47-.7-8.91-1.89-13.29a.9.9 0 0 0-.85-.65c-10.27.15-20.53.74-30.75 1.84-4.81.52-9.63 1.44-14.45 1.71-4.06.23-8.11-1-12.12-.48-1.11.14-1.13 1.91 0 1.77 2.64-.34 5.17.33 7.8.5a48.16 48.16 0 0 0 9.4-.56c6.64-.86 13.27-1.64 20-2.14q5.29-.4 10.58-.62c2.35-.1 7.53-1.24 9.21.81 1.55 1.89.89 7.48 1.2 10 .34 2.71 1.76 6.31 1.27 9-.31 1.67 0 1.62-1.92 2a41.58 41.58 0 0 1-4.57.29c-3.35.24-6.69.52-10 .64-6.79.25-13.58.72-20.37.9-3.58.09-7.14 0-10.72-.18-2.59-.13-8.32.76-10.24-1.19-1.45-1.47-.89-7.91-.93-10.11-.07-3.44 0-6.88 0-10.32a.88.88 0 0 0-1.77 0z" transform="translate(-.31)"/>
            <path d="M455.89 259.93c.16 7.15 1.88 14.13 2.77 21.21a.9.9 0 0 0 1.33.76c3.61-1.65 9.33.26 13.27.3 2.54 0 7.63 1 10-.15 3.34-1.65 1-9.39.62-12.28a5.36 5.36 0 0 0-1.36-3.5c-1.36-1.57-3.57-2.63-5.08-4.17a23.17 23.17 0 0 0-3.25-3c-4.27-3-12.85-1.85-17.5.11-1 .43-.58 2.15.47 1.7 5-2.1 13.51-2.82 17.55.9 1.74 1.6 3.61 3.21 5.28 4.85 1.88 1.84 2 3.5 2.35 6.06.27 2.27 1.84 6.18-.54 7.74-1.47 1-7.75 0-9.49-.06-4.23-.09-9.19-1.89-13.22 0l1.33.76c-.88-7.07-2.6-14.06-2.77-21.21a.88.88 0 0 0-1.77 0z" transform="translate(-.31)"/>
            <path d="M389.61 299.38c9.86 1 20.17-.69 30.07-.86 9.52-.17 19 .24 28.41-1.63L447 296c.22 4.21.52 8.43.64 12.64.06 2.07.83 5-1 6.29-.91.64-4.52.13-5.57.19-8.71.48-17.5.94-26.16 1.86a66.23 66.23 0 0 1-12.58 0c-2.6-.21-9.88.93-11-1.77-.66-1.57-.21-4.78-.62-6.56-.69-3.07-2.06-6.61-.8-9.67.43-1.05-1.28-1.51-1.7-.47-1.94 4.7 1.16 10.76 1.35 15.57.2 5 2.08 4.61 6.62 4.37 3.76-.2 7.54.55 11.29.66 4.44.13 8.76-.71 13.17-1 9.24-.57 18.62-1.49 27.88-1.44a.9.9 0 0 0 .88-.88c.23-6.62-.28-13.22-.62-19.82a.9.9 0 0 0-1.12-.85c-9.84 2-19.86 1.38-29.83 1.6-9.29.21-18.92 1.78-28.18.83-1.13-.12-1.12 1.65 0 1.77z" transform="translate(-.31)"/>
            <path d="M461.27 297.42c.13 4.35 1.08 8.64 1 13 0 1.52-.49 4 .93 5.18 1.78 1.46 5.76.75 7.87.71 4.76-.08 10.06-1.67 14.72-1.1.49.06.86-.45.88-.88.27-5-.22-9.94-.05-14.92.07-2 .39-4.68-1.65-5.78s-5.73 0-7.94.22c-5 .54-10.32.14-15.15 1.18-1.11.24-.64 1.94.47 1.7 3.89-.83 8.47-.54 12.47-.92 2-.19 4-.51 6.06-.66 4.23-.32 3.93 2.5 3.89 5.61s.26 6.33.26 9.49c0 2.61.23 2.5-2.09 3.12a36.38 36.38 0 0 1-4.64.69c-3.64.4-8.19 1.18-11.76.36-2-.45-2.34-.13-2.57-2.53-.08-.87.11-1.78.1-2.65-.05-4-1-7.87-1.08-11.83 0-1.13-1.8-1.14-1.77 0z" transform="translate(-.31)"/>
            <path d="M356.73 301.84c6-.06 11.53-1.07 17.39-1.93 5-.73 5.11 2 5.16 6.12q0 3.41.11 6.82c.06 3 .83 5.37-2.83 6.53-1.54.49-3.72.18-5.29.19-3.54 0-8.19 1.06-11.57.13s-2.85-5.8-3.1-8.91a52.14 52.14 0 0 1-.21-10.3c.13-1.13-1.64-1.12-1.77 0a61.23 61.23 0 0 0 .45 13.21c.22 2.07.12 5.73 1.9 7.16s6 .67 8.15.59c5-.19 10.09.12 15.05-.9a.9.9 0 0 0 .65-.85A121.36 121.36 0 0 0 381 306c0-1.93.37-5.83-1.24-7.36s-4.87-.67-6.76-.35a103.39 103.39 0 0 1-16.31 1.76.88.88 0 0 0 0 1.77z" transform="translate(-.31)"/>
            <path d="M116.32 346.51c.74-5.51.21-11 .27-16.55 0-2.76-.62-7.59 2.24-8.74 2.13-.85 6.71.19 9.07.14 6.61-.14 13.12-1.38 19.72-1.75s13.4-.28 20.09-.06c13 .42 26-.12 39.06.32 2.42.08 8.4-.58 10.44.77s1.22 6.21 1.24 8.44a110.2 110.2 0 0 0 1.12 17.92c.19 1.12 1.9.64 1.7-.47-1.51-8.76-.83-17.69-1.27-26.53a.92.92 0 0 0-.88-.88c-17-2.24-34.33-.78-51.4-1.33S134 320 117 319.38a.9.9 0 0 0-.85.65c-2.59 8.61-.42 17.69-1.59 26.48-.15 1.12 1.62 1.11 1.77 0z" transform="translate(-.31)"/>
            <path d="M90.45 219.56c17.71-.07 35.22-.22 52.94.61 5.51.26 10.87.12 16.37 0 3.62-.1 11.15-1.27 14.27 1.09.91.69 1.79-.85.89-1.53-2.71-2.05-8-1.42-11.09-1.4-5.55 0-11.1.51-16.65.28-9.48-.4-18.94-1-28.43-1.18s-18.86.36-28.3.4a.88.88 0 0 0 0 1.77z" transform="translate(-.31)"/>
            <path d="M177.14 197.77c18.46 0 37-.81 55.33 1.75 1.11.16 1.59-1.55.47-1.7-18.51-2.58-37.17-1.84-55.8-1.81a.88.88 0 0 0 0 1.77z" transform="translate(-.31)"/>
            <path d="M210.92 215.56c13.16-1.61 26.36-.51 39.56-.44a.88.88 0 0 0 0-1.77c-13.21-.06-26.4-1.17-39.56.44-1.11.14-1.13 1.91 0 1.77z" transform="translate(-.31)"/>
            <path d="M199.37 107.64c22.26 1.82 44.78 2.63 66.92-.92 1.12-.18.64-1.88-.47-1.7-22 3.53-44.36 2.67-66.45.86-1.13-.09-1.13 1.67 0 1.77z" transform="translate(-.31)"/>
            <path d="M142 104.42c14.48 1.35 29 2.61 43.57 2.67a.88.88 0 0 0 0-1.77C171 105.26 156.5 104 142 102.65c-1.13-.11-1.12 1.66 0 1.77z" transform="translate(-.31)"/>
            <path d="M177.14 135.29c11.23 0 22.43.29 33.57-1.36 1.12-.17.64-1.87-.47-1.7-11 1.63-22 1.32-33.1 1.3a.88.88 0 0 0 0 1.77z" transform="translate(-.31)"/>
            <path d="M107.79 157.32c5.63 0 11.26-.41 16.89-.44a.88.88 0 0 0 0-1.77c-5.63 0-11.26.41-16.89.44a.88.88 0 0 0 0 1.77z" transform="translate(-.31)"/>
            <path d="M196 168.4c2.66.41 5.35.48 8 .89 1.11.17 1.59-1.53.47-1.7-2.66-.41-5.35-.48-8-.89-1.11-.17-1.59 1.53-.47 1.7z" transform="translate(-.31)"/>
            <path d="M293.16 190.67c-9.85-.73-19.75.71-29.55-.86-1.11-.18-1.59 1.52-.47 1.7 10 1.59 20 .17 30 .92 1.13.08 1.13-1.68 0-1.77z" transform="translate(-.31)"/>
            <path d="M125.35 120.23c-9.85-.73-19.75.71-29.55-.86-1.11-.18-1.59 1.52-.47 1.7 10 1.59 20 .17 30 .92 1.13.08 1.13-1.68 0-1.77z" transform="translate(-.31)"/>
            <path d="M290.5 267.12c4.7 0 9.4-.38 14 .86a.88.88 0 0 0 .47-1.7c-4.74-1.28-9.6-.95-14.46-.92a.88.88 0 0 0 0 1.77z" transform="translate(-.31)"/>
            <path d="M207.6 284a60.13 60.13 0 0 1 14.88-1.75.88.88 0 0 0 0-1.77 62 62 0 0 0-15.35 1.81.88.88 0 0 0 .47 1.7z" transform="translate(-.31)"/>
            <path d="M239.16 314.66c14.61-2 29.49-.16 44-3.11 1.11-.23.64-1.93-.47-1.7-14.5 2.94-29.4 1.08-44 3.11-1.12.16-.64 1.86.47 1.7z" transform="translate(-.31)"/>
            <path d="M265.16 300a179.61 179.61 0 0 0 26.23-.89c1.12-.11 1.13-1.88 0-1.77a179.61 179.61 0 0 1-26.23.89c-1.14-.05-1.13 1.72 0 1.77z" transform="translate(-.31)"/>
            <path d="M46.89 198.66c11.42 0 22.82-.87 34.23-1.33 1.13 0 1.14-1.81 0-1.77-11.41.46-22.81 1.28-34.23 1.33a.88.88 0 0 0 0 1.77z" transform="translate(-.31)"/>
            <path d="M38.68 107.95c7.73-1.75 15.63-.28 23.46-.45 8.22-.18 16.37-1 24.53.45 1.11.2 1.59-1.51.47-1.7-8.32-1.47-16.61-.7-25-.51-8 .18-16-1.28-23.93.51-1.11.25-.64 2 .47 1.7z" transform="translate(-.31)"/>
            <path d="M32.22 134.65a70.37 70.37 0 0 0 10-1.81.88.88 0 0 0-.47-1.7 67.05 67.05 0 0 1-9.54 1.75c-1.11.14-1.13 1.91 0 1.77z" transform="translate(-.31)"/>
            <path d="M28 166.63c4-.8 8.13-.44 12.21-.41a.88.88 0 0 0 0-1.77c-4.25 0-8.48-.35-12.68.48-1.11.22-.64 1.92.47 1.7z" transform="translate(-.31)"/>
            <path d="M30.44 225.78c8.89 0 17.78-.41 26.67-.44a.88.88 0 0 0 0-1.77c-8.89 0-17.78.41-26.67.44a.88.88 0 0 0 0 1.77z" transform="translate(-.31)"/>
            <path d="M36.9 309.32c18.78-2.69 38-4 56.88-1.33 1.11.15 1.59-1.55.47-1.7-19.21-2.67-38.69-1.41-57.82 1.33-1.12.16-.64 1.86.47 1.7z" transform="translate(-.31)"/>
            <path d="M61.11 331.58c10.33-1.27 20.72-1.33 31.12-1.33a.88.88 0 0 0 0-1.77c-10.4 0-20.78.06-31.12 1.33-1.11.14-1.13 1.91 0 1.77z" transform="translate(-.31)"/>
            <path d="M110.46 284.46a97.33 97.33 0 0 0 11.11-.89c1.11-.14 1.13-1.91 0-1.77a97.33 97.33 0 0 1-11.11.89.88.88 0 0 0 0 1.77z" transform="translate(-.31)"/>
            <path d="M380.06 121.73c8.28 1.15 16.42-.31 24.68-.86 1.13-.07 1.14-1.84 0-1.77-8.08.54-16.12 2-24.21.92-1.11-.15-1.59 1.55-.47 1.7z" transform="translate(-.31)"/>
            <path d="M397.19 139.54h18.67a.88.88 0 0 0 0-1.77h-18.67a.88.88 0 0 0 0 1.77z" transform="translate(-.31)"/>
            <path d="M489.65 128a65.39 65.39 0 0 0-13.13.92c-1.11.23-.64 1.93.47 1.7a63.1 63.1 0 0 1 12.66-.86.88.88 0 0 0 0-1.77z" transform="translate(-.31)"/>
            <path d="M473.41 93.79c-1.47.35-3 .44-4.45.89-1.08.34-.62 2 .47 1.7 1.44-.45 3-.54 4.45-.89 1.11-.26.64-2-.47-1.7z" transform="translate(-.31)"/>
            <path d="M386.3 93.28c8.48.27 16.87-1.54 25.34-.44 1.12.15 1.11-1.62 0-1.77-8.47-1.09-16.86.71-25.34.44-1.14 0-1.14 1.73 0 1.77z" transform="translate(-.31)"/>
            <path d="M313.17 115.09c4.14-.49 8.26-1.25 12.45-.89 1.13.1 1.13-1.67 0-1.77-4.19-.37-8.3.4-12.45.89-1.12.13-1.13 1.9 0 1.77z" transform="translate(-.31)"/>
            <path d="M308.72 140.87a67.46 67.46 0 0 1 8.89-.44.88.88 0 0 0 0-1.77 67.46 67.46 0 0 0-8.89.44c-1.11.15-1.13 1.92 0 1.77z" transform="translate(-.31)"/>
            <path d="M314.27 160.85c9.1 1.64 18.21-.27 27.35-.41a.88.88 0 0 0 0-1.77c-9 .14-18 2.08-26.88.48-1.11-.2-1.59 1.5-.47 1.7z" transform="translate(-.31)"/>
            <path d="M325.85 243.38c10.18-1.55 20.68 1.73 30.67-1.33 1.08-.33.62-2-.47-1.7-9.94 3-20.52-.22-30.67 1.33-1.12.17-.64 1.87.47 1.7z" transform="translate(-.31)"/>
            <path d="M420.09 238.64c8.53-1.87 17.78-.47 26.2 1.33 1.11.24 1.58-1.47.47-1.7-8.76-1.87-18.28-3.27-27.14-1.33-1.11.24-.64 1.95.47 1.7z" transform="translate(-.31)"/>
            <path d="M534.34 238.63c-9-3.05-20.41-2.06-29.37.89-1.08.35-.61 2.06.47 1.7 8.64-2.85 19.69-3.84 28.43-.89 1.08.36 1.54-1.34.47-1.7z" transform="translate(-.31)"/>
            <path d="M526.1 259.58a97.79 97.79 0 0 0-10.9 1.37c-1.11.26-.64 2 .47 1.7a93.59 93.59 0 0 1 10.43-1.3c1.12-.13 1.13-1.9 0-1.77z" transform="translate(-.31)"/>
            <path d="M521.21 303.13h6.67a.88.88 0 0 0 0-1.77h-6.67a.88.88 0 0 0 0 1.77z" transform="translate(-.31)"/>
            <path d="M534.55 280.47H531a.88.88 0 0 0 0 1.77h3.56a.88.88 0 0 0 0-1.77z" transform="translate(-.31)"/>
            <path d="M325 260.87l4-1.33c1.07-.36.61-2.07-.47-1.7l-4 1.33c-1.07.36-.61 2.06.47 1.7z" transform="translate(-.31)"/>
            <path d="M321.61 308.91a24.52 24.52 0 0 0 5.57-.48c1.11-.26.64-2-.47-1.7a22.43 22.43 0 0 1-5.1.41.88.88 0 0 0 0 1.77z" transform="translate(-.31)"/>
            <path d="M455 32.73c7.44 5.41 11.55 14 17.6 20.75.76.85 2-.41 1.25-1.25-6.18-6.87-10.36-15.5-18-21-.92-.67-1.8.86-.89 1.53z" transform="translate(-.31)"/>
            <path d="M443.1 39.52c4.5 6.62 9.84 12.58 14.81 18.85.71.89 1.95-.37 1.25-1.25-4.87-6.15-10.12-12-14.53-18.49-.64-.94-2.17-.05-1.53.89z" transform="translate(-.31)"/>
            <path d="M410.34 38.81c8 9.9 14.9 20.6 21.64 31.38.6 1 2.13.08 1.53-.89-6.83-10.91-13.82-21.72-21.92-31.74-.72-.88-2 .37-1.25 1.25z" transform="translate(-.31)"/>
            <path d="M381.31 44.86c5.47 8.12 11.43 15.89 16.89 24 .63.94 2.16.05 1.53-.89-5.47-8.12-11.43-15.89-16.89-24-.63-.94-2.16-.05-1.53.89z" transform="translate(-.31)"/>
            <path d="M344 40c5.52 11.17 13.27 21 19.12 32 .53 1 2.06.11 1.53-.89-5.85-11-13.6-20.83-19.12-32-.5-1-2-.13-1.53.89z" transform="translate(-.31)"/>
            <path d="M317.43 42.81c7.82 7.23 11.93 17.66 16.75 26.94.53 1 2.05.12 1.53-.89-4.9-9.42-9.08-19.95-17-27.3-.83-.77-2.09.48-1.25 1.25z" transform="translate(-.31)"/>
            <path d="M328 198.67c2.17 4 4.06 8 6.22 12 .55 1 2.07.11 1.53-.89-2.17-4-4.06-8.05-6.22-12-.55-1-2.07-.11-1.53.89z" transform="translate(-.31)"/>
            <path d="M339.08 194.67c4.28 8.33 9.72 15.93 15.11 23.56.65.92 2.18 0 1.53-.89-5.39-7.63-10.84-15.23-15.11-23.56-.52-1-2-.12-1.53.89z" transform="translate(-.31)"/>
            <path d="M359.08 186.22c5.39 11.35 13.18 21.24 19.56 32a.88.88 0 0 0 1.53-.89c-6.38-10.77-14.17-20.66-19.56-32-.49-1-2-.13-1.53.89z" transform="translate(-.31)"/>
            <path d="M392.42 182.67c6.29 11.88 14.65 22.52 20.45 34.67.49 1 2 .13 1.53-.89-5.8-12.16-14.16-22.8-20.45-34.67-.53-1-2.06-.11-1.53.89z" transform="translate(-.31)"/>
            <path d="M417.32 181.78A268.42 268.42 0 0 1 435.54 212c.53 1 2.05.12 1.53-.89a268.42 268.42 0 0 0-18.23-30.23c-.65-.92-2.18 0-1.53.89z" transform="translate(-.31)"/>
            <path d="M441.77 178.67c5.93 12.8 15.35 23.49 21.78 36 .52 1 2 .12 1.53-.89-6.43-12.52-15.85-23.21-21.78-36-.48-1-2-.13-1.53.89z" transform="translate(-.31)"/>
            <path d="M466.66 181.78c7.38 9.95 16.43 18.56 22.67 29.34a.88.88 0 0 0 1.53-.89c-6.24-10.79-15.29-19.39-22.67-29.34-.67-.9-2.2 0-1.53.89z" transform="translate(-.31)"/>
            <path d="M487.25 178.4c9.7 11.43 19.76 22.6 27 35.83.54 1 2.07.11 1.53-.89-7.29-13.36-17.46-24.65-27.25-36.19-.74-.87-2 .39-1.25 1.25z" transform="translate(-.31)"/>
            <path d="M54.13 27.07C45.24 41 40.89 57.26 36.7 73.07a.88.88 0 0 0 1.7.47C42.56 57.87 46.84 41.77 55.65 28c.61-1-.92-1.85-1.53-.89z" transform="translate(-.31)"/>
            <path d="M75.47 14.18c-8.69 15.87-13.19 33.54-17.88 50.89a.88.88 0 0 0 1.7.47c4.65-17.2 9.09-34.73 17.71-50.47.55-1-1-1.89-1.53-.89z" transform="translate(-.31)"/>
            <path d="M93.57 19.07C92.22 34.15 90.46 49.21 86 63.74c-.33 1.09 1.37 1.56 1.7.47 4.51-14.68 6.3-29.91 7.64-45.14.1-1.13-1.67-1.13-1.77 0z" transform="translate(-.31)"/>
            <path d="M116.27 23.73c-3 15.88-2.83 32.13-5.78 48-.21 1.11 1.5 1.59 1.7.47 3-15.88 2.83-32.13 5.78-48 .21-1.11-1.5-1.59-1.7-.47z" transform="translate(-.31)"/>
            <path d="M147.36 24.85c1.3 16.9 1.85 33.85 4 50.68.14 1.11 1.91 1.13 1.77 0-2.15-16.82-2.7-33.78-4-50.68-.09-1.13-1.85-1.14-1.77 0z" transform="translate(-.31)"/>
            <path d="M176.29 20.2c4.82 16.52 4.12 34 8 50.68.26 1.11 2 .64 1.7-.47-3.88-16.71-3.18-34.15-8-50.68a.88.88 0 0 0-1.7.47z" transform="translate(-.31)"/>
            <path d="M200.29 22.42c3.82 10 10.18 18.55 13.66 28.76 3.15 9.27 5.76 18.82 11.32 27 .64.94 2.17.05 1.53-.89-5.8-8.49-8.31-18.49-11.66-28.09S205.62 31.44 202 22c-.4-1.05-2.11-.6-1.7.47z" transform="translate(-.31)"/>
            <path d="M233.28 21.3C243 40 245.5 61.31 254.17 80.42c.47 1 2 .14 1.53-.89-8.7-19.11-11.14-40.45-20.9-59.12-.53-1-2.05-.12-1.53.89z" transform="translate(-.31)"/>
            <path d="M269.28 16.41c9.24 16 14.74 33.92 19 51.8.26 1.11 2 .64 1.7-.47-4.32-18-9.9-36.1-19.21-52.22a.88.88 0 0 0-1.53.89z" transform="translate(-.31)"/>
            <path d="M461.91 96.74c4.17 19.6 1.27 39.81 3.52 59.6l1.12-.85a61.22 61.22 0 0 0-22.45-3 99.82 99.82 0 0 0-10 .89q-2.35.32-4.68.74-1.5.27-3 .58a10.15 10.15 0 0 1-1.08-4.36c-1.32-8.58-.54-17.61-.42-26.25.12-9-.07-17.85-1.64-26.69l-.85 1.12c6.72-.09 13.46-1.25 20.15-1.87 3.69-.34 7.39-.65 11.1-.69 2.48 0 6.81-.48 8.8 1.37l1.04-1.33-.31-.22c-.94-.65-1.82.88-.89 1.53l.31.22c.83.57 1.8-.71 1.07-1.39-3.9-3.63-13-1.86-17.66-1.5-7.86.61-15.74 2.06-23.63 2.16a.9.9 0 0 0-.85 1.12c3.42 19.28-.28 38.92 2.77 58.23a.9.9 0 0 0 1.09.62c13.28-2.86 27.62-4.08 40.66.46a.89.89 0 0 0 1.12-.85c-2.27-20 .63-40.31-3.58-60.07-.24-1.16-1.95-.68-1.71.43z" transform="translate(-.31)"/>
            <path d="M427 128.91c9.76-5.36 21.32-2.78 31.91-2.65a.88.88 0 0 0 0-1.77c-11-.13-22.69-2.65-32.8 2.89-1 .55-.11 2.07.89 1.53z" transform="translate(-.31)"/>
            <path d="M373.91 96.74c4.17 19.6 1.27 39.81 3.52 59.6l1.12-.85a61.22 61.22 0 0 0-22.45-3 99.82 99.82 0 0 0-10 .89q-2.35.32-4.68.74-1.5.27-3 .58a10.15 10.15 0 0 1-1.08-4.36c-1.32-8.58-.54-17.61-.42-26.25.12-9-.07-17.85-1.64-26.69l-.85 1.12c6.72-.09 13.46-1.25 20.15-1.87 3.69-.34 7.39-.65 11.1-.69 2.48 0 6.81-.48 8.8 1.37l1.04-1.33-.31-.22c-.94-.65-1.82.88-.89 1.53l.31.22c.83.57 1.8-.71 1.07-1.39-3.9-3.63-13-1.86-17.66-1.5-7.86.61-15.74 2.06-23.63 2.16a.9.9 0 0 0-.85 1.12c3.42 19.28-.28 38.92 2.77 58.23a.9.9 0 0 0 1.09.62c13.28-2.86 27.62-4.08 40.66.46a.89.89 0 0 0 1.12-.85c-2.27-20 .63-40.31-3.58-60.07-.24-1.16-1.95-.68-1.71.43z" transform="translate(-.31)"/>
            <path d="M339 128.91c9.76-5.36 21.32-2.78 31.91-2.65a.88.88 0 0 0 0-1.77c-11-.13-22.69-2.65-32.8 2.89-1 .55-.11 2.07.89 1.53z" transform="translate(-.31)"/>
            <path d="M267.91 231.74c4.17 19.6 1.27 39.81 3.52 59.6l1.12-.85a61.22 61.22 0 0 0-22.45-3 99.82 99.82 0 0 0-10 .89q-2.35.32-4.68.74-1.5.27-3 .58a10.15 10.15 0 0 1-1.08-4.36c-1.32-8.58-.54-17.61-.42-26.25.12-9-.07-17.85-1.64-26.69l-.85 1.12c6.72-.09 13.46-1.25 20.15-1.87 3.69-.34 7.39-.65 11.1-.69 2.48 0 6.81-.48 8.8 1.37l1.07-1.39-.31-.22c-.94-.65-1.82.88-.89 1.53l.31.22c.83.57 1.8-.71 1.07-1.39-3.9-3.63-13-1.86-17.66-1.5-7.86.61-15.74 2.06-23.63 2.16a.9.9 0 0 0-.85 1.12c3.42 19.28-.28 38.92 2.77 58.23a.9.9 0 0 0 1.09.62c13.28-2.86 27.62-4.08 40.66.46a.89.89 0 0 0 1.12-.85c-2.27-20 .63-40.31-3.58-60.07-.27-1.1-1.98-.62-1.74.49z" transform="translate(-.31)"/>
            <path d="M233 263.91c9.76-5.36 21.32-2.78 31.91-2.65a.88.88 0 0 0 0-1.77c-11-.13-22.69-2.65-32.8 2.89-1 .55-.11 2.07.89 1.53z" transform="translate(-.31)"/>
            <path d="M89.91 231.74c4.17 19.6 1.27 39.81 3.52 59.6l1.12-.85a61.22 61.22 0 0 0-22.45-3 99.82 99.82 0 0 0-10 .89q-2.35.32-4.68.74-1.5.27-3 .58a10.15 10.15 0 0 1-1.08-4.36c-1.32-8.58-.54-17.61-.42-26.25.12-9-.07-17.85-1.64-26.69l-.85 1.12c6.72-.09 13.46-1.25 20.15-1.87 3.69-.34 7.39-.65 11.1-.69 2.48 0 6.81-.48 8.8 1.37l1.04-1.33-.31-.22c-.94-.65-1.82.88-.89 1.53l.31.22c.83.57 1.8-.71 1.07-1.39-3.9-3.63-13-1.86-17.66-1.5-7.86.61-15.74 2.06-23.63 2.16a.9.9 0 0 0-.85 1.12c3.42 19.28-.28 38.92 2.77 58.23a.9.9 0 0 0 1.09.62c13.28-2.86 27.62-4.08 40.66.46a.89.89 0 0 0 1.12-.85c-2.27-20 .63-40.31-3.58-60.07-.24-1.16-1.95-.68-1.71.43z" transform="translate(-.31)"/>
            <path d="M55 263.91c9.76-5.36 21.32-2.78 31.91-2.65a.88.88 0 0 0 0-1.77c-11-.13-22.69-2.65-32.8 2.89-1 .55-.11 2.07.89 1.53z" transform="translate(-.31)"/>
            <path d="M89.91 119.74c4.17 19.6 1.27 39.81 3.52 59.6l1.12-.85a61.22 61.22 0 0 0-22.45-3 99.82 99.82 0 0 0-10 .89q-2.35.32-4.68.74-1.5.27-3 .58a10.15 10.15 0 0 1-1.08-4.36c-1.32-8.58-.54-17.61-.42-26.25.12-9-.07-17.85-1.64-26.69l-.85 1.12c6.72-.09 13.46-1.25 20.15-1.87 3.69-.34 7.39-.65 11.1-.69 2.48 0 6.81-.48 8.8 1.37l1.04-1.33-.31-.22c-.94-.65-1.82.88-.89 1.53l.31.22c.83.57 1.8-.71 1.07-1.39-3.9-3.63-13-1.86-17.66-1.5-7.86.61-15.74 2.06-23.63 2.16a.9.9 0 0 0-.85 1.12c3.42 19.28-.28 38.92 2.77 58.23a.9.9 0 0 0 1.09.62c13.28-2.86 27.62-4.08 40.66.46a.89.89 0 0 0 1.12-.85c-2.27-20 .63-40.31-3.58-60.07-.24-1.16-1.95-.68-1.71.43z" transform="translate(-.31)"/>
            <path d="M55 151.91c9.76-5.36 21.32-2.78 31.91-2.65a.88.88 0 0 0 0-1.77c-11-.13-22.69-2.65-32.8 2.89-1 .55-.11 2.07.89 1.53z" transform="translate(-.31)"/>
            <path d="M256.91 119.74c4.17 19.6 1.27 39.81 3.52 59.6l1.12-.85a61.22 61.22 0 0 0-22.45-3 99.82 99.82 0 0 0-10 .89q-2.35.32-4.68.74-1.5.27-3 .58a10.15 10.15 0 0 1-1.08-4.36c-1.32-8.58-.54-17.61-.42-26.25.12-9-.07-17.85-1.64-26.69l-.85 1.12c6.72-.09 13.46-1.25 20.15-1.87 3.69-.34 7.39-.65 11.1-.69 2.48 0 6.81-.48 8.8 1.37l1.07-1.39-.31-.22c-.94-.65-1.82.88-.89 1.53l.31.22c.83.57 1.8-.71 1.07-1.39-3.9-3.63-13-1.86-17.66-1.5-7.86.61-15.74 2.06-23.63 2.16a.9.9 0 0 0-.85 1.12c3.42 19.28-.28 38.92 2.77 58.23a.9.9 0 0 0 1.09.62c13.28-2.86 27.62-4.08 40.66.46a.89.89 0 0 0 1.12-.85c-2.27-20 .63-40.31-3.58-60.07-.27-1.1-1.98-.62-1.74.49z" transform="translate(-.31)"/>
            <path d="M222 151.91c9.76-5.36 21.32-2.78 31.91-2.65a.88.88 0 0 0 0-1.77c-11-.13-22.69-2.65-32.8 2.89-1 .55-.11 2.07.89 1.53z" transform="translate(-.31)"/>
            <path d="M169.8 119.74c4.17 19.6 1.27 39.81 3.52 59.6l1.12-.85a61.22 61.22 0 0 0-22.45-3 99.82 99.82 0 0 0-10 .89q-2.35.32-4.68.74-1.5.27-3 .58a10.14 10.14 0 0 1-1.08-4.36c-1.32-8.58-.54-17.61-.42-26.25.12-9-.07-17.85-1.64-26.69l-.85 1.12c6.72-.09 13.46-1.25 20.15-1.87 3.69-.34 7.39-.65 11.1-.69 2.48 0 6.81-.48 8.8 1.37l1.07-1.39-.31-.22c-.94-.65-1.82.88-.89 1.53l.31.22c.83.57 1.8-.71 1.07-1.39-3.9-3.63-13-1.86-17.66-1.5-7.86.61-15.74 2.06-23.63 2.16a.9.9 0 0 0-.85 1.12c3.42 19.28-.28 38.92 2.77 58.23a.9.9 0 0 0 1.09.62c13.28-2.86 27.62-4.08 40.66.46a.89.89 0 0 0 1.12-.85c-2.27-20 .63-40.31-3.58-60.07-.28-1.1-1.98-.62-1.74.49z" transform="translate(-.31)"/>
            <path d="M134.89 151.91c9.76-5.36 21.32-2.78 31.91-2.65a.88.88 0 0 0 0-1.77c-11-.13-22.69-2.65-32.8 2.89-1 .55-.11 2.07.89 1.53z" transform="translate(-.31)"/>
            <path d="M445.75 221.32c-27.2 1.36-54.4 5.44-81.6 6.8-15 .68-51.75-1.12-51.4 2.72v7c-.35-3.84 36.44-2 51.4-2.72 27.2-1.36 54.4-5.44 81.6-6.8 36-1.36 60.52 2 95.88-1.36v-7c-35.36 3.4-59.84.04-95.88 1.36z" transform="translate(-.31)"/>
            <path d="M493.23 91a45.68 45.68 0 0 0-.09-8.06c-34.83-2.68-58-.47-92.87 0-21.88 0-43.31-.89-64.74.45-8 0-15.12-1.33-22.67.42l1.24 3.59z" transform="translate(-.31)"/>
            <path d="M491.24 244.1c-7.84.46-15.52-1.08-23.51-.46-8.3.61-16.44.61-24.74 1.08-7.84.46-15.52 1.38-23.36 1.23-8.91-.31-17.67-1.69-26.59-.92-5.53.61-10.91 2.61-16.6 3.07-3.38.31-6.61.77-10 .92-4.61.31-10.3-1.08-13.06 2.77a208.23 208.23 0 0 1-14.29 16.6c-1.54 1.69-5.07 4.15-5.69 6.3-.31.77.15 2.61.15 3.69 0 3.23.15 6.46.31 9.68.46 9.83 1.84 19.21 3.23 28.89.77 5.38 1.38 11.06 2 16.6 0 1.23-.44 2 0 3.26h4l-3.11-58 20.2-24.67 132.69-6.47a11.08 11.08 0 0 1-1.63-3.57z" transform="translate(-.31)"/>
            <path d="M494.41 247.63l-1.53.07c.52.56.94.22 1.53-.07z" transform="translate(-.31)"/>
            <path d="M296.57 87.11C276 87.56 257 90 236.5 90c-27.68.45-55.81-1.79-83.5-2.68-28.13-.89-55.37-2.23-83.5-.45-22.31 1.34-29.2-5.49-51.06.31v7c21.88-5.8 28.76 1 51.09-.31 28.13-1.79 55.37-.45 83.5.45 27.68.89 55.81 3.13 83.5 2.68 20.47 0 39.47-2.44 60.04-2.89h6.32v-7c-4.79-.04-1.4 0-6.32 0z" transform="translate(-.31)"/>
            <path d="M422.4 96.57c3.7 19.41-.46 39.29 2.77 58.23h3.23l-.08-53.25L463.08 99l-.31-3.59.31.22c-3.7-4.14-32.82.94-40.68.94z" transform="translate(-.31)"/>
            <path d="M334.4 96.57c3.7 19.41-.46 39.29 2.77 58.23h3.23l-.08-53.25L375.08 99l-.31-3.59.31.22c-3.7-4.14-32.82.94-40.68.94z" transform="translate(-.31)"/>
            <path d="M228.4 231.57c3.7 19.41-.46 39.29 2.77 58.23h3.23l-.08-53.25 34.76-2.55-.31-3.59.31.22c-3.7-4.14-32.82.94-40.68.94z" transform="translate(-.31)"/>
            <path d="M50.4 231.57c3.7 19.41-.46 39.29 2.77 58.23h3.23l-.08-53.25L91.08 234l-.31-3.59.31.22c-3.7-4.14-32.82.94-40.68.94z" transform="translate(-.31)"/>
            <path d="M50.4 119.57c3.7 19.41-.46 39.29 2.77 58.23h3.23l-.08-53.25L91.08 122l-.31-3.59.31.22c-3.7-4.14-32.82.94-40.68.94z" transform="translate(-.31)"/>
            <path d="M258.08 122l-.31-3.59.31.22c-3.7-4.16-32.81.92-40.67.92 3.7 19.41-.46 39.29 2.77 58.23h3.23l-.08-53.25z" transform="translate(-.31)"/>
            <path d="M136.21 124.56L171 122l-.31-3.59.31.22c-3.7-4.16-32.81.92-40.67.92 3.7 19.41-.46 39.29 2.77 58.23h3.23z" transform="translate(-.31)"/>
            <path d="M135.5 231.67c-.46 28.23 9.68 57.87 5.58 86.09h4.34v-79.31h41.51v-6.78c-16.37 2.27-34.58.45-51.43 0z" transform="translate(-.31)"/>
            <path d="M141.94 319c3.16-23.52-2.65-46.66-4.82-70-.28-3-.51-6.07-.63-9.11-.1-2.48-1.06-5.66 1.74-6.27 2.46-.53 5.73.23 8.27.34 3.72.17 7.45.35 11.17.48 5.56.2 11.14.3 16.7.12 3-.1 6.06-.62 9-.6.79 0 2.05-.6 2.71.19.35.43.17 4 .2 4.61 1 21.45 3.15 42.86 3.39 64.34 0 3.81 1 9.48-.2 13.11-.58 1.75 1.48-.22.17.48a6.22 6.22 0 0 1-2.05 0l-15 .36-31.52.75a.88.88 0 0 0 0 1.77l49.23-1.18a.9.9 0 0 0 .88-.88c1.5-28.3-2.34-56.66-3.37-84.91 0-.43-.39-.95-.88-.88-17.08 2.22-34.3.51-51.44 0a.9.9 0 0 0-.88.88c-.24 28.76 9.49 57.05 5.61 85.86-.14 1.19 1.57 1.67 1.72.54z" transform="translate(-.31)"/>
        </g>
    </g>
</svg>
