<svg xmlns="http://www.w3.org/2000/svg" viewBox="0 0 503.11 570.95">
    <defs>
        <style>
            .cls-1{fill:#fff}
        </style>
    </defs>
    <title>
        house_Asset 28
    </title>
    <g id="Layer_2" data-name="Layer 2">
        <g id="Layer_1-2" data-name="Layer 1">
            <path class="cls-1" d="M466.74 430.64c3.29 43.67 9 91.7 3.73 135-36.71.17-75.08-.58-112.68.4-43.59 1.59-88.22 7.4-132.34 1.28-47.46-8-92.94-2.19-140.72-2.48-11.08-.46-47.22 6.55-56.3-.65-5.78-4.51-4.29-19.81-4-27.48q-.21-25.62-.41-51.23c-1.06-15.41 2.35-35.75-2.12-51.3l.89-.82c3.3 2.7 8.52.36 11.86 2.2s4 6.14 7.35 8c10 6.39 27.54 14.81 39.47 15.31 10.22.43 21.51-4.22 31-5.53 13.7-1.13 27.26 1.14 40.93.86 15.37-.21 31.63-1.23 47-2.3 12.85-1.17 25.1-8.34 37-7.84 10.26-.42 17.75 4.16 28.89 2.92s22.22-.78 34.15-.28c10.22.43 20.48 0 30.71.43 12-.35 22.83 5.22 34.86 3.17 21.44-2.52 36.21-8.73 58.29-6.09 19.52 2.52 24.92-4.08 40.61-12z"/>
            <path class="cls-1" d="M328.33 483.42c-.57-8.31 1-17.93-.44-26.4-8.82-.2-17.66.07-26.48-.3-11.93-.5-23-1-34.15.28s-18.64-3.34-28.89-2.92c-11.93-.5-24.18 6.67-37 7.84-11.3.78-23.06 1.53-34.59 2l-1.55 60.88c11.35 2.28 26-1.92 38.6-1.39 16.83.71 33.64 2 50.52 1.52 25.93-.72 51.83-.84 77.13-1 2.31-12.58-2.48-27.84-3.15-40.51z"/>
            <path class="cls-1" d="M272.11 1.12C261.78 3.24 250.71 2.78 241 9.2 227.88 18 215.49 28.62 206.43 41c-27.17 37.27-46.14 82.56-65.81 124.41-9.38 20.09-27.24 39-40 58.07-9.16 15-15 31-23.3 46.82-9.32 20.13-25.24 32.26-36.25 50.58-7.39 13.35-13.92 26.73-20.49 41-4.69 10-11 19.17-16.62 30-7.49 15.9-.71 17 9 29.4 4.86 6.18 4.76 8.73 11.43 12.43 3.3 2.7 8.52.36 11.86 2.2s4 6.14 7.35 8c10 6.39 27.54 14.81 39.47 15.31 10.22.43 21.51-4.22 31-5.53 13.7-1.13 27.26 1.14 40.93.86 15.37-.21 31.63-1.23 47-2.3 12.85-1.17 25.1-8.34 37-7.84 10.26-.42 17.75 4.16 28.89 2.92s22.22-.78 34.15-.28c10.22.43 20.48 0 30.71.43 12-.35 22.83 5.22 34.86 3.17 21.44-2.52 36.21-8.73 58.29-6.09 19.52 2.52 24.92-4.08 40.61-12 9.59-4.72 23.22-4.15 30.46-14.09 8.06-9 5.44-27.94.79-39.23-13.13-33-36.62-63-51.49-95.19-10.08-24.32-21.25-42.71-37.47-63-17.07-20.34-22.89-44.49-36.48-66.39-11.18-18.39-16.36-37.39-25.79-56.56C338 79 325 62.23 316.44 43.09 304.77 16.14 293.09 9.68 267 .9"/>
            <path class="cls-1" d="M249.66 55.1c-11.37.66-53.19 66.51-61 81.53-18.59 34.41-38 67-55.69 101.44-12.77 24.73-32.74 49.16-41.08 75.88 19.37 11.64 41.77 15.29 64.37 14.43 27.1-.67 54.12.46 82.12-.17 39.75-1 76.76-1.29 116.32 2.17 23.38 1.88 49.77-3.33 71.28.28-8.52-12.09-12.34-28.49-19-42.31-6.6-14.71-17-26-25.44-39C367.93 229 361.63 207 352.63 185c-9.75-25.67-22.24-50.56-34.74-75.45-10.89-20.31-22.28-49.66-45.4-57.85-8-3-18-4.52-22.83 3.39z"/>
            <path class="cls-1" d="M280 223.65c-1-30.5 3.5-61 1-91a243.31 243.31 0 0 1-27 .5c-5 0-17-3-18.5-1.5l-.5-.5c0 30.5-5 60.5-4 91 15.48 3 33.5-.15 49 1.5z"/>
            <path class="cls-1" d="M331.48 234c-37.29-1.56-44.25-2.81-81.54-4.37-32.29-2.21-41.17 5.91-73.46 3.7 1.33 20.33 3.33 40.33 3.33 60.67 0 11.67-1.33 23.33.33 34.67l155.33-.33c-3.33-29.69-3.99-63.34-3.99-94.34z"/>
            <path d="M465.86 430.64c3.16 41.56 8.21 83.43 4.73 125.14-.17 2 .05 5.3-.69 7.19-1 2.57-3.54 1.81-6.09 1.81H447.5c-11 0-22-.09-33-.12-22.09-.05-44.23-.15-66.3.92-21.71 1-43.39 2.83-65.13 3.41a398.81 398.81 0 0 1-65.37-3.73C174.5 559.34 131 564 87.67 564c-12.31 0-24.47 1.94-36.76 2.47-6 .26-12.66.61-18.46-1.25-7.54-2.42-7.55-11.4-7.52-18.09.1-19.55.18-39.1 0-58.66-.07-9 0-17.89.16-26.87.1-4.45.14-8.9-.13-13.34a85.1 85.1 0 0 0-.63-6.56c-.2-1.44-1.58-5-1.18-6.25.89-2.91-.81-.15.36-.56.21-.08 1.26.45 1.49.52a17.43 17.43 0 0 0 4.42.29c3.46.13 5.69.84 7.81 3.84a20 20 0 0 0 3.12 4c5.56 4.73 13.54 7.92 20.2 10.7 6.43 2.68 13.3 5.09 20.31 5.53 9 .56 17.75-2.58 26.41-4.51 10.61-2.37 21.7-1.06 32.45-.47a320.06 320.06 0 0 0 32.4-.24c10-.47 20.25-.63 30.19-1.92 9.45-1.23 18.18-5.37 27.53-7s17.65.82 26.7 2.09c9.62 1.35 19.69-.67 29.4-.52 10.61.16 21.19.68 31.81.7 5.07 0 10.15 0 15.22.21 5.81.2 11.4 1.51 17.1 2.52 18.6 3.29 36.75-4 55.18-5.69 9.47-.85 18.62 1 28 .78a41.2 41.2 0 0 0 18.07-5c5.3-2.73 11.63-5.37 16-9.4.84-.77-.41-2-1.25-1.25-3.93 3.61-9.85 6-14.58 8.56-5.54 3-11.2 5-17.53 5.28-7.39.31-14.72-1.28-22.14-1.13A128 128 0 0 0 391.6 445c-7.38 1.34-14.73 2.93-22.16 4-9.34 1.3-17.42 0-26.61-1.63-15.7-2.79-32.33-1.18-48.23-1.78a205 205 0 0 0-25.47.24c-7.87.69-14.64-.49-22.35-1.86-14.35-2.55-26.23 3-39.94 6-8.18 1.81-16.86 1.78-25.2 2.26s-17 .88-25.48 1c-16.25.32-33.32-3.34-49.33.23-8.5 1.9-17.1 5-25.94 4.45-7.92-.5-15.81-3.59-23-6.83-6.35-2.88-14.72-6.17-18.82-12-1.18-1.68-2.29-3.46-4.2-4.4-3.72-1.84-8 .16-11.65-2.11a.9.9 0 0 0-1.07.14l-.89.82a.88.88 0 0 0-.23.86c2.53 9.4 2.48 19.16 2.23 28.82-.24 9.08-.17 18.09-.1 27.17.16 19.33-.23 38.68 0 58 .05 5.06.15 11.95 4 15.82 2.72 2.8 7.14 3.42 10.84 3.8 12.84 1.35 25.93-.9 38.72-1.94 6.9-.56 13.83-.3 20.75-.4 10.64-.14 21.27-.5 31.9-.86 21.7-.72 43.45-1.41 65.14-.07 21.49 1.33 42.56 5.51 64.13 6.07 21.8.57 43.59-.77 65.34-2.1 48.83-3 97.63-2 146.51-2.19a.91.91 0 0 0 .88-.88c5.26-44.91-.32-90.18-3.73-135-.1-1.12-1.87-1.13-1.78.01z"/>
            <path d="M271.88.26c-6.28 1.21-12.71 1.61-18.93 3.08s-11.36 4.31-16.55 8c-10.15 7.22-19.71 15.44-27.57 25.14-16.48 20.34-28.91 44.41-40.46 67.78-6.29 12.73-12.25 25.62-18.2 38.51-5.5 11.91-10.53 24.19-17.57 35.3-7.18 11.33-15.69 21.73-23.74 32.44a194.29 194.29 0 0 0-20.95 35.64C82 259 76.46 272.41 68.27 284c-7 9.88-15.44 18.59-22.57 28.35-8 10.91-13.7 23.47-19.55 35.6-6.07 12.58-12.47 24.65-19.34 36.8-4.22 7.47-10 16.93-4.58 25.19 2.28 3.45 5.44 6.3 8.09 9.44 3.17 3.76 5.51 8.57 9.13 11.92A16 16 0 0 0 29.6 436c1.7.08 3.59-.27 5.24.28 2.45.81 3.3 2.72 4.66 4.57a15.6 15.6 0 0 0 3.65 3.8c8.54 6 19.18 10.63 29.19 13.5 11.93 3.42 22.36.77 34.14-2.05 14.7-3.53 29.67-.81 44.58-.67 14.49.14 29-.86 43.49-1.81a90.39 90.39 0 0 0 17.63-2.43c6.43-1.71 12.69-4.16 19.26-5.32 13-2.3 25.35 3.27 38.35 2.14 14.6-1.27 29.19.07 43.81.13 7 0 14-.05 21 .21s13.8 2.17 20.77 3.11c12.5 1.7 25.3-2 37.53-4.25a132.88 132.88 0 0 1 18.9-2.35c7.28-.28 14.38 1.06 21.62 1.11 9.68.06 17.45-3.76 25.7-8.37 4.8-2.69 9.53-5.23 14.85-6.77 4.73-1.37 9.61-2.35 14.13-4.36a24.56 24.56 0 0 0 14.58-19.2c1.57-10.4-1-21.08-5-30.65A296.68 296.68 0 0 0 479.41 341c-6.91-11.86-14.2-23.49-21-35.44-6.65-11.75-11.88-24-17.72-36.13a238.51 238.51 0 0 0-19.36-33.1c-7.67-11-16.74-20.94-23.37-32.64-6.32-11.15-11.11-23.06-16.74-34.55-6-12.26-13.46-23.63-18.88-36.21-5.53-12.84-10.5-25.86-16.54-38.48-6.21-13-14.25-24.9-21.27-37.4-9.51-16.93-15-35.81-32.5-46.44-7.68-4.71-16.31-7.69-24.79-10.56-1.08-.37-1.54 1.34-.47 1.7 9 3 18.17 6.21 26.15 11.47 7.3 4.81 12.85 11.45 17.17 19 6 10.4 10.41 21.54 16.51 31.91 6.69 11.36 13.56 22.51 19.2 34.45 5.72 12.1 10.38 24.63 15.75 36.88 5.25 12 12.41 22.83 18.16 34.55 5.64 11.49 10.42 23.4 16.74 34.55s14.63 20.34 21.94 30.61A239.48 239.48 0 0 1 437 265.81c5.76 11.37 10.4 23.2 16.49 34.42 12.48 23 27.5 44.56 38.66 68.26 5.17 11 9.69 22.36 9.13 34.74-.59 12.77-8.28 20.35-20.14 23.77-4.19 1.22-8.49 2.09-12.55 3.7-4.83 1.91-9.29 4.76-13.83 7.26a49.28 49.28 0 0 1-12.94 5.38c-5.95 1.32-11.78.65-17.76.08-11.76-1.12-23.27.44-34.8 2.64-6.06 1.16-12.12 2.38-18.23 3.22a67.59 67.59 0 0 1-23.17-1c-13.24-2.56-26.6-1.79-40-2-6.45-.11-12.89-.51-19.34-.63-7.51-.14-14.82.5-22.3.89-11.35.6-21.93-4.3-33.42-2.7-5.54.77-10.85 2.59-16.18 4.2a89.33 89.33 0 0 1-20.17 3.66c-13.8.92-27.62 1.75-41.46 1.92s-28.17-2.62-41.99-.69c-12.78 1.81-24.35 7.36-37.46 4.24a97.84 97.84 0 0 1-30.51-13.41c-3.45-2.29-4.83-6.81-8.47-8.68-1.8-.92-3.62-.79-5.57-.87a14.91 14.91 0 0 1-10.33-4.15c-3.27-3-5.33-7.29-8.13-10.71-3-3.68-6.94-7-9.34-11.1-3-5.2-.91-10.93 1.5-15.95 2.91-6.08 6.62-11.81 10-17.63 6.82-11.76 12.07-24.33 18.2-36.46s12.44-23.1 21-33.5c7.09-8.61 14.57-17 20.28-26.58C81 266.64 86 254.07 91.8 242a189.49 189.49 0 0 1 20.7-33.4c7.74-10.18 15.79-20.19 22.53-31.08s11.66-23 17-34.66c11-23.88 22.11-47.79 35.27-70.58a305.31 305.31 0 0 1 20.84-32.12c8.08-10.64 18.26-19.58 29.12-27.29 5.56-3.95 11-6.76 17.7-8.16 5.74-1.19 11.61-1.62 17.36-2.74 1.12-.22.64-1.92-.47-1.7z"/>
            <path d="M249.66 54.16c-3.46.36-6.4 3.37-8.75 5.66a139.48 139.48 0 0 0-12.86 15c-10.21 13.28-19.53 27.27-28.45 41.45-9.28 14.75-17.34 30.14-25.84 45.35-14.21 25.44-28.49 50.82-42 76.64-13.25 25.31-32 47.88-40.8 75.38a1 1 0 0 0 .43 1.05c17.06 10 36.49 14.34 56.16 14.66 22.49.36 45.06-.14 67.56-.07 23 .06 46-.89 69-.88 23.23 0 46.41.9 69.57 2.77 24 1.94 48.17-3.42 72 .33.72.11 1.56-.63 1.05-1.37-7.18-10.52-10.81-22.78-15.56-34.47A144.37 144.37 0 0 0 393.74 265c-7.51-10.34-14.88-20.57-20.6-32-6.12-12.28-10.71-25.23-15.61-38-9.64-25.17-20.72-49.56-32.74-73.67-8.88-17.82-17.07-37.26-29.46-53-6-7.65-13.38-14-22.59-17.44-8.27-3.07-18.26-4.41-23.89 3.82-.68 1 .94 1.93 1.61.94 6.48-9.47 20.46-4.55 28.48.2 8.19 4.85 14.47 12.37 19.66 20.22 11.13 16.85 19.55 36 28.46 54 11.48 23.3 21.72 47 30.91 71.31 4.05 10.71 8.1 21.46 13.16 31.75 5.41 11 12.28 20.91 19.49 30.78 7.83 10.71 14.48 21.56 19.39 33.93 4.51 11.36 8.17 23.17 15.12 33.36l1.05-1.37c-22.58-3.55-45.4 1.11-68.08-.09-25-1.31-49.86-3.08-75-3.08-25.88 0-51.74 1-77.62.83-12.34-.09-24.68-.26-37-.17-11.6.09-23.16.74-34.71-.58a105.33 105.33 0 0 1-35.42-10.2c-2.88-1.45-5.19-1.91-4.59-5.41.44-2.56 2-5.26 3-7.63a175.85 175.85 0 0 1 8.24-16.64c5.46-9.78 11.55-19.18 17.43-28.71 6-9.75 11.32-19.79 16.66-29.91 12-22.68 24.73-44.93 37.22-67.32 7.3-13.08 14.19-26.37 22.06-39.12 8.43-13.65 17.29-27.07 26.79-40a204.76 204.76 0 0 1 14.17-17.66c2.48-2.69 6.35-7.71 10.33-8.12 1.18-.11 1.19-2.02 0-1.86z"/>
            <path d="M152.8 226.45c16.57.59 33-1.36 49.5-2.68 17.21-1.38 34.18-.64 51.4.13 34.17 1.52 68.39 2.85 102.57.84 1.11-.07 1.12-1.81 0-1.74-34.18 2-68.4.69-102.57-.84-16.89-.75-33.57-1.53-50.45-.2s-33.55 3.36-50.44 2.76c-1.12 0-1.12 1.7 0 1.74z"/>
            <path d="M214.66 120.84c16.23.78 32.27 4.19 48.54 4.37s32.24-2.39 48.41-1.11c1 .08 1-1.55 0-1.63-16.17-1.28-32.25 1.32-48.41 1.11s-32.3-3.59-48.54-4.37c-1-.05-1 1.58 0 1.63z"/>
            <path d="M210.27 127.83c16.28 5.66 33.93 1.41 50.72 3.08 18.31 1.82 36.63-.09 55 .57 1.05 0 1-1.59 0-1.63-17.75-.64-35.54 1.34-53.26-.39-17.1-1.68-35.49 2.54-52-3.2-1-.35-1.42 1.23-.43 1.57z"/>
            <path d="M124 276.83c1.55 8-.07 16.12-.87 24.07-.6 6-1.12 12.47 1.76 18 .53 1 2.05.12 1.53-.89-3.34-6.42-1.84-14.53-1-21.4s1.64-13.53.33-20.24c-.22-1.12-1.92-.64-1.7.47z"/>
            <path d="M135.73 260.87c-.82 18.25-3.21 36.62-.55 54.83.16 1.12 1.87.64 1.7-.47-2.63-18-.2-36.29.61-54.36.05-1.14-1.72-1.13-1.77 0z"/>
            <path d="M148.34 245.18c-.55 11.51-2.38 22.91-3.2 34.4-.66 9.21-1.46 19.65 2.42 28.31.46 1 2 .14 1.53-.89-4.09-9.13-2.75-20.67-1.95-30.34.88-10.5 2.47-20.95 3-31.48.05-1.14-1.71-1.13-1.77 0z"/>
            <path d="M159.56 242.24c-1 23-4.56 46.31-1.16 69.32.17 1.12 1.87.64 1.7-.47-3.37-22.82.2-46 1.22-68.85.05-1.14-1.72-1.13-1.77 0z"/>
            <path d="M358.14 242.86c4 22 .2 44.71 5.87 66.48a.88.88 0 0 0 1.7-.47c-5.67-21.76-1.83-44.5-5.87-66.48-.21-1.12-1.91-.64-1.7.47z"/>
            <path d="M368.76 260.4c1.06 16.46-.51 34.07 4.78 49.94.36 1.07 2.06.61 1.7-.47-5.23-15.71-3.66-33.16-4.71-49.47-.07-1.13-1.84-1.14-1.77 0z"/>
            <path d="M383.66 271.27a249.7 249.7 0 0 0 5.06 43.12c.23 1.11 1.93.64 1.7-.47a246.91 246.91 0 0 1-5-42.65.88.88 0 0 0-1.77 0z"/>
            <path d="M393.84 294.12c2.21 7.7 4.38 15.4 5.85 23.29.21 1.12 1.91.64 1.7-.47-1.47-7.88-3.64-15.59-5.85-23.29a.88.88 0 0 0-1.7.47z"/>
            <path d="M165.64 200.05c1.26 6.22-.57 12.83 1.77 18.85.41 1 2.12.59 1.7-.47-2.32-6-.51-12.65-1.77-18.85-.23-1.11-1.93-.64-1.7.47z"/>
            <path d="M178.18 185c1.11 9.13.15 18.17-.29 27.3-.05 1.14 1.71 1.13 1.77 0 .44-9.13 1.4-18.17.29-27.3-.14-1.11-1.9-1.13-1.77 0z"/>
            <path d="M187.16 174.27c.29 7.49.33 15 .79 22.46.32 5.25.27 11.77 2.84 16.54.54 1 2.07.11 1.53-.89-2.78-5.17-2.45-12.58-2.74-18.28-.33-6.61-.39-13.22-.65-19.83 0-1.13-1.81-1.14-1.77 0z"/>
            <path d="M199.31 149.17c-.36 10.8.6 21.58 1.13 32.35.44 9 .28 18 1.55 26.88.16 1.12 1.86.64 1.7-.47-1.34-9.37-1.14-18.93-1.58-28.37-.47-10.14-1.38-20.24-1-30.39 0-1.14-1.73-1.14-1.77 0z"/>
            <path d="M211.94 153.11c-1.62 20.23 0 40.51 1.72 60.67.1 1.12 1.87 1.13 1.77 0-1.77-20.16-3.35-40.44-1.72-60.67.09-1.13-1.68-1.13-1.77 0z"/>
            <path d="M300.69 153.42c1.81 19.21-1.12 40.75 7.06 58.77.47 1 2 .14 1.53-.89-8-17.67-5-39-6.82-57.88-.11-1.12-1.87-1.13-1.77 0z"/>
            <path d="M315.89 157.47c-.46 11.06-.8 22.14-.41 33.2a112.56 112.56 0 0 0 1.41 15.86c.52 2.93 1.16 7 3.68 8.94.88.7 2.14-.55 1.25-1.25-2.65-2.08-3.05-6.84-3.51-9.95a137.63 137.63 0 0 1-1.16-17.1c-.21-9.9.09-19.8.51-29.69 0-1.14-1.72-1.13-1.77 0z"/>
            <path d="M327.38 169.28c1.43 10.59 2.23 21.27 3.53 31.88.57 4.66 1.12 9.36 2 14 .29 1.42.53 4.89 2.31 5.42a.88.88 0 0 0 .47-1.7c-.77-.23-1.57-6.95-1.75-8.07-.83-5.21-1.43-10.46-2-15.7-1-8.75-1.7-17.54-2.88-26.27-.15-1.12-1.85-.64-1.7.47z"/>
            <path d="M339.31 190.26c1.34 9.22 3.48 18.3 4.82 27.51.16 1.12 1.87.64 1.7-.47-1.34-9.22-3.48-18.3-4.82-27.51-.16-1.12-1.87-.64-1.7.47z"/>
            <path d="M232.1 103.19c1.6 3.76 2.19 7.85 2.82 11.86.18 1.12 1.88.64 1.7-.47a51.17 51.17 0 0 0-3-12.28c-.44-1-2-.14-1.53.89z"/>
            <path d="M244.16 97.28c-.17 5.41.34 10.81.17 16.22 0 1.14 1.73 1.14 1.77 0 .17-5.41-.34-10.81-.17-16.22 0-1.14-1.73-1.14-1.77 0z"/>
            <path d="M255.17 79c.44 10.15.14 20.39 3 30.23a.88.88 0 0 0 1.7-.47C257.06 99 257.37 89 256.93 79c0-1.13-1.82-1.14-1.77 0z"/>
            <path d="M263.83 75.91c1.12 14.36 3.12 28.62 5 42.88.15 1.11 1.92 1.13 1.77 0-1.91-14.27-3.91-28.53-5-42.88-.09-1.13-1.86-1.14-1.77 0z"/>
            <path d="M277.53 75.87c2.08 11.41 3.31 23 5.39 34.37.2 1.12 1.91.64 1.7-.47-2.08-11.41-3.31-23-5.39-34.37-.2-1.12-1.91-.64-1.7.47z"/>
            <path d="M286.54 84.78c1.36 8.66 2.78 17.3 4.89 25.81a.88.88 0 0 0 1.7-.47c-2.11-8.51-3.53-17.15-4.89-25.81-.18-1.12-1.88-.64-1.7.47z"/>
            <path d="M300.24 104.13c.79 1.94.66 4.1 1.45 6 .42 1 2.13.58 1.7-.47-.79-1.93-.66-4.1-1.45-6-.42-1-2.13-.58-1.7.47z"/>
            <path d="M164.53 456.13c-.8.46 0 6.33 0 7.41 0 2.35-.11 4.7-.17 7.06-.26 10.21-.34 20.42-.55 30.63a574.36 574.36 0 0 0 1.53 60.83c.1 1.12 1.86 1.13 1.77 0-2.09-24.45-1.77-48.9-1.25-73.41.18-8.71.51-17.45.44-26.16 0-1.05.45-9.67-2.67-7.88a.88.88 0 0 0 .89 1.53z"/>
            <path d="M250.86 448.44c7.27 24.41 1.1 50.24 6.49 74.95.24 1.11 1.95.64 1.7-.47-5.39-24.7.78-50.52-6.49-74.95a.88.88 0 0 0-1.7.47z"/>
            <path d="M39.52 461.86c4.43 24.93-1.11 50.66 4.06 75.45.23 1.11 1.94.64 1.7-.47-5.17-24.77.37-50.52-4.06-75.45-.2-1.12-1.9-.64-1.7.47z"/>
            <path d="M49.43 468.67c.31 14.68.77 29.36 1.56 44q.58 10.68 1.41 21.35c.53 6.81 2.13 14.11 1.85 20.92 0 1.14 1.72 1.13 1.77 0l.07-1.77c0-1.14-1.72-1.13-1.77 0l-.08 1.83H56c.27-6.47-1.26-13.47-1.77-19.95q-.89-11.15-1.48-22.32c-.79-14.66-1.25-29.34-1.56-44a.88.88 0 0 0-1.77 0z"/>
            <path d="M63.31 468.88c6 28.26-1.63 57.24 3 85.64.18 1.12 1.89.64 1.7-.47-4.66-28.4 2.94-57.37-3-85.64-.23-1.11-1.94-.64-1.7.47z"/>
            <path d="M77 471.63c.77 23.08.46 46.17-.49 69.24 0 1.14 1.72 1.13 1.77 0 1-23.07 1.27-46.15.49-69.24 0-1.13-1.81-1.14-1.77 0z"/>
            <path d="M181.13 531.63c2.06 7 2.46 14.29 4.53 21.27a.88.88 0 0 0 1.7-.47c-2.06-7-2.46-14.29-4.53-21.27a.88.88 0 0 0-1.7.47z"/>
            <path d="M192.54 531.28c.79 8.74.6 17.53 2 26.21.17 1.12 1.88.64 1.7-.47-1.32-8.53-1.12-17.17-1.89-25.74-.1-1.12-1.87-1.13-1.77 0z"/>
            <path d="M208.25 530.13a97.94 97.94 0 0 0 3 29.27.88.88 0 0 0 1.7-.47 96.22 96.22 0 0 1-3-28.8c0-1.14-1.73-1.14-1.77 0z"/>
            <path d="M224.46 531.41c.75 9.14.6 18.32 1.9 27.41.16 1.12 1.86.64 1.7-.47-1.28-8.93-1.1-18-1.84-26.94-.09-1.13-1.86-1.14-1.77 0z"/>
            <path d="M243.17 530.39c.19 7.76-.41 15.46.88 23.16.19 1.12 1.89.64 1.7-.47-1.26-7.53-.62-15.1-.81-22.69a.88.88 0 0 0-1.77 0z"/>
            <path d="M259.88 534.1c.28 7.86.6 15.72 1.42 23.55.12 1.12 1.89 1.13 1.77 0-.83-7.83-1.15-15.68-1.42-23.55 0-1.13-1.81-1.14-1.77 0z"/>
            <path d="M272.9 539.46c-.14 8.24 2.26 16.09 3.2 24.22.13 1.12 1.9 1.13 1.77 0-.94-8.12-3.34-16-3.2-24.22a.88.88 0 0 0-1.77 0z"/>
            <path d="M288 538.29c.92 7.38 1.87 14.75 3.33 22.05.22 1.11 1.93.64 1.7-.47-1.43-7.15-2.37-14.36-3.27-21.58-.14-1.11-1.91-1.13-1.77 0z"/>
            <path d="M302.74 532.52c2 9.14 3.91 18.25 4.22 27.65 0 1.13 1.8 1.14 1.77 0-.31-9.55-2.22-18.82-4.28-28.12-.25-1.11-1.95-.64-1.7.47z"/>
            <path d="M321.48 530.89c1 7.42 2.86 14.68 3.24 22.19.06 1.13 1.83 1.14 1.77 0-.39-7.66-2.29-15.07-3.31-22.65-.15-1.12-1.85-.64-1.7.47z"/>
            <path d="M342 467c1.4 27.7 1.11 55.65 3.74 83.26.11 1.12 1.87 1.13 1.77 0-2.62-27.61-2.33-55.57-3.74-83.26-.06-1.13-1.82-1.14-1.77 0z"/>
            <path d="M356 468.87c.19 25.36 2.06 50.66 2.84 76 0 1.13 1.8 1.14 1.77 0-.78-25.34-2.65-50.64-2.84-76a.88.88 0 0 0-1.77 0z"/>
            <path d="M364.43 467.56c2.65 2.65 3 7.53 3.44 11a143.09 143.09 0 0 1 .74 14.91c.08 8-.18 15.92.21 23.87.39 8.16.52 16.34 1.13 24.49.3 4-.22 13.77 3.5 16.53.91.68 1.8-.86.89-1.53-1.92-1.42-1.9-7.41-2.12-9.4-.51-4.58-.77-9.19-1-13.79-.33-6.68-.59-13.37-.83-20-.33-9.08.2-18.17-.19-27.26-.25-6 .07-15.47-4.53-20.07a.88.88 0 0 0-1.25 1.25z"/>
            <path d="M383.66 468.83c2.22 17.68 5.52 35.42 6.2 53.26.23 5.92 0 11.85.27 17.77.19 4.24.28 9 2.2 12.89.51 1 2 .12 1.53-.89-2.34-4.71-2-11-2.09-16.08-.12-5.85 0-11.7-.39-17.55-1.2-16.55-3.88-32.94-5.95-49.39-.14-1.11-1.91-1.13-1.77 0z"/>
            <path d="M400.72 464.12c-.44 15.84 4.58 31.1 5.18 46.86.48 12.56-.75 25.2.91 37.71.15 1.11 1.92 1.13 1.77 0-1.66-12.51-.42-25.15-.91-37.71-.61-15.76-5.62-31-5.18-46.86a.88.88 0 0 0-1.77 0z"/>
            <path d="M417 465c2.94 14.69 3.22 29.55 5.31 44.33 1.67 11.81 5.46 26.42.86 38-.42 1.06 1.29 1.51 1.7.47 4.43-11.09 1.2-24.81-.46-36.18-2.28-15.67-2.59-31.47-5.71-47.05-.22-1.11-1.93-.64-1.7.47z"/>
            <path d="M439.17 451.88c2.26 18.57 4.17 37.44 3.11 56.15-.4 7.07-.88 14.15-.79 21.23.06 4.79 0 10.47 2.39 14.8.55 1 2.07.11 1.53-.89-2.67-4.88-2.21-11.65-2.15-17 .07-6.84.56-13.68.93-20.51 1-17.86-1.09-36-3.24-53.75-.14-1.11-1.9-1.13-1.77 0z"/>
            <path d="M454.55 458.55c2.39 29.1 4.08 58.29 4.16 87.5a.88.88 0 0 0 1.77 0c-.08-29.21-1.77-58.39-4.16-87.5-.09-1.13-1.86-1.14-1.77 0z"/>
            <path d="M424 341.87c5.49 23.13 20.1 42.49 28.62 64.43.41 1 2.12.59 1.7-.47-8.52-21.94-23.13-41.31-28.62-64.43-.26-1.11-2-.64-1.7.47z"/>
            <path d="M96.1 334.67c-5.85 13.75-14.94 26-22.57 38.78-6.93 11.62-12.28 24.45-20.75 35.1-.7.88.54 2.14 1.25 1.25 8.27-10.4 13.63-22.81 20.3-34.22 7.76-13.28 17.25-25.82 23.29-40 .44-1-1.08-1.94-1.53-.89z"/>
            <path d="M193.73 402.45a15.34 15.34 0 0 1-1.37 4.52c-.41 1.06 1.3 1.52 1.7.47a16.65 16.65 0 0 0 1.44-5c.07-1.14-1.7-1.13-1.77 0z"/>
            <path d="M238.93 373.86c.43 1.1-.1 2.24-.18 3.37s1.68 1.13 1.77 0c.1-1.33.63-2.52.12-3.84-.41-1-2.12-.59-1.7.47z"/>
            <path d="M258.13 392.34a14.64 14.64 0 0 0 2.39 3.89c.76.85 2-.4 1.25-1.25a13.28 13.28 0 0 1-2.12-3.53c-.47-1-2-.14-1.53.89z"/>
            <path d="M233.1 411.33c0-.21.07-.11 0-.07s-.21.21-.28.3a1.75 1.75 0 0 0-.34.95.89.89 0 0 0 .88.88.91.91 0 0 0 .88-.88c0 .21-.07.11 0 .07s.21-.21.28-.3a1.75 1.75 0 0 0 .34-.95.89.89 0 0 0-.88-.88.91.91 0 0 0-.88.88z"/>
            <path d="M200.63 372.59l-3.13 2.88c-.84.77.41 2 1.25 1.25l3.13-2.88c.84-.77-.41-2-1.25-1.25z"/>
            <path d="M163.74 387.49c-.73 1.35-1.25 2.79-2 4.13-.54 1 1 1.89 1.53.89.73-1.35 1.25-2.79 2-4.13.54-1-1-1.89-1.53-.89z"/>
            <path d="M152.9 420.62a3.8 3.8 0 0 1 .49.89 4.21 4.21 0 0 0 .64 1 .89.89 0 0 0 1.25 0 .9.9 0 0 0 0-1.25 3.77 3.77 0 0 1-.49-.89 4.23 4.23 0 0 0-.64-1 .89.89 0 0 0-1.25 0 .9.9 0 0 0 0 1.25z"/>
            <path d="M125.27 412.59a10.59 10.59 0 0 1-4 4.71c-1 .61-.07 2.14.89 1.53a12.58 12.58 0 0 0 4.84-5.76c.43-1.05-1.28-1.51-1.7-.47z"/>
            <path d="M126 375.34c-1.35.67-1.6 2-2.25 3.25-.53 1 1 1.9 1.53.89s.64-2.13 1.61-2.61.13-2-.89-1.53z"/>
            <path d="M156.6 355.36a6.62 6.62 0 0 0 4.07 4.38c1.06.42 1.52-1.29.47-1.7a4.73 4.73 0 0 1-2.84-3.14c-.33-1.08-2-.62-1.7.47z"/>
            <path d="M109.22 398.27c-1.17 1-2.56 1.81-3.73 2.86-.85.76.4 2 1.25 1.25 1.17-1 2.56-1.81 3.73-2.86.85-.76-.4-2-1.25-1.25z"/>
            <path d="M108.55 357.94a3.76 3.76 0 0 1 .49.89 4.22 4.22 0 0 0 .64 1 .89.89 0 0 0 1.25 0 .9.9 0 0 0 0-1.25 3.8 3.8 0 0 1-.49-.89 4.2 4.2 0 0 0-.64-1c-.74-.87-2 .39-1.25 1.25z"/>
            <path d="M88.28 395c-1.24 1.23-1.36 2.84-2.12 4.31-.52 1 1 1.9 1.53.89.67-1.3.77-2.89 1.84-4 .81-.8-.44-2.05-1.25-1.25z"/>
            <path d="M199 424.19c.62 1.31 1.63 2.4 2.25 3.71.49 1 2 .13 1.53-.89-.62-1.31-1.63-2.39-2.25-3.71-.49-1-2-.13-1.53.89z"/>
            <path d="M217.68 398a3.34 3.34 0 0 0 2.4.94c1.14.05 1.13-1.72 0-1.77a1.5 1.5 0 0 1-1.15-.42.88.88 0 0 0-1.25 1.25z"/>
            <path d="M279.64 361a7.48 7.48 0 0 0 3.43.85c1.14 0 1.13-1.72 0-1.77a5.44 5.44 0 0 1-2.53-.61c-1-.54-1.89 1-.89 1.53z"/>
            <path d="M286 399.09q-.06 1.5-.13 3c0 1.14 1.72 1.13 1.77 0s.08-2 .13-3-1.72-1.13-1.77 0z"/>
            <path d="M262.14 417.78a31.93 31.93 0 0 0-4.56 4.17c-.83.78.42 2 1.25 1.25a29.75 29.75 0 0 1 4.21-3.89c1-.61.07-2.14-.89-1.53z"/>
            <path d="M307.31 415a8.12 8.12 0 0 0 1.54 1.12l.77.48c.12.07.61.43.25.12l.86-1.48c.36.09.14.06 0 0l-.59-.33c-1-.55-1.89 1-.89 1.53a4.65 4.65 0 0 0 1 .53c.8.2 1.57-.88.86-1.48a10.49 10.49 0 0 0-1.22-.78l-.83-.54-.2-.14s-.22-.17-.06 0a2.56 2.56 0 0 1-.25-.22c-.79-.82-2 .43-1.25 1.25z"/>
            <path d="M335.54 387.93c.52.53 1.24.76 1.75 1.28.8.81 2-.44 1.25-1.25-.52-.53-1.24-.76-1.75-1.28-.8-.81-2 .44-1.25 1.25z"/>
            <path d="M319.37 365.32c-.68 1.67-1.92 3-2.61 4.71-.43 1.05 1.28 1.51 1.7.47.68-1.67 1.93-3 2.61-4.71.43-1.05-1.28-1.51-1.7-.47z"/>
            <path d="M249.11 346.59a12.5 12.5 0 0 0 2.4 5.9c.75.86 2-.4 1.25-1.25-1.22-1.4-1.58-3.36-2-5.12-.23-1.11-1.94-.64-1.7.47z"/>
            <path d="M215.94 352.16l-.63.58c-.84.77.41 2 1.25 1.25l.63-.58c.84-.77-.41-2-1.25-1.25z"/>
            <path d="M186.21 343.08c-.53.52-.76 1.24-1.28 1.75-.81.8.44 2 1.25 1.25.53-.52.76-1.24 1.28-1.75.81-.8-.44-2-1.25-1.25z"/>
            <path d="M221.33 339.78a5.51 5.51 0 0 0 3.58 1.59c1.13.08 1.13-1.69 0-1.77a3.64 3.64 0 0 1-2.33-1.07c-.79-.82-2 .43-1.25 1.25z"/>
            <path d="M318.84 342a12.86 12.86 0 0 0 2.67-3.08.88.88 0 0 0-1.51-.92 11.4 11.4 0 0 1-2.39 2.73c-.84.77.41 2 1.25 1.25z"/>
            <path d="M282.56 341a12.81 12.81 0 0 0 1.82 3.26c.75.86 2-.39 1.25-1.25a11.6 11.6 0 0 1-1.54-2.9.89.89 0 0 0-1.21-.32.9.9 0 0 0-.32 1.21z"/>
            <path d="M358.69 375.87a7.36 7.36 0 0 0 4 5c1 .44 1.51-1.27.47-1.7a5.58 5.58 0 0 1-2.81-3.74.88.88 0 0 0-1.7.47z"/>
            <path d="M356.52 412.28a10.22 10.22 0 0 0 .46 4.47c.43 1 2.14.58 1.7-.47a9 9 0 0 1-.39-4c0-1.14-1.72-1.13-1.77 0z"/>
            <path d="M335.73 419.84q-.11 2.71-.23 5.41c0 1.14 1.72 1.13 1.77 0q.11-2.71.23-5.41c0-1.14-1.72-1.13-1.77 0z"/>
            <path d="M390.4 415.52a12.9 12.9 0 0 0 3.08 2.67.88.88 0 0 0 .89-1.53 11.43 11.43 0 0 1-2.73-2.39c-.77-.84-2 .41-1.25 1.25z"/>
            <path d="M413.29 401.66c-.17 0 .24.09.17.06l.62.28a4.83 4.83 0 0 0 1.59.36c1.14.07 1.13-1.69 0-1.77-.85-.05-1.53-.63-2.38-.7a.89.89 0 0 0-.88.88.9.9 0 0 0 .88.88z"/>
            <path d="M391.4 384.84c-.14 2.08-1.27 3.81-2 5.7-.42 1.06 1.29 1.52 1.7.47.83-2.08 1.93-3.88 2.09-6.17.08-1.13-1.69-1.13-1.77 0z"/>
            <path d="M386.15 363.08a10.66 10.66 0 0 0 4.6 1.5c1.14.07 1.13-1.7 0-1.77a8.63 8.63 0 0 1-3.71-1.26c-1-.55-1.89 1-.89 1.53z"/>
            <path d="M408.93 351.39a11.91 11.91 0 0 1 2.73 2.39c.77.84 2-.41 1.25-1.25a13.41 13.41 0 0 0-3.08-2.67.88.88 0 0 0-.89 1.53z"/>
            <path d="M367.44 344.05a18.29 18.29 0 0 0-3.32 4.26.88.88 0 0 0 1.53.89 16.65 16.65 0 0 1 3-3.9c.83-.78-.42-2-1.25-1.25z"/>
            <path d="M338.07 352.93a5.49 5.49 0 0 1 .35 2.59c0 1.14 1.72 1.13 1.77 0a7.44 7.44 0 0 0-.6-3.48.89.89 0 0 0-1.21-.32.91.91 0 0 0-.32 1.21z"/>
            <path d="M436.37 421.49a7 7 0 0 0 3.22 2.85c1 .55 1.89-1 .89-1.53a5.48 5.48 0 0 1-2.59-2.21c-.49-1-2-.13-1.53.89z"/>
            <path d="M472.39 399.08l.58.63c.77.84 2-.41 1.25-1.25l-.58-.63c-.77-.84-2 .41-1.25 1.25z"/>
            <path d="M477.83 369.8c.66.75 1 1.72 1.7 2.48s2-.4 1.25-1.25-1-1.72-1.7-2.48-2 .4-1.25 1.25z"/>
            <path d="M460 357a9.5 9.5 0 0 1-1.26 3.71c-.54 1 1 1.89 1.53.89a11.58 11.58 0 0 0 1.5-4.6c.08-1.13-1.69-1.13-1.77 0z"/>
            <path d="M465.58 379.06c1.14.59 2.43.77 3.56 1.35s1.9-1 .89-1.53-2.43-.76-3.56-1.35-1.9 1-.89 1.53z"/>
            <path d="M449.21 333l-1.88 1.73c-.84.77.41 2 1.25 1.25l1.88-1.73c.84-.77-.41-2-1.25-1.25z"/>
            <path d="M32.51 398.1q0 .6-.05 1.2c0 1.14 1.72 1.13 1.77 0q0-.6.05-1.2c0-1.14-1.72-1.13-1.77 0z"/>
            <path d="M50.43 379.59a3.21 3.21 0 0 1 .4 1.11 3.74 3.74 0 0 0 .7 1.34.89.89 0 0 0 1.25 0 .9.9 0 0 0 0-1.25 3.21 3.21 0 0 1-.4-1.11 3.74 3.74 0 0 0-.7-1.34.89.89 0 0 0-1.25 0 .9.9 0 0 0 0 1.25z"/>
            <path d="M60.25 356.12c1.75.62 3.61.8 5.36 1.43 1.07.38 1.53-1.32.47-1.7-1.75-.63-3.61-.81-5.36-1.43-1.07-.38-1.53 1.32-.47 1.7z"/>
            <path d="M59.92 330.13c1.9 1.36 4 2.5 5.86 3.86.93.66 1.81-.87.89-1.53-1.9-1.36-4-2.5-5.86-3.86-.93-.66-1.81.87-.89 1.53z"/>
            <path d="M41.45 358.36c.48 1.79.5 3.66 1 5.46a.88.88 0 0 0 1.7-.47c-.48-1.79-.5-3.67-1-5.46a.88.88 0 0 0-1.7.47z"/>
            <path d="M27.59 377.38a64.19 64.19 0 0 1-5.69 6.39c-.83.78.42 2 1.25 1.25a64.19 64.19 0 0 0 5.69-6.39c.71-.87-.53-2.13-1.25-1.25z"/>
            <path d="M76.3 308.41a12.89 12.89 0 0 0 3.11 2.06c1 .55 1.89-1 .89-1.53a11.39 11.39 0 0 1-2.75-1.79c-.79-.82-2 .43-1.25 1.25z"/>
            <path d="M96.24 321.29a1.58 1.58 0 0 1 .27 1.2c0 1.14 1.72 1.13 1.77 0a3.3 3.3 0 0 0-.78-2.45.89.89 0 0 0-1.25 0 .9.9 0 0 0 0 1.25z"/>
            <path d="M135 341.12a8.68 8.68 0 0 1-1.77 2.15c-.84.77.41 2 1.25 1.25a10.23 10.23 0 0 0 2-2.51.88.88 0 0 0-1.53-.89z"/>
            <path d="M85.33 278.63a3.8 3.8 0 0 1-.89.49 4.23 4.23 0 0 0-1 .64.89.89 0 0 0 0 1.25.9.9 0 0 0 1.25 0 3.8 3.8 0 0 1 .89-.49 4.23 4.23 0 0 0 1-.64.89.89 0 0 0 0-1.25.9.9 0 0 0-1.25 0z"/>
            <path d="M103.61 257a4.11 4.11 0 0 1 .38 2c0 1.14 1.72 1.13 1.77 0a6.31 6.31 0 0 0-.62-2.88.89.89 0 0 0-1.21-.32.91.91 0 0 0-.32 1.21z"/>
            <path d="M122.44 227.84a3.34 3.34 0 0 0 2.4.94c1.14.05 1.13-1.72 0-1.77a1.5 1.5 0 0 1-1.15-.42.88.88 0 0 0-1.25 1.25z"/>
            <path d="M103 231.79a3.5 3.5 0 0 1-1.83.84.88.88 0 0 0 0 1.77 5.07 5.07 0 0 0 3.03-1.4c.86-.75-.4-2-1.25-1.25z"/>
            <path d="M92.3 293.41a1.68 1.68 0 0 0 .27.91c.05.08.29.41.28.32 0 1.13 1.81 1.14 1.77 0a1.68 1.68 0 0 0-.27-.91c-.05-.08-.29-.41-.28-.32 0-1.13-1.81-1.14-1.77 0z"/>
            <path d="M130.08 204.3a2.67 2.67 0 0 1 .7.35 3.11 3.11 0 0 0 1.08.32.89.89 0 0 0 .88-.88.9.9 0 0 0-.88-.88 2.67 2.67 0 0 1-.7-.35 3.11 3.11 0 0 0-1.08-.32.89.89 0 0 0-.88.88.9.9 0 0 0 .88.88z"/>
            <path d="M155.74 179.2c-.73.7-1.18 1.63-1.9 2.33s.43 2 1.25 1.25 1.18-1.63 1.9-2.33-.43-2-1.25-1.25z"/>
            <path d="M158.05 152.8a14.74 14.74 0 0 0-2.69 3.69c-.55 1 1 1.89 1.53.89a13.18 13.18 0 0 1 2.41-3.38c.83-.78-.42-2-1.25-1.25z"/>
            <path d="M141.06 184.61c-.53.52-.76 1.24-1.28 1.75-.81.8.44 2 1.25 1.25.53-.52.76-1.24 1.28-1.75.81-.8-.44-2-1.25-1.25z"/>
            <path d="M173.24 130.82a7.68 7.68 0 0 1 .42 3.4c0 1.14 1.72 1.13 1.77 0a8.88 8.88 0 0 0-.48-3.87.91.91 0 0 0-1.09-.62.89.89 0 0 0-.62 1.09z"/>
            <path d="M191.3 107.87c1 1.17 1.81 2.56 2.86 3.73.76.85 2-.4 1.25-1.25-1-1.17-1.81-2.56-2.86-3.73-.76-.85-2 .4-1.25 1.25z"/>
            <path d="M197 82.35a26.18 26.18 0 0 1-3 3.9c-.83.78.42 2 1.25 1.25a28.65 28.65 0 0 0 3.32-4.26c.67-.92-.86-1.81-1.53-.89z"/>
            <path d="M172.62 107c-.53.52-.76 1.24-1.28 1.75-.81.8.44 2 1.25 1.25.53-.52.76-1.24 1.28-1.75.81-.8-.44-2-1.25-1.25z"/>
            <path d="M215.88 75.16l-.12 3c0 1.14 1.72 1.13 1.77 0s.08-2 .13-3-1.72-1.13-1.77 0z"/>
            <path d="M211.42 52.09c0 .71-.29.86-1 .85a.88.88 0 0 0 0 1.77 2.75 2.75 0 0 0 2-.65 2.84 2.84 0 0 0 .77-2c.07-1.14-1.7-1.13-1.77 0z"/>
            <path d="M226.34 33.45c.09.1-.05-.09.07.09l.15.23c.12.18.22.36.33.55a7.51 7.51 0 0 0 .56.89.93.93 0 0 0 1.55 0 1.7 1.7 0 0 0 0-1.34.88.88 0 0 0-1.7.47c0 .12.06.25.1.38v.11a.65.65 0 0 1 .09-.51l.53-.41.68.09c.07 0 .22.24.17.15l-.11-.17-.35-.58a7.58 7.58 0 0 0-.8-1.17c-.75-.86-2 .4-1.25 1.25z"/>
            <path d="M250.43 26.62v.6c0 1.14 1.72 1.13 1.77 0v-.6c0-1.14-1.72-1.13-1.77 0z"/>
            <path d="M278.8 32a3.9 3.9 0 0 0 2.38 1.54.89.89 0 0 0 .88-.88.9.9 0 0 0-.88-.88c-.39 0-.89-.76-1.13-1-.77-.84-2 .41-1.25 1.25z"/>
            <path d="M262.44 14.11c.48 1.65 1.1 3.32 2.66 4.24a.88.88 0 0 0 .89-1.53c-1.13-.66-1.5-2-1.85-3.18a.88.88 0 0 0-1.7.47z"/>
            <path d="M241.31 43.1A14.35 14.35 0 0 1 240 47c-.41 1.06 1.3 1.52 1.7.47a15.43 15.43 0 0 0 1.41-4.39c.08-1.13-1.69-1.13-1.77 0z"/>
            <path d="M239 18.93a14.68 14.68 0 0 0 3.68 2.69c1 .55 1.89-1 .89-1.53a13.13 13.13 0 0 1-3.33-2.42c-.78-.83-2 .42-1.25 1.25z"/>
            <path d="M280.54 47.77a11.57 11.57 0 0 0 .74 1 2.54 2.54 0 0 0 1.64.59c1.14.08 1.13-1.69 0-1.77a1.09 1.09 0 0 1-.37-.07s-.15-.13-.12-.1c-.23-.27-.4-.59-.64-.85-.75-.86-2 .4-1.25 1.25z"/>
            <path d="M300.08 42.2a17.11 17.11 0 0 1 5.15.8c1.07.38 1.53-1.32.47-1.7a18.77 18.77 0 0 0-5.62-.86c-1.14 0-1.13 1.72 0 1.77z"/>
            <path d="M312.59 66.57a17.89 17.89 0 0 1-1.4 5.13c-.4 1.06 1.3 1.52 1.7.47a19.28 19.28 0 0 0 1.46-5.6c.07-1.14-1.69-1.13-1.77 0z"/>
            <path d="M325.54 90.22a20.59 20.59 0 0 0 6.2 1.49c1.14.07 1.13-1.7 0-1.77a19 19 0 0 1-5.74-1.43c-1.06-.4-1.52 1.3-.47 1.7z"/>
            <path d="M340.17 113.72a7.7 7.7 0 0 1 .42 3.4c0 1.14 1.72 1.13 1.77 0a8.9 8.9 0 0 0-.48-3.87.91.91 0 0 0-1.09-.62.89.89 0 0 0-.62 1.09z"/>
            <path d="M360.53 151.09a1.58 1.58 0 0 1 .27 1.2c0 1.14 1.72 1.13 1.77 0a3.3 3.3 0 0 0-.78-2.45.89.89 0 0 0-1.25 0 .9.9 0 0 0 0 1.25z"/>
            <path d="M370.79 179.22a12.89 12.89 0 0 0 3.08 2.67.88.88 0 0 0 .89-1.53A11.42 11.42 0 0 1 372 178c-.77-.84-2 .41-1.25 1.25z"/>
            <path d="M386.46 201.79c.43 2.05 1 4.07 1.55 6.09a.88.88 0 0 0 1.7-.47c-.58-2-1.12-4-1.55-6.09-.23-1.11-1.94-.64-1.7.47z"/>
            <path d="M392.88 223.34a6 6 0 0 0 2.62 2.82.88.88 0 0 0 .89-1.53 4.43 4.43 0 0 1-2-2.19.89.89 0 0 0-1.21-.32.9.9 0 0 0-.32 1.21z"/>
            <path d="M411.73 245.6a28.46 28.46 0 0 0 2.84 6.35.88.88 0 0 0 1.53-.89 26.5 26.5 0 0 1-2.67-5.93.88.88 0 0 0-1.7.47z"/>
            <path d="M407.28 264.45a6.62 6.62 0 0 1-.09 1.14 1 1 0 0 1-.35.62c-.82.79.43 2 1.25 1.25a4 4 0 0 0 1-3c0-1.14-1.72-1.13-1.77 0z"/>
            <path d="M448.64 296.83v-.17c0-1.14-1.71-1.13-1.77 0v.77c0 1.14 1.72 1.13 1.77 0v-.77h-1.77v.17c0 1.14 1.72 1.13 1.77 0z"/>
            <path d="M433.69 288.69a.88.88 0 0 0 0-1.77.88.88 0 0 0 0 1.77z"/>
            <path d="M438.91 314.56v1.2c0 1.14 1.72 1.13 1.77 0v-1.2c0-1.14-1.72-1.13-1.77 0z"/>
            <path d="M420.71 296.58h.05l.28.09a3.73 3.73 0 0 1 .47.23 4 4 0 0 1 .93.7c.79.82 2-.43 1.25-1.25a5 5 0 0 0-3-1.56c-1.13-.1-1.13 1.67 0 1.77z"/>
            <path d="M423.27 264.16a.88.88 0 0 0 0-1.77.88.88 0 0 0 0 1.77z"/>
            <path d="M149.46 507.47c-7.55.54-4.33 14.11 2.36 11a7.73 7.73 0 0 0 4-6.91c-.07-3.41-2.93-4.8-6-4.41-1.11.14-1.13 1.91 0 1.77 2-.25 4.09.13 4.25 2.51a6.22 6.22 0 0 1-2.15 4.91c-4.5 3.7-7.56-6.74-2.45-7.1 1.13-.08 1.14-1.85 0-1.77z"/>
            <path d="M331.48 233.1c-25.28-1.07-50.52-3-75.8-4.12-13.17-.59-25.9-.7-39 1.11-13.48 1.86-26.57 3.21-40.21 2.35a.89.89 0 0 0-.88.88c1.06 16 2.52 31.92 3.09 47.91.56 15.75-1.5 31.77.57 47.42a.91.91 0 0 0 .88.88l136.07-.29h19.26a.89.89 0 0 0 .88-.88c-3.45-31.31-4-62.87-4-94.33a.88.88 0 0 0-1.77 0c0 26.71.41 53.47 2.62 80.1q.37 4.48.82 9c0 .3.31 5.2 1.37 4.39-.27.21-1.19-.05-1.53 0-2.53.42-5.48 0-8 0l-72 .15-67.55.15c-1.29 0-4.57.64-5.73 0-.38-.21-.22-6.16-.28-7.67-.28-7.08.18-14.17.35-21.25.33-14-.57-28.05-1.57-42-.45-6.24-2.08-13.36-1.43-19.57.32-3-.37-2.42 2.62-2.83a24.74 24.74 0 0 1 3.56.13q4.81.12 9.61-.09c10.48-.46 20.76-2.5 31.18-3.58 13.21-1.36 26.42-.38 39.64.28 22.42 1.12 44.81 2.77 67.24 3.72 1.14 0 1.13-1.72 0-1.77z"/>
            <path d="M279.79 237.14c0 16.16.25 32.33-.08 48.49-.15 7.66-.64 15.31-.9 23-.12 3.67-.09 7.34 0 11 .06 2.48.62 5.77-.13 8.17-.34 1.09 1.36 1.55 1.7.47 1.48-4.72.07-11.13.12-16 .08-8.23.75-16.46.93-24.7.38-16.81.13-33.62.12-50.43a.88.88 0 0 0-1.77 0z"/>
            <path d="M219.76 234.42c1.81 7.43.44 15.23.42 22.79q0 12.14.2 24.28c.29 15.36-.18 30.72-.2 46.07a.88.88 0 0 0 1.77 0c0-16 .48-32 .16-48-.17-8.34-.3-16.71-.15-25.06.12-6.88 1.16-13.76-.5-20.54-.27-1.1-2-.64-1.7.47z"/>
            <path d="M320.76 234.42c1.81 7.43.44 15.23.42 22.79q0 12.14.2 24.28c.29 15.36-.18 30.72-.2 46.07a.88.88 0 0 0 1.77 0c0-16 .48-32 .16-48-.17-8.34-.3-16.71-.15-25.06.12-6.88 1.16-13.76-.5-20.54-.27-1.1-2-.64-1.7.47z"/>
            <path d="M344.31 247.28c3.45 12.31 3.09 25.2 2.58 37.86-.46 11.42-2 23.49-.09 34.81.19 1.12 1.89.64 1.7-.47-2.07-12.2-.15-25.39.28-37.71.41-11.72.41-23.59-2.78-35a.88.88 0 0 0-1.7.47z"/>
            <path d="M170.1 270.43c.78 10.39-.6 20.73-.91 31.11a.88.88 0 0 0 1.77 0c.31-10.38 1.68-20.72.91-31.11-.08-1.13-1.85-1.14-1.77 0z"/>
            <path d="M234.09 131.15c-.1 30.39-4.87 60.59-4 91a.9.9 0 0 0 .65.85c16.3 2.91 32.84 0 49.23 1.53a.89.89 0 0 0 .88-.88c-.88-30.35 3.38-60.67 1-91a.9.9 0 0 0-.88-.88c-10.52.58-21.36 1.49-31.85 0-3-.42-6.06-1-9.12-1.3-1.28-.12-2.47-.07-3.73-.08-1.5 0-.21.55-.68.09a.88.88 0 0 0-1.25 1.25l.5.5a.9.9 0 0 0 1.07.14c1.85-1.15 6 .09 7.86.37 2.62.38 5.24.87 7.88 1.11 8.48.77 17.05-.81 25.45-.15 3 .23 3.14.72 3.31 3.7q.2 3.36.3 6.72c.15 4.82.15 9.63.08 14.45-.15 9.37-.63 18.72-1.06 28.08s-.82 18.79-.8 28.2c0 1.14.77 5.77.09 6.81-1 1.54-3.29.73-5 .66-4.4-.17-8.8-.08-13.2 0-8.32.2-18.27 1.59-26.4-.58-3.12-.83-2.69-2.45-2.72-5.5v-6.79c.07-4.84.26-9.68.51-14.52 1.12-21.29 3.51-42.51 3.59-63.85a.88.88 0 0 0-1.71.07z"/>
            <path d="M229.1 130.79c-.48 30.18-4.6 60.12-5.93 90.25-.05 1.14 1.72 1.13 1.77 0 1.33-30.13 5.46-60.07 5.93-90.25a.88.88 0 0 0-1.77 0z"/>
            <path d="M467.89 432.27c-15.69 7.88-21.09 14.48-40.61 12-22.08-2.63-36.85 3.58-58.29 6.09-12 2.05-22.9-3.52-34.86-3.17-10.22-.43-20.48 0-30.71-.43-11.93-.5-23-1-34.15.28s-18.64-3.34-28.89-2.92c-11.93-.5-24.18 6.67-37 7.84-15.41 1.06-31.67 2.09-47 2.3-13.67.28-27.23-2-40.93-.86-9.44 1.31-20.73 6-31 5.53-11.93-.5-29.5-8.92-39.47-15.31-3.33-1.85-4-6.14-7.35-8s-8.56.5-11.86-2.2l-3.27 1.26 1.3 9.47 2-.74c3.3 2.7 8.52.36 11.86 2.2s4 6.14 7.35 8c10 6.39 27.54 14.81 39.47 15.31a35.93 35.93 0 0 0 4.28-.1c2.52 31.47-2.93 69.17.42 96.26h5.15c-3.38-27.28 2.18-65.32-.47-96.92 7.43-1.3 15-3.85 21.58-4.77 13.7-1.13 27.26 1.14 40.93.86 2.7 0 5.43-.11 8.17-.19v61.63h9v-62c10-.45 20.1-1.1 29.87-1.77 12.85-1.17 25.1-8.34 37-7.84 10.26-.42 17.75 4.16 28.89 2.92s22.22-.78 34.15-.28c10.22.43 20.48 0 30.71.43 12-.35 22.83 5.22 34.86 3.17 21.44-2.52 36.21-8.73 58.29-6.09 19.52 2.52 24.92-4.08 40.61-12l1.78-1.63v-10z"/>
            <path d="M139.36 245.17c16.78-32.68 35.19-63.57 52.82-96.21 7.45-14.24 47.12-76.7 57.9-77.33 4.6-7.51 14.07-6.11 21.66-3.22 21.93 7.77 32.74 35.61 43.06 54.87 11.85 23.61 23.7 47.21 32.95 71.57 8.54 20.9 14.52 41.69 27.4 61.06 8 12.32 17.86 23 24.13 37 6.3 13.1 8.89 25.62 17 37.09l9.36.5c-8.52-12.09-12.34-28.49-19-42.31-6.6-14.71-17-26-25.44-39-13.58-20.42-19.88-42.34-28.89-64.38-9.75-25.67-22.24-50.56-34.74-75.45-10.9-20.36-22.3-49.66-45.42-57.85-8-3-18-4.52-22.83 3.39-11.37.66-53.19 66.51-61 81.53-18.59 34.41-38 67-55.69 101.44-12.8 24.73-32.78 49.13-41.12 75.88l8.88 3.4c7.92-25.35 26.86-48.52 38.97-71.98z"/>
            <path d="M335.21 239.17c8.05.29 16 .51 23.78.64v-7c-34.29-.56-71.55-3-108.84-4.54-32.29-2.21-67.78 5.82-100.06 3.61v7c11.72.8 23.87.25 36.13-.67 0 20.61-.25 41.41-.67 62.21-.23 9.14.91 19 .91 27.9h5c0-8.91-1.13-18.75-.91-27.9.43-20.93.64-41.86.67-62.6 12.7-1 25.48-2.31 38-2.77 0 21.64-.23 43.51-.68 65.37-.23 9.14.91 19 .91 27.9h5c0-8.91-1.13-18.75-.91-27.9.45-21.91.67-43.82.68-65.5 5.37-.09 10.69 0 15.92.35 13.07.55 26.14 1.2 39.07 1.84 0 21-.24 42.26-.67 63.49-.23 9.08.91 18.87.91 27.72h5c0-8.85-1.13-18.63-.91-27.72.43-21.15.65-42.3.67-63.25 12.16.6 24.2 1.17 36 1.63 0 20.36-.25 40.9-.67 61.44-.23 9.14.91 19 .91 27.9h5c0-8.91-1.13-18.75-.91-27.9.46-20.47.64-40.95.67-61.25z"/>
            <path d="M316 134.66v-4c-16.28-.68-38.12 1.6-56.66-.78-15.47-1.45-34.28 2.56-48.81-2.85v4c7.53 2.8 16.22 3.07 25 2.89-.58 29.41-4.88 64-5.9 88.11h5c1-24.16 5.33-58.81 5.9-88.25a153.64 153.64 0 0 1 18.81.1c9.23 1.18 19.27 1.21 29 1-.88 19.74-2.47 39.46-2.47 59.23.53 7.7 2.19 29.11 1.27 30.78h5c.92-1.67-.74-23.08-1.27-30.78 0-19.82 1.6-39.56 2.48-59.34 8.06-.16 15.82-.39 22.65-.11z"/>
            <path d="M329.22 483.42c-.46-8.89.83-17.78-.47-26.63a.89.89 0 0 0-.85-.65c-14.6-.27-29.24-.76-43.84-.82-7 0-14 1.06-21 1-6.22-.06-12.15-2-18.27-2.79-11.95-1.55-22.4 2.64-33.73 5.64-14.07 3.73-29.8 3.27-44.29 3.83a.9.9 0 0 0-.88.88l-1.55 60.88a.89.89 0 0 0 .65.85c11.83 2.07 23.65-1.24 35.5-1.4 14.37-.19 28.77 1.51 43.15 1.65 29.25.27 58.57-.91 87.83-1.08a.89.89 0 0 0 .85-.65c2.21-13.67-2.2-27.14-3.09-40.72-.07-1.13-1.84-1.14-1.77 0 .56 8.57 2.48 17 3.34 25.5.34 3.36 1.35 8.53.23 11.79-1.06 3.09-3.74 2.33-6.38 2.35l-8.81.05c-19.5.12-39 .3-58.5.81-19 .5-37.9-1.73-56.85-1.47-8.64.12-17.17 1.88-25.81 2.09-1.35 0-8.13.55-8.57 0-.21-.24 0-1.71.05-2l1.27-49.9c.05-2.15-.52-5.58.19-7.63.66-1.88-1.14-.11 1.07-.34 4.78-.51 9.69-.44 14.49-.72 8.6-.5 17.47-.5 25.88-2.48 8.23-1.94 16.17-5.49 24.63-6.36 8.78-.91 16.82 1.8 25.42 2.72 4.62.5 9.12-.15 13.73-.45 5.31-.35 10.63-.35 15.95-.24 10.52.23 21 .63 31.54.67 3 0 6.06-.88 7.11 2.64.63 2.09.22 4.93.19 7.12-.07 5.29-.45 10.55-.18 15.84.06 1.15 1.83 1.16 1.77.02z"/>
        </g>
    </g>
</svg>
