<svg xmlns="http://www.w3.org/2000/svg" viewBox="0 0 152.05 216.76">
    <defs>
        <style>
            .cls-1{fill:#fff}
        </style>
    </defs>
    <title>
        house_Asset 29
    </title>
    <g id="Layer_2" data-name="Layer 2">
        <g id="Layer_1-2" data-name="Layer 1">
            <path class="cls-1" d="M83.67 153.4c2.25 10.48 5.61 20.58 7.86 31.06 1.3 4.87.06 12.57 1.43 17.94a11.24 11.24 0 0 0 .82 2.27c4.86 10.1 23.2 7.11 31.06 3a71.06 71.06 0 0 0 14.59-11.6c3-3 10.85-9 11.6-13.1 1.12-5.61-6.74-16.09-9.73-20.58-3.37-6-6.36-12.35-9.36-18.71-4.86-10.85-11.22-21.33-15.72-32.55-3.74-10.48-6.74-21.33-9.35-31.81C103.88 70 103.5 61 98.64 52c-4.12-7.48-7.86-13.84-10.48-21.7-7.48 6.74-15.71 9.36-24.7 4.12a97.85 97.85 0 0 1-4.86 11.72l3.15-7.09c-4.61 10.83-12.51 23-17 34.65-7.48 18.71-17.21 36.67-25.07 55.38-4.12 9-8.23 18-12.35 27.32-1.86 4.11-7.1 13.46-6.33 18.33.75 5.61 10.85 13.1 15 16.84 4.86 4.49 8.23 7.11 15 8.23 13.84 1.87 27.69 1.87 36.3 16.09a45.28 45.28 0 0 0 4.33-9.22c1-3 1.87-6 2.78-9.11 2.62-10.1 6-19.08 8.23-29.19 5.61-24.32-6-48.64-3.74-72.59z"/>
            <path d="M70.81 170.61c.61 7.91-3.38 17.72-7 24.62-.53 1 1 1.9 1.53.89 3.8-7.27 7.87-17.19 7.23-25.52-.09-1.13-1.85-1.14-1.77 0z"/>
            <path d="M82.82 153.63c2.64 11.94 7.94 24.18 8.47 36.44.29 6.62-.86 14.7 5.21 19.17 5.24 3.86 12.78 3.55 18.86 2.42 7.68-1.43 13.77-5.22 19.64-10.28 3.33-2.87 6.48-6 9.71-9 2.48-2.28 5.7-5 6.87-8.27 2.1-5.92-3.55-13.34-6.59-17.89-6-9-10.2-19-15-28.7-5.47-11.15-11.51-21.84-15.34-33.71-4.1-12.68-7.26-25.63-10.38-38.57-3.06-12.7-11-23-15.29-35.22a.9.9 0 0 0-1.48-.39c-7.1 6.12-15 8.61-23.63 4a.9.9 0 0 0-1.3.53 102.33 102.33 0 0 1-4.73 11.54l1.53.89 3.15-7.09-1.52-.89c-3.51 8-7.93 15.63-11.89 23.45C45 70.23 41.8 78.83 38 87.17c-7.68 17-15.62 33.8-23.35 50.74-3.38 7.41-6.61 14.89-10.13 22.24-2.06 4.31-5.18 9.76-4.44 14.7s5.55 8.9 9 12c4.29 3.83 8.66 8.41 13.71 11.2 6.49 3.58 14.4 3.18 21.51 4.48 9.32 1.71 16.91 5.69 22.12 13.84a.89.89 0 0 0 1.53 0c5.23-8.79 7.16-19 10.09-28.66s6.29-19.68 6.83-30c1.08-20.85-6.87-41-5.2-61.91h-1.75l4.87 57.63c.09 1.12 1.86 1.13 1.77 0l-4.87-57.66a.88.88 0 0 0-1.77 0c-1.57 19.72 5.37 38.72 5.29 58.36 0 10.5-3 20.43-6 30.38C74 194.87 72 206 66.45 215.44H68c-6.71-10.51-16.93-14-28.79-15.5-8.09-1.05-14.67-2-21-7.53-4.43-3.91-9.34-7.58-13.15-12.12-5.37-6.41-2.19-12.55 1-19.26s6.24-13.69 9.35-20.54c7.45-16.36 15-32.66 22.54-49 4-8.64 7.28-17.61 11.45-26.15s9.22-17 13.09-25.86c.45-1-1.06-1.93-1.53-.89l-3.12 7.11c-.45 1 1 1.93 1.53.89a106.17 106.17 0 0 0 5-11.95l-1.3.53c9.39 5 18 2.43 25.77-4.25l-1.48-.39C90.59 40 96.53 48 100.1 57.28c3.7 9.58 5.32 20.26 8 30.18 2.54 9.54 5.16 19.23 9.17 28.28 4.27 9.64 9.49 18.83 13.95 28.38a190.41 190.41 0 0 0 13 24.07 44.51 44.51 0 0 1 5.38 10.05c1.66 5-1.14 8.19-4.59 11.54-11.28 10.92-23.9 23.41-41.05 20.5-12.53-2.12-9.92-13.57-11-23.18-1.32-11.46-5.87-22.69-8.35-33.94-.33-1.11-2.03-.64-1.79.47z"/>
            <path d="M55.76 88.44c1.21 15-8.63 28.11-11.29 42.43-.21 1.11 1.5 1.59 1.7.47 2.7-14.49 12.58-27.74 11.36-42.9-.09-1.13-1.86-1.14-1.77 0z"/>
            <path d="M95.82 134c3.31 15.24 5.94 30.61 11.33 45.31.39 1.06 2.1.6 1.7-.47-5.38-14.69-8-30.07-11.33-45.31-.24-1.11-1.94-.64-1.7.47z"/>
            <path d="M106.48 197.62c1.9 3 5.29 3.42 8.55 2.67 1.11-.26.64-2-.47-1.7-2.45.57-5.09.48-6.55-1.86-.6-1-2.13-.08-1.53.89z"/>
            <path d="M36.63 191.27c2.37.29 5.14-.31 6.93 1.63.77.84 2-.41 1.25-1.25-2.19-2.37-5.28-1.8-8.18-2.15-1.13-.14-1.12 1.63 0 1.77z"/>
            <path d="M64.7 6.38c7 8.44 14.26 17.21 20.13 26.47.61 1 2.14.07 1.53-.89C80.42 22.58 73 13.69 66 5.13c-.73-.88-2 .38-1.25 1.25z"/>
            <path d="M66.09 35.42C71.16 25.87 76.35 16.29 79.77 6c.36-1.08-1.35-1.54-1.7-.47-3.38 10.14-8.51 19.59-13.51 29-.53 1 1 1.9 1.53.89z"/>
            <path d="M71.24.85c.32 6.27 1 12.52 1.85 18.73.78 5.71 1.44 11.82 3.61 17.2.42 1 2.13.59 1.7-.47C74.11 25.63 73.58 12.25 73 .85c0-1.13-1.81-1.14-1.76 0z"/>
            <path d="M71.09 36.2c2.61-11 3-22.35 6-33.22a.88.88 0 0 0-1.7-.47c-3.05 10.87-3.43 22.25-6 33.22-.26 1.11 1.44 1.58 1.7.47z"/>
            <path d="M82.32 34c-1.93-5.72-5.07-11-7.73-16.35a109.82 109.82 0 0 1-4.92-11.47 12.59 12.59 0 0 0-1.32-3.33c-.68-.89-2.22 0-1.53.89 1.06 1.38 1.48 4 2.07 5.51 1 2.63 2.16 5.17 3.38 7.7 2.8 5.79 6.27 11.42 8.33 17.53.36 1.07 2.07.61 1.7-.47z"/>
            <path d="M83.9 156.51c2.25 10.48 5.61 20.58 7.86 31.06 1.3 4.87.94 12.27 2.3 17.64L71 209.78c1-3 2-6.16 3-9.27 2.62-10.1 5.08-19 7.86-29.08z"/>
        </g>
    </g>
</svg>
