<svg xmlns="http://www.w3.org/2000/svg" viewBox="0 0 210.56 121.06">
    <defs>
        <style>
            .cls-1{fill:#fff}
        </style>
    </defs>
    <title>
        house_Asset 33
    </title>
    <g id="Layer_2" data-name="Layer 2">
        <g id="Layer_1-2" data-name="Layer 1">
            <path class="cls-1" d="M189.33 65.49a18.62 18.62 0 0 0-4.16-.69l.16-.42c-6.1 1-12.26.77-18.42.67l.37-.4c-6.74-16.4-21-32.74-34.73-43.86-4.46-3.71-9.75-4.43-14.5-7.47-3.75-2.76-6.21-5.92-10.57-7.67-8.72-3.83-19.33-5.91-29.08-4.1C59.18 4.5 32.57 17 21.24 33c-7.95 11.57-11.45 26.52-15 40.16C4 81.5 2.17 96.46.87 105.5c8 5.66 21.87 8.53 30.81 10 10.61 2.08 20.9 4.19 31.73 4.29 11.17.09 22 .52 33.09-1.36 6.19-1 18.79-4.9 24.11-3.53l.59-.64a5.82 5.82 0 0 0 2.42 1.8c3 1.16 7.53-.38 10.81-.55 3.6-.18 7.25.62 10.87.76 5.93.35 14.41-.73 19.39.32l.29-.73v.39a43.93 43.93 0 0 0 13.1-.67c.08-4.93-1-44.93 13.34-34.49 5.8 4.3 6.37 15.43 7 21.64.43 1.95-.24 8.22 1.47 9.45 1 .93 8.48-1.09 9.45-1.47l.31-.34c-.71-14.37-3.01-40.18-20.32-44.88z"/>
            <path d="M168.06 64.2c-7.21-17-20.26-32.85-34.87-44a39.78 39.78 0 0 0-9-4.82C119.28 13.26 116 10 111.78 7 105 2.26 95.36.27 87.16 0 71.6-.45 55 6.42 41.81 14.19 28 22.35 18.33 33 12.64 48.15 5.68 66.59 2.78 85.87 0 105.27a.94.94 0 0 0 .41 1c7.47 5 16.56 7.32 25.28 9.08 10.56 2.12 21.25 4.4 32 5.15a182.3 182.3 0 0 0 35.12-.59c8.69-1.11 18.8-5.81 27.54-4.1 1.11.22 1.59-1.48.47-1.7-8.65-1.69-18 2.6-26.53 3.83a163.47 163.47 0 0 1-45.69-.22C36.65 116 24 114 12.54 110.1a51.86 51.86 0 0 1-7.82-3.28C1.46 105.07 2 104 2.45 100.55 3.21 95 4 89.48 4.9 84A194.8 194.8 0 0 1 14 49.4C18.42 37.52 25 28 35.28 20.57 54.27 6.73 81.06-3.34 104.1 5.22c6.9 2.56 11.31 8.14 17.9 11.11 3 1.34 6 2.34 8.75 4.19a74.41 74.41 0 0 1 8.67 7.48c11.19 10.53 21.07 22.92 27.12 37.13.44 1 2 .14 1.53-.89z"/>
            <path d="M14.05 73.34c8.89.46 17 6.63 25.63 8.93a247.7 247.7 0 0 0 28.44 5.54A209.84 209.84 0 0 0 96 89.52c7 .08 14.78 1.08 21.5-1.44 1.05-.4.6-2.1-.47-1.7-7.53 2.83-16.85 1.47-24.75 1.34a192.18 192.18 0 0 1-29-2.51c-8.92-1.5-17.85-3-26.52-5.6C29 77.27 22.25 72 14.05 71.57c-1.14-.06-1.13 1.71 0 1.77z"/>
            <path d="M23.81 41.51c19.36 8.75 39.94 13.84 61.27 13.14 19.84-.65 41.34-4.93 58.33-15.58 1-.6.08-2.13-.89-1.53-16.7 10.46-38 14.7-57.44 15.34-21 .69-41.31-4.28-60.38-12.9-1-.46-1.93 1.06-.89 1.53z"/>
            <path d="M46.6 18.35c21.81 11 50 14.61 70.6-1.38.9-.7-.36-1.94-1.25-1.25C96.07 31.19 68.5 27.4 47.49 16.83c-1-.51-1.91 1-.89 1.53z"/>
            <path d="M27.93 84.74c1.2 7.38.66 14.9 2.44 22.2.27 1.1 2 .64 1.7-.47-1.78-7.29-1.25-14.82-2.44-22.2-.18-1.12-1.88-.64-1.7.47z"/>
            <path d="M87.85 94.91c.4 5.6 2.11 10.91 4.12 16.11.41 1 2.11.59 1.7-.47-1.95-5-3.67-10.21-4.06-15.64-.08-1.13-1.85-1.14-1.77 0z"/>
            <path d="M55.2 59.81c-.59 5.7.21 11.35.54 17 .07 1.13 1.83 1.14 1.77 0-.33-5.69-1.13-11.34-.54-17 .12-1.13-1.65-1.12-1.77 0z"/>
            <path d="M117.46 57.2c1.52 4.37 3.3 8.64 4 13.26.16 1.12 1.86.64 1.7-.47-.66-4.61-2.44-8.88-4-13.26-.37-1.07-2.08-.61-1.7.47z"/>
            <path d="M47.92 25.47c-1.64 4.65-2.46 9.5-3.54 14.3-.25 1.11 1.45 1.58 1.7.47 1.08-4.8 1.9-9.64 3.54-14.3.38-1.07-1.33-1.54-1.7-.47z"/>
            <path d="M103.47 29.75c3.94 4.42 4.71 10.51 8.19 15.15.67.9 2.21 0 1.53-.89-3.58-4.77-4.42-11-8.47-15.51-.76-.85-2 .4-1.25 1.25z"/>
            <path d="M83.92 5.53C79.34 9.59 77.16 17 77 22.91c0 1.14 1.73 1.14 1.77 0 .18-5.48 2.21-12.38 6.44-16.13.85-.76-.4-2-1.25-1.25z"/>
            <path d="M200.38 111c-7.16-1.71-14.47-1.33-21.74-2.12-1.13-.12-1.12 1.65 0 1.77 7.11.77 14.27.38 21.27 2.06 1.11.26 1.58-1.44.47-1.7z"/>
            <path d="M185.1 63.53c-9.48 1.33-19.12.42-28.66.82-6.49.27-13.26-.65-19.65.86-11.5 2.72-16.68 14.47-17.88 25.19-.77 6.85-4.11 21.67 3.44 26.08 2 1.18 4.35 1 6.58.74a51.79 51.79 0 0 1 10.93-.52c8.11.75 16.59-.58 24.59.8 1.11.19 1.59-1.51.47-1.7-5.53-1-11.15-.26-16.73-.28-6.14 0-11.94-1.13-18.07-.25-4.39.63-8 .42-9.65-4.24a21.66 21.66 0 0 1-.84-7 112.25 112.25 0 0 1 1.11-14.18c.76-6 2.62-12.22 6.66-16.87 4.88-5.62 11.39-6.75 18.48-6.82 13.09-.11 26.7.9 39.67-.92 1.12-.16.64-1.86-.47-1.7z"/>
            <path d="M154.51 68.7c-18.06 4.53-17.61 28.33-16.88 43h1.77l-.07-1.31c-.06-1.13-1.83-1.14-1.77 0l.07 1.31c.06 1.13 1.82 1.14 1.77 0-.69-13.87-1.52-37 15.59-41.34a.88.88 0 0 0-.47-1.7z"/>
            <path d="M142.59 89.77c4.67-.15 10.17 1.21 14.66-.44 1.06-.39.6-2.1-.47-1.7-4.3 1.58-9.7.22-14.19.37-1.13 0-1.14 1.8 0 1.77z"/>
            <path d="M123.19 89.11c5-.21 10.06.1 15.1-.11 1.13 0 1.14-1.81 0-1.77-5 .21-10.06-.1-15.1.11-1.13 0-1.14 1.81 0 1.77z"/>
            <path d="M210.56 110.42c-.87-16.62-3.71-46.06-26-46.53-11.45-.24-18.45 8.44-21.1 18.66a67.83 67.83 0 0 0-2.13 17.71 47 47 0 0 0 .7 7.9c.5 2.74 2 5.41 2.14 8.16a.91.91 0 0 0 .88.88 48.79 48.79 0 0 0 13.33-.7.89.89 0 0 0 .65-.85c.06-5.59.06-11.16.56-16.73.4-4.48.94-17.4 7-18.56 5.32-1 8.39 6.63 9.37 10.49a76.77 76.77 0 0 1 1.91 15.76c.09 2.16-.12 5.64 2.29 6.66s7.21-.85 9.53-1.64c1.07-.36.61-2.07-.47-1.7a36.27 36.27 0 0 1-3.65 1c-2.82.64-4.94 1.76-5.81-2-.76-3.26-.41-7.26-.78-10.62-.71-6.33-1.74-14.65-7.66-18.39-9.11-5.75-12 8.06-12.92 14.23a127.62 127.62 0 0 0-1.07 16.26c0 1 .5 3.91 0 4.81-.21.36-5.94.39-7.45.41-3.34 0-3.55.58-4.38-2.17-4.55-15-3.83-47.7 18.44-47.83 21.62-.12 24.14 29 25 44.78.06 1.13 1.83 1.14 1.77 0z"/>
            <path d="M178.76 109.39c7.6.93 21.28 2.46 21.28 2.46-1.7-1.23-1-7.5-1.47-9.45-.64-6.2-1.21-17.34-7-21.64-14.32-10.43-12.73 23.7-12.8 28.62z"/>
        </g>
    </g>
</svg>
