<svg xmlns="http://www.w3.org/2000/svg" viewBox="0 0 298.44 465.37">
    <defs>
        <style>
            .cls-1{fill:#fff}
        </style>
    </defs>
    <title>
        house_Asset 30
    </title>
    <g id="Layer_2" data-name="Layer 2">
        <g id="Layer_1-2" data-name="Layer 1">
            <path class="cls-1" d="M17.28 42c0 139.49-1.5 282.49 1.5 422 19.5 1.5 42-3 63 0 22.5 1.5 43.5-1.5 66 0 42 1.5 90.5-5.5 134 .5 3-33-6-68.5-6-101.5 0-37.5-1.5-73.5-1.5-109.49 0-69 10.5-144 3-211.49-45-1.5-98 7.5-143 4.5-21-1.5-42 0-61.5-1.5-15-1.51-55.5-3.02-55.5-3.02z"/>
            <path class="cls-1" d="M53.94 99.9c3.87 0 7.72-.39 11.57-.62 7.95-.47 15.92-.34 23.88-.21l12.77.21a65.51 65.51 0 0 0 11.41-.66c.25-6.62.63-13.62.25-20.25-4 0-8.37.5-12.5.63-1.87 0-3.62.13-5.5.25-.75 0-2.75 0-2.5.38h-.63c.3-2.91.52-5.72.85-8.18-10-2.11-22.16-1.06-32.19 1.06a58.82 58.82 0 0 0 1.08 7.59h-1.61c.25-.37-1.12.13-1.87.25a22.86 22.86 0 0 1-4.12.25 54.52 54.52 0 0 1-6.37.38 27.48 27.48 0 0 0-5.5-.62c-.12 6.5.75 13 .88 19.5 3.32-.3 6.75.06 10.1.04z"/>
            <path class="cls-1" d="M115.49 180c-2 0-4 .5-5.83.33l-57.5-.17a70.68 70.68 0 0 1-8.5-.5c-1.17 6.33.33 14.33.5 20.83 13.83-.17 27.67-.83 41.5-.67 11.17.17 23-1 34 .67.17-6 .33-12-1-17.83-.5-2.84-.17-2.66-3.17-2.66z"/>
            <path class="cls-1" d="M179.94 99.9c3.87 0 7.72-.39 11.57-.62 7.95-.47 15.92-.34 23.88-.21l12.77.21a65.51 65.51 0 0 0 11.41-.66c.25-6.62.63-13.62.25-20.25-4 0-8.37.5-12.5.63-1.87 0-3.62.13-5.5.25-.75 0-2.75 0-2.5.38h-.63c.3-2.91.52-5.72.85-8.18-10-2.11-22.16-1.06-32.19 1.06a58.82 58.82 0 0 0 1.08 7.59h-1.61c.25-.37-1.12.13-1.87.25a22.86 22.86 0 0 1-4.12.25 54.52 54.52 0 0 1-6.37.38 27.48 27.48 0 0 0-5.5-.62c-.12 6.5.75 13 .88 19.5 3.32-.3 6.75.06 10.1.04z"/>
            <path class="cls-1" d="M211.66 199.82c11.17.17 23-1 34 .67.17-6 .33-12-1-17.83-.5-2.83-.17-2.67-3.17-2.67-2 0-4 .5-5.83.33l-57.5-.17a70.68 70.68 0 0 1-8.5-.5c-1.17 6.33.33 14.33.5 20.83 13.84-.16 27.67-.83 41.5-.66z"/>
            <path class="cls-1" d="M52.94 264.9c3.87 0 7.72-.39 11.57-.62 7.95-.47 15.92-.34 23.88-.21l12.77.21a65.51 65.51 0 0 0 11.41-.66c.25-6.62.63-13.62.25-20.25-4 0-8.37.5-12.5.63-1.87 0-3.62.13-5.5.25-.75 0-2.75 0-2.5.38h-.63c.3-2.91.52-5.72.85-8.18-10-2.11-22.16-1.06-32.19 1.06a58.82 58.82 0 0 0 1.08 7.59h-1.61c.25-.37-1.12.13-1.87.25a22.86 22.86 0 0 1-4.12.25 54.52 54.52 0 0 1-6.37.38 27.48 27.48 0 0 0-5.5-.62c-.12 6.5.75 13 .88 19.5 3.32-.3 6.75.06 10.1.04z"/>
            <path class="cls-1" d="M245.82 243.36c-4 0-8.37.5-12.5.63-1.87 0-3.62.13-5.5.25-.75 0-2.75 0-2.5.38h-.63c.3-2.91.52-5.72.85-8.18-10-2.11-22.16-1.06-32.19 1.06a58.82 58.82 0 0 0 1.08 7.59h-1.61c.25-.37-1.12.13-1.87.25a22.86 22.86 0 0 1-4.12.25 54.52 54.52 0 0 1-6.37.38 27.48 27.48 0 0 0-5.5-.62c-.12 6.5.75 13 .88 19.5 3.34-.3 6.76.06 10.11 0 3.87 0 7.72-.39 11.57-.62 7.95-.47 15.92-.34 23.88-.21l12.77.21a65.51 65.51 0 0 0 11.41-.66c.24-6.57.62-13.57.24-20.21z"/>
            <path class="cls-1" d="M114.49 345c-2 0-4 .5-5.83.33l-57.5-.17a70.68 70.68 0 0 1-8.5-.5c-1.17 6.33.33 14.33.5 20.83 13.83-.17 27.67-.83 41.5-.67 11.17.17 23-1 34 .67.17-6 .33-12-1-17.83-.5-2.84-.17-2.66-3.17-2.66z"/>
            <path class="cls-1" d="M180.87 371.65c0-12.41-1.69-26.48-1.69-38.88 0-14.83 2.65-29.94 1.47-44.78-.59-8.09-1.47-15.91-1.18-24 4.13-.27 8.84 1.62 13.27 1.35 6.78-.54 13.27-2.43 19.75-3.24 5.31-.54 22.24-.82 24.76 1.08a76.06 76.06 0 0 1 .59 14.3c-.89 8.09-1.47 16.18-2.06 24.28-.59 18.07 2.65 35.87 2.95 53.68 0 3.24-.88 12.68.29 14.29z"/>
            <path class="cls-1" d="M49.22 98.3c5.8 25.33-2.11 54.88 2.11 80.73 19 3.17 40.1-1.06 59.1 1.05-4.22-25.86-4.22-55.41-4.75-81.79-19.52-2.1-56.46.01-56.46.01z"/>
            <path class="cls-1" d="M231.68 98.3c-19.52-2.11-56.46 0-56.46 0 5.8 25.33-2.11 54.88 2.11 80.73 19 3.17 40.1-1.06 59.1 1.05-4.22-25.85-4.22-55.4-4.75-81.78z"/>
            <path class="cls-1" d="M108.43 345.09c-4.22-25.86-4.22-55.41-4.75-81.79-19.52-2.11-56.46 0-56.46 0 5.8 25.33-2.11 54.88 2.11 80.73 18.99 3.17 40.1-1.03 59.1 1.06z"/>
            <path class="cls-1" d="M107.35 440.6c-.16-3.13 1.09-12.35-1.72-13.61-1.88-.78-6.41.16-8.29.16a117.82 117.82 0 0 1-14.86-.47c-8.76-.94-17.67.47-26.27 1.56-.78 5.16-.62 11.73-.31 17.2.31 3.13.63 6.41 1.09 9.54.31 2.66 1.41 5.79.78 8.29l52.08.31c.47-.31-1.41-9.07-1.56-10.48-.47-4.1-.63-8.28-.94-12.5z"/>
            <path class="cls-1" d="M16.31 42.32c1.92-3.41-.46-8.64-1.48-12.57-4.18-.23-8.52 0-12.71-.2-.4-6.35-.31-12.65-1.25-18.76 7.56-1.59 15.85.31 23.61-.44 9.83-.95 19.73-2.15 29.89-2.73C89.51 5.58 124.45 1 159.81 1c31.41 0 62.7.67 94.07.67 11.92 0 24.08-.54 35.86.67 9.48 1 7.62 4.11 7.62 13.35 0 3.73.09 7.51-.11 11.2-4.83 1.55-12.71.3-17.48 1.89-1.41 6.6-.78 7.6-.57 13.13-4.75 1.77-13.94 0-19.14.15-13.84.4-27.66 1.33-41.48 2.27-26.76 1.81-53.7 4-80.53 2.2-21.43-1.5-42.87 0-62.77-1.5C60 43.51 18.64 42 18.64 42z"/>
            <path d="M16.39 42c0 110-.92 220 .12 330.07q.43 46 1.38 91.91a.9.9 0 0 0 .88.88c16.76 1.14 33.49-1.43 50.25-1 8.73.22 17.34 1.41 26.09 1.44s17.46-.39 26.18-.65c17-.51 33.93.66 50.93.3s34.15-1.36 51.23-1.81c19.46-.52 39-.35 58.3 2.23.5.07.85-.46.88-.88 2.3-27.28-2.88-54.33-5.09-81.44-1.13-13.85-.88-27.73-1.06-41.61-.18-14.12-.5-28.24-.78-42.36-.55-27.47-.85-54.91.24-82.38S279 161.58 280 134c1.21-30.67 1.43-61.45-1.88-92a.91.91 0 0 0-.88-.88c-40.32-1.23-80.44 4.88-120.75 5.11-10.06.06-20-.63-30.09-1-11-.45-22-.26-33-.34-14.8-.11-29.5-1.54-44.27-2.31q-15.9-.83-31.8-1.42c-1.14 0-1.14 1.72 0 1.77 26.62 1 53.27 3.67 79.9 3.74 22.71.07 45.4 1.8 68.1 1.22 22.27-.56 44.48-2.57 66.71-3.91 10.56-.64 21.14-1.14 31.72-1.22h7.67c3.35 0 4.69-.58 5.37 2.81 1.1 5.49 1 11.5 1.37 17.08 1.38 22.82 1.09 45.71.24 68.54-1.7 45.85-5.37 91.56-4.91 137.47.24 23.61.93 47.22 1.25 70.84.16 11.76-.12 23.55.52 35.29.63 11.47 2 22.87 3.26 34.28S281 432 281.38 443.5c.17 5.19.16 10.38-.11 15.56-.24 4.44-.5 4.36-4.82 3.87q-4.47-.51-9-.85c-22.64-1.76-45.39-.77-68 .16-10.85.44-21.7.9-32.56 1-11.47.14-22.89-.65-34.35-.61-11.22 0-22.43.74-33.66.85C87.34 463.63 76 462 64.43 462c-11.23 0-22.41 1.15-33.63 1.34-2.6 0-5.2 0-7.8-.06-3.9-.14-3.39-1.52-3.46-5.19q-.19-9.26-.36-18.52-.64-35.73-.94-71.47c-.87-97-.25-194-.11-291V42a.88.88 0 0 0-1.74 0z"/>
            <path d="M17.17 42.56c1.77-4.33-.28-8.81-1.48-13a.92.92 0 0 0-.86-.66c-2.92-.12-6.2.31-9.09-.1-3.66-.52-2.89-2.31-3-5.85-.11-2.81-.22-5.63-.49-8.43.43 4.5-.27-2-.23-2.09.83-1.89 5.38-1.37 7-1.35 5.84 0 11.55.57 17.39 0S38.09 9.83 44 9.3c24.86-2.25 49.84-4 74.73-5.76 49.64-3.54 99.61-.84 149.34-1.1a196.75 196.75 0 0 1 19.8.6c2.47.24 6.73.2 8.2 2.72.83 1.41.53 3.5.5 5.07 0 2.55-.12 5.09-.11 7.65a43.59 43.59 0 0 1 0 4.68c-.27 2.55.22 3.17-3 3.52-4.67.51-9.39 0-14 1.23a.88.88 0 0 0-.62.62 37.67 37.67 0 0 0-.82 9.65c.12 2.32.47 3.22-2.21 3.51a43.34 43.34 0 0 1-7.5-.09c-10.36-.69-20.68 0-31 .61-23.91 1.43-47.81 3.65-71.77 4-11.81.18-23.51-.55-35.3-1s-23.71-.25-35.57-.36c-15.67-.18-31.25-1.72-46.9-2.49q-10.71-.53-21.42-1a57.39 57.39 0 0 0-10 0c-1.12.15-1.14 1.94 0 1.79 7.89-1.06 16.42.24 24.34.6 13.08.6 26.13 1.68 39.2 2.38 11 .59 22 .43 33 .47s22 .72 33.09 1.15c22.94.88 45.88-.78 68.76-2.34 12.49-.85 25-1.73 37.49-2.25a137.59 137.59 0 0 1 15.52.11c3.92.27 8 .59 11.77-.57a.91.91 0 0 0 .66-.86c-.1-2.05-.33-4.11-.32-6.17 0-3.35-.16-6.35 3.72-6.79 4.68-.53 9.4 0 14-1.21a.91.91 0 0 0 .66-.86c.2-5 0-10 .19-15 .06-2.07.38-4.5-.46-6.47-2.29-5.05-11.38-4.25-15.71-4.46C259.5-.24 236.51.74 213.72.5c-23.18-.24-46.42-.92-69.6-.13S97.93 3.48 74.86 5.3c-12.78 1-25.58 1.65-38.34 2.94-6.12.62-12.24 1.52-18.39 1.36-5.88-.15-11.65-.7-17.49.33A.91.91 0 0 0 0 11c.84 6.14.87 12.34 1.21 18.52a.91.91 0 0 0 .89.89c2.77.11 9.42-1 11.57.52 2.52 1.8 2.75 8.7 1.76 11.12-.43 1.09 1.31 1.56 1.74.51z"/>
            <path d="M271.66 35.32c-2.67-2.67-22.33-1.67-28.33-2-14.67-1.33-30-.33-45-.33C162.66 33 127 32.65 91 33c-14.33.33-29 1.33-43.33 1-9-.33-18 1.67-26.67 1.33v-6c8.67.33 17.67-1.67 26.67-1.33 14.33.33 29-.67 43.33-1 36-.33 71.67 0 107.33 0 15 0 30.33-1 45 .33 6 .33 25.67-.67 28.33 2z"/>
            <path d="M36 31.95c2.5 2 2.89 5.74 4.19 8.49.49 1 2 .13 1.54-.9-1.39-2.91-1.79-6.73-4.47-8.85-.89-.7-2.16.55-1.26 1.26z"/>
            <path d="M53.22 30.77c2.12 3 3 6.63 3.91 10.12a.89.89 0 0 0 1.72-.47c-1-3.63-1.89-7.43-4.09-10.55-.66-.93-2.21 0-1.54.9z"/>
            <path d="M73 31.62c2.19 2.69 2.47 6.32 3.1 9.61.22 1.13 1.94.65 1.72-.47-.71-3.67-1.13-7.4-3.56-10.39-.72-.89-2 .38-1.26 1.26z"/>
            <path d="M93 31.95c2.16 2.31 2.7 5.3 2.74 8.37a.89.89 0 0 0 1.79 0c0-3.55-.78-7-3.26-9.63-.79-.84-2 .42-1.26 1.26z"/>
            <path d="M108.22 31.44a16.11 16.11 0 0 1 2.88 9.22.89.89 0 0 0 1.79 0 17.82 17.82 0 0 0-3.12-10.12c-.66-.93-2.21 0-1.54.9z"/>
            <path d="M128.55 31.77a20.3 20.3 0 0 1 1.54 8.55.89.89 0 0 0 1.79 0 22.35 22.35 0 0 0-1.79-9.45c-.49-1-2-.13-1.54.9z"/>
            <path d="M148.55 33.44a21.21 21.21 0 0 1 1.88 7.56c.14 1.12 1.93 1.14 1.79 0-.36-2.91-.72-5.83-2.12-8.45-.54-1-2.08-.11-1.54.9z"/>
            <path d="M165.77 31.32a88.13 88.13 0 0 0-.33 9 .89.89 0 0 0 1.79 0 88.13 88.13 0 0 1 .33-9c.12-1.14-1.67-1.13-1.79 0z"/>
            <path d="M184.43 32.32a26.94 26.94 0 0 0 0 8.9c.25 1.12 2 .65 1.72-.47a25.68 25.68 0 0 1 0-8.43c.13-1.14-1.66-1.13-1.79 0z"/>
            <path d="M206.43 30.65c-.33 2.67-.62 5.34.36 7.9.41 1.06 2.14.6 1.72-.47-.93-2.41-.61-4.93-.3-7.43.14-1.14-1.64-1.13-1.79 0z"/>
            <path d="M225.13 30.08c-.4 2.7-1 5.5 0 8.14.4 1.06 2.13.6 1.72-.47-.89-2.34-.35-4.8 0-7.19.17-1.12-1.55-1.61-1.72-.47z"/>
            <path d="M244.13 31.75c-.72 2.54-1.34 5.28.09 7.69a.89.89 0 0 0 1.54-.9c-1.17-2-.49-4.26.09-6.31a.89.89 0 0 0-1.72-.47z"/>
            <path d="M256.46 31.56a37.84 37.84 0 0 1 .3 5.76.89.89 0 0 0 1.79 0 40.82 40.82 0 0 0-.36-6.24c-.17-1.13-1.89-.65-1.72.47z"/>
            <path d="M48.37 98.53c5.77 26.63-2 53.94 2.11 80.73a.85.85 0 0 0 .62.62c19.7 3 39.58-.91 59.33 1.09.63.06.93-.61.85-1.12-4.29-26.94-4.19-54.35-4.72-81.55a.91.91 0 0 0-.88-.88c-18.65-1.92-37.77-1.06-56.46 0-1.13.06-1.14 1.83 0 1.77 16.68-.94 33.56-1.52 50.25-.51a16 16 0 0 1 3.49.25c2.17.67 1.75.21 1.9 2.91.21 3.58.13 7.21.19 10.8.14 7.68.3 15.37.58 23a371.5 371.5 0 0 0 3.94 44.64l.85-1.12c-11.36-1.15-22.73-.32-34.11 0a160 160 0 0 1-18-.24c-3.87-.32-6.47-1.72-6.87-5.93-.28-2.89-.43-5.79-.5-8.7-.52-22.1 3.86-44.43-.88-66.31-.23-.98-1.93-.56-1.69.55z"/>
            <path d="M69 96.91a85.92 85.92 0 0 1-5.8-18.48c-.18-.93-1.18-5-.85-5.59.73-1.24 2.91-1.21 4.13-1.41a97.08 97.08 0 0 1 11.84-1.2 69.17 69.17 0 0 1 10.33.32c2.56.29 3.43 0 3.7 2.5a22.36 22.36 0 0 1-.41 4.25c-.65 6.56-1.35 13.38-5 19.08-.61 1 .92 1.85 1.53.89 5-7.92 4.81-17.83 5.92-26.83a.88.88 0 0 0-.65-.85c-10.83-2.08-21.92-1.12-32.66 1.06a.89.89 0 0 0-.65.85 81.76 81.76 0 0 0 7 26.3c.46 1 2 .14 1.53-.89z"/>
            <path d="M48.95 98c-1.71.15-3.41 0-5.12 0l.88.88c-.18-6.51-.93-13-.87-19.5l-.88.88c3.2 0 6.09.72 9.32.47 1.76-.14 3.54-.14 5.3-.3-.16 0 2.88-.5 2.8-.55 1 .6 1.86-.93.89-1.53-.52-.32-.74-.08-1.28-.13-1.84-.17-4.52.47-6.44.61-3.62.27-7-.37-10.6-.35a.9.9 0 0 0-.88.88c-.05 6.52.7 13 .88 19.5a.9.9 0 0 0 .88.88c1.71 0 3.41.15 5.13 0 1.12-.1 1.13-1.87 0-1.77z"/>
            <path d="M104.45 99c3-.19 6.09-.11 9.13-.5a.91.91 0 0 0 .88-.88c.26-6.75.57-13.5.25-20.25a.9.9 0 0 0-.88-.88c-4.86.07-9.71.49-14.57.67-1.5.06-5.45-.51-6.56.83-.72.87.52 2.13 1.25 1.25s7.56-.37 8.93-.43c3.65-.17 7.29-.51 10.94-.56l-.88-.88c.32 6.75 0 13.5-.25 20.25l.88-.88c-3 .39-6.08.31-9.12.5-1.13.07-1.14 1.84 0 1.77z"/>
            <path d="M52.16 178.27c-2.85 0-5.67-.2-8.5-.5a.88.88 0 0 0-.85.65c-1.05 7 .19 14 .47 21.07a.9.9 0 0 0 .88.88c12.52-.17 25-.71 37.55-.69s25.28-1 37.72.66a.9.9 0 0 0 1.12-.85 101.14 101.14 0 0 0-.16-12.54c-.22-2.25-.17-5.62-1.28-7.53-1.62-2.77-6.89-.95-9.44-1a.88.88 0 0 0 0 1.77c2 0 3.89-.4 5.83-.33 2.3.08 2.1.65 2.49 2.9a83.43 83.43 0 0 1 .79 16.72l1.12-.85c-8.25-1.13-16.5-.95-24.81-.78-8.74.18-17.48 0-26.23.2-4.28.09-8.56.21-12.85.31a68.63 68.63 0 0 1-7.9.17c-2.46-.23-2.46.31-3.23-2.15-1-3.26-.75-8.15-.78-11.51 0-1.5-.34-4.19 1.24-5.16 1-.61 5.55.31 6.82.32a.88.88 0 0 0 0-1.77z"/>
            <path d="M120.66 206.49c-11-1.67-22.83-.5-34-.67-13.83-.17-27.67.5-41.5.67v-7c13.83-.17 27.67-.83 41.5-.67 11.17.17 23-1 34 .67z"/>
            <path d="M50.38 144.42c2.82 1.78 6.43 1.32 9.61 1.19 5.82-.23 11.53-.63 17.34-1.17 6-.56 11.73 0 17.71.28 2 .09 7.2-1.27 8.84-.13.94.65 1.82-.88.89-1.53-1.45-1-4.6-.24-6.23-.18-4.6.17-9.14-.54-13.74-.56-6.32 0-12.51 1.21-18.81 1.43-4.13.14-11.12 1.42-14.72-.85-1-.61-1.85.92-.89 1.53z"/>
            <path d="M174.37 98.53c5.77 26.63-2 53.94 2.11 80.73a.85.85 0 0 0 .62.62c19.7 3 39.58-.91 59.33 1.09.63.06.93-.61.85-1.12-4.29-26.94-4.19-54.35-4.72-81.55a.91.91 0 0 0-.88-.88c-18.65-1.92-37.77-1.06-56.46 0-1.13.06-1.14 1.83 0 1.77 16.68-.94 33.56-1.52 50.25-.51a16 16 0 0 1 3.49.25c2.17.67 1.75.21 1.9 2.91.21 3.58.13 7.21.19 10.8.14 7.68.3 15.37.58 23a371.5 371.5 0 0 0 3.94 44.64l.85-1.12c-11.36-1.15-22.73-.32-34.11 0a160 160 0 0 1-18-.24c-3.87-.32-6.47-1.72-6.87-5.93-.28-2.89-.43-5.79-.5-8.7-.52-22.1 3.86-44.43-.88-66.31-.23-.98-1.93-.56-1.69.55z"/>
            <path d="M195 96.91a85.92 85.92 0 0 1-5.78-18.47c-.18-.93-1.18-5-.85-5.59.73-1.24 2.91-1.21 4.13-1.41a97.08 97.08 0 0 1 11.84-1.2 69.17 69.17 0 0 1 10.33.32c2.56.29 3.43 0 3.7 2.5a22.36 22.36 0 0 1-.41 4.25c-.65 6.56-1.35 13.38-5 19.08-.61 1 .92 1.85 1.53.89 5-7.92 4.81-17.83 5.92-26.83a.88.88 0 0 0-.65-.85c-10.83-2.08-21.92-1.12-32.66 1.06a.89.89 0 0 0-.65.85 81.76 81.76 0 0 0 7 26.3c.46 1 2 .14 1.53-.89z"/>
            <path d="M174.95 98c-1.71.15-3.41 0-5.12 0l.88.88c-.18-6.51-.93-13-.87-19.5l-.88.88c3.2 0 6.09.72 9.32.47 1.76-.14 3.54-.14 5.3-.3-.16 0 2.88-.5 2.8-.55 1 .6 1.86-.93.89-1.53-.52-.32-.74-.08-1.28-.13-1.84-.17-4.52.47-6.44.61-3.62.27-7-.37-10.6-.35a.9.9 0 0 0-.88.88c-.05 6.52.7 13 .88 19.5a.9.9 0 0 0 .88.88c1.71 0 3.41.15 5.13 0 1.12-.1 1.13-1.87 0-1.77z"/>
            <path d="M230.45 99c3-.19 6.09-.11 9.13-.5a.91.91 0 0 0 .88-.88c.26-6.75.57-13.5.25-20.25a.9.9 0 0 0-.88-.88c-4.86.07-9.71.49-14.57.67-1.5.06-5.45-.51-6.56.83-.72.87.52 2.13 1.25 1.25s7.56-.37 8.93-.43c3.65-.17 7.29-.51 10.94-.56l-.88-.88c.32 6.75 0 13.5-.25 20.25l.88-.88c-3 .39-6.08.31-9.12.5-1.13.07-1.14 1.84 0 1.77z"/>
            <path d="M178.16 178.27c-2.85 0-5.67-.2-8.5-.5a.88.88 0 0 0-.85.65c-1.05 7 .19 14 .47 21.07a.9.9 0 0 0 .88.88c12.52-.17 25-.71 37.55-.69s25.28-1 37.72.66a.9.9 0 0 0 1.12-.85 101.14 101.14 0 0 0-.16-12.54c-.22-2.25-.17-5.62-1.28-7.53-1.62-2.77-6.89-.95-9.44-1a.88.88 0 0 0 0 1.77c2 0 3.89-.4 5.83-.33 2.3.08 2.1.65 2.49 2.9a83.43 83.43 0 0 1 .79 16.72l1.12-.85c-8.25-1.13-16.5-.95-24.81-.78-8.74.18-17.48 0-26.23.2-4.28.09-8.56.21-12.85.31a68.63 68.63 0 0 1-7.9.17c-2.46-.23-2.46.31-3.23-2.15-1-3.26-.75-8.15-.78-11.51 0-1.5-.34-4.19 1.24-5.16 1-.61 5.55.31 6.82.32a.88.88 0 0 0 0-1.77z"/>
            <path d="M246.66 206.49c-11-1.67-22.83-.5-34-.67-13.83-.17-27.67.5-41.5.67v-7c13.83-.17 27.67-.83 41.5-.67 11.17.17 23-1 34 .67z"/>
            <path d="M176.38 144.42c2.82 1.78 6.43 1.32 9.61 1.19 5.82-.23 11.53-.63 17.34-1.17 6-.56 11.73 0 17.71.28 2 .09 7.2-1.27 8.84-.13.94.65 1.82-.88.89-1.53-1.45-1-4.6-.24-6.23-.18-4.6.17-9.14-.54-13.74-.56-6.32 0-12.51 1.21-18.81 1.43-4.13.14-11.12 1.42-14.72-.85-1-.61-1.85.92-.89 1.53z"/>
            <path d="M46.37 263.53c5.77 26.63-2 53.94 2.11 80.73a.85.85 0 0 0 .62.62c19.7 3 39.58-.91 59.33 1.09.63.06.93-.61.85-1.12-4.29-26.94-4.19-54.35-4.72-81.55a.91.91 0 0 0-.88-.88c-18.65-1.92-37.77-1.06-56.46 0-1.13.06-1.14 1.83 0 1.77 16.68-.94 33.56-1.52 50.25-.51a16 16 0 0 1 3.49.25c2.17.67 1.75.21 1.9 2.91.21 3.58.13 7.21.19 10.8.14 7.68.3 15.37.58 23a371.5 371.5 0 0 0 3.94 44.64l.85-1.12c-11.36-1.15-22.73-.32-34.11 0a160 160 0 0 1-18-.24c-3.87-.32-6.47-1.72-6.87-5.93-.28-2.89-.43-5.79-.5-8.7-.52-22.1 3.86-44.43-.88-66.31-.23-.98-1.93-.56-1.69.55z"/>
            <path d="M67 261.91a85.92 85.92 0 0 1-5.78-18.47c-.18-.93-1.18-5-.85-5.59.73-1.24 2.91-1.21 4.13-1.41a97.08 97.08 0 0 1 11.84-1.2 69.17 69.17 0 0 1 10.33.32c2.56.29 3.43 0 3.7 2.5a22.36 22.36 0 0 1-.41 4.25c-.65 6.56-1.35 13.38-5 19.08-.61 1 .92 1.85 1.53.89 5-7.92 4.81-17.83 5.92-26.83a.88.88 0 0 0-.65-.85c-10.83-2.08-21.92-1.12-32.66 1.06a.89.89 0 0 0-.65.85 81.76 81.76 0 0 0 7 26.3c.46 1 2 .14 1.53-.89z"/>
            <path d="M46.95 263c-1.71.15-3.41 0-5.12 0l.88.88c-.18-6.51-.93-13-.87-19.5l-.88.88c3.2 0 6.09.72 9.32.47 1.76-.14 3.54-.14 5.3-.3-.16 0 2.88-.5 2.8-.55 1 .6 1.86-.93.89-1.53-.52-.32-.74-.08-1.28-.13-1.84-.17-4.52.47-6.44.61-3.62.27-7-.37-10.6-.35a.9.9 0 0 0-.88.88c-.05 6.52.7 13 .88 19.5a.9.9 0 0 0 .88.88c1.71 0 3.41.15 5.13 0 1.12-.1 1.13-1.87 0-1.77z"/>
            <path d="M102.45 264c3-.19 6.09-.11 9.13-.5a.91.91 0 0 0 .88-.88c.26-6.75.57-13.5.25-20.25a.9.9 0 0 0-.88-.88c-4.86.07-9.71.49-14.57.67-1.5.06-5.45-.51-6.56.83-.72.87.52 2.13 1.25 1.25s7.56-.37 8.93-.43c3.65-.17 7.29-.51 10.94-.56l-.88-.88c.32 6.75 0 13.5-.25 20.25l.88-.88c-3 .39-6.08.31-9.12.5-1.13.07-1.14 1.84 0 1.77z"/>
            <path d="M200 262.91a85.92 85.92 0 0 1-5.78-18.47c-.18-.93-1.18-5-.85-5.59.73-1.24 2.91-1.21 4.13-1.41a97.08 97.08 0 0 1 11.84-1.2 69.17 69.17 0 0 1 10.33.32c2.56.29 3.43 0 3.7 2.5a22.36 22.36 0 0 1-.41 4.25c-.65 6.56-1.35 13.38-5 19.08-.61 1 .92 1.85 1.53.89 5-7.92 4.81-17.83 5.92-26.83a.88.88 0 0 0-.65-.85c-10.83-2.08-21.92-1.12-32.66 1.06a.89.89 0 0 0-.65.85 81.76 81.76 0 0 0 7 26.3c.46 1 2 .14 1.53-.89z"/>
            <path d="M179.95 264c-1.71.15-3.41 0-5.12 0l.88.88c-.18-6.51-.93-13-.87-19.5l-.88.88c3.2 0 6.09.72 9.32.47 1.76-.14 3.54-.14 5.3-.3-.16 0 2.88-.5 2.8-.55 1 .6 1.86-.93.89-1.53-.52-.32-.74-.08-1.28-.13-1.84-.17-4.52.47-6.44.61-3.62.27-7-.37-10.6-.35a.9.9 0 0 0-.88.88c-.05 6.52.7 13 .88 19.5a.9.9 0 0 0 .88.88c1.71 0 3.41.15 5.13 0 1.12-.1 1.13-1.87 0-1.77z"/>
            <path d="M235.45 265c3-.19 6.09-.11 9.13-.5a.91.91 0 0 0 .88-.88c.26-6.75.57-13.5.25-20.25a.9.9 0 0 0-.88-.88c-4.86.07-9.71.49-14.57.67-1.5.06-5.45-.51-6.56.83-.72.87.52 2.13 1.25 1.25s7.56-.37 8.93-.43c3.65-.17 7.29-.51 10.94-.56l-.88-.88c.32 6.75 0 13.5-.25 20.25l.88-.88c-3 .39-6.08.31-9.12.5-1.13.07-1.14 1.84 0 1.77z"/>
            <path d="M50.16 343.27c-2.85 0-5.67-.2-8.5-.5a.88.88 0 0 0-.85.65c-1.05 7 .19 14 .47 21.07a.9.9 0 0 0 .88.88c12.52-.17 25-.71 37.55-.69s25.28-1 37.72.66a.9.9 0 0 0 1.12-.85 101.14 101.14 0 0 0-.16-12.54c-.22-2.25-.17-5.62-1.28-7.53-1.62-2.77-6.89-.95-9.44-1a.88.88 0 0 0 0 1.77c2 0 3.89-.4 5.83-.33 2.3.08 2.1.65 2.49 2.9a83.43 83.43 0 0 1 .79 16.72l1.12-.85c-8.25-1.13-16.5-.95-24.81-.78-8.74.18-17.48 0-26.23.2-4.28.09-8.56.21-12.85.31a68.63 68.63 0 0 1-7.9.17c-2.46-.23-2.46.31-3.23-2.15-1-3.26-.75-8.15-.78-11.51 0-1.5-.34-4.19 1.24-5.16 1-.61 5.55.31 6.82.32a.88.88 0 0 0 0-1.77z"/>
            <path d="M118.66 371.49c-11-1.67-22.83-.5-34-.67-13.83-.17-27.67.5-41.5.67v-7c13.83-.17 27.67-.83 41.5-.67 11.17.17 23-1 34 .67z"/>
            <path d="M48.38 309.42c2.82 1.78 6.43 1.32 9.61 1.19 5.82-.23 11.53-.63 17.34-1.17 6-.56 11.73 0 17.71.28 2 .09 7.2-1.27 8.84-.13.94.65 1.82-.88.89-1.53-1.45-1-4.6-.24-6.23-.18-4.6.17-9.14-.54-13.74-.56-6.32 0-12.51 1.21-18.81 1.43-4.13.14-11.12 1.42-14.72-.85-1-.61-1.85.92-.89 1.53z"/>
            <path d="M58.66 463.27c.7-5.8-1.45-12-1.88-17.83-.19-2.6-.25-5.22-.25-7.83 0-2-.52-6.83.94-8.26s5.9-1.17 8.05-1.4c3.13-.34 6.27-.62 9.42-.68 6.23-.12 12.42.82 18.66.82 2.19 0 4.35-.1 6.53-.3 2.92-.26 5.61-.72 6.26 2.75.61 3.29 0 6.73.07 10.06a107.37 107.37 0 0 0 1.13 13.75c.37 2.34 2.19 6.75 1.4 9-.37 1.08 1.33 1.54 1.7.47.52-1.48-.29-3.84-.55-5.3a102.72 102.72 0 0 1-1.45-10.72c-.28-4-.46-7.87-.36-11.85.06-2.44.37-5.53-.71-7.82-.78-1.66-1.75-2.12-3.55-2.31-4.28-.43-8.91.56-13.25.45-5.62-.13-11.2-.93-16.83-.75-6 .19-11.88 1.06-17.79 1.82a.92.92 0 0 0-.88.88 85 85 0 0 0-.31 17.2c.42 5.66 2.55 12.25 1.88 17.83-.14 1.13 1.63 1.12 1.77 0z"/>
            <path d="M51.33 179c1.75.29 3.52.5 5.3.68-2.51-24.53 4-51.81-1.41-75.41 0 0 30.34-1.73 50.56-.49 0-1.85-.07-3.69-.1-5.51-4.31-.47-9.48-.73-14.91-.85 4.37-5.91 4.44-11.55 6.12-18.81l-4-.38c-1.71 7.39-1.76 13.1-6.36 19.12-18.06-.18-37.33.92-37.33.92 5.8 25.36-2.09 54.91 2.13 80.73z"/>
            <path d="M231.78 103.81c0-1.85-.07-3.69-.1-5.51-4.31-.47-9.48-.73-14.91-.85 4.37-5.91 4.44-11.55 6.12-18.81l-4-.38c-1.71 7.39-1.76 13.1-6.36 19.12-18.06-.18-37.33.92-37.33.92 5.8 25.33-2.11 54.88 2.11 80.73 1.75.29 3.52.5 5.3.68-2.51-24.53 4-51.81-1.41-75.41.02 0 30.36-1.74 50.58-.49z"/>
            <path d="M53.22 269.3s30.34-1.73 50.56-.49c0-1.85-.07-3.69-.1-5.51-4.31-.47-9.48-.73-14.91-.85 4.37-5.91 4.44-11.55 6.12-18.81l-4-.38c-1.71 7.39-1.76 13.1-6.36 19.12-18.06-.18-37.33.92-37.33.92 5.8 25.33-2.11 54.88 2.11 80.73 1.75.29 3.52.5 5.3.68-2.49-24.53 4.02-51.81-1.39-75.41z"/>
            <path d="M105.63 427c-1.88-.78-6.41.16-8.29.16a117.82 117.82 0 0 1-14.86-.47c-8.76-.94-17.67.47-26.27 1.56-.78 5.16-.62 11.73-.31 17.2.31 3.13.63 6.41 1.09 9.54.31 2.66 1.41 5.79.78 8.29h5.8c-.21-1.14-.46-2.27-.58-3.32-.47-3.13-.78-6.41-1.09-9.54-.31-5.47-.47-12 .31-17.2 8.6-1.09 17.51-2.5 26.27-1.56a117.82 117.82 0 0 0 14.86.47c.93 0 2.5-.23 4.09-.37-.16-2.29-.62-4.24-1.8-4.76z"/>
            <path d="M165.54 461.65c0-40.44 2.65-80.93 0-121.33a.9.9 0 0 0-.65-.85c-7-1.11-13.89.47-20.9.64a.9.9 0 0 0-.88.88c-1.24 20.4-1.31 40.83-1.92 61.26s3.81 40.44 2.59 60.75c-.07 1.14 1.7 1.13 1.77 0 1-16.91-2.24-33.62-2.68-50.49s.54-33.85 1.07-50.67q.18-5.7.43-11.4c.09-2.06-.21-4.62.34-6.62.67-2.43 2-2 4.39-2.24 3.54-.32 7.76-1.39 11.32-.81s3.53 2 3.7 5.1q.18 3.26.31 6.51c.71 17.06.6 34.15.3 51.23-.34 19.35-.93 38.69-1 58a.88.88 0 0 0 1.77 0z"/>
            <path d="M142.86 421.05c6.89-1.16 14 .44 20.24-3.3a.88.88 0 0 0-.89-1.53c-6 3.61-13.17 2-19.82 3.13-1.12.19-.64 1.89.47 1.7z"/>
            <path d="M274.21 330.22c-1.87 1-5.45.58-7.5.75-2.22.18-4.43.51-6.66.6s-5-.41-6.63 1.39c-2.32 2.54-3 8.2-3.55 11.35-1.05 6.61-.84 13.38-.56 20 .64 15.21.17 30.42.87 45.63.79 17.23 2.2 34.42 2.26 51.68h1.77a5 5 0 0 0-.79-3.11c-.63-.94-2.17-.05-1.53.89l.55 2.22a.88.88 0 0 0 1.77 0c0-15.63-1.2-31.2-2-46.8-.76-14.68-.15-29.35-.81-44-.29-6.48-.71-13-.42-19.45.22-4.93.57-12.11 3.37-16.47 1.69-2.63 7.75-1.7 10.68-2s7.28.3 10.08-1.14c1-.52.12-2-.89-1.53z"/>
            <path d="M252 420.5a52.38 52.38 0 0 1 13.44-2.21c4-.27 9.76-1 13.45 1.06 1 .55 1.89-1 .89-1.53-3.74-2.09-9-1.59-13.12-1.37-5 .26-10.36.7-15.13 2.34-1.07.37-.61 2.07.47 1.7z"/>
            <path d="M166.66 438.54c27.38-.46 55 9.5 82.23 4 1.11-.23.64-1.93-.47-1.7-27.07 5.49-54.58-4.49-81.77-4a.88.88 0 0 0 0 1.77z"/>
            <path d="M170 415.2c25.52.8 51.11 4.13 76.67 3.33 1.13 0 1.14-1.8 0-1.77-25.55.8-51.14-2.54-76.67-3.33-1.14 0-1.14 1.73 0 1.77z"/>
            <path d="M170.32 395.87c16.85 0 33.62.72 50.43-.92 5.72-.56 11.46-.56 17.2-.86 2-.11 7.75.53 9.33-1.15.78-.83-.47-2.08-1.25-1.25-1.23 1.31-10.33.75-12.5.83-5.89.24-11.69.62-17.57 1.07-15.22 1.17-30.4.55-45.64.5a.88.88 0 0 0 0 1.77z"/>
            <path d="M168 372.54c26 0 52-2 78-2a.88.88 0 0 0 0-1.77c-26 0-52 2-78 2a.88.88 0 0 0 0 1.77z"/>
            <path d="M227.23 319.41c-2.72-.34-4.51 2.27-4.42 4.77s2.34 4.62 4.85 4c3.55-.84 3.51-8.88-.43-8.5l.88.88v-.29a.88.88 0 0 0-1.77 0v.29a.89.89 0 0 0 .88.88c1.72-.17 1.57 4.36.22 5s-2.74-.9-2.86-2.12c-.17-1.65.85-3.35 2.64-3.12 1.14.12 1.13-1.65.01-1.79z"/>
            <path d="M237.25 263.18c-1.43-1.08-7.51-1.45-13.47-1.47 3.51-5.83 3.32-11.18 4.51-18.22l-4-.14c-1.21 7.11-1 12.5-4.62 18.4-3 .06-5.59.2-7.18.36-6.48.81-13 2.7-19.75 3.24-4.42.27-9.14-1.62-13.27-1.35-.29 8.09.59 15.91 1.18 24 1.18 14.83-1.47 29.94-1.47 44.78 0 12.41 1.69 26.47 1.69 38.88l6.87-.23c-.39-10.76-1.56-22.28-1.56-32.66 0-14.83 2.65-29.94 1.47-44.78-.59-8.09-1.47-15.91-1.18-24 4.13-.27 8.84 1.62 13.27 1.35 6.78-.54 13.27-2.43 19.75-3.24a136.45 136.45 0 0 1 18.26-.17c-.13-1.74-.29-3.4-.5-4.75z"/>
            <path d="M144.75 291.24a65.24 65.24 0 0 0 9.9.54.88.88 0 0 0 0-1.77 62.28 62.28 0 0 1-9.43-.48c-1.11-.17-1.59 1.53-.47 1.7z"/>
            <path d="M124.14 244.49c3.06 0 6.09-.47 9.15-.51a.88.88 0 0 0 0-1.77c-3.06 0-6.09.48-9.15.51a.88.88 0 0 0 0 1.77z"/>
            <path d="M153.12 262.8a16 16 0 0 0 4.81-.54c1.08-.34.62-2-.47-1.7a14.4 14.4 0 0 1-4.34.48.88.88 0 0 0 0 1.77z"/>
            <path d="M122.38 272.42a15.44 15.44 0 0 0 9.32-1.61c1-.49.13-2-.89-1.53a13.34 13.34 0 0 1-8 1.44c-1.11-.16-1.59 1.54-.47 1.7z"/>
            <path d="M130.75 314.66a19.83 19.83 0 0 0 5.83-1c1.08-.35.62-2.06-.47-1.7a18.17 18.17 0 0 1-5.36 1 .88.88 0 0 0 0 1.77z"/>
            <path d="M165.83 316.18a13.94 13.94 0 0 0 6-1.65c1-.5.13-2-.89-1.53a11.81 11.81 0 0 1-5.15 1.4.88.88 0 0 0 0 1.77z"/>
            <path d="M129.28 337.42a5.29 5.29 0 0 0 4.45 0c1-.47.14-2-.89-1.53a3.37 3.37 0 0 1-2.67 0c-1-.47-1.93 1.05-.89 1.53z"/>
            <path d="M118.82 382.25c2 .47 4.09.55 6.1 1 1.11.26 1.58-1.45.47-1.7-2-.47-4.09-.55-6.1-1-1.11-.26-1.58 1.45-.47 1.7z"/>
            <path d="M130 361.4a21.19 21.19 0 0 1 7.67 0c1.11.2 1.59-1.5.47-1.7a23.65 23.65 0 0 0-8.6 0c-1.12.21-.64 1.91.47 1.7z"/>
            <path d="M71.53 397.5c1.81.4 3.5.07 5.32 0a.88.88 0 0 0 0-1.77c-1.65 0-3.21.4-4.85 0-1.11-.25-1.58 1.46-.47 1.7z"/>
            <path d="M113.19 408.18a23.36 23.36 0 0 1 5.36-.48.88.88 0 0 0 0-1.77 25.48 25.48 0 0 0-5.83.54c-1.11.26-.64 2 .47 1.7z"/>
            <path d="M91.6 384.82h6.1a.88.88 0 0 0 0-1.77h-6.1a.88.88 0 0 0 0 1.77z"/>
            <path d="M39.46 399c2.38-.48 4.74-1 7.12-1.53 1.11-.23.64-1.93-.47-1.7-2.38.48-4.74 1-7.12 1.53-1.11.23-.64 1.93.47 1.7z"/>
            <path d="M36.68 430.07c2.72 0 5.42.47 8.14.51a.88.88 0 0 0 0-1.77c-2.72 0-5.42-.47-8.14-.51a.88.88 0 0 0 0 1.77z"/>
            <path d="M122.1 435.67a16.94 16.94 0 0 0 7.06-1.65c1-.49.13-2-.89-1.53a14.84 14.84 0 0 1-6.16 1.4.88.88 0 0 0 0 1.77z"/>
            <path d="M79.39 413.8h2.86a.88.88 0 0 0 0-1.77h-.83a.88.88 0 0 0 0 1.77h.83a.88.88 0 0 0 0-1.77h-2.86a.88.88 0 0 0 0 1.77z"/>
            <path d="M26.79 296.83a9.57 9.57 0 0 0 5.55 0c1.08-.33.62-2-.47-1.7a7.85 7.85 0 0 1-4.61 0c-1.09-.33-1.56 1.37-.47 1.7z"/>
            <path d="M33.4 323.27a12.75 12.75 0 0 0 6.06 0c1.11-.26.64-2-.47-1.7a10.68 10.68 0 0 1-5.12 0c-1.11-.26-1.58 1.44-.47 1.7z"/>
            <path d="M36.18 277.54h7.12a.88.88 0 0 0 0-1.77h-7.12a.88.88 0 0 0 0 1.77z"/>
            <path d="M24.48 353.81a15 15 0 0 0 6.52-1.14c1-.48.13-2-.89-1.53a13 13 0 0 1-5.66.9.88.88 0 0 0 0 1.77z"/>
            <path d="M22.21 380.72a25.49 25.49 0 0 0 5.83.54.88.88 0 0 0 0-1.77 23.37 23.37 0 0 1-5.36-.48c-1.11-.26-1.58 1.44-.47 1.7z"/>
            <path d="M32.34 451.4c3.22-.53 6.44-1 9.66-1.53 1.12-.18.64-1.89-.47-1.7-3.22.53-6.44 1-9.66 1.53-1.12.18-.64 1.89.47 1.7z"/>
            <path d="M156.17 232.29c2.38 0 4.73-.48 7.12-.51a.88.88 0 0 0 0-1.77c-2.38 0-4.74.47-7.12.51a.88.88 0 0 0 0 1.77z"/>
            <path d="M183.62 220.09c1.88 0 3.72-.47 5.59-.51a.88.88 0 0 0 0-1.77c-1.88 0-3.71.48-5.59.51a.88.88 0 0 0 0 1.77z"/>
            <path d="M209.83 224.63a7.19 7.19 0 0 0 5.77-1.11c1-.61.07-2.14-.89-1.53a5.47 5.47 0 0 1-4.4.93.88.88 0 0 0-.47 1.7z"/>
            <path d="M255.55 227.17a44.83 44.83 0 0 0 8.64-2c1.05-.4.6-2.11-.47-1.7a44.83 44.83 0 0 1-8.64 2c-1.12.19-.64 1.89.47 1.7z"/>
            <path d="M258.6 260.22c2.22-.45 4.42-1 6.61-1.53a.88.88 0 0 0-.47-1.7c-2.19.55-4.39 1.08-6.61 1.53-1.11.23-.64 1.93.47 1.7z"/>
            <path d="M244.87 288.19l6.1-1.53a.88.88 0 0 0-.47-1.7l-6.1 1.53a.88.88 0 0 0 .47 1.7z"/>
            <path d="M261.92 302.45a24.91 24.91 0 0 0 5.83-.54c1.11-.26.64-2-.47-1.7a22.83 22.83 0 0 1-5.36.48.88.88 0 0 0 0 1.77z"/>
            <path d="M247.18 321.27h4.58a.88.88 0 0 0 0-1.77h-4.58a.88.88 0 0 0 0 1.77z"/>
            <path d="M258.36 202.8a43.54 43.54 0 0 0 7.86-1c1.11-.22.64-1.93-.47-1.7a40.9 40.9 0 0 1-7.39 1 .88.88 0 0 0 0 1.77z"/>
            <path d="M245.65 169.24a18.28 18.28 0 0 1 5.36.48c1.09.33 1.56-1.37.47-1.7a19.92 19.92 0 0 0-5.83-.54.88.88 0 0 0 0 1.77z"/>
            <path d="M263.21 142.26a16 16 0 0 0 4.81.54.88.88 0 0 0 0-1.77 14.39 14.39 0 0 1-4.34-.48c-1.09-.34-1.55 1.37-.47 1.7z"/>
            <path d="M247.45 128.54a25.44 25.44 0 0 0 5.83.54.88.88 0 0 0 0-1.77 23.33 23.33 0 0 1-5.36-.48c-1.11-.26-1.58 1.44-.47 1.7z"/>
            <path d="M265.25 99a28 28 0 0 0 6.34.54.88.88 0 0 0 0-1.77 25.85 25.85 0 0 1-5.87-.48c-1.11-.26-1.58 1.45-.47 1.7z"/>
            <path d="M249.49 79.22a46 46 0 0 0 8.37.54.88.88 0 0 0 0-1.77 43.52 43.52 0 0 1-7.9-.48c-1.11-.2-1.59 1.5-.47 1.7z"/>
            <path d="M265 61.45a46.53 46.53 0 0 1 8.41.48c1.11.2 1.59-1.5.47-1.7a49 49 0 0 0-8.88-.54.88.88 0 0 0 0 1.77z"/>
            <path d="M234.19 59.9a38.72 38.72 0 0 1 6.88-1 .88.88 0 0 0 0-1.77 41.44 41.44 0 0 0-7.35 1c-1.11.22-.64 1.93.47 1.7z"/>
            <path d="M187.46 57.86c1.87.55 3.73 0 5.55-.51a.88.88 0 0 0-.47-1.7c-1.5.38-3.08 1-4.62.51a.88.88 0 0 0-.47 1.7z"/>
            <path d="M119.29 220.56c2.17-.43 4.44-1 6.65-.51 1.11.23 1.58-1.47.47-1.7-2.54-.54-5.09 0-7.59.51-1.11.22-.64 1.93.47 1.7z"/>
            <path d="M144.75 184a23.6 23.6 0 0 0 8.6 0c1.12-.21.64-1.91-.47-1.7a21.15 21.15 0 0 1-7.67 0c-1.11-.21-1.59 1.5-.47 1.7z"/>
            <path d="M123.12 164.67a29.51 29.51 0 0 0 8.88-1.56c1.08-.35.62-2.06-.47-1.7a27.94 27.94 0 0 1-8.41 1.49.88.88 0 0 0 0 1.77z"/>
            <path d="M158.47 150.91c3.14.45 6.24.07 9.39 0a.88.88 0 0 0 0-1.77c-3 0-6 .45-8.92 0-1.11-.16-1.59 1.54-.47 1.7z"/>
            <path d="M152.1 129.58h6.1a.88.88 0 0 0 0-1.77h-6.1a.88.88 0 0 0 0 1.77z"/>
            <path d="M121.09 124.5h8.13a.88.88 0 0 0 0-1.77h-8.13a.88.88 0 0 0 0 1.77z"/>
            <path d="M131.76 103.15h6.61a.88.88 0 0 0 0-1.77h-6.61a.88.88 0 0 0 0 1.77z"/>
            <path d="M153.12 85.86a43.47 43.47 0 0 1 7.9.48c1.11.21 1.59-1.5.47-1.7a46 46 0 0 0-8.37-.54.88.88 0 0 0 0 1.77z"/>
            <path d="M125.39 67.52a40.47 40.47 0 0 1 7.39-.48.88.88 0 0 0 0-1.77 43 43 0 0 0-7.86.54c-1.12.21-.64 1.91.47 1.7z"/>
            <path d="M154.64 65.52a8.52 8.52 0 0 1 4.64.9c1 .6 1.86-.93.89-1.53a10.24 10.24 0 0 0-5.53-1.14.88.88 0 0 0 0 1.77z"/>
            <path d="M38.21 66.54h4.07a.88.88 0 0 0 0-1.77h-4.07a.88.88 0 0 0 0 1.77z"/>
            <path d="M80.92 58.91a43 43 0 0 0 7.86-.54c1.12-.21.64-1.91-.47-1.7a40.46 40.46 0 0 1-7.39.48.88.88 0 0 0 0 1.77z"/>
            <path d="M25.73 109.72a37.3 37.3 0 0 1 6.88-1 .88.88 0 0 0 0-1.77 39.86 39.86 0 0 0-7.35 1c-1.11.23-.64 1.93.47 1.7z"/>
            <path d="M33.13 130.6a27.91 27.91 0 0 0 6.34-.54c1.11-.26.64-2-.47-1.7a25.81 25.81 0 0 1-5.87.48.88.88 0 0 0 0 1.77z"/>
            <path d="M22.68 169.21a22.88 22.88 0 0 1 7.9-1.49.88.88 0 0 0 0-1.77 24.33 24.33 0 0 0-8.37 1.56c-1.05.4-.6 2.11.47 1.7z"/>
            <path d="M26 200.77c2.3 0 4.57.46 6.84 0 1.11-.24.64-1.94-.47-1.7-2.1.45-4.26 0-6.37 0a.88.88 0 0 0 0 1.77z"/>
            <path d="M30.31 229.21a16.27 16.27 0 0 1 8.17-1c1.11.16 1.59-1.54.47-1.7a18 18 0 0 0-9.11 1c-1.05.4-.6 2.11.47 1.7z"/>
            <path d="M63.4 216a30.42 30.42 0 0 0 6.85.54.88.88 0 0 0 0-1.77 28.34 28.34 0 0 1-6.38-.48c-1.11-.25-1.58 1.45-.47 1.7z"/>
            <path d="M83.73 225.14a36.53 36.53 0 0 0 6.84.54.88.88 0 0 0 0-1.77 34 34 0 0 1-6.37-.48c-1.11-.21-1.59 1.49-.47 1.7z"/>
            <path d="M219.95 79.24c1-1.15 9.56-.46 11-.54a42.43 42.43 0 0 1 5.41-.34c2.69.2 2.39 0 2.76 2.66.52 3.84-.06 8.19-.21 12-.12 3.08 0 3.36-3 4a24.84 24.84 0 0 1-5.44.18c-5.56-.16-11.16-.86-16.71-1.29l.76 1.33c5-7.92 4.81-17.83 5.92-26.83a.88.88 0 0 0-.65-.85c-10.83-2.08-21.92-1.12-32.66 1.06a.89.89 0 0 0-.65.85 81.76 81.76 0 0 0 7 26.3l.76-1.33c-6.36.5-12.73 1.17-19.1 1.5-3.54.18-4.23.58-4.56-3-.24-2.59-.36-5.21-.51-7.8-.08-1.35-.89-4.85-.23-5.85 1.22-1.83 2.44-.59 4.39-.47a38.93 38.93 0 0 0 5-.21c1.21-.08 6.42-1.2 7.15-.75 1 .6 1.86-.93.89-1.53-1.44-.9-4.75.28-6.45.38-4 .23-7.86-.22-11.87-.25a.9.9 0 0 0-.88.88c0 6.52.68 13 .88 19.5a.9.9 0 0 0 .88.88c8.15-.12 16.25-.87 24.39-1.51a.9.9 0 0 0 .76-1.33 85.92 85.92 0 0 1-5.78-18.47c-.18-.93-1.18-5-.85-5.59.73-1.24 2.91-1.21 4.13-1.41a97.08 97.08 0 0 1 11.84-1.2 69.17 69.17 0 0 1 10.33.32c2.56.29 3.43 0 3.7 2.5a22.36 22.36 0 0 1-.41 4.25c-.65 6.56-1.35 13.38-5 19.08a.89.89 0 0 0 .76 1.33c8.6.66 17.23 1.82 25.84.79a.91.91 0 0 0 .88-.88c.26-6.75.56-13.49.25-20.25a.9.9 0 0 0-.88-.88c-5.08.08-10.17.48-15.25.71-1.28.06-4.87-.42-5.87.8-.72.87.52 2.13 1.25 1.25z"/>
            <path d="M178.16 178.27c-2.85 0-5.67-.2-8.5-.5a.88.88 0 0 0-.85.65c-1.05 7 .19 14 .47 21.07a.9.9 0 0 0 .88.88c12.52-.17 25-.71 37.55-.69s25.28-1 37.72.66a.9.9 0 0 0 1.12-.85 101.14 101.14 0 0 0-.16-12.54c-.22-2.25-.17-5.62-1.28-7.53-1.62-2.77-6.89-.95-9.44-1a.88.88 0 0 0 0 1.77c2 0 3.89-.4 5.83-.33 2.3.08 2.1.65 2.49 2.9a83.43 83.43 0 0 1 .79 16.72l1.12-.85c-8.25-1.13-16.5-.95-24.81-.78-8.74.18-17.48 0-26.23.2-4.28.09-8.56.21-12.85.31a68.63 68.63 0 0 1-7.9.17c-2.46-.23-2.46.31-3.23-2.15-1-3.26-.75-8.15-.78-11.51 0-1.5-.34-4.19 1.24-5.16 1-.61 5.55.31 6.82.32a.88.88 0 0 0 0-1.77z"/>
            <path d="M181.75 371.65c-.06-9.79-1-19.54-1.43-29.32a252.18 252.18 0 0 1 .78-30.08 197 197 0 0 0 0-29.82c-.38-4.79-1.2-9.93-.8-14.72.32-3.87 2-2.72 5.46-2.19a39 39 0 0 0 6.14.71c8.33 0 16.41-3.15 24.75-3.51q4.62-.2 9.26-.11c2.61.05 6.6-.37 9 .69 1.76.77 1.67 1.72 1.88 3.73s.25 3.84.27 5.75a128.31 128.31 0 0 1-.94 13.1 213.5 213.5 0 0 0-1 31.3c.66 11.49 2.14 22.92 2.57 34.43.14 3.88-.11 7.69-.19 11.57 0 2.24-.32 4.91.71 7l.76-1.33-58.15 1.93c-1.13 0-1.14 1.8 0 1.77l58.18-1.94a.89.89 0 0 0 .76-1.33c-1.2-2.43-.47-6.45-.36-9.06.12-2.88.19-5.71.08-8.6-.34-8.94-1.31-17.84-2-26.75a184.29 184.29 0 0 1-.41-28.71c.58-7.75 1.87-15.59 1.77-23.37 0-3 .86-9.3-2.18-10.86-3.74-1.92-10.39-1.13-14.37-1.11a86.82 86.82 0 0 0-15.35 1.28c-4.67.85-9.44 2.18-14.2 2.35-4.48.17-8.79-1.37-13.27-1.35a.9.9 0 0 0-.88.88c-.24 9.29 1 18.46 1.4 27.72.37 9-.5 18.08-1.11 27.09-1.2 17.72 1 35.16 1.11 52.85a.88.88 0 0 0 1.76.01z"/>
        </g>
    </g>
</svg>
