<svg xmlns="http://www.w3.org/2000/svg" viewBox="0 0 265.77 230.6">
    <defs>
        <style>
            .cls-1{fill:#fff}
        </style>
    </defs>
    <title>
        house_Asset 24
    </title>
    <g id="Layer_2" data-name="Layer 2">
        <g id="Layer_1-2" data-name="Layer 1">
            <path class="cls-1" d="M92.51 137.82h.11"/>
            <path class="cls-1" d="M236.32 220.25c-2.13 1.23-5.68.37-8.15.15a59.42 59.42 0 0 0-14.13.34c-3.25.56-6.28.34-9.53.56-3.48.22-7 1-10.43 1.23s-7.29.67-11 .9c-.79 0-1.79.22-2.24-.11l.22.67c.67 5.38-5.38 5.94-9.53 4.93-2.69-.67-6.06-1.12-6.5-4l-.45-2.8c.22.22.45.11.34.34-4-.11-20.94 4.47-21.05-1.59-.11-1.91-.59-5.59-.48-7.61.22-3 .11-6.17.22-9.31.56-8.19.67-16.48 1.68-24.56 1.23-10.09 1.46-27.7-12.22-29.38-7.06-.79-14.13 4.6-17.83 10.09-2 3-3.14 7.4-3.59 11a164.94 164.94 0 0 0-1.35 16.71c-.11 6.28-.22 12.56-.45 18.84-.22 5 .67 10.2.34 15.14a62.77 62.77 0 0 1-6.5 0c-2.58 0-5.83.45-8.3-.34.22 1.57.9 1.35.22 2.8-1.57 3.81-9.31 3.81-12.45 3.14-2.58-.45-3.36-3.7-3.14-6.17a1.9 1.9 0 0 1 .56.22c-5.83.11-11.66-1.91-17.72-1.91-5.83 0-11.77.67-17.61.11-5.72-.34-11.77 0-17.38-1l.34 1.68c-1.12 4.6-9.76 3.48-12.78 2-2.58-1.23-2.24-2.47-2-5.16.34-4.26.67-8.19.67-12.45 0-12.11-1.12-24-1.46-36-.22-10.54-.22-21.08-.22-31.51v-.2c1.67-.84 1.54-.8 2.27.59 2.68 3.83 6.13 1.53 8.82-1.53 5.37 7.67 11.5-1.53 18-1.15 1.53 0 2.68 3.07 4.6 3.07 2.68.38 4.22-2.68 6.52-3.07 2.3-.77 8.82-.77 11.12-.38 1.53 0 3.83 1.92 6.14 1.92 1.92 0 3.83-1.15 5.37-1.15s4.6 1.15 6.52 1.15c1.92.38 5.75 1.53 7.29 1.92 3.83 0 6.52-1.15 10-.77 2.68 0 3.07 1.92 6.14 1.53s4.22-2.3 7.67-2.3c3.45.38 3.45 1.92 7.67.77 1.92-.38 3.07-2.3 5.37-2.68s5 1.53 7.67 1.53c2.3-.38 4.6-1.53 7.29-1.53 1.92-.38 3.83.77 6.14.38 1.92 0 3.83-2.68 5.75-2.68 1.53 0 2.68 1.92 3.83 1.92 3.07 0 5.75-1.15 8.82-1.53s5.75 1.15 9.2 1.15c1.92 0 3.83-1.15 5.75-1.15 1.15 0 2.68 1.53 5 1.53s4.22-2.3 6.52-2.68c1.15 0 3.45 1.53 5 1.53 2.68 0 5-1.53 7.67-1.92 1.92 0 4.22 1.15 6.9 1.15 1.53-.38 3.07-2.3 5-2.3 1.15 0 2.68 1.92 4.22 1.92 4.6 0 10.35-1.15 15-1.53 1.92-.38 3.83-2.3 5.75-2.3 1.53 0 2.68 2.68 5 2.68s3.45-2.68 5.75-3.07a4.84 4.84 0 0 1 2.69 1.23v.27l-.22-.11c-.67 1.68-.34 4.93-.45 6.73q-.34 7.06-1 14.13a129.8 129.8 0 0 0-.34 14.8c-.11 2.91-1 5.72-1.23 8.63a60.6 60.6 0 0 0-.22 7.85c-.11 8.52-1 16.93-.56 25.46.22 3.59.45 7.06.9 10.65.34 2.47.56 3.25-1.46 4.6-3.14 2.24-11.79 3.67-13.83-1.94"/>
            <path class="cls-1" d="M25.72 210.63c-.34-3.48-.45-7-.79-10.43-.67-7.51-.9-14.8-1.12-22.31-.22-8.41.22-17-.34-25.34-.22-2.13-1.57-14.47.56-15l-12.11-.11c0 10.43 0 21 .22 31.51.34 12 1.46 23.88 1.46 36 0 4.26-.34 8.19-.67 12.45-.22 2.69-.56 3.93 2 5.16 3 1.46 11.66 2.58 12.78-2 .22-.9-.67-2.92-.9-3.92-.31-2.09-.87-3.99-1.09-6.01z"/>
            <path class="cls-1" d="M93.89 209.28c-.11-9.08-.22-18.28-.79-27.36s-1.35-18.05-1.35-27c0-4 .11-8.19.22-12.33a29.89 29.89 0 0 1 0-4.49h.11l-12.22-2.24c0 11.44-.56 22.88-.22 34.31.22 6.84 1 13.46.79 20.41-.22 5.94.11 11.89 0 17.94-.11 5.16-.22 10.2-.45 15.36-.22 2.47.11 3.25 2.69 3.7 3.14.67 10.88.67 12.45-3.14.67-1.46-.67-4.26-.9-5.83a64.11 64.11 0 0 1-.33-9.33z"/>
            <path class="cls-1" d="M181.36 133.14c0 .22-.11.34-.22.56l-14.69-.11c2.35 16.82-.11 33.53-.22 50.35 0 6.39.11 12.9-.11 19.29-.11 4.6-.9 9.19-1.23 13.79-.11 2.58-.67 5.49-.34 8.07.45 2.92 3.81 3.36 6.5 4 4.15 1 10.2.45 9.53-4.93a173 173 0 0 1-1-21.53c0-4.82-.22-9.64-.56-14.58s.34-10 .56-15c.22-8.19-.22-16.26.34-24.33.32-5.15 1.44-10.42 1.44-15.58z"/>
            <path class="cls-1" d="M254 129.67l-13.87.22c0 4.71.22 9.19-.22 13.9q-1.18 10.09-2 20.18c-1 12.22-1.35 24.56-1.91 36.78a122.23 122.23 0 0 0 0 15.7c.11 1.68-.22 4.37.79 5.61 2.8 3.59 9.75 2.58 12.89.34 2-1.35 1.79-2.13 1.46-4.6-.45-3.59-.67-7.06-.9-10.65-.45-8.52.45-16.93.56-25.46a60.6 60.6 0 0 1 .22-7.85c.22-2.92 1.12-5.72 1.23-8.63a129.79 129.79 0 0 1 .34-14.8q.67-7.06 1-14.13c.09-1.75-.22-4.9.41-6.61z"/>
            <path class="cls-1" d="M254 129.56v.12h.26z"/>
            <path class="cls-1" d="M58.68 164.2c-1.35-2.24-3.25-4-4.49-6.39-5.27 8.52-11.33 16.71-16.71 25.23l-.11.34c-.11-.22 9-.22 10.09-.11 3.48.45 6.84.78 10.32.9a52 52 0 0 1 5.94.11c1.68.11 3.25.67 4.93.34a58.07 58.07 0 0 0-3.81-10.09 96.5 96.5 0 0 0-6.16-10.33z"/>
            <path class="cls-1" d="M220.83 170.71c-2.47-5.27-5.83-9.87-8.86-14.8-3 3.48-5 8.07-7.51 12-1.91 2.92-3.81 5.72-5.94 8.41-1 1.23-2.47 2.58-2.69 4.15l-.9.45a73.31 73.31 0 0 0 10 .9c6.73.67 14 .9 20.63-.56-.92-3.6-3.16-7.19-4.73-10.55z"/>
            <path class="cls-1" d="M133.92.9c-5 1.92-11.5 1.92-17.25 4.22-11.12 5-19.17 14.19-28 22.62C64.14 52.67 41.13 81.43 20 109c-3.83 4.6-6.9 9.59-10.35 14.57-2.65 4.25-8.4 7.7-8.78 12.69 3.45 1.53 4.22-1.53 6.9-1.53 3.07.38 2.3 4.6 6.14 2.3 2.68 3.83 6.13 1.53 8.82-1.53 5.37 7.67 11.5-1.53 18-1.15 1.53 0 2.68 3.07 4.6 3.07 2.68.38 4.22-2.68 6.52-3.07 2.3-.77 8.82-.77 11.12-.38 1.53 0 3.83 1.92 6.14 1.92 1.92 0 3.83-1.15 5.37-1.15s4.6 1.15 6.52 1.15c1.92.38 5.75 1.53 7.29 1.92 3.83 0 6.52-1.15 10-.77 2.68 0 3.07 1.92 6.14 1.53s4.22-2.3 7.67-2.3c3.45.38 3.45 1.92 7.67.77 1.92-.38 3.07-2.3 5.37-2.68s5 1.53 7.67 1.53c2.3-.38 4.6-1.53 7.29-1.53 1.92-.38 3.83.77 6.14.38 1.92 0 3.83-2.68 5.75-2.68 1.53 0 2.68 1.92 3.83 1.92 3.07 0 5.75-1.15 8.82-1.53s5.75 1.15 9.2 1.15c1.92 0 3.83-1.15 5.75-1.15 1.15 0 2.68 1.53 5 1.53s4.22-2.3 6.52-2.68c1.15 0 3.45 1.53 5 1.53 2.68 0 5-1.53 7.67-1.92 1.92 0 4.22 1.15 6.9 1.15 1.53-.38 3.07-2.3 5-2.3 1.15 0 2.68 1.92 4.22 1.92 4.6 0 10.35-1.15 15-1.53 1.92-.38 3.84-2.3 5.75-2.3 1.53 0 2.68 2.68 5 2.68s3.45-2.68 5.75-3.07c1.53 0 3.07 1.92 5 1.92 7.29 0 11.5-.77 6.52-7.29-3.83-5-8.82-9.2-12.65-13.8-21.27-26.48-45.03-49.87-68.8-73.64-8.44-8.05-17.64-16.49-27.61-22.24C148.49 9 137-.63 131.24 1.29z"/>
            <path d="M11 137.4c0 16.52.2 33 1.08 49.47a219 219 0 0 1 .44 23.39c-.18 3.41-2.28 9.69.79 12.33 3.55 3.05 15.4 3.74 15.25-2.94 0-2-1.15-4.31-1.52-6.28a120.27 120.27 0 0 1-1.2-12.3c-.63-7.72-1-15.44-1.2-23.18-.21-8.67.32-17.39-.41-26-.2-2.33-2.12-12.19.2-13.56a.88.88 0 0 0-.89-1.53c-2.4 1.43-1.65 6.59-1.56 8.77.26 6.24.86 12.4.86 18.67 0 16.29-.53 33.58 2.5 49.64.75 4 2.43 8.92-3.86 9.07-3.36.08-7.21-.6-7.81-4.32-.58-3.55.68-8.2.76-11.87.09-4.41-.07-8.82-.26-13.22-.79-18.72-1.41-37.34-1.41-56.09a.88.88 0 0 0-1.77 0z"/>
            <path d="M79 135.83c0 10.17-.45 20.33-.31 30.5.14 9.88.78 19.69.79 29.57 0 9.32-.4 18.64-.37 28 0 4.57 3.34 5 7.47 4.92 3.6 0 9.24-.88 9.63-5.38.12-1.33-.6-2.73-.87-4a32.82 32.82 0 0 1-.56-6.38c-.09-5.16-.06-10.32-.17-15.48-.22-10.39-1-20.72-1.6-31.09-.13-2.46.11-27.51-.9-27.51a.88.88 0 0 0 0-1.77H92a.9.9 0 0 0-.88.88c-1.05 15.91.57 31.86 1.34 47.74.41 8.44.51 16.9.56 25.34 0 2.94.47 5.84.62 8.73s.25 5.3-2.67 6.56A12.37 12.37 0 0 1 86 227c-1.6 0-2.94 0-4.15-1.17-1.63-1.61-.92-3.5-.84-5.83.13-3.84.24-7.67.3-11.51.12-7.82.22-15.75 0-23.57-.24-8.12-.91-16.18-.88-24.32s.31-16.52.33-24.78a.88.88 0 0 0-1.77 0z"/>
            <path d="M165.56 133.59c2.08 16.14.05 32.24-.2 48.41-.13 8.05.28 16.14-.3 24.18-.28 3.88-.8 7.75-1.13 11.63-.22 2.6-1.11 6.15.11 8.62 2.33 4.72 14.47 6 17 .78.89-1.86.31-4 .12-6-.41-4.23-.58-8.48-.65-12.72-.13-7.75-.67-15.54-.64-23.28 0-8.76.63-17.5.65-26.28s1.56-17.19 1.75-25.84c0-1.07-1.39-1.11-1.74-.23l-.22.56c-.42 1.06 1.29 1.51 1.7.47l.22-.56-1.74-.23c-.18 8-1.67 15.92-1.74 24-.07 8.47-.28 16.87-.59 25.33-.29 8 .48 16.11.56 24.13 0 3.92.14 7.84.42 11.74.16 2.19 1.4 6.43.19 8.42-.95 1.56-3.61 1.93-5.19 1.91-4.11-.06-8.42-1.17-8.77-6-.27-3.74.61-7.86 1-11.59.9-8.41.76-16.81.76-25.25 0-17.45 2.47-34.86.22-52.27-.14-1.11-1.91-1.13-1.77 0z"/>
            <path d="M239.23 129.89c.08 15.31-2.18 30.41-3 45.69-.44 8.07-.69 16.14-1.08 24.21-.32 6.56-1.09 14 .09 20.48 1.22 6.7 14.2 6.77 16.72 1 .78-1.79-.06-4.3-.24-6.12-.39-4-.68-7.93-.72-11.91-.09-8 .67-15.94.67-23.92 0-4.17.85-8.11 1.31-12.24s0-8.05.18-12.05c.15-4.19.68-8.37 1-12.55s-.21-8.73.78-12.67l-1.3.53.22.11c1 .51 1.91-1 .89-1.53l-.22-.11a.9.9 0 0 0-1.3.53c-.71 2.83-.43 5.83-.57 8.73-.2 4.13-.57 8.24-.92 12.36-.31 3.69-.39 7.35-.36 11.05 0 4.24-.77 8.2-1.21 12.38-.8 7.72-.59 15.74-.83 23.51a128.89 128.89 0 0 0 .27 13.36c.3 4.08 2.34 9.57-2.15 11.85a10.45 10.45 0 0 1-5.56 1c-3.49-.36-4.46-2.58-5-5.95-.62-4.13-.35-8.72-.22-12.87.27-8.41.7-16.83 1.11-25.23.82-16.56 3.31-33 3.23-49.57a.88.88 0 0 0-1.77 0z"/>
            <path d="M180.11 224.37c4 .73 8.56-.36 12.57-.69 5.39-.44 10.68-1.25 16.1-1.46 5.13-.2 10.12-1.15 15.28-1 4 .14 8.28 1.22 12.14-.36 1-.43.58-2.14-.47-1.7-4.12 1.69-9.1.28-13.43.26-4.55 0-9 .83-13.53 1s-8.93.75-13.46 1.24-10.28 1.79-14.74 1c-1.11-.2-1.59 1.5-.47 1.7z"/>
            <path d="M94.67 222.47c4.64 1.07 10.31.65 15 .37a.9.9 0 0 0 .88-.88c.2-5.06-.41-10.08-.34-15.14s.29-10 .38-15.07c.18-9.39-.45-21.33 4.17-29.82 4.39-8.08 16.8-15.39 24.67-7.58 4.6 4.57 5.1 12.15 5 18.24-.17 8-1.36 16-1.77 24-.26 5-.42 10-.55 15.06-.08 3-.57 7.18.46 10.07 2.53 7.1 16.57 1.9 21.86 1.84a.89.89 0 0 0 .85-1.12 1.24 1.24 0 0 0-.74-.86.88.88 0 0 0-.89 1.53l-.07-.19.85-1.12c-4.37.05-8.67 1.29-13 1.5-2.86.14-6.08.48-7.17-2.75s-.36-7.53-.29-10.75c.2-8.81.52-17.67 1.36-26.44.53-5.6 1.28-11.11.71-16.75-.89-8.78-5.54-17.87-15.68-17.28-6.12.36-11.72 4.47-15.35 9.2s-4.49 10.66-5.12 16.47c-1.12 10.27-1 20.61-1.33 30.93-.07 2.55 0 5.06.12 7.6.09 1.68 1 6-.15 7.15-1.51 1.6-11.13.65-13.35.14-1.11-.26-1.58 1.45-.47 1.7z"/>
            <path d="M27.16 219.67a148 148 0 0 0 25.44 1.22c4.46-.1 8.93-.53 13.39-.09 4.75.47 9.32 1.63 14.11 1.7 1.06 0 1.11-1.39.23-1.74l-.56-.22c-1.06-.42-1.51 1.29-.47 1.7l.56.22.23-1.74c-4.17-.06-8.2-.92-12.32-1.47a79 79 0 0 0-13.22-.2c-8.77.28-18.25.26-26.93-1.1-1.11-.17-1.59 1.53-.47 1.7z"/>
            <path d="M38.25 183.49C43.68 175 49.61 166.81 55 158.26h-1.57c5.37 9 11.34 16.34 14.38 26.59l.85-1.12c-7.07.37-14.48-.89-21.55-1.37-2.76-.19-7.38-.88-10 .17l1.09 1.09.11-.34c.36-1.08-1.35-1.55-1.7-.47l-.11.34c-.2.59.46 1.34 1.09 1.09 2.49-1 7.2-.27 9.86-.08 6.94.5 14.26 1.71 21.19 1.35a.89.89 0 0 0 .85-1.12c-3.06-10.34-9.12-17.95-14.55-27a.89.89 0 0 0-1.53 0c-5.35 8.56-11.28 16.72-16.71 25.23-.59.94.94 1.83 1.55.87z"/>
            <path d="M196.67 180.7c1.29-3.94 5.82-8.14 8.07-11.62 2.68-4.16 4.71-8.68 7.85-12.54l-1.39-.18c2.43 3.9 5.08 7.68 7.28 11.71 1.1 2 6.49 10.49 5.44 12.27-1.26 2.14-11.51 1.12-13.89 1a122.49 122.49 0 0 1-14.88-1.27l.21 1.61.9-.45c1-.51.12-2-.89-1.53l-.9.45a.89.89 0 0 0 .21 1.61c9.94 1.76 21.16 2.3 31.08.34a.89.89 0 0 0 .62-1.09c-2.77-9.23-8.61-17.47-13.66-25.55a.89.89 0 0 0-1.39-.18c-3.24 4-5.36 8.61-8.13 12.9-2.54 3.94-6.78 7.58-8.25 12-.33 1.13 1.37 1.6 1.72.52z"/>
            <path d="M54.9 150.13a.88.88 0 0 0 0-1.77.88.88 0 0 0 0 1.77z"/>
            <path d="M61.8 148.41a.88.88 0 0 0 0-1.77.88.88 0 0 0 0 1.77z"/>
            <path d="M68.51 160.29v.11l.12-.45c.07-.16.34-.2.43-.21-1.13.05-1.14 1.82 0 1.77a1.26 1.26 0 0 0 1.23-1.23.89.89 0 0 0-.88-.88.91.91 0 0 0-.88.88z"/>
            <path d="M73.72 192.85q.7-.34.35-.31h-.19a.88.88 0 0 0 0 1.77c.67 0 1.44-.22 1.54-1a.91.91 0 0 0-.62-1.09.89.89 0 0 0-1.09.62z"/>
            <path d="M59.32 208.54l.34-.35a.88.88 0 0 0-1.24-1.19l-.34.35a.88.88 0 0 0 1.25 1.25z"/>
            <path d="M48 195.69a.88.88 0 0 0 0-1.77.88.88 0 0 0 0 1.77z"/>
            <path d="M40.75 207.42a.88.88 0 0 0 0-1.77.88.88 0 0 0 0 1.77z"/>
            <path d="M59.45 196.25c-.11.1-.22.2-.32.31s-.22.14-.09.12a.91.91 0 0 0-.88.88.89.89 0 0 0 .88.88 2.74 2.74 0 0 0 1.66-.95.88.88 0 0 0-1.25-1.25z"/>
            <path d="M38 193.27a.88.88 0 0 0 0-1.77.88.88 0 0 0 0 1.77z"/>
            <path d="M30.74 172.91a.88.88 0 0 0 0-1.77.88.88 0 0 0 0 1.77z"/>
            <path d="M36.61 156.3h-.35a.88.88 0 0 0 0 1.77h.35a.88.88 0 0 0 0-1.77z"/>
            <path d="M44.35 158.57a.77.77 0 0 1 0 .15l.44-.76 1.07.14a1.56 1.56 0 0 0-1-.41.89.89 0 0 0-.88.88.91.91 0 0 0 .88.88q-.47-.25-.3-.11a.92.92 0 0 0 1.07.14 1 1 0 0 0 .46-.91.88.88 0 0 0-1.77 0z"/>
            <path d="M39.09 146.42a3.13 3.13 0 0 1 .24.26l-.23-.39.09-.68.53-.41q.21 0 0 0a.88.88 0 0 0 0 1.77 1 1 0 0 0 1.07-.59c.21-.51-.09-.92-.44-1.27a.88.88 0 0 0-1.25 1.25z"/>
            <path d="M99.42 147a.88.88 0 0 0 0-1.77.88.88 0 0 0 0 1.77z"/>
            <path d="M106.13 150.63c0-.09 0-.36.21-.43l.45-.12h-.11a.91.91 0 0 0-.88.88.89.89 0 0 0 .88.88 1.26 1.26 0 0 0 1.23-1.23c.05-1.14-1.72-1.13-1.77 0z"/>
            <path d="M101 164.89q.7-.34.35-.31h-.19a.88.88 0 0 0 0 1.77c.67 0 1.44-.22 1.54-1a.91.91 0 0 0-.62-1.09.89.89 0 0 0-1.09.62z"/>
            <path d="M104.18 188v-.08l.12-.45.28-.12a.91.91 0 0 0-.88.88.89.89 0 0 0 .88.88 1.5 1.5 0 0 0 1.19-.65 1.21 1.21 0 0 0-.09-1.37.91.91 0 0 0-1.21-.32.89.89 0 0 0-.32 1.21z"/>
            <path d="M98.88 198.95v1a.88.88 0 0 0 1.77 0v-1a.88.88 0 0 0-1.77 0z"/>
            <path d="M105.57 213.16l-.1-.1a.88.88 0 0 0-1.25 1.25l.44.44a.88.88 0 0 0 1.25-1.25l-.44-.44-1.25 1.25.1.1a.88.88 0 0 0 1.25-1.25z"/>
            <path d="M96.66 185.68a.88.88 0 0 0 0-1.77.88.88 0 0 0 0 1.77z"/>
            <path d="M111.65 147.87v.26a.88.88 0 0 0 1.77 0v-.26a.88.88 0 0 0-1.77 0v.26a.88.88 0 0 0 1.77 0v-.26a.88.88 0 0 0-1.77 0z"/>
            <path d="M130.29 141.31v.35a.88.88 0 0 0 1.77 0v-.35a.88.88 0 0 0-1.77 0z"/>
            <path d="M147.67 146.77l.34-.35a.88.88 0 0 0-1.25-1.25l-.34.35a.88.88 0 0 0 1.25 1.25z"/>
            <path d="M157.12 143.66q.21.25 0 0v-.47q.18-.29 0 0c-.8.81.45 2.06 1.25 1.25a1.22 1.22 0 0 0 0-1.94c-.8-.81-2 .44-1.25 1.25z"/>
            <path d="M157.74 157.38h.34a.88.88 0 0 0 0-1.77h-.34a.88.88 0 0 0 0 1.77z"/>
            <path d="M151.53 167.39a1.26 1.26 0 0 0 1.23-1.23.89.89 0 0 0-.88-.88.91.91 0 0 0-.88.88v.11l.12-.45c.07-.16.34-.2.43-.21-1.13.05-1.14 1.82 0 1.77z"/>
            <path d="M156.08 177.83l.34.34a.88.88 0 0 0 1.25-1.25l-.34-.34a.88.88 0 0 0-1.25 1.25z"/>
            <path d="M153.95 190.47h-.35a.88.88 0 0 0 0 1.77h.35a.88.88 0 0 0 0-1.77z"/>
            <path d="M151.53 206.39a.88.88 0 0 0 0-1.77.88.88 0 0 0 0 1.77z"/>
            <path d="M157.4 210.18a.88.88 0 0 0 0-1.77.88.88 0 0 0 0 1.77z"/>
            <path d="M158.78 195.65h-.34a.88.88 0 0 0 0 1.77h.34a.88.88 0 0 0 0-1.77z"/>
            <path d="M193.29 147a.88.88 0 0 0 0-1.77.88.88 0 0 0 0 1.77z"/>
            <path d="M206.25 148.22v-.35a.88.88 0 0 0-1.77 0v.35a.88.88 0 0 0 1.77 0z"/>
            <path d="M219.33 140.62v.11l.12-.45c.07-.16.34-.2.43-.21-1.13.05-1.14 1.82 0 1.77a1.26 1.26 0 0 0 1.23-1.23.89.89 0 0 0-.88-.88.91.91 0 0 0-.88.88z"/>
            <path d="M225.11 150.57s.1.19.09.06a.91.91 0 0 0 .88.88.89.89 0 0 0 .88-.88 2.17 2.17 0 0 0-.6-1.31c-.79-.82-2 .43-1.25 1.25z"/>
            <path d="M222.63 160.83a1.26 1.26 0 0 0 1.23-1.23.89.89 0 0 0-.88-.88.91.91 0 0 0-.88.88v.11l.12-.45c.07-.16.34-.2.43-.21-1.13.05-1.14 1.82 0 1.77z"/>
            <path d="M232.29 156.3h-.35a.88.88 0 0 0 0 1.77h.35a.88.88 0 0 0 0-1.77z"/>
            <path d="M232.29 140.82a.88.88 0 0 0 0-1.77.88.88 0 0 0 0 1.77z"/>
            <path d="M199.85 158.42a.88.88 0 0 0 0-1.77.88.88 0 0 0 0 1.77z"/>
            <path d="M188.8 160.1a1.26 1.26 0 0 0-1.23 1.23c-.05 1.14 1.72 1.13 1.77 0 0 .09 0 .36-.21.43l-.45.12h.11a.91.91 0 0 0 .88-.88.89.89 0 0 0-.88-.88z"/>
            <path d="M191.91 176.36h.34a.88.88 0 0 0 0-1.77h-.34a.88.88 0 0 0 0 1.77z"/>
            <path d="M187.77 190.51a1.26 1.26 0 0 0 1.23-1.23.89.89 0 0 0-.88-.88.91.91 0 0 0-.88.88v.11l.12-.45c.07-.16.34-.2.43-.21-1.13.05-1.14 1.82 0 1.77z"/>
            <path d="M192.45 202.05v-.69a.88.88 0 0 0-1.77 0v.69a.88.88 0 0 0 1.77 0z"/>
            <path d="M205.72 191.85H205a.88.88 0 0 0 0 1.77h.69a.88.88 0 0 0 0-1.77z"/>
            <path d="M211.58 206.73a.88.88 0 0 0 0-1.77.88.88 0 0 0 0 1.77z"/>
            <path d="M197.93 212.06c0-.09 0-.36.21-.43l.45-.12h-.11a.91.91 0 0 0-.88.88.89.89 0 0 0 .88.88 1.26 1.26 0 0 0 1.23-1.23c.05-1.14-1.72-1.13-1.77 0z"/>
            <path d="M212.62 194.61h-.69a.88.88 0 0 0 0 1.77h.69a.88.88 0 0 0 0-1.77z"/>
            <path d="M224.7 188.06c.09 0 .36 0 .43.21l.12.45v-.11a.91.91 0 0 0-.88-.88.89.89 0 0 0-.88.88 1.26 1.26 0 0 0 1.23 1.23c1.14.05 1.13-1.72 0-1.77z"/>
            <path d="M226.42 202.94a.88.88 0 0 0 0-1.77.88.88 0 0 0 0 1.77z"/>
            <path d="M223 213.64a.88.88 0 0 0 0-1.77.88.88 0 0 0 0 1.77z"/>
            <path d="M219.18 204a.88.88 0 0 0 0-1.77.88.88 0 0 0 0 1.77z"/>
            <path d="M230.22 191.55a.88.88 0 0 0 0-1.77.88.88 0 0 0 0 1.77z"/>
            <path d="M75 209.06l.13.13a.88.88 0 0 0 1.25-1.25l-.13-.13a.88.88 0 0 0-1.25 1.25z"/>
            <path d="M187.49 216.74a.88.88 0 0 0 0-1.77.88.88 0 0 0 0 1.77z"/>
            <path d="M232.24 173.87a1.07 1.07 0 0 0-.54.87.89.89 0 0 0 .65.85 1.51 1.51 0 0 0 .47.06.88.88 0 0 0 0-1.77q-.18 0 0 0l.65.85-.44.76.1-.06c1-.61.07-2.14-.89-1.53z"/>
            <path d="M163 167.66h-.13a.88.88 0 0 0 0 1.77h.13a.88.88 0 0 0 0-1.77z"/>
            <path d="M98.95 155.24a.88.88 0 0 0 0-1.77h-.17a.88.88 0 0 0 0 1.77H99a.88.88 0 0 0 0-1.77.88.88 0 0 0 0 1.77z"/>
            <path d="M103.06 178.83a.88.88 0 0 0 0-1.77.88.88 0 0 0 0 1.77z"/>
            <path d="M33.7 210.25l.13-.13a.88.88 0 0 0-1.25-1.25l-.13.13a.88.88 0 0 0 1.25 1.25z"/>
            <path d="M26.89 190.94v.06l.88-.88.62.26-.09-.09c-.83-.78-2.08.47-1.25 1.25a1.06 1.06 0 0 0 .75.35.9.9 0 0 0 .88-.88v-.09c.06-1.14-1.7-1.13-1.77 0z"/>
            <path d="M133.69.05c-7.4 2.54-14.94 2.54-21.85 6.57-6.21 3.62-11.54 8.54-16.66 13.53-12.65 12.31-24.6 25.27-36.06 38.69s-22.37 27.1-33.12 41c-5.17 6.69-10.3 13.33-15 20.33-3.39 4.95-10 9.71-11 15.83a.91.91 0 0 0 .62 1.09c3.52 1.06 5.54-2.1 8.93-.07a7.33 7.33 0 0 0 3.45 1.4c2 .4 3.25 1.85 5.53 1.28 1.27-.32 2.1-1.61 3.21-2 1.76-.6 1.83.47 3.53 1.22 2 .87 4 .43 5.92-.3s3.52-1.74 5.34-2.47c1.6-.64 3.22-1.39 5-.4.57.32 1 1.17 1.54 1.55a4.4 4.4 0 0 0 4.75.49c1.89-.84 2.93-2.26 5.05-2.81a26.24 26.24 0 0 1 7.1-.38c3.44.12 6.46 2.32 9.83 2.06 2.54-.19 4-1.1 6.82-.69 2 .3 4.14.76 6.13 1.23 3.19.75 5.38 1.58 8.67 1.23 2.24-.24 4.53-.88 6.8-.53 1.72.26 3.1 1.35 4.8 1.55 1.5.18 2.76-.42 4.15-.82a15.52 15.52 0 0 1 7.75-.71c2.88.51 4.6-.08 7.27-1.15a12.69 12.69 0 0 1 5.55-1.22c.93.06 2.32.85 3.26 1a10.56 10.56 0 0 0 4.74-.53c3-.73 5.52-.48 8.51-.4a8.72 8.72 0 0 0 3.49-.42c1.85-.7 1.86-1.47 4-1.45 3.8 0 .08.18 2.74.71a8.51 8.51 0 0 0 3.24.22c2.76-.35 5.48-1.53 8.29-1.43s5.49 1.4 8.41 1.11a25.39 25.39 0 0 1 7.15-.19c1.16.19 1.63.69 2.86.66 1.42 0 2.46-.76 3.71-1.32 3.88-1.75 3.59-.41 7.06.06a10.05 10.05 0 0 0 4.05-.48 18.68 18.68 0 0 1 8-.61c1.39.19 2.6.6 4 .21.64-.18 1-.63 1.61-.87 2-.75 3.39 0 5.3.29a34.48 34.48 0 0 0 9.93-.32A56.65 56.65 0 0 0 235 131c2.74-.72 3.72-2.6 7.1-1.19 1.86.78 2.56 2.05 4.81 1.32s2.29-2.92 5.77-2.24c1.22.24 2.23 1.18 3.57 1.36 3 .42 10 .16 9.51-4.32-.31-3.05-3.82-6.32-5.72-8.4-3.48-3.81-7.21-7.34-10.48-11.34-7.1-8.69-14.39-17.2-22-25.47-17-18.55-34.58-37.12-53.29-53.95-7.61-6.85-15.91-12.19-24.24-18C145 5.17 137.68-1.16 131 .44c-1.13.27-.62 1.86.47 1.7l2.68-.38c1.12-.16.64-1.86-.47-1.7L131 .44l.47 1.7c6-1.42 13.17 4.91 17.69 8.09 6.69 4.71 13.56 8.89 19.82 14.22 13.73 11.69 26.2 25 38.78 37.92 12.8 13.12 25.31 26.55 37 40.69 2.66 3.22 5.2 6.51 8.08 9.53 3.1 3.27 8.17 7 10 11.15 1.06 2.35 1.06 3.94-1.75 4.46a13.17 13.17 0 0 1-6.57-.28c-1.9-.7-2.64-1.77-4.69-.93-.8.32-1.34 1.2-2.1 1.5-5.28 2.12-3.48-.21-6-1.23-1.7-.68-2.93.16-4.51.81-4.11 1.71-8.9 2.06-13.33 2.47-2.73.26-4.46-.73-6.9-1.27a8 8 0 0 0-1.61-.39c-1.41 0-2.09 1-3.33 1.41-2.58.82-4.55.09-7-.16-3.8-.4-6.94 2.34-10.83 1.27-2.17-.6-2.76-1.33-4.92-.48-.73.29-1.75 1.24-2.55 1.42-1.88.44-4.21-.41-6-.54a9.16 9.16 0 0 0-2.62-.1c-2 .21-3.72 1-5.82.79-1.62-.13-3.12-.64-4.72-.85-4.76-.62-8.85 1.66-13.62.24-2.29-.68-2.48-.67-4.76.32-3.88 1.67-7.62.77-11.69 1.54-2.72.52-4.81 1.12-7.7.61-1.36-.24-2.57-.94-4-.91-3.66.08-5.65 3.52-9.61 2.93-2.39-.35-4.08-1.34-6.57-.66-1.41.38-2.67 1.37-4.08 1.67-2.18.47-3.93-.58-5.89-1.09-3.62-.94-7.27.77-10.86.48-3.37-.27-6.9-1.52-10.25-2.17a21.21 21.21 0 0 0-4.07-.78c-2.15 0-4.31 1.35-6.51 1-1.63-.27-3.11-1.39-4.76-1.72a21.84 21.84 0 0 0-3.85-.27c-2.64 0-5.7-.15-8.21.81-1.15.44-2.2 1.77-3.29 2.08-2.71.75-4-1-5.94-1.91-6.67-3.24-12.33 8.81-18.58 1.06a.89.89 0 0 0-1.25 0c-1.86 2-4.52 4.94-7.57 1.53a.9.9 0 0 0-1.07-.14c-2.58 1.24-3.09-2.06-5.46-2.39-2-.28-7.84 4.11-5.21-.66 1.68-3 4.67-5.23 6.79-7.95 2.51-3.21 4.57-6.78 6.91-10.11 11-15.52 23.27-30.34 35.39-45 11.91-14.36 24.17-28.6 37.42-41.78 6.14-6.11 12.25-12.52 19.32-17.57a37.26 37.26 0 0 1 13.11-6.28c4.15-1 8.37-1.37 12.42-2.76 1.08-.37.62-2.08-.46-1.71z"/>
            <path d="M132.5 150.3c-7.06-.79-14.13 4.6-17.83 10.09-2 3-3.14 7.4-3.59 11a164.93 164.93 0 0 0-1.35 16.71c-.11 6.28-.22 12.56-.45 18.84-.22 5 .67 10.2.34 15.14l33.67-.91c-.11-1.91-.59-5.59-.48-7.61.22-3 .11-6.17.22-9.31.56-8.19.67-16.48 1.68-24.56 1.29-10.1 1.47-27.69-12.21-29.39z"/>
            <path d="M37.99 182.26l5.53.93 13.66-21.13-2.98-4.25-16.21 24.45z"/>
            <path d="M195.99 180.26l5.53.93 13.66-21.13-2.98-4.25-16.21 24.45z"/>
            <path d="M254 129.56c-.22-.2-1.89-1.72-3.22-1.72-2.3.38-3.45 3.07-5.75 3.07s-3.45-2.68-5-2.68c-1.92 0-3.83 1.92-5.75 2.3-4.6.38-10.35 1.53-15 1.53-1.53 0-3.07-1.92-4.22-1.92-1.92 0-3.45 1.92-5 2.3-2.68 0-5-1.15-6.9-1.15-2.68.38-5 1.92-7.67 1.92-1.53 0-3.83-1.53-5-1.53-2.3.38-4.22 2.68-6.52 2.68s-3.83-1.53-5-1.53c-1.92 0-3.83 1.15-5.75 1.15-3.45 0-6.14-1.53-9.2-1.15s-5.75 1.53-8.82 1.53c-1.15 0-2.3-1.92-3.83-1.92-1.92 0-3.83 2.68-5.75 2.68-2.3.38-4.22-.77-6.14-.38-2.68 0-5 1.15-7.29 1.53-2.68 0-5.37-1.92-7.67-1.53s-3.45 2.3-5.37 2.68c-4.22 1.15-4.22-.38-7.67-.77-3.45 0-4.6 1.92-7.67 2.3s-3.45-1.53-6.14-1.53c-3.45-.38-6.13.77-10 .77-1.53-.38-5.37-1.53-7.29-1.92-1.92 0-5-1.15-6.52-1.15s-3.45 1.15-5.37 1.15c-2.3 0-4.6-1.92-6.14-1.92-2.3-.38-8.82-.38-11.12.38-2.3.38-3.83 3.45-6.52 3.07-1.92 0-3.07-3.07-4.6-3.07-6.52-.38-12.65 8.82-18 1.15-2.68 3.07-6.13 5.37-8.82 1.53-1.53.86-.6-.19-2.27.65l.44 8.84c1.67-.84 1.09-2.08 1.83-.69 2.68 3.83 6.13 1.53 8.82-1.53 5.37 7.67 11.5-1.53 18-1.15 1.53 0 2.68 3.07 4.6 3.07 2.68.38 4.22-2.68 6.52-3.07 2.3-.77 8.82-.77 11.12-.38 1.53 0 3.83 1.92 6.14 1.92 1.92 0 3.83-1.15 5.37-1.15s4.6 1.15 6.52 1.15c1.92.38 5.75 1.53 7.29 1.92 3.83 0 6.52-1.15 10-.77 2.68 0 3.07 1.92 6.14 1.53s4.22-2.3 7.67-2.3c3.45.38 3.45 1.92 7.67.77 1.92-.38 3.07-2.3 5.37-2.68s5 1.53 7.67 1.53c2.3-.38 4.6-1.53 7.29-1.53 1.92-.38 3.83.77 6.14.38 1.92 0 3.83-2.68 5.75-2.68 1.53 0 2.68 1.92 3.83 1.92 3.07 0 5.75-1.15 8.82-1.53s5.75 1.15 9.2 1.15c1.92 0 3.83-1.15 5.75-1.15 1.15 0 2.68 1.53 5 1.53s4.22-2.3 6.52-2.68c1.15 0 3.45 1.53 5 1.53 2.68 0 5-1.53 7.67-1.92 1.92 0 4.22 1.15 6.9 1.15 1.53-.38 3.07-2.3 5-2.3 1.15 0 2.68 1.92 4.22 1.92 4.6 0 10.35-1.15 15-1.53 1.92-.38 3.83-2.3 5.75-2.3 1.53 0 2.68 2.68 5 2.68s3.45-2.68 5.75-3.07a4.84 4.84 0 0 1 2.69 1.23z"/>
            <path d="M254 129.56s.06.03 0 0z"/>
            <path d="M106.91 25.62C95.54 34.28 86.51 45.76 79.33 58a.88.88 0 0 0 1.53.89c7-12 15.83-23.31 26.95-31.78.89-.68 0-2.22-.89-1.53z"/>
            <path d="M87.75 65.8c-3.57 4.48-5.93 9.79-9.85 14q-7.15 7.67-14.31 15.34c-.77.83.47 2.09 1.25 1.25 4.76-5.14 9.5-10.27 14.31-15.39 4-4.18 6.28-9.52 9.85-14 .7-.88-.54-2.14-1.25-1.25z"/>
            <path d="M61.35 77.74a33.92 33.92 0 0 0-8.54 8.93c-2.87 4-6.13 8-8.34 12.44-.5 1 1 1.91 1.53.89 1.84-3.71 4.49-6.86 6.84-10.25 2.69-3.89 5.41-7.83 9.41-10.49.94-.63.06-2.16-.89-1.53z"/>
            <path d="M34.26 109.28c-4.38 4.68-9.78 9-12 15.23-.38 1.08 1.33 1.54 1.7.47 2.06-5.89 7.37-10 11.51-14.45.78-.83-.47-2.08-1.25-1.25z"/>
            <path d="M52.55 109.63A84.54 84.54 0 0 0 40.68 125c-.59 1 .93 1.86 1.53.89a82.52 82.52 0 0 1 11.6-15c.8-.81-.45-2.06-1.25-1.25z"/>
            <path d="M74.15 107q-3.26 6.49-6.9 12.77a.88.88 0 0 0 1.53.89q3.64-6.28 6.9-12.77c.51-1-1-1.91-1.53-.89z"/>
            <path d="M94.51 66a53.13 53.13 0 0 0-4.23 9.87c-.34 1.09 1.37 1.55 1.7.47A50.81 50.81 0 0 1 96 66.87c.55-1-1-1.89-1.53-.89z"/>
            <path d="M70 68a40.16 40.16 0 0 1-3.31 4.31c-.79.81.45 2.07 1.25 1.25a43.55 43.55 0 0 0 3.59-4.67c.68-.91-.86-1.8-1.53-.89z"/>
            <path d="M110 37c-3 4.4-4.84 9.3-6.9 14.15-.44 1 1.08 1.94 1.53.89 2.06-4.85 4-9.75 6.9-14.15.63-.95-.89-1.83-1.53-.89z"/>
            <path d="M129.37 21.46c-4.59 6.58-4.89 14.75-5.87 22.44-.89 6.95-4 15.18-1.46 22.07.4 1.06 2.1.6 1.7-.47-2.41-6.42.49-14 1.41-20.47 1.11-7.76 1.07-16 5.75-22.68.65-.93-.88-1.82-1.53-.89z"/>
            <path d="M139.95 42.26c-.25 17.06 2 34 2.07 51.08a.88.88 0 0 0 1.77 0c-.09-17.05-2.32-34-2.07-51.08a.88.88 0 0 0-1.77 0z"/>
            <path d="M112.34 66.77c.45 9.26-2.12 18.35-1 27.61.13 1.12 1.9 1.13 1.77 0-1.09-9.26 1.48-18.35 1-27.61-.05-1.13-1.82-1.14-1.77 0z"/>
            <path d="M97.53 99.32c-1.74 6.29-3.4 12.61-4.83 19-.25 1.11 1.45 1.58 1.7.47 1.44-6.37 3.09-12.69 4.83-19a.88.88 0 0 0-1.7-.47z"/>
            <path d="M118.55 106.11v11a.88.88 0 0 0 1.77 0v-11a.88.88 0 0 0-1.77 0z"/>
            <path d="M130.66 89.09c.67 4.37 1.35 8.75 2.07 13.11.19 1.12 1.89.64 1.7-.47-.72-4.37-1.4-8.74-2.07-13.11-.17-1.12-1.88-.64-1.7.47z"/>
            <path d="M143.4 118.19c0 3.63.15 7.16 1.85 10.45.52 1 2 .12 1.53-.89-1.55-3-1.6-6.26-1.6-9.56a.88.88 0 0 0-1.77 0z"/>
            <path d="M153.75 67.8c1 7.89 5.22 14.22 7.51 21.69 2.15 7 1.35 14.43 4.34 21.2.46 1 2 .14 1.53-.89-2.92-6.59-2.07-14-4.16-20.78-2.23-7.25-6.48-13.56-7.45-21.22-.14-1.11-1.91-1.13-1.77 0z"/>
            <path d="M172.65 94.66c6.94 7.07 8.62 17 12.63 25.71.47 1 2 .14 1.53-.89-4.1-8.92-5.81-18.83-12.91-26.06-.8-.81-2 .44-1.25 1.25z"/>
            <path d="M151.72 34.22c1.94 5.34 5.86 9.31 8.58 14.2 3.17 5.69 4.71 12.18 7.38 18.11.47 1 2 .14 1.53-.89-2.44-5.4-4-11.18-6.57-16.51s-7.14-9.64-9.22-15.37c-.38-1.06-2.09-.6-1.7.47z"/>
            <path d="M178 56.86c3.44 6.19 8 11.67 10.58 18.33 1.87 4.87 3.24 9.65 6.81 13.6.76.85 2-.41 1.25-1.25-4.07-4.51-5.09-10.4-7.54-15.77-2.56-5.6-6.59-10.43-9.58-15.8-.55-1-2.08-.1-1.53.89z"/>
            <path d="M206.33 91.37a94.85 94.85 0 0 1 9.58 20.15c.38 1.06 2.09.61 1.7-.47a96.92 96.92 0 0 0-9.75-20.57c-.62-1-2.15-.07-1.53.89z"/>
            <path d="M193.1 106.46c.44 3.86 2 7.29 3.57 10.8.46 1 2 .14 1.53-.89-1.43-3.2-2.93-6.38-3.33-9.91-.13-1.12-1.9-1.13-1.77 0z"/>
            <path d="M203.12 70.67c-.08-.29-.24-.62-.29-.92l-1.48.86c1 .77 1.61 2.7 2.17 3.78.66 1.28 1.31 2.57 2 3.86 1.28 2.55 2.57 5.1 4 7.59A.88.88 0 0 0 211 85c-1.58-2.81-3-5.69-4.45-8.56-1-2.06-2.11-5.6-3.91-7a.89.89 0 0 0-1.48.86c.05.32.2.61.29.92a.88.88 0 0 0 1.7-.47z"/>
            <path d="M226.49 103.28c4.91 5.32 9.53 11.1 12.2 17.9.41 1 2.12.59 1.7-.47-2.78-7.1-7.52-13.12-12.65-18.68-.77-.84-2 .41-1.25 1.25z"/>
            <path d="M151.64 24.13c7.67 2.22 12.59 8.31 16.73 14.78.61 1 2.14.07 1.53-.89-4.39-6.87-9.67-13.24-17.78-15.59a.88.88 0 0 0-.47 1.7z"/>
            <path d="M127.48 10.35c-6.79 1.6-14.82 3.49-18.47 10.07-.55 1 1 1.89 1.53.89 3.41-6.13 11.11-7.77 17.42-9.26 1.11-.26.64-2-.47-1.7z"/>
            <path d="M136.84 17.41a50.74 50.74 0 0 0 .72 10.24c.23 1.11 1.93.64 1.7-.47a48.47 48.47 0 0 1-.66-9.77.88.88 0 0 0-1.77 0z"/>
        </g>
    </g>
</svg>
