<svg xmlns="http://www.w3.org/2000/svg" viewBox="0 0 389.82 205.41">
    <defs>
        <style>
            .cls-1{fill:#fff}
        </style>
    </defs>
    <title>
        house_Asset 20
    </title>
    <g id="Layer_2" data-name="Layer 2">
        <g id="Layer_1-2" data-name="Layer 1">
            <path class="cls-1" d="M328.21 32.81c3-2.1-.6-25.84-.3-31.85 5.41-.6 13.22 1.5 18.93 1.8a155 155 0 0 0-.9 20.43 58.29 58.29 0 0 0 .6 7.21 5.7 5.7 0 0 0 .79 2.44z"/>
            <path class="cls-1" d="M376.42 112.56c1.2 3.57-.45 14.09-.15 20.33.3 8.62.59 17.24.59 25.86 0 11 1.19 26.71 2.08 38-10.11 0-19.91-1.49-30-.3-10.7 1.19-21.4-.56-31.8.63-9.81.89-19.91.3-30 .89-14.56.59-29.42 2.08-44.29 2.08-20.21 0-40.42.6-60.63.6-15.75 0-31.5-.3-47.26-.3-32.69 0-65.69 3.27-98.68 4.16H22.57c.3-6.54-2.08-12.78-2.08-19.32 0-8.62 1.49-17.24 1.49-26.16-.3-9.81-3.27-19.62-3.27-29.72 0-5.94 1.49-15.46.59-20.21l-.27-.46A170.17 170.17 0 0 1 42 107.47c11.4 0 24.39-3.53 35.59-.9 23.76 5.58 49.11 1.52 73.34 2.62 8.73.39 17.52-1 26.24-.24 9.42.88 19.59-1.86 29.1-.59 10 1.34 20.75.3 31 1.57 7.51.94 14.9 2.23 22.5 2.29 14.1.11 28.42 2.76 42.53.83 12-1.64 24.16-1.43 36.31-2.33s25.71.28 37.81 1.84z"/>
            <path class="cls-1" d="M253.12 177.11c2.68-18.43-3.94-37.78-3.65-56.21 11 .3 22.89 1.49 33.59 0 .59 17.24 3.2 39.69 2.31 55.15z"/>
            <path class="cls-1" d="M61 130.11c-3.57-.3-8-2.08-11-1.19.59 11.89-1.19 25.56.89 37.15 8 .59 17.24-.3 25.56-.59.3-11 .59-26.16-2.08-36.86-4.44.3-8.9 1.79-13.37 1.49z"/>
            <path class="cls-1" d="M139 130.11c-3.57-.3-8-2.08-11-1.19.59 11.89-1.19 25.56.89 37.15 8 .59 17.24-.3 25.56-.59.3-11 .59-26.16-2.08-36.86-4.44.3-8.89 1.79-13.37 1.49z"/>
            <path class="cls-1" d="M204.42 130.11c-3.57-.3-8-2.08-11-1.19.59 11.89-1.19 25.56.89 37.15 8 .59 17.24-.3 25.56-.59.3-11 .59-26.16-2.08-36.86-4.45.3-8.91 1.79-13.37 1.49z"/>
            <path class="cls-1" d="M344.54 128.62c-4.46.3-8.92 1.78-13.37 1.49-3.57-.3-8-2.08-11-1.19.59 11.89-1.19 25.56.89 37.15 8 .59 17.24-.3 25.56-.59.3-11 .6-26.16-2.08-36.86z"/>
            <path class="cls-1" d="M2.66 109.12c1.19-5.05 4.76-9.81 7.13-14.56Q16 83 21.38 70.48c3.86-9.21 8.32-18.13 12.48-27.34 1.19-3 4.76-9.51 3.86-12.19l1.19-.3c10.11 1.49 22.59-.59 33-1.49 9.21-.59 18.43-1.19 27.64-.3 23.78 1.78 47.26 3.27 71.33 3.86 33.29.89 66.28-4.16 99.57-2.38 28.24 1.49 56.47 3 84.71 2.38.89 5.05 4.46 9.81 6.24 14.86 3 9.51 8.32 17.83 11.59 27.34 4.75 13.37 10.11 27.34 16 39.53l-.3 1.78c-1.1-2.58-13.12-3.73-16-4.1a197.5 197.5 0 0 0-38-1.27c-12.14.9-24.35.68-36.31 2.33-14.11 1.94-28.43-.71-42.53-.83-7.6-.06-15-1.35-22.5-2.29-10.24-1.28-21-.23-31-1.57-9.51-1.27-19.68 1.46-29.1.59-8.72-.81-17.51.63-26.24.24-24.22-1.09-49.58 3-73.34-2.62-11.2-2.63-24.19.93-35.59.9a170.17 170.17 0 0 0-22.95 1.19 44.94 44.94 0 0 1-14.28 0"/>
            <path d="M3.51 109.35c2.09-7.42 7.07-14.19 10.54-21 3.88-7.67 7.2-15.55 10.71-23.39 3.22-7.19 6.7-14.25 9.91-21.44.93-2.09 1.93-4.17 2.76-6.31.42-1.09.66-4.88 1.3-5.59.27-.29 7 .48 8.58.48 4.17 0 8.33-.37 12.48-.77 8-.78 15.94-1.61 24-1.88 17.06-.58 34.31 1.77 51.35 2.73 16.78.95 33.63 1.83 50.45 1.53 17.25-.3 34.45-1.7 51.69-2.4 34.39-1.4 68.75 2.41 103.15 2.49h6.89c1.92 0 5.86-.83 7.37.75.72.76 1 2.86 1.48 3.92.89 2 2 3.91 2.9 5.9 3.51 7.5 6.47 15.37 9.89 22.94 4 8.86 6.86 18.24 10.45 27.27q2.11 5.3 4.38 10.54c1.33 3.06 4.7 7.61 4.14 11l1.61-.21c-2.76-4.18-11.81-3.93-16.25-4.47A208.42 208.42 0 0 0 334.7 110q-20.58 1.33-41.13 2.81c-13.67 1-27.83-.69-41.5-1.44-6.59-.36-13.07-1.55-19.62-2.27-7-.76-14.06-.54-21.09-.79-6-.22-12-1.21-18.06-.94-7.05.32-13.89 1.21-21 .77-6.58-.41-13.11.22-19.69.35-6.88.14-13.76-.3-20.64-.19-13.87.21-27.78 1.14-41.64 0-7.29-.58-14.33-2.6-21.57-3.28-6.87-.65-13.78.37-20.61 1.05-7.2.72-14.37.5-21.59.83-8.5.39-17 2.36-25.49 1-1.11-.18-1.59 1.53-.47 1.7 5.9.94 11.48.33 17.39-.31 7-.75 13.91-.74 20.89-.86 12.77-.22 24.55-2.92 37.28-.33s25.79 2.63 38.73 2.33c13.18-.31 26.43.16 39.59-.29 6.28-.22 12.46-.56 18.75-.22 6.73.36 13.32-.53 20-.84 6.06-.28 12 .72 18.06.94 6.73.24 13.48 0 20.18.69 6.23.61 12.4 1.77 18.65 2.24 7 .53 14.08.54 21.12 1a183.29 183.29 0 0 0 19.37.68c7-.25 14-1.45 21-1.85 14.88-.85 29.94-2 44.84-1.28 6.08.31 12.13.91 18.17 1.67 3 .37 11.35.52 13.28 3.42.38.57 1.48.59 1.61-.21.35-2.1.37-2.08-.56-4.06q-3.08-6.52-5.84-13.17c-3.24-7.8-6.18-15.72-9-23.67-2.5-7-5.89-13.51-8.87-20.29-1.61-3.66-2.7-7.52-4.37-11.14-1.78-3.86-3.95-7.45-4.9-11.65a.89.89 0 0 0-.85-.65c-42.62.83-85.08-4.12-127.67-1.9-21.16 1.11-42.22 2.37-63.42 1.7-20.89-.66-41.75-1.94-62.59-3.53a192.61 192.61 0 0 0-34.64.65c-5.62.58-11.24 1.26-16.9 1.45-4 .14-8.68-1.07-12.45-.13a.9.9 0 0 0-.62 1.09c.91 5-4.48 13.1-6.54 17.51C27 55.79 23.72 62.86 20.62 70c-3 7-6.28 14-9.83 20.74-3.09 5.93-7.16 11.63-9 18.11a.88.88 0 0 0 1.7.47z"/>
            <path d="M233.46 175.53c1.71 7.92.42 16.1 1.78 24.06a.89.89 0 0 0 1.09.62c5.27-2 10.81-.29 16.17.3a73.74 73.74 0 0 0 16.2-.41 345.26 345.26 0 0 1 37.83-2.23.89.89 0 0 0 .85-.65c1.23-7.27-.53-15.06-2.08-22.16a.89.89 0 0 0-1.3-.53c-5.56 2.74-11.82.54-17.68.47-6.7-.08-13.3 1.48-20 1.48s-13.82.37-20.41-.71c-3.56-.59-7.68-2-11.23-.74-1.06.38-.61 2.09.47 1.7 4.4-1.56 9.78 1 14.33 1.22a174.32 174.32 0 0 0 22.25.1c6.3-.49 12.42-1.65 18.75-1 5 .51 9.8 1.28 14.43-1l-1.3-.53a116 116 0 0 1 2.07 11.92c.2 1.84.67 4.27.33 6.12-.59 3.23-3.13 2.53-6 2.59-11.1.23-22.07 1.25-33.1 2.36a68.07 68.07 0 0 1-15.86 0c-3.69-.49-7.41-1.31-11.16-1-2.51.22-3 .91-3.45-2.07a60 60 0 0 1-.26-7.43 64.67 64.67 0 0 0-1-13c-.24-1.11-1.94-.64-1.7.47z"/>
            <path d="M339.58 111.34c-12.14.9-24.35.68-36.31 2.33-14.11 1.94-28.43-.71-42.53-.83-7.6-.06-15-1.35-22.5-2.29-10.24-1.28-21-.23-31-1.57-9.51-1.27-19.68 1.46-29.1.59-8.72-.81-17.51.63-26.24.24-24.22-1.09-49.58 3-73.34-2.62-11.2-2.63-24.19.93-35.59.9A170.17 170.17 0 0 0 20 109.28v4.08a170.16 170.16 0 0 1 23-1.19c11.4 0 24.39-3.53 35.59-.9 23.76 5.58 49.11 1.52 73.34 2.62 8.73.39 17.52-1 26.24-.24 9.42.88 19.59-1.86 29.1-.59 10 1.34 20.75.3 31 1.57 7.51.94 14.9 2.23 22.5 2.29 14.1.11 28.42 2.76 42.53.83 12-1.64 24.16-1.43 36.31-2.33a197.5 197.5 0 0 1 38 1.27v-4.08a197.5 197.5 0 0 0-38.03-1.27z"/>
            <path d="M61.53 129.94c-3.57-.3-8-2.08-11-1.19.59 11.89-1.19 25.56.89 37.15h1.9v-33.31h21.59v-4.14c-4.46.3-8.91 1.78-13.38 1.49z"/>
            <path d="M139.54 129.94c-3.57-.3-8-2.08-11-1.19.59 11.89-1.19 25.56.89 37.15h1.9v-33.31h21.58v-4.14c-4.45.3-8.91 1.78-13.37 1.49z"/>
            <path d="M204.94 129.94c-3.57-.3-8-2.08-11-1.19.59 11.89-1.19 25.56.89 37.15h1.9v-33.31h21.58v-4.14c-4.45.3-8.91 1.78-13.37 1.49z"/>
            <path d="M331.69 129.94c-3.57-.3-8-2.08-11-1.19.59 11.89-1.19 25.56.89 37.15h1.9v-33.31h21.58v-4.14c-4.45.3-8.91 1.78-13.37 1.49z"/>
            <path d="M249.47 120.24c-.3 18.43 6.32 37.78 3.65 56.21H256v-51.79h27.1v-4.43c-10.74 1.49-22.63.3-33.63.01z"/>
            <path d="M254 177.11c2-15.29-1.74-30.27-3.16-45.42-.21-2.24-1.66-8.55.47-9.85 1-.58 4.44.18 5.6.23 2.21.1 4.41.21 6.62.29 3.77.14 7.54.22 11.31.09 1.65-.06 3.92-.66 5.52-.35 2.34.45 1.9 1 2 3.48.71 14.16 2.22 28.29 2.29 42.47v4.48c0 .24.05 3.27.65 2.64-.22.24-1.89.06-2.2.07l-9.92.33-20 .66c-1.13 0-1.14 1.8 0 1.77l32.25-1.06a.9.9 0 0 0 .88-.88c.93-18.39-1.63-36.79-2.31-55.15 0-.43-.39-.94-.88-.88-11.17 1.39-22.39.35-33.59 0a.89.89 0 0 0-.88.88c-.08 18.84 6.08 37.33 3.65 56.21-.21 1.11 1.56 1.1 1.7-.01z"/>
            <path d="M328.84 33.44c2.38-2.25 1.5-7.89 1.38-10.7-.26-6.3-1.09-12.56-1.37-18.86 0-.82-.17-2 .15-2.26.7-.52 4.95.35 6 .48 2.52.3 5 .76 7.53 1.1 2.86.39 3.2.26 3.14 3.32-.1 5.26-.74 10.47-.61 15.75.08 3.48-.11 7.84 1.54 11l.76-1.33h-19.12a.88.88 0 0 0 0 1.77h19.12a.89.89 0 0 0 .76-1.33c-2-4-1.41-10.45-1.33-14.81.08-5 .54-9.9 1-14.83a.9.9 0 0 0-.88-.88c-6.32-.46-12.57-2.26-18.93-1.8A.9.9 0 0 0 327 1c-.16 5.22.65 10.5 1 15.69.25 3.28 2.22 13-.48 15.53-.76.78.48 2 1.32 1.22z"/>
            <path d="M330.32 10.16c4.14.18 8.69-1.85 12.69-.33 1.06.41 1.52-1.3.47-1.7-4.19-1.6-8.85.46-13.16.27-1.14 0-1.13 1.72 0 1.77z"/>
            <path d="M333.86 16.74c2.46-.83 5-.59 7.58-.57a.88.88 0 0 0 0-1.77c-2.71 0-5.43-.25-8 .63-1.07.36-.61 2.07.47 1.7z"/>
            <path d="M333.94 10.17a12.11 12.11 0 0 0 .33 3.54c.33 1.08 2 .62 1.7-.47a10.46 10.46 0 0 1-.27-3.07.88.88 0 0 0-1.77 0z"/>
            <path d="M334.52 22.48a75.85 75.85 0 0 1 7.81-.9.88.88 0 0 0 0-1.77 75.74 75.74 0 0 0-7.81.9c-1.12.13-1.13 1.9 0 1.77z"/>
            <path d="M335.17 17.32c.26 1.09.34 2.21.6 3.31s2 .64 1.7-.47-.34-2.21-.6-3.31-2-.64-1.7.47z"/>
            <path d="M331.87 24.53a25.34 25.34 0 0 1 .27 4.57.88.88 0 0 0 1.77 0 27.85 27.85 0 0 0-.33-5c-.2-1.12-1.91-.64-1.7.47z"/>
            <path d="M42 94.78c6.24 2.78 13.87 1.68 20.49 1.3 9.17-.52 18.31-1.19 27.47-1.84 18.39-1.31 36.82-2.59 55.26-2.94a.88.88 0 0 0 0-1.77c-17.2.33-34.36 1.57-51.51 2.7-8.51.56-17 1.26-25.53 1.76-7.7.46-18 2.51-25.29-.73-1-.46-1.93 1.06-.89 1.53z"/>
            <path d="M124.54 81.35c10.17 1.62 20.28 0 30.34-1.68a269.27 269.27 0 0 1 34.51-3.1c1.13 0 1.14-1.8 0-1.77a279.08 279.08 0 0 0-30 2.4c-11.4 1.61-22.79 4.27-34.33 2.44-1.11-.18-1.59 1.53-.47 1.7z"/>
            <path d="M181.63 67.52c12.5 3 25.21.08 37.76-.92 9.56-.76 20.73 1.26 29.63-3.07 1-.5.13-2-.89-1.53-8.85 4.31-20.49 2.09-30 2.95-11.93 1.08-24.12 3.7-36 .87-1.11-.26-1.58 1.44-.47 1.7z"/>
            <path d="M232.35 91.29c10.44.22 21-.89 31.48-1.38 9-.43 18.67-1.72 27.49.75a.88.88 0 0 0 .47-1.7c-8.54-2.39-17.8-1.33-26.53-.88-10.9.56-22 1.68-32.91 1.45a.88.88 0 0 0 0 1.77z"/>
            <path d="M278.7 72a128.41 128.41 0 0 0 28.3 1.77c9.16-.48 18.5-1.89 27.62-.23 1.11.2 1.59-1.5.47-1.7-8.27-1.5-16.69-.58-25 0a130.91 130.91 0 0 1-30.89-1.48c-1.11-.19-1.59 1.51-.47 1.7z"/>
            <path d="M236.26 46.82c17.42.89 34.86.61 52.29.6a.88.88 0 0 0 0-1.77c-17.43 0-34.87.29-52.29-.6-1.14-.06-1.13 1.71 0 1.77z"/>
            <path d="M77.36 50.69c7.28 1.16 14.52.75 21.86.56 7.71-.2 15.18 1.05 22.85 1.27a.88.88 0 0 0 0-1.77c-7-.2-13.9-1.41-21-1.31-7.79.11-15.52.78-23.27-.46-1.11-.18-1.59 1.52-.47 1.7z"/>
            <path d="M375.57 112.8c1.57 6.12-.3 13.24-.2 19.49.14 9.29.53 18.57.62 27.87.07 7.51.52 15 1 22.51.24 3.52 1.22 7.69.82 11.18-.28 2.43-1.18 2-3.6 1.93s-5-.23-7.49-.36c-9.17-.47-18.11.61-27.24.59s-17.94 0-27 .51c-8.78.44-17.57.2-26.35.62-9.29.44-18.56 1.13-27.84 1.6-18.81.94-37.73.65-56.57.9-18.67.24-37.32 0-56-.11-37.71-.25-75.23 4.12-112.9 4.12a47.78 47.78 0 0 1-6.89 0c-3-.45-2.44-1.62-2.76-4.41-.54-4.69-1.75-9.28-1.83-14-.16-10.28 2.19-20.47 1.17-30.75-.94-9.48-3.36-18.77-2.84-28.36.21-3.88.66-7.74.75-11.63 0-1.91.35-4.51-.65-6.26l-.77 1.3c11.56-1.43 23.18-.79 34.75-2a124 124 0 0 1 15.52-1.05c5.92.13 11.62 1.85 17.47 2.66 11.56 1.59 23.25 1.43 34.88 1.12s23.25.07 34.86-.16 23.49.23 35.14-.72 23.07.47 34.6.74c11.87.27 23.52 2.69 35.4 3s23.85 2.12 35.79 1.28q20.08-1.42 40.17-2.75c13-.85 25.9.16 38.8 1.78 1.13.14 1.12-1.63 0-1.77-23.27-2.91-47-2.49-70.36 0-23.52 2.54-47.2-.55-70.63-2.86-5.49-.54-11-.49-16.53-.6-6-.11-12-1.06-18.06-1.12-5.52-.05-11 .8-16.51 1-6.15.26-12.26-.47-18.42-.22-11.91.47-23.79 0-35.7.33-11.67.29-23.36.83-35 0-7-.51-13.7-2.16-20.62-3.13-5.45-.77-11-.34-16.44.2-13 1.29-26.11.85-39.08 2.45a.9.9 0 0 0-.76 1.33c1.24 2.16.39 6.47.23 8.94-.21 3.35-.58 6.7-.66 10.06-.2 8.59 1.91 16.95 2.84 25.44 1 8.74-.42 17.4-.9 26.13-.47 8.49 2 16.45 1.9 24.86a.9.9 0 0 0 .88.88c23.06 0 46-1.5 69-2.74 23.64-1.28 47.2-1.45 70.87-1.23s47-.26 70.54-.45c23.1-.18 46.1-2.26 69.19-2.46 6.23-.05 12.37-.5 18.58-.86s12.46.11 18.69.12c6.62 0 13.15-1 19.77-.88s13.11.68 19.68.74a.89.89 0 0 0 .88-.88c-1.16-14.66-1.92-29.26-2.12-44-.11-7.91-.79-15.87-.54-23.78.17-5.4 1.48-11.37.11-16.68a.88.88 0 0 0-1.64.54z"/>
            <path d="M127.14 128.92c.51 12.47-1.09 25 .92 37.39a.89.89 0 0 0 .85.65c8.53.52 17-.25 25.56-.59a.9.9 0 0 0 .88-.88c.33-12.33.72-25-2.11-37.09a.89.89 0 0 0-.85-.65c-4.88.47-9.74 2-14.66 1.28-3.38-.48-6.52-1.59-9.95-1-1.12.21-.64 1.91.47 1.7 4.39-.81 8.81 1.44 13.27 1.2 2.06-.11 4-.6 6.09-.82 1-.11 3.48-.72 4.25.06.41.41.45 2.26.55 2.84 1.63 9.48 1.48 19.27 1.27 28.85-.06 2.92-.94 2.75-3.74 2.89s-5.57.31-8.36.43c-2.45.1-4.91.18-7.37.16-.79 0-2.89.31-3.57-.09-1.52-.91-1.47-3.62-1.6-5.18-.84-10.38.27-20.81-.15-31.2-.03-1.08-1.8-1.09-1.75.05z"/>
            <path d="M128.85 147.9c7.89-1.52 15.79-3.06 23.84-2 1.13.14 1.11-1.63 0-1.77-8.21-1-16.27.56-24.31 2.11-1.12.22-.64 1.92.47 1.7z"/>
            <path d="M152.1 129.32c2.64 0 5.28-.24 7.91-.41 1.81-.12 5.55-1 6.86.31s.61 6.29.58 8.26c0 2.86-.13 5.71-.09 8.57.07 4.63 1.73 10.6.62 15.09-.77 3.09-3.53 2.51-6.15 2.8a34.45 34.45 0 0 1-8.25.18c-1.13-.14-1.12 1.63 0 1.77 5 .61 9.87-.68 14.86-.59a.89.89 0 0 0 .85-.65c.94-5.58.09-11.1-.12-16.71-.25-6.7.27-13.39-.14-20.09a.9.9 0 0 0-.88-.88c-5.37-.17-10.69.5-16 .59a.88.88 0 0 0 0 1.77z"/>
            <path d="M128.55 128.37c-5.29-1.22-10.38.62-15.69.56a.9.9 0 0 0-.88.88c-.12 6.4 1.32 12.66 1.78 19 .43 5.87 0 11.74 1.52 17.47a.9.9 0 0 0 .85.65c4.3.1 8.56.73 12.72-.63 1.08-.35.62-2.06-.47-1.7a21.07 21.07 0 0 1-7.41.77c-4.2-.14-4.64-1.13-5-5.33-.44-4.88-.19-9.77-.72-14.66-.2-1.82-.49-3.63-.74-5.44-.21-1.5-1.67-7-.79-8.44s3.18-1 4.71-1.25c3.33-.45 6.33-1 9.65-.2 1.11.26 1.58-1.45.47-1.7z"/>
            <path d="M49.13 128.92c.51 12.47-1.09 25 .92 37.39a.89.89 0 0 0 .85.65c8.53.52 17-.25 25.56-.59a.9.9 0 0 0 .88-.88c.33-12.33.72-25-2.11-37.09a.89.89 0 0 0-.85-.65c-4.88.47-9.74 2-14.66 1.28-3.38-.48-6.52-1.59-9.95-1-1.12.21-.64 1.91.47 1.7 4.39-.81 8.81 1.44 13.27 1.2 2.06-.11 4-.6 6.09-.82 1-.11 3.48-.72 4.25.06.41.41.45 2.26.55 2.84 1.63 9.48 1.48 19.27 1.27 28.85-.06 2.92-.94 2.75-3.74 2.89s-5.57.31-8.36.43c-2.45.1-4.91.18-7.37.16-.79 0-2.89.31-3.57-.09-1.52-.91-1.47-3.62-1.6-5.18-.84-10.38.27-20.81-.15-31.2-.03-1.08-1.8-1.09-1.75.05z"/>
            <path d="M50.84 147.9c7.89-1.52 15.79-3.06 23.84-2 1.13.14 1.11-1.63 0-1.77-8.21-1-16.27.56-24.31 2.11-1.12.22-.64 1.92.47 1.7z"/>
            <path d="M74.09 129.32c2.64 0 5.28-.24 7.91-.41 1.81-.12 5.55-1 6.86.31s.61 6.29.58 8.26c0 2.86-.13 5.71-.09 8.57.07 4.63 1.73 10.6.62 15.09-.77 3.09-3.53 2.51-6.15 2.8a34.45 34.45 0 0 1-8.25.18c-1.13-.14-1.12 1.63 0 1.77 5 .61 9.87-.68 14.86-.59a.89.89 0 0 0 .85-.65c.94-5.58.09-11.1-.12-16.71-.25-6.7.27-13.39-.14-20.09a.9.9 0 0 0-.88-.88c-5.37-.17-10.69.5-16 .59a.88.88 0 0 0 0 1.77z"/>
            <path d="M50.54 128.37c-5.29-1.22-10.38.62-15.69.56a.9.9 0 0 0-.88.88c-.12 6.4 1.32 12.66 1.78 19 .43 5.87 0 11.74 1.52 17.47a.9.9 0 0 0 .85.65c4.3.1 8.56.73 12.72-.63 1.08-.35.62-2.06-.47-1.7a21.07 21.07 0 0 1-7.41.77c-4.2-.14-4.64-1.13-5-5.33-.44-4.88-.19-9.77-.72-14.66-.2-1.82-.49-3.63-.74-5.44-.21-1.5-1.67-7-.79-8.44s3.18-1 4.71-1.25c3.33-.45 6.33-1 9.65-.2 1.11.26 1.58-1.45.47-1.7z"/>
            <path d="M192.54 128.92c.51 12.47-1.09 25 .92 37.39a.89.89 0 0 0 .85.65c8.53.52 17-.25 25.56-.59a.9.9 0 0 0 .88-.88c.33-12.33.72-25-2.11-37.09a.89.89 0 0 0-.85-.65c-4.88.47-9.74 2-14.66 1.28-3.38-.48-6.52-1.59-9.95-1-1.12.21-.64 1.91.47 1.7 4.39-.81 8.81 1.44 13.27 1.2 2.06-.11 4-.6 6.09-.82 1-.11 3.48-.72 4.25.06.41.41.45 2.26.55 2.84 1.63 9.48 1.48 19.27 1.27 28.85-.06 2.92-.94 2.75-3.74 2.89s-5.57.31-8.36.43c-2.45.1-4.91.18-7.37.16-.79 0-2.89.31-3.57-.09-1.52-.91-1.47-3.62-1.6-5.18-.84-10.38.27-20.81-.15-31.2-.03-1.08-1.8-1.09-1.75.05z"/>
            <path d="M194.25 147.9c7.89-1.52 15.79-3.06 23.84-2 1.13.14 1.11-1.63 0-1.77-8.21-1-16.27.56-24.31 2.11-1.12.22-.64 1.92.47 1.7z"/>
            <path d="M217.5 129.32c2.64 0 5.28-.24 7.91-.41 1.81-.12 5.55-1 6.86.31s.61 6.29.58 8.26c0 2.86-.13 5.71-.09 8.57.07 4.63 1.73 10.6.62 15.09-.77 3.09-3.53 2.51-6.15 2.8a34.45 34.45 0 0 1-8.25.18c-1.13-.14-1.12 1.63 0 1.77 5 .61 9.87-.68 14.86-.59a.89.89 0 0 0 .85-.65c.94-5.58.09-11.1-.12-16.71-.25-6.7.27-13.39-.14-20.09a.9.9 0 0 0-.88-.88c-5.37-.17-10.69.5-16 .59a.88.88 0 0 0 0 1.77z"/>
            <path d="M194 128.37c-5.29-1.22-10.38.62-15.69.56a.9.9 0 0 0-.88.88c-.12 6.4 1.32 12.66 1.78 19 .43 5.87 0 11.74 1.52 17.47a.9.9 0 0 0 .85.65c4.3.1 8.56.73 12.72-.63 1.08-.35.62-2.06-.47-1.7a21.07 21.07 0 0 1-7.41.77c-4.2-.14-4.64-1.13-5-5.33-.44-4.88-.19-9.77-.72-14.66-.2-1.82-.49-3.63-.74-5.44-.21-1.5-1.67-7-.79-8.44s3.18-1 4.71-1.25c3.33-.45 6.33-1 9.65-.2 1.11.26 1.58-1.45.47-1.7z"/>
            <path d="M319.29 128.92c.51 12.47-1.09 25 .92 37.39a.89.89 0 0 0 .85.65c8.53.52 17-.25 25.56-.59a.9.9 0 0 0 .88-.88c.33-12.33.72-25-2.11-37.09a.89.89 0 0 0-.85-.65c-4.88.47-9.74 2-14.66 1.28-3.38-.48-6.52-1.59-9.95-1-1.12.21-.64 1.91.47 1.7 4.39-.81 8.81 1.44 13.27 1.2 2.06-.11 4-.6 6.09-.82 1-.11 3.48-.72 4.25.06.41.41.45 2.26.55 2.84 1.63 9.48 1.48 19.27 1.27 28.85-.06 2.92-.94 2.75-3.74 2.89s-5.57.31-8.36.43c-2.45.1-4.91.18-7.37.16-.79 0-2.89.31-3.57-.09-1.52-.91-1.47-3.62-1.6-5.18-.84-10.38.27-20.81-.15-31.2-.04-1.08-1.8-1.09-1.75.05z"/>
            <path d="M321 147.9c7.89-1.52 15.79-3.06 23.84-2 1.13.14 1.11-1.63 0-1.77-8.21-1-16.27.56-24.31 2.11-1.12.22-.64 1.92.47 1.7z"/>
            <path d="M344.25 129.32c2.64 0 5.28-.24 7.91-.41 1.81-.12 5.55-1 6.86.31s.61 6.29.58 8.26c0 2.86-.13 5.71-.09 8.57.07 4.63 1.73 10.6.62 15.09-.77 3.09-3.53 2.51-6.15 2.8a34.45 34.45 0 0 1-8.25.18c-1.13-.14-1.12 1.63 0 1.77 5 .61 9.87-.68 14.86-.59a.89.89 0 0 0 .85-.65c.94-5.58.09-11.1-.12-16.71-.25-6.7.27-13.39-.14-20.09a.9.9 0 0 0-.88-.88c-5.37-.17-10.69.5-16 .59a.88.88 0 0 0 0 1.77z"/>
            <path d="M320.7 128.37c-5.29-1.22-10.38.62-15.69.56a.9.9 0 0 0-.88.88c-.12 6.4 1.32 12.66 1.78 19 .43 5.87 0 11.74 1.52 17.47a.9.9 0 0 0 .85.65c4.3.1 8.56.73 12.72-.63 1.08-.35.62-2.06-.47-1.7a21.07 21.07 0 0 1-7.41.77c-4.2-.14-4.64-1.13-5-5.33-.44-4.88-.19-9.77-.72-14.66-.2-1.82-.49-3.63-.74-5.44-.21-1.5-1.67-7-.79-8.44s3.18-1 4.71-1.25c3.33-.45 6.33-1 9.65-.2 1.11.26 1.58-1.45.47-1.7z"/>
        </g>
    </g>
</svg>
