<svg xmlns="http://www.w3.org/2000/svg" viewBox="0 0 333.71 373.99">
    <defs>
        <style>
            .cls-1{fill:#fff}
        </style>
    </defs>
    <title>
        house_Asset 32
    </title>
    <g id="Layer_2" data-name="Layer 2">
        <g id="Layer_1-2" data-name="Layer 1">
            <path class="cls-1" d="M253 234.65c-40.78-6.41-83.31-1.13-124.09 0-32.62 1.17-66.41-1.17-98.46 2.91l-1.16-.56c0 5.24-.58 12.82 4.66 15.15 3.5 1.75 14.56 1.17 19.23 1.75 17.48 3.5 35.54 1.75 53.6-.58 44.86-5.24 89.13 2.33 134 5.83 3.81.24 7.73.36 11.65.45 7.57 35-6.43 81.47 3.47 112.93a11.63 11.63 0 0 0 6.45-4.07c-.07-1.49 1.15-27.89 1.15-43 0-22.1-1.74-43.61-1.75-65.7h7.57c10.49 0 14.56 1.75 15.15-9.32 1.16-16.34-19.24-14.04-31.47-15.79z"/>
            <path class="cls-1" d="M42.69 253.52a511 511 0 0 0 2.91 67c.58 7.57 2.68 36.11 3.13 39.26 3.13 1.66 9.44 1 9.44 1-.91-31.48-5.57-70.51-5.57-106.63z"/>
            <path class="cls-1" d="M153.92 306.14c-18.66-8-36.44-17.87-54.21-27.79-10.77-5.35-10.78-5.35-39.1-21.94-11.57.46-7.9 5.44 1.08 12.81 14 12 35.58 20.8 52.32 28.83 7.64 3.89 15.19 7.89 22.71 11.94a8 8 0 0 0-5.35.64c-8.67 3.67-17 8-25.67 12C91.71 329 62 341.3 62 341.3c-6.33 2.67-4.67 8.67 3 7 8.67-1.67 18.67-7.67 27.33-11C110 330.3 130.38 325 147 316a27.7 27.7 0 0 1-6.13-3.71c15.31 8.31 30.52 16.86 46.12 25.4 18.7 8.92 63.82 28 65.68 23.24 6.33-11.46-79.08-45.93-98.75-54.79z"/>
            <path class="cls-1" d="M166.73 306.05c12.84-6.13 26.09-11.51 39.17-17.62 7.3-3.47 15.25-6.17 22.77-9.38 4.28-2 21.13-6.73 23.9-10.84 2-3.21-.64-6.57-4.23-6.88-2.16-.19-10 3.35-12 3.9 0 0-24.23 10-37.94 15.07-4.76 2-49.85 18.79-48.09 23.53 0 0 7.8 3.89 8.25 4.17 3.09 1 5.44-.74 8.17-1.95z"/>
            <path class="cls-1" d="M266 235.8c-40.78-6.41-83.52-1.94-124.3-.77-32.62 1.17-66.21-2.84-98.25 1.24l-1.37-1.75C30.47 209.47 25.81 168.7 26.39 139l-.29-.29c1.75 0 2.33 3.5 4.08 2.91 2.91 0 4.08-2.91 6.41-3.5 4.08-1.17 10.49-4.08 14.56-3.5 8.74 1.16 9.32 7 19.23 4.66 6.41-1.16 15.73-11.07 21.56-9.9 2.33 0 2.91 4.66 4.66 4.66 4.08 1.16 6.41-.58 9.9 0 6.41.58 12.82 1.75 19.81 2.33 4.08 0 6.41.58 10.49 0 3.5 0 5.83-2.33 9.9-1.75 9.32 1.75 9.9 11.65 18.64 10.49s8.16-5.24 18.06-4.08c7.57 1.17 14 2.91 22.14 2.91 5.24 0 14-1.75 19.23 0 3.5.58 4.66 4.66 7.57 5.24 4.66 1.17 7-2.33 11.07-2.33 8.74 0 18.46 6 26.8 5.83 4.74-.11 4.5-.16 5.53-.56v.27c-2.33 29.7-9.74 83.41-9.74 83.41z"/>
            <path class="cls-1" d="M132.41 234.1c1.17-16.89-1.75-34.37-2.33-51.27-.58-14.56-3.5-24.47 13.4-23.89 7 0 14.56-.58 21 .58 9.9 1.75 8.16 2.91 8.16 14v59.42"/>
            <path class="cls-1" d="M194.16 168.85c0 12.82-9.9 33.79 8.74 33.21 5.24 0 12.82 0 18.06-1.17 7.57-1.17 5.83.58 7.57-7 1.75-7 2.33-25.05-4.66-28-5.24-2.33-24.47 1.17-30.29 2.33z"/>
            <path class="cls-1" d="M145.81 1.07c-5.83 0-8.74 4.66-12.82 8.16C113.77 25 94.54 37.19 78.81 56.42 63.67 75.06 46.19 92 29.88 109.43c-8.74 9.32-22.72 19.22-25.63 32 8.16-5.24 12.82-6.41 21.56-5.24 1.75 0 2.33 3.5 4.08 2.91 2.91 0 4.08-2.91 6.41-3.5 4.08-1.17 10.49-4.08 14.56-3.5 8.74 1.16 9.32 7 19.23 4.66 6.41-1.16 15.73-11.07 21.56-9.9 2.33 0 2.91 4.66 4.66 4.66 4.08 1.16 6.41-.58 9.9 0 6.41.58 12.82 1.75 19.81 2.33 4.08 0 6.41.58 10.49 0 3.5 0 5.83-2.33 9.9-1.75 9.32 1.75 9.9 11.65 18.64 10.49s8.16-5.24 18.06-4.08c7.57 1.17 14 2.91 22.14 2.91 5.24 0 14-1.75 19.23 0 3.5.58 4.66 4.66 7.57 5.24 4.66 1.17 7-2.33 11.07-2.33 8.74 0 18.64 4.08 26.8 5.83 7.57 1.17 15.73-1.75 23.89-3.5-20.39-32-48.35-58.26-75.15-85.05-14.6-14.52-25.66-33.16-43.14-45.39-6.41-4.08-23.89-18.64-31.46-14.57z"/>
            <path d="M266.28 235c-45.56-7-91.3-.68-137.05-.58-23.51 0-47-1.71-70.55-.36q-3.81.22-7.62.56c-1.67.15-6.22 1.31-7.39.5s-2.28-4.36-2.8-5.66c-.87-2.16-1.66-4.35-2.4-6.55a188.87 188.87 0 0 1-6.64-26.66 291.76 291.76 0 0 1-4-33.28q-.51-8-.61-16.05c0-2.22 1.13-7.16-.52-8.81l-.86 1.48c2.87.93 2.17 3.84 5.8 2.71 1.57-.49 2.67-1.77 4.06-2.59 2.49-1.48 5.6-2.26 8.38-3.09 5.88-1.77 9.74-.7 15 2a14.8 14.8 0 0 0 9 2c3.71-.4 6.72-1.92 9.86-3.87s9-7.22 13.11-6.53c3.34.56 3.17 4.55 6.93 5.06 2 .26 3.76-.23 5.71-.36 3.25-.21 6.58.44 9.8.86 5.78.75 11.51 1.48 17.34 1.7a34.63 34.63 0 0 0 7.19-.28c2.42-.42 4.71-1.72 7.19-1.74 8.33-.08 10.7 10.73 18.9 10.67 3.21 0 6.22-1.24 9.08-2.57 5.58-2.59 10.8-1.52 16.69-.46a85.06 85.06 0 0 0 15.63 1.77c5.15 0 10.29-1.14 15.44-.69 3.71.32 5.67 1.89 8.25 4.19a6.68 6.68 0 0 0 4.34 1.94 10.29 10.29 0 0 0 4.4-.81c4.24-1.47 6.55-2 11.14-1 8 1.79 18.41 7.8 26.86 4.51l-1.12-.85c0 8.09-1.47 16.45-2.35 24.49Q271 190.3 269.29 204q-2 15.81-4.1 31.6c-.15 1.11 1.55 1.59 1.7.47q2.11-15.39 4-30.8 1.69-13.63 3.22-27.28c.94-8.48 2.5-17.3 2.5-25.84a.89.89 0 0 0-1.12-.85c-8.57 3.34-19.08-3.33-27.42-4.82a16.52 16.52 0 0 0-9.88 1c-7 2.83-7.74-2.63-13.2-4.36-4.09-1.3-8.63-.8-12.82-.46a72.53 72.53 0 0 1-17.69-.56c-4.85-.78-9.87-2.27-14.82-2.11-3.06.1-5.4 1.22-8.13 2.42-4.8 2.12-9.55 2.83-13.64-1-2.68-2.5-4.8-5.4-8.31-6.83s-6-.68-9.43.25c-5.61 1.54-11.88.93-17.6.31S110.83 133 105.06 133c-2.24 0-4.57.92-6.78.34-2.75-.72-2.37-2.23-4.26-3.89-4.66-4.11-13.23 3.39-16.95 5.69-5.08 3.15-10.6 5.1-16.3 2.33-3.21-1.56-5.93-3.43-9.62-3.76-4.78-.43-10.46 1.68-14.8 3.53-1.47.62-3.15 2.69-4.48 3-2 .45-3.8-1.85-5.53-2.41a.89.89 0 0 0-.86 1.48c.5.5 0 4.68 0 5.36q0 3 .08 5.91.18 7.75.76 15.49c.68 9.18 1.75 18.35 3.27 27.43a198.52 198.52 0 0 0 6.73 28.5c1.1 3.38 2.32 6.72 3.71 10 .55 1.28 1.59 4.57 3.23 5.16 1.42.51 5.36-.56 6.85-.7q4.28-.4 8.56-.65c6.4-.37 12.8-.5 19.21-.51 11.63 0 23.26.41 34.88.67 23.68.52 47.25-.79 70.9-1.79 27.4-1.17 54.95-1.65 82.14 2.51 1.12.14 1.6-1.57.48-1.69z"/>
            <path d="M145.81.19c-6.57.44-10.12 5.65-14.81 9.56-7.25 6-14.86 11.55-22.26 17.37A243.94 243.94 0 0 0 89 44c-6.92 6.79-12.8 14.41-19.17 21.67-12.61 14.38-26.2 27.88-39.32 41.79-9.69 10.27-23.4 19.39-27.12 33.77a.89.89 0 0 0 1.3 1c5.19-3.23 10.31-5.67 16.57-5.52 2.27.06 3.8.16 5.81 1.64.36.26.48.86.91 1.06a3.7 3.7 0 0 0 3.28.42c2-.58 3.39-2.46 5.26-3.33a53.25 53.25 0 0 1 6.57-2.18c6.66-2.07 10.63-.71 16.49 2.24 7.81 3.93 14.76-.21 21.39-4.45a46 46 0 0 1 5.41-3.18c1.1-.51 3.08-1.45 4.4-1.22 2.52.43 1.94 1.47 3.12 2.84 2.29 2.65 4.88 2.36 8.33 2 11.85-1.17 23.79 4.19 35.76 2.09 3.29-.58 6-2.31 9.45-1.35a14.29 14.29 0 0 1 6.12 4c2.39 2.37 4.5 5.26 8 6.11 3.2.78 6.85-.3 9.77-1.54a44.85 44.85 0 0 1 4.61-2c4-1.18 8.12-.2 12.06.5 5.71 1 11.45 2.13 17.28 2.07 5.53-.05 11.12-1.37 16.63-.52 3.72.57 5.07 2.7 7.82 4.68a6.75 6.75 0 0 0 3.82 1.32c2.75.14 4.8-1.43 7.33-2.16 3.69-1.07 8 0 11.59.81 6.35 1.42 12.72 4.32 19.23 4.81 7.57.57 15.08-2.1 22.36-3.73a.89.89 0 0 0 .53-1.3c-17.71-27.59-40.79-51-63.94-73.94-11.07-11-21.25-22.34-31.29-34.27A149.11 149.11 0 0 0 171 12C164.39 7.33 152.42-3.1 143.61.89c-.91.41-.26 1.93.68 1.61l1.71-.58c1.07-.36.61-2.06-.47-1.7l-1.71.58.68 1.61C149.2.29 155.31 4 159.26 6.33c4.18 2.44 8.11 5.27 12.05 8.06 10.87 7.7 19.78 16.55 28.31 26.77 9.08 10.89 18.41 21.17 28.48 31.16 10.74 10.66 21.47 21.33 31.7 32.49a314.22 314.22 0 0 1 33.2 42.35l.53-1.3c-7.08 1.59-14.55 4.34-21.89 3.66-6.92-.64-13.58-3.74-20.38-5.1-4.17-.83-8.21-1.41-12.27.06-4.42 1.6-6.81 1.92-10.29-1.4a9.41 9.41 0 0 0-4-2.46c-4.57-1.45-9.6-.72-14.27-.34a77.87 77.87 0 0 1-20.34-1.4c-4.45-.8-9.22-2.09-13.74-1-4.32 1-7.85 4.07-12.5 4-4.91-.06-7.22-4.45-10.58-7.27-2.78-2.34-6.21-3.8-9.88-3.25-2.93.44-5.51 1.66-8.54 1.87a59 59 0 0 1-7.18-.15c-7.19-.38-14.27-2-21.46-2.36-2.56-.14-7.53 1.34-9.67 0-1.44-.88-1.6-2.64-2.81-3.7-2-1.79-4.95-1-7.21-.08-9.8 4-16.41 13.12-27.7 7.18-8.77-4.62-17.5-2.24-25.74 2.53-2.54 1.47-1.36 1.69-5.21-.15-.41-.2-.58-.71-1-.86a23.36 23.36 0 0 0-8.25-.64c-5.49.38-10.19 2.84-14.77 5.72l1.3 1c3.73-14.43 18.17-24 27.92-34.34 12.27-13 25-25.65 36.83-39.06 5.64-6.37 10.82-13.15 16.7-19.3a201.35 201.35 0 0 1 19.33-17.42c6.35-5.11 12.87-10 19.3-15 3.17-2.48 6.45-4.89 9.43-7.61 3.46-3.15 6.15-6.66 11.19-7 1.09-.11 1.1-1.88-.04-1.8z"/>
            <path d="M136 25.36c-14.8 11.21-28.22 24.1-42.94 35.41C79.6 71.15 69.16 84.63 57.8 97.15c-.8.85.48 2.1 1.2 1.25 11.7-12.89 22.44-26.57 36.38-37.19 14.3-10.89 27.18-23.48 41.51-34.33.89-.68 0-2.21-.89-1.53z"/>
            <path d="M79.35 86.67c-8.87 8-14.22 18.78-20.53 28.72-.61 1 .92 1.85 1.53.89 6.23-9.82 11.49-20.47 20.25-28.37.85-.76-.41-2-1.25-1.25z"/>
            <path d="M112 63.36C97 77.45 86.23 95 75.72 112.48a.88.88 0 0 0 1.53.89C87.68 96 98.32 78.6 113.23 64.61c.83-.78-.42-2-1.25-1.25z"/>
            <path d="M135.86 55.21c-7.61 9-13.19 19.34-19.36 29.31-.6 1 .93 1.86 1.53.89 6.09-9.83 11.58-20.08 19.09-29 .73-.86-.51-2.12-1.25-1.25z"/>
            <path d="M146.93 30.16c-7 6.51-13.35 13.76-21.38 19.09-.94.63-.06 2.16.89 1.53 8.15-5.41 14.61-12.75 21.73-19.36.84-.78-.42-2-1.25-1.25z"/>
            <path d="M147 21.76c11.87-1.21 16 15.89 21.37 23.45.66.92 2.19 0 1.53-.89C164 36.17 159.89 18.67 147 20c-1.12.11-1.13 1.88 0 1.77z"/>
            <path d="M167.18 24.24c9.38 18.19 25.79 31.17 40.34 45 .82.78 2.07-.46 1.25-1.25C194.33 54.26 178 41.4 168.71 23.35c-.52-1-2-.12-1.53.89z"/>
            <path d="M168.35 56.28c8.92 12.45 18.21 24.61 28.1 36.3.74.87 2-.39 1.25-1.25-9.79-11.57-19-23.62-27.82-35.94-.66-.92-2.19 0-1.53.89z"/>
            <path d="M147.87 52.57c2.53 11 8.62 20.64 11.65 31.46a.88.88 0 0 0 1.7-.47c-3-10.82-9.13-20.48-11.65-31.46-.25-1.11-2-.64-1.7.47z"/>
            <path d="M143.88 82.77c-4.27 9.8-4.19 20.82-4.2 31.32a.88.88 0 0 0 1.77 0c0-10.15-.17-21 4-30.43.45-1-1.07-1.93-1.53-.89z"/>
            <path d="M129.9 86.26c-4 7.05-6.42 14.88-11.07 21.55-.65.94.88 1.82 1.53.89 4.64-6.7 7.09-14.5 11.06-21.54a.88.88 0 0 0-1.53-.89z"/>
            <path d="M109.51 100.25a43 43 0 0 0-6.5 13.61.88.88 0 0 0 1.7.47 41.59 41.59 0 0 1 6.29-13.19c.65-.93-.88-1.82-1.53-.89z"/>
            <path d="M156.61 102.79c-1.51 8.13 1.63 15.83 2.91 23.77.18 1.12 1.88.64 1.7-.47-1.22-7.57-4.36-15.08-2.91-22.83.21-1.11-1.5-1.59-1.7-.47z"/>
            <path d="M177 100.34c1.95 8.62 6.73 16.29 8.16 25.05.18 1.12 1.89.64 1.7-.47-1.43-8.77-6.21-16.43-8.16-25.05-.25-1.11-2-.64-1.7.47z"/>
            <path d="M196.89 104.05c2.88 4.64 7.1 8.27 9.82 13s3.8 10.34 7.08 14.95c.65.92 2.19 0 1.53-.89-3.26-4.58-4.35-10.1-7.08-14.95s-6.94-8.38-9.82-13c-.6-1-2.13-.08-1.53.89z"/>
            <path d="M211.37 85.2c5.44 15.07 14.86 28.54 24 41.57.65.93 2.18 0 1.53-.89-9-12.9-18.41-26.24-23.8-41.15-.38-1.06-2.09-.6-1.7.47z"/>
            <path d="M237.09 93c8.6 11.45 20 21.29 24.38 35.33.34 1.08 2 .62 1.7-.47-4.48-14.23-15.84-24.14-24.56-35.75-.67-.9-2.21 0-1.53.89z"/>
            <path d="M242.92 113.37c5.11 7.11 7.78 15.64 13.54 22.32.74.86 2-.39 1.25-1.25-5.65-6.55-8.25-15-13.26-22-.66-.92-2.19 0-1.53.89z"/>
            <path d="M218.45 79.58c3 4 7.52 6.6 9.9 11.07.53 1 2.06.11 1.53-.89-2.4-4.51-6.91-7.05-9.9-11.07-.67-.9-2.21 0-1.53.89z"/>
            <path d="M51 108.67c-7 4.8-13.11 10.75-19.4 16.45-.84.76.41 2 1.25 1.25 6.18-5.6 12.14-11.46 19-16.17.93-.64.05-2.17-.89-1.53z"/>
            <path d="M30.46 238.48c37.31-4.6 75.16-1.73 112.64-3.46 18.84-.87 37.66-2.2 56.51-2.53 18.67-.32 36.77 1.24 55.29 3.27 9.15 1 27.69-.58 28.7 12.33.2 2.59.16 6.61-1.48 8.82s-4.83 2-7.37 2c-8.49-.07-17 0-25.46-.29-38.54-1.16-76.58-8.61-115.26-8-21.35.36-42.47 5-63.82 4.23-8.87-.31-17.52-2-26.39-2.31-3.46-.12-8.43.23-11.13-2.37-3.25-3.13-2.52-9.13-2.49-13.22l-1.33.76 1.16.58c1 .51 1.91-1 .89-1.53l-1.16-.58a.89.89 0 0 0-1.33.76c0 5-.68 12.08 4.06 15.33 4.5 3.09 12 2 17.13 2.2 9.48.4 18.64 2.38 28.24 2.19 10.7-.22 21.24-1.74 31.86-2.85 43.17-4.52 86.15 2.69 129.12 6 10.6.81 21.21.62 31.83.75 3.71 0 9.24 1.1 12.21-1.84s3.05-9.27 2.19-13c-1-4.16-4-6.93-7.83-8.53-5-2.1-10.76-2.38-16.13-2.78-8.41-.62-16.71-2.06-25.11-2.78-21-1.78-42.2-1.08-63.27 0-23.45 1.18-46.85 2.45-70.34 2.46-24 0-48-.4-71.91 2.54-1.14.22-1.15 1.99-.02 1.85z"/>
            <path d="M133.29 234.1c1.08-17.91-1.48-35.92-2.45-53.79-.25-4.68-1.3-10.3.24-14.87 2.23-6.62 10.37-5.57 15.94-5.65 7-.11 15.56-1.15 22.15 1.75 4.51 2 2.57 9.95 2.56 13.95v57.44a.88.88 0 0 0 1.77 0v-53.47c0-4.83 1-10.8-.09-15.56-.59-2.47-2.2-3.56-4.54-4.31-5.81-1.87-12.25-1.73-18.27-1.64-5.13.08-11.56-.84-16.38 1.44-7.11 3.35-5.63 12.71-5.25 19.1 1.09 18.44 3.67 37.13 2.56 55.61-.07 1.14 1.7 1.13 1.77 0z"/>
            <path d="M193.28 168.85c-.15 8.79-4.91 19.19-1.82 27.81a9.09 9.09 0 0 0 6.71 5.87c6.07 1.49 13.88.57 20-.27 2.26-.31 7.75-.08 9.58-2.06s1.94-7.07 2.29-9.63c.95-6.85 2.16-21.23-5.38-25.23-4.07-2.16-10.15-1-14.48-.58-5.65.61-11.26 1.54-16.84 2.65a.89.89 0 0 0-.39 1.48l.58.58a.88.88 0 0 0 1.25-1.25l-.58-.58-.39 1.48c5-1 10.06-1.85 15.13-2.44 4.12-.48 11.35-2 15.16.37 4.63 2.86 4.7 11.31 4.69 16 0 4.38-.08 10.84-2 14.89-1.55 3.29-12.57 3-15.66 3.13-5.23.21-14.24 1.77-17.43-3.68-2.42-4.14-1.13-10.31-.43-14.73.72-4.58 1.69-9.14 1.77-13.8a.88.88 0 0 0-1.76-.01z"/>
            <path d="M269.6 149.53c-8.16-1.75-18.06-5.83-26.8-5.83-4.08 0-6.41 3.5-11.07 2.33-2.91-.58-4.08-4.66-7.57-5.24-5.24-1.75-14 0-19.23 0-8.16 0-14.56-1.75-22.14-2.91-9.9-1.16-9.32 2.91-18.06 4.08s-9.32-8.74-18.64-10.49c-4.08-.58-6.41 1.75-9.9 1.75-4.08.58-6.41 0-10.49 0-7-.58-13.4-1.75-19.81-2.33-3.5-.58-5.83 1.17-9.9 0-1.75 0-2.33-4.66-4.66-4.66-5.83-1.17-15.15 8.74-21.56 9.9-9.9 2.33-10.49-3.49-19.23-4.66-4.08-.58-10.49 2.33-14.56 3.5-2.33.58-3.5 3.5-6.41 3.5-1.75.58-2.33-2.91-4.08-2.91v10c1.75 0 2.33 3.5 4.08 2.91 2.91 0 4.08-2.91 6.41-3.5 4.08-1.17 10.49-4.08 14.56-3.5 8.74 1.17 9.32 7 19.23 4.66 6.41-1.16 15.73-11.07 21.56-9.9 2.33 0 2.91 4.66 4.66 4.66 4.08 1.17 6.41-.58 9.9 0 6.41.58 12.82 1.75 19.81 2.33 4.08 0 6.41.58 10.49 0 3.5 0 5.83-2.33 9.9-1.75 9.32 1.75 9.9 11.65 18.64 10.49s8.16-5.24 18.06-4.08c7.57 1.17 14 2.91 22.14 2.91 5.24 0 14-1.75 19.23 0 3.5.58 4.66 4.66 7.57 5.24 4.66 1.17 7-2.33 11.07-2.33 8.74 0 18.46 6 26.8 5.83 4.74-.11 4.5-.16 5.53-.56l1.19-8.45c-2.37-.05.86.18-6.72-.99z"/>
            <path d="M164.68 159c-6.41-1.17-14-.58-21-.58-16.9-.58-14 9.32-13.4 23.89.58 16.89 3.5 34.37 2.33 51.27l5.71-.17c.3-15.1-2.05-30.56-2.57-45.57-.58-14.56-3.5-24.47 13.4-23.89 7 0 14.56-.58 21 .58 1.06.19 2 .37 2.78.55-.16-3.99-1.49-4.91-8.25-6.08z"/>
            <path d="M223.57 165.86c-5.24-2.33-24.47 1.17-30.29 2.33l.58.58c0 11.24-7.61 28.75 3.09 32.5-1.54-7.14 2.26-18.2 2.26-26.14 0 0 22.53-4.89 28.79-3.22-.91-2.91-2.32-5.18-4.43-6.05z"/>
            <path d="M38.35 163.84c1.44 9.28 4.71 18.55 7.79 27.38a116.65 116.65 0 0 0 5.1 12.84c.83 1.71 2 4.66 4 5.25a.88.88 0 0 0 .47-1.7c-2-.56-3.49-5.47-4.18-7.08-2-4.57-3.6-9.31-5.16-14-2.44-7.53-5.11-15.31-6.37-23.16-.17-1.12-1.88-.64-1.7.47z"/>
            <path d="M54.07 167.34c4.33 14.6 10.17 28.77 13.4 43.69.24 1.11 1.94.64 1.7-.47-3.23-14.92-9.07-29.09-13.4-43.69a.88.88 0 0 0-1.7.47z"/>
            <path d="M76.21 201.13c1.34 5.93 4.58 11.05 7.08 16.52.47 1 2 .14 1.53-.89-2.44-5.33-5.6-10.32-6.9-16.1-.25-1.11-2-.64-1.7.47z"/>
            <path d="M60.57 215.32a62.64 62.64 0 0 1 4 8.53c.42 1 2.13.59 1.7-.47a65.75 65.75 0 0 0-4.17-8.95.88.88 0 0 0-1.53.89z"/>
            <path d="M68 147.3a74.37 74.37 0 0 0 5.27 29.95c.41 1 2.12.59 1.7-.47a73.14 73.14 0 0 1-5.21-29.48c0-1.14-1.72-1.13-1.77 0z"/>
            <path d="M48.22 145c0 5.18-.41 10.27.61 15.38.22 1.11 1.93.64 1.7-.47-1-4.95-.59-9.91-.55-14.91a.88.88 0 0 0-1.77 0z"/>
            <path d="M77.93 148.46c.14 10.25 3.1 19.59 5.86 29.36a.88.88 0 0 0 1.7-.47c-2.72-9.62-5.66-18.78-5.79-28.89a.88.88 0 0 0-1.77 0z"/>
            <path d="M96.57 170c-.93 17 4.57 33.05 12.94 47.63a.88.88 0 0 0 1.53-.89c-8.23-14.32-13.61-30.05-12.7-46.74.06-1.14-1.7-1.13-1.77 0z"/>
            <path d="M91.94 201.71c1.28 5.39 3.46 10.49 5.24 15.73.36 1.07 2.07.61 1.7-.47-1.78-5.24-4-10.33-5.24-15.73-.26-1.11-2-.64-1.7.47z"/>
            <path d="M112.88 158.95a146.71 146.71 0 0 0 2.36 27c.21 1.12 1.92.64 1.7-.47a144 144 0 0 1-2.3-26.56.88.88 0 0 0-1.77 0z"/>
            <path d="M98.9 142.05a114.87 114.87 0 0 0-.58 13.4.88.88 0 0 0 1.77 0 114.86 114.86 0 0 1 .58-13.4c.13-1.13-1.64-1.12-1.77 0z"/>
            <path d="M129.77 153.94a14.53 14.53 0 0 1 6-7.63c1-.6.08-2.13-.89-1.53a16.47 16.47 0 0 0-6.81 8.68c-.38 1.07 1.33 1.54 1.7.47z"/>
            <path d="M119.29 203.81c.18 6.73 2.72 13.09 2.91 19.81 0 1.13 1.8 1.14 1.77 0-.19-6.72-2.73-13.08-2.91-19.81a.88.88 0 0 0-1.77 0z"/>
            <path d="M181.63 167.1c1.18 9.71 2.73 19.33 1.75 29.13-.11 1.13 1.65 1.12 1.77 0 1-9.8-.57-19.42-1.75-29.13-.14-1.11-1.9-1.13-1.77 0z"/>
            <path d="M190.36 208.47a115 115 0 0 1-.58 13.4c-.13 1.13 1.64 1.12 1.77 0a115 115 0 0 0 .58-13.4.88.88 0 0 0-1.77 0z"/>
            <path d="M207.26 213.71v9.9a.88.88 0 0 0 1.77 0v-9.9a.88.88 0 0 0-1.77 0z"/>
            <path d="M220.08 212a32.16 32.16 0 0 1-1.13 9.67c-.34 1.09 1.37 1.55 1.7.47a33.75 33.75 0 0 0 1.2-10.14.88.88 0 0 0-1.77 0z"/>
            <path d="M236.42 194.83c-1.12 5.25-1.7 10.64-3.49 15.73-.38 1.07 1.33 1.54 1.7.47 1.8-5.09 2.37-10.48 3.49-15.73.24-1.11-1.47-1.58-1.7-.47z"/>
            <path d="M244.54 206.14a67.24 67.24 0 0 1-5.7 21.11c-.46 1 1.07 1.93 1.53.89a70 70 0 0 0 5.95-22c.1-1.13-1.66-1.12-1.77 0z"/>
            <path d="M235.25 159.77a99.42 99.42 0 0 1 .55 25.4c-.13 1.13 1.63 1.12 1.77 0a101.12 101.12 0 0 0-.57-25.87c-.15-1.12-1.86-.64-1.7.47z"/>
            <path d="M249.82 159.77c1.73 8.36 2.72 16.79.58 25.16a.88.88 0 0 0 1.7.47c2.21-8.66 1.21-17.46-.58-26.1-.23-1.11-1.93-.64-1.7.47z"/>
            <path d="M261.47 166.17c4 18 4 39.33-5.15 55.83-.55 1 1 1.89 1.53.89 9.4-16.94 9.48-38.71 5.33-57.19-.25-1.11-2-.64-1.7.47z"/>
            <path d="M251.53 201.48a62.72 62.72 0 0 1-1.13 9.67c-.19 1.11 1.52 1.59 1.7.47a65.76 65.76 0 0 0 1.2-10.14.88.88 0 0 0-1.77 0z"/>
            <path d="M191.56 150.44a97.87 97.87 0 0 1 2.33 12.23c.16 1.12 1.86.64 1.7-.47a97.87 97.87 0 0 0-2.32-12.2.88.88 0 0 0-1.7.47z"/>
            <path d="M203.8 149.86a86.4 86.4 0 0 0 4.17 10.7c.5 1 2 .13 1.53-.89a83 83 0 0 1-4-10.28c-.36-1.07-2.06-.61-1.7.47z"/>
            <path d="M223.11 152.4a39.1 39.1 0 0 1 2.82 7.36.88.88 0 0 0 1.7-.47 41.44 41.44 0 0 0-3-7.78c-.5-1-2-.13-1.53.89z"/>
            <path d="M173.5 145.2c1.33 3.26 2.84 6.42 3.5 9.9.21 1.12 1.91.64 1.7-.47-.65-3.48-2.17-6.65-3.5-9.9-.42-1-2.13-.58-1.7.47z"/>
            <path d="M156.58 149a8.28 8.28 0 0 1-1 3.63c-.51 1 1 1.91 1.53.89a10.38 10.38 0 0 0 1.29-4.52.88.88 0 0 0-1.77 0z"/>
            <path d="M117.8 143.76a12.49 12.49 0 0 0-1.88 3.09c-.51 1 1 1.91 1.53.89a11.13 11.13 0 0 1 1.61-2.73c.78-.83-.47-2.08-1.25-1.25z"/>
            <path d="M51.71 254.1c0 19.31 1.28 38.58 2.64 57.83.66 9.29 1.35 18.58 1.93 27.88.26 4.25.5 8.51.7 12.77a46.61 46.61 0 0 0 .23 5.74c.34 1.95 1.05 1.63-1.46 1.68-1.49 0-4.52.31-5.76-.63-.5-.38-.09.17-.52-.84-.65-1.52-.38-4.2-.51-5.84-.48-5.8-.92-11.6-1.36-17.39-1.07-14.15-2.6-28.3-3.38-42.43-.6-10.63-.88-21.29-.78-31.93 0-.63-.16-6.8-.45-6.52.25-.24 2.86.17 3.18.19l6.42.38c1.14.07 1.13-1.7 0-1.77l-9.9-.58a.9.9 0 0 0-.88.88c-.62 25.72 1.71 51.09 3.65 76.69.64 8.49 1.26 17 2 25.48.12 1.37-.14 3.8.84 4.86 1.78 1.92 7.64 1.3 9.88 1.07a.9.9 0 0 0 .88-.88c-1.1-35.59-5.5-71-5.57-106.63a.88.88 0 0 0-1.78-.01z"/>
            <path d="M251.57 259.83c4 19.44 2 39.56.72 59.18-1.16 17.81-2.49 36.43 2.75 53.75a.91.91 0 0 0 1.09.62c2.16-.4 6.15-2.35 7-4.47.52-1.34.19-3.41.24-4.82.31-8.81.65-17.63.85-26.44.61-26-1.52-52-1.57-78a.9.9 0 0 0-.88-.88h-9.32a.88.88 0 0 0 0 1.77h5.65c.75 0 2.19-.32 2.86 0 1.15.55-.17-.6.3.53.16.39-.35 3.46-.34 4.43.13 10.31.58 20.62 1 30.92.68 17.25.8 34.44.25 51.69-.19 5.84-.42 11.68-.61 17.52-.08 2.36.17 2.72-2 4.22-.8.55-1.93 1.66-3 1.64s-.24.08-.47-.12-.86-4.8-1-5.69c-3.42-16.58-1.81-34-.7-50.71 1.23-18.45 2.73-37.29-1.06-55.55-.33-1.17-1.99-.7-1.76.41z"/>
            <path d="M.09 361c5.93 13.3 19.79 9.16 27.18-.52h-1.53c2.24 4 5.94 8.37 11 7.74s7.58-6 8.7-10.41l-1.3.53c8.64 6 20.17 4.1 25.8-4.95l-1.61-.21c2.63 14.88 21 18.61 28.87 5.55l-1.65-.45c1.89 14.72 18 13.18 24.33 2.18l-1.61-.21c4.32 14.84 21.49 9.6 28.43-.28l-1.61-.21c5.38 14.07 21.35 14.65 30.09 3.25h-1.48c6.45 12.63 19.27 9.63 26.6-.54l-1.61-.21c3.23 12.68 19.29 13.26 23.82 1.14l-1.48.39c7 7.2 15.93 12 22.89 2.11l-1.61-.21c4.42 13.83 21.28 8.7 23.94-3.52l-1.61.21c3 4.37 7.44 8.86 13 9.31 5.82.46 9.27-4.09 11.29-9l-1.74-.23c1.36 14.94 19.54 9 25.54.46h-1.53c3.58 6.12 15.58 12.88 22.18 7.69.89-.7-.37-1.95-1.25-1.25-5.6 4.41-16.5-2.37-19.4-7.33a.89.89 0 0 0-1.53 0c-4.87 7-21.06 13.47-22.25.43a.89.89 0 0 0-1.74-.23c-4.84 11.68-15.31 7.65-21.1-.78a.9.9 0 0 0-1.61.21c-2.2 10.34-16.5 15.95-20.5 3.59a.9.9 0 0 0-1.61-.21c-6.37 9-14.17 3.65-20.12-2.46a.89.89 0 0 0-1.48.39c-4 10.57-17.64 9.73-20.41-1.14a.9.9 0 0 0-1.61-.21c-6.53 9.06-17.72 12-23.55.54a.9.9 0 0 0-1.53 0c-7.76 10.12-22 9.78-26.86-2.83a.9.9 0 0 0-1.61-.21c-6 8.55-21.32 14-25.2.71a.89.89 0 0 0-1.61-.21c-5.26 9.16-19.34 11.88-21-1.29a.89.89 0 0 0-1.65-.45c-7.1 11.84-23.3 8.15-25.64-5.13-.14-.79-1.24-.81-1.61-.21-5.17 8.29-15.56 9.74-23.38 4.31a.89.89 0 0 0-1.3.53c-.95 3.79-2.77 8.55-7.24 9.09s-7.37-3.47-9.27-6.84a.9.9 0 0 0-1.53 0c-6.6 8.64-18.78 12.51-24.13.52-.46-1-2-.14-1.53.89z"/>
            <path d="M163.14 195.74c-2.51-1.07-4.93 1.3-5.35 3.69s1.22 5.4 3.79 5.42c2 0 3.16-2.05 3.51-3.75.41-2 0-4.31-2-5.35-1-.54-1.89 1-.89 1.53 1.77 1 1.66 4.87-.25 5.72-1.28.57-2.42-1.49-2.51-2.47-.11-1.16 1.16-3.93 2.76-3.25 1.08.42 1.98-1.1.94-1.54z"/>
            <path d="M60.61 255.53c-4.28.26-10.41 1.47-7.08 6.88 4.22 6.88 13.41 12.32 20.12 16.44 9.44 5.79 19.51 10.46 29.54 15.11 11 5.12 21.81 10.72 32.53 16.49 20.18 10.86 39.81 23.16 60.74 32.52 14.3 6.4 28.86 12.75 43.85 17.34 2.93.9 15.81 5.49 13.32-2.29-.94-2.93-4.05-5.26-6.36-7.05a108.18 108.18 0 0 0-13.09-8.44c-23.86-13.53-49.48-23.93-74.6-34.86-34-14.81-66.52-33.27-98.52-52a.88.88 0 0 0-.89 1.53c25.45 14.92 51.24 29.65 77.76 42.59 22.86 11.16 46.68 20.27 69.67 31.16 11.05 5.23 22.16 10.62 32.49 17.19 1.57 1 16.66 11.63 10.39 12.64-4.25.69-10.53-2.38-14.43-3.71-6.74-2.3-13.37-4.9-20-7.6a419.84 419.84 0 0 1-44.8-21.47c-22.15-12.26-44.2-24.85-67.17-35.52-10-4.65-20.1-9.33-29.54-15.11a105.05 105.05 0 0 1-13.47-9.75c-1.79-1.53-4.24-3.3-5.47-5.35-2.35-3.91 1.71-4.72 5-4.92 1.14-.12 1.15-1.89.01-1.82z"/>
            <path d="M248.33 260.45c-5.38.18-11.18 3.52-16.19 5.57-8.63 3.52-17.28 7-26 10.39-12.41 4.82-24.87 9.53-37.06 14.91-5.76 2.54-12.09 5-17.12 8.88-2.76 2.12-3.48 3.7-.17 5.36 2.46 1.23 5.21 3.27 8 3.58 4.66.52 10.41-3.8 14.38-5.61 13.75-6.27 27.54-12.79 41.58-18.39 9.83-3.92 20-7.33 29.7-11.53 2.88-1.25 7.3-2.82 8.36-6.16 1.18-3.73-2-6.33-5.29-7-1.11-.22-1.59 1.49-.47 1.7 4.77.93 4.51 5.53 1.21 7.59a34.82 34.82 0 0 1-4.61 2.27c-3.71 1.6-7.54 2.9-11.35 4.26-8.06 2.89-16.07 6.17-23.92 9.57-11.49 5-22.91 10.18-34.33 15.33-4.59 2.07-11.61 7.12-16.65 5.72-1.4-.39-6.53-2.48-7.22-3.64-.15-.25-.09.24.6-.64a9 9 0 0 1 2-1.57 53.7 53.7 0 0 1 6.54-3.7c5.89-3 12-5.58 18.07-8.11 10-4.13 20-7.94 30.09-11.87q12.1-4.73 24.11-9.67c4.82-2 10.57-5.33 15.72-5.51 1.16-.01 1.16-1.77.02-1.73z"/>
            <path d="M130.93 309.88c-13.23 5.68-26 12.27-39.27 18q-13.92 6-27.92 11.81c-3.48 1.45-10.34 6.61-3.85 9.37 4.74 2 11.81-1.6 16.06-3.4 7.43-3.16 14.62-6.76 22.2-9.57 16.57-6.13 33.67-11 49.34-19.31a.89.89 0 0 0 0-1.53c-5.87-2.64-9.48-7.9-16.35-5.42-1.06.38-.6 2.09.47 1.7 6.13-2.21 9.83 2.92 15 5.24v-1.53c-15.79 8.37-33 13.2-49.72 19.43-7.87 2.94-15.28 6.81-23.06 10-2.95 1.2-8.33 3.87-11.52 3.1-6.46-1.56-1.77-4.6.12-5.61.29-.15.62-.25.92-.38 8.89-3.91 17.92-7.51 26.85-11.33 14-6 27.61-13 41.63-19 1.03-.45.17-2.02-.9-1.57z"/>
        </g>
    </g>
</svg>
