<svg xmlns="http://www.w3.org/2000/svg" viewBox="0 0 419.18 143.31">
    <defs>
        <style>
            .cls-1{fill:#fff}
        </style>
    </defs>
    <title>
        house_Asset 31
    </title>
    <g id="Layer_2" data-name="Layer 2">
        <g id="Layer_1-2" data-name="Layer 1">
            <path class="cls-1" d="M381 114.19c-7.07.59-15.86-.61-20.63-.37-11.34.71-23-.35-34.39.35-19.5 1.06-38.29-1.42-57.78-.35-19.14 1.06-38.64 2.84-58.14 2.84s-37.93-2.48-57.78 0c-20.56 2.48-41.48 1.77-62 2.84-12.41.71-24.11-.35-36.16-1.42-7.34-.61-16.78-.18-24.24-2.54 2.75 6.72 7 16.39 12.34 20.26a11 11 0 0 0 2 1.13c.11 0 9.08-4.24 12-10.14 2.84 4.61 6.74 9.57 12.41 11 8.15 2.13 12.05-3.9 16.66-8.86 9.93 10.63 20.56 13.47 28.36-1.42 2.13 5.32 8.86 9.93 14.54 10.28 7.09.35 9.22-4.61 13.12-9.57 2.48 4.61 6.74 9.22 12.05 10.28 6.73.71 9.22-3.9 12.76-8.51-.89 1.15 8.08 7 9.37 7.42 3.57 1.1 6.8.1 9.8-2 4.66-3.19 5.42-6.69 9.92-1.7 2.82 3.14 5.95 6.46 10.6 5.81 4.38-.61 7.09-5.31 8.87-9.12 2.16 13.94 21.74 9.59 24.54-1.79 1.89 5.5 4.72 10.21 10.6 11.68a11.46 11.46 0 0 0 14.39-9.93c1.7 6 10.25 11.76 16.39 11.21 6-.53 9.9-7.06 10.28-12.52 1.63 6.78 10.77 13.92 18.15 12.6 6-1.07 11.69-7 10.91-13.39 2.92 7.48 8.61 14 17.44 13.06 7.64-.79 10-6 11.65-12.34 2.66 12 21.26 12 21.89-.42 2.42 6.3 9.08 9.8 9.08 9.8 3.76-2.51 2.17-16.53 1-24.17z"/>
            <path class="cls-1" d="M65.78 100.07a529.12 529.12 0 0 0 53.22 2.24c18.79 0 37.93-2.48 57.07-2.48s38.64 0 58.14-.35c31.2-.35 62.39-1.06 93.59-.35 14.53.35 29.16 2.7 44 1.63 4.25-.35 11.25-2.7 15.51-1.28 4.61 2.13 7.8 6.38 3.9 9.22-6 4.61-22 1.77-29.07 2.13-11.34.71-23-.35-34.39.35-19.5 1.06-38.29-1.42-57.78-.35-19.14 1.06-38.64 2.84-58.14 2.84s-37.93-2.48-57.78 0c-20.56 2.48-41.48 1.77-62 2.84-12.41.71-24.11-.35-36.16-1.42-8.51-.71-19.85 0-27.65-3.9-3.9-2.13-8.15-6.38-4.61-10.63 2.13-2.48 5-1.06 7.8-1.42-.03-.02 21.57-.14 34.35.93z"/>
            <path class="cls-1" d="M83.45 33.35c13.83-.71 26.59-1.06 40.41-.71 27.65.71 54.95 2.13 82.6 2.13 16.31 0 32.61-1.42 48.92-.71 14.89.71 29.78-1.42 44.67-.71 13.83.71 27.3 1.06 41.12 1.06 6 0 14.89-.36 20.91-.36 0 14.18.35 28.36.71 42.54.35 7.09-.35 19.14 1.77 24.46 0 0-23-.71-37.58-1.06-31.2-.71-62.39 0-93.59.35-19.5.35-39 .35-58.14.35s-38.29 2.48-57.07 2.48A528.61 528.61 0 0 1 65 100l-1.42-.71c-1.77-6-1.77-19.14-2.48-27.3-1.1-12.76-1.76-25.53-2.47-38.29 0 0 12.37 0 24.82-.35z"/>
            <path class="cls-1" d="M172.13 53.74l2.13 1.77c-7.09-2.84-13.47-4.61-17.72 4.25-4.25 7.8-.35 16.66 7.45 20.56 19.13 8.52 27.64-20.55 8.14-26.58z"/>
            <path class="cls-1" d="M218.14 54.27c-11.38-6.93-28.52 22.62-8.43 27.12 20.63 4.13 18.91-28.12 8.43-27.12z"/>
            <path class="cls-1" d="M262.88 53.39l2.84.35c-6.38 2.13-11.7-2.13-15.6 6s-.71 17 8.15 19.14c19.85 4.99 23.73-26.2 4.61-25.49z"/>
            <path class="cls-1" d="M312.69 52a7.17 7.17 0 0 0-.88-.38c-11.06-3.84-27.3 21.2-3.56 24.45 8.15 1.06 13.47-3.9 14.53-12.05.65-7.71-4.71-9.71-10.09-12.02z"/>
            <path class="cls-1" d="M215 60.48l1.77-.36c-6-2.13-12.76 6.74-9.22 12.76C214 83.52 229.91 62.6 215 60.48z"/>
            <path class="cls-1" d="M170.71 61.19l1.06-1.06c-1.42 0-5-.71-6 0-3.19 1.77-3.9 9.22-2.13 11.7 6.36 9.17 18.41-6.39 7.07-10.64z"/>
            <path class="cls-1" d="M264.09 60.47c-5.82-1.64-11.1 6.48-6.88 11.35 8.47 9.53 17.98-12.2 6.88-11.35z"/>
            <path class="cls-1" d="M313.39 59.06h.89c-5.67-3.19-14.89 2.13-10.63 8.51 7.11 11.17 17.77-7.73 9.74-8.51z"/>
            <path class="cls-1" d="M88.47 101.24c1.77-6.74-.71-16-1.06-23C87.05 67.92 86 57.29 86.34 47c7.09-.36 14.53-.36 22-1.06 5.32-.71 19.14-2.84 21.63 2.48 1.77 4.25.35 14.18.71 18.79.35 5 .71 10.28.71 15.24 0 6 .71 12.41.71 18.43 0 0-37.16 3-44.16 1z"/>
            <path class="cls-1" d="M66.84 3.4c-2.84 9.22-17 17.72-20.92 28C58 35 71.81 32.83 84.21 32.47c13.83-.71 26.59-1.06 40.41-.71 27.65.71 54.95 2.13 82.6 2.13 16.31 0 32.61-1.42 48.92-.71 14.89.71 29.78-1.42 44.67-.71 13.83.71 27.3 1.06 41.12 1.06H360c3.19 0 10.63 1.77 13.47.71.35-.36 1.77 0 2.48 0-5.32-9.22-8.15-17.72-15.24-25.88-5-5.32-4.25-6.73-12.05-6-5.67.71-11 0-16.66-.36C310.38.57 288.76.92 267.13.92c-21.27 0-42.54 1.42-63.81 1.42-22.69 0-45.37 4.25-68.06 4.25a367.27 367.27 0 0 1-39.7-2.13c-5.32-.71-10.63-.35-16.31-.71-4.61-.35-7.09-1.75-12.05-.7z"/>
            <path d="M83.45 34.23c47.54-2.39 95 2.6 142.58 1 11.76-.4 23.42-.17 35.18-.11 12 .06 23.94-1.25 35.93-1 11.73.29 23.45 1 35.19 1.12 4.86.05 9.72.07 14.57 0l7.9-.18 3.07-.06c1.68 0 2.4-.44 3.33 1 1.11 1.73 0 7.43.07 9.67q.06 4.83.15 9.67.18 9.67.44 19.34c.23 8.56-1 18.42 1.85 26.63l.85-1.12c-48.31-1.48-96.49-1-144.81-.51-14.19.15-28.38.14-42.58.16-14.49 0-28.9 1.27-43.37 2a363.87 363.87 0 0 1-42.34-.47c-6.64-.43-13.28-1-19.91-1.61-2.14-.2-6.19.26-7.36-1.66s-1-6.39-1.15-8.67c-1.1-14.09-1.93-28.23-2.77-42.33-.22-3.81-.65-7.67-.65-11.49 0-3-1.62-.14-.11-1 .46-.27 2 0 2.44 0q10.75-.06 21.49-.34a.88.88 0 0 0 0-1.77q-12.4.34-24.81.36a.89.89 0 0 0-.88.88c.75 13.41 1.69 26.8 2.63 40.21.36 5.17.49 10.35.9 15.51.2 2.52-.1 8.47 1.69 10.49s7.25 1.49 9.53 1.7c7 .65 13.91 1.22 20.88 1.65a359.07 359.07 0 0 0 40.43.35c13.82-.72 27.6-2 41.45-2 14.18-.06 28.36 0 42.55-.14 27.76-.27 55.53-.92 83.29-.87 21.16 0 42.31.71 63.46 1.36a.89.89 0 0 0 .85-1.12c-3-8.53-1.62-19.16-1.84-28.09-.32-12.89-.6-25.78-.61-38.67a.9.9 0 0 0-.88-.88c-16.45.06-32.83.44-49.28-.15-9.12-.33-18.19-.86-27.32-.54-9.39.33-18.76 1-28.16.77-18.29-.54-36.52.71-54.81.62-18.68-.09-37.34-.78-56-1.42-21.06-.72-42-1-63.06 0-1.14 0-1.14 1.77 0 1.71z"/>
            <path d="M65.78 101a475.68 475.68 0 0 0 76.66 1.31c26-1.64 52-1.44 78.09-1.72s52.24-.86 78.36-.85c13.1 0 26.24-.06 39.32.83 11.48.78 23.47 2.47 35 1 4.95-.65 13.35-4 17.14 1 4.14 5.48-2.13 7-5.12 7.53a42.17 42.17 0 0 1-7.43.46c-9.65-.05-19.31-.21-29-.31-12.82-.13-25.62.59-38.43.31s-25.62-1.19-38.44-.64c-25.69 1.11-51.11 3.57-76.86 2.49-12.07-.51-24.17-1.12-36.23-.06-12.93 1.14-25.72 2.22-38.71 2.52-14.45.33-29 1.46-43.48.9-6.95-.27-13.85-1-20.78-1.5-6.21-.47-12.51-.28-18.67-1.28a26.09 26.09 0 0 1-9.12-2.85c-1.45-.85-3.48-2.24-4.19-3.85q0-6.76 4-6.26l2.07.11c2.17 0 4.35-.06 6.52-.05 9.76 0 19.54.18 29.27.95 1.13.09 1.13-1.68 0-1.77-9.73-.77-19.52-.9-29.27-.95-4.62 0-12.34-1.85-14.6 3.34-3.79 8.69 10.85 12.52 16.39 13.26 5.09.68 10.24.66 15.37 1 7 .42 14 1.24 21.08 1.57 14.12.67 28.33-.45 42.45-.75 14.29-.31 28.35-1.51 42.58-2.67s28.47 0 42.69.43 28.31-.21 42.44-1.09 28.26-2.08 42.45-1.77 28.15 1 42.28.44c7-.29 14 0 21.06 0 5.54 0 11.07-.43 16.6-.16 7.1.34 18.34 2.51 24.44-2.4 6.32-5.1-3-11.26-8.06-11.24-4.65 0-9.19 1.55-13.83 1.85-7.67.5-15.43-.06-23.08-.61-28.86-2.07-57.81-1.51-86.72-1.13-16.42.22-32.84.51-49.26.62-16.2.11-32.44-.32-48.62.44s-32.56 2.2-48.93 2.1c-15.85-.1-31.69-.65-47.47-2.22-1.09-.25-1.08 1.51.04 1.67z"/>
            <path d="M89.32 101.48c1.53-7-.21-14.05-.86-21.09-.8-8.62-1.12-17.43-1.28-26.08 0-1.65-.71-4.78.47-6s4.23-.65 5.89-.7c4.62-.16 9.25-.25 13.85-.71 5.17-.51 10.4-1.56 15.62-1 4.32.5 6.47 2.07 6.86 6.55a83.36 83.36 0 0 1-.09 9.79c-.25 7.89.5 15.91.77 23.81.14 4.24.92 8.73.62 13-.06.92 1.14.41.48 1-.25.21-1.08 0-1.42.11-3.6.7-7.62.54-11.28.75-5.72.34-11.45.62-17.18.73-4.41.08-9.31.47-13.63-.62l.39 1.48.56-.61c.77-.84-.48-2.09-1.25-1.25l-.56.61a.89.89 0 0 0 .39 1.48c7.62 1.93 16.66.69 24.4.33q10-.47 20-1.26a.9.9 0 0 0 .88-.88c-.12-11.38-1-22.77-1.44-34.14-.21-5.55 2.26-14.67-1.26-19.51-3.06-4.2-10.9-3.34-15.27-3-9.56.82-19 1.41-28.64 1.86a.9.9 0 0 0-.88.88c-.25 9.51.53 19 1 28.47.37 8.38 3 17.22 1.2 25.54-.28 1.1 1.42 1.57 1.66.46z"/>
            <path d="M121.91 73.81c-2.19.4-4.38 2.65-3.46 5 .71 1.81 3.22 3.1 5 2a4.11 4.11 0 0 0 1.6-4.28 3.91 3.91 0 0 0-4-3.13.89.89 0 0 0-.23 1.74l1.06.36c1.08.36 1.54-1.34.47-1.7l-1.06-.36-.23 1.74a2.13 2.13 0 0 1 2.2 1.51 2.6 2.6 0 0 1-.45 2.38c-.75.8-2 .16-2.57-.62-.95-1.42.88-2.72 2.12-2.94s.64-1.91-.45-1.7z"/>
            <path d="M174.49 54.66c-3.87-1.52-8.41-3.31-12.56-1.73-4.53 1.72-7.4 7.34-7.93 11.9-1.1 9.64 7.87 18.44 17.41 17.91 6.84-.38 11.71-6.11 12.53-12.67 1-8.15-4.08-14.62-11.58-17.17a.89.89 0 0 0-.86 1.48l2.13 1.77c.87.72 2.12-.52 1.25-1.25l-2.13-1.77-.86 1.48c6 2 10.42 6.84 10.42 13.39 0 5.44-3.12 11-8.58 12.59-8.17 2.31-17.35-4.75-18-13-.35-4.75 2.12-11.28 7-13 3.71-1.33 7.83.45 11.29 1.8 1.06.39 1.52-1.32.47-1.73z"/>
            <path d="M219.37 54c-11.52-8.2-24.43 13.64-18 23.19 3.79 5.61 13.06 7.09 18.66 3.52 5.36-3.41 7.05-10.58 6.43-16.54-.52-5-3.32-12.06-9.57-10.62a.89.89 0 0 0 0 1.7l1.77.36c1.11.22 1.59-1.48.47-1.7l-1.77-.36v1.7c9.86-2.27 10.95 26-4.71 25.56-22.71-.57-6-33.73 5.8-25.3.95.72 1.84-.81.92-1.51z"/>
            <path d="M265.48 52.89c-4.31 1.2-9.5-.47-13.23 2.51s-5.2 9-4.48 13.53c1.4 8.86 11.72 13.71 19.8 10.42 6-2.44 9.21-9.15 8.61-15.41-.7-7.22-6.24-11.5-13.3-11.44-1.17 0-1.1 1.63 0 1.77l2.84.35c1.13.14 1.12-1.63 0-1.77l-2.84-.35v1.77c12.5-.1 15.81 16.71 5.44 22.76-7.11 4.14-17.53-.18-18.77-8.47-.79-5.24 1.59-12.3 7.44-13.18 3-.46 6 .05 9-.78a.88.88 0 0 0-.51-1.71z"/>
            <path d="M315.23 52.76c-9.92-8.84-25.43 9-18.27 18.78 5 6.9 17.93 7.66 23.34 1 2.92-3.6 4.46-9.37 2.69-13.79s-6.69-6.15-10.77-7.91a.88.88 0 0 0-.89 1.53l2.84 1.77c1 .6 1.85-.92.89-1.53l-2.84-1.77-.89 1.53c3.11 1.34 6.92 2.53 9 5.37 3.14 4.24 1.23 11.35-2.42 14.76-5 4.7-17.08 3.48-20.28-3.21C293.75 61.15 306 46.92 314 54c.83.77 2.09-.48 1.23-1.24z"/>
            <path d="M66 3.17c-3.94 11.16-16.32 17-20.92 28a.89.89 0 0 0 .62 1.09c9.79 2.66 19.85 2.11 29.88 1.52 10.55-.62 21.13-1.08 31.7-1.23 22.82-.32 45.66 1.08 68.47 1.72s45.74-.26 68.66-.4c11.72-.07 23.33.34 35-.21 11.11-.52 22-.2 33.14.21 12.79.47 25.58.54 38.38.54a117 117 0 0 1 14.6.59c3.55.44 6.94-.19 10.39.12a.89.89 0 0 0 .76-1.33c-4.77-8.52-8.38-17.79-14.76-25.37-4.33-5.12-6.36-7.48-13.25-7C337 2.34 325 .58 313.33.27 301.21-.05 289.09 0 277 0c-24.23.06-48.42 1.33-72.64 1.43-23.74.1-47.24 4.35-71 4.25-13.28-.03-26.36-1.13-39.57-2.3-6.3-.56-12.56-.2-18.83-1.14-2.41-.36-6.8-1.4-8.74.53A.88.88 0 0 0 67.47 4c2.14-2.14 9.79.48 12.72.66 5.13.32 10.24.16 15.37.66 11 1.08 22 1.87 33 2.07 22.46.4 44.6-3.2 67-4s45.1-1.38 67.6-1.56c22.28-.17 44.65-.44 66.89.92 6.26.38 12.36.93 18.63.48 4-.29 6.31 0 9 3 7.62 8.62 11.92 18.53 17.52 28.44l.76-1.33c-3.48-.31-6.82.32-10.39-.12a117.25 117.25 0 0 0-14.6-.59c-12.8 0-25.59-.07-38.38-.54-13.07-.49-25.9-.49-39 .06s-26-.25-39 .13c-51.31 1.48-102.55-3-153.82-.57-6.47.3-12.93.89-19.41.81-3.19 0-9.23.41-11.9-1.15-1.37-.8-1.84.55-1.77-1.79 0-.94 1.48-2.48 2.06-3.29 5.56-7.73 14.68-13.41 17.95-22.65.38-1.08-1.33-1.54-1.7-.47z"/>
            <path d="M77.23 5.37c-2.95 8.8-7.81 18.82-14.45 25.39A.88.88 0 0 0 64 32c6.9-6.83 11.84-17 14.9-26.17.36-1.08-1.34-1.54-1.7-.47z"/>
            <path d="M84.76 6.3c-2.63 8.81-8 17-13.38 24.37-.67.92.86 1.8 1.53.89C78.36 24 83.79 15.75 86.46 6.77a.88.88 0 0 0-1.7-.47z"/>
            <path d="M100.08 7.41c-3.14 7.27-6.1 14.5-10.59 21.07-.64.94.89 1.83 1.53.89 4.48-6.57 7.44-13.8 10.58-21.07.45-1-1.08-1.93-1.53-.89z"/>
            <path d="M108.32 8.19c-2.19 7-5.63 13.38-8.33 20.14-.42 1.06 1.29 1.51 1.7.47 2.7-6.77 6.14-13.17 8.33-20.14.34-1.09-1.36-1.55-1.7-.47z"/>
            <path d="M130.24 8.28c-2.93 6.54-3.77 13.85-7.1 20.21-.53 1 1 1.9 1.53.89 3.34-6.37 4.17-13.66 7.1-20.21.46-1-1.06-1.93-1.53-.89z"/>
            <path d="M138 8.49c-1.84 6.82-4.2 13.5-6.43 20.21-.36 1.08 1.34 1.54 1.7.47 2.24-6.7 4.6-13.38 6.43-20.21a.88.88 0 0 0-1.7-.47z"/>
            <path d="M163 7.3c-.69 7.78-3.27 15.53-5.41 23a.88.88 0 0 0 1.7.47c2.18-7.64 4.77-15.53 5.47-23.48.1-1.13-1.67-1.13-1.77 0z"/>
            <path d="M171.39 7.56c.13 7.65-4.4 15-5.64 22.45-.18 1.11 1.52 1.59 1.7.47 1.28-7.68 5.83-15.06 5.7-22.92a.88.88 0 0 0-1.77 0z"/>
            <path d="M191.39 4.82v26.72a.88.88 0 0 0 1.77 0v-.81a.88.88 0 0 0-1.77 0v.81a.88.88 0 0 0 1.77 0V4.82a.88.88 0 0 0-1.77 0z"/>
            <path d="M199.9 4.82c.07 8.87 1 17.71 1.06 26.58a.88.88 0 0 0 1.77 0c-.07-8.87-1-17.71-1.06-26.58a.88.88 0 0 0-1.77 0z"/>
            <path d="M221.26 4.35c3.36 8.55 2.66 18 5.67 26.59.37 1.07 2.08.61 1.7-.47-3-8.62-2.31-18-5.67-26.59-.41-1-2.12-.59-1.7.47z"/>
            <path d="M229.82 4c.19 9 2.79 17.6 5 26.26a.88.88 0 0 0 1.7-.47c-2.16-8.5-4.73-16.95-4.92-25.79a.88.88 0 0 0-1.77 0z"/>
            <path d="M257.07 4c1.35 8.89 3.26 18.79 7.53 26.8.54 1 2.06.11 1.53-.89-4.18-7.84-6-17.66-7.36-26.37-.17-1.12-1.87-.64-1.7.47z"/>
            <path d="M266.64 3.64c2 8.95 7 17.21 8.12 26.35.14 1.11 1.91 1.13 1.77 0-1.18-9.33-6.1-17.7-8.18-26.82-.25-1.11-2-.64-1.7.47z"/>
            <path d="M292.13 3.05c-.14 9.18 3.13 18.39 6.54 26.79.42 1 2.13.59 1.7-.47-3.35-8.24-6.61-17.32-6.48-26.32a.88.88 0 0 0-1.77 0z"/>
            <path d="M299.6 4.35c2.82 8.5 3.64 18 8.42 25.71.6 1 2.13.08 1.53-.89-4.68-7.59-5.47-16.94-8.24-25.29-.36-1.07-2.06-.61-1.7.47z"/>
            <path d="M318.39 4c2.64 9.23 7.2 17.74 9.93 26.94a.88.88 0 0 0 1.7-.47c-2.73-9.2-7.29-17.71-9.93-26.94a.88.88 0 0 0-1.7.47z"/>
            <path d="M329.38 4.78c2.86 9.06 6.73 17.72 10.28 26.51.42 1 2.13.59 1.7-.47-3.55-8.8-7.42-17.46-10.28-26.51-.34-1.08-2-.62-1.7.47z"/>
            <path d="M.43 136.31c4.74 2.75 10.43 4.77 15.79 2.51 5-2.1 7.47-7 8.91-11.9l-1.61.21c3.75 6 9.57 11.21 17 11.56s13.11-4.6 16.45-10.85h-1.56c3.42 5.41 7.91 10.83 14.65 11.73a11.81 11.81 0 0 0 8.13-1.87c1.79-1.15 5.51-6.49 7.15-6.53 1 0 3.26 2.79 4.1 3.45a26.44 26.44 0 0 0 4 2.64 15.48 15.48 0 0 0 7.34 2c6.52-.08 10.73-5.49 13.62-10.71h-1.53c2.68 5.69 8.87 10.39 15.3 10.72 6.9.36 10.16-5.14 13.88-10h-1.53c2.94 5.11 7.86 10.82 14.3 10.79 5.8 0 8.91-4.87 12-9l-1.61-.68c-.62 2.67 5 5.54 6.7 6.65 4.56 2.95 9.14 2.91 13.77-.19 1.14-.76 2.11-2 3.28-2.64 1.5-.87 2.58-1.48 4.43-.36a13.1 13.1 0 0 1 2.09 2.21c2 2.08 4.23 4.22 7.15 4.88 6.48 1.46 10.33-4.4 12.76-9.42l-1.61-.21c2.85 14.65 22.77 10.18 26.24-1.79h-1.7c2.25 6.23 6.13 12.08 13.35 12.63a12.43 12.43 0 0 0 13.33-10.9h-1.7c2.3 6.45 9.64 12.07 16.66 11.87s11-7.17 11.75-13.42l-1.74.23c2.13 7.09 9.53 13.38 17.12 13.39a14.06 14.06 0 0 0 13.67-14.42l-1.74.23c2.89 7 8 13.49 16.16 13.77 8.55.29 12.57-5.57 14.63-13.05h-1.7c3.27 12.21 22.32 13 23.63-.66l-1.74.23c2.58 6.13 7.58 11.83 14.7 12 7.73.21 12.67-4.76 17.1-10.41l-1.48-.39c.69 4.73 3 9.08 7.83 10.64a9.8 9.8 0 0 0 6.67 0 32 32 0 0 0 3.48-2.8l-.76-1.33-.21.45c-.48 1 1 1.92 1.53.89l.21-.45a.89.89 0 0 0-.76-1.33c-1.49.06-3.16 2.34-4.62 2.81-6.5 2.08-10.81-3.51-11.66-9.33a.89.89 0 0 0-1.48-.39c-3.24 4.13-6.48 8.1-11.82 9.43-7.92 2-14.11-3.33-17-10.27a.89.89 0 0 0-1.74.23c-1.13 11.85-17.44 10.32-20.16.19a.89.89 0 0 0-1.7 0c-1.84 6.66-5.14 12.07-12.93 11.76-7.3-.3-11.87-6.24-14.45-12.47-.35-.84-1.79-.85-1.74.23.38 7.28-6.43 13.6-13.71 12.46a17.75 17.75 0 0 1-13.62-11.9.89.89 0 0 0-1.74.23c-.69 6.07-4.9 12.35-11.69 11.51-5.6-.69-11.35-5.11-13.25-10.43-.26-.73-1.56-.95-1.7 0-.9 6.05-5.91 10.34-12.15 9.48S242 134.35 240 129a.89.89 0 0 0-1.7 0c-3 10.31-20.32 14.73-22.84 1.79a.89.89 0 0 0-1.61-.21c-1.27 2.63-2.69 5.59-5.18 7.28-4.58 3.1-8.69.28-12-3.1-1.83-1.9-3.65-4.41-6.56-3.56-1.29.38-2.37 1.67-3.36 2.49-3.27 2.69-7.39 5-11.68 3.19-1.27-.55-8.51-4.82-8.22-6.07a.89.89 0 0 0-1.61-.68c-2.71 3.58-5.43 8.12-10.52 8.14-5.81 0-10.16-5.37-12.77-9.91a.9.9 0 0 0-1.53 0c-3.33 4.37-6.05 9.37-12.35 9.13-5.79-.22-11.41-4.81-13.77-9.84a.89.89 0 0 0-1.53 0c-2.87 5.17-7 10.47-13.55 9.72-5.4-.61-9.82-4.74-13.42-8.49a.89.89 0 0 0-1.25 0c-3.3 3.62-6.72 8.55-12 8.94-7.25.53-12.16-5.36-15.66-10.89a.89.89 0 0 0-1.53 0c-3 5.7-8.05 10.36-14.92 10s-12-5.19-15.46-10.68a.89.89 0 0 0-1.61.21c-3.29 11.24-12.22 14.06-22.1 8.33a.88.88 0 0 0-.89 1.53z"/>
            <path d="M381 113.31c-9.63.63-19.53-.17-29.19-.12-11.84.05-23.68.32-35.52.37-11.52.05-23-.76-34.54-.88-11.92-.12-23.81.89-35.7 1.65s-24 1.45-36 1.44c-11.13 0-22.24-.84-33.37-1.05-11.48-.22-22.66 1.11-34.07 2-12 .93-23.95 1-35.93 1.32-13.16.3-26.21 1.14-39.37.23-6-.41-11.89-1.08-17.85-1.36-6.53-.3-13-.41-19.38-2.24-.59-.17-1.35.45-1.09 1.09a88.86 88.86 0 0 0 6.79 14c1.52 2.39 4.69 7.54 8 7.94 1.57.19 3.21-1.15 4.5-2a24.77 24.77 0 0 0 8.74-8.5h-1.55c3.42 5.41 7.91 10.83 14.65 11.73a11.81 11.81 0 0 0 8.13-1.87c1.79-1.15 5.51-6.49 7.15-6.53 1 0 3.26 2.79 4.1 3.45a26.44 26.44 0 0 0 4 2.64 15.48 15.48 0 0 0 7.34 2c6.52-.08 10.73-5.49 13.62-10.71h-1.56c2.68 5.69 8.87 10.39 15.3 10.72 6.9.36 10.16-5.14 13.88-10h-1.53c2.94 5.11 7.86 10.82 14.3 10.79 5.8 0 8.91-4.87 12-9l-1.61-.68c-.62 2.67 5 5.54 6.7 6.65 4.56 2.95 9.14 2.91 13.77-.19 1.14-.76 2.11-2 3.28-2.64 1.5-.87 2.58-1.48 4.43-.36a13.1 13.1 0 0 1 2.09 2.21c2 2.08 4.23 4.22 7.15 4.88 6.48 1.46 10.33-4.4 12.76-9.42l-1.61-.21c2.85 14.65 22.77 10.18 26.24-1.79h-1.7c2.25 6.23 6.13 12.08 13.35 12.63a12.43 12.43 0 0 0 13.34-10.88h-1.7c2.3 6.45 9.64 12.07 16.66 11.87s11-7.17 11.75-13.42l-1.74.23c2.13 7.09 9.53 13.38 17.12 13.39a14.06 14.06 0 0 0 13.67-14.42l-1.74.23c2.89 7 8 13.49 16.16 13.77 8.55.29 12.57-5.57 14.63-13.05h-1.7c3.27 12.21 22.32 13 23.63-.66l-1.65.45a21.54 21.54 0 0 0 9.4 10.11.92.92 0 0 0 1.07-.14c2.56-2.2 2.57-6.4 2.61-9.5a97.7 97.7 0 0 0-1.34-15.48c-.17-1.12-1.87-.64-1.7.47.92 6.22 2.33 13.69.89 19.93-.6 2.59-.13 3.48-2.32 2.17a18.6 18.6 0 0 1-7-8.41c-.39-.89-1.57-.32-1.65.45-1.13 11.85-17.44 10.32-20.16.19a.89.89 0 0 0-1.7 0c-1.84 6.66-5.14 12.07-12.93 11.76-7.3-.3-11.87-6.24-14.45-12.47-.35-.84-1.79-.85-1.74.23.38 7.28-6.43 13.6-13.71 12.46a17.75 17.75 0 0 1-13.62-11.9.89.89 0 0 0-1.74.23c-.69 6.07-4.9 12.35-11.69 11.51-5.6-.69-11.35-5.11-13.25-10.43-.26-.73-1.56-.95-1.7 0-.9 6.05-5.91 10.34-12.15 9.48s-9.2-5.89-11.13-11.23a.89.89 0 0 0-1.7 0c-3 10.31-20.32 14.73-22.84 1.79a.89.89 0 0 0-1.61-.21c-1.27 2.63-2.69 5.59-5.18 7.28-4.58 3.1-8.69.28-12-3.1-1.83-1.9-3.65-4.41-6.56-3.56-1.29.38-2.37 1.67-3.36 2.49-3.27 2.69-7.39 5-11.68 3.19-1.27-.55-8.51-4.82-8.22-6.07a.89.89 0 0 0-1.61-.68c-2.71 3.58-5.43 8.12-10.52 8.14-5.81 0-10.16-5.37-12.77-9.91a.9.9 0 0 0-1.53 0c-3.33 4.37-6.05 9.37-12.35 9.13-5.79-.22-11.41-4.81-13.77-9.84a.89.89 0 0 0-1.53 0c-2.87 5.17-7 10.47-13.55 9.72-5.4-.61-9.82-4.74-13.42-8.49a.89.89 0 0 0-1.25 0c-3.3 3.62-6.72 8.55-12 8.94-7.25.53-12.16-5.36-15.66-10.89a.89.89 0 0 0-1.53 0 22.84 22.84 0 0 1-8.11 7.87c-1.81 1.14-2.56 1.9-4.45 1-3-1.4-5.15-5.51-6.73-8.26a98.82 98.82 0 0 1-5.46-11.64l-1.09 1.09c9.68 2.79 20.19 2.23 30.16 3.07a269.79 269.79 0 0 0 34.33.74c12.29-.52 24.59-.5 36.88-1 11.56-.49 23-2.26 34.56-2.64 11.73-.38 23.44.48 35.16.85 11.57.36 23.13 0 34.68-.63 11.91-.66 23.82-1.72 35.74-2.17s23.7.32 35.55.63c13.45.35 26.89-.41 40.35-.27 5.64.06 11.29-.41 16.92-.22s11.36.73 17.07.36c1.11-.15 1.11-1.92-.04-1.84z"/>
            <path d="M113.43 51.29c3.76-.5 11.76-1.71 17-.5a10 10 0 0 0-.56-2.09c-2.48-5.32-16.31-3.19-21.62-2.48-7.44.71-14.89.71-22 1.06-.35 10.28.71 20.91 1.06 31.2.35 7.09 2.83 16.31 1.06 23h5.8c.09-5.85-1.42-12.5-1.68-17.92-.36-10.28-1.42-20.92-1.06-31.2 7.11-.36 14.57-.36 22-1.07z"/>
            <path d="M124.45 38.61c27.65.71 54.95 2.13 82.6 2.13 16.31 0 32.61-1.42 48.92-.71 14.89.71 29.78-1.42 44.67-.71 13.83.71 27.3 1.06 41.12 1.06 6 0 14.89-.36 20.92-.36V34c-6 0-14.89.36-20.92.36-13.83 0-27.3-.36-41.12-1.06-14.89-.71-29.78 1.42-44.67.71-16.31-.71-32.61.71-48.92.71-27.65 0-54.95-1.42-82.6-2.13-13.82-.35-26.59 0-40.41.71-12.41.36-24.81.36-24.81.36v6s12.41 0 24.81-.36c13.82-.69 26.59-1.04 40.41-.69z"/>
            <path d="M393 107.64a5.25 5.25 0 0 1-.81.74c-6 4.61-22 1.77-29.07 2.13-11.34.71-23-.35-34.39.35-19.5 1.06-38.29-1.42-57.78-.35-19.14 1.06-38.64 2.84-58.14 2.84s-37.93-2.48-57.78 0c-20.56 2.48-41.48 1.77-62 2.84-12.41.71-24.11-.35-36.16-1.42-8.51-.71-19.85 0-27.65-3.9a13.12 13.12 0 0 1-5.3-4.87c-2.24 3.92 1.66 7.71 5.27 9.68 7.8 3.9 19.14 3.19 27.65 3.9 12.05 1.07 23.75 2.13 36.16 1.42 20.56-1.06 41.48-.35 62-2.84 19.85-2.48 38.29 0 57.78 0s39-1.77 58.14-2.84c19.5-1.06 38.29 1.42 57.78.35 11.34-.71 23 .35 34.39-.35 7.09-.35 23 2.48 29.07-2.13 2.25-1.6 2.17-3.67.84-5.55z"/>
            <path d="M168.67 61.8c.66-.44 2.26-.33 3.73-.19a9.79 9.79 0 0 0-1.45-.69l1.05-1.06c-1.42 0-5-.71-6 0-3.19 1.77-3.9 9.22-2.13 11.7a6.49 6.49 0 0 0 3.19 2.6c-.17-.21-.34-.42-.51-.66-1.78-2.5-1.07-9.93 2.12-11.7z"/>
            <path d="M174.31 63.15a6.38 6.38 0 0 0-.47-.5l-.2.2c.23.15.45.21.67.3z"/>
            <path d="M218.87 61.91a9.17 9.17 0 0 0-3.87-1.4l1.78-.33c-6-2.2-12.85 6.57-9.38 12.64a5.71 5.71 0 0 0 3.6 2.91 8.08 8.08 0 0 1-.65-1c-3.35-5.73 2.74-14.01 8.52-12.82z"/>
            <path d="M266.09 62.72a5.19 5.19 0 0 1 3.28.66c-.56-1.72-2-2.87-4.78-2.66-5.82-1.64-11.1 6.48-6.88 11.35.19.21.38.4.58.58-2.29-4.86 2.52-11.42 7.8-9.93z"/>
            <path d="M316.28 61.4h-.66a4.35 4.35 0 0 1 .69.12z"/>
            <path d="M316.25 61.27a2.85 2.85 0 0 0-2.69-2h.89c-5.67-3.19-14.89 2.13-10.63 8.51a8.83 8.83 0 0 0 2.42 2.63c-.12-.17-.24-.32-.36-.51-4.19-6.27 4.68-11.52 10.37-8.63z"/>
            <path d="M217 59.27c-8.88-2.64-16 12.13-7.52 16.79 5.67 3.12 12.18-4.13 12.54-9.41.29-4.17-3-6.42-6.79-7v1.7L217 61c1.11-.22.64-1.93-.47-1.7l-1.77.36a.89.89 0 0 0 0 1.7c3.35.55 6.15 2.39 5.36 6.14a10.58 10.58 0 0 1-5.1 6.73c-3.15 1.73-6.34.23-7.34-3.25-1.41-4.91 3.54-11.55 8.85-10a.88.88 0 0 0 .47-1.71z"/>
            <path d="M171.78 59.24c-2.26-.08-5-1-7 .49-1.79 1.36-2.53 3.85-2.83 6-.58 4.16 1 9.33 5.85 9.83 3.64.37 6.9-2.64 8-5.91 1.46-4.25-.95-7.7-4.87-9.29l.39 1.48 1.06-1.06a.88.88 0 0 0-1.25-1.25l-1.06 1.06a.9.9 0 0 0 .39 1.48c3.11 1.26 4.86 4 3.57 7.29-.91 2.31-3.26 4.63-5.91 4.47-3.81-.24-4.87-4.4-4.51-7.54.2-1.71.79-4.56 2.56-5.37 1.55-.72 3.94.06 5.58.12 1.16-.04 1.16-1.76.03-1.8z"/>
            <path d="M266.16 60.42c-8.73-4.86-16 9.22-7.21 14 5.84 3.16 11.16-4.3 11.06-9.56-.07-3.54-2.64-5.47-6.07-5.23a.89.89 0 0 0-.23 1.74l1.77.71c1.06.42 1.51-1.29.47-1.7l-1.77-.71-.23 1.74c7.06-.5 4 8.79.27 11.2-2.87 1.86-6.46-.13-7.41-3.24-1.51-4.88 3.85-9.94 8.47-7.37.98.5 1.88-1 .88-1.58z"/>
            <path d="M314.73 58.3a9.67 9.67 0 0 0-11.57 2.14c-2.78 3.31-1.1 7.77 2 10.21 5.24 4.1 11.36-2.31 11.92-7.56.34-3.21-1.78-5.16-4.95-4.91a.88.88 0 0 0 0 1.77h2.13a.88.88 0 0 0 0-1.77h-2.13v1.77c6.57-.53 1.49 8.69-1.89 10s-6.79-2.41-6.82-5.56c0-4.88 6.92-6.33 10.39-4.53 1.03.48 1.93-1.04.92-1.56z"/>
        </g>
    </g>
</svg>
