<svg id="Stroke_Done" xmlns="http://www.w3.org/2000/svg" viewBox="0 0 500 500">
    <style>
        .st0{fill:#fff}.st1,.st2{fill:#fff;stroke:#000;stroke-width:2;stroke-linecap:round;stroke-linejoin:round;stroke-miterlimit:10}.st2{fill:none}
    </style>
    <path class="st0" d="M252.2 202s-48.9-14-52.3-61.5c-3.5-47.5 20.5-65.4 48.4-73.3s72.4 12.2 70.7 56.7-38 78.1-38 78.1 7.8 4.8 3.5 11.3c-5.2 7.8-18.8-6.5-18.8-6.5s-3.1 12.2-12.7 12.7-.8-17.5-.8-17.5z"/>
    <path class="st2" d="M252.2 202s-48.9-14-52.3-61.5c-3.5-47.5 20.5-65.4 48.4-73.3s72.4 12.2 70.7 56.7-38 78.1-38 78.1 7.8 4.8 3.5 11.3c-5.2 7.8-18.8-6.5-18.8-6.5s-3.1 12.2-12.7 12.7-.8-17.5-.8-17.5z"/>
    <path class="st2" d="M265.7 206.8s25.6 27.2 0 102.2 38.1 121.7 38.1 121.7"/>
</svg>
