<svg id="Stroke_Done" xmlns="http://www.w3.org/2000/svg" viewBox="0 0 500 500">
    <style>
        .st0{fill:#fff}.st1,.st2{fill:#fff;stroke:#000;stroke-width:2;stroke-linecap:round;stroke-linejoin:round;stroke-miterlimit:10}.st2{fill:none}
    </style>
    <path class="st0" d="M239.3 153s-23-10.8-19.1-24 17.1 2.9 17.1 2.9 6.7-16.6 13.2-12.7c6.4 3.9-11.2 33.8-11.2 33.8M168 182.2s23-10.8 19.1-24-17.1 2.9-17.1 2.9-6.7-16.6-13.2-12.7c-6.4 3.9 11.2 33.8 11.2 33.8m138.8-10.6s17.6-29.8 11.2-33.8-13.2 12.7-13.2 12.7-13.2-16.1-17.1-2.9 19.1 24 19.1 24m-104.7 52.7s13-22 8.2-24.9-9.7 9.4-9.7 9.4-9.7-11.9-12.6-2.2c-2.8 9.8 14.1 17.7 14.1 17.7m69.3-1s13-22 8.2-24.9c-4.7-2.9-9.7 9.4-9.7 9.4s-9.7-11.9-12.6-2.2c-2.8 9.7 14.1 17.7 14.1 17.7"/>
    <path class="st0" d="M392.9 229.3c-16.6 48.4-79.3 59.7-183 59.8-80.8.1-100.8-23.2-102.1-44.1h-.5l-.7 20s-1.4 14.2 5 12.8c6.3-1.4 8.6-2.7 8.6-2.7s4.5 12.8 10 11.5c5.5-1.4 5.8 9.9 14.1 7.7 8.4-2.2 11.7 6.3 22.4 4.1s18-7.5 22.6-4.1c4.6 3.3 16.9 6.6 20.2 4.5 3.2-2.1 6.4-3.2 16.9-.4 10.5 2.8 16.4 2.2 22.6 0 6.3-2.2 13.1-4.7 18.6-2.1s8.7 6.2 11.9 4 .8-5.2 7.7-6c7-.8 14.3 1.7 20.7 0 6.4-1.7 5.5-3.9 14.6-5.1 9.2-1.2 20.6 4.3 24.7-2.6 4.1-6.9.5-11 7.6-10.1 7.1.9 16.2 6 19.4.5 3.2-5.5.5-19.7 6.9-18.3s11.2 0 12-2.3v-30.6c.2 1.1 0 2.3-.2 3.5z"/>
    <path class="st0" d="M393.8 259.6l-.5-3.3c-.7 2.3-5.6 3.7-12 2.3s-3.7 12.8-6.9 18.3-12.4.5-19.4-.5c-7.1-.9-3.5 3.2-7.6 10.1-4.1 6.9-15.6 1.4-24.7 2.6-9.2 1.2-8.2 3.4-14.6 5.1-6.4 1.7-13.8-.8-20.7 0-7 .8-4.5 3.8-7.7 6s-6.4-1.3-11.9-4-12.4-.1-18.6 2.1c-6.3 2.2-12.1 2.8-22.6 0-10.5-2.8-13.7-1.7-16.9.4-3.2 2.1-15.6-1.2-20.2-4.5s-11.9 1.9-22.6 4.1-14-6.3-22.4-4.1c-8.4 2.2-8.6-9.1-14.1-7.7-5.5 1.4-10-11.5-10-11.5s-2.3 1.4-8.6 2.7c-4.3.9-5-5.3-5.1-9.4-.9 26.7-1.1 66.2 4.8 75.6 9.3 14.7 55.1 42.8 141.3 36.4 86.1-6.4 139.1-38.9 140.7-50 1.4-11 .3-70.7.3-70.7z"/>
    <path class="st2" d="M178.1 196.5s-60.7 9.3-68 31.8-3.9 60.9 99.8 60.8c103.7-.1 166.4-11.4 183-59.8 4.9-26.4-41.1-59.2-214.8-32.8z"/>
    <path class="st2" d="M242.7 222.9l-3.4-70s-23-10.8-19.1-24 17.1 2.9 17.1 2.9 6.7-16.6 13.2-12.7c6.4 3.9-11.2 33.8-11.2 33.8"/>
    <path class="st2" d="M164.5 231.9l3.4-49.7s23-10.8 19.1-24-17.1 2.9-17.1 2.9-6.7-16.6-13.2-12.7c-6.4 3.9 11.2 33.8 11.2 33.8"/>
    <path class="st2" d="M310.3 229.3l-3.4-57.7s-23-10.8-19.1-24 17.1 2.9 17.1 2.9 6.7-16.6 13.2-12.7-11.2 33.8-11.2 33.8"/>
    <path class="st2" d="M204.6 266.8l-2.5-42.5s-16.9-7.9-14-17.6c2.9-9.7 12.6 2.2 12.6 2.2s5-12.2 9.7-9.4-8.2 24.9-8.2 24.9"/>
    <path class="st2" d="M273.9 265.8l-2.5-42.5s-16.9-7.9-14-17.6c2.9-9.7 12.6 2.2 12.6 2.2s5-12.2 9.7-9.4c4.7 2.9-8.2 24.9-8.2 24.9"/>
    <path class="st2" d="M107.7 243s-5.6 86.4 3.6 101.1 55.1 42.8 141.3 36.4c86.1-6.4 139.1-38.9 140.7-50 1.6-11.1 0-105 0-105"/>
    <path class="st2" d="M252.5 319.3l9.1 7.7"/>
    <path class="st2" d="M209.1 348l13.2 11.1"/>
    <path class="st2" d="M310.3 318.1l-6.9 12.3"/>
    <path class="st2" d="M160.6 339.8l-6.9 12.4"/>
    <path class="st2" d="M364.7 301.9l16.1 3"/>
    <path class="st2" d="M196 319.3l-12.5 9.8"/>
    <path class="st2" d="M338.1 338.9L329 346"/>
    <path class="st2" d="M125.3 304.4l13.1 11.6"/>
    <path class="st2" d="M106.6 265s-1.4 14.2 5 12.8c6.3-1.4 8.6-2.7 8.6-2.7s4.5 12.8 10 11.5c5.5-1.4 5.8 9.9 14.1 7.7 8.4-2.2 11.7 6.3 22.4 4.1s18-7.5 22.6-4.1 16.9 6.6 20.2 4.5c3.2-2.1 6.4-3.2 16.9-.4 10.5 2.8 16.4 2.2 22.6 0 6.3-2.2 13.1-4.7 18.6-2.1 5.5 2.6 8.7 6.2 11.9 4 3.2-2.3.8-5.2 7.7-6s14.3 1.7 20.7 0 5.5-3.9 14.6-5.1 20.6 4.3 24.7-2.6c4.1-6.9.5-11 7.6-10.1 7.1.9 16.2 6 19.4.5 3.2-5.5.5-19.7 6.9-18.3 6.4 1.4 11.2 0 12-2.3"/>
</svg>
