<svg id="Layer_1" xmlns="http://www.w3.org/2000/svg" viewBox="0 0 679.3 671.3">
    <style>
        .st0{fill:#fff}.st1,.st2{fill:none;stroke:#1b1b1b;stroke-width:5;stroke-linecap:round;stroke-miterlimit:10}.st2{stroke-width:5.5233}.st3{fill:#1b1b1b}.st4,.st5{fill:none;stroke:#1b1b1b;stroke-width:8.2849;stroke-linecap:round;stroke-miterlimit:10}.st5{stroke-width:5.068}.st6{clip-path:url(#SVGID_2_)}.st10,.st7{stroke-linecap:round;stroke-miterlimit:10}.st7{stroke:#1b1b1b;stroke-width:7.6225;fill:none}.st8,.st9{fill:none;stroke-linecap:round;stroke-miterlimit:10;stroke:#000;stroke-width:8}.st9{fill:#020202;stroke-width:5}.st10{fill:none;stroke:#1b1b1b;stroke-width:7.1819}.st11{clip-path:url(#SVGID_4_)}.st12{fill:none;stroke:#000;stroke-width:7.3906;stroke-linecap:round;stroke-miterlimit:10}
    </style>
    <path class="st0" d="M573.7 236.5l-.5-1.4.1-1.5c3-42.9 3.6-93.2-.5-104.2-10.8 1.6-49.3 27.4-80.6 51.9l-5 4-4.4-4.6c-.3-.3-34.5-33.3-142.2-33.7h-1.7c-57.3.2-93.3 9.6-113.4 17.6-20.7 8.1-28.7 16-28.8 16.1l-4.4 4.6-5-4c-34.9-27.4-70.5-50.3-80.6-51.9-4.1 11-3.5 61.3-.5 104.2l.1 1.5-.5 1.4c-.2.5-18.2 51.4-25.1 89.2-2.4 13.3-12.2 82.6 35.1 139.5C158 516 233.1 541.8 339 542.1h1.7c105.9-.3 180.9-26.2 223.2-76.9 47.3-56.8 37.5-126.1 35.1-139.5-7.2-37.9-25.2-88.7-25.3-89.2z"/>
    <path class="st0" d="M346.1 405.1c-1.7 2.6-4.3 4-7 4s-5.3-1.5-7-4l-17.8-26.3h49.6l-17.8 26.3z"/>
    <path d="M427.3 449.1c-3.4-1.9-7.8-.6-9.6 2.8-.1.2-13.4 24-35.4 24-4.9 0-9.9-1.2-14.7-3.6-12.7-6.3-20.9-19.9-20.9-34.7V422c4.4-1.6 8.3-4.7 11.1-8.9l19.5-28.9c2.7-3.9 2.9-9 .7-13.2-2.1-3.9-6.1-6.4-10.4-6.4h-55.2c-4.7 0-9 2.6-11.2 6.9-2.4 4.6-2.2 10.1.7 14.3l18.4 27.2c3 4.5 7.2 7.7 12 9.2v15.3c0 14.8-8.2 28.4-20.9 34.7-4.8 2.4-9.7 3.6-14.7 3.6-21.8 0-35.3-23.8-35.4-24-1.9-3.4-6.2-4.7-9.6-2.8-3.4 1.9-4.7 6.2-2.8 9.6.7 1.3 17.6 31.4 47.9 31.4 7.1 0 14.2-1.7 21-5.1 9.2-4.6 16.7-11.9 21.8-20.8 5 8.9 12.5 16.2 21.8 20.8 6.8 3.4 13.8 5.1 21 5.1 30.3 0 47.2-30.1 47.9-31.4 1.7-3.3.5-7.6-3-9.5zm-113-70.3h49.6l-17.8 26.3c-1.7 2.6-4.3 4-7 4s-5.3-1.5-7-4l-17.8-26.3zm-71.6-82c0 10-8.1 18.1-18.1 18.1s-18.1-8.1-18.1-18.1 8.1-18.1 18.1-18.1 18.1 8.1 18.1 18.1zm229.8 0c0 10-8.1 18.1-18.1 18.1-10 0-18.1-8.1-18.1-18.1s8.1-18.1 18.1-18.1c10 0 18.1 8.1 18.1 18.1zM646.4 443l-47.4-8.1c6-13.4 10-26.8 12.5-39.4l24.4-1.2c3.6-.2 6.4-3.3 6.2-6.9-.2-3.6-3.2-6.4-6.9-6.2l-21.6 1.1c1.5-11.6 1.9-22.2 1.7-31.2l32.5-6.6c3.8-.8 6.3-4.5 5.5-8.4-.8-3.8-4.5-6.3-8.4-5.5l-30.5 6.2c-.6-6.3-1.3-11-1.8-13.7-6.6-35.9-22.1-81.4-25.2-90 .4-5.8 1.8-27.8 2.2-50.5 1.1-55.9-4.4-61.3-7.3-64.3-6.4-6.4-18.3-5.1-57.6 21.6-15.1 10.3-29.7 21.3-36.9 26.7-12.9-9.6-52.5-32.3-140.3-33.8v-.1h-15.9v.1c-87.8 1.4-127.5 24.2-140.3 33.8-7.1-5.5-21.8-16.5-36.9-26.7-39.3-26.6-51.1-28-57.6-21.6-2.9 2.9-8.4 8.4-7.3 64.3.4 22.7 1.8 44.7 2.2 50.5-3 8.7-18.6 54.1-25.2 90-.5 2.6-1.2 7.4-1.8 13.6l-30.3-6.2c-3.8-.8-7.6 1.7-8.4 5.5-.8 3.8 1.7 7.6 5.5 8.4l32.4 6.6c-.2 9 .2 19.6 1.7 31.2l-21.4-1c-3.7-.2-6.7 2.6-6.9 6.2-.2 3.6 2.6 6.7 6.2 6.9l24.2 1.2c2.5 12.6 6.4 25.9 12.5 39.4L32.9 443c-3.9.7-6.5 4.3-5.8 8.2.6 3.5 3.6 5.9 7 5.9.4 0 .8 0 1.2-.1l51.5-8.8c4.9 8.8 10.8 17.5 17.8 26 44.1 53 120.4 80.5 227 82v.1h16v-.1c106.6-1.4 182.9-29 227-82 7.1-8.5 13-17.2 17.9-26L644 457c.4.1.8.1 1.2.1 3.4 0 6.4-2.4 7-5.9.6-3.9-1.9-7.6-5.8-8.2zm-82.8 22.1c-42.2 50.8-117.3 76.6-223.2 76.9h-1.7c-105.9-.3-180.9-26.2-223.2-76.9-5.3-6.4-9.9-12.9-13.8-19.5l102.4-17.5c3.9-.7 6.5-4.3 5.8-8.2-.7-3.9-4.3-6.5-8.2-5.8L94.6 432.4c-5.9-12.3-9.8-24.6-12.3-36.2l121.5 5.9h.3c3.5 0 6.4-2.7 6.5-6.2.2-3.6-2.6-6.7-6.2-6.9l-124.5-6c-1.5-10.7-2-20.5-1.9-29l124.7 25.3c.5.1 1 .1 1.4.1 3.3 0 6.3-2.3 6.9-5.7.8-3.8-1.7-7.6-5.5-8.4L78.6 339.6c.6-6.5 1.3-11.3 1.8-13.9 6.9-37.9 24.9-88.7 25.1-89.2l.5-1.4-.1-1.5c-3-42.9-3.6-93.1.5-104.2 10 1.6 45.6 24.5 80.6 51.9l5 4 4.4-4.6c.1-.1 8.1-8 28.8-16.1 20.1-7.9 56.2-17.4 113.4-17.6h1.7c107.7.3 141.9 33.4 142.2 33.7l4.4 4.6 5-4c31.2-24.5 69.8-50.2 80.6-51.9 4.1 11 3.5 61.3.5 104.2l-.1 1.5.5 1.4c.2.5 18.2 51.3 25.1 89.2.5 2.6 1.2 7.5 1.8 14l-126.6 25.7c-3.8.8-6.3 4.5-5.5 8.4.7 3.4 3.6 5.7 6.9 5.7.5 0 .9 0 1.4-.1L601.1 354c.1 8.5-.4 18.4-1.9 29l-124.3 6c-3.6.2-6.4 3.3-6.2 6.9.2 3.5 3.1 6.2 6.5 6.2h.3l121.3-5.9c-2.6 11.6-6.5 23.9-12.3 36.2l-106.9-18.2c-3.9-.7-7.5 1.9-8.2 5.8-.7 3.9 1.9 7.5 5.8 8.2l102.2 17.4c-4 6.6-8.5 13.1-13.8 19.5z"/>
</svg>
