<svg id="Stroke_Done" xmlns="http://www.w3.org/2000/svg" viewBox="0 0 500 500">
    <style>
        .st0{fill:#fff}.st1,.st2{fill:#fff;stroke:#000;stroke-width:2;stroke-linecap:round;stroke-linejoin:round;stroke-miterlimit:10}.st2{fill:none}
    </style>
    <path class="st0" d="M188.7 372.8l-27.5-82.6s4.5-5.3 16.6 1.9c12.1 7.2 14 12.8 14 12.8s7.5-6.4 14.7-6c7.2.4 20.4 7.5 20.4 7.5s10.9-6.4 19.2-7.2c8.3-.8 24.9 6.4 24.9 6.4s9.8-9.8 20-12.4c10.2-2.6 19.2 3.8 19.2 3.8s6.8-16.2 16.6-17 12.1 0 12.1 0l-24.5 91.3c-.1 0-67.2 20-125.7 1.5z"/>
    <path class="st0" d="M224.2 206.4s-43 9.4-45.6 34.3c-2.6 24.9 17.7 14 22.8 8.7-.1 5.3 2.1 14.7 8.1 15.1 6 .4 18.1-14.7 18.1-14.7s4.5 12.4 11.7 12.8c7.2.4 14-13.6 14-13.6s6.8 8.3 13.6 8.3 17-1.1 13.2-15.5c7.2.4 15.1-.4 16.6-4.5 1.4-4.1-9.9-41.4-72.5-30.9z"/>
    <path class="st0" d="M296.6 237.4c-1.5 4.1-9.4 4.9-16.6 4.5 3.8 14.3-6.4 15.5-13.2 15.5s-13.6-8.3-13.6-8.3-6.8 14-14 13.6c-7.2-.4-11.7-12.8-11.7-12.8s-12.1 15.1-18.1 14.7c-6-.4-8.2-9.8-8.1-15.1-4.3 4.4-19.3 12.8-22.4.8 0 0-17.4 8.6-14 38.2 2.6-.4 6.8 0 12.9 3.6 12.1 7.2 14 12.8 14 12.8s7.5-6.4 14.7-6c7.2.4 20.4 7.5 20.4 7.5s10.9-6.4 19.2-7.2c8.3-.8 24.9 6.4 24.9 6.4s9.8-9.8 20-12.4c10.2-2.6 19.2 3.8 19.2 3.8s6.8-16.2 16.6-17c.8-.1 1.5-.1 2.3-.2-14.8-38.6-32.5-42.4-32.5-42.4z"/>
    <path class="st0" d="M227.6 159.3s-26-26.8-10.6-37.3 18.5 14.7 18.5 14.7 11.7-21.1 17-15.5c3.4 2.3 12.3 10.2-15 35.1 0 0-4.8 3-9.9 3z"/>
    <path class="st2" d="M188.7 372.8l-27.5-82.6s4.5-5.3 16.6 1.9c12.1 7.2 14 12.8 14 12.8s7.5-6.4 14.7-6c7.2.4 20.4 7.5 20.4 7.5s10.9-6.4 19.2-7.2c8.3-.8 24.9 6.4 24.9 6.4s9.8-9.8 20-12.4c10.2-2.6 19.2 3.8 19.2 3.8s6.8-16.2 16.6-17 12.1 0 12.1 0l-24.5 91.3c-.1 0-67.2 20-125.7 1.5z"/>
    <path class="st2" d="M224.2 206.4s-43 9.4-45.6 34.3c-2.6 24.9 17.7 14 22.8 8.7-.1 5.3 2.1 14.7 8.1 15.1 6 .4 18.1-14.7 18.1-14.7s4.5 12.4 11.7 12.8c7.2.4 14-13.6 14-13.6s6.8 8.3 13.6 8.3 17-1.1 13.2-15.5c7.2.4 15.1-.4 16.6-4.5 1.4-4.1-9.9-41.4-72.5-30.9z"/>
    <path class="st2" d="M178.9 250.2s-17.4 8.6-14 38.2"/>
    <path class="st2" d="M296.6 237.4s17.7 3.8 32.4 42.5"/>
    <path class="st2" d="M290.2 264.5l13.2 12.5"/>
    <path class="st2" d="M248.7 277l14.3 8.3"/>
    <path class="st2" d="M204.1 272.8l-13.5 7"/>
    <path class="st2" d="M232.8 205.2l-5.3-46s-26-26.8-10.6-37.3 18.5 14.7 18.5 14.7 11.7-21.1 17-15.5c3.4 2.3 12.3 10.2-15 35.1"/>
    <path class="st2" d="M191.7 304.9l16.6 62.2"/>
    <path class="st2" d="M226.8 306.4l3 57.3"/>
    <path class="st2" d="M270.9 305.6l-11.7 61.5"/>
    <path class="st2" d="M310.2 297l-23.4 63.3"/>
</svg>
