<svg id="Stroke_Done" xmlns="http://www.w3.org/2000/svg" viewBox="0 0 500 500">
    <style>
        .st0{fill:#fff}.st1,.st2{fill:#fff;stroke:#000;stroke-width:2;stroke-linecap:round;stroke-linejoin:round;stroke-miterlimit:10}.st2{fill:none}
    </style>
    <path class="st0" d="M334 206.9c.8 10.9-6.2 58.6-14 84.5-7.7 25.9-34.9 47.9-32.8 58 2.1 10.1 41.7 42.8 41.7 42.8s-1.6 6.7-13.5 6.9c-11.9.3-24.5 13.3-24.5 13.3s1.7 10.9 0 15.2c-1.7 4.3-13 5.9-29.2 8.3-16.3 2.4-41.3-3.7-42.9-7.5-8-41.6 19.5-73.8 19.2-77.6-.3-3.7-29.9-40-38.1-57.8-8.3-17.9 9.9-16 9.9-16 61.1-2.9 115.7-60.5 124.2-70.1"/>
    <path class="st0" d="M166.2 207.1c1-2.7 5.9-2.1 5.9-2.1s-4.9-3.1-3.2-7c1.7-3.9 9.2-.4 9.2-.4s-2.7-5.7 1.2-6c3.9-.3 6 6.6 6 6.6s4.5-5 8.6-2.2c4 2.8 2.2 7.5-2 12.3 6.8.3 7.7 9 3.3 10.7-2.2.8-7-1.6-7-1.6s-1.7 8.3-5.3 7.4c-3.6-.9-3.6-5.7-3.6-5.7s-7.8 5.4-9.9 2.1 1.5-8.1 1.5-8.1c-4.3-.3-5.8-3.3-4.7-6zm94.7-95.4s-1.8 23.9 6.8 32.5 16.6 4.6 20-3.5c2.8-6.7 4.4-28.1 4.4-28.1s-11.4-1.3-16.7 4.7c-4.3-4-13.7-6.7-14.5-5.6zm-29.6-46.1s-1.8 23.9 6.8 32.5c8.6 8.6 16.6 4.6 20-3.5 2.8-6.7 4.4-28.1 4.4-28.1s-11.4-1.3-16.7 4.7c-4.4-4-13.7-6.6-14.5-5.6zm19.8 178.6s-4.8 6-1.5 8.1c4.7 3 9.3-4.5 9.3-4.5s-1.2 8.2 4.2 8.1c3.7 0 5.3-7.4 5.3-7.4s4.7 2.5 7 1.6c4.4-1.6 3.5-10.3-3.3-10.7 2.3-1.1 4.9-6.1 2.7-9.5-2.3-3.6-9.3-.7-9.3-.7s0-8.2-6-6.6c-3.8 1-1.5 7.5-1.5 7.5s-7.1-4.9-8.8-1.1c-1.7 3.9 3.2 7 3.2 7s-4.8-.6-5.9 2.1c-1.1 2.7.4 5.8 4.6 6.1z"/>
    <path class="st0" d="M289.8 189.6s-10.9-6.7-6.7-20.8l1.9-4.9s9.3 5 4.8 25.7zm4.1-43.1l-1.9 4.9c-4.3 14.1 6.7 20.8 6.7 20.8 4.5-20.7-4.8-25.7-4.8-25.7zm30.3 21.8c-.4 1.6-3.4 1.2-10.6 1.6-7.2.4-7 6.9-7 6.9 20.2 6.8 18-10.1 17.6-8.5zm-28 31.2c11.8-1.8 13.4-8.4 15.6-16-13.6 2-15.6 10.2-15.6 10.2s-1.8 4.4 0 5.8zm14.5-51.9c-.5-2.6-4.1-8.4-4.1-8.4s1.4-3.5-3.3 6.3.1 15.8.1 15.8c6.6 1.4 7.8-11.1 7.3-13.7zm-69.5 71.6c1.8 0 3.5-1.3 3.5-1.3s11.5-8 20.3-18.4-6.7-8-13.9-5.3c5.9-11.7 7.2-48.5 4.3-47.7-2.9.9-12 24.5-12 24.5s4.8-44.3 0-46.4-10.4 17.1-10.4 17.1-4-43.2-8.8-41.6c-4.8 1.6-7.5 24.5-7.5 24.5s-17.3-22.4-18.7-15.2 9.9 32.3 9.9 32.3-22.7-18.9-20.3-9.3 24.5 33.1 24.5 33.1-18.9-13.6-17.3-4c1.6 9.6 29.9 34.6 29.9 34.6s-21.6-10.4-18.7-1.6c2.9 8.8 30.7 23.5 30.7 23.5m-51.9 28.4c-1.1 6.9-4.8 15.7-10.7 25.3 10.7.8 25.1-1.3 29.1-13.9s6.7-18.7 6.7-18.7c-13.4-12.7-24.1.4-25.1 7.3zM326.7 157c4.1-3.2 3.5-12.9 3.5-12.9s2.6-1.8-5.8 1.2c-8.5 2.9-10.6 16.2-10.6 16.2s8.8-1.3 12.9-4.5z"/>
    <path class="st2" d="M281.8 249.9s1.2-59.6 28.8-86"/>
    <path class="st2" d="M289.8 189.6s-10.9-6.7-6.7-20.8l1.9-4.9s9.3 5 4.8 25.7z"/>
    <path class="st2" d="M298.7 172.2s-10.9-6.7-6.7-20.8l1.9-4.9s9.3 5 4.8 25.7z"/>
    <path class="st2" d="M306.6 176.8s-.2-6.5 7-6.9c7.2-.4 10.2 0 10.6-1.6.4-1.6 2.6 15.3-17.6 8.5z"/>
    <path class="st2" d="M296.2 193.7s2-8.2 15.6-10.2c-2.2 7.6-3.8 14.2-15.6 16-1.8-1.4 0-5.8 0-5.8z"/>
    <path class="st2" d="M303.4 161.3s-4.7-5.9-.1-15.8 3.3-6.3 3.3-6.3 3.6 5.8 4.1 8.4c.5 2.6-.7 15.1-7.3 13.7z"/>
    <path class="st2" d="M218.9 141.7s24.5 31.2 24.5 54.9-4.8 67.7-4.8 67.7"/>
    <path class="st2" d="M236.7 217.9S209 203.2 206 194.4c-2.9-8.8 18.7 1.6 18.7 1.6s-28.3-25-29.9-34.6c-1.6-9.6 17.3 4 17.3 4s-22.1-23.5-24.5-33.1 20.3 9.3 20.3 9.3-11.2-25.1-9.9-32.3 18.7 15.2 18.7 15.2 2.7-22.9 7.5-24.5c4.8-1.6 8.8 41.6 8.8 41.6s5.6-19.2 10.4-17.1 0 46.4 0 46.4 9.1-23.6 12-24.5c2.9-.9 1.6 35.9-4.3 47.7 7.2-2.7 22.7-5.1 13.9 5.3s-20.3 18.4-20.3 18.4"/>
    <path class="st2" d="M275.5 220.5s-10.7-35.6 1-71.5"/>
    <path class="st2" d="M231.1 264.3s-3.7-24.8-18.7-25.1-12.5 5.3-19.2 10.7"/>
    <path class="st2" d="M209.8 239.2s-2.7 6.1-6.7 18.7-18.4 14.7-29.1 13.9c5.9-9.6 9.6-18.4 10.7-25.3 1.1-7 11.8-20.1 25.1-7.3z"/>
    <path class="st2" d="M291 412.5s-11-26-6.2-44.4"/>
    <path class="st2" d="M236.8 348.2s31.9 7.9 50.5 1.2"/>
    <path class="st2" d="M289.6 354s-27.8 12.6-54.7 3.5"/>
    <path class="st2" d="M181.4 211.9c-2.1 0-3.8-1.7-3.8-3.8 0-2.1 1.7-3.8 3.8-3.8 2.1 0 3.8 1.7 3.8 3.8 0 2.1-1.7 3.8-3.8 3.8z"/>
    <path class="st2" d="M170.8 213.1s-3.6 4.8-1.5 8.1 9.9-2.1 9.9-2.1 0 4.8 3.6 5.7c3.6.9 5.3-7.4 5.3-7.4s4.7 2.5 7 1.6c4.4-1.6 3.5-10.3-3.3-10.7 4.2-4.8 6-9.5 2-12.3-4-2.8-8.6 2.2-8.6 2.2s-2.1-6.9-6-6.6c-3.9.3-1.2 6-1.2 6s-7.4-3.4-9.2.4c-1.7 3.9 3.2 7 3.2 7s-4.8-.6-5.9 2.1c-1 2.7.5 5.7 4.7 6z"/>
    <path class="st2" d="M191.8 208.3s31.9 5.8 39.4 30.9"/>
    <path class="st2" d="M260.9 111.7s-1.8 23.9 6.8 32.5 16.6 4.6 20-3.5c2.8-6.7 4.4-28.1 4.4-28.1s-11.4-1.3-16.7 4.7c-4.3-4-13.7-6.7-14.5-5.6z"/>
    <path class="st2" d="M275.5 117.2s11.8 8.2 2.3 31.5"/>
    <path class="st2" d="M231.3 65.6s-1.8 23.9 6.8 32.5c8.6 8.6 16.6 4.6 20-3.5 2.8-6.7 4.4-28.1 4.4-28.1s-11.4-1.3-16.7 4.7c-4.4-4-13.7-6.6-14.5-5.6z"/>
    <path class="st2" d="M245.9 71.2s11.8 8.2 2.3 31.5l2.3 41.3"/>
    <path class="st2" d="M261.7 243c-2.1 0-3.8-1.7-3.8-3.8 0-2.1 1.7-3.8 3.8-3.8 2.1 0 3.8 1.7 3.8 3.8-.1 2.1-1.8 3.8-3.8 3.8z"/>
    <path class="st2" d="M251.1 244.2s-4.8 6-1.5 8.1c4.7 3 9.3-4.5 9.3-4.5s-1.2 8.2 4.2 8.1c3.7 0 5.3-7.4 5.3-7.4s4.7 2.5 7 1.6c4.4-1.6 3.5-10.3-3.3-10.7 2.3-1.1 4.9-6.1 2.7-9.5-2.3-3.6-9.3-.7-9.3-.7s0-8.2-6-6.6c-3.8 1-1.5 7.5-1.5 7.5s-7.1-4.9-8.8-1.1c-1.7 3.9 3.2 7 3.2 7s-4.8-.6-5.9 2.1c-1.1 2.7.4 5.8 4.6 6.1z"/>
    <path class="st2" d="M313.8 161.4s2.2-13.3 10.6-16.2c8.5-2.9 5.8-1.2 5.8-1.2s.6 9.7-3.5 12.9c-4.1 3.3-12.9 4.5-12.9 4.5z"/>
    <path class="st2" d="M284.8 112.8s-2.7-4-8.3-4.2c-5.6-.1-8.9 4.2-8.9 4.2"/>
    <path class="st2" d="M254.8 66.8s-7.2-7.4-16.9 0"/>
    <path class="st2" d="M257.9 351.6s-14.5-17.3-15.9-22.4 2.4-5.2 6.7-.1"/>
    <path class="st2" d="M271 352.1s-4.4-1.7 2.7-11.6c7.1-9.9 8-19.8 8-19.8"/>
    <path class="st2" d="M264.2 360.8c.6-.5-7.9 8.9-9.4 19.9-1 7.9 2.5 9.6 2.5 9.6"/>
    <path class="st2" d="M334 206.9c.8 10.9-6.2 58.6-14 84.5-7.7 25.9-34.9 47.9-32.8 58 2.1 10.1 41.7 42.8 41.7 42.8s-1.6 6.7-13.5 6.9c-11.9.3-24.5 13.3-24.5 13.3s1.7 10.9 0 15.2c-1.7 4.3-13 5.9-29.2 8.3-16.3 2.4-41.3-3.7-42.9-7.5-8-41.6 19.5-73.8 19.2-77.6-.3-3.7-29.9-40-38.1-57.8-8.3-17.9 9.9-16 9.9-16 61.1-2.9 115.7-60.5 124.2-70.1"/>
    <path class="st2" d="M309 191.5s25.2 6.5 25.2 14.7"/>
</svg>
