<svg id="Stroke_Done" xmlns="http://www.w3.org/2000/svg" viewBox="0 0 500 500">
    <style>
        .st0{fill:#fff}.st1,.st2{fill:#fff;stroke:#000;stroke-width:2;stroke-linecap:round;stroke-linejoin:round;stroke-miterlimit:10}.st2{fill:none}
    </style>
    <path class="st0" d="M201.2 317.7s-.1-7.6-1-15.9c-.9-8.2-2.2-16.6-2-17.2.2-.6 2.1-5.9 15.5-17.6 9.7-8.5 16.3-13.6 19.2-15.7 0-.6 1-1.4 3.7-2.6 11.2-5 20.9-40.3 20.9-40.3-10.5 9.4-35.5 29.7-39.8 14-2.8-10.3-3-17.2-2.4-21.9l-37.9-7.1 20.9-18.1c-37.8 32.7-98.2 85.8-98.2 85.8s-.8 1-.6 2.4c0 0-1.6 21.2 0 25.1.8 2.1 64.6 19.5 125 35.3l-23.3-6.2z"/>
    <path class="st0" d="M258.4 190.4c1.4-1.1 5.1-3.4 10.2-2.3 0 0 10.9-11.7 21.1-20.7 0 0-57.8-19-61.8-17.3-1.2.5-13.4 10.9-29.8 25.1.1 0 52.8 14.1 60.3 15.2z"/>
    <path class="st0" d="M373.9 289.1l-5.1-37.9-45.5-16.3c1 1.8 1.9 3.2 1.9 3.2s2.6 2.3-25.2-2.6c-9.2-1.6-15.7-5.5-20.4-9.9 0 0-8.4 16.9-14.4 24s-41.9 37.5-42 42.5l1.3 31.7c54.1 14.1 105.6 26.9 106.7 26.1 1.7-1.2 38.6-54 57.9-83.7l-15.2 22.9z"/>
    <path class="st0" d="M399.1 206.1c0-2.4-1.6-5-5.6-6.3-7.5-2.5-72.1-20.3-72.1-20.3l-1.4-.5c1.8 6.8 2.1 14-.4 19.2-3.7 7.9-16.6 7.9-28.2 5.9l91 26.7 6.6 35.4c6.4-9.9 10.9-17.2 11.5-19.2 2.4-8-1.4-40.9-1.4-40.9z"/>
    <path class="st0" d="M382.5 230.9l-91-26.7c11.6 1.9 24.5 2 28.2-5.9 6.6-14-6.6-41.7-14.9-40.8-8.3.9-36.1 30.7-36.1 30.7-5.2-1.1-8.8 1.2-10.2 2.3-7.5-1.1-60.2-15.2-60.2-15.2l-20.9 18.1 37.9 7.1c-.6 4.8-.4 11.7 2.4 21.9 4.3 15.7 29.4-4.6 39.8-14 0 0-9.7 35.3-20.9 40.3-2.7 1.2-3.7 2-3.7 2.6-2.9 2.2-9.5 7.2-19.2 15.7-13.4 11.7-15.3 17.1-15.5 17.6-.2.6 1 8.9 2 17.2.9 8.2 1 15.9 1 15.9l23.3 6.1-1.3-31.7c.1-5 35.9-35.3 42-42.5s14.4-24 14.4-24c4.7 4.4 11.2 8.2 20.4 9.9 27.9 5 25.2 2.6 25.2 2.6s-.9-1.3-1.9-3.2l45.5 16.3 5.1 37.9 15.2-22.8-6.6-35.4z"/>
    <path class="st2" d="M268.7 188.1s27.8-29.8 36.1-30.7c8.3-.9 21.5 26.8 14.9 40.8s-42 3-48.1.9"/>
    <path class="st2" d="M257.5 194.4s-38.8-6.8-39.8-3c-1.1 3.7-5.5 11 0 30.9s44.5-18.3 44.5-18.3"/>
    <path class="st2" d="M272.3 192.8s12.8-8.7 19.1-8.2 8.6 0 8.6 0"/>
    <path class="st2" d="M260 201.6s-15.5-4-19.9-1.6c-4.4 2.4-7.5 5.3-7.5 5.3"/>
    <path class="st2" d="M289.8 167.4s-57.8-19-61.8-17.3S100.1 261 100.1 261s-4.7 5.6 11.1 8.3 92.9 17 99 18.7c6.1 1.8 98.7 31.6 104.8 31.7 6.1.1 8.6.1 11.6-4.4 2.9-4.5 66.1-101.2 69.7-103.8 3.7-2.6 4.7-9.2-2.8-11.7s-72.1-20.3-72.1-20.3"/>
    <path class="st2" d="M268.7 188.1s2 10.7 3.6 12.3c1.6 1.7-5.3 6.6-7.1 5.6-1.9-1-5-2.8-6.3-6.8-1.4-4.1-1.8-7.7-.4-8.8 1.4-1.1 5-3.4 10.2-2.3z"/>
    <path class="st2" d="M198.2 175.2s52.7 14.1 60.2 15.2"/>
    <path class="st2" d="M177.4 193.3l37.9 6.7"/>
    <path class="st2" d="M257.5 208.4s-9.7 35.3-20.9 40.3 6.6 3.6 8.3 6.6c1.7 3 13.6-9.6 15.1-14.2s1-33.7 5.2-35"/>
    <path class="st2" d="M268.4 205.2s3.6 25.2 31.5 30.2 25.2 2.6 25.2 2.6-5.1-7.3-3.7-11.2-10.6.7-26.4-6.6c-15.8-7.3-22.8-19.8-22.8-19.8"/>
    <path class="st2" d="M238.6 247.1s-40.8 29.9-40.4 38.5c0 0 3.3 24.4 3 32.2"/>
    <path class="st2" d="M279.6 225.6s-8.4 16.9-14.4 24c-6.1 7.2-41.9 37.5-42 42.5l1.3 31.7"/>
    <path class="st2" d="M291.5 204.1l91 26.8 6.6 35.4"/>
    <path class="st2" d="M323.3 234.9l45.5 16.3 5.1 37.9"/>
    <path class="st2" d="M399.1 206.1s3.7 32.9 1.4 40.9c-2.3 8-67.1 101.2-69.4 102.9-2.3 1.7-230.1-57.5-231.7-61.5s0-25.1 0-25.1"/>
    <path class="st2" d="M323.3 318.7l7.8 31.2"/>
</svg>
