<svg id="Stroke_Done" xmlns="http://www.w3.org/2000/svg" viewBox="0 0 500 500">
    <style>
        .st0{fill:#fff}.st1,.st2{fill:#fff;stroke:#000;stroke-width:2;stroke-linecap:round;stroke-linejoin:round;stroke-miterlimit:10}.st2{fill:none}
    </style>
    <path class="st0" d="M299.7 278.1s-23.1-26-22.3-36.9c.8-11 7.3-11.4 13.8-3.2 6.5 8.1 6.5 10.2 6.5 10.2s1.6-27.2 10.5-29.2 14.4 1.6 11.8 15c-3 14.7-20.3 44.1-20.3 44.1z"/>
    <path class="st0" d="M344.1 138.3c-2.4-9.7-90.1 77.3-90.1 77.3s-87.7-62.7-91.4-57.2-13.4 136.4-7.9 142.5c5.5 6.1 94.4 61.5 94.4 61.5 3 3 90.1-50.5 95-55.4 4.9-4.9 2.4-159 0-168.7zM320 233.9c-2.9 14.9-20.3 44.3-20.3 44.3s-23.1-26-22.3-36.9c.8-11 7.3-11.4 13.8-3.2 6.5 8.1 6.5 10.2 6.5 10.2s1.6-27.2 10.5-29.2 14.4 1.4 11.8 14.8z"/>
    <path class="st2" d="M254 215.6s87.7-87.1 90.1-77.3c2.4 9.7 4.9 163.8 0 168.7-4.9 4.9-92 58.5-95 55.4-3-3.1 4.9-146.8 4.9-146.8z"/>
    <path class="st2" d="M254 215.6s-87.7-62.7-91.4-57.2-13.4 136.4-7.9 142.5c5.5 6.1 94.4 61.5 94.4 61.5"/>
    <path class="st2" d="M299.7 278.1s-23.1-26-22.3-36.9c.8-11 7.3-11.4 13.8-3.2 6.5 8.1 6.5 10.2 6.5 10.2s1.6-27.2 10.5-29.2 14.4 1.6 11.8 15c-3 14.7-20.3 44.1-20.3 44.1z"/>
</svg>
