<svg id="Stroke_Done" xmlns="http://www.w3.org/2000/svg" viewBox="0 0 500 500">
    <style>
        .st0{fill:#fff}.st1,.st2{fill:#fff;stroke:#000;stroke-width:2;stroke-linecap:round;stroke-linejoin:round;stroke-miterlimit:10}.st2{fill:none}
    </style>
    <path class="st0" d="M285 273.1c-8.6-3.9-53.1-29.8-53.1-29.8 2.8.3 5.8.6 8.7.7 10.8.4 31.7-4.3 34-5.9s12.8-3.7 12.8-3.7c-3.5-1.3-19.9-21.3-19.9-21.3l-15.7 2.9c2.5-2.9 3.2-5.8 2.4-7.8-15.3-13.3-28-14.3-28.2-13.2-.1 1.2-3.2 5.1-5.8 8.4-1.9 2.4-5.4 14.4-7.2 20.8l-68.1-77s-9.8 12.3-12.3 34.7c0 0 49.6 49.2 65.4 52.5-22.5.7-25.6 4.3-26.4 6.8-1.6 11.4 8.2 22.9 11.2 22.9 4.7 0 9.1-1.6 13-3.9L184.5 289s14.4 6.8 15.9 6.3c1.2-.4 8.9-30.9 13.1-45.5l83.3 75 30-28.1S293.6 277 285 273.1z"/>
    <path class="st0" d="M285 273.1c-8.6-3.9-53.1-29.8-53.1-29.8 2.8.3 5.8.6 8.7.7 10.8.4 31.7-4.3 34-5.9s12.8-3.7 12.8-3.7c-3.5-1.3-19.9-21.3-19.9-21.3l-15.7 2.9c2.5-2.9 3.2-5.8 2.4-7.8-15.3-13.3-28-14.3-28.2-13.2-.1 1.2-3.2 5.1-5.8 8.4-1.9 2.4-5.4 14.4-7.2 20.8l-68.1-77s-9.8 12.3-12.3 34.7c0 0 49.6 49.2 65.4 52.5-22.5.7-25.6 4.3-26.4 6.8-1.6 11.4 8.2 22.9 11.2 22.9 4.7 0 9.1-1.6 13-3.9L184.5 289s14.4 6.8 15.9 6.3c1.2-.4 8.9-30.9 13.1-45.5l83.3 75 30-28.1S293.6 277 285 273.1z"/>
    <path class="st0" d="M296.8 324.8c11-8.5 21-18.1 29.9-28l-29.9 28z"/>
    <path class="st0" d="M213.5 249.8c-4.2 14.6-11.9 45.1-13.1 45.5-1.6.5-15.9-6.3-15.9-6.3l11.3-28.6c-3.9 2.3-8.3 3.8-13 3.9-3 0-12.8-11.4-11.2-22.9.8-2.6 3.9-6.1 26.4-6.8-15.8-3.3-65.2-52.3-65.4-52.5-8.7 77.4 97.8 173.5 97.8 173.5 24.8-4.3 47.1-15.8 66.4-30.6l-83.3-75.2z"/>
    <path class="st0" d="M308.3 127.8c-53.3.2-62.2 46.4-66.8 61.6-7.9-71.9-86.5-87.1-105.7-23.2 3.8-12.3 9.1-18.9 9.1-18.9l68.1 77c1.8-6.4 5.3-18.4 7.2-20.8 2.6-3.3 5.7-7.2 5.8-8.4.1-1.2 12.9-.1 28.2 13.2.8 2 .1 4.9-2.4 7.8l15.7-2.9s16.5 20 19.9 21.3c0 0-10.6 2.1-12.8 3.7s-23.2 6.3-34 5.9c-2.9-.1-5.9-.4-8.7-.7 0 0 44.5 25.9 53.1 29.8 8.6 3.9 41.7 23.6 41.7 23.7 26.5-29.6 43.6-62.5 48.9-80.3 10.3-34.3-12.6-85.4-67.3-88.8z"/>
    <path class="st2" d="M230.4 355.5s-109.8-99-97.4-176.9c12.4-77.9 100.1-65.4 108.5 10.8 4.5-15.2 13.5-61.4 66.8-61.6 54.7 3.4 77.6 54.5 67.4 88.7-10.3 34.2-64.2 125-145.3 139z"/>
    <path class="st2" d="M218.6 233s-4.9-2.4-6.1-3.9-4.7-.4-5.1 2c-.4 2.4-1.8 6.9 2.8 9.6 4.5 2.7 8.3 1.7 8.5 0 .1-1.8 3.2-5.9-.1-7.7z"/>
    <path class="st2" d="M213.5 242.2s-12.8 21.9-30.7 22c-3 0-12.8-11.4-11.2-22.9.9-2.9 4.6-7 35.3-7"/>
    <path class="st2" d="M207.3 237.3s-10.4-.1-13.7 7.4"/>
    <path class="st2" d="M208.3 239s-5.4 4.5-5.5 7.6"/>
    <path class="st2" d="M211.8 228.3s5.6-21.6 8.3-24.9c2.6-3.3 5.7-7.2 5.8-8.4s12.9-.1 28.2 13.2c1 2.4-.1 5.8-3.7 9.2-3.6 3.4-15 17.9-30.3 17"/>
    <path class="st2" d="M216 231.6s8.4-9.9 7.9-14.8"/>
    <path class="st2" d="M219.2 233.4s9-5.6 12.3-6"/>
    <path class="st2" d="M195.7 260.4L184.5 289s14.4 6.8 15.9 6.3c1.6-.5 13.8-50.8 15.6-53.1"/>
    <path class="st2" d="M251.7 216l15.7-2.9s16.5 20 19.9 21.3c0 0-10.6 2.1-12.8 3.7-2.3 1.6-23.2 6.3-34 5.9s-22.2-2.9-22.2-2.9"/>
    <path class="st2" d="M132.5 182s49.6 49.2 65.4 52.5"/>
    <path class="st2" d="M231.9 243.3s44.5 25.9 53.1 29.8c8.6 3.9 41.8 23.7 41.8 23.7"/>
    <path class="st2" d="M213.5 249.8l83.3 75"/>
    <path class="st2" d="M212.9 224.3l-68-77"/>
    <path class="st2" d="M230.4 355.5l-6.4 18.7S47.4 215 158.9 133.1"/>
    <path class="st2" d="M224 374.1s56.9-11.1 114.8-91.8"/>
</svg>
