<svg id="Stroke_Done" xmlns="http://www.w3.org/2000/svg" viewBox="0 0 500 500">
    <style>
        .st0{fill:#fff}.st1,.st2{fill:#fff;stroke:#000;stroke-width:2;stroke-linecap:round;stroke-linejoin:round;stroke-miterlimit:10}.st2{fill:none}
    </style>
    <path class="st0" d="M154.7 185.3l-32.3 11.5-10.1-27.1 29-12.7 13.4 28.3zm35.8 95.6l-29 12.7 10.1 27.1 32.3-11.5-13.4-28.3zm-59.7-44.5s-12.1-.2-13.9 8.5c-1.8 8.7-2.8 19.6 11.9 22s16.6-11.9 16.6-11.9 5.2-17-14.6-18.6z"/>
    <path class="st0" d="M344.6 265.5c-8.6-3.9-53.1-29.8-53.1-29.8 2.8.3 5.8.6 8.7.7 10.8.4 31.7-4.3 34-5.9s12.8-3.7 12.8-3.7c-3.5-1.3-19.9-21.3-19.9-21.3l-15.7 2.9c2.5-2.9 3.2-5.8 2.4-7.8-15.3-13.3-28-14.3-28.2-13.2-.1 1.2-3.2 5.1-5.8 8.4-1.9 2.4-5.4 14.4-7.2 20.8l-68.1-77s-9.8 12.3-12.3 34.7c0 0 49.6 49.2 65.4 52.5-22.5.7-25.6 4.3-26.4 6.8-1.6 11.4 8.2 22.9 11.2 22.9 4.7 0 9.1-1.6 13-3.9l-11.3 28.6s14.4 6.8 15.9 6.3c1.2-.4 8.9-30.9 13.1-45.5l83.3 75 30-28.1c0 .2-33.2-19.5-41.8-23.4z"/>
    <path class="st0" d="M344.6 265.5c-8.6-3.9-53.1-29.8-53.1-29.8 2.8.3 5.8.6 8.7.7 10.8.4 31.7-4.3 34-5.9s12.8-3.7 12.8-3.7c-3.5-1.3-19.9-21.3-19.9-21.3l-15.7 2.9c2.5-2.9 3.2-5.8 2.4-7.8-15.3-13.3-28-14.3-28.2-13.2-.1 1.2-3.2 5.1-5.8 8.4-1.9 2.4-5.4 14.4-7.2 20.8l-68.1-77s-9.8 12.3-12.3 34.7c0 0 49.6 49.2 65.4 52.5-22.5.7-25.6 4.3-26.4 6.8-1.6 11.4 8.2 22.9 11.2 22.9 4.7 0 9.1-1.6 13-3.9l-11.3 28.6s14.4 6.8 15.9 6.3c1.2-.4 8.9-30.9 13.1-45.5l83.3 75 30-28.1c0 .2-33.2-19.5-41.8-23.4z"/>
    <path class="st0" d="M386.4 289.2c-8.9 10-18.9 19.5-29.9 28l29.9-28zm-113.3-47c-4.2 14.6-11.9 45.1-13.1 45.5-1.6.5-15.9-6.3-15.9-6.3l11.3-28.6c-3.9 2.3-8.3 3.8-13 3.9-3 0-12.8-11.4-11.2-22.9.8-2.6 3.9-6.1 26.4-6.8-15.8-3.3-65.2-52.3-65.4-52.5C183.5 251.9 290 348 290 348c24.8-4.3 47.1-15.8 66.4-30.6l-83.3-75.2zm-78.2-81.7v.1c-.1 0-.1 0 0-.1zm173-40.3c-53.3.2-62.2 46.4-66.8 61.6-7.9-71.9-86.5-87.1-105.7-23.2 3.8-12.3 9.1-18.9 9.1-18.9l68.1 77c1.8-6.4 5.3-18.4 7.2-20.8 2.6-3.3 5.7-7.2 5.8-8.4.1-1.2 12.9-.1 28.2 13.2.8 2 .1 4.9-2.4 7.8l15.7-2.9s16.5 20 19.9 21.3c0 0-10.6 2.1-12.8 3.7s-23.2 6.3-34 5.9c-2.9-.1-5.9-.4-8.7-.7 0 0 44.5 25.9 53.1 29.8 8.6 3.9 41.7 23.6 41.7 23.7 26.5-29.6 43.6-62.5 48.9-80.3 10.4-34.3-12.5-85.4-67.3-88.8zM249.3 331l-60.6 35.6c-16.4-10.8-77.1-60-99.8-99.3-19.9-30.8-22.3-43.2-26.6-67.1.2 24.3 5.8 59.4 38.4 102.8s86 78.8 86 78.8 47.1-21.8 70.9-41.5c-3.3-3.7-8.3-9.3-8.3-9.3z"/>
    <path class="st2" d="M290 347.8s-109.8-99-97.4-176.9C205 93 292.7 105.5 301.1 181.7c4.5-15.2 13.5-61.4 66.8-61.6 54.7 3.4 77.6 54.5 67.4 88.7-10.3 34.3-64.2 125.1-145.3 139z"/>
    <path class="st2" d="M278.2 225.4s-4.9-2.4-6.1-3.9c-1.2-1.6-4.7-.4-5.1 2-.4 2.4-1.8 6.9 2.8 9.6 4.5 2.7 8.3 1.7 8.5 0s3.2-5.9-.1-7.7z"/>
    <path class="st2" d="M273.1 234.6s-12.8 21.9-30.7 22c-3 0-12.8-11.4-11.2-22.9.9-2.9 4.6-7 35.3-7"/>
    <path class="st2" d="M266.9 229.7s-10.4-.1-13.7 7.4"/>
    <path class="st2" d="M267.9 231.4s-5.4 4.5-5.5 7.6"/>
    <path class="st2" d="M271.4 220.7s5.6-21.6 8.3-24.9c2.6-3.3 5.7-7.2 5.8-8.4.1-1.2 12.9-.1 28.2 13.2 1 2.4-.1 5.8-3.7 9.2-3.6 3.4-15 17.9-30.3 17"/>
    <path class="st2" d="M275.6 224s8.4-9.9 7.9-14.8"/>
    <path class="st2" d="M278.8 225.8s9-5.6 12.3-6"/>
    <path class="st2" d="M255.3 252.8L244 281.4s14.4 6.8 15.9 6.3 13.8-50.8 15.6-53.1"/>
    <path class="st2" d="M311.3 208.4l15.7-2.9s16.5 20 19.9 21.3c0 0-10.6 2.1-12.8 3.7s-23.2 6.3-34 5.9c-10.8-.4-22.2-2.9-22.2-2.9"/>
    <path class="st2" d="M192.1 174.4s49.6 49.2 65.4 52.5"/>
    <path class="st2" d="M291.5 235.6s44.5 25.9 53.1 29.8 41.8 23.7 41.8 23.7"/>
    <path class="st2" d="M273.1 242.2l83.3 75"/>
    <path class="st2" d="M272.5 216.6l-68-76.9"/>
    <path class="st2" d="M290 347.8l-6.4 18.7S107 207.3 218.5 125.4"/>
    <path class="st2" d="M283.6 366.5s56.9-11.1 114.8-91.8"/>
    <path class="st2" d="M249.3 331l-60.6 35.6S63.4 280.4 62.3 193.1c-1.1-87.2 106.2-95.5 122.3-21.8"/>
    <path class="st2" d="M141.2 156.9l-28.9 12.7 10.1 27.2 32.3-11.5z"/>
    <path class="st2" d="M141.2 156.9s.8 13.5-7.7 18.4c-8.5 4.9-12 15.9-11.1 21.5"/>
    <path class="st2" d="M110.5 163.5l1.2-6.6 7.4 2.1 2.2-6 6.1 3 3.4-6.8 5 3 6.5-6.1 2.6 6.8 8.1 3.1-3.4 4.9 7.7 3.3-2.6 5.6 7.6 2.9-1.4 8.4 4.9 4.2-7.8 4.7-1 7.6-5.8-3.1-.7 6.1-10.5-2.1-1.9 8.2-11.5-3.8-4.4 7.3-3.9-9.6h-7.8l1.8-6.9-8.6-3.8 3.3-6.6-8.2-4.2 6.8-7.2-3.3-8z"/>
    <path class="st2" d="M190.5 280.9l-29 12.7 10.1 27.2 32.3-11.5z"/>
    <path class="st2" d="M190.5 280.9s.8 13.5-7.7 18.4c-8.5 4.9-12 15.9-11.1 21.5"/>
    <path class="st2" d="M159.7 287.5l1.2-6.6 7.5 2.1 2.1-6 6.1 3 3.5-6.8 4.9 3 6.5-6.1 2.7 6.8 8.1 3.1-3.5 4.9 7.7 3.3-2.6 5.6 7.7 2.9-1.5 8.4 4.9 4.2-7.8 4.7-1 7.6-5.8-3.1-.7 6.1-10.5-2.1-1.8 8.2-11.6-3.8-4.3 7.3-3.9-9.6h-7.9l1.8-6.9-8.6-3.8 3.4-6.6-8.3-4.2 6.8-7.2-3.3-8z"/>
    <path class="st2" d="M109.1 237.2l1.2-6.6 7.4 2.1 2.2-6 6.1 2.9 3.4-6.7 5 3 6.5-6.1 2.6 6.8 8.1 3-3.4 5 7.7 3.3-2.6 5.6 7.6 2.9-1.4 8.4 4.9 4.2-7.8 4.7-1 7.6-5.8-3.2-.7 6.2-10.5-2.1-1.9 8.2-11.5-3.8-4.4 7.3-3.9-9.6h-7.8l1.8-6.9-8.6-3.9 3.3-6.6-8.2-4.1 6.8-7.2-3.3-8z"/>
    <path class="st2" d="M130.8 236.4s-12.1-.2-13.9 8.5c-1.8 8.7-2.8 19.6 11.9 22s16.6-11.9 16.6-11.9 5.2-17-14.6-18.6z"/>
    <path class="st2" d="M188.7 366.5l-2 15.2S60.1 303.2 62.4 200.1"/>
    <path class="st2" d="M186.7 381.8s52.4-24.8 70.9-41.5"/>
    <path class="st2" d="M71.5 234.6s-10.7-63.5 13-86.6c19.8-19.3 70.9-35.6 97.8 35.1"/>
</svg>
