<svg id="Blazer" xmlns="http://www.w3.org/2000/svg" viewBox="0 0 800 800">
    <style>
        .st0{fill:#fff}
    </style>
    <path id="XMLID_352_" class="st0" d="M325.9 519.7c0 3.9-.5 7.3.4 11 7.8 1 15.4 2 23 2.9 7.5 1 14.7 2.6 22.7 1.9v-12.3c-8-1.4-15.2-2.8-22.9-2.9-7.7-.1-15.3-1.7-23.2-.6z"/>
    <path id="XMLID_353_" class="st0" d="M404.9 573.7c-.7 1.1-1.4 2-1.7 2.9-1.4 4-2.8 8.1-4.1 12.2-.6 1.7-1 3.5-1.6 5.4 5.3 1.4 10 1.3 14.9-.5-.6-3.7-2.3-6.8-3.6-10-1.4-3.1-2.5-6.4-3.9-10z"/>
    <path id="XMLID_354_" class="st0" d="M476.5 517.3c-5.1 2.1-10.6 3-16 3.3-3.6.2-7.3.6-10.9 1.2-5.9 1.1-11.8 2.5-17.6 3.7-1.4 4.7-1.4 9.3.5 14.1 16.1-3 32.6-3.5 48.6-8.3v-15.4c-2.1.5-3.3.8-4.6 1.4z"/>
    <path id="XMLID_355_" class="st0" d="M424 198.6c-4.9.5-9.8 1.1-14.7 1.2-2.4.1-4.7-.8-7.1-.8-6.2-.1-12.4-.1-18.6-1.2-2.6-.5-5.4-.4-7.9 1.6.2 1.4.3 2.8.5 4.1 1.1 7.1 2.6 14.1 3.2 21.3.5 6 1.1 12 2 18 .4 2.5.9 5 .9 7.6.1 6.9 1.2 13.6 2.2 20.4.9 6.1 1.5 12.4 2.8 18.4 2.1 9.7 4.6 19.2 7 28.8.3 1.1.7 2.1.9 3.2.6 2.3 1.2 4.6 1.6 6.9 1.2 6.3 2.3 12.6 3.4 18.6.9-4.9 1.6-10.1 2.8-15.2 2-8.5 4.1-17 5.4-25.7.6-4.4 1.6-8.8 2.7-13.1 1.5-6.2 3.2-12.4 4.8-18.5 1.9-7.4 3.8-14.8 5.8-22.2 1.5-5.5 3.1-11 4.6-16.6.2-.8.2-1.6.3-2.4.8-6.6 1.6-13.3 2.4-19.9.6-5 1.2-10.1 1.9-15.8-2.8.7-4.8 1.1-6.9 1.3z"/>
    <path id="XMLID_765_" d="M598.8 609.8c.2 4.2.1 8.3 0 12.5-.1 5.4-1.8 10.3-4 14.6-6.7.9-13 1.7-19.3 2.5-4 .5-7.9.8-11.9 1.2-4.4.5-8.9 1-13.3 1.5-.5.1-.9.2-1.4.3-8 .6-12-.2-13.5-9.5-.4-2.2-.7-4.4-.8-6.7-.1-9.4-.1-18.9 0-28.3 0-3.3.7-6.7.9-10 .6-9-.5-17.8-2.2-26.7-1.5-7.8-3.1-15.7-4.1-23.6-.7-5.7-1.7-11.4-2-17.1-.5-10-2.9-19.6-4.3-29.4-1.2-8.4-2.4-16.8-3.8-25.1-1.6-9.6-2.9-19.3-5.2-28.7-1.5-5.9-2.6-11.8-3.8-17.8-.3-1.4-.8-2.8-1.1-4.1-.9-3.7-1.8-7.4-2.7-11.2-.9-3.6-1.8-7.1-2.7-10.7-1-4.2-1.9-8.4-2.9-12.6-.4-1.5-.8-3-1.9-4.4-.4 2.7-.7 5.3-1.1 8-1.5 9.9-.7 19.8-1 29.7-.1 4.6-1 9.2-.8 13.8.3 8.1 1.1 16.2 1.6 24.3.1.6.1 1.3.1 1.9.3 4.1.6 8.3 1 12.4.7 8.9 1.3 17.8 2.1 26.7.6 6 1.6 12 2.3 18 .8 6.3 1.7 12.6 2.3 19 .7 6.4 2.2 12.6 3.5 18.8 3.1 14.8 7.8 29 14.2 42.6 2.5 5.3 1.9 6.2-3.8 8.3-6.8 2.5-13.5 4.8-20.2 7.6-5.3 2.2-10.3 5-15.6 7.3-8.6 3.7-17.5 5.9-26.9 6.3-3.5.2-6.9 1.1-10.3 2-4.1 1-8.2.9-12.4.3-1.9-.3-3.7-.5-5.6.1-2.5.8-4.2 0-5.6-2.4-1.3-2.4-2.5-4.9-3.3-7.4-1.4-4-2.5-8.2-3.8-12.7-3.5.3-6.9.8-10.4.8-3.3 0-6.6-.4-10.4-.7-2.4 8-6.4 15.4-10.6 22.7-6.8 1-13.5-.2-20.1-1.2-11.5-1.9-22.9-4.5-34-8.1-7.9-2.6-15.8-5.1-22.8-9.7-.5-.3-1.1-.8-1.7-.9-7.9-1.7-14.1-7.4-22-9.2-1.9-.4-3-1.8-3.4-3.7-.2-1.1-.3-2.2-.2-3.3l2.1-18c.2-1.4.7-2.8.6-4.2-.3-4.7.5-9.2 2-13.7 2.6-7.5 2.9-15.3 4.6-23 1.1-5.1 1.7-10.4 2.7-15.5 1.2-6.1 2.7-12.1 3.7-18.3.8-4.7 1-9.5 1.5-14.2.2-1.6.3-3.2.6-4.7 1.1-5.3 1.8-10.7 2.4-16.1 1.9-18.5.3-37.1.8-55.6 0-.6-.1-1.2-.3-2.7-.8 1.2-1.4 1.8-1.6 2.5-.7 2.3-1.2 4.6-1.9 6.9-1.2 3.6-2.7 7.2-4 10.8-.4 1.2-.8 2.4-1.1 3.6-1.2 4.5-2.5 8.9-3.7 13.4-3.8 13.5-6.7 27.2-9.1 41.1-.7 3.8-.7 7.6-1.2 11.4-.7 5.2-1.5 10.4-2.3 15.6-.5 3.8-1.1 7.6-1.6 11.4-.3 2.5-.7 5-.9 7.6-.7 6.3-1.3 12.7-2 19-.4 4-1 7.9-1.5 11.8-.1.8-.3 1.6-.3 2.4-.4 10.7-1.5 21.4-1.1 32.1.3 6.4-1 12.7-1.6 19-.5 5.4-.4 10.8-.5 16.3 0 1.6.1 3.2 0 4.8-.2 3.6-1.4 5.3-4.8 6.3-4.2 1.2-8.6 1-12.8.4-5.8-.8-11.7-1.6-17.5-2.7-5.5-1-10.9-2.2-16.4-3.6-1.9-.5-3.7-.9-5.6-.6-1.2.2-2.4-.1-3.6-.2-2.4-9.7-1.6-19.1-1.6-28.5 0-2.4.5-4.8.9-7.1 1.4-7.5.7-15.3 2.6-22.8.8-3.2.8-6.6 1-10 .5-7.7 2.1-15.2 3.3-22.7 1.9-12 3.8-23.9 5.5-35.9 2.1-15 3.8-30.1 5.8-45.1 1.1-8.1 2.5-16.1 3.7-24.1.6-4 .8-8 1.4-11.9 1-7.4 2.2-14.9 3.2-22.3.4-3 .9-6 .4-9.1-.3-1.7-.1-3.5.1-5.2 1-7.1 1.3-14.3 1.2-21.5 0-1.9.1-3.9.5-5.7 2.1-9.2 2.4-18.7 3.2-28 .4-5.1.4-10.2 1.1-15.3.6-3.9 2-7.7 3-11.6.8-2.9 1.5-5.9 2-8.9 1.8-10.4 4.5-20.5 8.7-30.3 2.6-6.2 4.5-12.6 7.1-18.8 2.6-6.4 5.4-12.6 8.5-18.7 1.6-3.2 5-4.3 8.2-5.2 4.2-1.1 8.4-2.2 12.6-2.8 4.2-.6 7.9-2.3 11.9-3.6 4.9-1.5 9.7-3.1 14.6-4.7 3.3-1.1 6.6-2.4 9.9-3.6 5.3-2.1 10.6-4.4 16.6-5.4 2.4-3.6 4.9-7.5 7.5-11.3 3.6-5.3 7.2-10.6 10.9-15.8 1.5-2.2 3.9-3.6 4.9-6.4.3-.8 2.1-1.3 3.3-1.4 13.4-.9 26.7-1.8 40.1-1.4 5.2.2 10.5 1 15.7 1.4 1.4.1 2.8-.1 4.2-.2 2.2-.1 4.5-.4 6.7-.2 1.4.1 2.9.6 4 1.5 5.4 4.5 10.5 9.2 14.6 15 3.3 4.7 6.8 9.2 10 14.1 2.4 3.6 5.6 5.2 9.7 6.1 8.7 2 17.4 4.2 25.9 6.8 5 1.5 9.9 3.7 14.7 5.9 7.4 3.4 14.6 7 21.9 10.6.7.3 1.1 1.1 1.6 1.7 4.3 5.3 6.7 11.6 8.5 18.1 1.1 3.8 1.5 7.8 2.3 11.8.4 2 .8 4.1 1.3 6.1 2.7 9.4 5.4 18.7 8.1 28.1 2.1 7.4 4.5 14.7 6.1 22.1 1.6 7.1 2.6 14.4 3.8 21.7.4 2.4.7 4.7 1.1 7.1 1.4 7.7 3.1 15.3 4.2 23 1.2 8.4 3.4 16.6 3.4 25.1 0 2.4.6 4.7.9 7.1 1.3 11.2 2.5 22.5 4 33.7 1.2 9.3 3 18.6 4.3 27.9.7 4.9.9 9.8 1.3 14.8.6 7.6 1.3 15.2 1.8 22.9.3 4.8.1 9.6.2 14.4.1 2.2.3 4.5.7 6.6 1.1 6.1 2.3 12.2 2.3 18.5 0 3.3.8 6.6 1.3 9.9.8 5.8 1.4 11.7 2.5 17.5 1.3 6.7.5 13.4 1 20.1.3 5.2 1.2 10.4 1.9 15.6.6 3 1.1 6 1.2 9zm-8.6 10.4c.2-3.7.1-7.4 0-11-.1-2.9-.5-5.7-.9-8.5-1-6.8-2.2-13.5-2-20.4.3-9.9-1.4-19.7-2.9-29.5-.9-6.1-2.2-12.3-2-18.5 0-1.3-.2-2.5-.4-3.8-1-7.1-2.8-14.1-2.5-21.3.2-5.4-.6-10.8-.8-16.2-.4-7.3-.7-14.6-1-22 0-.3-.1-.6-.1-1-1.3-9-2.5-18-3.9-27-1.5-9.8-3-19.5-3.8-29.4-.7-8.4-2.2-16.7-2.9-25.1-.6-7-2.1-13.9-3.2-20.8-1.5-8.8-3.2-17.6-4.4-26.4-1.4-10.1-2.9-20.2-5.7-30.1-2.4-8.3-4.6-16.6-6.9-24.9-1.3-4.6-2.4-9.3-3.9-13.8-1.3-4.1-2.3-8.3-2.9-12.6-1.1-6.9-2.4-13.8-5.5-20.2-.3-.7-.7-1.2-1.5-2.5-1.9 6.5-3.5 12.3-5.1 18.1-1.4 4.9-2.8 9.8-4 14.8-1.6 6.3-2.9 12.8-4.4 19.1-1.8 7.5-3.7 14.9-5.4 22.3-2.1 9-4 18.1-6.1 27.1-1.9 7.9-3.9 15.8-5.8 23.7-.5 2.1-.3 3.7.6 5.8 2.5 5.8 4.4 11.9 6.4 18 1 3 1.7 6.1 2.5 9.2.9 3.4 1.7 6.8 2.6 10.2.9 3.5 1.8 7.1 2.8 10.6.3 1.2.8 2.4 1 3.7 1.3 9.3 4.3 18.3 5.9 27.6 1.3 7.4 2.6 14.8 3.8 22.2 1.9 11.3 3.6 22.7 5.4 34 .8 5 1.9 10.1 2.2 15.1.3 3.7.5 7.3 1.4 10.9.3 1.2.6 2.5.6 3.8-.2 5.3 1 10.4 2 15.6 1.4 7.5 2.6 15.1 3.8 22.6.5 3.6.9 7.3 1 10.9.2 5.7-.4 11.5-.7 17.2-.6 10.1-.2 20.2-.2 30.2 0 2.6.5 5 1.8 7.4 14.7-1.6 29.2-3.3 44.5-5 .1-3.8.5-6.9.6-10.1zm-64.3-385.9c.4-1.2.6-2.4.9-3.6-18.1-8.9-45.9-20-53.7-19 2.8 4.3 5.5 8.4 8.2 12.5 1 1.6 2 3.3 2.7 5.1 1.5 3.6.9 5.6-2.5 7.6-.9.6-2 1.1-3.1 1.3-3 .6-6 1-8.9 1.5-1.7.3-3.5.1-5.1 1.5.6.9 1 1.8 1.6 2.5 1.2 1.5 2.5 2.9 3.7 4.4 4.4 5.2 6.2 11.4 8.1 17.7 1 3.2 1 6.3-.2 9.4-1.1 2.8-2.1 5.7-3.2 8.5-3.6 9.4-7.1 18.8-10.9 28.1-2.1 5.2-4.5 10.2-7 15.2-1.9 3.8-4.3 7.5-6.3 11.3-1.8 3.4-3.6 6.8-5.1 10.3-2.1 5.2-3.8 10.5-5.9 15.7-2.7 6.7-5.2 13.4-8.4 19.9-3.2 6.6-6.9 13-9 20-.3.9-.9 1.7-1.2 2.6-1.5 3.8-3 7.7-4.6 11.6-.7 1.7-.5 3.3-.1 5.1 1.4 5.6 2.6 11.2 3.8 16.8 1.2 5.6 1.8 11.4 1.1 17.1-.9 7.8-1.8 15.5-1.8 23.3 0 6.7.2 13.4-.9 20.1-1 6.3-1.4 12.7-2.3 19-1.8 12.8-4.6 25.4-7.3 38.1-.6 2.7-.4 5 .6 7.4 2.9 7.1 5.9 14.1 8.6 21.3 3.4 9 7.1 17.8 9.4 27.1.2.8.7 1.4 1.2 2.4 1.3.1 2.3.1 3.2.3 6.1 1.5 12 .8 18-.8 2.1-.6 4.4-1.2 6.6-1.3 10.4-.5 20.2-3.4 29.3-8.2 7.5-4 15.4-7 23.4-9.8 2.2-.8 4.6-1.2 6.3-3.3-.8-2-1.6-3.9-2.4-5.8-4.5-10.8-8.1-21.8-10.7-33.2-2.2-9.8-4.2-19.7-5.1-29.7-.4-4.5-1.2-8.9-1.8-13.3-.8-6-1.6-12-2.2-18.1-.7-7.9-1.2-15.9-1.8-23.9-.2-2.9-.8-5.7-1-8.6-.4-6.7-.6-13.4-1-20.1 0-.8-.2-1.6-.4-2.4-1.1-6.5-.6-13.1-.4-19.6.2-4 .8-8 .7-11.9-.2-13 .6-25.9 3.2-38.6 1.4-6.6 3.4-13 4.8-19.5 3.1-14.2 7.1-28.1 9.9-42.4 1.9-9.9 5-19.5 7.4-29.2 1.2-5 2-10 3.3-14.9 2.6-9.2 5.5-18.3 8.3-27.5zm-49.6-3.1c-.3-.9-.4-1.5-.8-2.1-2.6-4.2-5.1-8.5-7.9-12.6-7.2-10.5-14.5-21-21.9-31.4-1.7-2.4-3.7-4.7-6.3-6.8-.2 1.2-.4 1.8-.4 2.4 0 7.5.4 15-.8 22.4-1 6.3-1 12.7-2.2 19-1.5 7.6-1.4 15.6-4.3 23-1.5 3.8-2.1 8-3.2 12-2 7.7-4.1 15.4-6.2 23.1l-5.1 19.5c-.2.6-.1 1.3-.2 1.9-.5 3.6-1 7.2-1.6 10.9-1.6 10.6-5.4 20.7-6.6 31.3-.3 2.5-.1 5.1-.6 7.6-1.4 6.8-1.1 13.6-1.1 20.4.1 10.7 2.1 21.2 4.9 32.4 2.1-2.2 2.5-4.2 3.2-6.1 1-2.5 1.6-5.3 3-7.5 4.5-7.2 6.9-15.4 10.6-23 4.7-9.6 7.3-20.1 12.4-29.5 2.2-4.1 4.4-8.1 6.6-12.2.6-1.1 1.3-2.2 1.8-3.4 2.9-6.9 5.9-13.8 8.7-20.7 3.8-9.3 7.4-18.7 11-28.1.5-1.4.9-3.2.6-4.7-1.4-6.7-3.3-13.3-8.2-18.6-2-2.2-3.9-4.6-5.7-7.1-2.1-2.9-1.6-5.3 1.4-7.3 1-.7 2.2-1.3 3.5-1.6 2.3-.5 4.7-.9 7.1-1.2 3-.3 5.7-.6 8.3-2zm-44.8-49.1v-7.6c-2.9.1-5.8.4-8.6.2-5.4-.4-10.7-1.2-16.1-1.6-4.3-.3-8.7.1-13-.1-4.4-.2-8.9 1.2-13.3.1-.7-.2-1.5.3-2.3.4-1.6.2-3.2.2-4.8.4-1 .1-2.1.2-3.5.3 1.5 6.5 2.9 12.7 4.4 19 4.6-2.4 9.1-1.9 13.6-1.7 3 .2 6 .5 9 .7 2.4.1 4.9-.4 7.2.1 6.1 1.5 12.1-.4 18.1-.7 3-.1 5.9-1.1 9.2-1.8.1-2.7.1-5.2.1-7.7zm-2.4 31.2c.6-5 1.2-10 1.9-15.8-2.9.5-4.9.9-6.9 1.1-4.9.5-9.8 1-14.7 1.2-2.4.1-4.7-.8-7.1-.8-6.2-.1-12.4-.1-18.6-1.2-2.6-.5-5.4-.4-7.9 1.6.2 1.3.3 2.8.6 4.1 1.1 7.1 2.6 14.1 3.2 21.3.5 6 1.1 12 2 18 .4 2.5.9 5 .9 7.6.1 6.9 1.2 13.6 2.2 20.4.9 6.2 1.5 12.4 2.8 18.4 2.1 9.7 4.6 19.2 7 28.8.3 1.1.7 2.1.9 3.2.6 2.3 1.2 4.6 1.6 6.9 1.2 6.3 2.3 12.6 3.4 18.6.9-4.9 1.6-10.1 2.8-15.2 2-8.5 4.1-17 5.4-25.7.6-4.4 1.6-8.8 2.7-13.1 1.5-6.2 3.2-12.4 4.8-18.5 1.9-7.4 3.8-14.8 5.8-22.2 1.5-5.5 3.1-11 4.6-16.6.2-.8.2-1.6.3-2.4.7-6.4 1.5-13.1 2.3-19.7zm-16.7 245.5c.1-.9 0-1.9-.3-2.8-.6-2.1-1.4-4.2-2.2-6.3-1-2.5-2-5-3.1-7.4-2.5-5-5.4-9.8-7.6-14.9-5.7-13.4-12.5-26.2-19.6-38.9-2.3-4.2-4.5-8.5-6.1-12.9-3.5-9.6-7.9-18.8-12.3-28-3.2-6.6-6.7-13.1-9.5-19.9-3.6-8.5-6.7-17.2-10-25.9-.8-2.1-2-4-2.5-6.2-1.6-7.1-4.9-13.5-7.8-20.1-1.5-3.5-2.8-7.1-3.8-10.8-1.4-5.1-.6-9.8 3.8-13.5 1.3-1.1 2.6-2.4 3.9-3.5 1.5-1.2 2.7-2.6 3.4-4.4-3.2-2.7-6.3-4.7-10-6-1.6-.6-3.3-1.3-4.7-2.2-2.4-1.7-2.9-3.7-1.4-6.2.8-1.5 2-2.9 3-4.3 2.6-3.4 5.3-6.8 8-10.2.5-.6.8-1.5 1.4-2.9-1.9.7-3.2 1-4.3 1.5-5.5 2.7-11.3 4.3-17.1 6-3.7 1.1-7.3 2.4-10.9 3.6-4.1 1.3-8 3-12.4 3.5-3.7.4-7.4 1.7-11.4 2.7.4 3 .6 5.7 1.3 8.3 1.4 5.1 3 10.1 4.5 15.1 1.2 4.1 2.2 8.3 3.7 12.4 1.6 4.4 2.6 8.9 3.2 13.5.4 3.8.7 7.6 1.3 11.4.8 5.5 2.2 10.9 2.9 16.5 1.6 13.5 3.8 26.8 5.7 40.2 1 6.8 1.9 13.5 2.9 20.3.2 1.6.7 3.1.9 4.7.9 5.8 1.7 11.6 2.5 17.5.8 5.7 2.2 11.4 2.2 17-.1 18.2 1.2 36.4-.8 54.6-.6 5.4-1.5 10.7-2.2 16.1-.2 1.7-.7 3.5-.6 5.2.2 4.7-.7 9.2-1.5 13.8-1.1 6.3-2.6 12.5-3.8 18.8-.9 4.9-1.4 9.8-2.5 14.6-1.9 8.1-2 16.5-4.8 24.4-1.4 4.1-2 8.3-1.9 12.7.1 1.6-.3 3.2-.7 4.7-1.6 6.1-1 12.3-2 18.5 0 .1.1.3.2.5.3.2.7.6 1.1.7 6.4 2 12.1 5.7 18.6 7.4 2.6.7 4.8 2.5 7.3 3.6 2.9 1.3 5.8 2.7 8.8 3.8 13.2 4.7 26.8 8.3 40.8 10.3 4.4.6 8.8 2 13.5 1 2.2-2.7 4.2-5.7 5.4-9.3 2.5-7.2 4.9-14.5 7.4-21.8 1.9-5.6 4.2-11.1 5.8-16.7 2.1-7.7 3.9-15.5 5.5-23.3 1.7-8.3 3.1-16.6 4.4-25 .6-3.8.6-7.6 1.2-11.4 1.3-8.7 2.8-17.3 2.5-26.2-.1-4.5 0-9 .1-13.4-.2-3.5.3-7 .6-10.5zm0 134.9c-.6-3.7-2.3-6.8-3.6-10-1.3-3.2-2.5-6.4-3.8-10.1-.7 1.1-1.4 2-1.7 2.9-1.4 4-2.8 8.1-4.1 12.2-.6 1.7-1 3.5-1.6 5.4 5.1 1.5 9.9 1.4 14.8-.4zm-7-172.4c.4-.7.7-1.3.5-1.8-.7-3.6-1.5-7.2-2.3-10.8-.8-3.6-2-7.1-2.6-10.7-2-11.8-3.9-23.6-5.8-35.4-1.1-6.6-2.7-13.1-3.6-19.7-1.2-8.2-2.7-16.3-5-24.3-2.3-7.6-4-15.4-5.8-23.2-.9-3.9-1.5-7.8-2.1-11.8-.6-3.4-1.1-6.9-1.6-10.4-.8-5.7-1.8-11.4-2.1-17.1-.3-5.3-1-10.4-1.7-15.7-.5-4.1-.9-8.2-1.3-12.4-.4-4.4-.4-8.9-1.2-13.3-1.7-10.2-3.7-20.4-5.6-30.6-.2-.9-.6-1.8-1-3.1-.9 1.2-1.6 2-2.2 2.9-4.7 7.1-9 14.4-14 21.2-6 8.3-10.5 17.6-18.1 24.8 5.1 3.1 9.6 5.7 14 8.5 4.2 2.7 4.5 5.2 1.1 9-2.3 2.6-4.8 5.1-7.5 7.4-3.1 2.7-3.7 5.9-2.5 9.5.9 2.9 2.1 5.7 3.3 8.5 2.1 5.2 4.4 10.3 6.5 15.5.8 2.1 1.1 4.3 1.9 6.4 3.4 8.6 7.2 17.1 10.4 25.7 3.3 9 8.1 17.4 12.1 26 3.6 7.7 7.6 15.2 10.3 23.2 3.2 9.5 8.5 17.9 13 26.6 2.5 4.8 5.1 9.6 7.4 14.5 1.7 3.8 3.5 7.2 5.5 10.6zm-108.5-41c.2-1.1.4-2.2.3-3.3-.7-7.6-2.3-15.1-3-22.8-1-9.9-2.7-19.6-4-29.5-1-7.8-1.5-15.6-3-23.2-1.6-7.5-2.6-15.1-3.3-22.7-.7-7.4-3.6-14.2-5.2-21.3-.6-2.8-1.6-5.5-2.4-8.3-1.1-4.1-2.2-8.3-3.4-12.9-2.8 3-4 6.3-5.3 9.5-2 5.2-3.8 10.5-5.7 15.7-4 10.9-8.7 21.6-10.2 33.4-.8 6.2-2.9 12.1-4.6 18.1-.3 1.1-.6 2.2-.7 3.3-.4 5.1-.6 10.2-1 15.3-.4 4.9-.7 9.9-1.2 14.8-.4 3.8-1.2 7.6-1.7 11.3-.4 2.5-.8 5-.9 7.6-.2 4.3 0 8.7-.4 12.9-.4 5.5-2 11-.8 16.6.3 1.3-.2 2.8-.4 4.3-1.1 7.2-2.3 14.5-3.3 21.8-1.2 8.4-2.1 16.8-3.2 25.1l-3.6 26.1c-.6 4.4-1.1 8.9-1.6 13.3-.7 5.2-1.4 10.4-2.1 15.7-1 7.8-1.9 15.5-3.2 23.2-1.4 8.8-3.2 17.6-4.7 26.4-.7 3.8-1.3 7.5-1.7 11.3-.7 5.8-1.3 11.7-2 17.6-.3 2.2-.7 4.4-.9 6.6-.4 3.3-.5 6.7-.9 10-.3 3-.9 6-1 9-.2 5.6-.1 11.2-.1 16.8 0 1.4.4 2.7.5 3.7 4.3.5 8.1.8 11.9 1.4 8.8 1.4 17.6 3 26.5 4.3 2.6.4 5.4.8 8.3-.8v-4.7c-.1-6.9-.2-13.7.5-20.6.3-2.5.9-5.1.9-7.6.1-11.5-.4-23 .9-34.5.3-2.7.4-5.4.7-8.1.4-4 .8-7.9 1.2-11.9.7-6.5 1.5-13 2.3-19.5.1-1.1.5-2.2.5-3.3.7-7.9 1.7-15.8 3.3-23.7.8-3.7 1.4-7.6 1.5-11.4.1-4.5.9-8.9 1.7-13.3 2.9-16.4 7.2-32.4 11.7-48.4.6-2.1 1.6-4.2 2.3-6.3 2.8-8.5 5.6-17 8.2-25.5.9-3.6 1.5-7.6 2.3-11.5z"/>
    <path id="XMLID_758_" d="M489.8 525h-.4v6.7c-.1 5-.9 6.1-5.8 7.2-4.4.9-8.8 1.7-13.1 2.6-5 1-10 2-15.1 2.2-5.7.3-11.4 1.4-17 2.2-2.4.3-4.7.8-7.1 1.2-3.1.4-5.5-.8-6.3-3.8-1.2-4.4-2.1-9-1.4-13.7.4-2.7.3-5.4.5-8.1.3-3.6 1.3-4.2 4.8-4.3 3.3-.1 6.6-.5 9.9-1.1 6-1 11.9-2.1 17.9-3.1.5-.1 1-.1 1.4-.1 6.1.5 11.7-1.3 17.2-3.6 2.6-1.1 5.2-1.5 8-1.3 2.9.2 4.6 1.3 5 4.2.8 4.3 1 8.6 1.5 12.8zm-8.8 6.3v-15.4c-2 .5-3.2.8-4.5 1.4-5.1 2.1-10.6 3-16 3.3-3.6.2-7.3.6-10.9 1.2-5.9 1.1-11.8 2.5-17.6 3.7-1.4 4.7-1.4 9.3.5 14.1 16-3 32.5-3.5 48.5-8.3z"/>
    <path id="XMLID_750_" d="M395.9 449c5.6-2.7 9.6 1.1 9.6 7.2 0 .2-.1 1.3-.5 2.3-1 2.9-3.3 4.7-5.9 4.8-2.8.1-5.6-1.8-6.6-4.6-1.1-3.7-.6-7.8 3.4-9.7z"/>
    <path id="XMLID_747_" d="M381.1 531h-.3c0 2.4.1 4.8 0 7.2-.2 3.4-2.1 5.1-5.5 5.4-.8.1-1.6.1-2.4 0-6.8-.7-13.6-1.4-20.4-2.2-4.3-.5-8.5-1.1-12.8-1.6-5.4-.7-10.6-2-16.1-2.1-3.7-.1-5.4-2.2-5.4-6 0-5.6 0-11.2.2-16.8.1-4.3 1.3-4.8 5.3-4 4 .7 8.2.7 12.3 1 2.7.2 5.4.5 8.1.7 1.1.1 2.2.3 3.3.2 7.6-.5 14.9 1.4 22.3 2.3 1.4.2 2.8.4 4.3.5 4.1.3 5.4 1.2 6.1 5.2.7 3.5.7 6.8 1 10.2zm-9.1 4.6v-12.3c-8-1.4-15.2-2.8-22.9-2.9-7.7-.2-15.4-1.8-23.2-.6 0 3.9-.5 7.3.4 11 7.8 1 15.4 2 23 3 7.5.8 14.7 2.5 22.7 1.8z"/>
    <path id="XMLID_357_" class="st0" d="M590.2 609.2c-.1-2.9-.5-5.7-.9-8.5-.9-6.8-2.2-13.5-1.9-20.4.3-9.9-1.4-19.7-2.9-29.5-.9-6.1-2.2-12.3-2-18.5 0-1.3-.2-2.5-.4-3.8-1-7.1-2.8-14-2.5-21.3.2-5.4-.6-10.8-.8-16.2-.4-7.3-.7-14.7-1-22 0-.3-.1-.6-.1-1-1.3-9-2.5-18-3.9-27-1.6-9.8-3-19.5-3.8-29.4-.7-8.4-2.2-16.7-2.9-25.1-.6-7-2.1-13.9-3.2-20.8-1.5-8.8-3.2-17.6-4.4-26.4-1.4-10.1-2.9-20.2-5.7-30.1-2.4-8.3-4.6-16.6-6.9-24.9-1.3-4.6-2.4-9.3-3.9-13.8-1.3-4.1-2.3-8.3-2.9-12.6-1.1-6.9-2.4-13.8-5.5-20.2-.3-.7-.7-1.2-1.5-2.5-1.9 6.5-3.5 12.3-5.1 18.1-1.4 4.9-2.8 9.8-4 14.8-1.6 6.3-2.9 12.8-4.4 19.1-1.8 7.4-3.7 14.9-5.4 22.3-2.1 9-4 18.1-6.1 27.1-1.9 7.9-3.9 15.8-5.8 23.7-.5 2.1-.3 3.7.6 5.8 2.5 5.8 4.4 11.9 6.4 18 1 3 1.7 6.2 2.5 9.2.9 3.4 1.7 6.8 2.6 10.2.9 3.6 1.8 7.1 2.8 10.6.3 1.2.8 2.4 1 3.7 1.3 9.3 4.3 18.3 5.9 27.6 1.3 7.4 2.6 14.8 3.8 22.2 1.9 11.3 3.6 22.7 5.4 34 .8 5 1.9 10.1 2.2 15.1.3 3.7.5 7.3 1.4 10.9.3 1.2.6 2.5.6 3.8-.2 5.3 1 10.4 2 15.6 1.4 7.5 2.6 15.1 3.8 22.6.5 3.6.9 7.3 1 10.9.2 5.7-.4 11.5-.7 17.2-.6 10-.2 20.1-.2 30.2 0 2.6.5 5 1.8 7.4 14.7-1.6 29.2-3.3 44.5-5 .4-3.7.8-6.8.9-10-.2-3.8-.2-7.4-.4-11.1z"/>
    <path id="XMLID_358_" class="st0" d="M501.8 554c-2.2-9.8-4.2-19.7-5.1-29.7-.4-4.4-1.2-8.9-1.8-13.3-.8-6-1.6-12-2.2-18.1-.7-7.9-1.1-15.9-1.8-23.9-.2-2.9-.8-5.7-1-8.6-.4-6.7-.6-13.4-1-20.1 0-.8-.2-1.6-.4-2.4-1.1-6.5-.6-13.1-.4-19.6.2-4 .8-7.9.7-11.9-.2-13 .6-25.9 3.2-38.6 1.4-6.5 3.4-13 4.8-19.5 3.1-14.2 7.1-28.1 9.9-42.4 1.9-9.9 5-19.5 7.4-29.2 1.2-4.9 2-10 3.3-14.9 2.6-9.2 5.5-18.4 8.2-27.5.4-1.2.6-2.4.9-3.6-18.1-8.9-45.9-20-53.7-19 2.8 4.3 5.5 8.4 8.2 12.5 1 1.6 2 3.3 2.7 5.1 1.5 3.6.9 5.6-2.5 7.6-.9.6-2 1.1-3.1 1.3-3 .6-6 1-8.9 1.5-1.7.3-3.5.1-5.1 1.5.6.9 1 1.8 1.6 2.5 1.2 1.5 2.5 2.9 3.7 4.4 4.4 5.2 6.2 11.4 8.1 17.7 1 3.2 1 6.3-.2 9.4-1.1 2.8-2.1 5.7-3.2 8.5-3.6 9.4-7.1 18.8-10.9 28.1-2.1 5.2-4.5 10.2-7 15.2-1.9 3.8-4.3 7.5-6.3 11.3-1.8 3.4-3.6 6.8-5.1 10.3-2.1 5.2-3.8 10.5-5.9 15.7-2.7 6.7-5.2 13.4-8.4 19.8-3.2 6.6-6.9 13-9.1 20-.3.9-.8 1.7-1.2 2.6-1.5 3.8-3 7.7-4.6 11.6-.7 1.7-.5 3.3-.1 5.1 1.4 5.6 2.6 11.2 3.8 16.8 1.2 5.6 1.8 11.4 1.1 17.1-.9 7.8-1.8 15.5-1.8 23.4 0 6.7.2 13.4-.9 20.1-1 6.3-1.4 12.7-2.3 19-1.8 12.8-4.6 25.4-7.3 38.1-.6 2.7-.4 5 .6 7.4 2.9 7.1 5.9 14.1 8.6 21.3 3.4 9 7.1 17.8 9.4 27.1.2.8.7 1.4 1.2 2.4 1.3.1 2.3.1 3.2.3 6.1 1.5 12 .8 18-.8 2.1-.6 4.4-1.2 6.6-1.3 10.4-.5 20.2-3.4 29.3-8.2 7.5-4 15.4-7.1 23.4-9.8 2.2-.8 4.6-1.2 6.3-3.3-.8-2-1.6-3.9-2.4-5.8-4.2-10.8-7.8-21.8-10.5-33.2zm-12.4-22.2c-.1 5-.9 6.1-5.8 7.2-4.4.9-8.8 1.7-13.1 2.6-5 1-10 1.9-15.1 2.2-5.7.3-11.4 1.4-17 2.2-2.4.3-4.7.8-7.1 1.2-3.1.4-5.5-.8-6.3-3.8-1.2-4.4-2.1-9-1.4-13.6.4-2.7.3-5.4.5-8.1.3-3.6 1.3-4.2 4.8-4.3 3.3-.1 6.6-.5 9.9-1.1 6-1 11.9-2.1 17.9-3.1.5-.1 1-.1 1.4-.1 6.1.5 11.7-1.3 17.2-3.6 2.6-1.1 5.2-1.5 8-1.3 2.9.2 4.6 1.3 5 4.2.7 4.2 1 8.5 1.5 12.8-.1 0-.3 0-.4.1v6.5z"/>
    <path id="XMLID_361_" class="st0" d="M422.4 280.2c-1.7 6.5-3.4 13-5.1 19.4-.2.6-.1 1.3-.2 1.9-.5 3.6-1 7.2-1.6 10.9-1.6 10.6-5.4 20.7-6.6 31.3-.3 2.5-.1 5.1-.6 7.6-1.4 6.8-1.1 13.6-1.1 20.4.1 10.7 2.1 21.2 4.9 32.4 2.1-2.2 2.5-4.2 3.2-6.1 1-2.5 1.6-5.3 3-7.6 4.5-7.2 7-15.4 10.6-23 4.7-9.6 7.3-20.1 12.4-29.5 2.2-4.1 4.4-8.1 6.6-12.2.6-1.1 1.3-2.2 1.8-3.4 2.9-6.9 5.9-13.8 8.7-20.7 3.8-9.3 7.4-18.7 11-28.1.6-1.4.9-3.2.6-4.7-1.4-6.7-3.3-13.3-8.2-18.6-2-2.2-3.9-4.7-5.7-7.1-2.1-2.9-1.6-5.3 1.4-7.3 1-.7 2.2-1.3 3.5-1.6 2.3-.5 4.7-.9 7.1-1.2 2.8-.3 5.6-.6 8.2-2-.3-.9-.4-1.5-.8-2.1-2.6-4.2-5.1-8.5-7.9-12.6-7.2-10.5-14.5-21-21.9-31.4-1.7-2.4-3.7-4.7-6.3-6.8-.2 1.2-.4 1.8-.4 2.4 0 7.5.4 15-.8 22.5-1 6.3-1 12.7-2.2 19-1.5 7.7-1.4 15.6-4.3 23-1.5 3.8-2.1 8-3.2 12-2 7.8-4 15.5-6.1 23.2z"/>
    <path id="XMLID_362_" class="st0" d="M387.9 191.5c3 .2 6 .5 9 .7 2.4.1 4.9-.4 7.2.1 6.1 1.5 12.1-.4 18.1-.7 3-.1 5.9-1.1 9.2-1.8 0-2.7.1-5.2.1-7.8v-7.6c-3 .1-5.8.5-8.6.2-5.4-.4-10.7-1.2-16.1-1.6-4.3-.3-8.6.1-13-.1s-8.9 1.2-13.3.1c-.7-.2-1.5.3-2.3.4l-4.8.3c-1 .1-2.1.2-3.5.3 1.5 6.5 2.9 12.7 4.4 19 4.6-2.2 9.1-1.7 13.6-1.5z"/>
    <path id="XMLID_363_" class="st0" d="M411.4 482.7c-.2-4.5-.1-9 .1-13.4.1-3.5.6-7 .9-10.5.1-.9 0-1.9-.3-2.8-.6-2.1-1.4-4.2-2.2-6.3-1-2.5-2-5-3.2-7.4-2.5-5-5.4-9.8-7.6-14.9-5.7-13.4-12.5-26.2-19.6-38.9-2.3-4.2-4.5-8.5-6.1-12.9-3.5-9.6-7.9-18.8-12.3-28-3.2-6.6-6.7-13.1-9.5-19.9-3.6-8.5-6.7-17.2-10-25.9-.8-2.1-2.1-4.1-2.5-6.2-1.6-7.1-4.9-13.5-7.8-20.1-1.5-3.5-2.8-7.1-3.8-10.8-1.4-5.1-.6-9.8 3.8-13.5 1.3-1.1 2.6-2.4 3.9-3.5 1.5-1.2 2.7-2.6 3.5-4.4-3.2-2.7-6.4-4.7-10-6-1.6-.6-3.3-1.3-4.7-2.2-2.4-1.7-2.9-3.7-1.5-6.2.8-1.5 2-2.9 3.1-4.3 2.6-3.4 5.3-6.8 8-10.2.5-.6.8-1.5 1.4-2.9-1.9.7-3.2 1-4.3 1.5-5.5 2.7-11.3 4.3-17.1 6-3.7 1.1-7.3 2.4-10.9 3.6-4.1 1.3-8 3-12.4 3.5-3.7.4-7.4 1.7-11.4 2.7.4 3 .6 5.7 1.3 8.3 1.4 5.1 3 10.1 4.5 15.1 1.2 4.1 2.2 8.3 3.7 12.4 1.6 4.4 2.6 8.9 3.2 13.5.4 3.8.7 7.6 1.3 11.4.8 5.5 2.2 10.9 2.9 16.5 1.6 13.4 3.8 26.8 5.7 40.2 1 6.8 1.9 13.6 2.9 20.3.2 1.6.6 3.1.9 4.7.9 5.8 1.7 11.6 2.5 17.5.8 5.7 2.2 11.4 2.2 17-.1 18.2 1.2 36.4-.8 54.6-.6 5.4-1.5 10.7-2.2 16.1-.2 1.7-.7 3.5-.6 5.2.2 4.7-.7 9.2-1.6 13.8-1.1 6.3-2.6 12.5-3.8 18.8-.9 4.9-1.4 9.8-2.5 14.6-1.9 8.1-2 16.5-4.8 24.4-1.4 4.1-2.1 8.3-1.9 12.7.1 1.6-.3 3.2-.7 4.7-1.6 6-1 12.3-2 18.5 0 .1.1.3.2.5.3.2.7.6 1.1.7 6.4 2 12.1 5.7 18.6 7.4 2.6.7 4.8 2.5 7.3 3.6 2.9 1.4 5.8 2.7 8.8 3.8 13.2 4.7 26.8 8.4 40.8 10.3 4.4.6 8.8 2 13.5 1 2.2-2.7 4.2-5.7 5.4-9.3 2.5-7.2 4.9-14.5 7.4-21.8 1.9-5.6 4.2-11.1 5.8-16.7 2.1-7.7 3.9-15.5 5.5-23.3 1.7-8.3 3.1-16.6 4.5-25 .6-3.8.6-7.6 1.2-11.4 1-8.7 2.5-17.3 2.2-26.2zm-30.6 55.5c-.2 3.4-2.1 5.1-5.5 5.4-.8.1-1.6.1-2.4 0-6.8-.7-13.6-1.4-20.4-2.2-4.3-.5-8.5-1.1-12.8-1.6-5.4-.7-10.6-2-16.1-2.1-3.7-.1-5.4-2.2-5.4-6 0-5.6 0-11.2.2-16.8.1-4.3 1.3-4.8 5.3-4 4 .7 8.2.7 12.3 1 2.7.2 5.4.5 8.1.7 1.1.1 2.2.3 3.3.2 7.6-.5 14.9 1.4 22.3 2.4 1.4.2 2.8.4 4.3.5 4.1.3 5.4 1.1 6.1 5.2.6 3.3.6 6.6.9 10h-.3c.1 2.5.3 4.9.1 7.3zm24.3-79.6c-1 2.9-3.3 4.7-5.9 4.8-2.8.1-5.6-1.8-6.6-4.6-1.3-3.9-.7-7.9 3.3-9.8 5.6-2.7 9.6 1.1 9.6 7.2 0 .3-.1 1.4-.4 2.4z"/>
    <path id="XMLID_367_" class="st0" d="M329.9 230.1c5.1 3.1 9.6 5.7 14 8.5 4.2 2.7 4.4 5.2 1.1 9-2.3 2.6-4.8 5.1-7.5 7.4-3.1 2.7-3.7 5.9-2.5 9.5.9 2.9 2.1 5.7 3.3 8.5 2.1 5.2 4.4 10.3 6.5 15.4.8 2.1 1.1 4.3 1.9 6.4 3.4 8.6 7.2 17.1 10.4 25.7 3.3 9 8.1 17.4 12.1 26 3.6 7.7 7.6 15.2 10.3 23.2 3.2 9.5 8.5 17.9 13 26.6 2.5 4.8 5.1 9.6 7.4 14.5 1.7 3.5 3.5 7 5.5 10.4.4-.7.7-1.3.5-1.8-.7-3.6-1.5-7.2-2.3-10.8-.8-3.6-2-7.1-2.6-10.7-2-11.8-3.9-23.6-5.8-35.4-1.1-6.6-2.7-13.1-3.6-19.7-1.2-8.2-2.7-16.3-5-24.3-2.3-7.6-4-15.5-5.8-23.2-.9-3.9-1.5-7.8-2.1-11.8-.6-3.4-1.1-6.9-1.6-10.4-.8-5.7-1.8-11.3-2.1-17.1-.3-5.3-1-10.4-1.7-15.7-.5-4.1-.9-8.2-1.3-12.4-.4-4.4-.4-8.9-1.2-13.3-1.7-10.2-3.7-20.4-5.6-30.6-.2-.9-.6-1.8-1-3.1-.9 1.2-1.6 2-2.2 2.9-4.6 7.1-9 14.3-14 21.2-6 8.6-10.5 17.9-18.1 25.1z"/>
    <path id="XMLID_368_" class="st0" d="M296.9 380.3c.2-1.1.4-2.2.3-3.3-.7-7.6-2.3-15.1-3-22.8-.9-9.9-2.7-19.6-4-29.4-1-7.8-1.5-15.6-3-23.2-1.6-7.5-2.6-15.1-3.3-22.7-.7-7.4-3.6-14.2-5.2-21.3-.6-2.8-1.6-5.5-2.4-8.3-1.1-4.1-2.2-8.3-3.4-12.9-2.8 3-4 6.3-5.3 9.5-2 5.2-3.8 10.5-5.7 15.8-4 10.9-8.7 21.6-10.2 33.4-.8 6.2-2.9 12.1-4.5 18.1-.3 1.1-.6 2.2-.7 3.3-.4 5.1-.6 10.2-1 15.3-.4 4.9-.7 9.9-1.2 14.8-.4 3.8-1.2 7.6-1.7 11.3-.4 2.5-.8 5-.9 7.6-.2 4.3 0 8.7-.4 12.9-.4 5.5-2 11-.8 16.6.3 1.3-.2 2.8-.4 4.3-1.1 7.2-2.3 14.5-3.3 21.8-1.2 8.4-2.1 16.8-3.2 25.1l-3.6 26.1c-.6 4.4-1.1 8.9-1.6 13.3-.7 5.2-1.4 10.4-2.1 15.7-1.1 7.8-1.9 15.5-3.2 23.2-1.4 8.8-3.2 17.6-4.7 26.4-.7 3.8-1.3 7.5-1.7 11.3-.7 5.9-1.3 11.7-2 17.6-.3 2.2-.7 4.4-.9 6.6-.4 3.3-.5 6.7-.9 10-.3 3-.9 6-1 9-.2 5.6-.1 11.2-.1 16.8 0 1.4.4 2.7.5 3.7 4.3.5 8.1.8 11.9 1.4 8.8 1.4 17.6 3 26.5 4.3 2.6.4 5.4.8 8.3-.9V626c-.1-6.9-.2-13.7.5-20.6.3-2.5.9-5.1.9-7.6.1-11.5-.4-23 .9-34.5.3-2.7.4-5.4.7-8.1.4-4 .8-7.9 1.2-11.9.7-6.5 1.5-13 2.3-19.5.1-1.1.5-2.2.5-3.3.7-7.9 1.7-15.8 3.3-23.7.8-3.7 1.4-7.6 1.5-11.4.1-4.5.9-8.9 1.7-13.3 2.9-16.4 7.2-32.4 11.7-48.4.6-2.1 1.6-4.2 2.3-6.3 2.8-8.5 5.6-17 8.2-25.5.8-3.7 1.4-7.7 2.2-11.6z"/>
</svg>
