<svg id="Dove" xmlns="http://www.w3.org/2000/svg" viewBox="-205 422.6 380.7 380.4">
    <style>
        .st0{fill:#fff}
    </style>
    <path id="XMLID_754_" d="M143.5 634c1.1 2.3 1.5 4.8 2.2 7-1.4 2.2-3.2 2.3-5.2 2.2-3.5-.2-7 0-10.5 0-2.9 0-5.2 1.3-7.2 3.3-5.2 4.9-9.2 10.6-12.7 16.8-3.4 6.1-7.6 11.8-12.8 16.6-3.7 3.5-7 7.4-11.1 10.5-6.9 5.2-13.9 10.1-21.9 13.7-11.1 5-22.4 9.5-34.4 11.6-8.6 1.5-17.4 2.8-26.1 4-2.3.3-4.8 0-7.1-.1-3.4-.1-6.7-.4-10.1-.5-1.4 0-2.8.4-4.6.7-.7 1.7-1.6 3.4-2.1 5.3-1.4 5.6-2.6 11.2-3.8 16.8-.2.9-.3 1.9-.2 2.9.7 6.5 1.1 13 4.1 19.1 2 4.2 3.5 8.6 5.2 12.9 1.9 4.7.9 8.7-2.8 12.1-4.9 4.5-10.6 7.6-17.1 9.2-8.1 1.9-16.3 3.2-24.6 3.7-2.1.1-4.1.6-6.1.9-8.3 1.2-16.2-1-24.1-2.9-5.3-1.3-10.4-3-15.6-4.5-1.1-.3-2.1-.8-3.2-1.1-6.9-2.3-11.5-6.6-13.1-13.9-.2-1.1-.7-2.1-1.2-3.6-1 .6-1.8 1.2-2.7 1.8-1.3.9-2.5 2-3.9 2.8-1.5.8-3.1.5-4.5-.6s-1.9-2.5-1.5-4.2c.4-1.4.7-2.7 1.3-4.7-1.8.4-3.1.8-4.5 1-2 .3-4.1.9-6.1.7-3.4-.3-4.9-2.9-4-6.2.6-2.1 1.4-4.2 2.3-6.7h-3.5c-1.9 0-3.9.2-5.7-.1-4.8-.9-5.8-4.9-4.2-7.8 1.4-2.5 2.5-5.1 3.8-7.6-1.6-2.1-3.8-2.2-5.8-2.6-2.5-.5-5.1-.6-7.6-.9-.9-.1-1.9-.2-2.8-.5-1.6-.5-2.9-1.5-2.9-3.4 0-1.6.8-2.7 2.2-3.4 3.8-1.8 7.5-3.5 11.3-5.3 8-3.7 16.4-6.2 24.1-10.6 1.9-1.1 4.1-1.8 6.2-2.5 12.1-3.5 23.9-8.2 36.3-10.4 2.3-.4 4.6-1.3 6.9-2.1 5.1-1.8 10.3-3.5 15.4-5.4 2.3-.8 4.8-1.6 6.9-3.9-2.3-.3-4.2-.7-6.1-.9-11.6-1-22.1-5.1-31.2-12.3-3.5-2.8-6.5-6.2-9.3-9.6-7.2-9-14.7-17.7-20.8-27.6-2.7-4.3-4-9-5.2-13.8-.9-3.3 1.1-5.6 4.6-5.7 1.1-.1 2.2.2 3.3.3.9.1 1.8.2 3.3.5-3.8-3.3-7.1-6.1-10.3-9-4.1-3.6-7.8-7.5-10.8-12.2-.5-.8-1.1-1.6-1.5-2.5-1.8-3.8-.1-6.7 4.2-7 1.5-.1 3.1 0 5.3 0-1-1.7-1.7-2.9-2.4-4.1-3.8-6.6-7.9-13.1-10.6-20.4-.4-1-.9-2.1-1-3.2-.5-3.6 1.3-5.6 4.9-5.2 1.7.2 3.4.7 5.7 1.3-.4-1.2-.7-2-1-2.8-5.6-14.1-6.6-28.5-2.9-43.2 1.7-6.5 3.4-12.9 5.5-19.3 2.4-7.4 7.2-13.1 11.9-18.9 1.3-1.6 2.9-3 4-4.8 5-8 12.2-13.9 19-20.2 4.8-4.5 10.4-8.3 16.6-11.1 6.4-2.9 12.3-6.8 18.4-10.2 6.5-3.7 13.5-6.5 20.5-9.1.7-.3 1.5-.3 2.1-.4 2 1.4 2 3.1 1.3 4.8-.8 1.9-1.8 3.7-2.8 5.5-6.4 11.9-9.8 24.5-10.2 38-.1 3.3-.4 6.7-.7 10 0 .5-.1 1 0 1.4.4 7.2.9 14.3 1.4 21.5 1 14.4 5.1 28.2 7.7 42.4 1 5.4 2.8 10.5 5.6 15.2 5.1 8.8 9.8 18 16.7 25.7 3.3 3.7 6.7 7.3 10.1 10.9.5.5 1.2.9 2.3 1.7 0-3.3.1-6 0-8.7-.3-6.7-.8-13.4.2-20.1.7-4.4.4-8.9.8-13.4 1.2-10.5 3.1-20.8 6.4-30.9 1.7-5.3 3.2-10.7 4.9-16 1.1-3.2 2.5-6.2 3.8-9.2 1.1-2.5 2.5-4.8 3.5-7.3 3.5-8.3 8.7-15.6 13.5-23.1 7.4-11.6 17.1-21 27.8-29.6 1.4-1.1 2.9-2.2 4.5-2.6 3.4-1.1 5.9 1.4 5.4 5-.7 4.9-1.3 9.8-2 15.4 1.4-.7 2.2-1.1 2.9-1.5 1.1-.6 2.1-1.5 3.3-2 3.8-1.5 7.3.5 7.6 4.6.2 2.8-.4 5.7-.6 8.6.1.2.3.6.5.6 5.4 1.2 5.8 4 4.6 9.1-1.1 5.1-2.5 10.2-3.8 15.3-.3 1.4-.5 2.8-.6 4.2-.2 2.1-.4 4.1-.7 6.2-.9 6.5.3 12.8 2.2 18.8 1.5 4.5 3.6 8.9 5.5 13.3.1.2.2.3.2.4 3.7 12.4 9.7 24 12.4 36.7.9 4.1 1.4 8.1.7 12.3-.9 5.8-3.6 10.5-7.3 14.8-4.9 5.8-9.9 11.7-14.8 17.6-1.4 1.7-2.6 3.6-2.8 6.4 4.7-1.6 9.1-3.2 13.1-5.7 6.9-4.3 13.8-8.7 20.7-13 5.3-3.2 11.1-5 17.2-5.3 6.6-.4 12.1 2.8 16.7 7.3 2.5 2.4 4.5 5.4 6.2 8.5 3.8 5.7 6.7 11.6 9.5 17.5zm-8.1.8c-2-4.1-3.6-7.8-5.5-11.3-1.5-3-2.9-6.1-4.9-8.8-4.7-6.2-10.8-9-18.9-6.6-5.6 1.7-10.4 4.7-15.3 7.8-5.5 3.5-10.9 7.4-16.8 10.2-9.2 4.4-18.8 8.2-28.7 10.6-5.7 1.4-11.6 2.6-17.3-.5-.9-.5-2.1-.7-3.2-.9-8.2-1.8-15.8-5-22.6-10.1-8.9-6.8-18.5-12.7-26.2-20.9-4.4-4.7-8.8-9.2-13.1-14-6.8-7.5-11.3-16.6-16.4-25.3-2.7-4.6-4.9-9.4-6-14.6-2.9-13.6-6.5-27-8.1-40.8-1-8.9-1.6-17.8-1.9-26.7-.2-5.9.3-11.8.8-17.7.8-9.3 3.1-18.2 6.5-26.9.5-1.3 1.8-2.6 1.2-4.8-4.1 2.2-7.8 4.2-11.6 6.3-6.6 3.7-13.4 7-19.6 11.1-10.5 7.4-19.8 16.1-27.2 26.7-1.2 1.7-2.7 3.2-4 4.8-4.5 5.4-8.8 10.7-11.2 17.6-3 8.8-5.1 17.8-6.5 26.9-.8 5.1-.6 10.6.1 15.8 1.2 8.4 3.8 16.5 9.3 23.3 1 1.2 1.6 2.8 1.9 4.3.6 3-1.2 5.2-4.2 4.9-1.8-.2-3.6-1.2-5.3-1.9-1.5-.6-2.7-2.2-4.8-1.9.4.9.5 1.5.8 2 4.7 8.9 9.5 17.7 16 25.5l3.9 4.8c1.4 1.8 1.7 3.5.8 4.8-.9 1.4-3.1 2.1-5.2 1.3-2.2-.9-4.3-2.1-6.5-3.1-.9-.4-1.8-.8-2.7-1.1 5 5.5 10.2 10.4 16 14.6 2.6 1.8 5 4 7 6.5 2.7 3.4.9 7.1-3.5 7.3-2 .1-4.1-.4-6.1-.9-1.8-.4-3.5-1.2-5.5-.7-.2 3.4 1.4 5.8 3 8.2 2.9 4.4 6 8.7 9.3 12.8 5.5 6.8 11 13.8 17 20.1 6.6 7 15.4 10.2 24.6 11.8 6.1 1.1 12.3 1.3 18.5 2.3 2.9.5 5.8 1.8 8.6 2.9.7.3 1.1 1.4 1.8 2.1-1.3 1.9-3 2.7-4.8 3.4-3 1.2-6.2 1.9-8.9 3.5-6.7 4-14.1 5.9-21.3 8.6-3.9 1.5-7.9 2.8-11.9 3.8-16 4-31.9 7.9-46.7 15.5-1.1.6-2.4 1-3.5 1.5-4 1.7-7.9 3.3-11.9 5-.7.3-1.4.9-2.3 1.5 10.1 4.1 10.8 5.7 6.8 17.2h2.3c1.8 0 3.5-.3 5.3 0 4.5.7 6.3 3.6 5.2 7.9-.3 1.3-.7 2.6-1.2 4.2 5.3-.5 10.8-3.5 13.8 3.2.8-.1 1.5-.1 2.1-.2 2.8-.5 4.6.5 5.4 3.4.7 2.3 1.8 4.4 2.5 6.7 1.5 5.4 4.8 8.9 10.3 10.2 6.2 1.5 12.3 3.3 18.5 4.8 7.3 1.8 14.6 2.9 22.2 1.9 9.3-1.2 18.8-2 27.9-4.4 4.3-1.1 8.3-3.2 11.8-6.2 2.1-1.8 2.8-3.7 1.6-6.4-1.6-3.8-2.9-7.8-4.6-11.6-2.3-5.3-3.8-10.8-4.3-16.6-1-10.6 1.8-20.6 5-30.5.8-2.4 2.3-4.1 4.9-4.7 2.5-.5 4.9-1.6 7.4-1.7 4.6-.2 9.2-1.2 13.9-.1.9.2 1.9 0 2.9-.1 7.9-1.2 15.9-2 23.6-3.7 20.7-4.5 40.1-11.9 56.4-25.9 3-2.6 5.6-5.6 8.6-8.3 4.8-4.4 8.5-9.5 11.6-15.1 3.6-6.6 8-12.7 13.4-18 3.3-3.2 7-5.5 11.7-5.9 2.6.3 4.9-.2 8-.7zm-63.6-38.4c5.3-5.9 7.4-12.6 5.5-20.3-1.4-5.6-3.1-11.1-4.9-16.5-1.8-5.5-3.9-10.8-5.9-16.2-.8-2.2-1.7-4.5-2.7-6.6-4.4-9.5-7.8-19.3-7.2-30 .4-7.3 1-14.6 3.1-21.7.4-1.3.5-2.7.7-4.3-4.9-1.2-4.9-4.9-4.6-8.5.1-1.9.5-3.7.8-6.2-1.1.8-1.7 1.1-2 1.6-1 1.3-1.7 2.7-2.8 3.9-1.5 1.7-3.3 2.2-5.2 1.5-1.8-.7-2.8-2-2.8-4 0-1.3-.1-2.6-.1-3.8v-13.8c-1.6 1.1-2.9 1.8-4.1 2.9-5.4 5.2-10.8 10.5-14.9 16.8-2.1 3.2-4.1 6.5-6.4 9.6-3.6 5.1-6.7 10.5-9.2 16.2-1.2 2.6-2.6 5.1-3.8 7.7-1.1 2.4-2.3 4.9-3.2 7.4-1.8 5.3-3.2 10.7-5 16-3.8 11.4-6.1 23.2-7.1 35.1-.9 10.6-.9 21.4-1.1 32.1-.1 3 .7 6 .7 9 .1 3 1.7 4.6 3.9 6.2 2.9 2 5.7 4.1 8.5 6.2 6 4.5 12.1 8.9 19.5 11.1 4.4 1.3 8.8 2.9 13.2 4.3 1.3.4 2.9.9 4.1.6 4.2-1 8.2-2.3 12.3-3.5.3-1.4.5-2.3.6-3.3.7-5.1 3-9.4 6.2-13.2 4.8-5.6 9.2-11.1 13.9-16.3z"/>
    <path class="st0" d="M-11 604.7c.5 3.1 2.6 4.9 4.4 6.1 2.9 2 5.7 4.1 8.5 6.2 6.4 4.8 12.4 9 19.7 11.2 2.6.8 5.3 1.7 7.9 2.5 1.8.6 3.5 1.2 5.3 1.8 1 .3 2.3.7 3.4.7.3 0 .6 0 .9-.1 2.4-.6 4.7-1.3 7-2 1.7-.5 3.5-1.1 5.3-1.5l.3-.1.1-.5c.3-1.3.5-2.1.6-3.1.6-4.6 2.6-8.8 6.1-12.9 1.1-1.3 2.2-2.7 3.4-4.1 3.3-4 6.7-8.1 10.2-12 5.6-6.2 7.5-13.2 5.6-20.8-1.2-4.9-2.8-10.2-4.9-16.5-1.3-4-2.8-8-4.3-11.9-.5-1.4-1.1-2.9-1.6-4.3-1-2.7-1.8-4.8-2.7-6.6-3.9-8.4-7.8-18.5-7.2-29.8.4-6.9.9-14.3 3.1-21.6.3-1.1.5-2.2.6-3.5l.2-1.4-.4-.1c-4.4-1.1-4.5-4.3-4.2-8 .1-1.1.2-2.2.4-3.5.1-.8.3-1.7.4-2.7l.1-1.1-.9.7c-.3.2-.6.4-.8.6-.6.4-1.1.7-1.3 1.1-.4.5-.8 1.1-1.1 1.7-.5.8-1 1.5-1.6 2.2-1.4 1.5-2.9 2-4.6 1.4-1.7-.6-2.5-1.8-2.5-3.5 0-.7 0-1.3-.1-2v-16.6l-.8.5c-.5.3-1 .6-1.4.9-1 .6-1.9 1.2-2.7 2-4.8 4.6-10.7 10.3-15 17-.6.9-1.2 1.8-1.7 2.7-1.5 2.3-3 4.7-4.7 6.9-3.6 4.9-6.6 10.3-9.3 16.3-.6 1.4-1.4 2.9-2.1 4.3-.6 1.1-1.2 2.2-1.7 3.4-.3.7-.6 1.3-.9 2-.8 1.8-1.6 3.6-2.3 5.5-.9 2.7-1.7 5.4-2.5 8-.8 2.6-1.6 5.3-2.5 8-3.7 11.1-6.1 22.9-7.1 35.2-.7 8.7-.9 17.6-1 26.3 0 2-.1 3.9-.1 5.9-.1 1.6.2 3.3.3 4.8 0 1.4.2 2.8.2 4.3z"/>
    <path class="st0" d="M135.8 634.4c-.5-1.1-1-2.1-1.5-3.1-1.3-2.8-2.6-5.3-3.9-7.9l-.7-1.4c-1.2-2.5-2.5-5.1-4.2-7.5-5.1-6.8-11.7-9.1-19.4-6.8-5.8 1.8-10.7 4.9-15.4 7.9-1.4.9-2.7 1.7-4 2.6-4.1 2.7-8.3 5.4-12.7 7.5-10.4 5-19.7 8.4-28.6 10.6-6.1 1.5-11.5 2.5-16.9-.5-.9-.5-2.1-.7-3.2-.9h-.1c-8.6-1.9-15.9-5.2-22.4-10-2.5-1.9-5-3.7-7.5-5.5-6.4-4.6-13.1-9.4-18.6-15.3-1.5-1.6-2.9-3.1-4.4-4.6-2.9-3-5.9-6.2-8.7-9.4-5.4-5.9-9.4-13-13.3-19.8-1-1.8-2-3.6-3.1-5.4-3.1-5.2-5-9.8-5.9-14.5-.8-3.6-1.6-7.2-2.4-10.7-2.2-9.8-4.5-19.9-5.7-30-1-8.5-1.6-17.3-1.9-26.7-.2-5.9.3-11.9.8-17.6.8-8.8 2.9-17.6 6.5-26.8.1-.3.3-.6.4-.9.6-1.1 1.3-2.4.7-4.2l-.2-.6-.5.3c-1.9 1.1-3.8 2.1-5.7 3.1-2 1.1-4 2.1-5.9 3.2-1.6.9-3.2 1.7-4.8 2.6-4.9 2.6-10.1 5.4-14.9 8.6-11.3 7.9-20.3 16.6-27.3 26.7-.7 1-1.6 2-2.4 3l-1.5 1.8c-4.1 4.9-8.8 10.5-11.3 17.8-2.9 8.4-5.1 17.5-6.5 27-.7 4.7-.7 10 .1 15.9 1.4 9.6 4.4 17.3 9.4 23.5.8 1 1.5 2.4 1.8 4.1.3 1.4 0 2.5-.7 3.3-.7.7-1.7 1.1-2.9 1-1.3-.1-2.6-.7-3.9-1.3-.4-.2-.8-.4-1.3-.6-.4-.2-.9-.5-1.3-.8-1-.7-2.1-1.4-3.7-1.2l-.6.1.2.6c.3.9.5 1.5.8 2.1 5 9.4 9.6 17.9 16.1 25.6l3.9 4.8c.7.9 1.8 2.7.8 4.2-.7 1.1-2.6 1.8-4.6 1.1-1.3-.5-2.5-1.2-3.8-1.8-.9-.5-1.8-.9-2.8-1.3-.9-.4-1.8-.8-2.7-1.1l-1.8-.6 1.3 1.4c5.4 6 10.7 10.8 16.1 14.7 2.6 1.8 5 4 6.9 6.4 1.1 1.4 1.5 3 .9 4.3-.6 1.3-2.1 2.1-4 2.2-1.9.1-3.8-.3-6-.9l-1.2-.3c-1.4-.4-2.8-.8-4.5-.4l-.4.1v.4c-.2 3.6 1.5 6.1 3.1 8.5 3 4.6 6.2 8.9 9.3 12.8l2.2 2.7c4.7 5.9 9.6 12 14.9 17.4 5.9 6.2 13.8 10 24.9 11.9 3.2.6 6.6.9 9.8 1.2 2.9.3 5.8.6 8.7 1.1 2.4.4 4.8 1.4 7.1 2.3.5.2.9.4 1.4.6.3.1.6.5.8 1 .2.2.3.5.5.7-1.2 1.6-2.7 2.3-4.3 2.9-1 .4-2.1.8-3.1 1.1-2 .7-4 1.3-5.8 2.4-4.8 2.9-10.2 4.7-15.3 6.5-1.9.7-3.9 1.3-5.9 2.1-4 1.6-8 2.8-11.8 3.8l-.9.2c-15.4 3.9-31.3 7.8-45.9 15.3-.6.4-1.4.6-2.1.9-.5.2-.9.4-1.4.6-1.1.5-2.1.9-3.2 1.4-2.8 1.2-5.8 2.4-8.7 3.7-.5.2-1 .6-1.6 1-.3.2-.5.4-.8.6l-.8.5.9.4c9.9 4 10.4 5.4 6.5 16.6l-.2.7h3c.6 0 1.2 0 1.8-.1 1.2-.1 2.3-.1 3.4.1 2.1.3 3.5 1.1 4.3 2.4.8 1.2 1 2.9.5 4.9-.3 1.3-.7 2.5-1.2 4.2l-.2.7.7-.1c1.1-.1 2.3-.3 3.4-.5 4.1-.8 7.7-1.5 9.9 3.4l.2.3h.4c.4 0 .7-.1 1-.1.4 0 .8-.1 1.1-.1 2.6-.5 4.1.5 4.8 3.1.4 1.2.8 2.3 1.3 3.4.4 1.1.9 2.2 1.2 3.3 1.6 5.7 5.2 9.3 10.7 10.6 3.1.7 6.2 1.6 9.2 2.4 3 .8 6.2 1.7 9.3 2.4 4.6 1.1 10.3 2.3 16.4 2.3 1.9 0 3.9-.1 5.9-.4 1.9-.2 3.8-.5 5.7-.7 7.4-.9 15-1.8 22.2-3.7 4.4-1.1 8.4-3.2 12-6.3 2.4-2.1 2.9-4.3 1.7-6.9-.8-1.9-1.6-3.9-2.3-5.8-.7-1.9-1.5-3.9-2.3-5.8-2.4-5.5-3.8-10.9-4.3-16.4-1-10.6 1.9-20.8 5-30.3.8-2.5 2.3-3.8 4.6-4.4 1-.2 1.9-.5 2.9-.8 1.5-.5 3-.9 4.5-.9 1.3-.1 2.6-.2 3.8-.3 3.3-.3 6.6-.6 9.9.2.8.2 1.6.1 2.5 0 .2 0 .4 0 .6-.1 2.4-.4 4.8-.7 7.2-1 5.4-.7 11-1.5 16.4-2.7 24.1-5.2 42-13.5 56.6-26 1.6-1.4 3.1-2.9 4.6-4.4 1.3-1.3 2.6-2.6 4-3.9 4.5-4.1 8.3-9.1 11.7-15.2 3.8-6.9 8.2-12.9 13.3-17.9 3.7-3.6 7.3-5.4 11.4-5.8 1.4-.1 2.7-.3 4.2-.6 1.1-.2 2.3-.4 3.7-.5l.7-.1-.7-.9zm-19-4.3c-2.6 1.8-5.5 2.6-9.4 2.6-2.8.2-5.4-.9-7.4-3.2-1.4-1.7-1.8-3.4-1.3-5.3.9-3 3.8-6.2 7.1-7.8 1.3-.6 3.1-1.2 5.2-1.2 1.2 0 2.5.2 3.8.8 3.2 1.3 4.8 3.3 5.1 6.2.4 3.4-.6 6.1-3.1 7.9z"/>
    <path id="XMLID_753_" d="M120.5 622.1c.3 3.3-.5 6.4-3.4 8.4-2.7 1.9-5.7 2.7-9.7 2.7-2.7.2-5.6-.8-7.8-3.4-1.4-1.7-2-3.5-1.4-5.8 1.6-5.5 9.5-11.6 16.8-8.6 3.1 1.3 5.2 3.3 5.5 6.7z"/>
</svg>
