<svg id="Woman" xmlns="http://www.w3.org/2000/svg" viewBox="-202 419.4 386 386.6">
    <style>
        .st0{fill:#fff}
    </style>
    <path id="XMLID_429_" d="M100 503c.2 8.3 1.4 16.5.9 24.8-.1 1.8 0 3.6 0 5.4 0 5.7-1.1 11.3-2.1 16.9-.7 3.8-1.2 7.6-1.9 11.4-.9 5.1-1.8 10.2-2.9 15.2-1.4 6.4-5.3 11.5-9.1 16.7-1.8 2.5-3.5 5.1-5.3 7.7-.4.6-.7 1.2-1.1 1.7-3.5 3.6-6.4 7.9-11 10.4-.9.5-1.5 1.3-2.2 2.1-2.8 3.1-5.6 6.4-8.5 9.4-2.1 2.2-4.6 3.7-7.8 3.4-.6-.1-1.2.2-1.7.5-6.5 4.6-14.1 6.9-21.3 10-3.1 1.3-6.3 2.6-9.5 3.4-4.5 1.1-9.2 1.8-13.8 2.7-.9.2-2.1.4-3.1.6v56.5h4.2c18.2 0 36.7-.1 54.9-.1 3.6 0 4.3.8 4.5 4.5 0 1.3 0 2.6.1 3.9.2 2 .5 3.9.7 5.9.1.7.1 1.4.2 2.1.2 2.6.5 5.1.7 7.7.1.5.1 1 .1 1.6.1 2.8-.5 3.4-3.2 3.5-6.7.1-13.3.2-19.9.2-11.4 0-22.7.1-34.1.1h-7v3c0 22.2-.1 44.4-.1 66.6 0 5.5-.2 5.5-5.6 5.5h-18.7c-2.9 0-4-1-4-3.9-.1-12.4-.5-24.9 0-37.3.4-10.3.1-20.5.3-30.7 0-.7-.1-1.2-.2-2.2h-2.9c-11.4 0-22.8-.2-34.2-.2l-21.5-.3c-2 0-3.8-.3-5.3-1.7-.5-.5-.8-1.3-.9-2-.1-1.8-.1-3.6 0-5.4.1-2.1.4-4.1.5-6.2.1-1.4.2-2.7.2-4.1 0-2.5-.1-5 0-7.5.1-2.4 1.5-3.3 3.9-2.6.8.2 1.7.4 2.5.4 18.2 0 36.3-.1 54.4-.1h3.1c.1-1.1.2-2.1.2-3.1-.1-6.6-.3-13.1-.3-19.7 0-9.6.1-19.2.1-28.8 0-.9.1-1.8-.1-2.6-.2-1.1-.6-2.2-2-2.3-4.6-.3-8.6-2.2-12.8-3.8-4-1.5-8.1-3-12.2-4.3-5.4-1.8-10.3-4.4-14.7-8-6.3-5.1-11.7-11-16.7-17.3-.6-.8-1.3-1.6-2.1-2.3-4.1-3.9-7.5-8.3-10.5-13.1-3.7-5.6-7.2-11.3-10.6-17.2-1.3-2.3-2.1-4.9-3-7.4-1.3-4-2.4-8.1-2.9-12.3-.3-2.3-1.1-4.5-1.5-6.8-.6-4-1-8-1.5-12-.2-2-.8-3.9-.7-5.9.1-3.8.3-7.6 1-11.3.9-5.3 2.2-10.6 3.6-15.9.6-2.5 1.7-4.9 2.7-7.3 2-4.8 4-9.6 6.1-14.2 2-4.2 4.3-8.2 7.6-11.6 1.2-1.3 2.3-2.8 3.2-4.3 3.6-5.7 8.2-10.4 12.7-15.4 1.5-1.7 3-3.6 4.5-5.4.9-1.1 1.9-2.2 2.9-3.3 1-1 2.2-1.9 1.9-3.7-.1-.6.5-1.4 1-2 .4-.4 1-.8 1.5-1 4.6-2 8.7-4.8 13-7.4 4.6-2.7 9.5-4.8 14.4-7 2.3-1.1 4.8-1.8 7.3-2.7 3.9-1.3 7.8-1.8 11.9-1.9 5.4-.1 10.8-1.1 16.2-1.3 4.6-.2 9.3-.6 13.9.6 2 .5 4.1.6 6.1.8 8.2.8 16.3 1.7 23.7 5.7 5.6 3 11.5 5.7 16.9 9 4.1 2.5 7.9 5.6 11.6 8.7 7.1 6 13.4 12.6 18.2 20.7 1.6 2.6 3.5 4.9 5.5 7.2 3.8 4.3 5.9 9.5 7.5 14.9 1.4 4.8 2.6 9.7 3.9 14.5.1.1.2.5.2 1zm-8.2 46.6c1.2-6.5 2.4-13 2.2-19.7-.1-3.4.1-6.9-.1-10.4-.2-5.3-.6-10.6-.9-16 0-.4-.2-.8-.3-1.3-1.2-4.6-2.3-9.2-3.6-13.8-1-3.8-2.4-7.5-4.8-10.6-4.2-5.4-8.4-10.8-12.1-16.5-1.3-2-3.1-3.7-4.7-5.5-1.5-1.6-3.1-3.2-4.8-4.7-4.2-3.8-8.4-7.8-13.4-10.6-5.7-3.2-11.5-6.2-17.4-9.2-4.2-2.1-8.7-3.4-13.3-3.8-3.7-.4-7.4-.6-11-.9-.5 0-1-.3-1.5-.4-4.8-1.3-9.7-1.6-14.6-.4-.9.2-1.9.2-2.8.2-5.3.2-10.7.5-16 .7-.2 0-.5.1-.8.1-5.3 1.3-10.5 2.9-15.4 5.3-6.4 3.2-12.6 6.8-18.8 10.2-.2.1-.4.3-.6.5-2.2 2.2-4.4 4.3-6.5 6.6-2.8 3.2-5.3 6.6-8.2 9.7-4.6 5-9 10.2-12.8 15.9-1.6 2.4-3.6 4.6-5.3 7-3.4 4.6-5.4 9.8-7.5 15-1.5 3.8-3.4 7.4-4.6 11.2-2.5 7.9-3.7 16.1-4.7 24.3-.2 1.3 0 2.6.1 3.9l.6 7.2c.1.9.1 1.7.2 2.6 1.2 6 2.2 12 3.6 18s3.2 11.8 6.7 16.9c2.3 3.3 4.4 6.6 6.4 10 3.1 5.2 6.6 10.1 11 14.3 1.1 1 2 2.1 2.9 3.3 4.7 6 9.9 11.6 15.8 16.4 3.7 3 7.8 5.1 12.2 6.5 4.1 1.3 8.1 2.9 12.2 4.3 3.1 1.1 6.2 2.2 9.3 3.1 1.8.5 3.7.7 5.6.8 4.4.2 8.8.3 13.2.2 2.6 0 5.3-.5 7.9-.7.9-.1 1.9-.1 2.8-.3 3.4-.6 6.8-1.3 10.1-1.9 5.3-1 10.5-2 15.3-4.6 2-1.1 4.2-2.1 6.4-2.7 4.1-1.2 7.8-3.3 11.3-5.6 1.7-1 3.5-1.8 4.6-3.6.3-.5 1.5-.6 2.3-.5.6 0 1.2.6 2 1.1 3.6-3.1 6.6-6.5 9.4-10.1.9-1.2 2.1-2.4 3.4-3.1 4.1-2.3 6.9-5.9 9.8-9.4 2.4-2.9 4.4-6.2 6.6-9.3 3.1-4.5 6.6-8.9 7.9-14.5 1-4.6 1.8-9.3 2.6-13.9.9-3.6 1.4-7.5 2.1-11.3zM59.2 725.9v-1.8c-.3-5.6-.6-11.2-1-16.8 0-.1-.2-.4-.5-.4H.5v19h58.7zm-65.6 74v-154l-15 .6v153.4h15zm-21-74v-18h-59.3c0 1-.1 1.4-.1 2.1-.1 2.9 0 5.6-.7 8.5-.6 2.5-.4 5.4-.2 7.4h60.3z"/>
    <path id="XMLID_426_" d="M79.7 506c1.2 7.6 3.6 15 2.7 22.8v2.6c.3 7.2-1.2 14.2-3.2 21.1-1.1 3.7-2.1 7.5-2.9 11.3-.9 4.2-2.6 8.1-4.5 11.8-2.9 5.8-6.2 11.4-10.7 16.1-2.6 2.7-5.5 5.3-8.4 7.7-3.8 3.1-7.7 6.1-11.6 9.1-4.7 3.7-10.2 5.7-15.6 8.1-2.3 1-4.7 1.8-6.9 2.9-3.4 1.6-7 1.9-10.5 2.4-5.1.8-10.2 1.5-15.3 2-4.5.5-8.9.7-13.4-.3-3-.7-6.1-1.2-9.2-1.7-5.1-.9-10.1-2.3-15-3.9-6.1-2-11.3-5.4-16.3-9.2-8.2-6.4-14.9-14.1-20.7-22.7-3.5-5.2-5.9-10.9-8.3-16.6-2.6-6.2-4.3-12.6-5.5-19.1-1-5.4-1.2-10.9-2.2-16.3-.9-4.6.2-8.8.8-13.2 1-7.5 3.6-14.4 6.6-21.2 1.4-3.2 2.9-6.3 4.7-9.2 1.3-2.2 3.2-4 4.8-6 .3-.4.8-.7 1-1.2 2.5-4.6 6-8.4 9.7-12 2.7-2.7 5-5.7 7.7-8.4 2.8-2.9 5.4-6.1 9.1-7.9 3.6-1.8 7-4.2 10.8-5.5 6.1-2.1 12.2-4.2 18.8-4.4 2.3-.1 4.5-1 6.8-1.5 4.6-.9 9.2-.7 13.9-.2 1.3.1 2.6.4 3.9.4 6.5-.2 12.6 1.2 18.7 3.5 2.8 1.1 5.7 2 8.6 2.8 7.1 1.9 13.4 5.4 19.6 9.2l7.2 4.5c4.6 2.9 7.9 7.2 11.4 11.2 4.2 4.6 6.7 10.1 9 15.9 1.9 4.7 3.6 9.8 4.4 15.1zm-7.8 44.4c2.1-7.1 3.5-14.2 3.4-21.7-.3-3.8-.6-7.7-1-11.6-.3-2.3-1.1-4.5-1.4-6.8-.8-6.9-2.8-13.5-5.6-19.8-1.3-2.9-2.6-5.8-4.4-8.4-2.1-3.1-4.6-6-7.3-8.7-2.3-2.3-4.9-4.4-7.6-6.2-3.5-2.3-7.2-4.4-11-6.3-3.4-1.7-6.9-3.1-10.5-4.4-3.4-1.2-6.9-2.2-10.3-3.4-5.1-1.8-10.2-3.1-15.7-2.9-2.1 0-4.1 0-6.2-.1-.9 0-1.9-.4-2.8-.3-5.4.6-10.7 1.7-16.1 1.8-4.4.1-8.5 1.2-12.6 2.5-8.4 2.7-15.6 7.2-21.1 14.2-1.7 2.2-3.7 4.1-5.6 6.1-3.9 3.8-7.6 7.7-10.2 12.6-.3.7-1 1.1-1.5 1.7-1.2 1.3-2.5 2.6-3.5 4.1-1.2 1.8-2.2 3.7-3.1 5.7-3.5 7.4-6.5 15-7.6 23.2-.5 4-1 7.9-.6 12 .4 5.2 1.3 10.2 2.1 15.3 1 6.6 2.8 13 5.5 19.1 2.3 5.3 4.5 10.6 7.9 15.4 5.5 7.8 11.8 14.7 19.3 20.7 6.8 5.4 14.6 8.1 22.7 10.1 4.1 1 8.3 1.6 12.5 2.3 2.4.4 4.8.8 7.2.7 3.2-.1 6.5-.7 9.7-1.1 2.9-.4 5.8-1 8.7-1.2 4-.2 7.9-.7 11.5-2.5 1.8-.9 3.9-1.4 5.8-2.3 3.9-1.8 8-3.3 11.6-5.7 5-3.3 9.6-7.2 14.3-11 2.5-2 4.8-4.2 7-6.5 4-4.2 6.8-9.1 9.3-14.2 1.6-3.4 2.9-7 4-10.6 1.3-3.9 2-7.9 3.2-11.8z"/>
    <path class="st0" d="M-87.2 707.8c-.1 1.1-.1 1.5-.1 2.1v1.7c0 2.3-.1 4.4-.6 6.7-.8 3.2-.4 6.6-.2 7.6l.1.4h61.2v-19h-60.3l-.1.5z"/>
    <path class="st0" d="M58.8 707.3c0-.4-.5-.9-1-.9H.1v20h59.6v-2.3l-.9-16.8z"/>
    <path class="st0" d="M-21.9 800.4h16v-155l-16 .6z"/>
    <path class="st0" d="M94.5 524.7v-5.2c-.1-3.5-.4-7-.6-10.5-.1-1.8-.2-3.7-.3-5.5 0-.3-.1-.6-.2-.9 0-.2-.1-.3-.1-.5-.4-1.5-.8-3.1-1.2-4.6-.8-3-1.6-6.1-2.4-9.2-.9-3.5-2.2-7.5-4.9-10.8-4-5.1-8.2-10.7-12.1-16.5-1-1.5-2.2-2.8-3.4-4.1-.5-.5-.9-1-1.3-1.5-1.6-1.7-3.4-3.4-4.8-4.7l-1.2-1.1c-3.8-3.5-7.7-7-12.3-9.6-5.9-3.3-11.8-6.4-17.4-9.2-4.3-2.2-8.8-3.4-13.5-3.9l-.6-.1c-3.5-.3-7-.6-10.4-.9-.2 0-.5-.1-.7-.2-.2-.1-.4-.2-.6-.2-5.2-1.4-10.2-1.5-14.8-.4-.8.2-1.8.2-2.7.2-2.7.1-5.3.2-8 .4-2.7.1-5.3.2-8 .3-.1 0-.3 0-.4.1h-.5c-6.3 1.5-11.2 3.2-15.5 5.3-4.6 2.3-9.2 4.8-13.6 7.3-1.7 1-3.5 1.9-5.2 2.9-.1.1-.6.3-.8.6l-1.6 1.6c-1.6 1.6-3.3 3.2-4.9 5-1.2 1.3-2.3 2.7-3.4 4.1-1.5 1.9-3.1 3.8-4.8 5.6-5.5 6-9.5 10.9-12.8 16-.9 1.3-1.9 2.6-2.9 3.8-.8 1-1.7 2.1-2.4 3.2-3.2 4.4-5.3 9.4-7.2 14.2l-.4.9c-.6 1.4-1.2 2.9-1.8 4.3-1 2.3-2 4.6-2.8 7-2.6 8.3-3.8 16.9-4.7 24.4-.2 1.1-.1 2.2 0 3.2 0 .3 0 .5.1.8l.6 7.2c0 .4.1.9.1 1.3s.1.9.1 1.4l1.2 6c.7 3.9 1.5 8 2.4 12 1.3 5.4 3 11.6 6.8 17.1 2.2 3.2 4.3 6.5 6.4 10 3.6 6.1 7.1 10.6 11.1 14.4 1 .9 1.9 2 2.8 3.1l.2.2c5.2 6.6 10.4 12 15.9 16.5 3.6 2.9 7.7 5.1 12.4 6.6 2.4.8 4.8 1.6 7.1 2.5l5.1 1.8c3 1.1 6.2 2.2 9.3 3.1 1.6.4 3.3.7 5.7.8 3.6.2 6.7.2 9.7.2h3.6c1.7 0 3.4-.2 5-.4l3-.3c.3 0 .6-.1.9-.1.6 0 1.3-.1 1.9-.2 1.7-.3 3.4-.6 5.1-1l5.1-.9c5.2-1 10.5-2 15.4-4.7 2.2-1.2 4.4-2.1 6.3-2.7 4.3-1.3 8.2-3.5 11.5-5.5.3-.2.5-.3.8-.5 1.5-.8 3-1.7 4-3.3.1-.2.9-.4 1.8-.3.3.1.8.3 1.2.7.2.1.4.2.6.4l.3.2.3-.2c3.2-2.8 6.2-6 9.5-10.2 1-1.3 2.1-2.4 3.2-3 3.9-2.2 6.7-5.5 9.3-8.8l.6-.7c1.6-2 3.1-4.1 4.5-6.2.7-1.1 1.4-2.1 2.2-3.1.4-.6.8-1.2 1.3-1.8 2.7-3.9 5.6-7.9 6.7-12.9.9-4.3 1.7-8.7 2.4-13l.2-1c.4-1.9.6-3.8.9-5.7.3-1.9.5-3.8.9-5.7l.4-2.4c.9-5.6 1.8-11.5 1.6-17.4-.3-1.7-.3-3.4-.3-5.1zm-15.8 27.6c-1.1 3.7-2 7.6-2.9 11.3-.8 3.6-2.1 7.2-4.5 11.7-3.3 6.4-6.4 11.6-10.6 16-2.3 2.4-5.2 5-8.4 7.7-3.8 3.1-7.8 6.1-11.6 9.1s-8.1 4.8-12.6 6.8c-1 .4-1.9.8-2.9 1.3-.9.4-1.8.7-2.7 1.1-1.4.6-2.9 1.1-4.2 1.8-2.8 1.3-5.8 1.7-8.8 2.1-.5.1-1 .1-1.5.2-5.7.9-10.7 1.5-15.3 2-4.1.5-8.6.7-13.2-.3-3-.7-6.2-1.2-9.2-1.7-4.5-.8-9.3-2-14.9-3.9-6.4-2.1-11.8-5.8-16.1-9.1-7.6-5.9-14.4-13.3-20.6-22.6-3.4-4.9-5.7-10.6-8-16l-.2-.5c-2.4-5.6-4.1-11.8-5.5-19-.5-2.7-.8-5.4-1.1-8.1-.3-2.7-.6-5.5-1.1-8.2-.7-3.6-.2-6.9.4-10.3.1-.9.3-1.8.4-2.7 1-7.6 3.7-14.6 6.5-21.1 1.7-3.8 3.1-6.6 4.7-9.1.8-1.4 2-2.7 3.1-4 .6-.7 1.1-1.3 1.7-2 .1-.1.2-.2.3-.4.3-.3.6-.5.7-.9 2.6-4.7 6.3-8.7 9.6-11.9 1.4-1.4 2.6-2.8 3.9-4.2 1.2-1.4 2.5-2.8 3.8-4.2.5-.5.9-1 1.4-1.5 2.2-2.4 4.6-4.9 7.6-6.3 1.3-.6 2.5-1.4 3.8-2 2.2-1.3 4.6-2.6 7-3.4 6.1-2.2 12.1-4.2 18.7-4.4 1.6-.1 3.1-.5 4.6-.9.8-.2 1.5-.4 2.3-.6 2.3-.5 4.6-.6 6.8-.6 2.4 0 4.8.2 6.9.4.5 0 1 .1 1.5.2.8.1 1.6.2 2.4.2 5.9-.2 11.8.9 18.5 3.5 2.5 1 5.3 1.9 8.7 2.8 7.2 1.9 13.6 5.5 19.5 9l7.2 4.5c3.8 2.4 6.8 5.9 9.7 9.2.5.6 1.1 1.3 1.6 1.9 4.3 4.8 6.9 10.6 8.9 15.7 2.4 5.9 3.8 10.7 4.5 15.2.3 2 .7 4.1 1.1 6.1 1.1 5.4 2.2 10.9 1.6 16.6v2.5c0 7.7-1.8 15.3-3.5 21z"/>
</svg>
