<svg id="Fist" xmlns="http://www.w3.org/2000/svg" viewBox="-166 383.7 458 458.3">
    <style>
        .st0{fill:#fff}
    </style>
    <path class="st0" d="M83.3 486.5c-4.6-4.3-10.4-6.3-15.9-8.2-2.9-1-6-2.1-8.8-3.4-7.2-3.5-12.3.2-16.9 3.4-3.1 2.2-4.6 4.4-4.7 6.7-.1 2.3 1.4 4.7 4.4 7.3 1.3 1.1 2.7 2.2 4.3 2.5 3.6.8 7.3 1.6 10.8 2.3l7.2 1.5c1.5.3 6.4.7 10.6.7 2.6 0 5-.2 6.1-.6 3.2-1.4 5.8-3.3 7.1-5.5.7-1.6-3.2-5.7-4.2-6.7z"/>
    <path id="XMLID_516_" d="M206.9 524.3c.5 14 1.5 28 .6 41.9-.9 14.6-3.7 29-5.8 43.5-.6 4.2-1.7 8.5-2.9 12.6-4.5 15.1-9.1 30.2-14 45.2-1.1 3.4-3.3 6.7-5.8 9.3-4.7 4.8-6.3 10.2-6.1 16.9.7 34.4 1 68.7 1.4 103 .1 7 .1 14-.6 20.9-.2 2.4-2.1 5.4-4.2 6.6-18.5 10.6-38.8 16.4-59.7 17.6-14.7.9-29.9-1.9-44.5-4.9-16.1-3.3-31.7-8.5-47.4-13.4-8.8-2.8-9.1-3.2-8.9-12.9.4-20.9-.5-41.9-.4-62.8.1-18.5.8-37.1 1.1-55.6.1-8.6 0-17.3-.4-25.9-.1-2.1-1.7-4.5-3.4-5.9-6.7-5.4-14-10.1-20.5-15.7-13.5-11.7-27.4-23.1-39.8-35.9-10.8-11.1-19.8-24.4-23.9-39.4-4.4-15.7-4.6-32.3 1.1-48.1 7-19.5 13.9-39.1 21.9-58.2 3.9-9.3 10.3-17.7 20.4-21.8 3-1.2 3.7-2.9 3.6-6.2-.1-7.8-.2-15.7 1.1-23.3 1.6-9.5 7.3-16.6 16.2-20.7 4.9-2.3 9.7-4.9 14.9-6.3 10.2-2.8 20.6 1.8 26.3 11 1.6 2.5 3 5.2 5 8.8 7.5-16 20.1-21.2 36.3-21 16.8.3 27.2 8.3 32.2 24.5 2-1.6 3.4-2.6 4.7-3.8 8-7 17.3-8.8 27.5-6.5 1.9.4 3.8.7 5.6 1.4 15.4 6.3 23.2 11.6 23.3 32 0 4.4-1 10.2-1 14.7.5-.1 2.1-1.6 2.6-1.9 5.5-3.2 10.7-5.7 17.5-2.7 8 3.5 14.8 7.9 17.2 16.7 1.8 6.6 2.9 13.3 3.9 20 1.2 8.3 2.1 16.7 3.1 25.1.4 7.3 1.5 14.2 1.8 21.2zm-7.7 28.6c.5-5.8-.8-11.7-1.1-17.6-.6-8.8-1-17.5-1.6-26.3-.1-.7-.5-1.4-1.3-3.2-1.5 2.8-2.3 4.8-3.5 6.6-7.3 11.6-14.2 23.3-29.4 26.9-14.5 3.4-27.1 1.7-32.2-11.4-.1-.4-.7-.5-1.6-1.2-6 8.2-14.4 12.3-24.1 12.9-10.2.7-18.5-4-24.5-12-4.2 2.3-7.8 4.3-11.2 6.2 6.9 7.6 13.9 14.6 20.1 22.2 6.2 7.7 11.9 15.8 17.2 24.2 3.3 5.2 5.8 11 8.1 16.8.6 1.5-5.9 4.3-8 3.3-.5-.3-.6-1.4-1-2.1-3.1-5.9-6-12-9.5-17.6-3.2-5.1-7.3-9.7-10.6-14.8-7.6-11.8-17.1-21.8-28.4-30.2-3.1-2.3-5.9-4.9-8.8-7.4-6.7-5.9-13.6-11.8-23.4-9-5.4 1.5-10.4 1.4-15.4-.6-3.3-1.3-5.3 0-7.5 2.2-2.1 2.1-4.6 4.1-7.3 5.1-5 2-10.3 3.5-15.6 4.6-4.3 1-8.8 1.4-13.2 1.5-1.4 0-1.9-6.4-.5-6.8 7.8-2.2 15.8-3.8 23.5-6.1 2.8-.8 5.1-2.9 8.6-4.9-5.8-3.4-10.3-5.8-14.6-8.6-9.6-6.3-16.7-14.9-20.6-25.7-.6-1.6.5-5.2 1.9-5.9 1.5-.8 4.3.5 6.3 1.2.9.3 1.3 1.7 1.9 2.7 6.2 9.2 13.1 17.7 23.2 23.2 9.3 5 17.8 12.3 29.6 9.7 8.1-1.8 17.9-5.9 25.6-7.6-8.7-3.1-15-6.7-18.8-12.6-4.9-7.6.3-14.2 7.1-18.8-.6-.7-.8-1.3-1.1-1.5-17.6-8.3-35.2-16.7-52.9-24.9-1.9-.9-4.4-.7-6.6-.4-14.6 2.5-22.2 13.3-28.4 25.1-4 7.6-6.3 16-9.3 24.1-7.4 19.9-15 39.9-12.6 61.8.6 5.3 1.6 10.9 3.7 15.7 6.7 14.8 15.2 28.3 27.8 39 11.3 9.6 21.4 21 33.7 29.1 16.6 10.9 28.5 26.5 43.8 38.5 1.2.9-3.2 6.2-4.6 5.2-4.6-3.2-8.8-7-13.7-11-.3 1.8-.6 2.9-.6 3.9-.4 16.9-1.1 33.8-.9 50.7.3 28.1 1.2 56.2 1.8 84.4.1 3.1 1.2 4.6 4.2 5.4 8.6 2.4 17.1 5.4 25.8 7.4 23.9 5.6 47.6 12.3 72.6 7 14.2-3.1 28.3-6.5 41-14 .8-.5 1.6-1.6 1.6-2.5.4-8.4 1-16.9.9-25.3-.3-22.8-.9-45.7-1.2-68.5-.2-11 .1-22.1-.1-33.1-.1-5.2 1.5-9.4 4.9-13.1 6.6-6.9 10.6-15.2 12.9-24.3 4.1-15.7 8.8-31.4 11.8-47.4 3-16.5 4.5-33.4 6.1-50.2zm-8.2-75.2c-.5-4-1.1-11-2.3-17.4-1.1-6.3-10.2-13.9-15.2-12.1-7.4 2.7-14.4 6.4-17.5 14.9-5.9 16-12.2 31.8-18.7 47.6-2 4.8-3.7 9 .5 13.4 2.5 2.6 4.3 6.9 7.2 7.8 8.3 2.5 17.2.9 23.5-4.5 14.3-12.4 21.9-28 22.5-49.7zm-38.9-45.2c0-1.8.2-3.5 0-5.3-.7-5.6-1.2-11.6-6.6-14.7-5.2-3-10.8-5.7-16.6-6.9-6.4-1.3-13.2-.4-18.2 4.8-4.2 4.4-7.8 7.4-8.3 10.8s-4.1 42.5-6.7 60.6c-.4 2.9-.1 6-.4 8.9-.3 3-.8 6-1.6 8.9-1.1 4.2-3.9 7.4-5.7 13-1.8 5.6-1.5 8.9.5 11.6 4.2 5.6 9.7 7.9 16.7 6.9 12.2-1.6 17.7-10.4 22.1-20.3 3.5-7.7 6.6-15.6 10.2-23.2 8.1-17.6 13.5-35.8 14.6-55.1zM91 456.7c2.3-15 5.3-29.8.9-45-3.9-13.4-10-19.8-23.9-20.4-13.1-.6-22.3 5-29.3 16.2-3.6 5.8-4.5 10.9-3.4 17.4 1.4 8.8 1.3 17.8 1.7 26.7.1 2.6-.7 5.2-1.5 9.1 7.2 2.3 14.3 5.3 21.7 6.7 8.7 1.6 16.5 4.5 23.6 9.6 5.1 3.7 6.9 2.7 7.8-3.7.8-5.6 1.6-11.1 2.4-16.6zM87 493c.6-.9-2.2-4.3-4-6.1-6.9-6.5-16.4-7.6-24.6-11.6-6.7-3.3-11.5-.2-16.4 3.4-5.9 4.3-5.9 8.4-.2 13.2 1.2 1 2.6 2.1 4.1 2.4 6 1.4 12 2.5 18 3.8 2.7.5 13.8 1.2 16.4.1 2.5-1.1 5.3-2.9 6.7-5.2zm-23.7 36.5c8.8-.8 20.8-16.5 21.1-25.2-7.9.4-15.2-.6-23.5 3-6.3 2.8-16.6 5.5-23.4 7 2 2.3 11 7.2 13.5 8.7 3.1 2 9 6.8 12.3 6.5zm-35.8-73.6c.3-3 .5-5.7.4-7.7-.4-7-.5-13.3-1.3-20.2-.7-6.2-1.4-12.4-2.9-18.4-3.5-13.9-12-20.1-23.8-16.4-10.5 3.3-20.1 8.9-22.2 21.3-.9 5-.6 10.2-1.2 15.2-.6 4.9 2.4 5.8 7.2 7.4s20 8.2 28.2 11.9c4.8 2.2 9.7 4.3 15.6 6.9z"/>
    <path class="st0" d="M60.6 506.9c-5.9 2.6-15.9 5.4-23.2 7l-.8.2.6.6c1.7 1.9 7.9 5.5 11.6 7.6.9.5 1.6.9 2 1.2.6.4 1.4.9 2.2 1.5 3.2 2.2 7.2 5 9.9 5h.4c4.1-.4 9.4-4 14.1-9.8 4.5-5.5 7.3-11.6 7.5-15.9v-.5h-.5c-1.8.1-3.6.1-5.3.1-6.3.1-12 .1-18.5 3z"/>
    <path class="st0" d="M-16.7 437.5l.2.1c4.9 1.6 20.5 8.4 28.1 11.8 2.8 1.2 5.6 2.4 8.5 3.7 2.3 1 4.7 2 7.3 3.2l.6.3.1-.7c.3-2.6.5-5.6.4-7.8-.1-2-.2-3.9-.3-5.8-.2-4.9-.4-9.4-1-14.4-.7-6.1-1.4-12.4-2.9-18.5-1.9-7.7-5.5-13.2-10.3-15.9-4-2.2-8.8-2.5-14.1-.8-8.6 2.7-20.2 7.9-22.5 21.7-.6 3.1-.7 6.3-.8 9.3-.1 1.9-.2 4-.4 5.9-.8 5.3 2.3 6.3 7.1 7.9z"/>
    <path class="st0" d="M136.8 510.6c-1.9 4.7-3.7 9.2.7 13.8.9.9 1.6 2 2.4 3.1 1.5 2.1 3 4.2 5 4.8 2.6.8 5.3 1.2 7.9 1.2 6 0 11.6-2 16.1-5.9 14.9-12.9 22.1-28.8 22.6-50-.1-1-.3-2.3-.4-3.6-.4-4-1-9-1.9-13.8-.8-4.4-5-8.9-8.8-11.1-2.7-1.6-5.2-2-7.1-1.4-7.3 2.7-14.6 6.4-17.8 15.2-5.2 14.1-11.1 29.3-18.7 47.7z"/>
    <path class="st0" d="M90.8 505.1c-1.1 2.1-2.3 4.4-3.2 7.4-1.8 5.5-1.6 9.1.6 12.1 3.7 4.9 8.3 7.3 14 7.3 1 0 2.1-.1 3.2-.2 11.8-1.5 17.5-9.3 22.5-20.6 1.5-3.4 3-6.8 4.4-10.2 1.8-4.3 3.7-8.8 5.8-13 8.7-18.8 13.5-36.9 14.6-55.3v-1.8c0-1.2.1-2.4 0-3.6l-.1-.8c-.6-5.3-1.4-11.3-6.7-14.3-4.1-2.4-10.3-5.6-16.8-6.9-7.5-1.5-14.1.2-18.7 4.9-.6.6-1.2 1.3-1.8 1.8-3.4 3.4-6.2 6.2-6.6 9.2-.2 1.1-.6 5.6-1.2 11.8-1.4 13.6-3.7 36.3-5.5 48.8-.2 1.6-.2 3.3-.2 4.9 0 1.3 0 2.7-.2 4.1-.3 3.2-.8 6.1-1.6 8.8-.6 2-1.6 3.7-2.5 5.6z"/>
    <path class="st0" d="M36.3 444.8c.1 2.2.1 4.5.2 6.7.1 1.9-.4 3.9-.9 6.3-.2.8-.4 1.7-.6 2.7l-.1.4.4.1c2.2.7 4.4 1.5 6.5 2.2 4.9 1.7 10 3.6 15.2 4.5 9.3 1.7 16.7 4.7 23.4 9.5 2.1 1.5 3.6 2.2 4.8 2.2.4 0 .7-.1 1-.2 1.4-.6 2.2-2.4 2.7-6.1.3-1.9.6-3.9.8-5.8.5-3.5 1-7.2 1.6-10.8.2-1.3.4-2.7.6-4 2.1-13.4 4.3-27.3.3-41.2-4.2-14.3-11-20.1-24.4-20.7-12.9-.6-22.4 4.6-29.7 16.4-3.6 5.8-4.6 11-3.5 17.7 1.3 6.8 1.5 13.6 1.7 20.1z"/>
    <path class="st0" d="M199.2 541.4c-.2-2-.5-4.1-.6-6.1-.3-4.3-.5-8.7-.8-12.9-.2-4.3-.5-8.8-.8-13.3-.1-.6-.3-1.1-.8-2.1-.2-.3-.3-.7-.5-1.2l-.4-.9-.5.9c-.6 1.1-1 2-1.5 2.9-.7 1.4-1.3 2.6-2 3.7l-.8 1.3c-7.1 11.3-13.8 22.1-28.3 25.4-16.6 3.9-27.2.2-31.6-11.1-.1-.3-.4-.5-.8-.8-.2-.2-.6-.4-.9-.6l-.4-.3-.3.4c-5.7 7.8-13.7 12.1-23.7 12.7-9.5.6-17.8-3.4-24.1-11.8l-.3-.3-.4.2c-4.2 2.3-7.8 4.3-11.2 6.2l-.5.3.4.5c2.3 2.5 4.6 4.9 6.8 7.3 4.7 5 9.1 9.8 13.3 14.9 5.9 7.3 11.7 15.5 17.2 24.2 3.3 5.3 5.8 11.2 8.1 16.7 0 0 0 .3-.4.6-1.5 1.4-5.6 2.8-6.9 2.1-.2-.1-.3-.5-.4-.9-.1-.3-.2-.7-.4-1-.8-1.5-1.6-3.1-2.4-4.6-2.2-4.3-4.5-8.8-7.1-13-1.7-2.7-3.6-5.2-5.5-7.7-1.7-2.3-3.5-4.6-5.1-7.1-7.5-11.6-17.1-21.8-28.5-30.3-2.3-1.7-4.5-3.6-6.6-5.5-.7-.6-1.4-1.3-2.2-1.9-6.4-5.6-13.7-12-23.9-9.1-5.4 1.5-10.3 1.3-15.1-.6-3.8-1.5-6 .3-8 2.3-2.4 2.4-4.8 4.2-7.1 5.1-4.7 1.9-9.9 3.4-15.5 4.6-4.4.9-8.8 1.4-13.1 1.4-.4-.2-1-2.3-.8-4.4.1-1.1.4-1.4.4-1.4 3.6-1 7.3-1.9 10.9-2.8 4.2-1 8.5-2.1 12.7-3.3 1.9-.5 3.5-1.6 5.4-2.9 1-.7 2.1-1.4 3.3-2.1l.8-.4-.7-.4c-1.9-1.1-3.7-2.2-5.4-3.1-3.4-1.9-6.3-3.6-9.2-5.5-9.8-6.4-16.6-15-20.4-25.5-.5-1.4.6-4.7 1.7-5.3 1.1-.6 3.2.2 4.9.9.3.1.7.3 1 .4.5.2.8.9 1.1 1.6.2.3.3.6.5.9 5.9 8.7 12.8 17.6 23.4 23.3 1.8.9 3.5 2 5.2 3 7.4 4.4 15 8.9 24.7 6.7 4.1-.9 8.7-2.4 13.1-3.9 4.5-1.5 8.7-2.9 12.5-3.7l1.7-.4-1.6-.6c-9.6-3.4-15.2-7.1-18.5-12.4-3.9-6.1-1.6-12.2 7-18.1l.5-.3-.4-.4c-.3-.3-.5-.6-.6-.9-.2-.3-.3-.6-.7-.8-18.9-9-36.2-17.2-52.9-24.9-2-.9-4.5-.8-6.9-.4-14.8 2.4-22.6 13.6-28.8 25.4-2.9 5.4-4.9 11.4-6.8 17.1-.8 2.3-1.6 4.7-2.5 7.1l-.3.9c-7.2 19.4-14.7 39.4-12.3 61.1.8 6.7 1.9 11.8 3.7 15.9 7.8 17.3 16.7 29.7 27.9 39.2 4 3.4 7.9 7 11.6 10.6 6.9 6.5 14.1 13.3 22.1 18.5 9.4 6.2 17.4 14 25.2 21.6C24 668 30 673.9 36.7 679.1c.2.3-.8 2.2-2.3 3.6-.9.8-1.5 1-1.7.8-3.2-2.3-6.3-4.8-9.5-7.5-1.3-1.1-2.7-2.3-4.2-3.5l-.7-.5-.1.9c-.1.6-.2 1.1-.3 1.5-.2 1-.3 1.7-.3 2.4l-.3 12.7c-.4 12.5-.7 25.4-.6 38 .2 18.7.7 37.7 1.1 56.1.2 9.4.5 18.9.7 28.4.1 3.3 1.4 5 4.6 5.9 3.2.9 6.4 1.9 9.6 2.8 5.3 1.6 10.8 3.3 16.2 4.6 2 .5 4.1 1 6.1 1.4 15.5 3.7 31.4 7.5 47.6 7.5 6.3 0 12.7-.6 19.1-1.9 14.5-3.2 28.6-6.6 41.2-14.1.9-.6 1.8-1.8 1.8-2.9.1-1.8.2-3.7.3-5.5.3-6.5.7-13.2.6-19.8-.2-11.4-.4-23-.6-34.2-.2-11.3-.5-22.9-.6-34.3-.1-5.5-.1-11.1 0-16.5 0-5.4 0-11.1-.1-16.6-.1-5.1 1.5-9.2 4.8-12.6 6.2-6.5 10.5-14.5 13-24.5 1-4 2.1-7.9 3.2-11.9 3.1-11.6 6.4-23.6 8.6-35.6 2.9-15.7 4.4-31.7 5.9-47.3l.3-3c.1-4.4-.4-8.3-.9-12.1z"/>
</svg>
