<svg id="Flag" xmlns="http://www.w3.org/2000/svg" viewBox="-136 353.2 519 519.8">
    <style>
        .st0{fill:#fff}
    </style>
    <path id="XMLID_397_" d="M360.5 596.3c1.4 4.3 2 8.7 1.8 13.2-.1 2.2-1 3.9-3.1 4.9-8.7 4.3-17.6 8.3-26.9 11.4-17 5.7-34.2 10.2-51.6 14.5-22.2 5.5-44.7 9.4-67.1 13.8-8 1.6-16.1 2.6-24 4.4-23 5.2-45 13.1-65.9 24.1-12.6 6.6-25.4 12.9-37.8 19.7-14.5 8.1-28.8 16.5-43.1 25-8.4 5-16.6 10.2-24.8 15.4-2.2 1.4-4.4 2.7-6.3 4.4-5.6 4.7-11.7 8.3-18.2 11.5-1.1.6-2.2 1.3-3.4 2 4.2 10.1 8.4 20.1 12.5 30.2 1.4 3.4 2.9 6.8 4 10.2 4.1 12.3 7.9 24.6 12 36.9 3.2 9.5 6.5 19 9.8 28.5.1.3.3.6.3.9.8 2.9.3 4.4-1.8 5.2s-4.6 0-5.8-2.1c-.6-1.1-1-2.4-1.4-3.6-2.5-7.3-4.9-14.5-7.4-21.8l-5.7-16.8c-1.5-4.5-3.1-9.1-4.4-13.6-5.6-18.2-13.8-35.4-20.9-53-3.3-8.1-6.4-16.4-9.3-24.6-6.8-19.6-13.4-39.3-20-59-2.9-8.6-5.9-17.2-8.5-26-4.6-15.3-8.8-30.7-13.3-46-1.6-5.5-3.4-11-5-16.5-3.5-12.1-6.8-24.3-10.5-36.4-2.4-7.9-5.2-15.8-7.9-23.6-5-14.7-11.4-28.8-18.1-42.8-1.2-2.6-2.4-5.2-3.5-7.8-.4-.9-.5-1.9-.6-2.8-.1-1.8.7-3.2 2.4-3.7 1.8-.6 3.1.3 3.9 1.9 1.7 3.4 3.4 6.8 5.1 10.3 4.2 8.9 8.4 17.9 12.7 26.8.4.8.8 1.6 1.4 2.9 1.8-1.8 3.4-3.3 4.9-4.9 6-6.7 12.9-12.3 20.4-17.3 15.4-10.2 31.9-18.2 48.6-25.8 14.1-6.4 28.8-11.4 43.9-15.1 26-6.5 52-13.4 77.6-21.4 22.2-7 44.1-14.9 65.8-23.5 7.6-3 15.4-5.5 22.7-9.1 17-8.2 34.6-15.1 50.5-25.2 7.7-4.9 14.8-10.6 22.2-16 1-.8 2-1.6 3.1-2.1 4-1.8 6.8-.8 8.5 3.2 2.4 5.4 4.2 11 4.4 17 .2 4.3 1.2 8.5 1.6 12.8.6 5.5.9 11.1 1.7 16.6 1 6.3 2.4 12.5 3.6 18.8 1.8 9.3 6.7 17.2 11.3 25.2 9.1 16 17.5 32.3 24.8 49.2 3.7 8.7 7.7 17.2 11.4 25.8 7.2 16.7 15.1 33.1 18.5 51.2.6 3.1.9 6.3 1.5 9.4 1.2 4.6 2.1 9 3.4 13.2zm-6.4 12.6c.8-3.7.1-7.2-1.3-10.4-1.8-4.3-2.6-8.9-3.2-13.5-1.9-14.2-5.8-27.8-11.4-40.9-1.3-3.1-3-6-4.3-9.1-7.9-18.3-15.3-36.9-24.3-54.7-5.4-10.5-10.6-21.1-16.7-31.3-8-13.4-12.5-27.9-14.5-43.2-.7-5.7-1-11.4-1.5-17.2-.4-5.4-.7-10.8-1.4-16.2-.5-3.7-.6-7.6-3.1-11-.6.5-1.1.8-1.6 1.2-8.7 6.7-17.4 13.6-27.2 18.8-18 9.6-36.4 18.7-55.4 26.2-17.5 6.9-35.1 13.7-52.8 20.1-13.2 4.7-26.6 8.9-40.1 12.8-17.2 5-34.5 9.4-51.7 14.2-11.7 3.3-23.3 6.7-34.9 10.2-10.6 3.2-20.8 7.2-30.6 12.3-7.9 4.1-16 8-23.9 12.2-11 5.9-21.7 12.3-30.5 21.4-3.7 3.9-7.4 7.9-10.5 11.3 4.7 14.8 9.3 28.7 13.6 42.8 3.1 9.9 5.8 19.9 8.7 29.9 1.4 4.8 2.9 9.5 4.3 14.2 4.5 15.5 8.3 31.2 13.5 46.4 8.2 24 16.1 48.2 24.1 72.2 2.5 7.5 5 15.1 7.5 22.7.5 1.6 1.5 2.5 3.1 2.3s3.3-.2 4.6-.9c3.6-1.9 7.2-4.1 10.6-6.4 7.3-4.9 14.2-10.4 21.6-15 15.5-9.6 31-19.1 46.9-27.9 19.6-10.8 39.4-21.1 59.4-31.2 17.9-9 37-15 56.5-19.3 11.8-2.6 23.8-4.5 35.8-6.7 25.1-4.6 50.1-9.8 74.8-16.5 19.1-5.2 38-10.4 55.9-19.8z"/>
    <path class="st0" d="M353.7 598.1c-1.8-4.3-2.6-8.9-3.1-13.2-1.9-13.8-5.7-27.7-11.5-41.2-.7-1.6-1.4-3.1-2.2-4.6-.7-1.5-1.5-3-2.1-4.5l-5.7-13.5c-5.8-13.7-11.8-27.8-18.6-41.3-1-1.9-2-3.9-3-5.8-4.3-8.4-8.8-17.2-13.8-25.5-7.6-12.7-12.3-26.7-14.4-42.8-.5-3.8-.8-7.7-1.1-11.5-.1-1.9-.3-3.7-.4-5.6-.1-1.1-.2-2.2-.2-3.2-.3-4.3-.6-8.7-1.2-13-.1-.5-.1-1.1-.2-1.6-.4-3.3-.8-6.7-3.1-9.8l-.6-.9-.8.7c-.3.3-.6.5-.9.7-.2.2-.5.3-.7.5-8.5 6.7-17.3 13.5-27.1 18.7-21.3 11.4-38.9 19.7-55.3 26.2-14.4 5.7-33.3 13.1-52.8 20.1-12.2 4.3-25.3 8.5-40 12.8-10.2 3-20.7 5.8-30.7 8.5-6.9 1.8-14 3.8-20.9 5.7-11.3 3.2-22.7 6.5-34.9 10.2-11.2 3.4-21.3 7.4-30.8 12.4-3.4 1.8-6.9 3.5-10.2 5.2-4.5 2.3-9.2 4.6-13.7 7-10.7 5.7-21.8 12.3-30.8 21.6-4.2 4.4-8 8.6-10.5 11.3l-.4.4.2.5c1.6 5.1 3.2 10 4.8 15 3.1 9.6 6 18.6 8.8 27.8 2.1 6.7 4.1 13.7 6 20.3.9 3.2 1.8 6.4 2.7 9.5l2.4 8.1c.6 2 1.3 4.1 1.9 6.1 1.5 5.1 2.9 10.3 4.3 15.3 2.8 10.3 5.7 20.9 9.2 31.1 5.6 16.5 11.2 33.4 16.6 49.7l7.5 22.5c2.5 7.5 5 15.1 7.5 22.7.6 2 1.9 3 3.6 3h.5c.3 0 .7-.1 1-.1 1.3-.1 2.7-.3 3.9-.9 3.5-1.8 7.1-4 10.7-6.5 2.9-2 5.8-4.1 8.7-6.1 4.2-3 8.5-6.1 13-8.9 14.9-9.2 30.8-19 46.9-27.9 17-9.4 35.3-19.1 59.4-31.2 16.2-8.2 34.6-14.4 56.3-19.2 8.4-1.8 17-3.4 25.3-4.8 3.5-.6 7-1.2 10.4-1.9 29.4-5.4 53.2-10.6 74.9-16.5l.9-.2c18.4-5 37.4-10.2 55.1-19.6l.4-.2.1-.5c.8-3.8.3-7.4-1.3-11.1z"/>
</svg>
