<svg id="Hair_2" xmlns="http://www.w3.org/2000/svg" viewBox="-123 340.7 544 544.3">
    <style>
        .st0{fill:#fff}
    </style>
    <path class="st0" d="M294.9 625.2c-.1-3.4-.3-7-.3-10.5 0-.6-.1-1.3-.2-1.9v-.2c-.7-4.7-1.4-9.1-1.2-13.8 0-1.3 0-2.6-.1-3.9v-.9c-.4-6.9-.8-14.1-1.3-21.1-.2-4.2-.5-8.4-.9-12.4l-2.7-22.9c-.2-1.3-.3-2.6-.4-3.9-.2-1.7-.3-3.6-.6-5.3-1.1-6.7-2.2-13.6-3.8-20.3-.7-3-1.4-6.1-2-9.1-1.3-6.4-2.7-12.9-4.7-19.2-.1-.4-.2-.8-.3-1.1-.3-1.1-.6-2.2-.8-3.3-1.4-8-4.5-15.7-7.5-23l-.8-2c-.7-1.7-1.6-3.7-2.8-6.1-.7-1.4-1.5-2.9-2.2-4.3-1.1-2.1-2.2-4.3-3.3-6.5-4.5-9.4-9.2-17.7-14.3-25.5-1.2-1.8-2.4-3.6-3.5-5.4-1.5-2.3-3.1-4.8-4.7-7.1-.7-1-1.3-2-2-3-2-3-4-6.1-6.3-8.9-3.3-4.1-6.9-8.1-10.3-11.9-1.3-1.5-2.7-2.9-4-4.4-5.1-5.6-10.3-10.1-16-13.7-4.4-2.7-8.8-5.2-13.8-6.1-6.2-1.2-11.3-1.7-16-1.6-3.7.1-7.5 0-11.2 0h-5.6c-5.8-.1-11.9.8-19 2.9-2.7.8-5.5 1.8-8.1 2.7-1.5.5-2.9 1-4.4 1.5-2.7.9-4.7 2.1-6.3 3.7-1.5 1.5-3 3-4.6 4.3-3.3 2.5-6 5.1-8.1 8.1-1.6 2.3-3.3 4.5-5 6.6-2.9 3.6-5.8 7.4-8.2 11.5-1.4 2.6-2.9 5.2-4.6 8-1.1 1.9-2.3 3.8-3.5 5.6-2.3 3.7-4.7 7.5-6.7 11.5-4 7.4-6.9 15.2-10 24-1.4 3.7-2.8 8.2-3.1 12.8-.1 1.7-.4 3.3-1 4.6-1.7 4.2-2.2 8.6-2.7 12.9l-.2 1.8c-.3 2.2-.6 4.4-.9 6.5-.6 4.2-1.2 8.6-1.5 12.9-.1 2.2-.3 4.4-.5 6.6-.3 3.9-.7 7.8-.8 11.8-.1 3.5-.2 7-.4 10.4l-.3 6.9c-.1.3-.1.5-.1.7 0 .2 0 .4-.1.7-.2 2.6-.5 5.2-.8 7.8-.3 2.6-.6 5.2-.8 7.8-.2 1.7-.3 3.5-.4 5.2l-.3 5.1c-.2 2.8-.5 5.5-.7 8.3-.2 2.8-.4 5.5-.7 8.3-.1 1.2-.2 2.4-.3 3.5-.2 2.7-.4 5.4-1 8-1.9 9.8-4.2 20.2-6.8 31.7-1.8 7.9-3.7 15.7-6 23.8-2.1 7.7-4.3 15.5-6.5 23-1.2 4.3-2.5 8.6-3.7 12.9-.8 2.9-1.7 5.9-2.6 8.7-1 3.2-1.9 6.4-2.8 9.7-.5 2-1.1 4-1.6 6-1.5 5.4-3 10.9-4.2 16.5-2.1 9.9-3.8 20-5.5 29.7l-.8 4.9c-1 5.6-1.8 10.7-2.3 15.8-.4 4.5-.5 9.1-.7 13.6 0 1.1-.1 2.3-.1 3.4-.3 7.2 0 14.6.3 21.6.1 3 .3 6 .4 9 0 .7.1 1.5.2 2.2.1 1 .2 1.9.4 2.9.3 2.4.6 4.8.7 7.2.1 4.2.1 8.5.1 12.6 0 6.7 0 13.7.5 20.5.4 5.9.8 12 1.7 18 .3 1.8.9 4.1 3 5.5l.3.2.3-.1c.9-.5 1.7-1 2.5-1.5 2.8-1.9 4.2-1.8 6.5.5.2.3.4.7.8.9 1.4.8 3 1.1 4.6 1.4.8.1 1.5.3 2.2.4.1.1.2.1.3.1.6 0 1.1-.6 1.2-.6 2.1-2.1 4.6-2.4 7.7-.9l.4.2.2-.4c2.2-3.3 5.4-4.5 9.6-3.7 2.8.4 5 0 7.1-1.5 2.4-1.6 5.2-2 8.5-1.2 1.6.4 3.1 1.2 4.4 1.9 2 1.2 3.6 1 5.1-.4 2-1.8 4.5-2.3 7.9-1.6 1.1.3 2.1.7 3.2 1.4 2.1 1.1 3.9 1.2 6.1.2 1.6-.8 4-1.7 5.8-1.5 3.7.7 5.2-1.5 6.8-3.7.8-1.1 1.4-2.4 1.9-3.6 4.5-10.2 7.5-20.8 9.9-30.1 1.8-7 4.1-16.2 5.6-25.7.5-3.2 1-6.3 1.6-9.5.9-5.3 1.8-10.8 2.6-16.1.7-4 1.1-8.1 1.5-12 .5-3.9.8-7.9 1.2-11.7l.1-1c.3-2.5.5-5.1.6-7.6.1-1.2.2-2.5.3-3.7 0-.9.1-1.7.2-2.7.1-1 .2-2 .3-2.9.1-2.6.2-5.5 0-8.3-.2-2.3-.5-4.6-.8-6.8-.1-1.1-.3-2.3-.4-3.3v-.9c0-.3.1-.6 0-.9l.6-7.8c.1-2.2.3-4.4.4-6.6.1-2.2.2-4.3.4-6.5.2-2.1.4-4.2.5-6.3.3-3.3.6-6.7.8-10.1.1-2-.1-4-.3-6-.2-1.7-.3-3.5-.3-5.3 0-6.2-1.6-11.6-4.8-16.7-.8-1.5-1.6-3-2.2-4.4-1.7-4.4-4.4-8.2-7.9-12.4-1.7-2.1-3.3-4.3-4.8-6.5-.4-.6-.8-1.2-1.3-1.8-.6-.8-1.2-1.7-1.7-2.5-1.1-1.7-2.3-3.5-3.7-5-7.4-8-12.8-17.1-17-24.8-1.6-2.9-3-5.6-4.2-8.2-1.9-4.2-3.8-8.6-5.7-12.9l-1.3-3c-.7-1.8-1.6-3.8-2.1-5.9-.5-2.1-1-4.2-1.6-6.2-1.4-5.4-2.8-10.9-3.4-16.6-.1-1.5-.3-3.1-.5-4.5-.4-2.9-.7-5.9-.7-8.8.1-3.1 0-6.3 0-9.4v-4.8c0-1 0-2-.1-2.9-.1-1.2-.3-2.3-.4-3.5-.5-4.7-1.1-9.5-.3-14.4 1-6.7 2.3-13.8 4.5-20.4 1.9-5.6 5-9.7 9.5-12.5 3.1-2 6.5-4.1 10.2-5.3 4.5-1.5 8.4-4.2 12.1-6.7l1.3-.9c1.9-1.3 3.8-2.5 5.7-3.8 3-2 6.1-4 9.1-6.1 3.7-2.6 5.3-5.7 4.8-9.5-.1-.7-.1-1.3 0-2.1 0-.7.1-1.5-.1-2.2-.2-1.2-.3-2.5-.4-3.7-.2-2.9-.5-5.9-1.8-8.7-1.5-3.1-1.2-5.5 1.1-7.4l.3-.3-.2-.4c-.8-1.5-1.2-2.7-.4-4 .5-.8.7-1.7.5-2.4-.4-1.3 0-2.2.6-3.2.2-.5.5-.9.6-1.5.2-.8.2-1.6.1-2.4-.1-1.1-.1-2.1.4-3 .6-.9 1.1-1.9 1.5-2.9 1.1-2.3 2.1-4.5 4.4-5.9.6-.4 1-1.1 1.3-1.8.1-.1.1-.3.2-.4.5-.9 1-1.8 1.7-2.6 2.9-3.9 5.7-7.2 9.8-9.2.2-.1.3-.3.4-.4l.2-.2c1.2-.9 2.1-1.3 2.8-1.1.7.1 1.5.8 2.3 2.1 1.3 2.1 1.8 4.3 1.4 6.2-.1.6-.1 1.3-.2 1.9-.1 1.8-.2 3.4-1.8 4.6-.4.3-.8 1-.8 1.6.2 2.8-1.2 4.7-3.4 6.8l-.2.2.1.3c1.1 3 .2 5.5-2.7 7.7-.2.1-.3.2-.4.3-1.1.8-1.4 2-.8 3.4l.3.6c.2.3.3.6.5 1 1.2 2.9.9 4.3-1.5 6.3-.6.5-1.3 1-2.1 1.6-.5.3-1 .7-1.5 1.1l-.5.4.4.4 1.2 1.2c.7.7 1.3 1.3 2 1.8s1.4.9 2.1 1.3c.9.5 1.8 1 2.5 1.6 1.4 1.2 2.8 2.5 4.1 3.7 1.3 1.2 2.7 2.5 4.1 3.7 3.6 3.1 8.1 6.5 13.5 8.7 4.9 1.9 11.2 4.6 16.8 8.9 10.5 8.3 18.6 15.7 25.3 23.2 8.8 9.9 15 20.3 18.8 31.7.8 2.3 1.6 4.6 2.3 6.9.7 2.3 1.5 4.6 2.3 6.9.8 2.3 1.8 4.7 3.8 6.6l.5.4.5-.8c.2-.4.4-.7.5-1 .2-1.1.4-2.2.5-3.3.3-2.1.7-4.3 1.2-6.4 1.3-4.6 2.8-9.3 4.3-13.9l1-3.1c.7-2 2.1-3.9 4.3-5.6 3.4-2.5 8.1-2.5 11.3.1 4.4 3.7 7 8.2 7.5 13.3.6 5.4.5 10-.2 14.1-1 6.1-1.7 12.3-2.3 18.4l-.1.7c-.3 3.2-1.3 6-3 8.3-1.9 2.6-3.8 4.9-5.6 7-1.8 2.1-4.1 4.4-7.2 5.9-3.9 1.8-6.4 4.9-7.2 9.3-.1.8-.3 1.5-.6 2.2-.2.6-.4 1.2-.5 1.8-.5 2.4-1 4.9-1.5 7.3-.9 4.2-1.8 8.6-2.9 12.9-.9 3.7-2.3 7.2-3.7 10.9l-.3.7c-.5 1.4-1.2 2.8-1.9 4.1-.4.7-.8 1.5-1.2 2.3-.5 1.2-1 2.4-1.6 3.6-.5 1.1-1.1 2.1-1.7 3.2-1.4 2.8-2.9 5.6-4.3 8.6-1.3 3.1-2.1 5.8-2.3 8.3-.5 3.9-.7 7.9-.8 11.8l-.1 2.4c-.1 4.1 0 8.3 0 12.3.2 8.4.3 17.1-1.4 25.6-.3 1.5-.5 3-.8 4.5-.5 3.2-1 6.1-1.9 9.1-.9 3.2-1.9 6.4-2.8 9.5-1.7 5.5-3.4 11.1-4.8 16.8-1.3 5.6-3.1 11.2-4.9 16.6-.8 2.4-1.5 4.8-2.2 7.1-3.8 12.3-6.8 23.6-9 34.5-1.8 9-2.5 16.1-2.1 22.7.1 1.3.2 2.5.4 3.8l.3 3.3c.2 2.4.4 4.8.7 7.2.3 3.5.6 7.2 1 10.8.4 3.5 1 7.1 1.5 10.5.3 2.1.7 4.2 1 6.3.2 1.1.1 2.3 0 3.4-.2 1.4-1.1 2.2-2.4 2.1-1.3-.1-2.1-.9-2.2-2.4-.2-2.1-.4-4.2-.7-6.3-.7-6.1-1.4-12.4-2.3-18.6l-.2-1.3c-.6-4.3-1.3-8.7-1.1-13.1 0-.5-.1-.9-.2-1.3l-.2-.7-.6.4c-.8.6-1.3 1.3-1.4 2-.6 2.8-1.2 5.6-1.9 8.3-1.3 5.3-2.6 10.8-3.1 16.2-.8 7.6-1.2 15.2-1.6 22.6l-.2 4.3c0 1.1 0 2.3-.1 3.4 0 3.5 0 7-1.4 11l-.5 1.3 1.2-.7c1.2-.7 2.2-1.3 3.2-1.8 1.4-.8 2.5-1.4 3.7-2.1 1-.6 1.9-1.2 2.9-1.8.6-.4 1.3-.9 2-1.3 1.9-1.2 3.8-1.2 5.7.2.7.6 1.4 1.2 2.2 1.8 2.4 1.7 3.9 1.7 6 0l1.8-1.5c.6-.5 1.1-1 1.7-1.5 4.9-4.2 10.1-6.8 15.9-7.8 1.9-.3 3.3-.2 4.6.4 3.3 1.5 6.7 2.9 10 4.3l.1.1c.9.4 2.1.9 3.2.8 4.4-.6 7.7-1.8 10.4-3.9.7-.5 1.4-1.1 2.2-1.6 1.7-1.3 3.3-2.5 4.9-3.7 1.4-1 2.8-2.2 3.3-4.4.3-1.1 1.1-2.1 1.8-3l.1-.1c1-1.4 2.1-3.4 2-5.8 0-.5.2-1 .4-1.5.1-.2.2-.4.2-.6.2-.6.5-1.2.8-1.8.5-1 1-2.1 1.2-3.2.8-4.1 2.7-7.7 4.5-10.9 3.5-6.1 6.3-13.2 8.5-21.6 1.1-4.6 1.8-9.4 2.5-14 .3-1.9.4-3.9.6-5.8.2-2.3.4-4.6.8-6.9 1.7-10.3 3.6-20.5 5.3-30.1.2-1.2.4-2.4.7-3.7.7-3.8 1.4-7.8 1.9-11.8.4-3.4.8-6.8 1.1-10.1.3-3.3.7-6.7 1.1-10 .3-2.6.6-5.1 1-7.7.7-5.7 1.5-11.6 1.9-17.5.2-3.3.7-6.7 1.1-9.9.4-2.8.8-5.7 1-8.5.6-7.3 1.2-14.8 1.3-22.3.6-6 .3-12.2.1-18.2z"/>
    <path id="XMLID_685_" d="M300.3 618.3c.3 9 .7 18 .6 27-.1 6.9-.7 13.7-1.3 20.5-.6 7.7-1.4 15.3-2.2 23-.5 4.4-1.2 8.7-1.7 13-.4 3.5-.7 7.1-1.1 10.6-.3 2.6-.6 5.2-1 7.8-1.6 10.7-3.2 21.3-4.9 32-1.3 7.9-3 15.8-4.4 23.8-.7 4-.8 8-1.3 12-1.7 12.5-4.6 24.7-10.6 36-1 2-2.2 3.9-3.3 5.9-1.3 2.4-2.1 5-1.8 7.9.3 2.9-.4 5.6-2.2 8-1.2 1.7-2.1 3.8-3.1 5.6-2.3 4.1-6.2 6.4-10 8.9-1 .6-2 1.3-2.8 2.1-3.6 3.7-8.3 4.9-13.1 6-2.1.5-4.2 0-6.2-1-2.2-1.1-4.6-1.9-6.8-3.1-4.4-2.4-8.4-1.2-12.5.7-3.7 1.7-6.9 4.3-9.8 7.1-3.8 3.7-9.6 3.6-13.1 0-.4-.4-.9-.7-1.7-1.2-1.6 1-3.1 2-4.8 2.9-2.1 1.2-4.1 2.5-6.3 3.3-1.7.6-3.7.7-5.6.7s-3-1.4-2.9-3.3c.1-1.1.3-2.1.4-3.2.3-4.1.5-8.3.7-12.4.3-6.3.5-12.5.8-18.8.1-1.9.5-3.8.7-5.6.7-8.7 3.2-17 5.4-25.3.5-1.7.9-3.5 1.3-5.2.9-3.7 1.9-7.3 3.9-10.6.9-1.4.9-3.4 1.2-5.1.7-3.8 1.2-7.7 1.9-11.5 1.5-8.1 3.7-15.9 6-23.8 1.8-6 3.8-12 5.6-18 1.5-4.9 3.2-9.7 4.2-14.7 1.8-9.1 5.1-17.7 7.6-26.6 1.1-3.9 1.6-7.9 2.4-11.8 2.5-11.4 1.1-23 1.5-34.4.2-6 .3-12.1.8-18.1.3-3 1.1-6.1 2.3-8.9 2.9-7 6.6-13.6 9.9-20.4 2.3-4.8 4.1-9.6 5.4-14.6.9-3.7 1.4-7.4 2.2-11.2s1.8-7.4 2.6-11.1c1.3-6.2 5-10.4 10.6-13.5 5.2-2.9 8.7-7.6 11.5-12.8 1.5-2.8 1.7-6 1.7-9-.1-4.7 1.5-9.1 1.8-13.7.3-4.8.6-9.7.2-14.5-.4-3.8-2.4-7.2-5.6-9.6-1.7-1.3-3-1.4-4.5-.1-1.3 1.1-2.6 2.6-3.2 4.1-1.8 5.1-3.4 10.4-4.9 15.6-.9 3.3-1.2 6.7-1.9 10.1-.3 1.5-.6 3-1.2 4.4-1.2 2.8-4 3.5-6.4 1.5-3.7-3-6-7-7.5-11.4-2.3-6.7-4.2-13.6-7-20.1-3.8-8.9-9.2-16.9-15.8-24-6.9-7.6-14.4-14.4-22.4-20.8-4.1-3.3-8.4-6.2-13.4-8-8.3-3.1-15.4-7.8-21.6-14.1-.8-.8-1.6-1.6-3-1.5-.7 0-1.7-.4-2.2-.9-3.1-3.1-6.3-6.1-9.1-9.5-1.4-1.6-1.8-2.9-1.2-4.1.4-.8 1.2-1.5 2.4-2.3 1.3-.8 2.6-1.6 4.1-2.5-.6-1.2-.9-1.8-1.2-2.5-1.7-3.6-1-6.6 1.9-8.5 1.3-.9 2.1-1.9 1.5-3.6-.6-1.8.1-3.2 1.3-4.5 1.3-1.4 2.9-2.6 1.9-4.9-.2-.4.2-1.1.5-1.6.6-1.3 2.1-1.7 2.3-3.4.1-1.4.8-3.1 1.3-4.1h-2.9c-1 1-1.8 2.6-2.8 3.7-2.9 3.4-4.7 7.6-8.3 10.5-1.1 3-3.9 5.4-2.9 9.1.1.5.1 1.4-.3 1.7-1.8 1.9-.9 4.3-1.4 6.4-.1.4-.2 1 0 1.4 1.1 2 .8 3.5-.2 4.8-.4.6-1 1-1.7 1.5 0 .5-.1.9 0 1.2 2.5 6.2 2.8 12.6 3 19.2.2 5.6-2.3 9.7-6.6 12.7-7.4 5.1-14.9 10.1-22.6 14.9-2.7 1.7-5.8 2.7-8.8 3.9-3.8 1.5-7.1 3.9-10.2 6.4-2.5 1.9-3.8 4.8-4.8 7.8-2.7 7.8-4 15.9-4.9 24-.1 1.4 0 2.9.2 4.3.9 7.1 1.6 14.1 1.3 21.3-.4 12.1 1.6 23.8 4.5 35.5 1.9 7.7 5.1 14.8 8.5 21.8 1.9 4 3.6 8 5.6 11.9 4.4 8.4 9.7 16.3 15.8 23.6 3.8 4.5 7 9.6 10.5 14.4 2.7 3.8 5.7 7.3 8.1 11.3 2.8 4.7 5.2 9.6 7.3 14.6 1.5 3.6 2.3 7.4 2.4 11.4 0 2.4.7 4.7.6 7.1-.3 7-.7 13.9-1.2 20.9l-.9 13.5c-.2 2.6-.4 5.2-.5 7.8-.1 1.6.1 3.3.2 5 .3 4.1 1.2 8.3.9 12.4-.6 7-.2 14-1.6 20.9-.6 3-.8 6.1-1 9.2-.8 10-2.2 19.8-4.1 29.6-1.2 6.1-1.9 12.2-3.2 18.2-1.8 8.1-3.9 16.1-5.9 24.2-.7 2.6-1.4 5.3-2.2 7.9-1.8 5.4-3.7 10.7-5.6 16.1-1.2 3.4-3.1 6.4-5.4 9.1-1.7 2-3.7 3.1-6.2 2.7-2.5-.4-4.8.1-6.9 1.1-3.1 1.5-6 1.2-8.8-.4-.4-.2-.8-.4-1.3-.6-2-1-3.9-1.1-5.6.4-3.3 2.9-6.7 2.6-10.2.5-.5-.3-1-.6-1.6-.8-2-1.1-4.1-1-6.1 0-1.7.8-3.4 1.7-5.2 2.3-1.2.3-2.6.4-3.8.1-2.8-.6-5.1-.4-7.1 1.9-1.5 1.8-3.5 2.4-5.8 1.4-1.5-.6-2.7-.3-3.9.9-1.6 1.6-3.5 1.7-5.6 1-1-.3-2.1-.6-3.1-.4-2.3.5-3.9-.2-5.1-2.3-.2-.4-.5-.8-.9-1.4-1.1.5-2.1 1.1-3.1 1.6-3.2 1.5-5.8 1.1-7.9-1.7-1.2-1.6-2.3-3.4-2.8-5.3-.8-3.1-1.3-6.3-1.6-9.4-.6-5.3-.9-10.6-1.3-15.9-.1-1.3-.1-2.6-.2-3.9 0-5.8-.1-11.6 0-17.5.1-5.8-.4-11.6-1.3-17.3-.1-.5-.1-.9-.1-1.4-.5-10.7-.9-21.3-.8-32 .1-7.8 1-15.6 2-23.3 1.7-12.6 4.1-25 6.3-37.5 2.1-11.6 5.6-22.8 8.8-34.1l3.6-12.6c1.6-5.5 3.2-10.9 4.8-16.4 2-7.2 4-14.4 5.9-21.6 1.3-4.9 2.6-9.8 3.8-14.8 1.9-8.1 3.7-16.2 5.5-24.3 1.1-4.9 2.2-9.7 3.1-14.6.6-3.6.9-7.3 1.2-10.9.5-5.5 1-11.1 1.4-16.6.3-3.7.5-7.3.8-11 .3-3.1.8-6.1 1.1-9.2.4-3.8 1-7.5 1.2-11.3.4-7 .4-14 .8-21 .2-3.7 1.2-7.3 1.2-10.9 0-5 1.4-9.8 1.7-14.8.1-2.1.5-4.2.9-6.3 1.2-6.8 2.5-13.5 3.7-20.3.4-2.2-.4-4.4.5-6.6.9-2.1 1.3-4.3 2.1-6.4 3.2-7.7 6.1-15.4 9.8-22.9 3.1-6.3 7.1-12.1 10.6-18.1 2.1-3.5 3.9-7.1 6.2-10.4 3.7-5.2 7.7-10.2 11.4-15.4 2.5-3.5 5.4-6.6 8.9-9.1.9-.7 1.8-1.6 2.6-2.4 4-4.3 9.1-6.7 14.7-8.3 2.1-.6 4.1-1.2 6.1-1.9 7.6-2.7 15.4-4 23.4-3.9 6.6 0 13.3-.1 19.9 0 7.6.2 15.1 1.1 22.2 4.4 6.1 2.8 11.6 6.5 16.7 10.8 4.6 3.8 8.7 8.1 12.6 12.6 6.2 7 12.6 13.9 17.5 22 6.7 10.9 14.3 21.3 20.1 32.7 2.6 5.2 5.3 10.4 7.8 15.6 3.1 6.7 6.2 13.3 8.9 20.2 1.8 4.6 2.9 9.5 4.2 14.3.5 1.7.6 3.5 1.2 5.2 2.9 9.5 4.6 19.4 6.9 29.1 1.6 7 2.8 14.2 4 21.3.5 3.3.6 6.6.9 9.9.5 4.9 1.1 9.9 1.7 14.8.4 3.5.8 7.1 1.2 10.6.5 5.1.9 10.1 1.3 15.2 0 .5.1.9.1 1.4.2 7.5.4 14.9.8 22.4.1 2.8.5 5.6.8 8.5.4 1.5.7 3.7.7 6zm-5.7 25.6c.1-9.6-.4-19.2-.7-28.8 0-.6-.1-1.2-.2-1.8-.8-4.7-1.4-9.4-1.2-14.1 0-1.3 0-2.6-.1-3.9-.4-7.3-.9-14.7-1.3-22-.3-4.1-.5-8.3-.9-12.4-.8-7.6-1.8-15.3-2.7-22.9-.4-3.1-.4-6.2-1-9.2-1.1-6.8-2.2-13.6-3.8-20.3-2.2-9.4-3.9-19.1-6.7-28.3-.5-1.5-.9-3-1.1-4.5-1.4-8.7-5-16.8-8.3-24.9-.9-2.1-1.8-4.1-2.8-6.1-1.8-3.6-3.7-7.2-5.5-10.8-4.2-8.8-8.9-17.3-14.3-25.4-2.8-4.2-5.4-8.4-8.2-12.5-2.7-4-5.3-8.2-8.3-11.9-4.5-5.7-9.5-11-14.3-16.4-4.7-5.3-9.9-9.9-15.9-13.6-4.2-2.7-8.7-5.1-13.6-6-5.2-1-10.5-1.7-15.9-1.6-5.6.1-11.2 0-16.8 0-6.5 0-12.7 1.2-18.9 2.9-4.2 1.2-8.3 2.8-12.5 4.2-2.3.8-4.3 1.9-6.1 3.6-1.5 1.5-3 3-4.7 4.3-3 2.3-5.7 4.9-8 8-4.4 6.1-9.6 11.5-13.2 18.1-1.5 2.7-3.1 5.3-4.6 8-3.4 5.7-7.1 11.3-10.2 17.1-4.1 7.7-7.1 15.8-10 23.9-1.5 4.1-2.8 8.3-3.1 12.7-.1 1.6-.4 3.3-1 4.8-2 4.7-2.3 9.7-2.9 14.6-.9 6.4-2.1 12.8-2.4 19.4-.4 6.1-1.2 12.2-1.3 18.4-.1 5.8-.4 11.6-.7 17.4 0 .5-.1.9-.2 1.4-.5 5.2-1.1 10.4-1.6 15.6-.3 3.4-.5 6.9-.7 10.3-.4 5.5-.9 11.1-1.4 16.6-.4 3.9-.5 7.8-1.3 11.6-2.1 10.6-4.4 21.1-6.8 31.7-1.8 8-3.9 15.9-6 23.8-3.3 12-6.7 24-10.2 35.9-1.8 6.2-3.7 12.2-5.4 18.4-2.1 7.4-4.3 14.8-5.8 22.4-2.4 11.5-4.3 23.1-6.3 34.6-.9 5.2-1.8 10.5-2.3 15.8-.5 5.7-.6 11.4-.8 17-.4 10.2.4 20.4.7 30.6 0 .7.2 1.4.2 2.1.4 3.4 1 6.8 1.1 10.2.3 11-.2 22.1.6 33.1.4 6 .9 12 1.7 18 .3 1.9.9 3.9 2.8 5.2.9-.6 1.7-1 2.5-1.5 3.1-2 4.7-1.9 7.2.6.2.2.4.6.7.8 2 1.2 4.4 1.3 6.7 1.8.3.1.7-.2.9-.4 2.4-2.4 5.2-2.5 8.3-1 2.6-3.6 6.1-4.6 10.1-3.9 2.5.5 4.7 0 6.8-1.4 2.8-1.8 5.8-2.1 8.9-1.3 1.6.4 3.1 1.2 4.5 2 1.7 1 3.1 1 4.5-.3 2.4-2.2 5.4-2.4 8.4-1.7 1.1.2 2.2.8 3.3 1.4 1.9 1.1 3.7 1.1 5.7.2 1.9-.8 4.2-1.8 6.1-1.5 3.4.6 4.8-1.4 6.3-3.5.8-1 1.3-2.3 1.8-3.5 4.3-9.7 7.2-19.8 9.9-30 2.3-8.5 4.2-17 5.6-25.7 1.4-8.5 2.9-17 4.2-25.6.6-4 1-8 1.5-12 .5-4.2.9-8.5 1.3-12.7.3-3.8.6-7.5.9-11.3.1-1.9.4-3.8.5-5.6.1-2.7.2-5.5 0-8.2-.2-3.4-.8-6.8-1.2-10.2-.1-.6.1-1.2.1-1.8l.6-7.8c.3-4.4.5-8.8.8-13.1.4-5.4 1.1-10.8 1.3-16.3.1-3.8-.6-7.6-.6-11.3 0-6-1.5-11.5-4.7-16.5-.9-1.4-1.6-2.9-2.2-4.5-1.8-4.6-4.8-8.5-7.8-12.3-2.1-2.7-4.1-5.5-6.1-8.3-1.8-2.5-3.4-5.2-5.4-7.5-6.9-7.5-12.2-16-17.1-24.9-1.5-2.7-2.9-5.4-4.2-8.2-2.4-5.3-4.7-10.6-7-15.9-.8-2-1.7-4-2.1-6-1.7-7.6-4.2-15.1-5-22.9-.4-4.5-1.3-8.9-1.2-13.4.1-4.8 0-9.5 0-14.2 0-1 0-1.9-.1-2.9-.6-6-1.6-11.9-.7-18 1.1-6.9 2.3-13.8 4.5-20.5 1.8-5.3 4.8-9.7 9.7-12.8 3.3-2.1 6.6-4.1 10.3-5.4 4.9-1.7 9-4.7 13.3-7.5 4.9-3.3 9.9-6.5 14.8-9.9 3.1-2.1 5.1-5 4.6-9-.2-1.4.1-2.9-.1-4.3-.6-4.1-.3-8.3-2.1-12.2-1.4-3-1.5-5.8 1.2-8-.8-1.5-1.2-2.9-.4-4.5.3-.6.6-1.5.4-2-.7-2 .7-3.3 1.2-5s-.4-3.7.6-5.5c1.9-3.1 2.6-6.9 6.1-9 .6-.4.9-1.3 1.4-2 .6-.9 1.1-1.8 1.7-2.7 2.8-3.7 5.6-7.3 10-9.3.2-.1.3-.3.5-.5 2.6-1.9 4.1-1.5 5.8 1.1 1.2 2 1.9 4.3 1.5 6.5-.5 2.3.2 5.1-2.2 6.8-.3.2-.7.8-.6 1.2.2 3-1.5 5.1-3.6 7.2 1.2 3.6-.1 6.2-3 8.3-.1.1-.2.2-.3.2-1 .8-1.2 1.7-.6 2.8.3.5.6 1 .8 1.6 1.4 3 1 4.7-1.6 6.9-1.1.9-2.3 1.7-3.7 2.7 1.2 1.1 2.1 2.2 3.2 3 1.5 1.1 3.3 1.8 4.7 3 2.8 2.4 5.4 5 8.2 7.4 4.1 3.5 8.3 6.6 13.4 8.6 6 2.3 11.8 5 16.9 9 9.1 7.1 17.7 14.7 25.4 23.3 8.4 9.4 14.9 20 18.9 31.9 1.5 4.6 3 9.2 4.6 13.8.8 2.3 1.8 4.5 3.7 6.4.3-.5.6-.8.6-1.1.6-3.2.9-6.6 1.8-9.7 1.6-5.7 3.4-11.4 5.3-17 .8-2.4 2.5-4.3 4.5-5.8 3.6-2.6 8.6-2.6 11.9.1 4.4 3.6 7.1 8.1 7.7 13.6.5 4.7.6 9.6-.2 14.2-1 6.3-1.7 12.7-2.4 19-.3 3.2-1.3 6.1-3.1 8.6-1.7 2.4-3.6 4.7-5.6 7-2.1 2.4-4.4 4.6-7.4 6-3.7 1.8-6.1 4.8-6.9 8.9-.3 1.4-.8 2.7-1.1 4.1-1.5 6.7-2.7 13.5-4.4 20.2-1 4-2.5 7.9-4 11.7-.8 2.2-2.1 4.2-3.1 6.4-.6 1.2-1 2.4-1.6 3.6-2 3.9-4.2 7.7-5.9 11.7-1.1 2.6-2 5.4-2.3 8.2-.6 4.7-.7 9.5-.9 14.2-.4 12.7 1.2 25.4-1.4 38-.9 4.5-1.5 9.1-2.7 13.6-2.5 8.8-5.5 17.4-7.6 26.3-1.9 8.1-4.7 15.9-7.1 23.8-3.5 11.3-6.6 22.8-9 34.4-1.5 7.5-2.5 15-2.1 22.6.1 2.4.5 4.7.7 7.1.6 6 1 12 1.7 18 .7 5.6 1.7 11.2 2.5 16.8.2 1.2.1 2.4 0 3.6-.2 1.7-1.3 2.6-2.9 2.5-1.5-.1-2.5-1.1-2.7-2.8-.2-2.1-.4-4.2-.7-6.3-.7-6.2-1.4-12.5-2.3-18.6-.7-4.8-1.5-9.6-1.3-14.5 0-.4-.1-.8-.2-1.2-.8.5-1.1 1.1-1.2 1.7-1.7 8.3-4.2 16.5-5.1 25-.9 9-1.3 17.9-1.8 26.9-.2 4.6.4 9.2-1.5 14.5 2.8-1.6 4.9-2.7 6.9-3.9 1.6-1 3.2-2.1 4.8-3.1 2.1-1.4 4.2-1.2 6.3.2.8.5 1.5 1.2 2.2 1.8 2.1 1.6 3.4 1.6 5.4 0 1.2-1 2.4-2 3.5-3 4.7-4 9.9-6.8 16.1-7.9 1.7-.3 3.3-.3 4.9.4 3.4 1.5 6.8 2.9 10.1 4.3 1 .4 2.1 1 3 .8 3.7-.5 7.2-1.5 10.2-3.8 2.3-1.8 4.7-3.7 7.1-5.3 1.5-1 2.7-2.1 3.1-4.1.3-1.2 1.2-2.3 2-3.3 1.2-1.7 2-3.4 1.9-5.5 0-.8.4-1.5.7-2.3.6-1.6 1.6-3.2 1.9-5 .8-4 2.5-7.6 4.6-11.1 3.9-6.7 6.5-14 8.4-21.5 1.2-4.6 1.9-9.3 2.5-14 .6-4.2.8-8.5 1.4-12.7 1.7-10.1 3.5-20.1 5.3-30.1.9-5.1 1.9-10.3 2.6-15.4.9-6.7 1.5-13.4 2.2-20.1 1-8.4 2.3-16.7 2.9-25.1.4-6.1 1.5-12.2 2.1-18.4.7-7.9 1.4-15.3 1.4-22.8z"/>
</svg>
