<svg id="Hair_1" xmlns="http://www.w3.org/2000/svg" viewBox="-195 426 400.3 374">
    <style>
        .st0{fill:#fff}
    </style>
    <path class="st0" d="M188.4 592.6c1.5-.8 3.3-1.4 5.6-1.9 1.4-.4 3-1 3.9-2.8l3.3-6.3c.4-.6.7-1.6.4-2.4-1.1-3.1-2.7-5-4.5-5.9l-.5-.2-.4.4c-.6.7-1.1 1.3-1.6 2-.9 1.5-2.4 2.6-4.2 3.1-2.2.6-4.7.1-6.9-1.2-1.4-.9-2.1-1.9-2.2-3.1 0-.4-.1-.8-.1-1.2-.1-1.2-.2-2.3-.1-3.5.2-2.3-.1-4.7-3.6-5.8-2.2-.6-3.7-2.3-4.2-4.4-1-4.4-3.9-7.2-6.8-9.9l-.5-.5-.4.1c-.8.2-1.6.4-2.3.6-1.9.5-3.7.2-5.5-.8-2.2-1.3-3.3-3.2-3.7-6.2-.1-.8-.2-1.6-.3-2.5-.2-2.2-.5-4.5-1.1-6.7-2.1-6.9-5.8-11.5-11.2-14-.9-.4-1.8-.8-3-1.3l-.8-.3-.4 1.3c-.2.6-.4 1.1-.6 1.6-.5 1.2-1.3 1.9-2.4 2.2-2.6.7-5.9-.3-7.5-2.4-.7-.9-1-1.8-1-2.5.1-.7.6-1.4 1.5-2.2.6-.5 1.3-.8 2.1-1.1.3-.2.7-.3 1-.5l.7-.3-.3-.7c-.4-.8-.9-1.7-1.4-2.5-1.2-1.9-1.5-3.7-1-5.5.2-.8.2-1.7.1-2.6-.1-.9-.7-1.7-1.4-2.1-3.5-2.1-7.5-1.7-11 1-3.3 2.6-6.9 2.8-10 .8-2.1-1.5-3.7-3.4-4.7-6-1.2-2.9-3.7-3.9-6-4.5-2.7-.8-4.5.5-5.8 1.7-1.3 1.2-2.8 1.8-4.5 1.6-2.4-.2-4.4-1.2-6.2-3-.1-.1-.3-.3-.4-.5-.6-.6-1.2-1.3-2.1-1.7-4.5-1.8-9.3-3.2-14.4-1.6-2.4.8-4.9.9-7.5.9h-.8c-2.7 0-4.7-.7-6.3-2.1-1.6-1.4-3.4-1.7-5.1-1.9-1.1-.1-1.8-.1-2.4.4-.7.6-.8 1.5-.9 2.7v.5l.5.2c.1 0 .5.3 1 .3 1.3.2 2.5.9 3.3 2 .8 1.1 1 2.4.8 3.7-.4 2.4-2.3 3.6-4.8 3.3-1.7-.2-2.9-.9-3.8-2.2-.8-1.2-1.8-1.6-3-1.8-3.2-.5-4.7-2.4-4.5-5.7 0-.8 0-1.7-.5-2.1-.5-.5-.4-.9-.2-1.9l.1-.2c.4-1.2.6-2.4.9-3.5.3-1.1.5-2.3.9-3.4.8-2.6 1.6-5.3 2.8-7.8.4-.9 1.2-1.8 2.1-2.7.3-.3.5-.6.8-.8.3-.3.7-.6 1.4-1l1.2-.8-1.1-.6c-4.3-2.5-5.6-6.5-7-10.8l-.1-.3c0-.1-.1-.3-.1-.5-.1-.2-.1-.4-.2-.6-.9-2.2-1.7-3.5-4.7-2.8-1.1.3-2.3 0-3.4-.8-2.1-1.8-4.6-2.2-7.7-1.4-3.5 1-6.3 2.6-8.7 4.9-.7.7-1.5 1.4-2.5 1.5-.7 0-1.2-.2-1.4-.8-.2-.3-.3-.7.3-1.2.1-.1.3-.2.4-.4.3-.2.5-.5.8-.8.6-.9.8-1.7.6-2.4-.2-.7-.8-1.3-1.7-1.8-1.2-.6-2.5-1-4-1.3-2.3-.6-4.7-1.1-6.9-1.6-3.3-.7-5.3-2.4-6-5.1-.1-.4-.4-.6-.7-.7-.1 0-.2-.1-.3-.2l-.8-.5-.3.9c-.4 1.2-1.4 2-3.2 2.6-.7.2-1.1.7-1.5 1.1l-.2.2c-3.9 4.2-8.6 5.6-14.3 4.5-1.6-.3-3.1-.4-4.6-.5-.4 0-.7 0-1.1-.1-1.1 0-2.6.2-3.5 1.7l-.1.2v.2c0 1.5 1.2 2 1.9 2.3 1.1.6 1.5 1.1 1.4 1.9-.1 1-.6 1.4-1.8 1.7-5.2 1.6-9.6.9-13.3-2l-.1-.1c-.3-.1-.5-.4-.8-.6-1.6-1.7-3.5-2-5.7-.9-1 .5-2 1-2.9 1.4-.6.2-1.1.4-1.7.7-2.6 1.1-5 2-7.8 1.6l-.6-.1-.2.5c-1.2 2.6-1.2 2.6-4 2.5-2.2-.1-3.8.5-5.2 1.8-1 1-2 1.9-3.1 2.8-1.9 1.7-3.8 3.4-5.5 5.3-1.8 2-3.9 2.3-7.1 2.1-2.2-.2-4.5-.3-6.6-.4h-1.7c-.7 0-1.4.1-2-.1-2.3-.5-4.4 0-6.5.4-.5.1-1.1.2-1.7.4-.6.1-1.2.4-1.7.7-.3.2-.7.4-1 .5l-1.6.6 1.6.7c.3.1.6.3.9.4.9.4 1.7.7 2.3 1.2 1.2.8 1.8 2 1.8 3.2 0 1.3-.6 2.5-1.7 3.4-1.7 1.5-4.2 1.6-6.3.3-.5-.3-1-.6-1.6-1l-1.4-.9-.4.8-1.5 3c-1 1.9-1.9 3.8-2.8 5.6-.8 1.5-.7 3.2.3 5 .8 1.4 1.2 3 1.4 4.3.3 2.3.3 3.9-.8 5.3-1 1.1-2.2 2.4-3.6 3.7-1.5 1.3-3.1 1.8-5.2 1.6-1-.1-2 0-3.1 0h-2.2l-.1.6c-.3 1.2-.6 2.5.7 3.8.5.5 1.1 1.1 1.1 1.5 0 .4-.6 1-1.3 1.5-1.1 1-2.3 2.1-2.6 3.9-.2.9-.9 1.4-2.2 1.5-.8.1-1.9 0-2.8.1-5.5.3-10.1 4-11.6 9.1-.2.6-.3 1.2-.1 1.9.2 2 .2 2-1.6 2.9-2.1 1.1-4.3 2.5-5.2 5.1l-.3.9c-.4 1.2-.8 2.3-1.1 3.5-.4 1.3-.2 2.5.6 3.6.7.9.7 1.3-.1 2.2-.6.6-1 1-1.6 1.4-3.1 1.7-5.7 4.3-8.1 8.1-1.3 2-2.7 4.5-1.9 7.5.1.5-.3 1.4-.6 2.1-.3.5-.8 1.1-1.2 1.6l-.4.4c-1.2 1.3-1.9 2.9-2.4 4.4l-.2.6.5.3c1.7 1.2 3.8 2.2 6.5 1.5 1.6-.5 3.2-.2 4.6.6 2.2 1.3 3.6 3.3 4.1 5.4.4 2.1-.2 4.3-1.6 6.2-1 1.3-1.4 2.6-1.2 4 .4 3.4-.9 6.3-3.7 8.8-.3.2-.6.5-.8.7-.5.4-1 .9-1.5 1.4l-.7.7c-.6.6-1.2 1.3-1.7 2.1-1.3 2.3-.4 3.6 1.5 4.9l.3.2.4-.1c1.7-.6 2.5-1.9 3.2-3.2.2-.3.3-.6.5-.8.9-1.3 1.8-2.1 2.8-2.3 1-.2 2 .1 3.3 1 1.7 1.2 3.3 1.5 5.4.8 1.3-.4 2-.1 2.7 1.2l.6 1.5c.1.3.2.6.3.8.3 1 .6 2 1 3.1l.2.6.6-.1c.7-.1 1.3-.2 1.8-.3 1.4-.1 2.3.3 2.9 1.2 1.7 2.8 4.1 4.9 6.5 6.9l.9.8c.8.7 1.2 1.6 1.3 2.5s-.3 1.8-1 2.6c-.8.9-1.7 1.8-2.6 2.5l-.6.6c-.9.8-1.9 1.7-2.9 2.6l-.5.5.5.6c1 1.1.9 2.3.3 3.8-1.5 3.5-3.7 6.2-6.8 8-.9.5-1.8 1-2.7 1.6-1.5.8-3.1 1.7-4.6 2.7-1.4.9-2.9 2-4.3 3.3-1.4 1.1-1.7 2.8-.8 4.4.5.9 1.3 2.2 2.3 3.3.9.9 1 1.6.6 2.5-.1.1-.2.3-.2.4-.2.3-.3.6-.5 1-.8 2.2-1.7 4.9-.8 7.7.3 1 .8 1.7 1.5 2 .7.3 1.5.2 2.5-.3.8-.5 1.6-1 2.2-1.6l4.5-4.5c1.7-1.5 2.9-1.6 4.6-.4 1.4 1 2.6 2.2 3.9 3.5.9 1 1.4 1.9 1.3 2.5-.1.7-.6 1.4-1.8 2.3-2.5 1.8-5 3.6-7.4 5.5-1.6 1.3-3.1 2.7-5 4.5-.8.8-1.1 1.8-1 2.7.2.9.8 1.7 1.7 2.1 1.1.6 1.5 1.5 1.8 2.7l.1.3c.3 1.2.5 2.2.5 3.4 0 .8 0 1.6.1 2.4.2 2.6.3 5.1-1.2 7.4-.3.5-.5 1.1-.3 1.6l.1.8c.4 1.8.7 3.7 1.7 5.6l.5.9.7-.7c.1-.1.3-.2.4-.3.2-.1.4-.3.6-.6.9-1.2 2.3-2.4 5.2-.3.4.3.7.7 1.1 1.1l.6.6c.2.3.4.5.6.8.7.9 1.4 1.8 2.2 2.6 1.2 1.2 1.8 2.5 2.3 3.9.2.4.3.8.5 1.2l.3.9.1.4.4.1c1.9.4 3.3.8 4.1 2.4 2.4 5.2 2.5 9.2.2 12.9-.8 1.5-2.1 2.9-3.4 4-3 2.4-3.7 5.6-4 8.3-.3 2.5.7 4.7 2.9 6.1l.3.2.3-.1c.6-.2 1.3-.4 1.9-.8 2.2-1.6 5-2.6 8.2-3.1 2.8-.4 4.2-1.7 5.1-4.6.6-1.8 1.3-3.6 2.2-5.5.5-1 1.2-1.6 1.9-1.7.8-.1 1.6.2 2.4 1 .7.6 1.2 1.3 1.7 2.1l.5.8c.7.9 1.5 2 3 2.2.8.1 1.4.7 2 1.6 1.2 2.1 2.5 4.3 3.8 6.3l1.2 1.8.6.9.5.8.6-.7c.3-.3.5-.6.8-.8.5-.6 1-1.1 1.4-1.7.9-1.3 2.4-2.2 4.2-2.3 1.8-.1 3.5.5 4.6 1.8 1.9 2.2 4.1 4.3 6.2 6.3l1.2 1.2c.8.8 1.6 1.6 2.7 2 1.7.6 2.5 1.6 2.7 3.5.4 3.1 1.2 5.7 2.6 7.7 1.4 2.1 2.9 2.5 5.1 1.2.5-.2.9-.5 1.3-.8.2-.1.3-.2.5-.3 1.5-1 2.9-1 4.3-.2 1.6 1 3.1 2.1 4.6 3.2.7.5 1.4 1 2.2 1.5l3.9 1.8c.5.2.9.4 1.4.6 1.6.7 3.3 1.5 5.1 2 .8.2 1.5.4 2.1.4 2.1 0 3.6-1.3 4.5-3.8.3-.8.5-1.6.6-2.3.2-.7.3-1.4.6-2.1.5-1.4 1-1.8 2.5-1.8h.5c.3 0 .5.1.8.1h.5l.2-.5c.1-.3.2-.6.3-.8l.3-.9c.4-1.3 1.1-2.1 1.9-2.5.8-.4 1.9-.4 3.1 0 .8.3 1.7.8 2.8 1.6.9.5 1.7 1.1 2.5 1.7l.8.6.4-.9c.1-.3.3-.6.4-.9.2-.3.3-.7.4-1l.6-1.8c.3-.8.5-1.5.8-2.3 1-2.6 2.6-3.4 5.2-2.7.5.2 1 .3 1.5.5.3.1.7.2 1 .3l.6.2.3-.6c.3-.6.5-1.3.8-1.9.4-1.1.8-2.1 1.4-3 1.5-2.6 1.9-5.5 1.5-8.9-.1-.4-.1-.8-.2-1.2-.2-.9-.3-1.8-.4-2.7-.3-2.4.4-3.3 2.6-3.9.2 0 .4-.1.6-.1.2 0 .5 0 .7-.1l1.2-.2-.7-1c-.3-.3-.5-.6-.7-.9l-.9-1.2c-1.9-2.3-2-4.1-.4-6.5.7-1.1 1.6-2 2.5-2.9 3.4-2.7 4.6-6.3 3.8-10.7-.3-1.6.1-3 1.2-4.4.5-.7 1.1-1.5 1.4-2.4 1.3-3.2 2.6-6.6 3.8-10 1-2.8-.1-6.7-2.6-8.6-.6-.4-1.2-.8-1.9-1.2-.7-.4-1.5-.9-2.1-1.4-4-3.3-8.2-7.1-13-11.4-5.3-4.7-10-9-14.7-13.4l-.7-.6c-2.2-2.1-4.6-4.2-6.3-6.6-3.5-4.8-6.7-9.9-9.9-14.8-1.5-2.3-3-4.7-3.9-7.3-2.3-6.4-2.6-13.6-.8-21.4.3-1.4 1.2-2.8 1.8-3.5 1.1-1.5 2.6-2 4.2-1.4l.5.1c2 .6 3.3 1.1 3.5 3.1l.1.7.7-.1c1-.1 2.4-.4 2.8-2.1l.1-.3c.1-.4.3-1 .5-1.2 1.7-1.4 1.7-3.2 1.8-4.8v-.3c.1-2.7.2-5.5.9-8.1.9-3.9 2.8-7.1 5.5-9.4 1.8-1.7 2.1-4.3.7-6.5-.8-1.2-.9-2.5-.4-3.7 1.5-3.7 1.9-7.4 1.2-10.9-.5-2.2.1-4.1 1.6-5.7 1.6-1.7 2.7-1.8 4.5-.7.4.2.7.5 1.2.8.3.2.6.4 1 .7l.5.3.4-.4c2.8-2.8 4.5-6 5.1-9.5.1-.6.1-1.2 0-1.8 0-.4-.1-.8 0-1.1.1-1.3.6-2.1 1.7-2.4.6-.2 1.2-.2 2.4 1.4.1.2.3.5.6.8l.7.7.5-.8c.3-.4.6-.9.8-1.3.4-.6.8-1.2 1.2-1.9l3.3-5.7c1.3-2.3 2.6-4.6 4-6.9.9-1.4 1.7-2.2 2.5-2.4.9-.2 1.9.1 3.4.9.3.2.7.2.9.1h.5l.2-.5c.3-.7.6-1.4.8-2.1.4-1 .7-1.9 1.1-2.8.3-.6.8-1.1 1.4-1.3.6-.2 1.3-.1 1.8.2.5.3 1 .7 1.3 1.2.4.4.7.9 1.1 1.3.4.5.7 1 1.1 1.4 1.6 2 3.3 3.2 5.3 3.7l.6.2.3-.6c.2-.3.3-.6.5-.9l.3-.6c1-2 2.7-3.1 4.8-3.1 1.6 0 2.4-.8 3-1.7.3-.4.6-.9.9-1.3.5-.8 1-1.5 1.6-2.1.8-.9 1.7-1.3 2.6-1.2.9.1 1.7.8 2.3 1.8.1.3.3.5.4.8.3.5.5 1 .8 1.6l.3.7.7-.3c1.7-.7 3.1-.6 4.4.4 1.7 1.3 2.8 2.9 3.1 4.7.2 1.2.7 2 1.8 2.9.9.7 1.4 1.8 1.7 3.3.7 2.6.3 5.2-.2 8-.8 4.3-.4 5.4 3.4 7.9l.1.1c1.5.9 3.2 2 4.2 3.3 2.3 3.3 3.5 6 3.9 9 .3 2.5 1.4 4.6 3.1 6.3 2.4 2.2 3.5 5 3.5 8.8v11.7c-.1 3.4.6 6.4 2.1 9 1.3 2.4 2.1 4.8 2.9 7.7.8 2.4.9 4.7.3 6.8-.3.9-.6 1.8-.8 2.7-.2.9-.5 1.8-.8 2.7v.1c-.8 2.6-1.6 5.3-.3 8.1.6 1.3 1.2 2.7 2.2 3.9 3 3.4 4.5 7.5 4.7 12.6.2 3.8 1 7.6 5 9.6.1.1.1.1.2.1 0 0 .1 0 .1.1 2.2 2 3.1 4.1 2.8 6.3-.3 2.3-1 4.6-1.6 6.3-2 5.8-.9 11 3.3 15.4 1.2 1.2 2 2.6 2.6 4.2 1 2.7 1.7 5.6 2.4 8.4.6 2.4 1.1 4.8 1.9 7.1.1.5.1 1.1.1 1.7.2 4.2-.2 7.9-1.2 11.4-1 3.6-.1 6.3 2.7 8.5 1.9 1.5 2.9 3.7 3.1 6.9.1 1 0 2 0 3v1.5c0 1.3.1 2.7 1 4 1 1.6 2 3 3.1 4.2 1.9 2 2.5 4.6 3.1 7.3.2.7.3 1.3.5 2 .1.2.1.5.2.7.1.2.1.3.2.5l.4 1.6.9-1.4c.6-.9.8-1.6.9-2.3l.1-.4c1-3.6.4-6.9-1.6-10.1-.4-.6-.7-1.1-1-1.7-.2-.3-.3-.6-.5-.9-2.3-4.3-.4-10.8 2.7-13.3 1.3-1.1 2.6-1.6 3.8-1.4 1.1.1 2.2.9 3.2 2.3.7.9 1.3 2 1.8 3.1.2.4.4.8.6 1.1.7 1.4 1.7 2.8 4.1 2.5 1.9-.2 3.6.4 5.4 2.1.5.5 1 .9 1.6 1.4l.4.3.5-.3c.8-.5 1.5-1.1 2.2-1.6 2-1.6 3.8-3 6.5-2.2l.9.3v-1c.1-3.2 1.1-4.7 3.9-5.6.9-.2 1.8-.3 2.7-.4.5 0 1-.1 1.5-.2.9-.1 1.8-.2 3.2-.3l1.9-.1-1.5-1.2c-2.7-2.2-3.5-4.2-2.5-6.6.5-1.2 1-1.9 1.4-2 1-.4 2.2-.6 3.6-.8.5-.1.9-.1 1.4-.2h.3l.2-.2c.6-.8 1.3-1.8 2.1-2.9l.1-.1c1.3-1.6 2.8-2.1 4.7-1.4.1.1.3.1.4.2.4.2.8.4 1.3.4 1.6-.1 3 .6 4.6 2.1.4.4 1 .7 1.7 1.1.3.1.6.3.9.5l1 .6.2-2.1c.1-.8.1-1.5.1-2.1 0-3.9 1.2-5.5 5.1-6.6.5-.2.9-.3 1.4-.5.7-.3 1.5-.5 2.4-.8l1.3-.4-1-.9c-.5-.5-1-.9-1.5-1.3-1.2-1.1-2.3-2.1-3.5-2.9-2-1.3-3.2-3.1-3.8-5.7-.5-2.5.1-4.5 2-6.2 1.6-1.4 3.2-1.5 5.8-.3.9.4 1.8.8 2.8 1.2l.7.3.3-.6c1.4-3.1 3.9-4.9 7.7-5.4 2.9-.4 5.4-1.9 7.7-3.4.7-.4 1.4-.9 2.1-1.3.5-.3 1-.8 1.5-1.6 1.4-2.4 1.5-4.8 1.6-7.2v-1l-1.5.4c-1.7.4-3.3.9-4.8 1-2.3.3-3.7-.7-4.6-3.1-.8-2.1-.6-4.3.7-6.8l.4-.7-.8-.3c-.5-.2-.9-.4-1.3-.5-.7-.3-1.4-.5-2-.8-1.7-.8-2.6-1.9-2.9-3.2-.6-2.5-.5-4.7.3-6.6 1-2.4 1.2-4.7.6-7.1-.5-2.3.1-4.1 2-5.7.5-.4.9-.9 1.4-1.3.4-.4.9-.9 1.4-1.3l.6-.6-1.3-1.1c-.5-.5-1-.9-1.4-1.3-1.7-1.8-1.8-4-.3-5.7 1-1.1 1.1-2.2 1-3.6-.5-3.7.8-7 3.6-9.3 3.6-2.9 3.9-6.8 4.1-10.5v-.4c0-.7-.3-1.2-.4-1.4l-.2-.4h-.5c-.7 0-1.4.1-2.1.2-1.2.1-2.3.2-3.3.1-2.2-.3-3.4-1.5-3.5-3.7-.4-3.1.6-5 2.7-6.1z"/>
    <path id="XMLID_586_" d="M205.2 578.9c.3 1 0 2.4-.4 3.4-1.1 2.4-2.4 4.7-3.6 7-1.3 2.4-3.3 3.8-6 4.3-1.5.3-2.9.8-4.3 1.4-1.1.4-1.8 1.3-1.7 2.6.1.4.5.8.7 1.2.3-.2.9-.3 1-.6.7-1.8 2.1-2 3.8-1.9 1.8.1 3.1 1.1 3.6 2.8.8 2.6 1.6 5.2.6 8-.2.6-.4 1.3-.5 2-.3 2.8-1.5 4.9-3.7 6.7-2.4 1.9-3.8 4.4-3.4 7.6 0 .2.1.5.2.8 1 .2 2 .3 3 .6 2.7.8 3.2 2.5 2.3 5.1-1.5 4.2-4.3 7.5-7.6 10.3-1.3 1.1-1.9 2.5-1.4 4.1.7 2.5.2 4.9-.6 7.2-.1.3-.3.6-.4 1-1 3.8-.2 5.4 3.5 6.7.8.3 1.6.5 2.4.8 1.9.8 2.3 2.4 1.3 4.1-.2.3-.4.6-.6.8-1.4 1.7-1.4 3.4-.1 5.4 1.1-.3 2.2-.5 3.3-.9 1.1-.4 2.2-1 3.3-1.4 2.2-.7 4.1.5 4.1 2.8 0 3.7-.2 7.5-2.2 10.8-.6.9-1.3 1.9-2.2 2.5-3.6 2.4-7.2 4.9-11.6 5.5-2.5.3-4.2 1.5-5.2 3.9-.9 2-2.5 2.6-4.7 2-1.2-.4-2.4-.9-3.5-1.5-1.9-.8-3-.2-3.1 1.8-.1 1.9.6 3.5 2.1 4.7l5.1 4.2c3.2 2.7 2.9 5.2-.9 7-1.4.6-2.9 1-4.3 1.5-1.8.6-1.9.9-2 2.8-.1 1.5-.1 3.1-.5 4.5-.5 2-2 2.9-4 2.9-1.8-.1-3.6-.6-4.9-1.8-1-.9-1.9-1.6-3.3-1.5-.9.1-1.8-.4-2.7-.7-1.9 1.8-3 3.9-3 6.6-.1 4.9-4.2 9.1-9.1 9.2-.9 0-1.7-.1-2.6 0-1.2.1-2.4.4-3 1.7.4 1 .9 2 1.2 3 .4 1.3.2 2.6-.9 3.5-1.1.9-2.4 1-3.6.4-1.1-.5-2-1.2-3.3-1.9-1.5 1.2-3.1 2.4-4.6 3.6.4 1.5.7 2.8 1.1 4 .8 2.4.1 4.7-.7 7-.2.5-.6 1.1-.9 1.5-2.3 2.9-5.6 2.4-7-1-1-2.5-1.3-4.9.1-7.4.4-.7.7-1.4.9-2.1.3-.9 1.3-1.7.4-2.8s-1.8-2.3-3.5-2.4c-.5 0-1-.1-1.5 0-2.6.1-4.4-1.1-5.6-3.3-.5-.9-.9-1.9-1.4-2.7-.6-1-1.3-1.9-1.9-2.9-3.5 2.4-4.7 7.2-2.8 10.7l2.4 4.5c1.8 3.6 1.5 7.2.6 11-.2.9-.4 1.8-.6 2.8l.9.6c4.4 2.2 6 8 3.5 12.2-1.8 3-7.1 3.3-9.6.5-2.1-2.4-2.4-5.1-1.3-8.1.3-.8.7-1.6 1.1-2.5-.4-.4-.8-.8-1.3-1.2-1.4-1.1-2.1-2.6-2.4-4.3-.2-1.1-.5-2.1-.7-3.2-.4-2.4-1.6-4.4-3.3-6.2-2.5-2.7-4-5.9-3.7-9.7 0-.7-.1-1.4 0-2 .2-3-.8-5.3-3.1-7.4-2.7-2.3-3.5-5.5-2.8-9.1.5-2.7 1.6-5.2 1.3-8 0-.4-.1-.8-.1-1.2-1.6-.2-3.2-.1-4.5-.6-1.3-.4-2.5-1.4-3.7-2.2-2.1-1.4-2.6-3.5-2.3-5.8.3-2.5 2.5-4.2 5.5-4.4.8-.1 1.7 0 2.8 0-1.3-3.5-1.7-7-4.4-10-4.2-4.5-5.5-10-3.7-16.1.4-1.5.9-2.9 1.3-4.4 1.1-3.5.7-5.1-2.2-7-3.2-2.1-4.7-5-5.1-8.7-.2-2-.7-4-.8-6.1-.2-2.6-1.4-4.7-2.9-6.7-.6-.8-1.2-1.6-1.8-2.5-2.7-4.1-3.2-8.5-1.2-13.1.7-1.5 1.1-3.2 1.5-4.9.5-2.1.4-4.2-.3-6.3-.8-2.3-1.5-4.7-2.6-6.9-1.8-3.3-2.6-7-2.5-10.8s0-7.7 0-11.5c0-2.5-.7-4.6-2.7-6.3-2-1.8-3.2-4.1-3.7-6.8-.4-2.4-1.2-4.7-2.4-7-.9-1.7-2.2-3-3.8-4-.3-.2-.6-.4-.9-.5-4.1-1.9-5.3-5.2-4.6-9.5.2-1.3.3-2.6.6-3.8.7-2-.1-3.8-.5-5.7 0-.2-.3-.3-.3-.3-2.9.9-5.7 1.6-8.4 2.5-.6.2-1.3.4-1.8.9-1.4 1.2-2.9 2.4-4.2 3.8-2 2.1-2.7 4.7-2 7.5.5 2.1 1.1 4.1 1.2 6.2.2 3.1-1.4 5.4-4.3 6.5-1.8.7-3.6.9-5.5.7-1.5-.2-3-.3-4.6-.4-3.2-.1-5.8 1.5-6.9 4.5-.8 2.4-1.4 4.9-2.1 7.3-1.4 5.5-7.5 7.5-11.8 3.8-.9-.8-1.6-1.7-2.5-2.6-.8-.8-1.6-1.5-2.4-2.3-.9.8-1.5 1.4-2.2 2-1.2 1-2.6.9-3.4-.1-.7-.8-.5-1.9.4-3l.2-.2c3.3-3.5 6.1-3.6 9.6-.2.9.9 1.7 1.9 2.5 2.9.8.8 1.6 1.6 2.9 1.2 1.4-.4 2.1-1.3 2.4-2.6.6-2.5 1.3-5.1 2.1-7.6 1.6-4.7 6.1-7.5 11.1-7.1 1.8.1 3.5.3 5.3.5 3.1.3 4.9-1.4 4.5-4.5-.2-1.4-.6-2.8-1-4.2-1.3-4.7.3-8.5 3.6-11.8 1-1 2.2-1.9 3.3-2.9 1.4-1.2 2.9-2 4.7-2.3 1.2-.2 2.3-.5 3.5-.9 2.7-.9 2.9-1.9 1.1-4.3-.1.1-.3.1-.4.2-2.5 2.8-5.1 2.3-6.3-1.2-.3-.7-.5-1.4-.8-2.6-1 1.3-1.8 2.3-2.5 3.4-1.1 1.6-2.4 2.6-4.5 2-1.1-.3-1.8.3-2.2 1.2-.2.4-.3.8-.5 1.2-1.2 2.7-3.1 3.5-5.8 2.1-2.5-1.2-4.9-2.8-6.7-5-.4-.4-.6-1-.9-1.5l-.6.3c-.3 1-.6 2-.9 3.1-1.1 3.5-3.2 4.2-6.2 2.2-.3-.2-.7-.5-1.2-.8-.4.5-.8.9-1.1 1.3-2.4 4-4.6 8.1-7.1 12.1-1 1.7-2.3 3.2-3.6 4.6-.5.6-1.3 1.3-2.1 1.4-1.7.3-2.3 1.4-2.8 2.8-1 2.7-2.7 4.9-4.7 6.9-1.9 1.8-3.8 1.8-6 .3-.4-.3-.8-.6-1.3-.9-1.5.8-1.3 2.2-1 3.4.8 3.3.2 6.4-.6 9.6-.2 1-.6 1.9-1 3 .3.4.7.9 1 1.4.3.7.8 1.4.8 2.1-.2 2.6-.4 5.3-2.7 7.1-2.5 2-3.5 4.7-4.6 7.4-.9 4.3-1.2 7.5-1.1 9.7.1 1.7 0 3.2-1.5 4.4-.2.2-.4.4-.4.6.1 2.5-2 3.6-3.1 5.3-1.8 2.7-6.3 2.8-8.5.4-1.2-1.4-.9-2.5 1-3.8-1.7-1.2-2-1.2-2.6.5-.5 1.2-.8 2.6-1 3.9-.7 5.8-.9 11.7 1.3 17.3.9 2.3 2.3 4.4 3.6 6.4 2.3 3.6 5 7.1 7.2 10.8 2.8 4.9 6.8 8.7 11 12.2 3.1 2.6 5.9 5.4 8.8 8.1 5.2 4.7 10.5 9.5 15.8 14.1 1.2 1.1 2.8 1.6 4 2.7 2.3 2.1 4.6 4.3 6.7 6.6 2.1 2.1 4 4.4 6.1 6.5 2.2 2.2 5.1 2.2 7.8 2.5 7.4.6 13.6-2.3 19-7.1l6.6-6c.8-.7 1.6-1.4 2.7-1.1.7.2 1.4.7 1.7 1.3.2.4 0 1.4-.4 1.8-5.6 5-10.7 10.8-18.1 13.4-4.4 1.6-8.8 1.8-13.3 1.4-4.5-.5-8.4-2.1-11.1-5.9-.6-.9-1.5-1.6-2.4-2.6-1.1 2.6-2.2 5-3 7.5-1 2.7-1.6 5.6-3.5 7.8-.6.7-.5 1.5-.4 2.4.2 1.9.2 3.9-.1 5.8-.4 3-2.6 4.9-4.5 7-.2.3-.5.4-.8.7-2.7 2.6-2.7 3.6-.3 6.4.5.6 1.1 1.1 1.6 1.7.4.5.9 1.1 1.2 1.6 1 1.9 1 3.7-.2 4.7-1.5 1.3-3 .9-4.5 0-.3-.2-.8-.3-1.5-.6.2 1.7.4 3.1.6 4.4.6 3.4.2 6.6-1.6 9.6-.7 1.3-1.3 2.8-1.7 4.2-1.1 3.4-3.1 4.4-6.5 3.3-.7-.2-1.4-.5-2.4-.9-.4 1.1-.7 2-1 2.9-.5 1.3-.8 2.6-1.4 3.8-1.3 2.8-3.7 3.6-6.3 2.1-1.1-.6-2.1-1.5-3.1-2.2-.5-.3-1-.6-1.7-1-.3.7-.5 1.3-.7 1.9-1 3.3-1.6 3.8-5 4.2-.3 1.1-.7 2.2-1.1 3.3-1.6 4.4-5.6 6.6-10.2 5.4-1.4-.4-2.7-.9-4.1-1.4-.9-.3-1.7-.6-2.9-1v3.2c.1 1.8-.6 3.3-2.2 4.3-1.7 1.1-3.4 2.3-5.2 3.2-1.1.6-2.4.8-3.7.9-3.6.2-6.3-2.7-6.4-6.8-.1-4.3 2.2-7.2 5.8-9.2.6-.3 1.2-.6 1.8-.8.1 0 .1-.1.1-.2-1.7-1.8-1.8-1.8-3.5-.8-.4.2-.7.5-1.1.7-4.4 2.7-8 .4-10-2.5-1.6-2.3-2.3-4.9-2.8-7.6-.3-1.3-.8-2.1-2-2.7-.9-.4-1.6-1.2-2.4-1.9l-7.2-7.2c-1.7-1.7-2.5-1.7-4.1.2-.7.8-1.4 1.5-2.1 2.2-2.2 2-5.1 1.8-6.9-.6-1.2-1.6-2.1-3.3-3-5-1.1-1.9-2.3-3.6-4.5-4.7-1.5-.8-2.6-2.3-4.2-3.8-.5 1.3-.9 2.6-1.5 3.8-.7 1.4-1.5 2.8-2.4 4.1-.8 1.1-2.1 1.7-3.5 1.9-3.2.4-6.3 1.3-9.1 3.1-.6.4-1.2.6-1.8.9-1.8.9-3.5.5-5-.8-4.3-3.7-5.2-8.1-2.8-13.6.9-2 2.1-3.8 3.9-5.2 4-3.3 5.4-7.3 2.6-13.4-.4-.1-.9-.2-1.4-.2-1.8-.1-3.1-1.1-3.3-2.7-.5-3.3-2.7-5.6-4.7-8-.5-.6-1.1-1.3-1.7-2-.8.7-1.5 1.3-2.2 1.8-1.7 1.3-3.6 1.3-5-.2-.7-.8-1.4-1.8-1.7-2.8-.6-1.7-1.1-3.6-1.6-5.4-.5-1.7-.3-3.3.6-4.9 1.1-1.9.4-4.1.5-6.3-.6-.1-1.1-.3-1.6-.4-1-.3-1.6-.9-1.6-2-.1-2.6-.3-5.2-.5-7.9-.2-1.9.6-3.2 1.9-4.5 3.8-3.6 7.9-6.7 12.1-9.7.2-.1.4-.3.8-.7-1-1.1-2-2.1-3.2-3.4-1.4 1.3-2.6 2.5-3.8 3.6-1.2 1.1-2.4 2.2-3.7 3-4.5 2.6-9.1.3-9.7-5-.3-3 .2-5.9 1.6-8.8-.4-.6-.9-1.3-1.4-2-2.9-4.2-2.4-8 1.7-11.1 1.1-.9 2.4-1.6 3.7-2.3 2.3-1.4 4.7-2.7 7.1-4.1 2.6-1.5 4.3-3.8 5.7-7.3-.6-.6-1.2-1.3-1.9-1.8-2.7-1.8-3.1-4.8-3.5-7.6-.2-1.4.9-2.6 2.1-2.8 1.3-.2 2.3.4 2.9 2 .5 1.3.8 2.6 1.3 4.3 1.9-2.1 4.5-3 5.6-5.6l-8-8c-.4.1-1 .1-1.7.2-2.4.3-3.6-.5-4.4-2.9-.5-1.4-.9-2.7-1.4-4.1-2.8.2-5.4-.1-7.6-2.3-.6.8-1 1.5-1.5 2.1-.7.9-1.4 1.9-2.3 2.7-2.4 2-4.9 2.1-7.2.4-2.4-1.7-3.1-4.4-2.1-7.2.8-2.3 2.5-3.8 4.3-5.2 1.8-1.4 3.4-2.8 4.2-5.4-.7.2-1.1.3-1.5.5-.9.4-1.8 1.1-2.7 1.4-2.3.7-4.5-.9-4.8-3.3-.3-3.4 2.5-7.7 5.7-8.8 2-.6 3.7 0 5.4 1.1 1.3-1.4 1.3-2.9.4-4.4-1-1.6-2.1-3-4.3-2.4-3.5.9-6.5-.6-9.4-2.2-1.8-1-2.1-2.2-1.3-4.1.9-2.1 1.8-4.2 3.6-5.8.7-.6 1.2-1.4 1.1-2.5-.5-3.5 1.1-6.3 2.9-9 1.1-1.6 2.3-3.2 3.6-4.6 1.4-1.4 3-2.5 4.5-3.7-.5-4.9.9-9.2 3.5-13.3.6-.9 1.6-1.5 2.5-2.2 1.2-.8 1.7-1.8 2.2-3.2 2.2-7.4 6.9-12.2 15.4-12.6.4 0 .8 0 1.3-.1.8-1.2 1.7-2.5 2.4-3.5-.2-2-.5-3.8-.5-5.5.1-2.3 1.4-3.6 3.7-3.8 1.3-.1 2.7 0 4.1.1 5.1.1 8.2-3.6 7.1-8.6-.1-.5-.2-1.1-.5-1.4-2.9-3.9-1.3-7.6.7-11.2 1.6-3 2.9-6.1 5.4-8.6.5-.5.6-1.4.8-2.1.5-2.5 1.9-4.1 4.3-5.2 2.9-1.3 6-1.8 9.1-2.4.3-.1.7-.1 1-.1l13.5.9c1.5.1 2.8 0 3.9-1.2 2.6-2.7 5.4-5.1 8.1-7.8 2-2 4.5-3 7.3-3.2.3 0 .7-.1 1.1-.2.2-1 .3-2 .5-3 .3-1.8 1.1-2.8 2.4-2.9 1.5-.1 2.3.8 2.9 2.1.2.4.4.7.7 1.2 2.2-.1 4.1-1.1 6-1.9 1.2-.5 2.3-1 3.5-1.5 3.4-1.5 6.5-.9 9.1 1.6 2.2 2 4.6 3.1 7.8 2.4-.2-.4-.3-.7-.5-1.1-1.2-2.4-.7-4.4 1.7-5.9 2.8-1.8 5.8-1.7 8.9-1.3 1.1.1 2.2.5 3.2.7 3.5.6 6.5-.3 9.1-2.5-1.9-1.5-3.7-2.8-5.2-4.3-2-1.9-2.2-5-.6-7.2 3.2-4.6 8.9-3.6 11.4.2.6 1 1.1 2.1 1.6 3.3h1.7c2.1.1 3.7 1 4.7 2.9.3.5.5 1.1.7 1.7.4 1.7 1.6 2.5 3.2 2.9 2.2.5 4.5 1 6.7 1.6 1.7.5 3.5.9 5.1 1.6 1.4.7 2.7 1.7 4.4 2.8.4-.2 1.3-.7 2.2-1 3.3-1.3 6.6-2.4 10.1-1.1 2.8 1 5.3 2.2 8.4 2.1 1.9-.1 3 1.8 3.8 3.4.6 1.3 1.1 2.7 1.5 4.1 1 3.5 2.7 6.5 5.8 8.7 2.7 1.9 2.4 4.2-.6 5.7-2 1-3.2 2.5-4 4.4-.5 1.3-1 2.7-1.4 4.1-.2.8-.6 1.8-.4 2.5.6 1.9.4 3.6-.9 5.1-.2.2-.1.7 0 1 .9 1.3.6 2.6.1 3.9-.1.4-.1 1.1.2 1.4.3.4.9.8 1.4.8.3 0 .7-.6.8-1 .3-.9.3-1.8.5-2.7.9-4.2 3.6-6 7.9-5.3 2.4.4 4.8.9 6.7 2.7.8.8 2.3 1.1 3.5 1.3 2.4.3 4.8.1 7.1-.6 6.2-2.1 12.1-.7 17.8 1.8 1.2.5 2.2 1.6 3.2 2.4.7.5 1.2 1.1 1.9 1.6 1.5 1 3.1 1 4.4-.4 2.6-2.6 5.7-2.8 9-2.1 3.7.9 6.8 2.7 8.4 6.4.5 1.1 1.1 2.1 1.8 3 2.3 2.7 4.6 2.9 7.3.6 1.7-1.4 3.6-2.3 5.6-2.8 1.1-.2 2.2-.3 3.3-.1 1.7.3 3.5.8 5.2 1.3 3.1 1 4.8 3.8 4.2 7-.3 1.7-.8 3.3.3 4.9 1.4 2.2 3 4 5.5 5.1 3.2 1.5 6.4 3.1 9.5 4.9 2.5 1.4 4 3.9 5.5 6.3 1.4 2.5 2.6 5.1 4 7.7 0 0 .3-.1.3-.3 1.4-2.8 3.7-3.7 6.2-1.9 3.5 2.5 6.1 5.7 6.2 10.3.1 1.9.3 3.9.6 5.8.1.6.5 1.3.9 1.7 2.7 2.7 4.9 5.6 5.8 9.4.3 1.2 1.1 2.1 2.3 2.6.8.3 1.6.7 2.3 1 2.1.8 3.2 2.4 3.3 4.7.1 1.9.1 3.7 0 5.6 0 1.3.1 2.4 1.5 2.9 1.5.6 3 .8 4.3-.4.6-.6 1.1-1.3 1.6-2 2-2.9 4.7-3.5 7.7-1.7 2.9 2.1 4.9 4.9 6 8.2zm-4.6 2.3c.2-.5.5-1.2.3-1.7-1-2.4-2.2-4.5-4.9-5.6-.6.7-1.1 1.2-1.5 1.9-2.2 3.8-7.6 4.9-12.2 2.1-1.3-.8-2.3-2-2.5-3.7-.1-1.6-.3-3.2-.2-4.8.2-2.5-.4-4.2-3.1-5-2.5-.7-4.1-2.6-4.7-5-.9-4.3-3.9-7-6.8-9.8-.9.2-1.6.5-2.3.6-2.2.4-4.2.2-6.1-.9-2.6-1.5-3.7-3.8-4.1-6.7-.4-3-.5-6.2-1.4-9-1.8-5.8-4.9-10.8-10.8-13.5-1-.4-1.9-.9-3-1.3-.3.9-.5 1.6-.8 2.2-.6 1.3-1.6 2.2-2.9 2.6-2.8.9-6.4-.3-8.3-2.7-1.7-2.2-1.5-4.1.7-5.7.9-.7 2.1-1.1 3.2-1.7-.5-.8-.9-1.6-1.4-2.4-1.2-1.9-1.7-3.8-1.1-6.1.2-.7.3-1.5.1-2.3-.1-.6-.5-1.3-1-1.6-3.3-2-6.9-1.5-10.2 1-3.5 2.7-7.4 3-10.9.8-2.4-1.5-4-3.7-5-6.3-1-2.5-3.1-3.4-5.5-4.1-2.1-.6-3.6.2-5.1 1.5-1.4 1.3-3.1 2-5.1 1.8-2.6-.2-4.9-1.4-6.7-3.2-.7-.7-1.4-1.6-2.3-2-4.4-1.9-9-3.2-13.9-1.6-2.8.9-5.7 1-8.6 1-2.6 0-4.9-.6-6.8-2.3-1.4-1.2-3-1.6-4.7-1.7-2-.2-2.4.2-2.5 2.4.2.1.5.1.7.2 3.2.5 5.3 3.4 4.7 6.6-.5 2.8-2.8 4.4-5.6 3.9-1.8-.3-3.3-1.1-4.3-2.5-.6-.9-1.3-1.3-2.5-1.5-3.6-.6-5.3-2.8-5.1-6.4 0-.5 0-1.3-.3-1.6-.9-.9-.6-1.7-.3-2.8.7-2.3 1.2-4.6 1.8-6.9.8-2.7 1.6-5.4 2.8-7.9.6-1.4 2-2.5 3-3.7.4-.4.9-.6 1.7-1.2-4.7-2.6-6-7.1-7.4-11.5-.1-.3-.1-.7-.3-1-.9-2.1-1.4-2.9-3.8-2.4-1.5.3-2.9-.1-4.1-1-2.1-1.7-4.5-1.9-7-1.2-3.2.9-6 2.4-8.4 4.7-.9.8-1.7 1.7-3 1.7-.9 0-1.7-.4-2.1-1.2-.4-.8-.2-1.5.4-2.1.4-.4.8-.6 1.1-1.1.9-1.3.7-2.4-.8-3.1-1.2-.5-2.5-.9-3.9-1.3-2.3-.6-4.6-1.1-6.9-1.6-3.3-.7-5.6-2.3-6.6-5.7 0-.1-.2-.2-.6-.4-.6 1.7-2.1 2.5-3.7 3.1-.5.2-1 .7-1.4 1.1-4.1 4.4-9.1 6-15 4.7-1.8-.4-3.7-.4-5.6-.5-1.1 0-2.2.2-2.8 1.3 0 1.1.8 1.3 1.5 1.6 1 .6 1.8 1.3 1.8 2.6-.1 1.4-1.1 2-2.3 2.4-5 1.6-9.7 1.2-14-2.1-.3-.3-.7-.5-1-.8-1.4-1.5-3-1.7-4.8-.7-1 .5-2 1-3 1.4-3.2 1.2-6.3 2.9-9.9 2.3-1.3 3-1.5 3.1-4.7 2.9-1.8-.1-3.3.3-4.6 1.6-2.8 2.7-5.8 5.2-8.5 8.1-2.2 2.4-4.8 2.6-7.7 2.3-2.2-.2-4.4-.3-6.6-.4-1.3-.1-2.6.2-3.8-.1-2.7-.6-5.2.3-7.8.8-.9.2-1.6.7-2.6 1.2 1.3.6 2.4 1.1 3.4 1.7 2.9 2 2.9 5.6.2 7.8-2 1.6-4.8 1.8-7.2.4-.7-.4-1.4-.9-2.3-1.5l-4.3 8.6c-.7 1.5-.5 2.9.3 4.3.7 1.4 1.2 3 1.5 4.6.3 2 .4 4.2-1 5.9-1.1 1.4-2.4 2.7-3.7 3.8-1.6 1.4-3.5 2-5.7 1.8-1.5-.1-3 0-4.6 0-.3 1.2-.5 2.1.5 3.1 1.9 1.7 1.8 2.4-.1 4.1-1.1 1-2.1 1.9-2.4 3.5-.3 1.4-1.5 2-2.9 2.1-.9.1-1.9 0-2.8.1-5.1.3-9.5 3.7-10.9 8.6-.1.5-.1 1-.1 1.5.3 2.4.3 2.5-2 3.7-2.1 1.1-4 2.4-4.8 4.7-.5 1.4-1 2.9-1.4 4.4-.3 1-.2 1.9.5 2.9 1 1.3.9 2-.2 3.2-.5.6-1.1 1.1-1.8 1.5-3.3 1.9-5.8 4.7-7.8 7.9-1.3 2.1-2.5 4.2-1.8 6.9.2.8-.3 1.8-.7 2.6-.4.8-1.1 1.5-1.7 2.2-1.1 1.2-1.7 2.6-2.3 4.2 1.9 1.2 3.7 2 5.9 1.4 1.8-.5 3.6-.3 5.2.7 4.7 2.9 6 8.3 2.7 12.7-.8 1.1-1.2 2.2-1.1 3.5.4 3.9-1.1 7-4 9.4-.8.7-1.6 1.3-2.3 2-.8.8-1.7 1.7-2.3 2.7-1 1.8-.7 2.6 1.3 3.9 1.8-.6 2.4-2.3 3.3-3.7 2-3 4.2-3.5 7.1-1.5 1.6 1.1 3 1.3 4.7.7 1.7-.5 2.7.1 3.6 1.6.4.7.6 1.6.9 2.4.4 1 .7 2.1 1 3.1.8-.1 1.4-.2 1.9-.3 1.5-.2 2.8.2 3.6 1.5 1.9 3 4.6 5.2 7.2 7.5 1.9 1.7 2.1 4.2.4 6.1-1 1.2-2.2 2.1-3.3 3.2-.9.8-1.9 1.7-2.9 2.6 1.3 1.6 1 3.1.4 4.6-1.4 3.6-3.7 6.5-7.1 8.4-2.4 1.4-4.9 2.7-7.3 4.2-1.5.9-2.9 2.1-4.2 3.2-1.1.9-1.3 2.2-.6 3.5.6 1.1 1.3 2.2 2.2 3.1 1.1 1.1 1.4 2.1.7 3.4-.2.5-.6.9-.7 1.3-.8 2.3-1.6 4.7-.8 7.2.5 1.6 1.4 2 2.9 1.2.7-.4 1.4-.9 2-1.5l4.5-4.5c1.8-1.8 3.4-1.9 5.5-.4 1.4 1.1 2.8 2.3 4 3.6 2.2 2.4 2 4-.6 5.9-2.5 1.8-5 3.6-7.4 5.5-1.7 1.4-3.3 2.9-4.9 4.5-1.2 1.2-1 2.9.5 3.6s1.9 1.8 2.2 3.2c.3 1.2.6 2.5.6 3.8 0 3.4.9 7-1.2 10.2-.2.3-.2.7-.2 1 .3 2.1.7 4.1 1.8 6.1.5-.4.8-.6.9-.8 1.7-2.3 3.9-2.2 6.2-.5.7.5 1.2 1.2 1.8 1.8.9 1.1 1.8 2.3 2.8 3.3 1.2 1.2 2 2.5 2.5 4.1.3.7.5 1.4.8 2.2 1.9.3 3.7.8 4.6 2.8 2.1 4.5 3 9.1.2 13.6-1 1.6-2.2 3.1-3.6 4.2-2.6 2-3.4 4.7-3.7 7.8-.2 2.4.7 4.1 2.6 5.4.6-.3 1.2-.4 1.7-.7 2.6-1.8 5.6-2.7 8.5-3.2 2.7-.4 3.8-1.8 4.5-4.1.6-1.9 1.4-3.8 2.3-5.6 1.3-2.4 3.5-2.7 5.5-.9.8.8 1.5 1.8 2.2 2.8s1.3 1.9 2.7 2.1c1.2.2 1.9 1 2.5 2 1.3 2.1 2.5 4.2 3.8 6.3.5.8 1.1 1.6 1.8 2.6.9-1 1.6-1.6 2.1-2.4 2.1-3.2 7.4-3.6 10-.6 2.3 2.6 4.9 5 7.4 7.4.7.7 1.5 1.5 2.4 1.8 2.1.6 3 1.9 3.2 4.1.3 2.6 1 5.2 2.5 7.4 1.2 1.8 2.2 2 4.1.9.6-.3 1.1-.7 1.7-1.1 1.6-1.1 3.4-1.2 5.1-.2 1.6 1 3.1 2.1 4.6 3.2.7.5 1.4 1 2.1 1.4 1.3.7 2.6 1.2 3.9 1.8 2.1.9 4.2 1.9 6.4 2.6 2.9.9 4.8-.2 5.7-3 .5-1.4.8-3 1.2-4.4.6-1.7 1.4-2.3 3.2-2.3.4 0 .8 0 1.3.1.2-.6.4-1.2.6-1.7 1-2.9 3.1-4 6-3 1 .4 1.9 1 2.9 1.6.8.5 1.6 1.1 2.6 1.8.3-.7.7-1.2.8-1.8.5-1.4.9-2.8 1.4-4.1 1.1-3 3.2-4 6.2-3.1.8.2 1.6.5 2.5.8.7-1.8 1.3-3.5 2.2-5 1.5-2.6 1.9-5.4 1.4-8.4-.2-1.3-.5-2.7-.6-4-.3-2.7.6-3.9 3.2-4.7.4-.1.8-.1 1.4-.2-.6-.8-1.1-1.5-1.6-2.1-2.1-2.6-2.2-4.7-.4-7.4.8-1.1 1.7-2.2 2.7-3.1 3.2-2.7 4.3-6.1 3.5-10-.4-1.9.2-3.5 1.3-5 .5-.7 1-1.4 1.3-2.2 1.3-3.3 2.6-6.6 3.8-10 .9-2.5-.1-6.1-2.3-7.7-1.3-1-2.8-1.6-4-2.6-4.4-3.8-8.7-7.6-13-11.4-4.9-4.4-9.9-8.9-14.7-13.4-2.5-2.3-5.1-4.6-7.1-7.3-3.5-4.8-6.7-9.8-9.9-14.8-1.5-2.4-3-4.8-4-7.4-2.7-7.1-2.5-14.5-.8-21.8.3-1.4 1.1-2.7 1.9-3.8 1.2-1.6 2.9-2.4 5-1.7 2 .7 4.2 1.1 4.5 3.9 1.2-.1 1.9-.5 2.2-1.6.1-.6.3-1.4.8-1.8 1.5-1.3 1.5-2.9 1.6-4.6.1-2.8.2-5.6.9-8.3 1-3.7 2.7-7.1 5.7-9.8 1.6-1.4 1.8-3.7.6-5.5-.9-1.4-1.1-2.8-.5-4.4 1.4-3.4 1.9-6.8 1.2-10.5-.5-2.4.1-4.5 1.8-6.4 1.8-1.9 3.2-2.2 5.4-.8.7.5 1.4.9 2.2 1.5 2.6-2.6 4.3-5.6 4.9-9.1.2-.9-.1-1.9 0-2.8.1-1.4.7-2.6 2.2-3.1 1.3-.4 2.2.1 3.3 1.7.1.2.3.3.5.7.7-1.1 1.4-2.1 2-3.1 2.4-4.2 4.8-8.4 7.3-12.6 1.9-3.2 3.8-3.5 7-1.7.1.1.3 0 .5 0 .7-1.7 1.2-3.3 2-5s2.6-2.3 4.3-1.4c.6.3 1.1.8 1.5 1.3.8.9 1.5 1.9 2.2 2.8 1.3 1.6 2.8 2.9 4.9 3.5.3-.6.5-1 .8-1.5 1.2-2.2 3.1-3.5 5.5-3.5 1.3 0 1.8-.5 2.4-1.4.8-1.2 1.6-2.5 2.6-3.5 2.1-2.2 4.6-1.8 6.1.8.4.7.8 1.5 1.2 2.4 1.8-.8 3.6-.6 5.1.5 1.7 1.3 3.1 3 3.4 5.2.2 1.1.7 1.8 1.5 2.5 1.1 1 1.7 2.3 2 3.7.7 2.8.4 5.5-.2 8.3-.8 4.1-.4 4.8 3.1 7.1 1.6 1 3.4 2.1 4.5 3.6 2 2.7 3.6 5.8 4 9.3.3 2.3 1.2 4.2 2.9 5.8 2.8 2.5 3.8 5.7 3.8 9.4 0 3.9.1 7.8 0 11.7-.1 3.1.6 6 2 8.6 1.4 2.5 2.1 5.2 3 7.8.8 2.4 1 4.8.3 7.3-.5 1.8-1 3.6-1.6 5.4-.9 2.5-1.6 5.1-.4 7.7.6 1.3 1.2 2.7 2.1 3.7 3.3 3.8 4.7 8.2 4.9 13.1.2 3.7.9 7.1 4.7 9 .1.1.3.2.4.3 2.1 1.8 3.4 4.1 3 7-.3 2.2-1 4.3-1.6 6.4-1.8 5.5-.9 10.4 3.1 14.6 1.3 1.3 2.1 2.8 2.8 4.5 1.9 5.1 2.6 10.5 4.3 15.6.2.5.1 1.2.1 1.8.2 3.9-.1 7.8-1.2 11.6-.9 3-.4 5.6 2.4 7.7 2.3 1.8 3.2 4.5 3.4 7.4.1 1.5.1 3.1 0 4.6 0 1.3.1 2.6.9 3.6 1 1.4 1.9 2.8 3 4.1 2.4 2.8 2.8 6.3 3.8 9.6.1.4.3.8.4 1.2.5-.9.7-1.7.9-2.5.8-3.4.3-6.6-1.5-9.5l-1.5-2.7c-2.5-4.7-.5-11.5 2.9-14.2 3-2.4 5.8-2.2 8.1 1 1 1.3 1.8 2.9 2.5 4.4.7 1.4 1.6 2.4 3.3 2.1 2.4-.3 4.3.7 6 2.3.5.4 1 .9 1.5 1.3 3-1.8 5.2-5.1 9.3-3.9.1-3.5 1.3-5.2 4.4-6.3 1.3-.4 2.8-.4 4.3-.6.9-.1 1.8-.1 3.2-.3-2.7-2.3-3.9-4.6-2.7-7.5.4-.9 1-2 1.8-2.4 1.5-.6 3.2-.7 5.1-1 .6-.8 1.3-2 2.2-3 1.6-1.9 3.3-2.4 5.6-1.6.5.2 1 .5 1.4.5 2.2-.1 3.7.9 5.2 2.3.6.5 1.4.8 2.4 1.4.1-1.3.2-2.1.2-3 0-4.3 1.3-6.1 5.6-7.3 1.1-.3 2.2-.7 3.8-1.3-1.8-1.6-3.2-3-4.9-4.2-2.3-1.5-3.5-3.7-4.1-6.2-.7-2.7.1-5 2.2-6.9s4.3-1.5 6.6-.4c.9.4 1.8.8 2.8 1.2 1.7-3.8 4.7-5.3 8.3-5.8 3.7-.5 6.5-2.8 9.5-4.6.5-.3.9-.8 1.2-1.3 1.3-2.2 1.4-4.6 1.5-6.9-2 .4-3.7 1-5.4 1.2-2.8.2-4.4-1-5.4-3.6s-.6-5 .7-7.4c-1.2-.5-2.3-.9-3.4-1.4-1.6-.7-2.9-1.9-3.3-3.7-.5-2.3-.7-4.8.3-7 .9-2.2 1.1-4.5.6-6.7-.6-2.6.3-4.7 2.2-6.4.9-.8 1.8-1.7 2.8-2.6-.8-.7-1.5-1.2-2.1-1.9-1.9-2-2-4.6-.3-6.7.8-1 1-1.8.8-3-.5-4 .9-7.5 3.9-10 3.4-2.8 3.6-6.5 3.9-10.3 0-.4-.3-.9-.3-1.1-2 .1-3.8.4-5.5.3-2.5-.2-3.9-1.8-4.2-4.4-.2-2.8.9-5.1 3.4-6.3 1.8-.9 3.8-1.5 5.7-2 1.5-.4 2.7-1 3.4-2.4 1.9-2 3-4.1 4.1-6.2zm-8.8 47.6c-1.3-.4-2-.2-2.4.7-.3.8 0 1.4 1.1 1.8.4-.7.8-1.5 1.3-2.5zm-30.5-82.4c1.7-.3 2.4-1.1 2.6-3.1-.5-.1-1-.2-1.5-.2-2.6-.1-4-1.5-4.7-3.9-.3-1.1-.9-2.2-1.3-3.3-.2 0-.3.1-.5.1.4 2.6.7 5.2 1.3 7.7.3 1.8 2.4 3 4.1 2.7zm2.4-7.2c-.8-2.5-.8-2.5-2.8-3.8.7 1.4.4 3.3 2.8 3.8zM132 519.7c.8-.7.7-1.6.1-2.6-1.1.3-2.1.6-3.4.9 1.4 1.7 2.5 2.3 3.3 1.7zm-8.2 232.2c-.2-.1-.4-.1-.5-.2-.2.7-.9 1.3.2 2.5.1-1 .2-1.6.3-2.3zm-16.4 20.3c.2-1.2.2-2.4 0-3.5-.2-.8-.9-1.5-1.3-2.2-.2 0-.5.1-.7.1-.4 1-1 1.9-1.3 2.9-.3 1.1-.4 2.4.5 3.3.4.4 1.2.9 1.7.7.4 0 1-.8 1.1-1.3zM83.5 707c0-1.7-1.5-3.3-3.1-3.3-.8 0-1.4.4-1.5 1.3-.1 1.4.5 2.4 2.5 3.3 1.4.6 2 .2 2.1-1.3zM39.3 495.3v-2.5c-1 .5-1.3.8-2.3 1.5 1 .4 1.3.6 2.3 1zm-64.1-58.7c.6-2.2.3-4.1-.9-5.7-.9-1.2-2.3-1.3-3.3-.4-1.1.9-1.3 2.3-.4 3.4 1.1 1.3 2.4 2.5 4.6 2.7zm-47.5 357c1.1-.6 1.8-1.5 1.5-2.7v-1c-.2-3.2-1.5-4-4.4-2.8-.3.1-.6.3-.9.4-2.8 1.5-4.1 4.8-3 7.3.6 1.3 1.2 1.7 2.6 1.1 1.5-.6 2.8-1.5 4.2-2.3zm-51.2-317.4c.1-.8-.7-1.5-1.7-1.4-.6.1-1.1.4-2.2.9 1.1.8 1.6 1.4 2.3 1.7.7.3 1.6-.5 1.6-1.2zm-58.9 114.7c-.3-1.3-.8-2-1.8-1.3-1.3.9-2.4 2-2.7 3.6.2.1.3.3.4.4 1.4-.9 2.8-1.8 4.1-2.7z"/>
</svg>
