<svg id="Hand_Peace_Sign_Nails" xmlns="http://www.w3.org/2000/svg" viewBox="-260 384.4 269.7 456.6">
    <style>
        .st0{fill:#fff}
    </style>
    <path class="st0" d="M-163.7 630.1c-5.2-1.8-10.8-2.7-16.6-2.8-2.8 0-5.6.1-8.3.2-1.8.1-3.7.1-5.5.2-4.4.1-8.9 0-13.2 0h-6.5c-.3 0-.7.1-.9.3-.4.2-.7.6-.7 1 0 .3.1.7.4.9 3.6 5.1 8.8 8.9 14.5 10.8l1.8.6c.6.2 1.2.3 1.8.5 1 .3 2.1.7 3.1 1.1 2.3.9 4.7 1.8 7.3 2.1 1.6.3 3.3.4 4.9.4 2.2 0 4.5-.2 6.7-.4 5.3-.5 9.6-2.1 13-5 1.7-1.5 2.6-3.7 2.2-5.7-.4-1.9-1.8-3.4-4-4.2z"/>
    <path class="st0" d="M2.4 438.5c-.1-1.3-.4-2.6-1.3-3.5-.8-.8-1.9-1.1-3.5-.9-2.9.2-6.1 1.3-9.3 3.3-2.6 1.7-4.9 3.8-6.6 5.5l-.6.6c-.7.6-1.5 1.3-2.2 2.1-.1.1-.3.4-.7.9-.5.6-1.6 2-1.9 2.2h.1v1c12.5.5 16.7 9.4 20.3 19.2l.5 1.4.4-1.5 1.5-4.8c1-3.1 2.1-6.4 2.7-9.7.9-5.5 1.2-10.8.6-15.8z"/>
    <path class="st0" d="M-200.9 413.9l.8.1-.3-.7c-1.8-5.1-4.5-10.3-8.5-16.9-.5-.9-1.2-1.9-2.1-2.9-.9-1-1.9-1.7-2.8-2.4-.6-.4-1.3-.9-2.1-.9-1.1-.1-2.2.6-3.3 2-1.9 2.4-3.2 5.4-4.2 9.4-1.5 6.9-1.3 14-1.1 20.8v1.1c0 .9.3 1.7.7 2.8.2.5.4 1 .5 1.6l.3.9.6-.8c.6-.7 1.1-1.4 1.5-2 .5-.7 1-1.3 1.4-1.9 5.2-7.5 10.9-10.7 18.6-10.2z"/>
    <path class="st0" d="M-61.9 704.6c-.7-1-1.3-2-2-3-1.7-2.6-3.4-5.3-5.4-7.7-6-7.5-12.3-14.9-18.4-22.1-2.9-3.4-6.1-6.8-9.8-10.5-2.8-2.9-6.2-6.3-9.9-9.2-9.2-7.2-19.8-11.9-31.3-13.9-1.8-.3-3.6-.7-5.3-1.1-1.6-.4-3.3-.7-4.9-1-2.5-.5-3.9-.3-4.9 2.1-2.2 5.8-6.7 9.3-14.1 11-8.8 2-17.4 1.9-25.3-.3-.7-.2-1.4-.3-2.2-.4-.4 0-.9-.1-1.4-.2l-.8-.1.2.8c2 6.4 4.5 10.4 8.5 13.3 6.3 4.6 13.4 7.2 21.1 7.8 4.2.4 9.1.5 13.9-1.4 2.8-1.1 5.8-2 8.6-2.6 1.7-.3 3.7-.4 6-.2 1 .1 1.7 1 1.7 2.3 0 1.2-.6 1.8-1.9 2.2-1.8.5-3.6 1-5.3 1.4l-.3.1-.1.3c-1.7 5.1-1.6 10 .4 15.3 1.6 4.2 4.2 6.4 7.9 6.8.8.1 1.5.2 2.1.5 1.1.6 1.8 1.5 1.8 2.5 0 .9-.5 1.8-1.4 2.4-1.1.7-2.4 1.3-4.2 1.6-2 .5-4.3 1.1-6.3 2.8-4.2 3.4-6.9 7.4-8.2 12-3.2 11.6-2.6 23.6-1.8 34 .2 2.8.6 5.5 1 8.2.2 1.7.5 3.4.6 5.1.3 2.5-.5 3.2-1.9 3.6-1.8.3-3-.4-3.9-2.4-.1-.2-.2-.4-.2-.6-.2-.4-.3-.8-.3-1.1l-.6-4.5c-.6-4.4-1.3-9-1.5-13.4-.2-7.6-.3-15 .7-22.4 1.5-10.4 5.6-17.7 13-23.2.6-.5 1.2-1 1.8-1.7l.7-.7.4-.4-.4-.4c-6.5-5.5-6.5-12.8-6.5-20.5v-1.2l-.6.1c-.8.1-1.5.3-2.1.4-1 .2-1.9.4-2.8.4h-4c-5.4 0-10.9 0-16.3-1.6-4.1-1.2-7.6-3.1-11.2-5.1-1.8-1-4.1-2.1-7.1-1.9-7.7.5-14.8-2.1-20.2-4.4-5.2-2.1-9.7-5.3-13.9-9.7-.8-.8-1.6-1.7-2.5-2.5-4.6-4.7-9.3-9.5-12.6-15.3-.2-.4-.5-.7-.7-1.1-.3-.4-.7-.9-1.2-1.6l-.7-1.1-.2 1.3c-.2 1.6-.5 3.1-.7 4.5-.5 3.3-1 6.4-1.4 9.5-.3 2.9-.6 5.9-.8 8.8-.1 1.5-.2 3-.4 4.5-.1 1.5-.3 3.1-.5 4.6-.6 5-1.2 10.1-.4 15.4.9 6 1.5 12.1 2.1 18l.9 9c1.4 12.2 5.2 24.7 11.8 39.4 1.1 2.5 2.3 5 3.5 7.5 1.7 3.7 3.5 7.4 5.1 11.2 1 2.2 1.9 4.6 2.7 6.9.8 2.3 1.7 4.7 2.7 6.9 3.6 8.4 6.5 17.6 8.6 27.3.5 2.1.7 4.1.9 6.2.1 1 .2 2.1.3 3.1.4 3.2.8 6.6 1.1 9.8 0 .1 0 .3.1.5l.3.3.2.1c.9.3 1.8.2 2.6.1l.9-.1c5.3-.6 10.8-1.2 16.2-.3 8.3 1.4 16.9 2.5 25.1 3.6 2.4.3 4.8.6 7.2.8 1.2.1 2.5.2 3.7.4 2.9.3 5.7.6 8.6.9 2.8.3 5.7.5 8.5.8l12.9 1.2c3 .3 6 .6 9 .8h1.8c1.5 0 3.2-.1 5-.2 1.6-.2 3.3-.4 4.8-.7 3.2-.5 6.2-1 9.3-.8 1.2.1 2.4-.1 3.6-.3l2.6-.5c3.6-.7 7.3-1.4 10.9-2.2 3.6-.8 7-2.2 10.5-4.3l.2-.1v-1.8c0-.9.1-1.7-.1-2.4-.2-1.3-.5-2.6-.8-3.9-.3-1.6-.7-3.3-.9-5-.7-5.5-1.1-9.8-1.3-13.8-.1-1.3.2-2.6.4-4 .2-.8.3-1.7.4-2.6.9-9.1 2.8-17.4 5.6-25.5 2.7-7.6 4.3-16 4.8-24.9.7-11.1.4-22.6-.8-34 .3-.5 0-1.6-.6-2.5z"/>
    <path class="st0" d="M-244.7 622.8c.2.5.4.9.6 1.4l.7 1.3c3 5.8 6 11.7 10.8 16.4 2.3 2.2 4.6 4.4 6.8 6.8 7 7.6 16.5 10.4 24.7 12.1h.3c.3 0 .7-.1 1-.3.1-.1.3-.1.5-.2l.5-.2-.2-.5c-1.7-3.8-4-8.7-6.4-13.5-.6-1.2-1.9-2.3-2.8-2.8-4.4-2.4-8-6.1-11.5-9.7-1.8-1.8-3.7-3.7-5.6-5.4-.6-.5-1.3-1.2-1.5-2-.2-.6-.1-1.2.2-1.7.7-1 2.1-1.3 3.4-1.5 4-.5 7.9-.6 11.8-.7h2.6c3 0 6.1.1 9.2-.3l.9-.1-.6-.7c-2.9-3.4-5.7-6.9-8.5-10.2-2.4-2.9-5-6-7-9.2-2.5-3.9-4.1-8.1-4.7-12.3v-.3l-.3-.1c-.6-.2-1.1-.4-1.7-.6-1.3-.5-2.5-1-3.7-.9-8.4.4-14.3 3-18.6 8.3-5.3 6.6-8 17.3-2.5 24.2.7.7 1.1 1.7 1.6 2.7z"/>
    <path class="st0" d="M-207.2 603.4c2 2.6 4.1 5.2 6.2 7.6 1.7 2.1 3.5 4.2 5.3 6.4 2.3 3 5.2 4.7 8.7 5.2 5.1.7 10.1 1.4 15.1 1.9 7.2.6 12.1 2.3 16.2 5.6 1.4 1.1 3 2.1 4.9 1.4 1.7-.6 3.3-.3 5.1.1l.7.2c2.1.5 4.4.8 7 1.1l1.9.3-.6-.9c-1.1-1.6-2-3.1-3-4.5-2-3.1-4-6-6-8.8-3.9-5.2-8-10.3-11.9-15.3-1.4-1.8-2.9-3.6-4.3-5.5-.2-.2-.4-.5-.6-.7-.4-.5-.8-1-1.1-1.5-2.5-4.5-5.9-8.3-9.2-12-1.5-1.7-3.1-3.5-4.6-5.3-2.2-2.7-4.6-5.3-6.9-7.8-1.8-2-3.8-4.1-5.5-6.1-1.6-1.9-3.3-2.7-5.8-2.6-6.6.1-15.5 6.5-17.9 12.9-2.6 6.9-2.2 13.9 1.1 20.8 1.6 2.8 3.6 5.5 5.2 7.5z"/>
    <path class="st0" d="M-10.4 473.5c-.3-4.3-1.2-10.6-5.2-14.7-1.2-1.2-2.5-2.1-3.8-2.5-5.1-1.6-11.4 1.9-14.1 6.1l-.5.6c-3.7 5.8-7.5 11.7-10.1 18.2-1.3 3.2-2.5 6.4-3.7 9.6-1.2 3.2-2.4 6.4-3.7 9.6-1.8 4.5-3.6 8.9-5.5 13.3-1.8 4.4-3.6 8.8-5.4 13.3-.6 1.6-1.1 2.9-1.4 4.1l-1.5 5.4c-1.6 5.8-3.3 11.8-5.2 17.6-1.5 4.5-3.4 8.9-5.3 13.3-2.2 5-5.5 9.4-8.7 13.7-1.4 1.9-2.9 3.9-4.2 5.8-4.4 6.4-10.5 10.2-18.2 13.9-4.2 2.1-5.5 1.8-8.4-2-3.5-4.5-6.4-9.3-8.8-14.7-1-2.3-2.2-4.7-3.4-6.9l-.8-1.7c-1.2-2.4-2.4-4.7-3.6-7-3-5.9-6.2-12.1-8.9-18.3-7.5-17.1-13.8-32.3-19.4-46.4-3.1-7.9-6.6-17.3-9.3-27.1-1.5-5.7-3.7-11.7-6.6-18.5-4.8-11.1-11.9-21-18.8-30.2-1.5-2.1-3.4-3.9-5.7-6-3.1-2.9-4.5-3-8.1-.4-4.5 3-7 7.5-9.1 11.9-2.3 4.7-3.1 8.9-2.4 12.8.1.9.3 1.7.4 2.6.3 2.4.7 5 1.2 7.4.8 3.3 1.7 6.7 2.5 10 1.4 5.5 2.9 11.3 4.2 17 2.2 9.8 5.2 20.3 9.4 33.1 1.3 4 2.8 8 4.3 11.9.9 2.4 1.9 4.9 2.8 7.4.5 1.3.9 2.7 1.3 4 .5 1.7 1 3.4 1.7 5.1 1.2 3.1 2.5 6.1 3.8 9l1.5 3.3c.2.4.3.7.5 1.1.5 1.2 1 2.3 1.8 3.2 2.6 3.2 5.3 6.5 8 9.6 1.7 2.1 3.5 4.1 5.2 6.2l1.5 1.8c.8 1 1.7 1.9 2.4 3 4 6.3 8.1 12.3 13.4 17.6.6.6 1.1 1.2 1.5 1.8 1.3 1.7 2.6 3.5 3.9 5.2 1.8 2.4 3.7 5 5.6 7.4 1.2 1.7 2.5 3.3 4.2 5.2l.8.9c3.4 3.8 6.8 7.7 8.9 12.5.4 1.2 1.5 2.3 2.9 2.9 1.5.7 3.1 1.3 4.7 1.9 1.1.4 2.2.8 3.2 1.3 8.7 3.9 15.1 8.2 20.1 13.3 1.3 1.3 2.6 2.6 3.8 3.9 2.5 2.5 5.1 5.1 7.6 7.8 2.9 3.1 5.7 6.4 8.4 9.6a9128958257509676 9128958257509676 0 0 0 17.8 21l.7.8.2-1c.2-1 .4-1.9.6-2.6.3-1.3.6-2.3.6-3.4.4-5 1.2-9.6 2.5-14l.2-.8c1.5-4.9 2.8-9.6 3.8-14.4.4-1.8.7-3.5 1.1-5.3 1.9-9 3.9-18.3 5.2-27.7 1-7.2 2.7-14.4 4.3-21.4.7-2.9 1.4-6 2.1-9 .1-.5.2-.9.3-1.4.2-.9.4-1.9.6-2.9.8-6.3 2.3-12.9 4.7-20.4 3.2-10 6.6-20.2 9.8-30l1.9-5.7c2.4-7.5 5-15.3 7.5-22.8 4-12.2 5.5-25.9 4.4-38.8z"/>
    <path id="XMLID_272_" d="M9.7 441c.3 6.5-.4 12.8-2.3 18.9-1.9 5.9-4 11.8-5.9 17.7-2 6-5.3 11.7-5.6 18.2-.3 4.8-1.1 9.6-2.5 14.1-2.9 9.3-5.9 18.5-8.9 27.8-3 9.4-6.1 18.8-9.1 28.2-.4 1.4-.9 2.7-1.4 4.1-2.5 7.1-4.1 14.4-5.4 21.8-.3 1.6-.5 3.1-.8 4.7-2.2 10.3-4.9 20.5-6.5 30.9-1.6 10.6-3.7 21.1-6.1 31.5-1.2 5.3-2.4 10.6-4.1 15.8-2.2 6.8-2.5 13.8-3.7 20.7-1 5.5-1.4 11.2-.7 16.7.7 5.8.6 11.5.7 17.2.1 2.7 0 5.4 0 8.2.1 9.7-1.6 19.1-4.3 28.3-2.2 7.7-4.5 15.3-5.8 23.2-1.2 7.5-1.7 14.9-.2 22.3 1 4.9 1.6 9.9 3.4 14.7.3.8-.1 2.2-.7 3-.6.8-1.8 1.3-2.7 1.9-6.7 4-14.1 5.9-21.7 7.2-4.4.8-8.9 1-13.3 1.5-3.5.4-6.9 1.1-10.4 1.3-3.5.2-7 .2-10.5 0-5.6-.3-11.1-.9-16.7-1.4-4.8-.4-9.5-.9-14.3-1.4-10-1.1-20-2.3-30-3.4-1.3-.1-2.6-.2-3.8-.5-1.6-.4-3.3-.6-4.9-1-1.7-.4-3.4-.6-5.1-.7-3.5-.2-6.9-.1-10.4-.2-2.1-.1-4.1-.2-6.2-.6-1.8-.3-3.7-.8-5.4-1.5-.8-.3-1.6-.6-2.1-1.3-.6-.7-.7-1.6-.9-2.5-.5-3.4-1.1-6.8-1.6-10.2-.3-1.7-.5-3.5-.8-5.2-.2-1.6-.3-3.1-.6-4.7-2-8.6-4.5-17-8.1-25-1.8-4.1-3.1-8.4-4.9-12.5-2.9-6.6-5.8-13.1-8.9-19.6-5.7-11.9-9.9-24.2-12.2-37.2-1.2-6.9-1.6-13.9-2.4-20.9-.5-4.3-1-8.5-1.5-12.8-.1-1.3-.4-2.6-.3-3.8.3-4.6.7-9.2 1.2-13.8.5-5.1 1-10.1 1.7-15.2.5-3.8 1-7.6 1.9-11.3 1.4-5.4 1.3-10.8-.1-16.1-2.9-10.8.4-19.7 7.7-27.7 4.3-4.8 9.6-7.3 15.8-8.2 3.1-.4 6.3-.9 9.6-1.4 1.3-6.8 3.5-13 9.1-17.5 5.3-4.2 11-7.7 18.7-7.1-.5-1.7-.6-3-1.2-4-3.3-5.2-4.8-11.1-6.8-16.8-1.3-3.6-3-7.1-4.3-10.7-2.1-6.2-4.1-12.4-6.1-18.7-.5-1.7-1-3.4-1.4-5.1-1.3-4.8-2.6-9.5-3.8-14.3-1.8-6.6-3.5-13.3-5.2-19.9-2.2-8.7-4.2-17.3-4.3-26.4-.1-4.2-1.4-8.5-2.3-12.7-1.6-7.4-1.3-14.9-.6-22.4.5-4.5 1.2-8.9 3.5-12.8.8-1.4 1.6-2.8 2.6-4 3.2-4.1 8.3-5.3 12.8-2.6 2.5 1.6 5.1 3.6 6.7 6 2.6 3.8 4.5 8.1 6.6 12.2 1.6 3.3 3 6.7 4.6 10 2 4.2 3.9 8.4 6 12.5.6 1.3 1.5 2.5 2.3 3.6 7 9.8 13.6 19.8 18 31 1.8 4.6 3.3 9.3 4.7 14.1 5.5 18.9 13 37.1 20.9 55.1 2.2 5 4.2 10 6.5 14.9 4.7 9.8 9.5 19.5 14.3 29.3 1.7 3.4 3.3 6.9 4.9 10.4 1.7 3.8 4 7.2 7 10.5 5.1-3 10-5.7 13.4-10.6 3.3-4.7 7-9.2 10.1-14 4-6.2 6.6-13.1 8.6-20.2 3.5-12.1 6.8-24.2 11.8-35.9 4.8-11.3 9.1-22.8 13.6-34.3 3.5-8.8 8.7-16.7 13.7-24.7 3.4-5.4 7.4-10.5 12-14.8 4.6-4.3 9-8.9 14.9-11.4 4.7-1.9 13.4-3.8 16.8 1.2 2.2 3.1 3.5 6.4 3.7 10.3zm-8.5 13c1-5.1 1.3-10.3.7-15.5-.1-1.2-.3-2.4-1.2-3.2-.8-.8-2-.9-3.1-.8-3.2.2-6.3 1.5-9.1 3.2-2.4 1.5-4.5 3.4-6.5 5.3-.9.9-1.9 1.7-2.8 2.6-.4.4-2.4 3.3-2.9 3.3 12.4.5 16.9 9 20.7 19.5 1.4-4.8 3.2-9.4 4.2-14.4zm-16.6 58c4.2-12 5.6-25.8 4.5-38.4-.4-5.2-1.5-10.7-5.1-14.4-1-1-2.2-1.9-3.6-2.4-4.8-1.6-10.9 1.8-13.5 5.9-3.9 6.1-7.8 12.1-10.5 18.8-2.5 6.4-4.9 12.8-7.4 19.2-3.6 8.9-7.3 17.7-10.9 26.6-.5 1.3-1 2.7-1.4 4.1-2.2 7.7-4.3 15.4-6.7 23-1.5 4.5-3.4 9-5.3 13.3-3.2 7.2-8.5 13.1-12.9 19.6-4.7 6.8-11.4 10.7-18.4 14.1-4.5 2.2-6 1.7-9-2.1-3.6-4.6-6.5-9.5-8.9-14.8-1.3-2.9-2.8-5.8-4.2-8.6-4.2-8.4-8.7-16.7-12.5-25.4-6.7-15.4-13.2-30.8-19.4-46.4-3.5-8.9-6.8-17.9-9.3-27.2-1.7-6.4-4-12.5-6.6-18.5-4.7-10.9-11.7-20.6-18.7-30.1-1.6-2.2-3.6-4.1-5.6-5.9-3-2.8-4.1-2.8-7.5-.4-4.3 2.9-6.8 7.2-8.9 11.7-1.9 3.9-3.1 8.1-2.4 12.5.5 3.3.9 6.7 1.6 9.9 2.1 9 4.7 17.9 6.7 26.9 2.5 11.2 5.9 22.2 9.4 33.2 2.1 6.5 4.8 12.9 7.1 19.3 1.1 3 1.8 6.1 3 9.1 1.6 4.2 3.5 8.2 5.3 12.3.7 1.5 1.2 3 2.2 4.2 4.3 5.3 8.8 10.5 13.2 15.8 1.3 1.6 2.8 3.1 4 4.8 4 6.2 8.1 12.3 13.3 17.5.6.6 1.1 1.2 1.5 1.8 3.2 4.2 6.3 8.4 9.5 12.6 1.4 1.8 2.7 3.5 4.2 5.2 3.7 4.2 7.5 8.3 9.7 13.5.4 1.1 1.5 2.1 2.6 2.6 2.6 1.2 5.3 2.1 7.9 3.2 7.4 3.4 14.5 7.5 20.3 13.4 3.8 3.9 7.7 7.7 11.4 11.7 4.3 4.7 8.4 9.6 12.6 14.4 4.3 5.1 8.6 10.2 13.6 16.2.5-2.6 1.1-4.3 1.2-6 .4-4.8 1.2-9.5 2.5-14.1 1.5-5.1 3-10.1 4.1-15.2 2.3-10.9 4.8-21.8 6.3-32.9 1.4-10.2 4.2-20.3 6.4-30.4.3-1.4.7-2.8.9-4.2.9-7 2.6-13.8 4.6-20.5 3.2-10.1 6.5-20 9.8-30 3-9.4 6-19 9.3-28.5zm-45.1 229.6c.7-11.3.4-22.7-.8-34-.1-.9-.4-1.9-.9-2.7-2.4-3.6-4.6-7.3-7.3-10.6-6-7.5-12.2-14.8-18.4-22.1-3.1-3.6-6.4-7.1-9.8-10.5-3.1-3.2-6.3-6.4-9.8-9.2-9.2-7.2-19.6-11.8-31.2-13.8-3.4-.6-6.9-1.5-10.3-2.1-2.5-.5-3.5-.2-4.3 1.8-2.6 6.7-8.1 9.8-14.5 11.3-8.5 1.9-17.1 2-25.6-.3-1-.3-2.1-.3-3.5-.5 1.7 5.5 4 9.9 8.3 13 6.2 4.5 13.2 7.1 20.8 7.7 4.6.4 9.2.4 13.7-1.4 2.8-1.1 5.8-2 8.7-2.6 2-.4 4.1-.4 6.1-.2 1.3.1 2.2 1.3 2.2 2.8s-.9 2.3-2.3 2.7c-1.8.5-3.6 1-5.3 1.4-1.8 5.3-1.4 10.2.4 15 1.3 3.4 3.5 6.1 7.6 6.5.8.1 1.6.2 2.3.6 2.5 1.4 2.8 4.2.4 5.8-1.3.9-2.9 1.4-4.4 1.7-2.2.5-4.3 1.2-6.1 2.7-3.8 3.1-6.7 7-8 11.7-3.1 11.1-2.7 22.4-1.8 33.8.4 4.4 1.1 8.9 1.6 13.3.3 2.6-.5 3.7-2.3 4.1-2 .4-3.5-.5-4.5-2.7-.2-.6-.5-1.2-.6-1.8-.8-6-1.9-12-2.1-18-.2-7.5-.3-15 .7-22.5 1.4-9.7 5.2-17.6 13.2-23.5.8-.6 1.5-1.4 2.5-2.4-6.9-5.8-6.7-13.6-6.7-21.5-2 .3-3.5.8-5 .8-6.8-.1-13.6.4-20.4-1.6-4.1-1.2-7.7-3.1-11.3-5.1-2.1-1.2-4.2-2-6.8-1.8-7.2.5-13.9-1.6-20.4-4.4-5.4-2.2-10-5.5-14.1-9.8-5.4-5.6-11.2-11-15.1-17.9-.4-.7-1-1.3-1.9-2.6-.8 5.2-1.6 9.6-2.1 14s-.8 8.9-1.2 13.3c-.6 6.6-1.9 13.1-.9 19.9 1.4 9 2 18 3 27.1 1.6 13.8 6.1 26.7 11.8 39.3 2.8 6.2 5.9 12.4 8.6 18.7 2 4.5 3.4 9.3 5.3 13.8 3.8 8.8 6.6 18 8.7 27.4.7 3.1.8 6.2 1.2 9.4.4 3.3.8 6.6 1.1 9.9 0 .1 0 .2.1.3 0 .1.1.1.2.1.8.3 1.6.2 2.4.1 5.7-.6 11.5-1.3 17.2-.4 8.3 1.4 16.7 2.5 25.1 3.6 3.6.5 7.3.8 10.9 1.2 5.7.6 11.4 1.2 17.1 1.7 4.3.4 8.6.8 12.8 1.2 3 .3 6 .6 9 .8 2.2.1 4.5 0 6.7-.2 4.8-.5 9.4-1.7 14.2-1.5 1.4.1 2.9-.2 4.3-.5 4.2-.8 8.5-1.6 12.7-2.5 3.6-.8 7-2.2 10.4-4.2 0-1.5.2-2.7 0-3.8-.5-3-1.3-5.9-1.7-8.9-.6-4.6-1.1-9.2-1.3-13.8-.1-2.2.6-4.4.8-6.6.9-8.8 2.7-17.3 5.6-25.6 3-8.2 4.4-16.6 5-24.9zm-84.3-110.5c2.3.4 4.7.8 7.7 1.2-3.3-4.9-6-9.2-9-13.3-5.3-7-10.8-13.9-16.2-20.8-.6-.8-1.2-1.5-1.7-2.3-3.6-6.5-9.1-11.5-13.7-17.2-3.9-4.8-8.4-9.2-12.4-13.9-1.5-1.8-3.2-2.5-5.4-2.4-6.3.1-15 6.2-17.4 12.6-2.6 6.9-2.1 13.8 1.1 20.4 1.3 2.7 3.1 5.2 5 7.6 3.8 4.8 7.8 9.3 11.6 14.1 2.2 2.8 4.9 4.5 8.4 5 5 .7 10.1 1.4 15.1 1.9 6 .5 11.6 1.8 16.5 5.7 1.3 1 2.8 1.9 4.4 1.3 2-.8 3.9-.2 6 .1zm-17.5 8.5c3.2-2.7 3.1-7.4-1.6-9-5.3-1.8-10.8-2.7-16.4-2.8-4.6 0-9.2.3-13.8.4-6.6.1-13.2 0-19.7 0-.2 0-.5.1-.7.2-.2.1-.4.3-.4.6 0 .2.1.4.3.6 3.5 4.9 8.5 8.7 14.3 10.6 1.2.4 2.4.7 3.6 1.1 3.4 1.1 6.7 2.7 10.3 3.2 3.8.6 7.7.3 11.5 0 4.5-.4 8.9-1.8 12.6-4.9zm-38.7 20.7c.4.1.9-.2 1.5-.4-2.1-4.6-4.2-9.1-6.4-13.5-.5-1.1-1.6-2-2.6-2.6-6.7-3.7-11.5-10.1-17.2-15.2-.7-.6-1.4-1.3-1.7-2.2-.2-.7-.1-1.5.3-2.1.8-1.2 2.4-1.5 3.8-1.7 4-.5 8-.6 11.9-.7 3.9 0 7.8.2 11.7-.3-2.9-3.4-5.7-6.8-8.5-10.2-2.5-3-5-6-7-9.4-2.4-3.8-4.1-8-4.8-12.5-1.9-.6-3.5-1.6-5.2-1.5-7.1.3-13.4 2.2-18.2 8.1-5 6.2-8 16.7-2.5 23.4 1 1.2 1.4 2.9 2.2 4.3 3.2 6.2 6.3 12.6 11.4 17.6 2.3 2.2 4.6 4.4 6.8 6.8 6.6 7.3 15.3 10.2 24.5 12.1zM-220.1 424c4.6-6.6 10.3-11.2 19.2-10.6-2.1-5.9-5.2-11.5-8.5-16.8-.6-1-1.2-1.9-2-2.8-.8-.9-1.7-1.6-2.7-2.3-.6-.4-1.2-.8-1.9-.8-1.2-.1-2.2.9-2.9 1.8-2.1 2.7-3.4 5.9-4.1 9.2-1.6 7.2-1.3 14.5-1.1 21.8 0 1.2.6 2.3 1.2 4.2 1.1-1.5 2-2.6 2.8-3.7z"/>
</svg>
