<svg id="Lipstick" xmlns="http://www.w3.org/2000/svg" viewBox="0 0 247.7 365.8">
    <style>
        .st0{fill:#fff}
    </style>
    <path class="st0" d="M171 202.7c-.1-1.1-.3-2.2-.4-3.4v-.5h-4c-9.7 0-19.7 0-29.6-.1-18.5-.1-58.8-.2-59.9-.1h-.5l.1.5c.1.9.1 4.5 0 7.2v2.7c.1 37.5.1 75.6.1 112.4v37.5c-.1 1-.1 2.1.9 3.2l.1.2h.2c30.3-.2 61.6-.4 92.8-.5h.5V333c0-21.1 0-42.1.1-63.1v-63c-.1-1.5-.3-2.8-.4-4.2z"/>
    <path class="st0" d="M160.2 192.4V99.6c0-.5-.1-1.1-.2-1.6 0-.3-.1-.6-.1-.9v-.4h-35.4c-4.7 0-9.4-.1-13.9-.1-6.8-.1-13.9-.2-21.1-.1H89V195h.5c11.6-.1 23.5-.1 35.4-.1 11.6 0 23.4 0 35-.1h.5v-.5c-.1-.8-.1-1.4-.2-1.9z"/>
    <path class="st0" d="M100.8 24.3c1.9 0 4.5-.9 4.9-1 5.5-2 11.1-4 16.6-6 5.6-2 11.1-4.1 16.7-6.1 2.5-.9 3.9-1.7 6.4-3.6.5-.4 2.1-2.1 2-3.4l-.1-.3-.2-.1c-.8-.4-4.5.7-18.4 5.6-2.1.7-4 1.4-5.6 2-3.8 1.3-8.4 3.2-11.8 4.6-1.8.7-3.1 1.3-3.8 1.5-1.8.6-8 3.9-8.6 5.5-.1.3-.1.6 0 .7.4.4 1.1.6 1.9.6z"/>
    <path class="st0" d="M150.3 22.9c0-2.5-.2-5-.4-7.5-.1-1.5-.2-3.1-.3-4.6 0-.3-.1-.5-.2-.7 0-.1-.1-.2-.1-.4l-.2-.8-.6.5c-3.3 2.6-6.3 4.3-9.6 5.4-3.8 1.3-7.6 2.7-11.3 4.1-3.3 1.2-6.7 2.5-10 3.7-4.2 1.5-8.6 3-13 4.3-1.2.4-2.4.4-3.8.6-.5 0-1 .1-1.5.1h-.5v64.2h50.8l.1-.4c.4-2.6.4-4.6.4-6.5V53.5c.2-10.2.2-20.4.2-30.6z"/>
    <path id="XMLID_309_" d="M175.8 266.3c.1 18.5 0 37 0 55.6v33.9c0 1.1.4 9.8-.9 10.1-.8.2-1.7.2-2.6.2-25.9 0-51.7 0-77.6-.1-5.1 0-10.3-.2-15.4-.2-1.7 0-3.2-.4-4.8-1-2-.7-2.6-2-2.6-4 .1-12.5.1-25 .1-37.5V208.2c0-1.5-.6-12.1 1.6-12.8 2.2-.7 7.2-.7 11-.7.1-.6.1-1 .1-1.4v-43.1c0-14.3 0-28.7.1-43 0-4.4.2-8.8.4-13.1.1-2.3.8-3 3.3-3.1h5.8c.1-1.2.2-2.1.2-3.1 0-17.8 0-35.5.1-53.3 0-3.5.3-7 .6-10.5s2.2-6.2 5.1-8c1.1-.7 2.3-1.3 3.5-1.7 6-1.7 11.6-4.5 17.5-6.6 6.6-2.4 13.3-4.4 20-6.4 2.7-.8 5.4-1.8 8.3-1.6 3.3.3 3.7.8 3.9 4.1 1.4 18.4.8 36.8 1.1 55.2.2 10.5 0 21 0 31.8 1.7 0 3 .2 4.6.2 2.4.4 4.9 2.3 4.9 7.3-.1 1.8.2 37.3.2 54.5 0 12.5-.1 25-.2 37.5v3.9c2.8.1 5.4.3 8 .4 2.5.1 2.8.5 2.7 2.8-.1 1.7.1 3.5.2 5.2.1 1.2.3 2.4.3 3.6.3 19.9.5 39.9.5 60zm-5.1 66.7c0-42.1.1-84.1.1-126.1 0-2.5-.5-4.6-.7-7.6h-3.6c-9.9 0-19.7 0-29.6-.1-19.4-.1-58.8-.2-59.9-.1.2 1.3 0 7.8 0 9.9.1 37.5.1 74.9.1 112.4v36.8c0 1.2-.4 2.4.7 3.6 30.8-.2 61.6-.4 92.8-.5.1-9.7.1-19 .1-28.3zm-11.1-152.2c0-27.1.1-54.1.1-81.2 0-.8-.2-1.6-.3-2.5h-35c-11.7 0-23-.4-35-.2v97.5c23-.1 46.8-.1 70.4-.2 0-1.3-.1-2.3-.1-3.2 0-3.4-.1-6.8-.1-10.2zm-9.9-96.9c0-20.3.1-40.8.1-61 0-4-.5-8-.7-12.1 0-.3-.2-.6-.4-1-3 2.4-6.1 4.3-9.7 5.5-7.1 2.5-14.1 5.3-21.2 7.8-4.3 1.5-8.6 3-13 4.3-1.7.5-3.4.5-5.4.7v63.2h49.9c.5-3 .4-5.1.4-7.4zm-4.5-76.7c.5-.4 1.9-2 1.8-2.9-.2-.9-16 4.9-23.6 7.5-5.7 1.9-13.6 5.4-15.6 6.1s-8.8 4.5-8.3 5.5c.5.9 4.3.1 6.1-.6 11.1-4 22.2-8.1 33.3-12.1 2.6-.9 3.9-1.7 6.3-3.5z"/>
</svg>
