<svg id="Mouth" xmlns="http://www.w3.org/2000/svg" viewBox="-216 434 358 358">
    <style>
        .st0{fill:#fff}
    </style>
    <path class="st0" d="M69.5 628.6l-.2.5.2-.5-1.5-.4c-2.8-.8-5.4-1.5-7.9-2.6-11-5-22.4-5.9-31.2-6.1-8.3-.2-16.8 1.3-26.2 4.5-2 .7-4.1 1.5-6 2.2-5.9 2.3-12 4.6-18.8 4.5h-.6l.1.6c.1.5.2.8.2 1 0 .2.1.4.1.6l.3.9c.1.3.2.5.3.9 4 8.9 6.4 19 7.2 31 .1 1.1.2 2.1-.1 3-.2.7-.9 1.6-1.2 1.6-.7.2-1.8-.2-2.4-.7-.6-.5-1-1.6-1-2.4-.2-9.4-1.5-16.9-3.8-23.5-1.1-3.1-2.3-6.1-3.4-9.1l-1-2.5c-.5-1.1-1.3-1.8-2.8-2.1-11.1-2.3-20-5.1-28.2-8.9-5.7-2.7-12.4-5.5-19.7-5.8-2.2-.1-4.4-.3-6.6-.4-3.8-.3-7.8-.6-11.7-.4-1.8.1-3.6.3-5.3.5-2.1.2-4.2.5-6.3.5-9.9.4-19.4 3.7-29.8 10.6-.4.2-.6.6-.7.9-.1.2-.1.3-.2.4l-.3.4.5.3c.1.1.3.2.4.3.4.4 1 .8 1.5.6 6.1-1.3 10.6 1.7 14.7 5.2.9.7 1.8 1.9 1.7 2.3-.5 3.4 1.6 4.9 3.8 6.1.3.2.5.3.7.6 3 3.6 4.7 7.9 6.3 12.1l.6 1.6v.2c-1.4 2.4-.2 4.2 1 5.8l.2.4c1.4 2.2 2.3 3.9 3.1 5.6l.1.2c.5 1.1 1.2 2.4 1.1 3.5-.5 2.6 1.1 2.9 2.6 3.2 1.3.2 2.6.5 3.7.9 1.2.4 2.4.9 3.2 1.7.9.9 1.8 1.5 3.4 1.3 2.4-.3 4.6.4 6.9 2.1.6.5 1.2.9 1.9 1.4.6.4 1.2.9 1.8 1.3 2.8 2.2 5.4 4.2 5.3 8v.6l.6-.1c.9-.2 1.8-.3 2.6-.5 2-.4 3.9-.8 5.8-.9h.6c4.8-.4 9.7-.8 13.5 2.8 2.6 2.5 5 2.9 7.7 1.3.4-.2.9-.3 1.5-.3.3 0 .5 0 .7-.1 4.2-.4 8.6-.8 13-1.1 1.8-.1 3.2.6 4 2 .8 1.5 2 1.5 3.1 1.4 1.4-.2 2.8-.3 4.1-.4 1.4 0 2.8-.1 4.2-.1 2.8-.1 5.7-.2 8.5-.2 1.2 0 2.8.5 4.2 1.4.6.4 1.1.6 1.6.6.6 0 1.1-.3 1.9-.8 7.3-5.4 14.6-7.1 22.2-5.4 1.2.3 2.5.4 3.6-1 1.5-1.8 3-3.6 4.8-5.2.2-.2.4-.4.7-.6 1.2-1.1 2.6-2.5 3.8-2.5 4.2-.1 7.3-1.5 9.7-4.3.2-.2.7-.5.9-.6 1-.2 1.7-.6 2-1.2.4-.6.3-1.5-.1-2.5-1.2-3.1-.4-5.8 2.3-8 1.4-1.2 1.5-2.6 1.4-3.8 0-.5-.1-1-.1-1.5-.1-1.4-.3-2.9.2-3.9 1.7-3.2 2.7-6.3 3.8-9.7l.3-.9c1.4-4.1 5-7.1 9.5-8.2 2.2-.6 3.2-1.6 3.3-3.5 0-.5.2-1.1.3-1.6.1-.5.2-1 .2-1.4.4-2.7.1-2.9-2.4-3.7z"/>
    <path class="st0" d="M55.4 497.1c-1.2-4-3-6.8-5.8-8.8-4.1-2.8-8.9-4.7-14.6-5.7-4.6-.8-9-.7-13.7-.6-.8 0-1.6 0-2.3.1-10 .2-20.7 1.5-32.7 3.9-4.7.9-10.1 1.4-16.8 1.4-2.9 0-5.9-.5-8.8-1-1.3-.2-2.7-.5-4-.7-7.6-1.1-15.2-2.2-22.7-3.3-3.7-.6-7.5-1.2-11.2-1.9-2.2-.4-4.4-.8-6.6-1.1-1.2-.2-2.3-.3-3.6-.4-7.9-.2-18.3 0-28.5 3-6.1 1.8-10.6 4.2-14 7.6-1.8 1.7-2.6 2.6-2.6 3.6s1 1.8 2.9 3.3c.4.3.7.6 1 .9 1 1.3 2 .8 2.8.2 2.4-1.9 4.7-1.8 7.8.3 3.4 2.3 5.9 5.6 7.5 10l.3.9.5-.8c.2-.3.3-.5.5-.7.3-.4.5-.7.6-1 2.8-6.2 7.8-9.5 15.8-10.5 3.9-.5 6.6 1 8.1 4.4.9 2 1.5 4.1 2.1 6.2.1.5.3 1 .4 1.5.6 1.7 1 3.4 1.7 5.8l.5 1.7.6-1.3c.3-.8.6-1.4.8-1.8.1-.3.3-.6.4-.9 2.1-5.7 7.7-10.1 14.3-11.2 6.4-1.1 12.4 1.2 16.4 6.3 1 1.3 2 2.6 2.8 3.9 1.1 2 2.1 4 3.2 6.1l1.2 2.5.8-1.3c.5-.8.9-1.5 1.2-2.1 5.3-8.6 12.8-14.4 22-17.3 4.9-1.5 9.2.1 12 4.4.7 1.1 1.3 2.4 1.8 3.6.2.4.3.7.5 1.1.7 1.4 1.4 2.8 2.2 4.3l.3.7.5-.6c.7-.8 1.3-1.5 1.8-2.2 1.3-1.5 2.4-3 3.7-4.4 3.8-4.1 7.3-7.7 12.1-9.8 2.9-1.3 5.8-1.4 8.1-.3 2.4 1.1 4.1 3.5 4.9 6.5.3 1.2.5 2.5.6 3.8.1.7.2 1.4.3 2 .2 1.2.4 2.4.7 4.5l.2 1.2 2.5-3.4c1.1-1.5 2-2.7 2.8-3.9 1.8-2.4 3.9-3.2 6.6-2.3.8.3 1.8.7 2.6-.7 1.3-2.5 3.6-4.3 6.9-5.2l.5-.1.1-.4z"/>
    <path class="st0" d="M70.1 642.5c-.2-.1-.8-.4-1.7.2-1.9 1.5-3.8 3.2-5.5 4.9-.5.5-.1 1.7.3 2.1.8.8 1.7 1.5 2.6 2.3.6.5 1.2 1 1.9 1.6l.6.6.2-.8c.2-1 .4-1.9.6-2.9.5-2.2.9-4.2 1.4-6.3.2-.7 0-1.4-.4-1.7z"/>
    <path class="st0" d="M63.6 655c-.2-.3-.4-.6-.5-.9l-.3-.5-.4.4c-2.7 2.2-5 4.8-3.9 8.9.2 1 3.1 3.9 4 4.1h.2c.2 0 .4-.1.5-.2.9-1 1.4-2.1 1.9-3.3.2-.5.3-1.1.5-1.6.1-.5.2-1 .4-1.5.3-1.1.3-2-.7-3-.7-.7-1.2-1.5-1.7-2.4z"/>
    <path class="st0" d="M59 526.1c.3.7.8 1.1 1.3 1.2h.1c.5 0 1-.3 1.4-1 .5-.6.5-1.6.5-2-.7-4.8-1.4-9.3-2.1-13.6-.3-2.1-.6-4.2-1.1-6.3-.4-1.6-1.5-2.7-2.9-3-1.4-.3-2.8.3-3.8 1.5-2.1 2.5-2.5 4.9-1.3 7.4 3 5.2 5.5 10.6 7.9 15.8z"/>
    <path class="st0" d="M60.6 669.9c-.7-.9-1.6-2.1-3.3-1.3-2 .9-3.1 2.3-2.9 3.9.1 1.3.6 2.6 1 3.9l.6 1.8c.1.6.3 1 .6 1.6l.3.6.5-.5.6-.6c.4-.4.6-.6.7-.9.3-.6.5-1.2.8-1.7.7-1.4 1.3-2.9 1.9-4.3.3-.6 0-1.6-.4-2.1-.2-.1-.3-.3-.4-.4z"/>
    <path class="st0" d="M50.7 681.8c-2.1.8-4.1 3.5-3.5 5.5.4 1.4 1 2.6 1.6 4.1.4.9.8 1.8 1.2 2.9l.4.9 1.6-2.4c1.4-2.1 2.6-4 3.7-5.9.5-.8.5-2.1.1-2.9-.9-2.2-2.6-3-5.1-2.2z"/>
    <path class="st0" d="M34.8 528.6l.1.1c.1.1.1.3.2.5 0 .4.1.9.6 1.2.5.3 1 .5 1.4.7.6.3 1.1.5 1.5.9 1.6 1.9 3.4 2.5 5.1 2.5 1.8 0 3.6-.7 5.2-1.4.4-.2.8-.3 1.2-.5.4-.1.7-.3 1.2-.5.6-.3 1.2-.5 1.7-.8 1.6-.7 2.3-1 2.6-1.7.3-.7-.1-1.4-.7-2.9-.2-.5-.5-1.1-.8-1.8-1.7-4.1-3.8-8-5.8-11.8-.5-.9-.9-1.8-1.4-2.7l-.2-.4c-.4-.8-.9-1.7-1.5-2.3-.3-.4-.9-.4-1.2-.4-.3 0-1 .1-1.2.4-4.3 5.6-9.3 11.9-7.9 20.6l-.1.3z"/>
    <path class="st0" d="M46.1 695l-1.2-3c-.3-.7-.6-1.4-.9-2.2-.7-2-1.6-3.1-2.8-3.4-1.1-.3-2.4.3-3.8 1.8-1.9 1.9-3.6 3.9-5.4 6-.5.6-1 1.8-.7 2.7.8 2.6 1.8 5.2 2.8 7.8.5 1.4 1 2.8 1.5 4.1.3.7.6 1.1 1 1.3.1 0 .3.1.4.1.5 0 1-.3 1.4-.6l1.8-1.2c1.3-.8 2.6-1.6 3.6-2.8 1.1-1.3 1.9-2.7 2.6-4.1.3-.7.7-1.3 1-1.8l.1-.2-.1-.2c-.4-1.8-.8-3.1-1.3-4.3z"/>
    <path class="st0" d="M28.8 701c-1.5-3.7-3.8-5.6-6.9-5.5-6 .1-10.8 1.5-14.7 4.2-2.6 1.7-3.7 3.7-3.4 6 .1 1.4.2 2.9.3 4.4.1 1.5.2 3 .4 4.4.6 7.1 1.5 7.9 8.7 8.5h.2c.6-.2 1.2-.3 1.8-.5 1.4-.4 2.9-.8 4.3-1.5 3.5-1.9 7.1-4.1 11.4-7 .7-.4 1.1-2 .8-2.9-.8-3.5-1.6-6.9-2.9-10.1z"/>
    <path class="st0" d="M4.8 533.2c3.6 3.1 8 3.1 11.6 3.1h1.3c.6.1 1.3.2 1.8.2 5.5 0 8.6-4.3 10.7-8.2 1.6-2.9 1.9-6.8.7-10.4l-.2-.8c-1.3-4.1-2.6-8.4-2.6-12.9 0-1.1-.4-2.3-.8-3.3-.6-1.4-1.5-2.4-2.6-2.8-1.1-.4-2.3-.3-3.5.3-2.4 1.1-4.4 2.5-6 4-3.9 3.6-8.8 8.2-11.7 13.8-.8 1.6-1.3 3.3-1.3 4.8-.1 1.7.1 3.4.2 5.1.1 1 .2 2 .2 3 .1 1.7.7 2.9 2.2 4.1z"/>
    <path class="st0" d="M.6 713.2c-.2-2.8-.4-5.7-.7-8.6-.3-2.8-2.4-4.4-5.5-4.1-1.2.1-2.4.1-3.5.2-1 0-2 .1-3 .2v-.1h-3.3c-1.1 0-2.1 0-3.3.1-3.1.3-3.7 1-3.4 4.1l.6 9.5v.2c.2 2.2.4 4.6.8 6.8.2 1.1.4 1.9 1 2.3.3.2.7.3 1.1.3.4 0 .8-.1 1.3-.2 1.7-.4 3.5-.9 5.1-1.4 3.1-.9 6.6-1.4 11-1.4.7 0 1.5-.1 1.9-.6.3-.4.5-1 .4-1.7-.3-1.9-.4-3.8-.5-5.6z"/>
    <path class="st0" d="M-5.4 542.8c1.1-.3 1.9-1.8 2.1-2.3l.1-.2c1.3-3.2 2.6-6.5 2.2-10.2-.2-1.6-.3-3.2-.3-4.8-.2-3.6-.3-7.4-1.8-10.9-1.2-2.9-2.5-5.8-3.9-8.7-1.9-3.9-4.5-4.9-8.4-3.4-5.6 2.1-9.7 4.5-12.8 7.7l-.8.8c-2.5 2.5-5 5.1-6.2 8.6-1.7 5.2-3.6 11.2-4 17.6-.2 2.9.6 5.3 2.3 7 1.5 1.5 3.7 2.3 6.3 2.3h.9c1.9-.2 3.7-.3 5.6-.5 3.7-.3 7.5-.6 11.2-1 2.6-.3 5.2-1.2 7.5-2z"/>
    <path class="st0" d="M-25.7 709.2c-.1-2.3-.3-4.6-.6-6.7-.5-3.9-1.4-4.6-5.2-4.5h-.9v-.3l-.5.1c-.8.1-1.6.1-2.4.2-2.2.2-4.5.4-6.8.8-3.1.5-4.7 2.4-4.9 5.8 0 1.4-.2 2.8-.3 4.2-.2 1.7-.3 3.5-.3 5.3 0 1.3-.1 2.7-.2 4.1-.2 2.5-.4 5 0 7.5.2 1.5 1 2.3 2.5 2.7 1 .3 1.9.4 2.8.4 2.1 0 4-.6 5.7-1.3 2.9-1.1 6.1-2.3 9.3-2.9 2.3-.5 2.6-1.3 2.5-3.2-.3-4-.5-8.2-.7-12.2z"/>
    <path class="st0" d="M-64.8 544.1c.8 0 1.7-.1 2.7-.3 1.6-.4 3.2-.6 4.7-.8 2.4-.3 4.6-.6 6.8-1.5 2.3-1.1 5.1-3.2 6-5.7 2.5-6.5 2.5-11.8.1-16.5-.5-1-1-2.1-1.5-3.1-1.5-3.3-3.1-6.8-6-9.4-2.1-1.9-4.4-3.7-7.4-3.6-8.3.2-13.9 4.7-15.3 12.4-1 5.7-1.9 11.4-2.7 17.1-.1 1.1 0 2.5.6 3.3 3 4.4 6.3 8.1 12 8.1z"/>
    <path class="st0" d="M-57 695c-1.1-.3-2.3-.4-3.6-.5h-1c-.7.1-1.5.2-2.2.2-1.8.2-3.6.3-5.4.8-1.3.3-2.8 1.4-3.6 2.6-1.6 2.2-3.1 4.4-3.8 6.9-1.5 5.3-2.7 10.7-3.8 16l-.2.8c-.1.8.5 2.2 1.2 2.3 1.9.7 4 1.4 5.9 2l1.4.5c2.4.8 4.8 1 7.3 1 1.2 0 2.5-.1 3.7-.1 2.2-.1 4.5-.2 6.7 0 .7.1 1.3 0 1.7-.4.6-.5.7-1.5.7-2.4.1-4.2.4-8.5.7-12.6.1-1.1.2-2.2.3-3.2.2-1.6.3-3.3.4-4.9.3-4.8-1.6-7.5-6.4-9z"/>
    <path class="st0" d="M-79.3 697.6c.3-.8.7-1.6 1-2.3.2-.4.4-.8.5-1.2l.1-.2v-.2c-.1-.5-.2-.9-.3-1.3-.2-1-.4-1.9-1-2.5-2.9-2.6-6.1-5-8.6-6.7-.8-.5-2.6-.4-3.5.1-2.4 1.6-5 3.7-5.6 7.4-.2.9-.5 1.6-.9 2.5-.2.6-.5 1.1-.7 1.7-1.7 4.4-3.5 9.3-5.6 14.5-.6 1.6-.4 2.7.7 3.7 4.3 3.7 9.1 7.4 15 9.5.6.2 1 .3 1.4.3.3 0 .6-.1.9-.2.7-.4.9-1.2 1-1.8l4.5-21c.4-.8.6-1.4 1.1-2.3z"/>
    <path class="st0" d="M-103 537.5c.5.3 1 .5 1.5.8.8.5 1.7.9 2.6 1.3 1.5.6 3 .9 4.5.9 3.2 0 6.1-1.5 8.4-4.4.3-.3.5-.6.7-1 .3-.5.6-.9 1-1.2 2.9-2.6 3.7-6 2.3-10.4-1-3.5-1.9-7.2-2.8-10.7-.6-2.5-1.2-5-1.9-7.4-.4-1.3-.9-3-1.8-4.4-.6-.9-2.1-2-3.2-1.9-7.2.7-11.9 4.3-13.6 10.6-1.4 5.1-2 10-1.8 15.1 0 .5 0 1.1.1 1.6.1 1.1.1 2.2-.1 3.1-.9 3.6.4 6.2 4.1 8z"/>
    <path class="st0" d="M-98.3 685.7l.3-.6c1-2.3 1.5-3.4 1.1-4.3-.5-.9-1.7-1.2-4.3-1.7h-.2c-2.8-.6-7-1-10.2 2.7-1 1.3-2.3 2.3-3.3 3-1.5 1.2-1.9 2.5-1.4 4.2 2.2 6.6 4.9 12.3 8.6 17.8l.5.8.4-.8c.3-.6.4-1 .6-1.4.1-.4.3-.7.4-1 .7-1.7 1.3-3.4 2-5 1.7-4.6 3.5-9.3 5.5-13.7z"/>
    <path class="st0" d="M-107.8 673.9c1.3-1.4.4-3 0-3.8-.3-.5-.6-.9-.9-1.4-.6-.9-1.2-1.8-1.5-2.8-.7-2.5-2.5-3.2-4.3-3.9-.4-.2-.9-.3-1.3-.6-1.8-.8-3 .1-3.9.9-.3.2-.6.5-.8.6-.4.2-.7.4-1.1.6-.6.3-1.1.7-1.7 1-.9.4-1.5.9-1.8 1.6-.2.6-.2 1.4.2 2.2 2 4.5 4 9.2 6.3 14.2l.3.6 3.2-2.8c2.5-2.1 4.9-4.2 7.3-6.4z"/>
    <path class="st0" d="M-127.3 527.7c-.2 4.1 2 6.8 4.2 9 1.1 1.1 2.1 1.6 3 1.6h.1c1 0 1.9-.6 3-1.8 1.6-1.8 3-3.8 4.2-5.6.3-.5.6-1.3.5-1.9-.1-1.6 0-3.3.1-4.9.2-4 .5-8.2-1.6-12.2 0 0 0-.1-.1-.2 0-.1-.1-.3-.1-.4l-.4-1c-1.1-2.9-2.2-5.9-4.7-8-1.7-1.4-2.8-1.9-3.8-1.7-.9.2-1.6 1.2-2.4 3.1-1.5 3.8-2.5 8.3-2.8 13.8.1 1.4.2 2.7.3 4 .4 2 .6 4.1.5 6.2z"/>
    <path class="st0" d="M-122.8 660.7c.6-.4 1.1-.7 1.8-1.2 1.5-1.3 2.7-2.2 3.9-2.8.4-.2.9-.4 1.4-.6 1-.3 1.7-.6 1.7-1.2.1-1-.4-2-.9-2.9-.2-.3-.3-.6-.4-.8-.2-.5-.4-1-.7-1.5-.2-.5-.4-.9-.6-1.4-1.3-2.8-3.7-4.5-6.5-4.6-2.4-.2-6.8 2.3-7.4 4-.3.6-.1 1.4 0 2 .6 1.9 1.1 3.7 1.7 5.6.6 1.8 1.1 3.7 1.7 5.5.2.7.5 1.1 1 1.3.2.1.3.1.5.1.3 0 .7-.1 1.1-.3.6-.5 1.2-.9 1.7-1.2z"/>
    <path class="st0" d="M-124.8 638.6c.3-.4.5-1.6.1-2.1l-.1-.1c-2.5-2.4-5.3-3.9-8.1-4.4-1.4-.1-2.2.1-2.5.6-.4.6-.3 1.3-.1 2 .3 1 .7 1.9 1.1 2.8.2.6.5 1.2.7 1.8v.1c1 2.7 1.4 3.9 2.4 4.2h.3c.9 0 2-.9 3.8-2.6 1.1-.7 1.8-1.6 2.4-2.3z"/>
    <path class="st0" d="M-132 527.2c.7-1 .8-2.5.4-4.5-.8-3.6-.7-7.2.1-11 .5-2.4 1-4.8 1.5-7.3.4-2.2-.9-5.3-2.7-6.3-1.4-.8-2.3 0-3 .6-.4.3-.7.6-1.1.7-.6.1-.9.8-1.2 1.5-.1.3-.2.5-.3.7-2.1 3.6-3.2 7.6-4.3 11.4-.5 1.7-.9 3.4-1.5 5-1.1 3.3-.3 6.5 2.4 9.6.7.8 1.6 1.2 2.4 1.6.3.1.6.3.8.4l.2.1h.2c3.1-.5 5.1-1.1 6.1-2.5z"/>
    <path class="st0" d="M-121 479.9c14.7-5 29.1-6 42.9-3 1.5.4 3.1.6 4.6.9l.7.1c7.8 1.1 15.7 2.1 23.4 3.1l2.5.3 6 .9c3.2.5 6.5 1 9.8 1.3 6.4.5 12.7-.4 18-1.4 5.3-1.1 11.7-2.3 18.1-3 2.4-.3 4.9-.3 7.4-.4 2.7 0 5.5-.1 8.1-.4 7.3-.9 15-.1 22.8 2.6 8.2 2.7 13.2 6.9 15.7 13.1.4.9.9 1.8 1.6 2.5 2.1 2.9 3.4 6.4 3.9 10.7 1.1 8.1 2.2 16.4 4.2 24.8 1.3 5 2.2 10.2 3.1 15.3.5 2.6.9 5.3 1.4 7.9.2 1 .5 2.1.8 3.1.2.8.4 1.5.5 2.2l.1.4h.4c.3 0 .6 0 1-.1l.3-.1v-.3c.1-1.2.2-2.3.4-3.5.2-2.4.5-4.9.8-7.2.9-7 1.9-14.1 2.9-21 .1-.8.3-1.5.4-2.3.3-1.6.6-3.3.8-5v-.2c.4-4.5.8-8.8.7-13.2v-1.9c-.1-5.5-.2-11.3-1-16.9-1.4-9.6-5.5-19.1-12.1-28.2-.6-.8-1.1-1.5-1.7-2.3-1.4-1.8-2.6-3.6-3.9-5.4-3.8-5.5-8.4-8.9-14-10.2-4.4-1.1-9.2-2.1-14.5-3.1-7-1.4-14.3-1.1-23 .8-5.1 1.1-9.3 3.7-12.8 6.2-2 1.4-3.9 2.9-5.8 4.4-1 .8-2.1 1.7-3.2 2.5-.4.3-.9.6-1.3 1-.9.6-1.9 1.3-2.6 2.1-2.9 3.1-6.7 5.5-11.9 7.6l-.4.1c-1.4.6-2.8 1.1-4.2 1.1-11.6.5-22.2-2.5-31.4-9-10.1-7.1-20.6-11.1-32.1-12.4-5.3-.6-10.8-.6-17 0-7.9.8-14.8 2.4-21 5-5.1 2.1-6.8 3.3-10 8.6l-.3.3-.4.4c-9.4 10.6-14.2 23.8-14.7 40.6-.4 12.2.1 25 1.4 39.3l2.1 21.1h1.6l.1-.4c.1-.4.2-.8.2-1.3.2-1.3.5-2.6.6-3.9l.3-6.3c.2-4.1.4-8.3.6-12.4.4-8 .9-15.1 3.1-22.2 2.9-10 6.5-17 11.5-22.9 4-5 8.9-8.5 14.5-10.4z"/>
    <path class="st0" d="M82.2 667.1c-.1-3.2-.2-6.6-.6-9.9-.6-3.8-1.1-7.7-1.7-11.5-.7-4.5-1.4-9.1-2-13.6l-.1-.4h-1.4l-.1.4c-.1.3-.2.5-.3.8-.2.5-.4 1-.4 1.4-.3 1.6-.6 3.2-.8 4.7-.2 1.5-.5 3.1-.8 4.7-1.6 8.1-4.5 16.1-7.2 23.7l-.5 1.5c-.6 1.8-1.4 3.5-2.1 5.3-1 2.4-2 4.8-2.7 7.3-1.3 4.3-2.9 7.7-4.8 10.8l-1 1.5c-2 3-4.1 6.2-5.7 9.5-1.3 2.9-3 4.9-5.3 6.4-1.6 1-3.3 2-4.9 3-4.9 3-9.9 6.1-14.9 9.4-5.7 3.7-11.4 4.7-17.8 3-5.2-1.4-10.8-.6-15.5.3-1.7.3-3.5.8-5.1 1.2-3.3.9-6.3 1.7-9.7 1.5-4.6-.2-8.8 1.4-12.7 3-3.3 1.4-6.6 1.2-10.5.8-3.2-.4-6.5-.5-9.6-.6-1.8-.1-3.7-.1-5.5-.2-1-.1-2.1-.1-3.2-.1-2.1 0-4.2 0-6.1-.5-1.9-.4-3.9-1-5.8-1.5-3.7-1-7.5-2.1-11.4-2.5-1.3-.2-2.7-.7-3.8-1.4-9.9-5-16.5-11-21-18.9-2.3-4.1-4-8.5-5.7-12.7-1.2-3-2.4-6-3.8-9-5.4-11.8-9-24-12.9-37.7-2.2-7.7-5.3-15.2-8.4-22.3l-.3-.8c-.2-.6-.6-1.1-1.1-1.8-.2-.3-.5-.7-.8-1.2l-1-1.6.1 1.9c.1 2.2.3 4.3.4 6.3.3 5.4.6 10.6 1.1 15.7.8 9.2 1.9 19.1 3.2 30.2v.4c.9 7.6 1.8 15.5 3.4 23.1.3 1.6.6 3.3.9 5 1.1 6.3 2.3 12.8 5.6 18.6 0 .1 0 .1.1.2 0 .1.1.2.1.4 2.1 6.4 4.6 13.1 9.6 18.6 2 2.2 4 4.5 5.9 6.7 2 2.3 4 4.5 5.9 6.7.3.3.6.7.9 1 1 1.2 2 2.5 3.3 3.3 1.4.9 2.7 1.9 4.1 2.8 5.7 3.9 11.7 8 17.8 11.5 4.8 2.8 10 5 15 7.2 2 .9 3.9 1.7 5.9 2.6 6.7 3.1 14.1 4.6 22.5 4.6h2.1c1.8-.1 3.5-.1 5.2.2 3.5.7 7 .9 10.5.9 1.8 0 3.7-.1 5.5-.1h1.1c6.2-.3 12.5-.6 18.6-2.4 1.5-.5 3-.9 4.5-1.3 3-.8 6.1-1.7 9-2.9 9.5-4.5 16.9-8.8 23.3-13.6 3.8-2.9 7.7-6 10.8-9.8 3.1-3.7 6-7.7 8.7-11.5 1.3-1.8 2.6-3.7 3.9-5.5 6.3-8.8 9.4-18.8 12-28.4 1.9-7.1 3.5-14.3 5.1-21.7 1.7-7.9 3.1-15.1 2.9-22.7z"/>
    <path id="XMLID_558_" d="M-62.3 543.3c4-1 7.9-.8 11.5-2.3 2.3-1 4.9-3.1 5.8-5.3 2-5.2 2.9-10.7.1-16.1-2.2-4.3-3.7-9-7.4-12.3-2-1.8-4.2-3.6-7.1-3.5-7.8.2-13.4 4.2-14.9 12-1 5.7-1.9 11.4-2.7 17.1-.1 1 0 2.3.5 3 3.4 4.7 7.2 8.8 14.2 7.4zm97.6-14.9c.5.5.1 1.3.7 1.7 1 .7 2.3.9 3 1.7 3 3.5 6.4 2.5 9.8 1 .8-.3 1.5-.6 2.3-.9 5.2-2.4 4.7-1.3 2.5-6.5-2.1-4.9-4.7-9.7-7.2-14.5-.5-.9-1-1.9-1.7-2.7-.2-.3-1.4-.3-1.6 0-4.5 5.9-9 11.9-7.8 20.2zm52.3-30.5c.8 7.8-.2 15.5-.5 23.3-.1 4.3-1.5 8.6-2.2 12.8-.7 4.4-1.1 8.9-1.7 13.3-.7 5-1.5 10-2 15s-.9 10.1-.9 15.2c.1 7.6.5 15.3.8 23H81c.3 9.2.4 18.4 1.1 27.6.5 6.7 1.8 13.3 2.9 19.9 1.5 8.4 1.6 16.9 1.8 25.4.3 8.3-2.1 16-3.9 23.8-1.6 7.1-3.3 14.2-5.2 21.3-2.9 10.7-7.8 20.5-14.5 29.3-3.7 5-7.5 10-11.6 14.7-4.3 4.8-9.5 8.5-15 11.7-6.2 3.7-12.4 7.2-18.8 10.5-2.9 1.5-6.2 2.1-9.4 3.1-11 3.5-22.5 4.8-33.9 4-9.4-.7-18.8-.5-28.1-2.2-7.3-1.4-13.8-4.8-20.4-7.8-4.4-2-8.9-3.9-12.9-6.5-6.2-3.9-24.3-16.9-26.6-19.3-2.2-2.3-4.7-4.3-6.8-6.7-3.2-3.8-6.1-7.8-9.1-11.8-3.3-4.3-4.7-9.5-6.7-14.4-1.6-4.2-6.1-20.6-6.5-22.6-1.1-6.1-2.4-12.3-3.2-18.4-1.2-9.1-2.1-18.2-2.9-27.4-.7-8.2-1.1-16.5-1.6-24.7-.5-8.8-.9-17.6-1.3-26.5-.2-5.3-.1-10.6-.7-15.9-.7-6.1-1.8-12.1-3.1-18.1-1.8-8.9-3.5-17.8-4.1-26.9-.5-8.2-1.7-16.4-2-24.7-.4-12.2-1-24.6 2.3-36.6 1.5-5.6 3.3-11 6.5-16 1.5-2.3 2.5-4.8 3.9-7.1 1.3-2 2.7-3.9 4.4-5.5 4.2-4 9.2-7 14.7-8.9 7.4-2.5 15-3.9 22.9-4.3 9.9-.6 19.6.8 29 3.4 3.3.9 6.4 2.3 9.4 3.9 4.1 2.3 7.8 5.3 12 7.5 8.1 4.2 16.7 7.3 26 6.7 5-.3 9.7-2.1 13.2-6 1.2-1.3 2.7-2.3 4-3.4 2.6-2.2 5.4-4.2 7.6-6.8 2.9-3.3 6.4-5.7 10.4-7.1 9.4-3.5 19.2-4.9 29.2-3.2 6.1 1 12.3 1.8 18.3 3.9 6.5 2.3 11.7 6 15.6 11.6 2.6 3.8 5.3 7.5 8 11.2 3.1 4.2 4.8 9.1 7 13.8 3.6 7.5 3.9 15.2 4.7 22.9zm-6.2 23.3c.4-4.5.8-8.9.7-13.4-.1-6.2-.1-12.5-1-18.7-1.4-10.3-5.9-19.6-12-28-1.9-2.6-3.8-5.1-5.6-7.7-3.4-4.9-7.8-8.6-13.7-10-4.8-1.2-9.6-2.2-14.5-3.1-7.6-1.4-15.1-.9-22.8.8-4.8 1-8.7 3.4-12.6 6.1-3.1 2.1-5.9 4.6-8.9 6.9-1.3 1-2.8 1.9-3.9 3-3.4 3.6-7.6 5.9-12.1 7.7-1.5.6-3.1 1.3-4.7 1.3-11.6.5-22.3-2.5-31.7-9.1-9.7-6.8-20.2-11-31.9-12.3-5.7-.6-11.3-.6-16.9 0-7.2.7-14.2 2.2-20.9 4.9-5.1 2.1-6.7 3.3-9.8 8.4-.2.3-.5.5-.7.8-10.5 11.5-14.5 25.3-15 40.4-.4 13.1.2 26.2 1.4 39.2l2.1 20.7h.7c.3-1.7.7-3.4.8-5.1.3-6.2.5-12.5.9-18.7.4-7.5.9-15 3.1-22.3 2.5-8.5 5.8-16.3 11.6-23.1 4.2-4.8 9-8.4 14.9-10.4 14.1-4.8 28.5-6.2 43.2-3 1.7.4 3.5.7 5.2 1 8.6 1.2 17.3 2.3 25.9 3.4 5.3.7 10.5 1.7 15.8 2.2 6 .5 12-.3 17.9-1.4 6-1.2 12.1-2.3 18.1-3 5.1-.6 10.4-.1 15.5-.8 7.9-1 15.6.1 23 2.6 7 2.4 13.1 6.1 16 13.4.4.9.9 1.7 1.5 2.4 2.3 3.3 3.5 7 4 10.9 1.1 8.3 2.2 16.5 4.2 24.7 1.9 7.6 3 15.5 4.6 23.2.4 1.8.9 3.6 1.3 5.3.3 0 .5 0 .8-.1.4-3.6.7-7.2 1.2-10.7.9-7 1.9-14 2.9-21 .5-2.5 1.2-4.9 1.4-7.4zm-2.8 168.7c1.6-7.5 3.1-15 2.9-22.7-.1-3.3-.2-6.6-.6-9.9-1.1-8.4-2.4-16.8-3.5-25.2h-.6c-.2.7-.6 1.5-.7 2.2-.6 3.1-1 6.3-1.6 9.4-1.7 8.7-4.8 17-7.8 25.3-1.5 4.2-3.5 8.3-4.8 12.5-1.2 3.9-2.7 7.5-4.9 10.9-2.3 3.5-4.8 7.1-6.6 10.9-1.3 2.8-3 5-5.6 6.6-6.6 4.1-13.2 8.1-19.8 12.4-5.7 3.7-11.5 4.8-18.2 3.1-5-1.3-10.3-.6-15.3.3-5 .9-9.7 3.1-14.9 2.8-4.5-.2-8.5 1.3-12.5 3-3.5 1.5-7.1 1.2-10.8.8-5-.5-10.1-.5-15.1-.8-3.2-.2-6.4.1-9.5-.6-5.7-1.3-11.3-3.4-17.1-4-1.4-.1-2.8-.7-4-1.4-8.8-4.5-16.2-10.3-21.2-19.1-3.9-7-6.1-14.5-9.5-21.7-5.6-12.2-9.3-25-12.9-37.8-2.3-8-5.5-15.5-8.7-23.1-.3-.8-.9-1.5-1.8-2.9.5 7.9.8 15 1.5 22 .9 10.1 2 20.2 3.2 30.2.9 7.8 1.8 15.7 3.4 23.4 1.6 7.9 2.3 16.2 6.5 23.4.1.2.1.5.2.7 2.2 6.6 4.7 13.1 9.4 18.4 4 4.5 7.9 9 11.9 13.5 1.3 1.5 2.5 3.2 4.1 4.3 7.2 4.9 14.3 10 21.9 14.3 6.6 3.8 13.8 6.6 20.8 9.8 7.1 3.3 14.6 4.6 22.3 4.6 2.5 0 5-.3 7.4.2 5.3 1.1 10.6 1 15.9.8 6.6-.3 13.2-.5 19.6-2.4 4.5-1.4 9.2-2.3 13.5-4.2 8.1-3.8 16-8.1 23.2-13.5 3.8-2.9 7.7-6 10.8-9.6 4.5-5.4 8.4-11.3 12.6-17.1 6.1-8.5 9.2-18.3 11.9-28.2 1.9-7.1 3.5-14.3 5-21.6zm-7.2-57.7c.3-2.4.3-2.4-2.1-3.1-3.2-.9-6.4-1.7-9.4-3-9.9-4.5-20.3-5.8-31-6.1-8.9-.2-17.6 1.6-26 4.5-8.1 2.7-15.8 6.9-25 6.7.2.9.2 1.2.3 1.6.2.6.4 1.1.6 1.7 4.5 9.9 6.5 20.4 7.2 31.2.1 1.1.2 2.2-.1 3.2-.2.8-.9 1.9-1.6 2-.9.2-2.2-.1-2.8-.8-.7-.6-1.2-1.8-1.2-2.8-.2-7.9-1.1-15.8-3.8-23.3-1.4-3.9-2.9-7.7-4.4-11.6-.4-1.1-1.1-1.5-2.4-1.8-9.7-2-19.2-4.7-28.3-8.9-6.2-2.9-12.5-5.5-19.5-5.8-6.1-.2-12.2-1.2-18.3-.8-3.9.2-7.7.9-11.6 1-11 .4-20.6 4.6-29.6 10.5-.4.2-.6.8-.8 1.2.5.3 1.1.9 1.6.9 6.1-1.3 10.8 1.6 15.1 5.3.8.7 2 2 1.9 2.8-.5 3.1 1.4 4.4 3.6 5.6.3.2.6.4.8.7 3.4 4.1 5.2 9 7 13.8.1.2.1.5 0 .7-1.3 2.3 0 3.9 1.1 5.7 1.1 1.8 2.2 3.7 3.1 5.6.6 1.2 1.4 2.7 1.2 4-.3 2.1.7 2.3 2.2 2.6 1.3.2 2.6.5 3.8.9 1.2.4 2.5.9 3.3 1.8.9.9 1.7 1.3 3 1.2 2.7-.3 5.1.6 7.3 2.2 1.2.9 2.5 1.8 3.7 2.7 2.8 2.2 5.6 4.4 5.5 8.4 2.9-.5 5.7-1.2 8.4-1.4 5.1-.4 10.4-1 14.5 2.9 2.3 2.2 4.4 2.8 7.1 1.2.7-.4 1.6-.4 2.4-.4 4.3-.4 8.7-.8 13-1.1 1.9-.1 3.5.6 4.5 2.3.6 1.2 1.4 1.4 2.6 1.1 1.4-.2 2.8-.3 4.2-.4 4.2-.1 8.5-.4 12.7-.3 1.5 0 3.2.7 4.5 1.5 1.2.8 1.7.7 2.9-.2 6.7-4.9 14.2-7.4 22.6-5.5 1.3.3 2.2.3 3.1-.8 1.5-1.8 3-3.6 4.8-5.2 1.4-1.3 3.2-3.3 4.8-3.3 3.9-.1 6.9-1.3 9.4-4.2.3-.3.8-.6 1.2-.7 1.9-.3 2.2-1.4 1.5-3.1-1.3-3.4-.3-6.3 2.4-8.6 1.2-1 1.3-2.1 1.2-3.4-.1-1.9-.6-4.1.1-5.6 1.8-3.4 2.9-6.9 4.1-10.5 1.5-4.2 5.2-7.4 9.8-8.5 2-.5 2.8-1.3 3-3.1.4-1.1.7-2.2.8-3.2zm-1.3 11.9c.2-1.1-.4-1.8-1.4-1-1.9 1.5-3.7 3.2-5.5 4.9-.2.2 0 1.1.3 1.4 1.3 1.3 2.8 2.4 4.5 3.9.8-3.3 1.5-6.2 2.1-9.2zm-4.7 16.1c.3-1 .3-1.7-.5-2.5-.9-.9-1.4-2.1-2.2-3.4-2.8 2.3-4.7 4.7-3.7 8.4.2.9 3.5 4.1 3.8 3.7.8-.9 1.3-2 1.8-3.1.3-1 .4-2.1.8-3.1zM61.6 526c.4-.5.4-1.3.4-1.6-.7-4.8-1.4-9.2-2.1-13.6-.3-2.1-.6-4.2-1.1-6.2-.8-2.9-3.9-3.6-5.8-1.3-1.7 2-2.5 4.2-1.2 6.8 2.6 5.3 5.2 10.6 7.7 15.9.8 1.5 1.5.7 2.1 0zm-.7 146.2c.2-.4 0-1.2-.3-1.5-.9-.8-1.6-2.4-3.1-1.7-1.4.6-2.8 1.7-2.6 3.4.2 1.9 1 3.8 1.5 5.7.1.5.4.9.6 1.5.8-.8 1.1-1 1.2-1.3 1-2.1 1.9-4.1 2.7-6.1zm-5.6 14.6c.4-.7.4-1.8.1-2.5-.9-2.1-2.4-2.7-4.5-2-1.9.7-3.7 3.2-3.2 4.9.7 2.2 1.7 4.2 2.8 7 2-2.9 3.5-5.1 4.8-7.4zm-.2-189.9c-1.3-3.4-3-6.2-5.8-8.2-4.3-3-9.1-4.7-14.3-5.6-5.3-.9-10.5-.6-15.9-.5-11 .2-21.8 1.7-32.6 3.9-5.5 1.1-11.2 1.4-16.8 1.4-4.3 0-8.6-1.1-12.9-1.7-7.6-1.1-15.2-2.2-22.7-3.3-5.9-.9-11.8-2.1-17.8-3.1-1.2-.2-2.3-.3-3.5-.4-9.6-.2-19.1.3-28.4 3-5.2 1.5-10 3.7-13.8 7.5-3.3 3.2-3.2 3.3.3 6.1.4.3.8.6 1 1 .7.9 1.3.7 2.1.1 2.9-2.3 5.6-1.6 8.4.3 3.5 2.4 6 5.7 7.7 10.2.6-.9.9-1.2 1-1.6 3.2-7 9-10 16.2-10.8 4-.4 7 1 8.6 4.7 1.1 2.5 1.8 5.1 2.6 7.7.6 1.8 1.1 3.6 1.8 6.1.6-1.4.9-2 1.2-2.7 4.1-11.4 21.9-17.2 31.6-5.1 1 1.3 2 2.6 2.8 4 1.4 2.5 2.6 5 4 7.8.6-1 1.1-1.8 1.5-2.6 5.3-8.5 12.7-14.5 22.3-17.5 5.1-1.6 9.7.1 12.6 4.6 1 1.5 1.6 3.2 2.3 4.8.7 1.4 1.4 2.8 2.1 4.3 2.1-2.5 3.7-4.6 5.6-6.6 3.6-3.9 7.3-7.7 12.3-9.9 6.2-2.8 12.1-.1 13.7 6.6.5 1.9.6 3.9.9 5.9.2 1.2.4 2.4.7 4.5 1.9-2.6 3.3-4.5 4.6-6.3 1.8-2.5 4.1-3.5 7.1-2.6.8.3 1.5.6 2.1-.4 1.7-3 4.3-4.6 7.4-5.6zm-8 202.6c-.6-1.8-1-3.1-1.5-4.2-.7-1.8-1.5-3.5-2.1-5.2-1.3-3.6-3.1-4.1-5.8-1.4-1.9 1.9-3.7 4-5.4 6-.4.5-.8 1.6-.6 2.2 1.3 4 2.9 8 4.3 11.9.5 1.4 1.2 1.1 2.1.5 1.8-1.3 3.9-2.3 5.4-3.9 1.6-1.8 2.6-4.1 3.6-5.9zm-16.5 13.8c.5-.3.8-1.6.6-2.4-.8-3.3-1.6-6.6-2.9-9.8-1.1-2.8-3-5.3-6.4-5.2-5.1.1-10.1 1.1-14.4 4.1-1.8 1.2-3.5 2.9-3.2 5.5.3 2.9.4 5.9.7 8.8.6 6.8 1.3 7.5 8.2 8 2-.6 4.1-1 6-2 3.9-2.1 7.7-4.5 11.4-7zM29.8 528c1.5-2.8 1.8-6.5.7-10-1.4-4.5-2.9-9-2.9-13.8 0-1-.4-2.1-.8-3.1-1-2.5-3-3.4-5.4-2.2-2.1 1-4.2 2.3-5.8 3.9-4.4 4.1-8.8 8.3-11.6 13.7-.7 1.4-1.2 3-1.2 4.6-.1 2.7.3 5.4.4 8.1.1 1.5.8 2.5 1.9 3.5 3.3 2.9 7.3 3 11.3 3 .5 0 .9-.1 1.4 0 6.3 1.1 9.6-3.2 12-7.7zM-1.3 720.5c1.3 0 2-.3 1.8-1.8-.4-4.7-.7-9.4-1.2-14.1-.3-2.6-2.2-3.9-5-3.7-2.4.2-4.7.2-7.1.4v-.1h-2.8c-1.1 0-2.1 0-3.2.1-2.8.3-3.2.7-3.1 3.6.2 3.2.4 6.3.7 9.5.2 2.4.4 4.7.8 7 .3 2.1.8 2.4 2.8 2 1.7-.4 3.4-.9 5.1-1.4 3.7-1.3 7.5-1.5 11.2-1.5zm-2.4-180.2c1.3-3.3 2.6-6.5 2.2-10.2-.6-5.2 0-10.6-2.1-15.6-1.2-2.9-2.5-5.8-3.9-8.7-1.8-3.6-4-4.6-7.8-3.2-4.6 1.7-9.1 4-12.6 7.6-2.7 2.8-5.6 5.5-6.9 9.3-1.9 5.7-3.6 11.4-4 17.5-.4 5.8 3.2 9.4 9 8.9 5.6-.5 11.2-.9 16.8-1.5 2.5-.3 5-1.2 7.5-2 .8-.4 1.5-1.3 1.8-2.1zm-23.9 183.9c2-.4 2.2-1 2.1-2.7-.3-4.1-.5-8.2-.7-12.3-.1-2.2-.3-4.5-.6-6.7-.4-3.7-1.1-4.2-4.7-4.1h-1.4v-.2c-3 .3-6.1.6-9.1 1-3 .5-4.3 2.3-4.5 5.3-.1 3.2-.6 6.3-.6 9.5 0 3.8-.9 7.7-.2 11.5.2 1.4.9 2 2.1 2.3 2.9.8 5.5.2 8.2-.9 3.1-1 6.2-2.2 9.4-2.7zM-51 704.1c.1-4.7-1.7-7.2-6.1-8.6-1.3-.4-2.8-.4-4.4-.5-2.4.3-5 .4-7.5 1-1.2.3-2.6 1.3-3.3 2.4-1.5 2.1-3 4.3-3.7 6.7-1.6 5.5-2.8 11.2-4 16.8-.1.5.4 1.6.9 1.8 2.4.9 4.9 1.6 7.3 2.5 5.8 1.9 11.7.3 17.5.9 1.6.2 1.8-.9 1.8-2.3.1-4.2.4-8.4.7-12.6.3-2.7.7-5.4.8-8.1zm-27.2-10.2c-.4-1.5-.4-2.9-1.1-3.6-2.7-2.4-5.6-4.6-8.5-6.7-.7-.4-2.2-.3-2.9.1-2.6 1.7-4.8 3.7-5.4 7.1-.3 1.5-1.1 2.9-1.6 4.3-1.8 4.8-3.7 9.7-5.6 14.5-.5 1.3-.4 2.2.6 3.1 4.5 3.8 9.1 7.4 14.8 9.4 1.7.6 2.4.2 2.7-1.4 1.5-7 3-14 4.6-21 .2-.8.5-1.5.9-2.3.4-1.2 1-2.4 1.5-3.5zm-6.6-160.3c3.1-2.8 3.3-6.2 2.2-9.9-1.7-6-3.1-12.1-4.7-18.1-.4-1.5-.9-3-1.7-4.2-.6-.8-1.9-1.8-2.8-1.7-6.4.6-11.3 3.6-13.2 10.2-1.4 5-2 9.9-1.8 15 0 1.6.3 3.4 0 4.9-.8 3.7 1.1 5.8 4 7.3 1.3.7 2.7 1.5 4.1 2.1 4.8 1.9 9.1.7 12.3-3.3.5-.7 1-1.6 1.6-2.3zm-14 151.8c2.2-4.8 2.4-4.7-2.9-5.8-3.6-.8-7-.6-9.7 2.5-1 1.2-2.2 2.2-3.4 3.1-1.3 1-1.7 2.1-1.2 3.6 2 6 4.7 11.8 8.5 17.6.5-1.1.7-1.8 1-2.4 2.6-6.2 5-12.4 7.7-18.6zm-9.6-11.8c1.1-1 .7-2.1 0-3.2-.8-1.4-2-2.7-2.4-4.3-.8-2.8-3.2-3.1-5.3-4.1-2-.9-3 .7-4.3 1.5-.9.5-1.8 1.1-2.8 1.6-1.4.6-2 1.6-1.3 3.1 2 4.6 4 9.2 6.3 14.2 3.4-3 6.7-5.9 9.8-8.8zm-4.7-143.1c.3-.4.4-1.1.4-1.6-.2-5.7 1.4-11.5-1.4-16.9-.1-.2-.1-.5-.2-.7-1.2-3.2-2.2-6.5-4.9-8.8-2.9-2.4-4.1-2.2-5.4 1.2-1.8 4.5-2.5 9.3-2.8 13.6.2 3.9.7 7.2.6 10.4-.2 3.7 1.7 6.3 4.1 8.6 2 2 3.5 2 5.4-.2 1.5-1.7 2.8-3.6 4.2-5.6zm-1.3 124.3c.1-1.2-.8-2.4-1.3-3.6-.4-1-.9-1.9-1.3-2.9-1.3-2.8-3.6-4.2-6.2-4.3-2.2-.1-6.4 2.2-6.9 3.7-.2.5-.1 1.2 0 1.7 1.1 3.7 2.3 7.4 3.4 11.1.3 1.1.9 1.3 1.8.8 1.2-.8 2.3-1.5 3.5-2.3 1.3-.9 2.7-1.9 4-2.8 1-.6 3-.9 3-1.4zm-10.8-16.5c.2-.3.3-1.2.1-1.5-2.3-2.2-5-3.8-7.8-4.3-2.2-.1-2.6.4-2.1 2s1.2 3 1.8 4.6c1.8 5 1.8 5.1 5.8 1.5.8-.7 1.6-1.5 2.2-2.3zm-5.4-134c.4-2.1-.9-4.9-2.5-5.8-1.7-1-2.4 1.1-3.7 1.3-.5.1-.8 1.3-1.2 2-2.9 5.1-3.9 10.9-5.7 16.3-1.2 3.5 0 6.6 2.3 9.1.9 1 2.3 1.4 3.1 1.9 5.2-.8 7.2-1.6 6.2-6.4-.8-3.8-.7-7.5.1-11.2.5-2.4 1-4.8 1.4-7.2z"/>
</svg>
