<svg id="Peace" xmlns="http://www.w3.org/2000/svg" viewBox="-233 450 325 325">
    <style>
        .st0{fill:#fff}
    </style>
    <path class="st0" d="M55.4 701.4c-1-.9-2.1-1.8-3.1-2.6-1.5-1.2-3.1-2.5-4.5-3.9l-3.1-2.7c-8.6-7.7-17.5-15.6-27-22.7-7.9-5.9-15.7-11.8-23.6-17.7s-15.7-11.8-23.6-17.6c-5-3.8-10-7.8-14.9-11.6-4.3-3.4-8.7-6.9-13-10.2-2.8-2.2-4-5-4-9.7.1-19.9 0-40.2 0-59.8V513c0-9.6.1-19.4.3-28.8.1-7.1.2-14.4.2-21.6 0-1.1 0-2.2-.1-3.2v-.3l-.3-.1c-4.7-1.6-12.1-1.7-15.2-.2l-.3.1v145.7c0 1.4-.1 2.9-.2 4.3-.1 2-1 3.3-2.9 3.8-1.4.5-2.7 1.3-4 2.1l-.3.2c-6.4 3.8-12.8 7.5-19.2 11.3-6.4 3.8-12.8 7.5-19.2 11.3-.8.5-1.6.9-2.4 1.4-2.6 1.5-5.4 3.1-7.9 4.8-4.9 3.3-9.9 6.7-14.7 10-5.6 3.8-11.3 7.8-17 11.6-3 2-6.2 4-9.3 5.9-3.1 1.9-6.3 3.9-9.3 5.9-5.5 3.5-10.6 7.8-15.4 12l-1.4 1.2.1.3c1.4 4.6 4 8.6 8.3 12.9l.3.3.3-.2c5.6-3.4 11.1-6.8 16.7-10.5 2.5-1.6 4.9-3.4 7.3-5 3-2.1 6.1-4.3 9.3-6.4 8.9-5.7 18-11.4 26.8-16.9 4.5-2.8 8.9-5.6 13.4-8.3 2.1-1.3 4.3-2.7 6.5-4 2.2-1.4 4.4-2.7 6.5-4.1 6-3.7 12.6-7.7 19.6-11.9.8-.4 1.6-.5 2.2-.3.5.2.9.6 1.2 1.1.7 1.3 1.1 3 1.2 4.7.1.9-.1 1.8-.2 2.8-.1.8-.2 1.6-.2 2.4v111.8c0 1 .1 1.9.2 2.8 0 .5.1.9.1 1.4v.4l.4.1c1.8.3 3.5.5 5.2.8 3 .4 6.1.9 9.4 1.3l.5.1v-.5c0-.7.1-1.2.1-1.7.1-.9.1-1.6.1-2.3v-16.3c0-16.2.1-32.3.1-48.5 0-16.1 0-32.3.1-48.5 0-2.3.2-4.1.5-5.6s.8-2.3 1.4-2.6c.6-.3 1.5-.2 2.8.3 2.1.9 4.6 2 6.7 3.5 6.4 4.3 12 8.2 17.3 12C-26 662.8-16 670-6.4 677l6.4 4.6c1.4 1 2.9 2 4.3 3.1 4.2 3 8.6 6.1 12.7 9.3 1.5 1.2 3 2.3 4.5 3.4 5.6 4.3 11.5 8.7 16.3 14.1l.2.3c1.5 1.7 3.2 3.7 5.4 4.6l.3.2.2-.3c1.2-1.4 2.3-2.7 3.4-3.9.8-1 1.6-1.9 2.4-2.9.4-.5.9-1 1.3-1.5 1.6-1.7 3.2-3.5 4.4-6l.2-.3-.2-.3z"/>
    <path id="XMLID_727_" d="M85.4 581.2c2.2 9.9 3.8 20 3.6 30.2-.1 5.6-.8 11.1-1.2 16.7-.3 4-.9 7.9-.9 11.9-.1 6.1-.9 12.1-2.8 17.9-.9 2.9-1.6 5.9-2.4 8.8-3.2 11.1-7.9 21.6-14.6 31.1-2.3 3.3-4 7-6.6 9.9-6.4 7.3-11.4 15.9-18.6 22.5-1.7 1.5-3.4 2.9-5.1 4.3-6.6 5.2-13.2 10.4-21.1 13.9C9.6 751 4 754.8-1.6 758.6c-9.7 6.6-20.5 10.2-31.9 12.4-5.2 1-10.4 1.5-15.7 1.9-2.7.2-5.4 0-8.1 0-11.4.6-22.5-2.3-33.9-1.9-4.6.1-9.4-1.7-14-2.9-7.2-2-14.4-4.3-21.5-6.5-4.8-1.5-8.9-4.2-12.9-7.2-7.4-5.6-15-10.9-22.7-16-9.7-6.3-19.2-12.7-26.4-21.9-1.7-2.1-3.7-3.9-5.7-5.8-4.4-4.3-7.6-9.5-10.1-15-4.8-10.4-9.4-21-14-31.5-3.7-8.4-5.3-17.4-7.5-26.2-1.1-4.3-1.7-8.8-2.6-13.1-1.7-8.7-1.9-17.5-.2-26.2 1.8-9.4 3.6-18.8 6-28.1 2.8-10.3 7.3-20.1 11.7-29.8 4.4-9.5 10-18.2 16.5-26.3 2.6-3.2 5.2-6.5 7.9-9.7 4.3-5.2 9.8-9.1 15.2-13.1 3.6-2.7 7.2-5.4 10.8-8 1.3-.9 2.6-1.9 4-2.7 6.4-3.5 12.6-7.5 19.4-10.4 4.2-1.8 8.3-4.1 12.3-6.4 2.9-1.7 5.9-2.8 9.4-3.2 3.4-.4 6.7-1.9 10.1-3 9.8-2.9 19.7-5.1 30-5.6 15.4-.9 30.2 1.9 45 5.2 9.1 2 17.8 5 26.1 9.4 1.2.7 2.6 1.2 4 1.6 6.1 1.8 11.4 4.9 16.3 8.9 2 1.6 3.9 3.4 6 4.7 7.6 4.7 13.8 10.8 19.5 17.6 5.5 6.6 11.1 13.2 16.3 20.1 9.4 12.4 16.7 26 22 40.7 2.3 6.7 4.2 13.6 5.7 20.6zm-4.5 37.6c.1-3.9-.5-7.9-.7-11.9-.4-6.8-.3-13.8-1.4-20.5-1.1-6.7-3.2-13.3-5.1-19.9-1.3-4.4-3.5-8.7-4.4-13.1-1.2-6.9-4.6-12.5-8.5-18-3.1-4.5-7-8.3-10.5-12.4-4.9-5.7-9.6-11.5-14.4-17.3-5.8-7-12.1-13.6-20.1-18.3-1.6-1-2.9-2.5-4.5-3.5-3.7-2.5-7.3-5.2-11.3-7.2-11.8-5.7-24-10.6-36.9-13.3-5.9-1.2-11.3-2.2-18.3-3.4v147.4c5 3.6 9.3 7.2 13.9 10.6 14.5 10.7 29.3 21.3 43.8 32 8.3 6.2 16.7 12.4 24.7 19 8.9 7.3 17.5 15 26.2 22.4 1.7 1.4 3.4 2.7 5.6 4.4 2.9-4.7 5.8-8.6 8-13.1 3.4-7.2 6.4-14.6 8.2-22.5.4-1.7.8-3.4 1.4-5.1 1.8-5 2.3-10.2 2.4-15.5.1-2.5.4-5.1.7-7.6.4-4.3 1.1-8.7 1.2-13.2zm-31.1 90.3c2-2.3 4.2-4.3 5.6-7.3-2.7-2.2-5.4-4.3-7.9-6.5-9.8-8.7-19.5-17.5-30-25.4-15.7-11.8-31.6-23.4-47.2-35.3-9.4-7.1-18.6-14.7-28-21.8-3.4-2.7-4.2-6-4.2-10.1.1-29.9 0-59.8 0-89.7 0-16.8.4-33.6.5-50.4 0-1.1 0-2.2-.1-3.1-4.6-1.6-11.8-1.7-14.8-.2v7.2c0 46.1-.1 92.1-.1 138.2 0 1.4-.1 2.9-.2 4.3-.1 2.1-1 3.6-3.2 4.3-1.5.5-2.9 1.4-4.2 2.2-12.8 7.5-25.6 15.1-38.4 22.6-3.4 2-7 4-10.3 6.2-10.6 7.1-21 14.5-31.7 21.6-6.1 4.1-12.5 7.7-18.6 11.8-5.9 3.8-11.2 8.4-16.5 12.9 1.6 5.1 4.5 9 8.2 12.7 5.7-3.6 11.2-6.9 16.7-10.5 5.6-3.7 10.9-7.8 16.6-11.4 13.3-8.5 26.8-16.8 40.2-25.2 4.3-2.7 8.7-5.4 13-8.1 6.5-4 13.1-8 19.6-11.9 1.6-.9 3.4-.6 4.1 1 .8 1.5 1.2 3.3 1.3 4.9.1 1.7-.4 3.5-.4 5.2v111.8c0 1.4.2 2.8.3 4.2 4.9.7 9.4 1.4 14.6 2.1.1-1.9.2-2.9.2-4 0-5.4-.1-10.9-.1-16.3.1-32.3.1-64.6.2-96.9 0-1.9.1-3.9.5-5.7.7-3.1 2-3.8 4.8-2.7 2.3 1 4.7 2.1 6.8 3.5 5.8 3.9 11.6 7.9 17.3 12 11.9 8.6 23.9 17.2 35.8 25.8 5.7 4.1 11.5 8.1 17 12.4 7.2 5.6 14.7 10.7 20.9 17.6 1.6 1.8 3.3 3.8 5.5 4.8 2.4-2.4 4.3-4.6 6.2-6.8zM28 731.4c4-2.8 8.2-5.4 10.7-10.1-6-6.4-12.1-12.4-19.1-17.5-4.9-3.6-9.9-7.1-14.7-10.7-9.2-6.9-18.3-13.9-27.5-20.8-9.5-7-19.1-13.9-28.7-20.9-1.8-1.3-3.7-2.5-6.4-4.3v106c0 3.8.1 7.7.2 11.5 0 .1.1.3.2.4l.7.7c3.8.9 8.1.7 12.4.2 6.1-.6 11.9-2.4 17.8-3.8 6.4-1.6 12.3-4.3 18-7.6 1.4-.8 2.7-1.8 3.8-2.9 3-3.2 6.5-5.6 10.5-7.4 3.4-1.5 6.7-3.1 10-4.7 1.4-.7 3.1-1.2 4.2-2.3 2.1-2.5 5.1-3.9 7.9-5.8zM-87 609.7c2.7-1.6 3.9-3.5 3.9-6.9-.1-40.5 0-80.9 0-121.4v-21.2c-2 0-3.4-.3-4.7.1-5.4 1.4-10.8 3-16.1 4.6-3.9 1.2-7.6 3.2-12 3.1-1.3 0-2.7.9-3.9 1.7-5.8 3.8-12.2 6.3-18.3 9.4-6 3-11.7 6.5-17.4 10-3.8 2.4-7.3 5.1-10.8 7.9-4.3 3.3-8.9 6.4-12.5 10.4-11.2 12.6-21.4 25.5-27.4 41.5-2.2 5.9-5.1 11.6-7.3 17.6-3.3 9.2-5 18.8-6.9 28.3-1.8 9.3-2.8 18.6-.9 28.1 1 5 1.7 10.1 2.9 15 2.2 9.3 3.9 18.8 8.1 27.5 1.3 2.7 3 5.5 3.3 8.4.5 4.4 3.1 7.6 5.1 11.4 1-.8 1.7-1.3 2.4-1.9 2.4-2.1 4.5-4.6 7.1-6.4 6.9-4.9 13.9-9.7 20.9-14.4 9.3-6.2 18.8-12.1 27.9-18.6 7.5-5.2 15.3-9.9 23.2-14.4 11.3-6.2 22.3-13.2 33.4-19.8zm-.2 153.4v-118c-34 21.1-66.5 41.8-99.6 62.6 4.7 5.9 9.3 11.5 15.3 15.8 7 5 14.4 9.5 21.5 14.4 5 3.4 10.1 6.8 14.8 10.6 4 3.3 8.5 5.5 13.4 7.3 8.7 3.2 17.8 5.1 26.8 7.4 2.5.6 4.8.9 7.8-.1z"/>
    <path class="st0" d="M-153.6 686.2c-11.1 7-22.2 14-33.4 21.1l-.5.3.3.4c4.9 6.2 9.5 11.7 15.4 15.9 3.9 2.8 8.1 5.5 12 8.1 3.1 2 6.3 4.1 9.5 6.3l1.4.9c4.5 3.1 9.1 6.2 13.4 9.6 3.6 3 7.9 5.3 13.5 7.4 6.7 2.5 13.7 4.2 20.6 5.9 2.1.5 4.2 1 6.3 1.6 1.4.3 2.7.6 4.2.6 1.2 0 2.5-.2 3.9-.7l.3-.1V644.2l-.8.5c-22.5 13.9-44.7 28-66.1 41.5z"/>
    <path class="st0" d="M19.9 703.4c-2-1.5-4.1-3-6.1-4.4-2.8-2-5.8-4.2-8.6-6.3-4.6-3.5-9.2-7-13.8-10.4-4.6-3.5-9.1-6.9-13.7-10.4-6-4.4-12.1-8.9-18.1-13.2-3.5-2.6-7.1-5.1-10.6-7.7-1.3-.9-2.5-1.7-4.1-2.8-.7-.5-1.5-1-2.3-1.5l-.8-.5v106.9c0 3.9.1 7.9.2 11.5 0 .3.2.6.3.8l.8.8h.1c2 .5 4.1.6 6.2.6 2.3 0 4.5-.2 6.4-.4 4.7-.5 9.3-1.7 13.8-2.8 1.4-.3 2.7-.7 4.1-1 5.8-1.5 11.7-4 18.1-7.7 1.4-.8 2.8-1.8 3.9-3 2.9-3.1 6.3-5.4 10.3-7.3 3.4-1.5 6.7-3.1 9.9-4.7h.1c.4-.2.8-.4 1.2-.5 1.1-.5 2.3-1 3.1-1.9 1.6-1.7 3.5-2.9 5.4-4 .9-.5 1.8-1.1 2.7-1.7l1.1-.8c3.6-2.5 7.4-5.1 9.7-9.5l.2-.3-.3-.3c-6.4-6.6-12.4-12.5-19.2-17.5z"/>
    <path class="st0" d="M81 611.2c-.1-1.4-.3-2.9-.3-4.4-.1-2-.2-4.1-.3-6.1-.2-4.8-.4-9.7-1.1-14.5-.9-5.6-2.6-11.3-4.2-16.7-.3-1.1-.6-2.2-.9-3.2-.5-1.8-1.2-3.6-1.9-5.4-1-2.5-2-5.1-2.5-7.7-1.3-7.3-5-13.2-8.5-18.2-2.2-3.2-4.9-6.2-7.5-9-1-1.1-2.1-2.3-3.1-3.4-2.8-3.3-5.6-6.7-8.4-10-2-2.4-4-4.9-6-7.3-5.2-6.3-11.7-13.4-20.2-18.4-.8-.5-1.5-1.1-2.2-1.7-.7-.6-1.5-1.3-2.3-1.8-.8-.5-1.6-1.1-2.4-1.6-2.9-2-5.8-4-9-5.6-13.9-6.7-25.7-11-37-13.3-5.8-1.2-11.2-2.2-18.3-3.4l-.6-.1v148.2l.2.1c2.8 2 5.4 4 7.9 6 2.1 1.6 4 3.1 6 4.6 7.3 5.4 14.7 10.8 21.9 16 7.2 5.2 14.6 10.6 21.9 16l2.4 1.8c7.4 5.5 15 11.2 22.3 17.2 5.6 4.6 11.2 9.4 16.6 14.1 3.2 2.8 6.4 5.6 9.6 8.3 1.5 1.2 3 2.4 4.8 3.8l1.2 1 .3-.5c.9-1.5 1.8-2.9 2.7-4.3 1.9-3 3.8-5.8 5.2-8.8 4.1-8.5 6.7-15.7 8.2-22.6.4-1.7.8-3.4 1.4-5 2-5.5 2.3-11.3 2.4-15.6.1-2.4.4-5 .7-7.6.1-1.6.3-3.2.5-4.8.3-2.8.7-5.7.8-8.6.2-2.4-.1-5-.3-7.5z"/>
    <path class="st0" d="M-85.1 459.7c-1.1-.1-2-.1-2.9.1-5.1 1.3-10.1 2.8-16.1 4.6-1.1.3-2.3.8-3.4 1.2-2.8 1-5.4 2-8.5 1.9-1.4 0-2.8.8-4.2 1.8-3.9 2.6-8.2 4.6-12.3 6.5-1.9.9-4 1.9-5.9 2.9-6 3-11.8 6.6-17.4 10-3.3 2.1-6.4 4.5-9.4 6.8l-1.4 1.1c-1.1.9-2.3 1.8-3.4 2.6-3.2 2.4-6.5 4.9-9.1 7.8-12.3 14-21.7 26.4-27.4 41.7-1.1 2.9-2.3 5.7-3.5 8.5-1.3 3-2.6 6-3.8 9.1-2.9 8.2-4.6 16.8-6.3 25.1l-.7 3.3c-1.6 8.2-3 18-.9 28.2.4 1.9.7 3.7 1 5.6.5 3.1 1.1 6.3 1.9 9.4.4 1.6.7 3.1 1.1 4.7 1.7 7.7 3.5 15.6 7.1 22.9.3.5.5 1.1.8 1.6 1.1 2.2 2.2 4.4 2.5 6.6.4 3.4 1.9 6 3.6 8.8.5.9 1.1 1.8 1.6 2.8l.3.5.5-.4c.4-.3.8-.6 1.1-.8.5-.4.9-.7 1.3-1.1.9-.8 1.8-1.6 2.6-2.4 1.4-1.4 2.9-2.8 4.5-3.9 6.4-4.5 13.2-9.3 20.9-14.4 3.4-2.2 6.8-4.5 10.1-6.6 5.9-3.8 12-7.8 17.8-11.9 6.5-4.5 13.9-9.1 23.2-14.4 7.1-4.1 14.2-8.4 21.1-12.6 4.1-2.5 8.1-4.9 12.2-7.4 2.9-1.7 4.1-3.9 4.1-7.3-.1-26.9 0-54.3 0-80.8v-62.1h-.5c-1 .1-1.6.1-2.2 0z"/>
</svg>
