<svg xmlns="http://www.w3.org/2000/svg" viewBox="0 0 1920 1920">
    <style>
        .st0{fill:#fff}.st1{fill:none;stroke:#231f20;stroke-width:50;stroke-linecap:round;stroke-linejoin:round;stroke-miterlimit:10}
    </style>
    <path class="st0" d="M1703.1 305v1116s-7.3.3-20.4 1c-119.3 6.5-722.7 46.8-722.7 192.9V499c0-162.2 743.1-194 743.1-194zm-1486.2 0v1116s7.3.3 20.4 1c119.3 6.5 722.7 46.8 722.7 192.9V499c0-162.2-743.1-194-743.1-194z" id="Layer_2"/>
    <g id="STROKES">
        <g id="XMLID_1_">
            <path class="st1" d="M960 499c0-162.2-743-194-743-194v1117h20.4"/>
            <path class="st1" d="M960 1615c0-146.2-603.4-186.4-722.7-192.9-13.1-.7-20.4-1-20.4-1"/>
            <path class="st1" d="M1682.7 1422.1h20.4V305S960 336.8 960 499v1116c0-146.2 603.4-186.4 722.7-192.9 13.1-.7 20.4-1 20.4-1"/>
        </g>
    </g>
</svg>
