<svg id="Hand_Peace_Sign" xmlns="http://www.w3.org/2000/svg" viewBox="-267 399.2 256.3 427.8">
    <style>
        .st0{fill:#fff}
    </style>
    <path class="st0" d="M-67.4 704.2c-.2-9.7-2.8-16.9-7.9-22.6-5.4-6-10.8-12.3-16.1-18.3-5.3-6.1-10.7-12.3-16.1-18.4-2.6-3-5.8-5.5-8.3-7.4-12.3-9.8-26.9-13-41.9-15.6l-1.3-.2c-2.9-.5-5.7-1-8.6-1.5-1.5-.2-3-.4-4.4-.3-5.1.3-10.2.7-15.3 1.2-4.3.4-7.5.8-10.5 1.4-3.1.7-5.7 2.4-7 4.5-.8 1.3-1.1 2.8-.7 4.2l.2.7c1.2 4.7 2.5 10.1 5.8 13.4 9.8 9.6 22 12.9 36.3 9.7 2.3-.5 4.5-1.1 6.7-1.8 2.2-.6 4.4-1.2 6.7-1.7 1.3-.3 2.5-.2 3.3.4.6.4 1 1 1.1 1.8.2.8.1 1.4-.2 1.8-.6.8-2.1 1.1-3.2 1.2-4.4.5-5 3.7-5 6.1v4.9c.6 7.1 3.9 11.5 9.2 12.5 2 .4 3.2 1 3.7 1.8.2.4.3.8.2 1.3-.1.4-.3.7-.6 1l-.2.2c-.4.4-.8.8-1.3 1.2-.3.3-.7.5-.9.8-.2.1-1 .3-1.5.5-.5.1-1 .3-1.1.4-3.1.9-5.2 2-7.2 3.9-1 .9-2 2-3.1 3.5-4.9 6.3-5.7 13.9-6.1 21.1-.6 10.7 0 21.4 1.9 32.6v.3c.4 2.3.4 3.8-1.8 4.3-2.3.5-3.6-.5-4.4-3.5-.2-.7-.3-1.4-.4-2v-.3c-1.8-10.1-2.4-20.8-1.8-31.9.5-7.8 1.4-16.7 7.5-23.9 1.1-1.2 2.2-2.5 3.2-3.7 1.5-1.7 2.9-3.4 4.3-4.9l.2-.2-.1-.3c-.4-.9-.9-1.8-1.5-2.8-1.2-2.2-2.4-4.4-3.1-6.8-.7-2.5-.8-5.1-1-7.7l-.3-3.6-.1-.5-.5.1c-11.5 1.3-23.7 1.6-34.7-5.3-3.1-2-6.2-2.8-9.7-2.6-5.9.3-12.2-1.2-19.6-4.8-12.4-5.9-20.7-16.3-28-26.5-.5-.7-1-1.5-1.6-2.4l-.7-1.1-.4.9c-.1.3-.2.5-.3.7-.2.4-.3.6-.3.8-.5 3.7-.9 7.4-1.4 11-.9 6.8-1.7 13.8-2.5 20.7l-.1 1.1c-.4 3.3-.8 6.6-.5 9.9.1 1.4.3 2.7.4 4.1.6 6 1.3 12.3 2.4 18.4.3 2 .7 4.1 1 6.2 1.1 7.3 2.3 14.9 4.8 21.9 4.5 12.4 9.8 24.8 14.9 36.8 2.2 5.1 4.4 10.3 6.5 15.5 3.9 9.5 8.4 22.2 9.3 35.8.1 2.3.5 4.6.8 7.1.2 1 .3 2.1.5 3.2l.1.5.5-.1c9.6-1.9 18.5-1.1 29 .8 7.2 1.3 14.6 2 21.8 2.7 1.6.2 3.2.3 4.8.5 5.2.5 10.6 1 15.7 1.4 2.7.2 5.4.5 8.1.7 1.8.2 3.7.4 5.5.6 4.1.5 8.3.9 12.6.9 2.9 0 5.8-.2 8.7-.8 1.2-.2 2.5-.4 3.8-.5 1.3-.1 2.6-.3 3.8-.5 2-.4 4.1-.8 6.1-1.1 6.2-1.1 12.5-2.3 18.7-4 5.3-1.4 5.3-2.6 4.3-8l-.1-.4c-.2-.9-.3-1.8-.5-2.7-1.1-6.1-2.2-12.3-1.9-18.5.4-7.3 2.1-14.7 3.6-21.8.3-1.2.5-2.3.8-3.4.6-3 1.5-6 2.4-8.9.5-1.7 1.1-3.5 1.6-5.3 3.3-12 3.1-24.5 2.9-36.7l.1-3.7z"/>
    <path class="st0" d="M-253.3 606.7l.2.4c.7 1.3 1.3 2.6 1.9 3.9 2.7 5.5 5.5 11.2 10.1 15.8 1.1 1.1 2.1 2.1 3.1 3.2 5 5.2 10.2 10.6 17.5 13.3 2.8 1 5.7 1.8 8.8 2.6 1.6.4 3.3.9 5 1.4l1.1.3-.5-1c-1-2.1-1.8-3.8-2.5-5.4-.7-1.5-1.3-2.8-1.9-4.1-2.9-6.5-1.2-13 4.5-17 1.3-.9 2.8-1.6 4.3-2.4.9-.5 1.9-.9 2.9-1.5l.5-.3-.4-.5c-.3-.4-.6-.7-.9-1.1-.6-.8-1.2-1.5-1.9-2.2-.9-.9-1.8-1.8-2.8-2.7-2-1.9-4.1-3.9-5.9-6.1-1.2-1.4-2.4-2.9-3.6-4.3-5.6-6.5-11.4-13.3-13.4-22.3-.4-1.6-3.9-3.2-5.9-3.3-7.1-.2-13.5 2.6-18.2 7.8-4.3 4.9-6.4 11.3-5.5 16.9.7 3.1 2.1 5.9 3.5 8.6z"/>
    <path class="st0" d="M-187.3 615.6c9.9-.8 21.3-1.4 32.6 1.5 1.9.5 3.9.8 5.9 1.1 1.2.2 2.5.4 3.9.7l1.1.2-1.1-1.9c-.5-.9-.8-1.5-1.3-2.1-1.6-2.3-3.3-4.5-4.9-6.8-4.4-6-8.9-12.3-13.4-18.3-5.2-7-9.7-12.8-14.4-18.5-2.5-3-5.2-5.9-7.8-8.7-3.4-3.8-7-7.7-10.2-11.7-2.4-2.9-5.3-3.9-8.5-3-9 2.7-14.4 7.4-16.3 14.7-2 7.3-1.2 14 2.3 19.8 7.2 11.8 17.1 21.8 26.6 31.4 1.3 1.2 3.8 1.7 5.5 1.6z"/>
    <path class="st0" d="M-19.7 451.1c-.8-2.8-3.5-9.4-9.8-9.4-1.5 0-3 .3-4.6 1-2.6 1.1-4.9 2.8-6.8 5.1-1.5 1.9-2.6 4.1-3.6 6.3-.3.7-.6 1.3-.9 1.9-.6 1.3-1.3 2.5-1.9 3.8-2.5 5-5.2 10.1-7.6 15.4-1.6 3.5-3 7.3-4.3 11-.3.8-.6 1.6-.9 2.5-1.6 4.3-3.3 8.7-4.9 12.9-3.5 9.1-7.2 18.5-10 28.1-5.2 17.9-11.9 31.5-21 42.9-4.5 5.6-10.3 10.1-18.2 14.1-4.9 2.5-6.3 2.1-8.9-2.4-5.8-9.8-11.9-20.3-17-31-7.7-16.1-15-32.6-21.8-49-4.9-11.9-9.6-24.7-14.3-39.1l-.9-2.9c-3.3-10.3-6.8-21-13-30.2-3.1-4.5-6.4-9.2-9.7-13.6-1.6-2.1-3.2-4.1-4.8-6.1-.3-.4-.7-.9-1-1.3-1.1-1.5-2.3-3.1-3.9-4.3-.7-.5-1.5-1.1-2.5-1.2-1.6-.1-3 .9-4.2 1.8-4.4 3.6-7.6 7.7-9.7 12.2-1.1 2.5-1.8 5.2-2.1 8-.2 2.6.3 5.1.7 7.6l.1.4c1.1 6.1 2.5 12.2 3.9 18.1 2.7 11.6 5.1 21 7.4 29.4 2.8 10.1 6.4 20.3 9.8 30.1 1.1 3.1 2.2 6.3 3.3 9.4 2.2 6.1 4.6 12.2 7 18.1l1.5 3.7c.7 1.8 2.1 3.4 3.3 4.8 1.8 2.2 3.7 4.4 5.6 6.5 3.2 3.7 6.4 7.5 9.5 11.4 9.8 12.4 19.3 25 26.5 34.6 2.6 3.5 5.2 7.1 7.7 10.6l5.1 7.2c.6.8 1.6 1.3 2.5 1.8l.6.3c2.2 1.2 4.5 2.3 6.7 3.4 4.4 2.1 9 4.3 13 7.1 10.9 7.5 19.6 17.8 27.9 27.7 1 1.1 1.9 2.3 2.9 3.4 3.1 3.7 6.2 7.5 9.5 11.5l5.2 6.3.4-2c1.3-7 2.5-13.1 3.8-19.1.6-2.8 1.4-5.6 2.1-8.3.7-2.7 1.5-5.6 2.1-8.4 1.2-5.8 2.3-11.7 3.4-17.4 1-5.4 2.1-10.9 3.2-16.4.8-4 1.7-8 2.6-12 1.5-6.3 3-12.9 4-19.5 2-13.4 6.2-26.3 10.3-38.8.7-2.2 1.5-4.5 2.2-6.7 1.5-4.7 3.2-9.5 4.8-14.1 4.9-14 10-28.5 11.2-43.9.9-9.2.4-16.6-1.5-23.3z"/>
    <path id="XMLID_345_" d="M-11.9 453c2.4 15.6 1.3 31.3-3.5 46.4-6.8 21.8-14.6 43.2-20.6 65.2-4.7 17.3-7.2 35.2-10.9 52.9-2.3 11.2-4.7 22.5-7.4 33.7-2.5 10.2-5.6 20.4-5.9 30.9-.4 10.6-.3 21.3 0 31.9.4 15.2-1.9 29.8-6.3 44.3-2.6 8.3-4.4 17.1-5 25.8-.5 6.7 1.3 13.6 2.3 20.3.4 2.4 1.4 4.8 2.1 7.2.8 2.7-1.2 3.6-3.1 4.7-6.7 3.9-14.1 6.2-21.7 7.3-9.5 1.5-19 3-28.5 3.3-8.9.2-17.8-1-26.7-2.1-18.1-2.1-36.1-4.4-54.2-6.6-2.1-.2-4.2-.2-6.2-.2-2.6 0-5.1.1-7.7 0-9.2-.7-11.2-2.3-12-11.3-1.7-21.3-9.9-40.5-18.5-59.6-3.4-7.6-7-15.1-10-22.8-3.1-7.9-5.3-15.5-6.8-23.9-3.2-17.3-5.7-35-4-52.6.7-7.3 2.1-14.5 3.1-21.7 1-6.9 2.3-14.5.5-21.4-3.5-13.5 1.5-23.8 11.5-32.2 4.9-4.1 11.2-4.4 17.1-5.4 1.4-.2 2.8-.3 4.1-.5 2.6-14.3 11.9-23.5 27.9-25.1-.4-1.2-.5-2.4-1.1-3.5-8.8-19-15.4-38.9-21-59-3.5-12.4-6.6-25-9.2-37.6-2.2-11.3-1-22.3 6-31.9 2.4-3.2 5.7-6 9.1-8.2 5.2-3.4 9.2-2.6 14 1.4 5.1 4.3 8.8 9.6 12.7 14.9 10.6 14.6 17.7 30.5 23 47.7 5.2 16.9 12.2 33.2 19 49.6 5 12.1 10.3 24.1 16.1 35.9 2.9 5.9 5.9 11.7 9.1 17.5 1.6 2.9 3.2 5.7 4.9 8.5.5.9 1.5 3.4 2.4 3.9 1.1.6 2.3-.4 3.3-.9 6-3.3 10.5-8.4 14.6-13.7 8.8-11.4 13.5-24.4 17.5-38 4.3-14.5 10.2-28.5 15.5-42.7 2.7-7.2 5.1-14.5 8.5-21.3 1.6-3.2 3.3-6.3 5-9.4 1.7-3 3.4-6 5.3-8.7 1.8-2.5 5.1-8.2 9.6-9.6 3.2-1 6.9-1 10.3-.6 4.1.5 7.9 2.3 10.7 5.3 2.9 3.3 4.4 7.6 5.1 11.9zm-6.7 21.4c.6-7.9.6-15.7-1.6-23.2-1.3-4.4-4.2-9.1-9.4-9-1.5 0-2.9.4-4.2 1-2.6 1.1-4.8 2.9-6.6 5-1.9 2.4-3.1 5.4-4.5 8.1-3.2 6.3-6.5 12.6-9.5 19.1-2 4.3-3.5 8.9-5.1 13.4-5 13.6-10.8 27-14.9 40.9-4.6 15.7-10.8 30.2-21.1 43.1-5.1 6.4-11.4 10.7-18.4 14.2-5 2.5-6.7 2.3-9.6-2.6-6-10.1-12-20.4-17-31-7.7-16.1-15-32.5-21.8-49-5.3-12.8-10-25.9-14.3-39.1-3.7-11.4-7.1-23-13.9-33-3.1-4.6-6.4-9.2-9.7-13.6-1.6-2.1-3.2-4.1-4.8-6.1-1.5-1.9-2.8-4-4.8-5.5-.7-.5-1.4-1-2.2-1.1-1.4-.1-2.7.8-3.8 1.7-4 3.3-7.4 7.3-9.6 12-1.1 2.5-1.8 5.1-2.1 7.8-.2 2.7.3 5.2.8 7.9 1.1 6 2.5 12.1 3.9 18.1 2.3 9.9 4.7 19.7 7.4 29.4 3.7 13.4 8.6 26.4 13.2 39.5 2.6 7.4 5.5 14.6 8.5 21.8.7 1.7 2 3.3 3.2 4.7 5 6 10.2 11.8 15.1 18 9 11.4 17.8 23 26.5 34.6 4.4 5.8 8.5 11.9 12.8 17.8.7.9 2 1.4 3 2 6.6 3.5 13.7 6.3 19.8 10.5 12.2 8.4 21.4 20 30.9 31.2 4.5 5.4 8.9 10.8 14 17 1.4-7.4 2.6-13.8 4-20.1 1.2-5.6 3-11.1 4.2-16.7 2.3-11.2 4.3-22.5 6.6-33.8 2.1-10.5 5-20.8 6.6-31.4 2.4-15.8 7.7-30.6 12.5-45.6 6-19.2 14.3-37.6 15.9-58zm-52.2 269.9c3.6-13.1 3-26.6 2.8-40-.1-8.2-1.9-16-7.7-22.5-10.8-12.1-21.4-24.6-32.2-36.7-2.4-2.7-5.3-5.1-8.2-7.4-12.2-9.7-26.8-12.9-41.7-15.5-3.3-.6-6.5-1.2-9.8-1.7-1.4-.2-2.9-.4-4.3-.3-5.1.3-10.2.7-15.3 1.2-3.5.4-7 .7-10.4 1.4-4.7 1.1-8.2 4.6-7.3 8.1 1.2 4.8 2.5 10.5 5.8 13.8 9.9 9.7 22.2 12.6 35.8 9.6 4.5-1 8.9-2.5 13.4-3.6 2.2-.5 4.5.1 5 2.5.6 2.8-1.7 3.4-3.9 3.6-3.4.4-4.5 2.5-4.6 5.6 0 1.6-.1 3.2 0 4.8.6 6.7 3.7 11.1 8.8 12.1 1.8.4 4.8 1.3 4.2 3.7-.1.6-.5 1.1-.8 1.5-.7.8-1.6 1.4-2.3 2.1-.3.2-2.3.7-2.8.9-2.8.8-4.9 1.8-7 3.8-1.1 1-2.1 2.2-3 3.4-4.8 6.2-5.6 13.5-6 20.8-.6 10.9.1 21.7 1.9 32.5.3 2 .8 4.4-2.1 5.1-3 .7-4.3-1.3-5-3.9-.2-.8-.3-1.6-.4-2.3-1.9-10.6-2.4-21.3-1.8-32 .5-8.6 1.7-17.2 7.6-24.2 2.6-3 5.2-5.9 7.5-8.6-1.4-2.9-3.6-6.1-4.6-9.7-1-3.7-.9-7.7-1.3-11.4-12.4 1.4-24.2 1.4-35-5.4-2.9-1.9-5.9-2.7-9.5-2.5-7 .4-13.6-1.8-19.8-4.8-12.3-5.8-20.5-16-28.2-26.7-.6-.8-1.1-1.6-1.8-2.7-.3.8-.5 1.1-.5 1.4-1.3 10.6-2.7 21.1-3.9 31.7-.4 3.6-.9 7.3-.6 10.9.8 7.6 1.5 15.3 2.8 22.8 1.6 9.4 2.6 19.1 5.8 28 6.4 17.7 14.2 34.9 21.4 52.3 4.7 11.6 8.5 23.4 9.3 36 .2 3.3.8 6.5 1.3 10.1 10.1-1.9 19.6-.9 29.2.8 8.8 1.6 17.7 2.3 26.6 3.2 7.9.8 15.9 1.4 23.8 2.1 8.9.8 17.7 2.4 26.6.7 2.5-.5 5.1-.5 7.6-.9 8.3-1.6 16.6-2.9 24.8-5.1 5.2-1.4 4.9-2.3 3.9-7.8-1.2-7-2.7-14.2-2.4-21.3.5-8.5 2.6-17 4.4-25.4.9-4.6 2.6-9.3 3.9-14.1zm-73.9-126c-.8-1.4-1.2-2.2-1.8-3-6.1-8.4-12.1-16.8-18.3-25.1-4.7-6.3-9.4-12.5-14.4-18.4-5.9-6.9-12.3-13.4-18-20.4-2.3-2.8-5-3.7-8-2.9-7.5 2.2-13.8 6.2-16 14.3-1.8 6.7-1.4 13.4 2.2 19.4 7.2 11.8 16.9 21.6 26.5 31.3 1.1 1.1 3.4 1.7 5.1 1.5 11-.9 21.9-1.3 32.8 1.4 3 .9 6.2 1.3 9.9 1.9zm-54.3-2.5c-.9-1.1-1.7-2.3-2.7-3.3-2.9-2.9-6.1-5.6-8.7-8.8-6.7-8.2-14.6-15.7-17.1-26.8-.3-1.3-3.5-2.8-5.4-2.9-15.6-.4-24.8 13.7-23.2 24.1.5 3 2 6 3.4 8.8 3.5 6.8 6.4 14 11.9 19.5 6.2 6.2 11.8 13.2 20.4 16.4 4.2 1.5 8.5 2.5 13.8 4-1.9-4-3.1-6.8-4.4-9.5-3-6.6-1.3-13.4 4.7-17.6 2.2-1.5 4.8-2.6 7.3-3.9z"/>
</svg>
