<svg xmlns="http://www.w3.org/2000/svg" viewBox="0 0 576.64 750.81">
    <defs>
        <style>
            .cls-1{fill:#fff}.cls-2{fill:none;stroke:#000;stroke-miterlimit:10;stroke-width:.59px}
        </style>
    </defs>
    <title>
        house_Asset 18
    </title>
    <g id="Layer_2" data-name="Layer 2">
        <g id="Layer_1-2" data-name="Layer 1">
            <path class="cls-1" d="M573 598c-1.85-59.16 2.77-118.32 2.77-178.4 0-25 0-49.92-1.85-74.87-1.85-22.18-7.4-42.52-7.4-65.63 0-28.66-4.62-56.39-4.62-86 0-26.81-8.32-43.45 1.85-68.4-19.41.92-37.9.92-58.23-1.85-19.41-1.85-38.82 0-58.23 0-22.18-.92-43.44-7.39-65.63-7.39-53.63 0-107.26 8-160.89 10.06-2.7-4.69-1.79-16.58-1.79-23.92-57.31-5.55-120.17 8.32-177.48 0 .92 8.32 1.06 24.68 2.37 32.57 10.12 1.84 61.73 2 87.53 0-15.15 1.5-30.34 2.59-45.53 2.59-12.94 0-80.42-5.55-83.19-1.85-5.55 6.47 3.7 31.43 5.55 46.22 4.62 50.84.92 102.6.92 154.37-.92 107.23 0 214.45 4.62 322.6 1.85 29.58 2.77 59.16-.92 88.74 42.52 7.4 90.59-.92 134 0 44.37.92 87.81-5.55 131.26-8.32 86-5.55 171 3.7 256-1.85 14.65 0 30-.67 38.59 2.19-4.7-40.06 2.12-98.34.3-140.86zM140 133.27c4.57-.63 11.23-1.36 18.79-2.12q-9.45 1.09-18.86 2.12z"/>
            <path class="cls-1" d="M89.53 35.07c0 2.77 0 6.47.92 9.24v-.92c.92-.92-.92 26.81.92 34.2 13.87-1.85 27.73-.92 42.52-.92.92-14.76-.92-29.52-.92-44.27 3.19-.06 6.29-.1 9.24-.1-8.31-12.94-26.8-17.57-32.34-31.43-18.22 14.25-25.05 27.57-35.13 36 15-2.54 38-4.1 57.63-4.51-13.69 2.64-28.26.89-42.84 2.71z"/>
            <path class="cls-1" d="M416.22 737.79c1.39-10.63.07-25.17-.39-35.34-.92-10.63-4.62-24.5-1.85-35.13 1.39-5.08-.92-3.24 4.16-5.08 4.62-1.39 12 0 16.64-.46 7.39-.92 14.79-2.77 22.65-.92-4.62 25.88 1.88 52.17 0 77.59z"/>
            <path class="cls-1" d="M219.58 189.41c-3.7-4.16-32.81.92-40.67.92 3.7 19.41-.46 39.29 2.77 58.23 12.48-2.77 28.65-4.16 41.13.46-2.31-18.95.61-41.35-3.55-59.84z"/>
            <path class="cls-1" d="M125.72 189.49v1.39z"/>
            <path class="cls-1" d="M125.71 190.19a48.64 48.64 0 0 0-.91-7.17c-15.71-.46-33.74-1.39-49.45 1.39-2.31 19.41 5.55 43.45 8.78 63.32 6.47.46 12.48-1.39 18.95-1.39 8.32 0 17.1 1.39 25.42-.92-2.74-17.34-3.22-37.81-2.79-55.23z"/>
            <path class="cls-1" d="M315.47 183.24l-1.85-.46c-.93-.92-16.64.92-21.26 1.39-6.93.92-18 0-20.34 5.55-2.77 6.93 1.39 19.87 1.85 26.81.92 10.63 1.85 22.18-.46 32.81 6 .46 12-.92 18-1.39 10.17-.46 20.34 2.31 30 1.39-2.71-21.27-6.41-44.34-5.94-66.1z"/>
            <path class="cls-1" d="M463.58 240.33c6 .46 12-.92 18-1.39 10.17-.46 20.34 2.31 30 1.39-2.77-21.26-6.47-44.37-6-66.09l-1.85-.46c-.93-.92-16.64.92-21.26 1.39-6.93.92-18 0-20.34 5.55-2.77 6.93 1.39 19.87 1.85 26.81 1.02 10.62 1.91 22.17-.4 32.8z"/>
            <path class="cls-1" d="M408.58 184.41c-3.7-4.16-32.81.92-40.67.92 3.7 19.41-.46 39.29 2.77 58.23 12.48-2.77 28.65-4.16 41.13.46-2.31-18.95.61-41.35-3.55-59.84z"/>
            <path class="cls-1" d="M219.58 295.41c-3.7-4.16-32.81.92-40.67.92 3.7 19.41-.46 39.29 2.77 58.23 12.48-2.77 28.65-4.16 41.13.46-2.31-18.95.61-41.35-3.55-59.84z"/>
            <path class="cls-1" d="M125.72 295.49v1.39z"/>
            <path class="cls-1" d="M125.71 296.19a48.64 48.64 0 0 0-.91-7.17c-15.71-.46-33.74-1.39-49.45 1.39-2.31 19.41 5.55 43.45 8.78 63.32 6.47.46 12.48-1.39 18.95-1.39 8.32 0 17.1 1.39 25.42-.92-2.74-17.34-3.22-37.81-2.79-55.23z"/>
            <path class="cls-1" d="M315.47 289.24l-1.85-.46c-.93-.92-16.64.92-21.26 1.39-6.93.92-18 0-20.34 5.55-2.77 6.93 1.39 19.87 1.85 26.81.92 10.63 1.85 22.18-.46 32.81 6 .46 12-.92 18-1.39 10.17-.46 20.34 2.31 30 1.39-2.71-21.27-6.41-44.34-5.94-66.1z"/>
            <path class="cls-1" d="M505.64 280.24l-1.85-.46c-.93-.92-16.64.92-21.26 1.39-6.93.92-18 0-20.34 5.55-2.77 6.93 1.39 19.87 1.85 26.81.92 10.63 1.85 22.18-.46 32.81 6 .46 12-.92 18-1.39 10.17-.46 20.34 2.31 30 1.39-2.71-21.27-6.41-44.34-5.94-66.1z"/>
            <path class="cls-1" d="M408.58 290.41c-3.7-4.16-32.81.92-40.67.92 3.7 19.41-.46 39.29 2.77 58.23 12.48-2.77 28.65-4.16 41.13.46-2.31-18.95.61-41.35-3.55-59.84z"/>
            <path class="cls-1" d="M125.72 406.49v1.39z"/>
            <path class="cls-1" d="M125.71 407.19a48.64 48.64 0 0 0-.91-7.17c-15.71-.46-33.74-1.39-49.45 1.39-2.31 19.41 5.55 43.45 8.78 63.32 6.47.46 12.48-1.39 18.95-1.39 8.32 0 17.1 1.39 25.42-.92-2.74-17.34-3.22-37.81-2.79-55.23z"/>
            <path class="cls-1" d="M315.47 400.24l-1.85-.46c-.93-.92-16.64.92-21.26 1.39-6.93.92-18 0-20.34 5.55-2.77 6.93 1.39 19.87 1.85 26.81.92 10.63 1.85 22.18-.46 32.81 6 .46 12-.92 18-1.39 10.17-.46 20.34 2.31 30 1.39-2.71-21.27-6.41-44.34-5.94-66.1z"/>
            <path class="cls-1" d="M505.64 391.24l-1.85-.46c-.93-.92-16.64.92-21.26 1.39-6.93.92-18 0-20.34 5.55-2.77 6.93 1.39 19.87 1.85 26.81.92 10.63 1.85 22.18-.46 32.81 6 .46 12-.92 18-1.39 10.17-.46 20.34 2.31 30 1.39-2.71-21.27-6.41-44.34-5.94-66.1z"/>
            <path class="cls-1" d="M408.58 401.41c-3.7-4.16-32.81.92-40.67.92 3.7 19.41-.46 39.29 2.77 58.23 12.48-2.77 28.65-4.16 41.13.46-2.31-18.95.61-41.35-3.55-59.84z"/>
            <path class="cls-1" d="M219.58 406.41c-3.7-4.16-32.81.92-40.67.92 3.7 19.41-.46 39.29 2.77 58.23 12.48-2.77 28.65-4.16 41.13.46-2.31-18.95.61-41.35-3.55-59.84z"/>
            <path class="cls-1" d="M219.58 518.41c-3.7-4.16-32.81.92-40.67.92 3.7 19.41-.46 39.29 2.77 58.23 12.48-2.77 28.65-4.16 41.13.46-2.31-18.95.61-41.35-3.55-59.84z"/>
            <path class="cls-1" d="M125.72 518.49v1.39z"/>
            <path class="cls-1" d="M125.71 519.19a48.64 48.64 0 0 0-.91-7.17c-15.71-.46-33.74-1.39-49.45 1.39-2.31 19.41 5.55 43.45 8.78 63.32 6.47.46 12.48-1.39 18.95-1.39 8.32 0 17.1 1.39 25.42-.92-2.74-17.34-3.22-37.81-2.79-55.23z"/>
            <path class="cls-1" d="M315.47 512.24l-1.85-.46c-.93-.92-16.64.92-21.26 1.39-6.93.92-18 0-20.34 5.55-2.77 6.93 1.39 19.87 1.85 26.81.92 10.63 1.85 22.18-.46 32.81 6 .46 12-.92 18-1.39 10.17-.46 20.34 2.31 30 1.39-2.71-21.27-6.41-44.34-5.94-66.1z"/>
            <path class="cls-1" d="M505.64 503.24l-1.85-.46c-.93-.92-16.64.92-21.26 1.39-6.93.92-18 0-20.34 5.55-2.77 6.93 1.39 19.87 1.85 26.81.92 10.63 1.85 22.18-.46 32.81 6 .46 12-.92 18-1.39 10.17-.46 20.34 2.31 30 1.39-2.71-21.27-6.41-44.34-5.94-66.1z"/>
            <path class="cls-1" d="M408.58 513.41c-3.7-4.16-32.81.92-40.67.92 3.7 19.41-.46 39.29 2.77 58.23 12.48-2.77 28.65-4.16 41.13.46-2.31-18.95.61-41.35-3.55-59.84z"/>
            <path class="cls-1" d="M219.58 639.41c-3.7-4.16-32.81.92-40.67.92 3.7 19.41-.46 39.29 2.77 58.23 12.48-2.77 28.65-4.16 41.13.46-2.31-18.95.61-41.35-3.55-59.84z"/>
            <path class="cls-1" d="M125.71 640.19a48.64 48.64 0 0 0-.91-7.17c-15.71-.46-33.74-1.39-49.45 1.39-2.31 19.41 5.55 43.45 8.78 63.32 6.47.46 12.48-1.39 18.95-1.39 8.32 0 17.1 1.39 25.42-.92-2.74-17.34-3.22-37.81-2.79-55.23z"/>
            <path class="cls-1" d="M125.72 639.49v1.39z"/>
            <path d="M492.38 646.79c-12.48 0-25.42 0-37.9.46-22.65.46-44.83 1.39-67.48 1.85-15.71.46-34.66-2.77-49.92 2.31l3.84 4.19 172.25-1 2.31-6.49c-6.48-3.63-16.17-1.32-23.1-1.32z"/>
            <path d="M89.32 40.79l43-1.87v-5.98l-43 1.85v6z"/>
            <path d="M435 662.44c-4.62.46-12-.92-16.64.46-5.08 1.85-2.77 0-4.16 5.08-2.77 10.63.92 24.5 1.85 35.13.46 10.17 1.78 24.7.39 35.34h4.09v-71.1h37.12v-5.83c-7.89-1.85-15.29 0-22.65.92z"/>
            <path d="M463.28 240.43h4.87l-2-58.75 39.22-2.11v-5.23l-1.85-.46c-.93-.92-16.64.92-21.26 1.39-6.93.92-18 0-20.34 5.55-2.77 6.93 1.39 19.87 1.85 26.81.89 10.61 1.82 22.17-.49 32.8z"/>
            <path d="M292.06 184.26c-6.93.92-18 0-20.34 5.55-2.77 6.93 1.39 19.87 1.85 26.81.92 10.63 1.85 22.18-.46 32.81H278l-2-58.75 39.22-2.11v-5.23l-1.85-.46c-.98-.93-16.69.92-21.31 1.38z"/>
            <path d="M370.68 242.5h3.23l-.08-53.25 34.75-2.54-.31-3.59.31.22c-3.7-4.16-32.81.92-40.67.92 3.69 19.42-.47 39.29 2.77 58.24z"/>
            <path d="M75.79 184.45c-2.31 19.41 5.55 43.45 8.78 63.32l2.91-.23-5.85-59.73h43.62v-4.75c-15.72-.46-33.75-1.39-49.46 1.39z"/>
            <path d="M178.91 189.27c3.7 19.41-.46 39.29 2.77 58.23h3.23l-.08-53.25 34.75-2.54-.31-3.59.31.22c-3.7-4.16-32.82.93-40.67.93z"/>
            <path d="M463.28 346.43h4.87l-2-58.75 39.22-2.11v-5.23l-1.85-.46c-.93-.92-16.64.92-21.26 1.39-6.93.92-18 0-20.34 5.55-2.77 6.93 1.39 19.87 1.85 26.81.89 10.61 1.82 22.17-.49 32.8z"/>
            <path d="M292.06 290.26c-6.93.92-18 0-20.34 5.55-2.77 6.93 1.39 19.87 1.85 26.81.92 10.63 1.85 22.18-.46 32.81H278l-2-58.75 39.22-2.11v-5.23l-1.85-.46c-.98-.93-16.69.92-21.31 1.38z"/>
            <path d="M370.68 348.5h3.23l-.08-53.25 34.75-2.54-.31-3.59.31.22c-3.7-4.16-32.81.92-40.67.92 3.69 19.42-.47 39.29 2.77 58.24z"/>
            <path d="M75.79 290.45c-2.31 19.41 5.55 43.45 8.78 63.32l2.91-.23-5.85-59.73h43.62v-4.75c-15.72-.46-33.75-1.39-49.46 1.39z"/>
            <path d="M178.91 295.27c3.7 19.41-.46 39.29 2.77 58.23h3.23l-.08-53.25 34.75-2.54-.31-3.59.31.22c-3.7-4.16-32.82.93-40.67.93z"/>
            <path d="M463.28 457.43h4.87l-2-58.75 39.22-2.11v-5.23l-1.85-.46c-.93-.92-16.64.92-21.26 1.39-6.93.92-18 0-20.34 5.55-2.77 6.93 1.39 19.87 1.85 26.81.89 10.61 1.82 22.17-.49 32.8z"/>
            <path d="M292.06 401.26c-6.93.92-18 0-20.34 5.55-2.77 6.93 1.39 19.87 1.85 26.81.92 10.63 1.85 22.18-.46 32.81H278l-2-58.75 39.22-2.11v-5.23l-1.85-.46c-.98-.93-16.69.92-21.31 1.38z"/>
            <path d="M370.68 459.5h3.23l-.08-53.25 34.75-2.54-.31-3.59.31.22c-3.7-4.16-32.81.92-40.67.92 3.69 19.42-.47 39.29 2.77 58.24z"/>
            <path d="M75.79 401.45c-2.31 19.41 5.55 43.45 8.78 63.32l2.91-.23-5.85-59.73h43.62v-4.75c-15.72-.46-33.75-1.39-49.46 1.39z"/>
            <path d="M178.91 406.27c3.7 19.41-.46 39.29 2.77 58.23h3.23l-.08-53.25 34.75-2.54-.31-3.59.31.22c-3.7-4.16-32.82.93-40.67.93z"/>
            <path d="M463.28 569.43h4.87l-2-58.75 39.22-2.11v-5.23l-1.85-.46c-.93-.92-16.64.92-21.26 1.39-6.93.92-18 0-20.34 5.55-2.77 6.93 1.39 19.87 1.85 26.81.89 10.61 1.82 22.17-.49 32.8z"/>
            <path d="M292.06 513.26c-6.93.92-18 0-20.34 5.55-2.77 6.93 1.39 19.87 1.85 26.81.92 10.63 1.85 22.18-.46 32.81H278l-2-58.75 39.22-2.11v-5.23l-1.85-.46c-.98-.93-16.69.92-21.31 1.38z"/>
            <path d="M370.68 571.5h3.23l-.08-53.25 34.75-2.54-.31-3.59.31.22c-3.7-4.16-32.81.92-40.67.92 3.69 19.42-.47 39.29 2.77 58.24z"/>
            <path d="M75.79 513.45c-2.31 19.41 5.55 43.45 8.78 63.32l2.91-.23-5.85-59.73h43.62v-4.75c-15.72-.46-33.75-1.39-49.46 1.39z"/>
            <path d="M178.91 518.27c3.7 19.41-.46 39.29 2.77 58.23h3.23l-.08-53.25 34.75-2.54-.31-3.59.31.22c-3.7-4.16-32.82.93-40.67.93z"/>
            <path d="M75.79 634.45c-2.31 19.41 5.55 43.45 8.78 63.32l2.91-.23-5.85-59.73h43.62v-4.75c-15.72-.46-33.75-1.39-49.46 1.39z"/>
            <path d="M178.91 639.27c3.7 19.41-.46 39.29 2.77 58.23h3.23l-.08-53.25 34.75-2.54-.31-3.59.31.22c-3.7-4.16-32.82.93-40.67.93z"/>
            <path class="cls-1" d="M337.72 651.61c15.25-5.08 34.2-1.85 49.92-2.31 22.65-.46 44.83-1.39 67.48-1.85 12.48-.46 25.42-.46 37.9-.46 6.93 0 16.64-2.31 22.65.92a55.53 55.53 0 0 0-1.85-19.41c-5.08 1.85-13.4.46-19 .46-7.86 0-15.71.46-23.57.92-16.64.92-32.81-1.85-49.45-.46-16.64.92-32.81 3.7-49 5.55-12.48.92-24-3.23-36.51-2.77-1.39 6.47 1.39 13.87.46 19.87z"/>
            <path d="M573.63 738.85c-4-35.42-.56-71.43.32-106.94.46-18.48-.36-36.89-.5-55.36-.16-21.82.37-43.63 1-65.44 1.34-43.64 2.77-87.25 1.87-130.91a465 465 0 0 0-5-61.91c-1.62-10.48-3.22-21-3.74-31.58-.53-10.76-.41-21.52-1.13-32.28-.78-11.71-1.9-23.39-2.69-35.1s-.55-23.33-1.28-35c-.61-9.7-2.29-19.31-2.79-29a71.64 71.64 0 0 1 4.89-30.33.89.89 0 0 0-.85-1.12c-10.51.48-21 .73-31.56.38s-21-1.92-31.53-2.62c-21.24-1.4-42.62 1.86-63.78-.42s-41.64-6.83-63.12-6.54c-21.72.3-43.41 1.82-65.05 3.59s-43.34 3.83-65.05 5.23-43.45 2.15-65.14 4.52c-34.79 3.8-69.72 9.24-104.8 7.38-21.55-1.15-43.55-3.72-65.13-2.5-1.77.1-4.57 0-6.13 1-2.63 1.82-2.5 6.64-2.38 9.37.68 15.46 6.74 30.22 7.94 45.68 3.25 43.47.91 87.09.38 130.61Q7.53 385.75 8 452q.4 65.32 2.16 130.62.93 33.28 2.28 66.54c.89 21.73 2.43 43.39 1.83 65.16-.3 10.88-1.07 21.73-2.38 32.54a.88.88 0 0 0 .65.85c34.31 5.79 69.21 2.09 103.72.56 17.67-.79 35.32-.13 53-.64 18.73-.53 37.4-2.07 56.05-3.76 37.38-3.38 74.59-6.15 112.15-6.29 38.08-.13 76.14 1.32 114.21 1.73 20.94.23 41.9.14 62.83-.71 10.53-.43 21-1.06 31.53-1.09 8.74 0 18-.36 26.45 2.22 1.09.33 1.56-1.37.47-1.7-11.6-3.56-25-2.46-37-2.23-15 .29-30 1.45-45 1.69-31.12.51-62.24-.29-93.35-1-30.91-.66-61.85-1.17-92.76-.17s-61.36 4.23-92 6.83c-14.81 1.25-29.65 2.29-44.51 2.69s-29.82-.2-44.73.32c-28.68 1-57.38 4-86.1 2.45q-4.46-.24-8.92-.63c-3.59-.32-8.77-.08-12-1.45-2.71-1.14-2.21-.57-2.35-3.66a37.87 37.87 0 0 1 .51-4.93q.61-6.4 1-12.82c.89-15.76.71-31.56 0-47.33-1.32-31.08-2.78-62.14-3.65-93.24-1.75-62-2.41-123.94-2.34-185.93 0-31 .06-62 .64-93s1.61-62.07.61-93.11c-.43-12.91-.57-26.18-3.19-38.87-2.14-10.37-6.12-21.21-6-31.89 0-2.46.09-5.57 2.55-6.63 1.78-.77 4.6-.5 6.51-.55 7.31-.21 14.64.1 21.94.41 15.71.66 31.4 1.8 47.11 2.49 25.43 1.1 51.07-2.2 76.27-5.13 14.83-1.72 29.67-3.51 44.56-4.7 15.6-1.25 31.25-1.57 46.86-2.63 30.91-2.1 61.72-5.41 92.65-7.26 15-.9 30.15-1.76 45.19-1.3s29.94 3.7 44.87 5.72c14.77 2 29.29 1.35 44.14 1 7.76-.2 15.54-.3 23.29.09s15.44 1.6 23.19 2.18a354.33 354.33 0 0 0 42.81.22l-.85-1.12c-6.57 16.69-4.9 32.76-3 50.15 1.05 9.76 1 19.46 1.33 29.25.36 10.56 1.19 21.09 2 31.61.87 10.71 1.76 21.42 2.16 32.16s.29 21.3 1.51 32c2.34 20.37 6.1 40.32 7 60.85 2 44.28.76 88.71-.67 133-.71 21.83-1.42 43.67-1.59 65.51-.15 19.79.84 39.55.71 59.33-.26 40-5.09 80.58-.54 120.52.19 1.08 1.94 1.08 1.82-.07z"/>
            <path d="M44.69 134c-1.64-10.68-1.22-21.59-2.34-32.33l-1.12.85c35.38 5 71.13 2 106.62.05 17.71-1 35.47-1.77 53.21-1.16 4.69.16 9.7 0 14.34.82 2 .35 2.17-.13 2.64 1.91.37 1.62-.09 3.87-.11 5.53-.06 5.36-.43 11.57 2.1 16.47l.76-1.33c-21.38 1.71-42.76 3.51-64.09 5.7-10.51 1.08-21 2.61-31.52 3.22-14.54.84-29.13 1.06-43.69 1-12.26 0-25.28.69-37.42-1.39-1.11-.19-1.59 1.51-.47 1.7 9.82 1.69 20.21 1.32 30.12 1.42 15 .15 30 0 45-.68 24.73-1.08 49.4-4.75 74.06-6.89q14-1.22 28-2.34a.9.9 0 0 0 .76-1.33c-3.47-6.72-1.77-16.28-1.73-23.59a.91.91 0 0 0-.88-.88c-59-5.5-118.33 8.34-177.24 0-.5-.07-1.18.22-1.12.85 1.13 10.9.73 22 2.4 32.8.18 1.15 1.89.67 1.72-.4z"/>
            <path d="M90.69 44.24c-1.45.42-.59-.61-.85 1.4a33.84 33.84 0 0 0 0 3.67c0 3.43-.13 6.86-.17 10.29-.06 6-.45 12.35.87 18.22a.88.88 0 0 0 .85.65c14.12-1.76 28.33-1 42.52-.92a.9.9 0 0 0 .88-.88c.81-14.81-.85-29.57-.92-44.37a.9.9 0 0 0-1.12-.85c-14.26 2.64-28.85 1.1-43.21 2.74a.9.9 0 0 0-.88.88 36.29 36.29 0 0 0 1 9.48.89.89 0 0 0 1.74-.23v-.92a.88.88 0 0 0-1.77 0v.92l1.74-.23c-.36-1.34-1.86-6.22-.89-7.55s3.55-1 4.9-1.12c4.47-.32 9-.38 13.43-.45 8.21-.13 16.37-.31 24.46-1.81l-1.12-.85c0 7.08.43 14.15.76 21.22.15 3.21.3 6.43.37 9.65s.84 7.62-.06 10.61c-1 3.25-5.78 2-8.78 1.92s-6.21-.11-9.32-.13a149.62 149.62 0 0 0-20.12.71c-2.86.37-3 .88-3.25-2.12-.17-1.72-.23-3.45-.28-5.17-.11-3.87-.07-7.75 0-11.62.05-3.48.17-7 .16-10.43 0-1.06.33-3.06-.34-4a.91.91 0 0 0-1-.41h-.06a.88.88 0 0 0 .46 1.7z"/>
            <path d="M75.37 37.54c5.45-4.7 9.87-10.4 14.51-15.86a148 148 0 0 1 20.61-20.19l-1.39-.18c6.29 14.49 23.77 18.75 32.35 31.43l.76-1.33c-22.54 0-45.44 1-67.71 4.65-1.12.18-.64 1.89.47 1.7 22.11-3.64 44.87-4.55 67.24-4.59a.89.89 0 0 0 .76-1.33C134.4 19.18 116.88 14.8 110.63.42c-.25-.58-1-.49-1.39-.18a148 148 0 0 0-20.61 20.19C84 25.9 79.57 31.59 74.12 36.29c-.86.71.39 1.99 1.25 1.25z"/>
            <path d="M97.92 77.83c1.87 8.38.95 17.14.89 25.65a.88.88 0 0 0 1.77 0c.06-8.68 1-17.56-1-26.12-.25-1.11-2-.64-1.7.47z"/>
            <path d="M124.7 76.67c.07 8 .87 16 .92 24a.88.88 0 0 0 1.77 0c-.05-8-.86-16-.92-24a.88.88 0 0 0-1.77 0z"/>
            <path d="M417.1 737.79c2.18-18.62-1.32-36.94-3-55.4a47.22 47.22 0 0 1 .51-14.09c.77-3.59.52-4.46 4.32-5.35 4.33-1 8.89-.17 13.28-.19 4.88 0 9.68-1.33 14.53-1.67 1.69-.12 7.35-.81 8.59.26 1.43 1.23.51 3.55.31 5.2a135.76 135.76 0 0 0-.84 17.11c.08 10.78 1.12 21.52 1.69 32.28.26 5 .44 10 .36 15 0 .49 0 7 .53 6.58-.18.16-.82-.1-1.05 0-1.07.4-3.15-.05-4.28-.07l-7.46-.12-28.43-.46a.88.88 0 0 0 0 1.77l41.24.66a.9.9 0 0 0 .88-.88c1.67-25.82-4.39-51.65-.07-77.36a.9.9 0 0 0-.62-1.09 48 48 0 0 0-16.28-.06c-6.18.85-11.73.69-17.9.78-2.39 0-7.21.1-9.05 1.9-1.46 1.42-1.44 4.86-1.77 6.69-2 11.06 1.43 22.15 2.29 33.14.91 11.64 1.75 23.71.39 35.34-.07 1.16 1.73 1.15 1.83.03z"/>
            <path d="M338 652.47c13.48-4.22 27.71-2.65 41.59-2.3 15.56.39 31.22-.58 46.78-1.06s31.19-1 46.79-1.17c7.3-.07 14.64.2 21.93-.13 6.61-.3 13.91-2.05 20.18.86a.9.9 0 0 0 1.33-.76 58.26 58.26 0 0 0-1.88-19.65.9.9 0 0 0-1.09-.62c-6 1.83-12.52.51-18.72.43-7.86-.11-15.72.53-23.57.92-15.22.76-30.4-1.44-45.62-.71s-30.26 3-45.36 4.89a84.1 84.1 0 0 1-22 .21c-7.34-.95-14.55-2.21-22-2.07a.89.89 0 0 0-.85.65c-1.09 6.75 1.13 13.36.43 20.11-.07.72.79 1 1.33.76l.92-.46c1-.51.12-2-.89-1.53l-.92.46 1.33.76c.46-4.46-.47-8.75-.75-13.18-.11-1.65-.47-4.73 1.27-5.85 1.25-.8 5.88.26 7.35.4 9.07.9 18.12 3.15 27.3 2.4 18.31-1.5 36.32-5.26 54.73-5.87 9.49-.31 19 .48 28.46.82 9.05.33 18-.27 27-.67 8.43-.37 16.91.63 25.3.17 4-.21 4.87-1.47 5.72 3.15a59.54 59.54 0 0 1 .68 14.45l1.33-.76c-5.06-2.35-10.55-1.92-16-1.48-7.41.59-14.82.42-22.25.47-16.53.1-33.06.64-49.58 1.14-16.21.49-32.54 1.53-48.76 1.12-14-.36-28.42-1.9-42.06 2.36-1.04.37-.58 2.08.55 1.74z"/>
            <path d="M351.63 650.23c3.33 28.68 3.59 57.64 7.4 86.27.15 1.11 1.92 1.13 1.77 0-3.8-28.63-4.06-57.59-7.4-86.27-.13-1.12-1.9-1.13-1.77 0z"/>
            <path d="M359 650.23c3.33 28.68 3.59 57.64 7.4 86.27.15 1.11 1.92 1.13 1.77 0-3.8-28.63-4.06-57.59-7.4-86.27-.13-1.12-1.9-1.13-1.77 0z"/>
            <path d="M500 647c2.1 17.19.2 34.49 1.25 51.73.76 12.53 4.92 25.47 3.37 38-.14 1.13 1.63 1.12 1.77 0 1.55-12.53-2.63-25.52-3.37-38-1-17.24.85-34.54-1.25-51.73-.14-1.11-1.9-1.13-1.77 0z"/>
            <path d="M494.08 647c2.1 17.19.2 34.49 1.25 51.73.76 12.53 4.92 25.47 3.37 38-.14 1.13 1.63 1.12 1.77 0 1.55-12.53-2.63-25.52-3.37-38-1-17.24.85-34.54-1.25-51.73-.14-1.11-1.9-1.13-1.77 0z"/>
            <path d="M238.12 274.43a67.36 67.36 0 0 1 12.18-1.62.88.88 0 0 0 0-1.77 70 70 0 0 0-12.65 1.69c-1.11.22-.64 1.93.47 1.7z"/>
            <path d="M151.19 394.47a131.41 131.41 0 0 1 17.15-1.62.88.88 0 0 0 0-1.77 135.07 135.07 0 0 0-17.62 1.69c-1.12.16-.64 1.86.47 1.7z"/>
            <path d="M232.68 392a58.75 58.75 0 0 0 11 .86.88.88 0 0 0 0-1.77 56.15 56.15 0 0 1-10.53-.8c-1.11-.21-1.59 1.49-.47 1.7z"/>
            <path d="M239.54 330.76a44.82 44.82 0 0 0 10.17-.86c1.11-.26.64-2-.47-1.7a42.71 42.71 0 0 1-9.7.8.88.88 0 0 0 0 1.77z"/>
            <path d="M156.75 275.29h9.11a.88.88 0 0 0 0-1.77h-9.11a.88.88 0 0 0 0 1.77z"/>
            <path d="M131.32 339a18 18 0 0 1 10.91 1.57c1 .49 1.92-1 .89-1.53a20 20 0 0 0-12.27-1.74c-1.12.19-.64 1.9.47 1.7z"/>
            <path d="M45 266.18h10.75a.88.88 0 0 0 0-1.77H45a.88.88 0 0 0 0 1.77z"/>
            <path d="M37.77 191.64a26.56 26.56 0 0 1 8-.8.88.88 0 0 0 0-1.77 28.21 28.21 0 0 0-8.51.86c-1.08.34-.62 2 .47 1.7z"/>
            <path d="M89.46 161.84c2.74.65 5.59.81 8.28 1.66 1.09.34 1.55-1.36.47-1.7-2.69-.84-5.54-1-8.28-1.66-1.11-.26-1.58 1.44-.47 1.7z"/>
            <path d="M150.57 175a49.92 49.92 0 0 1 9.72-3.22.88.88 0 0 0-.47-1.7 52.07 52.07 0 0 0-10.15 3.4c-1 .49-.13 2 .89 1.53z"/>
            <path d="M144.93 214.82a44.83 44.83 0 0 0 10.17.86.88.88 0 0 0 0-1.77 42.73 42.73 0 0 1-9.7-.8c-1.11-.26-1.58 1.45-.47 1.7z"/>
            <path d="M244.74 175.08a24 24 0 0 1 7.22-.8.88.88 0 0 0 0-1.77 25.58 25.58 0 0 0-7.69.86c-1.08.34-.62 2 .47 1.7z"/>
            <path d="M227.95 224a20.21 20.21 0 0 0 10.38-2.6c1-.6.08-2.13-.89-1.53a18.45 18.45 0 0 1-9.49 2.36.88.88 0 0 0 0 1.77z"/>
            <path d="M346.93 209a16.14 16.14 0 0 0 8.75 0c1.11-.26.64-2-.47-1.7a14.24 14.24 0 0 1-7.81 0c-1.09-.34-1.55 1.37-.47 1.7z"/>
            <path d="M325.87 244.63c3.87-.79 7.72-1.7 11.59-2.48 1.11-.23.64-1.93-.47-1.7-3.87.79-7.72 1.7-11.59 2.48-1.11.23-.64 1.93.47 1.7z"/>
            <path d="M328.36 282.71a63.86 63.86 0 0 1 11.36-1.62.88.88 0 0 0 0-1.77 66.56 66.56 0 0 0-11.83 1.68c-1.11.22-.64 1.93.47 1.7z"/>
            <path d="M287.56 274.46a28.21 28.21 0 0 0 8.51-.86c1.08-.34.62-2-.47-1.7a26.56 26.56 0 0 1-8 .8.88.88 0 0 0 0 1.77z"/>
            <path d="M297.73 146.11c5-.68 10-.78 14.22 2.39.91.68 1.79-.85.89-1.53-4.64-3.46-10.08-3.32-15.58-2.57-1.12.15-.64 1.85.47 1.7z"/>
            <path d="M218 149.45c3.33-.06 6.6-.77 9.93-.83a.88.88 0 0 0 0-1.77c-3.33.06-6.6.77-9.93.83a.88.88 0 0 0 0 1.77z"/>
            <path d="M392.1 157.7a23 23 0 0 1 10.29 0c1.11.25 1.58-1.45.47-1.7a25 25 0 0 0-11.23 0c-1.11.25-.64 2 .47 1.7z"/>
            <path d="M428.53 225.58a47.46 47.46 0 0 1 10.53-1.58.88.88 0 0 0 0-1.77 49.64 49.64 0 0 0-11 1.69c-1.1.27-.64 2 .47 1.7z"/>
            <path d="M413.39 268.67h8.28a.88.88 0 0 0 0-1.77h-8.28a.88.88 0 0 0 0 1.77z"/>
            <path d="M414.82 298.44c4.38.74 8.58 0 12.89-.83 1.11-.22.64-1.93-.47-1.7-4 .79-7.91 1.52-11.95.83-1.11-.19-1.59 1.51-.47 1.7z"/>
            <path d="M512.51 272.77c3.75.8 7.22-.11 10.62-1.74 1-.49.13-2-.89-1.53-3 1.42-6 2.27-9.25 1.57-1.11-.24-1.58 1.46-.47 1.7z"/>
            <path d="M546.68 198.3h9.11a.88.88 0 0 0 0-1.77h-9.11a.88.88 0 0 0 0 1.77z"/>
            <path d="M509.43 149.45a66.55 66.55 0 0 0 11.82-1.69c1.11-.22.64-1.93-.47-1.7a63.85 63.85 0 0 1-11.36 1.62.88.88 0 0 0 0 1.77z"/>
            <path d="M447.72 150.16a9.91 9.91 0 0 0 4.59.95.88.88 0 0 0 0-1.77 7.86 7.86 0 0 1-3.69-.71c-1-.49-1.92 1-.89 1.53z"/>
            <path d="M455.62 260.39h5.8a.88.88 0 0 0 0-1.77h-5.8a.88.88 0 0 0 0 1.77z"/>
            <path d="M436.58 380.43c3.33-.06 6.6-.77 9.93-.83a.88.88 0 0 0 0-1.77c-3.33.06-6.6.77-9.93.83a.88.88 0 0 0 0 1.77z"/>
            <path d="M373.42 372.12c3.57.68 7.22.83 10.76 1.66 1.11.26 1.58-1.44.47-1.7-3.54-.83-7.19-1-10.76-1.66-1.11-.21-1.59 1.49-.47 1.7z"/>
            <path d="M381.7 399.44a44.8 44.8 0 0 0 10.17.86.88.88 0 0 0 0-1.77 42.7 42.7 0 0 1-9.7-.8c-1.11-.26-1.58 1.45-.47 1.7z"/>
            <path d="M329.78 342.35h10.76a.88.88 0 0 0 0-1.77h-10.76a.88.88 0 0 0 0 1.77z"/>
            <path d="M333.09 387.88a69.27 69.27 0 0 0 12.65-.86c1.12-.21.64-1.91-.47-1.7a66.73 66.73 0 0 1-12.18.8.88.88 0 0 0 0 1.77z"/>
            <path d="M344.68 310.06h7.45a.88.88 0 0 0 0-1.77h-7.45a.88.88 0 0 0 0 1.77z"/>
            <path d="M432.2 338.18a15.77 15.77 0 0 0 8.75-.83c1.07-.36.61-2.06-.47-1.7-2.62.87-5 1.44-7.81.83-1.11-.25-1.58 1.46-.47 1.7z"/>
            <path d="M525.16 326.62h11.59a.88.88 0 0 0 0-1.77h-11.59a.88.88 0 0 0 0 1.77z"/>
            <path d="M554.14 365.53c3.63 0 7-.22 10.38-1.78 1-.48.13-2-.89-1.53-3 1.41-6.21 1.53-9.49 1.54a.88.88 0 0 0 0 1.77z"/>
            <path d="M508.37 375.43a19.41 19.41 0 0 0 6 .86.88.88 0 0 0 0-1.77 17.8 17.8 0 0 1-5.56-.8c-1.09-.35-1.55 1.36-.47 1.7z"/>
            <path d="M521 417.69h10a.88.88 0 0 0 0-1.77h-10a.88.88 0 0 0 0 1.77z"/>
            <path d="M323.39 441.66l12.42-2.48c1.11-.22.64-1.93-.47-1.7L322.92 440c-1.11.22-.64 1.93.47 1.7z"/>
            <path d="M331.43 485.57c3.05-.06 6-.78 9.11-.83a.88.88 0 0 0 0-1.77c-3.06 0-6.05.76-9.11.83a.88.88 0 0 0 0 1.77z"/>
            <path d="M386.07 496.33a18.16 18.16 0 0 0 9.55-2.6c1-.61.07-2.14-.89-1.53a16.34 16.34 0 0 1-8.66 2.36.88.88 0 0 0 0 1.77z"/>
            <path d="M428.53 451.6a43.4 43.4 0 0 1 9.7-1.62.88.88 0 0 0 0-1.77 45.51 45.51 0 0 0-10.17 1.69.88.88 0 0 0 .47 1.7z"/>
            <path d="M421.44 498c3.32.78 6.79.92 9.79-.92 1-.59.08-2.12-.89-1.53-2.59 1.59-5.57 1.41-8.43.74-1.11-.26-1.58 1.44-.47 1.7z"/>
            <path d="M479.63 491.37a12.49 12.49 0 0 0 2.7-.56l1.36-.37a1.91 1.91 0 0 0 .89-.39.89.89 0 0 0-.39-1.48 3.23 3.23 0 0 0-1.48.23.88.88 0 0 0 .47 1.7l.7-.17c.39-.09.25.07-.16-.06l-.39-1.48c.29-.33.47-.23.15-.14l-.46.13-1.27.34-1.35.33-.53.11c-.34.07 0 0-.23 0a.88.88 0 0 0 0 1.77z"/>
            <path d="M524.57 471.47c4.38-.82 8.85-1 13.25-1.66 1.12-.18.64-1.88-.47-1.7-4.4.69-8.87.84-13.25 1.66-1.12.21-.64 1.91.47 1.7z"/>
            <path d="M528.24 512a35 35 0 0 0 12.89 0c1.12-.21.64-1.91-.47-1.7a32.47 32.47 0 0 1-11.95 0c-1.11-.21-1.59 1.5-.47 1.7z"/>
            <path d="M515 554.25c3 .92 6.22.86 9.34.86a.88.88 0 0 0 0-1.77c-3 0-6 .08-8.87-.8-1.09-.33-1.56 1.37-.47 1.7z"/>
            <path d="M418.36 544.35c4.43-.06 8.81-.78 13.25-.83a.88.88 0 0 0 0-1.77c-4.43 0-8.82.77-13.25.83a.88.88 0 0 0 0 1.77z"/>
            <path d="M417.92 582.31a14.76 14.76 0 0 0 6.24.95.88.88 0 0 0 0-1.77 12.87 12.87 0 0 1-5.35-.71c-1-.47-1.93 1.05-.89 1.53z"/>
            <path d="M401.57 610.55a23.67 23.67 0 0 0 12.89-.83c1.06-.39.6-2.1-.47-1.7a21.87 21.87 0 0 1-11.95.83c-1.11-.21-1.59 1.5-.47 1.7z"/>
            <path d="M467 608.07c3.65.78 7.32.09 11 0a.88.88 0 0 0 0-1.77c-3.5.05-7.06.78-10.53 0-1.11-.24-1.58 1.47-.47 1.7z"/>
            <path d="M525.16 609.75h6.62a.88.88 0 0 0 0-1.77h-6.62a.88.88 0 0 0 0 1.77z"/>
            <path d="M554.73 546.8a25.6 25.6 0 0 0 7.69.86.88.88 0 0 0 0-1.77 24 24 0 0 1-7.22-.8c-1.09-.34-1.55 1.37-.47 1.7z"/>
            <path d="M318.78 543.49a15 15 0 0 0 8.75 0c1.08-.33.62-2-.47-1.7a13.3 13.3 0 0 1-7.81 0c-1.09-.33-1.56 1.37-.47 1.7z"/>
            <path d="M338.89 518.69h9.93a.88.88 0 0 0 0-1.77h-9.93a.88.88 0 0 0 0 1.77z"/>
            <path d="M334.51 575.78a18.07 18.07 0 0 0 9.58-.83c1.08-.35.62-2.06-.47-1.7a16.29 16.29 0 0 1-8.64.83c-1.11-.24-1.58 1.46-.47 1.7z"/>
            <path d="M327.89 610.55a44.82 44.82 0 0 0 10.17.86.88.88 0 0 0 0-1.77 42.72 42.72 0 0 1-9.7-.8c-1.11-.26-1.58 1.45-.47 1.7z"/>
            <path d="M276 615.55h10.76a.88.88 0 0 0 0-1.77H276a.88.88 0 0 0 0 1.77z"/>
            <path d="M245.1 551.77a44.79 44.79 0 0 0 10.17.86.88.88 0 0 0 0-1.77 42.69 42.69 0 0 1-9.7-.8c-1.11-.26-1.58 1.45-.47 1.7z"/>
            <path d="M227.71 579.09c5 1.54 10 1.68 15.14 1.69a.88.88 0 0 0 0-1.77c-5 0-9.87-.14-14.67-1.62-1.09-.34-1.55 1.37-.47 1.7z"/>
            <path d="M231.26 522H242a.88.88 0 0 0 0-1.77h-10.74a.88.88 0 0 0 0 1.77z"/>
            <path d="M244.74 487.2a50.84 50.84 0 0 1 11.36-.8.88.88 0 0 0 0-1.77 52.89 52.89 0 0 0-11.83.86c-1.11.25-.64 2 .47 1.7z"/>
            <path d="M290 503.79a13.53 13.53 0 0 1 5.35 1.54c1 .49 1.92-1 .89-1.53A15.59 15.59 0 0 0 290 502a.88.88 0 0 0 0 1.77z"/>
            <path d="M237.06 449.15a48.88 48.88 0 0 0 11-.86c1.11-.25.64-2-.47-1.7a46.8 46.8 0 0 1-10.53.8.88.88 0 0 0 0 1.77z"/>
            <path d="M126.95 424.31c3.33.06 6.6.78 9.93.83a.88.88 0 0 0 0-1.77c-3.33 0-6.61-.76-9.93-.83a.88.88 0 0 0 0 1.77z"/>
            <path d="M139.37 457.42a40 40 0 0 0 9.34-.86c1.11-.26.64-2-.47-1.7a37.88 37.88 0 0 1-8.87.8.88.88 0 0 0 0 1.77z"/>
            <path d="M132.51 493a13.09 13.09 0 0 0 7.92 0c1.08-.34.62-2-.47-1.7a11.38 11.38 0 0 1-7 0c-1.09-.34-1.55 1.37-.47 1.7z"/>
            <path d="M184.07 507.92h11.59a.88.88 0 0 0 0-1.77h-11.59a.88.88 0 0 0 0 1.77z"/>
            <path d="M141 529.45a69.93 69.93 0 0 0 12.65-1.69c1.11-.22.64-1.93-.47-1.7a67.34 67.34 0 0 1-12.18 1.62.88.88 0 0 0 0 1.77z"/>
            <path d="M126.95 565a63.33 63.33 0 0 0 11.83-.86c1.12-.21.64-1.91-.47-1.7a60.86 60.86 0 0 1-11.36.8.88.88 0 0 0 0 1.77z"/>
            <path d="M153.67 587.37c3.94-.85 7.65-2.46 11.59-3.31 1.11-.24.64-1.94-.47-1.7-3.94.85-7.65 2.46-11.59 3.31-1.11.24-.64 1.94.47 1.7z"/>
            <path d="M58.23 491.37h11.59a.88.88 0 0 0 0-1.77H58.23a.88.88 0 0 0 0 1.77z"/>
            <path d="M40.85 437.55a14.23 14.23 0 0 1 7.83 2.36c1 .62 1.84-.91.89-1.53a16 16 0 0 0-8.72-2.6.88.88 0 0 0 0 1.77z"/>
            <path d="M31.74 393.68c3.33-.06 6.6-.77 9.93-.83a.88.88 0 0 0 0-1.77c-3.33.06-6.6.77-9.93.83a.88.88 0 0 0 0 1.77z"/>
            <path d="M85.32 391.16a45.52 45.52 0 0 0 10.17 1.69.88.88 0 0 0 0-1.77 43.39 43.39 0 0 1-9.7-1.62.88.88 0 0 0-.47 1.7z"/>
            <path d="M42.27 350.6a25 25 0 0 0 11.23 0c1.11-.25.64-2-.47-1.7a23 23 0 0 1-10.29 0c-1.11-.25-1.58 1.45-.47 1.7z"/>
            <path d="M21.81 305.09a48 48 0 0 0 11-.86c1.11-.26.64-2-.47-1.7a45.93 45.93 0 0 1-10.53.8.88.88 0 0 0 0 1.77z"/>
            <path d="M94.07 274.43a26.56 26.56 0 0 1 8-.8.88.88 0 0 0 0-1.77 28.21 28.21 0 0 0-8.51.86c-1.08.34-.62 2 .47 1.7z"/>
            <path d="M48.3 620.52a28.59 28.59 0 0 0 12-2.6c1-.49.13-2-.89-1.53a26.48 26.48 0 0 1-11.14 2.36.88.88 0 0 0 0 1.77z"/>
            <path d="M44.39 592.34c2.82-1 5.38-2.53 8.28-3.31a.88.88 0 0 0-.47-1.7c-2.9.78-5.46 2.32-8.28 3.31-1.07.38-.61 2.08.47 1.7z"/>
            <path d="M20.38 550.94c3.58-.88 7.19-1.6 10.76-2.48 1.1-.27.64-2-.47-1.7-3.58.88-7.19 1.6-10.76 2.48-1.1.27-.64 2 .47 1.7z"/>
            <path d="M35.43 522.71c2.21 1 4.69.95 7.07.95a.88.88 0 0 0 0-1.77c-2 0-4.29.15-6.18-.71-1-.47-1.93 1.06-.89 1.53z"/>
            <path d="M113.47 611.38a17.81 17.81 0 0 0 11.44-1.74c1-.49.13-2-.89-1.53a15.82 15.82 0 0 1-10.08 1.57c-1.11-.24-1.58 1.46-.47 1.7z"/>
            <path d="M176.62 621.34a48.91 48.91 0 0 0 11-.86c1.11-.25.64-2-.47-1.7a46.83 46.83 0 0 1-10.53.8.88.88 0 0 0 0 1.77z"/>
            <path d="M224.64 613.89a64 64 0 0 0 11.83-1.69c1.11-.23.64-1.93-.47-1.7a61.51 61.51 0 0 1-11.36 1.62.88.88 0 0 0 0 1.77z"/>
            <path d="M229.6 642.87a52.89 52.89 0 0 0 11.83-.86c1.11-.25.64-2-.47-1.7a50.85 50.85 0 0 1-11.36.8.88.88 0 0 0 0 1.77z"/>
            <path d="M231.85 676a25.05 25.05 0 0 0 11.23 0c1.11-.25.64-2-.47-1.7a23 23 0 0 1-10.29 0c-1.11-.25-1.58 1.45-.47 1.7z"/>
            <path d="M136.65 684.23a15.77 15.77 0 0 0 8.75-.83c1.07-.36.61-2.06-.47-1.7-2.62.87-5 1.44-7.81.83-1.11-.25-1.58 1.46-.47 1.7z"/>
            <path d="M137.12 651.12a42.69 42.69 0 0 1 9.7-.8.88.88 0 0 0 0-1.77 44.79 44.79 0 0 0-10.17.86c-1.11.26-.64 2 .47 1.7z"/>
            <path d="M41.67 697.51c3.85 0 7.66-.14 11.21-1.78 1-.48.13-2-.89-1.53-3.24 1.5-6.82 1.53-10.32 1.54a.88.88 0 0 0 0 1.77z"/>
            <path d="M30.08 666.88a35.32 35.32 0 0 0 10.17-1.69c1.08-.35.62-2.05-.47-1.7a33.61 33.61 0 0 1-9.7 1.62.88.88 0 0 0 0 1.77z"/>
            <path d="M70.89 725.63l9.93-2.48a.88.88 0 0 0-.47-1.7l-9.93 2.48a.88.88 0 0 0 .47 1.7z"/>
            <path d="M133.34 733.91c4.26.75 8.08-.1 12.06-1.66 1-.41.59-2.12-.47-1.7-3.65 1.43-7.19 2.35-11.12 1.66-1.11-.2-1.59 1.51-.47 1.7z"/>
            <path d="M126.12 710.76a58.71 58.71 0 0 0 11-.86c1.12-.21.64-1.91-.47-1.7a56.11 56.11 0 0 1-10.53.8.88.88 0 0 0 0 1.77z"/>
            <path d="M185.13 715.69a43.4 43.4 0 0 1 9.7-1.62.88.88 0 0 0 0-1.77 45.51 45.51 0 0 0-10.17 1.7.88.88 0 0 0 .47 1.7z"/>
            <path d="M193.77 735.56a23.67 23.67 0 0 0 12.89-.83c1.06-.39.6-2.1-.47-1.7a21.87 21.87 0 0 1-11.95.83c-1.11-.21-1.59 1.5-.47 1.7z"/>
            <path d="M234.81 719a50.74 50.74 0 0 0 11.8-4.23c1-.5.13-2-.89-1.53a48.83 48.83 0 0 1-11.38 4.05c-1.11.24-.64 1.94.47 1.7z"/>
            <path d="M265.2 730.63a44.82 44.82 0 0 0 10.17-.86c1.11-.26.64-2-.47-1.7a42.71 42.71 0 0 1-9.7.8.88.88 0 0 0 0 1.77z"/>
            <path d="M321.73 723.14a69.23 69.23 0 0 0 11.59-3.31c1-.41.59-2.12-.47-1.7a69.23 69.23 0 0 1-11.59 3.31c-1.11.23-.64 1.93.47 1.7z"/>
            <path d="M330.61 692.54a28.11 28.11 0 0 0 8.51-1.69c1.07-.36.61-2.06-.47-1.7a26.43 26.43 0 0 1-8 1.62.88.88 0 0 0 0 1.77z"/>
            <path d="M318.78 660.22a18.08 18.08 0 0 0 9.58-.83c1.08-.35.62-2.06-.47-1.7a16.29 16.29 0 0 1-8.64.83c-1.11-.24-1.58 1.46-.47 1.7z"/>
            <path d="M524.92 667.67a28.92 28.92 0 0 0 8.51.86.88.88 0 0 0 0-1.77 27.26 27.26 0 0 1-8-.8c-1.09-.33-1.56 1.37-.47 1.7z"/>
            <path d="M524.71 709.81a15.8 15.8 0 0 0 10.62.92c1.11-.26.64-2-.47-1.7a13.76 13.76 0 0 1-9.25-.74c-1-.48-1.92 1-.89 1.53z"/>
            <path d="M551.65 682.61a28.21 28.21 0 0 0 8.51-.86c1.08-.34.62-2-.47-1.7a26.56 26.56 0 0 1-8 .8.88.88 0 0 0 0 1.77z"/>
            <path d="M548.93 632.9a37.7 37.7 0 0 0 13.72 0c1.12-.21.64-1.91-.47-1.7a35.23 35.23 0 0 1-12.78 0c-1.11-.2-1.59 1.5-.47 1.7z"/>
            <path d="M371.77 681.75a35 35 0 0 0 12.89 0c1.12-.21.64-1.91-.47-1.7a32.45 32.45 0 0 1-11.95 0c-1.11-.21-1.59 1.5-.47 1.7z"/>
            <path d="M469.46 706.58c3.16.9 6.49-.06 9.58-.83a.88.88 0 0 0-.47-1.7c-2.77.69-5.8 1.63-8.64.83a.88.88 0 0 0-.47 1.7z"/>
            <path d="M379.69 721.49c2.69-.86 5.85-1.63 8.64-.83a.88.88 0 0 0 .47-1.7c-3.09-.89-6.59-.13-9.58.83-1.08.35-.62 2.05.47 1.7z"/>
            <path d="M395.18 702.48c2.92 0 6-.85 8.87 0a.88.88 0 0 0 .47-1.7c-3-.87-6.25-.08-9.34 0a.88.88 0 0 0 0 1.77z"/>
            <path d="M472.17 679.3c2.79 0 5.5-.77 8.28-.83a.88.88 0 0 0 0-1.77c-2.78.06-5.49.79-8.28.83a.88.88 0 0 0 0 1.77z"/>
            <path d="M504.75 174.24c-.29 18.33 2 36.52 4.48 54.65.34 2.49 1.13 5.41 1.06 7.88-.09 3.34-.82 2.91-4.15 2.85-4.71-.09-9.39-.74-14.07-1.17-9.65-.88-18.9 1.45-28.49 1l.85 1.12c2.23-11.18 1.65-22.81.4-34.08-.42-3.76-1.25-7.46-1.85-11.19-.73-4.52-2.47-12.57 1.5-16 3.28-2.86 9.16-2.53 13.23-2.81 3.33-.23 6.64-.61 10-1 5.82-.61 12-1.85 17.73-.41a.88.88 0 0 0 .47-1.7c-6.24-1.56-12.92-.21-19.24.46-6.84.72-16.91-.41-22.78 3.65-6.24 4.32-3.05 15.69-2 21.76 2.38 13.24 3.49 27.57.84 40.84a.9.9 0 0 0 .85 1.12c8 .38 15.76-1.74 23.74-1.35 8.14.39 16.15 1.94 24.33 1.35.43 0 .95-.38.88-.88-2.88-21.94-6.36-43.9-6-66.09a.88.88 0 0 0-1.78 0z"/>
            <path d="M466.12 210.22c12.49-1.92 25.13-2.18 37.66-3.67 1.12-.13 1.13-1.9 0-1.77-12.69 1.51-25.49 1.78-38.13 3.73-1.12.17-.64 1.88.47 1.7z"/>
            <path d="M314.58 183.24c-.29 18.33 2 36.52 4.48 54.65.34 2.49 1.13 5.41 1.06 7.88-.09 3.34-.82 2.91-4.15 2.85-4.71-.09-9.39-.74-14.07-1.17-9.65-.88-18.9 1.45-28.49 1l.85 1.12c2.23-11.18 1.65-22.81.4-34.08-.42-3.76-1.25-7.46-1.85-11.19-.73-4.52-2.47-12.57 1.5-16 3.28-2.86 9.16-2.53 13.23-2.81 3.33-.23 6.64-.61 10-1 5.82-.61 12-1.85 17.73-.41a.88.88 0 0 0 .47-1.7c-6.24-1.56-12.92-.21-19.24.46-6.84.72-16.91-.41-22.78 3.65-6.24 4.32-3.05 15.69-2 21.76 2.38 13.24 3.49 27.57.84 40.84a.9.9 0 0 0 .85 1.12c8 .38 15.76-1.74 23.74-1.35 8.14.39 16.15 1.94 24.33 1.35.43 0 .95-.38.88-.88-2.88-21.94-6.36-43.9-6-66.09a.88.88 0 0 0-1.78 0z"/>
            <path d="M276 219.22c12.49-1.92 25.13-2.18 37.66-3.67 1.12-.13 1.13-1.9 0-1.77-12.69 1.51-25.49 1.78-38.13 3.73-1.12.17-.64 1.88.47 1.7z"/>
            <path d="M407.41 184.43c4.17 19.6 1.27 39.81 3.52 59.6l1.12-.85a61.22 61.22 0 0 0-22.45-3 99.82 99.82 0 0 0-10 .89q-2.35.32-4.68.74-1.5.27-3 .58a10.14 10.14 0 0 1-1.08-4.36c-1.32-8.58-.54-17.61-.42-26.25.12-9-.07-17.85-1.64-26.69l-.85 1.12c6.72-.09 13.46-1.25 20.15-1.87 3.69-.34 7.39-.65 11.1-.69 2.48 0 6.81-.48 8.8 1.37l1.07-1.39-.31-.22c-.94-.65-1.82.88-.89 1.53l.31.22c.83.57 1.8-.71 1.07-1.39-3.9-3.63-13-1.86-17.66-1.5-7.86.61-15.75 2.06-23.63 2.16a.9.9 0 0 0-.85 1.12c3.42 19.28-.28 38.92 2.77 58.23a.9.9 0 0 0 1.09.62c13.28-2.86 27.62-4.08 40.66.46a.89.89 0 0 0 1.12-.85c-2.27-20 .63-40.31-3.58-60.07-.27-1.09-1.97-.62-1.74.49z"/>
            <path d="M372.51 216.6c9.76-5.36 21.32-2.78 31.91-2.65a.88.88 0 0 0 0-1.77c-11-.13-22.69-2.66-32.8 2.89-1 .55-.11 2.07.89 1.53z"/>
            <path d="M124.84 189.49c-.21 8.72-.22 17.45.1 26.16.18 4.78.45 9.55.85 14.32.33 3.9 1.49 8.22 1.33 12.11-.11 2.78.38 2.41-2.45 3.26-2.63.79-6.13.54-8.88.52-4.24 0-8.47-.46-12.71-.4-4.62.06-9.14 1-13.74 1.33-3.11.22-3.85.44-4.9-2.47a41.59 41.59 0 0 1-1.1-5.69c-1.74-8.52-3.76-17-5.3-25.55-.84-4.71-1.56-9.44-1.93-14.21-.27-3.45-1.25-8.81-.09-12.13s9.92-2.8 13.27-3c4.5-.27 9-.35 13.51-.34s8.94.12 13.4.26c1.6 0 5.56-.55 6.92.22 2.19 1.24 1.65 4.79 1.73 7a.88.88 0 0 0 1.77 0v-1.39a.88.88 0 0 0-1.77 0v1.39h1.77a54.89 54.89 0 0 0-1-8.09.89.89 0 0 0-.85-.65c-16.57-.5-33.26-1.33-49.69 1.42a.9.9 0 0 0-.65.85C72.21 205.87 79.77 227 83.28 248a.89.89 0 0 0 .85.65c7.56.31 15-1.56 22.54-1.32s14.75.78 22.06-1a.91.91 0 0 0 .62-1.09c-2.81-18.4-3.2-37.11-2.74-55.69a.88.88 0 0 0-1.77-.06z"/>
            <path d="M79 220.3c7-3.86 15.34-3.54 23.09-4.6 6.19-.84 13.45-4.27 19.67-2.25 1.08.35 1.55-1.35.47-1.7-6.49-2.11-14 1.34-20.4 2.21-8 1.08-16.46.84-23.72 4.82-1 .55-.11 2.07.89 1.53z"/>
            <path d="M218.41 189.43c4.17 19.6 1.27 39.81 3.52 59.6l1.12-.85a61.22 61.22 0 0 0-22.45-3 99.82 99.82 0 0 0-10 .89q-2.35.32-4.68.74-1.5.27-3 .58a10.14 10.14 0 0 1-1.08-4.36c-1.32-8.58-.54-17.61-.42-26.25.12-9-.07-17.85-1.64-26.69l-.85 1.12c6.72-.09 13.46-1.25 20.15-1.87 3.69-.34 7.39-.65 11.1-.69 2.48 0 6.81-.48 8.8 1.37l1.07-1.39-.31-.22c-.94-.65-1.82.88-.89 1.53l.31.22c.83.57 1.8-.71 1.07-1.39-3.9-3.63-13-1.86-17.66-1.5-7.86.61-15.75 2.06-23.63 2.16a.9.9 0 0 0-.85 1.12c3.42 19.28-.28 38.92 2.77 58.23a.9.9 0 0 0 1.09.62c13.28-2.86 27.62-4.08 40.66.46a.89.89 0 0 0 1.12-.85c-2.27-20 .63-40.31-3.58-60.07-.27-1.09-1.97-.62-1.74.49z"/>
            <path d="M183.51 221.6c9.76-5.36 21.32-2.78 31.91-2.65a.88.88 0 0 0 0-1.77c-11-.13-22.69-2.66-32.8 2.89-1 .55-.11 2.07.89 1.53z"/>
            <path d="M504.75 280.24c-.29 18.33 2 36.52 4.48 54.65.34 2.49 1.13 5.41 1.06 7.88-.09 3.34-.82 2.91-4.15 2.85-4.71-.09-9.39-.74-14.07-1.17-9.65-.88-18.9 1.45-28.49 1l.85 1.12c2.23-11.18 1.65-22.81.4-34.08-.42-3.76-1.25-7.46-1.85-11.19-.73-4.52-2.47-12.57 1.5-16 3.28-2.86 9.16-2.53 13.23-2.81 3.33-.23 6.64-.61 10-1 5.82-.61 12-1.85 17.73-.41a.88.88 0 0 0 .47-1.7c-6.24-1.56-12.92-.21-19.24.46-6.84.72-16.91-.41-22.78 3.65-6.24 4.32-3.05 15.69-2 21.76 2.38 13.24 3.49 27.57.84 40.84a.9.9 0 0 0 .85 1.12c8 .38 15.76-1.74 23.74-1.35 8.14.39 16.15 1.94 24.33 1.35.43 0 .95-.38.88-.88-2.88-21.94-6.36-43.9-6-66.09a.88.88 0 0 0-1.78 0z"/>
            <path d="M466.12 316.22c12.49-1.92 25.13-2.18 37.66-3.67 1.12-.13 1.13-1.9 0-1.77-12.69 1.51-25.49 1.78-38.13 3.73-1.12.17-.64 1.88.47 1.7z"/>
            <path d="M314.58 289.24c-.29 18.33 2 36.52 4.48 54.65.34 2.49 1.13 5.41 1.06 7.88-.09 3.34-.82 2.91-4.15 2.85-4.71-.09-9.39-.74-14.07-1.17-9.65-.88-18.9 1.45-28.49 1l.85 1.12c2.23-11.18 1.65-22.81.4-34.08-.42-3.76-1.25-7.46-1.85-11.19-.73-4.52-2.47-12.57 1.5-16 3.28-2.86 9.16-2.53 13.23-2.81 3.33-.23 6.64-.61 10-1 5.82-.61 12-1.85 17.73-.41a.88.88 0 0 0 .47-1.7c-6.24-1.56-12.92-.21-19.24.46-6.84.72-16.91-.41-22.78 3.65-6.24 4.32-3.05 15.69-2 21.76 2.38 13.24 3.49 27.57.84 40.84a.9.9 0 0 0 .85 1.12c8 .38 15.76-1.74 23.74-1.35 8.14.39 16.15 1.94 24.33 1.35.43 0 .95-.38.88-.88-2.88-21.94-6.36-43.9-6-66.09a.88.88 0 0 0-1.78 0z"/>
            <path d="M276 325.22c12.49-1.92 25.13-2.18 37.66-3.67 1.12-.13 1.13-1.9 0-1.77-12.69 1.51-25.49 1.78-38.13 3.73-1.12.17-.64 1.88.47 1.7z"/>
            <path d="M407.41 290.43c4.17 19.6 1.27 39.81 3.52 59.6l1.12-.85a61.22 61.22 0 0 0-22.45-3 99.82 99.82 0 0 0-10 .89q-2.35.32-4.68.74-1.5.27-3 .58a10.14 10.14 0 0 1-1.08-4.36c-1.32-8.58-.54-17.61-.42-26.25.12-9-.07-17.85-1.64-26.69l-.85 1.12c6.72-.09 13.46-1.25 20.15-1.87 3.69-.34 7.39-.65 11.1-.69 2.48 0 6.81-.48 8.8 1.37l1.07-1.39-.31-.22c-.94-.65-1.82.88-.89 1.53l.31.22c.83.57 1.8-.71 1.07-1.39-3.9-3.63-13-1.86-17.66-1.5-7.86.61-15.75 2.06-23.63 2.16a.9.9 0 0 0-.85 1.12c3.42 19.28-.28 38.92 2.77 58.23a.9.9 0 0 0 1.09.62c13.28-2.86 27.62-4.08 40.66.46a.89.89 0 0 0 1.12-.85c-2.27-20 .63-40.31-3.58-60.07-.27-1.09-1.97-.62-1.74.49z"/>
            <path d="M372.51 322.6c9.76-5.36 21.32-2.78 31.91-2.65a.88.88 0 0 0 0-1.77c-11-.13-22.69-2.66-32.8 2.89-1 .55-.11 2.07.89 1.53z"/>
            <path d="M124.84 295.49c-.21 8.72-.22 17.45.1 26.16.18 4.78.45 9.55.85 14.32.33 3.9 1.49 8.22 1.33 12.11-.11 2.78.38 2.41-2.45 3.26-2.63.79-6.13.54-8.88.52-4.24 0-8.47-.46-12.71-.4-4.62.06-9.14 1-13.74 1.33-3.11.22-3.85.44-4.9-2.47a41.59 41.59 0 0 1-1.1-5.69c-1.74-8.52-3.76-17-5.3-25.55-.84-4.71-1.56-9.44-1.93-14.21-.27-3.45-1.25-8.81-.09-12.13s9.92-2.8 13.27-3c4.5-.27 9-.35 13.51-.34s8.94.12 13.4.26c1.6 0 5.56-.55 6.92.22 2.19 1.24 1.65 4.79 1.73 7a.88.88 0 0 0 1.77 0v-1.39a.88.88 0 0 0-1.77 0v1.39h1.77a54.89 54.89 0 0 0-1-8.09.89.89 0 0 0-.85-.65c-16.57-.5-33.26-1.33-49.69 1.42a.9.9 0 0 0-.65.85C72.21 311.87 79.77 333 83.28 354a.89.89 0 0 0 .85.65c7.56.31 15-1.56 22.54-1.32s14.75.78 22.06-1a.91.91 0 0 0 .62-1.09c-2.81-18.4-3.2-37.11-2.74-55.69a.88.88 0 0 0-1.77-.06z"/>
            <path d="M79 326.3c7-3.86 15.34-3.54 23.09-4.6 6.19-.84 13.45-4.27 19.67-2.25 1.08.35 1.55-1.35.47-1.7-6.49-2.11-14 1.34-20.4 2.21-8 1.08-16.46.84-23.72 4.82-1 .55-.11 2.07.89 1.53z"/>
            <path d="M218.41 295.43c4.17 19.6 1.27 39.81 3.52 59.6l1.12-.85a61.22 61.22 0 0 0-22.45-3 99.82 99.82 0 0 0-10 .89q-2.35.32-4.68.74-1.5.27-3 .58a10.14 10.14 0 0 1-1.08-4.36c-1.32-8.58-.54-17.61-.42-26.25.12-9-.07-17.85-1.64-26.69l-.85 1.12c6.72-.09 13.46-1.25 20.15-1.87 3.69-.34 7.39-.65 11.1-.69 2.48 0 6.81-.48 8.8 1.37l1.07-1.39-.31-.22c-.94-.65-1.82.88-.89 1.53l.31.22c.83.57 1.8-.71 1.07-1.39-3.9-3.63-13-1.86-17.66-1.5-7.86.61-15.75 2.06-23.63 2.16a.9.9 0 0 0-.85 1.12c3.42 19.28-.28 38.92 2.77 58.23a.9.9 0 0 0 1.09.62c13.28-2.86 27.62-4.08 40.66.46a.89.89 0 0 0 1.12-.85c-2.27-20 .63-40.31-3.58-60.07-.27-1.09-1.97-.62-1.74.49z"/>
            <path d="M183.51 327.6c9.76-5.36 21.32-2.78 31.91-2.65a.88.88 0 0 0 0-1.77c-11-.13-22.69-2.66-32.8 2.89-1 .55-.11 2.07.89 1.53z"/>
            <path d="M218.41 406.43c4.17 19.6 1.27 39.81 3.52 59.6l1.12-.85a61.22 61.22 0 0 0-22.45-3 99.82 99.82 0 0 0-10 .89q-2.35.32-4.68.74-1.5.27-3 .58a10.14 10.14 0 0 1-1.08-4.36c-1.32-8.58-.54-17.61-.42-26.25.12-9-.07-17.85-1.64-26.69l-.85 1.12c6.72-.09 13.46-1.25 20.15-1.87 3.69-.34 7.39-.65 11.1-.69 2.48 0 6.81-.48 8.8 1.37l1.07-1.39-.31-.22c-.94-.65-1.82.88-.89 1.53l.31.22c.83.57 1.8-.71 1.07-1.39-3.9-3.63-13-1.86-17.66-1.5-7.86.61-15.75 2.06-23.63 2.16a.9.9 0 0 0-.85 1.12c3.42 19.28-.28 38.92 2.77 58.23a.9.9 0 0 0 1.09.62c13.28-2.86 27.62-4.08 40.66.46a.89.89 0 0 0 1.12-.85c-2.27-20 .63-40.31-3.58-60.07-.27-1.09-1.97-.62-1.74.49z"/>
            <path d="M504.75 391.24c-.29 18.33 2 36.52 4.48 54.65.34 2.49 1.13 5.41 1.06 7.88-.09 3.34-.82 2.91-4.15 2.85-4.71-.09-9.39-.74-14.07-1.17-9.65-.88-18.9 1.45-28.49 1l.85 1.12c2.23-11.18 1.65-22.81.4-34.08-.42-3.76-1.25-7.46-1.85-11.19-.73-4.52-2.47-12.57 1.5-16 3.28-2.86 9.16-2.53 13.23-2.81 3.33-.23 6.64-.61 10-1 5.82-.61 12-1.85 17.73-.41a.88.88 0 0 0 .47-1.7c-6.24-1.56-12.92-.21-19.24.46-6.84.72-16.91-.41-22.78 3.65-6.24 4.32-3.05 15.69-2 21.76 2.38 13.24 3.49 27.57.84 40.84a.9.9 0 0 0 .85 1.12c8 .38 15.76-1.74 23.74-1.35 8.14.39 16.15 1.94 24.33 1.35.43 0 .95-.38.88-.88-2.88-21.94-6.36-43.9-6-66.09a.88.88 0 0 0-1.78 0z"/>
            <path d="M466.12 427.22c12.49-1.92 25.13-2.18 37.66-3.67 1.12-.13 1.13-1.9 0-1.77-12.69 1.51-25.49 1.78-38.13 3.73-1.12.17-.64 1.88.47 1.7z"/>
            <path d="M314.58 400.24c-.29 18.33 2 36.52 4.48 54.65.34 2.49 1.13 5.41 1.06 7.88-.09 3.34-.82 2.91-4.15 2.85-4.71-.09-9.39-.74-14.07-1.17-9.65-.88-18.9 1.45-28.49 1l.85 1.12c2.23-11.18 1.65-22.81.4-34.08-.42-3.76-1.25-7.46-1.85-11.19-.73-4.52-2.47-12.57 1.5-16 3.28-2.86 9.16-2.53 13.23-2.81 3.33-.23 6.64-.61 10-1 5.82-.61 12-1.85 17.73-.41a.88.88 0 0 0 .47-1.7c-6.24-1.56-12.92-.21-19.24.46-6.84.72-16.91-.41-22.78 3.65-6.24 4.32-3.05 15.69-2 21.76 2.38 13.24 3.49 27.57.84 40.84a.9.9 0 0 0 .85 1.12c8 .38 15.76-1.74 23.74-1.35 8.14.39 16.15 1.94 24.33 1.35.43 0 .95-.38.88-.88-2.88-21.94-6.36-43.9-6-66.09a.88.88 0 0 0-1.78 0z"/>
            <path d="M276 436.22c12.49-1.92 25.13-2.18 37.66-3.67 1.12-.13 1.13-1.9 0-1.77-12.69 1.51-25.49 1.78-38.13 3.73-1.12.17-.64 1.88.47 1.7z"/>
            <path d="M407.41 401.43c4.17 19.6 1.27 39.81 3.52 59.6l1.12-.85a61.22 61.22 0 0 0-22.45-3 99.82 99.82 0 0 0-10 .89q-2.35.32-4.68.74-1.5.27-3 .58a10.14 10.14 0 0 1-1.08-4.36c-1.32-8.58-.54-17.61-.42-26.25.12-9-.07-17.85-1.64-26.69l-.85 1.12c6.72-.09 13.46-1.25 20.15-1.87 3.69-.34 7.39-.65 11.1-.69 2.48 0 6.81-.48 8.8 1.37l1.07-1.39-.31-.22c-.94-.65-1.82.88-.89 1.53l.31.22c.83.57 1.8-.71 1.07-1.39-3.9-3.63-13-1.86-17.66-1.5-7.86.61-15.75 2.06-23.63 2.16a.9.9 0 0 0-.85 1.12c3.42 19.28-.28 38.92 2.77 58.23a.9.9 0 0 0 1.09.62c13.28-2.86 27.62-4.08 40.66.46a.89.89 0 0 0 1.12-.85c-2.27-20 .63-40.31-3.58-60.07-.27-1.09-1.97-.62-1.74.49z"/>
            <path d="M372.51 433.6c9.76-5.36 21.32-2.78 31.91-2.65a.88.88 0 0 0 0-1.77c-11-.13-22.69-2.66-32.8 2.89-1 .55-.11 2.07.89 1.53z"/>
            <path d="M124.84 406.49c-.21 8.72-.22 17.45.1 26.16.18 4.78.45 9.55.85 14.32.33 3.9 1.49 8.22 1.33 12.11-.11 2.78.38 2.41-2.45 3.26-2.63.79-6.13.54-8.88.52-4.24 0-8.47-.46-12.71-.4-4.62.06-9.14 1-13.74 1.33-3.11.22-3.85.44-4.9-2.47a41.59 41.59 0 0 1-1.1-5.69c-1.74-8.52-3.76-17-5.3-25.55-.84-4.71-1.56-9.44-1.93-14.21-.27-3.45-1.25-8.81-.09-12.13s9.92-2.8 13.27-3c4.5-.27 9-.35 13.51-.34s8.94.12 13.4.26c1.6 0 5.56-.55 6.92.22 2.19 1.24 1.65 4.79 1.73 7a.88.88 0 0 0 1.77 0v-1.39a.88.88 0 0 0-1.77 0v1.39h1.77a54.89 54.89 0 0 0-1-8.09.89.89 0 0 0-.85-.65c-16.57-.5-33.26-1.33-49.69 1.42a.9.9 0 0 0-.65.85C72.21 422.87 79.77 444 83.28 465a.89.89 0 0 0 .85.65c7.56.31 15-1.56 22.54-1.32s14.75.78 22.06-1a.91.91 0 0 0 .62-1.09c-2.81-18.4-3.2-37.11-2.74-55.69a.88.88 0 0 0-1.77-.06z"/>
            <path d="M79 437.3c7-3.86 15.34-3.54 23.09-4.6 6.19-.84 13.45-4.27 19.67-2.25 1.08.35 1.55-1.35.47-1.7-6.49-2.11-14 1.34-20.4 2.21-8 1.08-16.46.84-23.72 4.82-1 .55-.11 2.07.89 1.53z"/>
            <path d="M183.51 438.6c9.76-5.36 21.32-2.78 31.91-2.65a.88.88 0 0 0 0-1.77c-11-.13-22.69-2.66-32.8 2.89-1 .55-.11 2.07.89 1.53z"/>
            <path d="M504.75 503.24c-.29 18.33 2 36.52 4.48 54.65.34 2.49 1.13 5.41 1.06 7.88-.09 3.34-.82 2.91-4.15 2.85-4.71-.09-9.39-.74-14.07-1.17-9.65-.88-18.9 1.45-28.49 1l.85 1.12c2.23-11.18 1.65-22.81.4-34.08-.42-3.76-1.25-7.46-1.85-11.19-.73-4.52-2.47-12.57 1.5-16 3.28-2.86 9.16-2.53 13.23-2.81 3.33-.23 6.64-.61 10-1 5.82-.61 12-1.85 17.73-.41a.88.88 0 0 0 .47-1.7c-6.24-1.56-12.92-.21-19.24.46-6.84.72-16.91-.41-22.78 3.65-6.24 4.32-3.05 15.69-2 21.76 2.38 13.24 3.49 27.57.84 40.84a.9.9 0 0 0 .85 1.12c8 .38 15.76-1.74 23.74-1.35 8.14.39 16.15 1.94 24.33 1.35.43 0 .95-.38.88-.88-2.88-21.94-6.36-43.9-6-66.09a.88.88 0 0 0-1.78 0z"/>
            <path d="M466.12 539.22c12.49-1.92 25.13-2.18 37.66-3.67 1.12-.13 1.13-1.9 0-1.77-12.69 1.51-25.49 1.78-38.13 3.73-1.12.17-.64 1.88.47 1.7z"/>
            <path d="M314.58 512.24c-.29 18.33 2 36.52 4.48 54.65.34 2.49 1.13 5.41 1.06 7.88-.09 3.34-.82 2.91-4.15 2.85-4.71-.09-9.39-.74-14.07-1.17-9.65-.88-18.9 1.45-28.49 1l.85 1.12c2.23-11.18 1.65-22.81.4-34.08-.42-3.76-1.25-7.46-1.85-11.19-.73-4.52-2.47-12.57 1.5-16 3.28-2.86 9.16-2.53 13.23-2.81 3.33-.23 6.64-.61 10-1 5.82-.61 12-1.85 17.73-.41a.88.88 0 0 0 .47-1.7c-6.24-1.56-12.92-.21-19.24.46-6.84.72-16.91-.41-22.78 3.65-6.24 4.32-3.05 15.69-2 21.76 2.38 13.24 3.49 27.57.84 40.84a.9.9 0 0 0 .85 1.12c8 .38 15.76-1.74 23.74-1.35 8.14.39 16.15 1.94 24.33 1.35.43 0 .95-.38.88-.88-2.88-21.94-6.36-43.9-6-66.09a.88.88 0 0 0-1.78 0z"/>
            <path d="M276 548.22c12.49-1.92 25.13-2.18 37.66-3.67 1.12-.13 1.13-1.9 0-1.77-12.69 1.51-25.49 1.78-38.13 3.73-1.12.17-.64 1.88.47 1.7z"/>
            <path d="M407.41 513.43c4.17 19.6 1.27 39.81 3.52 59.6l1.12-.85a61.22 61.22 0 0 0-22.45-3 99.82 99.82 0 0 0-10 .89q-2.35.32-4.68.74-1.5.27-3 .58a10.14 10.14 0 0 1-1.08-4.36c-1.32-8.58-.54-17.61-.42-26.25.12-9-.07-17.85-1.64-26.69l-.85 1.12c6.72-.09 13.46-1.25 20.15-1.87 3.69-.34 7.39-.65 11.1-.69 2.48 0 6.81-.48 8.8 1.37l1.07-1.39-.31-.22c-.94-.65-1.82.88-.89 1.53l.31.22c.83.57 1.8-.71 1.07-1.39-3.9-3.63-13-1.86-17.66-1.5-7.86.61-15.75 2.06-23.63 2.16a.9.9 0 0 0-.85 1.12c3.42 19.28-.28 38.92 2.77 58.23a.9.9 0 0 0 1.09.62c13.28-2.86 27.62-4.08 40.66.46a.89.89 0 0 0 1.12-.85c-2.27-20 .63-40.31-3.58-60.07-.27-1.09-1.97-.62-1.74.49z"/>
            <path d="M372.51 545.6c9.76-5.36 21.32-2.78 31.91-2.65a.88.88 0 0 0 0-1.77c-11-.13-22.69-2.66-32.8 2.89-1 .55-.11 2.07.89 1.53z"/>
            <path d="M124.84 518.49c-.21 8.72-.22 17.45.1 26.16.18 4.78.45 9.55.85 14.32.33 3.9 1.49 8.22 1.33 12.11-.11 2.78.38 2.41-2.45 3.26-2.63.79-6.13.54-8.88.52-4.24 0-8.47-.46-12.71-.4-4.62.06-9.14 1-13.74 1.33-3.11.22-3.85.44-4.9-2.47a41.59 41.59 0 0 1-1.1-5.69c-1.74-8.52-3.76-17-5.3-25.55-.84-4.71-1.56-9.44-1.93-14.21-.27-3.45-1.25-8.81-.09-12.13s9.92-2.8 13.27-3c4.5-.27 9-.35 13.51-.34s8.94.12 13.4.26c1.6 0 5.56-.55 6.92.22 2.19 1.24 1.65 4.79 1.73 7a.88.88 0 0 0 1.77 0v-1.39a.88.88 0 0 0-1.77 0v1.39h1.77a54.89 54.89 0 0 0-1-8.09.89.89 0 0 0-.85-.65c-16.57-.5-33.26-1.33-49.69 1.42a.9.9 0 0 0-.65.85C72.21 534.87 79.77 556 83.28 577a.89.89 0 0 0 .85.65c7.56.31 15-1.56 22.54-1.32s14.75.78 22.06-1a.91.91 0 0 0 .62-1.09c-2.81-18.4-3.2-37.11-2.74-55.69a.88.88 0 0 0-1.77-.06z"/>
            <path d="M79 549.3c7-3.86 15.34-3.54 23.09-4.6 6.19-.84 13.45-4.27 19.67-2.25 1.08.35 1.55-1.35.47-1.7-6.49-2.11-14 1.34-20.4 2.21-8 1.08-16.46.84-23.72 4.82-1 .55-.11 2.07.89 1.53z"/>
            <path d="M218.41 518.43c4.17 19.6 1.27 39.81 3.52 59.6l1.12-.85a61.22 61.22 0 0 0-22.45-3 99.82 99.82 0 0 0-10 .89q-2.35.32-4.68.74-1.5.27-3 .58a10.14 10.14 0 0 1-1.08-4.36c-1.32-8.58-.54-17.61-.42-26.25.12-9-.07-17.85-1.64-26.69l-.85 1.12c6.72-.09 13.46-1.25 20.15-1.87 3.69-.34 7.39-.65 11.1-.69 2.48 0 6.81-.48 8.8 1.37l1.07-1.39-.31-.22c-.94-.65-1.82.88-.89 1.53l.31.22c.83.57 1.8-.71 1.07-1.39-3.9-3.63-13-1.86-17.66-1.5-7.86.61-15.75 2.06-23.63 2.16a.9.9 0 0 0-.85 1.12c3.42 19.28-.28 38.92 2.77 58.23a.9.9 0 0 0 1.09.62c13.28-2.86 27.62-4.08 40.66.46a.89.89 0 0 0 1.12-.85c-2.27-20 .63-40.31-3.58-60.07-.27-1.09-1.97-.62-1.74.49z"/>
            <path d="M183.51 550.6c9.76-5.36 21.32-2.78 31.91-2.65a.88.88 0 0 0 0-1.77c-11-.13-22.69-2.66-32.8 2.89-1 .55-.11 2.07.89 1.53z"/>
            <path d="M124.84 639.49c-.21 8.72-.22 17.45.1 26.16.18 4.78.45 9.55.85 14.32.33 3.9 1.49 8.22 1.33 12.11-.11 2.78.38 2.41-2.45 3.26-2.63.79-6.13.54-8.88.52-4.24 0-8.47-.46-12.71-.4-4.62.06-9.14 1-13.74 1.33-3.11.22-3.85.44-4.9-2.47a41.59 41.59 0 0 1-1.1-5.69c-1.74-8.52-3.76-17-5.3-25.55-.84-4.71-1.56-9.44-1.93-14.21-.27-3.45-1.25-8.81-.09-12.13s9.92-2.8 13.27-3c4.5-.27 9-.35 13.51-.34s8.94.12 13.4.26c1.6 0 5.56-.55 6.92.22 2.19 1.24 1.65 4.79 1.73 7a.88.88 0 0 0 1.77 0v-1.39a.88.88 0 0 0-1.77 0v1.39h1.77a54.89 54.89 0 0 0-1-8.09.89.89 0 0 0-.85-.65c-16.57-.5-33.26-1.33-49.69 1.42a.9.9 0 0 0-.65.85C72.21 655.87 79.77 677 83.28 698a.89.89 0 0 0 .85.65c7.56.31 15-1.56 22.54-1.32s14.75.78 22.06-1a.91.91 0 0 0 .62-1.09c-2.81-18.4-3.2-37.11-2.74-55.69a.88.88 0 0 0-1.77-.06z"/>
            <path d="M79 670.3c7-3.86 15.34-3.54 23.09-4.6 6.19-.84 13.45-4.27 19.67-2.25 1.08.35 1.55-1.35.47-1.7-6.49-2.11-14 1.34-20.4 2.21-8 1.08-16.46.84-23.72 4.82-1 .55-.11 2.07.89 1.53z"/>
            <path d="M218.41 639.43c4.17 19.6 1.27 39.81 3.52 59.6l1.12-.85a61.22 61.22 0 0 0-22.45-3 99.82 99.82 0 0 0-10 .89q-2.35.32-4.68.74-1.5.27-3 .58a10.14 10.14 0 0 1-1.08-4.36c-1.32-8.58-.54-17.61-.42-26.25.12-9-.07-17.85-1.64-26.69l-.85 1.12c6.72-.09 13.46-1.25 20.15-1.87 3.69-.34 7.39-.65 11.1-.69 2.48 0 6.81-.48 8.8 1.37l1.07-1.39-.31-.22c-.94-.65-1.82.88-.89 1.53l.31.22c.83.57 1.8-.71 1.07-1.39-3.9-3.63-13-1.86-17.66-1.5-7.86.61-15.75 2.06-23.63 2.16a.9.9 0 0 0-.85 1.12c3.42 19.28-.28 38.92 2.77 58.23a.9.9 0 0 0 1.09.62c13.28-2.86 27.62-4.08 40.66.46a.89.89 0 0 0 1.12-.85c-2.27-20 .63-40.31-3.58-60.07-.27-1.09-1.97-.62-1.74.49z"/>
            <path d="M183.51 671.6c9.76-5.36 21.32-2.78 31.91-2.65a.88.88 0 0 0 0-1.77c-11-.13-22.69-2.66-32.8 2.89-1 .55-.11 2.07.89 1.53z"/>
            <path class="cls-1" d="M306 639.69c-3.7-4.16-32.81.92-40.67.92 3.7 19.41-.46 39.29 2.77 58.23 12.48-2.77 28.65-4.16 41.13.46-2.31-18.95.61-41.35-3.55-59.84z"/>
            <path d="M265.32 639.55c3.7 19.41-.46 39.29 2.77 58.23h3.23l-.08-53.25L306 642l-.31-3.59.31.22c-3.71-4.16-32.83.92-40.68.92z"/>
            <path d="M304.82 639.71c4.17 19.6 1.27 39.81 3.52 59.6l1.12-.85a61.22 61.22 0 0 0-22.45-3 99.82 99.82 0 0 0-10 .89q-2.35.32-4.68.74-1.5.27-3 .58a10.14 10.14 0 0 1-1.08-4.36c-1.32-8.58-.54-17.61-.42-26.25.12-9-.07-17.85-1.64-26.69l-.85 1.12c6.72-.09 13.46-1.25 20.15-1.87 3.69-.34 7.39-.65 11.1-.69 2.48 0 6.81-.48 8.8 1.37l1.07-1.39-.31-.22c-.94-.65-1.82.88-.89 1.53l.31.22c.83.57 1.8-.71 1.07-1.39-3.9-3.63-13-1.86-17.66-1.5-7.86.61-15.75 2.06-23.63 2.16a.9.9 0 0 0-.85 1.12c3.42 19.28-.28 38.92 2.77 58.23a.9.9 0 0 0 1.09.62c13.28-2.86 27.62-4.08 40.66.46a.89.89 0 0 0 1.12-.85c-2.27-20 .63-40.31-3.58-60.07-.27-1.09-1.97-.62-1.74.49z"/>
            <path d="M269.92 671.89c9.76-5.36 21.32-2.78 31.91-2.65a.88.88 0 0 0 0-1.77c-11-.13-22.69-2.66-32.8 2.89-1 .55-.11 2.07.89 1.53z"/>
        </g>
    </g>
</svg>
