<svg xmlns="http://www.w3.org/2000/svg" viewBox="0 0 275.11 362.74">
    <defs>
        <style>
            .cls-1{fill:#fff}.cls-2{fill:#0ff}
        </style>
    </defs>
    <title>
        house_Asset 19
    </title>
    <g id="Layer_2" data-name="Layer 2">
        <g id="Layer_1-2" data-name="Layer 1">
            <path class="cls-1" d="M4.79 51C3.5 44.79-.45 39.74 1.07 33c2.19-.39 4.81.81 7 1.13 4.94.72 10.32-.32 15.23-.7 9.72-.76 19.61-.45 29.37-.45 11.23 0 22.55-.22 33.76-.78 7.83-.39 15.74-.1 23.56-.73 9.24-.74 18.4-1.82 27.67-2.4 10.18-.63 20.27-2.13 30.41-3.1 12.77-1.22 25.58-1.58 38.34-2.78 8.38-.79 16.68.16 25.07-.14 5.18-.18 10.34-.24 15.53-.47 3.71-.17 8.06-.38 11.41 1.57 2.54 1.47 1.36 3.32 1.22 5.89s.08 5.13-.47 7.58c-.45 2-1.15 1.75-3 1.89l-7.64.59-51.54 4q-29.11 2.22-58.23 4.23c-16 1.08-32 2.12-48 2.71-16.5 0-75.41-3.14-85.5 0" transform="translate(0 -21.14)"/>
            <path class="cls-1" d="M9.24 51c10.5 25.5 7.5 32 7.5 60.5 0 37.5 3 75 3 114 0 52.5 3 105 4.5 157.49 39-3 73.5-6 112.49-4.5 21 0 40.16-1.09 59.66-1.09s58.33-.63 77.83.87c-4.5-60-1-116.77-8.5-176.77-9-64.5-12-95-15-161-39 3-115.5 9-156 10.5-16.5 0-75.41-3.14-85.5 0z" transform="translate(0 -21.14)"/>
            <path class="cls-1" d="M236.42 277.93c0-12-1.05-23.4-2.11-35.37-17.39-2.72-35.83 1.63-53.22 2.18-2.63 15.78 1.05 33.74 2.63 49.52 1.05 10.34-1.7 34.19 3 43.44 6.78.27 18.56-1 26.46-2.09 9-1.09 18.77-1.17 27.24-1.59.06-.02-3.47-38.68-4-56.09z" transform="translate(0 -21.14)"/>
            <path class="cls-1" d="M85.61 149c5.48 0 11.37-.41 16.85.2 1-12.38-2.64-25.38-2.44-37.76-5.08 1-10.76 0-16 .2q-8.53.61-17.05.61c-6.29 0-10.56-1.42-16.65.41l1 .2c2.23 6.29 1.62 14.62 1.83 21.11.2 5.68.41 11.37.61 17.26 4.67.41 10.15-1.42 14.82-2 5.66-.44 11.35-.23 17.03-.23z" transform="translate(0 -21.14)"/>
            <path class="cls-1" d="M205 111.44c-5.08 1-10.76 0-16 .2q-8.53.61-17.05.61c-6.29 0-10.56-1.42-16.65.41l1 .2c2.23 6.29 1.62 14.62 1.83 21.11.2 5.68.41 11.37.61 17.26 4.67.41 10.15-1.42 14.82-2 5.68-.41 11.37-.2 17.05-.2 5.48 0 11.37-.41 16.85.2 1.02-12.41-2.64-25.41-2.46-37.79z" transform="translate(0 -21.14)"/>
            <path class="cls-1" d="M57.92 239.09a308.48 308.48 0 0 0 3.56 44.37c13.17 1.05 29 1.58 42.15-.53 0-6.32-1.9-40-2.9-44.68z" transform="translate(0 -21.14)"/>
            <path d="M8.38 51.25c3.11 7.64 5.93 15.47 7.11 23.66 1.05 7.31.76 14.73.58 22.09-.54 21.73.2 43.46 1.05 65.17 1.83 46.69 1.7 93.39 3.34 140.08 1 26.91 2.1 53.82 2.88 80.74a.89.89 0 0 0 .88.88c37.2-2.87 74.18-5.38 111.51-4.54 18.07.41 36.19-.82 54.26-1 13.37-.14 26.75-.16 40.12-.17 14.69 0 29.44-.08 44.1 1a.89.89 0 0 0 .88-.88c-3.54-48.07-2-96.34-5.39-144.41-2.9-41.43-10.41-82.42-13.88-123.83-1.94-23.14-3.16-46.33-4.22-69.52a.89.89 0 0 0-.88-.88c-36.92 2.84-73.85 5.71-110.8 8.07-15.91 1-32.05 2.62-48 2.4-14.32-.19-28.63-.86-42.94-1.17-8.22-.17-16.46-.31-24.68-.13-5 .11-10.44 0-15.29 1.35a.88.88 0 0 0 .47 1.7c9.58-2.76 21.28-1.43 31.1-1.3 13.57.18 27.13.66 40.7 1.06 28.65.83 57.45-2 86-4q25.87-1.81 51.72-3.8l22-1.69 5-.39a11.45 11.45 0 0 1 2.13-.16c1.6.19.95-.55 1.78.89s.27 5.82.36 7.67q.22 4.58.46 9.16c1.87 36.34 4.94 72.53 9.57 108.63 2.82 22 6.08 43.81 7.63 65.91 1.6 22.81 2.07 45.68 2.52 68.54.44 22.67.87 45.35 2.32 68 .1 1.61 1 6.18-.1 6.9-.72.47-4-.24-5-.28-3.82-.18-7.65-.3-11.48-.38-8.7-.19-17.41-.23-26.11-.22-16.71 0-33.45 0-50.15.34-11.18.25-22.35.65-33.52.81-11.65.16-23.29-.39-34.94-.31-22 .15-43.95 1.58-65.87 3.24-5.52.42-11.95 1.88-17.45 1.34-1.5-.15-1.92.7-3.12-.81-.29-.36-.12-3.85-.12-4q-.15-5-.32-10-.58-17.45-1.27-34.89c-.9-23.59-1.81-47.17-2.32-70.77-.5-23.41-.28-46.82-1-70.23-.76-22.69-2-45.41-2.29-68.12-.24-16.14 1.89-33.05-.59-49.06-1.24-8-4-15.64-7-23.11-.46-1.08-2.12-.63-1.74.42z" transform="translate(0 -21.14)"/>
            <path class="cls-1" d="M19.33 187.61c16.86-1.05 31.09-3.69 48.48-3.16 38.47 1.05 77.46-2.63 115.92-2.63 16.86 0 34.25 0 51.11-2.11 5.27-.53 22.43-5.74 27.7-1.52 1.64 8.41 3.1 27.55 4.15 35.46a114.84 114.84 0 0 1 1.77 18.91c-40 5.8-82.62 4.06-122.67 4.06-26.35 0-52.17 1.58-78 2.11-14.23.53-34 1-47.67 5.19-.12-18.48-.28-37.33-.8-56.3" transform="translate(0 -21.14)"/>
            <path class="cls-1" d="M102.87 76.32C91.09 78.14 78.71 78.14 66.93 79a183.6 183.6 0 0 1-23.55.41l-.2-.61c2.64 9.95 2.23 22.53 2 32.89 10.35 1 21.11-1.42 31.47-1 5.48.2 11.17.2 16.85.41 4.47.2 8.93 1.22 13.4.81.61-6.5-1.22-14.41-2-20.71-.81-5.14-1.42-10.01-2.03-14.88z" transform="translate(0 -21.14)"/>
            <path class="cls-1" d="M209.9 91.14c-.81-5.08-1.42-9.95-2-14.82-11.77 1.83-24.16 1.83-35.93 2.64a183.6 183.6 0 0 1-23.55.41l-.2-.61c2.64 9.95 2.23 22.53 2 32.89 10.35 1 21.11-1.42 31.47-1 5.48.2 11.17.2 16.85.41 4.47.2 8.93 1.22 13.4.81.6-6.52-1.23-14.44-2.04-20.73z" transform="translate(0 -21.14)"/>
            <path d="M5.64 50.77c-1-4-2.94-7.71-3.71-11.73-.33-1.69-1-4.47 1.69-5.09a7.33 7.33 0 0 1 2.15.53 26.16 26.16 0 0 0 5.65.74c4.62.08 9.23-.78 13.83-1.08 5.22-.34 10.45-.38 15.67-.37 21.07 0 42.13-.37 63.19-1.12 20.71-.74 41.45-3.55 62.05-5.64A563.15 563.15 0 0 1 226.64 24c4.84 0 9.69-.18 14.53-.32 2.41-.07 4.83-.2 7.24-.26 1 0 2-.08 2.94 0 3 .14 3.95.27 5.85 2.87 2 2.79 1.56 2.84 1.48 6.07 0 2 .53 5.08-1.55 6.25-1.5.85-5 .37-6.7.5l-8.85.69q-31.51 2.47-63 4.86c-33.94 2.53-68.23 6.25-102.29 5.24-14-.41-28-.92-42-1.06-9.35-.16-20.22-1.29-29.29 1.33a.88.88 0 0 0 .47 1.7c8.54-2.47 18.85-1.41 27.61-1.34 13 .11 26 .54 39 .94 34.54 1.06 69.12-2.35 103.55-4.9q32.48-2.41 65-5c5.18-.41 10.4-.65 15.57-1.21 1.6-.17 2.56-.09 3.49-1.49 1.48-2.24.65-6.38.86-8.86.23-2.76 1-4.64-1.48-6.51-5.26-4-15.73-1.68-21.74-1.53-10.93.28-21.91-.44-32.81.48-10.21.87-20.46 1.3-30.67 2.1-10.85.85-21.58 2.45-32.38 3.32-24 1.95-47.84 3.46-71.91 4-12.16.27-24.33-.08-36.49.18-5.55.12-11 .65-16.51 1.14A33.35 33.35 0 0 1 7 33a23.32 23.32 0 0 0-5.88-.88.9.9 0 0 0-.85.65c-1.1 6.74 2.16 12.13 3.71 18.51.27 1.1 2 .64 1.7-.47z" transform="translate(0 -21.14)"/>
            <path d="M19.33 188.5c8.91-.59 17.77-1.65 26.66-2.41 9.58-.82 19.07-.75 28.67-.62 19.67.27 39.34-.57 59-1.39q29.76-1.24 59.5-1.4c16-.07 32.31-.06 48-3.23 5.22-1.06 13.82-3.88 19-1.49 2.77 1.28 2.4 5.75 2.75 8.53.43 3.43.78 6.88 1.14 10.32.58 5.69 1 11.41 1.82 17.07.64 4.58 2.68 11.18 1.68 15.84-.66 3.1-3.72 2.61-6.49 2.94s-5.6.64-8.41.92c-38.15 3.74-76.47 1.77-114.73 2.19-21.76.24-43.5 1.41-65.26 2-17.49.44-35.83.34-52.75 5.33l1.12.85c-.12-18.77-.29-37.54-.8-56.3a.88.88 0 0 0-1.77 0c.51 18.76.68 37.53.8 56.3a.89.89 0 0 0 1.12.85c13.69-4 28.25-4.45 42.42-5 16.55-.6 33.1-1.08 49.66-1.63 33.79-1.13 67.57.12 101.35-.63a464.73 464.73 0 0 0 54.9-4.11.88.88 0 0 0 .65-.85c-.1-9.27-1.79-18.36-2.73-27.56-.78-7.68-1.44-15.38-2.56-23-.36-2.45-.09-4.23-2.43-5.35s-5.07-1-7.44-.93c-6.56.28-12.88 2.19-19.35 3.12-22.68 3.27-45.92 1.79-68.75 2.34-23.62.57-47.21 2-70.83 2.47-12.87.24-25.79-.5-38.64 0-12.47.49-24.84 2.27-37.29 3.1-1.13.07-1.14 1.84 0 1.77z" transform="translate(0 -21.14)"/>
            <path d="M24 342.1c2.31-1.52 6.51-.5 9-.34a109.87 109.87 0 0 0 11 .22c7.25-.27 14.43-1.36 21.64-2.09 15.81-1.61 31.88-1.24 47.75-1.54 7.73-.15 15.47-.32 23.2-.6q6.27-.23 12.54-.56c4-.22 8.55-1.15 12.5-.83 2.63.22 2.67-.11 3.71 2.61a26.44 26.44 0 0 1 .89 5.43c.6 4.17 1 8.37 1.45 12.56.72 7.24 1.42 14.48 2.73 21.64.21 1.12 1.91.64 1.7-.47-2.63-14.31-2.77-29-5.8-43.21a.89.89 0 0 0-.85-.65c-26 2.22-52.08 2.19-78.14 2.8-12.45.29-24.62 1.62-37 2.72a115.74 115.74 0 0 1-17.33.2c-3.08-.19-7.17-1.23-9.93.58-.95.62-.06 2.15.89 1.53z" transform="translate(0 -21.14)"/>
            <path d="M169.06 342.08c15-2.74 30.33-4.06 45.52-5.32 18.36-1.52 37.61-3.43 55.86-.11 1.11.2 1.59-1.5.47-1.7-18.44-3.36-37.78-1.5-56.33 0-15.35 1.27-30.83 2.61-46 5.39-1.12.2-.64 1.91.47 1.7z" transform="translate(0 -21.14)"/>
            <path d="M171.59 359.19c16.94-4.13 34.69-2.41 52-3 15.23-.48 31.86-5.54 46.89-1.79a.88.88 0 0 0 .47-1.7c-15.24-3.8-31.94 1.24-47.36 1.72-17.43.54-35.32-1.15-52.43 3-1.1.27-.64 2 .47 1.7z" transform="translate(0 -21.14)"/>
            <path d="M237.32 277.93c-.05-11.83-1.07-23.6-2.11-35.37a.92.92 0 0 0-.66-.87c-17.87-2.55-35.61 1.46-53.46 2.14a.91.91 0 0 0-.87.66c-2.81 18.48 2.5 36.25 2.85 54.62.23 12.36-2.53 27.46 2.92 39a.89.89 0 0 0 .78.44c8.15.21 16.33-.79 24.4-1.81 9.73-1.23 19.51-1.4 29.3-1.87a.91.91 0 0 0 .9-.9c-1.7-18.65-3.45-37.37-4.06-56.09 0-1.15-1.83-1.16-1.8 0 .48 14.88 1.8 29.76 3.05 44.59q.33 3.93.68 7.85c0 .43.66 3.25.32 3.61.46-.5-5.34-.6-6.12-.57-3.07.12-6.14.23-9.2.39-5.63.31-11.17 1-16.76 1.64-4.68.55-9.39 1-14.1 1.26-2.06.1-5 .78-6.46-.87-.9-1-1-3.67-1.26-5-1.44-8.46-.9-17.25-.81-25.79.1-9.26-1.14-18.25-2.25-27.43-.65-5.39-1.23-10.8-1.45-16.23-.11-2.67-.14-5.34 0-8a27.25 27.25 0 0 1 .3-4.36c.67-3.2 1.3-3.42 4.18-3.6 13.21-.83 26.35-3.25 39.62-2.79a29.13 29.13 0 0 1 3.65.2 6.76 6.76 0 0 1 4.7 1.62l.25 2.81c.3 3.4.59 6.81.84 10.21.5 6.81.82 13.63.86 20.46a.9.9 0 0 0 1.77.05z" transform="translate(0 -21.14)"/>
            <path d="M57 239.09a307.75 307.75 0 0 0 3.59 44.6.89.89 0 0 0 .85.65c14.1 1.1 28.36 1.55 42.39-.56a.89.89 0 0 0 .65-.85c0-7.84-.63-15.7-1.11-23.52-.44-7.06-.48-14.43-1.82-21.4a.89.89 0 0 0-.85-.65l-42.81.84a.88.88 0 0 0 0 1.77l19.93-.39 14.45-.28c2 0 6.31-1 8.17-.16.49.22-.67-.93-.47 0 .15.71.19 1.46.27 2.18.24 2.21.41 4.43.59 6.65.44 5.71.8 11.43 1.12 17.15.28 4.95.55 9.9.71 14.85 0 .51.28 1.64.05 2.07-.4.74-4.6.71-5.89.83-4.75.44-9.53.6-14.3.61-5.06 0-10.11-.19-15.16-.5-3.33-.21-4.71.28-5.56-3.11a65.39 65.39 0 0 1-1.07-8.47 298.29 298.29 0 0 1-2-32.32.88.88 0 0 0-1.73.01z" transform="translate(0 -21.14)"/>
            <path d="M34.4 352c8.5 1.87 17.09-.92 25.65-.92 10.16 0 20.17.62 30.32-.14 20.86-1.54 41.62-4.14 62.48-5.64 1.13-.08 1.14-1.85 0-1.77-20.22 1.45-40.35 4-60.57 5.5-9.89.73-19.6.49-29.51.31-9.18-.17-18.85 2.94-27.9 1-1.11-.24-1.58 1.46-.47 1.7z" transform="translate(0 -21.14)"/>
            <path d="M159.17 238.25c-.36 18 1 36 2.06 54 .38 6.72 1 13.3 1.89 20s2.29 13.83.89 20.4c-.24 1.11 1.47 1.58 1.7.47 1.25-5.89.3-12.15-.45-18-.89-7-1.77-13.9-2.16-20.94-1-18.63-2.54-37.24-2.16-55.91a.88.88 0 0 0-1.77 0z" transform="translate(0 -21.14)"/>
            <path d="M150.69 239.1c3 .93 2.75 13 2.89 15.41.46 7.87.51 15.77.48 23.66 0 5.78-.17 11.56-.17 17.34 0 13 2.73 25.85 3.36 38.85.06 1.13 1.82 1.14 1.77 0-.66-13.4-3.44-26.6-3.35-40 0-7.16.2-14.33.16-21.49a238.79 238.79 0 0 0-1-24.81c-.29-2.69-.32-9.59-3.67-10.62-1.09-.34-1.55 1.37-.47 1.7z" transform="translate(0 -21.14)"/>
            <path d="M23.82 298.21c11.63-2.61 23.46-2.46 35.31-2.31a274.12 274.12 0 0 0 34.28-1.9c10.79-1.2 21.49-1.59 32.32-2.07 8.34-.37 17.7-2.58 25.92-.43a.88.88 0 0 0 .47-1.7c-7.76-2-16.48-.23-24.34.25-11.5.7-22.9.91-34.37 2.18a280.46 280.46 0 0 1-35.23 1.91c-11.7-.16-23.36-.19-34.83 2.38-1.11.25-.64 2 .47 1.7z" transform="translate(0 -21.14)"/>
            <path d="M37.63 299.51c3.31 12.32 4.25 25 4.29 37.73a.88.88 0 0 0 1.77 0c0-12.87-1-25.73-4.36-38.2a.88.88 0 0 0-1.7.47z" transform="translate(0 -21.14)"/>
            <path d="M55.89 299c1.89 12 2 24.14 4.32 36 .22 1.11 1.92.64 1.7-.47-2.34-11.9-2.44-24.08-4.32-36-.18-1.12-1.88-.64-1.7.47z" transform="translate(0 -21.14)"/>
            <path d="M79.4 298.32c1.43 12.08 1.19 24.83 5.8 36.28.42 1 2.13.59 1.7-.47-4.56-11.31-4.32-23.86-5.74-35.81-.13-1.12-1.9-1.13-1.77 0z" transform="translate(0 -21.14)"/>
            <path d="M99.62 299c4 10.1 3.72 20.71 6 31.13a.89.89 0 0 0 1.7 0l.21-.86c.27-1.1-1.43-1.58-1.7-.47l-.21.86h1.7c-2.32-10.45-2.06-21-6-31.13-.41-1-2.12-.59-1.7.47z" transform="translate(0 -21.14)"/>
            <path d="M124.13 295.68c-3 12.14.28 25 2.4 37 .2 1.12 1.9.64 1.7-.47-2.07-11.71-5.28-24.22-2.4-36.05.27-1.1-1.43-1.58-1.7-.47z" transform="translate(0 -21.14)"/>
            <path d="M61.79 256.4c12.16 2.5 24.57-2.17 36.76-2.37a.88.88 0 0 0 0-1.77c-12 .2-24.32 4.9-36.29 2.43-1.11-.23-1.58 1.47-.47 1.7z" transform="translate(0 -21.14)"/>
            <path d="M50.45 113.1c1.89 6 1.68 12.3 1.75 18.56.08 6.53.43 13.06.65 19.58a.9.9 0 0 0 .88.88 43.53 43.53 0 0 0 10.17-1.17 67.54 67.54 0 0 1 13.17-1.11c8.42 0 17-.51 25.38.25a.9.9 0 0 0 .88-.88c.82-12.67-2.46-25.11-2.44-37.76a.9.9 0 0 0-1.12-.85c-4.7.73-9.32.14-14 .14-4.38 0-8.76.46-13.14.57-7.49.18-15.24-1.37-22.57.5a.89.89 0 0 0 0 1.7l1 .2c1.11.22 1.59-1.48.47-1.7l-1-.2v1.7c8.15-2.09 17.49-.23 25.89-.56 7.84-.31 16.12.55 23.85-.66l-1.12-.85c0 10.28 2.21 20.37 2.57 30.63.1 2.74 1 5.54-2 6-2.33.38-5.16-.12-7.54-.08-5.65.09-11.3 0-17 .06a76.7 76.7 0 0 0-13.43 1.5c-2.19.4-5.91 1.91-7.2-.3-1.05-1.8-.23-6.54-.3-8.66-.33-9.19.69-19.11-2.1-28-.33-1.05-2.04-.59-1.7.51z" transform="translate(0 -21.14)"/>
            <path d="M53.77 150.18a36 36 0 0 0-5.92-.23.9.9 0 0 0-.88.88 68.86 68.86 0 0 0 .4 12.17.91.91 0 0 0 .88.88c21.29.08 42.31-3.76 63.54-4.67a.9.9 0 0 0 .88-.88c.1-3.55-1-6.82-1.22-10.35a.9.9 0 0 0-.88-.88c-2.32 0-6.27 1.62-8.1.06-.86-.73-2.12.51-1.25 1.25 1.45 1.23 2.76 1.19 4.61 1s2.83-.94 4 .26a24.91 24.91 0 0 1 .67 3.69c.79 4.72-.45 4.1-4.45 4.36-1.93.12-3.85.27-5.77.42-4.5.37-9 .83-13.49 1.29-9 .93-18 1.93-27 2.39q-2.88.15-5.77.22-1.92 0-3.84.05a1.85 1.85 0 0 1-1.42-2.55 15.82 15.82 0 0 1-.14-5.33c.43-3.21 1.29-2.86 4.68-2.37 1.11.16 1.59-1.54.47-1.7z" transform="translate(0 -21.14)"/>
            <path d="M42.33 79c2.63 10.66 2.22 21.76 2 32.65a.9.9 0 0 0 .88.88c10.22.81 20.34-1.22 30.55-1 5 .09 10 .21 14.92.34 5.43.14 10.81 1.16 16.24.9a.91.91 0 0 0 .88-.88c.76-11.69-2.61-24-4.06-35.53a.91.91 0 0 0-1.12-.85C92 77 81.35 77.23 70.67 77.84c-4.91.28-9.81.68-14.74.8-1.43 0-11.66.61-11.9-.12-.36-1.07-2.07-.61-1.7.47l.2.61a.92.92 0 0 0 .85.65c10.08.49 20.05-.28 30.11-.79 9.9-.5 19.79-.85 29.61-2.29l-1.1-.85c1.28 10.21 3.69 20.57 4.14 30.84.16 3.57-.42 4-4 3.79-2.88-.19-5.73-.64-8.61-.8-5.9-.32-11.86-.32-17.77-.43-5.58-.1-11.12.49-16.68.9-2.78.21-5.57.39-8.36.38-3.27 0-4.62.32-4.55-3.35.18-9.75.21-19.62-2.14-29.14a.88.88 0 0 0-1.7.49z" transform="translate(0 -21.14)"/>
            <path d="M50.49 104.2c8.3 0 16.58-.49 24.87-.89s16.71.22 25.07.28a.88.88 0 0 0 0-1.77c-8.36-.06-16.71-.68-25.07-.28s-16.57.85-24.87.89a.88.88 0 0 0 0 1.77z" transform="translate(0 -21.14)"/>
            <path d="M53.67 84.44a93.84 93.84 0 0 0 .9 14.26c.39 3 .07 6.76 1.45 9.53.51 1 2 .12 1.53-.89-1.27-2.55-1-6.94-1.36-9.82a86.89 86.89 0 0 1-.75-13.09.88.88 0 0 0-1.77 0z" transform="translate(0 -21.14)"/>
            <path d="M64.83 85.25c.09 5.58 1 11 1.53 16.58.2 2.22-.11 5.2 1 7.21a.88.88 0 0 0 1.53-.89c-1.32-2.33-.89-7.23-1.2-9.82a124.12 124.12 0 0 1-1.09-13.08.88.88 0 0 0-1.77 0z" transform="translate(0 -21.14)"/>
            <path d="M73.16 85.86c-.16 7.5 2.59 14.63 2.44 22.13a.88.88 0 0 0 1.77 0c.16-7.5-2.6-14.64-2.44-22.13a.88.88 0 0 0-1.77 0z" transform="translate(0 -21.14)"/>
            <path d="M82.93 84c-1.67 8.22 1.37 16.26 2.2 24.39.11 1.12 1.88 1.13 1.77 0-.81-7.91-3.88-15.94-2.26-23.92.23-1.11-1.48-1.59-1.7-.47z" transform="translate(0 -21.14)"/>
            <path d="M93.05 83.83a102 102 0 0 0 2.26 25c.26 1.11 2 .64 1.7-.47a100.09 100.09 0 0 1-2.2-24.53.88.88 0 0 0-1.77 0z" transform="translate(0 -21.14)"/>
            <path d="M155.45 113.1c1.89 6 1.68 12.3 1.75 18.56.08 6.53.43 13.06.65 19.58a.9.9 0 0 0 .88.88 43.53 43.53 0 0 0 10.17-1.17 67.54 67.54 0 0 1 13.17-1.11c8.42 0 17-.51 25.38.25a.9.9 0 0 0 .88-.88c.82-12.67-2.46-25.11-2.44-37.76a.9.9 0 0 0-1.12-.85c-4.7.73-9.32.14-14 .14-4.38 0-8.76.46-13.14.57-7.49.18-15.24-1.37-22.57.5a.89.89 0 0 0 0 1.7l1 .2c1.11.22 1.59-1.48.47-1.7l-1-.2v1.7c8.15-2.09 17.49-.23 25.89-.56 7.84-.31 16.12.55 23.85-.66l-1.12-.85c0 10.28 2.21 20.37 2.57 30.63.1 2.74 1 5.54-2 6-2.33.38-5.16-.12-7.54-.08-5.65.09-11.3 0-17 .06a76.7 76.7 0 0 0-13.43 1.5c-2.19.4-5.91 1.91-7.2-.3-1.05-1.8-.23-6.54-.3-8.66-.33-9.19.69-19.11-2.1-28-.33-1.05-2.04-.59-1.7.51z" transform="translate(0 -21.14)"/>
            <path d="M158.77 150.18a36 36 0 0 0-5.92-.23.9.9 0 0 0-.88.88 68.86 68.86 0 0 0 .41 12.18.91.91 0 0 0 .88.88c21.29.08 42.31-3.76 63.54-4.67a.9.9 0 0 0 .88-.88c.1-3.55-1-6.82-1.22-10.35a.9.9 0 0 0-.88-.88c-2.32 0-6.27 1.62-8.1.06-.86-.73-2.12.51-1.25 1.25 1.45 1.23 2.76 1.19 4.61 1s2.83-.94 4 .26a24.91 24.91 0 0 1 .67 3.69c.79 4.72-.45 4.1-4.45 4.36-1.93.12-3.85.27-5.77.42-4.5.37-9 .83-13.49 1.29-9 .93-18 1.93-27 2.39q-2.88.15-5.77.22-1.92 0-3.84.05a1.85 1.85 0 0 1-1.42-2.55 15.82 15.82 0 0 1-.14-5.33c.43-3.21 1.29-2.86 4.68-2.37 1.11.16 1.59-1.54.47-1.7z" transform="translate(0 -21.14)"/>
            <path d="M217.8 164.34c-21.11.81-42.43 4.87-63.54 4.67v-6c21.11.2 42.43-3.86 63.54-4.67z" transform="translate(0 -21.14)"/>
            <path d="M112.8 164.34c-21.11.81-42.43 4.87-63.54 4.67v-6c21.11.2 42.43-3.86 63.54-4.67z" transform="translate(0 -21.14)"/>
            <path d="M147.33 79c2.63 10.66 2.22 21.76 2 32.65a.9.9 0 0 0 .88.88c10.22.81 20.34-1.22 30.55-1 5 .09 10 .21 14.92.34 5.43.14 10.81 1.16 16.24.9a.91.91 0 0 0 .88-.88c.76-11.69-2.61-24-4.06-35.53a.91.91 0 0 0-1.12-.85c-10.6 1.56-21.29 1.76-32 2.37-4.91.28-9.81.68-14.74.8-1.43 0-11.66.61-11.9-.12-.36-1.07-2.07-.61-1.7.47l.2.61a.92.92 0 0 0 .85.65c10.08.49 20.05-.28 30.11-.79 9.9-.5 19.79-.85 29.61-2.29l-1.05-.89c1.28 10.21 3.69 20.57 4.14 30.84.16 3.57-.42 4-4 3.79-2.88-.19-5.73-.64-8.61-.8-5.9-.32-11.86-.32-17.77-.43-5.58-.1-11.12.49-16.68.9-2.78.21-5.57.39-8.36.38-3.27 0-4.62.32-4.55-3.35.18-9.75.21-19.62-2.14-29.14a.88.88 0 0 0-1.7.49z" transform="translate(0 -21.14)"/>
            <path d="M155.49 104.2c8.3 0 16.58-.49 24.87-.89s16.71.22 25.07.28a.88.88 0 0 0 0-1.77c-8.36-.06-16.71-.68-25.07-.28s-16.57.85-24.87.89a.88.88 0 0 0 0 1.77z" transform="translate(0 -21.14)"/>
            <path d="M158.67 84.44a93.84 93.84 0 0 0 .9 14.26c.39 3 .07 6.76 1.45 9.53.51 1 2 .12 1.53-.89-1.27-2.55-1-6.94-1.36-9.82a86.89 86.89 0 0 1-.75-13.09.88.88 0 0 0-1.77 0z" transform="translate(0 -21.14)"/>
            <path d="M169.83 85.25c.09 5.58 1 11 1.53 16.58.2 2.22-.11 5.2 1 7.21a.88.88 0 0 0 1.53-.89c-1.32-2.33-.89-7.23-1.2-9.82a124.12 124.12 0 0 1-1.11-13.08.88.88 0 0 0-1.77 0z" transform="translate(0 -21.14)"/>
            <path d="M178.16 85.86c-.16 7.5 2.59 14.63 2.44 22.13a.88.88 0 0 0 1.77 0c.16-7.5-2.6-14.64-2.44-22.13a.88.88 0 0 0-1.77 0z" transform="translate(0 -21.14)"/>
            <path d="M187.93 84c-1.67 8.22 1.37 16.26 2.2 24.39.11 1.12 1.88 1.13 1.77 0-.81-7.91-3.88-15.94-2.26-23.92.23-1.11-1.48-1.59-1.7-.47z" transform="translate(0 -21.14)"/>
            <path d="M198.05 83.83a102 102 0 0 0 2.26 25c.26 1.11 2 .64 1.7-.47a100.09 100.09 0 0 1-2.2-24.53.88.88 0 0 0-1.77 0z" transform="translate(0 -21.14)"/>
            <path d="M29.67 230.38c37.85-1.34 75.72-4.85 113.61-4.2 18.33.31 36.91 2 55.21.41 8.12-.72 16.17-2.09 24.27-2.93s18.91-2.3 26.51.91c1 .43 1.92-1 .89-1.53L250 223c-1-.55-1.89 1-.89 1.53l.13.07.89-1.53c-6-2.55-14-2.07-20.38-1.72-8.8.48-17.49 2-26.24 3-18.7 2.16-37.67.63-56.43.19-39.18-.92-78.33 2.74-117.46 4.12-1.13 0-1.14 1.81 0 1.77z" transform="translate(0 -21.14)"/>
            <path d="M39.92 197.25c1.51 12.32.28 25.07 3.87 37.08a.88.88 0 0 0 1.7-.47C42 222 43.17 209.41 41.68 197.25c-.14-1.11-1.9-1.13-1.77 0z" transform="translate(0 -21.14)"/>
            <path d="M54.92 192.88q1.89 11.79 3.74 23.59c.74 4.73.76 10.62 2.87 15 .49 1 2 .13 1.53-.89-2.25-4.68-2.19-11.39-3-16.42q-1.7-10.88-3.45-21.75c-.18-1.12-1.88-.64-1.7.47z" transform="translate(0 -21.14)"/>
            <path d="M70.65 192.11c1.78 8.07 2.19 16.54 3.16 24.73.44 3.73.86 7.47 1.5 11.17.22 1.26.28 3.73 1.5 4.54 1 .63 1.84-.9.89-1.53-.56-.37-.94-5-1.1-6.17-.62-4.29-1.1-8.61-1.59-12.92-.77-6.73-1.19-13.67-2.66-20.3-.25-1.11-1.95-.64-1.7.47z" transform="translate(0 -21.14)"/>
            <path d="M87.13 194.18c.2 12.57 4 24.7 4.61 37.23.05 1.13 1.82 1.14 1.77 0-.57-12.53-4.41-24.67-4.61-37.23a.88.88 0 0 0-1.77 0z" transform="translate(0 -21.14)"/>
            <path d="M106.7 190.73c.86 13.93 1.9 28.22 5.79 41.69a.88.88 0 0 0 1.7-.47c-3.85-13.33-4.87-27.43-5.73-41.22-.07-1.13-1.84-1.14-1.77 0z" transform="translate(0 -21.14)"/>
            <path d="M124 190c.43 13.85.38 28.84 5 42.07.37 1.07 2.08.61 1.7-.47-4.59-13.1-4.53-27.87-5-41.6 0-1.13-1.8-1.14-1.77 0z" transform="translate(0 -21.14)"/>
            <path d="M145.5 190.58c1.54 9 2.13 18.15 3 27.26.38 4.18-.18 10.63 2.12 14.4.59 1 2.12.08 1.53-.89-1.3-2.13-1.2-5.28-1.39-7.67-.3-3.84-.66-7.69-1-11.53-.62-7.38-1.29-14.74-2.53-22-.19-1.12-1.89-.64-1.7.47z" transform="translate(0 -21.14)"/>
            <path d="M161.24 191.73c1.28 7.56 2.83 15.09 4 22.67.84 5.57.76 12 2.94 17.24.43 1 2.14.58 1.7-.47-2.19-5.33-2.09-11.6-2.94-17.24-1.14-7.59-2.69-15.11-4-22.67-.19-1.12-1.89-.64-1.7.47z" transform="translate(0 -21.14)"/>
            <path d="M187.3 191.11c0 13.34-1.78 28.93 3.58 41.51.44 1 2 .14 1.53-.89-5.19-12.19-3.36-27.68-3.33-40.62a.88.88 0 0 0-1.77 0z" transform="translate(0 -21.14)"/>
            <path d="M204.61 190.19c1.33 8.39 1 16.79 1.44 25.24.14 2.92.59 5.77 1 8.66 0-.1 1.2 7.43 1 7.67l1.48.39-.12-.6c-.23-1.11-1.93-.64-1.7.47l.12.6a.89.89 0 0 0 1.48.39c.71-.83.23-2.54.16-3.52-.32-4.12-1.24-8.17-1.56-12.29-.7-9.19-.11-18.34-1.57-27.49-.18-1.12-1.88-.64-1.7.47z" transform="translate(0 -21.14)"/>
            <path d="M220.73 189.43c3.16 12.84 3.09 26.13 5 39.15.16 1.12 1.87.64 1.7-.47-1.9-13-1.83-26.31-5-39.15-.27-1.1-2-.64-1.7.47z" transform="translate(0 -21.14)"/>
            <path d="M238 189.57c0 6.41 2 12.7 3.48 18.87 1.66 6.83 4.24 15.58.48 22.14a.88.88 0 0 0 1.53.89c3.16-5.51 2.1-12.24.9-18.18-1.58-7.8-4.68-15.68-4.62-23.72a.88.88 0 0 0-1.77 0z" transform="translate(0 -21.14)"/>
            <path d="M25.83 138.26a34.85 34.85 0 0 1 6.29.35c1.11.2 1.59-1.5.47-1.7a37.34 37.34 0 0 0-6.76-.42.88.88 0 0 0 0 1.77z" transform="translate(0 -21.14)"/>
            <path d="M29.67 123.67a46.61 46.61 0 0 1 7.06.35c1.11.17 1.59-1.53.47-1.7a49.56 49.56 0 0 0-7.53-.42.88.88 0 0 0 0 1.77z" transform="translate(0 -21.14)"/>
            <path d="M115.41 128.63a21 21 0 0 0 7-.38c1.12-.19.64-1.89-.47-1.7a18.42 18.42 0 0 1-6.06.38c-1.11-.19-1.59 1.51-.47 1.7z" transform="translate(0 -21.14)"/>
            <path d="M129.46 146.32c2.56 0 5.11-.73 7.68-.38 1.12.15 1.11-1.62 0-1.77-2.57-.34-5.11.33-7.68.38a.88.88 0 0 0 0 1.77z" transform="translate(0 -21.14)"/>
            <path d="M126.78 167.81a46.72 46.72 0 0 0 7.14-.42c1.12-.17.64-1.88-.47-1.7a43.77 43.77 0 0 1-6.67.35.88.88 0 0 0 0 1.77z" transform="translate(0 -21.14)"/>
            <path d="M86.86 174.72h4.61a.88.88 0 0 0 0-1.77h-4.61a.88.88 0 0 0 0 1.77z" transform="translate(0 -21.14)"/>
            <path d="M46.71 177.38a24.61 24.61 0 0 1 2.86.68.91.91 0 0 0 1.21-.32.89.89 0 0 0-.32-1.21 27.32 27.32 0 0 0-3.28-.86c-1.09-.34-1.55 1.37-.47 1.7z" transform="translate(0 -21.14)"/>
            <path d="M28.67 165.48a12.89 12.89 0 0 0 7.59-1.24c1-.49.13-2-.89-1.53a10.73 10.73 0 0 1-6.23 1.06c-1.11-.16-1.59 1.54-.47 1.7z" transform="translate(0 -21.14)"/>
            <path d="M141.6 124.79a12.06 12.06 0 0 1 4.9 0c1.11.25 1.58-1.45.47-1.7a14.29 14.29 0 0 0-5.84 0c-1.12.21-.64 1.91.47 1.7z" transform="translate(0 -21.14)"/>
            <path d="M125.86 90.63a8 8 0 0 1 5.67 0c1.07.39 1.53-1.31.47-1.7a9.52 9.52 0 0 0-6.61 0c-1.06.39-.6 2.1.47 1.7z" transform="translate(0 -21.14)"/>
            <path d="M131.77 72.24a61.47 61.47 0 0 1 8.06-.38.88.88 0 0 0 0-1.77 61.47 61.47 0 0 0-8.06.38c-1.11.15-1.13 1.92 0 1.77z" transform="translate(0 -21.14)"/>
            <path d="M166.69 61.5h5.76a.88.88 0 0 0 0-1.77h-5.76a.88.88 0 0 0 0 1.77z" transform="translate(0 -21.14)"/>
            <path d="M202 68a19.53 19.53 0 0 0 6.76-1.18c1.05-.4.6-2.11-.47-1.7a18.09 18.09 0 0 1-6.29 1.13.88.88 0 0 0 0 1.75z" transform="translate(0 -21.14)"/>
            <path d="M227 68.79a16.3 16.3 0 0 0 5.61-1.18c1-.41.59-2.11-.47-1.7A14.91 14.91 0 0 1 227 67a.88.88 0 0 0 0 1.77z" transform="translate(0 -21.14)"/>
            <path d="M230.56 87.18c2.8.69 5.46.11 8.15-.77 1.08-.35.61-2.06-.47-1.7-2.37.78-4.72 1.38-7.21.77-1.1-.27-1.58 1.43-.47 1.7z" transform="translate(0 -21.14)"/>
            <path d="M230.79 132.5a19.54 19.54 0 0 0 6.76-1.18c1.05-.4.6-2.11-.47-1.7a18.09 18.09 0 0 1-6.29 1.12.88.88 0 0 0 0 1.77z" transform="translate(0 -21.14)"/>
            <path d="M223.11 147.47a51.62 51.62 0 0 0 7.91-1.18c1.12-.2.64-1.9-.47-1.7a48.55 48.55 0 0 1-7.44 1.12.88.88 0 0 0 0 1.77z" transform="translate(0 -21.14)"/>
            <path d="M217.36 175.49a45.5 45.5 0 0 1 7.44 1.12c1.09.33 1.56-1.37.47-1.7-2.56-.79-5.27-.83-7.91-1.18-1.12-.15-1.11 1.62 0 1.77z" transform="translate(0 -21.14)"/>
            <path d="M238.62 162.79a12.16 12.16 0 0 0 5.46 0c1.11-.25.64-2-.47-1.7a10.1 10.1 0 0 1-4.52 0c-1.11-.25-1.58 1.45-.47 1.7z" transform="translate(0 -21.14)"/>
            <path d="M30.39 63.68c3.52-.3 7.12 0 10.54-1a.88.88 0 0 0-.47-1.7c-3.26 1-6.72.68-10.07 1-1.12.1-1.13 1.87 0 1.77z" transform="translate(0 -21.14)"/>
            <path d="M75.18 66.64a50.19 50.19 0 0 1 7-1.66c1.12-.19.64-1.89-.47-1.7a50.19 50.19 0 0 0-7 1.66c-1.08.35-.62 2.06.47 1.7z" transform="translate(0 -21.14)"/>
            <path d="M109.2 68.67a27.6 27.6 0 0 1 5.09.3c1.11.21 1.59-1.49.47-1.7a30.08 30.08 0 0 0-5.56-.36.88.88 0 0 0 0 1.77z" transform="translate(0 -21.14)"/>
            <path d="M29.16 89.25a40.62 40.62 0 0 0 6.22.36.88.88 0 0 0 0-1.77 37.67 37.67 0 0 1-5.75-.3c-1.11-.17-1.59 1.53-.47 1.7z" transform="translate(0 -21.14)"/>
            <path d="M123.83 277.5c3.33 0 6.65-.31 10-.33a.88.88 0 0 0 0-1.77c-3.33 0-6.65.31-10 .33a.88.88 0 0 0 0 1.77z" transform="translate(0 -21.14)"/>
            <path d="M132.15 258.21h7.65a.88.88 0 0 0 0-1.77h-7.65a.88.88 0 0 0 0 1.77z" transform="translate(0 -21.14)"/>
            <path d="M170.72 275.83h6.65a.88.88 0 0 0 0-1.77h-6.65a.88.88 0 0 0 0 1.77z" transform="translate(0 -21.14)"/>
            <path d="M250.86 273.84c2.66 0 5.32-.31 8-.33a.88.88 0 0 0 0-1.77c-2.66 0-5.32.31-8 .33a.88.88 0 0 0 0 1.77z" transform="translate(0 -21.14)"/>
            <path d="M252 295.09a45.34 45.34 0 0 0 6.89.36.88.88 0 0 0 0-1.77 42.4 42.4 0 0 1-6.42-.3c-1.11-.17-1.59 1.53-.47 1.7z" transform="translate(0 -21.14)"/>
            <path d="M249.53 317.07a49.86 49.86 0 0 0 6.65-.33c1.11-.15 1.13-1.92 0-1.77a49.86 49.86 0 0 1-6.65.33.88.88 0 0 0 0 1.77z" transform="translate(0 -21.14)"/>
            <path d="M261.6 254.85a44.41 44.41 0 0 1 6.32 1.33c1.09.35 1.55-1.36.47-1.7a44.41 44.41 0 0 0-6.32-1.33c-1.11-.18-1.59 1.52-.47 1.7z" transform="translate(0 -21.14)"/>
            <path d="M246.2 248.23h6a.88.88 0 0 0 0-1.77h-6a.88.88 0 0 0 0 1.77z" transform="translate(0 -21.14)"/>
            <path d="M170.82 308.39a20.89 20.89 0 0 0 6.46.33c1.12-.16.64-1.86-.47-1.7a18.11 18.11 0 0 1-5.52-.33c-1.11-.18-1.59 1.52-.47 1.7z" transform="translate(0 -21.14)"/>
            <path d="M137.56 319.37a11.4 11.4 0 0 0 4.79 0c1.12-.21.64-1.91-.47-1.7a9.18 9.18 0 0 1-3.85 0c-1.11-.26-1.58 1.45-.47 1.7z" transform="translate(0 -21.14)"/>
            <path d="M108.77 302.74l5-1c1.11-.22.64-1.93-.47-1.7l-5 1c-1.11.22-.64 1.93.47 1.7z" transform="translate(0 -21.14)"/>
            <path d="M92.57 324.72h4a.88.88 0 0 0 0-1.77h-4a.88.88 0 0 0 0 1.77z" transform="translate(0 -21.14)"/>
            <path d="M62.31 305.76a26.18 26.18 0 0 0 4.89-.36c1.12-.21.64-1.91-.47-1.7a23.71 23.71 0 0 1-4.42.3.88.88 0 0 0 0 1.77z" transform="translate(0 -21.14)"/>
            <path d="M47.35 323.72a12.12 12.12 0 0 0 3.56-.36c1.08-.33.62-2-.47-1.7a10.45 10.45 0 0 1-3.09.3.88.88 0 0 0 0 1.77z" transform="translate(0 -21.14)"/>
            <path d="M34.38 286.48a32.52 32.52 0 0 0 5.89-.36c1.12-.2.64-1.91-.47-1.7a30 30 0 0 1-5.42.3.88.88 0 0 0 0 1.77z" transform="translate(0 -21.14)"/>
            <path d="M29.82 265.16a18.2 18.2 0 0 0 4.23 0 .88.88 0 0 0 0-1.77 16.51 16.51 0 0 1-3.76 0c-1.11-.24-1.58 1.47-.47 1.7z" transform="translate(0 -21.14)"/>
            <path d="M47.78 276.14a6.3 6.3 0 0 0 4.67-.42.88.88 0 0 0-.89-1.53 4.5 4.5 0 0 1-3.31.24c-1.11-.26-1.58 1.45-.47 1.7z" transform="translate(0 -21.14)"/>
            <path d="M44 255.55a65.83 65.83 0 0 0 7.65-.66c1.11-.14 1.13-1.91 0-1.77a65.83 65.83 0 0 1-7.65.66.88.88 0 0 0 0 1.77z" transform="translate(0 -21.14)"/>
            <path d="M227.69 287.21c-4.63-2.74-8 6.34-2.37 7.31 4.33.75 6.68-6.5 1.81-7.23l.21 1.61.34-.17c1-.51.12-2-.89-1.53l-.34.17a.89.89 0 0 0 .21 1.61c1.09.16 1.69.77 1.41 1.9a2.42 2.42 0 0 1-2.15 1.91c-3.33 0-1.57-5.52.87-4.08a.88.88 0 0 0 .9-1.5z" transform="translate(0 -21.14)"/>
            <path d="M24.4 292.66c11.17-1.91 22.41-1.48 33.69-1.94 10.83-.44 21.64-.11 32.47-.48 20.43-.69 40.8-2.5 61.22-2.92a.88.88 0 0 0 0-1.77c-21.07.43-42.09 2.4-63.17 3-10.81.3-21.59.09-32.4.5s-21.56.09-32.28 1.93c-1.12.19-.64 1.89.47 1.7z" transform="translate(0 -21.14)"/>
            <path d="M127.7 294.17q1.75 18.59 3.14 37.21c.08 1.13 1.85 1.14 1.77 0q-1.4-18.62-3.14-37.21c-.11-1.12-1.87-1.13-1.77 0z" transform="translate(0 -21.14)"/>
            <path d="M95.72 298.68c1.77 2.81 1.48 6.18 1.88 9.35.51 4 1.21 8 1.87 12 .29 1.76.6 3.51.87 5.27.21 1.37 1.37 5.72.37 7.06-.68.91.85 1.8 1.53.89 2-2.64-.38-9.61-.87-12.54-.77-4.65-1.64-9.33-2.15-14-.34-3.11-.24-6.2-2-8.94-.61-1-2.13-.07-1.53.89z" transform="translate(0 -21.14)"/>
            <path d="M74.64 298.23c1.59 12 3.22 24.05 4.06 36.16.08 1.13 1.85 1.14 1.77 0-.84-12.11-2.47-24.13-4.06-36.16-.15-1.11-1.92-1.13-1.77 0z" transform="translate(0 -21.14)"/>
            <path d="M51.06 300.2c.54 5.74 1.2 11.48 1.66 17.23.44 5.54 1.37 12.14.47 17.65-.18 1.11 1.52 1.59 1.7.47.84-5.14.09-11.13-.27-16.31-.45-6.36-1.2-12.69-1.79-19-.1-1.12-1.87-1.13-1.77 0z" transform="translate(0 -21.14)"/>
            <path d="M32.22 300.3a126.11 126.11 0 0 1 6.26 36.7.88.88 0 0 0 1.77 0 127.8 127.8 0 0 0-6.32-37.18c-.35-1.08-2.06-.61-1.7.47z" transform="translate(0 -21.14)"/>
            <path d="M268.46 240.56v-8c-40 5.8-82.62 4.06-122.67 4.06-26.35 0-52.17 1.58-78 2.11-3.06.11-6.39.23-9.85.37h-1c-12.36.54-26.33 1.56-36.79 4.77v8c10.5-3.23 24.54-4.24 36.93-4.78a319.31 319.31 0 0 0 3.42 36.33h7a319.17 319.17 0 0 1-3.43-36.6l3.75-.14c25.82-.53 51.64-2.11 78-2.11 11.59 0 23.4.14 35.29.21-2.61 15.76 1.07 33.68 2.65 49.43 1.05 10.34-1.7 34.19 3 43.44h7c-4.74-9.25-2-33.11-3-43.44-1.58-15.74-5.25-33.65-2.65-49.4 26.89.1 54.16-.46 80.35-4.25z" transform="translate(0 -21.14)"/>
            <path d="M132.61 120.84c-.05-.16-29.74-44.52-29.74-44.52.61 4.87 1.22 9.74 2 14.82.81 6.29 2.64 14.21 2 20.71-4.47.41-8.93-.61-13.4-.81-5.68-.2-11.37-.2-16.85-.41-10.35-.41-21.11 2-31.47 1-.16 0 3 1.83 6.59 3.87 1.63 6 1.14 13.52 1.32 19.46.2 5.68.41 11.37.61 17.26h6c-.2-5.89-.41-11.57-.61-17.26-.15-4.74.13-10.44-.57-15.62l2.63 1.49z" transform="translate(0 -21.14)"/>
            <path d="M237.61 120.84c-.05-.16-29.74-44.52-29.74-44.52.61 4.87 1.22 9.74 2 14.82.81 6.29 2.64 14.21 2 20.71-4.47.41-8.93-.61-13.4-.81-5.68-.2-11.37-.2-16.85-.41-10.35-.41-21.11 2-31.47 1-.16 0 3 1.83 6.59 3.87 1.63 6 1.14 13.52 1.32 19.46.2 5.68.41 11.37.61 17.26h6c-.2-5.89-.41-11.57-.61-17.26-.15-4.74.13-10.44-.57-15.62l2.63 1.49z" transform="translate(0 -21.14)"/>
            <path d="M90.5 57c15.23-.59 30.45-1.64 45.66-2.71q27.69-2 55.36-4.23l49-4 7.26-.59c1.75-.14 2.41.09 2.84-1.89l-1-4c-.43 2-.1-.25-1.85-.11l-7.26.59-49 4q-27.67 2.22-55.36 4.23C121 49.38 105.74 50.43 90.5 51c-15.68 0-71.68-3.14-81.27 0l2.37 5.82c9.59-3.12 63.22.18 78.9.18z" transform="translate(0 -21.14)"/>
        </g>
    </g>
</svg>
