<svg xmlns="http://www.w3.org/2000/svg" viewBox="0 0 315.68 212.13">
    <defs>
        <style>
            .cls-1{fill:#fff}
        </style>
    </defs>
    <title>
        house_Asset 22
    </title>
    <g id="Layer_2" data-name="Layer 2">
        <g id="Layer_1-2" data-name="Layer 1">
            <path class="cls-1" d="M305.16 114.4c4.51 18.93 5 41 5.86 60.41 0 6.76.9 19.84-2.25 25.7l-.65.24c-13.18-.44-21.78.63-35 .89L203.23 203c-10.59.21-21.21.43-31.67 2.1-14.38 2.3-28.61 7.35-43.1 6-6.78-.65-13.34-2.71-20.08-3.68-7.07-1-14.25-.82-21.39-.62-22.87.63-52.73 1.25-75.6 1.88l-.62-.15c-3.61-6.76-3.61-27-4.06-37-.9-16.23 3.16-31.56 2.7-47.34 6.55-2 15.48 1.52 20.44.62 1.8 0 2.7-3.61 5-4.06 1.35 0 2.7 4.06 4.51 4.06 4.06 0 5.86-4.51 9.47-5.86 3.61-.9 5.86.9 9.47 1.35 5.86.45 11.72 1.35 17.58 1.8 3.16 0 6.31-1.35 9.47-.9 6.31.45 5.41 3.16 9.92 5.41 6.76 2.71 7.66-5.41 14-4.51 1.8.45 3.16 5 5.86 5.86 4.51.45 8.12-5.86 12.17-5.86 2.71 0 3.61 3.16 6.31 3.16 3.16 0 5.41-3.61 8.57-4.06s5 1.35 7.66.9c2.71 0 5.86-2.25 9-1.8 2.25.45 3.61 3.16 6.31 3.61s5.41-2.25 8.57-2.25c1.8 0 3.61.9 5.86.9s5.41-.9 8.12-.9c.9 0 1.8-1.35 3.15-1.35.9 0 1.8 2.25 2.71 2.25.45 0 2.7.9 3.61.9 3.16 0 5.41-4.06 9-3.61 4.06 0 5.86 3.61 9.92 3.16 2.71 0 3.16-3.16 5.41-3.16 2.25-.45 5.41 2.25 8.57 2.25 2.71-.45 5-2.71 7.66-2.71 3.61-.45 7.21 1.8 11.72 1.8 6.76-.9 13.53-2.71 20.74-3.16 3.61 0 6.76 2.71 9.92 2.71 3.61-.45 5-3.16 8.11-3.61 1.35 0 4.51 2.25 6.31 1.8 3.16 0 5.41-3.16 9-3.16 4.47-.39-3.92 1.42 1.63-1.37z"/>
            <path class="cls-1" d="M74.41 8.91C53.67 23.34 34.29 49.49 23.47 72.48 16.25 88.26-.43 108.54.93 127c5.86-.45 9.47-6.31 15.33-6.76 5.41-.9 7.21 2.7 12.17 1.8 1.8 0 2.7-3.61 5-4.06 1.35 0 2.7 4.06 4.51 4.06 4.06 0 5.86-4.51 9.47-5.86 3.61-.9 5.86.9 9.47 1.35 5.86.45 11.72 1.35 17.58 1.8 3.16 0 6.31-1.35 9.47-.9 6.31.45 5.41 3.16 9.92 5.41 6.76 2.71 7.66-5.41 14-4.51 1.8.45 3.16 5 5.86 5.86 4.51.45 8.12-5.86 12.17-5.86 2.71 0 3.61 3.16 6.31 3.16 3.16 0 5.41-3.61 8.57-4.06s5 1.35 7.66.9c2.71 0 5.86-2.25 9-1.8 2.25.45 3.61 3.16 6.31 3.61s5.41-2.25 8.57-2.25c1.8 0 3.61.9 5.86.9s5.41-.9 8.12-.9c.9 0 1.8-1.35 3.15-1.35.9 0 1.8 2.25 2.71 2.25.45 0 2.7.9 3.61.9 3.16 0 5.41-4.06 9-3.61 4.06 0 5.86 3.61 9.92 3.16 2.71 0 3.16-3.16 5.41-3.16 2.25-.45 5.41 2.25 8.57 2.25 2.71-.45 5-2.71 7.66-2.71 3.61-.45 7.21 1.8 11.72 1.8 6.76-.9 13.53-2.71 20.74-3.16 3.61 0 6.76 2.71 9.92 2.71 3.61-.45 5-3.16 8.11-3.61 1.35 0 4.51 2.25 6.31 1.8 3.16 0 5.41-3.16 9-3.16 4.51-.45 7.66 2.7 12.62.9 1.35-8.11-5-15.33-8.56-22.09-4.51-9-7.21-18.48-12.17-27-10-16.22-19.88-32.9-31.6-47.81-11.27-13.95-32.46-13.5-48.24-14.4C188.92 1.25 163.67.8 138 1.25a329.81 329.81 0 0 0-42 4.06c-5 .9-21.64.9-23 4.51z"/>
            <path d="M74 8.15C53.88 22.36 38 43 26.5 64.5q-8.33 15.55-16.78 31C4.42 105.18-.51 115.73 0 127a.9.9 0 0 0 1.12.85c6.55-1 10.83-7.47 17.77-6.74 3.7.39 8 3.68 11.49.83 1.2-1 1.16-2.42 2.95-2.12 1.44.24 1.18.93 2.12 1.65 1.39 1.06 1.77 1.63 3.67 1.32a9.21 9.21 0 0 0 4.26-2.54c2-1.7 2.8-2.76 5.58-3 2.44-.21 3.82.38 6.12.88 3.72.81 7.69.88 11.47 1.31s7.42.93 11.2.42c4.38-.59 8.07-1.14 11.69 1.81 1.53 1.25 2.71 2.6 4.67 3.22 4.32 1.37 6.07-1.67 9.38-3.6 5.92-3.46 6 5.21 11.32 4.75 2.08-.18 3.87-1.66 5.47-2.85a13.33 13.33 0 0 1 2.94-2.12c3.12-1.08 4.14.37 6.44 1.55a5.05 5.05 0 0 0 4.34.38c3.76-1.26 5.21-3.87 9.81-3.4 2.22.23 3.81.9 6.13.44 2.86-.56 4-1.5 7.12-.72 2.44.61 2.93 1.34 4.89 2.2a6.25 6.25 0 0 0 4.85 0c1.8-.57 3.47-1.7 5.41-1.75 1.67 0 3.37.71 5.05.83 3 .21 6.21-.45 9.16-.86 1.52-.21 2.49-.63 4-.07.38.14 1 .75 1.4 1 4.93 2.47 7-1.42 11.46-2.37 4.64-1 8.94 5 13.62 2.1 1.49-.92 1.18-1.37 3.25-1.81 2.4-.51 3.26.4 5.5 1.1s3.72.4 6-.46c2.51-1 4.52-1.91 7.24-1.54 2.18.3 4.26 1.07 6.44 1.41 3.29.5 6.44-.31 9.69-.9 4.81-.87 10.24-2.56 15.1-1.75 2.94.49 5.72 2.68 8.77 2.42 4.26-.36 5.82-4.4 10.42-2.62a8 8 0 0 0 5.7.51c3.94-1.15 6.56-3.39 11-2.41 3.2.71 5.66 1.35 8.92.47a.92.92 0 0 0 .65-.85c1.08-9.81-6.39-17.36-10.21-25.74-4.69-10.31-8.56-20.43-14.49-30.15-6.43-10.54-12.9-21.07-20-31.16-5.33-7.54-10.41-15-19-19.1-7.29-3.48-15.44-4.66-23.42-5.3-10.24-.83-20.55-1.17-30.81-1.52-25.24-1-50.81-1.71-76 .35-10.78.88-21.41 2.9-32.16 3.78-4.27.35-14.68-.22-17.18 4.28-.41.73.44 1.72 1.21 1.21l1.35-.9c.94-.63.06-2.16-.89-1.53l-1.35.9 1.21 1.21c1.57-2.83 9-2.81 11.69-3.07 3.59-.34 7.2-.52 10.78-1a364.71 364.71 0 0 1 41.69-4c27.5-.76 55 .32 82.49 1.67 10.67.52 22 1.09 31.71 6.12 11.5 6 18.61 19.61 25.42 30.16 7.17 11.1 15 22.36 20.19 34.53 2.53 5.88 4.6 12 7.59 17.7 2.76 5.25 6.89 10.05 8.22 16 .55 2.47 1.39 4.81-2 5.37-1.36.23-3.14-.49-4.48-.82a14.44 14.44 0 0 0-6.36-.5 16.88 16.88 0 0 0-3.83 1.56c-2 .9-3.57 1.76-5.8 1.22-.8-.19-2.35-1.24-3.36-1.37a5.92 5.92 0 0 0-3.85.76c-3.26 1.63-5 2.82-9.17 1.62-2.08-.6-3.85-1.57-6.06-1.67-3.47-.16-7.38.84-10.77 1.44-2.81.5-5.66 1.27-8.51 1.5-3.84.31-6.63-.95-10.22-1.47a11.87 11.87 0 0 0-5.78.51c-3.59 1.24-6.11 1.87-9.85.55-3.32-1.17-4-.51-6.72 1.11-5.31 3.15-8.28-2.67-13.55-1.8a12.14 12.14 0 0 0-4.2 2c-3 1.8-4.86 1.69-7.76-.24-.88-.58-.88-1.07-2-1.39-1.71-.49-4.87 1.37-6.77 1.7-5.23.92-9.67-1.12-14.66.8-3.92 1.51-5.91-.55-9.08-2-1.91-.87-3.69-.52-5.65 0a19.31 19.31 0 0 1-9.51.54 8.79 8.79 0 0 0-4.4.17c-2 .66-3.37 2.43-5.32 3.14-3.45 1.25-4.11-1.53-6.88-2.37-2.94-.89-5.48 1.41-7.66 3a12.35 12.35 0 0 1-3 2c-3.88 1.25-4.23-.89-6-3a5.64 5.64 0 0 0-2.46-2.22c-3-1-5.6 1.59-7.68 3.16-6.07 4.57-8.25-2-13.41-3.61a17 17 0 0 0-6.43-.42 55.91 55.91 0 0 1-11.94.27c-4.46-.49-9.28-.6-13.63-1.65-2.09-.5-4.12-1.39-6.32-1.14a8.51 8.51 0 0 0-4.73 2.32c-1 .85-2.07 2.29-3.27 2.85-2.87 1.34-3.55-.34-5.28-1.93-2.21-2-3-.82-5 1-3 2.66-5.08 1.67-8.61.57a12.19 12.19 0 0 0-5.66-.51c-5.8.77-9.56 5.91-15.33 6.76l1.12.85C1.22 115 7 103.83 12.79 93.62 18.06 84.28 23 74.84 28 65.39 39.42 44.11 55 23.71 74.85 9.68c.93-.68.04-2.19-.85-1.53z"/>
            <path d="M74 8.15C53.88 22.36 38 43 26.5 64.5q-8.33 15.55-16.78 31C4.42 105.18-.51 115.73 0 127a.9.9 0 0 0 1.12.85c6.55-1 10.83-7.47 17.77-6.74 3.7.39 8 3.68 11.49.83 1.2-1 1.16-2.42 2.95-2.12 1.44.24 1.18.93 2.12 1.65 1.39 1.06 1.77 1.63 3.67 1.32a9.21 9.21 0 0 0 4.26-2.54c2-1.7 2.8-2.76 5.58-3 2.44-.21 3.82.38 6.12.88 3.72.81 7.69.88 11.47 1.31s7.42.93 11.2.42c4.38-.59 8.07-1.14 11.69 1.81 1.53 1.25 2.71 2.6 4.67 3.22 4.32 1.37 6.07-1.67 9.38-3.6 5.92-3.46 6 5.21 11.32 4.75 2.08-.18 3.87-1.66 5.47-2.85a13.33 13.33 0 0 1 2.94-2.12c3.12-1.08 4.14.37 6.44 1.55a5.05 5.05 0 0 0 4.34.38c3.76-1.26 5.21-3.87 9.81-3.4 2.22.23 3.81.9 6.13.44 2.86-.56 4-1.5 7.12-.72 2.44.61 2.93 1.34 4.89 2.2a6.25 6.25 0 0 0 4.85 0c1.8-.57 3.47-1.7 5.41-1.75 1.67 0 3.37.71 5.05.83 3 .21 6.21-.45 9.16-.86 1.52-.21 2.49-.63 4-.07.38.14 1 .75 1.4 1 4.93 2.47 7-1.42 11.46-2.37 4.64-1 8.94 5 13.62 2.1 1.49-.92 1.18-1.37 3.25-1.81 2.4-.51 3.26.4 5.5 1.1s3.72.4 6-.46c2.51-1 4.52-1.91 7.24-1.54 2.18.3 4.26 1.07 6.44 1.41 3.29.5 6.44-.31 9.69-.9 4.81-.87 10.24-2.56 15.1-1.75 2.94.49 5.72 2.68 8.77 2.42 4.26-.36 5.82-4.4 10.42-2.62a8 8 0 0 0 5.7.51c3.94-1.15 6.56-3.39 11-2.41 3.2.71 5.66 1.35 8.92.47a.92.92 0 0 0 .65-.85c1.08-9.81-6.39-17.36-10.21-25.74-4.69-10.31-8.56-20.43-14.49-30.15-6.43-10.54-12.9-21.07-20-31.16-5.33-7.54-10.41-15-19-19.1-7.29-3.48-15.44-4.66-23.42-5.3-10.24-.83-20.55-1.17-30.81-1.52-25.24-1-50.81-1.71-76 .35-10.78.88-21.41 2.9-32.16 3.78-4.27.35-14.68-.22-17.18 4.28-.41.73.44 1.72 1.21 1.21l1.35-.9c.94-.63.06-2.16-.89-1.53l-1.35.9 1.21 1.21c1.57-2.83 9-2.81 11.69-3.07 3.59-.34 7.2-.52 10.78-1a364.71 364.71 0 0 1 41.69-4c27.5-.76 55 .32 82.49 1.67 10.67.52 22 1.09 31.71 6.12 11.5 6 18.61 19.61 25.42 30.16 7.17 11.1 15 22.36 20.19 34.53 2.53 5.88 4.6 12 7.59 17.7 2.76 5.25 6.89 10.05 8.22 16 .55 2.47 1.39 4.81-2 5.37-1.36.23-3.14-.49-4.48-.82a14.44 14.44 0 0 0-6.36-.5 16.88 16.88 0 0 0-3.83 1.56c-2 .9-3.57 1.76-5.8 1.22-.8-.19-2.35-1.24-3.36-1.37a5.92 5.92 0 0 0-3.85.76c-3.26 1.63-5 2.82-9.17 1.62-2.08-.6-3.85-1.57-6.06-1.67-3.47-.16-7.38.84-10.77 1.44-2.81.5-5.66 1.27-8.51 1.5-3.84.31-6.63-.95-10.22-1.47a11.87 11.87 0 0 0-5.78.51c-3.59 1.24-6.11 1.87-9.85.55-3.32-1.17-4-.51-6.72 1.11-5.31 3.15-8.28-2.67-13.55-1.8a12.14 12.14 0 0 0-4.2 2c-3 1.8-4.86 1.69-7.76-.24-.88-.58-.88-1.07-2-1.39-1.71-.49-4.87 1.37-6.77 1.7-5.23.92-9.67-1.12-14.66.8-3.92 1.51-5.91-.55-9.08-2-1.91-.87-3.69-.52-5.65 0a19.31 19.31 0 0 1-9.51.54 8.79 8.79 0 0 0-4.4.17c-2 .66-3.37 2.43-5.32 3.14-3.45 1.25-4.11-1.53-6.88-2.37-2.94-.89-5.48 1.41-7.66 3a12.35 12.35 0 0 1-3 2c-3.88 1.25-4.23-.89-6-3a5.64 5.64 0 0 0-2.46-2.22c-3-1-5.6 1.59-7.68 3.16-6.07 4.57-8.25-2-13.41-3.61a17 17 0 0 0-6.43-.42 55.91 55.91 0 0 1-11.94.27c-4.46-.49-9.28-.6-13.63-1.65-2.09-.5-4.12-1.39-6.32-1.14a8.51 8.51 0 0 0-4.73 2.32c-1 .85-2.07 2.29-3.27 2.85-2.87 1.34-3.55-.34-5.28-1.93-2.21-2-3-.82-5 1-3 2.66-5.08 1.67-8.61.57a12.19 12.19 0 0 0-5.66-.51c-5.8.77-9.56 5.91-15.33 6.76l1.12.85C1.22 115 7 103.83 12.79 93.62 18.06 84.28 23 74.84 28 65.39 39.42 44.11 55 23.71 74.85 9.68c.93-.68.04-2.19-.85-1.53z"/>
            <path d="M8.47 123.42c5.41-.9 2.15-5.12 20.15-1 1.76.4 2.7-3.61 5-4.06 1.35 0 2.7 4.06 4.51 4.06 4.06 0 5.86-4.51 9.47-5.86 3.61-.9 5.86.9 9.47 1.35 5.86.45 11.72 1.35 17.58 1.8 3.16 0 6.31-1.35 9.47-.9 6.31.45 5.41 3.16 9.92 5.41 6.76 2.71 7.66-5.41 14-4.51 1.8.45 3.16 5 5.86 5.86 4.51.45 8.12-5.86 12.17-5.86 2.71 0 3.61 3.16 6.31 3.16 3.16 0 5.41-3.61 8.57-4.06s5 1.35 7.66.9c2.71 0 5.86-2.25 9-1.8 2.25.45 3.61 3.16 6.31 3.61s5.41-2.25 8.57-2.25c1.8 0 3.61.9 5.86.9s5.41-.9 8.12-.9c.9 0 1.8-1.35 3.15-1.35.9 0 1.8 2.25 2.71 2.25.45 0 2.7.9 3.61.9 3.16 0 5.41-4.06 9-3.61 4.06 0 5.86 3.61 9.92 3.16 2.71 0 3.16-3.16 5.41-3.16 2.25-.45 5.41 2.25 8.57 2.25 2.7-.45 5-2.71 7.66-2.71 3.61-.45 7.21 1.8 11.72 1.8 6.76-.9 13.53-2.7 20.74-3.16 3.61 0 6.76 2.71 9.92 2.71 3.61-.45 5-3.16 8.11-3.61 1.35 0 4.51 2.25 6.31 1.8 3.16 0 5.41-3.16 11.08-3.16l1.23 5.95c-5.67 0-9.15 3.21-12.31 3.21-1.8.45-5-1.8-6.31-1.8-3.16.45-4.51 3.16-8.11 3.61-3.16 0-6.31-2.71-9.92-2.71-7.21.45-14 2.25-20.74 3.16-4.51 0-8.12-2.25-11.72-1.8-2.7 0-5 2.25-7.66 2.71-3.16 0-6.31-2.71-8.57-2.25-2.25 0-2.71 3.16-5.41 3.16-4.06.45-5.86-3.16-9.92-3.16-3.61-.45-5.86 3.61-9 3.61-.9 0-3.16-.9-3.61-.9-.9 0-1.8-2.25-2.71-2.25-1.35 0-2.25 1.35-3.15 1.35-2.71 0-5.86.9-8.12.9s-4.06-.9-5.86-.9c-3.16 0-5.86 2.7-8.57 2.25s-4.06-3.16-6.31-3.61c-3.16-.45-6.31 1.8-9 1.8-2.71.45-4.51-1.35-7.66-.9s-5.41 4.06-8.57 4.06c-2.7 0-3.61-3.16-6.31-3.16-4.06 0-7.66 6.31-12.17 5.86-2.7-.9-4.06-5.41-5.86-5.86-6.31-.9-7.21 7.21-14 4.51-4.51-2.25-3.61-5-9.92-5.41-3.16-.45-6.31.9-9.47.9-5.86-.45-11.72-1.35-17.58-1.8-3.61-.45-5.86-2.25-9.47-1.35-3.61 1.35-5.41 5.86-9.47 5.86-1.8 0-3.16-4.06-4.51-4.06-2.25.45-3.38 4.93-5 4.06-13.29-7.35-14.74.11-20.15 1z"/>
            <path d="M74.84 207c.48-16-6.21-31.06-6.2-47 0-7.18 1-15.5 7.75-19.5 5.13-3.02 11.61-3.5 17.44-3.5 5 0 10 .44 15.06.75 6.83.42 14.74.16 17.16 7.91 1.8 5.74 1.44 12.17 2 18.11.49 5.63.61 11.28.65 16.93.06 9.53.69 20.69-.56 29.72-.15 1.11 1.55 1.59 1.7.47 1.29-9.36.66-19.45.63-28.87 0-6.76-.29-13.48-.85-20.22-.51-6.09 0-12.95-2.57-18.66-2.19-4.89-6.93-6.22-11.9-6.76-6-.66-12.29-1-18.37-1.12-9.9-.22-23.64.62-27.8 11.45-7.46 19.29 4.68 40.68 4.09 60.29 0 1.14 1.73 1.14 1.77 0z"/>
            <path d="M74.76 207c.9-18.93-10.37-40.12-4.51-59.06 4.06-14 25.25-12.17 37.42-11.27 4.51.45 13.53 0 17.13 3.61 0 0-44.43-4.11-48 7s4.43 51.85 3.07 59.75z"/>
            <path d="M117.68 170.45c-3.1-1.91-6.36 2.77-6.64 5.36s1.52 6.46 4.42 6.66c4.45.31 6.31-7.16 5.63-10.43-.57-2.73-2.87-3.72-5.44-3a.88.88 0 0 0 .47 1.7c5-1.33 3.26 6 1.76 8.29-.9 1.39-2.23 2.37-3.59.95a4.94 4.94 0 0 1-1.23-5.09c.4-1.05 2.29-3.77 3.73-2.88 1 .6 1.86-.93.89-1.53z"/>
            <path d="M19 134.24c-.94 11.1-2.17 22.2-1.8 33.36 0 1.13 1.8 1.14 1.77 0-.36-11.16.86-22.26 1.8-33.36.1-1.13-1.67-1.13-1.77 0z"/>
            <path d="M26.19 157.23a80.27 80.27 0 0 0 .93 24.58c.23 1.11 1.93.64 1.7-.47a78.69 78.69 0 0 1-.82-24.11c.12-1.13-1.65-1.12-1.77 0z"/>
            <path d="M34.34 176.85c1.18 4.32 1 8.89 2.7 13.07.42 1 2.13.59 1.7-.47-1.69-4.18-1.53-8.76-2.7-13.07a.88.88 0 0 0-1.7.47z"/>
            <path d="M16.75 180c.89 3.16 1.69 6.35 2.71 9.47.35 1.08 2.06.62 1.7-.47-1-3.12-1.81-6.31-2.71-9.47a.88.88 0 0 0-1.7.47z"/>
            <path d="M37.91 145.51c-.45 4.5-.87 9-.9 13.52a.88.88 0 0 0 1.77 0c0-4.53.45-9 .9-13.52.11-1.13-1.65-1.12-1.77 0z"/>
            <path d="M28 136.49v8.57a.88.88 0 0 0 1.77 0v-8.57a.88.88 0 0 0-1.77 0z"/>
            <path d="M48.28 131.09a216.61 216.61 0 0 1-.9 23.44c-.12 1.13 1.64 1.12 1.77 0a216.61 216.61 0 0 0 .9-23.44.88.88 0 0 0-1.77 0z"/>
            <path d="M52.79 166.25v16.68a.88.88 0 0 0 1.77 0v-16.68a.88.88 0 0 0-1.77 0z"/>
            <path d="M42.87 165.35a79.55 79.55 0 0 0 .45 10.37c.15 1.11 1.91 1.13 1.77 0a79.55 79.55 0 0 1-.45-10.37.88.88 0 0 0-1.77 0z"/>
            <path d="M49.66 193.53a11.37 11.37 0 0 0 2.48 5.35c.78.83 2-.42 1.25-1.25a9.69 9.69 0 0 1-2-4.57.88.88 0 0 0-1.7.47z"/>
            <path d="M64.54 179.56a79.73 79.73 0 0 1 1.8 9.92c.16 1.12 1.86.64 1.7-.47a79.73 79.73 0 0 0-1.8-9.92.88.88 0 0 0-1.7.47z"/>
            <path d="M57.3 148.67c-.46 3.72-.79 7.36 0 11.05.25 1.11 2 .64 1.7-.47-.78-3.53-.41-7 0-10.58.14-1.13-1.63-1.12-1.77 0z"/>
            <path d="M65.41 130.18a94.43 94.43 0 0 1-.9 10.82c-.14 1.13 1.63 1.12 1.77 0a94.43 94.43 0 0 0 .9-10.82.88.88 0 0 0-1.77 0z"/>
            <path d="M136.67 133.57a132 132 0 0 1 5 18.48c.24 1.11 1.94.64 1.7-.47a132 132 0 0 0-5-18.48c-.39-1.06-2.1-.6-1.7.47z"/>
            <path d="M152.42 156.33c.46 5.1.87 10.2.9 15.33a.88.88 0 0 0 1.77 0c0-5.12-.44-10.23-.9-15.33-.1-1.12-1.87-1.13-1.77 0z"/>
            <path d="M141.6 164.45c.41 4.8.46 9.63.9 14.43.1 1.12 1.87 1.13 1.77 0-.44-4.8-.5-9.62-.9-14.43-.09-1.12-1.86-1.13-1.77 0z"/>
            <path d="M139.8 190.14v9.47a.88.88 0 0 0 1.77 0v-9.47a.88.88 0 0 0-1.77 0z"/>
            <path d="M154.22 188.79v8.57a.88.88 0 0 0 1.77 0v-8.57a.88.88 0 0 0-1.77 0z"/>
            <path d="M168.2 166.25v7.21a.88.88 0 0 0 1.77 0v-7.21a.88.88 0 0 0-1.77 0z"/>
            <path d="M157 139c.92 4.84 2.24 9.59 3.16 14.43.21 1.12 1.91.64 1.7-.47-.92-4.84-2.24-9.59-3.16-14.43-.21-1.12-1.91-.64-1.7.47z"/>
            <path d="M170.48 130.87c1.36 5.06 3.91 9.73 5 14.88.23 1.11 1.93.64 1.7-.47-1.05-5.15-3.6-9.81-5-14.88a.88.88 0 0 0-1.7.47z"/>
            <path d="M184.88 169.41l1.35 12.17c.12 1.12 1.89 1.13 1.77 0l-1.35-12.17c-.12-1.12-1.89-1.13-1.77 0z"/>
            <path d="M166.39 190.59a38.37 38.37 0 0 1-.42 7c-.21 1.11 1.5 1.59 1.7.47a40.88 40.88 0 0 0 .48-7.45.88.88 0 0 0-1.77 0z"/>
            <path d="M177.25 179.11a55.19 55.19 0 0 1 .87 8.33.88.88 0 0 0 1.77 0 58.36 58.36 0 0 0-.93-8.8c-.18-1.12-1.89-.64-1.7.47z"/>
            <path d="M175.44 155.21a27.57 27.57 0 0 0 1.44 5.62c.48 1 2 .13 1.53-.89a25.84 25.84 0 0 1-1.26-5.2c-.26-1.11-2-.64-1.7.47z"/>
            <path d="M186.71 139c.87 3.46 1.83 6.91 2.71 10.37a.88.88 0 0 0 1.7-.47c-.87-3.46-1.83-6.91-2.71-10.37a.88.88 0 0 0-1.7.47z"/>
            <path d="M200.66 160.39c.46 5.1.87 10.2.9 15.33a.88.88 0 0 0 1.77 0c0-5.13-.44-10.22-.9-15.33-.1-1.12-1.87-1.13-1.77 0z"/>
            <path d="M194.35 183.83v11.27a.88.88 0 0 0 1.77 0v-11.27a.88.88 0 0 0-1.77 0z"/>
            <path d="M216.44 182.48a33.07 33.07 0 0 1-.42 6.08c-.21 1.11 1.5 1.59 1.7.47a35.59 35.59 0 0 0 .48-6.55.88.88 0 0 0-1.77 0z"/>
            <path d="M212 141.24a99.26 99.26 0 0 0 2.25 10.82.88.88 0 0 0 1.7-.47 99.25 99.25 0 0 1-2.25-10.82c-.15-1.12-1.85-.64-1.7.47z"/>
            <path d="M200.66 132.89c-.36 4.93 1 9.66 2.74 14.21.41 1 2.12.59 1.7-.47-1.72-4.41-3-9-2.67-13.74.08-1.13-1.68-1.13-1.77 0z"/>
            <path d="M227.74 134.48c4.36 18.86 7.35 37.65 4.93 57-.14 1.13 1.63 1.12 1.77 0 2.44-19.51-.6-38.49-5-57.49-.26-1.11-2-.64-1.7.47z"/>
            <path d="M243 135.59c-.22 18.27 5.79 36.54-.87 54.31-.4 1.07 1.31 1.53 1.7.47 6.72-17.94.71-36.35.93-54.78a.88.88 0 0 0-1.77 0z"/>
            <path d="M257.46 138.75c.07 7.54.88 15 1.35 22.54.07 1.13 1.84 1.14 1.77 0-.47-7.52-1.29-15-1.35-22.54a.88.88 0 0 0-1.77 0z"/>
            <path d="M265.12 178c.42 5 .45 9.91.45 14.88a.88.88 0 0 0 1.77 0c0-5 0-9.93-.45-14.88-.09-1.12-1.86-1.13-1.77 0z"/>
            <path d="M276.85 154.53c.48 6.76 1.29 13.5 1.35 20.29a.88.88 0 0 0 1.77 0c-.07-6.79-.87-13.52-1.35-20.29-.08-1.13-1.85-1.14-1.77 0z"/>
            <path d="M283.61 177.07c.42 3.74.83 7.4-.42 11-.37 1.08 1.34 1.54 1.7.47 1.29-3.78.92-7.61.48-11.51-.12-1.12-1.89-1.13-1.77 0z"/>
            <path d="M287.25 133.12a155.73 155.73 0 0 1 3.12 31.32.88.88 0 0 0 1.77 0 158.08 158.08 0 0 0-3.19-31.79c-.23-1.11-1.94-.64-1.7.47z"/>
            <path d="M270.53 140.1c.49 4.07 1.32 8.1 1.8 12.17.13 1.12 1.9 1.13 1.77 0-.49-4.07-1.32-8.1-1.8-12.17-.13-1.12-1.9-1.13-1.77 0z"/>
            <path d="M259.71 179.77a41.13 41.13 0 0 1-.42 7.43c-.2 1.11 1.5 1.59 1.7.47a43.62 43.62 0 0 0 .48-7.9.88.88 0 0 0-1.77 0z"/>
            <path d="M92.72 13.7c-25.74 23.69-45.39 59-47.14 94.4-.06 1.14 1.71 1.13 1.77 0C49.07 73.2 68.59 38.31 94 14.95c.84-.77-.41-2-1.25-1.25z"/>
            <path d="M69.59 30.56c-9.2 12.86-20.08 23.82-27 38.25C39 76.4 35.48 84 31.66 91.54c-2.17 4.26-6 9.57-4.08 14.54.41 1 2.12.59 1.7-.47-1.4-3.59.87-7.36 2.49-10.47s3.17-6.24 4.7-9.38c3.39-7 6.53-14.1 10.09-21 6.38-12.32 16.54-22.11 24.55-33.31.66-.93-.87-1.81-1.53-.89z"/>
            <path d="M96.19 23.34c-15.59 23.86-31.79 49.09-33 78.44 0 1.14 1.72 1.13 1.77 0 1.22-29 17.38-54 32.79-77.55.62-1-.91-1.84-1.53-.89z"/>
            <path d="M109.62 29c-5.22 12.83-12.15 25-16.45 38.16a103.68 103.68 0 0 0-4 18.9c-.07.5-1.95 18.84-2.4 19a.88.88 0 0 0 .47 1.7c2.48-.66 2-9.15 2.29-10.88 1.26-7.76 1.82-15.65 3.85-23.27 4-15.11 12.06-28.7 17.92-43.11.43-1.05-1.28-1.51-1.7-.47z"/>
            <path d="M121.76 25.14c-3.3 26.33-13.68 51.58-12.17 78.44.06 1.13 1.83 1.14 1.77 0-1.51-26.84 8.88-52.13 12.17-78.44.14-1.13-1.63-1.12-1.77 0z"/>
            <path d="M134.39 18.38c0 11.39.67 22.7-.87 34-1.34 9.85-3.09 19.64-4.09 29.54-.11 1.13 1.65 1.12 1.77 0 1.06-10.47 3-20.82 4.33-31.25 1.38-10.72.67-21.54.63-32.32a.88.88 0 0 0-1.77 0z"/>
            <path d="M145.66 22.44c1.35 17.52 1.85 35.1 1.8 52.67 0 4.46-.08 8.93-.31 13.38-.16 3.07.42 10.8-2.14 13.12-.84.77.41 2 1.25 1.25 2.21-2 2.09-6.76 2.33-9.47.48-5.36.58-10.76.63-16.14.14-18.28-.39-36.58-1.79-54.81-.09-1.13-1.85-1.14-1.77 0z"/>
            <path d="M161 29.2c1 13 4.63 25.67 6 38.65 1.26 11.58.92 23.27 3.91 34.62a.88.88 0 0 0 1.7-.47c-3.09-11.75-2.51-23.87-4-35.83-1.57-12.4-4.86-24.48-5.86-37-.09-1.13-1.86-1.14-1.77 0z"/>
            <path d="M172.74 24c3.2 13.92 6.88 27.79 8.52 42 1.6 13.84 2.09 27.82 5.46 41.4a.88.88 0 0 0 1.7-.47c-3.56-14.37-3.8-29.18-5.75-43.8-1.78-13.38-5.21-26.46-8.23-39.6-.25-1.11-2-.64-1.7.47z"/>
            <path d="M189.39 26.49c1.38 13.89 10.8 25.08 14.91 38.1 4.78 15.13 4.08 31.35 9 46.43.35 1.08 2.06.62 1.7-.47-4.75-14.52-4.2-30.09-8.49-44.73-4-13.49-14-25.14-15.37-39.34-.11-1.12-1.88-1.13-1.77 0z"/>
            <path d="M208.89 30.55c6.17 11.12 12.39 22.2 15.73 34.55 3 11.11 4.7 22.57 9 33.31.42 1 2.13.59 1.7-.47-4.5-11.28-6.14-23.37-9.44-35-3.36-11.85-9.5-22.57-15.44-33.28-.55-1-2.08-.1-1.53.89z"/>
            <path d="M224.36 19c3.8 3.74 6.13 9.07 8.42 13.81 2.42 5 4.79 10.1 7.1 15.19 6.75 14.88 9.48 30.8 10.37 47 .06 1.13 1.83 1.14 1.77 0-.88-15.92-3.49-31.54-9.88-46.24-2.46-5.67-5.15-11.29-7.84-16.86-2.35-4.88-4.77-10.31-8.69-14.17-.81-.8-2.06.45-1.25 1.25z"/>
            <path d="M244.06 25.59a694.5 694.5 0 0 1 32.82 76c.38 1.06 2.09.6 1.7-.47a698.35 698.35 0 0 0-33-76.4c-.51-1-2-.12-1.53.89z"/>
            <path d="M304.31 114.64c3.62 15.71 4.57 31.85 5.29 47.91.29 6.43.58 12.85.64 19.29 0 2.74 0 5.49-.15 8.23-.13 2-.06 8.39-1.89 9.71-.91.66-4.57 0-5.74 0q-2.61 0-5.22.05c-3.85.09-7.7.28-11.54.47-7.84.38-15.69.54-23.54.69l-51.94 1c-15.8.32-31.44.55-47 3.79-8.24 1.72-16.45 3.83-24.86 4.45-8.67.64-16.77-1.23-25.2-2.89-14.68-2.89-30-1.34-44.87-1s-29.43.7-44.15 1.07c-3.49.09-7 .21-10.47.27-2 0-2 .21-2.88-1.33a12.75 12.75 0 0 1-.88-3.35c-1.27-5.88-1.54-12-1.81-18a268.47 268.47 0 0 1 1.08-40.86c.41-3.9.8-7.81 1-11.73a51.67 51.67 0 0 1 .16-5.43c.45-2.76 2.1-2.5 4.71-2.45 4.35.08 11.57 3 15.77 1 1.22-.57 1.87-2.69 3-3.08 2.13-.76 3 2.42 4.56 3.06 4.2 1.71 6.72-4 9.86-5.23 3.37-1.31 6.77.49 10.05 1 4.5.67 9.15 1 13.68 1.45a34.06 34.06 0 0 0 8.88-.29c4.64-.67 7.58.08 11.05 3 2.49 2.1 5.49 3.53 8.67 2 1.71-.8 2.84-2.38 4.44-3.33 3.74-2.24 5 .41 7.28 2.85 3 3.16 5.88 1.69 9-.57s5.41-4.17 9.06-1.56a5.16 5.16 0 0 0 4 1.25c2.43-.33 3.8-2.44 6-3.24 3.57-1.32 6.62.57 10.14.12a19 19 0 0 0 3.13-.77 10.15 10.15 0 0 1 8 1c1.69.88 2.69 1.83 4.73 1.68 3.08-.23 5.29-2.37 8.55-2a38.17 38.17 0 0 0 9.46.11c2.39-.31 5.33-1.14 7.47-.42 1.5.5 2.74 1.62 4.57 1.8a6.29 6.29 0 0 0 3.59-.79c1-.5 1.82-1.32 2.83-1.81 2.84-1.39 5.11-.49 7.79.72 1.61.73 2.93 1.54 4.77 1.54 2.07 0 2.51-.91 4.13-1.84 3.74-2.13 5.44.24 9 .77 2.3.34 3.67-.64 5.75-1.48 4.58-1.85 7.93-.2 12.43.49 2.75.42 5.26-.11 8-.59 4.24-.75 8.46-1.62 12.74-2.08s7 1.61 11 2.29a7.58 7.58 0 0 0 5.21-1.09c1.33-.72 2.28-1.66 3.83-1.91 1.91-.31 2.86.63 4.61 1.08 4.79 1.23 8-3.73 12.54-2.93l-.39-1.48c-.15.15 0 .72 1.33 0 1-.54.11-2.06-.89-1.53-.84.45-2.08.92-2.37 2a.87.87 0 0 0 .23.86 2.51 2.51 0 0 0 3 0 .89.89 0 0 0-.39-1.48c-4.61-.82-8 3.91-12.54 2.93-1.58-.34-3-1.63-4.64-1.54-4.3.24-5 4.32-10.36 3.07-2.57-.6-4.71-2.11-7.44-2.2-3.21-.11-6.76.74-9.91 1.29-4.52.79-9.21 2.14-13.82 1.55-2.74-.35-5.24-1.57-8.05-1.52-2.22 0-3.57 1-5.58 1.64a10.19 10.19 0 0 1-7.14-.17 9.47 9.47 0 0 0-3.68-1c-1.4.06-1.91.59-3 1.2-1.92 1-3.57 2.11-6 1.37-1.4-.43-2.56-1.49-3.95-2a8.52 8.52 0 0 0-4.79-.4c-2.33.55-4 2.92-6.3 3.33-2.76.49-3.89-1.63-6-2.58s-3.78.5-5.94 1c-3.68.81-7 .47-10.72.08a11.34 11.34 0 0 0-5.88 1c-3.91 1.5-6-.69-9.29-2.08-2.37-1-4.62-.06-7 .59-3.65 1-6 0-9.54-.17-2.29-.09-3.8.86-5.7 2-1.59 1-2.69 2.06-4.65 1.78-1.5-.22-2-1.07-3.2-1.79a5.05 5.05 0 0 0-4.55-.73c-2 .59-3.5 2.1-5.12 3.27s-2.26 1.77-4.51 1.48c-3-.38-2.8-1.86-4.68-3.74-2.07-2.08-4.79-1.53-7.11 0-2.09 1.36-3.5 3.49-6.18 3.58-3.15.1-4.58-2.25-6.83-3.91-4.64-3.43-10.08-1-15.23-1-4.51 0-9.2-1-13.67-1.45-3.69-.4-7.55-1.88-11.23-1.93a7.73 7.73 0 0 0-5.2 2c-1.21.95-2.32 2.57-3.71 3.22-3 1.41-3.63-.38-5.35-2-3.28-3.11-4.82 2.36-7.86 3s-7-.67-10.06-1a26.21 26.21 0 0 0-9.57.33.9.9 0 0 0-.65.85c.3 16.73-3.22 33.16-2.6 49.93.23 6.38.37 12.77.9 19.13.37 4.37.31 11 2.75 14.78 2 3.14 8 1.33 11.29 1.24l24.8-.61c16.36-.39 32.75-1.13 49.11-1.18 9.62 0 18.54 1.92 27.94 3.63a68.44 68.44 0 0 0 23.09 0c8.43-1.33 16.68-3.6 25.09-5 9.45-1.58 19-1.93 28.59-2.14 18.89-.42 37.78-.76 56.68-1.13 9-.18 18-.27 27-.69 3.86-.18 7.71-.39 11.57-.52 2-.06 4-.11 5.95-.12s5.63.75 7.43.1c3.22-1.15 3.29-6.59 3.58-9.55.7-7.13.32-14.44 0-21.59-.82-18.85-1.44-37.87-5.7-56.33-.22-1.34-1.93-.87-1.67.24z"/>
        </g>
    </g>
</svg>
