<svg id="Layer_1" xmlns="http://www.w3.org/2000/svg" viewBox="0 0 312.8 285.7">
    <style>
        .st0{fill:#fff}.st1{fill:none;stroke:#000;stroke-width:2;stroke-miterlimit:10}
    </style>
    <title>
        house_Asset 21
    </title>
    <g id="Layer_2">
        <g id="Layer_1-2">
            <path class="st0" d="M129.5 33.9c-15.2 7.2-29.6 21-39.7 34.7C71 93.8 56.6 122 40 148.8c-9 14.8-22.4 28.5-29.3 44.4-1.7 3.9-3.6 8.7 2.2 8.4 3.2-.2 3-2.9 5.6-3.6.6-.2 1.1 1.2 2 1.1s1.5-1.2 2.7-1.3c.8-.1 1.5.6 2.4.6 1.4-.1 2.4-1.1 3.9-1.2 1.1 0 1.8 1 2.8 1.2s2.3-.3 3.4 0c.9.3 1.9 1.6 2.7 1.6 1.4 0 2.2-1.2 3.3-1.7 4.8-2 8.5 1.7 13.4 1.2 3.1-.3 6.3-.3 9.4-.4 3.6 0 6.1 1.9 10.1 1.4 1.4-.2 2-.8 3.4-.3 1.7.6 1.5 1.8 3.7 1.9 1.3 0 3.7-1.4 4.5-1.2 1.3.4 1.1 2.7 2.6 3.1.8.2 2-.8 2.9-.9 1.4-.1 3.1.4 4.6.3 2.7-.1 5.6-.8 8.2-.8 1.3 0 2.7 1 3.8 1 2.1 0 3.2-1.8 5.1-2.4.9-.3 1.8.2 2.9-.2 1.4-.5 2.2-2 3.8-2.2 1.8-.2 3.3 2 5.5 1 1-.8 2-1.6 2.8-2.6 1.7-1.8 2.5-3.4 4.5-4.4 1.5-.8 4.7-3 6-1.6 3.3-3.2 8.1-6 12.9-5.7 1.3.2 2.6.5 3.9 1 2.4.6 3.9-.9 6.2-.8 2 .1 3.2 1.9 5.6 1.6 3.1-.4 4-2.8 6.9-.6 1.6 1.2 1.2 2.1 3.2 2.7s3.6-.2 5.4 0c-.7 4.4 8.8 8.8 11.7 11.1 1.1 1.1 2.4 2.1 3.8 2.9 1.3.7 3.2.8 4.5 2.2 1 1 1.4 3.6 2.5 4.2 2 1.1 4.3-2.5 6.8-2 .2 2.6 7.9-.1 10.3 0 5.1.3 10.1-1.7 15.2-.8 2.1.6 4 1.4 5.9 2.5 1.9 1 4 4.1 6.3 3.7 1.3-.2 2-2 3.1-2.6.8-.2 1.7-.3 2.6-.3 1-.2 2.2-.8 3.3-.6 1.5.2 2.2 1.8 3.4 2 2.5.4 5.1-2.1 8.2-2 3.8.2 6.5.5 10.3-.4 1.5-.4 2.9-.9 4.4-1.2 2.5-.6 5.5 1.2 7.7.8.9-.2 1.6-1.4 2.5-1.7 1.2-.4 3 0 4.3-.2 2.1-.4 5.7-1.6 7.5-.4 1.9-2.4-2.6-10-4-12.5-2.5-4.5-5.1-9-7.9-13.4-5.1-8.1-8.9-17.1-14.7-24.7-3.2-4-6.2-8.3-8.9-12.8-2.5-4.4-4.2-9-7-13.2-10.2-15.6-21.8-29-36.8-40.1-4.3-3.1-7.1-7.8-11.1-11-2.5-2-5.7-3.2-8.3-5-1.7-1.2-3-3-4.6-4.5-6.3-5.8-12.3-12-18.9-17.4-3.4-2.8-5-5.8-7.9-8.9-2.7-2.9-6.2-5.1-8.5-8.4s-3.5-7.1-5.4-10.6c-1.6-3.1-3.1-6.3-5-9.3s-4.8-5.4-6.5-8.4-2.3-8.9-3.5-2.3c-1 5.5-1.4 10.8-4.1 15.9-3.2 6-8.4 10.9-14.7 13.9z"/>
            <path class="st0" d="M297.3 213.4l1.7-6.6c-.5.1-1 .1-1.5.1v-.3.3c-.9-.1-1.8 0-2.7.2-.9.3-1.6 1.5-2.5 1.7-2.2.4-5.2-1.4-7.7-.8-1.5.3-2.9.9-4.4 1.2-3.8.9-6.5.6-10.3.4-3.1-.2-5.7 2.4-8.2 2-1.2-.2-1.9-1.8-3.4-2-1.1-.1-2.3.4-3.3.6-.9 0-1.7.1-2.6.3-1.2.6-1.8 2.3-3.1 2.6-2.2.4-4.4-2.7-6.3-3.7-1.8-1.1-3.8-2-5.9-2.5-5.1-.9-10.1 1.1-15.2.8-2.4-.1-10 2.6-10.3 0-2.6-.5-4.8 3.1-6.8 2-1.1-.6-1.6-3.2-2.5-4.2-1.3-1.4-3.1-1.5-4.5-2.2-1.4-.8-2.7-1.8-3.8-2.9-2.9-2.4-12.4-6.7-11.7-11.1-1.8-.1-3.6.6-5.4 0s-1.6-1.4-3.2-2.7c-2.9-2.2-3.8.2-6.9.6-2.4.3-3.7-1.4-5.6-1.6-2.2-.1-3.7 1.4-6.2.8-1.3-.5-2.6-.8-3.9-1-4.8-.3-9.6 2.6-12.9 5.7-1.3-1.3-4.5.9-6 1.6-2 1-2.8 2.6-4.5 4.4-.9 1-1.8 1.8-2.8 2.6-2.2 1-3.7-1.1-5.5-1-1.5.1-2.4 1.7-3.8 2.2-1.1.4-2-.1-2.9.2-1.9.6-3 2.4-5.1 2.4-1.1 0-2.4-1-3.8-1-2.7 0-5.5.6-8.2.8-1.5.1-3.2-.4-4.6-.3-.9.1-2.1 1.1-2.9.9-1.5-.4-1.3-2.7-2.6-3.1-.9-.3-3.2 1.2-4.5 1.2-2.2-.1-2-1.3-3.7-1.9-1.4-.5-2 .1-3.4.3-4 .5-6.5-1.4-10.1-1.4-3.1 0-6.2.1-9.4.4-5 .5-8.7-3.2-13.4-1.2-1.1.5-1.9 1.8-3.3 1.7-.8 0-1.8-1.4-2.7-1.6-1.1-.3-2.3.2-3.4 0s-1.7-1.2-2.8-1.2c-1.4 0-2.5 1.1-3.9 1.2-.9 0-1.5-.6-2.4-.6-1.2.1-1.8 1.2-2.7 1.3s-1.4-1.3-2-1.1c-1.9.6-2.3 2.3-3.8 3.1 0-.2-.1-.4-.1-.5v.6c-.4.2-1 .4-.4-.1l1.9 5.9c-.5.5-1.8 1.3-.1.8 0 0 3.1 19.3.2 35 0 0-8.9 1.3-13.5 2.6-3.2 2.9-.4 9.8 0 14.1.4 6.5 0 13.4 1.1 19.9 7.2 1.5 17-1.1 24.6-1.4 11.9-.4 24.2-.7 36.1-.4 11.6.4 23.1 1.5 34.7 1.8 11.2.4 22.4 4 33.6 2.5 0-1.1-.2-2.2-.1-3.3 0 .9.2 1.8.2 2.8l50.9 2.5v.6c11.6-.4 22.4 1.1 34-.7 12.3-1.4 24.9-1.8 37.2-2.2 18.8-.4 37.9-2.5 56.4 0 1.5-8.7 1.8-26.4-3.2-34-3.2.9-6.4 1.5-9.7 1.4-.3-.1-.9-18.5-.5-35.5z"/>
            <path d="M13.3 201c2.6 14 3.6 29.5.7 43.6-.2 1.1 1.5 1.6 1.7.5 3-14.4 2-30.1-.7-44.6-.2-1.1-1.9-.6-1.7.5z"/>
            <path d="M2.4 246.4c22.7-6.2 46.2-1.8 69.2.4 11.5 1.1 23.2 1.4 34.8 1.7 5.6.1 17.9-3.1 21.9 1.9 1.7 2.1 2 6.1 2.4 8.7.6 4.2.9 8.4 1 12.6 0 1.5 0 3.1-.1 4.6-.1 1 .3 3.6-.2 4.2-1.2 1.7-6.6.9-8.4.8-3.7-.2-7.3-.8-11-1.3-11.4-1.6-23-1.9-34.5-2.6-11.8-.7-23.6-.9-35.4-.7-6.2.1-12.5.1-18.7.8-5 .6-11.6 2.6-16.5 1.5-5.5-1.3-3.4-14.9-3.8-19.4s-3.2-11.2.1-14.9c.8-.9-.5-2.1-1.2-1.2-3 3.4-1.8 8.4-1.1 12.5 1.2 7.9.5 15.9 1.6 23.7.1.3.3.5.6.6 8.9 1.5 17.8-1.1 26.7-1.5 11.4-.4 22.8-.7 34.2-.3 11.2.4 22.5 1.3 33.7 1.8 11.6.5 22.9 3.8 34.6 2.6.5 0 .9-.4.9-.9-.6-10.1 1.6-21.4-2.7-31-3.4-7.7-16.6-4.2-23.1-4.2-18 0-35.9-1.8-53.7-3.7-17.2-1.9-34.8-3-51.7 1.6-.5.1-.7.6-.6 1.1.1.5.5.8 1 .6z"/>
            <path d="M182.3 253.9c0 10.2-.4 20.5 0 30.7 0 .5.4.9.9.9 10.4-.2 20.8.8 31.1-.3 10.6-1.2 21.1-1.9 31.8-2.3 21.4-.7 43.3-3 64.7-.3.4 0 .7-.3.9-.6 1.7-10.7 2.5-25-3.3-34.6-.2-.3-.6-.5-1-.4-8.6 2.5-17.7.3-26.5 0-10.6-.4-21.5-.3-32.1-.1-21.8.4-43.7.4-65.4 1.9-.4 0-.9.4-.9.9.2 1.7.1 3.4.4 5.1.1 1.1 1.9 1.1 1.8 0-.3-2.3-.9-3.9 1.7-4.4 2.9-.3 5.9-.5 8.8-.4 5.9-.2 11.8-.4 17.6-.5 11.7-.2 23.3-.5 35-.7 11-.2 22.2-.3 33.1.1 4.5.2 8.9.8 13.4 1 2.3.2 4.7.2 7 .1 1.1-.1 4.9-1.1 5.7-.7 2.5 1.3 3.2 8.5 3.5 11.2.5 4.1.6 8.2.4 12.3-.1 1.9-.2 3.7-.4 5.5-.1 1.2.1 2-.9 2.5s-3.5-.3-4.4-.4c-5.8-.5-11.6-.7-17.4-.5-11.7.1-23.4.9-35 1.2-10.9.3-21.8.7-32.6 1.8-6.2.8-12.5 1.2-18.8 1.2-3.1 0-16 1.1-17.1-1.3-.7-1.7-.1-5.5-.1-7.3v-7.7c0-4.5.1-9.1.1-13.6 0-.5-.4-.9-.9-.9-.7-.3-1.1.1-1.1.6z"/>
            <path d="M131 250.6c.6-13.8 4-34.8 19.5-39.5 10.5-3.2 20.7 2.5 25.5 11.9 4.2 8.2 7.5 20.6 6.3 29.8-.1 1.1 1.6 1.6 1.7.5.7-5.5-.4-11.1-1.6-16.5s-2.6-10.6-5.1-15.3c-5-9.1-14.1-14.4-24.6-12.7-18.4 2.9-22.8 26.5-23.4 41.8-.2 1.2 1.6 1.2 1.7 0z"/>
            <path d="M296.9 206.7c-2.3 14.1.2 28.3 0 42.5 0 .5.4.9.9.9s.9-.4.9-.9c.2-14-2.3-28.1 0-42 .1-1.1-1.6-1.6-1.8-.5z"/>
            <path d="M224.5 221.6c.4.3.9.3 1.3 0 .1-.1.2-.2.2-.4 1.9-4.8 4.8-9.1 8.4-12.6.8-.8-.4-2-1.2-1.2-3.6 3.4-6.4 7.5-8.3 12.1-3.7-3.8-5.9-8.9-9.6-12.8-.8-.8-2 .4-1.2 1.2 3.9 4.2 6 9.8 10.4 13.7z"/>
            <path d="M23.1 257.2c.2.4.8.6 1.2.3.1 0 .1-.1.2-.1 3.5-4.4 5.9-9.6 9.8-13.7.8-.8-.5-2.1-1.2-1.2-3.6 3.8-5.9 8.5-9 12.7-2.5-4.5-6.5-8.1-8.3-13-.4-1.1-2.1-.6-1.7.5 2 5.4 6.5 9.3 9 14.5z"/>
            <path d="M17 212.1c9.9-.9 16.5 3.5 22.9 9.1l-1.6 2c-3.3 4.3-6.5 9.1-12.1 10.5-2.8.7-5.7.3-8.6.3v-.2h-.4c-1 0-1 2.1 0 2.1 2.7.1 5.5 0 8.2-.2 4.9-.8 8-3.6 11.1-7.3 1.6-1.9 3.1-3.9 4.7-5.9 1.9 1.7 3.7 3.4 5.7 5.2 5.9 5.3 13.7 9.3 21.3 5 4.3-2.4 6.8-6.6 9.6-10.7 4.6 5.2 8.8 11 15.3 13.9 8.2 3.6 19.6.8 24.4-6.8 2.1-3.3.6-6.5-1.7-9.1-4-4.5-9-7.9-14.6-9.9-9.7-3.3-18 1.6-23.7 8.9-5.5-5.6-12.4-9.6-20.7-9.3-6.7.3-11.7 5.1-15.7 10.1-6.9-6.1-14-10.4-24.1-9.5-1.1.2-1.1 1.9 0 1.8zm69.1 1c6.9-4 15.1-2.1 21.3 2 2.6 1.8 4.9 3.9 7.1 6.2 4.9 4.7 0 9.8-4.4 12.2-12.1 6.5-22.2-2.1-29.5-11l-1.8-2.1c1.9-2.9 4.4-5.4 7.3-7.3zm-39.6 3.5c5.9-5.8 13.8-6.3 21.1-2.9 3.4 1.7 6.4 4 8.9 6.8l-.1.1c-3.2 4.6-6.1 10-11.8 11.9-7.4 2.4-14.6-4.3-19.3-8.9-.9-.9-1.8-1.7-2.7-2.5 1.1-1.6 2.4-3.1 3.9-4.5z"/>
            <path d="M188 227.3c-.5 0-.9.4-.9.9 0 .3.1.6.3.7 0 .5.4.9.8.9.1 0 .3 0 .4-.1 8.7 5.4 18 12.7 28.8 9.6 4.2-1.2 7.5-4.4 10.3-8 5.7 4.1 11.8 7.1 19.2 6.3 8.1-.9 15-6.3 21.6-10.6 1.2-.8 2.5-1.6 3.8-2.4 6.7 7.1 13.4 17.4 24.3 17.2.5 0 .9-.4.9-.9s-.4-.9-.9-.9c-9.6.2-16.5-8.9-22.9-16.2 2.1-1.2 4.2-2.1 6.4-2.9 2.1-.7 4.3-1.1 6.6-1.1.7 0 7.5.4 7.5 1.6 0 .5.4.9.9.9s.9-.4.9-.9c0-3.4-4.8-3-7.3-3.3-4.5-.6-9 .8-13 2.6-1.1.5-2.2 1.1-3.3 1.7-1.1-1.2-2.1-2.3-3.2-3.3-7.2-6.7-16.3-9.2-25.7-6.2-7.6 2.4-11.7 9.5-16.3 15.6-4-3.1-7.9-6.5-12.6-8.3-9.4-3.7-22-2.9-26.6 7.1zm49.4-8.6c5-4.8 12.2-6.1 18.9-5 6 1.1 10.7 5.3 14.8 9.5-7.6 4.6-14.4 10.7-23.3 12.5-7.7 1.6-13.4-1.9-18.8-6 2.8-3.9 5.4-8.1 8.4-11zm-32.1 1.3c6.8.2 12.1 3.1 17.3 7.3 1.2.9 2.3 1.9 3.5 2.8-.3.4-.6.8-1 1.2-11.1 13.2-24.1 3.9-35.6-3.1 2.8-6.5 9-8.4 15.8-8.2z"/>
            <path d="M281.1 245.9c-3.1-4.6-6.4-9-9.8-13.4-.3-.4-.8-.6-1.2-.3-.1 0-.1.1-.2.1-4.1 4.2-7.3 9.4-12.1 12.9-.9.7 0 2.2.9 1.5 4.7-3.4 7.9-8.2 11.8-12.4 3.1 4.1 6.2 8.2 9.1 12.4.6 1 2.2.1 1.5-.8z"/>
            <path d="M220.4 248.6c1.3-2.5 2.7-4.8 4.3-7.1 1-1.5 2.1-2.9 3.2-4.2 1.3-1.6 1.6-1.4 3-.2 3 2.7 7.1 6.5 7.8 10.7.2 1.1 1.9.6 1.7-.5-1-5.3-6.7-10.6-10.9-13.5-.3-.2-.8-.1-1.1.1-3.7 4.3-6.9 8.9-9.5 13.9-.2.3-.1.7.2 1-.5-.1-.9.3-1 .7v.4c1 4 5.1 7 7.3 10.3.3.4.8.6 1.2.3.1 0 .1-.1.2-.1 1.5-1.8 2.9-3.7 4.4-5.5 1.2-1.4 4.1-5.6 6.2-5.1 1.1.2 1.6-1.5.5-1.7-4.6-1-9 6.6-11.8 10.2-2.2-2.8-5.5-5.5-6.4-8.9 0-.1-.1-.2-.2-.3.5-.1.8-.3.9-.5z"/>
            <path d="M196.3 249.1c.7.9 2-.4 1.2-1.2-4.1-5.1-9.5-10.4-15.4-13.5-1-.5-1.9 1-.9 1.5 5.8 3 11 8.2 15.1 13.2z"/>
            <path d="M204.2 254.5c-.4-.5-1.2-.7-1.5 0-4.6 9.8-8.3 20.4-15 29.1-.7.9.6 2.1 1.2 1.2 6.6-8.4 10.3-18.6 14.7-28.2 6.1 8.2 10.9 17.2 16.4 25.8.6 1 2.1.1 1.5-.9-5.7-9-10.8-18.4-17.3-27z"/>
            <path d="M251.7 255.1c-.4-.3-.9-.3-1.3 0-.1.1-.1.1-.1.2-5.3 8.8-12.4 16.3-16.4 25.9-.4 1 1.3 1.5 1.7.5 3.7-9 10.4-16.2 15.5-24.4 6.7 8.1 12.5 17.2 21.1 23.5.9.7 1.8-.9.9-1.5-8.6-6.6-14.5-16-21.4-24.2z"/>
            <path d="M311.5 279.8c-3.6-8.5-6.6-17.2-11.2-25.3-.3-.4-.8-.6-1.2-.3-.1 0-.1.1-.2.1-8 7-10.5 18-18.1 25.3-.8.8.4 2 1.2 1.2 7.3-7 9.9-17.5 17.2-24.5 4.3 7.8 7.2 16.1 10.7 24.3.5 1.2 2 .3 1.6-.8z"/>
            <path d="M299.2 267.5c-.3-.4-.8-.6-1.2-.3-.1 0-.1.1-.2.1-3.3 3.8-6.1 8-8.5 12.5-.5 1 1 1.9 1.5.9 2.1-4 4.6-7.7 7.4-11.2 2.4 3.9 4.5 7.9 6.6 12 .5 1 2 .1 1.5-.9-2-4.5-4.4-8.9-7.1-13.1z"/>
            <path d="M252.1 267.7c-.4-.3-.9-.3-1.3 0-.1.1-.1.1-.1.2-2.8 4-4.5 8.6-7.2 12.6-.6 1 .9 1.8 1.5.9 2.5-3.7 4.1-7.8 6.5-11.6 2.7 3.5 4.4 7.8 6.8 11.6.6 1 2.1.1 1.5-.9-2.6-4.2-4.5-8.9-7.7-12.8z"/>
            <path d="M205.6 271.9c-.3-.4-.8-.6-1.2-.3-.1 0-.1.1-.2.1-2.9 3.5-3.5 8-5.9 11.7-.6 1 .9 1.8 1.5.9 2.1-3.3 2.8-7.3 5-10.5 2.5 3.6 5.5 6.8 7.9 10.5.6 1 2.1.1 1.5-.9-2.6-4-5.9-7.5-8.6-11.5z"/>
            <path d="M238.2 261c3.2-3.4 5.2-8.5 9.1-11 .9-.6.1-2.2-.9-1.5-3.6 2.4-5.8 7-8.5 10.2-3.5 4.2-7.9 7.4-10.7 12.1-6.2-6.9-13.1-14-16.7-22.6-.4-1-2.1-.6-1.7.5 3.8 9.3 11.4 16.8 17.9 24.2.4.3.9.3 1.3 0 .1-.1.1-.1.1-.2 2.4-4.7 6.5-7.9 10.1-11.7z"/>
            <path d="M290.2 250.3c.4-.2.6-.8.3-1.2-.2-.4-.8-.6-1.2-.3-3.1 1.7-5 5.4-6.8 8.3-2.5 4.1-4.7 8.4-7.3 12.4-6.6-6.5-10.9-14.8-16.5-22-.7-.9-1.9.4-1.2 1.2 5.9 7.5 10.3 16.2 17.3 22.8.4.3.9.3 1.3 0 0 0 .1-.1.1-.2 2.2-3.2 4-6.7 6-10.1 1.9-3.5 4.3-8.8 8-10.9z"/>
            <path d="M273.4 256.1c-2-2.6-3.8-5.4-5.3-8.4-.5-1-2.1-.1-1.5.9 1.9 3.4 3.6 6.8 6.3 9.6.3.3.9.3 1.2 0 .8-1.1 1.6-2.3 2.2-3.5.7-1.1 2-4.3 3.6-4.2.5 0 .9-.4.9-.9s-.4-.9-.9-.9c-3-.1-4.9 4.8-6.5 7.4z"/>
            <path d="M104.7 266.6c-.3-.3-.7-.3-1.1-.1-4.2 3-5.8 9-10.5 11.2-1 .5-.1 2 .9 1.5 3.9-1.8 5.8-6.2 8.4-9.3 1-1.2 1.5-1.4 2.6-.2 1.4 1.6 2.8 3.3 4 5.1 1.9 2.5 3.5 5.2 4.7 8.1.4 1 2 .1 1.5-.9-2.4-5.8-6.3-10.7-10.5-15.4z"/>
            <path d="M105.6 253.8c-.4-.2-1-.1-1.2.3-6 8.4-13 15.9-20.1 23.3-.8.8.5 2.1 1.2 1.2 3.8-4 7.5-7.9 11.1-12 2-2.3 4-4.7 5.9-7.1 1.8-2.2 2.4-4.2 5.2-1.9 7.9 6.7 13.5 16.8 17.2 26.4.4 1 2.1.6 1.7-.5-4.3-11.1-11.1-22.5-21-29.7z"/>
            <path d="M94.2 249.7c.5-.1.7-.6.6-1.1-.1-.5-.6-.7-1.1-.6-3.5 1-5.9 5-8 7.7-2.9 3.8-5.5 7.8-8.3 11.7-2.8-4.9-5.9-9.7-9.2-14.3-2.4-3.3-5.7-8.5-9.9-9.5-1.1-.3-1.6 1.4-.5 1.7 4.6 1.1 8.5 8 11 11.6 2.8 4 5.4 8.2 7.8 12.6.3.4.8.6 1.2.3l.3-.3c2.4-3.3 4.6-6.7 7-10 2.1-3 5.3-8.7 9.1-9.8z"/>
            <path d="M83 247.3c-2.3 1-3.6 4.5-4.8 6.9-2.4-2.7-4-6.3-7.3-8-1-.5-1.9 1-.9 1.5 3.5 1.8 5 5.9 7.8 8.5.4.3.9.3 1.3 0 0 0 .1-.1.1-.2 1.2-1.9 2.5-6.3 4.7-7.3 1.1-.3.2-1.8-.9-1.4z"/>
            <path d="M53.2 252.4c-.3-.4-.8-.6-1.3-.3l-.1.1c-8 6.3-8.3 17.9-15.9 24.6-.9.8.4 2 1.2 1.2 7.3-6.4 7.9-17.5 15.1-23.9 6 8.5 10.6 18.1 18 25.7.8.8 2-.4 1.2-1.2-7.4-7.8-12-17.6-18.2-26.2z"/>
            <path d="M53.5 264.3c-.3-.4-.8-.6-1.2-.3-.1 0-.1.1-.2.1-3.6 3.4-5.5 8.1-7.1 12.7-.4 1.1 1.3 1.5 1.7.5 1.3-4 3-8 5.9-11.1 2.7 4 5 8.2 6.9 12.5.4 1 2.1.6 1.7-.5-2.1-4.9-4.7-9.5-7.7-13.9z"/>
            <path d="M40 243.5c-3.9 9.4-9.5 18.1-16.4 25.5-5.7-8.3-12-16.3-17-25-.2-.4-.8-.6-1.2-.3-.4.3-.6.8-.3 1.3 5.2 9.1 11.8 17.3 17.7 26 .3.4.8.6 1.2.3.1 0 .1-.1.2-.1 7.5-7.9 13.4-17.1 17.5-27.1.4-1.2-1.3-1.6-1.7-.6z"/>
            <path d="M2.8 259.4c-.8-.8-2.1.5-1.2 1.2 6.3 6 12 12.6 18.8 18.1.9.7 2.1-.5 1.2-1.2-6.8-5.5-12.5-12.1-18.8-18.1z"/>
            <path d="M86.4 245.1c-3-5.3-5.6-10.8-9-15.9-.3-.4-.8-.6-1.2-.3-.1 0-.1.1-.2.1-4 4.2-6.3 9.5-9.5 14.3-.6.9.9 1.8 1.5.9 2.9-4.3 5.1-9.1 8.5-13.1 3.1 4.8 5.6 9.9 8.4 14.9.3.4.9.4 1.2.1.3-.2.4-.6.3-1z"/>
            <path d="M116.8 233.4c-4.3 4.3-8.2 8.9-12.3 13.4-.8.8.5 2.1 1.2 1.2 3.8-4.2 7.6-8.5 11.5-12.6 2.7 4.2 4.1 9 7 13.1.7.9 2.2 0 1.5-.9-3.1-4.4-4.5-9.7-7.6-14.1-.2-.4-.8-.6-1.2-.3 0 .1 0 .1-.1.2z"/>
            <path d="M41.7 229.1c-2.9 3.7-5.7 7.5-7.5 12-.4 1.1 1.3 1.5 1.7.5 1.6-3.7 3.8-7.2 6.3-10.3 2.9 4.1 4.4 8.9 7.2 13.1.6.9 2.2.1 1.5-.9-3-4.6-4.6-9.9-8-14.3-.3-.5-.8-.5-1.2-.1 0-.1 0-.1 0 0z"/>
            <path d="M40.5 210.6c.3.4.8.5 1.2.3.2-.1.3-.3.4-.5 1.5-3.8 2.2-7.9 4.8-11.2.7-.9-.5-2.1-1.2-1.2-2.5 3.1-3.5 6.7-4.7 10.4-2.8-3.6-5.9-6.9-9.2-10-.8-.8-2.1.5-1.2 1.2 3.5 3.4 6.9 7 9.9 11z"/>
            <path d="M76 212.6c.4.3.9.3 1.3 0 .1-.1.2-.2.2-.4 1.2-2.9 1.8-7.1 5.2-8.4 1-.4.6-2.1-.5-1.7-3.7 1.5-4.7 5.1-5.9 8.5-4.1-3.1-9-6.1-10.7-11.1-.4-1.1-2.1-.6-1.7.5 1.9 5.7 7.6 9 12.1 12.6z"/>
            <path d="M139.7 189.2c-2.9 2.9-2.9 7.4-4.6 11-2.8 6.1-6.2 11.9-10.2 17.4-3.8-6-8.2-11.6-13.7-16-.9-.7-2.1.5-1.2 1.2 5.8 4.6 10.3 10.5 14.1 16.8.3.4.8.6 1.2.3.1 0 .1-.1.2-.1 3.9-4.8 6.6-10.4 9.5-15.8 1.1-1.9 2.1-3.8 2.8-5.9.8-2.5 1.2-5.6 3.1-7.6.8-.9-.4-2.1-1.2-1.3z"/>
            <path d="M182.5 216.6c4.7-3.9 7-9.7 11.1-14 .3 0 .6-.1.8-.4l.6-1c.2-.4.1-1-.4-1.2-.3-.2-.7-.1-1 .1-4.7 4.2-7 10.2-11.5 14.5-3.2-5.3-7-10-10.4-15.2-3.2-4.8-5.7-9.9-9.8-14-.3-.3-.9-.3-1.2 0s-.3.9 0 1.2c4 3.9 6.5 9 9.5 13.6 3.5 5.5 7.7 10.4 11 16.1.3.4.8.6 1.2.3 0 .1 0 .1.1 0z"/>
            <path class="st1" d="M129.5 33.9c-15.2 7.2-29.6 21-39.7 34.7C71 93.8 56.6 122 40 148.8c-9 14.8-22.4 28.5-29.3 44.4-1.7 3.9-3.6 8.7 2.2 8.4 3.2-.2 3-2.9 5.6-3.6.6-.2 1.1 1.2 2 1.1s1.5-1.2 2.7-1.3c.8-.1 1.5.6 2.4.6 1.4-.1 2.4-1.1 3.9-1.2 1.1 0 1.8 1 2.8 1.2s2.3-.3 3.4 0c.9.3 1.9 1.6 2.7 1.6 1.4 0 2.2-1.2 3.3-1.7 4.8-2 8.5 1.7 13.4 1.2 3.1-.3 6.3-.3 9.4-.4 3.6 0 6.1 1.9 10.1 1.4 1.4-.2 2-.8 3.4-.3 1.7.6 1.5 1.8 3.7 1.9 1.3 0 3.7-1.4 4.5-1.2 1.3.4 1.1 2.7 2.6 3.1.8.2 2-.8 2.9-.9 1.4-.1 3.1.4 4.6.3 2.7-.1 5.6-.8 8.2-.8 1.3 0 2.7 1 3.8 1 2.1 0 3.2-1.8 5.1-2.4.9-.3 1.8.2 2.9-.2 1.4-.5 2.2-2 3.8-2.2 1.8-.2 3.3 2 5.5 1 1-.8 2-1.6 2.8-2.6 1.7-1.8 2.5-3.4 4.5-4.4 1.5-.8 4.7-3 6-1.6 3.3-3.2 8.1-6 12.9-5.7 1.3.2 2.6.5 3.9 1 2.4.6 3.9-.9 6.2-.8 2 .1 3.2 1.9 5.6 1.6 3.1-.4 4-2.8 6.9-.6 1.6 1.2 1.2 2.1 3.2 2.7s3.6-.2 5.4 0c-.7 4.4 8.8 8.8 11.7 11.1 1.1 1.1 2.4 2.1 3.8 2.9 1.3.7 3.2.8 4.5 2.2 1 1 1.4 3.6 2.5 4.2 2 1.1 4.3-2.5 6.8-2 .2 2.6 7.9-.1 10.3 0 5.1.3 10.1-1.7 15.2-.8 2.1.6 4 1.4 5.9 2.5 1.9 1 4 4.1 6.3 3.7 1.3-.2 2-2 3.1-2.6.8-.2 1.7-.3 2.6-.3 1-.2 2.2-.8 3.3-.6 1.5.2 2.2 1.8 3.4 2 2.5.4 5.1-2.1 8.2-2 3.8.2 6.5.5 10.3-.4 1.5-.4 2.9-.9 4.4-1.2 2.5-.6 5.5 1.2 7.7.8.9-.2 1.6-1.4 2.5-1.7 1.2-.4 3 0 4.3-.2 2.1-.4 5.7-1.6 7.5-.4 1.9-2.4-2.6-10-4-12.5-2.5-4.5-5.1-9-7.9-13.4-5.1-8.1-8.9-17.1-14.7-24.7-3.2-4-6.2-8.3-8.9-12.8-2.5-4.4-4.2-9-7-13.2-10.2-15.6-21.8-29-36.8-40.1-4.3-3.1-7.1-7.8-11.1-11-2.5-2-5.7-3.2-8.3-5-1.7-1.2-3-3-4.6-4.5-6.3-5.8-12.3-12-18.9-17.4-3.4-2.8-5-5.8-7.9-8.9-2.7-2.9-6.2-5.1-8.5-8.4s-3.5-7.1-5.4-10.6c-1.6-3.1-3.1-6.3-5-9.3s-4.8-5.4-6.5-8.4-2.3-8.9-3.5-2.3c-1 5.5-1.4 10.8-4.1 15.9-3.2 6-8.4 10.9-14.7 13.9z"/>
            <path d="M91.5 107.3c-2.4 2.9-4.4 6.2-4.6 10 0 1.1 1.7 1.1 1.8 0 .1-3.3 2-6.3 4.1-8.8.7-.8-.5-2.1-1.3-1.2z"/>
            <path d="M114.1 98.1c-2.3 1.5-4.2 3.5-5.7 5.7-.6.9.9 1.8 1.5.9 1.4-2 3.1-3.7 5.1-5.1.9-.6 0-2.1-.9-1.5z"/>
            <path d="M122.1 124c-4 .8-5.8 7.1-6.6 10.4-.3 1.1 1.4 1.6 1.7.5.6-2.7 2.1-8.5 5.3-9.2 1.2-.2.7-1.9-.4-1.7z"/>
            <path d="M99.5 161.1c-2.4 3-3.1 6.8-3.8 10.5-.2 1.1 1.5 1.6 1.7.5.7-3.3 1.2-7 3.4-9.7.6-.9-.6-2.2-1.3-1.3z"/>
            <path d="M75.3 159.7c-2.4 2.3-4.4 5.1-5.9 8.1-.5 1 1.1 1.9 1.5.9 1.4-2.9 3.3-5.5 5.6-7.8.8-.8-.4-2-1.2-1.2z"/>
            <path d="M73.7 176.5c-1.4 1.9-2.7 4.8-2.3 7.2.2 1.1 1.9.6 1.7-.5-.4-1.9 1-4.4 2.1-5.8.7-.9-.8-1.8-1.5-.9z"/>
            <path d="M47.8 158.2c-1.9 1.8-3 4.2-3.2 6.8 0 .5.4.9.9.9s.9-.4.9-.9c.1-2.1 1.1-4.1 2.6-5.5.9-.8-.4-2.1-1.2-1.3z"/>
            <path d="M73.1 113.1c-2 2.4-3.8 5-3.5 8.2.1 1.1 1.9 1.1 1.8 0-.2-2.8 1.3-4.9 3-7 .7-.9-.6-2.1-1.3-1.2z"/>
            <path d="M93.2 76.8c-2.2 1.7-4 3.7-5.4 6.1-.6.9.9 1.8 1.5.9 1.2-2.1 2.8-4 4.7-5.5.9-.6 0-2.1-.8-1.5z"/>
            <path d="M129.1 62.1c-2 2.3-3.4 5.1-4.2 8-.1.5.1 1 .6 1.1s1-.1 1.1-.6c.7-2.6 2-5.1 3.8-7.2.7-.9-.6-2.1-1.3-1.3z"/>
            <path d="M143.1 59.1c-1.6 2.2-2.2 4.9-1.5 7.5.1.5.6.7 1.1.6.5-.1.7-.6.6-1.1-.6-2.2.2-4.3 1.4-6.2.5-.9-1-1.8-1.6-.8z"/>
            <path d="M121.4 81.5c-1.1 1.6-1.9 3.4-2.3 5.3-.2 1.1 1.5 1.6 1.7.5.3-1.7 1.1-3.4 2.1-4.8.7-1.1-.9-1.9-1.5-1z"/>
            <path d="M132.9 102.3c-.4 2-.7 4.1-1.1 6.1-.2 1.1 1.5 1.6 1.7.5.4-2 .7-4.1 1.1-6.1.2-1.2-1.5-1.6-1.7-.5z"/>
            <path d="M141.2 124.8c-3.9-.8-5.2 6.4-3.9 8.9.5 1 2.1.1 1.5-.9s0-6.7 1.9-6.3c1.1.2 1.6-1.5.5-1.7z"/>
            <path d="M146.8 125.9c2 2.5 2.6 5.7 3 8.8.1 1.1 1.9 1.1 1.8 0-.4-3.6-1.2-7.1-3.5-10-.7-.9-2 .3-1.3 1.2z"/>
            <path d="M156.1 153c-1.4 2.8-1.7 6-.8 9 .1.5.6.7 1.1.6.5-.1.7-.6.6-1.1-.8-2.5-.5-5.3.6-7.6.5-1-1-1.9-1.5-.9z"/>
            <path d="M170.1 159.3c1.5.9 2.4 2.6 2.4 4.3 0 .5.4.9.9.9s.9-.4.9-.9c-.1-2.4-1.3-4.5-3.3-5.8-1-.7-1.9.9-.9 1.5z"/>
            <path d="M182.8 171.2c1.3 2.4 2 5.1 2 7.9 0 .5.4.9.9.9s.9-.4.9-.9c0-3.1-.8-6.1-2.3-8.8-.6-1-2.1-.1-1.5.9z"/>
            <path d="M203.8 164.7c1.1 2 2.1 4.1 2.8 6.3.1.5.6.7 1.1.6.5-.1.7-.6.6-1.1-.8-2.3-1.8-4.6-3-6.7-.6-1-2.1-.1-1.5.9z"/>
            <path d="M218.2 178.8c1.4 1.8 2 4.1 1.7 6.4-.1 1.1 1.6 1.1 1.8 0 .3-2.6-.4-5.2-1.9-7.3-.7-.9-2.3 0-1.6.9z"/>
            <path d="M195.4 147.5c.6 1.9.8 3.9.7 5.9 0 .5.4.9.9.9s.9-.4.9-.9c.1-2.2-.1-4.3-.8-6.4-.4-1-2.1-.5-1.7.5z"/>
            <path d="M175.8 133.1c.6 2 1.1 4.1 1.4 6.1.2 1.1 1.9.6 1.7-.5-.3-2.1-.8-4.1-1.4-6.1-.3-1.1-2-.6-1.7.5z"/>
            <path d="M131 165.9c-.8 2.4-1 4.9-.4 7.3.1.5.6.7 1.1.6.5-.1.7-.6.6-1.1-.5-2.1-.4-4.3.4-6.4.4-1.1-1.4-1.5-1.7-.4z"/>
            <path d="M162.9 103.3c2.5 1.8 3.9 5.2 4.6 8.1.3 1.1 2 .6 1.7-.5-.8-3.4-2.6-7.1-5.5-9.2-.9-.6-1.7.9-.8 1.6z"/>
            <path d="M163.6 75.5c1.4 3 3.1 5.9 3.9 9.2.3 1.1 2 .6 1.7-.5-.8-3.4-2.6-6.4-4.1-9.6-.4-1-1.9-.1-1.5.9z"/>
            <path d="M186.8 80.9c1.8 2.8 4.1 5.4 4.6 8.8.2 1.1 1.9.6 1.7-.5-.5-3.5-2.9-6.3-4.8-9.2-.6-1-2.1 0-1.5.9z"/>
            <path d="M207.1 115.1c1.5 1.6 2.3 3.7 2.3 5.9 0 .5.4.9.9.9s.9-.4.9-.9c0-2.6-1-5.2-2.8-7.1-.8-.9-2 .3-1.3 1.2z"/>
            <path d="M195 115.4c.8 2.8 2.4 5.4 2.9 8.3.2 1.1 1.9.6 1.7-.5-.5-2.9-2.1-5.5-2.9-8.3-.1-.5-.6-.7-1.1-.6-.5.1-.7.6-.6 1.1z"/>
            <path d="M226.9 149.2c.7 1.5 1.1 3.2 1.8 4.7.5 1 2 .1 1.5-.9-.7-1.5-1.1-3.2-1.8-4.7-.5-1-2-.1-1.5.9z"/>
            <path d="M243.7 161c.4 3.4 1.9 6.6 4.3 9 .8.8 2-.4 1.2-1.2-2-2.1-3.3-4.8-3.7-7.7-.1-1.1-1.9-1.2-1.8-.1z"/>
            <path d="M264 176.4c.9 2.8 2.6 5.3 4.9 7.2.9.7 2.1-.5 1.2-1.2-2.1-1.7-3.6-3.9-4.5-6.5-.2-1-1.9-.5-1.6.5z"/>
            <path d="M278.4 180.1c1.1 3.2 3.3 5.6 5.6 8 .3.3.9.3 1.2 0s.3-.9 0-1.2c-2.1-2.1-4.2-4.3-5.2-7.2-.2-1.1-1.9-.7-1.6.4z"/>
            <path d="M252.8 190.9c.3 1.4.3 2.8 0 4.2-.2 1.1 1.4 1.6 1.7.5.4-1.7.4-3.5 0-5.2-.3-1.1-2-.6-1.7.5z"/>
            <path d="M237 182.1c.5 1.1.3 2.4-.4 3.4-.6 1 .9 1.9 1.5.9 1-1.6 1.1-3.5.4-5.2-.4-1-2-.2-1.5.9z"/>
            <path d="M240.2 130c1.7 2.2 2.6 5 2.4 7.9-.1 1.1 1.7 1.1 1.8 0 .2-3.1-.8-6.2-2.6-8.8-.7-.9-2.2 0-1.6.9z"/>
            <path d="M221.6 104.2c1.5 1.3 1.9 3.4 1.2 5.3-.3 1.1 1.4 1.6 1.7.5.9-2.5.2-5.2-1.7-7-.8-.8-2.1.5-1.2 1.2z"/>
            <path d="M267.6 210.4c.5 2.9 2.4 5.1 4.2 7.2.3.3.9.3 1.2 0 2.1-2.6 3.1-6.1 5.8-8.3.9-.7-.4-2-1.2-1.2-2.8 2.2-3.6 5.6-5.8 8.3h1.2c-1.6-2-3.3-3.9-3.8-6.5-.1-1.1-1.8-.6-1.6.5z"/>
            <path d="M158.3 176.2c.1 1.2.4 2.3 1.1 3.3.2.4.8.6 1.2.3.4-.2.6-.8.3-1.2-.5-.7-.8-1.5-.8-2.4 0-.5-.4-.9-.9-.9-.5.1-.9.5-.9.9z"/>
            <path d="M135.5 181c0 1.1 0 2.3-.2 3.4s1.5 1.6 1.7.5c.2-1.3.2-2.6.2-3.9 0-.5-.4-.9-.9-.9-.4 0-.8.4-.8.9z"/>
            <path d="M115.5 185.7c-.8 1.4-1.4 2.8-1.8 4.4-.1.5.1 1 .6 1.1.5.1 1-.1 1.1-.6.3-1.4.9-2.8 1.6-4 .6-1-.9-1.9-1.5-.9z"/>
            <path d="M107.8 160.2c-.7.8-1.2 1.8-1.4 2.9-.2 1.1 1.5 1.6 1.7.5.1-.8.4-1.5.9-2.1.8-.9-.4-2.1-1.2-1.3z"/>
            <path d="M85.8 143.5c-1 1.1-1.5 2.5-1.6 4 0 .5.4.9.9.9s.9-.4.9-.9c0-1 .4-2 1.1-2.8.6-.9-.7-2.2-1.3-1.2z"/>
            <path d="M82.5 174.7c-.4 1.7-.6 3.4-1 5.1-.2 1.1 1.5 1.6 1.7.5.4-1.7.6-3.4 1-5.1.2-1.2-1.5-1.6-1.7-.5z"/>
            <path d="M57.3 176.8c-1 1.6-1.8 3.2-2.5 4.9-.5 1 1.1 1.9 1.5.9.6-1.7 1.5-3.4 2.5-4.9.7-1-.9-1.9-1.5-.9z"/>
            <path d="M36.5 179c-1.1 1.2-2 2.6-2.8 4-.2.4-.1 1 .3 1.2.4.2 1 .1 1.2-.3.7-1.3 1.5-2.5 2.5-3.6.8-.9-.4-2.1-1.2-1.3z"/>
            <path d="M64.1 143.3c-.5.7-.9 1.4-1.3 2.1-.6 1 .9 1.8 1.5.9.4-.7.8-1.4 1.3-2.1.2-.4.1-1-.3-1.2-.4-.3-.9-.1-1.2.3z"/>
            <path d="M92.8 129.6c-.7 1.2-1.2 2.5-1.4 3.8-.2 1.1 1.5 1.6 1.7.5.2-1.2.6-2.4 1.2-3.4.7-1-.9-1.9-1.5-.9z"/>
            <path d="M109.8 138.3c-.8 1.4-1.4 2.9-2 4.4-.4 1.1 1.3 1.5 1.7.5.5-1.4 1.1-2.7 1.8-4 .2-.4.1-1-.3-1.2-.5-.3-1-.1-1.2.3z"/>
            <path d="M130 147.7c-.7 1.6-1.1 3.3-1.2 5 0 .5.4.9.9.9s.9-.4.9-.9c.1-1.6.5-3.1 1.1-4.5.4-1.1-1.3-1.6-1.7-.5z"/>
            <path d="M145.6 155.3c-.1 1.7.1 3.4.4 5 .2 1.1 2 .6 1.7-.5-.3-1.5-.4-3-.4-4.5 0-.5-.4-.9-.9-.9-.4 0-.8.4-.8.9z"/>
            <path d="M121.9 171c-.7 1.3-1.3 2.6-1.8 4-.4 1 1.3 1.5 1.7.5.4-1.2 1-2.4 1.6-3.6.7-1-.9-1.9-1.5-.9z"/>
            <path d="M101.8 181.3c-1.4 2.1-3.1 4-5 5.6-.9.7 0 2.2.9 1.5 2.2-1.8 4.1-3.9 5.6-6.2.7-.9-.9-1.8-1.5-.9z"/>
            <path d="M81.6 190.6c-1.2.4-2.3 1.1-3.2 1.9-.8.8.4 2 1.2 1.2.7-.7 1.5-1.2 2.4-1.5 1.1-.3.6-2-.4-1.6z"/>
            <path d="M144.8 172.2c.2 1.9.6 3.8 1.4 5.6.4 1.1 2.1.6 1.7-.5-.7-1.6-1.1-3.3-1.3-5.1 0-.5-.4-.9-.9-.9-.5.1-.9.5-.9.9z"/>
            <path d="M174.7 175.7c.2 1.1.7 2.1 1.2 3.1.2.4.8.6 1.2.3.4-.2.6-.8.3-1.2-.5-.8-.8-1.7-1.1-2.6-.1-1.2-1.8-.7-1.6.4z"/>
            <path d="M189.2 164.3c.4 1 1 2 1.6 2.9.3.4.8.6 1.2.3.4-.2.6-.8.3-1.2-.6-.8-1.1-1.6-1.4-2.4-.1-.5-.6-.7-1.1-.6-.5.1-.8.5-.6 1z"/>
            <path d="M211.8 185.4c.4 1.1.7 2.1 1 3.2.2 1.1 1.9.6 1.7-.5-.3-1.1-.6-2.2-1-3.2s-2.1-.6-1.7.5z"/>
            <path d="M225.7 193.6c.6 1.3 1 2.7 1.6 4 .5 1 2 .1 1.5-.9s-.9-2.4-1.4-3.6c-.4-1-2.2-.6-1.7.5z"/>
            <path d="M232.3 175.1c0 .8.2 1.6.2 2.5 0 .5.4.9.9.9s.9-.4.9-.9c0-.8-.2-1.6-.2-2.5 0-.5-.4-.9-.9-.9s-.9.4-.9.9z"/>
            <path d="M205.9 184.5c.2 1.1.6 2.3.8 3.4s1.9.6 1.7-.5-.6-2.3-.8-3.4-1.9-.6-1.7.5z"/>
            <path d="M222.6 163l.6 2.9c.2 1.1 1.9.6 1.7-.5l-.6-2.9c-.2-1.1-1.9-.6-1.7.5z"/>
            <path d="M211.6 147v1.9c0 .5.4.9.9.9s.9-.4.9-.9V147c0-.5-.4-.9-.9-.9s-.9.4-.9.9z"/>
            <path d="M227.4 134.6c.3 1.3.6 2.6 1 3.8.3.4.8.5 1.2.2.2-.2.4-.4.4-.7-.4-1.2-.7-2.5-1-3.8-.2-1-1.9-.5-1.6.5z"/>
            <path d="M193.4 134c-.4 1.1-.4 2.2-.2 3.3.2 1.1 1.9.6 1.7-.5-.2-.8-.1-1.6.2-2.4.3-1-1.4-1.5-1.7-.4z"/>
            <path d="M175.3 118.8c-.5 1.4-.7 2.9-.6 4.4 0 .5.4.9.9.9s.9-.4.9-.9c-.1-1.3.1-2.7.5-3.9.4-1.1-1.3-1.6-1.7-.5z"/>
            <path d="M158.6 132.3l-.6 4.2c-.2 1.1 1.6 1.6 1.7.5l.6-4.2c.1-1.2-1.6-1.6-1.7-.5z"/>
            <path d="M110.5 70L106 80.4c-.4 1 1.1 1.9 1.5.9l4.5-10.5c.5-1-1.1-1.9-1.5-.8z"/>
            <path d="M133.8 42c-4-.4-6.7 3.3-7.8 6.7-.4 1.1 1.3 1.5 1.7.5.9-2.7 3-5.7 6.2-5.3 1 0 1-1.8-.1-1.9z"/>
            <path d="M146.9 46.6l1.5 4.5c.4 1.1 2.1.6 1.7-.5l-1.5-4.5c-.3-1-2-.6-1.7.5z"/>
            <path d="M167.2 56c.8.9 1.4 2 1.8 3.1.4 1.1 2.1.6 1.7-.5-.4-1.5-1.2-2.8-2.2-3.9-.9-.8-2.1.5-1.3 1.3z"/>
            <path d="M150 84.4c-.5 1.1-.7 2.3-.6 3.4 0 .5.4.9.9.9s.9-.4.9-.9c-.1-.9.1-1.7.4-2.6.4-.9-1.1-1.8-1.6-.8z"/>
            <path d="M136.7 85.3c-1.3 1.4-2.3 3.1-2.7 4.9-.1.5.1 1 .6 1.1.5.1 1-.1 1.1-.6.4-1.5 1.2-3 2.3-4.1.7-.9-.5-2.1-1.3-1.3z"/>
            <path d="M181.7 97.5c1.9 1.6 3.4 3.6 4.4 5.8.5 1 2 .1 1.5-.9-1.1-2.4-2.7-4.5-4.6-6.2-1-.6-2.2.6-1.3 1.3z"/>
            <path d="M207.2 99.5c1.8 1.8 3.7 3.6 5.7 5.1.9.7 1.8-.8.9-1.5-1.9-1.5-3.7-3.1-5.3-4.9-.3-.3-.9-.3-1.2 0s-.5 1-.1 1.3z"/>
            <path d="M210.2 83.5c1.7 2.2 4.4 3.2 6.9 4.2 1.1.4 1.5-1.3.5-1.7-2.2-.9-4.6-1.8-6.1-3.8-.8-.8-2.1.5-1.3 1.3z"/>
            <path d="M187.7 68.5c.9.9.9 2.4 1.3 3.6s2 .6 1.7-.5c-.5-1.5-.6-3.2-1.7-4.4-.9-.8-2.1.5-1.3 1.3z"/>
            <path d="M170.9 72.9c0 1.3.4 2.6 1.3 3.6.8.8 2-.4 1.2-1.2-.5-.7-.8-1.5-.7-2.4 0-.5-.4-.9-.9-.9s-.9.4-.9.9z"/>
            <path d="M155.9 34.1c.5 3.1 1.7 5.8 4.4 7.5 1 .6 1.9-.9.9-1.5-2.3-1.5-3.1-3.9-3.6-6.5-.1-1.1-1.8-.6-1.7.5z"/>
            <path d="M147 33c-.9 1.4-1.6 3.1-2.5 4.5-.6 1 .9 1.8 1.5.9.9-1.4 1.6-3.1 2.5-4.5.6-1-.9-1.9-1.5-.9z"/>
            <path d="M254.7 147.5c1.9 1.9 3.3 4.4 3.8 7.1.2 1.1 1.9.6 1.7-.5-.6-3-2.1-5.7-4.2-7.9-.9-.8-2.1.5-1.3 1.3z"/>
            <path d="M272.3 158.7c2.2 1.4 3.9 3.4 5.2 5.7.2.4.8.6 1.2.3.4-.2.6-.8.3-1.2-1.4-2.5-3.4-4.7-5.8-6.3-1-.7-1.8.9-.9 1.5z"/>
            <path d="M259.4 166.1c.5 1.9 1.8 3.4 3.6 4.1 1.1.4 1.5-1.3.5-1.7-1.2-.6-2-1.6-2.4-2.9-.3-1-2-.5-1.7.5z"/>
            <path d="M250.5 120.8c1.3 1.6 2.4 3.3 3.5 5 .5 1 2 .1 1.5-.9-1.1-1.7-2.2-3.4-3.5-5-.6-.9-2.1 0-1.5.9z"/>
            <path d="M235.5 113.8c.3.8.4 1.7.4 2.6 0 .5.4.9.9.9s.9-.4.9-.9c.1-1.2-.2-2.4-.6-3.4-.5-1-2-.2-1.6.8z"/>
            <path d="M223.5 123.3c.4 1.1.5 2.4.4 3.6 0 .5.4.9.9.9s.9-.4.9-.9c.1-1.5-.1-3-.6-4.4-.5-1-2-.2-1.6.8z"/>
            <path d="M116 114c-1.1 1.8-1.6 3.9-1.6 5.9 0 .5.4.9.9.9s.9-.4.9-.9c0-1.8.5-3.5 1.4-5.1.5-.9-1-1.8-1.6-.8z"/>
            <path d="M59.4 131.7c-.3 1.9-1 3.7-1.9 5.3-.6 1 .9 1.9 1.5.9 1-1.8 1.7-3.7 2.1-5.7.1-.5-.1-1-.6-1.1-.4-.1-.9.1-1.1.6z"/>
            <path d="M297.6 213.8c-.9.1-1.8.3-2.6.6-.9.3-1.6 1.5-2.5 1.7-2.2.4-5.2-1.4-7.7-.8-1.5.3-2.9.9-4.4 1.2-3.8.9-6.5.6-10.3.4-3.1-.2-5.7 2.4-8.2 2-1.2-.2-1.9-1.8-3.4-2-1.1-.1-2.3.4-3.3.6-.9 0-1.7.1-2.6.3-1.2.6-1.8 2.3-3.1 2.6-2.2.4-4.4-2.7-6.3-3.7-1.9-1.1-3.8-1.9-5.9-2.5-5.1-.9-10.1 1.1-15.2.8-2.4-.1-10 2.6-10.3 0-2.6-.5-4.8 3.1-6.8 2-1.1-.6-1.6-3.2-2.5-4.2-1.3-1.4-3.1-1.5-4.5-2.2-1.4-.8-2.7-1.8-3.8-2.9-2.9-2.4-12.4-6.7-11.7-11.1-1.8-.1-3.6.6-5.4 0s-1.6-1.4-3.2-2.7c-2.9-2.2-3.8.2-6.9.6-2.4.3-3.7-1.4-5.6-1.6-2.2-.1-3.7 1.4-6.2.8-1.3-.5-2.6-.8-3.9-1-4.8-.3-9.6 2.6-12.9 5.7-1.3-1.3-4.5.9-6 1.6-2 1-2.8 2.6-4.5 4.4-.9.9-1.8 1.7-2.8 2.5-2.2 1-3.7-1.1-5.5-1-1.5.1-2.4 1.7-3.8 2.2-1.1.4-2-.1-2.9.2-1.9.6-3 2.4-5.1 2.4-1.1 0-2.4-1-3.8-1-2.7 0-5.5.6-8.2.8-1.5.1-3.2-.4-4.6-.3-.9.1-2.1 1.1-2.9.9-1.5-.4-1.3-2.7-2.6-3.1-.9-.3-3.2 1.2-4.5 1.2-2.2-.1-2-1.3-3.7-1.9-1.4-.5-2 .1-3.4.3-4 .5-6.5-1.4-10.1-1.4-3.1 0-6.2.1-9.4.4-5 .5-8.7-3.2-13.4-1.2-1.1.5-1.9 1.8-3.3 1.7-.8 0-1.8-1.4-2.7-1.6-1.1-.3-2.3.2-3.4 0s-1.7-1.2-2.8-1.2c-1.4 0-2.5 1.1-3.9 1.2-.9 0-1.5-.6-2.4-.6-1.2.1-1.8 1.2-2.7 1.3s-1.4-1.3-2-1.1c-2.5.8.1 2.5-3.1 2.7l-2.4-6c3.2-.2 3-2.9 5.6-3.6.6-.2 1.1 1.2 2 1.1s1.5-1.2 2.7-1.3c.8-.1 1.5.6 2.4.6 1.4-.1 2.4-1.1 3.9-1.2 1.1 0 1.8 1 2.8 1.2s2.3-.3 3.4 0c.9.3 1.9 1.6 2.7 1.6 1.4 0 2.2-1.2 3.3-1.7 4.8-2 8.5 1.7 13.4 1.2 3.1-.3 6.3-.3 9.4-.4 3.6 0 6.1 1.9 10.1 1.4 1.4-.2 2-.8 3.4-.3 1.7.6 1.5 1.8 3.7 1.9 1.3 0 3.7-1.4 4.5-1.2 1.3.4 1.1 2.7 2.6 3.1.8.2 2-.8 2.9-.9 1.4-.1 3.1.4 4.6.3 2.7-.1 5.6-.8 8.2-.8 1.3 0 2.7 1 3.8 1 2.1 0 3.2-1.8 5.1-2.4.9-.3 1.8.2 2.9-.2 1.4-.5 2.2-2 3.8-2.2 1.8-.2 3.3 2 5.5 1 1-.8 2-1.6 2.8-2.6 1.7-1.8 2.5-3.4 4.5-4.4 1.5-.8 4.7-3 6-1.6 3.3-3.2 8.1-6 12.9-5.7 1.3.2 2.6.5 3.9 1 2.4.6 3.9-.9 6.2-.8 2 .1 3.2 1.9 5.6 1.6 3.1-.4 4-2.8 6.9-.6 1.6 1.2 1.2 2.1 3.2 2.7s3.6-.2 5.4 0c-.7 4.4 8.8 8.8 11.7 11.1 1.1 1.1 2.4 2.1 3.8 2.9 1.3.7 3.2.8 4.5 2.2 1 1 1.4 3.6 2.5 4.2 2 1.1 4.3-2.5 6.8-2 .2 2.6 7.9-.1 10.3 0 5.1.3 10.1-1.7 15.2-.8 2.1.6 4 1.4 5.9 2.5 1.9 1 4 4.1 6.3 3.7 1.3-.2 2-2 3.1-2.6.8-.2 1.7-.3 2.6-.3 1-.2 2.2-.8 3.3-.6 1.5.2 2.2 1.8 3.4 2 2.5.4 5.1-2.1 8.2-2 3.8.2 6.5.5 10.3-.4 1.5-.4 2.9-.9 4.4-1.2 2.5-.6 5.5 1.2 7.7.8.9-.2 1.6-1.4 2.5-1.7 1.2-.4 3 0 4.3-.2l-1.8 6.6z"/>
            <path d="M130.1 251.1c.7-18.4 7.6-45.9 32.1-40.5 9.4 2.2 14.8 10.8 17.3 19.5 1.8 6.1 4.7 17.3 3.6 23.5v.7c0 6.9-.4 21.3 0 30.7l-50.9-2.5c0-1.5-.4-2.9 0-4.3.8-5.8-2.4-24.1-2.1-27.1z"/>
        </g>
    </g>
</svg>
