<?xml version="1.0" encoding="windows-1252"?>
<!-- Generator: Adobe Illustrator 21.1.0, SVG Export Plug-In . SVG Version: 6.00 Build 0)  -->
<svg version="1.1" id="Layer_1" xmlns="http://www.w3.org/2000/svg" xmlns:xlink="http://www.w3.org/1999/xlink" x="0px" y="0px" viewBox="0 0 32 32" style="enable-background:new 0 0 32 32;" xml:space="preserve">
<path style="fill:#000000;" d="M10.677,10.823h13.863l-3.148-3.581c-0.283-0.309-0.424-0.71-0.398-1.129  c0.027-0.423,0.223-0.81,0.536-1.074c0.309-0.283,0.712-0.419,1.129-0.398c0.424,0.027,0.81,0.223,1.08,0.542l5.579,6.307  l0.036,0.069c0.039,0.056,0.063,0.112,0.079,0.164l0.12,0.335c0.056,0.224,0.056,0.451-0.001,0.643l-0.074,0.292l-0.044,0.045  l0.012,0.168l-0.176,0.109l-5.488,6.283c-0.536,0.622-1.563,0.721-2.249,0.149c-0.303-0.277-0.488-0.655-0.522-1.063  c-0.035-0.428,0.102-0.832,0.377-1.133l3.155-3.589H10.677c-2.83,0-5.132,2.302-5.132,5.131s2.302,5.131,5.132,5.131h15.895  c0.88,0,1.569,0.689,1.569,1.569s-0.689,1.569-1.569,1.569H10.677c-4.56,0-8.27-3.71-8.27-8.27  C2.407,14.533,6.117,10.823,10.677,10.823z"/>
<g>
</g>
<g>
</g>
<g>
</g>
<g>
</g>
<g>
</g>
<g>
</g>
<g>
</g>
<g>
</g>
<g>
</g>
<g>
</g>
<g>
</g>
<g>
</g>
<g>
</g>
<g>
</g>
<g>
</g>
</svg>