<?xml version="1.0" encoding="windows-1252"?>
<!-- Generator: Adobe Illustrator 21.1.0, SVG Export Plug-In . SVG Version: 6.00 Build 0)  -->
<svg version="1.1" id="Capa_1" xmlns="http://www.w3.org/2000/svg" xmlns:xlink="http://www.w3.org/1999/xlink" x="0px" y="0px" viewBox="191 381 32 32" style="enable-background:new 191 381 32 32;" xml:space="preserve">
<path style="fill:#000000;" d="M212.323,391.823H198.46l3.148-3.581c0.283-0.309,0.424-0.71,0.398-1.129  c-0.027-0.423-0.223-0.81-0.536-1.074c-0.309-0.283-0.712-0.419-1.129-0.398c-0.424,0.027-0.81,0.223-1.08,0.542l-5.579,6.307  l-0.036,0.069c-0.039,0.056-0.063,0.112-0.079,0.164l-0.12,0.335c-0.056,0.224-0.056,0.451,0.001,0.643l0.074,0.292l0.044,0.045  l-0.012,0.168l0.176,0.109l5.488,6.283c0.536,0.622,1.563,0.721,2.249,0.149c0.303-0.277,0.488-0.655,0.522-1.063  c0.035-0.428-0.102-0.832-0.377-1.133l-3.155-3.589h13.863c2.83,0,5.132,2.302,5.132,5.131s-2.302,5.131-5.132,5.131h-15.895  c-0.88,0-1.569,0.689-1.569,1.569s0.689,1.569,1.569,1.569h15.895c4.56,0,8.27-3.71,8.27-8.27  C220.593,395.533,216.883,391.823,212.323,391.823z"/>
</svg>