<svg xmlns="http://www.w3.org/2000/svg" viewBox="0 0 1920 1920">
    <style>
        .st0{fill:#fff}.st1{fill:none;stroke:#231f20;stroke-width:50;stroke-linecap:round;stroke-linejoin:round;stroke-miterlimit:10}
    </style>
    <g id="Layer_3">
        <path class="st0" d="M630.8 1494.9c.2.2.2.2 0 0z"/>
        <path class="st0" d="M1323.8 437.3c-36.9-102.6-134.8-76.6-134.8-76.6s53.4-139.6 0-143.7c-53.4-4.1-106.7 123.1-106.7 123.1-119 49.4-120 266.9-120 266.9-155 88.3-308.9 212.9-308.9 212.9-215.4 180.4-177.6 340.7-139.5 470.2 0 0-154 125.6-154 262.7s197 150.3 197 150.3h407c29.7 0 37.6-41 10.1-52-43.6-17.5-128.9-31.3-293.9-26-381.8 12.3-125.4-222.6-125.4-222.6 38.9 54.5 72.9 88.6 76.1 92.4l394.1.1c0-52.1-106.7-72.4-106.7-72.4l119-64.3 106.7 136.7h135.5c-12.3-76.8-106.3-79.3-106.3-79.3v-402.2c148.2-164.2 85.8-270.9 102.2-369.4 16.4-98.5 78-32.8 106.7-143.7 21.2-81.6-58.2-63.1-58.2-63.1z"/>
    </g>
    <g id="STROKES">
        <path class="st1" d="M630.8 1494.9c.2.2.2.2 0 0z"/>
        <path class="st1" d="M1323.8 437.3c-36.9-102.6-134.8-76.6-134.8-76.6s53.4-139.6 0-143.7c-53.4-4.1-106.7 123.1-106.7 123.1-119 49.4-120 266.9-120 266.9-155 88.3-308.9 212.9-308.9 212.9-215.4 180.4-177.6 340.7-139.5 470.2 0 0-154 125.6-154 262.7s197 150.3 197 150.3h407c29.7 0 37.6-41 10.1-52-43.6-17.5-128.9-31.3-293.9-26-381.8 12.3-125.4-222.6-125.4-222.6 38.9 54.5 72.9 88.6 76.1 92.4l394.1.1c0-52.1-106.7-72.4-106.7-72.4l119-64.3 106.7 136.7h135.5c-12.3-76.8-106.3-79.3-106.3-79.3v-402.2c148.2-164.2 85.8-270.9 102.2-369.4 16.4-98.5 78-32.8 106.7-143.7 21.2-81.6-58.2-63.1-58.2-63.1z"/>
    </g>
</svg>
