<svg xmlns="http://www.w3.org/2000/svg" viewBox="0 0 1920 1920">
    <style>
        .st0{fill:#fff}.st1{fill:none;stroke:#231f20;stroke-width:50;stroke-linecap:round;stroke-linejoin:round;stroke-miterlimit:10}
    </style>
    <circle class="st0" cx="960" cy="960" r="743.1" id="Layer_3"/>
    <g id="STROKES">
        <circle class="st1" cx="960" cy="960" r="743.1"/>
        <path class="st1" d="M478.8 421.5s152.9 128.9 152.9 532.1-181.3 531.7-181.3 531.7"/>
        <path class="st1" d="M463 551.2l177.3-92.4"/>
        <path class="st1" d="M520.6 948.9h195.6"/>
        <path class="st1" d="M445.3 1355.5l174.4 105"/>
        <path class="st1" d="M450.3 1259.3l219.8 86"/>
        <path class="st1" d="M487.5 1162.6l213.8 52.2"/>
        <path class="st1" d="M520.4 1047.9l195.9 41.8"/>
        <path class="st1" d="M522.5 839.8l218.3-24.4"/>
        <path class="st1" d="M532.5 736.7l180.6-51.3"/>
        <path class="st1" d="M493.5 650.6l186.5-75"/>
        <path class="st1" d="M1450.3 401.7s-162 148.7-162 552 181.3 547 181.3 547"/>
        <path class="st1" d="M1459 558.6l-177.3-92.3"/>
        <path class="st1" d="M1399.4 948.9h-195.6"/>
        <path class="st1" d="M1481 1354.9l-173.6 107.7"/>
        <path class="st1" d="M1469.7 1259.3l-219.8 86"/>
        <path class="st1" d="M1432.5 1162.6l-213.8 52.2"/>
        <path class="st1" d="M1399.6 1047.9l-195.9 41.8"/>
        <path class="st1" d="M1397.5 839.8l-218.3-24.4"/>
        <path class="st1" d="M1396.3 736.7l-189.4-51.3"/>
        <path class="st1" d="M1426.5 650.6l-186.5-75"/>
    </g>
</svg>
