<svg xmlns="http://www.w3.org/2000/svg" viewBox="0 0 1920 1920">
    <style>
        .st0{fill:#fff}.st1,.st2{stroke-miterlimit:10}.st1{fill:none;stroke:#231f20;stroke-width:50;stroke-linecap:round;stroke-linejoin:round}.st2{stroke-dasharray:50,6,6,6}.st2,.st3,.st4{fill:none;stroke:#231f20;stroke-width:50;stroke-linecap:round;stroke-linejoin:round}.st4{stroke-dasharray:89.3117,89.3117}
    </style>
    <path class="st0" d="M1332.8 1355.1V1305c0-1-.1-2-.2-3 .1-1 .2-2 .2-3v-6c0-1-.1-2-.2-3 .1-1 .2-2 .2-3v-50.1c0-1-.1-2-.2-3 .1-1 .2-2 .2-3v-6c0-1-.1-2-.2-3 .1-1 .2-2 .2-3v-50.1c0-1-.1-2-.2-3 .1-1 .2-2 .2-3v-6c0-1-.1-2-.2-3 .1-1 .2-2 .2-3V1135c.4.2.9.3 1.3.5l5.7 1.9c1 .3 1.9.6 2.9.8.9.4 1.8.8 2.8 1.1l47.4 15.8c1 .3 1.9.6 2.9.8.9.4 1.8.8 2.8 1.1l5.7 1.9c1 .3 1.9.6 2.9.8.9.4 1.8.8 2.8 1.1l26.5 8.8c7.3 2.4 15.3 1.4 21.8-2.9l18.4-12.2 2.4-1.8c.9-.4 1.8-1 2.6-1.5l5-3.3 2.4-1.8c.9-.5 1.8-1 2.6-1.5l41.6-27.7 2.4-1.8c.9-.5 1.8-1 2.6-1.5l5-3.3c.9-.6 1.7-1.2 2.4-1.8.9-.5 1.8-1 2.6-1.5l12.8-8.5-10.1 23c-.4.9-.8 1.9-1 2.8-.5.8-1 1.7-1.4 2.7l-2.4 5.5c-.4.9-.8 1.9-1 2.8-.5.8-1 1.8-1.4 2.7l-20.1 45.8c-.4.9-.8 1.9-1 2.8-.5.9-1 1.8-1.4 2.7l-2.4 5.5c-.4.9-.8 1.9-1 2.8-.5.9-1 1.8-1.4 2.7l-20.1 45.8c-.4.9-.8 1.9-1 2.8-.5.8-1 1.7-1.4 2.7l-2.4 5.5c-.4.9-.8 1.9-1 2.8-.5.9-1 1.8-1.4 2.7l-20.1 45.8c-.4.9-.8 1.9-1 2.8-.5.9-1 1.8-1.4 2.7l-2.4 5.5c-.4.9-.8 1.9-1 2.8-.5.8-1 1.8-1.4 2.7l-5.5 12.7-9 1.5c-1 .2-2 .4-2.9.7-1 0-2 .1-3 .3l-5.9 1c-1 .2-2 .4-2.9.7-1 0-2 .2-3 .3l-49.3 8.3c-1 .2-2 .4-2.9.7l-3 .3-5.9 1c-1 .2-2 .4-2.9.7l-3 .3-29.8 5c-.2-1.2-.1-2.2-.1-3.3zm-50.1-220.1c-.9.4-1.8.8-2.8 1.1l-47.4 16c-1 .3-1.9.6-2.9.8-.9.4-1.8.8-2.8 1.1l-5.7 1.9c-1 .3-1.9.6-2.9.8-.9.4-1.8.8-2.8 1.1l-47.4 16c-1 .3-1.9.6-2.9.8-.9.4-1.8.8-2.8 1.1l-5.7 1.9c-1 .3-1.9.6-2.9.8-.9.4-1.8.8-2.8 1.1l-47.4 16c-1 .3-1.9.6-2.9.8-.9.4-1.8.8-2.8 1.1l-5.7 1.9c-1 .3-1.9.6-2.9.8-.9.4-1.8.8-2.8 1.1l-47.4 16c-1 .3-1.9.6-2.9.8-.9.4-1.8.8-2.8 1.1l-5.7 1.9c-1 .3-1.9.6-2.9.8-.9.4-1.8.8-2.8 1.1l-47.4 16c-1 .3-1.9.6-2.9.8-.9.4-1.8.8-2.8 1.1l-5.7 1.9c-1 .3-1.9.6-2.9.8-.9.4-1.8.8-2.8 1.1l-47.4 16c-1 .3-1.9.6-2.9.8-.9.4-1.8.8-2.8 1.1l-5.7 1.9c-1 .3-1.9.6-2.9.8-.9.4-1.8.8-2.8 1.1l-47.4 16c-1 .3-1.9.6-2.9.8-.9.4-1.8.8-2.8 1.1l-5.7 1.9c-1 .3-1.9.6-2.9.8-.9.4-1.8.8-2.8 1.1l-47.4 16c-1 .3-1.9.6-2.9.8-.9.4-1.8.8-2.8 1.1l-5.7 1.9c-1 .3-1.9.6-2.9.8-.9.4-1.8.8-2.8 1.1l-47.4 16c-1 .3-1.9.6-2.9.8-.9.4-1.8.8-2.8 1.1l-5.7 1.9c-1 .3-1.9.6-2.9.8-.9.4-1.8.8-2.8 1.1l-47.4 16c-1 .3-1.9.6-2.9.8-.9.4-1.8.8-2.8 1.1l-5.7 1.9c-1 .3-1.9.6-2.9.8-.9.4-1.8.8-2.8 1.1l-47.4 16c-1 .3-1.9.6-2.9.8-.9.4-1.8.8-2.8 1.1l-5.7 1.9c-1 .3-1.9.6-2.9.8-.9.4-1.8.8-2.8 1.1l-18.6 6.3v32.1c0 1-.1 2-.2 3 .1 1 .2 2 .2 3v6c0 1-.1 2-.2 3 .1 1 .2 2 .2 3v2.4l6.6-.8c1-.1 2-.2 3-.2 1-.2 2-.4 3-.5l6-.7c1-.1 2-.2 3-.2 1-.2 2-.4 3-.5l49.6-5.9c1-.1 2-.2 3-.2 1-.2 2-.4 3-.5l6-.7c1-.1 2-.2 3-.2 1-.2 2-.4 3-.5l49.6-5.9c1-.1 2-.2 3-.2 1-.2 2-.4 3-.5l6-.7c1-.1 2-.2 3-.2 1-.2 2-.4 3-.5l49.6-5.9c1-.1 2-.2 3-.2 1-.2 2-.4 3-.5l6-.7c1-.1 2-.2 3-.2 1-.2 2-.4 3-.5l49.6-5.9c1-.1 2-.2 3-.2 1-.2 2-.4 3-.5l6-.7c1-.1 2-.2 3-.2 1-.2 2-.4 3-.5l49.6-5.9c1-.1 2-.2 3-.2 1-.2 2-.4 3-.5l6-.7c1-.1 2-.2 3-.2 1-.2 2-.4 3-.5l32.2-3.9c3.8-.4 7.7 0 11.3 1.2l16.6 5.9c1 .3 1.9.7 2.8 1.2 1 .2 1.9.5 2.9.8l5.7 2c1 .3 1.9.7 2.8 1.2 1 .2 1.9.5 2.9.8l28.4 10 6.9-1.2c1-.2 2-.3 3-.3.9-.3 1.9-.5 2.9-.7l5.9-1c1-.2 2-.3 3-.3.9-.3 1.9-.5 2.9-.7l49.3-8.3c1-.2 2-.3 3-.3 1-.3 1.9-.5 2.9-.7l5.9-1c1-.2 2-.3 3-.3.9-.3 1.9-.5 2.9-.7l49.3-8.3c1-.2 2-.3 3-.3.9-.3 1.9-.5 2.9-.7l5.9-1c1-.2 2-.3 3-.3 1-.3 1.9-.5 2.9-.7l49.3-8.3c1-.2 2-.3 3-.3 1-.3 1.9-.5 2.9-.7l5.9-1c1-.2 2-.3 3-.3.9-.3 1.9-.5 2.9-.7l36.7-6.2v-5.4c0-1 .1-2 .2-3-.1-1-.2-2-.2-3V1305c0-1 .1-2 .2-3-.1-1-.2-2-.2-3v-6c0-1 .1-2 .2-3-.1-1-.2-2-.2-3v-50.1c0-1 .1-2 .2-3-.1-1-.2-2-.2-3v-6c0-1 .1-2 .2-3-.1-1-.2-2-.2-3v-50.1c0-1 .1-2 .2-3-.1-1-.2-2-.2-3v-6c0-1 .1-2 .2-3-.1-1-.2-2-.2-3V1135h.4zm-779.9 247.1c-.2-.1-.4-.1-.6-.2l-5.7-2c-1-.3-1.9-.7-2.8-1.2-1-.2-1.9-.5-2.9-.8l-47.2-16.4c-1-.3-1.9-.7-2.8-1.2-1-.2-1.9-.5-2.9-.8l-5.7-2c-1-.3-1.9-.7-2.8-1.2-1-.2-1.9-.5-2.9-.8l-47.2-16.4c-1-.3-1.9-.7-2.8-1.2-1-.2-1.9-.5-2.9-.8l-5.3-1.8c-.7-.2-1.3-.5-2-.8-.3-.1-.6-.2-.8-.4-.1-.1-.2-.1-.3-.2-1-.2-1.9-.5-2.9-.8l-47.2-16.4c-1-.3-1.9-.7-2.8-1.2-1-.2-1.9-.5-2.9-.8l-5.7-2c-1-.3-1.9-.7-2.8-1.2-1-.2-1.9-.5-2.9-.8l-47.2-16.4c-1-.3-1.9-.7-2.8-1.2-1-.2-1.9-.5-2.9-.8l-5.7-2c-1-.3-1.9-.7-2.8-1.2-1-.2-1.9-.5-2.9-.8l-14-4.9v44.1c0 .7 0 1.5-.1 2.2l29 10.5c1 .3 1.9.8 2.8 1.2 1 .2 1.9.5 2.9.9l5.6 2c1 .3 1.9.8 2.8 1.2 1 .2 1.9.5 2.9.9l47 17.1c1 .3 1.9.7 2.8 1.2 1 .2 1.9.5 2.9.9l5.6 2c1 .3 1.9.7 2.8 1.2 1 .2 1.9.5 2.9.9l47 17.1c1 .3 1.9.8 2.8 1.2 1 .2 1.9.5 2.9.9l5.6 2c1 .4 1.9.8 2.8 1.2 1 .2 1.9.5 2.9.9l47 17.1c1 .3 1.9.7 2.8 1.2 1 .2 1.9.5 2.9.8l5.6 2.1c1 .3 1.9.8 2.8 1.2 1 .2 1.9.5 2.9.9l45.3 16.5v-.3c0-1 .1-2 .2-3-.1-1-.2-2-.2-3v-6c0-1 .1-2 .2-3-.1-1-.2-2-.2-3v-32.4z" id="Layer_10"/>
    <path class="st0" d="M1241.4 949.2l-83.3 32.3c-12.9 5-19.3 19.5-14.3 32.3 3.8 9.9 13.3 16 23.3 16 3 0 6.1-.5 9-1.7l83.3-32.3c12.9-5 19.3-19.5 14.3-32.3-2.7-6.9-8-11.9-14.4-14.3h40.4c1 0 2-.1 3-.2 1 .1 2 .2 3 .2h4.6v.1c3.8 9.9 13.3 16 23.3 16 3 0 6.1-.5 9-1.7l37.1-14.4c1 0 2-.1 2.9-.2 1 .1 2 .2 3 .2h50c1 0 2-.1 3-.2 1 .1 2 .2 3 .2h6c1 0 2-.1 3-.2 1 .1 2 .2 3 .2h50c1 0 2-.1 3-.2 1 .1 2 .2 3 .2h6c1 0 2-.1 3-.2 1 .1 2 .2 3 .2h50c13.8 0 25-11.2 25-25v-43.7c0-1-.1-2-.2-3 .1-1 .2-2 .2-3v-6c0-1-.1-2-.2-3 .1-1 .2-2 .2-3v-4.6l34.8 6.5c1 .2 2 .3 3 .4.9.3 1.9.5 2.9.7l5.9 1.1c1 .2 2 .3 3 .4.9.3 1.9.5 2.9.7l37.4 7-5.4 9.9c-.5.9-.9 1.8-1.3 2.7-.6.8-1.1 1.7-1.6 2.5l-2.9 5.3c-.5.9-.9 1.8-1.3 2.7-.6.8-1.1 1.7-1.6 2.6l-19.7 36.1c-2 3.7-3 7.8-3 11.9v8.9c0 1 .1 2 .2 3-.1 1-.2 2-.2 3v6c0 1 .1 2 .2 3-.1 1-.2 2-.2 3v3.7l-16.2 10.8-2.4 1.8c-.9.4-1.8 1-2.6 1.5l-5 3.3-2.4 1.8c-.9.5-1.8 1-2.6 1.5l-14.1 9.3-1 .7-26.6 17.7c-.8.6-1.7 1.2-2.4 1.8-.9.4-1.8.9-2.6 1.5l-5 3.3-2.4 1.8c-.9.4-1.8.9-2.6 1.5l-41.6 27.7c-.8.6-1.7 1.2-2.4 1.8-.9.4-1.8 1-2.6 1.5l-5 3.3-2.4 1.8c-.9.5-1.8 1-2.6 1.5l-41.6 27.7c-.8.6-1.7 1.2-2.4 1.8-.9.5-1.8 1-2.6 1.5l-5 3.3-2.4 1.8c-.9.4-1.8 1-2.6 1.5l-8.2 5.5-14.9-5c-1-.3-1.9-.6-2.9-.8-.9-.4-1.8-.8-2.8-1.1l-5.7-1.9c-1-.3-1.9-.6-2.9-.8-.9-.4-1.8-.8-2.8-1.1l-47.4-15.8c-1-.3-1.9-.6-2.9-.8-.9-.4-1.8-.8-2.8-1.1l-5.7-1.9c-1-.3-1.9-.6-2.9-.8-.9-.4-1.8-.8-2.8-1.1l-27.8-9.3c-.2-.1-.4-.2-.7-.2-.3-.1-.6-.2-1-.3-.3-.1-.6-.2-1-.3-.8-.2-1.6-.4-2.4-.5-.3 0-.6-.1-.8-.1h-.4c-.2 0-.4 0-.7-.1h-3.3c-.2 0-.5 0-.7.1-.2 0-.5 0-.7.1h-.1c-.3 0-.6.1-.9.1h-.1c-.6.1-1.2.2-1.8.4h-.2c-.3.1-.6.2-1 .3-.3.1-.7.2-1 .3-.2.1-.4.1-.6.2l-18.3 6.2c-1 .3-1.9.7-2.8 1.1-1 .2-1.9.5-2.9.8l-5.7 1.9c-1 .3-1.9.7-2.8 1.1-1 .2-1.9.5-2.9.8l-47.4 16c-1 .3-1.9.7-2.8 1.1-1 .2-1.9.5-2.9.8l-5.7 1.9c-1 .3-1.9.7-2.8 1.1-1 .2-1.9.5-2.9.8l-47.4 16c-1 .3-1.9.7-2.8 1.1-1 .2-1.9.5-2.9.8l-5.7 1.9c-1 .3-1.9.7-2.8 1.1-1 .2-1.9.5-2.9.8l-47.4 16c-1 .3-1.9.7-2.8 1.1-1 .2-1.9.5-2.9.8l-5.7 1.9c-1 .3-1.9.7-2.8 1.1-1 .2-1.9.5-2.9.8l-47.4 16c-1 .3-1.9.7-2.8 1.1-1 .2-1.9.5-2.9.8l-5.7 1.9c-1 .3-1.9.7-2.8 1.1-1 .2-1.9.5-2.9.8l-47.4 16c-1 .3-1.9.7-2.8 1.1-1 .2-1.9.5-2.9.8l-5.7 1.9c-1 .3-1.9.7-2.8 1.1-1 .2-1.9.5-2.9.8l-47.3 16c-1 .3-1.9.7-2.8 1.1-1 .2-1.9.5-2.9.8l-5.7 1.9c-1 .3-1.9.7-2.8 1.1-1 .2-1.9.5-2.9.8l-47.4 16c-1 .3-1.9.7-2.8 1.1-1 .2-1.9.5-2.9.8l-5.7 1.9c-1 .3-1.9.7-2.8 1.1-1 .2-1.9.5-2.9.8l-47.4 16c-1 .3-1.9.7-2.8 1.1-1 .2-1.9.5-2.9.8l-5.7 1.9c-1 .3-1.9.7-2.8 1.1-1 .2-1.9.5-2.9.8l-47.4 16c-1 .3-1.9.7-2.8 1.1-1 .2-1.9.5-2.9.8l-5.7 1.9c-1 .3-1.9.7-2.8 1.1-1 .2-1.9.5-2.9.8l-47.4 16c-1 .3-1.9.7-2.8 1.1-1 .2-1.9.5-2.9.8l-5.7 1.9c-1 .3-1.9.7-2.8 1.1-1 .2-1.9.5-2.9.8l-47.4 16c-1 .3-1.9.7-2.8 1.1-1 .2-1.9.5-2.9.8l-5.7 1.9c-1 .3-1.9.7-2.8 1.1-1 .2-1.9.5-2.9.8l-27.4 9.3-3.6-1.3c-1-.3-1.9-.6-2.9-.8-.9-.4-1.8-.8-2.8-1.2l-5.7-2c-1-.3-1.9-.6-2.9-.8-.9-.4-1.8-.8-2.8-1.2l-47.2-16.5c-1-.3-1.9-.6-2.9-.8-.9-.4-1.8-.8-2.8-1.2l-5.7-2c-1-.3-1.9-.6-2.9-.8-.9-.4-1.8-.8-2.8-1.2l-3.2-1.1c3.3-6.2 4-13.7 1.2-20.8-5-12.9-19.5-19.3-32.4-14.3l-32.8 12.7-44.3-15.4c-1-.3-1.9-.6-2.9-.8-.9-.4-1.8-.8-2.8-1.1l-5.7-2c-1-.3-1.9-.6-2.9-.8-.9-.4-1.8-.8-2.8-1.2l-41.8-14.6 31.3-10.3c1-.3 1.9-.7 2.8-1.1 1-.2 1.9-.4 2.9-.8l5.7-1.9c1-.3 1.9-.7 2.8-1.1 1-.2 1.9-.4 2.9-.8l47.5-15.6c1-.3 1.9-.7 2.8-1.1 1-.2 1.9-.4 2.9-.8l5.7-1.9c1-.3 1.9-.7 2.8-1.1 1-.2 1.9-.4 2.9-.8l47.5-15.6c1-.3 1.9-.7 2.8-1.1 1-.2 1.9-.4 2.9-.8l5.7-1.9c1-.3 1.9-.7 2.8-1.1 1-.2 1.9-.4 2.9-.8l47.5-15.6c1-.3 1.9-.7 2.8-1.1 1-.2 1.9-.4 2.9-.8l5.7-1.9c1-.3 1.9-.7 2.8-1.1 1-.2 2-.4 2.9-.8l47.5-15.6c1-.3 1.9-.7 2.8-1.1 1-.2 1.9-.4 2.9-.8l5.7-1.9c1-.3 1.9-.7 2.8-1.1 1-.2 2-.5 2.9-.8l47.5-15.6c1-.3 1.9-.7 2.8-1.1 1-.2 2-.5 2.9-.8l5.7-1.9c1-.3 1.9-.7 2.8-1.1 1-.2 2-.5 2.9-.8l47.5-15.6c1-.3 1.9-.7 2.8-1.1 1-.2 2-.5 2.9-.8l5.7-1.9c1-.3 1.9-.7 2.8-1.1 1-.2 1.9-.5 2.9-.8l47.5-15.6c1-.3 1.9-.7 2.8-1.1 1-.2 2-.5 2.9-.8l5.7-1.9c1-.3 1.9-.7 2.8-1.1 1-.2 1.9-.4 2.9-.8l47.5-15.6c1-.3 1.9-.7 2.8-1.1 1-.2 1.9-.4 2.9-.8l5.7-1.9c1-.3 1.9-.7 2.8-1.1 1-.2 1.9-.4 2.9-.8l47.5-15.6c1-.3 1.9-.7 2.8-1.1 1-.2 1.9-.4 2.9-.8l5.7-1.9c1-.3 1.9-.7 2.8-1.1 1-.2 1.9-.4 2.9-.8l47.5-15.6c1-.3 1.9-.7 2.8-1.1 1-.2 1.9-.4 2.9-.8l5.7-1.9c1-.3 1.9-.7 2.8-1.1 1-.2 1.9-.5 2.9-.8l12.7-4.2c10.1-3.3 17-12.6 17.2-23.2.2-10.6-6.3-20.2-16.2-23.9L944.9 954c-1-.4-1.9-.7-2.9-.9-.9-.5-1.8-.9-2.8-1.2l-4.7-1.8 37-10.1c1-.3 1.9-.6 2.8-1 1-.1 2-.3 2.9-.6l5.8-1.6c1-.3 1.9-.6 2.9-1 1-.1 2-.3 2.9-.6L1037 922c1-.3 1.9-.6 2.8-1 1-.1 2-.3 2.9-.6l5.8-1.6c1-.3 1.9-.6 2.9-1 1-.1 2-.3 2.9-.6l48.2-13.2c1-.3 1.9-.6 2.8-1 1-.1 2-.4 3-.6l5.8-1.6c1-.3 1.9-.6 2.8-1 1-.2 2-.3 2.9-.6L1168 886c1-.3 1.9-.6 2.8-1 1-.1 2-.4 2.9-.6l5.8-1.6c1-.3 1.9-.6 2.8-1 1-.2 2-.3 2.9-.6l16.7-4.5v44.8c0 13.8 11.2 25 25 25h2.7c1 0 2-.1 3-.2 1 .1 2 .2 3 .2h3.8c2.1 2.7 2 2.7 2 2.7zm-148.5 111.2c12.9-5 19.3-19.5 14.3-32.3-5-12.9-19.5-19.3-32.3-14.3l-83.3 32.3c-12.9 5-19.3 19.5-14.3 32.3 3.8 9.9 13.3 16 23.3 16 3 0 6.1-.5 9-1.7l83.3-32.3zm-166.5 64.7c12.9-5 19.3-19.5 14.3-32.4-5-12.9-19.5-19.3-32.3-14.3l-83.3 32.3c-12.9 5-19.3 19.5-14.3 32.3 3.8 9.9 13.3 16 23.3 16 3 0 6.1-.6 9-1.7l83.3-32.2zm-166.5 64.6c12.9-5 19.3-19.5 14.3-32.3-5-12.9-19.5-19.3-32.4-14.3l-83.3 32.3c-12.9 5-19.3 19.5-14.3 32.3 3.8 9.9 13.3 16 23.3 16 3 0 6.1-.5 9-1.7l83.4-32.3zm-166.6 64.5c12.9-5 19.3-19.5 14.3-32.3-5-12.9-19.5-19.3-32.3-14.3l-83.3 32.3c-12.9 5-19.3 19.5-14.3 32.4 3.8 9.9 13.3 16 23.3 16 3 0 6.1-.5 9-1.7l83.3-32.4z" id="Layer_11"/>
    <path class="st0" d="M1546.7 794.4c0 1 .1 2 .2 3-.1 1-.2 2-.2 3v6c0 1 .1 2 .2 3-.1 1-.2 2-.2 3v50c0 1 .1 2 .2 3-.1 1-.2 2-.2 3v6c0 1 .1 2 .2 3-.1 1-.2 2-.2 3v18.7h-25c-1 0-2 .1-3 .2-1-.1-2-.2-3-.2h-6c-1 0-2 .1-3 .2-1-.1-2-.2-3-.2h-50c-1 0-2 .1-3 .2-1-.1-2-.2-3-.2h-6c-1 0-2 .1-3 .2-1-.1-2-.2-3-.2h-50c-1 0-2 .1-3 .2-1-.1-2-.2-3-.2h-6.1c-1 0-2 .1-3 .2-1-.1-2-.2-3-.2h-50c-1 0-2 .1-3 .2-1-.1-2-.2-3-.2h-6c-1 0-2 .1-3 .2-1-.1-2-.2-3-.2H1254v-22.3c0-1-.1-2-.2-3 .1-1 .2-2 .2-3v-6c0-1-.1-2-.2-3 .1-1 .2-2 .2-3v-50c0-1-.1-2-.2-3 .1-1 .2-2 .2-3v-6c0-1-.1-1.9-.2-2.9h3.3c1 0 2-.1 3-.2 1 .1 2 .2 3 .2h6c1 0 2-.1 3-.2 1 .1 2 .2 3 .2h50c.7 0 1.4 0 2-.1.7.1 1.3.1 2 .1h64c.7 0 1.4 0 2-.1.7.1 1.3.1 2 .1h64c.7 0 1.4 0 2-.1.7.1 1.3.1 2 .1h64c1 0 2-.1 3-.2 1 .1 2 .2 3 .2h6c1 0 2-.1 3-.2.9.1 1.7.2 2.6.2v.5z" id="Layer_12"/>
    <path class="st0" d="M1490.2 744h-25.1c-.7 0-1.4 0-2 .1-.7 0-1.3-.1-2-.1h-64c-.7 0-1.4 0-2 .1-.7 0-1.3-.1-2-.1h-64c-.7 0-1.4 0-2 .1-.7 0-1.3-.1-2-.1h-14.6c0-.8-.1-1.6-.2-2.4.1-1 .2-2 .2-3v-6c0-1-.1-2-.2-3 .1-1 .2-2 .2-3v-50c0-1-.1-2-.2-3 .1-1 .2-2 .2-3v-6c0-1-.1-2-.2-3 .1-1 .2-2 .2-3v-19.3h48.7c1 0 2-.1 3-.2 1 .1 2 .2 3 .2h6c1 0 2-.1 3-.2 1 .1 2 .2 3 .2h50c1 0 2-.1 3-.2 1 .1 2 .2 3 .2h6c1 0 2-.1 3-.2 1 .1 2 .2 3 .2h44.9v23.1c0 1 .1 2 .2 3-.1 1-.2 2-.2 3v6c0 1 .1 2 .2 3-.1 1-.2 2-.2 3v50c0 1 .1 2 .2 3-.1 1-.2 2-.2 3v6c.1.6.1 1.1.1 1.6z" id="Layer_13"/>
    <g id="STROKES">
        <path class="st2" d="M1229 846.6L855 948.5l117 44-777 255.8v99L504.8 1460c14.9 5.4 31.1 5.5 46 .2l399.2-47.7 68.1 24 455.7-76.8 144.4-329.4"/>
        <path class="st2" d="M195 1248.4l332.8 116 780-264.1 136.6 45.6L1675 992.5v-44l50-92-153.3-28.8"/>
        <path class="st2" d="M1229 769h342.7v155.1H1229z"/>
        <path class="st2" d="M1285.6 614.4h229.6v154.7h-229.6z"/>
        <path class="st2" d="M1400.4 614.4V407.7"/>
        <path class="st2" d="M1318.6 527h163.6"/>
        <path class="st2" d="M1318.6 455.3h163.6"/>
        <path class="st3" d="M376.4 1311.6l41.4-16.1"/>
        <path class="st4" d="M501 1263.2l791.1-306.8"/>
        <path class="st3" d="M1333.7 940.2l41.4-16"/>
        <path class="st2" d="M1307.8 1100.3V1380"/>
        <path class="st2" d="M527.8 1364.4v99.7"/>
    </g>
</svg>
