<svg xmlns="http://www.w3.org/2000/svg" viewBox="0 0 1920 1920">
    <style>
        .st0{fill:#fff}.st1{fill:none;stroke:#231f20;stroke-width:50;stroke-linecap:round;stroke-linejoin:round;stroke-miterlimit:10}
    </style>
    <path class="st0" d="M1068.6 624.1L831.7 810.5l-.5-.6-414.5-106.4c-22.6-5.7-26.6-36.2-6.2-47.4 53.1-29.4 89.7-53.9 128.6-71.1 74.2-32.7 156.8-38.8 378.4-.9l150.4 39.3.7.7z" id="Layer_7"/>
    <path class="st0" d="M1678.5 397.5c19.3 24.5 15 60.4-9.5 79.7l-406.3 340.9-45.5 375.9c-14 87.1-40.1 136.8-79.9 178.6-39.8 41.8-93.1 75.7-161.5 131.4-18.1 14.7-44.9-.3-41.7-23.4l59.4-450.5-256.1 126.1-211.2-30.6-245.9-177.5 120.8-90.9 263.6 84.7 166.9-131.4 236.9-186.4 118.4-93.2c164-119.6 249.2-165.4 339.2-165.4 45.9.1 93 12 152.4 32z" id="Layer_8"/>
    <g id="STROKES">
        <g id="XMLID_2_">
            <path class="st1" d="M664.7 941.9l-263.6-84.7-120.8 90.9 245.9 177.4"/>
            <path class="st1" d="M993.5 1030l-256.1 126.1-211.2-30.6"/>
            <path class="st1" d="M993.5 1030l-59.4 450.5c-3.2 23.1 23.6 38.2 41.7 23.4 68.4-55.7 121.8-89.6 161.5-131.4 39.8-41.8 65.9-91.4 79.9-178.6l45.5-375.9L1669 477.2c24.5-19.3 28.8-55.2 9.5-79.7-59.4-20-106.5-31.9-152.4-31.9-90.1 0-175.2 45.8-339.2 165.4l-118.4 93.2-236.8 186.3-167 131.4"/>
            <path class="st1" d="M831.2 809.9L416.7 703.5c-22.6-5.7-26.6-36.2-6.2-47.4 53.1-29.4 89.7-53.9 128.6-71.1 74.2-32.7 156.8-38.8 378.4-.9l150.4 39.3"/>
            <path class="st1" d="M229.4 1554.4l359.3-274.1"/>
            <path class="st1" d="M229.4 1427.1l252.9-192.9"/>
            <path class="st1" d="M229.5 1303.1l155-118.2"/>
        </g>
    </g>
</svg>
