<svg xmlns="http://www.w3.org/2000/svg" viewBox="0 0 1920 1920">
    <style>
        .st0{fill:#fff}.st1{fill:none;stroke:#231f20;stroke-width:50;stroke-linecap:round;stroke-linejoin:round;stroke-miterlimit:10}
    </style>
    <path class="st0" d="M1677 1093.1c40.8 13.4 31.2 73.7-11.8 73.7h-180c-4.5-.6-9.1-1-13.7-1-4.7 0-9.2.3-13.7 1h-216.5c9.4-28.9 14.5-59.8 14.5-91.8 0-46.5-10.7-90.4-29.8-129.6l451 147.7zm-1422.6 72.8h424c-9.2-28.6-14.2-59.2-14.2-90.9 0-46.7 10.8-90.8 30-130l-451.5 147.9c-40.4 13.2-30.9 73 11.7 73z" id="Layer_2"/>
    <path class="st0" d="M448.5 1165.9c54.3 0 98.3 44 98.3 98.2s-44 98.2-98.3 98.2-98.2-44-98.2-98.2 44-98.2 98.2-98.2zm1009.2.9c-47.8 6.7-84.5 47.7-84.5 97.3 0 54.3 44 98.2 98.2 98.2s98.2-44 98.2-98.2c0-49.6-36.8-90.6-84.5-97.3h-27.4z" id="Layer_3"/>
    <path class="st0" d="M1241.2 1166.8c-38.6 118.4-150 203.9-281.2 203.9-131.7 0-243.2-86-281.6-204.9-9.2-28.6-14.2-59.2-14.2-90.9 0-46.7 10.8-90.8 30-130 36.9-75.3 104.9-132.6 187.3-155.2 25-6.9 51.3-10.5 78.4-10.5s53.5 3.7 78.4 10.5c82.5 22.6 150.7 80.1 187.5 155.7 19.1 39.1 29.8 83.1 29.8 129.6.2 32.1-4.9 62.9-14.4 91.8zm-76.4-91.8l-42.8-95.9H798l-42.8 95.9h409.6z" id="Layer_4"/>
    <path class="st0" d="M1038.4 789.7c-25-6.8-51.3-10.5-78.4-10.5s-53.5 3.7-78.4 10.5l53-220.5c6.4-26.7 44.4-26.7 50.9 0l52.9 220.5z" id="Layer_5"/>
    <path class="st0" d="M1121.9 979.1l42.9 95.9H755.2l42.8-95.9h162z" id="Layer_6"/>
    <g id="STROKES">
        <g id="XMLID_1_">
            <path class="st1" d="M1226 945.4c19.1 39.1 29.8 83.1 29.8 129.6 0 32.1-5.1 62.9-14.5 91.8-38.6 118.4-150 203.9-281.2 203.9-131.7 0-243.2-86-281.6-204.9-9.2-28.6-14.2-59.2-14.2-90.9 0-46.7 10.8-90.8 30-130 36.9-75.3 104.9-132.6 187.3-155.2 25-6.9 51.3-10.5 78.4-10.5s53.5 3.7 78.4 10.5c82.6 22.7 150.7 80.2 187.6 155.7z"/>
            <path class="st1" d="M960 1075h204.8l-42.9-95.9H798l-42.8 95.9z"/>
            <path class="st1" d="M1038.4 789.7l-53-220.5c-6.4-26.7-44.4-26.7-50.9 0l-53 220.5"/>
            <path class="st1" d="M694.3 945l-451.5 147.9c-40.5 13.3-31 73.1 11.7 73.1h424"/>
            <path class="st1" d="M1226 945.4l451 147.7c40.8 13.4 31.2 73.7-11.8 73.7h-424.1"/>
            <circle class="st1" cx="448.5" cy="1264.1" r="98.2"/>
            <path class="st1" d="M1457.7 1166.8c-47.8 6.7-84.5 47.7-84.5 97.3 0 54.3 44 98.2 98.2 98.2s98.2-44 98.2-98.2c0-49.6-36.8-90.6-84.5-97.3-4.5-.6-9.1-1-13.7-1-4.6.1-9.2.4-13.7 1z"/>
        </g>
    </g>
</svg>
