<svg xmlns="http://www.w3.org/2000/svg" viewBox="0 0 1920 1920">
    <style>
        .st0{fill:#fff}.st1{fill:none;stroke:#231f20;stroke-width:50;stroke-linecap:round;stroke-linejoin:round;stroke-miterlimit:10}
    </style>
    <path class="st0" d="M1597.9 853.9l-330.8-5.5L922 295.6H727.7l250.6 546.7-455.9 24.9-150.6-143.4H216.9L282.5 960 217 1196.2h154.9l150.7-141 455.8 23L728 1624.3h194.2l344.7-552.1 331-5.4c58.4-.7 105.3-48.2 105.2-106.6-.1-58.2-47-105.6-105.2-106.3z" id="Layer_9"/>
    <path class="st1" d="M1597.9 853.9l-330.8-5.5L922 295.6H727.7l250.6 546.7-455.9 24.9-150.6-143.4H216.9L282.5 960 217 1196.2h154.9l150.7-141 455.8 23L728 1624.3h194.2l344.7-552.1 331-5.4c58.4-.7 105.3-48.2 105.2-106.6-.1-58.2-47-105.6-105.2-106.3z" id="STROKES"/>
</svg>
