<svg xmlns="http://www.w3.org/2000/svg" viewBox="0 0 1920 1920">
    <style>
        .st0{fill:#fff}.st1,.st2{fill:none}.st2{stroke:#231f20;stroke-width:50;stroke-linecap:round;stroke-linejoin:round;stroke-miterlimit:10}
    </style>
    <circle class="st0" cx="960" cy="1156.7" r="371.3" id="Layer_2"/>
    <path class="st0" d="M1367.3 940.6c34.3 64.4 53.7 138 53.7 216.1 0 254.6-206.4 461-460.9 461s-461-206.4-461-461c0-78.1 19.4-151.7 53.7-216.1 50.9-95.6 134.4-171.2 235.8-211.9 53-21.2 110.8-32.9 171.4-32.9 60.7 0 118.7 11.7 171.7 33.1 101.3 40.6 184.8 116.1 235.6 211.7zm-36 216.1c0-205.1-166.2-371.3-371.3-371.3s-371.3 166.2-371.3 371.3S754.9 1528 960 1528s371.3-166.2 371.3-371.3z" id="Layer_3"/>
    <g id="Layer_4">
        <path class="st0" d="M1359.1 715.1c64.6 59.2 68.9 159.5 9.7 224.1l-1.6 1.5c-50.8-95.6-134.3-171.2-235.5-211.8l3.3-4c59.2-64.7 159.6-69 224.1-9.8z"/>
        <path class="st0" d="M551.2 939.2c-59.2-64.6-54.8-164.9 9.7-224.1 64.6-59.2 164.9-54.8 224.1 9.7l3.6 3.9c-101.4 40.6-184.9 116.2-235.8 211.9l-1.6-1.4z"/>
    </g>
    <g id="STROKES">
        <g id="XMLID_1_">
            <path class="st2" d="M1367.3 940.6c34.3 64.4 53.7 138 53.7 216.1 0 254.6-206.4 461-460.9 461s-461-206.4-461-461c0-78.1 19.4-151.7 53.7-216.1 50.9-95.6 134.4-171.2 235.8-211.9 53-21.2 110.8-32.9 171.4-32.9 60.7 0 118.7 11.7 171.7 33.1 101.3 40.6 184.8 116.1 235.6 211.7z"/>
            <circle class="st2" cx="960" cy="1156.7" r="371.3"/>
            <path class="st2" d="M960 1397.9v-241.2"/>
            <path class="st2" d="M1068.6 1007.8L960 1156.7"/>
            <path class="st2" d="M960 684v-91.3"/>
            <path class="st2" d="M930.9 592.7h58.2"/>
            <path class="st2" d="M668.9 1528l-79 78.9"/>
            <path class="st2" d="M1330.1 1606.9l-79-78.9"/>
            <path class="st2" d="M1131.7 728.8l3.3-4c59.2-64.6 159.5-68.9 224.1-9.7s68.9 159.5 9.7 224.1l-1.6 1.5"/>
            <path class="st2" d="M788.6 728.7l-3.6-3.9c-59.2-64.6-159.5-68.9-224.1-9.7s-68.9 159.5-9.7 224.1l1.6 1.4"/>
            <path class="st2" d="M1554.5 785c0-147.2-119.3-266.5-266.6-266.5"/>
            <path class="st2" d="M1703.1 785c0-229.2-185.8-415.1-415.1-415.1"/>
            <path class="st2" d="M365.5 785c0-147.2 119.3-266.5 266.5-266.5"/>
            <path class="st2" d="M216.9 785c0-229.2 185.8-415.1 415.1-415.1"/>
        </g>
    </g>
</svg>
