<svg xmlns="http://www.w3.org/2000/svg" viewBox="0 0 1920 1920">
    <style>
        .st0{fill:#fff}.st1{fill:none;stroke:#231f20;stroke-width:50;stroke-linecap:round;stroke-linejoin:round;stroke-miterlimit:10}
    </style>
    <g id="Layer_5">
        <path class="st0" d="M370 603.6c-99.1 114.7-86.4 288.1 28.3 387.2l16.9 15.3c34.3-194.8 170.5-354.5 351.6-422l-9.7-8.8c-114.7-99.1-288-86.4-387.1 28.3z"/>
        <path class="st0" d="M1550 603.6c-99.1-114.7-272.4-127.4-387.2-28.3l-10.4 8.5c182 67.6 318.8 228.2 352.6 424.1l16.6-17.1c114.8-99.1 127.5-272.5 28.4-387.2z"/>
    </g>
    <path class="st0" d="M1505.1 1007.9c-33.8-195.9-170.6-356.5-352.6-424.1-59.9-22.2-124.8-34.4-192.5-34.4-67.9 0-133 12.2-193.2 34.7-181.1 67.5-317.3 227.2-351.6 422-5.5 31.3-8.4 63.6-8.4 96.5 0 112.9 33.8 217.8 91.9 305.4 29.9 45.1 66.2 85.5 107.6 120 95.9 79.8 219.2 127.8 353.7 127.8s257.8-48 353.7-127.8c41.4-34.5 77.8-74.9 107.6-120 58-87.5 91.9-192.5 91.9-305.4 0-32.3-2.8-63.9-8.1-94.7zM960 1548.2c-246.1 0-445.6-199.5-445.6-445.6C514.4 856.5 713.9 657 960 657s445.6 199.5 445.6 445.6c0 246.1-199.5 445.6-445.6 445.6z" id="Layer_6"/>
    <path class="st0" d="M960 657c246.1 0 445.6 199.5 445.6 445.6 0 246.1-199.5 445.6-445.6 445.6s-445.6-199.5-445.6-445.6C514.4 856.5 713.9 657 960 657z" id="Layer_7"/>
    <g id="Layer_12">
        <path class="st0" d="M1421.3 1408c-29.9 45.1-66.2 85.5-107.6 120v115h107.6v-235z"/>
        <path class="st0" d="M498.7 1408v234.9h107.6v-115c-41.4-34.4-77.7-74.9-107.6-119.9z"/>
    </g>
    <g id="STROKES">
        <g id="XMLID_2_">
            <path class="st1" d="M1505.1 1007.9c5.3 30.8 8.1 62.4 8.1 94.7 0 112.9-33.8 217.8-91.9 305.4-29.9 45.1-66.2 85.5-107.6 120-95.9 79.8-219.2 127.8-353.7 127.8s-257.8-48-353.7-127.8c-41.4-34.5-77.8-74.9-107.6-120-58-87.5-91.9-192.5-91.9-305.4 0-32.9 2.9-65.2 8.4-96.5 34.3-194.8 170.5-354.5 351.6-422C827 561.7 892 549.4 960 549.4c67.7 0 132.5 12.2 192.5 34.4 182 67.6 318.8 228.2 352.6 424.1z"/>
            <path class="st1" d="M1405.6 1102.6c0 246.1-199.5 445.6-445.6 445.6s-445.6-199.5-445.6-445.6C514.4 856.5 713.9 657 960 657s445.6 199.5 445.6 445.6z"/>
            <path class="st1" d="M415.2 1006.1l-17-15.3C283.5 891.7 270.9 718.3 370 603.6c99.1-114.7 272.4-127.4 387.2-28.3l9.7 8.8"/>
            <path class="st1" d="M1152.5 583.8l10.4-8.5c114.7-99.1 288.1-86.4 387.2 28.3 99.1 114.7 86.4 288.1-28.3 387.2l-16.6 17.1"/>
            <path class="st1" d="M1220.5 1102.6H960"/>
            <path class="st1" d="M960 842.1v260.5"/>
            <path class="st1" d="M498.7 1408v234.9h107.6v-115"/>
            <path class="st1" d="M1421.3 1408v234.9h-107.6v-115"/>
            <path class="st1" d="M419.8 549.4S519.2 242.7 960 242.7"/>
            <path class="st1" d="M1500.7 549.4s-99.4-306.7-540.2-306.7"/>
        </g>
    </g>
</svg>
