<svg xmlns="http://www.w3.org/2000/svg" viewBox="0 0 1920 1920">
    <style>
        .st0{fill:#fff}.st1,.st2{fill:none;stroke-linecap:round;stroke-linejoin:round}.st1{stroke-miterlimit:10;stroke:#231f20;stroke-width:50}.st2{stroke:#202020;stroke-width:29.4891}
    </style>
    <path class="st0" d="M479.8 961.8c-38.3 304.5 213.6 203.3 346.6 195.2s20.2-137 20.2-137c-193.5-203.6-366.8-58.2-366.8-58.2zm960.4 0s-173.3-145.3-366.8 58.2c0 0-112.9 129 20.2 137s384.9 109.3 346.6-195.2z" id="Layer_2"/>
    <path class="st0" d="M1093.6 1155.5c-133-8.1-20.2-137-20.2-137 193.5-203.5 366.8-58.2 366.8-58.2 69.5-77.2 110.4-171.8 110.4-274.1 0-260-264.4-470.8-590.6-470.8S369.4 426.1 369.4 686.2c0 102.3 40.9 196.9 110.4 274.1 0 0 173.3-145.3 366.8 58.2 0 0 112.9 129-20.2 137-133 8.1-384.9 109.3-346.6-195.3-17.9 34.7-28.1 74.3-28.1 116.4 0 93.1 49.8 174.3 123.5 216.8 21.8 54.2 54.5 114.4 96.2 174.5 101.6 146.2 223 242.1 288.5 232.9 65.6 9.1 186.9-86.8 288.5-232.9 41.8-60.1 74.4-120.3 96.2-174.5.1-.1.3-.2.4-.2 73.5-42.6 123.1-123.7 123.1-216.6 0-42.1-10.1-81.7-28.1-116.4 38.4 304.6-213.4 203.4-346.4 195.3z" id="Layer_4"/>
    <g id="STROKES">
        <path class="st1" d="M1440.2 961.8c17.9 34.7 28.1 74.3 28.1 116.4 0 93.1-49.8 174.3-123.5 216.8-21.8 54.2-54.5 114.4-96.2 174.5-101.6 146.2-223 242.1-288.5 233-65.6 9.1-186.9-86.8-288.5-233-41.8-60.1-74.5-120.3-96.2-174.5-73.7-42.5-123.5-123.7-123.5-216.8 0-42.1 10.1-81.7 28.1-116.4-38.3 304.5 213.6 203.3 346.6 195.2s20.2-137 20.2-137C653.3 816.5 480 961.8 480 961.8 410.5 884.6 369.6 790 369.6 687.7c0-260 264.4-470.8 590.6-470.8s590.6 210.8 590.6 470.8c-.2 102.2-41.1 196.9-110.6 274.1 0 0-173.3-145.3-366.8 58.2 0 0-112.9 129 20.2 137 133 8.1 384.9 109.3 346.6-195.2z"/>
        <path class="st1" d="M826.4 1157c-133 8.1-384.9 109.3-346.6-195.2 0 0 173.3-145.3 366.8 58.2 0 0 112.8 129-20.2 137z"/>
        <path class="st1" d="M826.4 1157c-133 8.1-384.9 109.3-346.6-195.2 0 0 173.3-145.3 366.8 58.2 0 0 112.8 129-20.2 137z"/>
        <path class="st1" d="M1093.6 1157c-133-8.1-20.2-137-20.2-137 193.5-203.5 366.8-58.2 366.8-58.2 38.3 304.5-213.6 203.3-346.6 195.2z"/>
        <path class="st1" d="M1093.6 1157c-133-8.1-20.2-137-20.2-137 193.5-203.5 366.8-58.2 366.8-58.2 38.3 304.5-213.6 203.3-346.6 195.2z"/>
        <path class="st1" d="M911 1299.8l9.2 9.2"/>
        <path class="st1" d="M1009 1299.8l-9.2 9.2"/>
        <path class="st1" d="M575.2 1295l73.6-31.2"/>
        <path class="st1" d="M1345.8 1295l-73.7-31.2"/>
    </g>
</svg>
