<svg xmlns="http://www.w3.org/2000/svg" viewBox="0 0 1920 1920">
    <style>
        .st0{fill:#fff}.st1,.st2{fill:none;stroke-linecap:round;stroke-linejoin:round}.st1{stroke-miterlimit:10;stroke:#231f20;stroke-width:50}.st2{stroke:#202020;stroke-width:29.4891}
    </style>
    <path class="st0" d="M1068.3 352.3c-139.8.5-253.1 19.7-344.9 51-49.2-37.9-112.6-68.4-193.4-77.2-2.1 7.5-5.1 14.5-8.9 21 33.5 19.3 79.8 50.1 118.6 90.8C292.4 609.5 335.9 979 335.9 979l-8.8 30.7c-13.7 47.8-13.9 98.4-.5 146.2l26.4 94.2c0 31.7-40.5 84.4-68.2 116.7-13.7 16-12.1 39.9 3.4 54l40.5 36.5v193.5c0 25 24.4 42.7 48.2 35 119.6-38.9 422.8-137.1 458-143 20.5-3.4 47.4-38.2 70.3-74.3 53.3 16.5 109.9 25.3 168.6 25.3 315.1 0 570.6-255.4 570.8-570.5.1-315.3-260.9-572.1-576.3-571zm-540.6 929.8c-75.4 25.4-105.2 2.6-105.2-97.3s31.6-120 31.6-120c117.5-100.8 273.5-18.5 273.5-18.5-26.3 108.7-124.5 210.4-199.9 235.8z" id="Layer_10"/>
    <path class="st0" d="M446.7 217c-47.7 0-86.3 38.6-86.3 86.3 0 47.7 38.6 86.3 86.3 86.3 31.6 0 59.3-17 74.3-42.4 3.9-6.5 6.9-13.6 8.9-21 2-7.3 3.1-15 3.1-22.9 0-47.7-38.6-86.3-86.3-86.3z" id="Layer_11"/>
    <path class="st0" d="M454.1 1064.8s-31.6 20.1-31.6 120 29.8 122.7 105.2 97.3c75.4-25.4 173.6-127.1 199.9-235.8 0 0-156-82.3-273.5 18.5z" id="Layer_12"/>
    <g id="STROKES">
        <path class="st1" d="M727.6 1046.3c-26.3 108.7-124.5 210.4-199.9 235.8-75.4 25.4-105.2 2.6-105.2-97.3 0-99.9 31.6-120 31.6-120 117.5-100.8 273.5-18.5 273.5-18.5z"/>
        <path class="st1" d="M727.6 1046.3c-26.3 108.7-124.5 210.4-199.9 235.8-75.4 25.4-105.2 2.6-105.2-97.3 0-99.9 31.6-120 31.6-120 117.5-100.8 273.5-18.5 273.5-18.5z"/>
        <path class="st1" d="M442.7 1401.2s56.3 79.8 150.2 44.6c93.8-35.2 159.5-222.9 159.5-222.9"/>
        <path class="st1" d="M1068.3 352.3c-139.8.5-253.1 19.7-344.9 51-49.1-37.9-112.6-68.4-193.4-77.2-2 7.5-5.1 14.5-8.9 21 33.5 19.3 79.8 50.1 118.6 90.8C292.4 609.5 335.9 979 335.9 979l-8.8 30.7c-13.7 47.8-13.9 98.4-.5 146.3l26.4 94.2c0 31.7-40.5 84.4-68.2 116.7-13.7 16-12.2 39.9 3.4 54l40.4 36.6V1651c0 25 24.4 42.7 48.2 35 119.6-38.9 422.8-137.2 458-143 20.5-3.4 47.4-38.2 70.3-74.3 53.3 16.5 109.9 25.3 168.6 25.3 315.1 0 570.6-255.4 570.8-570.5.2-315.5-260.8-572.3-576.2-571.2zm-540.6 929.8c-75.4 25.4-105.2 2.6-105.2-97.3 0-99.9 31.6-120 31.6-120 117.5-100.8 273.5-18.5 273.5-18.5-26.3 108.7-124.5 210.4-199.9 235.8z"/>
        <path class="st1" d="M639.6 438c43 45.1 76.8 102.3 73.9 169.5"/>
        <path class="st1" d="M723.4 403.3c109 84 147.5 204.1 147.5 204.1"/>
        <path class="st1" d="M533 303.2c0 7.9-1.1 15.6-3.1 22.9-2 7.5-5.1 14.5-8.9 21-15 25.4-42.7 42.4-74.3 42.4-47.7 0-86.3-38.6-86.3-86.3s38.6-86.3 86.3-86.3c47.7 0 86.3 38.7 86.3 86.3z"/>
    </g>
</svg>
