<svg xmlns="http://www.w3.org/2000/svg" viewBox="0 0 1920 1920">
    <style>
        .st0{fill:#fff}.st1,.st2{fill:none;stroke-linecap:round;stroke-linejoin:round}.st1{stroke-miterlimit:10;stroke:#231f20;stroke-width:50}.st2{stroke:#202020;stroke-width:29.4891}
    </style>
    <path class="st0" d="M961.2 217.5C698.7 217.5 486 430.3 486 692.7v170.7c-.1 1-.1 2-.2 3.1 8.7 16.2 86.4 30.4 201.6 39.2-.2-.2-.5-.5-.8-.7-119.3-9.7-197-25.6-197-43.5 0-15.9 60.9-30.1 157.7-39.9-.2-2.5-.2-4.9-.2-7.4 0-7.8.7-15.4 2.1-22.8 1.4-7.4 3.4-14.5 6-21.4-17.8-16.9-29-40.7-29-67.2 0-45.4 32.8-83.2 75.9-91-4-13.2-3.5-27.8 2.6-41.3 12.9-29 46.3-42.6 75.6-31.2 12.2-36.8 46.9-63.4 87.8-63.4 51.1 0 92.5 41.4 92.5 92.5 0-51.1 41.4-92.5 92.5-92.5s92.5 41.4 92.5 92.5v.1c1.5-.1 2.9-.1 4.4-.1 68.6 0 124.2 55.6 124.2 124.2 0 15.6-2.9 30.5-8.1 44.2 17.8 16.9 28.9 40.7 28.9 67.2 0 6.6-.7 13-2 19.1 88.4 9.7 143.3 23.3 143.3 38.4V692.8c.1-262.5-212.7-475.3-475.1-475.3z" id="Layer_5"/>
    <path class="st0" d="M1266.2 736.8c5.2-13.7 8.1-28.6 8.1-44.2 0-68.6-55.6-124.2-124.2-124.2-1.5 0-3 0-4.4.1v-.1c0-51.1-41.4-92.5-92.5-92.5s-92.5 41.4-92.5 92.5c0-51.1-41.4-92.5-92.5-92.5-40.9 0-75.6 26.6-87.8 63.4-29.3-11.4-62.7 2.2-75.6 31.2-6 13.5-6.5 28.1-2.6 41.3-43.2 7.8-75.9 45.6-75.9 91 0 26.5 11.1 50.3 29 67.2-2.6 6.9-4.6 14-6 21.4-1.4 7.4-2.1 15-2.1 22.8 0 2.5.1 5 .2 7.4 1.9 32.9 16.7 62.4 39.3 83.5 77.2 6.3 171.8 10 274.1 10.1h35.6c5.5 0 11-.1 16.5-.2s10.9-.1 16.3-.2h2.3c2.9 0 5.8-.1 8.6-.1 5.7-.1 11.5-.2 17.1-.4 1.2 0 2.4 0 3.6-.1 3-.1 6-.1 9-.2 1.9 0 3.8-.1 5.7-.1 1.6 0 3.3-.1 4.9-.1 4.3-.1 8.6-.3 12.9-.4 1 0 2.1-.1 3.1-.1 7.2-.2 14.3-.5 21.4-.8h1.2c1.6-.1 3.1-.1 4.7-.2l7.8-.3c.5 0 1.1 0 1.6-.1 2.5-.1 4.9-.2 7.4-.3 2.2-.1 4.3-.2 6.5-.3 1.5-.1 3.1-.1 4.6-.2 3.1-.1 6.1-.3 9.1-.5 6.5-.3 12.9-.7 19.2-1.1 1.4-.1 2.8-.2 4.3-.2 6.9-.4 13.7-.8 20.4-1.3 1-.1 2-.1 3.1-.2 4.6-.3 9.2-.7 13.7-1-.4-3.9-1.1-7.7-2.3-11.4 36.9-6.7 66.2-35.3 73.9-71.9 1.3-6.2 2-12.6 2-19.1.1-26.9-11-50.8-28.8-67.6z" id="Layer_6"/>
    <path class="st0" d="M647.2 821.6c-96.8 9.8-157.7 24.1-157.7 39.9 0 17.9 77.7 33.8 197 43.5-22.6-21-37.3-50.5-39.3-83.4zm645.9 1.5c-7.7 36.6-37 65.2-73.9 71.9 1.1 3.7 1.9 7.5 2.3 11.4v.2c122.1-8.7 205-23.3 214.1-40.1.6-1 .8-2 .8-3.1v-2c0-14.9-54.9-28.5-143.3-38.3z" id="Layer_7"/>
    <path class="st0" d="M1436.4 892.1c0-8.6-.3-17.1-.8-25.6-9.1 16.8-92 31.4-214.1 40.1-3.1.2-6.1.4-9.2.6-2.5.2-5 .3-7.5.5-.5 0-1 .1-1.4.1-2.1.1-4.2.3-6.3.4-2.8.2-5.6.4-8.4.5-1.3.1-2.7.2-4 .2-15.6.9-31.8 1.7-48.4 2.4-2.5.1-5 .2-7.6.3-2 .1-4 .2-6 .2-1.5.1-3.1.1-4.6.2-6.1.2-12.3.4-18.6.7-1.6 0-3.1.1-4.7.2h-1.6c-1.1 0-2.1.1-3.1.1-1.5.1-3.1.1-4.6.1-1.6 0-3.3.1-4.9.1-1.6 0-3.3.1-4.9.1-1.9 0-3.8.1-5.7.1-3 .1-6 .2-9 .2-1.2 0-2.4.1-3.6.1-5.7.1-11.4.2-17.1.4-2.9 0-5.8.1-8.6.1h-2.3c-5.4.1-10.8.1-16.3.2s-10.9.1-16.5.2H961c-101.7 0-196-3.5-273.3-9.4-115.2-8.8-192.8-23-201.6-39.2-.6 8.5-.8 17-.8 25.6 0 173.3 113.2 322.7 276.3 391-20.1 46.5-40.1 115.2-15.7 168.5 40.7 89.2 124.1 211.4 124.1 211.4s25 40.7 91 40.7c66.1 0 91-40.7 91-40.7s83.4-122.2 124.1-211.4c24.4-53.4 4.3-122-15.7-168.5 162.8-67.7 276-217.1 276-390.5zm-748.2 276.2c-100.2-70.5-82.5-210-82.5-210s65.8-32.1 169.5 26.2c9.7 5.4 18.6 11.6 26.7 18.4 3.4 2.9 6.8 5.8 10 8.8 70.3 67 80.6 175.7 80.6 175.7s-104 51.3-204.3-19.1zm543.5 0c-100.2 70.4-204.2 19.3-204.2 19.3s9.9-105 76.9-172.1c5.8-5.8 12-11.3 18.7-16.5 6.7-5.2 13.9-10 21.7-14.4 9.5-5.4 18.7-10 27.6-13.9 7.8-3.5 15.4-6.4 22.7-8.9 74.2-25.4 119.2-3.4 119.2-3.4s17.6 139.4-82.6 209.9z" id="Layer_8"/>
    <path class="st0" d="M811.9 1011.9c-3.6-2.7-6.9-5.7-10-8.9-8.2-6.8-17.1-13-26.7-18.4-103.6-58.4-169.5-26.3-169.5-26.3s-17.7 139.5 82.5 210c100.2 70.4 204.2 19.3 204.2 19.3s-10.2-108.8-80.5-175.7zm502.3-53.6s-45-22-119.2 3.4c-7.3 2.5-14.8 5.5-22.7 8.9-8.9 3.9-18.1 8.5-27.6 13.9-7.7 4.3-14.9 9.2-21.7 14.4-6.7 5.1-12.9 10.7-18.7 16.5-67 67.2-76.9 172.1-76.9 172.1s104 51.2 204.2-19.3c100.3-70.4 82.6-209.9 82.6-209.9z" id="Layer_9"/>
    <g id="STROKES">
        <path class="st1" d="M892.5 1187.6s-104 51.2-204.2-19.3c-100.2-70.5-82.5-210-82.5-210s65.8-32.1 169.5 26.3c9.7 5.5 18.6 11.6 26.7 18.4 3.4 2.9 6.8 5.8 10 8.8 70.2 67 80.5 175.8 80.5 175.8z"/>
        <path class="st1" d="M892.5 1187.6s-104 51.2-204.2-19.3c-100.2-70.5-82.5-210-82.5-210s65.8-32.1 169.5 26.3c9.7 5.5 18.6 11.6 26.7 18.4 3.4 2.9 6.8 5.8 10 8.8 70.2 67 80.5 175.8 80.5 175.8z"/>
        <path class="st1" d="M923.4 1251.3v55.8"/>
        <path class="st1" d="M997.9 1251.3v55.8"/>
        <path class="st1" d="M1436.4 692.8v168.8c0-15.1-54.9-28.7-143.3-38.4 1.3-6.2 2-12.6 2-19.1 0-26.5-11.1-50.3-28.9-67.2 5.2-13.7 8.1-28.6 8.1-44.2 0-68.6-55.6-124.2-124.2-124.2-1.5 0-3 0-4.4.1v-.1c0-51.1-41.4-92.5-92.5-92.5s-92.5 41.4-92.5 92.5c0-51.1-41.4-92.5-92.5-92.5-40.9 0-75.6 26.6-87.8 63.4-29.3-11.4-62.7 2.2-75.6 31.2-6 13.5-6.6 28.1-2.6 41.3-43.2 7.8-75.9 45.6-75.9 91 0 26.5 11.1 50.3 28.9 67.2-5.2 13.7-8.1 28.6-8.1 44.2 0 2.5.1 5 .2 7.4-96.8 9.8-157.7 24.1-157.7 39.9 0 17.9 77.7 33.8 197 43.5.3.2.5.5.8.7-115.2-8.8-192.8-23-201.6-39.2.1-1 .1-2 .2-3.1V692.8c0-262.5 212.8-475.2 475.2-475.2 262.4-.1 475.2 212.7 475.2 475.2z"/>
        <path class="st1" d="M686.5 905.1c-119.3-9.7-197-25.6-197-43.5 0-15.9 60.9-30.1 157.7-39.9 2 32.8 16.7 62.3 39.3 83.4z"/>
        <path class="st1" d="M686.5 905.1c77.2 6.3 171.8 10 274.1 10.1-101.7 0-196-3.5-273.3-9.4-.2-.3-.5-.5-.8-.7z"/>
        <path class="st1" d="M1221.5 906.7c-44.1 3.1-93.3 5.5-145.9 6.9 52.6-1.5 101.8-3.9 145.9-7.2v.3z"/>
        <path class="st1" d="M1436.4 861.6v2c0 1-.3 2.1-.8 3.1-9.1 16.8-92 31.4-214.1 40.1v-.2c-.4-3.9-1.1-7.7-2.3-11.4 36.9-6.7 66.2-35.3 73.9-71.9 88.4 9.6 143.3 23.2 143.3 38.3z"/>
        <path class="st1" d="M907 1561.2h108.1"/>
        <path class="st1" d="M686.5 905.1c.3.2.5.5.8.7 77.3 5.9 171.6 9.4 273.3 9.4-102.2-.1-196.9-3.8-274.1-10.1zm115.4 97.9c3.1 3.2 6.4 6.1 10 8.8-3.2-3-6.5-6-10-8.8z"/>
        <path class="st1" d="M960.6 568.4v346.7c-102.3-.1-196.9-3.8-274.1-10.1-22.6-21.1-37.4-50.5-39.3-83.5-.2-2.4-.2-4.9-.2-7.4 0-15.6 2.9-30.5 8.1-44.2-17.8-16.9-28.9-40.7-28.9-67.2 0-45.4 32.7-83.2 75.9-91-4-13.2-3.5-27.8 2.6-41.3 12.9-29 46.3-42.6 75.6-31.2 12.2-36.8 46.9-63.4 87.8-63.4 51.1.1 92.5 41.5 92.5 92.6z"/>
        <path class="st1" d="M1221.5 906.5c-44.1 3.3-93.3 5.7-145.9 7.2 52.6-1.4 101.8-3.8 145.9-6.9v-.3z"/>
        <path class="st1" d="M1295.1 804c0 6.6-.7 13-2 19.1-7.7 36.6-37 65.2-73.9 71.9 1.1 3.7 1.9 7.5 2.3 11.4-44.1 3.3-93.3 5.7-145.9 7.2-1.9.1-3.8.1-5.7.2-3 .1-6 .2-9 .2-1.2 0-2.4.1-3.6.1-5.7.1-11.4.2-17.1.4-2.9.1-5.8.1-8.6.2h-2.3c-5.4.1-10.8.2-16.3.2-5.5.1-10.9.1-16.5.2-2.2 0-4.3 0-6.5.1-3.3 0-6.6 0-9.8.1h-19.3V568.4c0-51.1 41.4-92.5 92.5-92.5s92.5 41.4 92.5 92.5v.1c1.5-.1 2.9-.1 4.4-.1 68.6 0 124.2 55.6 124.2 124.2 0 15.6-2.9 30.5-8.1 44.2 17.6 16.9 28.7 40.7 28.7 67.2z"/>
        <path class="st1" d="M1040.1 914.4c5.7-.1 11.5-.2 17.1-.4-5.6.2-11.3.3-17.1.4z"/>
        <path class="st1" d="M1436.4 892.1c0-8.6-.3-17.1-.8-25.6-9.1 16.8-92 31.4-214.1 40.1-44.1 3.1-93.3 5.5-145.9 6.9-1.9.1-3.8.1-5.7.2-3 .1-6 .2-9 .2-1.2 0-2.4.1-3.6.1-5.7.1-11.4.3-17.1.4-2.9.1-5.8.1-8.6.2h-2.3c-5.4.1-10.8.2-16.3.2-5.5.1-10.9.1-16.5.2-2.2 0-4.3 0-6.5.1-3.3 0-6.6 0-9.8.1h-19.3c-101.7 0-196-3.5-273.3-9.4-115.2-8.8-192.8-23-201.6-39.2-.6 8.5-.8 17-.8 25.6 0 173.3 113.2 322.7 276.3 391-20.1 46.5-40.1 115.2-15.7 168.5 40.7 89.2 124.1 211.4 124.1 211.4s25 40.7 91 40.7c66.1 0 91-40.7 91-40.7s83.4-122.2 124.1-211.4c24.4-53.4 4.3-122-15.7-168.5 162.9-68.3 276.1-217.7 276.1-391.1zm-748.2 276.2c-100.2-70.5-82.5-210-82.5-210s65.8-32.1 169.5 26.3c9.7 5.5 18.6 11.6 26.7 18.4 3.4 2.9 6.8 5.8 10 8.8 70.3 67 80.6 175.7 80.6 175.7s-104 51.2-204.3-19.2zm543.5 0c-100.2 70.4-204.2 19.3-204.2 19.3s9.9-105 76.9-172.1c5.8-5.8 12-11.3 18.7-16.5 6.7-5.2 14-10 21.7-14.4 9.5-5.4 18.7-10 27.6-13.9 7.8-3.5 15.4-6.4 22.7-8.9 74.2-25.4 119.2-3.4 119.2-3.4s17.6 139.4-82.6 209.9z"/>
        <path class="st1" d="M1231.7 1168.3c-100.2 70.4-204.2 19.3-204.2 19.3s9.9-105 76.9-172.1c5.8-5.8 12-11.3 18.7-16.5 6.7-5.2 14-10 21.7-14.4 9.5-5.4 18.7-10 27.6-13.9 7.8-3.5 15.4-6.4 22.7-8.9 74.2-25.4 119.2-3.4 119.2-3.4s17.6 139.4-82.6 209.9z"/>
        <path class="st1" d="M1145.7 568.4s-56.9 16.4-60.7 64.9"/>
        <path class="st1" d="M655.1 770s33.3-40.1 74.2-26.1"/>
        <path class="st1" d="M686.5 905.1c-119.3-9.7-197-25.6-197-43.5 0-15.9 60.9-30.1 157.7-39.9 2 32.8 16.7 62.3 39.3 83.4z"/>
        <path class="st1" d="M1057.3 914.1c-5.7.1-11.4.3-17.1.4 5.7-.2 11.4-.3 17.1-.4z"/>
        <path class="st1" d="M1219.2 895s-60.7-14.6-61.7-49.9"/>
        <path class="st1" d="M804.1 643.8s44.8 12.6 33.3 51.7"/>
    </g>
</svg>
