<svg xmlns="http://www.w3.org/2000/svg" viewBox="0 0 1920 1920">
    <style>
        .st0{fill:#fff}.st1{fill:none;stroke:#000;stroke-width:50;stroke-linecap:round;stroke-linejoin:round;stroke-miterlimit:10}
    </style>
    <path class="st0" d="M742.5 1470.4c.5 5 .7 10 .7 15.1 0 88.5-71.8 160.3-160.3 160.3-88.5 0-160.3-71.8-160.3-160.3 0-5.1.2-10.1.7-15.1 7.6-81.5 76.2-145.3 159.6-145.3 83.5.1 152 63.9 159.6 145.3zm643-145.2c-83.4 0-152 63.8-159.6 145.2-.5 5-.7 10-.7 15.1 0 88.5 71.8 160.3 160.3 160.3 88.5 0 160.3-71.8 160.3-160.3 0-5.1-.2-10.1-.7-15.1-7.6-81.4-76.1-145.2-159.6-145.2z" id="Layer_13"/>
    <path class="st0" d="M1709.1 1034.3v436.1h-163.9c-7.6-81.4-76.2-145.2-159.6-145.2-83.4 0-152 63.8-159.6 145.2H742.5c-7.6-81.4-76.2-145.2-159.6-145.2-83.4 0-152 63.8-159.6 145.3l-.7-.1H216.9v-856h1084.7l407.5 419.9zm-163.3 0l-301.3-307.9h-217v307.9h518.3z" id="Layer_14"/>
    <path class="st0" d="M1244.6 726.4l301.2 307.9h-518.2V726.4z" id="Layer_15"/>
    <path class="st0" d="M936.8 529.8v84.7H743.2v-84.7h151.4z" id="Layer_16"/>
    <path class="st0" d="M785.4 463.8c0-30 24.6-54.6 54.6-54.6 15 0 28.7 6.1 38.6 16 9.9 9.9 16 23.6 16 38.6v66H785.4v-66z" id="Layer_17"/>
    <g id="STROKE">
        <g id="XMLID_1_">
            <path class="st1" d="M936.8 614.5h364.8l407.5 419.8v436.1h-164"/>
            <path class="st1" d="M422.6 1470.4H216.9V614.5h526.3"/>
            <path class="st1" d="M742.5 1470.4h483.4"/>
            <path class="st1" d="M582.9 740.8v279"/>
            <path class="st1" d="M722.4 880.3h-279"/>
            <path class="st1" d="M1545.1 1470.4c.5 5 .7 10 .7 15.1 0 88.5-71.8 160.3-160.3 160.3-88.5 0-160.3-71.8-160.3-160.3 0-5.1.2-10.1.7-15.1 7.6-81.4 76.2-145.2 159.6-145.2 83.5 0 152 63.8 159.6 145.2z"/>
            <path class="st1" d="M742.5 1470.4c.5 5 .7 10 .7 15.1 0 88.5-71.8 160.3-160.3 160.3-88.5 0-160.3-71.8-160.3-160.3 0-5.1.2-10.1.7-15.1 7.6-81.5 76.2-145.3 159.6-145.3 83.5.1 152 63.9 159.6 145.3z"/>
            <path class="st1" d="M1027.6 726.4v307.9h518.2l-301.2-307.9z"/>
            <path class="st1" d="M936.8 614.5v-84.7H743.2v84.7z"/>
            <path class="st1" d="M785.4 529.8v-66c0-30 24.6-54.6 54.6-54.6 15 0 28.7 6.1 38.6 16 9.9 9.9 16 23.6 16 38.6v66"/>
        </g>
    </g>
</svg>
