<svg xmlns="http://www.w3.org/2000/svg" viewBox="0 0 1920 1920">
    <style>
        .st0{fill:#fff}.st1{fill:none;stroke:#000;stroke-width:50;stroke-linecap:round;stroke-linejoin:round;stroke-miterlimit:10}
    </style>
    <path class="st0" d="M647.2 1325.3c.3 3.5.4 7 .4 10.6 0 73.5-59.5 133-133 133s-133-59.6-133-133c0-3.6.1-7.1.4-10.6 5.4-68.5 62.7-122.4 132.6-122.4s127.2 53.9 132.6 122.4zm692.6-122.4c-69.9 0-127.2 53.9-132.6 122.4-.3 3.5-.4 7.1-.4 10.7 0 73.5 59.5 133 133 133s133-59.6 133-133c0-4.2-.2-8.3-.6-12.4-6.2-67.8-63.1-120.7-132.4-120.7z" id="Layer_2"/>
    <path class="st0" d="M1701.3 1045.6v277.9h-229.1c-6.3-67.6-63.2-120.6-132.4-120.6-69.9 0-127.2 53.9-132.6 122.4h-90.7V927h292.4l-114.3-280.7h-178.1V530.4H1354s125.8 8.6 125.8 115.8h-66.5l110 255.1h33.8c79.6 0 144.2 64.6 144.2 144.3z" id="Layer_4"/>
    <path class="st0" d="M1294.6 646.2L1408.9 927h-292.4V646.2z" id="Layer_5"/>
    <path class="st0" d="M1116.5 927v398.3H647.2c-5.4-68.5-62.7-122.4-132.6-122.4s-127.2 53.9-132.6 122.4H274.6c-31.7 0-57.6-25.9-57.6-57.6v-731c0-31.7 25.9-57.6 57.6-57.6h784.3c31.7 0 57.6 25.9 57.6 57.6V927zm-259.2-.3V806.2H710.5V659.5H590.1v146.8H443.3v120.4h146.8v146.8h120.4V926.7h146.8z" id="Layer_6"/>
    <path class="st0" d="M857.3 806.2v120.5H710.5v146.7H590.1V926.7H443.3V806.2h146.8V659.5h120.4v146.7z" id="Layer_7"/>
    <g id="STROKE">
        <path class="st1" d="M1116.5 1325.2H647.6"/>
        <path class="st1" d="M381.6 1325.2h-107c-31.7 0-57.6-25.9-57.6-57.6v-731c0-31.7 25.9-57.6 57.6-57.6h784.3c31.7 0 57.6 25.9 57.6 57.6"/>
        <path class="st1" d="M857.3 806.2H710.5V659.5H590.1v146.7H443.3v120.5h146.8v146.7h120.4V926.7h146.8z"/>
        <path class="st1" d="M647.2 1325.3c.3 3.5.4 7 .4 10.6 0 73.5-59.5 133-133 133s-133-59.6-133-133c0-3.6.1-7.1.4-10.6 5.4-68.5 62.7-122.4 132.6-122.4s127.2 53.9 132.6 122.4z"/>
        <path class="st1" d="M1472.2 1323.5c.4 4.1.6 8.2.6 12.4 0 73.5-59.6 133-133 133-73.5 0-133-59.6-133-133 0-3.6.1-7.1.4-10.7 5.4-68.5 62.7-122.4 132.6-122.4 69.3.1 126.2 53 132.4 120.7z"/>
        <path class="st1" d="M1472.2 1323.5h229.1v-277.9c0-79.7-64.6-144.3-144.3-144.3h-33.8l-110-255.1h66.5c0-107.2-125.8-115.8-125.8-115.8h-237.5v794.9h90.7"/>
        <path class="st1" d="M1116.5 646.2h178.1L1408.9 927h-292.4"/>
    </g>
</svg>
