<svg xmlns="http://www.w3.org/2000/svg" viewBox="0 0 1920 1920">
    <style>
        .st0{fill:#fff}.st1{fill:none;stroke:#000;stroke-width:50;stroke-linecap:round;stroke-linejoin:round;stroke-miterlimit:10}
    </style>
    <path class="st0" d="M1339.8 1267.3c55.7 0 100.8 45.1 100.8 100.8 0 55.7-45.1 100.8-100.8 100.8-55.7 0-100.8-45.1-100.8-100.8 0-55.6 45.2-100.8 100.8-100.8zm-926 100.8c0 55.7 45.1 100.8 100.8 100.8 55.7 0 100.8-45.1 100.8-100.8 0-55.7-45.1-100.8-100.8-100.8-55.7 0-100.8 45.2-100.8 100.8z" id="Layer_8"/>
    <path class="st0" d="M1703.1 1154.4v213.7h-262.5c0-55.7-45.1-100.8-100.8-100.8-55.7 0-100.8 45.1-100.8 100.8H615.4c0-55.7-45.1-100.8-100.8-100.8-55.7 0-100.8 45.1-100.8 100.8h-120v-213.7h1409.3z" id="Layer_3"/>
    <path class="st0" d="M1703.1 837.6v316.8h-663.6V559.7H1469v278h234.1zm-338.7.1V655.9H1148v181.8h216.4z" id="Layer_9"/>
    <path class="st0" d="M1039.5 559.7v594.7H266.2c-27.1 0-49.2-22.2-49.2-49.2v-577c0-27.1 22.2-49.2 49.2-49.2h724.1c27.1 0 49.2 22.1 49.2 49.2v31.5zM835.2 876.9V756.5H688.4V609.7H568v146.8H421.2v120.4H568v146.8h120.4V876.9h146.8z" id="Layer_10"/>
    <path class="st0" d="M835.2 756.5v120.4H688.4v146.8H568V876.9H421.2V756.5H568V609.7h120.4v146.8z" id="Layer_11"/>
    <path class="st0" d="M1148 655.9h216.4v181.8H1148z" id="Layer_12"/>
    <g id="STROKE">
        <path class="st1" d="M293.8 1154.4h-27.6c-27.1 0-49.2-22.2-49.2-49.2v-577c0-27.1 22.2-49.2 49.2-49.2h724.1c27.1 0 49.2 22.1 49.2 49.2v626.2"/>
        <path class="st1" d="M835.2 756.5H688.4V609.7H568v146.8H421.2v120.4H568v146.8h120.4V876.9h146.8z"/>
        <path class="st1" d="M1025.8 1154.4h-732v213.7h120"/>
        <path class="st1" d="M1440.6 1368.1h262.5v-213.7"/>
        <path class="st1" d="M615.4 1368.1H1239"/>
        <path class="st1" d="M1148 655.9h216.4v181.8H1148z"/>
        <path class="st1" d="M1039.5 559.7H1469v277.9h234.1v316.8h-677.3"/>
        <path class="st1" d="M615.4 1368.1c0 55.7-45.1 100.8-100.8 100.8-55.7 0-100.8-45.1-100.8-100.8 0-55.7 45.1-100.8 100.8-100.8 55.7 0 100.8 45.2 100.8 100.8z"/>
        <path class="st1" d="M1440.6 1368.1c0 55.7-45.1 100.8-100.8 100.8-55.7 0-100.8-45.1-100.8-100.8 0-55.7 45.1-100.8 100.8-100.8 55.7 0 100.8 45.2 100.8 100.8z"/>
    </g>
</svg>
