<svg xmlns="http://www.w3.org/2000/svg" viewBox="0 0 1920 1920">
    <style>
        .st0{fill:#fff}.st1{fill:none;stroke:#231f20;stroke-width:50;stroke-linecap:round;stroke-linejoin:round;stroke-miterlimit:10}
    </style>
    <path class="st0" d="M428.3 652.3l-25 14.7v38.2l-35.2 26.4v38.2l-32.3 22v41.1L299.1 849v54.3L258 935.6V984l-41.1 32.3v47s317 45.1 369.7 204.4v-28.8H766v-33.2h180.2v-54H1150V1080h198.2V976.1h192.5v-94.4H1703C1499.8 654.1 428.3 652.3 428.3 652.3z" id="Layer_11"/>
    <path class="st0" d="M1540.7 881.7v94.4h-192.5v103.8H1150v71.7H946.2v54.1H766v33.2H586.7v28.8H1703v-386z" id="Layer_12"/>
    <g id="STROKES">
        <path class="st1" d="M586.7 1267.7v-28.8H766v-33.2h180.2v-54H1150V1080h198.2V976.1h192.5v-94.4H1703C1499.8 654.1 428.3 652.3 428.3 652.3l-25 14.7v38.2l-35.2 26.4v38.2l-32.3 22v41.1L299.1 849v54.3L258 935.6V984l-41.1 32.3v47s317 45.1 369.8 204.4z"/>
        <path class="st1" d="M1540.7 881.7S1303.3 651.3 403.3 667"/>
        <path class="st1" d="M1348.2 976.1s-162.3-258.9-980.1-244.5"/>
        <path class="st1" d="M1150 1079.9s-41.4-285.7-814.2-288.2"/>
        <path class="st1" d="M946.2 1151.6s58.3-253.8-647.1-302.6"/>
        <path class="st1" d="M766 1205.7s35.3-244.8-507.9-270.1"/>
        <path class="st1" d="M586.7 1238.9S603.5 1071.2 217 1035"/>
        <path class="st1" d="M586.7 1267.7h1116.4v-386"/>
    </g>
</svg>
