<svg xmlns="http://www.w3.org/2000/svg" viewBox="0 0 1920 1920">
    <style>
        .st0{fill:#fff}.st1{fill:none;stroke:#231f20;stroke-width:50;stroke-linecap:round;stroke-linejoin:round;stroke-miterlimit:10}
    </style>
    <path class="st0" d="M1532.9 785.5v108.8h-115.4v77.4H1306v64.7h-90.8v59.2h-85.6c31.6 25.1 50.6 57.2 50.6 92.3 0 79.9-98.6 144.7-220.1 144.7s-220.2-64.8-220.2-144.7c0-35.1 19-67.2 50.6-92.3h-84.8v-59.2H613v-64.7H502.2v-77.4H387.6V785.1C281 869.6 217 978.2 217 1096.6c0 269.8 332.7 488.5 743.1 488.5 410.4 0 743-218.7 743-488.5 0-118.2-63.9-226.6-170.2-311.1z" id="Layer_2"/>
    <path class="st0" d="M1129.6 1095.6H790.4c-31.6 25.1-50.6 57.2-50.6 92.3 0 79.9 98.6 144.7 220.2 144.7s220.1-64.8 220.1-144.7c.1-35.1-18.9-67.2-50.5-92.3z" id="Layer_4"/>
    <path class="st0" d="M960 923.3c-27 0-48.8 21.9-48.8 48.8v123.5h97.7V972.2c-.1-27-21.9-48.9-48.9-48.9z" id="Layer_5"/>
    <path class="st0" d="M960 493L387.6 628.1v266.1h114.6v77.4H613v64.7h92.6v59.2h205.5V972.2c0-7.6 1.7-14.8 4.8-21.2.3-.7.7-1.4 1.1-2.1 2.2-4.2 5.1-7.9 8.4-11.3 3.3-3.3 7.1-6.2 11.3-8.4.7-.4 1.4-.7 2.1-1.1l21.2-4.8c27 0 48.8 21.9 48.8 48.9v123.5h206.4v-58.6c-.3-.2-.6-.4-.8-.7h91.6v-64.7h111.5v-77.4h114.9V628.1L960 493z" id="Layer_6"/>
    <g id="STROKES">
        <path class="st1" d="M1290.2 1174.8c0 119.9-147.9 217.1-330.2 217.1-182.4 0-330.3-97.2-330.3-217.1 0-52.6 28.5-100.9 75.9-138.4v59.2h84.8c-31.6 25.1-50.6 57.2-50.6 92.3 0 79.9 98.6 144.7 220.2 144.7s220.2-64.8 220.2-144.7c0-35.1-19-67.2-50.6-92.3h85.6V1037c46.9 37.5 75 85.5 75 137.8z"/>
        <path class="st1" d="M1554.3 1143.4c0 215.8-266.1 390.7-594.3 390.7s-594.3-174.9-594.3-390.7c0-94.7 51.2-181.5 136.5-249.1v77.4H613v64.7h92.6v59.2h84.8c-31.6 25.1-50.6 57.2-50.6 92.3 0 79.9 98.6 144.7 220.2 144.7s220.2-64.8 220.2-144.7c0-35.1-19-67.2-50.6-92.3h85.6V1037c-.3-.2-.6-.4-.8-.7h91.6v-64.7h111.5v-77.4h.3c85.3 67.7 136.5 154.5 136.5 249.2z"/>
        <path class="st1" d="M1410.5 1160.5c0 163.5-201.7 296.1-450.4 296.1-248.8 0-450.5-132.6-450.5-296.1 0-71.8 38.9-137.6 103.5-188.8v64.7h92.6v59.2h84.8c-31.6 25.1-50.6 57.2-50.6 92.3 0 79.9 98.6 144.7 220.2 144.7s220.2-64.8 220.2-144.7c0-35.1-19-67.2-50.6-92.3h85.6V1037c-.3-.2-.6-.4-.8-.7h91.6v-64.7h1c64.5 51.3 103.4 117.1 103.4 188.9z"/>
        <path class="st1" d="M1703.1 1096.6c0 269.8-332.7 488.5-743 488.5S217 1366.4 217 1096.6c0-118.4 64.1-226.9 170.7-311.5v109.1h114.6v77.4H613v64.7h92.6v59.2h84.8c-31.6 25.1-50.6 57.2-50.6 92.3 0 79.9 98.6 144.7 220.2 144.7s220.2-64.8 220.2-144.7c0-35.1-19-67.2-50.6-92.3h85.6V1037c-.3-.2-.6-.4-.8-.7h91.6v-64.7h111.5v-77.4h115.4V785.5c106.3 84.5 170.2 192.9 170.2 311.1z"/>
        <path class="st1" d="M1532.9 785.1v.4c-.2-.1-.3-.3-.5-.4h.5z"/>
        <path class="st1" d="M1290.2 1174.8c0 119.9-147.9 217.1-330.2 217.1-182.4 0-330.3-97.2-330.3-217.1 0-52.6 28.5-100.9 75.9-138.4v59.2h84.8c-31.6 25.1-50.6 57.2-50.6 92.3 0 79.9 98.6 144.7 220.2 144.7s220.2-64.8 220.2-144.7c0-35.1-19-67.2-50.6-92.3h85.6V1037c46.9 37.5 75 85.5 75 137.8z"/>
        <path class="st1" d="M1532.9 785.1v.4c-.2-.1-.3-.3-.5-.4h.5z"/>
        <path class="st1" d="M1215.2 1036.4v.7c-.3-.2-.6-.4-.8-.7h.8z"/>
        <path class="st1" d="M1532.4 628.1v266.1h-114.9v77.4H1306v64.7h-91.6c.3.2.6.4.8.7v58.6h-85.6c31.6 25.1 50.6 57.2 50.6 92.3 0 79.9-98.6 144.7-220.2 144.7s-220.2-64.8-220.2-144.7c0-35.1 19-67.2 50.6-92.3h-84.8v-59.2H613v-64.7H502.2v-77.4H387.6V628.1L960 493l572.4 135.1z"/>
        <path class="st1" d="M790.4 1095.6h339.2"/>
        <path class="st1" d="M1008.8 1095.6h-97.7V972.2c0-27 21.9-48.8 48.8-48.8 27 0 48.8 21.9 48.8 48.8v123.4z"/>
        <path class="st1" d="M387.6 628.1V493"/>
        <path class="st1" d="M1532.4 628.1V493"/>
    </g>
</svg>
