<svg xmlns="http://www.w3.org/2000/svg" viewBox="0 0 1920 1920">
    <style>
        .st0{fill:#fff}.st1{fill:none;stroke:#231f20;stroke-width:50;stroke-linecap:round;stroke-linejoin:round;stroke-miterlimit:10}
    </style>
    <path class="st0" d="M1369.6 685c-121.1-14.1-260.8-22.2-409.6-22.2s-288.5 8-409.6 22.2c-141.9 16.5-258.2 41.4-333.5 71.4l108.7 66.3c71.4-21.7 206.9-41.3 374.1-51.8 82.1-5.2 171.7-8.1 265.2-8.1 90.7 0 176.7 2.8 255.4 7.7 167.7 10.4 301.7 30.2 374.1 52.3l108.7-66.3c-75.3-30.1-191.6-55-333.5-71.5z" id="Layer_7"/>
    <path class="st0" d="M960 825.2c-88.1 0-172.3 2.3-249.3 6.4-161.4 8.6-291.7 25.3-362.6 46.4l95.3 41.9 106.8 46.9h.2c2.8-.7 5.7-1.4 8.7-2 1.4-.3 2.8-.6 4.3-1l2-.4c1.2-.3 2.4-.5 3.7-.8 2.1-.5 4.3-.9 6.5-1.4 3.3-.7 6.7-1.4 10.2-2 1.2-.2 2.3-.4 3.5-.7 6.9-1.3 14.1-2.6 21.5-3.8 1.4-.2 2.7-.4 4.1-.7 1.2-.2 2.5-.4 3.7-.6l5.4-.9c18.2-2.9 37.7-5.5 58.2-7.8 1.9-.2 3.8-.4 5.8-.7 1.7-.2 3.5-.4 5.2-.6 7.8-.9 15.7-1.7 23.8-2.5 1.9-.2 3.9-.4 5.9-.5 2.4-.2 4.7-.4 7.1-.7 1.2-.1 2.3-.2 3.5-.3 2.1-.2 4.3-.4 6.4-.6 2-.2 4.1-.3 6.1-.5 5.2-.4 10.5-.8 15.8-1.2 2.7-.2 5.3-.4 8-.6 5.3-.4 10.7-.8 16.2-1.1 2.1-.1 4.2-.3 6.3-.4 6.1-.4 12.3-.7 18.4-1.1 2.8-.2 5.6-.3 8.4-.4 2.8-.1 5.6-.3 8.4-.4 2.8-.1 5.6-.3 8.5-.4 2.8-.1 5.7-.2 8.6-.4 5.2-.2 10.5-.4 15.7-.6h1.5l8.7-.3c5.8-.2 11.7-.4 17.6-.5 5.8-.2 11.7-.3 17.6-.4 3-.1 6.1-.1 9.1-.2s6-.1 9-.1c4.4-.1 8.8-.1 13.3-.1 2.5 0 4.9 0 7.4-.1h31.4c2.5 0 5 0 7.4.1 4.4 0 8.9.1 13.3.1 3 0 6 .1 9 .1s6.1.1 9.1.2c5.9.1 11.8.2 17.6.4 5.9.1 11.8.3 17.6.5l8.7.3h1.5c5.3.2 10.5.4 15.7.6 2.9.1 5.7.2 8.6.4 2.9.1 5.7.2 8.5.4 2.8.1 5.6.3 8.4.4 2.8.2 5.6.3 8.4.4 6.2.3 12.3.7 18.4 1.1 2.1.1 4.2.3 6.3.4 5.4.3 10.8.7 16.2 1.1 2.7.2 5.3.4 8 .6 5.3.4 10.5.8 15.8 1.2 2 .2 4.1.3 6.1.5 2.1.2 4.3.4 6.4.6 1.2.1 2.3.2 3.5.3 2.4.2 4.7.4 7.1.7 2 .2 3.9.4 5.9.5 8.1.8 16 1.6 23.8 2.5 1.7.2 3.5.4 5.2.6 1.9.2 3.9.4 5.8.7 20.5 2.4 39.9 5 58.2 7.8l5.4.9c1.2.2 2.5.4 3.7.6 1.4.2 2.7.4 4.1.7 7.4 1.2 14.6 2.5 21.5 3.8 1.2.2 2.3.4 3.5.7 3.4.7 6.8 1.3 10.2 2 2.2.5 4.4.9 6.5 1.4 1.2.3 2.4.5 3.7.8l2 .4c1.4.3 2.9.6 4.3 1 3 .7 5.8 1.3 8.7 2h.2l106.8-46.9 95.3-41.9c-70.9-21-201.2-37.8-362.6-46.4-77.4-4.2-161.6-6.4-249.7-6.4z" id="Layer_14"/>
    <path class="st0" d="M1356.7 963.7l-2-.4c-1.2-.3-2.4-.5-3.7-.8-2.1-.5-4.3-.9-6.5-1.4-3.3-.7-6.7-1.4-10.2-2-1.2-.2-2.3-.4-3.5-.7-6.9-1.3-14.1-2.6-21.5-3.8-1.4-.2-2.7-.4-4.1-.7-1.2-.2-2.5-.4-3.7-.6l-5.4-.9c-18.2-2.9-37.7-5.5-58.2-7.8-1.9-.2-3.8-.4-5.8-.7-1.7-.2-3.5-.4-5.2-.6-7.8-.9-15.7-1.7-23.8-2.5-1.9-.2-3.9-.4-5.9-.5-2.4-.2-4.7-.4-7.1-.7-1.2-.1-2.3-.2-3.5-.3-2.1-.2-4.3-.4-6.4-.6-2-.2-4.1-.3-6.1-.5-5.2-.4-10.5-.8-15.8-1.2-2.7-.2-5.3-.4-8-.6-5.3-.4-10.7-.7-16.2-1.1-2.1-.1-4.2-.3-6.3-.4-6.1-.4-12.3-.7-18.4-1.1-2.8-.2-5.6-.3-8.4-.4-2.8-.1-5.6-.3-8.4-.4-2.8-.1-5.6-.3-8.5-.4-2.8-.1-5.7-.2-8.6-.4-5.2-.2-10.5-.4-15.7-.6h-1.5l-8.7-.3c-5.8-.2-11.7-.4-17.6-.5-5.8-.2-11.7-.3-17.6-.4-3-.1-6.1-.1-9.1-.2s-6-.1-9-.1c-4.4-.1-8.8-.1-13.3-.1-2.5 0-4.9 0-7.4-.1h-31.4c-2.5 0-5 0-7.4.1-4.4 0-8.9.1-13.3.1-3 0-6 .1-9 .1s-6.1.1-9.1.2c-5.9.1-11.8.2-17.6.4-5.9.1-11.8.3-17.6.5l-8.7.3H860c-5.3.2-10.5.4-15.7.6-2.9.1-5.7.2-8.6.4-2.9.1-5.7.2-8.5.4-2.8.1-5.6.3-8.4.4-2.8.2-5.6.3-8.4.4-6.2.3-12.3.7-18.4 1.1-2.1.1-4.2.3-6.3.4-5.4.4-10.8.7-16.2 1.1-2.7.2-5.3.4-8 .6-5.3.4-10.5.8-15.8 1.2-2 .2-4.1.3-6.1.5-2.1.2-4.3.4-6.4.6-1.2.1-2.3.2-3.5.3-2.4.2-4.7.4-7.1.7-2 .2-3.9.4-5.9.5-8.1.8-16 1.6-23.8 2.5-1.7.2-3.5.4-5.2.6-1.9.2-3.8.4-5.8.7-20.5 2.4-39.9 5-58.2 7.8l-5.4.9c-1.2.2-2.5.4-3.7.6-1.4.2-2.7.4-4.1.7-7.4 1.2-14.6 2.5-21.5 3.8-1.2.2-2.3.4-3.5.7-3.4.7-6.8 1.3-10.2 2-2.2.5-4.4.9-6.5 1.4-1.2.3-2.4.5-3.7.8l-2 .4c-1.4.3-2.9.6-4.3 1-3 .7-5.8 1.3-8.7 2v52.5s124-14 260.1-21.5c50-2.8 101.7-4.7 149.5-4.7s99.5 1.9 149.5 4.7c136.1 7.5 260.1 21.5 260.1 21.5v-52.5c-2.8-.7-5.7-1.4-8.7-2-1.1-.4-2.5-.7-3.9-1z" id="Layer_8"/>
    <path class="st0" d="M1220.3 770.4c-78.6-4.9-164.7-7.7-255.4-7.7-93.5 0-183.2 3-265.2 8.1-167.2 10.5-302.8 30.1-374.1 51.8l22.5 13.7v41.6c70.9-21 201.2-37.8 362.6-46.4 77.1-4.1 161.2-6.4 249.3-6.4s172.3 2.3 249.3 6.4c161.4 8.6 291.7 25.3 362.6 46.4v-41.6l22.5-13.7c-72.4-22-206.4-41.8-374.1-52.2z" id="Layer_15"/>
    <path class="st0" d="M348.1 877.9v-41.5l-22.5-13.7-108.7-66.3v189.3l333.3 73.4v-52.4l-106.8-46.9z" id="Layer_9"/>
    <path class="st0" d="M1594.4 822.7l-22.5 13.7V878l-95.3 41.9-106.8 46.9h-.2v52.5l333.5-73.5V756.4l-108.7 66.3z" id="Layer_16"/>
    <ellipse class="st0" cx="960" cy="1122.1" rx="279.6" ry="39.9" id="Layer_10"/>
    <path class="st0" d="M960 1162c-154.4 0-279.6-17.9-279.6-39.9v95.1c0 22 125.2 39.9 279.6 39.9s279.6-17.9 279.6-39.9v-95.1c0 22-125.2 39.9-279.6 39.9z" id="Layer_13"/>
    <g id="STROKES">
        <path class="st1" d="M785.8 935.4c-5.4.4-10.8.7-16.2 1.1 5.3-.3 10.7-.7 16.2-1.1z"/>
        <path class="st1" d="M1150.4 936.5c-5.3-.4-10.7-.7-16.2-1.1 5.5.4 10.9.8 16.2 1.1z"/>
        <path class="st1" d="M1703.1 756.4l-108.7 66.3-22.5 13.7V878c-104.7-31.1-339.3-52.8-611.9-52.8S452.8 846.9 348.1 878v-41.6l-22.5-13.7-108.7-66.3c139.5-55.6 419.9-93.5 743.1-93.5s603.5 37.9 743.1 93.5z"/>
        <path class="st1" d="M785.8 935.4c-5.4.4-10.8.7-16.2 1.1 5.3-.3 10.7-.7 16.2-1.1z"/>
        <path class="st1" d="M1150.4 936.5c-5.3-.4-10.7-.7-16.2-1.1 5.5.4 10.9.8 16.2 1.1z"/>
        <path class="st1" d="M785.8 935.4c-5.4.4-10.8.7-16.2 1.1 5.3-.3 10.7-.7 16.2-1.1z"/>
        <path class="st1" d="M1150.4 936.5c-5.3-.4-10.7-.7-16.2-1.1 5.5.4 10.9.8 16.2 1.1z"/>
        <path class="st1" d="M1571.9 877.9l-95.3 41.9-106.8 46.9c-2.9-.7-5.9-1.4-8.9-2.1-1.4-.3-2.8-.6-4.3-1l-2-.4c-1.2-.3-2.4-.5-3.7-.8-2.1-.5-4.3-.9-6.5-1.4-3.3-.7-6.7-1.4-10.2-2-1.2-.2-2.3-.4-3.5-.7-7-1.3-14.1-2.6-21.5-3.8-1.3-.2-2.7-.4-4.1-.7-1.2-.2-2.5-.4-3.7-.6l-5.4-.9c-18.3-2.9-37.7-5.5-58.2-7.8-1.9-.2-3.8-.4-5.8-.7-1.7-.2-3.5-.4-5.2-.6-7.8-.9-15.7-1.7-23.8-2.4-1.9-.2-3.9-.4-5.9-.6-2.4-.2-4.7-.4-7.1-.6-1.2-.1-2.3-.2-3.5-.3-2.1-.2-4.3-.4-6.4-.6-2-.2-4.1-.3-6.1-.5-5.2-.4-10.5-.8-15.8-1.2-2.7-.2-5.3-.4-8-.6-5.3-.4-10.7-.8-16.2-1.1-2.1-.1-4.2-.3-6.3-.4-6.1-.4-12.3-.7-18.5-1.1-2.8-.1-5.6-.3-8.4-.4-2.8-.1-5.6-.3-8.4-.4-2.8-.1-5.6-.3-8.5-.4-2.8-.1-5.7-.3-8.6-.4-5.2-.2-10.5-.4-15.7-.6-.5 0-1 0-1.5-.1l-8.7-.3c-5.8-.2-11.7-.3-17.6-.5-5.8-.1-11.7-.3-17.6-.4-3-.1-6.1-.1-9.1-.2s-6-.1-9-.1c-4.4-.1-8.8-.1-13.3-.1-2.5 0-4.9 0-7.4-.1H944c-2.5 0-5 0-7.4.1-4.4 0-8.9.1-13.3.1-3 0-6 .1-9 .1s-6.1.1-9.1.2c-5.9.1-11.8.2-17.6.4-5.9.1-11.8.3-17.6.5l-8.7.3c-.5 0-1 0-1.5.1-5.3.2-10.5.4-15.7.6-2.9.1-5.7.2-8.6.4-2.8.1-5.7.3-8.5.4-2.8.1-5.6.3-8.4.4-2.8.1-5.6.3-8.4.4-6.2.3-12.4.7-18.5 1.1-2.1.1-4.2.3-6.3.4-5.4.3-10.8.7-16.2 1.1-2.7.2-5.3.4-8 .6-5.3.4-10.5.8-15.8 1.2-2 .2-4.1.3-6.1.5-2.1.2-4.3.4-6.4.6-1.2.1-2.3.2-3.5.3-2.4.2-4.7.4-7.1.6-2 .2-3.9.4-5.9.6-8.1.8-16 1.6-23.8 2.4-1.7.2-3.5.4-5.2.6-1.9.2-3.8.4-5.8.7-20.5 2.4-39.9 5-58.2 7.8l-5.4.9c-1.3.2-2.5.4-3.7.6-1.4.2-2.7.4-4.1.7-7.4 1.2-14.6 2.5-21.5 3.8-1.2.2-2.3.4-3.5.7-3.5.7-6.8 1.3-10.2 2-2.2.4-4.4.9-6.5 1.4-1.2.3-2.4.5-3.7.8l-2 .4c-1.4.3-2.9.6-4.3 1-3 .7-6 1.4-8.9 2.1l-106.8-46.9-95.3-41.9c104.7-31.1 339.3-52.8 611.9-52.8s507.8 21.7 612.5 52.8z"/>
        <path class="st1" d="M785.8 935.4c-5.4.4-10.8.7-16.2 1.1 5.3-.3 10.7-.7 16.2-1.1z"/>
        <path class="st1" d="M1150.4 936.5c-5.3-.4-10.7-.7-16.2-1.1 5.5.4 10.9.8 16.2 1.1z"/>
        <path class="st1" d="M1594.4 822.7l-22.5 13.7V878c-104.7-31.1-339.3-52.8-611.9-52.8S452.8 846.9 348.1 878v-41.6l-22.5-13.7c106.4-32.4 355.3-60 639.3-60s523.1 27.6 629.5 60z"/>
        <path class="st1" d="M550.2 966.7v52.5"/>
        <path class="st1" d="M1703.1 756.4v189.3l-333.5 73.5v-52.6"/>
        <path class="st1" d="M216.9 756.4v189.3l333.5 73.5v-52.6"/>
        <path class="st1" d="M1369.6 685l-149.3 85.4v49.9L1109.5 934v63.6"/>
        <path class="st1" d="M550.4 685l149.3 85.4v49.9L810.5 934v63.6"/>
        <path class="st1" d="M550.4 1019.2S782.2 993 960 993s409.6 26.2 409.6 26.2"/>
        <ellipse class="st1" cx="960" cy="1122.1" rx="279.6" ry="39.9"/>
        <path class="st1" d="M1239.6 1122.1v95.1c0 22-125.2 39.9-279.6 39.9s-279.6-17.9-279.6-39.9v-95.1c0 22 125.2 39.9 279.6 39.9s279.6-17.9 279.6-39.9z"/>
    </g>
</svg>
