<svg xmlns="http://www.w3.org/2000/svg" viewBox="0 0 1920 1920">
    <style>
        .st0{fill:#fff}.st1{fill:none;stroke:#000;stroke-width:50;stroke-linecap:round;stroke-linejoin:round;stroke-miterlimit:10}
    </style>
    <path class="st0" d="M1674.8 723.7c3.2-84-408-365.4-465.3-164.4-57.4 201-188.8 173.7-188.8 173.7v-47.5c32.4-20.3 54-56.3 54-97.4 0-63.4-51.4-114.7-114.7-114.7S845.3 524.7 845.3 588c0 41.1 21.6 77.1 54 97.4V733s-131.4 27.3-188.8-173.7c-57.4-201-468.5 80.4-465.3 164.4 3.2 84 44.6 39.4 44.6 39.4s-117.9 199.8 70.1 112.6c0 0 31.9 107.3 140.2-26.6 0 0 18.6 121.1 120.9-25.5 0 0 48.1 95.6 108.6 28.7 0 0-12.7 114.3 73.3 53.9 0 0-82.9 124.9 57.4 89.7 0 0-111.2 498.5-221.5 583-13.2 10.1-19.6 26.8-16.8 43.1 5.1 30 32.9 67.9 142.7 62.1h390.6c109.8 5.9 137.6-32 142.7-62.1 2.8-16.3-3.7-33.1-16.8-43.1-110.3-84.5-221.5-583-221.5-583 140.2 35.3 57.4-89.7 57.4-89.7 86.1 60.3 73.3-53.9 73.3-53.9 60.6 66.9 108.6-28.7 108.6-28.7 102.2 146.6 120.9 25.5 120.9 25.5 108.4 133.9 140.2 26.6 140.2 26.6 188 87.1 70.1-112.6 70.1-112.6s41.4 44.6 44.6-39.4z" id="Layer_2"/>
    <g id="STROKES">
        <ellipse class="st1" cx="960" cy="304.1" rx="190.7" ry="87.2"/>
        <path class="st1" d="M1674.8 723.7c3.2-84-408-365.4-465.3-164.4-57.4 201-188.8 173.7-188.8 173.7v-47.5c32.4-20.3 54-56.3 54-97.4 0-63.4-51.4-114.7-114.7-114.7S845.3 524.7 845.3 588c0 41.1 21.6 77.1 54 97.4V733s-131.4 27.3-188.8-173.7c-57.4-201-468.5 80.4-465.3 164.4 3.2 84 44.6 39.4 44.6 39.4s-117.9 199.8 70.1 112.6c0 0 31.9 107.3 140.2-26.6 0 0 18.6 121.1 120.9-25.5 0 0 48.1 95.6 108.6 28.7 0 0-12.7 114.3 73.3 53.9 0 0-82.9 124.9 57.4 89.7 0 0-111.2 498.5-221.5 583-13.2 10.1-19.6 26.8-16.8 43.1 5.1 30 32.9 67.9 142.7 62.1h390.6c109.8 5.9 137.6-32 142.7-62.1 2.8-16.3-3.7-33.1-16.8-43.1-110.3-84.5-221.5-583-221.5-583 140.2 35.3 57.4-89.7 57.4-89.7 86.1 60.3 73.3-53.9 73.3-53.9 60.6 66.9 108.6-28.7 108.6-28.7 102.2 146.6 120.9 25.5 120.9 25.5 108.4 133.9 140.2 26.6 140.2 26.6 188 87.1 70.1-112.6 70.1-112.6s41.4 44.6 44.6-39.4z"/>
    </g>
</svg>
