<svg xmlns="http://www.w3.org/2000/svg" viewBox="0 0 1920 1920">
    <style>
        .st0{fill:#fff}.st1{fill:none;stroke:#000;stroke-width:50;stroke-linecap:round;stroke-linejoin:round;stroke-miterlimit:10}
    </style>
    <path class="st0" d="M1707.5 1105.3S1324.1 599.1 1226 711c-97.1 110.7-119.1 163.9-202.7 99.4 46.6-24.1 78.6-73.9 78.6-131.4 0-81.1-63.5-146.8-141.9-146.8S818.1 597.9 818.1 679c0 57.6 32 107.4 78.6 131.4-83.6 64.5-105.6 11.3-202.7-99.4-98.1-111.8-481.5 394.3-481.5 394.3s79.5 67.5 148.5 0l-115.6 115.6s148.1 37.7 236.8-37.4l-101.8 101.8s160.5 62.1 244.5-75.7c0 0 52.3-207.8 171-138.8l-162 605.9h652l-162-605.9c118.7-69 171 138.8 171 138.8 84 137.9 244.5 75.7 244.5 75.7l-101.8-101.8c88.7 75.1 236.8 37.4 236.8 37.4L1559 1105.3c69 67.6 148.5 0 148.5 0z" id="Layer_6"/>
    <g id="STROKES">
        <ellipse class="st1" cx="960" cy="342.7" rx="232" ry="99.4"/>
        <path class="st1" d="M1707.5 1105.3S1324.1 599.1 1226 711c-97.1 110.7-119.1 163.9-202.7 99.4 46.6-24.1 78.6-73.9 78.6-131.4 0-81.1-63.5-146.8-141.9-146.8S818.1 597.9 818.1 679c0 57.6 32 107.4 78.6 131.4-83.6 64.5-105.6 11.3-202.7-99.4-98.1-111.8-481.5 394.3-481.5 394.3s79.5 67.5 148.5 0l-115.6 115.6s148.1 37.7 236.8-37.4l-101.8 101.8s160.5 62.1 244.5-75.7c0 0 52.3-207.8 171-138.8l-162 605.9h652l-162-605.9c118.7-69 171 138.8 171 138.8 84 137.9 244.5 75.7 244.5 75.7l-101.8-101.8c88.7 75.1 236.8 37.4 236.8 37.4L1559 1105.3c69 67.6 148.5 0 148.5 0z"/>
    </g>
</svg>
