<svg xmlns="http://www.w3.org/2000/svg" viewBox="0 0 1920 1920">
    <style>
        .st0{fill:#fff}.st1{fill:none;stroke:#000;stroke-width:50;stroke-linecap:round;stroke-linejoin:round;stroke-miterlimit:10}
    </style>
    <path class="st0" d="M1359 919.7c-55.7-10-108.9-36.5-151.9-79.6 46.2-46.2 104.3-73.4 164.5-81.5 46.3-6.2 93.8-1.2 138.1 15.1 22.6 8.3 44.4 19.6 64.8 33.8 0 0 59.8-63.2 129.9-59.7 0 0-6.8 58.1-49.6 92.3 42.7 34.2 49.6 92.3 49.6 92.3-36 1.8-69.2-14-93.1-29.8-22.6-15-36.8-29.9-36.8-29.9-49.2 34.3-106.7 51.5-164.2 51.5-17.2.1-34.4-1.4-51.3-4.5zm91.4-218.4l-78.9 57.3c46.3-6.2 93.8-1.2 138.1 15.1l-5.8-49.1c-3.1-25.6-32.5-38.5-53.4-23.3zM539.6 501.8c57.5 0 115.1-17.2 164.2-51.5 0 0 59.8 63.1 129.9 59.7 0 0-6.8-58.1-49.6-92.3 42.8-34.2 49.6-92.3 49.6-92.3-70.1-3.4-129.9 59.7-129.9 59.7-20.4-14.2-42.2-25.5-64.8-33.8-44.3-16.3-91.8-21.3-138.1-15.1-60.2 8.1-118.2 35.3-164.5 81.5 43 43 96.3 69.5 151.9 79.6 17 3 34.2 4.5 51.3 4.5zm40.3-223L501 336.1c46.3-6.2 93.8-1.2 138.1 15.1l-5.8-49.1c-3.1-25.6-32.6-38.5-53.4-23.3zm735.6 40l-78.9 57.3c46.3-6.2 93.8-1.2 138.1 15.1l-5.8-49.1c-3.1-25.6-32.6-38.4-53.4-23.3zm-40.3 223c57.5 0 115.1-17.2 164.2-51.5 0 0 14.2 15 36.8 29.9 23.8 15.8 57.1 31.6 93.1 29.8 0 0-6.8-58.1-49.6-92.3 42.8-34.2 49.6-92.3 49.6-92.3-70.1-3.4-129.9 59.7-129.9 59.7-20.4-14.2-42.2-25.5-64.8-33.8-44.3-16.3-91.8-21.3-138.1-15.1-60.2 8.1-118.2 35.3-164.5 81.5 43 43 96.3 69.5 151.9 79.6 17 3 34.2 4.5 51.3 4.5zm-509.7 80l-78.9 57.3c46.3-6.2 93.8-1.2 138.1 15.1l-5.8-49.1c-3.1-25.6-32.6-38.4-53.4-23.3zm-40.3 223c57.5 0 115.1-17.2 164.2-51.5 0 0 59.8 63.1 129.9 59.7 0 0-6.8-58.1-49.6-92.3 42.8-34.2 49.6-92.3 49.6-92.3-70.1-3.4-129.9 59.7-129.9 59.7-20.4-14.2-42.2-25.5-64.8-33.8-44.3-16.3-91.8-21.3-138.1-15.1-60.2 8.1-118.2 35.3-164.5 81.5 43 43 96.3 69.5 151.9 79.6 17 3 34.2 4.5 51.3 4.5zM415 1150.1c57.5 0 115.1-17.2 164.2-51.5 0 0 14.2 15 36.8 29.9 23.8 15.8 57.1 31.6 93.1 29.8 0 0-6.8-58.1-49.6-92.3 42.8-34.2 49.6-92.3 49.6-92.3-70.1-3.4-129.9 59.7-129.9 59.7-20.4-14.2-42.2-25.5-64.8-33.8-44.3-16.3-91.8-21.3-138.1-15.1-60.2 8.1-118.2 35.3-164.5 81.5 43 43 96.3 69.5 151.9 79.6 17.1 3 34.2 4.5 51.3 4.5zm40.3-223l-78.9 57.3c46.3-6.2 93.8-1.2 138.1 15.1l-5.8-49.1c-3.1-25.6-32.6-38.5-53.4-23.3zM595 1336.7l-78.9 57.3c46.3-6.2 93.8-1.2 138.1 15.1l-5.8-49.1c-3.1-25.6-32.6-38.5-53.4-23.3zm-40.3 223c57.5 0 115.1-17.2 164.2-51.5 0 0 59.8 63.1 129.9 59.7 0 0-6.8-58.1-49.6-92.3 42.8-34.2 49.6-92.3 49.6-92.3-70.1-3.4-129.9 59.7-129.9 59.7-20.4-14.2-42.2-25.5-64.8-33.8-44.3-16.3-91.8-21.3-138.1-15.1-60.2 8.1-118.2 35.3-164.5 81.5 43 43 96.3 69.5 151.9 79.6 17 3 34.2 4.5 51.3 4.5zm896.6-7.8s59.8 63.2 129.9 59.7c0 0-6.8-58.1-49.6-92.3 42.8-34.2 49.6-92.3 49.6-92.3-70.1-3.4-129.9 59.7-129.9 59.7-20.4-14.2-42.2-25.5-64.8-33.8-44.3-16.3-91.8-21.3-138.1-15.1-60.2 8.1-118.2 35.3-164.5 81.5 43 43 96.3 69.5 151.9 79.6 73.8 13.2 151.7-2.4 215.5-47zm-124-171.5l-78.9 57.3c46.3-6.2 93.8-1.2 138.1 15.1l-5.8-49.1c-3.1-25.6-32.5-38.5-53.4-23.3zm-243.5-133.8c57.5 0 115.1-17.2 164.2-51.5 0 0 14.2 15 36.8 29.9 23.8 15.8 57.1 31.6 93.1 29.8 0 0-6.8-58.1-49.6-92.3 42.8-34.2 49.6-92.3 49.6-92.3-70.1-3.4-129.9 59.7-129.9 59.7-20.4-14.2-42.2-25.5-64.8-33.8-44.3-16.3-91.8-21.3-138.1-15.1-60.2 8.1-118.2 35.3-164.5 81.5 43 43 96.3 69.5 151.9 79.6 17 3 34.1 4.5 51.3 4.5zm40.2-223l-78.9 57.3c46.3-6.2 93.8-1.2 138.1 15.1l-5.8-49.1c-3.1-25.6-32.6-38.5-53.4-23.3z" id="Layer_6"/>
    <g id="STROKES">
        <g id="XMLID_1_">
            <path class="st1" d="M363.8 1145.5c16.9 3 34.1 4.6 51.2 4.6 57.5 0 115.1-17.2 164.2-51.5 0 0 14.2 15 36.8 29.9 23.8 15.8 57.1 31.6 93.1 29.8 0 0-6.8-58.1-49.6-92.3 42.8-34.2 49.6-92.3 49.6-92.3-70.1-3.4-129.9 59.7-129.9 59.7-20.4-14.2-42.2-25.5-64.8-33.8-44.3-16.3-91.8-21.3-138.1-15.1-60.2 8.1-118.2 35.3-164.5 81.5 43.1 43 96.4 69.5 152 79.5z"/>
            <path class="st1" d="M382.5 1060.7s23.3 37.1-18.7 84.8"/>
            <path class="st1" d="M376.4 984.4l78.9-57.3c20.9-15.2 50.3-2.3 53.4 23.3l5.8 49.1"/>
            <path class="st1" d="M503.5 1555.1c16.9 3 34.1 4.6 51.2 4.6 57.5 0 115.1-17.2 164.2-51.5 0 0 59.8 63.1 129.9 59.7 0 0-6.8-58.1-49.6-92.3 42.8-34.2 49.6-92.3 49.6-92.3-70.1-3.4-129.9 59.7-129.9 59.7-20.4-14.2-42.2-25.5-64.8-33.8-44.3-16.3-91.8-21.3-138.1-15.1-60.2 8.1-118.2 35.3-164.5 81.5 43.1 43 96.4 69.5 152 79.5z"/>
            <path class="st1" d="M522.2 1470.3s23.3 37.1-18.7 84.8"/>
            <path class="st1" d="M516.1 1394l78.9-57.3c20.9-15.2 50.3-2.3 53.4 23.3l5.8 49.1"/>
            <path class="st1" d="M1032.6 1242c16.9 3.1 34.1 4.6 51.2 4.6 57.5 0 115.1-17.2 164.2-51.5 0 0 14.2 15 36.8 29.9 23.8 15.8 57.1 31.6 93.1 29.8 0 0-6.8-58.1-49.6-92.3 42.8-34.2 49.6-92.3 49.6-92.3-70.1-3.4-129.9 59.7-129.9 59.7-20.4-14.2-42.2-25.5-64.8-33.8-44.3-16.3-91.8-21.3-138.1-15.1-60.2 8.1-118.2 35.3-164.5 81.5 43 42.9 96.3 69.5 152 79.5z"/>
            <path class="st1" d="M1051.2 1157.2s23.3 37.1-18.7 84.8"/>
            <path class="st1" d="M1045.1 1080.9l78.9-57.3c20.8-15.2 50.3-2.3 53.4 23.3l5.8 49.1"/>
            <path class="st1" d="M1083.9 1519.3c43 43 96.3 69.5 151.9 79.6 73.7 13.3 151.6-2.4 215.5-46.9 0 0 59.8 63.1 129.9 59.7 0 0-6.8-58.1-49.6-92.3 42.8-34.2 49.6-92.3 49.6-92.3-70.1-3.4-129.9 59.7-129.9 59.7-20.4-14.2-42.2-25.5-64.8-33.8-44.3-16.3-91.8-21.3-138.1-15.1-60.1 7.9-118.2 35.1-164.5 81.4"/>
            <path class="st1" d="M1254.5 1514s23.3 37.1-18.7 84.8"/>
            <path class="st1" d="M1248.4 1437.7l78.9-57.3c20.9-15.2 50.3-2.3 53.4 23.3l5.8 49.1"/>
            <path class="st1" d="M1359 919.7c16.9 3 34.1 4.6 51.2 4.6 57.5 0 115.1-17.2 164.2-51.5 0 0 14.2 15 36.8 29.9 23.8 15.8 57.1 31.6 93.1 29.8 0 0-6.8-58.1-49.6-92.3 42.7-34.2 49.6-92.3 49.6-92.3-70.1-3.4-129.9 59.7-129.9 59.7-20.4-14.2-42.2-25.5-64.8-33.8-44.3-16.3-91.8-21.3-138.1-15.1-60.2 8.1-118.2 35.3-164.5 81.5 43.1 43 96.3 69.5 152 79.5z"/>
            <path class="st1" d="M1377.7 834.9s23.3 37.1-18.7 84.8"/>
            <path class="st1" d="M1371.5 758.6l78.9-57.3c20.8-15.2 50.3-2.3 53.4 23.3l5.8 49.1"/>
            <path class="st1" d="M488.4 497.2c16.9 3.1 34.1 4.6 51.2 4.6 57.5 0 115.1-17.2 164.2-51.5 0 0 59.8 63.1 129.9 59.7 0 0-6.8-58.1-49.6-92.3 42.8-34.2 49.6-92.3 49.6-92.3-70.1-3.4-129.9 59.7-129.9 59.7-20.4-14.2-42.2-25.5-64.8-33.8-44.3-16.3-91.8-21.3-138.1-15.1-60.2 8.1-118.2 35.3-164.5 81.5 43.1 43 96.4 69.5 152 79.5z"/>
            <path class="st1" d="M507.1 412.4s23.3 37.1-18.7 84.8"/>
            <path class="st1" d="M501 336.1l78.9-57.3c20.8-15.2 50.3-2.3 53.4 23.3l5.8 49.1"/>
            <path class="st1" d="M674 840.2c16.9 3 34.1 4.6 51.2 4.6 57.5 0 115.1-17.2 164.2-51.5 0 0 59.8 63.1 129.9 59.7 0 0-6.8-58.1-49.6-92.3 42.8-34.2 49.6-92.3 49.6-92.3-70.1-3.4-129.9 59.7-129.9 59.7-20.4-14.2-42.2-25.5-64.8-33.8-44.3-16.3-91.8-21.3-138.1-15.1-60.2 8.1-118.2 35.3-164.5 81.5 43.1 43 96.4 69.5 152 79.5z"/>
            <path class="st1" d="M692.7 755.4s23.3 37.1-18.7 84.8"/>
            <path class="st1" d="M686.6 679.1l78.9-57.3c20.9-15.2 50.3-2.3 53.4 23.3l5.8 49.1"/>
            <path class="st1" d="M1224 537.2c16.9 3 34.1 4.6 51.2 4.6 57.5 0 115.1-17.2 164.2-51.5 0 0 14.2 15 36.8 29.9 23.8 15.8 57.1 31.6 93.1 29.8 0 0-6.8-58.1-49.6-92.3 42.8-34.2 49.6-92.3 49.6-92.3-70.1-3.4-129.9 59.7-129.9 59.7-20.4-14.2-42.2-25.5-64.8-33.8-44.3-16.3-91.8-21.3-138.1-15.1-60.2 8.1-118.2 35.3-164.5 81.5 43.1 43 96.3 69.5 152 79.5z"/>
            <path class="st1" d="M1242.7 452.4s23.3 37.1-18.7 84.8"/>
            <path class="st1" d="M1236.6 376.1l78.9-57.3c20.9-15.1 50.3-2.3 53.4 23.3l5.8 49.1"/>
        </g>
    </g>
</svg>
