<svg xmlns="http://www.w3.org/2000/svg" viewBox="0 0 1920 1920">
    <style>
        .st0{fill:#fff}.st1{fill:none;stroke:#000;stroke-width:50;stroke-linecap:round;stroke-linejoin:round;stroke-miterlimit:10}
    </style>
    <path class="st0" d="M296.7 991.2c14.6-16.7 37.8-19.4 49.8-19.7 4.7-.1 9-2.7 11.2-6.9 72.6-137.8 225.5-80.7 246.4-72.1 1.6.7 3.4 1 5.1 1 5-.1 10-.1 14.8 0 150.8 1.5 222.5 62.8 235.9 75.7 1.6 1.6 3.6 2.7 5.8 3.2 146.2 35.8 134.8 145 121.1 176.9-1.3 3.1-1.4 6.4-.3 9.4.9 2.5 2.7 4.7 4.9 6.2l37.7 53.4c2.9 2.8 4.4 6.7 4 10.8l-26.8 141.9c-.6 5.9-13 21.8-19 22.7l-40.1-6.9c-11.1 1.6-18.9-10.7-12.7-20.1l2-3a13 13 0 0 0 2.2-7.2l24.1-82.3c0-3.9-1.8-7.6-4.8-10.1l-38.9-49.8c-8.5-6.9-21.2-.9-21.2 10.1l-.8 60.5c0 2.1-.5 4.2-1.5 6l-27.2 79.6c-2.6 4.9-8 7.6-13.4 6.8l-44.3-16.1c-9.7-1.4-14.4-12.7-8.6-20.5l16.5-49.1c1.9-2.5 2.7-5.6 2.5-8.8l4.8-93.7c-.8-9.6-11.4-15-19.7-10l-21.7 15.7c-2.4 1.4-5.1 2.1-7.9 1.8L655.4 1186c-5.9-.5-11.4 3-13.4 8.6l-4.3 12.2c-1.5 4.4-.6 9.2 2.4 12.8l19.1 22.5c3 3.5 3.9 8.3 2.4 12.7l-12.6 36.5c-.1.3-.2.7-.4 1l-29.9 67.5c-1.8 4.1-5.5 6.9-9.9 7.6l-45.8 6.9c-7.6 1.2-14.5-4.4-14.9-12.1l-.5-8.1c-.2-3.5 1-7 3.5-9.6l20.3-37.4c3.8-4.1 4.6-10.2 1.8-15.2l-13.6-38.1c-3.8-6.8-12.8-8.8-19.1-4.2l-49.9 36.8c-1.7 1.3-3.1 2.9-4 4.9l-25.1 53.7c-1.8 3.6-.1 18-4.1 18.8l-60.6 22.8c-8.5 1.8-30.6-14.1-29.9-22.8-.7-2.8-1-5.5-1-8.3 0-13.5 8-26.1 21-31.5l18.8-7.9c2.6-1.7 4.5-4.2 5.5-7.1l34-66.8c2.2-7.2-2.1-14.7-9.3-16.5l-53.8-13.2c-5.3-1.3-10.9.9-13.9 5.4-10.7 16.2-36.5 52.2-51 48.3-15.2-4.1-28.1-47.6-32.4-63.6-1-3.7-3.6-6.8-7.1-8.5l-35.2-16.2c-4.1-1.9-7-5.8-7.5-10.3l-5.7-49.9c-.2-1.5-.1-3 .3-4.5l16.1-66.8c.2-.9.3-1.9.4-2.9.8-32 26.1-39.8 38-41.7 3.7-.6 7-2.7 9-5.9.9-1.4 2.2-3.1 3.6-4.7z" id="Layer_1"/>
    <path class="st0" d="M1280.2 1188.9l-28.7 124.9c-10.8 6.9-15.9 12.2-22.5 13.1l-4.3.6c-9.3 1.3-16.5-6.1-16.5-14.3 0-2.7.8-5.4 2.5-8 1.6-2.4 2.4-5.1 2.4-8v-61.6c0-4.3-2-8.5-5.3-11.2l-16.3-84.2c-8.5-6.9-21.2-.8-21.2 10.1L1156 1263c0 2.1-.5 4.2-1.5 6.1l-38.3 91.9c-2.6 4.9-8 7.6-13.4 6.8l-26.3-3.9c-9.7-1.4-14.4-12.7-8.6-20.5l27.4-82.2c1.9-2.5 2.7-5.6 2.5-8.8l-20.5-84.6c0-.6 0-1.2-.1-1.8-1.3-8.5-10.4-13.4-18.2-9.9-1.2.5-2.3 1-3.6 1.3l-68.6 1.4c-1-3-1-6.4.3-9.4 13.8-31.9 25.1-141.1-121.1-176.9-2.2-.5-4.2-1.6-5.8-3.2-13.4-12.9-85.1-74.2-235.9-75.7 75.3-119.5 232-83.3 252.2-75 1.6.7 3.4 1 5.2 1 83.1-1.3 143.5 15.4 184.5 33.6 38.2 17.1 59.4 35.5 66.2 42 1.6 1.6 3.6 2.7 5.8 3.2 146.2 35.8 107.3 152.5 93.5 184.4-2.2 5-1 10.8 3 14.6l31 80c3.1 2.9 4.7 7.3 14.5 11.5z" id="Layer_2"/>
    <path class="st0" d="M1471.4 1241.2l-13.2 84.8c-2.6 16.8-25.8 36.5-42.4 39.9l-1.8.3-4.3.6c-9.3 1.3-16.5-6.1-16.5-14.3 0-2.7.8-5.4 2.5-8 1.6-2.4 2.4-5.2 2.4-8l10.5-67.6c0-2.2-.5-4.3-1.4-6.2-3.8-8-6.2-16.5-7.8-25.1L1369 1177c-8.5-6.9-21.2-.9-21.2 10.1l-4.7 72c0 2.1-.5 4.2-1.5 6.1l-38.3 91.9c-2.6 4.9-8 7.6-13.4 6.8l-26.3-3.9-12.2-46.2 28.7-124.9c-9.7-4.2-11.4-8.6-14.6-11.7l-31-80c-4-3.8-5.2-9.6-3-14.6 13.7-31.9 52.7-148.6-93.5-184.4-2.2-.5-4.2-1.6-5.8-3.2-6.7-6.5-27.9-24.9-66.2-42l11.1-.2c160.9-2.5 236.8 62.4 250.7 75.7 1.6 1.6 3.6 2.7 5.8 3.2 146.2 35.8 107.2 152.5 93.5 184.4-2.2 5-1 10.8 3 14.6l29 75c1.3 3.2 3.1 6.2 5.3 8.9l.2.2c6.5 7.1 9 17 6.8 26.4z" id="Layer_4"/>
    <path class="st0" d="M1854.2 920.6c0-52.2-26.2-98.2-66.2-125.7 4.4-14.2 6.7-29.3 6.7-44.9 0-36.8-13-70.5-34.7-96.8 50.2-24.9 84.7-76.7 84.7-136.5 0-75.8-55.4-138.7-127.9-150.4-2.1-4-5.1-7.4-9.5-9.4-7.9-3.6-17.2-2.5-25.6-1.6-8.6 1-17.1 2.6-25.5 4.9-16.9 4.6-33.4 11.7-47.7 22-12.6 9-23.4 20.5-30.7 34.1-23.5 26.8-37.7 61.9-37.7 100.3 0 7.6.6 15 1.6 22.3-1.1 2-2.3 3.9-3.5 5.8-2.9 4.6-6.3 9.3-11.2 11.9-6.3 3.4-13.4 1.8-19.9-.4-8.7-3.1-17.1-6.5-26.2-8.3-32.4-6.6-66.8 0-95.3 16.3-14.2 8.1-27.1 18.8-37.4 31.5-11.6 14.3-18.6 30.7-24.8 47.9-6.9 19.2-13.7 38.5-27.8 53.8-10.6 11.5-23.6 20.3-37 28.1-25.9 15.1-55.1 26.4-77.3 47.1-9.9 9.2-17.6 20.3-22.1 33.1-.2-.9-.4-1.7-.6-2.6-.2-1.3-2.2-.7-1.9.5 6.1 33.9 40.1 51.2 68.6 64 20.2 9.1 40.3 18.1 59.9 28.6 21.3 11.3 42.1 23.5 62.8 35.8 31.9 18.8 67.8 39.9 85 74.2 10.1 20.2 9 41.1 6.4 62.9-1.3 11.5-2.6 23.2-1 34.8 1.2 9.1 4.4 17.6 8.1 25.9 8.1 18 20.3 36 19.9 56.5-.1 8.2-3.5 17.6.6 25.3 4.3 8.1 15.7 9.5 23.7 11.7 42.7 11.7 88.3 21 132.1 9.7 16-4.1 31.4-10.8 44.8-20.4 78-6.7 139.2-72.1 139.2-151.8 0-1.9 0-3.8-.1-5.7.3-7.8.1-15.6-.3-23.4 29.4-27.9 47.8-67.3 47.8-111.1z" id="Layer_5"/>
    <g id="STROKES">
        <path class="st1" d="M296.7 991.2c-14.8-26.5-39.7-49.2-79.8-31"/>
        <path class="st1" d="M1551 1230.8c23.3 13.2 51.1 18.6 79.5 13.4 29.4-5.4 54.3-21.2 71.4-43"/>
        <path class="st1" d="M1703.1 357.5c-99.3 0-169.8 71-169.8 158.6 0 14 1.8 27.6 5.2 40.5-24.1-12.3-51.3-19.2-80.2-19.2-97.7 0-177 79.2-177 177 0 2.1 0 4.2.1 6.4h-.1c-55.1 0-103.3 29.7-129.3 74"/>
        <path class="st1" d="M986.7 1158.7c.9 2.5 2.7 4.7 4.9 6.2l37.7 53.4c2.9 2.8 4.4 6.7 4 10.8l-26.8 141.9c-.6 5.9-13 21.8-19 22.7l-40.1-6.9c-11.1 1.6-18.9-10.7-12.7-20.1l2-3a13 13 0 0 0 2.2-7.2l24.1-82.3c0-3.9-1.8-7.6-4.8-10.1l-38.9-49.8c-8.5-6.9-21.2-.9-21.2 10.1l-.8 60.5c0 2.1-.5 4.2-1.5 6l-27.2 79.6c-2.6 4.9-8 7.6-13.4 6.8l-44.3-16.1c-9.7-1.4-14.4-12.7-8.6-20.5l16.5-49.1c1.9-2.5 2.7-5.6 2.5-8.8l4.8-93.7c-.8-9.6-11.4-15-19.7-10l-21.7 15.7c-2.4 1.4-5.1 2.1-7.9 1.8L655.6 1186c-5.9-.5-11.4 3-13.4 8.6l-4.3 12.2c-1.5 4.4-.6 9.2 2.4 12.8l19.1 22.5c3 3.5 3.9 8.3 2.4 12.7l-12.6 36.5c-.1.3-.2.7-.4 1l-29.9 67.5c-1.8 4.1-5.5 6.9-9.9 7.6l-45.8 6.9c-7.6 1.2-14.5-4.4-14.9-12.1l-.5-8.1c-.2-3.5 1-7 3.5-9.6l20.3-37.4c3.8-4.1 4.6-10.2 1.8-15.2l-13.6-38.1c-3.8-6.8-12.8-8.8-19.1-4.2l-49.9 36.8c-1.7 1.3-3.1 2.9-4 4.9l-25.1 53.7c-1.8 3.6-.1 18-4.1 18.8l-60.6 22.8c-8.5 1.8-30.6-14.1-29.9-22.8-.7-2.8-1-5.5-1-8.3 0-13.5 8-26.1 21-31.5l18.8-7.9c2.6-1.7 4.5-4.2 5.5-7.1l34-66.8c2.2-7.2-2.1-14.7-9.3-16.5l-53.8-13.2c-5.3-1.3-10.9.9-13.9 5.4-10.7 16.2-36.5 52.2-51 48.3-15.2-4.1-28.1-47.6-32.4-63.6-1-3.7-3.6-6.8-7.1-8.5l-35.2-16.2c-4.1-1.9-7-5.8-7.5-10.3l-5.7-49.9c-.2-1.5-.1-3 .3-4.5l16.1-66.8c.2-.9.3-1.9.4-2.9.8-32 26.1-39.8 38-41.7 3.7-.6 7-2.7 9-5.9 1.2-1.8 2.5-3.5 3.9-5.1 14.6-16.7 37.8-19.4 49.8-19.7 4.7-.1 9-2.7 11.2-6.9 72.6-137.8 225.5-80.7 246.4-72.1 1.6.7 3.4 1 5.1 1 5-.1 10-.1 14.8 0 150.8 1.5 222.5 62.8 235.9 75.7 1.6 1.6 3.6 2.7 5.8 3.2 146.2 35.8 134.8 145 121.1 176.9-1.6 3.4-1.7 6.8-.6 9.8z"/>
        <path class="st1" d="M986.7 1158.7l68.6-1.4c1.2-.3 2.4-.8 3.6-1.3 7.7-3.5 16.9 1.4 18.2 9.9.1.6.1 1.2.1 1.8l20.5 84.6c.3 3.1-.6 6.2-2.5 8.8l-27.4 82.2c-5.8 7.9-1.1 19.1 8.6 20.5l26.3 3.9c5.5.8 10.8-1.9 13.4-6.8l38.3-91.9c1-1.9 1.5-3.9 1.5-6.1l14.3-112.7c0-10.9 12.7-17 21.2-10.1l16.3 84.2c3.4 2.7 5.3 6.8 5.3 11.2v61.6c0 2.9-.8 5.6-2.4 8-1.7 2.6-2.5 5.3-2.5 8 0 8.2 7.2 15.7 16.5 14.3l4.3-.6c6.6-.9 11.7-6.2 22.5-13.1l28.7-124.9c-9.7-4.2-11.4-8.6-14.6-11.7l-31-80c-4-3.8-5.2-9.6-3-14.6 13.7-31.9 52.7-148.6-93.5-184.4-2.2-.5-4.2-1.6-5.8-3.2-6.7-6.5-27.9-24.9-66.2-42-40.9-18.3-101.4-34.9-184.5-33.6-1.8 0-3.5-.3-5.2-1-20.2-8.3-176.9-44.5-252.2 75"/>
        <path class="st1" d="M1251.4 1313.8l12.2 46.2 26.3 3.9c5.5.8 10.9-1.9 13.4-6.8l38.3-91.9c1-1.9 1.5-3.9 1.5-6.1l4.7-72c0-10.9 12.7-17 21.2-10.1l30.4 60.7c1.7 8.6 4 17.2 7.8 25.1.9 1.9 1.4 4 1.4 6.2l-10.5 67.6c0 2.8-.8 5.6-2.4 8-1.7 2.5-2.5 5.3-2.5 8 0 8.2 7.2 15.7 16.5 14.3l4.3-.6c.6-.1 1.1-.2 1.8-.3 16.7-3.4 39.8-23.1 42.4-39.9l13.2-84.8c2.2-9.4-.3-19.3-6.7-26.6 0-.1-.1-.1-.2-.2-2.3-2.6-4.1-5.6-5.3-8.9l-29-75c-4-3.8-5.2-9.6-3-14.6 13.7-31.9 52.7-148.6-93.5-184.4-2.2-.5-4.2-1.6-5.8-3.2-13.9-13.3-89.8-78.1-250.7-75.7l-11.1.2"/>
    </g>
</svg>
