<svg xmlns="http://www.w3.org/2000/svg" viewBox="0 0 1920 1920">
    <style>
        .st0{fill:#fff}.st1{fill:none;stroke:#000;stroke-width:50;stroke-linecap:round;stroke-linejoin:round;stroke-miterlimit:10}
    </style>
    <g id="STROKES">
        <path class="st1" d="M1144 766.8c0-50.8-41.2-92-92-92s-92 41.2-92 92"/>
        <path class="st1" d="M960 766.8c0-50.8-41.2-92-92-92s-92 41.2-92 92"/>
        <path class="st1" d="M254.9 1258.2c0-50.8 41.2-92 92-92s92 41.2 92 92"/>
        <path class="st1" d="M438.9 1258.2c0-50.8 41.2-92 92-92s92 41.2 92 92"/>
        <path class="st1" d="M1297.1 1258.2c0-50.8 41.2-92 92-92s92 41.2 92 92"/>
        <path class="st1" d="M1481.1 1258.2c0-50.8 41.2-92 92-92s92 41.2 92 92"/>
        <path class="st1" d="M459.1 1012.5c0-50.8 41.2-92 92-92s92 41.2 92 92"/>
        <path class="st1" d="M643.1 1012.5c0-50.8 41.2-92 92-92s92 41.2 92 92"/>
        <path class="st1" d="M1092.9 1006c0-50.8 41.2-92 92-92s92 41.2 92 92"/>
        <path class="st1" d="M1276.9 1006c0-50.8 41.2-92 92-92s92 41.2 92 92"/>
    </g>
</svg>
