<svg xmlns="http://www.w3.org/2000/svg" viewBox="0 0 1920 1920">
    <style>
        .st0{fill:#fff}.st1{fill:none;stroke:#000;stroke-width:50;stroke-linecap:round;stroke-linejoin:round;stroke-miterlimit:10}
    </style>
    <path class="st0" d="M960 236.2c75.4 0 136.6 96 136.6 214.5S1035.4 665.3 960 665.3s-136.5-96.1-136.5-214.5S884.6 236.2 960 236.2zM821.4 901.7c0 130.6 61.5 236.4 137.3 236.4S1096 1032.3 1096 901.7s-61.4-236.4-137.3-236.4-137.3 105.8-137.3 236.4zm-54.1 466.9c0 125.8 86.3 227.8 192.7 227.8s192.7-102 192.7-227.8-86.3-227.8-192.7-227.8-192.7 102-192.7 227.8z" id="Layer_3"/>
    <g id="STROKES">
        <g id="XMLID_2_">
            <path class="st1" d="M1095.9 901.7c0 130.6-61.4 236.4-137.3 236.4s-137.3-105.8-137.3-236.4 61.5-236.4 137.3-236.4 137.3 105.8 137.3 236.4z"/>
            <ellipse class="st1" cx="960" cy="1368.6" rx="192.7" ry="227.9"/>
            <ellipse class="st1" cx="960" cy="450.7" rx="136.6" ry="214.5"/>
            <path class="st1" d="M800 833.5s-221.7-91.3-277.1 109.3c-55.4 200.6-190.1 363.6-190.1 363.6"/>
            <path class="st1" d="M1120 833.5s221.7-91.3 277.2 109.3c55.4 200.6 190.1 363.6 190.1 363.6"/>
            <path class="st1" d="M1074.6 712.6s166.3-22.8 261.3-261.9c95-239.1 200.6-233.8 200.6-233.8"/>
            <path class="st1" d="M845.5 712.6s-166.3-22.8-261.3-261.9C489.1 211.7 383.5 217 383.5 217"/>
            <path class="st1" d="M823.5 985.5s-241.2 18.1-234.5 297.9c6.6 279.8-159.7 419.7-207.2 419.7"/>
            <path class="st1" d="M1096.6 985.5s241.1 18.1 234.5 297.9c-6.6 279.8 159.7 419.7 207.2 419.7"/>
        </g>
    </g>
</svg>
