<svg xmlns="http://www.w3.org/2000/svg" viewBox="0 0 1920 1920">
    <style>
        .st0{fill:#fff}.st1{fill:none;stroke:#000;stroke-width:50;stroke-linecap:round;stroke-linejoin:round;stroke-miterlimit:10}
    </style>
    <g id="Layer_4">
        <path class="st0" d="M1408.3 512.5c43.5 43.5 43.3 118.5 5.5 187.7-12.3 22.6-28.6 44.6-48.7 64.7-81.6 81.6-153.5 59.8-211.2 2-57.8-57.8-79.6-129.6 2-211.2s194.6-100.9 252.4-43.2z"/>
        <path class="st0" d="M954.3 740c68.5-32.7 147-25.5 197 24.5 66.1 66.1 57.4 182-19.4 258.9-76.8 76.9-192.8 85.5-258.9 19.4-66.1-66.1-57.4-182 19.4-258.9 18.8-18.7 39.8-33.3 61.9-43.9z"/>
        <path class="st0" d="M873.1 1042.8c60.3 60.3 60.3 158.2 0 218.5-60.3 60.3-262.1 164.3-322.4 103.9-60.3-60.3 43.6-262.1 103.9-322.4 60.3-60.3 158.1-60.3 218.5 0z"/>
    </g>
    <g id="STROKES">
        <g id="XMLID_3_">
            <path class="st1" d="M1155.9 555.8c81.6-81.6 194.7-101 252.4-43.2 43.5 43.5 43.3 118.5 5.5 187.7-12.3 22.6-28.6 44.6-48.7 64.7-81.6 81.6-153.5 59.8-211.2 2-57.8-57.8-79.7-129.6 2-211.2z"/>
            <path class="st1" d="M892.5 784c18.7-18.7 39.8-33.4 61.9-43.9 68.5-32.7 147-25.5 197 24.5 66.1 66.1 57.4 182-19.4 258.9-76.8 76.9-192.8 85.5-258.9 19.4-66.2-66.2-57.5-182.1 19.4-258.9z"/>
            <path class="st1" d="M654.6 1042.8c60.3-60.3 158.1-60.3 218.5 0 60.3 60.3 60.3 158.2 0 218.5-60.3 60.3-262.1 164.3-322.4 103.9-60.4-60.3 43.5-262 103.9-322.4z"/>
            <path class="st1" d="M216.9 1049.1s126-17.3 260.5-112.4S718.7 988 718.7 988"/>
            <path class="st1" d="M954.3 740c-.8-1.5-147-285.7-.7-427.7"/>
            <path class="st1" d="M892.5 784s-154.2-227.3-369.4-71.3-277 133.8-277 133.8"/>
            <path class="st1" d="M1218.1 504.5l-19.1-137s153.1-59.2 150.6-150.6"/>
            <path class="st1" d="M869.3 1701.4s17.3-126 112.4-260.5c95-134.5-51.3-241.3-51.3-241.3"/>
            <path class="st1" d="M1178.3 964s285.3 147.3 427.7.7"/>
            <path class="st1" d="M1134.4 1025.9s227.2 154.2 71.2 369.4-133.8 277-133.8 277"/>
            <path class="st1" d="M1413.8 700.3l137 19.1s59.2-153.1 150.6-150.6"/>
        </g>
    </g>
</svg>
