<svg xmlns="http://www.w3.org/2000/svg" viewBox="0 0 1920 1920">
    <style>
        .st0{fill:#fff}.st1{fill:none;stroke:#000;stroke-width:50;stroke-linecap:round;stroke-linejoin:round;stroke-miterlimit:10}
    </style>
    <path class="st0" d="M1359.2 846.8c18.2 54.5-23.3 117.4-92.6 140.5-69.3 23.1-140.3-2.2-158.5-56.7-18.2-54.5 23.3-117.4 92.6-140.5 69.4-23.1 140.4 2.2 158.5 56.7zm-357.7 85.4c-18.9 8.4-38.2 21.2-56 37.8-53.4 49.8-72.8 115.8-43.4 147.2 29.4 31.5 96.5 16.6 149.8-33.3 53.4-49.9 72.8-115.8 43.4-147.2-19.5-21-55.9-21.3-93.8-4.5zM879 1102.8c-66.9-38.5-166.4 18-226.6 122.8-60.2 104.8-58.5 218.3 8.5 256.8 66.9 38.5 170-15.3 230.3-120.2 31.5-54.9 45.1-112.8 41.2-161.2-3.6-43.9-21.5-79.9-53.4-98.2z" id="Layer_2"/>
    <g id="STROKES">
        <g id="XMLID_1_">
            <path class="st1" d="M256.2 1703.1s153.8-24 205.9-248l58.5-299.6 105.9 63.5"/>
            <path class="st1" d="M648.8 1222.9l30.4-198.7 171.7 66.9"/>
            <path class="st1" d="M879.7 1043.4l19.5-245.1 102.3 133.9"/>
            <path class="st1" d="M1264 751.3l142.1-315.8"/>
            <path class="st1" d="M1344.1 799.3c35.2-20.2 77.6-54.6 115.9-113 85.8-130.7 243.1-151.9 243.1-151.9"/>
            <path class="st1" d="M1359.2 846.8c18.2 54.5-23.3 117.4-92.6 140.5-69.3 23.1-140.3-2.2-158.5-56.7-18.2-54.5 23.3-117.4 92.6-140.5 69.4-23.1 140.4 2.2 158.5 56.7z"/>
            <path class="st1" d="M652.4 1225.6c-60.2 104.8-58.5 218.3 8.5 256.8 66.9 38.5 170-15.3 230.3-120.2 31.5-54.9 45.1-112.8 41.2-161.2-3.5-44-21.5-79.9-53.3-98.3-67-38.4-166.4 18-226.7 122.9z"/>
            <path class="st1" d="M932.3 1201s.1 0 0 0c2 2.9 140.7 197.8 168.6 299.7 0 0 27.3 63.1 84.8 63.8"/>
            <path class="st1" d="M1052 1083.9l165.7 233.4s85.1 46.2 150.1 2.2"/>
            <path class="st1" d="M1230.9 999.3s162.9 271.8 308.1 184.7"/>
            <path class="st1" d="M1001.5 932.2c37.9-16.9 74.3-16.5 93.9 4.5 29.4 31.5 10 97.4-43.4 147.2-53.4 49.8-120.4 64.8-149.8 33.3-29.4-31.5-10-97.4 43.4-147.2 17.7-16.6 37-29.3 55.9-37.8z"/>
        </g>
    </g>
</svg>
