<svg xmlns="http://www.w3.org/2000/svg" viewBox="0 0 1920 1920">
    <style>
        .st0{fill:#fff}.st1{fill:none;stroke:#000;stroke-width:50;stroke-linecap:round;stroke-linejoin:round;stroke-miterlimit:10}
    </style>
    <path class="st0" d="M1703.1 524.9v127.2H1159V524.9h544.1zm-544.2 448.7c0-280.4 544.1-321.5 544.1-321.5h-544.1v321.5zm75.4 315.1c-38-12.1-75.6-42.5-75.6-115.2h.2V524.9H799.8v648.6c0 72.6-37.6 103-75.6 115.2-23.1 7.4-42.5 21.9-56.1 40.5-13.6 18.7-21.4 41.6-21.4 65.8h665.2c-.1-48.4-31.3-91.5-77.6-106.3zm-1017.4-665s200 408.4 582.8 408.4V623.7H216.9z" id="Layer_3"/>
    <g id="STROKES">
        <g id="XMLID_2_">
            <path class="st1" d="M1158.9 997.6v175.9"/>
            <path class="st1" d="M1158.7 1173.5c0 72.6 37.6 103 75.6 115.2 46.2 14.8 77.5 57.9 77.5 106.4H646.7c0-24.3 7.8-47.2 21.4-65.8 13.6-18.7 33-33.1 56.1-40.5 38-12.1 75.6-42.5 75.6-115.2v-141.4C417 1032.2 217 623.8 217 623.8h582.8V525h903.3v127.2S1159 693.3 1159 973.7"/>
            <path class="st1" d="M799.8 623.7v408.4"/>
            <path class="st1" d="M1158.9 997.6V524.9"/>
            <path class="st1" d="M1703.1 652.1h-544.2"/>
        </g>
    </g>
</svg>
