<svg xmlns="http://www.w3.org/2000/svg" viewBox="0 0 1920 1920">
    <style>
        .st0{fill:#fff}.st1{fill:none;stroke:#000;stroke-width:50;stroke-linecap:round;stroke-linejoin:round;stroke-miterlimit:10}
    </style>
    <path class="st0" d="M959.7 670.8c.1.5.2.9.3 1.4 29.9-129.2 145.6-225.4 283.9-225.4 160.9 0 291.4 130.4 291.4 291.4 0 20.1-2 39.7-5.9 58.6-3.9 18.9-9.6 37.2-16.9 54.6L1274 1486.5c-20.6 67.3-83.2 116.2-157.2 116.2-73.6 0-135.9-48.4-156.8-115.1-20.9 66.7-83.2 115.1-156.8 115.1-74 0-136.6-48.9-157.1-116.2L407.6 851.3c-14.7-34.8-22.8-73-22.8-113.2 0-160.9 130.4-291.4 291.4-291.4 137.7.1 253.1 95.6 283.5 224.1z" id="Layer_2"/>
    <g id="STROKES">
        <g id="XMLID_1_">
            <path class="st1" d="M1535.2 738.1c0-160.9-130.4-291.4-291.4-291.4-138.2 0-254 96.3-283.9 225.4-.1-.5-.2-.9-.3-1.4-30.4-128.5-145.8-224.1-283.5-224.1-160.9 0-291.4 130.4-291.4 291.4 0 40.1 8.1 78.4 22.8 113.2L646 1486.5c20.6 67.3 83.1 116.2 157.1 116.2 73.6 0 135.9-48.4 156.8-115.1 20.9 66.7 83.2 115.1 156.8 115.1 74 0 136.6-48.9 157.2-116.2l238.4-635.2c7.3-17.4 13-35.7 16.9-54.6 4-18.9 6-38.5 6-58.6z"/>
            <path class="st1" d="M959.7 672.2V216.9"/>
            <path class="st1" d="M1048 920l32 80"/>
            <path class="st1" d="M872 920l-32 80"/>
        </g>
    </g>
</svg>
