<svg xmlns="http://www.w3.org/2000/svg" viewBox="0 0 1920 1920">
    <style>
        .st0{fill:#fff}.st1{fill:none;stroke:#000;stroke-width:50;stroke-linecap:round;stroke-linejoin:round;stroke-miterlimit:10}
    </style>
    <path class="st0" d="M1274 1486.5c-20.6 67.3-83.2 116.2-157.2 116.2-73.6 0-135.9-48.4-156.8-115.1-20.9 66.7-83.2 115.1-156.8 115.1-74 0-136.6-48.9-157.1-116.2L407.6 851.3c-14.7-34.8-22.8-73-22.8-113.2 0-160.9 130.4-291.4 291.4-291.4 136.5 0 251.1 93.9 282.7 220.6.3 1.2.6 2.5.9 3.7-.1.3-.1.5-.1.5s.1 0 .2.1c6.1 3.2 138.7 69.7 275.8-23.6 69.1-47 110.7-115.1 135.1-172.1l7.4 3.4c93.4 48.5 157.2 146.2 157.2 258.7 0 20.1-2 39.7-5.9 58.6-3.9 18.9-9.6 37.2-16.9 54.6L1274 1486.5z" id="Layer_5"/>
    <path class="st0" d="M959.9 671.8c0-.2-.1-.4-.1-.6 1.2-7.3 15.7-93.7 70-176.8 23.9-36.6 55.5-72.5 97.1-100.8 140.4-95.5 276-23.5 276-23.5s-6.9 47.1-32.1 105.9c-24.4 57-66 125.1-135.1 172.1-137.1 93.3-269.7 26.8-275.8 23.7z" id="Layer_6"/>
    <path class="st0" d="M881 216.1h148.7s-24.9 81.7 0 278.3c-54.3 83.1-68.8 169.4-70 176.8-.3-1.2-.6-2.5-.9-3.7L881 216.1z" id="Layer_7"/>
    <g id="STROKES">
        <g id="XMLID_1_">
            <path class="st1" d="M960 672.2c0-.2-.1-.3-.1-.5s-.1-.4-.1-.6c-.3-1.2-.6-2.5-.9-3.7-31.6-126.7-146.2-220.6-282.7-220.6-160.9 0-291.4 130.4-291.4 291.4 0 40.1 8.1 78.4 22.8 113.2L646 1486.5c20.6 67.3 83.1 116.2 157.1 116.2 73.6 0 135.9-48.4 156.8-115.1 20.9 66.7 83.2 115.1 156.8 115.1 74 0 136.6-48.9 157.2-116.2l238.4-635.2c7.3-17.4 13-35.7 16.9-54.6 3.9-18.9 5.9-38.5 5.9-58.6 0-112.5-63.8-210.2-157.2-258.7l-7.4-3.4"/>
            <path class="st1" d="M959.7 672.2l-.8-4.8L881 216.1h148.7s-24.9 81.7 0 278.3"/>
            <path class="st1" d="M1029.7 494.4c23.9-36.6 55.5-72.5 97.1-100.8 140.4-95.5 276-23.5 276-23.5s-6.9 47.1-32.1 105.9c-24.4 57-66 125.1-135.1 172.1-137.1 93.3-269.6 26.7-275.8 23.6l-.2-.1s0-.2.1-.5c1.2-7.3 15.7-93.6 70-176.7z"/>
        </g>
    </g>
</svg>
