<svg xmlns="http://www.w3.org/2000/svg" viewBox="0 0 1920 1920">
    <style>
        .st0{fill:#fff}.st1{fill:none;stroke:#000;stroke-width:50;stroke-linecap:round;stroke-linejoin:round;stroke-miterlimit:10}
    </style>
    <path class="st0" d="M1516.9 958.8c6 185.6-62.2 790.2-537.2 614.2H960c-475 176-543.2-428.6-537.2-614.2-.1-2.9-.1-5.7-.1-8.6 0-206.8 167.6-374.4 374.4-374.4 58.4 0 113.6 13.4 162.9 37.2 49.2-23.8 124.2-37.2 182.6-37.2 206.8 0 374.4 167.6 374.4 374.4.1 2.9 0 5.8-.1 8.6z" id="Layer_3"/>
    <path class="st0" d="M1217.2 286.8s27.1 88.3-50.8 158.7c-77.9 70.3-173.9 44.2-173.9 44.2s-27.1-88.3 50.8-158.6c78-70.5 173.9-44.3 173.9-44.3z" id="Layer_4"/>
    <g id="STROKES">
        <g id="XMLID_1_">
            <path class="st1" d="M960 613c49.2-23.8 124.2-37.2 182.6-37.2 206.8 0 374.4 167.6 374.4 374.4 0 2.9 0 5.8-.1 8.6 6 185.6-62.2 790.2-537.2 614.2H960c-475 176-543.2-428.6-537.2-614.2-.1-2.9-.1-5.7-.1-8.6 0-206.8 167.6-374.4 374.4-374.4 58.4 0 113.7 13.4 162.9 37.2z"/>
            <path class="st1" d="M960 613s44.8-396.9-132.2-396.9"/>
            <path class="st1" d="M1217.2 286.8s27.1 88.3-50.8 158.7c-77.9 70.3-173.9 44.2-173.9 44.2s-27.1-88.3 50.8-158.6c78-70.5 173.9-44.3 173.9-44.3z"/>
        </g>
    </g>
</svg>
