<svg xmlns="http://www.w3.org/2000/svg" viewBox="0 0 1920 1920">
    <style>
        .st0{fill:#fff}.st1{fill:none;stroke:#000;stroke-width:50;stroke-linecap:round;stroke-linejoin:round;stroke-miterlimit:10}
    </style>
    <path class="st0" d="M1595.8 1457.3c.2 136.5-47.8 210.4-47.8 210.4-406.2 90.4-966.7-16.1-1154.3-57-39-8.5-67.3-42-68.8-81.4-17.4-460.4 287.5-1002.8 287.5-1002.8s1.5-255.6 159.3-309.5c0 0 250.4 51.8 273.6 121.5l-14.7 73.3 20.9 62c-82.4 109.7-239 163.6-239 163.6-216.5 296.7-34.7 697.8-34.7 697.8s75.1-68.8 146.2-69.1c146.6-.8 172.9 70.6 172.9 70.6s65.7-108.9 204.9-114.8c101-4.4 293.8 8.7 294 235.4z" id="Layer_2"/>
    <g id="STROKES">
        <path class="st1" d="M1051.4 473.8l-20.9-62 14.7-73.3C1022 268.8 771.6 217 771.6 217 614 270.9 612.4 526.5 612.4 526.5S307.5 1069 324.9 1529.3c1.5 39.4 29.8 72.9 68.8 81.4 187.6 40.9 748.1 147.4 1154.3 57 0 0 48-73.9 47.8-210.4-.3-226.7-193-239.8-294.1-235.5-139.3 5.9-204.9 114.8-204.9 114.8s-26.2-71.4-172.9-70.6c-71.1.4-146.2 69.1-146.2 69.1S595.9 934 812.4 637.3c0 0 156.6-53.8 239-163.5z" id="XMLID_1_"/>
    </g>
</svg>
