<svg xmlns="http://www.w3.org/2000/svg" viewBox="0 0 1920 1920">
    <style>
        .st0{fill:#fff}.st1{fill:none;stroke:#000;stroke-width:50;stroke-linecap:round;stroke-linejoin:round;stroke-miterlimit:10}
    </style>
    <path class="st0" d="M1585 413.9c227.5 311 80.1 512.5-58.2 681-61.4 74.8-66.9 141.7-121.9 234.5-34.2 57.7-182.7 95.4-245.9 117.8-92.8 32.9-568.6 111.8-690.2 119.8-21.1 1.4-51.7-6-85.3-18.7-143.4-54.1-170.4-135.8-166.1-206.1 1.9-31.9 30.8-55.2 62.5-50.9 107.1 14.5 167.3-2.6 194.4-14.7 12.9-5.8 14.8-23.4 3.3-31.7-30.4-21.8-97.2-39.6-83.6-71.2 28.9-67 248.4 63.2 282.9 105.4 0 0 170.9-10.1 247.9-31.1s223.9-88.4 223.9-88.4C1101.8 856.4 1320.8 703 1320.8 703s-25.9-200.3 104.5-308.8c48.9-40.8 122.1-31.7 159.7 19.7z" id="Layer_4"/>
    <g id="STROKES">
        <path class="st1" d="M1585 413.9c-37.6-51.4-110.8-60.5-159.8-19.7C1294.8 502.7 1320.8 703 1320.8 703s-218.9 153.4-171.8 456.6c0 0-146.9 67.4-223.9 88.4s-247.9 31.1-247.9 31.1c-34.6-42.2-254-172.4-282.9-105.4-13.6 31.6 53.2 49.4 83.6 71.2 11.5 8.2 9.6 25.9-3.3 31.7-27.1 12.1-87.3 29.2-194.4 14.7-31.7-4.3-60.5 19.1-62.5 50.9-4.3 70.3 22.7 152 166.1 206.1 33.6 12.7 64.2 20.1 85.3 18.7 121.5-8 597.4-86.9 690.2-119.8 63.2-22.4 211.7-60.1 245.9-117.8 55-92.9 60.5-159.7 121.9-234.5 138.1-168.5 285.4-369.9 57.9-681z" id="XMLID_1_"/>
    </g>
</svg>
