<svg xmlns="http://www.w3.org/2000/svg" viewBox="0 0 1920 1920">
    <style>
        .st0{fill:#fff}.st1{fill:none;stroke:#231f20;stroke-width:50;stroke-linecap:round;stroke-linejoin:round;stroke-miterlimit:10}
    </style>
    <path class="st0" d="M960 571.9c15.2 0 27.6-7.7 27.6-17.2s-12.4-17.2-27.6-17.2-27.6 7.7-27.6 17.2 12.4 17.2 27.6 17.2zm0-48.3c7.2 0 13-3.6 13-8.1s-5.8-8.1-13-8.1-13 3.6-13 8.1c0 4.4 5.8 8.1 13 8.1zm0 62.3c-28.4 0-51.4 7.6-51.4 17v69.6c31.6-13.7 49.2-23.2 49.2-23.2h4.4s17.6 9.5 49.2 23.2v-69.6c0-9.4-23-17-51.4-17z" id="Layer_8"/>
    <path class="st0" d="M1647.2 793.3v-42.6c-278.2 55.6-532.2-33.5-635.8-78.3-31.6-13.7-49.2-23.2-49.2-23.2h-4.4s-17.6 9.5-49.2 23.2c-103.5 44.8-357.6 134-635.8 78.4v42.6l-55.9 24 49.3 27.8c74 27.5 255.5 65.7 693.8 65.8 438.3-.1 619.8-38.2 693.8-65.8l49.3-27.8-55.9-24.1z" id="Layer_9"/>
    <path class="st0" d="M1653.8 845.1c-74 27.5-255.5 65.7-693.8 65.8-438.3-.1-619.8-38.2-693.8-65.8l288.3 162.5v-75.3h810.9v75.3l288.4-162.5z" id="Layer_10"/>
    <path class="st0" d="M554.6 932.3v381.4h69v-306.1H762v306.1h76.2v-306.1H1077v306.1h76v-306.1h148.1v306.1h64.3V932.3z" id="Layer_12"/>
    <path class="st0" d="M392.9 1313.7h1137.4v139.7H392.9z" id="Layer_13"/>
    <g id="STROKES">
        <path class="st1" d="M1703.1 817.3s-56.8 93.3-743 93.5c-686.2-.2-743.1-93.5-743.1-93.5l55.9-24v-42.6c278.2 55.6 532.2-33.5 635.8-78.3 31.6-13.6 49.2-23.2 49.2-23.2h4.4s17.6 9.5 49.2 23.2c103.6 44.7 357.6 133.9 635.8 78.3v42.6l55.8 24z"/>
        <path class="st1" d="M1011.4 602.9v69.6c-31.6-13.6-49.2-23.2-49.2-23.2h-4.4s-17.6 9.5-49.2 23.2v-69.6c0-9.4 23-17 51.4-17s51.4 7.6 51.4 17z"/>
        <ellipse class="st1" cx="960" cy="554.7" rx="27.6" ry="17.2"/>
        <ellipse class="st1" cx="960" cy="515.4" rx="13" ry="8.1"/>
        <path class="st1" d="M960 500.8v-40"/>
        <path class="st1" d="M762 1007.6h76.3v306.1H762z"/>
        <path class="st1" d="M554.6 1007.6h69v306.1h-69z"/>
        <path class="st1" d="M1301.1 1007.6h64.3v306.1h-64.3z"/>
        <path class="st1" d="M1077 1007.6h76.1v306.1H1077z"/>
        <path class="st1" d="M554.6 932.3h810.9v75.3H554.6z"/>
        <path class="st1" d="M216.9 817.3l337.7 190.3"/>
        <path class="st1" d="M1365.4 1007.6l337.7-190.3"/>
        <path class="st1" d="M392.9 1313.7h1137.4v139.7H392.9z"/>
    </g>
</svg>
