<svg xmlns="http://www.w3.org/2000/svg" viewBox="0 0 1920 1920">
    <style>
        .st0{fill:#fff}.st1{fill:none;stroke:#231f20;stroke-width:50;stroke-linecap:round;stroke-linejoin:round;stroke-miterlimit:10}
    </style>
    <path class="st0" d="M1478.4 867.3h-.1c-1.7.2-3.4.3-5.1.5-1.7.2-3.4.3-5.2.5-.8.1-1.5.1-2.3.2-.5 0-1 .1-1.6.1h-.3c-1.7.2-3.4.3-5.2.5h-.2c-20.7 1.8-43.1 3.6-67.4 5.2-.5 0-1 .1-1.5.1-1.6.1-3.3.2-4.9.3-1 .1-2.1.1-3.1.2-1.2.1-2.3.2-3.5.2-1.2.1-2.5.2-3.7.2-1 .1-2 .1-3 .2-1.3.1-2.7.2-4 .2-.9.1-1.8.1-2.8.2-.3 0-.5 0-.8.1l-23.5 1.3c-4 .2-8.1.4-12.2.7a12945.67 12945.67 0 0 1-31.5 1.5c-2.2.1-4.3.2-6.5.3-8.7.4-17.6.8-26.7 1.1-15.6.6-31.8 1.2-48.5 1.7-3.8.1-7.5.2-11.4.3h-1.3l-12.9.4-26.4.7-15 .3c-2.5.1-4.9.1-7.4.2l-7.8.1c-3.1.1-6.2.1-9.3.2l-4.7.1c-1.6 0-3.1.1-4.7.1-4.2.1-8.4.1-12.6.2-1.6 0-3.2 0-4.8.1h-4.8c-9.6.1-19.4.3-29.4.4-6.2.1-12.6.1-18.9.2h-24.2c-6.9 0-13.8.1-20.8.1h-70.3c-16.8 0-33.2-.2-49.2-.3h-6.6c-7.8-.1-15.5-.1-23-.2H847c-3.2 0-6.3-.1-9.4-.1h-3.2c-3.8 0-7.6-.1-11.4-.2h-2.5c-3.3 0-6.6-.1-9.9-.2h-1.7c-4.1-.1-8.2-.1-12.2-.2h-4.5c-1.3 0-2.6 0-3.9-.1-5.5-.1-10.9-.2-16.2-.3-.8 0-1.5 0-2.3-.1-2.1 0-4.2-.1-6.3-.1-.8 0-1.7 0-2.5-.1-2.2-.1-4.5-.1-6.7-.2-2.2 0-4.4-.1-6.6-.2-1.3 0-2.7-.1-4-.1-1.5 0-2.9-.1-4.4-.1-.9 0-1.7 0-2.6-.1-3.5-.1-6.9-.2-10.3-.3-1.4 0-2.8-.1-4.2-.1-1.3 0-2.7-.1-4-.1-.6 0-1.3 0-1.9-.1h-1.8c-1.7 0-3.3-.1-4.9-.1-1 0-1.9 0-2.9-.1l-10.1-.3h-.3c-2-.1-4-.1-6-.2s-4-.1-5.9-.2h-1c-3.7-.1-7.3-.3-11-.4-.6 0-1.2 0-1.8-.1-3.4-.1-6.7-.2-10-.4-2.3-.1-4.5-.2-6.8-.3-1.2 0-2.4-.1-3.6-.1h-.7c-.8 0-1.6-.1-2.4-.1-.4 0-.9 0-1.3-.1h-.8c-1.5-.1-3-.1-4.5-.2h-.7c-2-.1-3.9-.2-5.9-.3-1.9-.1-3.9-.2-5.8-.3h-.2c-2-.1-3.9-.2-5.9-.3-2-.1-3.9-.2-5.8-.3-5-.2-9.9-.5-14.8-.7-.7 0-1.4-.1-2.1-.1-4.1-.2-8.2-.4-12.3-.7-.6 0-1.1-.1-1.7-.1-.5 0-1-.1-1.5-.1s-.9 0-1.4-.1c-1.5-.1-3.1-.2-4.6-.3-.3 0-.6 0-.9-.1-1.4-.1-2.7-.1-4.1-.2-1.3-.1-2.7-.2-4-.2-2.7-.2-5.3-.3-8-.5h-.6c-1.6-.1-3.1-.2-4.6-.3-.6 0-1.2-.1-1.8-.1-1-.1-1.9-.1-2.9-.2-1.7-.1-3.5-.2-5.2-.3-.9-.1-1.9-.1-2.8-.2-1.1-.1-2.2-.2-3.4-.2-1.1-.1-2.2-.1-3.3-.2-.4 0-.7 0-1.1-.1-1.7-.1-3.3-.2-5-.3-.2 0-.5 0-.7-.1-1.2-.1-2.4-.2-3.6-.2h-.7c-.3 0-.6 0-.9-.1-3.7-.3-7.3-.5-10.9-.8-.3 0-.6 0-1-.1-1.1-.1-2.1-.2-3.2-.2-.7 0-1.4-.1-2.2-.2-1.6-.1-3.2-.2-4.8-.4h-.4l-4.2-.3c-4.1-.3-8.1-.6-12.1-1-4-.3-7.9-.7-11.7-1-1.4-.1-2.8-.2-4.1-.4-.3 0-.6 0-.9-.1-2.1-.2-4.3-.4-6.3-.6-.3 0-.6-.1-.9-.1-.6 0-1.3-.1-1.9-.2-2.5-.2-4.9-.5-7.3-.7l-3.6-.3-3.6-.3v258.3h1033V868h.4v-.6c.1-.1 0-.1-.1-.1z" id="Layer_2"/>
    <path class="st0" d="M1665 776.9c-37.9 7-71.4 9.8-100.4 9.9-42.8.1-76.2-5.7-100.4-12.5-16.6-4.6-28.9-9.7-37.1-13.6-8.2-3.9-12.2-6.6-12.2-6.6l-51.2-103.3-1.6-3.3c-24.4 6.6-59.5 12.1-98.8 16.6-31.8 3.7-66.4 6.7-100.4 9.2-35.3 2.6-70.1 4.6-100.4 6.1-40.6 2-73.4 3.2-89.6 3.7-3.6.1-7.2.2-10.8.2-3.6 0-7.2 0-10.9-.2-16.1-.5-49-1.7-89.6-3.7-30.4-1.5-65.1-3.5-100.4-6.1-34-2.5-68.6-5.6-100.4-9.2-39.3-4.5-74.4-10-98.8-16.6l-1.6 3.3-51.2 103.3s-16.1 11-49.2 20.2c-24.2 6.8-57.6 12.6-100.4 12.5-29.1-.1-62.5-2.8-100.4-9.9-12.8-2.4-26.2-5.2-40-8.7v52.6s6.8 7 40 16.5c21.1 6 52.9 13 100.4 19.8 7.1 1 14.6 2 22.4 3h.2c18.6 2.4 39.3 4.7 62.3 7 .3 0 .6.1 1 .1l3.6.3 3.6.3c2.4.2 4.9.5 7.3.7.6.1 1.3.1 1.9.2.2 0 .5 0 .7.1h.2l6.3.6c.3 0 .6.1.9.1 1.4.1 2.7.2 4.1.4 3.9.3 7.8.7 11.7 1 4 .3 8 .6 12.1 1l4.2.3h.4c1.6.1 3.2.2 4.8.4.7 0 1.4.1 2.2.2 1.1.1 2.1.2 3.2.2.3 0 .6 0 1 .1 3.6.3 7.2.5 10.9.8h.9c.4 0 .7 0 1.1.1 1.1.1 2.1.1 3.2.2.2 0 .4 0 .7.1 1.6.1 3.3.2 5 .3.4 0 .7 0 1.1.1 1.1.1 2.2.2 3.3.2 1.1.1 2.2.2 3.4.2.9.1 1.9.1 2.8.2 1.7.1 3.4.2 5.2.3 1 .1 1.9.1 2.9.2.6 0 1.2.1 1.8.1 1.5.1 3.1.2 4.6.3h.6c3.6.2 7.3.4 11 .6 1.7.1 3.3.2 5 .3.3 0 .6 0 .9.1l6 .3c1.1.1 2.2.1 3.3.2 4.1.2 8.2.4 12.3.7.7 0 1.4.1 2.1.1 4.8.2 9.8.5 14.8.7 1.9.1 3.9.2 5.8.3 2 .1 3.9.2 5.9.3h.2c1.9.1 3.9.2 5.8.3 2 .1 3.9.2 5.9.3h.7c1.5.1 3 .1 4.5.2h.8c1.2 0 2.5.1 3.7.2h.7c1.2 0 2.4.1 3.6.1 2.2.1 4.5.2 6.8.3 3.3.1 6.7.3 10 .4.6 0 1.2 0 1.8.1 3.6.1 7.3.3 11 .4h1c2 .1 4 .1 5.9.2 2 .1 4 .1 6 .2h.3c3.3.1 6.7.2 10.1.3.9 0 1.9.1 2.9.1 1.6 0 3.3.1 4.9.1.6 0 1.2 0 1.8.1.6 0 1.3 0 1.9.1 1.3 0 2.6.1 4 .1s2.8.1 4.2.1c3.4.1 6.8.2 10.3.3.9 0 1.7 0 2.6.1 1.4 0 2.9.1 4.4.1 1.3 0 2.7.1 4 .1 2.2.1 4.4.1 6.6.2 2.2.1 4.4.1 6.7.2h2.4c2.1 0 4.2.1 6.3.1.8 0 1.5 0 2.3.1l16.2.3c1.3 0 2.6.1 3.9.1h4.5c4 .1 8.1.1 12.2.2h1.7c3.3.1 6.6.1 9.9.2h2.5c3.8 0 7.6.1 11.4.2h3.2c3.1 0 6.2.1 9.4.1h2.3c4 0 8 .1 12.1.1 3.6 0 7.3.1 11 .1h6.6c16 .1 32.4.2 49.2.3h70.3c7 0 13.9 0 20.8-.1h9.8c2.8 0 5.6 0 8.4-.1h1.2c8-.1 15.9-.1 23.7-.2 8.8-.1 17.6-.2 26.2-.3h8c1.6 0 3.2 0 4.8-.1 4.2-.1 8.5-.1 12.6-.2 1.6 0 3.1 0 4.7-.1l4.7-.1 9.3-.2 7.8-.1c2.5-.1 5-.1 7.4-.2l15-.3 26.4-.7c4.3-.1 8.6-.2 12.9-.4h1.3c8.1-.2 16-.5 23.8-.7 2.1-.1 4.1-.1 6.1-.2 3-.1 5.9-.2 8.8-.3 2.1-.1 4.2-.2 6.2-.2l7.5-.3c1.2 0 2.5-.1 3.7-.1 1.2 0 2.5-.1 3.7-.1 9.1-.3 18-.7 26.7-1.1 2.2-.1 4.3-.2 6.5-.3a12945.67 12945.67 0 0 0 31.5-1.5c4.1-.2 8.1-.4 12.2-.7l23.5-1.3c.3 0 .5 0 .8-.1.9 0 1.8-.1 2.8-.2 1.3-.1 2.7-.2 4-.2 1-.1 2-.1 3-.2 1.2-.1 2.5-.2 3.7-.2 1.2-.1 2.3-.2 3.5-.2 1-.1 2.1-.1 3.1-.2 1.7-.1 3.3-.2 4.9-.3.5 0 1-.1 1.5-.1 24.3-1.6 46.7-3.4 67.4-5.2h.2c1.7-.2 3.5-.3 5.2-.5h.3c.5 0 1-.1 1.6-.1.8-.1 1.6-.1 2.3-.2 1.7-.2 3.5-.3 5.2-.5 1.7-.2 3.4-.3 5.1-.5h.4c22.9-2.2 43.5-4.5 62.1-6.9 8.3-1.1 16.3-2.1 23.8-3.2 47.5-6.8 79.3-13.8 100.4-19.9 33.2-9.5 40-16.5 40-16.5v-52.6c-14.1 3.1-27.4 6-40.3 8.4z" id="Layer_4"/>
    <path class="st0" d="M1478.7 867.9v257.7h62.1V860.4c-18.6 2.6-39.2 5.1-62.1 7.5zm-1096.9-7.7v265.4h62.5V867.8c-23-2.4-43.7-5-62.3-7.6h-.2z" id="Layer_5"/>
    <path class="st0" d="M1703.1 1453.3l-70.2-327.8H287.2l-56.7 327.8h651v-151.9c0-49.4 40.1-89.5 89.5-89.5 24.7 0 47.1 10 63.3 26.2 16.2 16.2 26.2 38.6 26.2 63.3v151.9h642.6z" id="Layer_6"/>
    <path class="st0" d="M1034.3 1238.2c-16.2-16.2-38.6-26.2-63.3-26.2-49.4 0-89.5 40.1-89.5 89.5v151.9h179.1v-151.9c0-24.8-10-47.1-26.3-63.3z" id="Layer_7"/>
    <g id="STROKES">
        <path class="st1" d="M1359.3 647.5v-40.8"/>
        <path class="st1" d="M559.4 647.5v-40.8"/>
        <path class="st1" d="M1705.1 768.2v52.6s-6.9 7-40 16.5c-21.1 6-52.9 13-100.4 19.9v-70.4c29.1-.1 62.5-2.8 100.4-9.9 12.8-2.4 26.1-5.3 40-8.7z"/>
        <path class="st1" d="M359.4 786.7v70.4c-47.5-6.8-79.3-13.8-100.4-19.8-33.2-9.5-40-16.5-40-16.5v-52.6c13.9 3.4 27.2 6.3 40 8.7 37.9 7 71.3 9.8 100.4 9.8z"/>
        <path class="st1" d="M1564.6 786.7v70.4c-7.5 1.1-15.5 2.1-23.8 3.2-18.6 2.4-39.2 4.7-62.1 6.9h-.4c-4.6.5-9.3.9-14.1 1.3-29.7 2.7-63.1 5.2-100.4 7.5-30.7 1.8-64.1 3.5-100.4 4.9-31.2 1.2-64.7 2.3-100.4 3.1-31.6.7-65.1 1.3-100.4 1.7-31.9.3-65.3.5-100.4.5-35.1 0-68.5-.2-100.4-.5-35.4-.4-68.8-.9-100.4-1.7-35.8-.8-69.2-1.9-100.4-3.1-36.4-1.4-69.8-3.1-100.4-4.9-37.4-2.2-70.7-4.8-100.4-7.5-4.9-.5-9.8-.9-14.5-1.4-.3 0-.6 0-1-.1-23.1-2.2-43.9-4.6-62.5-7-7.8-1-15.3-2-22.4-3v-70.4c42.8.1 76.2-5.7 100.4-12.5 33.1-9.2 49.2-20.2 49.2-20.2l51.2-103.3 1.6-3.3c24.4 6.6 59.5 12.1 98.8 16.6 31.8 3.7 66.4 6.7 100.4 9.2 35.3 2.6 70 4.6 100.4 6.1 40.6 2 73.5 3.2 89.6 3.7 3.6.1 7.2.2 10.9.2 3.6 0 7.2 0 10.8-.2 16.1-.5 49-1.7 89.6-3.7 30.4-1.5 65.1-3.6 100.4-6.1 34-2.5 68.6-5.6 100.4-9.2 39.3-4.5 74.3-10 98.8-16.6l1.6 3.3 51.2 103.3s16.1 11 49.2 20.2c24.1 6.9 57.5 12.7 100.3 12.6z"/>
        <path class="st1" d="M444.4 867.8v257.8h-62.5V860.2c18.6 2.6 39.4 5.2 62.5 7.6z"/>
        <path class="st1" d="M1540.8 860.4v265.2h-62.5V868h.4c22.9-2.5 43.5-5 62.1-7.6z"/>
        <path class="st1" d="M1478.7 867.3v258.3H445.3V867.3c110.7 10.7 274.6 19 516.7 19 241.8 0 405.6-8.3 516.3-19h.4z"/>
        <path class="st1" d="M459.8 868.6v-94.3"/>
        <path class="st1" d="M560.3 876.1V650.8"/>
        <path class="st1" d="M660.7 881V664"/>
        <path class="st1" d="M761.1 884.1V673.3"/>
        <path class="st1" d="M861.6 885.8V679.4"/>
        <path class="st1" d="M962 886.3v-203"/>
        <path class="st1" d="M1062.4 885.8V679.4"/>
        <path class="st1" d="M1162.9 884.1V673.3"/>
        <path class="st1" d="M1263.3 881.1V664"/>
        <path class="st1" d="M1363.7 876.1V650.8"/>
        <path class="st1" d="M1464.2 868.7v-94.4"/>
        <path class="st1" d="M1703.1 1453.3H230.5l56.7-327.7h1345.6z"/>
        <path class="st1" d="M1060.6 1301.5v151.9H881.5v-151.9c0-49.4 40.1-89.5 89.5-89.5 24.7 0 47.1 10 63.3 26.2 16.3 16.2 26.3 38.5 26.3 63.3z"/>
        <path class="st1" d="M714.7 891v225.2"/>
        <path class="st1" d="M1210 886.3v239.3"/>
    </g>
</svg>
