<svg xmlns="http://www.w3.org/2000/svg" viewBox="0 0 1920 1920">
    <style>
        .st0{fill:#fff}.st1{fill:none;stroke:#000;stroke-width:50;stroke-linecap:round;stroke-linejoin:round;stroke-miterlimit:10}
    </style>
    <g id="Layer_3">
        <path class="st0" d="M1186.9 697.3c35.8-8.3 65.4-7.6 65.4-7.6 26.6 100-76.6 253.2-76.6 253.2v306.6s-28.4 79-152.8 103.1V942.9s37.1-78.7 52.9-169.8c22.9-45.7 71-66.4 111.1-75.8z"/>
        <path class="st0" d="M779.6 533c-.6-3.8-19.7-127.6 0-193.2 0 0 83.5 16.7 98.4 46.6 0 0 1.6-115.8 68.2-169.5 66.6 53.8 68.2 169.5 68.2 169.5 14.9-30 98.4-46.6 98.4-46.6 20 66.6 0 193.3 0 193.3 10-43.3 73.8-43.3 73.8-43.3 35.6 76.5 3.1 197.2.2 207.6-40.2 9.3-88.2 30-111.1 75.9 7.8-45.3 10.4-93.6.4-136.8 0 0-29.2 3.2-61.7 25.7-.2-1.4-16.9-121-68.2-172.4-51.3 51.3-68 170.9-68.2 172.4-32.5-22.5-61.7-25.7-61.7-25.7-10 43.2-7.4 91.5.4 136.8-22.5-45-70.3-65.8-111-75.3-1.7-5.8-36.2-130 .1-208.1 0-.1 63.8-.1 73.8 43.1z"/>
        <path class="st0" d="M1175.7 1249.5V1703h-152.8v-350.5c124.4-23.9 152.8-103 152.8-103z"/>
        <path class="st0" d="M1076.2 636.4c10 43.2 7.4 91.5-.4 136.8-15.8 91-52.9 169.8-52.9 169.8v409.7c-22.3 4.3-47.7 6.9-76.6 6.9-28.8 0-54.2-2.5-76.6-6.8V942.9s-37.1-78.7-52.9-169.8c-7.8-45.3-10.4-93.6-.4-136.8 0 0 29.2 3.2 61.7 25.7 24.6 17 51 45 68.2 90.9C963.5 707 990 679 1014.5 662c32.5-22.4 61.7-25.6 61.7-25.6z"/>
        <path class="st0" d="M1022.9 1352.6v350.5H869.6v-350.4c22.4 4.3 47.8 6.8 76.6 6.8 29 0 54.4-2.6 76.7-6.9z"/>
        <path class="st0" d="M1014.5 662.1c-24.6 17-51 45-68.2 90.9-17.2-45.9-43.7-73.9-68.2-90.9.2-1.4 16.9-121 68.2-172.4 51.3 51.4 68 171 68.2 172.4z"/>
        <path class="st0" d="M869.6 1352.7v350.4H713v-453.5c0-.1 31.2 79.1 156.6 103.1z"/>
        <path class="st0" d="M705.8 697.8c40.7 9.6 88.5 30.4 111 75.3 15.8 91 52.9 169.8 52.9 169.8v409.7c-125.4-24-156.6-103.1-156.6-103.1V942.9s-103.3-153.3-76.6-253.2c-.1 0 31.5-.7 69.3 8.1z"/>
    </g>
    <g id="STROKES">
        <g id="XMLID_1_">
            <path class="st1" d="M816.7 773.2c-22.5-45-70.3-65.8-111-75.3-37.7-8.9-69.4-8.1-69.4-8.1-26.7 100 76.6 253.2 76.6 253.2v760.1h462.7V942.9s103.3-153.3 76.6-253.2c0 0-29.6-.7-65.4 7.6-40.2 9.3-88.2 30-111.1 75.9"/>
            <path class="st1" d="M878 662.1c-32.5-22.5-61.7-25.7-61.7-25.7-10 43.2-7.4 91.5.4 136.8 15.8 91 52.9 169.8 52.9 169.8v760.1"/>
            <path class="st1" d="M1014.5 662.1c-24.6 17-51 45-68.2 90.9-17.2-45.9-43.7-73.9-68.2-90.9"/>
            <path class="st1" d="M1022.9 1703.1V942.9s37.1-78.7 52.9-169.8c7.8-45.3 10.4-93.6.4-136.8 0 0-29.2 3.2-61.7 25.7"/>
            <path class="st1" d="M779.7 533.1s0-.1 0 0c-10.1-43.3-73.8-43.3-73.8-43.3-36.3 78.1-1.7 202.3-.1 208.1 0 .1.1.2.1.2"/>
            <path class="st1" d="M1186.7 698s.1-.2.2-.7c2.9-10.4 35.4-131.1-.2-207.6 0 0-63.8 0-73.8 43.3 0 0 20-126.6 0-193.3 0 0-83.5 16.7-98.4 46.6 0 0-1.6-115.8-68.2-169.5-66.7 53.9-68.3 169.7-68.3 169.7-14.9-30-98.4-46.6-98.4-46.6-19.7 65.6-.6 189.3 0 193.2"/>
            <path class="st1" d="M1014.5 662.1c-.2-1.4-16.9-121-68.2-172.4-51.3 51.3-68 170.9-68.2 172.4"/>
            <path class="st1" d="M713 1249.5s31.2 79.1 156.6 103.1c22.4 4.3 47.8 6.8 76.6 6.8 28.9 0 54.3-2.5 76.6-6.9 124.4-24 152.8-103.1 152.8-103.1"/>
        </g>
    </g>
</svg>
