<svg xmlns="http://www.w3.org/2000/svg" viewBox="0 0 1920 1920">
    <style>
        .st0{fill:#fff}.st1{fill:none;stroke:#000;stroke-width:50;stroke-linecap:round;stroke-linejoin:round;stroke-miterlimit:10}
    </style>
    <path class="st0" d="M944.3 244.8c79.7 102 94 240.8 94 240.8-11.2 19.1-23 45.5-34.3 81.7l-8.1 32.6c-8.4-52.3-24-124.7-50.2-165-26.2 40.4-41.8 112.8-50.2 165l-8.1-32.6c-11.9-38.1-24.4-65.3-36.1-84.7-.2-.1 13.4-135.8 93-237.8zm94 240.7c-11.2 19.1-23 45.5-34.3 81.7l-8.1 32.6c5.8 35.9 8.1 62.3 8.1 62.3l.9 1.1c29.4-23.5 56.2-26.8 56.2-26.8 6.7 32.5 7 68 3.8 102.8 7.1-11.1 15.4-20.1 24.4-27.4l7.7-12.1s73.7-111.9 0-264.9c-.1 0-27.2-3-58.7 50.7zm-187.2-3c-30.8-50.7-56.8-47.8-56.8-47.8-73.7 153 0 264.9 0 264.9l7.7 12.1c8.9 7.2 17.2 15.9 24.3 26.6-3.1-34.6-2.7-69.7 3.9-102 0 0 26.8 3.3 56.2 26.8l.9-1.1s2.4-26.4 8.1-62.3l-8.1-32.6c-12-38-24.5-65.2-36.2-84.6zm36.1 179.6l-.9 1.1c21.4 17.1 44.3 44.9 59.2 89.8 15-44.9 37.8-72.7 59.2-89.8l-.9-1.1s-2.4-26.4-8.1-62.3c-8.4-52.3-24-124.7-50.2-165-26.2 40.4-41.8 112.8-50.2 165-5.7 35.9-8.1 62.3-8.1 62.3zm-60.9 76.3c-7.1-10.7-15.4-19.4-24.3-26.6-45.6-36.7-107.7-32.1-107.7-32.1-21.6 101.9 62.2 258.2 62.2 258.2V1251h121V942.9s-41.8-99.8-51.2-204.5zm262.9-26.6c-8.9 7.4-17.3 16.4-24.4 27.4-9.6 104.5-51.2 203.7-51.2 203.7V1251h118.5V937.9s83.9-156.3 62.2-258.2c0 0-60.4-4.7-105.1 32.1zM1013 1379v334.1h119.1V1379H1013zm-8.2-715.8c-21.4 17.1-44.3 44.9-59.2 89.8-15-44.9-37.8-72.7-59.2-89.8-29.4-23.5-56.2-26.8-56.2-26.8-6.6 32.3-7 67.4-3.9 102 9.4 104.8 51.2 204.6 51.2 204.6v308h136.1V942.9s41.6-99.3 51.2-203.7c3.2-34.9 2.9-70.3-3.8-102.8 0 0-26.8 3.3-56.2 26.8zM877.4 1379v334.1H1013V1379H877.4zm-120.8 0v334.1h120.9V1379H756.6z" id="Layer_4"/>
    <path class="st0" d="M1132.1 1251v128H756.6v-128h257.1z" id="Layer_5"/>
    <g id="STROKES">
        <g id="XMLID_1_">
            <path class="st1" d="M826.3 738.4c-7.1-10.7-15.4-19.4-24.3-26.6-45.6-36.7-107.7-32.1-107.7-32.1-21.6 101.9 62.2 258.2 62.2 258.2v775.2h375.6V937.9s83.9-156.3 62.2-258.2c0 0-60.4-4.7-105.1 32.1-8.9 7.4-17.3 16.4-24.4 27.4"/>
            <path class="st1" d="M1013.7 1251V942.9s41.6-99.3 51.2-203.7c3.2-34.9 2.9-70.3-3.8-102.8 0 0-26.8 3.3-56.2 26.8-21.4 17.1-44.3 44.9-59.2 89.8-15-44.9-37.8-72.7-59.2-89.8-29.4-23.5-56.2-26.8-56.2-26.8-6.6 32.3-7 67.4-3.9 102 9.4 104.8 51.2 204.6 51.2 204.6v308"/>
            <path class="st1" d="M1004 662.1s-2.4-26.4-8.1-62.3c-8.4-52.3-24-124.7-50.2-165-26.2 40.4-41.8 112.8-50.2 165-5.8 35.9-8.1 62.3-8.1 62.3"/>
            <path class="st1" d="M802 711.8l-7.7-12.1s-73.7-111.9 0-264.9c0 0 26-2.9 56.8 47.8 11.7 19.4 24.2 46.5 36.1 84.7l8.1 32.6"/>
            <path class="st1" d="M1089.2 711.8l7.7-12.1s73.7-111.9 0-264.9c0 0-27-3-58.6 50.8-11.2 19.1-23 45.5-34.3 81.7l-8.1 32.6"/>
            <path class="st1" d="M1038.3 485.5s-14.2-138.8-94-240.8c-79.7 102-93.2 237.8-93.2 237.8"/>
            <path class="st1" d="M756.6 1251h375.5"/>
            <path class="st1" d="M756.6 1379h375.5"/>
            <path class="st1" d="M877.4 1379v334.1"/>
            <path class="st1" d="M1013 1379v334.1"/>
        </g>
    </g>
</svg>
