<svg xmlns="http://www.w3.org/2000/svg" viewBox="0 0 1920 1920">
    <style>
        .st0{fill:#fff}.st1{fill:none;stroke:#000;stroke-width:50;stroke-linecap:round;stroke-linejoin:round;stroke-miterlimit:10}
    </style>
    <path class="st0" d="M919 1645.4c7.8 28.1-12.6 56.2-41.7 57.5-.7 0-1.4.1-2.1.1h-62.7c-.7 0-1.4-.1-2.1-.1-24.9-1.1-43.4-21.8-43.4-45.3 0-4 .5-8.1 1.7-12.2 9.8-35.1 14.7-71.4 14.7-107.9v-1028h121v1028.1c0 18.2 1.2 36.4 3.7 54.4s6 35.8 10.9 53.4zm-14.9-1368c0-16.7-6.8-31.8-17.7-42.7-10.9-10.9-26-17.7-42.7-17.7-33.4 0-60.4 27-60.4 60.4v28.4h120.8v-28.4z" id="Layer_10"/>
    <path class="st0" d="M1213.5 305.8v311.8c-104.6-108-292.5-108-292.5-108H706.5V305.8h507z" id="Layer_5"/>
    <g id="STROKES">
        <g id="XMLID_3_">
            <path class="st1" d="M783.3 509.5h-76.8V305.8h507v311.8c-104.6-108-292.5-108-292.5-108H783.3z"/>
            <path class="st1" d="M783.3 277.4c0-33.4 27-60.4 60.4-60.4 16.7 0 31.8 6.8 42.7 17.7 10.9 10.9 17.7 26 17.7 42.7"/>
            <path class="st1" d="M783.3 511.6v1026c0 36.4-4.9 72.7-14.7 107.9-1.1 4.1-1.7 8.2-1.7 12.2 0 23.5 18.5 44.2 43.4 45.3.7 0 1.4.1 2.1.1h62.7c.7 0 1.4-.1 2.1-.1 29.2-1.3 49.6-29.4 41.7-57.5-4.9-17.6-8.5-35.4-11-53.4s-3.7-36.2-3.7-54.4v-1026"/>
            <path class="st1" d="M783.3 277.4v28.4"/>
            <path class="st1" d="M904.1 277.4v28.4"/>
        </g>
    </g>
</svg>
