<svg xmlns="http://www.w3.org/2000/svg" viewBox="0 0 1920 1920">
    <style>
        .st0{fill:#fff}.st1{fill:none;stroke:#000;stroke-width:50;stroke-linecap:round;stroke-linejoin:round;stroke-miterlimit:10}
    </style>
    <path class="st0" d="M1088.8 828.2v74.6h-252V419.7h252v408.5zM1008 561c0-26.5-21.5-48-48-48s-48 21.5-48 48 21.5 48 48 48 48-21.5 48-48z" id="Layer_6"/>
    <circle class="st0" cx="960" cy="561" r="48" id="Layer_7"/>
    <path class="st0" d="M888 902.8h144V1703H888z" id="Layer_8"/>
    <path class="st0" d="M960 225.7l72 194.1H888z" id="Layer_9"/>
    <path class="st0" d="M836.8 500.9v327.3c-105.5 46.8-219 120.8-219 248.7 0 0-159-132.1-159-420s159-411.2 159-411.2c0 128.8 112.9 208.6 219 255.2zm252 0v327.3c105.5 46.8 219 120.8 219 248.7 0 0 159-132.1 159-420s-159-411.2-159-411.2c.1 128.8-112.8 208.6-219 255.2z" id="Layer_11"/>
    <g id="STROKES">
        <g id="XMLID_2_">
            <path class="st1" d="M888 902.8v800.3h144V902.8"/>
            <path class="st1" d="M836.8 500.9v-81.1h252v81.1"/>
            <path class="st1" d="M1088.8 828.2v74.6h-252v-74.6"/>
            <circle class="st1" cx="960" cy="561" r="48"/>
            <path class="st1" d="M836.8 500.9c-106.1-46.6-219-126.5-219-255.2 0 0-159 123.2-159 411.2s159 420 159 420c0-127.9 113.5-201.9 219-248.7V500.9z"/>
            <path class="st1" d="M1088.8 500.9c106.1-46.6 219-126.5 219-255.2 0 0 159 123.2 159 411.2s-159 420-159 420c0-127.9-113.5-201.9-219-248.7V500.9z"/>
            <path class="st1" d="M1032 419.8l-72-194.1-72 194.1"/>
        </g>
    </g>
</svg>
