<svg xmlns="http://www.w3.org/2000/svg" viewBox="0 0 1920 1920">
    <style>
        .st0{fill:#fff}.st1{fill:none;stroke:#000;stroke-width:50;stroke-linecap:round;stroke-linejoin:round;stroke-miterlimit:10}
    </style>
    <path class="st0" d="M1335.3 409.6c11.7 11.7 17.6 27 17.6 42.4 0 15.3-5.8 30.7-17.6 42.4l-45.5 45.5c-40.4-24.2-76.6-46.9-104.6-64.8l65.4-65.4c23.4-23.5 61.3-23.5 84.7-.1zM229.4 1361.9c-22.7-2.8-15.2 79.3 29.5 124.1s126.9 52.2 124.1 29.6c-5.1-40.8 548-610.5 643.4-712.3-21.7-36.3-42.2-69.1-59.2-95.7 0-.1-690.5 660.2-737.8 654.3z" id="Layer_2"/>
    <path class="st0" d="M1582.3 690s-33.4 144.2-147 257.7c-113.6 113.6-261.8 139.8-261.8 139.8-34.7-88.8-94.6-196.7-147.1-284.4-21.7-36.3-42.2-69.1-59.2-95.7-26.7-42-44.6-68.4-44.6-68.4l101-101.1 1-.9 101-101.1s22.8 15.4 59.5 38.9c28 17.9 64.2 40.6 104.6 64.8C1380.2 594 1492 655.9 1582.3 690z" id="Layer_3"/>
    <path class="st0" d="M1173.5 1087.6s148.2-26.3 261.8-139.8c113.6-113.6 147-257.7 147-257.7 48.8 18.5 91.3 28.9 120.8 25.5 0 0-28.5 211.7-158.4 341.6l-1 1c-129.9 129.9-341.6 158.4-341.6 158.4 3.6-31.2-8.2-76.8-28.6-129z" id="Layer_4"/>
    <g id="STROKES">
        <g id="XMLID_1_">
            <path class="st1" d="M1543.7 1058.1c-129.9 129.9-341.6 158.4-341.6 158.4 3.6-31-8.2-76.6-28.6-128.8-34.7-88.8-94.6-196.7-147.1-284.4-21.7-36.3-42.2-69.1-59.2-95.7-26.7-42-44.6-68.4-44.6-68.4l101-101.1 1-.9 101-101.1s22.8 15.4 59.5 38.9c28 17.9 64.2 40.6 104.6 64.8C1380.2 594 1492 655.9 1582.3 690c48.8 18.5 91.3 28.9 120.8 25.5 0 0-28.5 211.7-158.4 341.6"/>
            <path class="st1" d="M1026.4 803.2C931 905.1 377.9 1474.7 383 1515.5c2.8 22.6-79.3 15.2-124.1-29.6s-52.2-126.9-29.5-124.1c47.3 5.9 737.9-654.4 737.9-654.4"/>
            <path class="st1" d="M1185.2 475l65.4-65.4c23.4-23.4 61.3-23.4 84.7 0 11.7 11.7 17.6 27 17.6 42.4 0 15.3-5.8 30.7-17.6 42.4l-45.5 45.5"/>
            <path class="st1" d="M1582.3 690s-33.4 144.2-147 257.7c-113.6 113.6-261.8 139.8-261.8 139.8"/>
        </g>
    </g>
</svg>
