<svg xmlns="http://www.w3.org/2000/svg" viewBox="0 0 1920 1920">
    <style>
        .st0{fill:#fff}.st1{fill:none;stroke:#231f20;stroke-width:50;stroke-linecap:round;stroke-linejoin:round;stroke-miterlimit:10}
    </style>
    <path class="st0" d="M1461.7 681.1c-12.8-11.1-24.3-8.9-33-3.3-11.4 7.4-24.7 11.6-38.3 10.8-12.4-.7-26.6 5.4-32.2 33.7-11 54.9 15.1 84.5 15.1 84.5-15.2 55.2-81.6 100.9-81.6 100.9s-104.2-19.5-156.8-33.6c-12.3-8.9-25.2-16.9-38.6-23.8 91.2-37 160-111.1 182.9-201.1 2.7.3 5.5.5 8.3.5 36.8 0 66.6-29.8 66.6-66.6s-29.8-66.6-66.6-66.6c-2.8 0-5.6.2-8.3.5-33.1-129.8-161.6-226.5-315-226.5s-281.9 96.8-315 226.5c-2.7-.3-5.5-.5-8.3-.5-36.8 0-66.6 29.8-66.6 66.6s29.8 66.6 66.6 66.6c2.8 0 5.6-.2 8.3-.5 22.9 90 91.7 164.1 182.9 201.1-11.4 5.9-22.4 12.5-32.9 19.8-44.9 14.1-170.8 37.6-170.8 37.6S562 862 546.8 806.8c0 0 26.2-29.6 15.2-84.5s-54-26.4-54-26.4-21.6-39.2-49.6-14.9c-28 24.3-61.1 98.2-36.5 127.9 24.6 29.7 48.3 39.7 48.3 39.7s-8.1 102.5 50.4 136.6c0 0 58.5 32.3 146.7 22-9.4 32.7-14.4 67.5-14.4 103.6 0 10.4.4 20.7 1.2 30.8 5.8-7.6 12.2-14.9 19.3-22 14.7-14.7 32.1-28.2 51.8-40.2 2.9-1.8 5.9-3.5 8.9-5.2 3-1.7 6.1-3.4 9.2-5.1a374.4 374.4 0 0 1 39.4-18.1v-.9l12.6-19.8c.5-.5 1.1-1.1 1.7-1.6.3-.3.6-.5.9-.8.9-.8 1.8-1.7 2.8-2.5.3-.3.6-.6 1-.8 1-.9 2-1.7 3-2.6 1-.9 2.1-1.7 3.2-2.6 7.8-6.1 17.2-12.3 28-18.3 1.5-.9 3.1-1.7 4.7-2.5.5-.3 1.1-.6 1.6-.8 2.7-1.4 5.4-2.8 8.3-4.1 2.3-1.1 4.6-2.1 6.9-3.2 1.8-.8 3.6-1.5 5.4-2.3.6-.2 1.2-.5 1.8-.8 1.2-.5 2.4-1 3.7-1.5 1.2-.5 2.5-1 3.8-1.4 1.3-.5 2.5-.9 3.8-1.4 1.3-.5 2.6-.9 3.9-1.4 2.6-.9 5.2-1.8 7.9-2.6l8.1-2.4c1.4-.4 2.7-.8 4.1-1.1 20.1-5.2 41.8-8.5 64.5-8.5 54.1 0 102.7 17.8 135.9 37.4 1.9 1.1 3.8 2.3 5.6 3.4.4.3.9.6 1.4.9 3.1 2 6.1 4 8.9 6 .8.6 1.6 1.1 2.4 1.7 1.2.9 2.3 1.7 3.4 2.5 3.3 2.5 6.3 5 8.9 7.5.6.5 1.2 1.1 1.7 1.6.6.5 1.1 1.1 1.6 1.6.3.2.5.5.8.8 1 1 2 2.1 2.9 3.1.2.2.4.5.6.7 1.3 1.5 2.4 2.9 3.4 4.3.5.7.9 1.4 1.3 2 .5.9 1 1.7 1.4 2.5.2.4.4.8.5 1.2.5 1.2.8 2.2.9 3.2 0 .3.1.7.1 1 0 .6-.1 1.4-.2 2.3 32 12.6 60.5 28.5 84.3 46.8 1.3 1 2.6 2 3.8 3 1.9 1.5 3.8 3 5.6 4.6 1.8 1.5 3.6 3.1 5.4 4.7 3.5 3.1 6.9 6.4 10.2 9.6 7.1 7.1 13.6 14.4 19.3 22 .8-10.1 1.2-20.4 1.2-30.8 0-35.8-5-70.3-14.2-102.8 81.5 5.2 138.5-23.5 138.5-23.5 58.5-34 50.1-135.9 50.1-135.9s23.8-10 48.3-39.7c24.4-29.5-8.7-103.4-36.7-127.7zM825 749.8v-1.2c0-66.2 61-188 136.7-189.2 77.1-1.1 141.5 121.9 141.6 189.1v1.3c-.2 14.9-21.5 21.6-32.5 10.2-25.5-26.5-63.8-43.3-106.6-43.3s-81.1 16.8-106.6 43.3c-11.1 11.4-32.4 4.7-32.6-10.2z" id="Layer_6"/>
    <path class="st0" d="M770.6 1452.5s19.6-11.4 47.1-28.7c8.3-5.2 17.2-11 26.6-17.2 4.6-3 9.4-6.2 14.1-9.4 29-19.6 28.1-55.3-2-73.9l-95.8-59.2c-15.3-9.4-37.6-7.6-49.7 4.4l-.2.2c-17.8 17.5-37 36.8-55.2 55.8-1.1 1.2-2.3 2.4-3.4 3.5-38.6 40.5-71.9 78.8-75.5 94.2-9.1 38.3 175.9 181.9 175.9 181.9l-45.1 37.7c-19.7 16.4-14.2 48.2 10 56.7 21.6 7.7 53 7.5 95.8-17.8 97-57.4 93.6-100.5 93.6-100.5s-8.8-104.6-136.2-127.7z" id="Layer_13"/>
    <path class="st0" d="M1276.2 1328.1c-1.1-1.2-2.2-2.4-3.4-3.6-18.2-19-37.4-38.3-55.2-55.8l-.2-.2c-12.2-12-34.4-13.8-49.7-4.4l-95.8 59.2c-30.1 18.6-31 54.3-2 73.9 4.8 3.2 9.5 6.4 14.1 9.4 9.3 6.2 18.2 11.9 26.5 17.1 27.5 17.4 47.2 28.8 47.2 28.8-127.4 23.1-136.1 127.7-136.1 127.7s-3.5 43.1 93.6 100.5c42.8 25.3 74.1 25.5 95.8 17.8 24.1-8.6 29.7-40.3 10-56.7l-45.1-37.7s185-143.6 175.9-181.9c-3.7-15.3-36.9-53.6-75.6-94.1z" id="Layer_14"/>
    <path class="st0" d="M1070.8 760c11 11.4 32.3 4.7 32.5-10.2v-1.3c-.1-67.2-64.5-190.2-141.6-189.1C886 560.6 825 682.3 825 748.6v1.3c.2 14.9 21.5 21.6 32.5 10.2 25.5-26.5 63.8-43.3 106.6-43.3s81.1 16.7 106.7 43.2z" id="Layer_7"/>
    <path class="st0" d="M1274.3 1141.7c-5.8-7.6-12.2-15-19.3-22-3.3-3.3-6.7-6.5-10.2-9.6-1.8-1.6-3.6-3.1-5.4-4.7-1.8-1.5-3.7-3.1-5.6-4.6-1.3-1-2.5-2-3.8-3-23.8-18.4-52.3-34.2-84.3-46.8.1-.9.2-1.7.2-2.3 0-.3 0-.6-.1-1-.1-1-.4-2.1-.9-3.2-.2-.4-.3-.8-.5-1.2-.4-.8-.9-1.6-1.4-2.5-.4-.7-.8-1.3-1.3-2-1-1.4-2.1-2.8-3.4-4.3-.2-.2-.4-.5-.6-.7-.9-1-1.8-2-2.9-3.1l-.8-.8-1.6-1.6c-.6-.5-1.1-1.1-1.7-1.6-2.7-2.4-5.6-4.9-8.9-7.5-1.1-.8-2.2-1.7-3.4-2.5-.8-.6-1.6-1.1-2.4-1.7-2.8-2-5.8-4-8.9-6-.5-.3-.9-.6-1.4-.9-1.8-1.1-3.7-2.3-5.6-3.4-33.3-19.6-81.9-37.4-135.9-37.4-22.7 0-44.5 3.2-64.5 8.5-1.4.4-2.8.7-4.1 1.1l-8.1 2.4c-2.7.8-5.3 1.7-7.9 2.6-1.3.4-2.6.9-3.9 1.4-1.3.5-2.5.9-3.8 1.4-1.3.5-2.5 1-3.8 1.4-1.2.5-2.5 1-3.7 1.5-.6.2-1.2.5-1.8.8-1.8.8-3.6 1.5-5.4 2.3-2.3 1-4.7 2.1-6.9 3.2-2.8 1.3-5.6 2.7-8.3 4.1-.5.3-1.1.6-1.6.8-12.8 6.7-23.8 13.9-32.7 20.8-1.1.9-2.2 1.7-3.2 2.6-1.1.9-2.1 1.7-3 2.6-.3.3-.7.6-1 .8-1 .8-1.9 1.7-2.8 2.5-.3.3-.6.5-.9.8-.6.6-1.1 1.1-1.7 1.6l-12.6 19.8v.9c-13.8 5.4-27 11.5-39.4 18.1-3.1 1.7-6.2 3.3-9.2 5.1-3 1.7-6 3.5-8.9 5.2-5.8 3.6-11.5 7.3-16.9 11.1-12.9 9.1-24.5 18.8-34.9 29.2-7.1 7.1-13.5 14.4-19.3 22-21.7 28.6-33.9 60.7-33.9 94.6 0 32.8 11.5 64 32 91.9 1.1-1.2 2.2-2.4 3.4-3.5 18.2-19 37.4-38.3 55.2-55.8l.2-.2c12.2-12 34.4-13.8 49.7-4.4l95.8 59.2c30.1 18.6 31 54.3 2 73.9-4.8 3.2-9.5 6.4-14.1 9.4-9.4 6.2-18.3 12-26.6 17.2 13.3 8.6 21.7 14.8 20.7 15.5 37.8 9.4 78.9 14.7 121.9 15h7.6c42.9-.3 83.9-5.6 121.6-14.9-.9-.7 7.6-7 21-15.6-8.2-5.2-17.2-11-26.5-17.1-4.6-3-9.4-6.2-14.1-9.4-29-19.6-28-55.3 2-73.9l95.8-59.2c15.3-9.4 37.6-7.6 49.7 4.4l.2.2c17.8 17.5 37 36.8 55.2 55.8 1.1 1.2 2.3 2.4 3.4 3.6 20.5-27.9 32-59.1 32-91.9.1-34.3-12.1-66.4-33.8-95z" id="Layer_8"/>
    <g id="STROKES">
        <path class="st1" d="M1103.3 748.5v1.3c-.2 14.9-21.5 21.6-32.5 10.2-25.5-26.5-63.8-43.3-106.6-43.3S883 733.5 857.5 760c-11 11.4-32.3 4.7-32.5-10.2v-1.3c0-66.2 61-188 136.7-189.2 77.1-1 141.5 122 141.6 189.2z"/>
        <path class="st1" d="M1103.3 748.5v1.3c-.2 14.9-21.5 21.6-32.5 10.2-25.5-26.5-63.8-43.3-106.6-43.3S883 733.5 857.5 760c-11 11.4-32.3 4.7-32.5-10.2v-1.3c0-66.2 61-188 136.7-189.2 77.1-1 141.5 122 141.6 189.2z"/>
        <path class="st1" d="M888.1 434.7s-47.5 18-77.7 44.4"/>
        <path class="st1" d="M1037.7 434.7s47.5 18 77.7 44.4"/>
        <path class="st1" d="M981.2 287.9l34.7-71"/>
        <path class="st1" d="M1070.4 301.9l26.8-55.9"/>
        <path class="st1" d="M1287.4 516.6c-2.8 0-5.6.2-8.3.5-33.1-129.8-161.6-226.5-315-226.5s-281.9 96.8-315 226.5c-2.7-.3-5.5-.5-8.3-.5-36.8 0-66.6 29.8-66.6 66.6s29.8 66.6 66.6 66.6c2.8 0 5.6-.2 8.3-.5 22.9 90 91.7 164.1 182.9 201.1 40.3 16.4 85 25.5 132.1 25.5s91.8-9.1 132.1-25.5c91.2-37 160-111.1 182.9-201.1 2.7.3 5.5.5 8.3.5 36.8 0 66.6-29.8 66.6-66.6s-29.8-66.6-66.6-66.6zm-184.1 233.2c-.2 14.9-21.5 21.6-32.5 10.2-25.5-26.5-63.8-43.3-106.6-43.3S883 733.5 857.5 760c-11 11.4-32.3 4.7-32.5-10.2v-1.3c0-66.2 61-188 136.7-189.2 77.1-1.1 141.5 121.9 141.6 189.1v1.4z"/>
        <path class="st1" d="M1274.3 1141.7c-28.5-37.4-73.3-68.9-128.7-90.8.2-.9.2-1.7.2-2.3 0-20-81.3-81.4-181.7-81.4s-181.7 62.9-181.7 82.9v.9c-55.3 21.8-100.1 53.3-128.5 90.7-21.7 28.6-33.9 60.7-33.9 94.6 0 32.8 11.5 64 32 91.9 1.1-1.2 2.3-2.4 3.4-3.5 18.2-19 37.4-38.3 55.2-55.9l.2-.2c12.2-12 34.4-13.8 49.7-4.4l95.8 59.2c30.1 18.6 31.1 54.3 2 73.9-4.8 3.2-9.5 6.4-14.1 9.4-9.4 6.2-18.3 12-26.6 17.2 13.3 8.6 21.7 14.8 20.7 15.5 37.8 9.4 78.9 14.7 121.9 15h7.6c42.9-.3 83.9-5.6 121.6-14.9-1-.7 7.5-7 21-15.6-8.2-5.2-17.2-11-26.5-17.1-4.6-3-9.4-6.2-14.1-9.4-29-19.6-28-55.3 2-73.9l95.8-59.2c15.3-9.4 37.6-7.6 49.7 4.4l.2.2c17.8 17.5 37 36.9 55.2 55.9 1.1 1.2 2.3 2.4 3.4 3.6 20.5-27.9 32-59.1 32-91.9.1-34.1-12.1-66.2-33.8-94.8z"/>
        <path class="st1" d="M813.1 1680.8c-42.8 25.3-74.1 25.5-95.8 17.8-24.2-8.6-29.7-40.3-10-56.7l45.1-37.7s-185-143.6-175.9-181.9c3.7-15.3 36.9-53.7 75.5-94.1 1.1-1.2 2.3-2.4 3.4-3.5 18.2-19 37.4-38.3 55.2-55.9l.2-.2c12.2-12 34.4-13.8 49.7-4.4l95.8 59.2c30.1 18.6 31.1 54.3 2 73.9-4.8 3.2-9.5 6.4-14.1 9.4-9.4 6.2-18.3 12-26.6 17.2-27.4 17.4-47.1 28.7-47.1 28.7 127.4 23.1 136.1 127.7 136.1 127.7s3.5 43-93.5 100.5z"/>
        <path class="st1" d="M1175.9 1604.2l45.1 37.7c19.7 16.4 14.2 48.2-10 56.7-21.7 7.7-53 7.5-95.8-17.8-97-57.4-93.6-100.5-93.6-100.5s8.7-104.6 136.1-127.7c0 0-19.7-11.4-47.2-28.8-8.2-5.2-17.2-11-26.5-17.1-4.6-3-9.4-6.2-14.1-9.4-29-19.6-28-55.3 2-73.9l95.8-59.2c15.3-9.4 37.6-7.6 49.7 4.4l.2.2c17.8 17.5 37 36.9 55.2 55.9 1.1 1.2 2.3 2.4 3.4 3.6 38.6 40.5 71.9 78.8 75.5 94.1 9.2 38.2-175.8 181.8-175.8 181.8z"/>
        <path class="st1" d="M782.5 1051c.4 9 4.8 83.2 42.5 112.9"/>
        <path class="st1" d="M1136.7 1050.1s-2.4 82.2-42.5 113.8"/>
        <path class="st1" d="M799.1 870.2C737 913 689.7 928.8 667.2 1007.3c-88.2 10.3-146.7-22-146.7-22-58.5-34-50.4-136.6-50.4-136.6s-23.7-10-48.3-39.7c-24.6-29.7 8.5-103.6 36.5-127.9 28-24.3 49.6 14.9 49.6 14.9s43-28.5 54 26.4-15.2 84.5-15.2 84.5c15.2 55.2 81.6 100.9 81.6 100.9s125.9-23.6 170.8-37.6z"/>
        <path class="st1" d="M507.9 696l-10 24.4"/>
        <path class="st1" d="M1275.5 1110.9c0 10.4-.4 20.7-1.2 30.8-28.5-37.4-73.3-68.9-128.7-90.8.2-.9.2-1.7.2-2.3 0-20-81.3-81.4-181.7-81.4s-181.7 62.9-181.7 82.9v.9c-55.3 21.8-100.1 53.3-128.5 90.7-.8-10.2-1.2-20.4-1.2-30.8 0-36.1 5.1-70.9 14.4-103.6C689.6 928.8 737 913 799 870.2c10.6-7.3 21.6-13.9 32.9-19.8 40.3 16.4 85 25.5 132.1 25.5s91.8-9.1 132.1-25.5c13.4 6.9 26.3 14.9 38.6 23.8 59.5 43.1 104.8 57.5 126.5 133.9 9.3 32.4 14.3 67 14.3 102.8z"/>
        <path class="st1" d="M1498.2 809c-24.6 29.7-48.3 39.7-48.3 39.7s8.4 101.8-50.1 135.9c0 0-56.9 28.6-138.5 23.5-21.7-76.4-67-90.8-126.5-133.9 52.6 14.1 156.8 33.6 156.8 33.6s66.4-45.7 81.6-100.9c0 0-26.2-29.6-15.2-84.5 5.7-28.3 19.8-34.4 32.2-33.7 13.6.8 26.9-3.4 38.3-10.8 8.7-5.7 20.2-7.9 33 3.3 28.2 24.2 61.3 98.1 36.7 127.8z"/>
    </g>
</svg>
