<svg xmlns="http://www.w3.org/2000/svg" viewBox="0 0 1920 1920">
    <style>
        .st0{fill:#fff}.st1{fill:none;stroke:#231f20;stroke-width:50;stroke-linecap:round;stroke-linejoin:round;stroke-miterlimit:10}
    </style>
    <path class="st0" d="M1696.1 1448.3l-56.8-66.4s2.8-41.1-45.4-41.1c-48.2 0-51.1 26.9-51.1 26.9s-44.8-70.9-150.1-31.9l24.4-55.3 58.3-131.8c27.5-62.2-3.5-134.7-67.5-157.7-13.1-4.7-26.5-7-39.7-7-46.2 0-89.8 27.5-108.4 72.6-24.4 59-53.5 134.3-73 200.8-62.2-36.7-104-104.4-104-181.9v-245c-59.9-.1-122-1.1-175-3.9-68.7-3.7-115.6 4.9-146.9 16.1 8.7-65.4-6.5-132.9-48.1-188.6-87.4-116.8-257.9-137-380.8-45.1-3.3 2.5-6.5 5-9.7 7.6C207.5 710 182.4 873.3 267.4 987c84.1 112.5 245.2 135.4 366.9 54.9-15 58-35.5 147.6-29.5 182.2 0 0-51.7 109.8-38.5 176.4 0 0-88.2-15.7-104.3 21.5-16.1 37.2 27.6 56.8 69.1 56.8s117.5 2 117.5-50.9c0 0 99.1-92 101.4-180.2 0 0 28.3-27.4 56.6-60 59.4 40.4 184.2 101.1 377.6 78.5-5.9 20.8-10.9 40.7-14.3 58.7-3.4 18-5.4 34.2-5.4 47.8 0 115.1 84.3 106.9 84.3 106.9h339.4s40.6 9.5 81.9 15.7c26.2 4 43.2-26.8 26-47z" id="Layer_9"/>
    <path class="st0" d="M378.4 458.9l-43.1 26.9-4.6 2.9v-.2h-1.3v.6l-59.9-1.6 10.1 31.4 49.8-29.4v.3h1.3v-.4l3.3 1.2 48.5 17.4z" id="Layer_10"/>
    <path class="st0" d="M413 1103.8l-85-46c-10.7-5.8-24.2-1.8-30 8.9l-2.7 5c-5.8 10.8-1.8 24.2 8.9 30l42.5 23 42.5 23c10.7 5.8 24.2 1.8 30-8.9l2.7-5c5.8-10.7 1.8-24.1-8.9-30z" id="Layer_15"/>
    <path class="st0" d="M1622.6 1025c0 27.6-4.3 54.2-12.2 79.2-12.8 40.3-35.1 76.4-64.4 105.6-34.7 34.8-79.2 59.8-129 70.6l58.3-131.8c27.5-62.2-3.5-134.7-67.5-157.7-13.1-4.7-26.5-7-39.7-7-46.2 0-89.8 27.5-108.4 72.6-24.4 59-53.5 134.3-73 200.8-62.2-36.7-104-104.4-104-181.9v-245c.1-37 30-67 67-67h211.5c144.4.2 261.4 117.2 261.4 261.6z" id="Layer_11"/>
    <g id="STROKES">
        <path class="st1" d="M503 749.7c8.3-34.5 42.9-55.7 77.4-47.4 34.5 8.3 55.7 42.9 47.4 77.4-5.7 23.6-23.7 40.9-45.5 46.9"/>
        <path class="st1" d="M389.2 1147.7l-85-46c-10.7-5.8-14.7-19.2-8.9-30l2.7-5c5.8-10.7 19.2-14.7 30-8.9l85 46c10.7 5.8 14.7 19.2 8.9 30l-2.7 5c-5.8 10.8-19.2 14.8-30 8.9z"/>
        <path class="st1" d="M358.6 1102.8l-36.4 67.3"/>
        <path class="st1" d="M340.4 926.4s1.6-32.1 28.5-46.9"/>
        <path class="st1" d="M243.9 426.2c14.4-3.8 29-7.7 43.8-7.4 14.9.3 30.3 5.4 39.8 16.8 15.7 18.7 10.8 47.1 1.1 69.6-9.7 22.5-23.6 44.4-23.6 68.8 0 25.3 17 49.8 40.7 58.7"/>
        <path class="st1" d="M330 489.1l48.4-30.2 4.1 49.1z"/>
        <path class="st1" d="M279.6 518.9l50.4-29.8-60.5-1.6z"/>
        <path class="st1" d="M760.8 842.7c-9.6 71.9-48.2 141.3-112.6 189.4-4.6 3.4-9.2 6.7-13.9 9.8-121.6 80.5-282.8 57.6-366.9-54.9-85-113.7-60-277 54.7-370.4 3.2-2.6 6.4-5.1 9.7-7.6 122.9-91.9 293.4-71.7 380.8 45.1 41.7 55.7 56.9 123.2 48.2 188.6z"/>
        <path class="st1" d="M858.3 1114.3c-9 21-30.3 48.7-51.7 73.5-28.3 32.6-56.6 60-56.6 60-2.3 88.1-101.4 180.2-101.4 180.2 0 52.9-76.1 50.9-117.5 50.9-41.5 0-85.3-19.6-69.1-56.8 16.1-37.2 104.3-21.5 104.3-21.5-13.2-66.6 38.5-176.4 38.5-176.4-6-34.6 14.5-124.2 29.5-182.2"/>
        <path class="st1" d="M760.8 842.7c31.3-11.2 78.2-19.7 146.9-16.1 52.9 2.8 115 3.8 175 3.9"/>
        <path class="st1" d="M1622.7 1025c0 27.6-4.3 54.2-12.2 79.2-12.8 40.3-35.1 76.4-64.3 105.7-34.7 34.7-79.2 59.8-129 70.6l58.3-131.8c27.5-62.2-3.5-134.7-67.5-157.7-13.1-4.7-26.5-7-39.7-7-46.2 0-89.8 27.5-108.4 72.6-24.3 59-53.5 134.4-73 200.8-62.2-36.7-104-104.4-104-181.9v-245c0-37 30-67 67-67h211.5c144.2.1 261.3 117.1 261.3 261.5z"/>
        <path class="st1" d="M806.6 1187.8c59.4 40.5 184.2 101.2 377.6 78.5"/>
        <path class="st1" d="M1670.1 1495.4c-41.3-6.2-81.9-15.7-81.9-15.7h-339.4s-84.3 8.2-84.3-106.9c0-27.1 7.8-64.8 19.7-106.5.8-2.9 1.7-5.9 2.6-8.9 19.6-66.5 48.7-141.8 73-200.8 18.6-45.1 62.2-72.6 108.4-72.6 13.2 0 26.6 2.2 39.7 7 64 23 95 95.5 67.5 157.7l-58.3 131.8-24.4 55.3c105.3-39 150.1 31.9 150.1 31.9s2.8-27 51.1-27c48.2 0 45.4 41.1 45.4 41.1l56.8 66.4c17.2 20.3.2 51.1-26 47.2z"/>
    </g>
</svg>
