<svg xmlns="http://www.w3.org/2000/svg" viewBox="0 0 1920 1920">
    <style>
        .st0{fill:#fff}.st1{fill:none;stroke:#231f20;stroke-width:50;stroke-linecap:round;stroke-linejoin:round;stroke-miterlimit:10}
    </style>
    <path class="st0" d="M1549.6 808.7c-7.7 0-15.3.6-22.8 1.7C1456.2 584 1229.1 418.3 960 418.3S463.8 584 393.2 810.4c-7.4-1.1-15-1.7-22.8-1.7-83.5 0-151.3 67.7-151.3 151.3s67.7 151.3 151.3 151.3c7.7 0 15.3-.6 22.8-1.7 70.6 226.4 297.6 392.1 566.8 392.1s496.2-165.7 566.8-392.1c7.4 1.1 15 1.7 22.8 1.7 83.5 0 151.3-67.7 151.3-151.3s-67.8-151.3-151.3-151.3zM659.3 948c0-38.6 31.3-69.8 69.8-69.8s69.8 31.3 69.8 69.8-31.2 69.8-69.8 69.8-69.8-31.3-69.8-69.8zm390.6 412.2c-5 0-9.9-.2-14.7-.7-17.2-1.6-33.5-6.1-48.1-12.9-22.5-10.4-49.3-10.4-71.8 0-14.7 6.8-30.9 11.2-48.1 12.9-4.8.4-9.7.7-14.7.7-77 0-139-56.5-134.9-124.9 3.6-61.2 61-110.3 130.8-112.1 24.3-.6 47.3 4.4 67.2 13.7 22.2 10.3 49.1 10.3 71.3 0 20-9.3 42.9-14.3 67.2-13.7 69.9 1.8 127.2 50.9 130.8 112.1 4 68.4-58 124.9-135 124.9zm141-342.4c-38.6 0-69.8-31.3-69.8-69.8s31.2-69.8 69.8-69.8 69.8 31.3 69.8 69.8-31.3 69.8-69.8 69.8z" id="Layer_2"/>
    <path class="st0" d="M1049.9 1360.2c-5 0-9.9-.2-14.7-.7-17.2-1.6-33.5-6.1-48.1-12.9-22.5-10.4-49.3-10.4-71.8 0-14.7 6.8-30.9 11.2-48.1 12.9-4.8.4-9.7.7-14.7.7-77 0-139-56.5-134.9-124.9 3.6-61.2 61-110.3 130.8-112.1 24.3-.6 47.3 4.4 67.2 13.7 22.2 10.3 49.1 10.3 71.3 0 20-9.3 42.9-14.3 67.2-13.7 69.9 1.8 127.2 50.9 130.8 112.1 4 68.4-58 124.9-135 124.9z" id="Layer_4"/>
    <ellipse class="st0" cx="729.1" cy="948" rx="69.8" ry="69.8" id="Layer_5"/>
    <ellipse class="st0" cx="1190.9" cy="948" rx="69.8" ry="69.8" id="Layer_12"/>
    <g id="STROKES">
        <path class="st1" d="M1549.6 808.7c-7.7 0-15.3.6-22.8 1.7C1456.1 584 1229.1 418.3 960 418.3S463.9 584 393.2 810.4c-7.4-1.1-15-1.7-22.8-1.7-83.5 0-151.3 67.7-151.3 151.3s67.7 151.3 151.3 151.3c7.7 0 15.3-.6 22.8-1.7 70.6 226.4 297.7 392.1 566.8 392.1s496.1-165.7 566.8-392.1c7.4 1.1 15 1.7 22.8 1.7 83.5 0 151.3-67.7 151.3-151.3s-67.8-151.3-151.3-151.3z"/>
        <path class="st1" d="M1161.3 544.2s26.3 125.1-129.5 136"/>
        <path class="st1" d="M998.3 544.2s26.3 125.1-129.5 136"/>
        <path class="st1" d="M835.3 544.2s26.3 125.1-129.5 136"/>
        <circle class="st1" cx="1190.9" cy="947.9" r="69.8"/>
        <circle class="st1" cx="729.1" cy="947.9" r="69.8"/>
        <path class="st1" d="M389.5 986.7s-5-56.5-58.2-53.2"/>
        <path class="st1" d="M1528.4 987.4s5-56.5 58.2-53.2"/>
        <path class="st1" d="M1054 1123.3c-24.3-.6-47.3 4.4-67.2 13.7-22.2 10.3-49.1 10.3-71.3 0-20-9.3-42.9-14.3-67.2-13.7-69.9 1.8-127.2 50.9-130.8 112.1-4.1 68.3 57.9 124.9 134.9 124.9 22.7 0 44.1-4.9 62.8-13.6 22.5-10.4 49.3-10.4 71.8 0 18.8 8.7 40.1 13.6 62.8 13.6 77 0 139-56.5 134.9-124.9-3.5-61.2-60.9-110.3-130.7-112.1z"/>
        <path class="st1" d="M1018.1 1153.8c-15.8-.5-30.8 3.3-43.7 10.1-14.5 7.7-31.9 7.7-46.4 0-13-6.9-27.9-10.6-43.7-10.1-45.5 1.4-82.8 37.8-85.1 83.2-2.7 50.7 37.7 92.7 87.8 92.7 14.8 0 28.7-3.6 40.9-10.1 14.7-7.7 32.1-7.7 46.8 0 12.2 6.4 26.1 10.1 40.9 10.1 50.1 0 90.5-41.9 87.8-92.7-2.6-45.4-39.9-81.8-85.3-83.2z"/>
        <circle class="st1" cx="951.1" cy="1323.4" r="91.5"/>
    </g>
</svg>
