<svg xmlns="http://www.w3.org/2000/svg" viewBox="0 0 1920 1920">
    <style>
        .st0{fill:#fff}.st1{fill:none;stroke:#231f20;stroke-width:50;stroke-linecap:round;stroke-linejoin:round;stroke-miterlimit:10}
    </style>
    <path class="st0" d="M633.2 358.5v.2C545 363 471.1 424.6 448.4 506.8l-66.2-96.4c-21-30.6-13.9-72.4 16.2-94.3l79.5-57.9c31.1-22.6 74.7-15.3 96.7 16.2l58.6 84.1zm808.9-100.3c-31.1-22.6-74.7-15.3-96.7 16.2l-58.6 84v.2c88.2 4.2 162.1 65.8 184.8 148.1l66.2-96.4c21-30.6 13.9-72.4-16.2-94.3l-79.5-57.8z" id="Layer_11"/>
    <path class="st0" d="M1478.8 899.8V1703h-182.3v-403.1c0-71.9-58.9-130.8-130.8-130.8H754.3c-71.9 0-130.8 58.9-130.8 130.8V1703H441.2V560.2c0-18.5 2.5-36.3 7.2-53.4 22.7-82.2 96.6-143.8 184.8-148 3.2-.1 6.4-.2 9.7-.2h634.3c3.2 0 6.5.1 9.7.2 88.2 4.2 162.1 65.8 184.8 148.1 4.7 17 7.2 34.9 7.2 53.4v339.5zm-375.5-171V526.7H816.7v202.1h286.6z" id="Layer_12"/>
    <path class="st0" d="M816.7 526.7h286.7v202.1H816.7z" id="Layer_13"/>
    <path class="st0" d="M1296.5 1299.9v24h-673v-24c0-71.9 58.9-130.8 130.8-130.8h411.4c71.9 0 130.8 58.9 130.8 130.8z" id="Layer_14"/>
    <path class="st0" d="M623.5 1323.9h673V1703h-673z" id="Layer_15"/>
    <g id="STROKES">
        <g id="XMLID_3_">
            <path class="st1" d="M1478.8 744.8V560.2c0-18.5-2.5-36.3-7.2-53.4-22.7-82.2-96.6-143.9-184.8-148.1-3.2-.1-6.4-.2-9.7-.2H642.8c-3.2 0-6.5.1-9.7.2-88.1 4.3-162 65.9-184.7 148.1-4.7 17-7.2 34.9-7.2 53.4v184.6"/>
            <path class="st1" d="M1296.5 1703.1V1300c0-71.9-58.9-130.8-130.8-130.8H754.3c-71.9 0-130.8 58.9-130.8 130.8v403.1"/>
            <path class="st1" d="M1478.8 744.8v958.3H441.2V744.8"/>
            <path class="st1" d="M816.7 358.5c0-77.9 64.5-141.6 143.3-141.6 39.4 0 75.2 15.9 101.2 41.6 26 25.7 42.1 61 42.1 100"/>
            <path class="st1" d="M623.5 1323.9h673"/>
            <path class="st1" d="M1286.8 358.5l58.6-84c22-31.6 65.6-38.9 96.7-16.2l79.5 57.9c30 21.9 37.2 63.7 16.2 94.3l-66.2 96.4"/>
            <path class="st1" d="M633.2 358.5l-58.5-84c-22-31.6-65.6-38.9-96.7-16.2l-79.5 57.9c-30 21.9-37.2 63.7-16.2 94.3l66.2 96.4"/>
            <path class="st1" d="M454.4 899.8h94.5"/>
            <path class="st1" d="M640.5 899.8H735"/>
            <path class="st1" d="M826.6 899.8h94.5"/>
            <path class="st1" d="M1012.7 899.8h94.5"/>
            <path class="st1" d="M1198.8 899.8h94.5"/>
            <path class="st1" d="M1384.8 899.8h94.5"/>
            <path class="st1" d="M816.7 526.7h286.7v202.1H816.7z"/>
        </g>
    </g>
</svg>
