<svg xmlns="http://www.w3.org/2000/svg" viewBox="0 0 1920 1920">
    <style>
        .st0{fill:#fff}.st1{fill:none;stroke:#231f20;stroke-width:50;stroke-linecap:round;stroke-linejoin:round;stroke-miterlimit:10}
    </style>
    <path class="st0" d="M1189.5 351.7l48.1-1.4 30.4 290.3 26.6 253.7-112.3 14.2-22.3-228.1-32.2-326.9 61.7-1.8zm-395.9-1.4l-30.4 290.3-26.6 253.7 112.3 14.2 22.5-228.2 32.2-326.9-61.7-1.8-48.3-1.3z" id="Layer_2"/>
    <path class="st0" d="M1379 1329.4l20.6 224.9-266 26-11.4-232.5 256.8-18.4zm-328.5-124.6l3.9 147.9 67.8-4.9 256.8-18.4 54.4-3.9-7.5-148.2-375.4 27.5zm-69.8 0l-3.9 147.9-67.8-4.9-256.8-18.4-54.4-3.9 7.5-148.2 375.4 27.5zm-328.4 124.6l-20.6 224.9 266 26 11.4-232.5-256.8-18.4z" id="Layer_3"/>
    <path class="st0" d="M1481 870.6s41.1 163.2 49.5 651.3c1.7 99.5-78.5 181.2-178.1 181.2H678.8c-99.6 0-179.8-81.6-178.1-181.2 8.4-485.5 49.1-649.6 49.5-651.3-81.3-193.1 80.2-337.1 91.1-346.6 28.6 40.1 67.9 81.3 121.8 116.7l-26.6 253.7 112.3 14.2 22.5-228.2c25.5 5.1 71 15.4 109.4 20.2 12.7 1.6 24.7 2.6 34.9 2.6s22.2-1 34.9-2.6c38.4-4.8 84-15 109.4-20.2l22.5 228.2 112.3-14.2-26.6-253.7c54-35.4 93.2-76.5 121.8-116.7 10.9 9.4 172.4 153.5 91.1 346.6zm-47.7 454.9l-7.5-148.2-375.3 27.5 3.9 147.9 67.8-4.9 11.4 232.5 266-26-20.6-224.9 54.3-3.9zm-456.5 27.2l3.9-147.9-375.3-27.5-7.5 148.2 54.4 3.9-20.6 224.9 266 26 11.4-232.5 67.7 4.9z" id="Layer_4"/>
    <path class="st0" d="M1389.9 524c-28.6 40.1-67.9 81.3-121.8 116.7l-30.4-290.3 227.1-6.5c-.1 0-8.9 87.4-74.9 180.1zm-374.3-167.3l-112.2-3.2-32.2 326.9c25.5 5.1 71 15.4 109.4 20.2 12.7 1.6 24.7 2.6 34.9 2.6s22.2-1 34.9-2.6c38.4-4.8 84-15 109.4-20.2l-32.2-326.9-112 3.2zm-252.5 284l30.5-290.3-227.1-6.5s8.8 87.5 74.8 180.1c28.6 40.1 67.9 81.3 121.8 116.7z" id="Layer_5"/>
    <g id="STROKES">
        <g id="XMLID_1_">
            <path class="st1" d="M550.2 870.6c15.3 36.2 39.1 74.2 74 113.4"/>
            <path class="st1" d="M641.9 523.5s-.2.2-.6.5c-10.9 9.4-172.4 153.5-91.1 346.6"/>
            <path class="st1" d="M871.3 680.4c25.5 5.1 71 15.4 109.4 20.2 12.7 1.6 24.7 2.6 34.9 2.6"/>
            <path class="st1" d="M1015.6 356.7l-112.2-3.2-61.7-1.8-48.1-1.4-227.1-6.5s8.8 87.5 74.8 180.1c28.6 40.1 67.9 81.3 121.8 116.7"/>
            <path class="st1" d="M1015.6 1703.1H678.8c-99.6 0-179.8-81.6-178.1-181.2 8.4-485.5 49.1-649.6 49.5-651.3"/>
            <path class="st1" d="M793.6 350.3l-30.4 290.4-26.7 253.7 112.3 14.2 22.5-228.2 32.1-326.9"/>
            <path class="st1" d="M909.1 1347.8l67.7 4.9 3.9-147.9-375.3-27.5-7.5 148.2 54.4 3.9z"/>
            <path class="st1" d="M652.3 1329.4l-20.7 224.9 266.1 26 11.4-232.5"/>
            <path class="st1" d="M980.7 700.5L922.4 984"/>
            <path class="st1" d="M841.7 351.7c-.3-1.5-26.3-134.8 173.9-134.8"/>
            <path class="st1" d="M1389.3 523.5s.2.2.6.5c10.9 9.4 172.4 153.5 91.1 346.6-15.3 36.2-39.1 74.2-74.1 113.4"/>
            <path class="st1" d="M1160 680.4c-25.5 5.1-71 15.4-109.4 20.2-12.8 1.6-24.7 2.6-34.9 2.6"/>
            <path class="st1" d="M1015.6 356.7l112.2-3.2 61.7-1.8 48.1-1.4 227.1-6.5s-8.8 87.5-74.8 180.1c-28.6 40.1-67.9 81.3-121.8 116.7"/>
            <path class="st1" d="M1015.6 1703.1h336.9c99.6 0 179.8-81.6 178.1-181.2-8.5-488.1-49.5-651.3-49.5-651.3"/>
            <path class="st1" d="M1237.6 350.3l30.5 290.4 26.6 253.7-112.3 14.2-22.4-228.2-32.2-326.9"/>
            <path class="st1" d="M1122.2 1347.8l-67.8 4.9-3.9-147.9 375.3-27.5 7.5 148.2-54.3 3.9z"/>
            <path class="st1" d="M1379 1329.4l20.6 224.9-266.1 26-11.3-232.5"/>
            <path class="st1" d="M1050.5 700.5l58.3 283.5"/>
            <path class="st1" d="M1189.5 351.7c.3-1.5 26.3-134.8-173.9-134.8"/>
        </g>
    </g>
</svg>
