<svg xmlns="http://www.w3.org/2000/svg" viewBox="0 0 1920 1920">
    <style>
        .st0{fill:#fff}.st1{fill:none;stroke:#231f20;stroke-width:50;stroke-linecap:round;stroke-linejoin:round;stroke-miterlimit:10}
    </style>
    <path class="st0" d="M934.2 1294.4v237.3l-147.6 146.9c-7.8 7.8-17.1 14-27.1 18.1-10 4.2-20.9 6.4-32 6.4-25.5 0-46.7-10.6-61.4-26.6-.3-.4-6.5-9.8-16.6-26.7-11.2-28.8-7-63.6 18.8-89.4l26.1-26.1 239.8-239.9zm-284.7 355.3c-11.2-28.8-7-63.6 18.8-89.4l26.1-26.1C433.7 687.5 934.2 525.5 934.2 525.5v-184C122.6 682.4 555.6 1492.3 649.5 1649.7z" id="Layer_6"/>
    <path class="st0" d="M1378.4 577.3v237.8c0 29.7-24.3 54.1-54.1 54.1l-.7 2.5c-6.1-1.6-12.4-2.5-19-2.5l-370.4.1V341.5c56.3 0 107.9 4.3 154.5 12.2 184.8 31.5 289.7 120 289.7 223.6z" id="Layer_7"/>
    <path class="st0" d="M1378.4 1623.8v5.5c0 40.5-33.2 73.7-73.7 73.7h-39.3v-408.7h-222V1703H934.2V869.3l370.4-.1c6.5 0 12.9.9 19 2.5 31.4 8.4 54.7 37.2 54.7 71.2v680.9z" id="Layer_8"/>
    <path class="st0" d="M1469.9 1202.7v329.7c0 50.5-41 91.5-91.5 91.5v-512.7c50.5 0 91.5 40.9 91.5 91.5z" id="Layer_9"/>
    <path class="st0" d="M1043.4 1294.4h222v408.7h-222z" id="Layer_10"/>
    <g id="STROKES">
        <g id="XMLID_2_">
            <path class="st1" d="M1324.3 869.2c29.7 0 54.1-24.3 54.1-54.1V577.3c0-103.6-104.9-192.2-289.6-223.6-46.6-7.9-98.2-12.2-154.5-12.2v1361.6h370.5c40.5 0 73.7-33.2 73.7-73.7V942.8c0-34-23.3-62.8-54.7-71.2-6.1-1.6-12.4-2.5-19-2.5l-370.4.1"/>
            <path class="st1" d="M1378.4 1111.2c50.5 0 91.5 41 91.5 91.5v329.7c0 50.5-41 91.5-91.5 91.5"/>
            <path class="st1" d="M666.1 1676.4c14.7 16 35.8 26.6 61.4 26.6 11.1 0 22-2.2 32-6.4s19.3-10.3 27.1-18.1l147.6-146.9"/>
            <path class="st1" d="M934.2 1294.4l-239.8 239.8-26.1 26.1c-25.8 25.8-30 60.6-18.8 89.4 3.8 9.8 9.4 18.9 16.6 26.7"/>
            <path class="st1" d="M934.2 525.5s-500.6 162-239.8 1008.7"/>
            <path class="st1" d="M666.1 1676.4c-.3-.4-6.5-9.8-16.6-26.7-93.9-157.3-527-967.3 284.7-1308.2V216.9h154.5v136.8"/>
            <path class="st1" d="M1043.4 1703.1v-408.7h222v408.7"/>
        </g>
    </g>
</svg>
