<svg xmlns="http://www.w3.org/2000/svg" viewBox="0 0 1920 1920">
    <style>
        .st0{fill:#fff}.st1{fill:none;stroke:#231f20;stroke-width:50;stroke-linecap:round;stroke-linejoin:round;stroke-miterlimit:10}
    </style>
    <path class="st0" d="M1024.1 871.5s-59.3-13.4 18.7-192.5c0 0 70.4-199.4 65.9-252.8-4.5-53.4-14.8-145.4-14.8-145.4s-71.6-59.1-106.8-48.8l5.3 18.9s75 26.5 78 53-4.5 134.8-4.5 134.8-30.3 158.7-78.8 189.5l3.4-45.9s34.8-23.4 41.8-56.7c7.1-33.3-5.7-75.9-57.4-79.4-51.8-3.5-62.3 54.6-62.3 54.6s-18.6-3.5-22.1 12.8 22.1 34.8 22.1 34.8 2 44 0 61-24.9 18.9-24.9 18.9c-18.6-53-68.3-152.9-68.3-152.9s-32.5-192 26-258.5c0 0-51.3 20.2-62.3 56.8-11 36.7-23.8 198-23.8 198l86.2 214.5s-35.5 38.1-11.8 77.7 57.4 106.8 31.6 140.4c-25.7 33.6-221.5 75.2-221.5 75.2s45.1 46 120.9 79c26.9 11.8 57.8 21.9 91.9 27.7 29.7 5.1 61.8 6.9 96 3.7 12.3-1.1 24.8-2.9 37.6-5.4 22.8-4.5 46.4-11.2 70.6-20.8 44.4-17.5 90.9-44.3 139-83.1 27.1-21.9 54.7-47.6 82.7-77.7.1 0-170.3-65.7-258.4-31.4z" id="Layer_6"/>
    <path class="st0" d="M1005.5 1543.4c-9.6-14.8-15.9-113.2-18.4-161.1 7.4-31.3 11.6-61.8 8.1-84.3 0 0 43.5-154.2 65.7-234.3-24.2 9.6-47.8 16.3-70.6 20.8-12.8 2.5-25.3 4.3-37.6 5.4-34.2 3.2-66.3 1.3-96-3.7 14.1 64.7 37.7 155.8 69.1 214.1.1.4.1.7.2 1.1 0 0-35.7 150.8-34.6 221.1 0 0-51.4 80.8-19 180.6h32.4s25.7-48.8 20.1-90.1c-.7-4.9-.9-9.9-1-14.9l13.6 105h44.4s-4-17.6 0-59.1c2-20.7 13-35.7 23.6-45.6 12.1-11.3 14.8-29.5 6.6-44-2-3.6-4.2-7.3-6.6-11zm-80.5 35.4c-.3 2.3-.5 4.6-.7 7 .2-2.3.4-4.7.7-7zm-1.4 17.9v-.4.4l.2 1.3-.2-1.3zm.3-.9v-1.9 1.9zm0-1.9c0-.1 0-.1 0 0l1.4-17-1.4 17z" id="Layer_7"/>
    <g id="STROKES">
        <path class="st1" d="M1282.6 902.9c-77.6 83.5-152.3 133.5-221.7 160.8-24.2 9.6-47.8 16.3-70.6 20.8-12.8 2.5-25.3 4.3-37.5 5.4-34.2 3.2-66.3 1.3-96-3.7C726.8 1064 644 979.5 644 979.5s195.8-41.5 221.5-75.2c25.7-33.6-7.9-100.9-31.7-140.4-23.7-39.6 11.8-77.7 11.8-77.7l-86.2-214.5s12.8-161.3 23.8-198c11-36.7 62.3-56.8 62.3-56.8-58.5 66.4-26 258.5-26 258.5s49.7 99.8 68.3 152.9c0 0 22.9-1.9 24.9-18.9s0-61 0-61-25.7-18.4-22.1-34.7c3.5-16.3 22.1-12.8 22.1-12.8s10.5-58.1 62.3-54.6 64.5 46.1 57.4 79.4c-7.1 33.3-41.8 56.7-41.8 56.7l-3.4 45.9c48.5-30.9 78.8-189.5 78.8-189.5s7.6-108.3 4.5-134.8c-3-26.5-78-53-78-53l-5.3-18.9C1022.4 221.9 1094 281 1094 281s10.2 92 14.8 145.4c4.5 53.4-65.9 252.8-65.9 252.8-78.1 179.1-18.7 192.5-18.7 192.5 88-34.5 258.4 31.2 258.4 31.2z"/>
        <path class="st1" d="M995.2 1298c3.5 22.5-.7 53-8.1 84.3-16.2 68.3-47.7 140.2-47.7 140.2s-10.2 25-14.1 54.3v.1c-.7 5.6-1.2 11.3-1.4 17v.1l-.2 2.7.2 1.3c0 5 .3 10 1 14.9 5.6 41.3-20.1 90.1-20.1 90.1h-32.4c-32.4-99.8 19-180.5 19-180.5-1.1-70.4 34.6-221.1 34.6-221.1-.1-.4-.1-.7-.2-1.1-5.1-37.6 12.9-139.7 26.9-210.3 12.3-1.1 24.8-2.9 37.5-5.4 22.8-4.5 46.4-11.2 70.6-20.8-22.1 80-65.6 234.2-65.6 234.2z"/>
        <path class="st1" d="M923.9 1594c0 1.4-.1 2.7-.1 4.1l-.2-1.3.3-2.8z"/>
        <path class="st1" d="M925.8 1300.3c-31.4-58.3-55-149.3-69.1-214.1 29.7 5.1 61.8 6.9 96 3.7-14.1 70.6-32.1 172.8-26.9 210.4z"/>
        <path class="st1" d="M1012.1 1554.4c8.1 14.5 5.5 32.7-6.6 44-10.6 9.9-21.7 24.9-23.6 45.6-3.9 41.4 0 59.1 0 59.1h-44.4l-13.6-105-.2-1.3.2-2.7v-.1l1.4-17v-.1c3.8-29.3 14.1-54.3 14.1-54.3s31.5-71.9 47.7-140.2c2.5 47.9 8.8 146.3 18.5 161.1 2.3 3.6 4.5 7.3 6.5 10.9z"/>
        <path class="st1" d="M912.7 500.8v15.4"/>
        <path class="st1" d="M764.8 1058.6l127.4-92.4"/>
        <path class="st1" d="M960 975.2l14.9 105.2"/>
        <path class="st1" d="M1035.9 941.1l164 39.5"/>
    </g>
</svg>
