<svg xmlns="http://www.w3.org/2000/svg" viewBox="0 0 1920 1920">
    <style>
        .st0{fill:#fff}.st1{fill:none;stroke:#231f20;stroke-width:50;stroke-linecap:round;stroke-linejoin:round;stroke-miterlimit:10}
    </style>
    <g id="Layer_2">
        <path class="st0" d="M1675.8 711.1l-82.3 32.8-34.7 51.5s-33.4 24.4-137.6 33.2c-104.2 8.7-189.1 67.2-189.1 67.2-101.6 1.3-291.4 45.5-291.4 45.5-48.4-38.2-23.2-160.5-23.2-160.5 52.1 1.5 132.8-33.4 132.8-33.4 117.2-15.9 136.6-33.3 172.9-40.4 21.2-4.2 38.1 15.2 48.4 32.1-.9-7.2 1.2-14.9 9.9-21.3 22.9-16.9 76.9 23.4 79.7 25.5-2.1-2-35.3-32.2-99.1-49.6-65.9-18-210.8 14-219.7 18-9 4-78.9 7-78.9 7-26.4-3.2-47.3-2.8-63.7-.3 40.2-64.4 144.4-76 144.4-76-40.4-36.3-111.7-30.6-118.7-58.6-8-32-25-51.9-76.9-50.9-51.9 1-58.9 52.9-58.9 52.9l-44 23 19 16s-9 21-8 31 25 14 25 14c35.9 16 1.7 79.1 1.7 79.1s-61.2-29.3-109.2-16.9c0 0-40.1-38-96.2-45.7l-144.3-99s-84.4-28.4-127.4-8.4c0 0 62.2-5.4 70.6 10.8l-31.5 32.2c.9-.7 31-23 53.7-21.5 23 1.5 145.6 113.6 145.6 113.6l182.8 95.9s-26.1 57.6 11.2 90.2c37.2 32.6 87.2 102.4 39.5 185 0 0-32.6 47.7-104.7 69.8 0 0-67.2 12.7-142.3 70.1-75.1 57.4-175.2 48.6-175.2 48.6l-139 36.1v34.2l97.5-14.1s21.1 24.1 44.2 19.1 28.2-33.2 28.2-33.2l157.9-10.1s58.3-6 97.5-36.2c39.2-30.2 110.7-40.9 128.7-43.2 209.3-27 203.5-163.4 203.5-163.4 59.2 6.4 357.8-141.4 357.8-141.4 91.3-8.9 226.4-83.7 226.4-83.7 72-15.4 141-93.9 141-93.9l-23.9-32.7z"/>
        <path class="st0" d="M1283 761.5s-9.9-10.5-11.4-22.7c7.3 12 11.4 22.7 11.4 22.7z"/>
    </g>
    <g id="STROKES">
        <path class="st1" d="M840.6 752.3s15-46.9 122.9-34c0 0 69.9-3 78.9-7s153.8-36 219.7-18c65.9 18 99.2 49.7 99.2 49.7s-56.3-43-79.8-25.6 1.5 44 1.5 44-23.5-61.9-59.9-54.7c-36.3 7.2-55.8 24.6-172.9 40.4 0 0-80.7 34.9-132.8 33.4 0 0-25.2 122.3 23.2 160.5 0 0 189.8-44.2 291.4-45.5 0 0 84.9-58.5 189.1-67.2 104.2-8.7 137.6-33.2 137.6-33.2l34.7-51.5 82.3-32.8 24 32.8s-69 78.5-141 93.9c0 0-135.1 74.8-226.4 83.7 0 0-298.6 147.8-357.8 141.4 0 0 5.8 136.4-203.5 163.4-18.1 2.3-89.5 13.1-128.7 43.2-39.2 30.2-97.6 36.2-97.6 36.2l-157.9 10.1s-5 28.2-28.2 33.2c-23.1 5-44.3-19.1-44.3-19.1l-97.6 14.1v-34.2l139.3-36.6s100.1 8.8 175.2-48.6 142.3-70.1 142.3-70.1c72.1-22.1 104.7-69.8 104.7-69.8 47.7-82.6-2.3-152.4-39.6-185-37.2-32.6-11.2-90.2-11.2-90.2l-182.8-95.9S422 601.2 398.9 599.7c-23-1.5-53.7 21.5-53.7 21.5l31.5-32.2c-8.4-16.1-70.6-10.7-70.6-10.7 43-20 127.4 8.4 127.4 8.4l144.3 99c56 7.7 96.2 45.7 96.2 45.7 47.9-12.4 109.2 16.9 109.2 16.9s34.3-63.1-1.7-79.1c0 0-24-4-25-14s8-31 8-31l-19-16 43.9-23s7-51.9 58.9-52.9 68.9 19 76.9 50.9c7 28 78.2 22.3 118.7 58.6"/>
        <path class="st1" d="M922.3 655.3c12.2 3.2 24.4 6.4 36.5 9.6"/>
        <path class="st1" d="M913 555.1c42.8 12.8 97.8 10 142.3 6.1"/>
    </g>
</svg>
