<svg xmlns="http://www.w3.org/2000/svg" viewBox="0 0 1920 1920">
    <style>
        .st0{fill:#fff}.st1{fill:none;stroke:#231f20;stroke-width:50;stroke-linecap:round;stroke-linejoin:round;stroke-miterlimit:10}
    </style>
    <path class="st0" d="M1796.1 653.6c32.2 86.8 126.7 615.2-589.1 918.9-715.9 303.8-1095.6-178.2-1095.6-178.2l-10.1-60.3 33-68.2s234.2 156.3 829.5-96.3c595.3-252.6 588.7-761.2 588.7-761.2l-41.3-158.1 135.5-3.3-4 81.8c-30 105.8 121.2 238.1 153.4 324.9z" id="Layer_7"/>
    <g id="STROKES">
        <path class="st1" d="M1796.1 653.6c-32.2-86.8-183.4-219.2-153.4-324.9l4-81.8-135.5 3.3 41.3 158.1s6.6 508.6-588.7 761.2c-595.3 252.6-829.5 96.3-829.5 96.3l-33 68.2 10.1 60.3s379.7 482 1095.6 178.2c715.9-303.7 621.3-832.1 589.1-918.9z" id="XMLID_3_"/>
    </g>
</svg>
