<svg xmlns="http://www.w3.org/2000/svg" viewBox="0 0 1920 1920">
    <style>
        .st0{fill:#fff}.st1{fill:none;stroke:#231f20;stroke-width:50;stroke-linecap:round;stroke-linejoin:round;stroke-miterlimit:10}
    </style>
    <path class="st0" d="M1622.3 327.1c16.3 131.3 12.1 252.2-18.1 363.8 0 0-19.1 158.2-121 361.1-124.6-29.7-255.1-34.8-381.5-13.9-39.7 6.6-81 16.7-110.5 43.8-.2-.8-1.7-2-3.3-2.6-2.5-.9-5.1-4-5.7-6.7-10.4-42.4-22.2-84.6-35.3-126.5 279-271.5 266.4-529.4 405.5-770.5 19.2-33.2 42.3-69.5 79.6-78.4 36.5-8.7 125.2 24.8 146 56.1 20.7 31.4 39.6 136.6 44.3 173.8z" id="Layer_2"/>
    <path class="st0" d="M1483.2 1052c66.5 15.8 131.4 38.7 193.1 68.3 74.2 35.7 217.2 118 178.6 176.3-36.6 55.3-109.5 29.8-109.5 29.8-27.9-10.8-56.2-19.2-84.5-25.4-103.5-22.8-205.9-30-300.5-14.5-.8.1-1.4.5-1.9 1.1-160.6 206.4-518.5 464.9-815.4 523-164.6 32.2-265.6 7.9-322.9-20.3-38.4-18.8-65.4-55-73.2-97.1l-6.4-34.7c-10.3-55.4 14.6-111.6 62.8-140.9 3.8-2.3 6.1-3.5 6.1-3.5 77.6-26.7 278.4-26.6 402.3-290.2 88-187.3-213.4-415.4-402.3-499.8 8.2-13.5 16.5-27.1 24.7-40.6 112.2 6.6 165.5 9.8 250.6 55.2 90.1 48.1 194.6 143 247 230.6-26-145.4-183.2-516.7-249.6-635.3 8.8-23.4 39-32.6 63.2-26.1 24.1 6.5 43.3 24.5 60.8 42.4 161.5 165.2 270.9 374.8 340.6 596 13.2 41.8 24.9 84 35.3 126.5.6 2.6 3.2 5.7 5.7 6.7 1.6.6 3.1 1.7 3.3 2.6 29.6-27.1 70.9-37.2 110.5-43.8 126.5-21.1 256.9-16 381.6 13.7z" id="Layer_3"/>
    <g id="STROKES">
        <g id="XMLID_1_">
            <path class="st1" d="M946.8 946.2c279-271.5 266.4-529.4 405.5-770.5 19.2-33.2 42.3-69.5 79.6-78.4 36.5-8.7 125.2 24.8 146 56.1 20.8 31.3 39.8 136.4 44.4 173.7 16.3 131.3 12.1 252.2-18.1 363.8"/>
            <path class="st1" d="M1483.2 1052c66.5 15.8 131.4 38.7 193.1 68.3 74.2 35.7 217.2 118 178.6 176.3-36.6 55.3-109.5 29.8-109.5 29.8-27.9-10.8-56.2-19.2-84.5-25.4-103.5-22.8-205.9-30-300.5-14.5-.8.1-1.4.5-1.9 1.1-160.6 206.4-518.5 464.9-815.4 523-164.6 32.2-265.6 7.9-322.9-20.3-38.4-18.8-65.4-55-73.2-97.1l-6.4-34.7c-10.3-55.4 14.6-111.6 62.8-140.9 3.8-2.3 6.1-3.5 6.1-3.5 77.6-26.7 278.4-26.6 402.3-290.2 88-187.3-213.4-415.4-402.3-499.8 8.2-13.5 16.5-27.1 24.7-40.6 112.2 6.6 165.5 9.8 250.6 55.2 90.1 48.1 194.6 143 247 230.6-26-145.4-183.2-516.7-249.6-635.3 8.8-23.4 39-32.6 63.2-26.1 24.1 6.5 43.3 24.5 60.8 42.4 161.5 165.2 270.9 374.8 340.6 596 13.2 41.8 24.9 84 35.3 126.5.6 2.6 3.2 5.7 5.7 6.7 1.6.6 3.1 1.7 3.3 2.6 29.6-27.1 70.9-37.2 110.5-43.8 126.5-21.1 256.9-16 381.6 13.7z"/>
            <path class="st1" d="M1604.2 690.9s-19.1 158.2-121 361.1"/>
        </g>
    </g>
</svg>
