<svg xmlns="http://www.w3.org/2000/svg" viewBox="0 0 1920 1920">
    <style>
        .st0{fill:#fff}.st1{fill:none;stroke:#231f20;stroke-width:50;stroke-linecap:round;stroke-linejoin:round;stroke-miterlimit:10}
    </style>
    <path class="st0" d="M1562.6 296.5l19.2 176.3c-55.8 214.1-183.5 361.6-361.6 491.8-268.8 196.5-616.7 274.9-843.9 306.1-160.7-48.8-240.2-112.7-268.8-140.2-7.8-7.5-9.8-19.3-4.9-29L158.8 991s155.1 84.8 674.2-25.8c519.2-110.6 630-508.5 630-508.5L1415.3 307l147.3-10.5z" id="Layer_4"/>
    <path class="st0" d="M1717.6 240.7l-19.2 121.6-20.2 222.7s-235.3 485.7-584.6 643.1c-349.3 157.4-705.7 149.4-705.7 149.4L338 1486l21.8 90.5s67.8 65.2 265.4 91.7c-381.6 52.2-508.9-239.4-508.9-239.4l24.5-137.5s94.5-1.2 235.6-20.6c227.1-31.3 575.1-109.7 843.9-306.1 178.1-130.2 305.8-277.7 361.6-491.8l-19.2-176.3-4.5-41.8 159.4-14z" id="Layer_5"/>
    <path class="st0" d="M625.1 1668.2c-197.6-26.5-265.4-91.7-265.4-91.7l-21.8-90.5 49.9-108.5s356.4 8 705.7-149.4c349.3-157.4 584.6-643.1 584.6-643.1l20.2-222.7H1824L1803.6 657c77.2 215.2-49.1 892.8-633.9 989.2-243.6 40.1-419.9 38.8-544.6 22z" id="Layer_6"/>
    <g id="STROKES">
        <g id="XMLID_2_">
            <path class="st1" d="M1698.4 362.3h125.7L1803.6 657c77.2 215.2-49.1 892.8-633.9 989.2-243.5 40.1-419.8 38.8-544.5 22.1-197.6-26.5-265.4-91.7-265.4-91.7l-21.8-90.5 49.9-108.5s356.4 8 705.7-149.4c349.3-157.4 584.6-643.1 584.6-643.1l20.2-222.8z"/>
            <path class="st1" d="M625.2 1668.2c-.1 0-.1 0 0 0-381.6 52.2-508.9-239.4-508.9-239.4l24.5-137.5s94.5-1.2 235.6-20.6c227.1-31.3 575.1-109.7 843.9-306.1 178.1-130.2 305.8-277.7 361.6-491.8l-19.2-176.3-4.5-41.8 159.6-14-19.2 121.6"/>
            <path class="st1" d="M1562.6 296.5L1415.3 307l47.8 149.6s-110.8 397.9-630 508.5C313.9 1075.8 158.8 991 158.8 991l-56.2 110.6c-4.9 9.7-2.9 21.5 4.9 29 28.6 27.4 108.1 91.3 268.8 140.2"/>
        </g>
    </g>
</svg>
