<svg xmlns="http://www.w3.org/2000/svg" viewBox="0 0 1920 1920">
    <style>
        .st0{fill:#fff}.st1{fill:none;stroke:#231f20;stroke-width:50;stroke-linecap:round;stroke-linejoin:round;stroke-miterlimit:10}
    </style>
    <path class="st0" d="M1322.4 1051.5V1188H597.2V732h725.2v136.5z" id="Layer_2"/>
    <path class="st0" d="M1703.1 1173.5v28.9c0 67.1-54.9 122-122 122H341.3c-67.1 0-122-54.9-122-122v-28.9c0-67.1 54.9-122.1 122-122.1h.4c25.2 0 48-10.3 64.6-26.9 16.6-16.6 26.9-39.5 26.9-64.6 0-50.3-41.2-91.5-91.5-91.5h-.4c-67.1 0-122-54.9-122-122v-28.9c0-67.1 54.9-122 122-122H1581c67.1 0 122 54.9 122 122v28.9c0 67.1-54.9 122-122 122h-.4c-25.2 0-48 10.3-64.6 26.9-16.6 16.6-26.9 39.5-26.9 64.6 0 50.3 41.2 91.5 91.5 91.5h.4c67.1.1 122.1 55 122.1 122.1zm-380.7 14.5V732H597.2v456h725.2z" id="Layer_3"/>
    <g id="STROKES">
        <path class="st1" d="M1580.7 868.5h.4c67.1 0 122-54.9 122-122v-28.9c0-67.1-54.9-122-122-122H341.3c-67.1 0-122 54.9-122 122v28.9c0 67.1 54.9 122 122 122h.4c50.3 0 91.5 41.2 91.5 91.5 0 25.2-10.3 48-26.9 64.6-16.6 16.6-39.5 26.9-64.6 26.9h-.4c-67.1 0-122 54.9-122 122.1v28.9c0 67.1 54.9 122 122 122H1581c67.1 0 122-54.9 122-122v-28.9c0-67.1-54.9-122.1-122-122.1h-.4c-50.3 0-91.5-41.2-91.5-91.5 0-25.2 10.3-48 26.9-64.6 16.6-16.6 39.5-26.9 64.7-26.9z"/>
        <path class="st1" d="M597.2 868.5V732h725.2v456H597.2v-136.5z"/>
    </g>
</svg>
