<svg xmlns="http://www.w3.org/2000/svg" viewBox="0 0 1920 1920">
    <style>
        .st0{fill:#fff}.st1{fill:none;stroke:#231f20;stroke-width:50;stroke-linecap:round;stroke-linejoin:round;stroke-miterlimit:10}
    </style>
    <path class="st0" d="M1660.1 444.2c57.2 57.2 57.2 150.9 0 208.2L1352.4 960 960 1352.4l-307.7 307.7c-57.2 57.2-150.9 57.2-208.2 0l-184.3-184.3c-57.3-57.2-57.3-150.9 0-208.2L567.5 960 960 567.5l307.7-307.7c57.2-57.3 150.9-57.3 208.2 0l184.2 184.4z" id="Layer_6"/>
    <path class="st0" d="M1660.1 1267.7c57.2 57.2 57.2 150.9 0 208.2l-184.3 184.3c-57.2 57.2-150.9 57.2-208.2 0L960 1352.4 1352.4 960l307.7 307.7zM652.3 259.9c-57.2-57.3-150.9-57.3-208.2 0L259.9 444.2c-57.3 57.2-57.3 150.9 0 208.2L567.5 960 960 567.5 652.3 259.9z" id="Layer_7"/>
    <g id="STROKES">
        <path class="st1" d="M567.5 960L259.9 652.3c-57.3-57.2-57.3-150.9 0-208.2l184.3-184.3c57.2-57.3 150.9-57.3 208.2 0L960 567.5"/>
        <path class="st1" d="M1352.4 960l307.7 307.7c57.2 57.2 57.2 150.9 0 208.2l-184.3 184.3c-57.2 57.2-150.9 57.2-208.2 0L960 1352.4"/>
        <path class="st1" d="M960 1352.4l-307.7 307.7c-57.2 57.2-150.9 57.2-208.2 0l-184.3-184.3c-57.3-57.2-57.3-150.9 0-208.2L567.5 960 960 567.5l307.7-307.7c57.2-57.3 150.9-57.3 208.2 0l184.3 184.3c57.2 57.2 57.2 150.9 0 208.2L1352.4 960 960 1352.4z"/>
    </g>
</svg>
