<svg xmlns="http://www.w3.org/2000/svg" viewBox="0 0 1920 1920">
    <style>
        .st0{fill:#fff}.st1{fill:none;stroke:#231f20;stroke-width:50;stroke-linecap:round;stroke-linejoin:round;stroke-miterlimit:10}
    </style>
    <path class="st0" d="M559.4 516.3h220.8v247H559.4z" id="Layer_4"/>
    <path class="st0" d="M1139.8 516.3h220.8v247h-220.8z" id="Layer_5"/>
    <path class="st0" d="M960 1334.7l-399.8 303.5v-607L960 1334.7zm0 0l-399.8 303.5h799.6L960 1334.7zm0 0l399.8 303.5v-607L960 1334.7zm-399.8-303.5L960 1334.7l399.8-303.5H560.2z" id="Layer_6"/>
    <path class="st0" d="M1573.3 487v1151.2h-213.5v-607H560.2v607H346.7V487l150.7-205.2h925.2L1573.3 487zm-212.7 276.2v-247h-220.8v247h220.8zm-580.4 0v-247H559.4v247h220.8z" id="Layer_7"/>
    <g id="STROKES">
        <g id="XMLID_2_">
            <path class="st1" d="M216.9 663.7L346.7 487l150.7-205.2"/>
            <path class="st1" d="M1703.1 663.7L1573.3 487l-150.7-205.2H497.4"/>
            <path class="st1" d="M346.7 487v1151.2h213.5"/>
            <path class="st1" d="M1573.3 487v1151.2h-213.5"/>
            <path class="st1" d="M1359.8 1638.2H560.2v-607h799.6z"/>
            <path class="st1" d="M560.2 1638.2L960 1334.7l399.8-303.5"/>
            <path class="st1" d="M560.2 1031.2L960 1334.7l399.8 303.5"/>
            <path class="st1" d="M559.4 516.3h220.8v247H559.4z"/>
            <path class="st1" d="M1139.8 516.3h220.8v247h-220.8z"/>
        </g>
    </g>
</svg>
