<svg xmlns="http://www.w3.org/2000/svg" viewBox="0 0 1920 1920">
    <style>
        .st0{fill:#fff}.st1{fill:none;stroke:#231f20;stroke-width:50;stroke-linecap:round;stroke-linejoin:round;stroke-miterlimit:10}
    </style>
    <path class="st0" d="M969.2 279.7L850.4 440.3l-145 175.3-20.9 28.2v-40l-24.4-5.4 131.5-201.7 118.8-160.6c14.2-19.2 38.8-24.9 55.1-12.9 16.1 12 17.9 37.3 3.7 56.5z" id="Layer_9"/>
    <path class="st0" d="M988.5 649.8c-9.1 7.5-21.2 16.3-35 23.6.3 6.1.5 12.7.4 19.6-.1 3-.2 6-.4 9-.1 1-.1 2-.2 3 0 .5-.1 1-.1 1.5-.1 1.5-.3 3-.4 4.5-.1 1-.2 2-.4 3-.4 3-.9 5.9-1.5 8.7-.2 1-.4 1.9-.6 2.8-.8 3.2-1.7 6.4-2.7 9.3-.3.8-.6 1.7-.9 2.5-.5 1.2-1 2.4-1.6 3.6-.4.8-.8 1.5-1.2 2.3-1 1.8-2.1 3.6-3.3 5.2-.5.6-1 1.3-1.5 1.8-3.1 3.6-6.8 6.3-11.2 8.1-.7.3-1.5.5-2.2.8-2.7.8-5.6 1.2-8.8 1.2l-3-.1c-.5 0-1-.1-1.5-.1l-4.8-.8c-.6-.1-1.1-.2-1.7-.4-.6-.1-1.1-.3-1.7-.5-.5-.1-1-.3-1.5-.5l-5.8-2c-.6-.3-1.3-.5-1.9-.8l-2-.9c-.7-.3-1.3-.6-2-.9l-2-1c-.7-.4-1.4-.7-2.1-1.1-2.5-1.3-5-2.8-7.6-4.4-.8-.5-1.5-.9-2.3-1.4-.8-.5-1.6-1-2.3-1.5s-1.6-1-2.4-1.6l-6.1-4.4c-.8-.6-1.7-1.2-2.5-1.9-4.3-3.2-8.7-6.8-13.4-10.7-5 4.4-13.2 5.2-26.4-.8-18.4-8.4-26.6-27.1-29.8-46.9-1.2-7.8-1.7-15.7-1.7-23.3l.2-8.8c0-.7.1-1.4.1-2.1l.4-6.1c.1-.6.1-1.3.2-2l.3-2.8c.1-1.2.3-2.4.4-3.6l.3-2.5c.1-.5.1-1.1.2-1.6l1-6.4c0-.2.1-.4.1-.6.1-.6.2-1.2.3-1.7l1.2-6c1.6 3.8 3.5 7.3 5.5 10.5-1.9-3.3-3.7-6.8-5.5-10.5 0 0-.7-71.4 72.1-71.4s81.5 71.4 81.5 71.4l33.9 13.5c10.7 4.2 13 18.7 3.9 26.2z" id="Layer_10"/>
    <path class="st0" d="M1055.6 977c-4.1-9.5-13.2-14.4-25.1-20.7 7.8-49.8 19.4-157.5-20.7-220.3-12.8-20.1-32.9-33.7-56-42.9-.1 3-.2 6-.4 9-.1 1-.1 2-.2 3 0 .5-.1 1-.1 1.5-.1 1.5-.3 3-.4 4.5-.1 1-.2 2-.4 3-.4 3-.9 5.9-1.5 8.7-.2 1-.4 1.9-.6 2.8-.8 3.2-1.7 6.4-2.7 9.3-.3.8-.6 1.7-.9 2.5-.5 1.2-1 2.4-1.6 3.6-.4.8-.8 1.5-1.2 2.3-1 1.8-2.1 3.6-3.3 5.2-.5.6-1 1.3-1.5 1.8-3.1 3.6-6.8 6.3-11.2 8.1-.7.3-1.5.5-2.2.8-2.7.8-5.6 1.2-8.8 1.2l-3-.1c-.5 0-1-.1-1.5-.1l-4.8-.8c-.6-.1-1.1-.2-1.7-.4-.6-.1-1.1-.3-1.7-.5-.5-.1-1-.3-1.5-.5l-5.8-2c-.6-.3-1.3-.5-1.9-.8l-2-.9c-.7-.3-1.3-.6-2-.9l-2-1c-.7-.4-1.4-.7-2.1-1.1-2.5-1.3-5-2.8-7.6-4.4-.8-.5-1.5-.9-2.3-1.4-.8-.5-1.6-1-2.3-1.5s-1.6-1-2.4-1.6l-6.1-4.4c-.8-.6-1.7-1.2-2.5-1.9-4.3-3.2-8.7-6.8-13.4-10.7-5 4.4-13.2 5.2-26.4-.8-18.4-8.4-26.6-27.1-29.8-46.9-8.9.8-14.1 1.6-14.1 1.6l-95.4-21.5v-53.7l-24.4-5.4-33.6-7.5-21.6 52.9-36 60.9s2.3 3.6 6.3 9c6.9 9.2 18.7 23.5 32.7 33.4 5.8 4.1 12 7.5 18.3 9.4 0 0 49 85.1 136.9 114.7l19.4-1.2c9.5 36.3 41.7 152.5 66.6 169.6.8.5 1.6 1 2.5 1.4 35.4 16.8 192.7-23.6 192.7-23.6s20.5-19.4 11.3-40.7z" id="Layer_11"/>
    <path class="st0" d="M1274.4 1555l-44.8 48.4c-12-13.3-115.8-126.3-194.8-161.4-10.5-4.7-19-13.1-23.5-23.6-15-34.8-48.8-114.2-69-171.4-38.2 53.8-110.3 150-137.7 150.9 0 0-77.4 145.9-83.7 195.3v5.6l-59-15.1c.7-1.3 1.2-2.5 1.6-3.7 9.5-27 39.7-225.6 39.7-225.6l148.5-313c35.4 16.8 192.7-23.6 192.7-23.6s46.8 42.8 48.1 120.2c1.3 77.4 0 186.4 0 186.4s139.5 120.5 178.8 228.3l3.1 2.3z" id="Layer_12"/>
    <path class="st0" d="M661.9 1583.7c-14.1 27.2-78.9 68.1-78.9 68.1s-2.6 5.5-2.6 12.4c0 5 1.4 10.7 6 15.6 6 6.2 17.6 11 38.8 11 60.4 0 95.6-44.3 95.6-44.3v-47.7l-58.9-15.1zm-78.9 68.1s-2.6 5.5-2.6 12.4c0 5 1.4 10.7 6 15.6 6 6.2 17.6 11 38.8 11 60.4 0 95.6-44.3 95.6-44.3v-47.7l-59-15.1c-14 27.2-78.8 68.1-78.8 68.1z" id="Layer_13"/>
    <path class="st0" d="M1332.3 1703.1c-43.1 5.6-30.4 0-30.4 0l-71-98.4s-.4-.4-1.2-1.3l44.8-48.4 64.2 49.7c-.1 0 36.7 92.7-6.4 98.4z" id="Layer_14"/>
    <g id="STROKES">
        <path class="st1" d="M950.5 609.9s-108.4 72.3-148.1 10.5c-2-3.1-3.8-6.6-5.5-10.5 0 0-.7-71.4 72.1-71.4 72.7.1 81.5 71.4 81.5 71.4z"/>
        <path class="st1" d="M988.5 649.8c-9.1 7.5-21.2 16.3-35 23.6-8.2 4.4-17.1 8.2-26.5 11-22.9 6.9-48.5 7.3-73.3-7-1.2-.7-2.4-1.4-3.6-2.2-16.7-10.6-32.9-28.1-47.8-54.9 39.7 61.9 148.1-10.5 148.1-10.5l33.9 13.5c11 4.5 13.3 19 4.2 26.5z"/>
        <path class="st1" d="M850.1 725.2c-5 4.4-13.2 5.2-26.4-.8-18.4-8.4-26.6-27.1-29.8-46.9-5.1-32.2 3-67.5 3-67.5 1.6 3.8 3.5 7.3 5.5 10.5 14.8 26.9 31.1 44.3 47.8 54.9 1.2.8 2.4 1.5 3.6 2.2-.1-.1 9.4 36-3.7 47.6z"/>
        <path class="st1" d="M802.3 620.4c-1.9-3.3-3.7-6.8-5.5-10.5"/>
        <path class="st1" d="M978.8 823.8c0 35.6-50.9 37.5-50.9 37.5l-145.3 9"/>
        <path class="st1" d="M604.9 643.9l44.2 32.3v15.5l3.1 29.9c45.3 48.1 137.9 78.7 137.9 78.7L890.9 767"/>
        <path class="st1" d="M978.8 915c18.4 23.5 37.2 33.5 51.8 41.3"/>
        <path class="st1" d="M1332.3 1703.1c-43.1 5.6-30.4 0-30.4 0l-71-98.4s-.4-.4-1.2-1.3l44.8-48.4 64.2 49.7c-.1 0 36.7 92.7-6.4 98.4z"/>
        <path class="st1" d="M942.3 1247c-6.7-18.8-11.9-35.3-14.4-46.9"/>
        <path class="st1" d="M1274.4 1555l-44.8 48.4c-12-13.3-115.8-126.3-194.8-161.4-10.5-4.7-19-13.1-23.5-23.6-15-34.8-48.8-114.2-69-171.4-38.2 53.8-110.3 150-137.7 150.9 0 0-77.4 145.9-83.7 195.3v5.6l-59-15.1c.7-1.3 1.2-2.5 1.6-3.7 9.5-27 39.7-225.6 39.7-225.6l148.5-313c35.4 16.8 192.7-23.6 192.7-23.6s46.8 42.8 48.1 120.2c1.3 77.4 0 186.4 0 186.4s139.5 120.5 178.8 228.3l3.1 2.3z"/>
        <path class="st1" d="M1044.5 1017.7s-157.4 40.4-192.7 23.6c-.9-.4-1.8-.9-2.5-1.4-24.9-17.1-57.1-133.3-66.6-169.6l-19.4 1.2c-87.9-29.6-136.9-114.7-136.9-114.7-6.3-1.9-12.5-5.3-18.3-9.4-14-9.9-25.9-24.2-32.7-33.4-4-5.4-6.3-9-6.3-9l36.1-61.1 21.6-52.9 33.6 7.5 24.4 5.4v53.7l95.4 21.5s5.2-.8 14.1-1.6c3.2 19.9 11.4 38.6 29.8 46.9 13.2 6 21.4 5.2 26.4.8 86.5 73.4 102.8 16.3 103.8-32.2 23.1 9.2 43.2 22.9 56 42.9 40 62.9 28.5 170.5 20.7 220.3 11.8 6.3 20.9 11.2 25.1 20.7 8.7 21.4-11.6 40.8-11.6 40.8z"/>
        <path class="st1" d="M720.9 1598.8v47.7s-35.2 44.3-95.6 44.3c-60.4 0-42.2-39-42.2-39s64.8-40.9 78.9-68.1"/>
        <path class="st1" d="M953.9 693c-.9 48.5-17.2 105.5-103.8 32.2 13.1-11.5 3.6-47.7 3.6-47.7 24.8 14.3 50.4 13.9 73.3 7 9.3-2.8 18.2-6.7 26.5-11 .3 6 .5 12.7.4 19.5z"/>
        <path class="st1" d="M850.1 725.2c-3.8-3.3-7.8-6.8-12-10.6"/>
        <path class="st1" d="M969.2 279.7L850.4 440.3l-145 175.3-20.9 28.2v-40l-24.4-5.4 131.5-201.7 118.8-160.6c14.2-19.2 38.8-24.9 55.1-12.9 16.1 12 17.9 37.3 3.7 56.5z"/>
    </g>
</svg>
