<svg xmlns="http://www.w3.org/2000/svg" viewBox="0 0 1920 1920">
    <style>
        .st0{fill:#fff}.st1,.st2{fill:none}.st2{stroke:#231f20;stroke-width:50;stroke-linecap:round;stroke-linejoin:round;stroke-miterlimit:10}
    </style>
    <path class="st0" d="M397 1625.9c15.5 15.5 15.5 40.8 0 56.3l-19.5 19.5c-15.5 15.5-40.9 15.5-56.4 0l-102.4-102.4c-15.5-15.5-15.5-40.8 0-56.3l19.5-19.5c15.5-15.5 40.9-15.5 56.3 0l6.1 6.1 90.3 90.3 6.1 6zM1467.1 257.7l-38.9 38.9L1274 450.8l-135 135c-162.1 162.1-346.3 405.3-483.5 588.9l-354.8 354.8 90.3 90.3L745.8 1265c183.6-137.2 426.7-321.5 588.8-483.6l135-135 154.2-154.2 38.9-38.9c53.8-53.8 53.8-141.8 0-195.6-53.8-53.8-141.8-53.8-195.6 0z" id="Layer_2"/>
    <g id="STROKES">
        <g id="XMLID_1_">
            <path class="st2" d="M391 1619.8L745.8 1265c183.6-137.2 426.7-321.5 588.8-483.6l135-135 154.2-154.2 38.9-38.9c53.8-53.8 53.8-141.8 0-195.6-53.8-53.8-141.8-53.8-195.6 0l-38.9 38.9L1274 450.8l-135 135c-162.1 162.1-346.3 405.3-483.5 588.9l-354.8 354.8-6.1-6.1c-15.5-15.5-40.9-15.5-56.3 0l-19.5 19.5c-15.5 15.5-15.5 40.8 0 56.3l102.4 102.4c15.5 15.5 40.9 15.5 56.4 0l19.5-19.5c15.5-15.5 15.5-40.8 0-56.3l-6.1-6z"/>
            <path class="st2" d="M300.7 1529.5l90.3 90.3"/>
        </g>
    </g>
</svg>
