<svg xmlns="http://www.w3.org/2000/svg" viewBox="0 0 1920 1920">
    <style>
        .st0{fill:#fff}.st1{fill:none;stroke:#231f20;stroke-width:50;stroke-linecap:round;stroke-linejoin:round;stroke-miterlimit:10}
    </style>
    <path class="st0" d="M1703.1 877h-676.2V763H1703v114zM216.9 763v114h676.2V763H216.9z" id="Layer_3"/>
    <path class="st0" d="M628.5 1514.8V1703H517.8c-57.1 0-105.7-41.7-114.3-98.2l-13.8-90h238.8zm0-271.4H348.2l41.5 271.4h238.8v-271.4zm501.8 245.2V1703h271.9c57.1 0 105.7-41.7 114.3-98.2l17.8-116.3h-404zm0-135.7H628.5V1703h501.8v-350.1zm0-314.7v450.5h404l68.9-450.4h-472.9zm0-161.2v161.2h472.9l24.3-158.6V877h-497.2zm0 2.6V877H628.5v475.9h501.8V879.6zM292.5 877v2.6l55.7 363.8h280.3V877h-336z" id="Layer_4"/>
    <path class="st0" d="M1026.9 877H893.1V262.5c0-25.2 20.4-45.6 45.5-45.6h42.8c25.2 0 45.6 20.4 45.6 45.6V877z" id="Layer_5"/>
    <g id="STROKES">
        <g id="XMLID_1_">
            <path class="st1" d="M893.1 877V262.5c0-25.2 20.4-45.6 45.5-45.6h42.8c25.2 0 45.6 20.4 45.6 45.6V877"/>
            <path class="st1" d="M1026.9 763h676.2v114H216.9V763h676.2"/>
            <path class="st1" d="M292.5 879.6l55.7 363.8 41.5 271.4 13.8 90c8.6 56.5 57.2 98.2 114.3 98.2h437.7"/>
            <path class="st1" d="M1627.5 879.6l-24.3 158.6-68.9 450.4-17.8 116.3c-8.6 56.5-57.2 98.2-114.3 98.2H955.5"/>
            <path class="st1" d="M628.5 877v826.1"/>
            <path class="st1" d="M348.2 1243.4h280.3"/>
            <path class="st1" d="M1130.3 879.6v823.5"/>
            <path class="st1" d="M1130.3 1038.2h472.9"/>
            <path class="st1" d="M1534.3 1488.6h-404"/>
            <path class="st1" d="M628.5 1514.8H389.7"/>
            <path class="st1" d="M628.5 1352.9h501.8"/>
        </g>
    </g>
</svg>
