<svg xmlns="http://www.w3.org/2000/svg" viewBox="0 0 1920 1920">
    <style>
        .st0{fill:#fff}.st1{fill:none;stroke:#231f20;stroke-width:50;stroke-linecap:round;stroke-linejoin:round;stroke-miterlimit:10}
    </style>
    <path class="st0" d="M1703.1 589L1499 1703.1H421L216.9 589h1486.2zM1142 790.8c0-29.6-24.2-53.8-53.8-53.8H831.8c-14.8 0-28.2 6-38 15.8-9.8 9.7-15.8 23.2-15.8 38 0 29.6 24.2 53.8 53.8 53.8h256.4c14.8 0 28.2-6 38-15.8 9.7-9.8 15.8-23.2 15.8-38z" id="Layer_2"/>
    <g id="STROKES">
        <g id="XMLID_1_">
            <path class="st1" d="M960 1703.1H421L216.9 589H960"/>
            <path class="st1" d="M960 1703.1h539L1703.1 589H960"/>
            <path class="st1" d="M1088.2 844.6H831.8c-29.6 0-53.8-24.2-53.8-53.8 0-14.8 6-28.2 15.8-38 9.7-9.8 23.2-15.8 38-15.8h256.4c29.6 0 53.8 24.2 53.8 53.8 0 14.8-6.1 28.2-15.8 38-9.7 9.7-23.2 15.8-38 15.8z"/>
        </g>
    </g>
</svg>
