<svg xmlns="http://www.w3.org/2000/svg" viewBox="0 0 1920 1920">
    <style>
        .st0{fill:#fff}.st1{fill:none;stroke:#231f20;stroke-width:50;stroke-linecap:round;stroke-linejoin:round;stroke-miterlimit:10}
    </style>
    <path class="st0" d="M976.5 311.4c0 52.2-42.3 94.4-94.5 94.4-8.9 0-17.5-1.2-25.7-3.5-39.7-11.2-68.7-47.7-68.7-90.9 0-1.4 0-2.9.1-4.3 2.2-50.2 43.6-90.2 94.4-90.2 52.1 0 94.4 42.3 94.4 94.5z" id="Layer_25"/>
    <path class="st0" d="M948.8 650.9c-6.9 27.2-16.1 59.4-24.3 77.4-7.7 16.8-27.4 21.4-46.5 21.8-2.7-3.7-5.6-6.7-8.4-9.1-.4-.3-.8-.7-1.2-1l-.2-.2c-.3-.2-.6-.5-.8-.7-.2-.2-.5-.4-.7-.6-.3-.2-.6-.5-.9-.7-.3-.2-.5-.4-.8-.6-.5-.4-1.1-.7-1.6-1.1-.5-.3-1-.7-1.5-1-2.4-1.4-4.6-2.5-6.4-3.2-.4-.2-.8-.3-1.1-.4-1.1-.4-2-.7-2.7-.9-.2-.1-.3-.1-.4-.1-.6-.1-.9-.2-.9-.2C754 717.3 683.8 626 683.8 626s6-66.2 32.1-105.3C742 481.6 752 430.5 765 404.4c13-26.1 18-97.3 18-97.3h4.5c-.1 1.4-.1 2.8-.1 4.3 0 43.2 29.1 79.7 68.7 90.9L807 432.4c1 14-42.1 179.5-42.1 179.5 84.2-1 93.3 46.1 93.3 46.1h74.2l16.4-7.1z" id="Layer_26"/>
    <path class="st0" d="M1109.2 670s-6.6-1-15.9-3.3l1.2 6-13.6-2.5s-53.4 30.6-102.1-16.9c5.5-27.3 10.3-57.6 6.6-64.7-7-13.5-21.1-87.8 45.5-96.2 66.7-8.3 87.8 23.7 91.7 41 3.9 17.3 0 37.5 0 37.5l9 22.1-22.4 77z" id="Layer_27"/>
    <path class="st0" d="M1591.4 936.2l-47.4 33.5-57.6-40.8-179.3-71.4s-90.5-38.3-144.6-72.5c-.1-12.8-.7-23.2-2.4-25.6-4.2-6.3-9.8-41-12.8-61.7 12.4-3.2 26.7-5.3 34.4-.5 15.3 9.5 47.4 48.1 47.4 48.1s67.8 25.5 78.7 44.5c0 0 49.6 2.9 111.5 57.6 62 54.7 121.7 69.2 121.7 69.2l45.9-10.9 4.5 30.5z" id="Layer_28"/>
    <path class="st0" d="M1165.2 1066.2c-4.2 2-8.6 3.6-13 4.9-80.4 23.6-195.9-52.3-201.6-58-1.5-1.5-3.1-4.1-4.6-7.3-4.8-9.9-9.4-24.8-9.4-24.8l14-97.3s-50.1-65.2-60.2-106.3c-.2-.7-.4-1.5-.6-2.2-.2-.6-.3-1.1-.5-1.7-.1-.5-.3-1-.4-1.5-.1-.5-.3-.9-.4-1.4-.1-.5-.3-.9-.5-1.4-.2-.5-.3-1-.5-1.4-.2-.4-.3-.8-.5-1.2-.2-.5-.4-.9-.5-1.4-.2-.6-.5-1.2-.7-1.8-.5-1.2-1-2.3-1.6-3.4-.2-.5-.5-1-.8-1.5-.3-.6-.6-1.1-.9-1.6l-.9-1.5c-.3-.5-.6-1-.9-1.4-.5-.9-1.1-1.7-1.7-2.5-.3-.5-.7-1-1.1-1.5 19-.4 38.8-5 46.5-21.8 8.2-18 17.4-50.3 24.3-77.4l19.8-8.8c3.4 4.1 6.8 7.9 10.2 11.2 48.7 47.5 102.1 16.9 102.1 16.9l13.6 2.5 50.5 9.5s.8 6.4 2.2 15.5c3 20.7 8.7 55.5 12.8 61.7 1.7 2.5 2.3 12.8 2.4 25.6.2 33.1-3.6 82.7-4.4 56.7.9 22 6.1 221.3 7.3 224.6z" id="Layer_29"/>
    <path class="st0" d="M1171.2 1384.1c-.6 3.4-9 16-21.6 25.2-9.6 7-21.6 12-34.5 9.9-16.1-2.7-33.3-16.5-47.2-30.5-12.2-12.2-21.8-24.6-26-29.7-9-11-35.1-114.3-35.1-114.3l-103.3 29.1-61.2 52.1c-3.1-1.5-6.2-3.2-9.1-5.2-24.9-16.8-41.3-48.6-49.6-68.6-4.3-10.4-6.5-17.5-6.5-17.5 15-37.1 120.3-152.4 120.3-152.4 6.6-27 30.4-56.9 48.5-76.5 1.6 3.2 3.2 5.9 4.6 7.3 5.7 5.7 121.2 81.6 201.6 58 9.8 24.9 13 53.3 13 53.3s7.1 253.8 6.1 259.8z" id="Layer_30"/>
    <path class="st0" d="M833.2 1320.7c-38.6 33.3-111.5 87.5-111.5 87.5s-26.4 36.7-57.4 58.5-105.6 101-105.6 101l-3.7 13.9c-12.4-10.7-24.3-22-35.7-33.9l3.8-1.9s35.6-80.4 96.4-148.1c60.8-67.7 114.8-93 114.8-93 17.7-24.5 35.7-41.7 49.3-52.7 8.3 20.1 24.7 52 49.6 68.7z" id="Layer_31"/>
    <path class="st0" d="M1138.4 1497.8c-23 14.9-91.8 39-114.8 76.9-5.8 9.6-11.1 22-15.9 35.2-11.9-27.1-20.5-55.6-25.8-84.7l5 1.8s31-86.6 86.1-87.7l-5-50.5c13.9 14 31.1 27.8 47.2 30.5 12.9 2.2 24.9-2.9 34.5-9.9 4.9 25.4 9.4 49.4 9.4 49.4s2.2 24.1-20.7 39z" id="Layer_32"/>
    <path class="st0" d="M555 1581.7l-6.7 25.1-66.6 31s-93 84.9-108.3 25.2 86.6-86 86.6-86l59.3-29.1c11.4 11.8 23.3 23.1 35.7 33.8z" id="Layer_33"/>
    <path class="st0" d="M1007.7 1609.9c-14.1 39.1-23.1 85.3-23.1 85.3L960 1703s-24.8-43.4-20.2-81.3c4.6-37.9-15.3-73.9-15.3-73.9l35.5-30.6 21.9 7.9c5.2 29.2 13.9 57.7 25.8 84.8z" id="Layer_34"/>
    <g id="STROKES">
        <path class="st1" d="M878.1 750.1c19-.4 38.8-5 46.5-21.8 8.2-18 17.4-50.3 24.3-77.4"/>
        <path class="st1" d="M1165.2 1066.2c-4.2 2-8.6 3.6-13 4.9-80.4 23.6-195.9-52.3-201.6-58-1.5-1.5-3.1-4.1-4.6-7.3-4.8-9.9-9.4-24.8-9.4-24.8l14-97.3s-50.1-65.2-60.2-106.3c-10-41.1-40.1-47.1-40.1-47.1C754 717.3 683.8 626 683.8 626s6-66.2 32.1-105.3C742 481.6 752 430.5 765 404.4c13-26.1 18-97.3 18-97.3h4.5c-.1 1.4-.1 2.8-.1 4.3 0 43.2 29.1 79.7 68.7 90.9L807 432.4c1 14-42.1 179.5-42.1 179.5 84.2-1 93.3 46.1 93.3 46.1h74.2l36.1-16.1c51.1 63.2 112.3 28.1 112.3 28.1l64.2 12s.8 6.4 2.2 15.5c3 20.7 8.7 55.5 12.8 61.7 1.7 2.5 2.3 12.8 2.4 25.6.2 33.1-3.6 82.7-4.4 56.7.8 22.1 6 221.4 7.2 224.7z"/>
        <path class="st1" d="M1591.4 936.2l-47.4 33.5-57.6-40.8-179.3-71.4s-90.5-38.3-144.6-72.5c-.1-12.8-.7-23.2-2.4-25.6-4.2-6.3-9.8-41-12.8-61.7 12.4-3.2 26.7-5.3 34.4-.5 15.3 9.5 47.4 48.1 47.4 48.1s67.8 25.5 78.7 44.5c0 0 49.6 2.9 111.5 57.6 62 54.7 121.7 69.2 121.7 69.2l45.9-10.9 4.5 30.5z"/>
        <path class="st1" d="M833.2 1320.7c-38.6 33.3-111.5 87.5-111.5 87.5s-26.4 36.7-57.4 58.5-105.6 101-105.6 101l-10.3 39-66.6 31s-93 84.9-108.3 25.2S460 1577 460 1577l63.1-31s35.6-80.4 96.4-148.1c60.8-67.7 114.8-93 114.8-93 17.7-24.5 35.7-41.7 49.3-52.7 8.3 19.9 24.7 51.8 49.6 68.5z"/>
        <path class="st1" d="M555 1581.7c-12.4-10.7-24.3-22-35.7-33.9"/>
        <path class="st1" d="M1171.2 1384.1c-.6 3.4-9 16-21.6 25.2-9.6 7-21.6 12-34.5 9.9-16.1-2.7-33.3-16.5-47.2-30.5-12.2-12.2-21.8-24.6-26-29.7-9-11-35.1-114.3-35.1-114.3l-103.3 29.1-61.2 52.1c-3.1-1.5-6.2-3.2-9.1-5.2-24.9-16.8-41.3-48.6-49.6-68.6-4.3-10.4-6.5-17.5-6.5-17.5 15-37.1 120.3-152.4 120.3-152.4 6.6-27 30.4-56.9 48.5-76.5 1.6 3.2 3.2 5.9 4.6 7.3 5.7 5.7 121.2 81.6 201.6 58 9.8 24.9 13 53.3 13 53.3s7.1 253.8 6.1 259.8z"/>
        <path class="st1" d="M1138.4 1497.8c-23 14.9-91.8 39-114.8 76.9-23 37.9-39 120.5-39 120.5L960 1703s-24.8-43.4-20.2-81.3c4.6-37.9-15.3-73.9-15.3-73.9l35.5-30.6 26.8 9.7s31-86.6 86.1-87.7l-5-50.5c13.9 14 31.1 27.8 47.2 30.5 12.9 2.2 24.9-2.9 34.5-9.9 4.9 25.4 9.4 49.4 9.4 49.4s2.3 24.2-20.6 39.1z"/>
        <path class="st1" d="M981.9 1525.2c5.2 29.1 13.9 57.6 25.8 84.7"/>
        <path class="st1" d="M976.5 311.4c0 52.2-42.3 94.4-94.5 94.4-8.9 0-17.5-1.2-25.7-3.5-39.7-11.2-68.7-47.7-68.7-90.9 0-1.4 0-2.9.1-4.3 2.2-50.2 43.6-90.2 94.4-90.2 52.1 0 94.4 42.3 94.4 94.5z"/>
        <path class="st1" d="M982.3 650.9s10.3-48.8 3.2-62.3c-7.1-13.5-21.2-87.8 45.5-96.2s87.8 23.7 91.7 41c3.8 17.3 0 37.5 0 37.5l9 22.1-22.4 76.9s-38.3-5.6-59.5-22.3"/>
    </g>
</svg>
