<svg xmlns="http://www.w3.org/2000/svg" viewBox="0 0 1920 1920">
    <style>
        .st0{fill:#fff}.st1{fill:none;stroke:#231f20;stroke-width:50;stroke-linecap:round;stroke-linejoin:round;stroke-miterlimit:10}
    </style>
    <path class="st0" d="M1024.5 281.5c0 35.6-28.9 64.5-64.5 64.5s-64.5-28.9-64.5-64.5S924.4 217 960 217s64.5 28.8 64.5 64.5z" id="Layer_6"/>
    <path class="st0" d="M1517.3 1462.5l-61.9 240.5v-240.5h61.9zm-1114.6 0l61.9 240.5v-240.5h-61.9zm61.9 0V1703h247.7v-240.5H464.6zm247.7 0V1703H960v-240.5H712.3zm247.7 0V1703h247.7v-240.5H960zm247.7 0V1703h247.7v-240.5h-247.7zm247.7-240.5v240.5h61.9l61.9-240.5h-123.8zm-247.7 0v240.5h247.7V1222h-247.7zm-247.7 0v240.5h247.7V1222H960zm-247.7 0v240.5H960V1222H712.3zm-247.7 0v240.5h247.7V1222H464.6zm-123.8 0l61.9 240.5h61.9V1222H340.8zm-60.3-240.5l-1.5.4 61.8 240.1h123.8V981.5H280.5zm184.1 0V1222h247.7V981.5H464.6zm247.7 0V1222H960V981.5H712.3zm247.7 0V1222h247.7V981.5H960zm247.7 0V1222h247.7V981.5h-247.7zm247.7 0V1222h123.8l61.9-240.5h-185.7zm125-240.5h-125v240.5h185.8l61.9-240.5h-122.7zm-372.7 0v240.5h247.7V741h-247.7zM960 741v240.5h247.7V741H960zm-247.7 0v240.5H960V741H712.3zm-247.7 0v240.5h247.7V741H464.6zm-125 0H216.9l62 240.9 1.5-.4h184.1V741H339.6z" id="Layer_7"/>
    <g id="STROKES">
        <g id="XMLID_1_">
            <path class="st1" d="M279 981.9L216.9 741h1486.2l-62 240.5-61.9 240.5-61.9 240.5-61.9 240.6H464.6l-61.9-240.6-61.9-240.5z"/>
            <path class="st1" d="M402.7 1462.5h1114.6"/>
            <path class="st1" d="M340.8 1222h1238.4"/>
            <path class="st1" d="M280.5 981.5h1360.6"/>
            <path class="st1" d="M1455.4 741v962.1"/>
            <path class="st1" d="M1207.7 741v962.1"/>
            <path class="st1" d="M960 741v962.1"/>
            <path class="st1" d="M712.3 741v962.1"/>
            <path class="st1" d="M464.6 741v962.1"/>
            <path class="st1" d="M339.6 741l555.9-459.5"/>
            <path class="st1" d="M1024.5 281.5L1580.4 741"/>
            <path class="st1" d="M1024.5 281.5c0 35.6-28.9 64.5-64.5 64.5s-64.5-28.9-64.5-64.5S924.4 217 960 217s64.5 28.8 64.5 64.5z"/>
        </g>
    </g>
</svg>
