<svg xmlns="http://www.w3.org/2000/svg" viewBox="0 0 1920 1920">
    <style>
        .st0{fill:#fff}.st1{fill:none;stroke:#231f20;stroke-width:50;stroke-linecap:round;stroke-linejoin:round;stroke-miterlimit:10}
    </style>
    <path class="st0" d="M1415.5 264.1s61.5 238 192.6 389.2c73.2 84.4 107.3 193.9 91 302.3-16.4 109.1-79.8 219.4-262.6 240.5h-9.4c2.5-27.8 2.6-55 1-81l19.1-3.6s237-53.1 86.4-330.4c-150.6-277.3-294.9-94.8-294.9-94.8l-5.6 9.4c-42.5-33.2-91.7-58.9-145.5-74.8l5.6-18.3c-.2.1 104.5-346.5 322.3-338.5zM311.9 653.2c-73.2 84.4-107.3 193.9-90.9 302.3 16.4 109.1 79.8 219.4 262.6 240.5l9.6 1.3c-2.5-27.8-2.7-54.9-1.2-80.9l-19-5s-237-53.1-86.4-330.4c150.6-277.3 294.9-94.8 294.9-94.8l6.6 8.5c42.1-32.8 90.8-58.1 144-73.8l-5-18.4S722.4 255.9 504.6 263.9c-.1.2-61.7 238.2-192.7 389.3z" id="Layer_1"/>
    <path class="st0" d="M555.5 872.2s-55.4 106.6-63.6 244.3l-19-5s-237-53.1-86.4-330.4c150.6-277.3 294.9-94.8 294.9-94.8l6.6 8.5c-59.3 46.4-105.6 107.4-132.5 177.4zm677.4-176.4c58.9 46.1 104.8 106.9 131.6 176.4 0 0 55.1 105.8 63.5 242.9l19.1-3.6s237-53.1 86.4-330.4c-150.6-277.3-294.9-94.8-294.9-94.8l-5.7 9.5z" id="Layer_3"/>
    <path class="st0" d="M957 1338.2c-2 .1-3 .2-3 .2h6.1c-.1 0-1.1-.1-3.1-.2zm280.9-334.1c-36.2 0-65.6 28-65.6 62.6s29.4 62.7 65.6 62.7c36.2 0 65.6-28.1 65.6-62.7s-29.4-62.6-65.6-62.6zm-490.2 62.6c0-34.6-29.4-62.6-65.6-62.6-36.2 0-65.6 28-65.6 62.6s29.4 62.7 65.6 62.7c36.3 0 65.6-28.1 65.6-62.7zm25.2 247.6c-42.2-9-78.3-20.9-90.8-36.2 0 0-6.5 120.7 43.7 170.8l47.1-134.6zm458.9-36.2c-12.5 15.4-48.5 27.2-90.8 36.2l47.1 134.6c50.2-50 43.7-170.8 43.7-170.8zm-271.8 378c-347.8-98.9-451.5-289.9-466.9-458.7-2.5-27.8-2.7-54.9-1.2-80.9 8.1-137.7 63.5-244.3 63.6-244.3 26.9-70 73.2-131 132.6-177.2 42.1-32.8 90.8-58.1 144-73.8 40.4-12 83.4-18.4 127.9-18.4 44.4 0 87.2 6.4 127.4 18.3 53.8 15.9 103 41.5 145.5 74.8 58.9 46.1 104.8 106.9 131.6 176.4 0 0 55.1 105.8 63.5 242.9 1.6 26 1.5 53.2-1 81-15 168.9-118.2 360.7-467 459.9z" id="Layer_4"/>
    <path class="st0" d="M682.1 1004.1c36.2 0 65.6 28 65.6 62.6s-29.4 62.7-65.6 62.7c-36.2 0-65.6-28.1-65.6-62.7s29.4-62.6 65.6-62.6zm490.2 62.6c0 34.6 29.4 62.7 65.6 62.7 36.2 0 65.6-28.1 65.6-62.7s-29.4-62.6-65.6-62.6c-36.3 0-65.6 28-65.6 62.6z" id="Layer_5"/>
    <path class="st0" d="M725.8 1448.9c-50.2-50.1-43.7-170.8-43.7-170.8 12.5 15.4 48.5 27.2 90.8 36.2l-47.1 134.6zm415.2-134.6l47.1 134.6c50.2-50.1 43.7-170.8 43.7-170.8-12.5 15.4-48.6 27.3-90.8 36.2z" id="Layer_6"/>
    <g id="STROKES">
        <g id="XMLID_3_">
            <path class="st1" d="M832.1 621.1l-5-18.4S722.4 256.1 504.6 264.1c0 0-61.5 238-192.6 389.2-73.2 84.4-107.3 193.9-90.9 302.3 16.4 109.1 79.8 219.4 262.6 240.5l9.6 1.3"/>
            <path class="st1" d="M1087.4 621l5.6-18.3s104.7-346.6 322.5-338.6c0 0 61.5 238 192.6 389.2 73.2 84.4 107.3 193.9 91 302.3-16.4 109.1-79.8 219.4-262.6 240.5h-9.4"/>
            <path class="st1" d="M1428 1115.1c-8.4-137-63.5-242.9-63.5-242.9-26.8-69.6-72.7-130.3-131.6-176.4-42.5-33.2-91.7-58.9-145.5-74.8-40.3-11.9-83.1-18.3-127.4-18.3-44.5 0-87.5 6.5-127.9 18.4-53.1 15.8-101.8 41.1-144 73.8-59.4 46.2-105.7 107.3-132.6 177.2 0 0-55.4 106.6-63.6 244.3-1.5 26-1.4 53.2 1.2 80.9C508.6 1366 612.2 1557.1 960 1656c348.8-99.1 452-290.9 467.1-460 2.4-27.7 2.5-54.9.9-80.9z"/>
            <path class="st1" d="M747.7 1066.7c0 34.6-29.4 62.7-65.6 62.7-36.2 0-65.6-28.1-65.6-62.7s29.4-62.6 65.6-62.6c36.3 0 65.6 28 65.6 62.6z"/>
            <path class="st1" d="M1237.9 1004.1c36.2 0 65.6 28 65.6 62.6s-29.4 62.7-65.6 62.7c-36.2 0-65.6-28.1-65.6-62.7s29.3-62.6 65.6-62.6z"/>
            <path class="st1" d="M747.7 1066.7C747.7 955.2 843.3 864 960 864c58.4 0 111.4 22.8 149.9 59.5s62.3 87.4 62.3 143.2"/>
            <path class="st1" d="M896 1007.8v100"/>
            <path class="st1" d="M1024 1007.8v100"/>
            <path class="st1" d="M688.1 694.9l-6.6-8.5s-144.3-182.6-294.9 94.8C236 1058.5 473 1111.6 473 1111.6l19 5"/>
            <path class="st1" d="M1232.9 695.8l5.6-9.4s144.3-182.6 294.9 94.8c150.6 277.3-86.4 330.4-86.4 330.4l-19.1 3.6"/>
            <path class="st1" d="M772.9 1314.3c-42.2-9-78.3-20.9-90.8-36.2 0 0-6.5 120.7 43.7 170.8l47.1-134.6z"/>
            <path class="st1" d="M956.9 1338.2c-17.9-1.2-110.3-8.1-184-23.8"/>
            <path class="st1" d="M1141 1314.3c-73.7 15.7-166.2 22.6-184 23.8-2 .1-3 .2-3 .2h6.1s-1-.1-3-.2"/>
            <path class="st1" d="M1141 1314.3l47.1 134.6c50.2-50.1 43.7-170.8 43.7-170.8-12.5 15.4-48.6 27.3-90.8 36.2z"/>
        </g>
    </g>
</svg>
