<svg xmlns="http://www.w3.org/2000/svg" viewBox="0 0 1920 1920">
    <style>
        .st0{fill:#fff}.st1{fill:none;stroke:#231f20;stroke-width:50;stroke-linecap:round;stroke-linejoin:round;stroke-miterlimit:10}
    </style>
    <path class="st0" d="M1137.4 951.8s179.4 288.9 323.6 179.3c0 0 9.8 358.1-84.7 572 0 0-5-204-126.9-261.2 0 0 33.8-193-153.5-219.7 0 0-46.3-93.1-106.8-117.1 0 0-66.3 51.4-159.2 79.6 0 0-60.6 160.1-112.8 192.4 0 0-7.5-92.1 47.3-221.4C635 1210.4 543 1203 543 1203c32.3-52.2 192.4-112.8 192.4-112.8C763.6 997.3 815 931 815 931c-24-60.6-117-106.8-117-106.8-26.6-187.3-219.7-153.5-219.7-153.5-57.2-121.9-261.2-126.9-261.2-126.9C430.9 449.3 789 459 789 459 679.3 603.2 968.2 782.6 968.2 782.6l109.5-109.5-27.4 102s47.3-12.4 77.1 17.4c29.9 29.8 17.4 77.1 17.4 77.1l102-27.4-109.4 109.6z" id="Layer_7"/>
    <g id="STROKES">
        <g id="XMLID_3_">
            <path class="st1" d="M764.2 1155.8c-129.4 54.7-221.4 47.3-221.4 47.3 32.3-52.2 192.4-112.8 192.4-112.8 28.2-92.9 79.6-159.2 79.6-159.2-24-60.6-117-106.8-117-106.8C671.2 637 478.1 670.8 478.1 670.8c-57.2-121.9-261.2-126.9-261.2-126.9C430.9 449.3 789 459 789 459 679.3 603.2 968.2 782.6 968.2 782.6l109.5-109.5-27.4 102s47.3-12.4 77.1 17.4"/>
            <path class="st1" d="M764.2 1155.8c-54.7 129.4-47.3 221.4-47.3 221.4 52.2-32.3 112.8-192.4 112.8-192.4 92.9-28.2 159.2-79.6 159.2-79.6 60.6 24 106.8 117.1 106.8 117.1 187.3 26.6 153.5 219.7 153.5 219.7 121.9 57.2 126.9 261.2 126.9 261.2 94.5-213.9 84.7-572 84.7-572-144.1 109.6-323.6-179.3-323.6-179.3l109.5-109.5-102 27.4s12.4-47.3-17.4-77.1"/>
            <path class="st1" d="M1372.2 771.1c0-123.3-100-223.3-223.3-223.3"/>
            <path class="st1" d="M1526.5 728.4c0-185-150-334.9-334.9-334.9"/>
            <path class="st1" d="M1703.1 719.3c0-277.5-224.9-502.4-502.4-502.4"/>
        </g>
    </g>
</svg>
