<svg xmlns="http://www.w3.org/2000/svg" viewBox="0 0 1920 1920">
    <style>
        .st0{fill:#fff}.st1{fill:none;stroke:#231f20;stroke-width:50;stroke-linecap:round;stroke-linejoin:round;stroke-miterlimit:10}
    </style>
    <path class="st0" d="M1703.1 1004.8v338.8c0 115.1-94.2 209.3-209.3 209.3H426.3c-115.1 0-209.3-94.2-209.3-209.3v-338.8h1486.1z" id="Layer_1"/>
    <path class="st0" d="M1703.1 884.9v119.9H216.9V884.9h1417.6z" id="Layer_2"/>
    <g id="STROKES">
        <g id="XMLID_1_">
            <path class="st1" d="M1634.5 884.9h68.5v458.7c0 115.1-94.2 209.3-209.3 209.3H426.3c-115.1 0-209.3-94.2-209.3-209.3V884.9h1417.5z"/>
            <path class="st1" d="M1634.5 884.9V736"/>
            <path class="st1" d="M1502.3 655.9c0-36.4 29.8-66.1 66.1-66.1 18.2 0 34.7 7.4 46.7 19.4 12 12 19.4 28.5 19.4 46.7V736"/>
            <path class="st1" d="M216.9 1004.8h1486.2"/>
        </g>
    </g>
</svg>
