<svg xmlns="http://www.w3.org/2000/svg" viewBox="0 0 1920 1920">
    <style>
        .st0{fill:#fff}.st1{fill:none;stroke:#231f20;stroke-width:50;stroke-linecap:round;stroke-linejoin:round;stroke-miterlimit:10}
    </style>
    <path class="st0" d="M225.8 788.2c518.8 121.4 1468.1 48.4 1468.1 48.4-76.2 552.2-400 611.6-400 611.6H412c-256.8-279.5-186.2-660-186.2-660z" id="Layer_8"/>
    <g id="STROKES">
        <g id="XMLID_1_">
            <path class="st1" d="M345.3 803.9V656.8"/>
            <path class="st1" d="M476 577.7c0-35.9-29.4-65.3-65.3-65.3-18 0-34.3 7.4-46.1 19.2-11.8 11.8-19.2 28.2-19.2 46.1v79.1"/>
            <path class="st1" d="M1293.9 1448.2s323.8-59.4 400-611.6c0 0-949.2 73-1468.1-48.4 0 0-70.6 380.4 186.1 659.9h883.7"/>
            <path class="st1" d="M412 1448.2v108.1s-7.4 33.9-54.1 33.9"/>
            <path class="st1" d="M1309.9 1448.2v108.1s7.4 33.9 54.2 33.9"/>
        </g>
    </g>
</svg>
