<svg xmlns="http://www.w3.org/2000/svg" viewBox="0 0 1920 1920">
    <style>
        .st0{fill:#fff}.st1{fill:none;stroke:#231f20;stroke-width:50;stroke-linecap:round;stroke-linejoin:round;stroke-miterlimit:10}
    </style>
    <path class="st0" d="M1703.1 783.1v264.8c0 221.8-181.5 403.2-403.2 403.2H620.2c-221.8 0-403.2-181.4-403.2-403.2V783.1h1486.1z" id="Layer_4"/>
    <path class="st0" d="M1484.4 697.1c-156.6 4.1-215.4-56.1-372.7-56.7-89.1-.3-157.7 32-258.2 52.1-77 15.4-172.7 23.7-310.7 4.6-51.1-7-94.2-9.6-130.6-8.9-189.9 3.4-195.3 94.9-195.3 94.9H1703c.1 0-62-90.1-218.6-86z" id="Layer_5"/>
    <path class="st0" d="M1484.4 453.2c31.3 0 56.7 25.4 56.7 56.7s-25.4 56.7-56.7 56.7c-31.3 0-56.7-25.4-56.7-56.7s25.4-56.7 56.7-56.7zm-159.7-174.5c0 37.7 30.6 68.3 68.3 68.3s68.3-30.6 68.3-68.3-30.6-68.3-68.3-68.3-68.3 30.6-68.3 68.3zm-217.4 156.9c0 47.6 38.6 86.2 86.2 86.2s86.2-38.6 86.2-86.2-38.6-86.2-86.2-86.2-86.2 38.6-86.2 86.2z" id="Layer_6"/>
    <path class="st0" d="M723 311.6L573.7 460.8c-41.2-41.2-41.2-108 0-149.2 41.3-41.2 108.1-41.2 149.3 0z" id="Layer_7"/>
    <g id="STROKES">
        <g id="XMLID_1_">
            <path class="st1" d="M661.3 500.3l32.8 32.8"/>
            <path class="st1" d="M751.6 590.5l32.7 32.8"/>
            <path class="st1" d="M841.8 680.8l11.7 11.7"/>
            <path class="st1" d="M718 443.6l32.8 32.8"/>
            <path class="st1" d="M808.3 533.8l32.7 32.8"/>
            <path class="st1" d="M898.5 624l32.8 32.8"/>
            <path class="st1" d="M774.8 386.9l32.7 32.7"/>
            <path class="st1" d="M865 477.1l32.8 32.8"/>
            <path class="st1" d="M955.2 567.3l32.8 32.8"/>
            <path class="st1" d="M216.9 783.1s5.4-91.4 195.3-94.9c36.4-.7 79.5 1.9 130.6 9 138 19 233.7 10.8 310.7-4.6 100.5-20.1 169.1-52.4 258.2-52.1 157.3.6 216.1 60.9 372.7 56.7C1641 693 1703 783.1 1703 783.1"/>
            <circle class="st1" cx="1193.6" cy="435.6" r="86.2"/>
            <circle class="st1" cx="1393" cy="278.7" r="68.3"/>
            <path class="st1" d="M1541.1 509.9c0 31.3-25.4 56.7-56.7 56.7-31.3 0-56.7-25.4-56.7-56.7s25.4-56.7 56.7-56.7c31.4 0 56.7 25.4 56.7 56.7z"/>
            <path class="st1" d="M1703.1 783.1v264.8c0 221.8-181.5 403.2-403.2 403.2H620.2c-221.8 0-403.2-181.4-403.2-403.2V783.1h1486.1z"/>
            <path class="st1" d="M412.3 783.1V471.2s0-130.1 130.6-130.1"/>
            <path class="st1" d="M573.7 460.8c-41.2-41.2-41.2-108 0-149.2 41.2-41.2 108-41.2 149.2 0L573.7 460.8z"/>
            <path class="st1" d="M435.6 1412.8v137.9"/>
            <path class="st1" d="M1484.4 1412.8v137.9"/>
        </g>
    </g>
</svg>
