<svg xmlns="http://www.w3.org/2000/svg" viewBox="0 0 1920 1920">
    <style>
        .st0{fill:#fff}.st1{fill:none;stroke:#231f20;stroke-width:50;stroke-linecap:round;stroke-linejoin:round;stroke-miterlimit:10}
    </style>
    <path class="st0" d="M1173.1 782.5c46.1 49.4-94.7-94.7-157.8-70.6-63.1 24.1-94.7 94.7-70.6 157.8-2.1-2.9-231.2-324.1 98.6-507.6-.9 1.8-90.4 184.5 129.8 420.4z" id="Layer_5"/>
    <path class="st0" d="M1219.8 295c1.7 1.3 163.3 122.1 181.8 400.4-24.1-63.1-94.7-94.7-157.8-70.6-63.1 24.1-94.7 94.7-70.6 157.8-220.3-236-130.8-418.7-129.9-420.6 25-13.9 53.3-27.1 85.2-39.2 32.5-12.4 62.8-21.5 91.3-27.8z" id="Layer_6"/>
    <path class="st0" d="M1219.8 295c368.4-81.7 410.1 313.3 410.1 313.3-24.1-63.1-94.7-94.7-157.8-70.6-63.1 24.1-66.2 225.1-70.6 157.8-18.4-278.4-180-399.3-181.7-400.5z" id="Layer_7"/>
    <g id="STROKES">
        <path class="st1" d="M216.9 1410h1486.2"/>
        <path class="st1" d="M1013.2 1407.8l-57-144.5"/>
        <path class="st1" d="M407.1 1263.3L217.6 782.6"/>
        <g id="XMLID_1_">
            <path class="st1" d="M1543.4 1410l-297.2-778.7"/>
            <path class="st1" d="M1128.5 322.8l-9.9-27.8"/>
            <path class="st1" d="M1173.1 782.5c-24.1-63.1 7.5-133.7 70.6-157.8 63.1-24.1 133.7 7.5 157.8 70.6"/>
            <path class="st1" d="M944.8 869.7s-.1 0 0 0c-24.1-63.1 7.5-133.7 70.6-157.8 63.1-24.1 203.8 120 157.8 70.6-220.3-235.9-130.8-418.6-129.9-420.5"/>
            <path class="st1" d="M1219.8 295c1.7 1.3 163.3 122.1 181.8 400.4 4.5 67.4 7.5-133.7 70.6-157.8 63.1-24.1 133.7 7.5 157.8 70.6-.1 0-41.8-394.9-410.2-313.2-28.4 6.3-58.8 15.5-91.3 27.8-31.8 12.2-60.1 25.3-85.2 39.2-329.8 183.5-100.7 504.7-98.6 507.6"/>
        </g>
        <path class="st1" d="M407.1 1263.3h549.1"/>
        <path class="st1" d="M407.1 1263.3L335 1410"/>
    </g>
</svg>
