<svg xmlns="http://www.w3.org/2000/svg" viewBox="0 0 1920 1920">
    <style>
        .st0{fill:#fff}.st1{fill:none;stroke:#231f20;stroke-width:50;stroke-linecap:round;stroke-linejoin:round;stroke-miterlimit:10}
    </style>
    <circle class="st0" cx="409.5" cy="579.8" r="191.3" id="Layer_2"/>
    <path class="st0" d="M1685.5 1270.5V1703H509.9c128.6-29.4 298.4-98 507.1-245 268.7-189.3 590.6-190.3 668.5-187.5z" id="Layer_3"/>
    <path class="st0" d="M218.6 1703.1v.6c-1.1-.4-1.6-.6-1.6-.6l17.6-590c0 33.4 54.1 60.4 120.9 60.4s120.9-27.1 120.9-60.4c0 33.4 54.1 60.4 120.9 60.4s120.9-27.1 120.9-60.4c0 33.4 54.1 60.4 120.9 60.4S960 1146.4 960 1113c0 33.4 54.1 60.4 120.9 60.4 66.8 0 120.9-27.1 120.9-60.4 0 33.4 54.1 60.4 120.9 60.4s120.9-27.1 120.9-60.4c0 33.4 54.1 60.4 120.9 60.4 66.8 0 120.9-27.1 120.9-60.4v157.5c-77.9-2.8-399.8-1.8-668.5 187.5-208.7 147.1-378.5 215.7-507.1 245H218.6z" id="Layer_4"/>
    <g id="STROKES">
        <path class="st1" d="M476.4 1113c0 33.4-54.1 60.5-120.9 60.5s-120.9-27.1-120.9-60.5"/>
        <path class="st1" d="M718.2 1113c0 33.4-54.1 60.5-120.9 60.5s-120.9-27.1-120.9-60.5"/>
        <path class="st1" d="M960 1113c0 33.4-54.1 60.5-120.9 60.5s-120.9-27.1-120.9-60.5"/>
        <path class="st1" d="M1201.8 1113c0 33.4-54.1 60.5-120.9 60.5S960 1146.4 960 1113"/>
        <path class="st1" d="M1443.6 1113c0 33.4-54.1 60.5-120.9 60.5s-120.9-27.1-120.9-60.5"/>
        <path class="st1" d="M1443.6 1113c0 33.4 54.1 60.5 120.9 60.5 66.8 0 120.9-27.1 120.9-60.5"/>
        <circle class="st1" cx="409.5" cy="579.8" r="191.3"/>
        <path class="st1" d="M216.9 1703.1s278.7 122.4 800.1-245c308-217 686.1-186.6 686.1-186.6"/>
    </g>
</svg>
