<svg xmlns="http://www.w3.org/2000/svg" viewBox="0 0 1920 1920">
    <style>
        .st0{fill:#fff}.st1{fill:none;stroke:#231f20;stroke-width:50;stroke-linecap:round;stroke-linejoin:round;stroke-miterlimit:10}
    </style>
    <circle class="st0" cx="512.5" cy="513.4" r="174.9" id="Layer_8"/>
    <path class="st0" d="M1703.1 1260.3V1569H216.9v-308.7c0 66.8 55.4 120.9 123.8 120.9s123.8-54.1 123.8-120.9c0 66.8 55.5 120.9 123.8 120.9 68.4 0 123.8-54.1 123.8-120.9 0 66.8 55.4 120.9 123.8 120.9S960 1327.1 960 1260.3c0 66.8 55.5 120.9 123.8 120.9 68.4 0 123.8-54.1 123.8-120.9 0 66.8 55.4 120.9 123.8 120.9s123.8-54.1 123.8-120.9c0 66.8 55.5 120.9 123.8 120.9 68.6 0 124.1-54.1 124.1-120.9z" id="Layer_9"/>
    <g id="STROKES">
        <circle class="st1" cx="512.5" cy="513.4" r="174.9"/>
        <path class="st1" d="M1703.1 1569H216.9"/>
        <path class="st1" d="M464.6 1260.3c0 66.8-55.4 120.9-123.8 120.9S217 1327.1 217 1260.3"/>
        <path class="st1" d="M712.3 1260.3c0 66.8-55.4 120.9-123.8 120.9s-123.8-54.1-123.8-120.9"/>
        <path class="st1" d="M960 1260.3c0 66.8-55.4 120.9-123.8 120.9s-123.8-54.1-123.8-120.9"/>
        <path class="st1" d="M1207.7 1260.3c0 66.8-55.4 120.9-123.8 120.9s-123.8-54.1-123.8-120.9"/>
        <path class="st1" d="M1455.4 1260.3c0 66.8-55.4 120.9-123.8 120.9s-123.8-54.1-123.8-120.9"/>
        <path class="st1" d="M1703.1 1260.3c0 66.8-55.4 120.9-123.8 120.9s-123.8-54.1-123.8-120.9"/>
        <path class="st1" d="M512.5 217.9v28.9"/>
        <path class="st1" d="M512.5 780.1v28.8"/>
        <path class="st1" d="M808 513.4h-28.9"/>
        <path class="st1" d="M245.8 513.4h-28.9"/>
        <path class="st1" d="M721.4 304.5L701 324.9"/>
        <path class="st1" d="M323.9 702l-20.4 20.4"/>
        <path class="st1" d="M721.4 722.4L701 702"/>
        <path class="st1" d="M323.9 324.9l-20.4-20.4"/>
    </g>
</svg>
