<svg xmlns="http://www.w3.org/2000/svg" viewBox="0 0 1920 1920">
    <style>
        .st0{fill:#fff}.st1{fill:none;stroke:#231f20;stroke-width:50;stroke-linecap:round;stroke-linejoin:round;stroke-miterlimit:10}
    </style>
    <path class="st0" d="M1703.1 220v724.6S1676.4 1672.5 960 1700c-716.4-27.5-743-755.4-743-755.4V220s170.8 155.6 188 627.3c27.9-63.9 88.4-164.4 204.1-207.7 176.3-66 350.9 49.2 350.9 49.2l-.1.1c.1-.1.2-.1.2-.1s174.7-115.2 350.9-49.2c115.7 43.3 176.2 143.8 204.1 207.7 17.1-471.7 188-627.3 188-627.3zm-389.8 739.8c-112.2 0-352.8-99.1-352.8-99.1h-.4s-240.7 99.1-352.9 99.1c0 0 169.7 99.4 352.9 99.4h.4c183.1 0 352.8-99.4 352.8-99.4z" id="Layer_3"/>
    <g id="STROKES">
        <g id="XMLID_1_">
            <path class="st1" d="M1515.1 847.3c-27.9-63.9-88.4-164.4-204.1-207.7-176.3-66-350.9 49.2-350.9 49.2s-.1.1-.2.1c0-.1.1-.1.1-.1s-174.7-115.3-351-49.3c-115.7 43.3-176.2 143.8-204.1 207.7-17.2-471.7-188-627.3-188-627.3v724.6s26.7 727.9 743 755.4c716.4-27.5 743.1-755.4 743.1-755.4V220c.1 0-170.8 155.6-187.9 627.3z"/>
            <path class="st1" d="M960.5 860.8s240.7 99.1 352.8 99.1c0 0-169.7 99.4-352.8 99.4h-.4c-183.1 0-352.9-99.4-352.9-99.4 112.2 0 352.9-99.1 352.9-99.1"/>
        </g>
    </g>
</svg>
