<svg xmlns="http://www.w3.org/2000/svg" viewBox="0 0 1920 1920">
    <style>
        .st0{fill:#fff}.st1{fill:none;stroke:#231f20;stroke-width:50;stroke-linecap:round;stroke-linejoin:round;stroke-miterlimit:10}
    </style>
    <path class="st0" d="M1502.1 542.3c77.5 67.6 91.7 136.1 91.7 136.1s-34.4 26.9-98.2 48.6c15.9 101.9 37.7 325.6-38.3 498.7l-84.8-66.8s5.7 275.9-186.5 456.7l-84.8-50.9L960 1700l-141.3-135.1-84.8 50.9C541.8 1434.9 547.5 1159 547.5 1159l-84.8 66.8c-76-173.2-54.2-396.8-38.3-498.7-63.8-21.8-98.2-48.6-98.2-48.6s14.2-68.5 91.7-136.1L461.6 220s56.5 124.7 136.1 227.2c10-3 20.4-5.9 31.2-8.7 145.4-36.9 258.4-17.1 331.2 8.6 72.8-25.6 185.8-45.4 331.2-8.6 10.8 2.7 21.1 5.6 31.1 8.7C1402 344.7 1458.5 220 1458.5 220l43.6 322.3zM960 773.8c45.7 0 102.6-26.6 152.4-56.8-67.2-23.6-116.5-54.2-152.4-85.1-35.9 30.9-85.1 61.5-152.4 85.1 49.8 30.2 106.7 56.8 152.4 56.8z" id="Layer_4"/>
    <g id="STROKES">
        <g id="XMLID_1_">
            <path class="st1" d="M1593.8 678.5s-14.2-68.5-91.7-136.1L1458.4 220s-56.5 124.7-136.1 227.2c-10-3-20.4-5.9-31.1-8.7-145.4-36.9-258.4-17.1-331.2 8.6-72.8-25.6-185.8-45.4-331.2-8.6-10.8 2.7-21.1 5.6-31.2 8.7-79.5-102.5-136-227.2-136-227.2l-43.7 322.3c-77.5 67.6-91.7 136.1-91.7 136.1s34.4 26.9 98.2 48.6c-15.9 101.9-37.7 325.6 38.3 498.7l84.8-66.8s-5.6 275.9 186.5 456.7l84.8-50.9L960 1700l141.3-135.1 84.8 50.9c192.1-180.8 186.5-456.7 186.5-456.7l84.8 66.8c76-173.2 54.2-396.8 38.3-498.7 63.7-21.9 98.1-48.7 98.1-48.7z"/>
            <path class="st1" d="M960 773.8c-45.7 0-102.6-26.6-152.4-56.8 67.2-23.6 116.5-54.2 152.4-85.1 35.9 30.9 85.1 61.5 152.4 85.1-49.8 30.2-106.7 56.8-152.4 56.8z"/>
        </g>
    </g>
</svg>
