<svg xmlns="http://www.w3.org/2000/svg" viewBox="0 0 1920 1920">
    <style>
        .st0{fill:#fff}.st1{fill:none;stroke:#231f20;stroke-width:50;stroke-linecap:round;stroke-linejoin:round;stroke-miterlimit:10}
    </style>
    <path class="st0" d="M960 1417h20.3c209.6 0 181.7-198.2 181.7-198.2l-202-61-202 61S730.2 1417 939.7 1417H960zm425 15.1L1243 1533s-45 166.5-291 170c-246-3.5-291-170-291-170l-204-145-28 25-96-264-44 48-68-288 24-76-44-32 136-236s-148-236-48-312 324 52 324 52 13.8-86.6 338.8-88h.5c325 1.4 338.8 88 338.8 88s224-128 324-52-48 312-48 312l136 236-44 32 24 76-68 288-44-48-96 264-28-25-62.1 44.1zm-30.7-687.7c0-25.2-20.4-45.7-45.7-45.7-25.2 0-45.6 20.4-45.6 45.7s20.4 45.6 45.6 45.6c25.3.1 45.7-20.3 45.7-45.6zm-697.4 0c0-25.2-20.4-45.7-45.6-45.7-25.2 0-45.6 20.4-45.6 45.7s20.4 45.6 45.6 45.6c25.2.1 45.6-20.3 45.6-45.6z" id="Layer_5"/>
    <path class="st0" d="M1162 1218.8s27.8 198.2-181.7 198.2h-40.6c-209.5 0-181.7-198.2-181.7-198.2l202-61 202 61z" id="Layer_6"/>
    <path class="st0" d="M611.3 698.8c25.2 0 45.6 20.4 45.6 45.7s-20.4 45.6-45.6 45.6c-25.2 0-45.6-20.4-45.6-45.6s20.4-45.7 45.6-45.7zm651.8 45.6c0 25.2 20.4 45.6 45.6 45.6 25.2 0 45.7-20.4 45.7-45.6s-20.4-45.7-45.7-45.7c-25.2.1-45.6 20.5-45.6 45.7z" id="Layer_2"/>
    <g id="STROKES">
        <g id="XMLID_1_">
            <path class="st1" d="M952.2 217h7.8"/>
            <path class="st1" d="M960 1703.1c-2.7 0-5.3 0-8-.1-246-3.5-291-170-291-170l-204-145-28 25-96-264-44 48-68-288 24-76-44-32 136-236s-148-236-48-312 324 52 324 52 13.8-86.6 338.8-88"/>
            <path class="st1" d="M944 1703.1c2.7 0 5.3 0 8-.1 246-3.5 291-170 291-170l142-100.9 62-44.1 28 25 96-264 44 48 68-288-24-76 44-32-136-236s148-236 48-312-324 52-324 52-13.8-86.6-338.8-88h-8.3"/>
            <path class="st1" d="M960 1157.8l202 61s27.8 198.2-181.7 198.2h-40.6c-209.5 0-181.7-198.2-181.7-198.2l202-61"/>
            <path class="st1" d="M960 1417v161.2"/>
            <path class="st1" d="M533 1439.8l70.8-271.3 196.6-124.9.4-365.8"/>
            <path class="st1" d="M1385 1432.1l-68.8-263.6-196.6-124.9-.4-365.8"/>
            <circle class="st1" cx="611.3" cy="744.4" r="45.6"/>
            <circle class="st1" cx="1308.7" cy="744.4" r="45.6"/>
            <path class="st1" d="M455.7 659.8s178.5-148.5 345 18"/>
            <path class="st1" d="M1464.3 659.8s-178.5-148.5-345 18"/>
        </g>
    </g>
</svg>
