<svg xmlns="http://www.w3.org/2000/svg" viewBox="0 0 1920 1920">
    <style>
        .st0{fill:#fff}.st1{fill:none;stroke:#231f20;stroke-width:50;stroke-linecap:round;stroke-linejoin:round;stroke-miterlimit:10}
    </style>
    <path class="st0" d="M1581.9 891.1c41.8 70.2 51.2 129.5 51.2 129.5s-24.7 3.4-64.5 5.1c-30.1 243.7-94 464.4-222.8 529.6 0 0-18.4 99.3-154.5 92 0 0-109.9 59.5-231.3 52.1-121.4 7.4-231.3-52.1-231.3-52.1-136.1 7.3-154.5-92-154.5-92-128.9-65.2-192.7-285.8-222.9-529.6-39.8-1.7-64.5-5.1-64.5-5.1s9.4-59.3 51.2-129.5c-25.6-336.6.7-671.1.7-671.1l55.2 69.9c9.7 200.2 38.8 349.4 79 460.2 11.2-7.4 23.1-14.5 35.8-21.2 192-102.2 451.2-66.5 451.2-66.5s259.3-35.7 451.2 66.5c12.6 6.7 24.5 13.8 35.8 21.2 40.2-110.8 69.3-260 79-460.2l55.2-69.9c.1 0 26.4 334.5.8 671.1zm-299.8 103.4c-34.3-10.2-68.2-23.4-100.2-40.4-18.3-9.8-35.2-20.3-50.7-31.4-15.5-11.1-29.6-22.8-42.5-34.7-13.3-12.4-25.2-25-36-37.8C1020.9 818 976.9 803 960 803s-60.9 14.9-92.7 47.1c-5.4 6.4-11.1 12.7-17.1 19.1s-12.3 12.6-18.9 18.8c-25.8 23.9-56.5 46.6-93.2 66.1-32 17-65.9 30.3-100.2 40.4 153.7 113 322.1 32.1 322.1 32.1s168.4 81 322.1-32.1z" id="Layer_2"/>
    <g id="STROKES">
        <g id="XMLID_1_">
            <path class="st1" d="M1633.1 1020.6s-9.4-59.3-51.2-129.5c25.6-336.6-.7-671.1-.7-671.1l-55.2 69.9c-9.7 200.2-38.8 349.4-79 460.2-11.2-7.4-23.2-14.5-35.8-21.2-192-102.2-451.2-66.5-451.2-66.5s-259.3-35.7-451.2 66.5c-12.6 6.7-24.5 13.8-35.8 21.2-40.2-110.8-69.3-260-79-460.2L338.8 220s-26.3 334.5-.7 671.1c-41.9 70.2-51.2 129.5-51.2 129.5s24.7 3.4 64.5 5.1c30.1 243.7 94 464.4 222.9 529.6 0 0 18.4 99.3 154.5 92 0 0 109.9 59.5 231.3 52.1 121.4 7.4 231.3-52.1 231.3-52.1 136.1 7.3 154.5-92 154.5-92 128.8-65.2 192.7-285.8 222.8-529.6 39.7-1.7 64.4-5.1 64.4-5.1z"/>
            <path class="st1" d="M960 1026.7s-168.4 80.9-322.1-32.1c34.3-10.2 68.2-23.4 100.2-40.4 36.7-19.5 67.4-42.2 93.2-66.1 6.6-6.2 12.9-12.4 18.9-18.8s11.7-12.7 17.1-19.1C899.1 818 943.1 803 960 803s60.9 14.9 92.7 47.1c10.8 12.8 22.7 25.5 36 37.8 12.9 12 27 23.6 42.5 34.7 15.5 11.1 32.3 21.7 50.7 31.4 32 17 65.9 30.3 100.2 40.4-153.7 113.2-322.1 32.3-322.1 32.3z"/>
        </g>
    </g>
</svg>
