<svg xmlns="http://www.w3.org/2000/svg" viewBox="0 0 1920 1920">
    <style>
        .st0{fill:#fff}.st1{fill:none;stroke:#231f20;stroke-width:50;stroke-linecap:round;stroke-linejoin:round;stroke-miterlimit:10}
    </style>
    <path class="st0" d="M1186.8 636l-122.4 98.7s321 16.5 313.7 206.5l-50.5-7.5-26.7 49-99.5-102.4s-104.2 20.8-179.1 33.5l1.8 261.3c23.8 146.2 71 367.2 71 367.2s137.6-47.9 141.6 127.6l-188.8 9.4c-109.6-9.1-195.5-321.6-195.5-321.6l-132.1 186.5s141.6 60.4 133.6 158.8l-213.4-7.3c-162.6-21.9-75.5-328.9-75.5-328.9-9.7-93.2 7.9-347.2 15.2-370.9 7.3-23.8 20.1-42-11-286.9S688 310.8 688 310.8s-16.4-40.2 23.8-62.1 56.6 31.1 56.6 31.1l26.3-12.8s8.4-56.6 39.5-49.3c31.1 7.3 32.9 56.6 32.9 56.6s52.5-15.7 72.6 31.8c20.1 47.5 134.1 84 154.2 74.8s-25.3 82.4-30.8 86c-25.6 20.1-146.6 17.5-143 88.7s73.8 51.4 116.9 40.2c38-9.9 139.2-82.8 216.4-153.5l27.2 43 58 13.7-151.8 137z" id="Layer_4"/>
    <path class="st1" d="M1186.8 636l-122.4 98.7s321 16.5 313.7 206.5l-50.5-7.5-26.7 49-99.5-102.4s-104.2 20.8-179.1 33.5l1.8 261.3c23.8 146.2 71 367.2 71 367.2s137.6-47.9 141.6 127.6l-188.8 9.4c-109.6-9.1-195.5-321.6-195.5-321.6l-132.1 186.5s141.6 60.4 133.6 158.8l-213.4-7.3c-162.6-21.9-75.5-328.9-75.5-328.9-9.7-93.2 7.9-347.2 15.2-370.9 7.3-23.8 20.1-42-11-286.9S688 310.8 688 310.8s-16.4-40.2 23.8-62.1 56.6 31.1 56.6 31.1l26.3-12.8s8.4-56.6 39.5-49.3c31.1 7.3 32.9 56.6 32.9 56.6s52.5-15.7 72.6 31.8c20.1 47.5 134.1 84 154.2 74.8s-25.3 82.4-30.8 86c-25.6 20.1-146.6 17.5-143 88.7s73.8 51.4 116.9 40.2c38-9.9 139.2-82.8 216.4-153.5l27.2 43 58 13.7-151.8 137z" id="STROKES"/>
</svg>
