<svg xmlns="http://www.w3.org/2000/svg" viewBox="0 0 1920 1920">
    <style>
        .st0{fill:#fff}.st1{fill:none;stroke:#231f20;stroke-width:50;stroke-linecap:round;stroke-linejoin:round;stroke-miterlimit:10}
    </style>
    <path class="st0" d="M216.9 769l51.9 87.2 220 10.8s95.5 66.1 193 60.9c97.6-5.2 112.1 370.5 112.1 370.5s-78.9 40.2-78.9 87.5h269.8s51.9-269.8 95.5-308.4c0 0 60.2 81.8 114.2 52.7 0 0 41.5 130.8 91.3 147.4 0 0-85.1 35.3-85.1 72.6h218.1v-87.8s109.8 58.8 157.5 62.9c0 0-62.3 25.9-62.3 62.8h149.4l39.4-125.7s-112.1-109.4-85.1-200.7 85.1-116.2 64.3-217.9-105.9-313.4-288.5-301c-182.6 12.5-880 49.8-880 49.8s-33.2-54-43.6-60.2-37.4 83-37.4 83-95.5 41.5-112.1 89.2L216.9 769z" id="Layer_3"/>
    <path class="st1" d="M216.9 769l51.9 87.2 220 10.8s95.5 66.1 193 60.9c97.6-5.2 112.1 370.5 112.1 370.5s-78.9 40.2-78.9 87.5h269.8s51.9-269.8 95.5-308.4c0 0 60.2 81.8 114.2 52.7 0 0 41.5 130.8 91.3 147.4 0 0-85.1 35.3-85.1 72.6h218.1v-87.8s109.8 58.8 157.5 62.9c0 0-62.3 25.9-62.3 62.8h149.4l39.4-125.7s-112.1-109.4-85.1-200.7 85.1-116.2 64.3-217.9-105.9-313.4-288.5-301c-182.6 12.5-880 49.8-880 49.8s-33.2-54-43.6-60.2-37.4 83-37.4 83-95.5 41.5-112.1 89.2L216.9 769z" id="STROKES"/>
</svg>
