<svg xmlns="http://www.w3.org/2000/svg" viewBox="0 0 1920 1920">
    <style>
        .st0{fill:#fff}.st1{fill:none;stroke:#231f20;stroke-width:50;stroke-linecap:round;stroke-linejoin:round;stroke-miterlimit:10}
    </style>
    <path class="st0" d="M549.1 745.9H1594v442.6H549.1z" id="Layer_3"/>
    <path class="st0" d="M1703.1 745.9v674.4H1594V745.9z" id="Layer_4"/>
    <path class="st0" d="M326 745.9h223.1v442.6H326z" id="Layer_5"/>
    <path class="st0" d="M549.1 745.9H326V577.8s223.1-32.4 223.1 168.1z" id="Layer_6"/>
    <path class="st0" d="M326 1205.2v215.1H216.9v-999H326v767.2z" id="Layer_7"/>
    <path class="st0" d="M1594 1188.5v16.7c0 43.8-35.5 79.2-79.2 79.2s-79.2-35.5-79.2-79.2c0 43.8-35.5 79.2-79.2 79.2s-79.2-35.5-79.2-79.2c0 43.8-35.5 79.2-79.2 79.2s-79.3-35.5-79.3-79.2c0 43.8-35.5 79.2-79.2 79.2S960 1249 960 1205.2c0 43.8-35.5 79.2-79.2 79.2s-79.2-35.5-79.2-79.2c0 43.8-35.5 79.2-79.3 79.2S643 1249 643 1205.2c0 43.8-35.5 79.2-79.2 79.2s-79.2-35.5-79.2-79.2c0 43.8-35.5 79.2-79.2 79.2S326 1249 326 1205.2v-16.7h1268z" id="Layer_2"/>
    <g id="STROKES">
        <path class="st1" d="M326 577.8V421.3H216.9v999H326V745.9z"/>
        <path class="st1" d="M1594 1205.2v215.1h109.1V745.9H1594v442.6z"/>
        <path class="st1" d="M326 577.8s223.1-32.4 223.1 168.1H326"/>
        <path class="st1" d="M1594 745.9H549.1v442.6"/>
        <path class="st1" d="M1594 1205.2c0 43.8-35.5 79.2-79.2 79.2s-79.2-35.5-79.2-79.2c0 43.8-35.5 79.2-79.2 79.2s-79.2-35.5-79.2-79.2c0 43.8-35.5 79.2-79.2 79.2s-79.3-35.5-79.3-79.2c0 43.8-35.5 79.2-79.2 79.2S960 1249 960 1205.2c0 43.8-35.5 79.2-79.2 79.2s-79.2-35.5-79.2-79.2c0 43.8-35.5 79.2-79.3 79.2S643 1249 643 1205.2"/>
        <path class="st1" d="M643 1205.2c0 43.8-35.5 79.2-79.2 79.2s-79.2-35.5-79.2-79.2c0 43.8-35.5 79.2-79.2 79.2S326 1249 326 1205.2"/>
        <path class="st1" d="M326 1188.5h1268"/>
    </g>
</svg>
