<svg xmlns="http://www.w3.org/2000/svg" viewBox="0 0 1920 1920">
    <style>
        .st0{fill:#fff}.st1{fill:none;stroke:#231f20;stroke-width:50;stroke-linecap:round;stroke-linejoin:round;stroke-miterlimit:10}
    </style>
    <path class="st0" d="M471.6 677.2c72.4 0 131 58.7 131 131 0 72.4-58.7 131-131 131s-131-58.7-131-131c-.1-72.3 58.6-131 131-131z" id="Layer_11"/>
    <path class="st0" d="M1703.1 1043.4h-966v-404h600.6c192 0 365.4-28.5 365.4 404z" id="Layer_12"/>
    <path class="st0" d="M1703.1 1043.4V1337s-247.7-80.5-730.7-80.5c-483 0-755.4 80.5-755.4 80.5v-293.6h1486.1z" id="Layer_13"/>
    <g id="STROKES">
        <path class="st1" d="M216.9 516.6v930.7"/>
        <path class="st1" d="M216.9 1043.4h1486.2v403.9"/>
        <path class="st1" d="M216.9 1336.9s272.5-80.5 755.4-80.5c483 0 730.7 80.5 730.7 80.5"/>
        <path class="st1" d="M602.6 808.3c0 72.4-58.7 131-131 131s-131-58.7-131-131c0-72.4 58.7-131 131-131s131 58.6 131 131z"/>
        <path class="st1" d="M737.1 1043.4v-404h600.6c192 0 365.3-28.5 365.3 403.9"/>
    </g>
</svg>
