<svg xmlns="http://www.w3.org/2000/svg" viewBox="0 0 1920 1920">
    <style>
        .st0{fill:#fff}.st1{fill:none;stroke:#231f20;stroke-width:50;stroke-linecap:round;stroke-linejoin:round;stroke-miterlimit:10}
    </style>
    <path class="st0" d="M540.3 1051.6H216.9V671.8s191.4-61.3 279.7 130.6c26.5 57.5 43.7 137.8 43.7 249.2z" id="Layer_8"/>
    <path class="st0" d="M1703.1 802.4v249.7H540.3v-.5c0-111.4-17.2-191.7-43.6-249.2h1206.4z" id="Layer_9"/>
    <path class="st0" d="M1703.1 1052.1v272.8H216.9v-273.3h323.4v.5z" id="Layer_10"/>
    <g id="STROKES">
        <g id="XMLID_2_">
            <path class="st1" d="M216.9 523.1v873.8"/>
            <path class="st1" d="M216.9 671.8s191.4-61.3 279.7 130.6c26.5 57.5 43.6 137.7 43.6 249.2H216.9"/>
            <path class="st1" d="M496.6 802.4h1206.5v249.7H540.3"/>
            <path class="st1" d="M216.9 1324.9h1486.2v-272.8"/>
            <path class="st1" d="M1703.1 1396.9v-72"/>
        </g>
    </g>
</svg>
