<svg xmlns="http://www.w3.org/2000/svg" viewBox="0 0 1920 1920">
    <style>
        .st0{fill:#fff}.st1{fill:none;stroke:#231f20;stroke-width:50;stroke-linecap:round;stroke-linejoin:round;stroke-miterlimit:10}
    </style>
    <path class="st0" d="M922.6 699.3c1.3 2.1 188.8 288.6 374.3 239.2 0 51.4-14.7 99.3-40.1 139.8-274.3 12.3-456.3-263.5-456.3-263.5 27-50.5 69.9-91.3 122.1-115.5z" id="Layer_16"/>
    <path class="st0" d="M800.5 1528.4l-96.2 113.7-58.8-224.8c35.1 76.5 91.8 108.8 155 111.1z" id="Layer_23"/>
    <path class="st0" d="M619.7 1335.3c1.3 2 111.3 164.3 378.9 121-62.1 45.5-133.5 74.5-198.1 72.1-63.2-2.3-120-34.7-155-111.1-7.6-16.5-14.2-35.2-19.6-56-2.2-8.9-4.3-17.5-6.2-26z" id="Layer_24"/>
    <path class="st0" d="M639.5 1078.4c.4 2 62.5 283.1 475.6 254.8-29.2 46.1-70.2 89.1-116.5 123-267.6 43.3-377.6-119-378.9-121-27.4-122.4-12.9-203.4 19.8-256.8z" id="Layer_25"/>
    <path class="st0" d="M773.9 985.3s59.2 200.2 384.4 185.4c8.6 51.8-9.3 109.2-43.1 162.5-413 28.3-475.2-252.8-475.6-254.8 9-14.7 19.4-27.4 30.7-38.2 31.2-30 69.3-46.2 103.6-54.9z" id="Layer_26"/>
    <path class="st0" d="M800.5 814.9s182 275.8 456.3 263.5c-24.2 38.7-58.2 70.6-98.5 92.3-325.3 14.8-384.4-185.4-384.4-185.4-2.7-15.2-4.1-30.8-4.1-46.7 0-44.7 11.1-86.8 30.7-123.7z" id="Layer_27"/>
    <path class="st0" d="M1150.4 702.4s22.9 126.4 137.3 167c6 22 9.2 45.2 9.2 69.2-185.5 49.3-372.9-237.2-374.3-239.3 33.7-15.6 71.2-24.3 110.7-24.3 42.1 0 81.8 9.9 117.1 27.4z" id="Layer_17"/>
    <path class="st0" d="M1265 611.1c28.2-23.8 75.8-13.7 106.2 22.6 30.4 36.2 32.3 84.8 4 108.5-28.2 23.7-75.8 13.6-106.2-22.6-30.4-36.1-32.2-84.7-4-108.5z" id="Layer_18"/>
    <path class="st0" d="M1203.3 542.8c71.1-54.1 181.7-28.2 247.1 57.8s60.8 199.5-10.3 253.6c-42.7 32.5-99.6 36.1-152.4 15.3-114.4-40.6-137.3-167-137.3-167-11.9-62.5 6.1-124 52.9-159.7zm61.7 68.3c-28.2 23.7-26.4 72.3 4 108.5s78 46.3 106.2 22.6c28.2-23.8 26.4-72.3-4-108.5s-77.9-46.3-106.2-22.6z" id="Layer_19"/>
    <path class="st0" d="M595 313.8l327.6 385.6c-52.2 24.2-95.1 65-122.1 115.5-19.6 36.9-30.8 79-30.8 123.7-310.7-107.1-426.4-315.9-358-557.1 4-14.2 8.7-28.5 14-42.9 25.6-69.8 120.9-81.3 169.3-24.8zm75.2 726.4c31.3-30 69.3-46.2 103.6-54.9-2.7-15.2-4.1-30.8-4.1-46.7-310.7-107.1-426.4-315.9-358-557.1l-7-7.4c-60.1-51.7-158.6-24.3-174.4 53.4-58.7 288.4 74.9 546.1 439.9 612.7z" id="Layer_20"/>
    <g id="STROKES">
        <g id="XMLID_2_">
            <path class="st1" d="M411.7 381.5l-7-7.4c-60.1-51.7-158.6-24.3-174.4 53.4-58.7 288.4 75 546.2 440 612.7"/>
            <path class="st1" d="M922.6 699.3L595 313.8c-48.4-56.5-143.7-45-169.3 24.8-5.3 14.4-10 28.7-14 42.9-68.4 241.2 47.3 450 358.1 557.1"/>
            <path class="st1" d="M619.7 1335.3c1.9 8.5 4 17.2 6.3 26.1 5.4 20.8 12 39.5 19.6 56 35 76.4 91.8 108.8 155 111.1 64.6 2.4 136-26.7 198.1-72.1 46.3-33.9 87.3-77 116.5-123 33.8-53.4 51.7-110.8 43.1-162.5 40.3-21.7 74.3-53.7 98.5-92.3 25.4-40.5 40.1-88.5 40.1-139.8 0-23.9-3.2-47.1-9.2-69.2 52.8 20.9 109.8 17.2 152.4-15.3 71.1-54.1 75.7-167.6 10.3-253.6s-176-111.8-247.1-57.8c-46.9 35.7-64.9 97.2-52.9 159.6-35.3-17.5-75-27.4-117.1-27.4-39.5 0-77 8.7-110.7 24.3"/>
            <path class="st1" d="M639.5 1078.4c-32.7 53.4-47.2 134.4-19.8 256.8"/>
            <path class="st1" d="M922.6 699.3c-52.2 24.2-95.1 65-122.1 115.5-19.6 36.9-30.8 79-30.8 123.7 0 15.9 1.4 31.6 4.1 46.7-34.3 8.7-72.4 24.9-103.6 54.9-11.3 10.8-21.7 23.5-30.7 38.2"/>
            <path class="st1" d="M773.9 985.3s59.2 200.2 384.4 185.4"/>
            <path class="st1" d="M639.5 1078.4c.4 2 62.5 283.2 475.6 254.9"/>
            <path class="st1" d="M645.5 1417.3l58.9 224.8 96.1-113.7"/>
            <path class="st1" d="M1450.5 600.6S1547.8 399 1703.1 399"/>
            <path class="st1" d="M619.7 1335.3c1.3 2 111.3 164.4 378.9 121"/>
            <path class="st1" d="M1378.5 538.2s70.9-218.4 188.4-220.4"/>
            <path class="st1" d="M1371.3 633.7c30.4 36.2 32.3 84.8 4 108.5-28.2 23.7-75.8 13.6-106.2-22.6-30.5-36.2-32.2-84.8-4-108.5 28.2-23.7 75.7-13.6 106.2 22.6z"/>
            <path class="st1" d="M1150.4 702.4s22.9 126.4 137.3 167"/>
            <path class="st1" d="M800.5 814.9s182 275.8 456.3 263.5"/>
            <path class="st1" d="M922.6 699.3c1.4 2.1 188.8 288.6 374.3 239.2"/>
        </g>
    </g>
</svg>
