<svg xmlns="http://www.w3.org/2000/svg" viewBox="0 0 1920 1920">
    <style>
        .st0{fill:#fff}.st1{fill:none;stroke:#231f20;stroke-width:50;stroke-linecap:round;stroke-linejoin:round;stroke-miterlimit:10}
    </style>
    <path class="st0" d="M985.3 568.1c43.4-61.5 121.4-37.6 207.9 23.9 166.4 118.3 364 375.7 405.9 431.5 2.7 3.5 5.4 7.1 8.1 10.8 80.8 114.6 80.8 300.3 0 414.9-80.9 114.6-212 114.6-292.8 0-2.6-3.7-5.2-7.5-7.6-11.4-8.5-12.9-23.8-36.1-43.3-67.1-26.8-42.5-61.5-99.4-97.9-163.9-31.6-55.9-64.4-117.4-94.2-180-62-129.6-111.4-263.8-111.4-362 0-38.6 7.7-71.7 25.3-96.7zm-664.4 455.4c-2.7 3.5-5.4 7.1-8.1 10.8-80.8 114.6-80.8 300.3 0 414.9 80.9 114.6 212 114.6 292.8 0 2.6-3.7 5.2-7.5 7.6-11.4 8.5-12.9 23.8-36.1 43.3-67.1 26.8-42.5 61.5-99.4 97.9-163.9 31.6-55.9 64.4-117.4 94.2-180C910.6 897.2 960 763 960 664.8c0-38.7-7.7-71.8-25.3-96.8-43.4-61.5-121.4-37.6-207.9 23.9-166.4 118.4-364 375.8-405.9 431.6z" id="Layer_3"/>
    <path class="st0" d="M960 664.8c0-38.7-7.7-71.8-25.3-96.8-43.4-61.5-121.4-37.6-207.9 23.9v-20.4c0-128.8 104.4-233.2 233.2-233.2s233.2 104.4 233.2 233.2V592c-86.5-61.5-164.5-85.4-207.9-23.9-17.6 25-25.3 58.1-25.3 96.7z" id="Layer_4"/>
    <path class="st0" d="M960 664.8c0 98.1 49.4 232.3 111.3 362H848.7C910.6 897.2 960 763 960 664.8z" id="Layer_5"/>
    <path class="st0" d="M1165.6 1206.8H754.4c31.6-55.9 64.4-117.4 94.2-180h222.7c29.9 62.6 62.7 124.1 94.3 180z" id="Layer_6"/>
    <path class="st0" d="M1263.4 1370.7v16.1H656.5v-16.1c26.8-42.5 61.5-99.4 97.9-163.9h411.2c36.4 64.5 71.1 121.4 97.8 163.9z" id="Layer_7"/>
    <path class="st0" d="M656.5 1386.8h606.9c0 67.8-19.4 129.5-52.6 180H709.2c-33.2-50.5-52.7-112.2-52.7-180z" id="Layer_2"/>
    <path class="st0" d="M709.2 1566.8h501.6C1156 1650.1 1063.9 1703 960 1703c-83.5 0-159.3-34.1-214.3-90.7-13.5-13.9-25.7-29.1-36.5-45.5z" id="Layer_8"/>
    <g id="STROKES">
        <g id="XMLID_2_">
            <path class="st1" d="M1263.4 1386.8c0 67.8-19.4 129.5-52.6 180C1156 1650.1 1063.9 1703 960 1703c-83.5 0-159.3-34.1-214.3-90.7-13.5-13.9-25.7-29.1-36.5-45.5-33.2-50.5-52.7-112.2-52.7-180h606.9z"/>
            <path class="st1" d="M754.4 1206.8h411.2"/>
            <path class="st1" d="M848.7 1026.8h222.6"/>
            <path class="st1" d="M726.8 592c-166.4 118.3-364 375.7-405.9 431.5-2.7 3.5-5.4 7.1-8.1 10.8-80.8 114.6-80.8 300.3 0 414.9 80.9 114.6 212 114.6 292.8 0 2.6-3.7 5.2-7.5 7.6-11.4 8.5-12.9 23.8-36.1 43.3-67.1 26.8-42.5 61.5-99.4 97.9-163.9 31.6-55.9 64.4-117.4 94.2-180C910.6 897.2 960 763 960 664.8c0-38.7-7.7-71.8-25.3-96.8-43.4-61.4-121.5-37.5-207.9 24z"/>
            <path class="st1" d="M1263.5 1370.7c19.5 30.9 34.7 54.2 43.3 67.1 2.5 3.9 5 7.7 7.6 11.4 80.8 114.6 212 114.6 292.8 0 80.8-114.6 80.8-300.3 0-414.9-2.6-3.7-5.3-7.3-8.1-10.8-41.9-55.8-239.5-313.2-405.9-431.5-86.5-61.5-164.5-85.4-207.9-23.9-17.6 25-25.3 58.1-25.3 96.8 0 98.1 49.4 232.3 111.3 362 29.9 62.6 62.7 124.1 94.2 180 36.5 64.4 71.2 121.3 98 163.8z"/>
            <path class="st1" d="M726.8 592v-20.4c0-128.8 104.4-233.2 233.2-233.2s233.2 104.4 233.2 233.2V592"/>
            <path class="st1" d="M850.3 338.3s3.1-121.4-94.8-121.4"/>
            <path class="st1" d="M1069.7 338.3s-3.1-121.4 94.8-121.4"/>
            <path class="st1" d="M709.2 1566.8h501.6"/>
            <path class="st1" d="M656.5 1386.8v-16.1"/>
            <path class="st1" d="M1263.4 1386.8v-16.1"/>
        </g>
    </g>
</svg>
