<svg xmlns="http://www.w3.org/2000/svg" viewBox="0 0 1920 1920">
    <style>
        .st0{fill:#fff}.st1{fill:none;stroke:#231f20;stroke-width:50;stroke-linecap:round;stroke-linejoin:round;stroke-miterlimit:10}
    </style>
    <path class="st0" d="M633.2 1119.1v26.8c-2.5 91.1-32.1 375.1-312.5 231-331.6-170.5 312.5-834.5 312.5-834.5v576.7zm653.7 0s-.2 4.5-.2 12.5c0 69.4 15.3 398.2 312.8 245.3 331.6-170.5-312.6-834.5-312.6-834.5v576.7z" id="Layer_9"/>
    <path class="st0" d="M664.8 1414h590.4c-49.9 100.5-153.8 170.1-273.2 170.1h-44.1c-119.3 0-223.2-69.5-273.1-170.1z" id="Layer_11"/>
    <path class="st0" d="M1286.7 1187.6v91.8c0 48.2-11.4 94-31.6 134.6H664.8c-20.2-40.7-31.6-86.4-31.6-134.6v-91.8h653.5z" id="Layer_12"/>
    <path class="st0" d="M1286.7 1128.6v59H633.2V1143c.5-16.6 0-26.8 0-26.8V937.5h653.5v191.1z" id="Layer_13"/>
    <path class="st0" d="M633.3 687.4h653.5v250.1H633.3z" id="Layer_14"/>
    <path class="st0" d="M773.8 339.2c47.4-30.5 103.8-48.3 164.1-48.3H982c60.3 0 116.7 17.8 164.1 48.3 84.4 54.3 140.6 149.1 140.6 256.4v91.8H633.2v-91.8c0-107.3 56.2-202.1 140.6-256.4z" id="Layer_15"/>
    <g id="STROKES">
        <g id="XMLID_2_">
            <path class="st1" d="M633.2 595.6c0-107.3 56.2-202.1 140.6-256.4 47.4-30.5 103.8-48.3 164.1-48.3H982c60.3 0 116.7 17.8 164.1 48.3 84.4 54.3 140.6 149.1 140.6 256.4v683.8c0 48.2-11.4 94-31.6 134.6-49.9 100.5-153.8 170.1-273.2 170.1h-44.1c-119.3 0-223.2-69.5-273.1-170.1-20.2-40.7-31.6-86.4-31.6-134.6v-163.2"/>
            <path class="st1" d="M633.2 539.4s-644.1 664-312.5 834.5c280.4 144.2 310.1-139.8 312.5-231 .5-16.6 0-26.8 0-26.8V539.4"/>
            <path class="st1" d="M1286.9 539.4s644.1 664 312.6 834.5c-297.4 152.9-312.8-175.9-312.8-245.3 0-8 .2-12.5.2-12.5V539.4"/>
            <path class="st1" d="M960 1585.2v117.9"/>
            <path class="st1" d="M633.2 687.4h653.5"/>
            <path class="st1" d="M633.2 1187.6h653.5"/>
            <path class="st1" d="M633.2 937.5h653.5"/>
            <path class="st1" d="M774.2 339.6l-.4-.4-122.2-122.3"/>
            <path class="st1" d="M1145.7 339.6l.4-.4 122.2-122.3"/>
            <path class="st1" d="M664.8 1414h590.4"/>
        </g>
    </g>
</svg>
