<svg xmlns="http://www.w3.org/2000/svg" viewBox="0 0 1920 1920">
    <style>
        .st0{fill:#fff}.st1{fill:none;stroke:#231f20;stroke-width:50;stroke-linecap:round;stroke-linejoin:round;stroke-miterlimit:10}
    </style>
    <path class="st0" d="M646.7 499.1c-2.9 1.9-6 3.7-9.1 5.3-.6.3-1.3.7-1.9 1-.4.2-.9.4-1.3.6-.8.4-1.6.8-2.3 1.1-.6.3-1.3.6-1.9.9-.2.1-.5.2-.7.3-.7.3-1.5.6-2.2.9-1.5.6-3 1.2-4.6 1.8-.6.2-1.1.4-1.7.6-.6.2-1.2.4-1.7.6-1.2.4-2.3.8-3.5 1.1-2.7.8-5.4 1.5-8.2 2.1-.5.1-1.1.2-1.7.4-.3.1-.6.1-.9.2-.7.1-1.4.3-2.2.4-.9.2-1.7.3-2.6.5-1.5.2-3 .5-4.5.6-.6.1-1.2.2-1.9.2-3.7.4-7.3.6-11.1.7h-2.3c-2 0-4 0-6-.1h-.1c-1.4-.1-2.7-.1-4-.3-.9-.1-1.8-.2-2.7-.2h-.4c-.6-.1-1.3-.1-1.9-.2-2.8-.3-5.6-.8-8.4-1.3-.1 0-.3-.1-.4-.1h-.2c-.5-.1-1-.2-1.4-.3-.4-.1-.8-.2-1.2-.2-.3-.1-.6-.1-.9-.2-1.8-.4-3.6-.9-5.4-1.4 0 0-.1 0-.2-.1-1.1-.3-2.3-.6-3.4-1-.2 0-.3-.1-.5-.2l-1.8-.6c-.1 0-.2-.1-.3-.1h-.1c-.7-.2-1.4-.5-2.1-.7-.1 0-.2 0-.2-.1l-.9-.3c-.4-.1-.7-.3-1.1-.4-.2-.1-.5-.2-.7-.3-.4-.2-.7-.3-1.1-.4-.2-.1-.3-.1-.5-.2-.4-.1-.7-.3-1.1-.4-.7-.3-1.3-.5-2-.8-.2-.1-.5-.2-.7-.3-.3-.1-.7-.3-1-.5-.3-.1-.5-.2-.8-.4-.4-.2-.8-.4-1.2-.5h-.1c-.8-.4-1.6-.8-2.3-1.2-.6-.3-1.2-.6-1.9-.9-.3-.1-.5-.3-.8-.4-.7-.4-1.5-.8-2.2-1.2-2.1-1.2-4.2-2.4-6.3-3.8v758.6c0 .1.1.3.1.4v.3c.1.3.1.6.2 1 0 .2.1.4.1.6 0 .1.1.3.1.4v.7c0 .2.1.3.1.5.1.4.2.8.2 1.3 0 .2.1.4.1.6 0 .1 0 .2.1.3.1.4.2.8.2 1.3.1.7.3 1.5.5 2.4l.1.8c.1.2.1.5.2.8 0 .2.1.3.1.5.1.3.1.5.2.8 0 .1 0 .2.1.3 0 .3.1.6.2.9.2.9.3 1.8.5 2.7.1.3.1.6.2.9.2 1.2.5 2.4.7 3.6.3 1.5.6 3 1 4.6.1.3.1.5.2.8l.3 1.5c.1.4.2.8.2 1.2.1.4.2.8.2 1.2.5 2.3 1 4.6 1.5 7.1 0 .1 0 .2.1.4.2.7.3 1.5.5 2.2.1.4.2.9.3 1.3.1.4.2.9.3 1.4.1.4.2.9.3 1.3.1.5.2.9.3 1.4.1.5.2.9.3 1.4.2.9.4 1.9.6 2.8.2 1.1.5 2.2.8 3.3.2.8.4 1.7.6 2.5.2 1 .5 2 .7 3 .7 3.1 1.5 6.3 2.3 9.5.2 1 .5 2.1.8 3.1l.6 2.4c.3 1.3.6 2.7 1 4 0 .2.1.4.1.5.5 1.9 1 3.8 1.4 5.7l1.8 6.9c.8 3.3 1.7 6.6 2.6 9.9 0 .1 0 .1.1.2.9 3.3 1.8 6.6 2.8 10 .1.5.3 1 .4 1.5.2.8.4 1.5.6 2.2.3 1.2.7 2.3 1 3.4l1.5 5.1c.2.6.4 1.2.5 1.8.7 2.2 1.4 4.5 2 6.7 0 .1 0 .1.1.2 0 .1 0 .2.1.2l2.1 6.6v.1c.7 2.3 1.5 4.6 2.2 6.8v.1c.4 1.1.8 2.3 1.1 3.4.8 2.3 1.5 4.5 2.3 6.8.4 1.1.8 2.2 1.2 3.4.2.6.5 1.3.7 1.9.2.6.5 1.3.7 1.9 2.1 5.7 4.2 11.3 6.4 16.7.1.2.1.3.2.5.4 1.1.9 2.1 1.3 3.1.1.3.3.6.4 1 .1.3.2.5.3.8.3.8.7 1.5 1 2.3.2.4.3.8.5 1.2l.3.6c.3.7.6 1.3.8 1.9.3.7.6 1.4 1 2.1.1.1.1.3.2.4.1.1.1.3.2.4.2.4.4.8.6 1.3.2.6.5 1.1.8 1.7l1.5 3.3.6 1.2c.4.9.8 1.7 1.3 2.6.2.3.3.6.5 1 .5 1 1 2.1 1.6 3.1 0 .1.1.1.1.2.5 1 1 1.9 1.5 2.8.1.2.2.3.3.5.3.5.5.9.8 1.4.2.3.3.6.5.9.3.6.7 1.2 1 1.8.2.3.3.5.5.8.7 1.2 1.4 2.3 2.1 3.4.2.3.4.7.6 1 .1.2.3.4.4.7s.3.4.4.7c.6.9 1.1 1.7 1.7 2.5s1.1 1.6 1.7 2.4c2.3 3.2 4.6 6.1 6.9 8.6.6.6 1.2 1.3 1.8 1.9l.9.9.4.4c.1.1.2.1.2.2l.1.1.5.5c.2.2.4.3.5.5.2.2.4.4.7.6l.2.2s0 .1.1.1c.1.1.1.1.2.1.1.1.3.2.4.3l.1.1c.6.5 1.1.9 1.7 1.3.2.1.3.2.5.4.1 0 .1.1.2.1l.1.1.1.1.1.1s.1.1.2.1c.5.4 1 .7 1.6 1.1.1.1.1.1.2.1l.9.6c.3.2.6.3.9.5.9.5 1.9 1 2.9 1.5 2 1 4.3 2 6.6 2.9.4.2.9.4 1.4.5.1.1.3.1.5.2h.1l.9.3.9.3s.1 0 .1.1h.1c.5.2 1.1.4 1.6.6 1.3.4 2.6.9 4 1.3s2.8.9 4.2 1.3c1.4.4 2.9.9 4.4 1.3.8.2 1.5.4 2.3.6h.1c.3.1.7.2 1 .3.5.1 1 .3 1.5.4.4.1.9.2 1.3.3.2.1.5.1.7.2l2.4.6c1.6.4 3.3.8 5 1.2l2.4.6c1.7.4 3.4.8 5.1 1.1 1.7.4 3.5.7 5.3 1.1.9.2 1.8.3 2.7.5 1.8.3 3.6.7 5.5 1 .9.2 1.9.4 2.8.5.8.2 1.7.3 2.5.4 1 .2 2 .4 3 .5 78.1 13.6 182 18.2 182 18.2s103.7-4.7 181.7-18.2c1.9-.3 3.8-.7 5.6-1 .9-.2 1.9-.3 2.8-.5 1.8-.3 3.7-.7 5.5-1 1.8-.4 3.6-.7 5.4-1.1 1.8-.4 3.5-.7 5.2-1.1 1.7-.4 3.4-.8 5.1-1.1.8-.2 1.7-.4 2.5-.6.3-.1.5-.1.8-.2.6-.1 1.1-.3 1.7-.4l2.4-.6c.8-.2 1.5-.4 2.2-.6.4-.1.9-.2 1.3-.3.6-.2 1.2-.3 1.8-.5.5-.1 1.1-.3 1.6-.4.3-.1.6-.2.8-.2.1 0 .2-.1.4-.1 1.5-.4 3-.9 4.5-1.3.2-.1.4-.1.6-.2 1.6-.5 3.3-1 4.8-1.5.7-.2 1.4-.5 2.1-.7l.9-.3c.1 0 .2-.1.3-.1l.9-.3c.3-.1.5-.2.8-.3 1.2-.5 2.4-.9 3.5-1.4.2-.1.3-.1.4-.2 1-.4 1.9-.8 2.9-1.2.1-.1.3-.1.4-.2.3-.1.6-.3.9-.4.2-.1.4-.2.7-.3.3-.2.7-.3 1-.5.7-.3 1.3-.7 1.9-1 .6-.3 1.2-.7 1.8-1.1.1 0 .1-.1.2-.1 1.2-.8 2.4-1.6 3.6-2.6l.2-.2c1.2-.9 2.4-2 3.5-3.1l.2-.2c1.2-1.1 2.3-2.3 3.5-3.6.1-.1.1-.2.2-.2.6-.6 1.1-1.3 1.7-2l.1-.1c.5-.7 1.1-1.3 1.6-2 .1-.1.1-.2.2-.3.5-.7 1.1-1.5 1.6-2.2.1-.1.1-.2.2-.2l1.5-2.1c.1-.1.2-.2.2-.3.5-.8 1.1-1.6 1.6-2.4.1-.1.2-.2.2-.4.5-.7.9-1.5 1.4-2.2.1-.1.2-.3.2-.4.5-.8 1-1.7 1.5-2.5.1-.2.2-.3.3-.5.4-.7.9-1.5 1.3-2.3.1-.2.2-.3.3-.5.5-.9 1-1.7 1.5-2.6.1-.2.2-.5.4-.7.4-.8.8-1.5 1.2-2.3.1-.2.2-.4.3-.5.5-.9.9-1.8 1.4-2.7.1-.3.3-.6.4-.8.4-.8.8-1.5 1.1-2.3l.3-.6c.4-.9.9-1.9 1.3-2.8.2-.3.3-.7.5-1 .4-.8.7-1.5 1.1-2.3.1-.3.3-.6.4-.9l1.2-2.7c.2-.4.4-.8.5-1.2.3-.7.6-1.5 1-2.2l.6-1.5c.3-.7.6-1.5 1-2.2.2-.5.4-.9.6-1.4l.9-2.1c.3-.6.5-1.3.8-1.9.3-.7.5-1.3.8-1.9.2-.5.4-1 .6-1.6.2-.7.5-1.3.8-2l.9-2.4c.2-.6.4-1.1.6-1.6.2-.6.4-1.2.7-1.8.2-.6.4-1.1.6-1.7.4-1 .7-1.9 1.1-2.9.2-.5.3-.9.5-1.4.2-.7.5-1.3.7-2 .1-.4.3-.8.4-1.2.4-1.2.8-2.3 1.2-3.5.1-.4.3-.8.4-1.2.2-.7.5-1.4.8-2.2 0-.1.1-.2.1-.2.5-1.5 1.1-3.1 1.6-4.7l.3-.9c.8-2.4 1.6-4.9 2.4-7.4.1-.2.2-.5.2-.7.8-2.5 1.6-5.1 2.4-7.6.1-.2.1-.3.2-.5.8-2.6 1.6-5.2 2.3-7.8 0-.1 0-.2.1-.3.8-2.7 1.6-5.3 2.3-8v-.1c2.9-9.9 5.5-19.8 8-29.4.6-2.5 1.3-5 1.9-7.5 0-.1.1-.3.1-.4l.6-2.4v-.1c.4-1.5.7-2.9 1.1-4.4.1-.3.2-.6.2-.9.2-.7.3-1.4.5-2 .1-.4.2-.7.3-1.1.2-1 .5-2 .7-3l.3-1.5c.1-.5.2-1.1.4-1.6l.6-2.7c.1-.4.2-.8.3-1.1.2-.7.3-1.4.5-2.1.1-.3.2-.6.2-1 .2-1 .5-2 .7-3 0-.1.1-.2.1-.3.2-1.1.5-2.1.7-3.1 1.3-5.6 2.4-10.8 3.4-15.6.4-1.8.8-3.6 1.1-5.2.2-.8.3-1.6.5-2.3 0-.1.1-.2.1-.4 0-.1 0-.2.1-.3 0-.1.1-.2.1-.4.2-1.1.4-2.1.7-3.1 0-.2.1-.4.1-.7.1-.4.2-.8.2-1.1.1-.5.2-.9.3-1.4.1-.3.1-.6.2-.8.1-.3.2-.7.2-1.1 0-.2.1-.4.1-.5 0-.2.1-.4.1-.6.2-.8.3-1.6.4-2.3.1-.3.1-.5.2-.8.1-.3.1-.5.2-.8.1-.3.1-.7.2-1 0-.1 0-.2.1-.2.1-.3.1-.7.2-1 0-.1.1-.3.1-.4 0-.1 0-.2.1-.3 0-.2.1-.4.1-.7 0-.2.1-.4.1-.6 0-.1.1-.3.1-.4.1-.7.2-1.3.3-1.9 0-.2.1-.3.1-.5v-.1c0-.1.1-.3.1-.4 0-.1 0-.2.1-.2v-.2c.1-.7.2-1.2.3-1.5V499.3H646.7z" id="Layer_2"/>
    <path class="st0" d="M1196.4 1304.6c-.2 1.1-.5 2.1-.7 3.2 0 .1-.1.2-.1.3-.2 1-.5 2-.7 3-.1.3-.1.6-.2 1-.2.7-.3 1.4-.5 2.1-.1.4-.2.8-.3 1.1l-.6 2.7c-.1.5-.2 1.1-.4 1.6l-.3 1.5c-.2 1-.5 2-.7 3-.1.4-.2.7-.3 1.1-.2.7-.3 1.4-.5 2-.1.3-.1.6-.2.9-.3 1.4-.7 2.9-1.1 4.4v.1l-.6 2.4c0 .1-.1.3-.1.4-.6 2.5-1.2 5-1.9 7.5-2.4 9.5-5.1 19.4-8 29.4v.1c-.8 2.7-1.5 5.3-2.3 8 0 .1 0 .2-.1.3-.8 2.6-1.6 5.2-2.3 7.8-.1.2-.1.3-.2.5-.8 2.5-1.6 5.1-2.4 7.6-.1.2-.1.5-.2.7-.8 2.5-1.6 4.9-2.4 7.4l-.3.9c-.5 1.6-1 3.1-1.6 4.7 0 .1-.1.2-.1.2-.2.7-.5 1.4-.8 2.2-.1.4-.3.8-.4 1.2-.4 1.2-.8 2.3-1.2 3.5-.2.4-.3.8-.4 1.2-.2.7-.5 1.3-.7 2-.2.5-.3.9-.5 1.4-.3 1-.7 1.9-1.1 2.9-.2.6-.4 1.1-.6 1.7-.2.6-.4 1.2-.7 1.8-.2.5-.4 1.1-.6 1.6l-.9 2.4c-.2.7-.5 1.3-.8 2-.2.5-.4 1-.6 1.6-.2.7-.5 1.3-.8 1.9-.3.6-.5 1.3-.8 1.9l-.9 2.1c-.2.5-.4.9-.6 1.4-.3.7-.6 1.5-1 2.2l-.6 1.5c-.3.7-.6 1.5-1 2.2-.2.4-.4.8-.5 1.2l-1.2 2.7c-.1.3-.3.6-.4.9-.3.8-.7 1.5-1.1 2.3-.2.3-.3.7-.5 1-.5.9-.9 1.9-1.3 2.8l-.3.6c-.4.8-.8 1.6-1.1 2.3-.1.3-.3.6-.4.8-.5.9-.9 1.8-1.4 2.7-.1.2-.2.4-.3.5-.4.8-.8 1.5-1.2 2.3-.1.2-.2.5-.4.7-.5.9-1 1.8-1.5 2.6-.1.2-.2.3-.3.5-.4.8-.9 1.5-1.3 2.3-.1.2-.2.3-.3.5-.5.9-1 1.7-1.5 2.5-.1.1-.2.3-.2.4-.5.7-1 1.5-1.4 2.2-.1.1-.2.2-.2.4-.5.8-1.1 1.6-1.6 2.4-.1.1-.2.2-.2.3l-1.5 2.1c-.1.1-.1.2-.2.2-.6.7-1.1 1.5-1.6 2.2-.1.1-.2.2-.2.3-.5.7-1.1 1.3-1.6 2l-.1.1c-.6.7-1.1 1.3-1.7 2-.1.1-.1.2-.2.2-1.2 1.3-2.3 2.5-3.5 3.6l-.2.2c-1.2 1.1-2.4 2.2-3.5 3.1l-.2.2c-1.2.9-2.4 1.8-3.6 2.6-.1 0-.1.1-.2.1-.6.4-1.2.7-1.8 1.1-9.9 5.3-24.6 10-42.1 14.1-1.7.4-3.4.8-5.1 1.1-1.7.4-3.5.7-5.2 1.1-1.8.4-3.5.7-5.4 1.1-1.8.4-3.6.7-5.5 1-.9.2-1.9.3-2.8.5-1.9.3-3.7.7-5.6 1-78 13.5-181.7 18.2-181.7 18.2s-103.9-4.7-182-18.2c-16-2.8-30.9-5.9-43.6-9.5-1.5-.4-3-.8-4.4-1.3-2.9-.9-5.6-1.7-8.2-2.6-1.9-.7-3.8-1.4-5.6-2.1-2.4-.9-4.6-1.9-6.6-2.9-1-.5-2-1-2.9-1.5-3.7-2-7.3-4.9-10.8-8.5-.6-.6-1.2-1.2-1.8-1.9-2.3-2.6-4.6-5.5-6.9-8.6-.6-.8-1.1-1.6-1.7-2.4-11.2-16.6-21.5-40.1-30.5-65.7-.4-1.1-.8-2.2-1.2-3.4-.8-2.2-1.5-4.5-2.3-6.8-.4-1.1-.8-2.3-1.1-3.4v-.1c-.7-2.3-1.5-4.5-2.2-6.8v-.1l-2.1-6.6c0-.1 0-.2-.1-.2 0-.1 0-.1-.1-.2-.7-2.2-1.4-4.5-2-6.7-.2-.6-.4-1.2-.5-1.8l-1.5-5.1c-.3-1.2-.7-2.3-1-3.4-.2-.8-.4-1.5-.6-2.2-.1-.5-.3-1-.4-1.5-.9-3.3-1.9-6.7-2.8-10 0-.1 0-.1-.1-.2-.9-3.3-1.8-6.6-2.6-9.9l-1.8-6.9c-.5-1.9-1-3.8-1.4-5.7 0-.2-.1-.4-.1-.5-.3-1.3-.7-2.7-1-4l-.6-2.4c-.3-1.1-.5-2.1-.8-3.1-.8-3.2-1.5-6.4-2.3-9.5-.2-1-.5-2-.7-3-.2-.9-.4-1.7-.6-2.5-.2-1.1-.5-2.2-.8-3.3-.2-.9-.4-1.9-.6-2.8-.1-.5-.2-.9-.3-1.4-.1-.5-.2-.9-.3-1.4-.1-.4-.2-.9-.3-1.3-.1-.5-.2-.9-.3-1.4-.1-.4-.2-.9-.3-1.3-.2-.7-.3-1.5-.5-2.2 0-.1 0-.2-.1-.4-.5-2.5-1-4.8-1.5-7.1-.1-.4-.2-.8-.2-1.2-.1-.4-.2-.8-.2-1.2l-.3-1.5c0-.3-.1-.5-.2-.8-.3-1.6-.6-3.2-1-4.6-.2-1.2-.5-2.5-.7-3.6-.1-.3-.1-.6-.2-.9-.2-.9-.4-1.8-.5-2.7-.1-.3-.1-.6-.2-.9 0-.1 0-.2-.1-.3-.1-.3-.1-.5-.2-.8 0-.2-.1-.3-.1-.5 0-.3-.1-.5-.2-.8l-.1-.8c-.2-.8-.3-1.6-.5-2.4-.1-.5-.2-.9-.2-1.3 0-.1 0-.2-.1-.3 0-.2-.1-.4-.1-.6-.1-.5-.2-.9-.2-1.3 0-.2-.1-.3-.1-.5v-.7c0-.1-.1-.3-.1-.4 0-.2-.1-.4-.1-.6-.1-.4-.1-.7-.2-1v-.3c0-.2-.1-.3-.1-.4v-.6 380.7c38.3 37.4 178.7 65.1 346.1 65.1s307.8-27.7 346.1-65.1V1289h-6.4c-1.4 4.8-2.5 10.1-3.8 15.6zM1370.3 631h-164.1v107.1h156.7v443.8h-156.7V1289h164.1c51 0 92.3-41.3 92.3-92.3V723.2c0-50.9-41.3-92.2-92.3-92.2z" id="Layer_4"/>
    <path class="st0" d="M1212.8 312.9c-32.3-32.3-81.1-37.9-119.2-16.8-2.2-44.1-38.6-79.1-83.2-79.1-35.9 0-66.5 22.7-78.3 54.6-8.8-5.8-19.3-9.2-30.6-9.2-29.6 0-53.8 23.2-55.2 52.5-8.6-50.4-52.6-88.8-105.4-88.8-43.6 0-81.2 26.1-97.8 63.6-18.3-10.9-39.8-17.1-62.7-17.1-68 0-123 55.1-123 123 0 43.5 22.6 81.8 56.8 103.7 2.1 1.3 4.2 2.6 6.3 3.8.7.4 1.5.8 2.2 1.2.3.1.5.3.8.4.6.3 1.2.6 1.9.9.8.4 1.6.8 2.3 1.2h.1c.4.2.8.4 1.2.5.3.1.5.2.8.4.3.2.7.3 1 .5.2.1.4.2.7.3.7.3 1.3.6 2 .8.4.2.7.3 1.1.4.2.1.3.1.5.2.4.2.7.3 1.1.4.2.1.5.2.7.3.4.1.7.3 1.1.4l.9.3c.1 0 .2.1.2.1.7.2 1.4.5 2.1.7h.1c.1 0 .2.1.3.1l1.8.6c.2 0 .3.1.5.2 1.1.4 2.3.7 3.4 1 .1 0 .1 0 .2.1 1.8.5 3.6.9 5.4 1.4.3.1.6.1.9.2.4.1.8.2 1.2.2.5.1.9.2 1.4.3h.2c.1 0 .3 0 .4.1 2.8.5 5.6 1 8.4 1.3.6.1 1.2.2 1.9.2h.4c.9.1 1.8.2 2.7.2 1.3.1 2.7.2 4 .3h.1c2 .1 4 .1 6 .1h2.3c3.7-.1 7.4-.3 11.1-.7.6-.1 1.2-.1 1.9-.2l4.5-.6c.9-.1 1.8-.3 2.6-.5.7-.1 1.4-.3 2.2-.4.3-.1.6-.1.9-.2.6-.1 1.1-.2 1.7-.4 2.8-.6 5.5-1.3 8.2-2.1 1.2-.4 2.3-.7 3.5-1.1.6-.2 1.1-.4 1.7-.6.6-.2 1.2-.4 1.7-.6 1.5-.6 3.1-1.2 4.6-1.8.7-.3 1.5-.6 2.2-.9.2-.1.5-.2.7-.3.6-.3 1.3-.6 1.9-.9.8-.4 1.6-.7 2.3-1.1.4-.2.9-.4 1.3-.6.7-.3 1.3-.7 1.9-1 3.1-1.6 6.2-3.4 9.1-5.3h559.6v-38.7c2.3-1.9 4.5-3.9 6.6-6 38.9-39.1 38.9-102.4-.2-141.5z" id="Layer_5"/>
    <g id="STROKES">
        <path class="st1" d="M1206.2 1257.2v380.7c-38.3 37.4-178.7 65.1-346.1 65.1-167.4 0-307.8-27.7-346.1-65.1v-380.7s38.9 217.5 92.7 246.6c53.8 29.1 253.3 38.1 253.3 38.1s199.5-9 253.3-38.1c54-29.2 92.9-246.6 92.9-246.6z"/>
        <path class="st1" d="M1206.2 460.5v38.7H646.7c-19.1 12.3-41.9 19.4-66.3 19.4s-47.1-7.1-66.3-19.4c-34.1-21.9-56.8-60.1-56.8-103.7 0-67.9 55.1-123 123-123 22.9 0 44.3 6.2 62.7 17.1 16.6-37.5 54.2-63.6 97.8-63.6 52.9 0 96.8 38.4 105.4 88.8 1.5-29.2 25.6-52.5 55.2-52.5 11.3 0 21.8 3.4 30.6 9.2 14.9 9.9 24.7 26.9 24.7 46.1 0 13-4.5 24.9-11.9 34.3 1.4 1.7 2.8 3.4 4.3 5 15.2 16.4 37 26.7 61.1 26.7 11.3 0 22-2.2 31.8-6.3-1.7 27.7 8 55.9 29.1 77.1 37.2 37 95.8 39 135.1 6.1z"/>
        <path class="st1" d="M1212.8 454.4c-2.1 2.1-4.3 4.1-6.6 6-39.3 32.9-98 30.9-134.9-6-21.1-21.1-30.8-49.4-29.1-77.1-9.8 4.1-20.5 6.3-31.8 6.3-24.2 0-45.9-10.3-61.1-26.7-1.5-1.6-2.9-3.3-4.3-5 7.5-9.4 11.9-21.4 11.9-34.3 0-19.2-9.8-36.2-24.7-46.1 11.7-31.9 42.3-54.6 78.3-54.6 44.6 0 81 35 83.3 79.1 38.1-21.1 86.9-15.4 119.2 16.8 38.9 39.2 38.9 102.6-.2 141.6z"/>
        <path class="st1" d="M690.6 483.7c-27.2-.5-52.1-18.5-60.3-46-10.1-34 9.2-69.8 43.3-80 21.3-6.3 43.2-1.1 59.2 12"/>
        <path class="st1" d="M1206.2 499.1v758s-2.2 12.5-6.4 31.8c-13.1 61.5-45.4 192.6-86.4 214.8-53.8 29.1-253.3 38.1-253.3 38.1s-199.5-9-253.3-38.1c-53.8-29.1-92.7-246.6-92.7-246.6v-758c19.1 12.2 41.9 19.4 66.3 19.4s47.1-7.1 66.3-19.4h559.5z"/>
        <path class="st1" d="M1462.6 723.2v473.5c0 51-41.3 92.3-92.3 92.3h-170.5c4.1-19.4 6.4-31.8 6.4-31.8v-75.3h156.7V738.1h-156.7V631h164.1c51 0 92.3 41.3 92.3 92.2z"/>
    </g>
</svg>
