<svg xmlns="http://www.w3.org/2000/svg" viewBox="0 0 1920 1920">
    <style>
        .st0{fill:#fff}.st1{fill:none;stroke:#231f20;stroke-width:50;stroke-linecap:round;stroke-linejoin:round;stroke-miterlimit:10}
    </style>
    <path class="st0" d="M861.3 841.6l-8.6 8.6-8.6 8.6c-24.1 24.1-63.2 24.1-87.4 0l-20.4-20.4c-51.5 23.5-131.9 31.2-225.6-62.5C453 718 396 688.2 346.4 673.7c-40.4-11.8-75.9-13.3-102.7-11.4-16.1 1.1-25-18.3-13.6-29.7l160.7-160.7c-15.3-2.2-29.9-9.2-41.7-20.9-28.9-28.9-28.9-75.6 0-104.5 28.9-28.9 75.6-28.9 104.5 0 11.7 11.7 18.7 26.4 20.9 41.7l160.7-160.7c11.4-11.4 30.9-2.5 29.7 13.6-1.9 26.8-.4 62.3 11.4 102.7 14.5 49.6 44.3 106.7 102.2 164.5 93.7 93.6 86 174 62.5 225.6l20.4 20.3c24 24.2 24 63.3-.1 87.4z" id="Layer_5"/>
    <path class="st0" d="M1613.8 1530.7L893 809.9l-80.5 80.5 720.8 720.8 67.6 67.6 80.5-80.5z" id="Layer_6"/>
    <g id="STROKES">
        <path class="st1" d="M230 632.6l405.1-405.1c11.4-11.4 30.9-2.5 29.7 13.6-1.9 26.9-.3 62.3 11.4 102.7L346.4 673.7c-40.4-11.8-75.9-13.3-102.7-11.4-16.2 1.1-25.1-18.3-13.7-29.7z"/>
        <path class="st1" d="M346.4 673.7l329.9-329.9c14.5 49.6 44.3 106.7 102.2 164.5 93.7 93.7 86 174 62.5 225.6-17.5 38.3-43.8 60.7-43.8 60.7s-22.4 26.3-60.7 43.8c-51.5 23.5-131.9 31.2-225.6-62.5C453 718.1 396 688.2 346.4 673.7z"/>
        <path class="st1" d="M349 451c-28.9-28.9-28.9-75.6 0-104.5 28.9-28.9 75.6-28.9 104.5 0 11.7 11.7 18.7 26.4 20.9 41.7l-83.7 83.7c-15.2-2.2-29.9-9.2-41.7-20.9z"/>
        <path class="st1" d="M756.8 858.7l-20.4-20.4c38.3-17.5 60.7-43.8 60.7-43.8s26.3-22.4 43.8-60.7l20.4 20.4c24.1 24.1 24.1 63.3 0 87.4l-17.1 17.1c-24.1 24.2-63.3 24.2-87.4 0z"/>
        <path transform="rotate(134.999 1246.95 1244.368)" class="st1" d="M1190 686.9h113.9v1114.9H1190z"/>
        <path class="st1" d="M1533.3 1611.2l80.5-80.5"/>
    </g>
</svg>
