<svg xmlns="http://www.w3.org/2000/svg" viewBox="0 0 1920 1920">
    <style>
        .st0{fill:#fff}.st1{fill:none;stroke:#231f20;stroke-width:50;stroke-linecap:round;stroke-linejoin:round;stroke-miterlimit:10}
    </style>
    <path class="st0" d="M1117.9 1529c0 6.2-.3 12.3-.9 18.3-8.3 87.5-75.4 155.8-157 155.8s-148.8-68.2-157-155.8c-.6-6-.9-12.1-.9-18.3 0-20 6.8-43.9 17.6-69.1 10.8-25.3 25.6-52 41.5-77.7 4-.1 8-.2 12.1-.3 8.1-.2 16.2-.3 24.4-.5 20.5-.3 41.2-.5 62.2-.5 33.6 0 66.6.4 98.7 1.3 32 51.3 59.3 106.9 59.3 146.8z" id="Layer_2"/>
    <path class="st0" d="M1576.7 1463.7c-.1-.1-.2-.3-.2-.4-37.8-61.8-149-250.8-224.2-453.5-35-94.4-62.3-191.8-70.6-280.7-1.7-18.5-2.7-36.6-2.7-54.3 0-206.2-126.2-278.1-218.3-303.2v-51.8c0-28.4-11.3-54.1-29.5-72.7S987.8 217 960 217c-55.6 0-100.7 46-100.7 102.8v51.8c-46.1 12.5-100.7 36.8-143.7 83.7-43.1 46.8-74.6 116.3-74.6 219.4 0 17.7-.9 35.8-2.7 54.3-8.3 88.9-35.6 186.3-70.6 280.7-75.2 202.7-186.4 391.8-224.2 453.5l-.2.4c-10.5 17.2-3.4 40.1 15.1 47.6 64.2 26.2 232.8 34 444.5 36-.6-6-.9-12.1-.9-18.3 0-20 6.8-43.9 17.6-69.1 10.8-25.3 25.6-52 41.5-77.7 12.9-.3 26-.6 39.2-.8 3.7-.1 7.3-.1 11-.2 1.9 0 3.9 0 5.8-.1 2.8 0 5.7-.1 8.5-.1h5.8c3.1 0 6.2 0 9.3-.1h19.2c33.6 0 66.6.4 98.7 1.3 31.9 51.3 59.1 106.8 59.1 146.8 0 6.2-.3 12.3-.9 18.3 211.8-2 380.4-9.9 444.6-36 18.7-7.4 25.8-30.3 15.3-47.5z" id="Layer_4"/>
    <g id="STROKES">
        <path class="st1" d="M861.2 1382.2C829.3 1433.5 802 1489 802 1529c0 6.2.3 12.3.9 18.3-211.7-2-380.4-9.9-444.5-36-18.5-7.5-25.6-30.4-15.1-47.6l.3-.4c52.7-41.8 259-74.4 517.6-81.1z"/>
        <path class="st1" d="M1561.6 1511.3c-64.1 26.2-232.8 34-444.5 36 .6-6 .9-12.1.9-18.3 0-39.9-27.3-95.5-59.2-146.8 258.6 6.7 464.9 39.2 517.7 81 .1.1.2.3.3.4 10.4 17.3 3.2 40.1-15.2 47.7z"/>
        <path class="st1" d="M1281.7 729c-93.8-15.7-203.9-24.8-321.7-24.8s-227.8 9.1-321.7 24.8c1.7-18.5 2.7-36.6 2.7-54.3 0-206.2 126.2-278.1 218.3-303.2 53-14.4 94.7-13.3 94.7-13.3h12s41.7-1.1 94.7 13.3c92.1 25 218.3 97 218.3 303.2 0 17.7.9 35.8 2.7 54.3z"/>
        <path class="st1" d="M1060.7 319.7v51.8c-53-14.4-94.7-13.3-94.7-13.3h-12s-41.7-1.1-94.7 13.3v-51.8c0-56.8 45.1-102.8 100.7-102.8 27.8 0 53 11.5 71.2 30.1 18.2 18.6 29.5 44.3 29.5 72.7z"/>
        <path class="st1" d="M1117.9 1529c0 6.2-.3 12.3-.9 18.3-8.3 87.5-75.4 155.7-157 155.7s-148.8-68.2-157-155.7c-.6-6-.9-12.1-.9-18.3 0-39.9 27.3-95.5 59.2-146.8 32.2-.8 65.2-1.3 98.7-1.3 33.6 0 66.6.4 98.7 1.3 31.9 51.3 59.2 106.9 59.2 146.8z"/>
        <path class="st1" d="M1576.4 1463.3c-52.7-41.8-259-74.3-517.7-81-32.2-.8-65.2-1.3-98.7-1.3s-66.6.4-98.7 1.3c-258.6 6.7-464.9 39.2-517.7 81 37.8-61.8 149-250.8 224.2-453.5 35-94.4 62.3-191.8 70.6-280.7 93.8-15.7 203.9-24.8 321.7-24.8s227.8 9.1 321.7 24.8c8.3 88.9 35.6 186.3 70.6 280.7 75 202.6 186.2 391.7 224 453.5z"/>
    </g>
</svg>
