<svg xmlns="http://www.w3.org/2000/svg" viewBox="0 0 1920 1920">
    <style>
        .st0{fill:#fff}.st1{fill:none;stroke:#231f20;stroke-width:50;stroke-linecap:round;stroke-linejoin:round;stroke-miterlimit:10}
    </style>
    <path class="st0" d="M1703.1 833.1v253.8h-201.5c-.7-6-1.9-12-3.5-18-29.9-109.5-100.8-168.3-164.8-199.9-45-22.2-94.3-34.1-144.3-35.7v-.2h514.1zm-205 235.8c-29.9-109.5-100.8-168.3-164.8-199.9-45-22.2-94.3-34.1-144.3-35.7-3.9-.1-7.8-.2-11.8-.2H968.8v253.8h195.6c44.2 0 85.1 24.3 105.3 63.6.4.9.9 1.8 1.3 2.7 26.7 54.7 89 81.9 146.8 62.9l1.4-.4c55.3-18.2 88.9-72.6 82.4-128.8-.8-6-1.9-12-3.5-18zM216.9 833.1v253.8h368.5V833.1H216.9z" id="Layer_5"/>
    <path class="st0" d="M968.8 833.1v294.8H852.2V792h116.6z" id="Layer_6"/>
    <path class="st0" d="M852.2 960v167.9H585.5V792h266.7z" id="Layer_7"/>
    <g id="STROKES">
        <g id="XMLID_1_">
            <path class="st1" d="M585.5 833.1H216.9v253.8h368.6"/>
            <path class="st1" d="M1501.5 1086.9h201.6V833.1H1189"/>
            <path class="st1" d="M968.8 1086.9h195.6c44.2 0 85.1 24.3 105.3 63.6.4.9.9 1.8 1.3 2.7 26.7 54.7 89 81.9 146.8 62.9l1.4-.4c55.3-18.2 88.9-72.6 82.4-128.8-.7-6-1.9-12-3.5-18-29.9-109.5-100.8-168.3-164.8-199.9-45-22.2-94.3-34.1-144.3-35.7-3.9-.1-7.8-.2-11.8-.2H968.8"/>
            <path class="st1" d="M403.7 960h-5"/>
            <path class="st1" d="M1139.8 960h-4.9"/>
            <path class="st1" d="M1336.1 1027.6h-5"/>
            <path class="st1" d="M968.8 1086.9v41H585.5V792h383.3v41.1z"/>
            <path class="st1" d="M1583 960h-4.9"/>
            <path class="st1" d="M852.2 792v335.9"/>
            <path class="st1" d="M690.2 960h162"/>
        </g>
    </g>
</svg>
