<svg xmlns="http://www.w3.org/2000/svg" viewBox="0 0 1920 1920">
    <style>
        .st0{fill:#fff}.st1{fill:none;stroke:#231f20;stroke-width:50;stroke-linecap:round;stroke-linejoin:round;stroke-miterlimit:10}
    </style>
    <path class="st0" d="M1703.1 833.1v253.8H1409c69.3-.9 125.2-57.3 125.2-126.9 0-35-14.2-66.8-37.2-89.7-23-23-54.7-37.2-89.7-37.2h295.8zM1534.2 960c0-35-14.2-66.8-37.2-89.7-23-23-54.7-37.2-89.7-37.2h-241.6v253.8H1409c69.2-.9 125.2-57.4 125.2-126.9zM216.9 833.1v253.8h551.4V833.1H216.9z" id="Layer_2"/>
    <path class="st0" d="M1165.6 833.1v294.8h-120.8V792h120.8z" id="Layer_3"/>
    <path class="st0" d="M1044.8 960v167.9H768.4V792h276.4z" id="Layer_8"/>
    <g id="STROKES">
        <path class="st1" d="M768.4 833.1H216.9v253.8h551.5"/>
        <path class="st1" d="M359.7 960h62.2"/>
        <path class="st1" d="M1189 1086.9h514.1V833.1h-295.8"/>
        <path class="st1" d="M644.5 960h-62.1"/>
        <path class="st1" d="M1687.8 960h-31.1"/>
        <path class="st1" d="M1165.6 1086.9h243.3c69.3-.9 125.2-57.3 125.2-126.9 0-35-14.2-66.8-37.2-89.7-23-23-54.7-37.2-89.7-37.2h-241.5"/>
        <path class="st1" d="M1365.3 960h-62.1"/>
        <path class="st1" d="M1165.6 1086.9v41H768.4V792h397.2v41.1z"/>
        <path class="st1" d="M1044.8 792v335.9"/>
        <path class="st1" d="M876.9 960h167.9"/>
    </g>
</svg>
