<svg xmlns="http://www.w3.org/2000/svg" viewBox="0 0 1920 1920">
    <style>
        .st0{fill:#fff}.st1{fill:none;stroke:#231f20;stroke-width:50;stroke-linecap:round;stroke-linejoin:round;stroke-miterlimit:10}
    </style>
    <path class="st0" d="M1612.9 918.7c120.2 120.2 120.2 315 0 435.2-120.2 120.2-315 120.2-435.2 0-92.2-92.2-113.7-228.3-64.4-341 15-34.2 36.4-66.2 64.4-94.2 63.4-63.4 147.7-93.4 230.8-89.8 74.3 3.1 147.7 33.1 204.4 89.8zm-870.6 0c-63.4-63.4-147.7-93.4-230.8-89.8-74.3 3.2-147.7 33.1-204.4 89.8-120.2 120.2-120.2 315 0 435.2 120.2 120.2 315 120.2 435.2 0 92.2-92.2 113.7-228.3 64.4-341-15-34.2-36.5-66.2-64.4-94.2z" id="Layer_11"/>
    <path class="st0" d="M1113.4 1012.9l-78.7-78.7 239.6-239.6 134.2 134.2c-83.1-3.5-167.3 26.4-230.8 89.8-27.9 28.1-49.4 60.1-64.3 94.3zM645.7 694.6L511.5 828.8c83.1-3.5 167.3 26.4 230.8 89.8 28 28 49.4 60 64.4 94.2l78.7-78.7-239.7-239.5z" id="Layer_12"/>
    <path class="st0" d="M1274.3 694.6l-239.6 239.6C1135.7 833.2 960 767 960 767c32.8 0 59.3-26.6 59.3-59.3 0-26.8-17.8-49.4-42.2-56.8l297.2 43.7zm-373.6 13.1c0-26.8 17.8-49.4 42.2-56.8l-297.1 43.8 239.6 239.6C784.3 833.2 960 767 960 767c-32.8 0-59.3-26.6-59.3-59.3z" id="Layer_13"/>
    <path class="st0" d="M977.2 650.9c24.4 7.4 42.2 30 42.2 56.8 0 32.8-26.6 59.3-59.3 59.3s-59.3-26.6-59.3-59.3c0-26.8 17.8-49.4 42.2-56.8l17.2-2.5 17 2.5z" id="Layer_14"/>
    <g id="STROKES">
        <path class="st1" d="M806.6 1012.9c49.3 112.7 27.8 248.8-64.4 341-120.2 120.2-315 120.2-435.2 0-120.2-120.2-120.2-315 0-435.2 56.7-56.7 130.1-86.7 204.4-89.8 83.1-3.5 167.3 26.4 230.8 89.8 28 28 49.5 60 64.4 94.2z"/>
        <path class="st1" d="M960 648.3c6 0 11.7.9 17.2 2.5 24.4 7.4 42.2 30 42.2 56.8 0 32.8-26.6 59.3-59.3 59.3s-59.3-26.6-59.3-59.3c0-26.8 17.8-49.4 42.2-56.8 5.3-1.6 11-2.5 17-2.5z"/>
        <path class="st1" d="M511.5 828.8l134.2-134.2 239.6 239.6-78.7 78.7"/>
        <path class="st1" d="M645.7 694.6l297.1-43.7 17.2-2.6"/>
        <path class="st1" d="M960 767s-175.7 66.2-74.7 167.2"/>
        <path class="st1" d="M1113.4 1012.9c-49.3 112.7-27.8 248.8 64.4 341 120.2 120.2 315 120.2 435.2 0 120.2-120.2 120.2-315 0-435.2-56.7-56.7-130.1-86.7-204.4-89.8-83.1-3.5-167.3 26.4-230.8 89.8-28 28-49.5 60-64.4 94.2z"/>
        <path class="st1" d="M1408.5 828.8l-134.2-134.2-239.6 239.6 78.7 78.7"/>
        <path class="st1" d="M1274.3 694.6l-297.1-43.7-17.2-2.6"/>
        <path class="st1" d="M960 767s175.7 66.2 74.7 167.2"/>
    </g>
</svg>
