<svg xmlns="http://www.w3.org/2000/svg" viewBox="0 0 1920 1920">
    <style>
        .st0{fill:#fff}.st1{fill:none;stroke:#231f20;stroke-width:50;stroke-linecap:round;stroke-linejoin:round;stroke-miterlimit:10}
    </style>
    <path class="st0" d="M407 692l-77.3-24c8.4-43.4 19-72.4 30.7-79.7.1-.1.2-.1.3-.2.1-.1.3-.2.4-.2 1.7-.9 3.4-1.3 5.1-1.4 1.9 0 3.8.6 5.7 1.8l.6.2c13.5 9 25.6 47 34.5 103.5zM226.6 993.4c0 187.8 25.1 340 56.1 340l5.8-1.8c28.2-17.6 50.3-162.3 50.3-338.2s-22-320.7-50.3-338.2l-5.8-1.8c-31 0-56.1 152.3-56.1 340z" id="Layer_2"/>
    <path class="st0" d="M1409.4 689.7v64.5h-124.7v-64.5h124.7zm-407.8-2.4h-394l-235.1-98.8c13.5 9 25.5 46.9 34.4 103.4l200.6 62.3h393.9v-64.5c.1-.8.1-1.6.2-2.4zm407.8 359.5V754.3H775.6v478.5h633.8v-186zm-801.8 26.4v159.5l-319.1 99c28.2-17.6 50.3-162.3 50.3-338.2s-22-320.7-50.3-338.2l41.3 12.8L407 692l200.6 62.3v318.9z" id="Layer_3"/>
    <path class="st0" d="M775.6 1073.2v159.5h-168v-159.5h168zm-168-159.5v159.5h168V913.7h-168zm0-159.5v159.5h168V754.2h-168z" id="Layer_4"/>
    <g id="Layer_6">
        <path class="st0" d="M1693.4 1013.5v77.6c0 42.8-38.5 75.3-80.7 68.1l-203.3-34.8V866.5l200.7-42.4c42.9-9.1 83.3 23.7 83.3 67.5v121.9z"/>
        <path class="st0" d="M1693.4 813.9v77.6c0-43.9-40.4-76.6-83.3-67.5l-200.7 42.4v-77.6l200.7-42.4c42.9-9.1 83.3 23.7 83.3 67.5z"/>
    </g>
    <path class="st0" d="M1284.7 689.7v64.5h-283.2v-64.5c0-.8 0-1.6.1-2.4 1.2-22.3 19.7-40.1 42.4-40.1h198.3c23.4.1 42.4 19.1 42.4 42.5z" id="Layer_7"/>
    <g id="STROKES">
        <path class="st1" d="M1001.5 754.2H607.6L407 692l-77.3-24-41.2-12.8-5.8-1.8"/>
        <path class="st1" d="M1409.4 788.8v-34.6h-124.7"/>
        <path class="st1" d="M282.7 1333.5l5.8-1.8 319.1-99h801.8v-108.3"/>
        <path class="st1" d="M607.6 754.2v478.5"/>
        <path class="st1" d="M282.7 653.4c-31 0-56.1 152.2-56.1 340s25.1 340 56.1 340c2 0 3.9-.6 5.8-1.8 28.2-17.6 50.3-162.3 50.3-338.2s-22-320.7-50.3-338.2c-1.9-1.2-3.9-1.8-5.8-1.8z"/>
        <path class="st1" d="M360.4 588.3c-11.6 7.3-22.2 36.3-30.7 79.7"/>
        <path class="st1" d="M1001.5 687.3H607.6l-235.1-98.8-.6-.2c-1.9-1.2-3.8-1.8-5.7-1.8h-.1c-1.7 0-3.4.5-5 1.4-.1.1-.3.2-.4.2"/>
        <path class="st1" d="M1284.7 754.2h-283.2v-64.5c0-.8 0-1.6.1-2.4 1.2-22.3 19.7-40.1 42.4-40.1h198.3c23.4 0 42.4 19 42.4 42.4v64.6z"/>
        <path class="st1" d="M607.6 913.7h168"/>
        <path class="st1" d="M607.6 1073.2h168"/>
        <path class="st1" d="M775.6 1232.7V754.2"/>
        <path class="st1" d="M1409.4 866.5l200.7-42.4c42.9-9.1 83.3 23.7 83.3 67.5"/>
        <path class="st1" d="M1693.4 1013.5v77.6c0 42.8-38.5 75.3-80.7 68.1l-203.3-34.8v-77.6"/>
        <path class="st1" d="M1409.4 1046.8V788.9l200.7-42.4c42.9-9.1 83.3 23.7 83.3 67.5v199.5"/>
        <path class="st1" d="M1284.7 689.7h124.7v64.5"/>
        <path class="st1" d="M407 692c-8.9-56.5-20.9-94.4-34.4-103.4-2-1.4-4.1-2-6.2-2h-.1c-1.7 0-3.4.5-5.1 1.4-.1.1-.3.2-.4.2-.1.1-.2.1-.3.2-11.7 7.1-22.2 35.2-30.7 79.7"/>
    </g>
</svg>
