<svg xmlns="http://www.w3.org/2000/svg" viewBox="0 0 1920 1920">
    <style>
        .st0{fill:#fff}.st1{fill:none;stroke:#231f20;stroke-width:50;stroke-linecap:round;stroke-linejoin:round;stroke-miterlimit:10}
    </style>
    <path class="st0" d="M1703.1 1061v545H1163V931.4h-68V580.3h320l288.1 480.7zM825 634v-53.7H505l-288 480.6V1606h540V931.4h68V634z" id="Layer_8"/>
    <path class="st0" d="M825 634h270v252H825z" id="Layer_9"/>
    <path class="st0" d="M1355 314v266.4h-212V314h212zm-790 0v266.4h212V314H565z" id="Layer_10"/>
    <g id="STROKES">
        <path class="st1" d="M777 580.3H505L216.9 1061v545H757V931.4h68V580.3z"/>
        <path class="st1" d="M565 580.3V314h212v266.3"/>
        <path class="st1" d="M1143 580.3h272l288.1 480.7v545H1163V931.4h-68V580.3z"/>
        <path class="st1" d="M1355 580.3V314h-212v266.3"/>
        <path class="st1" d="M825 634h270"/>
        <path class="st1" d="M825 886h270"/>
    </g>
</svg>
