<svg xmlns="http://www.w3.org/2000/svg" viewBox="0 0 1920 1920">
    <style>
        .st0{fill:#fff}.st1{stroke:#231f20;stroke-width:50;stroke-linecap:round;stroke-linejoin:round;stroke-miterlimit:10}.st1,.st2{fill:none}
    </style>
    <path class="st0" d="M1279.6 469.1c79.1 0 206.4 76.5 233.4 180.2 0 0 100.5-6.8 157 81.1 0 0-101.2 34.8-158.9 47.8 0 0-109 28.7-85 92.1 59.4 123.1 20.6 284.9 20.6 284.9-107.3 378.6-381.5 432.1-640 390.9-292.9-46.6-508-338.9-508-338.9s286.2 5.4 367.8-71.2c-111.6-13.5-395.4-129.4-393.9-255.4 1.2-98.2 232-32.1 232-32.1-263.2-78.4-254.5-192.9-254.5-192.9-5.1-182.1 258 17.4 258 17.4S345.3 526.6 363.9 421.4C404.3 194.2 703.3 682.8 893.1 885c0 0 115.7-70.5 150.4-241 34.7-170.6 156.9-174.9 236.1-174.9z" id="Layer_1"/>
    <path class="st1" d="M1279.6 469.1c79.1 0 206.4 76.5 233.4 180.2 0 0 100.5-6.8 157 81.1 0 0-101.2 34.8-158.9 47.8 0 0-109 28.7-85 92.1 59.4 123.1 20.6 284.9 20.6 284.9-107.3 378.6-381.5 432.1-640 390.9-292.9-46.6-508-338.9-508-338.9s286.2 5.4 367.8-71.2c-111.6-13.5-395.4-129.4-393.9-255.4 1.2-98.2 232-32.1 232-32.1-263.2-78.4-254.5-192.9-254.5-192.9-5.1-182.1 258 17.4 258 17.4S345.3 526.6 363.9 421.4C404.3 194.2 703.3 682.8 893.1 885c0 0 115.7-70.5 150.4-241 34.7-170.6 156.9-174.9 236.1-174.9z" id="STROKES"/>
</svg>
