<svg xmlns="http://www.w3.org/2000/svg" viewBox="0 0 1920 1920">
    <style>
        .st0{fill:#fff}.st1{stroke:#231f20;stroke-width:50;stroke-linecap:round;stroke-linejoin:round;stroke-miterlimit:10}.st1,.st2{fill:none}
    </style>
    <path class="st0" d="M1454.3 702.8c-21.4 52.8-61.7 95.9-112.6 120.9 15.3 201.3-140.2 480.6-476 469.8-306.9-9.8-347.6-273.2-347.6-273.2l-198.8 7.3 96-100.9-117-67.2 105-20.1-45-108.9 198 108.9s96-264.9 452.9-207.1c-.4-5.4-.6-10.8-.6-16.2 0-127.7 103.5-231.2 231.2-231.2 99 0 183.4 62.2 216.4 149.6 0 0 161.5-41.8 163 147.8.1.1-137.4-61.3-164.9 20.5z" id="Layer_3"/>
    <g id="STROKES">
        <path class="st1" d="M1312.8 521.7v2.4"/>
        <path class="st1" d="M772.2 1292.7l-40.1 162s85.9 4 79.9 80.3"/>
        <path class="st1" d="M1454.3 702.8c-21.4 52.8-61.7 95.9-112.6 120.9 15.3 201.3-140.2 480.6-476 469.8-306.9-9.8-347.6-273.2-347.6-273.2l-198.8 7.3 96-100.9-117-67.2 105-20.1-45-108.9 198 108.9s96-264.9 452.9-207.1c-.4-5.4-.6-10.8-.6-16.2 0-127.7 103.5-231.2 231.2-231.2 99 0 183.4 62.2 216.4 149.6 0 0 161.5-41.8 163 147.8.1.1-137.4-61.3-164.9 20.5z"/>
        <path class="st1" d="M630.8 1468.7c18-43.9 101.3-14 101.3-14s141.7-53.8 165.7 39.2"/>
        <path class="st1" d="M1057.4 1279.1l-.6 181.7s84.4-16.5 96.6 59.1"/>
        <path class="st1" d="M954.4 1493.8c7.1-46.9 102.4-33 102.4-33s124.9-85.9 170.2-1.2"/>
    </g>
</svg>
