<svg xmlns="http://www.w3.org/2000/svg" viewBox="0 0 1920 1920">
    <style>
        .st0{fill:#fff}.st1{fill:none;stroke:#231f20;stroke-width:50;stroke-linecap:round;stroke-linejoin:round;stroke-miterlimit:10}
    </style>
    <path class="st0" d="M1048.7 360.6c0 112.3-88.7 143.6-88.7 143.6s-88.7-31.3-88.7-143.6S960 216.9 960 216.9s88.7 31.3 88.7 143.7z" id="Layer_5"/>
    <path class="st0" d="M1341.9 724.6v268.8c0 18.9-15.5 34.4-34.4 34.4H612.4c-18.9 0-34.4-15.5-34.4-34.4V724.6c0-18.9 15.5-34.4 34.4-34.4h695.2c18.9 0 34.3 15.5 34.3 34.4z" id="Layer_6"/>
    <path class="st0" d="M1489.8 1068.3v256.6c0 22.3-18.2 40.5-40.5 40.5H470.7c-22.3 0-40.5-18.2-40.5-40.5v-256.6c0-22.3 18.2-40.5 40.5-40.5h978.7c22.2 0 40.4 18.2 40.4 40.5z" id="Layer_7"/>
    <path class="st0" d="M1703.1 1413.4v241.7c0 26.4-21.6 48-48 48H264.9c-26.4 0-48-21.6-48-48v-241.7c0-26.4 21.6-48 48-48h1390.3c26.3 0 47.9 21.6 47.9 48z" id="Layer_8"/>
    <g id="STROKES">
        <g id="XMLID_1_">
            <path class="st1" d="M612.4 1027.8c-18.9 0-34.4-15.5-34.4-34.4V724.6c0-18.9 15.5-34.4 34.4-34.4h695.2c18.9 0 34.4 15.5 34.4 34.4v268.8c0 18.9-15.5 34.4-34.4 34.4"/>
            <path class="st1" d="M470.7 1365.4c-22.3 0-40.5-18.2-40.5-40.5v-256.6c0-22.3 18.2-40.5 40.5-40.5h978.7c22.3 0 40.5 18.2 40.5 40.5v256.6c0 22.3-18.2 40.5-40.5 40.5"/>
            <path class="st1" d="M1449.3 1365.4h205.8c26.4 0 48 21.6 48 48v241.7c0 26.4-21.6 48-48 48H264.9c-26.4 0-48-21.6-48-48v-241.7c0-26.4 21.6-48 48-48h1184.4z"/>
            <path class="st1" d="M960 504.2v186"/>
            <path class="st1" d="M960 216.9s88.7 31.3 88.7 143.6S960 504.2 960 504.2s-88.7-31.3-88.7-143.6S960 216.9 960 216.9z"/>
        </g>
    </g>
</svg>
