<svg xmlns="http://www.w3.org/2000/svg" viewBox="0 0 1920 1920">
    <style>
        .st0{fill:#fff}.st1{fill:none;stroke:#231f20;stroke-width:50;stroke-linecap:round;stroke-linejoin:round;stroke-miterlimit:10}
    </style>
    <path class="st0" d="M711.1 467.3c0 112.3-88.7 143.6-88.7 143.6s-88.7-31.3-88.7-143.6 88.7-143.6 88.7-143.6 88.7 31.3 88.7 143.6zM960 323.7s-88.7 31.3-88.7 143.6S960 611 960 611s88.7-31.3 88.7-143.6c0-112.4-88.7-143.7-88.7-143.7zm337.5 0s-88.7 31.3-88.7 143.6 88.7 143.6 88.7 143.6 88.7-31.3 88.7-143.6-88.7-143.6-88.7-143.6z" id="Layer_9"/>
    <path class="st0" d="M1703.1 1047.4v79.3c0 136.2-110.4 246.5-246.5 246.5S1210 1262.9 1210 1126.7h-3.8c0 136.2-110.4 246.5-246.5 246.5S713 1262.9 713 1126.7c0 136.2-110.4 246.5-246.5 246.5S220 1262.9 220 1126.7v-79.3C220 909.7 332.7 797 470.4 797h982.1c137.8 0 250.6 112.7 250.6 250.4z" id="Layer_10"/>
    <path class="st0" d="M1703.1 1126.7V1703H220v-576.3c0 136.2 110.4 246.5 246.5 246.5S713 1262.9 713 1126.7c0 136.2 110.4 246.5 246.5 246.5s246.5-110.4 246.5-246.5h3.8c0 136.2 110.4 246.5 246.5 246.5s246.8-110.3 246.8-246.5z" id="Layer_11"/>
    <g id="STROKES">
        <g id="XMLID_1_">
            <path class="st1" d="M1703.1 1126.7V1703H220v-655.6C220 909.7 332.7 797 470.4 797h982.1c137.8 0 250.5 112.7 250.5 250.5v79.2z"/>
            <path class="st1" d="M960 611v186"/>
            <path class="st1" d="M960 323.7s88.7 31.3 88.7 143.6C1048.7 579.7 960 611 960 611s-88.7-31.3-88.7-143.6S960 323.7 960 323.7z"/>
            <path class="st1" d="M622.5 611v186"/>
            <path class="st1" d="M622.5 323.7s88.7 31.3 88.7 143.6-88.7 143.6-88.7 143.6-88.7-31.3-88.7-143.6 88.7-143.6 88.7-143.6z"/>
            <path class="st1" d="M1297.5 611v186"/>
            <path class="st1" d="M1297.5 323.7s88.7 31.3 88.7 143.6-88.7 143.6-88.7 143.6-88.7-31.3-88.7-143.6 88.7-143.6 88.7-143.6z"/>
            <path class="st1" d="M1703.1 1126.7c0 136.2-110.4 246.5-246.5 246.5S1210 1262.9 1210 1126.7h-3.8c0 136.2-110.4 246.5-246.5 246.5S713 1262.9 713 1126.7c0 136.2-110.4 246.5-246.5 246.5S220 1262.9 220 1126.7"/>
        </g>
    </g>
</svg>
