<svg xmlns="http://www.w3.org/2000/svg" viewBox="0 0 1920 1920">
    <style>
        .st0{fill:#fff}.st1{fill:none;stroke:#231f20;stroke-width:50;stroke-linecap:round;stroke-linejoin:round;stroke-miterlimit:10}
    </style>
    <path class="st0" d="M1048.7 360.6c0 112.3-88.7 143.6-88.7 143.6s-88.7-31.3-88.7-143.6S960 216.9 960 216.9s88.7 31.3 88.7 143.7zM1470 216.9s-88.7 31.3-88.7 143.7c0 112.3 88.7 143.6 88.7 143.6s88.7-31.3 88.7-143.6-88.7-143.7-88.7-143.7zm-1020 0s-88.7 31.3-88.7 143.7c0 112.3 88.7 143.6 88.7 143.6s88.7-31.3 88.7-143.6S450 216.9 450 216.9z" id="Layer_2"/>
    <path class="st0" d="M1703.1 940.5v256.2H216.9V940.5c0-137.7 112.6-250.3 250.3-250.3h985.6c137.6 0 250.3 112.6 250.3 250.3z" id="Layer_3"/>
    <path class="st0" d="M216.9 1196.6H1703V1703H216.9z" id="Layer_4"/>
    <g id="STROKES">
        <g id="XMLID_1_">
            <path class="st1" d="M1703.1 1196.6V1703H216.9V940.5c0-137.7 112.6-250.3 250.3-250.3h985.6c137.6 0 250.3 112.6 250.3 250.3v256.1z"/>
            <path class="st1" d="M450 504.2v186"/>
            <path class="st1" d="M960 504.2v186"/>
            <path class="st1" d="M1470 504.2v186"/>
            <path class="st1" d="M450 216.9s88.7 31.3 88.7 143.6S450 504.2 450 504.2s-88.7-31.3-88.7-143.6S450 216.9 450 216.9z"/>
            <path class="st1" d="M960 216.9s88.7 31.3 88.7 143.6S960 504.2 960 504.2s-88.7-31.3-88.7-143.6S960 216.9 960 216.9z"/>
            <path class="st1" d="M1470 216.9s88.7 31.3 88.7 143.6-88.7 143.7-88.7 143.7-88.7-31.3-88.7-143.6c.1-112.3 88.7-143.7 88.7-143.7z"/>
            <path class="st1" d="M216.9 1196.6h1486.2"/>
        </g>
    </g>
</svg>
