<svg xmlns="http://www.w3.org/2000/svg" viewBox="0 0 1920 1920">
    <style>
        .st0{fill:#fff}.st1{fill:none;stroke:#231f20;stroke-width:50;stroke-linecap:round;stroke-linejoin:round;stroke-miterlimit:10}
    </style>
    <path class="st0" d="M1256.6 316.4c47.6 117.1-53.7 233.1-53.7 233.1-56.8 19.7-97.6 73.7-97.6 137.2 0-80.2-65-145.2-145.2-145.2s-145.2 65-145.2 145.2c0-63.5-40.8-117.5-97.6-137.2-1.3-1.5-101.1-116.7-53.7-233.1 0 0 143 173 204.6 159l-51.8-159L960 430.5l143.8-114.1-51.9 159c61.7 14 204.7-159 204.7-159z" id="Layer_2"/>
    <path class="st0" d="M1250.4 541.5c80.2 0 145.2 65 145.2 145.2s-65 145.2-145.2 145.2c-80.2 0-145.2-65-145.2-145.2 0-63.5 40.8-117.5 97.6-137.2 14.9-5.2 30.9-8 47.6-8zm-533.2 8c-14.9-5.2-30.9-8-47.6-8-80.2 0-145.2 65-145.2 145.2s65 145.2 145.2 145.2c80.2 0 145.2-65 145.2-145.2 0-63.5-40.8-117.5-97.6-137.2zm533.2 427.6c0 80.2 65 145.2 145.2 145.2 80.2 0 145.2-65 145.2-145.2 0-80.2-65-145.2-145.2-145.2-80.2 0-145.2 65-145.2 145.2zm-145.2 290.4c0 80.2 65 145.2 145.2 145.2 80.2 0 145.2-65 145.2-145.2 0-80.2-65-145.2-145.2-145.2-80.2 0-145.2 65-145.2 145.2zM960 977.1c0 80.2 65 145.2 145.2 145.2 80.2 0 145.2-65 145.2-145.2 0-80.2-65-145.2-145.2-145.2-80.2 0-145.2 65-145.2 145.2zm-18.5 580.8c0 80.2 65 145.2 145.2 145.2 80.2 0 145.2-65 145.2-145.2 0-80.2-65-145.2-145.2-145.2-80.2 0-145.2 65-145.2 145.2zM814.8 686.7c0 80.2 65 145.2 145.2 145.2s145.2-65 145.2-145.2-65-145.2-145.2-145.2-145.2 65-145.2 145.2zm0 580.8c0 80.2 65 145.2 145.2 145.2s145.2-65 145.2-145.2c0-80.2-65-145.2-145.2-145.2s-145.2 65-145.2 145.2zM669.6 977.1c0 80.2 65 145.2 145.2 145.2 80.2 0 145.2-65 145.2-145.2 0-80.2-65-145.2-145.2-145.2-80.2 0-145.2 65-145.2 145.2zm-18.5 580.8c0 80.2 65 145.2 145.2 145.2s145.2-65 145.2-145.2c0-80.2-65-145.2-145.2-145.2s-145.2 65-145.2 145.2zm-126.7-290.4c0 80.2 65 145.2 145.2 145.2 80.2 0 145.2-65 145.2-145.2 0-80.2-65-145.2-145.2-145.2-80.2 0-145.2 65-145.2 145.2zM379.2 977.1c0 80.2 65 145.2 145.2 145.2s145.2-65 145.2-145.2c0-80.2-65-145.2-145.2-145.2s-145.2 65-145.2 145.2z" id="Layer_3"/>
    <g id="STROKES">
        <g id="XMLID_1_">
            <path class="st1" d="M717.2 549.5c56.8 19.7 97.6 73.7 97.6 137.2 0 80.2-65 145.2-145.2 145.2-80.2 0-145.2-65-145.2-145.2s65-145.2 145.2-145.2c16.7 0 32.7 2.8 47.6 8"/>
            <path class="st1" d="M960 977.1c0 80.2-65 145.2-145.2 145.2-80.2 0-145.2-65-145.2-145.2 0-80.2 65-145.2 145.2-145.2 80.2 0 145.2 65 145.2 145.2z"/>
            <path class="st1" d="M669.6 977.1c0 80.2-65 145.2-145.2 145.2s-145.2-65-145.2-145.2c0-80.2 65-145.2 145.2-145.2s145.2 65 145.2 145.2z"/>
            <path class="st1" d="M1250.4 977.1c0 80.2-65 145.2-145.2 145.2-80.2 0-145.2-65-145.2-145.2 0-80.2 65-145.2 145.2-145.2 80.2 0 145.2 65 145.2 145.2z"/>
            <path class="st1" d="M1540.8 977.1c0 80.2-65 145.2-145.2 145.2-80.2 0-145.2-65-145.2-145.2 0-80.2 65-145.2 145.2-145.2 80.2 0 145.2 65 145.2 145.2z"/>
            <circle class="st1" cx="960" cy="686.7" r="145.2"/>
            <path class="st1" d="M1202.8 549.5c14.9-5.2 30.9-8 47.6-8 80.2 0 145.2 65 145.2 145.2s-65 145.2-145.2 145.2c-80.2 0-145.2-65-145.2-145.2 0-63.5 40.8-117.5 97.6-137.2z"/>
            <path class="st1" d="M814.8 1267.5c0 80.2-65 145.2-145.2 145.2-80.2 0-145.2-65-145.2-145.2 0-80.2 65-145.2 145.2-145.2 80.2 0 145.2 65 145.2 145.2z"/>
            <ellipse class="st1" cx="960" cy="1267.5" rx="145.2" ry="145.2"/>
            <path class="st1" d="M1395.6 1267.5c0 80.2-65 145.2-145.2 145.2-80.2 0-145.2-65-145.2-145.2 0-80.2 65-145.2 145.2-145.2 80.2 0 145.2 65 145.2 145.2z"/>
            <circle class="st1" cx="796.3" cy="1557.9" r="145.2"/>
            <path class="st1" d="M1231.9 1557.9c0 80.2-65 145.2-145.2 145.2-80.2 0-145.2-65-145.2-145.2 0-80.2 65-145.2 145.2-145.2 80.2 0 145.2 65 145.2 145.2z"/>
            <path class="st1" d="M717.2 549.5c-1.3-1.5-101.1-116.8-53.7-233.1 0 0 143 173 204.6 159l-51.8-159L960 430.5"/>
            <path class="st1" d="M1202.8 549.5s101.4-116 53.7-233.1c0 0-143 173-204.6 159l51.9-159L960 430.5V217"/>
        </g>
    </g>
</svg>
