<svg xmlns="http://www.w3.org/2000/svg" viewBox="0 0 1920 1920">
    <style>
        .st0{fill:#fff}.st1{fill:none;stroke:#231f20;stroke-width:50;stroke-linecap:round;stroke-linejoin:round;stroke-miterlimit:10}
    </style>
    <path class="st0" d="M1132.1 535.3c-67.6 0-128.7 28.1-172.1 73.2-43.5-45.1-104.5-73.2-172.1-73.2-9 0-18 .5-26.7 1.5L689 366.5s140.4 100.1 192.8 87.3l-44.1-145.7L960 412.6l122.2-104.5-44.1 145.7c52.4 12.8 192.8-87.3 192.8-87.3l-72.2 170.2c-8.6-.9-17.5-1.4-26.6-1.4z" id="Layer_4"/>
    <path class="st0" d="M1158.8 536.8c109.8 12.2 197.2 98.9 210.5 208.4 100.3 28.4 173.9 120.6 173.9 230 0 77.6-37 146.6-94.4 190.3 8.8 24.8 13.5 51.6 13.5 79.4 0 98.5-59.6 183.1-144.7 219.7.5 6.4.8 12.8.8 19.3 0 132-107 239-239 239-43.5 0-84.3-11.6-119.5-32-35.2 20.3-76 32-119.5 32-132 0-239-107-239-239 0-6.5.3-13 .8-19.3-85.1-36.6-144.7-121.2-144.7-219.7 0-27.8 4.8-54.5 13.5-79.4-57.4-43.7-94.4-112.6-94.4-190.3 0-109.4 73.5-201.7 173.9-230C563.9 635.7 651.3 549 761.2 536.8c8.8-1 17.7-1.5 26.7-1.5 67.6 0 128.7 28.1 172.1 73.2 43.5-45.1 104.5-73.2 172.1-73.2 9.1 0 18 .5 26.7 1.5z" id="Layer_7"/>
    <g id="STROKES">
        <g id="XMLID_2_">
            <path class="st1" d="M761.2 536.8C651.3 549 563.9 635.7 550.6 745.2c-100.4 28.4-173.9 120.6-173.9 230 0 77.6 37 146.6 94.4 190.3-8.8 24.8-13.5 51.6-13.5 79.4 0 98.5 59.6 183.1 144.7 219.7-.5 6.4-.8 12.8-.8 19.3 0 132 107 239 239 239 43.5 0 84.3-11.6 119.5-32 35.2 20.3 76 32 119.5 32 132 0 239-107 239-239 0-6.5-.3-13-.8-19.3 85.1-36.6 144.7-121.2 144.7-219.7 0-27.8-4.8-54.5-13.5-79.4 57.3-43.7 94.4-112.6 94.4-190.3 0-109.4-73.5-201.7-173.9-230-13.3-109.5-100.7-196.2-210.5-208.4-8.8-1-17.7-1.5-26.7-1.5-67.6 0-128.7 28.1-172.1 73.2-43.5-45.1-104.5-73.2-172.1-73.2-9.2 0-18.1.5-26.8 1.5z"/>
            <path class="st1" d="M761.2 536.8L689 366.5s140.4 100.1 192.8 87.3l-44.1-145.7L960 412.6"/>
            <path class="st1" d="M1158.8 536.8l72.2-170.2s-140.4 100.1-192.8 87.3l44.1-145.7L960 412.6V216.9"/>
        </g>
    </g>
</svg>
