<svg xmlns="http://www.w3.org/2000/svg" viewBox="0 0 1920 1920">
    <style>
        .st0{fill:#fff}.st1{fill:none;stroke:#231f20;stroke-width:50;stroke-linecap:round;stroke-linejoin:round;stroke-miterlimit:10}
    </style>
    <path class="st0" d="M1581.6 926.1c0-116.6-78.4-214.9-185.3-245.1-15.3-126-122.7-223.7-252.8-223.7-72.1 0-137.1 29.9-183.4 78-46.3-48.1-111.4-78-183.4-78-130.2 0-237.5 97.6-252.8 223.7C417 711.2 338.6 809.5 338.6 926.1c0 82.7 39.5 156.3 100.6 202.8-9.3 26.5-14.4 54.9-14.4 84.6 0 105 63.5 195.1 154.2 234.1-.5 6.8-.8 13.7-.8 20.6 0 140.7 114 254.7 254.7 254.7 46.4 0 89.9-12.4 127.4-34.1 37.5 21.7 81 34.1 127.4 34.1 140.7 0 254.7-114 254.7-254.7 0-6.9-.3-13.8-.8-20.6 90.7-39 154.2-129.1 154.2-234.1 0-29.7-5.1-58.1-14.4-84.6 60.7-46.6 100.2-120.1 100.2-202.8z" id="Layer_5"/>
    <path class="st0" d="M1182.9 269.8s-12.7 78.2-79.2 144.6S960 492.6 960 492.6s12.7-78.2 79.2-144.6 143.7-78.2 143.7-78.2z" id="Layer_6"/>
    <g id="STROKES">
        <path class="st1" d="M1182.9 269.8s-12.7 78.2-79.2 144.6S960 492.6 960 492.6s12.7-78.2 79.2-144.6 143.7-78.2 143.7-78.2z"/>
        <path class="st1" d="M1581.6 926.1c0-116.6-78.4-214.9-185.3-245.1-15.3-126-122.7-223.7-252.8-223.7-72.1 0-137.1 29.9-183.4 78-46.3-48.1-111.4-78-183.4-78-130.2 0-237.5 97.6-252.8 223.7C417 711.2 338.6 809.5 338.6 926.1c0 82.7 39.5 156.3 100.6 202.8-9.3 26.5-14.4 54.9-14.4 84.6 0 105 63.5 195.1 154.2 234.1-.5 6.8-.8 13.7-.8 20.6 0 140.7 114 254.7 254.7 254.7 46.4 0 89.9-12.4 127.4-34.1 37.5 21.7 81 34.1 127.4 34.1 140.7 0 254.7-114 254.7-254.7 0-6.9-.3-13.8-.8-20.6 90.7-39 154.2-129.1 154.2-234.1 0-29.7-5.1-58.1-14.4-84.6 60.7-46.6 100.2-120.1 100.2-202.8z"/>
        <path class="st1" d="M960 535.3V216.9"/>
    </g>
</svg>
