<svg xmlns="http://www.w3.org/2000/svg" viewBox="0 0 1920 1920">
    <style>
        .st0{fill:#fff}.st1{fill:none;stroke:#231f20;stroke-width:50;stroke-linecap:round;stroke-linejoin:round;stroke-miterlimit:10}
    </style>
    <path class="st0" d="M1559.9 696.7c-46-30.9-94.2-127-149-245.3-54.8-118.4-177.2-136.5-177.2-136.5C1233.7 531.4 960 681 960 681S686.3 531.4 686.3 314.8c0 0-122.4 18.2-177.2 136.5-54.8 118.4-103 214.5-149 245.3-44.6 29.9-87.1 100.7-61.9 148.9.8 1.6 1.7 3.1 2.7 4.7 30.4 47.8 95.2 207.4 211.5 265.8 1.1.5 2.2 1.1 3.3 1.6l50.9-9.4c20.7 35.8 54.4 61.2 107 69 0 0-94.9 29.5-168.5 300.2 0 0 53.5 126.5 454.9 126.5s454.9-126.5 454.9-126.5c-73.6-270.7-168.5-300.2-168.5-300.2 52.5-7.8 86.3-33.2 107-69l50.9 9.4c1.1-.5 2.2-1.1 3.3-1.6 116.3-58.4 181.1-218 211.5-265.8 1-1.5 1.9-3.1 2.7-4.7 25.2-48.1-17.3-119-61.9-148.8z" id="Layer_6"/>
    <path class="st0" d="M300.9 850.3c-1-1.5-1.9-3.1-2.7-4.7L217 923.8s54.2 179.9 210.9 253.5l84.6-61.2C396.1 1057.7 331.3 898 300.9 850.3zm1320.9-4.7c-.8 1.6-1.7 3.1-2.7 4.7-30.4 47.8-95.2 207.4-211.5 265.8l84.6 61.2c156.7-73.5 210.9-253.5 210.9-253.5l-81.3-78.2z" id="Layer_7"/>
    <g id="STROKES">
        <path class="st1" d="M512.4 1116.1l-84.6 61.2c-156.7-73.5-210.9-253.5-210.9-253.5l81.3-78.2c.8 1.6 1.7 3.1 2.7 4.7 30.4 47.7 95.2 207.4 211.5 265.8z"/>
        <path class="st1" d="M569.1 515.5s38.7 65.8 17.4 172.2c-16.3 81.3-86.7 304.9-19.9 420.5"/>
        <path class="st1" d="M1703.1 923.8s-54.2 179.9-210.9 253.5l-84.6-61.2c116.3-58.4 181.1-218 211.5-265.8 1-1.5 1.9-3.1 2.7-4.7l81.3 78.2z"/>
        <path class="st1" d="M1353.4 1108.3c66.8-115.7-3.6-339.3-19.9-420.5-21.3-106.4 17.4-172.2 17.4-172.2"/>
        <path class="st1" d="M1621.8 845.6c-.8 1.6-1.7 3.1-2.7 4.7-30.4 47.8-95.2 207.4-211.5 265.8-1.1.5-2.2 1.1-3.3 1.6l-50.9-9.4c-20.7 35.7-54.4 61.2-107 69 0 0 94.9 29.5 168.5 300.2 0 0-53.5 126.5-454.9 126.5s-454.9-126.5-454.9-126.5c73.6-270.7 168.5-300.2 168.5-300.2-52.5-7.8-86.3-33.2-107-69l-50.9 9.4c-1.1-.5-2.2-1.1-3.3-1.6-116.3-58.4-181.1-218-211.5-265.8-1-1.5-1.9-3.1-2.7-4.7-25.2-48.2 17.3-119.1 61.9-148.9 46-30.9 94.3-127 149-245.3C563.9 333 686.3 314.8 686.3 314.8 686.3 531.4 960 681 960 681s273.7-149.6 273.7-366.2c0 0 122.3 18.2 177.2 136.5 54.8 118.4 103 214.4 149 245.3 44.6 29.9 87.1 100.8 61.9 149z"/>
        <path class="st1" d="M673.6 1177.3s195.4 107.6 572.9 0"/>
        <path class="st1" d="M1115.5 1201.2s61.8-101.6 148.1-121.2"/>
        <path class="st1" d="M804.6 1201.2s-61.8-101.6-148.1-121.2"/>
    </g>
</svg>
