<svg xmlns="http://www.w3.org/2000/svg" viewBox="0 0 1920 1920">
    <style>
        .st0{fill:#fff}.st1{fill:none;stroke:#231f20;stroke-width:50;stroke-linecap:round;stroke-linejoin:round;stroke-miterlimit:10}
    </style>
    <path class="st0" d="M1415 1570.6c-15.8-20.1-38.6-109.5-57.4-220.6-1.2-7.1-2.4-14.2-3.6-21.5-.3-1.7-.6-3.5-.9-5.2v-.2c-.3-1.8-.6-3.6-.9-5.5s-.6-3.7-.9-5.5c-.3-1.8-.6-3.7-.9-5.5-.3-2-.6-4-.9-5.9l-1.2-8.4c-.4-2.6-.8-5.3-1.2-8-.3-1.9-.5-3.8-.8-5.6-.3-1.9-.5-3.8-.8-5.6-.4-2.5-.7-5-1.1-7.5 0-.2-.1-.4-.1-.6-.3-2.3-.6-4.5-.9-6.8l-.3-2.1c-.3-2.4-.7-4.9-1-7.4-.3-2.1-.5-4.1-.8-6.2-.3-2.1-.5-4.1-.8-6.2-.1-1-.3-2.1-.4-3.1l-1.2-9.6c-.3-2.6-.6-5.1-.9-7.7 0-.3-.1-.7-.1-1-.3-2.4-.6-4.8-.8-7.2-.3-2.4-.6-4.8-.8-7.2-.3-2.4-.5-4.8-.8-7.2 0-.2 0-.3-.1-.5-.4-3.9-.8-7.7-1.3-11.6-.1-.8-.2-1.6-.2-2.3-.1-1.2-.2-2.5-.4-3.7-.4-3.6-.8-7.2-1.1-10.8-.1-1.5-.3-3-.4-4.5.4 3.8.8 7.7 1.2 11.5-.4-4.3-.9-8.5-1.3-12.8v-.4c0-.3-.1-.6-.1-.8 0 .2 0 .3.1.5 0-.2 0-.3-.1-.5-.2-2.4-.4-4.8-.7-7.2-.2-2.1-.4-4.1-.6-6.2-.2-2.7-.5-5.4-.7-8.1-.4-4.8-.8-9.5-1.2-14.2-.2-2.4-.4-4.7-.6-7.1-.2-2.3-.4-4.7-.5-7-.2-2.4-.3-4.7-.5-7-.1-2.4-.3-4.7-.5-7s-.3-4.7-.4-7c-.2-2.3-.3-4.6-.4-6.9-.3-4.9-.6-9.7-.8-14.6 0-.3 0-.6-.1-1-.1-1.6-.1-3.3-.2-4.9 0-.9-.1-1.8-.1-2.6-.1-1.8-.1-3.6-.2-5.4-.1-2.1-.2-4.2-.3-6.2 0-1-.1-2.1-.1-3.1s-.1-2.1-.1-3.1c-.1-2.1-.1-4.2-.2-6.3-.1-2.1-.1-4.2-.2-6.3-.1-4.2-.2-8.3-.3-12.4 0-1.4-.1-2.8-.1-4.2 0-1.2 0-2.4-.1-3.6 0-2.1 0-4.3-.1-6.4V993.3c0-7.6.1-15.1.2-22.5.1-2.9.1-5.8.2-8.7.1-4.3.3-8.6.5-12.8.1-2.8.3-5.6.4-8.3 1.6-27.5 4.5-52.1 9-72.6 39.2-177.1 13.6-219.9-16.6-355.8-30.2-135.9 71.4-272.1 71.4-272.1l-167.7-23.8c-3 69-23.2 169-107.6 225.2-22.2 14.8-48.8 26.6-80.7 34-24.2 5.6-51.4 8.7-82.1 8.7-30.7 0-57.9-3.1-82.1-8.7-31.9-7.4-58.5-19.2-80.7-34-42.2-28.1-68.4-67.2-84.4-107.8-16-40.6-21.8-82.9-23.3-117.4L512 240.3s101.6 136.3 71.4 272.1c-30.2 135.8-55.9 178.7-16.6 355.8 18.6 84.2 10 235.8-8.4 377-4.7 36-10 71.4-15.7 104.7-18.9 111.1-41.6 200.5-57.4 220.6 0 0-8.1 91.9 275.1 43.1-.1 1-.1 2-.1 3 0 47.3 84.7 85.6 189.1 85.6 104.5 0 189.1-38.3 189.1-85.6v-1.2c.9-1.2 1.3-1.9 1.3-1.9 283.3 49 275.2-42.9 275.2-42.9zm-654.2 41.1c.2-1 .4-2.4.6-4.2v-.1c-.2 1.8-.4 3.2-.6 4.3z" id="Layer_5"/>
    <g id="STROKES">
        <path class="st1" d="M1334.1 1178.9c-.8-7.2-1.5-14.4-2.2-21.5.7 7.1 1.4 14.3 2.2 21.5z"/>
        <path class="st1" d="M1139.9 1613.7s-.5.7-1.3 1.9v1.2c0 47.3-84.7 85.6-189.1 85.6s-189.1-38.3-189.1-85.6c0-1 0-2 .1-3 0 0 .3-2.2 1-6.3-.5 2.1-.8 4.2-1 6.3-283.2 48.8-275.1-43.1-275.1-43.1 15.8-20.1 38.6-109.5 57.4-220.6 5.7-33.4 11-68.7 15.7-104.7 18.4-141.3 27-292.9 8.4-377-39.2-177.1-13.6-219.9 16.6-355.8 30.1-136-71.5-272.3-71.5-272.3l167.7-23.8c3 69 23.2 168.9 107.6 225.2 22.2 14.8 48.8 26.6 80.7 34 24.2 5.6 51.4 8.7 82.1 8.7 30.7 0 57.9-3.1 82.1-8.7 31.9-7.4 58.5-19.2 80.7-34 84.4-56.3 104.7-156.2 107.6-225.2l167.7 23.8s-101.6 136.3-71.4 272.1c30.2 135.9 55.9 178.7 16.6 355.8-4.6 20.6-7.5 45.2-9 72.6-.2 2.7-.3 5.5-.4 8.3-.2 4.2-.4 8.5-.5 12.8-.1 2.9-.2 5.8-.2 8.7-.1 7.3-.2 14.8-.2 22.5v12.7c0 1.2 0 2.4.1 3.6 0 1.4 0 2.8.1 4.2.1 4.1.1 8.2.3 12.4.1 2.1.1 4.2.2 6.3.1 2.1.1 4.2.2 6.3 0 1 .1 2 .1 3.1 0 1 .1 2 .1 3.1.1 2.1.2 4.1.3 6.2.1 1.8.2 3.6.2 5.5 0 .9.1 1.8.1 2.6.1 1.6.2 3.3.2 4.9v1c.3 4.8.5 9.7.8 14.6.1 2.3.3 4.6.4 6.9.1 2.3.3 4.6.5 7 .1 2.3.3 4.7.5 7s.3 4.7.5 7 .4 4.7.5 7.1c.2 2.4.4 4.7.5 7.1.4 4.7.8 9.5 1.2 14.2.2 2.7.5 5.4.7 8.1.2 2.1.4 4.2.6 6.2.2 2.4.4 4.8.7 7.2.7 7.2 1.4 14.3 2.2 21.5.1.8.2 1.5.2 2.3.4 3.8.8 7.7 1.3 11.6 0 .2 0 .3.1.5.3 2.4.5 4.8.8 7.2.3 2.4.5 4.8.8 7.2.3 2.4.6 4.8.8 7.2 0 .3.1.7.1 1 .3 2.6.6 5.1.9 7.7l1.2 9.6c1 7.7 2 15.3 3 22.9.1.7.2 1.4.3 2.2.3 2.3.6 4.5.9 6.8 0 .2.1.4.1.6.3 2.5.7 5 1 7.5.3 1.9.5 3.8.8 5.6.3 1.9.5 3.8.8 5.6.4 2.7.8 5.3 1.2 8 .4 2.8.8 5.6 1.3 8.4.3 2 .6 4 .9 5.9.3 1.8.6 3.7.9 5.5.3 1.8.6 3.7.9 5.5.3 1.8.6 3.7.9 5.5v.2c.3 1.7.6 3.5.9 5.2 1.2 7.2 2.4 14.4 3.6 21.5 18.9 111.1 41.6 200.5 57.4 220.6-.2-.1 7.9 91.8-275.3 43z"/>
        <path class="st1" d="M761.4 1607.4c-.6 4.1-1 6.3-1 6.3.2-2.1.5-4.2 1-6.3z"/>
        <path class="st1" d="M709.5 556.5c26.4-57.1 57.4-94.3 77.8-114.7"/>
        <path class="st1" d="M827.9 587.4c6.1-34.8 24.9-79.4 40.2-111.7"/>
        <path class="st1" d="M950.2 603.9V484.4"/>
        <path class="st1" d="M792.1 1267.4c1.3 119-25.3 303.7-30.7 340"/>
        <path class="st1" d="M1113 441.7c20.4 20.4 51.5 57.6 77.8 114.7"/>
        <path class="st1" d="M1032.3 475.7c15.3 32.4 34.1 76.9 40.2 111.7"/>
        <path class="st1" d="M1139.9 1613.7s-33-213.8-31.6-346.3"/>
        <path class="st1" d="M558.5 1245.3v-.1"/>
        <path class="st1" d="M761.4 1607.4c-.6 4.1-1 6.3-1 6.3.2-2.1.5-4.2 1-6.3z"/>
    </g>
</svg>
