<svg xmlns="http://www.w3.org/2000/svg" viewBox="0 0 1920 1920">
    <style>
        .st0{fill:#fff}.st1{fill:none;stroke:#231f20;stroke-width:50;stroke-linecap:round;stroke-linejoin:round;stroke-miterlimit:10}
    </style>
    <path class="st0" d="M960 381.2c365.3 0 661.4 296.1 661.4 661.4 0 365.3-296.1 661.4-661.4 661.4s-661.4-296.1-661.4-661.4c0-365.3 296.1-661.4 661.4-661.4z" id="Layer_1"/>
    <path class="st0" d="M1119 381.2l27.7-112.2-116.2 17-70.5-49.8-70.5 49.8-116.2-17L801 381.2" id="Layer_6"/>
    <g id="STROKES">
        <path class="st1" d="M1621.4 1042.6c0 365.3-296.1 661.4-661.4 661.4s-661.4-296.1-661.4-661.4c0-365.3 296.1-661.4 661.4-661.4s661.4 296.1 661.4 661.4z"/>
        <path class="st1" d="M1119 381.2l27.7-112.2-116.2 17-70.5-49.8-70.5 49.8-116.2-17L801 381.2"/>
    </g>
</svg>
