<svg xmlns="http://www.w3.org/2000/svg" viewBox="0 0 1920 1920">
    <style>
        .st0{fill:#fff}.st1{fill:none;stroke:#231f20;stroke-width:50;stroke-linecap:round;stroke-linejoin:round;stroke-miterlimit:10}
    </style>
    <path class="st0" d="M1695.4 850.6c60.7 406.1-219.4 784.5-625.5 845.2-406.1 60.7-784.5-219.4-845.2-625.5C164 664.2 444 285.8 850.2 225.1c406.1-60.7 784.5 219.4 845.2 625.5zm-605.3-331.5l131.1-45.8-145-18.4 57.9-96.3-125.8 52.7L966 309.6l-47.8 99.2-122.8-59.5 52.6 99.3-145.8 10.5L830.6 512 730 587.7l144.1-18.3-8.3 105.3 92.4-80.9 87.9 85.8-2.6-105.6 142.9 26.1-96.3-81z" id="Layer_4"/>
    <path class="st0" d="M1221.2 473.3l-131.1 45.8 96.3 81-142.9-26.1 2.6 105.7-87.9-85.8-92.4 80.9 8.3-105.4L730 587.7l100.6-75.6-128.4-52.9L848 448.7l-52.7-99.3 122.8 59.5 47.8-99.2 42.3 101.7 125.9-52.8-57.9 96.3z" id="Layer_5"/>
    <g id="STROKES">
        <path class="st1" d="M1695.4 850.6c60.7 406.1-219.4 784.5-625.5 845.2-406.1 60.7-784.5-219.4-845.2-625.5C164 664.2 444 285.8 850.2 225.1c406.1-60.7 784.5 219.4 845.2 625.5z"/>
        <path class="st1" d="M965.9 309.7l42.3 101.7 125.9-52.8-57.9 96.3 145 18.4-131.1 45.8 96.3 81-142.9-26.1 2.6 105.7-87.9-85.8-92.4 80.9 8.3-105.4L730 587.7l100.6-75.6-128.4-52.9L848 448.7l-52.7-99.3 122.8 59.5z"/>
    </g>
</svg>
