<svg xmlns="http://www.w3.org/2000/svg" viewBox="0 0 1920 1920">
    <style>
        .st0{fill:#fff}.st1{fill:none;stroke:#231f20;stroke-width:50;stroke-linecap:round;stroke-linejoin:round;stroke-miterlimit:10}
    </style>
    <path class="st0" d="M960 216.9c410.6 0 743.5 332.9 743.5 743.5S1370.6 1704 960 1704s-743.5-332.9-743.5-743.5S549.4 216.9 960 216.9zm109.8 126.5c0-33.6-49.1-60.8-109.8-60.8s-109.8 27.2-109.8 60.8c0 33.6 49.1 60.8 109.8 60.8s109.8-27.2 109.8-60.8z" id="Layer_3"/>
    <path class="st0" d="M1292.5 302.6l-90.8 47.6c83.2 5.5 127 89.3 127 89.3-20.6 14.3-49.2 30.1-85 41 49.6 81.7 49.7 160.4 49.7 160.4s-116.3 7.7-214.5-90.5c-13.8-13.8-25.7-28.1-35.9-42.5-16.3 111-84.2 179-84.2 179s-67.9-68-84.2-179c-10.2 14.4-22.1 28.7-35.9 42.5-98.2 98.2-214.5 90.5-214.5 90.5s0-78.7 49.7-160.4c-35.9-10.9-64.4-26.7-85-41 0 0 43.8-83.8 127-89.3l-90.8-47.6S723.1 217 960 217s332.5 85.6 332.5 85.6z" id="Layer_6"/>
    <path class="st0" d="M960 282.6c60.6 0 109.8 27.2 109.8 60.8 0 33.6-49.1 60.8-109.8 60.8S850.2 377 850.2 343.4c0-33.6 49.2-60.8 109.8-60.8z" id="Layer_7"/>
    <g id="STROKES">
        <circle class="st1" cx="960" cy="960.5" r="743.5"/>
        <path class="st1" d="M1069.8 343.4c0 33.6-49.1 60.8-109.8 60.8S850.2 377 850.2 343.4c0-33.6 49.1-60.8 109.8-60.8s109.8 27.2 109.8 60.8z"/>
        <path class="st1" d="M1292.5 302.6l-90.8 47.6c83.2 5.5 127 89.3 127 89.3-20.6 14.3-49.2 30.1-85 41 49.6 81.7 49.7 160.4 49.7 160.4s-116.3 7.7-214.5-90.5c-13.8-13.8-25.7-28.1-35.9-42.5-16.3 111-84.2 179-84.2 179s-67.9-68-84.2-179c-10.2 14.4-22.1 28.7-35.9 42.5-98.2 98.2-214.5 90.5-214.5 90.5s0-78.7 49.7-160.4c-35.9-10.9-64.4-26.7-85-41 0 0 43.8-83.8 127-89.3l-90.8-47.6S723.1 217 960 217s332.5 85.6 332.5 85.6z"/>
    </g>
</svg>
