<svg xmlns="http://www.w3.org/2000/svg" viewBox="0 0 1920 1920">
    <style>
        .st0{fill:#fff}.st1{fill:none;stroke:#231f20;stroke-width:50;stroke-linecap:round;stroke-linejoin:round;stroke-miterlimit:10}
    </style>
    <path class="st0" d="M1668.3 936.7c-5.3-4.8-11.1-9.1-17.3-12.8 8.8-14.6 13.9-31.6 13.9-49.9 0-11.9-2.2-23.3-6.1-33.9-13.7-36.5-48.9-62.4-90.2-62.4-52 0-94.4 41.3-96.2 92.9-.1.1-.2.3-.3.4 0 0-406.4 123.2-957.8 86.8-5.8-.4-11.5-1.3-17.1-2.7-13.1-3.3-36.8-10.9-61-26.4-2.7-1.7-5.3-3.6-7.8-5.5 1.1-6 1.6-12.2 1.6-18.5 0-58.9-47.7-106.6-106.6-106.6-58.9 0-106.6 47.7-106.6 106.6 0 38.9 20.9 73 52 91.6-8.9 14.6-13.9 31.6-13.9 49.9 0 53.2 43.1 96.3 96.3 96.3 37.8 0 70.5-21.8 86.3-53.5 25.6-6.1 61.7-10.8 115.1-11.8 0 0 426.2 2 787.8-59.1 0 0 90.1-4.2 150.8 14.9 8.3 50.5 52.2 89.1 105.1 89.1 58.9 0 106.6-47.7 106.6-106.6.2-31.3-13.3-59.4-34.6-78.8z" id="Layer_4"/>
    <g id="STROKES">
        <path class="st1" d="M1538.9 925.7c16.6-10.7 36.4-16.9 57.6-16.9 19.9 0 38.6 5.5 54.5 15 6.2 3.7 12 8 17.3 12.8 21.4 19.5 34.8 47.6 34.8 78.7 0 58.8-47.7 106.6-106.6 106.6-52.9 0-96.8-38.5-105.1-89.1"/>
        <path class="st1" d="M1491.4 1032.9c-60.7-19.1-150.8-14.9-150.8-14.9-361.6 61-787.8 59-787.8 59-53.4 1-89.5 5.7-115.1 11.8-15.7 31.7-48.5 53.5-86.3 53.5-53.2 0-96.3-43.1-96.3-96.3 0-18.3 5.1-35.4 13.9-49.9-31.2-18.6-52-52.6-52-91.6 0-58.9 47.7-106.6 106.6-106.6 58.9 0 106.6 47.7 106.6 106.6 0 6.3-.5 12.5-1.6 18.5 2.5 2 5.1 3.8 7.8 5.5 24.1 15.5 47.9 23.1 61 26.4 5.6 1.4 11.3 2.3 17.1 2.7 551.4 36.5 957.8-86.7 957.8-86.7.1-.1.2-.3.3-.4 1.8-51.6 44.2-92.9 96.2-92.9 41.3 0 76.5 26 90.2 62.4 4 10.5 6.1 21.9 6.1 33.9 0 18.3-5.1 35.4-13.9 49.9-15.9-9.5-34.6-15-54.5-15-21.2 0-41 6.2-57.6 16.9"/>
        <path class="st1" d="M269 996.2s33.3 7.3 70.5-5.5"/>
    </g>
</svg>
