<svg xmlns="http://www.w3.org/2000/svg" viewBox="0 0 1920 1920">
    <style>
        .st0{fill:#fff}.st1{fill:none;stroke:#231f20;stroke-width:50;stroke-linecap:round;stroke-linejoin:round;stroke-miterlimit:10}
    </style>
    <path class="st0" d="M1161.6 298.5c0 32.7-19.9 60.8-48.2 72.8-30.8 13-58 33.1-78.1 59.8-.9 1.1-1.7 2.3-2.6 3.4-38.9 52.6-63.6 114.4-72.5 179.3-9.4 69.2-15.6 154.9-15.6 260.8 0 312.9 38.9 554.1 62.4 671.3 38.8 5.7 68.4 39.6 67.3 80.3-1.1 42.1-35.6 76.2-77.7 76.9-44.2.7-80.3-34.9-80.3-79 0 43.6-35.4 79-79 79s-79-35.4-79-79c0-32.6 19.7-60.6 47.9-72.7 45.8-125.8 35.6-256.8 23-538.7-11-243.7 11.1-459.1 20.5-537 2-16.6-1.3-33.5-9.8-47.8-9.3-15.5-17.3-41.6-2.6-77.6 25.2-61.7 43.7-105.2 90.9-61.7.5.5 1 .9 1.6 1.4 26.1 22.7 66.6 11.7 79.3-20.5 11.6-29.3 40.1-50 73.5-50 43.6 0 79 35.4 79 79z" id="Layer_5"/>
    <path class="st1" d="M1161.6 298.5c0 32.7-19.9 60.8-48.3 72.8-30.8 13-58 33.1-78.1 59.8-.8 1.1-1.7 2.3-2.6 3.4-38.9 52.6-63.6 114.4-72.5 179.3-9.4 69.2-15.6 154.9-15.6 260.8 0 312.9 38.9 554.1 62.4 671.3 38.8 5.7 68.4 39.6 67.3 80.3-1.1 42.1-35.6 76.2-77.7 76.9-44.2.7-80.3-34.9-80.3-79 0 43.6-35.4 79-79 79s-79-35.4-79-79c0-32.6 19.7-60.6 47.9-72.7 45.8-125.8 35.6-256.8 23-538.7-10.9-243.7 11.1-459.1 20.6-537.1 2-16.6-1.3-33.5-9.8-47.8-9.3-15.5-17.3-41.6-2.6-77.6 25.2-61.7 43.7-105.2 90.9-61.7.5.5 1 .9 1.6 1.4 26.1 22.7 66.6 11.7 79.3-20.5 11.6-29.3 40.1-50 73.5-50 43.6.1 79 35.5 79 79.1z" id="STROKES"/>
</svg>
