<svg xmlns="http://www.w3.org/2000/svg" viewBox="0 0 1920 1920">
    <style>
        .st0{fill:#fff}.st1{fill:none;stroke:#231f20;stroke-width:50;stroke-linecap:round;stroke-linejoin:round;stroke-miterlimit:10}
    </style>
    <path class="st0" d="M1703.1 1327.9v102.6s-180.1-78.3-387.3-78.3c-207.1 0-355.8 78.3-355.8 78.3V470.6s148.7-78.3 355.8-78.3c207.1 0 387.3 78.3 387.3 78.3v857.3zM572.7 392.2c-207.1 0-355.8 78.3-355.8 78.3v959.9s148.7-78.3 355.8-78.3c207.1 0 387.3 78.3 387.3 78.3V470.6s-180.1-78.4-387.3-78.4z" id="Layer_6"/>
    <g id="Layer_7">
        <path class="st0" d="M1703.1 1430.4v97.3s-180.1-78.3-387.3-78.3c-207.1 0-355.8 78.3-355.8 78.3v-97.3s148.7-78.3 355.8-78.3c207.1 0 387.3 78.3 387.3 78.3z"/>
        <path class="st0" d="M960 1430.4v97.3s-180.1-78.3-387.3-78.3c-207.1 0-355.8 78.3-355.8 78.3v-97.3s148.7-78.3 355.8-78.3c207.2 0 387.3 78.3 387.3 78.3z"/>
    </g>
    <g id="STROKES">
        <g id="XMLID_1_">
            <path class="st1" d="M216.9 1236.9V470.6s148.7-78.3 355.8-78.3c207.1 0 387.3 78.3 387.3 78.3s148.7-78.3 355.8-78.3c207.1 0 387.3 78.3 387.3 78.3v857.3"/>
            <path class="st1" d="M1703.1 1430.4s-180.1-78.3-387.3-78.3c-207.1 0-355.8 78.3-355.8 78.3s-180.1-78.3-387.3-78.3c-207.1 0-355.8 78.3-355.8 78.3"/>
            <path class="st1" d="M960 1527.8V470.6"/>
            <path class="st1" d="M216.9 1236.9v290.8s148.7-78.3 355.8-78.3c207.1 0 387.3 78.3 387.3 78.3s148.7-78.3 355.8-78.3c207.1 0 387.3 78.3 387.3 78.3v-199.9"/>
            <path class="st1" d="M854.3 852.2c-60.6-21.2-136.1-51.4-238-55.3-177-6.8-307.8 55.3-307.8 55.3"/>
            <path class="st1" d="M854.3 1022.2c-60.6-21.2-136.1-51.4-238-55.3-177-6.8-307.8 55.3-307.8 55.3"/>
            <path class="st1" d="M854.3 682.2c-60.6-21.2-136.1-51.4-238-55.3-177-6.8-307.8 55.3-307.8 55.3"/>
            <path class="st1" d="M854.3 1192.2c-60.6-21.2-136.1-51.4-238-55.3-177-6.8-307.8 55.3-307.8 55.3"/>
            <path class="st1" d="M1065.7 852.2c60.6-21.2 136.1-51.4 238-55.3 177-6.8 307.8 55.3 307.8 55.3"/>
            <path class="st1" d="M1065.7 1022.2c60.6-21.2 136.1-51.4 238-55.3 177-6.8 307.8 55.3 307.8 55.3"/>
            <path class="st1" d="M1065.7 682.2c60.6-21.2 136.1-51.4 238-55.3 177-6.8 307.8 55.3 307.8 55.3"/>
            <path class="st1" d="M1065.7 1192.2c60.6-21.2 136.1-51.4 238-55.3 177-6.8 307.8 55.3 307.8 55.3"/>
        </g>
    </g>
</svg>
