<svg xmlns="http://www.w3.org/2000/svg" viewBox="0 0 1920 1920">
    <style>
        .st0{fill:#fff}.st1{fill:none;stroke:#231f20;stroke-width:50;stroke-linecap:round;stroke-linejoin:round;stroke-miterlimit:10}
    </style>
    <path class="st0" d="M1394.3 351.9H476.6c-14.1 0-27.6 5.5-37.7 15.3l-71.5 69.5c-34.8 33.9-10.9 92.9 37.7 92.9h869.3c59.2 0 107.1 48 107.1 107.1v877c0 48.2 58.3 72.4 92.4 38.3l79.4-79.4c10.1-10.1 15.9-23.9 15.9-38.3V526.7c-.1-96.5-78.4-174.8-174.9-174.8z" id="Layer_2"/>
    <path class="st1" d="M1394.3 351.9H476.6c-14.1 0-27.6 5.5-37.7 15.3l-71.5 69.5c-34.8 33.9-10.9 92.9 37.7 92.9h869.3c59.2 0 107.1 48 107.1 107.1v877c0 48.2 58.3 72.4 92.4 38.3l79.4-79.4c10.1-10.1 15.9-23.9 15.9-38.3V526.7c-.1-96.5-78.4-174.8-174.9-174.8z" id="STROKES"/>
</svg>
