<svg xmlns="http://www.w3.org/2000/svg" viewBox="0 0 1920 1920">
    <style>
        .st0{fill:#fff}.st1{fill:none;stroke:#231f20;stroke-width:50;stroke-linecap:round;stroke-linejoin:round;stroke-miterlimit:10}
    </style>
    <path class="st0" d="M1434 924.1l106.4 91.2-197.6 197.6-106.4-91.2L1434 924.1zm-948 0l-106.4 91.2 197.6 197.6 106.4-91.2L486 924.1z" id="Layer_3"/>
    <path class="st0" d="M1654.4 1113c58.4 50.1 65.2 138 15.1 196.4-27.6 32.1-66.6 48.6-105.8 48.6-32.1 0-64.3-11-90.6-33.6l-130.2-111.7 197.6-197.6 113.9 97.9zM869.3 595.4L486 924.1l197.6 197.6 276.4-237 276.4 237L1434 924.1l-383.3-328.7c-52.2-44.7-129.2-44.7-181.4 0zm-489.7 419.9l-114 97.7c-58.4 50.1-65.2 138-15.1 196.4 27.6 32.1 66.6 48.6 105.8 48.6 32.1 0 64.3-11 90.6-33.6l130.2-111.7-197.5-197.4z" id="Layer_5"/>
    <g id="STROKES">
        <path class="st1" d="M1540.4 1015.3l114 97.7c58.4 50.1 65.2 138 15.1 196.4-27.6 32.1-66.6 48.6-105.8 48.6-32.1 0-64.3-11-90.6-33.6l-130.2-111.7-106.4-91.2L960 884.7l-276.4 237-106.4 91.2L447 1324.6c-26.3 22.5-58.5 33.6-90.6 33.6-39.3 0-78.3-16.5-105.8-48.6-50.1-58.4-43.3-146.4 15.1-196.4l114-97.7L486 924.1l383.4-328.7c52.2-44.7 129.2-44.7 181.4 0L1434 924.1l106.4 91.2z"/>
        <path class="st1" d="M379.6 1015.3l197.6 197.6"/>
        <path class="st1" d="M486 924.1l197.6 197.6"/>
        <path class="st1" d="M1540.4 1015.3l-197.6 197.6"/>
        <path class="st1" d="M1434 924.1l-197.6 197.6"/>
    </g>
</svg>
