<svg xmlns="http://www.w3.org/2000/svg" viewBox="0 0 1920 1920">
    <style>
        .st0{fill:#fff}.st1{fill:none;stroke:#231f20;stroke-width:50;stroke-linecap:round;stroke-linejoin:round;stroke-miterlimit:10}
    </style>
    <path class="st0" d="M1312.3 1659.4c-70.6 20.6-77.7-43.3-116.9-140.1-8.6-21.3-18.7-44.1-31.4-68-3.5-6.7-7.1-12.9-10.8-18.7-68.9-110.5-153.2-78.1-153.2-78.1s3.5 62.4 29 98.3c11.4 16.1 15.9 66.7 17.3 117.8.1 4.3.2 8.6.3 12.8 1.1 58.6-1.4 114-1.4 114l22.4 5.7s3.8-59.7 15.6-123.1c.2-.9.3-1.8.5-2.7 6.4-33.5 15-67.8 26.4-94.6 10.8 25.2 19.4 51.5 25.4 78.3.1.6.3 1.3.4 1.9 4.3 19.5 7.7 40.1 19.2 56.4 4.1 5.8 9.2 11 14.5 15.7 25.5 22.9 50.8 33.4 85 33.6 20.1.1 48-.3 64.7-11.3-2.1.6-4.5 1.3-7 2.1zm-627.8-278.7c-7.4-18.2-16.1-37.9-27-58.4-3-5.7-6.1-11.1-9.3-16.1-59.2-94.9-131.6-67.1-131.6-67.1s3 53.6 24.9 84.4c9.8 13.8 13.6 57.3 14.8 101.1.1 3.7.2 7.4.3 11 .9 50.3-1.2 97.9-1.2 97.9l19.3 4.9s3.3-51.3 13.4-105.7c.1-.8.3-1.5.4-2.3 5.5-28.7 12.8-58.2 22.7-81.3 9.3 21.7 16.6 44.2 21.8 67.2.1.5.2 1.1.4 1.6 3.7 16.8 6.6 34.4 16.5 48.4 3.6 5 7.9 9.4 12.5 13.5 21.9 19.6 43.6 28.7 73 28.9 17.2.1 41.2-.3 55.6-9.7-2 .6-4.1 1.2-6.1 1.8-60.7 17.9-66.8-37-100.4-120.1z" id="Layer_10"/>
    <path class="st0" d="M1345.8 1462s-53.2-64.8-53.2-371.1 57.1-797.3 57.1-797.3c-143.1-99.6-296.6-66.3-332.3-56.6-5 1.4-7.7 2.3-7.7 2.3-63 123.9-33 409.1-13.2 548.8 6.3 44.3 16.2 88.1 29.8 130.7 31 97.5 61.2 229.9 22.8 274.7-45.7 53.3-49 160.8-49 160.8s84.3-32.4 153.2 78.1c3.6 5.8 7.2 12.1 10.8 18.7 12.7 23.9 22.8 46.7 31.4 68 39.2 96.8 46.3 160.7 116.9 140.1l7.2-2.1c80.9-24.4 113.7-50.5 130.7-133 17.5-84.8-104.5-62.1-104.5-62.1zm-532.2-130.4s-45.7-55.6-45.7-318.7c0-263.1 49-684.6 49-684.6-122.9-85.5-254.7-56.9-285.3-48.6-4.3 1.2-6.6 2-6.6 2C470.9 388.1 496.7 633 513.7 753c5.4 38.1 13.9 75.6 25.6 112.3 26.6 83.8 52.6 197.4 19.6 235.9-39.2 45.7-42.1 138-42.1 138s72.4-27.8 131.6 67.1c3.1 5 6.2 10.4 9.3 16.1 10.9 20.5 19.6 40.1 27 58.4 33.6 83.2 39.7 138 100.3 120.3 2.1-.6 4.1-1.2 6.1-1.8 69.4-21 97.6-43.4 112.3-114.2 14.9-73.1-89.8-53.5-89.8-53.5z" id="Layer_11"/>
    <g id="STROKES">
        <path class="st1" d="M1450.2 1524.2c-17.1 82.5-49.9 108.6-130.7 133-2.3.7-4.7 1.4-7.2 2.1-70.6 20.6-77.7-43.3-116.9-140.1-8.6-21.2-18.7-44.1-31.4-68-3.5-6.7-7.1-12.9-10.8-18.7-68.9-110.5-153.2-78.1-153.2-78.1s3.4-107.5 49-160.8c38.4-44.8 8.1-177.2-22.8-274.7-13.6-42.7-23.5-86.4-29.8-130.7-19.8-139.7-49.8-424.9 13.2-548.8 0 0 2.7-.9 7.7-2.3 35.7-9.8 189.2-43.1 332.3 56.6 0 0-57.1 490.9-57.1 797.3 0 306.3 53.2 371.1 53.2 371.1s122.1-22.8 104.5 62.1z"/>
        <path class="st1" d="M1153.3 1432.5c-17.6 4.1-31.7 23.5-43.1 50.1-11.5 26.9-20.1 61.2-26.4 94.6-.2.9-.3 1.8-.5 2.7-11.8 63.4-15.6 123.1-15.6 123.1l-22.4-5.7s2.5-55.4 1.4-114c-.1-4.3-.2-8.6-.3-12.8-1.4-51.1-5.9-101.7-17.3-117.8-25.5-35.9-29-98.3-29-98.3s84.2-32.3 153.2 78.1z"/>
        <path class="st1" d="M1319.5 1657.2c-16.7 11-44.6 11.4-64.7 11.3-34.2-.2-59.6-10.7-85-33.6-5.3-4.8-10.4-9.9-14.5-15.7-11.6-16.3-14.9-36.9-19.2-56.4-.1-.6-.3-1.3-.4-1.9-6.1-26.8-14.6-53-25.4-78.3 11.4-26.6 25.5-46 43.1-50.1 3.6 5.8 7.2 12.1 10.8 18.7 12.7 23.9 22.8 46.7 31.4 68 39.2 96.8 46.3 160.7 116.9 140.1 2.3-.7 4.7-1.4 7-2.1z"/>
        <path class="st1" d="M1135.6 1560.9c-10.3 4.1-21.6 8-34.3 11.8-2.2.7-4.5 1.3-6.7 2-1 .3-1.9.5-2.8.8-1.6.4-3.3.8-4.8 1.2l-1.5.3c-.6.1-1.2.2-1.7.3 6.4-33.5 15-67.8 26.4-94.6 10.8 25.2 19.3 51.4 25.4 78.2z"/>
        <path class="st1" d="M1101.3 1572.7c-5.1 3.4-11.3 5.7-18.1 7.3.2-.9.3-1.8.5-2.7.6-.1 1.2-.2 1.7-.3l1.5-.3c1.6-.3 3.2-.7 4.8-1.2.9-.2 1.9-.5 2.8-.8 2.4-.6 4.6-1.3 6.8-2z"/>
        <path class="st1" d="M903.3 1385c-14.6 70.8-42.8 93.2-112.3 114.2-2 .6-4.1 1.2-6.2 1.8-60.6 17.7-66.7-37.1-100.3-120.3-7.4-18.2-16.1-37.9-27-58.4-3-5.7-6.1-11.1-9.3-16.1-59.2-94.9-131.6-67.1-131.6-67.1s2.9-92.3 42.1-138c33-38.5 7-152.2-19.6-235.9-11.6-36.7-20.2-74.2-25.6-112.3-17-120-42.7-364.8 11.3-471.3 0 0 2.3-.8 6.6-2 30.7-8.4 162.5-37 285.3 48.6 0 0-49 421.6-49 684.6 0 263.1 45.7 318.7 45.7 318.7s104.9-19.5 89.9 53.5z"/>
        <path class="st1" d="M648.2 1306.2c-15.1 3.5-27.2 20.2-37 43-9.8 23.1-17.2 52.5-22.7 81.3-.1.8-.3 1.5-.4 2.3-10.2 54.4-13.4 105.7-13.4 105.7l-19.3-4.9s2.1-47.6 1.2-97.9l-.3-11c-1.2-43.8-5-87.3-14.8-101.1-21.9-30.9-24.9-84.4-24.9-84.4s72.5-27.8 131.6 67z"/>
        <path class="st1" d="M791 1499.2c-14.4 9.4-38.3 9.8-55.6 9.7-29.4-.2-51.1-9.2-73-28.9-4.6-4.1-8.9-8.5-12.5-13.5-9.9-14-12.8-31.7-16.5-48.4-.1-.5-.2-1.1-.4-1.6-5.2-23-12.5-45.5-21.8-67.2 9.7-22.9 21.9-39.5 37-43 3.1 5 6.2 10.4 9.3 16.1 10.9 20.5 19.6 40.1 27 58.4 33.6 83.2 39.7 138 100.3 120.3 2.1-.7 4.2-1.3 6.2-1.9z"/>
        <path class="st1" d="M633.1 1416.5c-8.8 3.6-18.6 6.9-29.4 10.1-1.9.6-3.8 1.1-5.8 1.7-.8.2-1.6.5-2.4.7-1.4.4-2.8.7-4.1 1-.4.1-.8.2-1.3.3l-1.5.3c5.5-28.7 12.8-58.2 22.7-81.3 9.3 21.6 16.6 44.1 21.8 67.2z"/>
        <path class="st1" d="M603.7 1426.6c-4.4 2.9-9.7 4.9-15.5 6.2.1-.8.3-1.5.4-2.3l1.5-.3c.4-.1.8-.2 1.3-.3 1.3-.3 2.7-.6 4.1-1 .8-.2 1.6-.4 2.4-.7 1.9-.5 3.9-1 5.8-1.6z"/>
    </g>
</svg>
