<svg xmlns="http://www.w3.org/2000/svg" viewBox="0 0 1920 1920">
    <style>
        .st0{fill:#fff}.st1{fill:none;stroke:#231f20;stroke-width:50;stroke-linecap:round;stroke-linejoin:round;stroke-miterlimit:10}
    </style>
    <path class="st0" d="M674.6 245.6c-40.6-36.1-94.4-26.3-94.4-26.3s-93 10.7-93 121.9c0 0 10.1 528 42.6 696.4 4.1 21.2 6 42.5 6.1 63.7 3.9-126.1 59.2-146.6 59.2-146.6s65.1 14 65.1 161c0 60.9 21.4 78.8 46.4 78.8 35.2 0 77.7-35.4 78-35.6 0 0 78.3-410.4 78.3-864.7-.1 0-102.2-76-188.3-48.6zm669-26.4s-53.9-9.8-94.4 26.3c-86.1-27.3-188.2 48.6-188.2 48.6 0 454.3 78.3 864.7 78.3 864.7.4.4 124.3 103.6 124.3-43.2 0-147 65.1-161 65.1-161s55.2 20.5 59.2 146.6c.1-21.2 2-42.5 6.1-63.7 32.5-168.4 42.6-696.4 42.6-696.4.1-111.2-93-121.9-93-121.9z" id="Layer_6"/>
    <path class="st0" d="M706.5 1194.5c-25 0-46.4-17.8-46.4-78.8 0-147-65.1-161-65.1-161s-55.2 20.5-59.2 146.6c0 4.7-.1 9.4-.2 14.2-4.9 142.5-89.1 277.5-145.8 321.1 0 0-62.6 40.6-62.6 146 0 0 29.9-25.9 109.6-31.9 10.4-.8 21.6-1.2 33.6-1.2 105.1 0 192.3 39.4 260.3 39.4 0 0 5.8-21.6 12.4-51.8 5.8-26.5 12.4-59.6 16.3-90.3 8.4-65.7 68.1-100.3 68.1-100.3s-7.2-139.7-43-187.5c-.3.1-42.8 35.5-78 35.5zm827.5 242.1c-56.7-43.6-140.9-178.6-145.8-321.1-.2-4.7-.2-9.4-.2-14.2-3.9-126.1-59.2-146.6-59.2-146.6s-65.1 14-65.1 161c0 146.8-123.9 43.6-124.3 43.2-17.9 23.9-28.7 70.8-34.9 111.7-6.3 40.9-8.1 75.8-8.1 75.8s59.7 34.6 68.1 100.3c3.9 30.7 10.4 63.8 16.3 90.3 6.6 30.1 12.4 51.8 12.4 51.8 68.1 0 155.2-39.4 260.3-39.4 12.1 0 23.3.4 33.6 1.2 79.7 6 109.6 31.9 109.6 31.9-.1-105.4-62.7-145.9-62.7-145.9z" id="Layer_7"/>
    <path class="st0" d="M759.4 1446.7c-3.9 30.7-10.4 63.8-16.3 90.3l61.6-31.5c14-7.1 22.8-21.5 22.8-37.2v-122c-.1.1-59.8 34.7-68.1 100.4zm-322.7 103.9c-79.7 6-109.6 31.9-109.6 31.9v74s208.1 99 393.2 4.9c3.1-1.6 6.2-3.2 9.4-4.9l.9-67.7c-68.1 0-155.2-39.4-260.3-39.4-12 0-23.2.4-33.6 1.2zm659.7-204.2v122c0 15.7 8.8 30 22.8 37.2l61.6 31.5c-5.8-26.5-12.4-59.6-16.3-90.3-8.4-65.8-68.1-100.4-68.1-100.4zm390.7 204.2c-10.4-.8-21.6-1.2-33.6-1.2-105.1 0-192.3 39.4-260.3 39.4l.9 67.7c3.1 1.7 6.2 3.3 9.4 4.9 185.2 94.1 393.2-4.9 393.2-4.9v-74c-.1 0-29.9-25.9-109.6-31.9z" id="Layer_8"/>
    <g id="STROKES">
        <path class="st1" d="M535.6 1115.7c0-139 59.4-161 59.4-161s65.1 14 65.1 161 124.3 43.2 124.3 43.2"/>
        <path class="st1" d="M862.8 294.2s-102-75.9-188.2-48.6c-40.6-36.1-94.4-26.3-94.4-26.3s-93 10.7-93 121.9c0 0 10.1 528 42.6 696.4s-73 347.5-140 399c0 0-62.6 40.6-62.6 146 0 0 29.9-25.9 109.6-31.9 10.4-.8 21.6-1.2 33.6-1.2 105.1 0 192.3 39.4 260.3 39.4 0 0 5.8-21.6 12.4-51.8 5.8-26.5 12.4-59.6 16.3-90.3 8.4-65.7 68.1-100.3 68.1-100.3s-7.2-139.7-43-187.5c-.1-.1 78.3-410.4 78.3-864.8z"/>
        <path class="st1" d="M718.8 373.7c0-67.7-19.7-106.3-44.2-128.1"/>
        <path class="st1" d="M730.7 1588.8l-.9 67.7c-25.6 22.8-141.5-11.9-241.5-24.1-100-12.2-161.1 24.1-161.1 24.1v-74s29.9-25.9 109.6-31.9c10.4-.8 21.6-1.2 33.6-1.2 105.1 0 192.2 39.4 260.3 39.4z"/>
        <path class="st1" d="M827.4 1346.4v122c0 15.7-8.8 30-22.7 37.2l-61.6 31.5c5.8-26.5 12.4-59.6 16.3-90.3 8.3-65.8 68-100.4 68-100.4z"/>
        <path class="st1" d="M327.2 1656.5s215.2 102.4 402.6 0"/>
        <path class="st1" d="M1388.2 1115.7c0-139-59.4-161-59.4-161s-65.1 14-65.1 161-124.3 43.2-124.3 43.2"/>
        <path class="st1" d="M1139.4 1158.9c-35.8 47.8-43 187.5-43 187.5s59.7 34.6 68.1 100.3c3.9 30.7 10.4 63.8 16.3 90.3 6.6 30.2 12.4 51.8 12.4 51.8 68.1 0 155.2-39.4 260.3-39.4 12.1 0 23.3.4 33.6 1.2 79.7 6 109.6 31.9 109.6 31.9 0-105.4-62.6-146-62.6-146-66.9-51.5-172.4-230.6-140-399s42.6-696.4 42.6-696.4c0-111.2-93-121.9-93-121.9s-53.9-9.8-94.4 26.3c-86.1-27.3-188.2 48.6-188.2 48.6-.1 454.5 78.3 864.8 78.3 864.8z"/>
        <path class="st1" d="M1249.2 245.6c-24.5 21.8-44.2 60.4-44.2 128.1"/>
        <path class="st1" d="M1193.1 1588.8l.9 67.7c25.6 22.8 141.5-11.9 241.5-24.1 100-12.2 161.1 24.1 161.1 24.1v-74s-29.9-25.9-109.6-31.9c-10.4-.8-21.6-1.2-33.6-1.2-105.1 0-192.2 39.4-260.3 39.4z"/>
        <path class="st1" d="M1096.4 1346.4v122c0 15.7 8.8 30 22.7 37.2l61.6 31.5c-5.8-26.5-12.4-59.6-16.3-90.3-8.3-65.8-68-100.4-68-100.4z"/>
        <path class="st1" d="M1596.6 1656.5s-215.2 102.4-402.6 0"/>
    </g>
</svg>
