<svg xmlns="http://www.w3.org/2000/svg" viewBox="0 0 1920 1920">
    <style>
        .st0{fill:#fff}.st1{fill:none;stroke:#231f20;stroke-width:50;stroke-linecap:round;stroke-linejoin:round;stroke-miterlimit:10}
    </style>
    <path class="st0" d="M931.8 217.7c-52.8 3.9-111.6 23.6-148.2 83.5l-157.7-4.1-93.7-2.4c-36.3-.9-66.3 27.9-66.9 64.1-2.6 153.2-2.2 543.3 57.5 839 45 23 99.9 49.7 150.6 70.7 28 11.6 54.8 21.5 78 28.2 103.8 29.7 118-89.9 137.7-168.9 2.3-9.3 4.7-18 7.3-25.8 12.2-36.5 36.2-56.1 57.7-66.7.9-41.2 4.9-79 9.1-112.1 13.4-104.8 84.2-620.7 83.8-693.1-.1.2-53.5-16.9-115.2-12.4z" id="Layer_2"/>
    <path class="st0" d="M1387.1 1532c-1.2-12.5-7.6-36.1-37.8-46.5-9.3-3.2-20.8-5.2-35.1-5.2-79.2 0-212 14.6-293.7-142.6-35.6-68.6-53.6-136.2-61.5-199.3-4.5-36-5.7-70.5-5-103-21.4 10.5-45.5 30.2-57.7 66.7-2.6 7.8-5 16.6-7.3 25.8-19.7 78.9-33.9 198.5-137.7 168.9-23.1-6.6-49.9-16.5-78-28.2-50.8-21.1-105.7-47.8-150.6-70.7 2.6 13 5.4 25.8 8.2 38.4 0 0 18.8 131.4-12.5 181.4-31.3 50.1-6.2 123-6.2 123 .6.7 1.3 1.4 2 2.1 2.1 2 4.3 4 6.7 5.8 3.2 2.4 6.6 4.7 10.3 6.8 2.5 1.4 5.2 2.8 8 4.1 2.2 1 4.5 2 6.8 2.9 1.8.7 3.5 1.4 5.4 2 1.2.4 2.4.8 3.7 1.2 6.8 2.2 14 4.1 21.5 5.7 1.4.3 2.7.6 4.1.8 1.4.3 2.8.5 4.2.8.7.1 1.4.2 2.1.4 2.8.5 5.6.9 8.5 1.3 5 .7 10.1 1.3 15.3 1.8 1.5.2 2.9.3 4.4.4.7.1 1.5.1 2.2.2 3 .2 5.9.5 8.9.7 3 .2 6 .4 9 .5 1.5.1 3 .1 4.5.2 52.7 2 104.6-3.8 124.6-6.4.6-.1 1.2-.2 1.8-.2h.1c2.2-.3 3.9-.5 5-.7l1.1-.2h.2l.4-.1c3.7 1.3 7.3 2.6 10.9 3.9 155.9 54.8 272.4 74.1 359.1 74.1 13.2 0 25.8-.4 37.7-1.3 3.5-.2 6.9-.5 10.2-.8 1.1-.1 2.3-.2 3.4-.3.8-.1 1.6-.2 2.3-.2 1.4-.1 2.7-.3 4.1-.5 6.8-.8 13.3-1.7 19.6-2.7 2.7-.5 5.4-.9 8-1.4 2.3-.4 4.5-.9 6.7-1.3 4.8-1 9.4-2 13.8-3.1l3.6-.9c2.9-.8 5.7-1.5 8.5-2.3.9-.2 1.7-.5 2.5-.7 3.6-1.1 7.1-2.2 10.6-3.3 3.6-1.2 7.1-2.5 10.5-3.8 2.7-1 5.4-2.1 8-3.2.9-.4 1.8-.8 2.7-1.1.4-.1.7-.3 1-.4 1.3-.6 2.6-1.2 3.9-1.7.6-.3 1.2-.6 1.8-.8.6-.2 1.1-.5 1.7-.8.7-.3 1.3-.6 2-1 .9-.5 1.9-.9 2.8-1.4l2.4-1.2c1.2-.6 2.4-1.3 3.6-1.9 1.6-.8 3.1-1.7 4.6-2.5.4-.2.9-.5 1.3-.8 1.9-1.1 3.7-2.2 5.5-3.3.7-.4 1.3-.8 2-1.2 2-1.3 3.9-2.5 5.7-3.8 2.5-1.7 4.8-3.4 7.1-5.1 1.1-.8 2.2-1.7 3.3-2.5.3-.2.6-.5.9-.7l2.1-1.7c.3-.2.6-.5.8-.7l1.4-1.2 2.1-1.8 1.7-1.5c2.3-2.1 4.5-4.2 6.6-6.2l2-2 .5-.5.3-.3c.6-.7 1.3-1.4 1.9-2 .7-.8 1.4-1.5 2-2.2l2-2.3c.2-.2.3-.4.5-.6l1.9-2.2c.4-.5.8-1 1.2-1.4l.5-.6c.2-.3.4-.6.6-.8.5-.6.9-1.2 1.3-1.7l2.2-3c.2-.3.5-.7.7-1l2.3-3.4c.5-.8 1-1.6 1.5-2.3l.2-.4c.1-.2.2-.4.4-.6.2-.2.3-.5.5-.8l.5-.9c.4-.7.8-1.4 1.1-2l1.1-2.2c.2-.3.3-.6.5-.9.6-1.2 1-2.2 1.4-3 .1-.1.1-.2.2-.3l.2-.6c.1-.2.1-.3.2-.4v-.1c0-.1.1-.2.1-.2V1540.7c-.1-.7.3-3.8-.2-8.7z" id="Layer_4"/>
    <path class="st0" d="M1387.2 1540.1l-.1.2v.1c0 .1 0 .1-.1.2v.1c0 .1-.1.3-.2.4l-.2.6c0 .1-.1.2-.2.3-.3.8-.8 1.8-1.4 3-.2.3-.3.6-.5.9l-1.1 2.2c-.3.7-.7 1.3-1.1 2l-.5.9c-.1.2-.3.5-.5.8-.1.2-.2.4-.4.6l-.2.4c-.5.8-.9 1.5-1.5 2.3l-2.3 3.4c-.2.3-.4.6-.7 1l-2.2 3c-.4.6-.9 1.1-1.3 1.7-.2.3-.4.6-.6.8l-.5.6c-.4.5-.8 1-1.2 1.4l-1.9 2.2c-.2.2-.3.4-.5.6l-2 2.3c-.6.7-1.3 1.5-2 2.2-.6.7-1.2 1.3-1.9 2l-.3.3-.5.5c-.6.7-1.3 1.3-2 2-2.1 2-4.2 4.1-6.6 6.2l-1.7 1.5-2.1 1.8-1.4 1.2c-.3.2-.5.5-.8.7l-2.1 1.7c-.3.2-.6.5-.9.7-1.1.9-2.2 1.7-3.3 2.5-2.3 1.7-4.6 3.4-7.1 5.1-1.9 1.3-3.8 2.5-5.7 3.8-.7.4-1.3.8-2 1.2-1.8 1.1-3.6 2.2-5.5 3.3-.4.3-.9.5-1.3.8-1.5.8-3 1.7-4.6 2.5-1.2.6-2.4 1.3-3.6 1.9l-2.4 1.2c-.9.5-1.8.9-2.8 1.4-.7.3-1.3.7-2 1-.5.3-1.1.5-1.7.8-.6.3-1.2.6-1.8.8-1.3.6-2.6 1.2-3.9 1.7-.3.1-.7.3-1 .4-.9.4-1.8.8-2.7 1.1-2.6 1.1-5.3 2.2-8 3.2-3.4 1.3-6.9 2.5-10.5 3.8-3.4 1.1-6.9 2.3-10.6 3.3-.8.2-1.7.5-2.5.7-2.8.8-5.6 1.6-8.5 2.3l-3.6.9c-4.5 1.1-9.1 2.1-13.8 3.1-2.2.4-4.4.9-6.7 1.3-2.6.5-5.3.9-8 1.4-6.3 1-12.8 1.9-19.6 2.7-1.4.2-2.7.3-4.1.5-.8.1-1.5.2-2.3.2-1.1.1-2.2.2-3.4.3-3.3.3-6.8.6-10.2.8-11.9.8-24.4 1.3-37.7 1.3-86.7 0-203.2-19.3-359.1-74.1-3.6-1.3-7.3-2.6-10.9-3.9l-.4.1h-.2l-1.1.2c-1.1.2-2.8.4-5 .7h-.1c-.6.1-1.1.1-1.8.2-20 2.6-71.9 8.4-124.6 6.4-1.5 0-3-.1-4.5-.2-3-.1-6-.3-9-.5s-5.9-.4-8.9-.7c-.7-.1-1.5-.1-2.2-.2-1.5-.1-3-.3-4.4-.4-5.2-.5-10.2-1.1-15.3-1.8-2.9-.4-5.7-.9-8.5-1.3-.7-.1-1.4-.2-2.1-.4-1.4-.2-2.8-.5-4.2-.8-1.4-.3-2.8-.5-4.1-.8-7.5-1.6-14.7-3.5-21.5-5.7-1.2-.4-2.5-.8-3.7-1.2-1.8-.6-3.6-1.3-5.4-2-2.3-.9-4.6-1.9-6.8-2.9-2.8-1.3-5.4-2.6-8-4.1-3.7-2.1-7.1-4.3-10.3-6.8-2.4-1.8-4.6-3.8-6.7-5.8-.7-.7-1.4-1.4-2-2.1v98s-17.1 40.2 268.1 40.2V1643s64.6 57.3 349.8 57.3c0 0 173 15.9 271.8-113.3v-47.5h-14.5z" id="Layer_5"/>
    <g id="STROKES">
        <path class="st1" d="M1401.9 1540v47.5c-98.7 129.2-271.8 113.3-271.8 113.3-285.2 0-349.8-57.3-349.8-57.3v35.3c-285.2 0-268.1-40.2-268.1-40.2v-98c57.1 61.5 260.8 30 260.8 30 536 191.8 614.2-30.7 614.2-30.7h14.7z"/>
        <path class="st1" d="M783.6 301.3s-18.2 71-15.9 143.9"/>
        <path class="st1" d="M1046.9 230.3c.4 72.3-70.4 588.2-83.8 693-4.2 33.1-8.2 70.9-9.1 112.1-21.4 10.5-45.5 30.2-57.7 66.7-2.6 7.8-5 16.6-7.3 25.8-19.7 78.9-33.9 198.5-137.7 168.9-23.1-6.6-49.9-16.5-77.9-28.2-50.8-21.1-105.7-47.8-150.6-70.7-59.7-295.8-60-685.8-57.5-839 .6-36.3 30.7-65.1 66.9-64.2l93.7 2.4 157.7 4.1c36.6-59.9 95.4-79.7 148.2-83.5 61.7-4.5 115.1 12.6 115.1 12.6z"/>
        <path class="st1" d="M1387.2 1540.1s-78.2 222.5-614.2 30.7c0 0-203.7 31.5-260.8-30 0 0-25-73 6.2-123 31.3-50 12.5-181.4 12.5-181.4-2.8-12.6-5.6-25.4-8.2-38.4 45 23 99.9 49.7 150.6 70.7 28 11.6 54.8 21.5 77.9 28.2 103.8 29.7 118-89.9 137.7-168.9 2.3-9.3 4.7-18 7.3-25.8 12.2-36.5 36.3-56.1 57.7-66.7-.7 32.4.5 67 5 103 7.9 63.2 25.8 130.8 61.5 199.3 81.7 157.2 214.5 142.6 293.7 142.6 14.3 0 25.9 2 35.1 5.2 30.2 10.4 36.6 34 37.8 46.5.6 4.8.2 8 .2 8z"/>
    </g>
</svg>
