<svg xmlns="http://www.w3.org/2000/svg" viewBox="0 0 1920 1920">
    <style>
        .st0{fill:#fff}.st1{fill:none;stroke:#231f20;stroke-width:50;stroke-linecap:round;stroke-linejoin:round;stroke-miterlimit:10}
    </style>
    <path class="st0" d="M1175.7 1142.9c-68 9.1-140.5 14-215.7 14s-147.7-4.9-215.7-14c-65.4-8.7-126.6-21.3-182.3-37.1-68.8-19.6-129-44-177.8-72.2-85-49.2-135.1-109.7-135.1-175.1C249.1 693.6 567.4 560 960 560s710.9 133.6 710.9 298.5c0 65.4-50.1 125.9-135.1 175.1-48.8 28.2-109 52.7-177.8 72.2-55.7 15.8-116.9 28.4-182.3 37.1z" id="Layer_2"/>
    <path class="st0" d="M1670.9 858.4l32.2 203.1s-73.8.7-128.4 150.1l-38.9-178.1c85-49.1 135.1-109.7 135.1-175.1zM1358 1105.8l.1.2 39.4 189.8s69.8-122.4 177.2-84.1l-38.9-178.1c-48.8 28.2-109 52.6-177.8 72.2zm0 0c-55.7 15.8-116.9 28.4-182.3 37.1l18.7 199.7c92.2-100.2 203.1-46.9 203.1-46.9l-39.4-189.8-.1-.1zm-398 51.1V1360s97.7-92.8 234.4-17.4l-18.7-199.7c-68 9.1-140.5 14-215.7 14zm-215.7-14l-18.7 199.7C862.2 1267.3 960 1360 960 1360v-203.1c-75.2 0-147.7-4.9-215.7-14zM562 1105.8v.2l-39.4 189.8s110.9-53.4 203 46.9l18.7-199.7c-65.4-8.8-126.6-21.4-182.3-37.2zm-177.8-72.2l-38.9 178.1c107.4-38.3 177.2 84.1 177.2 84.1L562 1106v-.2c-68.8-19.6-129-44-177.8-72.2zM249.1 858.4l-32.2 203.1s73.8.7 128.4 150.1l38.9-178.1c-85-49.1-135.1-109.7-135.1-175.1z" id="Layer_3"/>
    <g id="STROKES">
        <g id="XMLID_1_">
            <path class="st1" d="M384.2 1033.5c-85-49.2-135.1-109.7-135.1-175.1C249.1 693.6 567.4 560 960 560s710.9 133.6 710.9 298.5c0 65.4-50.1 125.9-135.1 175.1"/>
            <path class="st1" d="M1535.8 1033.6c-48.8 28.2-109 52.7-177.8 72.2-55.7 15.8-116.9 28.4-182.3 37.1-68 9.1-140.5 14-215.7 14s-147.7-4.9-215.7-14c-65.4-8.7-126.6-21.3-182.3-37.1-68.8-19.6-129-44-177.8-72.2"/>
            <path class="st1" d="M249.1 858.4l-32.2 203.1s73.8.7 128.4 150.1l38.9-178.1"/>
            <path class="st1" d="M960 1360.1s-97.7-92.8-234.4-17.4"/>
            <path class="st1" d="M562 1106l-39.4 189.8s-69.9-122.4-177.2-84.1"/>
            <path class="st1" d="M522.6 1295.8s110.9-53.4 203 46.9l18.7-199.7.1-.8"/>
            <path class="st1" d="M1670.9 858.4l32.2 203.1s-73.8.7-128.4 150.1l-38.9-178.1"/>
            <path class="st1" d="M960 1156.9V1360s97.7-92.8 234.4-17.4"/>
            <path class="st1" d="M1358.1 1106l39.4 189.8s69.8-122.4 177.2-84.1"/>
            <path class="st1" d="M1397.4 1295.8s-110.9-53.4-203.1 46.9l-18.7-199.7-.1-.8"/>
        </g>
    </g>
</svg>
