<svg xmlns="http://www.w3.org/2000/svg" viewBox="0 0 1920 1920">
    <style>
        .st0{fill:#fff}.st1{fill:none;stroke:#231f20;stroke-width:50;stroke-linecap:round;stroke-linejoin:round;stroke-miterlimit:10}
    </style>
    <path class="st0" d="M1175.7 1136.2c-68 9.1-140.5 14-215.7 14s-147.7-4.9-215.7-14c-146.2-19.5-271.9-58.4-360.1-109.4-85-49.2-135.1-109.7-135.1-175.1 0-164.8 318.3-298.5 710.9-298.5s710.9 133.6 710.9 298.5c0 65.4-50.1 125.9-135.1 175.1-88.2 51-213.9 89.9-360.1 109.4z" id="Layer_4"/>
    <path class="st0" d="M384.2 1026.8c88.2 51 213.9 89.9 360.1 109.4 68 9.1 140.5 14 215.7 14s147.7-4.9 215.7-14c146.2-19.5 271.9-58.4 360.1-109.4 85-49.2 135.1-109.7 135.1-175.1l32.2 203.1c0 172.3-332.7 312-743.1 312s-743-139.7-743-312l32.2-203.1c-.1 65.4 50 125.9 135 175.1z" id="Layer_5"/>
    <g id="STROKES">
        <g id="XMLID_1_">
            <path class="st1" d="M384.2 1026.8c-85-49.2-135.1-109.7-135.1-175.1 0-164.8 318.3-298.5 710.9-298.5s710.9 133.6 710.9 298.5c0 65.4-50.1 125.9-135.1 175.1"/>
            <path class="st1" d="M1535.8 1026.8c-88.2 51-213.9 89.9-360.1 109.4-68 9.1-140.5 14-215.7 14s-147.7-4.9-215.7-14c-146.2-19.5-271.9-58.4-360.1-109.4"/>
            <path class="st1" d="M1703.1 1054.8c0 172.3-332.7 312-743.1 312s-743-139.7-743-312"/>
            <path class="st1" d="M249.1 851.7l-32.2 203.1"/>
            <path class="st1" d="M1670.9 851.7l32.2 203.1"/>
            <path class="st1" d="M960 1150.2v203.1"/>
            <path class="st1" d="M744.4 1135.4l-.1.8-18.7 199.7"/>
            <path class="st1" d="M562 1099.2L522.6 1289"/>
            <path class="st1" d="M384.2 1026.8l-38.9 178.1"/>
            <path class="st1" d="M1175.6 1135.4l.1.8 18.7 199.7"/>
            <path class="st1" d="M1358.1 1099.2l39.3 189.8"/>
            <path class="st1" d="M1535.8 1026.8l38.9 178.1"/>
        </g>
    </g>
</svg>
