<svg xmlns="http://www.w3.org/2000/svg" viewBox="0 0 1920 1920">
    <style>
        .st0{fill:#fff}.st1{fill:none;stroke:#231f20;stroke-width:50;stroke-linecap:round;stroke-linejoin:round;stroke-miterlimit:10}
    </style>
    <path class="st0" d="M1703.1 1024.2V1198c0 87.6-98.8 138.8-170.3 88.2l-308.2-217.6V851.3l308.2-217.6c71.6-50.5 170.3.7 170.3 88.2v302.3zM387.3 633.8c-71.5-50.5-170.3.7-170.3 88.2v476c0 87.6 98.8 138.8 170.3 88.2L695.5 1069V851.4L387.3 633.8z" id="Layer_4"/>
    <path class="st0" d="M1224.5 1068.6v102.5c0 44.6-36.5 81-81 81h-367c-44.6 0-81-36.4-81-81V748.9c0-44.5 36.4-81 81-81h367.1c44.5 0 81 36.5 81 81v319.7z" id="Layer_5"/>
    <g id="STROKES">
        <path class="st1" d="M687.6 1005.7l-235.3 79.9"/>
        <path class="st1" d="M452.3 834.4l235.3 79.9"/>
        <path class="st1" d="M1232.4 914.3l235.3-79.9"/>
        <path class="st1" d="M1467.7 1085.6l-235.3-79.9"/>
        <path class="st1" d="M1224.5 1068.6v102.5c0 44.6-36.5 81-81 81h-367c-44.6 0-81-36.4-81-81V748.9c0-44.5 36.4-81 81-81h367.1c44.5 0 81 36.5 81 81v319.7z"/>
        <path class="st1" d="M695.5 851.4L387.3 633.8c-71.5-50.5-170.3.7-170.3 88.2v476c0 87.6 98.8 138.8 170.3 88.2L695.5 1069"/>
        <path class="st1" d="M1532.7 633.8l-308.2 217.5"/>
        <path class="st1" d="M1224.5 1068.6l308.2 217.6c71.6 50.5 170.3-.7 170.3-88.2V722c0-87.6-98.8-138.8-170.3-88.2"/>
    </g>
</svg>
