<svg xmlns="http://www.w3.org/2000/svg" viewBox="0 0 1920 1920">
    <style>
        .st0{fill:#fff}.st1{fill:none;stroke:#231f20;stroke-width:50;stroke-linecap:round;stroke-linejoin:round;stroke-miterlimit:10}
    </style>
    <path class="st0" d="M1188.4 866.6L1019 1186.3l-498.5-112.9v321.2l667.9 194.5 221.4-437.8V926.7z" id="Layer_6"/>
    <path class="st0" d="M898.2 602.9L520.5 766.7l667.9 99.9 221.4-204.1z" id="Layer_7"/>
    <path class="st0" d="M313.6 1026.5l206.9 46.9 498.5 113 169.4-319.7-667.9-99.9-206.9 259.7zM661 512.4L217 645.3l303.6 121.4 377.6-163.8L661 512.4zm748.8 150.1l-221.3 204.1 221.3 60.1 215.7 58.5 77.6-273.5-293.3-49.2zm79.4-247.1l-511.4-30.1-79.6 217.6 511.6 59.5 79.4-247z" id="Layer_8"/>
    <g id="STROKES">
        <path class="st1" d="M1409.8 926.7v224.6l-221.4 437.8V866.6z"/>
        <path class="st1" d="M1188.4 866.6v722.5l-667.9-194.5v-321.2l498.5 112.9z"/>
        <path class="st1" d="M1188.4 866.6L1019 1186.3l-498.5-112.9-206.9-46.9 206.9-259.8z"/>
        <path class="st1" d="M1703.1 711.7l-77.7 273.5-215.6-58.5-221.4-60.1 221.4-204.1z"/>
        <path class="st1" d="M1409.8 662.5l79.4-247.1-511.4-30.1-79.6 217.6z"/>
        <path class="st1" d="M520.5 766.7l377.7-163.8L661 512.4 216.9 645.3z"/>
        <path class="st1" d="M898.2 602.9v219"/>
    </g>
</svg>
