<svg xmlns="http://www.w3.org/2000/svg" viewBox="0 0 1920 1920">
    <style>
        .st0{fill:#fff}.st1{fill:none;stroke:#231f20;stroke-width:50;stroke-linecap:round;stroke-linejoin:round;stroke-miterlimit:10}
    </style>
    <path class="st0" d="M928.5 320s-3.7 78.9-7.4 92.5c-.8 2.9-3.9 8-8.2 14.1 0 0-.5 1.2-1.4 3.3-.9 2-2.2 4.9-3.9 8.1-4.1 7.8-10.3 17.5-17.5 22.6 2.4 40.4 11.4 81.8.9 120.7-1.2 4.3-2.6 8.6-5.1 12.2-3.5 5.2-8.9 8.9-14.6 11.4-23.8 10.6-52.6 2.6-73.1-13.4-7.8-6.1-14.6-13.1-20.9-20.7 5.1-.2 8.3-.2 8.3-.2l8.5-75.3s-15.6-26.3-44.8-31.2c-29.1-4.9-56.1 47.5-56.1 47.5-1.4 2.1-2.5 4.5-3.3 7 0 0-36 13.1-48 32-3.1 4.9-4.6 10.2-3.4 15.7 5.7 27 35.8 44 35.8 44-51.8 89.2-131.1 102.4-131.1 102.4S526 703.5 526 669s9.8-36.8 22.4-50.6c12.7-13.8 72.5-98.4 88.6-128.8 16.1-30.5 59.2-36.8 59.2-36.8l84.6-24.2-2.3-39.1-14.4-20.7v-29.3l12.8-5.8c-1.4-4.2-2-9.4-1.9-15.1 0 0-40.1-19.7-42.5-40.5-2.4-20.9 10.3-46.3 34-58.6 23.7-12.3 87.7 27.7 87.7 27.7 19.2 2.8 38.1 9.5 48.5 15 20.9 10.9 25.8 57.8 25.8 57.8z" id="Layer_60"/>
    <path class="st0" d="M1472.4 544.7c-2.9 14.7-22 22.9-48.2 22-26.1-.8-25.3-29.8-25.3-29.8l-12.2-8.2c-22.4 10.2-47.6-4.5-47.6-4.5-4 1.9-8.1 3.6-12.2 5.1-5.5-20.5-9-41.5-10.4-62.6 4.2.2 6.5.4 6.5.4l-.4-5.3 55.5-11.8s0-28.2 46.9-28.2 47.4 44.5 47.4 44.5 2.8 63.7 0 78.4z" id="Layer_61"/>
    <path class="st0" d="M794.2 495.2l-8.5 75.3s-3.2 0-8.3.2c-16.3.7-51.6 3-59.2 11.1L689.9 613l-15.5-2.9s-30.1-17-35.8-44c-1.2-5.5.3-10.8 3.4-15.7 11.9-18.9 48-32 48-32 .8-2.5 1.9-4.8 3.3-7 0 0 27-52.4 56.1-47.5 29.2 5 44.8 31.3 44.8 31.3z" id="Layer_62"/>
    <path class="st0" d="M1326.9 529.4c-79.7 30.7-171.5 10.6-171.5 10.6-37.9 2.9-115.5-12.8-133-15.8-17.5-2.9-35 42-36.2 63.6-.1 1.2-.2 2.6-.5 4.2-18.1-18.7-33.2-40.5-45.2-63.6-7.4-14.3-13.7-29.1-19.2-44.2-5.4-15.1-9.9-30.6-13.8-46.3 1.7-3.2 3-6 3.9-8.1.9-2 1.4-3.3 1.4-3.3 100.1-14.5 145.4 23.6 145.4 23.6s70.4 27.2 97 17.7c23.2-8.2 133.1-2.7 161.1-1.1 1.6 21.2 5.1 42.2 10.6 62.7z" id="Layer_63"/>
    <path class="st0" d="M985.8 592.1c-3.9 26.6-29.9 101.3-29.9 101.3S944.5 714 937 736.2c-7.2 0-14.3-.1-21.4-.4-41.2-1.5-82.1-7.1-122.9-12.6-14.6-2-29.2-4-43.8-6.1-14.6-2.2-29.1-4.6-43.6-7.4-2.1-9.4-4.8-17.8-6.8-24.7-1.1-3.9-2.1-8.5-2.9-13.6-.2-.9-.3-1.9-.5-2.8-.6-3.9-1.2-8.1-1.7-12.2-.1-.8-.2-1.7-.3-2.5-.5-4.5-1-9-1.3-13.2-.1-1.4-.2-2.8-.4-4.2-.1-.9-.1-1.8-.2-2.7 0-.4-.1-.9-.1-1.3-.1-.9-.1-1.7-.2-2.5l-.1-1.2c-.1-.8-.1-1.5-.2-2.3v-.1c-.1-.7-.1-1.4-.1-2.1l-.2-4c0-.6-.1-1.1-.1-1.6l-.3-5.5 28.3-31.2c7.6-8.1 42.9-10.5 59.2-11.1 6.2 7.6 13.1 14.7 20.9 20.7 20.5 16 49.4 24.1 73.1 13.4 5.7-2.5 11.1-6.2 14.6-11.4 2.5-3.7 3.9-8 5.1-12.2 10.5-38.9 1.5-80.3-.9-120.7 7.2-5.1 13.4-14.9 17.5-22.6 3.9 15.7 8.4 31.1 13.8 46.3 5.4 15.1 11.7 30 19.2 44.2 11.9 22.9 27 44.7 45.1 63.5z" id="Layer_64"/>
    <path class="st0" d="M941.3 881.4c-20.1-.4-40.2-2.3-60.3-4.6-40.9-4.8-81.6-11.3-121.9-19.6-31.1-6.4-62.6-14.1-91.4-27.2.2-.4.3-.5.3-.5h8.1l20.7-46.6c15.1-26.5 13.2-52.3 8.5-73.1 14.5 2.8 29 5.2 43.6 7.4 14.6 2.2 29.2 4.2 43.8 6.1 40.8 5.5 81.7 11.1 122.9 12.6 7.1.3 14.2.4 21.4.4-5.4 16-8.8 32.6-4.4 42.9 9.8 22.9 6.3 75.1 8.7 102.2z" id="Layer_65"/>
    <path class="st0" d="M1011.9 1035.7l-.9 10.2c-22.4 4.8-44.4 11.2-65.8 19.2s-42.3 17.6-62.3 28.7c-10.3 5.7-21 12.6-28.8 21.4-35-38.7-71.4-81.2-71.4-81.2l-29.9 38.2c-1.2-1.2-2.3-2.4-3.5-3.6-8.2-8.3-16.9-16.1-26.2-23.2-36.7-27.8-82.7-42.9-128.6-43 7-28.4 24.2-69.4 40.3-104.4 16.1-35 30.9-63.9 33.1-68.1 28.8 13.1 60.3 20.8 91.4 27.2 40.3 8.3 81 14.8 121.9 19.6 20 2.3 40.1 4.3 60.3 4.6.2 1.8.3 3.4.6 5 3.3 25.1 69.8 149.4 69.8 149.4z" id="Layer_66"/>
    <path class="st0" d="M1158.1 1626.5l-24.3 16.3s-47.2-11.1-61.8-36.8c-14.6-25.7-63-48.4-63-48.4l-7-13.4s4.1-15.2 12.3-39.7c8.2-24.5-11.7-84-30.9-118.4-19.2-34.4-9.3-104.4-9.3-104.4-16.3-12.8-59.5-105.6-59.5-105.6-8.3-4.8-33.9-31.8-60.4-61.1 7.8-8.8 18.4-15.7 28.8-21.4 20-11.1 40.9-20.7 62.3-28.7s43.5-14.4 65.8-19.2l-1.4 16.1c22.2 29.8 40.2 187.8 40.2 187.8s32.1 82.8 25.7 120.7c-6.4 37.9-1.8 86.9-3.5 130.6-1.9 44 86 125.6 86 125.6z" id="Layer_67"/>
    <path class="st0" d="M752.8 1072.1c-1.2-1.2-2.3-2.4-3.5-3.6-8.2-8.3-16.9-16.1-26.2-23.2-36.7-27.8-82.7-42.9-128.6-43-1 4-1.7 7.7-2.3 11.1l3.5 8.1s-23.7 149-25.2 167.6c0 0-16.3 45.7-16.3 59.7 0 0-41.8 33.3-50.4 97.6-8.5 64.3-10.8 158.9-23.2 188.3l-10.4 10.8s0 93.3-14 114.9c-14 21.6-8.7 30.3-8.7 30.3l63.6 12.4s22.2-16.4 19.8-37.4c-2.3-21-14.6-75.8-6.4-103.2 8.2-27.4 77.6-160.4 84-186.6 6.4-26.2 4.7-65.9 4.7-65.9s109.1-186 114.9-205.9l24.7-32z" id="Layer_68"/>
    <g id="STROKES">
        <path class="st1" d="M1316.5 466.8c1.4 21.1 4.9 42.1 10.4 62.6"/>
        <path class="st1" d="M1472.4 544.7c-2.9 14.7-22 22.9-48.2 22-26.1-.8-25.3-29.8-25.3-29.8l-12.2-8.2c-22.4 10.2-47.6-4.5-47.6-4.5-4 1.9-8.1 3.6-12.2 5.1-79.7 30.7-171.5 10.6-171.5 10.6-37.9 2.9-115.5-12.8-133-15.7-17.5-2.9-35 42-36.2 63.6-.1 1.2-.2 2.6-.5 4.3-3.9 26.6-29.9 101.3-29.9 101.3s-11.4 20.7-18.9 42.8c-5.4 15.9-8.8 32.6-4.4 42.9 9.9 23 6.4 75.2 8.8 102.3.2 1.8.3 3.4.6 5 3.5 25 70 149.4 70 149.4l-.9 10.2-1.4 16.1c22.2 29.7 40.2 187.8 40.2 187.8s32.1 82.8 25.7 120.7c-6.4 37.9-1.8 86.9-3.5 130.6-1.8 43.7 86.1 125.4 86.1 125.4l-24.3 16.3s-47.2-11.1-61.8-36.7c-14.6-25.7-63-48.4-63-48.4l-7-13.4s4.1-15.2 12.3-39.7c8.2-24.5-11.7-84-30.9-118.4-19.2-34.4-9.3-104.4-9.3-104.4-16.3-12.8-59.5-105.6-59.5-105.6-8.3-4.8-33.9-31.8-60.4-61.1-35-38.7-71.4-81.2-71.4-81.2l-29.9 38.2L728 1104c-6 19.8-115 205.8-115 205.8s1.8 39.7-4.7 65.9c-6.4 26.2-75.8 159.2-84 186.6-8.2 27.4 4.1 82.2 6.4 103.2 2.3 21-19.8 37.4-19.8 37.4l-63.6-12.4s-5.3-8.8 8.7-30.3c14-21.6 14-114.9 14-114.9l10.4-10.7c12.4-29.4 14.7-124 23.2-188.3 8.5-64.3 50.4-97.6 50.4-97.6 0-13.9 16.3-59.7 16.3-59.7 1.6-18.6 25.2-167.6 25.2-167.6l-3.5-8.1c.5-3.4 1.3-7.1 2.3-11.1 13.9-56.9 69-164.1 73.4-172.5.2-.4.3-.5.3-.5h8.1l20.7-46.6c15.1-26.5 13.2-52.3 8.5-73.1-2.1-9.4-4.8-17.7-6.8-24.7-6.3-22.4-8.6-71.9-8.6-71.9l-15.5-2.9s-30.1-17-35.8-44c-1.2-5.6.3-10.8 3.4-15.7 11.9-18.9 48-32 48-32-8.9 27.6 19.1 73.2 28.2 63.4 7.6-8.1 42.9-10.5 59.2-11.1 6.2 7.6 13.1 14.7 20.9 20.7 20.5 16 49.4 24.1 73.1 13.4 5.7-2.5 11.1-6.2 14.6-11.4 2.5-3.7 3.9-8 5.1-12.2 10.5-38.9 1.5-80.3-.9-120.7 7.2-5.1 13.4-14.9 17.5-22.6 3.4-6.3 5.4-11.3 5.4-11.3 100-14.5 145.4 23.6 145.4 23.6s70.4 27.2 97 17.7c23.2-8.2 133.1-2.7 161.1-1.1 4.2.2 6.5.4 6.5.4l-.4-5.3 55.5-11.8s0-28.2 46.9-28.2 47.3 44.5 47.3 44.5 2.8 63.7 0 78.4z"/>
        <path class="st1" d="M829 445.2s35.5 20.1 52.6 18.7c2.9-.2 5.7-1.5 8.4-3.4"/>
        <path class="st1" d="M794.2 495.2l-8.5 75.3s-3.2 0-8.3.2c-16.3.6-51.6 3-59.2 11.1-9.1 9.8-37.1-35.8-28.2-63.4.8-2.5 1.9-4.8 3.3-7 0 0 27-52.4 56.1-47.5 29.2 5 44.8 31.3 44.8 31.3z"/>
        <path class="st1" d="M718.2 581.8l-28.3 31.3-15.5-2.9"/>
        <path class="st1" d="M642 550.5l-41.1 40.6"/>
        <path class="st1" d="M907.6 437.9c7.7 31.3 18.1 62 33 90.6 12 23.1 27.1 44.9 45.2 63.6"/>
        <path class="st1" d="M705.3 709.7c28.9 5.6 58.1 9.5 87.3 13.5 40.8 5.5 81.7 11.1 122.9 12.6 7.1.3 14.2.4 21.4.4"/>
        <path class="st1" d="M667.8 829.9c28.8 13.1 60.3 20.8 91.4 27.2 40.3 8.3 81 14.8 121.9 19.6 20 2.3 40.1 4.3 60.3 4.6"/>
        <path class="st1" d="M854.1 1115.2c7.7-8.8 18.4-15.7 28.8-21.4 40-22.2 83.4-38.3 128.1-47.9"/>
        <path class="st1" d="M594.4 1002.4c46 .1 92 15.2 128.6 43 10.7 8.1 20.5 17.1 29.7 26.8"/>
        <path class="st1" d="M928.5 320s-3.7 78.9-7.4 92.5c-.8 2.9-3.9 8-8.2 14.1 0 0-2 5-5.4 11.3-4.1 7.8-10.3 17.6-17.5 22.6 2.4 40.4 11.4 81.9.9 120.7-1.2 4.3-2.6 8.6-5.1 12.2-3.5 5.2-8.9 8.9-14.6 11.4-23.8 10.6-52.6 2.6-73.1-13.4-7.8-6.1-14.6-13.1-20.9-20.7 5.1-.2 8.3-.2 8.3-.2l8.5-75.3s-15.6-26.3-44.8-31.2c-29.1-4.9-56.1 47.5-56.1 47.5-1.4 2.1-2.5 4.5-3.3 7 0 0-36 13.1-48 32-3.1 4.9-4.6 10.2-3.4 15.7 5.7 27 35.8 44 35.8 44C622.4 699.4 543 712.6 543 712.6s-17.3-9.2-17.3-43.7 9.8-36.8 22.4-50.6c12.7-13.8 72.5-98.4 88.6-128.8 16.1-30.5 59.3-36.8 59.3-36.8l84.6-24.2-2.3-39.1-14.4-20.7v-29.3l12.8-5.7c-1.4-4.2-2-9.4-1.9-15.1.4-19.7 9.7-46.3 27.8-62.6 11.8-10.6 31.8-11.7 51.3-8.9 19.3 2.8 38.1 9.5 48.5 15 21.2 11 26.1 57.9 26.1 57.9z"/>
        <path class="st1" d="M854.1 247c-19.6-2.9-39.5-1.7-51.4 8.9-18.1 16.2-27.4 42.8-27.8 62.6 0 0-40.1-19.7-42.5-40.5-2.5-20.9 10.3-46.3 34-58.6 23.7-12.4 87.7 27.6 87.7 27.6z"/>
    </g>
</svg>
