<svg xmlns="http://www.w3.org/2000/svg" viewBox="0 0 1920 1920">
    <style>
        .st0{fill:#fff}.st1{fill:none;stroke:#231f20;stroke-width:50;stroke-linecap:round;stroke-linejoin:round;stroke-miterlimit:10}
    </style>
    <path class="st0" d="M429.2 960c0 58.6-47.5 106.2-106.2 106.2S216.9 1018.6 216.9 960s47.5-106.2 106.2-106.2S429.2 901.4 429.2 960zm106.2-106.2c-58.6 0-106.2 47.5-106.2 106.2s47.5 106.2 106.2 106.2 106.2-47.5 106.2-106.2S594 853.8 535.4 853.8zm212.3 0c-58.6 0-106.2 47.5-106.2 106.2s47.5 106.2 106.2 106.2 106.2-47.5 106.2-106.2-47.6-106.2-106.2-106.2zm212.3 0c-58.6 0-106.2 47.5-106.2 106.2s47.5 106.2 106.2 106.2 106.2-47.5 106.2-106.2-47.6-106.2-106.2-106.2zm212.3 0c-58.6 0-106.2 47.5-106.2 106.2s47.5 106.2 106.2 106.2 106.2-47.5 106.2-106.2-47.6-106.2-106.2-106.2zm212.3 0c-58.6 0-106.2 47.5-106.2 106.2s47.5 106.2 106.2 106.2 106.2-47.5 106.2-106.2-47.6-106.2-106.2-106.2zm212.3 0c-58.6 0-106.2 47.5-106.2 106.2s47.5 106.2 106.2 106.2 106.2-47.5 106.2-106.2-47.6-106.2-106.2-106.2z" id="Layer_3"/>
    <g id="STROKES">
        <circle class="st1" cx="323.1" cy="960" r="106.2"/>
        <circle class="st1" cx="535.4" cy="960" r="106.2"/>
        <circle class="st1" cx="747.7" cy="960" r="106.2"/>
        <circle class="st1" cx="960" cy="960" r="106.2"/>
        <circle class="st1" cx="1172.3" cy="960" r="106.2"/>
        <circle class="st1" cx="1384.6" cy="960" r="106.2"/>
        <circle class="st1" cx="1596.9" cy="960" r="106.2"/>
    </g>
</svg>
