<svg xmlns="http://www.w3.org/2000/svg" viewBox="0 0 1920 1920">
    <style>
        .st0{fill:#fff}.st1{fill:none;stroke:#231f20;stroke-width:50;stroke-linecap:round;stroke-linejoin:round;stroke-miterlimit:10}
    </style>
    <path class="st0" d="M1688 916.7c0 153.5-295 288.9-623.2 320l-1.6-.4c2.5-9 3.8-18.4 3.8-28.2 0-21.6-6.4-41.7-17.4-58.5l1.5-1c285.2-22.5 541.5-120.6 541.5-231.8 0-128-283.2-231.8-632.6-231.8S327.4 788.7 327.4 916.7c0 111.2 256.5 209.3 541.5 231.8l1.5 1c-11 16.8-17.4 36.9-17.4 58.5 0 9.8 1.3 19.2 3.8 28.2l-1.6.4c-328-31.1-623.2-166.5-623.2-320 0-176.7 325.9-319.9 728-319.9s728 143.3 728 320z" id="Layer_4"/>
    <path class="st0" d="M1067 1208c0 9.8-1.3 19.2-3.8 28.2-12.4 45.4-53.9 78.8-103.2 78.8s-90.9-33.4-103.2-78.8c-2.5-9-3.8-18.4-3.8-28.2 0-21.6 6.4-41.7 17.4-58.5 19.1-29.2 52.1-48.5 89.6-48.5s70.5 19.3 89.6 48.5c11 16.8 17.4 36.9 17.4 58.5z" id="Layer_5"/>
    <g id="STROKES">
        <path class="st1" d="M855.2 1236.7c-328-31.1-623.2-166.5-623.2-320 0-176.7 325.9-319.9 728-319.9s728 143.2 728 319.9c0 153.5-295 288.9-623.2 320"/>
        <path class="st1" d="M868.9 1148.6c-285-22.5-541.5-120.6-541.5-231.8 0-128 283.2-231.8 632.6-231.8s632.6 103.8 632.6 231.8c0 111.2-256.3 209.3-541.5 231.8"/>
        <path class="st1" d="M1049.6 1149.5c11 16.8 17.4 36.9 17.4 58.5 0 9.8-1.3 19.2-3.8 28.2-12.4 45.4-53.9 78.8-103.2 78.8s-90.9-33.4-103.2-78.8c-2.5-9-3.8-18.4-3.8-28.2 0-21.6 6.4-41.7 17.4-58.5 19.1-29.2 52.1-48.5 89.6-48.5s70.5 19.3 89.6 48.5z"/>
        <path class="st1" d="M960 1205.8v4.4"/>
    </g>
</svg>
