<svg xmlns="http://www.w3.org/2000/svg" viewBox="0 0 1920 1920">
    <style>
        .st0{fill:#fff}.st1{fill:none;stroke:#231f20;stroke-width:50;stroke-linecap:round;stroke-linejoin:round;stroke-miterlimit:10}
    </style>
    <path class="st0" d="M1035 594.3c0 41.4-33.6 75-75 75s-75-33.6-75-75 33.6-75 75-75 75 33.6 75 75zm-75 665.1c-41.4 0-75 33.6-75 75s33.6 75 75 75 75-33.6 75-75-33.6-75-75-75zM367 960c0-41.4-33.6-75-75-75s-75 33.6-75 75 33.6 75 75 75 75-33.6 75-75zm67.6 321c29.3 29.3 76.8 29.3 106.1 0 29.3-29.3 29.3-76.8 0-106.1-29.3-29.3-76.8-29.3-106.1 0s-29.3 76.8 0 106.1zm0-636.9c-29.3 29.3-29.3 76.8 0 106.1s76.8 29.3 106.1 0c29.3-29.3 29.3-76.8 0-106.1-29.3-29.3-76.8-29.3-106.1 0zm186.3-91.4c-38.4 15.7-56.7 59.5-41.1 97.8 15.7 38.4 59.5 56.7 97.8 41.1 38.4-15.7 56.7-59.5 41.1-97.8-15.6-38.4-59.4-56.8-97.8-41.1zM771 524.9c-38.4 15.7-56.7 59.5-41.1 97.8 15.7 38.4 59.5 56.7 97.8 41.1 38.4-15.7 56.7-59.5 41.1-97.8-15.7-38.4-59.5-56.8-97.8-41.1zM276.9 780.4c-16.3 38.1 1.4 82.2 39.4 98.5s82.2-1.4 98.5-39.4c16.3-38.1-1.4-82.2-39.4-98.5-38.1-16.3-82.2 1.4-98.5 39.4zm2.4 359.7c16.6 38 60.9 55.2 98.8 38.6s55.2-60.9 38.6-98.8c-16.6-38-60.9-55.2-98.8-38.6s-55.2 60.9-38.6 98.8zm342.2 232.5c38.5 15.4 82.1-3.4 97.5-41.8s-3.4-82.1-41.8-97.5c-38.5-15.4-82.1 3.4-97.5 41.8s3.3 82.1 41.8 97.5zm150 31.5c38.5 15.4 82.1-3.4 97.5-41.8 15.4-38.5-3.4-82.1-41.8-97.5-38.5-15.4-82.1 3.4-97.5 41.8-15.4 38.5 3.4 82.1 41.8 97.5zm113.5-69.7c0 41.4 33.6 75 75 75s75-33.6 75-75-33.6-75-75-75-75 33.6-75 75zm743-299.4c41.4 0 75-33.6 75-75s-33.6-75-75-75-75 33.6-75 75 33.6 75 75 75zm-142.6 139.9c-29.3-29.3-76.8-29.3-106.1 0s-29.3 76.8 0 106.1 76.8 29.3 106.1 0 29.3-76.8 0-106.1zm-106.1-530.8c-29.3 29.3-29.3 76.8 0 106.1s76.8 29.3 106.1 0 29.3-76.8 0-106.1-76.8-29.3-106.1 0zm-178-50.3c-15.7 38.4 2.7 82.1 41.1 97.8 38.4 15.7 82.1-2.7 97.8-41.1 15.7-38.4-2.7-82.1-41.1-97.8-38.4-15.7-82.2 2.7-97.8 41.1zm-150.1-27.9c-15.7 38.4 2.7 82.1 41.1 97.8 38.4 15.7 82.1-2.7 97.8-41.1s-2.7-82.1-41.1-97.8c-38.3-15.6-82.1 2.8-97.8 41.1zM1544.6 741c-38.1 16.3-55.7 60.4-39.4 98.5s60.4 55.7 98.5 39.4c38.1-16.3 55.7-60.4 39.4-98.5-16.3-38-60.4-55.7-98.5-39.4zm57.4 300.3c-38-16.6-82.2.7-98.8 38.6-16.6 38 .7 82.2 38.6 98.8 38 16.6 82.2-.7 98.8-38.6 16.7-37.9-.6-82.2-38.6-98.8zm-261.6 233.8c-15.4-38.5-59-57.2-97.5-41.8-38.5 15.4-57.2 59-41.8 97.5 15.4 38.5 59 57.2 97.5 41.8 38.4-15.4 57.1-59 41.8-97.5zm-150.1 31.5c-15.4-38.5-59-57.2-97.5-41.8-38.5 15.4-57.2 59-41.8 97.5 15.4 38.5 59 57.2 97.5 41.8 38.4-15.4 57.2-59 41.8-97.5z" id="Layer_2"/>
    <g id="STROKES">
        <circle class="st1" cx="960" cy="594.3" r="75"/>
        <circle class="st1" cx="960" cy="1334.4" r="75"/>
        <circle class="st1" cx="292" cy="960" r="75"/>
        <ellipse transform="rotate(-45.001 487.614 1227.944)" class="st1" cx="487.6" cy="1227.9" rx="75" ry="75"/>
        <ellipse transform="rotate(-45.001 487.62 697.151)" class="st1" cx="487.6" cy="697.1" rx="75" ry="75"/>
        <ellipse transform="rotate(-22.226 649.152 622.101)" class="st1" cx="649.3" cy="622.1" rx="75" ry="75"/>
        <ellipse transform="rotate(-22.226 799.202 594.299)" class="st1" cx="799.4" cy="594.3" rx="75" ry="75"/>
        <ellipse transform="rotate(-66.828 345.863 809.984)" class="st1" cx="345.9" cy="810" rx="75" ry="75"/>
        <ellipse transform="rotate(-23.648 348 1109.977)" class="st1" cx="348" cy="1110" rx="75" ry="75"/>
        <ellipse transform="rotate(-68.222 649.322 1302.991)" class="st1" cx="649.3" cy="1302.9" rx="75" ry="75"/>
        <ellipse transform="rotate(-68.222 799.395 1334.472)" class="st1" cx="799.4" cy="1334.4" rx="75" ry="75"/>
        <circle class="st1" cx="960" cy="1334.4" r="75"/>
        <circle class="st1" cx="1628" cy="960" r="75"/>
        <ellipse transform="rotate(-45.001 1432.367 1227.955)" class="st1" cx="1432.4" cy="1227.9" rx="75" ry="75"/>
        <ellipse transform="rotate(-45.001 1432.373 697.162)" class="st1" cx="1432.4" cy="697.1" rx="75" ry="75"/>
        <ellipse transform="rotate(-67.778 1270.783 622.147)" class="st1" cx="1270.7" cy="622.1" rx="75" ry="75"/>
        <ellipse transform="rotate(-67.778 1120.708 594.328)" class="st1" cx="1120.6" cy="594.3" rx="75" ry="75"/>
        <ellipse transform="rotate(-23.176 1573.98 810.01)" class="st1" cx="1574.1" cy="810" rx="75" ry="75"/>
        <ellipse transform="rotate(-66.352 1572.076 1110.084)" class="st1" cx="1572" cy="1110" rx="75" ry="75"/>
        <ellipse transform="rotate(-21.778 1270.71 1302.959)" class="st1" cx="1270.7" cy="1302.9" rx="75" ry="75"/>
        <ellipse transform="rotate(-21.778 1120.642 1334.439)" class="st1" cx="1120.6" cy="1334.4" rx="75" ry="75"/>
    </g>
</svg>
