<svg xmlns="http://www.w3.org/2000/svg" viewBox="0 0 1920 1920">
    <style>
        .st0{fill:#fff}.st1{fill:none;stroke:#231f20;stroke-width:50;stroke-linecap:round;stroke-linejoin:round;stroke-miterlimit:10}
    </style>
    <path class="st0" d="M1687.7 1090.6c0-76.4-28-146.2-74.2-199.9 39.1-51.4 62.3-115.6 62.3-185.2 0-164.9-130.3-299.3-293.5-306.1-47.6-107.5-155.2-182.5-280.3-182.5-51.3 0-99.6 12.6-142 34.9-42.5-22.3-90.8-34.9-142-34.9-125.1 0-232.7 75-280.3 182.5-163.2 6.8-293.5 141.2-293.5 306.1 0 69.6 23.2 133.7 62.3 185.2-46.2 53.7-74.2 123.5-74.2 199.9 0 87.7 36.9 166.9 96 222.7-1.5 21.7-.3 44 4.1 66.3 24.1 124.4 135 210 257.7 206.2 54.9 82.3 148.6 136.5 255 136.5 40.7 0 79.4-7.9 114.9-22.3 35.5 14.4 74.3 22.3 114.9 22.3 106.4 0 200.1-54.2 255-136.5 122.7 3.8 233.6-81.8 257.7-206.2 4.3-22.4 5.6-44.6 4.1-66.3 59.1-55.8 96-135 96-222.7z" id="Layer_2"/>
    <g id="Layer_1">
        <path class="st1" d="M1687.7 1090.6c0-76.4-28-146.2-74.2-199.9 39.1-51.4 62.3-115.6 62.3-185.2 0-164.9-130.3-299.3-293.5-306.1-47.6-107.5-155.2-182.5-280.3-182.5-51.3 0-99.6 12.6-142 34.9-42.5-22.3-90.8-34.9-142-34.9-125.1 0-232.7 75-280.3 182.5-163.2 6.8-293.5 141.2-293.5 306.1 0 69.6 23.2 133.7 62.3 185.2-46.2 53.7-74.2 123.5-74.2 199.9 0 87.7 36.9 166.9 96 222.7-1.5 21.7-.3 44 4.1 66.3 24.1 124.4 135 210 257.7 206.2 54.9 82.3 148.6 136.5 255 136.5 40.7 0 79.4-7.9 114.9-22.3 35.5 14.4 74.3 22.3 114.9 22.3 106.4 0 200.1-54.2 255-136.5 122.7 3.8 233.6-81.8 257.7-206.2 4.3-22.4 5.6-44.6 4.1-66.3 59.1-55.8 96-135 96-222.7z"/>
        <path class="st1" d="M960 251.8V1700"/>
        <path class="st1" d="M328.3 1313.3s33.3-242.5 237.3-242.5"/>
        <path class="st1" d="M1591.7 1313.3s-45.1 48.4-147.4 61.1"/>
        <path class="st1" d="M1145 1424.4s-28.7-65.5 18.6-118 109.8-21.8 109.8-21.8"/>
        <path class="st1" d="M1181.9 1107.4s-59.8-39.2-48.9-109c10.9-69.8 80-78.2 80-78.2"/>
        <path class="st1" d="M522 1341.1c77.8-41.4 174.3-29.4 234.5 35.4 33.7 36.3 50.1 82.7 49.8 129.6"/>
        <path class="st1" d="M806.2 713.3c2.8 88.1-50.5 169.4-135.2 194.9-47.4 14.3-96.3 8.5-138.3-12.5"/>
        <path class="st1" d="M453.6 570s58.9-51.6 134.2 2.7c61.8 44.6 49.1 101 40.8 129.7"/>
        <path class="st1" d="M1613.5 890.7s-120.9 123.1-237.9 135.1"/>
        <path class="st1" d="M1373.9 696.3c-80.1 29.5-168.9-11.6-198.4-91.7-13.7-37.3-12.2-76.4 1.5-110.6"/>
    </g>
</svg>
