<svg xmlns="http://www.w3.org/2000/svg" viewBox="0 0 1920 1920">
    <style>
        .st0{fill:#fff}.st1{fill:none;stroke:#231f20;stroke-width:50;stroke-linecap:round;stroke-linejoin:round;stroke-miterlimit:10}
    </style>
    <path class="st0" d="M1640.4 1013.8c21.9 31.9 34.7 70.5 34.7 112 0 109.4-88.7 198.1-198.1 198.1 0 0-33.9 131.9-238.9 164.8l-39 6.8c21.4 56.3 58.4 124.4 120.2 204.5h-148.8L947 1345l-2.7-6.5c-29.3 38.7-71.3 66.9-121.3 77.1-84.6 17.2-168.2-22.1-215.8-92.9-15 2-36.3 6.1-51.9 6.1-186.9 0-338.5-151.5-338.5-338.5 0-186.9 151.5-338.5 338.5-338.5C594.9 579.7 661.6 524.1 743 521c45.6-1.7 88.1 13.9 123.3 37.7l11.9 7c36.3-40.7 89.2-66.2 148-66.2 123.2 0 161.2 82.6 161.2 82.6l2.5 5.3c29-21.6 65-34.3 103.9-34.3 96.3 0 174.3 78 174.3 174.3 0 5.1-.2 10.2-.7 15.2 0 0 111-46.7 177.8 43.5 64.4 86.6 30 154.4-4.8 227.7z" id="Layer_6"/>
    <g id="Layer_1">
        <path class="st1" d="M811.7 1023s30.6-46.7 120.3-48.8c150.6-3.5 147 128.9 150.6 157.6"/>
        <path class="st1" d="M1253.4 774s-51.9 55.2-129.4 9.9c-63.6-37.2-56.6-92.6-51.3-121.1"/>
        <path class="st1" d="M626.9 1162.2c-80.8 16.7-159.9-35.3-176.6-116.1-7.8-37.6-.7-74.8 17.3-105.6"/>
        <path class="st1" d="M601.4 1325.7c-15 2-30.4 3.1-46 3.1-186.9 0-338.5-151.5-338.5-338.5s151.5-338.5 338.5-338.5"/>
        <path class="st1" d="M527 785.9c-2.9-14.4-7.5-29.5-4.5-44.4C545.2 630.7 630.1 525.3 743 521c45.6-1.7 88.1 13.9 123.3 37.7"/>
        <path class="st1" d="M1187.4 582s-38-82.6-161.2-82.6c-73.3 0-137.4 39.7-171.8 98.8"/>
        <path class="st1" d="M1640.4 1013.8c34.7-73.3 69.2-141.1 4.9-227.9-66.8-90.1-177.8-43.4-177.8-43.4"/>
        <path class="st1" d="M987.2 1235c-12.7 88.6-76 162.7-164.2 180.6-113.9 23.2-226.2-56.1-250.8-177.1-5-24.7-6-49.1-3.4-72.7"/>
        <path class="st1" d="M1377.1 954.8c29.3-17.2 63.5-27.1 100-27.1 109.4 0 198.1 88.7 198.1 198.1s-88.7 198.1-198.1 198.1c0 0-33.9 131.9-238.9 164.8"/>
        <path class="st1" d="M947.1 1345l223.5 355"/>
        <path class="st1" d="M1187.4 1291.1s-80.7 133.3 132 409"/>
        <path class="st1" d="M1170.6 604c31.5-31.5 75.1-51.1 123.2-51.1 96.3 0 174.3 78 174.3 174.3 0 31.9-8.5 61.7-23.5 87.4"/>
    </g>
</svg>
