<svg xmlns="http://www.w3.org/2000/svg" viewBox="0 0 1920 1920">
    <style>
        .st0{fill:#fff}.st1{fill:none;stroke:#231f20;stroke-width:50;stroke-linecap:round;stroke-linejoin:round;stroke-miterlimit:10}
    </style>
    <path class="st0" d="M1421.5 1352.7l-.4 282.5H1274c-13.2-152.2-162.9-156.8-162.9-156.8 25.1-18.3 46.8-41.1 63.9-67.2 20.6 4.6 41.9 7.1 63.9 7.1 69.3-.1 132.9-24.7 182.6-65.6zM1703.2 842c-.1-115.6-76.9-213.3-182.2-244.9-25.1-133.6-142.4-234.6-283.2-234.5-22 0-43.3 2.5-63.9 7.2-45.8-69.8-124.7-115.8-214.3-115.7-89.7.1-168.5 46.3-214.1 116.1-20.6-4.6-41.9-7.1-63.9-7.1-140.9.1-258 101.4-282.8 235C293.5 630 217 727.8 217.1 843.3c0 16.3 1.6 32.3 4.5 47.8-3 15.6-4.5 31.8-4.5 48.3.1 115.6 76.9 213.3 182.2 244.9 25.1 133.6 142.4 234.6 283.2 234.5 22 0 43.3-2.5 63.9-7.2 45.8 69.8 124.7 115.8 214.3 115.7 56.2-.1 108.1-18.2 150.2-48.9 25.1-18.3 46.8-41.1 63.9-67.2 20.6 4.6 41.9 7.1 63.9 7.1 69.3-.1 133-24.7 182.6-65.6 11.4-9.4 22.1-19.7 32-30.8 11.3 2.5 23.1 3.9 35.1 3.9 88.3 0 159.9-71.6 159.9-159.9 0-20.1-3.7-39.3-10.5-57 40.6-45.3 65.3-105.2 65.2-170.8 0-16.3-1.6-32.3-4.5-47.8 3.2-15.7 4.7-31.8 4.7-48.3z" id="Layer_5"/>
    <g id="Layer_1">
        <g id="XMLID_1_">
            <path class="st1" d="M1274 1635.2c-13.2-152.2-162.9-156.8-162.9-156.8"/>
            <path class="st1" d="M1421.5 1352.7l-.4 282.5"/>
            <path class="st1" d="M1698.7 890.2c3-15.6 4.5-31.8 4.5-48.3-.1-115.6-76.9-213.3-182.2-244.9-25.1-133.6-142.4-234.6-283.2-234.5-22 0-43.3 2.5-63.9 7.2-45.8-69.8-124.7-115.8-214.3-115.7-89.7.1-168.5 46.3-214.1 116.1-20.6-4.6-41.9-7.1-63.9-7.1-140.9.1-258 101.4-282.8 235C293.5 630 217 727.8 217.1 843.3c0 16.3 1.6 32.3 4.5 47.8-3 15.6-4.5 31.8-4.5 48.3.1 115.6 76.9 213.3 182.2 244.9 25.1 133.6 142.4 234.6 283.2 234.5 22 0 43.3-2.5 63.9-7.2 45.8 69.8 124.7 115.8 214.3 115.7 56.2-.1 108.1-18.2 150.2-48.9 25.1-18.3 46.8-41.1 63.9-67.2 20.6 4.6 41.9 7.1 63.9 7.1 85.3-.1 161.9-37.3 214.6-96.3 11.3 2.5 23.1 3.9 35.1 3.9 88.3 0 159.9-71.6 159.9-159.9 0-20.1-3.7-39.3-10.5-57 40.6-45.3 65.3-105.2 65.2-170.8.2-16.5-1.3-32.5-4.3-48z"/>
            <path class="st1" d="M1173.9 369.8s-157.1 169.2 36.2 362.4"/>
            <path class="st1" d="M399.4 1184.3s378.7 63.6 294.6-293.6"/>
            <path class="st1" d="M681.1 1091.3S907 973.7 973 1131.8"/>
            <path class="st1" d="M745.4 370.2S960 434.7 960 623.8"/>
            <path class="st1" d="M1348.4 1229.6c-42.8-53.3-77-127.3-51.3-215.8"/>
            <path class="st1" d="M1453.4 1321.9s-57.8-33.6-105.1-92.3"/>
            <path class="st1" d="M1348.4 1229.6c.9-.2 116.8-20.8 143.7-139.1"/>
            <path class="st1" d="M746.5 1411.6s43.5-167.2 298.6-120.5"/>
            <path class="st1" d="M221.6 891.2S307 662.9 565 776.2"/>
            <path class="st1" d="M457.8 742.5s83.9-156.7 200.2-108"/>
            <path class="st1" d="M1698.7 890.2s-91.4-78.2-188.6-78.2c-36.7 0-74.3 11.1-108 41.8"/>
            <path class="st1" d="M1468.1 683.8s-48 46.4 42 128.2"/>
            <path class="st1" d="M304.6 1131.8s21.8-209.6 153.2-204"/>
        </g>
    </g>
</svg>
