<svg xmlns="http://www.w3.org/2000/svg" viewBox="0 0 1920 1920">
    <style>
        .st0{fill:#fff}.st1{fill:none;stroke:#231f20;stroke-width:50;stroke-linecap:round;stroke-linejoin:round;stroke-miterlimit:10}
    </style>
    <path class="st0" d="M1634.9 292.8c198 168.9-207 558.3-207 558.3l-516.1 516.7s-294 328.3-519 335.2c-114.5 3.5-153.7-105.4-164.5-213.2-10.3-102.7 5.2-206.4 43.9-302.1l4.5-11c259.1 175 380.1 20.9 380.1 20.9-156-11.2-330-144.7-330-144.7s27-167.2 143.1-281.1c248.3 190.1 451.6 82.5 451.6 82.5-155.1-20.4-320.8-164.1-320.8-164.1l-.3-.8c5.7-2 11.5-3.9 17.5-5.7 0 0 47.2-176.9 214.7-223.3 279.3 229.7 450.2 102.4 450.2 102.4-155.1-20.4-301.2-154.1-301.2-154.1l-18.5-16.3c56.4-48.2 142.8-107.9 215.8-98.8-.1.2 258-169.7 456-.8z" id="Layer_3"/>
    <path class="st0" d="M326.8 1053s174 133.5 330 144.7c0 0-121 154.1-380.1-20.9l50.1-123.8zm273.8-362.8l-.3-.8c-52.7 18.6-95.6 48.1-130.5 82.3 248.3 190.1 451.6 82.5 451.6 82.5-155.1-20.3-320.8-164-320.8-164zm380.9-281.3L963 392.6c-36.3 31-60.3 57.2-60.3 57.2-25.5 1-48.9 4.8-70.3 10.8C1111.7 690.3 1282.6 563 1282.6 563c-154.9-20.5-301.1-154.1-301.1-154.1z" id="Layer_4"/>
    <g id="STROKES">
        <path class="st1" d="M326.8 1053s27-167.2 143.1-281.1c34.9-34.2 77.8-63.7 130.5-82.3 5.7-2 11.5-3.9 17.5-5.7 0 0 47.2-176.9 214.7-223.3 21.4-5.9 44.8-9.7 70.3-10.8 0 0 23.9-26.2 60.3-57.2 56.4-48.2 142.8-107.9 215.8-98.8 0 0 258-169.9 456.1-.9s-207 558.3-207 558.3L912 1367.9s-294 328.3-519 335.2c-114.5 3.5-153.7-105.4-164.5-213.2-10.3-102.7 5.2-206.4 43.9-302.1l4.5-11 49.9-123.8z"/>
        <path class="st1" d="M326.8 1053s174 133.5 330 144.7c0 0-121 154.1-380.1-20.9"/>
        <path class="st1" d="M600.6 690.2s165.8 143.7 320.8 164.1c0 0-203.3 107.5-451.6-82.5"/>
        <path class="st1" d="M832.5 460.5c279.3 229.7 450.2 102.4 450.2 102.4-155.1-20.4-301.2-154.1-301.2-154.1L963 392.5"/>
    </g>
</svg>
