<svg xmlns="http://www.w3.org/2000/svg" viewBox="0 0 1920 1920">
    <style>
        .st0{fill:#fff}.st1{fill:none;stroke:#231f20;stroke-width:50;stroke-linecap:round;stroke-linejoin:round;stroke-miterlimit:10}
    </style>
    <path class="st0" d="M1703.1 1158.8c0 16.2-6.6 31-17.3 41.7-10.7 10.7-25.4 17.3-41.7 17.3H276c-32.5 0-59-26.5-59-59 0-104.6 42.8-199.7 111.8-268.7 66.5-66.5 157.3-108.7 257.5-111.6v.8l72 252.5 66-252.5v-.9H891v.9l72 252.5 66-252.5v-.9h166.7v.9l72 252.5 66-252.5v-.8c204.2 6 369.4 174.8 369.4 380.3z" id="Layer_5"/>
    <g id="Layer_6">
        <path class="st0" d="M1333.8 778.6v.8l-66 252.5-72-252.5v-.9h126.9c3.6-.1 7.4 0 11.1.1z"/>
        <path class="st0" d="M1029 778.4v.9l-66 252.5-72-252.5v-.9z"/>
        <path class="st0" d="M724.3 778.4v.9l-66 252.5-72-252.5v-.8c3.7-.1 7.4-.2 11.1-.2h126.9z"/>
    </g>
    <g id="STROKES">
        <path class="st1" d="M1333.8 778.6c204.1 6 369.3 174.8 369.3 380.3 0 16.2-6.6 31-17.3 41.7-10.7 10.7-25.4 17.3-41.7 17.3H276c-32.5 0-59-26.5-59-59 0-104.6 42.8-199.7 111.8-268.7 66.5-66.5 157.3-108.7 257.5-111.6 3.7-.1 7.4-.2 11.1-.2h725.2c3.7 0 7.5.1 11.2.2z"/>
        <path class="st1" d="M586.3 779.3l72 252.5 66-252.5"/>
        <path class="st1" d="M891 779.3l72 252.5 66-252.5"/>
        <path class="st1" d="M1195.7 779.3l72 252.5 66-252.5"/>
    </g>
</svg>
