<svg xmlns="http://www.w3.org/2000/svg" viewBox="0 0 1920 1920">
    <style>
        .st0{fill:#fff}.st1{fill:none;stroke:#231f20;stroke-width:50;stroke-linecap:round;stroke-linejoin:round;stroke-miterlimit:10}
    </style>
    <path class="st0" d="M1644.6 694.7c0 146.8-64.6 278.2-166.2 365.7v670.2H441.6v-670.2C340 972.9 275.4 841.5 275.4 694.7c0-263.4 207.9-477 464.4-477 79.7 0 154.6 20.6 220.2 56.9 65.5-36.3 140.5-56.9 220.2-56.9 256.5 0 464.4 213.6 464.4 477z" id="Layer_2"/>
    <g id="STROKES">
        <path class="st1" d="M779.2 912.6l283.4-283.4"/>
        <path class="st1" d="M920.9 1254.3L1204.2 971"/>
        <path class="st1" d="M654.3 1283.6l611.4-611.4"/>
        <path class="st1" d="M1644.6 694.7c0-263.4-207.9-477-464.4-477-79.7 0-154.7 20.6-220.2 56.9-65.5-36.3-140.5-56.9-220.2-56.9-256.5 0-464.4 213.6-464.4 477 0 146.8 64.6 278.2 166.2 365.7v670.2h1036.8v-670.2c101.6-87.5 166.2-218.9 166.2-365.7z"/>
    </g>
</svg>
