<svg xmlns="http://www.w3.org/2000/svg" viewBox="0 0 1920 1920">
    <style>
        .st0{display:none}.st1{display:inline}.st1,.st2{fill:#fff}.st3{fill:none;stroke:#231f20;stroke-width:50;stroke-linecap:round;stroke-linejoin:round;stroke-miterlimit:10}
    </style>
    <path class="st2" d="M1279.2 601.5v429.4H640.8V601.5S702.4 884.8 960 884.8s319.2-283.3 319.2-283.3z" id="Layer_6"/>
    <g id="Layer_7">
        <path class="st2" d="M640.8 601.5v429.4H214.1c344.4 0 426.7-429.4 426.7-429.4z"/>
        <path class="st2" d="M1705.9 1030.9h-426.7V601.5s82.3 429.4 426.7 429.4z"/>
    </g>
    <g id="STROKE">
        <path class="st3" d="M1279.2 601.5s82.4 429.4 426.7 429.4H214.1c344.3 0 426.7-429.4 426.7-429.4"/>
        <path class="st3" d="M640.8 601.5v717"/>
        <path class="st3" d="M1279.2 601.5v717"/>
        <path class="st3" d="M640.8 601.5S702.4 884.8 960 884.8s319.2-283.3 319.2-283.3"/>
    </g>
</svg>
