<svg xmlns="http://www.w3.org/2000/svg" viewBox="0 0 1920 1920">
    <style>
        .st0{fill:#fff}.st1{fill:none;stroke:#231f20;stroke-width:50;stroke-linecap:round;stroke-linejoin:round;stroke-miterlimit:10}
    </style>
    <path class="st0" d="M1572.9 582.9c75.8 29.4 130.1 108.4 130.1 201.2 0 106.7-71.8 195.2-165.6 211-9.8 91.6-73.7 167-159 193.8 1.5 8.5 2.3 17.3 2.3 26.2 0 82.6-67 149.6-149.6 149.6-32.2 0-62-10.2-86.4-27.4-50.1 84.7-93.2 201.5-93.2 365.7H876c0-204.5-51.5-349.1-106-444.8-22.6 16.8-50.7 26.8-81 26.8-75.1 0-136-60.9-136-136 0-2.5.1-5 .2-7.5-116-12.9-206.2-111.2-206.2-230.7 0-34.6 7.6-67.5 21.2-97.1-32.1-30.6-52-73.8-52-121.6 0-84 61.6-153.5 142-166C480.6 387.7 600.6 282 745.4 282c23.2 0 45.7 2.7 67.3 7.8 27.1-43.8 75.5-72.9 130.7-72.9 36.9 0 70.8 13 97.3 34.7 47.9-22.3 101.4-34.7 157.7-34.7 204 0 369.9 163.1 374.5 366z" id="Layer_4"/>
    <g id="STROKES">
        <path class="st1" d="M1703.1 784.2c0-92.8-54.3-171.8-130.1-201.2-4.6-202.9-170.5-366-374.6-366-56.3 0-109.8 12.4-157.7 34.7-26.5-21.7-60.4-34.7-97.3-34.7-55.2 0-103.6 29.2-130.7 72.9-21.6-5.1-44.1-7.8-67.3-7.8-144.8 0-264.8 105.7-287.2 244.1-80.5 12.5-142 82.1-142 166 0 47.8 20 91 52 121.6-13.6 29.5-21.2 62.4-21.2 97.1 0 119.5 90.2 217.8 206.2 230.7-.1 2.5-.2 5-.2 7.5 0 75.1 60.9 136 136 136 30.4 0 58.4-9.9 81-26.8 54.6 95.8 106 240.3 106 444.8h175.5c0-164.2 43.2-281.1 93.2-365.7 24.4 17.3 54.2 27.4 86.4 27.4 82.6 0 149.6-67 149.6-149.6 0-8.9-.8-17.7-2.3-26.2 85.3-26.8 149.2-102.2 159-193.8 93.8-15.9 165.7-104.3 165.7-211z" id="XMLID_1_"/>
    </g>
</svg>
