<svg xmlns="http://www.w3.org/2000/svg" viewBox="0 0 1920 1920">
    <style>
        .st0{fill:#fff}.st1{fill:none;stroke:#231f20;stroke-width:50;stroke-linecap:round;stroke-linejoin:round;stroke-miterlimit:10}
    </style>
    <path class="st0" d="M1012.7 1130c-5.7.3-11.4.5-17.2.5-20 0-39.5-2.1-58.3-6.2-44.8-9.7-85.5-30.2-119.2-58.8-13.5-11.4-25.9-24.1-37-37.9-22.8 35.5-55.4 64.1-93.9 82-28.7 13.4-60.8 20.9-94.6 20.9-123.7 0-224-100.3-224-224 0-90.7 53.9-168.8 131.5-204.1-17.8-36.9-27.8-78.2-27.8-121.9 0-155 125.7-280.7 280.7-280.7 63.4 0 121.8 21 168.8 56.4C987.9 283 1083.6 237 1190 237c199.7 0 361.5 161.9 361.5 361.5 0 86.5-30.3 165.8-81 228 30 37.7 48 85.5 48 137.5 0 122.1-98.9 221-221 221-20.8 0-40.8-2.9-59.9-8.2-41.8-11.7-78.5-35.4-106.4-67.2-2.9-3.3-5.8-6.8-8.5-10.3-33.2 17.4-70.5 28.2-110 30.7z" id="Layer_2"/>
    <path class="st0" d="M1131.3 1109.6c27.8 31.7 64.6 55.5 106.4 67.2-54 68.5-189.3 211.3-189.3 526.3H879c0-420-191.9-593.5-191.9-593.5 38.5-18 71.1-46.6 93.9-82 11.1 13.8 23.5 26.5 37 37.9l79 195.5 40.2-136.7c18.8 4.1 38.3 6.2 58.3 6.2 5.8 0 11.5-.2 17.2-.5l8.3 199 110.3-219.4z" id="Layer_3"/>
    <g id="STROKES">
        <g id="XMLID_1_">
            <path class="st1" d="M1131.3 1109.6c27.8 31.7 64.6 55.5 106.4 67.2 19 5.4 39.1 8.2 59.9 8.2 122.1 0 221-98.9 221-221 0-52-17.9-99.8-48-137.5 50.6-62.2 81-141.6 81-228 0-199.6-161.8-361.5-361.5-361.5-106.4 0-202.1 46-268.3 119.2-47-35.4-105.4-56.4-168.8-56.4-155 0-280.7 125.7-280.7 280.7 0 43.7 10 85.1 27.8 121.9-77.5 35.2-131.5 113.3-131.5 204.1 0 123.7 100.3 224 224 224 33.8 0 65.9-7.5 94.6-20.9 38.5-18 71.1-46.6 93.9-82 11.1 13.8 23.5 26.5 37 37.9 33.7 28.6 74.4 49.1 119.2 58.8 18.8 4.1 38.3 6.2 58.3 6.2 5.8 0 11.5-.2 17.2-.5 39.6-2.4 76.8-13.2 110.1-30.7 2.6 3.5 5.4 7 8.4 10.3"/>
            <path class="st1" d="M1237.6 1176.8c-54 68.5-189.3 211.3-189.3 526.3H879c0-420-191.9-593.5-191.9-593.5"/>
            <path class="st1" d="M817.9 1065.5L897 1261l40.2-136.7"/>
            <path class="st1" d="M1012.7 1130l8.3 199 110.3-219.4"/>
        </g>
    </g>
</svg>
