<svg xmlns="http://www.w3.org/2000/svg" viewBox="0 0 1920 1920">
    <style>
        .st0{fill:#fff}.st1{fill:none;stroke:#231f20;stroke-width:50;stroke-linecap:round;stroke-linejoin:round;stroke-miterlimit:10}
    </style>
    <path class="st0" d="M878.4 1139.6c-9.1-27.1-25.4-49.1-37.1-60.8-11.5-11.5-32.9-27.4-59.3-36.6l789.6-789.9c26.5-26.5 69.8-26.5 96.2 0 13.2 13.2 19.8 30.7 19.8 48.1 0 17.4-6.6 34.9-19.8 48.1l-789.4 791.1z" id="Layer_2"/>
    <path class="st0" d="M878.4 1139.6c8.7 26 10.8 56.6-4.2 87.2L701 1558.2 361.8 1219l331.4-173.2c31.2-15.3 62.4-12.8 88.7-3.7 26.4 9.2 47.9 25.1 59.3 36.6 11.8 11.7 28.1 33.8 37.2 60.9zM361.8 1219l-129.4 67.6 401 400.9 67.6-129.4L361.8 1219z" id="Layer_3"/>
    <g id="STROKES">
        <g id="XMLID_1_">
            <path class="st1" d="M781.9 1042.2l789.6-789.9c26.5-26.5 69.8-26.5 96.2 0 13.2 13.2 19.8 30.7 19.8 48.1 0 17.4-6.6 34.9-19.8 48.1l-789.4 791.1"/>
            <path class="st1" d="M361.8 1219l-129.4 67.6 401 400.9 67.6-129.4 173.2-331.4c15-30.6 12.9-61.2 4.2-87.2-9.1-27.1-25.4-49.1-37.1-60.8-11.5-11.5-32.9-27.4-59.3-36.6-26.3-9.2-57.5-11.6-88.7 3.7L361.8 1219z"/>
            <path class="st1" d="M361.8 1219L701 1558.2l2.6 2.7"/>
        </g>
    </g>
</svg>
