<svg xmlns="http://www.w3.org/2000/svg" viewBox="0 0 1920 1920">
    <style>
        .st0{fill:#fff}.st1{fill:none;stroke:#231f20;stroke-width:50;stroke-linecap:round;stroke-linejoin:round;stroke-miterlimit:10}
    </style>
    <path class="st0" d="M1242.1 1703.1h-160.5l-64.2-91.7-36.7 91.7H861.4l-36.7-91.7-64.2 91.7H599.9s114.7 0 127.3-247h387.5c12.6 247 127.4 247 127.4 247zm-128.5-292.5c0-266.4-159.9-272.8-188.3-271.9-2.9.1-5.7.1-8.6 0-28.5-1-188.3 5.4-188.3 271.9 0 16-.4 31.2-1.1 45.5h387.5c-.8-14.3-1.2-29.5-1.2-45.5z" id="Layer_4"/>
    <g id="STROKES">
        <g id="XMLID_1_">
            <path class="st1" d="M921 216.9v921.8"/>
            <path class="st1" d="M921 1703.1h59.6l36.7-91.7 64.2 91.7H1242s-114.7 0-127.3-247c-.7-14.3-1.1-29.4-1.1-45.5 0-266.4-159.9-272.8-188.3-271.9-2.9.1-5.7.1-8.6 0-28.5-1-188.3 5.4-188.3 271.9 0 16-.4 31.2-1.1 45.5-12.6 247-127.3 247-127.3 247h160.5l64.2-91.7 36.7 91.7H921"/>
            <path class="st1" d="M727.2 1456.1h387.6"/>
        </g>
    </g>
</svg>
