<svg xmlns="http://www.w3.org/2000/svg" viewBox="0 0 1920 1920">
    <style>
        .st0{fill:#fff}.st1{fill:none;stroke:#231f20;stroke-width:50;stroke-linecap:round;stroke-linejoin:round;stroke-miterlimit:10}
    </style>
    <path class="st0" d="M1629.8 287.8c0 11.2-3.6 22.6-11.2 32.2l-643.9 820.8-2.5.5c-11.1-10.2-23.3-20.6-36.7-31.1-15.4-12.1-30.3-22.6-44.5-31.7l1.3-2.1 643.9-820.9c16.8-21.4 47.3-26.4 70-11.4 15.4 10.1 23.6 26.7 23.6 43.7z" id="Layer_5"/>
    <path class="st0" d="M972.3 1141.3c149 137.7 90.3 244.5 90.3 244.5l-106.3-83.2-106.3-83.1-106.3-83.2-106.3-83.2s87.6-80.9 253.6 25.2c14.3 9.1 29.1 19.7 44.5 31.7 13.5 10.7 25.7 21.1 36.8 31.3z" id="Layer_6"/>
    <g id="Layer_7">
        <path class="st0" d="M850 1219.5l106.3 83.2c-32.6 41.6-62.2 77.5-89.2 108.5L760.9 1328l.1-.1c26.9-30.9 56.5-66.8 89-108.4z"/>
        <path class="st0" d="M956.3 1302.7l106.3 83.2c-32.6 41.6-62.2 77.5-89.2 108.5l-.2-.1-106.1-83c27-31.1 56.6-67 89.2-108.6z"/>
        <path class="st0" d="M920.6 1552.3l.1.1c-165.8 174-205.4 126.2-205.4 126.2L612 1597.8c11.7 7 61.4 19.5 202.5-128.5l106.1 83z"/>
        <path class="st0" d="M814.4 1469.2c-141 148-190.7 135.6-202.4 128.6l-2.9-2.3-97.8-76.5c17.8 7.4 68.7 3.8 196.8-133l106.3 83.2z"/>
        <path class="st0" d="M601.9 1302.9l106.2 83.1c-128.1 136.8-179 140.4-196.8 133l-8.5-6.6-103.4-80.9c11.7 6.9 61.4 19.5 202.5-128.6z"/>
        <path class="st0" d="M495.6 1219.7l106.3 83.2c-141.1 148.1-190.8 135.5-202.5 128.5l-2.9-2.3-103.3-80.9c11.7 7.1 61.3 19.6 202.4-128.5z"/>
        <path class="st0" d="M637.5 1053.2l106.3 83.2c-35.9 45.9-60 75.4-89.1 108.5l-106.3-83.2c26.9-31 56.5-66.9 89.1-108.5z"/>
        <path class="st0" d="M743.7 1136.3l106.3 83.2c-32.5 41.6-62.1 77.5-89.1 108.4l-.1.1-106.3-83.2c29.2-33 53.3-62.6 89.2-108.5z"/>
    </g>
    <path class="st0" d="M867.1 1411.2l106.1 83 .2.1c-18.8 21.7-36.4 40.9-52.7 58l-.1-.1-106.1-83.1-106.4-83.1-106.2-83.1-106.3-83.2c16.3-17.1 33.8-36.4 52.7-58l106.3 83.2 106.3 83.2 106.2 83.1z" id="Layer_8"/>
    <g id="STROKES">
        <g id="XMLID_1_">
            <path class="st1" d="M293.2 1348.3c11.7 7 61.4 19.5 202.5-128.5 16.3-17.1 33.8-36.4 52.7-58 27-31 56.6-66.9 89.1-108.5"/>
            <path class="st1" d="M293.2 1348.3l-2.9-2.3c-.1 0 .8 1 2.9 2.3z"/>
            <path class="st1" d="M1062.6 1385.8c-32.6 41.6-62.2 77.5-89.2 108.5-18.8 21.7-36.4 40.9-52.7 58-165.8 174-205.4 126.2-205.4 126.2L612 1597.8l-2.9-2.3-97.8-76.5-8.5-6.6-103.4-80.9-2.9-2.3-103.3-80.9"/>
            <path class="st1" d="M654.6 1244.9c29.1-33.1 53.2-62.6 89.1-108.5"/>
            <path class="st1" d="M396.5 1429.1s.9 1.1 2.9 2.3c11.7 7 61.3 19.6 202.5-128.5"/>
            <path class="st1" d="M760.9 1328c27-31 56.6-66.9 89.1-108.4"/>
            <path class="st1" d="M502.8 1512.3s2.2 4 8.5 6.6c17.8 7.4 68.7 3.8 196.8-133"/>
            <path class="st1" d="M867.1 1411.2c27-31 56.6-66.9 89.2-108.5"/>
            <path class="st1" d="M609 1595.5s.9 1.1 2.9 2.3c11.7 7 61.4 19.5 202.5-128.5"/>
            <path class="st1" d="M1062.6 1385.8s58.8-106.8-90.3-244.5c-11.1-10.2-23.3-20.6-36.7-31.1-15.4-12.1-30.3-22.6-44.5-31.7-166-106.2-253.6-25.2-253.6-25.2l106.3 83.2 106.3 83.2 106.3 83.2 106.2 82.9z"/>
            <path class="st1" d="M892.4 1076.3l643.9-820.9c16.8-21.4 47.3-26.4 70-11.4 15.3 10.1 23.5 26.8 23.5 43.7 0 11.2-3.6 22.6-11.2 32.2l-643.9 820.8"/>
            <path class="st1" d="M548.2 1161.6l.1.1 106.3 83.2 106.3 83.1 106.2 83.2 106.1 83"/>
            <path class="st1" d="M814.4 1469.2h.1l106.1 83.1"/>
            <path class="st1" d="M708.1 1386l106.3 83.2"/>
            <path class="st1" d="M495.5 1219.7h.1l106.3 83.2 106.2 83.1"/>
        </g>
    </g>
</svg>
