<svg xmlns="http://www.w3.org/2000/svg" viewBox="0 0 1920 1920">
    <style>
        .st0{fill:#fff}.st1{fill:none;stroke:#231f20;stroke-width:50;stroke-linecap:round;stroke-linejoin:round;stroke-miterlimit:10}
    </style>
    <path class="st0" d="M1637.8 278.5v27.2c0 36-29.5 65.5-65.5 65.5H317.7c-36 0-65.5-29.5-65.5-65.5v-27.2c0-36 29.5-65.5 65.5-65.5h1254.6c36 0 65.5 29.5 65.5 65.5z" id="Layer_4"/>
    <path class="st0" d="M1567 371.2l-4.7 70.4-55.8 844.8-27.5 416.7H441l-27.5-416.7-55.9-844.8-4.6-70.4z" id="Layer_5"/>
    <g id="STROKES">
        <path class="st1" d="M353 371.2h-35.3c-36 0-65.5-29.5-65.5-65.5v-27.2c0-36 29.5-65.5 65.5-65.5h1254.6c36 0 65.5 29.5 65.5 65.5v27.2c0 36-29.5 65.5-65.5 65.5H353z"/>
        <path class="st1" d="M353 371.2l4.6 70.4 55.9 844.8 27.5 416.7h519"/>
        <path class="st1" d="M1567 371.2l-4.7 70.4-55.8 844.8-27.5 416.7H960"/>
        <path class="st1" d="M1562.3 441.6c87.8 107.2 140.7 244 140.7 392.6 0 88.9-18.9 173.6-53 250.3-34 76.7-83.2 145.3-143.6 202"/>
        <path class="st1" d="M357.6 441.6c-87.8 107.2-140.7 244-140.7 392.6 0 88.9 18.9 173.6 53 250.3s83.2 145.3 143.6 202"/>
    </g>
</svg>
