<svg xmlns="http://www.w3.org/2000/svg" viewBox="0 0 1920 1920">
    <style>
        .st0{fill:#fff}.st1{fill:none;stroke:#231f20;stroke-width:50;stroke-linecap:round;stroke-linejoin:round;stroke-miterlimit:10}
    </style>
    <path class="st0" d="M758.5 458.1c-32.6 0-59 26.4-59 59 0-32.6-26.4-59-59-59s-59 26.4-59 59v125.2h235.9V517c.1-32.5-26.3-58.9-58.9-58.9z" id="Layer_10"/>
    <path class="st0" d="M867.4 1209.1h182.3v139.2H867.4z" id="Layer_47"/>
    <path class="st0" d="M1263 986.1h91.2v139.2H1263z" id="Layer_48"/>
    <path class="st0" d="M1263 1209.1h91.2v139.2H1263z" id="Layer_49"/>
    <path class="st0" d="M1338.4 517c0-32.6-26.4-59-59-59s-59 26.4-59 59c0-32.6-26.4-59-59-59s-59 26.4-59 59v125.2h235.9V517z" id="Layer_43"/>
    <path class="st0" d="M559.2 986.1h91.2v139.2h-91.2z" id="Layer_44"/>
    <path class="st0" d="M559.2 1209.1h91.2v139.2h-91.2z" id="Layer_45"/>
    <path class="st0" d="M867.4 986.1h182.3v139.2H867.4z" id="Layer_46"/>
    <path class="st0" d="M1514.3 339.1l41.5-122.1H364.2l38.5 122.1z" id="Layer_11"/>
    <path class="st0" d="M402.7 902.2h1111.6l41.5-122.1H364.2z" id="Layer_50"/>
    <path class="st0" d="M402.7 339.1v441h1111.6v-441H402.7zm414.8 303.2H581.6V517c0-32.6 26.4-59 59-59s59 26.4 59 59c0-32.6 26.4-59 59-59s59 26.4 59 59v125.3zm520.9 0h-235.9V517c0-32.6 26.4-59 59-59s59 26.4 59 59c0-32.6 26.4-59 59-59s59 26.4 59 59v125.3z" id="Layer_12"/>
    <path class="st0" d="M493.9 1430h227.5V902.2H493.9V1430zm65.3-443.9h91.2v139.2h-91.2V986.1zm0 223h91.2v139.2h-91.2v-139.2z" id="Layer_51"/>
    <path class="st0" d="M791.7 1430h334.6V902.2H791.7V1430zm75.7-443.9h182.3v139.2H867.4V986.1zm0 223h182.3v139.2H867.4v-139.2z" id="Layer_52"/>
    <path class="st0" d="M1196.6 1430h226.5V902.2h-226.5V1430zm66.4-443.9h91.2v139.2H1263V986.1zm0 223h91.2v139.2H1263v-139.2z" id="Layer_53"/>
    <path class="st0" d="M402.7 902.2h91.1v527.7h-91.1z" id="Layer_13"/>
    <path class="st0" d="M721.4 902.2h70.3v527.7h-70.3z" id="Layer_54"/>
    <path class="st0" d="M1126.3 902.2h70.3v527.7h-70.3z" id="Layer_55"/>
    <path class="st0" d="M1423.2 902.2h91.1v527.7h-91.1z" id="Layer_56"/>
    <path class="st0" d="M1514.3 1430v273.1h-464.6v-207.7H867.4v207.7H402.7V1430z" id="Layer_14"/>
    <path class="st0" d="M867.4 1495.4h182.3V1703H867.4z" id="Layer_15"/>
    <g id="STROKES">
        <path class="st1" d="M402.7 339.1h1111.6v441H402.7z"/>
        <path class="st1" d="M402.7 902.2h1111.6V1703H402.7z"/>
        <path class="st1" d="M1514.3 339.1H402.7l-38.5-122.2h1191.6z"/>
        <path class="st1" d="M1555.8 780.1l-41.5 122.1H402.7l-38.5-122.1z"/>
        <path class="st1" d="M393.6 278h1132.8"/>
        <path class="st1" d="M699.6 642.3h-118V517c0-32.6 26.4-59 59-59s59 26.4 59 59v125.3z"/>
        <path class="st1" d="M817.5 642.3h-118V517c0-32.6 26.4-59 59-59s59 26.4 59 59v125.3z"/>
        <path class="st1" d="M546.1 642.3h307"/>
        <path class="st1" d="M1220.4 642.3h-118V517c0-32.6 26.4-59 59-59s59 26.4 59 59v125.3z"/>
        <path class="st1" d="M1338.4 642.3h-118V517c0-32.6 26.4-59 59-59s59 26.4 59 59v125.3z"/>
        <path class="st1" d="M1066.9 642.3h307"/>
        <path class="st1" d="M402.7 902.2h91.1v527.7h-91.1z"/>
        <path class="st1" d="M1423.2 902.2h91.1v527.7h-91.1z"/>
        <path class="st1" d="M721.4 902.2h70.3v527.7h-70.3z"/>
        <path class="st1" d="M1126.3 902.2h70.3v527.7h-70.3z"/>
        <path class="st1" d="M559.2 986.1h91.2v139.2h-91.2z"/>
        <path class="st1" d="M867.3 986.1h91.2v139.2h-91.2z"/>
        <path class="st1" d="M958.5 986.1h91.2v139.2h-91.2z"/>
        <path class="st1" d="M867.3 1209.1h91.2v139.2h-91.2z"/>
        <path class="st1" d="M958.5 1209.1h91.2v139.2h-91.2z"/>
        <path class="st1" d="M559.2 1209.1h91.2v139.2h-91.2z"/>
        <path class="st1" d="M1263 986.1h91.2v139.2H1263z"/>
        <path class="st1" d="M1263 1209.1h91.2v139.2H1263z"/>
        <path class="st1" d="M402.7 1430h1111.6v273.1H402.7z"/>
        <path class="st1" d="M867.3 1495.4h182.3V1703H867.3z"/>
    </g>
</svg>
