<svg xmlns="http://www.w3.org/2000/svg" viewBox="0 0 1920 1920">
    <style>
        .st0{fill:#fff}.st1{fill:none;stroke:#231f20;stroke-width:50;stroke-linecap:round;stroke-linejoin:round;stroke-miterlimit:10}
    </style>
    <path class="st0" d="M555.4 217v1148.1h809.2V217H555.4zm244.3 1070.6H649.3v-72.7h150.4v72.7zm0-152H649.3v-72.7h150.4v72.7zm0-151.9H649.3V911h150.4v72.7zm0-152H649.3V759h150.4v72.7zm0-152H649.3V607h150.4v72.7zm0-152H649.3V455h150.4v72.7zm0-152H649.3V303h150.4v72.7zm235.5 911.9H884.8v-72.7h150.4v72.7zm0-152H884.8v-72.7h150.4v72.7zm0-151.9H884.8V911h150.4v72.7zm0-152H884.8V759h150.4v72.7zm0-152H884.8V607h150.4v72.7zm0-152H884.8V455h150.4v72.7zm0-152H884.8V303h150.4v72.7zm235.5 911.9h-150.4v-72.7h150.4v72.7zm0-152h-150.4v-72.7h150.4v72.7zm0-151.9h-150.4V911h150.4v72.7zm0-152h-150.4V759h150.4v72.7zm0-152h-150.4V607h150.4v72.7zm0-152h-150.4V455h150.4v72.7zm0-152h-150.4V303h150.4v72.7z" id="Layer_6"/>
    <path class="st0" d="M1120.3 1214.9h150.4v72.7h-150.4z" id="Layer_7"/>
    <path class="st0" d="M884.8 1062.9h150.4v72.7H884.8z" id="Layer_39"/>
    <path class="st0" d="M1120.3 1062.9h150.4v72.7h-150.4z" id="Layer_40"/>
    <path class="st0" d="M649.3 1214.9h150.4v72.7H649.3z" id="Layer_41"/>
    <path class="st0" d="M884.8 1214.9h150.4v72.7H884.8z" id="Layer_42"/>
    <path class="st0" d="M649.3 759h150.4v72.7H649.3z" id="Layer_31"/>
    <path class="st0" d="M884.8 759h150.4v72.7H884.8z" id="Layer_32"/>
    <path class="st0" d="M1120.3 759h150.4v72.7h-150.4z" id="Layer_33"/>
    <path class="st0" d="M649.3 911h150.4v72.7H649.3z" id="Layer_34"/>
    <path class="st0" d="M884.8 911h150.4v72.7H884.8z" id="Layer_35"/>
    <path class="st0" d="M1120.3 911h150.4v72.7h-150.4z" id="Layer_36"/>
    <path class="st0" d="M649.3 1062.9h150.4v72.7H649.3z" id="Layer_37"/>
    <path class="st0" d="M1120.3 607h150.4v72.7h-150.4z" id="Layer_38"/>
    <path class="st0" d="M649.3 303h150.4v72.7H649.3z" id="Layer_23"/>
    <path class="st0" d="M884.8 303h150.4v72.7H884.8z" id="Layer_24"/>
    <path class="st0" d="M1120.3 303h150.4v72.7h-150.4z" id="Layer_25"/>
    <path class="st0" d="M649.3 455h150.4v72.7H649.3z" id="Layer_26"/>
    <path class="st0" d="M1120.3 455h150.4v72.7h-150.4z" id="Layer_27"/>
    <path class="st0" d="M884.8 455h150.4v72.7H884.8z" id="Layer_28"/>
    <path class="st0" d="M884.8 607h150.4v72.7H884.8z" id="Layer_29"/>
    <path class="st0" d="M649.3 607h150.4v72.7H649.3z" id="Layer_30"/>
    <path class="st0" d="M555.4 1365.1v338h310.3V1430h188.7v273.1h310.3v-338H555.4z" id="Layer_8"/>
    <path class="st0" d="M865.6 1430h188.7v273.1H865.6z" id="Layer_9"/>
    <g id="STROKES">
        <path class="st1" d="M555.4 216.9h809.2V1703H555.4z"/>
        <path class="st1" d="M649.3 303h150.4v72.7H649.3z"/>
        <path class="st1" d="M884.8 303h150.4v72.7H884.8z"/>
        <path class="st1" d="M1120.3 303h150.4v72.7h-150.4z"/>
        <path class="st1" d="M649.3 455h150.4v72.7H649.3z"/>
        <path class="st1" d="M884.8 455h150.4v72.7H884.8z"/>
        <path class="st1" d="M1120.3 455h150.4v72.7h-150.4z"/>
        <path class="st1" d="M649.3 607h150.4v72.7H649.3z"/>
        <path class="st1" d="M884.8 607h150.4v72.7H884.8z"/>
        <path class="st1" d="M1120.3 607h150.4v72.7h-150.4z"/>
        <path class="st1" d="M649.3 759h150.4v72.7H649.3z"/>
        <path class="st1" d="M884.8 759h150.4v72.7H884.8z"/>
        <path class="st1" d="M1120.3 759h150.4v72.7h-150.4z"/>
        <path class="st1" d="M649.3 911h150.4v72.7H649.3z"/>
        <path class="st1" d="M884.8 911h150.4v72.7H884.8z"/>
        <path class="st1" d="M1120.3 911h150.4v72.7h-150.4z"/>
        <path class="st1" d="M649.3 1062.9h150.4v72.7H649.3z"/>
        <path class="st1" d="M884.8 1062.9h150.4v72.7H884.8z"/>
        <path class="st1" d="M1120.3 1062.9h150.4v72.7h-150.4z"/>
        <path class="st1" d="M649.3 1214.9h150.4v72.7H649.3z"/>
        <path class="st1" d="M884.8 1214.9h150.4v72.7H884.8z"/>
        <path class="st1" d="M1120.3 1214.9h150.4v72.7h-150.4z"/>
        <path class="st1" d="M555.4 1365.1h809.2"/>
        <path class="st1" d="M865.7 1430h188.7v273.1H865.7z"/>
    </g>
</svg>
