<svg xmlns="http://www.w3.org/2000/svg" viewBox="0 0 1920 1920">
    <style>
        .st0{fill:#fff}.st1{fill:none;stroke:#231f20;stroke-width:50;stroke-linecap:round;stroke-linejoin:round;stroke-miterlimit:10}
    </style>
    <path class="st0" d="M1608.2 1069.9c53-99.9 73.3-143.2 44.2-188.2-24.3-37.6-87.9-116.5-229-96.4-90.4 12.9-182.3 8.4-271.3-12.3-83.9-19.5-182.4-24.8-308.4-56.4-34-8.5-69.9-3.9-100.6 12.8-50 27.2-253.5 218.8-256.4 302l-2.9 6.3c17.9 8.3 29.7 19.7 29.7 19.7-.2 5.1-.9 9.8-2 14-7.7 30.8-35 40.3-35 40.3-7.7-6.3-13.9-11.9-20.3-14.5l-9.3 20c-.6 2 6.9 46.3 11.1 70.8 1.8 10.4 6.5 20.1 13.5 27.9l22.1 24.5 55.4 123.5c3.2 7.1 9.5 12.3 17.1 13.9 18.8 4.1 52.2 1.4 59.5-66.2 0 0 69.3-65.9 67.1-147.6 0 0 27.6-2.5 60.4-10.2 8.6 27.4 28.4 72.7 68.1 91 1 1.3 2 2.4 3.1 3.5 0 0 36.1 117.8 5.7 193.9l-26.2 26.8c-10.8 11-7.9 29.2 5.6 36.4 11.9 6.3 27.8 10.7 46.5 5.8l-19.8 20.2s50.4 63.7 116.9-6.7c0 0-8.5-171.1 0-216.7 0 0 20-33.6 32.4-80.9 5.1-2.6 7.7-4.4 7.7-4.4s148.8 8.3 289-26.9c14.5 15.2 31.1 27.7 48.6 37.9-9 25.7-18 50.6-18.8 52.9-20.3 53.5-51.3 142.2-79.1 166.8l-17.7 25.2c-9 12.8-3.9 30.9 10.7 36.7 21.4 8.6 52.6 13 79.7-14.8 0 0 2.1-37.4 10.1-56.7 4-9.5 40.6-107.4 72.1-184.5 15.3 5.1 30.4 9.1 44.8 12.1 27.5 5.8 52.3 8.2 69.8 9.1 16.4.9 64.1-1.3 64.1-1.3s56.5 98.1-7.1 210.3l-9.8 11.1c-12 13.6-5.4 35.2 12.3 39.6 21.7 5.4 48.8 6.3 67.3-13.6l6.2-30.1s11.5-189.1 17.7-251.8c-.1.1-97.9-74.9-44.8-174.8z" id="Layer_9"/>
    <path class="st0" d="M513.5 1057.4c-.2 5.1-.9 9.8-2 14-7.7 30.8-35 40.3-35 40.3-7.7-6.3-13.9-11.9-20.3-14.5-17.3-7-35.7 8.3-87.7 92-71.2 114.6-152.8 30.5-152.8 30.5 117.2 41.7 101.8-58.4 162-146.9 3.8-5.6 7.7-10.6 11.6-14.9 33.5-37.4 69.9-31.7 94.5-20.2 17.9 8.3 29.7 19.7 29.7 19.7z" id="Layer_10"/>
    <path class="st0" d="M1673.1 380.8s-8.5 56.6-62.8 123c0 0-27 35.4-50 26.8-2.3-.8-4.5-2.1-6.6-3.8-24.1-19.7 11.3-60.1 11.3-60.1 54.3-66.3 108.1-85.9 108.1-85.9z" id="Layer_11"/>
    <g id="STROKES">
        <path class="st1" d="M984 1124.9c17.5 47.6 12 62.1 1.5 102.3"/>
        <path class="st1" d="M879.9 1486.7l-23.9 24.4c-18.7 4.9-34.7.6-46.5-5.8-13.6-7.2-16.4-25.4-5.6-36.4l26.2-26.8c30.4-76-5.7-193.9-5.7-193.9-1.1-1-2.1-2.2-3.1-3.5 9.8 4.5 45.3 40.6 53 48-.1.1 36 118 5.6 194z"/>
        <path class="st1" d="M1387.7 1259.4c-31.5 77.1-68.1 174.9-72.1 184.5-8 19.2-10.1 56.7-10.1 56.7-27.2 27.8-58.3 23.5-79.7 14.8-14.6-5.9-19.7-23.9-10.7-36.7l17.7-25.2c27.8-24.6 58.8-113.3 79.1-166.8.9-2.3 9.8-27.2 18.8-52.9 18.4 10.8 37.8 19.1 57 25.6z"/>
        <path class="st1" d="M1553.7 526.8c-24.1-19.7 11.3-60.1 11.3-60.1 54.3-66.4 108.1-85.9 108.1-85.9s-8.5 56.6-62.7 123c0 0-32.6 42.7-56.7 23z"/>
        <path class="st1" d="M1652.9 1244.8c-6.2 62.7-17.7 251.8-17.7 251.8l-6.2 30.1c-18.5 19.8-45.6 19-67.3 13.6-17.6-4.4-24.3-26-12.3-39.6l9.8-11.1c63.6-112.2 7.1-210.3 7.1-210.3s-47.7 2.2-64.1 1.3c-17.5-1-42.2-3.3-69.8-9.1-14.4-3-29.5-7-44.8-12.1-19.2-6.5-38.6-14.8-57-25.6-17.5-10.3-34-22.7-48.6-37.9-140.2 35.3-289 26.9-289 26.9s-2.5 1.7-7.7 4.4c-12.4 47.2-32.4 80.9-32.4 80.9-8.5 45.6 0 216.7 0 216.7-66.5 70.3-116.9 6.7-116.9 6.7l19.8-20.2 23.9-24.4c30.4-76-5.7-193.9-5.7-193.9-7.6-7.4-43.2-43.5-53-48-39.7-18.3-59.5-63.6-68.1-91-32.9 7.7-60.4 10.2-60.4 10.2 2.2 81.6-67.1 147.6-67.1 147.6-7.4 67.6-40.8 70.3-59.5 66.2-7.6-1.7-13.9-6.9-17.1-13.9l-55.4-123.5-22.1-24.5c-7-7.8-11.7-17.5-13.5-27.9-4.2-24.5-11.7-68.8-11.1-70.8l9.3-20c6.4 2.6 12.6 8.2 20.3 14.5 0 0 27.3-9.5 35-40.3 1.1-4.3 1.8-8.9 2-14 0 0-11.8-11.4-29.7-19.7l2.9-6.3c2.9-83.2 206.4-274.7 256.4-302 30.7-16.7 66.6-21.3 100.6-12.8 126 31.6 224.5 36.9 308.4 56.4 88.9 20.7 180.9 25.1 271.3 12.3 141.1-20.1 204.7 58.9 229 96.4 29.2 45.1 8.8 88.4-44.2 188.2-52.9 99.7 44.9 174.7 44.9 174.7z"/>
        <path class="st1" d="M513.5 1057.4c-.2 5.1-.9 9.8-2 14-7.7 30.8-35 40.3-35 40.3-7.7-6.3-13.9-11.9-20.3-14.5-17.3-7-35.7 8.3-87.7 92-71.2 114.6-152.8 30.5-152.8 30.5 117.2 41.7 101.8-58.4 162-146.9 3.8-5.6 7.7-10.6 11.6-14.9 33.5-37.4 69.9-31.7 94.5-20.2 17.9 8.3 29.7 19.7 29.7 19.7z"/>
        <path class="st1" d="M692.7 1164.1s-10.2-29.9-25.6-39.2"/>
        <path class="st1" d="M1561.2 528.2c-11 30-8.5 64.6 6.6 92.7 19.3 35.7 55.8 58.1 83.9 87.4 24.9 26 43.7 58.8 48.8 94.4 5.1 35.6-4.8 74.1-30 99.9"/>
        <path class="st1" d="M1282.1 1195.9c-25.4-26.5-44.7-61.1-52.2-106.4"/>
        <path class="st1" d="M984 1124.9c17.5 47.6 12 62.1 1.5 102.3"/>
        <path class="st1" d="M879.9 1486.7l-23.9 24.4c-18.7 4.9-34.7.6-46.5-5.8-13.6-7.2-16.4-25.4-5.6-36.4l26.2-26.8c30.4-76-5.7-193.9-5.7-193.9-1.1-1-2.1-2.2-3.1-3.5 9.8 4.5 45.3 40.6 53 48-.1.1 36 118 5.6 194z"/>
        <path class="st1" d="M1387.7 1259.4c-31.5 77.1-68.1 174.9-72.1 184.5-8 19.2-10.1 56.7-10.1 56.7-27.2 27.8-58.3 23.5-79.7 14.8-14.6-5.9-19.7-23.9-10.7-36.7l17.7-25.2c27.8-24.6 58.8-113.3 79.1-166.8.9-2.3 9.8-27.2 18.8-52.9 18.4 10.8 37.8 19.1 57 25.6z"/>
        <path class="st1" d="M1553.7 526.8c-24.1-19.7 11.3-60.1 11.3-60.1 54.3-66.4 108.1-85.9 108.1-85.9s-8.5 56.6-62.7 123c0 0-32.6 42.7-56.7 23z"/>
        <path class="st1" d="M1652.9 1244.8c-6.2 62.7-17.7 251.8-17.7 251.8l-6.2 30.1c-18.5 19.8-45.6 19-67.3 13.6-17.6-4.4-24.3-26-12.3-39.6l9.8-11.1c63.6-112.2 7.1-210.3 7.1-210.3s-47.7 2.2-64.1 1.3c-17.5-1-42.2-3.3-69.8-9.1-14.4-3-29.5-7-44.8-12.1-19.2-6.5-38.6-14.8-57-25.6-17.5-10.3-34-22.7-48.6-37.9-140.2 35.3-289 26.9-289 26.9s-2.5 1.7-7.7 4.4c-12.4 47.2-32.4 80.9-32.4 80.9-8.5 45.6 0 216.7 0 216.7-66.5 70.3-116.9 6.7-116.9 6.7l19.8-20.2 23.9-24.4c30.4-76-5.7-193.9-5.7-193.9-7.6-7.4-43.2-43.5-53-48-39.7-18.3-59.5-63.6-68.1-91-32.9 7.7-60.4 10.2-60.4 10.2 2.2 81.6-67.1 147.6-67.1 147.6-7.4 67.6-40.8 70.3-59.5 66.2-7.6-1.7-13.9-6.9-17.1-13.9l-55.4-123.5-22.1-24.5c-7-7.8-11.7-17.5-13.5-27.9-4.2-24.5-11.7-68.8-11.1-70.8l9.3-20c6.4 2.6 12.6 8.2 20.3 14.5 0 0 27.3-9.5 35-40.3 1.1-4.3 1.8-8.9 2-14 0 0-11.8-11.4-29.7-19.7l2.9-6.3c2.9-83.2 206.4-274.7 256.4-302 30.7-16.7 66.6-21.3 100.6-12.8 126 31.6 224.5 36.9 308.4 56.4 88.9 20.7 180.9 25.1 271.3 12.3 141.1-20.1 204.7 58.9 229 96.4 29.2 45.1 8.8 88.4-44.2 188.2-52.9 99.7 44.9 174.7 44.9 174.7z"/>
        <path class="st1" d="M513.5 1057.4c-.2 5.1-.9 9.8-2 14-7.7 30.8-35 40.3-35 40.3-7.7-6.3-13.9-11.9-20.3-14.5-17.3-7-35.7 8.3-87.7 92-71.2 114.6-152.8 30.5-152.8 30.5 117.2 41.7 101.8-58.4 162-146.9 3.8-5.6 7.7-10.6 11.6-14.9 33.5-37.4 69.9-31.7 94.5-20.2 17.9 8.3 29.7 19.7 29.7 19.7z"/>
        <path class="st1" d="M692.7 1164.1s-10.2-29.9-25.6-39.2"/>
        <path class="st1" d="M1561.2 528.2c-11 30-8.5 64.6 6.6 92.7 19.3 35.7 55.8 58.1 83.9 87.4 24.9 26 43.7 58.8 48.8 94.4 5.1 35.6-4.8 74.1-30 99.9"/>
        <path class="st1" d="M1282.1 1195.9c-25.4-26.5-44.7-61.1-52.2-106.4"/>
    </g>
</svg>
