<svg xmlns="http://www.w3.org/2000/svg" viewBox="0 0 1920 1920">
    <style>
        .st0{fill:#fff}.st1{fill:none;stroke:#231f20;stroke-width:50;stroke-linecap:round;stroke-linejoin:round;stroke-miterlimit:10}
    </style>
    <path class="st0" d="M857 464l165.4 396.8h-541V464z" id="Layer_7"/>
    <path class="st0" d="M1353 1114.7v261h-88v-96.1c0-48.2-39.4-87.6-87.6-87.6H388.6c-48.2 0-87.6 39.4-87.6 87.6v96.1h-84.1V860.8H1353v253.9z" id="Layer_8"/>
    <path class="st0" d="M1703.1 1266.2v104.1c-111.9-31.1-194-133.8-194-255.6 0-121.8 82.1-224.4 194-255.6v104c-56.8 26.8-96.1 84.5-96.1 151.5s39.2 124.9 96.1 151.6z" id="Layer_9"/>
    <path class="st0" d="M917.9 352l225.8 508.8h-121.3L857 464H481.4v396.8H369V352z" id="Layer_10"/>
    <path class="st0" d="M1265 1375.8v104.6c0 48.2-39.4 87.6-87.6 87.6H388.6c-48.2 0-87.6-39.4-87.6-87.6v-200.7c0-48.2 39.4-87.6 87.6-87.6h788.8c48.2 0 87.6 39.4 87.6 87.6v96.1zm-107.8 7.3c0-40.1-32.5-72.5-72.6-72.5-40.1 0-72.5 32.5-72.5 72.5 0 40.1 32.5 72.6 72.5 72.6 40.1-.1 72.6-32.5 72.6-72.6zm-301.6 0c0-40.1-32.5-72.5-72.6-72.5s-72.6 32.5-72.6 72.5c0 40.1 32.5 72.6 72.6 72.6s72.6-32.5 72.6-72.6zm-301.6 0c0-40.1-32.5-72.5-72.6-72.5s-72.6 32.5-72.6 72.5c0 40.1 32.5 72.6 72.6 72.6s72.6-32.5 72.6-72.6z" id="Layer_11"/>
    <path class="st0" d="M1084.6 1310.5c40.1 0 72.6 32.5 72.6 72.5 0 40.1-32.5 72.6-72.6 72.6-40.1 0-72.5-32.5-72.5-72.6-.1-40 32.4-72.5 72.5-72.5zm-374.2 72.6c0 40.1 32.5 72.6 72.6 72.6s72.6-32.5 72.6-72.6c0-40.1-32.5-72.5-72.6-72.5s-72.6 32.4-72.6 72.5zm-301.5 0c0 40.1 32.5 72.6 72.6 72.6s72.6-32.5 72.6-72.6c0-40.1-32.5-72.5-72.6-72.5s-72.6 32.4-72.6 72.5z" id="Layer_12"/>
    <g id="STROKES">
        <path class="st1" d="M369 860.8V352h548.9l225.8 508.8"/>
        <path class="st1" d="M301 1375.8h-84.1v-515H1353v515h-88"/>
        <path class="st1" d="M1353 1114.7h156.1"/>
        <path class="st1" d="M1265 1375.8v104.6c0 48.2-39.4 87.6-87.6 87.6H388.6c-48.2 0-87.6-39.4-87.6-87.6v-200.7c0-48.2 39.4-87.6 87.6-87.6h788.8c48.2 0 87.6 39.4 87.6 87.6v96.1z"/>
        <path class="st1" d="M481.4 1310.5c40.1 0 72.6 32.5 72.6 72.5 0 40.1-32.5 72.6-72.6 72.6s-72.6-32.5-72.6-72.6c.1-40 32.5-72.5 72.6-72.5z"/>
        <path class="st1" d="M1084.6 1310.5c40.1 0 72.6 32.5 72.6 72.5 0 40.1-32.5 72.6-72.6 72.6-40.1 0-72.5-32.5-72.5-72.6-.1-40 32.4-72.5 72.5-72.5z"/>
        <path class="st1" d="M783 1310.5c40.1 0 72.6 32.5 72.6 72.5 0 40.1-32.5 72.6-72.6 72.6s-72.6-32.5-72.6-72.6c0-40 32.5-72.5 72.6-72.5z"/>
        <path class="st1" d="M481.4 860.8V464H857l165.4 396.8"/>
        <path class="st1" d="M1703.1 963.2v-104c-111.9 31.1-194 133.8-194 255.6 0 121.8 82.1 224.4 194 255.6v-104.1"/>
        <path class="st1" d="M1703.1 963.2c-56.8 26.8-96.1 84.5-96.1 151.5s39.3 124.7 96.1 151.5"/>
    </g>
</svg>
