<svg xmlns="http://www.w3.org/2000/svg" viewBox="0 0 1920 1920">
    <style>
        .st0{fill:#fff}.st1{fill:none;stroke:#231f20;stroke-width:50;stroke-linecap:round;stroke-linejoin:round;stroke-miterlimit:10}
    </style>
    <path class="st0" d="M1438.2 918.9c-26.4 1.6-59.9 4.4-87.9 8.6-34.6 5.2-67.8 49-89.2 81.7-2.1-24.9-6.5-46.6-10.7-62.6-55.6 110-116.9 37.5-116.9 37.5 64.8-82.9 116.9-37.5 116.9-37.5 22-9.7 26.5-34.6 25.2-57.8-1.4-24.8-9.3-47.5-9.3-47.5L1244 728.8c-7.3-8.4-16.4-15.9-26.7-22.4-83.6-52.8-250.8-47.4-250.8-47.4s-167.2-5.4-250.8 47.4c-10.3 6.5-19.4 14-26.7 22.4l-22.4 112.5s-8 22.8-9.3 47.5c-1.3 23.2 3.1 48.1 25.2 57.8-4.1 16.1-8.6 37.7-10.7 62.6-21.4-32.6-54.6-76.4-89.2-81.7-28-4.2-61.5-7-87.9-8.6-25-1.6-44.1 22.3-36.8 46.3 13.8 45.9 51.6 108.8 154.9 115.1 25.9 1.6 45.6 1.8 60.6 1 1.6 11.6 3.9 23.4 7.2 35.2 20.7 75.5 75.8 170.9 103.1 215.4.2 10.4 1.4 21.1 3.9 32 2.5 10.9 6.4 21.9 11.8 32.9 0 0-.4 5.5 20 10.9v51.8c0 55.8 65.9 70.8 147.1 70.8s147.1-14.9 147.1-70.8v-51.8c20.4-5.5 20-10.9 20-10.9 10.8-22.1 15.3-44 15.7-64.9 27.3-44.5 82.4-139.9 103.1-215.4 3.2-11.8 5.6-23.6 7.2-35.2 14.9.8 34.7.5 60.6-1 103.3-6.3 141.1-69.2 154.9-115.1 7.1-24-11.9-47.9-36.9-46.3zm-755.6 27.6s52.1-45.4 116.9 37.5c0 0-61.3 72.5-116.9-37.5z" id="Layer_2"/>
    <path class="st0" d="M682.6 946.5c55.6 110 116.9 37.5 116.9 37.5-64.8-82.9-116.9-37.5-116.9-37.5z" id="Layer_4"/>
    <path class="st0" d="M1133.5 984s61.3 72.5 116.9-37.5c0 0-52.1-45.4-116.9 37.5z" id="Layer_12"/>
    <path class="st0" d="M436.4 689.4c-102.1-34.5-159.7-59-132.3-233 0 0 14.4-76.2-20.1-103.6 0 0 13.6 50.3-27.3 105s-90.6 264.7 162.6 355.3c114.2 40.9 189.6 63.3 238 75.6 1.4-24.8 9.3-47.5 9.3-47.5L689 728.7c7.3-8.4 16.4-15.9 26.7-22.4-.2-.1-177.2 17.6-279.3-16.9z" id="Layer_5"/>
    <path class="st0" d="M1676.2 457.8c-40.9-54.7-27.3-105-27.3-105-34.5 27.3-20.1 103.6-20.1 103.6 27.3 174-30.2 198.5-132.3 233-102.1 34.5-279.1 16.9-279.1 16.9 10.3 6.5 19.4 14 26.7 22.4l22.3 112.5s7.9 22.8 9.3 47.5c48.4-12.3 123.8-34.8 238-75.6 253.1-90.6 203.4-300.6 162.5-355.3z" id="Layer_13"/>
    <g id="STROKES">
        <path class="st1" d="M1275.6 888.7c-1.4-24.8-9.3-47.5-9.3-47.5L1244 728.6c-7.3-8.4-16.4-15.9-26.7-22.4-83.6-52.8-250.8-47.4-250.8-47.4s-167.2-5.4-250.8 47.4c-10.3 6.5-19.4 14-26.7 22.4l-22.3 112.6s-8 22.8-9.3 47.5c-1.3 23.2 3.1 48.1 25.2 57.8-4.2 16.1-8.6 37.7-10.7 62.6-1.9 22-1.9 46.6 1.6 72.2 1.6 11.6 3.9 23.4 7.2 35.2 20.7 75.5 75.8 170.9 103.1 215.4.4 20.9 4.9 42.8 15.7 64.9 0 0-.4 5.4 20 10.9 20.6 5.5 62.4 11 147.1 11s126.5-5.5 147.1-11c20.4-5.5 20-10.9 20-10.9 10.8-22.1 15.3-44 15.7-64.9 27.3-44.5 82.4-139.9 103.1-215.4 3.2-11.8 5.6-23.6 7.2-35.2 3.5-25.6 3.5-50.2 1.6-72.2-2.1-24.9-6.5-46.6-10.7-62.6 21.8-9.7 26.3-34.6 25-57.8zm-209.8 362.1c-.5.9-30.3 55.9-56.7 68.8 0-.1 1.8-48 56.7-68.8zm-142.1 68.7c-26.4-12.9-56.2-67.9-56.7-68.8 54.8 20.9 56.7 68.8 56.7 68.8z"/>
        <path class="st1" d="M673.3 1081.3c-15 .8-34.7.5-60.6-1-103.3-6.3-141.1-69.2-154.9-115.1-7.2-24 11.8-47.9 36.8-46.3 26.4 1.6 59.9 4.4 87.9 8.6 34.6 5.2 67.8 49 89.2 81.7-1.9 21.9-2 46.5 1.6 72.1z"/>
        <path class="st1" d="M923.7 1319.5c-26.4-12.9-56.2-67.9-56.7-68.8 54.8 20.9 56.7 68.8 56.7 68.8z"/>
        <path class="st1" d="M715.6 706.2c-10.3 6.5-19.4 14-26.7 22.4l-22.3 112.6s-8 22.8-9.3 47.5c-48.4-12.3-123.8-34.8-238-75.6C166 722.5 215.7 512.5 256.6 457.8c40.9-54.7 27.3-105 27.3-105 34.5 27.3 20.1 103.6 20.1 103.6-27.3 174.1 30.2 198.5 132.3 233 102.2 34.5 279.3 16.8 279.3 16.8z"/>
        <path class="st1" d="M1475 965.2c-13.8 45.9-51.6 108.8-154.9 115.1-25.9 1.6-45.6 1.8-60.6 1 3.5-25.6 3.5-50.2 1.6-72.2 21.3-32.6 54.6-76.4 89.2-81.7 28-4.2 61.5-7 87.9-8.6 25-1.5 44 22.4 36.8 46.4z"/>
        <path class="st1" d="M783.6 1332c-1.4-80.8 59.6-145.9 59.6-145.9"/>
        <path class="st1" d="M1089.6 1186s60.9 65.2 59.6 145.9"/>
        <path class="st1" d="M1065.8 1250.8c-.5.9-30.3 55.9-56.7 68.8 0-.1 1.8-48 56.7-68.8z"/>
        <path class="st1" d="M1513.6 813.1c-114.2 40.9-189.6 63.3-238 75.6-1.4-24.8-9.3-47.5-9.3-47.5L1244 728.6c-7.3-8.4-16.4-15.9-26.7-22.4 0 0 177 17.7 279.1-16.9 102.1-34.5 159.7-59 132.3-233 0 0-14.4-76.2 20.1-103.6 0 0-13.6 50.3 27.3 105 41 54.8 90.7 264.8-162.5 355.4z"/>
        <path class="st1" d="M1250.4 946.5s-52.1-45.4-116.9 37.5c0 0 61.3 72.5 116.9-37.5z"/>
        <path class="st1" d="M682.6 946.5s52.1-45.4 116.9 37.5c0 0-61.3 72.5-116.9-37.5z"/>
        <path class="st1" d="M682.6 946.5s52.1-45.4 116.9 37.5"/>
        <path class="st1" d="M812 879.4l19.3 31.7"/>
        <path class="st1" d="M1123.1 879.4l-19.3 31.7"/>
        <path class="st1" d="M1113.5 1407.7v51.8c0 55.8-65.8 70.8-147.1 70.8s-147.1-14.9-147.1-70.8v-51.8c20.6 5.5 62.4 11 147.1 11s126.5-5.4 147.1-11z"/>
        <path class="st1" d="M1275.6 888.7c-1.4-24.8-9.3-47.5-9.3-47.5L1244 728.6c-7.3-8.4-16.4-15.9-26.7-22.4-83.6-52.8-250.8-47.4-250.8-47.4s-167.2-5.4-250.8 47.4c-10.3 6.5-19.4 14-26.7 22.4l-22.3 112.6s-8 22.8-9.3 47.5c-1.3 23.2 3.1 48.1 25.2 57.8-4.2 16.1-8.6 37.7-10.7 62.6-1.9 22-1.9 46.6 1.6 72.2 1.6 11.6 3.9 23.4 7.2 35.2 20.7 75.5 75.8 170.9 103.1 215.4.4 20.9 4.9 42.8 15.7 64.9 0 0-.4 5.4 20 10.9 20.6 5.5 62.4 11 147.1 11s126.5-5.5 147.1-11c20.4-5.5 20-10.9 20-10.9 10.8-22.1 15.3-44 15.7-64.9 27.3-44.5 82.4-139.9 103.1-215.4 3.2-11.8 5.6-23.6 7.2-35.2 3.5-25.6 3.5-50.2 1.6-72.2-2.1-24.9-6.5-46.6-10.7-62.6 21.8-9.7 26.3-34.6 25-57.8zm-209.8 362.1c-.5.9-30.3 55.9-56.7 68.8 0-.1 1.8-48 56.7-68.8zm-142.1 68.7c-26.4-12.9-56.2-67.9-56.7-68.8 54.8 20.9 56.7 68.8 56.7 68.8z"/>
        <path class="st1" d="M673.3 1081.3c-15 .8-34.7.5-60.6-1-103.3-6.3-141.1-69.2-154.9-115.1-7.2-24 11.8-47.9 36.8-46.3 26.4 1.6 59.9 4.4 87.9 8.6 34.6 5.2 67.8 49 89.2 81.7-1.9 21.9-2 46.5 1.6 72.1z"/>
        <path class="st1" d="M923.7 1319.5c-26.4-12.9-56.2-67.9-56.7-68.8 54.8 20.9 56.7 68.8 56.7 68.8z"/>
        <path class="st1" d="M715.6 706.2c-10.3 6.5-19.4 14-26.7 22.4l-22.3 112.6s-8 22.8-9.3 47.5c-48.4-12.3-123.8-34.8-238-75.6C166 722.5 215.7 512.5 256.6 457.8c40.9-54.7 27.3-105 27.3-105 34.5 27.3 20.1 103.6 20.1 103.6-27.3 174.1 30.2 198.5 132.3 233 102.2 34.5 279.3 16.8 279.3 16.8z"/>
        <path class="st1" d="M1475 965.2c-13.8 45.9-51.6 108.8-154.9 115.1-25.9 1.6-45.6 1.8-60.6 1 3.5-25.6 3.5-50.2 1.6-72.2 21.3-32.6 54.6-76.4 89.2-81.7 28-4.2 61.5-7 87.9-8.6 25-1.5 44 22.4 36.8 46.4z"/>
        <path class="st1" d="M783.6 1332c-1.4-80.8 59.6-145.9 59.6-145.9"/>
        <path class="st1" d="M1089.6 1186s60.9 65.2 59.6 145.9"/>
        <path class="st1" d="M1065.8 1250.8c-.5.9-30.3 55.9-56.7 68.8 0-.1 1.8-48 56.7-68.8z"/>
        <path class="st1" d="M1513.6 813.1c-114.2 40.9-189.6 63.3-238 75.6-1.4-24.8-9.3-47.5-9.3-47.5L1244 728.6c-7.3-8.4-16.4-15.9-26.7-22.4 0 0 177 17.7 279.1-16.9 102.1-34.5 159.7-59 132.3-233 0 0-14.4-76.2 20.1-103.6 0 0-13.6 50.3 27.3 105 41 54.8 90.7 264.8-162.5 355.4z"/>
        <path class="st1" d="M1250.4 946.5s-52.1-45.4-116.9 37.5c0 0 61.3 72.5 116.9-37.5z"/>
        <path class="st1" d="M682.6 946.5s52.1-45.4 116.9 37.5c0 0-61.3 72.5-116.9-37.5z"/>
        <path class="st1" d="M682.6 946.5s52.1-45.4 116.9 37.5"/>
        <path class="st1" d="M812 879.4l19.3 31.7"/>
        <path class="st1" d="M1123.1 879.4l-19.3 31.7"/>
        <path class="st1" d="M1113.5 1407.7v51.8c0 55.8-65.8 70.8-147.1 70.8s-147.1-14.9-147.1-70.8v-51.8c20.6 5.5 62.4 11 147.1 11s126.5-5.4 147.1-11z"/>
    </g>
</svg>
