<svg xmlns="http://www.w3.org/2000/svg" viewBox="0 0 1920 1920">
    <style>
        .st0{fill:#fff}.st1{fill:none;stroke:#231f20;stroke-width:50;stroke-linecap:round;stroke-linejoin:round;stroke-miterlimit:10}
    </style>
    <path class="st0" d="M1571.9 1030.1c-18.8-8.5-44.4-14.8-72-19.5-51.4 133.4-190.3 148-262.5 75.8-49.3-49.3-40.2-109.1-7.2-157.9-16.9-3.5-35.8-4.6-56.9-2.1-108.6 12.8-95.1 114.8-95.1 114.8s-121.3 75.3-149.9 211.5l-229.6 225.8s-53.1 99 48.1 152.1c101.2 53.1 176.7 13.3 176.7 13.3s110.3 56.9 191.6 14.3c81.3-42.5 147.6-100.6 147.6-100.6s64.7-61.4 126.1-5C1450.2 1609 1495 1703 1495 1703h206.8V979.8c-45 4-129.9 50.3-129.9 50.3zm-498.4 226c-31.5 8.7-82.6 5.4-82.6 5.4s10.9-73.9 116.3-67.4c0 0-2.1 53.3-33.7 62z" id="Layer_6"/>
    <path class="st0" d="M990.9 1261.5s51.1 3.3 82.6-5.4 33.7-62 33.7-62c-105.4-6.5-116.3 67.4-116.3 67.4z" id="Layer_7"/>
    <path class="st0" d="M1342.4 574.6C1131 492.3 990.9 217 990.9 217s-1.3 277.2 181.9 437.6c95.8 83.9 124.3 156 129.8 205.7-27.6 16.6-53.8 40.7-72.4 68.2-33 48.8-42.1 108.6 7.2 157.9 72.2 72.2 211.1 57.6 262.5-75.8 12.5-32.3 19.8-71.6 19.8-118.3 0-239.6-177.3-317.7-177.3-317.7z" id="Layer_8"/>
    <g id="STROKES">
        <path class="st1" d="M1495 1703.1s-44.8-94-106.2-150.4c-61.4-56.4-126.1 5-126.1 5s-66.4 58.1-147.7 100.6c-81.3 42.5-191.6-14.3-191.6-14.3s-75.5 39.8-176.7-13.3c-101.2-53.1-48.1-152.1-48.1-152.1l229.6-225.8c28.6-136.2 149.9-211.5 149.9-211.5s-13.5-102 95.1-114.8c21-2.5 40-1.3 56.9 2.1-33 48.8-42.1 108.6 7.2 157.9 72.2 72.2 211.1 57.6 262.5-75.8 27.5 4.7 53.2 11 72 19.5 0 0 84.9-46.3 129.9-50.3"/>
        <path class="st1" d="M754.7 1585.7s14.5-65.6 40.7-59.4 9.9 26.3-1.8 42.2"/>
        <path class="st1" d="M990.9 1261.5s10.9-73.9 116.3-67.4c0 0-2.2 53.3-33.7 62-31.5 8.7-82.6 5.4-82.6 5.4z"/>
        <path class="st1" d="M1519.7 892.3c0 46.7-7.3 86-19.8 118.3-51.4 133.4-190.3 148-262.5 75.8-49.3-49.3-40.2-109.1-7.2-157.9 18.6-27.6 44.8-51.6 72.4-68.2-5.4-49.7-34-121.8-129.8-205.7-183.2-160.5-181.9-437.7-181.9-437.7s140.1 275.3 351.6 357.7c-.1 0 177.2 78.1 177.2 317.7z"/>
        <path class="st1" d="M1302.6 860.2c5 45.4-9.3 72.1-9.3 72.1"/>
        <path class="st1" d="M1495 1703.1s-44.8-94-106.2-150.4c-61.4-56.4-126.1 5-126.1 5s-66.4 58.1-147.7 100.6c-81.3 42.5-191.6-14.3-191.6-14.3s-75.5 39.8-176.7-13.3c-101.2-53.1-48.1-152.1-48.1-152.1l229.6-225.8c28.6-136.2 149.9-211.5 149.9-211.5s-13.5-102 95.1-114.8c21-2.5 40-1.3 56.9 2.1-33 48.8-42.1 108.6 7.2 157.9 72.2 72.2 211.1 57.6 262.5-75.8 27.5 4.7 53.2 11 72 19.5 0 0 84.9-46.3 129.9-50.3"/>
        <path class="st1" d="M754.7 1585.7s14.5-65.6 40.7-59.4 9.9 26.3-1.8 42.2"/>
        <path class="st1" d="M990.9 1261.5s10.9-73.9 116.3-67.4c0 0-2.2 53.3-33.7 62-31.5 8.7-82.6 5.4-82.6 5.4z"/>
        <path class="st1" d="M1519.7 892.3c0 46.7-7.3 86-19.8 118.3-51.4 133.4-190.3 148-262.5 75.8-49.3-49.3-40.2-109.1-7.2-157.9 18.6-27.6 44.8-51.6 72.4-68.2-5.4-49.7-34-121.8-129.8-205.7-183.2-160.5-181.9-437.7-181.9-437.7s140.1 275.3 351.6 357.7c-.1 0 177.2 78.1 177.2 317.7z"/>
        <path class="st1" d="M1302.6 860.2c5 45.4-9.3 72.1-9.3 72.1"/>
    </g>
</svg>
