<svg xmlns="http://www.w3.org/2000/svg" viewBox="0 0 1920 1920">
    <style>
        .st0{fill:#fff}.st1{fill:none;stroke:#000;stroke-width:50;stroke-linecap:round;stroke-linejoin:round;stroke-miterlimit:10}
    </style>
    <path class="st0" d="M1703.1 898.7V977H1505V750.2h-164V977H216.9V730.6c0-34.3 26.6-62.4 59-62.4H1557l146.1 230.5zm-571.4-56.6v-39.8c0-26.4-21.6-48.1-48.1-48.1h-75.5c-26.4 0-48.1 21.6-48.1 48.1v39.8c0 26.4 21.6 48.1 48.1 48.1h75.5c26.4 0 48.1-21.7 48.1-48.1zm-311.9 0v-39.8c0-26.4-21.6-48.1-48.1-48.1h-75.5c-26.4 0-48.1 21.6-48.1 48.1v39.8c0 26.4 21.6 48.1 48.1 48.1h75.5c26.5 0 48.1-21.7 48.1-48.1zm-311.7 0v-39.8c0-26.4-21.6-48.1-48.1-48.1h-75.5c-26.4 0-48.1 21.6-48.1 48.1v39.8c0 26.4 21.6 48.1 48.1 48.1H460c26.4 0 48.1-21.7 48.1-48.1z" id="Layer_8"/>
    <path class="st0" d="M1703.1 977v216.7h-431.7c-1.1-53.6-44.8-96.7-98.6-96.7s-97.6 43.1-98.6 96.7H790.7c-1.1-53.6-44.8-96.7-98.6-96.7s-97.6 43.1-98.6 96.7h-71.1c-1.1-53.6-44.8-96.7-98.6-96.7s-97.6 43.1-98.6 96.7H276c-32.5 0-59-28.1-59-62.4V977h1124v96h164v-96h198.1z" id="Layer_9"/>
    <path class="st0" d="M1271.3 1193.7v2c0 54.5-44.2 98.7-98.7 98.7s-98.7-44.2-98.7-98.7v-2c1.1-53.6 44.8-96.7 98.6-96.7 54 0 97.8 43.1 98.8 96.7zM692.1 1097c-53.8 0-97.6 43.1-98.6 96.7v2c0 54.5 44.2 98.7 98.7 98.7s98.7-44.2 98.7-98.7v-2c-1.2-53.6-45-96.7-98.8-96.7zm-268.4 0c-53.8 0-97.6 43.1-98.6 96.7v2c0 54.5 44.2 98.7 98.7 98.7s98.7-44.2 98.7-98.7v-2c-1.3-53.6-45-96.7-98.8-96.7z" id="Layer_10"/>
    <path class="st0" d="M1131.7 802.2V842c0 26.4-21.6 48.1-48.1 48.1h-75.5c-26.4 0-48.1-21.6-48.1-48.1v-39.8c0-26.4 21.6-48.1 48.1-48.1h75.5c26.4.1 48.1 21.7 48.1 48.1zm-359.9-48h-75.5c-26.4 0-48.1 21.6-48.1 48.1v39.8c0 26.4 21.6 48.1 48.1 48.1h75.5c26.4 0 48.1-21.6 48.1-48.1v-39.8c-.1-26.5-21.7-48.1-48.1-48.1zm-311.8 0h-75.5c-26.4 0-48.1 21.6-48.1 48.1v39.8c0 26.4 21.6 48.1 48.1 48.1H460c26.5 0 48.1-21.6 48.1-48.1v-39.8c0-26.5-21.7-48.1-48.1-48.1z" id="Layer_12"/>
    <path class="st0" d="M1505 977v96h-164V750.2h164z" id="Layer_13"/>
    <g id="STROKES">
        <path class="st1" d="M593.4 1193.7h-71.1"/>
        <path class="st1" d="M325 1193.7h-49c-32.5 0-59-28.1-59-62.4V730.6c0-34.3 26.6-62.4 59-62.4h1281l146.1 230.5v295h-431.7"/>
        <path class="st1" d="M522.3 1193.7v2c0 54.5-44.2 98.7-98.7 98.7s-98.7-44.2-98.7-98.7v-2c1.1-53.6 44.8-96.7 98.6-96.7s97.7 43.1 98.8 96.7z"/>
        <path class="st1" d="M790.7 1193.7v2c0 54.5-44.2 98.7-98.7 98.7s-98.7-44.2-98.7-98.7v-2c1.1-53.6 44.8-96.7 98.6-96.7 54 0 97.8 43.1 98.8 96.7z"/>
        <path class="st1" d="M1271.3 1193.7v2c0 54.5-44.2 98.7-98.7 98.7s-98.7-44.2-98.7-98.7v-2c1.1-53.6 44.8-96.7 98.6-96.7 54 0 97.8 43.1 98.8 96.7z"/>
        <path class="st1" d="M460 890.2h-75.5c-26.4 0-48.1-21.6-48.1-48.1v-39.8c0-26.4 21.6-48.1 48.1-48.1H460c26.5 0 48.1 21.6 48.1 48.1v39.8c0 26.4-21.7 48.1-48.1 48.1z"/>
        <path class="st1" d="M771.8 890.2h-75.5c-26.4 0-48.1-21.6-48.1-48.1v-39.8c0-26.4 21.6-48.1 48.1-48.1h75.5c26.4 0 48.1 21.6 48.1 48.1v39.8c-.1 26.4-21.7 48.1-48.1 48.1z"/>
        <path class="st1" d="M1083.6 890.2h-75.5c-26.4 0-48.1-21.6-48.1-48.1v-39.8c0-26.4 21.6-48.1 48.1-48.1h75.5c26.4 0 48.1 21.6 48.1 48.1v39.8c0 26.4-21.7 48.1-48.1 48.1z"/>
        <path class="st1" d="M1505 977v96h-164V750.2h164z"/>
        <path class="st1" d="M216.9 977H1341"/>
        <path class="st1" d="M1505 977h198.1"/>
        <path class="st1" d="M790.7 1193.7h283.4"/>
    </g>
</svg>
