<svg xmlns="http://www.w3.org/2000/svg" viewBox="0 0 1920 1920">
    <style>
        .st0{fill:#fff}.st1{fill:none;stroke:#000;stroke-width:50;stroke-linecap:round;stroke-linejoin:round;stroke-miterlimit:10}
    </style>
    <path class="st0" d="M1537.1 1260.7c-3.8 67.4-59.7 120.9-128 120.9s-124.2-53.5-128-120.9c-.1-2.5-.2-4.9-.2-7.4 0-70.8 57.4-128.2 128.2-128.2 70.8 0 128.2 57.4 128.2 128.2 0 2.5-.1 4.9-.2 7.4zm-897.9-7.4c0-70.8-57.4-128.2-128.2-128.2s-128.2 57.4-128.2 128.2c0 2.5.1 4.9.2 7.4 3.8 67.4 59.7 120.9 128 120.9s124.2-53.5 128-120.9c.2-2.5.2-4.9.2-7.4z" id="Layer_2"/>
    <path class="st0" d="M1703.1 1017.3v184.4c0 32.5-26.6 59-59 59h-107c.1-2.4.2-4.9.2-7.4 0-70.8-57.4-128.2-128.2-128.2-70.8 0-128.2 57.4-128.2 128.2 0 2.5.1 4.9.2 7.4H639c.1-2.4.2-4.9.2-7.4 0-70.8-57.4-128.2-128.2-128.2s-128.2 57.4-128.2 128.2c0 2.5.1 4.9.2 7.4H276c-32.5 0-59-26.5-59-59v-184.4h1486.1z" id="Layer_3"/>
    <path class="st0" d="M1703.1 649.5v367.8H216.9V649.5c0-32.5 26.6-59 59-59H1644c32.5 0 59.1 26.6 59.1 59zm-114.5 245V706.8c0-8.3-6.8-15.2-15.2-15.2h-271c-8.3 0-15.2 6.8-15.2 15.2v187.6c0 8.3 6.8 15.1 15.2 15.1h271c8.4.1 15.2-6.7 15.2-15zm-478 0V706.8c0-8.3-6.8-15.2-15.2-15.2h-271c-8.3 0-15.2 6.8-15.2 15.2v187.6c0 8.3 6.8 15.1 15.2 15.1h271c8.4.1 15.2-6.7 15.2-15zm-477.9 0V706.8c0-8.3-6.8-15.2-15.1-15.2h-271c-8.3 0-15.1 6.8-15.1 15.2v187.6c0 8.3 6.8 15.1 15.1 15.1h271c8.2.1 15.1-6.7 15.1-15z" id="Layer_4"/>
    <path class="st0" d="M1588.6 706.8v187.6c0 8.3-6.8 15.1-15.2 15.1h-271c-8.3 0-15.2-6.8-15.2-15.1V706.8c0-8.3 6.8-15.2 15.2-15.2h271c8.4.1 15.2 6.9 15.2 15.2zm-493.1-15.1h-271c-8.3 0-15.2 6.8-15.2 15.2v187.6c0 8.3 6.8 15.1 15.2 15.1h271c8.3 0 15.2-6.8 15.2-15.1V706.8c-.1-8.3-6.9-15.1-15.2-15.1zm-478 0h-271c-8.3 0-15.1 6.8-15.1 15.2v187.6c0 8.3 6.8 15.1 15.1 15.1h271c8.3 0 15.1-6.8 15.1-15.1V706.8c.1-8.3-6.8-15.1-15.1-15.1z" id="Layer_5"/>
    <g id="STROKES">
        <path class="st1" d="M1280.8 1260.7H639"/>
        <path class="st1" d="M383 1260.7H276c-32.5 0-59-26.5-59-59V649.5c0-32.5 26.6-59 59-59h1368.1c32.4 0 59 26.5 59 59v552.2c0 32.5-26.6 59-59 59h-107"/>
        <path class="st1" d="M382.9 1260.7c-.1-2.4-.2-4.9-.2-7.4 0-70.8 57.4-128.2 128.2-128.2s128.2 57.4 128.2 128.2c0 2.5-.1 4.9-.2 7.4-3.8 67.4-59.7 120.9-128 120.9s-124.1-53.5-128-120.9z"/>
        <path class="st1" d="M1281 1260.7c-.1-2.5-.2-4.9-.2-7.4 0-70.8 57.4-128.2 128.2-128.2 70.8 0 128.2 57.4 128.2 128.2 0 2.5-.1 4.9-.2 7.4-3.8 67.4-59.7 120.9-128 120.9s-124.2-53.5-128-120.9z"/>
        <path class="st1" d="M216.9 1017.3h1486.2"/>
        <path class="st1" d="M617.5 909.6h-271c-8.3 0-15.1-6.8-15.1-15.1V706.8c0-8.3 6.8-15.2 15.1-15.2h271c8.3 0 15.1 6.8 15.1 15.2v187.6c.1 8.4-6.8 15.2-15.1 15.2z"/>
        <path class="st1" d="M1573.5 909.6h-271c-8.3 0-15.2-6.8-15.2-15.1V706.8c0-8.3 6.8-15.2 15.2-15.2h271c8.3 0 15.2 6.8 15.2 15.2v187.6c-.1 8.4-6.9 15.2-15.2 15.2z"/>
        <path class="st1" d="M1095.5 909.6h-271c-8.3 0-15.2-6.8-15.2-15.1V706.8c0-8.3 6.8-15.2 15.2-15.2h271c8.3 0 15.2 6.8 15.2 15.2v187.6c-.1 8.4-6.9 15.2-15.2 15.2z"/>
    </g>
</svg>
