<svg xmlns="http://www.w3.org/2000/svg" viewBox="0 0 1920 1920">
    <style>
        .st0{fill:#fff}.st1{fill:none;stroke:#000;stroke-width:50;stroke-linecap:round;stroke-linejoin:round;stroke-miterlimit:10}
    </style>
    <path class="st0" d="M1473.2 711.5l39.8 174.7h-104V711.5h64.2zm-179 0H1034c-7.3 0-13.2 6-13.2 13.2v148.2c0 7.3 6 13.2 13.2 13.2h260.2c7.3 0 13.2-5.9 13.2-13.2V724.7c.1-7.3-5.9-13.2-13.2-13.2zm-393.8 0H356.7c-10.4 0-18.8 8.5-18.8 18.8v137c0 10.4 8.5 18.8 18.8 18.8h543.7c10.4 0 18.8-8.5 18.8-18.8v-137c0-10.4-8.4-18.8-18.8-18.8z" id="Layer_6"/>
    <path class="st0" d="M1537.3 1253.3c0 2.5-.1 4.9-.2 7.4-3.8 67.4-59.7 120.9-128 120.9s-124.2-53.5-128-120.9c-.1-2.5-.2-4.9-.2-7.4 0-70.8 57.4-128.2 128.2-128.2 70.8-.1 128.2 57.4 128.2 128.2zm-898.1 0c0-70.8-57.4-128.2-128.2-128.2s-128.2 57.4-128.2 128.2c0 2.5.1 4.9.2 7.4 3.8 67.4 59.7 120.9 128 120.9s124.2-53.5 128-120.9c.2-2.5.2-4.9.2-7.4z" id="Layer_7"/>
    <path class="st0" d="M1566.8 649.5l136.3 552.2c0 32.5-26.6 59-59 59h-107c.1-2.4.2-4.9.2-7.4 0-70.8-57.4-128.2-128.2-128.2-70.8 0-128.2 57.4-128.2 128.2 0 2.5.1 4.9.2 7.4H639c.1-2.4.2-4.9.2-7.4 0-70.8-57.4-128.2-128.2-128.2s-128.2 57.4-128.2 128.2c0 2.5.1 4.9.2 7.4H276c-32.5 0-59-26.5-59-59V649.5c0-32.5 26.6-59 59-59h1231.8c32.4 0 59 26.6 59 59zM1513 886.2l-39.8-174.7H1409v174.7h104zm-205.5-13.3V724.7c0-7.3-5.9-13.2-13.2-13.2H1034c-7.3 0-13.2 6-13.2 13.2v148.2c0 7.3 6 13.2 13.2 13.2h260.2c7.3.1 13.3-5.9 13.3-13.2zm-388.3-5.6v-137c0-10.4-8.5-18.8-18.8-18.8H356.7c-10.4 0-18.8 8.5-18.8 18.8v137c0 10.4 8.5 18.8 18.8 18.8h543.7c10.4.1 18.8-8.4 18.8-18.8z" id="Layer_14"/>
    <g id="STROKES">
        <path class="st1" d="M1280.8 1260.7H639"/>
        <path class="st1" d="M382.9 1260.7H276c-32.5 0-59-26.5-59-59V649.5c0-32.5 26.6-59 59-59h1231.8c32.4 0 59 26.5 59 59l136.3 552.2c0 32.5-26.6 59-59 59h-107"/>
        <path class="st1" d="M382.9 1260.7c-.1-2.4-.2-4.9-.2-7.4 0-70.8 57.4-128.2 128.2-128.2s128.2 57.4 128.2 128.2c0 2.5-.1 4.9-.2 7.4-3.8 67.4-59.7 120.9-128 120.9s-124.1-53.5-128-120.9z"/>
        <path class="st1" d="M1281 1260.7c-.1-2.5-.2-4.9-.2-7.4 0-70.8 57.4-128.2 128.2-128.2 70.8 0 128.2 57.4 128.2 128.2 0 2.5-.1 4.9-.2 7.4-3.8 67.4-59.7 120.9-128 120.9s-124.2-53.5-128-120.9z"/>
        <path class="st1" d="M900.4 886.2H356.7c-10.4 0-18.8-8.5-18.8-18.8v-137c0-10.4 8.5-18.8 18.8-18.8h543.7c10.4 0 18.8 8.5 18.8 18.8v137c0 10.3-8.4 18.8-18.8 18.8z"/>
        <path class="st1" d="M1294.2 886.2H1034c-7.3 0-13.2-5.9-13.2-13.2V724.7c0-7.3 6-13.2 13.2-13.2h260.2c7.3 0 13.2 6 13.2 13.2v148.2c.1 7.3-5.9 13.3-13.2 13.3z"/>
        <path class="st1" d="M1409 711.5v174.7h104l-39.8-174.7z"/>
    </g>
</svg>
