<svg xmlns="http://www.w3.org/2000/svg" viewBox="0 0 1920 1920">
    <style>
        .st0{fill:#fff}.st1{fill:none;stroke:#231f20;stroke-width:50;stroke-linecap:round;stroke-linejoin:round;stroke-miterlimit:10}
    </style>
    <path class="st0" d="M1154.7 1498.8l461.5-408.7-287.6 29.8 214-393.9-247.4 74.3L1446.1 433l-260 176-208.5-392.1L769 609 509 433l151 367.3L412.5 726l214 393.9-287.6-29.8 461.5 408.7z" id="Layer_5"/>
    <g id="STROKES">
        <path class="st1" d="M1154.7 1498.8l461.5-408.7-287.6 29.8 214-393.9-247.4 74.3L1446.1 433l-260 176-208.5-392.1L769 609 509 433l151 367.3L412.5 726l214 393.9-287.6-29.8 461.5 408.7z"/>
        <path class="st1" d="M977.6 1289v414.1"/>
    </g>
</svg>
