<svg xmlns="http://www.w3.org/2000/svg" viewBox="0 0 1920 1920">
    <style>
        .st0{fill:#fff}.st1{fill:none;stroke:#231f20;stroke-width:50;stroke-linecap:round;stroke-linejoin:round;stroke-miterlimit:10}
    </style>
    <path class="st0" d="M1701.8 1075.8c-7.3-71.3-44.9-133.6-99.7-173.8-3.3-122.2-95.5-222.2-214.2-237.8-34.2-95.2-125.3-163.3-232.3-163.3-7.6 0-15 .4-22.4 1-39-84.9-124.8-143.9-224.3-143.9-132.5 0-240.5 104.4-246.5 235.4-23.3-7.3-48-11.2-73.7-11.2-136.2 0-246.3 109.7-246.8 245.9-.1 15.3 1.3 30.4 3.9 44.9-72.9 39.7-123.5 115.1-128.5 202.7h-.4c0 150.3 121.8 272.1 272.1 272.1h942c150.3 0 272.1-121.8 272.1-272.1h-1.3z" id="Layer_3"/>
    <g id="STROKES">
        <path class="st1" d="M1701.8 1075.8c-7.3-71.3-44.9-133.6-99.7-173.8-3.3-122.2-95.5-222.2-214.2-237.8-34.2-95.2-125.3-163.3-232.3-163.3-7.6 0-15 .4-22.4 1-39-84.9-124.8-143.9-224.3-143.9-132.5 0-240.5 104.4-246.5 235.4-23.3-7.3-48-11.2-73.7-11.2-136.2 0-246.3 109.7-246.8 245.9-.1 15.3 1.3 30.4 3.9 44.9-72.9 39.7-123.5 115.1-128.5 202.7h-.4c0 150.3 121.8 272.1 272.1 272.1h942c150.3 0 272.1-121.8 272.1-272.1h-1.3z"/>
        <path class="st1" d="M621 1024.3l339 533.2v145.6"/>
        <path class="st1" d="M960 1557.5l193-328.5"/>
    </g>
</svg>
