<svg xmlns="http://www.w3.org/2000/svg" viewBox="0 0 1920 1920">
    <style>
        .st0{fill:#fff}.st1{fill:none;stroke:#231f20;stroke-width:50;stroke-linecap:round;stroke-linejoin:round;stroke-miterlimit:10}
    </style>
    <path class="st0" d="M1703.1 409s-.1 520-464.1 664c0 0 660 160 352 440s-432 120-544-324V725s268.1-404 656.1-316zm-1486.2 0s.1 520 464 664c0 0-660 160-352 440s432 120 544-324V725c.1 0-268-404-656-316z" id="Layer_15"/>
    <path class="st0" d="M1047 1189v84.3c0 34.5-28.2 62.7-62.7 62.7h-48.6c-34.5 0-62.7-28.2-62.7-62.7V646.7c0-34.5 28.2-62.7 62.7-62.7h48.6c34.5 0 62.7 28.2 62.7 62.7V1189z" id="Layer_16"/>
    <g id="STROKES">
        <path class="st1" d="M873 725S604.9 321 217 409c0 0 .1 520 464 664 0 0-660 160-352 440s432 120 544-324"/>
        <path class="st1" d="M1047 725s268.1-404 656.1-316c0 0-.1 520-464.1 664 0 0 660 160 352 440s-432 120-544-324"/>
        <path class="st1" d="M1047 1189v84.3c0 34.5-28.2 62.7-62.7 62.7h-48.6c-34.5 0-62.7-28.2-62.7-62.7V646.7c0-34.5 28.2-62.7 62.7-62.7h48.6c34.5 0 62.7 28.2 62.7 62.7V1189z"/>
        <path class="st1" d="M911 587.5l-118-191"/>
        <path class="st1" d="M1009 587.5l118-191"/>
    </g>
</svg>
