<svg xmlns="http://www.w3.org/2000/svg" viewBox="0 0 1920 1920">
    <style>
        .st0{fill:#fff}.st1{fill:none;stroke:#231f20;stroke-width:50;stroke-linecap:round;stroke-linejoin:round;stroke-miterlimit:10}
    </style>
    <path class="st0" d="M1698.4 1445.4c63.3 336.1-535.6 283.3-686.9-89.6 113.3-434.8 93.6-674.9 49.2-805 0 0 238.3-371.8 507.2-185.4s-197.7 435.5-209.6 605.5c-11.8 170.1 276.8 138.4 340.1 474.5zM352.1 365.5C83.2 551.8 549.8 800.9 561.7 970.9c11.9 170-276.8 138.4-340 474.5-63.3 336.1 535.6 283.3 686.9-89.6-113.3-434.8-93.6-674.9-49.2-805-.1 0-238.4-371.7-507.3-185.3z" id="Layer_2"/>
    <path class="st0" d="M1011.5 1355.8c-2.4 9.1-4.8 18.3-7.3 27.6-12.1 45.1-76.2 45.1-88.3 0-2.5-9.3-4.9-18.5-7.3-27.6-113.3-434.8-93.6-674.9-49.2-805C899.5 432.9 960 405.5 960 405.5s60.5 27.4 100.7 145.3c44.4 130.1 64.1 370.2-49.2 805z" id="Layer_3"/>
    <g id="STROKES">
        <path class="st1" d="M859.3 550.8S621 179 352.1 365.4s197.7 435.5 209.6 605.5c11.9 170-276.8 138.4-340 474.5-63.3 336.1 535.6 283.3 686.9-89.6"/>
        <path class="st1" d="M908.5 1355.8c2.4 9.1 4.8 18.3 7.3 27.6 12.1 45.1 76.2 45.1 88.3 0 2.5-9.3 4.9-18.5 7.3-27.6 113.3-434.8 93.6-674.9 49.2-805C1020.5 432.9 960 405.5 960 405.5s-60.5 27.4-100.7 145.3c-44.4 130.1-64.1 370.2 49.2 805z"/>
        <path class="st1" d="M1060.7 550.8S1299 179 1567.9 365.4s-197.7 435.5-209.6 605.5c-11.9 170 276.8 138.4 340 474.5 63.3 336.1-535.6 283.3-686.9-89.6"/>
        <path class="st1" d="M726.9 254.8s156.3-49.9 161.9 206.5"/>
        <path class="st1" d="M1193.1 254.8s-156.3-49.9-161.9 206.5"/>
    </g>
</svg>
