<svg xmlns="http://www.w3.org/2000/svg" viewBox="0 0 1920 1920">
    <style>
        .st0{fill:#fff}.st1{fill:none;stroke:#231f20;stroke-width:50;stroke-linecap:round;stroke-linejoin:round;stroke-miterlimit:10}
    </style>
    <path class="st0" d="M1678.7 405.8c154.3 348.7-31.8 685.8-428.5 672.8 0 0 446.1 96.2 234 428.6-212 332.4-524.2-188-524.2-188V919c0-8.2.1-16.2.3-24 0 0 233.7-359.8 441.6-514.5 23.1 57.4 79.3 97.9 144.9 97.9 55.5-.1 104.2-29 131.9-72.6zm-57.8 342.4c0-80-64.9-144.9-144.9-144.9s-144.9 64.9-144.9 144.9S1396 893.1 1476 893.1c80 .1 144.9-64.8 144.9-144.9zM1410 1445.7c0-35.1-28.5-63.6-63.6-63.6s-63.6 28.5-63.6 63.6 28.5 63.6 63.6 63.6 63.6-28.5 63.6-63.6zm-164.2-576.4c0-33.7-27.3-61-61-61s-61 27.3-61 61 27.3 61 61 61 61-27.3 61-61zm0 386.4c0-48.7-39.5-88.1-88.1-88.1-48.7 0-88.1 39.5-88.1 88.1 0 48.7 39.5 88.1 88.1 88.1 48.6 0 88.1-39.4 88.1-88.1zM960 919v400.2s-15.8 26.4-42.8 63.5c-18-23.6-46.4-38.8-78.3-38.8-54.3 0-98.3 44-98.3 98.3 0 36.3 19.7 68.1 49 85.1-106.4 95.2-243.6 152.7-353.9-20-212.1-332.4 234-428.6 234-428.6-369.9 12.1-556.8-280.4-455-602.7 31.1 48.6 85.6 80.8 147.5 80.8 92.2 0 167.8-71.3 174.6-161.8 203 161.4 422.9 500 422.9 500 .2 7.8.3 15.8.3 24zm-74.5 146.4c0-34-27.6-61.6-61.6-61.6s-61.6 27.6-61.6 61.6 27.6 61.6 61.6 61.6c34.1 0 61.6-27.6 61.6-61.6zm-241.7 316.8c0-24.2-19.6-43.7-43.7-43.7s-43.7 19.6-43.7 43.7 19.6 43.7 43.7 43.7 43.7-19.6 43.7-43.7zm-70.2-610c0-60.6-49.1-109.7-109.7-109.7s-109.6 49.1-109.6 109.7 49.1 109.7 109.6 109.7c60.6-.1 109.7-49.2 109.7-109.7z" id="Layer_4"/>
    <path class="st0" d="M536.8 394.9c-6.8 90.5-82.3 161.8-174.6 161.8-62 0-116.4-32.2-147.5-80.8 8.3-26.3 18.6-52.9 30.8-79.4 59.7-129.9 172.6-96.1 291.3-1.6z" id="Layer_5"/>
    <path class="st0" d="M1678.7 405.8c-27.7 43.6-76.4 72.5-131.9 72.5-65.6 0-121.8-40.5-144.9-97.9 111.8-83.1 216-107 272.6 16 1.4 3.2 2.9 6.3 4.2 9.4z" id="Layer_6"/>
    <path class="st0" d="M1476 603.3c80 0 144.9 64.9 144.9 144.9S1556 893.1 1476 893.1s-144.9-64.9-144.9-144.9 64.8-144.9 144.9-144.9z" id="Layer_7"/>
    <ellipse class="st0" cx="1184.8" cy="869.3" rx="61" ry="61" id="Layer_8"/>
    <path class="st0" d="M463.9 662.5c60.6 0 109.7 49.1 109.7 109.7s-49.1 109.7-109.7 109.7-109.6-49.1-109.6-109.7 49.1-109.7 109.6-109.7z" id="Layer_9"/>
    <circle class="st0" cx="600" cy="1382.2" r="43.7" id="Layer_10"/>
    <path class="st0" d="M838.9 1343.8c31.9 0 60.3 15.2 78.3 38.8-30.5 42-75.3 97.8-127.6 144.5-29.3-17-49-48.8-49-85.1 0-54.1 44-98.2 98.3-98.2z" id="Layer_11"/>
    <circle class="st0" cx="1346.4" cy="1445.7" r="63.6" id="Layer_12"/>
    <path class="st0" d="M1157.7 1167.6c48.7 0 88.1 39.5 88.1 88.1 0 48.7-39.5 88.1-88.1 88.1-48.7 0-88.1-39.5-88.1-88.1-.1-48.7 39.4-88.1 88.1-88.1z" id="Layer_13"/>
    <ellipse class="st0" cx="823.9" cy="1065.4" rx="61.6" ry="61.6" id="Layer_14"/>
    <g id="STROKES">
        <path class="st1" d="M960 919c0-8.2-.1-16.2-.3-24-8.6-388.5-226.6-424.2-226.6-424.2"/>
        <path class="st1" d="M959.7 895S739.8 556.4 536.8 394.9c-118.7-94.5-231.6-128.3-291.4 1.6-12.2 26.6-22.5 53.1-30.8 79.4-101.8 322.4 85 614.9 455 602.7 0 0-446.1 96.2-234 428.6 110.2 172.7 247.5 115.2 353.9 20 52.2-46.7 97.1-102.5 127.6-144.5 27-37.1 42.8-63.5 42.8-63.5"/>
        <path class="st1" d="M1678.7 405.8c154.3 348.7-31.8 685.8-428.5 672.8 0 0 446.1 96.2 234 428.6-212 332.4-524.2-188-524.2-188V919c0-8.2.1-16.2.3-24 8.6-388.5 226.6-424.2 226.6-424.2"/>
        <path class="st1" d="M960.3 895s233.7-359.8 441.6-514.5c111.8-83.1 216-107 272.6 16 1.4 3.1 2.8 6.2 4.2 9.4"/>
        <path class="st1" d="M573.6 772.2c0 60.6-49.1 109.7-109.7 109.7s-109.6-49.1-109.6-109.7 49.1-109.7 109.6-109.7c60.6 0 109.7 49.1 109.7 109.7z"/>
        <circle class="st1" cx="600" cy="1382.2" r="43.7"/>
        <ellipse class="st1" cx="823.9" cy="1065.4" rx="61.6" ry="61.6"/>
        <path class="st1" d="M1245.8 1255.7c0 48.7-39.5 88.1-88.1 88.1-48.7 0-88.1-39.5-88.1-88.1 0-48.7 39.5-88.1 88.1-88.1 48.6 0 88.1 39.4 88.1 88.1z"/>
        <path class="st1" d="M1620.9 748.2c0 80-64.9 144.9-144.9 144.9s-144.9-64.9-144.9-144.9S1396 603.3 1476 603.3s144.9 64.9 144.9 144.9z"/>
        <ellipse class="st1" cx="1184.8" cy="869.3" rx="61" ry="61"/>
        <circle class="st1" cx="1346.4" cy="1445.7" r="63.6"/>
        <path class="st1" d="M536.8 394.9c-6.8 90.5-82.3 161.8-174.6 161.8-62 0-116.4-32.2-147.5-80.8"/>
        <path class="st1" d="M1678.7 405.8c-27.7 43.6-76.4 72.5-131.9 72.5-65.6 0-121.8-40.5-144.9-97.9"/>
        <path class="st1" d="M789.6 1527.2c-29.3-17-49-48.8-49-85.1 0-54.3 44-98.3 98.3-98.3 31.9 0 60.3 15.2 78.3 38.8"/>
    </g>
</svg>
