<svg xmlns="http://www.w3.org/2000/svg" viewBox="0 0 1920 1920">
    <style>
        .st0{fill:#fff}.st1{stroke-width:50;stroke-linecap:round}.st1,.st2,.st3{fill:none;stroke:#000;stroke-linejoin:round;stroke-miterlimit:10}.st2{stroke-linecap:round;stroke-width:49.7528}.st3{stroke-width:50}
    </style>
    <path class="st0" d="M1379.7 679.5v-199c0-31.5-25.8-57.3-57.3-57.3s-57.3 25.8-57.3 57.3v198.9s1.1 100.4-52.5 100.4H1121V378c0-88.6-72.5-161-161-161-88.6 0-161 72.5-161 161v550.4h-96.4c-61.7 0-60.5-115.8-60.5-115.8V583.3c0-36.3-29.7-66.1-66.1-66.1s-66 29.7-66 66.1v229.3s-14.9 286.5 192.6 286.5H799v558c0 25.3 20.7 46 46 46h230c25.3 0 46-20.7 46-46V927.9h91.7c178.6 0 167-248.4 167-248.4z" id="Layer_3"/>
    <g id="STROKES">
        <path class="st1" d="M1379.7 679.5v-199c0-31.5-25.8-57.3-57.3-57.3s-57.3 25.8-57.3 57.3v198.9s1.1 100.4-52.5 100.4H1121V378c0-88.6-72.5-161-161-161-88.6 0-161 72.5-161 161v550.4h-96.4c-61.7 0-60.5-115.8-60.5-115.8V583.3c0-36.3-29.7-66.1-66.1-66.1s-66 29.7-66 66.1v229.3s-14.9 286.5 192.6 286.5H799v558c0 25.3 20.7 46 46 46h230c25.3 0 46-20.7 46-46V927.9h91.7c178.6 0 167-248.4 167-248.4z"/>
        <path class="st1" d="M736.5 1260.8h108.9"/>
        <path class="st1" d="M1065.1 1327.2l108.9 42.5"/>
        <path class="st1" d="M834.3 1484.2l-97.8 36.9"/>
        <path class="st1" d="M960 1447.2l-15.2 96"/>
        <path class="st1" d="M605.4 1022.6l-79.3 35.1"/>
        <path class="st1" d="M960 1133.8v85"/>
        <path class="st1" d="M1119.6 1116.8h74.7"/>
        <path class="st1" d="M1263.5 920.1l60.1 60"/>
        <path class="st1" d="M834.3 520.5h-84.9"/>
        <path class="st1" d="M983.9 716.2l-42.6 42.6"/>
        <path class="st1" d="M509.8 769.7h-57.6"/>
        <path class="st1" d="M944.8 485.4l49.1-49"/>
        <path class="st1" d="M1379.9 629.4h78.4"/>
        <path class="st1" d="M1078.1 595.3l74.7-74.8"/>
        <path class="st1" d="M799 758.8l-57 57"/>
        <path class="st1" d="M837.3 274l55.8 55.8"/>
        <path class="st1" d="M1038.9 1610.9l86.6 86.6"/>
        <path class="st1" d="M941.3 907l62.3 62.4"/>
    </g>
</svg>
