<svg xmlns="http://www.w3.org/2000/svg" viewBox="0 0 1920 1920">
    <style>
        .st0{fill:#fff}.st1{stroke-width:50;stroke-linecap:round}.st1,.st2,.st3{fill:none;stroke:#000;stroke-linejoin:round;stroke-miterlimit:10}.st2{stroke-linecap:round;stroke-width:49.7528}.st3{stroke-width:50}
    </style>
    <path class="st0" d="M837.4 858.5c-114 0-113.2-152.4-113.2-152.4V382.4c0-52.2-42.7-94.8-94.8-94.8-52.2 0-94.8 42.7-94.8 94.8v323.7S499.1 1069 837.5 1069v634.1H1121V1195c338.3 0 302.9-361.2 302.9-361.2V510.1c0-52.2-42.7-94.8-94.8-94.8-52.2 0-94.8 42.7-94.8 94.8v323.7s.8 152.4-113.2 152.4V378c.1-80.9-65.4-146.5-146.3-146.5-75.8 0-137.3 61.5-137.3 137.3v489.7z" id="Layer_2"/>
    <g id="STROKES">
        <path class="st3" d="M837.4 858.5c-114 0-113.2-152.4-113.2-152.4V382.4c0-52.2-42.7-94.8-94.8-94.8-52.2 0-94.8 42.7-94.8 94.8v323.7S499.1 1069 837.5 1069v634.1H1121V1195c338.3 0 302.9-361.2 302.9-361.2V510.1c0-52.2-42.7-94.8-94.8-94.8-52.2 0-94.8 42.7-94.8 94.8v323.7s.8 152.4-113.2 152.4V378c.1-80.9-65.4-146.5-146.3-146.5-75.8 0-137.3 61.5-137.3 137.3v489.7z"/>
        <path class="st1" d="M629.4 287.6v483c0 46.5 16.4 91.7 47 126.6 30.6 35 80.4 66 160.8 66 52.4 0 94.9-42.5 94.9-94.9V258.9"/>
        <path class="st1" d="M1026.7 996.4v706.7"/>
        <path class="st1" d="M932 868.4v834.7"/>
        <path class="st1" d="M1329.1 415.3v483c0 46.5-16.4 91.7-47 126.6-30.6 35-80.4 66-160.8 66-52.3 0-94.6-42.4-94.6-94.6V265"/>
    </g>
</svg>
