<svg xmlns="http://www.w3.org/2000/svg" viewBox="0 0 1920 1920">
    <style>
        .st0{fill:#fff}.st1,.st2{fill:none;stroke:#000;stroke-width:50;stroke-linecap:round;stroke-linejoin:round;stroke-miterlimit:10}.st2{stroke-width:50.4073}
    </style>
    <path class="st0" d="M1145.5 462.1c71.8 0 130.1 58.2 130.1 130.1 0 71.8-58.2 130.1-130.1 130.1-71.8 0-130.1-58.2-130.1-130.1.1-71.9 58.3-130.1 130.1-130.1z" id="Layer_3"/>
    <path class="st0" d="M216.9 877.9h1486.2V397.3z" id="Layer_4"/>
    <path class="st0" d="M216.9 877.9H1703v214.9H216.9z" id="Layer_5"/>
    <path class="st0" d="M216.9 1092.8H1703v214.9H216.9z" id="Layer_6"/>
    <path class="st0" d="M216.9 1307.8H1703v214.9H216.9z" id="Layer_7"/>
    <g id="Layer_10">
        <path class="st2" d="M1015.5 619.7L216.9 877.9v644.8h1486.2V397.3l-427.5 138.2"/>
        <path class="st2" d="M1703.1 877.9H216.9"/>
        <path class="st2" d="M216.9 1092.8h1486.2"/>
        <path class="st2" d="M216.9 1307.8h1486.2"/>
        <path class="st2" d="M1275.6 592.1c0 71.8-58.2 130.1-130.1 130.1-71.8 0-130.1-58.2-130.1-130.1 0-71.8 58.2-130.1 130.1-130.1 71.9.1 130.1 58.3 130.1 130.1z"/>
    </g>
</svg>
