<svg xmlns="http://www.w3.org/2000/svg" viewBox="0 0 1920 1920">
    <style>
        .st0{fill:#fff}.st1{fill:none;stroke:#000;stroke-width:50;stroke-linecap:round;stroke-linejoin:round;stroke-miterlimit:10}
    </style>
    <path class="st0" d="M480.5 343.4h958.9v337.4H480.5z" id="Layer_5"/>
    <path class="st0" d="M1439.5 279.6v63.8h-959v-63.8c0-34.5 28.2-62.7 62.7-62.7h833.5c34.5 0 62.8 28.3 62.8 62.7z" id="Layer_6"/>
    <path class="st0" d="M1439.5 680.8v959.6c0 34.5-28.2 62.7-62.7 62.7H543.2c-34.5 0-62.7-28.2-62.7-62.7V680.8h959zm-113.9 234.5c0-26-10.6-49.6-27.8-66.8s-40.8-27.8-66.8-27.8-49.6 10.6-66.8 27.8-27.8 40.8-27.8 66.8c0 52 42.5 94.5 94.5 94.5 26 0 49.6-10.6 66.8-27.8s27.9-40.7 27.9-66.7zm0 284.2c0-26-10.6-49.6-27.8-66.8s-40.8-27.8-66.8-27.8-49.6 10.6-66.8 27.8-27.8 40.8-27.8 66.8c0 52 42.5 94.5 94.5 94.5 26 0 49.6-10.6 66.8-27.8s27.9-40.7 27.9-66.7zm0 279.9c0-26-10.6-49.6-27.8-66.8s-40.8-27.8-66.8-27.8-49.6 10.6-66.8 27.8-27.8 40.8-27.8 66.8c0 52 42.5 94.5 94.5 94.5 26 0 49.6-10.6 66.8-27.8s27.9-40.7 27.9-66.7zm-271.1-564.1c0-26-10.6-49.6-27.8-66.8S986 820.8 960 820.8s-49.6 10.6-66.8 27.8-27.8 40.8-27.8 66.8c0 52 42.5 94.5 94.5 94.5 26 0 49.6-10.6 66.8-27.8s27.8-40.8 27.8-66.8zm0 284.2c0-26-10.6-49.6-27.8-66.8S986 1105 960 1105s-49.6 10.6-66.8 27.8-27.8 40.8-27.8 66.8c0 52 42.5 94.5 94.5 94.5 26 0 49.6-10.6 66.8-27.8s27.8-40.8 27.8-66.8zm0 279.9c0-26-10.6-49.6-27.8-66.8s-40.8-27.8-66.8-27.8-49.6 10.6-66.8 27.8-27.8 40.8-27.8 66.8c0 52 42.5 94.5 94.5 94.5 26 0 49.6-10.6 66.8-27.8s27.9-40.7 27.9-66.7zM783.4 915.3c0-26-10.6-49.6-27.8-66.8s-40.8-27.8-66.8-27.8-49.6 10.6-66.8 27.8-27.8 40.8-27.8 66.8c0 52 42.5 94.5 94.5 94.5 26 0 49.6-10.6 66.8-27.8s27.9-40.7 27.9-66.7zm0 284.2c0-26-10.6-49.6-27.8-66.8s-40.8-27.8-66.8-27.8-49.6 10.6-66.8 27.8-27.8 40.8-27.8 66.8c0 52 42.5 94.5 94.5 94.5 26 0 49.6-10.6 66.8-27.8s27.9-40.7 27.9-66.7zm0 279.9c0-26-10.6-49.6-27.8-66.8s-40.8-27.8-66.8-27.8-49.6 10.6-66.8 27.8-27.8 40.8-27.8 66.8c0 52 42.5 94.5 94.5 94.5 26 0 49.6-10.6 66.8-27.8s27.9-40.7 27.9-66.7z" id="Layer_7"/>
    <g id="Layer_8">
        <path class="st0" d="M1297.9 848.6c17.1 17.1 27.8 40.8 27.8 66.8s-10.6 49.6-27.8 66.8-40.8 27.8-66.8 27.8c-52 0-94.5-42.5-94.5-94.5 0-26 10.6-49.6 27.8-66.8s40.8-27.8 66.8-27.8 49.5 10.5 66.7 27.7z"/>
        <path class="st0" d="M1297.9 1132.8c17.1 17.1 27.8 40.8 27.8 66.8s-10.6 49.6-27.8 66.8-40.8 27.8-66.8 27.8c-52 0-94.5-42.5-94.5-94.5 0-26 10.6-49.6 27.8-66.8s40.8-27.8 66.8-27.8 49.5 10.6 66.7 27.7z"/>
        <path class="st0" d="M1297.9 1412.6c17.1 17.1 27.8 40.8 27.8 66.8s-10.6 49.6-27.8 66.8-40.8 27.8-66.8 27.8c-52 0-94.5-42.5-94.5-94.5 0-26 10.6-49.6 27.8-66.8s40.8-27.8 66.8-27.8 49.5 10.6 66.7 27.7z"/>
        <path class="st0" d="M1026.8 848.6c17.1 17.1 27.8 40.8 27.8 66.8s-10.6 49.6-27.8 66.8S986 1010 960 1010c-52 0-94.5-42.5-94.5-94.5 0-26 10.6-49.6 27.8-66.8s40.8-27.8 66.8-27.8 49.5 10.5 66.7 27.7z"/>
        <path class="st0" d="M1026.8 1132.8c17.1 17.1 27.8 40.8 27.8 66.8s-10.6 49.6-27.8 66.8S986 1294 960 1294c-52 0-94.5-42.5-94.5-94.5 0-26 10.6-49.6 27.8-66.8S934 1105 960 1105s49.6 10.7 66.8 27.8z"/>
        <path class="st0" d="M1026.8 1412.6c17.1 17.1 27.8 40.8 27.8 66.8s-10.6 49.6-27.8 66.8S986 1574 960 1574c-52 0-94.5-42.5-94.5-94.5 0-26 10.6-49.6 27.8-66.8s40.8-27.8 66.8-27.8 49.5 10.6 66.7 27.7z"/>
        <path class="st0" d="M755.6 848.6c17.1 17.1 27.8 40.8 27.8 66.8s-10.6 49.6-27.8 66.8-40.8 27.8-66.8 27.8c-52 0-94.5-42.5-94.5-94.5 0-26 10.6-49.6 27.8-66.8s40.8-27.8 66.8-27.8 49.6 10.5 66.7 27.7z"/>
        <path class="st0" d="M755.6 1132.8c17.1 17.1 27.8 40.8 27.8 66.8s-10.6 49.6-27.8 66.8-40.8 27.8-66.8 27.8c-52 0-94.5-42.5-94.5-94.5 0-26 10.6-49.6 27.8-66.8s40.8-27.8 66.8-27.8 49.6 10.6 66.7 27.7z"/>
        <path class="st0" d="M755.6 1412.6c17.1 17.1 27.8 40.8 27.8 66.8s-10.6 49.6-27.8 66.8-40.8 27.8-66.8 27.8c-52 0-94.5-42.5-94.5-94.5 0-26 10.6-49.6 27.8-66.8s40.8-27.8 66.8-27.8 49.6 10.6 66.7 27.7z"/>
    </g>
    <g id="STROKES">
        <path class="st1" d="M1439.5 680.8v959.6c0 34.5-28.2 62.7-62.7 62.7H543.2c-34.5 0-62.7-28.2-62.7-62.7V279.6c0-34.5 28.2-62.7 62.7-62.7h833.5c34.5 0 62.7 28.2 62.7 62.7v401.2z"/>
        <path class="st1" d="M783.4 915.3c0 26-10.6 49.6-27.8 66.8s-40.8 27.8-66.8 27.8c-52 0-94.5-42.5-94.5-94.5 0-26 10.6-49.6 27.8-66.8s40.8-27.8 66.8-27.8 49.6 10.6 66.8 27.8 27.7 40.7 27.7 66.7z"/>
        <path class="st1" d="M1054.5 915.3c0 26-10.6 49.6-27.8 66.8s-40.8 27.8-66.8 27.8c-52 0-94.5-42.5-94.5-94.5 0-26 10.6-49.6 27.8-66.8s40.8-27.8 66.8-27.8 49.6 10.6 66.8 27.8 27.7 40.7 27.7 66.7z"/>
        <path class="st1" d="M1325.6 915.3c0 26-10.6 49.6-27.8 66.8s-40.8 27.8-66.8 27.8c-52 0-94.5-42.5-94.5-94.5 0-26 10.6-49.6 27.8-66.8s40.8-27.8 66.8-27.8 49.6 10.6 66.8 27.8 27.7 40.7 27.7 66.7z"/>
        <path class="st1" d="M783.4 1199.5c0 26-10.6 49.6-27.8 66.8s-40.8 27.8-66.8 27.8c-52 0-94.5-42.5-94.5-94.5 0-26 10.6-49.6 27.8-66.8s40.8-27.8 66.8-27.8 49.6 10.6 66.8 27.8 27.7 40.7 27.7 66.7z"/>
        <path class="st1" d="M1054.5 1199.5c0 26-10.6 49.6-27.8 66.8S986 1294 960 1294c-52 0-94.5-42.5-94.5-94.5 0-26 10.6-49.6 27.8-66.8S934 1105 960 1105s49.6 10.6 66.8 27.8 27.7 40.7 27.7 66.7z"/>
        <path class="st1" d="M1325.6 1199.5c0 26-10.6 49.6-27.8 66.8s-40.8 27.8-66.8 27.8c-52 0-94.5-42.5-94.5-94.5 0-26 10.6-49.6 27.8-66.8s40.8-27.8 66.8-27.8 49.6 10.6 66.8 27.8 27.7 40.7 27.7 66.7z"/>
        <path class="st1" d="M783.4 1479.4c0 26-10.6 49.6-27.8 66.8s-40.8 27.8-66.8 27.8c-52 0-94.5-42.5-94.5-94.5 0-26 10.6-49.6 27.8-66.8s40.8-27.8 66.8-27.8 49.6 10.6 66.8 27.8 27.7 40.7 27.7 66.7z"/>
        <path class="st1" d="M1054.5 1479.4c0 26-10.6 49.6-27.8 66.8s-40.8 27.8-66.8 27.8c-52 0-94.5-42.5-94.5-94.5 0-26 10.6-49.6 27.8-66.8s40.8-27.8 66.8-27.8 49.6 10.6 66.8 27.8 27.7 40.7 27.7 66.7z"/>
        <path class="st1" d="M1325.6 1479.4c0 26-10.6 49.6-27.8 66.8S1257 1574 1231 1574c-52 0-94.5-42.5-94.5-94.5 0-26 10.6-49.6 27.8-66.8s40.8-27.8 66.8-27.8 49.6 10.6 66.8 27.8 27.7 40.7 27.7 66.7z"/>
        <path class="st1" d="M480.5 680.8h959"/>
        <path class="st1" d="M480.5 343.4h959"/>
    </g>
</svg>
