<svg xmlns="http://www.w3.org/2000/svg" viewBox="0 0 1920 1920">
    <style>
        .st0{fill:#fff}.st1{fill:none;stroke:#000;stroke-width:50;stroke-linecap:round;stroke-linejoin:round;stroke-miterlimit:10}
    </style>
    <path class="st0" d="M1486.7 216.9V1703H433.3V216.9h1053.4zM1364 1582.4v-507.5h-210.4v507.5H1364zm0-594.2V777.8h-210.4v210.4H1364zm0-351.1V343.4H556v293.7h808zm-298.8 945.3V1372H854.8v210.4h210.4zm0-297.1v-210.4H854.8v210.4h210.4zm0-297.1V777.8H854.8v210.4h210.4zm-298.8 594.2V1372H556v210.4h210.4zm0-297.1v-210.4H556v210.4h210.4zm0-297.1V777.8H556v210.4h210.4z" id="Layer_9"/>
    <path class="st0" d="M556 343.4h808v293.7H556z" id="Layer_10"/>
    <path class="st0" d="M1364 777.8v210.4h-210.4V777.8H1364zM854.8 1372v210.4h210.4V1372H854.8zm0-297.1v210.4h210.4v-210.4H854.8zm0-297.1v210.4h210.4V777.8H854.8zM556 1372v210.4h210.4V1372H556zm0-297.1v210.4h210.4v-210.4H556zm0-297.1v210.4h210.4V777.8H556z" id="Layer_11"/>
    <path class="st0" d="M1153.6 1074.9H1364v507.5h-210.4z" id="Layer_12"/>
    <g id="STROKES">
        <path class="st1" d="M433.3 216.9h1053.5V1703H433.3z"/>
        <path class="st1" d="M556 343.4h808v293.7H556z"/>
        <path class="st1" d="M556 1372h210.4v210.4H556z"/>
        <path class="st1" d="M556 1074.9h210.4v210.4H556z"/>
        <path class="st1" d="M556 777.8h210.4v210.4H556z"/>
        <path class="st1" d="M854.8 1372h210.4v210.4H854.8z"/>
        <path class="st1" d="M854.8 1074.9h210.4v210.4H854.8z"/>
        <path class="st1" d="M854.8 777.8h210.4v210.4H854.8z"/>
        <path class="st1" d="M1153.6 1074.9H1364v507.5h-210.4z"/>
        <path class="st1" d="M1153.6 777.8H1364v210.4h-210.4z"/>
    </g>
</svg>
