<svg xmlns="http://www.w3.org/2000/svg" viewBox="0 0 1920 1920">
    <style>
        .st0{fill:#fff}.st1{fill:none;stroke:#000;stroke-width:50;stroke-linecap:round;stroke-linejoin:round;stroke-miterlimit:10}
    </style>
    <path class="st0" d="M1439.5 279.6v401.1h-959V279.6c0-34.5 28.2-62.7 62.7-62.7h833.5c34.5 0 62.8 28.3 62.8 62.7zm-113.9 231.9V362.9c0-10.7-8.8-19.5-19.4-19.5H613.8c-10.7 0-19.5 8.8-19.5 19.5v148.7c0 10.7 8.8 19.5 19.5 19.5h692.4c10.7-.1 19.4-8.9 19.4-19.6z" id="Layer_2"/>
    <path class="st0" d="M1439.5 680.8v959.6c0 34.5-28.2 62.7-62.7 62.7H543.2c-34.5 0-62.7-28.2-62.7-62.7V680.8h959zm-113.9 867.4v-137.7c0-14.1-11.6-25.7-25.7-25.7h-137.7c-14.1 0-25.7 11.6-25.7 25.7v137.7c0 14.1 11.6 25.7 25.7 25.7H1300c14.1 0 25.6-11.6 25.6-25.7zm0-279.8v-137.7c0-14.1-11.6-25.7-25.7-25.7h-137.7c-14.1 0-25.7 11.5-25.7 25.7v137.7c0 14.1 11.6 25.7 25.7 25.7H1300c14.1-.1 25.6-11.6 25.6-25.7zm0-284.2V846.5c0-14.1-11.6-25.7-25.7-25.7h-137.7c-14.1 0-25.7 11.5-25.7 25.7v137.7c0 14.1 11.6 25.7 25.7 25.7H1300c14.1-.1 25.6-11.6 25.6-25.7zm-271.1 564v-137.7c0-14.1-11.6-25.7-25.7-25.7H891.2c-14.1 0-25.7 11.6-25.7 25.7v137.7c0 14.1 11.5 25.7 25.7 25.7h137.7c14.1 0 25.6-11.6 25.6-25.7zm0-279.8v-137.7c0-14.1-11.6-25.7-25.7-25.7H891.2c-14.1 0-25.7 11.5-25.7 25.7v137.7c0 14.1 11.5 25.7 25.7 25.7h137.7c14.1-.1 25.6-11.6 25.6-25.7zm0-284.2V846.5c0-14.1-11.6-25.7-25.7-25.7H891.2c-14.1 0-25.7 11.5-25.7 25.7v137.7c0 14.1 11.5 25.7 25.7 25.7h137.7c14.1-.1 25.6-11.6 25.6-25.7zm-271.1 564v-137.7c0-14.1-11.5-25.7-25.7-25.7H620c-14.1 0-25.7 11.6-25.7 25.7v137.7c0 14.1 11.5 25.7 25.7 25.7h137.7c14.1 0 25.7-11.6 25.7-25.7zm0-279.8v-137.7c0-14.1-11.5-25.7-25.7-25.7H620c-14.1 0-25.7 11.5-25.7 25.7v137.7c0 14.1 11.5 25.7 25.7 25.7h137.7c14.1-.1 25.7-11.6 25.7-25.7zm0-284.2V846.5c0-14.1-11.5-25.7-25.7-25.7H620c-14.1 0-25.7 11.5-25.7 25.7v137.7c0 14.1 11.5 25.7 25.7 25.7h137.7c14.1-.1 25.7-11.6 25.7-25.7z" id="Layer_3"/>
    <path class="st0" d="M1325.6 1410.5v137.7c0 14.1-11.6 25.7-25.7 25.7h-137.7c-14.1 0-25.7-11.6-25.7-25.7v-137.7c0-14.1 11.6-25.7 25.7-25.7H1300c14.1.1 25.6 11.6 25.6 25.7zM1300 1105h-137.7c-14.1 0-25.7 11.5-25.7 25.7v137.7c0 14.1 11.6 25.7 25.7 25.7H1300c14.1 0 25.7-11.6 25.7-25.7v-137.7c-.1-14.1-11.6-25.7-25.7-25.7zm0-284.2h-137.7c-14.1 0-25.7 11.5-25.7 25.7v137.7c0 14.1 11.6 25.7 25.7 25.7H1300c14.1 0 25.7-11.5 25.7-25.7V846.5c-.1-14.1-11.6-25.7-25.7-25.7zm-271.2 564.1H891.2c-14.1 0-25.7 11.6-25.7 25.7v137.7c0 14.1 11.5 25.7 25.7 25.7h137.7c14.1 0 25.7-11.6 25.7-25.7v-137.7c-.1-14.2-11.6-25.7-25.8-25.7zm0-279.9H891.2c-14.1 0-25.7 11.5-25.7 25.7v137.7c0 14.1 11.5 25.7 25.7 25.7h137.7c14.1 0 25.7-11.6 25.7-25.7v-137.7c-.1-14.1-11.6-25.7-25.8-25.7zm0-284.2H891.2c-14.1 0-25.7 11.5-25.7 25.7v137.7c0 14.1 11.5 25.7 25.7 25.7h137.7c14.1 0 25.7-11.5 25.7-25.7V846.5c-.1-14.1-11.6-25.7-25.8-25.7zm-271.1 564.1H620c-14.1 0-25.7 11.6-25.7 25.7v137.7c0 14.1 11.5 25.7 25.7 25.7h137.7c14.1 0 25.7-11.6 25.7-25.7v-137.7c0-14.2-11.6-25.7-25.7-25.7zm0-279.9H620c-14.1 0-25.7 11.5-25.7 25.7v137.7c0 14.1 11.5 25.7 25.7 25.7h137.7c14.1 0 25.7-11.6 25.7-25.7v-137.7c0-14.1-11.6-25.7-25.7-25.7zm0-284.2H620c-14.1 0-25.7 11.5-25.7 25.7v137.7c0 14.1 11.5 25.7 25.7 25.7h137.7c14.1 0 25.7-11.5 25.7-25.7V846.5c0-14.1-11.6-25.7-25.7-25.7z" id="Layer_4"/>
    <path class="st0" d="M1325.6 362.9v148.7c0 10.7-8.8 19.5-19.4 19.5H613.8c-10.7 0-19.5-8.8-19.5-19.5V362.9c0-10.7 8.8-19.5 19.5-19.5h692.4c10.7 0 19.4 8.7 19.4 19.5z" id="Layer_13"/>
    <g id="STROKES">
        <path class="st1" d="M1439.5 680.8v959.6c0 34.5-28.2 62.7-62.7 62.7H543.2c-34.5 0-62.7-28.2-62.7-62.7V279.6c0-34.5 28.2-62.7 62.7-62.7h833.5c34.5 0 62.7 28.2 62.7 62.7v401.2z"/>
        <path class="st1" d="M1306.2 531H613.8c-10.7 0-19.5-8.8-19.5-19.5V362.9c0-10.7 8.8-19.5 19.5-19.5h692.4c10.7 0 19.4 8.8 19.4 19.5v148.7c0 10.6-8.7 19.4-19.4 19.4z"/>
        <path class="st1" d="M757.7 1009.8H620c-14.1 0-25.7-11.5-25.7-25.7V846.5c0-14.1 11.5-25.7 25.7-25.7h137.7c14.1 0 25.7 11.5 25.7 25.7v137.7c0 14.1-11.6 25.6-25.7 25.6z"/>
        <path class="st1" d="M1028.8 1009.8H891.2c-14.1 0-25.7-11.5-25.7-25.7V846.5c0-14.1 11.5-25.7 25.7-25.7h137.7c14.1 0 25.7 11.5 25.7 25.7v137.7c-.1 14.1-11.6 25.6-25.8 25.6z"/>
        <path class="st1" d="M1300 1009.8h-137.7c-14.1 0-25.7-11.5-25.7-25.7V846.5c0-14.1 11.6-25.7 25.7-25.7H1300c14.1 0 25.7 11.5 25.7 25.7v137.7c-.1 14.1-11.6 25.6-25.7 25.6z"/>
        <path class="st1" d="M757.7 1294H620c-14.1 0-25.7-11.6-25.7-25.7v-137.7c0-14.1 11.5-25.7 25.7-25.7h137.7c14.1 0 25.7 11.5 25.7 25.7v137.7c0 14.2-11.6 25.7-25.7 25.7z"/>
        <path class="st1" d="M1028.8 1294H891.2c-14.1 0-25.7-11.6-25.7-25.7v-137.7c0-14.1 11.5-25.7 25.7-25.7h137.7c14.1 0 25.7 11.5 25.7 25.7v137.7c-.1 14.2-11.6 25.7-25.8 25.7z"/>
        <path class="st1" d="M1300 1294h-137.7c-14.1 0-25.7-11.6-25.7-25.7v-137.7c0-14.1 11.6-25.7 25.7-25.7H1300c14.1 0 25.7 11.5 25.7 25.7v137.7c-.1 14.2-11.6 25.7-25.7 25.7z"/>
        <path class="st1" d="M757.7 1573.9H620c-14.1 0-25.7-11.6-25.7-25.7v-137.7c0-14.1 11.5-25.7 25.7-25.7h137.7c14.1 0 25.7 11.6 25.7 25.7v137.7c0 14.1-11.6 25.7-25.7 25.7z"/>
        <path class="st1" d="M1028.8 1573.9H891.2c-14.1 0-25.7-11.6-25.7-25.7v-137.7c0-14.1 11.5-25.7 25.7-25.7h137.7c14.1 0 25.7 11.6 25.7 25.7v137.7c-.1 14.1-11.6 25.7-25.8 25.7z"/>
        <path class="st1" d="M1300 1573.9h-137.7c-14.1 0-25.7-11.6-25.7-25.7v-137.7c0-14.1 11.6-25.7 25.7-25.7H1300c14.1 0 25.7 11.6 25.7 25.7v137.7c-.1 14.1-11.6 25.7-25.7 25.7z"/>
        <path class="st1" d="M480.5 680.8h959"/>
    </g>
</svg>
