<svg xmlns="http://www.w3.org/2000/svg" viewBox="0 0 1920 1920">
    <style>
        .st0{fill:#fff}.st1{fill:none;stroke:#000;stroke-width:50;stroke-linecap:round;stroke-linejoin:round;stroke-miterlimit:10}
    </style>
    <path class="st0" d="M1446 325.3h192.9v472H281.1v-472H1203z" id="Layer_2"/>
    <path class="st0" d="M1638.9 797.3V1703H281.1V797.3h1357.8zm-194 360.8V977.7h-194v180.4h194zM1057 1518.8v-180.4H863v180.4h194zm0-360.7V977.7H863v180.4h194zm-388 360.7v-180.4H475v180.4h194z" id="Layer_3"/>
    <path class="st0" d="M669 1338.4v180.4H475v-180.4h194zm194 0v180.4h194v-180.4H863zm388-360.7v180.4h194V977.7h-194zm-388 0v180.4h194V977.7H863z" id="Layer_4"/>
    <g id="STROKES">
        <g id="XMLID_1_">
            <path class="st1" d="M1638.9 797.3v905.8H281.1V325.3h1357.8z"/>
            <path class="st1" d="M281.1 797.3h1357.8"/>
            <path class="st1" d="M474 433.6V216.9"/>
            <path class="st1" d="M717 433.6V216.9"/>
            <path class="st1" d="M1203 433.6V216.9"/>
            <path class="st1" d="M960 433.6V216.9"/>
            <path class="st1" d="M1446 433.6V216.9"/>
            <path class="st1" d="M863 977.7h194v180.4H863z"/>
            <path class="st1" d="M475 1338.4h194v180.4H475z"/>
            <path class="st1" d="M863 1338.4h194v180.4H863z"/>
            <path class="st1" d="M1251 977.7h194v180.4h-194z"/>
        </g>
    </g>
</svg>
