<svg xmlns="http://www.w3.org/2000/svg" viewBox="0 0 1920 1920">
    <style>
        .st0{fill:#fff}.st1{fill:none;stroke:#000;stroke-width:50;stroke-linecap:round;stroke-linejoin:round;stroke-miterlimit:10}
    </style>
    <path class="st0" d="M516.1 368c46.4 0 84 37.6 84 84s-37.6 84-84 84-84-37.6-84-84 37.6-84 84-84zm803.8 84c0 46.4 37.6 84 84 84s84-37.6 84-84-37.6-84-84-84-84 37.6-84 84z" id="Layer_18"/>
    <path class="st0" d="M1703.1 440.8v232H216.9v-232c0-123.6 100.2-223.8 223.8-223.8h1038.4c123.7-.1 224 100.2 224 223.8zM1487.9 452c0-46.4-37.6-84-84-84s-84 37.6-84 84 37.6 84 84 84 84-37.6 84-84zm-887.8 0c0-46.4-37.6-84-84-84s-84 37.6-84 84 37.6 84 84 84 84-37.6 84-84z" id="Layer_19"/>
    <g id="Layer_20">
        <path class="st0" d="M588.5 1359.6v343.5l-371.6-343.5z"/>
        <path class="st0" d="M1331.5 1359.6H1703V1703h-371.5z"/>
        <path class="st0" d="M960 1359.6h371.5V1703H960z"/>
        <path class="st0" d="M588.5 1359.6H960V1703H588.5z"/>
        <path class="st0" d="M588.5 1016.2v343.4H216.9v-343.4z"/>
        <path class="st0" d="M588.5 1016.2H960v343.4H588.5z"/>
        <path class="st0" d="M960 1016.2h371.5v343.4H960z"/>
        <path class="st0" d="M1331.5 1016.2H1703v343.4h-371.5z"/>
        <path class="st0" d="M1331.5 672.8H1703v343.4h-371.5z"/>
        <path class="st0" d="M960 672.8h371.5v343.4H960z"/>
        <path class="st0" d="M588.5 672.8H960v343.4H588.5z"/>
        <path class="st0" d="M216.9 672.8h371.5v343.4H216.9z"/>
    </g>
    <g id="STROKES">
        <g id="XMLID_1_">
            <path class="st1" d="M588.5 1703.1h-3"/>
            <path class="st1" d="M216.9 672.8v-232c0-123.6 100.2-223.8 223.8-223.8h1038.4c123.6 0 223.9 100.2 223.9 223.8v232"/>
            <circle class="st1" cx="516.1" cy="452" r="84"/>
            <circle class="st1" cx="1403.9" cy="452" r="84"/>
            <path class="st1" d="M216.9 1016.2V672.8h371.6"/>
            <path class="st1" d="M588.5 1359.6H216.9v-343.4h371.6"/>
            <path class="st1" d="M588.5 1016.2V672.8H960"/>
            <path class="st1" d="M588.5 1359.6v-343.4H960"/>
            <path class="st1" d="M960 1016.2V672.8h371.5"/>
            <path class="st1" d="M960 1359.6v-343.4h371.5"/>
            <path class="st1" d="M1331.5 1016.2V672.8h371.6v343.4"/>
            <path class="st1" d="M1331.5 1359.6v-343.4h371.6v343.4"/>
            <path class="st1" d="M960 1703.1H588.5v-343.5H960"/>
            <path class="st1" d="M1331.5 1703.1H960v-343.5h371.5"/>
            <path class="st1" d="M1331.5 1359.6H1703V1703h-371.5z"/>
            <path class="st1" d="M216.9 1359.6l371.6 343.5"/>
        </g>
    </g>
</svg>
