<svg xmlns="http://www.w3.org/2000/svg" viewBox="0 0 1920 1920">
    <style>
        .st0{fill:#fff}.st1{fill:none;stroke:#231f20;stroke-width:50;stroke-linejoin:round;stroke-miterlimit:10}
    </style>
    <path class="st0" d="M293 401.2h254v117.1H293z" id="Layer_9"/>
    <path class="st0" d="M502 720.2c0-45.3-36.7-82-82-82s-82 36.7-82 82 36.7 82 82 82 82-36.8 82-82zm232 0C621.4 794 547 921.3 547 1065.9c0 228.1 184.9 413 413 413s413-184.9 413-413-184.9-413-413-413c-83.4 0-161.1 24.7-226 67.3zm947 0v893.2H216.9v-1095H1681v201.8z" id="Layer_10"/>
    <path class="st0" d="M420 638.2c45.3 0 82 36.7 82 82s-36.7 82-82 82-82-36.7-82-82 36.7-82 82-82z" id="Layer_11"/>
    <path class="st0" d="M960 652.9c228.1 0 413 184.9 413 413s-184.9 413-413 413-413-184.9-413-413c0-144.7 74.4-272 187-345.7 64.9-42.6 142.6-67.3 226-67.3zm277.5 413c0-153.3-124.2-277.5-277.5-277.5s-277.5 124.2-277.5 277.5 124.2 277.5 277.5 277.5 277.5-124.2 277.5-277.5z" id="Layer_12"/>
    <circle class="st0" cx="960" cy="1065.9" r="277.5" id="Layer_13"/>
    <g id="STROKES">
        <g id="XMLID_1_">
            <path class="st1" d="M1681 720.2v893.2H216.9v-1095H1681z"/>
            <path class="st1" d="M1373 1065.9c0 228.1-184.9 413-413 413s-413-184.9-413-413c0-144.7 74.4-272 187-345.7 64.9-42.5 142.6-67.3 226-67.3 228.1 0 413 184.9 413 413z"/>
            <circle class="st1" cx="960" cy="1065.9" r="277.5"/>
            <path class="st1" d="M502 720.2c0 45.3-36.7 82-82 82s-82-36.7-82-82 36.7-82 82-82 82 36.7 82 82z"/>
            <path class="st1" d="M293 518.4V401.2h254v117.2"/>
            <path class="st1" d="M216.9 720.2H338"/>
            <path class="st1" d="M502 720.2h232"/>
            <path class="st1" d="M1194 720.2h487"/>
        </g>
    </g>
</svg>
