<svg xmlns="http://www.w3.org/2000/svg" viewBox="0 0 1920 1920">
    <style>
        .st0{fill:#fff}.st1{fill:none;stroke:#231f20;stroke-width:50;stroke-linejoin:round;stroke-miterlimit:10}
    </style>
    <path class="st0" d="M625 369.6V478H349V369.6c0-30 24.6-54.6 54.6-54.6h166.8c30 0 54.6 24.6 54.6 54.6z" id="Layer_2"/>
    <path class="st0" d="M1703.1 542v1007.3c0 35.2-28.8 64-64 64H281c-35.2 0-64-28.8-64-64V542c0-35.2 28.8-64 64-64h1358c35.2 0 64.1 28.8 64.1 64zM1373 1045.7c0-228.1-184.9-413-413-413s-413 184.9-413 413 184.9 413 413 413 413-184.9 413-413z" id="Layer_3"/>
    <path class="st0" d="M960 632.7c228.1 0 413 184.9 413 413s-184.9 413-413 413-413-184.9-413-413 184.9-413 413-413zm277.5 413c0-153.3-124.2-277.5-277.5-277.5s-277.5 124.2-277.5 277.5c0 153.2 124.2 277.5 277.5 277.5s277.5-124.3 277.5-277.5z" id="Layer_4"/>
    <path class="st0" d="M960 768.2c153.3 0 277.5 124.2 277.5 277.5 0 153.2-124.2 277.5-277.5 277.5S682.5 1199 682.5 1045.7 806.7 768.2 960 768.2z" id="Layer_5"/>
    <g id="STROKES">
        <g id="XMLID_1_">
            <path class="st1" d="M625 478h1014c35.2 0 64 28.8 64 64v1007.3c0 35.2-28.8 64-64 64H281c-35.2 0-64-28.8-64-64V542c0-35.2 28.8-64 64-64h68"/>
            <path class="st1" d="M1373 1045.7c0 228.1-184.9 413-413 413s-413-184.9-413-413 184.9-413 413-413 413 184.9 413 413z"/>
            <path class="st1" d="M1237.5 1045.7c0 153.2-124.2 277.5-277.5 277.5S682.5 1199 682.5 1045.7 806.7 768.2 960 768.2s277.5 124.2 277.5 277.5z"/>
            <path class="st1" d="M625 478V369.6c0-30-24.6-54.6-54.6-54.6H403.6c-30 0-54.6 24.6-54.6 54.6V478h276z"/>
        </g>
    </g>
</svg>
