<svg xmlns="http://www.w3.org/2000/svg" viewBox="0 0 1920 1920">
    <style>
        .st0{fill:#fff}.st1{fill:none;stroke:#231f20;stroke-width:50;stroke-linejoin:round;stroke-miterlimit:10}
    </style>
    <path class="st0" d="M773.2 1273.3v99.7H436.1v-99.7h337.1zm-337.1-99.7v99.7h337.1v-99.7H436.1zm0-99.7v99.7h337.1v-99.7H436.1zm0-99.7v99.7h337.1v-99.7H436.1zm0-99.7v99.7h337.1v-99.7H436.1zm0-103.4v103.4h337.1V771.1H436.1z" id="Layer_6"/>
    <path class="st0" d="M1102.1 874.5v398.8H1013V874.5h89.1zm-89.1 398.8V874.5h89.1V771.1H885V1373h217.1v-99.7H1013zM773.2 771.1V1373H885V771.1H773.2zm-337.1 402.5V771.1H267.2c-29 0-52.5 23.5-52.5 52.5v497c0 29 23.5 52.4 52.5 52.4h168.9v-199.4z" id="Layer_7"/>
    <path class="st0" d="M1635.7 1102v292.6h-215.1v-229c0-35.1 28.5-63.6 63.6-63.6h151.5zm8.3-513.2v198.8h61.2V588.8H1644zm-122.1 0v122.3l53.3 76.5h68.8V588.8h-122.1zm-195.6 155.8c0 23.8 25.1 43.1 56.1 43.1s56.1-19.3 56.1-43.1-25.1-43.1-56.1-43.1-56.1 19.3-56.1 43.1zm248.9 43.1l-53.3-76.5V549.8c-200.6-72.4-537.8 39-537.8 39l258.5 182.3v623.5h177.9v-229c0-35.1 28.5-63.6 63.6-63.6h151.5V874.5l-60.4-86.8zm-192.9 0c-31 0-56.1-19.3-56.1-43.1s25.1-43.1 56.1-43.1 56.1 19.3 56.1 43.1-25.1 43.1-56.1 43.1zM984.2 588.8v76.8l117.9 105.5V1373l140.7 21.7V771.1L984.2 588.8z" id="Layer_8"/>
    <g id="STROKES">
        <g id="XMLID_1_">
            <path class="st1" d="M773.2 771.1h328.9V1373H773.2"/>
            <path class="st1" d="M436.1 1373H267.2c-29 0-52.5-23.5-52.5-52.4v-497c0-29 23.5-52.5 52.5-52.5h168.9"/>
            <path class="st1" d="M1102.1 771.1L984.2 665.6v-76.8s337.1-111.4 537.8-39v161.3l53.3 76.5 60.5 86.9v520.1h-393l-140.7-21.7"/>
            <path class="st1" d="M1242.7 1394.6V771.1L984.2 588.8"/>
            <path class="st1" d="M1521.9 588.8h183.3v198.9h-130"/>
            <path class="st1" d="M1644 787.7V588.8"/>
            <path class="st1" d="M773.2 771.1V1373"/>
            <path class="st1" d="M436.1 1373V771.1"/>
            <path class="st1" d="M436.1 771.1h337.1"/>
            <path class="st1" d="M436.1 874.5h337.1"/>
            <path class="st1" d="M436.1 974.2h337.1"/>
            <path class="st1" d="M436.1 1073.9h337.1"/>
            <path class="st1" d="M436.1 1173.6h337.1"/>
            <path class="st1" d="M436.1 1273.3h337.1"/>
            <path class="st1" d="M436.1 1373h337.1"/>
            <path class="st1" d="M1420.6 1394.6v-229c0-35.1 28.5-63.6 63.6-63.6h151.5"/>
            <path class="st1" d="M1438.4 744.6c0 23.8-25.1 43.1-56.1 43.1s-56.1-19.3-56.1-43.1 25.1-43.1 56.1-43.1 56.1 19.3 56.1 43.1z"/>
            <path class="st1" d="M885 771.1V1373"/>
            <path class="st1" d="M1102.1 874.5H1013v398.8h89.1"/>
        </g>
    </g>
</svg>
