<svg xmlns="http://www.w3.org/2000/svg" viewBox="0 0 1920 1920">
    <style>
        .st0{fill:#fff}.st1,.st2{fill:none;stroke:#231f20;stroke-width:50;stroke-linejoin:round;stroke-miterlimit:10}.st2{stroke-linecap:round}
    </style>
    <path class="st0" d="M321.2 362.2S237 340.1 216.9 501c0 0 4.7 68 166.4 24l91.6-25.8s31.8-3 33.1 84.3l1.6 112.8c32.9 317.3 268 340.9 265.6 347.9-2.4 7.1 35.3 202.2 35.3 202.2-23.5 14.1-23.5 103.4-23.5 103.4l-94.1 256.8c-35.3 7.1-68.1 78.3-68.1 78.3h178.7c0-30.3-23.5-71.8-23.5-71.8l77.6-237.4c28.2-18.8 37.6-134 37.6-134s14.1-223.3 68.2-216.3c54.1 7.1 110.5 232.7 105.8 260.9-4.7 28.2-11.8 101.1-11.8 101.1l-97.4 214c-35.3 0-67.2 83.6-67.2 83.6l213.9 1.1c4.7-75.2-68.2-84.6-68.2-84.6l110.1-218.6V1098c0-17.5 15.1-31.5 32.5-29.7 41 4.2 99.5-16.9 99.5-16.9l18.8 272.7-73.2 267.8c-67.9.2-63.2 94.3-63.2 94.3l190.4-1.1c0-51.7-36.4-67.5-36.4-67.5l57.6-293.4 91.7-361.7c-9.4 61.4 68.2 272.4 68.2 272.4l14.1 369.1s-72.9 9.4-72.9 82.3l159.8-4.7-7.1-75.2c-11.8-72.9 0-378.5 0-378.5-30.6-105.8-4.2-253.9-4.2-253.9l19.5-53.4c21.5-59 44.3-116.7 41.2-187.5-4.7-106.5-95.5-131.5-95.5-131.5 0-110.5-8.1-339.4-130.4-339.4s-125.7 321.4-231.5 321.4-20-325.9-128.1-325.9-163.9 198.7-163.9 198.7S874 647 768.2 642.3c-105.8-4.7-79.9-185.7-79.9-185.7 42.3-58.8 18.8-143.4 18.8-143.4C690.6 193.3 587.2 245 587.2 245c-51.7-16.5-91.7 28.2-91.7 28.2s-92.5-39.2-174.3 89z" id="Layer_2"/>
    <path class="st1" d="M321.2 362.2S237 340.1 216.9 501c0 0 4.7 68 166.4 24l91.6-25.8s31.8-3 33.1 84.3l1.6 112.8c32.9 317.3 268 340.9 265.6 347.9-2.4 7.1 35.3 202.2 35.3 202.2-23.5 14.1-23.5 103.4-23.5 103.4l-94.1 256.8c-35.3 7.1-68.1 78.3-68.1 78.3h178.7c0-30.3-23.5-71.8-23.5-71.8l77.6-237.4c28.2-18.8 37.6-134 37.6-134s14.1-223.3 68.2-216.3c54.1 7.1 110.5 232.7 105.8 260.9-4.7 28.2-11.8 101.1-11.8 101.1l-97.4 214c-35.3 0-67.2 83.6-67.2 83.6l213.9 1.1c4.7-75.2-68.2-84.6-68.2-84.6l110.1-218.6V1098c0-17.5 15.1-31.5 32.5-29.7 41 4.2 99.5-16.9 99.5-16.9l18.8 272.7-73.2 267.8c-67.9.2-63.2 94.3-63.2 94.3l190.4-1.1c0-51.7-36.4-67.5-36.4-67.5l57.6-293.4 91.7-361.7c-9.4 61.4 68.2 272.4 68.2 272.4l14.1 369.1s-72.9 9.4-72.9 82.3l159.8-4.7-7.1-75.2c-11.8-72.9 0-378.5 0-378.5-30.6-105.8-4.2-253.9-4.2-253.9l19.5-53.4c21.5-59 44.3-116.7 41.2-187.5-4.7-106.5-95.5-131.5-95.5-131.5 0-110.5-8.1-339.4-130.4-339.4s-125.7 321.4-231.5 321.4-20-325.9-128.1-325.9-163.9 198.7-163.9 198.7S874 647 768.2 642.3c-105.8-4.7-79.9-185.7-79.9-185.7 42.3-58.8 18.8-143.4 18.8-143.4C690.6 193.3 587.2 245 587.2 245c-51.7-16.5-91.7 28.2-91.7 28.2s-92.5-39.2-174.3 89z" id="STROKES"/>
</svg>
