<svg xmlns="http://www.w3.org/2000/svg" viewBox="0 0 1920 1920">
    <style>
        .st0{fill:#fff}.st1{stroke:#231f20;stroke-width:50;stroke-linecap:round;stroke-linejoin:round;stroke-miterlimit:10}.st1,.st2{fill:none}
    </style>
    <path class="st0" d="M400.8 216.9c35.3 49.9 49.9 122.5-13.6 221.6-64.5 10.9-125.6 30.8-170.3 21.4v-243h183.9z" id="Layer_2"/>
    <path class="st0" d="M1230.5 288.4c67.4 70.2-167.5 95.6-225.5 125.2-95.5 48.8-87.8 184-87.8 184-155.6 10.7-52-165.1-256.1-191.5-84.1-10.9-119.8 8.1-141.9 34.8-43-12.9-88.3-9.8-131.9-2.4 63.4-99.1 48.9-171.7 13.6-221.6h607.5c23.3 43.8 165.1 12.1 222.1 71.5z" id="Layer_4"/>
    <path class="st0" d="M1005 413.6c58-29.6 292.9-55 225.5-125.2-56.9-59.4-198.8-27.7-222.2-71.4h411c-33.9 29.1-62.1 79.8-38.2 165.4 0 0 34 83.9 21.1 172.9-7.8 53.6-32.5 109-91.8 149.1-78.3-22.1-209.7-30.4-209.7-30.4 6.7-9.4 11.2-20.1 12.9-32.5 11.2-82.6-94.3-50.9-196.4-43.9 0 0-7.7-135.3 87.8-184z" id="Layer_5"/>
    <path class="st0" d="M1703.1 459.9v179.8c-49.5-30-158.5-84.3-300.9-84.3 12.9-89-21.1-172.9-21.1-172.9-23.9-85.7 4.3-136.3 38.2-165.4h283.8v242.8z" id="Layer_6"/>
    <path class="st0" d="M1064 874.9c162.5-216.9 136.1 29.8 295-95.8 44-34.8 8-58.7-48.7-74.7 59.3-40.1 84-95.5 91.8-149.1 142.4 0 251.4 54.3 300.9 84.3v295.8c-19.9-6.8-42.9-25.5-60.4-70.8-38.3-99.6-197.8 34.5-199.4 35.9-10.4-4.7-21.2-6.9-31.2-7.7-17.6-1.4-35.2 1.5-51.6 8-72.2 28.8-443.3 170.3-296.4-25.9z" id="Layer_7"/>
    <path class="st0" d="M1310.4 704.4c56.6 16 92.7 39.9 48.7 74.7-158.9 125.6-132.6-121.1-295 95.8-147 196.2 224.2 54.7 296.4 25.9 16.4-6.5 34-9.4 51.6-8 10 .8 20.8 3 31.2 7.7 29.8 13.5 56.2 47.6 48.8 128.3-151.8-20.3-279.2 52.7-280.6 53.5-108.2-50.9-229.4-41.1-229.4-41.1-9.7-27.3-32.7-49.1-61.9-59.8-165-60.4-47.3-137.7-47.3-137.7 145.5-26.5 46.7-87.8 11.3-106.8 0 0 167.1 6.5 216.5-62.8 0-.1 131.4 8.2 209.7 30.3z" id="Layer_8"/>
    <path class="st0" d="M917.2 597.6c102.1-7 207.6-38.7 196.4 43.9-1.7 12.4-6.2 23.1-12.9 32.5-49.5 69.3-216.5 62.8-216.5 62.8-6.8-3.6-11.3-5.7-11.3-5.7-275.2-80.2-285.1 45.5-285.2 47.5-7.4-10-19.1-15.8-19.1-15.8-93.9-27.2-164.5.1-213 36.7 0 0 5.6-62.4-109.6-140.4 0 0-6.4-5-18.6-12.9 0 0 48.5-99.6 179.4-108.4 77-5.2 80.8-58.9 112.3-97 22.1-26.7 57.8-45.7 141.9-34.8 204.2 26.5 100.6 202.3 256.2 191.6z" id="Layer_9"/>
    <path class="st0" d="M387.2 438.5c43.7-7.3 89-10.5 131.9 2.4-31.5 38.1-35.3 91.8-112.3 97-130.8 8.8-179.3 108.3-179.3 108.3-3.1-2-6.6-4.2-10.5-6.6V459.9c44.7 9.4 105.7-10.5 170.2-21.4z" id="Layer_10"/>
    <path class="st0" d="M246.1 659.1C361.2 737 355.6 799.5 355.6 799.5c-45.1 34-77.6 81.7-94.5 135.5l-.5-.2s-19.6 9-43.7.8V639.7c3.9 2.4 7.4 4.6 10.5 6.6 12.2 7.8 18.7 12.8 18.7 12.8z" id="Layer_11"/>
    <path class="st0" d="M587.7 778.6c11.1 15 12.6 39.3-49.9 66.7 0 0-18.7 49.6 126 49.8 26.8 0 51.8 13.3 64.2 35.1 17.6 31.1-67 106.1-182.5 66.2-25.5-8.8-43-9.7-55.8-5.7-51 15.9-27.4 110-147.1 91.7-45.9-7-71.2-22.4-83.5-43.1-15.5-25.8-10.7-59.8-.5-95.9.8-2.8 1.6-5.6 2.5-8.4 16.9-53.7 49.5-101.5 94.5-135.5 48.5-36.6 119.1-63.9 213-36.7.1 0 11.7 5.8 19.1 15.8z" id="Layer_12"/>
    <path class="st0" d="M545.5 996.4c115.5 39.9 200.1-35.2 182.5-66.2-12.3-21.8-37.3-35-64.2-35.1-144.7-.2-126-49.8-126-49.8 62.5-27.4 61-51.7 49.9-66.7.1-1.9 10-127.7 285.2-47.5 0 0 4.5 2.1 11.3 5.7 35.5 19 134.2 80.4-11.3 106.8 0 0-117.7 77.3 47.3 137.7 29.2 10.7 52.2 32.5 61.9 59.8 12.4 35 3.6 77.1-101.5 87-70 6.6-142.4-11.1-205.6-35.7-105.4-41.1-185.2-101.8-185.2-101.8 12.8-3.9 30.2-3 55.7 5.8z" id="Layer_13"/>
    <path class="st0" d="M216.9 935.5c24.1 8.2 43.7-.8 43.7-.8l.5.2c-.9 2.8-1.7 5.6-2.5 8.4-10.2 36.1-14.9 70.1.5 95.9 0 0-17.4-1.9-42.2-2.8V935.5z" id="Layer_3"/>
    <path class="st0" d="M1642.7 864.7c17.4 45.4 40.4 64 60.4 70.8v101c-37.3-1.3-91.3-.4-128.3 13-28-10.4-55.7-17-82.7-20.6 7.4-80.7-18.9-114.8-48.8-128.3 1.6-1.5 161-135.6 199.4-35.9z" id="Layer_14"/>
    <path class="st0" d="M259.1 1039.3c12.4 20.6 37.7 36 83.5 43.1 119.7 18.4 96.1-75.7 147.1-91.7 0 0 79.8 60.6 185.2 101.8 0 0 15.8 181.3-231.5 213.2-97.9 12.6-140.3-19.2-178.6-62.6-15.5-17.5-30.3-37-47.9-56.1v-150.5c24.9.9 42.2 2.8 42.2 2.8z" id="Layer_15"/>
    <path class="st0" d="M1211.4 1082.3c61.9 29.1 119.5 78.2 147.6 160.3-30.5 27.2-60.3 59.2-85.1 96.2-166.5 104.4-287.6 66.9-287.6 66.9s-4.2-113.6-252.6-87c0 0-78.5 148.5-256.2 109.8-138.1-30-146.7-10.1-207.5-31.2-14.1-4.9-31.1-12-53.2-22.5v-106.7c22.6-13.4 44.6-22.7 47.9-25.2 38.3 43.4 80.7 75.2 178.6 62.6 247.3-31.8 231.5-213.2 231.5-213.2 63.2 24.7 135.6 42.3 205.6 35.7 105.1-9.9 113.9-52 101.5-87 .2.2 121.4-9.6 229.5 41.3z" id="Layer_16"/>
    <path class="st0" d="M1359.1 1242.6c-28.2-82.1-85.8-131.1-147.6-160.3 1.4-.8 128.8-73.8 280.6-53.5 27 3.6 54.7 10.2 82.7 20.6-24.4 8.8-41.4 23-41.4 45.3 0 13.6 3.2 23.3 8.8 30.3-.1.1-98.5 42.2-183.1 117.6z" id="Layer_17"/>
    <path class="st0" d="M1703.1 1036.5v150.4l-.7-.7c-51-55.2-133.3-27.5-160.2-61.1-5.6-7-8.8-16.7-8.8-30.3 0-22.4 17-36.6 41.4-45.3 37-13.4 91-14.4 128.3-13z" id="Layer_18"/>
    <path class="st0" d="M270.1 1397.4s40 50.2-53.2 95.3v-117.8c22.1 10.5 39.1 17.6 53.2 22.5z" id="Layer_19"/>
    <path class="st0" d="M264.9 1243c-3.4 2.5-25.3 11.8-47.9 25.2v-81.3c17.5 19.2 32.4 38.6 47.9 56.1z" id="Layer_20"/>
    <path class="st0" d="M568.7 1631.6s140.5 63.2 270.2-64.1c88.2 16.6 197.9 45 184.2 81.5-6.7 6.2-11.7 13.2-14.5 21.3-4.9 14.1-4.6 24.7-.3 32.7H216.9v-210.3c93.2-45.1 53.2-95.3 53.2-95.3 60.8 21.1 69.3 1.1 207.5 31.2 0 0-94.2 129.9 91.1 203z" id="Layer_21"/>
    <path class="st0" d="M1274 1338.8c24.8-37 54.6-69.1 85.1-96.2 84.7-75.4 183.1-117.5 183.1-117.5 26.9 33.6 109.2 5.8 160.2 61.1.2.2.4.5.7.7v81.3c-42.2 25-86.7 64.1-16.2 98.8 5.7 2.8 11.1 5.4 16.2 7.9V1703h-694.8c-4.3-8-4.6-18.6.3-32.7 2.8-8 7.8-15.1 14.5-21.3 35.7-32.8 121.1-40.9 195.5-41.1-21.4-108 7.6-197.7 55.4-269.1z" id="Layer_22"/>
    <path class="st0" d="M986.4 1405.8s121.1 37.4 287.6-66.9c-47.8 71.4-76.8 161-55.4 269.2-74.4.1-159.8 8.2-195.5 41.1 13.7-36.5-96-64.8-184.2-81.5-57-10.8-105.1-16.6-105.1-16.6s-257.7-72.4-44.7-60.3c300.3 17.1 297.3-85 297.3-85z" id="Layer_23"/>
    <path class="st0" d="M1703.1 1268.2v106.7c-5.1-2.4-10.5-5.1-16.2-7.9-70.6-34.7-26.1-73.8 16.2-98.8z" id="Layer_24"/>
    <path class="st0" d="M689.1 1490.7c-213-12.2 44.7 60.3 44.7 60.3s48 5.9 105.1 16.6c-129.7 127.3-270.2 64.1-270.2 64.1-185.3-73.2-91.1-203-91.1-203 177.7 38.7 256.2-109.8 256.2-109.8 248.4-26.6 252.6 87 252.6 87s3 102-297.3 84.8z" id="Layer_25"/>
    <g id="STROKES">
        <path class="st1" d="M355.6 799.5c48.5-36.6 119.1-63.9 213-36.7 0 0 11.7 5.9 19.1 15.8 11.1 15 12.6 39.3-49.9 66.7 0 0-18.7 49.6 126 49.8 26.8 0 51.8 13.3 64.2 35.1 17.6 31.1-67 106.1-182.5 66.2-25.5-8.8-43-9.7-55.8-5.7-51 15.9-27.4 110-147.1 91.7-45.9-7-71.2-22.4-83.5-43.1-15.5-25.8-10.7-59.8-.5-95.9.8-2.8 1.6-5.6 2.5-8.4 16.9-53.8 49.5-101.5 94.5-135.5z"/>
        <path class="st1" d="M587.7 778.6c.1-2 10-127.7 285.2-47.5 0 0 4.5 2.1 11.3 5.7 35.5 19 134.2 80.4-11.3 106.8 0 0-117.7 77.3 47.3 137.7 29.2 10.7 52.2 32.5 61.9 59.8 12.4 35 3.6 77.1-101.5 87-70 6.6-142.4-11.1-205.6-35.7-105.4-41.1-185.2-101.8-185.2-101.8"/>
        <path class="st1" d="M227.5 646.2s48.5-99.6 179.4-108.4c77-5.2 80.8-58.9 112.3-97 22.1-26.7 57.8-45.7 141.9-34.8 204.1 26.4 100.5 202.2 256.1 191.5 102.1-7 207.6-38.7 196.4 43.9-1.7 12.4-6.2 23.1-12.9 32.5-49.5 69.3-216.5 62.8-216.5 62.8"/>
        <path class="st1" d="M477.6 1428.6s-94.2 129.9 91.1 203c0 0 140.5 63.2 270.2-64.1"/>
        <path class="st1" d="M1023 1649.1c13.7-36.5-96-64.8-184.2-81.5-57-10.8-105.1-16.6-105.1-16.6s-257.7-72.4-44.7-60.3c300.3 17.2 297.3-84.9 297.3-84.9s-4.2-113.6-252.6-87"/>
        <path class="st1" d="M661.1 406.1s53.3-13 126-117.8"/>
        <path class="st1" d="M400.8 216.9c35.3 49.9 49.9 122.5-13.6 221.6"/>
        <path class="st1" d="M1008.3 216.9c23.4 43.8 165.3 12.1 222.2 71.4 67.4 70.2-167.5 95.6-225.5 125.2-95.5 48.8-87.8 184-87.8 184"/>
        <path class="st1" d="M1419.3 216.9c-33.9 29.1-62.1 79.8-38.2 165.4 0 0 34 83.9 21.1 172.9-7.8 53.6-32.5 109-91.8 149.1"/>
        <path class="st1" d="M283.2 1614.9s74.3 27 117.6 88.2"/>
        <path class="st1" d="M1349.4 1614.9s-60.5-7-130.8-6.9c-74.4.1-159.8 8.2-195.5 41.1-6.7 6.2-11.7 13.2-14.5 21.3-4.9 14.1-4.6 24.7-.3 32.7"/>
        <path class="st1" d="M1492 1666.4s-39.2 7.8-72.7 36.7"/>
        <path class="st1" d="M1542.1 1125.1s-98.4 42.1-183.1 117.5c-30.5 27.2-60.3 59.2-85.1 96.2-47.8 71.4-76.8 161-55.4 269.2"/>
        <path class="st1" d="M216.9 1268.2c22.6-13.4 44.6-22.7 47.9-25.2.2-.2.4-.3.4-.4"/>
        <path class="st1" d="M612.1 1242.6s132.2 9.9 121.7 76.2c0 0-78.5 148.5-256.2 109.8-138.1-30-146.7-10.1-207.5-31.2-14.1-4.9-31.1-12-53.2-22.5"/>
        <path class="st1" d="M1703.1 1374.9c-5.1-2.4-10.5-5.1-16.2-7.9-70.5-34.8-26-73.8 16.2-98.8"/>
        <path class="st1" d="M1211.4 1082.3c61.9 29.1 119.5 78.2 147.6 160.3"/>
        <path class="st1" d="M982.1 1041.2s121.2-9.8 229.4 41.1"/>
        <path class="st1" d="M1211.4 1082.3c1.4-.8 128.8-73.8 280.6-53.5 27 3.6 54.7 10.2 82.7 20.6.2.1.3.1.5.2"/>
        <path class="st1" d="M986.4 1405.8s121.1 37.4 287.6-66.9"/>
        <path class="st1" d="M1443.3 900.5c29.8 13.5 56.2 47.6 48.8 128.3"/>
        <path class="st1" d="M1100.7 674s131.4 8.2 209.7 30.4c56.6 16 92.7 39.9 48.7 74.7-158.9 125.6-132.6-121.1-295 95.8-147 196.2 224.2 54.7 296.4 25.9 16.4-6.5 34-9.4 51.6-8 10 .8 20.8 3 31.2 7.7"/>
        <path class="st1" d="M1703.1 1492.7c-34.9 16.9-88.4 33-169.7 45.6"/>
        <path class="st1" d="M270.1 1397.4s40 50.2-53.2 95.3"/>
        <path class="st1" d="M1443.2 900.5c1.6-1.4 161.1-135.5 199.4-35.9 17.4 45.4 40.4 64 60.4 70.8"/>
        <path class="st1" d="M1533.3 364.8s66.6 12.7 132.6 76.1c10.5 10.1 23 16 37.1 19"/>
        <path class="st1" d="M216.9 935.5c24.1 8.2 43.7-.8 43.7-.8"/>
        <path class="st1" d="M355.6 799.5s5.6-62.4-109.6-140.4c0 0-6.4-5-18.6-12.9-3.1-2-6.6-4.2-10.5-6.6"/>
        <path class="st1" d="M1703.1 639.7c-49.5-30-158.5-84.3-300.9-84.3"/>
        <path class="st1" d="M216.9 459.9c44.7 9.4 105.7-10.5 170.3-21.4 43.7-7.3 89-10.5 131.9 2.4"/>
        <path class="st1" d="M216.9 1036.5c24.8.9 42.2 2.8 42.2 2.8"/>
        <path class="st1" d="M675 1092.4s15.8 181.3-231.5 213.2c-97.9 12.6-140.3-19.2-178.6-62.6-15.5-17.5-30.3-37-47.9-56.1-.2-.2-.5-.5-.7-.8"/>
        <path class="st1" d="M1703.1 1186.9l-.7-.7c-51-55.2-133.3-27.5-160.2-61.1-5.6-7-8.8-16.7-8.8-30.3 0-22.4 17-36.6 41.4-45.3 37-13.4 91.1-14.3 128.3-13"/>
    </g>
</svg>
