<svg xmlns="http://www.w3.org/2000/svg" viewBox="0 0 1920 1920">
    <style>
        .st0{fill:#fff}.st1{stroke:#231f20;stroke-width:50;stroke-linecap:round;stroke-linejoin:round;stroke-miterlimit:10}.st1,.st2{fill:none}
    </style>
    <path class="st0" d="M1628.8 1257.2h74.3v297.2h-74.3V1703h-297.2v-148.6H1183v-445.8h148.6v148.6h297.2zm74.3-743V216.9h-371.5v297.2H1183V216.9h-148.6v297.2H885.7v148.6h148.6v445.9h148.6V640.4h148.6v468.2h297.2V960h74.3V662.8h-74.3V514.2h74.4zm-668.8 891.6H737.1v148.6h445.8v-148.6h-148.6zm-148.6-743V514.2H737.1v148.6H588.5V960h297.2V662.8zm0-371.5v-74.4H588.5v297.3h297.2V291.3zM588.5 1405.8H291.2V1703h148.6v-148.6H737v-148.6H588.5zm148.6-297.2V960H588.5v297.2H439.9v148.6h297.2v-297.2zM439.9 662.8h-223V960h74.3V811.4h297.2V662.8H439.9zm0 297.2h-223v297.2h222.9V960zm0-668.7v-74.4h-223v297.2h74.3v148.6h148.6V291.3z" id="Layer_26"/>
    <path class="st0" d="M1703.1 1554.4V1703h-74.3v-148.6h74.3zM1628.8 960v297.2h74.3V960h-74.3zm0-445.8v148.6h74.3V514.2h-74.3zm-148.7 594.4v148.6h148.6v-148.6h-148.6zm-148.6 0v148.6h148.6v-148.6h-148.6zm-148.6 445.8V1703h148.6v-148.6h-148.6zm0-914v468.2h148.6V640.4h-148.6zm148.6-349.1h-148.6v222.8h148.6V291.3zm-148.6-74.4v74.4h148.6v-74.4h-148.6zm-148.6 1337.5V1703h148.6v-148.6h-148.6zm0-297.2v148.6h148.6v-148.6h-148.6zm0-148.6v148.6h148.6v-148.6h-148.6zm-148.6 445.8V1703h148.6v-148.6H885.7zm0-297.2v148.6h148.6v-148.6H885.7zM1034.3 960V811.4H885.7v445.8h148.6V960zM885.7 662.8v148.6h148.6V662.8H885.7zm148.6-371.5H885.7v222.8h148.6V291.3zm-148.6-74.4v74.4h148.6v-74.4H885.7zM737.1 1554.4H588.5V1703h297.2v-148.6H737.1zm148.6-445.8H737.1v297.2h148.6v-297.2zM737.1 960v148.6h148.6V960H737.1zM588.5 514.2v148.6h148.6V514.2H588.5zM439.9 1554.4V1703h148.6v-148.6H439.9zm0-445.8v148.6h148.6v-148.6H439.9zm0-148.6v148.6h148.6V960H439.9zm0-148.6V960h148.6V811.4H439.9zm0-297.2v148.6h148.6V514.2H439.9zm0-222.9v222.9h148.6V291.3H439.9zm0-74.4v74.4h148.6v-74.4H439.9zM291.2 1257.2v148.6h148.6v-148.6H291.2zm0-445.8V960h148.6V811.4H291.2zm-74.3 743V1703h74.3v-148.6h-74.3zm74.3-297.2h-74.3v297.2h74.3v-297.2zm-74.3-743v148.6h74.3V514.2h-74.3z" id="Layer_27"/>
    <g id="STROKES">
        <path class="st1" d="M439.9 662.8V514.2h148.6"/>
        <path class="st1" d="M291.2 960V811.4h148.7"/>
        <path class="st1" d="M439.9 960V811.4h148.6"/>
        <path class="st1" d="M588.5 662.8V514.2h148.6"/>
        <path class="st1" d="M291.2 1554.4v-148.6"/>
        <path class="st1" d="M216.9 1554.4h74.3v148.7"/>
        <path class="st1" d="M439.9 960h148.6"/>
        <path class="st1" d="M439.9 1108.6h148.6"/>
        <path class="st1" d="M216.9 1257.2h74.3"/>
        <path class="st1" d="M439.9 1257.2V960h-223"/>
        <path class="st1" d="M1628.8 514.2h-148.7V316h148.7"/>
        <path class="st1" d="M1628.8 662.8V514.2h74.3"/>
        <path class="st1" d="M1703.1 662.8h-223"/>
        <path class="st1" d="M1480.1 811.4h148.7V960"/>
        <path class="st1" d="M1480.1 960h148.7"/>
        <path class="st1" d="M1480.1 1108.6h148.7"/>
        <path class="st1" d="M1480.1 1257.2h148.7"/>
        <path class="st1" d="M1628.8 1257.2v148.6h-148.7v148.6"/>
        <path class="st1" d="M1628.8 1703.1v-148.7h74.3"/>
        <path class="st1" d="M1703.1 960h-74.3v297.2h74.3"/>
        <path class="st1" d="M439.9 1405.8H291.2v-148.6h148.7"/>
        <path class="st1" d="M588.5 960v297.2H439.9v148.6h297.2"/>
        <path class="st1" d="M885.7 662.8h148.6v148.6"/>
        <path class="st1" d="M885.7 811.4V514.2H737.1v148.6H588.5V960h148.6"/>
        <path class="st1" d="M737.1 1108.6V960h148.6"/>
        <path class="st1" d="M1034.3 1108.6V811.4H885.7v297.2"/>
        <path class="st1" d="M885.7 1257.2v-148.6H737.1v297.2h148.6"/>
        <path class="st1" d="M1034.3 1405.8H885.7v-148.6h148.6"/>
        <path class="st1" d="M1034.3 1257.2v-148.6h148.6v148.6"/>
        <path class="st1" d="M1034.3 1257.2h148.6v148.6h-148.6z"/>
        <path class="st1" d="M1182.9 1703.1v-148.7"/>
        <path class="st1" d="M439.9 1703.1v-148.7h891.6v148.7"/>
        <path class="st1" d="M588.5 1554.4v148.7"/>
        <path class="st1" d="M885.7 1703.1v-148.7"/>
        <path class="st1" d="M1034.3 1554.4v148.7"/>
        <path class="st1" d="M737.1 1554.4v-148.6"/>
        <path class="st1" d="M1182.9 1554.4v-148.6"/>
        <path class="st1" d="M1182.9 291.3v-74.4"/>
        <path class="st1" d="M1331.5 216.9v74.4"/>
        <path class="st1" d="M439.9 291.3v-74.4"/>
        <path class="st1" d="M588.5 216.9v74.4"/>
        <path class="st1" d="M439.9 514.2V291.3h148.6v222.9"/>
        <path class="st1" d="M885.7 291.3v222.9h148.6V291.3"/>
        <path class="st1" d="M1034.3 216.9v74.4H885.7v-74.4"/>
        <path class="st1" d="M1182.9 291.3v222.9h148.6V291.3z"/>
        <path class="st1" d="M1182.9 640.4h148.6v468.2h-148.6z"/>
        <path class="st1" d="M1331.5 1108.6h148.6v148.6h-148.6z"/>
        <path class="st1" d="M1331.5 1405.8v-148.6"/>
        <path class="st1" d="M291.2 662.8V514.2h-74.3"/>
    </g>
</svg>
