<svg xmlns="http://www.w3.org/2000/svg" viewBox="0 0 1920 1920">
    <style>
        .st0{fill:#fff}.st1{stroke:#231f20;stroke-width:50;stroke-linecap:round;stroke-linejoin:round;stroke-miterlimit:10}.st1,.st2{fill:none}
    </style>
    <path class="st0" d="M1609.4 235.6c14.5 22.9 17.8 52.2 8.3 78.5-29.5 81-117.2-49.4-147.8-41.8-34.9 8.6-39.8 91-138.2 64.2-64-17.4-67.5-68.6-26.7-119.5h291.8c4.8 6.5 9 12.8 12.6 18.6zM410.9 1544.1c-10.2 29.5 26 52.9 48.8 31.5 46.7-43.8 91.5-98.4 39-109.1-45.6-9.2-72.5 33.3-87.8 77.6zm775.9-413.6c143.2-64.8 51.2-161.6 2.1-162.3-4.9-.1-10.1-.4-15.5-1-87-9.8-64-114.9-27.9-154.3 36.1-39.4-26.3-98.5-118.2-19.7s-168.7-3.3-241.9-46c-73.2-42.7-218.3 68.9-99 119.8 119.4 51 251.6 64 322.6 78.5 70.8 14.5 92.2 170.3 26.6 246.5-27.1 31.5-99.9 137 32.8 147.3 133.8 10.4 48.9-177.3 118.4-208.8zm220.3 495.8c-45.2 22-80.1 49.3-102.1 76.8h291.8c-36.6-50.9-104.7-118.2-189.7-76.8zm-124.3-456.1c-22.2 18.7-25.1 51.8-6.5 74 18.7 22.2 51.8 25.1 74 6.5 22.2-18.7 87.5-59.2 68.8-81.4-18.6-22.2-114.1-17.7-136.3.9zm-772.7 532.9h141.4c19.5-143.4 213.2-295.1 122.2-396.5-79.4-88.6-203 223-263.6 396.5zm-278.4-688.8c-4.9 5.2-9.9 10.2-14.7 14.9v184.9c65.8 9.4 93.3 20.4 126.7-24.2 39.4-52.5-78.8-67.3-18.1-107.9 60.7-40.7 16.4-184.2-93.9-67.7zm185.9-110.7c0 23.8 33.9 43.1 75.6 43.1s75.6-19.3 75.6-43.1-33.9-43.1-75.6-43.1-75.6 19.3-75.6 43.1zM216.9 707.1v151.3c46.2-37.4 151-50.1 209.3-104.5 70.2-65.7-62-144.4-180.2-64-9.7 6.6-19.4 12.3-29.1 17.2zm261.9 428.3c-21.8 32.8-122.2 179.2-8.9 183 113.3 3.8 81.7-51.8 172.4-133.3s233.9 81.5 285.9 5.2c52.1-76.3 15.3-96.8 15.3-96.8-215.2-113.3-316-181.6-464.7 41.9zm-261.9 184.1V1591c132.9-36.5 158.7-188.8 142.3-224.9-12.4-27.5-83.6-84.3-142.3-46.6z" id="Layer_28"/>
    <path class="st0" d="M651.6 216.9H1305c-40.8 50.9-37.3 102.1 26.7 119.5 98.5 26.8 103.3-55.6 138.2-64.2 30.6-7.6 118.3 122.8 147.8 41.8 9.6-26.3 6.3-55.6-8.3-78.5-3.7-5.8-7.9-12.1-12.6-18.6H1703v1486.2h-106.2c-36.6-50.9-104.8-118.1-189.7-76.8-45.2 22-80.1 49.3-102.1 76.8H651.6c19.5-143.4 213.2-295.1 122.2-396.5-79.5-88.6-203.1 223.1-263.6 396.5H216.9V1591c132.9-36.5 158.7-188.8 142.3-224.9-12.5-27.4-83.6-84.2-142.3-46.6v-105.4c65.8 9.4 93.3 20.4 126.7-24.2 39.4-52.5-78.8-67.3-18.1-107.9 60.7-40.6 16.4-184.2-93.9-67.7-4.9 5.2-9.9 10.2-14.7 14.9V858.4c46.2-37.4 151-50.1 209.3-104.5 70.2-65.7-62-144.4-180.2-64-9.7 6.6-19.4 12.3-29.1 17.2V216.9h434.7zm375.8 576.4c-91.9 78.8-168.7-3.3-241.9-46-73.2-42.7-218.3 68.9-99 119.8C805.8 918 938 931 1009 945.5c70.8 14.5 92.2 170.3 26.6 246.5-27.1 31.5-99.9 137 32.8 147.3 133.7 10.4 48.8-177.4 118.4-208.9 143.2-64.8 51.2-161.6 2.1-162.3-4.9-.1-10.1-.4-15.5-1-87-9.8-64-114.9-27.9-154.3 36.2-39.2-26.2-98.3-118.1-19.5zm322.9 457.4c22.2-18.7 87.5-59.2 68.8-81.4-18.7-22.2-114.2-17.7-136.4.9-22.2 18.7-25.1 51.8-6.5 74 18.7 22.3 51.9 25.2 74.1 6.5zm-422.1-60.4c52.1-76.3 15.3-96.8 15.3-96.8-215.2-113.3-316-181.6-464.7 41.9-21.8 32.8-122.2 179.2-8.9 183 113.3 3.8 81.7-51.8 172.4-133.3s233.8 81.5 285.9 5.2zM568.8 903.6c0-23.8-33.9-43.1-75.6-43.1s-75.6 19.3-75.6 43.1 33.9 43.1 75.6 43.1 75.6-19.3 75.6-43.1zm-109.2 672c46.7-43.8 91.5-98.4 39-109.1-45.5-9.2-72.4 33.2-87.8 77.6-10.2 29.6 26.1 52.9 48.8 31.5z" id="Layer_29"/>
    <g id="STROKES">
        <path class="st1" d="M956.1 1703.1c-52.4-49.7-116.3-135.4-45.2-213 108.3-118.3 95.2 89 174 57.3s83.9-256.2 192.9-198.6"/>
        <path class="st1" d="M943.5 1093.5s36.8 20.4-15.3 96.8c-52.1 76.3-195.2-86.7-285.9-5.2s-59.1 137.1-172.4 133.3c-113.3-3.8-12.9-150.2 8.9-183 148.7-223.5 249.5-155.2 464.7-41.9z"/>
        <path class="st1" d="M925.5 348.3s134.9 177.8 10.1 184.2c-124.7 6.4-100.1 208.3 49.2 159 149.3-49.2 172.4-432.4 172.4-432.4"/>
        <path class="st1" d="M216.9 545c52.8-12.7 104.9 44.8 165.3 15.2 80.4-39.4 37.8-90.3-26.3-100.1s36.1-110 36.1-110"/>
        <path class="st1" d="M216.9 1029.2c4.9-4.7 9.8-9.7 14.7-14.9 110.3-116.5 154.6 27 93.9 67.7-60.7 40.6 57.4 55.4 18.1 107.9-33.4 44.6-61 33.6-126.7 24.2"/>
        <path class="st1" d="M216.9 1319.5c58.7-37.7 129.9 19.1 142.3 46.6 16.4 36.1-9.4 188.4-142.3 224.9"/>
        <path class="st1" d="M216.9 707.1c9.6-4.9 19.4-10.6 29.1-17.2 118.2-80.4 250.4-1.6 180.2 64-58.2 54.5-163 67.1-209.3 104.5"/>
        <path class="st1" d="M1392.1 557.6s70.1-138.6 203.7-94.1c44.3 14.8 79.5 6.4 107.3-13.9"/>
        <path class="st1" d="M1498.7 637.3s79.2 50.9 151.4-50.9c18-25.3 35.5-37.2 53-41.4"/>
        <path class="st1" d="M1579.2 1202.1c-51.2 28.7-40.2 87.1-40.2 87.1"/>
        <path class="st1" d="M1703.1 1214.1c-11.7-1.7-24.7-3.3-39.1-4.5"/>
        <path class="st1" d="M1511 1124.2s88 6 192.1-95"/>
        <path class="st1" d="M1498.7 793.3s80.8 4.9 84.1 78.8c.4 9.1-.6 17.2-2.6 24.5"/>
        <path class="st1" d="M1703.1 858.4c-9.5 7.7-16.5 16.4-20.2 26.8-15.8 45-36.5 80.9-100 116.5"/>
        <path class="st1" d="M1624.4 731.7c24.6-3.3 51.3-10.7 78.6-24.6"/>
        <path class="st1" d="M1498.7 1387.5s97.2 144.6 154.7 0c13.8-34.8 31.1-56.1 49.7-68.1"/>
        <path class="st1" d="M1189 968.2c-4.9-.1-10.1-.4-15.5-1-87-9.8-64-114.9-27.9-154.3 36.1-39.4-26.3-98.5-118.2-19.7s-168.7-3.3-241.9-46c-73.2-42.7-218.3 68.9-99 119.8 119.3 51 251.5 64 322.5 78.5 70.8 14.5 92.2 170.3 26.6 246.5-27.1 31.5-99.9 137 32.8 147.3 133.7 10.4 48.8-177.4 118.4-208.9 143.2-64.7 51.3-161.6 2.2-162.2z"/>
        <path class="st1" d="M532.6 366.7s171.1 44 107.6 89.9-86.1-59.5-125.5-19c-39.4 40.6-25.7 107.2 50.4 138.9 76.1 31.7-46.8 54.5-8.2 100.3 38.5 45.8 135.6 63 175.5-115.6s28.5-277.5 99.5-303.2"/>
        <path class="st1" d="M1350.3 1250.7c-22.2 18.7-55.4 15.8-74-6.5-18.7-22.2-15.8-55.4 6.5-74 22.2-18.7 117.7-23.1 136.4-.9 18.6 22.3-46.7 62.8-68.9 81.4z"/>
        <path class="st1" d="M1367.7 440.8s-177.2 0-94.4 212.8c38.7 99.4 190.8 170 138.7 316"/>
        <ellipse class="st1" cx="493.2" cy="903.6" rx="75.6" ry="43.1"/>
        <path class="st1" d="M651.6 216.9c-3.8 27.6-1.1 55 11.4 81.6"/>
        <path class="st1" d="M474.2 325.5s13.7-45 35.9-108.6"/>
        <path class="st1" d="M1007.7 259.1s-24.2-16.2-51.6-42.2"/>
        <path class="st1" d="M1305 216.9c-40.8 50.9-37.3 102.1 26.7 119.5 98.5 26.8 103.3-55.6 138.2-64.2 30.6-7.6 118.3 122.8 147.8 41.8 9.6-26.3 6.3-55.6-8.3-78.5-3.7-5.8-7.9-12.1-12.6-18.6"/>
        <path class="st1" d="M1596.8 1703.1c-36.6-50.9-104.8-118.1-189.7-76.8-45.2 22-80.1 49.3-102.1 76.8"/>
        <path class="st1" d="M1328.1 1438.9s-65.7 15.6-76.8 68.4c-11.1 52.8-28.7 132.9-106.9 129"/>
        <path class="st1" d="M1363.3 1536.9s10.8-76.6 59.1-78.5"/>
        <path class="st1" d="M510.1 1703.1c60.6-173.5 184.2-485.1 263.6-396.5 91 101.4-102.7 253.2-122.2 396.5"/>
        <path class="st1" d="M459.6 1575.6c-22.8 21.4-59-2-48.8-31.5 15.4-44.3 42.2-86.8 87.8-77.6 52.5 10.7 7.7 65.3-39 109.1z"/>
        <path class="st1" d="M216.9 449.6c76.5-56 96.4-202.4 96.4-202.4"/>
        <path class="st2" d="M1703.1 1703.1H216.9V216.9h1486.2v1102.6z"/>
    </g>
</svg>
