<svg xmlns="http://www.w3.org/2000/svg" viewBox="0 0 1920 1920">
    <style>
        .st0{fill:#fff}.st1{fill:#ff9e80}.st2{fill:none;stroke:#231f20;stroke-width:50;stroke-linecap:round;stroke-linejoin:round;stroke-miterlimit:10}
    </style>
    <path class="st0" d="M1614.8 1305.2c8.3 31.4-10.6 63.8-42 72.1l-346.6 91.4-266.2-70.2 578.2-152.5c31.4-8.3 63.8 10.6 72.1 42l4.5 17.2zm-921 163.5l-346.6 91.4c-31.4 8.3-50.3 40.7-42 72.1l4.5 17.2c8.3 31.4 40.7 50.3 72.1 42L960 1538.9l-266.2-70.2z" id="Layer_7"/>
    <path class="st0" d="M1572.8 1560.1c31.4 8.3 50.3 40.7 42 72.1l-4.5 17.2c-8.3 31.4-40.7 50.3-72.1 42L960 1538.9l-266.2-70.2-346.6-91.4c-31.4-8.3-50.3-40.7-42-72.1l4.5-17.2c8.3-31.4 40.7-50.3 72.1-42L960 1398.5l266.2 70.2 7.6 2 339 89.4z" id="Layer_8"/>
    <path class="st0" d="M1425.8 763.7c-9.2-2.1-33.4 17-33.4 278.9 0 322.9-432.3 329.4-432.3 329.4s-432.3-6.5-432.3-329.4c0-261.8-24.3-281-33.4-278.9 14.5-7.8 71.8-27.8 125.7 105.9 0 0 48.4-311.3-73.8-387.4 0 0 200.7 13.8 237.5 272.1 0 0 20.8-341.3-39.2-445.1l159.1 267.5L960 216.9l45.1 242.2 122-159.1c-60 103.8 9.2 454.3 9.2 454.3 36.9-258.3 237.6-272.1 237.6-272.1-122.2 76.1-73.8 387.4-73.8 387.4 53.9-133.7 111.2-113.7 125.7-105.9zm-268.6 472.7C1304 1151.6 1304 960 1304 960c-35.4 57.6-162.7 73.3-162.7 73.3-15.5-17.7 22.2-166.2 22.2-166.2-26.6 15.5-145.6 113.8-145.6 113.8 13.3-135.2-129.5-285.6-129.5-285.6 23.2 130.9 9.5 266.9-18.1 282.4-27.5 15.5-155.9-151.3-155.9-151.3-6.9 46.7 17.8 178.1 17.7 214.4 0 0-74-20.9-100.6-80.8 0 0-62.3 180.5 154.9 279.8 6.1 2.8 11.7 6.8 18.2 8.6 108 29.2 242.7 51.5 352.6-12z" id="Layer_9"/>
    <path class="st0" d="M1304.1 960s0 191.7-146.8 276.4c-109.9 63.5-244.6 41.2-352.5 12-6.5-1.8-12.1-5.8-18.2-8.6-217.3-99.3-155-279.8-155-279.8 26.6 59.8 100.6 80.8 100.6 80.8.1-36.2-24.6-167.7-17.7-214.4 0 0 128.3 166.8 155.9 151.3 27.5-15.5 41.3-151.4 18.1-282.4 0 0 142.8 150.4 129.5 285.6 0 0 119-98.3 145.6-113.8 0 0-37.7 148.4-22.2 166.2 0 0 127.2-15.7 162.7-73.3z" id="Layer_10"/>
    <g id="STROKES">
        <g id="XMLID_1_">
            <path class="st2" d="M960 1538.9l-578.2 152.5c-31.4 8.3-63.8-10.6-72.1-42l-4.5-17.2c-8.3-31.4 10.6-63.8 42-72.1l346.6-91.4"/>
            <path class="st2" d="M960 1398.5l578.2-152.5c31.4-8.3 63.8 10.6 72.1 42l4.5 17.2c8.3 31.4-10.6 63.8-42 72.1l-346.6 91.4"/>
            <path class="st2" d="M1233.8 1470.7l-7.6-2-266.2-70.2L381.8 1246c-31.4-8.3-63.8 10.6-72.1 42l-4.5 17.2c-8.3 31.4 10.6 63.8 42 72.1l346.6 91.4 266.2 70.2 578.2 152.5c31.4 8.3 63.8-10.6 72.1-42l4.5-17.2c8.3-31.4-10.6-63.8-42-72.1l-339-89.4"/>
            <path class="st2" d="M494.2 763.7c14.5-7.8 71.8-27.8 125.7 105.9 0 0 48.4-311.3-73.8-387.4 0 0 200.7 13.8 237.5 272.1 0 0 20.8-341.3-39.2-445.1l159.1 267.5L960 216.9"/>
            <path class="st2" d="M494.2 763.7c-2.1.5-3.5 2.1-3.5 2.1s1.3-.9 3.5-2.1z"/>
            <path class="st2" d="M960 1372s-432.3-6.5-432.3-329.4c0-261.8-24.3-281-33.4-278.9"/>
            <path class="st2" d="M1425.8 763.7c-14.5-7.8-71.8-27.8-125.7 105.9 0 0-48.4-311.3 73.8-387.4 0 0-200.7 13.8-237.6 272.1 0 0-69.2-350.5-9.2-454.3l-122 159.1L960 216.9"/>
            <path class="st2" d="M1425.8 763.7c2.1.5 3.5 2.1 3.5 2.1s-1.3-.9-3.5-2.1z"/>
            <path class="st2" d="M960 1372s432.3-6.5 432.3-329.4c0-261.8 24.3-281 33.4-278.9"/>
            <path class="st2" d="M786.5 1239.8c6.1 2.8 11.7 6.8 18.2 8.6 107.9 29.2 242.6 51.4 352.5-12C1304 1151.6 1304 960 1304 960c-35.4 57.6-162.7 73.3-162.7 73.3-15.5-17.7 22.2-166.2 22.2-166.2-26.6 15.5-145.6 113.8-145.6 113.8 13.3-135.2-129.5-285.6-129.5-285.6 23.2 130.9 9.5 266.9-18.1 282.4-27.5 15.5-155.9-151.3-155.9-151.3-6.9 46.7 17.8 178.1 17.7 214.4 0 0-74-20.9-100.6-80.8.1 0-62.2 180.5 155 279.8z"/>
        </g>
    </g>
</svg>
