<svg xmlns="http://www.w3.org/2000/svg" viewBox="0 0 1920 1920">
    <style>
        .st0{fill:#fff}.st1{fill:#ff9e80}.st2{fill:none;stroke:#231f20;stroke-width:50;stroke-linecap:round;stroke-linejoin:round;stroke-miterlimit:10}
    </style>
    <path class="st0" d="M1447.4 789.2c-9.6-2.2-35 18-35 291.9 0 233-215.2 308.6-348.7 333L960 1425.8s-452.5-6.8-452.5-344.7c0-273.9-25.4-294.1-35-291.9 15.1-8.2 75.2-29.1 131.5 110.9 0 0 50.7-325.8-77.2-405.5 0 0 210 14.5 248.6 284.8 0 0 21.7-357.2-41-465.8l166.5 280 59-376.5 47.2 253.4L1134.8 304c-62.8 108.6 9.7 475.5 9.7 475.5 38.6-270.3 248.6-284.8 248.6-284.8-127.9 79.6-77.2 405.5-77.2 405.5 56.4-140.1 116.4-119.2 131.5-111z" id="Layer_2"/>
    <g id="STROKES">
        <g id="XMLID_1_">
            <path class="st2" d="M913.7 1450.5l603.9 213"/>
            <path class="st2" d="M448.8 1286.6l422.8 149.1 42.1 14.8"/>
            <path class="st2" d="M913.7 1450.5l-503.9 229.4"/>
            <path class="st2" d="M1562.3 1358l-498.6 56.1-103.7 11.7-88.4 9.9-513.9 57.8"/>
            <path class="st2" d="M472.5 789.2c15.1-8.2 75.2-29.1 131.5 110.9 0 0 50.7-325.8-77.2-405.5 0 0 210 14.5 248.6 284.8 0 0 21.7-357.2-41-465.8l166.5 280 59-376.5"/>
            <path class="st2" d="M472.5 789.2c-2.2.5-3.6 2.2-3.6 2.2s1.3-1 3.6-2.2z"/>
            <path class="st2" d="M960 1425.8s-452.5-6.8-452.5-344.7c0-273.9-25.4-294.1-35-291.9"/>
            <path class="st2" d="M1447.4 789.2c-15.1-8.2-75.1-29.1-131.5 110.9 0 0-50.7-325.8 77.2-405.5 0 0-210 14.5-248.6 284.8 0 0-72.4-366.9-9.7-475.5l-127.7 166.5L960 216.9"/>
            <path class="st2" d="M1447.4 789.2c2.2.5 3.6 2.2 3.6 2.2s-1.2-1-3.6-2.2z"/>
            <path class="st2" d="M960 1425.8s43.6-.7 103.7-11.7c133.6-24.5 348.7-100 348.7-333 0-273.9 25.4-294.1 35-291.9"/>
            <path class="st2" d="M1058.7 1663.5l-145-213-133.9 252.6"/>
            <path class="st2" d="M913.7 1450.5l537.4 43"/>
        </g>
    </g>
</svg>
