<svg xmlns="http://www.w3.org/2000/svg" viewBox="0 0 1920 1920">
    <style>
        .st0{fill:#fff}.st1{fill:#ff9e80}.st2{fill:none;stroke:#231f20;stroke-width:50;stroke-linecap:round;stroke-linejoin:round;stroke-miterlimit:10}
    </style>
    <path class="st0" d="M874.5 1362c-20.1-5.2-39.2-12.7-57.1-22.3-49.3-26.5-88.9-68.8-112-120.2-14.3-31.9-22.3-67.2-22.3-104.4 0 0-21.1-408.2-183.8-546.4 0 0 195.9 8.9 255 219.4 1.4 7.2 2.9 11 2.9 11-.9-3.7-1.9-7.4-2.9-11-5.8-29.5-10.4-117.1 94.4-243 130.3-156.6 11.5-316.5 11.5-316.5s217.2 29 222.6 195.7c8.8 273.2-57.2 414.6 89.1 307.1 146.2-107.5 215.8-115.2 320.2-96.8 0 0-212.4 171.8-239.4 336.5-23.6 144-76.2 233.7-76.2 233.7-1.9 5-3.9 10-6.1 14.8-23.7 52.5-64.6 95.6-115.6 121.9-.6.3-1.2.6-1.9.9-17.6 8.9-36.4 15.8-56 20.5-18.9 4.5-38.7 6.8-58.9 6.8-21.9.3-43.2-2.5-63.5-7.7zm283.3-490l-96.4 76.3c-33.5 19-58.3 6.4-74.2-28.6-53.4-117.4-57.3-259.5-57.3-259.5-101.2 150-58.9 353.2-58.9 353.2l-111.8-92.1c-17.4 113.4 29.7 196.9 60.8 248.8 45.3 75.6 148.9 89 212.5 28.1 125.4-120.1 125.3-326.2 125.3-326.2z" id="Layer_3"/>
    <path class="st0" d="M1061.4 948.2l96.4-76.3s.1 206.2-125.3 326.1c-63.7 60.9-167.2 47.5-212.5-28.1-31.1-51.9-78.1-135.4-60.8-248.8l111.8 92.1S828.8 810 929.9 660c0 0 3.9 142.1 57.3 259.5 15.9 35.1 40.7 47.7 74.2 28.7z" id="Layer_4"/>
    <path class="st0" d="M1225.3 1293.5c0-50.4 34.3-92.9 80.8-105.3 9-2.4 18.4-3.7 28.2-3.7 60.2 0 109 48.8 109 109s-48.8 109-109 109c-8.5 0-16.7-1-24.6-2.8-48.4-11.1-84.4-54.5-84.4-106.2zm89.8 164.5c-.1 0-.2-.1-.2-.1-45.1-18.7-98.8-5.1-129.2 35.9-30 40.6-27.7 95.1 2.3 132.8l.1.1c5.8 7.2 12.5 13.8 20.3 19.6 48.4 35.8 116.6 25.7 152.5-22.7 35.8-48.4 25.7-116.6-22.7-152.5-7.3-5.4-15.1-9.7-23.1-13.1zm-379.5 15.3c-44 0-81.9 26.1-99.1 63.6-6.3 13.8-9.9 29.2-9.9 45.4 0 60.2 48.8 109 109 109s109-48.8 109-109c0-16.2-3.5-31.6-9.9-45.4-17.2-37.5-55.1-63.6-99.1-63.6zm-380.7-16.5l-2.5 1.1c-6.7 3.1-13.2 6.9-19.4 11.5-48.4 35.8-58.6 104.1-22.7 152.5 35.8 48.4 104.1 58.6 152.5 22.7l30.6-35c19.9-36.2 18.3-82.1-7.9-117.5-30.7-41.4-85.2-54.8-130.6-35.3zm8.9-270.7l-3.3-.8c-7.6-1.7-15.5-2.6-23.7-2.6-60.2 0-109 48.8-109 109s48.8 109 109 109c7.6 0 15.1-.8 22.2-2.3l3.8-.9c47.6-11.7 82.9-54.6 82.9-105.9 0-50.8-34.7-93.5-81.8-105.6.1.2 0 .2-.1.1z" id="Layer_5"/>
    <g id="Layer_6">
        <path class="st0" d="M1306.1 1188.2c-46.5 12.4-80.8 54.9-80.8 105.3 0 51.7 36 95.1 84.4 106.2l-.1.3-254.8-58.3c51-26.4 91.9-69.4 115.6-121.9l.6.3 135.1-31.9z"/>
        <path class="st0" d="M1052.9 1342.6l261.9 115.3c-45.1-18.7-98.8-5.1-129.2 35.9-30 40.6-27.7 95.1 2.3 132.8l-179.1-208.3-12-55.2c19.7-4.6 38.5-11.5 56.1-20.5z"/>
        <path class="st0" d="M1008.9 1418.4l25.8 118.5c-17.2-37.5-55.1-63.6-99.1-63.6-44 0-81.9 26.1-99.1 63.6l26.3-120.8 11.8-54.1c20.3 5.2 41.5 8 63.4 8 20.3 0 40-2.4 58.9-6.8l12 55.2z"/>
        <path class="st0" d="M874.5 1362l-11.8 54.1-10.9 12.5-158.5 181.1c19.9-36.2 18.3-82.1-7.9-117.5-30.7-41.4-85.2-54.8-130.6-35.3l262.5-117.1c18 9.5 37.1 17.1 57.2 22.2z"/>
        <path class="st0" d="M817.4 1339.7L563 1397.6c47.6-11.7 82.9-54.6 82.9-105.9 0-50.8-34.7-93.5-81.8-105.6l141.3 33.4c23.1 51.4 62.7 93.7 112 120.2z"/>
    </g>
    <g id="STROKES">
        <g id="XMLID_1_">
            <path class="st1" d="M559.1 1398.5l3.8-.9c-1.2.4-2.5.6-3.8.9z"/>
            <path class="st2" d="M1034.7 1536.9c6.3 13.8 9.9 29.2 9.9 45.4 0 60.2-48.8 109-109 109s-109-48.8-109-109c0-16.2 3.5-31.6 9.9-45.4 17.2-37.5 55.1-63.6 99.1-63.6 44 0 81.9 26.1 99.1 63.6z"/>
            <path class="st2" d="M836.5 1536.9l26.3-120.8 11.7-54.1"/>
            <path class="st2" d="M1034.9 1537.8l-.2-.9-25.8-118.5-12-55.3"/>
            <path class="st2" d="M559.1 1398.5l3.9-.9 254.4-57.9"/>
            <path class="st2" d="M817.4 1339.7c-49.3-26.5-88.9-68.8-112-120.2-14.3-31.9-22.3-67.2-22.3-104.4"/>
            <path class="st2" d="M1176.5 1204.9c-1.9 5-3.9 10-6.1 14.8-23.7 52.5-64.6 95.6-115.6 121.9-.6.3-1.2.6-1.9.9-17.6 8.9-36.4 15.8-56 20.5-18.9 4.5-38.7 6.8-58.9 6.8-21.9 0-43.2-2.8-63.4-8-20.1-5.2-39.2-12.7-57.1-22.3"/>
            <path class="st2" d="M754.4 788.1c-5.8-29.5-10.4-117.1 94.4-243 130.3-156.6 11.5-316.5 11.5-316.5s217.2 29 222.6 195.7c8.8 273.2-57.2 414.6 89.1 307.1 146.2-107.5 215.8-115.2 320.2-96.8 0 0-212.4 171.8-239.4 336.5-23.6 144-76.2 233.7-76.2 233.7"/>
            <path class="st2" d="M754.4 788.1c1 3.6 2 7.2 2.9 11 0 0-1.5-3.8-2.9-11z"/>
            <path class="st2" d="M683.2 1115.2S662.1 707 499.4 568.8c0 0 195.9 8.9 255 219.4"/>
            <path class="st2" d="M1061.4 948.2l96.4-76.3s.1 206.2-125.3 326.1c-63.7 60.9-167.2 47.5-212.5-28.1-31.1-51.9-78.1-135.4-60.8-248.8l111.8 92.1S828.8 810 929.9 660c0 0 3.9 142.1 57.3 259.5 15.9 35.1 40.7 47.7 74.2 28.7z"/>
            <path class="st2" d="M564.2 1186.2c47 12.1 81.8 54.8 81.8 105.6 0 51.2-35.3 94.2-82.9 105.9-1.3.3-2.5.6-3.8.9-7.2 1.5-14.6 2.3-22.2 2.3-60.2 0-109-48.8-109-109s48.8-109 109-109c8.1 0 16 .9 23.7 2.6 1.1.2 2.2.5 3.3.8"/>
            <path class="st2" d="M560.6 1185.4l3.3.8c.1 0 .2.1.3.1l141.3 33.4"/>
            <path class="st2" d="M693.4 1609.6c-7.3 13.3-17.6 25.3-30.6 35-48.4 35.8-116.6 25.7-152.5-22.7-35.8-48.4-25.7-116.6 22.7-152.5 6.2-4.6 12.7-8.4 19.4-11.5.8-.4 1.6-.8 2.5-1.1 45.4-19.5 99.9-6.1 130.6 35.3 26.2 35.4 27.8 81.3 7.9 117.5"/>
            <path class="st2" d="M552.4 1457.9l2.5-1.1 262.5-117.1"/>
            <path class="st2" d="M662.8 1644.6l30.6-35 158.5-181.1 10.9-12.5"/>
            <path class="st2" d="M1311 1400.3l-1.4-.3-254.8-58.3"/>
            <path class="st2" d="M1309.6 1399.7c7.9 1.8 16.2 2.8 24.6 2.8 60.2 0 109-48.8 109-109s-48.8-109-109-109c-9.8 0-19.2 1.3-28.2 3.7-46.5 12.4-80.8 54.9-80.8 105.3.1 51.7 36.1 95.1 84.4 106.2z"/>
            <path class="st2" d="M1306.1 1188.2L1171 1220"/>
            <path class="st2" d="M1314.9 1457.9c-45.1-18.7-98.8-5.1-129.2 35.9-30 40.6-27.7 95.1 2.3 132.8"/>
            <path class="st2" d="M1188.1 1626.7c5.8 7.2 12.5 13.8 20.3 19.6 48.4 35.8 116.6 25.7 152.5-22.7 35.8-48.4 25.7-116.6-22.7-152.5-7.3-5.4-15-9.8-23-13.1"/>
            <path class="st2" d="M1315.1 1458c-.1 0-.2-.1-.2-.1L1053 1342.6"/>
            <path class="st2" d="M1188.1 1626.7s-.1 0 0 0l-179.2-208.4"/>
        </g>
    </g>
</svg>
