<svg xmlns="http://www.w3.org/2000/svg" viewBox="0 0 1920 1920">
    <style>
        .st0{fill:#fff}.st1{fill:none;stroke:#231f20;stroke-width:50;stroke-linecap:round;stroke-linejoin:round;stroke-miterlimit:10}
    </style>
    <path class="st0" d="M1354.8 1567c32.6 0 59.2 26.6 59.2 59.2 0 16.3-6.7 31.1-17.4 41.8-10.7 10.7-25.5 17.4-41.8 17.4H565.2c-32.6 0-59.2-26.7-59.2-59.2 0-16.3 6.7-31.1 17.4-41.8 10.7-10.7 25.5-17.4 41.8-17.4h789.6z" id="Layer_4"/>
    <path class="st0" d="M1205.3 1228v339H713v-372.6c5.6 2 11.7 3.1 17.9 3.1h5.7c29.5 0 53.7-24.2 53.7-53.7V942.4c0-29.5 24.2-53.7 53.7-53.7h5.7c29.5 0 53.7 24.2 53.7 53.7v234.5c0 29.5 24.2 53.7 53.7 53.7h5.7c29.5 0 53.7-24.2 53.7-53.7V914.8c0-29.5 24.2-53.7 53.7-53.7h5.7c29.5 0 53.7 24.2 53.7 53.7v262.1c0 29.5 24.2 53.7 53.7 53.7h5.7c5.6 0 11.2-.9 16.3-2.6z" id="Layer_5"/>
    <path class="st0" d="M1205.3 673.9V1228c-5.2 1.7-10.7 2.6-16.5 2.6h-5.7c-29.5 0-53.7-24.2-53.7-53.7V914.8c0-29.5-24.2-53.7-53.7-53.7h-5.7c-29.5 0-53.7 24.2-53.7 53.7v262.1c0 29.5-24.2 53.7-53.7 53.7h-5.7c-29.5 0-53.7-24.2-53.7-53.7V942.4c0-29.5-24.2-53.7-53.7-53.7H844c-29.5 0-53.7 24.2-53.7 53.7v201.4c0 29.5-24.2 53.7-53.7 53.7H731c-6.3 0-12.3-1.1-17.9-3.1V673.9c0-29 23.7-52.6 52.6-52.6h387c29 0 52.6 23.6 52.6 52.6z" id="Layer_6"/>
    <path class="st0" d="M959.9 540H957c-69.6-1.4-114.8-74.2-86.4-137.8l80.2-179.8c3.2-7.2 13.5-7.2 16.8 0l80.2 179.8c28.4 63.6-16.8 136.4-86.5 137.8h-1.4z" id="Layer_7"/>
    <g id="STROKES">
        <g id="XMLID_1_">
            <path class="st1" d="M903.4 942.4c0-29.5-24.2-53.7-53.7-53.7H844c-29.5 0-53.7 24.2-53.7 53.7v201.4c0 29.5-24.2 53.7-53.7 53.7H731c-6.3 0-12.3-1.1-17.9-3.1"/>
            <path class="st1" d="M903.4 942.4v234.5c0 29.5 24.2 53.7 53.7 53.7h5.7c29.5 0 53.7-24.2 53.7-53.7V914.8c0-29.5 24.2-53.7 53.7-53.7h5.7c29.5 0 53.7 24.2 53.7 53.7v262.1c0 29.5 24.2 53.7 53.7 53.7h5.7c5.7 0 11.3-.9 16.5-2.6"/>
            <path class="st1" d="M713 1567V673.9c0-29 23.7-52.6 52.6-52.6h387c29 0 52.6 23.7 52.6 52.6V1567"/>
            <path class="st1" d="M959.9 610.2V430.1"/>
            <path class="st1" d="M1047.8 402.2l-80.2-179.8c-3.2-7.2-13.5-7.2-16.8 0l-80.2 179.8C842.2 465.8 887.4 538.6 957 540h4.3c69.7-1.5 114.9-74.2 86.5-137.8z"/>
            <path class="st1" d="M1205.3 1567h149.4c32.6 0 59.2 26.6 59.2 59.2 0 16.3-6.7 31.1-17.4 41.8-10.7 10.7-25.5 17.4-41.8 17.4H565.2c-32.6 0-59.2-26.7-59.2-59.2 0-16.3 6.7-31.1 17.4-41.8 10.7-10.7 25.5-17.4 41.8-17.4h640.1z"/>
        </g>
    </g>
</svg>
