<svg xmlns="http://www.w3.org/2000/svg" viewBox="0 0 1920 1920">
    <style>
        .st0{fill:#fff}.st1{fill:none;stroke:#231f20;stroke-width:50;stroke-linecap:round;stroke-linejoin:round;stroke-miterlimit:10}
    </style>
    <path class="st0" d="M960 614.1c148.4 0 268.6 59.7 268.6 133.4V1626c0 42.6-34.5 77.1-77.1 77.1h-383c-42.6 0-77.1-34.5-77.1-77.1V747.5c0-73.7 120.2-133.4 268.6-133.4z" id="Layer_1"/>
    <path class="st0" d="M960 517.6c-30.9 0-61.9-9.9-84-29.8-14.7-13.2-25.4-30.6-25.4-53.5 0-73.2 109.4-217.4 109.4-217.4s109.4 144.1 109.4 217.4c0 22.9-10.7 40.3-25.4 53.5-22.1 19.9-53.1 29.8-84 29.8z" id="Layer_3"/>
    <g id="STROKES">
        <g id="XMLID_1_">
            <path class="st1" d="M1147.6 765.6c0 45.3-84 82-187.6 82s-187.6-36.7-187.6-82"/>
            <path class="st1" d="M1151.5 1703.1c42.6 0 77.1-34.5 77.1-77.1V747.5c0-73.7-120.3-133.4-268.6-133.4s-268.6 59.7-268.6 133.4V1626c0 42.6 34.5 77.1 77.1 77.1h383z"/>
            <path class="st1" d="M960 715.6V448.8"/>
            <path class="st1" d="M960 216.9s109.4 144.1 109.4 217.4c0 22.9-10.7 40.3-25.4 53.5-22.2 19.9-53.1 29.8-84 29.8s-61.9-9.9-84-29.8c-14.7-13.2-25.4-30.6-25.4-53.5 0-73.2 109.4-217.4 109.4-217.4z"/>
        </g>
    </g>
</svg>
