<svg xmlns="http://www.w3.org/2000/svg" viewBox="0 0 1920 1920">
    <style>
        .st0{fill:#fff}.st1{fill:none;stroke:#231f20;stroke-width:50;stroke-linecap:round;stroke-linejoin:round;stroke-miterlimit:10}
    </style>
    <path class="st0" d="M1434.5 490.2l154 373.4c-26.3 52.4-112.9 164.7-394.2 287.7-31.9-106.9-131-184.9-248.3-184.9-143.1 0-259 116-259 259 0 15.3 1.3 30.3 3.9 44.8-36.3-4.5-62.8-13.9-75-20.1-6.1 21.6-17.2 36.9-33 43.5-49.1 20.2-125.8-52.8-171.3-163.1-45.5-110.3-42.6-216.1 6.5-236.4 15.8-6.5 34.5-3.4 54 7.6 13.4-41.2 83-174.5 438-320.8 314.6-129.8 466.1-110.2 524.4-90.7zm44-48.1c-21.8 9-37.4 27.1-44 48.1l154 373.4c19.6 10.2 43.3 12.1 65.1 3l1.7-.7c39.2-16.2 58.1-61.5 41.9-100.8L1581 483.3c-16.2-39.2-61.5-58.1-100.8-41.9l-1.7.7z" id="Layer_10"/>
    <path class="st0" d="M824.9 1225.4c0 66.9 54.2 121.1 121.1 121.1 66.9 0 121.1-54.2 121.1-121.1s-54.2-121.1-121.1-121.1c-66.9 0-121.1 54.2-121.1 121.1zM946 966.3c117.3 0 216.4 78 248.3 184.9 7 23.5 10.8 48.4 10.8 74.1 0 143.1-116 259-259 259-127.8 0-233.9-92.5-255.2-214.2-2.5-14.6-3.9-29.5-3.9-44.8 0-143 116-259 259-259z" id="Layer_11"/>
    <path class="st0" d="M946 1104.3c66.9 0 121.1 54.2 121.1 121.1s-54.2 121.1-121.1 121.1c-66.9 0-121.1-54.2-121.1-121.1s54.2-121.1 121.1-121.1z" id="Layer_12"/>
    <g id="STROKES">
        <path class="st1" d="M1194.3 1151.2c281.3-122.9 367.9-235.2 394.2-287.7 19.6 10.2 43.3 12.1 65.1 3l1.7-.7c39.2-16.2 58.1-61.5 41.9-100.8L1581 483.3c-16.2-39.2-61.5-58.1-100.8-41.9l-1.7.7c-21.8 9-37.4 27.1-44 48.1-58.3-19.5-209.8-39.1-524.3 90.6-355 146.4-424.6 279.6-438 320.8-19.6-10.9-38.2-14.1-54-7.6-49.1 20.2-52 126.1-6.5 236.4 45.5 110.3 122.2 183.3 171.3 163.1 15.8-6.5 26.8-21.9 33-43.5 12.2 6.2 38.6 15.6 75 20.1"/>
        <path class="st1" d="M411.7 1130.5s-214 32.9-193.3-207.1"/>
        <path class="st1" d="M1194.3 1151.2c7 23.5 10.8 48.4 10.8 74.1 0 143.1-116 259-259 259-127.8 0-233.9-92.5-255.2-214.2-2.5-14.6-3.9-29.5-3.9-44.8 0-143.1 116-259 259-259 117.3 0 216.4 78 248.3 184.9z"/>
        <path class="st1" d="M1067.1 1225.4c0 66.9-54.2 121.1-121.1 121.1-66.9 0-121.1-54.2-121.1-121.1s54.2-121.1 121.1-121.1c66.9 0 121.1 54.2 121.1 121.1z"/>
        <path class="st1" d="M1434.5 490.2l154 373.4"/>
    </g>
</svg>
