<svg xmlns="http://www.w3.org/2000/svg" viewBox="0 0 1920 1920">
    <style>
        .st0{fill:#fff}.st1{fill:none;stroke:#231f20;stroke-width:50;stroke-linecap:round;stroke-linejoin:round;stroke-miterlimit:10}
    </style>
    <path class="st0" d="M588.6 1350.6l-82.1 7.8c-14 1.3-28.1.2-41.6-3.8-37.3-11-64.1-40.2-64.1-74.2V854.9c0-34.8 28.1-64.6 66.7-75 12.7-3.4 25.9-4.3 38.9-3.1l82 7.6 173.3 16.1L960 819.2v157.4c-95 0-190.1 36.2-262.6 108.8-73.2 73.1-109.4 169.3-108.8 265.2zm1049.9-468.2L960 819.2v157.4c95 0 190.1 36.2 262.6 108.8 55.7 55.7 90 124.8 102.9 196.8l313-29.2c36.6-3.4 64.5-34.1 64.5-70.8v-229c.1-36.7-27.9-67.4-64.5-70.8z" id="Layer_5"/>
    <ellipse class="st0" cx="308.9" cy="1067.7" rx="92" ry="92" id="Layer_6"/>
    <path class="st0" d="M588.5 784.5l.1-1.9v-90.8h173.3v106.9l-.2 2z" id="Layer_7"/>
    <path class="st0" d="M794.7 1513.2c45.7 45.7 105.5 68.5 165.3 68.5s119.7-22.8 165.3-68.5 68.5-105.5 68.5-165.3c0-59.8-22.8-119.7-68.5-165.4S1019.8 1114 960 1114s-119.7 22.8-165.3 68.5c-45.7 45.7-68.5 105.5-68.5 165.4 0 59.8 22.8 119.7 68.5 165.3zm530.8-231c20.7 115.6-13.6 239-102.9 328.3-145 145-380.2 145-525.2 0-71.8-71.8-108.1-165.7-108.7-259.9-.7-95.9 35.5-192.1 108.7-265.3C769.9 1012.8 865 976.5 960 976.5s190.1 36.2 262.6 108.8c55.7 55.7 90 124.8 102.9 196.9z" id="Layer_8"/>
    <path class="st0" d="M1193.8 1347.9c0 59.8-22.8 119.7-68.5 165.3L960 1347.9h233.8zm-233.8 0h233.8c0-59.8-22.8-119.7-68.5-165.4L960 1347.9zm0 0l165.3-165.4c-45.7-45.7-105.5-68.5-165.3-68.5v233.9zm0 0v233.8c59.8 0 119.7-22.8 165.3-68.5L960 1347.9zm0 0l-165.3 165.3c45.7 45.7 105.5 68.5 165.3 68.5v-233.8zm0 0v-233.8c-59.8 0-119.7 22.8-165.3 68.5L960 1347.9zm-233.8 0c0 59.8 22.8 119.7 68.5 165.3L960 1347.9H726.2zm68.5-165.4c-45.7 45.7-68.5 105.5-68.5 165.4H960l-165.3-165.4z" id="Layer_9"/>
    <g id="STROKES">
        <path class="st1" d="M1125.3 1182.5c45.7 45.7 68.5 105.5 68.5 165.4 0 59.8-22.8 119.7-68.5 165.3s-105.5 68.5-165.3 68.5-119.7-22.8-165.3-68.5c-45.7-45.7-68.5-105.5-68.5-165.3 0-59.8 22.8-119.7 68.5-165.4S900.2 1114 960 1114s119.7 22.9 165.3 68.5z"/>
        <path class="st1" d="M960 976.5c95 0 190.1 36.2 262.6 108.8 55.7 55.7 90 124.8 102.9 196.8 20.7 115.6-13.6 239-102.9 328.3-145 145-380.2 145-525.2 0-71.8-71.8-108.1-165.7-108.7-259.9-.7-95.9 35.5-192.1 108.7-265.3C769.9 1012.8 865 976.5 960 976.5z"/>
        <path class="st1" d="M960 1114.1v467.6"/>
        <path class="st1" d="M1193.8 1347.9H726.2"/>
        <path class="st1" d="M1125.3 1182.5L960 1347.9l-165.3 165.3"/>
        <path class="st1" d="M1125.3 1513.2L960 1347.9l-165.3-165.4"/>
        <ellipse class="st1" cx="308.9" cy="1067.7" rx="92" ry="92"/>
        <path class="st1" d="M1325.5 1282.2l313-29.2c36.6-3.4 64.5-34.1 64.5-70.8v-229c0-36.7-28-67.4-64.5-70.8L960 819.2l-198.3-18.5-173.3-16.1-82-7.6c-13.1-1.2-26.3-.3-38.9 3.1-38.6 10.4-66.7 40.1-66.7 75v425.4c0 34.1 26.9 63.3 64.1 74.2 13.5 3.9 27.6 5.1 41.6 3.8l82.1-7.8"/>
        <path class="st1" d="M960 819.2v157.3"/>
        <path class="st1" d="M588.6 782.6v-90.8h173.3v106.9"/>
    </g>
</svg>
