<svg xmlns="http://www.w3.org/2000/svg" viewBox="0 0 1920 1920">
    <style>
        .st0{fill:#fff}.st1{fill:none;stroke:#231f20;stroke-width:50;stroke-linecap:round;stroke-linejoin:round;stroke-miterlimit:10}
    </style>
    <path class="st0" d="M1517 562.3L1307.2 772l-59.1 14.5-82 20.1-.4-.4v-.1l34.6-141.1 17.7-17.7 192-192 53.5 53.5 53.5 53.5zm-762.8 244l.5-.4-34.6-141.2-17.7-17.7-192.1-192-53.5 53.5-53.5 53.5 209.8 209.8 58.7 14.4 82.4 20.1z" id="Layer_7"/>
    <g id="Layer_8">
        <path class="st0" d="M702.4 647l17.7 17.7 34.6 141.2-.4.4h-.1l-82.4-20.2c-14.1 79.9-22.9 165.7-22.9 255.6 0 98.7 8.1 185.1 20.9 260.1 48 281.3 162.1 401.2 162.1 401.2h54v-362.9c-58.1-24.6-101.7-77.3-113.7-140.7-2.2-11.4-3.3-23.2-3.3-35.3V987.9c0-46.4 16.8-89 44.5-122.2 19.4-23.2 44.2-41.8 72.5-53.8V218.3c-10.9 16.7-116.3 182-182.8 428l-.7.7z"/>
        <path class="st0" d="M1248.7 789l-.6-2.5-82 20.1-.4-.4v-.1l34.6-141.1 17.7-17.7-1.1-1.1c-66.5-245.9-171.9-411.2-182.8-428v593.6c22.9 9.7 43.5 23.8 60.9 41.1 4 4 7.7 8.1 11.3 12.4 27.9 33.2 44.8 76 44.8 122.5V1164c0 12.2-1.2 24.2-3.4 35.8-12.1 63.2-55.6 115.6-113.6 140.2v362.9h54s114-119.8 162-400.7c12.9-75.1 21-161.7 21-260.6 0-88.7-8.6-173.5-22.4-252.6z"/>
    </g>
    <path class="st0" d="M1033.1 216.9s.3.5.9 1.4v593.6c-22.8-9.7-47.8-15-74.1-15s-51.3 5.4-74.1 15V218.4c.6-.9.9-1.4.9-1.4h146.4zM885.9 1340.1V1703H1034v-362.9c-22.8 9.7-47.8 15-74.1 15s-51.2-5.3-74-15z" id="Layer_9"/>
    <path class="st0" d="M1106.3 865.4c-3.6-4.3-7.4-8.4-11.3-12.4-17.4-17.3-38-31.4-60.9-41.1-22.8-9.7-47.8-15-74.1-15s-51.3 5.4-74.1 15c-28.2 12-53 30.6-72.5 53.8-27.7 33.2-44.5 75.8-44.5 122.2v176.2c0 12.1 1.1 23.9 3.3 35.3 12 63.4 55.6 116.1 113.7 140.7 22.8 9.7 47.8 15 74.1 15s51.3-5.3 74.1-15c57.9-24.6 101.5-77 113.6-140.2 2.2-11.6 3.4-23.6 3.4-35.8V987.9c-.1-46.5-16.9-89.3-44.8-122.5z" id="Layer_10"/>
    <g id="STROKES">
        <path class="st1" d="M703.1 646.3C769.6 400.4 875 235.1 885.9 218.4c.6-.9.9-1.4.9-1.4h59.5"/>
        <path class="st1" d="M1248.7 789c13.8 79.1 22.4 163.9 22.4 252.7 0 98.9-8.1 185.5-21 260.6-48.1 281-162 400.7-162 400.7H831.9s-114.1-119.9-162.1-401.2c-12.8-75-20.9-161.4-20.9-260.1 0-89.9 8.8-175.7 22.9-255.6"/>
        <path class="st1" d="M946.3 216.9h86.8s.3.5.9 1.4c10.9 16.7 116.3 182 182.8 427.9"/>
        <path class="st1" d="M1034.1 1340.1c-22.8 9.7-47.8 15-74.1 15s-51.3-5.3-74.1-15c-58.1-24.6-101.7-77.3-113.7-140.7-2.2-11.5-3.3-23.2-3.3-35.3V987.9c0-46.4 16.8-89 44.5-122.2 19.4-23.2 44.2-41.8 72.5-53.8 22.8-9.7 47.8-15 74.1-15s51.3 5.4 74.1 15c22.9 9.7 43.5 23.8 60.9 41.1 4 4 7.7 8.1 11.3 12.4 27.9 33.2 44.8 76 44.8 122.5v176.2c0 12.2-1.2 24.2-3.4 35.8-12.2 63.2-55.7 115.7-113.6 140.2"/>
        <path class="st1" d="M403 1568.6l266.8-266.8 102.5-102.4L959.7 1012l146.6-146.6 59.2-59.3"/>
        <path class="st1" d="M1165.6 806.2h.1l34.5-141.1 17.7-17.7L1410 455.3l53.5 53.5"/>
        <path class="st1" d="M1166 806.6l82.1-20.1 59.1-14.5L1517 562.3l-53.5-53.5"/>
        <path class="st1" d="M1516.7 1568.9l-266.6-266.6-102.5-102.4L959.7 1012 813.5 865.7l-59.3-59.3"/>
        <path class="st1" d="M671.8 786.1l-58.7-14.4L403.3 562l53.5-53.5"/>
        <path class="st1" d="M754.3 806.3h-.1l-82.4-20.2"/>
        <path class="st1" d="M754.7 805.9l-34.6-141.1-17.7-17.8-192.1-192-53.5 53.5"/>
        <path class="st1" d="M885.9 218.4v593.7"/>
        <path class="st1" d="M1034.1 218.4v593.7"/>
        <path class="st1" d="M885.9 1340.1v363"/>
        <path class="st1" d="M1034.1 1340.1v363"/>
    </g>
</svg>
