<svg xmlns="http://www.w3.org/2000/svg" viewBox="0 0 1920 1920">
    <style>
        .st0{fill:#fff}.st1{fill:none;stroke:#231f20;stroke-width:50;stroke-linecap:round;stroke-linejoin:round;stroke-miterlimit:10}
    </style>
    <path class="st0" d="M1119.1 928.5l-66.5 235.1c-50.6-.6-91.4-41.9-91.4-92.6h-1.1c0 51.1-41.5 92.6-92.6 92.6-51.1 0-92.6-41.5-92.6-92.6 0 51.1-41.5 92.6-92.6 92.6h-1.2l66-238.6c62.5 4.8 133.2 7.5 212.9 7.5 57.7 0 110.6-1.4 159.1-4zm422 192.3c112.3-6.7 112.3-364.4 112.3-364.4s-.1 0-.3.1c-1.5 4.5-52.4 146.1-533.9 172l-66.5 235.1h1.2c51.1 0 92.6-41.5 92.6-92.6 0 51.1 41.5 92.6 92.6 92.6 51.1 0 92.6-41.5 92.6-92.6h1c0 51.1 41.5 92.6 92.6 92.6 51.1 0 92.6-41.5 92.6-92.6l.7-.1c2.3 19 10.4 36.3 22.5 49.9zM266.9 756.5c-.2-.1-.3-.1-.3-.1s0 380.6 123.3 364l.2.1c0-.1.1-.1.1-.1 9-14.3 14.3-31.2 14.3-49.4 0 51.1 41.5 92.6 92.6 92.6 51.2 0 92.6-41.5 92.6-92.6 0 50.7 40.8 91.9 91.4 92.6l66-238.6c-431.8-33.1-478.7-164.2-480.2-168.5z" id="Layer_5"/>
    <path class="st0" d="M1653.1 756.5c-1.5 4.5-52.4 146.1-533.9 172-48.5 2.6-101.4 4-159.1 4-79.7 0-150.3-2.7-212.9-7.5C315.4 891.9 268.4 760.8 267 756.5c10.9 3.4 283.4 87.4 692.2 87.4h1.8c408.7 0 681.1-84 692.1-87.4z" id="Layer_6"/>
    <g id="STROKES">
        <g id="XMLID_1_">
            <path class="st1" d="M1703.1 1059.5c0 51.1-41.5 92.6-92.6 92.6-27.6 0-52.4-12.1-69.4-31.2-12.1-13.7-20.2-30.9-22.5-49.9-.5-3.8-.7-7.6-.7-11.5"/>
            <path class="st1" d="M959.7 843.9h-.6c-408.8 0-681.2-83.9-692.2-87.4-.2-.1-.3-.1-.3-.1s0 380.6 123.3 364"/>
            <path class="st1" d="M959.7 843.9h1.2c408.8 0 681.2-83.9 692.2-87.4.2-.1.3-.1.3-.1s0 357.7-112.3 364.4"/>
            <path class="st1" d="M404.5 1071c0 18.2-5.2 35.1-14.3 49.4 0 .1-.1.1-.1.1-16.4 25.9-45.3 43.1-78.2 43.1-51.1 0-92.6-41.5-92.6-92.6"/>
            <path class="st1" d="M589.7 1071c0 51.1-41.5 92.6-92.6 92.6-51.1 0-92.6-41.5-92.6-92.6"/>
            <path class="st1" d="M774.9 1071c0 51.1-41.5 92.6-92.6 92.6h-1.2c-50.6-.6-91.4-41.8-91.4-92.6"/>
            <path class="st1" d="M960.1 1071c0 51.1-41.5 92.6-92.6 92.6-51.1 0-92.6-41.5-92.6-92.6"/>
            <path class="st1" d="M1146.4 1071c0 51.1-41.5 92.6-92.6 92.6h-1.2c-50.6-.6-91.4-41.9-91.4-92.6"/>
            <path class="st1" d="M1331.6 1071c0 51.1-41.5 92.6-92.6 92.6-51.2 0-92.6-41.5-92.6-92.6"/>
            <path class="st1" d="M1517.8 1071c0 51.1-41.5 92.6-92.6 92.6-51.2 0-92.6-41.5-92.6-92.6"/>
            <path class="st1" d="M1119.1 928.5l-66.5 235.1"/>
            <path class="st1" d="M747.1 925L681 1163.6"/>
            <path class="st1" d="M266.9 756.4v.1c1.4 4.3 48.4 135.4 480.2 168.5 62.5 4.8 133.2 7.5 212.9 7.5 57.7 0 110.6-1.4 159.1-4 481.6-25.9 532.4-167.5 533.9-172v-.1"/>
        </g>
    </g>
</svg>
