<svg xmlns="http://www.w3.org/2000/svg" viewBox="0 0 1920 1920">
    <style>
        .st0{fill:#fff}.st1{fill:none;stroke:#231f20;stroke-width:50;stroke-linecap:round;stroke-linejoin:round;stroke-miterlimit:10}
    </style>
    <path class="st0" d="M1701.5 1447.3l-45.9-256.5c21.3-45.7 31.1-105.2 31.1-171.2 0-85.4-16.4-181.5-45.5-272-29-90.4-70.7-175.1-121.2-237.7-139.9-173.5-559.9-178.6-559.9-178.6v752.3h-.2V331.4S540 336.5 400 510c-101 125.2-166.7 338.8-166.7 509.7 0 65.9 9.8 125.5 31.1 171.2l-45.9 256.5s-32.8 240 203.4 104.4c73.3-42.1 153-72.8 228-95.2 202.4-60.3 418.1-60.2 620.5.1 74.9 22.3 154.4 53 227.6 95 236.3 135.6 203.5-104.4 203.5-104.4z" id="Layer_4"/>
    <g id="STROKES">
        <path class="st1" d="M264.5 1190.9c-76.5-164-4.4-507.3 135.6-680.8"/>
        <path class="st1" d="M1498.1 1551.7c-73.2-42-152.7-72.7-227.6-95-202.3-60.3-418.1-60.4-620.5-.1-75 22.3-154.7 53.1-228 95.2-236.2 135.6-203.4-104.4-203.4-104.4l45.9-256.4s25.2-12.9 78.3-29.7c100.2-31.7 299.9-77.5 617.1-77.5h.2c317.3 0 516.9 45.8 617.1 77.5 53.1 16.8 78.3 29.7 78.3 29.7l45.9 256.4c.1-.1 32.9 239.9-203.3 104.3z"/>
        <path class="st1" d="M1577.3 1161.2c-100.2-31.7-299.9-77.5-617.1-77.5V331.4s419.9 5.1 559.9 178.6c150.8 283.6 57.2 651.2 57.2 651.2z"/>
        <path class="st1" d="M960 331.4v752.3c-317.3 0-516.9 45.8-617.1 77.5 0 0-93.6-367.6 57.3-651.2C540.1 336.5 960 331.4 960 331.4z"/>
        <path class="st1" d="M1520 510c140 173.5 212.1 516.8 135.6 680.8"/>
    </g>
</svg>
