<svg xmlns="http://www.w3.org/2000/svg" viewBox="0 0 1920 1920">
    <style>
        .st0{fill:#fff}.st1{fill:none;stroke:#231f20;stroke-width:50;stroke-linecap:round;stroke-linejoin:round;stroke-miterlimit:10}
    </style>
    <path class="st0" d="M545.2 587.5c39.9-8.8 69-31 64.9-49.6-4.1-18.7-39.8-26.7-79.7-17.9-39.9 8.7-69 31-64.9 49.6 4.2 18.6 39.8 26.6 79.7 17.9zm1128.6 482l-350-114.2c-129.7-251.1-364.2-505-775.4-364.2-411.2 140.7-356 667.8-273.2 711.9 82.8 44.2 471.9-33.1 471.9-33.1s629.1 347.2 912.4-76.7l37.3-61.4c14.2-23.4 3-53.9-23-62.3z" id="Layer_2"/>
    <g id="STROKES">
        <path class="st1" d="M1323.9 955.2s-218 207-576.7 314.6c0 0-265-364.6-198.7-678.8 411.1-140.7 645.7 113.1 775.4 364.2z"/>
        <path class="st1" d="M747.2 1269.8s-389.1 77.3-471.9 33.1c-82.8-44.2-138-571.2 273.2-711.9-66.3 314.3 198.7 678.8 198.7 678.8z"/>
        <path class="st1" d="M1673.8 1069.5c25.9 8.5 37.2 38.9 23 62.2l-37.3 61.4c-283.3 423.9-912.4 76.7-912.4 76.7 358.7-107.6 576.7-314.6 576.7-314.6l350 114.3z"/>
        <ellipse transform="rotate(-12.366 537.685 553.585)" class="st1" cx="537.8" cy="553.7" rx="74" ry="34.6"/>
    </g>
</svg>
