<svg xmlns="http://www.w3.org/2000/svg" viewBox="0 0 1920 1920">
    <style>
        .st0{fill:#fff}.st1{fill:none;stroke:#231f20;stroke-width:50;stroke-linecap:round;stroke-linejoin:round;stroke-miterlimit:10}
    </style>
    <path class="st0" d="M1166.2 365.9c-11.6-2-23.4-3.9-35.5-5.7 0 0-514.4-123.1-659.5 417.7 0 0-48.4 257.2-33 336.3L217 1438.1c3.2-3.9 131.4-160.9 341.3-81.9 212.6 80 359.8 298.7 611.2 182.2 251.4-116.5 292.3-314.7 292.3-314.7 6.4-.4 12.5-.9 18.4-1.7 169.3-22 208.8-65.9 208.8-65.9s148.8-671.4-522.8-790.2z" id="Layer_5"/>
    <g id="STROKES">
        <path class="st1" d="M438.2 1114.2s120.9-83.5 296.8-46.2c175.9 37.4 576 175.9 745.2 153.9S1689 1156 1689 1156s153.9-694.7-558.4-795.8c0 0-514.4-123.1-659.5 417.7.1 0-48.3 257.2-32.9 336.3z"/>
        <path class="st1" d="M438.2 1114.2l-221.3 324s128.8-162 341.4-82 359.8 298.7 611.2 182.2 292.3-314.7 292.3-314.7"/>
        <path class="st1" d="M1413.4 1223.6s55.1-386.8 23-503.7c-32.1-116.9-132.5-320.6-270.2-354"/>
    </g>
</svg>
