<svg xmlns="http://www.w3.org/2000/svg" viewBox="0 0 1920 1920">
    <style>
        .st0{fill:#fff}.st1{fill:none;stroke:#231f20;stroke-width:50;stroke-linecap:round;stroke-linejoin:round;stroke-miterlimit:10}
    </style>
    <path class="st0" d="M1703.1 1042.1v103h-209c-29.4-41.8-78.1-69.1-133.1-69.1s-103.7 27.3-133.1 69.1H693l-.6.4c-29.4-42-78.2-69.5-133.4-69.5-55.4 0-104.4 27.7-133.7 70l-1.3-.9H216.9V889.2h138.9l190.1-243.4c20.1-25.8 51-40.8 83.6-40.8h487.8c34.8 0 67.6 16.2 88.8 43.8l173.8 226h259.8c34.9 0 63.2 28.3 63.2 63.3v22h-143.2v82.1h143.4zm-476.4-156.4l-147.2-189.5h-430L511.1 885.7h715.6z" id="Layer_1"/>
    <path class="st0" d="M1703.1 1145.2v93.5h-179.5c0-34.8-10.9-67.1-29.5-93.5h209zm-1010.7.4c18.4 26.4 29.3 58.5 29.3 93.1h476.6c0-34.8 10.9-67.1 29.5-93.5H693l-.6.4zm-475.5-.4v93.5h179.5c0-34.4 10.7-66.3 28.9-92.6l-1.3-.9H216.9z" id="Layer_3"/>
    <path class="st0" d="M857.7 885.7H511.1l138.4-189.5h430l147.2 189.5h-369z" id="Layer_4"/>
    <path class="st0" d="M1360.9 1157.3c44.9 0 81.3 36.4 81.3 81.3s-36.4 81.3-81.3 81.3-81.3-36.4-81.3-81.3 36.4-81.3 81.3-81.3zm-883.1 81.4c0 44.9 36.4 81.3 81.3 81.3s81.3-36.4 81.3-81.3-36.4-81.3-81.3-81.3c-44.9-.1-81.3 36.3-81.3 81.3z" id="Layer_5"/>
    <path class="st0" d="M1494 1145.2c18.6 26.4 29.5 58.7 29.5 93.5 0 89.8-72.8 162.6-162.6 162.6s-162.6-72.8-162.6-162.6c0-34.8 10.9-67.1 29.5-93.5 29.4-41.8 78.1-69.1 133.1-69.1 55-.1 103.7 27.2 133.1 69.1zm-51.8 93.5c0-44.9-36.4-81.3-81.3-81.3s-81.3 36.4-81.3 81.3 36.4 81.3 81.3 81.3 81.3-36.4 81.3-81.3zm-749.8-93.1c18.4 26.4 29.3 58.5 29.3 93.1 0 89.8-72.8 162.6-162.6 162.6s-162.6-72.8-162.6-162.6c0-34.4 10.7-66.3 28.9-92.6 29.4-42.3 78.3-70 133.7-70 55.2-.1 103.9 27.4 133.3 69.5zm-52 93.1c0-44.9-36.4-81.3-81.3-81.3s-81.3 36.4-81.3 81.3 36.4 81.3 81.3 81.3 81.3-36.4 81.3-81.3z" id="Layer_6"/>
    <path class="st0" d="M1559.9 960h143.2v82.1h-143.2z" id="Layer_15"/>
    <g id="STROKES">
        <path class="st1" d="M1198.3 1238.7H721.7"/>
        <path class="st1" d="M1227.9 1145.2H693"/>
        <path class="st1" d="M424.1 1145.2H216.9"/>
        <path class="st1" d="M721.7 1238.7c0 89.8-72.8 162.6-162.6 162.6s-162.6-72.8-162.6-162.6c0-34.4 10.7-66.3 28.9-92.6 29.4-42.3 78.3-70 133.7-70 55.2 0 104 27.5 133.4 69.5 18.4 26.3 29.2 58.4 29.2 93.1z"/>
        <path class="st1" d="M1523.6 1238.7c0 89.8-72.8 162.6-162.6 162.6s-162.6-72.8-162.6-162.6c0-34.8 10.9-67.1 29.5-93.5 29.4-41.8 78.1-69.1 133.1-69.1s103.7 27.3 133.1 69.1c18.5 26.4 29.5 58.6 29.5 93.5z"/>
        <circle class="st1" cx="559.1" cy="1238.7" r="81.3"/>
        <circle class="st1" cx="1360.9" cy="1238.7" r="81.3"/>
        <path class="st1" d="M396.4 1238.7H216.9V889.2h138.9l190.1-243.4c20.1-25.8 51-40.8 83.6-40.8h487.8c34.8 0 67.6 16.2 88.8 43.8l173.8 226h259.8c34.9 0 63.2 28.3 63.2 63.3v300.6h-179.5"/>
        <path class="st1" d="M1494 1145.2h209.1"/>
        <path class="st1" d="M511.1 885.7h715.6l-147.2-189.4h-430z"/>
        <path class="st1" d="M857.7 699.4v186.3"/>
        <path class="st1" d="M1703.1 960h-143.2v82.1h143.2"/>
        <path class="st1" d="M497.1 960h45.2"/>
    </g>
</svg>
