<svg xmlns="http://www.w3.org/2000/svg" viewBox="0 0 1920 1920">
    <style>
        .st0{fill:#fff}.st1{fill:none;stroke:#231f20;stroke-width:50;stroke-linecap:round;stroke-linejoin:round;stroke-miterlimit:10}
    </style>
    <path class="st0" d="M1605.5 1032.8H314.4c7.2-16.1 18.1-30.5 32.3-42.1l104.4-85.1h1017.7l104.4 85.1c14.1 11.5 25.1 26 32.3 42.1zm-216.7 193.1H326.7L349 1248c20.5 20.4 45.5 36.9 73.3 49 34.5 14.9 73.3 23 113.3 23h848.7c40 0 78.8-8.1 113.3-23 27.8-12.1 52.8-28.6 73.3-49l22.2-22.1h-204.3zm-201.1-675.1H732.3c-37.2 0-72.9 14.8-99.2 41.1L576 649h767.9l-57.1-57.1c-26.2-26.3-61.9-41.1-99.1-41.1zm-449.2 482l-95.2 193.1h633.2l-95.2-193.1H738.5zm796.9-236.6l-85.8 69.9c211.7 82.1 246.8-54.2 242.1-69.9h-156.3zm-1307.1 0c-4.7 15.7 30.3 152 242.1 69.9l-85.7-69.9H228.3z" id="Layer_7"/>
    <path class="st0" d="M1343.9 649l124.9 256.6H451.1l19.2-39.5L576 649h412.5z" id="Layer_8"/>
    <path class="st0" d="M1605.5 1032.8c9.1 20.2 12.3 43 8.6 65.7l-20.9 127.4h-204.4l-95.2-193.1h311.9zm-424.1 0l95.2 193.1h112.2l-95.2-193.1h-112.2zm-555.1 0l-95.2 193.1h112.2l95.2-193.1H626.3zm-311.9 0c-9.1 20.2-12.3 43-8.6 65.7l20.9 127.4h204.4l95.2-193.1H314.4z" id="Layer_9"/>
    <path class="st0" d="M1498.6 1299.1v140.1c0 17.1-8.9 32.5-23.3 43.7-14.4 11.2-34.2 18.1-56.2 18.1-43.9 0-79.5-27.7-79.5-61.8v-119.3h44.7c40 0 78.8-8.1 113.3-23l1 2.2zM580.3 1320h-44.8c-40 0-78.8-8.1-113.3-23l-.9 2.1v140.1c0 17.1 8.9 32.5 23.3 43.7 14.4 11.2 34.3 18.1 56.2 18.1 43.9 0 79.5-27.7 79.5-61.8V1320z" id="Layer_10"/>
    <g id="STROKES">
        <path class="st1" d="M576 649h355.4"/>
        <path class="st1" d="M451.1 905.6l19.2-39.5"/>
        <path class="st1" d="M626.3 1032.8l-95.2 193.1"/>
        <path class="st1" d="M738.5 1032.8l-95.1 193.1"/>
        <path class="st1" d="M1468.8 905.6L1343.9 649H931.4"/>
        <path class="st1" d="M1468.8 905.6l104.4 85.1c14.1 11.5 25.1 26 32.3 42 9.1 20.2 12.3 43 8.6 65.7l-20.9 127.4H326.7l-20.9-127.4c-3.7-22.6-.5-45.4 8.6-65.7 7.2-16.1 18.1-30.5 32.3-42.1l104.4-85.1h1017.7"/>
        <path class="st1" d="M1293.6 1032.8l95.2 193.1"/>
        <path class="st1" d="M1181.4 1032.8l95.2 193.1"/>
        <path class="st1" d="M1593.2 1225.9L1571 1248c-20.5 20.4-45.5 36.9-73.3 49-34.5 14.9-73.3 23-113.3 23H535.5c-40 0-78.8-8.1-113.3-23-27.9-12.1-52.9-28.6-73.3-49l-22.2-22.1"/>
        <path class="st1" d="M470.3 866.1l-85.7-69.9H228.3c-4.7 15.7 30.3 152 242 69.9z"/>
        <path class="st1" d="M470.3 866.1L576 649"/>
        <path class="st1" d="M1449.7 866.1l85.8-69.9h156.3c4.6 15.7-30.4 152-242.1 69.9z"/>
        <path class="st1" d="M580.3 1321.4v117.8c0 34.1-35.6 61.8-79.5 61.8-21.9 0-41.8-6.9-56.2-18.1-14.4-11.2-23.3-26.6-23.3-43.7v-140.1"/>
        <path class="st1" d="M1339.6 1321.4v117.8c0 34.1 35.6 61.8 79.5 61.8 22 0 41.8-6.9 56.2-18.1 14.4-11.2 23.3-26.6 23.3-43.7v-140.1"/>
        <path class="st1" d="M576 649l57.1-57.1c26.3-26.3 62-41.1 99.2-41.1H960"/>
        <path class="st1" d="M1344 649l-57.1-57.1c-26.3-26.3-62-41.1-99.2-41.1H960"/>
        <path class="st1" d="M314.3 1032.8h1291.2"/>
    </g>
</svg>
