<svg xmlns="http://www.w3.org/2000/svg" viewBox="0 0 1920 1920">
    <style>
        .st0{fill:#fff}.st1{fill:none;stroke:#231f20;stroke-width:50;stroke-linecap:round;stroke-linejoin:round;stroke-miterlimit:10}
    </style>
    <path class="st0" d="M1161 362.8l-124.3 329.5c-16.9-33.3-41.8-42.5-76.8-42.5s-59.8 9.2-76.8 42.5L759 362.8h88.4l61.6 180V216.9h102v325.8l61.6-180h88.4z" id="Layer_4"/>
    <path class="st0" d="M853.9 895.2c2.5-106 11.5-167.9 29.3-202.9 16.9-33.3 41.8-42.5 76.8-42.5s59.8 9.2 76.8 42.5c21.5 42.3 30.1 123.5 30.1 274.2 0 269.6-106.8 736.6-106.8 736.6s-96.3-420.8-106-694.1c-.5-14.6-.8-28.8-.8-42.4-.1-25.9.1-49.6.6-71.4z" id="Layer_5"/>
    <g id="STROKES">
        <path class="st1" d="M854 1008.9c9.8 273.3 106 694.1 106 694.1s106.8-467 106.8-736.6c0-150.8-8.6-231.9-30.1-274.2-16.9-33.3-41.8-42.5-76.8-42.5s-59.8 9.2-76.8 42.5c-17.8 35.1-26.8 96.9-29.3 202.9-.5 21.8-.8 45.5-.8 71.3.2 13.7.4 27.9 1 42.5z"/>
        <path class="st1" d="M883.2 1122.6h93.9"/>
        <path class="st1" d="M853.2 895.2h123.9"/>
        <path class="st1" d="M853.2 1008.9h123.9"/>
        <path class="st1" d="M883.2 692.2L759 362.8h88.4l61.6 180V216.9h51"/>
        <path class="st1" d="M1036.8 692.2L1161 362.8h-88.4l-61.6 180V216.9h-51"/>
    </g>
</svg>
