<svg xmlns="http://www.w3.org/2000/svg" viewBox="0 0 1920 1920">
    <style>
        .st0{fill:#fff}.st1{fill:none;stroke:#231f20;stroke-width:50;stroke-linecap:round;stroke-linejoin:round;stroke-miterlimit:10}
    </style>
    <path class="st0" d="M1088.6 699.7c-27 50.5-30.5 109.3-30.5 109.3-15.7-5-30.6-6.8-43-7.1-1.7-25-4.1-45.1-9.4-60.4-8.5-24.6-24.4-36.8-56.5-36.8-26.4 0-43 9.1-53.2 25.8-10.2 16.7-14.1 41-15.1 71.5-12 0-23.1.5-33.4 1.6-.1-26.3-4.7-50.9-11.8-73.2l-.4.1s-205.5-25.8-179.8-174c0 0-35.5-27.7-60.7-65.9-44.2-67 53.5-136.4 102.1-72.6 8.4 11 16.5 24.7 24.2 41.5 0 0-12.7-94.1 11-159.9 14.4-40 62.2-57.2 98-34.1 22.4 14.5 70.6 51 65.9 114 .6-5.1 20.1-175.5 88.6-161.4 0 0 78.6-24 73.5 158.7 0 0 49.6-140.7 148.2-87.3 103.3 55.9-11.4 147.3-11.4 147.3 131.3-70.2 142.4 74 53 90.6-1.5.2-3 .4-4.5.7 1.5-.2 3-.4 4.5-.7 72.1-10 61.2 77.8 61.2 77.8-22.5 112.1-214.2 95.1-220.5 94.5z" id="Layer_1"/>
    <path class="st0" d="M1005.7 741.5c5.3 15.3 7.7 35.5 9.4 60.4 1.5 22.8 2.4 49.7 4.3 80.6-12.3-35.9-31.6-45.3-60-45.3-47.4 0-69.5 26.1-75.8 158 1.6-77-4.4-143.5-2.7-193.3 1-30.5 4.9-54.8 15.1-71.5 10.2-16.7 26.8-25.8 53.2-25.8 32.1 0 48 12.2 56.5 36.9zm9.4 60.4c1.5 22.8 2.4 49.7 4.3 80.6 12.7 37.1 17.9 102.5 17.9 215 0 72.4-8.3 162-19.5 249.9-1.8 123.5 4.9 326.9 4.9 326.9s142.6-391.7 152.8-613.4c8-174.2-59.9-233.8-117.4-252-15.7-4.8-30.6-6.7-43-7zm22.2 295.7c0-112.6-5.2-177.9-17.9-215-12.3-35.9-31.6-45.3-60-45.3-47.4 0-69.5 26.1-75.8 158-1.4 28.8-2 62.6-2 102.3 0 70.1 7.8 156.5 18.5 241.8 23 184.3 59.4 363.6 59.4 363.6s35.3-174.1 58.4-355.6c11.1-87.8 19.4-177.5 19.4-249.8zm-155.8 0c0-39.7.6-73.5 2-102.3 1.6-77-4.4-143.5-2.7-193.3-12 0-23.1.5-33.4 1.6-83.1 8.9-113.3 60.3-104.3 257.5 10.2 221.7 152.8 613.4 152.8 613.4s5.8-211.5 4-335c-10.6-85.4-18.4-171.8-18.4-241.9z" id="Layer_3"/>
    <g id="STROKES">
        <path class="st1" d="M900 1339.4c23 184.3 59.4 363.6 59.4 363.6s35.3-174.1 58.4-355.6c11.2-87.9 19.5-177.6 19.5-249.9 0-112.6-5.2-177.9-17.9-215-12.3-35.9-31.6-45.3-60-45.3-47.4 0-69.5 26.1-75.8 158-1.4 28.8-2 62.6-2 102.3-.1 70.2 7.7 156.6 18.4 241.9z"/>
        <path class="st1" d="M896 730.4c-10.2 16.7-14.1 41-15.1 71.5-1.7 49.9 4.2 116.3 2.7 193.3"/>
        <path class="st1" d="M1019.4 882.5c-1.9-30.9-2.8-57.8-4.3-80.6-1.7-25-4.1-45.1-9.4-60.4-8.5-24.6-24.4-36.8-56.5-36.8-26.4 0-43 9.1-53.2 25.8"/>
        <path class="st1" d="M880.9 801.9c-12 0-23.1.5-33.4 1.6-83.1 8.9-113.3 60.3-104.3 257.5 10.2 221.7 152.8 613.4 152.8 613.4s5.8-211.5 4-335v-.1"/>
        <path class="st1" d="M1017.8 1347.4s0 .1 0 0c-1.8 123.6 4.9 327 4.9 327s142.6-391.7 152.8-613.4c8-174.2-59.9-233.8-117.4-252-15.7-5-30.6-6.8-43-7.1"/>
        <path class="st1" d="M949.2 704.6V542.2"/>
        <path class="st1" d="M835.3 542.2S883.7 598 896 730.4"/>
        <path class="st1" d="M758.2 605s53.2 49.1 77.4 125.3c7.1 22.3 11.7 46.8 11.8 73.2"/>
        <path class="st1" d="M1005.7 741.5c.1-2 10.7-134.1 91.1-199.3"/>
        <path class="st1" d="M1058.1 809s3.6-58.8 30.5-109.3c14.4-27 35.5-51.5 66.3-63.4"/>
        <path class="st1" d="M896 379.4c4.7-63-43.5-99.5-65.9-114-35.7-23.1-83.5-5.9-98 34.1-23.7 65.7-11 159.9-11 159.9-7.7-16.8-15.8-30.5-24.2-41.5-48.6-63.8-146.3 5.7-102.1 72.6 25.2 38.2 60.7 65.9 60.7 65.9-25.7 148.2 179.8 174 179.8 174"/>
        <path class="st1" d="M1247.9 527.2c89.4-16.6 78.3-160.8-53-90.6 0 0 114.8-91.3 11.4-147.3-98.6-53.4-148.2 87.3-148.2 87.3C1063.2 194 984.6 218 984.6 218c-68.5-14.1-88 156.3-88.6 161.4v.1"/>
        <path class="st1" d="M1247.9 527.2c-1.5.2-3 .4-4.5.7 1.6-.2 3.1-.4 4.5-.7z"/>
        <path class="st1" d="M1088.5 699.7h.2c6.2.6 198 17.6 220.4-94.7 0 0 11-87.7-61.2-77.8"/>
    </g>
</svg>
