<svg xmlns="http://www.w3.org/2000/svg" viewBox="0 0 1920 1920">
    <style>
        .st0{fill:#fff}.st1{fill:none;stroke:#231f20;stroke-width:50;stroke-linecap:round;stroke-linejoin:round;stroke-miterlimit:10}
    </style>
    <path class="st0" d="M1232.1 329.5c26.2 26.2 26.2 69 0 95.2l-220 220c-1.3 1.6-2.7 3.2-4.2 4.7-4.4 4.4-9.2 8-14.4 10.9-4.9 2.9-10.3 5.1-15.9 6.7-5.6 1.5-11.5 2.4-17.6 2.4-20.9 0-39.7-9.7-52.1-24.8l-220-219.9c-13.1-13.1-19.6-30.3-19.6-47.6s6.5-34.5 19.6-47.6c26.2-26.2 69-26.2 95.2 0L892.5 439V284.3c0-18.5 7.6-35.3 19.8-47.5s29-19.8 47.5-19.8c37 0 67.3 30.3 67.3 67.3v155l109.7-109.7c26.3-26.3 69.1-26.3 95.3-.1z" id="Layer_6"/>
    <path class="st0" d="M1200.9 1007.9v6.4H719.2v-6.4c0-60.2 11.2-116.8 30.9-165.8H1170c19.7 49 30.9 105.6 30.9 165.8zm-445 179.7l2.4-1.1h406.2c22.3-50.1 35.5-109 36.3-172.2H719.2c.8 63.6 14.2 122.9 36.7 173.3zM960 670c-90.1 0-168.7 69.4-210 172.2h420C1128.7 739.3 1050.1 670 960 670zm-204.1 517.6c.8 1.8 1.6 3.6 2.4 5.3l65.5 165.8H1096l65.5-165.8c1-2.1 1.9-4.2 2.9-6.4h-406l-2.5 1.1zm68 171.1l68 172.2H1028l68-172.2H823.9zm68.1 172.2l68 172.2 68.1-172.2H892z" id="Layer_7"/>
    <g id="STROKES">
        <path class="st1" d="M1096.1 1358.7l65.5-165.8c1-2.1 1.9-4.2 2.9-6.4 22.3-50.1 35.5-109 36.3-172.2v-6.4c0-60.2-11.2-116.8-30.9-165.8C1128.7 739.3 1050.1 670 960 670s-168.7 69.4-210 172.2c-19.7 49-30.9 105.5-30.9 165.8v6.4c.8 63.6 14.2 122.9 36.8 173.2.8 1.8 1.6 3.6 2.4 5.3l65.5 165.8 68 172.2 68 172.2 68.1-172.2 68.2-172.2z"/>
        <path class="st1" d="M750 842.1h420"/>
        <path class="st1" d="M719.1 1014.3h481.8"/>
        <path class="st1" d="M758.4 1186.5h406.1"/>
        <path class="st1" d="M823.9 1358.7h272.2"/>
        <path class="st1" d="M892 1530.9h136.1"/>
        <path class="st1" d="M1232.1 329.5c-26.2-26.2-69-26.2-95.2 0l-109.7 109.7v-155c0-37-30.3-67.3-67.3-67.3-18.5 0-35.3 7.6-47.5 19.8s-19.8 29-19.8 47.5V439L783.1 329.5c-26.2-26.2-69-26.2-95.2 0-13.1 13.1-19.6 30.3-19.6 47.6s6.5 34.5 19.6 47.6l219.9 219.9c12.4 15.1 31.2 24.8 52.1 24.8 6.1 0 12-.8 17.6-2.4 5.6-1.5 11-3.8 15.9-6.7 5.2-2.9 10-6.6 14.4-10.9 1.5-1.5 2.9-3.1 4.2-4.7l220-220c26.3-26.2 26.3-69 .1-95.2z"/>
    </g>
</svg>
