<svg xmlns="http://www.w3.org/2000/svg" viewBox="0 0 1920 1920">
    <style>
        .st0{fill:#fff}.st1{fill:none;stroke:#231f20;stroke-width:50;stroke-linecap:round;stroke-linejoin:round;stroke-miterlimit:10}
    </style>
    <path class="st0" d="M1083.3 453v82.2h-82.2V453h-82.2v82.2h-82.2V453h-82.2v157.4H803V960h76v98.9h161.8V960h76V610.3h48.5V453h-82zm-79.9 431.6h-86.8v-133c0-1.7.2-3.4.4-5.1.1-.4.1-.9.2-1.4.1-.5.2-1 .3-1.6.1-.5.2-1 .3-1.4v-.2c.1-.5.2-.9.4-1.4.1-.5.3-.9.4-1.4 0-.1.1-.2.1-.3.1-.4.3-.9.5-1.3.1-.4.3-.8.4-1.1.1-.3.3-.7.4-1 .2-.4.3-.7.5-1.1.6-1.3 1.3-2.5 2-3.8.2-.4.5-.8.7-1.2l.6-.9.6-.9c.2-.3.4-.6.7-.9l.9-1.2c.1-.1.2-.2.2-.3.3-.4.7-.8 1-1.2.3-.4.7-.8 1.1-1.2l.7-.7.7-.7c.4-.4.8-.7 1.2-1.1 1.7-1.5 3.5-2.9 5.4-4.1.6-.4 1.2-.7 1.8-1.1 2.7-1.6 5.6-2.9 8.7-3.8l2.1-.6c1.9-.5 3.9-.9 5.9-1.1l1-.1c.9-.1 1.8-.1 2.6-.2h1.3c24 0 43.4 19.4 43.4 43.4v132z" id="Layer_2"/>
    <path class="st0" d="M960 217v129.8l186.1-70.1z" id="Layer_4"/>
    <path class="st0" d="M960 709.5h-1.3c-.9 0-1.8.1-2.6.2l-1 .1c-2 .2-4 .6-5.9 1.1l-2.1.6c-3.1 1-6 2.2-8.7 3.8-.6.3-1.2.7-1.8 1.1-1.9 1.2-3.7 2.6-5.4 4.1-.4.3-.8.7-1.2 1.1l-.7.7-.7.7c-.4.4-.7.8-1.1 1.2-.3.4-.7.8-1 1.2-.1.1-.2.2-.2.3l-.9 1.2c-.2.3-.5.6-.7.9l-.6.9-.6.9c-.2.4-.5.8-.7 1.2-.7 1.2-1.4 2.5-2 3.8-.2.3-.3.7-.5 1.1-.1.3-.3.7-.4 1-.1.4-.3.7-.4 1.1-.2.4-.3.9-.5 1.3 0 .1-.1.2-.1.3-.1.5-.3.9-.4 1.4-.1.5-.3.9-.4 1.4v.2c-.1.5-.2 1-.3 1.4-.1.5-.2 1-.3 1.6-.1.5-.1.9-.2 1.4-.2 1.7-.4 3.4-.4 5.1v133h86.8v-132c-.3-24-19.7-43.4-43.7-43.4z" id="Layer_5"/>
    <path class="st0" d="M1364.5 960v98.9h-161.8V960h-161.8v98.9H879.1V960H717.3v98.9H555.5V960H393.7v743.1h427.5v-333.2c0-76.7 62.1-138.8 138.8-138.8s138.8 62.1 138.8 138.8v333.2h427.5V960h-161.8z" id="Layer_6"/>
    <path class="st0" d="M960 1231c-76.7 0-138.8 62.1-138.8 138.8V1703h277.6v-333.2c0-76.7-62.1-138.8-138.8-138.8z" id="Layer_7"/>
    <g id="STROKES">
        <path class="st1" d="M754.6 453h82.2v82.2h-82.2z"/>
        <path class="st1" d="M918.9 453h82.2v82.2h-82.2z"/>
        <path class="st1" d="M1083.3 453h82.2v82.2h-82.2z"/>
        <path class="st1" d="M754.6 535.1h410.9v75.2H754.6z"/>
        <path class="st1" d="M1003.4 884.6h-86.8V752.9c0-24 19.4-43.4 43.4-43.4s43.4 19.4 43.4 43.4v131.7z"/>
        <path class="st1" d="M1116.9 610.3V960h-76v98.9H879.1V960h-76V610.3z"/>
        <path class="st1" d="M960 453V216.9l186.1 59.8-186.1 70"/>
        <path class="st1" d="M1526.3 960v743.1H393.7V960h161.8v98.9h161.8V960h161.8v98.9h161.8V960h161.8v98.9h161.8V960z"/>
        <path class="st1" d="M1098.8 1703.5H821.2v-333.7c0-76.7 62.1-138.8 138.8-138.8 76.7 0 138.8 62.1 138.8 138.8v333.7z"/>
        <path class="st1" d="M393.7 1543h311"/>
        <path class="st1" d="M393.7 1427.6h311"/>
        <path class="st1" d="M520 1427.6V1543"/>
        <path class="st1" d="M661.8 1427.6V1543"/>
        <path class="st1" d="M592.2 1312.3v115.3"/>
        <path class="st1" d="M1526.3 1231h-304"/>
        <path class="st1" d="M1526.3 1345.3h-203.9"/>
        <path class="st1" d="M1412.8 1300.5v104.4"/>
    </g>
</svg>
