<svg xmlns="http://www.w3.org/2000/svg" viewBox="0 0 1920 1920">
    <style>
        .st0{fill:#fff}.st1{fill:none;stroke:#231f20;stroke-width:50;stroke-linecap:round;stroke-linejoin:round;stroke-miterlimit:10}
    </style>
    <path class="st0" d="M1049.6 255.9c0-21.5-17.4-39-39-39H909.3c-21.5 0-39 17.4-39 39v140.3h179.3V255.9zm-271.5 0c0-21.5-17.5-39-39-39H637.7c-21.5 0-39 17.4-39 39v140.3H778V255.9zm504.2-38.9h-101.4c-21.5 0-39 17.4-39 39v140.3h179.3V255.9c0-21.5-17.4-38.9-38.9-38.9zM688.4 575.5V1280l543.2.8V575.5l89.6-79.2H598.8l89.6 79.2zm89.7 512.2h42.6V831.5c0-6.6.5-13.1 1.4-19.5.2-1.2.3-2.3.5-3.5.7-4 1.5-8 2.5-11.9.6-2.2 1.2-4.4 1.9-6.6.5-1.6 1.1-3.3 1.6-4.9.4-1.1.8-2.1 1.2-3.2.6-1.6 1.2-3.2 1.9-4.7.9-2.1 1.8-4.1 2.8-6.2l1.5-3c1.5-3 3.2-5.9 4.9-8.8 1.2-1.9 2.4-3.8 3.6-5.6.6-.9 1.3-1.9 1.9-2.8 1.3-1.8 2.6-3.6 4-5.4.7-.9 1.4-1.8 2.1-2.6.7-.9 1.4-1.7 2.2-2.5.7-.8 1.5-1.7 2.2-2.5 1.5-1.6 3-3.3 4.6-4.8l2.4-2.3c.8-.8 1.6-1.5 2.4-2.3.8-.8 1.7-1.5 2.5-2.2.8-.7 1.7-1.5 2.6-2.2.9-.7 1.7-1.4 2.6-2.1.7-.6 1.4-1.1 2.2-1.7l1.1-.8 2.1-1.5c.9-.6 1.8-1.3 2.8-1.9.9-.6 1.9-1.2 2.8-1.9l1.8-1.1c.6-.4 1.2-.7 1.8-1.1.7-.4 1.5-.9 2.2-1.3 1-.6 2-1.1 2.9-1.6 1-.5 2-1.1 3-1.6l3-1.5c2-1 4.1-1.9 6.2-2.8 1-.4 2.1-.9 3.1-1.3l1.6-.6c1.1-.4 2.1-.8 3.2-1.2 1.6-.6 3.2-1.1 4.9-1.6 2.2-.7 4.4-1.3 6.6-1.9l11.9-2.5c1.1-.2 2.3-.4 3.5-.5 6.4-.9 12.9-1.4 19.5-1.4 76.9 0 139.3 62.4 139.3 139.3v256.2h42.6v77.4h-364v-77.3zm-89.7 615.4h543.2v-243H688.4v243z" id="Layer_8"/>
    <path class="st0" d="M598.8 396.2v100.1h722.5V396.2H598.8zm632.8 885.5H688.4v-1.7l-89.6-.1 89.4 179.4 543.2.8 89.9-179.2-89.6-.1v.9zm-453.5-194v77.4H1142v-77.4H778.1z" id="Layer_9"/>
    <path class="st0" d="M960 692.2c-6.6 0-13.1.5-19.5 1.4-1.2.2-2.3.3-3.5.5l-11.9 2.5c-2.2.6-4.4 1.2-6.6 1.9-1.6.5-3.3 1-4.9 1.6-1.1.4-2.1.8-3.2 1.2l-1.6.6c-1.1.4-2.1.8-3.1 1.3-2.1.9-4.1 1.8-6.2 2.8l-3 1.5c-1 .5-2 1-3 1.6-1 .5-2 1.1-2.9 1.6-.7.4-1.5.9-2.2 1.3-.6.4-1.2.7-1.8 1.1l-1.8 1.1c-.9.6-1.9 1.2-2.8 1.9-.9.6-1.9 1.3-2.8 1.9l-2.1 1.5-1.1.8c-.7.5-1.5 1.1-2.2 1.7-.9.7-1.8 1.4-2.6 2.1-.9.7-1.7 1.4-2.6 2.2-.8.7-1.7 1.5-2.5 2.2-.8.8-1.6 1.5-2.4 2.3l-2.4 2.3c-1.6 1.6-3.1 3.2-4.6 4.8-.8.8-1.5 1.7-2.2 2.5-.7.8-1.4 1.7-2.2 2.5-.7.9-1.4 1.7-2.1 2.6-1.4 1.8-2.7 3.5-4 5.4-.6.9-1.3 1.8-1.9 2.8-1.2 1.8-2.5 3.7-3.6 5.6-1.8 2.9-3.4 5.8-4.9 8.8l-1.5 3c-1 2-1.9 4.1-2.8 6.2-.7 1.6-1.3 3.1-1.9 4.7-.4 1.1-.8 2.1-1.2 3.2-.6 1.6-1.1 3.2-1.6 4.9-.7 2.2-1.3 4.4-1.9 6.6-1 3.9-1.8 7.8-2.5 11.9-.2 1.1-.4 2.3-.5 3.5-.9 6.4-1.4 12.9-1.4 19.5v256.2h278.6V831.5c.2-76.9-62.2-139.3-139.1-139.3z" id="Layer_10"/>
    <g id="STROKES">
        <path class="st1" d="M1231.6 575.5H688.4l-89.6-79.2h722.4z"/>
        <path class="st1" d="M1231.3 1460.1l-543.2-.8-89.3-179.5 722.4 1.1z"/>
        <path class="st1" d="M778.1 396.2H598.8V255.9c0-21.5 17.4-39 39-39h101.4c21.5 0 39 17.4 39 39v140.3z"/>
        <path class="st1" d="M1049.6 396.2H870.4V255.9c0-21.5 17.4-39 39-39h101.4c21.5 0 39 17.4 39 39v140.3z"/>
        <path class="st1" d="M1321.2 396.2h-179.3V255.9c0-21.5 17.4-39 39-39h101.4c21.5 0 39 17.4 39 39v140.3z"/>
        <path class="st1" d="M688.4 575.5h543.2v706.2H688.4z"/>
        <path class="st1" d="M688.4 1460.1h543.2v243H688.4z"/>
        <path class="st1" d="M1099.3 1087.7H820.7V831.5c0-76.9 62.4-139.3 139.3-139.3s139.3 62.4 139.3 139.3v256.2z"/>
        <path class="st1" d="M778.1 1087.7H1142v77.4H778.1z"/>
        <path class="st1" d="M598.8 396.2h722.5v100.1H598.8z"/>
    </g>
</svg>
