<svg xmlns="http://www.w3.org/2000/svg" viewBox="0 0 1920 1920">
    <style>
        .st0{fill:#fff}.st1{fill:none;stroke:#231f20;stroke-width:50;stroke-linecap:round;stroke-linejoin:round;stroke-miterlimit:10}
    </style>
    <path class="st0" d="M1703.8 980v105.8H1309l-70.1-70.1h-85.6c5.1-17.7 7.8-36.4 7.8-55.7 0-18.8-2.6-37-7.4-54.3h85.2l70.1-70.1h394.8V980zM1015 1239.6v-86.1c-17.5 5-35.9 7.6-55 7.6s-37.5-2.7-55-7.6v86.1l-70.1 70.1v394.8h250.2v-394.8l-70.1-70.1zM979.3 216.9H834.9v394.8l70.1 70.1v84.6c17.5-5 35.9-7.6 55-7.6s37.5 2.7 55 7.6v-84.6l70.1-70.1V216.9H979.3zM758.9 960c0-18.8 2.6-37 7.4-54.3h-85.2l-70.1-70H216.2v250.1H611l70.1-70.1h85.6c-5.1-17.7-7.8-36.4-7.8-55.7z" id="Layer_7"/>
    <path class="st0" d="M1153.7 905.7c4.8 17.3 7.4 35.5 7.4 54.3 0 19.3-2.7 38-7.8 55.7-19.1 66.5-71.7 118.9-138.3 137.8-17.5 5-35.9 7.6-55 7.6s-37.5-2.7-55-7.6c-66.6-18.9-119.2-71.3-138.3-137.8-5.1-17.7-7.8-36.4-7.8-55.7 0-18.8 2.6-37 7.4-54.3 18.8-67.2 71.6-120.2 138.7-139.3 17.5-5 35.9-7.6 55-7.6s37.5 2.7 55 7.6c67.1 19.1 119.9 72.1 138.7 139.3zM1020 960c0-33.2-26.9-60-60-60s-60 26.9-60 60 26.9 60 60 60 60-26.8 60-60z" id="Layer_8"/>
    <circle class="st0" cx="960" cy="960" r="60" id="Layer_9"/>
    <g id="STROKES">
        <g id="XMLID_2_">
            <path class="st1" d="M1153.7 905.7c4.8 17.3 7.4 35.5 7.4 54.3 0 19.3-2.7 38-7.8 55.7-19.1 66.5-71.7 118.9-138.3 137.8-17.5 5-35.9 7.6-55 7.6s-37.5-2.7-55-7.6c-66.6-18.9-119.2-71.3-138.3-137.8-5.1-17.7-7.8-36.4-7.8-55.7 0-18.8 2.6-37 7.4-54.3 18.8-67.2 71.6-120.2 138.7-139.3 17.5-5 35.9-7.6 55-7.6s37.5 2.7 55 7.6c67.1 19.1 119.9 72.1 138.7 139.3z"/>
            <circle class="st1" cx="960" cy="960" r="60"/>
            <path class="st1" d="M1015 766.5v-84.7l70.1-70V216.9H834.9v394.9l70.1 70v84.7"/>
            <path class="st1" d="M905 1153.5v86.1l-70.1 70.1v394.8h250.2v-394.8l-70.1-70.1v-86.1"/>
            <path class="st1" d="M1153.3 1015.7h85.6l70.1 70.1h394.8V835.7H1309l-70.1 70h-85.2"/>
            <path class="st1" d="M766.3 905.7h-85.2l-70.1-70H216.2v250.1H611l70.1-70.1h85.6"/>
        </g>
    </g>
</svg>
