<svg xmlns="http://www.w3.org/2000/svg" viewBox="0 0 1920 1920">
    <style>
        .st0{fill:#fff}.st1{fill:none;stroke:#231f20;stroke-width:50;stroke-linecap:round;stroke-linejoin:round;stroke-miterlimit:10}
    </style>
    <path class="st0" d="M1359.1 359.6v1215.7c0 78.5-64.2 142.7-142.7 142.7H703.6c-78.5 0-142.7-64.2-142.7-142.7V359.6c0-78.5 64.2-142.7 142.7-142.7h512.8c78.5 0 142.7 64.3 142.7 142.7zm-86 1139.4V399.1H646.9V1499h626.2zm-271.6 112.2c0-22.9-18.6-41.5-41.5-41.5s-41.5 18.6-41.5 41.5 18.6 41.5 41.5 41.5 41.5-18.6 41.5-41.5z" id="Layer_5"/>
    <path class="st0" d="M646.9 399.1h626.2V1499H646.9z" id="Layer_6"/>
    <circle class="st0" cx="960" cy="1611.2" r="41.5" id="Layer_7"/>
    <g id="STROKES">
        <path class="st1" d="M1216.4 1718H703.6c-78.5 0-142.7-64.2-142.7-142.7V359.6c0-78.5 64.2-142.7 142.7-142.7h512.8c78.5 0 142.7 64.2 142.7 142.7v1215.7c0 78.5-64.2 142.7-142.7 142.7z"/>
        <path class="st1" d="M646.9 399.1h626.2V1499H646.9z"/>
        <path class="st1" d="M893.7 304.8h132.6"/>
        <circle class="st1" cx="960" cy="1611.2" r="41.5"/>
    </g>
</svg>
