<svg xmlns="http://www.w3.org/2000/svg" viewBox="0 0 1920 1920">
    <style>
        .st0{fill:#fff}.st1{fill:none;stroke:#231f20;stroke-width:50;stroke-linecap:round;stroke-linejoin:round;stroke-miterlimit:10}
    </style>
    <path class="st0" d="M1032.3 1064.6H743.2v418.1H1169v-418.1z" id="Layer_2"/>
    <path class="st0" d="M743.2 399.1h433.5v568.4H743.2z" id="Layer_3"/>
    <g id="Layer_4">
        <path class="st0" d="M1273.1 343.3v1248.3H646.9V343.3c0-69.5 56.9-126.4 126.4-126.4h373.4c69.5 0 126.4 56.9 126.4 126.4zm-96.3 624.2V399.1H743.2v568.4h433.6zm-7.8 515.2v-418.1H743.3v418.1H1169z"/>
        <path class="st0" d="M646.9 1591.6h626.2c0 69.5-56.9 126.4-126.4 126.4H773.3c-69.5 0-126.4-56.8-126.4-126.4z"/>
    </g>
    <g id="STROKES">
        <path class="st1" d="M1273.1 1591.6c0 69.5-56.9 126.4-126.4 126.4H773.3c-69.5 0-126.4-56.9-126.4-126.4V343.3c0-69.5 56.9-126.4 126.4-126.4h373.4c69.5 0 126.4 56.9 126.4 126.4v1248.3z"/>
        <path class="st1" d="M743.2 399.1h433.5v568.4H743.2z"/>
        <path class="st1" d="M908 304.8h104"/>
        <path class="st1" d="M646.9 1591.6h626.2"/>
        <path class="st1" d="M887.7 1064.6v418.1"/>
        <path class="st1" d="M1032.3 1064.6v418.1"/>
        <path class="st1" d="M1169 1201.4H751"/>
        <path class="st1" d="M1169 1345.9H751"/>
        <path class="st1" d="M1032.3 1064.6H1169v418.1H743.2v-418.1h144.5z"/>
    </g>
</svg>
