<svg xmlns="http://www.w3.org/2000/svg" viewBox="0 0 1920 1920">
    <style>
        .st0{fill:#fff}.st1{fill:none;stroke:#231f20;stroke-width:50;stroke-linecap:round;stroke-linejoin:round;stroke-miterlimit:10}
    </style>
    <path class="st0" d="M680 1275.9s122 74.1 122-71.9c0-144.9-98.7-122.4-100.2-122 30.5-26.2 17.4-124.2 17.4-124.2C701.8 733.4 913 755.2 913 755.2l11.4-371.8c.4-12.4-4.4-24.4-13.1-33.1l-15.6-15.5c-8.4-8.4-13.1-19.9-13.1-31.8v-17.7c0-9 2.7-17.8 7.8-25.3l15.9-23.4c4.2-6.1 9.8-11.1 16.1-14.4 6.4-3.4 13.6-5.2 21-5.2h33.1c14.9 0 28.8 7.4 37.1 19.7l15.9 23.4c5.1 7.5 7.8 16.2 7.8 25.3v17.7c0 11.9-4.7 23.3-13.2 31.8l-15.6 15.5c-8.8 8.8-13.5 20.8-13.1 33.1l11.4 371.8s211.3-21.8 193.8 202.7c0 0-13.1 98 17.4 124.2-1.5-.3-100.2-22.8-100.2 122 0 146 122 71.9 122 71.9s-4.4 63.2 39.2 135.1c43.6 71.9 46.2 292-302.7 292h-33.1c-348.8 0-346.3-220.1-302.7-292 43.9-72.1 39.5-135.3 39.5-135.3z" id="Layer_4"/>
    <g id="STROKES">
        <g id="XMLID_2_">
            <path class="st1" d="M701.8 1082c1.5-.4 100.2-22.8 100.2 122 0 146-122 71.9-122 71.9s4.4 63.2-39.2 135.1c-43.6 71.9-46.2 292 302.7 292h33.1c348.8 0 346.3-220.1 302.7-292-43.6-71.9-39.2-135.1-39.2-135.1s-122 74.1-122-71.9c0-144.9 98.7-122.4 100.2-122"/>
            <path class="st1" d="M1218.2 1082c-30.5-26.2-17.4-124.2-17.4-124.2 17.4-224.4-193.8-202.7-193.8-202.7l-11.4-371.8c-.4-12.4 4.4-24.4 13.1-33.1l15.6-15.5c8.4-8.4 13.2-19.9 13.2-31.8v-17.7c0-9-2.7-17.8-7.8-25.3l-15.9-23.4c-8.4-12.3-22.3-19.7-37.1-19.7h-33.1c-7.4 0-14.6 1.8-21 5.2-6.4 3.4-12 8.3-16.1 14.4L890.4 260c-5.1 7.5-7.8 16.2-7.8 25.3V303c0 11.9 4.7 23.3 13.1 31.8l15.6 15.5c8.8 8.8 13.5 20.8 13.1 33.1L913 755.2s-211.3-21.8-193.8 202.7c0 0 13.1 98-17.4 124.2"/>
            <path class="st1" d="M869.5 428h45"/>
            <path class="st1" d="M869.5 517.9h45"/>
            <path class="st1" d="M1050.4 428h-44.9"/>
            <path class="st1" d="M1050.4 517.9h-44.9"/>
        </g>
    </g>
</svg>
