<svg xmlns="http://www.w3.org/2000/svg" viewBox="0 0 1920 1920">
    <style>
        .st0{fill:#fff}.st1{fill:none;stroke:#231f20;stroke-width:50;stroke-linecap:round;stroke-linejoin:round;stroke-miterlimit:10}
    </style>
    <path class="st0" d="M1254 1285.5s-91.6 9.4-91.6-98.4c0-107.1 90.3-107.9 91.5-107.9-1.1-.5-72.1-31.7-86.6-192.3-1.9-20.9-6.8-39.1-13.8-54.8-31.5-70.6-106.4-93.6-153.3-101l.2-1.5V217h-80.9v512.6l.2 1.5C862.4 740.2 763 772.5 752.6 887c-2.7 30.3-7.5 56-13.4 77.8-25.7 94.3-73.2 114.5-73.2 114.5s98.5.1 98.5 107.9c0 107.8-98.5 98.4-98.5 98.4s-101.1 357.2 269.3 372.3l-49.1-232.4h147.6l-49.1 232.4c370.4-15.2 269.3-372.4 269.3-372.4z" id="Layer_2"/>
    <path class="st0" d="M1033.8 1425.4l-49.1 232.4c-8 .3-16.2.5-24.7.5s-16.7-.2-24.7-.5l-49.1-232.4h147.6z" id="Layer_3"/>
    <g id="STROKES">
        <g id="XMLID_2_">
            <path class="st1" d="M1254 1079.1c-1.3 0-91.5.8-91.5 107.9 0 107.8 91.5 98.4 91.5 98.4s101.1 357.2-269.3 372.3c-8 .3-16.2.5-24.7.5s-16.7-.2-24.7-.5c-370.4-15-269.3-372.2-269.3-372.2s98.5 9.4 98.5-98.4c0-107.8-98.5-107.9-98.5-107.9s47.5-20.1 73.2-114.5c5.9-21.8 10.7-47.5 13.4-77.8C763 772.5 862.4 740.1 919.8 731c23.7-3.8 40.2-3.6 40.2-3.6s16.5-.2 40.2 3.6c46.8 7.4 121.8 30.4 153.3 101 7 15.8 11.9 33.9 13.8 54.8 14.5 160.6 85.5 191.9 86.7 192.3"/>
            <path class="st1" d="M919.5 729.5V216.9h81v512.6"/>
            <path class="st1" d="M849.7 306.7h69.8"/>
            <path class="st1" d="M1000.5 306.7h69.8"/>
            <path class="st1" d="M849.7 369.4h69.8"/>
            <path class="st1" d="M1000.5 369.4h69.8"/>
            <path class="st1" d="M890.9 1128.5s-34.9 2.9-34.9 66.5c0 63.7-27.5 62.2-27.5 62.2"/>
            <path class="st1" d="M1029.1 1128.5s34.9 2.9 34.9 66.5c0 63.7 27.5 62.2 27.5 62.2"/>
            <path class="st1" d="M935.4 1658.2l-.1-.4-49.1-232.4H960"/>
            <path class="st1" d="M984.6 1658.2l.1-.4 49.1-232.4H960v-698"/>
            <path class="st1" d="M960 1658.3v44.8"/>
            <path class="st1" d="M381.4 1079.3l71.3-22.9 286.5-91.7L960 894l193.5-61.9 385.1-123.3"/>
            <path class="st1" d="M436.7 1010.6l16 45.8 15.2 43.3"/>
        </g>
    </g>
</svg>
