<svg xmlns="http://www.w3.org/2000/svg" viewBox="0 0 1920 1920">
    <style>
        .st0{fill:#fff}.st1{fill:none;stroke:#231f20;stroke-width:50;stroke-linecap:round;stroke-linejoin:round;stroke-miterlimit:10}
    </style>
    <path class="st0" d="M1033.9 714.2s195.2-20.1 179.1 187.2c0 0-12.1 90.6 16.1 114.8-1.4-.3-92.6-21.1-92.6 112.8 0 134.9 112.7 66.4 112.7 66.4s-4 58.4 36.2 124.8S1328 1590 1005.7 1590h-61.2c-322.3 0-319.9-203.4-279.7-269.8 40.3-66.4 36.2-124.8 36.2-124.8s113 68.5 113-66.4c0-133.8-91.2-113.1-92.6-112.8 28.2-24.2 16.1-114.8 16.1-114.8C721.4 694 916.6 714.2 916.6 714.2l10.6-343.5c.3-11.4-4-22.5-12.1-30.6l-14.4-14.4c-7.8-7.8-12.1-18.3-12.1-29.3V280c0-8.3 2.5-16.4 7.2-23.3l14.7-21.6c7.7-11.4 20.6-18.2 34.3-18.2h61.1c6.9 0 13.5 1.7 19.4 4.8 5.9 3.1 11.1 7.7 14.9 13.3l14.7 21.6c4.7 6.9 7.2 15 7.2 23.3v16.4c0 11-4.4 21.6-12.2 29.3l-14.4 14.4c-8.1 8.1-12.5 19.2-12.1 30.6l10.5 343.6z" id="Layer_5"/>
    <path class="st0" d="M425 1393.3h76.3v196.8H425z" id="Layer_6"/>
    <path class="st0" d="M501.3 614.8v777H425V653.6c0-22.5 17.5-41.1 40-42.6l18.7-1.2c2.9-.1 5.3 2.2 17.6 5z" id="Layer_7"/>
    <g id="STROKES">
        <g id="XMLID_2_">
            <path class="st1" d="M425 1590.1v-935c0-22.5 17.5-41.1 40-42.5l18.7-1.2c2.9-.2 5.3 2.1 17.6 5v973.8H425z"/>
            <path class="st1" d="M425 1590.1v113"/>
            <path class="st1" d="M501.3 1393.3H425"/>
            <path class="st1" d="M876.4 411.9h49.5"/>
            <path class="st1" d="M876.4 495h47"/>
            <path class="st1" d="M907.6 1049v144"/>
            <path class="st1" d="M1229.1 1016.2c-1.4-.3-92.6-21.1-92.6 112.7 0 134.9 112.7 66.4 112.7 66.4s-4 58.4 36.2 124.8 42.6 269.8-279.7 269.8h-61.2c-322.3 0-319.9-203.4-279.7-269.8 40.3-66.4 36.2-124.8 36.2-124.8s113 68.6 113-66.3c0-133.8-91.2-113.1-92.6-112.8"/>
            <path class="st1" d="M721.4 1016.2c28.2-24.2 16.1-114.8 16.1-114.8C721.4 694 916.6 714.2 916.6 714.2l10.6-343.5c.3-11.4-4-22.5-12.1-30.6l-14.4-14.4c-7.8-7.8-12.1-18.3-12.1-29.3V280c0-8.3 2.5-16.4 7.2-23.3l14.7-21.6c7.7-11.4 20.6-18.2 34.3-18.2h61.1c6.9 0 13.5 1.7 19.4 4.8 5.9 3.1 11.1 7.7 14.9 13.3l14.7 21.6c4.7 6.9 7.2 15 7.2 23.3v16.4c0 11-4.4 21.6-12.2 29.3l-14.4 14.4c-8.1 8.1-12.5 19.2-12.1 30.6l10.6 343.5s195.2-20.1 179.1 187.2c0 0-12.1 90.6 16.1 114.8"/>
            <path class="st1" d="M1074.1 411.9h-49.5"/>
            <path class="st1" d="M1074.1 495h-46.9"/>
            <path class="st1" d="M1043 1049v144"/>
            <path class="st1" d="M975.3 1590.1v113"/>
        </g>
    </g>
</svg>
