<svg xmlns="http://www.w3.org/2000/svg" viewBox="0 0 1920 1920">
    <style>
        .st0{fill:#fff}.st1{fill:none;stroke:#231f20;stroke-width:50;stroke-linecap:round;stroke-linejoin:round;stroke-miterlimit:10}
    </style>
    <path class="st0" d="M1583.6 923.8v25.9c0 34.4-28.2 62.6-62.6 62.6h-154.9c-34.4 0-62.6-28.2-62.6-62.6v-25.9c0-34.4 28.2-62.6 62.6-62.6H1521c34.4.1 62.6 28.2 62.6 62.6zm-302.7 181.8H550.6c-28.4 0-51.6 23.2-51.6 51.6v92.2c0 28.4 23.2 51.6 51.6 51.6h818.7c28.4 0 51.6-23.2 51.6-51.6v-92.2c0-28.4-23.2-51.6-51.6-51.6h-88.4zm-190.7-299.2c30.3 0 54.9 24.6 54.9 54.9 0 30.3-24.6 54.8-54.9 54.8-30.3 0-54.8-24.6-54.8-54.8 0-30.3 24.5-54.9 54.8-54.9zm0-356.2c30.3 0 54.9 24.6 54.9 54.9 0 30.3-24.6 54.9-54.9 54.9-30.3 0-54.8-24.6-54.8-54.9 0-30.4 24.5-54.9 54.8-54.9zM829.8 806.4c30.3 0 54.8 24.6 54.8 54.9 0 30.3-24.6 54.8-54.8 54.8-30.3 0-54.9-24.6-54.9-54.8 0-30.3 24.6-54.9 54.9-54.9zm0-356.2c30.3 0 54.8 24.6 54.8 54.9 0 30.3-24.6 54.9-54.8 54.9-30.3 0-54.9-24.6-54.9-54.9 0-30.4 24.6-54.9 54.9-54.9zm232.8-233.3H857.4c-120 0-218.2 98.2-218.2 218.3v670.4h641.7V435.2c0-120-98.2-218.3-218.3-218.3zM399 861.3c-34.4 0-62.6 28.2-62.6 62.6v25.9c0 34.4 28.2 62.6 62.6 62.6h154.9c34.4 0 62.6-28.2 62.6-62.6v-25.9c0-34.4-28.2-62.6-62.6-62.6H399z" id="Layer_4"/>
    <path class="st0" d="M829.8 806.4c30.3 0 54.8 24.6 54.8 54.9 0 30.3-24.6 54.8-54.8 54.8-30.3 0-54.9-24.6-54.9-54.8 0-30.3 24.6-54.9 54.9-54.9zm260.4 109.7c30.3 0 54.9-24.6 54.9-54.8 0-30.3-24.6-54.9-54.9-54.9-30.3 0-54.8 24.6-54.8 54.9 0 30.2 24.5 54.8 54.8 54.8zm0-356.2c30.3 0 54.9-24.6 54.9-54.9 0-30.3-24.6-54.9-54.9-54.9-30.3 0-54.8 24.6-54.8 54.9 0 30.3 24.5 54.9 54.8 54.9zM774.9 505c0 30.3 24.6 54.9 54.9 54.9 30.3 0 54.8-24.6 54.8-54.9 0-30.3-24.6-54.9-54.8-54.9-30.3.1-54.9 24.6-54.9 54.9z" id="Layer_5"/>
    <path class="st0" d="M1348.7 1301.1v402h-90.4v-402h90.4zm-777.4 0v402h90.4v-402h-90.4z" id="Layer_6"/>
    <g id="STROKES">
        <path class="st1" d="M1280.9 1105.6h88.5c28.4 0 51.6 23.2 51.6 51.6"/>
        <path class="st1" d="M499 1157.2c0-28.4 23.2-51.6 51.6-51.6h88.5"/>
        <path class="st1" d="M571.3 1301.1h-20.7c-28.4 0-51.6-23.2-51.6-51.6v-46.1"/>
        <path class="st1" d="M1258.3 1301.1H661.7"/>
        <path class="st1" d="M1421 1203.3v46.1c0 28.4-23.2 51.6-51.6 51.6h-20.7"/>
        <path class="st1" d="M571.3 1301.1h90.4v402h-90.4z"/>
        <path class="st1" d="M1258.3 1301.1h90.4v402h-90.4z"/>
        <path class="st1" d="M553.9 861.3c34.4 0 62.6 28.2 62.6 62.6v25.9c0 34.4-28.2 62.6-62.6 62.6H399c-34.4 0-62.6-28.2-62.6-62.6v-25.9c0-34.4 28.2-62.6 62.6-62.6h154.9z"/>
        <path class="st1" d="M499 1203.3v-191"/>
        <path class="st1" d="M1521 861.3h-154.9c-34.4 0-62.6 28.2-62.6 62.6v25.9c0 34.4 28.2 62.6 62.6 62.6H1521c34.4 0 62.6-28.2 62.6-62.6v-25.9c0-34.5-28.2-62.6-62.6-62.6z"/>
        <path class="st1" d="M1421 1203.3v-191"/>
        <path class="st1" d="M1280.9 1105.6H639.1V435.2c0-120 98.2-218.3 218.2-218.3h205.2c120 0 218.2 98.2 218.2 218.3v670.4z"/>
        <path class="st1" d="M829.8 559.9c-30.3 0-54.9-24.6-54.9-54.9 0-30.3 24.6-54.9 54.9-54.9 30.3 0 54.8 24.6 54.8 54.9 0 30.3-24.5 54.9-54.8 54.9z"/>
        <path class="st1" d="M1090.2 559.9c-30.3 0-54.8-24.6-54.8-54.9 0-30.3 24.6-54.9 54.8-54.9 30.3 0 54.9 24.6 54.9 54.9 0 30.3-24.6 54.9-54.9 54.9z"/>
        <path class="st1" d="M829.8 916.1c-30.3 0-54.9-24.6-54.9-54.8 0-30.3 24.6-54.9 54.9-54.9 30.3 0 54.8 24.6 54.8 54.9 0 30.2-24.5 54.8-54.8 54.8z"/>
        <path class="st1" d="M1090.2 916.1c-30.3 0-54.8-24.6-54.8-54.8 0-30.3 24.6-54.9 54.8-54.9 30.3 0 54.9 24.6 54.9 54.9 0 30.2-24.6 54.8-54.9 54.8z"/>
    </g>
</svg>
