<svg xmlns="http://www.w3.org/2000/svg" viewBox="0 0 1920 1920">
    <style>
        .st0{fill:#fff}.st1{fill:none;stroke:#231f20;stroke-width:50;stroke-linecap:round;stroke-linejoin:round;stroke-miterlimit:10}
    </style>
    <path class="st0" d="M879.5 430.9h143.9c0 39.8-32.2 72-72 72-39.7 0-71.9-32.3-71.9-72zm-97.8-146.1v146.1h339.5V284.8H781.7z" id="Layer_4"/>
    <path class="st0" d="M447.6 1143l79.9 258.9h-293l79.9-258.9h133.2zm255.2-90.5h-79.9L543 1311.4h293.1l-79.9-258.9h-53.4zm849.4 90.5h-79.9l-79.9 258.9h293.1l-79.9-258.9h-53.4zm-300-90.5h-79.9l-79.9 258.9h293.1l-79.9-258.9h-53.4z" id="Layer_5"/>
    <circle class="st0" cx="951.4" cy="1587.2" r="48" id="Layer_6"/>
    <g id="STROKES">
        <path class="st1" d="M879.5 430.9h-97.8V284.8h339.5v146.1h-97.8z"/>
        <path class="st1" d="M380.1 1496.9s-36.5 131.5 131.4 131.5 100.4-237.3 270.2-237.3 169.8 138.7 169.8 138.7v-1027"/>
        <path class="st1" d="M1522.8 1496.9s36.5 131.5-131.4 131.5-100.4-237.3-270.2-237.3-169.8 138.7-169.8 138.7"/>
        <path class="st1" d="M394.2 1143h-79.9l-79.8 258.8h293L447.6 1143z"/>
        <path class="st1" d="M1552.2 1143h-79.8l-79.9 258.8h293l-79.8-258.8z"/>
        <path class="st1" d="M441.4 1419.3c0 33.4-27 60.4-60.4 60.4s-60.4-27-60.4-60.4"/>
        <path class="st1" d="M702.8 1052.5h-79.9L543 1311.4h293.1l-79.9-258.9z"/>
        <path class="st1" d="M750 1328.8c0 33.4-27 60.4-60.4 60.4s-60.4-27-60.4-60.4"/>
        <path class="st1" d="M1252.2 1052.5h-79.9l-79.8 258.9h293l-79.9-258.9z"/>
        <path class="st1" d="M1299.4 1328.8c0 33.4-27 60.4-60.4 60.4s-60.4-27-60.4-60.4"/>
        <path class="st1" d="M1599.4 1419.3c0 33.4-27 60.4-60.4 60.4s-60.4-27-60.4-60.4"/>
        <circle class="st1" cx="951.4" cy="1587.2" r="48"/>
        <path class="st1" d="M1023.4 430.9c0 39.8-32.2 72-72 72-39.7 0-72-32.2-72-72"/>
    </g>
</svg>
