<svg xmlns="http://www.w3.org/2000/svg" viewBox="0 0 1920 1920">
    <style>
        .st0{fill:#fff}.st1{fill:none;stroke:#231f20;stroke-width:50;stroke-linecap:round;stroke-linejoin:round;stroke-miterlimit:10}
    </style>
    <path class="st0" d="M960.7 1558c40.1 0 72.5 32.5 72.5 72.5 0 40.1-32.5 72.6-72.5 72.6-40.1 0-72.5-32.5-72.5-72.6-.1-40.1 32.4-72.5 72.5-72.5zm-455.4-357.4c0 125.8 101.9 227.7 227.7 227.7s227.7-101.9 227.7-227.7H505.3zm648.3 0h-193c0 125.8 101.9 227.7 227.7 227.7s227.7-101.9 227.7-227.7h-262.4zm271.7-118.9c125.8 0 227.7-102 227.7-227.7h-455.4c0 125.8 102 227.7 227.7 227.7zM742.2 854c0 125.8 102 227.7 227.7 227.7s227.7-102 227.7-227.7H742.2zm-455.4 0c0 125.8 102 227.7 227.7 227.7s227.7-102 227.7-227.7H286.8zm673.5-637.1h-98.9l99.2 99.2 99.2-99.2H961" id="Layer_7"/>
    <g id="STROKES">
        <path class="st1" d="M961 216.9h98.9l-99.2 99.2-99.2-99.2h98.8"/>
        <path class="st1" d="M1154.5 1200.6h261.6c0 125.8-101.9 227.7-227.7 227.7s-227.7-101.9-227.7-227.7"/>
        <path class="st1" d="M960.7 1200.6c0 125.8-102 227.7-227.7 227.7s-227.7-101.9-227.7-227.7h648.4"/>
        <path class="st1" d="M1197.6 854H1653c0 125.8-101.9 227.7-227.7 227.7S1197.6 979.8 1197.6 854z"/>
        <path class="st1" d="M742.2 854h455.4"/>
        <path class="st1" d="M742.2 854c0 125.8-101.9 227.7-227.7 227.7S286.8 979.8 286.8 854h455.4z"/>
        <path class="st1" d="M1197.6 854c0 125.8-101.9 227.7-227.7 227.7S742.2 979.8 742.2 854"/>
        <path class="st1" d="M768.1 1200.6c38.9-.1 112.5-15.3 156.5-118.9"/>
        <path class="st1" d="M960.7 841.7V316.1"/>
        <path class="st1" d="M1154.5 1200.6h-.9c-38.8 0-112.7-14.9-156.9-118.9"/>
        <path class="st1" d="M1179.2 1429.2s-120.4-29.9-182.5 118.6"/>
        <path class="st1" d="M742.2 1429.2s120.4-29.9 182.5 118.6"/>
        <path class="st1" d="M1033.2 1630.5c0 40.1-32.5 72.6-72.5 72.6-40.1 0-72.5-32.5-72.5-72.6 0-40.1 32.5-72.5 72.5-72.5s72.5 32.4 72.5 72.5z"/>
    </g>
</svg>
