<svg xmlns="http://www.w3.org/2000/svg" viewBox="0 0 1920 1920">
    <style>
        .st0{fill:#fff}.st1{fill:none;stroke:#231f20;stroke-width:50;stroke-linecap:round;stroke-linejoin:round;stroke-miterlimit:10}
    </style>
    <path class="st0" d="M1156.6 332.5S1112.5 531.1 960 531.1 763.4 332.5 763.4 332.5h393.2z" id="Layer_8"/>
    <path class="st0" d="M1768.5 1164.4c0 36.2-29.3 65.5-65.5 65.5s-65.5-29.3-65.5-65.5 29.3-65.5 65.5-65.5 65.5 29.3 65.5 65.5zm-463.2 0c0 36.2 29.3 65.5 65.5 65.5s65.5-29.3 65.5-65.5-29.3-65.5-65.5-65.5-65.5 29.3-65.5 65.5zm-824.6 0c0 36.2 29.3 65.5 65.5 65.5s65.5-29.3 65.5-65.5-29.3-65.5-65.5-65.5-65.5 29.3-65.5 65.5zm-329.2 0c0 36.2 29.3 65.5 65.5 65.5s65.5-29.3 65.5-65.5-29.3-65.5-65.5-65.5-65.5 29.3-65.5 65.5z" id="Layer_9"/>
    <g id="STROKES">
        <path class="st1" d="M1165.4 1304.3c-113.4 0-205.3-91.9-205.3-205.4 0-113.4 91.9-205.4 205.3-205.4s205.4 92 205.4 205.4"/>
        <path class="st1" d="M549.3 1098.9c0-113.4 91.9-205.4 205.4-205.4s205.4 92 205.4 205.4-91.9 205.4-205.4 205.4"/>
        <path class="st1" d="M960 1069.4V531.1"/>
        <path class="st1" d="M960 1485.2v-415.7"/>
        <path class="st1" d="M546.1 1098.9c36.2 0 65.5 29.3 65.5 65.5s-29.3 65.5-65.5 65.5-65.5-29.3-65.5-65.5c.1-36.2 29.4-65.5 65.5-65.5z"/>
        <path class="st1" d="M216.9 1098.9c36.2 0 65.5 29.3 65.5 65.5s-29.3 65.5-65.5 65.5-65.5-29.3-65.5-65.5c.1-36.2 29.4-65.5 65.5-65.5z"/>
        <path class="st1" d="M1370.7 1098.9c36.2 0 65.5 29.3 65.5 65.5s-29.3 65.5-65.5 65.5-65.5-29.3-65.5-65.5c.1-36.2 29.4-65.5 65.5-65.5z"/>
        <path class="st1" d="M1703.1 1098.9c36.1 0 65.4 29.3 65.4 65.5s-29.3 65.5-65.5 65.5-65.5-29.3-65.5-65.5c.1-36.2 29.4-65.5 65.6-65.5z"/>
        <path class="st1" d="M960 1076.7s.4-5.9.3-16.2c0-2.9-.1-6.2-.3-9.8-3.4-83.1-41.8-336.6-382.5-336.6-362.2 0-360.6 384.9-360.6 384.9"/>
        <path class="st1" d="M1703.1 1098.9S1728 714 1320.7 714c-327.9 0-357.7 291.2-360.3 346.4-.3 5.2-.3 8.3-.3 8.9v.1"/>
        <path class="st1" d="M960 531.1c152.5 0 196.6-198.6 196.6-198.6H763.4S807.5 531.1 960 531.1"/>
        <path class="st1" d="M959.8 1493.6c0 51.9-42.1 93.9-93.9 93.9-51.9 0-93.9-42.1-93.9-93.9"/>
        <path class="st1" d="M1148 1493.6c0 51.9-42.1 93.9-93.9 93.9-51.9 0-93.9-42.1-93.9-93.9"/>
    </g>
</svg>
