<svg xmlns="http://www.w3.org/2000/svg" viewBox="0 0 1920 1920">
    <style>
        .st0{fill:#fff}.st1{fill:none;stroke:#231f20;stroke-width:50;stroke-linecap:round;stroke-linejoin:round;stroke-miterlimit:10}
    </style>
    <path class="st0" d="M1703.1 877.8c0 330.4-332.7 598.3-743 598.3-91.5 0-179.1-13.3-260-37.7-212.4 171.5-483 215.3-483 215.3 161.3-65.8 202.7-235.2 210.1-359C297 1187 217 1039.9 217 877.8c0-330.4 332.7-598.3 743.1-598.3 410.3 0 743 267.9 743 598.3z" id="Layer_2"/>
    <g id="STROKES">
        <path class="st1" d="M1703.1 877.8c0 330.4-332.7 598.3-743 598.3-91.5 0-179.1-13.3-260-37.7C487.7 1609.9 217 1653.7 217 1653.7c161.3-65.8 202.7-235.2 210.2-359C297 1187 216.9 1039.9 216.9 877.8c0-330.4 332.7-598.3 743.1-598.3 410.4 0 743.1 267.9 743.1 598.3z"/>
        <path class="st1" d="M1703.1 877.8c0 330.4-332.7 598.3-743 598.3-91.5 0-179.1-13.3-260-37.7-212.4 171.5-483 215.3-483 215.3 161.3-65.8 202.7-235.2 210.1-359C297 1187 217 1039.9 217 877.8c0-330.4 332.7-598.3 743.1-598.3 410.3 0 743 267.9 743 598.3z"/>
    </g>
</svg>
