<svg xmlns="http://www.w3.org/2000/svg" viewBox="0 0 1920 1920">
    <style>
        .st0{fill:#fff}.st1{fill:none;stroke:#231f20;stroke-width:50;stroke-linecap:round;stroke-linejoin:round;stroke-miterlimit:10}
    </style>
    <path class="st0" d="M1544.1 1303.8l159 201.9v85.6l-356.2-263.4h-859c-149.6 0-270.8-121.3-270.8-270.8V612.7c0-149.6 121.3-270.8 270.8-270.8h944.4c149.6 0 270.8 121.3 270.8 270.8V1057c0 109.8-65.2 204.2-159 246.8z" id="Layer_4"/>
    <g id="STROKES">
        <path class="st1" d="M1544.1 1303.8l159 201.9v85.6l-356.3-263.4h-859c-149.6 0-270.8-121.3-270.8-270.8V612.7c0-149.6 121.3-270.8 270.8-270.8h944.4c149.6 0 270.8 121.3 270.8 270.8V1057c.1 109.8-65.1 204.2-158.9 246.8z"/>
        <path class="st1" d="M1544.1 1303.8l159 201.9v85.6l-356.2-263.4h-859c-149.6 0-270.8-121.3-270.8-270.8V612.7c0-149.6 121.3-270.8 270.8-270.8h944.4c149.6 0 270.8 121.3 270.8 270.8V1057c0 109.8-65.2 204.2-159 246.8z"/>
    </g>
</svg>
