<svg xmlns="http://www.w3.org/2000/svg" viewBox="0 0 1920 1920">
    <style>
        .st0{fill:#fff}.st1{fill:none;stroke:#231f20;stroke-width:50;stroke-linecap:round;stroke-linejoin:round;stroke-miterlimit:10}
    </style>
    <path class="st0" d="M1349.8 402.1c-23.8 0-47.1 2.3-69.6 6.7-31.3-54.6-77.7-100.1-133.8-131.1-5.4-3-10.9-5.8-16.4-8.5-7.8-3.8-15.7-7.3-23.8-10.6-.1 0-.1 0-.1-.1-3.6-1.4-7.1-2.8-10.8-4.1-.1 0-.2-.1-.3-.1-1.7-.6-3.4-1.2-5.2-1.8-.1 0-.2-.1-.3-.1-3.6-1.2-7.1-2.4-10.8-3.5-.2-.1-.5-.1-.7-.2-1.7-.5-3.4-1-5-1.5-.1 0-.2-.1-.3-.1-1.8-.5-3.7-1-5.5-1.5-.1 0-.2-.1-.4-.1-1.6-.4-3.3-.9-5-1.3-.3-.1-.7-.2-1-.3-1.7-.4-3.5-.9-5.2-1.3h-.1c-1.8-.4-3.6-.8-5.5-1.3-.3-.1-.6-.1-.9-.2-1.5-.3-3-.7-4.5-1-.4-.1-.8-.2-1.2-.2-1.8-.4-3.6-.7-5.4-1-1.8-.3-3.6-.7-5.4-1-.4-.1-.9-.1-1.3-.2-1.4-.2-2.9-.5-4.4-.7-.4-.1-.8-.1-1.2-.2-1.8-.3-3.6-.5-5.5-.8-.2 0-.4 0-.6-.1-1.6-.2-3.2-.4-4.9-.6-.5-.1-1-.1-1.5-.2-1.5-.2-2.9-.3-4.4-.5-.4 0-.8-.1-1.1-.1-1.8-.2-3.6-.3-5.5-.5-.4 0-.8-.1-1.2-.1-1.5-.1-2.9-.2-4.4-.3-.5 0-1.1-.1-1.6-.1-1.6-.1-3.1-.2-4.7-.3h-.8c-1.8-.1-3.7-.2-5.5-.2h-1.5c-1.4 0-2.8-.1-4.2-.1h-14.5c-1.5 0-3 .1-4.4.1-.4 0-.9 0-1.3.1-1.9.1-3.7.1-5.6.2-.4 0-.8 0-1.2.1-1.5.1-3 .2-4.6.3-.5 0-1 .1-1.6.1-1.7.1-3.4.2-5.1.4h-.5c-1.9.2-3.7.3-5.6.5-.5 0-.9.1-1.4.1-1.5.2-3 .3-4.4.5-.4 0-.8.1-1.3.1-1.9.2-3.7.5-5.6.7-.2 0-.4.1-.7.1-1.6.2-3.2.5-4.9.7-.5.1-.9.1-1.4.2-1.7.3-3.3.5-5 .8-.2 0-.4.1-.5.1-1.8.3-3.7.7-5.5 1-.4.1-.7.1-1.1.2-1.6.3-3.1.6-4.6.9-.4.1-.7.1-1.1.2-3.7.8-7.4 1.6-11 2.5-.3.1-.7.2-1 .2-1.7.4-3.4.8-5.1 1.3-.1 0-.2 0-.3.1-1.9.5-3.8 1-5.6 1.5-.2 0-.3.1-.5.1-1.7.5-3.4.9-5.1 1.4-.2.1-.4.1-.7.2-3.7 1.1-7.3 2.2-11 3.4-.2.1-.3.1-.5.2-5.6 1.8-11.1 3.8-16.5 5.9-.1 0-.1 0-.2.1-12.1 4.7-23.9 10.1-35.4 16-2.3 1.2-4.6 2.4-6.8 3.6-3.4 1.9-6.7 3.8-10.1 5.7-4.4 2.6-8.8 5.3-13.1 8.1-2.1 1.4-4.3 2.8-6.4 4.2-3.2 2.2-6.3 4.4-9.4 6.6-41.1 30.1-75.2 68.6-99.5 113-30.1-8.1-61.9-12.4-94.7-12.4-195.1 0-353.2 152.8-353.2 341.3s158.1 341.2 353.2 341.2c9.5 0 19-.4 28.3-1.1v214.9h757.6v-213.8c195.1 0 353.2-152.8 353.2-341.2s-157.7-341.2-352.8-341.2z" id="Layer_8"/>
    <path class="st0" d="M592.2 1298.4h757.6v389H592.2z" id="Layer_9"/>
    <g id="STROKES">
        <path class="st1" d="M592.2 1298.4h757.6v389H592.2z"/>
        <path class="st1" d="M617.8 573.9c0-188.5 158.1-341.3 353.2-341.3s353.2 152.8 353.2 341.3"/>
        <path class="st1" d="M1349.8 402.1c-23.8 0-47.1 2.3-69.7 6.6-60.2-105-176.1-176.1-309.2-176.1-135.5 0-253.1 73.7-312.4 181.9-30.1-8.1-61.9-12.4-94.7-12.4-195.1 0-353.2 152.8-353.2 341.3s158.1 341.3 353.2 341.3c9.5 0 19-.4 28.3-1.1v214.9h757.6v-213.8c195.1 0 353.2-152.8 353.2-341.3s-158-341.3-353.1-341.3z"/>
        <path class="st1" d="M1211.9 857.4c0 109.4-112.8 198.1-251.9 198.1s-251.9-88.7-251.9-198.1"/>
    </g>
</svg>
