<svg xmlns="http://www.w3.org/2000/svg" viewBox="0 0 1920 1920">
    <style>
        .st0{fill:#fff}.st1{fill:none;stroke:#231f20;stroke-width:50;stroke-linecap:round;stroke-linejoin:round;stroke-miterlimit:10}
    </style>
    <path class="st0" d="M1203.3 1017.2c-8.7-3.1-17.5-5.6-26.4-7.7-64-14.5-132.3-1.1-191.8 32.6-93.3 52.7-165 155.1-165 277.7 0 34.4 4.5 67.6 13 99.3 43.8 163.5 192.9 284 370.3 284 211.7 0 383.3-171.6 383.3-383.3-.1-211.7-214-367.1-383.4-302.6z" id="Layer_5"/>
    <path class="st0" d="M820 1319.8c0 34.4 4.5 67.6 13 99.3-48.9 28.3-105.8 44.4-166.4 44.4-184 0-333.2-149.2-333.2-333.2s185.9-315.6 333.2-263c122.5-46.7 271.6 38.9 318.4 174.8-93.2 52.7-165 155.1-165 277.7z" id="Layer_6"/>
    <g id="STROKES">
        <path class="st1" d="M1280.1 1097.6c-16.1 14.2-53.6 24.1-97.5 24.1-40.8 0-76.3-8.6-93.9-21.3"/>
        <path class="st1" d="M820 1319.8c0 34.4 4.5 67.6 13 99.3-49 28.3-105.8 44.4-166.4 44.4-184 0-333.2-149.2-333.2-333.2s185.9-315.7 333.2-263c122.5-46.7 271.6 38.9 318.4 174.8-93.2 52.7-165 155.1-165 277.7z"/>
        <path class="st1" d="M1586.5 1319.8c0 211.7-171.6 383.3-383.3 383.3-177.3 0-326.5-120.4-370.3-284-8.5-31.7-13-65-13-99.3 0-122.6 71.7-225 165-277.7 59.5-33.6 127.8-47 191.8-32.6 8.9 2 17.7 4.6 26.4 7.7 169.6-64.5 383.4 90.9 383.4 302.6z"/>
        <path class="st1" d="M666.6 867.3s25.7-509.9 655.6-650.3c0 0-265.2 142.1-130.8 880.6"/>
    </g>
</svg>
