<svg xmlns="http://www.w3.org/2000/svg" viewBox="0 0 1920 1920">
    <style>
        .st0{fill:#fff}.st1{fill:none;stroke:#231f20;stroke-width:50;stroke-linecap:round;stroke-linejoin:round;stroke-miterlimit:10}
    </style>
    <path class="st0" d="M1679.7 850.7c-6.6-8.2-13.3-16.6-22.4-21.8-8.3-4.8-18-6.5-27.4-8.1l-142.8-24.9c-17.4-3-34.9-6.1-52.6-6.1-36.2 0-71 12.6-105 25.1-10.9 4-21.9 8.1-31 15.2-14.8 11.6-23 30-37.2 42.3-11.7 10.1-26.5 15.4-40.4 22.3-4.5-8.8-10-17.2-16.3-24.9 11.2-9.2 22.9-17.9 35-26.3 52.4-36.4 109.6-67.9 152.2-116.3 36.3-41.3 59.8-93.7 66.4-148.2 2.1-17.1 2.6-34.6 8.5-50.7 4.3-11.6 11.3-22.2 13.9-34.4 4.5-21.5-5.9-43.5-19-61.2-6.5-8.7-13.8-17-23-22.8-17.3-10.8-38.8-11.4-59-14.5-24.2-3.6-47.7-11.3-69.4-22.5-5.6 19.3-37.5 16.2-47.6 33.6-3.8 6.6-3.5 14.7-5.4 22.1-5.5 21-27.3 32.5-43.6 46.7-28.6 25-43.1 62.9-70.7 89-10.9 10.3-23.6 18.6-34.2 29.3-30.7 31.1-38.4 78.6-35.2 122.1 2.7 35.6 11.6 70.5 16.7 105.8-2.8.2-5.5.4-8.3.7-6.8-53.9-26-108-24.4-162.6.4-13.8 2.2-27.8 0-41.5-3.7-23.2-18.6-43.6-37.4-57.8-4.3-3.3-8.9-6.2-13.6-9-15.6-9-32.8-15.2-50.2-20.2-37.8-10.7-76.9-15.9-115-25.4-15-3.7-30.4-8.2-45.6-5.8-21.6 3.4-40.1 21.7-43.7 43.3-23.4-8.6-55.3-6.9-66.6 15.3-5.3 10.4-4.6 22.8-8.2 33.9-9.7 30.1-48.4 45.8-52.9 77.1-1.2 8.4.4 17 2.6 25.1 14.3 52.4 54.9 92.8 93.8 130.6 14.5 14 29 28.1 45.7 39.4 17.6 11.9 37.3 20.4 56.9 28.8 5.1 2.2 10.3 4.4 15.4 6.6-1.7 10.8-2.2 22.8-2.1 34.7.1 16.3 1.2 32.5 1.9 45.5 4.2 2.2 8.1 4.7 11.4 8 2.5 2.4 4.5 5.2 6.3 8.1-57.3-14.1-112.9-36.3-167.2-62-25.2-.7-50.5 3-75.2 8.1-77.7 15.8-152.9 43.8-222 82.7-17.1 9.6-34.3 20.1-53.5 23.6-15.7 2.8-33.8 1.7-44.9 13.1-9.8 10-10.6 27-21.8 35.4-8.8 6.6-20.9 5.7-31.7 7.9-30.8 6.2-20.4 25.9-4.9 39.3 14.8 12.9 8.5 42.7 26.5 50.6 6.2 2.7 13.4 1.5 20.2 1.7 20.9.5 38.7 14.1 57 24.2 63.6 35.2 140.9 30.1 213.3 24.1 31.5-2.6 63.7-5.4 92.8-17.9 12.4-5.3 24.1-12.4 36.8-16.9 9.5-3.4 19.5-5.4 28.5-10.1 9.8-5.1 17.7-13.2 25.7-20.9 43.2-42 92.7-77.6 146.2-105.2 3 1.9 6.2 3.5 9.5 5 11.6 4.9 24.3 6.3 37 7-7.8 4.6-14.7 9.2-20.2 13.5-43.1 33.4-81.5 81.9-122.1 119.2-35.3 32.5-72.9 69.3-78.1 117-2.4 21.9 2.5 44 8.1 65.3 11.7 44.6 37.3 96.6 83.4 97.7 14.3.3 29-4.6 42.7-.5 30.8 9.4 32.8 54.6 58.4 74.2 48.9-18.2 93.2-48.3 128.1-87.1 27.9-31 49.9-67.4 80.5-95.8 13.5-12.5 29-23.9 36.9-40.6 15.1-32-3.4-68.6-16.3-101.6-13.8-35.1-21.4-72.5-22.6-110.2.8 1.2 1.7 2.5 2.5 3.7 7 10.8 12.7 22.6 20.8 32.5 12.4 15.2 30.2 25.8 49.5 29.2 7.1 1.3 14.6 1.6 21.2-1 10.5-4.1 17.3-14.8 19.9-25.8 2.6-11 1.6-22.4.9-33.7-1.1-17.9-1.5-35.8-1.1-53.8 40.1 9.3 84.2-3.7 126-11 51.5-9 104.2-8.9 155.7-17.8 5.2-.9 10.6-2 15.1-4.7 5.9-3.5 9.8-9.4 14.4-14.4 11.2-12.1 27.6-19.2 44-19.2 4.3 0 8.9.4 12.5-1.9 6.4-4 5.8-13.3 7.8-20.5 4.8-17.7 25.5-24.5 39.8-36 28-22.6 34.1-68.2 67-82.9-8-9.5-15.8-19.3-23.6-29.1zM1071.2 1001c0-.1.1-.1.1-.2.1.3.3.7.4 1-.1-.3-.3-.6-.5-.8z" id="Layer_14"/>
    <g id="STROKES">
        <path class="st1" d="M829 975.9c3.2 1.4 6.5 2.9 9.6 4.5 4.2 2.2 8.1 4.7 11.4 8 8.8 8.7 12.1 21.4 18.2 32.2 11 19.4 32.1 32.6 54.3 34-13.8 5.9-27.4 12.3-40.7 19.2-53.5 27.6-103 63.2-146.2 105.2-7.9 7.7-15.8 15.8-25.7 20.9-8.9 4.7-19 6.7-28.5 10.1-12.7 4.6-24.4 11.6-36.8 16.9-29.1 12.5-61.2 15.3-92.8 17.9-72.4 6-149.7 11.1-213.3-24.1-18.3-10.1-36.1-23.7-57-24.2-6.8-.2-13.9 1.1-20.2-1.6-18-7.8-11.7-37.7-26.6-50.5-15.5-13.4-25.9-33 4.9-39.3 10.8-2.2 22.9-1.3 31.7-7.9 11.2-8.4 12.1-25.4 21.8-35.4 11.1-11.4 29.3-10.3 44.9-13.1 19.3-3.5 36.5-14 53.5-23.6 69.1-39 144.3-67 222-82.7 27.2-5.5 55-9.6 82.7-7.7 46.7 3 90.3 22.2 132.8 41.2z"/>
        <path class="st1" d="M1024.7 1064c25.5 15.5 57.2 20.3 86.1 13.2-3.1 19.8-4.3 39.9-3.6 59.9 1.2 37.6 8.8 75.1 22.6 110.1 13 32.9 31.4 69.6 16.3 101.6-7.9 16.7-23.4 28.1-36.9 40.6-30.6 28.4-52.6 64.8-80.5 95.8-34.9 38.8-79.3 68.9-128.1 87.1-25.6-19.6-27.6-64.8-58.4-74.2-13.7-4.2-28.4.8-42.7.4-46.1-1.2-71.7-53.2-83.4-97.7-5.6-21.3-10.5-43.4-8.1-65.3 5.2-47.7 42.8-84.5 78.1-117 40.6-37.4 79-85.9 122.1-119.2 5.5-4.2 12.4-8.9 20.2-13.5 30.6-18 74.5-35 96.3-21.8z"/>
        <path class="st1" d="M841.3 506c38.1 9.5 77.2 14.7 115 25.4 22.6 6.4 45 14.9 63.8 29.1 18.8 14.2 33.7 34.6 37.4 57.8 2.2 13.7.4 27.6 0 41.5-1.6 54.6 17.5 108.7 24.4 162.6 2.9 22.6 3.6 45.2-.3 67.8-6.5 37.5-25.3 76.8-9.9 111.7-2.6-5.9-25-14.4-30.9-18.2-11.1-6.9-22.2-14.1-32.8-21.9-17.3-12.8-32.1-27-53.6-32.9-15.2-4.2-31.2-4.6-46.8-7-23.8-3.7-46.5-12.2-68.8-21.6-5.2-2.2-10.3-4.4-15.4-6.6-19.5-8.4-39.2-16.9-56.9-28.7-16.7-11.3-31.3-25.4-45.7-39.4-39-37.8-79.5-78.2-93.8-130.6-2.2-8.2-3.8-16.7-2.6-25.1 4.4-31.3 43.1-47 52.8-77.1 3.6-11.1 2.9-23.5 8.2-33.9 11.3-22.2 43.1-23.9 66.6-15.3 3.6-21.6 22.1-39.9 43.7-43.3 15.3-2.4 30.7 2 45.6 5.7z"/>
        <path class="st1" d="M1310.1 373c21.7 11.2 45.3 18.9 69.4 22.5 20.2 3 41.7 3.6 59 14.5 9.2 5.8 16.5 14.1 23 22.8 13.1 17.7 23.5 39.6 19 61.2-2.6 12.1-9.6 22.7-13.9 34.4-6 16.1-6.5 33.6-8.5 50.7-6.6 54.6-30.1 107-66.4 148.2-42.6 48.4-99.9 79.9-152.2 116.3-12.1 8.4-23.8 17.1-35 26.3-13.5 11-26.4 22.7-38.8 35.4-13.3 13.6-17.7 20.3-34.2 9-11.4-7.8-25.4-21.6-31.6-33.9-5.4-10.6-5.8-23-6.8-34.8-.7-8-1.6-15.9-2.8-23.8-5.1-35.3-14-70.2-16.7-105.8-3.3-43.6 4.5-91 35.2-122.2 10.5-10.7 23.3-19 34.2-29.3 27.6-26.1 42.1-64 70.7-89 16.3-14.3 38.1-25.7 43.6-46.7 1.9-7.4 1.6-15.5 5.4-22.1 9.9-17.5 41.8-14.4 47.4-33.7z"/>
        <path class="st1" d="M1487 795.9a372094931922419600 372094931922419600 0 0 0 192.6 54.8c7.8 9.8 15.6 19.6 23.5 29.5-32.9 14.7-38.9 60.3-67 82.9-14.2 11.5-35 18.3-39.8 36-2 7.3-1.4 16.5-7.8 20.5-3.6 2.3-8.2 1.9-12.5 1.9-16.5 0-32.8 7.1-44 19.2-4.6 5-8.6 10.9-14.4 14.4-4.6 2.7-9.9 3.8-15.2 4.7-51.5 8.9-104.2 8.8-155.7 17.8-41.7 7.3-85.9 20.2-126 11-6.9-1.6-13.6-3.8-20.2-6.9-25.1-11.5-34.2-47.2-38.1-73.2-2-13.1 1.3-27.2 8.9-38.2 7.7-11.1 23.3-15.2 29.3-27.2 5.8-11.6-1.7-27.3 5.6-38 2.6-3.8 6.7-6.3 10.8-8.5l3.6-1.8c13.8-6.9 28.7-12.2 40.4-22.3 14.2-12.3 22.4-30.7 37.2-42.3 9.1-7.1 20.2-11.2 31-15.2 34-12.5 68.8-25.1 105-25.1 17.9-.1 35.4 2.9 52.8 6z"/>
        <path class="st1" d="M1131.4 914.2c16.5 11.2 20.9 4.5 34.2-9 12.4-12.6 25.3-24.3 38.8-35.4 6.3 7.7 11.8 16 16.3 24.9l-3.6 1.8c-4.1 2.2-8.2 4.6-10.8 8.5-7.3 10.7.2 26.4-5.6 38-6 12-21.6 16-29.3 27.2-7.6 11-10.9 25.1-8.9 38.2 3.9 25.9 13 61.6 38.1 73.2 6.6 3 13.4 5.3 20.2 6.9-.4 17.9 0 35.9 1.1 53.8.7 11.3 1.7 22.7-.9 33.7-2.5 11-9.3 21.7-19.9 25.8-6.7 2.6-14.2 2.3-21.2 1-19.3-3.5-37.2-14.1-49.5-29.3-8.1-10-13.8-21.7-20.8-32.5-.8-1.2-1.6-2.5-2.5-3.7-.6-20 .6-40.1 3.6-59.9-28.9 7.1-60.6 2.2-86.1-13.2-21.8-13.2-65.7 3.8-96.3 21.8-12.7-.7-25.4-2.1-37-7-3.4-1.4-6.5-3.1-9.5-5 13.3-6.9 26.9-13.3 40.7-19.2-22.2-1.4-43.4-14.6-54.3-34-6.1-10.8-9.4-23.5-18.2-32.2-3.3-3.3-7.2-5.8-11.4-8-1.1-22.5-3.7-54.6.3-80.2 22.3 9.3 45 17.8 68.8 21.6 15.6 2.4 31.6 2.8 46.8 7 21.4 5.9 36.3 20 53.6 32.9 10.5 7.8 21.7 15 32.8 21.9 5.9 3.7 28.4 12.3 30.9 18.2-15.4-34.8 3.4-74.1 9.9-111.7 3.9-22.6 3.2-45.2.3-67.8 2.8-.3 5.5-.5 8.3-.7 1.2 7.9 2.1 15.8 2.8 23.8 1 11.9 1.4 24.2 6.8 34.8 6.2 12.2 20.2 26 31.5 33.8z"/>
        <path class="st1" d="M524.6 681.8c22.4 31 45.7 61.5 72 89.3 95 100.1 224.6 158.7 350.7 214.8"/>
        <path class="st1" d="M475.3 624.3c3.8-8.1 12.9-13.2 21.8-12.4"/>
        <path class="st1" d="M537.4 854.7c135.9 75.2 278 152.3 433.1 159.4"/>
        <path class="st1" d="M463.7 831.3c.6-5.7 3.9-11.2 8.6-14.4-2 5.2-4.9 10.1-8.6 14.4"/>
        <path class="st1" d="M1056.9 1017.8c-96.4-75.7-182.3-164.8-254.4-264"/>
        <path class="st1" d="M750.4 695.3c.7-4.2 4.5-7.6 8.8-8"/>
        <path class="st1" d="M1038.3 1013.5c-3.2.1-6.2-1.7-9-3.4-41.3-25.4-82.5-50.8-123.8-76.1"/>
        <path class="st1" d="M1027.1 1030.8c31.5-185.8 16.3-379.4-44-558"/>
        <path class="st1" d="M943.5 406.5c2.5-6.4 8-11.6 14.6-13.7"/>
        <path class="st1" d="M1052.4 1037.7c68.2-126.6 109.5-267.6 120.2-411"/>
        <path class="st1" d="M1107.8 976.1c68-129.8 120.6-267.6 156.3-409.7"/>
        <path class="st1" d="M1271.6 496.1c3.6 1 7.6.9 11.1-.5"/>
        <path class="st1" d="M1016.5 968.5c-15.4-58.3-34.5-115.6-57.1-171.5"/>
        <path class="st1" d="M919.3 727.8c2.2-.9 4.3-1.8 6.5-2.6"/>
        <path class="st1" d="M1027 1016.3c-31.9 6.4-63.9 11.9-96.1 16.5"/>
    </g>
</svg>
