<svg xmlns="http://www.w3.org/2000/svg" viewBox="0 0 1920 1920">
    <style>
        .st0{fill:#fff}.st1{fill:none;stroke:#231f20;stroke-width:50;stroke-linecap:round;stroke-linejoin:round;stroke-miterlimit:10}
    </style>
    <path class="st0" d="M921.4 1105.1c-4.5-.1-9-.2-13.5-.2-183.7 0-332.6 111.6-332.6 295.2s148.9 304.6 332.6 304.6 332.6-120.9 332.6-304.6c.1-179.2-141.6-289.7-319.1-295z" id="Layer_2"/>
    <path class="st0" d="M1547.4 635c-11.6 3.5-303.4 89.5-444.6-84.9C995.1 417 941.9 328.1 868.7 280c27 1.8 55.2 2.4 84.2 1.1 194.4-8.5 264.4 55.1 376.6 220.3 108.6 159.7 211.1 135.4 217.9 133.6z" id="Layer_4"/>
    <g id="STROKES">
        <path class="st1" d="M1240.6 1400.1c0 183.7-148.9 304.6-332.6 304.6s-332.6-120.9-332.6-304.6 148.9-295.2 332.6-295.2 332.6 111.5 332.6 295.2z"/>
        <path class="st1" d="M996.2 1188.9c-14.5 12.8-48.5 21.8-88.2 21.8-37 0-69-7.8-85-19.2"/>
        <path class="st1" d="M868.7 280c73.2 48.1 126.4 137.1 234.2 270.2 141.2 174.4 433 88.4 444.6 84.9"/>
        <path class="st1" d="M1547.8 634.9s-.1 0-.4.1c-6.8 1.8-109.3 26.1-217.9-133.6-112.3-165.3-182.2-228.8-376.6-220.3-29 1.3-57.2.7-84.2-1.1-154-10.5-268.8-63-268.8-63C1032.7 639.7 908 1210.7 908 1210.7"/>
    </g>
</svg>
