<svg xmlns="http://www.w3.org/2000/svg" viewBox="0 0 1920 1920">
    <style>
        .st0{fill:#fff}.st1{fill:none;stroke:#231f20;stroke-width:50;stroke-linecap:round;stroke-linejoin:round;stroke-miterlimit:10}
    </style>
    <path class="st0" d="M1669.5 750.6c-23.8-22.4-54.4-30.2-93.3-9 38.9-21.2 49-51 43.1-83.2-7.2-39.2-35.8-70.9-73.6-83.6-80.8-27.3-181.9-22.9-280.4 16.2 9.6-117.3-21.9-225.3-80.4-297.8-25-31-64.7-46.9-103.9-40.1-32.2 5.6-56.7 25.4-63.1 69.3 6.4-43.9-11.5-69.8-40.7-84.4-35.6-17.8-78.2-13.8-111 8.7-79.4 54.6-142 154-164.4 274.6-92.7-60.8-195.7-85.2-283.2-72.2-39.4 5.8-73.2 31.9-87.2 69.2-11.5 30.6-6.9 61.8 27.7 89.5-34.5-27.8-66-25.6-93.4-7.8-33.4 21.7-51.6 60.4-48.8 100.1 7.1 101.4 66.8 212.1 169 294.2 11.4 9.2 23.5 17.1 36.1 24-99 83.7-155.6 194.4-160.8 295-2.1 39.8 16.9 78.1 50.6 99.2 27.7 17.3 59.2 18.9 93.2-9.5-34 28.4-38.1 59.6-26 90 14.7 37 49 62.5 88.5 67.6 100.8 13 221.1-23.6 321.8-107.6 8.4-7 16.3-14.6 23.6-22.5 38.8 122.8 118.3 217.1 208.4 260.9 35.8 17.4 78.5 14.9 111.1-8 26.8-18.8 40.5-47.1 27.6-89.5 12.9 42.4 40.1 58.3 72.8 59 39.8.9 76.6-20.8 96.7-55.2 51.3-87.8 64.4-212.8 26.2-338.3-13.1-43.1-38-80.7-69.1-113.2 66.8 8 135.7 3 194.6-29.1 115.2-62.7 193.5-161 218.6-259.6 9.8-38.3-1.3-79.6-30.3-106.9zM940.8 869.8c24 0 43.4 19.4 43.4 43.4 0 8.6-2.5 16.7-6.9 23.4-7.7 12-21.2 20-36.5 20-1.1 0-2.1 0-3.2-.1-22.5-1.6-40.2-20.4-40.2-43.3 0-24 19.4-43.4 43.4-43.4zm-29 111.4c0 2.8-.3 5.5-.8 8.1-1.2 6.4-3.8 12.2-7.4 17.3-7.9 10.9-20.7 18-35.2 18-24 0-43.4-19.4-43.4-43.4 0-4.3.6-8.4 1.8-12.3 5.3-17.9 21.8-31 41.3-31.1h.3c24 0 43.4 19.4 43.4 43.4zm29.1 32.7c-.1-1.2-.1-2.3-.1-3.5 0-3.3.4-6.6 1.1-9.8 4.4-19.3 21.7-33.6 42.3-33.6 12.6 0 23.9 5.4 31.9 13.9 7.2 7.7 11.6 18.1 11.6 29.5 0 14.8-7.4 27.9-18.8 35.7-7 4.8-15.5 7.7-24.6 7.7-22.9 0-41.6-17.6-43.4-39.9z" id="Layer_7"/>
    <path class="st0" d="M977.3 936.6c4.3-6.8 6.9-14.8 6.9-23.4 0-24-19.4-43.4-43.4-43.4s-43.4 19.4-43.4 43.4c0 22.9 17.7 41.6 40.2 43.3 1 .1 2.1.1 3.2.1 15.3 0 28.8-8 36.5-20zm-108.9 1.2h-.3c-19.6.1-36.1 13.2-41.3 31.1-1.1 3.9-1.8 8-1.8 12.3 0 24 19.4 43.4 43.4 43.4 14.5 0 27.3-7.1 35.2-18 3.7-5.1 6.2-10.9 7.4-17.3.5-2.6.8-5.3.8-8.1 0-24-19.4-43.4-43.4-43.4zm147.6 43.1c-7.9-8.6-19.3-13.9-31.9-13.9-20.6 0-37.8 14.4-42.3 33.6-.7 3.1-1.1 6.4-1.1 9.7 0 1.2 0 2.3.1 3.5 1.8 22.3 20.5 39.9 43.2 39.9 9.1 0 17.6-2.8 24.6-7.7 11.3-7.8 18.8-20.9 18.8-35.7.2-11.3-4.2-21.6-11.4-29.4z" id="Layer_8"/>
    <g id="STROKES">
        <path class="st1" d="M1699.8 857.8c-25 98.6-103.4 196.9-218.6 259.6-58.9 32-127.8 37.1-194.6 29.1-144.2-17.3-278.1-95.8-278.1-95.8s.1-1.6.3-4.5c11.3-7.8 18.8-20.9 18.8-35.7 0-11.4-4.4-21.7-11.6-29.5 3.2-21.8 7.8-47.3 14.3-74.8 91.7-56.8 212.8-154.6 231.4-282.2 1.6-11 2.9-22 3.7-32.8 98.5-39.1 199.5-43.5 280.4-16.2 37.7 12.7 66.4 44.4 73.6 83.6 5.9 32.2-4.2 62-43.1 83.2 38.9-21.2 69.5-13.4 93.3 9 28.9 27.1 40 68.4 30.2 107z"/>
        <path class="st1" d="M1329.5 1598c-20.1 34.4-56.9 56.1-96.7 55.2-32.7-.7-59.9-16.6-72.8-59 12.9 42.4-.8 70.8-27.6 89.5-32.6 22.9-75.2 25.4-111.1 8-90.1-43.8-169.6-138.1-208.4-260.9-.6-1.9-1.2-3.7-1.7-5.6-39.1-128.6 36.3-275.2 96.6-365.1 12-17.9 23.4-33.5 33.1-46.3 1.8 22.3 20.5 39.9 43.2 39.9 9.1 0 17.6-2.8 24.6-7.7-.2 2.9-.3 4.5-.3 4.5s133.9 78.4 278.1 95.8c31.1 32.5 56 70.1 69.1 113.2 38.3 125.6 25.2 250.7-26.1 338.5z"/>
        <path class="st1" d="M1185.1 293.3c-25-31-64.7-46.9-103.9-40.1-32.2 5.6-56.7 25.4-63.1 69.3 6.4-43.9-11.5-69.8-40.7-84.4-35.6-17.8-78.2-13.8-111 8.7-79.4 54.6-142 154-164.4 274.6 13.8 9 27.3 18.8 40.5 29.4 105.5 84.8 125.4 250 126 358.2.1 10.1 0 19.7-.3 28.7h.3c24 0 43.4 19.4 43.4 43.4 0 9.5-3 18.2-8.2 25.4-7.9 10.9-20.7 18-35.2 18-24 0-43.4-19.4-43.4-43.4 0-4.3.6-8.4 1.8-12.3-103.1-23.2-289.1-46.8-402 47.4-.9.8-1.8 1.5-2.8 2.3-99 83.7-155.6 194.4-160.8 295-2.1 39.8 16.9 78.1 50.6 99.2 27.7 17.3 59.2 18.9 93.2-9.5-34 28.4-38.1 59.6-26 90 14.7 37 49 62.5 88.5 67.6 100.8 13 221.1-23.6 321.8-107.6 8.4-7 16.3-14.6 23.6-22.5-.6-1.9-1.2-3.7-1.7-5.6-39.1-128.6 36.3-275.2 96.6-365.1 12-17.9 23.4-33.5 33.1-46.3-.1-1.2-.1-2.3-.1-3.5 0-24 19.4-43.4 43.4-43.4 12.6 0 23.9 5.4 31.9 13.9 3.2-21.8 7.8-47.3 14.3-74.8 91.7-56.8 212.8-154.6 231.4-282.2 1.6-11 2.9-22 3.7-32.8 9.4-117.1-22.1-225.2-80.5-297.6zM977.3 936.6c-7.7 12-21.2 20-36.5 20-1.1 0-2.1 0-3.2-.1-22.5-1.6-40.2-20.4-40.2-43.3 0-24 19.4-43.4 43.4-43.4s43.4 19.4 43.4 43.4c0 8.6-2.6 16.6-6.9 23.4z"/>
        <path class="st1" d="M868.1 937.8c-19.6.1-36.1 13.2-41.3 31.1-103.1-23.2-289.1-46.8-402 47.4-.9.8-1.8 1.5-2.8 2.3-12.6-6.9-24.7-14.9-36.1-24-102.2-82.2-161.9-192.8-169-294.2-2.8-39.7 15.4-78.4 48.8-100.1 27.4-17.8 58.8-20 93.4 7.8-34.5-27.8-39.2-58.9-27.7-89.5 14-37.3 47.8-63.4 87.2-69.2 87.6-13 190.6 11.5 283.2 72.2 13.8 9 27.3 18.8 40.5 29.4 105.5 84.8 125.4 250 126 358.2.2 10 .1 19.6-.2 28.6z"/>
        <path class="st1" d="M984.2 913.2c0 8.6-2.5 16.7-6.9 23.4-7.7 12-21.2 20-36.5 20-1.1 0-2.1 0-3.2-.1-22.5-1.6-40.2-20.4-40.2-43.3 0-24 19.4-43.4 43.4-43.4 23.9 0 43.4 19.4 43.4 43.4z"/>
        <path class="st1" d="M911.8 981.2c0 9.5-3 18.2-8.2 25.4-7.9 10.9-20.7 18-35.2 18-24 0-43.4-19.4-43.4-43.4 0-4.3.6-8.4 1.8-12.3 5.3-17.9 21.8-31 41.3-31.1h.3c24 0 43.4 19.4 43.4 43.4z"/>
        <path class="st1" d="M1027.6 1010.4c0 14.8-7.4 27.9-18.8 35.7-7 4.8-15.5 7.7-24.6 7.7-22.8 0-41.5-17.6-43.2-39.9-.1-1.2-.1-2.3-.1-3.5 0-24 19.4-43.4 43.4-43.4 12.6 0 23.9 5.4 31.9 13.9 7 7.8 11.4 18.1 11.4 29.5z"/>
    </g>
</svg>
