<svg xmlns="http://www.w3.org/2000/svg" viewBox="0 0 1920 1920">
    <style>
        .st0{fill:#fff}.st1{fill:none;stroke:#231f20;stroke-width:50;stroke-linecap:round;stroke-linejoin:round;stroke-miterlimit:10}
    </style>
    <path class="st0" d="M837.1 999.3c0 177.4-121.6 282.9-299 282.9s-321.2-105.5-321.2-282.9c0-177.4 143.8-321.2 321.2-321.2 165.1 0 281.8 124.5 297.2 284.8 1.2 12 1.8 24.1 1.8 36.4z" id="Layer_7"/>
    <path class="st0" d="M1691.5 1226.9c-76.5-18.6-145.1-161.7-345.5-230.9 133 40.2 327.6 111.3 345.5 133.6 26 32.4 0 97.3 0 97.3z" id="Layer_8"/>
    <g id="STROKES">
        <path class="st1" d="M837.1 999.3c0 177.4-121.6 282.9-299 282.9s-321.2-105.5-321.2-282.9 143.8-321.2 321.2-321.2 299 143.8 299 321.2z"/>
        <path class="st1" d="M711.3 1062.9c-19.7-54.9-21.2-116.1-4.2-171.8"/>
        <path class="st1" d="M695.5 977s399.2-55 621.9 9.8 294.1 220.6 374.1 240c0 0 25.9-64.9 0-97.3-25.9-32.4-425.1-167.7-466.2-162"/>
    </g>
</svg>
