<svg xmlns="http://www.w3.org/2000/svg" viewBox="0 0 1920 1920">
    <style>
        .st0{fill:#fff}.st1{fill:none;stroke:#231f20;stroke-width:50;stroke-linecap:round;stroke-linejoin:round;stroke-miterlimit:10}
    </style>
    <path class="st0" d="M1288.6 390.2v-84.7l-43 4-25.3-47.2c-6.5-12.1-22.2-15.9-33.5-8.1l-66.2 45.8-18.7-66.3c-5.8-20.3-33.5-22.9-42.9-4.1l-47.3 94.5-24-85.1c-6-21.5-36-22.8-43.9-1.9L900 353.8l-50-92.5c-10.3-19.1-38.8-14.7-43 6.5l-25.3 129.1-58-59.6c-14.5-14.9-39.8-4.5-39.7 16.3l.9 117.3-56-33.1c-14.9-8.8-33.9 1.3-34.8 18.6l-3.2 57.6-33.6 8.1-2.7 79.3c-54 123.6 23.1 196.1 60.9 222.7 5.6 3.9 10.3 6.8 13.6 8.8 3.3 1.9 5.3 2.9 5.3 2.9 5.9 3.4 12.2 4.9 18.6 4.9 11.6 0 23.7-4.9 35.4-12.2s33.5-412.7 511.2-285.5l52.8-22.2 14.8-44.4 64.5-44.4-43.1-41.8z" id="Layer_2"/>
    <path class="st0" d="M812.2 862.2c-.2 0-.5 0-.7-.1h-1.2c-.5 0-1.1-.1-1.7-.1-.4 0-.8-.1-1.2-.1-.7-.1-1.4-.1-2.1-.2-.3 0-.7-.1-1.1-.1-1-.1-2-.2-3.1-.3-.7-.1-1.5-.2-2.3-.2-.3 0-.7-.1-1-.1-7.6-.9-17.3-2.2-28-4.2-7.6-1.4-15.7-3.1-23.9-5.2-1.3-.3-2.6-.7-3.8-1-1-.2-1.9-.5-2.8-.8-1.3-.3-2.5-.7-3.8-1.1-2-.6-4.1-1.2-6.1-1.9-.4-.1-.8-.3-1.3-.4-.5-.2-1-.3-1.5-.5-1.5-.5-2.9-1-4.4-1.5-.5-.2-.9-.3-1.4-.5-.3-.1-.5-.2-.8-.3-.7-.3-1.5-.5-2.2-.8-.7-.3-1.4-.5-2.2-.8-.2-.1-.4-.2-.6-.2-1.2-.5-2.5-1-3.7-1.5l-2.1-.9-2.1-.9c-1.4-.6-2.8-1.3-4.2-1.9-.7-.3-1.4-.7-2-1-4.4-2.2-8.6-4.5-12.6-7.1-11.7 7.3-23.8 12.2-35.4 12.2-6.4 0-12.7-1.5-18.6-4.9 0 0-1.9-1-5.3-2.9-3.3-1.9-8-4.8-13.6-8.8-35.9 23.6-79.6 71.5-79.6 165.2v5s159.2-67.9 243.7-57.7c2.2.3 4.4.6 6.5 1h.2c.6.1 1.1.2 1.6.3 1.1.2 2.1.4 3.1.7.3.1.7.2 1 .2.2 0 .4.1.7.2h.1s-.4-5.5-.4-13.5v-7.1c0-.5 0-1 .1-1.5 0-.5 0-1 .1-1.5 0-.5.1-1 .1-1.6 0-.5.1-1.1.1-1.6s.1-1.1.1-1.6.1-1.1.1-1.6c0-.6.1-1.1.1-1.6s.1-1.1.1-1.7c.1-.5.1-1.1.2-1.7.1-.6.1-1.1.2-1.7.1-.6.1-1.1.2-1.7.3-2.1.6-4.1 1-6.2.5-3.1 1.2-6.1 2-9 .1-.5.3-1 .4-1.4.3-1 .6-1.9.9-2.8.3-.9.7-1.8 1-2.7 1.8-4.3 4-8.1 6.8-10.9.6-.6 1.1-1.1 1.7-1.6 1.5-1.2 3.1-2.2 4.9-2.8.8-.3 1.6-.5 2.5-.7 0-.1-1-.2-2.7-.3z" id="Layer_4"/>
    <circle class="st0" cx="943.8" cy="722.7" r="56.7" id="Layer_5"/>
    <path class="st0" d="M1331.6 587.7c-47.5-19.3-91.4-34.1-132.2-44.9-477.7-127.2-511.2 285.5-511.2 285.5 5.5-3.5 10.9-7.5 16.2-11.8 19.9-80.3 93.9-119.2 93.9-119.2 91.8-112.3 176.4-100.8 230-72.7 36.9 19.3 59.1 46.4 59.1 46.4s62.3-34.6 120.5 36c58.3 70.6-2.9 244.9-48.6 264.8-45.7 19.9-11.1 86.7-11.1 86.7-32.2 1.2-102.8-20.8-172.6-46.3.5 1.6 1.1 3.2 1.6 4.8 19.5 59.4 25.6 122.2 19.5 184.4-5.6 56.8-19.5 119.3-53 120.1-12.1.3-25.2-2.9-38.8-9 0 0-82 146.6-77.1 389.2l865-729.9c-212.7-335.5-361.2-384.1-361.2-384.1z" id="Layer_6"/>
    <path class="st0" d="M1208 707c-58.3-70.6-120.5-36-120.5-36s-22.3-27.1-59.1-46.4c-53.7-28.1-138.2-39.7-230 72.7 0 0-73.9 39-93.9 119.2-1.5 6-2.7 12.3-3.5 18.8.7.3 1.4.7 2 1 1.4.7 2.8 1.3 4.2 1.9l2.1.9 2.1.9c1.2.5 2.5 1 3.7 1.5.2.1.4.2.6.2.7.3 1.4.6 2.2.8.7.3 1.4.5 2.2.8.3.1.5.2.8.3.5.2.9.3 1.4.5 1.5.5 2.9 1 4.4 1.5.5.2 1 .3 1.5.5.4.1.8.3 1.3.4 3.3 1.1 6.6 2 9.9 3 1 .3 1.9.5 2.8.8 1.3.3 2.6.7 3.8 1 8.2 2.1 16.3 3.8 23.9 5.2 10.7 2 20.4 3.3 28 4.2.3 0 .7.1 1 .1.8.1 1.5.2 2.3.2 1.1.1 2.1.2 3.1.3.4 0 .7.1 1.1.1.8.1 1.5.1 2.1.2.4 0 .8.1 1.2.1.6 0 1.2.1 1.7.1h1.2c.2 0 .5 0 .7.1 1.7.1 2.7.2 2.8.2-.9.2-1.7.4-2.5.7-1.8.7-3.4 1.6-4.9 2.8-.6.5-1.2 1-1.7 1.6-2.8 2.8-5 6.6-6.8 10.9-.4.9-.7 1.8-1 2.7-.3.9-.6 1.8-.9 2.8-.1.5-.3.9-.4 1.4-.8 2.9-1.5 5.9-2 9-.4 2-.7 4.1-1 6.2-.1.6-.1 1.1-.2 1.7-.1.6-.1 1.1-.2 1.7-.1.6-.1 1.1-.2 1.7 0 .5-.1 1.1-.1 1.7 0 .5-.1 1.1-.1 1.6s-.1 1.1-.1 1.6-.1 1.1-.1 1.6-.1 1.1-.1 1.6-.1 1-.1 1.6c0 .5 0 1-.1 1.5 0 .5 0 1-.1 1.5v7.1c0 8 .4 13.5.4 13.5s-53.3 50-53.3 125c0 19.4 3.6 40.5 12.6 62.9 35.1 87.2 97.9 160.8 153.1 185.7 13.6 6.1 26.7 9.3 38.8 9 33.5-.8 47.3-63.3 53-120.1 6.2-62.2 0-125.1-19.5-184.4-.5-1.6-1.1-3.2-1.6-4.8 69.8 25.5 140.4 47.5 172.6 46.3 0 0-34.6-66.8 11.1-86.7 45.4-19.6 106.6-193.9 48.3-264.5zm-264.2 72.4c-31.3 0-56.7-25.4-56.7-56.7s25.4-56.7 56.7-56.7 56.7 25.4 56.7 56.7-25.4 56.7-56.7 56.7z" id="Layer_7"/>
    <g id="STROKES">
        <path class="st1" d="M1331.6 431.8l-64.5 44.4-14.8 44.4-52.8 22.2C721.7 415.6 688.2 828.3 688.2 828.3c-18.2 11.4-37.4 16.8-54 7.3 0 0-7.7-3.8-18.9-11.7-37.8-26.6-114.9-99.1-60.9-222.7l2.7-79.3 33.6-8.1 3.2-57.6c1-17.3 19.9-27.4 34.8-18.6l56 33.1-.7-117.2c-.2-20.8 25.1-31.2 39.7-16.3l58 59.6 25.3-129c4.2-21.3 32.7-25.6 43-6.5l50.1 92.6 43.8-116.7c7.8-20.9 37.9-19.6 43.9 1.9l23.9 85.3 47.3-94.5c9.4-18.9 37.2-16.3 42.9 4.1l18.7 66.3 66.2-45.8c11.3-7.8 27-4.1 33.5 8.1l25.3 47.2 43-4v84.7l43 41.3z"/>
        <path class="st1" d="M792.7 938.9s-.1 0 0 0h-.1c-4.1-1-8.4-1.8-12.9-2.4-84.5-10.2-243.7 57.7-243.7 57.7-1.6-97 42.9-146.3 79.5-170.3 11.1 7.8 18.9 11.7 18.9 11.7 16.6 9.5 35.8 4.1 54-7.3 4 2.5 8.2 4.9 12.6 7.1 47.5 23.5 114.1 27 114.1 27-27.8 5.3-22.4 76.5-22.4 76.5z"/>
        <path class="st1" d="M779.6 936.6c4.6.5 8.9 1.3 13 2.4-.6-.1-5.6-.7-13-2.4z"/>
        <path class="st1" d="M1159.4 971.8c-45.7 19.9-11.1 86.7-11.1 86.7-32.2 1.2-102.8-20.8-172.6-46.3.5 1.6 1.1 3.2 1.6 4.8 19.5 59.4 25.6 122.2 19.5 184.4-5.6 56.8-19.5 119.3-53 120.1-12.1.3-25.2-2.9-38.8-9-55.2-24.8-118-98.4-153.1-185.7-43.8-108.6 40.8-187.8 40.8-187.8s-5.3-71.2 22.3-76.6c0 0-66.7-3.5-114.1-27 .8-6.5 2-12.8 3.5-18.8 19.9-80.3 93.9-119.2 93.9-119.2 91.8-112.3 176.4-100.8 230-72.7 36.9 19.3 59.1 46.4 59.1 46.4s62.3-34.6 120.5 36c58.4 70.5-2.8 244.8-48.5 264.7z"/>
        <circle class="st1" cx="943.8" cy="722.7" r="56.7"/>
        <path class="st1" d="M975.7 1012.1c-7.1-20.9-15.5-39.6-24.7-49.8"/>
        <path class="st1" d="M827.9 1701.7C823 1459 905 1312.5 905 1312.5c13.6 6.1 26.7 9.3 38.8 9 33.5-.8 47.3-63.3 53-120.1 6.2-62.2 0-125.1-19.5-184.4-.5-1.6-1.1-3.2-1.6-4.8 69.8 25.5 140.4 47.5 172.6 46.3 0 0-34.6-66.8 11.1-86.7 45.7-19.9 106.9-194.2 48.6-264.8-58.3-70.6-120.5-36-120.5-36s-22.3-27.1-59.1-46.4c-53.7-28.1-138.2-39.7-230 72.7 0 0-73.9 39-93.9 119.2-5.2 4.3-10.7 8.3-16.2 11.8 0 0 33.5-412.7 511.2-285.5 40.7 10.9 84.7 25.7 132.2 44.9 0 0 148.5 48.5 361.2 384"/>
    </g>
</svg>
