<svg xmlns="http://www.w3.org/2000/svg" viewBox="0 0 1920 1920">
    <style>
        .st0{fill:#fff}.st1{fill:none;stroke:#231f20;stroke-width:50;stroke-linecap:round;stroke-linejoin:round;stroke-miterlimit:10}
    </style>
    <path class="st0" d="M1663.6 1166.8s23.2-178.2-105.9-278.9c0 0-14.2-178.2-417.1-193.7-26.1-1-50.8-1.7-74-2.1-45.4-36.6-119.6-75-228.4-71.2-203.2 7.1-269.8 54.4-346.9-10.4-77.1-64.8-84.1 10.4-84.1 10.4s-75.3 16.8-49.1 70.7c26.3 53.8 106.9 38.1 164.7 53.8 30.1 8.2 62 31.7 85.7 52.5-29.5 1.2-59.7 4.4-90.4 9.5 0 0-109.9 6.3-140.4-16.6-30.4-23-52.5-66.7-52.5-66.7s-33.9-27.3-58 15.3-65.6-1.1-44.8 56.9c20.8 58 105 77.7 105 77.7s137.8 33.9 153.1 75.4c4.6 12.5 9.2 32.7 16 56.3-32.3 20.5-59.7 59.3-53.3 132.5 14.4 163.9 244.5 241.6 330.7 264.6 54.1 14.4 153.9-2.8 220.9-17.7-.9 4.6-1.4 9-1.4 13.1 0 81.3 168.8 65.8 168.8 65.8s165.3 31 259.6-37.5c0 0 121.4 5.2 218.2-133 0 0 42.6 14.2 59.4-47.8 17.1-62.1-35.8-78.9-35.8-78.9z" id="Layer_12"/>
    <g id="STROKES">
        <path class="st1" d="M1699.8 1245.5c-16.8 62-59.4 47.8-59.4 47.8-96.9 138.2-218.2 133-218.2 133-94.3 68.4-259.6 37.5-259.6 37.5s-186.3 17.1-167.4-78.9c-67 14.9-166.9 32.1-220.9 17.7-86.3-23-316.4-100.7-330.7-264.6-6.4-73.2 21-112 53.3-132.5-6.9-23.6-11.5-43.9-16-56.3-15.3-41.6-153.1-75.5-153.1-75.5s-84.2-19.7-105-77.6c-20.8-58 20.8-14.2 44.8-56.9 24.1-42.7 58-15.3 58-15.3s22 43.7 52.5 66.7 140.4 16.6 140.4 16.6c30.7-5.2 60.9-8.4 90.3-9.5 23.1-.9 45.9-.5 68.1 1.2-.7-36.7 6.8-63.5 6.8-63.5s47.4-49.7 383.1-43.5c23.3.4 47.9 1.1 74 2.1 402.9 15.5 417.1 193.7 417.1 193.7 129.1 100.7 105.9 278.9 105.9 278.9s52.7 16.9 36 78.9z"/>
        <path class="st1" d="M995.1 1384.9c.2-1.2.5-2.5.8-3.7 24.5-100.2 255.7-173 255.7-173-311.2-80.1-209.2-309.8-209.2-309.8 67.1 107.1 241.3 169.9 241.3 169.9s179.9-49.6 197.4 122.1-52.6 177.7-52.6 177.7"/>
        <path class="st1" d="M496.7 1005.5c16.1 55.2 44.7 128.4 115.2 161.3"/>
        <path class="st1" d="M676.7 798.9c107.1 8.3 202.1 47.6 274.4 124.9 106.4 113.7-14.4 340.7-14.4 340.7"/>
        <path class="st1" d="M1066.6 692c-335.7-6.2-383.1 43.5-383.1 43.5s-7.5 26.8-6.8 63.5c-22.2-1.7-44.9-2.1-68.1-1.2-23.8-20.7-55.7-44.3-85.7-52.5-57.8-15.8-138.4 0-164.7-53.8-26.3-53.8 49.1-70.7 49.1-70.7s7-75.2 84.1-10.4 143.7 17.5 346.9 10.4c108.7-3.8 182.8 34.6 228.3 71.2z"/>
        <path class="st1" d="M1557.7 887.8S1395.3 757.5 1016.9 761"/>
    </g>
</svg>
