<svg xmlns="http://www.w3.org/2000/svg" viewBox="0 0 1920 1920">
    <style>
        .st0{fill:none;stroke:#231f20;stroke-miterlimit:10}.st1{fill:#fff}.st2{fill:none;stroke:#231f20;stroke-width:50;stroke-linecap:round;stroke-linejoin:round;stroke-miterlimit:10}
    </style>
    <path class="st1" d="M960 216.9c410.4 0 743.1 332.7 743.1 743S1370.4 1703 960 1703s-743-332.7-743-743.1 332.6-743 743-743zM1387.7 960c0-236.2-191.5-427.7-427.7-427.7S532.3 723.8 532.3 960s191.5 427.7 427.7 427.7 427.7-191.5 427.7-427.7z" id="Layer_5"/>
    <path class="st1" d="M960 532.3c236.2 0 427.7 191.5 427.7 427.7s-191.5 427.7-427.7 427.7S532.3 1196.2 532.3 960 723.8 532.3 960 532.3zM1240.6 960c0-155-125.6-280.6-280.6-280.6S679.4 805 679.4 960 805 1240.6 960 1240.6s280.6-125.7 280.6-280.6z" id="Layer_6"/>
    <circle class="st1" cx="960" cy="960" r="280.6" id="Layer_7"/>
    <g id="Strokes">
        <circle class="st2" cx="960" cy="960" r="743"/>
        <circle class="st2" cx="960" cy="960" r="280.6"/>
        <circle class="st2" cx="960" cy="960" r="427.7"/>
    </g>
</svg>
