<svg xmlns="http://www.w3.org/2000/svg" viewBox="0 0 1920 1920">
    <style>
        .st0{fill:#fff}.st1{fill:none;stroke:#231f20;stroke-width:50;stroke-linecap:round;stroke-linejoin:round;stroke-miterlimit:10}
    </style>
    <path class="st0" d="M492 1563.5l-62.7 30.7c-201.4 201.4-304.8 97.9-103.4-103.4l30.7-62.7L492 1563.5zM1408.1 217s-10.5 170.1-98.3 257.9l-22 22 135.4 135.4 22-22C1532.9 522.5 1703 512 1703 512s5.8-64-112.6-182.4C1472 211.2 1408.1 217 1408.1 217zm-120.4 279.9L356.5 1428 492 1563.5l931.2-931.2-135.5-135.4z" id="Layer_5"/>
    <path class="st0" d="M305.8 620.1c42.1 0 76.2 34.1 76.2 76.2s-34.1 76.2-76.2 76.2-76.2-34.1-76.2-76.2c-.1-42.1 34.1-76.2 76.2-76.2zm260.8 76.2c0 42.1 34.1 76.2 76.2 76.2s76.2-34.1 76.2-76.2-34.1-76.2-76.2-76.2-76.2 34.1-76.2 76.2z" id="Layer_6"/>
    <path class="st0" d="M1287.7 1506c42.1 0 76.2 34.1 76.2 76.2s-34.1 76.2-76.2 76.2-76.2-34.1-76.2-76.2c0-42 34.1-76.2 76.2-76.2z" id="Layer_7"/>
    <g id="STROKES">
        <g id="XMLID_1_">
            <path class="st1" d="M1590.4 329.6C1472 211.2 1408.1 217 1408.1 217s-10.5 170.1-98.3 257.9l-22 22L356.5 1428l-30.7 62.7c-201.4 201.4-97.9 304.8 103.4 103.4l62.7-30.7 931.2-931.2 22-22C1532.9 522.5 1703 512 1703 512s5.8-64-112.6-182.4"/>
            <path class="st1" d="M356.5 1428L492 1563.5"/>
            <path class="st1" d="M1247.3 672.7l-45.9 45.9"/>
            <path class="st1" d="M1090 830l-45.9 45.9"/>
            <path class="st1" d="M932.7 987.3l-45.9 45.9"/>
            <path class="st1" d="M775.4 1144.6l-45.9 45.9"/>
            <path class="st1" d="M618.1 1301.9l-45.9 45.9"/>
            <path class="st1" d="M1287.7 496.9l135.4 135.4"/>
            <circle class="st1" cx="305.8" cy="696.3" r="76.2"/>
            <circle class="st1" cx="642.8" cy="696.3" r="76.2"/>
            <path class="st1" d="M382 696.3V311.6h337.1v394.2"/>
            <path class="st1" d="M1364 1582.3c0 42.1-34.1 76.2-76.2 76.2s-76.2-34.1-76.2-76.2 34.1-76.2 76.2-76.2 76.2 34.1 76.2 76.2z"/>
            <path class="st1" d="M1364 1582.3v-384.8"/>
        </g>
    </g>
</svg>
