<svg xmlns="http://www.w3.org/2000/svg" viewBox="0 0 1920 1920">
    <style>
        .st0{fill:#fff}.st1{fill:none;stroke:#231f20;stroke-width:50;stroke-linecap:round;stroke-linejoin:round;stroke-miterlimit:10}
    </style>
    <path class="st0" d="M1033.8 1487.6v215.5H960c0-86-73.8-215.5-73.8-215.5h147.6zM799.3 254.9s86.9 98.4 86.9 194.1v1038.6h147.6V449c0-95.7 86.9-194.1 86.9-194.1s-31.7-38-160.7-38-160.7 38-160.7 38z" id="Layer_4"/>
    <g id="STROKES">
        <g id="XMLID_1_">
            <path class="st1" d="M960 216.9c129 0 160.7 38 160.7 38s-86.9 98.4-86.9 194.1v1254.1H960c0-86-73.8-215.5-73.8-215.5V449c0-95.7-86.9-194.1-86.9-194.1s31.7-38 160.7-38"/>
            <path class="st1" d="M816.2 1088.4H869"/>
            <path class="st1" d="M816.2 973H869"/>
            <path class="st1" d="M816.2 857.6H869"/>
            <path class="st1" d="M799.3 785.1v375.8"/>
            <path class="st1" d="M886.2 1487.6h147.6"/>
        </g>
    </g>
</svg>
