<svg xmlns="http://www.w3.org/2000/svg" viewBox="0 0 1920 1920">
    <style>
        .st0{fill:#fff}.st1{fill:none;stroke:#231f20;stroke-width:50;stroke-linecap:round;stroke-linejoin:round;stroke-miterlimit:10}
    </style>
    <path class="st0" d="M1557.3 362.7L1703 508.4c-3.8-3.8-82.8 82.8-82.8 82.8-76.6-76.6-345.8 172.5-345.8 172.5l-118.1-118.1s249.1-269.2 172.5-345.8c0 0 86.6-79 82.8-82.8l145.7 145.7zm-401 283l-146.5 146.5-115 115-63.6 63.6-115 115-63.6 63.6-115 115-164.1 164.1 59 59 59 59 782.9-782.9-118.1-117.9zm-723.9 841.9l-59-59L217 1655.4l23.9 23.9 23.9 23.9 226.8-156.4-59.2-59.2z" id="Layer_2"/>
    <path class="st0" d="M1009.8 792.2l-115 115c-31.8-31.8-31.8-83.3 0-115 31.7-31.8 83.2-31.8 115 0zM831.1 970.8c-31.8-31.8-83.3-31.8-115 0-31.8 31.8-31.8 83.3 0 115l115-115zm-293.6 178.6c-31.8 31.8-31.8 83.3 0 115l115-115c-31.8-31.7-83.3-31.7-115 0z" id="Layer_3"/>
    <g id="STROKES">
        <g id="XMLID_1_">
            <path class="st1" d="M240.8 1679.2l23.9 23.9 226.8-156.5-59.1-59"/>
            <path class="st1" d="M240.8 1679.2l-23.9-23.9 156.5-226.7 59 59"/>
            <path class="st1" d="M1703.1 508.5c-3.8-3.8-82.9 82.7-82.9 82.7-76.6-76.6-345.8 172.5-345.8 172.5l-782.9 782.9"/>
            <path class="st1" d="M1411.6 217l145.7 145.7L1703 508.4"/>
            <path class="st1" d="M373.4 1428.6l164.1-164.1 115-115 63.6-63.6 115-115 63.6-63.6 115-115 146.5-146.5s249.1-269.2 172.5-345.8c0 0 86.6-79 82.8-82.8l-.1-.1"/>
            <path class="st1" d="M1274.3 763.7l-118-118"/>
            <path class="st1" d="M537.5 1264.5c-31.8-31.8-31.8-83.3 0-115 31.8-31.8 83.3-31.8 115 0"/>
            <path class="st1" d="M716.1 1085.8c-31.8-31.8-31.8-83.3 0-115 31.8-31.8 83.3-31.8 115 0"/>
            <path class="st1" d="M894.7 907.2c-31.8-31.8-31.8-83.3 0-115 31.8-31.8 83.3-31.8 115 0"/>
        </g>
    </g>
</svg>
