<svg xmlns="http://www.w3.org/2000/svg" viewBox="0 0 1920 1920">
    <style>
        .st0{fill:#fff}.st1{fill:none;stroke:#231f20;stroke-width:50;stroke-linecap:round;stroke-linejoin:round;stroke-miterlimit:10}
    </style>
    <path class="st0" d="M1411.8 217.6h-271.1V299H780.8v-81.3H509.6c-37.8 0-68.5 30.7-68.5 68.5v1349.2c0 37.8 30.7 68.5 68.5 68.5h902.1c37.8 0 68.4-30.7 68.4-68.5V286.1c.1-37.8-30.5-68.5-68.3-68.5zm-39.3 1385H548.9V355.4h823.6v1247.2z" id="Layer_6"/>
    <path class="st0" d="M548.9 355.4h823.6v1247.2H548.9z" id="Layer_7"/>
    <path class="st0" d="M780.8 217.6h359.9v81.3H780.8z" id="Layer_8"/>
    <g id="STROKES">
        <path class="st1" d="M1411.8 1703.8H509.6c-37.8 0-68.5-30.6-68.5-68.5V286.1c0-37.8 30.6-68.5 68.5-68.5h902.1c37.8 0 68.5 30.6 68.5 68.5v1349.2c0 37.8-30.6 68.5-68.4 68.5z"/>
        <path class="st1" d="M548.9 355.4h823.6v1247.2H548.9z"/>
        <path class="st1" d="M780.7 217.7h359.9V299H780.7z"/>
        <path class="st1" d="M1212.7 274.7v142.6h-504V274.7h72V299h360v-24.3z"/>
    </g>
</svg>
