<svg xmlns="http://www.w3.org/2000/svg" viewBox="0 0 1920 1920">
    <style>
        .st0{fill:#fff}.st1{fill:none;stroke:#231f20;stroke-width:50;stroke-linecap:round;stroke-linejoin:round;stroke-miterlimit:10}
    </style>
    <path class="st0" d="M1474.4 399.3v1211.4c0 51-41.3 92.4-92.3 92.4H538c-51 0-92.4-41.3-92.4-92.4V399.3c0-48.6 39.4-88 88.1-88h303.7l-3.1 3.5v69.3l-164.5 17.7-24.4 47.6h-113v1106.7h855.1V449.4h-112.9l-24.4-47.6-164.5-17.7v-69.3l-3.1-3.5h303.7c48.7 0 88.1 39.4 88.1 88z" id="Layer_2"/>
    <path class="st0" d="M1387.6 449.4v1106.7H532.4V449.4h112.9L624.5 490h670.9l-20.7-40.6z" id="Layer_4"/>
    <path class="st0" d="M1295.4 490H624.5l20.8-40.6 24.4-47.6 164.5-17.7v-69.3l3.1-3.5 58-64.4c34.6-38.4 94.9-38.4 129.5 0l57.9 64.4 3.1 3.5v69.3l164.5 17.7 24.4 47.6 20.7 40.6z" id="Layer_5"/>
    <g id="STROKES">
        <path class="st1" d="M1474.4 399.3v1211.4c0 51-41.3 92.4-92.3 92.4H538c-51 0-92.4-41.3-92.4-92.4V399.3c0-48.6 39.4-88 88.1-88h303.7l-3.1 3.5v69.3l-164.5 17.7-24.4 47.6-20.9 40.6h670.9l-20.8-40.6-24.4-47.6-164.5-17.7v-69.3l-3.1-3.5h303.7c48.7 0 88.1 39.4 88.1 88z"/>
        <path class="st1" d="M1387.6 449.4v1106.7H532.4V449.4h112.9L624.5 490h670.9l-20.7-40.6z"/>
        <path class="st1" d="M1295.4 490H624.5l20.8-40.6 24.4-47.6 164.5-17.7v-69.3l3.1-3.5 58-64.4c34.6-38.4 94.9-38.4 129.5 0l57.9 64.4 3.1 3.5v69.3l164.5 17.7 24.4 47.6 20.7 40.6z"/>
        <circle class="st1" cx="960" cy="321.1" r="5.3"/>
    </g>
</svg>
