<svg xmlns="http://www.w3.org/2000/svg" viewBox="0 0 1920 1920">
    <style>
        .st0{fill:#fff}.st1{fill:none;stroke:#231f20;stroke-width:50;stroke-linecap:round;stroke-linejoin:round;stroke-miterlimit:10}
    </style>
    <path class="st0" d="M688.2 425.8v-61.6h-139v1244.1h821.6V364.2h-127v61.6z" id="Layer_9"/>
    <path class="st0" d="M1485.1 352v1268.5c0 45.6-37 82.6-82.6 82.6h-885c-45.6 0-82.6-37-82.6-82.6V352c0-45.6 37-82.6 82.6-82.6h170.7v94.8h-139v1244.1h821.5V364.2h-127v-94.8h158.8c45.6.1 82.6 37.1 82.6 82.6z" id="Layer_10"/>
    <path class="st0" d="M688.2 217h555.6v208.9H688.2z" id="Layer_11"/>
    <g id="STROKES">
        <path class="st1" d="M1485.1 352v1268.5c0 45.6-37 82.6-82.6 82.6h-885c-45.6 0-82.6-37-82.6-82.6V352c0-45.6 37-82.6 82.6-82.6h170.7v156.4h555.6V269.5h158.8c45.5 0 82.5 36.9 82.5 82.5z"/>
        <path class="st1" d="M688.2 216.9h555.6v208.9H688.2z"/>
        <path class="st1" d="M1370.8 364.2v1244.1H549.2V364.2h139v61.6h555.6v-61.6z"/>
    </g>
</svg>
