<svg xmlns="http://www.w3.org/2000/svg" viewBox="0 0 1920 1920">
    <style>
        .st0{fill:#fff}.st1{fill:none;stroke:#231f20;stroke-width:50;stroke-linecap:round;stroke-linejoin:round;stroke-miterlimit:10}
    </style>
    <path class="st0" d="M326.6 484.4H565v96H326.6z" id="Layer_3"/>
    <path class="st0" d="M1703.1 580.3v759.3H216.9V580.3h1486.2zm-109.7 654.1V685.6H326.6v548.8h1266.8zM326.6 1339.7v96h1266.8v-96H326.6z" id="Layer_7"/>
    <path class="st0" d="M1593.4 685.6v548.8H326.6V685.6h1266.8zM1486 1124V770.4h-163.6V1124H1486zm-251.6 0V770.4h-163.6V1124h163.6zm-385.2 0V770.4H685.5V1124h163.7zm-251.6 0V770.4H434V1124h163.6zm724.8 0H1486V770.4L1322.4 1124zm0-353.6V1124L1486 770.4h-163.6zM1070.8 1124h163.6V770.4L1070.8 1124zm0-353.6V1124l163.6-353.6h-163.6zM685.5 1124h163.6V770.4L685.5 1124zm0-353.6V1124l163.6-353.6H685.5zM434 1124h163.6V770.4L434 1124zm0-353.6V1124l163.6-353.6H434z" id="Layer_8"/>
    <g id="STROKES">
        <g id="XMLID_1_">
            <path class="st1" d="M326.6 1339.7H216.9V580.3h109.7"/>
            <path class="st1" d="M565 580.3h1138.1v759.4h-109.7"/>
            <path class="st1" d="M326.6 685.6h1266.8v548.8H326.6z"/>
            <path class="st1" d="M960 838.3v47.4"/>
            <path class="st1" d="M960 1034.3v47.4"/>
            <path class="st1" d="M326.6 484.4H565v96H326.6z"/>
            <path class="st1" d="M326.6 1339.7h1266.8v96H326.6z"/>
            <path class="st1" d="M434 770.4h163.6V1124H434z"/>
            <path class="st1" d="M685.5 770.4h163.6V1124H685.5z"/>
            <path class="st1" d="M1070.8 770.4h163.6V1124h-163.6z"/>
            <path class="st1" d="M1322.4 770.4H1486V1124h-163.6z"/>
            <path class="st1" d="M434 1124l163.6-353.6"/>
            <path class="st1" d="M685.5 1124l163.7-353.6"/>
            <path class="st1" d="M1070.8 1124l163.6-353.6"/>
            <path class="st1" d="M1322.4 1124L1486 770.4"/>
        </g>
    </g>
</svg>
