<svg xmlns="http://www.w3.org/2000/svg" viewBox="0 0 1920 1920">
    <style>
        .st0{fill:#fff}.st1{fill:none;stroke:#231f20;stroke-width:50;stroke-linecap:round;stroke-linejoin:round;stroke-miterlimit:10}
    </style>
    <path class="st0" d="M1576.4 1076.3c9.7-29.5 14.9-61 14.9-93.7 0-166.2-134.7-300.9-300.9-300.9-25.3 0-49.9 3.1-73.4 9-64.1-68-155.1-110.5-256-110.5-117.3 0-221.2 57.5-285.1 145.8-4.8-.2-9.6-.4-14.4-.4-154.1 0-279 124.9-279 279 0 27.1 3.9 53.3 11.1 78.1-103.4 39.6-176.8 139.8-176.8 257.1h1486.1c.2-106.6-49.3-201.6-126.5-263.5z" id="Layer_3"/>
    <path class="st1" d="M1576.4 1076.3c9.7-29.5 14.9-61 14.9-93.7 0-166.2-134.7-300.9-300.9-300.9-25.3 0-49.9 3.1-73.4 9-64.1-68-155.1-110.5-256-110.5-117.3 0-221.2 57.5-285.1 145.8-4.8-.2-9.6-.4-14.4-.4-154.1 0-279 124.9-279 279 0 27.1 3.9 53.3 11.1 78.1-103.4 39.6-176.8 139.8-176.8 257.1h1486.1c.2-106.6-49.3-201.6-126.5-263.5z" id="STROKES"/>
</svg>
