<svg xmlns="http://www.w3.org/2000/svg" viewBox="0 0 1920 1920">
    <style>
        .st0{fill:#fff}.st1{fill:none;stroke:#231f20;stroke-width:50;stroke-linecap:round;stroke-linejoin:round;stroke-miterlimit:10}
    </style>
    <path class="st0" d="M1466.3 944.2c15.9-38.6 24.8-81 24.8-125.4 0-181.6-147.2-328.8-328.8-328.8-116.2 0-218.3 60.3-276.8 151.3-43.7-29.1-96.3-46.1-152.7-46.1-152.5 0-276.2 123.6-276.2 276.2 0 24.6 3.2 48.5 9.3 71.3C326.2 956.4 217 1074.2 217 1217.5c0 152.5 123.6 276.2 276.2 276.2h933.7c152.5 0 276.2-123.6 276.2-276.2 0-139.1-102.9-254.2-236.8-273.3z" id="Layer_2"/>
    <path class="st1" d="M1466.3 944.2c15.9-38.6 24.8-81 24.8-125.4 0-181.6-147.2-328.8-328.8-328.8-116.2 0-218.3 60.3-276.8 151.3-43.7-29.1-96.3-46.1-152.7-46.1-152.5 0-276.2 123.6-276.2 276.2 0 24.6 3.2 48.5 9.3 71.3C326.2 956.4 217 1074.2 217 1217.5c0 152.5 123.6 276.2 276.2 276.2h933.7c152.5 0 276.2-123.6 276.2-276.2 0-139.1-102.9-254.2-236.8-273.3z" id="STROKES"/>
</svg>
