<svg xmlns="http://www.w3.org/2000/svg" viewBox="0 0 1920 1920">
    <style>
        .st0{fill:#fff}.st1{fill:none;stroke:#231f20;stroke-width:50;stroke-linecap:round;stroke-linejoin:round;stroke-miterlimit:10}
    </style>
    <path class="st0" d="M1703.1 957.9c0-144.1-108.9-262.8-249-278.2-50.5-73-134.9-120.9-230.4-120.9h-2c-43-95.9-139.3-162.7-251.2-162.7-111.9 0-208.2 66.8-251.2 162.7-25.2-9.3-52.4-14.4-80.8-14.4-101.8 0-188.3 65.2-220.2 156.1C300.4 747.4 217 862.6 217 997.3c0 158.6 115.7 290.2 267.3 315.1 33.9 66.3 102.9 111.7 182.5 111.7 24.6 0 48.2-4.3 70.1-12.3 65.5 69.2 158.2 112.3 261 112.3 107 0 203.1-46.8 269-121 27.3 13.4 58 21 90.4 21 113.2 0 204.9-91.8 204.9-204.9 0-6-.3-11.9-.8-17.7 84.6-48.4 141.7-139.3 141.7-243.6z" id="Layer_4"/>
    <path class="st1" d="M1703.1 957.9c0-144.1-108.9-262.8-249-278.2-50.5-73-134.9-120.9-230.4-120.9h-2c-43-95.9-139.3-162.7-251.2-162.7-111.9 0-208.2 66.8-251.2 162.7-25.2-9.3-52.4-14.4-80.8-14.4-101.8 0-188.3 65.2-220.2 156.1C300.4 747.4 217 862.6 217 997.3c0 158.6 115.7 290.2 267.3 315.1 33.9 66.3 102.9 111.7 182.5 111.7 24.6 0 48.2-4.3 70.1-12.3 65.5 69.2 158.2 112.3 261 112.3 107 0 203.1-46.8 269-121 27.3 13.4 58 21 90.4 21 113.2 0 204.9-91.8 204.9-204.9 0-6-.3-11.9-.8-17.7 84.6-48.4 141.7-139.3 141.7-243.6z" id="STROKES"/>
</svg>
