<svg xmlns="http://www.w3.org/2000/svg" viewBox="0 0 1920 1920">
    <style>
        .st0{fill:#fff}.st1{fill:none;stroke:#231f20;stroke-width:50;stroke-linecap:round;stroke-linejoin:round;stroke-miterlimit:10}
    </style>
    <path class="st0" d="M456.9 960h1006c132.5 0 240-107.4 240-240 0-64.4-29.5-131.6-73-183.3-43.5-51.7-101-87.7-157-89.7 0-104-123.9-230-273-230-66.3 0-126.3 26.9-169.7 70.3-43.4 43.4-70.2 103.4-70.2 169.6 0-132.5-107.4-240-240-240-149.1 0-273 126-273 230-112 4-230 144.3-230 273 0 66.3 26.9 126.3 70.3 169.7 43.4 43.5 103.4 70.4 169.6 70.4zm1006.1 0H457c-132.5 0-240 107.4-240 240 0 64.4 29.5 131.6 73 183.3 43.5 51.7 101 87.7 157 89.7 0 104 123.9 230 273 230 66.3 0 126.3-26.9 169.7-70.3 43.4-43.4 70.3-103.4 70.3-169.7 0 132.5 107.4 240 240 240 74.5 0 142.8-31.5 192.4-76 49.6-44.5 80.6-102 80.6-154 112-4 230-144.3 230-273 0-66.3-26.9-126.3-70.3-169.7-43.5-43.4-103.5-70.3-169.7-70.3z" id="Layer_6"/>
    <g id="STROKES">
        <path class="st1" d="M720 216.9c132.5 0 240 107.4 240 240v503H457c-132.5 0-240-107.4-240-240 0-128.7 118-269 230-273 0-103.9 123.9-230 273-230z"/>
        <path class="st1" d="M1199.9 216.9c-132.5 0-240 107.4-240 240v503h503c132.5 0 240-107.4 240-240 0-128.7-118-269-230-273 0-103.9-123.9-230-273-230z"/>
        <path class="st1" d="M720 1703.1c132.5 0 240-107.4 240-240V960H457c-132.5 0-240 107.4-240 240 0 128.7 118 269 230 273 0 104 123.9 230.1 273 230.1z"/>
        <path class="st1" d="M1199.9 1703.1c-132.5 0-240-107.4-240-240V960h503c132.5 0 240 107.4 240 240 0 128.7-118 269-230 273 0 104-123.9 230.1-273 230.1z"/>
    </g>
</svg>
