<svg xmlns="http://www.w3.org/2000/svg" viewBox="0 0 1920 1920">
    <style>
        .st0{fill:#fff}.st1{fill:none;stroke:#231f20;stroke-width:50;stroke-linecap:round;stroke-linejoin:round;stroke-miterlimit:10}
    </style>
    <path class="st0" d="M927.7 946.6l-162.3-72.9-92.8-41.7c-161.2-72.4-350.6-.5-423 160.8l-7.6 16.9c-7.7 17.2-13.8 34.7-18.3 52.4-18.4 72.2 28.5 145 101.9 157.9.3.1.6.1.8.1-.1.2-.3.4-.5.6-46.2 58.2-32.9 143.6 28.7 185.2 15 10.1 31.1 19.1 48.2 26.8l16.9 7.6c161.2 72.4 350.6.4 423-160.8l41.7-92.8 72.9-162.3c.5-1.1.9-2.1 1.3-3.2v-41.9c-5.4-14-16.1-26.1-30.9-32.7zm-132.1-133l125.8 125.8c11.5 11.5 26.6 17.2 41.6 17.3 6.3 0 12.7-1 18.8-3.1 3.3-2.5 6.9-4.6 10.8-6.4l1.4-.6.4-.2 4.7-2.1c1.9-1.5 3.8-3.1 5.6-4.9l125.8-125.8 71.9-71.9c125-125 125-327.6 0-452.5l-13.1-13.1c-13.2-13.3-27.4-25.1-42.2-35.5-60.8-42.8-145.2-24.9-183.3 38.9-.2.3-.3.5-.4.7-.1-.2-.2-.4-.4-.7-38.1-64-122.8-82-183.8-39.1-14.9 10.5-29.1 22.4-42.5 35.7l-13.1 13.1c-125 125-125 327.6 0 452.5l72 71.9zM1698 1062c-4.5-17.7-10.6-35.2-18.3-52.4l-7.6-16.9c-72.4-161.2-261.8-233.2-423-160.8l-92.8 41.7L999.7 944c-5.6 4.6-11.8 8.1-18.3 10.3-8.4 6.7-14.6 15.4-18.3 25.1-.8 2-1.4 3.9-1.9 6 2.4 9.4 2.5 19.5-.2 29.2.8 3.3 2 6.6 3.4 9.9l72.9 162.3 41.7 92.8c72.4 161.2 261.8 233.2 423 160.8l16.9-7.6c17.1-7.7 33.2-16.7 48.2-26.8 61.6-41.6 74.9-126.9 28.7-185.2-.2-.2-.4-.4-.5-.6.2 0 .5-.1.8-.1 73.4-13.1 120.3-85.9 101.9-158.1z" id="Layer_5"/>
    <g id="STROKES">
        <path class="st1" d="M1202.4 741.7l-71.9 71.9-125.8 125.8a62.3 62.3 0 0 1-5.5 4.9l-5.3 2.4-1.3.6c-3.9 1.8-7.6 3.9-10.9 6.4-6.1 2-12.4 3-18.7 3-15.1 0-30.1-5.8-41.6-17.3L795.6 813.6l-71.9-71.9c-125-125-125-327.6 0-452.5l13.1-13.1c13.3-13.3 27.6-25.2 42.5-35.7 60.9-42.9 145.6-24.9 183.8 39.1.2.3.3.5.4.7.1-.2.2-.4.4-.7 38.1-63.8 122.5-81.8 183.3-38.9 14.8 10.5 28.9 22.3 42.2 35.5l13.1 13.1c124.9 124.9 124.9 327.5-.1 452.5z"/>
        <path class="st1" d="M999.1 944.3c-5.1 4-10.7 7-16.5 9l-.9.3c3.3-2.5 6.9-4.6 10.9-6.4l1.3-.6 5.2-2.3z"/>
        <path class="st1" d="M1004.7 939.4l-1.1 1.1c-1.2 1.2-2.5 2.4-3.8 3.5-5.6 4.7-11.8 8.1-18.4 10.3l-.9.3c-19.8 6.3-42.3 1.6-58-14.1l-1.1-1.1c11.5 11.5 26.6 17.2 41.6 17.3 6.3 0 12.6-1 18.7-3l.9-.3c5.9-2.1 11.4-5.1 16.5-9 2-1.6 3.8-3.3 5.6-5z"/>
        <path class="st1" d="M999.7 944c-5.6 4.7-11.8 8.1-18.4 10.3.4-.3.8-.7 1.3-1 3.4-2.6 7.2-4.8 11.2-6.7l5.3-2.4.6-.2z"/>
        <path class="st1" d="M1156.3 873.7L999.7 944z"/>
        <path class="st1" d="M961 1014.6c-.1-.2-.1-.3-.1-.5-.2-.7-.3-1.4-.5-2.2-.1-.4-.2-.8-.2-1.3-.1-.5-.2-1-.2-1.5 0-.2-.1-.5-.1-.7 0-.3-.1-.5-.1-.8-.1-.4-.1-.8-.1-1.2-.1-.7-.1-1.4-.2-2.1 0-.3-.1-.7-.1-1v-.2c0-.4 0-.9-.1-1.3v-3.4c0-.4 0-.8.1-1.2V996c0-.4.1-.7.1-1.1 0-.5.1-1 .2-1.6.1-1.1.3-2.3.5-3.4.1-.6.2-1.1.3-1.7.1-.5.2-1.1.4-1.6.1-.4.2-.9.3-1.3 2.4 9.4 2.4 19.5-.2 29.3z"/>
        <path class="st1" d="M1596.1 1219.9c-.3.1-.6.1-.8.1.1.2.3.4.5.6 46.2 58.2 32.9 143.6-28.7 185.2-15 10.1-31.1 19.1-48.2 26.8l-16.9 7.6c-161.2 72.4-350.6.4-423-160.8l-41.7-92.8-72.9-162.3c-.2-.4-.4-.8-.5-1.2-.1-.3-.2-.5-.3-.8-.2-.6-.4-1.2-.7-1.7-.2-.4-.3-.8-.4-1.2-.1-.4-.3-.8-.4-1.2-.1-.4-.3-.9-.4-1.3-.2-.8-.5-1.6-.7-2.4 2.7-9.8 2.6-19.9.2-29.3.1-.5.3-1 .4-1.5.1-.5.3-1 .4-1.4v-.1c.2-.5.3-1 .5-1.4.2-.5.3-1 .5-1.5 3.7-9.7 9.9-18.4 18.2-25 6.6-2.2 12.8-5.6 18.4-10.3l156.5-70.3L1249 832c161.2-72.4 350.6-.5 423 160.8l7.6 16.9c7.7 17.2 13.8 34.7 18.3 52.4 18.5 72.1-28.4 144.9-101.8 157.8z"/>
        <path class="st1" d="M999.7 944c-5.6 4.7-11.8 8.1-18.4 10.3-8.3 6.7-14.6 15.4-18.2 25-.2.5-.4 1-.5 1.5-.2.5-.3 1-.5 1.4v.1c-.1.5-.3 1-.4 1.4-.2.5-.3 1-.4 1.5-.1.4-.2.9-.3 1.3-.1.5-.2 1.1-.4 1.6-.1.6-.2 1.1-.3 1.7-.2 1.1-.4 2.3-.5 3.4-.1.5-.1 1.1-.2 1.6 0 .4-.1.7-.1 1.1v1.2c0 .4-.1.8-.1 1.2-.1 1.1-.1 2.3 0 3.4 0 .4 0 .9.1 1.3v.2c0 .3 0 .7.1 1 0 .7.1 1.4.2 2.1 0 .4.1.8.1 1.2 0 .3.1.5.1.8 0 .2.1.5.1.7.1.5.2 1 .2 1.5.1.4.1.8.2 1.3.1.7.3 1.4.5 2.2 0 .2.1.3.1.5.2.8.4 1.6.7 2.4.1.4.3.9.4 1.3.1.4.3.8.4 1.2.1.4.3.8.4 1.2.2.6.4 1.2.7 1.7.1.3.2.5.3.8.2.4.4.8.5 1.2l-.6-1.4c-1.2-2.6-2.1-5.3-2.9-8 0-.1-.1-.3-.1-.4-2.7-9.8-2.6-19.9-.2-29.3l.3-1.2c3.2-11.5 9.9-21.9 19.6-29.5.4-.3.8-.7 1.3-1 3.3-2.5 6.9-4.6 10.9-6.4l1.3-.6 5.3-2.4.3-.1z"/>
        <path class="st1" d="M958.6 979.4v41.9c-.4 1.1-.8 2.1-1.3 3.2l-72.9 162.3-41.7 92.8c-72.4 161.2-261.8 233.2-423 160.8l-16.9-7.6c-17.1-7.7-33.2-16.7-48.2-26.8-61.6-41.6-74.9-126.9-28.7-185.2.2-.2.3-.4.5-.6-.2 0-.5-.1-.8-.1-73.4-12.9-120.3-85.7-101.9-157.9 4.5-17.7 10.6-35.2 18.3-52.4l7.6-16.9C322 831.5 511.4 759.6 672.6 832l92.8 41.7 162.4 73c14.8 6.6 25.5 18.6 30.8 32.7z"/>
        <path class="st1" d="M960.8 1014.1c0 .2-.1.3-.1.5-.6 2.2-1.2 4.5-2.1 6.7v-41.9c.7 1.9 1.4 3.9 1.9 5.9.1.4.2.8.3 1.3 2.2 8.9 2.3 18.3 0 27.5z"/>
        <path class="st1" d="M961 1014.6c-.1.2-.1.3-.1.4-.6 2.2-1.4 4.3-2.2 6.4-.2.5-.4 1.1-.7 1.6l-.6 1.4c.5-1.1.9-2.1 1.3-3.2.9-2.2 1.6-4.4 2.1-6.7.1-.2.1-.3.1-.5 2.2-9.2 2.1-18.6 0-27.5-.1-.4-.2-.9-.3-1.3-.5-2-1.2-4-1.9-5.9-5.3-14-16-26-30.8-32.7l1.3.6c16.1 7.2 27.3 21 31.7 36.9l.3 1.2c2.4 9.4 2.4 19.5-.2 29.3z"/>
        <path class="st1" d="M958.6 1703.1v-681.8"/>
    </g>
</svg>
