<svg xmlns="http://www.w3.org/2000/svg" viewBox="0 0 1920 1920">
    <style>
        .st0{fill:#fff}.st1{fill:none;stroke:#231f20;stroke-width:50;stroke-linecap:round;stroke-linejoin:round;stroke-miterlimit:10}
    </style>
    <path class="st0" d="M1564.5 1014.7c-14.3-13.1-40.8-34.4-80.3-54.7 39.6-20.3 66.1-41.6 80.3-54.7l12.6-12.6c142-142 167.9-346.3 58-456.3-20.9-20.9-50.7-28.9-82.1-24.9-31.4 4-64.3 20-91.2 46.9 27-27 42.9-59.9 46.9-91.3s-4-61.2-24.9-82.1c-110-110-314.3-84.1-456.3 58l-12.6 12.6c-13.1 14.3-34.5 40.9-54.8 80.6-20.3-39.7-41.7-66.3-54.8-80.6L892.6 343c-142-142-346.3-168-456.3-58-20.9 20.9-28.9 50.7-24.9 82.1 4 31.4 20 64.3 46.9 91.3-27-27-59.9-43-91.2-46.9-31.4-4-61.2 4-82.1 24.9-110 110-84.1 314.3 58 456.3l12.6 12.6c14.3 13.1 40.8 34.4 80.3 54.7-39.6 20.3-66.1 41.6-80.3 54.7l-12.6 12.6c-142 142-167.9 346.3-58 456.3 20.9 20.9 50.7 28.9 82.1 24.9 31.4-4 64.3-19.9 91.2-46.9-27 27-42.9 59.9-46.9 91.3s4 61.2 24.9 82.1c110 110 314.3 84.1 456.3-57.9l12.6-12.7c13.1-14.3 34.5-40.9 54.8-80.6 20.3 39.7 41.7 66.3 54.8 80.6l12.6 12.7c142 142 346.3 167.9 456.3 57.9 20.9-20.9 28.9-50.7 24.9-82.1-4-31.4-20-64.3-46.9-91.3 27 27 59.9 42.9 91.2 46.9 31.4 4 61.2-4 82.1-24.9 110-110 84.1-314.3-58-456.3l-12.5-12.6zM960 960.1s0-.1 0 0c0-.1 0-.1 0 0-.2 0-.3.1-.4.1l.2-.2-.2-.2c.1 0 .2 0 .3.1v-.1c.1 0 .2-.1.3-.1l-.2.4.3.1c-.1 0-.2-.1-.3-.1z" id="Layer_4"/>
    <g id="STROKES">
        <path class="st1" d="M960.1 960l.2.2c-.1 0-.2-.1-.2-.2z"/>
        <path class="st1" d="M1577.1 892.7l-12.6 12.7c-14.3 13.1-40.7 34.4-80.3 54.7-95.1-48.8-265.8-91.7-523.8-.2l501.4-501.4c27-27 59.9-42.9 91.3-46.9s61.2 4 82.1 24.9c109.8 109.9 83.9 314.2-58.1 456.2z"/>
        <path class="st1" d="M960.3 959.8l-.2.2-.1.1v-.2c.1 0 .2-.1.3-.1z"/>
        <path class="st1" d="M1483.7 1634.9c-110 110-314.3 84.1-456.3-57.9l-12.6-12.7c-13.1-14.3-34.5-40.9-54.8-80.6 48.7-95.2 91.4-265.8 0-523.7v-.2l.1.1.2.2 501.4 501.4c27 27 42.9 59.9 46.9 91.3s-4 61.2-24.9 82.1z"/>
        <path class="st1" d="M1635 1483.6c-20.9 20.9-50.7 28.9-82.1 24.9-31.4-4-64.3-19.9-91.3-46.9L960.3 960.2l-.2-.2.2-.2c258-91.5 428.7-48.6 523.8.2 39.6 20.3 66.1 41.6 80.3 54.7l12.6 12.6c142.1 142 168 346.3 58 456.3z"/>
        <path class="st1" d="M960.3 959.8l-.2.2-.1-.1c.1 0 .2-.1.3-.1z"/>
        <path class="st1" d="M960 960.1c-.1 0-.2.1-.3.1l.3-.1z"/>
        <path class="st1" d="M1508.6 367.2c-4 31.4-19.9 64.3-46.9 91.3L960.3 959.8c-.1 0-.2.1-.3.1-91.4-257.8-48.7-428.5.1-523.7 20.3-39.7 41.7-66.3 54.8-80.6l12.6-12.6c142-142 346.3-168 456.3-58 20.8 21 28.8 50.8 24.8 82.2z"/>
        <path class="st1" d="M960 959.9s0 .1 0 0v.2-.2L458.3 458.4c-27-27-42.9-59.9-46.9-91.3s4-61.2 24.9-82.1c110-110 314.3-84.1 456.3 58l12.6 12.6c13.1 14.3 34.5 40.9 54.8 80.6-48.7 95.2-91.5 265.9 0 523.7z"/>
        <path class="st1" d="M960 1483.8c-20.3 39.7-41.7 66.3-54.8 80.6l-12.6 12.7c-142 142-346.3 167.9-456.3 57.9-20.9-20.9-28.9-50.7-24.9-82.1 4-31.4 19.9-64.3 46.9-91.3l501.4-501.4c.1 0 .2-.1.3-.1v-.1.1c91.5 257.8 48.7 428.5 0 523.7z"/>
        <path class="st1" d="M960 960v.1c-.1 0-.2.1-.3.1l.2-.2h.1c0-.1 0 0 0 0z"/>
        <path class="st1" d="M959.9 960l-.2.2c-258 91.5-428.7 48.6-523.8-.2-39.6-20.3-66.1-41.6-80.3-54.7L343 892.6c-142-142-167.9-346.3-58-456.3 20.9-20.9 50.7-28.9 82.1-24.9 31.4 4 64.3 19.9 91.3 46.9L959.9 960z"/>
        <path class="st1" d="M959.7 960.2l-501.4 501.4c-27 27-59.9 42.9-91.3 46.9s-61.2-4-82.1-24.9c-110-110-84.1-314.3 58-456.3l12.6-12.6c14.3-13.1 40.7-34.4 80.3-54.7 95.2 48.8 265.9 91.7 523.9.2z"/>
        <path class="st1" d="M960 959.9l-.3-.1c.1 0 .2.1.3.1z"/>
    </g>
</svg>
