<svg xmlns="http://www.w3.org/2000/svg" viewBox="0 0 1920 1920">
    <style>
        .st0{fill:#fff}.st1{fill:none;stroke:#231f20;stroke-width:50;stroke-linecap:round;stroke-linejoin:round;stroke-miterlimit:10}
    </style>
    <path class="st0" d="M1235.8 1250.6c10.7 116.8 18.4 253.5 18.4 415.8 0 0-19.3 34.3-268.6 36.5-8.3.1-16.9.1-25.7.1-273.7 0-294.2-36.7-294.2-36.7 0-162.2 7.7-298.9 18.4-415.8H578s7.3-316.2 36.6-614C643.8 338.6 686.3 330 686.3 330c43.8-.8 125.6-49 125.6-49l54.2-48.3c4.5-8.9 93.9-14.8 93.9-14.8s89.5 5.8 93.9 14.8l54.2 48.3s81.7 48.3 125.6 49c0 0 1.8.4 4.8 3.4 11.9 12 43.6 65.7 66.9 303.1 29.2 297.9 36.6 614 36.6 614h-106.2z" id="Layer_5"/>
    <g id="STROKES">
        <path class="st1" d="M684.2 1250.6H578s7.3-316.2 36.6-614c29.2-297.9 71.7-306.5 71.7-306.5"/>
        <path class="st1" d="M1254.2 1666.4s-19.3 34.3-268.6 36.5V787.3c0-13.1-1.4-26.2-4.3-39L970 697.9 958.7 647l-76.1-340.1-16.6-74.2c4.5-8.9 93.9-14.8 93.9-14.8s89.5 5.8 93.9 14.8L1108 281s81.7 48.3 125.6 49c0 0-62.8 176.4-62.8 361.3 0 128.6 40.3 292.1 64.8 559.2 10.9 117 18.6 253.6 18.6 415.9z"/>
        <path class="st1" d="M1233.8 330.1s42.5 8.6 71.7 306.5 36.6 614 36.6 614h-106.2"/>
        <path class="st1" d="M985.7 1703.1v-.2"/>
        <path class="st1" d="M973.5 713c2 9-10.3 13.7-14.8 5.6l-11.4-20.7-175.1-318.1 47-31 63.4-41.8 76.1 340 11.4 50.9 3.4 15.1z"/>
        <path class="st1" d="M819.3 348.8L753 311"/>
        <path class="st1" d="M985.7 813.5v889.4c-8.3.1-16.9.1-25.7.1-273.7 0-294.2-36.7-294.2-36.7 0-162.2 7.7-298.9 18.4-415.8C708.7 983.5 749 820 749 691.4c0-184.9-62.8-361.3-62.8-361.3 43.8-.8 125.6-49 125.6-49l54.2-48.3 16.6 74.2-63.4 41.8-47 31 175.1 318.1 11.4 20.7 4.8 8.8c14.6 26.4 22.2 56 22.2 86.1z"/>
        <path class="st1" d="M1145.2 379.8L970.1 697.9 958.7 647l76.1-340.1 63.3 41.9z"/>
        <path class="st1" d="M1098.1 348.8l66.3-37.9"/>
        <path class="st1" d="M1034.8 306.9l19.1-74.1"/>
    </g>
</svg>
