<svg xmlns="http://www.w3.org/2000/svg" viewBox="0 0 1920 1920">
    <style>
        .st0{fill:#fff}.st1{fill:none;stroke:#231f20;stroke-width:50;stroke-linecap:round;stroke-linejoin:round;stroke-miterlimit:10}
    </style>
    <path class="st0" d="M1042.5 498.8h-513l96.4 1204.3h668.2l96.4-1204.3h-348zM960 1173.6c-135.5 0-245.4-109.9-245.4-245.4S824.5 682.8 960 682.8s245.4 109.9 245.4 245.4-109.9 245.4-245.4 245.4z" id="Layer_4"/>
    <path class="st0" d="M960 682.8c135.5 0 245.4 109.9 245.4 245.4s-109.9 245.4-245.4 245.4-245.4-109.9-245.4-245.4S824.5 682.8 960 682.8z" id="Layer_5"/>
    <path class="st0" d="M1467.6 390.4v108.4H452.4V390.4h128.5l64.3-173.5h629.6l64.3 173.5z" id="Layer_6"/>
    <g id="STROKES">
        <path class="st1" d="M529.5 498.8l96.4 1204.3h668.2l96.4-1204.3H452.4V390.4h128.5l64.3-173.5h629.6l64.3 173.5h128.5v108.4h-77.1"/>
        <path class="st1" d="M1205.4 928.2c0 135.5-109.9 245.4-245.4 245.4s-245.4-109.9-245.4-245.4S824.5 682.8 960 682.8s245.4 109.9 245.4 245.4z"/>
    </g>
</svg>
