<svg xmlns="http://www.w3.org/2000/svg" viewBox="0 0 1920 1920">
    <style>
        .st0{fill:#fff}.st1{fill:none;stroke:#231f20;stroke-width:50;stroke-linecap:round;stroke-linejoin:round;stroke-miterlimit:10}
    </style>
    <path class="st0" d="M1251.7 844.3c-60.6 0-117.4 16-166.5 44h-.9V823c0-34.7-25.2-63-55.9-63H387.2c-30.7 0-55.9 28.4-55.9 63v497.7c0 135.7 63.6 255.5 158.8 323.4 0 0 .1 0 .1.1 3.3 2.4 6.7 4.7 10 6.9.1.1.2.1.3.2 3.3 2.2 6.7 4.3 10.1 6.4.1.1.3.2.4.3 3.4 2 6.8 4 10.2 5.9.2.1.3.2.5.3 3.4 1.9 6.9 3.8 10.4 5.5l.6.3c1.6.8 3.3 1.6 4.9 2.4.1.1.2.1.4.2 1.8.8 3.5 1.7 5.3 2.5.2.1.4.2.6.2 1.6.7 3.2 1.4 4.8 2.2.2.1.4.2.7.3 1.8.8 3.5 1.5 5.3 2.2.2.1.3.1.5.2 1.6.7 3.2 1.3 4.9 2l.9.3c1.8.7 3.6 1.4 5.4 2 .1 0 .2.1.3.1 1.7.6 3.3 1.2 5 1.8.3.1.7.2 1 .4 3.6 1.2 7.1 2.4 10.7 3.4.4.1.8.2 1.2.4 3.6 1.1 7.2 2.1 10.8 3l1.2.3c1.6.4 3.3.8 4.9 1.2.2 0 .4.1.6.1l5.4 1.2c.4.1.8.2 1.2.2 1.6.3 3.1.7 4.7.9.3.1.6.1.9.2 1.8.3 3.6.7 5.4 1 .4.1.8.1 1.2.2 1.5.3 3.1.5 4.6.7.4.1.8.1 1.2.2 1.8.3 3.7.5 5.5.8.4 0 .7.1 1.1.1 1.6.2 3.1.4 4.7.5.4 0 .9.1 1.3.1 1.8.2 3.7.4 5.5.5.3 0 .6.1.9.1 1.6.1 3.2.2 4.8.4.5 0 .9.1 1.4.1 1.9.1 3.7.2 5.6.3h.6c1.7.1 3.4.1 5.1.2h1.5c1.9 0 3.8.1 5.7.1H745c1.9 0 3.8 0 5.7-.1h1.5c1.7 0 3.4-.1 5.1-.2h.6c1.9-.1 3.7-.2 5.6-.3.5 0 .9-.1 1.4-.1 1.6-.1 3.2-.2 4.8-.4.3 0 .6 0 .9-.1 1.9-.2 3.7-.3 5.5-.5.4 0 .9-.1 1.3-.1 1.6-.2 3.1-.4 4.6-.5.4 0 .7-.1 1.1-.1 1.8-.2 3.7-.5 5.5-.8.4 0 .8-.1 1.2-.2 1.5-.2 3.1-.5 4.6-.7.4-.1.8-.1 1.2-.2 1.8-.3 3.6-.6 5.4-1 .3-.1.6-.1.9-.2 1.6-.3 3.1-.6 4.7-.9.4-.1.8-.2 1.2-.2l5.4-1.2c.2 0 .4-.1.6-.1 1.6-.4 3.3-.8 4.9-1.2l1.2-.3c3.6-.9 7.2-1.9 10.8-3 .4-.1.8-.2 1.1-.4 3.6-1.1 7.2-2.2 10.7-3.4.3-.1.7-.2 1-.4 1.7-.6 3.4-1.2 5-1.8.1 0 .2-.1.3-.1 1.8-.7 3.6-1.3 5.4-2l.9-.3c1.6-.6 3.2-1.3 4.9-2 .1-.1.3-.1.5-.2 1.8-.7 3.6-1.5 5.3-2.2.2-.1.4-.2.7-.3 1.6-.7 3.2-1.4 4.8-2.2.2-.1.4-.2.5-.2 1.8-.8 3.5-1.6 5.3-2.5.1-.1.2-.1.4-.2 1.6-.8 3.3-1.6 4.9-2.4l.6-.3c3.5-1.8 7-3.6 10.4-5.5.2-.1.4-.2.5-.3 3.4-1.9 6.9-3.9 10.2-5.9.2-.1.3-.2.4-.3 3.4-2.1 6.8-4.2 10.1-6.4.1-.1.2-.1.3-.2 3.4-2.2 6.7-4.5 10-6.9l.1-.1c60.9-43.5 108.9-108.2 135.5-184.7h.1c59.2 37.6 115.9 59 190.5 59 186.2 0 337.1-150.9 337.1-337.1s-150.4-337-336.5-337zm0 575.4c-65.8 0-124.8-26.6-168-69.8h-.4c.7-9.7 1-19.4 1-29.3v-309.8h.9c43-42 101.7-67.8 166.5-67.8 131.6 0 238.3 106.7 238.3 238.3 0 131.7-106.7 238.4-238.3 238.4z" id="Layer_3"/>
    <g id="STROKES">
        <path class="st1" d="M1084.3 888.2v-65.3c0-34.7-25.2-63-55.9-63H387.2c-30.7 0-55.9 28.4-55.9 63v497.7c0 135.7 63.6 255.5 158.8 323.4 0 0 .1 0 .1.1 3.3 2.4 6.6 4.7 10 6.9.1.1.2.1.3.2 3.3 2.2 6.7 4.3 10.1 6.4.1.1.3.2.4.3 3.4 2.1 6.8 4 10.2 5.9.2.1.3.2.5.3 3.4 1.9 6.9 3.8 10.4 5.5l.6.3c1.6.8 3.3 1.6 4.9 2.4.1.1.2.1.4.2 1.8.8 3.5 1.7 5.3 2.5.2.1.4.2.5.2 1.6.7 3.2 1.4 4.8 2.2.2.1.4.2.7.3 1.8.8 3.5 1.5 5.3 2.2.2.1.3.1.5.2 1.6.7 3.2 1.3 4.9 1.9l.9.3c1.8.7 3.6 1.4 5.3 2 .1 0 .2.1.3.1 1.7.6 3.3 1.2 5 1.8.3.1.7.2 1 .4 3.6 1.2 7.1 2.4 10.7 3.5l1.2.3c3.6 1.1 7.2 2.1 10.8 3l1.2.3c1.6.4 3.3.8 4.9 1.2.2 0 .4.1.6.1l5.4 1.2c.4.1.8.2 1.2.2 1.6.3 3.1.7 4.7.9.3.1.6.1.9.2 1.8.3 3.6.7 5.4 1 .4.1.8.1 1.2.2 1.5.3 3.1.5 4.6.7.4.1.8.1 1.2.2 1.8.3 3.7.5 5.5.8.4 0 .7.1 1.1.1 1.5.2 3.1.4 4.7.5.4 0 .9.1 1.3.1 1.8.2 3.7.4 5.5.5.3 0 .6.1.9.1 1.6.1 3.2.2 4.8.4.5 0 .9.1 1.4.1 1.9.1 3.7.2 5.6.3h.6c1.7.1 3.4.1 5.1.2h1.5c1.9 0 3.8.1 5.7.1H745c1.9 0 3.8 0 5.7-.1h1.5c1.7 0 3.4-.1 5.1-.2h.6c1.9-.1 3.7-.2 5.6-.3.5 0 1-.1 1.4-.1 1.6-.1 3.2-.2 4.8-.4.3 0 .6 0 .9-.1 1.9-.2 3.7-.3 5.5-.5.4 0 .9-.1 1.3-.1 1.5-.2 3.1-.4 4.6-.5.4 0 .7-.1 1.1-.1 1.8-.2 3.7-.5 5.5-.8.4 0 .8-.1 1.2-.2 1.5-.2 3.1-.5 4.6-.7.4-.1.8-.1 1.2-.2 1.8-.3 3.6-.6 5.5-1 .3-.1.6-.1.9-.2 1.6-.3 3.1-.6 4.7-.9.4-.1.8-.2 1.2-.2l5.4-1.2c.2 0 .4-.1.6-.1 1.6-.4 3.3-.8 4.9-1.2l1.2-.3c3.6-.9 7.2-1.9 10.8-3l1.2-.3c3.6-1.1 7.2-2.2 10.7-3.5.3-.1.7-.2 1-.4 1.7-.6 3.4-1.2 5-1.8.1 0 .2-.1.3-.1 1.8-.7 3.6-1.3 5.4-2l.9-.3c1.6-.6 3.2-1.3 4.9-1.9.1-.1.3-.1.5-.2 1.8-.7 3.6-1.5 5.3-2.2.2-.1.5-.2.7-.3 1.6-.7 3.2-1.4 4.8-2.2.2-.1.4-.2.6-.2 1.8-.8 3.5-1.6 5.3-2.5.1-.1.2-.1.4-.2 1.7-.8 3.3-1.6 4.9-2.4l.6-.3c3.5-1.8 7-3.6 10.4-5.5.2-.1.3-.2.5-.3 3.5-1.9 6.9-3.9 10.2-5.9.2-.1.3-.2.4-.3 3.4-2.1 6.8-4.2 10.1-6.4.1-.1.2-.1.3-.2 3.4-2.2 6.7-4.5 10-6.9l.1-.1c60.9-43.5 108.9-108.2 135.5-184.7 12-34.4 19.6-71.2 22.2-109.5.7-9.7 1-19.4 1-29.3V888.2z"/>
        <path class="st1" d="M681.4 625.6s77.8-93.7 19.5-201.9c-58.3-108.1 33.2-206.8 33.2-206.8"/>
        <path class="st1" d="M843.6 625.6s77.8-93.7 19.5-201.9c-58.3-108.1 33.2-206.8 33.2-206.8"/>
        <path class="st1" d="M519.2 625.6s77.8-93.7 19.5-201.9C480.4 315.6 572 216.9 572 216.9"/>
        <path class="st1" d="M1085.1 1010.8c43-42 101.7-67.8 166.5-67.8 131.6 0 238.3 106.7 238.3 238.3 0 131.6-106.7 238.3-238.3 238.3-65.8 0-124.8-26.6-168-69.8"/>
        <path class="st1" d="M1061.1 1459.4c59.2 37.6 115.9 59 190.5 59 186.2 0 337.1-150.9 337.1-337.1s-150.9-337.1-337.1-337.1c-60.6 0-117.4 16-166.5 44"/>
    </g>
</svg>
