<svg xmlns="http://www.w3.org/2000/svg" viewBox="0 0 1920 1920">
    <style>
        .st0{fill:#fff}.st1{fill:none;stroke:#231f20;stroke-width:50;stroke-linecap:round;stroke-linejoin:round;stroke-miterlimit:10}
    </style>
    <path class="st0" d="M1101.2 1316.1l-.1-.1-8.1-17.9s-19-35-9-73c.2-.8.4-1.6.6-2.5 8.5-37.7-12.6-87.5-12.6-87.5h-57.7l-3.4-7.2-60.4-125.9-1.5-16.3-4.8-50.6L934 868h-77l-38-90s1.9-21.3 2.8-44.3c.7-20.7.6-42.7-2.8-51.7-7-19-37.4-36.9-37.4-36.9s-39-114-49.5-127.5c-4.5-5.8-18.2-21.9-32.5-38.5l-12.5-26c-3.3.1-6.5.2-9.8.3-272.2 10.4-460.4 206.7-460.4 206.7V1351h900l-15.7-34.9z" id="Layer_6"/>
    <path class="st0" d="M1337 1316.1c-6-32.9-58.9-147.1-88-173.7-29.1-26.7-42-149.3-60-188.8-9.8-21.5-44.7-34-75.3-41.1-2.3 8.4-5.1 16.9-8.5 24.5-47-1.2-95.6-1.9-145.3-1.9h-15.8l4.8 50.6 1.5 16.3 60.4 125.8 3.4 7.2h57.7s21.1 49.8 12.6 87.5c-.2.8-.4 1.6-.6 2.5-10 38 9 73 9 73l8.1 17.9.1.1 16.8 34.9h225.7c-2.8-14.6-5.2-27.1-6.6-34.8z" id="Layer_7"/>
    <path class="st0" d="M1653 931.5c-60-28.5-153.2-82.6-528.6-76.6 0 0-2.7 28.8-10.7 57.5 30.6 7.1 65.4 19.6 75.3 41.1 18 39.4 30.9 162.1 60 188.8 29.1 26.7 82 140.8 88 173.7 1.4 7.7 3.8 20.3 6.7 34.9h359.4v-319.4c0 .1 9.9-71.5-50.1-100z" id="Layer_8"/>
    <g id="STROKES">
        <path class="st1" d="M1116.9 1351h-900V660.1s188.2-196.3 460.4-206.7c3.2-.1 6.5-.2 9.8-.3l12.5 26c14.3 16.6 28 32.7 32.5 38.5 10.5 13.5 49.5 127.5 49.5 127.5S812 663 819 682c3.3 9 3.5 31 2.8 51.7-.8 23-2.8 44.3-2.8 44.3l38 90h77l10.2 67.1 4.8 50.6 1.5 16.3 60.4 125.8 3.4 7.2h57.7s21.1 49.8 12.6 87.5c-.2.8-.4 1.6-.6 2.5-10 38 9 73 9 73l8.1 17.9.1.1 15.7 35z"/>
        <path class="st1" d="M1117.9 1351h-1l-15.7-34.9z"/>
        <path class="st1" d="M1653 931.5c-60-28.5-153.2-82.6-528.6-76.6 0 0-2.7 28.8-10.7 57.5 30.6 7.1 65.4 19.6 75.3 41.1 18 39.4 30.9 162.1 60 188.8 29.1 26.7 82 140.8 88 173.7 1.4 7.7 3.8 20.3 6.7 34.9h359.4v-319.4c0 .1 9.9-71.5-50.1-100z"/>
        <path class="st1" d="M1343.7 1351H1118l-16.8-34.9-.1-.1-8.1-17.9s-19-35-9-73c.2-.8.4-1.6.6-2.5 8.5-37.7-12.6-87.5-12.6-87.5h-57.7l-3.4-7.2-60.4-125.9-1.5-16.3-4.8-50.6H960c49.7 0 98.3.6 145.3 1.9 3.3-7.7 6.1-16.1 8.5-24.5 30.6 7.1 65.4 19.6 75.3 41.1 18 39.4 30.9 162.1 60 188.8 29.1 26.7 82 140.8 88 173.7 1.3 7.7 3.7 20.2 6.6 34.9z"/>
        <path class="st1" d="M876 1234.5V1138c0-22.9-18.6-41.5-41.5-41.5S793 1115.1 793 1138v96.5"/>
        <path class="st1" d="M693 1234.5v-90.7c0-21.5-17.5-39-39-39s-39 17.5-39 39v90.7"/>
        <path class="st1" d="M519.5 1234.5v-76.7c0-18.2-14.8-33-33-33s-33 14.8-33 33v76.7"/>
        <path class="st1" d="M1462.6 1234.5v-76.7c0-18.2-14.8-33-33-33s-33 14.8-33 33v76.7"/>
        <path class="st1" d="M366.3 1234.5v-63.1c0-15-12.1-27.1-27.1-27.1-15 0-27.1 12.1-27.1 27.1v63.1"/>
        <path class="st1" d="M693 966.5v-86.3c0-20.5-16.6-37.1-37.1-37.1s-37.1 16.6-37.1 37.1v92.5"/>
        <path class="st1" d="M527.9 978.9v-73c0-17.3-14.1-31.4-31.4-31.4-17.3 0-31.4 14.1-31.4 31.4V984"/>
        <path class="st1" d="M589.5 725.2v-68.5c0-16.3-17.5-29.5-39-29.5s-39 13.2-39 29.5v78.8"/>
        <path class="st1" d="M425.1 767.3v-39.8c0-17.1-14.8-28.4-33-28.4s-33 11.3-33 25.3v58.9"/>
        <path class="st1" d="M1609.8 1234.5v-63.1c0-15-12.1-27.1-27.1-27.1-15 0-27.1 12.1-27.1 27.1v63.1"/>
        <path class="st1" d="M1117.9 1351h-1l-15.7-34.9z"/>
    </g>
</svg>
