<svg xmlns="http://www.w3.org/2000/svg" viewBox="0 0 1920 1920">
    <style>
        .st0{fill:#fff}.st1{fill:none;stroke:#231f20;stroke-width:50;stroke-linecap:round;stroke-linejoin:round;stroke-miterlimit:10}
    </style>
    <path class="st0" d="M405.4 726.2c-98 0-178.5 74.8-187.6 170.4-.6 5.9-.9 12-.9 18v256.6h62.7v-148.6c0-31.5 25.5-57 57-57s57 25.5 57 57v148.6h62.7v-148.6c0-31.5 25.5-57 57-57 15.8 0 30 6.4 40.3 16.7s16.7 24.6 16.7 40.3v148.6H633v-148.6c0-31.5 25.5-57 57-57 15.8 0 30 6.4 40.3 16.7 10.3 10.3 16.7 24.6 16.7 40.3v148.6h62.7v-148.6c0-31.5 25.5-57 57-57 15.8 0 30 6.4 40.3 16.7 10.3 10.3 16.7 24.6 16.7 40.3v148.6h62.7v-88.3c0-82.3 56.5-154 136.6-172.9 60.1-14.1 142.9-25.5 254.2-25.5 295.8 0 325.6 80.1 325.6 80.1V726.2H405.4z" id="Layer_4"/>
    <path class="st0" d="M393.7 1229.7c0 17.3 14 31.3 31.3 31.3 8.6 0 16.5-3.5 22.1-9.2 5.7-5.7 9.2-13.5 9.2-22.2v-58.4h-62.7v58.5zm530.2-58.4v58.4c0 17.3 14 31.3 31.3 31.3 8.6 0 16.5-3.5 22.2-9.2 5.7-5.7 9.2-13.5 9.2-22.2v-58.4h-62.7zm-707 58.4c0 17.3 14 31.3 31.3 31.3 8.7 0 16.5-3.5 22.2-9.2s9.2-13.5 9.2-22.2v-58.4h-62.7v58.5zm530.3 0c0 17.3 14 31.3 31.3 31.3 8.6 0 16.5-3.5 22.2-9.2 5.7-5.7 9.2-13.5 9.2-22.2v-58.4h-62.7v58.5zm-176.8 0c0 17.3 14 31.3 31.3 31.3 8.6 0 16.5-3.5 22.1-9.2 5.7-5.7 9.2-13.5 9.2-22.2v-58.4h-62.7v58.5z" id="Layer_5"/>
    <g id="STROKES">
        <path class="st1" d="M217.8 896.6c-.6 5.9-.9 11.9-.9 18v-18h.9z"/>
        <path class="st1" d="M279.6 1171.3v58.4c0 17.3-14 31.3-31.3 31.3s-31.3-14-31.3-31.3v-58.4h62.6z"/>
        <path class="st1" d="M456.4 1171.3v58.4c0 17.3-14 31.3-31.3 31.3s-31.3-14-31.3-31.3v-58.4h62.6z"/>
        <path class="st1" d="M633.1 1171.3v58.4c0 17.3-14 31.3-31.3 31.3s-31.3-14-31.3-31.3v-58.4h62.6z"/>
        <path class="st1" d="M809.8 1171.3v58.4c0 17.3-14 31.3-31.3 31.3s-31.3-14-31.3-31.3v-58.4h62.6z"/>
        <path class="st1" d="M986.6 1171.3v58.4c0 17.3-14 31.3-31.3 31.3s-31.3-14-31.3-31.3v-58.4h62.6z"/>
        <path class="st1" d="M986.6 726.2H405.4c-98 0-178.5 74.8-187.6 170.4-.6 5.9-.9 11.9-.9 18v256.6h62.7v-148.6c0-31.5 25.5-57 57-57s57 25.5 57 57v148.6h62.7v-148.6c0-31.5 25.5-57 57-57s57 25.5 57 57v148.6H633v-148.6c0-31.5 25.5-57 57-57s57 25.5 57 57v148.6h62.7v-148.6c0-31.5 25.5-57 57-57s57 25.5 57 57v148.6h62.7v-88.3c0-82.3 56.5-154 136.6-172.9 60.1-14.1 143-25.5 254.2-25.5 295.8 0 325.6 80.1 325.6 80.1V726.2H986.6z"/>
    </g>
</svg>
