<svg xmlns="http://www.w3.org/2000/svg" viewBox="0 0 1920 1920">
    <style>
        .st0{fill:#fff}.st1{fill:none;stroke:#231f20;stroke-width:50;stroke-linecap:round;stroke-linejoin:round;stroke-miterlimit:10}
    </style>
    <path class="st0" d="M1645.1 594c-21.4-21.4-56.1-21.4-77.5 0l-519.8 526.8c20.4-21.5 20.1-55.4-1-76.5-21.4-21.4-56.1-21.4-77.5 0l364.9-364.9c21.4-21.4 21.4-56.1 0-77.5s-56.1-21.4-77.5 0L1105 753.6c21.4-21.4 21.4-56.1 0-77.5s-56.1-21.4-77.5 0L1392.7 311c21.4-21.4 21.4-56.1 0-77.5s-56.1-21.4-77.5 0L313.3 1235.2c-29.9 29.9-51.5 65-64.7 102.4-34 96.4-12.5 208 64.7 285.2 77.1 77.1 188.8 98.7 285.2 64.6 37.4-13.2 72.5-34.7 102.4-64.6l944.2-951.3c21.4-21.4 21.4-56.1 0-77.5zm-961.8 891.3c-8.7 27.3-23.8 52.9-45.5 74.5-21.6 21.6-47.3 36.8-74.5 45.5-12.8 4.1-25.9 6.7-39.1 7.9-52.9 4.9-107.5-12.9-148-53.4s-58.3-95.1-53.4-148c1.2-13.2 3.9-26.3 7.9-39.1 8.7-27.3 23.8-52.9 45.5-74.5 21.6-21.6 47.3-36.8 74.5-45.5 46.8-14.9 98.4-10.7 142.5 12.5 16 8.4 31.1 19.4 44.6 32.9s24.5 28.6 32.9 44.6c23.3 44.2 27.5 95.8 12.6 142.6z" id="Layer_2"/>
    <path class="st0" d="M637.9 1298.2c-13.5-13.5-28.5-24.5-44.6-32.9-44.1-23.2-95.7-27.4-142.5-12.5-27.3 8.7-52.9 23.8-74.5 45.5-21.6 21.6-36.8 47.3-45.5 74.5-4.1 12.8-6.7 25.9-7.9 39.1-4.9 52.9 12.9 107.5 53.4 148s95.1 58.3 148 53.4c13.2-1.2 26.4-3.9 39.1-7.9 27.3-8.7 52.9-23.8 74.5-45.5 21.6-21.6 36.8-47.3 45.5-74.5 14.9-46.8 10.7-98.4-12.5-142.5-8.6-16.2-19.5-31.2-33-44.7z" id="Layer_4"/>
    <g id="STROKES">
        <path class="st1" d="M1645.1 594c-21.4-21.4-56.1-21.4-77.5 0l-519.8 526.8c20.4-21.5 20.1-55.4-1-76.5-21.4-21.4-56.1-21.4-77.5 0l364.9-364.9c21.4-21.4 21.4-56.1 0-77.5s-56.1-21.4-77.5 0L1105 753.6c21.4-21.4 21.4-56.1 0-77.5s-56.1-21.4-77.5 0L1392.7 311c21.4-21.4 21.4-56.1 0-77.5s-56.1-21.4-77.5 0L313.3 1235.2c-29.9 29.9-51.5 65-64.7 102.4-34 96.4-12.5 208 64.7 285.2 77.1 77.1 188.8 98.7 285.2 64.6 37.4-13.2 72.5-34.7 102.4-64.6l944.2-951.3c21.4-21.4 21.4-56.1 0-77.5zm-961.8 891.3c-8.7 27.3-23.8 52.9-45.5 74.5-21.6 21.6-47.3 36.8-74.5 45.5-12.8 4.1-25.9 6.7-39.1 7.9-52.9 4.9-107.5-12.9-148-53.4s-58.3-95.1-53.4-148c1.2-13.2 3.9-26.3 7.9-39.1 8.7-27.3 23.8-52.9 45.5-74.5 21.6-21.6 47.3-36.8 74.5-45.5 46.8-14.9 98.4-10.7 142.5 12.5 16 8.4 31.1 19.4 44.6 32.9s24.5 28.6 32.9 44.6c23.3 44.2 27.5 95.8 12.6 142.6z"/>
        <path class="st1" d="M683.3 1485.3c-8.7 27.3-23.8 52.9-45.5 74.5-21.6 21.6-47.3 36.8-74.5 45.5-12.8 4.1-25.9 6.7-39.1 7.9-52.9 4.9-107.5-12.9-148-53.4s-58.3-95.1-53.4-148c1.2-13.2 3.9-26.3 7.9-39.1 8.7-27.3 23.8-52.9 45.5-74.5 21.6-21.6 47.3-36.8 74.5-45.5 46.8-14.9 98.4-10.7 142.5 12.5 16 8.4 31.1 19.4 44.6 32.9s24.5 28.6 32.9 44.6c23.3 44.2 27.5 95.8 12.6 142.6z"/>
        <path class="st1" d="M1105 753.6l-283.7 283.6"/>
        <path class="st1" d="M1027.4 676.1l-411.2 411.2"/>
        <path class="st1" d="M969.3 1044.3l-232.6 232.6"/>
        <path class="st1" d="M1046.8 1121.8l-116.3 116.3"/>
    </g>
</svg>
