<svg xmlns="http://www.w3.org/2000/svg" viewBox="0 0 1920 1920">
    <style>
        .st0{fill:#fff}.st1{fill:none;stroke:#231f20;stroke-width:50;stroke-linecap:round;stroke-linejoin:round;stroke-miterlimit:10}
    </style>
    <path class="st0" d="M861.9 1283.2l833.9-1058.9-1058.9 833.9L672 857l-273.6 249.7-76.3-165.4-30.8 328.3-53.6-111.1-20.8 294.8c1 63.6 25.8 127 74.3 175.5 48.9 48.9 112.9 73.7 177 74.4l293.3-20.7-111.1-53.6 328.3-30.8-165.4-76.3 249.7-273.6-201.1 35zm-292.3 264.6c-54.5 54.5-142.9 54.5-197.4 0s-54.5-142.9 0-197.4 142.9-54.5 197.4 0 54.5 142.9 0 197.4z" id="Layer_5"/>
    <ellipse transform="rotate(-45.001 470.849 1449.13)" class="st0" cx="470.9" cy="1449.1" rx="139.6" ry="139.6" id="Layer_6"/>
    <g id="STROKES">
        <path class="st1" d="M861.9 1283.3l833.9-1058.9-1058.9 833.8L672 857l-273.6 249.7-76.3-165.4-30.8 328.3-53.6-111.1-20.8 294.8c1 63.6 25.8 127 74.3 175.5 48.9 48.9 112.9 73.7 177 74.4l293.3-20.7-111.1-53.6 328.3-30.8-165.4-76.3 249.7-273.6-201.1 35.1zm-292.3 264.5c-54.5 54.5-142.9 54.5-197.4 0s-54.5-142.9 0-197.4 142.9-54.5 197.4 0 54.5 142.9 0 197.4z"/>
        <path class="st1" d="M532.9 1128.8l21.1 103 561.5-431.1-448.4 530.1 96.5 13.5"/>
    </g>
</svg>
