<svg xmlns="http://www.w3.org/2000/svg" viewBox="0 0 1920 1920">
    <style>
        .st0{fill:#fff}.st1{fill:none;stroke:#231f20;stroke-width:50;stroke-linecap:round;stroke-linejoin:round;stroke-miterlimit:10}
    </style>
    <path class="st0" d="M595.7 1350.3c-5.7-8.8-21.5-71.8-56.1-71.2-34.6.5-58.7 5.4-58.7 5.4s-37.2-2.7-53.7-9.6c-6.1-2.5-52.6-6.3-72.5 25.7S285 1376 285 1376s-40.3 57.6-37.2 92.2c3.1 34.6 28.8 88.6 44.5 95.4 0 0-11 98 59.7 121s84.4 17.8 85.9 17.3c1.6-.5 50.8-18.9 58.1-19.4 7.3-.5 40.9-31.4 46.6-43 5.8-11.5 50.9-84 57.1-87.5 22-12.6 29.9-110 27.8-120-1.9-9.9-26-72.8-31.8-81.7zm-196.9-327c35.5 22.4 128.4-24.5 146.3-54.9 5.8-9.8 2.9-22.2-.2-33.2-9-32.4-22-69.2-53.6-80.8-23.6-8.6-51 .9-69.2 18.3-30 28.9-69.8 121.3-23.3 150.6zm848.5 455.3c-.5-8.7-5.3-17.5-13.3-20.9-7-2.9-15.1-1.4-22.1 1.4-32.8 13.2-49.4 56.5-34 88.2l8.5-5.8c22.2-4.5 42.2-18.8 53.8-38.3 4.3-7.3 7.6-15.9 7.1-24.6zm-337.8 27.3c-7.4-5-17-4.8-25.9-3.8-21.5 2.3-42.6 7.8-62.5 16.3-15.1 6.5-31.3 17.4-32.2 33.8-1 17.9 33.8 62.5 47.7 73.9 20.5 16.8 61.4 10.9 78-12.4 4.8-6.7 6.1-15.1 7-23.3 1.9-17.6 2.2-35.4.9-53.1-.9-11.7-3.3-24.8-13-31.4zm77.4-279.8c-3.5-4.7-7.5-9.3-13-11.4-12.9-4.8-26.2 6.7-32.7 18.9-5.6 10.5-8.9 22.2-9.7 34.1l26.9 72.9c.3 9.1 9.2 16.1 18.3 17.5 9 1.4 18.1-1.5 26.9-4.3 7.5-2.4 15.5-5.2 19.9-11.7 6-8.8 3.2-20.6.1-30.8-8.9-29.9-18.1-60.3-36.7-85.2z" id="Layer_10"/>
    <g id="STROKES">
        <path class="st1" d="M480.9 1284.5s-37.2-2.7-53.7-9.6c-6.1-2.5-52.6-6.3-72.5 25.7S285 1376 285 1376s-40.3 57.6-37.2 92.2c3.1 34.6 28.8 88.5 44.5 95.4 0 0-11 98 59.7 121 70.7 23.1 84.4 17.8 85.9 17.3 1.6-.5 50.8-18.9 58.2-19.4s40.9-31.4 46.6-43c5.8-11.5 50.9-84 57.1-87.5 22-12.6 29.9-110 27.8-120-2.1-10-26.1-72.9-32-81.7-5.7-8.8-21.5-71.8-56.1-71.3-34.4.6-58.6 5.5-58.6 5.5z"/>
        <path class="st1" d="M1177.8 1547.4c-15.5-31.8 1.2-75 34-88.3 7-2.8 15.2-4.4 22.2-1.4 8 3.4 12.9 12.2 13.3 20.9.5 8.7-2.8 17.2-7.2 24.7-11.5 19.5-31.6 33.8-53.8 38.3"/>
        <path class="st1" d="M788.9 1552.2c.9-16.4 17.1-27.3 32.2-33.8 19.9-8.5 41-14 62.5-16.3 8.9-.9 18.5-1.2 25.9 3.8 9.8 6.6 12.1 19.7 13 31.5 1.3 17.7 1 35.4-.9 53.1-.9 8.1-2.2 16.6-7 23.3-16.6 23.3-57.5 29.2-78 12.4-13.9-11.5-48.7-56.1-47.7-74z"/>
        <path class="st1" d="M422.2 872.7c18.1-17.4 45.5-26.9 69.2-18.3 31.6 11.5 44.6 48.4 53.6 80.8 3.1 11 6 23.4.2 33.2-17.9 30.4-110.8 77.3-146.3 54.9-46.6-29.3-6.8-121.7 23.3-150.6z"/>
        <path class="st1" d="M931.5 1267.7c.7-11.9 4.1-23.6 9.7-34.1 6.5-12.2 19.8-23.7 32.7-18.9 5.5 2.1 9.5 6.7 13 11.4 18.5 24.9 27.8 55.3 36.7 85.1 3 10.2 5.9 22-.1 30.8-4.4 6.5-12.4 9.3-19.9 11.7-8.7 2.8-17.8 5.7-26.9 4.3-9.1-1.4-18-8.3-18.3-17.5l-26.9-72.8z"/>
        <path class="st1" d="M566.1 711c-6 10.7-4.8 25.1 2.9 34.6 7.7 9.6 21.5 13.8 33.2 10.2 2.3-.7 4.6-1.7 6-3.6 1.5-2 1.9-4.6 2.2-7.1 1.2-9.1 2.3-18.4 0-27.2s-8.9-17.2-17.9-18.7c-11.2-1.9-21.2 6.9-29.2 15"/>
        <path class="st1" d="M562.3 1185.4l252.5-275.1"/>
        <path class="st1" d="M785.3 1141.4l848.8-924.5"/>
        <path class="st1" d="M1096.7 1161.1L1406 824.2"/>
        <path class="st1" d="M1302.1 1358.4l384-418.2"/>
        <path class="st1" d="M711.4 613.6L923.2 383"/>
        <path class="st1" d="M645.3 896.1l584.4-636.4"/>
    </g>
</svg>
