<svg xmlns="http://www.w3.org/2000/svg" viewBox="0 0 1920 1920">
    <style>
        .st0{fill:#fff}.st1{fill:none;stroke:#231f20;stroke-width:50;stroke-linecap:round;stroke-linejoin:round;stroke-miterlimit:10}
    </style>
    <path class="st0" d="M517.7 642.2v618.5c0 5.7.1 11.4.3 17 59.9-.5 108.3-142.6 108.3-317.8.1-175.4-48.6-317.7-108.6-317.7z" id="Layer_7"/>
    <path class="st0" d="M1293.6 960c0 175.2 48.5 317.3 108.3 317.8.2-5.7.3-11.3.3-17V642.2c-59.9 0-108.6 142.3-108.6 317.8z" id="Layer_13"/>
    <path class="st0" d="M1402.3 642.2v-52.4c0-205.9-166.9-372.8-372.8-372.8h-139c-205.9 0-372.8 166.9-372.8 372.8v52.4c60 0 108.7 142.3 108.7 317.8 0 175.2-48.5 317.3-108.3 317.8 4.4 115.4 52.9 219.4 129.2 295.7 80.1 80 190.6 129.5 312.8 129.5 238.6 0 433-188.9 442-425.3-59.9-.5-108.3-142.6-108.3-317.8-.2-175.4 48.5-317.7 108.5-317.7zm-362.7 27.7c0 44-35.6 79.6-79.6 79.6s-79.6-35.6-79.6-79.6V443c0-22 8.9-41.9 23.3-56.2 14.4-14.4 34.3-23.3 56.3-23.3s41.9 8.9 56.2 23.3c14.4 14.4 23.3 34.3 23.3 56.2v226.9z" id="Layer_8"/>
    <path class="st0" d="M880.4 443v227c0 43.9 35.6 79.6 79.6 79.6s79.6-35.6 79.6-79.6V443c0-22-8.9-41.9-23.3-56.3-14.4-14.4-34.3-23.3-56.3-23.3-43.9 0-79.6 35.6-79.6 79.6z" id="Layer_9"/>
    <g id="STROKES">
        <path class="st1" d="M1029.5 217h-139c-205.9 0-372.8 166.9-372.8 372.8v671c0 5.7.1 11.4.3 17 4.4 115.4 52.9 219.4 129.2 295.7 80 80 190.6 129.5 312.8 129.5 238.6 0 433-188.9 442-425.3.2-5.7.3-11.3.3-17v-671c0-205.8-166.9-372.7-372.8-372.7zm10.1 452.9c0 43.9-35.6 79.6-79.6 79.6s-79.6-35.6-79.6-79.6V443c0-43.9 35.6-79.6 79.6-79.6 22 0 41.9 8.9 56.3 23.3 14.4 14.4 23.3 34.3 23.3 56.3v226.9z"/>
        <path class="st1" d="M960 896V749.5"/>
        <path class="st1" d="M960 363.4V216.9"/>
        <path class="st1" d="M1039.6 443v227c0 43.9-35.6 79.6-79.6 79.6S880.4 714 880.4 670V443c0-43.9 35.6-79.6 79.6-79.6 22 0 41.9 8.9 56.3 23.3 14.4 14.4 23.3 34.3 23.3 56.3z"/>
        <path class="st1" d="M626.4 960c0 175.2-48.5 317.3-108.3 317.8-.2-5.7-.3-11.3-.3-17V642.2c59.9 0 108.6 142.3 108.6 317.8z"/>
        <path class="st1" d="M1402.3 642.2v618.5c0 5.7-.1 11.4-.3 17-59.9-.5-108.3-142.6-108.3-317.8-.1-175.4 48.6-317.7 108.6-317.7z"/>
    </g>
</svg>
