<svg xmlns="http://www.w3.org/2000/svg" viewBox="0 0 1920 1920">
    <style>
        .st0{fill:#fff}.st1{fill:none;stroke:#231f20;stroke-width:50;stroke-linecap:round;stroke-linejoin:round;stroke-miterlimit:10}
    </style>
    <path class="st0" d="M1703.1 453.7v810.5h-425.6V453.7h425.6zm-84.9 420.4v-69h-67.3v69h67.3zm-67.3-69v69h67.3v-69h-67.3z" id="Layer_9"/>
    <path class="st0" d="M284.6 521.3h847.1v533.8H284.6z" id="Layer_10"/>
    <path class="st0" d="M1199.4 453.7v669.2H216.9V453.7h982.5zm-67.7 601.5V521.3H284.6v533.8h847.1zm-467 67.7v141.3h87v-141.3h-87z" id="Layer_11"/>
    <path class="st0" d="M1199.8 1605.1v75.8H216.9v-75.8h982.9zm-491.2-246.9H294.3L216.9 1605h982.8l-77.4-246.8H708.6zm0 179.2H322l33.5-110.7h706.2l33.5 110.7H708.6z" id="Layer_12"/>
    <path class="st0" d="M1061.7 1426.8l33.5 110.6H322l33.5-110.6H709z" id="Layer_13"/>
    <path class="st0" d="M1425.3 1576.2c-6.1-62.3 21.2-116.4 65.1-124.7 47.7-9 96.9 39.5 109.9 108.4s-15.1 132-62.8 141c-47.7 9-96.9-39.5-109.9-108.4-1-5.5-1.8-11-2.3-16.3z" id="Layer_14"/>
    <g id="STROKES">
        <g id="XMLID_1_">
            <path class="st1" d="M664.7 1122.9H216.9V453.7h982.5v669.2H751.7z"/>
            <path class="st1" d="M284.6 521.3h847.1v533.8H284.6z"/>
            <path class="st1" d="M1703.1 1264.2h-425.7V453.7h425.7z"/>
            <path class="st1" d="M1359.7 521.3h261.1"/>
            <path class="st1" d="M1359.7 589h261.1"/>
            <path class="st1" d="M1359.7 1196.5h261.1"/>
            <path class="st1" d="M1359.7 1129.8h261.1"/>
            <path class="st1" d="M1550.9 805.1h67.3v69h-67.3z"/>
            <path class="st1" d="M664.7 1122.9v141.3"/>
            <path class="st1" d="M751.7 1122.9v141.3"/>
            <path class="st1" d="M462.2 1264.2h492"/>
            <path class="st1" d="M708.2 1358.2H294.3l-77.4 246.9h491.3"/>
            <path class="st1" d="M708.6 1358.2h413.9l77.3 246.9H708.6"/>
            <path class="st1" d="M216.9 1605.1v75.8h982.9v-75.8"/>
            <path class="st1" d="M709 1426.8h352.7l33.5 110.6H322l33.5-110.6h352.7"/>
            <path class="st1" d="M1277.4 1163.7s-183.4 184.2 48.3 184.2c164.5 0 164.5 98.2 164.5 98.2"/>
            <path class="st1" d="M1600.2 1559.9c13 68.9-15.1 132-62.8 141-47.7 9-96.9-39.5-109.9-108.4-1-5.5-1.8-10.9-2.3-16.3-6.1-62.3 21.2-116.4 65.1-124.7 47.8-9 96.9 39.5 109.9 108.4z"/>
            <path class="st1" d="M1425.3 1576.2l159.2-48.8"/>
        </g>
    </g>
</svg>
