<svg xmlns="http://www.w3.org/2000/svg" viewBox="0 0 1920 1920">
    <style>
        .st0{fill:#fff}.st1{fill:none;stroke:#231f20;stroke-width:50;stroke-linecap:round;stroke-linejoin:round;stroke-miterlimit:10}
    </style>
    <path class="st0" d="M1450.7 402.1c308.1 271 338.2 740.5 67.2 1048.7-271 308.1-740.5 338.2-1048.7 67.2C161.1 1247 131 777.5 402 469.3c271.1-308.2 740.6-338.3 1048.7-67.2zm-410.6 600.1l345.4-467.8-467.7 345.5c-7.8 4.1-15.2 9.5-21.8 16.1s-11.9 13.9-16.1 21.8l-345.4 467.8 467.8-345.4c7.8-4.1 15.2-9.5 21.8-16.1 6.5-6.7 11.8-14 16-21.9z" id="Layer_2"/>
    <path class="st0" d="M1024 896c28.8 28.8 34.1 72.1 16.1 106.2L1024 1024l-21.8 16.1c-34.2 18-77.5 12.7-106.2-16.1-28.8-28.8-34.1-72.1-16.1-106.2L896 896l21.8-16.1c34.1-18 77.4-12.7 106.2 16.1z" id="Layer_3"/>
    <path class="st0" d="M1385.5 534.5l-345.4 467.8c18-34.2 12.7-77.5-16.1-106.2-28.8-28.8-72.1-34.1-106.2-16.1l467.7-345.5zM896 1024c-28.8-28.8-34.1-72.1-16.1-106.2l-345.4 467.8 467.8-345.4c-34.2 17.9-77.5 12.6-106.3-16.2z" id="Layer_4"/>
    <g id="STROKES">
        <path class="st1" d="M1517.9 1450.7c-271 308.1-740.5 338.2-1048.7 67.2C161.1 1246.9 131 777.4 402 469.2 673 161.1 1142.5 131 1450.7 402c308.2 271.1 338.3 740.6 67.2 1048.7z"/>
        <path class="st1" d="M1024 1024c-6.6 6.6-13.9 11.9-21.8 16.1-34.2 18-77.5 12.7-106.2-16.1-28.8-28.8-34.1-72.1-16.1-106.2 4.1-7.8 9.5-15.2 16.1-21.8s13.9-11.9 21.8-16.1c34.2-18 77.5-12.7 106.2 16.1 28.8 28.8 34.1 72.1 16.1 106.2-4.2 7.9-9.5 15.2-16.1 21.8z"/>
        <path class="st1" d="M960 372V217"/>
        <path class="st1" d="M960 1703v-155"/>
        <path class="st1" d="M1548 960h155"/>
        <path class="st1" d="M217 960h155"/>
        <path class="st1" d="M896 896l21.8-16.1 467.7-345.4-345.4 467.7-16.1 21.8"/>
        <path class="st1" d="M1024 1024l-21.8 16.1-467.7 345.4 345.4-467.7L896 896"/>
    </g>
</svg>
