<svg xmlns="http://www.w3.org/2000/svg" viewBox="0 0 1920 1920">
    <style>
        .st0{fill:#fff}.st1{fill:none;stroke:#231f20;stroke-width:50;stroke-linecap:round;stroke-linejoin:round;stroke-miterlimit:10}
    </style>
    <path class="st0" d="M1704.8 912.3c26.4 411.3-285.7 766.2-697.1 792.5-411.3 26.4-766.2-285.7-792.5-697.1-26.4-411.4 285.7-766.2 697.1-792.5s766.2 285.7 792.5 697.1zm-307.4 485.1c121.3-121.4 191.7-292.3 179.9-477-10-156.3-77.2-295.2-179.9-397.8-121.4-121.3-292.3-191.7-477-179.9-156.3 10-295.2 77.2-397.8 179.9-121.3 121.4-191.7 292.3-179.9 477 10 156.3 77.2 295.2 179.9 397.8 121.4 121.3 292.3 191.7 477 179.9 156.2-10 295.2-77.2 397.8-179.9z" id="Layer_5"/>
    <path class="st0" d="M522.6 522.6c102.6-102.7 241.6-169.9 397.8-179.9 184.7-11.8 355.6 58.6 477 179.9 102.7 102.6 169.9 241.6 179.9 397.8 11.8 184.7-58.6 355.6-179.9 477-102.6 102.7-241.6 169.9-397.8 179.9-184.7 11.8-355.6-58.6-477-179.9-102.7-102.6-169.9-241.6-179.9-397.8-11.8-184.7 58.6-355.6 179.9-477zm502.9 502.9l435.4-65.5-435.4-65.5L960 459.1l-65.5 435.5L459.1 960l435.5 65.5 65.5 435.4 65.4-435.4z" id="Layer_6"/>
    <path class="st0" d="M888 982.3l6.5 43.2L459.1 960l435.5-65.5-6.5 43.2c-2.2 7-3.4 14.5-3.4 22.3s1.1 15.2 3.3 22.3zm49.7 49.7l-43.2-6.5 65.5 435.4 65.5-435.4-43.2 6.5c-7 2.2-14.5 3.3-22.3 3.3s-15.2-1.1-22.3-3.3zm87.8-137.5l6.5 43.2c2.2 7 3.3 14.5 3.3 22.3s-1.2 15.2-3.3 22.3l-6.5 43.2 435.4-65.5-435.4-65.5zm-131 0l43.2-6.5c7-2.2 14.5-3.4 22.3-3.4s15.2 1.2 22.3 3.4l43.2 6.5L960 459.1l-65.5 435.4z" id="Layer_7"/>
    <path class="st0" d="M1032 937.7l3.3 22.3-3.3 22.3c-7.3 23.7-26 42.4-49.7 49.7l-22.3 3.3-22.3-3.3c-23.7-7.3-42.4-26-49.7-49.7l-3.4-22.3 3.4-22.3c7.3-23.7 26-42.4 49.7-49.7l22.3-3.4 22.3 3.4c23.7 7.3 42.4 26 49.7 49.7z" id="Layer_8"/>
    <g id="STROKES">
        <path class="st1" d="M1397.4 522.6c102.7 102.6 169.9 241.6 179.9 397.8 11.8 184.7-58.6 355.6-179.9 477-102.6 102.7-241.6 169.9-397.8 179.9-184.7 11.8-355.6-58.6-477-179.9-102.7-102.6-169.9-241.6-179.9-397.8-11.8-184.7 58.6-355.6 179.9-477 102.6-102.7 241.6-169.9 397.8-179.9 184.7-11.8 355.6 58.6 477 179.9z"/>
        <path class="st1" d="M1704.8 912.3c-26.4-411.4-381.2-723.5-792.5-697.1s-723.5 381.2-697.1 792.5c26.4 411.3 381.2 723.5 792.5 697.1 411.4-26.3 723.5-381.2 697.1-792.5z"/>
        <path class="st1" d="M613.9 613.9l-91.3-91.3"/>
        <path class="st1" d="M1397.4 1397.4l-91.3-91.3"/>
        <path class="st1" d="M1306.1 613.9l91.3-91.3"/>
        <path class="st1" d="M522.6 1397.4l91.3-91.3"/>
        <path class="st1" d="M1035.3 960c0 7.8-1.2 15.2-3.3 22.3-7.3 23.7-26 42.4-49.7 49.7-7 2.2-14.5 3.3-22.3 3.3s-15.2-1.2-22.3-3.3c-23.7-7.3-42.4-26-49.7-49.7-2.2-7-3.4-14.5-3.4-22.3s1.2-15.2 3.4-22.3c7.3-23.7 26-42.4 49.7-49.7 7-2.2 14.5-3.4 22.3-3.4s15.2 1.2 22.3 3.4c23.7 7.3 42.4 26 49.7 49.7 2.2 7.1 3.3 14.5 3.3 22.3z"/>
        <path class="st1" d="M884.7 960l3.3-22.3 6.5-43.2L960 459.1l65.5 435.4 6.5 43.2 3.3 22.3"/>
        <path class="st1" d="M1035.3 960l-3.3 22.3-6.5 43.2-65.5 435.4-65.5-435.4-6.5-43.2-3.3-22.3"/>
        <path class="st1" d="M960 884.7l22.3 3.3 43.2 6.5 435.4 65.5-435.4 65.5-43.2 6.5-22.3 3.3"/>
        <path class="st1" d="M960 1035.3l-22.3-3.3-43.2-6.5L459.1 960l435.4-65.5 43.2-6.5 22.3-3.3"/>
    </g>
</svg>
