<svg xmlns="http://www.w3.org/2000/svg" viewBox="0 0 1920 1920">
    <style>
        .st0{fill:#fff}.st1{fill:none;stroke:#231f20;stroke-width:50;stroke-linecap:round;stroke-linejoin:round;stroke-miterlimit:10}
    </style>
    <path class="st0" d="M467.5 351h984.9v799.6H467.5z" id="Layer_1"/>
    <path class="st0" d="M1586.4 216.9v1067.6H333.6V216.9h1252.8zm-134 933.6V351H467.5v799.6h984.9z" id="Layer_2"/>
    <path class="st0" d="M1586.4 1284.5V1703H333.6v-418.5h1252.8zm-191 289.2c42-12.2 66.1-56.2 53.9-98.2-12.2-42-56.2-66.1-98.2-53.9-42 12.2-66.1 56.2-53.9 98.2s56.2 66.1 98.2 53.9zm-205.1-76c0-43.7-35.5-79.2-79.2-79.2s-79.2 35.4-79.2 79.2c0 43.7 35.4 79.2 79.2 79.2 43.7 0 79.2-35.5 79.2-79.2zm-262.1 79.2v-158.4H467.5v158.4h460.7z" id="Layer_3"/>
    <path class="st0" d="M1449.3 1475.6c12.2 42-11.9 85.9-53.9 98.2-42 12.2-85.9-11.9-98.2-53.9s11.9-85.9 53.9-98.2c42-12.3 86 11.9 98.2 53.9zm-417.4 22.1c0 43.7 35.4 79.2 79.2 79.2 43.7 0 79.2-35.5 79.2-79.2s-35.5-79.2-79.2-79.2-79.2 35.5-79.2 79.2zm-564.4-79.2v158.4h460.6v-158.4H467.5z" id="Layer_5"/>
    <g id="STROKES">
        <g id="XMLID_1_">
            <path class="st1" d="M1586.4 1284.5v418.6H333.6V216.9h1252.8z"/>
            <path class="st1" d="M333.6 1284.5h1252.8"/>
            <path class="st1" d="M467.5 1418.5h460.6v158.4H467.5z"/>
            <path class="st1" d="M1190.3 1497.7c0 43.7-35.5 79.2-79.2 79.2s-79.2-35.5-79.2-79.2 35.4-79.2 79.2-79.2c43.7 0 79.2 35.5 79.2 79.2z"/>
            <path class="st1" d="M1449.3 1475.6c12.2 42-11.9 85.9-53.9 98.2-42 12.2-85.9-11.9-98.2-53.9s11.9-85.9 53.9-98.2c42-12.3 86 11.9 98.2 53.9z"/>
            <path class="st1" d="M467.5 351h984.9v799.6H467.5z"/>
        </g>
    </g>
</svg>
