<svg xmlns="http://www.w3.org/2000/svg" viewBox="0 0 1920 1920">
    <style>
        .st0{fill:#fff}.st1{fill:none;stroke:#231f20;stroke-width:50;stroke-linecap:round;stroke-linejoin:round;stroke-miterlimit:10}
    </style>
    <path class="st0" d="M960 526.9v432.9H581.4V710.1c0-101.2 82-183.2 183.2-183.2H960z" id="Layer_10"/>
    <path class="st0" d="M1338.6 710.1v249.7H960V526.9h195.4c101.1 0 183.2 82 183.2 183.2z" id="Layer_11"/>
    <path class="st0" d="M1338.6 959.8v560c0 101.2-82 183.2-183.2 183.2H764.6c-101.2 0-183.2-82-183.2-183.2v-560h757.2z" id="Layer_12"/>
    <g id="STROKES">
        <path class="st1" d="M960 526.9v432.9H581.4V710.1c0-101.2 82-183.2 183.2-183.2H960z"/>
        <path class="st1" d="M1338.6 710.1v249.7H960V526.9h195.4c101.1 0 183.2 82 183.2 183.2z"/>
        <path class="st1" d="M1338.6 959.8v560c0 101.2-82 183.2-183.2 183.2H764.6c-101.2 0-183.2-82-183.2-183.2v-560h757.2z"/>
        <path class="st1" d="M960 526.9V227.7"/>
    </g>
</svg>
