<svg xmlns="http://www.w3.org/2000/svg" viewBox="0 0 1920 1920">
    <style>
        .st0{fill:#fff}.st1{fill:none;stroke:#231f20;stroke-width:50;stroke-linecap:round;stroke-linejoin:round;stroke-miterlimit:10}
    </style>
    <path class="st0" d="M1004.8 548.7V666c-29.9-2.6-59.9-2.5-89.7 0V548.7h89.7zm54.8-89.6H860.4v89.7h199.1v-89.7z" id="Layer_9"/>
    <path class="st0" d="M1004.8 666c106.8 9.2 211.6 51.3 298.2 127.5 215.4 189.5 236.5 517.7 47 733.2-189.5 215.4-517.7 236.5-733.2 47-215.4-189.5-236.5-517.7-47-733.2C661.8 735.9 786.4 677.2 915 666c30-2.6 60-2.6 89.8 0zm269.6 794.1c152.8-173.7 135.8-438.3-37.9-591s-438.3-135.8-591 37.9c-152.8 173.7-135.8 438.3 37.9 591s438.3 135.8 591-37.9z" id="Layer_10"/>
    <path class="st0" d="M1236.6 869.1c173.7 152.8 190.6 417.4 37.9 591-152.8 173.7-417.4 190.6-591 37.9s-190.6-417.4-37.9-591c152.7-173.7 417.3-190.7 591-37.9zm-212.1 378.7l237.5-64.5-237.5-64.5L960 881.3l-64.5 237.5-237.5 64.5 237.5 64.5 64.5 237.5 64.5-237.5z" id="Layer_11"/>
    <path class="st0" d="M884.7 1208.1l10.8 39.7-237.5-64.5 237.5-64.5-11.3 41.7c-4.7 15.6-4.5 32.3.5 47.6zm139.8-89.3l11.3 41.7c4.7 15.5 4.5 32.2-.6 47.7l-10.8 39.6 237.5-64.5-237.4-64.5zm-38.2 139.4c-17 6-35.6 6-52.7 0l-38.1-10.4 64.5 237.5 64.5-237.5-38.2 10.4zm-90.8-139.4l41.7-11.3v.1c14.8-4.4 30.6-4.5 45.5 0v-.1l41.7 11.3L960 881.3l-64.5 237.5z" id="Layer_12"/>
    <path class="st0" d="M1035.3 1208.2c-3.2 9.9-8.5 19.3-15.8 27.6-9.3 10.6-20.8 18.1-33.2 22.4-16.9 5.9-35.6 6-52.7 0-9.3-3.3-18.1-8.3-25.9-15.2-11-9.7-18.7-21.8-23-34.9-5-15.4-5.2-32-.5-47.6 3.2-10.5 8.6-20.6 16.4-29.4 10.2-11.6 23-19.5 36.7-23.6 14.8-4.4 30.6-4.5 45.5 0 10.6 3.2 20.7 8.6 29.5 16.4 11.5 10.1 19.4 22.8 23.5 36.5 4.7 15.6 4.6 32.3-.5 47.8z" id="Layer_13"/>
    <g id="STROKES">
        <path class="st1" d="M986.3 1258.2c12.4-4.3 23.9-11.8 33.2-22.4 7.3-8.3 12.6-17.7 15.8-27.6 5.1-15.5 5.2-32.2.6-47.7-4.1-13.7-12-26.4-23.5-36.5-8.9-7.8-19-13.2-29.5-16.4-14.9-4.5-30.8-4.4-45.5 0-13.8 4.1-26.5 12-36.7 23.6-7.7 8.8-13.2 18.8-16.4 29.4-4.7 15.6-4.5 32.2.5 47.6 4.2 13 11.9 25.1 23 34.9 7.8 6.9 16.7 12 25.9 15.2 17 5.9 35.6 5.9 52.6-.1"/>
        <path class="st1" d="M1236.6 869.1c-173.7-152.8-438.3-135.8-591 37.9-152.8 173.7-135.8 438.3 37.9 591s438.3 135.8 591-37.9c152.7-173.6 135.7-438.3-37.9-591z"/>
        <path class="st1" d="M915.2 666C786.6 677.1 661.9 735.9 570 840.5c-189.5 215.4-168.5 543.7 47 733.2 215.4 189.5 543.7 168.4 733.2-47s168.5-543.7-47-733.2c-86.6-76.2-191.5-118.3-298.2-127.5-30-2.6-60-2.6-89.8 0z"/>
        <path class="st1" d="M1035.8 1160.5l-11.3-41.7L960 881.3l-64.5 237.5-11.3 41.7"/>
        <path class="st1" d="M884.2 1206.1l.5 2 10.8 39.7 64.5 237.5 64.5-237.5 10.8-39.6.5-2.1"/>
        <path class="st1" d="M982.8 1259.2l3.5-1 38.2-10.4 237.5-64.5-237.5-64.5-41.7-11.3"/>
        <path class="st1" d="M937.2 1107.5l-41.7 11.3-237.5 64.5 237.5 64.5 38.1 10.4 3.6 1"/>
        <path class="st1" d="M1004.8 548.7V666"/>
        <path class="st1" d="M915.2 666V548.7"/>
        <path class="st1" d="M1059.6 459.6c25.3-25.4 41-60.5 41-99.2 0-77.6-62.9-140.6-140.6-140.6s-140.6 62.9-140.6 140.6c0 38.7 15.7 73.8 41 99.2"/>
        <path class="st1" d="M1059.6 459.6v89.1H860.4v-89.6h199.2z"/>
    </g>
</svg>
