<svg xmlns="http://www.w3.org/2000/svg" viewBox="0 0 1920 1920">
    <style>
        .st0{fill:#fff}.st1{fill:none;stroke:#231f20;stroke-width:50;stroke-linecap:round;stroke-linejoin:round;stroke-miterlimit:10}
    </style>
    <path class="st0" d="M960 1703.1c-204.1 0-366.1-171.7-354.3-375.4l34.8-601.4c2.2-38.9 13.5-75.5 31.8-107.6 35.6-62.7 97.9-108.4 172.2-121.4-99.7 18-172.2 106-172.2 208v496.4c0 158.6 128.2 287.2 286.7 287.8 158.9.6 288.8-131.1 288.8-290V705.1c0-102.9-73.8-191.5-174.8-208.4 75.4 12.4 138.8 58.4 174.8 121.9 18.2 32.1 29.5 68.7 31.8 107.6l34.8 601.5c11.7 203.6-150.3 375.4-354.4 375.4z" id="Layer_2"/>
    <path class="st0" d="M1012.2 777.1c-1 46.9-24 84.4-52.2 84.4s-51.3-37.5-52.2-84.4c-134 10.3-235.5 59.6-235.5 118.8v305.6c0 158.6 128.2 287.2 286.7 287.8 158.9.6 288.8-131.1 288.8-290V896c0-59.3-101.6-108.5-235.6-118.9z" id="Layer_4"/>
    <path class="st0" d="M1072.9 496.6c-.8-.1-1.6-.3-2.4-.4-.8-.1-1.6-.2-2.4-.4-.4-.1-.7-.1-1.1-.2-1.1-.2-2.1-.3-3.2-.4-31.6-4-66.3-6.3-103.8-6.3-18.8 0-36.9.6-54.3 1.7s-34 2.7-49.8 4.7c-1 .1-2 .3-3 .4-.4.1-.8.1-1.3.2-.8.1-1.6.2-2.4.4-.8.1-1.6.2-2.4.4-.8.1-1.6.3-2.4.4-99.7 18-172.2 106-172.2 208V896c0-59.2 101.5-108.5 235.5-118.8v-3.1c0-48.3 23.4-87.5 52.3-87.5s52.3 39.2 52.3 87.5v3.1c134 10.3 235.5 59.6 235.5 118.8V705.1c0-102.9-73.9-191.5-174.9-208.5z" id="Layer_5"/>
    <path class="st0" d="M960 861.6c28.3 0 51.3-37.5 52.2-84.4v-3.1c0-48.3-23.4-87.5-52.3-87.5s-52.3 39.2-52.3 87.5v3.1c1.1 46.8 24.1 84.4 52.4 84.4z" id="Layer_6"/>
    <g id="STROKES">
        <path class="st1" d="M960 218.5c37.3 37.3 37.3 97.9 0 135.2-37.3 37.3-37.3 97.9 0 135.2"/>
        <path class="st1" d="M1314.3 1327.6l-34.8-601.5c-2.3-38.9-13.5-75.5-31.8-107.6-36-63.4-99.4-109.5-174.8-121.9-.8-.1-1.6-.3-2.4-.4-.8-.1-1.6-.2-2.4-.4-.4-.1-.7-.1-1.1-.2-1.1-.2-2.1-.3-3.2-.4-31.6-4-66.3-6.3-103.8-6.3-37.6 0-72.4 2.4-104.1 6.4-1 .1-2 .3-3 .4-.4.1-.8.1-1.3.2-.8.1-1.6.2-2.4.4-.8.1-1.6.2-2.4.4-.8.1-1.6.3-2.4.4-74.3 13-136.6 58.7-172.2 121.4-18.3 32.1-29.5 68.7-31.8 107.6l-34.8 601.4c-11.8 203.7 150.2 375.4 354.3 375.4s366.2-171.6 354.4-375.3zm-66.5-128.3c0 158.9-130 290.6-288.8 290-158.4-.6-286.7-129.2-286.7-287.8V896c0-59.2 101.5-108.5 235.5-118.8v-3.1c0-48.3 23.4-87.5 52.3-87.5s52.3 39.2 52.3 87.5v3.1c134 10.3 235.5 59.6 235.5 118.8v303.3z"/>
        <path class="st1" d="M1247.8 705.1V896c0-59.2-101.5-108.5-235.5-118.8v-3.1c0-48.3-23.4-87.5-52.3-87.5s-52.3 39.2-52.3 87.5v3.1c-134 10.3-235.5 59.6-235.5 118.8V705.1c0-102 72.6-189.9 172.2-208 .8-.1 1.6-.3 2.4-.4.8-.1 1.6-.3 2.4-.4.8-.1 1.6-.2 2.4-.4.4-.1.8-.1 1.3-.2 1-.1 2-.3 3-.4 31.7-4.1 66.5-6.4 104.1-6.4 37.5 0 72.2 2.3 103.8 6.3 1.1.1 2.1.3 3.2.4.4 0 .7.1 1.1.2.8.1 1.6.2 2.4.4.8.1 1.6.3 2.4.4 101 17 174.9 105.6 174.9 208.5z"/>
        <path class="st1" d="M1012.3 774.1v3.1c-1 46.9-24 84.4-52.2 84.4s-51.3-37.5-52.2-84.4v-3.1c0-48.3 23.4-87.5 52.3-87.5s52.1 39.1 52.1 87.5z"/>
        <path class="st1" d="M960 686.5V489"/>
        <path class="st1" d="M1247.8 896v303.4c0 158.9-130 290.6-288.8 290-158.4-.6-286.7-129.2-286.7-287.8V896c0-59.2 101.5-108.5 235.5-118.8 1 46.9 24 84.4 52.2 84.4s51.3-37.5 52.2-84.4c134 10.3 235.6 59.5 235.6 118.8z"/>
    </g>
</svg>
