<svg xmlns="http://www.w3.org/2000/svg" viewBox="0 0 1920 1920">
    <style>
        .st0{fill:#fff}.st1{fill:none;stroke:#000;stroke-width:50;stroke-linecap:round;stroke-linejoin:round;stroke-miterlimit:10}
    </style>
    <path class="st0" d="M1399.3 1461.4c-130.3 83.8-263.6 122.2-341.8 105.1l497.2 136.5 47.8-297.2 33.9-210.7c-17.5 78.2-107.5 182.9-237.1 266.3z" id="Layer_2"/>
    <path class="st0" d="M1628.1 1127c-36.6-56.9-152.7-50.7-284 7.2-37.7 16.6-76.6 37.5-115.2 62.3-54.1 34.8-101.2 73.3-139.1 112 71.4 25.4 146.3 57.4 224.3 97.2-2.5-.9-109.3-37-256.6-61.6-60.7 73.2-85.3 143.4-57.4 186.7 9.5 14.8 24.5 25.4 43.8 31.9h.1l13.5 3.7c78.2 17.1 211.5-21.3 341.8-105.1 129.7-83.4 219.7-188.1 237.1-266.3l2.6-15.9c1.9-19.7-1.5-37.4-10.9-52.1z" id="Layer_3"/>
    <path class="st0" d="M864.5 802c189.2-102.9 123.9-190.1 123.9-190.1-26 17-51.1 32.3-75.4 46-138.8 78.6-250 106.6-338.1 106.6-11.6 0-22.9-.5-33.7-1.4-191.5-16.4-259.3-169.3-259.3-169.3-16.8 185 119.8 260 274.2 270 110.3 7.1 229.6-18.9 308.4-61.8zm134.8 203.9c-367.3 130.6-441.4-135.3-443.2-142 98.9 434 570 243.9 570 243.9-139-18.5-126.8-101.9-126.8-101.9z" id="Layer_4"/>
    <path class="st0" d="M749.5 315.7c-22.7-47.4 0-94.8 0-94.8-432.6-49.4-467.6 372.9-467.6 372.9 103-329.6 467.6-278.1 467.6-278.1zM541.3 763.1C700.7 555.4 913 657.8 913.1 657.9l75.4-46C754.6 380.5 543 760.1 541.3 763.1z" id="Layer_5"/>
    <path class="st0" d="M1089.7 1308.5c-486.6-173.3-809.2-43.2-809.2-43.2 78.5 83.5 75.2 188.5 75.2 188.5 189.5-156.4 488.2-145.2 701.7-109.7 147.3 24.5 254.1 60.7 256.6 61.6-77.9-39.8-152.9-71.8-224.3-97.2z" id="Layer_6"/>
    <path class="st0" d="M309.4 1051.9l42.7 84.5s85.1-41.8 163.6-31.7l-19.2-52.8s-120-24.3-187.1 0zm1014.1-324.8c-49.1-5.6-90.2-23.1-90.2-23.1-76.3 61.7-61.8 160.7-48.2 210.4 4.2 15.2 18.8 25 34.5 23 12.8-1.6 26.6-.7 38.9 1 18.5 2.6 35.1-11.2 36.1-29.8 3.4-62 26.7-109.3 47.8-140.1 11.4-16.5 1.1-39.1-18.9-41.4z" id="Layer_7"/>
    <path class="st0" d="M684.3 1459.7c-120.5-6.5-168.6 57.2-168.6 57.2 7.1 47.5 40.8 84.7 71.3 109.4 22 17.8 54.4 11.6 68.8-12.8 13.1-22.2 31.7-39 47.9-50.6 14.3-10.2 17.9-30 8.1-44.7-16.9-25.2-27.5-58.5-27.5-58.5zm498.3-905l-39.2-6.7s-72.5 72.5 0 181.3h38.1s-31.1-100.6 10.7-146.6c9-9.8 3.6-25.7-9.6-28z" id="Layer_8"/>
    <g id="STROKES">
        <path class="st1" d="M988.5 611.8l-75.4 46c24.3-13.7 49.4-29 75.4-46z"/>
        <path class="st1" d="M1639 1179.2c-.5 5.2-1.3 10.5-2.6 15.9l2.6-15.9z"/>
        <path class="st1" d="M1057.4 1566.5c-4.7-1-9.2-2.3-13.5-3.7l13.5 3.7z"/>
        <path class="st1" d="M1636.4 1195.1c-17.5 78.1-107.5 182.9-237.1 266.3-130.3 83.8-263.7 122.2-341.8 105.1-4.7-1-9.3-2.3-13.6-3.7-19.2-6.4-34.2-17-43.8-31.9-27.9-43.3-3.3-113.5 57.4-186.7 147.3 24.5 254.1 60.7 256.6 61.6-78-39.9-152.9-71.8-224.3-97.2 37.9-38.7 85.1-77.2 139.1-112 38.6-24.9 77.5-45.7 115.2-62.3 131.3-57.9 247.4-64 284-7.2 11.8 18.4 14.2 41.7 8.3 68z"/>
        <path class="st1" d="M1043.8 1562.8l510.8 140.3L1639 1179"/>
        <path class="st1" d="M1314 1405.8c-2.5-.9-109.3-37-256.6-61.6-213.5-35.6-512.2-46.7-701.7 109.7 0 0 3.3-105-75.2-188.5 0 0 322.7-130.1 809.2 43.2 71.4 25.3 146.4 57.3 224.3 97.2z"/>
        <path class="st1" d="M1342.4 768.5c-21.1 30.8-44.4 78.1-47.8 140.1-1 18.6-17.6 32.4-36.1 29.8-12.3-1.7-26.1-2.6-38.9-1-15.6 1.9-30.3-7.9-34.5-23-13.6-49.7-28.1-148.7 48.2-210.4 0 0 41.2 17.5 90.2 23.1 20 2.3 30.3 24.9 18.9 41.4z"/>
        <path class="st1" d="M749.5 221s-22.7 47.4 0 94.8c0 0-364.6-51.5-467.6 278.1 0-.1 35-422.4 467.6-372.9z"/>
        <path class="st1" d="M281.9 593.8s164.8 371.8 706.6 18c0 0 65.2 87.2-123.9 190.1S253.1 911.1 281.9 593.8z"/>
        <path class="st1" d="M556.1 863.8s71.3 274.3 443.3 142.1c0 0-12.2 83.4 126.8 102 0 0-471.2 190.1-570.1-244.1z"/>
        <path class="st1" d="M541.3 763.1s212.4-383.6 447.2-151.3l-75.4 46c0 .1-212.3-102.4-371.8 105.3z"/>
        <path class="st1" d="M1284 1628.1s235.2-33.7 318.6-222.3"/>
        <path class="st1" d="M1143.4 548.1s-72.5 72.5 0 181.4h38.1s-31.1-100.6 10.7-146.6c9-9.9 3.6-25.8-9.6-28.1l-39.2-6.7z"/>
        <path class="st1" d="M684.3 1459.7s10.5 33.3 27.4 58.6c9.7 14.7 6.2 34.4-8.1 44.7-16.2 11.6-34.8 28.4-47.9 50.6-14.3 24.4-46.8 30.6-68.7 12.8-30.5-24.7-64.1-61.9-71.3-109.4 0-.1 48.1-63.8 168.6-57.3z"/>
        <path class="st1" d="M1443.2 1329c-71.9-68.5-139.4-265.9-103.8-358.6 16.8-43.7 55.5-86.9 101.8-80.6 22.8 3.1 42.4 17.8 57.8 34.9 18.1 20 31.9 43.8 40.3 69.4 4.8 14.6 6.8 33.1-4.8 43.3-10.2 8.9-25.8 6.6-38.4 1.6-32.3-13-57-40.6-72.3-71.9-27.7-56.6-23.8-131 20-176.2 31.5-32.5 78.6-46 123.9-46.1s89.6 11.9 133.2 23.7"/>
        <path class="st1" d="M309.4 1051.9l42.7 84.5s85.1-41.8 163.6-31.7l-19.2-52.8s-120-24.3-187.1 0z"/>
    </g>
</svg>
