<svg xmlns="http://www.w3.org/2000/svg" viewBox="0 0 1920 1920">
    <style>
        .st0{fill:#fff}.st1{fill:none;stroke:#000;stroke-width:50;stroke-linecap:round;stroke-linejoin:round;stroke-miterlimit:10}
    </style>
    <path class="st0" d="M479.2 1396.4l86.5 64.7 49.2-65.7-86.5-64.7-49.2 65.7zM773.2 267c-40.2 0-72.8 32.6-72.8 72.8 0 40.2 32.6 72.8 72.8 72.8 40.2 0 72.8-32.6 72.8-72.8 0-40.3-32.6-72.8-72.8-72.8zm333.9 908.1l-54.7 33.2s20.5 99.3 58.4 134.8c0 0 13.5-29.2 53.3-32.4 39.8-3.2-57-135.6-57-135.6z" id="Layer_17"/>
    <path class="st0" d="M1003.6 827c-31.5 0-57 25.5-57 57s25.5 57 57 57 57-25.5 57-57-25.5-57-57-57zM675 1168.9c-14.6-16.7-32.4-31.8-54-36.7-4.2-.9-9.1-1.3-12.2 1.6-1.9 1.8-2.7 4.4-3.4 6.9-4.1 15.8-5.8 32.6-1.7 48.4 8.4 32.7 46.1 51.5 76.7 58.2 2.3.5 4.8.9 6.8-.2 1.8-.9 2.9-2.8 3.7-4.7 6.9-14.4 7.5-31.7 1.7-46.6-3.9-9.9-10.5-18.7-17.6-26.9zm483 325c-36.4 0-66 29.5-66 66 0 36.4 29.6 66 66 66 36.5 0 66-29.6 66-66 .1-36.5-29.5-66-66-66z" id="Layer_18"/>
    <path class="st0" d="M703.9 1052.3l119.8 42.3L867.4 971l-119.8-42.3-43.7 123.6zm662.4-48.4l-142.3 31.2 23.4 106.6 142.3-31.2-23.4-106.6z" id="Layer_19"/>
    <path class="st0" d="M476.8 927.7l122.9-86.6-140.8-19.2 17.9 105.8zM1170 862l108.1 54.1v-162L1170 862z" id="Layer_20"/>
    <path class="st0" d="M572.5 600.9l36.9 95.8 95.8-36.9-36.9-95.8-95.8 36.9zm1009.8 76.9c-14.2-20-56.9-14.2-95.4 13.1-38.5 27.3-58.3 65.6-44.1 85.6 14.2 20 56.9 14.2 95.4-13.1 38.6-27.2 58.3-65.6 44.1-85.6z" id="Layer_21"/>
    <path class="st0" d="M902.9 1218.4c-34 4.8-68.6 67.2-79.6 95.1 15.9 6.8 32.9 11.7 50.1 10.9 17.2-.7 34.7-7.7 45.4-21.3 17-21.7 26.1-90.6-15.9-84.7zM1021 641.6v78.3h78.3v-78.3H1021z" id="Layer_22"/>
    <g id="STROKES">
        <path transform="rotate(-12.393 1306.903 1073.093)" class="st1" d="M1234.1 1018.3h145.7v109.2h-145.7z"/>
        <path transform="rotate(-21.05 638.875 630.333)" class="st1" d="M587.5 579h102.7v102.7H587.5z"/>
        <path class="st1" d="M1021 641.6h78.3v78.3H1021z"/>
        <path transform="rotate(36.822 547.05 1395.99)" class="st1" d="M493 1354.9h108v82.1H493z"/>
        <circle class="st1" cx="773.2" cy="339.8" r="72.8"/>
        <circle class="st1" cx="1158.1" cy="1559.9" r="66"/>
        <path class="st1" d="M1013.5 380.4c17.5 23.9 17.3 59.2-.3 83-4.2 5.6-9.2 10.6-15.3 14-8.7 4.9-18.9 6.2-28.8 7.6-37.3 5.3-79.2 16.8-96 50.5-16.6 33.2.5 76 30.8 97.4"/>
        <path class="st1" d="M424.1 322c-21.4 12.5-43.4 26.5-55.8 48-12.3 21.5-11.2 52.8 8.9 67.4 27.9 20.2 67.5-3.4 101.1 4.5 28.5 6.7 47.2 35.8 50.9 64.8"/>
        <path class="st1" d="M1356.8 1239.2c-22.6 41.4-27.4 92.2-13.2 137.1 7 21.9 19.6 43.8 40.6 53.4 29.7 13.6 66.7-3.5 84.1-31.1 9.6-15.3 12.4-39.4-3.3-48.3-11.5-6.5-26.1-.6-36.7 7.3-32.3 24-49.2 67.2-41.6 106.7s39.1 73.5 78 83.9c16.1 4.3 33.1 4.8 49.8 3.5 43.5-3.3 86.1-19 121.5-44.6"/>
        <path class="st1" d="M1235.7 656.7c-4-8.6-7-17.4-9.1-26.5-3.8-16.8-4-34.7 3.9-50.5 7.9-15.8 25.2-28.9 45.5-30.5"/>
        <path class="st1" d="M1185.7 292.2c10.4 47.8-14.4 101.1-57.7 123.8"/>
        <ellipse transform="rotate(-35.284 1512.482 727.197)" class="st1" cx="1512.6" cy="727.2" rx="85.5" ry="44.4"/>
        <path class="st1" d="M1278.1 754.1L1170 862l108.1 54.1z"/>
        <path class="st1" d="M458.8 821.8l18 105.9 122.8-86.6z"/>
        <path class="st1" d="M1052.4 1208.3s20.5 99.3 58.4 134.8c0 0 13.5-29.2 53.3-32.3 39.8-3.2-57-135.6-57-135.6l-54.7 33.1z"/>
        <path class="st1" d="M1515.4 1013.2c27-2.7 55-2 80.6 7.1s48.8 27.5 59.3 52.5"/>
        <path class="st1" d="M228.2 1217.8c26.5 23.1 65.4 26 99.9 19.5 67.3-12.7 127.7-58.2 158.3-119.6"/>
        <path class="st1" d="M756.3 1440.7c-27.2 65.5-39 137.4-34.1 208.2"/>
        <path class="st1" d="M603.7 1189.2c-4.1-15.8-2.4-32.6 1.7-48.4.7-2.5 1.4-5.1 3.3-6.9 3.1-2.9 8-2.6 12.2-1.6 21.6 4.9 39.4 20 54 36.7 7.1 8.1 13.7 16.9 17.7 27 5.8 14.9 5.2 32.2-1.7 46.6-.9 1.8-1.9 3.7-3.7 4.7-2.1 1.1-4.6.7-6.8.2-30.6-6.8-68.3-25.6-76.7-58.3z"/>
        <path transform="rotate(-70.543 785.606 1011.701)" class="st1" d="M720.1 948.2h131.1v127.1H720.1z"/>
        <circle class="st1" cx="1003.6" cy="884" r="57"/>
        <path class="st1" d="M1003.6 941l26.5 108.9"/>
        <path class="st1" d="M823.2 1313.5c15.9 6.8 32.9 11.7 50.1 11 17.2-.7 34.7-7.7 45.4-21.3 17.1-21.8 26.2-90.7-15.8-84.8-34.1 4.8-68.7 67.3-79.7 95.1z"/>
        <path class="st1" d="M697.2 775.2c45.1 26.9 90.1 53.8 135.2 80.8-19.3-45.4-32.7-93.4-39.7-142.2"/>
    </g>
</svg>
