<svg xmlns="http://www.w3.org/2000/svg" viewBox="0 0 1920 1920">
    <style>
        .st0{fill:#fff}.st1{fill:none;stroke:#000;stroke-width:50;stroke-linecap:round;stroke-linejoin:round;stroke-miterlimit:10}
    </style>
    <path class="st0" d="M960 1061.1c-104.2 0-190.5-18.4-204.9-42.3l34 112.7 88 291.6s98.6 27.2 165.9 0l88-291.6 34-112.7c-14.5 24-100.8 42.3-205 42.3z" id="Layer_9"/>
    <path class="st0" d="M877.1 1423.2L960 1698l82.9-274.8c-67.2 27.1-165.8 0-165.8 0z" id="Layer_10"/>
    <path class="st0" d="M960 962.3c-114.4 0-207.1 22.1-207.1 49.4 0 2.4.7 4.8 2.1 7.1 14.5 23.9 100.7 42.3 204.9 42.3s190.5-18.4 204.9-42.3c1.4-2.3 2.1-4.7 2.1-7.1.2-27.2-92.5-49.4-206.9-49.4z" id="Layer_11"/>
    <path class="st0" d="M989 738.7c-39.8 0-72 32.2-72 72s32.2 72 72 72 72-32.2 72-72c0-39.7-32.2-72-72-72zm356.6-363.6c-20.7 0-37.5 16.8-37.5 37.5s16.8 37.5 37.5 37.5 37.5-16.8 37.5-37.5-16.8-37.5-37.5-37.5z" id="Layer_13"/>
    <circle class="st0" cx="947.6" cy="475.8" r="113.4" id="Layer_14"/>
    <path class="st0" d="M629.6 687.6c-34.5 0-62.5 28-62.5 62.5s28 62.5 62.5 62.5 62.5-28 62.5-62.5-28-62.5-62.5-62.5z" id="Layer_15"/>
    <path class="st0" d="M1216.1 552.8c-35.3 0-64 28.6-64 64 0 35.3 28.7 64 64 64s64-28.7 64-64c0-35.4-28.6-64-64-64z" id="Layer_16"/>
    <g id="STROKES">
        <ellipse class="st1" cx="960" cy="1011.7" rx="207.1" ry="49.4"/>
        <path class="st1" d="M752.9 1011.7L960 1698l207.1-686.3"/>
        <path class="st1" d="M789.1 1131.6s131 58.5 341.9 0"/>
        <path class="st1" d="M877.1 1423.2s98.6 27.2 165.9 0"/>
        <circle class="st1" cx="989" cy="810.7" r="72"/>
        <circle class="st1" cx="1216.1" cy="616.8" r="64"/>
        <circle class="st1" cx="629.6" cy="750" r="62.5"/>
        <circle class="st1" cx="947.5" cy="475.8" r="113.5"/>
        <circle class="st1" cx="1345.6" cy="412.6" r="37.5"/>
        <path class="st1" d="M1163.7 908.2c13.4-20.8 35.2-35.9 59.3-41.3"/>
        <path class="st1" d="M1459.1 535.1c-20.3 19.5-47.9 31.2-76 32.1"/>
        <path class="st1" d="M1193.8 350.4c1.8-28.2 23.9-50.3 44.7-69.5"/>
        <path class="st1" d="M641.2 509.7c8.4 22.7 26.5 41.6 48.8 50.9"/>
        <path class="st1" d="M801.5 906.9c-4.3-23.9-11.3-47.4-20.7-69.8"/>
        <path class="st1" d="M568.9 929.1c34-21.3 79.3-23.2 115.1-4.8"/>
        <path class="st1" d="M665.7 291c18 5.4 30.2 23.1 34.4 41.4s1.8 37.5-.8 56.1"/>
        <path class="st1" d="M346.8 502.6c22.2-8.4 47.6-8.3 69.7.2 22.2 8.5 41.1 25.4 52 46.5"/>
        <path class="st1" d="M1334.1 714.8c24.5 19.1 43.5 45.1 54.1 74.3"/>
    </g>
</svg>
