<svg xmlns="http://www.w3.org/2000/svg" viewBox="0 0 1920 1920">
    <style>
        .st0{fill:#fff}.st1{fill:none;stroke:#231f20;stroke-width:50;stroke-linecap:round;stroke-linejoin:round;stroke-miterlimit:10}
    </style>
    <path class="st0" d="M460.8 512.1c.1-.8.1-1.5.2-2.3.1-1.2.1-2.5.1-3.7 0-33.7-27.3-61-61-61-23.1 0-43.2 12.8-53.6 31.8-4.8 8.7-7.5 18.7-7.5 29.3 0 21.8 11.5 41 28.7 51.8 5 3.2 10.5 5.6 16.4 7.2 5.1 1.4 10.4 2.1 16 2.1 31.7-.2 57.7-24.3 60.7-55.2zm134.5 16.7c1.1-2.9 1.8-6 2.1-9.2.1-1.2.2-2.5.2-3.8 0-21.4-17.3-38.7-38.7-38.7-14.7 0-27.4 8.1-34 20.2-2.7 4.9-4.3 10.4-4.7 16.2-.1.8-.1 1.6-.1 2.4 0 17.9 12.1 32.9 28.6 37.4 3.2.9 6.6 1.3 10.1 1.3 16.8-.1 31.1-10.8 36.5-25.8zM310.4 649.7c-9.4-5.9-20.5-9.3-32.4-9.3-23.1 0-43.2 12.8-53.6 31.8-4.8 8.7-7.5 18.7-7.5 29.3 0 28.2 19.1 51.9 45.1 58.9 5.1 1.4 10.4 2.1 16 2.1 1.2 0 2.4 0 3.5-.1 24.9-1.4 45.8-17.7 53.9-40.1v-.1c1.7-4.7 2.8-9.6 3.3-14.8.2-2 .3-4 .3-6 0-21.8-11.4-40.9-28.6-51.7zm173.1 78.8c-8.3-7.7-19.4-12.3-31.5-12.3-17.5 0-32.8 9.8-40.7 24.1-1.2 2.3-2.3 4.6-3.2 7.1-.1.3-.2.7-.4 1-1.4 4.4-2.2 9.2-2.2 14.1 0 10.4 3.4 20.1 9.3 27.8 1.5 2 3.1 3.9 4.9 5.6 5.5 5.3 12.4 9.3 20 11.4 3.9 1 7.9 1.6 12.1 1.6 12.8 0 24.5-5.2 32.8-13.6 7.4-7.4 12.3-17.2 13.3-28.2.1-1.5.2-3 .2-4.6 0-1.3-.1-2.6-.2-3.8-.7-11.9-6.2-22.6-14.4-30.2zM319.4 861.9c-7.1-9.3-18.3-15.4-30.9-15.4-.8 0-1.5 0-2.2.1-13.7.8-25.5 8.7-31.8 20.1-3 5.5-4.8 11.8-4.8 18.6 0 17.9 12.1 32.9 28.6 37.4 3.2.9 6.6 1.3 10.1 1.3 20.1 0 36.6-15.3 38.5-34.9.1-1.3.2-2.5.2-3.8 0-8.1-2.5-15.6-6.7-21.8-.2-.6-.6-1.1-1-1.6zm332.7 74.5c-12.6 0-24 5-32.3 13.1-3.3 3.2-6.1 6.9-8.4 11-3.6 6.6-5.7 14.2-5.7 22.3 0 21.4 14.5 39.5 34.3 44.8 3.9 1 7.9 1.6 12.1 1.6 21.3 0 39.2-14.3 44.7-33.8.7-2.6 1.2-5.2 1.5-8 .1-1.5.2-3 .2-4.6 0-25.6-20.7-46.4-46.4-46.4zm-32.8-168.6c20.1 0 36.6-15.3 38.5-34.9.1-1.2.2-2.5.2-3.8 0-10.3-4-19.6-10.5-26.5-7.1-7.5-17.1-12.2-28.2-12.2-14.7 0-27.4 8.1-34 20.1-3 5.5-4.8 11.8-4.8 18.6 0 3.2.4 6.2 1.1 9.2 1.7 6.8 5.2 13 9.9 17.8 4.8 4.9 10.8 8.5 17.6 10.3 3.3.9 6.7 1.4 10.2 1.4zm262.8 238.7c-17.6 0-32.8 9.8-40.7 24.1-1.5 2.6-2.7 5.4-3.6 8.4-1.4 4.4-2.1 9.1-2.1 13.9 0 21.4 14.5 39.5 34.3 44.8 3.9 1.1 7.9 1.6 12.1 1.6 9.5 0 18.3-2.8 25.6-7.7 6.9-4.6 12.5-10.9 16.1-18.4 2.4-4.8 3.9-10.2 4.5-15.8.1-1.5.2-3 .2-4.6 0-25.5-20.8-46.3-46.4-46.3zm234.5 354.9c-9.4 0-18.2 2.8-25.6 7.7-3.1 2.1-6 4.5-8.6 7.3-2.5 2.8-4.8 5.8-6.6 9.2-3.6 6.6-5.7 14.2-5.7 22.3 0 21.4 14.5 39.4 34.2 44.8 3.9 1.1 7.9 1.6 12.1 1.6 24.1 0 43.9-18.3 46.2-41.8.1-1.5.2-3 .2-4.6 0-12.3-4.8-23.5-12.6-31.8-8.3-9.1-20.3-14.7-33.6-14.7zm168.3-173.1c-23.1 0-43.2 12.8-53.6 31.8-.5.8-.9 1.7-1.3 2.5-2 4-3.5 8.3-4.6 12.8-1.1 4.5-1.6 9.2-1.6 14 0 16.2 6.3 30.9 16.6 41.8 7.6 8.1 17.4 14.1 28.5 17.1 5.1 1.4 10.4 2.1 16 2.1 31.7 0 57.7-24.1 60.8-55 .2-2 .3-4 .3-6-.1-33.8-27.4-61.1-61.1-61.1zm-492.8-637c-7.2-4.7-15.9-7.4-25.1-7.4-17.6 0-32.8 9.8-40.7 24.1-1.2 2.1-2.2 4.3-3 6.6-1.8 4.9-2.7 10.2-2.7 15.7 0 12.3 4.8 23.5 12.6 31.8 5.8 6.2 13.3 10.8 21.7 13 3.9 1 7.9 1.6 12.1 1.6 16.8 0 31.6-9 39.7-22.4 1.8-2.9 3.2-6 4.3-9.2 1.1-3.2 1.8-6.7 2.2-10.2.1-1.5.2-3.1.2-4.6 0-7.1-1.6-13.8-4.5-19.8-3.7-7.8-9.5-14.5-16.8-19.2zm312.3-89.2c.2-1.8.3-3.6.3-5.4 0-30.3-24.6-54.9-54.9-54.9-20.8 0-38.9 11.5-48.2 28.6-4.3 7.8-6.7 16.8-6.7 26.4 0 8.4 1.9 16.4 5.3 23.5 6.8 14.4 19.7 25.3 35.3 29.5 4.6 1.2 9.4 1.9 14.4 1.9 6.1 0 11.9-1 17.4-2.8 20-6.8 34.9-24.9 37.1-46.8zm73 330.4c-5.1 0-10.1.8-14.7 2.4-10.5 3.5-19.4 10.7-25 20-.4.6-.7 1.2-1 1.8-3.6 6.6-5.7 14.2-5.7 22.3 0 21.4 14.5 39.5 34.2 44.8 3.9 1 7.9 1.6 12.1 1.6 12.2 0 23.2-4.7 31.5-12.3 6.2-5.7 10.8-13.1 13.2-21.4.8-2.6 1.3-5.3 1.5-8.1.2-1.5.2-3 .2-4.6.1-25.8-20.6-46.5-46.3-46.5zm240.7 260.4c-12.2 0-23.2 4.7-31.5 12.3-3.7 3.4-6.8 7.4-9.2 11.8-3.6 6.6-5.7 14.2-5.7 22.3 0 21.4 14.5 39.5 34.3 44.8 3.9 1 7.9 1.6 12.1 1.6 24.1 0 43.9-18.3 46.2-41.8.1-1.5.2-3 .2-4.6 0-9.5-2.9-18.3-7.7-25.7-8.4-12.4-22.6-20.7-38.7-20.7zm86.2-167.7c-17.6 0-32.8 9.8-40.7 24.1-1.6 3-3 6.2-3.9 9.6-1.1 4-1.8 8.3-1.8 12.7 0 21.4 14.5 39.5 34.3 44.8 3.9 1 7.9 1.6 12.2 1.6 24.1 0 43.9-18.3 46.2-41.8.1-1 .2-2.1.2-3.2v-1.4c-.1-25.6-20.9-46.4-46.5-46.4zm159.4 13c-14.5 0-27.1 8-33.6 19.9-2.8 5.1-4.5 11-4.7 17.2v1.2c0 7.8 2.3 15.1 6.4 21.1 5.1 7.6 12.8 13.3 21.9 15.8 3.2.8 6.5 1.3 10 1.3 19.9 0 36.2-15.1 38.1-34.5.1-1.2.2-2.5.2-3.8-.1-21.1-17.2-38.2-38.3-38.2z" id="Layer_25"/>
    <g id="STROKES">
        <path class="st1" d="M339 701.5c0 2-.1 4-.3 6-.5 5.1-1.6 10.1-3.3 14.8-8.1 22.4-29 38.7-53.9 40.2-1.2.1-2.3.1-3.5.1-5.5 0-10.9-.7-16-2.1-26-7-45.1-30.7-45.1-58.9 0-10.6 2.7-20.6 7.5-29.3 10.3-18.9 30.5-31.8 53.6-31.8 11.9 0 23 3.4 32.4 9.3 17.2 10.7 28.6 29.8 28.6 51.7z"/>
        <path class="st1" d="M327.3 885.3c0 1.3-.1 2.6-.2 3.8-1.9 19.6-18.4 34.9-38.5 34.9-3.5 0-6.9-.5-10.1-1.3-16.5-4.4-28.6-19.5-28.6-37.4 0-6.7 1.7-13.1 4.8-18.6 6.2-11.4 18-19.3 31.8-20.1.7 0 1.5-.1 2.2-.1 12.6 0 23.8 6 30.9 15.3.4.5.8 1 1.1 1.6 4.1 6.3 6.6 13.8 6.6 21.9z"/>
        <path class="st1" d="M1104.6 456.7c0 1.8-.1 3.6-.3 5.4-2.1 21.9-17.1 40-37.2 46.7-5.5 1.8-11.3 2.8-17.4 2.8-5 0-9.8-.7-14.4-1.9-15.6-4.2-28.5-15.2-35.3-29.5-3.4-7.1-5.3-15.1-5.3-23.5 0-9.6 2.4-18.5 6.7-26.4 9.3-17 27.4-28.6 48.2-28.6 30.5.1 55 24.7 55 55z"/>
        <path class="st1" d="M1701.9 936.4c0 1.3-.1 2.5-.2 3.8-1.9 19.3-18.2 34.5-38.1 34.5-3.5 0-6.8-.5-10-1.3-9.1-2.4-16.8-8.2-21.9-15.8-4-6.1-6.4-13.3-6.4-21.1v-1.2c.2-6.2 1.8-12.1 4.7-17.2 6.5-11.9 19.1-19.9 33.6-19.9 21.2 0 38.3 17.1 38.3 38.2z"/>
        <path class="st1" d="M1163 1407.8c0 1.5-.1 3.1-.2 4.6-2.3 23.5-22.1 41.8-46.2 41.8-4.2 0-8.3-.6-12.1-1.6-19.7-5.3-34.3-23.4-34.3-44.8 0-8.1 2.1-15.7 5.7-22.3 3.6-6.6 8.8-12.3 15.1-16.5 7.3-4.9 16.1-7.7 25.6-7.7 13.3 0 25.3 5.6 33.8 14.6 7.8 8.4 12.6 19.6 12.6 31.9z"/>
        <path class="st1" d="M1345.9 1249.4c0 2-.1 4-.3 6-3 30.9-29.1 55-60.8 55-5.5 0-10.9-.7-16-2.1-11.1-3-20.9-9-28.5-17.1-10.3-10.9-16.6-25.6-16.6-41.8 0-9.6 2.2-18.7 6.2-26.8.4-.9.8-1.7 1.3-2.5 10.4-18.9 30.5-31.8 53.6-31.8 33.8 0 61.1 27.3 61.1 61.1z"/>
        <path class="st1" d="M498.3 762.5c0 1.5-.1 3.1-.2 4.6-1.1 11-6 20.8-13.3 28.2-8.4 8.4-20 13.6-32.8 13.6-4.2 0-8.3-.6-12.1-1.6-7.6-2.1-14.5-6-20-11.4-1.8-1.7-3.4-3.6-4.9-5.6-5.8-7.7-9.3-17.4-9.3-27.8 0-4.9.8-9.6 2.2-14.1.1-.4.2-.7.4-1.1.8-2.5 1.9-4.9 3.2-7.1 7.9-14.4 23.2-24.1 40.7-24.1 24.3 0 44.3 18.8 46.2 42.6-.1 1.3-.1 2.5-.1 3.8z"/>
        <path class="st1" d="M461.1 506.1c0 1.2 0 2.5-.1 3.7 0 .8-.1 1.6-.2 2.3-3 30.9-29.1 55-60.8 55-5.5 0-10.9-.7-16-2.1-5.9-1.6-11.4-4-16.4-7.2-17.2-10.8-28.7-29.9-28.7-51.8 0-10.6 2.7-20.6 7.5-29.3 10.4-18.9 30.5-31.8 53.6-31.8 33.8.1 61.1 27.5 61.1 61.2z"/>
        <path class="st1" d="M597.5 515.8c0 1.3-.1 2.6-.2 3.8-.3 3.2-1 6.3-2.1 9.2-5.4 15-19.7 25.7-36.5 25.7-3.5 0-6.9-.5-10.1-1.3-16.5-4.4-28.6-19.5-28.6-37.4 0-.8 0-1.6.1-2.4.3-5.9 2-11.4 4.7-16.2 6.6-12 19.3-20.2 34-20.2 21.4 0 38.7 17.4 38.7 38.8z"/>
        <path class="st1" d="M520.2 513.4l-59.2-3.6"/>
        <path class="st1" d="M813.4 590.4c0 1.5-.1 3.1-.2 4.6-.7 7.1-3 13.7-6.5 19.4-8.1 13.4-22.9 22.4-39.7 22.4-4.2 0-8.3-.6-12.1-1.6-8.4-2.3-15.9-6.9-21.7-13-7.8-8.3-12.6-19.5-12.6-31.8 0-5.5 1-10.8 2.7-15.7.8-2.3 1.8-4.5 3-6.6 7.9-14.4 23.2-24.1 40.7-24.1 18.5 0 34.5 10.9 41.9 26.6 2.9 5.9 4.5 12.7 4.5 19.8z"/>
        <path class="st1" d="M658 729c0 1.3-.1 2.6-.2 3.8-1.9 19.6-18.4 34.9-38.5 34.9-3.5 0-6.9-.5-10.1-1.3-13.6-3.7-24.2-14.5-27.5-28.2-.7-2.9-1.1-6-1.1-9.2 0-6.7 1.7-13.1 4.7-18.6 6.6-12 19.3-20.1 34-20.1 11.1 0 21.2 4.7 28.2 12.2 6.5 7 10.5 16.3 10.5 26.5z"/>
        <path class="st1" d="M733.2 622.1l-85.7 80.4"/>
        <path class="st1" d="M581.7 738.3l-83.5 20.4"/>
        <path class="st1" d="M1223.8 838.9c0 1.5-.1 3.1-.2 4.6-.3 2.8-.8 5.5-1.5 8.1-2.3 8.3-7 15.7-13.2 21.4-8.3 7.6-19.3 12.3-31.5 12.3-4.2 0-8.3-.6-12.1-1.6-19.7-5.3-34.3-23.4-34.3-44.8 0-8.1 2.1-15.7 5.7-22.3.3-.6.7-1.2 1-1.8 5.6-9.3 14.5-16.5 25-20 4.6-1.6 9.6-2.4 14.7-2.4 25.7 0 46.4 20.8 46.4 46.5z"/>
        <path class="st1" d="M1137.8 814.8L806.7 614.4"/>
        <path class="st1" d="M1550.7 931.7v1.4c0 1.1-.1 2.1-.2 3.2-2.3 23.5-22.1 41.8-46.2 41.8-4.2 0-8.3-.6-12.1-1.6-19.7-5.3-34.3-23.4-34.3-44.8 0-4.4.6-8.7 1.8-12.7 1-3.4 2.3-6.6 3.9-9.6 7.9-14.4 23.2-24.1 40.7-24.1 25.6-.1 46.4 20.7 46.4 46.4z"/>
        <path class="st1" d="M1459.7 919l-237.6-67.5"/>
        <path class="st1" d="M1464.5 1099.3c0 1.5-.1 3.1-.2 4.6-2.3 23.5-22.1 41.8-46.2 41.8-4.2 0-8.3-.6-12.1-1.6-19.7-5.3-34.3-23.4-34.3-44.8 0-8.1 2.1-15.7 5.7-22.3 2.4-4.4 5.5-8.4 9.2-11.8 8.3-7.7 19.3-12.3 31.5-12.3 16.1 0 30.4 8.2 38.7 20.8 4.8 7.3 7.7 16.1 7.7 25.6z"/>
        <path class="st1" d="M1386.6 1065.3l-177.7-192.4"/>
        <path class="st1" d="M1625.4 935.3l-74.7-2.3"/>
        <path class="st1" d="M1000.1 480.2l-191.2 90.3"/>
        <path class="st1" d="M723.3 574.7l-128-45.9"/>
        <path class="st1" d="M1230 1222.6l-306.2-149.3"/>
        <path class="st1" d="M928.5 1052.9c0 1.5-.1 3.1-.2 4.6-.6 5.6-2.1 10.9-4.5 15.8-3.7 7.5-9.2 13.8-16.1 18.4-7.3 4.9-16.1 7.7-25.6 7.7-4.2 0-8.3-.6-12.1-1.6-19.7-5.3-34.3-23.4-34.3-44.8 0-4.9.7-9.5 2.1-13.9.9-2.9 2.1-5.7 3.6-8.4 7.9-14.4 23.2-24.1 40.7-24.1 25.6-.1 46.4 20.7 46.4 46.3z"/>
        <path class="st1" d="M698.5 982.8c0 1.5-.1 3.1-.2 4.6-.3 2.7-.8 5.4-1.5 8-5.5 19.5-23.4 33.8-44.7 33.8-4.2 0-8.3-.6-12.1-1.6-19.7-5.3-34.3-23.4-34.3-44.8 0-8.1 2.1-15.7 5.7-22.3 2.2-4.1 5.1-7.8 8.4-11 8.3-8.1 19.8-13.1 32.3-13.1 25.7 0 46.4 20.8 46.4 46.4z"/>
        <path class="st1" d="M696.8 995.4c40.7 12.3 100.5 30.9 141 43.6"/>
        <path class="st1" d="M484.8 795.3c34 39.4 96.7 111.9 135 154.3"/>
        <path class="st1" d="M1091 1369.1l-183.3-277.5"/>
        <path class="st1" d="M335.4 722.3l72.7 25.1"/>
        <path class="st1" d="M414.8 790.3c-28.8 21.6-68.3 51.2-95.4 71.5"/>
    </g>
</svg>
