<svg xmlns="http://www.w3.org/2000/svg" viewBox="0 0 1920 1920">
    <style>
        .st0{fill:#fff}.st1{fill:none;stroke:#231f20;stroke-width:50;stroke-linecap:round;stroke-linejoin:round;stroke-miterlimit:10}
    </style>
    <path class="st0" d="M436.5 284.4c0-37.2-30.2-67.4-67.4-67.4s-67.4 30.2-67.4 67.4 30.2 67.4 67.4 67.4c5.7 0 11.3-.7 16.6-2.1 29.2-7.4 50.8-33.8 50.8-65.3zm25.7 314.9c-4.3 0-8.6.5-12.6 1.6-22.1 5.6-38.5 25.7-38.5 49.6 0 28.2 22.9 51.1 51.1 51.1 8.7 0 16.9-2.2 24.1-6 16.1-8.6 27-25.6 27-45.1 0-28.3-22.9-51.2-51.1-51.2zm207.5 402.1c-6.3 0-12.2 1.6-17.4 4.3-5.8 3.1-10.6 7.7-14 13.3-3.4 5.6-5.4 12.1-5.4 19.1 0 20.3 16.5 36.8 36.8 36.8 13.9 0 26-7.7 32.3-19.1 2.9-5.2 4.5-11.3 4.5-17.7 0-20.2-16.5-36.7-36.8-36.7zm413.8 203.4c-22.6 0-42.3 12.6-52.5 31.1-4.7 8.5-7.3 18.3-7.3 28.7 0 27.6 18.7 50.9 44.2 57.8 5 1.3 10.2 2.1 15.6 2.1 31.1 0 56.6-23.6 59.5-53.9.2-1.9.3-3.9.3-5.9 0-33.1-26.8-59.9-59.8-59.9zm457.2 27.5c-40.3 0-73.4 30.7-77.3 70-.2 2.5-.4 5.1-.4 7.7 0 42.1 33.5 76.4 75.3 77.6h2.3c42.9 0 77.6-34.8 77.6-77.6s-34.6-77.7-77.5-77.7zm-516.6 251.5c-4.3-1.2-8.8-1.8-13.4-1.8-28.2 0-51.1 22.9-51.1 51.1 0 28.2 22.9 51.1 51.1 51.1 24.5 0 45-17.3 50-40.3.8-3.5 1.2-7.1 1.2-10.8-.1-23.5-16.1-43.4-37.8-49.3zm508.2 104h-1.8c-27.7 0-50.8 19.5-56.4 45.5-.8 3.9-1.3 8-1.3 12.2 0 31.8 25.8 57.7 57.7 57.7 31.8 0 57.6-25.8 57.6-57.7.1-31.4-24.8-56.8-55.8-57.7z" id="Layer_9"/>
    <g id="STROKES">
        <path class="st1" d="M1588.2 1645.4c0 31.8-25.8 57.7-57.7 57.7s-57.7-25.8-57.7-57.7c0-4.2.4-8.2 1.3-12.2 5.6-26 28.7-45.5 56.4-45.5h1.7c31.1 1 56 26.4 56 57.7z"/>
        <path class="st1" d="M1143.3 1264.6c0 2-.1 4-.3 5.9-3 30.3-28.5 53.9-59.5 53.9-5.4 0-10.7-.7-15.6-2.1-25.5-6.9-44.2-30.1-44.2-57.7 0-10.4 2.7-20.2 7.3-28.7 10.1-18.5 29.9-31.1 52.5-31.1 33 0 59.8 26.8 59.8 59.8z"/>
        <path class="st1" d="M1618.3 1310c0 42.9-34.8 77.6-77.6 77.6h-2.3c-41.8-1.2-75.3-35.5-75.3-77.6 0-2.6.1-5.1.4-7.7 3.9-39.3 37-70 77.3-70 42.8 0 77.5 34.8 77.5 77.7z"/>
        <path class="st1" d="M436.5 284.4c0 31.5-21.6 58-50.8 65.4-5.3 1.4-10.9 2.1-16.6 2.1-37.2 0-67.4-30.2-67.4-67.4s30.2-67.4 67.4-67.4c37.2-.2 67.4 30 67.4 67.3z"/>
        <path class="st1" d="M513.3 650.4c0 19.5-10.9 36.5-27 45.1-7.2 3.9-15.4 6-24.1 6-28.2 0-51.1-22.9-51.1-51.1 0-23.9 16.4-43.9 38.5-49.6 4-1 8.3-1.6 12.6-1.6 28.2.1 51.1 23 51.1 51.2z"/>
        <path class="st1" d="M706.5 1038.2c0 6.4-1.6 12.4-4.5 17.7-6.3 11.4-18.4 19.1-32.3 19.1-20.3 0-36.8-16.5-36.8-36.8 0-14 7.9-26.2 19.4-32.4 5.2-2.8 11.1-4.3 17.4-4.3 20.3-.1 36.8 16.4 36.8 36.7z"/>
        <path class="st1" d="M652.3 1005.8l-166-310.4"/>
        <path class="st1" d="M1031 1235.9l-329-180"/>
        <path class="st1" d="M1061.8 1533.2c0 3.7-.4 7.3-1.1 10.8-4.9 23-25.4 40.3-50 40.3-28.2 0-51.1-22.9-51.1-51.1 0-28.2 22.9-51.1 51.1-51.1 4.6 0 9.1.6 13.4 1.8 21.7 5.8 37.7 25.7 37.7 49.3z"/>
        <path class="st1" d="M1474.2 1633.2l-413.5-89.2"/>
        <path class="st1" d="M1463.5 1302.3l-320.5-31.8"/>
        <path class="st1" d="M1538.4 1387.6l-6.1 200.2"/>
        <path class="st1" d="M1067.8 1322.4l-43.7 161.4"/>
        <path class="st1" d="M449.6 600.8l-63.9-251"/>
    </g>
</svg>
