<svg xmlns="http://www.w3.org/2000/svg" viewBox="0 0 1920 1920">
    <style>
        .st0{fill:#fff}.st1{fill:none;stroke:#231f20;stroke-width:50;stroke-linecap:round;stroke-linejoin:round;stroke-miterlimit:10}
    </style>
    <path class="st0" d="M488.6 463.8c-1.7 0-3.4.2-5 .4-1.9.3-3.7.7-5.5 1.3-7.5 2.5-13.8 7.6-17.8 14.3-.2.5-.5.9-.7 1.3-2.6 4.7-4.1 10.1-4.1 15.9 0 15.3 10.3 28.2 24.4 32 2.8.7 5.7 1.1 8.7 1.1 5 0 9.8-1.1 14-3.1 0 0 .1 0 .1-.1 3.2-1.5 5.9-3.4 8.4-5.6 4.4-4.1 7.7-9.4 9.4-15.3.5-1.9.9-3.8 1.1-5.8.1-1.1.2-2.2.2-3.3 0-18.3-14.8-33.1-33.2-33.1zm106.7 229c-3.7 0-7.2.6-10.5 1.7-1.2.4-2.3.9-3.4 1.4h-.1c-5.9 2.8-10.9 7.3-14.3 12.9-.2.5-.5.9-.7 1.3-2.6 4.7-4.1 10.1-4.1 15.9 0 15.3 10.3 28.2 24.4 32 2.8.7 5.7 1.1 8.7 1.1 7.5 0 14.5-2.5 20-6.7l.1-.1c.8-.7 1.6-1.3 2.4-2 4.4-4.1 7.7-9.4 9.4-15.3.5-1.9.9-3.8 1.1-5.8.1-1.1.2-2.2.2-3.3 0-18.3-14.8-33.2-33.2-33.1zm87 101.4c-5.2 0-10.1.8-14.8 2.4-4.9 1.6-9.4 4-13.4 7-4.7 3.6-8.7 8-11.8 13.1-.3.6-.7 1.2-1 1.8-3.6 6.6-5.7 14.3-5.7 22.4 0 21.6 14.6 39.7 34.5 45.1 3.9 1 8 1.6 12.2 1.6 5.3 0 10.4-.9 15.2-2.5h.1c6.1-2.2 11.7-5.6 16.4-9.9 6.2-5.8 10.8-13.2 13.2-21.6.8-2.7 1.3-5.4 1.6-8.2.1-1.5.2-3 .2-4.6 0-7.7-1.9-15-5.2-21.3-7.8-15-23.4-25.3-41.5-25.3zm357.7 46.6c-5.2 0-10.1.8-14.8 2.4-4.3 1.4-8.4 3.5-12.1 6.1-5.2 3.7-9.7 8.5-13 14-.3.6-.7 1.2-1 1.8-3.6 6.6-5.7 14.3-5.7 22.4 0 21.6 14.6 39.7 34.5 45.1.6.1 1.1.3 1.7.4 3.4.8 6.9 1.2 10.5 1.2 12.3 0 23.4-4.7 31.7-12.4 6.2-5.8 10.8-13.2 13.2-21.6.7-2.6 1.2-5.3 1.5-8.1.1-1.5.2-3 .2-4.6 0-1.3 0-2.7-.2-4-2-23.9-22-42.7-46.5-42.7zM975 1169h-.1c-2.4-.5-4.8-.8-7.4-.8-3.7 0-7.2.6-10.5 1.7-7.5 2.5-13.8 7.7-17.8 14.3-.2.5-.5.9-.7 1.3-2.6 4.7-4.1 10.1-4.1 15.9 0 15.3 10.3 28.2 24.4 32 2.8.7 5.7 1.1 8.7 1.1 5.3 0 10.3-1.2 14.8-3.5 2.8-1.4 5.3-3.2 7.6-5.3 4.4-4.1 7.7-9.4 9.4-15.3.5-1.9.9-3.8 1.1-5.8.1-1.1.2-2.2.2-3.3 0-15.7-11-28.9-25.6-32.3zm-79 27.8c-4.8 0-9.4.8-13.7 2.2-9.8 3.2-18 9.9-23.3 18.6-.4.5-.7 1-1 1.6-3.4 6.2-5.3 13.3-5.3 20.8 0 20 13.5 36.8 31.9 41.8 3.6 1 7.4 1.5 11.3 1.5 11.4 0 21.7-4.4 29.4-11.5 5.8-5.4 10.1-12.2 12.3-20 .7-2.4 1.2-4.9 1.4-7.5.1-1.4.2-2.9.2-4.3 0-23.9-19.4-43.3-43.2-43.2zm-59.3 58.7c-3.7 0-7.2.6-10.5 1.7-.1 0-.1 0-.2.1h-.1c-7.3 2.6-13.5 7.6-17.5 14.2-.2.5-.5.9-.7 1.3-2.6 4.7-4.1 10.1-4.1 15.9 0 15.3 10.3 28.2 24.4 32 .8.2 1.6.4 2.4.5h.1c2 .4 4.1.6 6.2.6 8.7 0 16.6-3.3 22.5-8.8 4.4-4.1 7.7-9.4 9.4-15.3.5-1.9.9-3.8 1.1-5.8.1-1.1.2-2.2.2-3.3 0-18.3-14.9-33.1-33.2-33.1zm-67.3 381.8c-2.1-.4-4.2-.6-6.3-.6-3.7 0-7.2.6-10.5 1.7-7.5 2.5-13.8 7.7-17.8 14.3-.2.5-.5.9-.7 1.3-2.6 4.7-4.1 10.1-4.1 15.9 0 15.3 10.3 28.2 24.4 32 2.8.7 5.7 1.1 8.7 1.1 8.7 0 16.6-3.3 22.5-8.8 4.4-4.1 7.7-9.4 9.4-15.3.5-1.9.9-3.8 1.1-5.8.1-1.1.2-2.2.2-3.3 0-1.9-.2-3.7-.5-5.5-2.3-13.6-12.9-24.4-26.4-27zm398.2-100.3c-6.6 0-13 1.1-18.9 3.1-3.2 1.1-6.4 2.5-9.3 4 0 0-.1 0-.2.1-9.3 5-17 12.5-22.5 21.5-.4.8-.9 1.5-1.3 2.3-4.7 8.5-7.3 18.2-7.3 28.6 0 4.8.6 9.6 1.7 14.1 5.1 21 21.4 37.7 42.2 43.3 5 1.4 10.2 2.1 15.6 2.1 15.6 0 29.8-6 40.4-15.8 7.9-7.4 13.9-16.8 16.9-27.5 1-3.4 1.7-6.8 2-10.4.2-2 .3-3.9.3-5.9 0-32.8-26.6-59.5-59.6-59.5z" id="Layer_34"/>
    <g id="STROKES">
        <g id="STROKES_2_">
            <path class="st1" d="M1227.2 1596.5c0 2-.1 3.9-.3 5.9-.3 3.6-1 7-2 10.4-3 10.7-9 20.1-16.9 27.5-10.6 9.8-24.8 15.8-40.4 15.8-5.4 0-10.6-.7-15.6-2.1-20.8-5.6-37.1-22.3-42.2-43.3-1.1-4.5-1.7-9.3-1.7-14.1 0-10.4 2.6-20.1 7.3-28.6.4-.8.9-1.5 1.3-2.3 5.5-9 13.2-16.5 22.5-21.5 3-1.6 6.2-3 9.5-4.1 5.9-2 12.3-3.1 18.9-3.1 33 0 59.6 26.7 59.6 59.5z"/>
            <path class="st1" d="M613.3 230.8c0 .5 0 .9-.1 1.4-.1.8-.2 1.6-.5 2.4-.7 2.5-2.1 4.7-3.9 6.4-2.5 2.3-5.8 3.7-9.4 3.7-1 0-2.1-.1-3-.3-.2 0-.4-.1-.6-.1-5.9-1.6-10.3-7-10.3-13.4 0-2.4.6-4.7 1.7-6.7.1-.2.2-.4.3-.5 1.7-2.8 4.3-4.9 7.5-6 1.4-.5 2.9-.7 4.4-.7 7.7-.2 13.9 6.1 13.9 13.8z"/>
            <path class="st1" d="M467 262.1c0 .5 0 .9-.1 1.4-.1.8-.2 1.7-.5 2.4-.7 2.5-2.1 4.7-3.9 6.4-2 1.8-4.5 3.1-7.3 3.5-.7.1-1.4.2-2.1.2-1.3 0-2.5-.2-3.6-.5-5.9-1.6-10.3-7-10.3-13.4 0-2.4.6-4.7 1.7-6.7.1-.2.2-.4.3-.5 1.7-2.8 4.3-5 7.5-6 1.4-.5 2.9-.7 4.4-.7 7.6 0 13.9 6.3 13.9 13.9z"/>
            <path class="st1" d="M562.3 472.8c0 .5 0 .9-.1 1.4-.1.8-.2 1.6-.5 2.4-.7 2.5-2.1 4.7-3.9 6.4-2.5 2.3-5.8 3.7-9.4 3.7-1.3 0-2.5-.2-3.6-.5-5.9-1.6-10.3-7-10.3-13.4 0-2.4.6-4.7 1.7-6.7.1-.2.2-.4.3-.5 1.7-2.8 4.3-4.9 7.5-6 1.4-.5 2.9-.7 4.4-.7 7.7 0 13.9 6.2 13.9 13.9z"/>
            <path class="st1" d="M1411.1 692.8c0 .5 0 .9-.1 1.4-.1.8-.2 1.6-.5 2.4-.7 2.5-2.1 4.7-3.9 6.4-2.5 2.3-5.8 3.7-9.4 3.7-1.3 0-2.5-.2-3.6-.5-5.9-1.6-10.3-7-10.3-13.4 0-2.4.6-4.7 1.7-6.7.1-.2.2-.4.3-.5 1.7-2.8 4.3-4.9 7.5-6 1.4-.5 2.9-.7 4.4-.7 7.7-.1 13.9 6.2 13.9 13.9z"/>
            <path class="st1" d="M1480.8 851.7c0 .7 0 1.3-.1 2-.1 1.2-.3 2.4-.7 3.5-1 3.6-3 6.8-5.7 9.3-3.6 3.3-8.4 5.3-13.6 5.3-1.8 0-3.6-.2-5.3-.7-8.5-2.3-14.8-10.1-14.8-19.4 0-3.5.9-6.8 2.5-9.6.1-.3.3-.5.4-.8 2.4-4 6.3-7.1 10.8-8.6 2-.7 4.1-1 6.4-1 11.1-.1 20.1 8.9 20.1 20z"/>
            <path class="st1" d="M1460.8 923.7c0 .5 0 .9-.1 1.4-.1.8-.2 1.6-.5 2.4-.7 2.5-2.1 4.7-3.9 6.4-2.5 2.3-5.8 3.7-9.4 3.7-1.3 0-2.5-.2-3.6-.5-5.9-1.6-10.3-7-10.3-13.4 0-2.4.6-4.7 1.7-6.7.1-.2.2-.4.3-.5 1.7-2.8 4.3-4.9 7.5-6 1.4-.5 2.9-.7 4.4-.7 7.6 0 13.9 6.3 13.9 13.9z"/>
            <path class="st1" d="M1429.6 1068.5c0 .5 0 .9-.1 1.4-.1.8-.2 1.6-.5 2.4-.7 2.5-2.1 4.7-3.9 6.4-2.5 2.3-5.8 3.7-9.4 3.7-1.3 0-2.5-.2-3.6-.5-5.9-1.6-10.3-7-10.3-13.4 0-2.4.6-4.7 1.7-6.7.1-.2.2-.4.3-.5 1.7-2.8 4.3-4.9 7.5-6 1.4-.5 2.9-.7 4.4-.7 7.6 0 13.9 6.2 13.9 13.9z"/>
            <path class="st1" d="M1365.5 1107.2c0 .5 0 .9-.1 1.4-.1.8-.2 1.6-.5 2.4-.7 2.5-2.1 4.7-3.9 6.4-2.5 2.3-5.8 3.7-9.4 3.7-1.3 0-2.5-.2-3.6-.5-5.9-1.6-10.3-7-10.3-13.4 0-2.4.6-4.7 1.7-6.7.1-.2.2-.4.3-.5 1.7-2.8 4.3-4.9 7.5-6 1.4-.5 2.9-.7 4.4-.7 7.7 0 13.9 6.2 13.9 13.9z"/>
            <path class="st1" d="M1471.8 756.7c0 .5 0 .9-.1 1.4-.1.8-.2 1.6-.5 2.4-.7 2.5-2.1 4.7-3.9 6.4-2.5 2.3-5.8 3.7-9.4 3.7-1.3 0-2.5-.2-3.6-.5-5.9-1.6-10.3-7-10.3-13.4 0-2.4.6-4.7 1.7-6.7.1-.2.2-.4.3-.5 1.7-2.8 4.3-4.9 7.5-6 1.4-.5 2.9-.7 4.4-.7 7.7 0 13.9 6.2 13.9 13.9z"/>
            <path class="st1" d="M939.2 1240c0 1.4-.1 2.9-.2 4.3-.2 2.6-.7 5.1-1.4 7.5-2.2 7.8-6.5 14.6-12.3 20-7.7 7.1-18 11.5-29.4 11.5-3.9 0-7.7-.5-11.3-1.5-18.4-5-31.9-21.8-31.9-41.8 0-7.5 1.9-14.6 5.3-20.8.3-.6.6-1.1 1-1.6 5.3-8.7 13.5-15.4 23.3-18.6 4.3-1.4 8.9-2.2 13.7-2.2 23.8-.1 43.2 19.3 43.2 43.2z"/>
            <path class="st1" d="M1086.7 887.5c0 1.6-.1 3.1-.2 4.6-.3 2.8-.8 5.5-1.5 8.1-2.4 8.4-7 15.8-13.2 21.6-8.3 7.7-19.4 12.4-31.7 12.4-3.6 0-7.1-.4-10.5-1.2-.6-.1-1.1-.3-1.7-.4-19.9-5.4-34.5-23.5-34.5-45.1 0-8.1 2.1-15.8 5.7-22.4.3-.6.7-1.2 1-1.8 3.3-5.5 7.8-10.3 13-14 3.7-2.6 7.8-4.7 12.1-6.1 4.7-1.6 9.6-2.4 14.8-2.4 24.5 0 44.5 18.8 46.5 42.7.2 1.3.2 2.7.2 4z"/>
            <path class="st1" d="M1397.2 692.7l9.6 10.1 41.5 43.8 9.6 10.1.4 13.9 1.9 61 .6 20.1-20 1.7-354.2 30.1"/>
            <path class="st1" d="M1109.9 1610.7l-314.1 53.6"/>
            <path class="st1" d="M729 840.8c0 1.6-.1 3.1-.2 4.6-.3 2.8-.8 5.5-1.6 8.2-2.4 8.4-7 15.8-13.2 21.6-4.7 4.3-10.3 7.7-16.5 9.9-4.8 1.6-9.9 2.5-15.2 2.5-4.2 0-8.3-.6-12.2-1.6-19.9-5.4-34.5-23.5-34.5-45.1 0-8.1 2.1-15.8 5.7-22.4.3-.6.7-1.2 1-1.8 3.1-5.1 7.1-9.5 11.8-13.1 4-3 8.5-5.4 13.4-7 4.7-1.6 9.6-2.4 14.8-2.4 18.1 0 33.7 10.3 41.5 25.3 3.3 6.3 5.2 13.6 5.2 21.3z"/>
            <path class="st1" d="M826 1257.3L697.6 885"/>
            <path class="st1" d="M628.5 725.9c0 1.1-.1 2.2-.2 3.3-.2 2-.6 3.9-1.1 5.8-1.7 5.9-5 11.2-9.4 15.3-.8.7-1.6 1.4-2.5 2.1-5.5 4.2-12.5 6.7-20 6.7-3 0-5.9-.4-8.7-1.1-14.1-3.8-24.4-16.7-24.4-32 0-5.8 1.5-11.2 4.1-15.9.2-.4.5-.8.7-1.3 3.4-5.6 8.4-10.1 14.3-12.9 1.1-.5 2.3-1 3.5-1.4 3.3-1.1 6.8-1.7 10.5-1.7 18.4-.1 33.2 14.8 33.2 33.1z"/>
            <path class="st1" d="M521.8 496.9c0 1.1-.1 2.2-.2 3.3-.2 2-.6 3.9-1.1 5.8-1.7 5.9-5 11.2-9.4 15.3-2.5 2.3-5.3 4.2-8.5 5.7-4.2 2-9 3.1-14 3.1-3 0-5.9-.4-8.7-1.1-14.1-3.8-24.4-16.7-24.4-32 0-5.8 1.5-11.2 4.1-15.9.2-.4.5-.8.7-1.3 4-6.7 10.3-11.8 17.8-14.3 1.8-.6 3.6-1 5.5-1.3 1.6-.2 3.3-.4 5-.4 18.4 0 33.2 14.8 33.2 33.1z"/>
            <path class="st1" d="M581.4 695.9l-78.7-169"/>
            <path class="st1" d="M483.8 464.1l-28.7-188.2-2.1-13.8"/>
            <path class="st1" d="M654.2 803.5l-38.8-51.2"/>
            <path class="st1" d="M830.5 1321.1l-61.1 316.2"/>
            <path class="st1" d="M1000.6 1201.3c0 1.1-.1 2.2-.2 3.3-.2 2-.6 3.9-1.1 5.8-1.7 5.9-5 11.2-9.4 15.3-2.3 2.1-4.8 3.9-7.6 5.3-4.5 2.3-9.5 3.5-14.8 3.5-3 0-5.9-.4-8.7-1.1-14.1-3.8-24.4-16.7-24.4-32 0-5.8 1.5-11.2 4.1-15.9.2-.4.5-.8.7-1.3 4-6.6 10.3-11.8 17.8-14.3 3.3-1.1 6.8-1.7 10.5-1.7 2.6 0 5.1.3 7.5.8 14.6 3.4 25.6 16.6 25.6 32.3z"/>
            <path class="st1" d="M1029.5 933l-54.6 236"/>
            <path class="st1" d="M1139.4 1544.2l-157.1-313.3"/>
            <path class="st1" d="M1351.6 1107.2l64.1-38.7 31.2-144.8 13.9-72"/>
            <path class="st1" d="M796.3 1669.8c0 1.1-.1 2.2-.2 3.3-.2 2-.6 3.9-1.1 5.8-1.7 5.9-5 11.2-9.4 15.3-5.9 5.5-13.8 8.8-22.5 8.8-3 0-5.9-.4-8.7-1.1-14.1-3.8-24.4-16.7-24.4-32 0-5.8 1.5-11.2 4.1-15.9.2-.4.5-.8.7-1.3 4-6.6 10.3-11.8 17.8-14.3 3.3-1.1 6.8-1.7 10.5-1.7 2.1 0 4.2.2 6.3.6 13.5 2.6 24.1 13.4 26.4 27 .3 1.8.5 3.6.5 5.5z"/>
            <path class="st1" d="M869.9 1288.6c0 1.1-.1 2.2-.2 3.3-.2 2-.6 3.9-1.1 5.8-1.7 5.9-5 11.2-9.4 15.3-5.9 5.5-13.8 8.8-22.5 8.8-2.2 0-4.3-.2-6.3-.6-.8-.1-1.6-.3-2.4-.5-14.1-3.8-24.4-16.7-24.4-32 0-5.8 1.5-11.2 4.1-15.9.2-.4.5-.8.7-1.3 4-6.6 10.2-11.6 17.5-14.2.1 0 .2-.1.3-.1 3.3-1.1 6.8-1.7 10.5-1.7 18.3 0 33.2 14.8 33.2 33.1z"/>
            <path class="st1" d="M945.5 717.8c0 .8 0 1.7-.1 2.5-.1 1.5-.4 2.9-.8 4.4-1.3 4.5-3.8 8.5-7.1 11.5-.8.8-1.7 1.4-2.6 2.1-4.1 2.9-9 4.6-14.4 4.6-2.3 0-4.5-.3-6.5-.9-6.8-1.9-12.5-6.5-15.7-12.7-1.8-3.4-2.8-7.3-2.8-11.5 0-4.4 1.1-8.5 3.1-12 .2-.3.4-.6.6-1 3-5 7.8-8.9 13.5-10.8 2.5-.8 5.2-1.3 7.9-1.3 13.7 0 24.9 11.3 24.9 25.1z"/>
            <path class="st1" d="M898.2 729.3l-174.4 90.1"/>
            <path class="st1" d="M1013.1 849.3l-78.2-111.1"/>
            <path class="st1" d="M599.4 230.8l-51 228.1"/>
        </g>
    </g>
</svg>
