<svg xmlns="http://www.w3.org/2000/svg" viewBox="0 0 1920 1920">
    <style>
        .st0{fill:#fff}.st1{fill:none;stroke:#231f20;stroke-width:50;stroke-linecap:round;stroke-linejoin:round;stroke-miterlimit:10}
    </style>
    <path class="st0" d="M634.6 582.6c0 29.4-23.9 53.3-53.3 53.3S528 612 528 582.6s23.9-53.3 53.3-53.3 53.3 23.9 53.3 53.3zM848 687.9c-29.4 0-53.3 23.9-53.3 53.3s23.9 53.3 53.3 53.3 53.3-23.9 53.3-53.3c0-29.5-23.9-53.3-53.3-53.3zm-31 341.3c-29.4 0-53.3 23.9-53.3 53.3s23.9 53.3 53.3 53.3 53.3-23.9 53.3-53.3-23.9-53.3-53.3-53.3zm110.3 370.6c-29.4 0-53.3 23.9-53.3 53.3s23.9 53.3 53.3 53.3 53.3-23.9 53.3-53.3-23.8-53.3-53.3-53.3zm520.3-307.6c-29.4 0-53.3 23.9-53.3 53.3s23.9 53.3 53.3 53.3 53.3-23.9 53.3-53.3-23.9-53.3-53.3-53.3zm-199.1 207.5c-29.4 0-53.3 23.9-53.3 53.3s23.9 53.3 53.3 53.3 53.3-23.9 53.3-53.3-23.9-53.3-53.3-53.3zm-65.2-366.6c-29.4 0-53.3 23.9-53.3 53.3s23.9 53.3 53.3 53.3 53.3-23.9 53.3-53.3-23.9-53.3-53.3-53.3zM422.2 827.2c-29.4 0-53.3 23.9-53.3 53.3s23.9 53.3 53.3 53.3 53.3-23.9 53.3-53.3-23.8-53.3-53.3-53.3zm91.7 394.1c-29.4 0-53.3 23.9-53.3 53.3s23.9 53.3 53.3 53.3 53.3-23.9 53.3-53.3-23.8-53.3-53.3-53.3z" id="Layer_4"/>
    <path class="st0" d="M1531.3 887.8c-12 1.9-24.3 2.9-36.8 2.9-87 0-162.8-48.2-202.1-119.3-5.9.4-11.9.7-17.9.7-134.1 0-242.8-108.7-242.8-242.8 0-54.8 18.1-105.3 48.7-145.9-17.3-29-27.3-62.8-27.3-99 0-21.1 3.4-41.3 9.6-60.3-33.6-4.6-67.9-7-102.7-7-410.4 0-743.1 332.7-743.1 743.1s332.7 743.1 743.1 743.1c395.5 0 718.9-309.1 741.7-698.9-71.3-14.4-132.3-57.4-170.4-116.6zM848 687.9c29.4 0 53.3 23.9 53.3 53.3s-23.9 53.3-53.3 53.3-53.3-23.9-53.3-53.3c-.1-29.5 23.8-53.3 53.3-53.3zM422.2 933.8c-29.4 0-53.3-23.9-53.3-53.3s23.9-53.3 53.3-53.3 53.3 23.9 53.3 53.3c0 29.5-23.8 53.3-53.3 53.3zm91.7 394.1c-29.4 0-53.3-23.9-53.3-53.3s23.9-53.3 53.3-53.3 53.3 23.9 53.3 53.3-23.8 53.3-53.3 53.3zm67.4-692c-29.4 0-53.3-23.9-53.3-53.3s23.9-53.3 53.3-53.3 53.3 23.9 53.3 53.3-23.9 53.3-53.3 53.3zM817 1135.8c-29.4 0-53.3-23.9-53.3-53.3s23.9-53.3 53.3-53.3 53.3 23.9 53.3 53.3c0 29.5-23.9 53.3-53.3 53.3zm110.3 370.6c-29.4 0-53.3-23.9-53.3-53.3s23.9-53.3 53.3-53.3 53.3 23.9 53.3 53.3c0 29.5-23.8 53.3-53.3 53.3zm202.7-520c0-29.4 23.9-53.3 53.3-53.3s53.3 23.9 53.3 53.3-23.9 53.3-53.3 53.3c-29.4.1-53.3-23.8-53.3-53.3zm118.5 419.9c-29.4 0-53.3-23.9-53.3-53.3s23.9-53.3 53.3-53.3 53.3 23.9 53.3 53.3-23.9 53.3-53.3 53.3zm199.1-207.5c-29.4 0-53.3-23.9-53.3-53.3s23.9-53.3 53.3-53.3 53.3 23.9 53.3 53.3c0 29.5-23.9 53.3-53.3 53.3z" id="Layer_5"/>
    <g id="STROKES">
        <circle class="st1" cx="581.3" cy="582.6" r="53.3"/>
        <circle class="st1" cx="848" cy="741.2" r="53.3"/>
        <circle class="st1" cx="817" cy="1082.5" r="53.3"/>
        <circle class="st1" cx="927.3" cy="1453.1" r="53.3"/>
        <circle class="st1" cx="1447.6" cy="1145.5" r="53.3"/>
        <circle class="st1" cx="1248.5" cy="1353" r="53.3"/>
        <circle class="st1" cx="1183.3" cy="986.4" r="53.3"/>
        <circle class="st1" cx="422.2" cy="880.5" r="53.3"/>
        <circle class="st1" cx="513.9" cy="1274.6" r="53.3"/>
        <path class="st1" d="M1531.3 887.8c-12 1.9-24.3 2.9-36.8 2.9-87 0-162.8-48.2-202.1-119.3-5.9.4-11.9.7-17.9.7-134.1 0-242.8-108.7-242.8-242.8 0-54.8 18.1-105.3 48.7-145.9-17.3-29-27.3-62.8-27.3-99 0-21.1 3.4-41.3 9.6-60.3-33.6-4.6-67.9-7-102.7-7-410.4 0-743.1 332.7-743.1 743.1s332.7 743.1 743.1 743.1c395.5 0 718.9-309.1 741.7-698.9-71.3-14.4-132.3-57.4-170.4-116.6z"/>
    </g>
</svg>
