<svg xmlns="http://www.w3.org/2000/svg" viewBox="0 0 1920 1920">
    <style>
        .st0{fill:#fff}.st1{fill:none;stroke:#231f20;stroke-width:50;stroke-linecap:round;stroke-linejoin:round;stroke-miterlimit:10}
    </style>
    <circle class="st0" cx="960" cy="960" r="224.9" id="Layer_6"/>
    <path class="st0" d="M1703.1 960c0-24-8.7-46-23.2-63 11.3-19.2 16.1-42.4 11.9-66.1-4.2-23.7-16.6-43.8-33.8-58 7.8-20.9 8.5-44.5.3-67.1-8.2-22.6-24-40.3-43.4-51.2 4.1-21.9.6-45.3-11.4-66.1-12-20.8-30.6-35.5-51.6-42.9.2-22.3-7.3-44.8-22.7-63.2-15.4-18.4-36.3-29.6-58.3-33.3-3.7-22-14.9-42.8-33.3-58.3s-40.9-22.9-63.2-22.7c-7.4-21-22.1-39.6-42.9-51.6s-44.2-15.4-66.1-11.4c-11-19.4-28.7-35.1-51.2-43.4-22.6-8.2-46.2-7.5-67.1.3-14.2-17.2-34.3-29.6-58-33.8s-46.8.6-66.1 11.9c-17-14.5-38.9-23.2-63-23.2s-46 8.7-63 23.2c-19.2-11.3-42.4-16.1-66.1-11.9s-43.8 16.6-58 33.8c-20.9-7.8-44.5-8.5-67.1-.3-22.6 8.2-40.3 24-51.2 43.4-21.9-4.1-45.3-.6-66.1 11.4s-35.5 30.6-42.9 51.6c-22.3-.2-44.8 7.3-63.2 22.7s-29.6 36.3-33.3 58.3c-22 3.7-42.8 14.9-58.3 33.3-15.4 18.4-22.9 40.9-22.7 63.2-21 7.4-39.6 22.1-51.6 42.9-12 20.8-15.4 44.2-11.4 66.1-19.4 11-35.1 28.7-43.4 51.2-8.2 22.6-7.5 46.2.3 67.1-17.2 14.2-29.6 34.3-33.8 58-4.2 23.7.6 46.8 11.9 66.1-14.5 17-23.2 38.9-23.2 63 0 24 8.7 46 23.2 63-11.3 19.2-16.1 42.4-11.9 66.1 4.2 23.7 16.6 43.8 33.8 58-7.8 20.9-8.5 44.5-.3 67.1 8.2 22.6 24 40.3 43.4 51.2-4.1 21.9-.6 45.3 11.4 66.1 12 20.8 30.6 35.5 51.6 42.9-.2 22.3 7.3 44.8 22.7 63.2 15.4 18.4 36.3 29.6 58.3 33.3 3.7 22 14.9 42.8 33.3 58.3s40.9 22.9 63.2 22.7c7.4 21 22.1 39.6 42.9 51.6 20.8 12 44.2 15.4 66.1 11.4 11 19.4 28.7 35.1 51.2 43.4 22.6 8.2 46.2 7.5 67.1-.3 14.2 17.2 34.3 29.6 58 33.8 23.7 4.2 46.8-.6 66.1-11.9 17 14.5 38.9 23.2 63 23.2s46-8.7 63-23.2c19.2 11.3 42.4 16.1 66.1 11.9 23.7-4.2 43.8-16.6 58-33.8 20.9 7.8 44.5 8.5 67.1.3 22.6-8.2 40.3-24 51.2-43.4 21.9 4.1 45.3.6 66.1-11.4 20.8-12 35.5-30.6 42.9-51.6 22.3.2 44.8-7.3 63.2-22.7s29.6-36.3 33.3-58.3c22-3.7 42.8-14.9 58.3-33.3 15.4-18.4 22.9-40.9 22.7-63.2 21-7.4 39.6-22.1 51.6-42.9 12-20.8 15.4-44.2 11.4-66.1 19.4-11 35.1-28.7 43.4-51.2 8.2-22.6 7.5-46.2-.3-67.1 17.2-14.2 29.6-34.3 33.8-58 4.2-23.7-.6-46.8-11.9-66.1 14.4-17 23.2-39 23.2-63zM960 1184.9c-124.2 0-224.9-100.7-224.9-224.9S835.8 735.1 960 735.1s224.9 100.7 224.9 224.9-100.7 224.9-224.9 224.9z" id="Layer_7"/>
    <g id="STROKES">
        <path class="st1" d="M1703.1 960c0-24-8.7-46-23.2-63 11.3-19.2 16.1-42.4 11.9-66.1-4.2-23.7-16.6-43.8-33.8-58 7.8-20.9 8.5-44.5.3-67.1-8.2-22.6-24-40.3-43.4-51.2 4.1-21.9.6-45.3-11.4-66.1-12-20.8-30.6-35.5-51.6-42.9.2-22.3-7.3-44.8-22.7-63.2-15.4-18.4-36.3-29.6-58.3-33.3-3.7-22-14.9-42.8-33.3-58.3s-40.9-22.9-63.2-22.7c-7.4-21-22.1-39.6-42.9-51.6s-44.2-15.4-66.1-11.4c-11-19.4-28.7-35.1-51.2-43.4-22.6-8.2-46.2-7.5-67.1.3-14.2-17.2-34.3-29.6-58-33.8s-46.8.6-66.1 11.9c-17-14.5-38.9-23.2-63-23.2s-46 8.7-63 23.2c-19.2-11.3-42.4-16.1-66.1-11.9s-43.8 16.6-58 33.8c-20.9-7.8-44.5-8.5-67.1-.3-22.6 8.2-40.3 24-51.2 43.4-21.9-4.1-45.3-.6-66.1 11.4s-35.5 30.6-42.9 51.6c-22.3-.2-44.8 7.3-63.2 22.7s-29.6 36.3-33.3 58.3c-22 3.7-42.8 14.9-58.3 33.3-15.4 18.4-22.9 40.9-22.7 63.2-21 7.4-39.6 22.1-51.6 42.9-12 20.8-15.4 44.2-11.4 66.1-19.4 11-35.1 28.7-43.4 51.2-8.2 22.6-7.5 46.2.3 67.1-17.2 14.2-29.6 34.3-33.8 58-4.2 23.7.6 46.8 11.9 66.1-14.5 17-23.2 38.9-23.2 63 0 24 8.7 46 23.2 63-11.3 19.2-16.1 42.4-11.9 66.1 4.2 23.7 16.6 43.8 33.8 58-7.8 20.9-8.5 44.5-.3 67.1 8.2 22.6 24 40.3 43.4 51.2-4.1 21.9-.6 45.3 11.4 66.1 12 20.8 30.6 35.5 51.6 42.9-.2 22.3 7.3 44.8 22.7 63.2 15.4 18.4 36.3 29.6 58.3 33.3 3.7 22 14.9 42.8 33.3 58.3s40.9 22.9 63.2 22.7c7.4 21 22.1 39.6 42.9 51.6 20.8 12 44.2 15.4 66.1 11.4 11 19.4 28.7 35.1 51.2 43.4 22.6 8.2 46.2 7.5 67.1-.3 14.2 17.2 34.3 29.6 58 33.8 23.7 4.2 46.8-.6 66.1-11.9 17 14.5 38.9 23.2 63 23.2s46-8.7 63-23.2c19.2 11.3 42.4 16.1 66.1 11.9 23.7-4.2 43.8-16.6 58-33.8 20.9 7.8 44.5 8.5 67.1.3 22.6-8.2 40.3-24 51.2-43.4 21.9 4.1 45.3.6 66.1-11.4 20.8-12 35.5-30.6 42.9-51.6 22.3.2 44.8-7.3 63.2-22.7s29.6-36.3 33.3-58.3c22-3.7 42.8-14.9 58.3-33.3 15.4-18.4 22.9-40.9 22.7-63.2 21-7.4 39.6-22.1 51.6-42.9 12-20.8 15.4-44.2 11.4-66.1 19.4-11 35.1-28.7 43.4-51.2 8.2-22.6 7.5-46.2-.3-67.1 17.2-14.2 29.6-34.3 33.8-58 4.2-23.7-.6-46.8-11.9-66.1 14.4-17 23.2-39 23.2-63z"/>
        <circle class="st1" cx="960" cy="960" r="224.9"/>
    </g>
</svg>
