<svg xmlns="http://www.w3.org/2000/svg" viewBox="0 0 1920 1920">
    <style>
        .st0{fill:#fff}.st1{fill:none;stroke:#231f20;stroke-width:50;stroke-linecap:round;stroke-linejoin:round;stroke-miterlimit:10}
    </style>
    <path class="st0" d="M622.2 603c0 29.1-23.6 52.6-52.6 52.6S517 632 517 603c0-29.1 23.6-52.6 52.6-52.6s52.6 23.6 52.6 52.6zm353.7 301c-29.1 0-52.6 23.6-52.6 52.6s23.6 52.6 52.6 52.6c29.1 0 52.6-23.6 52.6-52.6S1005 904 975.9 904zm-210.5 434.4c-29.1 0-52.6 23.6-52.6 52.6s23.6 52.6 52.6 52.6c29.1 0 52.6-23.6 52.6-52.6s-23.5-52.6-52.6-52.6zm653.3-381.8c-29.1 0-52.6 23.6-52.6 52.6s23.6 52.6 52.6 52.6 52.6-23.6 52.6-52.6-23.5-52.6-52.6-52.6zm-182.3 371.3c-29.1 0-52.6 23.6-52.6 52.6s23.6 52.6 52.6 52.6 52.6-23.6 52.6-52.6-23.5-52.6-52.6-52.6zm-223.8-851.2c-29.1 0-52.6 23.6-52.6 52.6s23.6 52.6 52.6 52.6 52.6-23.6 52.6-52.6-23.5-52.6-52.6-52.6zm353.5 137c-29.1 0-52.6 23.6-52.6 52.6 0 29.1 23.6 52.6 52.6 52.6s52.6-23.6 52.6-52.6-23.6-52.6-52.6-52.6zM478.3 987.1c-29.1 0-52.6 23.6-52.6 52.6 0 29.1 23.6 52.6 52.6 52.6 29.1 0 52.6-23.6 52.6-52.6.1-29-23.5-52.6-52.6-52.6z" id="Layer_3"/>
    <path class="st0" d="M960 216.9c-410.4 0-743.1 332.7-743.1 743.1 0 410.4 332.7 743.1 743.1 743.1 410.4 0 743.1-332.7 743.1-743.1 0-410.4-332.7-743.1-743.1-743.1zm-481.7 875.5c-29.1 0-52.6-23.6-52.6-52.6s23.6-52.6 52.6-52.6c29.1 0 52.6 23.6 52.6 52.6s-23.5 52.6-52.6 52.6zm91.2-436.7c-29.1 0-52.6-23.6-52.6-52.6 0-29.1 23.6-52.6 52.6-52.6s52.6 23.6 52.6 52.6c.1 29-23.5 52.6-52.6 52.6zm195.9 788c-29.1 0-52.6-23.6-52.6-52.6s23.6-52.6 52.6-52.6c29.1 0 52.6 23.6 52.6 52.6s-23.5 52.6-52.6 52.6zm210.5-434.4c-29.1 0-52.6-23.6-52.6-52.6 0-29.1 23.6-52.6 52.6-52.6 29.1 0 52.6 23.6 52.6 52.6.1 29-23.5 52.6-52.6 52.6zm36.7-427.4c-29.1 0-52.6-23.6-52.6-52.6 0-29.1 23.6-52.6 52.6-52.6s52.6 23.6 52.6 52.6c.1 29-23.5 52.6-52.6 52.6zm223.8 851.3c-29.1 0-52.6-23.6-52.6-52.6 0-29.1 23.6-52.6 52.6-52.6 29.1 0 52.6 23.6 52.6 52.6s-23.5 52.6-52.6 52.6zm77-766.8c0-29.1 23.6-52.6 52.6-52.6 29.1 0 52.6 23.6 52.6 52.6 0 29.1-23.6 52.6-52.6 52.6s-52.6-23.6-52.6-52.6zm105.3 395.5c-29.1 0-52.6-23.6-52.6-52.6s23.6-52.6 52.6-52.6c29.1 0 52.6 23.6 52.6 52.6s-23.5 52.6-52.6 52.6z" id="Layer_2"/>
    <g id="STROKES">
        <circle class="st1" cx="569.5" cy="603" r="52.6"/>
        <circle class="st1" cx="975.9" cy="956.6" r="52.6"/>
        <circle class="st1" cx="765.4" cy="1391" r="52.6"/>
        <circle class="st1" cx="1418.7" cy="1009.3" r="52.6"/>
        <circle class="st1" cx="1236.4" cy="1380.5" r="52.6"/>
        <circle class="st1" cx="1012.6" cy="529.3" r="52.6"/>
        <circle class="st1" cx="1366.1" cy="666.4" r="52.6"/>
        <circle class="st1" cx="478.3" cy="1039.8" r="52.6"/>
        <path class="st1" d="M960 1703.1c-410.4 0-743.1-332.7-743.1-743.1 0-410.4 332.7-743.1 743.1-743.1 410.4 0 743.1 332.7 743.1 743.1 0 410.4-332.7 743.1-743.1 743.1z"/>
    </g>
</svg>
