<svg xmlns="http://www.w3.org/2000/svg" viewBox="0 0 1920 1920">
    <style>
        .st0{fill:#fff}.st1{fill:none;stroke:#231f20;stroke-width:50;stroke-linecap:round;stroke-linejoin:round;stroke-miterlimit:10}
    </style>
    <path class="st0" d="M1554.4 426.9c22.3 0 40.6 26.5 40.6 59v6c0 32.4-18.3 59-40.6 59h-121.8v-124h121.8zm-1067 0H365.6c-22.3 0-40.6 26.5-40.6 59v6c0 32.4 18.3 59 40.6 59h121.8v-124z" id="Layer_8"/>
    <path class="st0" d="M1367.8 216.9c35.7 0 64.8 29.2 64.8 64.8v207.1H487.4v-207c0-35.7 29.2-64.8 64.9-64.8h815.5z" id="Layer_9"/>
    <path class="st0" d="M1432.7 550.9v1087.3c0 35.7-29.2 64.9-64.8 64.9H552.2c-35.7 0-64.9-29.2-64.9-64.9V488.9h945.3v62zm-382.7 912c0-20.2-40.3-36.5-90-36.5s-90 16.3-90 36.5c0 11 12 20.9 31 27.6l28 123.9h62l28-123.9c19-6.7 31-16.6 31-27.6z" id="Layer_10"/>
    <path class="st0" d="M1019 1490.5l-28 123.9h-62l-28-123.9c15.8 5.6 36.4 8.9 59 8.9s43.2-3.3 59-8.9zm31-27.6c0-20.2-40.3-36.5-90-36.5s-90 16.3-90 36.5c0 11 12 20.9 31 27.6 15.8 5.6 36.4 8.9 59 8.9s43.2-3.4 59-8.9c19-6.7 31-16.6 31-27.6z" id="Layer_2"/>
    <g id="STROKES">
        <path class="st1" d="M1432.7 488.9V281.8c0-35.7-29.2-64.8-64.8-64.8H552.2c-35.7 0-64.9 29.2-64.9 64.8v207.1"/>
        <path class="st1" d="M487.4 550.9v1087.3c0 35.7 29.2 64.9 64.9 64.9h815.6c35.7 0 64.8-29.2 64.8-64.9V488.9H487.4v62z"/>
        <path class="st1" d="M901 1490.5c-19-6.7-31-16.6-31-27.6 0-20.2 40.3-36.5 90-36.5s90 16.3 90 36.5c0 11-12 20.9-31 27.6-15.8 5.6-36.4 8.9-59 8.9s-43.2-3.3-59-8.9z"/>
        <path class="st1" d="M901 1490.5l28 124h14.5"/>
        <path class="st1" d="M1019 1490.5l-28 124h-47.5"/>
        <path class="st1" d="M487.4 426.9H365.6c-22.3 0-40.6 26.5-40.6 59v6c0 32.4 18.3 59 40.6 59h121.8"/>
        <path class="st1" d="M1432.7 550.9h121.8c22.3 0 40.6-26.5 40.6-59v-6c0-32.5-18.3-59-40.6-59h-121.8"/>
    </g>
</svg>
