<svg xmlns="http://www.w3.org/2000/svg" viewBox="0 0 1920 1920">
    <style>
        .st0{fill:#fff}.st1{stroke:#231f20;stroke-width:50;stroke-linecap:round;stroke-linejoin:round;stroke-miterlimit:10}.st1,.st2{fill:none}
    </style>
    <path class="st0" d="M703.8 642.8l-216 216-51.8 51.8-51.8 51.8-155.9 155.9 343.4 343.4.4.4.4.4 42.4 42.4L770.8 1349l51.8-51.8 51.8-51.8 162.2-162.2 53.7-54-386.5-386.4z" id="Layer_3"/>
    <path class="st0" d="M1154.6 805.5c41.5 41.5 43.9 107.4 7.2 151.7l-71.6 72-386.4-386.4 64.3-64.3c44.1-44.1 115.5-44.1 159.6 0l226.9 227z" id="Layer_11"/>
    <path class="st0" d="M486.6 1462.1c23.5-23.5 61.5-23.6 85.1-.4l.4.4.4.4c23.2 23.6 23.1 61.6-.4 85.1-23.6 23.6-61.9 23.6-85.5 0s-23.6-61.9 0-85.5z" id="Layer_13"/>
    <path class="st0" d="M1639.8 354.7c13.3 0 26.5 4.9 36.7 14.6 20.2 19.4 20.2 51 0 70.4l-34.9 35.1-.8-.8-71.6-72 34-32.6c10.1-9.8 23.4-14.7 36.6-14.7z" id="Layer_14"/>
    <path class="st0" d="M1640.7 474l-477.5 481.4c35.2-44.3 32.3-108.9-8.7-149.9l414.6-403.6 71.6 72.1z" id="Layer_15"/>
    <g id="STROKES">
        <path class="st1" d="M572.1 1462.1l-.3-.4-343.5-343.4 155.9-155.9 51.8-51.7 51.7-51.8 216.1-216.1"/>
        <path class="st1" d="M1090.3 1029.4l-53.8 53.8-162.2 162.2-51.8 51.8-51.7 51.7-155.9 155.9-42.4-42.4"/>
        <path class="st1" d="M1090.3 1029.4l-.2-.2-386.3-386.4 64.3-64.3c44.1-44.1 115.5-44.1 159.6 0l226.9 226.9c41.5 41.5 43.9 107.4 7.2 151.7-2.2 2.7-4.6 5.3-7.2 7.9l-64.3 64.4z"/>
        <path class="st1" d="M487.7 858.9l386.6 386.5"/>
        <path class="st1" d="M436 910.7l386.5 386.5"/>
        <path class="st1" d="M384.2 962.4l386.6 386.5"/>
        <path class="st1" d="M571.8 1461.7c-23.6-23.2-61.7-23.1-85.1.4-23.6 23.6-23.6 61.9 0 85.5s61.9 23.6 85.5 0c23.5-23.5 23.6-61.5.4-85.1l-.4-.4-.4-.4z"/>
        <path class="st1" d="M1036.5 1083.2l53.7-54 71.6-72 479.8-482.5 34.9-35.1c20.2-19.4 20.2-50.9 0-70.4-10.1-9.7-23.4-14.6-36.7-14.6-13.3 0-26.5 4.9-36.7 14.6l-34 32.6 71.6 72"/>
        <path class="st1" d="M1569.2 401.9l-414.6 403.6"/>
    </g>
</svg>
