<svg xmlns="http://www.w3.org/2000/svg" viewBox="0 0 1920 1920">
    <style>
        .st0{fill:#fff}.st1{fill:none;stroke:#231f20;stroke-width:50;stroke-linecap:round;stroke-linejoin:round;stroke-miterlimit:10}
    </style>
    <path class="st0" d="M1630.8 1281.3v133.6c0 29.2-23.9 53-53 53H342.3c-29.2 0-53-23.9-53-53v-133.6h1341.5zm-1341.6-77.1v77.2h1341.6v-77.2H289.2zm0-77.2v77.2h1341.6V1127H289.2zm457.7-461.3v-59.5H289.2V1127h1341.6V606.2h-457.6v59.5c0 6.1-5 11.2-11.2 11.2H758c-6.1-.1-11.1-5.1-11.1-11.2z" id="Layer_1"/>
    <path class="st0" d="M1630.8 505.1v101.1h-457.6v-59.5c0-6.1-5-11.2-11.2-11.2H758c-6.1 0-11.2 5-11.2 11.2v59.5H289.2V505.1c0-29.2 23.9-53 53-53h1235.5c29.2-.1 53.1 23.8 53.1 53z" id="Layer_5"/>
    <path class="st0" d="M1162 535.5c6.1 0 11.2 5 11.2 11.2v119c0 6.1-5 11.2-11.2 11.2H758c-6.1 0-11.2-5-11.2-11.2v-119c0-6.1 5-11.2 11.2-11.2h404z" id="Layer_6"/>
    <path class="st0" d="M1666.9 944c-19.9 0-36.1-16.3-36.1-36.1V713c0-19.9 16.3-36.1 36.1-36.1 9.9 0 19 4.1 25.5 10.6s10.6 15.6 10.6 25.5v194.9c.1 19.8-16.2 36.1-36.1 36.1zM253.1 676.8c-19.9 0-36.1 16.3-36.1 36.1v194.9c0 19.9 16.3 36.1 36.1 36.1 19.9 0 36.1-16.3 36.1-36.1V713c0-9.9-4.1-19-10.6-25.5-6.5-6.6-15.6-10.7-25.5-10.7z" id="Layer_7"/>
    <g id="STROKES">
        <path class="st1" d="M1630.8 907.8V1415c0 29.2-23.9 53-53 53H342.3c-29.2 0-53-23.9-53-53V907.8"/>
        <path class="st1" d="M289.2 713V505.1c0-29.2 23.9-53 53-53h1235.5c29.2 0 53 23.9 53 53V713"/>
        <path class="st1" d="M1173.1 606.2v59.5c0 6.1-5 11.2-11.2 11.2H758c-6.1 0-11.2-5-11.2-11.2v-119c0-6.1 5-11.2 11.2-11.2h404c6.1 0 11.2 5 11.2 11.2v59.5z"/>
        <path class="st1" d="M289.2 606.2h457.7"/>
        <path class="st1" d="M1173.1 606.2h457.7"/>
        <path class="st1" d="M289.2 907.8c0 19.9-16.3 36.1-36.1 36.1-19.9 0-36.1-16.3-36.1-36.1V713c0-19.9 16.3-36.1 36.1-36.1 9.9 0 19 4.1 25.5 10.6 6.6 6.5 10.6 15.6 10.6 25.5v194.8z"/>
        <path class="st1" d="M1630.8 713c0-19.9 16.3-36.1 36.1-36.1 9.9 0 19 4.1 25.5 10.6s10.6 15.6 10.6 25.5v194.9c0 19.9-16.3 36.1-36.1 36.1-19.9 0-36.1-16.3-36.1-36.1V713z"/>
        <path class="st1" d="M289.2 1127h1341.6"/>
        <path class="st1" d="M289.2 1204.2h1341.6"/>
        <path class="st1" d="M289.2 1281.3h1341.6"/>
    </g>
</svg>
