<svg xmlns="http://www.w3.org/2000/svg" viewBox="0 0 1920 1920">
    <style>
        .st0{fill:#fff}.st1{fill:none;stroke:#231f20;stroke-width:50;stroke-linecap:round;stroke-linejoin:round;stroke-miterlimit:10}
    </style>
    <path class="st0" d="M1703.1 869.6v380.2c0 27.7-22.6 50.3-50.3 50.3h-97c-27.7 0-50.3-22.6-50.3-50.3V869.6c0-27.7 22.6-50.3 50.3-50.3h97c27.6 0 50.3 22.7 50.3 50.3zM414.6 1102.5v121.9c0 41.7 34.1 75.8 75.8 75.8h939.2c41.7 0 75.8-34.1 75.8-75.8v-121.9H414.6zm1090.8-458.2c0-71.9-58.9-130.8-130.8-130.8H545.4c-71.9 0-130.8 58.9-130.8 130.8v458.2h1090.8V644.3zM414.6 1224.4V869.6c0-27.7-22.6-50.3-50.3-50.3h-97c-27.7 0-50.3 22.6-50.3 50.3v380.2c0 27.7 22.6 50.3 50.3 50.3h97c27.7 0 50.3-22.6 50.3-50.3v-25.4z" id="Layer_1"/>
    <g id="STROKES">
        <g id="XMLID_1_">
            <path class="st1" d="M414.6 1224.4v5.3"/>
            <path class="st1" d="M414.6 1249.9c0 27.7-22.6 50.3-50.3 50.3h-97c-27.7 0-50.3-22.6-50.3-50.3V869.6c0-27.7 22.6-50.3 50.3-50.3h97c27.7 0 50.3 22.6 50.3 50.3"/>
            <path class="st1" d="M1505.4 1224.4c0 41.7-34.1 75.8-75.8 75.8H490.4c-41.7 0-75.8-34.1-75.8-75.8v-121.9"/>
            <path class="st1" d="M1505.4 1102.5H414.6V644.3c0-71.9 58.9-130.8 130.8-130.8h829.2c71.9 0 130.8 58.9 130.8 130.8v225.3"/>
            <path class="st1" d="M1505.4 1229.7V869.6c0-27.7 22.6-50.3 50.3-50.3h97c27.7 0 50.3 22.6 50.3 50.3v380.2c0 27.7-22.6 50.3-50.3 50.3h-97c-27.7 0-50.3-22.6-50.3-50.3"/>
            <path class="st1" d="M414.6 1229.7v176.8"/>
            <path class="st1" d="M1505.4 1229.7v176.8"/>
        </g>
    </g>
</svg>
