<svg xmlns="http://www.w3.org/2000/svg" viewBox="0 0 1920 1920">
    <style>
        .st0{fill:#fff}.st1{fill:none;stroke:#231f20;stroke-width:50;stroke-linecap:round;stroke-linejoin:round;stroke-miterlimit:10}
    </style>
    <path class="st0" d="M1307.9 461l412.3-4s-101 152-205.9 200c0 0 94.2 496.2-103.3 731.7V1328c0-117.6-96.2-213.8-213.8-213.8H722.8c-117.6 0-213.8 96.2-213.8 213.8v60.6C311.5 1153.2 405.7 657 405.7 657c-104.9-48-205.9-200-205.9-200l412.3 4c0-72.8 35.1-124.1 82.4-160.1 98.2-74.8 249.2-83.9 249.2-83.9h32.6s151 9.1 249.2 83.9c47.3 36 82.4 87.3 82.4 160.1zm18.9 418.4c0-23.5-19-42.5-42.4-42.5-23.5 0-42.5 19-42.5 42.5 0 23.4 19 42.5 42.5 42.5 23.4 0 42.4-19 42.4-42.5zm-648.7 0c0-23.5-19-42.5-42.5-42.5s-42.5 19-42.5 42.5c0 23.4 19 42.5 42.5 42.5s42.5-19 42.5-42.5z" id="Layer_1"/>
    <path class="st0" d="M1471.6 216.9c0 138.5-163.7 244.1-163.7 244.1 0-72.8-35.1-124.1-82.4-160.1 91.8 5.1 246.1-84 246.1-84zM612.1 461c0-72.8 35.1-124.1 82.4-160.1C602.7 306 448.4 217 448.4 217c0 138.4 163.7 244 163.7 244z" id="Layer_5"/>
    <path class="st0" d="M635.7 837c23.5 0 42.5 19 42.5 42.5 0 23.4-19 42.5-42.5 42.5s-42.5-19-42.5-42.5 19-42.5 42.5-42.5zm606.2 42.4c0 23.4 19 42.5 42.5 42.5 23.4 0 42.4-19 42.4-42.5s-19-42.5-42.4-42.5c-23.5.1-42.5 19.1-42.5 42.5z" id="Layer_6"/>
    <path class="st0" d="M1136.3 1227c57.6 0 104.3 76.3 104.3 170.4 0 94.1-46.7 170.4-104.3 170.4-57.6 0-104.3-76.3-104.3-170.4 0-94.1 46.7-170.4 104.3-170.4zm-457 170.4c0 94.1 46.7 170.4 104.3 170.4 57.6 0 104.3-76.3 104.3-170.4 0-94.1-46.7-170.4-104.3-170.4-57.6 0-104.3 76.3-104.3 170.4z" id="Layer_7"/>
    <path class="st0" d="M1411 1388.7v78c0 117.6-96.2 213.8-213.8 213.8H722.8c-117.6 0-213.8-96.2-213.8-213.8V1328c0-117.6 96.2-213.8 213.8-213.8h474.4c117.6 0 213.8 96.2 213.8 213.8v60.7zm-170.3 8.7c0-94.1-46.7-170.4-104.3-170.4-57.6 0-104.3 76.3-104.3 170.4 0 94.1 46.7 170.4 104.3 170.4 57.6 0 104.3-76.3 104.3-170.4zm-352.7 0c0-94.1-46.7-170.4-104.3-170.4-57.6 0-104.3 76.3-104.3 170.4 0 94.1 46.7 170.4 104.3 170.4 57.6 0 104.3-76.3 104.3-170.4z" id="Layer_8"/>
    <g id="STROKES">
        <g id="XMLID_1_">
            <path class="st1" d="M678.1 879.4c0 23.4-19 42.5-42.5 42.5s-42.5-19-42.5-42.5 19-42.5 42.5-42.5 42.5 19.1 42.5 42.5z"/>
            <path class="st1" d="M491 800.7s166-138.1 320.9 16.7"/>
            <path class="st1" d="M1241.9 879.4c0 23.4 19 42.5 42.5 42.5 23.4 0 42.4-19 42.4-42.5s-19-42.5-42.4-42.5c-23.5.1-42.5 19.1-42.5 42.5z"/>
            <path class="st1" d="M1429 800.7s-166-138.1-320.9 16.7"/>
            <path class="st1" d="M1411 1388.7v78c0 117.6-96.2 213.8-213.8 213.8H722.8c-117.6 0-213.8-96.2-213.8-213.8V1328c0-117.6 96.2-213.8 213.8-213.8h474.4c117.6 0 213.8 96.2 213.8 213.8v60.7z"/>
            <path class="st1" d="M888 1397.4c0 94.1-46.7 170.4-104.3 170.4-57.6 0-104.3-76.3-104.3-170.4 0-94.1 46.7-170.4 104.3-170.4 57.6 0 104.3 76.3 104.3 170.4z"/>
            <path class="st1" d="M1240.7 1397.4c0 94.1-46.7 170.4-104.3 170.4-57.6 0-104.3-76.3-104.3-170.4 0-94.1 46.7-170.4 104.3-170.4 57.6 0 104.3 76.3 104.3 170.4z"/>
            <path class="st1" d="M612.1 461S448.4 355.4 448.4 216.9c0 0 154.3 89.1 246.1 83.9"/>
            <path class="st1" d="M1411 1388.7c197.5-235.4 103.3-731.7 103.3-731.7 104.9-48 205.9-200 205.9-200l-412.3 4c0-72.8-35.1-124.1-82.4-160.1-98.2-74.8-249.2-83.9-249.2-83.9h-32.6s-151 9.1-249.2 83.9c-47.3 36-82.4 87.3-82.4 160.1l-412.3-4s101 152 205.9 200c0 0-94.2 496.2 103.3 731.7"/>
            <path class="st1" d="M1307.9 461s163.7-105.6 163.7-244.1c0 0-154.3 89.1-246.1 83.9"/>
        </g>
    </g>
</svg>
