<svg xmlns="http://www.w3.org/2000/svg" viewBox="0 0 1920 1920">
    <style>
        .st0{fill:#fff}.st1{fill:none;stroke:#231f20;stroke-width:50;stroke-linecap:round;stroke-linejoin:round;stroke-miterlimit:10}
    </style>
    <path class="st0" d="M241.4 1217.6c-2.9 9.3-16.2 8.8-18.5-.7-17.5-72.1 2.3-126.4 2.3-126.4 19.6-49.9 36.8-216.6 78.3-348.9C343.3 615 454.8 601.4 606 617.9c116.3 12.7 361.2-34 468-56.2 29.2-6.1 60.4-8.7 88.2 2.1 60 23.3 124.1-7.9 124.1-7.9s-7.6-7.1-28.7-56.4c-58.4-136.3 72.6-90 78.6-38.5 27.5 49.5 58.9 19.4 58.9 19.4 57.7-77 92.9-25 92.9-25 74.9 10.8 80.2 58.2 80.2 58.2 24.6 11 37.8 30.3 37.8 54.5 0 5.4-.6 11-1.9 16.8l48.4 56.4c33 19.2 50.5 47 50.5 81.1 0 66.3-60.8 80.4-60.8 80.4-72.5 11.4-192.1-43.9-192.1-43.9-79.7 207-121 198-121 198-30.2 108-110 141.4-110 141.4-41.2 78.9 11 259.4 11 259.4l66 89.4h-43.8c-10.7 0-18.4 10.3-15.4 20.5l4.2 14.5c-92.9 9-112.9-16.5-117.1-28.8-1-2.9-.9-6 .3-8.8 11.7-27.1 4-177.6 4-177.6l-82.5-220c-233.7 96.2-302.5 19.2-302.5 19.2-85.2 16.5-121.9 1.9-121.9 1.9l28.4 264.8 36.5 29.4c15 12.9-2.6 31.8-22.3 32.6l-93 4.1-.7-70.6-33.2-245.7c-33 15.7-57.7 118.9-57.7 118.9l-5.5 148.2 41.2 97.3h-110l-13.8-33.6L364 1385l35.7-68.7 25.6-219.8c.5-4.6 1.4-9.2 2.6-13.6 56.7-206.2-39.3-344-44.8-341.2-5.5 2.8-63 299-63 299s63 52.9-5.8 83.2c-42.4 18.7-63.2 62.8-72.9 93.7z" id="Layer_4"/>
    <g id="STROKES">
        <path class="st1" d="M1162.2 563.8c-27.8-10.8-59-8.2-88.2-2.1-106.8 22.2-351.6 68.9-468 56.2-151.2-16.5-262.7-2.9-302.4 123.7-41.5 132.3-58.7 299-78.3 348.9 0 0-19.9 54.3-2.3 126.4 2.3 9.4 15.6 9.9 18.5.7 9.7-30.8 30.5-75 73.1-93.8 68.7-30.2 5.8-83.2 5.8-83.2s57.5-296.3 63-299c5.4-2.7 101.5 135 44.8 341.2-1.2 4.5-2.1 9-2.6 13.6L400 1316.2l-36 68.8 27.5 28.4 13.8 33.6h110l-41.2-97.3 5.5-148.2s24.7-103.3 57.7-118.9l33.2 245.7.7 70.6 93-4.1c19.8-.9 37.3-19.7 22.3-32.6l-36.5-29.4-28.4-264.8s36.7 14.6 121.9-1.9c0 0 68.7 77 302.5-19.2l82.5 220s7.6 150.5-4 177.6c-1.2 2.8-1.3 6-.3 8.8 4.2 12.3 24.2 37.8 117.1 28.8l-4.2-14.5c-3-10.3 4.7-20.5 15.4-20.5h43.8l-66-89.4s-52.2-180.5-11-259.4c0 0 79.7-33.4 110-141.4 0 0 41.2 9 121-198 0 0 119.6 55.3 192.1 43.9 0 0 60.8-14.2 60.8-80.4 0-34.1-17.5-61.9-50.5-81.1l-48.4-56.4c1.3-5.8 1.9-11.4 1.9-16.8 0-24.3-13.1-43.5-37.8-54.5 0 0-5.3-47.3-80.2-58.2 0 0-35.2-52-92.9 25 0 0-31.4 30.1-58.9-19.4-6-51.5-136.9-97.7-78.6 38.5 21.1 49.3 28.7 56.4 28.7 56.4s-64.3 31.2-124.3 7.9z" id="XMLID_1_"/>
    </g>
</svg>
