<svg xmlns="http://www.w3.org/2000/svg" viewBox="0 0 1920 1920">
    <style>
        .st0{fill:#fff}.st1{fill:none;stroke:#231f20;stroke-width:50;stroke-linecap:round;stroke-linejoin:round;stroke-miterlimit:10}
    </style>
    <path class="st0" d="M1378.9 744c-281.9 23.7-188.2-243.6-188.2-243.6 103.2-8.9 192.3-18.7 192.3-18.7 354-49.5 303 299.1 303 299.1-17.4 61.6-20.6 125.5-18.5 179.3-113.9-30.8-6.7-239.8-288.6-216.1zM791.1 960c0 25.7 20.8 46.5 46.5 46.5s87.6-26.7 87.6-52.3c0-25.7-53.5-74.7-79.2-74.7-25.7-.1-54.9 54.8-54.9 80.5zm107.4-448.4S693 481.4 525 744c-41.2 64.3-68.7 112.1-88.2 148.5 0 0 183.2 137.9 270.1-75s158.6-101 253.1-174.3c94.5-73.4 92.4-132.5 92.4-132.5-66.7 3.8-125.2 5.1-153.9.9z" id="Layer_9"/>
    <path class="st0" d="M972.2 1083.6c356-258.5 377.8-50 377.8-50-18.9 14.2-38.3 25.4-57.7 34-54 24.2-108.7 29-157.6 27.1-55.8-2.2-104-13.3-135.3-14.6-10.3-.5-19.3.9-27.2 3.5z" id="Layer_10"/>
    <path class="st0" d="M1190.7 500.4S1097 767.7 1378.9 744c281.9-23.6 174.7 185.4 288.6 216 3.1 76.2 17 132.1 17 132.1 31.5 52.5-7.5 70.5-7.5 70.5l3 259.5 28.5 69h-141l48-69-7.5-156-105-228-25.5 21c18 61.5 0 142.5 0 142.5l-76.5 234 15 55.5h-141l48-54c-1.5-27 63-241.5 63-241.5-40.5-39-36-162-36-162s-21.8-208.5-377.8 50c-44 14.6-51.2 68.5-51.2 68.5l21 245.3 13.5 93.7H849l36-84-42-163.5-51 160.5v87H643.5l66-66 24-85.5 15-142.5-39-19.5s-57 42-94.5 1.5-66 21-66 21c6 183-123 197.3-123 197.3-66 78.8-97.5 66.7-97.5 66.7-109.5-18-21-144-46.5-181.5s19.5-57-12-90-4.5-70.5-9-100.5-49.5-37.5-49.5-37.5c82.5-63 117 0 117 0 65.7-46.4 48.4-50.1 108.3-162.1 0 0 183.2 137.9 270.1-75s158.6-101 253.1-174.3c94.5-73.4 92.4-132.5 92.4-132.5 44.5-2.7 92.8-6.4 138.3-10.3zM925.1 954.1c0-25.7-53.5-74.7-79.2-74.7-25.7 0-54.9 54.9-54.9 80.6s20.8 46.5 46.5 46.5 87.6-26.7 87.6-52.4z" id="Layer_2"/>
    <g id="STROKES">
        <g id="XMLID_1_">
            <path class="st1" d="M1134.8 1094.7v86"/>
            <path class="st1" d="M1214.9 1090.4v57.1"/>
            <path class="st1" d="M1292.3 1067.6v113.1"/>
            <path class="st1" d="M436.9 892.5c-59.9 112-42.6 115.7-108.3 162.1 0 0-34.5-63-117 0 0 0 45 7.5 49.5 37.5s-22.5 67.5 9 100.5-13.5 52.5 12 90-63 163.5 46.5 181.5c0 0 31.5 12.1 97.5-66.7 0 0 129-14.3 123-197.3 0 0 28.5-61.5 66-21s94.5-1.5 94.5-1.5l39 19.5-15 142.5-24 85.5-66 66H792v-87l51-160.5 42 163.5-36 84h106.5l-13.5-93.7-21-245.3s7.2-54 51.2-68.5c7.9-2.6 16.9-3.9 27.3-3.5 31.3 1.4 79.5 12.4 135.3 14.6 48.9 1.9 103.5-2.9 157.6-27.1 19.4-8.7 38.7-19.8 57.7-34 0 0-4.5 123 36 162 0 0-64.5 214.5-63 241.5l-48 54h141l-15-55.5 76.5-234s18-81 0-142.5l25.5-21 105 228 7.5 156-48 69h141l-28.5-69-3-259.5s39-18 7.5-70.5c0 0-13.9-55.8-17-132.1-2.1-53.8 1.1-117.6 18.5-179.3 0 0 51-348.6-303-299.1 0 0-89.1 9.9-192.3 18.7-45.5 3.9-93.7 7.6-138.3 10.2-66.7 3.9-125.1 5.3-153.9 1 0 0-205.5-30.2-373.5 232.4-41.2 64.4-68.8 112.2-88.2 148.6z"/>
            <path class="st1" d="M436.9 892.5s183.2 137.9 270.1-75 158.6-101 253.1-174.3c94.5-73.4 92.4-132.5 92.4-132.5"/>
            <path class="st1" d="M1190.7 500.4S1097 767.7 1378.9 744c281.9-23.6 174.7 185.4 288.6 216"/>
            <path class="st1" d="M1350 1033.6s-21.8-208.5-377.8 50"/>
            <path class="st1" d="M925.1 954.1c0 25.7-61.9 52.3-87.6 52.3-25.7 0-46.5-20.8-46.5-46.5s29.2-80.6 54.9-80.6c25.7.1 79.2 49.2 79.2 74.8z"/>
        </g>
    </g>
</svg>
