<svg xmlns="http://www.w3.org/2000/svg" viewBox="0 0 1920 1920">
    <style>
        .st0{fill:#fff}.st1{fill:none;stroke:#231f20;stroke-width:50;stroke-linecap:round;stroke-linejoin:round;stroke-miterlimit:10}
    </style>
    <path class="st0" d="M1393.5 1065.4c31.6 31.8 108.5 71.9 281.9 13.6 0 0-32 139.8-261.7 159.8 0 0-119.9 36-37.9 67.9 75.4 29.4 294.8-10.6 327.5-45.2-17.4 33.4-96.3 150.1-341.5 135.8 0 0 175.8 156.6 46.9 305.7 0 0-15-267-168.8-305.7 0 0-119.9 56.5-265.7 60.8h-28.5c-145.8-4.4-265.7-60.8-265.7-60.8C526.2 1436 511.2 1703 511.2 1703c-128.9-149.1 47-305.7 47-305.7-245.2 14.3-324.1-102.4-341.5-135.8 32.7 34.6 252.1 74.6 327.5 45.2 81.9-32-38-67.9-38-67.9-229.7-20-261.7-159.8-261.7-159.8 255.7 85.9 301.6-42 301.6-42-223.6-203.7-211.6-401.4-211.6-401.4C504.3 140.1 809.9 234 809.9 234c-101.5 15.3-232.7 287.5-233.7 289.7 1.7.1 156.3 5.5 247.7-83.9 0 0-44 279.7-317.6 277.7 0 0-38 183.8 103.9 269.7 0 0 100.5-129.9 349.9-129.9 202.7 0 307 85.7 339 117.9 7.1 7.1 10.6 11.6 10.9 12 92.4-56 108.5-153.4 108.5-214.6 0-32.7-4.6-55.1-4.6-55.1-101.1.7-170.9-37-218.6-84.8-81.5-81.7-99-192.9-99-192.9 91.4 89.4 246.2 84 247.7 83.9-.8-1.6-77.7-161.2-159.2-243-25.1-25.2-50.6-43-74.5-46.6 0 0 154.5-47.5 304.9 103.2 61.1 61.2 121.5 155.2 170.5 298.3 0 0 .1 1.8.1 5.4 0 33-9.8 212.1-211.8 396.1 0 .5 4.8 13.5 19.5 28.3z" id="Layer_1"/>
    <g id="STROKES">
        <path class="st1" d="M576.2 523.7c1.7.1 156.3 5.5 247.7-83.9 0 0-44 279.7-317.6 277.7 0 0-38 183.8 103.9 269.7 0 0 100.5-129.9 349.9-129.9"/>
        <path class="st1" d="M216.7 1261.6c32.7 34.6 252.1 74.6 327.5 45.2 81.9-32-38-67.9-38-67.9-229.7-20-261.7-159.8-261.7-159.8 255.7 85.9 301.6-42 301.6-42-223.6-203.8-211.6-401.5-211.6-401.5C504.3 140.1 809.9 234 809.9 234c-101.5 15.3-232.7 287.5-233.7 289.7"/>
        <path class="st1" d="M216.7 1261.6c-2.9-5.5-4.1-8.8-4.1-8.8-.2 2.9 1.3 5.8 4.1 8.8z"/>
        <path class="st1" d="M1703.3 1261.6c-17.4 33.4-96.3 150.1-341.5 135.8 0 0 175.8 156.6 46.9 305.7 0 0-15-267-168.8-305.7 0 0-119.9 56.5-265.7 60.8h-28.5c-145.8-4.4-265.7-60.8-265.7-60.8-153.8 38.7-168.8 305.7-168.8 305.7-128.9-149.1 47-305.7 47-305.7-245.2 14.3-324.1-102.4-341.5-135.8"/>
        <path class="st1" d="M1703.3 1261.6c2.8-3 4.2-5.9 4.1-8.8 0 0-1.2 3.3-4.1 8.8z"/>
        <path class="st1" d="M1343.8 523.7c-.8-1.6-77.7-161.2-159.2-243-25.1-25.2-50.6-43-74.5-46.6 0 0 154.5-47.5 304.9 103.2 61.1 61.2 121.5 155.2 170.5 298.3 0 0 .1 1.8.1 5.4 0 33-9.8 212.1-211.8 396.1.2.5 5 13.5 19.7 28.3 31.6 31.8 108.5 71.9 281.9 13.6 0 0-32 139.8-261.7 159.8 0 0-119.9 36-37.9 67.9 75.4 29.4 294.8-10.6 327.5-45.2"/>
        <path class="st1" d="M960 857.3c202.7 0 307 85.7 339 117.9 7.1 7.1 10.6 11.6 10.9 12 92.4-56 108.5-153.4 108.5-214.6 0-32.7-4.6-55.1-4.6-55.1-101.1.7-170.9-37-218.6-84.8-81.5-81.7-99-192.9-99-192.9 91.4 89.4 246.2 84 247.7 83.9"/>
    </g>
</svg>
