<svg xmlns="http://www.w3.org/2000/svg" viewBox="0 0 1920 1920">
    <style>
        .st0{fill:#fff}.st1{fill:none;stroke:#231f20;stroke-width:50;stroke-linecap:round;stroke-linejoin:round;stroke-miterlimit:10}
    </style>
    <path class="st0" d="M1336.2 1013.2c-16 18.1-34.9 35.8-57 52.1-69.2 50.7-170.8 87.3-319.2 78.4-148.4 8.9-249.9-27.7-319.2-78.4-22.2-16.2-41-33.9-57-52.1-23.4-26.5-40.8-53.9-53.6-79-27.8-54.5-34.1-98.1-34.1-98.1.7-.1 1.4-.3 2.1-.4 28.8-5.8 63.5-18.9 100.1-35.6 128.5-58.9 280-163.6 280-163.6l65.5 62.4h32.3l65.5-62.4s151.5 104.8 280 163.6c36.6 16.8 71.3 29.8 100.1 35.6.7.1 1.4.3 2.1.4 0 0-6.3 43.6-34.1 98.1-12.7 25.1-30.1 52.5-53.5 79zm105.8 212.9l-76.8 129.4-121.2 204.4c381-66 270-261 270-261l-72-72.8zm-105.8-212.9c-16 18.1-34.9 35.8-57 52.1l162.8 160.8 72 72.8 20.1-95.4-197.9-190.3zM1205 1397.9l160.3-42.4 76.8-129.4c-.1 0-222.1 15.7-237.1 171.8zm-621.2-384.7l-197.9 190.3 20.1 95.4 72-72.8 162.8-160.8c-22.1-16.3-41-34-57-52.1zM478 1226.1l-72 72.8s-111 195 270 261l-121.3-204.4-76.7-129.4zm76.7 129.4l160.3 42.4c-15-156-237-171.8-237-171.8l76.7 129.4z" id="Layer_5"/>
    <g id="STROKES">
        <path class="st1" d="M478 1226.1l162.8-160.9"/>
        <path class="st1" d="M583.8 1013.2l-198 190.2"/>
        <path class="st1" d="M478 1226.1l-72 72.7-20.2-95.4"/>
        <path class="st1" d="M406 1298.8s-111 195 270 261l-121.3-204.4"/>
        <path class="st1" d="M478 1226.1s222 15.8 237 171.8l-160.3-42.4-76.7-129.4z"/>
        <path class="st1" d="M640.8 1065.2c69.2 50.7 170.8 87.3 319.2 78.4 148.4 8.9 249.9-27.7 319.2-78.4 22.2-16.2 41-33.9 57-52.1 23.4-26.5 40.8-53.9 53.6-79 27.8-54.5 34.1-98.1 34.1-98.1-.7-.1-1.4-.3-2.1-.4-28.8-5.8-63.5-18.9-100.1-35.6-128.5-58.9-280-163.6-280-163.6l-65.5 62.4h-32.3l-65.5-62.4S726.9 741.2 598.4 800c-36.6 16.8-71.3 29.8-100.1 35.6-.7.1-1.4.3-2.1.4 0 0 6.3 43.6 34.1 98.1 12.8 25.1 30.2 52.5 53.6 79 15.9 18.2 34.8 35.9 56.9 52.1z"/>
        <path class="st1" d="M1442 1226.1l-162.8-160.9"/>
        <path class="st1" d="M1336.2 1013.2l198 190.2"/>
        <path class="st1" d="M1442 1226.1l72 72.7 20.2-95.4"/>
        <path class="st1" d="M1514 1298.8s111 195-270 261l121.3-204.4"/>
        <path class="st1" d="M1442 1226.1s-222 15.8-237 171.8l160.3-42.4 76.7-129.4z"/>
        <path class="st1" d="M530.2 934.2l-141.3-52L220 1003.3"/>
        <path class="st1" d="M499.2 836.1l-1-.4-144.3-58.8L220 882.2"/>
        <path class="st1" d="M599.6 800.8l-1.3-.8L377 659.4l-157 70.7"/>
        <path class="st1" d="M1389.8 934.2l141.3-52 168.9 121.1"/>
        <path class="st1" d="M1421.8 835.7l144.3-58.8L1700 882.2"/>
        <path class="st1" d="M1321.7 800L1543 659.4l157 70.7"/>
    </g>
</svg>
