<svg xmlns="http://www.w3.org/2000/svg" viewBox="0 0 1920 1920">
    <style>
        .st0{fill:#fff}.st1{fill:none;stroke:#231f20;stroke-width:50;stroke-linecap:round;stroke-linejoin:round;stroke-miterlimit:10}
    </style>
    <path class="st0" d="M1569.4 456.7c58.5 157.9 6.8 241.5-44.1 283.2-34.2 28-68.2 37.1-68.2 37.1-14-6.9-26.2-14-36.8-21.3-104.5-71.5-54.7-155.5-54.7-155.5 70.7-124.8-103.1-383.2-103.1-383.2 273.2 26.4 306.9 239.7 306.9 239.7zm-112.3 320.2c-14-6.9-26.2-14-36.8-21.3l-3.8 4.6-100.8 120.7-101 73.5c14.5 28.2 30.8 59.6 47.8 91.6l130.2-109.5L1525.3 740c-34.3 27.8-68.2 36.9-68.2 36.9zm-91.5-176.7s-199.6-176.8-210-297.4c0 0-83 303.2 260.9 457.4l3.8-4.6c-104.5-71.5-54.7-155.4-54.7-155.4zm-103.1 445.7c-17-32-33.4-63.4-47.8-91.6-32.1-62.5-54.9-108.8-54.9-108.8L960 885l-199.7-39.5s-22.8 46.3-54.9 108.8c-14.5 28.2-30.8 59.6-47.8 91.6-26.7 50.2-55 101.7-80.2 144-28.6 47.9-53.1 83.8-66.6 92.3 0 0 26 30.2 66.6 72.3 92.7 96 261.6 253.6 370.1 252.1h25.2c108.5 1.5 277.3-156.1 370.1-252.1 40.6-42 66.6-72.3 66.6-72.3-13.5-8.4-38-44.4-66.6-92.3-25.3-42.2-53.6-93.7-80.3-144zM554.4 600.2s49.8 84-54.7 155.5l3.8 4.6c344-154.1 260.9-457.4 260.9-457.4-10.4 120.5-210 297.3-210 297.3zm-50.9 160l-3.8-4.6c-10.6 7.3-22.8 14.4-36.8 21.3 0 0-33.9-9.1-68.2-37.1l132.6 196.5 130.2 109.5c17-32 33.4-63.4 47.8-91.6l-101-73.5-100.8-120.5zM350.6 456.7c-58.5 157.9-6.8 241.5 44.1 283.2 34.2 28 68.2 37.1 68.2 37.1 14-6.9 26.2-14 36.8-21.3 104.5-71.5 54.7-155.5 54.7-155.5C483.7 475.4 657.5 217 657.5 217c-273.2 26.4-306.9 239.7-306.9 239.7z" id="Layer_4"/>
    <g id="STROKES">
        <path class="st1" d="M238.3 960l45.8 119 293.2 110.9"/>
        <path class="st1" d="M216.9 1286.4s38.1 161.2 360.4 68.1"/>
        <path class="st1" d="M666.9 1441.8l-320.4 179.4-70.7 81.9"/>
        <path class="st1" d="M657.5 1045.9L527.4 936.4 394.8 739.8"/>
        <path class="st1" d="M499.7 755.6l3.8 4.6 100.8 120.7 101.1 73.4"/>
        <path class="st1" d="M499.7 755.6c-10.6 7.3-22.8 14.4-36.8 21.3 0 0-33.9-9.1-68.2-37.1-51-41.7-102.6-125.2-44.1-283.2 0 0 33.7-213.3 306.9-239.7 0 0-173.8 258.4-103.1 383.2 0 .1 49.8 84-54.7 155.5z"/>
        <path class="st1" d="M554.4 600.2s199.6-176.8 210-297.4c0 0 83 303.2-260.9 457.4"/>
        <path class="st1" d="M1342.7 1354.5c40.6-42 66.6-72.3 66.6-72.3-13.5-8.4-38-44.4-66.6-92.3-25.2-42.2-53.5-93.8-80.2-144-17-32-33.4-63.4-47.8-91.6-32.1-62.5-54.9-108.8-54.9-108.8L960 885l-199.7-39.5s-22.8 46.3-54.9 108.8c-14.5 28.2-30.8 59.6-47.8 91.6-26.7 50.2-55 101.7-80.2 144-28.6 47.9-53.1 83.8-66.6 92.3 0 0 26 30.2 66.6 72.3 92.7 96 261.6 253.6 370.1 252.1h25.2c108.4 1.5 277.2-156.1 370-252.1"/>
        <path class="st1" d="M1681.7 960l-45.8 119-293.2 110.9"/>
        <path class="st1" d="M1703.1 1286.4s-38.1 161.2-360.4 68.1"/>
        <path class="st1" d="M1253.1 1441.8l320.4 179.4 70.7 81.9"/>
        <path class="st1" d="M1262.5 1045.9l130.1-109.5 132.6-196.6"/>
        <path class="st1" d="M1420.3 755.6l-3.8 4.6-100.8 120.7-101.1 73.4"/>
        <path class="st1" d="M1262.5 216.9s173.8 258.4 103.1 383.2c0 0-49.8 84 54.7 155.5 10.6 7.3 22.8 14.4 36.8 21.3 0 0 33.9-9.1 68.2-37.1 50.9-41.7 102.6-125.2 44.1-283.2 0 .1-33.7-213.2-306.9-239.7"/>
        <path class="st1" d="M1365.6 600.2s-199.6-176.8-210-297.4c0 0-83 303.2 260.9 457.4"/>
    </g>
</svg>
