<svg xmlns="http://www.w3.org/2000/svg" viewBox="0 0 1920 1920">
    <style>
        .st0{fill:#fff}.st1{fill:none;stroke:#231f20;stroke-width:50;stroke-linecap:round;stroke-linejoin:round;stroke-miterlimit:10}
    </style>
    <path class="st0" d="M1117.1 1501v202.1H803V1501h314.1zM960 216.9h-44L803 589h314.1L1004 217h-44z" id="Layer_4"/>
    <g id="Layer_5">
        <path class="st0" d="M1117.1 1401v100H803v-100h157z"/>
        <path class="st0" d="M1117.1 589v812H803V589h314.1zm-85.7 636.4V745.8c0-36-29.5-65.4-65.4-65.4h-11.9c-36 0-65.4 29.4-65.4 65.4v479.5c0 36 29.5 65.4 65.4 65.4H966c35.9.1 65.4-29.3 65.4-65.3z"/>
    </g>
    <path class="st0" d="M1031.4 745.8v479.5c0 36-29.5 65.4-65.4 65.4h-11.9c-36 0-65.4-29.5-65.4-65.4V745.8c0-36 29.5-65.4 65.4-65.4H966c35.9 0 65.4 29.4 65.4 65.4z" id="Layer_6"/>
    <g id="STROKES">
        <path class="st1" d="M803 1501h157"/>
        <path class="st1" d="M803 1401h157"/>
        <path class="st1" d="M803 589h157"/>
        <path class="st1" d="M803 589l113-372.1h88L1117.1 589v1114.1H803V1401z"/>
        <path class="st1" d="M1117.1 1501H960"/>
        <path class="st1" d="M1117.1 1401H960"/>
        <path class="st1" d="M1117.1 589H960"/>
        <path class="st1" d="M965.9 1290.8H954c-36 0-65.4-29.5-65.4-65.4V745.8c0-36 29.5-65.4 65.4-65.4h11.9c36 0 65.4 29.4 65.4 65.4v479.5c.1 36.1-29.4 65.5-65.4 65.5z"/>
    </g>
</svg>
