<svg xmlns="http://www.w3.org/2000/svg" viewBox="0 0 1920 1920">
    <style>
        .st0{fill:#fff}.st1{fill:none;stroke:#231f20;stroke-width:50;stroke-linecap:round;stroke-linejoin:round;stroke-miterlimit:10}
    </style>
    <path class="st0" d="M1674.9 316.5c37.5 37.5 37.5 98.4 0 135.9l-1.3 1.3-207.3-207.3 1.3-1.3c37.5-37.5 98.4-37.5 135.9 0l71.4 71.4zM465.5 1290.8l-248.6 343.1 34.6 34.6 34.6 34.6 343.1-248.6-163.7-163.7zm73.5-117.1l-95.3 95.3 21.8 21.8 163.7 163.7 21.8 21.8 95.3-95.3L539 1173.7z" id="Layer_7"/>
    <path class="st0" d="M1673.6 453.7l-84 84-207.3-207.3 84.1-84 207.2 207.3zm-291.4-123.3L623 1089.7 830.3 1297l118.3-118.3-13.1-12.5c-43-43-24-132.4 42.3-198.6L1307 638.5c66.2-66.2 155.6-85.2 198.6-42.3l12.4 13.1 71.6-71.5-207.4-207.4zM623 1089.7l-84 84L746.3 1381l84-84L623 1089.7z" id="Layer_8"/>
    <path class="st0" d="M1505.6 596.2l12.4 13.1-569.4 569.4-13.1-12.5c-43-43-24-132.4 42.3-198.6L1307 638.5c66.2-66.3 155.6-85.3 198.6-42.3z" id="Layer_9"/>
    <g id="STROKES">
        <path class="st1" d="M935.6 1166.2c-43-43-24-132.4 42.3-198.6L1307 638.5c66.2-66.2 155.6-85.2 198.6-42.3"/>
        <path class="st1" d="M623 1089.7l759.2-759.2 84.1-84 1.3-1.3c37.5-37.5 98.4-37.5 135.9 0l71.4 71.4c37.5 37.5 37.5 98.4 0 135.9l-1.3 1.3"/>
        <path class="st1" d="M746.3 1381.1l-95.3 95.2-21.8-21.8-163.7-163.7-21.8-21.8 95.3-95.3"/>
        <path class="st1" d="M1589.6 537.8l-71.6 71.5-569.3 569.4L830.3 1297"/>
        <path class="st1" d="M465.5 1290.8l-248.6 343.1 34.6 34.6 34.6 34.6 343.1-248.6"/>
        <path transform="rotate(-45.001 684.619 1235.384)" class="st1" d="M625.2 1088.8h118.9V1382H625.2z"/>
        <path class="st1" d="M1382.2 330.4l84.1-84 207.3 207.3-84 84.1z"/>
        <path class="st1" d="M935.6 1166.2l13.1 12.5"/>
        <path class="st1" d="M1505.6 596.2l12.4 13.1"/>
    </g>
</svg>
