<svg xmlns="http://www.w3.org/2000/svg" viewBox="0 0 1920 1920">
    <style>
        .st0{fill:#fff}.st1{fill:none;stroke:#231f20;stroke-width:50;stroke-linecap:round;stroke-linejoin:round;stroke-miterlimit:10}
    </style>
    <path class="st0" d="M923.4 524.4l-49.4 84h227.7l-49.4-84h-27.1V271.8h41.8V217H908.7v54.8h41.8v252.6z" id="Layer_9"/>
    <path class="st0" d="M1125.8 1677.9c-36 15.6-84.5 25.1-137.9 25.1-53.4 0-101.9-9.6-137.9-25.1l24-1069.5h227.2l24.6 1069.5z" id="Layer_10"/>
    <g id="STROKES">
        <path class="st1" d="M1101.2 608.4l24.6 1069.5c-36 15.6-84.5 25.1-137.9 25.1-53.4 0-101.9-9.6-137.9-25.1l24-1069.5h227.2z"/>
        <path class="st1" d="M1052.3 524.4H923.4l-49.4 84h227.7z"/>
        <path class="st1" d="M950.5 271.8h74.8v252.6h-74.8z"/>
        <path class="st1" d="M908.7 216.9H1067v54.8H908.7z"/>
    </g>
</svg>
