<svg xmlns="http://www.w3.org/2000/svg" viewBox="0 0 1920 1920">
    <style>
        .st0{fill:#fff}.st1{fill:none;stroke:#231f20;stroke-width:50;stroke-linecap:round;stroke-linejoin:round;stroke-miterlimit:10}
    </style>
    <path class="st0" d="M596 526.3c26.6 0 48.1 21.5 48.1 48.1s-21.5 48.1-48.1 48.1c-26.5 0-48.1-21.5-48.1-48.1s21.6-48.1 48.1-48.1z" id="Layer_2"/>
    <path class="st0" d="M1509.8 436.5c0-.1-.1-.1-.1-.3 0 .1.1.2.1.3zm-.4-.9c-3.9-10-32.2-88.9 34-110 70.7-22.6 105.9 56.6 105.9 56.6l53.7 141-135.2 51.3-39.2 14.9-102.3 38.8-35 13.3-108.9 41.3-43.9 16.7-97.2 36.9-92.1 35-114.4 43.4-81.7 31-91.3 34.6L644.1 925l190.6 162.9 95.2 81.4 67.3 57.5 75.8 64.8 48.4 41.4 101.3 86.6 59.6 50.9 105.8 90.4-75.1 38.9-237.3-9.9-711.9-416.5-128.3-293L325.1 677l9.8-3.8 126-49.4S453.6 464 594.1 461.6c140.5-2.4 159.8 79.9 159.8 79.9l558.5-92.4s14-97.1 91.5-92.3c71.9 4.3 101.7 69.6 105.5 78.8zM644.1 574.4c0-26.5-21.5-48.1-48.1-48.1-26.5 0-48.1 21.5-48.1 48.1s21.5 48.1 48.1 48.1 48.1-21.5 48.1-48.1z" id="Layer_3"/>
    <path class="st0" d="M969 1033l-39 136.2-95.2-81.4L969 1033zm28.2 193.8l75.8 64.8 26.3-128.5-102.1 63.7zm124.3 106.1l101.3 86.6L1265 1269s-142.1 64.9-143.5 63.9zm160.9 137.5l105.8 90.4 20.8-148.1-126.6 57.7zm285.4-896l80.2 113.1 55-164.5-135.2 51.4zm-141.5 53.7l45.7 140.7 56.5-179.5-102.2 38.8zm-143.9 54.7l61.1 136.7 47.8-178-108.9 41.3zm-141.1 53.5l67.2 120 29.9-156.8-97.1 36.8zm-206.6 78.4l85.5 112.2 28.9-155.7-114.4 43.5zm-173 65.7l91.3 80.3v-115l-91.3 34.7z" id="Layer_4"/>
    <g id="STROKES">
        <g id="XMLID_1_">
            <path class="st1" d="M1121.5 1332.9l101.3 86.6 59.6 50.9 105.8 90.4-75.1 38.9-237.3-9.9-711.9-416.5-128.3-293L325.1 677l9.8-3.8 126-49.4S453.6 464 594.1 461.6c140.5-2.4 159.8 79.9 159.8 79.9l558.5-92.4s14-97.1 91.5-92.3c72 4.5 101.8 69.8 105.7 78.9"/>
            <path class="st1" d="M1509.4 435.6c-3.9-10-32.2-88.9 34-110 70.7-22.6 105.9 56.6 105.9 56.6l53.7 141-135.2 51.3-39.2 14.9-102.3 38.8-35 13.3-108.9 41.3-43.9 16.7-97.2 36.9-92.1 35-114.4 43.4-81.7 31-91.3 34.6L644.1 925l190.6 162.9 95.2 81.4 67.3 57.5 75.8 64.8 48.4 41.4"/>
            <path class="st1" d="M1509.8 436.5c0-.1-.1-.2-.1-.3"/>
            <path class="st1" d="M1509.7 436.2c.1.1.1.2.1.3v.1"/>
            <path class="st1" d="M1509.7 436.2c0-.1 0-.1-.1-.2 0-.1-.1-.3-.2-.4"/>
            <path class="st1" d="M644.1 574.4c0 26.5-21.5 48.1-48.1 48.1-26.5 0-48.1-21.5-48.1-48.1s21.5-48.1 48.1-48.1 48.1 21.6 48.1 48.1z"/>
            <path class="st1" d="M934.7 814.7l85.5 112.2 29-155.6"/>
            <path class="st1" d="M1141.3 736.3l67.3 120 29.9-156.9"/>
            <path class="st1" d="M1282.4 682.8l61.1 136.6 47.8-178"/>
            <path class="st1" d="M1426.3 628.1l45.8 140.7 56.5-179.5"/>
            <path class="st1" d="M1567.8 574.4l80.3 113.1 55-164.4"/>
            <path class="st1" d="M834.7 1087.9L969 1033l-39 136.2"/>
            <path class="st1" d="M997.2 1226.8l102.2-63.8-26.3 128.5"/>
            <path class="st1" d="M1121.5 1332.9c1.4.9 143.5-63.9 143.5-63.9l-42.2 150.5"/>
            <path class="st1" d="M1282.4 1470.4l126.6-57.7-20.8 148.1"/>
            <path class="st1" d="M761.7 880.4l91.3 80.2V845.7"/>
            <path class="st1" d="M547.9 819.4S433 933 521 1033"/>
        </g>
    </g>
</svg>
