<svg xmlns="http://www.w3.org/2000/svg" viewBox="0 0 1920 1920">
    <style>
        .st0{fill:#fff}.st1{fill:none;stroke:#231f20;stroke-width:50;stroke-linecap:round;stroke-linejoin:round;stroke-miterlimit:10}
    </style>
    <path class="st0" d="M1703.1 812.8v321l-131.2 75h-213l-27.2 154.1-113.8 82.9 30-96-123 24 85.2-84.3 15-84c-49.2-29.7-436.3-56.7-436.3-56.7l-62.9 154.8-134.8 73 28.3-88-100.6-13.8 148.9-73.4 25.1-85.7L217 1002.3V874.7l66.5 71.8 99.3 20.5 224.9 35.9-133.9-106.1h-45l-21.9-42h-41.1l-18-39-45-6-24-44.7-61.8-24.3v-78c40.2-21 79.8 27 79.8 27l361.6 197 66-40.9 56.6 76.4 74.8-52.9 64.4 75.8 87-54 73.5 93.3 73.5-67.9 82 90.5 70.7-70.7 56.6 84.8 84.8-60.6 53.7 71.9 84.8-30.7 6-135-330-114h243l197.3 60z" id="Layer_5"/>
    <g id="STROKES">
        <path class="st1" d="M658.3 886.8l-361.6-197s-39.6-48-79.8-27v78l61.8 24.3 24 44.7 45 6 18 39h41.1l21.9 42h45l134 106.2-224.9-35.9-99.3-20.5-66.5-71.8v127.6l475.8 113.4-25.1 85.7-148.9 73.4 100.6 13.8-28.3 88 134.8-73 62.9-154.8s387 27 436.3 56.7l-15 84-85.2 84.3 123-24-30 96 113.8-82.9 27.2-154.1h213l131.2-75v-321l-197.2-60h-243l330 114-6 135-84.8 30.7-53.7-71.9-84.8 60.6-56.6-84.8-70.7 70.7-82-90.5-73.5 67.9-73.5-93.3-87 54-64.4-75.8-74.8 52.9-56.6-76.4-66.2 40.8z" id="XMLID_1_"/>
    </g>
</svg>
