<svg xmlns="http://www.w3.org/2000/svg" viewBox="0 0 1920 1920">
    <style>
        .st0{fill:#fff}.st1{fill:none;stroke:#231f20;stroke-width:50;stroke-linecap:round;stroke-linejoin:round;stroke-miterlimit:10}
    </style>
    <path class="st0" d="M1667.2 1043.4s42.1-2.8 35.1 42.1-73.1 78.7-220.4 90.4c-147.4 11.7-98.2 30.3-175.3 40.1-77.2 9.8-195.7 14-240.3 77.2 0 0 57.6 49.2 127.8 39.4 0 0 84 5.1 108.8 73.7 0 0 30 43.1 32.8 75.3l-95.5-47.8s.2 37.3 3 72.4l-121.6-95.3-152.7-15.7s-34.4-19.2-24.5-72.5l45-60.3s-235.8-2.8-315.8-40.7c0 0 41.3 53.4 43.5 78.6 1.7 19.4-22.3 30.7-79.3 56 0 0 44.8 112 37.4 138.5l-83.2-51s-16.3 60-29 75.5c0 0-52.4-96.6-64.9-130.5 0 0-3.3-4.2-5.7-13.4-6.2-24.9 4-51.1 25.2-65.7l54.2-37.3s-125.7-40.4-198.7-110.1c0 0-158.6-55.6-158.6-236.7s284.9-185.2 284.9-185.2S317 826 317 901.8s112.3 68.8 112.3 68.8l53.3-32.3 36.5 32.3 44.9-37.9 36.5 37.9 58.9-37.9L696 976l53.3-32.3 36.5 32.3 54.7-21.8 33.7 28.8 47.7-25.3L964 983l54.7-25.3 43.5 36.5 73-36.5 63.1 43.5s0-58.9 58.9-53.3c58.9 5.6 61.8 36.5 77.2 53.3 15.6 16.9 203.7 70.3 332.8 42.2z" id="Layer_6"/>
    <g id="STROKES">
        <path class="st1" d="M1302.8 1406.2s30 43.1 32.8 75.3l-95.5-47.8s.2 37.3 3 72.4l-121.6-95.3-152.7-15.7s-34.4-19.2-24.5-72.5l45-60.3s-235.8-2.8-315.8-40.7c0 0 41.3 53.4 43.5 78.6 1.7 19.4-22.3 30.7-79.3 56 0 0 44.8 112 37.4 138.5l-83.2-51s-16.3 60-29 75.5c0 0-52.4-96.6-64.9-130.5 0 0-3.3-4.2-5.7-13.4-6.2-24.9 4-51.1 25.2-65.7l54.2-37.3S446 1231.9 373 1162.2c0 0-158.6-55.6-158.6-236.7s284.9-185.2 284.9-185.2-182.4 85.6-182.4 161.4 112.3 68.8 112.3 68.8l53.3-32.3 36.5 32.3 44.9-37.9 36.5 37.9 58.9-37.9L696 976l53.3-32.3 36.5 32.3 54.7-21.8 33.7 28.8 47.7-25.3L964 983l54.7-25.3 43.5 36.5 73-36.5 63.1 43.5s0-58.9 58.9-53.3c58.9 5.6 61.8 36.5 77.2 53.3 15.4 16.8 203.5 70.2 332.6 42.1 0 0 42.1-2.8 35.1 42.1s-73.1 78.7-220.4 90.4c-147.4 11.7-98.2 30.3-175.3 40.1-77.2 9.8-195.7 14-240.3 77.2 0 0 57.6 49.2 127.8 39.4.1.1 84.1 5.1 108.9 73.7z" id="XMLID_1_"/>
    </g>
</svg>
