<svg xmlns="http://www.w3.org/2000/svg" viewBox="0 0 1920 1920">
    <style>
        .st0{fill:#fff}.st1{fill:none;stroke:#231f20;stroke-width:50;stroke-linecap:round;stroke-linejoin:round;stroke-miterlimit:10}
    </style>
    <path class="st0" d="M1477 1251.7c59.7 0 108-48.3 108-108 0-59.6-48.3-108-108-108s-108 48.4-108 108c0 59.7 48.3 108 108 108zm-618-108c0 59.7 48.3 108 108 108s108-48.3 108-108c0-59.6-48.3-108-108-108s-108 48.4-108 108zm-402 108c59.7 0 108-48.3 108-108 0-59.6-48.3-108-108-108s-108 48.4-108 108c0 59.7 48.4 108 108 108zM1703.1 487v946H216.9V487l348 344.4L960 487l409 344.4L1703.1 487z" id="Layer_2"/>
    <path class="st0" d="M1477 1035.7c59.7 0 108 48.4 108 108 0 59.7-48.3 108-108 108s-108-48.3-108-108c0-59.6 48.3-108 108-108zm-618 108c0 59.7 48.3 108 108 108s108-48.3 108-108c0-59.6-48.3-108-108-108s-108 48.4-108 108zm-510 0c0 59.7 48.4 108 108 108s108-48.3 108-108c0-59.6-48.3-108-108-108s-108 48.4-108 108z" id="Layer_3"/>
    <g id="STROKES">
        <path class="st1" d="M1703.1 487v946H216.9V487L565 831.3 960 487l409 344.3z"/>
        <path class="st1" d="M457 1035.7c59.7 0 108 48.4 108 108 0 59.7-48.3 108-108 108s-108-48.3-108-108c0-59.6 48.4-108 108-108z"/>
        <path class="st1" d="M967 1035.7c59.7 0 108 48.4 108 108 0 59.7-48.3 108-108 108s-108-48.3-108-108c0-59.6 48.3-108 108-108z"/>
        <path class="st1" d="M1477 1035.7c59.7 0 108 48.4 108 108 0 59.7-48.3 108-108 108s-108-48.3-108-108c0-59.6 48.3-108 108-108z"/>
    </g>
</svg>
