<svg xmlns="http://www.w3.org/2000/svg" viewBox="0 0 1920 1920">
    <style>
        .st0{fill:#fff}.st1{fill:none;stroke:#231f20;stroke-width:50;stroke-linecap:round;stroke-linejoin:round;stroke-miterlimit:10}
    </style>
    <path class="st0" d="M1561 487c78.4 0 142 63.6 142 142s-63.6 142-142 142c-49.3 0-92.8-25.1-118.2-63.3-15-22.5-23.8-49.6-23.8-78.8 0-78.3 63.6-141.9 142-141.9zm-422 602l-135-324.9c-13.9 4.5-28.7 7-44 7s-30.2-2.4-44-7L781 1089 477.2 707.8C451.7 745.9 408.3 771 359 771l110 582h982l110-582c-49.3 0-92.8-25.1-118.2-63.3L1139 1089zm-179 264H469v146.4h973.8V1353H960zM818 629c0 63.1 41.1 116.5 98 135.1 13.9 4.5 28.7 7 44 7s30.2-2.4 44-7c56.9-18.5 98-72 98-135.1 0-78.4-63.6-142-142-142s-142 63.6-142 142zm-601.1 0c0 78.4 63.6 142 142 142 49.3 0 92.8-25.1 118.2-63.3 15.1-22.5 23.8-49.6 23.8-78.8 0-78.4-63.6-142-142-142-78.4.1-142 63.7-142 142.1z" id="Layer_4"/>
    <g id="STROKES">
        <path class="st1" d="M359 771c-78.4 0-142-63.6-142-142s63.6-142 142-142 142 63.6 142 142c0 29.1-8.8 56.2-23.8 78.8C451.7 745.9 408.3 771 359 771z"/>
        <path class="st1" d="M916 764.1c-56.9-18.5-98-72-98-135.1 0-78.4 63.6-142 142-142s142 63.6 142 142c0 63.1-41.1 116.5-98 135.1-13.9 4.5-28.7 7-44 7s-30.2-2.5-44-7z"/>
        <path class="st1" d="M1442.8 707.8c-15-22.5-23.8-49.6-23.8-78.8 0-78.4 63.6-142 142-142s142 63.6 142 142-63.6 142-142 142c-49.3 0-92.7-25.1-118.2-63.2z"/>
        <path class="st1" d="M477.2 707.8L781 1089l135-324.9"/>
        <path class="st1" d="M1561 771l-110 582H469L359 771"/>
        <path class="st1" d="M1442.8 707.8L1139 1089l-135-324.9"/>
        <path class="st1" d="M469 1353v146.4h973.8V1353"/>
    </g>
</svg>
