<svg xmlns="http://www.w3.org/2000/svg" viewBox="0 0 1920 1920">
    <style>
        .st0{fill:#fff}.st1{fill:none;stroke:#231f20;stroke-width:50;stroke-linecap:round;stroke-linejoin:round;stroke-miterlimit:10}
    </style>
    <path class="st0" d="M771.3 623.4c-112 75-187.3 214.8-187.3 374.8S659.3 1298 771.3 1373c-48.3 26-111.8 58.4-187.3 58.4-34.9 0-68.6-5.5-100.6-15.7C324.6 1365 208 1197.3 208 998.2 207.9 759 376.3 565 584 565c80 0 138.4 31.6 187.3 58.4zM476.7 987l-68.4-155.7-70.6 160.8 68.4 155.7L476.7 987zm960 428.9c-32 10.2-65.6 15.6-100.4 15.6-75.5 0-139-32.4-187.3-58.4l-.1-.1c111.9-75 187.2-214.8 187.2-374.7s-75.2-299.7-187.2-374.7l.1-.1c48.9-26.8 107.3-58.4 187.3-58.4 207.7 0 376 194 376 433.2 0 199.2-116.7 367-275.6 417.6zM1582.3 987l-68.4-155.7-70.6 160.8 68.4 155.7 70.6-160.8zm-433.4-363.5c111.9 75 187.2 214.8 187.2 374.7s-75.2 299.7-187.2 374.7c-55.5 37.2-120 58.6-188.9 58.6-68.8 0-133.2-21.3-188.7-58.4-112-75-187.3-214.8-187.3-374.8s75.3-299.8 187.3-374.8C826.8 586.3 891.2 565 960 565c68.8 0 133.4 21.3 188.9 58.5zM1051.5 986l-94.4-215-97.5 222.1 94.4 215 97.5-222.1zm97.4 386.9c-55.5 37.2-120 58.6-188.9 58.6-68.8 0-133.2-21.3-188.7-58.4-48.3 26-111.8 58.4-187.3 58.4-34.9 0-68.6-5.5-100.6-15.7v151.5h953.3v-151.4c-32 10.2-65.6 15.6-100.4 15.6-75.5 0-139-32.4-187.3-58.4l-.1-.2z" id="Layer_5"/>
    <path class="st0" d="M1513.9 831.3l68.4 155.7-70.6 160.8-68.4-155.7 70.6-160.8zM859.6 993.1l94.4 215 97.5-222.1-94.4-215-97.5 222.1zm-521.9-1l68.4 155.7L476.7 987l-68.4-155.7-70.6 160.8z" id="Layer_6"/>
    <path class="st0" d="M960 288.8c42 0 76.1 34.1 76.1 76.1 0 42-34.1 76.1-76.1 76.1s-76.1-34.1-76.1-76.1c0-42 34.1-76.1 76.1-76.1z" id="Layer_7"/>
    <g id="STROKES">
        <path class="st1" d="M960 565c68.8 0 133.4 21.3 188.9 58.5 111.9 75 187.2 214.8 187.2 374.7s-75.2 299.7-187.2 374.7c-55.5 37.2-120 58.6-188.9 58.6-68.8 0-133.2-21.3-188.7-58.4-112-75-187.3-214.8-187.3-374.8s75.3-299.8 187.3-374.8C826.8 586.3 891.2 565 960 565z"/>
        <path class="st1" d="M771.3 1373.1c-48.3 26-111.8 58.4-187.3 58.4-34.9 0-68.6-5.5-100.6-15.7C324.6 1365.1 208 1197.4 208 998.3 207.9 759 376.3 565 584 565c80 0 138.4 31.6 187.3 58.4"/>
        <path class="st1" d="M1149 1373.1c48.3 26 111.8 58.4 187.3 58.4 34.8 0 68.4-5.4 100.4-15.6 158.9-50.6 275.6-218.4 275.6-417.6 0-239.3-168.4-433.2-376-433.2-80 0-138.4 31.6-187.3 58.4"/>
        <path class="st1" d="M483.3 1415.8v151.5h461"/>
        <path class="st1" d="M1436.7 1415.8v151.5H944.3"/>
        <path class="st1" d="M1051.5 986l-94.4-215-97.5 222.1 94.4 215z"/>
        <path class="st1" d="M408.3 831.3l-70.6 160.8 68.3 155.7L476.7 987z"/>
        <path class="st1" d="M1513.9 831.3l-70.6 160.8 68.4 155.7 70.6-160.8z"/>
        <path class="st1" d="M960 565V441"/>
        <path class="st1" d="M960 288.8c42 0 76.1 34.1 76.1 76.1 0 42-34.1 76.1-76.1 76.1s-76.1-34.1-76.1-76.1c0-42 34.1-76.1 76.1-76.1z"/>
    </g>
</svg>
