<svg xmlns="http://www.w3.org/2000/svg" viewBox="0 0 1920 1920">
    <style>
        .st0{fill:#fff}.st1{fill:none;stroke:#231f20;stroke-width:50;stroke-linecap:round;stroke-linejoin:round;stroke-miterlimit:10}
    </style>
    <path class="st0" d="M1619.5 882c35-17.4 75.2 11.7 69.6 50.4L1386.8 1405H325l-108.1-342.9s30.5 3 83.5 6.2c30.3 1.8 68 3.7 111.5 5 33.6 1.1 70.7 1.8 110.6 2 34.9.2 71.9 0 110.6-.8 35.5-.7 72.5-1.9 110.6-3.8 36-1.7 73-4 110.6-6.9 32.5-2.5 65.4-5.6 98.7-9.1 113.3-12.2 230.4-30.8 343.7-58.6 79-19.4 156.2-43.2 229.1-72.4 32.3-12.9 63.5-26.7 93.7-41.7zM833 1245c0-34.1-27.6-61.7-61.7-61.7s-61.7 27.6-61.7 61.7 27.6 61.7 61.7 61.7 61.7-27.6 61.7-61.7zm-244.5 0c0-34.1-27.6-61.7-61.7-61.7s-61.7 27.6-61.7 61.7 27.6 61.7 61.7 61.7c34 0 61.7-27.6 61.7-61.7z" id="Layer_11"/>
    <path class="st0" d="M771.3 1183.3c34.1 0 61.7 27.6 61.7 61.7s-27.6 61.7-61.7 61.7-61.7-27.6-61.7-61.7c-.1-34.1 27.6-61.7 61.7-61.7zM465 1245c0 34.1 27.6 61.7 61.7 61.7s61.7-27.6 61.7-61.7-27.6-61.7-61.7-61.7-61.7 27.6-61.7 61.7z" id="Layer_12"/>
    <path class="st0" d="M412 978.9v94.4c-43.6-1.4-81.2-3.2-111.5-5v-89.4H412zm110.6 0H412v94.4c33.6 1.1 70.7 1.8 110.6 2v-96.4zm0 0v96.5c34.9.2 71.9 0 110.6-.8V979H522.6zm110.7 0v95.6c35.5-.7 72.5-1.9 110.6-3.8v-91.9H633.3zm221.3 0H743.9v91.9c36-1.7 73-4 110.6-6.9v-85zm0 0v84.9c32.5-2.5 65.4-5.6 98.7-9.1v-75.8h-98.7zm442.4 0H953.3v75.8c113.3-12.2 230.4-30.8 343.7-58.6v-17.2z" id="Layer_13"/>
    <path class="st0" d="M1297 863v115.9H300.5V863H1053z" id="Layer_14"/>
    <path class="st0" d="M1373 772.7l153.1 151c-72.9 29.2-150.1 53-229.1 72.4V863h-244v-90.4h320zm-830.5 0H347V863h556.2v-90.4H542.5z" id="Layer_15"/>
    <path class="st0" d="M433.9 609l108.6 163.7H407.7L301.4 609z" id="Layer_16"/>
    <g id="STROKES">
        <g id="XMLID_1_">
            <path class="st1" d="M1526.1 923.7c32-12.8 63.2-26.7 93.4-41.7 35-17.4 75.2 11.7 69.6 50.4L1386.8 1405H325l-108.1-342.9s30.5 3 83.5 6.2c30.3 1.8 68 3.7 111.5 5 33.6 1.1 70.7 1.8 110.6 2 34.9.2 71.9 0 110.6-.8 35.5-.7 72.5-1.9 110.6-3.8 36-1.7 73-4 110.6-6.9 32.5-2.5 65.4-5.6 98.7-9.1 113.3-12.2 230.4-30.8 343.7-58.6 79.3-19.4 156.5-43.2 229.4-72.4z"/>
            <path class="st1" d="M588.5 1245c0 34.1-27.6 61.7-61.7 61.7s-61.7-27.6-61.7-61.7 27.6-61.7 61.7-61.7c34 0 61.7 27.6 61.7 61.7z"/>
            <path class="st1" d="M833 1245c0 34.1-27.6 61.7-61.7 61.7s-61.7-27.6-61.7-61.7 27.6-61.7 61.7-61.7 61.7 27.6 61.7 61.7z"/>
            <path class="st1" d="M407.7 772.7L301.4 609h132.5l108.6 163.7"/>
            <path class="st1" d="M346.9 863v-90.3h556.3V863"/>
            <path class="st1" d="M300.5 978.9H1297"/>
            <path class="st1" d="M412 978.9v94.4"/>
            <path class="st1" d="M522.6 978.9v96.2"/>
            <path class="st1" d="M633.3 978.9v95.7"/>
            <path class="st1" d="M854.6 978.9v84.9"/>
            <path class="st1" d="M953.3 978.9v75.8"/>
            <path class="st1" d="M743.9 978.9v91.9"/>
            <path class="st1" d="M1053 863v-90.3h320l153.1 151"/>
            <path class="st1" d="M300.5 1068.3V863H1297v133.1"/>
        </g>
    </g>
</svg>
