<svg xmlns="http://www.w3.org/2000/svg" viewBox="0 0 1920 1920">
    <style>
        .st0{fill:#fff}.st1{fill:none;stroke:#231f20;stroke-width:50;stroke-linecap:round;stroke-linejoin:round;stroke-miterlimit:10}
    </style>
    <path class="st0" d="M1411.7 1074.3l.3.2c-79.2 129.6-174 327.8-174 534.6-37.7 19.4-84.2 33.4-151.8 33.4l-.9-.6c-37.8-25-81.2-37.5-124.6-37.5V923.7c130 127.4 451 150.6 451 150.6zM960.6 923.7c-130 127.5-451 150.6-451 150.6l-.3.2c79.2 129.6 174 327.8 174 534.6 37.7 19.4 84.2 33.4 151.8 33.4 38-25.4 81.8-38.1 125.6-38.1l-.1-680.7z" id="Layer_6"/>
    <path class="st0" d="M1517.9 923.7s-48.9 57.7-105.9 150.8l-.3-.2s-321-23.1-451-150.6V735.3c129.4 129.4 366.6 170.3 485.4 182.9 44 4.7 71.8 5.5 71.8 5.5zM509.6 1074.3s321-23.1 451-150.6h.1V735.3h-.1C830.9 864.9 593 905.7 474.5 918.3c-43.6 4.6-71.1 5.4-71.1 5.4s48.9 57.7 105.9 150.8l.3-.2z" id="Layer_7"/>
    <path class="st0" d="M1308.5 683.2l137.6 234.7v.3c-118.8-12.6-356-53.5-485.4-182.9h-.1C830.9 864.9 593 905.7 474.5 918.3v-.4l137.6-234.7L960 594.5h.6l347.9 88.7z" id="Layer_8"/>
    <path class="st0" d="M1308.5 498.2v185l-347.9-88.7h-.6l-347.9 88.7v-185H1057z" id="Layer_9"/>
    <path class="st0" d="M1057 273v225.2H863.6V273h96.9z" id="Layer_10"/>
    <path class="st0" d="M1561.8 1306.1c14.8 49.6-47 60.5-104 60.5-44.5 0-86.1-6.6-86.2-6.7.1-.1 109.3-210.2 179.6-159.6 32.3 23.3 9.7 53.6-29 81.6 19-1.5 33.8 4.8 39.6 24.2zm-1033.3 29.6s-132.4-166.2-172.6-96.3c-45.9 79.9 172.6 96.3 172.6 96.3z" id="Layer_11"/>
    <g id="STROKES">
        <g id="XMLID_1_">
            <path class="st1" d="M474.4 917.9l137.7-234.7L960 594.5"/>
            <path class="st1" d="M612.1 683.2v-185H960"/>
            <path class="st1" d="M863.6 498.2V273h96.5"/>
            <path class="st1" d="M1446.2 917.9l-137.7-234.7-347.9-88.7"/>
            <path class="st1" d="M1308.5 683.2v-185H960.6"/>
            <path class="st1" d="M1057 498.2V273h-96.9"/>
            <path class="st1" d="M960.6 735.3C830.9 864.9 593 905.7 474.5 918.3c-43.6 4.6-71.1 5.4-71.1 5.4s48.9 57.7 105.9 150.8c79.2 129.6 174 327.8 174 534.6"/>
            <path class="st1" d="M509.6 1074.3s321-23.1 451-150.6"/>
            <path class="st1" d="M380.4 1493.9c56.4-65.1 140.3 4.2 204.2 48.3 32 22.1 60.9 47.3 98.8 66.8 37.7 19.4 84.2 33.4 151.8 33.4 38-25.4 81.8-38.1 125.6-38.1 43.4 0 86.9 12.5 124.6 37.5l.9.6c67.5 0 114.1-13.9 151.8-33.4 37.9-19.6 66.8-44.7 98.8-66.8 63.8-44.1 147.8-113.4 204.2-48.3"/>
            <path class="st1" d="M216.9 1493.9c56.4-65.1 140.3 4.2 204.2 48.3 7.9 5.4 15.5 11.1 23.2 16.7"/>
            <path class="st1" d="M1238 1609c0-206.8 94.8-405 174-534.6 56.9-93.1 105.9-150.8 105.9-150.8s-27.8-.8-71.8-5.5c-118.8-12.6-356-53.5-485.4-182.9"/>
            <path class="st1" d="M1411.7 1074.3s-321-23.1-451-150.6"/>
            <path class="st1" d="M1704.3 1493.9c-56.4-65.1-140.3 4.2-204.2 48.3-7.9 5.4-15.5 11.1-23.2 16.7"/>
            <path class="st1" d="M960.7 735.3v869"/>
            <path class="st1" d="M1551.2 1200.3c-70.3-50.6-179.6 159.5-179.6 159.6 0 0 41.7 6.7 86.2 6.7 57 0 118.8-10.9 104-60.5-5.8-19.4-20.6-25.6-39.6-24.1 38.7-28.1 61.3-58.4 29-81.7z"/>
            <path class="st1" d="M355.9 1239.3c40.2-69.8 172.6 96.3 172.6 96.3s-218.5-16.3-172.6-96.3z"/>
        </g>
    </g>
</svg>
