<svg xmlns="http://www.w3.org/2000/svg" viewBox="0 0 1920 1920">
    <style>
        .st0{fill:#fff}.st1{fill:none;stroke:#231f20;stroke-width:50;stroke-linecap:round;stroke-linejoin:round;stroke-miterlimit:10}
    </style>
    <path class="st0" d="M1178.1 863.8l-68.4-81h308l176.1 189.1h109.3l-221 322.2c-16.5-21-26.4-47.6-26.4-76.4 0 68.3-55.4 123.7-123.7 123.7-68.3 0-123.7-55.4-123.7-123.7 0 68.3-55.4 123.7-123.7 123.7S961 1286 961 1217.7c0 68.3-55.4 123.7-123.7 123.7s-123.7-55.4-123.7-123.7c0 68.3-55.4 123.7-123.7 123.7-68.3 0-123.7-55.4-123.7-123.7 0 67.5-54 122.3-121.1 123.7l-130.6-315.5h966.1v-159l-2.5-3.1zm259.1 83.3c0-46-37.3-83.3-83.3-83.3s-83.3 37.3-83.3 83.3 37.3 83.3 83.3 83.3 83.3-37.3 83.3-83.3z" id="Layer_2"/>
    <path class="st0" d="M1109.6 782.8l68.4 81H415.5v-81h694.1zm68.5 81H355.5v81h825.1v-78l-2.5-3zm-822.6 81h-63v81h888.1v-81H355.5z" id="Layer_3"/>
    <path class="st0" d="M766.2 589.3L901 782.8H678.5L543.8 589.3z" id="Layer_4"/>
    <path class="st0" d="M1353.9 863.8c46 0 83.3 37.3 83.3 83.3s-37.3 83.3-83.3 83.3-83.3-37.3-83.3-83.3 37.3-83.3 83.3-83.3z" id="Layer_5"/>
    <g id="STROKES">
        <g id="XMLID_1_">
            <path class="st1" d="M1180.6 782.8h237.1l176 189.1h109.4l-221 322.2"/>
            <path class="st1" d="M345.1 1341.4v-.1l-130.6-315.5h966.1v-159l-2.5-3-68.5-81"/>
            <path class="st1" d="M466.2 1217.7c0 67.5-54 122.3-121.1 123.7h-2.6c-68.3 0-123.7-55.4-123.7-123.7"/>
            <path class="st1" d="M292.5 1025.8v-81h888.1"/>
            <path class="st1" d="M355.5 944.8v-81h825.1"/>
            <path class="st1" d="M415.5 863.8v-81h765.1"/>
            <path class="st1" d="M678.5 782.8L543.8 589.3h222.4L901 782.8"/>
            <path class="st1" d="M1437.2 947.1c0 46-37.3 83.3-83.3 83.3s-83.3-37.3-83.3-83.3 37.3-83.3 83.3-83.3 83.3 37.3 83.3 83.3z"/>
            <path class="st1" d="M713.6 1217.7c0 68.3-55.4 123.7-123.7 123.7-68.3 0-123.7-55.4-123.7-123.7"/>
            <path class="st1" d="M961 1217.7c0 68.3-55.4 123.7-123.7 123.7s-123.7-55.4-123.7-123.7"/>
            <path class="st1" d="M1208.3 1217.7c0 68.3-55.4 123.7-123.7 123.7S961 1286 961 1217.7"/>
            <path class="st1" d="M1455.7 1217.7c0 68.3-55.4 123.7-123.7 123.7-68.3 0-123.7-55.4-123.7-123.7"/>
            <path class="st1" d="M1703.1 1217.7c0 68.3-55.4 123.7-123.7 123.7-39.5 0-74.6-18.5-97.3-47.3-16.5-21-26.4-47.6-26.4-76.4"/>
        </g>
    </g>
</svg>
