<svg xmlns="http://www.w3.org/2000/svg" viewBox="0 0 1920 1920">
    <style>
        .st0{fill:#fff}.st1{fill:none;stroke:#231f20;stroke-width:50;stroke-linecap:round;stroke-linejoin:round;stroke-miterlimit:10}
    </style>
    <path class="st0" d="M1245.5 1257v67.9c0 207.9-170.1 378.1-378.1 378.1H608.7c-208 0-378.1-170.1-378.1-378.1V1257h1014.9zm0-963.3c0-42.2-34.6-76.8-76.8-76.8H307.4c-42.2 0-76.8 34.5-76.8 76.8V663h1014.9V293.7z" id="Layer_3"/>
    <path class="st0" d="M1245.5 1051.7V1257H230.6V663h1014.9z" id="Layer_4"/>
    <g id="STROKES">
        <path class="st1" d="M1245.5 1257v67.9c0 207.9-170.1 378.1-378.1 378.1H608.7c-208 0-378.1-170.1-378.1-378.1V293.7c0-42.2 34.5-76.8 76.8-76.8h861.4c42.2 0 76.8 34.5 76.8 76.8V1257z"/>
        <path class="st1" d="M1245.5 454.5s443.9-138.8 443.9 308.4-443.9 288.7-443.9 288.7"/>
        <path class="st1" d="M230.6 663h1014.9"/>
        <path class="st1" d="M230.6 1257h1014.9"/>
    </g>
</svg>
