<svg xmlns="http://www.w3.org/2000/svg" viewBox="0 0 1920 1920">
    <style>
        .st0{fill:#fff}.st1{fill:none;stroke:#231f20;stroke-width:50;stroke-linecap:round;stroke-linejoin:round;stroke-miterlimit:10}
    </style>
    <path class="st0" d="M1397.6 1262.5l-47.3 440.6H569.7l-47.3-440.6h875.2zM505.1 1101l17.3 161.5h875.2l17.3-161.5H505.1zm-17.4-161.5L505 1101h909.8l17.3-161.5H487.7zM470.4 778l17.3 161.5h944.5l17.3-161.5H470.4zm-17.3-161.5L470.4 778h979.2l17.3-161.5H453.1zm-42.9-399.6l42.9 399.6H1467l42.9-399.6H410.2z" id="Layer_2"/>
    <g id="STROKES">
        <path class="st1" d="M340.4 216.9h1239.2"/>
        <path class="st1" d="M410.2 216.9l42.9 399.6L470.4 778l17.3 161.5 17.4 161.5 17.3 161.5 47.3 440.6h344.7"/>
        <path class="st1" d="M1509.8 216.9l-42.9 399.6-17.3 161.5-17.3 161.5-17.4 161.5-17.3 161.5-47.3 440.6H914.4"/>
        <path class="st1" d="M453.1 616.5h1013.8"/>
        <path class="st1" d="M470.4 778h979.2"/>
        <path class="st1" d="M487.7 939.5h944.6"/>
        <path class="st1" d="M505.1 1101h909.8"/>
        <path class="st1" d="M522.4 1262.5h875.2"/>
    </g>
</svg>
