<svg xmlns="http://www.w3.org/2000/svg" viewBox="0 0 1920 1920">
    <style>
        .st0{fill:#fff}.st1{fill:none;stroke:#231f20;stroke-width:50;stroke-linecap:round;stroke-linejoin:round;stroke-miterlimit:10}
    </style>
    <path class="st0" d="M811.4 874.2c-11.4-14-22.6-28-33.7-41.9-61.7-77.5-117.5-151.6-152.5-207.1-7.9-5-15.4-9.6-22.6-13.7-96.3-55.6-178.5-62.4-234.1-56.7-46.2 4.7-74.2 53.1-55.2 95.6 22.9 51 69.9 118.8 166.2 174.4 7.1 4.1 14.9 8.3 23.1 12.7 65.5 2.6 157.6 13.8 255.6 28.5 17.6 2.6 35.4 5.4 53.2 8.2zm62.8-62.8c-2.8-17.8-5.6-35.6-8.2-53.1-14.7-97.9-26-190-28.5-255.5-4.4-8.3-8.6-16-12.7-23.1-55.6-96.3-123.4-143.3-174.4-166.2-42.4-19-90.8 8.9-95.5 55.2-5.7 55.6 1.1 137.8 56.7 234.1 4.1 7.1 8.7 14.6 13.7 22.6 55.5 35 129.6 90.8 207.1 152.5 13.8 10.9 27.8 22.1 41.8 33.5zm85.8-23c6.5-16.9 13-33.6 19.5-50.1 36.2-92.2 72.5-177.6 103.1-235.6.4-9.4.6-18.2.6-26.4 0-111.2-35.2-185.8-67.9-231.1-27.2-37.7-83.1-37.7-110.3 0-32.7 45.3-67.9 119.9-67.9 231.1 0 8.2.2 17 .6 26.4 30.5 58 66.8 143.4 103.1 235.6 6.2 16.5 12.7 33.3 19.2 50.1zM788.4 960c-16.9-6.5-33.6-13-50.1-19.5-92.2-36.2-177.5-72.5-235.6-103.1-9.4-.4-18.2-.6-26.4-.6-111.2 0-185.8 35.2-231.1 67.9-37.7 27.2-37.7 83.1 0 110.3 45.3 32.7 119.9 67.9 231.1 67.9 8.2 0 17-.2 26.4-.6 58-30.5 143.4-66.8 235.6-103.1 16.5-6.2 33.3-12.7 50.1-19.2zM1054 758.3c-2.6 17.5-5.4 35.3-8.2 53.1 14-11.4 28-22.6 41.9-33.7 77.5-61.7 151.6-117.5 207.1-152.5 5-7.9 9.6-15.5 13.7-22.6 55.6-96.3 62.4-178.5 56.7-234.1-4.7-46.2-53.1-74.2-95.5-55.2-51 22.9-118.8 69.9-174.4 166.2-4.1 7.1-8.4 14.9-12.7 23.1-2.6 65.6-13.9 157.7-28.6 255.7zm88.3 74c-11.1 13.9-22.3 27.9-33.7 41.9 17.8-2.8 35.6-5.6 53.1-8.2 98-14.7 190-26 255.6-28.5 8.3-4.4 16-8.6 23.1-12.7 96.3-55.6 143.3-123.4 166.2-174.4 19-42.4-8.9-90.8-55.2-95.6-55.6-5.7-137.8 1.1-234.1 56.7-7.1 4.1-14.6 8.7-22.6 13.7-34.9 55.5-90.7 129.6-152.4 207.1zm532.5 72.5c-45.3-32.7-119.9-67.9-231.1-67.9-8.2 0-17 .2-26.4.6-58 30.5-143.4 66.8-235.6 103.1-16.5 6.5-33.3 13-50.1 19.5 16.9 6.5 33.6 13 50.1 19.5 92.2 36.2 177.6 72.5 235.6 103.1 9.4.4 18.2.6 26.4.6 111.2 0 185.8-35.2 231.1-67.9 37.7-27.4 37.7-83.4 0-110.6zm-587.1 237.5c-13.9-11.1-27.9-22.3-41.9-33.7 2.8 17.8 5.6 35.6 8.2 53.1 14.7 97.9 26 190 28.5 255.6 4.4 8.3 8.6 16 12.7 23.1 55.6 96.3 123.4 143.3 174.4 166.2 42.4 19 90.8-8.9 95.5-55.2 5.7-55.6-1.1-137.8-56.7-234.1-4.1-7.1-8.7-14.6-13.7-22.6-55.4-34.9-129.5-90.7-207-152.4zm74-88.3c-17.5-2.6-35.3-5.4-53.1-8.2 11.4 14 22.6 28 33.7 41.9 61.7 77.5 117.5 151.6 152.5 207.1 7.9 5 15.4 9.6 22.6 13.7 96.3 55.6 178.5 62.4 234.1 56.7 46.2-4.7 74.2-53.1 55.2-95.5-22.9-51-69.9-118.8-166.2-174.4-7.1-4.1-14.9-8.3-23.1-12.7-65.6-2.7-157.7-13.9-255.7-28.6zM960 1131.6c-6.5 16.8-13 33.6-19.5 50.1-36.2 92.2-72.5 177.6-103.1 235.6-.4 9.4-.6 18.2-.6 26.4 0 111.2 35.2 185.8 67.9 231.1 27.2 37.7 83.1 37.7 110.3 0 32.7-45.3 67.9-119.9 67.9-231.1 0-8.2-.2-17-.6-26.4-30.5-58-66.8-143.4-103.1-235.6-6.2-16.5-12.7-33.3-19.2-50.1zm-85.8-23c-14 11.3-28 22.6-41.9 33.7-77.5 61.7-151.6 117.5-207.1 152.5-5 7.9-9.6 15.4-13.7 22.6-55.6 96.3-62.4 178.5-56.7 234.1 4.7 46.2 53.1 74.2 95.5 55.2 51-22.9 118.8-69.9 174.4-166.2 4.1-7.1 8.4-14.8 12.7-23.1 2.6-65.5 13.8-157.6 28.5-255.6 2.7-17.6 5.5-35.4 8.3-53.2zm-62.8-62.8c-17.8 2.8-35.6 5.6-53.1 8.2-98 14.7-190 25.9-255.6 28.5-8.3 4.4-16 8.6-23.1 12.7-96.3 55.6-143.3 123.4-166.2 174.4-19 42.4 8.9 90.8 55.2 95.5 55.6 5.7 137.8-1.1 234.1-56.7 7.1-4.1 14.6-8.7 22.6-13.7 35-55.4 90.8-129.6 152.5-207.1 11-13.8 22.2-27.8 33.6-41.8z" id="Layer_8"/>
    <path class="st0" d="M866 758.3c2.6 17.5 5.4 35.3 8.2 53.1 25.2-14.6 54.5-23 85.8-23-6.5-16.9-13-33.6-19.5-50.1-36.2-92.2-72.5-177.6-103.1-235.6 2.6 65.5 13.9 157.6 28.6 255.6zm-88.3 74c11.1 13.9 22.3 27.9 33.7 41.9 15.1-26 36.8-47.7 62.8-62.8-14-11.4-28-22.6-41.9-33.7-77.5-61.7-151.6-117.5-207.1-152.5 35 55.5 90.8 129.6 152.5 207.1zM758.3 866c-98-14.7-190-26-255.6-28.5 58 30.5 143.4 66.8 235.6 103.1 16.5 6.5 33.3 13 50.1 19.5 0-31.2 8.4-60.6 23-85.8-17.8-2.9-35.6-5.7-53.1-8.3zm350.3 8.2c11.4-14 22.6-28 33.7-41.9 61.7-77.5 117.5-151.6 152.5-207.1-55.5 35-129.6 90.8-207.1 152.5-13.9 11.1-27.9 22.3-41.9 33.7 26 15.1 47.7 36.8 62.8 62.8zm-605.9 208.3c65.5-2.6 157.6-13.8 255.6-28.5 17.5-2.6 35.3-5.4 53.1-8.2-14.6-25.2-23-54.5-23-85.8-16.9 6.5-33.6 13-50.1 19.5-92.2 36.2-177.5 72.5-235.6 103zM1054 758.3c14.7-98 26-190 28.5-255.6-30.5 58-66.8 143.4-103.1 235.6-6.5 16.5-13 33.3-19.5 50.1 31.2 0 60.6 8.3 85.8 23 2.9-17.8 5.7-35.6 8.3-53.1zm77.6 201.7c0 31.2-8.4 60.6-23 85.8 17.8 2.8 35.6 5.6 53.1 8.2 97.9 14.7 190 25.9 255.5 28.5-58-30.5-143.4-66.8-235.6-103.1-16.4-6.4-33.2-12.9-50-19.4zm285.7-122.5c-65.5 2.6-157.6 13.8-255.6 28.5-17.5 2.6-35.3 5.4-53.1 8.2 14.6 25.2 23 54.5 23 85.8 16.9-6.5 33.6-13 50.1-19.5 92.2-36.2 177.5-72.5 235.6-103zm-308.7 208.3c-15.1 26-36.8 47.7-62.8 62.8 14 11.4 28 22.6 41.9 33.7 77.5 61.7 151.6 117.5 207.1 152.5-35-55.4-90.8-129.6-152.5-207.1-11.1-13.9-22.3-27.9-33.7-41.9zm-297.2 0c-11.4 14-22.6 28-33.7 41.9-61.7 77.5-117.5 151.6-152.5 207.1 55.5-35 129.6-90.8 207.1-152.5 13.9-11.1 27.9-22.3 41.9-33.7-26-15.1-47.7-36.8-62.8-62.8zm234.4 62.8c-25.2 14.6-54.5 23-85.8 23 6.5 16.8 13 33.6 19.5 50.1 36.2 92.2 72.5 177.6 103.1 235.6-2.6-65.5-13.8-157.6-28.5-255.6-2.7-17.5-5.5-35.3-8.3-53.1zM866 1161.7c-14.7 97.9-26 190-28.5 255.6 30.5-58 66.8-143.4 103.1-235.6 6.5-16.5 13-33.3 19.5-50.1-31.2 0-60.6-8.4-85.8-23-2.9 17.8-5.7 35.6-8.3 53.1z" id="Layer_9"/>
    <path class="st0" d="M1131.6 960c0-31.2-8.4-60.6-23-85.8-15.1-26-36.8-47.7-62.8-62.8-25.2-14.6-54.5-23-85.8-23s-60.6 8.3-85.8 23c-26 15.1-47.7 36.8-62.8 62.8-14.6 25.2-23 54.5-23 85.8s8.4 60.6 23 85.8c15.1 26 36.8 47.7 62.8 62.8 25.2 14.6 54.5 23 85.8 23s60.6-8.4 85.8-23c26-15.1 47.7-36.8 62.8-62.8 14.6-25.2 23-54.6 23-85.8z" id="Layer_10"/>
    <g id="STROKES">
        <path class="st1" d="M874.2 811.4c-14-11.4-28-22.6-41.9-33.7-77.5-61.7-151.6-117.5-207.1-152.5-5-7.9-9.6-15.5-13.7-22.6-55.6-96.3-62.4-178.5-56.7-234.1 4.7-46.2 53.1-74.2 95.5-55.2 51 22.9 118.8 69.9 174.4 166.2 4.1 7.1 8.4 14.9 12.7 23.1 2.6 65.5 13.8 157.6 28.5 255.5 2.7 17.7 5.5 35.5 8.3 53.3z"/>
        <path class="st1" d="M1087.7 1142.3c-13.9-11.1-27.9-22.3-41.9-33.7 26-15.1 47.7-36.8 62.8-62.8 11.4 14 22.6 28 33.7 41.9 61.7 77.5 117.5 151.6 152.5 207.1-55.5-35-129.6-90.8-207.1-152.5z"/>
        <path class="st1" d="M1365.2 1551.4c-4.7 46.2-53.1 74.2-95.5 55.2-51-22.9-118.8-69.9-174.4-166.2-4.1-7.1-8.4-14.8-12.7-23.1-2.6-65.5-13.8-157.6-28.5-255.6-2.6-17.6-5.4-35.3-8.2-53.1 14 11.4 28 22.6 41.9 33.7 77.5 61.7 151.6 117.5 207.1 152.5 5 7.9 9.6 15.4 13.7 22.6 55.4 96.2 62.3 178.4 56.6 234z"/>
        <path class="st1" d="M811.4 874.2c-17.8-2.8-35.6-5.6-53.1-8.2-98-14.7-190-26-255.6-28.5-8.3-4.4-16-8.6-23.1-12.7-96.3-55.6-143.3-123.4-166.2-174.4-19-42.4 8.9-90.8 55.2-95.6 55.6-5.7 137.8 1.1 234.1 56.7 7.1 4.1 14.6 8.7 22.6 13.7 35 55.5 90.8 129.6 152.5 207.1 11 13.9 22.2 27.9 33.6 41.9z"/>
        <path class="st1" d="M874.2 811.4c-26 15.1-47.7 36.8-62.8 62.8-11.4-14-22.6-28-33.7-41.9-61.7-77.5-117.5-151.6-152.5-207.1 55.5 35 129.6 90.8 207.1 152.5 13.9 11.1 27.9 22.3 41.9 33.7z"/>
        <path class="st1" d="M1551.5 1365.2c-55.6 5.7-137.8-1.1-234.1-56.7-7.1-4.1-14.6-8.7-22.6-13.7-35-55.4-90.8-129.6-152.5-207.1-11.1-13.9-22.3-27.9-33.7-41.9 17.8 2.8 35.6 5.6 53.1 8.2 97.9 14.7 190 25.9 255.5 28.5 8.3 4.4 16 8.6 23.1 12.7 96.3 55.6 143.3 123.4 166.2 174.4 19.1 42.4-8.8 90.8-55 95.6z"/>
        <path class="st1" d="M788.4 960c-16.9 6.5-33.6 13-50.1 19.5-92.2 36.2-177.6 72.5-235.6 103.1-9.4.4-18.2.6-26.4.6-111.2 0-185.8-35.2-231.1-67.9-37.7-27.2-37.7-83.1 0-110.3 45.3-32.7 119.9-67.9 231.1-67.9 8.2 0 17 .2 26.4.6 58 30.5 143.4 66.8 235.6 103.1 16.5 6.2 33.3 12.7 50.1 19.2z"/>
        <path class="st1" d="M811.4 874.2c-14.6 25.2-23 54.5-23 85.8-16.9-6.5-33.6-13-50.1-19.5-92.2-36.2-177.5-72.5-235.6-103.1 65.5 2.6 157.6 13.8 255.6 28.5 17.5 2.7 35.3 5.5 53.1 8.3z"/>
        <path class="st1" d="M1674.8 1015.2c-45.3 32.7-119.9 67.9-231.1 67.9-8.2 0-17-.2-26.4-.6-58-30.5-143.4-66.8-235.6-103.1-16.5-6.5-33.3-13-50.1-19.5 16.9-6.5 33.6-13 50.1-19.5 92.2-36.2 177.6-72.5 235.6-103.1 9.4-.4 18.2-.6 26.4-.6 111.2 0 185.8 35.2 231.1 67.9 37.7 27.4 37.7 83.4 0 110.6z"/>
        <path class="st1" d="M1417.3 1082.5c-65.5-2.6-157.6-13.8-255.5-28.5-17.5-2.6-35.3-5.4-53.1-8.2 14.6-25.2 23-54.5 23-85.8 16.9 6.5 33.6 13 50.1 19.5 92.1 36.2 177.4 72.5 235.5 103z"/>
        <path class="st1" d="M811.4 1045.8c-11.4 14-22.6 28-33.7 41.9-61.7 77.5-117.5 151.6-152.5 207.1-7.9 5-15.4 9.6-22.6 13.7-96.3 55.6-178.5 62.4-234.1 56.7-46.2-4.7-74.2-53.1-55.2-95.5 22.9-51 69.9-118.8 166.2-174.4 7.1-4.1 14.9-8.3 23.1-12.7 65.5-2.6 157.6-13.8 255.6-28.5 17.6-2.7 35.4-5.5 53.2-8.3z"/>
        <path class="st1" d="M811.4 1045.8c-17.8 2.8-35.6 5.6-53.1 8.2-98 14.7-190 25.9-255.6 28.5 58-30.5 143.4-66.8 235.6-103.1 16.5-6.5 33.3-13 50.1-19.5 0 31.3 8.4 60.7 23 85.9z"/>
        <path class="st1" d="M1606.6 650.4c-22.9 51-69.9 118.8-166.2 174.4-7.1 4.1-14.9 8.3-23.1 12.7-65.5 2.6-157.6 13.8-255.6 28.5-17.5 2.6-35.3 5.4-53.1 8.2 11.4-14 22.6-28 33.7-41.9 61.7-77.5 117.5-151.6 152.5-207.1 7.9-5 15.4-9.6 22.6-13.7 96.3-55.6 178.5-62.4 234.1-56.7 46.2 4.8 74.1 53.2 55.1 95.6z"/>
        <path class="st1" d="M1417.3 837.5c-58 30.5-143.4 66.8-235.6 103.1-16.5 6.5-33.3 13-50.1 19.5 0-31.2-8.4-60.6-23-85.8 17.8-2.8 35.6-5.6 53.1-8.2 98-14.8 190.1-26.1 255.6-28.6z"/>
        <path class="st1" d="M874.2 1108.6c-2.8 17.8-5.6 35.6-8.2 53.1-14.7 97.9-26 190-28.5 255.6-4.4 8.3-8.6 16-12.7 23.1-55.6 96.3-123.4 143.3-174.4 166.2-42.4 19-90.8-8.9-95.5-55.2-5.7-55.6 1.1-137.8 56.7-234.1 4.1-7.1 8.7-14.6 13.7-22.6 55.5-35 129.6-90.8 207.1-152.5 13.8-11 27.8-22.2 41.8-33.6z"/>
        <path class="st1" d="M1308.4 602.7c-4.1 7.1-8.7 14.6-13.7 22.6-55.5 35-129.6 90.8-207.1 152.5-13.9 11.1-27.9 22.3-41.9 33.7 2.8-17.8 5.6-35.6 8.2-53.1 14.7-97.9 26-190 28.5-255.5 4.4-8.3 8.6-16 12.7-23.1 55.6-96.3 123.4-143.3 174.4-166.2 42.4-19 90.8 8.9 95.5 55.2 5.9 55.4-1 137.5-56.6 233.9z"/>
        <path class="st1" d="M874.2 1108.6c-14 11.4-28 22.6-41.9 33.7-77.5 61.7-151.6 117.5-207.1 152.5 35-55.4 90.8-129.6 152.5-207.1 11.1-13.9 22.3-27.9 33.7-41.9 15.1 26 36.8 47.7 62.8 62.8z"/>
        <path class="st1" d="M1294.8 625.2c-35 55.5-90.8 129.6-152.5 207.1-11.1 13.9-22.3 27.9-33.7 41.9-15.1-26-36.8-47.7-62.8-62.8 14-11.4 28-22.6 41.9-33.7 77.5-61.7 151.6-117.5 207.1-152.5z"/>
        <path class="st1" d="M1083.1 476.3c0 8.2-.2 17-.6 26.4-30.5 58-66.8 143.4-103.1 235.6-6.5 16.5-13 33.3-19.5 50.1-6.5-16.9-13-33.6-19.5-50.1-36.2-92.2-72.5-177.6-103.1-235.6-.4-9.4-.6-18.2-.6-26.4 0-111.2 35.2-185.8 67.9-231.1 27.2-37.7 83.1-37.7 110.3 0 33 45.3 68.2 119.9 68.2 231.1z"/>
        <path class="st1" d="M960 788.4c-31.2 0-60.6 8.3-85.8 23-2.8-17.8-5.6-35.6-8.2-53.1-14.7-97.9-26-190-28.5-255.5 30.5 58 66.8 143.4 103.1 235.6 6.4 16.4 12.9 33.2 19.4 50z"/>
        <path class="st1" d="M1082.5 502.7c-2.6 65.5-13.8 157.6-28.5 255.5-2.6 17.5-5.4 35.3-8.2 53.1-25.2-14.6-54.5-23-85.8-23 6.5-16.9 13-33.6 19.5-50.1 36.2-92.1 72.5-177.4 103-235.5z"/>
        <path class="st1" d="M1083.1 1443.7c0 111.2-35.2 185.8-67.9 231.1-27.2 37.7-83.1 37.7-110.3 0-32.7-45.3-67.9-119.9-67.9-231.1 0-8.2.2-17 .6-26.4 30.5-58 66.8-143.4 103.1-235.6 6.5-16.5 13-33.3 19.5-50.1 6.5 16.8 13 33.6 19.5 50.1 36.2 92.2 72.5 177.6 103.1 235.6.1 9.3.3 18.2.3 26.4z"/>
        <path class="st1" d="M960 1131.6c-6.5 16.8-13 33.6-19.5 50.1-36.2 92.2-72.5 177.6-103.1 235.6 2.6-65.5 13.8-157.6 28.5-255.6 2.6-17.6 5.4-35.3 8.2-53.1 25.3 14.6 54.7 23 85.9 23z"/>
        <path class="st1" d="M1082.5 1417.3c-30.5-58-66.8-143.4-103.1-235.6-6.5-16.5-13-33.3-19.5-50.1 31.2 0 60.6-8.4 85.8-23 2.8 17.8 5.6 35.6 8.2 53.1 14.8 98 26.1 190.1 28.6 255.6z"/>
        <path class="st1" d="M1108.6 1045.8c-15.1 26-36.8 47.8-62.8 62.8-25.2 14.6-54.5 23-85.8 23s-60.6-8.4-85.8-23c-26-15.1-47.7-36.8-62.8-62.8-14.6-25.2-23-54.5-23-85.8s8.4-60.6 23-85.8c15.1-26 36.8-47.7 62.8-62.8 25.2-14.6 54.5-23 85.8-23s60.6 8.3 85.8 23c26 15.1 47.7 36.8 62.8 62.8 14.6 25.2 23 54.5 23 85.8s-8.4 60.6-23 85.8z"/>
    </g>
</svg>
