<svg xmlns="http://www.w3.org/2000/svg" viewBox="0 0 1920 1920">
    <style>
        .st0{fill:#fff}.st1{fill:none;stroke:#231f20;stroke-width:50;stroke-linecap:round;stroke-linejoin:round;stroke-miterlimit:10}
    </style>
    <path class="st0" d="M1703 645s-55.3-44.2-333.1 116.5c0 0-3.8 2.5-10.8 7.1 7.1-6.4 11-9.9 11-9.9 225.1-228.8 196.1-293.4 196.1-293.4s-65.1-28-290.1 200.8c0 0-6.9 7.8-18.7 21.6 9.8-14.7 15.4-23.2 15.4-23.2 160.2-278.1 115.9-333.3 115.9-333.3s-70-10.7-230.2 267.4l-5.1 10.2c2.2-6.7 3.4-10.3 3.4-10.3 80.6-310.7 23.1-352.1 23.1-352.1s-70.3 8.3-150.9 318.9c0 0-1.8 9-4.8 24.9 1.1-17.1 1.7-26.9 1.7-26.9-.3-320.9-66.3-346.6-66.3-346.6s-66 25.7-65.7 346.7c0 0 .4 6.7 1.2 18.7-2.1-10.1-3.3-15.6-3.3-15.6-85.6-309.3-156-316.5-156-316.5s-56.7 42.4 28.8 351.7c0 0 1.4 4.3 4.1 12-4.7-9.5-7.3-14.7-7.3-14.7-160.6-277.8-230.6-267-230.6-267s-44.2 55.3 116.4 333.1c0 0 6.7 10.3 18.5 27.8-12.2-13.8-19.4-21.6-19.4-21.6C417.6 446.1 353 475.1 353 475.1S325.2 539.7 551.5 763c-.8-.5-1.2-.8-1.2-.8C272.2 601.9 217 646.3 217 646.3s-10.7 70 267.4 230.2c0 0 141.5 71.3 286.6 130.1-44.9-36.1-79.3-84.9-97.7-140.9-2.6-7.9-4.9-16-6.9-24.2-5.4-22.5-8.2-46-8.2-70.2 23 0 45.4 2.6 66.9 7.5 6.5 1.5 12.9 3.1 19.2 5 41.9 12.4 79.9 33.7 112 61.7 5.2 4.5 10.3 9.3 15.2 14.2 0-7.2.2-14.5.7-21.7 2.7-41.5 14-82.6 33.9-120.4 3.6-6.8 7.4-13.4 11.5-19.9 11.8-18.9 26-36.7 42.4-53.1 17.5 17.5 32.3 36.5 44.6 56.7 3.3 5.4 6.4 10.9 9.3 16.5 19.9 37.9 31.1 79.1 33.8 120.7.4 6.5.6 13 .6 19.4v1.7c7.1-7.1 14.5-13.8 22.3-20.2 31.1-25.4 67.3-44.8 106.9-56.3 5.7-1.6 11.4-3.1 17.2-4.4 21.5-4.9 43.9-7.5 67-7.5 0 24-2.8 47.4-8.1 69.9-2 8.3-4.3 16.5-7 24.6-14.9 45.3-40.3 85.9-73.3 118.9-7.7 7.7-15.7 14.9-24.1 21.7 145.2-59 286.8-130.7 286.8-130.7C1713.8 715 1703 645 1703 645z" id="Layer_6"/>
    <path class="st0" d="M1194.8 778.8c-5.8 1.3-11.5 2.8-17.2 4.4-39.6 11.5-75.9 30.9-106.9 56.3-7.8 6.4-15.2 13.1-22.3 20.2V858c0-6.5-.2-13-.6-19.4-2.7-41.6-13.9-82.8-33.8-120.7-2.9-5.6-6-11.1-9.3-16.5-12.3-20.2-27.2-39.3-44.6-56.7a304.115 304.115 0 0 0-53.9 73c-19.8 37.8-31.1 78.8-33.9 120.4-.5 7.2-.7 14.5-.7 21.7-4.9-4.9-10-9.7-15.2-14.2-32.1-28-70.1-49.3-112-61.7-6.3-1.9-12.7-3.6-19.2-5-21.5-4.9-43.9-7.5-66.9-7.5 0 24.1 2.8 47.6 8.2 70.2 1.9 8.2 4.2 16.3 6.9 24.2 18.4 56 52.8 104.8 97.7 140.9 51.7 41.6 117.4 66.5 189 66.5s137.4-25 189.2-66.7c8.4-6.8 16.5-14 24.1-21.7 33-33 58.4-73.6 73.3-118.9 2.7-8 5-16.2 7-24.6 5.3-22.4 8.1-45.8 8.1-69.9-23.1 0-45.5 2.5-67 7.4z" id="Layer_7"/>
    <g id="STROKES">
        <path class="st1" d="M1436 875.7s-141.6 71.7-286.8 130.7c8.4-6.8 16.5-14 24.2-21.7 33-33 58.4-73.6 73.3-118.9 2.7-8 5-16.2 7-24.6 48.2-34.2 87.5-60.6 105.6-72.6 6.9-4.6 10.8-7.1 10.8-7.1C1647.7 600.8 1703 645 1703 645s10.8 70-267 230.7z"/>
        <path class="st1" d="M1370.2 758.7s-3.9 3.5-11 9.9c-18.1 12-57.3 38.5-105.6 72.6 5.3-22.4 8.1-45.8 8.1-69.9-23 0-45.4 2.6-67 7.5-5.8 1.3-11.5 2.8-17.2 4.5 33.3-40.9 62.2-74.9 79.9-95.6 11.8-13.8 18.7-21.6 18.7-21.6 225.1-228.8 290.1-200.8 290.1-200.8s29.1 64.6-196 293.4z"/>
        <path class="st1" d="M1156.8 598.5s-1.2 3.6-3.4 10.3c-15.1 30.4-61.3 125.1-105.7 229.8-2.7-41.6-13.9-82.8-33.8-120.7-2.9-5.6-6-11.1-9.3-16.5 7.8-47.7 15.1-87.3 19.6-111.2 3-15.8 4.8-24.9 4.8-24.9 80.6-310.7 150.9-319 150.9-319s57.4 41.5-23.1 352.2z"/>
        <path class="st1" d="M1025.9 563.3s-.5 9.8-1.7 26.9c-4.5 23.9-11.8 63.5-19.6 111.2-12.3-20.2-27.2-39.3-44.6-56.7-16.4 16.4-30.5 34.2-42.4 53.1-9.5-52.3-18-94.2-22.5-115.7-.8-12-1.2-18.7-1.2-18.7-.3-320.9 65.7-346.7 65.7-346.7s66 25.6 66.3 346.6z"/>
        <path class="st1" d="M872.3 838c-.5 7.2-.7 14.5-.7 21.7-4.9-4.9-10-9.7-15.2-14.2-32.1-28-70.1-49.3-112-61.7-32.7-38.9-61-71.1-78.6-91-11.8-17.5-18.5-27.8-18.5-27.8-160.8-277.7-116.5-333-116.5-333s70-10.8 230.7 267c0 0 2.6 5.2 7.3 14.7 17 34.4 61.1 124.8 103.5 224.3z"/>
        <path class="st1" d="M960 1073.1c-71.5 0-137.3-24.9-189-66.5-44.9-36.1-79.3-84.9-97.7-140.9-2.6-7.9-4.9-16-6.9-24.2-5.4-22.5-8.2-46-8.2-70.2 23 0 45.4 2.6 66.9 7.5 6.5 1.5 12.9 3.1 19.2 5 41.9 12.4 79.9 33.7 112 61.7 5.2 4.6 10.3 9.3 15.2 14.2 0-7.2.2-14.5.7-21.7 2.7-41.5 14-82.6 33.9-120.4 3.6-6.8 7.4-13.4 11.5-19.9 11.8-18.8 26-36.7 42.4-53.1 17.5 17.5 32.3 36.5 44.6 56.7 3.3 5.4 6.4 10.9 9.3 16.5 19.9 37.9 31.1 79.1 33.8 120.7.4 6.5.6 13 .6 19.4v1.7c7.1-7.1 14.5-13.8 22.3-20.2 31.1-25.4 67.3-44.8 106.9-56.3 5.7-1.7 11.4-3.1 17.2-4.5 21.5-4.9 43.9-7.5 67-7.5 0 24.1-2.8 47.4-8.1 69.9-2 8.3-4.3 16.5-7 24.6-14.9 45.3-40.3 85.9-73.3 118.9-7.7 7.7-15.7 14.9-24.2 21.7-51.7 41.9-117.5 66.9-189.1 66.9"/>
        <path class="st1" d="M771 1006.6c-145.2-58.8-286.6-130.1-286.6-130.1C206.3 716.3 217 646.3 217 646.3s55.2-44.3 333.3 115.9c0 0 .4.3 1.2.8 8 5.3 54.4 35.8 114.9 78.6 2 8.2 4.2 16.3 6.9 24.2 18.4 55.9 52.8 104.7 97.7 140.8z"/>
        <path class="st1" d="M1272.8 664.5s-5.5 8.5-15.4 23.2c-17.7 20.6-46.5 54.6-79.9 95.6-39.6 11.5-75.9 30.9-106.9 56.3-7.8 6.4-15.2 13.1-22.3 20.2v-1.7c0-6.5-.2-13-.6-19.4 44.4-104.7 90.6-199.4 105.7-229.8l5.1-10.2c160.2-278.1 230.2-267.4 230.2-267.4s44.3 55.2-115.9 333.2z"/>
        <path class="st1" d="M917.6 697.8c-4.1 6.5-7.9 13.2-11.5 19.9-19.8 37.8-31.1 78.8-33.9 120.4-42.4-99.6-86.5-190-103.5-224.4-2.7-7.8-4.1-12-4.1-12C679.1 292.3 735.8 250 735.8 250s70.4 7.2 156 316.5c0 0 1.2 5.6 3.3 15.6 4.5 21.5 13 63.4 22.5 115.7z"/>
        <path class="st1" d="M725.2 778.8c-21.5-4.9-43.9-7.5-66.9-7.5 0 24.2 2.8 47.6 8.2 70.2-60.6-42.7-107-73.3-114.9-78.6C325.2 539.7 353 475.1 353 475.1s64.6-29 293.4 196.1c0 0 7.1 7.9 19.4 21.6 17.6 19.9 45.9 52.1 78.6 91-6.4-1.8-12.8-3.5-19.2-5z"/>
        <path class="st1" d="M960 1073.1V1703"/>
    </g>
</svg>
