<svg xmlns="http://www.w3.org/2000/svg" viewBox="0 0 1920 1920">
    <style>
        .st0{fill:#fff}.st1{fill:none;stroke:#231f20;stroke-width:50;stroke-linecap:round;stroke-linejoin:round;stroke-miterlimit:10}
    </style>
    <path class="st0" d="M1403.2 229.4s-73.4 322.9-188.5 267.4c-18.4-8.9-33.1-16.8-44.9-24.1 4.3-38.8 6.4-76.5 7.5-99.4-2.8 22.4-10.6 55.8-22.6 89.3-43.4-32.2-27.3-53.7-27.3-100.2 0-61-20.4-145.5-20.4-145.5s8 238.4-114 231.5c-121.9-6.9-152.4-18-167.7-40.2 0 0-5.8 54.3 101 88.2l23.4 6.6c-8.4-2.1-16.1-4.3-23.4-6.6L914.2 534c-34 10.4-88.9-65.3-88.9-65.3 29.9 146.3 207.8 163.3 264 190.7 33.8 16.5 43.5 53.5 45.8 80.2.1 1 .2 2 .2 3-15.8 8.2-33.3 15.1-52.1 20.1-1 1-57.5 55.7 35.9 59.8 0 0 55.8-24.6 106.3-69.5 5.9-5.2 11.7-10.8 17.3-16.6 21.4-21.9 40.3-47.7 51.5-77 12.3-32.1 15.4-68.5 2.2-108.5 12.6-9.7 156.7-164.9 106.8-321.5zM1054 583.7c-79.7 0-104.2-80.7-104.2-80.7 29.8 7.5 66.8 13.4 112.5 16.8 23.3 1.7 43.8 4.9 61.8 9.2-19.2 31.7-42.9 54.7-70.1 54.7zm137.8 116.7c-12.6-47.5-56.8-93.2-56.8-93.2 10.6-11.3 18.7-36.4 24.7-66.6 83.7 35.3 82.3 105.9 32.1 159.8z" id="Layer_7"/>
    <path class="st0" d="M1433.1 982.1c-20.2-11.2-44.5-33.3-69-59.2 12.5-10.6 17.5-40.9 17.5-77.3 0-74.3-20.8-174.3-40.9-186.8-3.7-2.3-8.2-4-13.3-4.8-9.7-1.7-21.4-.3-33.1 5.4-11.2 29.3-30.2 55.1-51.5 77-2.1 8.5-3.9 17.9-5.2 28.1-.8-1.2-1.3-1.8-1.3-1.8-3.5-3.6-7.2-6.9-10.9-9.7-50.5 44.9-106.3 69.5-106.3 69.5-93.4-4.1-36.9-58.9-35.9-59.8-.8.3-50.5 21.3-119.3 54.1C931 812 884.4 821 855.4 871c-95.5 50-198 110.7-257.4 167.1 0 0-110.6 32.1-82.1 111.5 9.2 25.7 24.3 35.8 40.4 37.6 0 0 30.1 55.1 140 22.4 0 0 264.4-14.8 317.8 14.8 53.5 29.7 39.6 105 121.8 203 82.2 98 226.6 275.6 226.6 275.6h340.6v-515.9c-114.6-15.3-197.5-164.7-270-205zm-536-46.6c2.6-21.3 11.6-64.4 61.2-47 49.6 17.4 56.7 34.4 56.7 34.4s-33.5 70.7-117.9 12.6z" id="Layer_8"/>
    <path class="st0" d="M958.3 888.5c-49.6-17.4-58.6 25.8-61.2 47 84.4 58.1 117.9-12.6 117.9-12.6s-7.1-17-56.7-34.4z" id="Layer_9"/>
    <g id="STROKES">
        <path class="st1" d="M556.2 1187.2c33.6 3.9 71.8-27.9 71.8-27.9s44.3 27.9 120.1-9.8"/>
        <path class="st1" d="M1236.3 851.6c-2.6-34.3-1.9-63.1 1.3-87.1"/>
        <path class="st1" d="M1318.9 995.1s3.1-43.5 43.6-71c.5-.4 1.1-.8 1.6-1.2"/>
        <path class="st1" d="M1327.4 654c11.7 51.2 24 144.5-6 220.4-10 25.3-24.6 48.6-45.6 67.8"/>
        <path class="st1" d="M1362.5 1703.1s-144.5-177.6-226.6-275.6c-82.2-98-68.3-173.3-121.8-203-53.5-29.7-317.8-14.9-317.8-14.9-109.9 32.7-140-22.4-140-22.4-16.1-1.8-31.2-11.9-40.4-37.7C487.4 1070.2 598 1038 598 1038c59.4-56.5 161.9-117.1 257.4-167.1 29-50 75.7-59 108.6-54.2 68.8-32.8 118.4-53.8 119.3-54.1-1 1-57.5 55.7 35.9 59.8 0 0 55.8-24.6 106.3-69.5 3.7 2.8 7.3 6.1 10.9 9.7 0 0 .4.6 1.3 1.8 1.3-10.2 3.1-19.5 5.2-28.1 10.9-44 31.3-67.1 51.5-77 11.8-5.8 23.5-7.1 33.1-5.4 5.1.9 9.6 2.5 13.3 4.8 30.1 18.6 61.4 231.8 23.4 264.1 24.5 26 48.7 48 69 59.3 72.5 40.3 155.5 189.7 270 205.1"/>
        <path class="st1" d="M1004 828.2s-16.8-8-40.1-11.4"/>
        <path class="st1" d="M1296.5 550.9c13.1 40.1 10.1 76.4-2.2 108.5-20.2 9.9-40.6 33-51.5 77-5.6 5.8-11.5 11.3-17.3 16.6-50.5 44.9-106.3 69.5-106.3 69.5-93.4-4.1-36.9-58.9-35.9-59.8 18.8-5 36.3-11.9 52.1-20.1 3.3-1.7 6.4-3.4 9.6-5.3 18.3-10.7 34.2-23.3 46.9-36.9 50.2-53.9 51.7-124.5-32-159.8-10.5-4.4-22.4-8.3-35.6-11.6-17.9-4.4-38.5-7.5-61.8-9.3-45.8-3.4-82.7-9.3-112.5-16.8l-23.4-6.6c-106.8-33.8-101-88.2-101-88.2 15.2 22.2 45.7 33.3 167.7 40.2 121.9 6.9 114.1-231.4 114.1-231.4s20.4 84.5 20.4 145.5c0 46.5-16.1 68 27.3 100.2 4.4 3.3 9.4 6.6 15.1 10.1 11.8 7.3 26.5 15.2 44.9 24.1 115 55.4 188.5-267.4 188.5-267.4 49.5 156.6-94.6 311.8-107.1 321.5z"/>
        <path class="st1" d="M949.7 502.9c-8.3-2.1-16.1-4.3-23.4-6.6l23.4 6.6z"/>
        <path class="st1" d="M1294.3 659.4c-11.2 29.3-30.1 55.1-51.5 77 10.9-44 31.3-67.1 51.5-77z"/>
        <path class="st1" d="M1169.8 472.8c4.3-38.8 6.4-76.5 7.5-99.4.6-13.8.8-22.2.8-22.2.7 4.8.4 12.5-.8 22.2-2.8 22.4-10.6 55.7-22.6 89.3"/>
        <path class="st1" d="M1191.8 700.4c-12.7 13.6-28.5 26.2-46.9 36.9-3.1 1.8-6.3 3.6-9.6 5.3-.1-1-.1-2-.2-3-2.3-26.7-12-63.7-45.8-80.2-56.2-27.4-234-44.4-264-190.7 0 0 55 75.8 88.9 65.3l12.1-37.7c7.3 2.3 15.1 4.5 23.4 6.6 0 0 24.5 80.7 104.2 80.7 27.2 0 50.9-23 70.1-54.7 13.3 3.2 25.1 7.1 35.6 11.6-6.1 30.2-14.1 55.3-24.7 66.6.1.1 44.2 45.8 56.9 93.3z"/>
        <path class="st1" d="M869.8 982.9s24.7-26.1 27.3-47.4c2.6-21.3 11.6-64.4 61.2-47 49.6 17.4 56.7 34.4 56.7 34.4s-33.5 70.7-117.9 12.6"/>
        <path class="st1" d="M567.5 1124.1l-14.9 5.6"/>
    </g>
</svg>
