<svg xmlns="http://www.w3.org/2000/svg" viewBox="0 0 1920 1920">
    <style>
        .st0{fill:#fff}.st1{fill:none;stroke:#231f20;stroke-width:50;stroke-linecap:round;stroke-linejoin:round;stroke-miterlimit:10}
    </style>
    <path class="st0" d="M1675.8 1297.6s-162.4-111-117.3-183.1c45.1-72.2 33.4-156.6 33.4-156.6C1548.6 776 1365.5 828.5 1259 842c-106.5 13.5-268.9-11.7-350.1-31.6-81.2-19.8-176.8 24.3-176.8 24.3C604 862.7 513.8 722 513.8 722c27.2-68.6 3.1-110.1-14.7-129.5-4.1-4.4-7.9-7.7-10.6-9.9-2.8-2.2-4.5-3.2-4.5-3.2-48.7 28.9-28.9 118.2-22.5 132.6 6.3 14.4-47.5 29-47.5 29s-42.9 23.1-45.8 45.6l-123 95.6s8.4 78 80.1 45.7c0 0 81.5 16.2 132.9-20.4 0 0 222.8 157.5 232.7 197.5 0 0 26.9 79.3 105.5 92.2-38.8 39.3-91.7 95.8-93.6 113.9-2.5 23.3 89.7 122.4 117.9 213.8-1.6 11.1-3.8 21.2-6.5 29.6l60.4 15.9c-.4-42.9-1-94.4 5.6-163.2 4.3-44.5 24.8-126.9 39.7-202 111.9 10.5 272.3 23.9 365.4-48.1 51 57.4 129.8 149.3 132.8 172.6 1.8 13.8-24.7 55.7-57.2 101.1l-1.5 2.1c-1 1.4-2 2.8-3 4.1l-1.5 2.1c-1 1.4-2 2.8-3 4.1l-3 4.2-1.5 2.1c-1 1.4-2 2.8-3.1 4.2-2.6 3.5-5.1 6.9-7.7 10.4-1 1.4-2.1 2.8-3.1 4.1-8.8 11.7-17.5 23.1-25.9 33.9-.8 1-1.5 2-2.3 3-3.1 4-6.2 8-9.2 11.8-.9 1.2-1.9 2.4-2.8 3.5-1.4 1.7-2.7 3.5-4.1 5.2-1.3 1.7-2.6 3.3-3.9 5-.4.5-.8 1.1-1.3 1.6-.9 1.1-1.7 2.1-2.5 3.2-1.6 2.1-3.3 4.1-4.8 6.1-1.2 1.5-2.3 2.9-3.4 4.3s-2.2 2.7-3.2 4.1l51.8 29.5c35.5-48.2 168.9-228.4 212.2-274.8 20.4 11.6 36.6 18.1 49.7 27 13.1 8.9 23 20.2 31 41.3 21.3 56.7 23.5 147.7 23.5 179.2l59.6-4.5-22.1-250zm-899.7 22.8s25.1-27.6 48.4-52.8c0 .5 0 .9-.1 1.4 0 0-14.9 91.1.5 126.8 0 0 .3 5.6.5 14.7-18.2-38.7-41.4-85.4-49.3-90.1z" id="Layer_10"/>
    <g id="Layer_11">
        <path class="st0" d="M1249.7 1574.4l-42.1 33s25.5 25.5 61.6 25.5 43.6-42.1 43.6-42.1.2-.3.6-.8l.3-.3c.4-.5.9-1.2 1.4-2 1.5-2 3.7-5 6.5-8.8l-51.8-29.5c-12.2 15.4-20.1 25-20.1 25z"/>
        <path class="st0" d="M814.1 1554.5c-1.3 3.8-2.7 7.3-4.2 10.3 0 0-37 25.7-37 50.2s46.2 24.5 46.2 24.5 55.5 1.9 55.5-45.6c0-7.5-.1-15.4-.1-23.5l-60.4-15.9z"/>
        <path class="st0" d="M1698.6 1557.4l-.9-10.3-59.6 4.5c0 7.1-.1 11.2-.1 11.2l-19.9 37.9s6.3 22.6 31.6 22.6c25.2 0 67.1-16.3 48.9-65.9z"/>
    </g>
    <g id="STROKES">
        <path class="st1" d="M935.4 1072.1c2.7 30.1-5.1 79.8-15.6 133"/>
        <path class="st1" d="M739.9 1072.1s61.9 40.7 79.7 126.9"/>
        <path class="st1" d="M1307.1 1137c12.3-13.2 22.9-28.6 31.2-46.4"/>
        <path class="st1" d="M1285.1 1157c51 57.4 129.8 149.3 132.8 172.6 4.5 34.5-168.2 244.8-168.2 244.8l-42.1 33s25.5 25.5 61.6 25.5c36 0 43.6-42.1 43.6-42.1s170.8-233.1 221-286.7"/>
        <path class="st1" d="M1698.6 1557.4l-22.8-259.8s-162.4-111-117.3-183.1c45.1-72.2 33.4-156.6 33.4-156.6C1548.6 776 1365.5 828.5 1259 842c-106.5 13.5-268.8-11.7-350-31.6s-176.8 24.4-176.8 24.4C604 862.7 513.8 722 513.8 722 553.5 621.9 484 579.5 484 579.5c-48.7 28.9-28.9 118.2-22.6 132.6 6.3 14.4-47.5 29-47.5 29s-42.9 23.1-45.8 45.6l-123 95.6s8.4 78 80.1 45.7c0 0 81.5 16.2 132.8-20.4 0 0 222.8 157.4 232.7 197.5 0 0 26.9 79.3 105.5 92.2 7.3 1.2 15 1.8 23.2 1.8 4.2 20.2 6.2 42.9 4.9 68.5 0 .5 0 .9-.1 1.4 0 0-14.9 91.1.5 126.8 0 0 .3 5.6.5 14.7.6 24.6 1 75.4-4.8 114.5-2.4 16.2-5.8 30.4-10.7 39.9 0 0-37 25.7-37 50.2 0 24.5 46.2 24.5 46.2 24.5s55.5 2 55.5-45.6c0-47.5-2.4-104.9 5.5-186.7 4.3-44.5 24.8-126.9 39.7-202.1 121.3 11.4 299.5 26.1 387.3-68.1 37.3 10.1 81.1 33 124.3 81.2 109.2 121.8 157 84.8 183.1 154.3 26.2 69.5 23.5 190.4 23.5 190.4l-19.9 37.9s6.3 22.6 31.6 22.6c25.4-.2 67.3-16.5 49.1-66.1z"/>
        <path class="st1" d="M820.6 1524.9c-28.1-91.4-120.4-190.5-117.9-213.8 1.9-18.1 54.8-74.6 93.6-113.9 7.3 1.2 15 1.8 23.2 1.8 4.2 20.2 6.2 42.9 4.9 68.5-23.3 25.2-48.4 52.8-48.4 52.8 8 4.7 31.1 51.4 49.3 90.1.7 24.7 1.1 75.4-4.7 114.5z"/>
        <path class="st1" d="M229.7 411.4S249 526.9 344 538.9c24.8 3.1 44.3 10.9 59.7 20.8 32.9 21 46.6 51.3 51.3 64.9 0 0-76 14.2-134.1-36.9"/>
        <path class="st1" d="M403.6 559.6c1.4.9 57.6-76.6 14.9-191.6-34.1-92-14.9-122.7-14.9-122.7"/>
        <path class="st1" d="M429.3 402.5s61.4-64.5 69.9-106.6"/>
        <path class="st1" d="M499.1 592.5s15-89 0-143.2c0 0 55.3-72 64.3-115.5"/>
        <path class="st1" d="M281.6 510s-15.7 18.4-64.7 4.7"/>
        <path class="st1" d="M422.8 797.5c0 .7-2.3.4-5.2.4s-5.2.2-5.2-.4 2.3-1.2 5.2-1.2 5.2.5 5.2 1.2z"/>
        <path class="st1" d="M458.2 907.5s15.6-16.8 20.1-32.6"/>
        <path class="st1" d="M874.5 1570.4l-60.4-15.9"/>
        <path class="st1" d="M1321.6 1579l-51.7-29.5"/>
        <path class="st1" d="M1697.7 1547.1l-59.7 4.6"/>
    </g>
</svg>
