<svg xmlns="http://www.w3.org/2000/svg" viewBox="0 0 1920 1920">
    <style>
        .st0{fill:#fff}.st1{fill:none;stroke:#231f20;stroke-width:50;stroke-linecap:round;stroke-linejoin:round;stroke-miterlimit:10}
    </style>
    <path class="st0" d="M1486.5 924.1c-17.8-.4-35.3 1-52.2 4-138.7 24.6-245.4 151.3-292 156.7-52.2 6.1-70.5-51.2-70.5-51.2-13.4-25.4-111.8-20.9-111.8-20.9s-6.7-.3-16.8-.3c-28.7 0-85 2.5-94.9 21.2 0 .1-18.3 57.4-70.5 51.2-46.5-5.5-153.3-132.1-292-156.7-16.9-3-34.4-4.5-52.2-4 0 0-70.7 111.6 83 240.7C670.1 1293.9 737.7 1298 737.7 1298s-31 110.3-3.5 209c-23.2 26.7-55.8 84.1-55.8 196h563.1c0-112-32.6-169.4-55.8-196.1 26.8-96.4-2.1-203.8-3.4-208.8 0-.1-.1-.2-.1-.2h.1c2.1-.2 70-6.1 221.2-133.2 153.7-128.9 83-240.6 83-240.6zm-698.8 356c-4.8.3-8.4-1.2-11-3.9-4.5-4.8-6.1-13.4-6.1-22.9 0-21.1 7.5-46.8 7.5-46.8 14.7-.9 34 3 53.1 22.1 5.3 5.3 10.7 11.9 15.9 19.8.1-.1-27.6 29.6-59.4 31.7zm242.9 207.3c0 31.9-31.6 57.8-70.6 57.8s-70.6-25.9-70.6-57.8c0-8.3 2.2-16.3 6-23.4-13.4-11.5-21.6-28-21.6-49.9 0-47.6 38.6-86.1 86.1-86.1s86.1 38.6 86.1 86.1c0 21.9-8.2 38.4-21.6 49.9 4 7.1 6.2 15 6.2 23.4zm101.7-207.3c-28.8-1.9-54.2-26.4-58.7-31l-.4-.4-.2-.2s0-.1-.1-.1c23.8-36.3 50.2-43.1 69-41.9 0 0 7.5 25.7 7.5 46.8-.1 14.9-3.9 27.6-17.1 26.8z" id="Layer_2"/>
    <g id="Layer_4">
        <path class="st0" d="M1141.8 1206.4c-18.8-1.2-45.1 5.6-69 41.9l.1.1c.1 0 .1.1.2.2l.4.4c4.5 4.6 29.9 29.2 58.7 31 13.2.8 17.1-11.8 17.1-26.9 0-21-7.5-46.7-7.5-46.7z"/>
        <path class="st0" d="M778.2 1206.4s-7.5 25.7-7.5 46.8c0 9.6 1.5 18.2 6.1 22.9 2.6 2.8 6.2 4.2 11 3.9 31.8-2.1 59.4-31.8 59.4-31.8-5.2-7.9-10.5-14.5-15.9-19.8-19.1-19-38.4-22.9-53.1-22z"/>
    </g>
    <path class="st0" d="M1046.1 1414.1c0-47.6-38.6-86.1-86.1-86.1s-86.1 38.6-86.1 86.1c0 21.9 8.1 38.4 21.6 49.9-3.9 7.1-6 15.1-6 23.4 0 31.9 31.6 57.8 70.6 57.8s70.6-25.9 70.6-57.8c0-8.3-2.1-16.3-6-23.4 13.3-11.5 21.4-28.1 21.4-49.9z" id="Layer_5"/>
    <g id="Layer_6">
        <path class="st0" d="M800 859.8c10.4-159.7 10.4-200.5-11.7-231.1 0 0 11.9 318.9-73.1 295.4s-321.2-83-265.1-191.7c56.1-108.8 253.6-149.5 302.7-254.9-.9.6-62 40.9-134.4 59.5-43.3 11.1-91.3 37.6-130.4 68.8 10.5-77.6 59.1-250.5 59.1-250.5-52.8 19.7-90.2 114.2-108.6 172.4 12.8-109.9 35.1-251.7 68.7-310.6 0 0-168.7 165.9-132.7 564.1.2 2.3.6 4.7 1.2 7 4.1 16.2 24.2 74.9 109.9 140.1 138.7 24.6 245.4 151.3 292 156.7 52.2 6.1 70.5-51.2 70.5-51.2 0-.2-58.5-14.5-48.1-174z"/>
        <path class="st0" d="M1412.7 217c33.6 58.9 55.8 200.7 68.7 310.6-14.5-46-40.8-114.5-77.2-151-9.7-9.8-20.2-17.2-31.3-21.4 0 0 48.6 172.9 59.1 250.5-39.1-31.1-87.1-57.7-130.4-68.8-72.5-18.5-133.5-58.8-134.4-59.5 49.1 105.3 246.6 146.1 302.7 254.9 56.1 108.8-180.1 168.2-265.1 191.7-85 23.5-73.1-295.4-73.1-295.4-22.1 30.6-22.1 71.4-11.7 231.1 10.4 159.5-48 173.9-48.2 173.9 0 .1 18.3 57.4 70.5 51.2 46.5-5.5 153.3-132.1 292-156.7 85.6-65.2 105.8-123.9 109.9-140.1.6-2.3 1-4.6 1.2-7 36-398.2-132.7-564-132.7-564z"/>
        <path class="st0" d="M1182.3 1298.2v-.2h-.1s.1.1.1.2z"/>
    </g>
    <g id="STROKES">
        <path class="st1" d="M960 1012.7s-98.3-4.5-111.8 20.9c0 0-18.3 57.4-70.5 51.3-52.2-6.1-180.3-164.9-344.2-160.8 0 0-70.7 111.6 83 240.7S737.7 1298 737.7 1298s-55.1 196.2 46.9 299.6"/>
        <path class="st1" d="M1046.1 1414.1c0 21.9-8.2 38.4-21.6 49.9-15.8 13.5-38.9 20-64.6 20s-48.8-6.5-64.5-20c-13.4-11.5-21.6-28-21.6-49.9 0-47.6 38.6-86.1 86.1-86.1s86.2 38.5 86.2 86.1z"/>
        <path class="st1" d="M1030.6 1487.4c0 31.9-31.6 57.8-70.6 57.8s-70.6-25.9-70.6-57.8c0-8.3 2.2-16.3 6-23.4 15.8 13.5 38.8 20 64.5 20s48.8-6.5 64.6-20c3.9 7.1 6.1 15 6.1 23.4z"/>
        <path class="st1" d="M900.5 1403.3l21.9 13.6"/>
        <path class="st1" d="M752.9 1213.5s51.2-30.7 94.2 34.8c0 0-27.7 29.7-59.4 31.8-31.8 2-9.5-73.6-9.5-73.6"/>
        <path class="st1" d="M433.5 924.1s235.9 146.1 255.1 232.9"/>
        <path class="st1" d="M485.7 928.2c-85.6-65.2-105.8-124-109.9-140.1-.6-2.3-1-4.6-1.2-7C338.5 382.8 507.3 217 507.3 217c-58.4 102.5-82.5 455.9-82.5 455.9 34-54.4 120.7-117.2 193.7-135.9 72.5-18.5 133.5-58.8 134.4-59.5"/>
        <path class="st1" d="M752.9 477.4c-49.1 105.4-246.6 146.1-302.7 254.9-56 108.8 180.1 168.2 265.1 191.7 85 23.5 73.1-295.4 73.1-295.4 22.1 30.6 22.1 71.4 11.7 231.1-10.4 159.7 48.2 173.9 48.2 173.9"/>
        <path class="st1" d="M438.6 527.5c18.4-58.2 55.7-152.7 108.6-172.4 0 0-48.6 172.9-59.1 250.6"/>
        <path class="st1" d="M960 1012.7s98.3-4.5 111.8 20.9c0 0 18.3 57.4 70.5 51.3 52.2-6.1 180.3-164.9 344.2-160.8 0 0 70.7 111.6-83 240.7S1182.3 1298 1182.3 1298s55.1 196.2-46.9 299.6"/>
        <path class="st1" d="M1019.5 1403.3l-21.9 13.6"/>
        <path class="st1" d="M1167.1 1213.5s-51.2-30.7-94.2 34.8c0 0 27.7 29.7 59.4 31.8 31.8 2 9.5-73.6 9.5-73.6"/>
        <path class="st1" d="M1486.5 924.1s-235.9 146.1-255.1 232.9"/>
        <path class="st1" d="M1167.1 477.4c1 .6 62 40.9 134.5 59.5 73.1 18.7 159.7 81.6 193.7 135.9 0 0-24.2-353.4-82.5-455.9 0 0 168.7 165.9 132.7 564.1-.2 2.3-.6 4.7-1.2 7-4.1 16.2-24.2 74.9-109.9 140.1"/>
        <path class="st1" d="M1071.8 1033.7s58.6-14.2 48.2-173.9c-10.4-159.7-10.4-200.5 11.7-231.1 0 0-11.9 318.9 73.1 295.4s321.2-83 265.1-191.7c-56.1-108.8-253.6-149.5-302.7-254.9"/>
        <path class="st1" d="M1431.9 605.7c-10.5-77.6-59.1-250.6-59.1-250.6 52.8 19.7 90.1 114.2 108.6 172.4"/>
        <path class="st1" d="M737.7 1298s-1.3 85.7 39 124.7"/>
        <path class="st1" d="M1182.3 1298s1.3 85.7-39 124.7"/>
        <path class="st1" d="M1185.8 1507c23.2 26.7 55.8 84.1 55.8 196.1"/>
        <path class="st1" d="M678.5 1703.1c0-111.9 32.5-169.3 55.8-196"/>
    </g>
</svg>
