<svg xmlns="http://www.w3.org/2000/svg" viewBox="0 0 1920 1920">
    <style>
        .st0{fill:#fff}.st1{fill:none;stroke:#231f20;stroke-width:50;stroke-linecap:round;stroke-linejoin:round;stroke-miterlimit:10}
    </style>
    <path class="st0" d="M1459.5 1417.5V504.9l-181.8-181.7H647.8L460.5 505.5V1417l187.8 179.8h628.9z" id="Layer_3"/>
    <g id="STROKES">
        <path class="st1" d="M1459.5 1417.5V504.9l-181.8-181.7H647.8L460.5 505.5V1417l187.8 179.8h628.9z"/>
        <path class="st1" d="M1319.5 1308.4v-695l-130.8-130.8H735.3L600.5 617.4v687l133 133h457z"/>
        <path class="st1" d="M1459.5 1417.5l-140-109.1L1198 960l121.5-346.6 140-108.5"/>
        <path class="st1" d="M459.8 1417.5l140-109.1L721.2 960 599.8 613.4l-140-108.5"/>
        <path class="st1" d="M647.8 323.2l87.5 159.4L961 599l227.7-116.4 89-159.4"/>
        <path class="st1" d="M1277.7 1596.8l-87.5-159.4L964.5 1321l-227.7 116.4-89 159.4"/>
        <path class="st1" d="M1188.7 482.6L1198 960l-7.8 477.4"/>
        <path class="st1" d="M1319.5 1308.4l-355 12.6-364-16.6"/>
        <path class="st1" d="M733.5 1437.4L721.2 960l14.1-477.4"/>
        <path class="st1" d="M1319.5 613.4L961 599l-361.2 14.4"/>
    </g>
</svg>
