<svg xmlns="http://www.w3.org/2000/svg" viewBox="0 0 1920 1920">
    <style>
        .st0{fill:#fff}.st1{fill:none;stroke:#231f20;stroke-width:50;stroke-linecap:round;stroke-linejoin:round;stroke-miterlimit:10}.st2{fill:#231f20}
    </style>
    <path class="st0" d="M1415.7 878.1c261.2-73.1 287-288.6 287.4-292-.6 2.5-35.4 130.6-389.8 107.1-357.8-23.6-350.1 126.7-350.1 126.7L217 1170.1l33.2-7.4s29.4 31.3 129 18.4l672.5-38.6s80.4 111.9 151.3 134c9.5 15.8 9 107.2 9 107.2h221s4.7-193.9-36.2-335.8c-41-141.8 18.9-169.8 18.9-169.8zm-242 25.1c-63.2 5.6-79.5-45.5-79.5-45.5s0-56.9 56.9-62.6c56.9-5.7 74.8 41.4 74.8 41.4s11.1 61.1-52.2 66.7z" id="Layer_2"/>
    <path class="st0" d="M1173.7 903.2c-63.2 5.6-79.5-45.5-79.5-45.5s0-56.9 56.9-62.6c56.9-5.7 74.8 41.4 74.8 41.4s11.1 61.1-52.2 66.7z" id="Layer_4"/>
    <g id="STROKES">
        <path class="st1" d="M1211.9 987.7c-51.6-16.6-206.4 7.4-206.4 7.4l-788.6 175L963.1 820s-7.7-150.4 350.1-126.7S1703 586.1 1703 586.1s-24.1 218.3-287.4 292c0 0-59.9 28-18.9 169.9s36.3 335.8 36.3 335.8"/>
        <path class="st1" d="M250.1 1162.8s29.4 31.3 129 18.4l672.5-38.6s80.4 111.9 151.3 134c9.5 15.8 9 107.2 9 107.2"/>
        <path class="st1" d="M1034 849.1c6.6-3.3 31.9-74.8 128.6-78 96.7-3.3 245.1-18.7 245.1-18.7"/>
        <path class="st1" d="M1094.3 857.7s0-56.9 56.9-62.6c56.9-5.7 74.7 41.4 74.7 41.4s11.1 61-52.1 66.7c-63.3 5.7-79.5-45.5-79.5-45.5z"/>
        <path class="st1" d="M950.8 917l26.7-17.7 3.1 5.9z"/>
        <path class="st1" d="M1306.8 1035.3s-6.8 71.5-85.9 57.7"/>
    </g>
</svg>
