<svg xmlns="http://www.w3.org/2000/svg" viewBox="0 0 1920 1920">
    <style>
        .st0{fill:#fff}.st1{fill:none;stroke:#231f20;stroke-width:50;stroke-linecap:round;stroke-linejoin:round;stroke-miterlimit:10}
    </style>
    <path class="st0" d="M1277.2 714.1c-14.1-10.6-22.2-16.2-22.2-16.2s153-199.3 173-299.7c20.1-100.4-47.1-77-47.1-77s-167.8 267.9-512.2 447.5-553.4 291.4-553.4 291.4L329 1076l90.5 105.3s4.5.2 11.7 1c24.3 2.9 79.1 13.9 93 54 2.1 6 3.3 12.7 3.3 20.2 0 22-3.7 37.6-8.7 48.6-10.7 23.2-27.6 26.3-29.6 26.6-2.3 32-.8 64.2 4.5 95.9 2.9-.3 5.8-.8 8.8-1.3 69.4-13.5 270-98.4 270-98.4 2.6-.3 232.3-24.9 495 140.9l139 234.2 296.7-425.8c-64.6-275.1-344.6-502-426-563.1zM923.3 878.2s10.7-85.8 97.7-42.9c0 0 6.5 78.1-97.7 42.9z" id="Layer_2"/>
    <path class="st0" d="M431 1182.4c-7.2-.9-11.7-1-11.7-1L328.9 1076s-47.3-13.4-79.6 87.4l90.9 51.3s54 9.3 90.8-32.3z" id="Layer_4"/>
    <path class="st0" d="M489 1331.8h-.2s-96.4 19.3-104.1 48.2c0 0 44.2 54.8 108.8 47.6-5.3-31.6-6.8-63.9-4.5-95.8z" id="Layer_9"/>
    <path class="st0" d="M527.4 1256.6c0 22-3.7 37.6-8.7 48.6l-83.9-10.7s-33.5-7.9-33.5-20.3c0-12.5 25.6-19.7 25.6-19.7l97.2-18c2.1 5.9 3.3 12.6 3.3 20.1z" id="Layer_5"/>
    <path class="st0" d="M1021 835.3c-87-42.9-97.7 42.9-97.7 42.9 104.2 35.2 97.7-42.9 97.7-42.9z" id="Layer_6"/>
    <g id="STROKES">
        <path class="st1" d="M1406.3 1703.1l-139-234.2C1004.6 1303 775 1327.7 772.3 1328s-200.6 84.9-270 98.4c-3 .6-5.9 1-8.8 1.3-5.2-31.6-6.8-63.9-4.5-95.9 2-.3 19-3.3 29.6-26.6 5.1-11 8.7-26.6 8.7-48.6 0-7.4-1.2-14.1-3.3-20.2-13.9-40.1-68.8-51.1-93-54-7.2-.9-11.7-1-11.7-1L328.9 1076l-13.7-15.9s209-111.9 553.4-291.4 512.2-447.5 512.2-447.5 67.2-23.4 47.1 77-173 299.7-173 299.7 8.1 5.6 22.2 16.2c81.4 61.1 361.4 288 425.9 563.2"/>
        <path class="st1" d="M493.5 1427.6c-64.7 7.2-108.8-47.6-108.8-47.6 7.7-28.9 104.1-48.2 104.1-48.2h.2"/>
        <path class="st1" d="M431 1182.4c-36.8 41.7-90.9 32.3-90.9 32.3l-90.9-51.3c32.4-100.8 79.6-87.4 79.6-87.4l90.5 105.3c.1 0 4.6.2 11.7 1.1z"/>
        <path class="st1" d="M1203.7 1081.4c10.1 111.2-117.5 194.6-213.5 189.5-95.3-5-216.1 56.1-217.9 57"/>
        <path class="st1" d="M527.4 1256.6c0 22-3.7 37.6-8.7 48.6l-83.9-10.7s-33.5-7.9-33.5-20.3c0-12.5 25.6-19.7 25.6-19.7l97.2-18c2.1 5.9 3.3 12.6 3.3 20.1z"/>
        <path class="st1" d="M923.3 878.2s10.7-85.8 97.7-42.9c0 0 6.5 78.1-97.7 42.9z"/>
        <path class="st1" d="M527.4 1024.4c-.4 0 317.6-156.5 317.6-156.5s-19.7 96.4 62 109.7 141.8-45.7 141.8-45.7"/>
        <path class="st1" d="M1030.4 1268.3s273.4 21.8 379.2 205.7"/>
    </g>
</svg>
