<svg xmlns="http://www.w3.org/2000/svg" viewBox="0 0 1920 1920">
    <style>
        .st0{fill:#fff}.st1{fill:none;stroke:#231f20;stroke-width:50;stroke-linecap:round;stroke-linejoin:round;stroke-miterlimit:10}
    </style>
    <path class="st0" d="M1462.9 806.5c18.2-129.6-46.4-213.3-78.8-246.3-9.9-10.1-22.6-16.9-36.4-19.7l-170.1-33.9-428.8-271.8S620 162.3 517.3 309.3c0 0 6.4 13.3 19.3 35.6 10.9 18.8 26.4 43.9 46.5 72.8 9.7 14 20.5 28.8 32.4 44.2 8.5 11 17.5 22.3 27.1 33.9 9.4 11.2 19.2 22.6 29.7 34.1 6.2 6.9 12.7 13.9 19.3 20.8 10.7 11.2 21.9 22.4 33.6 33.6 8.2 7.8 16.6 15.6 25.3 23.3 23.4 20.8 48.6 41.2 75.5 60.5 0 0 40.8 27.3 111.6 52.8 0 0 63.9 77.8 145.1 164.8 88.4 94.6 197.4 200.1 267.1 228 0 0-341.7-28.9-515.6 62.1-3.2 1.7-6.6 3.4-10 5.1-1.8-.6-3.5-1.2-5.3-1.9l3.8 2.6c-48.6 23.8-109 43.3-171 59.2-62 15.9-125.6 28-180.8 37.1-5.5.9-11 1.8-16.3 2.6-12.9 2-25.1 3.9-36.8 5.5-18.2 2.6-34.7 4.8-49 6.6-2 .2-4 .5-5.9.7-31.4 3.9-50.5 5.6-50.5 5.6s85.6 160.5 430.7 69.5c0 0 69.3 14.2 161 19 25 62.2 55.7 168.5 55.7 315.9h585.8c-24.1-77.1 2.7-235.9 2.7-235.9 59.1-497.8-85.4-660.9-85.4-660.9zm-118.3-103.4c-19.2 29.8-138.3-87.3-138.3-87.3H1317c-.1 0 46.7 57.5 27.6 87.3z" id="Layer_6"/>
    <path class="st0" d="M363.1 1293c1.9-.2 3.9-.5 5.9-.7 14.3-1.8 30.8-4 49-6.6 11.6-1.7 23.9-3.5 36.8-5.5l-90.7-149.7c0-.1-1.4 108.2-1 162.5z" id="Layer_7"/>
    <path class="st0" d="M536.7 344.9l-67.8 93.7 114.3-21c-20.2-28.9-35.7-54-46.5-72.7z" id="Layer_11"/>
    <path class="st0" d="M672.3 529.8c-10.4-11.5-20.3-22.9-29.7-34.1-9.6-11.5-18.6-22.8-27.1-33.9l-46.7 76.7 103.5-8.7z" id="Layer_12"/>
    <path class="st0" d="M750.5 607.5c-8.7-7.7-17.1-15.5-25.3-23.3-11.7-11.2-22.9-22.4-33.6-33.6-6.6-6.9-13.1-13.9-19.3-20.8l-23.1 86 101.3-8.3z" id="Layer_13"/>
    <path class="st0" d="M826 667.9c-27-19.3-52.1-39.7-75.5-60.5v100.5l75.5-40z" id="Layer_14"/>
    <path class="st0" d="M717.4 1110.8l-21.7 24.6-31.9 36.3-73.1-60.9-36.5 95-75.5-77.9-7.5 149.7c55.2-9 118.8-21.2 180.8-37.1 62-15.9 122.3-35.4 171-59.2l-3.8-2.6-101.8-67.9z" id="Layer_15"/>
    <path class="st0" d="M1206.2 615.8s119.2 117.1 138.3 87.3c19.2-29.8-27.7-87.3-27.7-87.3h-110.6z" id="Layer_8"/>
    <path class="st0" d="M1080.9 1115.3s-17.3-33-49.3-64.9c-45.7-45.6-121.4-89.2-219.6-31.3-48.1 28.3-221.9 25.3-254.4 21.8-9.8-1.1-19.2 5.1-21.5 14.7-.3 1.3-.5 2.7-.5 4.1 0 4.2 1.6 8.8 6.2 13.5 1.5 1.5 3.3 3.1 5.5 4.6 10.4 7.3 74.4 31.3 148.3 57.7l21.7-24.6 101.6 68c1.8.6 3.6 1.2 5.3 1.9 3.4-1.7 6.7-3.3 10-5.1 67.1-35.2 159.1-52.4 246.7-60.4.1-.2.1-.4.1-.5 0 .1-.1.3-.1.5z" id="Layer_9"/>
    <path class="st0" d="M1349.9 1113.5c-69.7-27.9-178.7-133.4-267.1-228 3.3 36.6 5.8 77.5 5.8 118.6 0 37.9-2.1 75.9-7.5 110.6v.5c139.7-12.6 268.8-1.7 268.8-1.7z" id="Layer_10"/>
    <g id="STROKES">
        <path class="st1" d="M1545.8 1703.1c-24.1-77.1 2.7-235.9 2.7-235.9 58.9-497.6-85.6-660.6-85.6-660.6 18.2-129.6-46.4-213.3-78.8-246.3-9.9-10.1-22.6-16.9-36.4-19.7l-170.1-33.9-428.8-271.9S620 162.3 517.3 309.3c0 0 6.4 13.3 19.3 35.6 10.9 18.8 26.4 43.9 46.5 72.8 9.7 14 20.5 28.8 32.4 44.2 16.8 21.8 35.7 44.7 56.8 68 23.4 25.8 49.5 52.1 78.2 77.7 23.4 20.8 48.6 41.2 75.5 60.5 0 0 40.8 27.3 111.6 52.8 0 0 63.9 77.8 145.1 164.8 88.4 94.6 197.4 200.1 267.1 228 0 0-341.7-28.9-515.6 62.1-3.2 1.7-6.6 3.4-10 5.1-.5.2-1 .5-1.5.7"/>
        <path class="st1" d="M471.1 1277.6c-5.5.9-11 1.8-16.3 2.6-35.9 5.6-67.5 9.9-91.7 12.8-31.4 3.9-50.5 5.6-50.5 5.6s85.6 160.5 430.7 69.6c0 0 408.2 83.5 553.7-85.6"/>
        <path class="st1" d="M1206.2 615.8h110.7s46.8 57.5 27.7 87.3c-19.2 29.8-138.4-87.3-138.4-87.3z"/>
        <path class="st1" d="M454.8 1280.2c-35.9 5.6-67.5 9.9-91.7 12.8-.5-54.3 1-162.6 1-162.6l90.7 149.8z"/>
        <path class="st1" d="M822.8 1181.3c-97.2 47.5-241.4 78.2-351.7 96.2l7.5-149.7 75.5 77.9 36.5-95 73.1 60.9 31.9-36.3 21.7-24.6 101.6 68 3.9 2.6z"/>
        <path class="st1" d="M583.1 417.6l-114.3 21 67.8-93.7c10.9 18.7 26.4 43.8 46.5 72.7z"/>
        <path class="st1" d="M615.5 461.8c16.8 21.8 35.7 44.7 56.8 68l-103.5 8.7 46.7-76.7z"/>
        <path class="st1" d="M750.5 607.5l-101.4 8.3 23.1-86c23.5 25.8 49.5 52.1 78.3 77.7z"/>
        <path class="st1" d="M750.5 707.9V607.5c23.4 20.8 48.6 41.2 75.5 60.5l-75.5 39.9z"/>
        <path class="st1" d="M1462.9 806.5s-35.2 43.7-99.2 55.1"/>
        <path class="st1" d="M709.3 311.7l-33.9-2.9"/>
        <path class="st1" d="M1349.9 1113.5s45.6 19.2 95.9-13.7"/>
        <path class="st1" d="M824.3 1180.6c-1.8-.6-3.5-1.2-5.3-1.9"/>
        <path class="st1" d="M1082.8 885.5c6.4 70.5 9.6 157.2-1.8 229.8 0 0-102-194.6-268.8-96.3-48.1 28.3-221.9 25.3-254.4 21.8-9.8-1.1-19.2 5.1-21.5 14.7-1.6 6.6.2 14.5 11.2 22.2 10.4 7.3 74.4 31.3 148.3 57.7"/>
        <path class="st1" d="M904.3 1387.2c25 62.2 55.7 168.5 55.7 315.9"/>
    </g>
</svg>
