<svg xmlns="http://www.w3.org/2000/svg" viewBox="0 0 1920 1920">
    <style>
        .st0{fill:#fff}.st1{fill:none;stroke:#231f20;stroke-width:50;stroke-linecap:round;stroke-linejoin:round;stroke-miterlimit:10}
    </style>
    <path class="st0" d="M1627.3 1468.1c31.3-103.9 15-215.2 15-215.2 13.8-32.5 10-182.7 10-182.7s11.2-62.6-8.8-119.5c-15.3-43.4-10.9-161.3-8-214.9 2.3-41.1-4.7-82.3-21.3-119.9-59.5-135.1-207.2-161.3-207.2-161.3 27.5-77.6-10-133.9-10-133.9s-34.6 89.7-75.7 173.7c-309.1-13.8-351.4 55-383.3 72.9-33.5 18.8-140.4 150.2-214.2 189-73.8 38.8-391.7 332.9-444.2 380.4-52.6 47.6-63.8 111.4-62.6 126.4.8 9.5 9.7 31.8 31.9 37h.1c.3.1 1.4.3 3.2.6h.1c30.3 5.8 255.7 46.4 379.4 5.6 0 0-157.1-26.2-243.6-60.3 148.9-63.7 422.1-168.2 422.1-168.2 19.6 16.2 40.6 29.2 62.4 39.5.7 19.7-1.1 42.1-8.2 64.2-19.8 60.9-4.9 248.5-4.9 248.5s-16.5 143.2-41.2 169.5l82.3-49.4s57.6 47.7 72.4 49.4c14.8 1.6-12.6-80.6-12.6-80.6s30.7-232 29.1-268.2c-.7-16.2 3.5-57.5 9.5-100.7 38.5 3.4 76.4 1.9 111.3-1.9 1 23.3 5.5 48 17.6 65.5 30.1 43.2 58.9 116.5 53.7 138.8-5.2 22.3-36.7 39.3-36.7 39.3l28.8 26.2-2.6 30.1s33.8 10 62.6-1.8c25.8 48 84.1 76.8 84.1 76.8l-12.8-42c45.4 6.7 71.9-21.8 71.9-21.8s-71.9-52.1-71.9-79 87.4-156.3 119.4-176.4c16.1-10.2 22-42.2 23.8-71.5 50.2-6.6 89.2-40.6 89.2-40.6l33.8 165.2c-22.5 51.3-1.2 270.3-1.2 270.3s47.5 25 77.6 38.8c30 13.8 0-33.8 0-33.8s55.1 23.8 56.3 0c1-24.1-76.6-64.1-76.6-64.1zm-309.6-298.3c-14.2 0-64 33-90.5 66.8-10.2-40.9-20.8-82.3-27.4-104.2 31.9-7.3 55.7-14.5 67.2-17.3 19.8-4.8 37-4.6 55.5-1.9l-4.8 56.6z" id="Layer_8"/>
    <g id="STROKES">
        <path class="st1" d="M1321.4 494.3c-29.7 60.8-62.9 118.6-88.8 137.1-61.6 44-140.9 123.3-140.9 123.3s26.4 63.9 92.5 59.4c66-4.4 116.7-74.9 189.3-61.6 72.6 13.2 118.9-112.3 118.9-112.3"/>
        <path class="st1" d="M1040.4 852.2c4.9 39.5-3.3 144.8-16.5 172.8-7.3 15.4-17.5 71.5-25 124.8"/>
        <path class="st1" d="M872.5 1117.2c-1.2-34.8-9.9-60.9-9.9-60.9-111.9-199.1 65.8-402 65.8-402"/>
        <path class="st1" d="M1424.2 739.4s122.5-19.6 109.4 106.1"/>
        <path class="st1" d="M1199.8 1132.5c-2.2-7.4-4-12.6-5.2-14.7l123.1-57.6"/>
        <path class="st1" d="M1283.6 875.6s24.9 34-22.3 62.8c-47.1 28.8-146.6 144-146.6 144s-6 31.1-4.6 65.4"/>
        <path class="st1" d="M1703.6 1531.9c-1.3 23.8-56.3 0-56.3 0s30 47.5 0 33.8c-30-13.8-77.6-38.8-77.6-38.8s-21.3-219 1.3-270.3l-33.8-165.2s-39 34-89.2 40.6c-11.5 1.5-23.6 1.6-35.9-.5-38-6.5-64.9-14.5-89.6-18.2-18.5-2.7-35.7-2.9-55.5 1.9-11.4 2.8-35.3 10-67.2 17.3 6.6 21.8 17.2 63.2 27.4 104.2 14.3 57.6 27.7 114.2 27.7 114.2s31.4 40.6 2.6 77.2c-6.7 8.6-15.1 14.2-23.8 17.8-28.8 11.8-62.6 1.8-62.6 1.8l2.6-30.1-28.8-26.2s31.4-17 36.7-39.3c5.2-22.2-23.6-95.6-53.7-138.8-12.2-17.5-16.6-42.2-17.6-65.5-34.8 3.9-72.8 5.3-111.3 1.9-6.1 43.2-10.3 84.5-9.5 100.7 1.6 36.2-29.1 268.2-29.1 268.2s27.4 82.3 12.6 80.6c-14.8-1.6-72.4-49.4-72.4-49.4l-82.3 49.4c24.7-26.3 41.1-169.5 41.1-169.5s-14.8-187.6 4.9-248.5c7.1-22 8.9-44.5 8.2-64.2-21.8-10.3-42.7-23.3-62.4-39.5 0 0-273.2 104.5-422.1 168.2-41.8 17.9-73.8 32.5-87.2 40.8-20.4 12.5-36.3 15.7-48.6 13.9h-.1c-1.8-.3-2.9-.6-3.2-.6h-.1c-22.2-5.2-31.1-27.4-31.9-37-1.3-15 10-78.8 62.6-126.4 52.6-47.5 370.4-341.6 444.2-380.4s180.7-170.2 214.2-189c31.9-17.9 74.2-86.7 383.3-72.9 41.1-83.9 75.7-173.7 75.7-173.7s37.5 56.3 10 133.9c0 0 147.8 26.2 207.2 161.3 16.6 37.7 23.6 78.8 21.3 119.9-2.9 53.6-7.3 171.5 8 214.9 20 57 8.8 119.5 8.8 119.5s3.7 150.2-10 182.7c0 0 16.3 111.4-15 215.2.1.3 77.7 40.4 76.4 64.1z"/>
        <path class="st1" d="M1448 1132c-1.8 29.2-7.6 61.3-23.8 71.5-32 20.2-119.4 149.6-119.4 176.4 0 26.9 71.9 79 71.9 79s-26.6 28.6-71.9 21.8l12.8 42s-58.3-28.8-84.1-76.8c8.8-3.6 17.1-9.2 23.8-17.8 28.8-36.7-2.6-77.2-2.6-77.2s-13.4-56.6-27.7-114.2c26.6-33.8 76.3-66.8 90.5-66.8l4.8-56.5c24.8 3.6 51.7 11.7 89.6 18.2 12.5 2 24.6 1.9 36.1.4z"/>
        <path class="st1" d="M631.8 1306.2c-123.7 40.8-349.1.1-379.4-5.6 12.3 1.8 28.2-1.4 48.6-13.9 13.4-8.2 45.4-22.9 87.2-40.8 86.5 34.1 243.6 60.3 243.6 60.3z"/>
        <path class="st1" d="M1168.2 813.8s65.5-97.5 149.5-113.4"/>
        <path class="st1" d="M1394.3 580.6s2.5-20.4 33.3-23.4c0 0 8.3 12.8-33.3 23.4z"/>
    </g>
</svg>
