<svg xmlns="http://www.w3.org/2000/svg" viewBox="0 0 1920 1920">
    <style>
        .st0{fill:#fff}.st1{fill:none;stroke:#231f20;stroke-width:50;stroke-linecap:round;stroke-linejoin:round;stroke-miterlimit:10}
    </style>
    <path class="st0" d="M1596.3 871.1c-63.4-49.3-26.8-225-26.8-225-63.9-11-109.7-60.5-139.2-106-49.5 90.2-111.7 186.8-186.4 272.5 0 0-95.6 18.9-97.6-53.2l238.1-302.1c-147.2-10.6-254.6-147.5-269-166.8-1.1-1.5-1.6-2.2-1.6-2.2l-93.5 11.7c-40 5-80.5 5-120.5 0l-93.5-11.7S694 445.9 535.6 457.3l238.1 302.1c-2 72.1-97.6 53.2-97.6 53.2-74.7-85.7-136.9-182.3-186.4-272.5-29.5 45.5-75.3 95-139.2 106 0 0 36.6 175.7-26.8 225 0 0 75.5 92.1 26.8 169.3 0 0 121.9 133 80.4 203.7l92.6 4s-32.9 34.8-13.4 64c19.5 29.2 109.3 70.4 109.3 70.4s152.1 201.4 283.6 253.8c-9.1-20.3-17.2-45.1-22.5-74.9v-.1c-3.8-21.8-6.1-46.2-6.1-73.5 0-166.9 85.6-176.6 85.6-176.6s85.6 9.7 85.6 176.6c0 27.3-2.3 51.8-6.1 73.5v.1c-5.2 29.8-13.4 54.6-22.5 74.9 131.5-52.3 283.6-253.8 283.6-253.8s89.8-41.2 109.3-70.4c19.5-29.2-13.4-64-13.4-64l92.6-4c-41.4-70.6 80.4-203.7 80.4-203.7-47-74.4 21.6-162.8 26.5-168.9.2-.3.3-.4.3-.4zm-961.5 196.4c-11.2-34.3-5.4-72.7.4-96.2 30.3 16.3 87.3 19.7 88.5 79l-88.9 17.2zM960 1226.9c-109 0-98.1-118.7-98.1-118.7l98.1-88.5 98.1 88.5c0 .1 10.9 118.7-98.1 118.7zm325.2-159.4l-89-17.2c1.2-59.3 58.2-62.7 88.5-79 5.8 23.5 11.7 62 .5 96.2z" id="Layer_7"/>
    <path class="st0" d="M346.2 217c.6 1.8 48.8 150.5 143.5 323.1 49.5 90.2 111.7 186.8 186.4 272.5 0 0 95.6 18.9 97.6-53.2L535.5 457.2 346.2 217z" id="Layer_8"/>
    <path class="st0" d="M1384.5 457.2l-238.1 302.1c2 72.1 97.6 53.2 97.6 53.2 74.7-85.7 136.9-182.3 186.4-272.5 94.8-172.6 143-321.4 143.5-323.1l-189.4 240.3z" id="Layer_13"/>
    <path class="st0" d="M960 1019.7l-98.1 88.5S851 1226.9 960 1226.9s98.1-118.7 98.1-118.7l-98.1-88.5z" id="Layer_14"/>
    <path class="st0" d="M1045.6 1487.7c0 27.3-2.3 51.8-6.1 73.5v.1c-5.2 29.8-13.4 54.6-22.5 74.9-24.9 55.6-57 77.8-57 77.8s-32.1-22.2-57-77.8c-9.1-20.3-17.2-45.1-22.5-74.9v-.1c-3.8-21.8-6.1-46.2-6.1-73.5 0-166.9 85.6-176.6 85.6-176.6s85.6 9.7 85.6 176.6z" id="Layer_9"/>
    <path class="st0" d="M635.3 971.3c-5.8 23.5-11.7 61.9-.4 96.2l89-17.2c-1.4-59.3-58.4-62.6-88.6-79z" id="Layer_10"/>
    <path class="st0" d="M1284.7 971.3c-30.3 16.3-87.3 19.7-88.5 79l89 17.2c11.2-34.2 5.3-72.7-.5-96.2z" id="Layer_15"/>
    <g id="STROKES">
        <path class="st1" d="M1596.3 871.1c-63.4-49.3-26.8-225-26.8-225-63.9-11-109.7-60.5-139.2-106-49.5 90.2-111.7 186.8-186.4 272.5 0 0-95.6 18.9-97.6-53.2l238.1-302.1c-158.4-11.4-270.7-169-270.7-169l-93.5 11.7c-40 5-80.5 5-120.5 0l-93.5-11.7s-112.3 157.6-270.7 169l238.1 302.1c-2 72.1-97.6 53.2-97.6 53.2-74.7-85.6-136.9-182.3-186.4-272.5-29.5 45.5-75.3 95-139.2 106 0 0 36.6 175.7-26.8 225 0 0 75.6 92.1 26.8 169.3 0 0 121.9 133 80.4 203.7l92.6 4s-32.9 34.8-13.4 64c19.5 29.2 109.3 70.4 109.3 70.4s152.1 201.4 283.6 253.8c-9.1-20.3-17.2-45.1-22.5-74.9-3.8-21.8-6.1-46.2-6.1-73.6 0-167 85.6-176.6 85.6-176.6s85.6 9.7 85.6 176.6c0 27.3-2.3 51.8-6.1 73.6-5.3 29.8-13.4 54.6-22.5 74.9 131.5-52.3 283.6-253.8 283.6-253.8s89.8-41.2 109.3-70.4c19.5-29.2-13.4-64-13.4-64l92.6-4c-41.4-70.6 80.4-203.7 80.4-203.7-48.6-77.1 26.9-169.3 26.9-169.3zm-961.5 196.4c-11.2-34.3-5.4-72.7.4-96.2 30.3 16.3 87.3 19.6 88.5 79l-88.9 17.2zM960 1226.9c-109 0-98.1-118.7-98.1-118.7l98.1-88.5 98.1 88.5c0 .1 10.9 118.7-98.1 118.7zm325.2-159.4l-88.9-17.2c1.3-59.3 58.2-62.7 88.5-79 5.7 23.5 11.6 62 .4 96.2z"/>
        <path class="st1" d="M723.8 1050.3l-88.9 17.2c-11.2-34.3-5.4-72.7.4-96.2 30.2 16.4 87.2 19.7 88.5 79z"/>
        <path class="st1" d="M960 1019.7v207.2c-109 0-98.1-118.7-98.1-118.7l98.1-88.5z"/>
        <path class="st1" d="M523.5 1248.1l53-101.6"/>
        <path class="st1" d="M773.7 759.3c-2 72.1-97.6 53.2-97.6 53.2-74.7-85.6-136.9-182.3-186.4-272.5-94.8-172.6-143-321.4-143.5-323.1l189.4 240.3 238.1 302.1z"/>
        <path class="st1" d="M723.8 1050.3l-88.9 17.2c-11.2-34.3-5.4-72.7.4-96.2 30.2 16.4 87.2 19.7 88.5 79z"/>
        <path class="st1" d="M641.8 1226.9c-83.5-85.5-25-155.9-25-155.9l18-3.5"/>
        <path class="st1" d="M635.3 971.3c-7.7-4.2-13.7-9.2-16.6-16.2-14.1-34.5 57.4-142.6 57.4-142.6"/>
        <path class="st1" d="M1045.6 1487.7c0 27.3-2.3 51.8-6.1 73.6-5.3 29.8-13.4 54.6-22.5 74.9-24.9 55.6-56.9 77.8-56.9 77.8s-32.1-22.2-56.9-77.8c-9.1-20.3-17.2-45.1-22.5-74.9-3.8-21.8-6.1-46.2-6.1-73.6 0-167 85.6-176.6 85.6-176.6s85.4 9.6 85.4 176.6z"/>
        <path class="st1" d="M960 1019.7v207.2c-109 0-98.1-118.7-98.1-118.7l98.1-88.5z"/>
        <path class="st1" d="M880.6 1561.3c-.9-5.4-47.6-113.6-106.9-142.6"/>
        <path class="st1" d="M1058.1 1108.3S1069 1227 960 1227v-207.2l98.1 88.5z"/>
        <path class="st1" d="M1285.2 1067.5l-88.9-17.2c1.3-59.3 58.2-62.7 88.5-79 5.7 23.5 11.6 62 .4 96.2z"/>
        <path class="st1" d="M1396.5 1248.1l-53-101.6"/>
        <path class="st1" d="M1573.8 216.9c-.6 1.8-48.8 150.5-143.5 323.1-49.5 90.2-111.7 186.8-186.4 272.5 0 0-95.6 18.9-97.6-53.2l238.1-302.1 189.4-240.3z"/>
        <path class="st1" d="M1285.2 1067.5l-88.9-17.2c1.3-59.3 58.2-62.7 88.5-79 5.7 23.5 11.6 62 .4 96.2z"/>
        <path class="st1" d="M1285.2 1067.5l18 3.5s58.5 70.4-25 155.9"/>
        <path class="st1" d="M1243.9 812.6s71.5 108.1 57.4 142.6c-2.9 7-8.9 12-16.6 16.2"/>
        <path class="st1" d="M960 1226.9v-207.2l98.1 88.5c0 .1 10.9 118.7-98.1 118.7z"/>
        <path class="st1" d="M1039.4 1561.3c.9-5.4 47.6-113.6 106.9-142.6"/>
        <path class="st1" d="M773.7 759.3s159.6-82.8 372.7 0"/>
        <path class="st1" d="M323.7 871.1l199.8 29.2"/>
        <path class="st1" d="M806.2 288.2l68.2 306.3"/>
        <path class="st1" d="M1598.5 871.1l-199.9 29.2"/>
        <path class="st1" d="M1115.9 288.2l-68.2 306.3"/>
    </g>
</svg>
