<svg xmlns="http://www.w3.org/2000/svg" viewBox="0 0 1920 1920">
    <style>
        .st0{fill:#fff}.st1{fill:none;stroke:#231f20;stroke-width:50;stroke-linecap:round;stroke-linejoin:round;stroke-miterlimit:10}
    </style>
    <g id="Layer_5">
        <path class="st0" d="M605.5 974.3v49c-2-29.7 0-49 0-49z"/>
        <path class="st0" d="M1314.5 1023.3v-49s2 19.3 0 49z"/>
        <path class="st0" d="M1277.3 814.1s23.3-46.5 0-190.8-153.6-188.5-153.6-188.5C1070.2 246.3 960 217 960 217s-110.2 29.3-163.7 217.8c0 0-32.6 11.1-68.1 40.1-35.5 29.1-73.9 76.2-85.5 148.4-23.3 144.3 0 190.8 0 190.8s-67.5 71.4-37.2 160.2V1703h709.1V974.3c30.2-88.8-37.3-160.2-37.3-160.2zm-112.2-178c3.3-40.1 30.1-61.8 30.1-61.8 45.1 51.8 13.4 115.3 13.4 115.3s-46.9-13.4-43.5-53.5zm-440.2-61.8s26.7 21.7 30.1 61.8c3.3 40.1-43.4 53.5-43.4 53.5s-31.8-63.5 13.3-115.3z"/>
    </g>
    <path class="st0" d="M724.9 574.3c-45.1 51.8-13.4 115.3-13.4 115.3s46.8-13.4 43.4-53.5c-3.3-40.1-30-61.8-30-61.8z" id="Layer_6"/>
    <path class="st0" d="M1195.1 574.3s-26.7 21.7-30.1 61.8c-3.3 40.1 43.4 53.5 43.4 53.5s31.8-63.5-13.3-115.3z" id="Layer_7"/>
    <g id="STROKES">
        <path class="st1" d="M1314.5 974.3s35.6 360.8-354.5 360.8-354.5-360.8-354.5-360.8c-30.2-88.8 37.2-160.2 37.2-160.2s-23.3-46.5 0-190.8 153.6-188.5 153.6-188.5C849.8 246.3 960 217 960 217s110.2 29.3 163.7 217.8c0 0 130.3 44.2 153.6 188.5 23.3 144.3 0 190.8 0 190.8s67.5 71.4 37.2 160.2z"/>
        <path class="st1" d="M796.3 434.8s59.5 99.3 32.3 192.7"/>
        <path class="st1" d="M724.9 574.3s26.7 21.7 30.1 61.8c3.3 40.1-43.4 53.5-43.4 53.5s-31.8-63.5 13.3-115.3z"/>
        <path class="st1" d="M659.5 1005.4s19.8-17.7 41.2 8.2c21.4 25.8 59.4 117 259.4 117"/>
        <path class="st1" d="M1123.7 434.8s-59.5 99.3-32.3 192.7"/>
        <path class="st1" d="M1195.1 574.3s-26.7 21.7-30.1 61.8 43.4 53.5 43.4 53.5 31.8-63.5-13.3-115.3z"/>
        <path class="st1" d="M1260.5 1005.4s-19.8-17.7-41.2 8.2c-21.4 25.8-59.4 117-259.4 117"/>
        <path class="st1" d="M721.4 785.4s232-174 476.4 0"/>
        <path class="st1" d="M960 217v404.3"/>
        <path class="st1" d="M898.6 346v34.6"/>
        <path class="st1" d="M1019.9 346v34.6"/>
        <path class="st1" d="M1314.5 974.3v728.8"/>
        <path class="st1" d="M605.5 974.3v728.8"/>
    </g>
</svg>
