<svg xmlns="http://www.w3.org/2000/svg" viewBox="0 0 1920 1920">
    <style>
        .st0{fill:#fff}.st1{fill:none;stroke:#231f20;stroke-width:50;stroke-linecap:round;stroke-linejoin:round;stroke-miterlimit:10}
    </style>
    <g id="Layer_4">
        <path class="st0" d="M1677.8 1398c8.6-1 16.9-2.3 25.2-4-1.2.2-9.9 1.7-25.2 4z"/>
        <path class="st0" d="M1180.1 1235.1s-278-211-502.4-204.6c-68.8 2-118.6-17.4-153.9-52.8-58.1-58.2-77.1-159.9-77.1-281.8 0-45.9 2.7-94.6 7-145 1.5-17.9 2.2-34.8 2.2-50.5 0-105.6-32.1-164.6-65.1-197.4-35.2-34.9-71.5-40-71.5-40-1.4-6.9-4.2-11.8-7.6-15.2-10.3-10.3-26.3-7.3-26.3-7.3s-23.1 3.8-27.3 36.3c0 0-41.3 8.3-41.3 35.6 0 5 1.4 10.6 4.6 16.8 1.3 2.6 2.8 4.7 4.5 6.4 18.6 18.6 58-13.4 95.6 24.3 12.6 12.6 24.9 33.1 36.3 65.8 5.6 16.2 7.8 36.9 7.8 61.1 0 82.9-25.4 207.1-25.4 335.4 0 126 24.5 255.9 121.7 354.4 23.6 23.9 51.5 46 84.3 65.7 0 0 8.5 158.2 46.6 196.4 0 0-14.1 227.5-38.2 241.6h103.2s1.4-7.7 3.7-20.3H754c10.9-26.1 10.3-160.7 9.6-216.9 30.4 13.4 66.4 23.8 107 26.3 7.4 33 21.9 87.9 42.3 123.8 30.9 54.3-7.4 87.1-7.4 87.1h204.2c0-140.4-28.6-180.5-37.1-189.3-.1-.2-.3-.3-.4-.5l-.2-.2c-1.1-1.1-1.7-1.5-1.7-1.5l26-56.5c303.3 24.9 503.3-22.7 581.5-34.3-222.3 25.6-497.7-162.9-497.7-162.9z"/>
    </g>
    <g id="STROKES">
        <path class="st1" d="M1702.9 1394c-1.1.2-9.8 1.7-25.2 4-78.2 11.6-278.2 59.2-581.5 34.3l-26 56.5s39.5 26.6 39.5 191.4h-98.6"/>
        <path class="st1" d="M953.1 1463.2c-6.7-40.2-38.3-172.4 17.6-256.2"/>
        <path class="st1" d="M1703.1 1394s-.1 0 0 0h-.1c-8.2 1.7-16.6 3-25.2 4-222.2 25.6-497.7-162.9-497.7-162.9s-278-211-502.3-204.6c-224.4 6.4-246.7-214-224-479.7 22.8-265.7-134.4-288-134.4-288-5.6-27.9-33.9-22.5-33.9-22.5s-23.1 3.8-27.3 36.3c0 0-57.7 11.5-36.7 52.4s88.1-43 136.3 96.5C406 565 200 1034.4 546.2 1242.1c0 0 8.5 158.2 46.6 196.4 0 0-14.1 227.5-38.2 241.6h103.2s1.4-7.7 3.7-20.3c9-49.8 31-176.5 28.8-211.5-.8-12.8-2.1-31.5-4-52.4-4.6-50.7-12.6-114.3-25.6-138.3"/>
        <path class="st1" d="M1096.2 1432.3s54.8-94.3 57.5-123"/>
        <path class="st1" d="M686.4 1396c19 15.1 45.1 32.7 77.3 47 30.4 13.4 66.4 23.8 107 26.3"/>
        <path class="st1" d="M1011.2 1680.2H905.6s38.3-32.8 7.4-87.1c-20.4-35.9-34.9-90.8-42.3-123.8 25.7 1.6 53.2 0 82.4-6.1.2 1.1.4 2.2.5 3.2 5.4 35.9 70 108.6 74.5 150.8 4.5 42.1-16.9 63-16.9 63z"/>
        <path class="st1" d="M763.7 1443c.7 56.2 1.3 190.8-9.6 216.9h-92.5"/>
    </g>
</svg>
