<svg xmlns="http://www.w3.org/2000/svg" viewBox="0 0 1920 1920">
    <style>
        .st0{fill:#fff}.st1{fill:none;stroke:#231f20;stroke-width:50;stroke-linecap:round;stroke-linejoin:round;stroke-miterlimit:10}
    </style>
    <path class="st0" d="M1404 1087.2c-27.5-133.9-117.8-225.2-154.5-256l-8.1 37.1-36 55.5c-11.5-3.3-24.4-6.2-38.2-8.8-13.8-2.5-28.4-4.6-43.2-6.4-39.4-4.8-80.4-7.3-111.6-8.6-31.1-1.3-52.4-1.4-52.4-1.4s-85.2.4-164 10c-14.8 1.8-29.4 3.9-43.2 6.4-13.8 2.5-26.7 5.4-38.2 8.8l-36-55.5-8.1-37.1c-36.7 30.8-127 122.2-154.5 256 0 0-242.7 242.8-242.7 615.9h1373.2c.1-373.2-242.5-615.9-242.5-615.9zm-593 92.3c59.9-119.7 149-76.1 149-76.1s89.1-43.6 149 76.1c0 0 85.4 25.9 85.4 189.6s-234.3-9.2-234.3-9.2-234.3 172.9-234.3 9.2 85.2-189.6 85.2-189.6zM669.1 947.7s46.9 99 42.4 111.3-66.1 42.6-66.1 42.6c-56-100.9 23.7-153.9 23.7-153.9zm605.5 153.8s-61.6-30.2-66.1-42.6 42.4-111.3 42.4-111.3 79.7 53.1 23.7 153.9z" id="Layer_8"/>
    <path class="st0" d="M1194.3 1369c0 163.7-234.3-9.2-234.3-9.2s-234.3 172.9-234.3 9.2 85.4-189.6 85.4-189.6c59.9-119.7 149-76.1 149-76.1s89.1-43.6 149 76.1c-.1.1 85.2 26 85.2 189.6z" id="Layer_9"/>
    <path class="st0" d="M645.4 1101.5s61.6-30.2 66.1-42.6-42.4-111.3-42.4-111.3-79.7 53.1-23.7 153.9z" id="Layer_10"/>
    <path class="st0" d="M1250.9 947.7s-46.9 99-42.4 111.3 66.1 42.6 66.1 42.6c56-100.9-23.7-153.9-23.7-153.9z" id="Layer_20"/>
    <path class="st0" d="M1434.3 217l-192.9 168-164.2 279.8s-40.1-18.7-117.1-18.7S843 664.8 843 664.8L678.6 385 485.7 217l139.8 291.5-57.9-34.6L625.5 635l183.8 220.8-13.3 52.8c78.8-9.6 164-10 164-10s21.3.1 52.4 1.4c31.1 1.3 72.1 3.8 111.6 8.6l-13.2-52.9L1294.5 635l57.9-161.1-57.9 34.6L1434.3 217z" id="Layer_11"/>
    <path class="st0" d="M670.5 831.1l8.1 37.1 36 55.5c11.5-3.3 24.4-6.2 38.2-8.8 13.8-2.5 28.4-4.6 43.2-6.4l-150.6-193 25.1 115.6z" id="Layer_18"/>
    <path class="st0" d="M1167.2 915.1c13.8 2.5 26.7 5.4 38.2 8.8l36-55.5 8.1-37.1 25.1-115.6L1124 908.6c14.8 1.8 29.4 4 43.2 6.5z" id="Layer_19"/>
    <g id="STROKES">
        <path class="st1" d="M879.3 1003.1l18.3 21.5"/>
        <path class="st1" d="M714.6 923.8l-36-55.5-8.1-37.2-25.1-115.6L796 908.6"/>
        <path class="st1" d="M809.2 855.8L625.5 635l-57.9-161.1 120.8 72.2 129.2 215.2"/>
        <path class="st1" d="M1280.2 1233.7c-22.4-35.8-5.6-132.1-5.6-132.1s-61.6-30.2-66.1-42.6 42.4-111.3 42.4-111.3c-7.4-9.8-24-17.6-45.5-23.8-23-6.7-51.7-11.6-81.4-15.2-78.8-9.6-164-10-164-10s-85.2.4-164 10c-29.6 3.6-58.4 8.5-81.4 15.2-21.6 6.2-38.1 14.1-45.5 23.8 0 0 46.9 99 42.4 111.3s-66.1 42.6-66.1 42.6 16.8 96.3-5.6 132.1 11.2 131 11.2 131-8 125.7 37.1 157.2c0 0 80.6 24.1 271.9 24.1s271.9-24.1 271.9-24.1c45.1-31.6 37.1-157.2 37.1-157.2s33.6-95.2 11.2-131zM960 1359.8s-234.3 172.9-234.3 9.2 85.4-189.6 85.4-189.6c59.9-119.7 149-76.1 149-76.1s89.1-43.6 149 76.1c0 0 85.4 25.9 85.4 189.6s-234.5-9.2-234.5-9.2z"/>
        <path class="st1" d="M669.1 947.7s46.9 99 42.4 111.3c-4.5 12.3-66.1 42.6-66.1 42.6-56-100.9 23.7-153.9 23.7-153.9z"/>
        <path class="st1" d="M1194.3 1369c0 163.7-234.3-9.2-234.3-9.2s-234.3 172.9-234.3 9.2 85.4-189.6 85.4-189.6c27.7 64.5 149 71.7 149 71.7s121.3-7.2 149-71.7c-.1.1 85.2 26 85.2 189.6z"/>
        <path class="st1" d="M1274.6 1101.5s-61.6-30.2-66.1-42.6c-4.5-12.3 42.4-111.3 42.4-111.3s79.7 53.1 23.7 153.9z"/>
        <path class="st1" d="M1040.7 1003.1l-18.3 21.5"/>
        <path class="st1" d="M1109 1179.5c-27.7 64.5-149 71.7-149 71.7s-121.3-7.2-149-71.7c59.9-119.7 149-76.1 149-76.1s89.1-43.6 149 76.1z"/>
        <path class="st1" d="M1205.4 923.8l36-55.5 8.1-37.2 25.1-115.6L1124 908.6"/>
        <path class="st1" d="M1110.8 855.8L1294.5 635l57.9-161.1-120.8 72.2-129.2 215.2"/>
        <path class="st1" d="M1294.5 508.5L1434.3 217l-193 168-164.2 279.8s-40.2-18.7-117.2-18.7-117.2 18.7-117.2 18.7L678.6 385l-193-168 139.8 291.5"/>
        <path class="st1" d="M273.4 1703.1c0-373.1 242.7-615.9 242.7-615.9 27.5-133.9 117.8-225.2 154.5-256"/>
        <path class="st1" d="M1249.5 831.1c36.7 30.8 127 122.2 154.5 256 0 0 242.7 242.8 242.7 615.9"/>
        <path class="st1" d="M573 1461.6s57.9 80.6 57.9 241.5"/>
        <path class="st1" d="M1345.1 1461.6s-57.9 80.6-57.9 241.5"/>
        <path class="st1" d="M928 1468.2h64.3"/>
        <path class="st1" d="M960 1197.8v42.3"/>
    </g>
</svg>
