<svg xmlns="http://www.w3.org/2000/svg" viewBox="0 0 1920 1920">
    <style>
        .st0{fill:#fff}.st1{fill:none;stroke:#231f20;stroke-width:50;stroke-linecap:round;stroke-linejoin:round;stroke-miterlimit:10}
    </style>
    <path class="st0" d="M1703.1 1162.4s-265.4 101.8-445 10.3c-179.6-91.5-226.5-124.7-273.4-101.8-3.8 1.9-9.4 4.1-16.4 6.6s-15.3 5.3-24.8 8.3l104.1 188.7v62.9h-77.7l4.5 32H870.2l32-44.6-119-156.7-2.9-35.8c-76.4 20.5-144.4 37.6-144.4 37.6l-66.7 154.9h-84.7l45.8-38.9 33.2-125.8-77.8-21.7-62.9 21.7-82.4-38.9c-68.7 10.3-123.6-20.6-123.6-20.6l105.2-59.5s68.7 25.2 105.2 13.7c26.4-8.2 75.4-107.4 100.7-162.2 9.8-21.2 16-35.7 16-35.7s8.2-8.3 24.8-19.5c5.5-3.7 11.8-7.6 19.1-11.7 13.6-7.6 30.5-15.6 50.5-22.5 2.6-.9 5.3-1.8 8-2.7 33.6-10.8 75.6-18.5 125.9-17.5 5.4.1 11 .3 16.6.6 1.8.1 3.7.2 5.5.4 39.1 3 79.8 15.4 119.1 32.4 1.3.6 2.6 1.1 3.9 1.7 49.4 21.8 96.4 50.7 134.8 77.4.6.4 1.1.8 1.7 1.1 25.5 17.8 47.1 34.5 63.1 47.5 7.2 5.8 13.9 12 20.3 18.6 8.1 8.4 15.6 17.5 22.4 27 10.6 14.9 28.4 36.5 55.4 59.6 13.7 11.7 29.8 23.8 48.5 35.6 18.5 11.6 39.6 23 63.6 33.4 26.9 11.7 57.3 22.1 91.8 30.4 56.1 13.5 122.8 21.2 201.5 19.1 17.3-.5 35.1-1.4 53.6-2.8 9.6-.7 19.2-1.5 29.1-2.6z" id="Layer_6"/>
    <path class="st0" d="M1400.5 1085.9s-42.7 18.8-73.3 32.5c26.9 11.7 57.3 22.1 91.8 30.4l-18.5-62.9z" id="Layer_7"/>
    <path class="st0" d="M1260.4 832.8l-134.9-9-15.6-122.8-136.8 6-29.6-156.6L786.1 660l-90.2-68.7-74.7 95.9-87.3-72.9-26.4 134.9h-55.2l7.3 107.7 68.5 35.9c9.8-21.2 16-35.7 16-35.7s8.2-8.3 24.8-19.5c5.5-3.7 11.8-7.6 19.1-11.7 13.6-7.6 30.5-15.6 50.5-22.5 2.6-.9 5.3-1.8 8-2.7 33.6-10.8 75.6-18.5 125.9-17.5 5.4.1 11 .3 16.6.6 1.8.1 3.7.2 5.5.4 39.1 3 79.8 15.4 119.1 32.4 1.3.6 2.6 1.1 3.9 1.7 49.4 21.8 96.4 50.7 134.8 77.4l3.7-1.9c-.7 1-1.4 2-2 3 25.5 17.8 47.1 34.5 63.1 47.5 7.2 5.8 13.9 12 20.3 18.6l81.3-29.7 41.7-100.4z" id="Layer_16"/>
    <path class="st0" d="M1252.1 980.6l-36.9 68.9c13.7 11.7 29.8 23.8 48.5 35.6l55.9-37.1 21.4-83.4-88.9 16z" id="Layer_17"/>
    <g id="STROKES">
        <path class="st1" d="M585.3 1068.6l54.9 91.5-4.2 9.9"/>
        <path class="st1" d="M919.1 1093.4c26.5-28.6 57.2-70 71.3-119.4"/>
        <path class="st1" d="M774.1 874.1s-62.9 102.3 0 179.8l6.3 78.4"/>
        <path class="st1" d="M943.4 1085.9l104.1 188.7v62.9h-77.7"/>
        <path class="st1" d="M980.2 745l-62.8 73.2c-1.3-.6-2.6-1.1-3.9-1.7-39.3-17-80-29.3-119.1-32.4-1.8-.1-3.7-.3-5.5-.4-5.6-.3-11.1-.5-16.6-.6l-.2-.1V669.7L786 660l157.3-109.5 29.6 156.6 7.3 37.9z"/>
        <path class="st1" d="M646.5 800.6c-2.7.9-5.4 1.8-8 2.7-20 7-36.8 14.9-50.5 22.5-7.3 4.1-13.6 8-19.1 11.7l-63.3-79 1.8-9.4 26.4-134.9 87.3 72.9 19.1 15.9c0 .1 3.7 57.4 6.3 97.6z"/>
        <path class="st1" d="M772.2 783l.2.1c-50.3-1-92.3 6.7-125.9 17.5-2.5-40.2-6.2-97.5-6.2-97.5l-19.1-15.9 74.7-95.9 90.2 68.7-13.9 9.7V783z"/>
        <path class="st1" d="M1260.4 832.8l-41.8 100.4-81.3 29.7c-6.4-6.6-13.2-12.8-20.3-18.6-16-12.9-37.6-29.7-63.1-47.5.7-1 1.3-2 2-3 18.5-27.2 48.7-71.4 48.7-71.4l20.9 1.4 134.9 9z"/>
        <path class="st1" d="M1125.5 823.7l-20.9-1.4s-30.2 44.3-48.7 71.4l-3.7 1.8c-38.4-26.7-85.4-55.6-134.8-77.4l62.8-73.2L973 707l136.8-6 15.7 122.7z"/>
        <path class="st1" d="M568.9 837.5c-16.5 11.1-24.8 19.5-24.8 19.5s-6.2 14.5-16 35.7l-68.5-35.9-7.3-107.7h55.2l-1.8 9.4 63.2 79z"/>
        <path class="st1" d="M1340.9 964.5l-21.4 83.4-55.8 37.1c-18.7-11.8-34.8-23.9-48.5-35.6l36.9-68.9 88.8-16z"/>
        <path class="st1" d="M1703.1 1162.4s-265.4 101.8-445 10.3c-179.6-91.5-226.5-124.7-273.4-101.8-7.7 3.8-22.2 8.9-41.1 15-7.5 2.4-15.7 4.9-24.4 7.5-25.2 27.1-46.6 42.7-46.6 42.7l92.7 168.2 4.7 33.2 4.5 32H870.2l32-44.6-119-156.7-2.9-35.8C704 1152.8 636 1170 636 1170l-66.7 154.9h-84.7l45.8-38.9 33.2-125.8-77.8-21.7-62.9 21.7-82.4-38.9c-68.6 10.3-123.6-20.6-123.6-20.6l105.2-59.5s68.6 25.2 105.3 13.7c26.4-8.2 75.4-107.4 100.7-162.2 9.8-21.2 16-35.7 16-35.7s8.2-8.4 24.8-19.5c5.5-3.7 11.8-7.6 19.1-11.7 13.6-7.6 30.5-15.6 50.5-22.5 2.6-.9 5.3-1.8 8-2.7 33.6-10.8 75.6-18.5 125.9-17.5 5.4.1 10.9.3 16.6.6 1.8.1 3.6.2 5.5.4 39.1 3.1 79.8 15.4 119.1 32.4 1.3.6 2.6 1.1 3.9 1.7 49.4 21.8 96.4 50.7 134.8 77.4.6.4 1.1.8 1.7 1.1 25.5 17.8 47.1 34.5 63.1 47.5 7.2 5.8 13.9 12 20.3 18.6 8.1 8.4 15.6 17.5 22.4 27.1 10.6 14.9 28.4 36.5 55.4 59.6 13.7 11.7 29.8 23.8 48.5 35.6 18.5 11.7 39.6 23 63.6 33.4 26.9 11.7 57.3 22.1 91.8 30.4 74.7 17.9 168.1 25.6 284 13.5z"/>
        <path class="st1" d="M1419 1148.8c-34.4-8.3-64.9-18.7-91.8-30.4 30.6-13.7 73.3-32.5 73.3-32.5l18.5 62.9z"/>
        <path class="st1" d="M1674.1 1165.1l29-140.3"/>
        <path class="st1" d="M1620.5 1167.9l-4.2-134.2"/>
    </g>
</svg>
