<svg xmlns="http://www.w3.org/2000/svg" viewBox="0 0 1920 1920">
    <style>
        .st0{fill:#fff}.st1{fill:none;stroke:#231f20;stroke-width:50;stroke-linecap:round;stroke-linejoin:round;stroke-miterlimit:10}
    </style>
    <path class="st0" d="M1460.5 861.5c-458.8 70.8-366.7 40.9-592.6-27.3-165.5-50-261 20.4-293.9-13.1-8.8-8.9-13.1-25.3-13.1-53.3 0-10.3.6-22.2 1.8-35.9.8-9.7 1.2-18.8 1.2-27.4 0-47.6-12.3-76.9-29.5-94.6-39.8-40.9-105.7-19.6-105.7-19.6-.1-.2-1.5-2.3-4.1-5-8.3-8.3-28.8-21.5-61.2 5L216.9 654s2.3 24.4 12.5 44.4c2.9 5.6 6.4 10.9 10.7 15.2 6.2 6.2 14.1 10.3 23.9 10.3 35.2 0 115.2-11 159.1 33.6 6.8 6.9 12.7 15.1 17.5 24.9 23.3 47.9 53 147.4 116.9 211.3 33.5 33.5 76.4 57.2 132.7 58.7l-108 70.1s-.3 5.4-.3 14.2c0 30.3 3.4 101 33.9 131.4 6.3 6.3 13.8 10.9 22.7 13 0 0-12.1-35.3-12.1-67.7 0-7 .6-13.8 1.9-20.1 1.2-5.9 1.8-11.7 1.8-17.5 0-29.3-13.7-55-13.7-55l102.3-42.2c-2.9 16.1-5.8 37-5.8 58.3 0 28.7 5.1 57.9 22 76.5 35.4 38.9 75.6 69.3 75.6 110.6 0 8.9-1.9 18.3-6.1 28.5-23.6 57-102.9 171.8-102.9 171.8H878c.8-42.6 81.9-214.9 81.9-214.9l-.6-.6c-24.8-24.6-66.8-161.5-66.8-161.5 40.1-12.8 94.7-110.8 96.5-110 1.9.9 274.4-63.1 274.4-63.1 290.8-156.9 439.5-119.4 439.5-119.4-93.3-39.3-242.4 6.7-242.4 6.7zm0 0c-458.8 70.8-366.7 40.9-592.6-27.3-165.5-50-261 20.4-293.9-13.1-8.8-8.9-13.1-25.3-13.1-53.3 0-10.3.6-22.2 1.8-35.9.8-9.7 1.2-18.8 1.2-27.4 0-47.6-12.3-76.9-29.5-94.6-39.8-40.9-105.7-19.6-105.7-19.6-.1-.2-1.5-2.3-4.1-5-8.3-8.3-28.8-21.5-61.2 5L216.9 654s2.3 24.4 12.5 44.4c2.9 5.6 6.4 10.9 10.7 15.2 6.2 6.2 14.1 10.3 23.9 10.3 35.2 0 115.2-11 159.1 33.6 6.8 6.9 12.7 15.1 17.5 24.9 23.3 47.9 53 147.4 116.9 211.3 33.5 33.5 76.4 57.2 132.7 58.7l-108 70.1s-.3 5.4-.3 14.2c0 30.3 3.4 101 33.9 131.4 6.3 6.3 13.8 10.9 22.7 13 0 0-12.1-35.3-12.1-67.7 0-7 .6-13.8 1.9-20.1 1.2-5.9 1.8-11.7 1.8-17.5 0-29.3-13.7-55-13.7-55l102.3-42.2c-2.9 16.1-5.8 37-5.8 58.3 0 28.7 5.1 57.9 22 76.5 35.4 38.9 75.6 69.3 75.6 110.6 0 8.9-1.9 18.3-6.1 28.5-23.6 57-102.9 171.8-102.9 171.8H878c.8-42.6 81.9-214.9 81.9-214.9l-.6-.6c-24.8-24.6-66.8-161.5-66.8-161.5 40.1-12.8 94.7-110.8 96.5-110 1.9.9 274.4-63.1 274.4-63.1 290.8-156.9 439.5-119.4 439.5-119.4-93.3-39.3-242.4 6.7-242.4 6.7z" id="Layer_5"/>
    <g id="STROKES">
        <path class="st1" d="M693.9 953.6l73.3 104.9-150.9 62.2s19.6 36.7 11.9 72.5c-7.7 35.8 10.2 87.8 10.2 87.8-64-15.3-56.3-158.6-56.3-158.6l108-70.1c-163.9-4.3-214-197-249.6-270.1S304.7 723.8 264 723.8 216.9 654 216.9 654l146.4-63.6c43.1-35.3 65.3 0 65.3 0s150.1-48.6 133.9 141.5C546.4 922 641.9 766 867.8 834.2s133.9 98.1 592.6 27.3c0 0 149.1-46 242.6-6.8 0 0-148.8-37.5-439.5 119.4 0 0-272.6 64-274.4 63.1-1.9-.9-56.4 97.2-96.5 110 0 0 42.8 139 67.4 162 0 0-81.1 172.3-81.9 214.9H746.8s133.9-141.6 133.9-203c0 0-61-104.3-86.2-134.6-22.4-26.8-38.8-133.8 26.5-209.3"/>
        <path class="st1" d="M766.9 1524.1h-65.3s79.2-114.8 102.9-171.8c23.6-57-26.4-91.8-69.5-139-29.5-32.3-23.2-97-16.3-134.8"/>
        <path class="st1" d="M229.5 698.3s172.3-24.9 195.8-10.5"/>
    </g>
</svg>
