<svg xmlns="http://www.w3.org/2000/svg" viewBox="0 0 1920 1920">
    <style>
        .st0{fill:#fff}.st1{fill:none;stroke:#231f20;stroke-width:50;stroke-linecap:round;stroke-linejoin:round;stroke-miterlimit:10}
    </style>
    <path class="st0" d="M1386.1 862.5c0-14.7-4.3-27.7-4.3-27.7l-74.7-129.1c24.8-42 33.3-76.6 33.3-104.3 0-60-39.8-87.5-39.8-87.5 36.7-47.2-7.9-107.4-7.9-107.4s65.5-72 56.3-115.3c-9.2-43.2-74.7-74.3-137.5-52.4-62.9 21.9-134.8 11.8-134.8 11.8C1049.2 207.5 960 217 960 217s-89.2-9.5-116.7 33.7c0 0-71.9 10.1-134.8-11.8-62.9-21.9-128.4 9.2-137.5 52.4-9.2 43.2 56.3 115.3 56.3 115.3s-44.5 60.2-7.9 107.4c0 0-85.1 58.7-6.5 191.8l-74.7 129.1s-4.3 13-4.3 27.7c0 10.7 2.3 22.3 10.2 30.4 7.3 7.4 19.3 11.9 38.6 10 0 0 18 43.2 0 116 0 0-68.7 177.7 144.5 347 0 0 45.3 316.5 186.8 316.5h91.7c141.5 0 186.8-316.5 186.8-316.5 213.3-169.3 144.5-347 144.5-347-17.9-72.8 0-116 0-116 40.6 3.8 49.1-20 49.1-40.5zm-137.2 167.6c-37.7 96.1-103.6 174.7-118.7 310.6-5.7 51.6-25 84.9-46.7 106.5-20.6 20.4-43.3 30.2-58.9 34.9-11.3 3.4-18.8 4-18.8 4h-91.7s-9.9-.8-24.1-5.7c-16-5.5-37.5-16.1-56.7-36.4-20.4-21.6-38.1-54.2-43.6-103.3-15.1-135.9-81-214.5-118.7-310.6-21.9-55.8-13.9-104-3.4-134.5 8.2 3.4 24.9.6 59.2-26.7l.1-.1c17.2-13.6 38.5-24.4 60.6-32.8 13.7-5.2 27.6-9.5 41-13.1 46-12.2 85.6-15.6 85.6-15.6h91.7s39.6 3.4 85.6 15.6c16.3 4.3 33.4 9.8 49.8 16.6 19 7.9 37 17.5 51.9 29.4 2.2 1.7 4.2 3.3 6.3 4.9 30.1 22.7 45.2 25 52.9 21.8 10.5 30.5 18.5 78.7-3.4 134.5z" id="Layer_9"/>
    <path class="st0" d="M1252.3 895.6c-7.6 3.1-22.8.9-52.9-21.8l-39.2 70.7c-8.5 13.1-28.9 7.1-28.9-8.5l9.9-96.4c-16.4-6.8-33.5-12.2-49.8-16.6l-72.1 129.8c-8.5 13.2-28.9 7.2-28.9-8.5l14.1-136.9h-89.1l14.1 136.9c0 15.7-20.4 21.7-28.9 8.5L828.5 823c-13.4 3.6-27.3 7.9-41 13.1l10.3 99.9c0 15.7-20.4 21.7-28.9 8.5l-42-75.7-.1.1c-34.3 27.3-51 30-59.2 26.7-10.5 30.6-18.5 78.8 3.4 134.5 37.7 96.1 103.6 174.7 118.7 310.6 5.4 49.1 23.2 81.7 43.6 103.3l41.8-69.3 14.9 105.7c14.2 4.9 24.1 5.7 24.1 5.7h91.7s7.5-.7 18.8-4l15.1-107.4 43.8 72.6c21.7-21.6 41-54.9 46.7-106.5 15.1-135.9 81-214.5 118.7-310.6 21.9-55.9 13.9-104.1 3.4-134.6zm-274.1 456.9c-7.4 15.2-29 15.2-36.3 0-23-47.3-59.8-131.6-59.8-188.2 0-82.4 78-33.6 78-33.6s78-48.8 78 33.6c-.1 56.5-36.9 140.9-59.9 188.2z" id="Layer_10"/>
    <path class="st0" d="M727 868.8l42 75.7c8.5 13.1 28.9 7.1 28.9-8.5l-10.3-100c-22.1 8.4-43.4 19.2-60.6 32.8z" id="Layer_11"/>
    <path class="st0" d="M914.2 807.3s-39.6 3.4-85.6 15.6l72.1 129.8c8.5 13.2 28.9 7.2 28.9-8.5l-14.1-136.9h-1.3z" id="Layer_20"/>
    <path class="st0" d="M1004.6 807.3l-14.1 136.9c0 15.7 20.4 21.7 28.9 8.5l72.1-129.8c-46-12.2-85.6-15.6-85.6-15.6h-1.3z" id="Layer_21"/>
    <path class="st0" d="M1193.1 868.9c-14.9-11.9-33-21.5-51.9-29.4l-9.9 96.4c0 15.7 20.4 21.7 28.9 8.5l39.2-70.7c-2-1.5-4.1-3.1-6.3-4.8z" id="Layer_22"/>
    <path class="st0" d="M833.4 1444c19.1 20.3 40.7 30.9 56.7 36.4l-14.9-105.7-41.8 69.3z" id="Layer_23"/>
    <path class="st0" d="M1024.6 1482.1c15.5-4.6 38.3-14.5 58.9-34.9l-43.8-72.6-15.1 107.5z" id="Layer_24"/>
    <path class="st0" d="M978.2 1352.5c23-47.3 59.8-131.7 59.8-188.2 0-82.4-78-33.6-78-33.6s-78-48.8-78 33.6c0 56.6 36.8 140.9 59.8 188.2 7.4 15.1 29 15.1 36.4 0z" id="Layer_12"/>
    <g id="STROKES">
        <path class="st1" d="M887.1 538.8s-34.1-32.8-41.8-55c-7.8-22.3 10.4-30.1 10.4-30.1 55 2.6 31.4 85.1 31.4 85.1z"/>
        <path class="st1" d="M582.8 902.9c-69.4 6.5-44.5-68.1-44.5-68.1L613 705.7"/>
        <path class="st1" d="M743.2 478.7s-13.6-49.3-54.2-58.6c0 .1-28.5 104.4 54.2 58.6z"/>
        <path class="st1" d="M887.1 538.8s-34.1-32.8-41.8-55c-7.8-22.3 10.4-30.1 10.4-30.1 55 2.6 31.4 85.1 31.4 85.1z"/>
        <path class="st1" d="M1074.7 483.8c-7.8 22.3-41.8 55-41.8 55s-23.6-82.5 31.4-85.1c0 0 18.2 7.8 10.4 30.1z"/>
        <path class="st1" d="M1074.7 483.8c-7.8 22.3-41.8 55-41.8 55s-23.6-82.5 31.4-85.1c0 0 18.2 7.8 10.4 30.1z"/>
        <path class="st1" d="M1255.7 775.5C1415.2 593 1300.6 514 1300.6 514c36.7-47.2-7.9-107.4-7.9-107.4s65.5-72 56.3-115.3-74.7-74.3-137.5-52.4c-62.9 21.9-134.8 11.8-134.8 11.8C1049.3 207.5 960 217 960 217s-89.3-9.5-116.7 33.7c0 0-71.9 10.2-134.8-11.8s-128.4 9.2-137.5 52.4c-9.2 43.2 56.3 115.3 56.3 115.3s-44.5 60.2-7.9 107.4c0 0-114.6 79 44.9 261.5"/>
        <path class="st1" d="M1255.7 775.5c-17-91.8-54.7-214.9-78.9-296.7-10.9-36.9-19-65.4-21.3-78.8-9.9-59.2-159.7-130.1-159.7-130.1h-71.6s-149.8 71-159.7 130.1c-2.2 13.4-10.4 41.9-21.3 78.9-24.2 81.8-61.8 204.9-78.9 296.7-9.1 49.2-12.3 89.4-4.4 109.6 0 0 .6 7.6 7.7 10.5 8.2 3.4 24.9.6 59.2-26.7l.1-.1c17.2-13.6 38.5-24.4 60.6-32.8 13.7-5.2 27.6-9.5 41-13.1 46-12.2 85.6-15.6 85.6-15.6h91.7s39.6 3.4 85.6 15.6c16.3 4.3 33.4 9.8 49.8 16.6 19 7.9 37 17.5 51.9 29.4 2.2 1.7 4.2 3.3 6.3 4.9 30.1 22.7 45.2 25 52.9 21.8 7.1-2.9 7.7-10.5 7.7-10.5 8-20.3 4.8-60.5-4.3-109.7zM887.1 538.8s-34.1-32.8-41.8-55c-7.8-22.3 10.4-30.1 10.4-30.1 55 2.6 31.4 85.1 31.4 85.1zm187.6-55c-7.8 22.3-41.8 55-41.8 55s-23.6-82.5 31.4-85.1c0 0 18.2 7.8 10.4 30.1z"/>
        <path class="st1" d="M1307.1 705.7l74.7 129.1s24.9 74.7-44.5 68.1"/>
        <path class="st1" d="M1176.8 478.8c.3-1.2 14.1-49.4 54.2-58.6 0 0 28.5 104.3-54.2 58.6z"/>
        <path class="st1" d="M1248.9 1030.1c-37.7 96.1-103.6 174.7-118.7 310.6-5.7 51.6-25 84.9-46.7 106.5-20.6 20.4-43.3 30.2-58.9 34.9-11.3 3.4-18.8 4-18.8 4h-91.7s-9.9-.8-24.1-5.7c-16-5.5-37.5-16.1-56.7-36.4-20.4-21.6-38.1-54.2-43.6-103.3-15.1-135.9-81-214.5-118.7-310.6-21.9-55.8-13.9-104-3.4-134.5 8.2 3.4 24.9.6 59.2-26.7l.1-.1c17.2-13.6 38.5-24.4 60.6-32.8 13.7-5.2 27.6-9.5 41-13.1 46-12.2 85.6-15.6 85.6-15.6h91.7s39.6 3.4 85.6 15.6c16.3 4.3 33.4 9.8 49.8 16.6 19 7.9 37 17.5 51.9 29.4 2.2 1.7 4.2 3.3 6.3 4.9 30.1 22.7 45.2 25 52.9 21.8 10.5 30.5 18.5 78.7-3.4 134.5z"/>
        <path class="st1" d="M941.8 1352.5c7.4 15.2 28.9 15.2 36.3 0 23-47.3 59.8-131.6 59.8-188.2 0-82.4-78-33.6-78-33.6s-78-48.8-78 33.6c.1 56.5 36.9 140.9 59.9 188.2z"/>
        <path class="st1" d="M929.6 944.3c0 15.7-20.4 21.7-28.9 8.5L828.6 823c46-12.2 85.6-15.6 85.6-15.6h1.3l14.1 136.9z"/>
        <path class="st1" d="M797.9 935.9c0 15.7-20.4 21.7-28.9 8.5l-42-75.7c17.2-13.6 38.5-24.4 60.6-32.8l10.3 100z"/>
        <path class="st1" d="M1199.4 873.8l-39.2 70.7c-8.5 13.1-28.9 7.1-28.9-8.5l9.9-96.4c19 7.9 37 17.5 51.9 29.4 2.2 1.6 4.3 3.2 6.3 4.8z"/>
        <path class="st1" d="M1091.4 822.9l-72.1 129.8c-8.5 13.2-28.9 7.2-28.9-8.5l14.1-136.9h1.3c.1 0 39.6 3.4 85.6 15.6z"/>
        <path class="st1" d="M890.1 1480.4c-16-5.5-37.5-16.1-56.7-36.4l41.8-69.3 14.9 105.7z"/>
        <path class="st1" d="M1192.7 1365.9s-45.3 316.5-186.8 316.5h-91.7c-141.6 0-186.8-316.5-186.8-316.5-213.3-169.3-144.5-347-144.5-347 18-72.8 0-116 0-116C652.2 896.4 660 885 660 885s.6 7.6 7.7 10.5c-10.5 30.6-18.5 78.8 3.4 134.5 37.7 96.1 103.6 174.7 118.7 310.6 5.4 49.1 23.2 81.7 43.6 103.3 19.1 20.3 40.7 30.9 56.7 36.4 14.2 4.9 24.1 5.7 24.1 5.7h91.7s7.5-.7 18.8-4c15.5-4.6 38.3-14.5 58.9-34.9 21.7-21.6 41-54.9 46.7-106.5 15.1-135.9 81-214.5 118.7-310.6 21.9-55.8 13.9-104 3.4-134.5 7.1-2.9 7.7-10.5 7.7-10.5s7.8 11.4 77.2 17.9c0 0-17.9 43.2 0 116-.1 0 68.6 177.7-144.6 347z"/>
        <path class="st1" d="M1083.5 1447.2c-20.6 20.4-43.3 30.2-58.9 34.9l15.1-107.4 43.8 72.5z"/>
    </g>
</svg>
