<svg xmlns="http://www.w3.org/2000/svg" viewBox="0 0 1920 1920">
    <style>
        .st0{fill:#fff}.st1{fill:none;stroke:#231f20;stroke-width:50;stroke-linecap:round;stroke-linejoin:round;stroke-miterlimit:10}
    </style>
    <path class="st0" d="M1703.1 852.4s-32.5 98.9-433.6-88.1C868.3 577.2 736.9 654.9 736.9 654.9c-192.4 54.4-244.2 204.5-253.6 227.8-9.5 23.3-20.7 49.2-51.8 37.1-31.1-12.1-10.4-50.9 8.6-99.2 19-48.3-17.2-80.2-17.2-80.2C444.5 718 502 628.9 502 628.9s-93 69.9-141.8 80C311.4 719 276.8 767 276.8 767s-38.7 11.8-51.4 9.3c0 0-13.5 45.5 21.1 48.8 34.5 3.4 42.9 0 42.9 0s28.6 21.9 42.1 29.5c0 0-42.1 154.1 141.5 184.4l7.8 3.9c4.6 29.4 12.7 61.7 27.1 84l6.1 172.7-23.3 39.5h52.7l7.3-43.2 20-163.9s-12-23.6-20.9-56.8c15.1 4.4 30.1 6.2 44.6 6.1C607.6 1126 629 1200 629 1200l23 91 26-27-23-60-17.4-128c38.2-9 65.1-26.1 65.1-26.1 14.7-.8 28.9-2 42.6-3.5 20.7 60.8 50.2 147.9 50.2 147.9s-24.9 134.8-34.9 144.8h63.1l22-48s-7.4-74.7 6.1-94.3c6-8.8 3.2-57-1.7-107.6 39.8 50.8 82.5 107 82.5 132.9 0 48.7-34.8 81.1-34.8 81.1l-22 35.9h84s24.9-26.7 24.9-53.3c0-26.7 2.3-67.2 10.4-79.9 8.1-12.7-35.3-66-35.3-66s-4.7-81.2-41.3-134.9c119.6-48.2 161.8-116.5 161.8-116.5 638.4 116.3 622.8-36.1 622.8-36.1z" id="Layer_7"/>
    <g id="STROKES">
        <path class="st1" d="M918.7 1004.9c-6-8.8-12.9-17-20.8-23.8 0 0 70.7-40.5 78.8-191.2"/>
        <path class="st1" d="M734.6 805s37.3 119.8 46.6 169.3l28.4 62.4"/>
        <path class="st1" d="M549.8 1075.2c-9.4-35-15.4-80.7-.3-120.9"/>
        <path class="st1" d="M474.8 971.4s0 33.2 6 71.5"/>
        <path class="st1" d="M1080.5 888.4s-42.2 68.3-161.8 116.5c36.6 53.7 41.3 134.9 41.3 134.9s43.4 53.3 35.3 66c-8.1 12.8-10.4 53.3-10.4 79.9 0 26.6-24.9 53.3-24.9 53.3h-84l22-35.9s34.8-32.4 34.8-81.1c0-25.9-42.7-82.1-82.5-132.9-14.7-18.8-29-36.9-40.6-52.4-20.1 3.9-41.5 7.2-64.3 9.7-13.7 1.5-27.9 2.7-42.6 3.5 0 0-26.9 17.1-65.1 26.1-13.3 3.1-27.9 5.2-43.3 5.3-14.4.1-29.4-1.7-44.6-6.1 8.9 33.2 20.9 56.8 20.9 56.8l-20 163.9-7.3 43.2h-52.7l23.3-39.5-6.1-172.7c-14.4-22.4-22.5-54.7-27.1-84l-7.8-3.9c-183.6-30.3-141.5-184.4-141.5-184.4-13.5-7.6-42.1-29.5-42.1-29.5s-8.4 3.4-42.9 0-21.1-48.8-21.1-48.8c12.6 2.5 51.4-9.3 51.4-9.3s34.5-48 83.4-58.1c48.8-10.1 141.8-80 141.8-80s-57.5 89-79.1 111.5c0 0 36.2 31.9 17.2 80.2-19 48.3-39.7 87.1-8.6 99.2 31.1 12.1 42.3-13.8 51.8-37.1s61.3-173.4 253.6-227.8c0 0 131.4-77.7 532.5 109.4 401.2 187.1 433.6 88.1 433.6 88.1s15.7 152.4-622.5 36z"/>
        <path class="st1" d="M851.9 1196.7c-13.5 19.6-6.1 94.3-6.1 94.3l-22 48h-63.1c10-10 34.9-144.8 34.9-144.8s-29.6-87-50.2-147.9c22.8-2.5 44.2-5.7 64.3-9.7 11.6 15.6 25.9 33.6 40.6 52.4 4.9 50.7 7.6 98.9 1.6 107.7z"/>
        <path class="st1" d="M678 1264l-26 27-23-91s-21.4-74-34.7-118.7c15.4-.1 30-2.2 43.3-5.3l17.4 128 23 60z"/>
    </g>
</svg>
