<svg xmlns="http://www.w3.org/2000/svg" viewBox="0 0 1920 1920">
    <style>
        .st0{fill:#fff}.st1{fill:none;stroke:#231f20;stroke-width:50;stroke-linecap:round;stroke-linejoin:round;stroke-miterlimit:10}
    </style>
    <g id="Layer_2">
        <path class="st0" d="M757.7 397.7s.8-2.5 2.6-6.2c-1.8 3.7-2.6 6.2-2.6 6.2 27.2 27.2 77.8 9.1 77.8 9.1s5.8-6.7 6.7-15.1c-1 8.4-6.7 15.1-6.7 15.1s-50.6 18.1-77.8-9.1z"/>
        <path class="st0" d="M932.4 344.5s-71.5-149.8-202.1-124.7C599.7 245 583.7 356.5 583.7 356.5S374.5 336.6 363 505.4c0 0-6.4 25.6 20.5 34.5 4.4 1.5 13.2 1.7 25.3 1.2-3.2 29.8 1.9 94.2 101.3 108.8 76.5 11.2 187.8 19 276.8 58.1 62.7 27.5 114.3 70.6 134.9 141.4 49.9 171.3 66.6 578.3-57 853.7h468.7C1577.2 594 932.4 344.5 932.4 344.5zm-96.9 62.3s-50.6 18.2-77.8-9.1c0 0 .8-2.5 2.6-6.2 5.8-12 22.1-36.1 55.8-26.2 22 6.5 26.9 16.9 26.3 25.6v.8c-1.1 8.4-6.9 15.1-6.9 15.1z"/>
        <path class="st0" d="M842.3 390.9c.6-8.8-4.2-19.1-26.3-25.6-33.7-9.9-50 14.3-55.8 26.2-1.8 3.7-2.6 6.2-2.6 6.2 27.2 27.2 77.8 9.1 77.8 9.1s5.8-6.7 6.7-15.1v-.4c.2-.1.2-.3.2-.4z"/>
        <path class="st0" d="M816.1 365.3c22 6.5 26.9 16.9 26.3 25.6.6-8.8-4.3-19.1-26.3-25.6-33.7-9.9-50 14.3-55.8 26.2 5.8-12 22.1-36.1 55.8-26.2z"/>
        <path class="st0" d="M842.3 391.7v-.4.4z"/>
    </g>
    <g id="STROKES">
        <path class="st1" d="M676.2 530.9c-67.8-19.2-266 17.9-292.8 9-26.9-9-20.5-34.5-20.5-34.5 11.5-168.8 220.7-148.9 220.7-148.9S599.7 245 730.3 219.8s202.1 124.7 202.1 124.7 644.8 249.6 401 1358.6"/>
        <path class="st1" d="M408.7 541c-3.2 29.8 1.9 94.2 101.3 108.8C640.4 669 871.9 678 921.7 849.3c49.9 171.3 66.5 578.3-57 853.7"/>
        <path class="st1" d="M655.3 345.8l2.6-10.3"/>
        <path class="st1" d="M757.7 397.7s14.3-45.4 58.4-32.4c44.1 13 19.5 41.5 19.5 41.5s-50.7 18.1-77.9-9.1z"/>
        <path class="st1" d="M786.8 707.9s118.7 13.8 153.7-97.3"/>
    </g>
</svg>
