<svg xmlns="http://www.w3.org/2000/svg" viewBox="0 0 1920 1920">
    <style>
        .st0{fill:#fff}.st1{fill:none;stroke:#231f20;stroke-width:50;stroke-linecap:round;stroke-linejoin:round;stroke-miterlimit:10}.st2{fill:#231f20}
    </style>
    <g id="Layer_10">
        <path class="st0" d="M779.9 1205.8c-5.8-2.5-11.2-5.2-16.3-8.3l16.3 8.3z"/>
        <path class="st0" d="M1703.1 629s-323.6 87.2-512.5 165.3c-112.3 46.4-273.9 211.8-350.1 306.5l29.8 86.6-90.3 18.4-16.3-8.3-142.4-72.4c-62.3-2.1-102.2 12.7-102.2 12.7-135.9 37.5-302 207.4-302 207.4l27.8-139.5 170.3-184 157.4-21.7c74.6 42.2 104.2 15.7 104.2 15.7-32.3-14.3-39.3-55.8-39.3-55.8l-236.9-24.6L665 880.1l110.3-26s-82.7 69.8-74.6 94.1c8.1 24.3 66.7 36.3 66.7 36.3s103.1-30.7 128.1-167.2l174.1-154.6 396.5-88 237 54.3z"/>
    </g>
    <g id="STROKES">
        <path class="st1" d="M840.4 1100.8c76.2-94.7 237.8-260.1 350.1-306.5C1379.5 716.2 1703 629 1703 629l-236.9-54.3-396.5 88-174.1 154.7c-25.1 136.5-128.2 167.2-128.2 167.2s-58.6-12-66.7-36.3c-8.1-24.3 74.6-94.1 74.6-94.1l-110.3 26-264.4 55.3L637.4 960s7 41.5 39.3 55.8c0 0-29.6 26.5-104.2-15.7l-157.4 21.7-170.3 184-27.8 139.5s166.1-169.9 302-207.4c0 0 39.9-14.8 102.2-12.7"/>
        <path class="st1" d="M1069.7 662.7l18.7-56.6"/>
        <path class="st1" d="M415.1 1021.8l-74.4-22.2"/>
        <path class="st2" d="M1007 713.4v.9c0 3.2 5 3.2 5 0v-.9c0-3.2-5-3.2-5 0v.9c0 3.2 5 3.2 5 0v-.9c0-3.2-5-3.2-5 0z"/>
        <path class="st1" d="M687.7 1067.7s8.2 102.4 92.2 138.1c0 0-32.5 35.7 11.5 58.6 43.9 22.9 68.8 80.9 68.8 80.9"/>
        <path class="st1" d="M853.7 1195.1s33.1-25.6 63.1 124.8"/>
    </g>
</svg>
