<svg xmlns="http://www.w3.org/2000/svg" viewBox="0 0 1920 1920">
    <style>
        .st0{fill:#fff}.st1{fill:none;stroke:#231f20;stroke-width:50;stroke-linecap:round;stroke-linejoin:round;stroke-miterlimit:10}
    </style>
    <path class="st0" d="M1056.3 495.5L955 454.8c-8.2-3.3-17.2-3.8-25.8-1.6l-573 152.4s-139.4 26.6-139.4 169.1c0 0 21.6 27.4 77.7 51.3 43.4 18.5 107.4 34.9 198 34.9h5.6c74.5-.6 166.6-12.1 279.6-42.4 6.8-3 16.3 10.9 44.2 25.8-87.8 34-349.7 122.6-583.8 71.8 0 0-11.7 162 220.4 136.1 232-25.9 664.8 89.6 1076 650.8l167.9-603.3c.1 0 44.5-596.8-646.1-604.2zM907.1 649s6.8-67 74.5-65.5L1056 631s-52.6 79.7-148.9 18z" id="Layer_2"/>
    <path class="st0" d="M907.1 649c96.3 61.7 148.9-18 148.9-18l-74.5-47.4c-67.6-1.5-74.4 65.4-74.4 65.4z" id="Layer_4"/>
    <g id="STROKES">
        <path class="st1" d="M1702.5 1099.7s44.4-596.8-646.1-604.2l-101.3-40.7c-8.2-3.3-17.2-3.8-25.7-1.6l-573 152.4S217 632.2 217 774.7c0 0 126.2 160.1 560.9 43.8 19.8-8.8 61.5 125.1 511.5 11"/>
        <path class="st1" d="M822 844.4c-87.8 34.1-349.7 122.6-583.8 71.7 0 0-11.7 162 220.3 136.1s664.8 89.6 1076 650.8"/>
        <path class="st1" d="M821.5 645.3s55-173.8 149.2-168 179.6 83.9 179.6 83.9"/>
        <path class="st1" d="M907.1 649s6.8-67 74.5-65.4L1056 631s-52.6 79.7-148.9 18z"/>
        <path class="st1" d="M238.1 800.2v44.2"/>
        <path class="st1" d="M294.6 826l-.8 43.4"/>
        <path class="st1" d="M343.8 844.4l1.1 39.8"/>
        <path class="st1" d="M1087 1128.6s243.4 39.2 327.3-251.8"/>
        <path class="st1" d="M248.2 893.8l3.7 19.6"/>
        <path class="st1" d="M396.5 857.2l4.4 27.8"/>
        <path class="st1" d="M441.4 864.3l6.9 24.5"/>
        <path class="st1" d="M498.2 860.9l11.3 22.8"/>
        <path class="st1" d="M554.4 864.3l8.2 17.5"/>
    </g>
</svg>
