<svg xmlns="http://www.w3.org/2000/svg" viewBox="0 0 1920 1920">
    <style>
        .st0{fill:#fff}.st1{fill:none;stroke:#231f20;stroke-width:50;stroke-linecap:round;stroke-linejoin:round;stroke-miterlimit:10}.st2{fill:#231f20}
    </style>
    <path class="st0" d="M1283.2 1417.1c1.7-3.5 154.4-322.7 184.3-517.3 0 0-33.9 101.6-141.1 101.6 0 0-60.2-8.1-86.5-65.2l13.2 142.3-22.6 1.9-39.5-127.9 20.7 137.3-126-65.8 99.7 65.8-33.9 20.7-176.8-74.2c-9.4 74.3-64 100.6-64 100.6-143 54.6-203.2-45.2-203.2-45.2l-82.8 129.8c124.1 103.5 205 481.6 205 481.6l-220.1-291.6-159.9-329.2-74-354.9 274.4 2.5c309.4 132.4 369.6-39.5 369.6-39.5l-64-171.9-73.2-32.5-257.7 169.2 259.6-231.4L483.7 217 843 314.8s110.9-18.8 176.8 18.8 184.4 26.3 184.4 26.3-65.8 97.8-197.5 35.7c0 0 62.1 111 77.1 252.1l50.8 32s80.9-41.4 156.1 3.8l180.6-148.6V277.1s139.9 178.7 139.9 470.3c0 290.2-324.9 666.2-328 669.7z" id="Layer_5"/>
    <g id="STROKES">
        <path class="st1" d="M1239.9 936.2c26.3 57.1 86.5 65.2 86.5 65.2 107.2 0 141.1-101.6 141.1-101.6-30.1 195.6-184.4 517.3-184.4 517.3s328-378.1 328-669.7-139.9-470.3-139.9-470.3v257.7l-180.6 148.6c-75.2-45.1-156.1-3.8-156.1-3.8l-50.8-32c-15-141.1-77.1-252.1-77.1-252.1 131.7 62.1 197.5-35.7 197.5-35.7s-118.5 11.3-184.4-26.3S843 314.8 843 314.8L483.7 217l400.7 206.9-259.6 231.4L882.5 486l73.3 32.4 64 171.9s-60.2 171.9-369.6 39.5l-274.4-2.5 74 354.9 159.9 329.2L829.8 1703s-80.9-378.1-205-481.6l82.8-129.8s60.2 99.7 203.2 45.1c0 0 54.6-26.2 64-100.6l176.8 74.3 33.9-20.7-99.7-65.8 126 65.8-20.8-137.2 39.5 127.9 22.6-1.9-13.2-142.3z"/>
        <path class="st1" d="M1467.6 899.8s33.9-238.9 3.8-364.9"/>
        <path class="st1" d="M707.6 1091.7L559 871.6"/>
        <path class="st1" d="M624.8 1221.5s-122.3-114.7-174.9-139.2"/>
        <path class="st1" d="M1012.3 800.1s18.8 82.8 75.2 109.1c0 0-159.9 35.3-165.5 71.3-5.6 36 52.7 55.8 52.7 55.8"/>
        <path class="st1" d="M375.9 727.3l-10.7-64.5"/>
        <path class="st1" d="M375.9 727.3l-67.1-8.5"/>
        <path class="st1" d="M1471.3 277.1l-24.4-60.2"/>
        <path class="st1" d="M1471.3 277.1l-63.9-16.9"/>
        <path class="st1" d="M1151.5 1110.5l-63.9 68.6"/>
        <path class="st1" d="M1253.1 1078.5s-46.7 15.7-61 89.6"/>
    </g>
</svg>
