<svg xmlns="http://www.w3.org/2000/svg" viewBox="0 0 1920 1920">
    <style>
        .st0{fill:#fff}.st1{fill:none;stroke:#231f20;stroke-width:50;stroke-linecap:round;stroke-linejoin:round;stroke-miterlimit:10}
    </style>
    <path class="st0" d="M1702.3 1224.3c-.5.9-67.1 118.7-153.3 114.3-38.6-2-88.7-21.5-132.5-42.7 19.7 36.4 34 81.6 34 81.6 8.3 54.4-23.6 50.8-75.7 69.8-52 18.9-52-22.5-52-22.5 2-7.5 3.1-15.4 3.4-23.4-1.1 11.6-31.7 28.6-71.9 32-41 3.5-40.8-38.6-40.8-38.6 21.2-35.1-32.9-142.8-32.9-142.8-15.9-15.3-24.3-56.3-28.8-94.5-57 56.9-122.8 79.4-177.1 87.3-10.3 35.8-21.2 82.4-21.2 119.5 0 7 .4 13.8 1.3 20 9.5 68.3-34.3 81.2-34.3 81.2s-81.9 7-111.2-34.4c-28.2 41.7-53.1 75.4-53.1 75.4v18.5c-.8 29.2-24.6 33.8-76.1 33.8-51.5 0-60.8-30.7-60.8-30.7 36.9-22.3 46.9-80 46.9-80s63.1-118.5 80.8-149.2c17.7-30.8-8.5-62.3-8.5-62.3-146.9 0-246.9-88.5-246.9-88.5l-85.4-16.2c-135.4 51.5-189.9 9.2-189.9 9.2 0-66.9 55.3-80.8 55.3-80.8l22.3-32.3 83.7-32.6 134 7.6 60.2 3.4c7.7-2.9 15.2-6.3 22.3-10.2 30.9-16.6 56.9-41.7 81.3-70.9 30-35.9 57.5-78.2 88.5-118.8 12.4-16.3 25.4-32.4 39.4-47.8 36.8-40.5 80.2-75.5 137.3-95.5 7.3-2.6 14.9-4.9 22.7-7 9.5-2.5 18.8-4.4 27.9-5.8 50.5-7.8 95 .9 134 19.2.2.1.5.2.7.3 44.5 21 82.1 54.4 113.7 90 11.7 13.2 22.7 26.7 32.8 40 27.5 36.1 49.5 70.5 66.9 92.8 1.2 1.6 2.4 3.2 3.6 5 14.1 21.1 24.1 55 31.1 93.9 7 38.8 11.2 82.5 13.5 123.2 22.5 43.3 51.5 91.3 82.5 122 17.9 17.8 36.5 29.8 54.8 31.8 87.3 9.2 176.3-43.6 177.5-44.3z" id="Layer_2"/>
    <path class="st0" d="M1338.3 754.9c-24.2-7.9-49.3 19.9-65.8 45.2 27.5 36.1 49.5 70.5 66.9 92.8 1.2 1.6 2.4 3.2 3.6 5 20.6-10.8 38.3-24.9 38.3-24.9l34.8-82.4s-35.7-22-77.8-35.7z" id="Layer_4"/>
    <path class="st0" d="M672 707.3c-65.9-39.4-79.6-71.4-79.6-71.4s-61.3 138.2-13.7 205.9c26.9 38.4 67.1 66.4 96.9 83.6 30-35.9 57.5-78.2 88.5-118.8-19.6-31.2-52.2-75.5-92.1-99.3z" id="Layer_12"/>
    <path class="st0" d="M913.9 569.6l-84.5-135s-56.7 154.7-75 213.1c-1.6 5-2.3 10.2-2.3 15.5 0 33 28 70.4 51.3 95.8 36.8-40.5 80.2-75.5 137.3-95.5-2.8-22.7-8.5-46-12.7-61.5-3-11.5-7.8-22.4-14.1-32.4z" id="Layer_13"/>
    <path class="st0" d="M1311.2 644.8l18.9-122.3s-43.9 2.8-98.5 13.7c-31.7 6.4-72.1 70.2-100.3 122.5 13.7-33.6 18.8-78.4 20.6-99.9.6-7.8.3-15.6-1-23.3l-29.1-174.8s-39.4 43.6-105.5 108.3c-51.2 50.1-34.9 142.5-24.9 181.5 50.5-7.8 95 .9 134 19.2.2.1.5.2.7.3 44.5 21 82.1 54.4 113.7 90 28.9-25.2 51.4-65 62.2-86.4 4.5-9 7.6-18.8 9.2-28.8z" id="Layer_14"/>
    <path class="st0" d="M512.8 870.4s-6.9 60.5-11.7 81.2c-2.4 10.6 3.8 32.5 10.5 51.5l60.2 3.4c7.7-2.9 15.2-6.3 22.3-10.2-6.9-35.6-19.9-75-19.9-75l-61.4-50.9z" id="Layer_15"/>
    <g id="STROKES">
        <path class="st1" d="M738.5 1236.5s-60-60.8-34.6-136.2c25.4-75.4 80-74.6 80-74.6"/>
        <path class="st1" d="M1229.8 973.8c-6.3 65.8-28 116-34.1 129"/>
        <path class="st1" d="M1374.9 1447.3c-52 18.9-52-22.5-52-22.5 2-7.5 3.1-15.4 3.4-23.4v-.6c2.4-58.3-33-123.7-33-123.7-41.4-16.5-53.2-79.2-53.2-79.2-17.8-16.5-33.8-59.9-44.5-95.1-1 2.2-1.6 3.3-1.6 3.3-13.2 19.7-27.4 36.7-42.2 51.5-92.5 92.4-208.4 94.2-260.4 89.5-1.9 23.4-3.7 40.2-3.7 40.2-4.6 47.7-131.5 219.2-131.5 219.2v18.5c-.8 29.2-24.6 33.8-76.2 33.8s-60.8-30.7-60.8-30.7c36.9-22.3 46.9-80 46.9-80s63.1-118.5 80.8-149.2c17.7-30.8-8.5-62.3-8.5-62.3-146.9 0-246.9-88.5-246.9-88.5l-85.4-16.2c-135.4 51.5-189.9 9.2-189.9 9.2 0-66.9 55.3-80.8 55.3-80.8l22.3-32.3 83.7-32.6 134 7.6 60.2 3.4c7.7-2.9 15.2-6.3 22.4-10.2 30.9-16.6 56.9-41.7 81.3-70.9 30-35.9 57.5-78.2 88.4-118.8 12.5-16.4 25.5-32.4 39.4-47.8 36.8-40.5 80.2-75.5 137.3-95.5 7.3-2.6 14.9-4.9 22.7-7 9.5-2.5 18.8-4.4 27.9-5.8 50.5-7.8 95 .9 134 19.2.2.1.5.2.7.3 44.5 21 82.1 54.4 113.7 90 11.7 13.2 22.7 26.7 32.8 40 27.5 36.1 49.5 70.5 66.9 92.8 1.2 1.6 2.4 3.2 3.6 5 28.2 42.2 39.9 135.7 44.6 217.1 4.5 77.8 2.6 144.5 2.6 144.5 9.3 8.2 18.3 21.7 26.3 36.6 19.7 36.4 34 81.6 34 81.6 8.5 54.5-23.4 50.9-75.4 69.8z"/>
        <path class="st1" d="M891 1115.9c7.1 27 3.8 89.6.4 131.2"/>
        <path class="st1" d="M809.3 1431.1c29.3 41.4 111.2 34.4 111.2 34.4s43.8-12.9 34.4-81.2c-5.4-39 7.7-96.9 19.9-139.5"/>
        <path class="st1" d="M1416.6 1296c43.7 21.1 93.9 40.7 132.5 42.7 86.2 4.4 152.8-113.4 153.3-114.3"/>
        <path class="st1" d="M1702.4 1224.3c-1.3.8-90.3 53.5-177.5 44.4-49.8-5.2-101.7-85.4-137.2-153.8"/>
        <path class="st1" d="M991.3 650.6c-10-39-26.3-131.4 24.9-181.5 66.1-64.7 105.5-108.3 105.5-108.3l29.1 174.8c1.3 7.7 1.6 15.6 1 23.4-1.8 21.4-7 66.2-20.6 99.9"/>
        <path class="st1" d="M803.4 758.9c-27-29.4-60.4-75-49-111.2 18.3-58.4 75-213.1 75-213.1l84.5 135c6.3 10 11 20.9 14.1 32.3 4.2 15.5 9.8 38.8 12.7 61.5"/>
        <path class="st1" d="M675.6 925.4c-29.8-17.1-69.9-45.2-96.9-83.6-47.6-67.7 13.7-205.9 13.7-205.9s13.7 32 79.6 71.4c39.9 23.8 72.5 68.1 92 99.3"/>
        <path class="st1" d="M1330 522.5l-18.9 122.3c-1.6 10.1-4.7 19.8-9.3 28.9-10.8 21.4-33.4 61.2-62.2 86.4-31.6-35.6-69.2-69-113.7-90 1.8-3.6 3.6-7.4 5.2-11.3 28.3-52.4 68.6-116.2 100.3-122.5 54.7-11.1 98.6-13.8 98.6-13.8z"/>
        <path class="st1" d="M1131.2 658.7c-2 3.7-4 7.4-5.9 11"/>
        <path class="st1" d="M1416.1 790.6l-34.8 82.4s-17.7 14.1-38.3 24.9c-1.2-1.7-2.4-3.4-3.6-5-17.4-22.3-39.4-56.7-66.9-92.8 16.5-25.2 41.6-53.1 65.8-45.2 42.1 13.7 77.8 35.7 77.8 35.7z"/>
        <path class="st1" d="M594.2 996.3c-7.2 3.9-14.6 7.3-22.4 10.2l-60.2-3.4c-6.7-19-13-40.9-10.5-51.5 4.8-20.7 11.7-81.2 11.7-81.2l61.6 51s12.9 39.4 19.8 74.9z"/>
        <path class="st1" d="M1326.3 1400.8v.6c-1.1 11.6-31.7 28.6-71.9 32-41 3.5-40.8-38.6-40.8-38.6 21.2-35.1-32.9-142.8-32.9-142.8-15.9-15.3-24.3-56.3-28.8-94.5 14.8-14.7 28.9-31.8 42.2-51.5 0 0 .6-1.1 1.6-3.3 10.6 35.1 26.6 78.6 44.5 95.1 0 0 11.8 62.7 53.2 79.2-.1.1 35.3 65.5 32.9 123.8z"/>
        <path class="st1" d="M1326.3 1400.8v.6"/>
    </g>
</svg>
