<svg xmlns="http://www.w3.org/2000/svg" viewBox="0 0 1920 1920">
    <style>
        .st0{fill:#fff}.st1{fill:none;stroke:#231f20;stroke-width:50;stroke-linecap:round;stroke-linejoin:round;stroke-miterlimit:10}
    </style>
    <path class="st0" d="M1703.1 695.1c-5.5-3.9-10.6-8.2-15.5-12.9-45.6-44.1-64-121.6-71.3-173.7-4.4-31.5-4.8-53.8-4.8-53.8-10.3 2.2-20.4 3-30.2 2.5-110.8-5.1-187.1-166.4-187.1-166.4-17.9 272.5-229.1 544.8-356.7 552.2-37.2-19.1-79.6-43.2-125.1-73 5.3 38.4-7.6 61.5-25 75.3-25.2 20.1-60.6 21.3-87.7 3.9l-24.8-15.9s-33.9 168.4-379 104.5c-22.6 51.5-75.2 96.3-75.2 96.3s-88.8 64.6-74.9 167.9c.1-.1 150.5-88.4 220.3 78.2 19.2.7 41 3 65.8 7.6 187.3 34.5 160.7-14.6 321.4-22.6 3.6-.2 7.2-.4 10.6-.7-98 58.4-306.3 161.4-484.6 108.7 0 0 89.5 222.4 390.5 80 0 0 64.9 10.9 132.1-4.4 26 24.9 81.3 51.2 198.7 52 0 0 110.9 185.7 417 141.3l79.5-606.5c15.6-12.4 30-26 42.7-40.8-21.9-65.3 26-195.9 47.8-253.3 5.2-13.6 15.5-46.4 15.5-46.4zm-948.9 335.5S780.7 912 934 973c0 0-39.3 109.4-179.8 57.6z" id="Layer_2"/>
    <path class="st0" d="M912.2 770.1c-31-20.3-63.5-43.3-96.7-69.3-199.1-155.4-414.7-205.2-451.3-246 4.8 6.2 212.1 272.4 410.5 378.6l24.8 15.9c27.1 17.3 62.5 16.2 87.7-3.9 17.4-13.9 30.4-36.9 25-75.3z" id="Layer_4"/>
    <path class="st0" d="M395.8 938c-3.3-.6-6.7-1.3-10.1-1.9L216.9 875l103.6 159.4c0-.1 52.6-44.9 75.3-96.4z" id="Layer_11"/>
    <path class="st0" d="M245.7 1202.2c5.6 41.8 28.1 90.1 80.2 142.9 0 0 14-69 140.1-64.7-69.8-166.6-220.3-78.2-220.3-78.2z" id="Layer_12"/>
    <path class="st0" d="M934 973s-39.3 109.4-179.8 57.6c0 0 26.5-118.5 179.8-57.6z" id="Layer_5"/>
    <g id="STROKES">
        <path class="st1" d="M1185.3 906.1s-170.6-49.8-369.8-205.3-415.1-205.3-451.4-246.1c0 0 209.9 271.3 410.6 378.8 0 0-34.5 171.6-389.1 102.6L216.9 875l103.6 159.4s-175.3 127.5 5.3 310.8c0 0 18.6-91.6 205.9-57.1 187.3 34.5 160.7-14.6 321.4-22.6S966 1132.6 966 1132.6"/>
        <path class="st1" d="M863.7 1264.7c-98 58.4-306.3 161.4-484.6 108.7 0 0 89.5 222.4 390.5 80 0 0 226.5 38 271.2-127.5"/>
        <path class="st1" d="M1066.2 1169.8s412.5 12.2 573.6-174.9"/>
        <path class="st1" d="M1037.4 843.1c127.6-7.4 338.8-279.7 356.7-552.2"/>
        <path class="st1" d="M774.7 833.5l24.8 15.9c27.1 17.3 62.5 16.2 87.7-3.9 17.4-13.9 30.3-36.9 25-75.3"/>
        <path class="st1" d="M320.5 1034.3s52.6-44.8 75.2-96.4"/>
        <path class="st1" d="M901.8 1449c26 24.9 81.3 51.2 198.7 52 0 0 110.9 185.7 417 141.3"/>
        <path class="st1" d="M395.8 1099.6l17.8-17.6"/>
        <path class="st1" d="M754.2 1030.6S780.7 912 934 973c0 0-39.3 109.4-179.8 57.6z"/>
        <path class="st1" d="M1616.3 508.5c-148.1 139.7-168 131.9-35.1-51.2 9.8.5 19.9-.3 30.2-2.5 0-.1.4 22.2 4.9 53.7z"/>
        <path class="st1" d="M1703.1 695.1s-10.3 32.8-15.5 46.5c-221.1 32.5-167.2-13.7 0-59.4 4.8 4.7 10 9 15.5 12.9z"/>
        <path class="st1" d="M1639.7 994.9c-21.9-65.3 26-195.9 47.8-253.3"/>
        <path class="st1" d="M1616.3 508.5c7.3 52.1 25.7 129.6 71.3 173.7"/>
        <path class="st1" d="M1394.1 290.9s76.3 161.3 187.1 166.4"/>
        <path class="st1" d="M245.7 1202.2s150.5-88.5 220.3 78.2"/>
        <circle class="st1" cx="831.2" cy="1003.7" r="9.1"/>
    </g>
</svg>
