<svg xmlns="http://www.w3.org/2000/svg" viewBox="0 0 1920 1920">
    <style>
        .st0{fill:#fff}.st1{fill:none;stroke:#231f20;stroke-width:50;stroke-linecap:round;stroke-linejoin:round;stroke-miterlimit:10}
    </style>
    <path class="st0" d="M1147.8 1638.1c-1.5-20.5-10.5-170.6-18.3-327-4.1-82.3-8-166.3-10.2-234.2-.9-28.1-1.6-53.4-2-74.6-.2-12.2-.3-23.2-.2-32.5.1-21.3 1-53.7 2.4-93 6.8-196 26-564.2 28.3-594.8-4.8 32.9-87 59-187.8 59-39.8 0-76.8-4.1-107.2-11.1-46.5-10.7-77.7-28.1-80.5-47.9 2.1 28.2 18.2 337.5 26.2 553.9 2 55 3.5 104 4.1 140.9.2 15 .4 28 .3 38.5-.1 8.5-.2 18.4-.5 29.6-3.8 157.2-27.6 558.9-30.2 593.2-.1 2-.2 3-.2 3 0 34.2 84.2 62 188 62s188-27.8 188-62c0-.1-.1-1.1-.2-3zM960 992.5c0 .1 0 .1 0 0-.1.2-.4.7-.9 1.4-.2.2-.3.5-.5.8-.6.9-1.4 2-2.5 3.2.3-.4.6-.9.9-1.3.2-.4.5-.7.7-1 .1-.2.3-.4.4-.6.2-.3.4-.5.5-.7.5-.8.9-1.3 1.2-1.6l.1-.1s.1 0 .1-.1z" id="Layer_11"/>
    <path class="st0" d="M960 217c-103.8 0-188 27.8-188 62 0 0 .1 1 .2 3 2.9 19.9 34.1 37.3 80.5 47.9 30.4 7 67.4 11.1 107.2 11.1 100.8 0 183-26.1 187.8-59 .1-2 .2-3 .2-3 .1-34.3-84.1-62-187.9-62z" id="Layer_12"/>
    <g id="STROKES">
        <path class="st1" d="M1148 1641c0 34.2-84.2 62-188 62s-188-27.8-188-62c0 0 .1-1 .2-3 2.8-36.7 29.8-495 30.7-622.8.9-138.7-27.9-695-30.7-733.3 4.7 32.9 87 59 187.8 59 100.8 0 183-26.2 187.7-59-2.8 36.7-29.8 560-30.7 687.8-.9 138.8 27.9 630 30.7 668.3l.3 3z"/>
        <path class="st1" d="M1148 279s-.1 1-.2 3c-4.8 32.8-87 59-187.7 59-100.8 0-183-26.2-187.8-59-.1-2-.2-3-.2-3 0-34.2 84.2-62 188-62 103.7-.1 187.9 27.7 187.9 62z"/>
        <path class="st1" d="M772 279s.1 1 .2 3c-.1-1-.2-2-.2-3z"/>
        <path class="st1" d="M1148 279c0 1-.1 2-.2 3 .1-2 .2-3 .2-3z"/>
        <path class="st1" d="M772 1641c0-1 .1-2 .2-3-.1 2-.2 3-.2 3z"/>
        <path class="st1" d="M1148 1641s-.1-1-.2-3c.1 1 .2 2 .2 3z"/>
        <path class="st1" d="M960 992.5s70.4-158.5 226.7-104.6-68.5 158-226.7 104.6z"/>
        <path class="st1" d="M960 992.5s-205.7 35-235.3-111.6c-4.5-22.3 11.3-43.6 34-45.8 51.7-5.1 145.1 9.2 201.3 157.4z"/>
        <path class="st1" d="M1223.5 1289.1C1000.9 1414.2 960 992.5 960 992.5s-181.6 241.4-36.3 432.7"/>
        <path class="st1" d="M802.4 1044.9c130.2 0 157.6-52.4 157.6-52.4s43.2 84.4 159.2 84.4"/>
        <path class="st1" d="M852.8 329.9s-26.5-47.9 134.2-48"/>
    </g>
</svg>
