<svg xmlns="http://www.w3.org/2000/svg" viewBox="0 0 1920 1920">
    <style>
        .st0{fill:#fff}.st1{fill:none;stroke:#231f20;stroke-width:50;stroke-linecap:round;stroke-linejoin:round;stroke-miterlimit:10}
    </style>
    <path class="st0" d="M217.6 385.8v1148.4h1486.1V385.8H217.6zm1375.5 1023.5H328.2V510.7h1264.9v898.6z" id="Layer_7"/>
    <path class="st0" d="M328.2 510.7v898.7h1264.9V510.7H328.2zm773.5 713.7l-27.8 24.7-13.2 34.8-36.1 8.9-27.8 24.7-36.1-8.9-36.1 8.9-27.8-24.7-36.1-8.9-13.2-34.8-27.8-24.7 4.5-36.9-13.2-34.8 21.1-30.6 4.5-36.9 32.9-17.3 21.1-30.6h37.2l32.9-17.3 32.9 17.3h37.2l21.1 30.6 32.9 17.3 4.5 36.9 21.1 30.6-13.2 34.8 4.5 36.9zM1407 900c-279.2-147.8-613.4-147.8-892.5 0-18.3-34.7-36.7-69.3-55-104 313.6-166 689-166 1002.6 0-18.5 34.7-36.8 69.3-55.1 104z" id="Layer_8"/>
    <path class="st0" d="M459.4 796c18.3 34.7 36.7 69.3 55 104 279.2-147.8 613.4-147.8 892.5 0 18.3-34.7 36.7-69.3 55-104-313.5-166-688.9-166-1002.5 0z" id="Layer_9"/>
    <path class="st0" d="M1110.4 1152.7l-21.1-30.6-4.5-36.9-32.9-17.3-21.1-30.6h-37.2l-32.9-17.2-32.9 17.2h-37.2l-21.1 30.6-33 17.3-4.4 36.9-21.2 30.6 13.2 34.8-4.5 36.9 27.9 24.7 13.2 34.7 36.1 8.9 27.8 24.7 36.1-8.9 36.1 8.9 27.8-24.7 36.1-8.9 13.2-34.7 27.8-24.7-4.4-36.9z" id="Layer_10"/>
    <g id="STROKES">
        <path transform="rotate(90 960.69 960)" class="st1" d="M511.4 327.6h898.7v1264.9H511.4z"/>
        <path transform="rotate(90 960.69 960)" class="st1" d="M386.5 216.9h1148.4V1703H386.5z"/>
        <path class="st1" d="M960.7 1020.1l32.9 17.2h37.2l21.1 30.6 32.9 17.3 4.5 36.9 21.1 30.6-13.1 34.8 4.4 36.9-27.8 24.7-13.2 34.7-36.1 8.9-27.8 24.7-36.1-8.9-36.1 8.9-27.8-24.7-36.1-8.9-13.2-34.7-27.9-24.7 4.5-36.9-13.2-34.8 21.2-30.6 4.4-36.9 33-17.3 21.1-30.6h37.2z"/>
        <path class="st1" d="M423 1247.8h271"/>
        <path class="st1" d="M1227.3 1247.8h271.1"/>
        <path class="st1" d="M1407 900c-279.2-147.8-613.4-147.8-892.5 0-18.3-34.7-36.7-69.3-55-104 313.6-166 689-166 1002.6 0-18.4 34.7-36.8 69.3-55.1 104z"/>
    </g>
</svg>
