<svg xmlns="http://www.w3.org/2000/svg" viewBox="0 0 1920 1920">
    <style>
        .st0{fill:#fff}.st1{fill:none;stroke:#231f20;stroke-width:50;stroke-linecap:round;stroke-linejoin:round;stroke-miterlimit:10}
    </style>
    <path class="st0" d="M1703.1 1240v116.1H960V1240h743.1zm-268 116.1v76.8c0 23.2 18.8 42 42 42 11.6 0 22.1-4.7 29.7-12.3 7.6-7.6 12.3-18.1 12.3-29.7v-76.8h-84zM216.9 340.9v92.9h825v-92.9h-825zM960 1240V433.8H217V1435h743v-195zm-26 195.1H244v144h690v-144z" id="Layer_8"/>
    <path class="st0" d="M1586.6 615.5l12 100.4h-121.5l12-100.4h97.5zm-173 197.2c-17.5 0-34.3 2.6-50.3 7.4-19.2 5.8-36.9 14.7-52.7 26.2-43.4 31.8-71.6 83.1-71.6 141 0 2.8.1 5.5.2 8.2H1588c.1-2.7.2-5.5.2-8.2 0-96.4-78.2-174.6-174.6-174.6zm-103 315.6c15.8 11.5 33.6 20.5 52.7 26.2 9.9 3 20.1 5.1 30.6 6.3h39.3c84.5-9.5 150.7-79.2 154.7-165.3h-348.8c2.6 54.6 30.2 102.5 71.5 132.8zM1501 515.1l-12 100.4h97.5l-12-100.4H1501zm-232.6 100.4l-12 100.4h121.5l-12-100.4h-97.5zm85.6-100.4h-73.6l-12 100.4h97.5L1354 515.1zm-215.5 472.2c0 2.8.1 5.5.2 8.2h100.5c-.1-2.7-.2-5.5-.2-8.2 0-57.9 28.2-109.2 71.6-141-15.1-11-32-19.7-50.3-25.5-70.6 22.4-121.8 88.4-121.8 166.5zm100.7 8.2h-100.5c3.4 74.4 53.5 136.7 121.7 158.3 18.2-5.8 35.2-14.5 50.3-25.5-41.4-30.3-69-78.2-71.5-132.8zm-206.2-8.2c0 2.8.1 5.5.2 8.2h105.4c-.1-2.7-.2-5.5-.2-8.2 0-78 51.2-144.1 121.9-166.5-16.6-5.3-34.3-8.1-52.7-8.1-96.4 0-174.6 78.2-174.6 174.6zm105.7 8.2h-105.4c4 86 70.2 155.8 154.7 165.3h39.3c11.4-1.3 22.5-3.7 33.1-7-68.2-21.6-118.3-83.8-121.7-158.3zm-91.3-380l-11.6 97.6h121.5l-11.7-97.6h-98.2zm12.3-103.2l-12.3 103.2h98.2l-12.3-103.2h-73.6z" id="Layer_9"/>
    <g id="STROKES">
        <g id="XMLID_1_">
            <path class="st1" d="M1035.8 713.1l11.6-97.6 12.3-103.2h73.6l12.3 103.2 11.7 97.6z"/>
            <path class="st1" d="M1256.4 715.9l12-100.4 12-100.4h73.6l11.9 100.4 12 100.4"/>
            <path class="st1" d="M1477.1 715.9l12-100.4 11.9-100.4h73.6l12 100.4 12 100.4"/>
            <path class="st1" d="M960 433.8v1001.3H216.9V433.8"/>
            <path class="st1" d="M244 1436.6v142.5h690v-142.5"/>
            <path class="st1" d="M960 1356.1h743.1V1240H960"/>
            <path class="st1" d="M1435.1 1356.1v76.8c0 23.2 18.8 42 42 42 11.6 0 22.1-4.7 29.7-12.3 7.6-7.6 12.3-18.1 12.3-29.7v-76.8"/>
            <path class="st1" d="M960 995.5h706.1v165.3H960"/>
            <path class="st1" d="M960 615.5h706.1v100.4H960"/>
            <path class="st1" d="M1260.3 820.8c-16.6-5.3-34.3-8.1-52.7-8.1-96.4 0-174.6 78.2-174.6 174.6 0 2.8.1 5.5.2 8.2 4 86 70.2 155.8 154.7 165.3 6.5.7 13 1.1 19.7 1.1 6.6 0 13.2-.4 19.6-1.1 11.4-1.3 22.5-3.7 33.1-7"/>
            <path class="st1" d="M1363.3 820.1c-15.9-4.8-32.8-7.4-50.3-7.4-18.4 0-36.1 2.8-52.7 8.1"/>
            <path class="st1" d="M1260.3 1153.8c10.6 3.4 21.7 5.7 33.1 7 6.4.7 13 1.1 19.6 1.1 6.6 0 13.2-.4 19.6-1.1 10.5-1.2 20.8-3.3 30.6-6.3"/>
            <path class="st1" d="M1310.6 846.3c-15.1-11-32-19.7-50.3-25.5-70.7 22.3-121.9 88.4-121.9 166.5 0 2.8.1 5.5.2 8.2 3.4 74.4 53.5 136.7 121.7 158.3 18.2-5.8 35.2-14.5 50.3-25.5"/>
            <path class="st1" d="M1588 995.5c.1-2.7.2-5.5.2-8.2 0-96.4-78.2-174.6-174.6-174.6-17.5 0-34.3 2.6-50.3 7.4-19.2 5.8-36.9 14.7-52.7 26.2-43.4 31.8-71.6 83.1-71.6 141 0 2.8.1 5.5.2 8.2 2.5 54.5 30.1 102.5 71.4 132.8 15.8 11.5 33.6 20.5 52.7 26.2 9.9 3 20.1 5.1 30.6 6.3 6.4.7 13 1.1 19.6 1.1 6.7 0 13.2-.4 19.7-1.1 84.6-9.5 150.8-79.2 154.8-165.3z"/>
            <path class="st1" d="M216.9 433.8v-92.9H1042v92.9h-82z"/>
        </g>
    </g>
</svg>
