<svg xmlns="http://www.w3.org/2000/svg" viewBox="0 0 1920 1920">
    <style>
        .st0{fill:#fff}.st1{fill:none;stroke:#231f20;stroke-width:50;stroke-linecap:round;stroke-linejoin:round;stroke-miterlimit:10}
    </style>
    <path class="st0" d="M1703.1 1336v144.1h-414c-3.5-1-7.3-1.5-11.1-1.5H640c-3.8 0-7.6.5-11.1 1.5h-412V1336h1486.2zm-414 144.1c17.2 4.8 29.9 20.7 29.9 39.5 0 11.3-4.6 21.6-12 29-4.9 4.9-11 8.6-17.9 10.5h229v-78.9h-229zM401.9 216.9v228.8H1518V216.9H401.9zm138.8 149.5c-19.9 0-36-16.1-36-36s16.1-36 36-36 36 16.1 36 36-16.1 36-36 36zM1289.1 1559c-3.5 1-7.3 1.5-11.1 1.5H640c-3.8 0-7.6-.5-11.1-1.5H441v144.1h1036V1559h-187.9zm-660.2-78.9c-6.9 1.9-13 5.6-17.9 10.5-7.4 7.4-12 17.7-12 29 0 18.8 12.7 34.6 29.9 39.5h660.2c6.9-1.9 13-5.6 17.9-10.5 7.4-7.4 12-17.7 12-29 0-18.8-12.7-34.6-29.9-39.5H628.9zm-227 78.9h227c-17.2-4.8-29.9-20.7-29.9-39.5 0-11.3 4.6-21.6 12-29 4.9-4.9 11-8.6 17.9-10.5h-227v79z" id="Layer_4"/>
    <path class="st0" d="M540.7 294.4c19.9 0 36 16.1 36 36s-16.1 36-36 36-36-16.1-36-36 16.1-36 36-36z" id="Layer_5"/>
    <path class="st0" d="M1324.8 720.1l-24-200.8h-73.6l-23.9 200.8h121.5zm-622.1 0l-24-200.8h-73.6l-23.9 200.8h121.5zm207.3 0l-24-200.8h-73.6l-23.9 200.8H910zm127.1 515h121.5l-24-200.8H1061l-23.9 200.8zm481-789.3V1336H401.9V445.8h1116.2zm-549 745.5v-143.8c0-11.8-4.8-22.6-12.6-30.3-7.8-7.8-18.5-12.6-30.3-12.6-23.7 0-42.9 19.2-42.9 42.9v143.8c0 23.7 19.2 42.9 42.9 42.9 23.7.1 42.9-19.1 42.9-42.9zm-167.7 0V835.7c0-11.8-4.8-22.6-12.6-30.3-7.8-7.8-18.5-12.6-30.3-12.6-23.7 0-42.9 19.2-42.9 42.9v355.6c0 23.7 19.2 42.9 42.9 42.9s42.9-19.1 42.9-42.9zm-159.5 0V835.7c0-11.8-4.8-22.6-12.6-30.3-7.8-7.8-18.5-12.6-30.3-12.6-23.7 0-42.9 19.2-42.9 42.9v355.6c0 23.7 19.2 42.9 42.9 42.9s42.9-19.1 42.9-42.9z" id="Layer_6"/>
    <path class="st0" d="M1300.8 519.3l24 200.8h-121.5l23.9-200.8h73.6zm-239.8 515l-23.9 200.8h121.5l-24-200.8H1061zm-104.5-17c-7.8-7.8-18.5-12.6-30.3-12.6-23.7 0-42.9 19.2-42.9 42.9v143.8c0 23.7 19.2 42.9 42.9 42.9s42.9-19.2 42.9-42.9v-143.8c0-11.8-4.8-22.6-12.6-30.3zm-144-498l-23.9 200.8H910l-24-200.8h-73.5zm-23.7 286.1c-7.8-7.8-18.5-12.6-30.3-12.6-23.7 0-42.9 19.2-42.9 42.9v355.6c0 23.7 19.2 42.9 42.9 42.9s42.9-19.2 42.9-42.9V835.7c0-11.8-4.8-22.5-12.6-30.3zM605.1 519.3l-23.9 200.8h121.5l-24-200.8h-73.6zm24.2 286.1c-7.8-7.8-18.5-12.6-30.3-12.6-23.7 0-42.9 19.2-42.9 42.9v355.6c0 23.7 19.2 42.9 42.9 42.9s42.9-19.2 42.9-42.9V835.7c0-11.8-4.8-22.5-12.6-30.3z" id="Layer_7"/>
    <g id="STROKES">
        <g id="XMLID_1_">
            <path class="st1" d="M401.9 445.8h1116.2"/>
            <path class="st1" d="M576.7 330.4c0 19.9-16.1 36-36 36s-36-16.1-36-36 16.1-36 36-36 36 16.1 36 36z"/>
            <path class="st1" d="M1289.1 1559c-3.5 1-7.3 1.5-11.1 1.5H640c-3.8 0-7.6-.5-11.1-1.5-17.2-4.8-29.9-20.7-29.9-39.5 0-11.3 4.6-21.6 12-29 4.9-4.9 11-8.6 17.9-10.5 3.5-1 7.3-1.5 11.1-1.5h638c3.8 0 7.6.5 11.1 1.5 17.2 4.8 29.9 20.7 29.9 39.5 0 11.3-4.6 21.6-12 29-4.9 4.9-11 8.6-17.9 10.5z"/>
            <path class="st1" d="M1477 1559v144.1H441V1559"/>
            <path class="st1" d="M401.9 1480.1v78.9h1116.2v-78.9"/>
            <path class="st1" d="M1518.1 1336V216.9H401.9V1336"/>
            <path class="st1" d="M1518.1 1336H216.9v144.1h1486.2V1336z"/>
            <path class="st1" d="M758.4 1234.3c-23.7 0-42.9-19.2-42.9-42.9V835.7c0-23.7 19.2-42.9 42.9-42.9 11.8 0 22.6 4.8 30.3 12.6 7.8 7.8 12.6 18.5 12.6 30.3v355.6c.1 23.8-19.2 43-42.9 43z"/>
            <path class="st1" d="M926.2 1234.3c-23.7 0-42.9-19.2-42.9-42.9v-143.8c0-23.7 19.2-42.9 42.9-42.9 11.9 0 22.6 4.8 30.3 12.6 7.8 7.8 12.6 18.5 12.6 30.3v143.8c0 23.7-19.2 42.9-42.9 42.9z"/>
            <path class="st1" d="M599 1234.3c-23.7 0-42.9-19.2-42.9-42.9V835.7c0-23.7 19.2-42.9 42.9-42.9 11.8 0 22.6 4.8 30.3 12.6 7.8 7.8 12.6 18.5 12.6 30.3v355.6c0 23.8-19.2 43-42.9 43z"/>
            <path class="st1" d="M581.2 720.1l23.9-200.8h73.6l24 200.8"/>
            <path class="st1" d="M788.5 720.1l24-200.8H886l24 200.8"/>
            <path class="st1" d="M1037.1 1235.1l23.9-200.8h73.6l24 200.8"/>
            <path class="st1" d="M1203.3 720.1l23.9-200.8h73.6l24 200.8"/>
            <path class="st1" d="M477.1 519.3v200.8h958.5V519.3"/>
            <path class="st1" d="M477.1 1034.3v200.8h958.5v-200.8"/>
        </g>
    </g>
</svg>
