<svg xmlns="http://www.w3.org/2000/svg" viewBox="0 0 1920 1920">
    <style>
        .st0{fill:#fff}.st1{fill:none;stroke:#231f20;stroke-width:50;stroke-linecap:round;stroke-linejoin:round;stroke-miterlimit:10}
    </style>
    <path class="st0" d="M1066.2 445.8h451.9V1559H401.9V445.8h664.3zM1319 598c0-22.6-18.4-41-41-41H640a40.97 40.97 0 0 0-41 41c0 22.6 18.4 41 41 41h638a40.97 40.97 0 0 0 41-41zm199.1-381.1v228.8h-106.2v-1.6l-77.7-77.7h-188.6l-79.3 79.3H401.9V216.9h1116.2zM854.3 330.4c0-19.9-16.1-36-36-36s-36 16.1-36 36 16.1 36 36 36 36-16.1 36-36zm-138.8 0c0-19.9-16.1-36-36-36s-36 16.1-36 36 16.1 36 36 36 36-16.1 36-36zm-138.8 0c0-19.9-16.1-36-36-36s-36 16.1-36 36 16.1 36 36 36 36-16.1 36-36zM441 1559v144.1h1036V1559H441zm893.2-1192.6h-188.6l-79.3 79.3H1412v-1.6l-77.8-77.7z" id="Layer_10"/>
    <path class="st0" d="M1278 557c22.6 0 41 18.4 41 41a40.97 40.97 0 0 1-41 41H640c-22.6 0-41-18.4-41-41a40.97 40.97 0 0 1 41-41h638z" id="Layer_2"/>
    <path class="st0" d="M540.7 294.4c19.9 0 36 16.1 36 36s-16.1 36-36 36-36-16.1-36-36 16.1-36 36-36zm102.8 36c0 19.9 16.1 36 36 36s36-16.1 36-36-16.1-36-36-36c-19.8 0-36 16.1-36 36zm138.8 0c0 19.9 16.1 36 36 36s36-16.1 36-36-16.1-36-36-36c-19.8 0-36 16.1-36 36z" id="Layer_3"/>
    <g id="STROKES">
        <g id="XMLID_1_">
            <path class="st1" d="M1518.1 445.8V1559H401.9V216.9h1116.2z"/>
            <path class="st1" d="M401.9 445.8h1116.2"/>
            <path class="st1" d="M854.3 330.4c0 19.9-16.1 36-36 36s-36-16.1-36-36 16.1-36 36-36 36 16.1 36 36z"/>
            <path class="st1" d="M576.7 330.4c0 19.9-16.1 36-36 36s-36-16.1-36-36 16.1-36 36-36 36 16.1 36 36z"/>
            <path class="st1" d="M715.5 330.4c0 19.9-16.1 36-36 36s-36-16.1-36-36 16.1-36 36-36 36 16.1 36 36z"/>
            <path class="st1" d="M1066.2 445.8l79.3-79.4h188.7l77.6 77.7"/>
            <path class="st1" d="M1278 639H640c-22.6 0-41-18.4-41-41a40.97 40.97 0 0 1 41-41h638c22.6 0 41 18.4 41 41a40.97 40.97 0 0 1-41 41z"/>
            <path class="st1" d="M1477 1559v144.1H441V1559"/>
        </g>
    </g>
</svg>
