<svg xmlns="http://www.w3.org/2000/svg" viewBox="0 0 1920 1920">
    <style>
        .st0{fill:#fff}.st1{fill:none;stroke:#231f20;stroke-width:50;stroke-linecap:round;stroke-linejoin:round;stroke-miterlimit:10}
    </style>
    <path class="st0" d="M1407.9 1185.2c-7.2 7.4-17.2 11.9-28.3 11.9H540.4c-11.1 0-21.1-4.6-28.3-11.9l-72.1 28.2v136s21.9 353.8 520 353.8 520-353.8 520-353.8v-136l-72.1-28.2zm-853.1-305h-31.5c22.6 69.4 61.3 131.6 111.7 182h650c50.4-50.5 89.1-112.6 111.7-182h-31.5c-27 0-49-63.7-49-142.3s21.9-142.4 49-142.4h31.5c-39.5-121.4-128.3-220.6-242.7-274v27.2c0 21.2-86.9 38.3-194 38.3s-194-17.2-194-38.3v-27.2c-114.4 53.4-203.1 152.6-242.7 274h31.5c27 0 49 63.7 49 142.4s-22 142.3-49 142.3zM960 459.5c153.7 0 278.4 124.6 278.4 278.4 0 153.8-124.6 278.4-278.4 278.4S681.6 891.6 681.6 737.9c0-153.8 124.7-278.4 278.4-278.4z" id="Layer_15"/>
    <path class="st0" d="M960 1016.2c153.7 0 278.4-124.6 278.4-278.4 0-153.7-124.6-278.4-278.4-278.4S681.6 584.1 681.6 737.9c0 153.7 124.7 278.3 278.4 278.3zm-182.6-344c19.5-54.4 62.6-97.5 117-117 20.5-7.4 42.6-11.4 65.6-11.4s45.1 4 65.6 11.4c54.4 19.5 97.5 62.6 117 117 7.4 20.5 11.4 42.6 11.4 65.6 0 23-4 45.1-11.4 65.6-19.5 54.3-62.6 97.5-117 117-20.5 7.4-42.6 11.4-65.6 11.4s-45.1-4-65.6-11.4c-54.4-19.5-97.5-62.7-117-117C770 783 766 760.9 766 737.9c0-23.1 4-45.2 11.4-65.7zM960 387.1c107.2 0 194-17.2 194-38.3V240.1c0 12.8-86.9 23.2-194 23.2s-194-10.4-194-23.2v108.6c0 21.2 86.8 38.4 194 38.4zm-449.1 447c-9 28.4-21.8 46.1-36.1 46.1h79.9c27 0 49-63.7 49-142.3s-21.9-142.4-49-142.4h-79.9c14.3 0 27.1 17.8 36.1 46.1 1.4 4.4 2.7 9.1 3.9 14 5.6 23.2 9 51.6 9 82.2s-3.3 59-9 82.2c-1.2 5-2.5 9.7-3.9 14.1zm898.2 0c-1.4-4.4-2.7-9.1-3.9-14-5.6-23.2-9-51.6-9-82.2s3.3-59 9-82.2c1.2-4.9 2.5-9.6 3.9-14 9-28.4 21.8-46.1 36.1-46.1h-79.9c-27 0-49 63.7-49 142.4s21.9 142.3 49 142.3h79.9c-14.3-.1-27.1-17.8-36.1-46.2zm-29.5 228.2H540.4c-21.9 0-39.6 17.7-39.6 39.6v55.6c0 10.8 4.3 20.6 11.3 27.7 7.2 7.4 17.2 11.9 28.3 11.9h839.2c11.1 0 21.1-4.6 28.3-11.9 7-7.1 11.3-16.9 11.3-27.7v-55.6c0-21.9-17.7-39.6-39.6-39.6z" id="Layer_16"/>
    <path class="st0" d="M510.9 641.7c-9-28.4-21.8-46.1-36.1-46.1-27 0-49 63.7-49 142.4s21.9 142.3 49 142.3c14.3 0 27.1-17.8 36.1-46.1 1.4-4.4 2.7-9.1 3.9-14 5.6-23.2 9-51.6 9-82.2s-3.3-59-9-82.2c-1.2-5-2.5-9.7-3.9-14.1zm514.7-86.5c-20.5-7.4-42.6-11.4-65.6-11.4s-45.1 4-65.6 11.4c-54.4 19.5-97.5 62.6-117 117-7.4 20.5-11.4 42.6-11.4 65.6 0 23 4 45.1 11.4 65.6 19.5 54.3 62.6 97.5 117 117 20.5 7.4 42.6 11.4 65.6 11.4s45.1-4 65.6-11.4c54.4-19.5 97.5-62.7 117-117 7.4-20.5 11.4-42.6 11.4-65.6 0-23-4-45.1-11.4-65.6-19.5-54.3-62.6-97.4-117-117zM960 217c-107.2 0-194 10.4-194 23.2 0 12.8 86.9 23.2 194 23.2s194-10.4 194-23.2c0-12.9-86.8-23.2-194-23.2zm485.2 378.5c-14.3 0-27.1 17.8-36.1 46.1-1.4 4.4-2.7 9.1-3.9 14-5.6 23.2-9 51.6-9 82.2s3.3 59 9 82.2c1.2 4.9 2.5 9.6 3.9 14 9 28.3 21.8 46.1 36.1 46.1 27 0 49-63.7 49-142.3s-22-142.3-49-142.3z" id="Layer_17"/>
    <g id="STROKES">
        <circle class="st1" cx="960" cy="737.9" r="194"/>
        <path class="st1" d="M1365.2 880.2h31.5c-22.6 69.4-61.3 131.6-111.7 182H635c-50.4-50.5-89.1-112.6-111.7-182h31.5c27 0 49-63.7 49-142.4s-21.9-142.4-49-142.4h-31.5C562.8 474.1 651.6 375 766 321.5v27.2c0 21.2 86.9 38.3 194 38.3s194-17.2 194-38.3v-27.2c114.4 53.4 203.2 152.6 242.7 274h-31.5c-27 0-49 63.7-49 142.4s22 142.3 49 142.3z"/>
        <path class="st1" d="M1494.1 737.9c0 78.6-21.9 142.4-49 142.4-14.3 0-27.1-17.8-36.1-46.1-1.4-4.4-2.7-9.1-3.9-14-5.6-23.2-9-51.6-9-82.2s3.3-59 9-82.2c1.2-4.9 2.5-9.6 3.9-14 9-28.4 21.8-46.1 36.1-46.1 27.1-.2 49 63.6 49 142.2z"/>
        <circle class="st1" cx="960" cy="737.9" r="278.4"/>
        <path class="st1" d="M1419.2 1101.9v27.8H500.8v-27.8c0-21.9 17.7-39.6 39.6-39.6h839.2c21.9 0 39.6 17.7 39.6 39.6z"/>
        <path class="st1" d="M1419.2 1129.7v27.8c0 10.8-4.3 20.5-11.3 27.7-7.2 7.4-17.2 11.9-28.3 11.9H540.4c-11.1 0-21.1-4.6-28.3-11.9-7-7.1-11.3-16.9-11.3-27.7v-27.8h918.4z"/>
        <path class="st1" d="M1245.4 1197.1C1144.7 1395.5 960 1392.9 960 1392.9s-184.7 2.6-285.4-195.8h570.8z"/>
        <path class="st1" d="M1480 1213.3v136s-21.9 353.8-520 353.8-520-353.8-520-353.8v-136l72.1-28.2c7.2 7.4 17.2 11.9 28.3 11.9h839.2c11.1 0 21.1-4.6 28.3-11.9l72.1 28.2z"/>
        <path class="st1" d="M1480 1213.3v68.5s-21.9 353.8-520 353.8-520-353.8-520-353.8v-68.5l72.1-28.2c7.2 7.4 17.2 11.9 28.3 11.9h839.2c11.1 0 21.1-4.6 28.3-11.9l72.1 28.2z"/>
        <path class="st1" d="M523.8 737.9c0 30.6-3.3 59-9 82.2-1.2 4.9-2.5 9.6-3.9 14-8.9 28.3-21.8 46.1-36.1 46.1-27 0-49-63.7-49-142.4s21.9-142.4 49-142.4c14.3 0 27.1 17.8 36.1 46.1 1.4 4.4 2.7 9.1 3.9 14 5.6 23.4 9 51.7 9 82.4z"/>
        <path class="st1" d="M603.7 737.9c0 78.6-21.9 142.4-49 142.4h-79.9c14.3 0 27.1-17.8 36.1-46.1 1.4-4.4 2.7-9.1 3.9-14 5.6-23.2 9-51.6 9-82.2s-3.3-59-9-82.2c-1.2-4.9-2.5-9.6-3.9-14-9-28.4-21.8-46.1-36.1-46.1h79.9c27.1-.2 49 63.6 49 142.2z"/>
        <path class="st1" d="M1445.2 880.2h-79.9c-27 0-49-63.7-49-142.4s21.9-142.4 49-142.4h79.9c-14.3 0-27.1 17.8-36.1 46.1-1.4 4.4-2.7 9.1-3.9 14-5.6 23.2-9 51.6-9 82.2s3.3 59 9 82.2c1.2 4.9 2.5 9.6 3.9 14 9 28.6 21.8 46.3 36.1 46.3z"/>
        <path class="st1" d="M1154 240.1c0 12.8-86.9 23.2-194 23.2s-194-10.4-194-23.2c0-12.8 86.9-23.2 194-23.2s194 10.4 194 23.2z"/>
        <path class="st1" d="M1154 240.1v108.6c0 21.2-86.9 38.3-194 38.3s-194-17.2-194-38.3V240.1c0 12.8 86.9 23.2 194 23.2s194-10.4 194-23.2z"/>
        <path class="st1" d="M1025.6 555.2v365.3"/>
        <path class="st1" d="M894.4 555.2v365.3"/>
        <path class="st1" d="M777.4 672.2h365.2"/>
        <path class="st1" d="M777.4 803.5h365.2"/>
    </g>
</svg>
