<svg xmlns="http://www.w3.org/2000/svg" viewBox="0 0 1920 1920">
    <style>
        .st0{fill:#fff}.st1{fill:none;stroke:#231f20;stroke-width:50;stroke-linecap:round;stroke-linejoin:round;stroke-miterlimit:10}
    </style>
    <path class="st0" d="M1683.1 721.7c7.1 7.1 11.5 16.9 11.5 27.7 0 21.7-17.5 39.2-39.2 39.2H467.5l22.2-78.4h1165.8c10.7.1 20.5 4.5 27.6 11.5z" id="Layer_6"/>
    <g id="STROKES">
        <g id="XMLID_1_">
            <path class="st1" d="M467.4 788.7h394.3"/>
            <path class="st1" d="M942.7 788.7h712.7c21.7 0 39.2-17.5 39.2-39.2 0-10.8-4.4-20.6-11.5-27.7-7.1-7.1-16.9-11.5-27.7-11.5H489.6"/>
            <path class="st1" d="M861.7 788.7l-182.9 742.5-.1.5h84l.1-.5 179.9-742.5z"/>
            <path class="st1" d="M257.2 1529.7l32.4-114.2 19.9-70.3 10.4-36.8 30.4-107.1 30.2-106.6 30.2-106.6L441 881.7l26.4-93 22.2-78.4h-62.1c-23.6 0-44.3 15.7-50.7 38.4l-149.4 529.6c-9.5 33.6 15.8 67 50.7 67h31.4"/>
            <path class="st1" d="M558.7 788.7l-26.6 93.1-30.4 106.7-30.4 106.8-30.4 106.7-30.4 106.8-30.4 106.8-32.9 115.6"/>
            <path class="st1" d="M289.6 1415.6h90.5"/>
            <path class="st1" d="M321.1 1308.8h90.5"/>
            <path class="st1" d="M382.1 1095.3h90.5"/>
            <path class="st1" d="M441.4 881.8h90.5"/>
            <path class="st1" d="M411.6 988.5h90.6"/>
            <path class="st1" d="M352.5 1202h90.6"/>
            <path class="st1" d="M489.7 710.3l51-161 35.7-112.7c9.1-28.7 35.8-48.3 65.9-48.3h475.4c58 0 100.4 54.7 86 110.8l-12.9 50.2-41.2 161"/>
            <path class="st1" d="M1190.9 549.3H540.7"/>
            <path class="st1" d="M625.2 1531.2h207"/>
        </g>
    </g>
</svg>
