<svg xmlns="http://www.w3.org/2000/svg" viewBox="0 0 1920 1920">
    <style>
        .st0{fill:#fff}.st1{fill:none;stroke:#231f20;stroke-width:50;stroke-linecap:round;stroke-linejoin:round;stroke-miterlimit:10}
    </style>
    <path class="st0" d="M547.2 1488.7l351.3 111.7v-562.7l-383.2-85z" id="Layer_11"/>
    <path class="st0" d="M799.4 574.1L671.8 440.4s-27.5 32-68.3 79.2c-.5.6-1.1 1.3-1.6 1.9-1.1 1.2-2.1 2.5-3.2 3.8-1.9 2.2-3.8 4.4-5.8 6.7-.5.6-1 1.2-1.5 1.7-2.6 3.1-5.3 6.2-8.1 9.3-57.2 66.3-132.4 153.4-195.5 226.2-8.8 10.1-17.4 20-25.6 29.5-7.2 8.3-14.2 16.3-20.9 24l-2.8 3.3 97 631.9 463 142.5-351.3-111.6-31.9-536 383.2 85v562.7l193.8 59.6 91.6-683-384.5-403z" id="Layer_12"/>
    <path class="st0" d="M1568.8 891.9l-91.4 462.9-375.8 305.2 91.6-673.1 93.8 98.3 66.9-66.4z" id="Layer_13"/>
    <path class="st0" d="M1703 812.6l-134.2 79.3-214.9 126.9-160.7-165.5-9.4-9.7-216.2-222.7-300.4-309.5 581.5 33.2z" id="Layer_14"/>
    <path class="st0" d="M1353.9 1018.8l-66.8 66.4-93.8-98.4-9.4-9.8-384.5-402.9-127.6-133.7s-27.5 32-68.3 79.2c-.5.6-1.1 1.3-1.6 1.9-1.1 1.2-2.1 2.5-3.2 3.8-1.9 2.2-3.8 4.4-5.8 6.7-.5.6-1 1.2-1.5 1.7-2.6 3.1-5.3 6.2-8.1 9.3-64.5 74.7-177.8 205.7-242 279.7l-2.8 3.3c-42.8 49.2-72.7 83.2-74.5 84.5l-46.1-50.4 162.5-198.4 136.2-166.3 150.7-184 300.5 309.5L1184 843.6l9.4 9.7 160.5 165.5z" id="Layer_15"/>
    <g id="STROKES">
        <path class="st1" d="M1568.6 892.5l-91.4 463.4-376.2 305.4 91.7-673.8 93.9 98.5 66.9-66.5z"/>
        <path class="st1" d="M1183.3 977.7l-91.7 683.6L434.2 1459l-97.1-632.5C408 744.7 543.6 588 602.4 519.8c40.8-47.3 68.4-79.3 68.4-79.3l127.7 133.8 384.8 403.4z"/>
        <path class="st1" d="M1353.5 1019.5l-66.9 66.5-93.9-98.5-9.4-9.8-384.8-403.3-127.7-133.9s-27.6 32-68.4 79.3c-58.8 68.2-145 168.1-216 249.9-67.7 78.1-121.4 139.7-123.9 141.4l-46.1-50.5L379 662l136.3-166.4 150.9-184.2L967 621.2l216.4 222.9 9.4 9.7 160.7 165.7z"/>
        <path class="st1" d="M1703.1 813.1l-134.5 79.4-215.1 127-160.8-165.7-9.4-9.7-216.4-222.9-300.7-309.8 582 33.2z"/>
        <path class="st1" d="M546 1489.9l-31.9-536.5 383.6 85v563.3z"/>
    </g>
</svg>
