<svg xmlns="http://www.w3.org/2000/svg" viewBox="0 0 1920 1920">
    <style>
        .st0{fill:#fff}.st1{fill:none;stroke:#231f20;stroke-width:50;stroke-linecap:round;stroke-linejoin:round;stroke-miterlimit:10}
    </style>
    <path class="st0" d="M1098.2 1511.7c38.6 26.7 55.1 22.6 72.9 67.5-5.6.8-11.4 1.3-17.6 1.5 0 0-60.3 57.3-163.6 64.9h-59.8c-103.3-7.6-163.6-64.9-163.6-64.9-6.2-.2-12.1-.8-17.6-1.5 17.8-44.9 34.3-40.8 72.9-67.5 9.5-6.6 17.6-15 25.6-24.2 0 0 111.2 89.8 225.2 0 8.1 9.1 16.2 17.6 25.6 24.2zm-137.1-88.5h-2.2c-2.4 0-4.7.1-7 .4-57 4.1-80.6 36.8-104.5 63.9 0 0 111.2 89.8 225.2 0-23.9-27.1-47.5-59.8-104.5-63.9-2.3-.3-4.7-.5-7-.4zm111.5 64.3c8.1 9.1 16.2 17.6 25.6 24.2 38.6 26.7 55.1 22.6 72.9 67.5 103.8-14.4 103.9-118.5 103.9-118.5s145.5-114 118.5-199.5-13.5-237 28.5-294 94.5-52.5 103.5-114-22.5-190.5-22.5-190.5c88.5-271.5-18-402.7-163.5-340.5-145.5 62.2-207 340.5-207 340.5-85.5-24-259.5-24-345 0 0 0-61.5-278.3-207-340.5-145.5-62.2-252 69-163.5 340.5 0 0-31.5 129-22.5 190.5s61.5 57 103.5 114 55.5 208.5 28.5 294S645 1460.7 645 1460.7s0 104 103.8 118.5c17.8-44.9 34.3-40.8 72.9-67.5 9.5-6.6 17.6-15 25.6-24.2 23.9-27.1 47.5-59.8 104.5-63.9 2.3-.3 4.6-.5 7-.4h2.2c2.4 0 4.7.1 7 .4 57.1 4.1 80.7 36.8 104.6 63.9zm107.7-367.4c-34.5 0-62.4-28-62.4-62.4 0-34.5 27.9-62.4 62.4-62.4s62.4 27.9 62.4 62.4c0 34.4-28 62.4-62.4 62.4zm-191.1 186.4c-4.6 9.9-7.6-1.6-9.6 9.9-3.2 18.2-36.1 18.2-39.2 0-2-11.5-5-.1-9.6-9.9-9.2-19.8-24.9-35.8-51.9-45.8-40.5-15-18-69 10.5-96.5 25.7-24.8 115.5-24.8 141.2 0 28.5 27.5 51 81.5 10.5 96.5-27 10-42.7 26-51.9 45.8zM741 1120.1c-34.5 0-62.4-28-62.4-62.4 0-34.5 28-62.4 62.4-62.4 34.5 0 62.4 27.9 62.4 62.4 0 34.4-27.9 62.4-62.4 62.4z" id="Layer_3"/>
    <path class="st0" d="M1180.3 995.2c34.5 0 62.4 27.9 62.4 62.4s-27.9 62.4-62.4 62.4-62.4-28-62.4-62.4c-.1-34.4 27.9-62.4 62.4-62.4zm-501.8 62.4c0 34.5 28 62.4 62.4 62.4 34.5 0 62.4-28 62.4-62.4 0-34.5-27.9-62.4-62.4-62.4-34.4 0-62.4 28-62.4 62.4z" id="Layer_4"/>
    <path class="st0" d="M1030.6 1164.2c28.5 27.5 51 81.5 10.5 96.5-27 10-42.7 26-51.9 45.8-4.6 9.9-7.6-1.6-9.6 9.9-3.2 18.2-36.1 18.2-39.2 0-2-11.5-5-.1-9.6-9.9-9.2-19.8-24.9-35.8-51.9-45.8-40.5-15-18-69 10.5-96.5 25.7-24.8 115.5-24.8 141.2 0z" id="Layer_5"/>
    <g id="STROKES">
        <g id="XMLID_1_">
            <path class="st1" d="M1030.6 1164.2c-25.7-24.8-115.5-24.8-141.2 0-28.5 27.5-51 81.5-10.5 96.5 27 10 42.7 26 51.9 45.8 4.6 9.9 7.6-1.6 9.6 9.9 3.2 18.2 36.1 18.2 39.2 0 2-11.5 5-.1 9.6-9.9 9.2-19.8 24.9-35.8 51.9-45.8 40.5-15 18-69-10.5-96.5z"/>
            <path class="st1" d="M1171.1 1579.1c103.8-14.4 103.9-118.5 103.9-118.5s145.5-114 118.5-199.5-13.5-237 28.5-294 94.5-52.5 103.5-114-22.5-190.4-22.5-190.4c88.5-271.5-18-402.7-163.5-340.5-145.5 62.2-207 340.5-207 340.5-85.5-24-259.5-24-345 0 0 0-61.5-278.3-207-340.5-145.5-62.2-252 69-163.5 340.5 0 0-31.5 129-22.5 190.5s61.5 57 103.5 114 55.5 208.5 28.5 294S645 1460.7 645 1460.7s0 104 103.8 118.5"/>
            <path class="st1" d="M1171.1 1579.1c-17.8-44.9-34.3-40.8-72.9-67.5-9.5-6.6-17.6-15-25.6-24.2-23.9-27.1-47.5-59.8-104.5-63.9-2.3-.3-4.6-.5-7-.4h-2.2c-2.4 0-4.7.1-7 .4-57 4.1-80.6 36.8-104.5 63.9-8.1 9.1-16.2 17.6-25.6 24.2-38.6 26.7-55.1 22.6-72.9 67.5 5.6.8 11.5 1.3 17.6 1.5 0 0 60.3 57.3 163.6 64.9h59.8c103.3-7.6 163.6-64.9 163.6-64.9 6.2-.2 12.1-.7 17.6-1.5z"/>
            <path class="st1" d="M847.4 1487.5s111.2 89.8 225.2 0"/>
            <path class="st1" d="M1359.1 891.2s-8.4-133.7-127.5-183.5c0 0 43.5-306 189-295.5"/>
            <path class="st1" d="M561.7 891.2s8.4-133.7 127.5-183.5c0 0-43.5-306-189-295.5"/>
            <path class="st1" d="M1242.7 1057.6c0 34.5-27.9 62.4-62.4 62.4s-62.4-28-62.4-62.4c0-34.5 27.9-62.4 62.4-62.4 34.4 0 62.4 28 62.4 62.4z"/>
            <path class="st1" d="M1050.1 1071.1s53-85.6 114-87c70.1-1.7 129 64 129 64"/>
            <path class="st1" d="M1103.8 914.3s40.2-41.7 134.8-12.9"/>
            <path class="st1" d="M678.5 1057.6c0 34.5 28 62.4 62.4 62.4 34.5 0 62.4-28 62.4-62.4 0-34.5-27.9-62.4-62.4-62.4-34.4 0-62.4 28-62.4 62.4z"/>
            <path class="st1" d="M871.2 1071.1s-53-85.6-114-87c-70.1-1.7-129 64-129 64"/>
            <path class="st1" d="M817.5 914.3s-40.2-41.7-134.8-12.9"/>
        </g>
    </g>
</svg>
