<svg xmlns="http://www.w3.org/2000/svg" viewBox="0 0 1920 1920">
    <style>
        .st0{fill:#fff}.st1{fill:none;stroke:#231f20;stroke-width:50;stroke-linecap:round;stroke-linejoin:round;stroke-miterlimit:10}
    </style>
    <path class="st0" d="M634.3 1388.9c4.7 52.4 8.5 95.3 9.8 109.1H539.5s16.2-104.6 94.8-109.1zM470.5 371.8c22.5-49.5 0-74 0-74-12.6 0-24.7 2.4-36 6.5-45 16.5-88.5 39-93 66s-19.5 61.5-63 60-61.1 60.9-52.3 91.2c8.8 30.3 67.3 124.8 133.3 76.8 66-48 105-84 133.5-9s30 214.2 24 313.3 85.5 168.1 91.5 214.6c3.7 28.7 16.5 168.6 25.8 271.7 4.7 52.4 8.5 95.3 9.8 109.1.3 3 .4 4.7.4 4.7l-60 73.5s-60-5.3-60 69.4H637l106.5-138.4v-391.5s207 28.5 259.5-36 168-130.5 241.5-61.5c64.2 60.2 103.2 183.4 201 242.6h.1c14.2 8.6 29.6 15.8 46.4 21.3 133.5 43.5 130.5 207 130.5 207s-39.4 1.6-60.8 30c-8 10.6-13.5 24.9-13.5 44.2h107.2l40.5-59.2-7.5-223.5s-175.5-25.5-189-283.5-150-252-150-252c-52.5-19.5-297 0-409.5-46.5s-292.5-255-348-327c-4-5.2-8.1-10.1-12.1-14.7 3.4 29.8-62.5 132.8-99.4 101.7.1.2-32.4-37.3-9.9-86.8zm975 889.1c2.1 1.7 73.3 60.4 61.4 172.8 0 0-73.5 13.5-73.5 85.5h128.2c21.4-28.4 60.8-30 60.8-30s3-163.5-130.5-207c-16.8-5.5-32.2-12.7-46.4-21.3zm-975-963.2s22.5 24.5 0 74 10 87 10 87c36.9 31 102.8-71.9 99.4-101.7-15.9-140.3-109.4-59.3-109.4-59.3z" id="Layer_2"/>
    <g id="STROKES">
        <g id="XMLID_1_">
            <path class="st1" d="M1445.5 677.7l-52.3 79.1"/>
            <path class="st1" d="M1445.5 1260.9c2.1 1.7 73.3 60.4 61.4 172.8 0 0-73.5 13.5-73.5 85.5h128.2"/>
            <path class="st1" d="M470.5 297.7c-12.6 0-24.7 2.4-36 6.5-45 16.5-88.5 39-93 66s-19.5 61.5-63 60-61.1 60.9-52.3 91.2c8.8 30.3 67.3 124.8 133.3 76.8 66-48 105-84 133.5-9s30 214.2 24 313.3 85.5 168.1 91.5 214.6c3.7 28.7 16.5 168.6 25.8 271.7 4.7 52.4 8.5 95.3 9.8 109.1.3 3 .4 4.7.4 4.7l-60 73.5s-60-5.3-60 69.4H637l106.5-138.4v-391.5s207 28.5 259.5-36 168-130.5 241.5-61.5c64.2 60.2 103.2 183.4 201 242.6h.1c14.2 8.6 29.6 15.8 46.4 21.3 133.5 43.5 130.5 207 130.5 207s-39.4 1.6-60.8 30c-8 10.6-13.5 24.9-13.5 44.2h107.2l40.5-59.2-7.5-223.5s-175.5-25.5-189-283.5-150-252-150-252c-52.5-19.5-297 0-409.5-46.5s-292.5-255-348-327c-4-5.2-8.1-10.1-12.1-14.7"/>
            <path class="st1" d="M579.9 357c-15.9-140.4-109.4-59.3-109.4-59.3s22.5 24.5 0 74 10 87 10 87c36.9 31.1 102.8-71.9 99.4-101.7z"/>
            <path class="st1" d="M644.5 1498h-105s16.1-104.6 94.8-109.1"/>
        </g>
    </g>
</svg>
