<svg xmlns="http://www.w3.org/2000/svg" viewBox="0 0 1920 1920">
    <style>
        .st0{fill:#fff}.st1{fill:none;stroke:#231f20;stroke-width:50;stroke-linecap:round;stroke-linejoin:round;stroke-miterlimit:10}
    </style>
    <path class="st0" d="M607.4 1187.8c-18.1 43.7-22.2 78.4-18.4 105.8 0 0-290.3-78.6-290.3-290.3.1.1 142.8 214.7 308.7 184.5zM1280 444.3c-24-36.4-50.6-32.4-50.6-32.4s-98 106-62 102c4.8-.5 11 .3 18 2 46 11.2 130.5 61.8 128 40-6.6-56.3-19.6-90.7-33.4-111.6zm-114.6 139.5c-4.6 41.4-12.2 89.1-19 128.6 0 0 53.7 86.5 230.4 81.3-5.9-29.4-.7-58.9 30.6-92.8 0 0 86-21.3 140-23.3s38-73.8 38-73.8 56-58 28-94h-154s-24-80-126-74c-19.5 1.1-37.3 4-53.4 8.4 13.8 21 26.8 55.3 33.4 111.6 2.5 21.8-82-28.8-128-40-10.4 19.4-17.1 42.2-20 68zm166 770l-18-172.2c-19.1 18.8-39.4 36.2-60.2 52.3-8.1 63.9-16.8 129.9-16.8 129.9s30.6 34.9 50.4 68.3l126.5-9.4c-11.9-75.1-81.9-68.9-81.9-68.9zm-180 118c92 82 152 0 152 0-1.2-10.9-7.8-25.2-16.5-39.7-19.9-33.4-50.4-68.3-50.4-68.3s8.8-66 16.8-129.9c20.8-16.1 41.1-33.5 60.2-52.3 26.9-26.5 51.5-55.7 72-87.8 95.1-148.9 6.5-224.3-8.6-300-176.7 5.1-230.4-81.3-230.4-81.3-8 46.4-15 81.3-15 81.3s-72 65.9-146 128-310 102.1-378 266.1c-18.1 43.7-22.2 78.4-18.4 105.8 10.5 75.3 80.4 95.2 80.4 95.2s-22 29.9 0 83.9l332-.9s34-67.9-50-83c0 0 77.3-22.6 170.7-71.7l29.2 154.6z" id="Layer_6"/>
    <g id="STROKES">
        <g id="XMLID_1_">
            <path class="st1" d="M1280 444.3c16.1-4.4 33.9-7.3 53.4-8.4 102-6 126 74 126 74h154c28 36-28 94-28 94s16 71.8-38 73.8-140 23.3-140 23.3c-31.3 33.9-36.5 63.4-30.6 92.8 15.2 75.8 103.7 151.2 8.6 300-20.5 32.1-45.1 61.3-72 87.8-19.1 18.8-39.4 36.2-60.2 52.3-8.1 63.9-16.8 129.9-16.8 129.9s30.6 34.9 50.4 68.3c8.7 14.5 15.3 28.8 16.5 39.7 0 0-60 82-152 0l-29.3-154.6c-93.4 49.1-170.7 71.7-170.7 71.7 84 15 50 83 50 83l-332 .9c-22-54 0-83.9 0-83.9s-69.9-19.9-80.4-95.2c-3.8-27.4.2-62.1 18.4-105.8 68-164 304-204 378-266.1s146-128 146-128 7-35 15-81.3c6.8-39.5 14.4-87.2 19-128.6 2.9-25.9 9.6-48.6 20-68"/>
            <path class="st1" d="M1185.4 515.8c-7.1-1.7-13.2-2.5-18-2-36 4 62-102 62-102s26.6-4 50.6 32.4c13.8 21 26.8 55.3 33.4 111.6 2.5 21.8-82-28.7-128-40z"/>
            <path class="st1" d="M1122.1 1317.2l-17.6-211.4"/>
            <path class="st1" d="M1253.3 1233.9c4.4-35 8.6-69.4 11.1-92.1 7-64 19-93.1 19-93.1"/>
            <path class="st1" d="M1313.5 1181.6l18 172.2s70-6.2 82 68.9l-126.5 9.4"/>
            <path class="st1" d="M942.4 1388.9l-137-17s138-8.8 124-173.4"/>
            <path class="st1" d="M589 1293.7s-290.3-78.6-290.3-290.3c0 0 142.7 214.6 308.7 184.5"/>
            <path class="st1" d="M1146.4 712.5s53.7 86.5 230.4 81.3"/>
        </g>
    </g>
</svg>
