<svg xmlns="http://www.w3.org/2000/svg" viewBox="0 0 1920 1920">
    <style>
        .st0{fill:#fff}.st1{fill:none;stroke:#231f20;stroke-width:50;stroke-linecap:round;stroke-linejoin:round;stroke-miterlimit:10}
    </style>
    <path class="st0" d="M1199.5 1142.1V1703H731.7v-560.9c0-12.1.9-24 2.7-35.6 2.2-14.5 5.8-28.6 10.5-42.1 1.9-5.4 4-10.7 6.3-15.9 1.2-2.6 2.3-5.2 3.6-7.8 1.2-2.6 2.5-5.1 3.8-7.6.9-1.7 1.8-3.3 2.7-5 3.2-5.8 6.7-11.4 10.3-16.8.5-.8 1-1.5 1.6-2.3 1.1-1.5 2.2-3.1 3.3-4.6 2.2-3 4.5-6 6.8-8.9 1.8-2.2 3.6-4.3 5.4-6.5l1.8-2.1c1.9-2.1 3.8-4.2 5.7-6.2 1.3-1.4 2.6-2.7 3.9-4 42.3-42.3 100.8-68.5 165.4-68.5 64.6 0 123.1 26.2 165.4 68.5 5.3 5.3 10.3 10.8 15.1 16.6 1.2 1.4 2.4 2.9 3.5 4.4.6.7 1.2 1.5 1.7 2.2 8.5 11.1 16.1 23.1 22.6 35.7 1.3 2.5 2.5 5.1 3.7 7.6 1.2 2.6 2.4 5.2 3.5 7.8 12 28.1 18.5 58.8 18.5 91.1z" id="Layer_2"/>
    <g id="Layer_4">
        <path class="st0" d="M960 430L797 653.1h326z"/>
        <path class="st0" d="M1317.9 920l-103.7-142v30.4H705.8V778L602.1 920l-65.4 89.5v693.6h195v-560.9c0-12.1.9-24 2.7-35.6 2.2-14.5 5.8-28.6 10.5-42.1 1.9-5.4 4-10.7 6.3-15.9 1.1-2.6 2.3-5.2 3.6-7.8 1.2-2.6 2.5-5.1 3.8-7.6.9-1.7 1.8-3.3 2.7-5 3.2-5.8 6.7-11.4 10.3-16.8.5-.8 1-1.5 1.6-2.3 1.1-1.5 2.1-3.1 3.3-4.6 2.2-3 4.5-6 6.8-8.9 1.8-2.2 3.6-4.3 5.4-6.5l1.8-2.1c1.9-2.1 3.8-4.2 5.7-6.2 1.3-1.4 2.6-2.7 3.9-4 42.3-42.3 100.8-68.5 165.4-68.5 64.6 0 123.1 26.2 165.4 68.5 5.3 5.3 10.3 10.8 15.1 16.6 1.2 1.4 2.4 2.9 3.5 4.4.6.7 1.2 1.5 1.7 2.2 8.5 11.1 16.1 23.1 22.6 35.7 1.3 2.5 2.5 5.1 3.7 7.6 1.2 2.6 2.4 5.2 3.5 7.8 11.8 28 18.4 58.8 18.4 91V1703h195v-678.2L1317.9 920z"/>
    </g>
    <path class="st0" d="M1214.2 808.5V653.1H705.8v155.4z" id="Layer_5"/>
    <path class="st0" d="M1580.6 1055.4h-163.8l-22.2-30.5-76.7-104.9-103.7-142V653.1H1123L960 430 797 653.1h-91.2V778L602.1 920l-65.4 89.5-33.5 45.9H339.5L960 217z" id="Layer_6"/>
    <g id="STROKES">
        <path class="st1" d="M1131 976.7c42.3 42.3 68.5 100.8 68.5 165.4V1703H731.7v-560.9c0-129.2 104.7-233.9 233.9-233.9 64.6 0 123.1 26.2 165.4 68.5z"/>
        <path class="st1" d="M1199.5 1142.1V1703H731.7v-560.9c0-129.2 104.7-233.9 233.9-233.9 64.6 0 123.1 26.2 165.4 68.5 42.4 42.4 68.5 100.9 68.5 165.4z"/>
        <path class="st1" d="M1123 653.1H797L960 430z"/>
        <path class="st1" d="M1394.6 1024.9v678.2h-195v-560.9c0-64.6-26.2-123.1-68.5-165.4-42.3-42.3-100.8-68.5-165.4-68.5-129.2 0-233.9 104.7-233.9 233.9v560.9h-195v-693.6l65.4-89.5 103.7-142v30.4h508.4V778L1318 920l76.6 104.9z"/>
        <path class="st1" d="M1580.6 1055.4h-163.8l-22.2-30.5-76.7-104.9-103.7-142V653.1H1123L960 430 797 653.1h-91.2V778L602.1 920l-65.4 89.5-33.5 45.9H339.5L960 217z"/>
        <path class="st1" d="M705.8 653.1h508.4v155.3H705.8z"/>
    </g>
</svg>
