<svg xmlns="http://www.w3.org/2000/svg" viewBox="0 0 1920 1920">
    <style>
        .st0{fill:#fff}.st1{fill:none;stroke:#231f20;stroke-width:50;stroke-linecap:round;stroke-linejoin:round;stroke-miterlimit:10}
    </style>
    <path class="st0" d="M1703.1 859.5v756.7H944V995.3c0-4-3.8-7.9-10.8-11.5-27.1-14-102.1-24-190.4-24s-163.3 10-190.4 24c-7 3.6-10.8 7.5-10.8 11.5v620.9H354.3V730.8l1325.3 126.5 23.5 2.2z" id="Layer_8"/>
    <path class="st0" d="M944 995.3v620.9H541.5V995.3c0-4 3.8-7.9 10.8-11.5 27.1-14 102.1-24 190.4-24s163.3 10 190.4 24c7.1 3.6 10.9 7.5 10.9 11.5z" id="Layer_9"/>
    <path class="st0" d="M1703.1 778v81.5L216.9 699V598.1z" id="Layer_10"/>
    <g id="STROKES">
        <path class="st1" d="M1703.1 859.5v756.7H944V995.3c0-4-3.8-7.9-10.8-11.5-27.1-14-102.1-24-190.4-24s-163.3 10-190.4 24c-7 3.6-10.8 7.5-10.8 11.5v620.9H354.3V730.8l1325.3 126.5 23.5 2.2z"/>
        <path class="st1" d="M944 995.3v620.9H541.5V995.3c0-4 3.8-7.9 10.8-11.5 27.1-14 102.1-24 190.4-24s163.3 10 190.4 24c7.1 3.6 10.9 7.5 10.9 11.5z"/>
        <path class="st1" d="M354.3 1489.7h187.2v126.5H354.3z"/>
        <path class="st1" d="M944 1489.7h759.1v126.5H944z"/>
        <path class="st1" d="M354.3 1363.2h187.2v126.5H354.3z"/>
        <path class="st1" d="M944 1363.2h759.1v126.5H944z"/>
        <path class="st1" d="M354.3 1236.8h187.2v126.5H354.3z"/>
        <path class="st1" d="M944 1236.8h759.1v126.5H944z"/>
        <path class="st1" d="M354.3 1110.3h187.2v126.5H354.3z"/>
        <path class="st1" d="M944 1110.3h759.1v126.5H944z"/>
        <path class="st1" d="M354.3 983.8h198.1c-7 3.6-10.8 7.5-10.8 11.5v114.9H354.3V983.8z"/>
        <path class="st1" d="M1703.1 983.8v126.5H944v-115c0-4-3.8-7.9-10.8-11.5h769.9z"/>
        <path class="st1" d="M1703.1 859.5v124.2h-770c-27.1-14-102.1-24-190.4-24s-163.3 10-190.4 24h-198V857.3h1325.3l23.5 2.2z"/>
        <path class="st1" d="M1679.6 857.3H354.3V730.8z"/>
        <path class="st1" d="M1703.1 859.5L216.9 699V598.1L1703.1 778z"/>
    </g>
</svg>
