<svg xmlns="http://www.w3.org/2000/svg" viewBox="0 0 1920 1920">
    <style>
        .st0{fill:#fff}.st1{fill:none;stroke:#231f20;stroke-width:50;stroke-linecap:round;stroke-linejoin:round;stroke-miterlimit:10}
    </style>
    <path class="st0" d="M1218.8 1253.9s-128.7 72-248.8 441.1H336l24.9-185.1-111.3 62.1c9.2-50.3 71.7-142.3 153.4-240.2 0 0 149.6-547.9 410.3-854.9 291.3-343.2 513.5-288 624.5-129 0 0 111.7-35.8 136.6 14.2 0 0-184.5 141.8-301.6 138.8-117-3-144 54-144 54s78 21 144 108 216.8 174 306.4 132c0 0 17.6 90-75.4 90s-144-33-159-18-39 111-39 111 442.5 335.2 352.5 719.2c0 0-208.5-260.2-370.5-293.2 0 0-21-120-69-150zm-197.2-750.2c0-.3-.2-.5-.5-.5s-.5.2-.5.5.2.5.5.5c.2 0 .5-.2.5-.5z" id="Layer_3"/>
    <path class="st0" d="M1574.3 362c3.9 7.9 5.7 18 4.5 30.8-9 93-192 155.1-204 191.1s102.8 187 204.4 211c-89.6 42-240.4-45-306.4-132-66-87-144-108-144-108s27-57 144-54c117 2.9 301.5-138.9 301.5-138.9z" id="Layer_4"/>
    <g id="STROKES">
        <path class="st1" d="M827.4 954c-73.7 10.9-279.2 203.6-424.4 377.6-81.7 97.9-144.2 189.9-153.4 240.2l111.3-62.1 248.8-138.9s126-177 177-210 66-81 69-96"/>
        <path class="st1" d="M1574.3 362s-184.5 141.8-301.6 138.8c-117-3-144 54-144 54s78 21 144 108 216.8 174 306.4 132"/>
        <path class="st1" d="M1437.8 347.8s-102 28.5-165 57"/>
        <path class="st1" d="M1218.8 1253.9s48-44.4 66-135"/>
        <path class="st1" d="M969.9 1694.9c120.2-369 248.8-441.1 248.8-441.1 48 30 69 150 69 150 162 33 370.5 293.2 370.5 293.2 90-384-352.5-719.2-352.5-719.2s24-96 39-111 66 18 159 18 75.4-90 75.4-90c-101.6-24-216.4-175-204.4-211s195-98.1 204-191.1c1.2-12.7-.5-22.8-4.5-30.8-24.8-50-136.6-14.2-136.6-14.2-111-159-333.1-214.1-624.5 129-260.4 307.1-410.1 855-410.1 855"/>
        <path class="st1" d="M360.9 1509.8L336 1694.9"/>
        <path class="st1" d="M1021.6 503.7c0 .3-.2.5-.5.5s-.5-.2-.5-.5.2-.5.5-.5c.2 0 .5.2.5.5z"/>
    </g>
</svg>
