<svg xmlns="http://www.w3.org/2000/svg" viewBox="0 0 1920 1920">
    <style>
        .st0{fill:#fff}.st1{fill:none;stroke:#231f20;stroke-width:50;stroke-linecap:round;stroke-linejoin:round;stroke-miterlimit:10}
    </style>
    <path class="st0" d="M1195.8 1014.9c19.8-31 35.6-67.1 47.3-98.4 38.1-9.3 80.1-22.4 120.7-35.4 0 .1-1.5 122.9-168 133.8zM969.9 686.6c-24.4 11-47.9 23.4-70.6 36.8-47.3-11.6-119.7-25.4-191.2-21.3-115.4 6.7-137.6 64.4-137.6 64.4s121.6-3.5 141.7 108.1c-157.7 165.1-244.8 363.6-270.8 429 84.1-10.6 147.2-55.2 147.2-108.6 0 42.5 40 79.4 98.7 98 108.7-117.7 260.6-220.1 379.3-288.9l1.6.8c-25.7 48.4-56 76.7-56 76.7s24.4 39.9 115.4 0c26.4-11.6 49.2-36.8 68.3-66.7 19.8-31 35.6-67.1 47.3-98.4 38.1-9.3 80.1-22.4 120.7-35.4 65.9-21 128.3-41.8 165.4-45.9 59.9-6.7 146.5 17.8 155.3-28.8 8.9-46.6-91-51-91-51 6.6-68.8-250.8-237.4-623.7-68.8z" id="Layer_5"/>
    <g id="STROKES">
        <path class="st1" d="M1243.1 916.5c38.1-9.3 80.1-22.4 120.7-35.4 65.9-21 128.3-41.8 165.4-45.9 59.9-6.7 146.5 17.8 155.3-28.8 8.9-46.6-91-51-91-51 6.6-68.8-250.8-237.5-623.6-68.8-24.4 11-47.9 23.4-70.6 36.8-47.3-11.6-119.7-25.4-191.2-21.3-115.4 6.7-137.6 64.4-137.6 64.4s121.6-3.5 141.7 108.1c-157.7 165.1-244.8 363.6-270.8 429"/>
        <path class="st1" d="M687.2 1293.1c108.7-117.7 260.6-220.1 379.3-288.9"/>
        <path class="st1" d="M216.9 1195.1c0 61.3 83.2 111 185.8 111 13.2 0 26.1-.8 38.6-2.4 84.1-10.6 147.2-55.2 147.2-108.6 0 42.5 40 79.4 98.7 98 26 8.2 55.6 12.9 87 12.9 102.6 0 185.8-49.7 185.8-111 0 61.3 83.2 111 185.8 111 102.6 0 185.8-49.7 185.8-111 0 61.3 83.2 111 185.8 111 102.6 0 185.8-49.7 185.8-111"/>
        <path class="st1" d="M1267.3 839.7s-8.2 34-24.2 76.8c-11.7 31.3-27.5 67.4-47.3 98.4-19.1 29.9-42 55.1-68.3 66.7-91 39.9-115.4 0-115.4 0s30.2-28.2 56-76.7c17-31.9 31.9-72.6 35-119.8"/>
        <path class="st1" d="M1363.8 881.2s-1.6 122.8-168 133.7"/>
        <path class="st1" d="M1467 768.7s77.7-26.6 126.5-13.3"/>
    </g>
</svg>
