<svg xmlns="http://www.w3.org/2000/svg" viewBox="0 0 1920 1920">
    <style>
        .st0{fill:#fff}.st1{fill:none;stroke:#231f20;stroke-width:50;stroke-linecap:round;stroke-linejoin:round;stroke-miterlimit:10}
    </style>
    <path class="st0" d="M1265 1316.6H217l69.2-196.1 120.3-218 94.2-137.8 216.3-104 243-57.3 243 57.3 216.3 104 94.2 137.8 120.3 218 69.3 196.1z" id="Layer_2"/>
    <g id="STROKES">
        <path class="st1" d="M1118.7 1050.1L960 1316.6l-158.7-266.5z"/>
        <path class="st1" d="M960 853.7l-158.7 196.4-116.8-171.5z"/>
        <path class="st1" d="M1102.7 716.4L960 853.7 817.3 716.4z"/>
        <path class="st1" d="M960 853.7l-275.5 24.9 132.8-162.2z"/>
        <path class="st1" d="M684.5 878.7L547.2 1080l254.1-29.9z"/>
        <path class="st1" d="M684.5 878.7L493.9 932l53.3 148z"/>
        <path class="st1" d="M684.5 878.7l-89.6-103.3-101 156.6z"/>
        <path class="st1" d="M801.3 1050.1L655 1316.6 547.2 1080z"/>
        <path class="st1" d="M960 1316.6H655l146.3-266.5z"/>
        <path class="st1" d="M547.2 1080l-121.4 236.6H655z"/>
        <path class="st1" d="M547.2 1080l-182.7 18.8 61.3 217.8z"/>
        <path class="st1" d="M493.9 932l-129.4 166.8 182.7-18.8z"/>
        <path class="st1" d="M493.9 932l101-156.6-188.4 127.1z"/>
        <path class="st1" d="M406.5 902.5l-42 196.3L493.9 932z"/>
        <path class="st1" d="M364.5 1098.8l-78.3 217.8h139.6z"/>
        <path class="st1" d="M406.5 902.5l-120.3 218 78.3-21.7z"/>
        <path class="st1" d="M364.5 1098.8l-78.3 21.7v196.1z"/>
        <path class="st1" d="M286.2 1120.5l-69.3 196.1h69.3z"/>
        <path class="st1" d="M594.9 775.4l222.4-59-132.8 162.3z"/>
        <path class="st1" d="M817.3 716.4L717 660.7 594.9 775.4z"/>
        <path class="st1" d="M1102.7 716.4H817.3l142.7-113z"/>
        <path class="st1" d="M960 603.4l-142.7 113L717 660.7z"/>
        <path class="st1" d="M717 660.7l-216.3 104 94.2 10.7z"/>
        <path class="st1" d="M500.7 764.7l-94.2 137.8 188.4-127.1z"/>
        <path class="st1" d="M1118.7 1050.1L960 1316.6l-158.7-266.5z"/>
        <path class="st1" d="M1118.7 1050.1H801.3L960 853.7z"/>
        <path class="st1" d="M1235.5 878.6l-116.8 171.5L960 853.7z"/>
        <path class="st1" d="M1235.5 878.6L960 853.7l142.7-137.3z"/>
        <path class="st1" d="M1235.5 878.7l137.3 201.3-254.1-29.9z"/>
        <path class="st1" d="M1235.5 878.7l190.6 53.3-53.3 148z"/>
        <path class="st1" d="M1235.5 878.7l89.6-103.3 101 156.6z"/>
        <path class="st1" d="M1372.8 1080L1265 1316.6l-146.3-266.5z"/>
        <path class="st1" d="M1372.8 1080l121.4 236.6H1265z"/>
        <path class="st1" d="M1372.8 1080l182.7 18.8-61.3 217.8z"/>
        <path class="st1" d="M1426.1 932l129.4 166.8-182.7-18.8z"/>
        <path class="st1" d="M1426.1 932l-101-156.6 188.4 127.1z"/>
        <path class="st1" d="M1513.5 902.5l42 196.3L1426.1 932z"/>
        <path class="st1" d="M1555.5 1098.8l78.3 217.8h-139.6z"/>
        <path class="st1" d="M1513.5 902.5l120.3 218-78.3-21.7z"/>
        <path class="st1" d="M1555.5 1098.8l78.3 21.7v196.1z"/>
        <path class="st1" d="M1633.8 1120.5l69.3 196.1h-69.3z"/>
        <path class="st1" d="M1325.1 775.4l-222.4-59 132.8 162.3z"/>
        <path class="st1" d="M1102.7 716.4l100.3-55.7 122.1 114.7z"/>
        <path class="st1" d="M1203 660.7l-100.3 55.7-142.7-113z"/>
        <path class="st1" d="M1203 660.7l216.3 104-94.2 10.7z"/>
        <path class="st1" d="M1419.3 764.7l94.2 137.8-188.4-127.1z"/>
        <path class="st1" d="M1265 1316.6H960l158.7-266.5z"/>
    </g>
</svg>
