<svg xmlns="http://www.w3.org/2000/svg" viewBox="0 0 1920 1920">
    <style>
        .st0{fill:#fff}.st1{fill:#f44336}.st2{fill:none;stroke:#231f20;stroke-width:50;stroke-linecap:round;stroke-linejoin:round;stroke-miterlimit:10}
    </style>
    <path class="st0" d="M1627.9 692.1s-337.9-26.2-341.6 51.8c-2.2 47.2 45.8 89.2 45.8 89.2-64.5-23.2-189.7-7.4-177.7 83.2 0 0-88.7-37.3-166.3 45.2 111.3 40.9 979.4 179.8 574.3 527.1-130.8 112.2-60 183-60 183s-159-38.2-135-146.3 249-152.9 81-239.9-390 13.2-390 13.2l5.9 190h-255c18-84.8 120-102.4 120-102.4l14.8-77.8c-87.8 4.5-279.3 65.1-392 13l-9 164.1-232.9 3.1c7.9-24.6 54.3-70 96.6-72.2l26.4-26.4c13.5-13.5 17.8-46.3 19.1-114.9-55.3-44.4-198-136.8-201.7-244.8-7.8-229.7 156-329.4 279-358 123-28.6 123-118.6 74.7-171.3-48.3-52.7-107.6 54.9-114.2 59.3-6.6 4.4-54.9 15.4-76.9 50.5-22 35.1-96.6 26.4-96.6 26.4s-68.1-17.6-65.9-37.3c2.2-19.8 90-43.9 83.5-72.5-6.6-28.6 11-76.9 81.3-101s81.3-177.9 81.3-177.9c70.3 37.3 60.4 105.3 60.4 105.3s62.5-2.1 139.4 77c92.5 95.1 52.7 248.2-70.3 305.3-123 57.1-54.9 131.8 70.3 142.8 13.5 1.2 31 4.2 51.5 8.7 16.8-43.8 286.8-560 686.5-610.5 0 0-177.9 76.9-208.7 164.7-30.8 87.9 125.2 28.6 125.2 28.6s-63.4 90.5-43.7 119c19.9 28.4 219.5-2.7 320.5 102.7z" id="Layer_2"/>
    <g id="STROKES">
        <path class="st2" d="M988.2 961.5c77.6-82.5 166.3-45.2 166.3-45.2-12-90.6 113.2-106.4 177.7-83.2 0 0-48-42.1-45.8-89.2 3.6-78 341.6-51.8 341.6-51.8-101-105.4-300.6-74.3-320.4-102.8-19.8-28.5 43.7-119 43.7-119s-155.9 59.3-125.2-28.6c30.7-87.9 208.7-164.7 208.7-164.7-399.9 50.5-669.8 566.7-686.6 610.5-20.5-4.5-38-7.5-51.5-8.7-125.2-11-193.3-85.7-70.3-142.8 123-57.1 162.8-210.2 70.3-305.3-76.9-79.1-139.4-77-139.4-77s9.8-68-60.4-105.3c0 0-11 153.7-81.3 177.9s-87.9 72.5-81.3 101c6.6 28.6-81.3 52.7-83.5 72.5-2.2 19.8 65.9 37.3 65.9 37.3s74.7 8.8 96.6-26.4c22-35.1 70.3-46.1 76.9-50.5 6.6-4.4 65.9-112 114.2-59.3s48.3 142.8-74.7 171.3-286.8 128.3-279 358c3.7 108 146.4 200.4 201.7 244.8-1.2 68.5-5.5 101.3-19.1 114.9l-26.4 26.4c-42.3 2.2-88.7 47.6-96.6 72.2l232.9-3.1 9-164.1c112.7 52.1 304.2-8.5 392-13l-14.8 77.8s-102 17.7-120 102.4h255l-5.9-190s222-100.2 390-13.2-57 131.8-81 239.9 135 146.3 135 146.3-70.8-70.8 60-183c405.1-347.2-462.9-486.2-574.3-527z" id="XMLID_1_"/>
    </g>
</svg>
