<svg xmlns="http://www.w3.org/2000/svg" viewBox="0 0 1920 1920">
    <style>
        .st0{fill:#fff}.st1{fill:#f44336}.st2{fill:none;stroke:#231f20;stroke-width:50;stroke-linecap:round;stroke-linejoin:round;stroke-miterlimit:10}
    </style>
    <path class="st0" d="M1431.8 807.8s-96.4 36.4-36.4 141.9c0 0-96.4-12.7-94.6 105.5 0 0-110.3-30.2-140.7 79.5 15.7-73 53.2-136.1 86.7-180.9 33.5-44.8 63.1-71.4 63.1-71.4-6.6-27.4-14.3-52.3-22.8-75 43-9.9 91.4-11.6 144.7.4zm-123.7-369.2c-66.9-121.1 20.4-234.5 9.1-223.7-167.3 36.4-105.5 167.3-90.9 298.2 4.7 41.9-20.9 72.2-57.9 94.1-50.8-56.7-93.1-79.6-93.1-79.6 13.9 38.4 18.9 76.2 19.2 110.3-65.3 19.3-131 24-134.5 24.2-3.5-.2-69.2-4.9-134.5-24.2.3-34.1 5.3-71.9 19.2-110.3 0 0-42.3 22.8-93.1 79.6-36.9-21.9-62.5-52.2-57.9-94.1 14.6-130.9 76.4-261.9-90.9-298.2-11.3-10.9 76 102.6 9.1 223.7-50.5 91.4-31 192.9 14.5 250.5-56.6-56.5-147.3-28.6-147.3-28.6C506.4 786 622.8 799.4 622.8 799.4l14.3-2.9c-1.4 3.6-2.8 7.2-4.2 10.9-8.5 22.7-16.2 47.5-22.8 75 0 0 29.6 26.5 63.1 71.4 33.5 44.8 70.9 107.9 86.7 180.9.8 3.8 1.6 7.6 2.2 11.4.1.7.2 1.3.4 2 4.4 17.9 48.8 142.7 137.7 184.4 18.1 8.5 38 13.6 59.7 13.6h.3c21.8-.1 41.7-5.1 59.7-13.6 88.8-41.8 133.3-166.5 137.7-184.4.1-.7.2-1.4.4-2 .7-3.8 1.4-7.6 2.2-11.4 15.7-73 53.2-136.1 86.7-180.9 33.5-44.8 63.1-71.4 63.1-71.4-6.6-27.4-14.3-52.3-22.8-75-1.4-3.7-2.8-7.3-4.2-10.9l14.3 2.9S1413.7 786 1441 660.5c0 0-90.7-27.9-147.3 28.6 45.5-57.5 64.9-159.1 14.4-250.5zm-106.3 360.8c12.5 212-160.7 172.6-160.7 172.6-26.8-43.8.6-174.8 160.7-172.6zm-483.6 0c160.1-2.2 187.5 128.7 160.7 172.6 0 .1-173.2 39.5-160.7-172.6zm439.4 348.7c-4.4 17.9-48.8 142.7-137.7 184.4v134.8c62.2-53 154.2-96.6 136.1-217.5-5.3-35.3-4.1-69.4 1.6-101.7zm-395.2 0c5.7 32.3 6.9 66.4 1.6 101.7-18.9 126 72.5 165.6 136.1 217.5v-134.8c-88.8-41.8-133.3-166.5-137.7-184.4zm-89.3-194.4c-33.5-44.8-63.1-71.4-63.1-71.4 6.6-27.4 14.3-52.3 22.8-75-43-9.9-91.4-11.6-144.7.4 0 0 96.4 36.4 36.4 141.9 0 0 96.4-12.7 94.6 105.5 0 0 110.4-30.2 140.7 79.5-15.7-73-53.2-136.1-86.7-180.9z" id="Layer_3"/>
    <path class="st0" d="M1019.9 1467.2V1703l-56.5-100.5-63.3 94.1v-364.2c18.1 8.5 38 13.6 59.7 13.6h.3c21.8-.1 41.7-5.1 59.7-13.6v134.8z" id="Layer_4"/>
    <path class="st0" d="M1201.8 799.4c12.5 212-160.7 172.6-160.7 172.6-26.8-43.8.6-174.8 160.7-172.6zM878.9 972.1c26.8-43.9-.6-174.9-160.7-172.6-12.5 212 160.7 172.6 160.7 172.6z" id="Layer_5"/>
    <g id="STROKES">
        <g id="XMLID_1_">
            <path class="st2" d="M762.1 1146c-1.2-.6-96-49.9-152 105.5-56.4 156.4-216.4 140-234.6 36.4-18.2-103.7-90.9-103.7-90.9-103.7"/>
            <path class="st2" d="M632.9 807.4c-43-9.9-91.4-11.6-144.7.4 0 0 96.4 36.4 36.4 141.9 0 0 96.4-12.7 94.6 105.5 0 0 110.4-30.2 140.7 79.5"/>
            <path class="st2" d="M1157.9 1146c1.2-.6 96-49.9 152 105.5 56.4 156.4 216.4 140 234.6 36.4 18.2-103.7 90.9-103.7 90.9-103.7"/>
            <path class="st2" d="M1157.9 1146c0 .3-.1 1-.4 2-4.4 17.9-48.8 142.7-137.7 184.4-18.1 8.5-38 13.6-59.7 13.6h-.3c-21.8-.1-41.7-5.1-59.7-13.6-88.8-41.8-133.3-166.5-137.7-184.4-.3-1.1-.4-1.7-.4-2"/>
            <path class="st2" d="M1287.1 807.4c-1.4-3.7-2.8-7.3-4.2-10.9l14.3 2.9s116.4-13.4 143.7-138.9c0 0-90.7-27.9-147.3 28.6 45.5-57.5 65-159.1 14.5-250.5-66.9-121.1 20.4-234.5 9.1-223.7-167.3 36.4-105.5 167.3-90.9 298.2 4.7 41.9-20.9 72.2-57.9 94.1-50.8-56.7-93.1-79.6-93.1-79.6 13.9 38.4 18.9 76.2 19.2 110.3-65.3 19.3-131 24-134.5 24.2-3.5-.2-69.2-4.9-134.5-24.2.3-34.1 5.3-71.9 19.2-110.3 0 0-42.3 22.8-93.1 79.6-36.9-21.9-62.5-52.2-57.9-94.1 14.6-130.9 76.4-261.9-90.9-298.2-11.3-10.9 76 102.6 9.1 223.7-50.5 91.4-31 192.9 14.5 250.5-56.6-56.5-147.3-28.6-147.3-28.6C506.4 786 622.8 799.4 622.8 799.4l14.3-2.9c-1.4 3.6-2.8 7.2-4.2 10.9-8.5 22.7-16.2 47.5-22.8 75 0 0 29.6 26.5 63.1 71.4 33.5 44.8 70.9 107.9 86.7 180.9.8 3.8 1.6 7.6 2.2 11.4.1.7.2 1.3.4 2 5.7 32.3 6.9 66.4 1.6 101.7-18.9 126 72.5 165.6 136.1 217.5"/>
            <path class="st2" d="M1019.9 1467.2c62.2-53 154.2-96.6 136.1-217.5-5.3-35.2-4-69.3 1.6-101.7.1-.7.2-1.4.4-2 .7-3.8 1.4-7.6 2.2-11.4"/>
            <path class="st2" d="M718.2 799.4C705.7 1011.4 878.9 972 878.9 972c26.8-43.8-.6-174.8-160.7-172.6z"/>
            <path class="st2" d="M1201.8 799.4c12.5 212-160.7 172.6-160.7 172.6-26.8-43.8.6-174.8 160.7-172.6z"/>
            <path class="st2" d="M1160.2 1134.6c15.7-73 53.2-136.1 86.7-180.9 33.5-44.8 63.1-71.4 63.1-71.4-6.6-27.4-14.3-52.3-22.8-75 43-9.9 91.4-11.6 144.7.4 0 0-96.4 36.4-36.4 141.9 0 0-96.4-12.7-94.6 105.5-.1 0-110.4-30.1-140.7 79.5z"/>
            <path class="st2" d="M890.4 1200.6s34.5-5.5 41.8 21.8"/>
            <path class="st2" d="M1029.9 1200.6s-34.5-5.5-41.8 21.8"/>
            <path class="st2" d="M900.1 1332.5v364.2l63.3-94.1 56.5 100.5v-370.6"/>
            <path class="st2" d="M1117.3 824.2v135.7"/>
            <path class="st2" d="M802.7 824.2v135.7"/>
        </g>
    </g>
</svg>
