<svg xmlns="http://www.w3.org/2000/svg" viewBox="0 0 1920 1920">
    <style>
        .st0{fill:#fff}.st1{fill:#f44336}.st2{fill:none;stroke:#231f20;stroke-width:50;stroke-linecap:round;stroke-linejoin:round;stroke-miterlimit:10}
    </style>
    <path class="st0" d="M1066.5 915.1c-.1-.2-.2-.3-.2-.5l524.4-354.1c1-.2 2-.5 3-.8 0 0-174.1 391 77.4 404.7-85.6 2.9-312.8 27.2-308 202.6 0 0-127.3-207.3-280.6-207.8l-1.8.1c-1.5-16-6.5-30.7-14.2-44.2zM1355 213c-56 392-315.3 668.7-315.3 668.7l-.1.1c4.1 3.8 7.9 7.8 11.5 11.9 5.8 6.7 10.9 13.7 15.1 21l524.4-354.1C1489.8 581.9 1355 213 1355 213zM869.5 829.6l-538.8-269c-1.2-.2-2.4-.5-3.6-.9 0 0 174.1 391-77.4 404.7 85.6 2.9 312.8 27.2 308 202.6 2 .1 176.8-102.9 263.8-218.8 26.9-35.8 45.4-72.9 47.8-108.5.2-3.4.3-6.7.2-10.1zm-4.5-7.3s-.1 0 0 0C809.1 743 485.7 538.9 565.6 213.1c-2 5.5-135 367.2-235 347.5l538.8 269c-.1-.3-1.9-2.9-4.4-7.3z" id="Layer_6"/>
    <path class="st0" d="M1108 558c27.8 1.6 32.1 48.6 27 76-.2 1-16.3 7.8-16.6 8.6L992 609l91 98.2-64.5 49.2-19.4-49.2s-44.9-29.5-50.6-15.4c-5.6 14-34.1 92 38.5 153.2 19.8 10.6 37.8 22.8 52.6 36.7 4.1 3.8 7.9 7.8 11.5 11.9 5.8 6.7 10.9 13.7 15.1 21l-.6.4.8.1c7.7 13.5 12.7 28.2 14.1 44.2 7.2 83.7-54.9 160-101.5 247.7-34 64 48.2 137.2 44 206-4.2 68.8-155.9 295.7-155.9 295.7S889.5 1473 881 1411c-16-116-126-124-61.6-241.7 36.9-67.4 120.8-134.9 18.2-210.1l-16.2-11c26.9-35.8 45.4-72.9 47.8-108.5.2-3.4.3-6.8.3-10.1-1.2-2.3-2.7-4.7-4.5-7.2v-.1c-10.2-17.5-33-64.2-23.1-115 2.9-14.6 7-31.2 12.6-48.2-76.9-56.1-53.3-124.7-53.3-124.7 25 40.1 55.6 58.2 78.4 66.4 3.3-5.8 6.8-11.4 10.5-16.8-73.9-99.1-2.8-214.4 9.3-232.5-28.6 43.7-7.1 102.9 21.7 125.5 7.3-2.8 54.1-11.5 62.3-12 63.2-3.6 48.9 88.7 124.6 93z" id="Layer_7"/>
    <g id="STROKES">
        <g id="XMLID_1_">
            <path class="st1" d="M865 822.3c1.8 2.5 3.3 5 4.5 7.2-.2-.2-2-2.8-4.5-7.2z"/>
            <path class="st2" d="M899.7 350.9c-.1.2-.3.4-.4.6-28.6 43.7-7.1 102.9 21.7 125.5 7.3-2.8 54.1-11.5 62.3-12 63.3-3.6 49 88.7 124.7 93 27.8 1.6 32.1 48.6 27 76-.2 1-16.3 7.8-16.6 8.6L992 609l91 98.2-64.5 49.2-19.4-49.2s-44.9-29.5-50.6-15.4c-5.6 14-34.1 92 38.5 153.2 19.8 10.6 37.8 22.8 52.6 36.7 4.1 3.8 7.9 7.8 11.5 11.9 5.8 6.7 10.9 13.7 15.1 21 .1.2.2.3.2.5 7.7 13.5 12.7 28.2 14.1 44.2 7.2 83.7-54.9 160-101.5 247.7-34 64 48.2 137.2 44 206-4.2 68.8-155.9 295.7-155.9 295.7S889.5 1473 881 1411c-16-116-126-124-61.6-241.7 36.9-67.4 120.8-134.9 18.2-210.1l-16.2-11"/>
            <path class="st2" d="M900.6 349.5c-.1.1-.2.2-.2.4-.1.1-.2.3-.3.4"/>
            <path class="st2" d="M900.1 350.3c.1-.1.2-.3.3-.4.1-.1.2-.2.2-.4.1-.2.2-.4.4-.5"/>
            <path class="st2" d="M900.1 350.3c-.1.1-.1.2-.2.3-.1.1-.1.2-.2.3"/>
            <path class="st2" d="M864.9 822.3c-10.2-17.5-33-64.2-23.1-115 2.9-14.6 7-31.2 12.6-48.2-76.9-56.1-53.3-124.7-53.3-124.7 25 40.1 55.6 58.2 78.4 66.4 3.3-5.8 6.8-11.4 10.5-16.8-73.9-99.1-2.8-214.4 9.3-232.5.1-.2.3-.4.4-.6"/>
            <path class="st2" d="M869.5 829.6c-.2-.3-2-2.9-4.5-7.2"/>
            <path class="st2" d="M1671 964.4c-85.6 2.9-312.8 27.2-308 202.6 0 0-127.3-207.3-280.6-207.8"/>
            <path class="st2" d="M1671 964.4c10 .5 20.7.5 32.1-.2 0 0-12.3-.4-32.1.2z"/>
            <path class="st2" d="M1039.7 881.7S1299 605 1355 213c0 0 134.8 368.9 235.6 347.5 1-.2 2-.5 3-.8 0 0-174.1 391 77.4 404.7"/>
            <path class="st2" d="M1591.7 559.7l-1.1.8-524.4 354.1-.5.4"/>
            <path class="st2" d="M1613 959l-546.5-43.9-.8-.1"/>
            <path class="st2" d="M249.7 964.4c85.6 2.9 312.8 27.2 308 202.6 2 .1 176.8-102.9 263.8-218.8 26.9-35.8 45.4-72.9 47.8-108.5.2-3.4.3-6.8.3-10.1"/>
            <path class="st2" d="M249.7 964.4c-10 .5-20.7.5-32.1-.2 0 0 12.2-.4 32.1.2z"/>
            <path class="st2" d="M565.6 213c-2 5.6-135 367.2-235 347.6-1.2-.2-2.4-.5-3.6-.9 0 0 174.1 391-77.4 404.7"/>
            <path class="st2" d="M869.5 829.6c-1.2-2.3-2.7-4.7-4.5-7.3v-.1C809.1 743 485.7 538.9 565.6 213.1"/>
            <path class="st2" d="M328.9 559.7l1.7.9 538.9 269"/>
            <path class="st2" d="M307.6 959l561.6-119.3"/>
        </g>
    </g>
</svg>
