<svg xmlns="http://www.w3.org/2000/svg" viewBox="0 0 1920 1920">
    <style>
        .st0{fill:#fff}.st1{fill:none;stroke:#231f20;stroke-width:50;stroke-linecap:round;stroke-linejoin:round;stroke-miterlimit:10}
    </style>
    <path class="st0" d="M1269.2 1109.2c-42.8-216.2-87.2-280.6-104-298.1H754.8c-16.8 17.5-61.2 81.9-104 298.1-54.2 273.9-97.2 533.1-97.2 533.1s16.3 30.8 129.1 21.6c0 0 3.4 28.4 107.9 28.4 0 0 28.7.4 40.5-6.2 0 0 26.2 16.9 128.9 16.9s128.9-16.9 128.9-16.9c11.7 6.7 40.5 6.2 40.5 6.2 104.5 0 107.9-28.4 107.9-28.4 112.8 9.2 129.1-21.6 129.1-21.6s-42.9-259.2-97.2-533.1zM759.8 706.6h400.4c5.2-31 15.2-67.6 33.7-107.2 54-115.7-19.4-238.8-19.4-238.8h-40.6C1100.4 477 960 517.1 960 517.1S819.6 477 786.2 360.6h-40.6s-73.5 123-19.4 238.8c18.4 39.6 28.5 76.2 33.6 107.2z" id="Layer_2"/>
    <path class="st0" d="M1165.2 811.1H754.8c4.5-4.7 7-6 7-6s7.9-38.9-2-98.5h400.4c-9.9 59.6-2 98.5-2 98.5s2.5 1.3 7 6z" id="Layer_4"/>
    <g id="STROKES">
        <path class="st1" d="M1366.4 1642.4s-16.3 30.8-129.1 21.6c0 0-3.4 28.4-107.9 28.4 0 0-28.7.4-40.5-6.2 0 0-26.2 16.9-128.9 16.9s-128.9-16.9-128.9-16.9c-11.7 6.7-40.5 6.2-40.5 6.2-104.5 0-107.9-28.4-107.9-28.4-112.9 9.2-129.1-21.6-129.1-21.6s42.9-259.2 97.2-533.1c42.8-216.2 87.2-280.6 104-298.1 4.5-4.7 7-6 7-6s7.9-38.9-2-98.5c-5.2-31-15.2-67.6-33.7-107.2-54-115.7 19.4-238.8 19.4-238.8h40.6C819.6 477 960 517.1 960 517.1s140.4-40.2 173.8-156.6h40.6s73.5 123 19.4 238.8c-18.5 39.6-28.5 76.2-33.7 107.2-9.9 59.6-2 98.5-2 98.5s2.5 1.3 7 6c16.8 17.5 61.2 81.9 104 298.1 54.4 274 97.3 533.3 97.3 533.3z"/>
        <path class="st1" d="M786.2 360.6V216.9"/>
        <path class="st1" d="M745.6 360.6l-26.5-143.7"/>
        <path class="st1" d="M1133.5 360.6V216.9"/>
        <path class="st1" d="M1174.1 360.6l26.5-143.7"/>
        <path class="st1" d="M1165.2 811.1H754.8c4.5-4.7 7-6 7-6s7.9-38.9-2-98.5h400.4c-9.9 59.6-2 98.5-2 98.5s2.5 1.3 7 6z"/>
        <path class="st1" d="M682.7 1664l62.4-599.4"/>
        <path class="st1" d="M831.1 1686.2l17.9-588.3"/>
        <path class="st1" d="M1237.3 1664l-62.4-599.4"/>
        <path class="st1" d="M1088.9 1686.2l-17.8-588.3"/>
    </g>
</svg>
