<svg xmlns="http://www.w3.org/2000/svg" viewBox="0 0 1920 1920">
    <style>
        .st0{fill:#fff}.st1,.st2{fill:none;stroke:#000;stroke-width:.5;stroke-linecap:round;stroke-linejoin:round}.st2{stroke:#231f20;stroke-width:50;stroke-miterlimit:10}
    </style>
    <path class="st0" d="M1703.6 1314.2c0 60.7-26.7 73.8-49.8 103.1l-.1-.1s14.6-116-118.8-98-451.1 144-574 6c-122.8 138-440.5 12-574-6-132.6-17.9-119.5 99-119.3 100.4-23.5-30.9-51.6-43.1-51.6-105.4 0-88 89-96 89-96h1309.7c-.1 0 88.9 8 88.9 96zM382.4 703.8l-54.8 75.9 51.3 72.5c-137.6 188.3 0 366 0 366h1164s137.6-177.7 0-366l51.3-72.5-54.8-75.9s-54-302.6 122.2-374H260.3c176.2 71.4 122.1 374 122.1 374zm623.8 423V861.7h438.2v265.1h-438.2zm0-362.1V499.6h438.2v265.1h-438.2zm-528.6 362.1V861.7h438.2v265.1H477.6zm0-362.1V499.6h438.2v265.1H477.6z" id="Layer_7"/>
    <path class="st0" d="M1444.3 861.7v265.1h-438.2V861.7h438.2zm-438.1-362.1v265.1h438.2V499.6h-438.2zM477.6 861.7v265.1h438.2V861.7H477.6zm0-362.1v265.1h438.2V499.6H477.6z" id="Layer_8"/>
    <g id="STROKES">
        <g id="XMLID_2_">
            <path class="st2" d="M217.9 329.8H1704"/>
            <path class="st2" d="M267.6 1419.7c-23.5-30.9-51.6-43.1-51.6-105.4 0-88 89-96 89-96h1308"/>
            <path class="st2" d="M216 1590.2s96-36 76-118c-5.8-23.9-14.7-39.8-24.4-52.5"/>
            <path class="st2" d="M1703.6 1590.2s-96-36-76-118c6.2-25.4 15.8-41.8 26.2-54.9 23.1-29.2 49.8-42.3 49.8-103.1 0-88-89-96-89-96"/>
            <path class="st2" d="M267.6 1419.7c-.2-1.4-13.3-118.3 119.3-100.5 133.4 18 451.1 144 574 6"/>
            <path class="st2" d="M1653.8 1417.2s14.6-116-118.8-98-451.1 144-574 6"/>
            <path class="st2" d="M1543 1218.2s137.6-177.7 0-366l51.3-72.5-54.8-75.9s-54-302.6 122.2-374"/>
            <path class="st2" d="M379 1218.2s-137.6-177.7 0-366l-51.3-72.5 54.8-75.9s54-302.6-122.1-374"/>
            <path class="st2" d="M477.6 861.7h438.2v265.1H477.6z"/>
            <path class="st2" d="M1006.2 861.7h438.2v265.1h-438.2z"/>
            <path class="st2" d="M477.6 499.6h438.2v265.1H477.6z"/>
            <path class="st2" d="M1006.2 499.6h438.2v265.1h-438.2z"/>
            <path class="st2" d="M611.2 608.9v9.7c0 22 17.8 39.8 39.8 39.8h91.5c22 0 39.8-17.8 39.8-39.8v-12.7"/>
            <path class="st2" d="M1139.8 608.9v9.7c0 22 17.8 39.8 39.8 39.8h91.5c22 0 39.8-17.8 39.8-39.8v-12.7"/>
            <path class="st2" d="M611.2 971v9.7c0 22 17.8 39.8 39.8 39.8h91.5c22 0 39.8-17.8 39.8-39.8V968"/>
            <path class="st2" d="M1139.8 971v9.7c0 22 17.8 39.8 39.8 39.8h91.5c22 0 39.8-17.8 39.8-39.8V968"/>
            <path class="st2" d="M356.5 409.3h1203.1"/>
        </g>
    </g>
</svg>
