<svg xmlns="http://www.w3.org/2000/svg" viewBox="0 0 1920 1920">
    <style>
        .st0{fill:#fff}.st1,.st2{fill:none;stroke:#000;stroke-width:.5;stroke-linecap:round;stroke-linejoin:round}.st2{stroke:#231f20;stroke-width:50;stroke-miterlimit:10}
    </style>
    <path class="st0" d="M1701 449v846H219V449h1482zm-72 755V522H297v682h1332z" id="Layer_5"/>
    <path class="st0" d="M1629 522v682H297V522h1332zm-334.2 110.8c0-.3-.2-.5-.5-.5s-.5.2-.5.5.2.5.5.5c.2 0 .5-.3.5-.5zm0 220.6c0-.3-.2-.5-.5-.5s-.5.2-.5.5.2.5.5.5c.2 0 .5-.2.5-.5zm0 239.7c0-.3-.2-.5-.5-.5s-.5.2-.5.5.2.5.5.5c.2 0 .5-.2.5-.5zM626.2 632.8c0-.3-.2-.5-.5-.5s-.5.2-.5.5.2.5.5.5.5-.3.5-.5zm0 220.6c0-.3-.2-.5-.5-.5s-.5.2-.5.5.2.5.5.5.5-.2.5-.5zm0 239.7c0-.3-.2-.5-.5-.5s-.5.2-.5.5.2.5.5.5.5-.2.5-.5z" id="Layer_6"/>
    <g id="STROKES">
        <g id="XMLID_2_">
            <path class="st2" d="M219 449h1482.1v846H219z"/>
            <path class="st2" d="M282 1471l92-174"/>
            <path class="st2" d="M1638 1471l-92-174"/>
            <path class="st2" d="M960 523v678"/>
            <path class="st2" d="M297 522h1332v682.1H297z"/>
            <path class="st2" d="M302 745h1316"/>
            <path class="st2" d="M302 973h1316"/>
            <path class="st2" d="M1294.8 853.4c0 .3-.2.5-.5.5s-.5-.2-.5-.5.2-.5.5-.5c.2 0 .5.2.5.5z"/>
            <path class="st2" d="M626.2 853.4c0 .3-.2.5-.5.5s-.5-.2-.5-.5.2-.5.5-.5.5.2.5.5z"/>
            <path class="st2" d="M1294.8 632.8c0 .3-.2.5-.5.5s-.5-.2-.5-.5.2-.5.5-.5c.2 0 .5.2.5.5z"/>
            <path class="st2" d="M626.2 632.8c0 .3-.2.5-.5.5s-.5-.2-.5-.5.2-.5.5-.5.5.2.5.5z"/>
            <path class="st2" d="M1294.8 1093.1c0 .3-.2.5-.5.5s-.5-.2-.5-.5.2-.5.5-.5c.2 0 .5.2.5.5z"/>
            <path class="st2" d="M626.2 1093.1c0 .3-.2.5-.5.5s-.5-.2-.5-.5.2-.5.5-.5.5.2.5.5z"/>
        </g>
    </g>
</svg>
