<svg xmlns="http://www.w3.org/2000/svg" viewBox="0 0 1920 1920">
    <style>
        .st0{fill:#fff}.st1{fill:none;stroke:#231f20;stroke-width:50;stroke-linecap:round;stroke-linejoin:round;stroke-miterlimit:10}
    </style>
    <path class="st0" d="M1223.7 1571.9c-1 5.9-1.9 11.8-2.6 17.7-2.9 22.9-28.9 114.7-259.8 114.7s-256.9-91.7-259.8-114.7c-.7-5.9-1.6-11.8-2.6-17.7-84.5-481 67.7-756.4 67.7-756.4 0-131.8-23.5-221.9-39-266.8-8.7-25.2-13.1-51.8-13.1-78.4V244l96.4-25.8c0 39.1 31.6 63.3 65.8 78 53.9 23.2 115.2 23.2 169.1 0 34.2-14.8 65.8-38.9 65.8-78L1208 244v226.3c0 26.7-4.4 53.2-13.1 78.4-15.4 44.9-39 135-39 266.8.1 0 152.3 275.4 67.8 756.4z" id="Layer_6"/>
    <g id="STROKES">
        <path class="st1" d="M961.3 1704.3c230.9 0 256.9-91.7 259.8-114.7.7-5.9 1.6-11.8 2.6-17.7 84.5-481-67.7-756.4-67.7-756.4 0-131.8 23.5-221.9 39-266.8 8.7-25.2 13.1-51.7 13.1-78.4V244l-96.4-25.8c0 39.1-31.6 63.3-65.8 78-53.9 23.2-115.2 23.2-169.1 0-34.2-14.7-65.8-38.9-65.8-78L714.6 244v226.3c0 26.7 4.4 53.2 13.1 78.4 15.4 44.9 39 135 39 266.8 0 0-152.2 275.4-67.7 756.4 1 5.9 1.9 11.8 2.6 17.7 2.8 22.9 28.8 114.7 259.7 114.7z"/>
        <path class="st1" d="M1156.2 816.7c-50.6 6.2-115.8 10-186.9 10-78.7 0-150-4.6-202.5-12"/>
    </g>
</svg>
