<svg xmlns="http://www.w3.org/2000/svg" viewBox="0 0 1920 1920">
    <style>
        .st0{fill:#fff}.st1{fill:none;stroke:#231f20;stroke-width:50;stroke-linecap:round;stroke-linejoin:round;stroke-miterlimit:10}
    </style>
    <path class="st0" d="M1367.9 1671.5c-116.3 59.3-355.9-26.8-355.9-26.8-94.1 54.8-212.2 8.6-212.2 8.6-189.9 46.2-378.1-24-282.3-61.6 95.8-37.6 179.6-232.7 201.9-461.9 5.5-56.3 18.9-105.7 36-148-4.6-79.5 15.2-140.9 42.9-187.1 6.9-110 40.4-112.5 63.2-203.8 26.2-104.7-44.3-177.2-36.2-243.6 8.1-66.5-36.3-113.6-36.3-113.6s17.7-26.3 73 7.1c19.4 11.7 35.7 28 48.2 47 10.6 16 29.3 36.6 56.7 38.2 0 0 132.7-25.6 103.6 72-29.1 97.6-39.5 130.9-14.5 205.7 23.6 70.7 84.2 319.3 90.8 471 18.5 39.4 37.7 91.7 44.8 149.2 12.6 101 40.2 266.5 88.4 356.8 178.5 32 87.9 90.8 87.9 90.8z" id="Layer_5"/>
    <g id="STROKES">
        <path class="st1" d="M798.5 794.7c6.9-110 40.4-112.5 63.2-203.8 26.2-104.7-44.3-177.2-36.2-243.7 8.1-66.5-36.3-113.6-36.3-113.6s17.7-26.3 73 7.1c19.4 11.7 35.7 28 48.2 47 10.6 16 29.3 36.6 56.7 38.2 0 0 132.7-25.6 103.6 72-29.1 97.6-39.5 130.9-14.5 205.7 23.5 70.7 84.2 319.3 90.8 471 .4 8.9.6 17.4.6 25.6 0 147.5 10.4 434.2 64.4 509"/>
        <path class="st1" d="M755.5 981.8c-4.6-79.5 15.2-140.9 43-187.1 51.8-86.4 131.5-120 131.5-120"/>
        <path class="st1" d="M1280.2 1580.6c178.3 32.1 87.8 90.9 87.8 90.9-116.3 59.3-355.9-26.8-355.9-26.8-94.1 54.8-212.2 8.6-212.2 8.6-189.9 46.2-378.1-24-282.3-61.6 95.8-37.6 179.6-232.7 201.9-461.9 5.5-56.3 18.9-105.7 36-148 52.6-129.9 140.2-194.2 140.2-194.2"/>
        <path class="st1" d="M1314.9 1627.6c-12.6-11.1-24.2-27.2-34.7-47-48.2-90.2-75.8-255.7-88.4-356.8-7.2-57.5-26.3-109.8-44.8-149.2"/>
        <path class="st1" d="M799.9 1653.3s86.8-207.2 77.7-413.3"/>
        <path class="st1" d="M1012.1 1644.7s-26.9-434.6 25.8-626.9"/>
    </g>
</svg>
