<svg xmlns="http://www.w3.org/2000/svg" viewBox="0 0 1920 1920">
    <style>
        .st0{fill:#fff}.st1{fill:none;stroke:#231f20;stroke-width:50;stroke-linecap:round;stroke-linejoin:round;stroke-miterlimit:10}
    </style>
    <path class="st0" d="M1418.2 742.5s115.1 171 112.1 403.5h-210.2l-47.4-238.5-76.5-1.5s63-141-30-147h-126V415.5h499.5c148.5 0 165 115.5 165 168s-34.5 159-189 159h-97.5zM914.4 498h-171l-109.7 52.5V648l114 42h168V498h-1.3z" id="Layer_3"/>
    <path class="st0" d="M1649.2 1255.4V1395c0 60.4-49 109.4-109.5 109.4h-399.1c-60.4 0-109.4-49-109.4-109.4v-139.6c0-60.4 49-109.4 109.4-109.4h399c60.6 0 109.6 49 109.6 109.4z" id="Layer_4"/>
    <path class="st0" d="M915.8 475.5l123-33h1.4v278L915.8 702V498z" id="Layer_5"/>
    <g id="STROKES">
        <g id="XMLID_1_">
            <path class="st1" d="M1530.3 1146c3-232.5-112.1-403.5-112.1-403.5h97.5c154.5 0 189-106.5 189-159s-16.5-168-165-168h-499.5V759h126c93 6 30 147 30 147l76.5 1.5 47.4 238.5"/>
            <path class="st1" d="M1530.3 1146h9.4c60.4 0 109.5 49 109.5 109.4V1395c0 60.4-49 109.4-109.5 109.4h-399.1c-60.4 0-109.4-49-109.4-109.4v-139.6c0-60.4 49-109.4 109.4-109.4h389.7z"/>
            <path class="st1" d="M1040.2 720.5L915.8 702V475.5l123-33"/>
            <path class="st1" d="M912.8 690h-165l-114-42v-97.5L743.4 498h171"/>
            <path class="st1" d="M627.8 600H215.3"/>
        </g>
    </g>
</svg>
