<svg xmlns="http://www.w3.org/2000/svg" viewBox="0 0 1920 1920">
    <style>
        .st0{fill:#fff}.st1{fill:none;stroke:#231f20;stroke-width:50;stroke-linecap:round;stroke-linejoin:round;stroke-miterlimit:10}
    </style>
    <path class="st0" d="M1481.3 562.6l31-72.9.2.5H1639c31.9 0 57.8 25.9 57.8 57.8v196.2c0 42.8-34.7 77.5-77.5 77.5h-102.5l-35.5-68.1v-13.4h125.5V564.7h-125.5v-2.1zm-603.5 15.6l129 33h186l100.5 100.5v247.5h223.5V821.7l-35.5-68.1v-191l31-72.9h-483l-151.5 30v58.5z" id="Layer_6"/>
    <g id="STROKES">
        <g id="XMLID_1_">
            <path class="st1" d="M1512.3 489.7h-483l-151.5 30v58.5l129 33h186l100.5 100.5v247.5h223.5V821.7h102.5c42.8 0 77.5-34.7 77.5-77.5V548c0-31.9-25.9-57.8-57.8-57.8h-126.5l-.2-.5z"/>
            <path class="st1" d="M1481.3 564.7h125.5v175.5h-125.5"/>
            <path class="st1" d="M1099.3 491.6v115"/>
            <path class="st1" d="M1019.8 491.6v115"/>
            <path class="st1" d="M1516.8 821.7l-35.5-68.1v-191l31-72.9"/>
            <path class="st1" d="M799.3 560.6l-22.5-22.5"/>
            <path class="st1" d="M716.8 560.6l-22.5-22.5"/>
            <path class="st1" d="M634.3 560.6l-22.5-22.5"/>
            <path class="st1" d="M551.8 560.6l-22.5-22.5"/>
            <path class="st1" d="M469.3 560.6l-22.5-22.5"/>
            <path class="st1" d="M368.3 553.6h-123"/>
            <path class="st1" d="M1197.3 624.7v116.5h-64.5"/>
            <path class="st1" d="M1461.6 959.2s-163.5 175-79.5 331c84 156.1 1.9 406.8 1.9 406.8"/>
        </g>
    </g>
</svg>
