<svg xmlns="http://www.w3.org/2000/svg" viewBox="0 0 1920 1920">
    <style>
        .st0{fill:#fff}.st1{fill:#f44336}.st2{fill:none;stroke:#231f20;stroke-width:50;stroke-linecap:round;stroke-linejoin:round;stroke-miterlimit:10}
    </style>
    <path class="st0" d="M1156.6 971.8V824.5h178.5v-42.9h121.5v219h-258c-13.2-10.6-27.2-20.2-42-28.8zm178.5-387h-251.9v239.7h251.9V584.8zm-427.3 0H547.5v217.5h360.3V584.8zM797.9 986.7v-94H458.2v146.6l.8-1.5 125.3 188.3h78.6c9.3-97.6 61.1-182.8 136.7-236.9l-1.7-2.5zm-339.7 52.6v186.8h126.1L459 1037.8l-.8 1.5zm-92 186.8h91.9v-186.8l-91.9 186.8zm-82.6-333.4V1226h82.6l91.9-186.8V892.7H283.6z" id="Layer_2"/>
    <path class="st0" d="M1523.3 551.1l1.6-1.2 131.7 92.1h-249.2l115.9-90.9zM236.6 308.8c-4.5 34.3 92.3 75.3 216.2 91.5 1.8.2 3.6.5 5.4.7 121.5 15 222.5.3 227-33.6 4.5-34.3-92.3-75.3-216.2-91.5-123.9-16.2-227.9-1.5-232.4 32.9z" id="Layer_3"/>
    <path class="st0" d="M1036 1378.4c0 33.3 27 60.3 60.3 60.3s60.3-27 60.3-60.3-27-60.3-60.3-60.3-60.3 27-60.3 60.3zm-44.5-450.7c60.1 0 116.5 16.1 165.1 44.2 14.8 8.5 28.8 18.2 42 28.8 75.1 60.5 123.1 153.2 123.1 257.1 0 182.3-147.8 330.2-330.2 330.2-142.8 0-264.5-90.7-310.5-217.7-12.7-35.1-19.7-73-19.7-112.5 0-10.7.5-21.3 1.5-31.7 9.3-97.6 61.1-182.8 136.7-236.9 54.2-38.8 120.4-61.5 192-61.5z" id="Layer_4"/>
    <g id="STROKES">
        <g id="XMLID_1_">
            <path class="st1" d="M1096.3 1318.1c33.3 0 60.3 27 60.3 60.3s-27 60.3-60.3 60.3-60.3-27-60.3-60.3 27-60.3 60.3-60.3z"/>
            <path class="st2" d="M1198.6 1000.7c75.1 60.5 123.1 153.2 123.1 257.1 0 182.3-147.8 330.2-330.2 330.2-142.8 0-264.5-90.7-310.5-217.7-12.7-35.1-19.7-73-19.7-112.5 0-10.7.5-21.3 1.5-31.7 9.3-97.6 61.1-182.8 136.7-236.9 54.1-38.7 120.3-61.5 191.9-61.5 60.1 0 116.5 16.1 165.1 44.2"/>
            <path class="st2" d="M1156.6 971.8c14.8 8.5 28.8 18.2 42 28.8"/>
            <path class="st2" d="M1656.6 641.9h-249.2l115.9-90.8 1.5-1.2z"/>
            <path class="st2" d="M469 275.9C592.8 292 689.6 333 685.1 367.3c-4.4 33.8-105.5 48.6-227 33.6-1.8-.2-3.6-.4-5.4-.7-123.9-16.2-220.6-57.1-216.2-91.5 4.6-34.3 108.6-49 232.5-32.8z"/>
            <path class="st2" d="M662.9 1226.1H283.6V892.7h514.3v94"/>
            <path class="st2" d="M458.2 337.8v1107.3"/>
            <path class="st2" d="M272.5 1564.2v-147.7l93.7-190.4 92-186.8.7-1.5 125.4 188.3 96.1 144.4"/>
            <path class="st2" d="M582 1650.7l61.9-195.2 58.7-33.4"/>
            <path class="st2" d="M907.8 661v141.3H547.5V584.8h360.3z"/>
            <path class="st2" d="M907.8 661l79.2 79.2v184.3"/>
            <path class="st2" d="M1409 1650.7l-61.9-195.2-58.8-33.4"/>
            <path class="st2" d="M1335.1 781.6V584.8h-251.9v239.7h251.9z"/>
            <path class="st2" d="M1523.3 643.5v649.2"/>
            <path class="st2" d="M1683.6 1462.6l-85.7-330.2-74.6-83.9-1.6-1.8-93.7 84.1-109.5 206.4"/>
            <path class="st2" d="M987 740.2l93.4-93.5"/>
            <path class="st2" d="M1335.1 781.6h121.5v219.1h-258"/>
            <path class="st2" d="M1156.6 971.8V824.5"/>
            <path class="st2" d="M1523.3 394.3v157.2"/>
            <path class="st2" d="M1096.3 1438.8c-33.3 0-60.3-27-60.3-60.3s27-60.3 60.3-60.3 60.3 27 60.3 60.3-27 60.3-60.3 60.3z"/>
        </g>
    </g>
</svg>
