<svg xmlns="http://www.w3.org/2000/svg" viewBox="0 0 1920 1920">
    <style>
        .st0{fill:#fff}.st1{fill:#f44336}.st2{fill:none;stroke:#231f20;stroke-width:50;stroke-linecap:round;stroke-linejoin:round;stroke-miterlimit:10}
    </style>
    <path class="st0" d="M1356 660.8c178.1 0 322.5 28.3 322.5 63.2 0 19-42.8 36-110.5 47.6-39.6 6.8-87.8 11.7-140.9 14-22.9 1-46.7 1.5-71.1 1.5-24 0-47.3-.5-69.8-1.5-53.1-2.3-101.2-7.1-140.9-13.8-63.9-10.8-105.9-26.5-111.2-44v-7.7c10.4-33.2 150.5-59.3 321.9-59.3zm-792.3 0C392.2 660.8 252 687 241.8 720v7.6c5.3 17.6 47.3 33.2 111.2 44.1 39.7 6.7 87.9 11.6 140.9 13.8 22.5 1 45.8 1.5 69.8 1.5 24.4 0 48.2-.5 71.1-1.5 53.1-2.3 101.3-7.2 140.9-14 67.7-11.6 110.5-28.6 110.5-47.6 0-34.9-144.4-63.1-322.5-63.1z" id="Layer_5"/>
    <path class="st0" d="M1680.4 723.9l-1.9 378.7h-1.9c0 19-42.8 36-110.5 47.6-39.6 6.8-87.8 11.7-140.9 14-22.9 1-46.7 1.5-71.1 1.5-24 0-47.3-.5-69.8-1.5-5.8-.2-11.5-.5-17.1-.8-46.3-2.5-88.4-7-123.8-13-68.5-11.6-111.8-28.7-111.8-47.8h.6l1.1-221.5.8-153.4c5.3 17.6 47.3 33.2 111.2 44 39.7 6.7 87.9 11.6 140.9 13.8 22.5 1 45.8 1.5 69.8 1.5 24.4 0 48.2-.5 71.1-1.5 53.1-2.3 101.3-7.2 140.9-14 67.7-11.6 110.5-28.6 110.5-47.6h1.9zM352.9 771.8C289 760.9 247 745.3 241.7 727.7l-1.9 375h-.6c0 19.1 43.3 36.2 111.8 47.8 39.7 6.7 87.9 11.6 140.9 13.8 22.5 1 45.8 1.5 69.8 1.5 24.4 0 48.2-.5 71.1-1.5 6.7-.3 13.3-.6 19.8-1 45.3-2.6 86.5-7.1 121.2-13 67.7-11.6 110.5-28.6 110.5-47.6h1.9l1.1-221.5.8-157.2h-1.9c0 19-42.8 36-110.5 47.6-39.6 6.8-87.8 11.7-140.9 14-22.9 1-46.7 1.5-71.1 1.5-24 0-47.3-.5-69.8-1.5-53.1-2.3-101.3-7.1-141-13.8z" id="Layer_6"/>
    <g id="STROKES">
        <g id="XMLID_1_">
            <path class="st2" d="M888.1 716.6v7.3l-.8 157.2-1.1 221.6"/>
            <path class="st2" d="M239.8 1102.7l1.9-375 .1-7.7v-3.4"/>
            <path class="st2" d="M247.7 688.7l-30.3 25.5v42.5h21.8"/>
            <path class="st2" d="M881.9 688.7l30.4 25.5v42.5h-21.9"/>
            <path class="st2" d="M245.8 1133l-30.4-25.5V1065h21.8"/>
            <path class="st2" d="M879.9 1133l30.4-25.5V1065h-21.9"/>
            <path class="st2" d="M886.2 723.9c0 19-42.8 36-110.5 47.6-39.6 6.8-87.8 11.7-140.9 14-22.9 1-46.7 1.5-71.1 1.5-24 0-47.3-.5-69.8-1.5-53.1-2.3-101.2-7.1-140.9-13.8-64-10.8-106-26.4-111.3-44-.4-1.2-.6-2.5-.6-3.8 0-1.3.2-2.6.6-3.9 10.2-33.1 150.5-59.3 321.9-59.3 178.2.1 322.6 28.3 322.6 63.2z"/>
            <path class="st2" d="M884.2 1102.7c0 19-42.8 36-110.5 47.6-34.7 5.9-75.8 10.4-121.2 13-6.5.4-13.1.7-19.8 1-22.9 1-46.7 1.5-71.1 1.5-24 0-47.3-.5-69.8-1.5-53.1-2.3-101.2-7.1-140.9-13.8-68.5-11.6-111.8-28.7-111.8-47.8"/>
            <path class="st2" d="M773.8 1174.3v-67.4"/>
            <path class="st2" d="M632.8 1187.7v-67.4"/>
            <path class="st2" d="M491.9 1187.7v-67.4"/>
            <path class="st2" d="M351 1174.3v-67.4"/>
            <path class="st2" d="M775.7 754.3v67.4"/>
            <path class="st2" d="M634.8 766.5v67.4"/>
            <path class="st2" d="M493.9 766.5v67.4"/>
            <path class="st2" d="M352.9 754.3v67.4"/>
            <path class="st2" d="M1680.5 716.6l-.1 7.3-1.9 378.8"/>
            <path class="st2" d="M1032.2 1102.7l1.1-221.5.8-153.5v-11.1"/>
            <path class="st2" d="M1040.1 688.7l-30.4 25.5v42.5h21.9"/>
            <path class="st2" d="M1674.2 688.7l30.4 25.5v42.5h-21.8"/>
            <path class="st2" d="M1038.1 1133l-30.4-25.5V1065h21.9"/>
            <path class="st2" d="M1672.3 1133l30.4-25.5V1065h-21.9"/>
            <path class="st2" d="M1678.6 723.9c0 19-42.8 36-110.5 47.6-39.6 6.8-87.8 11.7-140.9 14-22.9 1-46.7 1.5-71.1 1.5-24 0-47.3-.5-69.8-1.5-53.1-2.3-101.2-7.1-140.9-13.8-63.9-10.8-105.9-26.5-111.2-44-.4-1.2-.6-2.5-.6-3.8 0-1.3.2-2.6.6-3.9 10.4-33.1 150.5-59.2 321.9-59.2 178.1 0 322.5 28.2 322.5 63.1z"/>
            <path class="st2" d="M1676.6 1102.7c0 19-42.8 36-110.5 47.6-39.6 6.8-87.8 11.7-140.9 14-22.9 1-46.7 1.5-71.1 1.5-24 0-47.3-.5-69.8-1.5-5.8-.2-11.5-.5-17.1-.8-46.3-2.5-88.4-7-123.8-13-68.5-11.6-111.8-28.7-111.8-47.8"/>
            <path class="st2" d="M1566.1 1174.3v-67.4"/>
            <path class="st2" d="M1425.2 1187.7v-67.4"/>
            <path class="st2" d="M1284.3 1187.7v-67.4"/>
            <path class="st2" d="M1143.3 1174.3v-67.4"/>
            <path class="st2" d="M1568.1 754.3v67.4"/>
            <path class="st2" d="M1427.2 766.5v67.4"/>
            <path class="st2" d="M1286.2 766.5v67.4"/>
            <path class="st2" d="M1145.3 754.3v67.4"/>
            <path class="st2" d="M1042 547.5l324.8-331.3"/>
            <path class="st2" d="M881 547.5L556.2 216.2"/>
            <path class="st2" d="M888.1 881.1H1031"/>
            <path class="st2" d="M651 1161.8l1.6 1.5L960 1450.5l271 253.3"/>
            <path class="st2" d="M689 1703.8l271-253.3 307.2-287 1.8-1.7"/>
        </g>
    </g>
</svg>
