<svg xmlns="http://www.w3.org/2000/svg" viewBox="0 0 1920 1920">
    <style>
        .st0{fill:#fff}.st1{fill:none;stroke:#231f20;stroke-width:50;stroke-linecap:round;stroke-linejoin:round;stroke-miterlimit:10}
    </style>
    <path class="st0" d="M1273.2 583.1c7.8 40.9 5.3 70.4-1.8 73.9-28 14-142-86-140-80 2 5.9 52.1 227.7-86.1 262.3-2.6.6-5.2 1.2-7.9 1.7 0 0 28 94 12 118 0 0-124-78-208-4s-146 316-162 428-40 246-40 246l-422.5-176.7c-2-8 60.4-167.3 104.4-397.3 41.7-218.2-6-674 464-754 351.5-59.8 464.8 161 487.9 282.1zM957.4 497c0-22.1-17.9-40-40-40s-40 17.9-40 40 17.9 40 40 40 40-17.9 40-40z" id="Layer_5"/>
    <path class="st0" d="M917.4 457c22.1 0 40 17.9 40 40s-17.9 40-40 40-40-17.9-40-40 17.9-40 40-40z" id="Layer_6"/>
    <path class="st0" d="M1426.5 1145.6C1279.9 1040.9 1047.4 841 1047.4 841l-2.1-1.7c138.3-34.6 88.1-256.4 86.1-262.3-2-6 112 94 140 80 7.1-3.5 9.5-33.1 1.8-73.9l.2-.1s134 266 242 368c81.5 77 226 168 210 218s-110 70-202 36c-20.4-7.5-55.2-29.6-96.9-59.4zM1047.4 841l-2.1-1.7c-2.6.6-5.2 1.2-7.9 1.7 0 0 28 94 12 118l234 276c48 68 119.9 49.1 146-6 15.5-32.8 1.2-73.1-2.9-83.5-146.6-104.6-379.1-304.5-379.1-304.5z" id="Layer_7"/>
    <g id="STROKES">
        <g id="XMLID_1_">
            <path class="st1" d="M639.4 1629s24-134 40-246 78-354 162-428 208 4 208 4c16-24-12-118-12-118 2.7-.5 5.3-1.1 7.9-1.7 138.3-34.6 88.1-256.4 86.1-262.3-2-6 112 94 140 80 7.1-3.5 9.5-33.1 1.8-73.9C1250.1 462 1136.8 241.2 785.4 301c-470 80-422.3 535.8-464 754-44 230-106.4 389.3-104.4 397.3"/>
            <path class="st1" d="M1273.4 583s134 266 242 368c81.5 77 226 168 210 218s-110 70-202 36c-20.4-7.5-55.2-29.6-96.9-59.5-146.6-104.6-379.1-304.5-379.1-304.5"/>
            <path class="st1" d="M1049.4 959l234 276c48 68 119.9 49.1 146-6 15.5-32.8 1.2-73.1-2.9-83.5-.6-1.6-1.1-2.5-1.1-2.5"/>
            <path class="st1" d="M957.4 497c0 22.1-17.9 40-40 40s-40-17.9-40-40 17.9-40 40-40 40 18 40 40z"/>
            <path class="st1" d="M1299.4 805s-32-10-56-46"/>
        </g>
    </g>
</svg>
