<svg xmlns="http://www.w3.org/2000/svg" viewBox="0 0 1920 1920">
    <style>
        .st0{fill:#fff}.st1{fill:none;stroke:#231f20;stroke-width:50;stroke-linecap:round;stroke-linejoin:round;stroke-miterlimit:10}
    </style>
    <path class="st0" d="M508.3 469.4c175.5-21.4 260.9 158.7 235 253.3-26 94.6-73.2 164.8-73.2 164.8-149.5 10.7-198.5-74.3-198.5-74.3 30.7-16.1 42.9-18.7 42.9-35.6 0-33.6-56.5-29-62.6-29-6.1 0-59.5-65.6-45.8-117.5l-54.9 21.4c-.1 0-18.4-161.8 157.1-183.1zm23.4 108.3c0-.3-.2-.5-.5-.5s-.5.2-.5.5.2.5.5.5.5-.2.5-.5z" id="Layer_2"/>
    <path class="st0" d="M451.8 748.6l-236.5 68.7 135.8-164.8 54.9-21.4c-13.7 51.9 39.7 117.5 45.8 117.5z" id="Layer_3"/>
    <path class="st0" d="M877.2 1418.3c-45.6 45.5-119.5 45.5-165.1-.1h-.1c-45.4 45.4-118.9 45.6-164.6.6-45.7 45-119.2 44.8-164.6-.6h-.1c-7.2 7.2-15.1 13.2-23.4 18.1-197.4-145.5-163.8-389.9-38.6-509.1 72.4-69 120.7-98 150.9-113.9 0 0 49 85 198.5 74.3 0 0 325-4.6 605.8 157.2 280.8 161.7 424.2 299.1 428.8 299.1 1.4 0-13.9 1.3-35.9 3.2-1.5 22.3-81.8 98.9-83 100.1-17.5-5.4-34-15.1-47.9-28.9h-.1c-45.6 45.6-119.5 45.6-165.1.1-45.6 45.5-119.5 45.5-165.1-.1h-.5c-45.5 45.5-119.3 45.6-164.9.3-45.8 45.1-119.5 45.1-165-.3z" id="Layer_4"/>
    <g id="STROKES">
        <g id="XMLID_1_">
            <path class="st1" d="M359.2 1436.3c-197.4-145.5-163.8-389.9-38.6-509.1 72.4-69 120.7-98 150.9-113.9 30.7-16.1 42.9-18.7 42.9-35.6 0-33.6-56.5-29-62.6-29-6.1 0-59.5-65.6-45.8-117.5l-54.9 21.4s-18.3-161.8 157.2-183.1c175.5-21.4 260.9 158.7 235 253.3-26 94.6-73.2 164.8-73.2 164.8s325-4.6 605.8 157.2c280.8 161.7 424.2 299.1 428.8 299.1 1.4 0-13.9 1.3-35.9 3.2-52.2 4.5-142.6 12-142.6 12"/>
            <path class="st1" d="M674.6 1008s-32 103.8 201.4 172.4c233.5 68.7 404.4 175.5 650 178.5"/>
            <path class="st1" d="M471.5 813.2s49 85 198.5 74.3"/>
            <path class="st1" d="M351.1 652.5L215.3 817.3l236.5-68.7"/>
            <circle class="st1" cx="531.2" cy="577.7" r=".5"/>
            <path class="st1" d="M382.6 1418.2c-7.2 7.2-15.1 13.2-23.4 18.1-44.8 26.3-103.4 20.3-141.8-18.1"/>
            <path class="st1" d="M548 1418.2l-.6.6c-45.7 45-119.2 44.8-164.6-.6"/>
            <path class="st1" d="M712 1418.2c-45.4 45.4-118.9 45.6-164.6.6l-.6-.6"/>
            <path class="st1" d="M877.3 1418.2l-.1.1c-45.6 45.5-119.5 45.5-165.1-.1"/>
            <path class="st1" d="M1042.3 1418.2l-.3.3c-45.6 45.3-119.3 45.3-164.8-.2l-.1-.1"/>
            <path class="st1" d="M1207 1418.2c-45.5 45.5-119.3 45.6-164.9.3l-.3-.3"/>
            <path class="st1" d="M1372.6 1418.2l-.1.1c-45.6 45.5-119.5 45.5-165.1-.1"/>
            <path class="st1" d="M1537.6 1418.2c-45.6 45.6-119.5 45.6-165.1.1l-.1-.1"/>
            <path class="st1" d="M1703 1418.2c-31.8 31.8-77.2 41.4-117.3 28.9-17.5-5.4-34-15.1-47.9-28.9"/>
            <path class="st1" d="M1585.6 1447.1c1.3-1.2 81.5-77.8 83-100.1"/>
        </g>
    </g>
</svg>
