<svg xmlns="http://www.w3.org/2000/svg" viewBox="0 0 1920 1920">
    <style>
        .st0{fill:#fff}.st1{fill:none;stroke:#231f20;stroke-width:50;stroke-linecap:round;stroke-linejoin:round;stroke-miterlimit:10}
    </style>
    <path class="st0" d="M375 964.7c37 55.9 29.8 84 12 84H227l148-84z" id="Layer_8"/>
    <path class="st0" d="M647 1096.7l-.4.5c-12.9-9.1-19.6-14.5-19.6-14.5-114 18-240-34-240-34 17.8 0 25-28.1-12-84-31.1-47 184-76 310 18 1.8 1.3 3.5 2.5 5.4 3.7 14 86-43.4 110.3-43.4 110.3z" id="Layer_9"/>
    <path class="st0" d="M647 1096.7s57.4-24.3 43.4-110.3c63.1 40.3 167.2-3.6 279.2-31 17.9-40.7 32.9-88.1 27.4-124.7-12-80 18-132 54-210s106-404 106-404 286 232 264 458-50 130-40 230c3 30.2-13.3 58.8-37.7 84 9 4.3 31.1 12.2 39.7 18 92 62 178 116 208 188s102 104 102 104c-26 30-182-10-182-10-436.9 84.9-780.5-132.1-864.4-191.5l.4-.5z" id="Layer_10"/>
    <g id="STROKES">
        <g id="XMLID_1_">
            <path class="st1" d="M1343.3 988.8c9 4.3 31.1 12.2 39.7 18 92 62 178 116 208 188s102 104 102 104c-26 30-182-10-182-10-436.9 84.9-780.5-132.1-864.4-191.5-12.9-9.1-19.6-14.5-19.6-14.5-114 18-240-34-240-34H227l148-84"/>
            <path class="st1" d="M690.4 986.5c63.1 40.3 167.2-3.6 279.2-31"/>
            <path class="st1" d="M387 1048.7c17.8 0 25-28.1-12-84-31.1-47 184-76 310 18 1.8 1.3 3.5 2.5 5.4 3.7"/>
            <path class="st1" d="M923 1042.7s25.4-38.9 46.6-87.3c17.9-40.7 32.9-88.1 27.4-124.7-12-80 18-132 54-210s106-404 106-404 286 232 264 458-50 130-40 230c3 30.2-13.3 58.8-37.7 84-56.1 58.1-154.3 98-154.3 98"/>
            <path class="st1" d="M647 1096.7s57.4-24.3 43.4-110.3"/>
        </g>
    </g>
</svg>
