<svg xmlns="http://www.w3.org/2000/svg" viewBox="0 0 1920 1920">
    <style>
        .st0{fill:#fff}.st1{fill:none;stroke:#231f20;stroke-width:50;stroke-linecap:round;stroke-linejoin:round;stroke-miterlimit:10}
    </style>
    <path class="st0" d="M583.1 1195.5v1.5L537 1323l-277.8-1-84.1-125v-1.5h408zm682 0v1.5l46.1 126 277.8-1 84.1-125v-1.5h-408zm-682-330v189h681v-189h-681zm682-141v471h408v-471h-408zm38.2-117l-38.3 117h408L1581.2 606l-277.9 1.5zM267 606l-91.9 118.5h408l-38.3-117L267 606zm316 448.5v-189h.1v-141h-408v471h408v-141h-.1z" id="Layer_4"/>
    <g id="STROKES">
        <path class="st1" d="M583.1 865.5h681v189H583v-189z"/>
        <path class="st1" d="M583.1 1195.5h-408v-471h408v330z"/>
        <path class="st1" d="M175.1 724.5L267 606l277.8 1.5 38.3 117"/>
        <path class="st1" d="M583.1 1197L537 1323l-277.8-1-84.1-125"/>
        <path class="st1" d="M1265.1 724.5h408v471h-408z"/>
        <path class="st1" d="M1673.1 724.5L1581.2 606l-277.9 1.5-38.2 117"/>
        <path class="st1" d="M1265.1 1197l46.1 126 277.8-1 84.1-125"/>
    </g>
</svg>
