<svg xmlns="http://www.w3.org/2000/svg" viewBox="0 0 1920 1920">
    <style>
        .st0{fill:#fff}.st1{fill:none;stroke:#231f20;stroke-width:50;stroke-linecap:round;stroke-linejoin:round;stroke-miterlimit:10}
    </style>
    <path class="st0" d="M1630.2 958.4v1.6c0 154.3-75 279.4-167.5 279.4s-167.5-125.1-167.5-279.4 75-279.4 167.5-279.4c92.2 0 167 124.2 167.5 277.8zM508 680.6c-92.5 0-167.5 125.1-167.5 279.4s75 279.4 167.5 279.4S675.5 1114.3 675.5 960v-1.6C675 804.8 600.2 680.6 508 680.6z" id="Layer_2"/>
    <g id="STROKES">
        <path class="st1" d="M518.9 958.4h770"/>
        <path class="st1" d="M1464.4 958.4h237.2"/>
        <path class="st1" d="M218.4 958.4h113.4"/>
        <path class="st1" d="M675.5 960c0 154.3-75 279.4-167.5 279.4S340.5 1114.3 340.5 960s75-279.4 167.5-279.4c92.2 0 166.9 124.2 167.5 277.8v1.6z"/>
        <path class="st1" d="M1630.2 960c0 154.3-75 279.4-167.5 279.4s-167.5-125.1-167.5-279.4 75-279.4 167.5-279.4c92.2 0 166.9 124.2 167.5 277.8v1.6z"/>
    </g>
</svg>
