<svg xmlns="http://www.w3.org/2000/svg" viewBox="0 0 1920 1920">
    <style>
        .st0{fill:#fff}.st1{fill:none;stroke:#231f20;stroke-width:50;stroke-linecap:round;stroke-linejoin:round;stroke-miterlimit:10}
    </style>
    <path class="st0" d="M489.4 588.8s9.3-371 496.3-371 482.4 405 408.1 621.5c-44.3 129.1-237.6 260.9-290.7 642.1-39.4 283-534.8 336.5-562.7-53.1l-51-839.5z" id="Layer_4"/>
    <g id="STROKES">
        <path class="st1" d="M489.4 586.4s9.3-371 496.3-371 482.4 405 408.1 621.5c-44.3 129.1-237.6 260.9-290.7 642.1-39.4 283-534.8 336.5-562.7-53.1"/>
        <path class="st1" d="M634.3 1051.8s90.7-836.4 483.2-546.6c0 0 158.6 132.7 62.6 300.7"/>
        <path class="st1" d="M725 694.5s515.2 324.5 29.3 637.8"/>
    </g>
</svg>
