<svg xmlns="http://www.w3.org/2000/svg" viewBox="0 0 1920 1920">
    <style>
        .st0{fill:#fff}.st1{fill:none;stroke:#231f20;stroke-width:50;stroke-linecap:round;stroke-linejoin:round;stroke-miterlimit:10}
    </style>
    <circle class="st0" cx="974" cy="1581.1" r="121.9" id="Layer_2"/>
    <path class="st0" d="M1390.3 493.7c-41.7-140.9-151.1-276.8-418-276.8-554.4 0-452.7 522.2-452.7 522.2l167.9 700.7s36.9 97.7 155 130.6l10.2-1.5c6.1-61.6 58.1-109.8 121.3-109.8 51 0 94.6 31.3 112.9 75.7l6-.9c60.8-49.6 81.9-140.1 60.9-280.6-20.1-134.5 66.6-264.6 142.9-350 99.5-111.4 136-266.2 93.6-409.6z" id="Layer_3"/>
    <g id="STROKES">
        <path class="st1" d="M687.5 1439.9s36.9 97.7 155 130.6"/>
        <path class="st1" d="M1092.8 1534c60.8-49.6 81.9-140.1 60.9-280.6-20.1-134.5 66.6-264.6 142.9-350 99.6-111.5 136.1-266.3 93.7-409.6-41.7-140.9-151.1-276.8-418-276.8-554.4 0-452.7 522.2-452.7 522.2"/>
        <path class="st1" d="M1209.7 707.2s13.3-255.8-285.1-255.8-282.4 423.6-101.2 405c181.2-18.7 32-181.2 189.2-127.9s90.1 170.5-40.2 293.1 166.3 254.5-12.3 301.8c-176.6 46.7-199.1-73-208.6-133.9"/>
        <circle class="st1" cx="974" cy="1581.1" r="121.9"/>
    </g>
</svg>
