<svg xmlns="http://www.w3.org/2000/svg" viewBox="0 0 1920 1920">
    <style>
        .st0{fill:#fff}.st1{fill:none;stroke:#231f20;stroke-width:50;stroke-linecap:round;stroke-linejoin:round;stroke-miterlimit:10}
    </style>
    <path class="st0" d="M1703 960c0 140.7-39.1 272.2-107 384.4-24.1 39.9-51.9 77.3-82.9 111.8-105.1 117.1-246.8 200.6-407.2 232.5-45.5 9.1-92.5 14-140.6 14.3-221.2 1.5-420.7-94.2-558-247-118-131.3-190-304.8-190.3-494.8-.3-191.2 71.6-365.5 190-497.4 29.8-33.2 62.5-63.7 97.8-91 14.7-11.4 29.8-22.3 45.3-32.6C667.5 262.3 808.5 217 960 217c67 0 131.9 8.9 193.6 25.5 40.8 11 80.2 25.3 117.9 42.8 36 16.6 70.4 36.1 103 58 28.8 19.4 56.2 40.8 81.9 63.9 19.9 17.9 38.8 36.8 56.6 56.6 118.2 131.5 190 305.5 190 496.2z" id="Layer_7"/>
    <g id="STROKES">
        <path class="st1" d="M1703 960c0 140.7-39.1 272.2-107 384.4-24.1 39.9-51.9 77.3-82.9 111.8-105.1 117.1-246.8 200.6-407.2 232.5-45.5 9.1-92.5 14-140.6 14.3-221.2 1.5-420.7-94.2-558-247-118-131.3-190-304.8-190.3-494.8-.3-191.2 71.6-365.5 190-497.4 29.8-33.2 62.5-63.7 97.8-91 14.7-11.4 29.8-22.3 45.3-32.6C667.5 262.3 808.5 217 960 217c67 0 131.9 8.9 193.6 25.5 40.8 11 80.2 25.3 117.9 42.8 36 16.6 70.4 36.1 103 58 28.8 19.4 56.2 40.8 81.9 63.9 19.9 17.9 38.8 36.8 56.6 56.6 118.2 131.5 190 305.5 190 496.2z"/>
        <path class="st1" d="M217.3 960h1485.4"/>
        <ellipse class="st1" cx="960" cy="960" rx="418.7" ry="742.7"/>
        <path class="st1" d="M960 1702.7V217.3"/>
        <path class="st1" d="M1513.1 463.8c-56 37.1-124.4 68.5-201.7 92.3-103.8 31.9-223.7 50.2-351.4 50.2S712.4 588 608.6 556.1c-77.3-23.8-145.7-55.2-201.7-92.3 29.8-33.2 62.5-63.7 97.8-91 14.7-11.4 29.8-22.3 45.3-32.6C667.5 262.3 808.5 217 960 217c67 0 131.9 8.9 193.6 25.5 40.8 11 80.2 25.3 117.9 42.8 36 16.6 70.4 36.1 103 58 28.8 19.4 56.2 40.8 81.9 63.9 19.9 17.8 38.8 36.7 56.7 56.6z"/>
        <path class="st1" d="M1513.1 1456.2c-105.1 117.1-246.8 200.6-407.2 232.5-45.5 9.1-92.5 14-140.6 14.3-221.2 1.5-420.7-94.2-558-247 55.9-37 124.2-68.3 201.3-92.1 103.8-31.9 223.7-50.2 351.4-50.2s247.6 18.2 351.4 50.2c77.3 23.8 145.7 55.2 201.7 92.3z"/>
    </g>
</svg>
