<svg xmlns="http://www.w3.org/2000/svg" viewBox="0 0 1920 1920">
    <style>
        .st0{fill:#fff}.st1{fill:none;stroke:#231f20;stroke-width:50;stroke-linecap:round;stroke-linejoin:round;stroke-miterlimit:10}
    </style>
    <path class="st0" d="M960 217c-115.1 0-224 26.2-321.3 72.9 28.8 36.2 80.5 77 168.2 78.9 22.3.5 44.5 4.4 65.5 12 42.3 15.3 118 36.5 175.9 17.8 84.9-27.4 213.7-15.7 213.7-15.7s49.7 73.8-10.4 105.5c0 0 35 66.8 10 133.5 0 0-73.5-30-68.4-90.1 0 0-76.8 5-81.8 5s-43.4 58.4-43.4 58.4 66.8 1.7 70.1 58.4c3.3 56.8-21.7 116.8-63.4 125.2 0 0-23.2 33.2-36.5 41.1 0 0 62.9 79 11.9 107.5l-33.4 15.8s-20 2.4-26.1-6.7c-6.1-9.1 5.5-34.6 5.5-34.6l-18.8-25.5 1.2-44.3s-67.4-1.8-77.1 22.5c-9.7 24.3 156.5 142.3-68.4 261.2 0 0-97.3-12.8-111.7 21.5-14.4 34.3 34.3 47.1 36.7 81.4 2.4 34.3-35.9 75.8-56.6 81.4-20.7 5.6-23.1-41.5-48.7-55.9-25.5-14.4-37.5 3.2-35.1 13.6 0 0-36.7-97.3-36.7-101.3s-26.3 11.2-34.3 4c-8-7.2-8-78.2-22.3-94.9-14.4-16.8-130.1 35.9-130.1 35.9s-6.4 69.4-29.5 83.8c-23.1 14.4-35.9-155.6-29.5-202.7l-21.5-87.8-43.1-46.3-52.6 73.6c-.6 12.6-.9 25.2-.9 37.9 0 366 264.6 670.2 612.9 731.7-9-14-11.5-29.9.7-46.3 37.7-51.2 57.9-16.2 99.6-29.6 41.8-13.5 45.8-49.8 107.7-43.1l57.9-33.7 59.2-6.7v39.1s88.9-48.5 92.9-64.6c0 0 46.8 54.9 98.4 88.2 213.9-130.5 356.7-366 356.7-634.8 0-410.6-332.7-743.2-743.1-743.2zM839.8 1529.7s-63-2.8-141.3-32.2c-78.3-29.4-151.1-197.1-151.1-197.1s25.2 32 106.3 93.4c81.1 61.4 56 57.5 65.8 72.9 9.8 15.4 99.3 23.8 113.3 29.4 14 5.7 7 33.6 7 33.6zm64.3-112.6c-2.8 3.4-18.2 21.8-69.9 23.1-51.8 1.4-78.3-46.3-78.3-46.3s33.6-15.2 54.6-13.8c21 1.4 82.5-26.6 82.5-26.6s13.9 60.1 11.1 63.6zM1216 897.9c-10.5 65-87.7 103.9-112.2 88.2 0 0-23.9-11.2 6.2-33 30.1-21.8 52.1-62.1 50.4-83.9-1.7-21.8 27.1-28.2 33.8-28.2s23.1 48.7 21.8 56.9zm-16.5-69.8l-20.9-54.8 14.8-56.6s59.1 16.8 60 33.4c.9 16.6-53.9 78-53.9 78z" id="Layer_5"/>
    <path class="st0" d="M580.9 1156.4c0 4 36.7 101.3 36.7 101.3-2.4-10.4 9.6-27.9 35.1-13.6 25.5 14.4 27.9 61.4 48.7 55.9 20.7-5.6 59-47.1 56.6-81.4-2.4-34.3-51.1-47.1-36.7-81.4 14.4-34.3 111.7-21.5 111.7-21.5 225-118.9 58.7-236.9 68.4-261.2 9.7-24.3 77.1-22.5 77.1-22.5l-1.2 44.3 18.8 25.5s-11.5 25.5-5.5 34.6c6.1 9.1 26.1 6.7 26.1 6.7l33.4-15.8c51-28.5-11.9-107.5-11.9-107.5 13.3-7.9 36.5-41.1 36.5-41.1 41.7-8.4 66.8-68.4 63.4-125.2-3.3-56.8-70.1-58.4-70.1-58.4s38.4-58.4 43.4-58.4 81.8-5 81.8-5c-5 60.1 68.4 90.1 68.4 90.1 25-66.8-10-133.5-10-133.5 60.1-31.7 10.4-105.5 10.4-105.5s-128.8-11.7-213.7 15.7c-57.9 18.7-133.6-2.5-175.9-17.8-21-7.6-43.1-11.5-65.5-12-87.7-1.9-139.4-42.7-168.2-78.9C400 404.5 231.9 643 217.9 922.1l52.6-73.6 43.1 46.3 21.5 87.8c-6.4 47.1 6.4 217 29.5 202.7 23.1-14.4 29.5-83.8 29.5-83.8s115.7-52.7 130.1-35.9c14.4 16.8 14.4 87.8 22.3 94.9 8 7.1 34.4-8.1 34.4-4.1z" id="Layer_6"/>
    <path class="st0" d="M1110 953.1c-30.2 21.8-6.2 33-6.2 33 24.5 15.7 101.8-23.2 112.2-88.2 1.3-8.3-15.1-57-21.8-57-6.7 0-35.4 6.4-33.8 28.2s-20.3 62.2-50.4 84z" id="Layer_11"/>
    <path class="st0" d="M1253.4 750.1c-.9-16.5-60-33.4-60-33.4l-14.8 56.6 20.9 54.8s54.8-61.4 53.9-78z" id="Layer_12"/>
    <path class="st0" d="M1248 1506.6c-4 16.2-92.9 64.6-92.9 64.6v-39.1l-59.2 6.7-57.9 33.7c-61.9-6.7-66 29.6-107.7 43.1s-61.9-21.6-99.6 29.6c-12.1 16.5-9.6 32.3-.7 46.3 42.2 7.5 85.7 11.4 130.1 11.4 141.5 0 273.8-39.6 386.4-108.2-51.7-33.1-98.5-88.1-98.5-88.1z" id="Layer_15"/>
    <path class="st0" d="M810.4 1380c-21-1.4-54.6 13.8-54.6 13.8s26.6 47.7 78.3 46.3c51.8-1.4 67.2-19.7 69.9-23.1 2.8-3.4-11.2-63.6-11.2-63.6s-61.4 28-82.4 26.6z" id="Layer_13"/>
    <path class="st0" d="M832.8 1496.2c-14-5.6-103.5-14-113.3-29.4s15.4-11.5-65.8-72.9c-81.1-61.4-106.3-93.4-106.3-93.4s72.7 167.7 151.1 197.1c78.3 29.4 141.3 32.2 141.3 32.2s7-28-7-33.6z" id="Layer_14"/>
    <g id="STROKES">
        <circle class="st1" cx="960" cy="960" r="743.1"/>
        <path class="st1" d="M638.7 289.8c28.8 36.2 80.5 77 168.2 78.9 22.3.5 44.5 4.4 65.5 12 42.3 15.3 118 36.5 175.9 17.8 84.9-27.4 213.7-15.7 213.7-15.7s49.7 73.8-10.4 105.5c0 0 35.1 66.8 10 133.5 0 0-73.4-30-68.4-90.1 0 0-76.8 5-81.8 5s-43.4 58.4-43.4 58.4 66.8 1.7 70.1 58.4-21.7 116.8-63.4 125.2c0 0-23.2 33.2-36.5 41.1 0 0 62.9 79 11.9 107.5l-33.4 15.8s-20 2.4-26.1-6.7c-6.1-9.1 5.5-34.6 5.5-34.6l-18.8-25.5 1.2-44.3s-67.3-1.8-77 22.5c-9.7 24.3 156.5 142.3-68.5 261.2 0 0-97.3-12.8-111.7 21.5-14.4 34.3 34.3 47.1 36.7 81.4 2.4 34.3-35.9 75.8-56.6 81.4-20.7 5.6-23.1-41.5-48.7-55.8-25.5-14.4-37.5 3.2-35.1 13.6 0 0-36.7-97.3-36.7-101.3s-26.3 11.2-34.3 4c-8-7.2-8-78.2-22.3-94.9-14.4-16.8-130 35.9-130 35.9s-6.4 69.4-29.5 83.8c-23.1 14.4-35.9-155.6-29.5-202.7l-21.5-87.8-43.1-46.3-52.6 73.6"/>
        <path class="st1" d="M829.9 1691.7c-9-14-11.5-29.9.6-46.4 37.7-51.2 57.9-16.2 99.7-29.6 41.8-13.5 45.8-49.8 107.7-43.1l57.9-33.7 59.2-6.7v39.1s88.9-48.5 92.9-64.6c0 0 46.8 54.9 98.4 88.2"/>
        <path class="st1" d="M547.4 1300.5s72.7 167.7 151.1 197.1c78.3 29.4 141.3 32.2 141.3 32.2s7-28-7-33.6c-14-5.6-103.5-14-113.3-29.4-9.8-15.4 15.4-11.5-65.8-72.9-81.1-61.4-106.3-93.4-106.3-93.4z"/>
        <path class="st1" d="M755.8 1393.9s26.6 47.7 78.3 46.3c51.8-1.4 67.2-19.7 69.9-23.1s-11.2-63.6-11.2-63.6-61.6 28-82.5 26.6c-20.9-1.5-54.5 13.8-54.5 13.8z"/>
        <path class="st1" d="M1103.7 986.1s-23.9-11.2 6.2-33 52.1-62.2 50.5-83.9c-1.7-21.8 27.1-28.2 33.8-28.2s23.1 48.7 21.8 57c-10.5 64.9-87.7 103.9-112.3 88.1z"/>
        <path class="st1" d="M1199.5 828.1l-20.9-54.8 14.8-56.6s59.1 16.8 60 33.4c.9 16.6-53.9 78-53.9 78z"/>
    </g>
</svg>
