<svg xmlns="http://www.w3.org/2000/svg" viewBox="0 0 1920 1920">
    <style>
        .st0{fill:#fff}.st1{fill:none;stroke:#231f20;stroke-width:50;stroke-linecap:round;stroke-linejoin:round;stroke-miterlimit:10}
    </style>
    <path class="st0" d="M1703 960c0 410.4-332.7 743.1-743 743.1-203.4 0-387.6-81.7-521.8-214.1 10.9-42.5-12-103.9-12-103.9 25.8 3.9 25.8-1.3 27-32.2 1.3-30.9-19.3-42.5 12.9-58s0-74.7 0-74.7-122.4-87.6-118.5-122.4c3.9-34.8-38.6-118.5-38.6-118.5s-20.6-95.3-42.5-106.9c-10-5.3-30 22.3-48.8 53.8 5.4-121.1 39.8-234.6 96.4-333.8 54.1-39.8 111.5-73.9 149.9-74.2 92.7-.8 153.6-93.3 174.8-106.7 21.2-13.3 43-55.7 86.4-82.2 23.1-14.1 61.8-55.4 92.9-98.9 46-8.9 93.4-13.5 142-13.5 68.2 0 134.3 9.2 197.1 26.4-1.1 85.9 43.4 145 43.4 145s-39.8 12.7-53.1 28.4c-13.3 15.7-36.2 19.2-59.1 4.8-22.9-14.5-87.4 7.8-94.1 15.7-6.6 7.8-21.1 53.1-34.3 59.7s-4.3 44-4.3 47.6c0 3.6 52.5 8.4 65.7 2.4 13.3-6 12.1-58.5 18.7-79s58.5 42.2 50.1 49.4c-8.5 7.2-58.5 65.7-70.6 68.7-12.1 3-66.9-.6-70.5 8.4-3.6 9.1-89.2 57.3-89.2 57.3s11.5 42.2 7.2 50c-4.2 7.8-54.9-8.5-54.9-8.5l-19.9 46.4s19.9 40.4 24.1 41.6c4.2 1.2 51.9-3 51.9-3l44-68.1 42.8-4.8L1039 751l-64.2-53.8 33.1-18.6s47.6 31.1 64.2 47.6c16.6 16.6 60.1-9.6 60.1-9.6s8.3-54.6 20.7-73.2c12.4-18.6 80.8 16.6 97.3 33.1 16.6 16.6-20.7 40.1-20.7 40.1s-49.7 11.7-62.1 36.5c-12.4 24.8 51.8 10.3 66.3 19.1s-22.8 55.7-22.8 55.7h-105.6l-24.9 47.3-103.5-47.3V782s-165.7 7.6-194.6 58.7c-29 51.1-93.2 54.4-99.4 119 0 0-4.1 62.5-18.6 81.1-14.5 18.6 47.6 120.1 109.8 134.6 62.1 14.5 91.1-39.4 147-8.3 55.9 31.1 64.2 60.1 60.1 95.3-4.1 35.2 60.1 51 53.8 90.7-6.2 39.7-43.5 55.1-24.9 86.8 18.6 31.7 70.4 124.8 70.4 124.8s118-2.1 171.9-97.3c53.9-95.2 93.2-103.5 84.9-138.7-8.3-35.2-2.1-111.8 33.1-155.3 35.2-43.5 66.3-78.7 64.2-107.7-2.1-29-64.2 12.4-64.2 12.4l-147-200.9 33.1-20.7 136.7 157.4s103.5-124.2 87-145c-16.6-20.7-45.5-10.4-45.5-10.4l-72.5-43.5s134.6-5.6 174 12.7c39.3 18.3 82.8 133.5 95.2 131.9 12.4-1.7-34.9-185.4 0-208.8 11-7.4 25-10.1 39-10.4 21.1 69.7 32.6 143.3 32.6 219.6z" id="Layer_8"/>
    <path class="st0" d="M1631.2 751.2c11-7.4 25-10.1 39-10.4-74.4-241.4-268.5-430.4-513.1-497.5-1.1 85.9 43.4 145 43.4 145s-39.8 12.7-53.1 28.4c-13.3 15.7-36.2 19.2-59.1 4.8-22.9-14.5-87.4 7.8-94.1 15.7-6.6 7.8-21.1 53.1-34.3 59.7s-4.3 44-4.3 47.6c0 3.6 52.5 8.4 65.7 2.4 13.3-6 12.1-58.5 18.7-79s58.5 42.2 50.1 49.4c-8.5 7.2-58.5 65.7-70.6 68.7-12.1 3-66.9-.6-70.5 8.4-3.6 9.1-89.2 57.3-89.2 57.3s11.5 42.2 7.2 50c-4.2 7.8-54.9-8.5-54.9-8.5l-19.9 46.4s19.9 40.4 24.1 41.6c4.2 1.2 51.9-3 51.9-3l44-68.1 42.8-4.8 83.9 45.7-64.2-53.8 33.1-18.6s47.6 31.1 64.2 47.6c16.6 16.6 60.1-9.6 60.1-9.6s8.3-54.6 20.7-73.2c12.4-18.6 80.8 16.6 97.3 33.1 16.6 16.6-20.7 40.1-20.7 40.1s-49.7 11.7-62.1 36.5c-12.4 24.8 51.8 10.3 66.3 19.1s-22.8 55.7-22.8 55.7h-105.6l-24.9 47.3-103.5-47.3V782s-165.7 7.6-194.6 58.7c-29 51.1-93.2 54.4-99.4 119 0 0-4.1 62.5-18.6 81.1-14.5 18.6 47.6 120.1 109.8 134.6 62.1 14.5 91.1-39.4 147-8.3 55.9 31.1 64.2 60.1 60.1 95.3-4.1 35.2 60.1 51 53.8 90.7-6.2 39.7-43.5 55.1-24.9 86.8 18.6 31.7 70.4 124.8 70.4 124.8s118-2.1 171.9-97.3c53.9-95.2 93.2-103.5 84.9-138.7-8.3-35.2-2.1-111.8 33.1-155.3 35.2-43.5 66.3-78.7 64.2-107.7-2.1-29-64.2 12.4-64.2 12.4l-147-200.9 33.1-20.7 136.7 157.4s103.5-124.2 87-145c-16.6-20.7-45.5-10.4-45.5-10.4l-72.5-43.5s134.6-5.6 174 12.7c39.3 18.3 82.8 133.5 95.2 131.9 12.3-1.3-34.9-185-.1-208.4z" id="Layer_9"/>
    <path class="st0" d="M725.2 329.4c23.1-14.1 61.8-55.4 92.9-98.9-215.9 41.8-398.5 177-504 362 54.1-39.8 111.5-73.9 149.9-74.2 92.7-.8 153.6-93.3 174.8-106.7 21.2-13.4 43-55.7 86.4-82.2z" id="Layer_16"/>
    <path class="st0" d="M347.6 1097.8c3.9-34.8-38.6-118.5-38.6-118.5s-20.6-95.3-42.5-106.9c-10-5.3-30 22.3-48.8 53.8-.5 11.2-.8 22.4-.8 33.7 0 207 84.7 394.2 221.2 529 10.9-42.5-12-103.9-12-103.9 25.8 3.9 25.8-1.3 27-32.2 1.3-30.9-19.3-42.5 12.9-58s0-74.7 0-74.7-122.2-87.5-118.4-122.3z" id="Layer_17"/>
    <g id="STROKES">
        <circle class="st1" cx="960" cy="960" r="743.1"/>
        <path class="st1" d="M1670.2 740.9c-14 .3-28 3-39 10.4-34.8 23.3 12.4 207.1 0 208.8-12.4 1.7-55.9-113.5-95.2-131.9-39.3-18.4-173.9-12.7-173.9-12.7l72.5 43.5s29-10.3 45.6 10.4c16.6 20.7-87 144.9-87 144.9l-136.7-157.4-33.1 20.7 147 200.9s62.1-41.4 64.2-12.4c2.1 29-29 64.2-64.2 107.7s-41.4 120.1-33.1 155.3c8.3 35.2-31.1 43.5-84.9 138.7-53.8 95.3-171.9 97.3-171.9 97.3s-51.8-93.2-70.4-124.8c-18.6-31.7 18.6-47 24.8-86.8 6.2-39.7-58-55.5-53.8-90.7 4.1-35.2-4.1-64.2-60.1-95.3-55.9-31.1-84.9 22.8-147 8.3-62.1-14.5-124.2-116-109.8-134.6 14.5-18.6 18.6-81.1 18.6-81.1 6.2-64.6 70.4-68 99.4-119s194.7-58.7 194.7-58.7v45.9l103.5 47.3 24.8-47.3h105.6s37.3-46.9 22.8-55.7c-14.5-8.8-78.7 5.7-66.3-19.1 12.4-24.8 62.1-36.5 62.1-36.5s37.3-23.5 20.7-40.1c-16.6-16.6-84.9-51.8-97.3-33.1-12.4 18.6-20.7 73.2-20.7 73.2s-43.5 26.2-60.1 9.6-64.2-47.6-64.2-47.6l-33.1 18.6 64.2 53.8-83.9-45.7-42.8 4.8-44 68.1s-47.6 4.2-51.9 3c-4.2-1.2-24.1-41.6-24.1-41.6l19.9-46.4s50.7 16.3 54.9 8.5c4.2-7.8-7.2-50-7.2-50s85.6-48.2 89.2-57.3c3.6-9 58.5-5.4 70.5-8.4 12.1-3 62.1-61.5 70.6-68.7 8.4-7.2-43.4-69.9-50.1-49.4-6.6 20.5-5.4 73-18.7 79-13.3 6-65.7 1.2-65.7-2.4 0-3.6-8.9-41 4.3-47.6s27.7-51.9 34.3-59.7c6.6-7.8 71.2-30.1 94.1-15.7 22.9 14.5 45.8 10.9 59.1-4.8 13.3-15.7 53.1-28.4 53.1-28.4s-44.4-59-43.4-145"/>
        <path class="st1" d="M787.3 525.9s11.8 37.7 3.5 50.6c-8.2 12.9-23.5 37.1-16.5 37.1h40l20.6-41.2-23.5-54.1-24.1 7.6z"/>
        <path class="st1" d="M725.9 554l-.7 14.2 4.7-2.3"/>
        <path class="st1" d="M1431.3 1306.5s-34.4 54-50.2 58.9c-15.8 4.9-20.2 41.4-21.3 43.1s-14.2 41.4-8.2 42.5c6.1 1.1 63.9-26.2 79.7-144.5z"/>
        <path class="st1" d="M217.7 926.3c18.8-31.5 38.8-59.2 48.8-53.9 21.9 11.6 42.5 107 42.5 107s42.5 83.7 38.6 118.5c-3.9 34.8 118.5 122.4 118.5 122.4s32.2 59.2 0 74.7c-32.2 15.4-11.6 27-12.9 58-1.3 30.9-1.3 36.1-27.1 32.2 0 0 22.9 61.4 12 103.9"/>
        <path class="st1" d="M314.1 592.5c54.1-39.8 111.6-73.9 149.9-74.2 92.7-.8 153.6-93.3 174.8-106.6 21.2-13.4 43-55.7 86.4-82.2 23.1-14.1 61.8-55.4 92.9-98.9"/>
    </g>
</svg>
