<svg xmlns="http://www.w3.org/2000/svg" viewBox="0 0 1920 1920">
    <style>
        .st0{fill:#fff}.st1{fill:none;stroke:#231f20;stroke-width:50;stroke-linecap:round;stroke-linejoin:round;stroke-miterlimit:10}
    </style>
    <g id="Layer_2">
        <path class="st0" d="M1520.1 1143c0 309.3-250.8 560.1-560.1 560.1S399.9 1452.3 399.9 1143 650.7 217 960 217s560.1 616.7 560.1 926z"/>
        <path class="st0" d="M1520.1 1143c0 309.3-250.8 560.1-560.1 560.1S399.9 1452.3 399.9 1143 650.7 217 960 217s560.1 616.7 560.1 926z"/>
    </g>
    <path class="st1" d="M1520.1 1143c0 309.3-250.7 560.1-560.1 560.1S399.9 1452.3 399.9 1143 650.6 217 960 217s560.1 616.7 560.1 926z" id="STROKES"/>
</svg>
