<svg xmlns="http://www.w3.org/2000/svg" viewBox="0 0 1920 1920">
    <style>
        .st0{fill:#fff}.st1{fill:none;stroke:#231f20;stroke-width:50;stroke-linecap:round;stroke-linejoin:round;stroke-miterlimit:10}
    </style>
    <path class="st0" d="M1485.8 1336.5c-21.8 59.2-53.3 113.7-92.6 161.6-102.7 125.2-258.6 205-433.2 205-87.3 0-169.9-20-243.5-55.6s-138.3-86.9-189.6-149.4c-57.1-69.6-97.8-153.3-116.1-245.1 14.2-22 30.9-39.5 57.5-39.5 71.4 0 71.4 126 142.8 126s71.4-126 142.8-126 71.4 126 142.8 126 71.4-126 142.8-126 71.4 126 142.8 126 71.4-126 142.8-126 71.4 126 142.8 126c6.4 0 12.4-1.1 17.9-3z" id="Layer_6"/>
    <path class="st0" d="M1519.1 1108.3c-3.7.6-7.5.9-11.4.9-42 0-76.1-36-76.1-80.4 0-40.3 28.1-73.7 64.7-79.5-7.4-34.2-16.5-69.5-27.1-105.2h-1.5c-71.4 0-71.4-126-142.8-126s-71.4 126-142.8 126-71.4-126-142.8-126-71.4 126-142.8 126-71.4-126-142.8-126-71.4 126-142.8 126c-62.5 0-70.3-96.5-119.1-120.6-29.4 76.1-52.5 153.4-68.2 225.8 36.6 5.8 64.7 39.2 64.7 79.5 0 44.4-34.1 80.4-76.1 80.4-3.9 0-7.7-.3-11.4-.9-.6 11.9-1 23.5-1 34.7 0 37.7 3.7 74.4 10.8 110 14.2-22 30.9-39.5 57.5-39.5 71.4 0 71.4 126 142.8 126s71.4-126 142.8-126 71.4 126 142.8 126 71.4-126 142.8-126 71.4 126 142.8 126 71.4-126 142.8-126 71.4 126 142.8 126c6.6 0 12.6-1.1 18.1-3 22.2-60.3 34.3-125.5 34.3-193.5 0-11.2-.4-22.8-1-34.7zm-832.9.9c-42 0-76.1-36-76.1-80.4 0-44.4 34.1-80.4 76.1-80.4 42 0 76.1 36 76.1 80.4-.1 44.4-34.1 80.4-76.1 80.4zm273.8 0c-42 0-76.1-36-76.1-80.4 0-44.4 34.1-80.4 76.1-80.4 42 0 76.1 36 76.1 80.4 0 44.4-34.1 80.4-76.1 80.4zm273.9 0c-42 0-76.1-36-76.1-80.4 0-44.4 34.1-80.4 76.1-80.4 42 0 76.1 36 76.1 80.4-.1 44.4-34.1 80.4-76.1 80.4z" id="Layer_7"/>
    <path class="st0" d="M1377.7 607.1H542.3c-18.3 38-35.2 77-50.4 116.4 48.8 24.1 56.6 120.6 119.1 120.6 71.4 0 71.4-126 142.8-126s71.4 126 142.8 126 71.4-126 142.8-126 71.4 126 142.8 126 71.4-126 142.8-126 71.4 126 142.8 126h1.5c-23.6-79-54.5-160.3-91.6-237z" id="Layer_8"/>
    <path class="st0" d="M960 217c-133.4 0-255.8 114.6-352 269.8h704C1215.8 331.6 1093.3 217 960 217z" id="Layer_9"/>
    <path class="st0" d="M1312 486.8H608c-23.6 38-45.6 78.5-65.8 120.3h835.5c-20.2-41.8-42.2-82.3-65.7-120.3z" id="Layer_10"/>
    <path class="st0" d="M1496.3 949.3c-36.6 5.8-64.7 39.2-64.7 79.5 0 44.4 34.1 80.4 76.1 80.4 3.9 0 7.7-.3 11.4-.9-2.6-48.2-10.4-102.1-22.8-159zm-262.5-.9c-42 0-76.1 36-76.1 80.4s34.1 80.4 76.1 80.4c42 0 76.1-36 76.1-80.4s-34-80.4-76.1-80.4zm-273.8 0c-42 0-76.1 36-76.1 80.4s34.1 80.4 76.1 80.4c42 0 76.1-36 76.1-80.4s-34.1-80.4-76.1-80.4zm-273.8 0c-42 0-76.1 36-76.1 80.4s34.1 80.4 76.1 80.4c42 0 76.1-36 76.1-80.4s-34.1-80.4-76.1-80.4zm-262.5.9c-12.4 56.9-20.1 110.8-22.7 159 3.7.6 7.5.9 11.4.9 42 0 76.1-36 76.1-80.4-.1-40.3-28.2-73.7-64.8-79.5z" id="Layer_11"/>
    <g id="STROKES">
        <path class="st1" d="M1520.1 1143c0 68-12.1 133.2-34.3 193.5-21.8 59.2-53.3 113.7-92.6 161.6-102.7 125.2-258.6 205-433.2 205s-330.5-79.9-433.1-205c-57.1-69.6-97.8-153.3-116.1-245.1-7.1-35.6-10.8-72.3-10.8-110 0-11.2.3-22.8 1-34.7 2.6-48.1 10.4-102.1 22.7-159 15.7-72.4 38.9-149.7 68.2-225.8C592 463.8 764.3 217 960 217c226 0 420.7 329.2 509.2 627.2 10.6 35.7 19.7 71 27.1 105.2 12.4 56.9 20.1 110.8 22.7 159 .7 11.8 1.1 23.4 1.1 34.6z"/>
        <path class="st1" d="M1520.1 1143c0 68-12.1 133.2-34.3 193.5-5.5 1.9-11.5 3-18.1 3-71.4 0-71.4-126-142.8-126s-71.4 126-142.8 126-71.4-126-142.8-126-71.4 126-142.8 126-71.4-126-142.8-126-71.4 126-142.8 126-71.4-126-142.8-126c-26.6 0-43.3 17.5-57.5 39.5-7.1-35.6-10.8-72.3-10.8-110 0-11.2.3-22.8 1-34.7 2.6-48.1 10.4-102.1 22.7-159 15.7-72.4 38.9-149.7 68.2-225.8 48.8 24.1 56.6 120.6 119.1 120.6 71.4 0 71.4-126 142.8-126s71.4 126 142.8 126 71.4-126 142.8-126 71.4 126 142.8 126 71.4-126 142.8-126 71.4 126 142.8 126h1.5c10.6 35.7 19.7 71 27.1 105.2 12.4 56.9 20.1 110.8 22.7 159 .8 11.9 1.2 23.5 1.2 34.7z"/>
        <path class="st1" d="M1393.2 1498H526.8"/>
        <path class="st1" d="M1377.7 607.1H542.3"/>
        <path class="st1" d="M1312 486.8H608"/>
        <path class="st1" d="M1519.1 1108.3c-3.7.6-7.5.9-11.4.9-42 0-76.1-36-76.1-80.4 0-40.3 28.1-73.7 64.7-79.5 12.4 56.9 20.2 110.8 22.8 159z"/>
        <ellipse class="st1" cx="1233.8" cy="1028.8" rx="76.1" ry="80.4"/>
        <ellipse class="st1" cx="960" cy="1028.8" rx="76.1" ry="80.4"/>
        <ellipse class="st1" cx="686.2" cy="1028.8" rx="76.1" ry="80.4"/>
        <path class="st1" d="M488.4 1028.8c0 44.4-34.1 80.4-76.1 80.4-3.9 0-7.7-.3-11.4-.9 2.6-48.1 10.4-102.1 22.7-159 36.7 5.8 64.8 39.2 64.8 79.5z"/>
    </g>
</svg>
