<svg xmlns="http://www.w3.org/2000/svg" viewBox="0 0 1920 1920">
    <style>
        .st0{fill:#fff}.st1{fill:none;stroke:#231f20;stroke-width:50;stroke-linecap:round;stroke-linejoin:round;stroke-miterlimit:10}
    </style>
    <path class="st0" d="M1417.3 1094.8c8.6 47.1 13.1 91.1 13.1 129.6 0 264.4-214.3 478.7-478.7 478.7S473 1488.8 473 1224.4c0-7.7.2-15.7.5-23.9l100.8-131.1 107.8 140.2L790 1069.4l107.8 140.2 107.8-140.2 107.8 140.2 107.8-140.2 107.8 140.2 88.3-114.8z" id="Layer_4"/>
    <path class="st0" d="M1436.7 999.8l-119.3 82.1-59.4-166.5-145.7 100.2-59.5-166.5-145.7 100.3-59.5-166.5L702 883.1l-59.5-166.5-136.2 93.7C601 556.2 953 148 1197.2 226.9c215 69.5 276.8 494 239.5 772.9z" id="Layer_5"/>
    <g id="STROKES">
        <path class="st1" d="M1436.7 999.8l-119.3 82.1-59.4-166.5-145.7 100.2-59.5-166.5-145.7 100.3-59.5-166.5L702 883.1l-59.5-166.5-136.2 93.7C601 556.2 953 148 1197.2 226.9c215 69.5 276.8 494 239.5 772.9z"/>
        <path class="st1" d="M1430.4 1224.4c0 264.4-214.3 478.7-478.7 478.7S473 1488.8 473 1224.4c0-7.7.2-15.7.5-23.9l100.8-131.1 107.8 140.2L790 1069.4l107.8 140.2 107.8-140.2 107.8 140.2 107.8-140.2 107.8 140.2 88.3-114.8c8.6 47.1 13.1 91.2 13.1 129.6z"/>
        <path class="st1" d="M1436.7 999.8l-119.3 82.1-59.4-166.5-145.7 100.2-59.5-166.5-145.7 100.3-59.5-166.5L702 883.1l-59.5-166.5-136.2 93.7C601 556.2 953 148 1197.2 226.9c215 69.5 276.8 494 239.5 772.9z"/>
        <path class="st1" d="M1430.4 1224.4c0 264.4-214.3 478.7-478.7 478.7S473 1488.8 473 1224.4c0-7.7.2-15.7.5-23.9l100.8-131.1 107.8 140.2L790 1069.4l107.8 140.2 107.8-140.2 107.8 140.2 107.8-140.2 107.8 140.2 88.3-114.8c8.6 47.1 13.1 91.1 13.1 129.6z"/>
    </g>
</svg>
