<svg xmlns="http://www.w3.org/2000/svg" viewBox="0 0 1920 1920">
    <style>
        .st0{fill:#fff}.st1{stroke-width:55.5153}.st1,.st2,.st3{fill:none;stroke:#231f20;stroke-linecap:round;stroke-linejoin:round;stroke-miterlimit:10}.st2{stroke-width:50}.st3{stroke-width:51.4945}
    </style>
    <path class="st0" d="M1703.1 949.4c-461.7-82-914.5 166.6-914.5 166.6 7.7-151.2-205-899.1-205-899.1H352.9S291.4 972.4 396.5 1262c0 0 0 148.6 43.6 225.5s313.6 51.7 313.6 51.7 642.3 168.7 949.9 20.1l-.5-609.9z" id="Layer_3"/>
    <g id="STROKES">
        <path class="st2" d="M352.9 216.9S291.4 972.4 396.5 1262c0 0 0 148.6 43.6 225.5s313.6 51.7 313.6 51.7 642.3 168.7 949.9 20.1"/>
        <path class="st2" d="M583.5 216.9s212.7 747.8 205 899.1c0 0 452.8-248.6 914.5-166.6"/>
    </g>
</svg>
