<svg xmlns="http://www.w3.org/2000/svg" viewBox="0 0 1920 1920">
    <style>
        .st0{fill:#fff}.st1{stroke-width:55.5153}.st1,.st2,.st3{fill:none;stroke:#231f20;stroke-linecap:round;stroke-linejoin:round;stroke-miterlimit:10}.st2{stroke-width:50}.st3{stroke-width:51.4945}
    </style>
    <path class="st0" d="M819.1 888.9s515.3-280.7 753.9-377.4L1685 784c-268 351.5-679.2 500.1-708 541.3-28.8 41.2-125 114.5-157.9 102.2-33-12.4-116.1-102.2-116.1-102.2-333.7-144.2-472.8-322.8-472.8-322.8l-13.3-743.1S649 613.7 872.2 968" id="Layer_4"/>
    <g id="STROKES">
        <path class="st1" d="M872.3 1578.1v82.4"/>
        <path class="st1" d="M963.8 1538.5l74 74"/>
        <path class="st1" d="M780.8 1538.5l-74 74"/>
        <path class="st3" d="M216.9 259.5S649 613.8 872.2 968.1"/>
        <path class="st3" d="M230.2 1002.5s139.1 178.6 472.8 322.8c0 0 83.1 89.8 116.1 102.2 33 12.4 129.1-61 157.9-102.2 28.8-41.2 440-189.8 708-541.3"/>
        <path class="st3" d="M819.1 888.9s515.3-280.7 753.9-377.4"/>
        <path class="st1" d="M872.3 1578.1v82.4"/>
        <path class="st1" d="M963.8 1538.5l74 74"/>
        <path class="st1" d="M780.8 1538.5l-74 74"/>
    </g>
</svg>
