<svg xmlns="http://www.w3.org/2000/svg" viewBox="0 0 1920 1920">
    <style>
        .st0{fill:#fff}.st1{stroke-width:55.5153}.st1,.st2,.st3{fill:none;stroke:#231f20;stroke-linecap:round;stroke-linejoin:round;stroke-miterlimit:10}.st2{stroke-width:50}.st3{stroke-width:51.4945}
    </style>
    <path class="st0" d="M933.2 987.3s395.3-399.1 551.3-564.1l214 98.1c-194.5 399.3-523.6 809.6-543.9 855.9-20.3 46.3-118.5 133.9-153.4 128.2s-168.9-65.2-168.9-65.2c-357.3-76.1-596.1-312.7-596.1-312.7L215.4 569s313.6 131.2 785.9 485.8" id="Layer_2"/>
    <g id="STROKES">
        <path class="st3" d="M215.4 569s313.6 131.2 785.9 485.8"/>
        <path class="st3" d="M236.3 1127.6s238.8 236.7 596.1 312.7c0 0 134 59.5 168.9 65.2s133.1-81.9 153.4-128.2c20.3-46.3 349.3-456.6 543.9-855.9"/>
        <path class="st3" d="M933.2 987.3s395.3-399.1 551.3-564.1"/>
    </g>
</svg>
