<svg xmlns="http://www.w3.org/2000/svg" viewBox="0 0 1920 1920">
    <style>
        .st0{fill:#fff}.st1{fill:none;stroke:#231f20;stroke-width:50;stroke-linecap:round;stroke-linejoin:round;stroke-miterlimit:10}
    </style>
    <path class="st0" d="M1703.1 352.4v63c-137.1 41.6-119.5 147-99.8 201.1 13.9 38.3 13.1 80.6-3.5 117.9-29.7 66.5-83.7 68.1-83.7 68.1 18 57 187 75 187 75-136 61.6-245.2-6.8-245.2-6.8l-22.8 36.8-70.1-30.9c-24 63-106.9 48.9-106.9 48.9s0 102-24 129-83.7 32.1-83.7 32.1c39.7 110.8 85.4 342.6 85.4 342.6l64.3 138.4h-225.9l23.5-111.7c-24-47.3-106.3-299-106.3-299-3 66.3-52.3 302-31.3 308.7 21 6.7 55.3 102 55.3 102H790.6c-12.7 0-19.9-14.4-12.4-24.6l12.1-90.2c60.8-90.7 15.1-266.2 15.1-266.2-129 57-186.3 6-186.3 6-42 138-84 77-117 182.1-21.3 67.9-3.2 95.4 20.7 116.3 6.8 5.9 10.3 14.3 10.3 22.6 0 6.8-2.3 13.6-7 19.2-5.7 6.8-14.2 10.8-23.1 10.8l-171.9-3c36-153 75-288 75-288-36-96-16.7-247.9-16.7-247.9-32 133.3-76 178.3-112.6 206.4-6.9 5.3-14.7 7.7-22.3 7.7-19.2 0-37.4-15.3-37.4-37.3 0-14.3 8.2-27.3 21.1-33.5 48-23.2 32.1-47.7 147-309.4C514 544.5 817 649.6 817 649.6c159-104.8 264 0 264 0 54-59.8 153-62.2 153-62.2 168 6.9 114 80.1 213 110.1s42-54 66-189c24.1-135.1 190.1-156.1 190.1-156.1z" id="Layer_3"/>
    <g id="STROKES">
        <path class="st1" d="M1234.1 1054.5c24-27 24-129 24-129s82.9 14.1 106.9-48.9l70.1 30.9 22.8-36.8s109.2 68.4 245.2 6.8c0 0-169-18-187-75 0 0 54-1.6 83.7-68.1 16.6-37.2 17.4-79.5 3.5-117.9-19.6-54.1-37.3-159.5 99.8-201.1v-63s-166 21-190 156 33 219-66 189-45-103.1-213-110.1c0 0-99 2.4-153 62.2 0 0-105-104.8-264 0 0 0-303-105.2-432.1 188.9-114.8 261.7-98.9 286.2-147 309.4-12.9 6.2-21.1 19.2-21.1 33.5 0 22 18.1 37.3 37.4 37.3 7.6 0 15.4-2.4 22.3-7.7 36.6-28 80.6-73.1 112.6-206.4 0 0-19.3 151.9 16.7 247.9 0 0-39 135-75 288l171.9 3c8.9 0 17.4-4 23.1-10.8 4.7-5.6 7-12.4 7-19.2 0-8.4-3.5-16.7-10.3-22.6-23.9-20.9-42-48.4-20.7-116.3 33-105 75-44 117-182.1 0 0 57.3 51 186.3-6 0 0 45.7 175.5-15.1 266.2l-12.1 90.2c-7.5 10.2-.2 24.6 12.4 24.6h224.8s-34.3-95.3-55.3-102c-21-6.7 28.3-242.4 31.3-308.7 0 0 82.3 251.7 106.3 299l-23.5 111.7h225.9l-64.3-138.4s-45.7-231.7-85.4-342.6c.2.2 59.9-4.9 83.9-31.9z" id="XMLID_1_"/>
    </g>
</svg>
