<svg xmlns="http://www.w3.org/2000/svg" viewBox="0 0 1920 1920">
    <style>
        .st0{fill:#fff}.st1{fill:none;stroke:#231f20;stroke-width:50;stroke-linecap:round;stroke-linejoin:round;stroke-miterlimit:10}
    </style>
    <path class="st0" d="M1410.2 1273.4s20.1 132.2-8.6 252.9v1.1h-178.8c-12.3-51.4 36.8-148.6 36.8-148.6-24.5-59.4-16-255-16-256.8 27.2-1.8 54.2-5.7 80.3-12.4 0 0 40.3 89.1 86.3 163.8zm-86.3-163.8s40.2 89.1 86.2 163.8c0 0 20.1 132.2-8.6 252.9h209.8s-8.6-293.1-14.4-284.5c-5.8 8.6 94.5-195.4 94.5-195.4s118.1-597.7-399.1-597.7c0 0-250-123.5-655.1 0 0 0-287.3-126.4-347.7 181 0 0-72.6 65.2-72.6 334.3s70.4 549.4 190.4 562.2c99.8 10.7 81.1-57.4 81.1-57.4l-61.3-23.1s-157.7-192.5-91.6-382.2c0 0 45.2 31.6 91.6-117.8l129.7-31.6 63.2 60.4s-66.1 425.2-66.1 551.6h146.5s25.2-366.6 28.1-381l84 323.5s-40.2 31.6-40.2 57.5h169.5s-25.9-436.8-17.2-456.9c0 0 161.1 62.8 319.1 52.6 27.1-1.6 54.1-5.5 80.2-12.2z" id="Layer_6"/>
    <g id="STROKES">
        <g id="XMLID_1_">
            <path class="st1" d="M1401.5 1526.2h209.8s-8.6-293.1-14.4-284.5c-5.8 8.6 94.5-195.4 94.5-195.4s118.1-597.7-399.1-597.7c0 0-250-123.5-655.1 0 0 0-287.3-126.4-347.7 181 0 0-72.6 65.2-72.6 334.3s70.4 549.4 190.4 562.2c99.8 10.7 81.1-57.4 81.1-57.4l-61.3-23.1s-157.7-192.5-91.6-382.2c0 0 45.2 31.6 91.6-117.8L556.8 914l63.2 60.4s-66.1 425.2-66.1 551.6h146.5s25.2-366.6 28.1-381l84 323.5s-40.2 31.6-40.2 57.5h169.5s-25.9-436.8-17.2-456.9c0 0 161.1 62.8 319.1 52.6 27.2-1.8 54.2-5.7 80.3-12.4 0 0 40.2 89.1 86.2 163.8 0 .3 20.1 132.4-8.7 253.1z"/>
            <path class="st1" d="M1243.6 1122c-.1 1.7-8.5 197.4 16 256.8 0 0-49.1 97.3-36.8 148.6h178.8"/>
        </g>
    </g>
</svg>
