<svg xmlns="http://www.w3.org/2000/svg" viewBox="0 0 1920 1920">
    <style>
        .st0{fill:#fff}.st1{fill:none;stroke:#231f20;stroke-width:50;stroke-linecap:round;stroke-linejoin:round;stroke-miterlimit:10}
    </style>
    <g id="Layer_4">
        <path class="st0" d="M1573.9 1378.9s-236-46-358.8-335.5l73.5-100s140.5 371.3 285.3 435.5zm-869-335.5l-73.5-100s-140.5 371.3-285.3 435.5c0 0 236.1-46 358.8-335.5z"/>
        <path class="st0" d="M737.8 642.9c21.3 0 38.7 17.3 38.7 38.6s-17.3 38.6-38.7 38.6-38.6-17.3-38.6-38.6 17.3-38.6 38.6-38.6zm405.7 38.7c0 21.3 17.3 38.6 38.6 38.6s38.6-17.3 38.6-38.6-17.3-38.6-38.6-38.6c-21.3-.1-38.6 17.2-38.6 38.6z"/>
    </g>
    <path class="st0" d="M1510.9 341.6c141.6 217.2 141.6 591.7 0 601.1-141.6 9.4-251.8-75.5-251.8-75.5l29.4 76.3-73.5 100-84.3 47.5c50.4 176.2 20.3 609.6-200.3 609.6-293.1 0-348.8-113.6-348.8-113.6l-5.6-2.1c-38.7-14.8-44-67.3-9.1-89.5l68.6-43.7c29.9-19.1 69.1 2.4 69.1 37.9v2.2c1.1 28.9 21.5 43.9 47.5 51.2 72.3 20.3 145.2-29.7 154.5-104.3 21.1-169.5-119.3-374.8-119.3-374.8l-82.7-20.3-73.5-100 29.4-76.3s-110.2 85-251.8 75.5c-141.6-9.4-141.6-384 0-601.1 141.6-217.2 390.2-50.4 390.2-50.4S857.3 230 960 230s160.7 61.2 160.7 61.2 248.6-166.8 390.2 50.4zm-290.1 340c0-21.3-17.3-38.6-38.6-38.6s-38.6 17.3-38.6 38.6 17.3 38.6 38.6 38.6 38.6-17.3 38.6-38.6zm-444.3 0c0-21.3-17.3-38.6-38.7-38.6s-38.6 17.3-38.6 38.6 17.3 38.6 38.6 38.6 38.7-17.3 38.7-38.6z" id="Layer_5"/>
    <g id="STROKES">
        <g id="XMLID_1_">
            <path class="st1" d="M606.1 609.9s151.1-125.7 292.1 15.2"/>
            <ellipse class="st1" cx="737.8" cy="681.6" rx="38.6" ry="38.6"/>
            <ellipse class="st1" cx="1182.2" cy="681.6" rx="38.6" ry="38.6"/>
            <path class="st1" d="M1021.8 625.2c141-141 292.1-15.2 292.1-15.2"/>
            <path class="st1" d="M1130.8 1090.9c50.4 176.2 20.3 609.6-200.3 609.6-293.1 0-348.8-113.6-348.8-113.6l-5.6-2.1c-38.7-14.8-44-67.3-9.1-89.5l68.6-43.7c29.9-19.1 69.1 2.4 69.1 37.9v2.2c1.1 28.9 21.5 43.9 47.5 51.2 72.3 20.3 145.2-29.7 154.5-104.3 21.1-169.5-119.3-374.8-119.3-374.8l-82.7-20.3-73.5-100 29.4-76.3s-110.2 85-251.8 75.5c-141.6-9.4-141.6-384 0-601.1C550.4 124.4 799 291.2 799 291.2S857.3 230 960 230s160.7 61.2 160.7 61.2 248.6-166.8 390.2 50.4c141.6 217.2 141.6 591.7 0 601.1-141.6 9.4-251.8-75.5-251.8-75.5l29.4 76.3-73.5 100-84.2 47.4"/>
            <path class="st1" d="M1288.6 943.4s140.5 371.3 285.3 435.5c0 0-236-46-358.8-335.5"/>
            <path class="st1" d="M631.4 943.4s-140.5 371.3-285.3 435.5c0 0 236.1-46 358.8-335.5"/>
        </g>
    </g>
</svg>
