<svg xmlns="http://www.w3.org/2000/svg" viewBox="0 0 1920 1920">
    <style>
        .st0{fill:#fff}.st1{fill:none;stroke:#231f20;stroke-width:50;stroke-linecap:round;stroke-linejoin:round;stroke-miterlimit:10}
    </style>
    <path class="st0" d="M1703.1 649v622c0 18.5-8.8 34.9-22.4 45.3L1209 844.6l-.4-.7 471.6-240.5c13.9 10.4 22.9 26.9 22.9 45.6zm-494.5 194.9L960 970.7 711.4 843.9l-.4.7-471.7 471.7c9.6 7.3 21.6 11.7 34.6 11.7h1372c13 0 25-4.4 34.6-11.7L1209 844.6l-.4-.7zM239.8 603.3c-13.9 10.4-22.9 27-22.9 45.7v622c0 18.5 8.8 34.9 22.4 45.3L711 844.6l.4-.7-471.6-240.6zM1646 592H274c-12.8 0-24.6 4.2-34.2 11.3l471.6 240.5L960 970.7l248.6-126.8 471.6-240.5c-9.5-7.2-21.4-11.4-34.2-11.4z" id="Layer_3"/>
    <g id="STROKES">
        <g id="XMLID_1_">
            <path class="st1" d="M1680.7 1316.3c-9.6 7.3-21.6 11.7-34.6 11.7H274c-13 0-25-4.4-34.6-11.7-13.6-10.4-22.4-26.8-22.4-45.3V649c0-18.7 9-35.3 22.9-45.7 9.5-7.1 21.4-11.3 34.2-11.3h1372c12.8 0 24.6 4.2 34.2 11.3 13.9 10.4 22.9 27 22.9 45.7v622c-.1 18.4-8.9 34.9-22.5 45.3z"/>
            <path class="st1" d="M238.1 602.5l1.7.8 471.6 240.6L960 970.7l248.6-126.8 471.6-240.6 1.7-.8"/>
            <path class="st1" d="M238.1 1317.5l1.3-1.2L711 844.6"/>
            <path class="st1" d="M1681.9 1317.5l-1.2-1.2L1209 844.6"/>
        </g>
    </g>
</svg>
