<svg xmlns="http://www.w3.org/2000/svg" viewBox="0 0 1920 1920">
    <style>
        .st0{fill:#fff}.st1{fill:none;stroke:#231f20;stroke-width:50;stroke-linecap:round;stroke-linejoin:round;stroke-miterlimit:10}
    </style>
    <path class="st0" d="M1178 276v434.1H742V276c0-32.5 26.5-59 59-59h318c32.4-.1 59 26.5 59 59z" id="Layer_3"/>
    <path class="st0" d="M1178 1082.1v621H960v-621h218zm-436 0v621h218v-621H742z" id="Layer_5"/>
    <path class="st0" d="M1178 958.1v124H742v-124h436zm-436-124v124h436v-124H742zm0-124v124h436v-124H742z" id="Layer_7"/>
    <g id="STROKES">
        <path class="st1" d="M742 710.1V276c0-32.5 26.5-59 59-59h318c32.4 0 59 26.6 59 59v434.1"/>
        <path class="st1" d="M1178 710.1v372"/>
        <path class="st1" d="M742 1082.1v-372"/>
        <path class="st1" d="M742 710.1h436"/>
        <path class="st1" d="M742 1703.1v-621h436v621"/>
        <path class="st1" d="M742 958.1h436"/>
        <path class="st1" d="M742 834.1h436"/>
        <path class="st1" d="M960 1082.1v621"/>
    </g>
</svg>
