<svg xmlns="http://www.w3.org/2000/svg" viewBox="0 0 1920 1920">
    <style>
        .st0{fill:#fff}.st1{fill:none;stroke:#231f20;stroke-width:50;stroke-linecap:round;stroke-linejoin:round;stroke-miterlimit:10}
    </style>
    <path class="st0" d="M1166.2 703.9l-412.5 512.3H270.8c-44.7 0-69.9-51.4-42.5-86.8l314.4-404.8c10.2-13.1 25.9-20.8 42.5-20.8h581z" id="Layer_4"/>
    <path class="st0" d="M1649.2 703.9c44.7 0 69.9 51.4 42.5 86.8l-314.4 404.8c-10.2 13.1-25.9 20.8-42.5 20.8h-581L1166.3 704h482.9z" id="Layer_2"/>
    <g id="STROKES">
        <path class="st1" d="M602 703.9h1047.2c44.7 0 69.9 51.4 42.5 86.8l-314.4 404.8c-10.2 13.1-25.9 20.8-42.5 20.8h-1064c-44.7 0-69.9-51.4-42.5-86.8l314.4-404.8c10.2-13.1 25.9-20.8 42.5-20.8H602"/>
        <path class="st1" d="M753.8 1216.1l412.4-512.2"/>
    </g>
</svg>
