<svg xmlns="http://www.w3.org/2000/svg" viewBox="0 0 1920 1920">
    <style>
        .st0{fill:#fff}.st1{fill:none;stroke:#231f20;stroke-width:50;stroke-linecap:round;stroke-linejoin:round;stroke-miterlimit:10}
    </style>
    <path class="st0" d="M960 1281.3c177.5 0 321.3-143.9 321.3-321.3S1137.5 638.7 960 638.7c577 0 743.1 321.3 743.1 321.3S1537 1281.3 960 1281.3zM638.7 960c0-177.5 143.9-321.3 321.3-321.3-577 0-743 321.3-743 321.3s166.1 321.3 743 321.3c-177.5 0-321.3-143.8-321.3-321.3z" id="Layer_9"/>
    <circle class="st0" cx="960" cy="960" r="321.4" id="Layer_10"/>
    <g id="STROKES">
        <g id="XMLID_2_">
            <circle class="st1" cx="960" cy="960" r="321.4"/>
            <path class="st1" d="M216.9 960s166.1-321.3 743-321.3"/>
            <path class="st1" d="M1703.1 960S1537 638.7 960 638.7"/>
            <path class="st1" d="M1703.1 960S1537 1281.3 960 1281.3"/>
            <path class="st1" d="M216.9 960s166.1 321.3 743 321.3"/>
        </g>
    </g>
</svg>
