<svg xmlns="http://www.w3.org/2000/svg" viewBox="0 0 1920 1920">
    <style>
        .st0{fill:#fff}.st1{fill:none;stroke:#231f20;stroke-width:50;stroke-linecap:round;stroke-linejoin:round;stroke-miterlimit:10}
    </style>
    <path class="st0" d="M1704.3 798.2c0 21.7-9.3 42.5-26.1 56.3-18.8 15.5-42.9 61-54.6 188.3 0 0 15.7 188.9-281.7 176.6-311-12.8-319.2-330.1-368.6-340.5h-27.9c-49.4 10.4-57.7 327.6-368.6 340.5-297.4 12.2-281.8-176.7-281.8-176.7-11.7-127.3-35.8-172.8-54.6-188.3-8.4-6.9-14.9-15.5-19.3-25.2-4.4-9.6-6.8-20.3-6.8-31.1 0-36.6 27.4-67.3 63.8-71.4 107.8-12.1 341.1-26.1 612.6 32.3 0 0 29.2 12.5 67.9 12.5h1.3c38.7 0 67.9-12.5 67.9-12.5 271.5-58.5 504.8-44.5 612.6-32.3 18.2 2 34.1 10.8 45.5 23.5 11.6 12.9 18.4 29.7 18.4 48zm-165.2 40.5s6.5-59.9-210.5-49.1c-217 10.9-223.8 93.4-223.8 93.4s-13 225.8 254.1 247.5c267.1 21.8 180.2-291.8 180.2-291.8zm-979.3 291.9C826.9 1108.9 813.9 883 813.9 883s-6.9-82.5-223.8-93.4c-217-10.9-210.5 49.1-210.5 49.1s-86.8 313.6 180.2 291.9z" id="Layer_3"/>
    <path class="st0" d="M1328.7 789.7c217-10.9 210.5 49.1 210.5 49.1s86.8 313.6-180.2 291.9c-267.1-21.7-254.1-247.5-254.1-247.5s6.8-82.7 223.8-93.5zm-738.6 0c-217-10.9-210.5 49.1-210.5 49.1s-86.8 313.6 180.2 291.9C826.9 1108.9 813.9 883 813.9 883s-6.9-82.5-223.8-93.3z" id="Layer_4"/>
    <g id="STROKES">
        <g id="XMLID_1_">
            <path class="st1" d="M379.6 838.7s-86.8 313.6 180.2 291.9C826.9 1108.9 813.9 883 813.9 883s-6.9-82.5-223.8-93.4c-217-10.8-210.5 49.1-210.5 49.1z"/>
            <path class="st1" d="M973.3 878.8c49.4 10.4 57.7 327.6 368.6 340.5 297.4 12.3 281.7-176.6 281.7-176.6 11.7-127.3 35.8-172.8 54.6-188.3 16.8-13.8 26.1-34.6 26.1-56.3 0-18.3-6.9-35.1-18.3-47.9-11.4-12.8-27.3-21.5-45.5-23.5-107.8-12.1-341.1-26.1-612.6 32.3 0 0-29.2 12.5-67.9 12.5h-1.3c-38.7 0-67.9-12.5-67.9-12.5-271.5-58.5-504.8-44.5-612.6-32.3-36.3 4.1-63.8 34.8-63.8 71.4 0 10.8 2.3 21.5 6.8 31.1 4.4 9.6 11 18.3 19.3 25.2 18.8 15.5 42.9 61 54.6 188.3 0 0-15.6 188.9 281.7 176.6 311-12.8 319.2-330.1 368.6-340.5h27.9z"/>
            <path class="st1" d="M1539.1 838.7s86.8 313.6-180.2 291.9c-267.1-21.7-254.1-247.5-254.1-247.5s6.9-82.5 223.8-93.4c217-10.9 210.5 49 210.5 49z"/>
        </g>
    </g>
</svg>
