<svg xmlns="http://www.w3.org/2000/svg" viewBox="0 0 1920 1920">
    <style>
        .st0{fill:#fff}.st1{fill:none;stroke:#231f20;stroke-width:50;stroke-linecap:round;stroke-linejoin:round;stroke-miterlimit:10}
    </style>
    <path class="st0" d="M272.9 893.7l97.4 258.3h-42.6c-30.3 0-54.9-21.1-54.9-47.1l.1-211.2zm95.4-50.2L336 735.1c-6.4-21.4-24.3-36.4-45-40.2-3.4-.6-6.9-.9-10.4-.9-5.4 0-10.9.8-16.4 2.4-30.4 9-47.8 41.3-38.8 71.7l47.4 125.6 97.4 258.3 6.5 17.2c9 30.4 37.4 56.9 79.3 56.9 21.7 0 22.7-11.6 13.6-41.9L368.3 843.5zM291 694.9c20.7 3.8 38.6 18.8 45 40.2l32.3 108.4h1084.8l131.9 231.6c23.7 41.5 81.6 46.3 111.8 9.2l-181.1-317.9L291 694.9z" id="Layer_5"/>
    <g id="STROKES">
        <g id="XMLID_1_">
            <path class="st1" d="M368.3 843.5h1084.8l131.9 231.6c23.7 41.5 81.6 46.3 111.8 9.2l-181.1-317.9L291 694.9"/>
            <path class="st1" d="M368.3 843.5L469.8 1184c9.1 30.4 8.1 41.9-13.6 41.9-41.9 0-70.3-26.5-79.3-56.9l-6.5-17.2L273 893.5l-47.4-125.6c-9.1-30.4 8.4-62.6 38.8-71.7 5.4-1.6 10.9-2.4 16.4-2.4 3.5 0 7 .3 10.4.9 20.7 3.8 38.6 18.8 45 40.2l32.1 108.6z"/>
            <path class="st1" d="M272.8 893.7v211.2c0 26 24.6 47.1 54.9 47.1h42.6"/>
            <path class="st1" d="M422.1 775.6h101.2"/>
        </g>
    </g>
</svg>
