<svg xmlns="http://www.w3.org/2000/svg" viewBox="0 0 1920 1920">
    <style>
        .st0{fill:#fff}.st1{fill:none;stroke:#231f20;stroke-width:50;stroke-linecap:round;stroke-linejoin:round;stroke-miterlimit:10}
    </style>
    <path class="st0" d="M1130.8 857.9c41.6-112.7 149.9-193.1 277-193.1 163 0 295.2 132.2 295.2 295.2s-132.2 295.2-295.2 295.2S1112.6 1123 1112.6 960c.1-35.9 6.5-70.3 18.2-102.1zM512.1 664.8c-163 0-295.2 132.2-295.2 295.2s132.2 295.2 295.2 295.2S807.3 1123 807.3 960c0-35.9-6.4-70.3-18.1-102.1-41.6-112.7-149.9-193.1-277.1-193.1z" id="Layer_2"/>
    <g id="STROKES">
        <g id="XMLID_1_">
            <path class="st1" d="M807.3 960c0 163-132.2 295.2-295.2 295.2S216.9 1123 216.9 960s132.2-295.2 295.2-295.2c127.1 0 235.5 80.4 277 193.1 11.8 31.8 18.2 66.2 18.2 102.1z"/>
            <path class="st1" d="M1703.1 960c0 163-132.2 295.2-295.2 295.2S1112.7 1123 1112.7 960c0-35.9 6.4-70.3 18.1-102.1 41.6-112.7 149.9-193.1 277-193.1 163.1 0 295.3 132.2 295.3 295.2z"/>
            <path class="st1" d="M789.2 857.9c.6-1.2 41.4-76.1 170.8-76.1s170.2 74.9 170.8 76.1"/>
        </g>
    </g>
</svg>
