<svg xmlns="http://www.w3.org/2000/svg" viewBox="0 0 1920 1920">
    <style>
        .st0{fill:#fff}.st1{fill:none;stroke:#231f20;stroke-width:50;stroke-linecap:round;stroke-linejoin:round;stroke-miterlimit:10}
    </style>
    <path class="st0" d="M807.8 1125.7l-297-514.5c65.4-37.9 138.5-67.7 217.3-87.7l.5 1.9 152.7 569.8c-26.1 7-50.8 17.3-73.5 30.5zm0 0l-297-514.5c-70.3 40.8-131.6 90.9-180.9 148l414.9 414.9c18.7-18.7 39.9-35 63-48.4zm601.5-514.4c-65.4-37.9-138.6-67.8-217.3-87.8l-.5 1.9-152.7 569.8c26 6.9 50.7 17.2 73.4 30.4l297.1-514.3zm0 0l-297.1 514.4c23.1 13.4 44.3 29.7 63 48.4l414.9-414.9c-49.3-57.1-110.5-107.2-180.8-147.9zm180.9 147.9l-414.9 414.9c18.8 18.8 35.1 39.9 48.4 63l479.4-276.8c-22.3-73-61-141-112.9-201.1zM960 495v590c27.3 0 53.7 3.6 78.8 10.3l152.7-569.8.5-1.9C1118.8 505 1040.9 495 960 495zm-232 28.5l.5 1.9 152.7 569.8c25.1-6.7 51.5-10.3 78.8-10.3V495c-80.9 0-158.8 10-232 28.5zM217 960.3l479.4 276.8c13.4-23.1 29.7-44.2 48.4-63l-415-414.9c-51.9 60.1-90.6 128-112.8 201.1z" id="Layer_5"/>
    <path class="st0" d="M960 1084.9c27.3 0 53.7 3.6 78.8 10.3 26 6.9 50.7 17.2 73.4 30.4 23.1 13.4 44.3 29.7 63 48.4s35.1 39.9 48.4 63L960 1389.3l-263.7-152.2c13.4-23.1 29.7-44.2 48.4-63 18.7-18.8 39.9-35 63-48.4 22.8-13.2 47.4-23.5 73.4-30.4 25.2-6.7 51.6-10.4 78.9-10.4z" id="Layer_6"/>
    <g id="STROKES">
        <g id="XMLID_1_">
            <path class="st1" d="M1703.1 960.4c-22.2-73.1-61-141-112.9-201.2"/>
            <path class="st1" d="M1175.3 1174.1c18.8 18.8 35.1 39.9 48.4 63"/>
            <path class="st1" d="M744.7 1174.1c18.7-18.8 39.9-35 63-48.4"/>
            <path class="st1" d="M960 495c-80.9 0-158.8 10-232 28.6-78.7 20-151.9 49.8-217.3 87.7-70.3 40.8-131.6 90.9-180.9 148"/>
            <path class="st1" d="M728.5 525.4l152.7 569.8c25.1-6.7 51.5-10.3 78.8-10.3"/>
            <path class="st1" d="M510.8 611.2l297 514.5c22.8-13.2 47.4-23.5 73.4-30.4"/>
            <path class="st1" d="M1409.3 611.3l-297.1 514.4c23.1 13.4 44.3 29.7 63 48.4l414.9-414.9c-49.3-57.1-110.5-107.2-180.8-147.9-65.4-37.9-138.6-67.8-217.3-87.8-73.2-18.5-151.1-28.5-232-28.5v590c27.3 0 53.7 3.6 78.8 10.3"/>
            <path class="st1" d="M1191.5 525.4l-152.7 569.8c26 6.9 50.7 17.2 73.4 30.4"/>
            <path class="st1" d="M836 1461l124-71.7-263.7-152.2"/>
            <path class="st1" d="M1084.1 1461L960 1389.3"/>
            <path class="st1" d="M1703.1 960.4l-479.4 276.7L960 1389.3"/>
            <path class="st1" d="M744.7 1174.1L329.8 759.2c-51.9 60.1-90.7 128-112.9 201.1l479.4 276.8c13.4-23.1 29.7-44.3 48.4-63z"/>
        </g>
    </g>
</svg>
