<svg xmlns="http://www.w3.org/2000/svg" viewBox="0 0 1920 1920">
    <style>
        .st0{fill:#fff}.st1{fill:none;stroke:#231f20;stroke-width:50;stroke-linecap:round;stroke-linejoin:round;stroke-miterlimit:10}
    </style>
    <path class="st0" d="M1007.8 1123.8v469.1h-95.6v-469.1c15.7 1.7 31.7 2.5 47.8 2.5s32.1-.9 47.8-2.5zm175 501.4c-19.9-19.9-47.5-32.3-77.9-32.3H815.1c-60.8 0-110.2 49.3-110.2 110.2H1215c0-30.5-12.3-58-32.2-77.9zM960 1030.4c-2.7 0-5.3 0-8-.1-191.4-4.2-345.8-158.6-350-350-.1-2.7-.1-5.3-.1-8s0-5.3.1-8c4.2-191.4 158.6-345.8 350-350 2.7-.1 5.3-.1 8-.1s5.3 0 8 .1c191.4 4.2 345.8 158.6 350 350 .1 2.7.1 5.3.1 8s0 5.3-.1 8c-4.2 191.4-158.6 345.8-350 350-2.7.1-5.3.1-8 .1zM506.1 672.3c0 234.5 177.9 427.5 406.1 451.4 15.7 1.7 31.7 2.5 47.8 2.5s32.1-.8 47.8-2.5c228.2-23.9 406.1-216.9 406.1-451.4 0-250.7-203.2-453.9-453.9-453.9S506.1 421.7 506.1 672.3z" id="Layer_7"/>
    <path class="st0" d="M1034 921.7c12.2 51.5-23.2 101.1-74 108-50.8-6.8-86.2-56.4-74-108l39.3-166.2.5-2.3c10.5 4.4 22 6.9 34.1 6.9 11.3 0 22.2-2.2 32.2-6.1l2.5 1.5 39.4 166.2zm175.3-323.4l-166.2 39.3-2.2.5c4.4 10.5 6.9 22 6.9 34.1 0 12.1-2.4 23.7-6.9 34.1l2.2.5 166.2 39.3c51.5 12.2 101.1-23.2 108-74-6.9-50.5-56.5-85.9-108-73.8zM886 423.1l39.3 166.2.5 2.2c10.5-4.4 22-6.9 34.1-6.9 11.3 0 22.2 2.2 32.2 6.1l2.5-1.4 39.3-166.2c12.2-51.5-23.2-101.1-74-108-50.7 6.8-86.1 56.4-73.9 108zM710.7 598.3c-51.6-12.2-101.1 23.2-108 74 6.8 50.8 56.4 86.2 108 74L876.9 707l2.2-.5c-4.4-10.5-6.9-22-6.9-34.1 0-12.1 2.5-23.6 6.9-34.1l-2.2-.5-166.2-39.5z" id="Layer_8"/>
    <path class="st0" d="M1040.8 638.2c4.4 10.5 6.9 22 6.9 34.1 0 12.1-2.4 23.7-6.9 34.1-9.2 21.6-26.7 38.9-48.7 47.5-10 3.9-20.8 6.1-32.2 6.1-12.1 0-23.7-2.5-34.1-6.9-21-8.9-37.8-25.7-46.7-46.7-4.4-10.5-6.9-22-6.9-34.1 0-12.1 2.5-23.6 6.9-34.1 8.9-21 25.7-37.8 46.7-46.7 10.5-4.4 22-6.9 34.1-6.9 11.3 0 22.2 2.2 32.2 6.1 22 8.7 39.6 25.9 48.7 47.5z" id="Layer_9"/>
    <g id="STROKES">
        <g id="XMLID_1_">
            <path class="st1" d="M1040.8 638.2c4.4 10.5 6.9 22 6.9 34.1 0 12.1-2.4 23.7-6.9 34.1-9.2 21.6-26.7 38.9-48.7 47.5-10 3.9-20.8 6.1-32.2 6.1-12.1 0-23.7-2.5-34.1-6.9-21-8.9-37.8-25.7-46.7-46.7-4.4-10.5-6.9-22-6.9-34.1 0-12.1 2.5-23.6 6.9-34.1 8.9-21 25.7-37.8 46.7-46.7 10.5-4.4 22-6.9 34.1-6.9 11.3 0 22.2 2.2 32.2 6.1 22 8.7 39.6 25.9 48.7 47.5z"/>
            <path class="st1" d="M925.3 589.3L886 423.1c-12.2-51.5 23.2-101.1 74-108 2.6-.4 5.3-.6 8-.7 1.3-.1 2.7-.1 4-.1"/>
            <path class="st1" d="M994.7 589.3l39.3-166.2c12.2-51.5-23.2-101.1-74-108-2.6-.4-5.3-.6-8-.7-1.3-.1-2.7-.1-4-.1"/>
            <path class="st1" d="M994.7 755.4l39.3 166.2c12.2 51.5-23.2 101.1-74 108-2.6.4-5.3.6-8 .7-1.3.1-2.7.1-4 .1"/>
            <path class="st1" d="M925.3 755.4L886 921.7c-12.2 51.5 23.2 101.1 74 108 2.6.4 5.3.6 8 .7 1.3.1 2.7.1 4 .1"/>
            <path class="st1" d="M1043.1 637.7l166.2-39.3c51.5-12.2 101.1 23.2 108 74 .4 2.6.6 5.3.7 8 .1 1.3.1 2.7.1 4"/>
            <path class="st1" d="M1043.1 707l166.2 39.3c51.5 12.2 101.1-23.2 108-74 .4-2.6.6-5.3.7-8 .1-1.3.1-2.7.1-4"/>
            <path class="st1" d="M876.9 707l-166.2 39.3c-51.6 12.2-101.1-23.2-108-74-.4-2.6-.6-5.3-.7-8-.1-1.3-.1-2.7-.1-4"/>
            <path class="st1" d="M876.9 637.7l-166.2-39.3c-51.6-12.2-101.1 23.2-108 74-.4 2.6-.6 5.3-.7 8-.1 1.3-.1 2.7-.1 4"/>
            <path class="st1" d="M1318 664.3c.1 2.7.1 5.3.1 8s0 5.3-.1 8c-4.2 191.4-158.6 345.8-350 350-2.7.1-5.3.1-8 .1s-5.3 0-8-.1c-191.4-4.2-345.8-158.6-350-350-.1-2.7-.1-5.3-.1-8s0-5.3.1-8c4.2-191.4 158.6-345.8 350-350 2.7-.1 5.3-.1 8-.1s5.3 0 8 .1c191.4 4.3 345.8 158.7 350 350z"/>
            <path class="st1" d="M912.2 1123.8C684 1099.9 506.1 906.9 506.1 672.3c0-250.7 203.2-453.9 453.9-453.9s453.9 203.2 453.9 453.9c0 234.5-177.9 427.5-406.1 451.4-15.7 1.7-31.7 2.5-47.8 2.5s-32.1-.8-47.8-2.4z"/>
            <path class="st1" d="M912.2 1123.8v469.1"/>
            <path class="st1" d="M1007.8 1123.8v469.1"/>
            <path class="st1" d="M912.2 1592.9h-97.1c-60.8 0-110.2 49.3-110.2 110.2H1215c0-30.4-12.3-58-32.3-77.9-19.9-19.9-47.5-32.3-77.9-32.3H912.2z"/>
        </g>
    </g>
</svg>
