<svg xmlns="http://www.w3.org/2000/svg" viewBox="0 0 1920 1920">
    <style>
        .st0{fill:#fff}.st1{fill:none;stroke:#231f20;stroke-width:50;stroke-linecap:round;stroke-linejoin:round;stroke-miterlimit:10}
    </style>
    <path class="st0" d="M1123.4 494.9c16.6 108.8 3.1 198.5 3.1 198.5l62.1-62.6c98.8 170.1-76.2 391.8-76.2 391.8l107.2-63.5c0 47.6-5.6 93.3-15.3 136.6C1148.8 1346.6 960 1519 960 1519V216.9c16.5 0 33 5.9 44.6 17.7 73.3 74.9 105.6 173.6 118.8 260.3zM960 216.9c-16.5 0-33.1 5.9-44.7 17.7-73.3 74.9-105.5 173.6-118.7 260.3-16.6 108.8-3.1 198.5-3.1 198.5l-62.1-62.6c-98.8 170.1 76.2 391.8 76.2 391.8l-107.2-63.5c0 47.6 5.6 93.3 15.3 136.6C771.2 1346.6 960 1519 960 1519V216.9z" id="Layer_4"/>
    <g id="STROKES">
        <g id="XMLID_1_">
            <path class="st1" d="M960 1703.1V218.2"/>
            <path class="st1" d="M960 1519s188.8-172.4 244.4-423.2c9.6-43.4 15.3-89.1 15.3-136.6l-107.2 63.5s175-221.7 76.2-391.8l-62.1 62.6s13.4-89.8-3.1-198.5c-13.2-86.6-45.5-185.3-118.8-260.2-11.6-11.8-28.1-17.7-44.6-17.7s-33.1 5.9-44.7 17.7C842 309.5 809.8 408.2 796.6 494.9c-16.6 108.8-3.1 198.5-3.1 198.5l-62.1-62.6c-98.8 170.1 76.2 391.8 76.2 391.8l-107.2-63.5c0 47.6 5.6 93.3 15.3 136.6C771.2 1346.6 960 1519 960 1519"/>
            <path class="st1" d="M1058.1 1195.3l146.3-99.5"/>
            <path class="st1" d="M861.9 1195.3l-146.3-99.5"/>
            <path class="st1" d="M1058.1 868.7l154.5-105.2"/>
            <path class="st1" d="M861.9 868.7L707.4 763.5"/>
            <path class="st1" d="M1058.1 539.3l65.3-44.4"/>
            <path class="st1" d="M861.9 539.3l-65.3-44.4"/>
        </g>
    </g>
</svg>
