<svg xmlns="http://www.w3.org/2000/svg" viewBox="0 0 1920 1920">
    <style>
        .st0{fill:#fff}.st1{fill:none;stroke:#231f20;stroke-width:50;stroke-linecap:round;stroke-linejoin:round;stroke-miterlimit:10}
    </style>
    <path class="st0" d="M429 1361.2l-9.9 1.2s-110.6-308.2-8.6-500.2c18.4-34.6 67.3-36.8 88.8-4 0 0 5.1-13.7 15.2-36.6 30.1-68.7 104.2-220.5 216.1-334.7 31.7-32.4 86-22.3 103.9 19.3 0 0 18.8-14.2 51-35.6 131.3-87.1 484.8-292.8 688-133.1 407 319.9-275 472.9-275 472.9 36.5 8.6 56.7 40.2 56.7 72 0 23.2-10.7 46.5-33.5 61.3-58.7 38-131.8 78.5-207.8 103.6-20.5 6.7-19.6 35.9 1.1 41.6 10.3 2.8 16 11.9 16 21.1 0 6.4-2.8 12.9-8.8 17.3-75.1 56.2-284.5 182.8-693.2 233.9z" id="Layer_3"/>
    <g id="STROKES">
        <g id="XMLID_1_">
            <path class="st1" d="M349 1641s8.5-115.7 80-279.8c104.8-240.3 344.8-584.5 891.5-821.9"/>
            <path class="st1" d="M419.1 1362.4s-110.6-308.2-8.6-500.2c18.4-34.6 67.3-36.8 88.8-4 0 0 5.1-13.7 15.2-36.6 30.1-68.7 104.2-220.5 216.1-334.7 31.7-32.4 86-22.3 103.9 19.3 0 0 18.8-14.2 51-35.6 131.3-87.1 484.8-292.8 688-133.1 407 319.9-275 472.9-275 472.9 36.5 8.6 56.7 40.2 56.7 72 0 23.2-10.7 46.5-33.5 61.3-58.7 38-131.8 78.5-207.8 103.6-20.5 6.7-19.6 35.9 1.1 41.6 10.3 2.8 16 11.9 16 21.1 0 6.4-2.8 12.9-8.8 17.3-75.2 56-284.7 182.6-693.3 233.8-3.2.5-6.5.9-9.8 1.3z"/>
        </g>
    </g>
</svg>
