<svg xmlns="http://www.w3.org/2000/svg" viewBox="0 0 1920 1920">
    <style>
        .st0{fill:#fff}.st1{fill:none;stroke:#231f20;stroke-width:50;stroke-linecap:round;stroke-linejoin:round;stroke-miterlimit:10}
    </style>
    <path class="st0" d="M462.7 1484.1s-228.3-245.9-41.1-487.5l51.3 111.7V884.9l217.4-259.7 75.5 169.1V564.9l271.3-181.6 17.4 139.3 66.4-193.2 160-69.8c156.5-22.5 296.6 98.9 296.6 256.9L1466.3 586l75.5 9.1L1257.9 960l-175.1 30.6 157 39.2-157 226.4-254.8 51.5 220.4 36.2s-42.2 181.1-585.7 140.2z" id="Layer_2"/>
    <g id="STROKES">
        <g id="XMLID_1_">
            <path class="st1" d="M409.5 1703.1s-14.1-68.5 53.2-218.9c85.4-191.1 302.1-514.3 845.7-997.2"/>
            <path class="st1" d="M462.7 1484.1s-228.3-245.9-41.1-487.5l51.3 111.7V884.9l217.4-259.7 75.5 169.1V564.9l271.3-181.6 17.4 139.3 66.4-193.2 160-69.8c156.5-22.5 296.6 98.9 296.6 256.9L1466.3 586l75.5 9.1L1257.9 960l-175.1 30.6 157 39.2-157 226.4-254.8 51.5 220.4 36.2s-42.2 181.1-585.7 140.2z"/>
        </g>
    </g>
</svg>
