<svg xmlns="http://www.w3.org/2000/svg" viewBox="0 0 1920 1920">
    <style>
        .st0{fill:#fff}.st1{fill:none;stroke:#231f20;stroke-width:50;stroke-linecap:round;stroke-linejoin:round;stroke-miterlimit:10}
    </style>
    <path class="st0" d="M1699.7 682.6v739.7H220.3V682.6l184.9-184.9 184.9 184.9 185-184.9L960 682.6l184.9-184.9 185 184.9 184.9-184.9z" id="Layer_4"/>
    <g id="STROKES">
        <g id="XMLID_1_">
            <path class="st1" d="M405.2 867.5l-184.9 185 184.9 184.9"/>
            <path class="st1" d="M405.2 1237.4l185 184.9 184.9-184.9"/>
            <path class="st1" d="M590.2 1052.5l-129.6 129.6"/>
            <path class="st1" d="M405.2 867.5l185 185"/>
            <path class="st1" d="M960 682.6L775.1 497.7 590.2 682.6l184.9 184.9"/>
            <path class="st1" d="M960 682.6L775.1 867.5"/>
            <path class="st1" d="M1144.9 1237.4l184.9 184.9 185-184.9"/>
            <path class="st1" d="M775.1 1237.4L960 1422.3l184.9-184.9"/>
            <path class="st1" d="M1144.9 867.5l184.9-184.9-184.9-184.9L960 682.6z"/>
            <path class="st1" d="M960 1052.5l184.9 184.9 184.9-184.9-184.9-185z"/>
            <path class="st1" d="M775.1 867.5l-184.9 185 184.9 184.9L960 1052.5z"/>
            <path class="st1" d="M1514.8 1237.4l184.9-184.9-184.9-185-185 185 129.6 129.6"/>
            <path class="st1" d="M1514.8 867.5l184.9-184.9-184.9-184.9-185 184.9z"/>
            <path class="st1" d="M590.2 682.6l-185-184.9-184.9 184.9 184.9 184.9z"/>
            <path class="st1" d="M220.3 682.6v739.7h1479.4V682.6"/>
            <path class="st1" d="M1699.7 1422.3l-184.9-184.9-55.4-55.3"/>
            <path class="st1" d="M220.3 1422.3l184.9-184.9 55.4-55.3"/>
            <path class="st1" d="M960 682.6v739.7"/>
        </g>
    </g>
</svg>
