<svg xmlns="http://www.w3.org/2000/svg" viewBox="0 0 1920 1920">
    <style>
        .st0{fill:#fff}.st1{fill:none;stroke:#231f20;stroke-width:50;stroke-linecap:round;stroke-linejoin:round;stroke-miterlimit:10}
    </style>
    <path class="st0" d="M1703.1 1214.2v133.1H1570v175.9h-133.1v-175.9h-138.6v175.9h-133.1v-175.9h-138.6v175.9H893.4v-175.9H754.9v175.9H621.8v-175.9H483.2v175.9H350.1v-175.9H216.9v-133.1H350V832.1H216.9V699H350V514.2l66.6-117.5 66.6 117.5V699h138.6V514.2l66.6-117.5L755 514.2V699h138.6V514.2L960 396.7l66.6 117.5V699h138.6V514.2l66.6-117.5 66.6 117.5V699H1437V514.2l66.6-117.5 66.6 117.5V699h133.1v133.1h-133.1v382.1h132.9zm-266.3 0V832.1h-138.6v382.1h138.6zm-271.7 0V832.1h-138.6v382.1h138.6zm-271.7 0V832.1H754.9v382.1h138.5zm-271.6 0V832.1H483.2v382.1h138.6z" id="Layer_2"/>
    <g id="STROKES">
        <g id="XMLID_1_">
            <path class="st1" d="M1703.1 832.1V699h-133.2V514.2l-66.5-117.5-66.6 117.5V699h-138.6V514.2l-66.5-117.5-66.6 117.5V699h-138.5V514.2L960 396.7l-66.6 117.5V699H754.9V514.2l-66.6-117.5-66.5 117.5V699H483.2V514.2l-66.6-117.5-66.5 117.5V699H216.9v133.1h133.2v382.1H216.9v133.2h133.2v175.9h133.1v-175.9h138.6v175.9h133.1v-175.9h138.5v175.9h133.2v-175.9h138.5v175.9h133.1v-175.9h138.6v175.9h133.1v-175.9h133.2v-133.2h-133.2V832.1z"/>
            <path class="st1" d="M483.2 832.1h138.6v382.1H483.2z"/>
            <path class="st1" d="M754.9 832.1h138.6v382.1H754.9z"/>
            <path class="st1" d="M1026.6 832.1h138.6v382.1h-138.6z"/>
            <path class="st1" d="M1298.2 832.1h138.6v382.1h-138.6z"/>
        </g>
    </g>
</svg>
