<svg xmlns="http://www.w3.org/2000/svg" viewBox="0 0 1920 1920">
    <style>
        .st0{fill:#fff}.st1{fill:none;stroke:#231f20;stroke-width:50;stroke-linecap:round;stroke-linejoin:round;stroke-miterlimit:10}
    </style>
    <path class="st0" d="M960 216.9c-145.2 0-264 118.8-264 264V1703h528V481c0-145.2-118.8-264.1-264-264.1zm157.6 346.2c0 69.9-57.2 127.1-127.1 127.1h-61c-69.9 0-127.1-57.2-127.1-127.1v-59c0-86.7 70.9-157.6 157.6-157.6 86.7 0 157.6 70.9 157.6 157.6v59z" id="Layer_2"/>
    <path class="st0" d="M990.5 690.2h-61c-69.9 0-127.1-57.2-127.1-127.1v-59c0-86.7 70.9-157.6 157.6-157.6 86.7 0 157.6 70.9 157.6 157.6v59c0 69.9-57.2 127.1-127.1 127.1z" id="Layer_5"/>
    <g id="STROKES">
        <path class="st1" d="M990.5 690.2h-61c-69.9 0-127.1-57.2-127.1-127.1v-59c0-86.7 70.9-157.6 157.6-157.6 86.7 0 157.6 70.9 157.6 157.6v59c0 69.9-57.2 127.1-127.1 127.1z"/>
        <path class="st1" d="M696 1703.1V481c0-145.2 118.8-264 264-264s264 118.8 264 264v1222.1"/>
        <path class="st1" d="M802.4 1070.2s25.3-38.3 157.6-38.3 157.6 38.3 157.6 38.3"/>
        <path class="st1" d="M1117.6 1266.1s-25.3 38.3-157.6 38.3-157.6-38.3-157.6-38.3"/>
        <path class="st1" d="M802.4 1168.2h315.2"/>
    </g>
</svg>
