<svg xmlns="http://www.w3.org/2000/svg" viewBox="0 0 1920 1920">
    <style>
        .st0{fill:#fff}.st1{fill:none;stroke:#231f20;stroke-width:50;stroke-linecap:round;stroke-linejoin:round;stroke-miterlimit:10}
    </style>
    <path class="st0" d="M1398.7 775.7c-59.8 0-108.7 48.9-108.7 108.7v-63.1c0-59.8-48.9-108.7-108.7-108.7-59.8 0-108.7 48.9-108.7 108.7v-75.4c0-59.8-48.9-108.7-108.7-108.7-59.8 0-108.7 48.9-108.7 108.7V324.7c0-59.8-48.9-108.7-108.7-108.7-59.8 0-108.7 48.9-108.7 108.7v642L612 932.3c-36-47.9-106.2-59.9-156-26.7-47.8 35.9-57.7 104.4-21.8 152.2l338.9 600.9c18.8 25 46.4 39.6 75.4 42.8 7.8.8 15.7.8 23.5 0h405c74.1 0 141.2-43.4 171.7-110.9l48.5-107.6c6.5-13.9 10.2-29.5 10.2-45.8V884.4c0-59.8-48.9-108.7-108.7-108.7z" id="Layer_4"/>
    <g id="STROKES">
        <path class="st1" d="M1398.7 775.7c-59.8 0-108.7 48.9-108.7 108.7v-63.1c0-59.8-48.9-108.7-108.7-108.7-59.8 0-108.7 48.9-108.7 108.7v-75.4c0-59.8-48.9-108.7-108.7-108.7-59.8 0-108.7 48.9-108.7 108.7V324.7c0-59.8-48.9-108.7-108.7-108.7-59.8 0-108.7 48.9-108.7 108.7v642L612 932.3c-36-47.9-106.2-59.9-156-26.7-47.8 35.9-57.7 104.4-21.8 152.2l338.9 600.9c18.8 25 46.4 39.6 75.4 42.8 7.8.8 15.7.8 23.5 0h405c74.1 0 141.2-43.4 171.7-110.9l48.5-107.6c6.5-13.9 10.2-29.5 10.2-45.8V884.4c0-59.8-48.9-108.7-108.7-108.7z"/>
        <path class="st1" d="M855.1 745.8v150.6"/>
        <path class="st1" d="M1072.5 821.3v154.6"/>
        <path class="st1" d="M1290 884.4v182.9"/>
    </g>
</svg>
