<svg id="Layer_1" xmlns="http://www.w3.org/2000/svg" viewBox="0 0 1920 1920">
    <style>
        .st0{fill:#fff}.st1{fill:none;stroke:#231f20;stroke-width:50;stroke-linecap:round;stroke-linejoin:round;stroke-miterlimit:10}
    </style>
    <path class="st0" d="M1703.3 846.2c0 29.2-11.9 55.8-31.2 75.1-19.3 19.3-45.9 31.3-75.2 31.3h-444.5c58.4.2 106.1 48 106.1 106.4 0 29.3-12 55.9-31.3 75.2-19.2 19.2-45.8 31.2-75.1 31.2h-99.2v.1h25.4c58.5 0 106.4 47.9 106.4 106.4 0 29.2-11.9 55.8-31.2 75.1s-45.9 31.3-75.2 31.3H1021c-1.5-.1-2.9-.1-4.4-.1v.1h4.4c56.5 2.3 102 49.3 102 106.3 0 29.3-12 55.9-31.2 75.2-19.3 19.3-45.9 31.3-75.1 31.3h-541c-16 0-31.1-3.6-44.8-10-65.1-29.4-118.6-76.4-155.8-134-37.2-57.6-58.1-125.7-58.1-197.1v-157.3c0-67.3 26.3-131.9 73.3-180l540.1-552.6c41.4-41.4 109.1-41.4 150.5 0 20.7 20.7 31 47.9 31 75.2 0 27.2-10.3 54.5-31 75.2L762.8 739.8h834.1c58.5 0 106.4 47.9 106.4 106.4z"/>
    <g id="STROKES">
        <g id="XMLID_1_">
            <path class="st1" d="M1016.6 1378.2c58.5 0 106.4 47.9 106.4 106.4 0 29.3-12 55.9-31.2 75.2-19.3 19.3-45.9 31.3-75.1 31.3H955"/>
            <path class="st1" d="M1078.4 1165.4c58.5 0 106.4 47.9 106.4 106.4 0 29.3-12 55.9-31.2 75.1-19.3 19.3-45.9 31.3-75.2 31.3H1053"/>
            <path class="st1" d="M727.3 1591H475.7c-16 0-31.2-3.6-44.8-10-65.1-29.4-118.6-76.4-155.8-134S217 1321.3 217 1249.9v-157.3c0-67.3 26.3-131.9 73.3-180L830.4 360c41.4-41.4 109.1-41.4 150.5 0 20.7 20.7 31 48 31 75.2 0 27.3-10.3 54.6-31 75.2L762.8 739.8h833.8c58.5 0 106.4 47.9 106.4 106.4 0 29.3-12 55.9-31.2 75.1-19.3 19.3-45.9 31.3-75.2 31.3h-444.5c58.5 0 106.4 47.9 106.4 106.4 0 29.3-12 55.9-31.3 75.2-19.3 19.3-45.9 31.2-75.1 31.2h-18.4"/>
            <path class="st1" d="M1152.2 952.6h-18.4"/>
            <path class="st1" d="M906.1 1165.4c-58.5 0-106.4-47.9-106.4-106.4 0-29.3 12-55.9 31.3-75.1 19.3-19.3 45.9-31.3 75.2-31.3h227.7"/>
            <path class="st1" d="M1133.8 1165.4h-80.9"/>
            <path class="st1" d="M825.3 1378.2c-58.5 0-106.4-47.9-106.4-106.4 0-29.3 12-55.9 31.3-75.2 19.3-19.3 45.9-31.3 75.1-31.3h227.8"/>
            <path class="st1" d="M1052.9 1378.2h-98"/>
            <path class="st1" d="M954.9 1591H727.3c-58.5 0-106.4-47.9-106.4-106.4 0-29.3 12-55.9 31.3-75.1 19.3-19.3 45.9-31.3 75.1-31.3H955"/>
        </g>
    </g>
</svg>
