<svg xmlns="http://www.w3.org/2000/svg" viewBox="0 0 1920 1920">
    <style>
        .st0{fill:#fff}.st1{fill:none;stroke:#231f20;stroke-width:50;stroke-linecap:round;stroke-linejoin:round;stroke-miterlimit:10}
    </style>
    <path class="st0" d="M1703.1 1546.6v156.5H216.9v-156.5h1486.2zM216.9 216.9v156.5H1703V216.9H216.9z" id="Layer_10"/>
    <path class="st0" d="M1605.6 373.4v1173.2H1477V977c0-207.7-168.3-376-376-376H819c-207.7 0-376 168.3-376 376v569.5H314.4V373.4h1291.2z" id="Layer_11"/>
    <path class="st0" d="M1477 977v569.5h-133.6v-544c0-150.5-122-272.5-272.5-272.5H849.1c-150.5 0-272.5 122-272.5 272.5v544H443V977c0-207.7 168.3-376 376-376h282c207.7 0 376 168.3 376 376z" id="Layer_12"/>
    <path class="st0" d="M982.6 912.4c16.3 45-92 214.7-92 214.7l-35.8-116.6c-68.5 61.3-37.8 272-37.8 272l-67.5-61.3c0 229 210.6 239.3 210.6 239.3 220.8 0 204.6-231.1 204.6-231.1l-69.5 49.1c24.5-18.4 42.9-187.2 42.9-187.2-12.3 60.3-83.8 95.2-83.8 95.2 24.2-146.3-70.4-272.4-71.7-274.1zm360.8 90.2v544H576.5v-544c0-150.5 122-272.5 272.5-272.5h221.9c150.5 0 272.5 122 272.5 272.5z" id="Layer_13"/>
    <path class="st0" d="M1164.6 1229.3s16.2 231.1-204.6 231.1c0 0-210.6-10.2-210.6-239.3l67.5 61.3s-30.8-210.6 37.8-272l35.8 116.6s108.4-169.7 92-214.7c1.3 1.7 95.9 127.8 71.6 274 0 0 71.6-34.9 83.8-95.2 0 0-18.4 168.8-42.9 187.2l69.6-49z" id="Layer_14"/>
    <g id="STROKES">
        <g id="XMLID_1_">
            <path class="st1" d="M1477 1546.6V977c0-207.7-168.3-376-376-376H819c-207.7 0-376 168.3-376 376v569.5"/>
            <path class="st1" d="M1343.4 1546.6v-544c0-150.5-122-272.5-272.5-272.5H849.1c-150.5 0-272.5 122-272.5 272.5v544"/>
            <path class="st1" d="M960 1460.4s-210.6-10.2-210.6-239.3l67.5 61.3s-30.8-210.6 37.8-272l35.8 116.6s108.4-169.7 92-214.7c1.3 1.7 95.9 127.8 71.6 274 0 0 71.6-34.9 83.8-95.2 0 0-18.4 168.8-42.9 187.2l69.5-49.1c.1.1 16.3 231.2-204.5 231.2z"/>
            <path class="st1" d="M314.4 1546.6V373.4"/>
            <path class="st1" d="M1605.6 1546.6V373.4"/>
            <path class="st1" d="M314.4 373.4h-97.5V216.9h1486.2v156.5H958.6z"/>
            <path class="st1" d="M1605.6 1546.6h97.5v156.5H216.9v-156.5H1477z"/>
        </g>
    </g>
</svg>
