<svg xmlns="http://www.w3.org/2000/svg" viewBox="0 0 1920 1920">
    <style>
        .st0{fill:#fff}.st1{fill:none;stroke:#231f20;stroke-width:50;stroke-linecap:round;stroke-linejoin:round;stroke-miterlimit:10}
    </style>
    <path class="st0" d="M1449.1 1308.8c66.3 0 120 53.7 120 120s-53.7 120-120 120-120-53.7-120-120c0-66.2 53.7-120 120-120zm-1049.7 120c0 66.3 53.7 120 120 120s120-53.7 120-120-53.7-120-120-120-120 53.8-120 120z" id="Layer_2"/>
    <path class="st0" d="M770 1352.8v76H639.4c0-66.3-53.7-120-120-120s-120 53.7-120 120H216.9V1045l199.9-112H770v419.8zm-90.3-141.2v-190.2H441.9l-134.6 72v118.1h372.4zM1610.2 933h-735v278.6h827.9V933h-92.9z" id="Layer_3"/>
    <path class="st0" d="M1703.1 1211.6v217.2h-133.9c0-66.3-53.7-120-120-120s-120 53.7-120 120h-454v-217.2h827.9z" id="Layer_4"/>
    <path class="st0" d="M875.2 1352.8H770V1009h105.2v202.6z" id="Layer_5"/>
    <path class="st0" d="M679.7 1021.4v190.2H307.3v-118.1l134.6-72.1z" id="Layer_6"/>
    <g id="STROKES">
        <g id="XMLID_1_">
            <path class="st1" d="M216.9 621h1486.2"/>
            <path class="st1" d="M1703.1 833H216.9"/>
            <path class="st1" d="M1329.1 1428.8H875.2V933h827.9v495.8h-134"/>
            <path class="st1" d="M399.4 1428.8H216.9V1045l200-112H770v495.8H639.4"/>
            <path class="st1" d="M679.7 1021.4H441.9l-134.6 72.1v118.1h372.4z"/>
            <path class="st1" d="M399.4 1428.8c0-66.3 53.7-120 120-120s120 53.7 120 120-53.7 120-120 120-120-53.7-120-120"/>
            <path class="st1" d="M1569.1 1428.8c0 66.3-53.7 120-120 120s-120-53.7-120-120 53.7-120 120-120 120 53.8 120 120z"/>
            <path class="st1" d="M402.7 621v212"/>
            <path class="st1" d="M588.5 621v212"/>
            <path class="st1" d="M774.2 621v212"/>
            <path class="st1" d="M960 621v212"/>
            <path class="st1" d="M1145.8 621v212"/>
            <path class="st1" d="M1331.5 621v212"/>
            <path class="st1" d="M1517.3 621v212"/>
            <path class="st1" d="M1703.1 621v212"/>
            <path class="st1" d="M216.9 621v212"/>
            <path class="st1" d="M770 1009h105.2"/>
            <path class="st1" d="M770 1352.8h105.2"/>
            <path class="st1" d="M1050.6 833v100"/>
            <path class="st1" d="M1610.2 833v100"/>
            <path class="st1" d="M875.2 1211.6h827.9"/>
        </g>
    </g>
</svg>
