<svg xmlns="http://www.w3.org/2000/svg" viewBox="0 0 1920 1920">
    <style>
        .st0{fill:#fff}.st1{fill:none;stroke:#231f20;stroke-width:50;stroke-linecap:round;stroke-linejoin:round;stroke-miterlimit:10}
    </style>
    <g id="Layer_5">
        <path class="st0" d="M1257.4 1511v165.2c0 14.8-12.1 26.9-26.9 26.9h-541c-14.8 0-26.9-12.1-26.9-26.9V1511c0-14.8 12.1-26.9 26.9-26.9h541c14.8-.1 26.9 12.1 26.9 26.9zm0-467.4v-39.9c0-27-22.1-49.1-49.1-49.1H1150V787.4H770v167.1h-58.3c-27 0-49.2 22.1-49.2 49.1v197.1c0 27 22.1 49.2 49.2 49.2H770V1484h380v-234h58.3c27 0 49.1-22.1 49.1-49.2v-157.2zM960 1212.9c-57.9 0-104.8-46.9-104.8-104.8s46.9-104.8 104.8-104.8 104.8 46.9 104.8 104.8-46.9 104.8-104.8 104.8zm190-644.5s1.2-147.2-125.5-184.9c-18.6-5.6-40-8.7-64.5-8.7s-45.9 3.2-64.5 8.7C768.8 421.2 770 568.4 770 568.4h380z"/>
        <path class="st0" d="M1257.4 595.3v165.1c0 14.8-12.1 26.9-26.9 26.9h-541c-14.8 0-26.9-12.1-26.9-26.9V595.3c0-14.8 12.1-26.9 26.9-26.9h541c14.8 0 26.9 12.1 26.9 26.9z"/>
    </g>
    <path class="st0" d="M1405.1 1062.5c11.7 11.7 18.9 27.8 18.9 45.6 0 35.6-28.9 64.5-64.6 64.5h-102v-129.1h102c17.9.1 34 7.3 45.7 19zm-549.9 45.6c0 57.8 46.9 104.8 104.8 104.8s104.8-46.9 104.8-104.8-46.9-104.8-104.8-104.8-104.8 47-104.8 104.8zm-294.7-64.5c-35.6 0-64.5 28.9-64.5 64.6 0 17.8 7.2 34 18.9 45.6 11.7 11.7 27.8 18.9 45.6 18.9h102v-129.1h-102zM960 216.9c-17.8 0-34 7.2-45.6 18.9-11.7 11.7-18.9 27.8-18.9 45.6v102c18.6-5.6 40-8.7 64.5-8.7s45.9 3.2 64.5 8.7v-102c0-35.5-28.8-64.5-64.5-64.5z" id="Layer_6"/>
    <g id="STROKES">
        <g id="XMLID_1_">
            <path class="st1" d="M1150 787.4h80.5c14.8 0 26.9-12.1 26.9-26.9V595.3c0-14.8-12.1-26.9-26.9-26.9H1150s1.2-147.2-125.5-184.9c-18.6-5.6-40-8.7-64.5-8.7s-45.9 3.2-64.5 8.7C768.8 421.2 770 568.4 770 568.4h-80.5c-14.8 0-26.9 12.1-26.9 26.9v165.1c0 14.8 12.1 26.9 26.9 26.9H770v167.1h-58.3c-27 0-49.2 22.1-49.2 49.1v197.1c0 27 22.1 49.2 49.2 49.2H770V1484h-80.5c-14.8 0-26.9 12.1-26.9 26.9v165.2c0 14.8 12.1 26.9 26.9 26.9h541.1c14.8 0 26.9-12.1 26.9-26.9V1511c0-14.8-12.1-26.9-26.9-26.9H1150V1250h58.3c27 0 49.1-22.1 49.1-49.2v-197.1c0-27-22.1-49.1-49.1-49.1H1150V787.4z"/>
            <path class="st1" d="M770 568.4h380"/>
            <path class="st1" d="M770 787.4h380"/>
            <path class="st1" d="M770 1484h380"/>
            <path class="st1" d="M1064.8 1108.1c0 57.8-46.9 104.8-104.8 104.8s-104.8-46.9-104.8-104.8 46.9-104.8 104.8-104.8 104.8 47 104.8 104.8z"/>
            <path class="st1" d="M1024.5 383.5v-102c0-35.6-28.9-64.5-64.5-64.5-17.8 0-34 7.2-45.6 18.9-11.7 11.7-18.9 27.8-18.9 45.6v102"/>
            <path class="st1" d="M1257.4 1172.7h102c35.7 0 64.6-28.9 64.6-64.5 0-17.8-7.2-34-18.9-45.6-11.7-11.7-27.8-18.9-45.6-18.9h-102"/>
            <path class="st1" d="M662.5 1043.6h-102c-35.6 0-64.5 28.9-64.5 64.6 0 17.8 7.2 34 18.9 45.6 11.7 11.7 27.8 18.9 45.6 18.9h102"/>
        </g>
    </g>
</svg>
