<svg xmlns="http://www.w3.org/2000/svg" viewBox="0 0 1920 1920">
    <style>
        .st0{fill:#fff}.st1{fill:none;stroke:#231f20;stroke-width:50;stroke-linecap:round;stroke-linejoin:round;stroke-miterlimit:10}
    </style>
    <path class="st0" d="M1703.1 1461.6v241.5H216.9v-241.5h1486.2zM216.9 216.9v241.5h1486.2V216.9H216.9z" id="Layer_2"/>
    <path class="st0" d="M1559.9 1294.4v167.2h-114.8v-167.2h114.8zm-228.9 0v167.2h114v-167.2h-114zm135.6-167.2H1331v167.2h228.8v-167.2h-93.2zm0-167.2v167.2h93.3V960h-93.3zm-136.3 0l-1.3.1c1.3 12.8 2 25.9 2 39.1v128h135.5V960h-136.2zm64.4-167.2h-126.1l-.1.1c32.7 48.8 54.1 105.8 60.6 167.2l1.3-.1H1560V792.8h-165.3zm-888.9 501.6v167.2H589v-167.2h-83.2zm-66.1 0h-79.5v167.2h145.6v-167.2h-66.1zm0-167.2v167.2H589v-167.2H439.7zm-79.6 0v167.2h79.5v-167.2h-79.5zM505.8 960H360.1v167.2H589v-128c0-13.2.7-26.2 2-39.1l-1.3-.1h-83.9zm0-167.2V960h83.9l1.3.1c6.4-61.5 27.9-118.4 60.6-167.2l-.2-.1H505.8zm-145.7 0V960h145.6V792.8H360.1zM805 625.6H360.1v167.2h291.2l.2.1c66.6-99.3 179.9-164.7 308.4-164.7v-2.6H805zm589.7 0v167.2h165.2V625.6h-165.2zm-173.7 0H960v2.6c128.6 0 241.9 65.4 308.4 164.7l.1-.1h126.1V625.6H1221zm0-167.2v167.2h338.9V458.4H1221zm-132 0v167.2h132V458.4h-132zm-284 0v167.2h284V458.4H805zm-216 0v167.2h216V458.4H589zm-228.9 0v167.2H589V458.4H360.1z" id="Layer_3"/>
    <path class="st0" d="M1163.6 960c-14.1 68.9-95.9 108.8-95.9 108.8 28.1-168.4-81.9-313.4-81.9-313.4 18.7 51.5-105.2 245.5-105.2 245.5l-41-133.3c-78.4 70.2-43.2 311-43.2 311l-77.2-70.2C719.2 1370.3 960 1382 960 1382c252.5 0 234-264.3 234-264.3l-79.5 56.1c27.7-20.6 48.7-210.2 49.1-213.8zm167.4 334.4v167.2H589V999.2c0-13.2.7-26.2 2-39.1 6.4-61.5 27.9-118.4 60.6-167.2 66.6-99.3 179.9-164.7 308.4-164.7s241.9 65.4 308.4 164.7c32.7 48.8 54.1 105.8 60.6 167.2 1.3 12.8 2 25.9 2 39.1v295.2z" id="Layer_4"/>
    <path class="st0" d="M1194 1117.9s18.5 264.3-234 264.3c0 0-240.8-11.7-240.8-273.6l77.2 70.2s-35.2-240.9 43.2-311l41 133.3s124-194.1 105.2-245.5c0 0 109.9 145 81.9 313.4 0 0 81.8-39.9 95.9-108.8-.4 3.5-21.3 193.1-49.1 214l79.5-56.3z" id="Layer_5"/>
    <g id="STROKES">
        <g id="XMLID_1_">
            <path class="st1" d="M360.1 458.4H216.9V216.9h1486.2v241.5h-143.2"/>
            <path class="st1" d="M1559.9 1461.6h143.2v241.5H216.9v-241.5h143.2"/>
            <path class="st1" d="M360.1 458.4v1003.2"/>
            <path class="st1" d="M1559.9 458.4v1003.2"/>
            <path class="st1" d="M1331 1461.6V999.2c0-13.2-.7-26.2-2-39.1-6.4-61.5-27.9-118.4-60.6-167.2-66.6-99.3-179.9-164.7-308.4-164.7s-241.9 65.4-308.4 164.7c-32.7 48.8-54.1 105.8-60.6 167.2-1.3 12.8-2 25.9-2 39.1v462.4"/>
            <path class="st1" d="M960 1382.2s-240.8-11.7-240.8-273.6l77.2 70.2s-35.2-240.9 43.2-311l41 133.3s124-194.1 105.2-245.5c0 0 109.9 145 81.9 313.4 0 0 81.8-39.9 95.9-108.8-.4 3.5-21.3 193.1-49.1 214l79.5-56.1c0-.2 18.5 264.1-234 264.1z"/>
            <path class="st1" d="M360.1 625.6h1199.8"/>
            <path class="st1" d="M360.1 458.4h1199.8"/>
            <path class="st1" d="M360.1 792.8h291.3"/>
            <path class="st1" d="M360.1 960h229.6"/>
            <path class="st1" d="M360.1 1127.2H589"/>
            <path class="st1" d="M360.1 1294.4H589"/>
            <path class="st1" d="M1559.9 792.8h-291.3"/>
            <path class="st1" d="M1559.9 960h-229.6"/>
            <path class="st1" d="M1559.9 1127.2H1331"/>
            <path class="st1" d="M1559.9 1294.4H1331"/>
            <path class="st1" d="M360.1 1461.6h1199.8"/>
            <path class="st1" d="M589 625.6V458.4"/>
            <path class="st1" d="M1394.7 792.8V625.6"/>
            <path class="st1" d="M439.7 1294.4v-167.2"/>
            <path class="st1" d="M505.8 1461.6v-167.2"/>
            <path class="st1" d="M1466.6 1127.2V960"/>
            <path class="st1" d="M505.8 960V792.8"/>
            <path class="st1" d="M805 625.6V458.4"/>
            <path class="st1" d="M1221 625.6V458.4"/>
            <path class="st1" d="M1089 625.6V458.4"/>
            <path class="st1" d="M1445.1 1461.6v-167.2"/>
        </g>
    </g>
</svg>
