<svg xmlns="http://www.w3.org/2000/svg" viewBox="0 0 1920 1920">
    <style>
        .st0{fill:#fff}.st1{fill:none;stroke:#231f20;stroke-width:50;stroke-linecap:round;stroke-linejoin:round;stroke-miterlimit:10}
    </style>
    <path class="st0" d="M1606.3 513.2h-516.7c20.7-90.2 95.4-162.4 190.9-186h134.9c95.5 23.5 170.2 95.8 190.9 186zm-390.4 368.1v530.5h132V957.2c-56.3 0-105.5-30.5-132-75.9zm132 75.9v454.7h132V881.3c-26.4 45.4-75.6 75.9-132 75.9zm67.5-705c0-19.5-17-35.3-38-35.3h-58.8c-21 0-38 15.8-38 35.3v75h134.9v-75zm85.4 552.1c0 28.1-7.6 54.4-20.8 77v530.5h132V804.3h-111.2zm-152.9 607.6h-272.5c-30.5 0-55.4 23.1-55.4 51.4v188.5c0 28.2 24.9 51.4 55.4 51.4h545.1c30.5 0 55.4-23.1 55.4-51.4v-188.5c0-28.2-24.9-51.4-55.4-51.4h-272.6zm-132-530.6c-13.2-22.6-20.8-48.9-20.8-77h-111.2v607.5h132V881.3zm132-229.8c84.4 0 152.8 68.4 152.8 152.8h119.7c30.5 0 55.4-23.1 55.4-51.4V564.5c0-28.2-24.9-51.4-55.4-51.4h-545.1c-30.5 0-55.4 23.1-55.4 51.4V753c0 28.2 24.9 51.4 55.4 51.4H1195c.1-84.4 68.5-152.9 152.9-152.9z" id="Layer_2"/>
    <path class="st0" d="M734.5 930.4c42.6-122 208.4-106.1 208.4-106.1-59.2 58.8-100.1 143.9-100.1 143.9-10.5 29.9-43.2 45.7-73.1 35.2-29.9-10.4-45.6-43.1-35.2-73zM613.8 435.8c-14.7-22.8-40.4-37.8-69.6-37.4-43.6.5-79.5 35.8-80.7 79.4-.5 18.5 5.2 35.6 15.1 49.5l-.1.1c11.5 7.2 16.6 18.3 16.6 29.4 0 18.4-14.1 36.4-36.6 35.6-25.4-1-58.8-5.2-102.5-14.6-10.9-4.4-23-6.5-35.6-5.7-41.4 2.6-74.6 36.5-76.3 78-1.9 46.7 35.3 85.1 81.6 85.1 4.3 0 8.6-.3 12.8-1h.1c3.1-.5 6.2-1.2 9.2-2 51.6-11.3 89.8-16.8 118.2-18.8 31.9-2.2 46.2 39.2 19.8 57.2-2.6 3.2-5.1 6.5-7.2 10.1-8 13.1-12.4 28.6-11.8 45.2 1.4 42.7 36.3 77.5 79 78.8 30.6.9 57.6-15 72.4-39.2 0 0 24.3-32.8 72.9-73.7 48.6-41 121.5-90.2 218.5-123 21.8-7.4 21.2-38.3-1-44.8-168.3-49.4-294.8-188.2-294.8-188.2z" id="Layer_3"/>
    <path class="st0" d="M1347.9 651.5c-84.4 0-152.8 68.4-152.8 152.8 0 28.1 7.6 54.4 20.8 77 26.5 45.4 75.7 75.8 132 75.8s105.5-30.5 132-75.8c13.2-22.6 20.8-48.9 20.8-77 .1-84.3-68.4-152.8-152.8-152.8z" id="Layer_4"/>
    <g id="STROKES">
        <g id="XMLID_1_">
            <path class="st1" d="M1612 1411.9V804.3h8.4c30.5 0 55.4-23.1 55.4-51.4V564.5c0-28.2-24.9-51.4-55.4-51.4h-14.2c-20.7-90.2-95.4-162.4-190.9-186v-75c0-19.5-17-35.3-38-35.3h-58.8c-21 0-38 15.8-38 35.3v75c-95.5 23.5-170.2 95.8-190.9 186h-14.2c-30.5 0-55.4 23.1-55.4 51.4V753c0 28.2 24.9 51.4 55.4 51.4h8.5v607.5h-8.5c-30.5 0-55.4 23.1-55.4 51.4v188.5c0 28.2 24.9 51.4 55.4 51.4h545.1c30.5 0 55.4-23.1 55.4-51.4v-188.5c0-28.2-24.9-51.4-55.4-51.4"/>
            <path class="st1" d="M1500.8 804.3c0 28.1-7.6 54.4-20.8 77-26.5 45.4-75.7 75.8-132 75.8s-105.5-30.5-132-75.8c-13.2-22.6-20.8-48.9-20.8-77 0-84.4 68.4-152.8 152.8-152.8 84.3 0 152.8 68.5 152.8 152.8z"/>
            <path class="st1" d="M1083.9 1411.9h536.6"/>
            <path class="st1" d="M1280.5 327.2h134.9"/>
            <path class="st1" d="M1089.6 513.2h516.7"/>
            <path class="st1" d="M1083.9 804.3h111.2"/>
            <path class="st1" d="M1500.8 804.3H1612"/>
            <path class="st1" d="M478.6 780.6c-8 13.1-12.4 28.6-11.8 45.2 1.4 42.7 36.3 77.5 79 78.8 30.6.9 57.6-15 72.4-39.2 0 0 24.3-32.8 72.9-73.7 48.6-41 121.5-90.2 218.5-123 21.8-7.4 21.2-38.3-1-44.8-168.3-49.2-294.8-188-294.8-188-14.7-22.8-40.4-37.8-69.6-37.4-43.6.5-79.5 35.8-80.7 79.4-.5 18.5 5.2 35.6 15.1 49.5l-.1.1c11.5 7.2 16.6 18.3 16.6 29.4 0 18.4-14.1 36.4-36.6 35.6-25.4-1-58.8-5.2-102.5-14.6-10.9-4.4-23-6.5-35.6-5.7-41.4 2.6-74.6 36.5-76.3 78-1.9 46.7 35.3 85.1 81.6 85.1 4.3 0 8.6-.3 12.8-1h.1c3.1-.5 6.2-1.2 9.2-2 51.6-11.3 89.8-16.8 118.2-18.8 31.9-2.2 46.2 39.2 19.8 57.2-2.6 3-5 6.3-7.2 9.9z"/>
            <path class="st1" d="M734.5 930.4c-10.5 29.9 5.3 62.6 35.2 73.1 29.9 10.5 62.6-5.3 73.1-35.2 0 0 40.9-85.1 100.1-143.9 0-.1-165.8-16-208.4 106z"/>
            <path class="st1" d="M1347.9 957.2v454.7"/>
            <path class="st1" d="M1215.9 878.2v533.7"/>
            <path class="st1" d="M1480 881.3v530.6"/>
        </g>
    </g>
</svg>
