<svg xmlns="http://www.w3.org/2000/svg" viewBox="0 0 1920 1920">
    <style>
        .st0{fill:#fff}.st1{fill:none;stroke:#231f20;stroke-width:50;stroke-linecap:round;stroke-linejoin:round;stroke-miterlimit:10}
    </style>
    <path class="st0" d="M1026.4 760.8h129.1v716.9h-391v-717h261.9zM960 336.1c-24.2 0-45.5 3-64.1 8.3-132.7 37.7-131.4 191-131.4 191h391s1.3-153.3-131.4-191c-18.6-5.2-39.9-8.3-64.1-8.3z" id="Layer_7"/>
    <path class="st0" d="M1266.1 1179.4v63.5c0 10.4-8.5 18.9-18.9 18.9h-72.8c-10.4 0-18.9-8.5-18.9-18.9V987.7c0-10.4 8.5-18.9 18.9-18.9h72.8c10.4 0 18.9 8.5 18.9 18.9v191.7zM745.6 968.8h-72.8c-10.4 0-18.9 8.5-18.9 18.9v255.2c0 10.4 8.5 18.9 18.9 18.9h72.8c10.4 0 18.9-8.5 18.9-18.9V987.7c0-10.4-8.5-18.9-18.9-18.9zm492.8-433.4H681.6c-15.2 0-27.7 12.5-27.7 27.7v170c0 15.2 12.5 27.7 27.7 27.7h556.8c15.2 0 27.7-12.5 27.7-27.7v-170c0-15.2-12.5-27.7-27.7-27.7z" id="Layer_8"/>
    <path class="st0" d="M1266.1 1505.4v170c0 15.2-12.5 27.7-27.7 27.7H681.6c-15.2 0-27.7-12.5-27.7-27.7v-170c0-15.2 12.5-27.7 27.7-27.7h556.8c15.2 0 27.7 12.4 27.7 27.7zm0-454.1v128.2h128.2v-128.2h-128.2zm-740.4 0v128.2h128.2v-128.2H525.7zm370.2-834.4v127.5c18.6-5.3 39.9-8.3 64.1-8.3s45.5 3 64.1 8.3V216.9H895.9z" id="Layer_9"/>
    <g id="STROKES">
        <g id="XMLID_1_">
            <path class="st1" d="M764.5 987.7v-227h-82.9c-15.2 0-27.7-12.5-27.7-27.7V563c0-15.2 12.5-27.7 27.7-27.7h82.9s-1.3-153.3 131.4-191c18.6-5.3 39.9-8.3 64.1-8.3s45.5 3 64.1 8.3c132.7 37.7 131.4 191 131.4 191h82.9c15.2 0 27.7 12.5 27.7 27.7v170c0 15.2-12.5 27.7-27.7 27.7h-82.9v227"/>
            <path class="st1" d="M1155.5 1243v234.7h82.9c15.2 0 27.7 12.5 27.7 27.7v170c0 15.2-12.5 27.7-27.7 27.7H681.6c-15.2 0-27.7-12.5-27.7-27.7v-170c0-15.2 12.5-27.7 27.7-27.7h82.9V1243"/>
            <path class="st1" d="M764.5 535.4h391"/>
            <path class="st1" d="M764.5 760.8h391"/>
            <path class="st1" d="M764.5 1477.7h391"/>
            <path class="st1" d="M893.6 760.8v709.1"/>
            <path class="st1" d="M1026.4 760.8v709.1"/>
            <path class="st1" d="M653.9 1051.3v-63.5c0-10.4 8.5-18.9 18.9-18.9h72.8c10.4 0 18.9 8.5 18.9 18.9V1243c0 10.4-8.5 18.9-18.9 18.9h-72.8c-10.4 0-18.9-8.5-18.9-18.9v-63.5"/>
            <path class="st1" d="M1266.1 1179.4v63.5c0 10.4-8.5 18.9-18.9 18.9h-72.8c-10.4 0-18.9-8.5-18.9-18.9V987.7c0-10.4 8.5-18.9 18.9-18.9h72.8c10.4 0 18.9 8.5 18.9 18.9v63.5"/>
            <path class="st1" d="M525.7 1051.3h128.2v128.2H525.7z"/>
            <path class="st1" d="M1266.1 1051.3h128.2v128.2h-128.2z"/>
            <path class="st1" d="M895.9 344.5V216.9h128.2v127.6"/>
        </g>
    </g>
</svg>
