<svg xmlns="http://www.w3.org/2000/svg" viewBox="0 0 1920 1920">
    <style>
        .st0{fill:#fff}.st1{fill:none;stroke:#231f20;stroke-width:50;stroke-linecap:round;stroke-linejoin:round;stroke-miterlimit:10}
    </style>
    <path class="st0" d="M1449.1 1423.4c66.3 0 120 53.7 120 120s-53.7 120-120 120-120-53.7-120-120 53.7-120 120-120zM382 1543.4c0 66.3 53.7 120 120 120s120-53.7 120-120-53.7-120-120-120-120 53.7-120 120z" id="Layer_13"/>
    <path class="st0" d="M1703.1 1423.4v120h-133.9c0-66.3-53.7-120-120-120h253.9zm-1486.2 120h165c0-66.3 53.7-120 120-120h-285v120zm838.8-120H502c66.3 0 120 53.7 120 120h707.1c0-66.3 53.7-120 120-120h-393.4z" id="Layer_14"/>
    <path class="st0" d="M216.9 1423.4v-368.9L423 916h375.6v507.4H216.9zm448.1-173v-244H468l-164.9 110.9v133.1H665z" id="Layer_15"/>
    <path class="st0" d="M798.6 916h257.1v507.4H798.6z" id="Layer_16"/>
    <path class="st0" d="M1703.1 1209.3v214.1h-558.6v-214.1h506.7z" id="Layer_17"/>
    <path class="st0" d="M1651.2 1035.7v173.6H1248v-173.6h313.1z" id="Layer_18"/>
    <path class="st0" d="M665 1006.4v244H303.2v-133.1L468 1006.4z" id="Layer_19"/>
    <path class="st0" d="M441 797.5h88v118.4h-88z" id="Layer_20"/>
    <g id="STROKES">
        <g id="XMLID_1_">
            <path class="st1" d="M782.3 1543.4H622"/>
            <path class="st1" d="M782.3 1543.4h546.8"/>
            <path class="st1" d="M382 1543.4H216.9v-488.9L423 916h18"/>
            <path class="st1" d="M657 256.6l90.5 32.1L909.3 346l161.9 57.4 161.8 57.3 161.8 57.3 155.5 55.1 152.8 54.1-83.3 229.4-58.7-20.8-92.3-32.7-155.5-55.1-5.3-1.9-156.5-55.4-161.8-57.4L827.8 576 666 518.7l-90.5-32.1"/>
            <path class="st1" d="M1569.1 1543.4c0 66.3-53.7 120-120 120s-120-53.7-120-120 53.7-120 120-120 120 53.7 120 120z"/>
            <path class="st1" d="M622 1543.4c0 66.3-53.7 120-120 120s-120-53.7-120-120 53.7-120 120-120 120 53.7 120 120z"/>
            <path class="st1" d="M747.5 288.7l-81.5 230"/>
            <path class="st1" d="M1070.8 404.4l-81.1 228.9-.4 1.1"/>
            <path class="st1" d="M909.3 346l-81.5 230"/>
            <path class="st1" d="M1233 460.7l-81.5 230"/>
            <path class="st1" d="M1550.3 573.1l-81.5 230"/>
            <path class="st1" d="M1394.1 520.1L1313.3 748"/>
            <path class="st1" d="M441 797.5h88v118.4h-88z"/>
            <path class="st1" d="M303.2 1117.3L468 1006.4h197v244H303.2z"/>
            <path class="st1" d="M529 916h269.6v507.4"/>
            <path class="st1" d="M798.6 916h257.1v507.4"/>
            <path class="st1" d="M1308 746.1v289.6"/>
            <path class="st1" d="M1144.5 1423.4H216.9"/>
            <path class="st1" d="M1569.1 1543.4h134v-120"/>
            <path class="st1" d="M1561.1 835.8v199.9"/>
            <path class="st1" d="M1248 1209.3v-173.6h403.2v173.6"/>
            <path class="st1" d="M1703.1 1423.4h-558.6v-214.1h558.6z"/>
        </g>
    </g>
</svg>
