<svg xmlns="http://www.w3.org/2000/svg" viewBox="0 0 1920 1920">
    <style>
        .st0{fill:#fff}.st1{fill:none;stroke:#231f20;stroke-width:50;stroke-linecap:round;stroke-linejoin:round;stroke-miterlimit:10}
    </style>
    <path class="st0" d="M1532.1 1647.9v55.2H387.9v-55.2c0-55.9 45.4-101.3 101.3-101.3h941.6c55.9 0 101.3 45.3 101.3 101.3zM1265.9 573.6h-878v55.2c0 56 45.4 101.3 101.3 101.3h941.7c55.9 0 101.3-45.3 101.3-101.3v-55.2h-266.3zM603.4 216.9v156.5h713.3V216.9H603.4z" id="Layer_6"/>
    <path class="st0" d="M1363.4 730.1v816.5h-138.9V869h-529v677.6H556.6V730.1h806.8zM654.1 373.4v200.2H1266V373.4H654.1z" id="Layer_7"/>
    <path class="st0" d="M979.9 988.2c14.4 39.6-81 189-81 189l-31.5-102.6c-60.4 54-33.3 239.5-33.3 239.5l-59.4-54c0 201.7 185.4 210.7 185.4 210.7 194.4 0 180.1-203.5 180.1-203.5l-61.2 43.2c21.6-16.2 37.8-164.8 37.8-164.8-10.8 53.1-73.8 83.8-73.8 83.8 21.4-128.8-62-239.8-63.1-241.3zM1224.5 869v677.6h-529V869h529z" id="Layer_8"/>
    <path class="st0" d="M1140.1 1267.3s14.3 203.5-180.1 203.5c0 0-185.4-9-185.4-210.7l59.4 54s-27.1-185.5 33.3-239.5l31.5 102.6s95.4-149.4 81-189c1.2 1.5 84.5 112.5 63 241.2 0 0 63-30.7 73.8-83.8 0 0-16.2 148.6-37.8 164.8l61.3-43.1z" id="Layer_9"/>
    <g id="STROKES">
        <g id="XMLID_1_">
            <path class="st1" d="M1265.9 573.6h266.2v55.2c0 56-45.3 101.3-101.3 101.3H489.2c-55.9 0-101.3-45.3-101.3-101.3v-55.2h878z"/>
            <path class="st1" d="M1224.5 1546.6h206.3c55.9 0 101.3 45.4 101.3 101.3v55.2H387.9v-55.2c0-55.9 45.4-101.3 101.3-101.3h206.3"/>
            <path class="st1" d="M556.6 730.1v816.5"/>
            <path class="st1" d="M1363.4 730.1v816.5"/>
            <path class="st1" d="M695.5 869h529v677.6h-529z"/>
            <path class="st1" d="M960 1470.7s-185.4-9-185.4-210.7l59.4 54s-27.1-185.5 33.3-239.5l31.5 102.6s95.4-149.4 81-189c1.2 1.5 84.5 112.5 63 241.2 0 0 63-30.7 73.8-83.8 0 0-16.2 148.6-37.8 164.8l61.2-43.2c.1.2 14.4 203.6-180 203.6z"/>
            <path class="st1" d="M654.1 373.4v200.2"/>
            <path class="st1" d="M1265.9 373.4v200.2"/>
            <path class="st1" d="M654.1 373.4h-50.7V216.9h713.2v156.5h-50.7z"/>
        </g>
    </g>
</svg>
