<svg xmlns="http://www.w3.org/2000/svg" viewBox="0 0 1920 1920">
    <style>
        .st0{fill:#fff}.st1{fill:none;stroke:#231f20;stroke-width:50;stroke-linecap:round;stroke-linejoin:round;stroke-miterlimit:10}
    </style>
    <path class="st0" d="M1036.8 1236.5c-7 103.1-.9 211 26.4 317.7-143 99-304.8 121-304.8 121L906.5 1363l-162.3 33.5c-42.2-575 286-1042.3 286-1042.3 84.9 53.4 157.4 131.4 200.6 244.2 0-.1-170.6 291.4-194 638.1zM290 802.4v492.4l136.1-160.1 88.1 72.1c8-264.2 87.8-425 87.8-425-71.2 30.3-149.6 59-175.9 178.2L290 802.4z" id="Layer_4"/>
    <g id="Layer_5">
        <path class="st0" d="M1392.6 1265.7l-173.8 121.2c-39.9 71.7-96.1 126.1-155.5 167.2-27.4-106.6-33.4-214.6-26.4-317.7 71.2 60.1 183 94.1 355.7 29.3z"/>
        <path class="st0" d="M1615.1 1022.6l-44 60.1 44 28-222.5 155.1c-172.7 64.8-284.5 30.8-355.8-29.3 23.4-346.7 194-638.2 194-638.2 176.1 460.3 384.3 424.3 384.3 424.3zm-292.3-62c0-28.8-23.3-52-52-52s-52 23.3-52 52 23.3 52 52 52 52-23.3 52-52z"/>
        <path class="st0" d="M1030.2 354S702 821.3 744.2 1396.3L402.1 1467l112.1-260.2c8-264.2 87.8-425 87.8-425 69.7-29.6 132.4-60.7 132.4-179.5 0-240.2-344.3-344.3-344.3-344.3s378.7-68.4 640.1 96z"/>
    </g>
    <path class="st0" d="M1270.8 908.5c28.7 0 52 23.3 52 52s-23.3 52-52 52-52-23.3-52-52 23.3-52 52-52z" id="Layer_6"/>
    <g id="STROKES">
        <path class="st1" d="M1063.2 1554.1c59.4-41.1 115.6-95.6 155.5-167.2l173.8-121.2 222.5-155.1-44-28 44-60.1s-208.2 36-384.3-424.3C1187.5 485.4 1115 407.4 1030.1 354c-261.3-164.4-640-96-640-96s344.3 104.1 344.3 344.3c0 118.8-62.7 149.9-132.4 179.5-71.2 30.3-149.6 59-175.9 178.2L290 802.4v492.4l136.1-160.1 88.1 72.1L402.1 1467l342.1-70.6 162.3-33.5-148.1 312.2s161.8-21.9 304.8-121"/>
        <path class="st1" d="M602 781.8s-79.8 160.8-87.8 425"/>
        <path class="st1" d="M1030.2 354S702 821.3 744.2 1396.3"/>
        <path class="st1" d="M1230.8 598.3s-170.5 291.5-194 638.2c-7 103.1-.9 211 26.4 317.7"/>
        <path class="st1" d="M918.5 1030.6s23.3 126 118.3 205.8c71.3 60 183.1 94.1 355.8 29.3"/>
        <path class="st1" d="M1322.8 960.6c0 28.7-23.3 52-52 52s-52-23.3-52-52c0-28.8 23.3-52 52-52s52 23.2 52 52z"/>
    </g>
</svg>
