<svg xmlns="http://www.w3.org/2000/svg" viewBox="0 0 1920 1920">
    <style>
        .st0{fill:#fff}.st1{fill:none;stroke:#231f20;stroke-width:50;stroke-linecap:round;stroke-linejoin:round;stroke-miterlimit:10}
    </style>
    <path class="st0" d="M1703.1 1396.1v116l-222.2-129.5C1394 1489.2 1171 1651.8 925 1651.8c-141.2 0-256.5-24.7-349.3-60.2l.3-.8s185.1-135.7 185.1-387.5-185.2-360.7-185.2-360.7c14.5-6 29.5-11.6 45-16.7 54.6-18 115.2-29.9 182.1-32.7 10.1-.4 20.3-.6 30.7-.6l273.7-159.2v193.2s282.7 96.2 384.6 273.1l211.1-155.8v452.2z" id="Layer_2"/>
    <path class="st0" d="M575.9 842.6S761 951.5 761 1203.3s-185.1 387.5-185.1 387.5l-.3.8C336.2 1499.9 246 1335.9 246 1335.9l108.2-49.7-137.3-109.4c0 .1 107.9-230.1 359-334.2zm-67.3 259c0-24.8-20.1-45-45-45s-45 20.1-45 45c0 24.8 20.1 45 45 45s45-20.2 45-45z" id="Layer_3"/>
    <path class="st0" d="M375.2 268.1c55.7 0 100.9 45.2 100.9 100.9S431 469.9 375.2 469.9 274.4 424.7 274.4 369s45.1-100.9 100.8-100.9zm314.5 277.3C607.5 545.4 541 611.9 541 694c0 57.3 32.4 107 79.9 131.9 54.6-18 115.2-29.9 182.1-32.7l-.1-2.8c22.1-26 35.5-59.6 35.5-96.4-.1-82.1-66.6-148.6-148.7-148.6zm-472.8 198c0 38.9 31.6 70.5 70.5 70.5s70.5-31.6 70.5-70.5c0-39-31.6-70.5-70.5-70.5s-70.5 31.5-70.5 70.5z" id="Layer_11"/>
    <path class="st0" d="M463.6 1056.6c24.8 0 45 20.1 45 45 0 24.8-20.1 45-45 45s-45-20.1-45-45c.1-24.8 20.2-45 45-45z" id="Layer_12"/>
    <g id="STROKES">
        <path class="st1" d="M418.7 1101.6c0 24.8 20.1 45 45 45s45-20.1 45-45c0-24.8-20.1-45-45-45s-45 20.2-45 45z"/>
        <path class="st1" d="M1703.1 1081.2V943.8L1492 1099.6c-101.9-176.9-384.6-273.1-384.6-273.1V633.3L833.7 792.5c-10.4 0-20.6.2-30.7.6-66.9 2.8-127.5 14.7-182.1 32.7-15.5 5.1-30.5 10.7-45 16.7-251.1 104.1-359 334.3-359 334.3l137.3 109.4-108.2 49.7s90.2 164 329.6 255.7c92.8 35.6 208.1 60.2 349.3 60.2 246 0 469-162.6 555.9-269.2l222.2 129.5v-430.9z"/>
        <path class="st1" d="M575.9 842.6S761 951.5 761 1203.3s-185.1 387.5-185.1 387.5"/>
        <path class="st1" d="M855 1430.2l156.1 130.7 8.9-164.8"/>
        <path class="st1" d="M1505 1238.7h198.1"/>
        <path class="st1" d="M1573 1324.1l130.1 72"/>
        <path class="st1" d="M1703.1 1081.2l-130.1 72"/>
        <path class="st1" d="M476.1 369c0 55.7-45.1 100.9-100.9 100.9S274.4 424.7 274.4 369s45.1-100.9 100.9-100.9S476.1 313.3 476.1 369z"/>
        <path class="st1" d="M620.9 825.9C573.4 801.1 541 751.3 541 694c0-82.1 66.6-148.7 148.7-148.7S838.4 611.9 838.4 694c0 36.8-13.4 70.4-35.5 96.4"/>
        <path class="st1" d="M216.9 743.4c0 38.9 31.6 70.5 70.5 70.5s70.5-31.6 70.5-70.5c0-39-31.6-70.5-70.5-70.5s-70.5 31.5-70.5 70.5z"/>
    </g>
</svg>
