<svg xmlns="http://www.w3.org/2000/svg" viewBox="0 0 1920 1920">
    <style>
        .st0{fill:#fff}.st1{fill:none;stroke:#231f20;stroke-width:50;stroke-linecap:round;stroke-linejoin:round;stroke-miterlimit:10}
    </style>
    <path class="st0" d="M1590 1142.7c4.5-11 7-23.1 7-35.8 0-52.5-42.6-95-95.1-95-12.7 0-24.7 2.5-35.8 7L1353.3 906l-39.7 39.7 108.9 108.9c-9.9 15-15.7 32.9-15.7 52.2 0 30.1 14 56.9 35.8 74.3 16.2 13 36.8 20.7 59.2 20.7 19.3 0 37.3-5.8 52.3-15.6l109.1 109.1 39.7-39.7-112.9-112.9z" id="Layer_6"/>
    <g id="STROKES">
        <path class="st1" d="M1353.3 906l112.8 112.8c-17.9 7.3-33.1 19.9-43.6 35.8l-108.9-108.9 39.7-39.7z"/>
        <path class="st1" d="M1703.1 1255.7l-39.7 39.7-109.1-109.1c16-10.5 28.5-25.7 35.8-43.6l113 113z"/>
        <path class="st1" d="M1597 1106.9c0 12.7-2.5 24.7-7 35.8-7.3 17.9-19.9 33.1-35.8 43.6-15 9.9-33 15.7-52.3 15.7-52.5 0-95.1-42.6-95.1-95.1 0-19.3 5.8-37.3 15.7-52.3 10.5-16 25.7-28.5 43.6-35.8 11-4.5 23.1-7 35.8-7 52.5 0 95.1 42.6 95.1 95.1z"/>
        <path class="st1" d="M1501.9 1106.9l-95 119.3h-64.7"/>
        <path class="st1" d="M1353.3 906S839.8 329.1 216.9 629.4"/>
        <path class="st1" d="M309.8 590.7l19.8 28.1"/>
        <path class="st1" d="M709 552l-7 40.3"/>
    </g>
</svg>
