<svg xmlns="http://www.w3.org/2000/svg" viewBox="0 0 1920 1920">
    <style>
        .st0{fill:#fff}.st1{fill:none;stroke:#231f20;stroke-width:50;stroke-linecap:round;stroke-linejoin:round;stroke-miterlimit:10}
    </style>
    <path class="st0" d="M483.1 542.6c716.1-358.7 906.3 114 907.4 116.7-36.1-21-74-40-113.5-55.7-67.9-26.9-140.1-43.8-214.5-43.8-170.4 0-314.2 69.1-419.3 143.1l-.7-1-159.4-159.3z" id="Layer_7"/>
    <path class="st0" d="M1065.8 1383.2C967 1553 749.5 1505.7 749.5 1505.7c-14.6-73.1-5.1-140.4 15-198.3-181.3-94.7-312-248.1-312-248.1L216.9 1154V785.8l235.6 93.7S522.2 788 643.1 703c105.1-74 248.9-143.1 419.3-143.1 74.4 0 146.6 16.9 214.5 43.8 0 0-91.7 191.9-91.7 326 0 133.6 90.9 396.7 91.6 398.8-67.4 29.3-138.6 49.8-211 54.7z" id="Layer_8"/>
    <path class="st0" d="M1671.2 886.9c43.4 45.7 42.3 117.6-2.4 162-82.5 81.9-226.1 207.5-391.9 279.5-.7-2.1-91.6-265.2-91.6-398.8 0-134.1 91.7-326 91.7-326 39.4 15.6 77.4 34.6 113.5 55.7 119.6 69.7 218.4 161.9 280.7 227.6zm-222.8 4.9c0-24.8-20.1-45-45-45s-45 20.1-45 45c0 24.8 20.1 45 45 45s45-20.2 45-45z" id="Layer_9"/>
    <circle class="st0" cx="1403.4" cy="891.8" r="45" id="Layer_10"/>
    <g id="STROKES">
        <path class="st1" d="M1390.5 659.3c119.6 69.8 218.4 161.9 280.7 227.6 43.4 45.7 42.3 117.6-2.4 162-82.5 81.9-226.1 207.5-391.9 279.5-67.6 29.4-138.8 49.8-211.1 54.8"/>
        <path class="st1" d="M764.5 1307.4c-181.3-94.7-312-248.1-312-248.1L216.9 1154V785.8l235.6 93.7S522.2 788 643.1 703c105.1-74 248.9-143.1 419.3-143.1 74.4 0 146.6 16.9 214.5 43.8 39.4 15.6 77.4 34.6 113.5 55.7"/>
        <circle class="st1" cx="1403.4" cy="891.8" r="45"/>
        <path class="st1" d="M902.1 1098.9s-93.8 81.8-137.6 208.5c-20 57.9-29.6 125.2-15 198.3 0 0 217.5 47.3 316.3-122.5 29.1-49.9 47.8-118.6 47.8-212.8"/>
        <path class="st1" d="M1390.5 659.3c-1.1-2.7-191.3-475.4-907.4-116.7L642.5 702"/>
        <path class="st1" d="M1277 603.6s-91.7 191.9-91.7 326c0 133.6 90.9 396.7 91.6 398.8"/>
    </g>
</svg>
