<svg xmlns="http://www.w3.org/2000/svg" viewBox="0 0 1920 1920">
    <style>
        .st0{fill:#fff}.st1{fill:none;stroke:#231f20;stroke-width:50;stroke-linecap:round;stroke-linejoin:round;stroke-miterlimit:10}
    </style>
    <path class="st0" d="M1258.9 1517.5c13.3-13.3 13.3-34.9 0-48.2l-22-22c-13.3-13.3-34.9-13.3-48.3 0l-22 22c-13.3 13.3-13.3 34.9 0 48.2l22 22c13.3 13.3 34.9 13.3 48.3 0l2.2-2.2 57.8 57.8 27.5-27.5-57.8-57.8-7.7 7.7zm-8-290.6l-12 12-31.7 31.7 146.8 146.8 285.7 285.7 43.7-43.7-432.5-432.5z" id="Layer_4"/>
    <g id="STROKES">
        <path transform="rotate(45.001 1445.35 1464.946)" class="st1" d="M1139.5 1434.1h611.6v61.8h-611.6z"/>
        <path class="st1" d="M1238.9 1238.9l-1022-1022"/>
        <path class="st1" d="M318.1 318.1l-14.7 14.7"/>
        <path class="st1" d="M674.9 674.9l-41.6 41.7"/>
        <path class="st1" d="M1188.7 1539.5l-22-22c-13.3-13.3-13.3-34.9 0-48.3l22-22c13.3-13.3 34.9-13.3 48.3 0l22 22c13.3 13.3 13.3 34.9 0 48.3l-22 22c-13.4 13.3-35 13.3-48.3 0z"/>
        <path transform="rotate(45.001 1281.735 1552.473)" class="st1" d="M1240.8 1533.1h81.7v38.9h-81.7z"/>
        <path class="st1" d="M1324.3 1567.6l29.7-150.3"/>
    </g>
</svg>
