<svg xmlns="http://www.w3.org/2000/svg" viewBox="0 0 1920 1920">
    <style>
        .st0{fill:#fff}.st1{fill:none;stroke:#231f20;stroke-width:50;stroke-linecap:round;stroke-linejoin:round;stroke-miterlimit:10}
    </style>
    <path class="st0" d="M1419.9 497.2c-86.5-86.5-191.5-143.7-313.5-143.7-381 0-501.4 300.4-501.4 300.4 74.6 2 150.3-1.8 207.6-6.3 2-31.5 28.2-56.4 60.2-56.4 33.3 0 60.4 27 60.4 60.4 0 33.3-27 60.4-60.4 60.4-11.6 0-22.4-3.3-31.6-8.9-30.8 37.2-62.7 84.2-91.5 129.9-27.5 43.6-52 86-69.6 117.5-17.6 31.5-28.4 52.1-28.4 52.1.1 0 144.1 53.4 384.1-52.3 127.9-56.3 210.2-25.6 259.4 23.6 43.2 43.2 61 100.6 62.1 126.3.2 5.9.5 15.3.5 27.6 0 101.8-19.8 402.2-251.5 575.3h502s94.7-255.2 94.7-523.8c.1-182.6-99.6-498.5-283.1-682.1z" id="Layer_2"/>
    <path class="st0" d="M872.8 591.2c-32 0-58.2 24.9-60.2 56.4-.1 1.3-.1 2.7-.1 4 0 21.8 11.5 40.8 28.8 51.5 9.2 5.7 20 8.9 31.6 8.9 33.3 0 60.4-27 60.4-60.4-.1-33.3-27.1-60.4-60.5-60.4z" id="Layer_4"/>
    <path class="st0" d="M812.4 651.6c0-1.3 0-2.7.1-4-57.4 4.4-133 8.3-207.6 6.3 0 0-380.5 215.4-380.5 337.4 0 0-2.7 32.3-4.9 81.8l66.2 66.3 135.9 136.2c69.9-125 155.4-248.9 230.2-273 0 0 10.8-20.6 28.4-52.1 17.6-31.5 42.1-73.9 69.6-117.5 28.7-45.6 60.7-92.6 91.5-129.9-17.3-10.6-28.9-29.7-28.9-51.5z" id="Layer_5"/>
    <path class="st0" d="M285.8 1139.4l-66.2-66.3c-6 137.1-7.9 406.3 62.9 489.2 0 0 59.4-144.2 139.1-286.7l-135.8-136.2z" id="Layer_6"/>
    <g id="STROKES">
        <path class="st1" d="M841.2 703.1c-89.6 108.5-189.4 299.5-189.4 299.5-159.9 51.7-369.2 559.7-369.2 559.7-96.4-112.9-58-571-58-571 0-122 380.5-337.4 380.5-337.4 74.6 2.1 150.3-1.8 207.6-6.3-.1 1.3-.1 2.7-.1 4-.2 21.8 11.4 40.9 28.6 51.5z"/>
        <path class="st1" d="M1608.4 1703.1s94.7-255.2 94.7-523.8-215.8-825.7-596.7-825.7-501.5 300.3-501.5 300.3"/>
        <path class="st1" d="M651.8 1002.6s144.1 53.4 384.1-52.3 319.3 95.1 321.5 149.9 8.8 408.9-251 602.9"/>
        <path class="st1" d="M933.2 651.6c0 33.4-27 60.4-60.4 60.4-11.6 0-22.4-3.3-31.6-8.9-17.3-10.6-28.8-29.7-28.8-51.5 0-1.3 0-2.7.1-4 2.1-31.5 28.2-56.4 60.3-56.4 33.4 0 60.4 27.1 60.4 60.4z"/>
        <path class="st1" d="M282.5 1562.3s-95.6-577.1 180.2-669.6c66.3-22.2 287-59.8 287-59.8"/>
        <path class="st1" d="M219.6 1073.1l66.2 66.3 135.8 136.2"/>
    </g>
</svg>
