<svg xmlns="http://www.w3.org/2000/svg" viewBox="0 0 1920 1920">
    <style>
        .st0{fill:#fff}.st1{fill:none;stroke:#231f20;stroke-width:50;stroke-linecap:round;stroke-linejoin:round;stroke-miterlimit:10}
    </style>
    <path class="st0" d="M1463.5 837.9c-135.4-89.8-380.1-202.5-566.6-190.4-252.5 16.3-288.1 232.8-297 334-8.9 101.2-62.3 101.2-90.1 93.4-27.8-7.8-91.2-71.2 92.3-366s0-402.6 0-402.6c-53.7-96.2-138-94.2-180.9-85.5-16 3.2-30.5 11.7-41.1 24.1l-52.7 61.5C244.7 328.3 217 436 217 436c0 6.7.1 13.1.3 19.2l88.1 32.6 34.8-75.9c126.8 2.5 190.1-42.8 190.1-42.8 68.4 40.2 99.8 140.7-10.3 271.9s-164.6 322.6-169.1 368.2c-4.4 45.6 32.2 208 182.4 222.5s248-21.1 291.4-47.8c43.4-26.7 63.2-10 63.2-10 29.2 21.1 69.7 30.5 103 34.7 33.5 4.2 59.7 3.1 59.7 3.1 94 0 188.5-40.7 270-91.8 137.5-86.1 238.3-201.8 238.3-201.8-13.2-19.5-47.4-48.4-95.4-80.2z" id="Layer_9"/>
    <path class="st0" d="M1463.5 837.9c47.9 31.8 82.1 60.7 95.2 80.2 0 0-100.8 115.7-238.3 201.8 327.1-6.9 382.6-132.1 382.6-132.1-52.2-86.6-236.6-149-239.5-149.9z" id="Layer_10"/>
    <path class="st0" d="M217.2 455.2C221 580.8 262.1 582 262.1 582l43.2-94.2-88.1-32.6z" id="Layer_11"/>
    <g id="STROKES">
        <path class="st1" d="M322.3 307.9l61.2 20.6-43.4 83.4"/>
        <path class="st1" d="M305.3 487.8l-88.1-32.6"/>
        <path class="st1" d="M990.8 1208.6v494.5"/>
        <path class="st1" d="M1558.8 918.1s-100.8 115.7-238.3 201.8c-81.6 51.1-176 91.8-270 91.8 0 0-103.9 4.5-162.6-37.8 0 0-19.8-16.7-63.2 10-43.4 26.7-141.3 62.3-291.4 47.8-150.2-14.5-182.4-176.6-182.4-222.5 0-146.7 58.9-236.9 169.1-368.2s78.7-231.7 10.3-271.9c0 0-63.3 45.3-190.1 42.8l-78 170.1S217 580.6 217 436c0 0 27.7-107.7 110.5-129.7l52.7-61.5c10.6-12.4 25.1-20.8 41.1-24.1 42.9-8.6 127.2-10.6 180.9 85.5 0 0 183.5 107.9 0 402.6-183.5 294.8-120.1 358.2-92.3 366 27.8 7.8 81.2 7.8 90.1-93.4 8.9-101.2 44.5-317.7 297-334 186.5-12.1 431.2 100.7 566.6 190.4 47.8 31.9 82.1 60.8 95.2 80.3z"/>
        <path class="st1" d="M1703.1 987.8s-55.5 125.2-382.6 132.1c137.5-86.1 238.3-201.8 238.3-201.8-13.1-19.5-47.3-48.4-95.2-80.2 2.8.9 187.2 63.3 239.5 149.9z"/>
        <circle class="st1" cx="443.2" cy="299.5" r="5.2"/>
        <path class="st1" d="M1106.9 1208.6v494.5"/>
    </g>
</svg>
