<svg xmlns="http://www.w3.org/2000/svg" viewBox="0 0 1920 1920">
    <style>
        .st0{fill:#fff}.st1{fill:none;stroke:#231f20;stroke-width:50;stroke-linecap:round;stroke-linejoin:round;stroke-miterlimit:10}
    </style>
    <path class="st0" d="M1237.1 216.9V324l-2.9 6.4H685.8l-2.9-6.4V216.9z" id="Layer_2"/>
    <path class="st0" d="M1234.2 330.4l-131.6 292.3v413.9H817.3V622.7L685.8 330.4h548.4zm-217.5 504.4V650.9H903.3v183.8h113.4zm-199.4 201.8V1601h285.4v-564.4H817.3z" id="Layer_3"/>
    <path class="st0" d="M903.3 650.9h113.4v183.8H903.3z" id="Layer_4"/>
    <path class="st0" d="M903.3 1601h113.4v102.1H903.3z" id="Layer_5"/>
    <g id="STROKES">
        <path class="st1" d="M1237.1 324v6.4H682.9V216.9h554.2z"/>
        <path class="st1" d="M903.3 650.9h113.4v183.8H903.3z"/>
        <path class="st1" d="M1237.1 324l-2.9 6.4-131.5 292.3V1601H817.3V622.7L685.8 330.4l-2.9-6.4"/>
        <path class="st1" d="M817.3 1036.6h285.4"/>
        <path class="st1" d="M1016.7 1601v102.1H903.3V1601"/>
    </g>
</svg>
