<svg xmlns="http://www.w3.org/2000/svg" viewBox="0 0 1920 1920">
    <style>
        .st0{fill:#fff}.st1{fill:none;stroke:#231f20;stroke-width:50;stroke-linecap:round;stroke-linejoin:round;stroke-miterlimit:10}
    </style>
    <path class="st0" d="M1128 1077l-232.5 117.6-510.9 510.9-83.8-83.8-83.8-83.8L727.9 1027l117.6-232.5L1128 1077zm-463.1 232.5l121-120.9-52-52-60.5 60.5-60.5 60.5 52 51.9z" id="Layer_9"/>
    <path class="st0" d="M673.4 1197l60.5-60.5 52 52-121 121-52-52z" id="Layer_10"/>
    <path class="st0" d="M1210.9 994.2L1128 1077 845.4 794.4l82.9-82.8z" id="Layer_11"/>
    <g id="STROKES">
        <path class="st1" d="M1128 1077L845.4 794.4l82.9-82.8 282.6 282.6z"/>
        <path class="st1" d="M845.4 794.4l-117.6 232.5-510.9 510.9 83.9 83.8"/>
        <path class="st1" d="M1128 1077l-232.5 117.6-510.9 510.9-83.8-83.9"/>
        <path class="st1" d="M664.9 1309.5l-52-52 60.5-60.5 60.5-60.5 52 52z"/>
        <path class="st1" d="M673.4 1197l47.2 47.2"/>
        <path class="st1" d="M928.3 711.6V214.5"/>
        <path class="st1" d="M1210.9 994.2h492.2"/>
    </g>
</svg>
