<svg xmlns="http://www.w3.org/2000/svg" viewBox="0 0 1920 1920">
    <style>
        .st0{fill:#fff}.st1{fill:none;stroke:#231f20;stroke-width:50;stroke-linecap:round;stroke-linejoin:round;stroke-miterlimit:10}
    </style>
    <path class="st0" d="M999.9 543.1l377 377-291.4 110.5L413.1 1703 311 1601l-94.1-94.1 672.4-672.4 110.6-291.4zm-58.6 490.7c0-14.1-5.4-28.2-16.1-39-21.5-21.5-56.4-21.5-78 0l-5.5 5.5c-10.8 10.8-16.1 24.9-16.1 39s5.4 28.2 16.1 39c21.5 21.5 56.4 21.5 78 0l5.5-5.5c10.7-10.8 16.1-24.9 16.1-39z" id="Layer_6"/>
    <path class="st0" d="M1456.8 844.2l-73.6 73.5-6.3 2.4-377-377 2.4-6.3 73.5-73.6z" id="Layer_7"/>
    <path class="st0" d="M925.2 994.8c10.8 10.8 16.1 24.9 16.1 39 0 14.1-5.4 28.2-16.1 39l-5.5 5.5c-21.5 21.5-56.4 21.5-78 0-10.8-10.8-16.1-24.9-16.1-39s5.4-28.2 16.1-39l5.5-5.5c21.5-21.5 56.4-21.5 78 0z" id="Layer_8"/>
    <g id="STROKES">
        <path class="st1" d="M1383.2 917.7l-4.3 4.4-2-2-377-377-2-2 4.4-4.3 73.5-73.6 381 381z"/>
        <path class="st1" d="M841.7 1000.4l5.5-5.5c21.5-21.5 56.4-21.5 78 0 10.8 10.8 16.1 24.9 16.1 39 0 14.1-5.4 28.2-16.1 39l-5.5 5.5c-21.5 21.5-56.4 21.5-78 0-10.8-10.8-16.1-24.9-16.1-39s5.3-28.3 16.1-39z"/>
        <path class="st1" d="M1383.2 917.7l-6.3 2.4-291.4 110.5-672.4 672.5L311 1601l-94.1-94.1 672.5-672.4 110.5-291.4 2.4-6.3"/>
        <path class="st1" d="M1356.5 563.5l164.3-164.3"/>
        <path class="st1" d="M1433.9 654.4l269.2-68"/>
        <path class="st1" d="M1265.6 486.1l68-269.2"/>
        <path class="st1" d="M311 1601l396.7-396.7"/>
        <path class="st1" d="M1017.8 894.3L1183 729"/>
    </g>
</svg>
