<svg xmlns="http://www.w3.org/2000/svg" viewBox="0 0 1920 1920">
    <style>
        .st0{fill:#fff}.st1{fill:none;stroke:#231f20;stroke-width:50;stroke-linecap:round;stroke-linejoin:round;stroke-miterlimit:10}
    </style>
    <path class="st0" d="M1640 1062l63 63c0 92-326.1 100-326.1 100H205v-134.9s251.7 14.6 522.8 28.5c107.9 5.6 218.9 11 318.3 15.4 152.6 6.8 277.9 11.1 322.9 9.4 44.2-1.7 86.2-9.6 123.3-19.9 87.2-24.2 147.7-61.5 147.7-61.5z" id="Layer_8"/>
    <path class="st0" d="M1256.1 864.6s92.3 33.6 163.2 115c-205.3-67.9-373.2 154.5-373.2 154.5-99.4-4.4-210.4-9.9-318.3-15.4 0 0 52.4-244.2 528.3-254.1z" id="Layer_2"/>
    <g id="STROKES">
        <g id="XMLID_1_">
            <path class="st1" d="M727.8 1118.7c-271.1-14-522.8-28.5-522.8-28.5V1225h1172s326.1-8 326.1-100l-63-63s-60.5 37.4-147.7 61.6c-37.1 10.3-79.1 18.2-123.3 19.9-45 1.7-170.3-2.6-322.9-9.4-99.5-4.4-210.5-9.9-318.4-15.4z"/>
            <path class="st1" d="M727.8 1118.7s52.5-244.2 528.4-254.1c0 0 92.3 33.6 163.2 115 32.6 37.4 60.6 85 73 144"/>
            <path class="st1" d="M1046.1 1134.1s167.9-222.4 373.2-154.5c.1 0 .2.1.3.1"/>
        </g>
    </g>
</svg>
