<svg xmlns="http://www.w3.org/2000/svg" viewBox="0 0 1920 1920">
    <style>
        .st0{fill:#fff}.st1{fill:none;stroke:#231f20;stroke-width:50;stroke-linecap:round;stroke-linejoin:round;stroke-miterlimit:10}
    </style>
    <path class="st0" d="M1674.9 1076.4V1225h-575.6l-95.9-196.9c53 52.8 602.9 69.9 671.5 48.3zm-1140.5-56.7c-125.8 91.6-312 56.7-312 56.7V1225h391.3l-79.3-205.3z" id="Layer_1"/>
    <path class="st0" d="M611.9 843.3L759.3 1225H613.6l-79.2-205.3L493.2 913z" id="Layer_4"/>
    <path class="st0" d="M733.8 771.7l175 453.3H759.3L611.9 843.3z" id="Layer_5"/>
    <path class="st0" d="M1003.5 1028.1l95.9 196.9H908.8l-175-453.3 112.6-66.1 153 314.2c0 2.8 1.4 5.6 4.1 8.3z" id="Layer_6"/>
    <g id="STROKES">
        <g id="XMLID_1_">
            <path class="st1" d="M611.9 843.3L493.2 913l41.2 106.7 79.2 205.3h485.8l-95.9-196.9-4.1-8.4-152.9-314.1-112.7 66.1z"/>
            <path class="st1" d="M611.9 843.3L759.3 1225"/>
            <path class="st1" d="M733.8 771.7l175 453.3"/>
            <path class="st1" d="M999.4 1019.7c0 2.9 1.4 5.7 4.1 8.4 52.9 52.8 602.8 69.9 671.4 48.3V1225h-575.6"/>
            <path class="st1" d="M613.6 1225H222.3v-148.6s186.3 34.9 312-56.7"/>
        </g>
    </g>
</svg>
