<svg xmlns="http://www.w3.org/2000/svg" viewBox="0 0 1920 1920">
    <style>
        .st0{fill:#fff}.st1{fill:none;stroke:#231f20;stroke-width:50;stroke-linecap:round;stroke-linejoin:round;stroke-miterlimit:10}
    </style>
    <path class="st0" d="M1550.2 291.7c105.8 48.9 166.3 162.2 150.3 277.7l-56.4 406.1c-21.2 152.8-30.5 306.8-31.9 461-1 102.4-81.6 207.8-186.1 215.2-10.1.7-20.5 1.1-31.1 1.1h-74.2c-10.6 0-21-.4-31.1-1.1-104.5-7.4-185.1-112.8-186.1-215.2-1.4-154.2-10.7-308.2-31.9-461l-56.4-406.1c-16-115.5 44.4-228.8 150.3-277.7 34-15.7 71.9-24.5 111.8-24.5h160.9c40 0 77.9 8.8 111.9 24.5zm-905.4-24.5H484c-39.9 0-77.8 8.8-111.8 24.5-105.8 48.9-166.3 162.2-150.3 277.7l56.3 406.1c21.2 152.8 30.5 306.8 31.9 461 1 102.4 81.6 207.8 186.1 215.2 10.1.7 20.5 1.1 31.1 1.1h74.2c10.6 0 21-.4 31.1-1.1 104.5-7.4 185.1-112.8 186.1-215.2 1.4-154.2 10.7-308.2 31.9-461L907 569.4c16-115.5-44.5-228.8-150.3-277.7-34-15.7-71.9-24.5-111.9-24.5z" id="Layer_7"/>
    <g id="STROKES">
        <g id="XMLID_1_">
            <path class="st1" d="M601.5 1652.8c10.6 0 21-.4 31.1-1.1 104.5-7.4 185.1-112.8 186.1-215.2 1.4-154.2 10.7-308.2 31.9-461L907 569.4c16-115.5-44.5-228.8-150.3-277.7-34-15.7-71.9-24.5-111.8-24.5H484c-39.9 0-77.8 8.8-111.8 24.5-105.8 48.9-166.3 162.2-150.3 277.7l56.3 406.1c21.2 152.8 30.5 306.8 31.9 461 1 102.4 81.6 207.8 186.1 215.2 10.1.7 20.5 1.1 31.1 1.1h74.2z"/>
            <path class="st1" d="M564.4 435.8v119.6"/>
            <path class="st1" d="M564.4 555.4s-379.1-.7-101.6 629.9"/>
            <path class="st1" d="M564.4 555.4s379.1-.7 101.6 629.9"/>
            <path class="st1" d="M1395.1 1652.8c10.6 0 21-.4 31.1-1.1 104.5-7.4 185.1-112.8 186.1-215.2 1.4-154.2 10.7-308.2 31.9-461l56.4-406.1c16-115.5-44.4-228.8-150.3-277.7-34-15.7-71.9-24.5-111.8-24.5h-160.9c-39.9 0-77.8 8.8-111.8 24.5-105.8 48.9-166.3 162.2-150.3 277.7l56.4 406.1c21.2 152.8 30.5 306.8 31.9 461 1 102.4 81.6 207.8 186.1 215.2 10.1.7 20.5 1.1 31.1 1.1h74.1z"/>
            <path class="st1" d="M1357.9 435.8v119.6"/>
            <path class="st1" d="M1357.9 555.4s-379.1-.7-101.6 629.9"/>
            <path class="st1" d="M1357.9 555.4s379.1-.7 101.6 629.9"/>
        </g>
    </g>
</svg>
