<svg xmlns="http://www.w3.org/2000/svg" viewBox="0 0 1920 1920">
    <style>
        .st0{fill:#fff}.st1{fill:none;stroke:#231f20;stroke-width:50;stroke-linecap:round;stroke-linejoin:round;stroke-miterlimit:10}
    </style>
    <path class="st0" d="M1376.4 711.3h-211.1C1083.9 629.9 991.2 217 991.2 217h90c-.1-.1 174 494.3 295.2 494.3zM991.2 216.9H960v494.3h205.3c-81.4-81.3-174.1-494.3-174.1-494.3zm-62.4 0s-92.7 413-174.1 494.3H960V216.9h-31.2zM543.6 711.3h211.1C836.1 629.9 928.8 217 928.8 217h-90c.1-.1-174 494.3-295.2 494.3z" id="Layer_2"/>
    <path class="st0" d="M1018 981v256H902V981h58z" id="Layer_4"/>
    <path class="st0" d="M1066.2 1589.5c31.3 0 56.8 25.4 56.8 56.8 0 15.7-6.4 29.9-16.6 40.2-10.3 10.3-24.5 16.6-40.2 16.6H853.8c-31.3 0-56.8-25.4-56.8-56.8 0-15.7 6.4-29.9 16.6-40.2 10.3-10.3 24.5-16.6 40.2-16.6h212.4z" id="Layer_5"/>
    <g id="STROKES">
        <g id="XMLID_1_">
            <path class="st1" d="M1165.3 711.3h211.1c-121.1 0-295.2-494.3-295.2-494.3H838.8S664.7 711.3 543.6 711.3h621.7z"/>
            <path class="st1" d="M928.8 216.9s-92.7 413-174.1 494.3"/>
            <path class="st1" d="M991.2 216.9s92.7 413 174.1 494.3"/>
            <path class="st1" d="M960 981V216.9"/>
            <path class="st1" d="M1066.2 1703.1H853.8c-31.3 0-56.8-25.4-56.8-56.8 0-15.7 6.4-29.9 16.6-40.2 10.3-10.3 24.5-16.6 40.2-16.6h212.4c31.3 0 56.8 25.4 56.8 56.8 0 15.7-6.4 29.9-16.6 40.2-10.3 10.2-24.5 16.6-40.2 16.6z"/>
            <path class="st1" d="M960 981h58v256H902V981z"/>
            <path class="st1" d="M960 1237v352.5"/>
        </g>
    </g>
</svg>
