<svg xmlns="http://www.w3.org/2000/svg" viewBox="0 0 1920 1920">
    <style>
        .st0{fill:#fff}.st1{fill:none;stroke:#231f20;stroke-width:50;stroke-linecap:round;stroke-linejoin:round;stroke-miterlimit:10}
    </style>
    <path class="st0" d="M1100 820c-2.5-2.5-4.3-5.5-5.4-9-.7-2.1-16-53.2-9.6-126 1.3-14.2 3.3-28.4 6.1-42.3-7.8 11.6-16.1 22.8-25.1 33.6-46.8 56.3-93.8 82-95.8 83-3.2 1.7-6.7 2.6-10.3 2.6-3.5 0-7-.8-10.2-2.5-2-1.1-49-26.3-95.8-82.3-9.2-11-17.7-22.4-25.6-34.2 2.7 13.7 4.7 27.5 6 41.5 6.7 72.9-8.3 124.3-9 126.4-1 3.5-2.9 6.6-5.4 9.1-2.5 2.5-5.5 4.3-9 5.4-1.8.5-37 11.1-90.3 11.1-11.1 0-23-.5-35.6-1.6-14.2-1.3-28.4-3.3-42.3-6.1 11.6 7.8 22.8 16.1 33.6 25.1 56.3 46.8 82 93.8 83 95.8 1.7 3.2 2.6 6.7 2.6 10.3 0 3.5-.8 7-2.5 10.2-1.1 2-26.3 49-82.3 95.8-11 9.2-22.4 17.7-34.2 25.6 13.7-2.7 27.5-4.7 41.5-6 72.9-6.7 124.3 8.3 126.4 9 3.5 1 6.6 2.9 9.1 5.4 2.5 2.5 4.3 5.5 5.4 9 .7 2.1 16 53.2 9.6 126-1.3 14.2-3.3 28.4-6 42.3 7.8-11.6 16.1-22.8 25.1-33.6 46.8-56.3 93.8-82 95.8-83 6.4-3.4 14-3.5 20.4-.1 2 1 49 26.3 95.8 82.3 9.2 11 17.7 22.4 25.6 34.2-2.7-13.7-4.7-27.5-6-41.5-6.7-72.9 8.3-124.3 9-126.4 1-3.5 2.9-6.6 5.4-9.1 2.5-2.5 5.5-4.3 9-5.4 2.1-.7 53.2-16 126-9.6 14.2 1.3 28.4 3.3 42.3 6.1-11.6-7.8-22.8-16.1-33.6-25.1-56.3-46.8-82-93.8-83-95.8-1.7-3.2-2.6-6.7-2.6-10.3 0-3.5.8-7 2.5-10.2 1-2 26.3-49 82.3-95.8 11-9.2 22.4-17.7 34.2-25.6-13.7 2.7-27.5 4.7-41.5 6-13.2 1.2-25.8 1.7-37.5 1.7-52.5 0-87.2-10.2-89-10.7-3.5-.9-6.6-2.8-9.1-5.3zm600.9 131.6c2.8 5.2 2.8 11.5 0 16.7-.9 1.6-21.6 40.1-67.4 78.5-26.8 22.5-56.9 40.4-89.3 53.2-40.4 16-84.5 24.1-131.1 24.1-25.6 0-50.5-2.5-74.4-7.3 20 13.3 39 28.9 56.8 46.8 32.9 32.9 58.4 69.9 75.8 109.9 13.9 32 22.6 66 25.8 101 5.5 59.7-6.8 101.8-7.3 103.5-1.7 5.7-6.1 10.1-11.8 11.9-1.4.5-30.3 9.1-74 9.1-9.1 0-18.9-.4-29.2-1.3-34.9-3.1-68.8-11.7-100.7-25.5-39.9-17.2-76.8-42.7-109.8-75.6-18.1-18.1-33.9-37.4-47.4-57.8 4.7 23.6 7.1 48 7.1 73.2 0 46.6-8.1 90.8-24.1 131.3-12.8 32.5-30.7 62.7-53.2 89.7-38.3 46.1-76.8 67.1-78.4 68-2.6 1.4-5.5 2.1-8.4 2.1-2.9 0-5.7-.7-8.3-2.1-1.6-.8-40.1-21.6-78.5-67.4-22.5-26.8-40.4-56.9-53.2-89.3-16-40.4-24.1-84.5-24.1-131.1 0-25.6 2.5-50.5 7.3-74.4-13.3 20-28.9 39-46.8 56.8-33 32.9-69.9 58.4-109.9 75.8-32 13.9-66 22.6-101 25.8-10.9 1-21.1 1.4-30.7 1.4-43 0-71.4-8.3-72.9-8.8-5.7-1.7-10.1-6.1-11.9-11.8-.5-1.8-13.1-43.6-7.8-103.2 3.1-34.9 11.7-68.8 25.5-100.7 17.2-39.9 42.7-76.8 75.6-109.8 18.1-18.1 37.4-33.9 57.8-47.4-23.6 4.7-48 7.1-73.3 7.1-46.6 0-90.8-8.1-131.3-24.1-32.5-12.8-62.6-30.7-89.7-53.2-46.1-38.3-67.1-76.8-68-78.4-2.8-5.2-2.8-11.5-.1-16.7.9-1.6 21.6-40.1 67.4-78.5 26.8-22.5 56.9-40.4 89.3-53.2 40.4-16 84.5-24.1 131.1-24.1 25.6 0 50.5 2.5 74.4 7.3-20-13.3-39-28.9-56.8-46.8-33-33-58.4-69.9-75.8-109.9-13.9-32-22.6-66-25.8-101-5.5-59.7 6.8-101.8 7.4-103.5 1.7-5.7 6.1-10.1 11.8-11.9 1.8-.5 43.6-13.1 103.2-7.8 34.9 3.1 68.8 11.7 100.7 25.5 39.9 17.2 76.8 42.7 109.8 75.6 18.1 18.1 33.9 37.4 47.4 57.8-4.7-23.6-7.1-48-7.1-73.3 0-46.6 8.1-90.8 24.1-131.3 12.8-32.5 30.7-62.6 53.2-89.7 38.4-46.1 76.8-67.1 78.4-68 5.2-2.8 11.5-2.8 16.7-.1 1.6.8 40.1 21.6 78.5 67.4 22.5 26.8 40.4 56.9 53.2 89.3 16 40.4 24.1 84.5 24.1 131.1 0 25.6-2.5 50.5-7.3 74.4 13.3-20 28.9-39 46.8-56.8 32.9-33 69.9-58.4 109.9-75.8 32-13.9 66-22.6 101-25.8 59.7-5.5 101.8 6.8 103.5 7.4 5.7 1.7 10.1 6.1 11.9 11.8.5 1.8 13.1 43.6 7.8 103.2-3.1 34.9-11.7 68.8-25.5 100.7-17.2 39.9-42.7 76.8-75.6 109.8-18.1 18.1-37.4 33.9-57.8 47.4 23.6-4.7 48-7.1 73.3-7.1 46.6 0 90.8 8.1 131.3 24.1 32.5 12.8 62.7 30.7 89.7 53.2 46.3 38.5 67.3 77 68.1 78.6z" id="Layer_9"/>
    <path class="st0" d="M1243.6 1066c10.8 9 22 17.3 33.6 25.1-13.9-2.8-28.1-4.8-42.3-6.1-72.7-6.4-123.8 8.9-126 9.6-3.4 1.1-6.5 2.9-9 5.4-2.5 2.5-4.4 5.6-5.4 9.1-.7 2.2-15.7 53.5-9 126.4 1.3 14 3.3 27.8 6 41.5-7.9-11.8-16.5-23.2-25.6-34.2-46.9-56-93.8-81.2-95.8-82.3-6.4-3.4-14.1-3.4-20.4.1-2 1.1-48.9 26.7-95.8 83-9 10.8-17.3 22-25.1 33.6 2.8-13.9 4.8-28.1 6-42.3 6.5-72.7-8.9-123.8-9.6-126-1-3.4-2.9-6.5-5.4-9-2.5-2.5-5.6-4.4-9.1-5.4-2.2-.7-53.5-15.7-126.4-9-14 1.3-27.8 3.3-41.5 6 11.8-7.9 23.2-16.5 34.2-25.6 56-46.9 81.2-93.8 82.3-95.8 1.7-3.2 2.5-6.7 2.5-10.2 0-3.5-.9-7.1-2.6-10.3-1.1-2-26.7-48.9-83-95.8-10.8-9-22-17.3-33.6-25.1 13.9 2.8 28.1 4.8 42.3 6.1 12.6 1.1 24.5 1.6 35.6 1.6 53.3 0 88.5-10.6 90.3-11.1 3.4-1 6.5-2.9 9-5.4 2.5-2.5 4.4-5.6 5.4-9.1.7-2.2 15.7-53.5 9-126.4-1.3-14-3.3-27.8-6-41.5 7.9 11.8 16.5 23.2 25.6 34.2 46.9 56 93.8 81.2 95.8 82.3 3.2 1.7 6.7 2.5 10.2 2.5 3.5 0 7.1-.9 10.3-2.6 2-1.1 48.9-26.7 95.8-83 9-10.8 17.3-22 25.1-33.6-2.8 13.9-4.8 28.1-6.1 42.3-6.4 72.7 8.9 123.8 9.6 126 1.1 3.4 2.9 6.5 5.4 9 2.5 2.5 5.6 4.4 9.1 5.4 1.8.5 36.5 10.7 89 10.7 11.7 0 24.2-.5 37.5-1.7 14-1.3 27.8-3.3 41.5-6-11.8 7.9-23.2 16.5-34.2 25.6-56 46.9-81.2 93.8-82.3 95.8-1.7 3.2-2.5 6.7-2.5 10.2 0 3.5.9 7.1 2.6 10.3 1.1 1.9 26.7 48.9 83 95.7z" id="Layer_2"/>
    <g id="STROKES">
        <g id="XMLID_1_">
            <path class="st1" d="M1700.9 951.6c-.9-1.6-21.9-40.1-68-78.4-27-22.5-57.2-40.3-89.7-53.2-40.5-16-84.7-24.1-131.3-24.1-25.2 0-49.7 2.4-73.3 7.1 20.4-13.5 39.7-29.3 57.8-47.4 33-33 58.4-69.9 75.6-109.8 13.8-32 22.4-65.9 25.5-100.7 5.3-59.6-7.3-101.4-7.8-103.2-1.7-5.7-6.2-10.1-11.9-11.8-1.8-.5-43.8-12.9-103.5-7.4-35 3.2-69 11.9-101 25.8-40 17.3-76.9 42.8-109.9 75.8-17.8 17.8-33.4 36.8-46.8 56.8 4.9-23.9 7.3-48.8 7.3-74.4 0-46.6-8.1-90.7-24.1-131.1-12.8-32.4-30.7-62.4-53.2-89.3-38.4-45.8-76.9-66.6-78.5-67.4-5.2-2.8-11.5-2.8-16.7.1-1.6.9-40.1 21.9-78.4 68-22.5 27-40.3 57.2-53.2 89.7-16 40.5-24.1 84.7-24.1 131.3 0 25.2 2.4 49.7 7.1 73.3-13.5-20.4-29.3-39.7-47.4-57.8-33-33-69.9-58.4-109.8-75.6-32-13.8-65.9-22.4-100.7-25.5-59.6-5.3-101.4 7.3-103.2 7.8-5.7 1.7-10.1 6.2-11.8 11.9-.5 1.8-12.9 43.8-7.4 103.5 3.2 35 11.9 69 25.8 101 17.3 40 42.8 76.9 75.8 109.9 17.8 17.8 36.8 33.4 56.8 46.8-23.9-4.9-48.8-7.3-74.4-7.3-46.6 0-90.7 8.1-131.1 24.1-32.4 12.8-62.4 30.7-89.3 53.2-45.9 38.4-66.5 76.9-67.4 78.5-2.8 5.2-2.8 11.5.1 16.7.9 1.6 21.9 40.1 68 78.4 27 22.5 57.2 40.3 89.7 53.2 40.5 16 84.7 24.1 131.3 24.1 25.2 0 49.7-2.4 73.3-7.1-20.4 13.5-39.7 29.3-57.8 47.4-33 32.9-58.4 69.9-75.6 109.8-13.8 32-22.4 65.9-25.5 100.7-5.3 59.6 7.3 101.4 7.8 103.2 1.7 5.7 6.2 10.1 11.9 11.8 1.4.4 29.9 8.8 72.9 8.8 9.5 0 19.8-.4 30.7-1.4 35-3.2 69-11.9 101-25.8 40-17.3 76.9-42.8 109.9-75.8 17.8-17.8 33.4-36.8 46.8-56.8-4.9 23.9-7.3 48.8-7.3 74.4 0 46.6 8.1 90.7 24.1 131.1 12.8 32.4 30.7 62.4 53.2 89.3 38.4 45.8 76.9 66.6 78.5 67.4 2.6 1.4 5.5 2.1 8.3 2.1 2.9 0 5.8-.7 8.4-2.1 1.6-.9 40.1-21.9 78.4-68 22.5-27 40.3-57.2 53.2-89.7 16-40.5 24.1-84.7 24.1-131.3 0-25.2-2.4-49.7-7.1-73.2 13.5 20.3 29.3 39.7 47.4 57.8 32.9 33 69.9 58.4 109.8 75.6 32 13.8 65.9 22.4 100.7 25.5 10.3.9 20.1 1.3 29.2 1.3 43.6 0 72.5-8.7 74-9.1 5.7-1.7 10.1-6.2 11.8-11.9.5-1.8 12.9-43.8 7.3-103.5-3.2-35-11.9-69-25.8-101-17.3-40-42.8-76.9-75.8-109.9-17.8-17.8-36.8-33.4-56.8-46.8 23.9 4.9 48.8 7.3 74.4 7.3 46.6 0 90.7-8.1 131.1-24.1 32.4-12.8 62.4-30.7 89.3-53.2 45.8-38.4 66.5-76.9 67.4-78.5 2.8-5.4 2.7-11.7-.1-16.9z"/>
            <path class="st1" d="M1158 960c0 3.5.9 7.1 2.6 10.3 1.1 2 26.7 48.9 83 95.8 10.8 9 22 17.3 33.6 25.1-13.9-2.8-28.1-4.8-42.3-6.1-72.7-6.4-123.8 8.9-126 9.6-3.4 1.1-6.5 2.9-9 5.4-2.5 2.5-4.4 5.6-5.4 9.1-.7 2.2-15.7 53.5-9 126.4 1.3 14 3.3 27.8 6 41.5-7.9-11.8-16.5-23.2-25.6-34.2-46.9-56-93.8-81.2-95.8-82.3-6.4-3.4-14.1-3.4-20.4.1-2 1.1-48.9 26.7-95.8 83-9 10.8-17.3 22-25.1 33.6 2.8-13.9 4.8-28.1 6-42.3 6.5-72.7-8.9-123.8-9.6-126-1-3.4-2.9-6.5-5.4-9-2.5-2.5-5.6-4.4-9.1-5.4-2.2-.7-53.5-15.7-126.4-9-14 1.3-27.8 3.3-41.5 6 11.8-7.9 23.2-16.5 34.2-25.6 56-46.9 81.2-93.8 82.3-95.8 1.7-3.2 2.5-6.7 2.5-10.2 0-3.5-.9-7.1-2.6-10.3-1.1-2-26.7-48.9-83-95.8-10.8-9-22-17.3-33.6-25.1 13.9 2.8 28.1 4.8 42.3 6.1 12.6 1.1 24.5 1.6 35.6 1.6 53.3 0 88.5-10.6 90.3-11.1 3.4-1 6.5-2.9 9-5.4 2.5-2.5 4.4-5.6 5.4-9.1.7-2.2 15.7-53.5 9-126.4-1.3-14-3.3-27.8-6-41.5 7.9 11.8 16.5 23.2 25.6 34.2 46.9 56 93.8 81.2 95.8 82.3 3.2 1.7 6.7 2.5 10.2 2.5 3.5 0 7.1-.9 10.3-2.6 2-1.1 48.9-26.7 95.8-83 9-10.8 17.3-22 25.1-33.6-2.8 13.9-4.8 28.1-6.1 42.3-6.4 72.7 8.9 123.8 9.6 126 1.1 3.4 2.9 6.5 5.4 9 2.5 2.5 5.6 4.4 9.1 5.4 1.8.5 36.5 10.7 89 10.7 11.7 0 24.2-.5 37.5-1.7 14-1.3 27.8-3.3 41.5-6-11.8 7.9-23.2 16.5-34.2 25.6-56 46.9-81.2 93.8-82.3 95.8-1.6 3.1-2.5 6.6-2.5 10.1z"/>
            <path class="st1" d="M960 543.8V762"/>
            <path class="st1" d="M960 401.1v50.7"/>
            <path class="st1" d="M960 1376.2V1158"/>
            <path class="st1" d="M960 1518.9v-50.7"/>
            <path class="st1" d="M1376.2 960H1158"/>
            <path class="st1" d="M1518.9 960h-50.7"/>
            <path class="st1" d="M543.8 960H762"/>
            <path class="st1" d="M401.1 960h50.7"/>
            <path class="st1" d="M1254.3 665.7L1100 820"/>
            <path class="st1" d="M1355.2 564.8l-35.9 35.9"/>
            <path class="st1" d="M665.7 1254.3L820 1100"/>
            <path class="st1" d="M564.8 1355.2l35.9-35.9"/>
            <path class="st1" d="M1254.3 1254.3L1100 1100"/>
            <path class="st1" d="M1355.2 1355.2l-35.9-35.9"/>
            <path class="st1" d="M665.7 665.7L820 820"/>
            <path class="st1" d="M564.8 564.8l35.9 35.9"/>
        </g>
    </g>
</svg>
