<svg xmlns="http://www.w3.org/2000/svg" viewBox="0 0 1920 1920">
    <style>
        .st0{fill:#fff}.st1{fill:none;stroke:#231f20;stroke-width:50;stroke-linecap:round;stroke-linejoin:round;stroke-miterlimit:10}
    </style>
    <path class="st0" d="M1167.6 458.8c-116.5 72.4-192.8 301.7-192.8 301.7v.5c-4.9-.4-9.8-.5-14.8-.5s-9.9.2-14.8.5v-.5s-76.4-229.3-192.8-301.7c8.7-37.4 28.4-68.3 64.5-86.2 109.6-54.4 137-118.7 143.1-155.7 6.1 36.9 33.5 101.3 143.2 155.6 36 18 55.7 48.9 64.4 86.3zm-77 349.6l-.2.2c7.5 6.4 14.5 13.4 21 20.8l.1-.1s216.1-108.2 349.7-77c20.3-32.6 28.2-68.4 15.4-106.5-39.1-116-13-180.8 8.8-211.3-30.4 21.8-95.3 47.9-211.3 8.8-38.1-12.9-73.9-4.9-106.5 15.4 31.2 133.6-77 349.7-77 349.7zm370.6-56C1391 865.5 1172.7 940.7 1160.1 945c.4 5.3.7 10.8.7 16.2 0 4.7-.2 9.3-.5 13.8 14.3 4.9 231 80 300.9 192.6 37.4-8.7 68.3-28.4 86.2-64.5 54.4-109.6 118.7-137.1 155.6-143.2-36.9-6.1-101.3-33.5-155.6-143.2-17.8-35.9-48.8-55.6-86.2-64.3zm-348.3 338.9c-6.6 7.8-13.8 15-21.6 21.7 9.4 19.2 105.9 221.1 76.2 348.2 32.6 20.3 68.4 28.2 106.5 15.4 116-39.1 180.8-13 211.3 8.8-21.8-30.4-47.9-95.3-8.8-211.3 12.8-38.1 4.9-73.9-15.4-106.5-127.2 29.8-329.7-67.2-348.2-76.3zM960 1162c-5.2 0-10.3-.2-15.4-.6-7.5 21.8-81.8 231.3-192.2 299.8 8.7 37.4 28.4 68.3 64.5 86.2 109.6 54.4 137.1 118.7 143.2 155.6 6.1-36.9 33.5-101.3 143.2-155.6 36-17.9 55.7-48.8 64.5-86.2-110.3-68.6-184.7-278-192.2-299.8-5.3.4-10.4.6-15.6.6zm-516.6 112.2c39.1 116 13 180.8-8.8 211.3 30.4-21.8 95.3-47.9 211.3-8.8 38.1 12.8 73.9 4.9 106.5-15.4-29.7-127.1 66.8-329 76.2-348.2-7.7-6.7-14.9-14-21.5-21.7-18.5 9-221 106-348.3 76.3-20.3 32.5-28.3 68.3-15.4 106.5zm15.4-521.8c-37.4 8.7-68.3 28.4-86.2 64.5-54.4 109.6-118.7 137-155.7 143.1 36.9 6.1 101.3 33.5 155.6 143.2 17.9 36 48.8 55.7 86.2 64.5 70-112.6 286.7-187.7 300.9-192.6-.3-4.6-.5-9.2-.5-13.8 0-5.5.2-10.9.7-16.2-12.5-4.4-230.8-79.6-301-192.7zm187-309c-116 39.1-180.8 13-211.3-8.8 21.8 30.4 47.9 95.3 8.8 211.3-12.9 38.1-4.9 73.9 15.4 106.5 133.5-31.2 349.7 77 349.7 77l.1.1c6.5-7.5 13.5-14.4 21-20.8l-.2-.2s-108.2-216.1-77-349.7c-32.5-20.3-68.3-28.3-106.5-15.4z" id="Layer_7"/>
    <path class="st0" d="M808.4 829.4c-27.3 31.5-45 71.6-48.6 115.7-12.6-4.3-230.8-79.5-301.1-192.6 133.6-31.3 349.7 76.9 349.7 76.9zm-349.6 338.2c127.4 29.8 329.8-67.2 348.3-76.3-27-31.8-44.4-72.1-47.4-116.3-14.3 4.9-230.9 80-300.9 192.6zm369.8-54.6c-9.4 19.2-105.9 221.1-76.2 348.2 110.3-68.6 184.7-278 192.2-299.8-44.2-3.3-84.4-21-116-48.4zm146.8 48.4c7.5 21.8 81.8 231.3 192.2 299.8 29.7-127.1-66.8-329-76.2-348.2-31.6 27.4-71.8 45.1-116 48.4zm137.5-70.1c18.5 9 220.9 106 348.3 76.3-70-112.6-286.7-187.7-300.9-192.6-3 44.3-20.3 84.6-47.4 116.3zm-1.4-261.9c27.4 31.4 45.1 71.5 48.7 115.6 12.6-4.3 230.8-79.5 301.1-192.6-133.5-31.2-349.7 77-349.7 77h-.1zm-136.7-68.9v.5c44 3.2 84.1 20.6 115.7 47.6l.2-.2s108.2-216.1 77-349.7c-116.6 72.4-192.9 301.8-192.9 301.8zM752.4 458.8c-31.2 133.5 77 349.7 77 349.7l.2.2c31.6-27 71.7-44.5 115.7-47.6v-.5c-.1-.1-76.4-229.5-192.9-301.8z" id="Layer_8"/>
    <path class="st0" d="M944.6 1161.4c-44.2-3.3-84.4-21-116-48.4-7.7-6.7-14.9-14-21.5-21.7-27-31.8-44.4-72.1-47.4-116.3-.3-4.6-.5-9.2-.5-13.8 0-5.5.2-10.9.7-16.2 3.5-44.1 21.3-84.1 48.7-115.6 6.5-7.5 13.5-14.4 21-20.8 31.6-27 71.7-44.5 115.7-47.6 4.9-.4 9.8-.5 14.8-.5s9.9.2 14.8.5c44 3.2 84.1 20.6 115.7 47.6 7.5 6.4 14.5 13.4 21 20.8 27.4 31.4 45.1 71.5 48.7 115.6.4 5.3.7 10.8.7 16.2 0 4.7-.2 9.3-.5 13.8-3 44.2-20.3 84.5-47.4 116.3-6.6 7.8-13.8 15-21.6 21.7-31.6 27.3-71.8 45-116 48.4-5.1.4-10.2.6-15.4.6s-10.4-.2-15.5-.6z" id="Layer_10"/>
    <g id="STROKES">
        <g id="XMLID_1_">
            <path class="st1" d="M1090.6 808.4s108.2-216.1 77-349.7c-8.7-37.4-28.4-68.3-64.5-86.2-109.6-54.3-137-118.6-143.1-155.6-6.1 36.9-33.5 101.3-143.2 155.6-36 17.9-55.7 48.8-64.5 86.2-31.2 133.5 77 349.7 77 349.7"/>
            <path class="st1" d="M829.4 1111.6s-.2.5-.7 1.5c-9.4 19.2-105.9 221.1-76.2 348.2 8.7 37.4 28.4 68.3 64.5 86.2 109.6 54.4 137.1 118.7 143.2 155.6 6.1-36.9 33.5-101.3 143.2-155.6 36-17.9 55.7-48.8 64.5-86.2 29.7-127.1-66.8-329-76.2-348.2-.5-1-.7-1.5-.7-1.5"/>
            <path class="st1" d="M1111.6 1090.6s.5.2 1.4.7c18.5 9 220.9 106 348.3 76.3 37.4-8.7 68.3-28.4 86.2-64.5 54.4-109.6 118.7-137.1 155.6-143.2-36.9-6.1-101.3-33.5-155.6-143.2-17.9-36-48.8-55.7-86.2-64.5-133.5-31.2-349.7 77-349.7 77"/>
            <path class="st1" d="M808.4 829.4s-216.1-108.2-349.7-77c-37.4 8.7-68.3 28.4-86.2 64.5-54.3 109.6-118.6 137-155.6 143.1 36.9 6.1 101.3 33.5 155.6 143.2 17.9 36 48.8 55.7 86.2 64.5 127.4 29.8 329.8-67.2 348.3-76.3.9-.4 1.4-.7 1.4-.7"/>
            <path class="st1" d="M1159.6 945.2s.2-.1.6-.2c12.6-4.3 230.8-79.5 301.1-192.6 20.3-32.6 28.2-68.4 15.4-106.5-39.1-116-13-180.8 8.8-211.3-30.4 21.8-95.3 47.9-211.3 8.8-38.1-12.9-73.9-4.9-106.5 15.4-116.5 72.4-192.8 301.7-192.8 301.7"/>
            <path class="st1" d="M760.5 974.8s-.2.1-.7.2c-14.3 4.9-231 80-300.9 192.6-20.3 32.6-28.2 68.4-15.4 106.5 39.1 116 13 180.8-8.8 211.3 30.4-21.8 95.3-47.9 211.3-8.8 38.1 12.8 73.9 4.9 106.5-15.4 110.3-68.6 184.7-278 192.2-299.8l.6-1.8"/>
            <path class="st1" d="M974.8 1159.6l.6 1.8c7.5 21.8 81.8 231.3 192.2 299.8 32.6 20.3 68.4 28.2 106.5 15.4 116-39.1 180.8-13 211.3 8.8-21.8-30.4-47.9-95.3-8.8-211.3 12.8-38.1 4.9-73.9-15.4-106.5-70-112.6-286.7-187.7-300.9-192.6-.5-.2-.7-.2-.7-.2"/>
            <path class="st1" d="M945.2 760.5s-76.4-229.3-192.8-301.7c-32.6-20.3-68.4-28.2-106.5-15.4-116 39.1-180.8 13-211.3-8.8 21.8 30.4 47.9 95.3 8.8 211.3-12.9 38.1-4.9 73.9 15.4 106.5C529 865.5 747.3 940.7 759.9 945c.4.1.6.2.6.2"/>
            <path class="st1" d="M1160.1 945c.4 5.3.7 10.8.7 16.2 0 4.7-.2 9.3-.5 13.8-3 44.2-20.3 84.5-47.4 116.3-6.6 7.8-13.8 15-21.6 21.7-31.6 27.3-71.8 45-116 48.4-5.1.4-10.2.6-15.4.6s-10.3-.2-15.4-.6c-44.2-3.3-84.4-21-116-48.4-7.7-6.7-14.9-14-21.5-21.7-27-31.8-44.4-72.1-47.4-116.3-.3-4.6-.5-9.2-.5-13.8 0-5.5.2-10.9.7-16.2 3.5-44.1 21.3-84.1 48.7-115.6 6.5-7.5 13.5-14.4 21-20.8 31.6-27 71.7-44.5 115.7-47.6 4.9-.4 9.8-.5 14.8-.5s9.9.2 14.8.5c44 3.2 84.1 20.6 115.7 47.6 7.5 6.4 14.5 13.4 21 20.8 27.3 31.5 45.1 71.5 48.6 115.6z"/>
        </g>
    </g>
</svg>
