<svg xmlns="http://www.w3.org/2000/svg" viewBox="0 0 1920 1920">
    <style>
        .st0{fill:#fff}.st1{fill:none;stroke:#231f20;stroke-width:50;stroke-linecap:round;stroke-linejoin:round;stroke-miterlimit:10}
    </style>
    <path class="st0" d="M1392.3 649.2c0 63-51.5 114.5-114.5 114.5h-41.5l29.3 29.3c22.2 22.3 33.4 51.6 33.4 80.9s-11.1 58.7-33.4 80.9c-44.5 44.5-117.4 44.5-161.9 0l-29.3-29.3V967c0 31.5-12.9 60.1-33.6 80.8-20.7 20.7-49.4 33.6-80.8 33.6-63 0-114.5-51.5-114.5-114.5v-41.5l-29.3 29.3c-22.3 22.3-51.6 33.4-80.9 33.4-29.4 0-58.7-11.1-81-33.4-44.5-44.5-44.5-117.4 0-161.9l29.3-29.3h-41.5c-63 0-114.5-51.5-114.5-114.5s51.5-114.5 114.5-114.5h41.5l-29.3-29.3c-22.2-22.3-33.4-51.6-33.4-80.9s11.1-58.7 33.4-80.9c44.5-44.5 117.4-44.5 161.9 0l29.3 29.3v-41.5c0-31.5 12.9-60.1 33.6-80.8 20.7-20.8 49.4-33.6 80.8-33.6 63 0 114.5 51.5 114.5 114.5v41.5l29.3-29.3c22.3-22.3 51.6-33.4 80.9-33.4 29.3 0 58.7 11.1 80.9 33.4 44.5 44.5 44.5 117.4 0 161.9l-29.3 29.3h41.5c63.1.1 114.6 51.6 114.6 114.5zm-316.6.1c0-63.9-51.8-115.7-115.7-115.7s-115.7 51.8-115.7 115.7c0 63.9 51.8 115.7 115.7 115.7s115.7-51.8 115.7-115.7z" id="Layer_4"/>
    <path class="st0" d="M960 533.6c63.9 0 115.7 51.8 115.7 115.7 0 63.9-51.8 115.7-115.7 115.7s-115.7-51.8-115.7-115.7c0-63.9 51.8-115.7 115.7-115.7z" id="Layer_5"/>
    <path class="st0" d="M887.9 1335.9c61.3 61.3 72.1 103.8 72.1 126.2 0 12.2-3.2 18.4-3.2 18.4s-39.6 36.2-134.3-58.5c-61.3-61.3-72.1-103.8-72.1-126.2 0-12.2 3.2-18.4 3.2-18.4s39.6-36.2 134.3 58.5zm137.4 10.3c-53.7 53.7-65.3 89.7-65.3 110.8 0 16.1 6.8 23.5 6.8 23.5s49.9 25.8 144.7-68.9c94.7-94.7 58.6-134.3 58.6-134.3s-50-25.8-144.8 68.9z" id="Layer_6"/>
    <g id="STROKES">
        <g id="XMLID_1_">
            <path class="st1" d="M1075.7 649.3c0 63.9-51.8 115.7-115.7 115.7s-115.7-51.8-115.7-115.7c0-63.9 51.8-115.7 115.7-115.7s115.7 51.8 115.7 115.7z"/>
            <path class="st1" d="M1277.8 534.8h-41.5l29.3-29.3c44.5-44.5 44.5-117.4 0-161.9-22.3-22.3-51.6-33.4-80.9-33.4-29.3 0-58.7 11.1-80.9 33.4l-29.3 29.3v-41.5c0-63-51.5-114.5-114.5-114.5-31.5 0-60.1 12.9-80.8 33.6-20.8 20.7-33.6 49.4-33.6 80.8v41.5l-29.3-29.3c-44.5-44.5-117.4-44.5-161.9 0-22.2 22.3-33.4 51.6-33.4 80.9s11.1 58.7 33.4 80.9l29.3 29.3h-41.5c-63 0-114.5 51.5-114.5 114.5s51.5 114.5 114.5 114.5h41.5l-29.3 29.3c-44.5 44.5-44.5 117.4 0 161.9 22.3 22.3 51.6 33.4 81 33.4 29.3 0 58.7-11.1 80.9-33.4l29.3-29.3V967c0 63 51.5 114.5 114.5 114.5 31.5 0 60.1-12.9 80.8-33.6 20.8-20.8 33.6-49.4 33.6-80.8v-41.5l29.3 29.3c44.5 44.5 117.4 44.5 161.9 0 22.2-22.3 33.4-51.6 33.4-80.9s-11.1-58.7-33.4-80.9l-29.3-29.3h41.5c63 0 114.5-51.5 114.5-114.5-.1-63-51.6-114.5-114.6-114.5z"/>
            <path class="st1" d="M960 1081.6v621.5"/>
            <path class="st1" d="M1170 1277.4s-49.9-25.8-144.7 68.9C971.6 1400 960 1436 960 1457.1c0 16.1 6.8 23.5 6.8 23.5"/>
            <path class="st1" d="M966.8 1480.6s49.9 25.8 144.7-68.9c94.7-94.7 58.6-134.3 58.6-134.3"/>
            <path class="st1" d="M753.6 1277.4s-3.2 6.2-3.2 18.4c0 22.4 10.8 64.9 72.1 126.2 94.7 94.7 134.3 58.5 134.3 58.5"/>
            <path class="st1" d="M887.9 1335.9c-94.7-94.7-134.3-58.6-134.3-58.6"/>
            <path class="st1" d="M956.8 1480.6s3.2-6.2 3.2-18.4"/>
            <path class="st1" d="M960 1462.1c0-22.4-10.8-64.9-72.1-126.2"/>
        </g>
    </g>
</svg>
