<svg xmlns="http://www.w3.org/2000/svg" viewBox="0 0 1920 1920">
    <style>
        .st0{fill:#fff}.st1{fill:none;stroke:#231f20;stroke-width:50;stroke-linecap:round;stroke-linejoin:round;stroke-miterlimit:10}
    </style>
    <path class="st0" d="M887.8 580.4L772.8 734H642l114.2-153.6h131.6zm0 0L772.8 734H960V580.4h-72.2zm72.2 0V734h187.2l-115-153.6H960zm72.2 0l115 153.6H1278l-114.2-153.6h-131.6z" id="Layer_8"/>
    <path class="st0" d="M1569.3 890.9H350.7C350.7 799 642 734 642 734h636s291.3 65 291.3 156.9zM593 1230.4h734s163.1-124.8 174-124.8H419c11 0 174 124.8 174 124.8z" id="Layer_9"/>
    <path class="st0" d="M1703.1 998.2H216.9c0-29.5 12.1-56.4 31.5-75.8 19.5-19.5 46.3-31.5 75.8-31.5h1271.4c59.1 0 107.5 48.3 107.5 107.3zM324.3 1105.6h1271.4c29.5 0 56.4-12.1 75.8-31.5 19.4-19.5 31.5-46.3 31.5-75.8H216.9c0 59 48.4 107.3 107.4 107.3z" id="Layer_10"/>
    <path class="st0" d="M1105.4 1230.4v28.1c0 44.6-36.5 81.1-81 81.1H895.6c-44.6 0-81-36.5-81-81.1v-28.1h290.8z" id="Layer_11"/>
    <g id="STROKES">
        <g id="XMLID_1_">
            <path class="st1" d="M1569.3 890.9C1569.3 799 1278 734 1278 734H960"/>
            <path class="st1" d="M772.8 734l115-153.6"/>
            <path class="st1" d="M1278 734l-114.1-153.6H756.1L642 734"/>
            <path class="st1" d="M1147.2 734l-115-153.6"/>
            <path class="st1" d="M960 580.4V734H642s-291.3 65-291.3 156.9"/>
            <path class="st1" d="M814.5 1230.4H593s-163-124.8-174-124.8"/>
            <path class="st1" d="M1501 1105.6c-11 0-174 124.8-174 124.8h-221.5"/>
            <path class="st1" d="M1703.1 998.2c0 29.5-12.1 56.4-31.5 75.8-19.5 19.5-46.3 31.5-75.8 31.5H324.3c-59 0-107.3-48.3-107.3-107.4 0-29.5 12.1-56.4 31.5-75.8 19.5-19.5 46.3-31.5 75.8-31.5h1271.4c59 .1 107.4 48.4 107.4 107.4z"/>
            <path class="st1" d="M1105.4 1230.4v28.1c0 44.6-36.5 81.1-81 81.1H895.6c-44.6 0-81-36.5-81-81.1v-28.1h290.8z"/>
            <path class="st1" d="M216.9 998.2h1486.2"/>
        </g>
    </g>
</svg>
