<svg xmlns="http://www.w3.org/2000/svg" viewBox="0 0 1920 1920">
    <style>
        .st0{fill:#fff}.st1{fill:none;stroke:#231f20;stroke-width:50;stroke-linecap:round;stroke-linejoin:round;stroke-miterlimit:10}
    </style>
    <path class="st0" d="M1330.5 991.9c39.8 0 72 32.2 72 72s-32.2 72-72 72-72-32.2-72-72c-.1-39.8 32.2-72 72-72zm-442.5 144c0 39.8 32.2 72 72 72s72-32.2 72-72-32.2-72-72-72-72 32.2-72 72zm-370.5-72c0 39.8 32.2 72 72 72s72-32.2 72-72-32.2-72-72-72c-39.7 0-72 32.2-72 72z" id="Layer_2"/>
    <path class="st0" d="M1703.1 1064.2c0 165.6-332.7 299.8-743.1 299.8s-743-134.2-743-299.8c0-111.1 149.9-208.2 372.6-259.9 0 0 127.6 90.3 370.5 90.3s370.5-90.3 370.5-90.3c222.5 51.7 372.5 148.7 372.5 259.9zm-300.6-.3c0-39.8-32.2-72-72-72s-72 32.2-72 72 32.2 72 72 72 72-32.3 72-72zm-370.5 72c0-39.8-32.2-72-72-72s-72 32.2-72 72 32.2 72 72 72 72-32.3 72-72zm-370.5-72c0-39.8-32.2-72-72-72s-72 32.2-72 72 32.2 72 72 72 72-32.3 72-72z" id="Layer_3"/>
    <path class="st0" d="M959.7 556c354 0 370.8 248.3 370.8 248.3s-127.6 90.3-370.5 90.3-370.5-90.3-370.5-90.3S605.6 556 959.7 556z" id="Layer_4"/>
    <g id="STROKES">
        <g id="XMLID_1_">
            <path class="st1" d="M589.5 804.2C366.9 856 216.9 953 216.9 1064.2c0 165.6 332.7 299.8 743 299.8s743.1-134.2 743.1-299.8c0-111.1-149.9-208.2-372.6-259.9"/>
            <path class="st1" d="M1330.5 804.2s-16.8-248.3-370.8-248.3c-354.1 0-370.1 248.3-370.1 248.3s127.6 90.3 370.5 90.3 370.4-90.3 370.4-90.3z"/>
            <circle class="st1" cx="960" cy="1135.9" r="72"/>
            <path class="st1" d="M1402.5 1063.9c0 39.8-32.2 72-72 72s-72-32.2-72-72 32.2-72 72-72 72 32.2 72 72z"/>
            <path class="st1" d="M661.5 1063.9c0 39.8-32.2 72-72 72s-72-32.2-72-72 32.2-72 72-72 72 32.2 72 72z"/>
        </g>
    </g>
</svg>
