<svg xmlns="http://www.w3.org/2000/svg" viewBox="0 0 1920 1920">
    <style>
        .st0{fill:#fff}.st1{fill:none;stroke:#231f20;stroke-width:50;stroke-linecap:round;stroke-linejoin:round;stroke-miterlimit:10}
    </style>
    <path class="st0" d="M1330.5 746.4s-127.6 69.2-370.5 69.2-370.5-69.2-370.5-69.2S605.6 556 959.7 556c354 0 370.8 190.4 370.8 190.4z" id="Layer_5"/>
    <path class="st0" d="M1703.1 945.8c0 127-332.7 230-743.1 230s-743-103-743-230c0-85.3 149.9-159.7 372.6-199.4 0 0 127.6 69.2 370.5 69.2s370.5-69.2 370.5-69.2c222.5 39.8 372.5 114.2 372.5 199.4z" id="Layer_6"/>
    <path class="st0" d="M1536.4 1409.9c26.5 0 48 21.5 48 48s-21.5 48-48 48-48-21.5-48-48 21.5-48 48-48zm-1200.8 48c0 26.5 21.5 48 48 48s48-21.5 48-48-21.5-48-48-48-48 21.5-48 48z" id="Layer_7"/>
    <g id="STROKES">
        <g id="XMLID_1_">
            <path class="st1" d="M589.5 746.4c-222.7 39.7-372.6 114.2-372.6 199.4 0 127 332.7 230 743 230s743.1-103 743.1-230c0-85.3-149.9-159.7-372.6-199.4"/>
            <path class="st1" d="M1330.5 746.4s-16.8-190.5-370.8-190.5c-354.1 0-370.1 190.5-370.1 190.5s127.6 69.2 370.5 69.2 370.4-69.2 370.4-69.2z"/>
            <path class="st1" d="M501.9 1127.4l-105.1 282.5"/>
            <circle class="st1" cx="383.6" cy="1457.9" r="48"/>
            <path class="st1" d="M1418.1 1127.4l105.1 282.5"/>
            <circle class="st1" cx="1536.4" cy="1457.9" r="48"/>
        </g>
    </g>
</svg>
