<svg xmlns="http://www.w3.org/2000/svg" viewBox="0 0 1920 1920">
    <style>
        .st0{fill:#fff}.st1{fill:none;stroke:#231f20;stroke-width:50;stroke-linecap:round;stroke-linejoin:round;stroke-miterlimit:10}
    </style>
    <path class="st0" d="M1335.3 1384.8l-70.6 317H675.4s-2.5-238.8-100.1-390.1c-79.1-122.7 50.6-213.4 50.6-213.4V356.4c0-38.8 15.7-73.8 41.1-99.2 25.4-25.4 60.5-41.1 99.2-41.1h8.2c77.5 0 140.3 62.8 140.3 140.3v407s54.7-7.7 73.8 28.7c0 0 32-26.2 72.2-26.2s72.2 28.4 72.2 28.4 18.6-29 80.6-29c92.2 0 136.4 84.7 137.4 120.2 1.3 46.8.7 246.4.3 356 0 48.2-5.4 96.3-15.9 143.3z" id="Layer_4"/>
    <g id="STROKES">
        <path class="st1" d="M1277.3 909.4V1285c0 7.9-.8 15.7-2.5 23.4l-69.7 323.8H740.5c0-122.3-55.1-262.7-81.3-322.5-6.1-14-13.7-27.3-22.2-40.1-17.3-26.2-14.4-61.8 8.7-84.9l54.2-54.2V357.8c0-19.9 8.1-38 21.1-51 13.1-13.1 31.3-21.2 51.3-21.1 39.9.1 71.9 33.3 71.9 73.2v549.5c0-19.9 8.1-38 21.1-51 13.1-13.1 31.1-21.1 51-21.1 39.9 0 72.2 32.3 72.2 72.2 0-19.9 8.1-38 21.1-51 13.1-13.1 31.1-21.1 51-21.1 39.9 0 72.2 32.3 72.2 72.2 0-19.9 8.1-38 21.1-51 13.1-13.1 31.3-21.2 51.3-21.1 40.1-.2 72.1 33 72.1 72.9z"/>
        <path class="st1" d="M1351 885.5c-1-35.5-45.2-120.2-137.4-120.2-62 0-80.7 29-80.7 29s-32-28.4-72.2-28.4-72.2 26.2-72.2 26.2c-19.1-36.4-73.8-28.7-73.8-28.7v-407c0-77.5-62.8-140.3-140.3-140.3h-8.2c-38.8 0-73.8 15.7-99.2 41.1s-41 60.4-41 99.2v741.9s-129.7 90.8-50.6 213.4c97.5 151.3 100.1 390.1 100.1 390.1h589.2l70.6-317c10.5-47.1 15.9-95.1 16.1-143.4.4-109.5.9-309.1-.4-355.9zm-73.7 399.5c0 7.9-.8 15.7-2.5 23.4l-69.7 323.8H740.5c0-122.3-55.1-262.7-81.3-322.5-6.1-14-13.7-27.3-22.2-40.1-17.3-26.2-14.4-61.8 8.7-84.9l54.2-54.2V357.8c0-19.9 8.1-38 21.1-51 13.1-13.1 31.3-21.2 51.3-21.1 39.9.1 71.9 33.3 71.9 73.2v549.5c0-19.9 8.1-38 21.1-51 13.1-13.1 31.1-21.1 51-21.1 39.9 0 72.2 32.3 72.2 72.2 0-19.9 8.1-38 21.1-51 13.1-13.1 31.1-21.1 51-21.1 39.9 0 72.2 32.3 72.2 72.2 0-19.9 8.1-38 21.1-51 13.1-13.1 31.3-21.2 51.3-21.1 39.9.1 71.9 33.3 71.9 73.2V1285z"/>
        <path class="st1" d="M757 741.5h30.2"/>
        <path class="st1" d="M757 567.3h30.2"/>
        <path class="st1" d="M700 357.8l42.1 62.4h60l42.2-62.4"/>
    </g>
</svg>
