<svg xmlns="http://www.w3.org/2000/svg" viewBox="0 0 1920 1920">
    <style>
        .st0{fill:#fff}.st1{fill:none;stroke:#231f20;stroke-width:50;stroke-linecap:round;stroke-linejoin:round;stroke-miterlimit:10}
    </style>
    <path class="st0" d="M1338.3 1313c-97.5 151.3-100.1 390.1-100.1 390.1H648.9L585 1416.2c-15-67.2-22.6-135.7-22.9-204.5-.4-112.6-.7-282.2.4-324.9 1-35.5 45.2-120.2 137.4-120.2 62 0 80.7 29 80.7 29s32-28.4 72.2-28.4 72.2 26.2 72.2 26.2c19.1-36.4 73.8-28.7 73.8-28.7v-407c0-77.5 62.8-140.3 140.3-140.3h8.2c38.8 0 73.8 15.7 99.2 41.1 25.4 25.4 41.1 60.5 41.1 99.2v741.9c.1-.1 129.8 90.7 50.7 213.4z" id="Layer_2"/>
    <g id="STROKES">
        <path class="st1" d="M1213.7 359v772.7l-12.5-12.5-131.8-131.8V359c0-39.9 32.3-72.2 72.2-72.2 19.9 0 38 8.1 51 21.1 13 13.2 21.1 31.2 21.1 51.1z"/>
        <path class="st1" d="M1276.6 1270.8c-8.4 12.8-16 26-22.2 40.1-26.2 59.8-81.3 200.2-81.3 322.5H708.5l-69.7-323.8c-1.7-7.7-2.5-15.5-2.5-23.4v-237.4c0 39.9 32.3 72.2 72.2 72.2s72.2-32.3 72.2-72.2c0 39.9 32.3 72.2 72.2 72.2 39.9 0 72.2-32.3 72.2-72.2 0 39.9 32.3 72.2 72.2 72.2h1.7l-65.2-65.2c-3.2-3.2-6.1-6.7-8.6-10.3-16.7-24.5-16.7-56.9 0-81.4 2.5-3.6 5.3-7.1 8.6-10.3 14.1-14.1 32.6-21.1 51-21.1 18.5 0 36.9 7 51 21.1l33.7 33.7 131.8 131.8 12.5 12.5 54.2 54.2c23 23 25.9 58.6 8.6 84.8z"/>
        <path class="st1" d="M998.8 1121l110.5 111.4c-70.4 6.9-147.3 92-147.3 183.4"/>
        <path class="st1" d="M998.8 1121h-1.7c-39.9 0-72.2-32.3-72.2-72.2v-3.4c2.5 3.6 5.3 7.1 8.6 10.3l65.3 65.3z"/>
        <path class="st1" d="M1069.3 909.6v77.8l-33.7-33.7c-14.1-14.1-32.6-21.1-51-21.1-18.5 0-36.9 7-51 21.1-3.2 3.2-6.1 6.7-8.6 10.3v-54.5c0-39.9 32.3-72.2 72.2-72.2 19.9 0 38 8.1 51 21.1 13 13.2 21.1 31.2 21.1 51.2z"/>
        <path class="st1" d="M925 964c-16.7 24.5-16.7 56.9 0 81.4v3.4c0 39.9-32.3 72.2-72.2 72.2-39.9 0-72.2-32.3-72.2-72.2V909.6c0-39.9 32.3-72.2 72.2-72.2 19.9 0 38 8.1 51 21.1 13.1 13.1 21.1 31.1 21.1 51V964z"/>
        <path class="st1" d="M780.6 909.6v139.3c0 39.9-32.3 72.2-72.2 72.2s-72.2-32.3-72.2-72.2V909.6c0-39.9 32.3-72.2 72.2-72.2 19.9 0 38 8.1 51 21.1 13.2 13.1 21.2 31.1 21.2 51.1z"/>
        <path class="st1" d="M1287.7 1099.5V357.6c0-77.5-62.8-140.3-140.3-140.3h-8.2c-77.5 0-140.3 62.8-140.3 140.3v407s-54.7-7.7-73.8 28.7c0 0-32-26.2-72.2-26.2s-72.2 28.4-72.2 28.4-18.7-29-80.6-29c-92.2 0-136.4 84.7-137.4 120.2-1.2 42.7-.8 212.2-.4 324.9.2 68.8 7.9 137.4 22.9 204.5l63.9 286.9h589.2s2.5-238.8 100.1-390.1c79-122.6-50.7-213.4-50.7-213.4z"/>
    </g>
</svg>
