<svg xmlns="http://www.w3.org/2000/svg" viewBox="0 0 1920 1920">
    <style>
        .st0{fill:#fff}.st1{fill:none;stroke:#231f20;stroke-width:50;stroke-linecap:round;stroke-linejoin:round;stroke-miterlimit:10}
    </style>
    <path class="st0" d="M1569.2 412s-52.4-79.6-82.8-115.3l-131.8 192.5s-136.3-117.8-232.4-139.4c-8.3 32.5-24.4 65.9-54.6 90.9-8.1 6.8-16.2 13.6-23.9 20.8-25.2 23.6-71.3 69.2-82.4 97.3-.5 1.2-.9 2.4-1.2 3.5-.3-1.1-.8-2.3-1.2-3.5-11.1-28.1-57.2-73.7-82.4-97.3-7.7-7.2-15.8-14.1-23.9-20.8-30.2-25-46.3-58.4-54.6-90.9-96.1 21.6-232.4 139.4-232.4 139.4l-132-192.4C403.2 332.4 350.8 412 350.8 412s-26.4 32.2-2.1 78.6c13.6 25.9 24.9 53 34.1 80.8l3 9 161.9 127.4s15.2 19.2 33.9 53.2c29.7 54 68.2 145.5 68.2 257.1 0 181.9-45.1 685.1-45.1 685.1h710.6s-45.1-503.2-45.1-685.1c0-111.6 38.5-203.1 68.2-257.1 18.7-34 34-53.2 34-53.2l161.9-127.4 3-9c9.2-27.8 20.5-54.8 34.1-80.8 24.2-46.3-2.2-78.6-2.2-78.6z" id="Layer_8"/>
    <path class="st0" d="M1122.2 349.8c-8.3 32.5-24.4 65.9-54.6 90.9-8.1 6.8-16.2 13.6-23.9 20.8-25.2 23.6-71.3 69.2-82.4 97.3-.5 1.2-.9 2.4-1.2 3.5-.3-1.1-.8-2.3-1.2-3.5-11.1-28.1-57.2-73.7-82.4-97.3-7.7-7.2-15.8-14.1-23.9-20.8-30.2-25-46.3-58.4-54.6-90.9-15-57.8-4.9-112.8-4.9-112.8h39.8C769 329.9 943.5 427.5 960 436.5c16.5-8.9 191-106.5 127.1-199.4h39.8c0-.1 10 54.9-4.7 112.7z" id="Layer_9"/>
    <path class="st0" d="M797.8 349.8c-96.1 21.6-232.4 139.4-232.4 139.4L433.6 296.8c30.4-35.6 73.4-51.4 73.4-51.4L636.9 217c149.9 0 156.2 20.1 156.2 20.1S783 292 797.8 349.8z" id="Layer_10"/>
    <path class="st0" d="M1354.6 489.3s-136.3-117.8-232.4-139.4c14.8-57.8 4.8-112.8 4.8-112.8s6.3-20.1 156.2-20.1l129.9 28.4s43 15.7 73.4 51.4l-131.9 192.5z" id="Layer_17"/>
    <g id="STROKES">
        <path class="st1" d="M797.8 349.8S679.4 455 581.6 760.9c-18.7-34-34-53.2-34-53.2L385.8 580.4l-3-9c-9.2-27.8-20.5-54.8-34.1-80.8-24.3-46.4 2.1-78.6 2.1-78.6s52.4-79.6 82.8-115.3c30.4-35.6 73.4-51.4 73.4-51.4l130-28.5c149.9 0 156.1 20.1 156.1 20.1S783 292 797.8 349.8z"/>
        <path class="st1" d="M433.6 296.8l131.8 192.5s136.3-117.8 232.4-139.4"/>
        <path class="st1" d="M1354.6 489.3s-136.3-117.8-232.4-139.4c0 0 118.4 105.2 216.2 411.1-29.7 54-68.2 145.5-68.2 257.1 0 181.9 45.1 685.1 45.1 685.1H604.7s45.1-503.2 45.1-685.1c0-111.6-38.5-203.1-68.2-257.1 97.8-306 216.2-411.1 216.2-411.1 8.3 32.5 24.4 65.9 54.6 90.9 8.1 6.7 16.2 13.6 23.9 20.8 25.2 23.6 71.3 69.2 82.4 97.3.5 1.2.9 2.4 1.2 3.5.3-1.1.8-2.3 1.2-3.5 11.1-28.1 57.2-73.7 82.4-97.3 7.7-7.2 15.8-14.1 23.9-20.8 83.8-69.5 59.4-203.7 59.4-203.7s6.3-20.1 156.1-20.1l130 28.5s43 15.7 73.4 51.4l-131.7 192.4z"/>
        <path class="st1" d="M1067.6 440.7c-8.1 6.7-16.2 13.6-23.9 20.8-25.2 23.6-71.3 69.2-82.4 97.3-.5 1.2-.9 2.4-1.2 3.5-.3-1.1-.8-2.3-1.2-3.5-11.1-28.1-57.2-73.7-82.4-97.3-7.7-7.2-15.8-14.1-23.9-20.8-30.2-25-46.3-58.4-54.6-90.9-15-57.8-4.9-112.8-4.9-112.8h39.8C769 329.9 943.5 427.5 960 436.4c16.5-8.9 191-106.5 127.1-199.4h39.8s24.5 134.2-59.3 203.7z"/>
        <path class="st1" d="M1571.3 490.6c-13.6 25.9-24.9 53-34.1 80.8l-3 9-161.9 127.4s-15.2 19.2-34 53.2c-97.8-306-216.2-411.1-216.2-411.1 96.1 21.6 232.4 139.4 232.4 139.4l131.8-192.5c30.4 35.6 82.8 115.3 82.8 115.3s26.5 32.2 2.2 78.5z"/>
    </g>
</svg>
