<svg xmlns="http://www.w3.org/2000/svg" viewBox="0 0 1920 1920">
    <style>
        .st0{fill:#fff}.st1{fill:none;stroke:#231f20;stroke-width:50;stroke-linecap:round;stroke-linejoin:round;stroke-miterlimit:10}
    </style>
    <path class="st0" d="M1542 836.2c-10.8-25-21.1-34.4-21.1-34.4-94.5-48.2-204.7-75.5-302.3-91-20.9-3.3-41.3-6.1-60.7-8.4v66c19.8 2.4 40.2 5.2 60.7 8.5 88.8 14.2 180.8 37 240.6 73.6 2.4 1.5 4.8 3 7.1 4.5 0 0 34.4 57.5 21.7 150.4-14.8 107.5-22.6 158.8-22.6 158.8l-31.1-6.4-189.6-23.4H675.4l-189.6 23.4-31.1 6.4s-7.8-51.3-22.6-158.8c-12.8-93 21.7-150.4 21.7-150.4 2.3-1.5 4.6-3 7.1-4.5 59.8-36.6 151.8-59.4 240.6-73.6 20.6-3.3 41.1-6.1 60.9-8.5v-66c-19.5 2.3-39.9 5.1-60.9 8.4-97.6 15.4-207.8 42.8-302.3 91 0 0-10.3 9.3-21.1 34.4-19.1 44.2-39.7 137.5-7.7 314.7 4.5 24.7 16.8 47.3 35 64.5l22.8 21.5 62.1 374.1c4.2 25.6 24.4 45.5 50.1 49.5l277.2 42.6h284.8l277.2-42.6c25.6-3.9 45.8-23.9 50.1-49.5l62.1-374.1 22.8-21.5c18.3-17.2 30.6-39.8 35-64.5 32.1-177.3 11.5-270.5-7.6-314.7zm-332.7 363.5l-20.6 65.3H731.3l-20.6-65.3h498.6zm-703.1 81.6l-8.8-53.9 141.2-19.4 19 60.5-151.4 12.8zm51.2 312.9L517 1347.4l161.3-13.2 91.6 291.1-212.5-31.1zm513.9 42.8H848.7l-96.3-305.4h415.4l-96.5 305.4zm291.3-42.8l-212.5 31.2 91.6-291.1 161.3 13.2-40.4 246.7zm51.2-312.9l-151.4-12.8 19-60.5 141.2 19.4-8.8 53.9z" id="Layer_8"/>
    <path class="st0" d="M1087.4 761.1v-65.5c-76.2-5.8-127.4-4.5-127.4-4.5s-51.1-1.3-127.2 4.5V761c73.9-6.4 127.2-7.2 127.2-7.2s53.4.8 127.4 7.3z" id="Layer_15"/>
    <path class="st0" d="M1170.7 588.6H749.3c-26.5 0-47.9 21.5-47.9 47.9v74.3c21-3.3 41.4-6.1 60.9-8.4v-24.6c0-19.5 15.8-35.3 35.3-35.3 9.7 0 18.6 4 24.9 10.3 6.4 6.4 10.3 15.2 10.3 24.9v17.8C908.9 689.7 960 691 960 691s51.1-1.3 127.4 4.5v-17.8c0-19.5 15.8-35.3 35.3-35.3 9.7 0 18.6 4 24.9 10.3 6.4 6.4 10.3 15.2 10.3 24.9v24.6c19.5 2.3 39.8 5.1 60.7 8.4v-74.3c0-26.3-21.4-47.7-47.9-47.7z" id="Layer_9"/>
    <path class="st0" d="M832.8 761v56.2h254.6V761c-74-6.4-127.4-7.2-127.4-7.2s-53.3.8-127.2 7.2z" id="Layer_13"/>
    <path class="st0" d="M1147.6 652.9c-6.4-6.4-15.2-10.3-24.9-10.3-19.5 0-35.3 15.8-35.3 35.3v139.5h70.5V677.9c0-9.8-4-18.6-10.3-25z" id="Layer_14"/>
    <path class="st0" d="M797.5 642.6c-19.5 0-35.3 15.8-35.3 35.3v139.5h70.5V677.7c0-9.7-4-18.6-10.3-24.9-6.3-6.3-15.1-10.2-24.9-10.2z" id="Layer_10"/>
    <path class="st0" d="M1542 836.2c-10.8-25-21.1-34.4-21.1-34.4-94.5-48.2-204.7-75.5-302.3-91v-74.3c0-26.5-21.5-47.9-47.9-47.9H749.3c-26.5 0-47.9 21.5-47.9 47.9v74.3c-97.6 15.4-207.8 42.8-302.3 91 0 0-10.3 9.3-21.1 34.4C386.8 221.5 960 217 960 217s573.2 4.5 582 619.2z" id="Layer_11"/>
    <path class="st0" d="M1466.3 855c-2.3-1.5-4.6-3-7.1-4.5-59.8-36.6-151.8-59.4-240.6-73.6-20.6-3.3-41-6.1-60.7-8.5v48.9H762.3v-48.9c-19.8 2.4-40.3 5.2-60.9 8.5-88.8 14.2-180.8 37-240.6 73.6-2.4 1.5-4.8 3-7.1 4.5 0 0-34.4 57.5-21.7 150.4 14.8 107.5 22.6 158.8 22.6 158.8l31.1-6.4 189.6-23.4h569.3l189.6 23.4 31.1 6.4s7.8-51.3 22.6-158.8c12.8-92.9-21.6-150.4-21.6-150.4z" id="Layer_12"/>
    <g id="STROKES">
        <path class="st1" d="M657.7 1268.5l-151.5 12.8-8.8-53.8 141.2-19.4z"/>
        <path class="st1" d="M770 1625.4l-212.6-31.2-40.4-246.8 161.4-13.1z"/>
        <path class="st1" d="M1542 836.2c-10.8-25-21.1-34.4-21.1-34.4-94.5-48.2-204.7-75.5-302.3-91-20.9-3.3-41.3-6.1-60.7-8.4v-24.6c0-9.7-4-18.6-10.3-24.9-6.4-6.4-15.2-10.3-24.9-10.3-19.5 0-35.3 15.8-35.3 35.3v17.8c-76.2-5.8-127.4-4.5-127.4-4.5s-51.1-1.3-127.2 4.5v-17.8c0-9.7-4-18.6-10.3-24.9-6.4-6.4-15.2-10.3-24.9-10.3-19.5 0-35.3 15.8-35.3 35.3v24.6c-19.5 2.3-39.9 5.1-60.9 8.4-97.6 15.4-207.8 42.8-302.3 91 0 0-10.3 9.3-21.1 34.4C386.8 221.5 960 217 960 217s573.2 4.5 582 619.2z"/>
        <path class="st1" d="M1422.6 1227.5l-8.8 53.8-151.5-12.8 19.1-60.4z"/>
        <path class="st1" d="M1403 1347.4l-40.4 246.8-212.6 31.2 91.6-291.1z"/>
        <path class="st1" d="M1487.9 1005.5c-14.8 107.5-22.6 158.8-22.6 158.8l-31.1-6.4-189.6-23.4H675.4l-189.6 23.4-31.1 6.4s-7.8-51.3-22.6-158.8c-12.8-93 21.7-150.4 21.7-150.4 2.3-1.5 4.6-3 7.1-4.5 59.8-36.6 151.8-59.4 240.6-73.6 20.6-3.3 41.1-6.1 60.9-8.5v48.9h70.5V761c73.9-6.4 127.2-7.2 127.2-7.2s53.4.8 127.4 7.2v56.2h70.5v-48.9c19.8 2.4 40.2 5.2 60.7 8.5 88.8 14.2 180.8 37 240.6 73.6 2.4 1.5 4.8 3 7.1 4.5-.1.1 34.3 57.6 21.5 150.6z"/>
        <path class="st1" d="M960 691.1s-51.1-1.3-127.2 4.5V761c73.9-6.4 127.2-7.2 127.2-7.2s53.4.8 127.4 7.2v-65.5c-76.3-5.7-127.4-4.4-127.4-4.4z"/>
        <path class="st1" d="M1542 836.2c-10.8-25-21.1-34.4-21.1-34.4-94.5-48.2-204.7-75.5-302.3-91-20.9-3.3-41.3-6.1-60.7-8.4v66c19.8 2.4 40.2 5.2 60.7 8.5 88.8 14.2 180.8 37 240.6 73.6 2.4 1.5 4.8 3 7.1 4.5 0 0 34.4 57.5 21.7 150.4-14.8 107.5-22.6 158.8-22.6 158.8l-31.1-6.4-189.6-23.4H675.4l-189.6 23.4-31.1 6.4s-7.8-51.3-22.6-158.8c-12.8-93 21.7-150.4 21.7-150.4 2.3-1.5 4.6-3 7.1-4.5 59.8-36.6 151.8-59.4 240.6-73.6 20.6-3.3 41.1-6.1 60.9-8.5v-66c-19.5 2.3-39.9 5.1-60.9 8.4-97.6 15.4-207.8 42.8-302.3 91 0 0-10.3 9.3-21.1 34.4-19.1 44.2-39.7 137.5-7.7 314.7 4.5 24.7 16.8 47.3 35 64.5l22.8 21.5 62.1 374.1c4.2 25.6 24.4 45.5 50.1 49.5l277.2 42.6h284.8l277.2-42.6c25.6-3.9 45.8-23.9 50.1-49.5l62.1-374.1 22.8-21.5c18.3-17.2 30.6-39.8 35-64.5 32.1-177.3 11.5-270.5-7.6-314.7zm-332.7 363.5l-20.6 65.3H731.3l-20.6-65.3h498.6zm-703.1 81.6l-8.8-53.9 141.2-19.4 19 60.5-151.4 12.8zm51.2 312.9L517 1347.4l161.3-13.2 91.6 291.1-212.5-31.1zm513.9 42.8H848.7l-96.3-305.4h415.4l-96.5 305.4zm291.3-42.8l-212.5 31.2 91.6-291.1 161.3 13.2-40.4 246.7zm51.2-312.9l-151.4-12.8 19-60.5 141.2 19.4-8.8 53.9z"/>
        <path class="st1" d="M762.3 768.4v48.9h-60.9V777c20.6-3.4 41-6.2 60.9-8.6z"/>
        <path class="st1" d="M1218.6 636.5v74.3c-20.9-3.3-41.3-6.1-60.7-8.4v-24.6c0-9.7-4-18.6-10.3-24.9-6.4-6.4-15.2-10.3-24.9-10.3-19.5 0-35.3 15.8-35.3 35.3v139.4H832.8V677.8c0-9.7-4-18.6-10.3-24.9-6.4-6.4-15.2-10.3-24.9-10.3-19.5 0-35.3 15.8-35.3 35.3v24.6c-19.5 2.3-39.9 5.1-60.9 8.4v-74.3c0-26.5 21.5-47.9 47.9-47.9h421.4c26.5-.1 47.9 21.3 47.9 47.8z"/>
        <path class="st1" d="M1157.9 768.4c19.8 2.4 40.2 5.2 60.7 8.5v40.3h-60.7v-48.8z"/>
        <path class="st1" d="M1157.9 677.8v139.4h-70.5V677.8c0-19.5 15.8-35.3 35.3-35.3 9.7 0 18.6 4 24.9 10.3 6.3 6.5 10.3 15.3 10.3 25z"/>
        <path class="st1" d="M832.8 677.8v139.4h-70.5V677.8c0-19.5 15.8-35.3 35.3-35.3 9.7 0 18.6 4 24.9 10.3 6.3 6.5 10.3 15.3 10.3 25z"/>
    </g>
</svg>
