<svg xmlns="http://www.w3.org/2000/svg" viewBox="0 0 1920 1920">
    <style>
        .st0{fill:#fff}.st1{fill:none;stroke:#231f20;stroke-width:50;stroke-linecap:round;stroke-linejoin:round;stroke-miterlimit:10}
    </style>
    <path class="st0" d="M1679.9 1175.9c-2.4 2.7-4.8 5.3-7.2 7.9-45.7 6.1-115.5 19.3-218.5 47.3-232.4 63-475.1-17.1-621.4-59.9-146.3-42.8-183.4-4.6-183.4-4.6l-148.7 65.1c-109.6 36.2-199.7 9.6-256.8-19.8-69.9-123.9 20.8-311.7 20.8-311.7l41.2-197.6 320.6-117.8c-8.2-78.2 82.8-134.7 82.8-134.7l50.3 85.8s48.8 86 151.8 200.6l8.1 9c16.4 18 40.2 36.1 69.3 54.1 26 16.1 56.2 32.1 89 47.6 28.9 13.7 59.9 27 91.8 39.8 160.2 64 345.3 114.4 422.3 125.6 48.5 7.1 76.7 26.6 93.1 48.3 26.1 34.4 23.5 82.6-5.1 115z" id="Layer_2"/>
    <path class="st0" d="M1672.6 1183.8c-45.7 6.1-115.5 19.3-218.5 47.3-232.4 63-475.1-17.1-621.4-59.9-146.3-42.8-183.4-4.6-183.4-4.6l-148.7 65.1c-109.6 36.2-199.7 9.6-256.8-19.8 24.4 43.3 68.4 78.7 142.7 95.6l41.4 100.2h45.8l34.8-89.9s256.1-104.8 598.1 0l41 89.9h43l33.8-87.5c47.2-1.1 104.4-4.8 163.2-14l33.4 66.7 47.5-10.1 8.7-75.4c16.4-4.4 32.5-9.4 48.3-15 15.8-5.6 31.2-11.9 46-18.8 8 9.5 39.6 52.3 39.6 52.3l37.5-18.5-10.3-73.3c12.4-9.4 23.9-19.4 34.3-30.3z" id="Layer_4"/>
    <g id="STROKES">
        <path class="st1" d="M759.6 535.8l-133.2 48.9c-8.2-78.2 82.8-134.7 82.8-134.7l50.4 85.8z"/>
        <path class="st1" d="M1679.9 1175.9c-2.4 2.7-4.8 5.3-7.2 7.9-45.7 6.1-115.5 19.3-218.5 47.3-232.4 63-475.1-17.1-621.4-59.9-146.3-42.7-183.4-4.6-183.4-4.6l-148.7 65.1c-109.6 36.2-199.7 9.6-256.7-19.8-69.9-123.8 20.7-311.7 20.7-311.7l41.2-197.6 320.6-117.8 133.2-48.9s51.3 90.6 160 209.6 543.1 248.2 672.4 267.1c48.5 7.1 76.7 26.6 93.1 48.3 25.9 34.4 23.3 82.6-5.3 115z"/>
        <path class="st1" d="M1672.6 1183.8c-10.5 10.9-22 20.9-34.3 30.2-20.2 15.2-42.8 28.3-66.8 39.5-29.6 13.9-61.5 25-94.3 33.8-29.5 8-59.7 14.1-89.5 18.8-58.8 9.3-115.9 13-163.2 14.1-69.7 1.6-117.8-2.4-117.8-2.4-342-104.8-598.1 0-598.1 0l-122-10.3c-74.3-16.9-118.3-52.4-142.7-95.6 57 29.3 147.2 55.9 256.7 19.8l148.7-65.1s37.1-38.1 183.4 4.6c146.3 42.8 389 122.9 621.4 59.9 103.1-28 172.8-41.2 218.5-47.3z"/>
        <path class="st1" d="M1224.6 1320.2l-33.8 87.5h-43l-41-89.9s48.1 4 117.8 2.4z"/>
        <path class="st1" d="M508.7 1317.8l-34.8 89.9h-45.8l-41.4-100.2z"/>
        <path class="st1" d="M1477.3 1287.3l-8.7 75.4-47.5 10.1-33.4-66.7c29.8-4.7 60-10.8 89.6-18.8z"/>
        <path class="st1" d="M1648.7 1287.3l-37.5 18.5s-31.7-42.8-39.6-52.3c24-11.2 46.5-24.3 66.8-39.5l10.3 73.3z"/>
        <path class="st1" d="M1638.3 1214l-.4-2.7"/>
        <path class="st1" d="M911.5 736.4l-54.1 88.3"/>
        <path class="st1" d="M988.9 799.6l-45.2 73.8"/>
        <path class="st1" d="M1077.9 847.1l-41.7 68.1"/>
        <path class="st1" d="M1169.7 886.9l-41.1 67.1"/>
    </g>
</svg>
