<svg xmlns="http://www.w3.org/2000/svg" viewBox="0 0 1920 1920">
    <style>
        .st0{fill:#fff}.st1,.st2{fill:none;stroke:#231f20;stroke-width:30;stroke-linecap:round;stroke-linejoin:round;stroke-miterlimit:10}.st2{stroke-width:50}
    </style>
    <path class="st0" d="M216.9 650.4H1703v615.8H216.9z" id="Layer_4"/>
    <g id="STROKES">
        <path class="st2" d="M216.9 650.4H1703v615.8H216.9z"/>
        <path class="st2" d="M363.7 1266.1V650.4"/>
        <path class="st2" d="M429.7 674.8v-24.4"/>
        <path class="st2" d="M429.7 897.3V873"/>
        <path class="st2" d="M429.7 1019.2v24.3"/>
        <path class="st2" d="M429.7 1241.8v24.3"/>
        <path class="st2" d="M495.7 1266.1V650.4"/>
        <path class="st2" d="M561.8 674.8v-24.4"/>
        <path class="st2" d="M561.8 897.3V873"/>
        <path class="st2" d="M561.8 1019.2v24.3"/>
        <path class="st2" d="M561.8 1241.8v24.3"/>
        <path class="st2" d="M627.8 1266.1V650.4"/>
        <path class="st2" d="M693.8 674.8v-24.4"/>
        <path class="st2" d="M693.8 897.3V873"/>
        <path class="st2" d="M693.8 1019.2v24.3"/>
        <path class="st2" d="M693.8 1241.8v24.3"/>
        <path class="st2" d="M759.8 1266.1V650.4"/>
        <path class="st2" d="M825.8 674.8v-24.4"/>
        <path class="st2" d="M825.8 897.3V873"/>
        <path class="st2" d="M825.8 1019.2v24.3"/>
        <path class="st2" d="M825.8 1241.8v24.3"/>
        <path class="st2" d="M891.8 1266.1V650.4"/>
        <path class="st2" d="M957.8 674.8v-24.4"/>
        <path class="st2" d="M957.8 897.3V873"/>
        <path class="st2" d="M957.8 1019.2v24.3"/>
        <path class="st2" d="M957.8 1241.8v24.3"/>
        <path class="st2" d="M1023.8 1266.1V650.4"/>
        <path class="st2" d="M1089.9 674.8v-24.4"/>
        <path class="st2" d="M1089.9 897.3V873"/>
        <path class="st2" d="M1089.9 1019.2v24.3"/>
        <path class="st2" d="M1089.9 1241.8v24.3"/>
        <path class="st2" d="M1155.9 1266.1V650.4"/>
        <path class="st2" d="M1221.9 674.8v-24.4"/>
        <path class="st2" d="M1221.9 897.3V873"/>
        <path class="st2" d="M1221.9 1019.2v24.3"/>
        <path class="st2" d="M1221.9 1241.8v24.3"/>
        <path class="st2" d="M1287.9 1266.1V650.4"/>
        <path class="st2" d="M1353.9 674.8v-24.4"/>
        <path class="st2" d="M1353.9 897.3V873"/>
        <path class="st2" d="M1353.9 1019.2v24.3"/>
        <path class="st2" d="M1353.9 1241.8v24.3"/>
        <path class="st2" d="M1419.9 1266.1V650.4"/>
        <path class="st2" d="M1485.9 674.8v-24.4"/>
        <path class="st2" d="M1485.9 897.3V873"/>
        <path class="st2" d="M1485.9 1019.2v24.3"/>
        <path class="st2" d="M1485.9 1241.8v24.3"/>
        <path class="st2" d="M1551.9 1266.1V650.4"/>
        <path class="st2" d="M254 1031.4h-37.1V885.2H254"/>
        <path class="st2" d="M1666 885.2h37.1v146.2H1666"/>
    </g>
</svg>
