<svg xmlns="http://www.w3.org/2000/svg" viewBox="0 0 1920 1920">
    <style>
        .st0{fill:#fff}.st1{fill:none;stroke:#231f20;stroke-width:50;stroke-linecap:round;stroke-linejoin:round;stroke-miterlimit:10}
    </style>
    <path class="st0" d="M1699.8 1300.9l-31.7 11.3-74.5 26.5-14.6 5.2-102.8 36.5-30.8 10.9-19.7 7c-28.6 10.2-57.9 18.1-87.6 23.9l-123.1-78.3-91.7 42.5-82.9-42.5-111.9 88-346.8-88-102.1 39.7-116.9-39.7-114.9 47.4c-73.1-147.7 1.4-301.6 43.6-427.4C336 830.3 262.9 565 262.9 565l190.5-45.8c48.3-131.4 270-137 270-137s13.8 226.8 19.4 332.1c20.4 48.2 44 94.6 70 129.7 6.8 9.2 15.4 18.9 25.4 29 20.1 20.2 46.4 41.9 77 64.1 25.2 18.2 53.3 36.6 83.6 54.8 27.7 16.6 57.2 33.1 87.8 48.8 141.4 72.8 306.3 131.1 427.7 131.1 228.8 0 185.5 129.1 185.5 129.1z" id="Layer_6"/>
    <path class="st0" d="M1425.6 1398.3c-28.1 10-56.9 17.8-86 23.5l-124.7-78-91.7 42.5-82.9-42.5-111.9 88-346.8-88-102.1 39.7-116.9-39.7-114.9 47.4c4.5 9 9.5 18.1 15.1 27 0 0 8.6 14.9 42.9 14.9h20.8l25 75.3h56.6l25-75.3h103.8l25 75.3h56.6l25-75.3h355l25 75.3h56.6l25-75.3h51.2l25 75.3h56.6l25.4-76.6c24.4-1.6 51.8-3.9 75.9-8.4l52.7 70.8 53.7-17.8v-85.1l-20 7z" id="Layer_7"/>
    <path class="st0" d="M1668.1 1312.1l-74.5 26.5 32 49.2 53.7-17.8z" id="Layer_5"/>
    <path class="st0" d="M1476.1 1380.3l49.2 66 53.7-17.8v-84.7z" id="Layer_8"/>
    <g id="STROKES">
        <path class="st1" d="M742.7 714.3c-49.7-117.4-80.3-245.5-80.3-245.5l-209 50.3c48.3-131.4 270-137 270-137s13.7 227 19.3 332.2z"/>
        <path class="st1" d="M1699.8 1300.9l-31.7 11.3-74.5 26.5-14.6 5.2-102.9 36.5-30.8 11-19.7 7c-28.6 10.2-57.9 18.1-87.6 23.9-24.8 4.8-49.8 8-75 9.7-13.3.9-26.6 1.3-39.9 1.3H305.8c-34.3 0-42.9-14.9-42.9-14.9-97.5-155.7-16.3-321 28.4-454.5C336 830.3 262.9 565 262.9 565l190.5-45.8 209-50.3s30.6 128 80.3 245.5c20.4 48.2 44 94.6 70 129.7 89.4 120.5 472.6 327.7 701.5 327.7 228.9 0 185.6 129.1 185.6 129.1z"/>
        <path class="st1" d="M433.1 1433.1l-25 75.4h-56.5l-25-75.4z"/>
        <path class="st1" d="M643.4 1433.1l-25 75.4h-56.6l-24.9-75.4z"/>
        <path class="st1" d="M1104.8 1433.1l-24.9 75.4h-56.6l-25-75.4z"/>
        <path class="st1" d="M1263 1431.8l-25.4 76.6H1181l-25-75.3h67.1c13.3 0 26.6-.4 39.9-1.3z"/>
        <path class="st1" d="M1445.3 1476.4l-53.7 17.8-53.6-72c29.7-5.7 59-13.7 87.6-23.9l19.7-7v85.1z"/>
        <path class="st1" d="M1579 1428.5l-53.7 17.8-49.2-66 102.9-36.5z"/>
        <path class="st1" d="M1679.3 1370l-53.7 17.8-32-49.2 74.5-26.5z"/>
        <path class="st1" d="M247.8 1391.2l114.8-47.4 116.9 39.7 102.1-39.7 346.8 88 111.9-88 82.9 42.5 91.7-42.5 123.1 78.3"/>
        <path class="st1" d="M838.1 873l-73.8 105.1"/>
        <path class="st1" d="M915.2 937.1l-69.2 98.5"/>
        <path class="st1" d="M998.8 991.9l-63.8 90.8"/>
        <path class="st1" d="M1086.6 1040.7l-63.2 89.8"/>
    </g>
</svg>
