<svg xmlns="http://www.w3.org/2000/svg" viewBox="0 0 1920 1920">
    <style>
        .st0{fill:#fff}.st1{fill:none;stroke:#231f20;stroke-width:50;stroke-linecap:round;stroke-linejoin:round;stroke-miterlimit:10}
    </style>
    <path class="st0" d="M474.1 1596.9l-.4-.1h-76.2c-21.5 0-34.5-23.7-22.9-41.8.8-1.2 1.6-2.5 2.4-3.7l-.2-.1H327c-24.7 0-40.2-19-41.5-39.1h-13.2c-33.8 0-57.6-33.9-45.4-65.4 1.3-3.3 2.8-6.5 4.5-9.6-70.4-112.3 139.3-159.6 168-162.3 285.2-27.2 505.2-192.7 505.2-192.7 319.4-299.7 183.9-807.2 183.9-807.2h614.7c-237.3 128.5-215.1 824.1-207.1 978.7 2 38.5-5.2 77.1-21.7 112-59.9 126.7-205.1 130.9-310.1 114.6-79.4-12.4-160.7 4.1-229 46.4-159.3 98.7-280.6 118.6-352.6 118.6-48.8 0-75-9.2-75-9.2-22.8 0-36.4-20.2-33.6-39.1z" id="Layer_2"/>
    <g id="STROKES">
        <path class="st1" d="M1088.4 274.8s135.5 507.6-183.9 807.2c0 0-220 165.5-505.2 192.7-28.6 2.7-238.3 50.1-168 162.3"/>
        <path class="st1" d="M399.3 1362.2s-143.8 10.6-172.5 84.5c-12.2 31.5 11.6 65.4 45.4 65.4h13.1"/>
        <path class="st1" d="M435.8 1427.4c-67.4 18.8-107 32.6-130.4 46.7-36.1 21.8-20.6 77.2 21.5 77.2h46.3"/>
        <path class="st1" d="M484 1496s-71.2-1.3-109.5 59.1c-11.5 18.1 1.5 41.8 22.9 41.8h76.2"/>
        <path class="st1" d="M621.1 1519.5s-52.8-7.8-134.5 56.3c-25.2 19.7-11.2 60.2 20.8 60.2 0 0 160.3 56.2 427.7-109.4 68.3-42.3 149.6-58.8 229-46.4 105 16.3 250.2 12.1 310.1-114.6 16.5-34.9 23.6-73.5 21.6-112-8-154.6-30.1-850.2 207.1-978.7"/>
    </g>
</svg>
