<svg xmlns="http://www.w3.org/2000/svg" viewBox="0 0 1920 1920">
    <style>
        .st0{fill:#fff}.st1{fill:none;stroke:#231f20;stroke-width:50;stroke-linecap:round;stroke-linejoin:round;stroke-miterlimit:10}
    </style>
    <path class="st0" d="M1703 1281.7c0 78.8-59.3 99.4-59.3 99.4l-25 1.6-173.3 11.1-67.2 4.3-111.8 7.2-39.2 2.5c-6.9.5-13.8.9-20.5 1.3-58.1 3.5-110.1 4.6-156.4 3.9-17.5-.3-34.2-.8-50.2-1.6-29.1-1.4-55.7-3.6-80-6.3-17.4-8.4-34.1-16.9-50.1-25.4-217.3-115.8-304.6-238.3-304.6-238.3-88.5 61.4-332.5 29.7-332.5 29.7-35.6-52.5 0-159.5 0-159.5l123.8-382.8H428s106.9-238.3 219.5-204.5c0 0 141.8-77.6 197.8 44.9l85.3-30.7c37.3-11.7 76.1 13.2 81 52 9.3 73.8 33.6 187.6 97.5 277 2.8 4 5.9 8 9.1 12.1 40.5 51.1 111.8 111.4 187.1 168 36.6 27.5 74.1 54.1 109.5 78.4 98.3 67.4 180.2 116.8 180.2 116.8s108 60.1 108 138.9z" id="Layer_9"/>
    <path class="st0" d="M920 1405.1c-31.7-3.6-59.4-8.2-83.6-13.4-132.2-28.5-185.8-72.3-185.8-72.3-27.4 5.7-28.2 7.4-52.5 10.8-36.7 5.1-70 7.7-100.2 8.3-40.8.8-75.9-2.1-106.1-7.4-80.5-14.2-126.5-46.1-152.1-73.5-.2-.2-.5-.5-.7-.8-20.6-22.2-24-55.3-8.7-81.4l2.5-4.3s244 31.8 332.5-29.7c0 0 87.3 122.5 304.6 238.3 16 8.5 32.7 17 50.1 25.4z" id="Layer_10"/>
    <path class="st0" d="M391.7 1331.1l-29 82.1h-68.2s-53.6-152.5-56.8-155.7h1.9c25.7 27.5 71.6 59.3 152.1 73.6z" id="Layer_11"/>
    <path class="st0" d="M1000 1411.4l-43.7 123.9h-68.2s-37.7-107.2-51.7-143.7c24.2 5.2 52 9.8 83.6 13.4 24.3 2.9 50.9 5 80 6.4z" id="Layer_12"/>
    <path class="st0" d="M1206.7 1409.2l-44.5 126.2H1094s-26.9-76.6-43.8-122.3c46.4.6 98.3-.5 156.5-3.9z" id="Layer_13"/>
    <path class="st0" d="M1378.2 1398.2l-28.4 80.5h-57.3s-13.4-38.2-26.1-73.3l111.8-7.2z" id="Layer_14"/>
    <path class="st0" d="M1618.8 1382.8l-51.2 145.1h-74.2s-29.7-84.4-47.9-134l173.3-11.1z" id="Layer_15"/>
    <g id="STROKES">
        <path class="st1" d="M1414.7 1026.1c-66 28-135.5 41-204.4 26.8-290.8-60-474.7-448.4-474.7-448.4l-88.2-180.1s141.8-77.6 197.8 44.9l85.3-30.7c37.3-11.7 76.1 13.2 81 52 9.3 73.8 33.6 187.6 97.5 277 55.5 77.7 191.6 180.2 305.7 258.5z"/>
        <path class="st1" d="M920 1405.1c-31.7-3.6-59.4-8.2-83.6-13.4-132.2-28.5-185.8-72.3-185.8-72.3-27.4 5.7-28.2 7.4-52.5 10.8-36.7 5.1-70 7.7-100.2 8.3-40.8.8-75.9-2.1-106.1-7.4-80.5-14.2-126.5-46.1-152.1-73.5-.2-.3-.5-.5-.7-.8-20.5-22.2-24-55.3-8.7-81.4l2.5-4.3s244 31.7 332.5-29.7c0 0 87.3 122.5 304.6 238.3 16 8.5 32.7 17 50.1 25.4z"/>
        <path class="st1" d="M1703 1281.7c0 78.8-59.3 99.4-59.3 99.4l-25 1.6-173.3 11.1-67.2 4.3-111.8 7.2-39.2 2.5c-6.9.5-13.8.9-20.5 1.3-58.1 3.5-110.1 4.6-156.4 3.8-17.5-.3-34.2-.8-50.2-1.6-29.1-1.4-55.7-3.6-80-6.3-17.4-8.4-34.1-16.9-50.1-25.4-217.3-115.8-304.6-238.3-304.6-238.3-88.5 61.4-332.5 29.7-332.5 29.7-35.6-52.5 0-159.5 0-159.5l123.8-382.8H428s106.9-238.3 219.5-204.5l88.2 180.1s183.9 388.4 474.7 448.4c68.9 14.2 138.4 1.3 204.4-26.8 98.3 67.4 180.2 116.8 180.2 116.8s108 60.2 108 139z"/>
        <path class="st1" d="M1000 1411.4l-43.7 123.9h-68.2s-37.7-107.2-51.7-143.7c24.2 5.2 52 9.8 83.6 13.4 24.3 2.9 50.9 5 80 6.4z"/>
        <path class="st1" d="M391.7 1331.1l-29 82.2h-68.2s-53.6-152.5-56.8-155.7h1.9c25.7 27.4 71.6 59.2 152.1 73.5z"/>
        <path class="st1" d="M598.1 1330.2l-17.4 49.5h-68.2s-6.2-17.7-14.6-41.2c30.1-.6 63.4-3.2 100.2-8.3z"/>
        <path class="st1" d="M1206.7 1409.2l-44.5 126.2H1094s-26.9-76.6-43.8-122.3c46.4.6 98.4-.5 156.5-3.9z"/>
        <path class="st1" d="M1618.7 1382.8l-51.2 145.1h-74.2s-29.7-84.4-47.9-134l173.3-11.1z"/>
        <path class="st1" d="M1378.2 1398.2l-28.4 80.5h-57.4s-13.4-38.2-26.1-73.3l111.9-7.2z"/>
        <path class="st1" d="M1118.1 779.7l-252.7 28.2"/>
        <path class="st1" d="M1202.2 864.8l-260.7 29.1"/>
        <path class="st1" d="M1305.2 947.7l-264.7 29.5"/>
        <path class="st1" d="M845.2 469.2S976 743.1 1109 767.6"/>
    </g>
</svg>
