<svg xmlns="http://www.w3.org/2000/svg" viewBox="0 0 1920 1920">
    <style>
        .st0{fill:#fff}.st1,.st2{fill:none;stroke:#231f20;stroke-width:30;stroke-linecap:round;stroke-linejoin:round;stroke-miterlimit:10}.st2{stroke-width:50}
    </style>
    <path class="st0" d="M216.9 650.4H1703v615.8H216.9z" id="Layer_5"/>
    <g id="STROKES">
        <path class="st1" d="M216.9 650.4H1703v615.8H216.9z"/>
        <path class="st1" d="M363.7 1266.1V650.4"/>
        <path class="st1" d="M452.8 674.8v-24.4"/>
        <path class="st1" d="M452.8 878.3v-24.4"/>
        <path class="st1" d="M452.8 1037.4v24.4"/>
        <path class="st1" d="M452.8 1241.8v24.3"/>
        <path class="st1" d="M406.7 674.8v-24.4"/>
        <path class="st1" d="M406.7 878.3v-24.4"/>
        <path class="st1" d="M406.7 1037.4v24.4"/>
        <path class="st1" d="M406.7 1241.8v24.3"/>
        <path class="st1" d="M584.8 674.8v-24.4"/>
        <path class="st1" d="M584.8 878.3v-24.4"/>
        <path class="st1" d="M584.8 1037.4v24.4"/>
        <path class="st1" d="M584.8 1241.8v24.3"/>
        <path class="st1" d="M538.7 674.8v-24.4"/>
        <path class="st1" d="M538.7 878.3v-24.4"/>
        <path class="st1" d="M538.7 1037.4v24.4"/>
        <path class="st1" d="M538.7 1241.8v24.3"/>
        <path class="st1" d="M716.8 674.8v-24.4"/>
        <path class="st1" d="M716.8 878.3v-24.4"/>
        <path class="st1" d="M716.8 1037.4v24.4"/>
        <path class="st1" d="M716.8 1241.8v24.3"/>
        <path class="st1" d="M670.8 674.8v-24.4"/>
        <path class="st1" d="M670.8 878.3v-24.4"/>
        <path class="st1" d="M670.8 1037.4v24.4"/>
        <path class="st1" d="M670.8 1241.8v24.3"/>
        <path class="st1" d="M848.8 674.8v-24.4"/>
        <path class="st1" d="M848.8 878.3v-24.4"/>
        <path class="st1" d="M848.8 1037.4v24.4"/>
        <path class="st1" d="M848.8 1241.8v24.3"/>
        <path class="st1" d="M802.8 674.8v-24.4"/>
        <path class="st1" d="M802.8 878.3v-24.4"/>
        <path class="st1" d="M802.8 1037.4v24.4"/>
        <path class="st1" d="M802.8 1241.8v24.3"/>
        <path class="st1" d="M980.9 674.8v-24.4"/>
        <path class="st1" d="M980.9 878.3v-24.4"/>
        <path class="st1" d="M980.9 1037.4v24.4"/>
        <path class="st1" d="M980.9 1241.8v24.3"/>
        <path class="st1" d="M934.8 674.8v-24.4"/>
        <path class="st1" d="M934.8 878.3v-24.4"/>
        <path class="st1" d="M934.8 1037.4v24.4"/>
        <path class="st1" d="M934.8 1241.8v24.3"/>
        <path class="st1" d="M1112.9 674.8v-24.4"/>
        <path class="st1" d="M1112.9 878.3v-24.4"/>
        <path class="st1" d="M1112.9 1037.4v24.4"/>
        <path class="st1" d="M1112.9 1241.8v24.3"/>
        <path class="st1" d="M1066.8 674.8v-24.4"/>
        <path class="st1" d="M1066.8 878.3v-24.4"/>
        <path class="st1" d="M1066.8 1037.4v24.4"/>
        <path class="st1" d="M1066.8 1241.8v24.3"/>
        <path class="st1" d="M1244.9 674.8v-24.4"/>
        <path class="st1" d="M1244.9 878.3v-24.4"/>
        <path class="st1" d="M1244.9 1037.4v24.4"/>
        <path class="st1" d="M1244.9 1241.8v24.3"/>
        <path class="st1" d="M1198.9 674.8v-24.4"/>
        <path class="st1" d="M1198.9 878.3v-24.4"/>
        <path class="st1" d="M1198.9 1037.4v24.4"/>
        <path class="st1" d="M1198.9 1241.8v24.3"/>
        <path class="st1" d="M1376.9 674.8v-24.4"/>
        <path class="st1" d="M1376.9 878.3v-24.4"/>
        <path class="st1" d="M1376.9 1037.4v24.4"/>
        <path class="st1" d="M1376.9 1241.8v24.3"/>
        <path class="st1" d="M1330.9 674.8v-24.4"/>
        <path class="st1" d="M1330.9 878.3v-24.4"/>
        <path class="st1" d="M1330.9 1037.4v24.4"/>
        <path class="st1" d="M1330.9 1241.8v24.3"/>
        <path class="st1" d="M1509 674.8v-24.4"/>
        <path class="st1" d="M1509 878.3v-24.4"/>
        <path class="st1" d="M1509 1037.4v24.4"/>
        <path class="st1" d="M1509 1241.8v24.3"/>
        <path class="st1" d="M1462.9 674.8v-24.4"/>
        <path class="st1" d="M1462.9 878.3v-24.4"/>
        <path class="st1" d="M1462.9 1037.4v24.4"/>
        <path class="st1" d="M1462.9 1241.8v24.3"/>
        <path class="st1" d="M495.7 1266.1V650.4"/>
        <path class="st1" d="M627.8 1266.1V650.4"/>
        <path class="st1" d="M759.8 1266.1V650.4"/>
        <path class="st1" d="M891.8 1266.1V650.4"/>
        <path class="st1" d="M1023.8 1266.1V650.4"/>
        <path class="st1" d="M1155.9 1266.1V650.4"/>
        <path class="st1" d="M1287.9 1266.1V650.4"/>
        <path class="st1" d="M1419.9 1266.1V650.4"/>
        <path class="st1" d="M1551.9 1266.1V650.4"/>
    </g>
</svg>
