<svg xmlns="http://www.w3.org/2000/svg" viewBox="0 0 1920 1920">
    <style>
        .st0{fill:#fff}.st1,.st2{fill:none;stroke:#231f20;stroke-width:30;stroke-linecap:round;stroke-linejoin:round;stroke-miterlimit:10}.st2{stroke-width:50}
    </style>
    <path class="st0" d="M216.9 652.1H1703v615.8H216.9z" id="Layer_6"/>
    <g id="STROKES">
        <path class="st1" d="M216.9 650.4H1703v615.8H216.9z"/>
        <path class="st1" d="M363.7 1266.1V650.4"/>
        <path class="st1" d="M429.7 1182.4v83.7"/>
        <path class="st1" d="M561.8 1182.4v83.7"/>
        <path class="st1" d="M693.8 1182.4v83.7"/>
        <path class="st1" d="M825.8 1182.4v83.7"/>
        <path class="st1" d="M957.8 1182.4v83.7"/>
        <path class="st1" d="M1089.9 1182.4v83.7"/>
        <path class="st1" d="M1221.9 1182.4v83.7"/>
        <path class="st1" d="M1353.9 1182.4v83.7"/>
        <path class="st1" d="M1485.9 1182.4v83.7"/>
        <path class="st1" d="M429.7 916.4v83.8"/>
        <path class="st1" d="M561.8 916.4v83.8"/>
        <path class="st1" d="M693.8 916.4v83.8"/>
        <path class="st1" d="M825.8 916.4v83.8"/>
        <path class="st1" d="M957.8 916.4v83.8"/>
        <path class="st1" d="M1089.9 916.4v83.8"/>
        <path class="st1" d="M1221.9 916.4v83.8"/>
        <path class="st1" d="M1353.9 916.4v83.8"/>
        <path class="st1" d="M1485.9 916.4v83.8"/>
        <path class="st1" d="M429.7 650.4v83.8"/>
        <path class="st1" d="M561.8 650.4v83.8"/>
        <path class="st1" d="M693.8 650.4v83.8"/>
        <path class="st1" d="M825.8 650.4v83.8"/>
        <path class="st1" d="M957.8 650.4v83.8"/>
        <path class="st1" d="M1089.9 650.4v83.8"/>
        <path class="st1" d="M1221.9 650.4v83.8"/>
        <path class="st1" d="M1353.9 650.4v83.8"/>
        <path class="st1" d="M1485.9 650.4v83.8"/>
        <path class="st1" d="M495.7 1266.1V650.4"/>
        <path class="st1" d="M627.8 1266.1V650.4"/>
        <path class="st1" d="M759.8 1266.1V650.4"/>
        <path class="st1" d="M891.8 1266.1V650.4"/>
        <path class="st1" d="M1023.8 1266.1V650.4"/>
        <path class="st1" d="M1155.9 1266.1V650.4"/>
        <path class="st1" d="M1287.9 1266.1V650.4"/>
        <path class="st1" d="M1419.9 1266.1V650.4"/>
        <path class="st1" d="M1551.9 1266.1V650.4"/>
    </g>
</svg>
