<svg xmlns="http://www.w3.org/2000/svg" viewBox="0 0 1920 1920">
    <style>
        .st0{fill:#fff}.st1{fill:none;stroke:#231f20;stroke-width:50;stroke-linecap:round;stroke-linejoin:round;stroke-miterlimit:10}
    </style>
    <path class="st0" d="M1700 865.3s-13.1 4.1-33.1 6.6c-42.6 5.2-116.9 2.9-165.8-62.2-1.3.2-2.5.4-3.8.5l-3 .3c-.3 0-.5.1-.8.1-1 .1-1.9.2-2.9.3-.9.1-1.8.2-2.8.2h-.6c-2.2.2-4.4.3-6.6.4-.8 0-1.7.1-2.5.1-1.9.1-3.9.1-5.8.1h-6.2c-1.5 0-3-.1-4.5-.1h-1c-.4 0-.9 0-1.3-.1h-.9c-.5 0-1-.1-1.5-.1h-1.2c-.6 0-1.2-.1-1.8-.1-.4 0-.7-.1-1.1-.1-.5 0-.9-.1-1.4-.1-.5 0-.9-.1-1.4-.1-.2 0-.5 0-.8-.1-.2 0-.5-.1-.8-.1-3.4-.4-6.8-.8-10.3-1.4l-8.4-1.5c-.4-.1-.8-.2-1.2-.2h-.1c-.1 0-.2-.1-.3-.1-2-.4-4-.9-6-1.4l-2.4-.6c-3.4-.9-6.9-1.9-10.3-3-4-1.3-8-2.8-12-4.4-.1 0-.2-.1-.3-.1-17.2-7-31.2-15.5-42.5-25l-2.1-1.8c-1.5-1.3-3-2.7-4.5-4l-2.4-2.4c-5.2-5.2-9.8-10.5-13.8-16s-7.4-11-10.2-16.5c-42.5 36.2-85.9 86.8-107.2 152.5-5.2 16.1-9.1 33.2-11.3 51.1-14.4 117.5-14.9 294.1-13.2 410-75.3 11-160.6 16.2-160.6 16.2s-69.5 16.7-69.5-68.3V1243h.2v50.8c0 84.9-69.5 68.3-69.5 68.3s-85.3-5.2-160.6-16.2c1.7-115.8 1.2-292.4-13.2-410-2.2-18-6.1-35-11.3-51.1-21.2-65.7-64.6-116.2-107.2-152.5-5.8 11-13.5 22.2-24 32.5-.8.8-1.5 1.5-2.3 2.2-1.6 1.5-3.2 3-4.9 4.4-.6.6-1.3 1.1-1.9 1.6l-4.5 3.6c-.5.4-1 .8-1.6 1.2-.9.7-1.9 1.4-2.9 2.1-8.7 6.2-18.8 11.8-30.3 16.7-1.1.5-2.3 1-3.4 1.4-.5.2-1.1.4-1.6.6-3.1 1.2-6.1 2.3-9.2 3.4-3.8 1.3-7.7 2.4-11.5 3.4-.9.2-1.8.5-2.7.7-1.7.4-3.5.8-5.2 1.2-.3.1-.6.1-.9.2h-.1c-.4.1-.8.2-1.1.2-2.6.5-5.2 1-7.8 1.4-1.8.3-3.6.6-5.4.8s-3.6.5-5.4.7c-.5.1-1 .1-1.6.1-.4 0-.9.1-1.3.1s-.9.1-1.3.1-.8.1-1.2.1c-.6 0-1.2.1-1.8.1h-1.2c-.5 0-1 .1-1.5.1h-.9c-.4 0-.8 0-1.3.1h-1c-1.5.1-3 .1-4.5.1h-6.2c-1.9 0-3.9-.1-5.8-.1-.8 0-1.6-.1-2.5-.1-2.3-.1-4.6-.3-6.8-.4h-.3c-.9-.1-1.9-.2-2.8-.3-1-.1-1.9-.2-2.9-.3-.4 0-.7-.1-1.1-.1l-2.7-.3c-1.3-.2-2.5-.3-3.8-.5-48.8 65.1-123.1 67.4-165.8 62.2-20.1-2.5-33.1-6.6-33.1-6.6l65.9-135c-2.9-5.1-5.2-10.4-6.8-15.7-20.4-65.2 0-82.5 0-82.5 10.6-5.6 20-13 28.2-21.8 11.6-12.6 36.4-32.8 84.1-47.4 74.2-22.7 198.2 0 198.2 0l4.6 17.4h127.1c18.2 0 35.5 7 48.3 19.3 4.5 4.3 8.5 9.2 11.8 14.7 36.2 60 110.4 182.9 140.7 231.1 25.6 40.9 34 75.6 36.6 95.7v.1c.8 5.7 1.1 10.2 1.2 13.3v1c0-1 .1-2.3.2-3.7v-.7c.1-2 .3-4.3.6-6.9.1-.7.2-1.5.3-2.2.1-.8.2-1.5.3-2.3v-.1c2.9-20.3 11.4-54.3 36.4-94.3 30.2-48.2 104.5-171.1 140.7-231.1 3.3-5.5 7.3-10.5 11.9-14.8 12.9-12.2 30.1-19.2 48.3-19.2h127.1l4.6-17.4s123.9-22.7 198.2 0c47.7 14.6 72.5 34.8 84.1 47.4 8.1 8.8 17.6 16.2 28.2 21.8 0 0 20.4 17.3 0 82.5-1.6 5.3-3.9 10.5-6.8 15.7l65.9 135.5z" id="Layer_2"/>
    <path class="st0" d="M729.9 1345.9c-.2 0-.5-.1-.7-.1-75.5-11.1-70.7-83.4-70.7-83.4v-224.5c0-24.5-1.3-47.3-3.8-68.5-35.5 12.5-102.5 31.9-154.6 22.7-45.7-8-64.1-47.8-71.6-77.5-60.6 43.9-136.7 57.3-136.7 57.3L217 923.1l36.2-51.2c42.6 5.2 116.9 2.9 165.8-62.2 1.3.2 2.5.4 3.8.5l2.7.3c.4 0 .7.1 1.1.1 1 .1 1.9.2 2.9.3.9.1 1.9.2 2.8.3h.3c2.3.2 4.5.3 6.8.4.8 0 1.6.1 2.5.1 1.9.1 3.9.1 5.8.1h6.2c1.5 0 3-.1 4.5-.1h1c.4 0 .8 0 1.3-.1h.9c.5 0 1-.1 1.5-.1h1.2c.6 0 1.2-.1 1.8-.1.4 0 .8-.1 1.2-.1.4 0 .9-.1 1.3-.1s.9-.1 1.3-.1c.5 0 1-.1 1.6-.1 1.8-.2 3.6-.4 5.4-.7s3.6-.5 5.4-.8c2.6-.4 5.2-.9 7.8-1.4.4-.1.7-.2 1.1-.2h.1c.3-.1.6-.1.9-.2 1.7-.4 3.5-.8 5.2-1.2.9-.2 1.8-.4 2.7-.7 3.8-1 7.7-2.2 11.5-3.4 3.1-1 6.2-2.2 9.2-3.4.5-.2 1.1-.4 1.6-.6 1.2-.5 2.3-.9 3.4-1.4 11.5-4.9 21.5-10.5 30.3-16.7 1-.7 1.9-1.4 2.9-2.1.5-.4 1-.8 1.6-1.2 1.6-1.2 3.1-2.4 4.5-3.6.6-.5 1.3-1.1 1.9-1.6 1.7-1.4 3.3-2.9 4.9-4.4.8-.7 1.6-1.5 2.3-2.2 10.5-10.3 18.2-21.5 24-32.5 42.5 36.2 85.9 86.8 107.2 152.5 5.2 16.1 9.1 33.2 11.3 51.1 14.5 117.2 14.9 293.8 13.2 409.6z" id="Layer_4"/>
    <path class="st0" d="M1703.1 923.1l-74.8 48.9s-76.2-13.4-136.7-57.3c-7.5 29.6-25.9 69.4-71.6 77.5-52.1 9.2-119.1-10.2-154.6-22.7-2.4 21.2-3.8 44-3.8 68.5v224.5s4.7 72.3-70.7 83.4c-.2 0-.5.1-.7.1-1.7-115.8-1.2-292.4 13.2-410 2.2-18 6.1-35 11.3-51.1 21.2-65.7 64.6-116.2 107.2-152.5 2.9 5.5 6.3 11 10.2 16.5s8.5 10.8 13.8 16l2.4 2.4c1.4 1.4 2.9 2.7 4.5 4l2.1 1.8c11.4 9.5 25.4 18 42.5 25 .1 0 .2.1.3.1 4 1.6 8 3.1 12 4.4 3.4 1.1 6.9 2.1 10.3 3l2.4.6c2 .5 4 1 6 1.4.1 0 .2.1.3.1h.1c.4.1.8.2 1.2.2 2.8.6 5.6 1.1 8.4 1.5 3.4.6 6.9 1 10.3 1.4.2 0 .5 0 .8.1.2 0 .5 0 .8.1.5 0 .9.1 1.4.1.5 0 .9.1 1.4.1.4 0 .7.1 1.1.1.6 0 1.2.1 1.8.1h1.2c.5 0 1 .1 1.5.1h.9c.4 0 .9 0 1.3.1h1c1.5.1 3 .1 4.5.1h6.2c1.9 0 3.9-.1 5.8-.1.8 0 1.7-.1 2.5-.1 2.2-.1 4.4-.2 6.6-.4h.6c.9-.1 1.8-.2 2.8-.2 1-.1 1.9-.2 2.9-.3.3 0 .6-.1.8-.1l3-.3c1.3-.2 2.5-.3 3.8-.5 48.8 65.1 123.2 67.4 165.8 62.2l35.9 51.2z" id="Layer_16"/>
    <path class="st0" d="M958.8 941.3c-2.7-20.1-11-54.8-36.6-95.7-30.2-48.3-104.5-171.2-140.7-231.2-3.3-5.5-7.3-10.4-11.8-14.7 13.3-21 35.3-31.9 71.5-15.2 87.1 40.2 112.2 286.7 117.6 356.8z" id="Layer_5"/>
    <path class="st0" d="M1150.4 599.7c-4.6 4.3-8.6 9.2-11.9 14.8-36.2 60-110.4 182.9-140.7 231.1-25 40-33.6 74-36.4 94.3 5.6-71.9 30.9-315.5 117.5-355.4 36.3-16.7 58.3-5.8 71.5 15.2z" id="Layer_17"/>
    <g id="STROKES">
        <path class="st1" d="M611.1 696.9c-2.4 10.9-6.3 23.2-12.8 35.5-5.8 11-13.5 22.2-24 32.5-12.8 12.7-29.7 24.3-51.8 33.2-7.4 3-14.9 5.4-22.3 7.4-2.9.8-5.8 1.5-8.7 2.1l-1.2.3c-6.2 1.3-12.5 2.2-18.7 2.9-1 .1-1.9.2-2.9.3-.8.1-1.7.2-2.5.2-.6 0-1.2.1-1.8.1-.4 0-.8.1-1.2.1-.5 0-1 .1-1.5.1h-.9c-.7 0-1.3.1-2 .1h-.3c-1.5.1-3 .1-4.5.1h-6.2c-1.9 0-3.9-.1-5.8-.1-3.2-.1-6.4-.3-9.6-.6-1-.1-1.9-.2-2.9-.3-1-.1-1.9-.2-2.9-.3-1.3-.1-2.5-.3-3.8-.5-1.3-.2-2.5-.3-3.8-.5-32.7-4.8-63.1-16.8-87.4-32.9-20.1-13.3-36-29.4-45.6-46.5-2.9-5.1-5.2-10.4-6.8-15.7-20.4-65.2 0-82.5 0-82.5 10.6-5.6 20-13 28.2-21.8 11.6-12.6 36.4-32.8 84.1-47.4 74.2-22.7 198.2 0 198.2 0l4.6 17.4 19.8 75.2c0 .3 2.1 18-3 41.6z"/>
        <path class="st1" d="M419 809.7c-48.8 65.1-123.2 67.4-165.8 62.2-20.1-2.5-33.1-6.6-33.1-6.6l65.9-135c9.5 17 25.4 33.1 45.6 46.5 24.2 16.1 54.7 28.1 87.4 32.9z"/>
        <path class="st1" d="M729.9 1345.9c-.2 0-.5-.1-.7-.1-75.5-11.1-70.7-83.4-70.7-83.4v-224.5c0-24.5-1.3-47.3-3.8-68.5-11.5-101-47.5-165.4-80.4-204.5 10.5-10.3 18.2-21.5 24-32.5 42.5 36.2 85.9 86.8 107.2 152.5 5.2 16.1 9.1 33.2 11.3 51.1 14.4 117.5 14.8 294.1 13.1 409.9z"/>
        <path class="st1" d="M960 958.8c-.1-2.3-.5-8.4-1.2-17.4 1.2 9 1.3 15 1.2 17.4z"/>
        <path class="st1" d="M500.1 805.5c-7.1 48.6-36.8 83.9-71.6 109.1-60.6 43.9-136.7 57.3-136.7 57.3L217 923.1l36.2-51.2c42.6 5.2 116.9 2.9 165.8-62.2 1.3.2 2.5.4 3.8.5 1.3.2 2.5.3 3.8.5 1 .1 1.9.2 2.9.3 1 .1 1.9.2 2.9.3 3.2.3 6.4.5 9.6.6 1.9.1 3.9.1 5.8.1h6.2c1.5 0 3-.1 4.5-.1h.3c.7 0 1.3-.1 2-.1h.9c.5 0 1-.1 1.5-.1.4 0 .8 0 1.2-.1.6 0 1.2-.1 1.8-.1.8-.1 1.7-.1 2.5-.2 1-.1 1.9-.2 2.9-.3 6.2-.7 12.5-1.6 18.7-2.9.4-.1.8-.2 1.3-.3 2.7-.8 5.6-1.5 8.5-2.3z"/>
        <path class="st1" d="M654.7 969.4c-35.5 12.5-102.5 31.9-154.6 22.7-45.7-8-64.1-47.8-71.6-77.5 34.8-25.2 64.5-60.5 71.6-109.1 7.5-2 15-4.4 22.3-7.4 22.1-8.9 39-20.5 51.8-33.2 33 39.1 69 103.5 80.5 204.5z"/>
        <path class="st1" d="M1640.9 714.7c-1.6 5.3-3.9 10.5-6.8 15.7-9.5 17-25.4 33.1-45.6 46.5-24.3 16.1-54.7 28.1-87.4 32.9-1.3.2-2.5.4-3.8.5-1.3.2-2.5.3-3.8.5-1 .1-1.9.2-2.9.3-1 .1-1.9.2-2.9.3-3.2.3-6.4.5-9.6.6-1.9.1-3.9.1-5.8.1h-6.2c-1.5 0-3-.1-4.5-.1h-.3c-.7 0-1.3-.1-2-.1h-.9c-.5 0-1-.1-1.5-.1-.4 0-.8 0-1.2-.1-.6 0-1.2-.1-1.8-.1-.8-.1-1.7-.1-2.5-.2-.9-.1-1.9-.2-2.9-.3-6.2-.7-12.5-1.6-18.7-2.9l-1.2-.3c-2.9-.6-5.8-1.3-8.7-2.1-7.5-2-14.9-4.4-22.3-7.4-22.1-8.9-39-20.5-51.8-33.2-10.4-10.3-18.2-21.5-24-32.5-6.4-12.3-10.4-24.5-12.8-35.5-5.1-23.6-3-41.3-3-41.3l19.8-75.2 4.6-17.4s123.9-22.7 198.2 0c47.7 14.6 72.5 34.8 84.1 47.4 8.1 8.8 17.6 16.2 28.2 21.8 0-.3 20.4 17 0 82.2z"/>
        <path class="st1" d="M1501.1 809.7c48.8 65.1 123.2 67.4 165.8 62.2 20.1-2.5 33.1-6.6 33.1-6.6l-65.9-135c-9.5 17-25.4 33.1-45.6 46.5-24.2 16.1-54.7 28.1-87.4 32.9z"/>
        <path class="st1" d="M1261.6 1037.9v224.5s4.7 72.3-70.7 83.4c-.2 0-.5.1-.7.1-1.7-115.8-1.2-292.4 13.2-410 2.2-18 6.1-35 11.3-51.1 21.2-65.7 64.6-116.2 107.2-152.5 5.8 11 13.6 22.2 24 32.5-32.9 39.1-68.9 103.5-80.4 204.5-2.5 21.3-3.9 44.1-3.9 68.6z"/>
        <path class="st1" d="M961.5 940c-1 12.6-1.4 19.9-1.4 19.9v-.4c-.1-1.6-.2-8.6 1.4-19.5z"/>
        <path class="st1" d="M1420 805.5c7.1 48.6 36.8 83.9 71.6 109.1 60.6 43.9 136.7 57.3 136.7 57.3l74.8-48.8-36.2-51.2c-42.6 5.2-116.9 2.9-165.8-62.2-1.3.2-2.5.4-3.8.5-1.3.2-2.5.3-3.8.5-1 .1-1.9.2-2.9.3-1 .1-1.9.2-2.9.3-3.2.3-6.4.5-9.6.6-1.9.1-3.9.1-5.8.1h-6.2c-1.5 0-3-.1-4.5-.1h-.3c-.7 0-1.3-.1-2-.1h-.9c-.5 0-1-.1-1.5-.1-.4 0-.8 0-1.2-.1-.6 0-1.2-.1-1.8-.1-.8-.1-1.7-.1-2.5-.2-1-.1-1.9-.2-2.9-.3-6.2-.7-12.5-1.6-18.7-2.9-.4-.1-.8-.2-1.3-.3-2.7-.8-5.6-1.5-8.5-2.3z"/>
        <path class="st1" d="M1265.4 969.4c35.5 12.5 102.5 31.9 154.6 22.7 45.7-8 64.1-47.8 71.6-77.5-34.8-25.2-64.5-60.5-71.6-109.1-7.5-2-15-4.4-22.3-7.4-22.1-8.9-39-20.5-51.8-33.2-33 39.1-69 103.5-80.5 204.5z"/>
        <path class="st1" d="M916.4 1002.5h87.4"/>
        <path class="st1" d="M916.4 1243h87.4"/>
        <path class="st1" d="M916.4 1162.9l87.4-80.2"/>
        <path class="st1" d="M916.4 1082.7l87.4 80.2"/>
        <path class="st1" d="M1309 696.9c2.4 10.9 6.3 23.2 12.8 35.5-42.5 36.2-85.9 86.8-107.2 152.5-5.2 16.1-9.1 33.2-11.3 51.1-14.4 117.5-14.9 294.1-13.2 410-75.3 11-160.6 16.2-160.6 16.2s-69.5 16.7-69.5-68.3v-334s.4-7.3 1.4-19.9v-.1c2.9-20.3 11.4-54.3 36.4-94.3 30.2-48.2 104.5-171.1 140.7-231.1 3.3-5.5 7.3-10.5 11.9-14.8 12.9-12.2 30.1-19.2 48.3-19.2h127.1l-19.8 75.2c0-.1-2.1 17.6 3 41.2z"/>
        <path class="st1" d="M1150.4 599.7c-4.6 4.3-8.6 9.2-11.9 14.8-36.2 60-110.4 182.9-140.7 231.1-25 40-33.6 74-36.4 94.3 5.6-71.9 30.9-315.5 117.5-355.4 36.3-16.7 58.3-5.8 71.5 15.2z"/>
        <path class="st1" d="M960 958.8v335.1c0 84.9-69.5 68.3-69.5 68.3s-85.3-5.2-160.6-16.2c1.7-115.8 1.2-292.4-13.2-410-2.2-18-6.1-35-11.3-51.1-21.2-65.7-64.6-116.2-107.2-152.5 6.5-12.3 10.4-24.5 12.8-35.5 5.1-23.6 3-41.3 3-41.3l-19.8-75.2h127.1c18.2 0 35.5 7 48.3 19.3 4.5 4.3 8.5 9.2 11.8 14.7 36.2 60 110.4 182.9 140.7 231.1 25.6 40.9 34 75.6 36.6 95.7v.1c.8 9.1 1.2 15.1 1.3 17.5z"/>
        <path class="st1" d="M958.8 941.3c-2.7-20.1-11-54.8-36.6-95.7-30.2-48.3-104.5-171.2-140.7-231.2-3.3-5.5-7.3-10.4-11.8-14.7 13.3-21 35.3-31.9 71.5-15.2 87.1 40.2 112.2 286.7 117.6 356.8z"/>
        <path class="st1" d="M960.1 959.9c-.1-.3-.1-.6-.1-1.1v.6c.1.3.1.5.1.5z"/>
    </g>
</svg>
