<svg xmlns="http://www.w3.org/2000/svg" viewBox="0 0 1920 1920">
    <style>
        .st0{fill:#fff}.st1,.st2{fill:none;stroke:#231f20;stroke-width:30;stroke-linecap:round;stroke-linejoin:round;stroke-miterlimit:10}.st2{stroke-width:50}
    </style>
    <path class="st0" d="M214.8 653h1486.1v615.8H214.8z" id="Layer_9"/>
    <g id="STROKES">
        <path class="st1" d="M214.8 651.3h1486.1v615.8H214.8z"/>
        <path class="st1" d="M361.6 1267V651.3"/>
        <path class="st1" d="M427.6 880.8v-24.3"/>
        <path class="st1" d="M427.6 1040v24.3"/>
        <path class="st1" d="M559.6 880.8v-24.3"/>
        <path class="st1" d="M559.6 1040v24.3"/>
        <path class="st1" d="M691.6 880.8v-24.3"/>
        <path class="st1" d="M691.6 1040v24.3"/>
        <path class="st1" d="M823.6 880.8v-24.3"/>
        <path class="st1" d="M823.6 1040v24.3"/>
        <path class="st1" d="M955.7 880.8v-24.3"/>
        <path class="st1" d="M955.7 1040v24.3"/>
        <path class="st1" d="M1087.7 880.8v-24.3"/>
        <path class="st1" d="M1087.7 1040v24.3"/>
        <path class="st1" d="M1219.7 880.8v-24.3"/>
        <path class="st1" d="M1219.7 1040v24.3"/>
        <path class="st1" d="M1351.7 880.8v-24.3"/>
        <path class="st1" d="M1351.7 1040v24.3"/>
        <path class="st1" d="M1483.8 880.8v-24.3"/>
        <path class="st1" d="M1483.8 1040v24.3"/>
        <path class="st1" d="M493.6 1267V651.3"/>
        <path class="st1" d="M625.6 1267V651.3"/>
        <path class="st1" d="M757.6 1267V651.3"/>
        <path class="st1" d="M889.7 1267V651.3"/>
        <path class="st1" d="M1021.7 1267V651.3"/>
        <path class="st1" d="M1153.7 1267V651.3"/>
        <path class="st1" d="M1285.7 1267V651.3"/>
        <path class="st1" d="M1417.8 1267V651.3"/>
        <path class="st1" d="M1549.8 1267V651.3"/>
    </g>
</svg>
