<svg xmlns="http://www.w3.org/2000/svg" viewBox="0 0 1920 1920">
    <style>
        .st0{fill:#fff}.st1{fill:none;stroke:#231f20;stroke-width:50;stroke-linecap:round;stroke-linejoin:round;stroke-miterlimit:10}
    </style>
    <path class="st0" d="M1703.1 702.7v514.6c0 77.2-60.1 146.7-156.1 195.5-.1 0-.1 0-.1.1h-361V1119h-80.1v45.2H814.4V1119h-80.1v293.9H373.2c-96.1-48.8-156.2-118.4-156.2-195.6V702.7c0 77.2 60.1 146.8 156.2 195.6h1173.6c96.1-48.8 156.3-118.3 156.3-195.6z" id="Layer_6"/>
    <path class="st0" d="M734.3 1119h80.1v293.9h-80.1z" id="Layer_7"/>
    <path class="st0" d="M1105.7 1119h80.1v293.9h-80.1z" id="Layer_15"/>
    <path class="st0" d="M814.4 1164.2h291.3v248.7H814.4z" id="Layer_8"/>
    <path class="st0" d="M1613.6 665.4c0 38-20.7 73.7-56.8 104.5-15.5 13.2-32.2 23.9-49.7 31.8-25.7 11.8-53.1 17.8-80.8 17.8h-34.2l-18.2-78.8-.2-.3-.2.3h-827l-18.2 78.8h-34.7c-46.5 0-92.1-16.9-130.5-49.6-36.1-30.8-56.8-66.5-56.8-104.5 0-30.4 13.2-59.3 37-85.5 19-20.9 42.7-37.5 69.1-49.1 28.9-12.8 61.2-19.6 94.2-19.6h906.6c16.5 0 32.9 1.7 48.7 5l.5.1h.1c1.5.4 6.3 1.7 31.2 8.9 1.9.7 3.7 1.4 5.6 2.1l8.2 3.5c26.3 11.6 49.9 28.2 68.9 49 24 26.2 37.2 55.2 37.2 85.6z" id="Layer_9"/>
    <path class="st0" d="M1661 594.3c-35.8-43.9-86-72.8-140.8-83-14.7-2.8-29.7-4.2-44.8-4.2H444.6c-15.1 0-30.1 1.4-44.7 4.1-54.9 10.2-105.1 39.1-140.9 83-27 33.1-42.1 69.8-42.1 108.4 0 77.2 60.1 146.8 156.2 195.6h1173.6c96.1-48.8 156.2-118.4 156.2-195.6.2-38.5-14.9-75.2-41.9-108.3zm-104.2 175.6c-15.5 13.2-32.2 23.9-49.7 31.8-25.7 11.8-53.1 17.8-80.8 17.8H493.7c-46.5 0-92.1-16.9-130.5-49.6-36.1-30.8-56.8-66.5-56.8-104.5 0-30.4 13.2-59.3 37-85.5 19-20.9 42.7-37.5 69.1-49.1 28.9-12.8 61.2-19.6 94.2-19.6h906.6c16.5 0 32.9 1.7 48.7 5l.5.1h.1c10.7 2.2 21.1 5.2 31.2 8.9 1.9.7 3.7 1.4 5.6 2.1l8.2 3.5c26.3 11.6 49.9 28.2 68.9 49 23.8 26.1 37 55 37 85.5.1 38.1-20.6 73.8-56.7 104.6z" id="Layer_16"/>
    <path class="st0" d="M1392.1 819.5H528.4l18.2-78.9h827l.1-.2.2.2z" id="Layer_10"/>
    <g id="STROKES">
        <path class="st1" d="M1613.6 665.4c0 38-20.7 73.7-56.8 104.5-38.4 32.7-84 49.6-130.5 49.6H493.7c-46.5 0-92.1-16.9-130.5-49.6-36.1-30.8-56.8-66.5-56.8-104.5 0-30.4 13.2-59.3 37-85.5 19-20.9 42.7-37.5 69.1-49.1 28.9-12.8 61.2-19.6 94.2-19.6h906.6c33.1 0 65.4 6.8 94.3 19.6 26.3 11.6 49.9 28.2 68.9 49 23.9 26.2 37.1 55.2 37.1 85.6z"/>
        <path class="st1" d="M1661 594.3c-35.8-43.9-86-72.8-140.8-83-14.7-2.8-29.7-4.2-44.8-4.2H444.6c-15.1 0-30.1 1.4-44.7 4.1-54.9 10.2-105.1 39.1-140.9 83-27 33.1-42.1 69.8-42.1 108.4 0 77.2 60.1 146.8 156.2 195.6h1173.6c96.1-48.8 156.2-118.4 156.2-195.6.2-38.5-14.9-75.2-41.9-108.3zm-104.2 175.6c-38.4 32.7-84 49.6-130.5 49.6H493.7c-46.5 0-92.1-16.9-130.5-49.6-36.1-30.8-56.8-66.5-56.8-104.5 0-30.4 13.2-59.3 37-85.5 19-20.9 42.7-37.5 69.1-49.1 28.9-12.8 61.2-19.6 94.2-19.6h906.6c33.1 0 65.4 6.8 94.3 19.6 26.3 11.6 49.9 28.2 68.9 49 23.8 26.1 37 55 37 85.5.1 38.1-20.6 73.8-56.7 104.6z"/>
        <path class="st1" d="M1613.6 665.4c0 38-20.7 73.7-56.8 104.5-38.4 32.7-84 49.6-130.5 49.6H493.7c-46.5 0-92.1-16.9-130.5-49.6-36.1-30.8-56.8-66.5-56.8-104.5 0-30.4 13.2-59.3 37-85.5 19-20.9 42.7-37.5 69.1-49.1 28.9-12.8 61.2-19.6 94.2-19.6h906.6c33.1 0 65.4 6.8 94.3 19.6 26.3 11.6 49.9 28.2 68.9 49 23.9 26.2 37.1 55.2 37.1 85.6z"/>
        <path class="st1" d="M1546.9 898.3v514.5c-.1 0-.1.1-.1.1H373.2V898.3h1173.7z"/>
        <path class="st1" d="M1546.9 1412.8l-.1.1c.1 0 .1-.1.1-.1z"/>
        <path class="st1" d="M373.2 898.3v514.5C277.1 1364 217 1294.4 217 1217.2V702.7c-.1 77.2 60.1 146.8 156.2 195.6z"/>
        <path class="st1" d="M1703.1 702.7v514.5c0 77.2-60.1 146.7-156.1 195.5V898.3h-.1c96-48.8 156.2-118.4 156.2-195.6z"/>
        <path class="st1" d="M412.5 530.8l134.1 209.8h827l134.1-209.7"/>
        <path class="st1" d="M1520.2 511.2v.1"/>
        <path class="st1" d="M546.6 740.6l-18.2 78.9"/>
        <path class="st1" d="M1392.1 819.5l-18.2-78.9"/>
        <path class="st1" d="M734.3 1119h80.1v293.5h-80.1z"/>
        <path class="st1" d="M1105.7 1119h80.1v293.5h-80.1z"/>
        <path class="st1" d="M1105.7 1164.2H814.4"/>
        <path class="st1" d="M960.1 1412.6v-126.9"/>
    </g>
</svg>
