<svg xmlns="http://www.w3.org/2000/svg" viewBox="0 0 1920 1920">
    <style>
        .st0{fill:#fff}.st1{fill:none;stroke:#231f20;stroke-width:50;stroke-linecap:round;stroke-linejoin:round;stroke-miterlimit:10}
    </style>
    <path class="st0" d="M1072.2 523.7l-15.3 149.4-16.6 162.7-16.7 162.8-16.6 162.8-47 459.2-47-459.2-16.6-162.8-16.7-162.8-16.6-162.7-15.3-149.4z" id="Layer_2"/>
    <path class="st0" d="M1083.3 340.2c0 68.1-55.2 123.3-123.3 123.3s-123.3-55.2-123.3-123.3S891.9 216.9 960 216.9s123.3 55.2 123.3 123.3z" id="Layer_4"/>
    <g id="STROKES">
        <path class="st1" d="M960 523.7H847.8L960 1620.6l112.2-1096.9z"/>
        <path class="st1" d="M1056.9 673.1H863.1"/>
        <path class="st1" d="M1040.3 835.8H879.7"/>
        <path class="st1" d="M1023.6 998.6H896.4"/>
        <path class="st1" d="M1007 1161.4h-94"/>
        <path class="st1" d="M960 1620.6v82.5"/>
        <path class="st1" d="M960 523.7v-60.2"/>
        <circle class="st1" cx="960" cy="340.2" r="45.9"/>
        <circle class="st1" cx="960" cy="340.2" r="123.3"/>
    </g>
</svg>
