<svg xmlns="http://www.w3.org/2000/svg" viewBox="0 0 1920 1920">
    <style>
        .st0{fill:#fff}.st1,.st2{fill:none;stroke-miterlimit:10}.st1{stroke-linecap:round;stroke-linejoin:round;stroke:#231f20;stroke-width:50}.st2{stroke:#202020;stroke-width:59.1023}
    </style>
    <path class="st0" d="M1701.8 662.8c-1.5 47.9-6.5 98.9-16.6 152.1-3.7 19.5-8.1 39.3-13.2 59.4-2.3 9.1-4.8 18.3-7.4 27.5-2.5 8.8-5.2 17.6-8 26.5l-.9 2.7c-1.7 5.1-3.3 10.3-5.1 15.5-1.9 5.6-3.9 11.2-5.9 16.9-2.7 7.5-5.5 15.1-8.4 22.7l-4.5 11.4c-1 2.4-2 4.9-3 7.4-1.3 3.3-2.7 6.5-4.1 9.8-1.6 3.8-3.2 7.6-4.9 11.5-7.9 18.2-16.6 36.4-25.9 54.8-1.5 2.9-3 5.8-4.5 8.8-3 5.8-6.1 11.6-9.3 17.4-1.1 1.9-2.1 3.9-3.2 5.8-3.2 5.8-6.5 11.7-9.9 17.5-2.2 3.9-4.5 7.8-6.9 11.7-3.5 5.8-7 11.7-10.7 17.5l-8.7 13.8c-1.6 2.5-3.3 5.1-4.9 7.6-.9 1.3-1.8 2.7-2.6 4-1.4 2.1-2.8 4.2-4.2 6.2-2.4 3.5-4.8 7-7.2 10.6-2.4 3.5-4.9 7-7.3 10.6-5.5 7.8-11.2 15.7-17 23.5-3.2 4.4-6.5 8.8-9.9 13.1-2.3 3-4.6 6-7 9.1-5.8 7.4-11.7 14.8-17.7 22.2-2 2.5-4.1 5-6.2 7.5-2.2 2.6-4.3 5.2-6.5 7.8-2.8 3.3-5.7 6.7-8.6 10-20.5 23.8-42.5 47.5-66.1 71.1-9.8 9.8-19.7 19.4-29.6 28.7-3.6 3.4-7.3 6.8-10.9 10.1-8 7.3-15.9 14.5-23.9 21.4-2.2 2-4.5 3.9-6.7 5.8-3.3 2.9-6.7 5.7-10 8.6-4.6 3.9-9.1 7.7-13.7 11.4-2.5 2-4.9 4-7.4 6-8.9 7.2-17.8 14.2-26.8 21-3.4 2.6-6.8 5.2-10.3 7.7l-9 6.6c-3.4 2.5-6.8 4.9-10.2 7.3-3.9 2.8-7.8 5.6-11.8 8.3-2.6 1.8-5.2 3.6-7.7 5.3-3.3 2.2-6.6 4.5-9.9 6.7-5.9 3.9-11.7 7.8-17.6 11.5-5.9 3.8-11.7 7.4-17.6 11-2.7 1.7-5.5 3.3-8.2 5-1.9 1.1-3.8 2.3-5.7 3.4-6 3.5-11.9 7-17.9 10.4-3 1.7-6.1 3.4-9.1 5.1-5.8 3.2-11.7 6.4-17.5 9.5-3.9 2-7.8 4.1-11.6 6.1-5.8 3-11.6 5.9-17.4 8.7-5.8 2.8-11.6 5.6-17.3 8.3-11.5 5.4-23 10.5-34.5 15.3l-11.4 4.8c-1.9.8-3.8 1.5-5.7 2.3l-11.4 4.5c-3.8 1.5-7.6 2.9-11.4 4.3-111.4 41.5-217.5 58.2-311.8 61.1-31.3 1-61.2.4-89.7-1.2-22.1-1.3-43.3-3.3-63.4-5.7-8.6-1.1-17-2.2-25.2-3.4-13.7-2-26.8-4.2-39.4-6.6-5-.9-9.9-1.9-14.8-2.9-7.2-1.5-14.2-3-21-4.5-4.5-1-8.9-2.1-13.2-3.1-25.8-6.2-47.8-12.7-65.4-18.4-2.9-1-5.7-1.9-8.4-2.8-4-1.4-7.8-2.7-11.2-3.9-2.3-.8-4.5-1.6-6.5-2.4-14.3-5.3-22.2-8.8-22.7-9-11.1-16.9-22.1-37.8-31.8-63.4-1.1-2.8-2.2-5.8-3.2-8.7-1.6-4.4-3.1-9-4.6-13.8-1-3.2-2-6.4-2.9-9.6s-1.9-6.6-2.8-10c-1.8-6.8-3.5-13.8-5.1-21.2-1.2-5.5-2.3-11.1-3.4-16.9-.7-3.9-1.4-7.8-2.1-11.8-.3-2-.7-4-1-6-1.6-10.2-2.9-20.7-4.1-31.8-.7-6.6-1.3-13.4-1.8-20.3-1.4-18.5-2.1-38.2-2.1-59.1 0-28.8 1.4-59.8 4.4-93.4 5.5 7.6 11 15.1 16.6 22.5 5.4 7.2 10.9 14.4 16.3 21.4 6.4 8.2 12.8 16.4 19.3 24.4 2.5 3.1 5.1 6.2 7.6 9.3 11.9 14.5 23.8 28.6 35.8 42.4 3.4 3.9 6.8 7.8 10.3 11.7 5.1 5.8 10.3 11.5 15.4 17.1 5.1 5.6 10.3 11.2 15.4 16.7 3.4 3.7 6.8 7.3 10.2 10.9 5.1 5.4 10.2 10.7 15.3 15.9 6.3 6.5 12.6 13 18.9 19.2 3.8 3.8 7.5 7.5 11.3 11.2 5 4.9 9.9 9.8 14.9 14.5 29.6 28.6 58.1 54.3 84.5 77l8.7 7.5c2.9 2.4 5.7 4.9 8.6 7.2 2.8 2.4 5.6 4.7 8.4 7 2.8 2.3 5.5 4.5 8.2 6.8 4.1 3.3 8 6.6 12 9.7 1.3 1.1 2.6 2.1 3.9 3.1 2.6 2.1 5.1 4.1 7.6 6.1 3.8 3 7.4 5.9 11 8.7 15.1-2 30.5-4.3 46.4-7 4-.7 7.9-1.4 12-2.1 8-1.5 16.1-3.1 24.3-4.8 28.7-5.9 58.4-13.2 88.9-22.2 8.7-2.5 17.5-5.2 26.4-8 0 0-9.8-6.3-27.1-18.6l-2.1-1.5c-2.8-2-5.9-4.2-9.1-6.6l-2.4-1.8c-12.4-9-27.4-20.2-44.2-33.3-4.5-3.5-9.2-7.2-13.9-10.9-3.6-2.8-7.2-5.8-11-8.8-6.2-5-12.6-10.2-19.2-15.7-2.6-2.2-5.3-4.4-8-6.6-5.4-4.5-10.8-9.1-16.4-13.9-2.8-2.4-5.6-4.8-8.4-7.3-4.2-3.7-8.6-7.4-12.9-11.3-1.5-1.3-2.9-2.6-4.4-3.8-4.4-3.9-8.8-7.8-13.3-11.9-4.5-4-9-8.1-13.5-12.3-10.6-9.8-21.5-19.9-32.5-30.5-3.1-3-6.3-6.1-9.5-9.2-7.9-7.7-15.9-15.6-23.9-23.7-3.2-3.2-6.4-6.5-9.7-9.8-1.6-1.6-3.2-3.3-4.9-5-4.9-5-9.7-10.1-14.6-15.2-6.5-6.8-13-13.8-19.6-20.9-3.3-3.6-6.5-7.1-9.8-10.8-3.3-3.6-6.5-7.3-9.8-10.9-3.3-3.7-6.6-7.4-9.8-11.1-36.1-41.1-72-85.8-106.2-133.9-19-26.7-37.5-54.5-55.2-83.3-2.5-4.1-5-8.2-7.5-12.4 6.4-22.9 13.3-45.1 20.6-66.6.8-2.4 1.6-4.8 2.5-7.2 2.5-7.1 5-14.2 7.5-21.1 1.7-4.6 3.4-9.2 5.2-13.8.9-2.3 1.7-4.6 2.6-6.8a20412971227549664 20412971227549664 0 0 1 16.2-39.9c2.8-6.5 5.6-12.9 8.4-19.2 2.8-6.3 5.7-12.5 8.5-18.7 1.9-4.1 3.8-8.2 5.8-12.2 1.9-4 3.9-8 5.8-12 1.9-3.9 3.9-7.9 5.8-11.8 2.9-5.8 5.9-11.6 8.8-17.2 5.9-11.3 11.8-22.3 17.8-32.9l6-10.5c4-6.9 7.9-13.7 11.9-20.3 2-3.3 3.9-6.6 5.9-9.8 3-4.9 5.9-9.6 8.8-14.3 2-3.1 3.9-6.2 5.9-9.2 7.8-12.2 15.5-23.7 23-34.6 2.8-4.1 5.6-8.1 8.4-12 56-80.1 100.2-122.3 100.2-122.3s186.1-194.4 512-285.6c12.5 7.5 24.7 15.1 36.8 22.9 8.1 5.2 16 10.4 23.9 15.7 4 2.6 7.9 5.3 11.8 8 7.8 5.3 15.5 10.7 23.2 16.2 15.3 10.9 30.3 21.9 44.9 33.1 6.3 4.8 12.5 9.6 18.6 14.4 4.1 3.2 8.2 6.4 12.2 9.7 14.1 11.3 27.9 22.8 41.2 34.2 1.9 1.6 3.8 3.3 5.7 4.9 3.8 3.3 7.6 6.5 11.3 9.8 11.2 9.8 22.1 19.7 32.8 29.5 3.6 3.3 7.1 6.5 10.6 9.8 7 6.5 13.8 13 20.6 19.5 3.4 3.2 6.7 6.5 10 9.7 31.4 30.7 59.9 60.7 85.5 89.1 4 4.5 8 8.9 11.9 13.3 1.3 1.5 2.6 2.9 3.8 4.4 3.8 4.3 7.6 8.7 11.3 12.9 4.9 5.7 9.7 11.2 14.3 16.7 2.3 2.7 4.6 5.4 6.8 8.1 1.1 1.3 2.2 2.7 3.3 4 2.2 2.7 4.4 5.3 6.5 7.9 1.1 1.3 2.1 2.6 3.2 3.9 2.1 2.6 4.2 5.1 6.2 7.6l6 7.5c1 1.2 2 2.4 2.9 3.6l5.7 7.2c1.9 2.3 3.7 4.7 5.5 7 1.8 2.3 3.5 4.5 5.3 6.8 1.7 2.2 3.4 4.4 5 6.5 2.5 3.2 4.9 6.4 7.2 9.4s4.5 6 6.7 8.9c.7 1 1.4 1.9 2.1 2.8 2.8 3.7 5.4 7.3 7.9 10.7 2.5 3.4 4.8 6.6 7 9.7.6.8 1.1 1.5 1.6 2.2 3.7 5.2 6.9 9.8 9.7 13.7 7.9 11.4 11.9 17.6 11.9 17.6 7-22.1 13.2-43.9 18.7-65.2 2.2-8.5 4.2-17 6.1-25.3 1.9-8.4 3.7-16.6 5.4-24.8 1.7-8.2 3.3-16.3 4.8-24.3s2.8-15.9 4.1-23.8c1.9-11.7 3.6-23.3 5.1-34.6-37.5-47.9-90.6-110.7-157.6-177.7-40.2-40.2-85.3-81.8-135.1-122.5-9.3-7.6-18.7-15.2-28.3-22.7-6.4-5-12.9-10-19.4-15-4.7-3.5-9.4-7.1-14.1-10.6-5.2-3.9-10.5-7.7-15.8-11.6 33.6-3 64.7-4.4 93.4-4.4 20.9 0 40.6.8 59.1 2.1 2.3.2 4.6.4 6.9.5 4.6.4 9 .8 13.4 1.3 4.4.4 8.8.9 13 1.5 4.3.5 8.5 1.1 12.6 1.7 6.2.9 12.2 1.9 18.1 2.9 5.9 1 11.6 2.1 17.2 3.3 7.4 1.5 14.6 3.2 21.6 5 6.9 1.8 13.6 3.6 20 5.6 8 2.4 15.7 5 22.9 7.7 1.4.5 2.9 1.1 4.3 1.6l4.8 1.8c1.8.7 3.6 1.4 5.4 2.2 1.1.4 2.1.9 3.1 1.3.2.1.5.2.7.3.6.3 1.3.5 1.9.8.9.4 1.7.7 2.5 1.1.7.3 1.5.6 2.2 1l2.7 1.2 3.3 1.5 1.2.6c1.1.5 2.2 1.1 3.3 1.6.7.3 1.3.7 2 1l3 1.5c.3.2.6.3 1 .5.6.3 1.3.7 1.9 1 .6.3 1.3.7 1.9 1 1.6.9 3.2 1.7 4.8 2.6.9.5 1.8 1 2.6 1.5s1.6 1 2.5 1.4c.8.5 1.6 1 2.4 1.4.1 0 .2.1.2.1.1 0 .1.1.2.1.6.3 1.1.7 1.7 1 1.1.7 2.3 1.4 3.4 2.1l3.3 2.1c.5.3 1.1.7 1.6 1 .1.1.2.5.6 1.3.2.5.5 1.2.8 2 .5 1.2 1.2 2.8 1.9 4.6.5 1.2 1.1 2.6 1.6 4.1 1.2 3 2.6 6.6 4.1 10.7.8 2 1.5 4.2 2.4 6.5.8 2.3 1.7 4.7 2.6 7.3.9 2.6 1.8 5.2 2.7 8 .9 2.8 1.9 5.7 2.9 8.8 1 3 2 6.2 3 9.5s2 6.7 3.1 10.2c1.5 5.3 3.1 10.8 4.7 16.6 2.6 9.7 5.3 20 7.8 31 1 4.4 2.1 8.9 3.1 13.5 4.1 18.5 7.9 38.5 11.2 60.1.8 5.4 1.7 10.9 2.4 16.4.8 5.6 1.5 11.2 2.2 17 1.1 8.6 2 17.4 2.9 26.4.9 9 1.6 18.2 2.2 27.5.2 3.1.4 6.3.6 9.4.6 9.5 1 19.1 1.3 28.9.4 20.2.4 40.5-.2 61.4z" id="Layer_2"/>
    <path class="st0" d="M749.2 1578.8c-2.8-2-5.9-4.2-9.1-6.6l-2.4-1.8c-12.4-9-27.4-20.2-44.2-33.3-4.5-3.5-9.2-7.2-13.9-10.9-3.6-2.8-7.2-5.8-11-8.8-6.2-5-12.6-10.2-19.2-15.7-2.6-2.2-5.3-4.4-8-6.6-5.4-4.5-10.8-9.1-16.4-13.9-2.8-2.4-5.6-4.8-8.4-7.3-4.2-3.7-8.6-7.4-12.9-11.3-1.5-1.3-2.9-2.6-4.4-3.8-4.4-3.9-8.8-7.8-13.3-11.9-4.5-4-9-8.1-13.5-12.3-10.6-9.8-21.5-19.9-32.5-30.5-3.1-3-6.3-6.1-9.5-9.2-7.9-7.7-15.9-15.6-23.9-23.7-3.2-3.2-6.4-6.5-9.7-9.8-1.6-1.6-3.2-3.3-4.9-5-4.9-5-9.7-10.1-14.6-15.2-6.5-6.8-13-13.8-19.6-20.9-3.3-3.6-6.5-7.1-9.8-10.8-3.3-3.6-6.5-7.3-9.8-10.9-3.3-3.7-6.6-7.4-9.8-11.1-36.1-41.1-72-85.8-106.2-133.9-19-26.7-37.5-54.5-55.2-83.3-2.5-4.1-5-8.2-7.5-12.4-4 14.4-7.8 29.1-11.4 44-4.3 18-8.2 36.3-11.7 55.1-1.2 6.3-2.3 12.6-3.4 18.9-1.6 9.5-3.1 19.2-4.5 28.9-1.3 8.9-2.5 17.6-3.5 26.2-1.4 11.4-2.7 22.6-3.7 33.5-.3 2.7-.5 5.4-.8 8.1 5.5 7.6 11 15.1 16.6 22.5 5.4 7.2 10.9 14.4 16.3 21.4 6.4 8.2 12.8 16.4 19.3 24.4 2.5 3.1 5.1 6.2 7.6 9.3 11.9 14.5 23.8 28.6 35.8 42.4 3.4 3.9 6.8 7.8 10.3 11.7 5.1 5.8 10.3 11.5 15.4 17.1 5.1 5.6 10.3 11.2 15.4 16.7 3.4 3.7 6.8 7.3 10.2 10.9 5.1 5.4 10.2 10.7 15.3 15.9 6.3 6.5 12.6 13 18.9 19.2 3.8 3.8 7.5 7.5 11.3 11.2 5 4.9 9.9 9.8 14.9 14.5 29.6 28.6 58.1 54.3 84.5 77l8.7 7.5c2.9 2.4 5.7 4.9 8.6 7.2 2.8 2.4 5.6 4.7 8.4 7 2.8 2.3 5.5 4.5 8.2 6.8 4.1 3.3 8 6.6 12 9.7 1.3 1.1 2.6 2.1 3.9 3.1 2.6 2.1 5.1 4.1 7.6 6.1 3.8 3 7.4 5.9 11 8.7 15.1-2 30.5-4.3 46.4-7 4-.7 7.9-1.4 12-2.1 8-1.5 16.1-3.1 24.3-4.8 28.7-5.9 58.4-13.2 88.9-22.2 8.7-2.5 17.5-5.2 26.4-8 0 0-9.8-6.3-27.1-18.6-1-.4-1.7-.9-2.4-1.4z" id="Layer_10"/>
    <path class="st0" d="M1484.5 403.7c-40.2-40.2-85.3-81.8-135.1-122.5-9.3-7.6-18.7-15.2-28.3-22.7-6.4-5-12.9-10-19.4-15-4.7-3.5-9.4-7.1-14.1-10.6-5.2-3.9-10.5-7.7-15.8-11.6-8.1.7-16.3 1.6-24.7 2.5-2.8.3-5.6.6-8.4 1-5.7.7-11.4 1.4-17.2 2.1-5.8.8-11.6 1.6-17.6 2.4-9.7 1.4-19.4 2.9-28.9 4.5-12.7 2.1-25.2 4.5-37.6 7-6.2 1.3-12.3 2.6-18.4 3.9-6.1 1.3-12.1 2.7-18.1 4.2-6 1.4-11.9 2.9-17.8 4.4-2.9.8-5.9 1.5-8.8 2.3-5.8 1.5-11.6 3.1-17.4 4.7 12.5 7.5 24.7 15.1 36.8 22.9 8.1 5.2 16 10.4 23.9 15.7 4 2.6 7.9 5.3 11.8 8 7.8 5.3 15.5 10.7 23.2 16.2 15.3 10.9 30.3 21.9 44.9 33.1 6.3 4.8 12.5 9.6 18.6 14.4 4.1 3.2 8.2 6.4 12.2 9.7 14.1 11.3 27.9 22.8 41.2 34.2 1.9 1.6 3.8 3.3 5.7 4.9 3.8 3.3 7.6 6.5 11.3 9.8 11.2 9.8 22.1 19.7 32.8 29.5 3.6 3.3 7.1 6.5 10.6 9.8 7 6.5 13.8 13 20.6 19.5 3.4 3.2 6.7 6.5 10 9.7 31.4 30.7 59.9 60.7 85.5 89.1 4 4.5 8 8.9 11.9 13.3 1.3 1.5 2.6 2.9 3.8 4.4 3.8 4.3 7.6 8.7 11.3 12.9 4.9 5.7 9.7 11.2 14.3 16.7 2.3 2.7 4.6 5.4 6.8 8.1 1.1 1.3 2.2 2.7 3.3 4 2.2 2.7 4.4 5.3 6.5 7.9 1.1 1.3 2.1 2.6 3.2 3.9 2.1 2.6 4.2 5.1 6.2 7.6l6 7.5c1 1.2 2 2.4 2.9 3.6l5.7 7.2c1.9 2.3 3.7 4.7 5.5 7 1.8 2.3 3.5 4.5 5.3 6.8 1.7 2.2 3.4 4.4 5 6.5 2.5 3.2 4.9 6.4 7.2 9.4s4.5 6 6.7 8.9c.7 1 1.4 1.9 2.1 2.8 2.8 3.7 5.4 7.3 7.9 10.7 2.5 3.4 4.8 6.6 7 9.7.6.8 1.1 1.5 1.6 2.2 3.7 5.2 6.9 9.8 9.7 13.7 7.9 11.4 11.9 17.6 11.9 17.6 7-22.1 13.2-43.9 18.7-65.2 2.2-8.5 4.2-17 6.1-25.3 1.9-8.4 3.7-16.6 5.4-24.8 1.7-8.2 3.3-16.3 4.8-24.3s2.8-15.9 4.1-23.8c1.9-11.7 3.6-23.3 5.1-34.6-37.4-47.7-90.6-110.6-157.5-177.5z" id="Layer_11"/>
    <g id="STROKES">
        <path class="st1" d="M778.4 1598.8c-70.9 22.6-137.7 36.3-197.9 44.2-176.9 23.2-297.5-3.8-299.4-4.3-39.3-60.1-78.3-170.5-60.6-365.9 1.9-21.6 4.6-44.2 8-67.8 7.5-51.9 18.1-100.9 31-147 19.9 33.2 40.9 65.1 62.7 95.7 198.9 279.8 456.2 445.1 456.2 445.1z"/>
        <path class="st1" d="M1637.8 281.9c1 2.3 70.9 158.4 64 380.8-6.3 204.4-77.4 464.9-326.3 713.7s-509.3 319.9-713.7 326.3c-222.5 6.9-378.5-63-380.8-64 2 .4 122.5 27.5 299.4 4.3 60.3-7.9 127.1-21.6 197.9-44.2 157.3-50.1 334.7-143.8 505.2-314.3s264.2-347.9 314.3-505.2c22.6-70.9 36.3-137.7 44.2-197.9 23.2-176.9-3.8-297.5-4.2-299.5z"/>
        <path class="st1" d="M322.1 1153.5c-21.2 70.4-34.2 136.9-41.8 196.8-21.6 169.9.4 286.4.7 288.3"/>
        <path class="st1" d="M580.4 1643c-76.6-60-191.6-159.9-300.2-292.7-20.3-24.7-40.3-50.6-59.8-77.6"/>
        <path class="st1" d="M1152.6 323c-162.4 49-345.7 141.8-517.2 313.3s-264.3 354.9-313.3 517.2c-21.7-30.5-42.8-62.4-62.7-95.7C350.5 732 545 545.9 545 545.9s186.2-194.4 512-285.6c33.2 19.9 65.1 41 95.6 62.7z"/>
        <path class="st1" d="M1637.8 281.9c.4 2 27.5 122.5 4.3 299.4-7.9 60.3-21.6 127.1-44.2 197.9 0 0-165.3-257.2-445.3-456.3-30.5-21.7-62.4-42.8-95.7-62.7 46-12.9 95-23.5 147-31 23.7-3.4 46.3-6.1 67.8-8 195.6-17.6 305.9 21.4 366.1 60.7-.1 0 0 0 0 0z"/>
        <path class="st1" d="M1597.9 779.3c-50.1 157.3-143.8 334.7-314.3 505.2s-347.9 264.2-505.2 314.3c0 0-257.2-165.3-456.3-445.3 49-162.4 141.8-345.7 313.3-517.2S990.2 372 1152.6 323c280 199 445.3 456.3 445.3 456.3z"/>
        <path class="st1" d="M1637.8 281.9s-.1 0 0 0c-2-.4-118.5-22.3-288.4-.8-59.9 7.6-126.3 20.6-196.8 41.8"/>
        <path class="st1" d="M1271.8 221.3c27 19.5 52.9 39.6 77.6 59.8 132.7 108.6 232.7 223.6 292.7 300.2"/>
        <path class="st1" d="M737.5 646.3L648.2 557"/>
        <path class="st1" d="M649.3 734.4l-89.2-89.2"/>
        <path class="st1" d="M569.9 837.6l-89.2-89.3"/>
        <path class="st1" d="M836.2 571.2L747 482"/>
    </g>
</svg>
