<svg xmlns="http://www.w3.org/2000/svg" viewBox="0 0 1920 1920">
    <style>
        .st0{fill:#fff}.st1{fill:none;stroke:#231f20;stroke-width:50;stroke-linecap:round;stroke-linejoin:round;stroke-miterlimit:10}
    </style>
    <path class="st0" d="M1473.3 810.3c-1.7-7.9-3.5-15.7-5.4-23.5C1397.1 502.2 1148.4 292 852.5 292 501.5 292 217 587.7 217 952.5c0 128.6 35.3 248.6 96.5 350.1 190.8 61.5 250.4 209.1 452.1 253.1 232.2 50.7 365.2-35.9 415.9-160.4 2.5-6.1 4.5-12.3 6.2-18.6.4-1.4.7-2.8 1-4.2.3-1.4.7-2.8.9-4.3.7-3.6 1.4-7.2 1.9-10.8.3-2.2.6-4.4.8-6.6.1-1.5.3-2.9.4-4.4.6-6.7.8-13.4.8-20.3v-3.8c0-1.3 0-2.6-.1-3.9 0-1.2-.1-2.5-.1-3.7v-1.7c0-.8-.1-1.7-.1-2.5-.1-1.1-.1-2.2-.2-3.3-.1-1.2-.2-2.5-.3-3.8-.1-1-.1-2-.2-3.1-.8-10.3-2.1-20.9-3.7-31.5-.5-3.4-1-6.7-1.6-10.1-.2-1.3-.4-2.5-.6-3.8l-.9-5.4c0-.3-.1-.6-.2-.9-.2-1.3-.4-2.5-.7-3.8-.2-1.3-.5-2.5-.7-3.8-2.9-15.8-6.1-31.8-9.1-47.9-.5-2.9-1.1-5.7-1.6-8.6-.8-4.5-1.7-9-2.5-13.5l-.3-1.8c-.1-.7-.2-1.4-.4-2.2-.1-.8-.3-1.7-.4-2.5-.2-1.1-.4-2.3-.6-3.4-.2-1.2-.4-2.4-.6-3.7-.2-1.2-.4-2.4-.6-3.7-2-12.3-3.6-24.7-4.8-37-.1-.9-.2-1.9-.2-2.8-.1-.8-.1-1.5-.2-2.3-.1-1.1-.2-2.2-.3-3.2v-.5l-.3-3.9c-.1-.8-.1-1.6-.1-2.4-.1-.8-.1-1.5-.1-2.3-.1-1.1-.1-2.2-.2-3.3 0-.4 0-.8-.1-1.2 0-.4 0-.8-.1-1.2 0-.8-.1-1.6-.1-2.4-.3-7.8-.2-15.6.1-23.4 0-.3 0-.7.1-1v-1.1l.3-4.8v-1.4c.1-2.2.3-4.4.5-6.6.1-.9.2-1.7.3-2.6.1-1.4.3-2.8.5-4.2.1-1 .2-2.1.4-3.1v-.1c.1-1.1.3-2.2.5-3.3 0-.2.1-.5.1-.7.1-.8.2-1.6.4-2.5.6-3.4 1.2-6.8 1.9-10.2l.6-2.7c.1-.4.2-.8.3-1.3.2-.8.3-1.5.5-2.3.4-1.8.9-3.6 1.4-5.4.2-.7.4-1.3.5-2 .4-1.3.8-2.7 1.2-4 .5-1.8 1.1-3.6 1.7-5.4.4-1.1.7-2.2 1.1-3.3.4-1.1.8-2.2 1.2-3.2v-.1c.4-1.1.8-2.1 1.2-3.2.3-.9.7-1.8 1.1-2.8l.3-.6c.3-.8.7-1.6 1-2.3.4-1 .9-2 1.3-3 .2-.5.4-.9.6-1.4l1.2-2.7c.5-1.1 1-2.1 1.5-3.2.1-.2.2-.4.3-.7l1.2-2.4c0-.1.1-.1.1-.2.8-1.7 1.7-3.3 2.6-5 .2-.3.4-.7.6-1 .4-.8.9-1.6 1.4-2.4.5-.8.9-1.6 1.4-2.4.4-.7.8-1.4 1.3-2.1.3-.6.7-1.1 1-1.7 1.6-2.5 3.3-5.1 5-7.6.4-.6.9-1.2 1.3-1.9 1.3-1.8 2.7-3.7 4.1-5.4.5-.6.9-1.2 1.4-1.8 1.9-2.3 3.8-4.6 5.9-6.9.8-.8 1.5-1.7 2.3-2.5l2.4-2.4 1.6-1.6c8-8 16.9-15.1 26.6-21.5 1.3-.9 2.6-1.7 3.9-2.5 1.3-.8 2.6-1.6 4-2.4 1-.7 2.1-1.3 3.2-1.9 2-1.2 3.9-2.3 6-3.4 1-.6 2.1-1.1 3.1-1.7 1-.5 2.1-1.1 3.2-1.6 1-.5 2.1-1.1 3.2-1.6 2.1-1 4.3-2.1 6.5-3.1l3.3-1.5c1.1-.5 2.2-1 3.3-1.4 1.1-.5 2.2-1 3.3-1.4 1.1-.5 2.2-.9 3.4-1.4 1.2-.5 2.5-1 3.8-1.5 1-.4 2.1-.8 3.1-1.2 1.1-.4 2.3-.8 3.5-1.3 1.1-.4 2.3-.8 3.5-1.2 4.7-1.6 9.4-3.1 14.1-4.5 1.2-.4 2.4-.7 3.6-1 .7-.2 1.5-.4 2.2-.6.8-.2 1.6-.4 2.4-.7.2 0 .3-.1.5-.1 3.2-.9 6.3-1.7 9.5-2.5l3.6-.9c1.1-.2 2.1-.5 3.2-.8 3.3-.8 6.6-1.5 9.9-2.2 1.1-.2 2.3-.5 3.4-.7 5.3-1.1 10.6-2 15.9-2.9 1.6-.3 3.3-.5 4.9-.8 1.6-.3 3.3-.5 4.9-.8 4.7-.7 9.3-1.3 14-1.9 1.3-.2 2.5-.3 3.8-.5 1-.1 1.9-.2 2.9-.3.8-.1 1.5-.2 2.3-.3.8-.1 1.6-.2 2.3-.2 1.7-.2 3.4-.3 5-.5 1.7-.2 3.4-.3 5-.5 3.4-.3 6.7-.6 10-.8 1.3-.1 2.5-.2 3.8-.3h.3c3.9-.3 7.8-.5 11.7-.7.9 0 1.9-.1 2.8-.1.8 0 1.7-.1 2.5-.1 3.7-.2 7.3-.3 11-.4 1.2 0 2.4-.1 3.6-.1 6-.2 12-.3 17.9-.3-2.2-13.9-4.8-28.5-7.8-42.9zm-692.5 450.4c-47.8 0-86.5-38.7-86.5-86.5s38.7-86.5 86.5-86.5 86.5 38.7 86.5 86.5c-.1 47.7-38.8 86.5-86.5 86.5zm285.3-136.5c-8.8 13-23.1 20-37.7 20-8.8 0-17.7-2.5-25.5-7.8l-64.2-43.5-47-31.8 1.2-1.7-1.2-.8 51-75.3 47.4 32.1 1.2.8 62.5 42.4c13.4 9.1 20.4 24 20 39 .4 9-2.1 18.4-7.7 26.6z" id="Layer_2"/>
    <path class="st0" d="M867.2 1174.2c0 47.8-38.7 86.5-86.5 86.5s-86.5-38.7-86.5-86.5 38.7-86.5 86.5-86.5 86.5 38.7 86.5 86.5z" id="Layer_4"/>
    <path class="st0" d="M1054 1061l-63.7-43.2-47.4-32.1-49.9 73.6 45.8 31 64.2 43.5c7.8 5.3 16.7 7.8 25.5 7.8 14.6 0 28.9-7 37.7-20 5-7.4 7.6-15.8 7.8-24.2-.5-14.1-7.4-27.9-20-36.4z" id="Layer_5"/>
    <g id="STROKES">
        <path class="st1" d="M1260.8 898.3c-2 1.1-4 2.2-6 3.4 2-1.2 4-2.3 6-3.4zm-45.1 33.4c-1.6 1.6-3.1 3.2-4.7 4.9 1.5-1.7 3.1-3.3 4.7-4.9zm-4.7 4.9c-2 2.2-4 4.5-5.9 6.9 1.9-2.4 3.9-4.7 5.9-6.9zm-7.3 8.6c-1.4 1.8-2.7 3.6-4.1 5.4 1.4-1.8 2.7-3.6 4.1-5.4zm-11.4 405.6c-.2 2.2-.5 4.4-.8 6.6.3-2.2.6-4.4.8-6.6zm-.8 6.6c-.5 3.6-1.1 7.2-1.9 10.8.8-3.6 1.4-7.2 1.9-10.8zm-6.4-382.7c.8-1.7 1.7-3.3 2.6-5-.9 1.7-1.8 3.3-2.6 5z"/>
        <path class="st1" d="M1473.3 810.3C1410.7 513.9 1156.5 292 852.5 292 501.5 292 217 587.7 217 952.6c0 128.6 35.3 248.6 96.5 350.1 190.8 61.5 250.4 209.1 452.1 253.1 232.2 50.7 365.2-35.9 415.9-160.4 2.5-6.1 4.5-12.3 6.2-18.6.4-1.4.7-2.8 1-4.2.3-1.4.6-2.8.9-4.3.7-3.6 1.4-7.2 1.9-10.8.3-2.2.6-4.4.8-6.6.2-1.5.3-2.9.4-4.4.6-6.7.8-13.4.8-20.3v-3.8c0-1.3 0-2.6-.1-3.9 0-1.2-.1-2.5-.1-3.7 0-.3 0-.7-.1-1 0-1.1-.1-2.1-.2-3.2s-.1-2.2-.2-3.3c-.1-1.3-.2-2.5-.3-3.8-.1-1-.2-2.1-.2-3.1-.8-10.4-2.1-20.9-3.7-31.5-.5-3.4-1-6.7-1.6-10.1-.2-1.3-.4-2.5-.6-3.8-.4-2.1-.7-4.2-1.1-6.3-.2-1.3-.4-2.5-.7-3.8-.2-1.3-.5-2.5-.7-3.8-2.9-15.8-6.1-31.8-9.1-47.9-.5-2.9-1.1-5.7-1.6-8.6-.8-4.5-1.7-9-2.4-13.5-.2-1.3-.5-2.6-.7-3.9-.2-.8-.3-1.7-.4-2.5-.2-1.1-.4-2.3-.6-3.4-.2-1.2-.4-2.4-.6-3.7-.2-1.2-.4-2.4-.6-3.7-2-12.3-3.6-24.7-4.8-37-.1-.9-.2-1.9-.3-2.8-.1-.8-.1-1.5-.2-2.3-.1-1.3-.2-2.5-.3-3.8l-.3-3.9c-.1-.8-.1-1.6-.1-2.4-.1-.8-.1-1.5-.1-2.3-.1-1.1-.1-2.2-.2-3.3 0-.8-.1-1.6-.1-2.4 0-.8-.1-1.6-.1-2.4-.3-7.8-.3-15.6.1-23.4 0-.7.1-1.4.1-2.1l.3-4.8c0-.5.1-.9.1-1.4.1-2.2.3-4.4.5-6.6.1-.9.2-1.7.3-2.6.1-1.4.3-2.8.5-4.2.1-1 .3-2.1.4-3.1v-.1c.1-1.1.3-2.2.5-3.3 0-.2.1-.5.1-.7.1-.8.3-1.6.4-2.5.6-3.4 1.2-6.8 1.9-10.2l.6-2.7c.1-.4.2-.8.3-1.3.2-.8.4-1.5.5-2.3.4-1.8.9-3.6 1.4-5.4.2-.7.4-1.3.5-2 .4-1.3.8-2.7 1.2-4 .5-1.8 1.1-3.6 1.7-5.4.4-1.1.7-2.2 1.1-3.3l1.2-3.3v-.1c.4-1.1.8-2.1 1.2-3.2.4-.9.7-1.8 1.1-2.7l.3-.6c.3-.8.6-1.6 1-2.3.4-1 .9-2 1.3-3 .2-.5.4-.9.6-1.4.4-.9.8-1.8 1.3-2.7.5-1.1 1-2.1 1.5-3.2l1.5-3c0-.1.1-.1.1-.2.8-1.7 1.7-3.3 2.6-5 .2-.3.4-.7.5-1 .5-.8.9-1.6 1.4-2.4.4-.8.9-1.6 1.4-2.4.4-.7.8-1.4 1.3-2.1.3-.6.7-1.1 1.1-1.7 1.6-2.5 3.3-5.1 5-7.6.4-.6.9-1.2 1.3-1.9 1.3-1.8 2.7-3.7 4.1-5.4.5-.6.9-1.2 1.4-1.8 1.9-2.3 3.9-4.6 5.9-6.9 1.5-1.7 3.1-3.3 4.7-4.9l1.6-1.6c8-7.9 17-15.1 26.6-21.5 1.3-.9 2.6-1.7 3.9-2.5 1.3-.8 2.6-1.6 4-2.5 1.1-.6 2.1-1.3 3.2-1.9 2-1.2 4-2.3 6-3.4 1-.6 2.1-1.1 3.1-1.7 1.1-.6 2.1-1.1 3.2-1.6s2.1-1.1 3.2-1.6c2.1-1.1 4.3-2.1 6.5-3.1l3.3-1.5c1.1-.5 2.2-1 3.3-1.4 1.1-.5 2.2-1 3.3-1.4 1.1-.5 2.2-.9 3.4-1.4 1.2-.5 2.5-1 3.8-1.5 1-.4 2.1-.8 3.1-1.2 1.1-.4 2.3-.8 3.5-1.3 1.2-.4 2.3-.8 3.5-1.2 4.7-1.6 9.4-3.1 14.2-4.5 1.2-.4 2.4-.7 3.6-1.1.7-.2 1.5-.4 2.2-.6 1-.3 1.9-.5 2.9-.8 3.2-.9 6.3-1.7 9.5-2.5l3.6-.9c1.1-.3 2.1-.5 3.2-.7 3.3-.8 6.6-1.5 9.9-2.2 1.1-.2 2.3-.5 3.4-.7 5.3-1.1 10.6-2 15.9-2.9 1.6-.3 3.3-.5 4.9-.8 1.6-.3 3.3-.5 4.9-.7 4.7-.7 9.3-1.3 14-1.9 1.3-.2 2.5-.3 3.8-.5 1-.1 1.9-.2 2.9-.3 1.5-.2 3.1-.3 4.6-.5 1.7-.2 3.4-.3 5-.5 1.7-.2 3.4-.3 5-.5 3.3-.3 6.7-.6 10-.8 1.4-.1 2.7-.2 4.1-.3 3.9-.3 7.8-.5 11.7-.7.9-.1 1.9-.1 2.8-.1.8 0 1.7-.1 2.5-.1 3.7-.2 7.3-.3 11-.4 1.2 0 2.4-.1 3.6-.1 6-.2 12-.3 17.9-.3-2.4-14.1-5-28.7-8-43.1zm-407.2 311.3c-8.8 13-23.1 20-37.7 20-8.8 0-17.7-2.5-25.5-7.8l-64.2-43.5-47-31.8 51-75.3 47.4 32.1 63.7 43.2c21 14 26.4 42.3 12.3 63.1z"/>
        <path class="st1" d="M1446 855c-.9 0-1.9.1-2.8.1"/>
        <path class="st1" d="M1431.5 855.9c-1.4.1-2.7.2-4.1.3"/>
        <path class="st1" d="M1417.4 857c-1.7.1-3.3.3-5 .5"/>
        <path class="st1" d="M1407.4 857.9c-1.5.2-3.1.3-4.6.5"/>
        <path class="st1" d="M1382 861.1c-1.6.2-3.3.5-4.9.7-1.6.3-3.3.5-4.9.8"/>
        <path class="st1" d="M1356.3 865.6c-1.1.2-2.3.5-3.4.7"/>
        <path class="st1" d="M1326.7 872.5c-1 .3-1.9.5-2.9.8"/>
        <path class="st1" d="M1193.4 960.1c-.4.6-.7 1.1-1.1 1.7"/>
        <path class="st1" d="M1180.6 983.8c-.2.5-.4.9-.6 1.4"/>
        <path class="st1" d="M1170 1013.1c-.2.7-.4 1.3-.5 2"/>
        <path class="st1" d="M1162.1 1059.9c0 .5-.1.9-.1 1.4"/>
        <path class="st1" d="M1161.8 1066.1c0 .7-.1 1.4-.1 2.1"/>
        <path class="st1" d="M1161.7 1093.9c0 .8.1 1.6.1 2.4.1 1.1.1 2.2.2 3.3"/>
        <path class="st1" d="M1162.2 1104.2l.3 3.9c.1 1.2.2 2.5.3 3.8"/>
        <path class="st1" d="M1170.9 1171.1c-.2-1.3-.5-2.6-.7-3.9"/>
        <path class="st1" d="M1175 1193.1c-.5-2.9-1.1-5.7-1.6-8.6"/>
        <path class="st1" d="M1186.5 1255c-.4-2.1-.7-4.2-1.1-6.3"/>
        <path class="st1" d="M1188.7 1268.9c-.5-3.4-1-6.7-1.6-10.1"/>
        <path class="st1" d="M1192.7 1303.4c-.1-1-.2-2.1-.2-3.1"/>
        <path class="st1" d="M1193 1307.2c.1 1.1.1 2.2.2 3.3.1 1.1.1 2.1.2 3.2"/>
        <path class="st1" d="M1193.4 1314.7c.1 1.2.1 2.5.1 3.7 0 1.3.1 2.6.1 3.9v3.8"/>
        <circle class="st1" cx="780.8" cy="1174.2" r="86.5"/>
        <path class="st1" d="M1307.5 1124.1l26.8 104.5-141.1 84.4-103.6-7.7c-28.1-2.1-55.4-10.3-80-24.1l-145.8-81.9c2.5-1.9 34.6-47.9 74.9-106.5l64.2 43.5c7.8 5.3 16.7 7.8 25.5 7.8 14.6 0 28.9-7 37.7-20 14.1-20.8 8.7-49.1-12.1-63.2l-63.7-43.2c9.3-13.6 18.7-27.3 27.8-40.6 14.8-21.7 43.3-72.1 55.9-90.7 32.9-48.2 71.6-75.6 129.8-79.9l269.5-20.2 57-4.3 69.8 103.2-348.4 20.8 55.8 218.1z"/>
        <path class="st1" d="M1701.3 1227.2l-55.8 380.3-177-56.8c-35.3-11.3-62.2-40.1-71.1-76.1l-63-246 2-1.2 364.9-.2z"/>
        <path class="st1" d="M1701.2 1227.2V1126h-390l-74.4-38.3-51.7-110.5H1018"/>
        <path class="st1" d="M1066.1 1124.2c-8.8 13-23.1 20-37.7 20-8.8 0-17.7-2.5-25.5-7.8l-64.2-43.5-47-31.8 51-75.3 47.4 32.1 63.7 43.2c21 14 26.4 42.3 12.3 63.1z"/>
    </g>
</svg>
