<svg xmlns="http://www.w3.org/2000/svg" viewBox="0 0 1920 1920">
    <style>
        .st0{fill:#fff}.st1{fill:none;stroke:#231f20;stroke-width:50;stroke-linecap:round;stroke-linejoin:round;stroke-miterlimit:10}
    </style>
    <path class="st0" d="M1556.6 1338.3c-5.3 19.1-15 40.1-30.1 64.4-55.7 89.4-147.4 124-223 81.7-28.4-15.9-54.6-42.8-75.7-81.7-14.5-26.8-33.4-52.4-55.9-75.6-107.5-111.5-295.3-170.7-460-64-2.9-6.7-6.2-13.3-9.8-19.8l-38.5-69.1c-8.2-14.8-15.2-30.1-20.7-45.9-14.1-40.3-19.4-83.4-14.6-126.2 8.4-75.3 48.4-162.7 178-201 250.4-74 657.3-31.6 751.2 0 0 0-28.4 42.6-51.1 101.8-23.2 60.3-40.6 137.9-16.2 205.2 1.9 5.3 3.9 10.4 5.8 15.4 10.9 27.9 22.4 51.4 32.6 72.6 24.9 52 42.6 89.8 28 142.2z" id="Layer_6"/>
    <path class="st0" d="M1557.4 801.1c-93.9-31.6-500.8-74-751.2 0-129.7 38.3-169.6 125.7-178 201-4.8 42.8.5 85.9 14.6 126.2 5.6 15.8 12.5 31.2 20.7 45.9l38.5 69.1c3.6 6.5 6.8 13.1 9.8 19.8 1 2.4 2 4.8 2.9 7.2 21.7 55.5 20.1 118-6.4 172.4-9.7 19.9-21.2 37.3-33.3 52.4-9.9 12.2-20.2 22.9-30.4 32.2-46.4 42.2-113.8 52-170.3 24.9-256.9-123.7-243.2-619.6-243.2-619.6S199.9 217 845.4 217c495.2 0 649.7 343.8 694.8 503.9 13.6 48.5 17.2 80.2 17.2 80.2z" id="Layer_7"/>
    <g id="STROKES">
        <path class="st1" d="M1557.4 801.1c-93.9-31.6-500.8-74-751.2 0-129.7 38.3-169.6 125.7-178 201-6.6 59.6 6.1 119.7 35.3 172.1l38.5 69.1c3.6 6.5 6.9 13.1 9.8 19.8 24.8 57.2 24.2 122.9-3.4 179.6-17.6 36.2-41 63.9-63.7 84.6-46.4 42.2-113.9 52-170.3 24.9-256.9-123.7-243.2-619.6-243.2-619.6S199.9 217 845.4 217s712 584.1 712 584.1z"/>
        <path class="st1" d="M1526.4 1402.7c-76.7 123.1-221.6 142.2-298.7 0-84-155.2-316.8-268.6-515.9-139.6-2.9-6.7-6.2-13.3-9.8-19.8l-38.5-69.1c-29.2-52.4-41.9-112.5-35.3-172.1 8.4-75.3 48.4-162.7 178-201 250.4-74 657.3-31.6 751.2 0 0 0-115.7 173.8-67.3 307 48.5 133.2 113 171.5 36.3 294.6z"/>
        <path class="st1" d="M1674 1317.1l-50 19.7-316.7 7.1-820.7-102-103.8-144.4c44.9-206.1 141.6-305.7 141.6-305.7C766.6 632.5 1585 632 1586.1 771.9"/>
        <path class="st1" d="M1596.6 1650.6l39.7-454.5h-337.9"/>
        <path class="st1" d="M442 921.2l153.5 202.2 702.9 72.7 8.9 506.6"/>
        <path class="st1" d="M1636.3 1196.1l37.7-20.8-178.1-51.9"/>
        <path class="st1" d="M1506.3 902.9l150.6 704.3c-33.1 38-120.3 90.1-349.6 95.4-364.8 8.5-583.7-123.9-632.2-207.6L524.4 791.9"/>
    </g>
</svg>
