<svg xmlns="http://www.w3.org/2000/svg" viewBox="0 0 1920 1920">
    <style>
        .st0{fill:#fff}.st1{fill:none;stroke:#231f20;stroke-width:50;stroke-linecap:round;stroke-linejoin:round;stroke-miterlimit:10}
    </style>
    <path class="st0" d="M1692.3 583.7c-7.2 5.9-17.9 13.2-32.2 18.9l2.9 9.6 30 134.2s-3.2 28.5-26 28.5c-21.3 0-86.4-48-84.4-164.9-19-3.1-40.3-9.8-63.8-21.5-4.2-2.1-8.2-4.2-12.1-6.3-30.4 14.8-140.9 75-157.2 179.2-3.4 21.5-4.8 45-4.8 69.1 0 65.5 10.2 135.4 18.7 181.9.7 4.1 1.1 8.2 1.1 12.2 0 27.3-16.5 52.5-42.5 63.1l-73.2 29.7c-10.8 46.5-51.3 45-51.3 45s-2.1-.1-5.9-.4c-12.2-.8-41.9-2.7-74.3-4.6-42.8-2.5-90.4-5-108.8-5-36.8 0-48.5-70.3-48.5-70.3s-11.7 70.3-48.5 70.3c-18.5 0-66.1 2.5-108.8 5-32.4 1.9-62.1 3.8-74.3 4.6-3.8.2-5.9.4-5.9.4s-40.5 1.5-51.3-45l-73.2-29.7c-8.5-3.5-16.1-8.5-22.3-14.7-12.8-12.7-20.2-30.1-20.2-48.4 0-4 .4-8.1 1.1-12.2 8.5-46.6 18.7-116.5 18.7-181.9 0-24.1-1.4-47.6-4.8-69.1-7.1-45.6-32.3-82.8-60.9-111.4-36.8-36.8-79.2-59.5-96.3-67.8-3.9 2.1-7.9 4.2-12.1 6.3-23.5 11.8-44.8 18.4-63.8 21.5 2 116.9-63.1 164.9-84.4 164.9-22.9 0-26-28.5-26-28.5l30-134.2 2.9-9.6c-28.6-11.5-42.9-29.2-42.9-29.2l17.4-60.3c78.1-88.7 269.8-110.7 269.8-110.7 11.7 8.9 18.6 21.8 20.2 37.1l177.6-52s9.7 24.1 38.1 51.1c17.2 16.3 41.1 33.6 73.9 47.4 87.1 36.6 146 88.9 146 136 0 0 0-.8.1-2.1v-.4c2-46.5 60.4-97.6 146.1-133.6 32.8-13.8 56.8-31.2 74-47.5 28.4-27 38-51 38-51l177.6 52c1.6-15.3 8.4-28.1 20.2-37.1 0 0 191.7 22 269.8 110.7l17.4 60.3c-.1.1-3.7 4.5-10.9 10.4z" id="Layer_6"/>
    <path class="st0" d="M1180.1 438.4c-17.2 16.3-41.2 33.7-74 47.5-85.6 36-144 87.1-146.1 133.6 0-2.5.1-6.7 0-12.2.5-32.7 5.2-111.1 37.3-147.6 41.2-46.7 97.1-101.7 97.1-101.7s59.5-42.1 82.4 22.9c6.2 17.4 6.4 37.5 3.3 57.5z" id="Layer_7"/>
    <path class="st0" d="M960.1 619.7c0 .8-.1 1.5-.1 2.3 0-47.1-58.9-99.5-146.1-136.1-32.8-13.8-56.7-31.1-73.9-47.4-3.1-20.1-2.9-40.2 3.2-57.6 22.9-65 82.4-22.9 82.4-22.9s55.9 55 97.1 101.7c32.2 36.5 36.8 114.9 37.3 147.6 0 5.7 0 10 .1 12.4z" id="Layer_19"/>
    <path class="st0" d="M1191.7 1162v93.8l-5.7-.6c-15.9-1.5-33.5-2.9-51.8-4.1-5.6-.3-11.2-.7-16.8-1v-92.7c32.4 1.9 62 3.8 74.3 4.6z" id="Layer_8"/>
    <path class="st0" d="M802.6 1157.4v92.7c-5.8.3-11.6.7-17.4 1.1-3.4.2-6.7.4-10 .7-1.1.1-2.2.2-3.3.2-1.2.1-2.4.2-3.5.2-1.7.1-3.3.2-5 .4-.7.1-1.3.1-1.9.2-2.6.2-5.1.4-7.6.6-1.4.1-2.9.2-4.3.4-2.1.2-4.1.3-6.1.5l-3 .3c-.9.1-1.9.2-2.8.3-1 .1-2.1.2-3.1.3l-6.3.6V1162c12.3-.8 41.9-2.7 74.3-4.6z" id="Layer_18"/>
    <path class="st0" d="M1276.2 1355.5c-19.4 44.5-61 138.6-61 138.6s-19.4 40.2-53.2 40.2H758c-33.8 0-53.2-40.2-53.2-40.2s-41.7-94.1-61-138.6c-19.4-44.5-3.6-71.8 27.4-89.1 7.6-4.3 29.1-7.8 57.2-10.6l6.3-.6c1-.1 2.1-.2 3.1-.3.9-.1 1.9-.2 2.8-.3l3-.3c2-.2 4.1-.3 6.1-.5 1.4-.1 2.8-.2 4.3-.4 1.7-.1 3.4-.3 5.1-.4 2.1-.2 4.3-.3 6.4-.5.2 0 .5 0 .7-.1 3-.2 6-.4 9.1-.6 3.3-.2 6.6-.5 10-.7 5.7-.4 11.6-.7 17.4-1.1 76.6-4.4 157.4-6 157.4-6s80.8 1.6 157.4 6c5.6.3 11.2.7 16.8 1 18.3 1.2 36 2.5 51.8 4.1l5.7.6c28 2.9 49.5 6.4 57.2 10.6 30.8 17.4 46.6 44.6 27.2 89.2z" id="Layer_9"/>
    <g id="STROKES">
        <path class="st1" d="M487.7 525.5c-17.9 19.7-42.5 39.2-74.5 56.6-3.9 2.1-7.9 4.2-12.1 6.3-23.5 11.8-44.8 18.4-63.8 21.5-32.3 5.3-58.2.4-77.5-7.4-28.6-11.5-42.9-29.2-42.9-29.2l17.4-60.3c78.1-88.7 269.8-110.7 269.8-110.7 11.7 8.9 18.6 21.8 20.2 37.1 2.5 24.7-8.9 55.7-36.6 86.1z"/>
        <path class="st1" d="M234.3 513.1s94.2 64 190.6-19"/>
        <path class="st1" d="M253 774.9c-22.9 0-26-28.5-26-28.5l30-134.2 2.9-9.6c19.3 7.8 45.2 12.7 77.5 7.4 2 116.9-63.1 164.9-84.4 164.9z"/>
        <path class="st1" d="M413.2 582.2c30.4 14.7 140.9 75 157.3 179.2 12.5 80-2.4 187.3-13.9 251.1-5.8 31.7 11.5 63.1 41.4 75.3l73.2 29.7"/>
        <path class="st1" d="M802.6 1157.4v92.7c-26.4 1.5-52.4 3.4-74.3 5.6V1162c12.3-.8 41.9-2.7 74.3-4.6z"/>
        <path class="st1" d="M960.1 619.7v.2c0 1.4-.1 2.1-.1 2.1 0-.7 0-1.5.1-2.3z"/>
        <path class="st1" d="M1703.1 573.4s-14.3 17.7-42.9 29.2c-19.3 7.8-45.2 12.7-77.5 7.4-19-3.1-40.3-9.8-63.8-21.5-4.2-2.1-8.2-4.2-12.1-6.3-32-17.4-56.6-36.9-74.5-56.6-27.6-30.5-39.1-61.4-36.6-86.2 1.6-15.3 8.4-28.1 20.2-37.1 0 0 191.7 22 269.8 110.7l17.4 60.4z"/>
        <path class="st1" d="M1685.7 513.1s-94.2 64-190.6-19"/>
        <path class="st1" d="M1667 774.9c22.9 0 26-28.5 26-28.5l-30-134.2-2.9-9.6c-19.3 7.8-45.2 12.7-77.5 7.4-2 116.9 63.1 164.9 84.4 164.9z"/>
        <path class="st1" d="M1248.8 1117.4l73.2-29.7c29.9-12.1 47.2-43.5 41.4-75.3-11.6-63.7-26.5-171.1-13.9-251.1 16.3-104.2 126.8-164.5 157.3-179.2"/>
        <path class="st1" d="M1276.2 1355.5c-19.4 44.5-61 138.6-61 138.6s-19.4 40.2-53.2 40.2H758c-33.8 0-53.2-40.2-53.2-40.2s-41.7-94.1-61-138.6c-19.4-44.5-3.6-71.8 27.4-89.1 7.6-4.3 29.1-7.8 57.2-10.6 21.9-2.3 47.9-4.1 74.3-5.6 76.6-4.4 157.4-6 157.4-6s80.8 1.6 157.4 6c26.4 1.5 52.4 3.4 74.3 5.6 28 2.9 49.5 6.4 57.2 10.6 30.8 17.3 46.6 44.6 27.2 89.1z"/>
        <path class="st1" d="M1191.7 1162v93.8c-21.9-2.2-47.9-4.1-74.3-5.6v-92.7c32.4 1.8 62 3.7 74.3 4.5z"/>
        <path class="st1" d="M960 622v460.1s-11.7 70.3-48.5 70.3c-18.5 0-66.1 2.5-108.8 5-32.4 1.9-62.1 3.8-74.3 4.6-3.8.2-5.9.4-5.9.4s-40.5 1.5-51.3-45c-1.7-7.1-2.6-15.4-2.6-25 0-72-7.6-278.9-7.6-278.9s7.6-108.4-79.6-191.5c-71.9-68.5-89.7-90.8-93.7-96.5 27.6-30.5 39.1-61.4 36.6-86.2l177.6-52s9.7 24.1 38.1 51.1c17.2 16.3 41.1 33.6 73.9 47.4C901.1 522.6 960 574.9 960 622z"/>
        <path class="st1" d="M960.1 619.5v.4c0 1.4-.1 2.1-.1 2.1 0-47.1-58.9-99.5-146.1-136.1-32.8-13.8-56.7-31.1-73.9-47.4-3.1-20.1-2.9-40.2 3.2-57.6 22.9-65 82.4-22.9 82.4-22.9s55.9 55 97.1 101.7c32.2 36.5 36.8 114.9 37.3 147.6.1 5.5.1 9.7.1 12.2z"/>
        <path class="st1" d="M1180.1 438.4c-17.2 16.3-41.2 33.7-74 47.5-85.6 36-144 87.1-146.1 133.6 0-2.5.1-6.7 0-12.2.5-32.7 5.2-111.1 37.3-147.6 41.2-46.7 97.1-101.7 97.1-101.7s59.5-42.1 82.4 22.9c6.2 17.4 6.4 37.5 3.3 57.5z"/>
        <path class="st1" d="M1432.3 525.5c-4 5.7-21.8 28-93.7 96.5-87.2 83-79.6 191.5-79.6 191.5s-7.6 206.9-7.6 278.9c0 9.6-.9 17.9-2.6 25-10.8 46.5-51.3 45-51.3 45s-2.1-.1-5.9-.4c-12.2-.8-41.9-2.7-74.3-4.6-42.8-2.5-90.4-5-108.8-5-36.8 0-48.5-70.3-48.5-70.3V622s0-.8.1-2.1v-.4c2-46.5 60.4-97.6 146.1-133.6 32.8-13.8 56.8-31.2 74-47.5 28.4-27 38-51 38-51l177.6 52c-2.6 24.7 8.8 55.7 36.5 86.1z"/>
        <path class="st1" d="M960.1 619.5v.2c-.1-2.5-.1-6.8 0-12.4v12.2z"/>
        <path class="st1" d="M741.9 781h150.7v62H741.9z"/>
        <path class="st1" d="M1023.9 781h150.7v62h-150.7z"/>
    </g>
</svg>
