<svg xmlns="http://www.w3.org/2000/svg" viewBox="0 0 1920 1920">
    <style>
        .st0{fill:#fff}.st1{fill:none;stroke:#231f20;stroke-width:50;stroke-linecap:round;stroke-linejoin:round;stroke-miterlimit:10}
    </style>
    <path class="st0" d="M1566.9 685.1l13.2 32.3-199.6 102.8-16.1-30.8s-47.2 11.4-57 132.5c0 0-88.3 330.9-88.3 781.2H701c0-450.3-88.3-781.2-88.3-781.2v.9c0-.3 0-.6-.1-.9-9.8-121.1-57-132.5-57-132.5l-16.1 30.8-199.6-102.8 13.2-32.3c-52.9-99.8 0-284.8 0-284.8l213.3 233s3.9-275.4 210.2-275.4C821.8 430.3 883.1 501.5 960 532c76.9-30.5 138.2-101.7 183.4-174.1 206.4 0 210.2 275.4 210.2 275.4l213.3-233s52.9 185 0 284.8z" id="Layer_2"/>
    <path class="st0" d="M353.1 400.3l213.3 233-78.3-326.9z" id="Layer_4"/>
    <path class="st0" d="M1431.9 306.4l-78.3 326.9 213.3-233z" id="Layer_16"/>
    <path class="st0" d="M488.1 306.4l78.2 327S570.2 358 776.5 358c-26-41.5-46.6-83.4-61.9-118.2l-226.5 66.6z" id="Layer_5"/>
    <path class="st0" d="M1205.3 239.7c-15.3 34.8-36 76.7-61.9 118.2 206.4 0 210.2 275.4 210.2 275.4l78.2-327-226.5-66.6z" id="Layer_15"/>
    <path class="st0" d="M1205.3 239.7c-15.3 34.8-36 76.7-61.9 118.2-45.2 72.4-106.5 143.6-183.4 174.1-76.9-30.5-138.2-101.7-183.4-174.1-26-41.5-46.6-83.4-61.9-118.2L792 217c44 126.4 168 213.3 168 213.3s123.9-86.9 168-213.3l77.3 22.7z" id="Layer_6"/>
    <path class="st0" d="M701 1703.1H583l24.2-184.3c4.9-37.3 7.3-74.9 7.3-112.5V968.7c0-16.8-.6-32.1-1.7-45.9v-.9c-.1-.1 88.2 330.9 88.2 781.2z" id="Layer_7"/>
    <path class="st0" d="M1337 1703.1h-118c0-450.3 88.3-781.2 88.3-781.2-1.2 14.1-1.8 29.6-1.8 46.8v437.6c0 37.6 2.4 75.2 7.3 112.5l24.2 184.3z" id="Layer_22"/>
    <g id="STROKES">
        <path class="st1" d="M776.6 357.9c-206.4 0-210.2 275.4-210.2 275.4l-78.2-327 226.6-66.7c15.2 34.9 35.9 76.8 61.8 118.3z"/>
        <path class="st1" d="M612.7 921.8c-9.8-121.1-57-132.5-57-132.5L353.1 685.1c-52.9-99.8 0-284.8 0-284.8l213.3 233s37.6 53.4 46.3 288.5z"/>
        <path class="st1" d="M555.7 789.3l-16.2 30.9-199.6-102.8 13.2-32.3z"/>
        <path class="st1" d="M566.4 633.3l-213.3-233 135-93.9z"/>
        <path class="st1" d="M614.5 1023.9c0-37.3-.7-71.2-1.8-102"/>
        <path class="st1" d="M701 1703.1H583l24.2-184.3c4.9-37.3 7.3-74.9 7.3-112.5V968.7c0-16.8-.6-32.1-1.7-45.9v-.9c-.1-.1 88.2 330.9 88.2 781.2z"/>
        <path class="st1" d="M1312.9 1518.8l24.2 184.3H701c0-450.3-88.3-781.2-88.3-781.2v.9c0-.3 0-.6-.1-.9-8.7-235.2-46.3-288.5-46.3-288.5S570.2 358 776.5 358c45.2 72.4 106.5 143.6 183.4 174.1 76.9-30.5 138.2-101.7 183.4-174.1 206.4 0 210.2 275.4 210.2 275.4s-37.6 53.3-46.3 288.5c-1.2 14.1-1.8 29.6-1.8 46.8v437.6c.1 37.6 2.6 75.1 7.5 112.5z"/>
        <path class="st1" d="M1205.3 239.7c-15.3 34.8-36 76.7-61.9 118.2-45.2 72.4-106.5 143.6-183.4 174.1-76.9-30.5-138.2-101.7-183.4-174.1-26-41.5-46.6-83.4-61.9-118.2L792 217c44 126.4 168 213.3 168 213.3s123.9-86.9 168-213.3l77.3 22.7z"/>
        <path class="st1" d="M1431.9 306.4l-78.2 327S1349.8 358 1143.5 358c26-41.5 46.6-83.4 61.9-118.2l226.5 66.6z"/>
        <path class="st1" d="M1580.1 717.4l-199.6 102.8-16.2-30.9 202.6-104.2z"/>
        <path class="st1" d="M1566.9 685.1l-202.6 104.2s-47.2 11.4-57 132.5c8.7-235.2 46.3-288.5 46.3-288.5l78.2-327 135 94c.1 0 53 185 .1 284.8z"/>
        <path class="st1" d="M1219.1 1703.1c0-450.3 88.3-781.3 88.3-781.3-1.1 30.8-1.8 64.7-1.8 102"/>
        <path class="st1" d="M612.8 922.8c1 26.2 1.6 54.7 1.7 85.6v15.5"/>
        <path class="st1" d="M1566.9 400.3l-213.3 233"/>
    </g>
</svg>
