<svg xmlns="http://www.w3.org/2000/svg" viewBox="0 0 1920 1920">
    <style>
        .st0{fill:#fff}.st1{fill:none;stroke:#231f20;stroke-width:50;stroke-linecap:round;stroke-linejoin:round;stroke-miterlimit:10}
    </style>
    <path class="st0" d="M1354.8 577.2c-42 81.2-72.7 260.2-72.7 260.2V1650s-75.7 53.1-322.1 53.1-322.1-53.1-322.1-53.1V837.3s-7.7-44.8-20.6-99.6c-12.9-54.9-31.1-119.9-52.1-160.5 0 0 122.3-69.6 340.1-69.6 16.2 12.8 34.4 25 54.7 36.3 20.3-11.3 38.4-23.5 54.7-36.3 217.8 0 340.1 69.6 340.1 69.6z" id="Layer_11"/>
    <path class="st0" d="M637.9 989.2v80.4c-222.9 0-254.6-60.7-254.6-60.7s5.5-28 14-71.4c91.1 29.6 240.6 51.7 240.6 51.7z" id="Layer_12"/>
    <path class="st0" d="M617.3 737.7c12.9 54.9 20.6 99.6 20.6 99.6v60.2s-132-19.5-223.5-46.4c28.7-145 68.8-344.3 81.1-390.9 19.8-75.2 67.3-95 67.3-95L781.3 262c-7 47.1 14.8 159.6 124.1 245.6-217.8 0-340.1 69.6-340.1 69.6 20.9 40.6 39.1 105.6 52 160.5z" id="Layer_18"/>
    <path class="st0" d="M1522.6 937.5c-91 29.6-240.6 51.7-240.6 51.7v80.4c222.9 0 254.6-60.7 254.6-60.7s-5.4-27.9-14-71.4z" id="Layer_19"/>
    <path class="st0" d="M1282.1 897.6s132-19.5 223.5-46.4c-28.7-145-68.8-344.3-81.1-390.9-19.8-75.2-67.3-95-67.3-95L1138.7 262c7 47.1-14.8 159.6-124.1 245.6 217.9 0 340.1 69.6 340.1 69.6-42 81.2-72.7 260.2-72.7 260.2v60.2z" id="Layer_20"/>
    <path class="st0" d="M1522.6 937.5c-91 29.6-240.6 51.7-240.6 51.7v-91.7s132-19.5 223.5-46.4c1.2 6.1 2.4 12 3.5 17.8.4 1.9.8 3.9 1.1 5.8 1.5 7.7 3 15.2 4.4 22.4.3 1.4.5 2.7 5.7 28.8.3 1.5.6 3 .9 4.4.6 2.6 1.1 4.9 1.5 7.2z" id="Layer_21"/>
    <path class="st0" d="M637.9 897.6v91.7s-149.5-22.1-240.6-51.7c4.8-24.6 10.7-54.1 17.1-86.4 91.5 26.9 223.5 46.4 223.5 46.4z" id="Layer_13"/>
    <path class="st0" d="M1014.7 507.6c-16.2 12.8-34.4 25-54.7 36.3-20.3-11.3-38.4-23.5-54.7-36.3C796 421.6 774.2 309.1 781.2 262l24.2-11.4L839 217c0 192.4 120.9 250.8 120.9 250.8s120.9-58.4 120.9-250.8l33.6 33.6 24.2 11.4c7.2 47.1-14.7 159.6-123.9 245.6z" id="Layer_14"/>
    <g id="STROKES">
        <path class="st1" d="M1014.7 507.6c-16.2 12.8-34.4 25-54.7 36.3-20.3-11.3-38.4-23.5-54.7-36.3C796 421.6 774.2 309.1 781.2 262l24.2-11.4L839 217c0 192.4 120.9 250.8 120.9 250.8s120.9-58.4 120.9-250.8l33.6 33.6 24.2 11.4c7.2 47.1-14.7 159.6-123.9 245.6z"/>
        <path class="st1" d="M565.2 577.2c42 81.2 72.7 260.2 72.7 260.2v232.3c-222.9 0-254.5-60.7-254.5-60.7s5.5-28 14-71.4c4.8-24.6 10.7-54.1 17.1-86.4 28.7-145 68.8-344.3 81-390.9 19.8-75.2 67.3-95 67.3-95L781.3 262c-7 47.1 14.8 159.6 124.1 245.6-217.9 0-340.2 69.6-340.2 69.6z"/>
        <path class="st1" d="M565.2 577.2c-6-11.7-12.3-21.3-18.7-28.1"/>
        <path class="st1" d="M414.4 851.2c91.5 26.9 223.5 46.4 223.5 46.4"/>
        <path class="st1" d="M397.4 937.5c91 29.6 240.6 51.7 240.6 51.7"/>
        <path class="st1" d="M1354.8 577.2c-42 81.2-72.7 260.2-72.7 260.2V1650s-75.7 53.1-322.1 53.1c-246.4 0-322.1-53.1-322.1-53.1V837.3s-30.8-179-72.7-260.2c0 0 122.3-69.6 340.1-69.6 16.2 12.8 34.4 25 54.7 36.3 20.3-11.3 38.4-23.5 54.7-36.3 217.8.1 340.1 69.7 340.1 69.7z"/>
        <path class="st1" d="M1536.6 1009s-31.7 60.7-254.6 60.7V837.3s30.8-179 72.7-260.2c0 0-122.3-69.6-340.1-69.6 109.3-86 131.1-198.5 124.1-245.6l218.5 103.3s47.5 19.8 67.3 95c12.2 46.6 52.3 245.9 81.1 390.9 6.4 32.2 12.2 61.8 17.1 86.4 8.5 43.5 13.9 71.5 13.9 71.5z"/>
        <path class="st1" d="M1373.5 549.1c-6.4 6.8-12.7 16.4-18.7 28.1"/>
        <path class="st1" d="M1282.1 897.6s132-19.5 223.5-46.4"/>
        <path class="st1" d="M1282.1 989.2s149.5-22.1 240.6-51.7"/>
    </g>
</svg>
