<svg xmlns="http://www.w3.org/2000/svg" viewBox="0 0 1920 1920">
    <style>
        .st0{fill:#fff}.st1{fill:none;stroke:#231f20;stroke-width:50;stroke-linecap:round;stroke-linejoin:round;stroke-miterlimit:10}
    </style>
    <path class="st0" d="M1400.9 406.9L1364 509.1l-7.5 20.8-48.4-19.2-32.1-47.4-.2-.2-.1.1-71.1 98.8c-12.4-20.7-19-97.2-21.7-139.5.4.1.8.3 1.2.4-.4-.1-.8-.3-1.2-.4 0-.7-.1-1.3-.1-2l-24.4-11.2-18.4-11.7c-21.1-19-34.1-45-34.1-73.7 0-58.3 53.7-105.6 120-105.6s120 47.3 120 105.6c0 26.9-11.4 51.4-30.2 70l85.2 13z" id="Layer_2"/>
    <path class="st0" d="M1579.9 391.8s-12.1 211.4-46.8 266.2c0 0-131.1 30.4-225.1-7 28-33.9 51.7-69.3 67.1-94l79.6 23.7s46.8-144.1 63.3-157.6l-43.7-40.7-4.5-58.5h96.5l13.6 67.9z" id="Layer_4"/>
    <path class="st0" d="M972.2 496.7s-.3 67.2-74.5 53.4c-22.3-55-77.6-72-77.6-72-73.4 86.9-59.6 144.8-27.3 180.9 15.7-.3 56.8-19 56.8-19l38.6 43.2 2.1 2.3s-7.2 21-26.1 35.9c-9.4 7.4-21.6 13.4-37.3 14.5-8.4.6-16.9-.7-25.2-3.2-38.3-11.5-72.3-48.8-72.3-48.8-22.8-78 11.4-237.3 24.4-251.9 13-14.6 162.5-14.6 162.5-14.6s59.7 20 55.9 79.3z" id="Layer_5"/>
    <path class="st0" d="M888.2 683.2L849.6 640s-41.2 18.7-56.8 19c-32.3-36.2-46.1-94 27.3-180.8 0 0 55.3 17 77.6 72 12.6 31 14.7 74.1-9.5 133z" id="Layer_6"/>
    <path class="st0" d="M1375.1 557c-15.5 24.7-39.2 60.1-67.1 94-28.2 34.2-60.8 66.8-93.7 85.1-4.9 2.7-9.8 5.1-14.7 7.2-21.4 9-41.4 20.7-59.6 33.4-22.9 16-42.9 33.8-59 49.9-46-3.7-101.8-7.9-127.6-9.7l-89.3-95.4c18.8-14.9 26.1-35.9 26.1-35.9l-2.1-2.3c24.2-59 22.1-102 9.5-133.1 74.2 13.7 74.5-53.4 74.5-53.4 3.8-59.3-55.9-79.4-55.9-79.4l71.4-81.6c11.3-12.9 30.3-15.6 44.8-6.5l107.6 68.3 18.4 11.7 24.4 11.2c0 .7.1 1.3.1 2 2.7 42.3 9.3 118.8 21.7 139.5l71.1-98.8.2.1 32.1 47.4 48.4 19.2 7.5-20.8c16.3 10 21.5 31.4 11.2 47.9z" id="Layer_7"/>
    <path class="st0" d="M1560.8 1343.8s-165 80.5-188.8 80.5c-23.8 0-29.1-40.9-29.1-40.9s0-133.3-58.1-200.7c-58.1-67.3-56.8-211.2-56.8-211.2s-143.1 63.6-293.9 73.1c-34.3 81.7-80.2 184.4-101.3 202.5-36 30.9-244.3 130.5-352.2 233.4l-28.9 20.1s-80.3 138-90.3 186.9l-27.6 14.1s-37.6-125.8-8.8-265c0 0 55.2-18.8 80.3 1.2 0 0 89.1-69 99.1-91.6 10-22.6 71.5-110.4 175.6-143 0 0 51.6-120.4 97.1-225-22.4-38.7-23.8-82.4-23.1-96.6 1.1-22.9 35.5-117 47.5-149 8.3 2.5 16.8 3.8 25.2 3.2 15.7-1.1 27.9-7 37.3-14.5l89.3 95.4c25.8 1.8 81.6 6 127.6 9.7l-.2.2c65.4 5.8 131.4 13 165.8 20.7 61.2 13.6 77.4 43 81.7 57.5 1.8 6 3.8 11.9 6.1 17.8 23.8 59.6 57.8 310.9 62.7 320.8 5.3 10.6 55.5 34.3 55.5 34.3 84.5 25.1 151.8-15.9 153.1 7.9 1.4 23.9-44.8 58.2-44.8 58.2z" id="Layer_8"/>
    <g id="STROKES">
        <path class="st1" d="M863.5 722l89.9 94.8c34.5 2.4 80.8 5.8 127.3 9.9"/>
        <path class="st1" d="M888.2 683.2L849.6 640s-41.2 18.7-56.8 19c-32.3-36.1-46.1-94 27.3-180.8 0 0 135.2 41.5 68.1 205z"/>
        <path class="st1" d="M1194.3 425.7c-.9-.2-1.8-.4-2.7-.7-.1 0-.3-.1-.4-.1-.7-.2-1.3-.4-2-.6-.4-.1-.9-.2-1.3-.4-.6-.2-1.3-.4-1.9-.6-.2-.1-.4-.1-.6-.2-.4-.1-.8-.3-1.2-.4-.4-.1-.8-.3-1.2-.4-1-.3-1.9-.7-2.9-1-.1 0-.2-.1-.3-.1-.8-.3-1.7-.6-2.5-.9-.2-.1-.4-.2-.6-.2-.9-.4-1.8-.7-2.6-1.1-.7-.3-1.4-.6-2.2-.9-.1 0-.2-.1-.3-.1-.3-.2-.7-.3-1-.4-.8-.4-1.6-.7-2.4-1.1-.9-.5-1.9-.9-2.8-1.4-1.9-1-3.7-2-5.5-3h-.1c-.9-.5-1.7-1-2.6-1.6-.9-.5-1.8-1.1-2.6-1.7-.9-.6-1.7-1.1-2.6-1.7-1.7-1.2-3.4-2.4-5-3.6-.7-.5-1.3-1-2-1.5-.3-.2-.5-.4-.8-.7l-1.8-1.5c-.8-.7-1.7-1.4-2.5-2.2l18.4 11.6 24.4 11.2 11.6 5.3z"/>
        <path class="st1" d="M934.2 1044.6c-34.3 81.7-80.2 184.4-101.3 202.5-36 30.9-244.3 130.6-352.2 233.4l-28.9 20.1s-80.3 138-90.3 186.9l-27.6 14.1s-37.6-125.8-8.8-265c0 0 55.2-18.8 80.3 1.3 0 0 89.1-69 99.1-91.6 10-22.6 71.5-110.4 175.6-143 0 0 51.6-120.4 97.1-225 21.5 37.1 62.3 69.7 139.3 67.1 6-.1 11.9-.4 17.7-.8z"/>
        <path class="st1" d="M888.2 683.2l2.1 2.3s-16.3 47.1-63.4 50.4c-8.4.6-16.9-.7-25.2-3.2"/>
        <path class="st1" d="M787.8 657.9c1 .8 2.7 1.1 4.9 1.1"/>
        <path class="st1" d="M1400.9 406.9L1364 509.1l-7.5 20.8-48.4-19.2-2.2-32-5.1-72.4-5.8-82.5h50.9c0 26.9-11.4 51.4-30.2 70l85.2 13.1z"/>
        <path class="st1" d="M1295 323.9s-70.6 56.8-73.6 58.8l30.1 44.4c-1.1.2-2.2.4-3.4.6-7.2 1.2-14.6 1.8-22.2 1.8-11 0-21.6-1.3-31.7-3.7l-11.5-5.3-24.4-11.2-18.4-11.6c-21.1-19-34.1-45-34.1-73.7 0-58.3 53.7-105.6 120-105.6s120 47.3 120 105.6H1295z"/>
        <path class="st1" d="M1194.3 425.7c-.9-.2-1.8-.4-2.7-.7-.1 0-.3-.1-.4-.1-.7-.2-1.3-.4-2-.6-.4-.1-.9-.2-1.3-.4-.6-.2-1.3-.4-1.9-.6-.2-.1-.4-.1-.6-.2-.4-.1-.8-.3-1.2-.4-.4-.1-.8-.3-1.2-.4-1-.3-1.9-.7-2.9-1-.1 0-.2-.1-.3-.1-.8-.3-1.7-.6-2.5-.9-.2-.1-.4-.2-.6-.2-.9-.4-1.8-.7-2.6-1.1-.7-.3-1.4-.6-2.2-.9-.1 0-.2-.1-.3-.1-.3-.2-.7-.3-1-.4-.8-.4-1.6-.7-2.4-1.1-.9-.5-1.9-.9-2.8-1.4-1.9-1-3.7-2-5.5-3h-.1c-.9-.5-1.7-1-2.6-1.6-.9-.5-1.8-1.1-2.6-1.7-.9-.6-1.7-1.1-2.6-1.7-1.7-1.2-3.4-2.4-5-3.6-.7-.5-1.3-1-2-1.5-.3-.2-.5-.4-.8-.7l-1.8-1.5c-.8-.7-1.7-1.4-2.5-2.2l18.4 11.6 24.4 11.2 11.6 5.3z"/>
        <path class="st1" d="M1315.7 393.9l-14.1-2.2"/>
        <path class="st1" d="M1367.6 323.9h-21.7"/>
        <path class="st1" d="M1308.1 510.7l-32.1-47.4-.2-.2-22-32.6-2.4-3.5-30.1-44.4c3-2 73.6-58.8 73.6-58.8l5.8 82.5 5.1 72.4 2.3 32z"/>
        <path class="st1" d="M888.2 683.2L849.6 640s-41.2 18.7-56.8 19c-32.3-36.1-46.1-94 27.3-180.8 0 0 135.2 41.5 68.1 205z"/>
        <path class="st1" d="M1140.1 776.6s-113.3-38.4-151.3-165.7"/>
        <path class="st1" d="M1275.9 463.1l-.1.1-71.1 98.8c-12.5-20.7-19-97.2-21.7-139.5.4.1.8.3 1.2.4.4.1.8.3 1.2.4.2.1.4.2.6.2.6.2 1.3.4 1.9.6.4.1.9.3 1.3.4.7.2 1.3.4 2 .6.1 0 .3.1.4.1.9.3 1.8.5 2.7.7 10.1 2.4 20.7 3.7 31.7 3.7 7.6 0 15-.6 22.2-1.8l5.7 2.9 22 32.4z"/>
        <path class="st1" d="M1194.3 425.7c-.9-.2-1.8-.4-2.7-.7-.1 0-.3-.1-.4-.1-.7-.2-1.3-.4-2-.6-.4-.1-.9-.2-1.3-.4-.6-.2-1.3-.4-1.9-.6-.2-.1-.4-.1-.6-.2-.4-.1-.8-.3-1.2-.4-.4-.1-.8-.3-1.2-.4 0-.7-.1-1.3-.1-2l11.4 5.4z"/>
        <path class="st1" d="M1032.4 329.3s49.5 142.3 48.4 181.5"/>
        <path class="st1" d="M1214.3 736.1s-57.9-5.9-95.8-52.8"/>
        <path class="st1" d="M1605.7 1285.7c-1.3-23.8-68.7 17.2-153.1-7.9 0 0-50.2-23.8-55.5-34.3-5-9.9-38.9-261.1-62.7-320.8-2.3-5.8-4.4-11.7-6.1-17.8-4.3-14.5-20.4-43.9-81.6-57.5-34.4-7.7-100.4-14.9-165.8-20.7 16.2-16.2 36.2-34 59.2-50.1 18.2-12.7 38.1-24.4 59.6-33.4 4.9-2 9.8-4.5 14.7-7.2 32.9-18.3 65.5-50.9 93.7-85.1 28-33.9 51.7-69.3 67.1-94 10.3-16.4 5.1-37.9-11.1-47.9l-7.5 20.8-48.4-19.2-32.1-47.4-.2-.1-71.1 98.8c-12.5-20.7-19-97.2-21.7-139.5-1-.3-1.9-.7-2.9-1-.1 0-.2-.1-.3-.1-.8-.3-1.7-.6-2.5-.9-.2-.1-.4-.2-.6-.2-.9-.4-1.8-.7-2.6-1.1-.7-.3-1.4-.6-2.2-.9-.1 0-.2-.1-.3-.1-.3-.2-.7-.3-1-.4-.8-.4-1.6-.7-2.4-1.1-.9-.4-1.9-.9-2.8-1.4-1.9-1-3.7-2-5.5-3h-.1c-.9-.5-1.7-1-2.6-1.6-.9-.5-1.8-1.1-2.6-1.7-.9-.6-1.7-1.1-2.6-1.7-1.7-1.2-3.4-2.4-5-3.6-.7-.5-1.3-1-2-1.5-.3-.2-.5-.4-.8-.7l-1.8-1.5c-.8-.7-1.7-1.4-2.5-2.2l-107.6-68.3c-14.5-9.2-33.5-6.4-44.8 6.5l-71.4 81.6s-149.5 0-162.5 14.6S706.6 606 729.3 684c0 0 34 37.3 72.3 48.8-11.9 32-46.4 126.1-47.5 149-.7 14.1.7 57.9 23.1 96.6 21.5 37.1 62.3 69.7 139.3 67.1 5.9-.2 11.8-.5 17.7-.9 150.8-9.5 293.9-73.1 293.9-73.1s-1.3 143.9 56.8 211.2c58.1 67.3 58.1 200.7 58.1 200.7s5.3 40.9 29 40.9c23.8 0 188.8-80.5 188.8-80.5s46.2-34.3 44.9-58.1zM888.2 683.2L849.6 640s-41.2 18.7-56.8 19c-32.3-36.1-46.1-94 27.3-180.8 0 0 135.2 41.5 68.1 205z"/>
        <path class="st1" d="M1579.9 391.7s-12.1 211.4-46.8 266.2c0 0-131.1 30.4-225.1-7 28-33.9 51.7-69.3 67.1-94l79.6 23.7s46.8-144.1 63.3-157.6l-43.7-40.7-4.5-58.6h96.5l13.6 68z"/>
        <path class="st1" d="M916.2 417.4s59.8 20.1 55.9 79.4c0 0-.3 67.2-74.5 53.4"/>
    </g>
</svg>
