<svg xmlns="http://www.w3.org/2000/svg" viewBox="0 0 1920 1920">
    <style>
        .st0{fill:#fff}.st1{fill:none;stroke:#231f20;stroke-width:50;stroke-linecap:round;stroke-linejoin:round;stroke-miterlimit:10}
    </style>
    <path class="st0" d="M1127.1 384c0 20.2-9.2 109.8-23.4 236.3-6.5 57.9-14 123.5-22.1 193.8-7.1 61.7-14.7 127-22.5 193.8-7.4 63.9-15.1 129.1-22.6 193.8-7.6 65.8-15.2 131-22.4 193.8-6.2 53.8-12.2 105.8-17.7 154.8-2.4 21.7-19.4 32.5-36.4 32.5s-33.9-10.8-36.4-32.5c-5.5-49.1-11.5-101.1-17.7-154.8-7.3-62.9-14.9-128.1-22.5-193.8-7.6-64.8-15.2-130-22.7-193.8-7.8-66.8-15.4-132.1-22.6-193.8-8.1-70.2-15.6-135.9-22.1-193.8-13.9-124.8-23-213.8-23-236.3 0-92.3 74.8-167 167.1-167s167 74.7 167 167z" id="Layer_5"/>
    <g id="STROKES">
        <circle class="st1" cx="960" cy="384" r="82.7"/>
        <path class="st1" d="M1127.1 384c0-92.3-74.8-167.1-167.1-167.1S792.9 291.7 792.9 384c0 67.5 81.5 731.4 130.7 1166.2 4.9 43.4 67.9 43.4 72.8 0C1045.5 1115.4 1127.1 444 1127.1 384z"/>
        <path class="st1" d="M960 1582.8v113"/>
        <path class="st1" d="M1103.7 620.3H816"/>
        <path class="st1" d="M1081.6 814.1H838.1"/>
        <path class="st1" d="M1059.1 1007.8H860.7"/>
        <path class="st1" d="M1036.6 1201.6H883.3"/>
        <path class="st1" d="M1014.1 1395.4H905.9"/>
    </g>
</svg>
