<svg xmlns="http://www.w3.org/2000/svg" viewBox="0 0 1920 1920">
    <style>
        .st0{fill:#fff}.st1,.st2{fill:none;stroke-miterlimit:10}.st1{stroke-linecap:round;stroke-linejoin:round;stroke:#231f20;stroke-width:50}.st2{stroke:#202020;stroke-width:59.1023}
    </style>
    <path class="st0" d="M1494.7 697.1V963h-108.5V634.8c-66.5-30.7-146.2-55.7-241.7-69.9-38.4-5.7-79.3-9.7-123-11.7-19.9-.9-40.4-1.3-61.5-1.3s-41.5.5-61.5 1.3c-43.6 1.9-84.6 5.9-123 11.7-95.5 14.2-175.3 39.2-241.7 69.9V963H425.3V697.1C257.3 815.4 217 963 217 963s40.4 147.6 208.4 265.9c31.5 22.2 67.5 43.4 108.5 62.3 105.4 48.7 244.2 82.9 426.2 82.9s320.7-34.2 426.2-82.9c41-18.9 77-40.1 108.5-62.3C1662.7 1110.6 1703 963 1703 963s-40.3-147.6-208.3-265.9z" id="Layer_7"/>
    <path class="st0" d="M425.3 963h108.5V634.8c-41 19-77 40.1-108.5 62.3V963z" id="Layer_8"/>
    <path class="st0" d="M1386.2 634.8V963h108.5V697.1c-31.5-22.2-67.5-43.3-108.5-62.3z" id="Layer_9"/>
    <g id="STROKES">
        <path class="st1" d="M1703 963s-40.4 147.6-208.4 265.9c-31.5 22.2-67.5 43.4-108.5 62.3-105.4 48.7-244.2 82.9-426.2 82.9s-320.7-34.2-426.2-82.9c-41-18.9-77-40.1-108.5-62.3C257.3 1110.6 217 963 217 963h1486z"/>
        <path class="st1" d="M1703 963H217s40.4-147.6 208.4-265.9c31.5-22.2 67.5-43.3 108.5-62.3 105.4-48.7 244.2-82.9 426.2-82.9s320.7 34.2 426.2 82.9c41 19 77 40.1 108.5 62.3C1662.7 815.4 1703 963 1703 963z"/>
        <path class="st1" d="M533.8 634.8V963H425.3V697.1c31.5-22.2 67.5-43.3 108.5-62.3z"/>
        <path class="st1" d="M1494.7 697.1V963h-108.5V634.8c41 19 77 40.1 108.5 62.3z"/>
        <path class="st1" d="M775.6 634.8v-69.9"/>
        <path class="st1" d="M898.5 625.8v-72.6"/>
        <path class="st1" d="M1021.5 625.8v-72.6"/>
        <path class="st1" d="M1144.4 634.8v-69.9"/>
    </g>
</svg>
