<svg xmlns="http://www.w3.org/2000/svg" viewBox="0 0 1920 1920">
    <style>
        .st0{fill:#fff}.st1{fill:none;stroke:#231f20;stroke-width:50;stroke-linecap:round;stroke-linejoin:round;stroke-miterlimit:10}
    </style>
    <path class="st0" d="M1096.4 218.9s105.8 246.8 45.1 383.4c-60.7 136.6-74.2 97.3-112.7 220.4v864.7c0 8.6-7 15.6-15.6 15.6h-54.8c-8.6 0-15.6-7-15.6-15.6V822.8C904.5 699.6 891 739 830.3 602.4 769.6 465.8 875.4 219 875.4 219H893v226.3c0 24.7 6 49.1 17.4 71.1 11.9-9.2 21.7-20.6 29.1-33.3 7.4-12.8 12.4-26.9 14.5-41.8l32-223.8 32 223.8c4.2 29.8 19.9 56.7 43.6 75.2 5.7-11 10-22.6 13-34.5 2.9-11.9 4.4-24.2 4.4-36.6V218.9h17.4z" id="Layer_2"/>
    <path class="st1" d="M985.9 217.4l32 223.8c4.2 29.8 19.9 56.7 43.6 75.2 5.7-11 10-22.6 13-34.5 2.9-11.9 4.4-24.2 4.4-36.6V218.9h17.6s105.8 246.8 45.1 383.4c-60.7 136.6-74.2 97.3-112.7 220.4v864.7c0 8.6-7 15.6-15.6 15.6h-54.8c-8.6 0-15.6-7-15.6-15.6V822.8C904.5 699.6 891 739 830.3 602.4 769.6 465.8 875.4 219 875.4 219H893v226.3c0 24.7 6 49.1 17.4 71.1 11.9-9.2 21.7-20.6 29.1-33.3 7.4-12.8 12.4-26.9 14.5-41.8l31.9-223.9z" id="Layer_3"/>
</svg>
