<svg xmlns="http://www.w3.org/2000/svg" viewBox="0 0 1920 1920">
    <style>
        .st0{fill:#fff}.st1{fill:none;stroke:#231f20;stroke-width:50;stroke-linecap:round;stroke-linejoin:round;stroke-miterlimit:10}
    </style>
    <path class="st0" d="M1121.5 421.1V696c0 32-26.2 58.2-58.2 58.2h-63.9s3.6 638.1 50.4 783.6c41.2 128.2-60.4 158.8-85.2 164.3-3.1.7-6.2 1-9.3 1s-6.3-.3-9.3-1c-24.8-5.5-126.5-36.1-85.2-164.3 46.8-145.5 50.4-783.6 50.4-783.6h-73.3c-32 0-58.2-26.2-58.2-58.2V251.1c0-18.8 15.4-34.2 34.2-34.2 18.8 0 34.2 15.4 34.2 34.2v307.2c0 16.4 13.4 29.8 29.8 29.8h8.9c15.1 0 27.6-11.3 29.5-25.9v-311c0-1.4.1-2.8.3-4.2 1-8.4 5.2-15.9 11.2-21.3 6-5.4 14-8.7 22.7-8.7 18.8 0 34.2 15.4 34.2 34.2v307.2c0 16.4 13.4 29.8 29.8 29.8h8.9c16.4 0 29.8-13.4 29.8-29.8V251.2c0-18.8 15.4-34.2 34.2-34.2 18.8 0 34.2 15.4 34.2 34.2v169.9z" id="Layer_1"/>
    <path class="st1" d="M1087.3 216.9c-18.8 0-34.2 15.4-34.2 34.2v307.2c0 16.4-13.4 29.8-29.8 29.8h-8.9c-16.4 0-29.8-13.4-29.8-29.8V251.2c0-18.8-15.4-34.2-34.2-34.2-8.7 0-16.7 3.3-22.7 8.7-6.1 5.4-10.2 12.9-11.2 21.3-.2 1.4-.3 2.8-.3 4.2v311.1c-1.9 14.6-14.5 25.9-29.5 25.9h-8.9c-16.4 0-29.8-13.4-29.8-29.8V251.2c0-18.8-15.4-34.2-34.2-34.2-18.8 0-34.2 15.4-34.2 34.2V696c0 32 26.2 58.2 58.2 58.2h73.3s-3.6 638.1-50.4 783.6c-41.2 128.2 60.4 158.8 85.2 164.3 3.1.7 6.2 1 9.3 1s6.3-.3 9.3-1c24.8-5.5 126.4-36.1 85.2-164.3-46.8-145.5-50.4-783.6-50.4-783.6h63.9c32 0 58.2-26.2 58.2-58.2V251.1c.1-18.8-15.3-34.2-34.1-34.2z" id="Layer_3"/>
</svg>
