<svg xmlns="http://www.w3.org/2000/svg" viewBox="0 0 1920 1920">
    <style>
        .st0{fill:#fff}.st1{fill:none;stroke:#231f20;stroke-width:50;stroke-linecap:round;stroke-linejoin:round;stroke-miterlimit:10}
    </style>
    <path class="st0" d="M1583 950.7s-391.3 153.5-447.1-360.4c52.1-74 138.2-122.4 235.6-122.4 159 0 287.9 128.9 287.9 287.9 0 75.2-28.8 143.6-76 194.9h-.4zM787 593.9c-.1.1-.2.1-.4.2C734.8 517.9 647.5 468 548.5 468c-159 0-287.9 128.9-287.9 287.9 0 75.2 28.8 143.6 76 194.9h.5S731.5 1108 787.2 594.1l-.2-.2z" id="Layer_1"/>
    <path class="st0" d="M1135.9 590.3c55.8 513.9 447.1 360.4 447.1 360.4h.5c8.1 54.9 27.9 121.9 76 149.4 21.7 12.4 34.8 28.3 40.4 45.3 0 0-469.4 67.6-739.9 67.6s-739.9-67.6-739.9-67.6c5.6-17 18.6-32.9 40.4-45.3 48.1-27.5 67.9-94.5 76-149.4h.5S731.4 1107.9 787.1 594l-.1-.2c59.4-29.3 122.4-50.8 179.5-50.8 54.8.1 113.8 19.8 169.4 47.3z" id="Layer_2"/>
    <path class="st0" d="M1699.9 1145.4c16.9 51.4-34.9 112.7-121.8 117.4-115.7 6.3-96.9 184.7-250.3 187.8-153.3 3.1-367.7 0-367.7 0s-214.4 3.1-367.7 0c-153.4-3.1-134.6-181.5-250.3-187.8-87-4.7-138.8-66-121.8-117.4 0 0 469.4 67.6 739.9 67.6s739.7-67.6 739.7-67.6z" id="Layer_4"/>
    <g id="STROKES">
        <path class="st1" d="M1699.9 1145.4c-5.6-17-18.6-32.9-40.4-45.3-48.1-27.5-67.9-94.5-76-149.4 47.2-51.3 76-119.7 76-194.9 0-159-128.9-287.9-287.9-287.9-97.4 0-183.5 48.4-235.6 122.4-55.6-27.5-114.6-47.3-169.4-47.3-57.1 0-120.1 21.5-179.5 50.8-.1.1-.2.1-.4.2-51.9-76.1-139.2-126-238.2-126-159 0-287.9 128.9-287.9 287.9 0 75.2 28.8 143.6 76 194.9-8.1 54.9-27.9 121.9-76 149.4-21.7 12.4-34.8 28.3-40.4 45.3-16.9 51.4 34.9 112.7 121.8 117.4 115.7 6.3 96.9 184.7 250.3 187.8 153.3 3.1 367.7 0 367.7 0s214.4 3.1 367.7 0c153.4-3.1 134.6-181.5 250.3-187.8 87-4.7 138.8-66.1 121.9-117.5z"/>
        <path class="st1" d="M337 950.7S731.4 1107.9 787.1 594"/>
        <path class="st1" d="M533 580.9s-137.7 132.2-43.8 259.3"/>
        <path class="st1" d="M1583 950.7s-391.3 153.5-447.1-360.4"/>
        <path class="st1" d="M1387 580.9s137.7 132.2 43.8 259.3"/>
        <path class="st1" d="M220.1 1145.4S689.5 1213 960 1213s739.9-67.6 739.9-67.6"/>
        <path class="st1" d="M903.7 960v77.8"/>
        <path class="st1" d="M1016.3 960v77.8"/>
    </g>
</svg>
