<svg xmlns="http://www.w3.org/2000/svg" viewBox="0 0 1920 1920">
    <style>
        .st0{fill:#fff}.st1{fill:none;stroke:#231f20;stroke-width:50;stroke-linecap:round;stroke-linejoin:round;stroke-miterlimit:10}
    </style>
    <path class="st0" d="M1075 1422.3c-.7 28.9-20.6 57.4-58.8 57.4H773c-160-133.3-535.6-88.8-535.6-88.8-10.6-45.1 14-87.3 70.4-111.6 9-3.9 18.1-7.2 26.5-17.4-17.4 0-34.7.2-52.1 0-61.5-.8-80.4-31.3-53-86.8 7.5-15.2 17.5-29.6 28.2-42.9 15.5-19.2 30.8-38.6 46-58.1 0 0 .1-.1.3-.4.1-.1.2-.2.2-.3 0-.1.1-.1.1-.2.1-.2.2-.3.4-.5.1-.1.1-.2.2-.2 12.2-15.1 112.1-128.1 280.3-11.9 179.8 124.1 232.2-332.1 232.2-332.1 134.3-22.8 260.1-71.4 372.6-154.3 32.1-23.7 54.5-60.3 82.7-89.7 54.3-56.8 83.9-56.9 146-10.8 20.5 15.2 48.4 22.6 74 28.4 44.9 10.2 92.5 11.1 135.7 25.6 74.6 24.9 89.9 67.4 61.3 140.2 0 0-188.6 85.2-376.6 81.2s-42.8 472.6-42.8 472.6c40.3 51.4 91.2 68.9 132.5 121.5 57 0 94.8 11.4 119.8 25.6 25.6 14.5 15.2 53.7-14.3 53.7h-433zm8.8-465.6c0-38.4-41.2-69.6-92-69.6s-92 31.1-92 69.6c0 38.4 41.2 69.6 92 69.6s92-31.2 92-69.6z" id="Layer_5"/>
    <path class="st0" d="M773 1479.7H369.9s-72-1.8-96.9-27.8c-19.1-20-30.9-40.8-35.6-60.9 0-.1 375.6-44.6 535.6 88.7zM1313 749c-188-4-42.8 472.6-42.8 472.6 19.5-32 48.1-64.4 60.3-102.1 26.3-81.1 81.6-139.3 144.6-188 93.1-71.9 170.9-152.7 214.4-263.7.1 0-188.5 85.2-376.5 81.2zm-592-8.7c-92.4 7.4-171.4 48-231.7 110.6-66.5 69-125.1 145.7-184.5 221.6 12.2-15.1 112.1-128.1 280.3-11.9 179.8 124.1 232.2-332.1 232.2-332.1-31.7 5.3-63.8 9.2-96.3 11.8zm178.7 216.4c0 38.4 41.2 69.6 92 69.6s92-31.2 92-69.6c0-38.4-41.2-69.6-92-69.6-50.8.1-92 31.2-92 69.6z" id="Layer_6"/>
    <g id="STROKES">
        <path class="st1" d="M304.8 1072.5c59.4-75.9 118-152.5 184.5-221.6 60.3-62.6 139.4-103.2 231.7-110.6 32.5-2.6 64.6-6.5 96.2-11.9 134.3-22.8 260.1-71.4 372.6-154.3 32.1-23.7 54.5-60.3 82.7-89.7 54.3-56.8 83.9-56.9 146-10.8 20.5 15.2 48.4 22.6 74 28.4 44.9 10.2 92.5 11.1 135.7 25.6 74.6 24.9 89.9 67.4 61.3 140.2-43.5 111-121.4 191.8-214.4 263.7-63 48.7-118.3 106.9-144.6 188-12.2 37.7-40.8 70.1-60.3 102.1 40.3 51.4 91.2 68.9 132.5 121.5 57 0 94.8 11.4 119.8 25.6 25.6 14.5 15.2 53.7-14.3 53.7H1075"/>
        <path class="st1" d="M304.2 1073.2c.1-.2.2-.3.4-.5"/>
        <path class="st1" d="M303.8 1073.7c.1-.1.2-.2.2-.3"/>
        <path class="st1" d="M560.3 1202.2s98.3-18.5 195.9 98.1c97.6 116.6 243.8 61.4 243.8 61.4 6.8 0 13.3.2 19.5.5 37.9 2 56.2 31.3 55.5 60-.7 28.9-20.6 57.4-58.8 57.4H369.9s-72-1.8-96.9-27.8c-19.1-20-30.9-40.8-35.6-60.9-10.6-45.1 14-87.3 70.4-111.6 9-3.9 18.1-7.2 26.5-17.4-17.4 0-34.7.2-52.1 0-61.5-.8-80.4-31.3-53-86.8 7.5-15.2 17.5-29.6 28.2-42.9 15.5-19.2 30.8-38.6 46-58.1"/>
        <path class="st1" d="M1354.8 568.7h4"/>
        <path class="st1" d="M303.5 1074.1s.1-.1.3-.4c.1-.1.2-.2.2-.3 0-.1.1-.1.1-.2.1-.1.2-.3.4-.5.1-.1.1-.2.2-.2 12.2-15.1 112.1-128.1 280.3-11.9 179.8 124.1 232.2-332.1 232.2-332.1"/>
        <path class="st1" d="M1083.8 956.7c0 38.4-41.2 69.6-92 69.6s-92-31.2-92-69.6c0-38.4 41.2-69.6 92-69.6 50.8.1 92 31.2 92 69.6z"/>
        <path class="st1" d="M237.4 1390.9s375.6-44.5 535.6 88.8"/>
        <path class="st1" d="M1689.6 667.8S1501 753 1313 749s-42.8 472.6-42.8 472.6"/>
    </g>
</svg>
