<svg xmlns="http://www.w3.org/2000/svg" viewBox="0 0 1920 1920">
    <style>
        .st0{fill:#fff}.st1{fill:none;stroke:#231f20;stroke-width:50;stroke-linecap:round;stroke-linejoin:round;stroke-miterlimit:10}
    </style>
    <path class="st0" d="M1665.8 884.9v320c0-143.6-49.7-217.3-107.7-254.4v-65.6c0-29.8 24.1-53.9 53.9-53.9 14.9 0 28.3 6 38.1 15.8 9.7 9.7 15.7 23.2 15.7 38.1zm-367.6-175l206.4 33.3 165.6-148.1c5.3-4.7 9.4-10.5 12.2-16.8 2.8-6.3 4.3-13.2 4.3-20.3 0-43.6-52-66.1-83.8-36.3l-62.4 58.5-115-165.3c-9.1-13.1-23.9-20.5-39.2-20.5-4.8 0-9.6.7-14.3 2.2-30.8 9.7-43.3 46.4-24.9 72.9l115.4 165.6-305.2-47.3c.1 0 77.5 46.2 140.9 122.1zM580.7 272.4c-214.2 99.1 32.6 366.2 32.6 366.2l60.5 156c-19.5 216.5-131.5 256-131.5 256L433 923.6c-10.4-12-24.9-18.1-39.5-18.1-13.7 0-27.5 5.4-37.8 16.2-19.8 20.8-19 53.7 1.8 73.6l107.9 103.1-182.9-25.9c-2-.3-4.1-.4-6.1-.4-19.3 0-36.7 13-41.7 32.2-6.9 25.9 11.4 51.8 38.1 54l241.6 20.4 184.2 66.4c4.3 1.6 8.8 2.3 13.2 2.3 9.7 0 19.3-3.6 26.6-10.5 20.2-18.8 15-52.1-10-63.9l-88-41.4 109.7-165.4 334.3 413c-219-45-334.3 79.1-334.3 79.1l-117.9 13.3c-9.1 1-17.5 4.5-24.5 9.8-7 5.3-12.6 12.5-16 21-12.2 30.4 7.9 64.1 40.5 67.7l203.1-13.9c-60.5 36.9-79.9 69.4-79.9 94 0 25.4 20.8 42.5 38.4 47.2 10.2 2.8 21 1.3 30.1-4.2 24.2-14.6 99.2-92.4 296.5-101 271.9-11.8 144.9-199.5 201-240 56.1-40.5 340.8 210.7 344.2-141.1v-6.2c0-143.6-49.7-217.3-107.7-254.4-81.3-52-179-32.2-179-32.2 4.5-81.2-34.5-152.8-80.9-208.4-63.4-75.9-140.8-122-140.8-122-12.3-200.7-213.5-483.5-576.5-315.5z" id="Layer_5"/>
    <g id="STROKES">
        <g id="XMLID_1_">
            <path class="st1" d="M1665.8 1204.9v6.2c-3.5 351.8-288.1 100.6-344.2 141.1-56.2 40.5 70.9 228.2-201 240-197.3 8.6-272.3 86.4-296.5 101-9 5.4-19.9 6.9-30.1 4.2-17.6-4.8-38.4-21.8-38.4-47.2 0-24.6 19.4-57.1 79.9-94l-203.1 13.9c-32.6-3.6-52.7-37.3-40.5-67.7 3.4-8.5 9-15.6 16-21 7-5.3 15.4-8.8 24.5-9.8l117.9-13.3s115.3-124.1 334.3-79.1l-334.3-413-109.7 165.4 88 41.4c25 11.8 30.2 45 10 63.9-7.4 6.9-16.9 10.5-26.6 10.5-4.5 0-8.9-.8-13.2-2.3l-184.2-66.4-241.6-20.4c-26.7-2.3-45-28.1-38.1-54 5-19.2 22.4-32.2 41.7-32.2 2 0 4 .1 6.1.4l182.9 25.9-108.1-103.2c-20.8-19.8-21.6-52.7-1.8-73.6 10.3-10.9 24.1-16.2 37.8-16.2 14.6 0 29.2 6.1 39.5 18.1l109.3 127.1s112-39.5 131.5-256l-60.5-156s-246.8-267-32.6-366.2c363-168 564.2 114.8 576.7 315.5 0 0 77.4 46.1 140.8 122 46.5 55.6 85.4 127.2 80.9 208.4 0 0 97.7-19.9 179 32.2 58 37.1 107.7 110.8 107.7 254.4z"/>
            <path class="st1" d="M1157.4 587.8l305.2 47.3-115.4-165.6c-18.4-26.5-5.9-63.2 24.9-72.9 4.7-1.5 9.5-2.2 14.3-2.2 15.3 0 30.1 7.4 39.2 20.5l115 165.3 62.4-58.5c31.8-29.8 83.8-7.3 83.8 36.3 0 7.1-1.5 14-4.3 20.3-2.8 6.3-7 12-12.2 16.8l-165.6 148.1-206.4-33.3"/>
            <path class="st1" d="M1558.1 950.4v-65.6c0-29.8 24.1-53.9 53.9-53.9 14.9 0 28.3 6 38.1 15.8 9.7 9.8 15.8 23.2 15.8 38.1v341.3"/>
        </g>
    </g>
</svg>
