<svg xmlns="http://www.w3.org/2000/svg" viewBox="0 0 1920 1920">
    <style>
        .st0{fill:#fff}.st1{fill:none;stroke:#231f20;stroke-width:50;stroke-linecap:round;stroke-linejoin:round;stroke-miterlimit:10}
    </style>
    <path class="st0" d="M1168.2 958.6v.3H216.9v-.3c0-36.7 46.6-66.4 104-66.4h6.9v-21.9c0-57.4 72.9-104 162.9-104h403.6c90 0 162.9 46.5 162.9 104v21.9h6.9c57.6 0 104.1 29.7 104.1 66.4zM657.5 701.1v65.2h78.9v-65.2h-78.9z" id="Layer_2"/>
    <path class="st0" d="M1667.1 958.9c19.8 0 35.9 16.1 35.9 35.9 0 9.9-4 18.9-10.5 25.4s-15.5 10.5-25.4 10.5H1460v-71.9h207.1zm-498.9 0h-20.9c26.4 0 39.6 45.3 20.9 71.9H1460v-71.9h-291.8zm-471.2 0H246.6c-26.4 0-39.6 45.3-20.9 71.9l123.6 175.8c5.5 7.9 13.1 12.3 20.9 12.3h653.5c7.9 0 15.4-4.4 20.9-12.3l123.6-175.8c18.6-26.5 5.4-71.9-20.9-71.9H697z" id="Layer_4"/>
    <g id="STROKES">
        <g id="XMLID_1_">
            <path class="st1" d="M246.6 958.9c-26.4 0-39.6 45.3-20.9 71.9l123.6 175.8c5.5 7.9 13.1 12.3 20.9 12.3H697"/>
            <path class="st1" d="M1147.3 958.9c26.4 0 39.6 45.3 20.9 71.9l-123.6 175.8c-5.6 7.9-13.1 12.3-20.9 12.3H697"/>
            <path class="st1" d="M1168.2 958.9H1460"/>
            <path class="st1" d="M1168.2 1030.8H1460"/>
            <path class="st1" d="M1460 958.9h207.1c19.8 0 35.9 16.1 35.9 35.9 0 9.9-4 18.9-10.5 25.4s-15.5 10.5-25.4 10.5H1460v-71.8z"/>
            <path class="st1" d="M1168.2 958.9v-.3c0-36.7-46.6-66.4-104-66.4h-6.9v-21.9c0-57.4-72.9-104-162.9-104H490.8c-90 0-162.9 46.5-162.9 104v21.9H321c-57.5 0-104 29.7-104 66.4v.3h951.2z"/>
            <path class="st1" d="M657.5 766.3v-65.2h78.9v65.2"/>
        </g>
    </g>
</svg>
