<svg xmlns="http://www.w3.org/2000/svg" viewBox="0 0 1920 1920">
    <style>
        .st0{fill:#fff}.st1{fill:none;stroke:#231f20;stroke-width:50;stroke-linecap:round;stroke-linejoin:round;stroke-miterlimit:10}
    </style>
    <path class="st0" d="M1105.4 948.7c25.2 0 37.8 43.3 20 68.6l-118.1 167.9c-5.3 7.5-12.5 11.8-20 11.8h-624c-7.5 0-14.7-4.2-20-11.8l-118.1-167.9c-17.8-25.3-5.2-68.6 20-68.6h860.2z" id="Layer_5"/>
    <path class="st0" d="M1454.2 904.6l-.2.1-328.6 112.5c17.8-25.3 5.2-68.6-20-68.6h-34l356.8-120.2.3-.1c.3 1.5.7 2.9 1.2 4.4l22.8 67.7c.5 1.5 1.1 2.9 1.7 4.2z" id="Layer_6"/>
    <path class="st0" d="M1701.1 816.7c6.7 20-4.1 41.8-24.1 48.5l-175.9 59.3c-18.5 6.2-38.6-2.6-46.8-19.9-.6-1.3-1.2-2.8-1.7-4.2l-22.8-67.7c-.5-1.4-.9-2.9-1.2-4.4-3.9-18.7 6.7-37.9 25.2-44.1l175.9-59.3c20-6.7 41.8 4.1 48.5 24.1l22.9 67.7z" id="Layer_7"/>
    <g id="STROKES">
        <g id="XMLID_1_">
            <path class="st1" d="M675.4 948.7H245.3c-25.2 0-37.8 43.3-20 68.6l118.1 167.9c5.3 7.5 12.5 11.8 20 11.8h312"/>
            <path class="st1" d="M675.4 948.7h430.1c25.2 0 37.8 43.3 20 68.6l-118.1 167.9c-5.3 7.5-12.5 11.8-20 11.8h-312"/>
            <path class="st1" d="M1071.5 948.7l356.8-120.2"/>
            <path class="st1" d="M1125.4 1017.3L1454 904.7"/>
            <path class="st1" d="M1428.6 828.4c-3.9-18.7 6.7-37.9 25.2-44.1l175.9-59.3c20-6.7 41.8 4.1 48.5 24.1l22.8 67.7c6.7 20-4.1 41.8-24.1 48.5L1501 924.6c-18.5 6.2-38.6-2.6-46.8-19.9-.6-1.3-1.2-2.8-1.7-4.2l-22.8-67.7c-.4-1.5-.8-2.9-1.1-4.4z"/>
        </g>
    </g>
</svg>
