<svg xmlns="http://www.w3.org/2000/svg" viewBox="0 0 1920 1920">
    <style>
        .st0{fill:#fff}.st1{fill:none;stroke:#231f20;stroke-width:50;stroke-linecap:round;stroke-linejoin:round;stroke-miterlimit:10}
    </style>
    <circle class="st0" cx="960" cy="960" r="162.7" id="Layer_2"/>
    <g id="STROKES">
        <circle class="st1" cx="960" cy="960" r="162.7"/>
        <path class="st1" d="M1630.7 1277.7c-17.1 14.1-35.4 26.7-54.7 37.9-30.7 17.8-63.9 31.7-99 41.1-33.9 9.1-69.6 13.9-106.4 13.9-36.7 0-72.3-4.8-106.2-13.9-35.1-9.4-68.3-23.3-99.1-41-31.2-18-59.8-40.1-85.1-65.4-25.2-25.2-47.2-53.7-65.2-84.8-8.6-14.8-16.2-30.1-22.9-46-10.4 2.1-21.1 3.2-32.2 3.2-3.4 0-6.9-.1-10.2-.3 2.4 17.1 5.8 33.9 10.2 50.4 9.3 34.7 23.2 67.9 41 98.8 17.9 31 39.8 59.7 65.3 85.2 25.1 25.1 53.6 47.1 85.1 65.3 30.4 17.5 63.5 31.4 99 40.9s71.2 14.1 106.4 14.1c36.3 0 72-4.8 106.2-14 21.4-5.8 42.3-13.2 62.4-22.3"/>
        <path class="st1" d="M642.3 1630.7c-14.1-17.1-26.7-35.4-37.9-54.7-17.8-30.7-31.7-63.9-41.1-99-9.1-33.9-13.9-69.6-13.9-106.4 0-36.7 4.8-72.3 13.9-106.2 9.4-35.1 23.3-68.3 41-99.1 18-31.2 40.1-59.8 65.4-85.1 25.2-25.2 53.7-47.2 84.8-65.2 14.8-8.6 30.1-16.2 46-22.9-2.1-10.4-3.2-21.1-3.2-32.1 0-3.4.1-6.9.3-10.2-17.1 2.4-33.9 5.8-50.4 10.2-34.7 9.3-67.9 23.2-98.8 41-31 17.9-59.7 39.8-85.2 65.3-25.1 25.1-47.1 53.6-65.3 85.1a411.13 411.13 0 0 0-40.9 99c-9.5 35.5-14.1 71.2-14.1 106.4 0 36.3 4.8 72 14 106.2 5.8 21.4 13.2 42.3 22.3 62.4"/>
        <path class="st1" d="M1019.9 1699.6c-20.6-7.8-40.7-17.3-59.9-28.3-30.7-17.7-59.4-39.5-85.1-65.2-24.8-24.8-46.8-53.3-65.2-85.2-18.4-31.8-32-65-41.1-98.9-9.4-35.1-14-70.8-14-106.3 0-36 4.8-71.8 14.1-106.4 9.2-34.5 22.9-67.7 40.8-98.8 8.5-14.8 18-29.2 28.4-42.9-9.4-10.6-17.3-22.4-23.7-35.2-13.6 10.6-26.4 22-38.5 34-25.4 25.4-47.2 54-65 84.9-17.9 31-31.8 64.3-41.1 99.1-9.2 34.3-14 70-14 106.3 0 35.1 4.6 70.7 14.1 106.2s23.4 68.7 41 99.1c18.1 31.5 40.2 60 65.3 85 15.8 15.7 32.7 30.1 50.7 43"/>
        <path class="st1" d="M1381.8 1570.6c-21.8 3.6-43.9 5.4-66.2 5.4-35.5 0-71.2-4.5-106.3-14-33.9-9.1-67.2-22.7-99.1-41.1-31.8-18.4-60.2-40.3-85-65.1-25.7-25.7-47.5-54.3-65.3-85.1-18-31.2-31.8-64.6-41-99.2-9.2-34.5-14-70.1-14.1-106 0-17.1 1-34.2 3.2-51.3-13.6-4.6-26.4-10.9-38.1-18.7-6.5 16-11.9 32.2-16.3 48.7-9.2 34.7-13.9 70.4-13.9 106.1 0 35.8 4.7 71.6 14 106.4 9.2 34.3 22.8 67.6 41 99.1 17.5 30.4 39.3 58.9 65.3 84.9 26 26 54.6 47.8 85.1 65.4 31.4 18.2 64.8 31.8 99 41 21.6 5.8 43.5 9.7 65.6 11.9"/>
        <path class="st1" d="M1570.6 538.2c3.6 21.8 5.4 43.9 5.4 66.2 0 35.5-4.5 71.2-14 106.3-9.1 33.9-22.7 67.2-41.1 99.1-18.4 31.8-40.3 60.2-65.1 85-25.7 25.7-54.3 47.5-85.1 65.3-31.2 18-64.6 31.8-99.2 41-34.5 9.2-70.1 14-106 14.1-17.1 0-34.2-1-51.3-3.2-4.6 13.6-10.9 26.4-18.7 38.1 16 6.5 32.2 11.9 48.7 16.3 34.7 9.2 70.4 13.9 106.1 13.9 35.8 0 71.6-4.7 106.4-14 34.3-9.2 67.6-22.8 99.1-41 30.4-17.5 58.9-39.3 84.9-65.3 26-26 47.8-54.6 65.4-85.1 18.2-31.4 31.8-64.8 41-99 5.8-21.6 9.7-43.5 11.9-65.6"/>
        <path class="st1" d="M1699.6 900.1c-7.8 20.6-17.3 40.7-28.3 59.9-17.7 30.7-39.5 59.4-65.2 85.1-24.8 24.8-53.3 46.8-85.2 65.2-31.8 18.4-65 32-98.9 41.1-35.1 9.4-70.8 14-106.3 14-36 0-71.8-4.8-106.4-14.1-34.5-9.2-67.7-22.9-98.8-40.8-14.8-8.5-29.2-18-42.9-28.4-10.6 9.4-22.4 17.4-35.2 23.7 10.6 13.6 21.9 26.4 34 38.5 25.4 25.4 54 47.2 84.9 65 31 17.9 64.3 31.8 99.1 41.1 34.3 9.2 70 14 106.3 14 35.1 0 70.7-4.6 106.2-14.1s68.7-23.4 99.1-41c31.5-18.1 60-40.2 85-65.3 15.7-15.8 30.1-32.7 43-50.7"/>
        <path class="st1" d="M349.4 1381.8c-3.6-21.8-5.4-43.9-5.4-66.2 0-35.5 4.5-71.2 14-106.3 9.1-33.9 22.7-67.2 41.1-99.1 18.4-31.8 40.3-60.2 65.1-85 25.7-25.7 54.3-47.5 85.1-65.3 31.2-18 64.6-31.8 99.2-41 34.5-9.2 70.1-14 106-14.1 17.1 0 34.2 1 51.3 3.2 4.6-13.6 10.9-26.4 18.7-38.1-16-6.5-32.2-11.9-48.7-16.3-34.7-9.2-70.4-13.9-106.1-13.9-35.8 0-71.6 4.7-106.4 14-34.3 9.2-67.6 22.8-99.1 41-30.4 17.5-58.9 39.3-84.9 65.3-26 26-47.8 54.6-65.4 85.1-18.2 31.4-31.8 64.8-41 99-5.8 21.6-9.7 43.5-11.9 65.6"/>
        <path class="st1" d="M220.4 1019.9c7.8-20.6 17.3-40.7 28.3-59.9 17.7-30.7 39.5-59.4 65.2-85.1 24.8-24.8 53.3-46.8 85.2-65.2 31.8-18.4 65-32 98.9-41.1 35.1-9.4 70.8-14 106.3-14 36 0 71.8 4.8 106.4 14.1 34.5 9.2 67.7 22.9 98.8 40.8 14.8 8.5 29.2 18 42.9 28.4 10.6-9.4 22.4-17.3 35.2-23.7-10.6-13.6-22-26.4-34-38.5-25.4-25.4-54-47.2-84.9-65-31-17.9-64.3-31.8-99.1-41.1-34.3-9.2-70-14-106.3-14-35.1 0-70.7 4.6-106.2 14.1s-68.7 23.4-99.1 41c-31.5 18.1-60 40.2-85 65.3-15.7 15.8-30.1 32.7-43 50.7"/>
        <path class="st1" d="M289.3 642.3c17.1-14.1 35.4-26.7 54.7-37.9 30.7-17.8 63.9-31.7 99-41.1 33.9-9.1 69.6-13.9 106.4-13.9 36.7 0 72.3 4.8 106.2 13.9 35.1 9.4 68.3 23.3 99.1 41 31.2 18 59.8 40.1 85.1 65.4 25.2 25.2 47.2 53.7 65.2 84.8 8.6 14.8 16.2 30.1 22.9 46 10.4-2.1 21.1-3.2 32.1-3.2 3.4 0 6.9.1 10.2.3-2.4-17.1-5.8-33.9-10.2-50.4-9.3-34.7-23.2-67.9-41-98.8-17.9-31-39.8-59.7-65.3-85.2-25.1-25.1-53.6-47.1-85.1-65.3a411.13 411.13 0 0 0-99-40.9c-35.5-9.5-71.2-14.1-106.4-14.1-36.3 0-72 4.8-106.2 14-21.4 5.8-42.3 13.2-62.4 22.3"/>
        <path class="st1" d="M538.2 349.4c21.8-3.6 43.9-5.4 66.2-5.4 35.5 0 71.2 4.5 106.3 14 33.9 9.1 67.2 22.7 99.1 41.1 31.8 18.4 60.2 40.3 85 65.1 25.7 25.7 47.5 54.3 65.3 85.1 18 31.2 31.8 64.6 41 99.2 9.2 34.5 14 70.1 14.1 106 0 17.1-1 34.2-3.2 51.3 13.6 4.6 26.4 10.9 38.1 18.7 6.5-16 11.9-32.2 16.3-48.7 9.2-34.7 13.9-70.4 13.9-106.1 0-35.8-4.7-71.6-14-106.4-9.2-34.3-22.8-67.6-41-99.1-17.5-30.4-39.3-58.9-65.3-84.9-26-26-54.6-47.8-85.1-65.4-31.4-18.2-64.8-31.8-99-41-21.6-5.8-43.5-9.7-65.6-11.9"/>
        <path class="st1" d="M900.1 220.4c20.6 7.8 40.7 17.3 59.9 28.3 30.7 17.7 59.4 39.5 85.1 65.2 24.8 24.8 46.8 53.3 65.2 85.2 18.4 31.8 32 65 41.1 98.9 9.4 35.1 14 70.8 14 106.3 0 36-4.8 71.8-14.1 106.4-9.2 34.5-22.9 67.7-40.8 98.8-8.5 14.8-18 29.2-28.4 42.9 9.4 10.6 17.4 22.4 23.7 35.2 13.6-10.6 26.4-21.9 38.5-34 25.4-25.4 47.2-54 65-84.9 17.9-31 31.8-64.3 41.1-99.1 9.2-34.3 14-70 14-106.3 0-35.1-4.6-70.7-14.1-106.2s-23.4-68.7-41-99.1c-18.1-31.5-40.2-60-65.3-85-15.8-15.7-32.7-30.1-50.7-43"/>
        <path class="st1" d="M1277.7 289.3c14.1 17.1 26.7 35.4 37.9 54.7 17.8 30.7 31.7 63.9 41.1 99 9.1 33.9 13.9 69.6 13.9 106.4 0 36.7-4.8 72.3-13.9 106.2-9.4 35.1-23.3 68.3-41 99.1-18 31.2-40.1 59.8-65.4 85.1-25.2 25.2-53.7 47.2-84.8 65.2-14.8 8.6-30.1 16.2-46 22.9 2.1 10.4 3.2 21.1 3.2 32.2 0 3.4-.1 6.9-.3 10.2 17.1-2.4 33.9-5.8 50.4-10.2 34.7-9.3 67.9-23.2 98.8-41 31-17.9 59.7-39.8 85.2-65.3 25.1-25.1 47.1-53.6 65.3-85.1 17.5-30.4 31.4-63.5 40.9-99s14.1-71.2 14.1-106.4c0-36.3-4.8-72-14-106.2-5.8-21.4-13.2-42.3-22.3-62.4"/>
    </g>
</svg>
