<svg xmlns="http://www.w3.org/2000/svg" viewBox="0 0 1920 1920">
    <style>
        .st0{fill:#fff}.st1{fill:none;stroke:#231f20;stroke-width:50;stroke-linecap:round;stroke-linejoin:round;stroke-miterlimit:10}
    </style>
    <path class="st0" d="M1664.4 438.2c6.6 50.5.3 108-17.8 168.8-17.4 58.4-45.8 119.9-84.1 181-34.8 55.5-77.8 110.6-128.3 163-4.5 4.6-9 9.3-13.6 13.9-41.8 41.8-85.7 78.8-130.1 110.6-44.8 32.1-90.3 58.8-135.2 79.8-38.3 18-76.1 31.8-112.6 41.2-30.2 7.8-59.5 12.6-87.4 14.2-15.1.9-29.8.8-43.9-.2 40.9-16.9 83.4-42.7 123.9-76.2 22.2-9.4 44.5-20.2 66.7-32.3 31.9-17.3 63.6-37.2 94.5-59.3 37.4-26.7 73.8-56.6 108.3-89.2 40.4-38.1 78.2-79.7 112.1-123.9 33.6-43.8 63.4-90.2 88-138 2.7-5.2 5.3-10.5 7.9-15.7 28.6-58.8 46.8-114.8 55.1-166 9.1-56.5 6.3-107.3-7.6-150-14.4-44.4-40.9-80-78.4-104.2-36.8-23.7-84.3-36.3-141.5-35.2-57.2 1.1-118.7 15.8-180.9 41.3 58.3-8.7 110.5-4.5 153.6 11.6 41.5 15.5 74.7 42.1 97.2 78.8 20.4 33.3 32 75.1 32.9 124.6.1 4.4.1 8.8 0 13.3-.8 41-8.6 84.3-22.3 128.5-13.9 44.5-33.9 89.9-59 134.8-21.5 38.4-46.7 76.5-74.9 113.3-23.4 30.5-49 60.2-76.3 88.6-22.6 23.5-46.4 46.1-71.2 67.4l-.5.5c29.7-41.8 51.2-84.6 63.4-124.8 2-3 3.9-6.1 5.8-9.1 16.6-26.5 31.4-53 44.2-79.4 15.5-31.8 28.1-63.4 37.7-94.1 11.6-37.1 18.8-73 21.5-107 3.1-39.7-.1-76.7-9.9-109.5-9.8-32.6-26.1-61.2-49.3-84.5-2.6-2.6-5.2-5-7.9-7.4-30.2-26.9-68.5-43.3-112.1-49.8-48.1-7.1-102.8-2.3-160.8 13.5-60.3 16.5-124.1 44.8-187.7 84-62.4 38.5-124.5 87.4-182.8 145.7s-107.6 120.4-146 182.8c51.7-59.2 110.1-112.5 171.4-157.1 58.9-42.9 120.5-77.8 181.3-102.2 55.2-22.1 109.9-35.6 161.3-38.4 4.6-.3 9.1-.4 13.6-.5 41.1-.8 77.1 5.5 107.8 17.8 30.9 12.4 56.5 31.1 76.2 55 16.9 20.4 29.5 44.6 37.7 72 6.8 22.7 10.5 47.6 11.1 74.4.5 22.2-1.3 45.6-5.2 70.1-.5 2.9-1 5.9-1.5 8.9-5.3-19.5-14.7-36.5-28.4-50.2-9.9-9.9-21.6-17.6-34.7-23.1-.1-.1-.2-.3-.3-.4-9.8-15.9-21.5-29.9-35.1-42-16.4-14.5-35.5-26.2-56.9-34.8-25.8-10.4-54.9-16.4-86.8-17.8-37.2-1.6-78.2 3-122 14.4-43.4 11.2-89.5 29-137.4 53.6-5.3 2.7-10.5 5.5-15.7 8.3-58.9 31.9-115.2 71.5-167.2 116.3-57.2 49.3-109.1 105-153.2 163.5-45.8 60.9-83.2 124.8-109.2 188.1-25.6 62.2-40.3 123.7-41.4 180.9-1.1 57.2 11.5 104.7 35.2 141.5-6.6-50.5-.3-108 17.8-168.7 17.4-58.4 45.8-119.9 84.1-181 34.8-55.5 77.8-110.6 128.3-163 4.5-4.6 9-9.3 13.6-13.9 41.8-41.8 85.6-78.8 130.1-110.6 44.8-32.1 90.4-58.8 135.2-79.8 38.3-18 76.1-31.8 112.6-41.2 30.2-7.8 59.5-12.6 87.4-14.2 18.5-1.1 36.4-.7 53.6 1-50 14.5-103.9 43.5-155.1 84.8-15.1 7-30.2 14.6-45.2 22.7-31.9 17.3-63.6 37.2-94.5 59.3-37.4 26.7-73.8 56.6-108.3 89.2-40.4 38.1-78.2 79.7-112.1 123.9-33.6 43.8-63.4 90.2-88 138-2.7 5.2-5.3 10.5-7.9 15.7-28.6 58.8-46.8 114.8-55.1 166-9.1 56.5-6.3 107.3 7.6 150 14.4 44.4 40.9 80.1 78.4 104.2 36.8 23.7 84.3 36.3 141.5 35.2 57.2-1.1 118.7-15.8 180.9-41.4-58.4 8.7-110.5 4.5-153.7-11.6-41.5-15.5-74.7-42.1-97.2-78.8-20.4-33.3-32-75.1-33-124.6-.1-4.4-.1-8.8 0-13.4.8-41.1 8.6-84.3 22.4-128.4 13.9-44.5 33.9-89.9 59-134.8 21.5-38.4 46.6-76.4 74.9-113.3 23.4-30.5 49-60.2 76.3-88.6 8.9-9.3 18-18.4 27.4-27.4-31.6 50.8-50.8 101.9-55.9 147.2-4.6 8.6-8.9 17.1-13 25.6-15.4 31.8-28.1 63.4-37.7 94.1-11.6 37.1-18.8 73-21.5 107-3.1 39.7.1 76.6 9.9 109.5 9.8 32.6 26.1 61.2 49.3 84.5 2.6 2.6 5.2 5 7.9 7.4 30.2 26.9 68.4 43.3 112.1 49.7 48.1 7.2 102.8 2.3 160.8-13.5 60.3-16.5 124.1-44.8 187.7-84 62.4-38.5 124.6-87.4 182.9-145.7 58.3-58.3 107.2-120.4 145.7-182.9-51.7 59.2-110.1 112.5-171.4 157.1-58.9 42.9-120.5 77.8-181.3 102.2-55.2 22.1-109.8 35.5-161.3 38.4-4.6.3-9.1.4-13.6.5-41.1.8-77.1-5.5-107.8-17.8-30.9-12.5-56.4-31.1-76.2-55-16.9-20.4-29.5-44.6-37.7-72-6.8-22.7-10.5-47.6-11.1-74.4-.2-8-.1-16.1.4-24.4 2.6 3.3 5.3 6.4 8.3 9.3 19.9 20 46.9 30.8 78.3 33.2 5.6 6.7 11.7 12.9 18.2 18.6 16.4 14.5 35.5 26.2 56.9 34.8 25.8 10.4 54.9 16.4 86.8 17.8 37.2 1.6 78.2-3 122-14.3 43.4-11.2 89.5-29 137.4-53.6 5.3-2.7 10.5-5.5 15.7-8.3 58.9-31.9 115.2-71.5 167.2-116.3 57.2-49.3 109.1-105 153.2-163.5 45.8-60.9 83.2-124.9 109.3-188.2 25.6-62.2 40.3-123.7 41.4-180.9 1-56.8-11.5-104.3-35.2-141.1z" id="Layer_4"/>
    <g id="STROKES">
        <path class="st1" d="M1304.7 953.4c-34.5 32.6-70.9 62.5-108.3 89.2-31 22.1-62.7 42-94.5 59.3-22.2 12.1-44.5 22.9-66.7 32.3 14-11.6 27.8-24.2 41.3-37.6 23.6-23.6 44.5-48.4 62.3-73.5.2-.2.3-.3.5-.4 24.8-21.4 48.6-44 71.3-67.4 27.3-28.4 52.9-58.1 76.3-88.6 28.3-36.8 53.5-74.9 74.9-113.3 25.1-44.9 45.1-90.3 59-134.7 13.8-44.1 21.6-87.4 22.4-128.5.1-4.5.1-9 0-13.4-.9-49.5-12.5-91.3-33-124.6-22.5-36.7-55.7-63.3-97.2-78.8-43.2-16.1-95.3-20.3-153.6-11.6 62.2-25.6 123.7-40.3 180.9-41.4 57.2-1.1 104.7 11.5 141.5 35.2 37.5 24.1 64 59.7 78.4 104.2 13.9 42.7 16.7 93.5 7.6 150-8.3 51.3-26.5 107.2-55.1 166-2.5 5.2-5.2 10.5-7.9 15.7-24.6 47.9-54.4 94.2-88 138-33.9 44.2-71.7 85.8-112.1 123.9z"/>
        <path class="st1" d="M1202.2 898.3c12.8-42.4 15.4-82 6.5-114.7.5-3 1.1-5.9 1.5-8.9 3.9-24.5 5.7-47.9 5.2-70.1-.6-26.8-4.3-51.7-11.1-74.4-8.2-27.4-20.8-51.6-37.7-72-19.7-23.9-45.2-42.5-76.2-55-30.7-12.4-66.7-18.6-107.8-17.8-4.5.1-9.1.3-13.6.5-51.4 2.9-106.1 16.3-161.3 38.4-60.8 24.4-122.4 59.3-181.3 102.2-61.3 44.6-119.7 97.9-171.4 157.1 38.5-62.4 87.4-124.5 145.7-182.8 58.3-58.3 120.4-107.2 182.8-145.7 63.6-39.2 127.4-67.5 187.7-84 58-15.8 112.7-20.6 160.8-13.5 43.7 6.5 81.9 22.8 112.1 49.7 2.7 2.4 5.3 4.9 7.9 7.4 23.3 23.3 39.6 51.8 49.3 84.5 9.9 32.9 13 69.8 9.9 109.5-2.6 33.9-9.9 69.9-21.5 107-9.6 30.7-22.2 62.3-37.7 94.1-12.8 26.4-27.5 52.9-44.2 79.4-1.7 3-3.6 6-5.6 9.1z"/>
        <path class="st1" d="M1319.3 1319.3c-58.3 58.3-120.5 107.2-182.9 145.7-63.5 39.2-127.4 67.5-187.7 84-58 15.8-112.7 20.7-160.8 13.5-43.7-6.5-81.9-22.8-112.1-49.7-2.7-2.4-5.3-4.9-7.9-7.4-23.3-23.3-39.6-51.8-49.3-84.4-9.8-32.9-13-69.8-9.9-109.5 2.6-33.9 9.9-69.9 21.5-107 9.6-30.7 22.2-62.3 37.7-94.1 4.2-8.5 8.5-17.1 13-25.6-4.7 42.2 2.8 79.4 24.1 106.4-.4 8.3-.5 16.4-.4 24.4.6 26.8 4.3 51.7 11.1 74.4 8.2 27.4 20.8 51.6 37.7 72 19.7 23.9 45.2 42.5 76.2 55 30.7 12.4 66.7 18.6 107.8 17.8 4.5-.1 9.1-.3 13.6-.5 51.5-2.9 106-16.3 161.3-38.4 60.8-24.4 122.4-59.3 181.3-102.2 61.3-44.6 119.7-97.9 171.4-157.1-38.5 62.2-87.4 124.4-145.7 182.7z"/>
        <path class="st1" d="M255.6 1481.8c-23.7-36.8-36.3-84.3-35.2-141.5 1.1-57.2 15.8-118.7 41.4-180.9 26.1-63.3 63.4-127.3 109.2-188.1 44.1-58.5 96-114.1 153.2-163.5 52-44.8 108.3-84.4 167.2-116.3 5.2-2.8 10.5-5.6 15.7-8.3 47.9-24.6 94-42.4 137.4-53.6 43.8-11.3 84.8-16 122-14.3 31.9 1.4 61 7.4 86.8 17.8 21.4 8.6 40.5 20.2 56.9 34.8 13.6 12 25.3 26 35.1 42 .1.1.2.3.3.4-34.6-14.5-79-13.9-127.2.2-17.1-1.8-35-2.1-53.6-1.1-27.9 1.6-57.2 6.4-87.4 14.2-36.5 9.4-74.3 23.2-112.6 41.2-44.8 21-90.3 47.7-135.2 79.8-44.5 31.8-88.3 68.8-130.1 110.6-4.6 4.6-9.1 9.2-13.6 13.9-50.5 52.4-93.5 107.5-128.3 163-38.3 61.1-66.7 122.6-84.1 181-18.2 60.7-24.5 118.2-17.9 168.7z"/>
        <path class="st1" d="M760.6 1658.2c-62.2 25.6-123.7 40.3-180.9 41.4-57.2 1.1-104.7-11.5-141.5-35.2-37.5-24.1-64-59.7-78.4-104.2-13.9-42.7-16.7-93.5-7.6-150 8.3-51.3 26.4-107.2 55.1-166 2.5-5.2 5.2-10.5 7.9-15.7 24.6-47.9 54.4-94.2 88-138 33.9-44.2 71.7-85.8 112.1-123.9 34.5-32.6 70.9-62.5 108.3-89.2 31-22.1 62.7-42 94.5-59.3 15-8.2 30.1-15.8 45.2-22.7-15.8 12.7-31.3 26.6-46.3 41.7-32 32-58.9 66.1-80.2 100.3-9.3 9-18.4 18.1-27.4 27.4-27.3 28.4-52.9 58-76.3 88.6-28.3 36.8-53.5 74.9-74.9 113.3-25.1 44.9-45.1 90.3-59 134.8-13.8 44.1-21.6 87.4-22.3 128.4-.1 4.5-.1 9 0 13.4.9 49.5 12.5 91.3 33 124.6 22.5 36.7 55.7 63.3 97.2 78.8 43 16 95.2 20.2 153.5 11.5z"/>
        <path class="st1" d="M1395.7 1112.2c-52 44.8-108.3 84.4-167.2 116.3-5.2 2.8-10.5 5.6-15.7 8.3-47.9 24.6-94 42.4-137.4 53.6-43.8 11.3-84.7 16-122 14.3-31.9-1.4-61-7.4-86.8-17.8-21.4-8.6-40.4-20.2-56.9-34.8-6.5-5.8-12.6-12-18.2-18.6 35.6 2.7 76.8-5.3 119.7-23.1 14.2 1 28.8 1.1 43.9.2 27.9-1.6 57.2-6.4 87.4-14.2 36.5-9.4 74.3-23.2 112.6-41.2 44.8-21 90.3-47.8 135.2-79.8 44.5-31.8 88.3-68.8 130.1-110.6 4.6-4.6 9.1-9.2 13.6-13.9 50.5-52.4 93.5-107.5 128.3-163 38.3-61.1 66.7-122.5 84.1-181 18.1-60.8 24.4-118.3 17.8-168.8 23.7 36.8 36.3 84.3 35.2 141.5-1.1 57.2-15.8 118.7-41.4 180.9-26.1 63.3-63.4 127.3-109.3 188.2-43.8 58.6-95.8 114.2-153 163.5z"/>
        <path class="st1" d="M1076.5 1096.6a599.6 599.6 0 0 1-41.3 37.6c-40.6 33.6-83 59.3-123.9 76.2-42.9 17.8-84.1 25.8-119.7 23.1-31.4-2.4-58.4-13.2-78.3-33.1-3-3-5.7-6.1-8.3-9.3-21.3-27.1-28.8-64.2-24.1-106.4 5.1-45.3 24.3-96.4 55.9-147.2C758 903.1 785 869.1 817 837.1c15-15 30.5-29 46.3-41.7 51.2-41.4 105.2-70.3 155.1-84.9 48.2-14.1 92.7-14.7 127.2-.2 13.1 5.5 24.7 13.1 34.7 23.1 13.7 13.7 23.1 30.7 28.4 50.2 8.9 32.7 6.4 72.3-6.5 114.7-12.2 40.3-33.6 83.1-63.4 124.8-17.8 25.1-38.7 49.9-62.3 73.5z"/>
    </g>
</svg>
