<svg xmlns="http://www.w3.org/2000/svg" viewBox="0 0 1920 1920">
    <style>
        .st0{fill:#fff}.st1{fill:none;stroke:#231f20;stroke-width:50;stroke-linecap:round;stroke-linejoin:round;stroke-miterlimit:10}
    </style>
    <path class="st0" d="M1616.4 1351.6H303.6c-47.9 0-86.7 38.8-86.7 86.7v54.8H1703v-54.8c0-47.9-38.8-86.7-86.6-86.7z" id="Layer_13"/>
    <path class="st0" d="M1177.9 1275.2H983.5c-18.2 0-33 14.8-33 33v43.4h260.4v-43.4c0-18.2-14.8-33-33-33z" id="Layer_14"/>
    <path class="st0" d="M1527.8 1275.2h-194.4c-18.2 0-33 14.8-33 33v43.4h260.3v-43.4c.1-18.2-14.7-33-32.9-33z" id="Layer_15"/>
    <path class="st0" d="M521.5 1201.8V745.2c-3.4 1-6.8 1.8-10.3 2.5-8.3 1.7-16.9 2.6-25.6 2.6s-17.4-.9-25.6-2.6c-3.5-.7-6.9-1.6-10.3-2.5v456.6L373 1351.6h226.8l-78.3-149.8z" id="Layer_17"/>
    <path class="st0" d="M485.5 493.8c-70.9 0-128.3 57.4-128.3 128.3 0 58.4 39 107.6 92.3 123.2 3.4 1 6.8 1.8 10.3 2.5 8.3 1.7 16.9 2.6 25.6 2.6s17.4-.9 25.6-2.6c3.5-.7 6.9-1.6 10.3-2.5 53.3-15.5 92.3-64.8 92.3-123.2.2-70.9-57.2-128.3-128.1-128.3z" id="Layer_18"/>
    <g id="STROKES">
        <path class="st1" d="M1703.1 1438.3v54.8H216.9v-54.8c0-47.9 38.8-86.7 86.7-86.7h1312.7c47.9 0 86.8 38.8 86.8 86.7z"/>
        <path class="st1" d="M1210.9 1351.6H950.5v-43.4c0-18.2 14.8-33 33-33h194.4c18.2 0 33 14.8 33 33v43.4z"/>
        <path class="st1" d="M1560.8 1351.6h-260.4v-43.4c0-18.2 14.8-33 33-33h194.4c18.2 0 33 14.8 33 33v43.4z"/>
        <path class="st1" d="M599.6 1351.6H372.8l76.7-149.8h71.9z"/>
        <path class="st1" d="M521.4 745.2v456.6h-71.9V745.2c3.4 1 6.8 1.8 10.3 2.5 8.3 1.7 16.9 2.6 25.7 2.6s17.4-.9 25.7-2.6c3.4-.6 6.9-1.5 10.2-2.5z"/>
        <path class="st1" d="M613.8 622.1c0 58.4-39 107.6-92.3 123.2-3.4 1-6.8 1.8-10.3 2.5-8.3 1.7-16.9 2.6-25.7 2.6s-17.4-.9-25.7-2.6c-3.5-.7-6.9-1.6-10.3-2.5-53.3-15.5-92.3-64.8-92.3-123.2 0-70.8 57.4-128.3 128.3-128.3s128.3 57.4 128.3 128.3z"/>
    </g>
</svg>
