<svg xmlns="http://www.w3.org/2000/svg" viewBox="0 0 1920 1920">
    <style>
        .st0{fill:#fff}.st1{fill:none;stroke:#231f20;stroke-width:50;stroke-linecap:round;stroke-linejoin:round;stroke-miterlimit:10}
    </style>
    <path class="st0" d="M1406.6 880.7H513.4c-163.7 0-296.4 145.1-296.4 324.2 0 179 132.7 324.2 296.4 324.2 95.6 0 180.7-49.5 234.9-126.4h423.6c54.2 76.9 139.2 126.4 234.9 126.4 163.7 0 296.4-145.1 296.4-324.2-.1-179-132.9-324.2-296.6-324.2zm-766.8 147.5l-108 108-108-108c64.6-45.3 151.3-45.3 216 0zm-262.5 46.5l108 108-108 108c-45.4-64.6-45.4-151.3 0-216zm46.4 262.5l108-108 108 108c-64.6 45.3-151.3 45.4-216 0zm262.5-46.4l-108-108 108-108c45.3 64.6 45.4 151.3 0 216zm575.5-53.5c-30.1 0-54.5-24.4-54.5-54.6 0-30.1 24.4-54.6 54.5-54.6s54.6 24.4 54.6 54.6c0 30.2-24.4 54.6-54.6 54.6zm127.9 127.8c-30.1 0-54.5-24.4-54.5-54.5s24.4-54.5 54.5-54.5 54.6 24.4 54.6 54.5-24.5 54.5-54.6 54.5zm0-255.7c-30.1 0-54.5-24.4-54.5-54.5s24.4-54.5 54.5-54.5 54.6 24.4 54.6 54.5-24.5 54.5-54.6 54.5zm127.9 127.9c-30.1 0-54.6-24.4-54.6-54.6 0-30.1 24.4-54.6 54.6-54.6 30.1 0 54.5 24.4 54.5 54.6 0 30.2-24.4 54.6-54.5 54.6z" id="Layer_7"/>
    <path class="st0" d="M639.8 1028.3c-64.7-45.3-151.4-45.3-216 0l108 108 108-108zm-262.5 46.4c-45.3 64.7-45.3 151.4 0 216.1l108-108-108-108.1zm308.9 0l-108 108 108 108c45.4-64.6 45.3-151.3 0-216zm-262.5 262.5c64.7 45.3 151.4 45.3 216.1 0l-108-108-108.1 108z" id="Layer_8"/>
    <circle class="st0" cx="1389.6" cy="1054.9" r="54.5" id="Layer_9"/>
    <circle class="st0" cx="1261.7" cy="1182.7" r="54.5" id="Layer_10"/>
    <circle class="st0" cx="1517.5" cy="1182.7" r="54.5" id="Layer_11"/>
    <circle class="st0" cx="1389.6" cy="1310.6" r="54.5" id="Layer_12"/>
    <g id="STROKES">
        <path class="st1" d="M1406.6 880.7H513.4c-163.7 0-296.4 145.1-296.4 324.2s132.7 324.2 296.4 324.2c95.6 0 180.7-49.5 234.9-126.4h423.6c54.2 76.9 139.2 126.4 234.9 126.4 163.7 0 296.4-145.1 296.4-324.2s-132.9-324.2-296.6-324.2z"/>
        <path class="st1" d="M639.8 1028.3l-108 108-108-108c64.6-45.4 151.3-45.4 216 0z"/>
        <path class="st1" d="M686.2 1290.8l-108-108 108-108c45.3 64.6 45.4 151.3 0 216z"/>
        <path class="st1" d="M377.3 1074.7l108 108-108 108c-45.4-64.6-45.4-151.3 0-216z"/>
        <path class="st1" d="M639.8 1337.2c-64.7 45.3-151.4 45.3-216.1 0l108-108 108.1 108z"/>
        <path class="st1" d="M833.4 1296.6h79.4"/>
        <path class="st1" d="M1004.4 1296.6h79.3"/>
        <circle class="st1" cx="1517.5" cy="1182.7" r="54.5"/>
        <circle class="st1" cx="1261.7" cy="1182.7" r="54.5"/>
        <circle class="st1" cx="1389.6" cy="1054.9" r="54.5"/>
        <circle class="st1" cx="1389.6" cy="1310.6" r="54.5"/>
        <path class="st1" d="M960 880.7V457.8"/>
    </g>
</svg>
