<svg xmlns="http://www.w3.org/2000/svg" viewBox="0 0 1920 1920">
    <style>
        .st0{fill:#fff}.st1{fill:none;stroke:#231f20;stroke-width:50;stroke-linecap:round;stroke-linejoin:round;stroke-miterlimit:10}
    </style>
    <path class="st0" d="M217 1150.7v61.8c0 110.2 89.3 199.5 199.5 199.5S616 1322.7 616 1212.5v-160.8c-104.4 0-189-84.6-189-189s84.6-189 189-189v-99c-390.6.1-399 576-399 576zm1087.1-575.9v99c104.4 0 189 84.6 189 189s-84.6 189-189 189v160.8c0 110.2 89.3 199.5 199.5 199.5s199.5-89.3 199.5-199.5v-61.8c0-.1-8.5-576-399-576z" id="Layer_2"/>
    <path class="st0" d="M1304.1 673.8v-99H615.9v99c104.4 0 189 84.6 189 189s-84.6 189-189 189v99h688.2v-99c-104.4 0-189-84.6-189-189s84.6-189 189-189z" id="Layer_4"/>
    <path class="st0" d="M615.9 673.8c-104.4 0-189 84.6-189 189s84.6 189 189 189 189-84.6 189-189-84.7-189-189-189z" id="Layer_5"/>
    <path class="st0" d="M1304.1 673.8c-104.4 0-189 84.6-189 189s84.6 189 189 189 189-84.6 189-189-84.6-189-189-189z" id="Layer_6"/>
    <g id="STROKES">
        <path class="st1" d="M1115.1 862.8c0 104.4 84.6 189 189 189v99H615.9v-99c104.4 0 189-84.6 189-189s-84.6-189-189-189v-99h688.2v99c-104.4 0-189 84.6-189 189z"/>
        <path class="st1" d="M426.9 862.8c0 104.4 84.6 189 189 189v160.8c0 110.2-89.3 199.5-199.5 199.5s-199.5-89.3-199.5-199.5v-61.8s8.5-575.9 398.9-575.9v99c-104.3-.1-188.9 84.5-188.9 188.9z"/>
        <path class="st1" d="M1703.1 1150.7v61.8c0 110.2-89.3 199.5-199.5 199.5s-199.5-89.3-199.5-199.5v-160.8c104.4 0 189-84.6 189-189s-84.6-189-189-189v-99c390.5.1 399 576 399 576z"/>
        <path class="st1" d="M1493.1 862.8c0 104.4-84.6 189-189 189s-189-84.6-189-189 84.6-189 189-189 189 84.6 189 189z"/>
        <path class="st1" d="M804.9 862.8c0 104.4-84.6 189-189 189s-189-84.6-189-189 84.6-189 189-189 189 84.6 189 189z"/>
        <path class="st1" d="M615.9 770.5v182.4"/>
        <path class="st1" d="M524.7 861.7H707"/>
        <path class="st1" d="M524.7 861.7H707"/>
        <circle class="st1" cx="1304.1" cy="789.7" r="11.3"/>
        <circle class="st1" cx="1304.1" cy="934.9" r="11.3"/>
        <circle class="st1" cx="1376.7" cy="862.3" r="11.3"/>
        <circle class="st1" cx="1231.5" cy="862.3" r="11.3"/>
    </g>
</svg>
