<svg xmlns="http://www.w3.org/2000/svg" viewBox="0 0 1920 1920">
    <style>
        .st0{fill:#fff}.st1{fill:none;stroke:#231f20;stroke-width:50;stroke-linecap:round;stroke-linejoin:round;stroke-miterlimit:10}
    </style>
    <path class="st0" d="M1632.3 1033.5V1134H1259v-100.5h373.3zM1309.6 1134l33.1 230.4H1545l36.8-230.4h-272.2zm-536.3-100.5V1134h373.3v-100.5H773.3zm50.6 100.5l36.8 230.4H1063l33.1-230.4H823.9zM285 1033.5V1134h373.3v-100.5H285zm50.6 100.5l36.8 230.4h202.3l33.1-230.4H335.6z" id="Layer_9"/>
    <path class="st0" d="M1653.1 659s25 122.6-114.1 150.7c0 0-19.8-131.5 114.1-150.7zm-119.3 150.7s19.8-131.5-114.1-150.7c.1 0-24.9 122.6 114.1 150.7zm-192.8-356c139.1-28.1 114.1-150.7 114.1-150.7-133.9 19.2-114.1 150.7-114.1 150.7zm-5.2 0s19.8-131.5-114.1-150.7c.1 0-24.9 122.6 114.1 150.7zM951.2 909.4c140.9-16.2 126.5-140.5 126.5-140.5-135.1 7.7-126.5 140.5-126.5 140.5zm-488.1-.9c137.2-36.3 105-157.2 105-157.2-132.6 27.1-105 157.2-105 157.2zm187.1.1C544.4 824.3 462.3 929 462.3 929c115.9 81.9 187.9-20.4 187.9-20.4z" id="Layer_10"/>
    <path class="st0" d="M337.2 605.9c23 0 41.6 18.6 41.6 41.6s-18.6 41.6-41.6 41.6-41.6-18.6-41.6-41.6 18.6-41.6 41.6-41.6zm-68.3-51.6c0 23 18.6 41.6 41.6 41.6s41.6-18.6 41.6-41.6-18.6-41.6-41.6-41.6c-22.9-.1-41.6 18.6-41.6 41.6zM214 622.5c0 23 18.6 41.6 41.6 41.6s41.6-18.6 41.6-41.6-18.6-41.6-41.6-41.6-41.6 18.6-41.6 41.6z" id="Layer_11"/>
    <g id="STROKES">
        <path class="st1" d="M823.9 1134h-50.6v-100.5h373.4V1134h-50.6z"/>
        <path class="st1" d="M823.9 1134l36.8 230.4H1063l33.1-230.4"/>
        <path class="st1" d="M945.1 1032.2V889.8c0-109.9-99.9-93.7-99.9-93.7"/>
        <path class="st1" d="M951.2 909.4s-8.6-132.7 126.5-140.5c0 0 14.4 124.3-126.5 140.5z"/>
        <path class="st1" d="M335.6 1134H285v-100.5h373.4V1134h-50.6z"/>
        <path class="st1" d="M335.6 1134l36.8 230.4h202.3l33.1-230.4"/>
        <path class="st1" d="M456.8 1032.2V645.1c0-109.9-99.9-93.7-99.9-93.7"/>
        <path class="st1" d="M462.3 929s82.1-104.7 187.9-20.4c0 0-72 102.3-187.9 20.4z"/>
        <path class="st1" d="M463.1 908.5s-27.6-130.1 105-157.2c0 0 32.2 120.9-105 157.2z"/>
        <circle class="st1" cx="310.6" cy="554.3" r="41.6"/>
        <path class="st1" d="M297.2 622.5c0 23-18.6 41.6-41.6 41.6S214 645.5 214 622.5s18.6-41.6 41.6-41.6 41.6 18.6 41.6 41.6z"/>
        <path class="st1" d="M378.8 647.5c0 23-18.6 41.6-41.6 41.6s-41.6-18.6-41.6-41.6 18.6-41.6 41.6-41.6 41.6 18.6 41.6 41.6z"/>
        <path class="st1" d="M1581.8 1134h50.5v-100.5H1259V1134h50.6z"/>
        <path class="st1" d="M1581.8 1134l-36.9 230.4h-202.3l-33-230.4"/>
        <path class="st1" d="M1533.8 809.7s19.8-131.5-114.1-150.7c.1 0-24.9 122.6 114.1 150.7z"/>
        <path class="st1" d="M1539 809.7s-19.8-131.5 114.1-150.7c0 0 25 122.6-114.1 150.7z"/>
        <path class="st1" d="M1335.8 453.7s19.8-131.5-114.1-150.7c.1 0-24.9 122.6 114.1 150.7z"/>
        <path class="st1" d="M1341 453.7s-19.8-131.5 114.1-150.7c0 0 25 122.6-114.1 150.7z"/>
        <path class="st1" d="M1536 1025.7V815"/>
        <path class="st1" d="M1336 1025.7V463"/>
    </g>
</svg>
