<svg xmlns="http://www.w3.org/2000/svg" viewBox="0 0 1920 1920">
    <style>
        .st0{fill:#fff}.st1{fill:none;stroke:#231f20;stroke-width:50;stroke-linecap:round;stroke-linejoin:round;stroke-miterlimit:10}
    </style>
    <path class="st0" d="M773.4 618.6l-357-10.2 170.1-203.5 186.9 213.7zm-357-10.2L265.4 789l168 6 510 18.1-170-194.5-357-10.2z" id="Layer_3"/>
    <path class="st0" d="M1377.6 1391.8s103-80.8 19-200.8c0 0-42.9 50.4-77.7 91.7-36-47.4-84.4-74.6-84.4-74.6-113.3 168.1 51.7 199.7 89.5 198.9l-380.4 108v-507.6l159-17.4 405-44.2V1353l.5 1.7-130.5 37.1zm-275.1-588.2v186.5l405-44.2V779.7l-405 23.9zm405.5 551.2l143.5-40.8 3-543.1-147 8.7V1353l.5 1.8zM265.4 789v576l168 37.2V794.9l-168-5.9zm678.1 24v194.5l159-17.4V803.6l-159 9.4z" id="Layer_4"/>
    <path class="st0" d="M960.9 441.5l423.6 41.5 270.1 288-147 8.7-405.1 23.9-159 9.4-170.1-194.4-186.9-213.7z" id="Layer_5"/>
    <path class="st0" d="M433.5 1402.2V794.9l510 18.1v702.1l-510-112.9zm256-259.3c139.1-28.1 114.1-150.7 114.1-150.7-133.9 19.1-114.1 150.7-114.1 150.7zm0 237c139.1-28.1 114.1-150.7 114.1-150.7-133.9 19.2-114.1 150.7-114.1 150.7zm-5.2-237s19.8-131.5-114.1-150.7c0 0-25 122.6 114.1 150.7zm0 237s19.8-131.5-114.1-150.7c0 0-25 122.6 114.1 150.7z" id="Layer_6"/>
    <path class="st0" d="M803.6 992.2s25 122.6-114.1 150.7c0 0-19.8-131.6 114.1-150.7zm-114.1 387.7c139.1-28.1 114.1-150.7 114.1-150.7-133.9 19.2-114.1 150.7-114.1 150.7zm-5.2-237s19.8-131.5-114.1-150.7c0 0-25 122.6 114.1 150.7zm0 237s19.8-131.5-114.1-150.7c0 0-25 122.6 114.1 150.7z" id="Layer_7"/>
    <path class="st0" d="M1396.5 1191c84 120-19 200.8-19 200.8l-53.6 15.2c-37.8.8-202.8-30.8-89.5-198.9 0 0 48.5 27.2 84.4 74.6 34.9-41.3 77.7-91.7 77.7-91.7z" id="Layer_8"/>
    <g id="STROKES">
        <path class="st1" d="M433.5 1402.2L265.4 1365V789l151-180.6 170.1-203.5 186.9 213.7L943.5 813v702.1z"/>
        <path class="st1" d="M943.5 1515.1l380.4-108 53.7-15.3 130.4-37 143.6-40.8 3-543"/>
        <path class="st1" d="M1102.5 803.6v657.5"/>
        <path class="st1" d="M1507.6 779.7V1353"/>
        <path class="st1" d="M684.3 1379.9s19.8-131.5-114.1-150.7c0 0-25 122.6 114.1 150.7z"/>
        <path class="st1" d="M689.5 1379.9s-19.8-131.5 114.1-150.7c0 0 24.9 122.6-114.1 150.7z"/>
        <path class="st1" d="M684.3 1142.9s19.8-131.5-114.1-150.7c0 0-25 122.6 114.1 150.7z"/>
        <path class="st1" d="M689.5 1142.9s-19.8-131.5 114.1-150.7c0 0 24.9 122.6-114.1 150.7z"/>
        <path class="st1" d="M265.4 789l168.1 5.9 510 18.1 159-9.4 405.1-23.9 147-8.7-270.1-288-423.6-41.5-374.4-36.6"/>
        <path class="st1" d="M433.5 794.9v607.3"/>
        <path class="st1" d="M416.4 608.4l357 10.2"/>
        <path class="st1" d="M1324.5 1407h-.6c-37.8.8-202.8-30.8-89.5-198.9 0 0 48.5 27.2 84.4 74.6 18.1 23.8 33.1 52.8 37.1 85.9"/>
        <path class="st1" d="M1377.6 1391.8s103-80.8 19-200.8c0 0-42.9 50.4-77.7 91.7"/>
        <path class="st1" d="M943.5 1007.5l159-17.4 405.1-44.2 140.6-15.4"/>
        <path class="st1" d="M268.5 990.5l156 18"/>
        <path class="st1" d="M274.5 1206.5l150 29"/>
        <path class="st1" d="M960.9 441.5l291.4 339.1"/>
        <path class="st1" d="M1171.2 463l267.1 311.6"/>
    </g>
</svg>
