<svg xmlns="http://www.w3.org/2000/svg" viewBox="0 0 1920 1920">
    <style>
        .st0{fill:#fff}.st1{fill:#304ffe}.st2{fill:none;stroke:#231f20;stroke-width:50;stroke-linecap:round;stroke-linejoin:round;stroke-miterlimit:10}
    </style>
    <path class="st0" d="M821 533v352h-90V531l-291.2 79.5c18.9-10.4 33.1-57.6 33.1-114.2 0-60-16-109.4-36.5-115.7L819 439h2v94zm-429.9-36.7c0 64.2 18.3 116.3 40.9 116.3l7.8-2.1c18.9-10.4 33.1-57.6 33.1-114.2 0-60-16-109.4-36.5-115.7l-4.4-.6c-22.6 0-40.9 52-40.9 116.3z" id="Layer_5"/>
    <path class="st0" d="M681 887h186v138H681z" id="Layer_6"/>
    <g id="STROKES">
        <path class="st1" d="M432 612.6l7.8-2.1c-2.5 1.4-5.1 2.1-7.8 2.1z"/>
        <path class="st1" d="M432 380c1.5 0 3 .2 4.4.7l-4.4-.7z"/>
        <path class="st2" d="M432 612.6l7.8-2.1L731 531v354h90V533l238.6 238.6c27.6 27.6 64.4 44.5 103.4 46.3 29.1 1.4 60.3-5.5 81.9-33"/>
        <path class="st2" d="M819 439l-382.6-58.4-4.4-.6"/>
        <path class="st2" d="M821 533v-94"/>
        <path class="st2" d="M681 887h186v138H681z"/>
        <path class="st2" d="M436.4 380.6c20.5 6.3 36.5 55.6 36.5 115.7 0 56.6-14.2 103.8-33.1 114.2-2.5 1.4-5.2 2.1-7.8 2.1-22.6 0-40.9-52.1-40.9-116.3C391.1 432 409.4 380 432 380c1.5 0 3 .2 4.4.6z"/>
        <path class="st2" d="M774.3 1037.9s-26.6 364.7 227.5 447.5c254.1 82.8 417.1-138.6 437.5-242.7C1479 1041 1669 1065 1703.1 1153"/>
    </g>
</svg>
