<svg xmlns="http://www.w3.org/2000/svg" viewBox="0 0 1920 1920">
    <style>
        .st0{fill:#fff}.st1{fill:none;stroke:#231f20;stroke-width:50;stroke-linecap:round;stroke-linejoin:round;stroke-miterlimit:10}
    </style>
    <path class="st0" d="M1700.6 1184.4v403.1h-125.4v-403.1h125.4zm-533.9 75.1H344.8v327.9h1229.8v-327.9h-407.9zm-947.3-75.1v403.1h125v-327.9h.4v-75.1H219.4z" id="Layer_12"/>
    <path class="st0" d="M1201.2 1096c36 123-34.5 163.5-34.5 163.5h-19.8v-3c-3.9-32.1-18-60.2-35.3-83.6 34.7-41.4 89.6-76.9 89.6-76.9zm-175.8 0c-36 123 34.5 163.5 34.5 163.5h87v-3c-3.9-32.1-18-60.2-35.3-83.6-36.2-48.8-86.2-76.9-86.2-76.9zm-217.8 81.8c15.7 22.4 28.2 48.9 31.8 78.8v3h19.8s70.5-40.5 34.5-163.5c0-.1-51.3 40.3-86.1 81.7zm-89.7-81.8c-36 123 34.5 163.5 34.5 163.5h87v-3c-3.6-29.9-16.1-56.4-31.8-78.8-36.3-51.7-89.7-81.7-89.7-81.7z" id="Layer_13"/>
    <path class="st0" d="M702.2 628c22.4 0 40.5 18.1 40.5 40.5S724.6 709 702.2 709s-40.5-18.1-40.5-40.5c0-22.3 18.2-40.5 40.5-40.5zm-108-9c0 22.4 18.1 40.5 40.5 40.5s40.5-18.1 40.5-40.5-18.1-40.5-40.5-40.5c-22.3 0-40.5 18.2-40.5 40.5zm0 273c0 22.4 18.1 40.5 40.5 40.5s40.5-18.1 40.5-40.5-18.1-40.5-40.5-40.5c-22.3 0-40.5 18.2-40.5 40.5zM379.8 548.5c0 22.4 18.1 40.5 40.5 40.5s40.5-18.1 40.5-40.5-18.1-40.5-40.5-40.5-40.5 18.2-40.5 40.5zm0 232.5c0 22.4 18.1 40.5 40.5 40.5s40.5-18.1 40.5-40.5-18.1-40.5-40.5-40.5-40.5 18.2-40.5 40.5zm0 231c0 22.4 18.1 40.5 40.5 40.5s40.5-18.1 40.5-40.5-18.1-40.5-40.5-40.5-40.5 18.2-40.5 40.5zm-67.5-181.5c0 22.4 18.1 40.5 40.5 40.5s40.5-18.1 40.5-40.5-18.1-40.5-40.5-40.5-40.5 18.2-40.5 40.5z" id="Layer_14"/>
    <g id="STROKES">
        <path class="st1" d="M344.4 1587.4v-327.9h1230.2v327.9H344.8"/>
        <path class="st1" d="M1575.2 1184.4h125.4v403.1h-125.4z"/>
        <path class="st1" d="M344.8 1587.4H219.4v-403h125.4v75.1z"/>
        <path class="st1" d="M348.6 1370.5h1221.9"/>
        <path class="st1" d="M348.6 1473h1221.9"/>
        <path class="st1" d="M1443.2 1256.5V712"/>
        <path class="st1" d="M1434.2 1153c-48 0-87-38.9-87-87"/>
        <path class="st1" d="M1537.7 977.5c0 48-38.9 87-87 87"/>
        <path class="st1" d="M1537.7 743.5c0 48-38.9 87-87 87"/>
        <path class="st1" d="M1434.2 958c-48 0-87-39-87-87"/>
        <path class="st1" d="M752.4 1259.5s-70.5-40.5-34.5-163.5c0 0 53.4 30 89.7 81.7 15.7 22.4 28.2 48.9 31.8 78.8"/>
        <path class="st1" d="M859.2 1259.5s70.5-40.5 34.5-163.5c0 0-51.3 40.4-86.1 81.7"/>
        <path class="st1" d="M1059.9 1259.5s-70.5-40.5-34.5-163.5c0 0 50 28.1 86.1 76.9 17.3 23.4 31.5 51.5 35.3 83.6"/>
        <path class="st1" d="M1166.7 1259.5s70.5-40.5 34.5-163.5c0 0-54.8 35.5-89.6 76.9"/>
        <path class="st1" d="M525.2 1253.5v-846"/>
        <path class="st1" d="M427.8 733c0-48.1 39-87 87-87"/>
        <path class="st1" d="M379.8 781c0-22.4 18.1-40.5 40.5-40.5s40.5 18.1 40.5 40.5-18.1 40.5-40.5 40.5-40.5-18.1-40.5-40.5z"/>
        <path class="st1" d="M312.3 830.5c0-22.4 18.1-40.5 40.5-40.5s40.5 18.1 40.5 40.5-18.1 40.5-40.5 40.5-40.5-18.1-40.5-40.5z"/>
        <path class="st1" d="M427.8 500.5c0-48.1 39-87 87-87"/>
        <path class="st1" d="M379.8 548.5c0-22.4 18.1-40.5 40.5-40.5s40.5 18.1 40.5 40.5-18.1 40.5-40.5 40.5-40.5-18.1-40.5-40.5z"/>
        <path class="st1" d="M427.8 964c0-48.1 39-87 87-87"/>
        <path class="st1" d="M379.8 1012c0-22.4 18.1-40.5 40.5-40.5s40.5 18.1 40.5 40.5-18.1 40.5-40.5 40.5-40.5-18.1-40.5-40.5z"/>
        <path class="st1" d="M627.2 571c0-48-39-87-87-87"/>
        <path class="st1" d="M675.2 619c0-22.4-18.1-40.5-40.5-40.5s-40.5 18.1-40.5 40.5 18.1 40.5 40.5 40.5 40.5-18.1 40.5-40.5z"/>
        <circle class="st1" cx="702.2" cy="668.5" r="40.5"/>
        <path class="st1" d="M627.2 844c0-48-39-87-87-87"/>
        <path class="st1" d="M675.2 892c0-22.4-18.1-40.5-40.5-40.5s-40.5 18.1-40.5 40.5 18.1 40.5 40.5 40.5 40.5-18.1 40.5-40.5z"/>
        <path class="st1" d="M480.8 332.6s43.5 10.5 43.5 67.5"/>
        <path class="st1" d="M567.7 332.6s-43.5 10.5-43.5 67.5"/>
        <path class="st1" d="M1399.7 638.5s43.3 10.5 43.5 67.1v.4"/>
        <path class="st1" d="M1486.7 638.5s-43.3 10.5-43.5 67.1v.4"/>
    </g>
</svg>
