<svg xmlns="http://www.w3.org/2000/svg" viewBox="0 0 1920 1920">
    <style>
        .st0{fill:#fff}.st1{fill:#304ffe}.st2{fill:none;stroke:#231f20;stroke-width:50;stroke-linecap:round;stroke-linejoin:round;stroke-miterlimit:10}
    </style>
    <g id="Layer_3">
        <path class="st0" d="M867 668.9v132.5c-53.1 31.7-88.7 89.8-88.7 156.1 0 100.4 81.4 181.7 181.7 181.7s181.7-81.4 181.7-181.7c0-66.4-35.6-124.4-88.7-156.1V667.2c129.1 38.8 223.2 158.6 223.2 300.3 0 173.2-140.4 313.5-313.5 313.5s-313.5-140.4-313.5-313.5c-.1-139.8 91.4-258.2 217.8-298.6zm186-1.7c129.1 38.8 223.2 158.6 223.2 300.3 0 173.2-140.4 313.5-313.5 313.5s-313.5-140.4-313.5-313.5c0-139.8 91.5-258.2 217.9-298.7V547.3c-192 43.5-335.3 215.1-335.3 420.3 0 238 192.9 430.9 430.9 430.9s430.9-192.9 430.9-430.9c0-207-145.9-379.9-340.5-421.4v121zm0-237.4v116.3c194.6 41.5 340.5 214.4 340.5 421.4 0 238-192.9 430.9-430.9 430.9s-430.9-192.9-430.9-430.9c0-205.1 143.3-376.8 335.3-420.3V429.8C608.3 474 411.4 699.3 411.4 970.5c0 303 245.6 548.6 548.6 548.6s548.6-245.6 548.6-548.6c0-271.2-196.9-496.5-455.6-540.7z"/>
        <path class="st0" d="M1546 1420.8v66h-78.1v-66h78.1z"/>
    </g>
    <path class="st0" d="M1053 801.4V888H867V225.2h186v442z" id="Layer_4"/>
    <g id="STROKES">
        <path class="st2" d="M867 429.8C608.3 474 411.4 699.3 411.4 970.5c0 303 245.6 548.6 548.6 548.6s548.6-245.6 548.6-548.6c0-271.3-196.9-496.6-455.6-540.8"/>
        <path class="st2" d="M867 547.3c-192 43.5-335.3 215.1-335.3 420.3 0 238 192.9 430.9 430.9 430.9s430.9-192.9 430.9-430.9c0-207-145.9-379.9-340.5-421.4"/>
        <path class="st2" d="M1053 801.4c53.1 31.7 88.7 89.8 88.7 156.1 0 100.4-81.4 181.7-181.7 181.7s-181.7-81.4-181.7-181.7c0-66.4 35.6-124.4 88.7-156.1"/>
        <path class="st2" d="M867 668.9c-126.4 40.4-217.9 158.9-217.9 298.7 0 173.2 140.4 313.5 313.5 313.5s313.5-140.4 313.5-313.5c0-141.7-94.1-261.5-223.2-300.3"/>
        <path class="st2" d="M1053 429.8V225.2H867V888h186V546.1z"/>
        <path class="st2" d="M1505.9 1495.3v199.5l154.5-1.5"/>
        <path class="st2" d="M1498.4 1670.8l-96.7-96.8"/>
        <path class="st2" d="M1467.9 1420.8h78.1v66h-78.1z"/>
        <path class="st2" d="M1508.6 970.5v442.8"/>
    </g>
</svg>
