<svg xmlns="http://www.w3.org/2000/svg" viewBox="0 0 1920 1920">
    <style>
        .st0{fill:#fff}.st1{fill:#304ffe}.st2{fill:none;stroke:#231f20;stroke-width:50;stroke-linecap:round;stroke-linejoin:round;stroke-miterlimit:10}
    </style>
    <path class="st0" d="M1371.7 1050.1h-97.9V665l-316.7 86.4c20.5-11.3 35.9-62.6 35.9-124.2 0-65.2-17.4-118.9-39.7-125.8l416.1 63.5h2.2v485.2zM948.6 753.8l8.6-2.3c20.5-11.3 35.9-62.6 35.9-124.2 0-65.2-17.4-118.9-39.7-125.8l-4.8-.7c-24.6 0-44.5 56.7-44.5 126.5s19.9 126.5 44.5 126.5z" id="Layer_7"/>
    <path class="st0" d="M1219.4 1052.2h202.3v150.1h-202.3z" id="Layer_8"/>
    <g id="STROKES">
        <path class="st1" d="M948.6 753.8l8.6-2.3c-2.8 1.5-5.7 2.3-8.6 2.3z"/>
        <path class="st1" d="M948.6 500.7c1.6 0 3.2.2 4.8.7l-4.8-.7z"/>
        <path class="st2" d="M948.6 753.8l8.6-2.4 316.6-86.4v385.1h97.9V667.2"/>
        <path class="st2" d="M1369.6 564.9l-416.2-63.5-4.8-.7"/>
        <path class="st2" d="M1371.7 667.2V564.9"/>
        <path class="st2" d="M1219.4 1052.2h202.3v150.1h-202.3z"/>
        <path class="st2" d="M953.4 501.4c22.3 6.9 39.7 60.6 39.7 125.8 0 61.6-15.4 112.8-35.9 124.2-2.8 1.5-5.6 2.3-8.6 2.3-24.6 0-44.5-56.7-44.5-126.5s19.9-126.5 44.5-126.5c1.6 0 3.2.2 4.8.7z"/>
        <path class="st2" d="M1320.9 1216.4s-28.9 396.7 247.5 486.8"/>
        <path class="st2" d="M813.5 467.5l-78.4-18.4"/>
        <path class="st2" d="M641.6 427.1l-78.5-18.5"/>
        <path class="st2" d="M469.6 386.7l-78.5-18.5"/>
        <path class="st2" d="M297.6 346.2l-78.5-18.4"/>
        <path class="st2" d="M814.5 806.5l-78.7 17.3"/>
        <path class="st2" d="M642 844.3l-78.8 17.3"/>
        <path class="st2" d="M469.4 882.2l-78.7 17.3"/>
        <path class="st2" d="M296.9 920.1l-78.8 17.3"/>
        <path class="st2" d="M800.4 682.2l-66.2 7.1"/>
        <path class="st2" d="M638.5 697.4l-80.3 6.8"/>
        <path class="st2" d="M462.5 712.4l-80.4 6.8"/>
        <path class="st2" d="M286.4 727.3l-69 5.6"/>
        <path class="st2" d="M217.6 533.8l68.5 7.2"/>
        <path class="st2" d="M381.8 549.5l80.3 7.2"/>
        <path class="st2" d="M557.8 565.2l80.3 7.2"/>
        <path class="st2" d="M733.7 580.9l66.2 7.3"/>
        <path class="st2" d="M1371.7 667.2l147.2 336.3c17.1 38.9 47.7 70.6 86.5 87.9 28.9 12.9 63.2 18.3 96-.9"/>
    </g>
</svg>
