<svg xmlns="http://www.w3.org/2000/svg" viewBox="0 0 1920 1920">
    <style>
        .st0{fill:#fff}.st1{fill:none;stroke:#231f20;stroke-width:50;stroke-linecap:round;stroke-linejoin:round;stroke-miterlimit:10}
    </style>
    <path class="st0" d="M1618.6 840.3l-86.4-30.7c-60.2-21.4-88.6-90.1-61.2-147.8l39.4-82.8c51.3-108-61.3-220.6-169.3-169.3l-82.8 39.4c-57.7 27.4-126.4-1-147.8-61.2l-30.7-86.4c-40.1-112.6-199.4-112.6-239.4 0l-30.7 86.4c-21.4 60.2-90.1 88.6-147.8 61.2L579 409.7C471 358.3 358.4 471 409.7 579l39.4 82.8c27.4 57.7-1 126.4-61.2 147.8l-86.4 30.7c-112.6 40.1-112.6 199.4 0 239.4l86.4 30.7c60.2 21.4 88.6 90.1 61.2 147.8l-39.4 82.8c-51.3 108 61.3 220.6 169.3 169.3l82.8-39.4c57.7-27.4 126.4 1.1 147.8 61.2l30.7 86.4c40.1 112.6 199.4 112.6 239.4 0l30.7-86.4c21.4-60.2 90.1-88.6 147.8-61.2l82.8 39.4c108 51.3 220.6-61.3 169.3-169.3l-39.4-82.8c-27.4-57.7 1-126.4 61.2-147.8l86.4-30.7c112.7-40.1 112.7-199.4.1-239.4zM960 1330.9c-204.9 0-370.9-166.1-370.9-370.9s166-370.9 370.9-370.9 370.9 166.1 370.9 370.9-166 370.9-370.9 370.9z" id="Layer_8"/>
    <g id="STROKES">
        <path class="st1" d="M1079.7 301.4l30.7 86.4c21.4 60.2 90.1 88.6 147.8 61.2l82.8-39.4c108-51.3 220.6 61.3 169.3 169.3l-39.4 82.8c-27.4 57.7 1.1 126.4 61.2 147.8l86.4 30.7c112.6 40.1 112.6 199.4 0 239.4l-86.4 30.7c-60.2 21.4-88.6 90.1-61.2 147.8l39.4 82.8c51.3 108-61.3 220.6-169.3 169.3l-82.8-39.4c-57.7-27.4-126.4 1.1-147.8 61.2l-30.7 86.4c-40.1 112.6-199.4 112.6-239.4 0l-30.7-86.4c-21.4-60.2-90.1-88.6-147.8-61.2l-82.8 39.4c-108 51.3-220.6-61.3-169.3-169.3l39.4-82.8c27.4-57.7-1.1-126.4-61.2-147.8l-86.4-30.7c-112.6-40.1-112.6-199.4 0-239.4l86.4-30.7c60.2-21.4 88.6-90.1 61.2-147.8L409.7 579C358.3 471 471 358.3 579 409.7l82.8 39.4c57.7 27.4 126.4-1.1 147.8-61.2l30.7-86.4c40-112.7 199.4-112.7 239.4-.1z"/>
        <circle class="st1" cx="960" cy="960" r="370.9"/>
    </g>
</svg>
