<svg xmlns="http://www.w3.org/2000/svg" viewBox="0 0 1920 1920">
    <style>
        .st0{fill:#fff}.st1{fill:none;stroke:#231f20;stroke-width:50;stroke-linecap:round;stroke-linejoin:round;stroke-miterlimit:10}
    </style>
    <path class="st0" d="M1702.1 959.5c0-23.1-122.2-36.8-267.4-45-3.1-32.8-9.5-64.6-18.9-95.1 131-63.1 238.7-122.5 229.8-143.9-8.8-21.3-127 12.7-264.4 60.8-15.3-28.7-33.4-55.6-53.9-80.5 97-108.5 173.8-204.8 157.4-221.1-16.4-16.3-112.6 60.5-221.1 157.5-24.8-20.5-51.8-38.6-80.5-53.8 48.1-137.4 82.2-255.7 60.9-264.5-21.4-8.9-80.9 98.9-144 230.1-30.5-9.3-62.2-15.7-95-18.8-8.1-145.4-21.9-267.8-45-267.8s-36.9 122.4-45 267.8c-32.7 3.1-64.5 9.4-95 18.8-63.1-131.2-122.6-239-144-230.1-21.4 8.8 12.8 127.1 60.9 264.5-28.7 15.2-55.6 33.3-80.5 53.8-108.5-97-204.8-173.8-221.1-157.5-16.3 16.4 60.4 112.6 157.4 221.1-20.6 24.8-38.7 51.8-53.9 80.5-137.3-48-255.5-82.1-264.4-60.8-8.8 21.4 98.8 80.8 229.8 143.9-9.4 30.5-15.8 62.3-18.9 95.1-145.2 8.2-267.4 21.9-267.4 45s122.1 36.8 267.3 45c3 32.8 9.4 64.7 18.8 95.2-130.9 63.1-238.4 122.4-229.6 143.8 8.8 21.3 126.8-12.7 264-60.7 15.2 28.8 33.4 55.8 54 80.8-96.9 108.4-173.5 204.4-157.2 220.7 16.3 16.3 112.3-60.2 220.6-157 24.9 20.6 51.9 38.8 80.7 54.1-48 137.1-81.9 255-60.6 263.8 21.3 8.8 80.6-98.5 143.7-229.3 30.6 9.4 62.5 15.8 95.4 18.9 8.2 145 21.9 266.9 45 266.9s36.8-121.9 45-266.9c32.9-3.1 64.8-9.5 95.4-18.9 63 130.8 122.3 238.1 143.7 229.3 21.3-8.8-12.6-126.7-60.6-263.8 28.8-15.3 55.8-33.4 80.7-54.1 108.3 96.8 204.3 173.3 220.6 157 16.3-16.3-60.2-112.3-157.1-220.7 20.6-24.9 38.7-52 54-80.8 137.2 48 255.1 82 264 60.7 8.8-21.3-98.7-80.7-229.6-143.8 9.3-30.6 15.7-62.4 18.8-95.2 145.1-8.1 267.2-21.9 267.2-45zM960 1357.2c-219.4 0-397.2-177.8-397.2-397.2S740.6 562.8 960 562.8s397.2 177.8 397.2 397.2-177.8 397.2-397.2 397.2z" id="Layer_6"/>
    <path class="st0" d="M959.9 845.3c-63.1 0-114.2 51.1-114.2 114.2 0 21.8 6.1 42.1 16.7 59.4 20.1 32.8 56.2 54.8 97.5 54.8s77.6-22 97.6-54.9c10.5-17.3 16.6-37.6 16.6-59.3 0-63-51.1-114.2-114.2-114.2z" id="Layer_7"/>
    <g id="STROKES">
        <path class="st1" d="M1702.1 959.5c0-23.1-122.2-36.8-267.4-45-3.1-32.8-9.5-64.6-18.9-95.1 131-63.1 238.7-122.6 229.8-143.9-8.8-21.4-127 12.7-264.4 60.8-15.3-28.7-33.4-55.6-53.9-80.5 97-108.5 173.8-204.7 157.4-221.1-16.4-16.4-112.6 60.5-221.1 157.5-24.8-20.5-51.8-38.6-80.5-53.8 48.1-137.4 82.2-255.7 60.9-264.5-21.4-8.8-80.9 98.9-144 230.1-30.5-9.3-62.2-15.7-95-18.8-8.2-145.4-21.9-267.8-45-267.8s-36.9 122.4-45 267.8c-32.7 3.1-64.5 9.4-95 18.8-63.1-131.2-122.6-239-144-230.1-21.4 8.8 12.8 127.1 60.9 264.5-28.7 15.2-55.6 33.3-80.5 53.8-108.6-97-204.8-173.8-221.1-157.5C419 451 495.7 547.3 592.7 655.8c-20.6 24.8-38.7 51.8-53.9 80.5-137.3-48.1-255.5-82.1-264.4-60.8-8.8 21.3 98.8 80.8 229.8 143.9-9.4 30.5-15.8 62.3-18.9 95.1-145.2 8.2-267.4 21.9-267.4 45s122.1 36.8 267.3 45c3 32.8 9.4 64.7 18.8 95.2-130.9 63.1-238.4 122.4-229.6 143.8 8.8 21.3 126.8-12.7 264-60.6 15.3 28.8 33.4 55.8 54 80.8-96.8 108.4-173.4 204.3-157 220.7 16.3 16.3 112.3-60.2 220.6-157 24.9 20.6 51.9 38.8 80.7 54.1-47.9 137.1-81.9 254.9-60.6 263.8 21.3 8.8 80.6-98.5 143.7-229.3 30.6 9.4 62.5 15.8 95.4 18.9 8.2 145 21.9 266.9 45 266.9s36.8-121.9 45-266.9c32.9-3.1 64.8-9.5 95.4-18.9 63 130.8 122.3 238.1 143.7 229.3 21.3-8.8-12.6-126.7-60.6-263.8 28.8-15.3 55.8-33.5 80.7-54.1 108.3 96.8 204.3 173.3 220.6 157 16.3-16.3-60.2-112.3-157-220.7 20.6-24.9 38.7-52 54-80.8 137.2 48 255.1 82 264 60.6 8.8-21.3-98.7-80.7-229.6-143.8 9.4-30.6 15.7-62.4 18.8-95.2 144.8-8.1 266.9-21.8 266.9-45z"/>
        <path class="st1" d="M960 562.8c-219.4 0-397.2 177.8-397.2 397.2s177.8 397.2 397.2 397.2 397.2-177.8 397.2-397.2S1179.4 562.8 960 562.8zm97.5 456.1c-20.1 32.9-56.3 54.9-97.6 54.9s-77.5-21.9-97.5-54.8c-10.6-17.3-16.7-37.7-16.7-59.4 0-63.1 51.1-114.2 114.2-114.2s114.2 51.1 114.2 114.2c0 21.7-6.1 42-16.6 59.3z"/>
        <path class="st1" d="M959.9 845.3V567"/>
        <path class="st1" d="M862.3 1019l-244.8 137.5"/>
        <path class="st1" d="M1302.5 1156.2l-245-137.3"/>
        <path class="st1" d="M1074.1 959.5c0 21.7-6.1 42-16.6 59.3-20.1 32.9-56.3 54.9-97.6 54.9s-77.5-21.9-97.5-54.8c-10.6-17.3-16.7-37.7-16.7-59.4 0-63.1 51.1-114.2 114.2-114.2s114.2 51.2 114.2 114.2z"/>
    </g>
</svg>
