<svg xmlns="http://www.w3.org/2000/svg" viewBox="0 0 1920 1920">
    <style>
        .st0{fill:#fff}.st1{fill:none;stroke:#231f20;stroke-width:50;stroke-linecap:round;stroke-linejoin:round;stroke-miterlimit:10}
    </style>
    <path class="st0" d="M1703.1 1049.4V869.7l-233.4-61.9c-10.6-35.4-24.7-69.3-42-101.2L1549 497.7l-127.1-127.1-209.2 121.5c-31.8-17.2-65.6-31.3-100.9-41.8l-62-233.8H870.2l-62 233.8c-35.3 10.5-69.1 24.6-100.9 41.8L498.1 370.6 371 497.7l121.3 208.9c-17.3 31.9-31.5 65.8-42 101.2L217 869.7v179.7l233 61.8c10.5 35.6 24.7 69.7 42.1 101.8l-121 208.4 127.1 127.1 208.2-120.9c32.2 17.5 66.3 31.8 102.1 42.4l61.7 232.7h179.7l61.7-232.7c35.8-10.6 69.9-24.9 102.1-42.4l208.2 120.9 127.1-127.1-121-208.4c17.4-32.1 31.6-66.2 42.1-101.8l233-61.8zM960 1317.2c-197.2 0-357.1-159.9-357.1-357.1S762.8 603 960 603s357.1 159.9 357.1 357.1-159.9 357.1-357.1 357.1z" id="Layer_2"/>
    <path class="st0" d="M960 603c-197.2 0-357.1 159.9-357.1 357.1s159.9 357.1 357.1 357.1 357.1-159.9 357.1-357.1S1157.2 603 960 603zm0 592.9c-130.2 0-235.8-105.6-235.8-235.8S829.8 724.3 960 724.3s235.8 105.6 235.8 235.8-105.6 235.8-235.8 235.8z" id="Layer_4"/>
    <circle class="st0" cx="960" cy="960.1" r="235.8" id="Layer_5"/>
    <g id="STROKES">
        <path class="st1" d="M1703.1 1049.4V869.7l-233.4-61.9c-10.6-35.4-24.7-69.3-42.1-101.2L1549 497.7l-127.1-127.1-209.1 121.5c-31.8-17.2-65.6-31.3-100.9-41.8l-62-233.8H870.1l-62 233.8c-35.3 10.5-69.1 24.6-100.9 41.8L498.1 370.6 371 497.7l121.3 208.9c-17.3 31.9-31.5 65.8-42.1 101.2l-233.4 61.9v179.7l233 61.8c10.5 35.6 24.7 69.7 42.1 101.8l-121 208.4L498 1548.5l208.2-120.9c32.2 17.5 66.3 31.8 102.1 42.4l61.7 232.7h179.7l61.7-232.7c35.8-10.6 69.9-24.9 102.1-42.4l208.2 120.9 127.1-127.1-121-208.4c17.4-32.1 31.6-66.2 42.1-101.8l233.2-61.8z"/>
        <circle class="st1" cx="960" cy="960.1" r="235.8"/>
        <circle class="st1" cx="960" cy="960.1" r="357.1"/>
    </g>
</svg>
