<svg xmlns="http://www.w3.org/2000/svg" viewBox="0 0 1920 1920">
    <style>
        .st0{fill:#fff}.st1{fill:none;stroke:#231f20;stroke-width:50;stroke-linecap:round;stroke-linejoin:round;stroke-miterlimit:10}
    </style>
    <path class="st0" d="M1275.9 1513.7c-166.9 103.6-310 .7-91.9-190.2 42.6 11.8 77.9-25.2 77.9-25.2s-20.7 81.5 56.9 20.6c67.2-52.8 111.6-129.8 123.1-214.5 4.3-32 4.4-66.8-4-101.3-.4 1-.7 2-1.1 3 .6-2.4.9-3.8.9-3.8.1.3.1.5.2.8 64-174 46.1-334.7 46.1-334.7-41.2-362.9-309.6-474.6-583.7-447.9C626.1 247.1 425.5 490.9 452.1 765c0 0 3.8 179.2 132.8 359.6-6.9-1.2-14-3.3-21.6-6.3-94-37.6-157-10.1-213.5 50.3-23.9 25.6-8 67.7 27 70.3 11 .8 23.9-.7 38.9-5.9-.8.7-40.8 35.5 12.1 76.7 53.4 41.7 104.2-11.6 104.2-11.6s-20.7 81.5 56.9 20.6c28.3-22.2 52.5-48.7 72-78.3 51.8 88 103.4 190.4 133.6 252.1 28.9 59 71.1 110.6 124 149.6 25.2 18.6 53.1 34.6 81.2 42 261.3 68.8 283.7-71.7 357.4-96.9 73.7-25.2 85.4 85 85.4 85 67.5-108.7 11.6-269.1-166.6-158.5zM838.9 703c-141 57.9-164.3-42.8-166.6-100.9-.8-20.8 17.3-37.1 37.9-34.3 82.2 11.2 124.1 59 143.4 91.3 9.6 15.9 2.6 36.8-14.7 43.9zm190.6-44c19.3-32.3 61.1-80.1 143.4-91.3 20.6-2.8 38.7 13.6 37.9 34.3-2.3 58-25.6 158.7-166.6 100.9-17.2-7-24.2-27.9-14.7-43.9z" id="Layer_5"/>
    <path class="st0" d="M710.2 567.8c-20.6-2.8-38.7 13.6-37.9 34.3 2.3 58 25.6 158.7 166.6 100.9 17.3-7.1 24.3-27.9 14.7-43.9-19.3-32.4-61.1-80.1-143.4-91.3zm462.7 0c-82.2 11.2-124.1 59-143.4 91.3-9.6 16-2.6 36.9 14.7 43.9 141 57.9 164.3-42.8 166.6-100.9.8-20.8-17.3-37.2-37.9-34.3z" id="Layer_6"/>
    <g id="STROKES">
        <path class="st1" d="M1442.5 1672.4s-11.7-110.2-85.4-85c-73.7 25.2-96.1 165.7-357.4 96.9-28.1-7.4-56-23.4-81.2-42-52.9-39-95.2-90.6-124-149.6-30.2-61.7-81.8-164.1-133.6-252.1-23.2-39.3-46.4-75.8-67.7-104.5-2.8-3.8-5.6-7.6-8.3-11.4C456 944.2 452.1 765 452.1 765 425.4 490.9 626 247.1 900.2 220.4c274.1-26.7 542.5 85 583.7 447.9 0 0 17.9 160.7-46.1 334.7-.1-.3-.1-.5-.2-.8 0 0-.3 1.3-.9 3.8-9.4 25.3-20.6 50.9-33.9 76.3-22.6 32-57.7 56.8-109.6 36-94-37.6-157.1-10.1-213.5 50.3-23.9 25.6-8 67.7 27 70.3 11 .8 23.9-.7 38.9-5.9-.8.7-40.8 35.5 12.1 76.7 8.9 7 17.8 11.3 26.3 13.6-218.1 191-75.1 293.8 91.9 190.2 178.2-110.4 234.1 50 166.6 158.9z"/>
        <path class="st1" d="M1437.8 1003c-.4 1-.7 2-1.1 3 .6-2.4.9-3.8.9-3.8.1.3.2.6.2.8z"/>
        <path class="st1" d="M1100.2 955.6c-10.1-11.7-17.3-27.3-36.4-27.3-30.6 0-30.6 40-61.1 40-30.6 0-30.6-40-61.1-40-30.6 0-30.6 40-61.1 40-30.6 0-30.6-40-61.1-40-19.1 0-26.3 15.6-36.4 27.3"/>
        <path class="st1" d="M1029.5 659c19.3-32.3 61.1-80.1 143.4-91.3 20.6-2.8 38.7 13.6 37.9 34.3-2.3 58.1-25.6 158.7-166.6 100.9-17.2-7-24.2-27.9-14.7-43.9z"/>
        <path class="st1" d="M853.6 659c-19.3-32.3-61.1-80.1-143.4-91.3-20.6-2.8-38.7 13.6-37.9 34.3 2.3 58.1 25.6 158.7 166.6 100.9 17.3-7 24.3-27.9 14.7-43.9z"/>
        <path class="st1" d="M1441.9 1104.4c-11.5 84.7-55.9 161.7-123.1 214.5-77.6 61-56.9-20.6-56.9-20.6s-35.3 36.9-77.9 25.2c-8.6-2.3-17.4-6.7-26.3-13.6-52.9-41.3-12.9-76.1-12.1-76.7-15.1 5.2-27.9 6.7-38.9 5.9-34.9-2.6-50.9-44.8-27-70.3 56.5-60.3 119.5-87.9 213.5-50.3 51.9 20.8 87-4.1 109.6-36 20.8-29.4 31-64.9 33.9-76.3.4-1 .7-2 1.1-3 8.4 34.4 8.4 69.1 4.1 101.2z"/>
        <path class="st1" d="M1437.8 1003c-.4 1-.7 2-1.1 3 .6-2.4.9-3.8.9-3.8.1.3.2.6.2.8z"/>
        <path class="st1" d="M660.9 1240.6c-19.5 29.6-43.7 56.1-72 78.3-77.6 61-56.9-20.6-56.9-20.6s-50.8 53.2-104.2 11.6c-52.9-41.3-12.9-76.1-12.1-76.7-15.1 5.2-27.9 6.7-38.9 5.9-34.9-2.6-50.9-44.8-27-70.3 56.5-60.3 119.5-87.9 213.5-50.3 7.5 3 14.7 5.1 21.6 6.3 2.7 3.8 5.5 7.6 8.3 11.4 21.3 28.6 44.5 65 67.7 104.4z"/>
    </g>
</svg>
