<svg xmlns="http://www.w3.org/2000/svg" viewBox="0 0 1920 1920">
    <style>
        .st0{fill:#fff}.st1{fill:none;stroke:#231f20;stroke-width:50;stroke-linecap:round;stroke-linejoin:round;stroke-miterlimit:10}
    </style>
    <path class="st0" d="M417.9 1285.1c-111 0-201 124.5-201 278.1 0 9.8.4 19.4 1.1 28.9 1.9 25.9 35.2 35.1 50.2 14 5.5-7.8 14-11.7 22.6-11.7 8.5 0 17.1 3.9 22.6 11.7l18.4 26c11 15.6 34.1 15.6 45.1 0l18.4-26c11-15.5 34.1-15.5 45.1 0l18.5 26c11 15.5 34.1 15.5 45.1 0l18.4-26c11-15.5 34.1-15.5 45.1 0 15 21.2 48.2 11.9 50.2-14 .7-9.5 1.1-19.1 1.1-28.9 0-54.4-11.3-105.2-30.8-148.1-35.5-78-98.4-130-170.1-130zm1084.2 0c-71.7 0-134.6 51.9-170.1 130-19.5 42.9-30.8 93.6-30.8 148.1 0 9.8.4 19.4 1.1 28.9 1.9 25.9 35.2 35.1 50.2 14 5.5-7.8 14-11.7 22.6-11.7 8.5 0 17 3.9 22.6 11.7l18.4 26c11 15.6 34.1 15.6 45.1 0l18.5-26c11-15.5 34.1-15.5 45.1 0l18.4 26c11 15.5 34.1 15.5 45.1 0l18.5-26c11-15.5 34.1-15.5 45.1 0 15 21.2 48.2 11.9 50.2-14 .7-9.5 1.1-19.1 1.1-28.9-.2-153.5-90.1-278.1-201.1-278.1z" id="Layer_7"/>
    <path class="st0" d="M1430 548.1c-93.6-162.5-269-271.8-470-271.8S583.6 385.6 490 548.1c-45.9 79.6-72.1 171.8-72.1 270.2v466.8c71.7 0 134.6 51.9 170.1 130l46.7-61.2 108.4 142.2 108.4-142.2L960 1496.1l108.4-142.2 108.4 142.2 108.4-142.2 46.7 61.2c35.6-78.1 98.5-130 170.1-130V818.3c.1-98.4-26.1-190.7-72-270.2zM763.2 868.9c-50.1 0-90.8-40.7-90.8-90.8 0-50.1 40.6-90.8 90.8-90.8 50.1 0 90.8 40.7 90.8 90.8 0 50.1-40.6 90.8-90.8 90.8zM960 1243.7c-34.3 0-62.1-61.8-62.1-138s27.8-138 62.1-138 62.1 61.8 62.1 138-27.8 138-62.1 138zm196.8-374.8c-50.1 0-90.8-40.7-90.8-90.8 0-50.1 40.6-90.8 90.8-90.8 50.1 0 90.8 40.7 90.8 90.8 0 50.1-40.7 90.8-90.8 90.8z" id="Layer_8"/>
    <path class="st0" d="M763.2 687.3c-50.1 0-90.8 40.7-90.8 90.8 0 50.1 40.7 90.8 90.8 90.8 50.1 0 90.8-40.7 90.8-90.8 0-50.2-40.7-90.8-90.8-90.8zm393.6 0c-50.1 0-90.8 40.7-90.8 90.8 0 50.1 40.7 90.8 90.8 90.8 50.1 0 90.8-40.7 90.8-90.8 0-50.2-40.7-90.8-90.8-90.8z" id="Layer_9"/>
    <ellipse class="st0" cx="960" cy="1105.6" rx="62.2" ry="138" id="Layer_10"/>
    <g id="STROKES">
        <path class="st1" d="M618.9 1563.2c0 9.8-.4 19.4-1.1 28.9-1.9 25.9-35.2 35.1-50.2 14-11-15.5-34.1-15.5-45.1 0l-18.4 26c-11 15.5-34.1 15.5-45.1 0l-18.4-26c-11-15.5-34.1-15.5-45.1 0l-18.4 26c-11 15.5-34.1 15.5-45.1 0l-18.4-26c-11-15.6-34.1-15.6-45.1 0-15 21.2-48.2 11.9-50.2-14-.7-9.5-1.1-19.1-1.1-28.9 0-153.6 90-278.1 201-278.1 71.7 0 134.6 51.9 170.1 130 19.3 42.9 30.6 93.7 30.6 148.1z"/>
        <path class="st1" d="M1703.1 1563.2c0 9.8-.4 19.4-1.1 28.9-1.9 25.9-35.2 35.1-50.2 14-11-15.5-34.1-15.5-45.1 0l-18.4 26c-11 15.5-34.1 15.5-45.1 0l-18.4-26c-11-15.5-34.1-15.5-45.1 0l-18.4 26c-11 15.5-34.1 15.5-45.1 0l-18.4-26c-11-15.6-34.1-15.6-45.1 0-15 21.2-48.2 11.9-50.2-14-.7-9.5-1.1-19.1-1.1-28.9 0-54.4 11.3-105.2 30.8-148.1 35.6-78.1 98.5-130 170.1-130 110.8.1 200.8 124.6 200.8 278.1z"/>
        <path class="st1" d="M1502.1 818.3v466.8c-71.7 0-134.6 51.9-170.1 130l-46.7-61.2-108.4 142.2-108.4-142.2L960 1496.1l-108.4-142.2-108.4 142.2-108.4-142.2-46.7 61.2c-35.6-78.1-98.5-130-170.1-130V818.3c0-98.4 26.2-190.7 72.1-270.2 93.6-162.5 269-271.8 470-271.8s376.4 109.4 470 271.8c45.7 79.5 72 171.8 72 270.2z"/>
        <circle class="st1" cx="763.2" cy="778.1" r="90.8"/>
        <circle class="st1" cx="1156.8" cy="778.1" r="90.8"/>
        <ellipse class="st1" cx="960" cy="1105.6" rx="62.2" ry="138"/>
    </g>
</svg>
