<svg xmlns="http://www.w3.org/2000/svg" viewBox="0 0 1920 1920">
    <style>
        .st0{fill:#fff}.st1{fill:none;stroke:#231f20;stroke-width:50;stroke-linecap:round;stroke-linejoin:round;stroke-miterlimit:10}
    </style>
    <path class="st0" d="M1480.4 1644.3c-23.8-215.1-47.5-830.5-71.2-1045.6-12.5-111.1-72.3-206-152.9-273.7-81.3-67.6-183.4-107.9-294.9-108.3-111.9-.2-214.6 39.5-296.3 106.6-81.1 67.2-141.3 161.8-153.9 273.2-23.8 215.9-47.7 831.9-71.5 1047.8-2 17.8 19.9 32.8 42.2 28.6 90.7-17.6 112.9-115.9 223.3-109.2 126.8 5.9 123.2 138.2 254.9 139.3 131.7-1.1 128.1-133.4 254.9-139.3 110.4-6.7 132.7 91.6 223.3 109.2 22.2 4.2 44.1-10.7 42.1-28.6zM692.9 619l200 134.1C733.2 912.9 692.9 619 692.9 619zm465.3 574.8c0 16.2-22 21.3-29.2 6.8-34.9-70.1-97.6-116.8-169.1-116.8s-134.2 46.7-169.1 116.8c-7.2 14.5-29.1 9.3-29.2-6.8v-.7c0-135 88.8-244.5 198.2-244.5s198.2 109.5 198.2 244.5v.7zm-131.1-440.6l200-134.1c0-.1-40.3 293.8-200 134.1z" id="Layer_2"/>
    <path class="st0" d="M892.9 753.2L692.9 619s40.2 293.9 200 134.2zM960 948.6c-109.5 0-198.2 109.5-198.2 244.5v.7c0 16.2 22 21.3 29.2 6.8 34.9-70.1 97.6-116.8 169.1-116.8s134.2 46.7 169.1 116.8c7.2 14.5 29.1 9.3 29.2-6.8v-.7c-.2-135-88.9-244.5-198.4-244.5zm67.1-195.4c159.7 159.7 200-134.1 200-134.1l-200 134.1z" id="Layer_4"/>
    <g id="STROKES">
        <path class="st1" d="M1409.2 598.7c23.8 215.1 47.5 830.5 71.3 1045.6 2 17.8-19.9 32.8-42.2 28.6-90.7-17.6-112.9-115.9-223.3-109.2-126.8 5.9-123.2 138.2-254.9 139.3-131.7-1.1-128.1-133.4-254.9-139.3-110.4-6.7-132.7 91.6-223.3 109.2-22.3 4.2-44.2-10.7-42.2-28.6 23.8-215.9 47.7-831.9 71.5-1047.8 12.6-111.4 72.8-206 153.9-273.2 81.8-67.1 184.4-106.8 296.3-106.6 111.6.4 213.7 40.8 294.9 108.4 80.6 67.6 140.4 162.5 152.9 273.6z"/>
        <path class="st1" d="M1027.1 753.2l200-134.1c0-.1-40.2 293.8-200 134.1z"/>
        <path class="st1" d="M892.9 753.2L692.9 619s40.2 293.9 200 134.2z"/>
        <path class="st1" d="M1158.2 1193.1v.7c0 16.2-22 21.3-29.2 6.8-34.9-70.1-97.6-116.8-169.1-116.8s-134.2 46.7-169.1 116.8c-7.2 14.5-29.1 9.3-29.2-6.8v-.7c0-135 88.8-244.5 198.2-244.5s198.4 109.5 198.4 244.5z"/>
    </g>
</svg>
