<svg xmlns="http://www.w3.org/2000/svg" viewBox="0 0 1920 1920">
    <style>
        .st0{fill:#fff}.st1{fill:none;stroke:#231f20;stroke-width:50;stroke-linecap:round;stroke-linejoin:round;stroke-miterlimit:10}
    </style>
    <g id="Layer_3">
        <path class="st0" d="M708.9 892.8c-39.6 3.2-69.2 27.2-69.2 27.2l29.2-104.8c-82.4-1.7-139.1-36.1-183.8-147.7C440.5 555.9 358 489 358 489s10.3-34.4 188.9 15.5c178.6 49.8 228.4 211.2 228.4 211.2s41.2-5.2 41.2-94.5V371.8c-17.9-16.2-29.2-39.6-29.2-65.7 0-48.9 39.6-88.5 88.5-88.5 48.8 0 88.4 39.6 88.4 88.5 0 23.5-9.1 44.8-24 60.6v132.5c9 36.1 169.6 36.1 178.6 0V366.8c-14.9-15.8-24-37.1-24-60.6 0-48.9 39.6-88.5 88.4-88.5 48.8 0 88.4 39.6 88.4 88.5 0 26-11.3 49.5-29.2 65.7v249.4c0 89.3 41.2 94.5 41.2 94.5s49.8-161.4 228.4-211.2c178.7-50 189-15.6 189-15.6s-82.4 67-127.1 178.6c-44.6 111.6-101.3 146-183.8 147.7l29.2 104.8s-19.1-15.5-47.2-23.3l-.5 2.7s41.9 65.3-33.7 98c-10.3 58.4-6.1 302.2-66.3 348.5-54.5 42-76.5 67.1-95.5 94.4l-2.4-1.7c-45.9 54-245.6 45.7-292.6-.7-18.6-26.4-40.9-51.2-93.8-92-23.2-17.9-36.7-63.4-45.1-115.8-11.2-70.2-13.4-152.9-17.5-198.7-.7-7.7-1.5-14.4-2.3-19.8 3.1-4.3 6.1-9 9-14.1-75.5-32.8-22.5-104.8-22.5-104.8zm318.9 643.8c75.8 0 122.4-57.4 142.5-87.6 1.9-2.9 3.9-5.8 5.8-8.6l-2.4-1.7c-45.9 54-245.6 45.7-292.6-.7 2.5 3.6 5 7.3 7.5 11 6.8 10.2 16.2 23.4 28.6 36.6 24.4 25.7 60.4 51 110.6 51z"/>
        <path class="st0" d="M454.2 1344.6c19.9 79.6 39.8 136.4 73 129.8 33.2-6.6 6.6-73 59.7-106.2 51.6-32.2 14.3-157.5 12.2-164.7 63.3-67 112.5-129.6 124.8-172.2l.9-.1c4.2 45.8 6.3 128.5 17.5 198.7-.3.9-16.2 45.7-22.7 85.1-6.6 39.8-79.6 79.6-33.2 126.1 46.4 46.4 143.1 61 176.3 114.1-22.1 28.1-47.3 60-69 86.9-66.3-33.2-94-161.2-160.4-74.9-66.3 86.2-70.2 117.4-114.5 127-68.9-16.8-130.5-44-179.7-70.7 59.7-33.2 154.9 10 168.1-43 13.3-53.1-106.1-79.6-146-152.6l-.4-.5c29.4-25.3 61.2-53.4 93.4-82.8z"/>
    </g>
    <path class="st0" d="M881.2 1437.9c2.5 3.6 5 7.3 7.5 11 6.8 10.2 16.2 23.4 28.6 36.6-5.3 6.8-27.6 35.5-54.6 69.8-33.2-53.1-129.8-67.7-176.3-114.1-46.4-46.4 26.5-86.2 33.2-126.1 6.6-39.4 22.4-84.2 22.7-85.1 8.4 52.5 21.9 97.9 45.1 115.8 52.9 40.9 75.2 65.7 93.8 92.1zm-294.3-69.7c51.6-32.2 14.3-157.5 12.2-164.7-44.1 46.7-95 95.4-144.9 141 19.9 79.6 39.8 136.4 73 129.8 33.2-6.5 6.6-72.9 59.7-106.1zm-226 59.2c-78.3 67.7-138.8 115.7-141.9 116.9 0 0 46 39 120.2 79.2 59.7-33.2 154.9 10 168.1-43 13.3-53.1-106.1-79.6-146-152.6l-.4-.5zm272.4 139.9c-66.3 86.2-70.2 117.4-114.5 127 69 16.8 145.3 23.2 223.6 8 2.6-.5 24.1-26.3 51.2-60.1-66.2-33.2-93.9-161.2-160.3-74.9z" id="Layer_4"/>
    <g id="STROKES">
        <g id="XMLID_2_">
            <path class="st1" d="M936.8 1311.6s60.1 13.7 37.8-63.5c-22.3-77.3-134-13.7-96.3 72.1"/>
            <path class="st1" d="M219 1544.4c3.1-1.2 63.6-49.2 141.9-116.9 29.3-25.3 61.1-53.4 93.3-82.8 49.9-45.6 100.8-94.4 144.9-141 63.3-67 112.5-129.6 124.8-172.2"/>
            <path class="st1" d="M742.5 1702.3c2.6-.5 24.1-26.3 51.2-60.1 21.7-26.9 46.9-58.8 69-86.9 27-34.3 49.3-63 54.6-69.8.8-1 1.2-1.6 1.2-1.6"/>
            <path class="st1" d="M878.6 1435.2c.8.9 1.6 1.8 2.6 2.7 47 46.4 246.7 54.7 292.6.7"/>
            <path class="st1" d="M1122.3 1311.6s-60.1 13.7-37.8-63.5c22.3-77.3 134.1-13.7 96.3 72.1"/>
            <path class="st1" d="M1442.7 1052.9s-58.4 24.4-104.8-55.5"/>
            <path class="st1" d="M1542.2 924.8s-47.8 49.1-122.9-4.8"/>
            <path class="st1" d="M626.7 1052.9s51.2 21.4 95.7-41.4c3.1-4.3 6.1-9 9-14.1"/>
            <path class="st1" d="M527.2 924.8s43.3 46.2 118.3-7.7"/>
            <path class="st1" d="M742.3 1230.1c8.4 52.5 21.9 97.9 45.1 115.8 52.9 40.8 75.2 65.6 93.8 92 2.5 3.6 5 7.3 7.5 11 6.8 10.2 16.2 23.4 28.6 36.6 24.4 25.8 60.3 51 110.5 51 75.8 0 122.4-57.4 142.5-87.6 1.9-2.9 3.9-5.8 5.8-8.6 19-27.4 41-52.4 95.5-94.4 60.1-46.4 56-290.2 66.3-348.5"/>
            <path class="st1" d="M722.1 1009.7l.3 1.8c.9 5.4 1.6 12.1 2.3 19.8 4.2 45.8 6.3 128.5 17.5 198.7"/>
            <path class="st1" d="M1290.6 906.3c29.5-17.1 58.5-15.9 81.6-9.5 28.1 7.8 47.2 23.3 47.2 23.3l-29.2-104.8c82.4-1.7 139.1-36.1 183.8-147.7 44.6-111.7 127-178.6 127-178.6s-10.3-34.4-188.9 15.5c-178.6 49.8-228.4 211.2-228.4 211.2s-41.2-5.2-41.2-94.5V371.8c17.9-16.2 29.2-39.6 29.2-65.7 0-48.9-39.6-88.5-88.4-88.5-48.8 0-88.4 39.6-88.4 88.5 0 23.5 9.1 44.8 24 60.6v132.5c-9 36.1-169.6 36.1-178.6 0V366.8c14.9-15.8 24-37.1 24-60.6 0-48.9-39.6-88.5-88.4-88.5-48.9 0-88.5 39.6-88.5 88.5 0 26 11.3 49.5 29.2 65.7v249.4c0 89.3-41.2 94.5-41.2 94.5S725.6 554.2 547 504.4C368.4 454.6 358 489 358 489s82.4 67 127.1 178.6c44.7 111.6 101.3 146 183.8 147.7L639.7 920s29.6-24 69.2-27.2c18.4-1.5 38.9 1.5 59.6 13.5"/>
            <path class="st1" d="M708.9 892.8s-53 72 22.6 104.6"/>
            <path class="st1" d="M1371.7 899.4s41.9 65.3-33.7 98"/>
            <path class="st1" d="M361.3 1427.9c39.8 73 159.2 99.5 146 152.6-13.3 53.1-108.4 9.9-168.1 43"/>
            <path class="st1" d="M454.2 1344.6c19.9 79.6 39.8 136.4 73 129.8 33.2-6.6 6.6-73 59.7-106.2 51.6-32.2 14.3-157.5 12.2-164.7-.1-.2-.1-.3-.1-.3"/>
            <path class="st1" d="M793.7 1642.2c-66.3-33.2-94-161.2-160.4-74.9-66.3 86.2-70.2 117.4-114.5 127"/>
            <path class="st1" d="M862.7 1555.3c-33.2-53.1-129.8-67.7-176.3-114.1-46.4-46.4 26.5-86.2 33.2-126.1 6.6-39.4 22.4-84.2 22.7-85.1"/>
        </g>
    </g>
</svg>
