<svg xmlns="http://www.w3.org/2000/svg" viewBox="0 0 1920 1920">
    <style>
        .st0{fill:#fff}.st1{fill:none;stroke:#231f20;stroke-width:50;stroke-linecap:round;stroke-linejoin:round;stroke-miterlimit:10}
    </style>
    <g id="Layer_5">
        <path class="st0" d="M1313.6 337.7c-15.9-9.8-34.3-33.4-42.2-88.9 0 0 86.3 15.8 120.7 57.2l52.8 24c10.4 4.7 17 15 17 26.4v19.4l57.2 44.4 2.8 22.4c1.8 14.6-10.3 27.2-25 25.9l-52.5 7.4-24.2-24.2c-12.6-12.6-30.8-17.6-48.1-13.3-7.3 1.8-14 5.2-19.7 9.9a49.72 49.72 0 0 0-13.6 17.2l-51.1 108.3-1-.5c11.8-57.4-32.9-114.8-40.2-123.8 29.3-56.5 56.2-108.2 67.1-111.8zm-26.9 235.6c11.8-57.4-32.9-114.8-40.2-123.8-21.8 42.1-45 86.9-64 116.7-31 48.7-83.6 137.6-147.1 178.3l-32.1 167.2s-38.1-6.4-57.2-38.1c-19-31.8 7.8-82.9 14.2-108.3-4.2-.5-8.4-1.2-12.7-2.3 0 0-27.7 34.7-84.8 69.6l16.9 62.5c3.1 12 4.7 24.2 4.7 36.3 0 29.5-9.1 58.5-26.6 83-13.6 19-40 23.4-59 9.8l-31.4-22.4c-14-10-20.5-27.4-16.6-44.1l14.4-80.4c-14.5 4.8-30 9.1-46.3 12.7-22.2 5-40.5 12.4-55.5 21.6 0 0 30.1 60.9 11 80l-79.9 79.9c-.2 24 .8 43.6-2.6 53.4-3.4 9.7-5.9 22.9-8.3 38.1 1.2.3 74.8 22.7 74.8 74.9l54-43.7c-2-9.7-30.8-151.9-6.2-151.9 25.4 0 102.7 93.5 102.7 93.5l67-4.5 27.2-1.8c0-19.1.1-55.5 50.8-74.5 50.8-19.1 25.4-57.2 63.5-76.2s80.7-3.1 80.7-3.1l43.9-93.1s-73.8-37.2-42-81.6c31.8-44.5 57.2-69.9 57.2-108 0-38.1 75.3-53.7 81.6-15.6l49-103.9-1.1-.2z"/>
        <path class="st0" d="M1177.3 1488.7l-4 8.4-223.6-370.4 23.3-1.6 83.6 52c-.1 0 73.6 184.1 120.7 311.6zm-368.5-352.6l-26.5 1.8-70 56.6c.1.3.1.5.1.5L649 1353.7l48.8 113 21.1-119.3 156.9-215.8-67 4.5z"/>
        <path class="st0" d="M1290.4 1252.1l-94.4 197.3-.9-.4 12.7-177.8-145.2-90.3-6.1-3.8s-7.4-45.6 5.3-71 70.2-15.9 70.2-15.9c16.5 28.3 37.5 54 62.2 76.1l96.2 85.8z"/>
    </g>
    <path class="st0" d="M658.4 1238.2L531 1341.3c37.4-39.2 43.9-122.4 52.6-178.1 1.2.4 74.8 22.7 74.8 75zm204.3-405.5c-26.2 16-58.7 32-97.5 44.7l-14.4 80.4c-3.9 16.7 2.6 34.1 16.6 44.1l31.4 22.4c19 13.6 45.4 9.2 59-9.8 17.5-24.5 26.6-53.5 26.6-83 0-12.1-1.5-24.3-4.7-36.3l-17-62.5zm97.5-67.3c-6.4 25.4-33.2 76.5-14.2 108.3 19 31.8 57.2 38.1 57.2 38.1l32.1-167.2c-23.7 15.2-48.9 23.7-75.1 20.8zm196.9-72.1c0 38.1-25.4 63.5-57.2 108-31.8 44.5 42 81.6 42 81.6l96.8-205.2c-6.4-38.1-81.6-22.5-81.6 15.6zm-450.9 349.3c-24.5 0 4.2 142.2 6.2 151.9l70-56.6 26.5-1.8c-.1 0-77.3-93.5-102.7-93.5zm-105.7-36.9c-4.9 23-5.9 46-6 66l79.9-79.9c19-19-11-80-11-80-38.2 23.5-55.2 58.5-62.9 93.9zm493.1-20.3l4.5-9.5s-42.6-15.9-80.7 3.1-12.7 57.2-63.5 76.2c-50.7 19-50.8 55.4-50.8 74.5l46.6-3.1 23.3-1.6 83.6 52s-7.4-45.6 5.3-71 70.2-15.9 70.2-15.9c-18.8-32.1-31.9-67.5-38.4-104.6l-.1-.1z" id="Layer_6"/>
    <path class="st0" d="M406.5 864.7c111.9 46.6 58.1 140.9 58.1 140.9-99.5-41.4-58.1-140.9-58.1-140.9z" id="Layer_7"/>
    <g id="STROKES">
        <g id="XMLID_2_">
            <path class="st1" d="M1313.6 337.7c-10.9 3.6-37.8 55.3-67.1 111.9-21.8 42.1-45 86.9-64 116.7-31 48.7-83.6 137.6-147.1 178.3-23.7 15.2-48.9 23.7-75.1 20.8-4.2-.5-8.4-1.2-12.7-2.3 0 0-27.7 34.7-84.8 69.6-26.2 16-58.7 32-97.5 44.7-14.5 4.8-30 9.1-46.3 12.7-22.2 5-40.5 12.4-55.5 21.6-38.2 23.5-55.3 58.6-62.9 93.9-4.9 23-5.9 46-6 66-.2 24 .8 43.6-2.6 53.4-3.4 9.7-5.9 22.9-8.3 38.1-8.7 55.7-15.3 138.9-52.6 178.1-4.6 4.9-9.7 9-15.3 12.4l-44.5 266.7 63.5 82.6h38.1"/>
            <path class="st1" d="M1392 217v88.9l52.8 24c10.4 4.7 17 15 17 26.4v19.4l57.2 44.4 2.8 22.4c1.8 14.6-10.3 27.2-25 25.9l-52.5 7.4-24.2-24.2c-12.6-12.6-30.8-17.6-48.1-13.3-7.3 1.8-14 5.2-19.7 9.9a49.72 49.72 0 0 0-13.6 17.2l-51.1 108.3-49 103.9-96.8 205.2-43.9 93.1-4.5 9.5v.2c6.6 37.1 19.7 72.5 38.4 104.6 16.5 28.3 37.5 54 62.2 76.1l96.2 85.9-94.4 197.3-18.8 39.3-4 8.4-22.6 47.2-69.8 12.7-19.1 31.8"/>
            <path class="st1" d="M1195.2 1449l12.7-177.8-145.2-90.3-6.2-3.8-83.6-52-23.3 1.6-46.6 3.1-27.2 1.8-67 4.5-26.4 1.7-70 56.6-54 43.8L531 1341.3l-15.3 12.4"/>
            <path class="st1" d="M712.5 1195L649 1353.7l48.8 113 60.8 140.9c7.2 16.7 18.8 31.2 33.5 41.9l47.3 34.4h31.8"/>
            <path class="st1" d="M1056.5 1177.1s73.7 184.1 120.8 311.6c16.7 45.3 30.7 84.1 38 106.1 4.6 13.9 12.4 26.4 22.7 36.8l39.7 39.7h38.1"/>
            <path class="st1" d="M600.5 1005.7s-65.8 94-135.7 5.1"/>
            <path class="st1" d="M464.6 1005.7s53.9-94.3-58.1-140.9c0-.1-41.4 99.4 58.1 140.9z"/>
            <path class="st1" d="M1341.2 344s-12.7 2.8-27.6-6.4c-15.9-9.8-34.3-33.4-42.2-88.9 0 0 86.3 15.8 120.7 57.2"/>
            <path class="st1" d="M697.8 1466.7l21.1-119.3 156.9-215.8"/>
            <path class="st1" d="M949.6 1126.7l223.7 370.4"/>
            <path class="st1" d="M765.2 877.4l-14.4 80.4c-3.9 16.7 2.6 34.1 16.6 44.1l31.4 22.4c19 13.6 45.4 9.2 59-9.8 17.5-24.5 26.6-53.5 26.6-83 0-12.1-1.5-24.3-4.7-36.3l-16.9-62.5"/>
            <path class="st1" d="M808.8 1136.1s-77.3-93.5-102.7-93.5c-24.5 0 4.2 142.2 6.2 151.9.1.3.1.5.1.5"/>
            <path class="st1" d="M663.4 911.8s30.1 60.9 11 80l-79.9 79.9"/>
            <path class="st1" d="M583.6 1163.2c1.2.4 74.8 22.7 74.8 75"/>
            <path class="st1" d="M903 1129.9c0-.1 0-.1 0 0 0-19.2.1-55.6 50.8-74.6 50.8-19.1 25.4-57.2 63.5-76.2s80.7-3.1 80.7-3.1"/>
            <path class="st1" d="M1132 1090.2s-57.5-9.5-70.2 15.9c-12.7 25.4-5.3 71-5.3 71"/>
            <path class="st1" d="M960.2 765.4c-6.4 25.4-33.2 76.5-14.2 108.3 19 31.8 57.2 38.1 57.2 38.1l32.1-167.2"/>
            <path class="st1" d="M1141.9 882.8s-73.8-37.2-42-81.6c31.8-44.5 57.2-69.9 57.2-108 0-38.1 75.3-53.7 81.6-15.6"/>
            <path class="st1" d="M1286.7 573.3c11.8-57.4-32.9-114.8-40.2-123.8-.7-.8-1-1.2-1-1.2"/>
        </g>
    </g>
</svg>
