<svg xmlns="http://www.w3.org/2000/svg" viewBox="0 0 1920 1920">
    <style>
        .st0{fill:#fff}.st1{fill:none;stroke:#231f20;stroke-width:50;stroke-linecap:round;stroke-linejoin:round;stroke-miterlimit:10}
    </style>
    <path class="st0" d="M963 217c-49 0-88.7 23.5-88.7 35.7V534L906 676.3v708.1h20.6l31.1 313.9c.6 6.3 9.8 6.3 10.5 0l31.1-313.9h20.6V676.3l31.7-142.4V252.7c0-12.3-39.7-35.7-88.6-35.7z" id="Layer_7"/>
    <g id="STROKES">
        <path class="st1" d="M963 216.9c-49 0-88.7 23.5-88.7 35.7v281.3L906 676.3h113.9l31.7-142.4V252.7c0-12.3-39.7-35.8-88.6-35.8z"/>
        <path class="st1" d="M906 676.3h113.9v708.1H906z"/>
        <path class="st1" d="M874.3 533.9h177.3"/>
        <path class="st1" d="M999.3 1384.4h-72.7l31.1 313.9c.6 6.3 9.8 6.3 10.5 0l31.1-313.9z"/>
    </g>
</svg>
