<svg xmlns="http://www.w3.org/2000/svg" viewBox="0 0 1920 1920">
    <style>
        .st0{fill:#fff}.st1{fill:none;stroke:#231f20;stroke-width:50;stroke-linecap:round;stroke-linejoin:round;stroke-miterlimit:10}
    </style>
    <path class="st0" d="M1082.5 622.6c0 9.4-3.8 17.8-9.9 24-6.1 6.1-14.6 9.9-24 9.9H871.4c-18.7 0-33.9-15.2-33.9-33.9 0-9.4 3.8-17.8 9.9-24 6.1-6.1 14.6-9.9 24-9.9h29.4c-43.9-40.6-74-185.1-74-237.4 0-73.6 59.6-133.2 133.2-133.2s133.2 59.7 133.2 133.2c0 52.3-30.1 196.8-74 237.4h29.4c18.7.1 33.9 15.2 33.9 33.9z" id="Layer_5"/>
    <path class="st0" d="M1012.3 656.5v737.8c0 80.3-10.9 160.3-32.5 237.7l-19.8 71-19.8-71c-21.6-77.4-32.5-157.3-32.5-237.7V656.5h104.6z" id="Layer_6"/>
    <g id="STROKES">
        <path class="st1" d="M1093.2 351.3c0 52.3-30.2 196.8-74 237.4H900.8c-43.9-40.6-74-185.1-74-237.4 0-73.6 59.7-133.2 133.2-133.2s133.2 59.6 133.2 133.2z"/>
        <path class="st1" d="M1082.5 622.6c0 9.4-3.8 17.8-9.9 24-6.1 6.1-14.6 9.9-24 9.9H871.4c-18.7 0-33.9-15.2-33.9-33.9 0-9.4 3.8-17.8 9.9-24 6.1-6.1 14.6-9.9 24-9.9h177.2c18.7.1 33.9 15.2 33.9 33.9z"/>
        <path class="st1" d="M1012.3 656.5H907.7v737.8c0 80.3 10.9 160.3 32.5 237.7l19.8 71 19.8-71c21.6-77.4 32.5-157.3 32.5-237.7V656.5z"/>
    </g>
</svg>
