<svg xmlns="http://www.w3.org/2000/svg" viewBox="0 0 1920 1920">
    <style>
        .st0{fill:#fff}.st1{fill:none;stroke:#231f20;stroke-width:50;stroke-linecap:round;stroke-linejoin:round;stroke-miterlimit:10}
    </style>
    <path class="st0" d="M1151.8 535.5V728H768.2V535.5h108.2v-235c0-23.1 9.4-43.9 24.5-59s36-24.5 59-24.5c46.1 0 83.5 37.4 83.5 83.5v235h108.4z" id="Layer_2"/>
    <path class="st0" d="M1043.5 728v630.5c0 58.7-5.1 117.2-15.2 174.9-10.1 57.6-25.1 114.4-45 169.7h-46.7c-39.8-110.5-60.1-227.1-60.1-344.5V728h167z" id="Layer_4"/>
    <g id="STROKES">
        <path class="st1" d="M768.2 535.5h383.5v192.6H768.2z"/>
        <path class="st1" d="M1043.5 535.5h-167v-235c0-46.1 37.4-83.5 83.5-83.5s83.5 37.4 83.5 83.5v235z"/>
        <path class="st1" d="M936.6 1703.1c-39.8-110.5-60.1-227.1-60.1-344.5V728h167v630.5c0 117.5-20.3 234-60.1 344.5h-46.8z"/>
        <path class="st1" d="M876.5 893.6h54.4"/>
        <path class="st1" d="M876.5 1000.4h54.4"/>
        <path class="st1" d="M876.5 1107.1h54.4"/>
        <path class="st1" d="M876.5 1213.9h54.4"/>
    </g>
</svg>
