<svg xmlns="http://www.w3.org/2000/svg" viewBox="0 0 1920 1920">
    <style>
        .st0{fill:#fff}.st1{fill:none;stroke:#231f20;stroke-width:50;stroke-linecap:round;stroke-linejoin:round;stroke-miterlimit:10}
    </style>
    <path class="st0" d="M1474.3 930.6l-18.4 169.6c-3.4 31.1-14.3 61-31.7 87-58 86.4-191.6 292.9-196.1 369.2V1703h-84.5l31.5-121.7-316-91.1-148.2 66-.3.1-211-596.3s-50.8-214 41-286.2c0 0 11.7-230.4 144.5-261.7 0 0 31.2-173.6 160.1-195.2 0 0 33.2 11.6 27.3 81.9-5.9 70.3-31.2 251.9-31.2 251.9s46.9 210.9 58.6 216.8c8.7 4.4 21.8-124.4 27.9-190.5 2.4-25.5 8.6-50.4 18.5-74l82.8-196.4s30.9-41 79.8-23.4 52.7 72.2 41 105.5c-11.7 33.2-66.4 478.4-13.7 556.5 52.7 78.1 111.3 58.9 132.8 14.8 21.5-44.1 60.5-253 60.5-253s16.2-55.2 65.2-33.7c20 8.8 35 25.9 41.7 46.7l24.1 74.8c14.1 43.8 18.8 90.1 13.8 135.8z" id="Layer_7"/>
    <path class="st0" d="M859 1490.3l-148.2 66v146.8h432.7l31.5-121.7-316-91.1zm0 0l-148.2 66v146.8h432.7l31.5-121.7-316-91.1z" id="Layer_8"/>
    <g id="STROKES">
        <path class="st1" d="M499.6 960s-50.8-214 41-286.2c0 0 11.7-230.4 144.5-261.7 0 0 31.2-173.6 160.1-195.2 0 0 33.2 11.6 27.3 81.9-5.9 70.3-31.2 251.9-31.2 251.9s46.9 210.9 58.6 216.8c8.7 4.4 21.8-124.4 27.9-190.5 2.4-25.5 8.6-50.4 18.5-74l82.8-196.4s30.9-41 79.8-23.4 52.7 72.2 41 105.5c-11.7 33.2-66.4 478.4-13.7 556.5 52.7 78.1 111.3 58.9 132.8 14.8 21.5-44.1 60.5-253 60.5-253s16.2-55.2 65.2-33.7c20 8.8 35 25.9 41.7 46.7l24 74.8c14.1 43.8 18.8 90.1 13.8 135.8l-18.5 169.6c-3.4 31.1-14.3 61-31.7 87-58 86.4-191.5 292.9-196.1 369.2V1703h-84.5l31.5-121.7-316-91.1-148.5 66.1L499.6 960"/>
        <path class="st1" d="M710.8 1556.3V1703h432.7"/>
        <path class="st1" d="M685.1 412.1l-14.4 167c-2.1 23.8-.6 47.8 4.2 71.1l35.9 173.4"/>
        <path class="st1" d="M540.6 673.8l48.2 190.7"/>
    </g>
</svg>
