<svg xmlns="http://www.w3.org/2000/svg" viewBox="0 0 1920 1920">
    <style>
        .st0{fill:#fff}.st1{fill:none;stroke:#231f20;stroke-width:50;stroke-linecap:round;stroke-linejoin:round;stroke-miterlimit:10}
    </style>
    <path class="st0" d="M1068.2 1331.1v372H851.8v-372c0-31.6 25.6-57.3 57.3-57.3h101.8c31.6 0 57.3 25.6 57.3 57.3z" id="Layer_5"/>
    <path class="st0" d="M1363.5 266.6v856.5h-353.9v150.7h-99.3v-150.7H556.5V266.6c0-27.4 22.2-49.6 49.6-49.6 13.7 0 26.1 5.6 35.1 14.5 9 9 14.5 21.4 14.5 35.1v746.6h608.5V266.6c0-27.4 22.2-49.6 49.6-49.6 13.7 0 26.1 5.6 35.1 14.5s14.6 21.4 14.6 35.1z" id="Layer_6"/>
    <g id="STROKES">
        <path class="st1" d="M1363.5 266.6v856.5h-353.9v150.7h-99.3v-150.7H556.5V266.6c0-27.4 22.2-49.6 49.6-49.6 13.7 0 26.1 5.6 35.1 14.5 9 9 14.5 21.4 14.5 35.1v746.6h608.5V266.6c0-27.4 22.2-49.6 49.6-49.6 13.7 0 26.1 5.6 35.1 14.5s14.6 21.4 14.6 35.1z"/>
        <path class="st1" d="M1068.2 1703.1v-372c0-31.6-25.6-57.3-57.3-57.3H909.1c-31.6 0-57.3 25.7-57.3 57.3v372"/>
    </g>
</svg>
