<svg xmlns="http://www.w3.org/2000/svg" viewBox="0 0 1920 1920">
    <style>
        .st0{fill:#fff}.st1{fill:none;stroke:#231f20;stroke-width:50;stroke-linecap:round;stroke-linejoin:round;stroke-miterlimit:10}
    </style>
    <path class="st0" d="M954 818.5c10 2.2 226.2 3.1 298.3-106.6 0 0-238.6-38.5-274.1-215.9 0 0 120.3-82.8 354 56.2 0 0 189.9 170 328 87.2-1.1 2.3-135.9 300.4-188.9 353.5-53.2 53.2-147.9 68-147.9 68s-35.5 274.8-363.3 387.3c-328-112.4-363.4-387.2-363.4-387.2s-94.6-14.8-147.9-68c-53-53-187.9-351.2-188.9-353.5 138 82.8 328-87.2 328-87.2 217.8-129.6 337.1-66.4 352.3-57.2l-.9 1C903.7 673.5 667.1 712 667.1 712c72.2 109.7 276.5 108.8 286.5 106.6v-.1h.4z" id="Layer_2"/>
    <g id="STROKES">
        <g id="XMLID_1_">
            <path class="st1" d="M1660.2 639.5c-138.1 82.8-328-87.2-328-87.2-233.7-139-354-56.2-354-56.2 35.5 177.5 274.1 215.9 274.1 215.9C1180.2 821.7 964 820.8 954 818.5v-.1h-.4v.1c-10 2.2-214.3 3.1-286.5-106.6 0 0 236.6-38.5 272.1-215.9"/>
            <path class="st1" d="M959.5 1448.3v.1c.1 0 .1 0 .2-.1.1 0 .1 0 .2.1v-.1h.1c327.9-112.5 363.3-387.3 363.3-387.3s94.7-14.8 147.9-68c53-53 187.9-351.2 188.9-353.5"/>
            <path class="st1" d="M1091.2 654c0 49.7-265.6 49.7-265.6 0"/>
            <path class="st1" d="M259.9 639.5c138 82.8 328-87.2 328-87.2 217.8-129.6 337.1-66.4 352.3-57.2 1.1.7 1.7 1 1.7 1"/>
            <path class="st1" d="M960.1 1448.3c-.1 0-.1 0 0 0-328-112.5-363.4-387.3-363.4-387.3s-94.6-14.8-147.9-68c-53-53-187.9-351.2-188.9-353.5"/>
        </g>
    </g>
</svg>
