<svg xmlns="http://www.w3.org/2000/svg" viewBox="0 0 1920 1920">
    <style>
        .st0{fill:#fff}.st1{fill:none;stroke:#231f20;stroke-width:50;stroke-linecap:round;stroke-linejoin:round;stroke-miterlimit:10}
    </style>
    <path class="st0" d="M816.3 653.8c-77 13.7-294.3 41.1-308 160.9 3.4-95.8 37.6-200.2 213.9-248.1 109-29.6 151.3-56 167.6-71.8l.3-.4c1.3 1.2 63.7 60 139.8 0l.3.4c16.3 15.8 58.6 42.2 167.6 71.8 176.3 47.9 210.5 152.3 213.9 248.1-13.7-119.8-231-147.2-308-160.9-77-13.7-143.7 28-143.7 28s-66.7-41.7-143.7-28zm326.8 297.6c-44.5-1.7-85.3-44.3-169.9-42.3-85.6 2-125 39.7-172.4 42.5 0 0 128.2 98.6 168.2 158.6 47-62.6 168.6-154.6 173.9-158.6l.2-.2zm-172.8 303.1c-189.1 6.6-407-84.8-443.7-201 16.9 71.1 78.7 376.9 469.3 372.1 331.6 4.9 382.3-306.5 398-374.1-34.1 108.2-260.3 197.2-423.6 203z" id="Layer_4"/>
    <g id="STROKES">
        <g id="XMLID_1_">
            <path class="st1" d="M687.9 802.7c49.6 12 112.9-42.8 171.1-30.8 57.6 11.9 101.8 33.8 102.7 34.2"/>
            <path class="st1" d="M1235.5 802.7c-49.6 12-112.9-42.8-171.1-30.8-57.6 11.9-101.8 33.8-102.7 34.2"/>
            <path class="st1" d="M800.8 951.6c47.4-2.8 86.8-40.5 172.4-42.5 84.6-2 125.4 40.6 169.9 42.3 0 0-.1 0-.2.1-5.3 4-127 96-173.9 158.6-40-59.9-168.2-158.5-168.2-158.5z"/>
            <path class="st1" d="M960 681.8s-66.7-41.7-143.7-28c-77 13.7-294.3 41.1-308 160.9"/>
            <path class="st1" d="M960 681.8s66.7-41.7 143.7-28c77 13.7 294.3 41.1 308 160.9"/>
            <path class="st1" d="M1396.4 1042.3c-.7 3.1-1.5 6.1-2.4 9.2-34.1 108.2-260.4 197.3-423.7 203-189.1 6.6-407-84.8-443.7-201-1.2-3.7-2.2-7.4-3-11.2"/>
            <path class="st1" d="M1411.8 814.7c-3.4-95.8-37.7-200.2-213.9-248.1-109-29.6-151.3-56-167.6-71.8"/>
            <path class="st1" d="M523.6 1042.3c.8 2.5 1.8 6.3 3 11.2 16.9 71.1 78.7 376.9 469.3 372.1 331.6 4.9 382.3-306.5 398-374.1.9-3.9 1.7-7 2.4-9.2"/>
            <path class="st1" d="M889.8 494.8c-16.4 15.8-58.6 42.2-167.6 71.8-176.3 47.9-210.5 152.3-213.9 248.1"/>
            <path class="st1" d="M890.1 494.4c1.3 1.2 63.7 60 139.8 0"/>
            <path class="st1" d="M695.5 902.8s3 48.7 105.3 48.8"/>
            <path class="st1" d="M1245.9 902.8s-2.9 47.9-102.9 48.8h-2.4"/>
        </g>
    </g>
</svg>
