<svg xmlns="http://www.w3.org/2000/svg" viewBox="0 0 1920 1920">
    <style>
        .st0{fill:#fff}.st1{fill:none;stroke:#231f20;stroke-width:50;stroke-linecap:round;stroke-linejoin:round;stroke-miterlimit:10}
    </style>
    <path class="st0" d="M1276 455.2c-15.2 44-90.3 43.2-90.3 43.2s-21.1 25.5-73.2 29-59.5-31.7-50.1-82.2c2.6-13.7 11.1-24.5 22.2-32.9-23-16.1-59.8-9-78.5-3.8-3.6 1-6.6 2-8.6 2.6-2 .7-3.2 1.1-3.2 1.1s10.6 23.5 0 50.5-8.5 139.3-8.5 139.3l-8.5 17.9s-26.5 22.2-42.6-10.2c-16.1-32.5 22.1-117.8 22.1-117.8l-22.1-40.1 9.9-40.1c-9.2-6.5-10.9-19.2-9.4-32.4 1.1-9.9 3.9-20.1 6.7-28.3 3.3-9.6 6.4-16.3 6.4-16.3-28.2-133.1 115-117 115-117l26.2 34.3 53.9-4.6c0 53.6-40.8 46.4-40.8 46.4l12.8 38.4 3.2 35.2c6.1 5.6 26.6 12 44.1 16.6 14.6 3.9 27.1 6.5 27.1 6.5 79.8 16.7 86.2 64.7 86.2 64.7z" id="Layer_85"/>
    <path class="st0" d="M515 525.8c-11.6 7.9-26.9 7.4-38.2-1-17.1-12.8-39.5-36.4-32.9-69.1 10.4-51.2 66.3-52.9 66.3-52.9s29.6 11.2 33.3 64.7c2.2 30.5-14.1 48.5-28.5 58.3z" id="Layer_86"/>
    <path class="st0" d="M1221.7 1088.4l-12.8-1.6-86.6-18.9-10.1 18.5-16.7-3.1-143.9-26.9h-12.8L964.3 942c-2.7-74.3 29.1-126.4 29.1-126.4.2-.6.4-1.3.6-1.9 37.3-116.1-8.3-211.5-8.3-211.5s-2.1-112.3 8.5-139.3c10.6-27 0-50.5 0-50.5s1.1-.4 3.2-1.1c2-.7 5-1.6 8.6-2.6 18.7-5.2 55.5-12.4 78.5 3.8-11.1 8.4-19.6 19.2-22.2 32.9-9.4 50.5-2 85.7 50.1 82.2s73.2-29 73.2-29c47.2 45.6 32.8 69.6 18.4 156.7-13.2 80 5.9 199.6 9.1 218.8.3 1.7.4 2.7.4 2.7 13.8 44.5 8.2 211.6 8.2 211.6z" id="Layer_89"/>
    <path class="st0" d="M1173.7 1212.3c-7.2 16-10.4 84.8-10.4 84.8 9 47.1-13.3 241.5-18 292.4h-.4c-.7 7.8-1.1 12.2-1.1 12.2l8.7 64.2-15.1 37.2h-68.2l-10.3-39.6 25.1-62.6s-.1-6-.8-17.5h-.1c-1.5-23.1-.2-69.1-12.5-130.5-18.4-91.9 5.6-127.9-3.2-177.5-8.8-49.6 4-127.9 4-127.9l-90.8 121.6c-5.4 7.2-11.8 13.5-19.1 18.7-188.3 134.6-250.6 259.4-250.6 259.4l-.6 1.2c-4.4 8.1-30 55.2-32.1 59.6-2.4 4.8-2.4 70.9-3.8 85-1.4 14.1-47.8 0-47.8 0-36.6-25.3-29.5-105.5-29.5-105.5 5.6-43.6-9.9-57.7-9.9-57.7l8.4-77.4 40.8-4.2 45 18.3c.1-.2.2-.3.3-.5 32.3-47.7 70-103.6 70-103.6 45-123.8 121.5-117.5 154-153.4 32.4-35.9 46.1-152.9 46.1-152.9l143.9 26.9 16.7 3.1 10.1-18.5 86.6 18.9c-4.2 27.4-28.2 109.8-35.4 125.8z" id="Layer_93"/>
    <g id="STROKES">
        <path class="st1" d="M1162.6 383.9c-1.1.1-48.6 6-78 28.4-31.9-22.3-90.3 0-90.3 0s10.6 23.5 0 50.5-8.5 139.3-8.5 139.3l-8.5 17.9s-26.5 22.2-42.6-10.2C918.6 577.3 956.8 492 956.8 492l-22.1-40.1 9.9-40.1c-16.1-11.4-9.1-41.7-2.7-60.7l61.8-40.8s50.9-2.2 98.8-16.4l12.8 38.4 3.2 35.2c6.1 5.4 26.6 11.7 44.1 16.4z"/>
        <path class="st1" d="M941.9 350.9c3.3-9.6 6.4-16.3 6.4-16.3-28.2-133.1 115-117 115-117l26.2 34.3 53.9-4.6c0 53.6-40.8 46.4-40.8 46.4-48 14.1-98.8 16.4-98.8 16.4l-61.9 40.8z"/>
        <path class="st1" d="M1213.2 873.8c-29.3-17-65.9-35.9-102.6-49.4-43.6-16-86-15.2-116.4-10.9 37.3-116.1-8.3-211.5-8.3-211.5s-2.1-112.3 8.5-139.3c10.6-27 0-50.5 0-50.5s58.4-22.3 90.3 0c-11.1 8.4-19.6 19.2-22.2 32.9-9.4 50.5-2 85.7 50.1 82.2s73.2-29 73.2-29c47.2 45.6 32.8 69.6 18.4 156.7-13.3 80 5.8 199.6 9 218.8z"/>
        <path class="st1" d="M1095.6 1083.2c-2.1 15.3-24.2 64.3-24.2 64.3l-90.9 121.6c-5.4 7.2-11.8 13.5-19.1 18.7-188.3 134.6-250.6 259.4-250.6 259.4l-.6 1.2c-6.2-9.4-11.1-19.9-14.8-30.5-5.9-16.9-9.5-34.4-13.8-51.8 32.3-47.7 70-103.6 70-103.6 45-123.8 121.5-117.5 154-153.4 32.4-35.9 46.1-152.9 46.1-152.9l143.9 27z"/>
        <path class="st1" d="M710.2 1548.4c-4.4 8.1-30 55.2-32.1 59.6-2.4 4.8-2.3 70.9-3.8 85-1.4 14.1-47.8 0-47.8 0-36.6-25.3-29.5-105.5-29.5-105.5 5.6-43.6-9.9-57.7-9.9-57.7l8.4-77.4 40.8-4.2 45 18.3c.1-.2.2-.3.3-.5 4.3 17.4 7.9 34.9 13.8 51.8 3.7 10.7 8.6 21.2 14.8 30.6z"/>
        <path class="st1" d="M1152.5 1665.9l-15.1 37.2h-68.2l-10.3-39.6 25.1-62.6s-.1-6.1-.8-17.5c20 5.4 41 7.4 61.7 6-.7 7.8-1.1 12.3-1.1 12.3l8.7 64.2z"/>
        <path class="st1" d="M1221.7 1088.4l-12.8-1.6c-4 27.2-28 109.5-35.2 125.5-7.2 16-10.4 84.8-10.4 84.8 9 47.1-7.8 240.5-12.4 291.4-20.9 1.4-42-.6-62.2-6.1-1.5-23.1-5.8-68.1-18.1-129.5-18.4-91.9 5.6-127.9-3.2-177.5-8.8-49.6 4-127.9 4-127.9s22.1-49 24.2-64.3l-143.9-26.9h-12.8l25.5-114.4c-2.7-74.3 29.1-126.4 29.1-126.4.2-.6.4-1.3.6-1.9 30.5-4.3 72.8-5.1 116.4 10.9 36.8 13.5 73.3 32.4 102.6 49.4.3 1.7.5 2.6.5 2.6 13.7 44.8 8.1 211.9 8.1 211.9z"/>
        <path class="st1" d="M1276 455.2c-15.2 44-90.3 43.2-90.3 43.2s-21.1 25.5-73.2 29-59.5-31.7-50.1-82.2c2.6-13.7 11.1-24.5 22.2-32.9 29.4-22.4 76.9-28.2 78-28.4 14.6 3.9 27.1 6.5 27.1 6.5 79.9 16.8 86.3 64.8 86.3 64.8z"/>
        <path class="st1" d="M1162.6 993.6l-40.3 74.2-10 18.5-16.7-3.1"/>
        <path class="st1" d="M1122.3 1067.8l86.6 19"/>
        <path class="st1" d="M938.9 378.9l-428.6 23.9s-55.9 1.7-66.3 52.9c-6.6 32.7 15.8 56.3 32.9 69.1 11.2 8.4 26.5 8.9 38.2 1 14.4-9.8 30.7-27.7 28.6-58.3-3.7-53.5-33.3-64.7-33.3-64.7"/>
        <path class="st1" d="M985.7 322l20.4 86.5"/>
    </g>
</svg>
