<svg xmlns="http://www.w3.org/2000/svg" viewBox="0 0 1920 1920">
    <style>
        .st0{fill:#fff}.st1{fill:none;stroke:#231f20;stroke-width:50;stroke-linecap:round;stroke-linejoin:round;stroke-miterlimit:10}
    </style>
    <path class="st0" d="M1016.9 217.4h79V541h-79z" id="Layer_5"/>
    <path class="st0" d="M1065.9 1442.9l12 166.6s-166 113-208 90c-26-14.2-44.6-30.7-45.7-68.4-1-33.8 27.5-61.8 62.8-61.8h120.9c2-5.7 58-126.4 58-126.4z" id="Layer_6"/>
    <g id="STROKES">
        <g id="XMLID_1_">
            <path class="st1" d="M1065.9 1442.9l12 166.6s-166 113-208 90c-26-14.2-44.6-30.7-45.7-68.4-1-33.8 27.5-61.8 62.8-61.8h120.9c2-5.7 58-126.4 58-126.4z"/>
            <path class="st1" d="M1065.9 542.9v900"/>
            <path class="st1" d="M1016.9 217.4h79V541h-79z"/>
        </g>
    </g>
</svg>
