<svg xmlns="http://www.w3.org/2000/svg" viewBox="0 0 1920 1920">
    <style>
        .st0{fill:#fff}.st1{fill:none;stroke:#231f20;stroke-width:50;stroke-linecap:round;stroke-linejoin:round;stroke-miterlimit:10}
    </style>
    <path class="st0" d="M942.6 1193.7l3 291 .3 1.7c-124 22.7-394.5 45.9-564.3-22.7-211.5-85.5-121.5-438 129-439.5 167-1 324.9 99.6 432.1 169.4l-.1.1z" id="Layer_7"/>
    <path class="st0" d="M1423 858.1l.8.4c-81.8 157.5-161.9 311.8-196.2 378.6-82.5 160.5-174 213-220.5 234-9.2 4.1-30.8 9.7-61.2 15.2l-.3-1.7-3-291 .1-.1c53.6 34.9 94.4 62.1 117.4 65.1l248.6-468.2.2.1c.1.1 42.1 61.6 114.1 67.6zm86.6-445.9l-121.9 229.5-79 148.7.2.1s42 61.5 114 67.5l.8.4c114.7-220.9 232.8-447.8 232.8-447.8l-146.9 1.6z" id="Layer_8"/>
    <g id="STROKES">
        <g id="XMLID_1_">
            <path class="st1" d="M1656.6 410.7s-118.1 227-232.8 447.8c-81.8 157.5-161.9 311.8-196.2 378.6-82.5 160.5-174 213-220.5 234-9.2 4.1-30.8 9.7-61.2 15.2-124 22.7-394.5 45.9-564.3-22.7-211.5-85.5-121.5-438 129-439.5 167-1 324.9 99.6 432.1 169.4 53.6 34.9 94.4 62.1 117.4 65.1l248.6-468.2 79-148.7 121.9-229.5"/>
            <path class="st1" d="M1387 640.6s.2.4.7 1.1c5.7 8.5 43.7 61.9 109.9 67.5"/>
            <path class="st1" d="M1309 790.6s42 61.5 114 67.5"/>
            <path class="st1" d="M443.2 1034.7l-34.5 427.5"/>
            <path class="st1" d="M942.6 1193.7l3 291"/>
            <path class="st1" d="M429.2 1276.2h507.4"/>
            <path class="st1" d="M438.2 1195.2h504.4"/>
            <path class="st1" d="M422.2 1357.2h514.4"/>
            <path class="st1" d="M419.1 1438.2h331.5"/>
            <path class="st1" d="M443.2 1114.2h193.5"/>
        </g>
    </g>
</svg>
