<svg xmlns="http://www.w3.org/2000/svg" viewBox="0 0 1920 1920">
    <style>
        .st0{fill:#fff}.st1{fill:none;stroke:#231f20;stroke-width:50;stroke-linecap:round;stroke-linejoin:round;stroke-miterlimit:10}
    </style>
    <path class="st0" d="M731 1556.9s-35.8 127.3-113.4 143.2c-77.6 15.9-113.4-39.8-107.4-103.4 6-63.7 199-39.8 220.8-39.8z" id="Layer_2"/>
    <circle class="st0" cx="947.6" cy="1650" r="52.9" id="Layer_3"/>
    <path class="st0" d="M1410.4 245.4l-177 369.1-74.2-26.2 178.3-371.2z" id="Layer_4"/>
    <g id="STROKES">
        <g id="XMLID_1_">
            <path class="st1" d="M731 1556.9s-35.8 127.3-113.4 143.2c-77.6 15.9-113.4-39.8-107.4-103.4 6-63.7 199-39.8 220.8-39.8z"/>
            <path class="st1" d="M1195.2 605.3L731 1556.9"/>
            <circle class="st1" cx="947.6" cy="1650" r="52.9"/>
            <path class="st1" d="M1337.5 217.1l-178.3 371.2 74.2 26.2 177-369.1z"/>
        </g>
    </g>
</svg>
