<svg xmlns="http://www.w3.org/2000/svg" viewBox="0 0 1920 1920">
    <style>
        .st0{fill:#fff}.st1{fill:none;stroke:#231f20;stroke-width:50;stroke-linecap:round;stroke-linejoin:round;stroke-miterlimit:10}
    </style>
    <path class="st0" d="M959.3 627.2L215.6 892.5l376 101.6v168.1c0 56.5 164.6 102.3 367.7 102.3s367.7-45.8 367.7-102.3V994.1l136.4-36.9 239.7-64.8-743.8-265.2z" id="Layer_11"/>
    <path class="st0" d="M1520.7 1240.5c0-26.2-25.7-47.5-57.3-47.5-31.6 0-57.3 21.3-57.3 47.5s25.7 47.5 57.3 47.5c31.6 0 57.3-21.3 57.3-47.5zm8 114.2c0-63.7-57.3-66.7-57.3-66.7h-8s-14.3.8-28.7 9.5c-14.3 8.7-28.6 25.4-28.6 57.2 0 63.7 35.8 158.6 0 193.9 0 0 31.1 2.2 61.3-22 30.2 24.3 61.3 22 61.3 22-35.7-35.3 0-130.2 0-193.9z" id="Layer_13"/>
    <g id="STROKES">
        <path class="st1" d="M1327 994.1v-65.9c0-56.5-164.6-102.3-367.7-102.3-203 0-367.7 45.8-367.7 102.3v65.9l-376-101.6 743.7-265.3L1703 892.5l-376 101.6z"/>
        <path class="st1" d="M1327 928.1v234c0-46.1-109.4-85-259.9-97.9l-107.8 29.1-107.8-29.1C701 1077 591.6 1116 591.6 1162.1v-234c0-56.5 164.6-102.3 367.7-102.3S1327 871.6 1327 928.1z"/>
        <path class="st1" d="M1327 1162.1c0 56.5-164.6 102.3-367.7 102.3-203 0-367.7-45.8-367.7-102.3 0-46.1 109.4-85 259.9-97.9l107.8 29.1 107.8-29.1c150.5 12.9 259.9 51.9 259.9 97.9z"/>
        <ellipse class="st1" cx="1463.4" cy="1240.5" rx="57.3" ry="47.5"/>
        <path class="st1" d="M1528.7 1354.7c0-63.7-57.3-66.7-57.3-66.7h-8s-57.3 3-57.3 66.7 35.8 158.6 0 193.9c0 0 31.1 2.3 61.3-22 30.2 24.3 61.3 22 61.3 22-35.7-35.3 0-130.2 0-193.9z"/>
        <path class="st1" d="M1463.4 1193V957.2"/>
    </g>
</svg>
