<svg xmlns="http://www.w3.org/2000/svg" viewBox="0 0 1920 1920">
    <style>
        .st0{fill:#fff}.st1{fill:none;stroke:#231f20;stroke-width:50;stroke-linecap:round;stroke-linejoin:round;stroke-miterlimit:10}
    </style>
    <path class="st0" d="M1643.8 1165.3l-466.3-568.5L276.2 217l344.2 414.2c-66.3 17.2-125.7 51.3-173.6 97.4 0 0 463.9 316.3 539.9 571.4 77.4-71.8 125.8-174.4 125.8-288.2 0-29.5-3.2-58.1-9.4-85.7l396.6 175.6 144.1 63.6z" id="Layer_16"/>
    <path class="st0" d="M1503.3 1430.2h-7c-27 0-48.9 21.9-48.9 48.9V1703h104.7v-223.9c.1-27-21.8-48.9-48.8-48.9z" id="Layer_17"/>
    <g id="STROKES">
        <path class="st1" d="M1643.8 1165.3l-540.5-239.4C1064.2 750 907.2 618.5 719.6 618.5c-34.2 0-67.5 4.4-99.1 12.6L276.2 216.9l901.2 379.9 466.4 568.5z"/>
        <path class="st1" d="M1112.6 1011.7c0 113.9-48.4 216.5-125.8 288.2 28-125.1-27.3-287-153.5-413.2-117.4-117.4-265.7-173.4-386.5-158.1 47.8-46.1 107.3-80.2 173.6-97.4 31.7-8.2 64.9-12.6 99.1-12.6 187.6 0 344.6 131.5 383.7 307.4 6.2 27.5 9.4 56.2 9.4 85.7z"/>
        <path class="st1" d="M1499.8 1417.8v-316.2l-370.6-449.4-620.9-262.4"/>
        <path class="st1" d="M1552.2 1703.1h-104.7v-223.9c0-27 21.9-48.9 48.9-48.9h7c27 0 48.9 21.9 48.9 48.9v223.9z"/>
        <path class="st1" d="M446.8 728.6s463.9 316.3 539.9 571.4"/>
    </g>
</svg>
