<svg xmlns="http://www.w3.org/2000/svg" viewBox="0 0 1920 1920">
    <style>
        .st0{fill:#fff}.st1{fill:none;stroke:#231f20;stroke-width:50;stroke-linecap:round;stroke-linejoin:round;stroke-miterlimit:10}
    </style>
    <path class="st0" d="M1703.1 624.5L960 377.9 217 624.5v78.7l193 78.5 251 102c-60.8 70.5-97.8 162.6-98.5 263.5 42.2-33.7 98.3-54.3 159.8-54.3 104.7 0 193.5 59.4 225.2 142h24.8c31.7-82.5 120.6-142 225.2-142 61.5 0 117.6 20.5 159.8 54.3-.7-100.9-37.7-193-98.5-263.5l444-180.5v-78.7zM890.9 639c-.3-1.7-.5-3.4-.5-5.2 0-8.4 3.7-16.3 10.1-23-6.4 6.7-10.1 14.6-10.1 23 0 1.8.2 3.5.5 5.2zm110.7 30.3c17-8.1 28-21 28-35.5 0-8.4-3.7-16.3-10.1-23 6.4 6.7 10.1 14.6 10.1 23 0 14.5-11 27.4-28 35.5z" id="Layer_6"/>
    <path class="st0" d="M412.9 1202.3h-5.8c-31.8 0-57.5 25.8-57.5 57.5v60.2h120.9v-60.2c0-31.8-25.8-57.5-57.6-57.5z" id="Layer_7"/>
    <path class="st0" d="M349.6 1320.1h120.9v304.2H349.6z" id="Layer_8"/>
    <g id="STROKES">
        <path class="st1" d="M960 377.9L216.9 624.5l220.7 89.7L719 828.6l241 98 241-98 502-204.1-743-246.6zm0 300.2c-32.8 0-60.3-14.4-67.7-33.9-1.3-3.3-1.9-6.8-1.9-10.4 0-24.5 31.2-44.3 69.6-44.3s69.6 19.8 69.6 44.3c0 24.5-31.2 44.3-69.6 44.3z"/>
        <path class="st1" d="M1703.1 624.5v78.7L1259 883.7l-299 121.6-299-121.6-444.1-180.5v-78.7L719 828.6l241 98 241-98z"/>
        <path class="st1" d="M1357.5 1147.2c-42.2-33.7-98.3-54.3-159.8-54.3-104.7 0-193.5 59.4-225.2 142h-24.8c-31.7-82.5-120.6-142-225.2-142-61.5 0-117.6 20.5-159.8 54.3.7-100.9 37.7-193 98.5-263.5l299 121.6 299-121.6c60.6 70.5 97.6 162.6 98.3 263.5z"/>
        <path class="st1" d="M470.4 1624.3H349.6v-364.5c0-31.8 25.8-57.5 57.5-57.5h5.8c31.8 0 57.5 25.8 57.5 57.5v364.5z"/>
        <path class="st1" d="M470.5 1320.1H349.6"/>
        <path class="st1" d="M410 1202.3V718.5l482.3-74.3"/>
        <path class="st1" d="M1029.6 633.8c0 24.5-31.2 44.3-69.6 44.3-32.8 0-60.3-14.4-67.7-33.9-1.3-3.3-1.9-6.8-1.9-10.4 0-24.5 31.2-44.3 69.6-44.3s69.6 19.9 69.6 44.3z"/>
    </g>
</svg>
