<svg xmlns="http://www.w3.org/2000/svg" viewBox="0 0 1920 1920">
    <style>
        .st0{fill:#fff}.st1{fill:none;stroke:#231f20;stroke-width:50;stroke-linecap:round;stroke-linejoin:round;stroke-miterlimit:10}
    </style>
    <path class="st0" d="M1282.3 786.2c52.4 7.5 86.9 69.7 77 138.9-9.9 69.3-60.3 119.4-112.7 112-13.8-2-26.3-7.7-37.1-16.4-29.5-23.6-46.2-68.9-40.5-118.4.2-1.4.3-2.8.5-4.2 9.9-69.2 60.4-119.3 112.8-111.9zm-186.1-121.4c-15.5 68.2 13.8 133.1 65.4 144.8 51.6 11.7 106-34.1 121.5-102.4 15.5-68.2-13.8-133.1-65.4-144.8-51.6-11.7-106 34.1-121.5 102.4zm112.7 356.8c-23.2-18.8-50.8-26.9-77.1-19.8-9.4 2.5-18 6.9-25.6 12.6-33.8 25.5-48.7 79.6-33.8 134.7 18.2 67.6 74.5 111.1 125.6 97.3 51.1-13.8 77.7-79.8 59.5-147.3-9.1-32.7-26.8-59.9-48.6-77.5zm-178.2 222.6c-1.6 1.7-3.3 3.3-5.1 4.9-20.3 20.6-35.1 50.9-39.5 85.9-1.4 11-1.7 21.8-.9 32.2 2.9 42.4 22.5 78.5 51.3 95.5 1 .5 2 1.1 3 1.7 8 4.3 16.7 7.1 25.9 8.3 52.5 6.6 102.2-44.3 110.9-113.7 8.8-69.4-26.7-131.1-79.2-137.7-24-3.1-47.3 5.8-66.4 22.9zm-49.4-373.4c-31.7 62.4-19.1 132.4 28 156.4 29.5 15 65.5 8.4 96.1-13.8 18.4-13.3 34.8-32.4 46.8-55.8 9.2-18.2 14.7-37 16.7-55.2 4.8-44.1-11.3-84.2-44.7-101.2-47.3-23.9-111.2 7.2-142.9 69.6zm55.1 591.9c-5.8-3.1-11.9-5.4-18.4-6.9-24.1-5.5-48.9 1.6-70 17.8-2.5 2.4-5.2 4.6-7.9 6.6-20.3 18.5-36.2 45.7-43.5 78-15.5 68.2 13.8 133.1 65.4 144.8 51.6 11.7 106-34.1 121.5-102.4 13.2-58.1-6.1-113.8-44-136.2-1.1-.6-2.1-1.2-3.1-1.7zM903.6 660.3c-9.3 18.2-14.8 37.1-16.7 55.4-.1 3.9-.3 7.8-.8 11.6-1 39.4 15.1 74 45.5 89.5 47.2 24 111.1-7.2 142.8-69.6 31.7-62.4 19.1-132.4-28-156.4-47.2-24-111.1 7.1-142.8 69.5zm50.2 356.6c-52.6 6.1-88.7 67.4-80.6 136.9 8 69.5 57.2 120.9 109.8 114.9 16-1.8 30.5-8.8 42.6-19.6 1.7-1.7 3.4-3.3 5.1-4.9 24.6-25.3 38.2-67.1 32.9-112.5-8-69.5-57.2-120.9-109.8-114.8zm30 341.3c-8-69.5-57.2-120.9-109.8-114.9-52.6 6.1-88.7 67.4-80.6 136.9 8 69.5 57.2 120.9 109.8 114.8 13.5-1.6 26-6.8 36.9-14.9 2.6-2.4 5.2-4.6 7.9-6.6 24.8-23.3 39.3-62.8 36.6-106.4-.2-2.9-.5-5.9-.8-8.9zM780.2 874.4c-40 56.8-37.9 127.2 4.4 158 5.6 2.5 11 5.5 16.4 9 42.7 16.9 100.2-5.9 136-56.7 40.3-57.2 37.9-128.3-5.4-158.8s-111.1-8.7-151.4 48.5zm-24.6-302.7c-51.1 13.8-77.7 79.8-59.5 147.3s74.5 111.1 125.6 97.3c36-9.7 59.8-45.3 64.4-89.1.1-3.8.3-7.7.8-11.6.4-15-1.4-30.8-5.7-46.7-18.3-67.5-74.5-111-125.6-97.2zm45.4 469.8c-5.4-2.1-10.5-4.9-15.3-8.3-.4-.2-.7-.5-1-.8-25.7-11.7-53-12.9-76.1-.7-46.8 24.7-58.3 94.9-25.7 156.8 32.6 61.9 97 92.1 143.9 67.4 46.8-24.7 58.3-94.9 25.7-156.8-13.2-24.8-31.4-44.5-51.5-57.6zM575.8 848.3c-31.1 62.7-17.9 132.6 29.6 156.1 47.4 23.5 111.1-8.3 142.1-71 31.1-62.7 17.9-132.6-29.6-156.1-47.3-23.4-111 8.3-142.1 71z" id="Layer_3"/>
    <g id="STROKES">
        <g id="XMLID_1_">
            <path class="st1" d="M886.9 715.7c2-18.2 7.4-37.1 16.7-55.4 31.7-62.4 95.6-93.5 142.8-69.6 47.2 24 59.8 94 28 156.4-31.7 62.4-95.6 93.5-142.8 69.6-30.4-15.5-46.5-50.1-45.5-89.5.1-3.8.4-7.7.8-11.5z"/>
            <path class="st1" d="M1168.8 902.4c-2 18.2-7.4 37-16.7 55.2-11.9 23.4-28.3 42.5-46.8 55.8-30.6 22.2-66.6 28.7-96.1 13.8-47.2-24-59.7-94-28-156.4 31.7-62.4 95.6-93.5 142.8-69.6 33.5 17 49.6 57.1 44.8 101.2z"/>
            <path class="st1" d="M1025.6 1249.1c-12.2 10.8-26.6 17.7-42.6 19.6-52.6 6.1-101.7-45.3-109.8-114.9-8.1-69.5 28-130.8 80.6-136.9 52.6-6.1 101.7 45.3 109.8 114.8 5.2 45.3-8.3 87.2-32.9 112.5-1.6 1.7-3.3 3.3-5.1 4.9z"/>
            <path class="st1" d="M747.5 933.5c-31.1 62.7-94.7 94.5-142.1 71-47.4-23.5-60.7-93.4-29.6-156.1 31.1-62.7 94.7-94.5 142.1-71 47.5 23.5 60.7 93.4 29.6 156.1z"/>
            <path class="st1" d="M1208.9 1021.6c21.8 17.7 39.6 44.8 48.4 77.6 18.2 67.6-8.4 133.5-59.5 147.3-51.1 13.8-107.3-29.8-125.6-97.3-14.9-55.1.1-109.2 33.8-134.7 7.6-5.8 16.2-10.1 25.6-12.6 26.5-7.2 54.1.9 77.3 19.7z"/>
            <path class="st1" d="M886.1 727.2c-4.6 43.8-28.4 79.4-64.4 89.1-51.1 13.8-107.3-29.8-125.6-97.3s8.4-133.5 59.5-147.3c51.1-13.8 107.3 29.8 125.6 97.3 4.3 15.9 6.1 31.6 5.7 46.7-.1 3.9-.4 7.7-.8 11.5z"/>
            <path class="st1" d="M784.6 1032.4c-42.3-30.9-44.3-101.3-4.4-158 40.3-57.2 108-78.9 151.3-48.5s45.7 101.5 5.4 158.8c-35.8 50.8-93.2 73.6-136 56.7-5.4-2.1-10.5-4.9-15.3-8.3-.3-.2-.7-.4-1-.7z"/>
            <path class="st1" d="M1283.1 707.2c-15.5 68.2-69.9 114.1-121.5 102.4-51.6-11.7-80.9-76.5-65.4-144.8 15.5-68.2 69.9-114.1 121.5-102.4 51.6 11.7 80.9 76.5 65.4 144.8z"/>
            <path class="st1" d="M1039.4 1464.3c37.9 22.5 57.2 78.1 44 136.2-15.5 68.2-69.9 114.1-121.5 102.4-51.6-11.7-80.9-76.5-65.4-144.8 7.3-32.2 23.3-59.4 43.5-78 2.6-2.4 5.2-4.6 7.9-6.6 21.1-16.1 45.9-23.2 70-17.8 6.5 1.5 12.7 3.8 18.4 6.9 1.1.6 2.1 1.2 3.1 1.7z"/>
            <path class="st1" d="M1169 902.4c.2-1.4.3-2.8.5-4.2 9.8-69.3 60.3-119.4 112.7-112s86.9 69.7 77 138.9c-9.9 69.3-60.3 119.4-112.7 112-13.8-2-26.3-7.7-37.1-16.4-29.4-23.5-46.2-68.8-40.4-118.3z"/>
            <path class="st1" d="M801 1041.5c20.1 13.1 38.3 32.8 51.4 57.7 32.6 61.9 21.1 132.1-25.7 156.8-46.8 24.7-111.2-5.5-143.9-67.4-32.6-61.9-21.1-132.1 25.7-156.8 23.1-12.2 50.4-11 76.1.7 5.6 2.4 11 5.5 16.4 9z"/>
            <path class="st1" d="M940 1480.2c-10.9 8.1-23.3 13.3-36.9 14.9-52.6 6.1-101.7-45.3-109.8-114.8-8-69.5 28-130.8 80.6-136.9 52.6-6.1 101.7 45.3 109.8 114.9.4 3 .6 6 .8 9 2.7 43.6-11.9 83-36.6 106.4-2.5 2.2-5.1 4.5-7.9 6.5z"/>
            <path class="st1" d="M1030.7 1244.2c19.1-17.1 42.4-26 66.3-23 52.5 6.6 88 68.3 79.2 137.7-8.8 69.4-58.4 120.3-110.9 113.7-9.2-1.2-17.9-4-25.9-8.3-1-.5-2-1.1-3-1.7-28.8-17.1-48.4-53.1-51.3-95.5-.7-10.4-.5-21.2.9-32.2 4.4-35 19.2-65.3 39.5-85.9 1.7-1.6 3.5-3.3 5.2-4.8z"/>
            <path class="st1" d="M820.8 567.7l174.7-156.6 4.5-4 187.7 147.1"/>
            <path class="st1" d="M995.5 577.8V310.7l33.8-93"/>
        </g>
    </g>
</svg>
