<svg xmlns="http://www.w3.org/2000/svg" viewBox="0 0 1920 1920">
    <style>
        .st0{fill:#fff}.st1{fill:none;stroke:#231f20;stroke-width:50;stroke-linecap:round;stroke-linejoin:round;stroke-miterlimit:10}
    </style>
    <path class="st0" d="M1561.1 948.3c1-.3 70-24 107.4 29.8 37.7 54.2 29.6 132.9 29.6 132.9l-131.4 2.5L1630 1234l-75-3-71.5 111 .3 1.1-.6-.5-.3.7-.3-1.1-112.9-89-44.6 42.2-20.1-119.3-87.4 49.8s-73.7-59.1-64.7-124.5 82.2-75.2 82.2-75.2L1129.4 990s8.1-120.7 95.4-116.9c87.1 3.8 107.5 114 174.1 117 5.2-2.9 9.6-6.4 13.5-10.4 39.7-41 19.6-133.8 88.7-172.8 76.1-42.9 138 61 138 61l-78 80.4z" id="Layer_4"/>
    <path class="st0" d="M917.3 991.5c22.5 32.8 5.5 83.5-37.9 113.2-24.6 16.8-52.4 23.3-76 19.8-18-2.7-33.5-11.2-43.2-25.4-19.8-29-8.9-72 24-102.1 4.3-4 9-7.7 14-11.1 43.3-29.7 96.6-27.2 119.1 5.6zm-114.5 135.7c-25.8-5-57.3 3.4-83.6 24.7-1 .9-2.1 1.7-3.1 2.6-28.1 24.3-41.8 57.7-37.5 85.6 1.6 10.2 5.5 19.6 12 27.7 25.1 30.9 78.5 29 119.3-4.1s53.6-85 28.5-115.9c-8.8-11-21.3-17.8-35.6-20.6zM694.3 885c-14.5 5.3-27.2 13-37.5 22-2 2.1-4.1 4-6.2 5.9-20.7 21.2-29.5 48.5-20.6 72.5 13.8 37.3 64.9 52.8 114.2 34.6 15.4-5.7 28.8-13.9 39.5-23.8 23.7-21.7 34.4-51 24.9-76.7-13.9-37.2-65-52.7-114.3-34.5zm-64.8 155.7c-12.2 4.5-23.1 10.6-32.4 17.8-27.3 21.2-41.2 51.8-33.2 79.1l1.2 3.6c8.6 23.4 31.9 38.2 60.2 41.5 16.9 2 35.6-.1 54-6.9 14.1-5.2 26.5-12.6 36.8-21.3 25.6-21.9 37.5-52.5 27.7-79.1-13.8-37.4-64.9-52.9-114.3-34.7zM550 811.4c-10.4 19.7-14.8 40.5-13.7 59.4 1.4 25.7 12.9 47.7 33.2 58.3 24.8 13 56.1 5.6 81-16.2 2-2 4-4 6.2-5.9 7.9-8.1 15-17.7 20.8-28.7C702 831.8 693.3 779 658 760.5c-35.2-18.4-83.5 4.4-108 50.9zm95.5 378.3c-6.4-3.4-13.2-5.4-20.3-6.1-31.7-3.3-67.7 18.8-87.7 56.9-13.4 25.5-16.8 52.8-11.4 75.4 4.4 18.6 14.9 34 30.9 42.4 35.2 18.5 83.5-4.2 108-50.8 11.8-22.5 15.9-46.3 13-67.1-3.1-22.4-14.3-41.1-32.5-50.7zM516.9 940c-11.7 2.5-22.6 6.5-32.3 11.7-32.5 17.4-51.8 47.8-46 77.5 1.8 4.3 3.3 8.8 4.5 13.5 14.9 31.1 58.2 47.9 103.9 38.2 18.8-4 35.5-12 48.5-22.3 22.7-18 34.8-43.2 29.6-67.9-8.3-39-56.7-61.7-108.2-50.7zm22.9 167.1c-32.1-23.5-83.3-8.2-114.3 34.2-.5.7-.9 1.3-1.4 2-18.6 26.4-25 56.8-19.4 81.5 3.3 14.7 10.9 27.3 22.6 35.9 9.7 7.1 21.2 10.7 33.4 11 1.8-.1 3.7-.1 5.5-.1 26.5-1.4 55.2-17.5 75.5-45.2 20.9-28.5 27.4-62 19.6-88.1-3.8-12.6-11-23.5-21.5-31.2zm-7.6-252.4c-14.1-37.2-65.4-52.2-114.5-33.5-49.1 18.7-77.6 63.9-63.5 101.1 14.1 37.2 65.4 52.2 114.6 33.5 5.1-1.9 9.9-4.1 14.5-6.6 33.7-18 54.3-49.1 52.4-78.4-.3-5.4-1.5-10.8-3.5-16.1zm-17.9 438.1c-11.6-13.8-28.9-20.8-48.2-21.2-1.8.1-3.7.1-5.5.1-21.7 1-45.3 10.1-65.5 27.1-6.1 5.1-11.5 10.6-16.3 16.4-22 26.8-29.5 59.5-19.5 84.7 2.2 5.5 5.2 10.6 9 15.2 25.5 30.5 78.9 27.8 119.2-6 31.3-26.3 45.5-63.6 38.3-93.2-2-8.5-5.8-16.3-11.5-23.1zm-75.5-262.6c-.1-.3-.1-.7-.2-1-8.2-19.5-22.6-34.1-41.5-39.1-38.4-10.3-80.6 22.5-94.2 73.2-13.6 50.8 6.4 100.3 44.8 110.6 26.3 7.1 54.4-6.1 73.9-31.4 8.9-11.6 16.1-25.8 20.4-41.8 5.5-20.3 5.5-40.5 1.1-58-1.9-4-3.3-8.1-4.3-12.5zm-58.6 160.9c-32.1-23.5-83.3-8.2-114.3 34.2-31.1 42.4-30.3 95.8 1.8 119.3 8.8 6.4 18.9 9.9 29.7 10.8 2.5-.1 5 0 7.5.2 25.5-.8 53.3-15.3 73.7-40.7 1.2-1.5 2.3-3 3.5-4.5 20.2-27.5 26.9-59.7 20.4-85.3-3.7-13.8-11.1-25.8-22.3-34zm-72.1 165c-1.1-.2-2.1-.3-3.2-.4-2.5.1-5 0-7.5-.2-35.3 1.5-67.6 36.7-74.8 83.9-7.9 52 17.6 99 56.9 104.9s77.6-31.3 85.5-83.3c3.4-22 .7-43.2-6.5-60.7-9.8-23.8-27.8-40.8-50.4-44.2z" id="Layer_5"/>
    <g id="STROKES">
        <g id="XMLID_1_">
            <path class="st1" d="M783.5 996.3c-10.7 9.8-24.1 18.1-39.5 23.8-49.3 18.2-100.5 2.7-114.2-34.6-8.9-24.1 0-51.3 20.6-72.5 2-2 4-4 6.2-5.9 10.4-9.1 23.1-16.7 37.5-22 49.3-18.2 100.5-2.7 114.2 34.6 9.6 25.6-1.1 55-24.8 76.6z"/>
            <path class="st1" d="M716.1 1154.4c-10.2 8.8-22.7 16.1-36.8 21.3-18.4 6.8-37.1 8.9-54 6.9-28.3-3.3-51.6-18.2-60.2-41.5l-1.2-3.6c-8-27.2 5.8-57.9 33.2-79.1 9.3-7.2 20.3-13.3 32.4-17.8 49.3-18.2 100.5-2.7 114.2 34.6 9.9 26.7-2 57.3-27.6 79.2z"/>
            <path class="st1" d="M561.2 1138.4c7.8 26 1.3 59.6-19.6 88.1-20.2 27.6-49 43.8-75.5 45.2-1.8.1-3.7.1-5.5.1-12.1-.3-23.6-3.9-33.4-11-11.8-8.6-19.3-21.3-22.6-35.9-5.6-24.7.8-55.1 19.4-81.5.5-.7.9-1.3 1.4-2 31.1-42.4 82.3-57.7 114.3-34.2 10.6 7.6 17.8 18.5 21.5 31.2z"/>
            <path class="st1" d="M483.3 949.2c-4.6 2.5-9.5 4.7-14.5 6.6-49.2 18.7-100.4 3.7-114.6-33.5-14.1-37.2 14.3-82.4 63.5-101.1 49.1-18.7 100.4-3.7 114.5 33.5 2 5.2 3.1 10.7 3.5 16.1 2 29.3-18.6 60.4-52.4 78.4z"/>
            <path class="st1" d="M678 1240.3c2.9 20.8-1.2 44.7-13 67.1-24.5 46.5-72.8 69.3-108 50.8-15.9-8.4-26.4-23.7-30.9-42.4-5.4-22.6-2-49.9 11.4-75.4 20-38.1 56-60.2 87.7-56.9 7.1.7 13.9 2.7 20.3 6.1 18.2 9.7 29.4 28.4 32.5 50.7z"/>
            <path class="st1" d="M536.3 870.8c-1-18.9 3.4-39.7 13.7-59.4 24.5-46.5 72.8-69.3 108-50.8s43.9 71.2 19.5 117.8c-5.8 11-12.8 20.6-20.8 28.7-2 2.1-4.1 4-6.2 5.9-24.9 21.8-56.2 29.2-81 16.2-20.3-10.7-31.8-32.7-33.2-58.4z"/>
            <path class="st1" d="M595.5 1058.4c-13.1 10.4-29.7 18.3-48.5 22.3-45.7 9.7-89-7.1-103.9-38.2-1.9-3.9-3.3-8.1-4.2-12.4-.1-.3-.1-.7-.2-1-5.7-29.7 13.6-60.1 46-77.5 9.7-5.2 20.6-9.2 32.3-11.7 51.4-11 99.8 11.7 108.1 50.6 5.2 24.7-6.9 49.9-29.6 67.9z"/>
            <path class="st1" d="M784.1 997c4.3-4 9-7.7 14-11.1 43.4-29.7 96.8-27.2 119.2 5.7 22.5 32.8 5.5 83.5-37.9 113.2-24.6 16.8-52.4 23.3-76 19.8-18-2.7-33.5-11.2-43.2-25.4-19.9-29.2-8.9-72.2 23.9-102.2z"/>
            <path class="st1" d="M358.5 1400.3c7.2 17.5 9.8 38.7 6.5 60.7-7.9 52-46.2 89.3-85.5 83.3s-64.8-52.9-56.9-104.9c7.2-47.2 39.4-82.3 74.8-83.9 2.5-.1 5 0 7.5.2 1.1.1 2.1.2 3.2.4 22.6 3.4 40.6 20.4 50.4 44.2z"/>
            <path class="st1" d="M802.8 1127.2c14.3 2.8 26.8 9.6 35.7 20.6 25.1 30.9 12.3 82.8-28.5 115.9-40.8 33.1-94.2 35-119.3 4.1-6.5-8-10.5-17.5-12-27.7-4.3-27.9 9.4-61.3 37.5-85.6 1-.9 2-1.7 3.1-2.6 26.2-21.3 57.7-29.7 83.5-24.7z"/>
            <path class="st1" d="M443.1 1042.6c4.4 17.5 4.3 37.7-1.1 58-4.3 16-11.4 30.2-20.4 41.8-19.5 25.3-47.6 38.5-73.9 31.4-38.4-10.3-58.5-59.8-44.8-110.6 13.6-50.8 55.8-83.6 94.2-73.2 18.9 5.1 33.3 19.6 41.5 39.1 1.8 4.3 3.3 8.8 4.5 13.5z"/>
            <path class="st1" d="M402.4 1225.1c6.5 25.6-.2 57.8-20.4 85.3-1.1 1.5-2.3 3-3.5 4.5-20.4 25.4-48.2 40-73.7 40.7-2.5.1-5 0-7.5-.2-10.8-.9-20.9-4.4-29.7-10.8-32.1-23.5-32.9-76.9-1.8-119.3 31.1-42.4 82.3-57.7 114.3-34.2 11.3 8.2 18.7 20.2 22.3 34z"/>
            <path class="st1" d="M525.9 1315.9c7.2 29.6-7 67-38.3 93.2-40.3 33.8-93.7 36.4-119.2 6-3.9-4.6-6.9-9.7-9-15.2-10.1-25.2-2.5-57.9 19.5-84.7 4.8-5.8 10.2-11.3 16.3-16.4 20.3-17 43.9-26.1 65.5-27.1 1.8-.1 3.7-.1 5.5-.1 19.2.3 36.6 7.3 48.2 21.2 5.6 6.8 9.4 14.6 11.5 23.1z"/>
            <path class="st1" d="M696 791.7l176.2 3 4.6.1L905 971.7"/>
            <path class="st1" d="M787 886.6l85.2-91.8 51.3-55.3c67.3-92.8 47.9-143.6 201.5-176 153.6-32.4 202-167 202-167"/>
            <path class="st1" d="M1561.1 948.3L1639 868s-61.9-103.9-138-61c-69.2 39-49 131.8-88.7 172.8-3.9 4-8.3 7.5-13.5 10.4-66.5-3-87-113.3-174.1-117-87.3-3.8-95.4 116.9-95.4 116.9l105.9 36.3s-73.2 9.8-82.2 75.2 64.7 124.5 64.7 124.5l87.4-49.8 20.1 119.3 44.6-42.2 112.9 89 .3 1.1.3-.7.6.5-.3-1.1 71.5-111 75 3-63.3-120.5 131.4-2.5s8-78.6-29.6-132.9c-37.5-54-106.5-30.3-107.5-30 0 .1 0 .1 0 0"/>
            <path class="st1" d="M1459 1222s10-108-46.7-242.3c-12.8-30.2-28.9-61.8-49.3-93.7-111-174-119-297-74-420"/>
            <path class="st1" d="M981 633c-79.3 52.5-186.2 30.7-238.6-48.7-42-63.5-24.5-148.9 38.9-190.9 50.8-33.6 119.2-19.6 152.7 31.1 26.9 40.6 15.7 95.3-24.9 122.2-32.5 21.5-76.3 12.6-97.8-19.9-17.2-26-10-61 15.9-78.2"/>
        </g>
    </g>
</svg>
