<svg xmlns="http://www.w3.org/2000/svg" viewBox="0 0 1920 1920">
    <style>
        .st0{fill:#fff}.st1{fill:none;stroke:#231f20;stroke-width:50;stroke-linecap:round;stroke-linejoin:round;stroke-miterlimit:10}
    </style>
    <g id="STROKES">
        <path class="st1" d="M410.5 1035.9s-39.3-184.9-1.1-257.1"/>
        <path class="st1" d="M499 1035.9c3-9 18-154.3-6-271.3"/>
        <path class="st1" d="M589 737.5s-21 244.3 0 298.3"/>
        <path class="st1" d="M670 1035.9s30-198 6-288"/>
        <path class="st1" d="M763 795.8c0 39-3 225 15 240"/>
        <path class="st1" d="M835 1035.9c0-12 30-153 9-234"/>
        <path class="st1" d="M922 780.8s-12 237 9 255"/>
        <path class="st1" d="M1006 1035.9s39-156 15-258"/>
        <path class="st1" d="M1111 798.8c0 9-18 210 15 237"/>
        <path class="st1" d="M1201.1 762.8s24 219 0 273"/>
        <path class="st1" d="M1276.1 789.8c3 12 9 231 39 246"/>
        <path class="st1" d="M1372.1 818.5c-6 33-9 202.3 12 217.3"/>
        <path class="st1" d="M1444.1 1035.9s3-135-6-264"/>
        <path class="st1" d="M1511.5 1035.9c1.5-6 28.5-160.5 6-265.5"/>
        <path class="st1" d="M1604.5 773.4c1.5 4.5-9 252 0 262.5"/>
        <path class="st1" d="M303.5 1035.9c3-6 25.5-100.5 12-196.5"/>
        <path class="st1" d="M239 1035.9c0-4.5-10.5-129 15-222"/>
        <path class="st1" d="M1671.9 1035.9c0-6 37.5-147 3-196.5"/>
    </g>
</svg>
