<svg xmlns="http://www.w3.org/2000/svg" viewBox="0 0 1920 1920">
    <style>
        .st0{fill:#fff}.st1{fill:none;stroke:#231f20;stroke-width:50;stroke-linecap:round;stroke-linejoin:round;stroke-miterlimit:10}
    </style>
    <g id="Layer_2">
        <path class="st0" d="M1432.6 1341.9s82.8-108.5 95.5-227.6c0 0 73 254 15.9 446l-252.1-1.1v-2.7s22.3-160.2-20.8-364.2c0 0 50.9-300.9 203.3-477.1 0 0-49.2 356.7-41.8 626.7z"/>
        <path class="st0" d="M1056.7 1327.5c83.7-134.7 127.9-248.3 149.2-340.7l.9.2c30 70.4 50.5 140.1 64.2 205.4 43.1 204 20.8 364.2 20.8 364.2v2.7l-412.7-1.8v-2.1c-21.2-49.6-37.9-132.5-50.9-228.8l1.4-.2s211.5-706.3 92.4-966.7c0 0 147.3 166.1 153.3 627.5 1.4 99.3-3.9 212.3-18.6 340.3z"/>
        <path class="st0" d="M1191.9 688.3s59.7 100.2 14.1 298.5c-21.3 92.4-65.4 206-149.2 340.7 14.7-128 19.9-241 18.6-340.3 0 0 143.4-102.1 116.5-298.9z"/>
        <path class="st0" d="M879.2 1555.3v2.1l-182.5-.8v-1.3s-18.6-260.2-3.1-511.5c10.1-164.3 34.8-324.8 88.8-406.4 0 0 7.1 403.4 45.9 689.1 13 96.3 29.7 179.2 50.9 228.8z"/>
        <path class="st0" d="M696.6 1555.3v1.3l-154-.7v-.7c5.2-40.7 9.3-79.9 12.3-117.6C598.9 891.4 426.7 658 426.7 658c233.3 98.4 266.7 385.7 266.7 385.7h.1c-15.5 251.4 3.1 511.6 3.1 511.6z"/>
        <path class="st0" d="M552.2 1437.5l2.8.2c-3 37.7-7.1 76.9-12.3 117.6v.7l-150.8-.7s-82.5-306.7-3.2-460.7c0 0 76.2 252.4 163.5 342.9z"/>
    </g>
    <g id="STROKES">
        <path class="st1" d="M696.6 1555.3s-50.8-711.5 85.7-917.8c0 0 12.7 721 96.8 917.8"/>
        <path class="st1" d="M829.6 1326.4s211.5-706.3 92.4-966.7c0 0 261.9 295.2 101.6 1192.1"/>
        <path class="st1" d="M693.4 1043.8s-33.3-287.3-266.7-385.7c0 0 196.8 266.7 115.9 897.2"/>
        <path class="st1" d="M1082.3 988.3s136.5-103.2 109.5-300c0 0 137.3 203.2-126.2 627"/>
        <path class="st1" d="M1291.9 1556.5s46-269.8-77.8-560.3"/>
        <path class="st1" d="M1179.2 1110.5s14.3 350.8-46 447.6"/>
        <path class="st1" d="M552.2 1437.5c-87.3-90.5-163.5-342.9-163.5-342.9-79.4 154 3.2 460.7 3.2 460.7"/>
        <path class="st1" d="M1277.6 1177.2s44.4-285.7 196.8-461.9c0 0-84.1 609.5-15.9 838.1"/>
        <path class="st1" d="M1543.9 1560.3c57.1-192.1-15.9-446-15.9-446-12.7 119-90.5 220.6-90.5 220.6"/>
    </g>
</svg>
