<svg xmlns="http://www.w3.org/2000/svg" viewBox="0 0 1920 1920">
    <style>
        .st0{fill:#fff}.st1{fill:none;stroke:#231f20;stroke-width:50;stroke-linecap:round;stroke-linejoin:round;stroke-miterlimit:10}
    </style>
    <path class="st0" d="M1635.9 306.8l3 57-135 150-53.5 28.4-491.6 510.6-87.7 91.1c-4-20.9-14.1-40.8-30.3-57s-36.1-26.3-57-30.3l156.6-151 439.9-424.1 33.5-57.6 150-135 57 3 15.1 14.9z" id="Layer_4"/>
    <path class="st0" d="M1028.3 1151.4c22 93.3-39 150-124.5 190.5s-85.5 262.5-190.5 328.5-351 57-472.5-211.5c-127.5-281.8 231-396 306-405s79.5-160.5 208.5-220.5 185.1 72.2 185.1 72.2l-156.6 151c-34.8-6.7-72.1 3.4-99 30.3-43.1 43.1-43.1 112.9 0 156s112.9 43.1 156 0c26.9-26.9 37-64.3 30.3-99l87.7-91.1s57.5 47.6 69.5 98.6z" id="Layer_5"/>
    <path class="st0" d="M871.1 1143.9c6.7 34.8-3.4 72.1-30.3 99-43.1 43.1-112.9 43.1-156 0s-43.1-112.9 0-156c26.9-26.9 64.3-37 99-30.3 20.9 4 40.8 14.1 57 30.3s26.3 36.1 30.3 57z" id="Layer_6"/>
    <g id="STROKES">
        <g id="XMLID_1_">
            <path class="st1" d="M871.1 1143.9l87.7-91.1 491.6-510.6 53.5-28.4 135-150-3-57-15-15-57-3-150 135-33.6 57.7-439.9 424.1-156.6 151"/>
            <path class="st1" d="M871.1 1143.9c6.7 34.8-3.4 72.1-30.3 99-43.1 43.1-112.9 43.1-156 0s-43.1-112.9 0-156c26.9-26.9 64.3-37 99-30.3 20.9 4 40.8 14.1 57 30.3s26.3 36.1 30.3 57z"/>
            <path class="st1" d="M940.4 905.6s-56.1-132.2-185.1-72.2c-129 60-133.5 211.5-208.5 220.5s-433.5 123.2-306 405c121.5 268.5 367.5 277.5 472.5 211.5s105-288 190.5-328.5 146.5-97.2 124.5-190.5c-12-51-69.5-98.6-69.5-98.6"/>
            <path class="st1" d="M438.8 1263.9l228 228"/>
            <path class="st1" d="M1706.4 401.3l-15.9 17.8"/>
            <path class="st1" d="M1631.6 492.4l-15.9 17.8"/>
            <path class="st1" d="M1549.5 579.2l-15.9 17.8"/>
            <path class="st1" d="M1343.9 399.4l17-16.7"/>
            <path class="st1" d="M1424.5 313.4l16.9-16.8"/>
            <path class="st1" d="M1512 232.1l17-16.8"/>
        </g>
    </g>
</svg>
