<svg xmlns="http://www.w3.org/2000/svg" viewBox="0 0 1920 1920">
    <style>
        .st0{fill:#fff}.st1{fill:none;stroke:#231f20;stroke-width:50;stroke-linecap:round;stroke-linejoin:round;stroke-miterlimit:10}
    </style>
    <path class="st0" d="M1048.9 265.9s-44.9 101.2-.5 166.5c0 0-44.7 27.3-46.7 123.5-1.6 76.8 3.7 447.5 5.9 593.3.6 36.7.9 59.1.9 59.1s-61.9 23.9-94.4-2c0 0 .8-36.1 1.9-91.6 3.6-180.4 10.7-565.5 6.8-581.3-5.1-20.6-35.9-44.7-35.9-44.7s28.1-230 84.8-264.2c56.8-34.2 77.2 41.4 77.2 41.4z" id="Layer_7"/>
    <path class="st0" d="M1028.4 1491.6l-149.4-.4-.2 82.4 149.4.4.2-82.4zM728.1 1441c34.6-92.6 82.8-140.5 40.1-212.8-42.7-72.2-61.2-202.8.7-236.9 61.9-34.2 30.8 55 47.8 99.7 17 44.7 99.4 23.7 99.4 23.7-1.1 55.5-1.9 91.6-1.9 91.6 32.6 25.8 94.4 2 94.4 2s-.4-22.4-.9-59.1c0 0 48 20.6 73.1 14.7 42.9-10.2 62-61.6 62-61.6 85.6 92.9-58.8 149.2 26.6 319.4s54.2 278.3-220.5 282.7c-274.7 4.3-255.4-170.8-220.8-263.4z" id="Layer_8"/>
    <path class="st0" d="M1028.4 1491.6l-.2 82.4-149.4-.4.2-82.4z" id="Layer_2"/>
    <g id="STROKES">
        <g id="XMLID_1_">
            <path class="st1" d="M916 1114.7c3.6-180.4 10.7-565.5 6.8-581.3-5.1-20.6-35.9-44.7-35.9-44.7s28.1-230 84.8-264.2c56.8-34.2 77.1 41.4 77.1 41.4s-44.9 101.2-.5 166.5c0 0-44.7 27.3-46.7 123.5-1.6 76.8 3.7 447.5 5.9 593.3.6 36.7.9 59.1.9 59.1s-61.9 23.9-94.4-2c.2 0 .9-36.1 2-91.6z"/>
            <path class="st1" d="M916 1114.7s-82.4 21-99.4-23.7 14.1-133.9-47.8-99.7-43.4 164.7-.7 236.9c42.7 72.2-5.5 120.2-40.1 212.8-34.6 92.6-54 267.7 220.7 263.3 274.7-4.4 305.9-112.5 220.5-282.7-85.4-170.2 59-226.4-26.6-319.4 0 0-19 51.4-62 61.6-25.1 5.9-73.1-14.7-73.1-14.7"/>
            <path class="st1" d="M1028.2 1574l-149.4-.4.2-82.4 149.4.4z"/>
            <path class="st1" d="M1028.4 1491.6l46.5-66.8.4-120.2"/>
            <path class="st1" d="M922.4 1321.4l65.3.2"/>
            <path class="st1" d="M917.1 1395.2l77.2 17.4"/>
            <path class="st1" d="M805.1 469.5l2.5-25.6"/>
            <path class="st1" d="M821 356l5.7-25.1"/>
            <path class="st1" d="M854.4 248.8l10.4-23.5"/>
        </g>
    </g>
</svg>
