<svg xmlns="http://www.w3.org/2000/svg" viewBox="0 0 1920 1920">
    <style>
        .st0{fill:#fff}.st1{fill:none;stroke:#231f20;stroke-width:50;stroke-linecap:round;stroke-linejoin:round;stroke-miterlimit:10}
    </style>
    <path class="st0" d="M1015.7 258.2l56.8 82.9-59.2 142.1v770h-97.1v-770l-40.3-18.9z" id="Layer_3"/>
    <path class="st0" d="M1013.3 1082.8c96 191.7 235.8 612.2 236.8 615.5-64-92.4-286.6-258.1-286.6-258.1-52.1 19-293.7 260.5-293.7 260.5 8.7-71.3 164.3-413.4 246.3-590.1v142.7h97.1v-170.5zm68.7 350.7c0-.3-.2-.5-.5-.5s-.5.2-.5.5.2.5.5.5.5-.2.5-.5zm-41-62c0-.3-.2-.5-.5-.5s-.5.2-.5.5.2.5.5.5.5-.2.5-.5z" id="Layer_9"/>
    <g id="STROKES">
        <g id="XMLID_1_">
            <path class="st1" d="M1250.1 1698.3c-1.1-3.3-140.8-423.8-236.9-615.5"/>
            <path class="st1" d="M916.2 1110.5c-82 176.7-237.6 518.8-246.3 590.1 0 0 241.6-241.6 293.7-260.5 0 0 222.6 165.8 286.6 258.1"/>
            <path class="st1" d="M1013.3 1082.8V483.2l59.2-142.1-56.8-82.9-139.8 206.1 40.3 18.9v770h97.1z"/>
            <path class="st1" d="M818 395.8l-28.3-20"/>
            <path class="st1" d="M854.3 342.8l-28.3-20"/>
            <path class="st1" d="M894.1 291.2l-28.3-20"/>
            <path class="st1" d="M936.6 239.4l-28.4-20"/>
            <path class="st1" d="M920.1 703.3h86.9"/>
            <path class="st1" d="M920.1 827.6h86.9"/>
            <path class="st1" d="M920.1 930.1h86.9"/>
            <path class="st1" d="M920.1 1023.3h86.9"/>
            <path class="st1" d="M920.1 1135.1h86.9"/>
            <path class="st1" d="M920.1 537.1h86.9"/>
            <path class="st1" d="M1041 1371.5c0 .3-.2.5-.5.5s-.5-.2-.5-.5.2-.5.5-.5.5.2.5.5z"/>
            <path class="st1" d="M1082 1433.5c0 .3-.2.5-.5.5s-.5-.2-.5-.5.2-.5.5-.5.5.2.5.5z"/>
        </g>
    </g>
</svg>
