<svg xmlns="http://www.w3.org/2000/svg" viewBox="0 0 1920 1920">
    <style>
        .st0{fill:#fff}.st1{fill:none;stroke:#231f20;stroke-width:50;stroke-linecap:round;stroke-linejoin:round;stroke-miterlimit:10}
    </style>
    <path class="st0" d="M960 217c-153.9 0-278.6 190.6-278.6 425.7 0 148.2 49.6 278.8 124.8 355v.1c2.7 3.2 111.8 135.8 111.8 241.9 0 107.5-41.9 244.2-41.9 345.9 0 50 20.3 81.5 40.9 100.6 24.3 22.5 61.7 22.5 86 0 20.6-19.1 40.9-50.6 40.9-100.6 0-101.7-41.9-238.4-41.9-345.9 0-106.1 109.1-238.7 111.8-241.9v-.1c75.2-76.2 124.8-206.8 124.8-355 0-235.1-124.7-425.7-278.6-425.7zm174.5 594.7c-35.2 98-100.2 163.7-174.5 163.7-111.9 0-202.6-149-202.6-332.7S848.1 310 960 310c24 0 47.1 6.9 68.4 19.5 37.1 21.9 69.1 61 92.6 111.4 11.3 24.3 20.6 51.1 27.5 80 6.6 27.6 11 57 13 87.7.7 11.2 1.1 22.6 1.1 34.2 0 21-1.2 41.6-3.5 61.6-4.4 38.4-12.8 74.6-24.6 107.3z" id="Layer_7"/>
    <path class="st0" d="M1161.5 608.5c-1.9-30.6-6.3-60.1-13-87.7-6.9-28.8-16.2-55.7-27.5-80-23.5-50.5-55.5-89.6-92.6-111.4C1007.1 316.8 984 310 960 310c-111.9 0-202.6 149-202.6 332.7S848.1 975.4 960 975.4c74.3 0 139.3-65.7 174.5-163.7 11.7-32.6 20.2-68.9 24.6-107.4 2.3-20 3.5-40.5 3.5-61.6 0-11.6-.4-22.9-1.1-34.2z" id="Layer_8"/>
    <g id="STROKES">
        <path class="st1" d="M1238.6 642.7c0 148.2-49.6 278.8-124.8 355v.1c-44.1 44.6-96.9 70.6-153.8 70.6s-109.7-26-153.8-70.6v-.1c-75.2-76.2-124.8-206.8-124.8-355C681.4 407.6 806.1 217 960 217s278.6 190.6 278.6 425.7z"/>
        <path class="st1" d="M1002 1239.7c0 107.5 41.9 244.2 41.9 345.9 0 50-20.3 81.5-40.9 100.5-24.3 22.5-61.7 22.5-86 0-20.6-19.1-40.9-50.6-40.9-100.5 0-101.7 41.9-238.4 41.9-345.9 0-106.1-109.1-238.7-111.8-241.9 44.1 44.6 96.9 70.6 153.8 70.6s109.7-26 153.8-70.6c-2.7 3.2-111.8 135.7-111.8 241.9z"/>
        <ellipse class="st1" cx="960" cy="642.7" rx="202.6" ry="332.7"/>
        <path class="st1" d="M785.6 488.2L897 429.5"/>
        <path class="st1" d="M785.6 582.7L897 524"/>
        <path class="st1" d="M785.6 677.1L897 618.5"/>
        <path class="st1" d="M785.6 771.6L897 712.9"/>
        <path class="st1" d="M805.8 855.5l91.2-48.1"/>
        <path class="st1" d="M934.9 378.7l111.4-58.6"/>
        <path class="st1" d="M934.9 473.2l111.4-58.7"/>
        <path class="st1" d="M934.9 567.7l111.4-58.7"/>
        <path class="st1" d="M934.9 662.1l111.4-58.6"/>
        <path class="st1" d="M934.9 756.6l111.4-58.7"/>
        <path class="st1" d="M934.9 851.1l111.4-58.7"/>
        <g>
            <path class="st1" d="M1084.4 365.7l60.9-32.1"/>
            <path class="st1" d="M1084.4 460.2l78.2-41.2"/>
            <path class="st1" d="M1084.4 554.7l111.4-58.7"/>
            <path class="st1" d="M1084.4 649.1l111.4-58.6"/>
            <path class="st1" d="M1084.4 743.6l111.4-58.7"/>
            <path class="st1" d="M1084.4 838.1l111.4-58.7"/>
        </g>
    </g>
</svg>
