<svg xmlns="http://www.w3.org/2000/svg" viewBox="0 0 1920 1920">
    <style>
        .st0{fill:#fff}.st1{fill:none;stroke:#231f20;stroke-width:50;stroke-linecap:round;stroke-linejoin:round;stroke-miterlimit:10}
    </style>
    <path class="st0" d="M1368.4 1466.8h127c0 128.8-104.4 233.2-233.2 233.2h-624c-64.4 0-122.7-26.1-164.9-68.3-42.2-42.2-68.3-100.5-68.3-164.9h963.4zM638.2 563.2C509.4 563.2 405 667.5 405 796.3h91.1c1.7-.1 3.3-.1 5-.1h898.2c1.7 0 3.3 0 5 .1h91.1c0-64.4-26.1-122.7-68.3-164.9-42.2-42.2-100.5-68.3-164.9-68.3h-624zM1351 711c-.3 0-.5-.2-.5-.5s.2-.5.5-.5.5.2.5.5-.2.5-.5.5zm-106.5-59.5c-.3 0-.5-.2-.5-.5s.2-.5.5-.5.5.2.5.5-.2.5-.5.5zM1127 643c-.3 0-.5-.2-.5-.5s.2-.5.5-.5.5.2.5.5-.2.5-.5.5zm-68 74c-.3 0-.5-.2-.5-.5s.2-.5.5-.5.5.2.5.5-.2.5-.5.5zm-92.5-79.5c-.3 0-.5-.2-.5-.5s.2-.5.5-.5.5.2.5.5-.2.5-.5.5zm-72 66c-.3 0-.5-.2-.5-.5s.2-.5.5-.5.5.2.5.5-.2.5-.5.5zm-150-46c-.3 0-.5-.2-.5-.5s.2-.5.5-.5.5.2.5.5-.2.5-.5.5zM643 706c-.3 0-.5-.2-.5-.5s.2-.5.5-.5.5.2.5.5-.2.5-.5.5zm-46-66c-.3 0-.5-.2-.5-.5s.2-.5.5-.5.5.2.5.5-.2.5-.5.5zm-72 80c-.3 0-.5-.2-.5-.5s.2-.5.5-.5.5.2.5.5-.2.5-.5.5z" id="Layer_3"/>
    <path class="st0" d="M1404.3 796.3c48.1 2.6 86.3 42.4 86.3 91.1 0 25.2-10.2 48-26.7 64.5s-39.3 26.7-64.5 26.7H501.1c-50.4 0-91.3-40.9-91.3-91.3 0-25.2 10.2-48 26.7-64.5 15.4-15.4 36.3-25.3 59.5-26.6h908.3z" id="Layer_8"/>
    <path class="st0" d="M1471.5 1426.3c-22.6 20.7-50.5 33.3-79.6 37.7h-47c-29.5-4.4-57.7-17.2-80.5-38.4l-1.7-.9c-57.5-53.6-150.5-53.6-207.9 0l-1.1.9c-22.7 21.2-51 34-80.5 38.4h-47c-29.5-4.4-57.7-17.2-80.5-38.4l-1.2-.9c-57.5-53.6-150.5-53.6-207.9 0l-.6.9c-22.7 21.2-51 34-80.5 38.4h-47c-29.4-4.4-57.7-17.2-80.5-38.4l-.9.7c-10.9-15-17.3-33.5-17.3-53.5 0-25.2 10.2-48 26.7-64.5 14.7-14.7 34.4-24.4 56.2-26.3h914.7c46.5 4.2 83 43.3 83 90.9 0 20.5-6.8 39.4-18.1 54.6l-.8-1.2z" id="Layer_9"/>
    <path class="st0" d="M517.1 1099.3h970.1c-83.6 19.4-327.2 81.4-340.2 148.5-.1-.1-120.6-118.9-629.9-148.5z" id="Layer_10"/>
    <path class="st0" d="M1490.6 1099.3v182.5h-83c-2.7-.2-5.5-.4-8.3-.4H501.1c-2.8 0-5.6.1-8.3.4h-83v-182.5H517c509.4 29.7 629.9 148.5 629.9 148.5 13.1-67.1 256.7-129.1 340.2-148.5h3.5z" id="Layer_11"/>
    <path class="st0" d="M1225.1 440.8H960v-153h262.1l-75 75z" id="Layer_12"/>
    <g id="STROKES">
        <g id="XMLID_1_">
            <path class="st1" d="M1472.4 1427.3c-2.6 3.5-5.5 6.8-8.6 9.9-16.5 16.5-39.3 26.7-64.5 26.7H501.1c-30.4 0-57.4-14.9-74-37.8-10.9-15-17.3-33.5-17.3-53.5 0-25.2 10.2-48 26.7-64.5 14.7-14.7 34.4-24.4 56.2-26.3 2.7-.2 5.5-.4 8.3-.4h898.2c2.8 0 5.6.1 8.3.4 46.5 4.2 83 43.3 83 90.9.1 20.5-6.7 39.4-18.1 54.6z"/>
            <path class="st1" d="M1404.3 796.3c48.1 2.6 86.3 42.4 86.3 91.1 0 25.2-10.2 48-26.7 64.5s-39.3 26.7-64.5 26.7H501.1c-50.4 0-91.3-40.9-91.3-91.3 0-25.2 10.2-48 26.7-64.5 15.4-15.4 36.3-25.3 59.5-26.6 1.7-.1 3.3-.1 5-.1h898.2c1.8.1 3.4.2 5.1.2z"/>
            <path class="st1" d="M1487.2 1099.3h3.4v182.5H409.9v-182.5h107.2z"/>
            <path class="st1" d="M397.7 1028.9c60.9 60.9 159.4 60.9 220.3 0"/>
            <path class="st1" d="M840.2 1028.9c60.9 60.9 159.4 60.9 220.3 0"/>
            <path class="st1" d="M1283.8 1028.9c60.9 60.9 159.4 60.9 220.3 0"/>
            <path class="st1" d="M839 1027.9c-60.9-60.9-159.4-60.9-220.3 0"/>
            <path class="st1" d="M1282 1027.9c-60.9-60.9-159.4-60.9-220.3 0"/>
            <path class="st1" d="M428.1 1425.5c22.7 21.2 51 34 80.5 38.4 7.8 1.2 15.6 1.8 23.5 1.8s15.7-.6 23.5-1.8c29.5-4.4 57.7-17.2 80.5-38.4"/>
            <path class="st1" d="M845.8 1425.5c22.7 21.2 51 34 80.5 38.4 7.8 1.2 15.6 1.8 23.5 1.8s15.7-.6 23.5-1.8c29.5-4.4 57.7-17.2 80.5-38.4"/>
            <path class="st1" d="M1264.4 1425.5c22.7 21.2 51 34 80.5 38.4 7.8 1.2 15.6 1.8 23.5 1.8s15.7-.6 23.5-1.8c29.1-4.4 57-16.9 79.6-37.7.3-.2.6-.5.8-.8"/>
            <path class="st1" d="M844.6 1424.6c-57.5-53.6-150.5-53.6-207.9 0"/>
            <path class="st1" d="M1262.8 1424.6c-57.5-53.6-150.5-53.6-207.9 0"/>
            <path class="st1" d="M532 1466.8H405c0 64.4 26.1 122.7 68.3 164.9 42.2 42.2 100.5 68.3 164.9 68.3h624c128.8 0 233.2-104.4 233.2-233.2H532z"/>
            <path class="st1" d="M1404.3 796.3h91.1c0-64.4-26.1-122.7-68.3-164.9-42.2-42.2-100.5-68.3-164.9-68.3h-624C509.4 563.2 405 667.5 405 796.3h999.3z"/>
            <path class="st1" d="M413.9 1093H1515s-10.5 2.2-27.9 6.2c-83.6 19.4-327.2 81.4-340.2 148.5 0 0-120.5-118.8-629.9-148.5-32.8-1.9-67.2-3.4-103.2-4.6-2.1-.1-4.2-.1-6.3-.2"/>
            <path class="st1" d="M960 563.8V218.7"/>
            <path class="st1" d="M960 287.8h262.1l-75 75 78 78H960"/>
            <circle class="st1" cx="525" cy="719.5" r=".5"/>
            <circle class="st1" cx="894.5" cy="703" r=".5"/>
            <circle class="st1" cx="1244.5" cy="651" r=".5"/>
            <circle class="st1" cx="1127" cy="642.5" r=".5"/>
            <circle class="st1" cx="643" cy="705.5" r=".5"/>
            <circle class="st1" cx="597" cy="639.5" r=".5"/>
            <circle class="st1" cx="744.5" cy="657" r=".5"/>
            <circle class="st1" cx="1059" cy="716.5" r=".5"/>
            <circle class="st1" cx="1351" cy="710.5" r=".5"/>
            <circle class="st1" cx="966.5" cy="637" r=".5"/>
        </g>
    </g>
</svg>
