<svg xmlns="http://www.w3.org/2000/svg" viewBox="0 0 1920 1920">
    <style>
        .st0{fill:#fff}.st1{fill:none;stroke:#231f20;stroke-width:50;stroke-linecap:round;stroke-linejoin:round;stroke-miterlimit:10}
    </style>
    <path class="st0" d="M1528 1249.5h174c0 67.9-27.5 129.4-72.1 174-44.5 44.5-106 72.1-173.9 72.1H464c-135.9 0-246-110.1-246-246h174c3.3.2 6.7.3 10 .3h1116c3.4-.1 6.7-.2 10-.4zm-194-825H586c-101.6 0-193.6 41.2-260.2 107.8S218 690.9 218 792.5h1484c0-203.2-164.8-368-368-368zM1521.5 670c-.3 0-.5-.2-.5-.5s.2-.5.5-.5.5.2.5.5-.2.5-.5.5zm-84.5-95.5c-.3 0-.5-.2-.5-.5s.2-.5.5-.5.5.2.5.5-.2.5-.5.5zM1316.5 686c-.3 0-.5-.2-.5-.5s.2-.5.5-.5.5.2.5.5-.2.5-.5.5zm-116-154c-.3 0-.5-.2-.5-.5s.2-.5.5-.5.5.2.5.5-.2.5-.5.5zM1149 637.5c-.3 0-.5-.2-.5-.5s.2-.5.5-.5.5.2.5.5-.2.5-.5.5zm-172-121c-.3 0-.5-.2-.5-.5s.2-.5.5-.5.5.2.5.5-.2.5-.5.5zm-136 156c-.3 0-.5-.2-.5-.5s.2-.5.5-.5.5.2.5.5-.2.5-.5.5zM766.5 550c-.3 0-.5-.2-.5-.5s.2-.5.5-.5.5.2.5.5-.2.5-.5.5zm-102 102c-.3 0-.5-.2-.5-.5s.2-.5.5-.5.5.2.5.5-.2.5-.5.5zm-128 38c-.3 0-.5-.2-.5-.5s.2-.5.5-.5.5.2.5.5-.2.5-.5.5zm-3-139.5c-.3 0-.5-.2-.5-.5s.2-.5.5-.5.5.2.5.5-.2.5-.5.5zM372.5 686c-.3 0-.5-.2-.5-.5s.2-.5.5-.5.5.2.5.5-.2.5-.5.5z" id="Layer_6"/>
    <path class="st0" d="M1656.1 806.1c8 8 12.9 19 12.9 31.1 0 24.3-19.7 44-44 44h-112v43c0 20.2-8.2 38.4-21.4 51.6s-31.5 21.4-51.6 21.4-38.4-8.2-51.6-21.4-21.4-31.5-21.4-51.6c0-23.8-19.2-43-43-43h-46c-23.8 0-43 19.3-43 43v109c0 19.3-7.8 36.8-20.5 49.5-12.7 12.7-30.2 20.5-49.5 20.5-38.7 0-70-31.3-70-70v-109c0-23.8-19.2-43-43-43H889c-5 0-9.5 2-12.7 5.3-3.2 3.3-5.3 7.8-5.3 12.7 0 11-4.5 21-11.7 28.3-7.2 7.2-17.2 11.7-28.3 11.7s-21-4.5-28.3-11.7c-7.2-7.2-11.7-17.2-11.7-28.3 0-10-8.1-18-18-18h-95c-23.8 0-43 19.3-43 43v51c0 16-6.5 30.5-17 41s-25 17-41 17c-32 0-58-26-58-58v-51c0-23.8-19.2-43-43-43H295c-12.1 0-23.1-4.9-31.1-12.9s-12.9-19-12.9-31.1c0-24.3 19.7-44 44-44h1330c12.2 0 23.2 5 31.1 12.9z" id="Layer_7"/>
    <path class="st0" d="M1518 881.8c101.6 0 184 82.4 184 184 0 50.8-20.6 96.8-53.9 130.1-31.1 31.1-73.3 51.1-120.1 53.6H392c-97-5.2-174-85.5-174-183.7 0-50.8 20.6-96.8 53.9-130.1s79.3-53.9 130.1-53.9v-.5h74c23.8 0 43 19.3 43 43v51c0 32 26 58 58 58 16 0 30.5-6.5 41-17s17-25 17-41v-51c0-23.8 19.2-43 43-43h95c9.9 0 18 8.1 18 18 0 11 4.5 21 11.7 28.3 7.2 7.2 17.2 11.7 28.3 11.7s21-4.5 28.3-11.7c7.2-7.2 11.7-17.2 11.7-28.3 0-5 2-9.5 5.3-12.7 3.3-3.2 7.8-5.3 12.7-5.3h163c23.8 0 43 19.3 43 43v109c0 38.7 31.3 70 70 70 19.3 0 36.8-7.8 49.5-20.5 12.7-12.7 20.5-30.2 20.5-49.5v-109c0-23.8 19.2-43 43-43h46c23.8 0 43 19.3 43 43 0 20.2 8.2 38.4 21.4 51.6s31.5 21.4 51.6 21.4 38.4-8.2 51.6-21.4 21.4-31.5 21.4-51.6v-43h5v.5z" id="Layer_2"/>
    <g id="STROKES">
        <g id="XMLID_1_">
            <path class="st1" d="M1528 1249.5h174c0 67.9-27.5 129.4-72.1 174-44.5 44.5-106 72.1-173.9 72.1H464c-135.9 0-246-110.1-246-246h1310z"/>
            <path class="st1" d="M1702 792.5H218c0-101.6 41.2-193.6 107.8-260.2S484.4 424.5 586 424.5h748c203.2 0 368 164.8 368 368z"/>
            <path class="st1" d="M534 550c0 .3-.2.5-.5.5s-.5-.2-.5-.5.2-.5.5-.5.5.2.5.5z"/>
            <path class="st1" d="M767 549.5c0 .3-.2.5-.5.5s-.5-.2-.5-.5.2-.5.5-.5.5.2.5.5z"/>
            <path class="st1" d="M1149.5 637c0 .3-.2.5-.5.5s-.5-.2-.5-.5.2-.5.5-.5.5.2.5.5z"/>
            <path class="st1" d="M665 651.5c0 .3-.2.5-.5.5s-.5-.2-.5-.5.2-.5.5-.5.5.2.5.5z"/>
            <path class="st1" d="M537 689.5c0 .3-.2.5-.5.5s-.5-.2-.5-.5.2-.5.5-.5.5.2.5.5z"/>
            <path class="st1" d="M977.5 516c0 .3-.2.5-.5.5s-.5-.2-.5-.5.2-.5.5-.5.5.2.5.5z"/>
            <path class="st1" d="M841.5 672c0 .3-.2.5-.5.5s-.5-.2-.5-.5.2-.5.5-.5.5.2.5.5z"/>
            <path class="st1" d="M1522 669.5c0 .3-.2.5-.5.5s-.5-.2-.5-.5.2-.5.5-.5.5.2.5.5z"/>
            <path class="st1" d="M1317 685.5c0 .3-.2.5-.5.5s-.5-.2-.5-.5.2-.5.5-.5.5.2.5.5z"/>
            <path class="st1" d="M1201 531.5c0 .3-.2.5-.5.5s-.5-.2-.5-.5.2-.5.5-.5.5.2.5.5z"/>
            <path class="st1" d="M373 685.5c0 .3-.2.5-.5.5s-.5-.2-.5-.5.2-.5.5-.5.5.2.5.5z"/>
            <path class="st1" d="M1437.5 574c0 .3-.2.5-.5.5s-.5-.2-.5-.5.2-.5.5-.5.5.2.5.5z"/>
            <path class="st1" d="M1518 881.8c101.6 0 184 82.4 184 184 0 50.8-20.6 96.8-53.9 130.1-31.1 31.1-73.3 51.1-120.1 53.6-3.3.2-6.7.3-10 .3H402c-3.4 0-6.7-.1-10-.3-97-5.2-174-85.5-174-183.7 0-50.8 20.6-96.8 53.9-130.1s79.3-53.9 130.1-53.9"/>
            <path class="st1" d="M1518 881.2h107c24.3 0 44-19.7 44-44 0-12.2-4.9-23.2-12.9-31.1-8-8-19-12.9-31.1-12.9H295c-24.3 0-44 19.7-44 44 0 12.2 4.9 23.2 12.9 31.1 8 8 19 12.9 31.1 12.9h181c23.8 0 43 19.3 43 43v51c0 32 26 58 58 58 16 0 30.5-6.5 41-17s17-25 17-41v-51c0-23.8 19.2-43 43-43h95c9.9 0 18 8.1 18 18 0 11 4.5 21 11.7 28.3 7.2 7.2 17.2 11.7 28.3 11.7s21-4.5 28.3-11.7c7.2-7.2 11.7-17.2 11.7-28.3 0-5 2-9.5 5.3-12.7 3.3-3.2 7.8-5.3 12.7-5.3h163c23.8 0 43 19.3 43 43v109c0 38.7 31.3 70 70 70 19.3 0 36.8-7.8 49.5-20.5 12.7-12.7 20.5-30.2 20.5-49.5v-109c0-23.8 19.2-43 43-43h46c23.8 0 43 19.3 43 43 0 20.2 8.2 38.4 21.4 51.6s31.5 21.4 51.6 21.4 38.4-8.2 51.6-21.4 21.4-31.5 21.4-51.6v-43h5z"/>
        </g>
    </g>
</svg>
