<svg xmlns="http://www.w3.org/2000/svg" viewBox="0 0 1920 1920">
    <style>
        .st0{fill:#fff}.st1{fill:none;stroke:#231f20;stroke-width:50;stroke-linecap:round;stroke-linejoin:round;stroke-miterlimit:10}
    </style>
    <path class="st0" d="M1047.6 216.9v79.8L879.5 304v-87.1h168.1zm-134.5 861.4h100.7c-3-6.7 5.8-358.6 15.3-439.9l-136.4-3.9c10.2 77.3 20.4 443.8 20.4 443.8z" id="Layer_6"/>
    <path class="st0" d="M1383.8 282.2v366.3l-354.7-10.1-136.4-3.9-353.9-107.9-2.6-127.9L879.5 304l168.1-7.3z" id="Layer_7"/>
    <path class="st0" d="M1067.5 1078.3l27.7 624.8H831.8l30.9-624.8h151.1z" id="Layer_2"/>
    <g id="STROKES">
        <g id="XMLID_1_">
            <path class="st1" d="M1013.8 1078.3c-3-6.7 5.8-358.6 15.3-439.9"/>
            <path class="st1" d="M892.7 634.5c10.2 77.3 20.4 443.8 20.4 443.8"/>
            <path class="st1" d="M1013.8 1078.3H862.7l-30.9 624.8h263.4l-27.7-624.8z"/>
            <path class="st1" d="M1047.6 296.7v-79.8H879.5V304"/>
            <path class="st1" d="M1047.6 296.7L879.5 304l-343.3 94.7 2.6 127.9 353.9 107.9 136.4 3.9 354.7 10.1V282.2z"/>
        </g>
    </g>
</svg>
