<svg xmlns="http://www.w3.org/2000/svg" viewBox="0 0 1920 1920">
    <style>
        .st0{fill:#fff}.st1{fill:none;stroke:#231f20;stroke-width:50;stroke-linecap:round;stroke-linejoin:round;stroke-miterlimit:10}
    </style>
    <path class="st0" d="M799.3 410.9l149.3 418.3 10.2-531.9c0-22.7 6.7-42.7 19-56.9 12.3-14.2 30.4-22.8 53.1-22.8 45.4 0 67 39.4 67 84.8l13.2 547.3 146.3-442.1c10.7-36.8 33.2-64 66.2-64 6.1 0 12.6.9 19.4 2.9 43.6 12.7 50.9 58.2 38.2 101.8l-123.1 485.3 269-288.5c19-23.1 39.1-39.1 60.6-39.1 11.2 0 22.8 4.3 34.8 14.2 35.1 28.8 20 69.5-8.8 104.7L1501 884.7c-62.6 88.8-111.6 186.3-145.4 289.5-42.5 129.7-53.7 298.7-64.9 334.3-18.7 59.4-20.4 194.1-20.4 194.1l-451.4-5.7c17-302.1-147.5-327.6-203.5-405.6s-171.4-207-212.1-237.6c-40.7-30.5-117.1-18.7-117.1-18.7-13.6-25.5-33.9-96.7 118.8-123.9 148.1-26.3 249.9 153.2 319.4 159.4 2.2.2 4.3.2 6.4.1 33.2-2.4 45.5-67.2 49.4-134.1 4.3-76.3-2.4-62.6-20.2-136.9l-84.5-351.3c-4-13.8-6.4-27.8-6.4-40.9 0-28.3 11.1-52.4 41-61 43.5-12.7 76.5 20.9 89.2 64.5z" id="Layer_5"/>
    <g id="STROKES">
        <g id="XMLID_1_">
            <g id="XMLID_2_">
                <path class="st1" d="M1270.4 1702.5s1.7-134.7 20.4-194.1c11.2-35.6 22.4-204.6 64.9-334.3 33.8-103.2 82.8-200.8 145.4-289.5l112.7-159.8c28.8-35.1 43.9-75.8 8.8-104.7-12-9.9-23.6-14.2-34.8-14.2-21.5 0-41.6 16-60.6 39.1l-269 288.5 123.1-485.3c12.7-43.6 5.4-89.2-38.2-101.8-6.8-2-13.3-2.9-19.4-2.9-33 0-55.5 27.2-66.2 64l-146.3 442.1-13.2-547.3c0-45.5-21.6-84.8-67-84.8-22.7 0-40.8 8.6-53.1 22.8-12.4 14.3-19 34.2-19 56.9l-10.2 531.9-149.4-418.2c-12.7-43.6-45.7-77.2-89.3-64.5-29.8 8.7-41 32.7-41 61 0 13.1 2.4 27.1 6.4 40.9l84.5 351.3c17.9 74.3 24.6 60.6 20.2 136.9-3.8 67-16.1 131.7-49.4 134.1-2.1.1-4.2.1-6.4-.1-69.3-6.1-171.1-185.7-319.3-159.3-152.7 27.2-132.4 98.4-118.8 123.9 0 0 76.4-11.9 117.1 18.7 40.7 30.5 156.1 159.5 212.1 237.6s220.5 103.5 203.5 405.6"/>
                <path class="st1" d="M723.8 1070.1c.2.2.4.3.6.5 75.4 61.3 394.6 5.6 450.4 149"/>
            </g>
        </g>
    </g>
</svg>
