<svg xmlns="http://www.w3.org/2000/svg" viewBox="0 0 1920 1920">
    <style>
        .st0{fill:#fff}.st1{fill:none;stroke:#231f20;stroke-width:50;stroke-linecap:round;stroke-linejoin:round;stroke-miterlimit:10}
    </style>
    <path class="st0" d="M1281.3 570.4c0-50.4 40.9-91.3 91.3-91.3 25.2 0 48 10.2 64.5 26.7s26.7 39.3 26.7 64.5v515h.8v433.1c0 101.7-82.4 184.1-184.1 184.1H917.8c-31.6 0-61.3-8-87.2-22-12.2-4.4-23.6-11.5-33.3-21.2l-304.1-304.1c-20.9-15.2-35.2-39.1-37.4-66.4-.5-4.9-.6-9.8-.3-14.7v-280c0-25.2 10.2-48 26.7-64.5s39.3-26.7 64.5-26.7c50.4 0 91.3 40.9 91.3 91.3l1.3 202.4 95.8 95.8-1.3-285.2V382c0-50.4 40.9-91.3 91.3-91.3 25.2 0 48 10.2 64.5 26.7s26.7 39.3 26.7 64.5v583.3-656.5c0-50.4 40.8-91.3 91.3-91.3 25.2 0 48 10.2 64.5 26.7s26.7 39.3 26.7 64.5V413c0-50.4 40.9-91.3 91.3-91.3 25.2 0 48 10.2 64.5 26.7s26.7 39.3 26.7 64.5v157.5z" id="Layer_4"/>
    <g id="STROKES">
        <g id="XMLID_1_">
            <g id="XMLID_2_">
                <path class="st1" d="M733.8 1085.4V382c0-50.4 40.9-91.3 91.3-91.3 25.2 0 48 10.2 64.5 26.7s26.7 39.3 26.7 64.5v583.3"/>
                <path class="st1" d="M733.8 1007.2l1.3 285.2-95.8-95.8-1.3-202.4c0-50.4-40.9-91.3-91.3-91.3-25.2 0-48 10.2-64.5 26.7s-26.7 39.3-26.7 64.5v280c-.3 4.9-.2 9.8.3 14.7 2.2 27.3 16.5 51.2 37.4 66.4l304.1 304.1c9.8 9.8 21.2 16.8 33.3 21.2 26 14 55.7 22 87.2 22h362.7c101.7 0 184.1-82.4 184.1-184.1v-511.3"/>
                <path class="st1" d="M1281.3 570.4c0-50.4 40.9-91.3 91.3-91.3 25.2 0 48 10.2 64.5 26.7s26.7 39.3 26.7 64.5v515"/>
                <path class="st1" d="M916.3 965.3V308.7c0-50.4 40.8-91.3 91.3-91.3 25.2 0 48 10.2 64.5 26.7s26.7 39.3 26.7 64.5V413"/>
                <path class="st1" d="M1098.8 965.3V413.1c0-50.4 40.9-91.3 91.3-91.3 25.2 0 48 10.2 64.5 26.7s26.7 39.3 26.7 64.5v552.2"/>
            </g>
        </g>
    </g>
</svg>
