<svg xmlns="http://www.w3.org/2000/svg" viewBox="0 0 1920 1920">
    <style>
        .st0{fill:#fff}.st1{fill:none;stroke:#231f20;stroke-width:50;stroke-linecap:round;stroke-linejoin:round;stroke-miterlimit:10}
    </style>
    <path class="st0" d="M614.4 705.4l570 928.5-198 1.5s-406.2-875.5-380-956.7c1.8 15.1 8 26.7 8 26.7zm210-85.5c-46.5 55.5-114-24-178.5 0-36.5 13.6-41.8 39.1-39.5 58.8.7-2.1 1.7-3.8 3-4.8 51-39 47 31.5 207.5 43.5s127.5-226.5 222-295.5 148.5 34.5 148.5 34.5l-.3 114h1.8c6.4 44.8 153.6 29.5 112.5-55.5-25.6-52.9-24-64.5 1.5-96s30.9-197.2-207.6-174.7c-238.5 22.6-224.4 320.2-270.9 375.7z" id="Layer_1"/>
    <g id="STROKES">
        <g id="XMLID_1_">
            <path class="st1" d="M1184.4 1633.9l2.7-1063.4.3-114s-54-103.5-148.5-34.5-61.5 307.5-222 295.5S660.4 635 609.4 674c-1.3 1-2.3 2.6-3 4.8-26.2 81.2 380 956.7 380 956.7l198-1.6z"/>
            <path class="st1" d="M1188.9 570.4c6.4 44.8 153.6 29.5 112.5-55.5-25.6-52.9-24-64.5 1.5-96s30.9-197.2-207.6-174.7-224.4 320.2-270.9 375.7c-46.5 55.5-114-24-178.5 0-36.5 13.6-41.8 39.1-39.5 58.8 1.8 15.1 8 26.8 8 26.8l570 928.5"/>
            <path class="st1" d="M1098.9 411.4v1072.5"/>
            <path class="st1" d="M1008.5 462.4v868.5"/>
            <path class="st1" d="M918.2 682.9v505.5"/>
            <path class="st1" d="M827.8 718.9v322.5"/>
            <path class="st1" d="M737.4 708.4v189"/>
            <path class="st1" d="M914.9 1677.8s20-42 70.4-41.9"/>
            <path class="st1" d="M1256.8 1675.8s-20-42-70.4-41.9"/>
        </g>
    </g>
</svg>
