<svg xmlns="http://www.w3.org/2000/svg" viewBox="0 0 1920 1920">
    <style>
        .st0{fill:#fff}.st1{fill:none;stroke:#231f20;stroke-width:50;stroke-linecap:round;stroke-linejoin:round;stroke-miterlimit:10}
    </style>
    <path class="st0" d="M606.4 678.7c-2.3-19.6 3-45.2 39.5-58.8 64.5-24 132 55.5 178.5 0s111-376.3 350.6-375.7c109.5.3 259.1 92.5 136.1 207.2 0 0-98-98.5-192.5-29.5S977.4 729.4 817 717.4s-156.5-82.5-207.5-43.5c-1.4 1-2.4 2.6-3.1 4.8zm0 0c-26.2 81.2 380 956.7 380 956.7l198-1.5-570-928.5s-6.2-11.6-8-26.7z" id="Layer_4"/>
    <g id="STROKES">
        <g id="XMLID_1_">
            <path class="st1" d="M1184.4 1633.9l126.7-1182.4s-98-98.5-192.5-29.5S977.4 729.5 817 717.5 660.5 635 609.5 674c-1.3 1-2.3 2.6-3 4.8-26.2 81.2 380 956.7 380 956.7l197.9-1.6z"/>
            <path class="st1" d="M1184.4 1633.9l-570-928.5s-6.2-11.6-8-26.8c-2.3-19.6 3-45.2 39.5-58.8 64.5-24 132 55.5 178.5 0s111-376.3 350.6-375.7c109.5.3 259.1 92.5 136.1 207.2"/>
            <path class="st1" d="M985.3 1635.9s-20 42-70.4 41.9"/>
            <path class="st1" d="M1186.4 1633.9s20 42 70.4 41.9"/>
        </g>
    </g>
</svg>
