<svg xmlns="http://www.w3.org/2000/svg" viewBox="0 0 1920 1920">
    <style>
        .st0{fill:#fff}.st1{fill:none;stroke:#231f20;stroke-width:50;stroke-linecap:round;stroke-linejoin:round;stroke-miterlimit:10}
    </style>
    <path class="st0" d="M753.3 839.4c0-114.5 92.8-220.5 207.2-220.5 57.2 0 109 23.2 146.5 60.7s60.7 89.3 60.7 146.5v28.8c-1.7 41.3-112.7 62.8-214.6 63.1-12.4-13.5-36.2-20.1-61.7-15.6 6.1-34.2-7.9-65.4-31.6-70-20.7-4-42.1 13.5-52 40.7-10.6-23.9-30.4-38.8-49.6-35.1-1.6.3-3.3.8-4.9 1.4zm-91.5 87.9C484.4 969 156 943.8 228.6 1128.7c57.8 147.2 580.8 172.4 746.8 172.4s658.2-25.2 716-172.4c93.1-237.1-448.4-127.3-523.6-259.4v111.2c-1.6 30.2-102.9 46.8-205.8 46.8 0 2.2-.1 4.4-.6 6.6-4.6 23.7-35.8 37.7-70 31.6 6 34.2-8 65.4-31.7 70-19.2 3.7-39-11.2-49.6-35.1-9.9 27.1-31.2 44.7-52 40.7-23.7-4.6-37.7-35.8-31.6-70-34.2 6-65.4-8-70-31.7-3.7-19.4 11.4-39.3 35.6-49.9-24.1-10.5-39.3-30.5-35.5-49.9.8-4.5 2.6-8.6 5.2-12.3z" id="Layer_3"/>
    <g id="Layer_6">
        <path class="st0" d="M925.8 984c24.2-10.5 39.4-30.5 35.6-49.9-1.2-6.1-4.1-11.5-8.3-16.1 102-.4 212.9-21.8 214.6-63.1v125.6c-1.6 30.2-102.9 46.8-205.8 46.8-.2-17.1-14.6-33.9-36.1-43.3z"/>
        <path class="st0" d="M843.9 986.8c0 19.3-15.6 34.9-34.9 34.9-19.3 0-34.9-15.6-34.9-34.9s15.6-34.9 34.9-34.9c19.3 0 34.9 15.6 34.9 34.9z"/>
    </g>
    <path class="st0" d="M774.1 986.8c0 19.3 15.6 34.9 34.9 34.9 19.3 0 34.9-15.6 34.9-34.9s-15.6-34.9-34.9-34.9c-19.3 0-34.9 15.6-34.9 34.9zm-112.3-59.5c11.2-16 37-24.2 64.7-19.3-5.6-31.8 6-60.9 26.7-68.6 1.6-.6 3.3-1.1 5-1.4 19.2-3.7 39 11.2 49.6 35.1 9.9-27.1 31.2-44.7 52-40.7 23.7 4.6 37.7 35.8 31.6 70 25.5-4.5 49.3 2.1 61.7 15.6 4.2 4.6 7.1 10 8.3 16.1 3.7 19.4-11.4 39.3-35.6 49.9 21.5 9.4 35.8 26.1 36.2 43.4 0 2.2-.1 4.4-.6 6.6-4.6 23.7-35.8 37.7-70 31.6 6 34.2-8 65.4-31.7 70-19.2 3.7-39-11.2-49.6-35.1-9.9 27.1-31.2 44.7-52 40.7-23.7-4.6-37.7-35.8-31.6-70-34.2 6-65.4-8-70-31.7-3.7-19.4 11.4-39.3 35.6-49.9-24.1-10.6-39.3-30.6-35.5-50 .8-4.5 2.6-8.6 5.2-12.3z" id="Layer_7"/>
    <g id="STROKES">
        <g id="XMLID_1_">
            <g id="XMLID_2_">
                <path class="st1" d="M753.3 839.4c0-114.5 92.8-220.5 207.2-220.5 57.2 0 109 23.2 146.5 60.7s60.7 89.3 60.7 146.5v154.5"/>
                <path class="st1" d="M1167.8 869.3c75.1 132 616.7 22.2 523.6 259.4-57.8 147.2-550 172.4-716 172.4s-689-25.2-746.8-172.4C156.1 943.8 484.4 969 661.8 927.3"/>
                <path class="st1" d="M953.1 918c102-.4 212.9-21.8 214.6-63.1v-1"/>
                <path class="st1" d="M962 1027.4c102.8 0 204.2-16.6 205.8-46.8v-.7"/>
                <path class="st1" d="M962 1027.4c-.3-17.2-14.7-34-36.2-43.4 24.2-10.5 39.4-30.5 35.6-49.9-1.2-6.1-4.1-11.5-8.3-16.1-12.4-13.5-36.2-20.1-61.7-15.6 6.1-34.2-7.9-65.4-31.6-70-20.7-4-42.1 13.5-52 40.7-10.6-23.9-30.4-38.8-49.6-35.1-1.7.3-3.4.8-5 1.4-20.7 7.7-32.3 36.8-26.7 68.6-27.8-4.9-53.5 3.3-64.7 19.3-2.6 3.7-4.4 7.8-5.3 12.3-3.8 19.4 11.4 39.4 35.6 49.9-24.2 10.5-39.4 30.5-35.6 49.9 4.6 23.7 35.7 37.7 70 31.7-6.1 34.2 7.9 65.4 31.6 70 20.7 4 42.1-13.5 52-40.7 10.6 23.9 30.4 38.8 49.6 35.1 23.7-4.6 37.7-35.7 31.7-70 34.2 6.1 65.4-7.9 70-31.6.5-2.1.6-4.3.6-6.5z"/>
                <path class="st1" d="M843.9 986.8c0 19.3-15.6 34.9-34.9 34.9-19.3 0-34.9-15.6-34.9-34.9s15.6-34.9 34.9-34.9c19.3 0 34.9 15.6 34.9 34.9z"/>
            </g>
        </g>
    </g>
</svg>
