<svg xmlns="http://www.w3.org/2000/svg" viewBox="0 0 1920 1920">
    <style>
        .st0{fill:#fff}.st1{fill:none;stroke:#231f20;stroke-width:50;stroke-linecap:round;stroke-linejoin:round;stroke-miterlimit:10}
    </style>
    <g id="Layer_4">
        <path class="st0" d="M475.6 1100.8V856.7c0-240.1 146-446.1 354.1-534.1C899 293.2 975.2 277 1055.3 277c320.2 0 579.7 259.5 579.7 579.7v315C1052.7 897.5 510.6 1058 481 1096l-1.3-.2-4.1 5z"/>
        <path class="st0" d="M254.1 1449.4c-30.5 10.6-51.1-31-24.2-48.9l245.7-299.8 4.1-5 1.3.2c29.6-38 571.7-198.5 1154 75.8L1303 1541c-41.1 26.1-104.4 20.8-140.6-11.7-242.6-217.5-698-152.8-908.3-79.9z"/>
    </g>
    <g id="STROKES">
        <g id="XMLID_1_">
            <g id="XMLID_2_">
                <path class="st1" d="M1635 1171.7v-315c0-320.2-259.5-579.7-579.7-579.7-80 0-156.3 16.2-225.6 45.6-208.1 88-354.1 294-354.1 534.1v244.1"/>
                <path class="st1" d="M479.7 1095.7l-4.1 5-245.7 299.8c-26.9 17.9-6.3 59.5 24.2 48.9 210.3-72.9 665.7-137.6 908.3 79.9 36.2 32.5 99.5 37.8 140.6 11.7l332-369.3"/>
                <path class="st1" d="M481 1096c29.6-38 571.7-198.5 1154 75.8"/>
            </g>
        </g>
    </g>
</svg>
