<svg xmlns="http://www.w3.org/2000/svg" viewBox="0 0 1920 1920">
    <style>
        .st0{fill:#fff}.st1{fill:none;stroke:#231f20;stroke-width:50;stroke-linecap:round;stroke-linejoin:round;stroke-miterlimit:10}
    </style>
    <path class="st0" d="M1703.1 1295.4v43c0 56.1-45.5 101.5-101.5 101.5v-246c56 0 101.5 45.5 101.5 101.5zm-1486.2 0v43c0 56.1 45.4 101.5 101.5 101.5v-246c-56 0-101.5 45.5-101.5 101.5z" id="Layer_7"/>
    <path class="st0" d="M1403.2 1094.9h114c46.5 0 84.2 37.7 84.2 84.2v275.6c0 46.5-37.7 84.2-84.2 84.2H1403v-444h.2zm-983.2 0h-16.4c-47 0-85.1 37.3-85.1 84.8v277.1c0 44.8 38.1 82.1 85.1 82.1H517v-444h-97z" id="Layer_8"/>
    <path class="st0" d="M420 1094.9V921.1C420 622.8 661.7 381 960 381s540.1 241.8 540.1 540.1V1095h-96.8V921.2c0-244.8-198.4-443.2-443.2-443.2S516.8 676.4 516.8 921.2V1095H420z" id="Layer_9"/>
    <g id="STROKES">
        <g id="XMLID_1_">
            <path class="st1" d="M1500.1 1095V921.1c0-298.3-241.8-540.1-540.1-540.1S420 622.8 420 921.1V1095"/>
            <path class="st1" d="M1403.2 1095V921.2c0-244.8-198.4-443.2-443.2-443.2S516.8 676.4 516.8 921.2V1095"/>
            <path class="st1" d="M516.8 1094.9h.2v444H403.5c-47 0-85.1-37.3-85.1-82.1v-277c0-47.4 38.1-84.8 85.1-84.8h113.3z"/>
            <path class="st1" d="M318.5 1440c-56.1 0-101.5-45.4-101.5-101.5v-43c0-56.1 45.4-101.5 101.5-101.5"/>
            <path class="st1" d="M1601.5 1440v14.8c0 46.5-37.7 84.2-84.2 84.2H1403v-444h114.2c46.5 0 84.2 37.7 84.2 84.2V1440z"/>
            <path class="st1" d="M1601.5 1193.9c56.1 0 101.5 45.5 101.5 101.5v43c0 56.1-45.5 101.5-101.5 101.5"/>
        </g>
    </g>
</svg>
