<svg xmlns="http://www.w3.org/2000/svg" viewBox="0 0 1920 1920">
    <style>
        .st0{fill:#fff}.st1{fill:none;stroke:#231f20;stroke-width:50;stroke-linecap:round;stroke-linejoin:round;stroke-miterlimit:10}
    </style>
    <path class="st0" d="M1441.6 282.8v92.1h-44.8l-24.5-73.4h-82.9l-2.1-.5c11.9-8.5 19.7-22.4 19.7-38.2 0-15.8-7.8-29.7-19.7-38.2l2.1-1.9h92.1c33.2.1 60.1 27 60.1 60.1zm-852-60c-33.2 0-60 26.9-60 60v92.1h44.8l24.5-73.4h82.9l1.2-1.1c-11.4-8.5-18.8-22.2-18.8-37.6s7.4-29 18.8-37.6l-1.2-2.5h-92.2z" id="Layer_4"/>
    <path class="st0" d="M1287.4 224.6c11.9 8.5 19.7 22.4 19.7 38.2 0 15.8-7.8 29.7-19.7 38.2-7.7 5.5-17 8.6-27.1 8.6-25.9 0-46.9-21-46.9-46.9s21-46.9 46.9-46.9c10 .2 19.4 3.4 27.1 8.8zm-604.5.7c-11.4 8.6-18.8 22.2-18.8 37.6s7.4 29 18.8 37.6c7.8 5.8 17.5 9.3 28 9.3 25.9 0 46.9-21 46.9-46.9s-21-46.9-46.9-46.9c-10.4 0-20.2 3.5-28 9.3z" id="Layer_5"/>
    <path transform="rotate(-45.949 1129.788 1036.541)" class="st0" d="M1033.4 1003.2h192.9v66.6h-192.9z" id="Layer_6"/>
    <g id="STROKES">
        <g id="XMLID_1_">
            <path class="st1" d="M1287.4 224.6c11.9 8.5 19.7 22.4 19.7 38.2 0 15.8-7.8 29.7-19.7 38.2-7.7 5.5-17 8.6-27.1 8.6-25.9 0-46.9-21-46.9-46.9s21-46.9 46.9-46.9c10 .2 19.4 3.4 27.1 8.8z"/>
            <path class="st1" d="M1289.4 301.6h82.9l24.5 73.4h44.8v-92.1c0-33.2-26.9-60-60-60h-92.1"/>
            <path class="st1" d="M682.9 225.3c-11.4 8.6-18.8 22.2-18.8 37.6s7.4 29 18.8 37.6c7.8 5.8 17.5 9.3 28 9.3 25.9 0 46.9-21 46.9-46.9s-21-46.9-46.9-46.9c-10.4 0-20.2 3.5-28 9.3z"/>
            <path class="st1" d="M681.8 301.6h-82.9L574.4 375h-44.8v-92.1c0-33.2 26.9-60 60-60h92.1"/>
            <path class="st1" d="M1418.5 380.4s81.5 292.1-27.2 415.7c-108.7 123.6-188.8 171.2-188.8 171.2"/>
            <path transform="rotate(-45.944 1129.743 1036.46)" class="st1" d="M1033.4 1003.2h192.9v66.6h-192.9z"/>
            <path class="st1" d="M1058.5 1108.5s-122 103.5-154.6 282.6c-8.5 46.5-22.1 233.2 32.2 312.9"/>
            <path class="st1" d="M931 1293.4c32.2-166.3-100.1-305.4-302-381.8-300.9-113.8-76.4-531.1-76.4-531.1"/>
        </g>
    </g>
</svg>
