<svg xmlns="http://www.w3.org/2000/svg" viewBox="0 0 1920 1920">
    <style>
        .st0{fill:#fff}.st1{fill:#e53935}.st2{fill:none;stroke:#231f20;stroke-width:50;stroke-linecap:round;stroke-linejoin:round;stroke-miterlimit:10}
    </style>
    <path class="st0" d="M1714.9 1004.9s-67 76.9-175.6 105c-147.9 65.5-278.3 27.9-278.3 27.9l-168.5-3.7-71.4 73.7-.7-.7c-64.9-42.3-128.7-1.7-128.7-1.7l-68.8-71.4-168.5 3.7c-110.5 71.1-265.2-24.1-272.7-27.9-108.6-28.1-176.5-105-176.5-105l127.3-78.6-97.3-146 162.9-16.8-80.5-189.1 179.7 24.3L461.6 434l204 74.9 16.8-174.1 185.3 131.1 88-207.8 96.4 207.8 185.3-131.1 16.8 174.1 204.1-74.9-35.6 164.7 179.7-24.3-80.5 189.1 162.9 16.8-97.3 146 127.4 78.6zm-625.1 5.2c0-5.4-4.4-9.8-9.8-9.8s-9.8 4.4-9.8 9.8 4.4 9.8 9.8 9.8c5.5 0 9.8-4.4 9.8-9.8zm-232.4 0c0-5.4-4.4-9.8-9.8-9.8s-9.8 4.4-9.8 9.8 4.4 9.8 9.8 9.8 9.8-4.4 9.8-9.8z" id="Layer_5"/>
    <path class="st0" d="M1021.1 1207.8l-13.8 14.2c-27.3 28.2-72.6 28.2-99.8-.1l-15.8-16.4s63.8-40.6 128.7 1.7l.7.6z" id="Layer_6"/>
    <path class="st0" d="M1150.5 1385.6c-27.4-43.6-117.9-83-190-83h-.2c-72.1.1-162.6 39.5-190 83h-113c-6.7 0-13.2-.2-19.8-.7-143-10.1-255.9-129.4-255.9-275 7.5 3.8 162.3 99 272.7 27.9l168.5-3.7 68.8 71.4 15.8 16.4c27.2 28.3 72.5 28.3 99.8.1l13.8-14.2 71.4-73.7 168.5 3.7s130.5 37.6 278.3-27.9c0 145.7-113 264.9-256.1 275-6.5.5-13 .7-19.6.7h-113z" id="Layer_7"/>
    <path class="st0" d="M1150.5 1385.6H770.3c27.4-43.6 117.9-83 190-83h.2c72.1 0 162.5 39.4 190 83z" id="Layer_8"/>
    <path class="st0" d="M1365.6 1579.6l-82.4 7.5-56.2 74.9-49.6-74.9-82.4 3.7 63.7-74.9v-104.8c0-8.5-2.9-17.1-8.3-25.5h113.2c6.6 0 13.1-.2 19.6-.7v127.3l82.4 67.4zM762 1411.2c0-8.5 2.9-17.1 8.3-25.5h-113c-6.7 0-13.2-.2-19.8-.7v127.3l-82.4 67.4 82.4 7.5 56.2 74.9 49.6-74.9 82.4 3.7L762 1516v-104.8z" id="Layer_9"/>
    <g id="STROKES">
        <ellipse class="st1" cx="1080" cy="1010.1" rx="9.8" ry="9.8"/>
        <ellipse class="st1" cx="847.5" cy="1010.1" rx="9.8" ry="9.8"/>
        <path class="st2" d="M381.6 1109.9c-108.6-28.1-176.5-105-176.5-105l127.3-78.6-97.3-146L398 763.5l-80.5-189.1 179.7 24.3L461.6 434l204 74.9 16.8-174.1 185.3 131.1 88-207.8"/>
        <path class="st2" d="M1539.3 1109.9c108.6-28.1 175.6-105 175.6-105l-127.3-78.6 97.3-146-162.9-16.8 80.5-189.1-179.7 24.3 35.6-164.7-204.1 74.9-16.8-174.1-185.3 131.1L955.8 258"/>
        <path class="st2" d="M822.9 853.3s-78.6-104.8-138.5-108.6c-59.9-3.8-3.7 86.1-15 138.5-11.2 52.4 82.4 71.1 82.4 71.1"/>
        <path class="st2" d="M1098 853.3s78.6-104.8 138.5-108.6c59.9-3.8 3.7 86.1 15 138.5 11.2 52.4-82.4 71.1-82.4 71.1"/>
        <path class="st2" d="M830.4 838.3l3.7-116.1 56.2 112.3s15-194.7 15-183.5c0 11.2 56.2 179.7 56.2 179.7l56.2-168.5 15 176 71.1-131-7.5 134.8"/>
        <path class="st2" d="M1174.8 1003.1l134.8-3.8-149.8 82.4 101.1 56.2-168.5-3.7-71.4 73.7-13.8 14.2c-27.3 28.2-72.6 28.2-99.8-.1l-15.8-16.4-68.8-71.4-168.5 3.7 101.1-56.2-149.8-82.4 134.8 3.8"/>
        <path class="st2" d="M1539.3 1109.9c0 145.7-113 264.9-256.1 275-6.5.5-13 .7-19.6.7H657.3c-6.7 0-13.2-.2-19.8-.7-143-10.1-255.9-129.4-255.9-275"/>
        <path class="st2" d="M654.4 1137.8c-110.5 71.1-265.2-24.1-272.7-27.9"/>
        <path class="st2" d="M1260.9 1137.8s130.5 37.6 278.3-27.9"/>
        <path class="st2" d="M960.3 1302.6c-72.1.1-162.6 39.5-190 83-5.3 8.4-8.3 17-8.3 25.5V1516l63.6 74.9-82.4-3.7-49.6 74.9-56.2-74.9-82.4-7.5 82.4-67.4V1385"/>
        <path class="st2" d="M960.3 1302.6h.2c72.1.1 162.6 39.5 190 83 5.3 8.4 8.3 17 8.3 25.5V1516l-63.7 74.9 82.4-3.7 49.6 74.9 56.2-74.9 82.4-7.5-82.4-67.4V1385"/>
        <path class="st2" d="M891.7 1205.5s63.8-40.6 128.7 1.7"/>
        <ellipse class="st2" cx="1080" cy="1010.1" rx="9.8" ry="9.8"/>
        <ellipse class="st2" cx="847.5" cy="1010.1" rx="9.8" ry="9.8"/>
    </g>
</svg>
