<svg xmlns="http://www.w3.org/2000/svg" viewBox="0 0 1920 1920">
    <style>
        .st0{fill:#fff}.st1{fill:#e53935}.st2{fill:none;stroke:#231f20;stroke-width:50;stroke-linecap:round;stroke-linejoin:round;stroke-miterlimit:10}
    </style>
    <path class="st0" d="M852.6 1397.9s-168 84-177 90 75-120 75-120l-81-45 150-30 36-78-132-54 24 63s-108-30-162-27-120 99-171 93-72 60-153 3c-14.3-10.1-6-51 15-117s3-147 30-228 27-117 27-117l-15-84 75 15 9-96 69 27 27-87 69 27 15-75 69 33 36-99 96 66 33-90 48 51 42-66 54 57 45-66 36 72 81-84 24 60 72-45 12 66 108-30v90l102-30-24 66 105 12-39 63 84 24-42 81 93 9-42 63 84 42-69 51 75 78-90 66 54 93-102-9 6 84-90-30-54 72-51-99-78 75-57-120-60 102-72-105-108 156-78 165-33-84zm-351.1-355.5c0-4.1-3.3-7.5-7.5-7.5-4.1 0-7.5 3.4-7.5 7.5 0 4.2 3.4 7.5 7.5 7.5 4.2 0 7.5-3.3 7.5-7.5z" id="Layer_1"/>
    <g id="STROKES">
        <path class="st2" d="M813.6 1115.9l42 99-132-54 24 63s-108-30-162-27-120 99-171 93-72 60-153 3c-14.3-10.1-6-51 15-117s3-147 30-228 27-117 27-117l-15-84 75 15 9-96 69 27 27-87 69 27 15-75 69 33 36-99 96 66 33-90 48 51 42-66 54 57 45-66 36 72 81-84 24 60 72-45 12 66 108-30v90l102-30-24 66 105 12-39 63 84 24-42 81 93 9-42 63 84 42-69 51 75 78-90 66 54 93-102-9 6 84-90-30-54 72-51-99-78 75-57-120-60 102-72-105"/>
        <path class="st2" d="M1071.6 1160.9l-108 156-78 165-33-84s-168 84-177 90 75-120 75-120l-81-45 150-30 36-78"/>
        <path class="st2" d="M567.5 851.9s-27-84 72-114c0 0 96 60 24 198"/>
        <path class="st2" d="M501.5 1042.4c0 4.2-3.3 7.5-7.5 7.5-4.1 0-7.5-3.4-7.5-7.5s3.4-7.5 7.5-7.5c4.2 0 7.5 3.4 7.5 7.5z"/>
        <path class="st2" d="M279.5 1229.9s81 3 78 66"/>
    </g>
</svg>
