<svg xmlns="http://www.w3.org/2000/svg" viewBox="0 0 1920 1920">
    <style>
        .st0{fill:#fff}.st1{fill:#e53935}.st2{fill:none;stroke:#231f20;stroke-width:50;stroke-linecap:round;stroke-linejoin:round;stroke-miterlimit:10}
    </style>
    <path class="st0" d="M893.3 1154.9c5.8 36.8 40.4 62 77.3 56.1 36.8-5.8 62-40.4 56.1-77.3-5.8-36.8-40.4-62-77.3-56.1-36.8 5.8-61.9 40.4-56.1 77.3zm787.1-94.5c-11.4 16.2-30.6 26.4-61.9 22.4-104.7-13.3-58.4-72-89.3-24.3-30.9 47.6-26.1 132.3-137.1 51.6 0 0-21.8 52.6-67.5 115l-173.1-30.3 138.7 73.3c-67.3 76.8-169.2 154-309.5 159.3h-41.3c-140.2-5.4-242.2-82.5-309.5-159.3l138.7-73.3-173.1 30.3c-45.7-62.4-67.5-115-67.5-115-111.1 80.7-106.2-4-137.1-51.6-30.9-47.6 15.4 11-89.3 24.3s-73.2-131.3-73.2-131.3C403.8 599 611.3 772.9 611.3 772.9L495.5 615.4l233 77.3-101-173.3 211.3 142.3-73.3-262.3s190.1 230.7 191.6 239.5c1.5-8.8 77.5-258 77.5-258l46.8 280.8L1211 511l-19.4 181.7 158.7-113.5-41.6 193.6s207.5-173.9 383 178.7c0 .1 15.5 71-11.3 108.9zm-461.2-13.1c6.1-1 10.3-6.7 9.4-12.9-1-6.1-6.7-10.3-12.9-9.4-6.1 1-10.3 6.7-9.3 12.9.9 6.2 6.7 10.4 12.8 9.4zm-505.6-9.3c1-6.1-3.2-11.9-9.3-12.9-6.1-1-11.9 3.2-12.9 9.4-1 6.1 3.2 11.9 9.4 12.9 6.1.9 11.9-3.3 12.8-9.4z" id="Layer_3"/>
    <path class="st0" d="M1026.7 1133.7c5.8 36.8-19.3 71.4-56.1 77.3-36.8 5.8-71.4-19.3-77.3-56.1-5.8-36.8 19.3-71.4 56.2-77.3 36.8-5.8 71.4 19.3 77.2 56.1z" id="Layer_4"/>
    <g id="STROKES">
        <path class="st2" d="M957 639c-1.5-8.8-191.6-239.5-191.6-239.5l73.3 262.3-211.3-142.3 101 173.3-233-77.3L611.3 773S403.8 599.1 228.2 951.7c0 0-31.4 144.6 73.2 131.3 104.7-13.3 58.4-72 89.3-24.3 30.9 47.6 26.1 132.3 137.1 51.6 0 0 21.8 52.6 67.5 115 10.3 14 21.7 28.5 34.4 43 67.3 76.8 169.2 154 309.5 159.3"/>
        <path class="st2" d="M249.5 1065.3s126-249 244.2-221.7c118.2 27.3 130.9 54.9 130.9 54.9l-154.6 41 122 39.3"/>
        <path class="st2" d="M713.6 1038c-1 6.1-6.7 10.3-12.9 9.4-6.1-1-10.3-6.7-9.4-12.9 1-6.1 6.7-10.3 12.9-9.4 6.2 1 10.4 6.7 9.4 12.9z"/>
        <path class="st2" d="M812.4 1295.8s123.2 13.8 144.1-82.6"/>
        <path class="st2" d="M768.6 1194.8l-138.7 73.4-284.2 150.3"/>
        <path class="st2" d="M768.6 1194.8l-173.1 30.4-331 57.9"/>
        <path class="st2" d="M957 639c1.5-8.8 77.5-258 77.5-258l46.8 280.8L1211 511l-19.4 181.7 158.7-113.5-41.6 193.6s207.5-173.9 383 178.7c0 0 15.4 70.9-11.3 108.9-11.4 16.2-30.6 26.4-61.9 22.4-104.7-13.3-58.4-72-89.3-24.3-30.9 47.6-26.1 132.3-137.1 51.6 0 0-21.8 52.6-67.5 115-10.3 14-21.7 28.5-34.4 43-67.3 76.8-169.2 154-309.5 159.3h-41.3"/>
        <path class="st2" d="M1683.2 1065.3s-1-1.7-2.8-4.9c-20.2-34.7-145.8-241.9-254.1-216.9-118.2 27.3-130.9 54.9-130.9 54.9l154.7 41-122 39.3"/>
        <path class="st2" d="M1206.4 1038c1 6.1 6.7 10.3 12.9 9.4 6.1-1 10.3-6.7 9.4-12.9-1-6.1-6.7-10.3-12.9-9.4-6.2 1-10.4 6.7-9.4 12.9z"/>
        <path class="st2" d="M1107.6 1295.8s-123.2 13.8-144.1-82.6"/>
        <path class="st2" d="M1151.4 1194.8l138.7 73.4 284.2 150.3"/>
        <path class="st2" d="M1151.4 1194.8l173.1 30.4 331 57.9"/>
        <path class="st2" d="M893.3 1154.9c5.8 36.8 40.4 62 77.3 56.1 36.8-5.8 62-40.4 56.1-77.3-5.8-36.8-40.4-62-77.3-56.1-36.8 5.8-61.9 40.4-56.1 77.3z"/>
    </g>
</svg>
