<svg xmlns="http://www.w3.org/2000/svg" viewBox="0 0 1920 1920">
    <style>
        .st0{fill:#fff}.st1{fill:none;stroke:#231f20;stroke-width:50;stroke-linecap:round;stroke-linejoin:round;stroke-miterlimit:10}
    </style>
    <path class="st0" d="M1055.7 689.1c-24.7-10.3-51.9-16.1-80.4-16.1h-23.8c-28.5 0-55.6 5.7-80.3 16-75.2 31.5-128.1 105.8-128.1 192.5v277.9c0 6.9.6 13.6 1.8 20.2 167.8-5 214.5-130.9 214.5-130.9h2.5s.5 1.5 1.6 4.1c9.4 21.8 68.8 122.4 218.6 126.8 1.2-6.5 1.8-13.3 1.8-20.2V881.5c0-86.6-52.9-161-128.2-192.4z" id="Layer_9"/>
    <path class="st0" d="M963.5 1052.7c9.4 21.8 68.8 122.4 218.6 126.8-9.5 53.7-56.4 94.5-112.9 94.5H857.7c-56.4 0-103.3-40.8-112.9-94.5 167.8-5 214.5-130.9 214.5-130.9h2.5c0 .1.5 1.5 1.7 4.1z" id="Layer_10"/>
    <path class="st0" d="M1055.7 689.1c-24.7-10.4-51.9-16.1-80.4-16.1h-23.8c-28.5 0-55.6 5.7-80.3 16l15.9-139.1 51.8-8h42l58 8.9 16.8 138.3z" id="Layer_11"/>
    <g id="STROKES">
        <g id="XMLID_1_">
            <path class="st1" d="M1055.7 689.1c75.3 31.5 128.1 105.8 128.1 192.5v277.9c0 6.9-.6 13.6-1.8 20.2-9.5 53.7-56.4 94.5-112.9 94.5H857.7c-56.4 0-103.3-40.8-112.9-94.5-1.2-6.5-1.8-13.3-1.8-20.2v-278c0-86.7 52.9-161 128.2-192.5 24.7-10.3 51.9-16 80.3-16h23.8c28.5 0 55.7 5.7 80.4 16.1z"/>
            <path class="st1" d="M605.4 1572.1l93.9-157.9c23-38.7 64.8-62.5 109.8-62.5h299.1c43.1 0 83.3 21.7 106.9 57.8l106.5 162.6"/>
            <path class="st1" d="M961.8 1048.7s.5 1.5 1.6 4.1c9.4 21.8 68.8 122.4 218.6 126.8"/>
            <path class="st1" d="M959.3 1048.7s-46.7 125.9-214.5 130.9"/>
            <path class="st1" d="M963.5 673v385.7"/>
            <path class="st1" d="M871.3 689l15.9-139.1.9-7.9h149.8l1 8.8 16.8 138.3"/>
            <path class="st1" d="M214.4 347.9L958.5 539l-19.5 3-51.8 7.9L541.5 603"/>
            <path class="st1" d="M1705.6 347.9L961.5 539l19.5 3 57.9 8.8 339.6 52.2"/>
        </g>
    </g>
</svg>
