<svg xmlns="http://www.w3.org/2000/svg" viewBox="0 0 1920 1920">
    <style>
        .st0{fill:#fff}.st1{fill:none;stroke:#231f20;stroke-width:50;stroke-linecap:round;stroke-linejoin:round;stroke-miterlimit:10}
    </style>
    <path class="st0" d="M789 814.1V1033H353.1c41.8-87 133-177.8 306.4-202.8 25.9-3.7 71.7-9.3 129.5-16.1z" id="Layer_1"/>
    <path class="st0" d="M1086.2 781c32.4 225.2-157.7 432.8-300.8 432.8h-437c-28.2 0-39.8-88.2 4.7-180.8H789V814.1c57.4-6.7 126.6-14.5 199.8-22.5 31.9-3.5 64.6-7.1 97.4-10.6z" id="Layer_3"/>
    <path class="st0" d="M829.6 719.8h111l48 70 .2 1.8c-73.2 8.1-142.4 15.8-199.8 22.5l40.6-94.3z" id="Layer_4"/>
    <g id="STROKES">
        <path class="st1" d="M1625 839.7L1573.5 729l133.6-286.2"/>
        <path class="st1" d="M1086.2 781c32.4 225.2-157.7 432.8-300.8 432.8h-437c-28.2 0-39.8-88.2 4.7-180.8 41.8-87 133-177.8 306.4-202.8 26-3.7 71.8-9.4 129.5-16.1 57.4-6.7 126.6-14.5 199.8-22.5 31.9-3.5 64.6-7.1 97.4-10.6 240.4-26.2 487.2-52 487.2-52"/>
        <path class="st1" d="M882.7 701.8v-64.3"/>
        <path class="st1" d="M356.1 610.2h1085.7"/>
        <path class="st1" d="M212.9 1295c11.4 30.5 7.6 81 175.6 81H1267"/>
        <path class="st1" d="M449.4 1368.3l4-154.5"/>
        <path class="st1" d="M831 1368.3l4-154.5"/>
        <path class="st1" d="M789 814.1l40.6-94.3h111l48 70"/>
        <path class="st1" d="M353.1 1033H789V814.1"/>
        <path class="st1" d="M481.6 404.8l393 205.4 3 1.6 3-1.6 402-208.4"/>
    </g>
</svg>
