<svg xmlns="http://www.w3.org/2000/svg" viewBox="0 0 1920 1920">
    <style>
        .st0{fill:#fff}.st1{fill:none;stroke:#231f20;stroke-width:50;stroke-linecap:round;stroke-linejoin:round;stroke-miterlimit:10}
    </style>
    <path class="st0" d="M1093 558v62.1c-14.5-7.1-30.8-11.2-48.1-11.2H875.1c-17.3 0-33.6 4-48.1 11.2V559h2c4-6 6-90 126-90 100.2 0 130.7 66.9 138 89zM960 391c-36.7 0-70 14.9-94 39-24.1 24.1-39 57.3-39 94v35h2c4-6 6-90 126-90 100.2 0 130.7 66.9 138 89v-34c0-73.5-59.6-133-133-133z" id="Layer_5"/>
    <path class="st0" d="M1093 620.2c-14.5-7.1-30.8-11.2-48.1-11.2H875.1c-17.3 0-33.6 4-48.1 11.2-36.1 17.8-61 55-61 98v493.7c0 60.3 48.9 109.1 109.1 109.1h169.8c55.2 0 100.9-41.1 108.1-94.4V703.3c-4.9-36.6-28.1-67.4-60-83.1zM1034.3 960c0 41-33.2 74.3-74.3 74.3-20.5 0-39.1-8.3-52.5-21.8-13.4-13.4-21.8-32-21.8-52.5s8.3-39.1 21.8-52.5 32-21.8 52.5-21.8 39.1 8.3 52.5 21.8 21.8 32 21.8 52.5z" id="Layer_6"/>
    <path class="st0" d="M1012.5 907.5c13.4 13.4 21.8 32 21.8 52.5 0 41-33.2 74.3-74.3 74.3-20.5 0-39.1-8.3-52.5-21.8-13.4-13.4-21.8-32-21.8-52.5s8.3-39.1 21.8-52.5 32-21.8 52.5-21.8 39.1 8.3 52.5 21.8z" id="Layer_7"/>
    <path class="st0" d="M1008 1321v222l-49 49-47-47v-224z" id="Layer_8"/>
    <g id="STROKES">
        <path class="st1" d="M216.4 216.4L765 765l1 1 140 140"/>
        <path class="st1" d="M216.4 1703.6L765 1155l1-1 140-140"/>
        <path class="st1" d="M1093 620.2V524c0-73.5-59.6-133-133-133-36.7 0-70 14.9-94 39-24.1 24.1-39 57.3-39 94v96.2"/>
        <path class="st1" d="M1093 620.2c-14.5-7.1-30.8-11.2-48.1-11.2H875.1c-17.3 0-33.6 4-48.1 11.2-36.1 17.8-61 55-61 98v493.7c0 60.3 48.8 109.1 109.1 109.1h169.8c55.2 0 100.9-41.1 108.1-94.3.7-4.8 1-9.8 1-14.8V718.1c0-5-.3-10-1-14.8-4.9-36.6-28.1-67.4-60-83.1z"/>
        <path class="st1" d="M1008 1321v222"/>
        <path class="st1" d="M912 1545v-224"/>
        <path class="st1" d="M847 1480l65 65 47 47 112 112"/>
        <path class="st1" d="M847 1704l112-112 49-49 63-63"/>
        <path class="st1" d="M829 559c4-6 6-90 126-90 100.2 0 130.7 66.9 138 89 1.4 4.4 2 7 2 7"/>
        <path class="st1" d="M765 517v954"/>
        <path class="st1" d="M1153 517v954"/>
        <path class="st1" d="M1012.5 907.5c13.4 13.4 21.8 32 21.8 52.5 0 41-33.2 74.3-74.3 74.3-20.5 0-39.1-8.3-52.5-21.8-13.4-13.4-21.8-32-21.8-52.5s8.3-39.1 21.8-52.5 32-21.8 52.5-21.8 39.1 8.3 52.5 21.8z"/>
        <path class="st1" d="M1012 908l.5-.5L1153 767l1-1 549.6-549.6"/>
        <path class="st1" d="M1017 1017l136 136 1 1 549.6 549.6"/>
    </g>
</svg>
