<svg xmlns="http://www.w3.org/2000/svg" viewBox="0 0 1920 1920">
    <style>
        .st0{fill:#fff}.st1{fill:none;stroke:#231f20;stroke-width:50;stroke-linecap:round;stroke-linejoin:round;stroke-miterlimit:10}
    </style>
    <path class="st0" d="M1143.1 312.2c223.6 78.1 388.1 311.6 388.1 561.8l-86.2-62.7s-165.9-72-486.9-72-483.1 72-483.1 72l-90 65.5c0-249.5 163.6-485.9 386-564.6l-14-48.7s76-40 196-40h8c120 0 196 40 196 40l-13.9 48.7zm297.4 907.6l-45.4 167.1 1.8.5h48.7c114-144 66.6-431.4 66.6-431.4l-71.7 263.8zM407.7 956s-47.4 287.4 66.6 431.4H523l1.8-.5-45.5-167.5L407.7 956z" id="Layer_7"/>
    <path class="st0" d="M1394 889.4l118.3 66.7-71.7 263.8-1.6-.4h-104.7l59.7-330.1zM407.7 956l71.6 263.4H583l-57-330L407.7 956z" id="Layer_8"/>
    <path class="st0" d="M1394 889.4l-59.7 330H583l-57-330s236.4-41.4 436.5-42c200 .6 431.5 42 431.5 42z" id="Layer_9"/>
    <g id="Layer_3">
        <path class="st0" d="M1440.5 1219.8l-45.4 167.1-32.7 120.1-.2.6-.6-.2h-215.2c36.4-129.5 82.5-288 82.5-288H1439l1.5.4z"/>
        <path class="st0" d="M1362.3 1507.6l-10.9 40.2c-14.3 52.2-57.6 91.5-110.9 100.6l-137.6 23.5c.2-7.9 19.8-80 43.6-164.4h215.2l.6.1z"/>
        <path class="st0" d="M691 1219.4h537.9s-46.1 158.5-82.5 288H773.5c-36.4-129.5-82.5-288-82.5-288z"/>
        <path class="st0" d="M773.5 1507.4h372.9c-23.8 84.4-43.4 156.5-43.6 164.4L960 1696.3l-142.9-24.4c-.1-8-19.8-80.1-43.6-164.5z"/>
        <path class="st0" d="M817.1 1671.9l-137.6-23.5c-53.4-9.1-96.7-48.3-110.9-100.6l-11-40.4h215.9c23.8 84.4 43.5 156.5 43.6 164.5z"/>
        <path class="st0" d="M773.5 1507.4H557.6l-32.8-120.5-45.5-167.5H691s46.1 158.5 82.5 288z"/>
    </g>
    <path class="st0" d="M962.5 847.4c-200.1.6-436.5 42-436.5 42L407.7 956 361 982.4l-18-75 42-30.5 90-65.5s162-72 483.1-72 486.9 72 486.9 72l86.2 62.7 45.8 33.3-18 75-46.7-26.3-118.3-66.7s-231.5-41.4-431.5-42z" id="Layer_10"/>
    <path class="st0" d="M1502 1387.4l-36 126-102-6-1.5-.4 32.7-120.1 1.8.5h105zm-979 0H418l36 126 102-6h1.6l-32.8-120.5-1.8.5z" id="Layer_11"/>
    <g id="STROKES">
        <g id="XMLID_1_">
            <path class="st1" d="M1143.1 312.2c223.6 78.1 388.1 311.6 388.1 561.8"/>
            <path class="st1" d="M385 876.8c0-249.5 163.6-485.9 386-564.6"/>
            <path class="st1" d="M958.1 739.3c-321 0-483.1 72-483.1 72l-90 65.5-42 30.5 18 75 46.7-26.3L526 889.4s236.4-41.4 436.5-42h4.6"/>
            <path class="st1" d="M961.1 1696.4l-1.1-.2-142.9-24.4-137.6-23.5c-53.4-9.1-96.7-48.3-110.9-100.6l-11-40.4-32.8-120.5-45.5-167.5L407.7 956s-47.4 287.4 66.6 431.4"/>
            <path class="st1" d="M1361.7 1507.4H556"/>
            <path class="st1" d="M817.1 1672.4c0-.1.1-.3 0-.6-.2-7.9-19.8-80-43.6-164.4-36.4-129.5-82.5-288-82.5-288"/>
            <path class="st1" d="M526 889.4l57 330"/>
            <path class="st1" d="M523 1387.4H418l36 126 102-6"/>
            <path class="st1" d="M958.1 739.3c321 0 486.9 72 486.9 72l86.2 62.7 45.8 33.3-18 75-46.7-26.3-118.3-66.6s-231.5-41.4-431.5-42h-4.6"/>
            <path class="st1" d="M958.9 1696.4l1.1-.2 142.9-24.4 137.6-23.5c53.4-9.1 96.7-48.3 110.9-100.6l10.9-40.2.2-.6 32.7-120.1 45.4-167.1 71.7-263.8s47.4 287.4-66.6 431.4"/>
            <path class="st1" d="M478.1 1219.4H1439"/>
            <path class="st1" d="M1102.9 1672.4c0-.1-.1-.3-.1-.6.2-7.9 19.8-80 43.6-164.4 36.4-129.5 82.5-288 82.5-288"/>
            <path class="st1" d="M1394 889.4l-59.8 330"/>
            <path class="st1" d="M1397 1387.4h105l-36 126-102-6"/>
            <path class="st1" d="M841 555.6l-70-243.3-14-48.7s76-40 196-40h8c120 0 196 40 196 40l-14 48.7-70 243.3"/>
            <path class="st1" d="M957 836.6v-80"/>
        </g>
    </g>
</svg>
