<svg xmlns="http://www.w3.org/2000/svg" viewBox="0 0 1920 1920">
    <style>
        .st0{fill:#fff}.st1{fill:none;stroke:#231f20;stroke-width:50;stroke-linecap:round;stroke-linejoin:round;stroke-miterlimit:10}
    </style>
    <path class="st0" d="M1624.7 681.1c31.2 222.6-44.5 356.2-44.5 356.2s-311.7 178.1-431.9 267.1c-65.9 48.8-134.5 85.6-199.1 97.8-47.9 9.1-93.6 4.7-134.5-18.2-4.6-2.6-9.2-5.4-13.6-8.4-73.2-49.9-71.8-181.7-72-278.6-.1-32.9-.3-61.7-3.7-82-13.4-80.1-8.9-155.8-436.3-129.1 0 0-53.4-520.9 520.9-641.1s783.6 213.7 814.7 436.3zM1121.6 1153s-75.7-142.5-258.2-113.4c0 0-12.9 170.1 43.8 208.8 56.7 38.6 144.8-43.8 214.4-95.4z" id="Layer_1"/>
    <path class="st0" d="M949.2 1402.2l-125.9 298.4h-138l129.1-316.1.3-.5c40.9 22.9 86.6 27.3 134.5 18.2zm-42-153.9c56.7 38.7 144.8-43.8 214.4-95.3 0 0-75.7-142.5-258.2-113.4 0 0-12.9 170.1 43.8 208.7zM725.4 1015c-13.4-80.1-8.9-155.8-436.3-129.1l2.9 82c427.4-26.7 423 49 436.3 129.1h.8c-.1-32.9-.3-61.7-3.7-82z" id="Layer_4"/>
    <g id="STROKES">
        <g id="XMLID_1_">
            <path class="st1" d="M289.1 885.9S235.7 365 810 244.8s783.6 213.7 814.8 436.3c31.2 222.6-44.5 356.2-44.5 356.2s-311.7 178.1-431.9 267.1c-65.9 48.8-134.5 85.6-199.1 97.8-47.9 9.1-93.6 4.7-134.5-18.2-4.6-2.6-9.2-5.4-13.6-8.4-73.2-49.9-71.8-181.7-72-278.6-.1-32.9-.3-61.7-3.7-82-13.5-80.2-9-155.8-436.4-129.1z"/>
            <path class="st1" d="M814.4 1384.5l-129.1 316.1h138l125.9-298.4"/>
            <path class="st1" d="M863.4 1039.6s-12.9 170.1 43.8 208.8c56.7 38.7 144.8-43.8 214.4-95.3 0-.1-75.7-142.6-258.2-113.5z"/>
            <path class="st1" d="M728.3 1097c-13.4-80.1-8.9-155.8-436.3-129.1l-2.9-82"/>
        </g>
    </g>
</svg>
