<svg xmlns="http://www.w3.org/2000/svg" viewBox="0 0 1920 1920">
    <style>
        .st0{fill:#fff}.st1{fill:none;stroke:#231f20;stroke-width:50;stroke-linecap:round;stroke-linejoin:round;stroke-miterlimit:10}
    </style>
    <path class="st0" d="M1522.9 829.3c-16.6 8.1-32.2 17-46.7 26.7-24.3 16.1-45.9 34.2-65.3 54 23.4-8.8 43.3-14.1 60.1-16.6 100.1-15 91.3 67.6 91.3 67.6l-18.9 657.7h56.7c0-108.6 22-554.1 58.2-700.5 30.6-123.5 41.3-215.1 44-240.7-3.9 19.6-28.7 78.1-179.4 151.8z" id="Layer_14"/>
    <path class="st0" d="M1513.3 313.6c-17.8-14.6-43.8-13.7-60.4 2.3-6.8 6.6-14.7 14.5-23.4 23.8-74.7 79.9-210.9 261.4-293.1 586.8-5.6 22.1-11.3 43.3-17.1 63.6-147.9 304.1-314.8 343.2-393 316.6-78.2-26.6-182.3-16.3-182.3-16.3s-106 21.9-199.2 83.2c-55.2 36.3-106 86.5-127.7 154.1 0 0-22.7 91 535.9 91 0 0 302.1 3.2 412.5-217.6 86-171.9 121.7-357.7 236.8-482.1 2.8-3 5.6-6 8.5-9 19.4-19.8 41-37.9 65.3-54 14.5-9.6 30.1-18.5 46.7-26.7 150.7-73.7 175.5-132.2 179.4-152 .5-4.7.7-7.2.7-7.2s23.2-181.9-189.6-356.5z" id="Layer_15"/>
    <g id="STROKES">
        <path class="st1" d="M1703 670.1s-.2 2.5-.7 7.2c-4 19.8-28.7 78.3-179.4 152-16.6 8.1-32.2 17-46.7 26.7-24.3 16.1-45.9 34.2-65.3 54-2.9 3-5.7 5.9-8.5 9-115.1 124.4-150.8 310.2-236.8 482.1-110.5 220.8-412.6 217.5-412.6 217.5-558.7 0-535.9-91-535.9-91 21.7-67.6 72.5-117.8 127.7-154.1 93.3-61.4 199.2-83.2 199.2-83.2 281.1 169.1 457.5 108.6 575.3-300.3 5.9-20.3 11.6-41.5 17.1-63.6 82.1-325.4 218.4-506.9 293.1-586.8 8.7-9.3 16.5-17.2 23.4-23.8 16.6-16 42.6-17 60.4-2.3C1726.1 488.2 1703 670.1 1703 670.1z"/>
        <path class="st1" d="M1702.3 677.3c.5-4.7.7-7.2.7-7.2s.2 2.5-.7 7.2z"/>
        <path class="st1" d="M1702.3 677.3c-2.6 25.6-13.4 117.2-44 240.7-36.2 146.4-58.2 591.9-58.2 700.5h-56.7l18.9-657.7s8.8-82.7-91.3-67.6c-16.8 2.5-36.6 7.8-60.1 16.6 19.4-19.8 41-37.9 65.3-54 14.5-9.6 30.1-18.5 46.7-26.7 150.7-73.5 175.5-132 179.4-151.8z"/>
        <path class="st1" d="M1119.3 990.1C1001.6 1399 825.1 1459.5 544 1290.4c0 0 104.1-10.3 182.3 16.3 78.3 26.6 245.2-12.5 393-316.6z"/>
    </g>
</svg>
