<svg xmlns="http://www.w3.org/2000/svg" viewBox="0 0 1920 1920">
    <style>
        .st0{fill:#fff}.st1{fill:none;stroke:#231f20;stroke-width:50;stroke-linecap:round;stroke-linejoin:round;stroke-miterlimit:10}
    </style>
    <path class="st0" d="M1163.1 1223.1c-79.6-34.3-628.9-866.4-681.6-950.4-52.7-84-123.8-48.2-123.8-48.2-24.4 255.7 396.5 1042.5 528 1142.4 131.5 99.9 445.6-122.2 445.6-122.2s-88.6 12.7-168.2-21.6z" id="Layer_2"/>
    <path class="st0" d="M1700.2 1534.1c-45.9-170.2-368.8-289.3-368.8-289.3s-314.1 222.1-445.6 122.2c-131.5-99.9-552.4-886.7-528-1142.4-38.6-17.2-240.6 341.7-79 562.7l45.8 612.7h42l2.1-501.5c173.1 226 207.3 372.8 249.1 501.5 47.3 145.6 101.8 150.5 101.8 150.5 293.8 135.6 611.8 133.2 800.7 99.3 189-33.9 179.9-115.7 179.9-115.7z" id="Layer_16"/>
    <g id="STROKES">
        <path class="st1" d="M1331.4 1244.8s-314.1 222.1-445.6 122.2c-131.5-99.9-552.4-886.7-528-1142.4 0 0 71.1-35.8 123.8 48.2s601.9 916.1 681.6 950.4c79.5 34.2 168.2 21.6 168.2 21.6z"/>
        <path class="st1" d="M1520.3 1649.7c-188.9 33.8-506.8 36.3-800.7-99.3 0 0-54.5-4.8-101.8-150.5-41.8-128.8-76-275.6-249.1-501.6-22.7-29.6-47.8-60.6-75.6-93.1-5.1-5.9-9.8-11.9-14.3-18.1-161.6-220.9 40.4-579.9 79-562.7-24.4 255.7 396.5 1042.5 528 1142.4 131.5 99.9 445.6-122.2 445.6-122.2s322.9 119.1 368.8 289.3c0 .2 9.1 82-179.9 115.8z"/>
        <path class="st1" d="M368.6 898.4l-2.1 501.6h-42l-45.8-612.7c4.5 6.1 9.2 12.2 14.3 18.1 27.9 32.4 53 63.4 75.6 93z"/>
    </g>
</svg>
