<svg xmlns="http://www.w3.org/2000/svg" viewBox="0 0 1920 1920">
    <style>
        .st0{fill:#fff}.st1{fill:none;stroke:#231f20;stroke-width:50;stroke-linecap:round;stroke-linejoin:round;stroke-miterlimit:10}
    </style>
    <path class="st0" d="M615.6 629.3s-157 2.5-164.6 86.1c-1.5 17-.9 29.4 1.3 38.9 8.6 37.3 40.8 30.7 57 85.2 18.3 61.7 75.8 288.6 86.8 719.7 1.2 46.4 1.8 95.2 1.8 146.4h35.5c0-50.9.6-99.5 1.8-145.7 11-431.6 68.5-658.7 86.8-720.4 11.6-39.3 31.6-46.8 45.1-62 10-11.2 16.4-26.6 13.1-62.1-7.5-83.5-164.6-86.1-164.6-86.1zm853.4 86.2c-7.6-83.6-164.6-86.1-164.6-86.1s-157 2.5-164.6 86.1c-3.2 35.5 3.1 50.9 13.1 62.1 13.5 15.2 33.5 22.7 45.1 62 18.3 61.8 75.9 288.8 86.8 720.4 1.2 46.2 1.8 94.8 1.8 145.7h35.5c0-51.2.6-100 1.8-146.4 11-431.1 68.5-658 86.8-719.7 16.1-54.5 48.3-47.9 57-85.2 2.2-9.6 2.8-21.9 1.3-38.9z" id="Layer_8"/>
    <path class="st0" d="M767.1 777.6c-13.5 15.2-33.5 22.7-45.1 62-18.3 61.8-75.9 288.8-86.8 720.4 189.6 0 222.2-29.2 222.2-29.2s-8-1.8-20.1-9.8c-50-33.3-169.1-174.2-70.2-743.4zm-314.8-23.2c.5 4.2 41.6 384.2-2.1 761.7 0 0-4 37.6 145.9 43.2-11-431.1-68.5-658-86.8-719.7-16.2-54.5-48.4-47.9-57-85.2zm700.6 23.2c99 569.2-20.2 710.1-70.2 743.4-12 8-20.1 9.8-20.1 9.8s32.6 29.2 222.2 29.2c-11-431.6-68.5-658.7-86.8-720.4-11.6-39.4-31.7-46.9-45.1-62zm316.9 738.5c-43.8-377.5-2.6-757.5-2.1-761.7-8.6 37.3-40.8 30.7-57 85.2-18.3 61.7-75.8 288.6-86.8 719.7 149.9-5.6 145.9-43.2 145.9-43.2z" id="Layer_9"/>
    <path class="st0" d="M452.3 754.4c-2.2-9.5-2.9-21.9-1.3-38.9 0 0-33.7-50.4-41.4-107.2 0 0 2.4 135.5 2.4 286.8 0 94.3-1 194.8-4 272.5-.6 15-.9 29.6-.9 43.9 0 179.1 43 304.6 43 304.6 43.9-377.5 2.7-757.6 2.2-761.7zm370.9-163.9c-1.9 63.7-42.9 125-42.9 125 3.2 35.5-3.1 50.9-13.1 62.1-99 569.2 20.2 710.1 70.2 743.4 12 8 20.1 9.8 20.1 9.8s55.4-231.3 40.7-465.9c-14.5-229.8-72.6-298.7-75-474.4zm688.8 577c-3.1-77.6-4-178.1-4-272.5 0-151.3 2.4-286.8 2.4-286.8-7.8 56.8-41.4 107.2-41.4 107.2 1.5 17 .9 29.4-1.3 38.9-.5 4.2-41.6 384.2 2.1 761.7 0 0 43-125.5 43-304.6.1-14.3-.2-28.9-.8-43.9zm-359.1-389.9c-10-11.2-16.4-26.6-13.1-62.1 0 0-41-61.3-42.9-125-2.4 175.7-60.5 244.6-74.9 474.4-14.7 234.6 40.7 465.9 40.7 465.9s8-1.8 20.1-9.8c49.9-33.3 169-174.2 70.1-743.4z" id="Layer_10"/>
    <path class="st0" d="M813.4 536.8c-34.6-77.4-132.3-203.6-130.3-264.7 2-61.1-67.5-55-67.5-55s-69.5-6.1-67.5 55-95.7 187.3-130.3 264.7c-10.2 22.8-11.5 47.8-8.2 71.5 7.8 56.8 41.4 107.2 41.4 107.2 7.6-83.6 164.6-86.1 164.6-86.1s157 2.5 164.6 86.1c0 0 41-61.3 42.9-125-.1-3.6-.1-7.3-.1-11-.5-14.6-3.4-29-9.6-42.7zm688.8 0c-34.6-77.4-132.3-203.6-130.3-264.7 2-61.1-67.5-55-67.5-55s-69.5-6.1-67.5 55-95.7 187.3-130.3 264.7c-6.1 13.7-9 28.2-9.7 42.7 0 3.7 0 7.4-.1 11 1.9 63.7 42.9 125 42.9 125 7.6-83.6 164.6-86.1 164.6-86.1s157 2.5 164.6 86.1c0 0 33.7-50.4 41.4-107.2 3.4-23.8 2.1-48.7-8.1-71.5z" id="Layer_11"/>
    <g id="STROKES">
        <path class="st1" d="M823.2 590.5c-1.9 63.7-42.9 125-42.9 125-7.6-83.6-164.6-86.1-164.6-86.1s-157 2.5-164.6 86.1c0 0-33.7-50.4-41.4-107.2-3.2-23.8-1.9-48.7 8.3-71.5 34.6-77.4 132.3-203.6 130.3-264.7-2-61.1 67.5-55 67.5-55s69.5-6.1 67.5 55S779 459.4 813.6 536.8c7.5 17.1 10.1 35.5 9.6 53.7z"/>
        <path class="st1" d="M596.1 1559.3c-149.8-5.6-145.9-43.2-145.9-43.2 43.8-377.5 2.6-757.5 2.2-761.7 8.6 37.3 40.8 30.7 56.9 85.2 18.3 61.7 75.8 288.5 86.8 719.7z"/>
        <path class="st1" d="M857.4 1530.7s-32.6 29.2-222.2 29.2c11-431.6 68.5-658.7 86.8-720.4 11.6-39.3 31.6-46.8 45.1-62-122.8 706.5 90.3 753.2 90.3 753.2z"/>
        <path class="st1" d="M767.1 777.6c-13.5 15.2-33.5 22.7-45.1 62-18.3 61.8-75.9 288.8-86.8 720.4-1.2 46.2-1.8 94.8-1.8 145.7h-35.5c0-51.2-.7-100-1.8-146.4-11-431.1-68.5-658-86.8-719.7-16.1-54.5-48.3-47.9-56.9-85.2-2.2-9.5-2.9-21.9-1.3-38.9 7.6-83.6 164.6-86.1 164.6-86.1s157 2.5 164.6 86.1c3.2 35.5-3.2 50.9-13.2 62.1z"/>
        <path class="st1" d="M823.1 579.4c0 3.7 0 7.4.1 11.1 2.4 175.7 60.5 244.6 74.9 474.4 14.7 234.6-40.7 465.9-40.7 465.9"/>
        <path class="st1" d="M450.2 1516.1S400 1369.7 408 1167.5c8-202.2 1.6-559.2 1.6-559.2"/>
        <path class="st1" d="M1096.8 590.5c1.9 63.7 42.9 125 42.9 125 7.6-83.6 164.6-86.1 164.6-86.1s157 2.5 164.6 86.1c0 0 33.7-50.4 41.4-107.2 3.2-23.8 1.9-48.7-8.3-71.5-34.6-77.4-132.3-203.6-130.3-264.7 2-61.1-67.5-55-67.5-55s-69.5-6.1-67.5 55-95.7 187.3-130.3 264.7c-7.5 17.1-10.1 35.5-9.6 53.7z"/>
        <path class="st1" d="M1323.9 1559.3c149.8-5.6 145.9-43.2 145.9-43.2-43.8-377.5-2.6-757.5-2.2-761.7-8.6 37.3-40.8 30.7-56.9 85.2-18.3 61.7-75.8 288.5-86.8 719.7z"/>
        <path class="st1" d="M1062.6 1530.7s32.6 29.2 222.2 29.2c-11-431.6-68.5-658.7-86.8-720.4-11.6-39.3-31.6-46.8-45.1-62 122.8 706.5-90.3 753.2-90.3 753.2z"/>
        <path class="st1" d="M1152.9 777.6c13.5 15.2 33.5 22.7 45.1 62 18.3 61.8 75.9 288.8 86.8 720.4 1.2 46.2 1.8 94.8 1.8 145.7h35.5c0-51.2.7-100 1.8-146.4 11-431.1 68.5-658 86.8-719.7 16.1-54.5 48.3-47.9 56.9-85.2 2.2-9.5 2.9-21.9 1.3-38.9-7.6-83.6-164.6-86.1-164.6-86.1s-157 2.5-164.6 86.1c-3.2 35.5 3.2 50.9 13.2 62.1z"/>
        <path class="st1" d="M1096.9 579.4c0 3.7 0 7.4-.1 11.1-2.4 175.7-60.5 244.6-74.9 474.4-14.7 234.6 40.7 465.9 40.7 465.9"/>
        <path class="st1" d="M1469.8 1516.1s50.2-146.4 42.2-348.6c-8-202.2-1.6-559.2-1.6-559.2"/>
    </g>
</svg>
