<svg xmlns="http://www.w3.org/2000/svg" viewBox="0 0 1920 1920">
    <style>
        .st0{fill:#fff}.st1{fill:none;stroke:#000;stroke-width:50;stroke-linecap:round;stroke-linejoin:round;stroke-miterlimit:10}
    </style>
    <path class="st0" d="M1688 1115.4c-25.8-15.5-31-24.5-51.6-65.8-20.7-41.3-24.5-72.3-20.7-100.7 3.9-28.4-16.8-40-29.7-41.3-12.9-1.3-23.2-12.9-23.2-12.9s-6.2-14.9-13.9-28.8c0 0 38.1-103 6.1-99-31.7 4-68 52.5-68.7 53.3-21.7-12.5-46.9-29-66.8-46.9-38.7-34.8-200.1-62-200.1-62S1042.6 630 929 663.5c-113.6 33.6-140.7-42.1-246.5-8.1-105.8 33.9-307.2 54.6-338.1 101.1-31 46.5-121.3 105.8-118.7 144.5 2.6 38.7-24.5 113.6 10.3 136.8l19.8-128.3c-2.5 28.4 9.3 52.5 39.5 138.6 6.1 17.4 13 32.3 20.4 45-9.7 7.8-59.6 49.1-52.6 73.6 7.7 27.1 33.5 132.9 36.1 148.4 2.6 15.5 41.3 36.1 83.9 29.7 42.6-6.5 18.1-32.3 18.1-32.3s-37.4-51.6-32.3-64.5c4.9-12.3 40.9-60.1 57.4-68.9 22.8 28 50.3 114.1 60.7 116.3 12 2.6 16.3 14.6 36.1 34.4 19.8 19.8 91.2 12.9 99 12.1 7.8-.9 8.6-16.3 4.3-21.5-4.3-5.2-43.9-35.3-46.5-52-2.5-16.4-34.3-83.9-35.4-86.2C587.1 1254.3 737 1265 737 1265c225.5 18.8 304.1-46.5 326.6-73.5-12 26.5-12.9 81.8-12.9 81.8s-45.2 74.9 12.9 103.2c58.1 28.4 90.5-10.3 90.5-10.3s-32.7-12-24.1-49.9c8.6-37.9 56.8-131 56.8-131s1.6-4.8 30.1-11.3c.7-.1 1.3-.3 2-.5 3.2 4.1 9.4 12.7 12.1 20.3 14.8 41.1 31 135.5 68.4 145.8 37.4 10.3 96.8 7.8 91-11.6-5.8-19.4-20-16.8-31.6-51.6-11.6-34.8-21.9-44-19.4-56.2 2.2-10.6 3.3-58.4 3.6-70.8h.1c27.6 11.2 54.5 9.1 71.8 5.5 1.8 9.8 3.7 20.2 5.7 30.6 8.6 44.8 74 75.7 156.6 82.6 38.9 3.2 57.6-8.8 66.5-22.4 67.4-6 70-114.9 44.3-130.3z" id="Layer_2"/>
    <g id="STROKES">
        <path class="st1" d="M1643.6 1245.7c-8.9 13.6-27.5 25.7-66.5 22.4-82.6-6.9-147.9-37.9-156.6-82.6-2-10.4-3.9-20.8-5.7-30.6-17.2 3.6-44.1 5.7-71.8-5.5h-.1c-45.6-18.5-88.1 15.1-124.1 24.1-.7.2-1.3.3-2 .5-28.5 6.5-30.1 11.3-30.1 11.3s-48.2 93.2-56.8 131c-8.6 37.9 24.1 49.9 24.1 49.9s-32.5 38.7-90.5 10.3c-58.1-28.4-12.9-103.2-12.9-103.2s.9-55.3 12.9-81.8c5.5-6.6 7.6-10.9 7.8-11.2-3 2.4-5.6 6.3-7.8 11.2-22.5 27-101.1 92.3-326.6 73.5 0 0-149.9-10.7-192.5-82.6 1.1 2.4 32.9 69.9 35.4 86.2 2.6 16.7 42.2 46.8 46.5 52 4.3 5.2 3.4 20.7-4.3 21.5-7.7.9-79.2 7.7-99-12.1-19.8-19.8-24.1-31.8-36.1-34.4-10.4-2.2-37.9-88.3-60.7-116.3-3.7-4.6-7.4-7.6-10.7-8.5-19.9-5-65-17.5-99.8-77.6-7.4-12.7-14.3-27.6-20.4-45-30.2-86.1-42-110.2-39.5-138.6L258 896c-1 4.8-1.7 9.3-2.1 13.7L236 1038c-34.8-23.2-7.7-98.1-10.3-136.8-2.6-38.7 87.8-98.1 118.7-144.5 31-46.5 232.3-67.1 338.1-101.1 105.8-33.9 132.9 41.7 246.5 8.1s290.4 47.8 290.4 47.8 161.3 27.1 200.1 62c19.9 17.9 45.1 34.4 66.8 46.9 20.6 11.9 37.9 20.3 44.2 22.8 5.6 2.2 12.4 12.2 18.3 22.9 7.7 13.9 13.9 28.8 13.9 28.8s10.3 11.6 23.2 12.9c12.9 1.3 33.6 12.9 29.7 41.3-3.9 28.4 0 59.4 20.7 100.7 20.7 41.3 25.8 50.3 51.6 65.8 25.8 15.2 23.2 124.1-44.3 130.1z"/>
        <path class="st1" d="M1643.6 1245.7c-.3 0-.6.1-.9.1"/>
        <path class="st1" d="M369 1248.2c-5.2 12.9 32.3 64.5 32.3 64.5s24.5 25.8-18.1 32.3c-42.6 6.4-81.3-14.2-83.9-29.7-2.6-15.5-28.4-121.3-36.1-148.4-7-24.5 42.9-65.8 52.6-73.6 34.8 60 79.9 72.6 99.8 77.6 3.4.9 7 3.9 10.7 8.5-16.5 8.7-52.4 56.5-57.3 68.8z"/>
        <path class="st1" d="M1299.5 1339.6c-37.4-10.3-53.6-104.8-68.4-145.8-2.7-7.6-8.9-16.1-12.1-20.3 36-9.1 78.5-42.6 124.1-24.1-.2 12.5-1.4 60.2-3.6 70.8-2.6 12.2 7.7 21.3 19.4 56.2 11.6 34.8 25.8 32.3 31.6 51.6 5.8 19.3-53.6 21.9-91 11.6z"/>
        <path class="st1" d="M1350.7 874.6s-9-48 12-49.5 68.5 58.8 68.5 58.8-31 16.5-82.6 50.2c-51.6 33.6-14.4 108.5-14.4 108.5s8.8 41.3 68.6 41.3l2.3 12.1s4.1 26.4 9.8 58.8"/>
        <path class="st1" d="M1651.2 1213.1s2.4 17.3-7.6 32.6"/>
        <path class="st1" d="M1494.6 967.7l17.2 19.9"/>
        <path class="st1" d="M1548.9 866c-5.9-10.6-12.7-20.6-18.3-22.9-6.3-2.5-23.6-10.8-44.2-22.8.6-.8 36.9-49.4 68.7-53.3 31.9-4-6.2 99-6.2 99z"/>
        <path class="st1" d="M1643.6 1245.7c-8.9 13.6-27.5 25.7-66.5 22.4-82.6-6.9-147.9-37.9-156.6-82.6-2-10.4-3.9-20.8-5.7-30.6-17.2 3.6-44.1 5.7-71.8-5.5h-.1c-45.6-18.5-88.1 15.1-124.1 24.1-.7.2-1.3.3-2 .5-28.5 6.5-30.1 11.3-30.1 11.3s-48.2 93.2-56.8 131c-8.6 37.9 24.1 49.9 24.1 49.9s-32.5 38.7-90.5 10.3c-58.1-28.4-12.9-103.2-12.9-103.2s.9-55.3 12.9-81.8c5.5-6.6 7.6-10.9 7.8-11.2-3 2.4-5.6 6.3-7.8 11.2-22.5 27-101.1 92.3-326.6 73.5 0 0-149.9-10.7-192.5-82.6 1.1 2.4 32.9 69.9 35.4 86.2 2.6 16.7 42.2 46.8 46.5 52 4.3 5.2 3.4 20.7-4.3 21.5-7.7.9-79.2 7.7-99-12.1-19.8-19.8-24.1-31.8-36.1-34.4-10.4-2.2-37.9-88.3-60.7-116.3-3.7-4.6-7.4-7.6-10.7-8.5-19.9-5-65-17.5-99.8-77.6-7.4-12.7-14.3-27.6-20.4-45-30.2-86.1-42-110.2-39.5-138.6L258 896c-1 4.8-1.7 9.3-2.1 13.7L236 1038c-34.8-23.2-7.7-98.1-10.3-136.8-2.6-38.7 87.8-98.1 118.7-144.5 31-46.5 232.3-67.1 338.1-101.1 105.8-33.9 132.9 41.7 246.5 8.1s290.4 47.8 290.4 47.8 161.3 27.1 200.1 62c19.9 17.9 45.1 34.4 66.8 46.9 20.6 11.9 37.9 20.3 44.2 22.8 5.6 2.2 12.4 12.2 18.3 22.9 7.7 13.9 13.9 28.8 13.9 28.8s10.3 11.6 23.2 12.9c12.9 1.3 33.6 12.9 29.7 41.3-3.9 28.4 0 59.4 20.7 100.7 20.7 41.3 25.8 50.3 51.6 65.8 25.8 15.2 23.2 124.1-44.3 130.1z"/>
        <path class="st1" d="M1643.6 1245.7c-.3 0-.6.1-.9.1"/>
        <path class="st1" d="M369 1248.2c-5.2 12.9 32.3 64.5 32.3 64.5s24.5 25.8-18.1 32.3c-42.6 6.4-81.3-14.2-83.9-29.7-2.6-15.5-28.4-121.3-36.1-148.4-7-24.5 42.9-65.8 52.6-73.6 34.8 60 79.9 72.6 99.8 77.6 3.4.9 7 3.9 10.7 8.5-16.5 8.7-52.4 56.5-57.3 68.8z"/>
        <path class="st1" d="M1299.5 1339.6c-37.4-10.3-53.6-104.8-68.4-145.8-2.7-7.6-8.9-16.1-12.1-20.3 36-9.1 78.5-42.6 124.1-24.1-.2 12.5-1.4 60.2-3.6 70.8-2.6 12.2 7.7 21.3 19.4 56.2 11.6 34.8 25.8 32.3 31.6 51.6 5.8 19.3-53.6 21.9-91 11.6z"/>
        <path class="st1" d="M1350.7 874.6s-9-48 12-49.5 68.5 58.8 68.5 58.8-31 16.5-82.6 50.2c-51.6 33.6-14.4 108.5-14.4 108.5s8.8 41.3 68.6 41.3l2.3 12.1s4.1 26.4 9.8 58.8"/>
        <path class="st1" d="M1651.2 1213.1s2.4 17.3-7.6 32.6"/>
        <path class="st1" d="M1494.6 967.7l17.2 19.9"/>
        <path class="st1" d="M1548.9 866c-5.9-10.6-12.7-20.6-18.3-22.9-6.3-2.5-23.6-10.8-44.2-22.8.6-.8 36.9-49.4 68.7-53.3 31.9-4-6.2 99-6.2 99z"/>
    </g>
</svg>
