<svg xmlns="http://www.w3.org/2000/svg" viewBox="0 0 1920 1920">
    <style>
        .st0{fill:#fff}.st1{fill:none;stroke:#000;stroke-width:50;stroke-linecap:round;stroke-linejoin:round;stroke-miterlimit:10}
    </style>
    <path class="st0" d="M1671.4 1139c-107.8-152.7-197.6-136.5-258.7-240.7-61.1-104.2-116.8-59.3-161.7-115-7.1-8.8-14.2-16.8-21.7-24 .3-39.3-15.1-68-30.2-86.7-9.2-11.3-27.5-7.6-31.3 6.4-3.6 13.2-10 26.2-17.5 38.3-25-4.4-54.2-3.1-89.7 4.9-62.9 5.4-60.2-99.7-159.9-85.3-25.5 3.7-44.2 11.4-57.9 20.9-82.8-11.3-289.4-70.7-360.4-91.5-20.5-16.4-44.3-35.2-69-54.4 0 0-148.2-75.5-191.4 148.2s191.4 226.4 309.9 164.4c0 0 3.6 2.3 10.3 5.8 63.9 75.4 188.9 276.3-86.5 464.6 0 0-6.4 3.5-18 8.7-17.5 7.9-46.7 19.9-83.7 30.1-.4.1-.7.2-1 .3-15.6 4.3-32.6 8.3-50.6 11.5-89.8 16.2-23.4 82.6 70.1 93.4s397 0 397 0 168.2 33.6 342.2 59.3c104.6 15.4 211.2 28 284.8 28.7 195.9 1.9 382.7-235.2 274.9-387.9zM922.8 826.4c-12.7-2.1-24.9-9.5-30.5-21.2-5.1-10.8-4.1-23.6-8.8-34.5-.4-1-.3-3.8-1-3.9 16.7-3.9 35.2-4.8 50 3.9 16.2 9.5 24.3 28.2 31.4 45.6-12.1 4.5-28.4 12.2-41.1 10.1z" id="Layer_8"/>
    <path class="st0" d="M376.4 1179.9c-4.2-19.5-32-20.1-36.7-.7-17.1 69.4 5.9 132.5 13.5 154.8.4-.1.7-.2 1-.3 37-10.3 66.3-22.2 83.7-30.1-34.7-30-52.5-82-61.5-123.7z" id="Layer_9"/>
    <path class="st0" d="M932.5 770.7c-14.8-8.7-33.3-7.8-50-3.9.7.1.6 2.9 1 3.9 4.8 10.9 3.7 23.8 8.8 34.5 5.5 11.6 17.8 19.1 30.5 21.2 12.7 2.1 29-5.6 41-10.1-7-17.4-15.1-36.1-31.3-45.6z" id="Layer_10"/>
    <g id="STROKES">
        <path class="st1" d="M542.4 830.3c25.2 13.2 93.9 42.6 176.9 24.9"/>
        <path class="st1" d="M482.5 566.2c38.7 31 65.7 53.4 65.7 53.4"/>
        <path class="st1" d="M805.5 727.6s-2.5-42.3 37.3-69.8"/>
        <path class="st1" d="M437.9 1303.6c-17.5 7.9-46.7 19.9-83.7 30.1-.4.1-.7.2-1 .3-7.6-22.3-30.6-85.5-13.5-154.8 4.8-19.4 32.5-18.9 36.7.7 9 41.7 26.8 93.7 61.5 123.7z"/>
        <path class="st1" d="M1671.4 1139c-107.8-152.7-197.6-136.5-258.7-240.7-61.1-104.2-116.8-59.3-161.7-115-7.1-8.8-14.2-16.8-21.7-24 .3-39.3-15.1-68-30.2-86.7-9.2-11.3-27.5-7.6-31.3 6.4-3.6 13.2-10 26.2-17.5 38.3-25-4.4-54.2-3.1-89.7 4.9-62.9 5.4-60.2-99.7-159.9-85.3-25.5 3.7-44.2 11.4-57.9 20.9-82.8-11.3-289.4-70.7-360.4-91.5-20.5-16.4-44.3-35.2-69-54.4 0 0-148.2-75.5-191.4 148.2s191.4 226.4 309.9 164.4c0 0 3.6 2.3 10.3 5.8 63.9 75.4 188.9 276.3-86.5 464.6 0 0-6.4 3.5-18 8.7-17.5 7.9-46.7 19.9-83.7 30.1-.4.1-.7.2-1 .3-15.6 4.3-32.6 8.3-50.6 11.5-89.8 16.2-23.4 82.6 70.1 93.4s397 0 397 0 168.2 33.6 342.2 59.3c104.6 15.4 211.2 28 284.8 28.7 195.9 1.9 382.7-235.2 274.9-387.9zM350.2 617.1c-10.3-10.2 13.6-21.7 13.6-21.7l38.4 32.1s-41.7-.3-52-10.4zm572.6 209.3c-12.7-2.1-24.9-9.5-30.5-21.2-5.1-10.8-4.1-23.6-8.8-34.5-.4-1-.3-3.8-1-3.9-.1 0-.2 0-.3.1.1-.1.2-.1.3-.1 16.7-3.9 35.2-4.8 50 3.9 16.2 9.5 24.3 28.2 31.4 45.6-12.1 4.5-28.4 12.2-41.1 10.1z"/>
        <path class="st1" d="M963.8 816.3c-12.1 4.5-28.4 12.2-41 10.1-12.7-2.1-24.9-9.5-30.5-21.2-5.1-10.8-4.1-23.6-8.8-34.5-.4-1-.3-3.8-1-3.9 16.7-3.9 35.2-4.8 50 3.9 16.2 9.5 24.3 28.2 31.3 45.6z"/>
        <path class="st1" d="M1229.3 759.3c-.2 24.3-6.4 52.6-22.3 85.1"/>
        <path class="st1" d="M1096.6 780.6s31.7-27.6 53.8-63.3"/>
        <path class="st1" d="M1111.8 1498.4s196.9-94.3 289.8-313.9"/>
        <path class="st1" d="M882.4 766.8c-.1 0-.2 0-.3.1.1-.1.3-.1.3-.1z"/>
        <path class="st1" d="M1180.5 987.7c27.7 78.1 28.6 165.3 2.6 243.9"/>
        <path class="st1" d="M761.1 1530c92 66.7 201 107 312.1 131s224.8 32.6 338.1 41.2"/>
        <path class="st1" d="M1367.5 1618.5c45.9 7.8 92.8 9 139 3.6"/>
        <path class="st1" d="M747 977s30 260.2-162 334.1"/>
        <path class="st1" d="M402.2 627.5s-41.8-.3-52.1-10.4c-10.3-10.2 13.6-21.7 13.6-21.7l38.5 32.1z"/>
    </g>
</svg>
