<svg xmlns="http://www.w3.org/2000/svg" viewBox="0 0 1920 1920">
    <style>
        .st0{fill:#fff}.st1{fill:none;stroke:#231f20;stroke-width:50;stroke-linecap:round;stroke-linejoin:round;stroke-miterlimit:10}
    </style>
    <path class="st0" d="M1677.7 822.2v293.9c0 88.8-200.4 160.7-447.7 160.7-247.2 0-447.7-71.9-447.7-160.7V822.2l2.7-.8c24.4 80.5 214.3 143.1 445 143.1s420.7-62.7 445-143.1l2.7.8z" id="Layer_5"/>
    <path class="st0" d="M1677.7 803.9c0 5.9-.9 11.8-2.6 17.6-24.4 80.5-214.3 143.1-445 143.1s-420.7-62.7-445-143.1c-1.8-5.8-2.7-11.6-2.7-17.6 0-88.8 200.4-160.7 447.7-160.7 247.2 0 447.6 71.9 447.6 160.7zm-203.3-7.3c0-35.6-109.4-64.4-244.4-64.4S985.6 761 985.6 796.6c0 35.6 109.4 64.4 244.4 64.4s244.4-28.8 244.4-64.4z" id="Layer_6"/>
    <path class="st0" d="M1230 732.2c135 0 244.4 28.8 244.4 64.4 0 35.6-109.4 64.4-244.4 64.4s-244.4-28.8-244.4-64.4c.1-35.6 109.5-64.4 244.4-64.4z" id="Layer_8"/>
    <g id="STROKES">
        <path class="st1" d="M785 821.5c-1.8-5.8-2.7-11.6-2.7-17.6 0-88.8 200.4-160.7 447.7-160.7 247.2 0 447.7 71.9 447.7 160.7 0 5.9-.9 11.8-2.6 17.6-24.4 80.5-214.3 143.1-445 143.1-230.8 0-420.7-62.7-445.1-143.1z"/>
        <path class="st1" d="M1474.4 796.6c0 35.6-109.4 64.4-244.4 64.4s-244.4-28.8-244.4-64.4c0-35.6 109.4-64.4 244.4-64.4s244.4 28.8 244.4 64.4z"/>
        <path class="st1" d="M1677.7 822.2v293.9c0 88.8-200.4 160.7-447.7 160.7-247.2 0-447.7-71.9-447.7-160.7V822.2"/>
        <path class="st1" d="M359.9 831.6h255.5"/>
        <path class="st1" d="M359.9 1102.4h255.5"/>
        <path class="st1" d="M242.3 964.4h383.3"/>
    </g>
</svg>
