<svg xmlns="http://www.w3.org/2000/svg" viewBox="0 0 1920 1920">
    <style>
        .st0{fill:#fff}.st1{fill:none;stroke:#231f20;stroke-width:50;stroke-linecap:round;stroke-linejoin:round;stroke-miterlimit:10}
    </style>
    <path class="st0" d="M981.9 478.5c-28.3-22.8-69.1-3.9-69.1-3.9-7.9-22-44.8-17.3-44.8-17.3l-63.6 90.3c-17.3 16.5 10.2 57.3 10.2 57.3l10.9 28.1 23.6 60.6s-5.5 36.1 44 26.7C942.7 711 989 609.7 989 609.7s2.6-13.4 4.8-31.8c4-33.9 6.5-84.7-11.9-99.4z" id="Layer_35"/>
    <path class="st0" d="M1155.3 546.6s-17.4-14.4-36.9-7.2c-8.7 3.2-64.8 20.3-124.5 38.5-2.2 18.4-4.8 31.8-4.8 31.8S942.7 711 893.2 720.4c-49.5 9.4-44-26.7-44-26.7l-23.6-60.6c-27.4 19.3-90.2 70.4-88.9 133.6 1.7 80.8 19.8 97.2 19.8 97.2s-20.6 52.4 0 78.2c0 0-7.7 56.7 9.5 67.1 0 0 3.4-3.9 9.3-8.7 11.8-9.6 33.7-23.1 59.4-17.9 38.7 7.7 42.1 26.6 42.1 26.6s118.5 23.7 211.2-27.5l110.6-81.4c-10.8-6.6-34 14.8-34 14.8s8.5-59.3 19.1-67.7c10.6-8.5 13.8-50.8 14.8-67.7 1.1-16.8-8.5-66.1-8.7-67 8.4 1 16.5.9 21.4-1.8 13.8-7.4 89.8-49.2 89.8-49.2l20.5-36.7c0-.2-21.6-89.7-166.2-78.4z" id="Layer_36"/>
    <path class="st0" d="M1289.7 911.8c6.2 7.2-5.1 69.7-5.1 69.7s-66 13.7-80.8 0c-14.8-13.7 0-39.1 0-39.1s13.9-30.7-5.2-42.3c-10.8-6.6-34 14.8-34 14.8s8.5-59.3 19.1-67.7c10.6-8.5 13.8-50.8 14.8-67.7 1.1-16.8-8.5-66.1-8.7-67 8.4 1 16.5.9 21.4-1.8 13.8-7.4 89.8-49.2 89.8-49.2l9.2 142.6-16.4 30.8c16.4 16.4-10.3 69.8-4.1 76.9z" id="Layer_37"/>
    <path class="st0" d="M928.4 1173.3l-.2.2c-3.5 2.7-6.8 5.3-9.8 7.7-1.3 1-2.5 2-3.7 2.9-1.6 1.3-3.1 2.4-4.4 3.6-1.6 1.3-3.1 2.5-4.4 3.6-.9.7-1.7 1.4-2.4 2-.5.4-1 .8-1.4 1.1-.9.7-1.6 1.3-2.2 1.8-.2.2-.4.3-.6.5-.2.2-.4.4-.6.5l-.1.1c-.1.1-.2.1-.2.2l-.2.2s-41.3 40.2-65.3 27.6c-7.9-4.1-17.5-18.6-26.8-36.1-18.9-35.5-36.5-83.6-36.5-83.6L789 1054l.1-.2v-.1c-7.9-11.6-11.9-36.2-13.9-53.4 11.8-9.6 33.7-23.1 59.4-17.9 38.7 7.7 42.1 26.6 42.1 26.6l-34.8 36.7c12.6 8 39.4 52.6 39.4 52.6l15.1 24.1 32 50.9z" id="Layer_38"/>
    <path class="st0" d="M1615.7 1390.4c0 7.2-2.5 13.6-4.2 17.2-28.8 8.3-58.1 14.9-87.6 19.9-.8-1.1-1.3-1.7-1.3-1.7-85.2-36.9-135.4-130.3-135.4-130.3-68.7-16.4-98.5-84.1-98.5-84.1-15.4 1-38-11.3-38-11.3-31.8-60.5-174.3-116.8-174.3-116.8-32.6 3.2-106.3 57.4-148 89.9l-31.9-50.8-15.1-24.1s-26.8-44.6-39.4-52.6l34.8-36.7s118.5 23.7 211.2-27.5l110.6-81.4c19.1 11.7 5.2 42.3 5.2 42.3s-14.8 25.4 0 39.1c14.8 13.7 80.8 0 80.8 0l31.8 17.5s-13.3 15.4 16.4 40c29.8 24.6 63.6 104.6 63.6 104.6 32.8 5.1 81 72.8 81 72.8 26.7 18.5 119 139.5 132.4 156.5 4.4 5.8 5.9 11.9 5.9 17.5z" id="Layer_39"/>
    <path class="st0" d="M926.5 1301.3c0 4.8-.1 9.6-.2 14.1 0 1.2-.1 2.3-.1 3.4s-.1 2.2-.1 3.4c-.1 2.8-.3 5.5-.5 8.1-.1 1.1-.1 2.1-.2 3.1l-.5 6c-.1 1-.2 1.9-.2 2.9l-.7 6.8c-.1.9-.2 1.7-.3 2.5l-.3 2.4c-.2 1.6-.3 3.1-.5 4.4-.2 1.8-.4 3.4-.6 4.8-.1.6-.2 1.1-.2 1.7-.3 1.9-.5 3.5-.7 4.7-.1.4-.1.7-.2 1 0 .3-.1.6-.1.8-.1 1-.2 1.5-.2 1.5-9.2 25.8-25.6 44.6-39.7 57-14.1 12.4-25.9 18.3-25.9 18.3-8.6.9-19.8-6.9-19.8-6.9-42.1-79.1-53.3-214.1-53.3-214.1s-.2-.6-.5-1.6c-.1-.2-.1-.5-.2-.8l-.3-.9c-.1-.5-.3-1-.5-1.5-.5-1.5-1.1-3.3-1.7-5.4-.3-1-.7-2.1-1-3.2-.4-1.1-.7-2.3-1.1-3.6-2.7-8.4-6-18.9-9.1-28.9-3.1-10-6-19.3-7.9-25.6-.5-1.6-.7-3.5-.7-5.8 0-10.5 4.7-27.8 10.4-44.9 0 0 17.6 48.1 36.5 83.6 9.3 17.5 18.9 31.9 26.8 36.1 24 12.6 65.3-27.6 65.3-27.6 9.9 9.4 16.6 23 21 38.6.3 1.1.6 2.2.9 3.4.3 1.1.6 2.3.8 3.4.3 1.2.5 2.3.8 3.5.2 1.2.5 2.3.7 3.5l.6 3.6.6 3.6c.2 1.2.3 2.4.5 3.6.2 1.2.3 2.4.5 3.7.1 1.2.3 2.5.4 3.7.1 1.2.2 2.5.4 3.7.8 10.3 1.1 20.3 1.1 29.9z" id="Layer_40"/>
    <path class="st0" d="M952.5 1495.2s-15.6 4-46.3 38.1c-30.7 34-88.1 13.4-88.1 13.4s-11.8-22.6 9.7-40.7 27.5-57.6 27.5-57.6 11.8-5.9 25.9-18.3c14.1-12.4 30.5-31.2 39.7-57l31.6 122.1z" id="Layer_41"/>
    <path class="st0" d="M1701.1 1500.7l-91.3-90s.2-.3.5-.8.7-1.3 1.2-2.3c-28.8 8.3-58.1 14.9-87.6 19.9 6 7.8 32.1 41.2 62.3 71.5 27.4 27.6 58.2 52.8 80.1 53.8 31.1 1.4 36.8-19.7 36.8-35.5 0-9.2-2-16.6-2-16.6zm0 0l-91.3-90s.2-.3.5-.8.7-1.3 1.2-2.3c-28.8 8.3-58.1 14.9-87.6 19.9 6 7.8 32.1 41.2 62.3 71.5 27.4 27.6 58.2 52.8 80.1 53.8 31.1 1.4 36.8-19.7 36.8-35.5 0-9.2-2-16.6-2-16.6z" id="Layer_42"/>
    <g id="STROKES">
        <path class="st1" d="M993.8 577.9c-2.2 18.4-4.8 31.8-4.8 31.8S942.7 711 893.2 720.4c-49.5 9.4-44-26.7-44-26.7l-23.6-60.6-10.9-28.1s-27.5-40.8-10.2-57.3l63.6-90.3s36.9-4.7 44.8 17.3c0 0 40.8-18.9 69.1 3.9 18.3 14.6 15.8 65.4 11.8 99.3z"/>
        <path class="st1" d="M804.4 547.6s3.9 27.5 56.6 25.9c52.6-1.6 97.4-39.3 97.4-39.3"/>
        <path class="st1" d="M928.4 557.9v63"/>
        <path class="st1" d="M845 867.2c21.5 16.3 37.8 53.3 43 73.9 5.2 20.6-11.2 67.9-11.2 67.9"/>
        <path class="st1" d="M1310.2 804.1c-31.6-39.8-111.7-24.6-111.7-24.6 1.1-16.8-8.5-66.1-8.7-67 8.4 1 16.5.9 21.4-1.8 13.8-7.4 89.8-49.2 89.8-49.2l9.2 142.6z"/>
        <path class="st1" d="M928.4 1173.3l-.2.2c-3.5 2.7-6.8 5.3-9.8 7.7-1.3 1-2.5 2-3.7 2.9-1.6 1.3-3.1 2.4-4.4 3.6-1.6 1.3-3.1 2.5-4.4 3.6-.9.7-1.7 1.4-2.4 2-.5.4-.9.8-1.4 1.1-.9.7-1.6 1.3-2.2 1.8-.2.2-.4.3-.6.5-.2.2-.4.4-.6.5l-.1.1c-.1.1-.2.1-.2.2l-.2.2s-41.3 40.2-65.3 27.6c-7.9-4.1-17.5-18.6-26.8-36.1-18.9-35.5-36.5-83.6-36.5-83.6L789 1054l.1-.2v-.1s40.3-16 52.9-8c12.6 8 39.4 52.6 39.4 52.6l15.1 24.1 31.9 50.9z"/>
        <path class="st1" d="M902 1194.3c.4-.4.9-.7 1.4-1.1-.5.4-1 .8-1.4 1.1z"/>
        <path class="st1" d="M918.4 1181.2c-1.3 1-2.5 2-3.7 2.9 1.2-.9 2.4-1.9 3.7-2.9z"/>
        <path class="st1" d="M1523.9 1427.5c11.4 14.8 96.5 123.2 142.3 125.3 49.2 2.3 34.9-52.1 34.9-52.1l-91.3-90s.7-1.1 1.7-3.1"/>
        <path class="st1" d="M1289.7 911.8c6.2 7.2-5.1 69.7-5.1 69.7s-66 13.7-80.8 0c-14.8-13.7 0-39.1 0-39.1s13.9-30.7-5.2-42.3c-10.8-6.6-34 14.8-34 14.8s8.5-59.3 19.1-67.7c10.6-8.5 13.8-50.8 14.8-67.7 0 0 80.1-15.2 111.7 24.6l-16.4 30.8c16.4 16.4-10.3 69.8-4.1 76.9z"/>
        <path class="st1" d="M920.9 1373.1c-18.5 51.6-65.6 75.3-65.6 75.3-8.6.9-19.8-6.9-19.8-6.9-42.1-79.1-53.3-214.1-53.3-214.1s-2.2-7-5.3-16.9l29.2-21.5c9.3 17.5 18.9 31.9 26.8 36.1 24 12.6 65.3-27.6 65.3-27.6 45.4 42.7 22.7 175.6 22.7 175.6z"/>
        <path class="st1" d="M789.1 1053.8s0 .1-.1.2c-1 2.4-11.3 26.7-19.5 51.4-6.9 20.8-12.4 41.9-9.7 50.7 3.8 12.5 11.7 37.6 17 54.4"/>
        <path class="st1" d="M920.9 1373.1l31.6 122.2s-15.6 4-46.3 38.1c-30.7 34-88.1 13.3-88.1 13.3s-11.8-22.6 9.7-40.7 27.5-57.6 27.5-57.6"/>
        <path class="st1" d="M773.7 981.6s.4 8 1.6 18.8"/>
        <path class="st1" d="M876.8 1009.1l-34.8 36.7c-12.6-8-52.9 8-52.9 8-7.9-11.6-11.9-36.2-13.9-53.4 11.8-9.6 33.7-23.1 59.4-17.9 38.8 7.7 42.2 26.6 42.2 26.6z"/>
        <path class="st1" d="M1321.5 624.8l-20.5 36.7s-76 41.8-89.8 49.2c-4.9 2.6-13 2.7-21.4 1.8.2.9 9.7 50.3 8.7 67-1.1 16.9-4.2 59.3-14.8 67.7-10.6 8.5-19.1 67.7-19.1 67.7s23.1-21.4 34-14.8L1088 981.6c-92.6 51.2-211.2 27.5-211.2 27.5s-3.4-18.9-42.1-26.6c-25.7-5.1-47.6 8.3-59.4 17.9-6 4.8-9.3 8.7-9.3 8.7-17.2-10.3-9.5-67.1-9.5-67.1-20.6-25.8 0-78.2 0-78.2s-18.1-16.3-19.8-97.2c-1.3-63.2 61.5-114.3 88.9-133.6l23.6 60.6s-5.5 36.1 44 26.7C942.7 711 989 609.7 989 609.7s2.6-13.4 4.8-31.8c59.8-18.1 115.9-35.3 124.5-38.5 19.5-7.2 36.9 7.2 36.9 7.2 144.7-11.3 166.3 78.2 166.3 78.2z"/>
        <path class="st1" d="M1611.5 1407.6c-28.8 8.3-58.1 14.9-87.6 19.9-.8-1.1-1.3-1.7-1.3-1.7-85.2-36.9-135.4-130.3-135.4-130.3-68.7-16.4-98.5-84.1-98.5-84.1-15.4 1-38-11.3-38-11.3-31.8-60.5-174.3-116.8-174.3-116.8-32.6 3.2-106.3 57.4-148 89.9l-31.9-50.8L1088 981.6l110.6-81.4c19.1 11.7 5.2 42.3 5.2 42.3s-14.8 25.4 0 39.1c14.8 13.7 80.8 0 80.8 0l31.8 17.5s-13.3 15.4 16.4 40c29.8 24.6 63.6 104.6 63.6 104.6 32.8 5.1 81 72.8 81 72.8 26.7 18.5 119 139.5 132.4 156.5 10.2 13.1 4.8 28.2 1.7 34.6z"/>
        <path class="st1" d="M1088 981.6l-191.4 140.9-15.1-24.1s-26.8-44.6-39.4-52.6l34.8-36.7c-.1 0 118.4 23.7 211.1-27.5z"/>
        <path class="st1" d="M1189.8 712.4c-15.3-1.8-31.5-7-31.5-7"/>
        <path class="st1" d="M928.2 1173.5l-29.5 23.6c.2-.1.4-.3.6-.5.2-.1.4-.3.6-.5.6-.5 1.3-1.1 2.2-1.8.4-.4.9-.7 1.4-1.1.7-.6 1.6-1.3 2.4-2 1.3-1.1 2.8-2.3 4.4-3.6 1.4-1.1 2.9-2.3 4.4-3.6 1.2-.9 2.4-1.9 3.7-2.9 3-2.3 6.3-4.9 9.8-7.6z"/>
        <path class="st1" d="M776.9 1210.5l-363 267.2-185.2-83-11.6 53.7 196.8 29.3"/>
    </g>
</svg>
