<svg xmlns="http://www.w3.org/2000/svg" viewBox="0 0 1920 1920">
    <style>
        .st0{fill:#fff}.st1{fill:none;stroke:#231f20;stroke-width:50;stroke-linecap:round;stroke-linejoin:round;stroke-miterlimit:10}
    </style>
    <path class="st0" d="M1243.9 214.9l-90.7 1311c-.9 44.1-27 83.9-67.1 102.3L836.3 1704c-15.8 7.2-34.2-1.5-38.7-18.2l-18.1-68.2c-3.7-14 3.2-28.7 16.4-34.8l177-48.8c54.7-25.1 100.6-83.4 103.1-143.6l84.7-1175.8 83.2.3z" id="Layer_7"/>
    <g id="STROKES">
        <path class="st1" d="M1243.9 214.9l-90.7 1311c-.9 44.1-27 83.9-67.1 102.3L836.3 1704c-15.8 7.2-34.2-1.5-38.7-18.2l-18.1-68.2c-3.7-14 3.2-28.7 16.4-34.8l177-48.8c54.7-25.1 100.6-83.4 103.1-143.6l84.7-1175.8 83.2.3z" id="XMLID_1_"/>
    </g>
</svg>
