<svg xmlns="http://www.w3.org/2000/svg" viewBox="0 0 1920 1920">
    <style>
        .st0{fill:#fff}.st1{fill:none;stroke:#231f20;stroke-width:50;stroke-linecap:round;stroke-linejoin:round;stroke-miterlimit:10}
    </style>
    <path class="st0" d="M1704.4 700.4v519.1c0 147.6-333.3 267.2-744.4 267.2s-744.4-119.6-744.4-267.2V700.4c0 147.6 333.3 267.2 744.4 267.2s744.4-119.6 744.4-267.2z" id="Layer_1"/>
    <path class="st0" d="M960 433.2c411.1 0 744.4 119.6 744.4 267.2S1371.1 967.6 960 967.6 215.6 848 215.6 700.4 548.9 433.2 960 433.2z" id="Layer_3"/>
    <g id="STROKES">
        <g id="XMLID_1_">
            <path class="st1" d="M1704.4 700.4c0 147.6-333.3 267.2-744.4 267.2S215.6 848 215.6 700.4 548.9 433.2 960 433.2s744.4 119.6 744.4 267.2z"/>
            <path class="st1" d="M1704.4 700.4v519.1c0 147.6-333.3 267.2-744.4 267.2s-744.4-119.6-744.4-267.2V700.4"/>
        </g>
    </g>
</svg>
