<svg xmlns="http://www.w3.org/2000/svg" viewBox="0 0 1920 1920">
    <style>
        .st0{fill:#fff}.st1{fill:none;stroke:#231f20;stroke-width:50;stroke-linecap:round;stroke-linejoin:round;stroke-miterlimit:10}
    </style>
    <path class="st0" d="M717 1703.4H373.2c-27.5 0-48.4-24.8-43.7-51.9l19.1-110.4c3.9-22.7 23.6-39.3 46.7-39.3h240.8c95.6 0 200.5-53.6 243.9-138.8l624.9-1146.4 86.3 37.6-709.6 1346.1c-30.6 63.1-94.5 103.1-164.6 103.1z" id="Layer_6"/>
    <g id="STROKES">
        <g id="XMLID_1_">
            <path class="st1" d="M1591.2 254.2L881.6 1600.3c-30.6 63.1-94.5 103.1-164.6 103.1H373.2c-27.5 0-48.4-24.8-43.7-51.9l19.1-110.4c3.9-22.7 23.6-39.3 46.7-39.3h240.8c95.6 0 200.5-53.6 243.9-138.8l624.9-1146.4 86.3 37.6z"/>
            <path class="st1" d="M433.2 1506.2l24 194"/>
            <path class="st1" d="M529.2 1700.2c0-6-2-190-2-190"/>
            <path class="st1" d="M614.2 1506.2l-4 196"/>
            <path class="st1" d="M683.2 1700.2l48-210"/>
            <path class="st1" d="M1373.2 470.2l75 40"/>
            <path class="st1" d="M1265.2 670.2l75 40"/>
        </g>
    </g>
</svg>
