<svg xmlns="http://www.w3.org/2000/svg" viewBox="0 0 1920 1920">
    <style>
        .st0{fill:#fff}.st1{fill:none;stroke:#231f20;stroke-width:50;stroke-linecap:round;stroke-linejoin:round;stroke-miterlimit:10}
    </style>
    <path class="st0" d="M1317.8 998.1l-332 616c-.4.8-.8 1.5-1.2 2.3-23.3 41.9-74.2 60-119.2 43.4l-441.5-162.5c-40.2-4.9-66.4-44.7-55-83.6l26-88.3c7-23.8 30.4-38.8 54.9-35.4l349.7 127.6c45.3 16.5 96.5-1.8 119.8-44.1.4-.8.8-1.5 1.2-2.3l238.6-461.9 158.7 88.8z" id="Layer_3"/>
    <g id="STROKES">
        <g id="XMLID_1_">
            <path class="st1" d="M449.8 1290.1l349.7 127.6c45.3 16.5 96.5-1.8 119.8-44.1.4-.8.8-1.5 1.2-2.3l238.6-461.9 158.6 88.8-332 616c-.4.8-.8 1.5-1.2 2.3-23.3 41.9-74.2 60-119.2 43.4l-441.5-162.5c-40.2-4.9-66.4-44.7-55-83.6l26-88.3c7.1-23.8 30.4-38.9 55-35.4z"/>
            <path class="st1" d="M1237.8 950.1l316-696"/>
        </g>
    </g>
</svg>
