<svg xmlns="http://www.w3.org/2000/svg" viewBox="0 0 1920 1920">
    <style>
        .st0{fill:#fff}.st1{fill:none;stroke:#231f20;stroke-width:50;stroke-linecap:round;stroke-linejoin:round;stroke-miterlimit:10}
    </style>
    <path class="st0" d="M1466 1021.2c-24.1-108.6-120.5-289.5-120.5-289.5-37.7-60.7-214.7-113.2-225.4-116.4-.3-.1-.5-.1-.5-.1 54.7-160.4 11.5-312.9 11.5-312.9C1090.2 198.7 960 183.5 960 183.5h-14.5s-130.2 15.2-171.2 118.7c0 0-43.2 152.5 11.5 312.9 0 0-187 53.9-225.9 116.5 0 0-96.4 181-120.5 289.5-25.1 113.2 27.4 495.2 27.4 495.2h10.4v77.5h84.5v-77.5h9.1s17.3-272 10.7-317.3c0 0 26.7-132 68-146.6 0 0-33.1 460.1 17.9 555.3 0 0 9.7 2.7 28.9 6.4v60.9s15.9 7.3 58.8 14.5c39.7 6.6 102.7 13.1 197.6 13.4 95-.3 157.9-6.8 197.6-13.4 42.9-7.2 58.8-14.5 58.8-14.5v-60.9c19.2-3.7 28.9-6.4 28.9-6.4 51.1-95.2 17.9-555.3 17.9-555.3 41.3 14.7 68 146.6 68 146.6-6.7 45.3 10.7 317.3 10.7 317.3h9.1v77.5h84.5v-77.5h10.4c0 .2 52.5-381.8 27.4-495.1zM952.7 672.6S814.1 461.4 814.1 353.2c0-83.7 74.9-124.5 108.7-138.7 9.5-4 19.7-6 30-6s20.5 2 30 6c33.8 14.2 108.7 55 108.7 138.7-.1 108.2-138.8 319.4-138.8 319.4z" id="Layer_7"/>
    <path class="st0" d="M982.7 214.5c-9.5-4-19.7-6-30-6s-20.5 2-30 6c-33.8 14.2-108.7 55-108.7 138.7 0 108.2 138.6 319.4 138.6 319.4s138.6-211.2 138.6-319.4c.2-83.7-74.7-124.5-108.5-138.7z" id="Layer_8"/>
    <g id="STROKES">
        <path class="st1" d="M477.3 1516.5h84.5v77.5h-84.5z"/>
        <path class="st1" d="M952.7 672.6s138.6-211.2 138.6-319.4c0-83.7-74.8-124.5-108.7-138.7-9.5-4-19.7-6-30-6s-20.5 2-30 6c-33.8 14.2-108.7 55-108.7 138.7.2 108.2 138.8 319.4 138.8 319.4"/>
        <path class="st1" d="M960 1635.7h-14.5H960z"/>
        <path class="st1" d="M1438.6 1516.5h-104s-17.3-272-10.7-317.3c0 0-26.7-132-68-146.6 0 0 33.1 460.1-17.9 555.3 0 0-9.7 2.7-28.9 6.4-11.3 2.2-25.9 4.7-43.6 7.3l29.5-132.9-80.1-191.8H790.6l-80.1 191.8 29.5 132.9c-17.8-2.6-32.4-5.1-43.6-7.3-19.2-3.7-28.9-6.4-28.9-6.4-51.1-95.2-17.9-555.3-17.9-555.3-41.3 14.7-68 146.6-68 146.6 6.7 45.3-10.7 317.3-10.7 317.3h-104s-52.5-382-27.4-495.2C463.6 912.7 560 731.8 560 731.8c38.8-62.6 225.9-116.5 225.9-116.5-54.7-160.4-11.5-312.9-11.5-312.9 41-103.6 171.2-118.7 171.2-118.7H960s130.2 15.2 171.2 118.7c0 0 43.2 152.5-11.5 312.9 0 0 187 53.9 225.9 116.5 0 0 96.4 181 120.5 289.5 25 113.2-27.5 495.2-27.5 495.2z"/>
        <path transform="rotate(-180 1385.926 1555.221)" class="st1" d="M1343.7 1516.5h84.5v77.5h-84.5z"/>
        <path class="st1" d="M952.7 1703.1h7.3-14.6 7.3"/>
        <path class="st1" d="M1209.1 1614.2v60.9s-15.9 7.3-58.8 14.5c-39.7 6.6-102.7 13.1-197.7 13.4-95-.3-157.9-6.8-197.7-13.4-42.9-7.2-58.8-14.5-58.8-14.5v-60.9c11.3 2.2 25.9 4.7 43.6 7.3 47.9 6.9 119.2 13.8 212.8 14.2h-7.3H960h-7.3c93.5-.3 164.8-7.3 212.8-14.2 17.8-2.6 32.4-5.1 43.6-7.3z"/>
        <path class="st1" d="M785.8 615.2s24.8 60.9 76.2 67.8"/>
        <path class="st1" d="M1120.3 615.2s-24.8 60.9-76.2 67.8"/>
        <path class="st1" d="M1195 1488.6l-29.5 132.9c-47.9 6.9-119.2 13.8-212.8 14.2-93.5-.3-164.8-7.3-212.8-14.2l-29.5-132.9 80.1-191.8h324.2l80.3 191.8z"/>
        <path class="st1" d="M952.7 1635.7h-7.3 7.3z"/>
        <path class="st1" d="M952.7 1703h-7.3c2.5.1 4.9.1 7.3 0z"/>
        <path class="st1" d="M960 1635.7h-7.3 7.3z"/>
        <path class="st1" d="M960 1703.1h-7.3 7.3z"/>
        <path class="st1" d="M912 737.8s-68.2 132.8-63.4 212"/>
        <path class="st1" d="M984.8 746.4c3.7 58.4 32.3 114.8 77.3 152.3"/>
    </g>
</svg>
