<svg xmlns="http://www.w3.org/2000/svg" viewBox="0 0 1920 1920">
    <style>
        .st0{fill:#fff}.st1{fill:none;stroke:#231f20;stroke-width:50;stroke-linecap:round;stroke-linejoin:round;stroke-miterlimit:10}
    </style>
    <path class="st0" d="M863.6 541.3c-19.7-12.2-38.9-28.7-56.7-47.6-62.7-66.4-107.4-162.1-89.2-203l-75.3 147.7c-146.7 42.8-192.2 206.7-192.2 206.7-139.1 162-103.1 940.9-103.1 940.9h31.5v117h140.7v-117h24.1v-453.3l49.2-87.2c8.4 36.7 17.9 61 17.9 61v549.8h347.6V700s3-98.1-94.5-158.7zm606.2 103.8s-45.6-164-192.2-206.7l-75.3-147.7c23.3 52.6-56.9 195.4-145.9 250.6-97.5 60.6-94.5 158.7-94.5 158.7v956.4h347.6v-549.8s9.5-24.3 17.9-61l49.2 87.2V1586h24.1v117h140.7v-117h31.5s36-778.9-103.1-940.9z" id="Layer_5"/>
    <path class="st0" d="M1202.3 290.7c-2.3-5.1-5.4-9.3-9.6-12.5-48.3-36.9-159.6-60.6-230.8-60.6h-3.8c-71.2 0-182.5 23.7-230.8 60.6-4.2 3.2-7.4 7.4-9.6 12.4v.1c-18.2 40.9 26.5 136.6 89.2 203 17.8 18.9 37 35.4 56.7 47.6 97.5 60.6 94.5 158.7 94.5 158.7v956.4h3.8V700s-3-98.1 94.5-158.7c88.9-55.2 169.2-198 145.9-250.6z" id="Layer_6"/>
    <g id="STROKES">
        <path class="st1" d="M642.4 438.4c-146.7 42.8-192.2 206.7-192.2 206.7-139.1 162-103.1 940.9-103.1 940.9h196.4v-453.3l49.2-87.2"/>
        <path class="st1" d="M378.6 1586h140.7v117H378.6z"/>
        <path class="st1" d="M717.8 290.6l-75.4 147.7c.2 1.2 13.5 87.4 146.3 122.1 0 0 72 28.6 96.7 82.9"/>
        <path class="st1" d="M554.4 833.9S599.2 648.6 755 549.7"/>
        <path class="st1" d="M958.1 1141.5H755s-44.7 209.1-144.4 260.2l54.6 139.4h293l-.1-399.6z"/>
        <path class="st1" d="M847.7 596.4s-58.9 86.9-10.4 195.9c48.4 109-4.3 219.8-4.3 219.8"/>
        <path class="st1" d="M514 758c26.2 75.3 73.6 111.3 73.6 111.3-14.7 62.4-5.7 129.4 5 176.2 8.4 36.7 17.9 61 17.9 61v549.8h347.6V700s3-98.1-94.5-158.6c-89-55.3-169.3-198.1-145.9-250.6v-.1c2.2-5 5.4-9.2 9.6-12.4 48.3-36.9 159.6-60.6 230.8-60.6h3.8c71.2 0 182.5 23.7 230.8 60.6 4.2 3.2 7.4 7.4 9.6 12.4v.1c23.3 52.6-57 195.4-145.9 250.6-97.5 60.5-94.5 158.6-94.5 158.6v956.4h347.6v-549.8s9.5-24.3 17.9-61c10.7-46.8 19.7-113.9 5-176.2 0 0 47.5-36 73.6-111.3"/>
        <path class="st1" d="M1327.3 1045.5l49.2 87.2V1586h196.4s36-778.9-103.1-940.9c0 0-45.5-164-192.2-206.7"/>
        <path transform="rotate(-180 1471.057 1644.542)" class="st1" d="M1400.7 1586h140.7v117h-140.7z"/>
        <path class="st1" d="M1034.6 643.4c24.7-54.3 96.7-82.9 96.7-82.9 132.7-34.7 146.1-121 146.3-122.1l-75.3-147.7v-.1"/>
        <path class="st1" d="M1365.6 833.9s-44.8-185.3-200.6-284.2"/>
        <path class="st1" d="M961.9 1141.5H1165s44.7 209.1 144.4 260.2l-54.6 139.4h-293l.1-399.6z"/>
        <path class="st1" d="M1072.3 596.4s58.9 86.9 10.4 195.9 4.3 219.8 4.3 219.8"/>
        <path class="st1" d="M1101.7 493.8s48.1-90.9 6.6-100.5c-41.5-9.6-62.3 19.2-150.2 19.2h-7.6c-87.9 0-108.6-28.8-150.2-19.2-41.5 9.6 6.6 100.5 6.6 100.5"/>
    </g>
</svg>
