<svg xmlns="http://www.w3.org/2000/svg" viewBox="0 0 1920 1920">
    <style>
        .st0{fill:#fff}.st1{fill:none;stroke:#231f20;stroke-width:50;stroke-linecap:round;stroke-linejoin:round;stroke-miterlimit:10}
    </style>
    <path class="st0" d="M1536.7 1187s-63.9-398.7-114.8-540.5c-50.8-141.8-204.4-186.7-204.4-186.7s-5.7-165.1-79.7-192.5c47.1 23.3 44.4 57.1 29.6 85.4-15.4 29.5-43.8 50.2-76.6 56.5-92.3 17.7-146 85.6-146 85.6s-53.7-68-146-85.6c-32.7-6.3-61.1-27-76.6-56.5-14.8-28.3-17.5-62.1 29.6-85.5-74 27.3-79.7 192.5-79.7 192.5s-153.5 44.9-204.4 186.7C416.9 788.3 353 1187 353 1187s-34.2 280.1 23.8 415.9l30.4 85.2 114.4-23.5 5.9-61.8s28.2-240.1 23.2-327.9c0 0 73-173.3 70-302.8 7.1 104.1 29 466.3-2 615.8 0 0 2.7 13.7 19.8 31.4l-10.7 68.7s73 66.8 323.6 66.8c250.6 0 317.7-90.2 317.7-90.2l-24.2-38.9c23-20.7 26.4-37.8 26.4-37.8-31-149.5-9.2-511.7-2-615.8-3.3 129.6 69.7 302.9 69.7 302.9-5 87.8 23.2 327.9 23.2 327.9l5.9 61.8 114.4 23.5 30.4-85.2c58-135.9 23.8-416 23.8-416zM376.8 1602.9c.4-.5 6.3-7.7 18.8-14.2l-18.8 14.2zm241.8-659.1c1.2 9.1 1.8 18.5 2 28.2-1.1-16.9-1.9-27-2-28.2zm650.5 28.3c.2-9.7.9-19.1 2-28.2-.1 1.1-.9 11.2-2 28.2zm225 616.6c12.5 6.4 18.5 13.7 18.8 14.2l-18.8-14.2z" id="Layer_2"/>
    <path class="st0" d="M1137.8 267.3c-33.9-16.8-93.6-28.2-193-28.2s-159.1 11.4-193 28.2c-47.1 23.3-44.4 57.1-29.6 85.5 15.4 29.5 43.8 50.2 76.6 56.5 92.3 17.7 146 85.6 146 85.6s53.7-68 146-85.6c32.7-6.3 61.1-27 76.6-56.5 14.8-28.4 17.5-62.2-29.6-85.5z" id="Layer_4"/>
    <g id="STROKES">
        <path class="st1" d="M620.6 972.2c0-.1 0-.1 0 0"/>
        <path class="st1" d="M537.4 685.4c3.3 205.4 81.2 258.4 81.2 258.4"/>
        <path class="st1" d="M527.5 1602.9l-5.9 61.8-114.4 23.5-30.4-85.2 18.8-14.2c22-11.4 64.2-20.3 131.9 14.1z"/>
        <path class="st1" d="M672.2 459.8s5.7-165.1 79.7-192.5c33.9-16.8 93.5-28.2 193-28.2s159.1 11.4 193 28.2c47.1 23.3 44.4 57.1 29.6 85.4-15.5 29.5-43.9 50.2-76.6 56.5-92.3 17.7-146 85.6-146 85.6s-53.7-68-146-85.6c-32.7-6.3-61.1-27-76.6-56.5-14.8-28.3-17.5-62.1 29.6-85.4"/>
        <path class="st1" d="M1217.5 459.8s-5.7-165.1-79.7-192.5"/>
        <path class="st1" d="M1271.1 943.7s77.8-53 81.2-258.4"/>
        <path class="st1" d="M1269.1 972.2c0-.1 0-.1 0 0"/>
        <path class="st1" d="M620.6 972.2c0-.1 0-.1 0 0"/>
        <path class="st1" d="M1269.1 972.2c0-.1 0-.1 0 0"/>
        <path class="st1" d="M1536.7 1187s-63.9-398.7-114.8-540.5c-50.8-141.8-204.4-186.7-204.4-186.7-85.4-17.1-272.7 35.1-272.7 35.1s-187.2-52.2-272.7-35.1c0 0-153.5 44.9-204.4 186.7C416.9 788.3 353 1187 353 1187s-34.2 280.1 23.8 415.9c.4-.5 6.3-7.7 18.8-14.2 22-11.3 64.1-20.2 131.9 14.2 0 0 28.2-240.1 23.2-327.9 0 0 73-173.3 70-302.8 7.1 104.1 29 466.3-2 615.8 0 0 2.7 13.7 19.8 31.4 31 32.3 109.7 77.9 306.5 77.9 184.1 0 264.8-39.9 299.9-71.5 23-20.7 26.4-37.8 26.4-37.8-31-149.5-9.2-511.7-2-615.8-3.3 129.5 69.7 302.8 69.7 302.8-5 87.8 23.2 327.9 23.2 327.9 67.8-34.4 109.9-25.5 131.9-14.2 12.5 6.4 18.5 13.7 18.8 14.2 58-135.8 23.8-415.9 23.8-415.9zM618.6 943.8c1.2 9.1 1.8 18.5 2 28.2-1.1-16.9-1.9-27-2-28.2zm650.5 28.3c.2-9.7.9-19.1 2-28.2-.1 1.1-.9 11.2-2 28.2z"/>
        <path class="st1" d="M1512.9 1602.9l-30.4 85.2-114.4-23.5-5.9-61.8c67.8-34.4 109.9-25.5 131.9-14.2l18.8 14.3z"/>
        <path class="st1" d="M1268.9 1664.8s-67.1 90.2-317.7 90.2-323.6-66.8-323.6-66.8l10.7-68.7c31 32.3 109.7 77.9 306.5 77.9 184.1 0 264.8-39.9 299.9-71.5l24.2 38.9z"/>
        <path class="st1" d="M905.3 484.8l-19.8 128.4"/>
        <path class="st1" d="M989.3 484.8l19.9 128.4"/>
        <path class="st1" d="M730.2 1440.3c60.3-60.3 47.2-219.1 47.2-219.1h334.8s-13 158.9 47.2 219.1"/>
    </g>
</svg>
