<svg xmlns="http://www.w3.org/2000/svg" viewBox="0 0 1920 1920">
    <style>
        .st0{fill:#fff}.st1{fill:#d50000}.st2{fill:none;stroke:#231f20;stroke-width:50;stroke-linecap:round;stroke-linejoin:round;stroke-miterlimit:10}
    </style>
    <path class="st0" d="M1361.9 1218.8c-5.9 39.2-23.8 88.3-72.7 121.3-93.1 62.8-58.5 164.6-58.5 164.6l-78 75.8s1-105.9-5.5-206.7c-3.2-50.4-8.2-99.4-16.2-133.4-10.3-44.2-58-63.4-116.1-73.5-75.9-13.2-169.7-10.9-221.8-28.3-65.6-21.8-144.4-98-168.7-173.4l-52.2-10.7-19.5 125.6-19.4-54.9-26.1-74-6.5-18.3 13-67.1 70.8-9.3c-13-69.3 35.3-112 76.5-142.3 41.2-30.3 35.4-141.9 35.4-141.9-34.4 21.3-46.1 66.8-85.2 79.1-41.2 13-80.1-47.6-58.5-80.1 21.6-32.4 93.9-266.8 143.7-269.7 0 0 98.9-37.8 114.1-85.5 0 0 22.6 79.6-22.9 114.3 6.8 2.8 13.6 6 20.6 9.6 62.2 32.4 129.1 100.2 140.9 233.5 5.5 62.1 15.9 113.1 30.9 155.8 38.3 109 106.2 163.5 196.5 210.2 125.6 65 192.8 160.3 186.3 216.6 0 0 .5 3.2 1 8.8.9 10.7 1.6 30.6-1.9 53.9zm-230.8 21.7c-10.3-44.2-58-63.4-116.1-73.5 0 0-61.5 56.2-33.3 171 28.2 114.8 99.6 184.1 99.6 184.1L1145 1374l2.3-.2c-3.2-50.3-8.2-99.4-16.2-133.3z" id="Layer_1"/>
    <path class="st0" d="M1365 1164.7s160.3-4.3 123.5 155.9c-36.8 160.3-62.8 327.1 26 335.7 0 0-184.1 52-201.4-75.8-17.3-127.3 129.2-196.2 48.8-361.7 3.5-23.4 2.8-43.2 1.9-54.1h1.2zm-154.4-795.9c-27 15-150 6-189-48s-126.3-79.9-213.3 19.1c62.2 32.4 129.1 100.2 140.9 233.5 5.5 62.1 15.9 113.1 30.9 155.8l2.5-.4c108 87 270 33 270 33-129-6-153-120-153-120 66 9 129-36 129-36-123 3-150-126-150-126 66 9 132-111 132-111z" id="Layer_4"/>
    <g id="STROKES">
        <g id="XMLID_1_">
            <path class="st2" d="M787.7 330.3c6.8 2.8 13.6 6 20.6 9.6 62.2 32.4 129.1 100.2 140.9 233.5 5.5 62.1 15.9 113.1 30.9 155.8 38.3 109 106.2 163.5 196.5 210.2 125.6 65 192.8 160.3 186.3 216.6 0 0 .5 3.2 1 8.8.9 10.8 1.6 30.7-1.9 54.1-5.9 39.2-23.8 88.3-72.7 121.3-93.1 62.8-58.5 164.6-58.5 164.6l-78 75.8"/>
            <path class="st2" d="M769.4 445.6c43.3 56.3-28.2 104-67.2 123.5-2 1-3.9 2.1-5.8 3.2-34.4 21.3-46.1 66.8-85.2 79.1-41.2 13-80.1-47.6-58.5-80.1 21.6-32.4 93.9-266.8 143.7-269.7h.2"/>
            <path class="st2" d="M624.5 965.3c24.2 75.5 103 151.6 168.7 173.4 52.1 17.3 145.9 15.1 221.8 28.3 58.2 10.1 105.8 29.4 116.1 73.5 7.9 33.9 13 83 16.2 133.4 6.4 100.8 5.5 206.7 5.5 206.7l-84.5 123.5H1025"/>
            <path class="st2" d="M696.5 572.3s5.8 111.6-35.4 141.9c-41.1 30.3-89.5 73-76.5 142.3"/>
            <path class="st2" d="M1015 1167s-61.5 56.2-33.3 171c28.2 114.8 99.6 184.1 99.6 184.1L975 1636h-60.6"/>
            <path class="st2" d="M1145 1374l-63.7 148.1"/>
            <path class="st2" d="M725 838l-140.4 18.5-70.8 9.3-13 67.1 6.5 18.4 26.1 74 19.4 54.9 73.7 43.3"/>
            <path class="st2" d="M773.7 995.7l-149.2-30.4-52.2-10.7-19.5 125.6"/>
            <path class="st2" d="M506.3 951.6l-100.8 61.5 34.7 66 54.1 102.9 84.5 30.3"/>
            <path class="st2" d="M531.1 1026.1l-89.9 52.5"/>
            <path class="st2" d="M696.5 301.5s98.9-37.8 114.1-85.5c0 0 22.6 79.6-22.9 114.3"/>
            <path class="st2" d="M1365 1164.7s160.3-4.3 123.5 155.9c-36.8 160.3-62.8 327.1 26 335.7 0 0-184.1 52-201.4-75.8-17.3-127.3 129.2-196.2 48.8-361.7l-.9-1.8"/>
            <path class="st2" d="M808.3 339.9c87-99 174.3-73.1 213.3-19.1 39 54 162 63 189 48 0 0-66 120-132 111 0 0 27 129 150 126 0 0-63 45-129 36 0 0 24 114 153 120 0 0-162 54-270-33"/>
        </g>
    </g>
</svg>
