<svg xmlns="http://www.w3.org/2000/svg" viewBox="0 0 1920 1920">
    <style>
        .st0{fill:#fff}.st1{fill:#d50000}.st2{fill:none;stroke:#231f20;stroke-width:50;stroke-linecap:round;stroke-linejoin:round;stroke-miterlimit:10}
    </style>
    <path class="st0" d="M426.3 689c-21.8 17.2-46 19-46 19l-63.4 88.4s-28.4 15-45 13.3c-16.7-1.7-53.4-33.4-55.1-56.7-1.7-23.4 51.7-155.1 51.7-155.1L258.3 572c-5.2-13.3-4.8-28.1 1.1-41.1l27.4-59.7 6.7-76.7 48.4 46.7s26.9 1.7 40.2 2.4l38.2-90.8 30.3 106.9c59.6 21.9 143.1 67.6 271.6 146.7 238.5 146.8 373.7 56.7 493.8 45 88.9-8.6 158.2 22.5 204.8 70 16.4 16.7 29.9 35.4 40.5 55.2 1 1.9 1.9 3.7 2.8 5.6 44.3 91.6-26.6 184.5-44.6 264.7-18.3 81.7 96.8 165.2 96.8 165.2l-63.4 355.3H1311c0-51.7 71.7-98.4 71.7-98.4s33.4-130.1 33.4-201.9c0-25.2-30.4-62.9-69.8-101.1-23.5-22.8-50.2-45.8-75.5-66.4-52.9-43.1-99.9-76-99.9-76-150.1 135.1-453.8 41.7-453.8 41.7l18.4 225.2-11.5 235H577.2c0-36.7 68.4-96.8 68.4-96.8s18.3-210.2-45-335.3c-17.3-34.2-31-65.2-41.7-93.2-28.3-74.4-34.9-126.8-30.1-157.1 6.3-39.3-91.9-143-102.5-154.1zm-67.2-92.7c0-.3-.2-.5-.5-.5s-.5.2-.5.5.2.5.5.5.5-.2.5-.5zm911.9 503.1L1142.7 1302s45 86.8 50 91.8 31.7 48.4 83.4 40v-95.1l-35-26.7 105.4-146.2c-23.5-22.7-50.2-45.7-75.5-66.4zM557 1001l-162.8 59.9-38 228.5s17.4 107.6 119.2 126l18.4-93.4-48.4-35s20-161.8 25-163.5c5-1.7 130.1-30 130.1-30-17.3-34.2-31-65.2-41.7-93.2l-1.8.7z" id="Layer_5"/>
    <path class="st0" d="M1639.8 706.4c81.8 108.4-65.1 442.1 63.4 445.4 0 0-140.1 63.4-171.8-80.1S1646 782 1464.2 782c-.9-1.9-1.8-3.7-2.8-5.6-10.6-19.7-24.1-38.5-40.5-55.2-.1.1 137.2-123.2 218.9-14.8z" id="Layer_6"/>
    <g id="STROKES">
        <g id="XMLID_1_">
            <path class="st2" d="M557 1001l-162.8 59.9-38 228.5s17.4 107.6 119.2 126l18.4-93.4-48.4-35s20-161.8 25-163.5c5-1.7 130.1-30 130.1-30"/>
            <path class="st2" d="M1271 1099.4L1142.7 1302s45 86.8 50 91.8 31.7 48.4 83.4 40v-95.1l-35-26.7 105.4-146.2"/>
            <path class="st2" d="M1420.8 721.3s137.2-123.3 219-14.9c81.8 108.4-65.1 442.1 63.4 445.4 0 0-140.1 63.4-171.8-80.1S1646 782 1464.2 782"/>
            <path class="st2" d="M426.3 689c-21.8 17.2-46 19-46 19l-63.4 88.4s-28.4 15-45 13.3c-16.7-1.7-53.4-33.4-55.1-56.7-1.7-23.4 51.7-155.1 51.7-155.1L258.3 572c-5.2-13.3-4.8-28.1 1.1-41.1l27.4-59.7 6.7-76.7 48.4 46.7s26.9 1.7 40.2 2.4l38.2-90.8 30.3 106.9c59.6 21.9 143.1 67.6 271.6 146.7 238.5 146.8 373.7 56.7 493.8 45 88.9-8.6 158.2 22.5 204.8 70 16.4 16.7 29.9 35.4 40.5 55.2 1 1.9 1.9 3.7 2.8 5.6 44.3 91.6-26.6 184.5-44.6 264.7-18.3 81.7 96.8 165.2 96.8 165.2l-63.4 355.3H1311c0-51.7 71.7-98.4 71.7-98.4s33.4-130.1 33.4-201.9c0-25.2-30.4-62.9-69.8-101.1-23.5-22.8-50.2-45.8-75.5-66.4-52.9-43.1-99.9-76-99.9-76-150.1 135.1-453.8 41.7-453.8 41.7l18.4 225.2-11.5 235H577.2c0-36.7 68.4-96.8 68.4-96.8s18.3-210.2-45-335.3c-17.3-34.2-31-65.2-41.7-93.2-28.3-74.4-34.9-126.8-30.1-157.1 6.3-39.3-91.9-143-102.5-154.1z"/>
            <circle class="st2" cx="358.6" cy="596.3" r=".5"/>
            <path class="st2" d="M426.3 689s62.5-31 23.2-96.6"/>
        </g>
    </g>
</svg>
