<svg xmlns="http://www.w3.org/2000/svg" viewBox="0 0 1920 1920">
    <style>
        .st0{fill:#fff}.st1{fill:none;stroke:#231f20;stroke-width:50;stroke-linecap:round;stroke-linejoin:round;stroke-miterlimit:10}
    </style>
    <path class="st0" d="M784 1278v298H588v-298h196zm-196 0H392v298h196v-298z" id="Layer_9"/>
    <g id="Layer_3">
        <path class="st0" d="M958 1486v90H784v-298l-198-104-194 104v298H218V640.2h740V1486zm-112.2-410V976H640.6v100h205.2zm0-210V766H640.6v100h205.2zm-310.4 210V976H330.2v100h205.2zm0-210V766H330.2v100h205.2z"/>
        <path class="st0" d="M1238 526v1050H958v-90h141.8v-100H958v-110h141.8v-100H958v-100h141.8V976H958V866h141.8V766H958V640.2H757V526h481zm-481 0v-82H401v196.2h356V526z"/>
    </g>
    <path class="st0" d="M775.3 444H386l196-108 193.3 108zM586 1174l-194 104h392l-198-104z" id="Layer_10"/>
    <path class="st0" d="M1364 1148h338v342h-338z" id="Layer_11"/>
    <path class="st0" d="M1099.8 1386v100H958v-100h141.8zM958 1176v100h141.8v-100H958zm0-200v100h141.8V976H958zm0-210v100h141.8V766H958zM640.6 976v100h205.2V976H640.6zm0-210v100h205.2V766H640.6zM330.2 976v100h205.2V976H330.2zm0-210v100h205.2V766H330.2z" id="Layer_12"/>
    <g id="STROKES">
        <g id="XMLID_1_">
            <path class="st1" d="M392 1576H218V640.2h740V1576H784"/>
            <path class="st1" d="M757 526h481v1050H958"/>
            <path class="st1" d="M1533 1245v148"/>
            <path class="st1" d="M1459 1319h148"/>
            <path class="st1" d="M1364 1148h338v342h-338z"/>
            <path class="st1" d="M1462 1492v92"/>
            <path class="st1" d="M1602 1492v92"/>
            <path class="st1" d="M757 444v196"/>
            <path class="st1" d="M401 640.2V444"/>
            <path class="st1" d="M775.3 444H386l196-108 193.3 108"/>
            <path class="st1" d="M330.2 766h205.2v100H330.2z"/>
            <path class="st1" d="M640.6 766h205.2v100H640.6z"/>
            <path class="st1" d="M330.2 976h205.2v100H330.2z"/>
            <path class="st1" d="M640.6 976h205.2v100H640.6z"/>
            <path class="st1" d="M784 1576v-298H392v298z"/>
            <path class="st1" d="M588 1280v296"/>
            <path class="st1" d="M392 1278l194-104 198 104"/>
            <path class="st1" d="M958 766h141.8v100H958"/>
            <path class="st1" d="M958 976h141.8v100H958"/>
            <path class="st1" d="M958 1176h141.8v100H958"/>
            <path class="st1" d="M958 1386h141.8v100H958"/>
        </g>
    </g>
</svg>
