<svg xmlns="http://www.w3.org/2000/svg" viewBox="0 0 1920 1920">
    <style>
        .st0{fill:#fff}.st1{fill:none;stroke:#231f20;stroke-width:50;stroke-linecap:round;stroke-linejoin:round;stroke-miterlimit:10}
    </style>
    <path class="st0" d="M1574.2 864.5v839.3h-483.6V864.5h483.6zm-173.7 697.2v-183.4h-137.6v183.4h137.6zm0-348.5v-183.4h-137.6v183.4h137.6zm-310-348.7v839.3H345.8v-1165h744.7v325.7zm-154 697.2v-183.4H798.9v183.4h137.6zm0-348.5v-183.4H798.9v183.4h137.6zm0-348.5V681.2H798.9v183.4h137.6zm-299 697v-183.4H499.9v183.4h137.6zm0-348.5v-183.4H499.9v183.4h137.6zm0-348.5V681.2H499.9v183.4h137.6z" id="Layer_1"/>
    <path class="st0" d="M1090.5 216.2v322.6H345.8V216.2z" id="Layer_4"/>
    <path class="st0" d="M1400.5 1378.2v183.4h-137.6v-183.4h137.6zm-137.6-348.5v183.4h137.6v-183.4h-137.6zm-464 348.5v183.4h137.6v-183.4H798.9zm0-348.5v183.4h137.6v-183.4H798.9zm0-348.5v183.4h137.6V681.2H798.9zm-299 697v183.4h137.6v-183.4H499.9zm0-348.5v183.4h137.6v-183.4H499.9zm0-348.5v183.4h137.6V681.2H499.9z" id="Layer_5"/>
    <g id="STROKES">
        <g id="XMLID_1_">
            <path class="st1" d="M1090.5 1703.8H345.8V216.2h744.7v648.3z"/>
            <path class="st1" d="M499.9 1029.7h137.6v183.4H499.9z"/>
            <path class="st1" d="M798.9 1029.7h137.6v183.4H798.9z"/>
            <path class="st1" d="M499.9 1378.2h137.6v183.4H499.9z"/>
            <path class="st1" d="M798.9 1378.2h137.6v183.4H798.9z"/>
            <path class="st1" d="M1262.9 1378.2h137.6v183.4h-137.6z"/>
            <path class="st1" d="M1262.9 1029.7h137.6v183.4h-137.6z"/>
            <path class="st1" d="M499.9 681.2h137.6v183.4H499.9z"/>
            <path class="st1" d="M798.9 681.2h137.6v183.4H798.9z"/>
            <path class="st1" d="M1090.5 864.5h483.7v839.3h-483.7"/>
            <path class="st1" d="M719.4 307.7v122.9"/>
            <path class="st1" d="M658 369.2h122.9"/>
            <path class="st1" d="M347.5 538.8h743"/>
        </g>
    </g>
</svg>
