<svg xmlns="http://www.w3.org/2000/svg" viewBox="0 0 1920 1920">
    <style>
        .st0{fill:#fff}.st1{fill:none;stroke:#231f20;stroke-width:50;stroke-linecap:round;stroke-linejoin:round;stroke-miterlimit:10}
    </style>
    <path class="st0" d="M1585.6 1310.2v100h-100v-100h100zm-208-365.6v100h100v-100h-100zm0-204v100h100v-100h-100zm0-204v100h100v-100h-100zm-85 773.6v100h100v-100h-100zm-108-365.6v100h100v-100h-100zm0-204v100h100v-100h-100zm0-204v100h100v-100h-100zm-552.1 408v100h100v-100h-100zm0-204v100h100v-100h-100zm0-204v100h100v-100h-100zm-90.6 773.6v100h100v-100h-100zM439.5 944.6v100h100v-100h-100zm0-204v100h100v-100h-100zm0-204v100h100v-100h-100zm-90.6 773.6v100h100v-100h-100z" id="Layer_6"/>
    <path class="st0" d="M1103.5 1332.1L961 1283.6l-142.5 48.6.5 1.4v247H217v-432h1486.1v432H1103v-247l.5-1.5zm482.1 78.1v-100h-100v100h100zm-193 0v-100h-100v100h100zm-750.7 0v-100h-100v100h100zm-193 0v-100h-100v100h100zm1120.2-264.6v3h-476v-705l242.8-104.2 233.2 104.2v702zm-91.5-101v-100h-100v100h100zm0-204v-100h-100v100h100zm0-204v-100h-100v100h100zm-193 408v-100h-100v100h100zm0-204v-100h-100v100h100zm0-204v-100h-100v100h100zm-192.1 242.8L961 835.2 824 884v264.7h269.1V879.4h-.6zM824 884v264.7H348v-705l242.8-104.2L824 443.6V884zm-91.5 160.6v-100h-100v100h100zm0-204v-100h-100v100h100zm0-204v-100h-100v100h100zm-193 408v-100h-100v100h100zm0-204v-100h-100v100h100zm0-204v-100h-100v100h100z" id="Layer_7"/>
    <path class="st0" d="M1103.5 1332.1l-.5 1.5v247H819v-247l-.5-1.4 142.5-48.6z" id="Layer_8"/>
    <g id="STROKES">
        <g id="XMLID_1_">
            <path class="st1" d="M1569.1 1148.6h134v432H216.9v-432h876.2z"/>
            <path class="st1" d="M761 1351.9l57.5-19.7 142.5-48.6 142.5 48.5 57.5 19.5"/>
            <path class="st1" d="M823.8 884.1l.2-.1 137-48.8 131.5 44.2"/>
            <path class="st1" d="M819 1333.6v247"/>
            <path class="st1" d="M1103 1333.6v247"/>
            <path class="st1" d="M348 1147.6v-704l242.8-104.2L824 443.6v705"/>
            <path class="st1" d="M439.5 536.6h100v100h-100z"/>
            <path class="st1" d="M632.5 536.6h100v100h-100z"/>
            <path class="st1" d="M439.5 740.6h100v100h-100z"/>
            <path class="st1" d="M632.5 740.6h100v100h-100z"/>
            <path class="st1" d="M439.5 944.6h100v100h-100z"/>
            <path class="st1" d="M632.5 944.6h100v100h-100z"/>
            <path class="st1" d="M1093.1 1148.6v-705l242.8-104.2 233.2 104.2v702"/>
            <path class="st1" d="M1184.6 536.6h100v100h-100z"/>
            <path class="st1" d="M1377.6 536.6h100v100h-100z"/>
            <path class="st1" d="M1184.6 740.6h100v100h-100z"/>
            <path class="st1" d="M1377.6 740.6h100v100h-100z"/>
            <path class="st1" d="M1184.6 944.6h100v100h-100z"/>
            <path class="st1" d="M1377.6 944.6h100v100h-100z"/>
            <path class="st1" d="M348.9 1310.2h100v100h-100z"/>
            <path class="st1" d="M541.9 1310.2h100v100h-100z"/>
            <path class="st1" d="M1292.6 1310.2h100v100h-100z"/>
            <path class="st1" d="M1485.6 1310.2h100v100h-100z"/>
            <path class="st1" d="M960 950.6v118"/>
            <path class="st1" d="M901 1009.6h118"/>
        </g>
    </g>
</svg>
