<svg xmlns="http://www.w3.org/2000/svg" viewBox="0 0 1920 1920">
    <style>
        .st0{fill:#fff}.st1{fill:none;stroke:#231f20;stroke-width:50;stroke-linecap:round;stroke-linejoin:round;stroke-miterlimit:10}
    </style>
    <path class="st0" d="M599.6 655v98H266c-13.5 0-25.8-5.5-34.7-14.3-8.9-8.9-14.4-21.1-14.4-34.7 0-27.1 21.9-49 49-49h333.7zm1054.5 0h-333.5v98h333.5c27.1 0 49-21.9 49-49 0-13.5-5.5-25.8-14.4-34.7-8.9-8.8-21.1-14.3-34.6-14.3zm-1054.5 0v98h721v-98h-721z" id="Layer_7"/>
    <path class="st0" d="M1624 1433h-183.2v-96.7H599.6v-.3h720.8v-158.7h.2V753H1624v680zM599.6 1177.3V753H296v680h183.2v-96.7h120.4v-159zm721 0V753h-721v424.3h721zm-600.6-159h480V1177H720v-158.7z" id="Layer_8"/>
    <path class="st0" d="M1440.8 1433v62H479.2v-158.7h961.6v96.7zm-841.2-255.7V1336h720.8v-158.7H599.6zm120.4-159V1177h480v-158.7H720z" id="Layer_9"/>
    <g id="STROKES">
        <g id="XMLID_1_">
            <path class="st1" d="M720 1018.3h480V1177H720z"/>
            <path class="st1" d="M599.6 1177.3h720.8V1336H599.6z"/>
            <path class="st1" d="M1440.8 1433v62H479.2v-158.7h961.6z"/>
            <path class="st1" d="M296 753v680h181"/>
            <path class="st1" d="M1440.8 1433H1624V753"/>
            <path class="st1" d="M599.6 655H266c-27.1 0-49 21.9-49 49 0 13.5 5.5 25.8 14.4 34.7 8.9 8.9 21.1 14.3 34.7 14.3h1388c27.1 0 49-21.9 49-49 0-13.5-5.5-25.8-14.4-34.7-8.9-8.9-21.1-14.3-34.6-14.3H599.6z"/>
            <path class="st1" d="M599.6 1177.3V425"/>
            <path class="st1" d="M1320.6 1177.3V425"/>
        </g>
    </g>
</svg>
