<svg xmlns="http://www.w3.org/2000/svg" viewBox="0 0 1920 1920">
    <style>
        .st0{fill:#fff}.st1{fill:none;stroke:#231f20;stroke-width:50;stroke-linecap:round;stroke-linejoin:round;stroke-miterlimit:10}
    </style>
    <path class="st0" d="M1277.7 324.5l-.1.1-159.7 159.7-159-159-160.5 160.5-159-159c86-67.5 198.1-108.4 320.7-108.4 121.1 0 232 39.9 317.6 106.1z" id="Layer_1"/>
    <path class="st0" d="M1450.6 664c0 19.3-1.4 38.3-4 56.9l-169-162.7-159.7 159.7-159-159-160.5 160.4-159.8-159.7-165.2 161.2c-2.6-18.6-4-37.6-4-56.9 0-134.7 65.8-255.5 169.9-337.2l159 159 160.5-160.5 159 159 159.7-159.7.1-.1c105.9 81.8 173 203.6 173 339.6z" id="Layer_4"/>
    <path class="st0" d="M538.6 892.2c-33.8-51.3-56.5-109.3-65.2-171.3l165.2-161.2 159.7 159.7 160.5-160.5 159 159 159.7-159.7 169 162.7c-8.8 62.5-31.8 121-66.1 172.7l-102.9-102.9-159.7 159.7-159-159-160.4 160.4-159.8-159.7-100 100.1z" id="Layer_5"/>
    <path class="st0" d="M1117.9 1181.8l-159-159-160.5 160.5-165.2-165.2L568 932h.1c-10.6-12.8-20.4-26-29.5-39.8l100-100.1 159.7 159.7 160.5-160.5 159 159 159.7-159.7 102.9 102.9c-9 13.6-18.8 26.7-29.3 39.3l-49.9 65.9-.2-.2-183.1 183.3z" id="Layer_6"/>
    <path class="st0" d="M633.2 1018.2l165.2 165.1 160.5-160.4 159 158.9 183.3-183.2.2.1-257.8 340.9-1.8-1.4-82.9-82.9-81.8 81.8-1.7 1.3-242.2-320.2z" id="Layer_7"/>
    <path class="st0" d="M1043.6 1339.6l-14.6 19.3H890.8l-15.4-20.5 1.7-1.3 81.8-81.8 82.9 82.9z" id="Layer_8"/>
    <path class="st0" d="M1083.7 1543.6v159H836.3v-159h246.8z" id="Layer_9"/>
    <g id="STROKES">
        <g id="XMLID_1_">
            <path class="st1" d="M1446.6 720.8c2.6-18.6 4-37.6 4-56.9 0-136-67.1-257.8-172.9-339.5-85.6-66.2-196.5-106.1-317.7-106.1-122.6 0-234.7 40.8-320.7 108.4-104 81.7-169.9 202.4-169.9 337.2 0 19.3 1.3 38.3 4 56.9 8.7 62 31.4 120 65.2 171.3 9.1 13.8 18.9 27.1 29.5 39.8h-.1l65.2 86.2 242.2 320.2 15.5 20.4H1029l14.6-19.2 257.8-340.9 49.9-65.9c10.5-12.6 20.3-25.7 29.3-39.3 34.2-51.6 57.2-110 66-172.6z"/>
            <path class="st1" d="M1083.1 1543.6h.6v159H836.3v-159h.8z"/>
            <path class="st1" d="M899.1 1360.6l-62 183"/>
            <path class="st1" d="M1021.1 1360.6l62 183"/>
            <path class="st1" d="M473.4 720.8l165.2-161.2 159.8 159.7 160.5-160.4 159 158.9 159.7-159.7 169 162.7"/>
            <path class="st1" d="M538.6 892.2l100-100.1 159.8 159.7 160.5-160.5 159 159 159.7-159.7 102.9 102.9"/>
            <path class="st1" d="M633.2 1018.2l165.2 165.1 160.5-160.4 159 158.9 183.3-183.2"/>
            <path class="st1" d="M877.1 1337.1l81.8-81.8 82.9 82.9"/>
            <path class="st1" d="M638.6 326.1l.7.7 159.1 159 160.5-160.4 159 158.9 159.7-159.7"/>
            <path class="st1" d="M960 1361v52"/>
        </g>
    </g>
</svg>
