<svg xmlns="http://www.w3.org/2000/svg" viewBox="0 0 1920 1920">
    <style>
        .st0{fill:#fff}.st1{fill:none;stroke:#231f20;stroke-width:50;stroke-linecap:round;stroke-linejoin:round;stroke-miterlimit:10}
    </style>
    <path class="st0" d="M1649.3 693.2c49.7 18.6 66.1 81.1 31.4 121.3-39.9 46.3-93 83-155.2 109.1h-111v-27.3c0-14-1.8-27.6-5.1-40.6-3.8-14.5-9.5-28.3-16.8-40.9 71.7-18 131.4-51.6 171.2-99 20.9-24.8 55.1-34 85.5-22.6zm-1378.7 0c-31.7 11.9-49.8 41.6-49.8 72 0 17.3 5.9 34.8 18.4 49.3 39.9 46.3 93 83 155.2 109.1h113v-27.3c0-14 1.8-27.6 5.1-40.6 3.7-14.4 9.3-28 16.6-40.5-72.4-17.8-132.8-51.6-172.9-99.4-20.9-24.8-55.1-34-85.6-22.6z" id="Layer_5"/>
    <path class="st0" d="M1409.4 855.8c3.3 13 5.1 26.6 5.1 40.6v27.3H507.4v-27.3c0-14 1.8-27.6 5.1-40.6 3.7-14.4 9.3-28 16.6-40.5 28-48.4 80.4-80.9 140.3-80.9h583c59.8 0 112 32.4 140.1 80.5 7.4 12.6 13.1 26.3 16.9 40.9z" id="Layer_3"/>
    <path class="st0" d="M1580.5 1178.4l-12.8 53.2H373.4l-37-154.3 102.8 102.8 97.7-97.7 92.6 92.7 93.9-93.9 97.7 97.7 97-97 93.9 93.9 93.9-93.9 97 97 94.5-94.5 92.6 92.7 94.5-94.5 96 95.8zM723.4 981.1l97.7 97.6 97-97 93.9 93.9 93.9-93.9 97 97 94.5-94.5 92.6 92.7 94.5-94.5 95.2 95.1 32.8-32.8 29-121H299.4l19.7 82.3 22.9-22.9 97 97 97.7-97.7 92.6 92.6 94.1-93.9z" id="Layer_6"/>
    <path class="st0" d="M629.5 1175.2l-92.7-92.7-97.6 97.7-102.8-102.9-17.2-71.4 23-22.9 97 97 97.6-97.7 92.7 92.7 93.9-93.9 97.6 97.6 97.1-97 93.9 93.9 93.9-93.9 97 97 94.5-94.5 92.7 92.7 94.5-94.6 95.2 95.2 32.8-32.9-32.1 133.8-95.9-95.9-94.5 94.5-92.7-92.6-94.5 94.5-97-97-93.9 93.9-93.9-93.9-97.1 97-97.6-97.7z" id="Layer_7"/>
    <g id="STROKES">
        <g id="XMLID_1_">
            <path class="st1" d="M529.2 815.2c-72.4-17.8-132.8-51.6-172.9-99.4-20.9-24.9-55.1-34-85.6-22.6-31.7 11.9-49.8 41.6-49.8 72 0 17.3 5.9 34.8 18.4 49.3 39.9 46.3 93 83 155.2 109.1"/>
            <path class="st1" d="M1525.5 923.6c62.3-26.1 115.3-62.8 155.2-109.1 34.7-40.2 18.3-102.7-31.4-121.3-30.4-11.4-64.7-2.3-85.6 22.6-39.8 47.4-99.6 81-171.2 99"/>
            <path class="st1" d="M507.4 923.6H299.5l19.7 82.3 17.2 71.4 37 154.3h1194.4l12.7-53.2 32.1-133.8 29-121h-227.1"/>
            <path class="st1" d="M1414.5 923.6v-27.3c0-14-1.8-27.6-5.1-40.6-3.8-14.5-9.5-28.3-16.8-40.9-28.1-48.2-80.3-80.5-140.1-80.5h-583c-59.9 0-112.3 32.5-140.3 80.9-7.3 12.5-12.9 26.2-16.6 40.5-3.3 13-5.1 26.6-5.1 40.6v27.3h907z"/>
            <path class="st1" d="M319.2 1005.9l23-22.9 97 97 97.6-97.7 92.7 92.7 93.9-93.9 97.6 97.6 97.1-97 93.9 93.9 93.9-93.9 97 97 94.5-94.5 92.7 92.7 94.5-94.6 95.2 95.2 32.8-32.9"/>
            <path class="st1" d="M336.4 1077.3l102.8 102.9 97.6-97.7 92.7 92.7 93.9-94 97.6 97.7 97.1-97 93.9 93.9 93.9-93.9 97 97 94.5-94.5 92.7 92.6 94.5-94.5 95.9 95.9"/>
        </g>
    </g>
</svg>
