<svg xmlns="http://www.w3.org/2000/svg" viewBox="0 0 1920 1920">
    <style>
        .st0{fill:#fff}.st1{fill:none;stroke:#231f20;stroke-width:50;stroke-linecap:round;stroke-linejoin:round;stroke-miterlimit:10}
    </style>
    <path class="st0" d="M956.9 835.5v607.4h-20.7L615 834.3l171.5 171.5 170.4-170.3zm172.6 168.7L958.8 833.5l-1.9 1.9v607.4H979l322-610.1-171.5 171.5zm0-249.6L1301 583.1c-1.5-266.5-312.9-356-343.3-364.1-30.1 8.2-341.2 99.1-342.7 365.7l171.5 171.5 172.3-172.3 170.7 170.7z" id="Layer_13"/>
    <path class="st0" d="M1411.3 943l.2.1c-9.7 14.6-20.2 28.7-31.5 42.2l-346 457.5h-55l322-610.1L1411.3 943zM960 218.4s-.8.2-2.3.6c30.4 8.1 341.8 97.6 343.3 364.1l180.6 180.6c3.4-21.9 5.1-44.2 5.1-66.9 0-264.2-235.8-478.4-526.7-478.4zm-451.1 722l-1.6 1c9.8 14.9 20.4 29.3 31.9 43.1h-.1l346.6 458.3h50.5L615 834.3 508.9 940.4zm446.5-722c.3.1 1.1.3 2.2.6-30.1 8.2-341.2 99.1-342.7 365.7L438.1 761.6c-3.2-21.2-4.8-42.8-4.8-64.8 0-262.8 233.3-476.1 522.1-478.4z" id="Layer_14"/>
    <path class="st0" d="M1019.5 1583.3v79.6c0 23.4-19 42.3-42.3 42.3h-34.4c-23.4 0-42.3-19-42.3-42.3v-79.6h119z" id="Layer_15"/>
    <path class="st0" d="M956.9 835.5l-170.4 170.4L615 834.3l-106 106-1.6 1c-35.4-54-59.5-114.8-69.2-179.8L615 584.7l171.5 171.5 172.3-172.3 170.7 170.7L1301 583.1l180.6 180.6c-10 64.9-34.4 125.7-70.1 179.5l-.2-.1L1301 832.7l-171.5 171.5-170.7-170.7-1.9 2z" id="Layer_16"/>
    <g id="STROKES">
        <g id="XMLID_1_">
            <path class="st1" d="M955.4 218.4C666.6 220.7 433.3 434 433.3 696.8c0 22 1.6 43.6 4.8 64.8 9.7 65 33.8 125.9 69.2 179.8 9.8 14.9 20.4 29.3 31.9 43.1h-.1l346.6 458.3H1034l346-457.5c11.3-13.5 21.8-27.6 31.5-42.2 35.7-53.8 60.1-114.6 70.1-179.5 3.4-21.9 5.1-44.2 5.1-66.9 0-264.2-235.8-478.4-526.7-478.4-1.5.1-3.1.1-4.6.1"/>
            <path class="st1" d="M977.2 1705.3h-34.4c-23.4 0-42.3-19-42.3-42.3v-79.6h119.1v79.6c-.1 23.3-19 42.3-42.4 42.3z"/>
            <path class="st1" d="M438.1 761.6L615 584.7l171.5 171.5 172.3-172.3 170.7 170.7L1301 583.1l180.6 180.6"/>
            <path class="st1" d="M508.9 940.4L615 834.3l171.5 171.6 170.4-170.4 1.9-2 170.7 170.7L1301 832.7 1411.3 943"/>
            <path class="st1" d="M960 218.4s-.8.2-2.3.6c-30.1 8.2-341.2 99.1-342.7 365.7"/>
            <path class="st1" d="M615 834.3l321.2 608.6"/>
            <path class="st1" d="M955.3 218.4h.1c.3.1 1.1.3 2.2.6 30.4 8.1 341.8 97.6 343.3 364.1"/>
            <path class="st1" d="M1301 832.7l-322 610.2"/>
            <path class="st1" d="M956.9 833.5v609.4"/>
            <path class="st1" d="M958.8 583.9v-361"/>
        </g>
    </g>
</svg>
