<svg xmlns="http://www.w3.org/2000/svg" viewBox="0 0 1920 1920">
    <style>
        .st0{fill:#fff}.st1{fill:none;stroke:#231f20;stroke-width:50;stroke-linecap:round;stroke-linejoin:round;stroke-miterlimit:10}
    </style>
    <path class="st0" d="M347.9 1091.4h1224.2c3 0 6-.1 8.9-.3-1.2 101-83.4 182.4-184.7 182.4H523.6c-101.2 0-183.5-81.5-184.7-182.4 3 .2 6 .3 9 .3zm1048.5-444.9H523.6c-101.2 0-183.5 81.5-184.7 182.4 3-.2 5.9-.3 8.9-.3H1572c3 0 6 .1 8.9.3-1.1-101-83.3-182.4-184.5-182.4z" id="Layer_8"/>
    <path class="st0" d="M1572.1 828.6c3 0 6 .1 8.9.3 34.2 2.3 64.8 17.7 86.9 41.2 22.1 23.5 35.6 55.1 35.6 89.9 0 69.6-54.1 126.5-122.5 131.1-3 .2-5.9.3-8.9.3H347.9c-3 0-6-.1-8.9-.3-34.2-2.3-64.8-17.7-86.9-41.2s-35.6-55.1-35.6-89.9c0-69.6 54.1-126.5 122.5-131.1 3-.2 5.9-.3 8.9-.3h1224.2z" id="Layer_9"/>
    <g id="STROKES">
        <g id="XMLID_1_">
            <path class="st1" d="M339 1091.1c1.2 101 83.4 182.4 184.7 182.4h872.7c101.2 0 183.5-81.5 184.7-182.4"/>
            <path class="st1" d="M1581 828.9c-1.2-101-83.4-182.4-184.7-182.4H523.6c-101.2 0-183.5 81.5-184.7 182.4"/>
            <path class="st1" d="M1581 828.9c-3-.2-5.9-.3-8.9-.3H347.9c-3 0-6 .1-8.9.3-68.4 4.6-122.5 61.5-122.5 131.1 0 34.8 13.5 66.4 35.6 89.9s52.7 38.9 86.9 41.2c3 .2 5.9.3 8.9.3h1224.2c3 0 6-.1 8.9-.3 68.4-4.6 122.5-61.5 122.5-131.1 0-34.8-13.5-66.4-35.6-89.9-22-23.5-52.7-38.9-86.9-41.2z"/>
            <path class="st1" d="M391.6 960c26.2 58.8 68.5 58.8 94.7 0"/>
            <path class="st1" d="M581 960c-26.2-58.8-68.5-58.8-94.7 0"/>
            <path class="st1" d="M581.2 960c26.2 58.8 68.5 58.8 94.7 0"/>
            <path class="st1" d="M770.6 960c-26.2-58.8-68.5-58.8-94.7 0"/>
            <path class="st1" d="M770.6 960c26.2 58.8 68.5 58.8 94.7 0"/>
            <path class="st1" d="M960 960c-26.2-58.8-68.5-58.8-94.7 0"/>
            <path class="st1" d="M960 960c26.2 58.8 68.5 58.8 94.7 0"/>
            <path class="st1" d="M1149.4 960c-26.2-58.8-68.5-58.8-94.7 0"/>
            <path class="st1" d="M1149.7 960c26.2 58.8 68.5 58.8 94.7 0"/>
            <path class="st1" d="M1339.1 960c-26.2-58.8-68.5-58.8-94.7 0"/>
            <path class="st1" d="M1339.1 960c26.2 58.8 68.5 58.8 94.7 0"/>
            <path class="st1" d="M1528.4 960c-26.2-58.8-68.5-58.8-94.7 0"/>
        </g>
    </g>
</svg>
