<svg xmlns="http://www.w3.org/2000/svg" viewBox="0 0 1920 1920">
    <style>
        .st0{fill:#fff}.st1{fill:none;stroke:#231f20;stroke-width:50;stroke-linecap:round;stroke-linejoin:round;stroke-miterlimit:10}
    </style>
    <path class="st0" d="M1386.1 612.3c0 69.2-19.3 134.3-53.1 190.8h1.5l-278.2 478.4s-20.5-22.6-52.6-35.4c.6-2 165-522.2 176.9-594.2 61.4-369.3-160.1-427.2-186.5-432.7 219.4 16.1 392 186 392 393.1zm-852.2 0c0 71.2 20.4 138 56 195.7h-1.1l279.8 473.6c15.1-15.2 30-25.8 44.4-32.7 0 0-165.8-524.8-177.8-597-59.8-359.9 149-424 184.1-432.2-216.2 18.9-385.4 187.5-385.4 392.6z" id="Layer_3"/>
    <path class="st0" d="M1003.7 1246.1c-24.7-9.8-56.2-13.8-90.6 2.7 0 0-165.8-524.8-177.8-597-59.8-359.9 149-424 184.1-432.2 13.4-1.2 26.9-1.8 40.6-1.8 11.5 0 22.9.4 34.2 1.2 26.4 5.6 247.9 63.5 186.5 432.7-12 72.3-176.4 592.4-177 594.4z" id="Layer_10"/>
    <path class="st0" d="M1027.1 1550.4v3H892.9v-121c0-23.9 12.5-44.9 31.4-56.8 10.3-6.5 22.6-10.3 35.7-10.3 15.2 0 29.2 5 40.4 13.5 2.5 1.9 4.8 3.9 7 6.1 12.1 12.1 19.6 28.9 19.6 47.4v118.1z" id="Layer_11"/>
    <path class="st0" d="M1080.8 1553.3v147.8H839.2v-147.8h187.9z" id="Layer_12"/>
    <g id="STROKES">
        <g id="XMLID_1_">
            <path class="st1" d="M919.4 219.7c-216.3 18.9-385.5 187.5-385.5 392.6 0 71.2 20.4 138 56 195.7h-1.1l279.8 473.6"/>
            <path class="st1" d="M1056.3 1281.6l278.2-478.4h-1.5c33.8-56.5 53.1-121.6 53.1-190.8 0-207.2-172.6-377.1-392-393.2-11.3-.8-22.7-1.2-34.2-1.2-13.7 0-27.2.6-40.6 1.8"/>
            <path class="st1" d="M1027.1 1553.3h53.7v147.8H839.2v-147.8h53.7z"/>
            <path class="st1" d="M960 222.6v1015"/>
            <path class="st1" d="M991.6 218.7s.9.1 2.5.5c26.4 5.6 247.9 63.5 186.5 432.7-12 72.1-176.3 592.2-176.9 594.2"/>
            <path class="st1" d="M924.3 218.7s-1.8.3-4.9 1c-35.1 8.2-243.9 72.3-184.1 432.2 12 72.2 177.8 597 177.8 597"/>
            <path class="st1" d="M892.9 1550.4v-118c0-23.9 12.5-44.9 31.4-56.8 10.3-6.5 22.6-10.3 35.7-10.3 15.2 0 29.2 5 40.4 13.5 2.5 1.9 4.8 3.9 7 6.1 12.1 12.1 19.6 28.9 19.6 47.4v118"/>
            <path class="st1" d="M1000.4 1378.8l55.9-97.3s-20.5-22.6-52.6-35.4c-24.7-9.8-56.2-13.8-90.6 2.7-14.4 6.9-29.3 17.5-44.4 32.7l55.6 94"/>
        </g>
    </g>
</svg>
