<svg xmlns="http://www.w3.org/2000/svg" viewBox="0 0 1920 1920">
    <style>
        .st0{fill:#fff}.st1{fill:none;stroke:#231f20;stroke-width:50;stroke-linecap:round;stroke-linejoin:round;stroke-miterlimit:10}
    </style>
    <path class="st0" d="M216.5 704H1321v810.2H216.5z" id="Layer_5"/>
    <path class="st0" d="M216.5 609H1321v95H216.5z" id="Layer_6"/>
    <g id="STROKES">
        <g id="XMLID_1_">
            <path class="st1" d="M1333 1189.9h202.9V1349h162v162"/>
            <path class="st1" d="M1120.2 604.1v-42.3c0-86.1 69.9-156 156-156 43.1 0 82.1 17.5 110.3 45.7 28.2 28.2 45.7 67.2 45.7 110.3v625.3"/>
            <path class="st1" d="M216.5 609H1321v905.2H216.5z"/>
            <path class="st1" d="M249 713h1036"/>
            <path class="st1" d="M1007.8 717v794"/>
            <path class="st1" d="M1171 717v794"/>
            <path class="st1" d="M681.4 717v794"/>
            <path class="st1" d="M518.2 717v794"/>
            <path class="st1" d="M844.6 717v794"/>
            <path class="st1" d="M355 717v794"/>
        </g>
    </g>
</svg>
