<svg xmlns="http://www.w3.org/2000/svg" viewBox="0 0 1920 1920">
    <style>
        .st0{fill:#fff}.st1{fill:none;stroke:#231f20;stroke-width:50;stroke-linecap:round;stroke-linejoin:round;stroke-miterlimit:10}
    </style>
    <path class="st0" d="M1678 944.1c16.1 16.1 26.1 38.4 26.1 62.9 0 49.2-39.8 89-89 89h-80.4c.2-2.2.3-4.5.3-6.7V969.5c0-17.8-2.3-35-6.5-51.5h86.5c24.6 0 46.8 10 63 26.1zM385 969.5c0-17.8 2.3-35 6.5-51.5H305c-49.2 0-89 39.8-89 89 0 24.6 10 46.8 26.1 62.9s38.4 26.1 62.9 26.1h80.4c-.2-2.2-.3-4.5-.3-6.7V969.5z" id="Layer_1"/>
    <path class="st0" d="M1528.5 918c4.2 16.4 6.5 33.7 6.5 51.5v119.8c0 2.3-.1 4.5-.3 6.7-3.4 33.7-31.8 60-66.4 60H451.7c-34.6 0-63-26.3-66.4-60-.2-2.2-.3-4.5-.3-6.7V969.5c0-17.8 2.3-35 6.5-51.5 22.8-88.6 103.2-154 199-154h739.1c95.6 0 176.1 65.4 198.9 154z" id="Layer_4"/>
    <g id="STROKES">
        <g id="XMLID_1_">
            <path class="st1" d="M1534.7 1096h80.4c49.2 0 89-39.8 89-89 0-24.6-10-46.8-26.1-62.9s-38.4-26.1-62.9-26.1h-86.5"/>
            <path class="st1" d="M391.5 918H305c-49.2 0-89 39.8-89 89 0 24.6 10 46.8 26.1 62.9s38.4 26.1 62.9 26.1h80.4"/>
            <path class="st1" d="M1528.5 918c-22.8-88.6-103.2-154-198.9-154H590.5c-95.7 0-176.1 65.4-199 154-4.2 16.4-6.5 33.7-6.5 51.5v119.8c0 2.3.1 4.5.3 6.7 3.4 33.7 31.8 60 66.4 60h1016.5c34.6 0 63-26.3 66.4-60 .2-2.2.3-4.5.3-6.7V969.5c.1-17.8-2.2-35.1-6.4-51.5z"/>
        </g>
    </g>
</svg>
