<svg xmlns="http://www.w3.org/2000/svg" viewBox="0 0 1920 1920">
    <style>
        .st0{fill:#fff}.st1{fill:none;stroke:#231f20;stroke-width:50;stroke-linecap:round;stroke-linejoin:round;stroke-miterlimit:10}
    </style>
    <path class="st0" d="M1430.7 1554.6v82H489.3v-82h941.4zM489.3 283.5v82h941.4v-82H489.3z" id="Layer_5"/>
    <path class="st0" d="M1238.8 1346.1H681.3c.6-61.2 16.9-125.9 62.4-171.4L960 958.4l216.3 216.3c45.5 45.5 61.8 110.2 62.5 171.4zm-81.7-980.6H762.9c-53.8 53.8-80.9 127.2-81.6 197.6-.6 63.3 15.2 131.3 62.4 178.5l63.1 63.1.2-.2h306.4l62.9-62.9c47.3-47.3 63-115.3 62.4-178.5-.6-70.4-27.8-143.9-81.6-197.6z" id="Layer_6"/>
    <path class="st0" d="M1238.8 1346.1v7.2c-.7 70.4-26 147.5-79.8 201.3H762.9c-53.8-53.8-81-130.8-81.6-201.3v-7.2h557.5zm-432-541.3L960 958l153.4-153.4H807l-.2.2z" id="Layer_7"/>
    <g id="STROKES">
        <path class="st1" d="M595.8 365.5H489.3v-82h941.4v82H762.9z"/>
        <path class="st1" d="M1324.2 1554.6h106.5v81.9H489.3v-81.9H1159z"/>
        <path class="st1" d="M1324.2 365.5v1187.2"/>
        <path class="st1" d="M595.8 365.5v1187.2"/>
        <path class="st1" d="M762.9 365.5c-53.8 53.8-80.9 127.2-81.6 197.6-.6 63.3 15.2 131.3 62.4 178.5l63.1 63.1C873.2 871.2 960 958 960 958l153.4-153.4 62.9-62.9c47.3-47.3 63-115.3 62.4-178.5-.7-70.5-27.9-143.9-81.6-197.6"/>
        <path class="st1" d="M1159 1554.6c53.8-53.8 79.1-130.8 79.8-201.3v-7.2c-.6-61.2-16.9-125.9-62.4-171.4-45.9-45.8-216.4-216.3-216.4-216.3l-216.3 216.3c-45.5 45.5-61.8 110.2-62.4 171.4v7.2c.7 70.4 27.9 147.5 81.6 201.3"/>
        <path class="st1" d="M807 804.6h306.4"/>
        <path class="st1" d="M596.7 282.1v-66.5"/>
        <path class="st1" d="M1325.1 282.1v-66.5"/>
        <path class="st1" d="M596.7 1703.8v-59.5"/>
        <path class="st1" d="M1325.1 1703.8v-59.5"/>
        <path class="st1" d="M681.3 1346.1h557.5"/>
    </g>
</svg>
