<svg xmlns="http://www.w3.org/2000/svg" viewBox="0 0 1920 1920">
    <style>
        .st0{fill:#fff}.st1{fill:none;stroke:#231f20;stroke-width:50;stroke-linecap:round;stroke-linejoin:round;stroke-miterlimit:10}
    </style>
    <path class="st0" d="M1253.7 1196.2c64.2 64.2 85.6 156.5 84.7 242.4-.2 18.4-1.7 36.8-4.5 55l-295.6-76.6c-53-13.7-108.6-13.7-161.6.3l-290.6 76.4c-2.8-18.2-4.3-36.6-4.5-55-.8-85.9 20.6-178.2 84.7-242.4l190.8-190.8c24.8-24.8 24.8-64.9 0-89.7L751.7 810.4h416.5l-105.4 105.4c-24.8 24.8-24.8 64.9 0 89.7 70.2 70.1 156.5 156.3 190.9 190.7zm-293.2-98.1c0-.3-.2-.5-.5-.5s-.5.2-.5.5.2.5.5.5.5-.2.5-.5zm0 104c0-.3-.2-.5-.5-.5s-.5.2-.5.5.2.5.5.5.5-.3.5-.5zm0 104c0-.3-.2-.5-.5-.5s-.5.2-.5.5.2.5.5.5.5-.3.5-.5z" id="Layer_8"/>
    <path class="st0" d="M1038.3 1417l295.6 76.6c-3.4 22.1-8.8 43.9-16.2 65.3-29.7 86-110.9 143.7-201.9 143.7H804.2c-89.8 0-170.7-55.9-200.8-140.5-8-22.3-13.7-45.3-17.4-68.5l290.6-76.4c53.1-13.9 108.7-13.9 161.7-.2zm215.4-692.1c64.2-64.2 85.6-156.5 84.7-242.4-.4-41.8-7.7-83.6-21.9-123.5-30.1-84.6-111-140.5-200.8-140.5H804.2c-89.8 0-170.7 55.9-200.8 140.5-14.2 39.9-21.5 81.7-21.9 123.5-.8 85.9 20.6 178.2 84.7 242.4l85.4 85.4h416.5c36.6-36.4 68.3-68.1 85.6-85.4z" id="Layer_9"/>
    <g id="STROKES">
        <path class="st1" d="M1333.9 1493.6c2.8-18.2 4.4-36.6 4.5-55 .8-85.9-20.6-178.2-84.7-242.4l-190.8-190.8c-24.8-24.8-24.8-64.9 0-89.7l105.4-105.4 85.4-85.4c64.2-64.2 85.6-156.5 84.7-242.4-.4-41.8-7.7-83.6-21.9-123.5-30.1-84.6-111-140.5-200.8-140.5H804.2c-89.8 0-170.7 55.9-200.8 140.5-14.2 39.9-21.5 81.7-21.9 123.5-.8 85.9 20.6 178.2 84.7 242.4l85.4 85.4L857 915.7c24.8 24.8 24.8 64.9 0 89.7l-190.8 190.8c-64.2 64.2-85.5 156.5-84.7 242.4.2 18.4 1.7 36.8 4.5 55 3.6 23.2 9.4 46.2 17.4 68.5 30.1 84.6 111 140.5 200.8 140.5h311.6c91 0 172.2-57.6 201.9-143.7 7.4-21.3 12.8-43.2 16.2-65.3z"/>
        <path class="st1" d="M751.7 810.3h416.6"/>
        <path class="st1" d="M585.8 1493.7l.3-.1 290.6-76.4c53-13.9 108.6-14 161.6-.3l295.6 76.6.3.1"/>
        <path class="st1" d="M960.5 1202.1c0 .3-.2.5-.5.5s-.5-.2-.5-.5.2-.5.5-.5.5.2.5.5z"/>
        <path class="st1" d="M960.5 1098.1c0 .3-.2.5-.5.5s-.5-.2-.5-.5.2-.5.5-.5.5.2.5.5z"/>
        <circle class="st1" cx="960" cy="1306.1" r=".5"/>
    </g>
</svg>
