<svg xmlns="http://www.w3.org/2000/svg" viewBox="0 0 1920 1920">
    <style>
        .st0{fill:#fff}.st1{fill:none;stroke:#231f20;stroke-width:50;stroke-linecap:round;stroke-linejoin:round;stroke-miterlimit:10}
    </style>
    <path class="st0" d="M1413 307v1306h-80V307h80zm0 1306H443v90.1h1034V1613h-64zM507 307v1306h80V307h-80zm-64-90.1V307h1034v-90.1H443z" id="Layer_1"/>
    <path class="st0" d="M961 1027l97.8-105.4.4.2c-18.4 27.1-14.9 64.8 10.8 87.8 49.8 44.6 103.7 89.1 124.3 109.7 51.2 51.2 68.3 124.9 67.6 193.4-.7 69.6-25.2 139-73.7 194.9L957 1359l-210.5 164.5c-58.2-58.2-87.7-134.3-88.4-210.6-.7-68.5 16.4-142.2 67.6-193.4 20-20 74.5-64.1 124.9-108.6 27.3-24.2 30-65 7.9-92.4L961 1027zm212.6-629.6c-58.2-58.2-134.3-87.7-210.7-88.4h-5.8c-76.3.7-152.4 30.2-210.6 88.4-58.2 58.2-87.7 134.3-88.4 210.6-.3 34.8 3.9 70.9 14.8 104.7h574.2c10.9-33.8 15.2-69.9 14.8-104.7-.7-76.2-30.1-152.4-88.3-210.6z" id="Layer_3"/>
    <path class="st0" d="M1188.3 1507.7c-4.7 5.4-9.6 10.7-14.7 15.8-58.2 58.2-134.3 87.7-210.7 88.4h-5.8c-76.3-.7-152.4-30.2-210.6-88.4L957 1359l231.3 148.7zM725.6 801.5c20.6 20.6 74.8 64.4 124.8 108.6 2.9 2.6 5.6 5.3 7.9 8.3L961 1027l97.8-105.4.4.2c3.1-4.5 6.8-8.8 11.1-12.6 50.1-44.3 104-87.8 124-107.8 25.2-25.2 42.1-55.9 52.8-88.7H672.9c10.6 32.9 27.5 63.6 52.7 88.8z" id="Layer_4"/>
    <g id="STROKES">
        <path class="st1" d="M507 307h-64v-90.1h1034V307H587z"/>
        <path class="st1" d="M1413 1613h64v90.1H443V1613h890z"/>
        <path class="st1" d="M1333 307v1304.9"/>
        <path class="st1" d="M507 307v1306"/>
        <path class="st1" d="M1413 307v1306"/>
        <path class="st1" d="M587 307v1306"/>
        <path class="st1" d="M1188.3 1507.7c48.5-55.9 73-125.2 73.7-194.9.7-68.5-16.4-142.2-67.6-193.4-20.6-20.6-74.5-65.1-124.3-109.7-25.7-23-29.2-60.7-10.8-87.8 3.1-4.5 6.8-8.8 11.1-12.6 50.1-44.3 104-87.8 124-107.8 25.2-25.2 42.1-55.9 52.8-88.7 10.9-33.8 15.2-69.9 14.8-104.7-.7-76.3-30.2-152.4-88.4-210.6-58.2-58.2-134.3-87.7-210.7-88.4h-5.8c-76.3.7-152.4 30.2-210.6 88.4-58.2 58.2-87.7 134.3-88.4 210.6-.3 34.8 3.9 70.9 14.8 104.7 10.6 32.8 27.5 63.5 52.8 88.7 20.6 20.6 74.8 64.4 124.8 108.6 2.9 2.6 5.6 5.3 7.9 8.3 22.1 27.4 19.5 68.2-7.9 92.4-50.4 44.6-104.8 88.6-124.9 108.6-51.2 51.2-68.3 124.9-67.6 193.4.7 76.3 30.2 152.4 88.4 210.6 58.2 58.2 134.3 87.7 210.6 88.4h5.8c76.3-.7 152.4-30.2 210.7-88.4 5.2-5.1 10.1-10.3 14.8-15.7z"/>
        <path class="st1" d="M672.9 712.8h574.2"/>
        <path class="st1" d="M746.5 1523.5L957 1359l231.3 148.7"/>
        <path class="st1" d="M1058.8 921.6L961 1027 858.4 918.4"/>
        <path class="st1" d="M961 1027v102"/>
        <path class="st1" d="M961 1227v54"/>
    </g>
</svg>
