<svg xmlns="http://www.w3.org/2000/svg" viewBox="0 0 1920 1920">
    <style>
        .st0{fill:#fff}.st1{fill:none;stroke:#231f20;stroke-width:50;stroke-linecap:round;stroke-linejoin:round;stroke-miterlimit:10}
    </style>
    <g id="Layer_8">
        <path class="st0" d="M1560.4 554.7l-105-.1-89.2-.1-159.6-134.9-167 134.4-78.7-.1-494.4-.9-106.9-.2 112.6-223.3h105.1v75h108.8v-75H1446c-5.7 0 114.4 225.2 114.4 225.2zM1049.1 1187l-21.6 112.6h285.2v.9h63.8l-29.1-113.5h-298.3z"/>
        <path class="st0" d="M891.5 1316.2l-245.8-.4-40.4-.1 167-134.3 159.6 134.8z"/>
    </g>
    <path class="st0" d="M1312.8 1300.5V1596h-221.4v-296.5h221.4v1zM1091.3 671v296.5h221.4V671h-221.4zm-467.2 0v296.5h221.4V671H624.1z" id="Layer_3"/>
    <path class="st0" d="M686.1 329.5v75.1H577.2V216.9h108.9z" id="Layer_9"/>
    <path class="st0" d="M891.5 1316.2v386.9H645.7v-387.3z" id="Layer_10"/>
    <path class="st0" d="M1455.4 1076.3V1703H891.5v-386.9l40.4.1-159.6-134.9-167 134.3 40.4.1V1703H466.5V553l494.5.8v522.5h494.4zm-78.8 224.2l-29.1-113.5h-298.3l-21.6 112.6h63.8v296.5h221.4v-295.5h63.8zm-531.1-333V671H624.1v296.5h221.4z" id="Layer_11"/>
    <path class="st0" d="M1455.4 554.7v521.6H960.9V553.8l78.7.1 167-134.4 159.6 134.9 89.2.1v.2zm-142.6 412.8V671h-221.4v296.5h221.4z" id="Layer_15"/>
    <g id="STROKES">
        <g id="XMLID_1_">
            <path class="st1" d="M645.7 1703.1H466.5V554.7"/>
            <path class="st1" d="M1455.4 554.7v1148.4H891.5"/>
            <path class="st1" d="M1446 329.5c-5.6 0 114.5 225.2 114.5 225.2l-105-.1-89.2-.1-159.6-134.9-167 134.4-78.7-.1-494.5-.9-106.9-.2 112.6-223.3h105.1"/>
            <path class="st1" d="M686.1 329.5H1446"/>
            <path class="st1" d="M645.7 1315.8l-40.4-.1 167-134.3 159.6 134.8h-40.4z"/>
            <path class="st1" d="M891.5 1314.6v388.5H645.7v-388.5"/>
            <path class="st1" d="M624.1 671h221.4v296.5H624.1z"/>
            <path class="st1" d="M1091.3 671h221.4v296.5h-221.4z"/>
            <path class="st1" d="M1312.8 1300.5v295.6h-221.5v-296.5h221.5z"/>
            <path class="st1" d="M960.9 553.9v522.4h494.4"/>
            <path class="st1" d="M1091.3 1299.6h-63.7l21.5-112.6h298.4l29.1 113.5h-63.8"/>
            <path class="st1" d="M731.1 678.5v287.1"/>
            <path class="st1" d="M1200.2 678.5v287.1"/>
            <path class="st1" d="M1198.3 1301.5v287.1"/>
            <path class="st1" d="M577.2 329.5v75.1h108.9V216.9H577.2z"/>
        </g>
    </g>
</svg>
