<svg xmlns="http://www.w3.org/2000/svg" viewBox="0 0 1920 1920">
    <style>
        .st0{fill:#fff}.st1{fill:none;stroke:#231f20;stroke-width:50;stroke-linecap:round;stroke-linejoin:round;stroke-miterlimit:10}
    </style>
    <path class="st0" d="M1386.7 826.8c72.6-14.2 162-8.3 269.3 36.7 0 0-280.5 23.9-370 172.3h-149.2c.1-2.6.7-12 2.5-26.5 7.6-20.1 86-151 247.4-182.5zm-60.2-195.2c-143 113.1-178.7 306.6-187.1 377.7 7.6-20.2 85.9-151 247.4-182.6 4-167.2 309.1-271.6 309.1-271.6-169-27.1-287 11.4-369.4 76.5zm-187.7 59.8c-7.9-221 124.3-470.5 125.3-472.4-324.2 111.7-303.3 791.5-302.4 816.8h175.1c.1-2.6.7-12 2.5-26.5 8.5-71.1 44.1-264.7 187.1-377.7l-.7-.9c17.9-143.2 248.7-320.3 248.7-320.3-228.2 56.8-359.1 223.2-433.5 381.9l-2.1-.9zM345.5 310.5s230.8 177 248.7 320.3l-.7.9c172.1 136.1 188.8 388.9 189.6 404.2h175.1c.9-25.4 21.8-705.1-302.4-816.8 1 1.9 133.2 251.5 125.3 472.4l-2.1 1c-74.4-158.8-205.2-325.2-433.5-382zm-81.5 553s280.5 23.9 370 172.3h149.2c-.8-15.3-17.5-268.1-189.6-404.2-82.4-65.1-200.4-103.6-369.3-76.5 0 0 316.2 119.1 316.2 288.2-75.2-21.2-167.6-22.6-276.5 20.2z" id="Layer_1"/>
    <path class="st0" d="M1278.3 1205.6l-80.6 495.4H720.3l-78.6-495.4h636.6zM634 1035.8h-83.8l19.9 167.8h779.8l19.9-167.8H634z" id="Layer_4"/>
    <g id="STROKES">
        <g id="XMLID_1_">
            <g id="XMLID_2_">
                <path class="st1" d="M1286 1035.8h83.8l-19.9 167.9H570.1l-19.9-167.9h586.7z"/>
                <path class="st1" d="M1197.7 1701H720.3l-78.6-495.4h636.6z"/>
                <path class="st1" d="M655.8 219c1 1.9 133.2 251.5 125.3 472.4"/>
                <path class="st1" d="M958.2 1036.6v-.7c.9-25.4 21.8-705.1-302.4-816.8"/>
                <path class="st1" d="M874.7 1032.6s-13.6-165.5-95.6-340.2c-74.5-158.7-205.3-325.1-433.5-381.9 0 0 230.8 177 248.7 320.3"/>
                <path class="st1" d="M783.2 1036.6v-.7c-.8-15.3-17.5-268.1-189.6-404.2-82.4-65.1-200.4-103.6-369.3-76.5 0 0 316.2 119.1 316.2 288.2"/>
                <path class="st1" d="M777.2 1016.7s-81.4-129.3-236.8-173.3c-75.1-21.3-167.5-22.6-276.4 20.1 0 0 280.5 23.9 370 172.3"/>
                <path class="st1" d="M1264.2 219c-1 1.9-133.3 251.5-125.3 472.4"/>
                <path class="st1" d="M961.8 1036.6v-.7c-.9-25.4-21.8-705.1 302.4-816.8"/>
                <path class="st1" d="M1045.3 1032.6s13.7-165.5 95.6-340.2c74.5-158.7 205.3-325.1 433.5-381.9 0 0-230.8 177-248.7 320.3"/>
                <path class="st1" d="M1139.3 1009.3c8.5-71.1 44.1-264.7 187.1-377.7 82.4-65.1 200.4-103.6 369.3-76.5 0 0-305.1 104.5-309.1 271.6 0 1.1 0-1.1 0 0"/>
                <path class="st1" d="M1136.8 1036.6v-.7c.1-2.6.7-12 2.5-26.5"/>
                <path class="st1" d="M1139.3 1009.3c7.6-20.2 85.9-151 247.4-182.6 72.6-14.2 162-8.3 269.3 36.7 0 0-280.5 23.9-370 172.3"/>
            </g>
        </g>
    </g>
</svg>
