<svg xmlns="http://www.w3.org/2000/svg" viewBox="0 0 1920 1920">
    <style>
        .st0{fill:#fff}.st1{fill:none;stroke:#231f20;stroke-width:50;stroke-linecap:round;stroke-linejoin:round;stroke-miterlimit:10}
    </style>
    <path class="st0" d="M1681.1 1375.5h-403.9V976.4l205.5-121.2L1681.1 966v409.5zm-98.3-125.2v-155.8h-203.4v155.8h203.4zM437.3 855.2L238.9 966v409.5h76.6v-285.8h245.3v285.8h83.6V977.3L437.3 855.2zm839.9 520.3v.1h-155.5v-243.7L960 1016.2l-160.5 119.9.3.4v239.1H644.4V695.9l316.4-151.6 316.4 151.6v679.6zm-97.5-451.8V767.9H1015v155.8h164.7zm-273.2 0V767.9H741.9v155.8h164.6z" id="Layer_12"/>
    <g id="Layer_13">
        <path class="st0" d="M1582.8 1094.5v155.8h-203.4v-155.8h203.4zM1015 767.9v155.8h164.6V767.9H1015zm-273.1 0v155.8h164.6V767.9H741.9zm-426.4 321.8v285.8h245.3v-285.8H315.5z"/>
        <path class="st0" d="M1121.7 1131.9v243.7H1024v-164.8c0-17.5-7.1-33.3-18.5-44.8-11.5-11.5-27.3-18.5-44.8-18.5-35 0-63.3 28.3-63.3 63.3v164.8h-97.7v-239.1l-.3-.4L960 1016.2l161.7 115.7z"/>
    </g>
    <path class="st0" d="M1024.1 1210.8v164.8H897.5v-164.8c0-35 28.3-63.3 63.3-63.3 17.5 0 33.3 7.1 44.8 18.5 11.4 11.5 18.5 27.3 18.5 44.8z" id="Layer_14"/>
    <g id="STROKES">
        <g id="XMLID_1_">
            <path class="st1" d="M1277.2 1375.5v.1H644.4V695.9l316.4-151.5 316.4 151.5v280.5z"/>
            <path class="st1" d="M799.4 1136.2l.1-.1L960 1016.2l161.7 115.7"/>
            <path class="st1" d="M799.8 1136.6v239"/>
            <path class="st1" d="M1121.7 1131.9v243.7"/>
            <path class="st1" d="M644.4 977.3L437.3 855.2 238.9 966 219 977.1"/>
            <path class="st1" d="M238.9 966v409.5h405.5"/>
            <path class="st1" d="M1277.2 976.4l205.5-121.2L1681.1 966l19.9 11.1"/>
            <path class="st1" d="M1681.1 966v409.5h-403.9"/>
            <path class="st1" d="M1379.4 1094.5h203.4v155.8h-203.4z"/>
            <path class="st1" d="M741.9 767.9h164.6v155.8H741.9z"/>
            <path class="st1" d="M1015 767.9h164.6v155.8H1015z"/>
            <path class="st1" d="M315.5 1375.5v-285.8h245.3v285.9"/>
            <path class="st1" d="M897.5 1375.6v-164.8c0-35 28.3-63.3 63.3-63.3 17.5 0 33.3 7.1 44.8 18.5 11.4 11.4 18.5 27.3 18.5 44.8v164.8"/>
        </g>
    </g>
</svg>
