<svg xmlns="http://www.w3.org/2000/svg" viewBox="0 0 1920 1920">
    <style>
        .st0{fill:#fff}.st1{fill:none;stroke:#231f20;stroke-width:50;stroke-linecap:round;stroke-linejoin:round;stroke-miterlimit:10}
    </style>
    <path class="st0" d="M1657.9 864.3v424.5h-438.5V929.9h-519v358.8H262.1V864.3L960 650.2l327.7 100.5 114.5 35.1 255.7 78.5zm-108.4 254.5V985.5h-220.4v133.3h220.4zm-958.6 0V985.5H370.5v133.3h220.4z" id="Layer_1"/>
    <path class="st0" d="M1549.5 985.5v133.3h-220.4V985.5h220.4zm-1179 0v133.3h220.4V985.5H370.5z" id="Layer_4"/>
    <path class="st0" d="M1219.4 929.9v358.8h-100.5V929.9h100.5zm-418.5 0H700.4v358.8h100.7V929.9h-.2z" id="Layer_5"/>
    <path class="st0" d="M1118.9 929.9v358.8H801.1V929.9h317.8zm-88.3 175.9c0-.3-.2-.5-.5-.5s-.5.2-.5.5.2.5.5.5.5-.2.5-.5z" id="Layer_6"/>
    <path class="st0" d="M1402.2 631.2v154.6l-114.5-35.1V631.2z" id="Layer_7"/>
    <g id="STROKES">
        <g id="XMLID_1_">
            <path class="st1" d="M801.1 1288.8h-539V864.3"/>
            <path class="st1" d="M1657.9 864.3v424.5h-539"/>
            <path class="st1" d="M219.4 877.4l42.7-13.1L960 650.2l.6-.2"/>
            <path class="st1" d="M1287.7 750.7L960 650.2l-.6-.2"/>
            <path class="st1" d="M1700.6 877.4l-42.7-13.1-255.7-78.5-114.5-35.1"/>
            <path class="st1" d="M1287.7 750.7V631.2h114.5v154.6"/>
            <path class="st1" d="M801.1 929.9h317.8v358.8H801.1z"/>
            <path class="st1" d="M1118.9 929.9h100.5v358.9"/>
            <path class="st1" d="M800.9 929.9H700.4v358.9"/>
            <path class="st1" d="M1329.1 985.5h220.4v133.3h-220.4z"/>
            <path class="st1" d="M370.5 985.5h220.4v133.3H370.5z"/>
            <path class="st1" d="M1030.6 1105.8c0 .3-.2.5-.5.5s-.5-.2-.5-.5.2-.5.5-.5.5.3.5.5z"/>
        </g>
    </g>
</svg>
