<svg xmlns="http://www.w3.org/2000/svg" viewBox="0 0 1920 1920">
    <style>
        .st0{fill:#fff}.st1{fill:none;stroke:#231f20;stroke-width:50;stroke-linecap:round;stroke-linejoin:round;stroke-miterlimit:10}
    </style>
    <path class="st0" d="M1108.2 317.8c-16.4-31.9-37.3-64-63.2-96-27.9-3.2-56.2-4.8-85-4.8-116.9 0-227.5 27-325.9 75.1 39.4 13.1 74.5 28.8 105.9 46.6 68.8-24.4 142.9-37.7 220-37.7 51 0 100.5 5.8 148.2 16.8z" id="Layer_6"/>
    <path class="st0" d="M1652.4 689.8c-24.1-61.8-56.3-119.6-95.3-172.1s-84.7-99.7-135.8-140.2c4.1 39.7 3.8 77 0 111.9 81.8 80.2 142.8 181.6 174.1 295.3 23.7-30.4 42.4-62.3 57-94.9z" id="Layer_4"/>
    <path class="st0" d="M1601.6 1110.8c-24.8 106.1-75.3 202.4-144.6 281.9 35.6 5.7 70.3 7 103.8 4.6 70.5-96.7 118.2-211.1 135.3-335.2-28.5 19.1-59.8 35.7-94.5 48.7z" id="Layer_5"/>
    <path class="st0" d="M960 1619c-25.1 0-49.9-1.4-74.3-4.1 15.8 32.4 34.8 61.7 56 88 6.1.2 12.1.2 18.2.2 118.3 0 230.1-27.6 329.3-76.8-30.5-13.7-60.3-31-88.8-52.6-74.4 29.2-155.5 45.3-240.4 45.3z" id="Layer_8"/>
    <path class="st0" d="M581.4 1499.4c-93.2-65.5-168.6-154.5-217.6-258.4-16.4 29.1-31 61.4-43.4 97.4 66 111.3 160.1 203.8 272.6 267.9-7.7-34.2-11.9-69.9-11.6-106.9z" id="Layer_9"/>
    <path class="st0" d="M326.6 571.2c-34.8 56.5-62.2 118.1-80.9 183.3S217 888.7 217 960v1.3c29-26.6 58.2-48.9 87.3-67.2 12.6-126.7 61.1-242.9 135.1-338.2-35.4 1.4-73 6.3-112.8 15.3z" id="Layer_10"/>
    <path class="st0" d="M634.1 292C507 354.1 400.3 451.4 326.6 571.2c39.8-9 77.3-14 112.8-15.3C516 457.3 620 381.1 740 338.6c-31.3-17.8-66.5-33.5-105.9-46.6z" id="Layer_7"/>
    <path class="st0" d="M1421.3 377.4c-105.8-83.9-235.1-139.6-376.3-155.7 25.9 32 46.8 64.1 63.2 96 120.2 27.6 227.9 88.2 313.1 171.6 3.8-34.8 4.1-72.1 0-111.9z" id="Layer_11"/>
    <path class="st0" d="M1652.4 689.8c-14.6 32.6-33.3 64.5-57 94.8 15.4 55.8 23.6 114.6 23.6 175.4 0 51.9-6 102.4-17.3 150.8 34.6-13 66-29.6 94.5-48.7 4.6-33.4 6.9-67.4 6.9-102.1-.1-95.3-18-186.4-50.7-270.2z" id="Layer_12"/>
    <path class="st0" d="M1457 1392.7c-69.1 79.3-156.9 141.9-256.5 181 28.5 21.6 58.3 38.9 88.8 52.6 108-53.5 201.1-132.4 271.5-229-33.5 2.3-68.2 1.1-103.8-4.6z" id="Layer_13"/>
    <path class="st0" d="M581.4 1499.4c-.3 37 4 72.7 11.5 106.8 103.3 58.8 222.2 93.6 348.9 96.6-21.3-26.3-40.3-55.6-56-88-112.5-12.6-216.4-53.5-304.4-115.4z" id="Layer_14"/>
    <path class="st0" d="M304.3 894.1c-29.1 18.3-58.3 40.6-87.3 67.2.2 137.7 37.9 266.6 103.4 377 12.4-35.9 27-68.2 43.4-97.4-40.2-85.2-62.7-180.5-62.7-281-.1-22.1 1-44.1 3.2-65.8z" id="Layer_15"/>
    <g id="STROKES">
        <path class="st1" d="M1652.4 689.8c-48.3-123.7-128.8-231.2-231.1-312.4-105.8-83.9-235.1-139.6-376.3-155.7-27.9-3.2-56.2-4.8-85-4.8-116.9 0-227.5 27-325.9 75.1C507 354.1 400.3 451.4 326.6 571.2 257.1 684.3 217 817.5 217 960v1.3c.2 137.7 37.9 266.6 103.4 377 66 111.3 160.1 203.8 272.6 267.9 103.3 58.8 222.2 93.6 348.9 96.6 6.1.2 12.1.2 18.2.2 118.3 0 230.1-27.6 329.3-76.8 108-53.5 201.1-132.4 271.5-229 70.5-96.7 118.2-211.1 135.3-335.2 4.6-33.4 6.9-67.4 6.9-102.1-.1-95.2-18-186.3-50.7-270.1zM1457 1392.7c-69.1 79.3-156.9 141.9-256.5 181-74.5 29.2-155.6 45.3-240.5 45.3-25.1 0-49.9-1.4-74.3-4.1-112.5-12.6-216.3-53.5-304.4-115.4-93.2-65.5-168.6-154.5-217.6-258.4-40.2-85.2-62.7-180.5-62.7-281 0-22.2 1.1-44.2 3.3-65.9 12.6-126.7 61.1-242.9 135.1-338.2C516 457.4 620 381.2 740 338.7c68.8-24.4 142.9-37.7 220-37.7 51 0 100.5 5.8 148.2 16.7 120.2 27.6 227.9 88.2 313.1 171.6 81.8 80.2 142.8 181.6 174.1 295.3 15.4 55.8 23.6 114.6 23.6 175.4 0 51.9-6 102.4-17.3 150.8-24.9 106.1-75.4 202.4-144.7 281.9z"/>
        <path class="st1" d="M1421.3 489.4c3.9-34.9 4.1-72.2 0-111.9"/>
        <path class="st1" d="M1421.3 489.4c3.9-34.9 4.1-72.2 0-111.9"/>
        <path class="st1" d="M592.9 1606.2c-7.6-34.1-11.8-69.8-11.5-106.8"/>
        <path class="st1" d="M1044.9 221.8c25.9 32 46.8 64.1 63.2 96"/>
        <path class="st1" d="M1044.9 221.8c25.9 32 46.8 64.1 63.2 96"/>
        <path class="st1" d="M885.7 1614.8c15.8 32.4 34.8 61.7 56 88"/>
        <path class="st1" d="M634.2 292c39.4 13.1 74.5 28.8 105.9 46.6"/>
        <path class="st1" d="M634.2 292c39.4 13.1 74.5 28.8 105.9 46.6"/>
        <path class="st1" d="M1289.3 1626.3c-30.5-13.7-60.3-31-88.8-52.6"/>
        <path class="st1" d="M326.6 571.2c39.8-9 77.3-14 112.8-15.3"/>
        <path class="st1" d="M326.6 571.2c39.8-9 77.3-14 112.8-15.3"/>
        <path class="st1" d="M1560.8 1397.3c-33.5 2.3-68.2 1.1-103.8-4.6"/>
        <path class="st1" d="M217 961.3c29-26.6 58.2-48.9 87.3-67.2"/>
        <path class="st1" d="M217 961.3c29-26.6 58.2-48.9 87.3-67.2"/>
        <path class="st1" d="M1696.1 1062.1c-28.4 19.2-59.8 35.8-94.5 48.7"/>
        <path class="st1" d="M320.3 1338.3c12.4-35.9 27-68.2 43.4-97.3"/>
        <path class="st1" d="M320.3 1338.3c12.4-35.9 27-68.2 43.4-97.3"/>
        <path class="st1" d="M1652.4 689.8c-14.6 32.6-33.3 64.5-57 94.8"/>
    </g>
</svg>
