<svg xmlns="http://www.w3.org/2000/svg" viewBox="0 0 1920 1920">
    <style>
        .st0{fill:#fff}.st1{fill:none;stroke:#231f20;stroke-width:50;stroke-linecap:round;stroke-linejoin:round;stroke-miterlimit:10}
    </style>
    <path class="st0" d="M1027 1273l.2 3h57.6c96.9-3.1 194.5-28.3 285.5-77.9 118.7-64.7 208.6-161.6 265.1-273.8 56.1 57-18.5 140.7-18.5 206.5 0 68.5 86.2 52.2 86.2 52.2-90 162.3-237.4 273.5-404.4 323.3-177.7 53-377.6 36.6-554.4-61.5-274.5-152.3-376.6-492.9-228-760.9l-1.9-1.7c91.9-102.9 223-170.1 369.8-178 9.8-.5 19.7-.8 29.6-.8 236.5 0 428.2 191.7 428.2 428.2 0 57.7-14.2 112-39.4 159.6-53.4 101.1-155.8 172.3-275.6 181.8zm-1.4-313c0-36.2-29.4-65.6-65.6-65.6s-65.6 29.4-65.6 65.6 29.4 65.6 65.6 65.6 65.6-29.4 65.6-65.6zM869.8 217.2c-177.8-6-357 63.1-486.1 204.9 0 0 117.1 6.6 57.1 99.7-48.8 75.6-154 234-184 387l1.3.5C309.5 773 408 653.8 545.9 578.6c89.6-48.9 185.8-73.7 281.3-76.7H884l.1 2.2c9.8-.5 19.7-.8 29.6-.8 236.5 0 428.2 191.7 428.2 428.2 0 57.7-14.2 112-39.4 159.6h2.1c187.1-205.3 172.2-523.3-33-710.4-114.8-104.5-257.8-158.6-401.8-163.5z" id="Layer_4"/>
    <path class="st0" d="M1635.4 924.3c-56.4 112.3-146.4 209.1-265.1 273.8-90.9 49.6-188.6 74.8-285.5 77.9h-57.6l-.2-3c119.8-9.6 222.2-80.7 275.5-181.8h2.1c187.1-205.3 172.2-523.3-33-710.4-114.8-104.6-257.9-158.7-401.9-163.6v-.3c498 0 540 175.8 672.1 214.8 90.3 26.7 83.7-101.4 83.7-101.4 104.5 191.5 100.9 412.9 9.9 594zm-741 35.7c0 36.2 29.4 65.6 65.6 65.6s65.6-29.4 65.6-65.6-29.4-65.6-65.6-65.6-65.6 29.4-65.6 65.6zm-67.2-458.1c-95.5 3-191.7 27.9-281.3 76.7C408 653.8 309.5 773 258.1 909.3c-62.5 165.8-55.2 356.7 36.3 524.5 0 0 4.2-89.8 71.4-95.9 54.9-5 134.7 86.9 160 118-92.2-113.7-147.4-258.6-147.4-417.2 0-136.9 51.4-261.8 135.9-356.4 91.9-102.9 223-170.1 369.8-178l-.1-2.2h-56.8zm-83 942.9c-274.5-152.3-376.6-492.9-228-760.9l-1.9-1.7c-84.5 94.7-135.9 219.5-135.9 356.4 0 158.6 55.2 303.5 147.4 417.2 122.6 151.2 310.8 247.3 521.7 247.3 0 0-57.7-56.2-9.7-89.2s198-29 261-107l-.2-.6c-177.6 53-377.5 36.6-554.4-61.5z" id="Layer_5"/>
    <g id="STROKES">
        <g id="XMLID_1_">
            <path class="st1" d="M1047.5 1703.1c-210.9 0-399.1-96.1-521.7-247.3-92.2-113.7-147.4-258.6-147.4-417.2 0-136.9 51.4-261.8 135.9-356.4 91.9-102.9 223-170.1 369.8-178 9.8-.5 19.7-.8 29.6-.8 236.5 0 428.2 191.7 428.2 428.2 0 57.7-14.2 112-39.4 159.6-53.3 101.1-155.8 172.3-275.5 181.8-9.1.7-18.4 1.1-27.7 1.1-151.4 0-274.1-122.7-274.1-274.1 0-121.1 98.2-219.3 219.3-219.3 96.9 0 175.4 78.5 175.4 175.4 0 77.5-62.8 140.3-140.3 140.3-8.5 0-16.7-.9-24.6-2.7-50.2-11.2-87.7-56-87.7-109.6 0-49.6 40.2-89.8 89.8-89.8"/>
            <path class="st1" d="M1703.1 1183c-90 162.3-237.4 273.5-404.4 323.3-177.7 53-377.6 36.6-554.4-61.5-274.5-152.3-376.6-492.9-228-760.9"/>
            <path class="st1" d="M383.7 422.1C512.8 280.3 692 211.2 869.8 217.2c144 4.9 287 59 401.9 163.6 205.3 187 220.1 505.1 33 710.4"/>
            <circle class="st1" cx="960" cy="960" r="65.6"/>
            <path class="st1" d="M294.4 1433.8c-91.5-167.7-98.8-358.7-36.3-524.5C309.5 773 408 653.8 545.9 578.6c89.6-48.9 185.8-73.7 281.3-76.7H884"/>
            <path class="st1" d="M1027.3 1276h57.6c96.9-3.1 194.5-28.3 285.5-77.9 118.7-64.7 208.6-161.6 265.1-273.8 91-181.1 94.6-402.5-9.8-593.9"/>
            <path class="st1" d="M627.5 1074.8c-16-61.4-9.2-128.9 24.1-188.7 68.7-123.3 224.4-167.6 347.7-98.9"/>
            <path class="st1" d="M1222.7 885.7c11.5 44.4 6.7 93.1-17.4 136.2-49.5 88.8-161.4 120.8-250.3 71.8-.3-.1-.5-.3-.8-.4"/>
            <path class="st1" d="M294.4 1433.8s4.2-89.8 71.4-95.9c54.9-5 134.7 86.9 160 118 5.1 6.3 8 10.1 8 10.1"/>
            <path class="st1" d="M1047.5 1703.1s-57.7-56.2-9.7-89.2 198-29 261-107"/>
            <path class="st1" d="M1703.1 1183s-86.2 16.4-86.2-52.2c0-65.8 74.6-149.5 18.5-206.5l-.5-.5"/>
            <path class="st1" d="M1625.6 330.4s6.6 128.1-83.7 101.4c-132-39-174-214.8-672.1-214.8"/>
            <path class="st1" d="M383.7 422.1s117.1 6.6 57.1 99.7c-48.8 75.6-154 234-184 387"/>
        </g>
    </g>
</svg>
