<svg xmlns="http://www.w3.org/2000/svg" viewBox="0 0 1920 1920">
    <style>
        .st0{fill:#fff}.st1{fill:none;stroke:#231f20;stroke-width:50;stroke-linecap:round;stroke-linejoin:round;stroke-miterlimit:10}
    </style>
    <path class="st0" d="M1320.6 755.5c18.2 18.2 29.4 43.2 29.4 70.8 0 55.1-45.1 100.2-100.2 100.2H670.1c-27.5 0-52.6-11.3-70.8-29.4-18.2-18.2-29.4-43.2-29.4-70.8 0-55.1 45.1-100.2 100.2-100.2h579.8c27.5-.1 52.6 11.2 70.7 29.4zm-154.5-229.8H753.9c-55.1 0-100.2 45.1-100.2 100.2 0 27.6 11.3 52.6 29.4 70.8 18.2 18.2 43.2 29.4 70.8 29.4h412.2c55.1 0 100.2-45.1 100.2-100.2 0-27.5-11.3-52.6-29.4-70.8-18.2-18.2-43.2-29.4-70.8-29.4zM878.8 325.3c-27.5 0-52.6 11.3-70.8 29.4s-29.4 43.2-29.4 70.8c0 55.1 45.1 100.2 100.2 100.2h85c346.6 0 79-308.7 79-308.7-.1 134.6-164 108.3-164 108.3z" id="Layer_1"/>
    <path class="st0" d="M1193.7 1150.4l-56 552.7H782.3l-56-552.7h467.4zm56.2-224H653.7v224h612.5v-224h-16.3z" id="Layer_2"/>
    <g id="Layer_3">
        <g id="XMLID_1_">
            <path class="st1" d="M1193.7 1150.4l-56 552.7H782.3l-56-552.7"/>
            <path class="st1" d="M1249.9 926.4h16.4v224H653.7v-224h16.4"/>
            <path class="st1" d="M753.9 726h-83.8c-55.1 0-100.2 45.1-100.2 100.2 0 27.6 11.3 52.6 29.4 70.8 18.2 18.2 43.2 29.4 70.8 29.4h579.7c55.1 0 100.2-45.1 100.2-100.2 0-27.5-11.3-52.6-29.4-70.8-18.2-18.2-43.2-29.4-70.8-29.4H1166"/>
            <path class="st1" d="M878.8 525.7H753.9c-55.1 0-100.2 45.1-100.2 100.2 0 27.6 11.3 52.6 29.4 70.8 18.2 18.2 43.2 29.4 70.8 29.4h412.2c55.1 0 100.2-45.1 100.2-100.2 0-27.5-11.3-52.6-29.4-70.8-18.2-18.2-43.2-29.4-70.8-29.4H963.8"/>
            <path class="st1" d="M963.8 525.7h-85c-55.1 0-100.2-45.1-100.2-100.2 0-27.6 11.3-52.6 29.4-70.8s43.2-29.4 70.8-29.4c0 0 163.9 26.3 163.9-108.3 0-.1 267.7 308.7-78.9 308.7z"/>
        </g>
    </g>
</svg>
