<svg xmlns="http://www.w3.org/2000/svg" viewBox="0 0 1920 1920">
    <style>
        .st0{fill:#fff}.st1{fill:none;stroke:#231f20;stroke-width:50;stroke-linecap:round;stroke-linejoin:round;stroke-miterlimit:10}
    </style>
    <path class="st0" d="M1160.2 590.7l2.2 1112.3H941.6l-54.2-58.7V614.2l197.3-141.4-70-51.6 70-45.6-71.6-158.6 210.1 161.5 201 545.8-152.8 54-111.2-387.6zM996 1184.6c0 38.1 31.2 69.3 69.3 69.3h26.5c38.1 0 69.3-31.2 69.3-69.3v-95.8H996v95.8zm-383.7 518.5h220.8l54.2-58.7V614.2L690 472.9l70-51.6-70-45.6L761.5 217l-210 161.4-201 545.8 152.8 54 111.2-387.5-1 498.1h164.3v95.8c0 38.1-31.2 69.3-69.3 69.3H682c-35.2 0-64.4-26.6-68.7-60.6l-1 509.8z" id="Layer_5"/>
    <path class="st0" d="M1161.1 1088.8v95.8c0 38.1-31.2 69.3-69.3 69.3h-26.5c-38.1 0-69.3-31.2-69.3-69.3v-95.8h165.1zm-547.6 0l-.2 104.4c4.3 34.1 33.6 60.6 68.7 60.6h26.5c38.1 0 69.3-31.2 69.3-69.3v-95.8H613.5z" id="Layer_7"/>
    <path class="st0" d="M761.6 217c.7 1.6 47.2 102.6 125.8 102.6s125-101 125.8-102.6L887.3 614.2 761.6 217z" id="Layer_8"/>
    <path class="st0" d="M1013.1 217l71.5 158.7-70 45.6 70 51.6-197.3 141.3L1013.1 217zm-251.5-.1L690 375.6l70 45.6-70 51.6 197.3 141.4-125.7-397.3c0 .1 0 0 0 0z" id="Layer_9"/>
    <g id="STROKE">
        <g id="XMLID_2_">
            <path class="st1" d="M1013.1 217L887.3 614.2"/>
            <path class="st1" d="M887.3 1644.3l54.3 58.8h220.8l-2.2-1112.4 111.2 387.5 152.8-54-201-545.8L1013.1 217"/>
            <path class="st1" d="M1013.1 216.9v.1l71.5 158.6-70 45.6 70 51.7-197.3 141.3"/>
            <path class="st1" d="M1013.1 216.9v.1"/>
            <path class="st1" d="M761.6 217c.7 1.6 47.2 102.6 125.8 102.6s125-101 125.8-102.6"/>
            <path class="st1" d="M887.3 614.2L690 472.9l70-51.7-70-45.6L761.5 217"/>
            <path class="st1" d="M887.3 614.2v1030.1"/>
            <path class="st1" d="M761.6 216.9l-.1.1-210 161.4-201 545.8 152.8 54 111.2-387.5-1 498.1-.2 104.4-1 509.9h220.8l54.2-58.8"/>
            <path class="st1" d="M761.6 216.9s0 .1 0 0"/>
            <path class="st1" d="M887.3 614.2L761.6 217"/>
            <path class="st1" d="M613.5 1088.8h164.3v95.8c0 38.1-31.2 69.3-69.3 69.3H682c-35.2 0-64.4-26.6-68.7-60.6-.4-2.8-.5-5.7-.5-8.7v-95.8h.7z"/>
            <path class="st1" d="M1161.1 1088.8v95.8c0 38.1-31.2 69.3-69.3 69.3h-26.5c-38.1 0-69.3-31.2-69.3-69.3v-95.8h165.1z"/>
        </g>
    </g>
</svg>
