<svg xmlns="http://www.w3.org/2000/svg" viewBox="0 0 1920 1920">
    <style>
        .st0{fill:#fff}.st1{fill:none;stroke:#231f20;stroke-width:50;stroke-linecap:round;stroke-linejoin:round;stroke-miterlimit:10}
    </style>
    <path class="st0" d="M1183.5 285.6S1438.4 322 1518.8 471l184.3 1232.1-249 11.3-113.7-837.7v700.4H994.1l77.6-605 183.1-479.7L1111 216.9l72.5 68.7zM579.7 1576.9h414.5l77.6-605-482.5-394.6L809 216.9l-72.5 68.6s-254.9 36.4-335.3 185.4L216.9 1703.1l249 11.3 113.7-837.7v700.2z" id="Layer_1"/>
    <path class="st0" d="M1111 216.9l-32.4 147.6H860.4L809 216.9h302zm-32.4 147.6l-84.4 384.4 77.6 223.1 183.1-479.7L1111 216.9l-32.4 147.6zm-84.5 384.4l77.6 223.1-482.4-394.7L809 216.9l51.4 147.6 133.7 384.4z" id="Layer_2"/>
    <path class="st0" d="M1078.6 364.5l-84.5 384.4-133.7-384.4z" id="Layer_4"/>
    <g id="STROKE">
        <g id="XMLID_2_">
            <path class="st1" d="M809 216.9l-72.5 68.6s-254.9 36.4-335.3 185.4L216.9 1703.1l249 11.3 113.7-837.7V1577h414.5l77.6-605"/>
            <path class="st1" d="M1111 216.9l72.5 68.6s254.9 36.4 335.3 185.4L1703.1 1703l-249 11.3-113.7-837.7V1577H994.1"/>
            <path class="st1" d="M994.1 748.9L860.4 364.5 809 216.9 589.3 577.3 1071.8 972"/>
            <path class="st1" d="M809 216.9h302"/>
            <path class="st1" d="M860.4 364.5h218.2"/>
            <path class="st1" d="M1111 216.9l143.8 275.4-183 479.7-77.7-223.1 84.5-384.4z"/>
            <path class="st1" d="M579.7 1171.3L728.4 1297"/>
            <path class="st1" d="M1353.2 1171.3l-12.9 10.9-135.9 114.8"/>
        </g>
    </g>
</svg>
