<svg xmlns="http://www.w3.org/2000/svg" viewBox="0 0 1920 1920">
    <style>
        .st0{fill:#fff}.st1{fill:none;stroke:#231f20;stroke-width:50;stroke-linecap:round;stroke-linejoin:round;stroke-miterlimit:10}
    </style>
    <path class="st0" d="M1152.6 242c196.6 34.2 304.4 262.8 304.4 262.8 372 681.1 210 1059.1 210 1059.1l-144 18c-72-33-192-666.1-192-666.1 24 546.1-45 657.1-45 657.1H960V487.1C1397.9 365.9 1152.6 242 1152.6 242zM463 504.9C90.9 1185.9 253 1564 253 1564l144 18c72-33 192-666.1 192-666.1-24 546.1 45 657.1 45 657.1h326V487.1C522.1 365.9 767.4 242 767.4 242 570.8 276.2 463 504.9 463 504.9z" id="Layer_10"/>
    <g id="Layer_11">
        <path class="st0" d="M1667 1564v93h-144v-75l144-18zm-707 9v105h326v-105H960zm-326 0v105h326v-105H634zm-381-9v93h144v-75l-144-18z"/>
        <path class="st0" d="M1152.6 242S1397.9 365.9 960 487.1L1152.6 242zm-385.2 0S522.1 365.9 960 487L767.4 242z"/>
    </g>
    <path class="st0" d="M767.4 242c1 .6 125.8 79.8 192.6 79.8 67 0 192.6-79.8 192.6-79.8L960 487.1 767.4 242z" id="Layer_12"/>
    <g id="STROKE">
        <g id="XMLID_2_">
            <path class="st1" d="M767.4 242S522.1 365.9 960 487.1L767.4 242"/>
            <path class="st1" d="M960 1678H634v-105s-69-111-45-657.1c0 0-120 633.1-192 666.1v75H253v-93S91 1186 463 504.9c0 0 107.8-228.6 304.4-262.8 1 .6 125.8 79.8 192.6 79.8 67 0 192.6-79.8 192.6-79.8 196.6 34.2 304.4 262.8 304.4 262.8C1829 1186 1667 1564 1667 1564v93h-144v-75c-72-33-192-666.1-192-666.1 24 546.1-45 657.1-45 657.1v105H960"/>
            <path class="st1" d="M960 1678v-105"/>
            <path class="st1" d="M960 1573V487.1"/>
            <path class="st1" d="M253 1564l144 18"/>
            <path class="st1" d="M634 1573h326"/>
            <path class="st1" d="M960 487.1L1152.6 242S1397.9 365.9 960 487.1z"/>
            <path class="st1" d="M1667 1564l-144 18"/>
            <path class="st1" d="M1286 1573H960"/>
        </g>
    </g>
</svg>
