<svg xmlns="http://www.w3.org/2000/svg" viewBox="0 0 1920 1920">
    <style>
        .st0{fill:#fff}.st1{fill:none;stroke:#231f20;stroke-width:50;stroke-linecap:round;stroke-linejoin:round;stroke-miterlimit:10}
    </style>
    <path class="st0" d="M944.4 1127H749.9V779.8h389V1127H944.4zm0-149.2c30.6 0 55.4-24.8 55.4-55.4S975 867 944.4 867c-30.6 0-55.4 24.8-55.4 55.4s24.8 55.4 55.4 55.4z" id="Layer_1"/>
    <circle class="st0" cx="944.4" cy="922.4" r="55.4" id="Layer_9"/>
    <g id="Layer_2">
        <g id="XMLID_1_">
            <path class="st1" d="M216.9 1703.1h1486.2"/>
            <path class="st1" d="M216.9 216.9h1486.2"/>
            <path class="st1" d="M944.4 1125.8V1700"/>
            <path class="st1" d="M944.4 216.9v562.2"/>
            <path class="st1" d="M570.9 216.9v1486.2"/>
            <path class="st1" d="M1349.1 216.9v1486.2"/>
            <path class="st1" d="M376.4 216.9v1486.2"/>
            <path class="st1" d="M1543.6 216.9v1486.2"/>
            <path class="st1" d="M1138.9 216.9v1486.2"/>
            <path class="st1" d="M749.9 216.9v1486.2"/>
            <path class="st1" d="M749.9 779.8h389"/>
            <path class="st1" d="M749.9 1127h389"/>
            <circle class="st1" cx="944.4" cy="922.4" r="55.4"/>
            <path class="st1" d="M944.4 1052.9v-75.1"/>
        </g>
    </g>
</svg>
