<svg xmlns="http://www.w3.org/2000/svg" viewBox="0 0 1920 1920">
    <style>
        .st0{fill:#fff}.st1{fill:none;stroke:#231f20;stroke-width:50;stroke-linecap:round;stroke-linejoin:round;stroke-miterlimit:10}
    </style>
    <path class="st0" d="M1610.4 825.8v236.7h-144.5V825.8h144.5zm0 762.4H216.9V1703H1703v-114.8h-92.6zM216.9 216.9v114.8h1485.9V216.9H216.9z" id="Layer_8"/>
    <g id="Layer_2">
        <g id="XMLID_1_">
            <path class="st1" d="M1610.4 1588.2h92.7v114.9H216.9v-114.9h1248.9z"/>
            <path class="st1" d="M309.6 331.8h-92.7V216.9h1486.2v114.9H454.2z"/>
            <path class="st1" d="M1610.4 1062.5v525.7"/>
            <path class="st1" d="M1610.4 331.8v494"/>
            <path class="st1" d="M1176.8 331.8v1256.4"/>
            <path class="st1" d="M1321.3 331.8v1256.4"/>
            <path class="st1" d="M1032.3 331.8v1256.4"/>
            <path class="st1" d="M887.7 331.8v1256.4"/>
            <path class="st1" d="M743.2 331.8v1256.4"/>
            <path class="st1" d="M598.7 331.8v1256.4"/>
            <path class="st1" d="M454.2 331.8v1256.4"/>
            <path class="st1" d="M1465.8 1062.5v525.7"/>
            <path class="st1" d="M1465.8 331.8v494"/>
            <path class="st1" d="M309.6 331.8v1256.4"/>
            <path class="st1" d="M1465.8 825.8h144.5v236.7h-144.5z"/>
            <path class="st1" d="M1538.1 926.8v34.7"/>
        </g>
    </g>
</svg>
