<svg xmlns="http://www.w3.org/2000/svg" viewBox="0 0 1920 1920">
    <style>
        .st0{fill:#fff}.st1{fill:none;stroke:#231f20;stroke-width:50;stroke-linecap:round;stroke-linejoin:round;stroke-miterlimit:10}
    </style>
    <path class="st0" d="M1656.2 348.8v157.6H263.9V348.8h758.3z" id="Layer_3"/>
    <path class="st0" d="M1419.4 766.5h121.1v178.9h-244V766.5h122.9zm121.2 413.4V945.4h-244v234.5h244zm-244.1 0v475.2h244v-475.2h-244zm-912.8 0v475.2h241.9v-475.2H383.7zm242 0V945.4h-242v234.5h242zm-242-413.4v178.9h241.9V766.5H383.7zm242 178.9v709.7h153.7v-305.4c0-105 85.9-190.8 190.8-190.8 52.5 0 100.2 21.5 134.8 56.1 34.6 34.6 56.1 82.3 56.1 134.8v305.4h135.5V766.5h244V506.4H383.7v260.1h242v178.9zm497-91c36.3 118.7-162.6 173.1-162.6 173.1S761.2 973 797.5 854.4c36.3-118.7-8.4-158.4-8.4-158.4l58.2-58.2c44.8 86.7 112.8 0 112.8 0s68 86.7 112.8 0L1131 696s-44.6 39.7-8.3 158.4z" id="Layer_4"/>
    <path class="st0" d="M897.8 216.9h124.4v131.8H897.8z" id="Layer_5"/>
    <path class="st0" d="M1161 1349.7v305.4H779.4v-305.4c0-105 85.9-190.8 190.8-190.8 52.5 0 100.2 21.5 134.8 56.1 34.5 34.5 56 82.2 56 134.7z" id="Layer_6"/>
    <path class="st0" d="M1072.9 637.8L1131 696s-44.6 39.7-8.4 158.4c36.3 118.7-162.6 173.1-162.6 173.1S761.2 973 797.5 854.4c36.3-118.7-8.4-158.4-8.4-158.4l58.2-58.2c44.8 86.7 112.8 0 112.8 0s67.9 86.7 112.8 0z" id="Layer_7"/>
    <g id="Layer_2">
        <g id="XMLID_1_">
            <path class="st1" d="M1022.2 348.8h634v157.6H263.9V348.8h633.9"/>
            <path class="st1" d="M1161 1655.1h379.6"/>
            <path class="st1" d="M383.7 506.4v1148.7h395.7"/>
            <path class="st1" d="M1540.6 506.4v1148.7"/>
            <path class="st1" d="M1161 1655.1H779.4v-305.4c0-105 85.9-190.8 190.8-190.8 52.5 0 100.2 21.5 134.8 56.1 34.6 34.6 56.1 82.3 56.1 134.8v305.3z"/>
            <path class="st1" d="M960.1 1027.4s198.8-54.4 162.6-173.1C1086.4 735.7 1131 696 1131 696l-58.2-58.2c-44.8 86.7-112.8 0-112.8 0s-68 86.7-112.8 0L789.1 696s44.7 39.7 8.4 158.4c-36.3 118.6 162.6 173 162.6 173z"/>
            <path class="st1" d="M263.9 1655.1v-921"/>
            <path class="st1" d="M216.9 945.4h408.8"/>
            <path class="st1" d="M216.9 1179.9h408.8"/>
            <path class="st1" d="M625.7 1655.1v-921"/>
            <path class="st1" d="M638.5 766.5h45.4"/>
            <path class="st1" d="M205.7 766.5h432.8"/>
            <path class="st1" d="M1296.5 1655.1v-921"/>
            <path class="st1" d="M1296.5 945.4h406.6"/>
            <path class="st1" d="M1296.5 1179.9h406.6"/>
            <path class="st1" d="M1658.3 1655.1v-921"/>
            <path class="st1" d="M1658.3 766.5h58.2"/>
            <path class="st1" d="M1238.3 766.5h420"/>
            <path class="st1" d="M506 708.2v116.5"/>
            <path class="st1" d="M506 1238.1v-116.5"/>
            <path class="st1" d="M1419.4 708.2v116.5"/>
            <path class="st1" d="M897.8 216.9h124.4v131.8H897.8z"/>
            <path class="st1" d="M1419.4 1121.6v116.5"/>
        </g>
    </g>
</svg>
