<svg xmlns="http://www.w3.org/2000/svg" viewBox="0 0 1920 1920">
    <style>
        .st0{fill:#fff}.st1{fill:none;stroke:#231f20;stroke-width:50;stroke-linecap:round;stroke-linejoin:round;stroke-miterlimit:10}.st2{fill:#a0f}
    </style>
    <path class="st0" d="M1544.5 740.3s-88.6 91.9-133.3 106.1c-15.8 5-55.6 13.2-91.6 16.3l-10.2 160.7c-40.7 89.5-132.2 71.2-132.2 71.2l63.1-93.6-12.4-142.2-1 .1c-54.9-7-116.3-23.7-194.1-57.3 0 0 16.3 124.1-120 152.6-74.4 15.6-185.2 195.3-185.2 195.3s44.8 105.8 54.9 209.6c10.2 103.8-103.8 122.1-103.8 122.1l20.4-91.6-71.2-293s252.3-244.2 175-297.1c-77.3-52.9-91.6-128.2-91.6-128.2S627.9 754.7 573 990.7c-54.9 236-357 268.6-357 268.6s255.2-122.1 285.8-329.6S642 457.8 876 441.5c234-16.3 301.1 44.8 354 89.5 52.9 44.8 140.4 170.9 172.9 166.8 32.6-4.1 81.4-65.1 81.4-65.1l-57-38.7-44.8-120s136.3 18.3 175 136.3l45.3 13.2c11.5 3.3 21.4 10.6 28 20.6l73.2 110.7s-16.3 44.8-59 42.7c-25.5-1.2-69.5-32.4-100.5-57.2z" id="Layer_8"/>
    <g id="Layer_1">
        <g id="XMLID_1_">
            <g id="XMLID_2_">
                <path class="st1" d="M1319.6 862.7c36-3.1 75.8-11.3 91.6-16.3 44.8-14.2 133.3-106.1 133.3-106.1"/>
                <path class="st1" d="M1508.8 710.1s15 13.7 35.7 30.2c31.1 24.8 75 56.1 100.6 57.3 42.7 2 59-42.7 59-42.7l-73.2-110.7c-6.6-10-16.5-17.3-28-20.6l-45.3-13.2c-38.7-118-175-136.3-175-136.3l44.8 120 57 38.7s-48.8 61-81.4 65.1c-32.5 4.1-120-122.1-172.9-166.8-52.9-44.8-120-105.8-354-89.5-234 16.3-343.9 280.8-374.4 488.3s-285.8 329.6-285.8 329.6 302-32.6 357-268.6c54.9-236 138.3-319.4 138.3-319.4s14.2 75.3 91.6 128.2c77.3 52.9-175 297.1-175 297.1l71.2 293-20.4 91.6s113.9-18.3 103.8-122.1c-10.2-103.8-54.9-209.6-54.9-209.6s110.7-179.8 185.2-195.3c136.3-28.5 120-152.6 120-152.6 77.8 33.6 139.2 50.3 194.1 57.3"/>
                <path class="st1" d="M1313.5 758.9l-91.5 32.6 5.9 67.3 12.4 142.2-63.1 93.6s91.5 18.3 132.2-71.2l10.2-160.7"/>
            </g>
        </g>
    </g>
</svg>
