<svg xmlns="http://www.w3.org/2000/svg" viewBox="0 0 1920 1920">
    <style>
        .st0{fill:#fff}.st1{fill:none;stroke:#231f20;stroke-width:50;stroke-linecap:round;stroke-linejoin:round;stroke-miterlimit:10}.st2{fill:#a0f}
    </style>
    <g id="Layer_3">
        <path class="st0" d="M533 816.3s37.8 74.1 7.3 125c-30.5 50.9-93 167.1-93 167.1l-13.1 84.3s-46.5 18.9-49.4-85.7 59-193.5 59-193.5"/>
        <path class="st0" d="M531.6 964.5s42.1 8.7 48 75.6c5.8 66.8 34.9 127.9 82.8 146.8l100.3 55.2 21.8 203.4s-123.5-5.8-206.3-2.9-88.6 63.9-88.6 63.9l374.9-2.9-17.4-236.9 30.5-17.4s11.6 37.8 52.3 52.3 69.7-95.9 69.7-95.9c91.5 284.8 167.1 277.5 225.2 292.1 58.1 14.5 261.6-24.7 329.9-26.2s146.8 6.2 146.8 6.2-27.6-38.1-75.6-51.2c-48-13.1-202-4.4-345.8-2.9s-138-109-139.5-191.8c-1.5-82.8-10.2-277.5-156.9-417s-357.7-91.6-410-90.1-93-46.5-93-46.5-47.2-99.6-42.1-102.8c77-48 101.7-144.3 101.7-144.3s-18.9 23.2-52.3 34.9c-33.4 11.6-84.3 37.8-84.3 37.8s-5.8-82.8-21.8-88.6c-16-5.8-37.8 1.5-56.7 37.8-18.9 36.3 5.8 106.1 5.8 106.1s-26.2 14.5-43.6 26.2-11.6 48-11.6 48l-56.7 39.2s-5.8 55.2 24.7 62.5 55.2-13.1 72.7-18.9 45-4.4 58.1 34.9c13.1 39.2-13.1 46.5 43.6 129.3 5.8 8.4 12.2 16.7 19.2 24.6"/>
        <path class="st0" d="M620.2 1128.7s68.3 2.9 162.7-68.3"/>
    </g>
    <g id="Layer_1">
        <path class="st1" d="M533 816.3s37.8 74.1 7.3 125c-30.5 50.9-93 167.1-93 167.1l-13.1 84.3s-46.5 18.9-49.4-85.7 59-193.5 59-193.5"/>
        <path class="st1" d="M531.6 964.5s42.1 8.7 48 75.6c5.8 66.8 34.9 127.9 82.8 146.8l100.3 55.2 21.8 203.4s-123.5-5.8-206.3-2.9-88.6 63.9-88.6 63.9l374.9-2.9-17.4-236.9 30.5-17.4s11.6 37.8 52.3 52.3 69.7-95.9 69.7-95.9c91.5 284.8 167.1 277.5 225.2 292.1 58.1 14.5 261.6-24.7 329.9-26.2s146.8 6.2 146.8 6.2-27.6-38.1-75.6-51.2c-48-13.1-202-4.4-345.8-2.9s-138-109-139.5-191.8c-1.5-82.8-10.2-277.5-156.9-417s-357.7-91.6-410-90.1-93-46.5-93-46.5-47.2-99.6-42.1-102.8c77-48 101.7-144.3 101.7-144.3s-18.9 23.2-52.3 34.9c-33.4 11.6-84.3 37.8-84.3 37.8s-5.8-82.8-21.8-88.6c-16-5.8-37.8 1.5-56.7 37.8-18.9 36.3 5.8 106.1 5.8 106.1s-26.2 14.5-43.6 26.2-11.6 48-11.6 48l-56.7 39.2s-5.8 55.2 24.7 62.5 55.2-13.1 72.7-18.9 45-4.4 58.1 34.9c13.1 39.2-13.1 46.5 43.6 129.3 5.8 8.4 12.2 16.7 19.2 24.6"/>
        <path class="st1" d="M620.2 1128.7s68.3 2.9 162.7-68.3"/>
    </g>
</svg>
