<svg xmlns="http://www.w3.org/2000/svg" viewBox="0 0 1920 1920">
    <style>
        .st0{fill:#fff}.st1{fill:none;stroke:#231f20;stroke-width:50;stroke-linecap:round;stroke-linejoin:round;stroke-miterlimit:10}
    </style>
    <path class="st0" d="M960 217s-35.3 109.5-66.8 279.5h133.5C995.3 326.4 960 217 960 217zm-94.1 1093.3c33.1 244.9 94.1 392.8 94.1 392.8s61-147.9 94.1-392.8H865.9z" id="Layer_9"/>
    <path class="st0" d="M1067.5 807.7h-215c-4.6 61.4-7.4 125.5-7.4 191.3 0 115.5 8.5 220.1 20.8 311.3h188.2c12.3-91.2 20.8-195.8 20.8-311.3 0-65.8-2.8-129.9-7.4-191.3zM960 1135.2s-51.9 1.4-51.9-112.8c0-33.4 4.4-60.3 10.7-81.7 12.1-41.1 70.3-41.1 82.4 0 6.3 21.4 10.7 48.3 10.7 81.7 0 114.2-51.9 112.8-51.9 112.8z" id="Layer_10"/>
    <path class="st0" d="M1001.2 940.8c-12.1-41.1-70.3-41.1-82.4 0-6.3 21.4-10.7 48.3-10.7 81.7 0 114.1 51.9 112.8 51.9 112.8s51.9 1.4 51.9-112.8c0-33.4-4.4-60.3-10.7-81.7z" id="Layer_11"/>
    <path class="st0" d="M1067.1 801.9c-3.8-49.4-8.9-97-14.7-142.3-.2-1.4-.4-2.9-.6-4.3-7.4-57.1-16.1-110.4-25-158.8H893.2c-9 48.4-17.6 101.7-25 158.8-6.3 48.1-11.7 98.9-15.7 151.6v.7h215c-.1-1.8-.3-3.8-.4-5.7z" id="Layer_12"/>
    <g id="STROKES">
        <path class="st1" d="M1074.9 999c0 425.6-114.9 704.1-114.9 704.1S845.1 1424.6 845.1 999c0-65.8 2.7-129.9 7.4-191.3v-.7c4-52.8 9.4-103.6 15.7-151.6 7.4-57.1 16.1-110.4 25-158.8C924.7 326.4 960 217 960 217s35.3 109.5 66.8 279.5c9.2 49.6 18 104.4 25.6 163.2 5.8 45.3 10.9 92.9 14.7 142.3.1 1.9.3 3.8.4 5.8 4.6 61.3 7.4 125.4 7.4 191.2z"/>
        <path class="st1" d="M1001.2 940.8c-12.1-41.1-70.3-41.1-82.4 0-6.3 21.4-10.7 48.3-10.7 81.6 0 114.1 51.9 112.8 51.9 112.8s51.9 1.4 51.9-112.8c0-33.3-4.4-60.2-10.7-81.6z"/>
        <path class="st1" d="M1067.5 807.7h-215"/>
        <path class="st1" d="M1026.8 496.5H893.2"/>
        <path class="st1" d="M1051.8 655.3L960 724.2l-107.5 83.5"/>
        <path class="st1" d="M1067.5 807.7L960 724.2l-91.8-68.9"/>
        <path class="st1" d="M1054.1 1310.3H865.9"/>
    </g>
</svg>
