<svg xmlns="http://www.w3.org/2000/svg" viewBox="0 0 1920 1920">
    <style>
        .st0{fill:#fff}.st1{fill:none;stroke:#231f20;stroke-width:50;stroke-linecap:round;stroke-linejoin:round;stroke-miterlimit:10}
    </style>
    <path class="st0" d="M1704 1358.7L1562.7 1500l64.4 64.4-83.1 83.1-980.2-980.3c19.9-12.7 39-27.9 56.8-45.6 12.3-12.3 23.4-25.3 33.3-38.8l670.8 670.8 132.2-142.1 93.5 93.5-72.7 72.7 68.5 68.6 72.7-72.7 85.1 85.1zM311 312c-106.1 106.2-122.8 261.5-37.4 347 71.2 71.2 190.8 71.5 290.2 8.2 19.9-12.7 39-27.9 56.8-45.6 12.3-12.3 23.4-25.3 33.3-38.8 75.3-102.5 79.6-232.6 4.1-308.1-85.5-85.5-240.9-68.8-347 37.3zm185 185c4.5 23.8-2.5 49.3-20.9 67.7-29.6 29.6-77.6 29.6-107.2 0-29.6-29.6-29.6-77.6 0-107.2 18.4-18.4 43.9-25.4 67.7-20.9-4.5-23.8 2.5-49.3 20.9-67.7 29.6-29.6 77.6-29.6 107.2 0 29.6 29.6 29.6 77.6 0 107.2-18.5 18.4-44 25.4-67.7 20.9z" id="Layer_4"/>
    <g id="Layer_1">
        <path class="st1" d="M563.8 667.2l980.2 980.2 83.1-83-64.4-64.4 141.3-141.3-85.2-85.2-72.7 72.7-68.5-68.5 72.7-72.7-93.5-93.5-132.2 142.1-670.7-670.8"/>
        <path class="st1" d="M653.9 582.8c-9.9 13.5-21 26.5-33.3 38.8-17.7 17.7-36.8 33-56.8 45.6-99.3 63.2-219 63-290.2-8.2-85.4-85.5-68.7-240.8 37.4-347s261.4-122.9 346.9-37.4c75.6 75.6 71.3 205.7-4 308.2z"/>
        <path class="st1" d="M496 497c23.8 4.5 49.3-2.5 67.7-20.9 29.6-29.6 29.6-77.6 0-107.2-29.6-29.6-77.6-29.6-107.2 0-18.4 18.4-25.4 43.9-20.9 67.7-23.8-4.5-49.3 2.5-67.7 20.9-29.6 29.6-29.6 77.6 0 107.2 29.6 29.6 77.6 29.6 107.2 0 18.4-18.4 25.3-43.9 20.9-67.7z"/>
    </g>
</svg>
