<svg xmlns="http://www.w3.org/2000/svg" viewBox="0 0 1920 1920">
    <style>
        .st0{fill:#fff}.st1{fill:none;stroke:#231f20;stroke-width:50;stroke-linecap:round;stroke-linejoin:round;stroke-miterlimit:10}
    </style>
    <path class="st0" d="M1024.6 219.9l46.4 129.8H849l46.4-129.8h129.2zm-64.7 1484.5h.1l111.5-32.7 39-31.2-39-54.4v-41.5l91-61.1-91-89.5v-64.3l82-57.8-82-45.6v-50.4l90-75.5-90-69.3v-69.3h99.9V834.1h82.3v-78.5l105.8-32.7V559.2l-85.2-39.3-91.1-170.2H736.8L645.7 520l-85.2 39.3v163.6l105.8 32.7v78.5h82.3v127.6h99.9v710l111.4 32.7z" id="Layer_5"/>
    <g id="Layer_1">
        <path class="st1" d="M1071 349.8l-46.4-129.9H895.4L849 349.8"/>
        <path class="st1" d="M849 349.8H736.8L645.7 520l-85.2 39.2v163.6l105.8 32.7v78.6h82.2v127.6h99.9v710l111.5 32.7h.2l111.5-32.7 38.9-31.2-38.9-54.4v-41.5l90.9-61.2-90.9-89.5v-64.3l81.9-57.8-81.9-45.6v-50.4l89.9-75.5-89.9-69.3v-69.3h99.8V834.1h82.3v-78.6l105.8-32.7V559.2l-85.2-39.2-91.1-170.2H959.9z"/>
        <path class="st1" d="M669.9 757.1h580.2"/>
        <path class="st1" d="M761.9 883.1h396.2"/>
        <path class="st1" d="M960 887.6v815.3"/>
    </g>
</svg>
