<svg xmlns="http://www.w3.org/2000/svg" viewBox="0 0 1920 1920">
    <style>
        .st0{fill:#fff}.st1{fill:none;stroke:#231f20;stroke-width:50;stroke-linecap:round;stroke-linejoin:round;stroke-miterlimit:10}
    </style>
    <path class="st0" d="M1059.1 1700.6l-111.4-5.4L805.6 1587l38.2-73.2-114.6-108.2 98.7-54.1-63.7-50.9 79.6-73.2L847 1116l-130.5-98.7 95.5-66.8V916c-126.4-56.6-214.4-183.5-214.4-330.9 0-200.2 162.3-362.5 362.5-362.5s362.5 162.3 362.5 362.5c0 165.8-111.3 305.6-263.3 348.7v766.8zm2.8-1237.3c0-56.3-45.6-101.9-101.9-101.9S858.1 407 858.1 463.3 903.7 565.2 960 565.2s101.9-45.7 101.9-101.9z" id="Layer_3"/>
    <g id="Layer_1">
        <path class="st1" d="M1322.5 584.9c0-200.2-162.3-362.5-362.5-362.5S597.5 384.7 597.5 584.9c0 147.4 88.1 274.3 214.4 330.9v34.5l-95.5 66.8 130.5 98.7-3.2 111.4-79.6 73.2 63.7 50.9-98.7 54.1 114.6 108.2-38.2 73.2L947.6 1695l111.4 5.4v-767c152.1-42.9 263.5-182.7 263.5-348.5z"/>
        <path class="st1" d="M960.5 1695.2V940.8"/>
        <circle class="st1" cx="960" cy="463.3" r="101.9"/>
    </g>
</svg>
