<svg id="Layer_1" xmlns="http://www.w3.org/2000/svg" viewBox="0 0 1920 1920">
    <style>
        .st0{fill:#fff}.st1,.st2{fill:none;stroke:#231f20;stroke-width:50;stroke-linecap:round;stroke-linejoin:round;stroke-miterlimit:10}.st2{stroke-width:51.0213}
    </style>
    <path class="st0" d="M1203.6 933.7l154.1-13.1 98.5-8.4 85.4-7.3 59.8-5.1c51.7-4.5 97.2 33.8 101.7 85.5s-33.8 97.3-85.5 101.8-97.2-33.8-101.7-85.5c-.7-8-.4-15.8.9-23.3L221.6 1089.5l-4.8-71.5 45.4-3.9 85.4-7.3 98.5-8.4 154.1-13.2 98.5-8.4 154.1-13.1 98.5-8.4 154.1-13.1 98.2-8.5z" id="Layer_5_1_"/>
    <path class="st0" d="M341.3 934.2l6.3 72.6-85.4 7.3-6.3-72.5 85.4-7.4zm98.4-8.6l6.3 72.8 154.1-13.2-6.3-73-154.1 13.4zm252.5-21.9l6.4 73.1 154.1-13.1-6.4-73.4-154.1 13.4zm252.5-21.9l6.4 73.5 154.1-13.1-6.4-73.7-154.1 13.3zm252.5-21.9l6.4 73.9 154.1-13.1-6.4-74.1-154.1 13.3zm337.9-29.4l-85.4 7.4 6.5 74.2 85.4-7.3-6.5-74.3z" id="Layer_6_1_"/>
    <g id="Layer_1_2_">
        <g id="XMLID_2_">
            <path class="st1" d="M262.2 1014.1l-6.3-72.5 85.4-7.4 6.3 72.6"/>
            <path class="st1" d="M1456.2 912.2l-6.5-74.3 85.4-7.4 6.5 74.4"/>
            <path class="st1" d="M1203.6 933.7l-6.4-73.8 154.1-13.4 6.4 74.1"/>
            <path class="st1" d="M951.1 955.3l-6.4-73.5 154.1-13.4 6.4 73.7"/>
            <path class="st1" d="M698.6 976.8l-6.4-73.1 154.1-13.4 6.3 73.4"/>
            <path class="st1" d="M446 998.4l-6.3-72.8 154.1-13.3 6.3 72.9v.1"/>
            <path class="st2" d="M1516.8 978.2L221.6 1089.5l-4.8-71.5 45.4-3.9 85.4-7.3 98.4-8.4 154.1-13.2 98.5-8.4 154-13.1 98.5-8.4 154.1-13.2 98.4-8.4 154.1-13.1 98.5-8.4 85.4-7.3 59.8-5.1c51.7-4.5 97.2 33.8 101.7 85.5s-33.8 97.3-85.5 101.8-97.2-33.8-101.7-85.5c-.7-8-.4-15.8.9-23.4z"/>
        </g>
    </g>
</svg>
