<svg xmlns="http://www.w3.org/2000/svg" viewBox="0 0 1920 1920">
    <style>
        .st0{fill:#fff}.st1{fill:none;stroke:#231f20;stroke-width:50;stroke-linecap:round;stroke-linejoin:round;stroke-miterlimit:10}
    </style>
    <path class="st0" d="M1347.7 1315.8H711.1c68.3 0 71.7-63.1 71.7-63.1V715.1H1276v537.5c0 .1 3.4 63.2 71.7 63.2z" id="Layer_10"/>
    <path class="st0" d="M782.8 715.1v537.5s-3.4 63.1-71.7 63.1c-15 0-26.7-2.8-36-7.1-9.2 4.4-20.6 7.1-34.9 7.1-14.9 0-26.7-2.8-36-7.1 34.7-16.5 36.8-56 36.8-56V715.1h141.8z" id="Layer_11"/>
    <path class="st0" d="M1224.9 217h-3.7c-18.8 0-36.8 3.1-53.6 8.7-14.7-5.2-30.7-8.3-47.7-8.6h-3.7c-18.8 0-36.8 3.1-53.6 8.7-14.7-5.2-30.7-8.3-47.7-8.6h-3.7c-19.6 0-38.4 3.3-55.8 9.4-17.4-6.1-36.2-9.4-55.8-9.4h-3.7c-16.9.4-32.8 3.4-47.4 8.5-16.7-5.6-34.6-8.6-53.3-8.6h-3.7c-16.9.4-32.9 3.4-47.4 8.5-16.7-5.5-34.6-8.6-53.3-8.6h-3.7c-109.8 2.3-176.3 116-122.2 206.5 12.8 21.3 27.2 47.2 40.1 74.3 20 42.1 36.1 87.2 36.1 123.1h.2v94.3H1276v-94.3c0-35.9 11-81 31-123.1 12.9-27.1 27.3-53 40.1-74.3 54.1-90.5-12.4-204.2-122.2-206.5z" id="Layer_15"/>
    <g id="STROKES">
        <path class="st1" d="M1276 715.1v537.6s3.4 63.1 71.7 63.1 70-58 70-58"/>
        <path class="st1" d="M782.8 715.1v537.6s-3.4 63.1-71.7 63.1c-14.9 0-26.7-2.8-36-7.1"/>
        <path class="st1" d="M712 715.1v537.6s-2.1 39.5-36.8 56c-9.2 4.4-20.6 7.1-34.9 7.1-14.9 0-26.7-2.8-36-7.1 34.7-16.5 36.8-56 36.8-56V715.1H712z"/>
        <path class="st1" d="M570.3 1257.8s1 35.4 34 50.9"/>
        <path class="st1" d="M499.5 1257.8s1.7 58 70 58c14.3 0 25.7-2.8 34.9-7.1"/>
        <path class="st1" d="M641.1 620.9H1276v94.3H641.1z"/>
        <path class="st1" d="M1251 1213.4s-74.2 1.9-75.1-51.9c-.8-45.5-71.1-45.9-92.8-44.9-4.2.2-8.4.2-12.6 0-21.7-1-92-.6-92.8 44.9-.9 53.8-75.1 51.9-75.1 51.9"/>
        <path class="st1" d="M850.9 1311.1v62.8"/>
        <path class="st1" d="M925.4 1311.1v205.8"/>
        <path class="st1" d="M1000 1311.1v313.5"/>
        <path class="st1" d="M1075.7 1311.1v388.8"/>
        <path class="st1" d="M1226 1311.1v62.8"/>
        <path class="st1" d="M1151.4 1311.1v205.8"/>
        <path class="st1" d="M1025.8 1053.1h115.9l-64.9-210s55.8-42.6 133.8-35.6"/>
        <path class="st1" d="M1012.1 822.4S918 784.5 856 829.3"/>
        <path class="st1" d="M902.7 906.2s42.6-16 75.3 0c-.1 0-30.6 20.5-75.3 0z"/>
        <path class="st1" d="M1108.3 906.2s42.6-16 75.3 0c0 0-30.5 20.5-75.3 0z"/>
        <path class="st1" d="M1167.6 225.6c-20.4 6.8-38.9 17.4-54.5 30.9-29.7 25.6-49.2 61.5-52.2 101.8-.3 3.6-.4 7.2-.4 10.8 0-3.6-.1-7.2-.4-10.8-3-40.2-22.5-76.1-52.1-101.7 15.7-13.5 34.2-24.2 54.7-31 16.8-5.6 34.8-8.7 53.6-8.7h3.7c16.9.5 32.9 3.5 47.6 8.7z"/>
        <path class="st1" d="M1062.6 225.6c-20.4 6.8-39 17.5-54.7 31-15.1-13-32.9-23.4-52.5-30.3 17.4-6.1 36.2-9.4 55.8-9.4h3.7c17 .5 33 3.5 47.7 8.7z"/>
        <path class="st1" d="M1347.1 423.5c-12.8 21.3-27.2 47.2-40.1 74.3-20 42.1-31 87.2-31 123.1h-215.6V369.1c0-3.6.1-7.2.4-10.8 3-40.3 22.5-76.2 52.2-101.8 15.7-13.5 34.2-24.1 54.5-30.9 16.8-5.6 34.8-8.7 53.6-8.7h3.7c109.9 2.4 176.4 116.1 122.3 206.6z"/>
        <path class="st1" d="M1060.4 369.1v251.8H849.9c0-35.9-16.1-81-36.1-123.1-12.9-27.1-27.3-53-40.1-74.3C739 365.4 754 297.7 798.3 256c14-13.2 31-23.7 50.2-30.5 14.6-5.2 30.5-8.2 47.4-8.5h3.7c19.6 0 38.4 3.3 55.8 9.4 19.6 6.9 37.4 17.2 52.5 30.3 29.6 25.6 49.1 61.5 52.1 101.7.3 3.4.4 7.1.4 10.7z"/>
        <path class="st1" d="M849.9 620.9H745.4c0-35.9-16.1-81-36.1-123.1-12.9-27.1-27.3-53-40.1-74.3-45.8-76.5-5.3-169.6 74.8-198 14.6-5.2 30.5-8.2 47.4-8.5h3.7c18.7 0 36.6 3 53.3 8.6-19.2 6.8-36.2 17.4-50.2 30.5-44.2 41.6-59.2 109.3-24.4 167.4 12.8 21.3 27.2 47.2 40.1 74.3 19.9 42.1 36 87.1 36 123.1z"/>
        <path class="st1" d="M745.4 620.9H641c0-35.9-16.1-81-36.1-123.1-12.9-27.1-27.3-53-40.1-74.3C510.7 333 577.2 219.3 687 217h3.7c18.7 0 36.6 3 53.3 8.6-80 28.3-120.5 121.4-74.8 198 12.8 21.3 27.2 47.2 40.1 74.3 20 42 36.1 87 36.1 123z"/>
        <path class="st1" d="M955.2 620.9v-193"/>
        <path class="st1" d="M1167.6 620.9v-193"/>
    </g>
</svg>
