<svg xmlns="http://www.w3.org/2000/svg" viewBox="0 0 1920 1920">
    <style>
        .st0{fill:#fff}.st1{fill:none;stroke:#231f20;stroke-width:50;stroke-linecap:round;stroke-linejoin:round;stroke-miterlimit:10}
    </style>
    <path class="st0" d="M1119.7 1240.2c-8.2-10.9-13-24.5-13-39.2 0-2.9.2-5.7.5-8.5l-809.1-106.3-81.2-10.7L476.7 1507l268.6 144.3 245.2-54.5 80.9-176.2 73.5-160c-10-4.6-18.7-11.7-25.2-20.4z" id="Layer_2"/>
    <path class="st0" d="M1467.1 913.2c-18.2-63.9-53.3-127.3-111.7-187.1-184.5-189-360.6-183.1-480.5-140.7-42 14.8-77.1 34.2-103.2 51.2 16.2 93.2 90.7 128.1 90.7 128.1 7.7 157 173.3 320.2 259.2 394.7 12-14.6 30.3-24 50.7-24 36.2 0 65.5 29.3 65.5 65.5s-29.3 65.5-65.5 65.5c-9.8 0-19-2.1-27.4-6l-73.5 160-80.9 176.2 276-74.2s134.9-146.3 191.8-335c15.2-50.3 24.8-103.7 24.8-158-.1-38.3-4.9-77.4-16-116.2z" id="Layer_4"/>
    <path class="st0" d="M862.4 764.8s-74.5-34.9-90.7-128.1c-2.4-13.6-3.5-28.5-3-44.7 0 0-240.5 106.2-292 326.8l121.5 123-52.5 48.4-160.5-85.7-87.1 81.7 809.1 106.3c1.6-12.4 6.7-23.8 14.3-33-85.8-74.5-251.5-237.8-259.1-394.7z" id="Layer_5"/>
    <path class="st0" d="M476.7 918.8l-91.5 85.7 160.6 85.7 52.4-48.4z" id="Layer_6"/>
    <path class="st0" d="M1172.2 1135.5c-20.4 0-38.7 9.4-50.7 24-7.6 9.2-12.7 20.6-14.3 33-.4 2.8-.5 5.6-.5 8.5 0 14.7 4.8 28.3 13 39.2 6.5 8.7 15.2 15.7 25.2 20.3 8.3 3.8 17.6 6 27.4 6 36.2 0 65.5-29.3 65.5-65.5-.1-36.2-29.4-65.5-65.6-65.5z" id="Layer_7"/>
    <path class="st0" d="M1588.7 839.6c-12.4-6.1-24.1-15.4-34.2-29 .4.3 15.2 10.3 34.2 29 50 24.6 109.8-3 109.8-3C1657 694.8 1574.6 613 1499 566.1c36.8-2.4 61.7-13.1 61.7-13.1S1352 240 1063.9 270.8c-226.9 24.3-207.5 228.8-189 314.6 119.9-42.5 296-48.3 480.5 140.7 58.4 59.8 93.5 123.2 111.7 187 160 71.6 145.6 287.8 145.6 287.8 123.2-178 31.6-306.7-24-361.3z" id="Layer_8"/>
    <g id="STROKES">
        <path class="st1" d="M1119.7 1240.2l-336.3 251.3-306.7 15.5L217 1075.6l81.2 10.7 809.1 106.3c-.4 2.8-.5 5.6-.5 8.5-.1 14.6 4.7 28.2 12.9 39.1z"/>
        <path class="st1" d="M1144.9 1260.6l-73.5 160-80.9 176.2-245.2 54.5L476.7 1507l306.7-15.4 336.3-251.3c6.5 8.6 15.2 15.7 25.2 20.3z"/>
        <path class="st1" d="M1121.5 1159.5c-7.6 9.2-12.7 20.6-14.3 33l-809.1-106.3 87.1-81.7 160.5 85.7 52.5-48.4-121.5-123c51.5-220.7 292-326.8 292-326.8-.5 16.2.6 31.1 3 44.7 16.2 93.2 90.7 128.1 90.7 128.1 7.6 156.9 173.3 320.2 259.1 394.7z"/>
        <path class="st1" d="M598.2 1041.8l-52.4 48.4-160.6-85.7 91.5-85.7z"/>
        <path class="st1" d="M598.2 1041.8l-52.4 48.4-160.6-85.7 91.5-85.7z"/>
        <path class="st1" d="M990.4 1596.8l276-74.2s134.9-146.3 191.8-335c25.9-86 35.6-180.7 8.9-274.5"/>
        <path class="st1" d="M771.6 636.7c26.2-17 61.3-36.4 103.3-51.2"/>
        <path class="st1" d="M1071.4 1420.6c73-15.2 247.4-67.1 386.9-232.9"/>
        <path class="st1" d="M1237.7 1201c0 36.2-29.3 65.5-65.5 65.5-9.8 0-19-2.1-27.4-6-10-4.6-18.6-11.6-25.2-20.3-8.2-10.9-13-24.5-13-39.2 0-2.9.2-5.7.5-8.5 1.6-12.4 6.7-23.8 14.3-33 12-14.6 30.3-24 50.7-24 36.3 0 65.6 29.3 65.6 65.5z"/>
        <path class="st1" d="M385.2 1209.3l138.4 236.5"/>
        <path class="st1" d="M484.1 1240.2L595.2 1430"/>
        <path class="st1" d="M576.5 1259.1l95 162.5"/>
        <path class="st1" d="M1612.7 1201s14.4-216.3-145.6-287.8c-18.2-63.9-53.3-127.3-111.7-187.1-184.5-189-360.6-183.1-480.5-140.7-18.5-85.8-37.9-290.3 189-314.6C1352 240 1560.7 553 1560.7 553s-24.9 10.8-61.7 13.1c75.6 46.8 157.9 128.6 199.5 270.5 0 0-59.7 27.6-109.8 3-19-18.7-33.8-28.7-34.3-29 10.1 13.7 21.9 22.9 34.3 29 55.6 54.6 147.2 183.3 24 361.4z"/>
        <path class="st1" d="M1499 566.1s-83.8-58.1-118.2-56.5"/>
    </g>
</svg>
