<svg xmlns="http://www.w3.org/2000/svg" viewBox="0 0 1920 1920">
    <style>
        .st0{fill:#fff}.st1{fill:none;stroke:#231f20;stroke-width:50;stroke-linecap:round;stroke-linejoin:round;stroke-miterlimit:10}
    </style>
    <path class="st0" d="M1371.8 578.1c-21.2-2.9-43.1-10.6-63.9-20.5-58-27.6-107.2-71.9-107.2-71.9-70.1 14.5-127 7.7-167.9-3.7-46.9-13.1-72.6-32.2-72.6-32.2s-.3.2-.7.5c-.1.1-.2.2-.4.3-1.6 1.1-4.9 3.3-9.9 6.1-.2.1-.4.3-.7.4-.8.4-1.6.9-2.5 1.4-.4.2-.9.5-1.3.7-3 1.6-6.5 3.4-10.4 5.3-.5.3-1.1.5-1.6.8-.7.3-1.4.6-2.1 1-.7.3-1.4.7-2.2 1-.7.3-1.3.6-2 .9-.8.4-1.7.7-2.5 1.1-.5.2-1 .4-1.5.7-.6.3-1.3.5-1.9.8-.5.2-.9.4-1.4.5h-.1c-1.6.7-3.3 1.3-5.1 2-.9.3-1.8.7-2.7 1-.2.1-.5.2-.7.3-.1.1-.3.1-.5.2l-1.5.6c-.7.2-1.4.5-2 .7-.6.2-1.1.4-1.7.6-1.7.6-3.5 1.2-5.4 1.8-4 1.3-8.2 2.6-12.6 3.8C846 493.7 789 500.5 719 486c0 0-49.2 44.2-107.2 71.9-20.8 9.9-42.7 17.7-63.9 20.5 0 0-30.6 261.1 87.6 477.7 59.9 109.7 158 207.9 317.7 255 2.1.6 4.3 1.3 6.5 1.9 2.2-.6 4.4-1.2 6.5-1.9 159.7-47.1 257.8-145.3 317.7-255 118.6-216.9 87.9-478 87.9-478zm-626.2 478.3c-67.2-56.2-113.3-141-113.3-248.3 0-92.1 66.9-139.2 140.2-163.1-67.5 127.5-76.4 277.9-26.9 411.4zm156.1 72.7c-5.7-1-11.4-2.2-17.1-3.5C774.5 975.7 778 768.6 895 622.4c2.2-.2 4.5-.3 6.6-.4v507.1zm133.6-3.6c-6 1.4-12.1 2.6-18.2 3.7V621.8c2.5.2 5.1.3 7.7.5 117.1 146.3 120.6 353.4 10.5 503.2zm149-77.9c-3.2 2.9-6.5 5.7-9.8 8.5 49.3-133.4 40.4-283.6-26.9-410.9 73.2 24 139.8 71.1 139.8 163 0 101.8-41.5 183.3-103.1 239.4z" id="Layer_13"/>
    <path class="st0" d="M1200.8 485.6s49.2 44.2 107.2 71.9c-10.7-85-51.2-147.9-95.4-192.7-62.6-63.3-132.8-90.2-137.2-91.9L1033 481.8c40.8 11.5 97.7 18.3 167.8 3.8zM887 481.9L844.7 273c-7.5 2.8-206.8 79.2-232.7 284.6 58-27.6 107.2-71.9 107.2-71.9 70.1 14.4 127 7.6 167.8-3.8zm446.8 607.4l-49.6-33.5c-59.9 109.7-158 207.9-317.7 255-2.1.6-4.3 1.3-6.5 1.9-2.2-.6-4.4-1.2-6.5-1.9-159.7-47.1-257.8-145.3-317.7-255l-49.6 33.5c-5.3 50.9-8 167.8 66.6 238.2 87.3 82.4 270.4 209.8 307.2 235.2 36.9-25.4 220-152.8 307.2-235.2 74.6-70.4 71.9-187.3 66.6-238.2z" id="Layer_14"/>
    <path class="st0" d="M887 481.9c4.4-1.2 8.6-2.5 12.6-3.8l5.4-1.8c.6-.2 1.2-.4 1.7-.6.7-.2 1.4-.5 2-.7.4-.1.8-.3 1.1-.4.1 0 .3-.1.4-.1.1 0 .3-.1.5-.2s.5-.2.7-.3c.1 0 .2-.1.3-.1l1.5-.6c12.3-4.7 22.3-9.5 29.8-13.6.3-.2.6-.3.9-.5 2.8-1.5 5.2-2.9 7.2-4.1.3-.2.6-.4 1-.6 2.6-1.6 4.6-2.9 5.8-3.7.2-.1.3-.2.4-.3.1-.1.2-.1.3-.2.1-.1.1-.1.2-.1.4-.3.7-.5.7-.5v.5c.4-.3.6-.4.7-.5s25.7 19.2 72.6 32.2l42.4-208.9 2.8-13.5c-37-44.6-118.4-42.5-118.4-42.5S879 214.8 842 259.4l2.8 13.5 42.2 209zm535.2 667.1l-88.4-59.8c5.3 50.9 8 167.8-66.6 238.2-87.3 82.4-270.4 209.8-307.2 235.2-36.8-25.4-219.9-152.8-307.2-235.2-74.5-70.4-71.9-187.3-66.6-238.2l-88.4 59.8s-99.1 209.1 268.6 429l193.3 125h.7l193.3-125c367.7-219.9 268.5-429 268.5-429z" id="Layer_15"/>
    <path class="st0" d="M632.2 808.1c0 107.3 46.1 192.1 113.3 248.3C696.1 922.9 705 772.5 772.4 645c-73.3 24-140.2 71.1-140.2 163.1zm252.4 317.5c5.7 1.3 11.4 2.5 17.1 3.5V621.9c-2.2.1-4.4.3-6.6.4-117 146.3-120.5 353.4-10.5 503.3zm140.3-503.2c-2.6-.2-5.2-.4-7.7-.5v507.4c6.1-1.1 12.1-2.3 18.2-3.7 110-149.9 106.5-357-10.5-503.2zm122.7 22.7c67.3 127.4 76.3 277.5 26.9 410.9 3.3-2.8 6.5-5.6 9.8-8.5 61.7-56.1 103.2-137.6 103.2-239.4-.1-91.9-66.7-139-139.9-163z" id="Layer_16"/>
    <g id="STROKES">
        <path class="st1" d="M1078 259.4l-2.8 13.5-42.4 208.9c-46.9-13.1-72.6-32.2-72.6-32.2s-.3.2-.7.5v-.5s-18.5 13.8-52.9 26c-.6.2-1.1.4-1.7.6-1.8.6-3.5 1.2-5.4 1.8-4 1.3-8.2 2.6-12.6 3.8L844.7 273l-2.8-13.5c37-44.6 117.7-42.5 117.7-42.5s81.4-2.2 118.4 42.4z"/>
        <path class="st1" d="M1284.2 1055.7c-59.9 109.7-158 207.9-317.7 255-2.1.6-4.3 1.3-6.5 1.9-2.2-.6-4.4-1.2-6.5-1.9-159.7-47.1-257.8-145.3-317.7-255C517.5 839.2 548.2 578 548.2 578c21.2-2.9 43.1-10.6 63.9-20.5 58-27.6 107.2-71.9 107.2-71.9 70 14.5 127 7.7 167.8-3.7 4.4-1.2 8.6-2.5 12.6-3.8l5.4-1.8c.6-.2 1.2-.4 1.7-.6 30.7-10.8 49.2-23 52.9-25.5.4-.3.6-.4.7-.5s25.7 19.2 72.6 32.2c40.9 11.4 97.8 18.2 167.8 3.7 0 0 49.2 44.2 107.2 71.9 20.8 9.9 42.7 17.7 63.9 20.5-.1.1 30.6 261.2-87.7 477.7z"/>
        <path class="st1" d="M612 557.5C638 352.2 837.2 275.8 844.7 273c.1 0 .2-.1.2-.1"/>
        <path class="st1" d="M959.7 1703.1l-193.3-125c-367.7-219.9-268.6-429-268.6-429l88.4-59.8 49.6-33.5"/>
        <path class="st1" d="M586.2 1089.3c-5.3 50.9-8 167.8 66.6 238.2 87.3 82.5 270.4 209.8 307.2 235.2"/>
        <ellipse transform="rotate(-81.205 843.948 1555.717)" class="st1" cx="843.9" cy="1555.7" rx="5.8" ry="5.8"/>
        <ellipse transform="rotate(-81.205 960.348 1627.307)" class="st1" cx="960.3" cy="1627.3" rx="5.8" ry="5.8"/>
        <ellipse transform="rotate(-81.205 705.429 1459.404)" class="st1" cx="705.4" cy="1459.4" rx="5.8" ry="5.8"/>
        <ellipse transform="rotate(-81.205 583.838 1339.906)" class="st1" cx="583.8" cy="1339.9" rx="5.8" ry="5.8"/>
        <ellipse transform="rotate(-81.205 544.597 1217.436)" class="st1" cx="544.6" cy="1217.4" rx="5.8" ry="5.8"/>
        <path class="st1" d="M1075.1 272.9s.1 0 .2.1c7.5 2.8 206.7 79.2 232.7 284.6"/>
        <path class="st1" d="M960.3 1703.1l193.3-125c367.7-219.9 268.6-429 268.6-429l-88.4-59.8-49.6-33.5"/>
        <path class="st1" d="M1333.8 1089.3c5.3 50.9 8 167.8-66.6 238.2-87.3 82.4-270.4 209.8-307.2 235.2"/>
        <ellipse transform="rotate(-8.795 1076.305 1555.982)" class="st1" cx="1076.1" cy="1555.7" rx="5.8" ry="5.8"/>
        <ellipse transform="rotate(-8.795 1214.851 1459.652)" class="st1" cx="1214.6" cy="1459.4" rx="5.8" ry="5.8"/>
        <ellipse transform="rotate(-8.795 1336.464 1340.131)" class="st1" cx="1336.2" cy="1339.9" rx="5.8" ry="5.8"/>
        <ellipse transform="rotate(-8.795 1375.712 1217.639)" class="st1" cx="1375.4" cy="1217.4" rx="5.8" ry="5.8"/>
        <path class="st1" d="M1287.4 808.1c0 101.8-41.5 183.4-103.2 239.4-3.2 2.9-6.5 5.7-9.8 8.5-40.5 34-88.7 57.6-139.2 69.4-10.1 2.4-20.4 4.3-30.7 5.7-14.8 2.1-29.8 3.1-44.7 3.1h-.3c-15.2 0-30.4-1.1-45.5-3.2-9.9-1.4-19.8-3.2-29.5-5.5-50.4-11.8-98.6-35.3-139.1-69.2-67.2-56.2-113.3-141-113.3-248.3 0-92.1 66.9-139.2 140.2-163.1 42.7-14 87.5-20.1 122.7-22.7 6.8-.5 13.1-.9 19.1-1.1 26.2-1.2 43.8-.4 45.6-.3 1.8-.1 19.1-.8 44.9.3 6.3.3 13 .6 20.2 1.2 35.2 2.6 80.1 8.8 122.7 22.8 73.3 24 139.9 71.1 139.9 163z"/>
        <path class="st1" d="M959.7 450.1v170.8"/>
        <path class="st1" d="M960 1312.6v-178.2"/>
        <path class="st1" d="M1017.2 628.9v494.7c-18.9 2-38 3-57 3h-.4c-19.4 0-38.8-1.1-58-3.2V628.9c33.4-1.2 55.9-.4 58.2-.3 2.3-.1 24.3-.8 57.2.3z"/>
        <path class="st1" d="M895.1 622.3c-117 146.2-120.5 353.4-10.4 503.2-50.4-11.8-98.6-35.3-139.1-69.2C696.1 922.9 705 772.5 772.4 645c42.7-13.9 87.5-20.1 122.7-22.7z"/>
        <path class="st1" d="M1174.5 1056.1c-40.5 34-88.7 57.6-139.2 69.4 110-149.9 106.5-356.9-10.5-503.2 35.2 2.6 80.1 8.8 122.7 22.8 67.4 127.4 76.4 277.5 27 411z"/>
    </g>
</svg>
