<svg xmlns="http://www.w3.org/2000/svg" viewBox="0 0 1920 1920">
    <style>
        .st0{fill:#fff}.st1{fill:none;stroke:#231f20;stroke-width:50;stroke-linecap:round;stroke-linejoin:round;stroke-miterlimit:10}
    </style>
    <path class="st0" d="M1264.1 216.9V1703H1163v-187.3H757V1703H656V216.9h101v187.3h406V216.9h101.1zM1163 1414.7v-101H757v101h406zm0-202.1v-101.1H757v101.1h406zm0-202.1v-101H757v101.1h406zm0-202.1v-101H757v101h406zm0-202.1v-101H757v101.1h406z" id="Layer_1"/>
    <g id="STROKES">
        <path class="st1" d="M1163 216.9v187.3H757V216.9H655.9v1486.2H757v-187.3h406v187.3h101.1V216.9z"/>
        <path class="st1" d="M757 505.3h406v101.1H757z"/>
        <path class="st1" d="M757 707.4h406v101.1H757z"/>
        <path class="st1" d="M757 909.5h406v101.1H757z"/>
        <path class="st1" d="M757 1111.6h406v101.1H757z"/>
        <path class="st1" d="M757 1313.7h406v101.1H757z"/>
    </g>
</svg>
