<svg xmlns="http://www.w3.org/2000/svg" viewBox="0 0 1920 1920">
    <style>
        .st0{fill:#fff}.st1{fill:none;stroke:#231f20;stroke-width:50;stroke-linecap:round;stroke-linejoin:round;stroke-miterlimit:10}
    </style>
    <path class="st0" d="M1314.8 1325.3l20.1 78.9H585.1l20.1-78.9h709.6zM700.2 951.7l-20 78.7.8.2h558.8l-20.1-78.8H700.2zm539.6 78.9l75 294.7 20.1 78.9 76.1 298.9h127.9L1203.5 344.9h-138.3l59.4 233.3 20.1 78.8 75 294.7 20.1 78.9zM795.3 578.2l-20 78.8h369.4l-20.1-78.8H795.3zm-190.1 747.1l75.1-294.9 20-78.7 75-294.7 20.1-78.8 59.4-233.3H716.5L381.1 1703.1H509l76.1-298.9 20.1-78.9zM748.1 216.9l-31.6 127.9h487.1L1172 216.9H748.1z" id="Layer_2"/>
    <g id="STROKES">
        <path class="st1" d="M700.2 951.7h519.7"/>
        <path class="st1" d="M681 1030.6h558.8"/>
        <path class="st1" d="M795.3 578.2h329.4"/>
        <path class="st1" d="M775.3 657h369.4"/>
        <path class="st1" d="M605.2 1325.3h709.6"/>
        <path class="st1" d="M584.9 1404.2h750"/>
        <path class="st1" d="M381.1 1703.1H509"/>
        <path class="st1" d="M1411 1703.1h127.9"/>
        <path class="st1" d="M1171.9 216.9H748.1"/>
        <path class="st1" d="M748.1 216.9l-31.6 128-335.4 1358.2"/>
        <path class="st1" d="M854.7 344.9l-59.4 233.3-20 78.8-75.1 294.7-20 78.7-75 294.9-20.1 78.9-76.1 298.9"/>
        <path class="st1" d="M1411 1703.1l-76.1-298.9-20.1-78.9-75-294.7-20-78.9-75.1-294.7-20-78.8-59.4-233.3"/>
        <path class="st1" d="M1171.9 216.9l31.6 128 335.4 1358.2"/>
        <path class="st1" d="M716.5 344.9h487"/>
    </g>
</svg>
