<svg xmlns="http://www.w3.org/2000/svg" viewBox="0 0 1920 1920">
    <style>
        .st0{fill:#fff}.st1{fill:none;stroke:#231f20;stroke-width:50;stroke-linecap:round;stroke-linejoin:round;stroke-miterlimit:10}
    </style>
    <path class="st0" d="M960 322.6c-122.7 0-222.2 85.2-222.2 190.3 0 18.3 3 36 8.7 52.8 33.5-7.3 67.7-11.1 102-11.1 3.1 0 6.1 0 9.2.1 28.8.6 54 12.5 72.2 31 6.6 6.7 12.2 14.2 16.8 22.4 0 .1.1.2.1.2 0 .1.1.1.1.2 4.7 8.5 8.2 17.6 10.4 27.1.2 1.1.5 2.1.7 3.2 1 4.9 1.6 9.9 1.8 15 0 1 .1 1.9.1 2.9v-.1c0-.6 0-1.3.1-1.9 0-.6 0-1.3.1-1.9 0-.6.1-1.3.1-1.9.1-.6.1-1.3.2-1.9.1-.6.1-1.3.2-1.9.1-.6.1-1.3.2-1.9.1-.6.2-1.3.3-1.9.1-.6.2-1.2.3-1.9.1-.6.2-1.2.4-1.9.5-2.5 1.1-5 1.7-7.5.2-.6.3-1.2.5-1.8.2-.6.4-1.2.5-1.8l.6-1.8c.4-1.2.8-2.4 1.3-3.6.3-.9.6-1.7 1-2.5l.9-2.1c1-2.3 2-4.5 3.2-6.7.1-.3.3-.6.4-.9l1.8-3.3c.2-.3.4-.6.6-1 .2-.4.5-.9.8-1.3.2-.3.4-.7.6-1 .3-.5.7-1.1 1-1.6.3-.5.7-1.1 1-1.6 11.6-17.2 28.2-30.9 48.1-38.7 11.2-4.4 23.4-7 36.3-7.2 3.1-.1 6.1-.1 9.2-.1 34.4 0 68.5 3.8 102.1 11.1 2.8-8.4 5-17 6.5-25.8s2.2-17.8 2.2-27c.1-105.5-99.4-190.7-222.1-190.7z" id="Layer_13"/>
    <path class="st0" d="M1175.2 1337.4l-30.2-93-60.3-185.6-33-101.5L993.1 777l-3.5-10.7-20.5-63.3-4-12.2c-3.4-10.5-5.1-21-5.2-31.3v-1 1c-.1 10.3-1.8 20.8-5.2 31.3l-4 12.2-19.4 59.9-55 169.3-7.4 22.6-33.8 103.9-30.6 94.3-29.7 91.3-60.1 185.7h490.7l-30.2-92.6zm41.1 126.4l-5.4-16.5-5.6-17.3H714.7l-2.9 8.9-22.5 69.3-7.7 23.6c51.4 76.9 121 119.7 177.8 143.3S960 1703 960 1703s175.6-17.4 278.4-171.2l-22.1-68z" id="Layer_14"/>
    <path class="st0" d="M1447.5 1569.5c-6.4 5.7-13 11.3-19.8 16.6 6.8-5.3 13.4-10.8 19.8-16.6zM1591.7 963c-17.7-54.4-41.9-104.7-71.3-149.9-20 13-43.9 20.6-69.6 20.6-70.7 0-128.1-57.3-128.1-128 0-25.6 7.5-49.4 20.4-69.4-52.8-33.6-110.1-57.6-169.5-70.5-33.5-7.3-67.7-11.1-102.1-11.1-3.1 0-6.1 0-9.2.1-12.9.3-25.1 2.8-36.3 7.2-19.9 7.8-36.5 21.6-48.1 38.7-.4.5-.7 1-1 1.6-.3.5-.7 1.1-1 1.6-.2.3-.4.7-.6 1-.3.4-.5.9-.8 1.3-.2.3-.4.6-.6 1l-1.8 3.3c-.2.3-.3.6-.4.9-1.1 2.2-2.2 4.4-3.2 6.7l-.9 2.1c-.4.8-.7 1.7-1 2.5-.5 1.2-.9 2.4-1.3 3.6l-.6 1.8c-.2.6-.4 1.2-.5 1.8-.2.6-.4 1.2-.5 1.8-.7 2.5-1.3 5-1.7 7.5-.1.6-.2 1.2-.4 1.9-.1.6-.2 1.2-.3 1.9-.1.6-.2 1.3-.3 1.9-.1.6-.2 1.3-.2 1.9-.1.6-.1 1.3-.2 1.9-.1.6-.1 1.3-.2 1.9 0 .6-.1 1.3-.1 1.9 0 .6-.1 1.3-.1 1.9 0 .6 0 1.3-.1 1.9v.1c0-1-.1-1.9-.1-2.9-.2-5.1-.9-10.1-1.8-15-.2-1.1-.4-2.1-.7-3.2-2.2-9.6-5.7-18.7-10.4-27.1 0-.1-.1-.1-.1-.2s-.1-.1-.1-.2c-4.6-8.2-10.2-15.7-16.8-22.4-18.2-18.5-43.4-30.4-72.2-31-3.1-.1-6.1-.1-9.2-.1-34.4 0-68.5 3.8-102 11.1-30.1 6.5-59.6 15.9-88.2 27.9-28.7 12-56.5 26.7-83.1 43.8 12.4 19.7 19.6 43.1 19.6 68.2 0 70.7-57.3 128-128 128-24.9 0-48.1-7.1-67.8-19.4-29.1 45-53.1 94.8-70.6 148.8-73.8 227.2-12.4 462.5 138.4 601.3 12.9-71.3 75.3-125.4 150.3-125.4 16 0 31.4 2.5 45.9 7 14.5 4.6 28 11.2 40.3 19.6l8.6-26.6 2.9-8.9 60.3-185.6 29.7-91.3 30.6-94.3L869 954.9c-40.8-12.9-70.4-51.1-70.4-96.2 0-55.7 45.2-100.9 100.9-100.9 11.1 0 21.8 1.8 31.9 5.1l19.4-59.9 4-12.2c3.4-10.5 5.1-21 5.2-31.3v-1 1c.1 10.3 1.8 20.8 5.2 31.3l4 12.2 20.5 63.2c12.4-5.4 26.1-8.4 40.5-8.4 55.7 0 100.9 45.2 100.9 100.9 0 48.3-33.9 88.7-79.3 98.6l33 101.5 60.3 185.6 30.2 93 30.1 92.7 5.6 17.3 5.4 16.5c24-15.8 52.8-24.9 83.7-24.9 75.8 0 138.8 55.3 150.7 127.7 152.5-138.6 215.1-375.2 140.9-603.7zM539 1181.4c-55.7 0-100.9-45.2-100.9-100.9S483.3 979.6 539 979.6s100.9 45.2 100.9 100.9c0 55.8-45.1 100.9-100.9 100.9zm842 0c-55.7 0-100.9-45.2-100.9-100.9s45.2-100.9 100.9-100.9 100.9 45.2 100.9 100.9c0 55.8-45.2 100.9-100.9 100.9z" id="Layer_15"/>
    <path class="st0" d="M617 1438.9c-75 0-137.4 54.1-150.3 125.4 30.6 28.2 64.9 52.4 102.5 71.8 12.1 6.2 25.1 8.2 37.5 6.7 22.7-2.9 43.3-17.9 52-40.9.4-1 .7-1.9 1-2.9l21.8-67.1 7.7-23.6 4.8-14.7 9.1-28c-12.3-8.4-25.8-15-40.3-19.6-14.4-4.6-29.8-7.1-45.8-7.1zm-22.2-733.3c0-25.1-7.2-48.4-19.6-68.2-68.4 43.9-129 103.9-176.2 176.8 19.7 12.3 42.9 19.4 67.8 19.4 70.6 0 128-57.3 128-128zm855.9 128c25.7 0 49.6-7.6 69.6-20.6-47.5-73-108.5-133-177.3-176.8-12.9 20-20.4 43.8-20.4 69.4 0 70.7 57.4 128 128.1 128zM539 1181.5c55.7 0 100.9-45.2 100.9-100.9S594.7 979.7 539 979.7s-100.9 45.2-100.9 100.9 45.2 100.9 100.9 100.9zm761 257.4c-30.9 0-59.6 9.2-83.7 24.9l4.2 12.9 17.9 55.1 14 43.1 7.8 24.1c.6 2 1.4 3.9 2.2 5.8.5 1.2 1.1 2.5 1.7 3.7 3.4 6.6 7.7 12.4 12.9 17.2.3.3.7.6 1 .9.5.5 1 .9 1.5 1.4 7.6 6.4 16.5 11 26.1 13.4.3.1.6.2.9.2 14.3 3.4 29.9 1.9 44.2-5.5 16-8.2 31.4-17.4 46.1-27.3 9.4-6.3 18.6-13 27.5-20 1.1-.9 2.3-1.8 3.4-2.7 6.7-5.4 13.3-10.9 19.8-16.6 1.1-1 2.1-1.9 3.2-2.9-11.9-72.4-74.9-127.7-150.7-127.7zM798.7 858.7c0 45.1 29.6 83.3 70.4 96.2l7.4-22.6 55-169.3c-10-3.3-20.7-5.1-31.8-5.1-55.8-.1-101 45-101 100.8zm582.3 121c-55.7 0-100.9 45.2-100.9 100.9s45.2 100.9 100.9 100.9 100.9-45.2 100.9-100.9c0-55.8-45.2-100.9-100.9-100.9zm-350.9-221.9c-14.4 0-28.1 3-40.5 8.4l3.5 10.7 58.6 180.3c45.3-9.9 79.3-50.3 79.3-98.6 0-55.7-45.2-100.8-100.9-100.8z" id="Layer_16"/>
    <g id="STROKES">
        <path class="st1" d="M960 658.6v1c-.1 10.3-1.8 20.8-5.2 31.3l-4 12.2-19.4 59.9L869 955l-33.8 103.9-60.2 185.5-60.3 185.6-11.5 35.5-21.5 66.3-21.8 67.1c-12.2 37.7-55.3 55.3-90.5 37.2-37.6-19.4-71.9-43.6-102.5-71.8C316 1425.4 254.5 1190.2 328.3 963c17.5-54 41.5-103.8 70.6-148.8 47.2-72.9 107.8-132.9 176.2-176.8 53.3-34.2 111.3-58.6 171.4-71.7 36.5-8 73.8-11.8 111.2-11 58.6 1.1 102.3 49.2 102.3 103.9z"/>
        <path class="st1" d="M1450.7 1566.6c-30 27.2-63.4 50.6-99.9 69.5-35.2 18.2-78.3.5-90.5-37.2l-21.8-67.1-22.1-68-11-33.8-60.3-185.6-60.3-185.6-33-101.5-62.1-191-20.6-63.3-4-12.2c-3.4-10.5-5.1-21-5.2-31.3v-1c0-54.7 43.7-102.7 102.2-103.9 37.5-.7 74.7 3.1 111.3 11 59.4 13 116.8 37 169.5 70.5 69 43.9 130 103.9 177.4 176.9 29.4 45.2 53.7 95.5 71.3 149.9 74.3 228.6 11.7 465.2-140.9 603.7z"/>
        <path class="st1" d="M1238.4 1531.8C1135.6 1685.6 960 1703.1 960 1703.1s-175.6-17.4-278.4-171.2l33.1-101.8h490.7l33 101.7z"/>
        <path class="st1" d="M1205.3 1430H714.7l60.3-185.6 60.3-185.6h249.4l60.3 185.6z"/>
        <path class="st1" d="M1182.2 512.9c0 18.3-3 36-8.7 52.8-36.5-8-73.8-11.7-111.3-11-58.5 1.2-102.2 49.2-102.3 103.9 0-54.6-43.7-102.7-102.3-103.9-37.5-.7-74.7 3-111.2 11-5.7-16.8-8.7-34.5-8.7-52.8 0-105.1 99.5-190.3 222.2-190.3s222.3 85.2 222.3 190.3z"/>
        <path class="st1" d="M775 1244.4h370"/>
        <circle class="st1" cx="539" cy="1080.6" r="100.9"/>
        <circle class="st1" cx="1381" cy="1080.6" r="100.9"/>
        <path class="st1" d="M1131 858.7c0 48.3-33.9 88.7-79.3 98.6l-62.1-191c12.4-5.4 26.1-8.4 40.5-8.4 55.7-.1 100.9 45 100.9 100.8z"/>
        <path class="st1" d="M931.4 762.9l-62.4 192c-40.8-12.9-70.4-51.1-70.4-96.2 0-55.7 45.2-100.9 100.9-100.9 11.2 0 21.9 1.8 31.9 5.1z"/>
        <path class="st1" d="M703.1 1465.5l-21.5 66.3-21.8 67.1c-12.2 37.7-55.3 55.3-90.5 37.2-37.6-19.4-71.9-43.6-102.5-71.8 12.9-71.3 75.3-125.4 150.3-125.4 31.9 0 61.5 9.8 86 26.6z"/>
        <path class="st1" d="M1450.7 1566.7c-30 27.2-63.4 50.6-99.9 69.5-35.2 18.2-78.3.5-90.5-37.2l-21.8-67.1-22.1-68c24-15.8 52.8-24.9 83.7-24.9 75.7-.1 138.7 55.2 150.6 127.7z"/>
        <path class="st1" d="M1117.7 371.4c0-85.3 69.1-154.4 154.4-154.4 68.2 0 123.6 55.3 123.6 123.6 0 54.6-44.3 98.8-98.8 98.8"/>
        <path class="st1" d="M806.3 371.4c0-85.3-69.1-154.4-154.4-154.4-68.2 0-123.6 55.3-123.6 123.6 0 54.6 44.3 98.8 98.8 98.8"/>
        <path class="st1" d="M1520.3 813c-20 13-43.9 20.6-69.6 20.6-70.7 0-128.1-57.3-128.1-128 0-25.6 7.5-49.4 20.4-69.4C1411.9 680 1472.9 740 1520.3 813z"/>
        <path class="st1" d="M594.8 705.6c0 70.7-57.3 128-128 128-24.9 0-48.1-7.1-67.8-19.4 47.2-72.9 107.8-132.9 176.2-176.8 12.4 19.7 19.6 43.1 19.6 68.2z"/>
    </g>
</svg>
