<svg xmlns="http://www.w3.org/2000/svg" viewBox="0 0 1920 1920">
    <style>
        .st0{fill:#fff}.st1{fill:none;stroke:#231f20;stroke-width:50;stroke-linecap:round;stroke-linejoin:round;stroke-miterlimit:10}
    </style>
    <path class="st0" d="M616.4 520c-5.6-22-7.1-42.1-20.9-42.1-27.6 0-26.4 21.6-26.4 21.6 19.2 102.1 92.6 73.8 92.6 73.8-30.1-7.5-39.7-31.3-45.3-53.3zm-119 637.4s-87 14.1-62.4 193.6c7.5 54.5 16.2 85.8 24.6 102.9 10.1 10.7 15.6 17.9 15.6 17.9 12.6 4.7 22.2-13.6 22.2-13.6s20.4-20.9 10-54.2c-10.3-33.2-31.5-225.7-10-246.6zm766.9-627.9c-14.7-103.3-79.2-145.2-115-160.7-5.4-2.4-11.2-3.5-16.9-3.5-8.8 0-17.6 2.7-25 8-6.6 4.7-13.6 8.6-20.9 11.8-21.2 9.1-45 11.5-67.9 6.4-29-6.4-58.6-10-58.6-10s-29.6 3.6-58.6 10c-22.9 5.1-46.7 2.7-67.9-6.4-7.3-3.1-14.3-7.1-20.9-11.8-7.4-5.3-16.2-8-25-8-5.7 0-11.5 1.1-16.9 3.5-35.7 15.5-100.3 57.4-115 160.7-2.4 16.9-.1 31.4 5.9 43.8C706.7 667 960 641.6 960 641.6s253.3 25.4 298.4-68.3c6-12.3 8.3-26.8 5.9-43.8zM342 823.5c-13.6 5-15.5 23.3-3.2 31 28.9 18.2 89.4 34.3 200.5-20.4-1.3-.8-82.8-52.7-197.3-10.6zm982.6-345.6c-27.6 0-6.1 80.4-66.1 95.5 0 0 73.4 28.3 92.6-73.8-.1-.1 1.1-21.7-26.5-21.7zm253.5 345.6c-115.4-42.3-197.2 10.6-197.2 10.6 111.1 54.8 171.6 38.6 200.5 20.4 12.1-7.7 10.2-26.1-3.3-31zm-155.5 333.9c21.5 20.9.3 213.4-10 246.7-10.3 33.3 10 54.2 10 54.2s9.6 18.2 22.2 13.6c0 0 5.5-7.2 15.6-17.9 8.5-17.1 17.2-48.4 24.6-102.9 24.6-179.6-62.4-193.7-62.4-193.7z" id="Layer_2"/>
    <path class="st0" d="M1004 219.9h-88c-45.6 0-82.5 36.9-82.5 82.5v82.7c21.2 9.1 45 11.5 67.9 6.4 29-6.4 58.6-10 58.6-10s29.6 3.6 58.6 10c22.9 5.1 46.7 2.7 67.9-6.4v-82.7c0-45.6-36.9-82.5-82.5-82.5z" id="Layer_4"/>
    <path class="st0" d="M1424.4 1067.9c-6.9 2-14.1 3.1-21.7 3.1-42.2 0-76.3-34.2-76.3-76.3 0-42.2 34.2-76.3 76.3-76.3h.7c-5.9-27.5-13.3-56.2-22.7-84.3-17.3-52-41.2-102.1-74.1-139.2 0 0-24.7-35.7-69.2-35.7H990.6c-6.5 0-12.4 2-17.4 5.4 33.8 13.5 119 58.4 119 168.7 0 133.5-124.8 35.2-132.2 29.2l-.3-.3S827 970.9 827 833.3c0-110.8 86-155.7 119.5-168.9-4.9-3.3-10.8-5.2-17.1-5.2H682.5c-44.5 0-69.2 35.7-69.2 35.7-33 37-56.9 87.2-74.2 139.1-9.3 28.2-16.8 56.9-22.6 84.4 1.3 0 2.5-.1 3.8-.1 42.1 0 76.3 34.2 76.3 76.3 0 42.1-34.2 76.3-76.3 76.3-8.7 0-17-1.4-24.7-4.1-.9 12.8-1.2 20.2-1.2 20.2 0 24.3 1 47.8 2.9 70.3 9.2 108.2 39.6 195.7 80.6 266.2 12.3-5.1 25.8-7.8 40-7.8 58.4 0 105.8 47.4 105.8 105.8 0 20.1-5.6 38.9-15.3 54.9 122.4 101 251.6 126.7 251.6 126.7s128.9-25.6 251.1-126.2c-9.9-16.1-15.6-35-15.6-55.3 0-58.4 47.4-105.8 105.8-105.8 14.4 0 28.1 2.9 40.6 8.1 41.1-70.5 71.5-158.1 80.7-266.4 1.9-22.5 2.9-45.9 2.9-70.3 0-.1-.2-7.1-1.1-19.3zm-666 165.2c-52.3 0-94.8-42.4-94.8-94.8 0-52.3 42.4-94.8 94.8-94.8 52.3 0 94.8 42.4 94.8 94.8 0 52.3-42.5 94.8-94.8 94.8zm403.6 0c-52.3 0-94.8-42.4-94.8-94.8 0-52.3 42.4-94.8 94.8-94.8 52.3 0 94.8 42.4 94.8 94.8-.1 52.3-42.5 94.8-94.8 94.8z" id="Layer_5"/>
    <path class="st0" d="M758.4 1043.6c-52.3 0-94.8 42.4-94.8 94.8s42.4 94.8 94.8 94.8c52.3 0 94.8-42.4 94.8-94.8s-42.5-94.8-94.8-94.8zm188.1-379.2C913 677.6 827 722.5 827 833.3c0 137.6 132.6 28.9 132.6 28.9V685.1c-1.3-8.6-6.2-16-13.1-20.7zM618 1415.8c-14.2 0-27.7 2.8-40 7.8 37.3 64 83.3 114 130.4 152.9 9.7-16 15.3-34.8 15.3-54.9.1-58.5-47.2-105.8-105.7-105.8zm-97.7-497.5c-1.3 0-2.5 0-3.8.1-13.5 63-18.9 119.6-20.9 148.5 7.7 2.7 16 4.1 24.7 4.1 42.1 0 76.3-34.2 76.3-76.3 0-42.2-34.1-76.4-76.3-76.4zm675.2 603.3c0 20.3 5.7 39.2 15.6 55.3 47.2-38.9 93.4-88.9 130.8-153-12.5-5.2-26.2-8.1-40.6-8.1-58.5 0-105.8 47.3-105.8 105.8zm-103.2-688.3c0-110.3-85.2-155.3-119-168.7-8 5.5-13.2 14.7-13.2 25.2v172.7c7.4 6 132.2 104.3 132.2-29.2zm311.2 85.1h-.7c-42.2 0-76.3 34.2-76.3 76.3 0 42.1 34.2 76.3 76.3 76.3 7.5 0 14.8-1.1 21.7-3.1-2.1-28.6-7.4-85.8-21-149.5zm-146.8 219.9c0-52.3-42.4-94.8-94.8-94.8-52.3 0-94.8 42.4-94.8 94.8s42.4 94.8 94.8 94.8 94.8-42.5 94.8-94.8z" id="Layer_6"/>
    <g id="STROKES">
        <path class="st1" d="M960 689.8v1013.3s-129.3-25.7-251.5-126.6c-47.1-38.9-93.2-88.9-130.4-152.9-49.6-85.2-83.5-195.1-83.5-336.5 0 0 .2-7.4 1.2-20.2 2-28.9 7.4-85.5 20.9-148.5 16.7-78.3 46-166.4 96.8-223.5 0 0 24.7-35.7 69.2-35.7h246.9c16.7 0 30.4 13.7 30.4 30.6z"/>
        <path class="st1" d="M960 641.6s-324.9 32.6-304.3-112.1c14.7-103.3 79.2-145.2 115-160.7 5.4-2.4 11.2-3.5 16.9-3.5 8.8 0 17.6 2.7 25 8 6.6 4.7 13.6 8.6 20.9 11.8 21.2 9.1 45 11.5 67.9 6.4 29-6.4 58.6-10 58.6-10s29.6 3.6 58.6 10c22.9 5.1 46.7 2.7 67.9-6.4 7.3-3.1 14.3-7.1 20.9-11.8 7.4-5.3 16.2-8 25-8 5.7 0 11.5 1.2 16.9 3.5 35.7 15.5 100.3 57.4 115 160.7C1284.9 674.2 960 641.6 960 641.6z"/>
        <path class="st1" d="M497.4 1157.4s-87 14.1-62.4 193.6 62.4 107.3 62.4 107.3 20.3-20.9 10-54.2c-10.3-33.3-31.5-225.8-10-246.7z"/>
        <path class="st1" d="M539.2 834.1s-81.8-53-197.2-10.6c-13.6 5-15.4 23.3-3.2 31 28.8 18.2 89.3 34.3 200.4-20.4z"/>
        <path class="st1" d="M475.2 1471.8s-88.8-116.7-211.4-111.9"/>
        <path class="st1" d="M330.6 833.6L216.9 693"/>
        <path class="st1" d="M661.6 573.4s-73.3 28.3-92.6-73.8c0 0-1.2-21.6 26.4-21.6 27.7-.1 6.2 80.3 66.2 95.4z"/>
        <path class="st1" d="M574.8 484.9l-110.3-41.8"/>
        <path class="st1" d="M1425.5 1087.1c0 141.5-34 251.5-83.7 336.7-37.4 64.1-83.6 114.2-130.8 153-122.1 100.6-251 126.3-251 126.3V689.8c0-16.9 13.7-30.6 30.6-30.6h246.9c44.5 0 69.2 35.7 69.2 35.7 50.8 57.1 80.1 145.2 96.8 223.4 13.6 63.7 19 120.9 21 149.5.8 12.3 1 19.3 1 19.3z"/>
        <path class="st1" d="M1086.5 302.4v82.7c-21.2 9.1-45 11.5-67.9 6.4-29-6.4-58.6-10-58.6-10s-29.6 3.6-58.6 10c-22.9 5.1-46.7 2.7-67.9-6.4v-82.7c0-45.6 36.9-82.5 82.5-82.5h88.1c45.5 0 82.4 36.9 82.4 82.5z"/>
        <path class="st1" d="M1422.6 1157.4s87 14.1 62.4 193.6c-24.6 179.4-62.4 107.3-62.4 107.3s-20.3-20.9-10-54.2c10.3-33.3 31.5-225.8 10-246.7z"/>
        <path class="st1" d="M1380.8 834.1s81.8-53 197.2-10.6c13.6 5 15.4 23.3 3.2 31-28.8 18.2-89.3 34.3-200.4-20.4z"/>
        <path class="st1" d="M1444.8 1471.8s88.8-116.7 211.4-111.9"/>
        <path class="st1" d="M1589.4 833.6L1703.1 693"/>
        <path class="st1" d="M1258.4 573.4s73.3 28.3 92.6-73.8c0 0 1.2-21.6-26.4-21.6s-6.2 80.3-66.2 95.4z"/>
        <path class="st1" d="M1345.2 484.9l110.3-41.8"/>
        <circle class="st1" cx="758.4" cy="1138.3" r="94.8"/>
        <circle class="st1" cx="1162" cy="1138.3" r="94.8"/>
        <path class="st1" d="M959.6 659.8S827 695.7 827 833.3s132.6 28.9 132.6 28.9V659.8z"/>
        <path class="st1" d="M959.6 659.8s132.6 35.9 132.6 173.5-132.6 28.9-132.6 28.9V659.8z"/>
        <path class="st1" d="M723.8 1521.6c0 20.1-5.6 38.9-15.4 54.9-47.1-38.9-93.2-88.9-130.4-152.9 12.3-5.1 25.8-7.8 40-7.8 58.4 0 105.8 47.3 105.8 105.8z"/>
        <path class="st1" d="M1341.8 1423.8c-37.4 64.1-83.6 114.2-130.8 153-9.9-16.1-15.6-35-15.6-55.3 0-58.4 47.4-105.8 105.8-105.8 14.4.1 28.2 2.9 40.6 8.1z"/>
        <path class="st1" d="M596.6 994.7c0 42.1-34.2 76.3-76.3 76.3-8.6 0-16.9-1.4-24.7-4.1 2-28.9 7.4-85.5 20.9-148.5 1.3-.1 2.5-.1 3.8-.1 42.2 0 76.3 34.2 76.3 76.4z"/>
        <path class="st1" d="M1424.4 1067.9c-6.9 2-14.1 3.1-21.7 3.1-42.2 0-76.3-34.2-76.3-76.3 0-42.2 34.2-76.3 76.3-76.3h.7c13.7 63.7 19.1 120.9 21 149.5z"/>
    </g>
</svg>
