<svg xmlns="http://www.w3.org/2000/svg" viewBox="0 0 1920 1920">
    <style>
        .st0{fill:#fff}.st1{fill:none;stroke:#231f20;stroke-width:50;stroke-linecap:round;stroke-linejoin:round;stroke-miterlimit:10}
    </style>
    <path class="st0" d="M1100.3 305.6c-41.6-24.8-89.4-35.6-140.3-35.6-51.8 0-100.5 11.2-142.6 37-55.5 33.9-99.7 93-125.2 185h535.6c-25.8-93.3-70.9-152.7-127.5-186.4z" id="Layer_7"/>
    <path class="st0" d="M1214.9 492H705.1c-78.6 0-142.2 63.7-142.2 142.3v87.3h794.2v-87.3c0-78.6-63.7-142.3-142.2-142.3z" id="Layer_8"/>
    <path class="st0" d="M1385.8 903c0-70.7 43-131.3 104.2-157.2-20.1-15.2-45.1-24.2-72-24.2h-289.7c-13.6 80.6-83.7 142-168.2 142v178.1c94.2 0 170.6 76.4 170.6 170.6 0 94.2-76.4 170.6-170.6 170.6V1703c88.1 0 171.7-24.7 246.7-68.8-12.9-24-20.2-51.5-20.2-80.6 0-94.2 76.4-170.6 170.6-170.6 26.9 0 52.4 6.2 75.1 17.4 55-94.6 92.7-206.2 107.2-327.5-86.4-8.7-153.7-81.4-153.7-169.9z" id="Layer_9"/>
    <path class="st0" d="M960 1041.7V863.6c-84.5 0-154.6-61.4-168.2-142H502.1c-26.9 0-51.9 8.9-72 24.2 61.2 25.9 104.2 86.5 104.2 157.2 0 88.5-67.3 161.2-153.6 169.8 14.6 121.3 52.3 233 107.2 327.5 22.6-11.1 48.1-17.4 75.1-17.4 94.2 0 170.6 76.4 170.6 170.6 0 29.2-7.3 56.6-20.2 80.6 75 44.2 158.6 68.8 246.7 68.8v-320.1c-94.2 0-170.6-76.4-170.6-170.6-.1-94.1 76.3-170.5 170.5-170.5z" id="Layer_10"/>
    <path class="st0" d="M562.9 1382.9c-26.9 0-52.4 6.2-75.1 17.4 58.1 100.1 135.6 181 225.5 233.9 12.9-24 20.2-51.5 20.2-80.6 0-94.3-76.4-170.7-170.6-170.7zm228.9-661.3c13.6 80.6 83.7 142 168.2 142v-142H791.8zM430 745.8c-24.4 18.5-41.6 46.2-46.4 78.5-6.4 44-9.8 89.4-9.8 135.8 0 38.3 2.3 76 6.7 112.8 86.2-8.6 153.6-81.3 153.6-169.8.1-70.8-42.9-131.4-104.1-157.3zm359.4 466.5c0 94.2 76.4 170.6 170.6 170.6v-341.3c-94.2.1-170.6 76.5-170.6 170.7z" id="Layer_11"/>
    <path class="st0" d="M1128.2 721.6H960v142c84.5 0 154.6-61.4 168.2-142zM960 1041.7V1383c94.2 0 170.6-76.4 170.6-170.6 0-94.3-76.4-170.7-170.6-170.7zm576.3-217.5c-4.7-32.3-21.9-60-46.4-78.5-61.2 25.9-104.2 86.5-104.2 157.2 0 88.5 67.3 161.2 153.6 169.8 4.4-36.8 6.7-74.4 6.7-112.8.1-46.3-3.2-91.7-9.7-135.7zm-349.8 729.4c0 29.2 7.3 56.6 20.2 80.6 89.8-52.9 167.3-133.8 225.5-233.9-22.6-11.1-48.1-17.4-75.1-17.4-94.2 0-170.6 76.4-170.6 170.7z" id="Layer_12"/>
    <g id="STROKES">
        <path class="st1" d="M1546.1 960c0 38.3-2.3 76-6.7 112.8-14.6 121.3-52.3 233-107.2 327.5-58.1 100.1-135.6 181-225.5 233.9-75 44.2-158.6 68.8-246.7 68.8s-171.7-24.7-246.7-68.8c-89.8-52.9-167.3-133.8-225.5-233.9-55-94.6-92.7-206.2-107.2-327.5-4.4-36.8-6.7-74.4-6.7-112.8 0-46.4 3.4-91.8 9.8-135.8 4.7-32.3 21.9-60 46.4-78.5 20.1-15.2 45.1-24.2 72-24.2H1418c26.9 0 51.9 8.9 72 24.2 24.4 18.5 41.6 46.2 46.4 78.5 6.4 44 9.7 89.4 9.7 135.8z"/>
        <path class="st1" d="M1227.8 492H692.2C737 330.1 840 270.1 960 270.1s223 60 267.8 221.9z"/>
        <path class="st1" d="M960 721.6v981.5"/>
        <path class="st1" d="M817.4 307l-88.7-88.7"/>
        <path class="st1" d="M1100.3 305.7l88.7-88.8"/>
        <path class="st1" d="M1357.1 721.6H562.9v-87.3c0-78.6 63.7-142.3 142.3-142.3h509.7c78.6 0 142.3 63.7 142.3 142.3v87.3z"/>
        <circle class="st1" cx="960" cy="1212.3" r="170.6"/>
        <path class="st1" d="M1128.2 721.6c-13.6 80.6-83.7 142-168.2 142s-154.6-61.4-168.2-142h336.4z"/>
        <path class="st1" d="M1432.2 1400.3c-58.1 100.1-135.6 181-225.5 233.9-12.9-24-20.2-51.5-20.2-80.6 0-94.2 76.4-170.6 170.6-170.6 26.9-.1 52.4 6.2 75.1 17.3z"/>
        <path class="st1" d="M733.5 1553.6c0 29.2-7.3 56.6-20.2 80.6-89.8-52.9-167.3-133.8-225.5-233.9 22.6-11.1 48.1-17.4 75.1-17.4 94.2 0 170.6 76.4 170.6 170.7z"/>
        <path class="st1" d="M1546.1 960c0 38.3-2.3 76-6.7 112.8-86.2-8.6-153.6-81.3-153.6-169.8 0-70.7 43-131.3 104.2-157.2 24.4 18.5 41.6 46.2 46.4 78.5 6.4 43.9 9.7 89.3 9.7 135.7z"/>
        <path class="st1" d="M534.2 903c0 88.5-67.3 161.2-153.6 169.8-4.4-36.8-6.7-74.4-6.7-112.8 0-46.4 3.4-91.8 9.8-135.8 4.7-32.3 21.9-60 46.4-78.5 61.1 26 104.1 86.6 104.1 157.3z"/>
    </g>
</svg>
