<svg xmlns="http://www.w3.org/2000/svg" viewBox="0 0 1920 1920">
    <style>
        .st0{fill:#fff}.st1,.st2{fill:none;stroke:#231f20;stroke-width:50;stroke-linecap:round;stroke-linejoin:round;stroke-miterlimit:10}.st2{stroke-width:49.7567}
    </style>
    <path class="st0" d="M1326.8 1560.6c28.4 0 51.7 23.2 51.7 51.7 0 25-10.2 47.7-26.7 64.1-16.5 16.5-39.2 26.7-64.1 26.7H632.3c-49.9 0-90.8-40.9-90.8-90.8 0-14.2 5.8-27.1 15.2-36.5 9.4-9.4 22.3-15.2 36.5-15.2h733.6zm-74.1-775.3H667.3c-28.4 0-51.7 23.2-51.7 51.7v39.1c0 28.4 23.2 51.7 51.7 51.7h585.4c28.4 0 51.7-23.2 51.7-51.7V837c-.1-28.5-23.3-51.7-51.7-51.7zm-101.1-142.5H768.4c-28.4 0-51.7 23.2-51.7 51.7v39.2c0 28.4 23.2 51.7 51.7 51.7h383.1c28.4 0 51.7-23.2 51.7-51.7v-39.2c0-28.4-23.2-51.7-51.6-51.7z" id="Layer_1"/>
    <path class="st0" d="M1234.6 927.7l87.4 632.8H598l87.4-632.8h549.2zm-160.8 438.1c19.1-76.1-3.8-166-3.8-166l-66 69-52.6-156-37.4 207-75-54c-2.8 53.9 7.3 94 22.4 123.8 47.7 93.6 186.9 78.1 212.4-23.8z" id="Layer_2"/>
    <path class="st0" d="M1070.1 1199.8s22.9 89.9 3.8 166c-25.6 101.9-164.7 117.4-212.4 23.8-15.2-29.8-25.3-69.9-22.4-123.8l75 54 37.4-207 52.6 156 66-69z" id="Layer_4"/>
    <g id="STROKES">
        <circle class="st1" cx="960" cy="372.2" r="141.4"/>
        <path class="st1" d="M960 417v225.8"/>
        <path class="st1" d="M768.4 785.3c-28.4 0-51.7-23.2-51.7-51.7v-39.2c0-28.4 23.2-51.7 51.7-51.7h383.2c28.4 0 51.7 23.2 51.7 51.7v39.2c0 28.4-23.2 51.7-51.7 51.7"/>
        <path class="st1" d="M1151.6 785.3h101.1c28.4 0 51.7 23.2 51.7 51.7v39.1c0 28.4-23.2 51.7-51.7 51.7H667.3c-28.4 0-51.7-23.2-51.7-51.7V837c0-28.4 23.2-51.7 51.7-51.7h484.3z"/>
        <path class="st1" d="M1322 1560.6h4.9c28.4 0 51.7 23.2 51.7 51.7 0 25-10.2 47.7-26.7 64.1-16.5 16.5-39.2 26.7-64.1 26.7H632.3c-49.9 0-90.8-40.9-90.8-90.8 0-14.2 5.8-27.1 15.2-36.5 9.4-9.4 22.3-15.2 36.5-15.2H1322z"/>
        <path class="st1" d="M685.4 927.7L598 1560.6"/>
        <path class="st1" d="M1234.6 927.7l87.4 632.9"/>
        <path class="st1" d="M861.5 1389.6c-15.2-29.8-25.3-69.9-22.4-123.8l75 54 37.4-207 52.6 156 66-69s22.9 89.9 3.8 166c-25.6 101.9-164.8 117.4-212.4 23.8z"/>
    </g>
</svg>
