<svg xmlns="http://www.w3.org/2000/svg" viewBox="0 0 1920 1920">
    <style>
        .st0{fill:#fff}.st1,.st2{fill:none;stroke:#231f20;stroke-width:50;stroke-linecap:round;stroke-linejoin:round;stroke-miterlimit:10}.st2{stroke-width:49.7567}
    </style>
    <path class="st0" d="M1518.2 1646.7v56.3H401.8v-56.3c0-57.7 46.8-104.5 104.5-104.5h907.4c57.7 0 104.5 46.8 104.5 104.5zM1276.7 544H643.3v160.8h633.5V544z" id="Layer_5"/>
    <path class="st0" d="M960 1542.2H520.8V762.9c0-32 26-58 58-58h762.3c32 0 58 26 58 58v779.3H960zm0-211.7s206.8 24.5 0-336.9c-206.8 361.4 0 336.9 0 336.9z" id="Layer_6"/>
    <path class="st0" d="M960 1330.5s-206.8 24.5 0-336.9c206.8 361.4 0 336.9 0 336.9z" id="Layer_7"/>
    <g id="STROKES">
        <path class="st1" d="M1276.7 704.9h64.4c32 0 58 26 58 58v779.3"/>
        <path class="st1" d="M520.8 1542.2V762.9c0-32 26-58 58-58h64.4"/>
        <path class="st1" d="M520.8 1542.2h-14.5c-57.7 0-104.5 46.8-104.5 104.5v56.3h1116.4v-56.3c0-57.7-46.8-104.5-104.5-104.5H520.8z"/>
        <path class="st1" d="M960 1542.2V1238"/>
        <path class="st1" d="M960 1330.5s206.8 24.5 0-336.9c-206.8 361.4 0 336.9 0 336.9z"/>
        <path class="st1" d="M1276.7 624.5H1399S1419.7 217 960 217 521 624.5 521 624.5h122.3"/>
        <path class="st1" d="M1276.7 624.5V544H643.3v160.9h633.4z"/>
        <path class="st1" d="M611.2 1160.9h69.4"/>
        <path class="st1" d="M1242 1160.9h69.5"/>
        <path class="st1" d="M961.3 810.8v69.5"/>
        <path class="st1" d="M713.7 913.3l49.1 49.2"/>
        <path class="st1" d="M1159.8 1359.4l49.1 49.2"/>
        <path class="st1" d="M1208.9 913.3l-49.1 49.2"/>
        <path class="st1" d="M762.8 1359.4l-49.1 49.2"/>
    </g>
</svg>
