<svg xmlns="http://www.w3.org/2000/svg" viewBox="0 0 1920 1920">
    <style>
        .st0{fill:#fff}.st1{fill:none;stroke:#231f20;stroke-width:50;stroke-linecap:round;stroke-linejoin:round;stroke-miterlimit:10}
    </style>
    <path class="st0" d="M1579.6 466.6v898.9H340.4V466.6h1239.2zm-106.7 792.2V573.3H447.1v685.5h1025.8z" id="Layer_5"/>
    <path class="st0" d="M1703.1 1365.5v28.5c0 32.7-26.5 59.3-59.3 59.3H276.2c-32.7 0-59.3-26.5-59.3-59.3v-28.5h1486.2z" id="Layer_6"/>
    <path class="st0" d="M447.1 573.3h1025.7v685.5H447.1z" id="Layer_8"/>
    <g id="STROKES">
        <path class="st1" d="M340.4 1365.5V466.6h1239.2v898.9"/>
        <path class="st1" d="M447.1 573.3h1025.7v685.5H447.1z"/>
        <path class="st1" d="M340.4 1365.5H216.9v28.5c0 32.7 26.5 59.3 59.3 59.3h1367.5c32.8 0 59.3-26.5 59.3-59.3v-28.5H340.4z"/>
    </g>
</svg>
