<svg xmlns="http://www.w3.org/2000/svg" viewBox="0 0 1920 1920">
    <style>
        .st0{fill:#fff}.st1{fill:none;stroke:#231f20;stroke-width:50;stroke-linecap:round;stroke-linejoin:round;stroke-miterlimit:10}
    </style>
    <path class="st0" d="M1483.9 302v774H436.1V302h1047.8zM1391 983.1V394.9H529v588.2h862z" id="Layer_1"/>
    <path class="st0" d="M1703.1 1525.1v92.9H216.9v-92.9h1486.2zM436.1 1076l-219.2 449H1703l-219.2-449H436.1zm933.8 361.3H367.7l129-268.4h926.6l129 268.4h-182.4z" id="Layer_2"/>
    <path class="st0" d="M1334.1 1347.8l-35.8-89.5-35.8-89.5h160.8l129 268.4h-182.4l-35.8-89.4zm-185.3 0l26.5 89.5h194.5l-35.8-89.5h-185.2zm-26.5-89.4l26.5 89.5H1334l-35.8-89.5h-175.9zm-26.5-89.5l26.5 89.5h175.9l-35.8-89.5h-166.6zM960 1347.8v89.5h215.3l-26.5-89.5H960zm0-89.4v89.5h188.8l-26.5-89.5H960zm135.8-89.5H960v89.5h162.3l-26.5-89.5zm-324.6 178.9l-26.5 89.5H960v-89.5H771.2zm26.5-89.4l-26.5 89.5H960v-89.5H797.7zm26.5-89.5l-26.5 89.5H960v-89.5H824.2zm-166.6 0l-35.8 89.5h175.9l26.5-89.5H657.6zm-35.8 89.5l-35.8 89.5h185.2l26.5-89.5H621.8zm-35.8 89.4l-35.8 89.5h194.5l26.5-89.5H586zm71.6-178.9H496.7l-129 268.4h182.4l35.8-89.5 35.8-89.5 35.9-89.4z" id="Layer_4"/>
    <path class="st0" d="M529 394.9h861.9v588.2H529z" id="Layer_9"/>
    <g id="STROKES">
        <path class="st1" d="M1483.9 1076l219.2 449.1H216.9L436.1 1076"/>
        <path class="st1" d="M216.9 1525.1v92.9h1486.2v-92.9"/>
        <path class="st1" d="M436.1 302h1047.7v774H436.1z"/>
        <path class="st1" d="M529 394.9h861.9v588.2H529z"/>
        <path class="st1" d="M960 1437.3h592.3l-129-268.4H496.7l-129 268.4h377z"/>
        <path class="st1" d="M960 1168.9v268.4"/>
        <path class="st1" d="M657.6 1168.9l-35.8 89.5-35.8 89.4-35.9 89.5"/>
        <path class="st1" d="M824.2 1168.9l-26.5 89.5-26.5 89.4-26.5 89.5"/>
        <path class="st1" d="M1262.4 1168.9l35.8 89.5 35.9 89.4 35.8 89.5"/>
        <path class="st1" d="M1095.8 1168.9l26.5 89.5 26.5 89.4 26.5 89.5"/>
        <path class="st1" d="M457.3 1258.4h1005.4"/>
        <path class="st1" d="M414.2 1347.8h1091.6"/>
    </g>
</svg>
