<svg xmlns="http://www.w3.org/2000/svg" viewBox="0 0 1920 1920">
    <style>
        .st0{fill:#fff}.st1{fill:none;stroke:#231f20;stroke-width:50;stroke-linecap:round;stroke-linejoin:round;stroke-miterlimit:10}
    </style>
    <path class="st0" d="M1126.8 1203.3V903.1H793.2v300.2c-34.7 39.2-55.7 90.8-55.7 147.3 0 56.5 21 108 55.7 147.3v137h333.6v-137c34.7-39.2 55.7-90.8 55.7-147.3 0-56.5-21-108.1-55.7-147.3zm-75.2 203.2v1.9c0 .5 0 1-.1 1.5v.1c0 .6 0 1.2-.1 1.7-.1 2.1-.3 4.3-.6 6.4-.2 1.5-.4 3-.7 4.5-.1.7-.2 1.4-.4 2.1-.2.8-.3 1.7-.5 2.5-.2.7-.3 1.4-.5 2.2-.2.7-.4 1.5-.6 2.2-.2.7-.4 1.4-.6 2.2-.2.7-.5 1.4-.7 2.1-.7 1.9-1.4 3.9-2.2 5.8-.2.4-.4.8-.5 1.3-1.7 3.8-3.6 7.6-5.7 11.1-.8 1.3-1.6 2.5-2.4 3.7-.4.6-.8 1.2-1.3 1.8-.9 1.2-1.7 2.4-2.6 3.5-.4.6-.9 1.1-1.3 1.6-1.9 2.3-3.9 4.5-6 6.6-6.9 6.9-14.9 12.7-23.7 17.1l-2.7 1.3c-1.6.7-3.1 1.4-4.8 2-.7.3-1.4.5-2.1.8l-1.6.6c-2.3.8-4.7 1.5-7 2.1-1.5.4-2.9.7-4.4 1l-2.6.5c-.6.1-1.1.2-1.7.3l-2.5.4c-.7.1-1.3.2-2 .2l-4.4.4c-.3 0-.6 0-.9.1-.7 0-1.4.1-2.1.1h-2.4c-50.6 0-91.6-41-91.6-91.6V1241c0-21 17-38.1 38.1-38.1h107.2c21 0 38.1 17 38.1 38.1v165.5z" id="Layer_8"/>
    <path class="st0" d="M760.6 1536.3l-12.7 2.6c-.5.2-1 .4-1.4.7-.5.2-.9.5-1.4.7-.5.2-.9.5-1.4.8-.4.3-.9.6-1.3.8-.3.2-.6.4-.9.7-.3.2-.5.4-.8.6l-1 .8c-.3.3-.6.6-1 .8-.4.4-.8.7-1.1 1.1l-1.1 1.1c-.4.4-.7.8-1 1.2-.3.4-.7.8-1 1.2-.3.4-.6.9-.9 1.3-.3.4-.6.9-.9 1.3-.2.3-.3.6-.5.8-.2.3-.4.6-.5.9-.2.3-.3.7-.5 1-.2.5-.4 1-.7 1.4l-.6 1.5c-1.3 3.5-2 7.3-2 11.2v101.5c0 18 14.6 32.6 32.6 32.6l6.6-.7c.5-.1 1.1-.2 1.6-.4l2.3-.7 1.5-.6c.2-.1.5-.2.7-.3 1-.4 1.9-.9 2.9-1.4l1.4-.8c.4-.3.9-.6 1.3-.9l1.3-.9c.4-.3.8-.6 1.2-1 .4-.3.8-.7 1.2-1s.8-.7 1.1-1.1l1.1-1.1c.4-.4.7-.8 1-1.2.7-.8 1.3-1.6 1.9-2.5.3-.4.6-.9.9-1.3.3-.4.5-.9.8-1.4.5-.9 1-1.9 1.4-2.9.6-1.5 1.1-3 1.5-4.5.1-.5.3-1.1.4-1.6.4-2.1.7-4.3.7-6.6v-101.7c-.2-17.5-14.8-32-32.7-32zm-23.8-563.4c-2.4 0-4.8.2-7.2.5-.9.1-1.9.3-2.8.4l-13.2 4.1c-.8.4-1.7.8-2.5 1.2l-8.1 5c-.7.5-1.4 1.1-2.1 1.7-1.4 1.2-2.7 2.4-4 3.6-.3.3-.6.6-.9 1-.6.7-1.2 1.3-1.8 2-2.5 2.9-4.7 6-6.5 9.3-.4.7-.7 1.3-1.1 2-2.5 4.9-4.3 10.1-5.3 15.7-.2.9-.3 1.9-.4 2.8-.3 2.4-.5 4.7-.5 7.2v111.9c0 31.2 25.3 56.4 56.4 56.4l16.7-2.5c1.3-.4 2.6-.9 3.9-1.4l6.2-2.9c.8-.4 1.6-.9 2.4-1.4l10.6-8.3c5.4-5.4 9.8-11.9 12.6-19.1.3-.9.7-1.7 1-2.6.3-.9.6-1.8.8-2.6.3-.9.5-1.8.7-2.7.1-.5.2-.9.3-1.4.2-.9.4-1.8.5-2.8.4-2.8.7-5.7.7-8.6v-112c0-31.2-25.3-56.5-56.4-56.5zm422.6 563.4l-12.7 2.5c-1 .4-1.9.9-2.8 1.4-.5.2-.9.5-1.4.8-.4.3-.9.6-1.3.8l-1.3.9c-.4.3-.8.6-1.2 1-.4.3-.8.7-1.2 1-.4.3-.8.7-1.1 1.1l-1.1 1.1c-.3.4-.7.8-1 1.2-.3.4-.7.8-1 1.2-.3.4-.6.8-.9 1.3l-1.5 2.4c-.1.1-.2.3-.2.4l-.6 1.2c-.8 1.7-1.5 3.4-2 5.2-.1.5-.3 1-.4 1.6-.2.8-.3 1.6-.5 2.4-.1.5-.2 1.1-.2 1.6-.1.5-.1 1.1-.1 1.6 0 .6-.1 1.1-.1 1.7v101.7c0 18 14.6 32.6 32.6 32.6l6.6-.7c.5-.1 1.1-.2 1.6-.4l2.3-.7 1.5-.6.7-.3c1-.4 1.9-.9 2.9-1.4l1.4-.8c.4-.3.9-.6 1.3-.9l3.7-2.9c.4-.4.8-.7 1.1-1.1l1.1-1.1c.4-.4.7-.8 1-1.2.7-.8 1.3-1.6 1.9-2.5.3-.4.6-.9.9-1.3.2-.3.3-.6.5-.8.2-.3.4-.6.5-.9.4-.8.8-1.6 1.2-2.5l.6-1.5c1.3-3.5 2-7.3 2-11.2v-101.5c-.1-17.8-14.7-32.4-32.8-32.4zm23.8-563.4c-31.2 0-56.4 25.3-56.4 56.4v112c.1 31.1 25.3 56.2 56.4 56.2 2.4 0 4.8-.2 7.2-.5.9-.1 1.9-.3 2.8-.4l13.2-4.1c.8-.4 1.7-.8 2.5-1.2l8.1-5c.7-.5 1.4-1.1 2.1-1.7 1.4-1.2 2.7-2.4 4-3.6.3-.3.6-.6.9-1 .6-.6 1.2-1.3 1.8-2 2.5-2.8 4.7-6 6.5-9.3.4-.6.7-1.3 1.1-2 2.5-4.9 4.3-10.1 5.3-15.7.2-.9.3-1.7.4-2.6.3-2.4.5-4.9.5-7.4v-111.9c0-30.9-25.2-56.2-56.4-56.2z" id="Layer_9"/>
    <path class="st0" d="M1032.3 513.6H887.7c-24.9 0-45 20.1-45 45V903h234.7V558.6c0-24.8-20.2-45-45.1-45z" id="Layer_10"/>
    <path class="st0" d="M1013.6 1203H906.4c-21 0-38.1 17-38.1 38.1v165.5c0 50.6 41 91.6 91.6 91.6h2.4c.7 0 1.4 0 2.1-.1.3 0 .6 0 .9-.1l4.4-.4c.7-.1 1.3-.1 2-.2l2.5-.4c.6-.1 1.1-.2 1.7-.3l2.6-.5c1.5-.3 3-.6 4.4-1 2.4-.6 4.7-1.3 7-2.1l1.6-.6c.7-.2 1.4-.5 2.1-.8 1.6-.6 3.2-1.3 4.8-2l2.7-1.3c8.8-4.4 16.8-10.2 23.7-17.1 2.1-2.1 4.1-4.3 6-6.6.4-.5.9-1.1 1.3-1.6.9-1.2 1.8-2.3 2.6-3.5.4-.6.8-1.2 1.3-1.8.8-1.2 1.6-2.5 2.4-3.7 2.2-3.5 4.1-7.3 5.7-11.1.2-.4.4-.8.5-1.3.8-1.9 1.5-3.8 2.2-5.8.2-.7.5-1.4.7-2.1.2-.7.4-1.4.6-2.2.2-.7.4-1.5.6-2.2.2-.7.4-1.4.5-2.2.2-.8.4-1.6.5-2.5.1-.7.3-1.4.4-2.1.3-1.5.5-3 .7-4.5.3-2.1.5-4.2.6-6.4 0-.6.1-1.2.1-1.7v-.1c0-.5 0-1 .1-1.5V1241c0-21-17-38-38-38z" id="Layer_11"/>
    <g id="STROKES">
        <path class="st1" d="M1182.5 1350.5c0 56.5-21 108-55.7 147.3-40.8 46.1-100.4 75.2-166.8 75.2s-126-29.1-166.8-75.2c-34.7-39.2-55.7-90.8-55.7-147.3 0-56.5 21-108 55.7-147.3C834 1157.1 893.6 1128 960 1128s126 29.1 166.8 75.2c34.7 39.3 55.7 90.9 55.7 147.3z"/>
        <path class="st1" d="M1126.8 1085.3v118c-40.8-46.1-100.4-75.2-166.8-75.2s-126 29.1-166.8 75.2v-118h333.6z"/>
        <path class="st1" d="M1126.8 1497.8v137H793.2v-137C834 1543.9 893.6 1573 960 1573s126-29.1 166.8-75.2z"/>
        <path class="st1" d="M761.8 1703h-2.5c-17.3 0-31.4-14-31.4-31.4v-104c0-17.3 14-31.4 31.4-31.4h2.5c17.3 0 31.4 14 31.4 31.4v104c0 17.4-14 31.4-31.4 31.4z"/>
        <path class="st1" d="M1160.7 1703h-2.5c-17.3 0-31.4-14-31.4-31.4v-104c0-17.3 14-31.4 31.4-31.4h2.5c17.3 0 31.4 14 31.4 31.4v104c0 17.4-14.1 31.4-31.4 31.4z"/>
        <path class="st1" d="M739 1197.6h-4.4c-29.9 0-54.2-24.3-54.2-54.2v-116.3c0-29.9 24.3-54.2 54.2-54.2h4.4c29.9 0 54.2 24.3 54.2 54.2v116.3c0 29.9-24.3 54.2-54.2 54.2z"/>
        <path class="st1" d="M1185.4 1197.6h-4.4c-29.9 0-54.2-24.3-54.2-54.2v-116.3c0-29.9 24.3-54.2 54.2-54.2h4.4c29.9 0 54.2 24.3 54.2 54.2v116.3c0 29.9-24.2 54.2-54.2 54.2z"/>
        <path class="st1" d="M963.6 1498.1h-7.2c-48.6 0-88.1-39.4-88.1-88.1v-170.5c0-20.2 16.4-36.6 36.6-36.6h110.2c20.2 0 36.6 16.4 36.6 36.6V1410c-.1 48.7-39.5 88.1-88.1 88.1z"/>
        <path class="st1" d="M793.2 903.1h333.6v182.2H793.2z"/>
        <path class="st1" d="M1077.4 903.1H842.6V556.9c0-23.9 19.4-43.2 43.2-43.2H1034c23.9 0 43.2 19.4 43.2 43.2v346.2z"/>
        <path class="st1" d="M1126.8 216.9H793.2l-46.6 686.2h426.8z"/>
    </g>
</svg>
