<svg xmlns="http://www.w3.org/2000/svg" viewBox="0 0 1920 1920">
    <style>
        .st0{fill:#fff}.st1{fill:none;stroke:#231f20;stroke-width:50;stroke-linecap:round;stroke-linejoin:round;stroke-miterlimit:10}
    </style>
    <path class="st0" d="M1033.7 1275.2c-9.9 0-19.6 1.1-28.9 3.2-59.2 13.2-103.5 66-103.5 129.2 0 36.1 14.4 68.8 37.9 92.7 24 24.5 57.5 39.7 94.5 39.7s70.5-15.2 94.5-39.7c23.4-23.9 37.9-56.6 37.9-92.7 0-73.1-59.3-132.4-132.4-132.4zm585.8 97.6c-19 0-36.6 6.4-50.6 17.1-20 15.3-33 39.4-33 66.5 0 16.1 4.5 31.1 12.4 43.8 14.7 23.8 41.1 39.7 71.1 39.7 46.1 0 83.6-37.4 83.6-83.6.1-46-37.4-83.5-83.5-83.5z" id="Layer_12"/>
    <path class="st0" d="M1568.9 1389.9l-48-16.7-306.2-106.9-210-73.3v85.4c9.3-2.1 19-3.2 28.9-3.2 73.1 0 132.4 59.3 132.4 132.4 0 36.1-14.4 68.8-37.9 92.7h420.1c-7.9-12.7-12.4-27.8-12.4-43.8.1-27.2 13.1-51.3 33.1-66.6z" id="Layer_13"/>
    <path class="st0" d="M477.3 983.2v517.1h461.9c-23.4-23.9-37.9-56.6-37.9-92.7 0-63.2 44.3-116 103.5-129.2V1193L477.3 983.2z" id="Layer_14"/>
    <path class="st0" d="M1466.9 1109h-99v-17.1c0-16.2-13.2-29.4-29.4-29.4-8.1 0-15.5 3.3-20.8 8.6-5.3 5.3-8.6 12.7-8.6 20.8v17.1h-38.9c-43.5 0-78.7 35.2-78.7 78.7v35.9h23.3v42.7l306.2 106.9v-149.6h24.6v-35.9c-.1-43.5-35.3-78.7-78.7-78.7z" id="Layer_15"/>
    <g id="STROKES">
        <path class="st1" d="M1703.1 1456.4c0 46.2-37.4 83.6-83.6 83.6-30.1 0-56.4-15.9-71.1-39.7-7.9-12.7-12.4-27.8-12.4-43.8 0-27.1 12.9-51.2 33-66.5 14-10.7 31.6-17.1 50.6-17.1 46-.1 83.5 37.4 83.5 83.5z"/>
        <path class="st1" d="M1166.1 1407.6c0 36.1-14.4 68.8-37.9 92.7-24 24.5-57.5 39.7-94.5 39.7s-70.5-15.2-94.5-39.7c-23.4-23.9-37.9-56.6-37.9-92.7 0-63.2 44.3-116 103.5-129.2 9.3-2.1 19-3.2 28.9-3.2 73.1 0 132.4 59.3 132.4 132.4z"/>
        <path class="st1" d="M1004.8 1193v85.4c-59.2 13.2-103.5 66-103.5 129.2 0 36.1 14.4 68.8 37.9 92.7H477.3V983.2l527.5 209.8z"/>
        <path class="st1" d="M1545.5 1187.7v35.9h-354.1v-35.9c0-43.5 35.2-78.7 78.7-78.7h196.7c43.5 0 78.7 35.2 78.7 78.7z"/>
        <path class="st1" d="M1535.9 1456.4c0 16.1 4.5 31.1 12.4 43.8h-420.1c23.4-23.9 37.9-56.6 37.9-92.7 0-73.1-59.3-132.4-132.4-132.4-9.9 0-19.6 1.1-28.9 3.2V1193l210 73.3 306.2 106.9 48 16.7c-20.1 15.3-33.1 39.4-33.1 66.5z"/>
        <path class="st1" d="M1520.9 1223.6v149.6l-306.1-106.9v-42.7z"/>
        <path class="st1" d="M1340.1 1062.5h-3.3c-15.3 0-27.7 12.4-27.7 27.7v18.8h58.8v-18.8c0-15.3-12.5-27.7-27.8-27.7z"/>
        <path class="st1" d="M1004.8 1193L216.9 578.5l118.5-139"/>
    </g>
</svg>
