<svg xmlns="http://www.w3.org/2000/svg" viewBox="0 0 1920 1920">
    <style>
        .st0{fill:#fff}.st1{fill:none;stroke:#231f20;stroke-width:50;stroke-linecap:round;stroke-linejoin:round;stroke-miterlimit:10}
    </style>
    <path class="st0" d="M1672.9 760.3l-213.3 223.3 181.3 97.1-402.4 172.5c-23.4 10-31.6 39.2-16.8 60l139.2 195.5-400.9-152-400.9 152 132.8-186.4c18.1-25.5 8.1-61.2-20.6-73.5l-392.1-168.1 181.3-97.1-213.4-223.3 292 82.3-18.5-212.8 219.5 179c29.6 24.1 72.9-3 64.2-40.1L707 352.6l184 84 69-219.7 68.9 219.7 184-84-97.3 416.1c-8.7 37.2 34.7 64.2 64.2 40.1l219.5-179-18.5 212.8 292.1-82.3z" id="Layer_2"/>
    <g id="STROKES">
        <path class="st1" d="M960 216.9l68.9 219.7 184-84-97.3 416.1c-8.7 37.2 34.7 64.2 64.2 40.1l219.5-179-18.5 212.8 292-82.3-213.3 223.3 181.3 97.1-402.4 172.5c-23.4 10-31.6 39.2-16.8 60l139.2 195.5-400.9-152-400.9 152 132.8-186.4c18.1-25.5 8.1-61.2-20.6-73.5l-392.1-168.1 181.3-97.1-213.3-223.3 292 82.3-18.5-212.8 219.5 179c29.6 24.1 72.9-3 64.2-40.1L707 352.6l184 84 69-219.7z"/>
        <path class="st1" d="M960 1356.7v346.4"/>
    </g>
</svg>
