<svg xmlns="http://www.w3.org/2000/svg" viewBox="0 0 1920 1920">
    <style>
        .st0{fill:#fff}.st1{fill:none;stroke:#231f20;stroke-width:50;stroke-linecap:round;stroke-linejoin:round;stroke-miterlimit:10}
    </style>
    <path class="st0" d="M960 1287.2v131.7c-13.3 0-26.7-.4-39.9-1.3-170.8-11-332.3-92.7-363-245.2-10.8-53.3-11.6-109.3-4.9-166.3L960 1287.2zm0 0v131.7c13.3 0 26.7-.4 39.9-1.3 170.8-11 332.3-92.7 363-245.2 10.8-53.3 11.6-109.3 4.9-166.3L960 1287.2zm356.1-486.5L960 1046.1v241.1l407.8-281c-7.9-68-26.6-137.4-51.7-205.5zm-712.2 0c-25.1 68.1-43.7 137.5-51.7 205.5l407.8 281v-241.1L603.9 800.7zm0 0L960 1046.1V782.8l-264.1-182c-34.5 63.3-66.6 130.9-92 199.9zM960 782.8v263.3l356.1-245.4c-25.4-69-57.6-136.5-92-199.9L960 782.8zm0 0l264.1-182C1105.9 383.8 960 216.9 960 216.9v565.9zm0 0V216.9S814.1 383.7 695.9 600.8l264.1 182z" id="Layer_4"/>
    <path class="st0" d="M960 1418.9c13.3 0 26.7-.4 39.9-1.3l.1 1.3v284.2h-80v-284.2l.1-1.3c13.2.8 26.6 1.3 39.9 1.3z" id="Layer_5"/>
    <g id="STROKES">
        <path class="st1" d="M960 216.9v1202"/>
        <path class="st1" d="M960 216.9s145.9 166.8 264.1 383.9c34.5 63.3 66.6 130.9 92 199.9 25.1 68.1 43.7 137.5 51.7 205.5 6.7 57 5.9 112.9-4.9 166.3-30.7 152.4-192.2 234.2-363 245.2-13.3.9-26.6 1.3-39.9 1.3s-26.7-.4-39.9-1.3c-170.8-11-332.3-92.7-363-245.2-10.8-53.3-11.6-109.3-4.9-166.3 8-68 26.6-137.4 51.7-205.5 25.4-69 57.5-136.5 92-199.9C814.1 383.8 960 216.9 960 216.9"/>
        <path class="st1" d="M695.9 600.8l264.1 182"/>
        <path class="st1" d="M603.9 800.7L960 1046.1"/>
        <path class="st1" d="M552.2 1006.2l407.8 281"/>
        <path class="st1" d="M1224.1 600.8L960 782.8"/>
        <path class="st1" d="M1316.1 800.7L960 1046.1"/>
        <path class="st1" d="M1367.8 1006.2l-407.8 281"/>
        <path class="st1" d="M920 1418.9v284.2h80v-284.2"/>
    </g>
</svg>
