<svg xmlns="http://www.w3.org/2000/svg" viewBox="0 0 1920 1920">
    <style>
        .st0{fill:#fff}.st1{fill:none;stroke:#231f20;stroke-width:50;stroke-linecap:round;stroke-linejoin:round;stroke-miterlimit:10}
    </style>
    <path class="st0" d="M854.6 207.9s-76 172 27.9 398.2c0 0-39.7 62.7 0 176.5 0 0 45.8 141.4 33.6 567.8 0 0-134.5 249.1-195.6 279.6 0 0-17.7 11.3-33.6 28.7-15.6 16.9-3.3 44.4 19.7 44.4l117.4 14.2c19.6 0 72.5-19.4 72.5-19.4 34.8-20.4 84-50.9 98.9-89.2 24-61.3 76.1-97.6 96.8-110.5 66.1-41.1 13.4-195.7 13.4-195.7 38.5-199 64.7-322.9 17.4-497.2-11.7-43.2-3.5-60.6 13.7-101.9 42.4-101.9 111.2-300 102.7-495.5H854.6z" id="Layer_4"/>
    <path class="st1" d="M854.6 207.9s-76 172 27.9 398.2c0 0-39.7 62.7 0 176.5 0 0 45.8 141.4 33.6 567.8 0 0-134.5 249.1-195.6 279.6 0 0-17.7 11.3-33.6 28.7-15.6 16.9-3.3 44.4 19.7 44.4l117.4 14.2c19.6 0 72.5-19.4 72.5-19.4 34.8-20.4 84-50.9 98.9-89.2 24-61.3 76.1-97.6 96.8-110.5 66.1-41.1 13.4-195.7 13.4-195.7 38.5-199 64.7-322.9 17.4-497.2-11.7-43.2-3.5-60.6 13.7-101.9 42.4-101.9 111.2-300 102.7-495.5" id="Layer_3"/>
</svg>
