<svg xmlns="http://www.w3.org/2000/svg" viewBox="0 0 1920 1920">
    <style>
        .st0{fill:#fff}.st1{fill:none;stroke:#231f20;stroke-width:50;stroke-linecap:round;stroke-linejoin:round;stroke-miterlimit:10}
    </style>
    <path class="st0" d="M506.4 216.9c30.2 51.6 50.4 114.3 92.7 152.5 94.1 85 199.1 158 300.1 235.3 17.6 13.5 38.4 22.7 55.8 36.3 42.5 33.4 55.9 67.6 16.6 117.6-57.7 73.4-75.8 160.4-60.7 252.9 31.8 194.7 23.7 383.1-73.4 561.8-21.5 39.6-20.4 67.9 2.3 94.2 19.7 22.8 48.6 35.5 78.7 35.5h431.6c34 0 60.5-23.4 63.1-57.3.7-9.8-19.1-38.5-54.9-34.7-56.3 6-139.7-20.6-201.4-58.2-49.6-30.2-76.4-70.6-64-124.3 22.2-96 187.6-646.4 206.4-686.3 25.7-54.6 27.9-104.4-16.4-150.9-9.6-10.1-16.9-22.2-21-35.5-39.9-127.6-108.8-238.2-195.2-338.9H506.4z" id="Layer_1"/>
    <path class="st1" d="M506.4 216.9c30.2 51.6 50.4 114.3 92.7 152.5 94.1 85 199.1 158 300.1 235.3 17.6 13.5 38.4 22.7 55.8 36.3 42.5 33.4 55.9 67.6 16.6 117.6-57.7 73.4-75.8 160.4-60.7 252.9 31.8 194.7 23.7 383.1-73.4 561.8-21.5 39.6-20.4 67.9 2.3 94.2 19.7 22.8 48.6 35.5 78.7 35.5h431.6c34 0 60.5-23.4 63.1-57.3.7-9.8-19.1-38.5-54.9-34.7-56.3 6-139.7-20.6-201.4-58.2-49.6-30.2-76.4-70.6-64-124.3 22.2-96 187.6-646.4 206.4-686.3 25.7-54.6 27.9-104.4-16.4-150.9-9.6-10.1-16.9-22.2-21-35.5-39.9-127.6-108.8-238.2-195.2-338.9" id="Layer_3"/>
</svg>
