<svg xmlns="http://www.w3.org/2000/svg" viewBox="0 0 1920 1920">
    <style>
        .st0{fill:#fff}.st1{fill:none;stroke:#231f20;stroke-width:50;stroke-linecap:round;stroke-linejoin:round;stroke-miterlimit:10}
    </style>
    <path class="st0" d="M678.7 207.9s-15.8 367.2 65.9 591.4c3.3 9.1 13.8 25.3 13.8 25.3s-29.9 330.1 45.5 652.9c3.9 16.7-6.4 32.1-11.3 45.2-54.3 146.1 28.9 166.3 28.9 166.3h375.2c51.7 0 45.7-50.1 45.7-50.1.4-34.3-89.1-11.7-138.6-43.2l-133.6-65.8c-17.5-10.6-27.3-30.4-25-50.7l33-406.8 33.3-131.3c4.8-14.9 7.4-31.2 7.4-48.3 0-20.5-3.8-39.9-10.5-57.1-2.6-25.7-6.3-51.7-7.9-66.3-2.6-24.6-3-49.4-.5-74l49.3-479.2-370.6-8.3z" id="Layer_2"/>
    <path class="st1" d="M678.7 207.9s-15.8 367.2 65.9 591.4c3.3 9.1 13.8 25.3 13.8 25.3s-29.9 330.1 45.5 652.9c3.9 16.7-6.4 32.1-11.3 45.2-54.3 146.1 28.9 166.3 28.9 166.3h375.2c51.7 0 45.7-50.1 45.7-50.1.4-34.3-89.1-11.7-138.6-43.2l-133.6-65.8c-17.5-10.6-27.3-30.4-25-50.7l33-406.8 33.3-131.3c4.8-14.9 7.4-31.2 7.4-48.3 0-20.5-3.8-39.9-10.5-57.1-2.6-25.7-6.3-51.7-7.9-66.3-2.6-24.6-3-49.4-.5-74l49.3-479.2" id="Layer_3"/>
</svg>
