<svg xmlns="http://www.w3.org/2000/svg" viewBox="0 0 1920 1920">
    <style>
        .st0{fill:#fff}.st1{fill:none;stroke:#231f20;stroke-width:50;stroke-linecap:round;stroke-linejoin:round;stroke-miterlimit:10}
    </style>
    <path class="st0" d="M960 217c-410.4 0-743.1 332.7-743.1 743s332.7 743.1 743.1 743.1 743.1-332.7 743.1-743.1S1370.4 217 960 217zm580.5 897.5c-.5.6-.9 1.1-1.4 1.7-11.2 12.4-28.1 19-45.3 16.9-.6-.1-1.2-.1-1.8-.2-2.8-.4-5.6-1.1-8.3-2 29.6 9.6 44.5 42.6 32.1 71.2-35.8 82.3-89.2 155.2-155.5 213.8-17.5 15.5-42.2 17.1-61.2 6.2-.9-.5-1.8-1-2.6-1.6-1.1-.7-2.1-1.4-3.2-2.2-.2-.2-.5-.3-.7-.5-3.7-2.9-7-6.4-9.9-10.4 18.2 25.1 11 60.6-15.7 76.4-75 44.4-160.3 73.1-251.5 81.7-31 2.9-57.8-21.4-57.8-52.5 0 31.1-26.8 55.4-57.8 52.5-91.2-8.6-176.6-37.3-251.5-81.7-26.7-15.8-34-51.2-15.7-76.4-1.3 1.8-2.7 3.5-4.2 5-.4.4-.7.8-1.1 1.2-4.6 4.6-9.9 8.2-15.6 10.8-.4.2-.7.3-1.1.5-18 7.7-39.8 5-55.6-9-66.3-58.6-119.8-131.5-155.5-213.8-12.4-28.5 2.5-61.6 32.1-71.2-2.8.9-5.5 1.6-8.3 2-.6.1-1.2.2-1.8.2-26.3 3.2-51.7-14-57.7-40.9-9.4-42.6-14.4-86.8-14.4-132.2 0-45.4 5-89.7 14.4-132.2 6-26.9 31.4-44.1 57.7-40.9.6.1 1.2.1 1.8.2 2.8.4 5.6 1.1 8.3 2-29.6-9.6-44.5-42.6-32.1-71.2 35.8-82.3 89.2-155.2 155.5-213.8 15.8-14 37.6-16.7 55.6-9 .4.1.7.3 1.1.5 1.1.5 2.3 1.1 3.4 1.7.4.2.7.4 1.1.6 4 2.3 7.8 5.1 11.1 8.5.4.4.8.8 1.1 1.2 1.5 1.6 2.9 3.2 4.2 5-18.2-25.1-11-60.5 15.7-76.4 75-44.4 160.3-73.1 251.5-81.7 31-2.9 57.8 21.4 57.8 52.5 0-31.1 26.8-55.4 57.8-52.5 91.2 8.6 176.6 37.3 251.5 81.7 26.7 15.8 34 51.2 15.7 76.4 2.9-4 6.3-7.5 9.9-10.3.2-.2.4-.4.7-.5 1-.8 2.1-1.5 3.2-2.2.9-.6 1.7-1.1 2.6-1.6.4-.2.7-.4 1.1-.6 18.8-10.2 42.9-8.3 60.1 6.9 66.3 58.6 119.8 131.5 155.5 213.8 12.4 28.5-2.5 61.5-32.1 71.2 2.8-.9 5.5-1.5 8.3-2 .6-.1 1.2-.2 1.8-.2 17.2-2.1 34.1 4.6 45.3 16.9.5.5 1 1.1 1.4 1.7 5.2 6.2 9 13.8 10.9 22.3 9.4 42.6 14.4 86.8 14.4 132.2 0 45.4-5 89.6-14.4 132.2-1.8 8.3-5.7 15.9-10.9 22.1z" id="Layer_4"/>
    <path class="st0" d="M1551.5 827.8c-1.9-8.5-5.7-16.1-10.9-22.3-.5-.6-.9-1.1-1.4-1.7-11.2-12.4-28.1-19-45.3-16.9-.6.1-1.2.1-1.8.2-2.8.4-5.6 1.1-8.3 2 29.6-9.6 44.5-42.6 32.1-71.2-35.8-82.3-89.2-155.2-155.5-213.8-17.2-15.2-41.3-17-60.1-6.9-.4.2-.7.4-1.1.6-.9.5-1.8 1-2.6 1.6-1.1.7-2.1 1.5-3.2 2.2-.2.2-.5.3-.7.5-3.7 2.9-7 6.4-9.9 10.3 18.2-25.1 11-60.5-15.7-76.4-75-44.4-160.3-73.1-251.5-81.7-31-2.9-57.8 21.4-57.8 52.5 0-31.1-26.8-55.4-57.8-52.5-91.2 8.6-176.6 37.3-251.5 81.7-26.7 15.8-34 51.2-15.7 76.4-1.3-1.8-2.7-3.5-4.2-5-.4-.4-.7-.8-1.1-1.2-3.4-3.4-7.1-6.2-11.1-8.5-.4-.2-.7-.4-1.1-.6-1.1-.6-2.2-1.2-3.4-1.7-.4-.2-.7-.3-1.1-.5-18-7.7-39.8-5-55.6 9-66.3 58.6-119.8 131.5-155.5 213.8-12.4 28.5 2.5 61.5 32.1 71.2-2.8-.9-5.5-1.5-8.3-2-.6-.1-1.2-.2-1.8-.2-26.3-3.2-51.7 14-57.7 40.9-9.4 42.6-14.4 86.8-14.4 132.2 0 45.4 5 89.6 14.4 132.2 6 26.9 31.4 44.1 57.7 40.9.6-.1 1.2-.1 1.8-.2 2.8-.4 5.6-1.1 8.3-2-29.6 9.6-44.5 42.6-32.1 71.2 35.8 82.3 89.2 155.2 155.5 213.8 15.8 14 37.6 16.7 55.6 9 .4-.2.7-.3 1.1-.5 5.7-2.6 11-6.2 15.6-10.8.4-.4.8-.8 1.1-1.2 1.5-1.6 2.9-3.2 4.2-5-18.2 25.1-11 60.6 15.7 76.4 75 44.4 160.3 73.1 251.5 81.7 31 2.9 57.8-21.4 57.8-52.5 0 31.1 26.8 55.4 57.8 52.5 91.2-8.6 176.6-37.3 251.5-81.7 26.7-15.8 34-51.2 15.7-76.4 2.9 4 6.3 7.5 9.9 10.4.2.2.4.4.7.5 1 .8 2.1 1.6 3.2 2.2.9.6 1.7 1.1 2.6 1.6 19 10.8 43.6 9.2 61.2-6.2 66.3-58.6 119.8-131.5 155.5-213.8 12.4-28.5-2.5-61.6-32.1-71.2 2.8.9 5.5 1.6 8.3 2 .6.1 1.2.2 1.8.2 17.2 2.1 34.1-4.6 45.3-16.9.5-.5 1-1.1 1.4-1.7 5.2-6.2 9-13.8 10.9-22.3 9.4-42.6 14.4-86.8 14.4-132.2 0-45.2-5-89.5-14.4-132z" id="Layer_5"/>
    <g id="STROKES">
        <path class="st1" d="M1282.7 512.6L957.7 960V407c0-31.1 26.8-55.4 57.8-52.5 91.2 8.6 176.6 37.3 251.5 81.7 26.7 15.9 34 51.3 15.7 76.4z"/>
        <path class="st1" d="M957.7 960l-325 447.3c-18.3 25.2-54.3 29.1-77.6 8.5-66.3-58.6-119.8-131.5-155.5-213.8-12.4-28.5 2.5-61.5 32.1-71.2l526-170.8z"/>
        <path class="st1" d="M957.7 960v553c0 31.1-26.8 55.4-57.8 52.5-91.2-8.6-176.6-37.3-251.5-81.7-26.7-15.8-34-51.2-15.7-76.4l325-447.4z"/>
        <path class="st1" d="M1267 1483.8c-75 44.4-160.3 73.1-251.5 81.7-31 2.9-57.8-21.4-57.8-52.5V960l325.1 447.4c18.2 25.1 10.9 60.5-15.8 76.4z"/>
        <path class="st1" d="M1515.8 1202.1c-35.8 82.3-89.2 155.2-155.5 213.8-23.3 20.6-59.3 16.6-77.6-8.5L957.7 960l526 170.9c29.6 9.6 44.5 42.6 32.1 71.2z"/>
        <path class="st1" d="M1565.9 960c0 45.4-5 89.7-14.4 132.2-6.7 30.4-38.2 48.3-67.8 38.7L957.7 960l526-170.9c29.6-9.6 61.1 8.3 67.8 38.7 9.4 42.5 14.4 86.8 14.4 132.2z"/>
        <path class="st1" d="M1483.7 789.1L957.7 960l325-447.3c18.3-25.2 54.3-29.1 77.6-8.5 66.3 58.6 119.8 131.5 155.5 213.8 12.4 28.5-2.5 61.5-32.1 71.1z"/>
        <path class="st1" d="M960 217c-410.4 0-743.1 332.7-743.1 743s332.7 743.1 743.1 743.1 743.1-332.7 743.1-743.1S1370.4 217 960 217z"/>
        <path class="st1" d="M957.7 407v553L632.6 512.6c-18.3-25.1-11-60.5 15.7-76.4 75-44.4 160.3-73.1 251.5-81.7 31.1-2.9 57.9 21.4 57.9 52.5z"/>
        <path class="st1" d="M957.7 960l-526-170.9c-29.6-9.6-44.5-42.6-32.1-71.2 35.8-82.3 89.2-155.2 155.5-213.8 23.3-20.6 59.3-16.6 77.6 8.5l325 447.4z"/>
        <path class="st1" d="M957.7 960l-526 170.9c-29.6 9.6-61.1-8.3-67.8-38.7-9.4-42.6-14.4-86.8-14.4-132.2s5-89.7 14.4-132.2c6.7-30.4 38.2-48.3 67.8-38.7l526 170.9z"/>
    </g>
</svg>
