<svg xmlns="http://www.w3.org/2000/svg" viewBox="0 0 1920 1920">
    <style>
        .st0{fill:#fff}.st1{fill:none;stroke:#231f20;stroke-width:50;stroke-linecap:round;stroke-linejoin:round;stroke-miterlimit:10}
    </style>
    <path class="st0" d="M1675.6 899.4c-15.5-15.5-36.9-25.1-60.6-25.1-3.7 0-7.4.3-10.9.7-56.3-216.1-323.2-379.8-644.1-379.8S372.2 658.9 315.9 875c-3.6-.4-7.2-.7-10.9-.7-23.7 0-45.1 9.6-60.6 25.1-15.5 15.5-25.1 36.9-25.1 60.6 0 23.7 9.6 45.1 25.1 60.6s36.9 25.1 60.6 25.1c3.7 0 7.4-.3 10.9-.7 56.3 216.1 323.2 379.8 644.1 379.8s587.8-163.7 644.1-379.8c3.6.4 7.2.7 10.9.7 23.7 0 45.1-9.6 60.6-25.1s25.1-36.9 25.1-60.6c0-23.7-9.6-45.1-25.1-60.6z" id="Layer_2"/>
    <path class="st1" d="M1615 874.3c-3.7 0-7.4.3-10.9.7-56.3-216.1-323.2-379.8-644.1-379.8S372.2 658.9 315.9 875c-3.6-.5-7.2-.7-10.9-.7-47.3 0-85.7 38.4-85.7 85.7 0 47.3 38.4 85.7 85.7 85.7 3.7 0 7.4-.3 10.9-.7 56.3 216.1 323.2 379.8 644.1 379.8s587.8-163.7 644.1-379.8c3.6.5 7.2.7 10.9.7 47.3 0 85.7-38.4 85.7-85.7 0-47.3-38.3-85.7-85.7-85.7z" id="STROKES"/>
</svg>
