<svg xmlns="http://www.w3.org/2000/svg" viewBox="0 0 1920 1920">
    <style>
        .st0{fill:#fff}.st1{fill:none;stroke:#231f20;stroke-width:50;stroke-linecap:round;stroke-linejoin:round;stroke-miterlimit:10}
    </style>
    <path class="st0" d="M816.7 614.6c-50.2-157.3-133.9-260.3-228.6-260.3-19 0-37.5 4.1-55.4 12C405.5 422.2 309.8 666.8 309.8 960s95.7 537.8 222.9 593.7c17.9 7.9 36.4 12 55.4 12h2.7c.9 0 1.8 0 2.6-.1.7 0 1.4-.1 2-.1.4 0 .9-.1 1.3-.1.3 0 .6 0 .9-.1.4 0 .8-.1 1.2-.1.6-.1 1.2-.1 1.8-.2.5 0 .9-.1 1.4-.1.7-.1 1.5-.2 2.2-.2l2.4-.3c.9-.1 1.7-.2 2.6-.4.7-.1 1.4-.2 2.1-.4.2 0 .5-.1.7-.1.7-.1 1.3-.2 2-.4.4-.1.8-.2 1.2-.2.6-.1 1.2-.3 1.9-.4.6-.1 1.2-.3 1.9-.4l1.2-.3 2.4-.6c.6-.2 1.1-.3 1.7-.5 1.1-.3 2.2-.6 3.2-.9.7-.2 1.3-.4 2-.6 1.6-.5 3.1-1 4.7-1.6.5-.2 1.1-.4 1.6-.6 3.3-1.2 6.5-2.6 9.8-4 .7-.3 1.4-.7 2.1-1 1.4-.7 2.8-1.3 4.1-2 .3-.2.7-.3 1-.5 2.4-1.2 4.9-2.6 7.3-4 .6-.4 1.3-.8 2-1.2.3-.2.7-.4 1-.6.6-.4 1.2-.8 1.9-1.2.7-.4 1.4-.9 2.2-1.4 1.7-1.1 3.4-2.2 5.1-3.4.8-.5 1.6-1.1 2.4-1.7.8-.5 1.5-1.1 2.3-1.6.8-.6 1.7-1.2 2.5-1.8l2.4-1.8c2.5-2 5-4 7.5-6.1.6-.5 1.2-1.1 1.9-1.6.8-.7 1.5-1.3 2.3-2 .7-.6 1.4-1.2 2-1.8 2.5-2.2 4.9-4.6 7.3-7l2.1-2.1c.8-.8 1.6-1.7 2.5-2.5.7-.7 1.4-1.4 2.1-2.2.7-.7 1.4-1.5 2.1-2.2.8-.8 1.6-1.7 2.3-2.6.6-.7 1.3-1.4 1.9-2.1 1.7-1.9 3.4-3.9 5.1-5.9 1.2-1.5 2.5-3 3.7-4.5l2.4-3 2.1-2.7c2.1-2.8 4.3-5.5 6.4-8.4.7-.9 1.4-1.9 2.1-2.9 2.2-3.1 4.5-6.3 6.7-9.6.5-.8 1.1-1.5 1.6-2.3 2.1-3.1 4.2-6.3 6.2-9.6.6-1 1.2-2 1.8-2.9 2-3.2 4-6.5 5.9-9.8.6-1.1 1.3-2.2 1.9-3.3 1.6-2.8 3.2-5.7 4.8-8.6.4-.8.9-1.6 1.3-2.3.2-.3.3-.6.5-.8l2.1-3.9 4.5-8.7c.5-.9.9-1.8 1.4-2.7 2-3.9 3.9-7.9 5.8-12 .6-1.2 1.2-2.5 1.8-3.8 1.2-2.5 2.3-5 3.5-7.6l.9-2.1 1.5-3.3c.8-1.8 1.5-3.5 2.3-5.3.7-1.6 1.4-3.3 2.1-5 .6-1.5 1.3-3 1.9-4.6.4-.9.7-1.8 1.1-2.7l.6-1.5c.4-1.1.9-2.2 1.3-3.2 1.1-2.8 2.2-5.5 3.2-8.4l1.5-3.9c1.2-3.1 2.3-6.3 3.5-9.4.7-1.9 1.4-3.8 2-5.7 1.2-3.5 2.4-6.9 3.6-10.5.3-1 .7-2.1 1-3.1.4-1.1.7-2.2 1.1-3.3 1.7-5.2 3.4-10.3 5-15.6.5-1.5.9-3 1.4-4.5.5-1.8 1.1-3.5 1.6-5.3.6-1.9 1.1-3.8 1.6-5.7.6-2.1 1.2-4.1 1.8-6.2.7-2.6 1.5-5.2 2.2-7.9.4-1.4.8-2.8 1.1-4.3.3-1.1.6-2.1.8-3.2.4-1.5.8-2.9 1.2-4.4.5-1.9 1-3.7 1.4-5.6.5-1.9 1-3.8 1.4-5.8l.9-3.6 1.5-6.3c.3-1.3.6-2.6.9-3.8.6-2.4 1.1-4.8 1.6-7.3.3-1.3.6-2.5.8-3.8.5-2.4 1-4.8 1.5-7.3.2-1.2.5-2.4.7-3.5.1-.5.2-1 .3-1.4.3-1.5.6-2.9.9-4.4.3-1.6.6-3.1.9-4.7.1-.7.3-1.4.4-2.1.4-1.9.7-3.8 1.1-5.7.4-1.9.7-3.8 1.1-5.8.3-1.5.5-2.9.8-4.4.3-1.7.6-3.3.9-5 .3-1.8.6-3.5.9-5.3.9-5.1 1.7-10.2 2.5-15.4.3-1.9.6-3.9.9-5.9 2.5-16.5 4.6-33.3 6.4-50.4.3-2.4.5-4.9.8-7.3.5-4.9 1-9.8 1.4-14.8.2-2.3.4-4.6.6-7 0-.3 0-.6.1-.9.2-1.9.3-3.8.4-5.7.1-.8.1-1.6.2-2.4.2-2 .3-4 .4-5.9 0-.3.1-.6.1-.9.2-2.3.3-4.6.5-6.9v-.5c.2-2.4.3-4.9.5-7.4.1-2.5.3-5.1.4-7.6.1-2.4.2-4.8.4-7.2.1-1.9.2-3.9.3-5.8l.3-7.2v-.9l.3-7.8c.1-2.7.2-5.4.2-8.1.1-2.2.1-4.4.1-6.5.2-8.6.2-17.3.2-26.1-.4-128.2-18.8-247.2-50.1-345.2z" id="Layer_6"/>
    <path class="st0" d="M600.4 244.7c-26.2 0-51.7 4.9-76.4 14.2-172.5 65-303 345.9-307 685 0 2.7 0 5.3-.1 8v16.2c0 2.7 0 5.3.1 8 4 339.1 134.5 620 307 685 24.7 9.3 50.2 14.2 76.4 14.2 211.7 0 383.4-320.3 383.4-715.3S812.2 244.7 600.4 244.7zM866 992.6c-.1 2.7-.1 5.4-.2 8.1l-.3 7.8v.9l-.3 7.2c-.1 1.9-.2 3.9-.3 5.8-.1 2.4-.2 4.8-.4 7.2-.1 2.5-.3 5.1-.4 7.6-.1 2.5-.3 4.9-.5 7.4v.5c-.1 2.3-.3 4.6-.5 6.9 0 .3 0 .6-.1.9-.1 2-.3 4-.4 5.9 0 .8-.1 1.6-.2 2.4-.1 1.9-.3 3.8-.4 5.7 0 .3 0 .6-.1.9-.2 2.3-.4 4.7-.6 7-.4 5-.9 9.9-1.4 14.8-.2 2.5-.5 4.9-.8 7.3-1.8 17.1-4 33.9-6.4 50.4-.3 1.9-.6 3.9-.9 5.9-.8 5.2-1.6 10.3-2.5 15.4-.3 1.8-.6 3.5-.9 5.3-.3 1.7-.6 3.3-.9 5-.3 1.5-.5 2.9-.8 4.4-.3 1.9-.7 3.9-1.1 5.8-.4 1.9-.7 3.8-1.1 5.7-.1.7-.3 1.4-.4 2.1-.3 1.6-.6 3.1-.9 4.7-.3 1.5-.6 2.9-.9 4.4-.1.5-.2 1-.3 1.4-.2 1.2-.5 2.3-.7 3.5-.5 2.4-1 4.9-1.5 7.3-.3 1.3-.5 2.5-.8 3.8-.5 2.4-1.1 4.9-1.6 7.3-.3 1.3-.6 2.6-.9 3.8l-1.5 6.3-.9 3.6c-.5 1.9-.9 3.9-1.4 5.8-.5 1.9-.9 3.8-1.4 5.6-.4 1.5-.8 3-1.2 4.4-.3 1.1-.5 2.1-.8 3.2-.4 1.4-.8 2.8-1.1 4.3-.7 2.6-1.4 5.2-2.2 7.9-.6 2.1-1.2 4.1-1.8 6.2-.5 1.9-1.1 3.8-1.6 5.7-.5 1.8-1 3.5-1.6 5.3-.4 1.5-.9 3-1.4 4.5-1.6 5.3-3.3 10.5-5 15.6-.4 1.1-.7 2.2-1.1 3.3-.3 1-.7 2.1-1 3.1l-3.6 10.5c-.7 1.9-1.4 3.8-2 5.7-1.1 3.2-2.3 6.3-3.5 9.4l-1.5 3.9c-1.1 2.8-2.1 5.6-3.2 8.4-.4 1.1-.9 2.2-1.3 3.2l-.6 1.5c-.4.9-.7 1.8-1.1 2.7-.6 1.5-1.2 3.1-1.9 4.6-.7 1.7-1.4 3.3-2.1 5-.8 1.8-1.5 3.5-2.3 5.3l-1.5 3.3-.9 2.1c-1.1 2.6-2.3 5.1-3.5 7.6-.6 1.3-1.2 2.5-1.8 3.8-1.9 4-3.9 8-5.8 12-.5.9-.9 1.8-1.4 2.7l-4.5 8.7-2.1 3.9c-.1.3-.3.6-.5.8-.4.8-.9 1.6-1.3 2.3-1.6 2.9-3.2 5.8-4.8 8.6-.6 1.1-1.3 2.2-1.9 3.3-1.9 3.3-3.9 6.6-5.9 9.8-.6 1-1.2 2-1.8 2.9-2 3.2-4.1 6.4-6.2 9.6-.5.8-1 1.6-1.6 2.3-2.2 3.2-4.4 6.4-6.7 9.6-.7 1-1.4 1.9-2.1 2.9-2.1 2.9-4.2 5.7-6.4 8.4l-2.1 2.7-2.4 3c-1.2 1.5-2.5 3-3.7 4.5-1.7 2-3.4 4-5.1 5.9-.6.7-1.2 1.4-1.9 2.1-.8.9-1.6 1.7-2.3 2.6-.7.8-1.4 1.5-2.1 2.2-.7.7-1.4 1.5-2.1 2.2-.8.8-1.6 1.7-2.5 2.5l-2.1 2.1c-2.4 2.4-4.9 4.7-7.3 7-.7.6-1.4 1.2-2 1.8-.8.7-1.5 1.4-2.3 2-.6.5-1.2 1.1-1.9 1.6-2.5 2.1-5 4.2-7.5 6.1l-2.4 1.8c-.8.6-1.7 1.2-2.5 1.8-.8.5-1.5 1.1-2.3 1.6-.8.6-1.6 1.1-2.4 1.7-1.7 1.2-3.4 2.3-5.1 3.4-.7.5-1.4.9-2.2 1.4-.6.4-1.3.8-1.9 1.2-.4.2-.7.4-1 .6-.7.4-1.3.8-2 1.2-2.4 1.4-4.8 2.7-7.3 4-.3.2-.6.3-1 .5-1.4.7-2.8 1.4-4.1 2-.7.3-1.4.7-2.1 1-3.2 1.5-6.5 2.8-9.8 4-.5.2-1.1.4-1.6.6-1.5.6-3.1 1.1-4.7 1.6-.7.2-1.3.4-2 .6-1.1.3-2.2.7-3.2.9-.6.2-1.1.3-1.7.5l-2.4.6-1.2.3c-.6.1-1.2.3-1.9.4-.6.1-1.2.3-1.9.4-.4.1-.8.2-1.2.2-.7.1-1.3.3-2 .4-.2.1-.5.1-.7.1-.7.1-1.4.2-2.1.4-.9.1-1.7.3-2.6.4l-2.4.3c-.7.1-1.5.2-2.2.2-.5.1-.9.1-1.4.1-.6.1-1.2.1-1.8.2-.4 0-.8.1-1.2.1-.3 0-.6 0-.9.1-.4 0-.9.1-1.3.1-.7 0-1.4.1-2 .1-.9 0-1.8.1-2.6.1h-2.7c-19 0-37.5-4.1-55.4-12-127.1-55.9-222.9-300.5-222.9-593.7S405 422.4 532.2 366.5c17.9-7.9 36.4-12 55.4-12 94.7 0 178.4 103 228.6 260.3 31.3 98 49.6 217 49.6 345.4 0 8.7-.1 17.4-.2 26.1.5 1.9.4 4.1.4 6.3z" id="Layer_7"/>
    <path class="st0" d="M1684.9 864.9c-13-24.3-34-39.4-65.7-39.4-5 0-9.9.4-14.6 1.1-75.4-339.3-433.1-596.3-863-596.3-59.6 0-117.8 5-174.1 14.4-23.6 4-46.9 8.7-69.8 14.2-158.9 65.5-278.9 350.3-280.7 693 2-342.7 133.2-627.5 307.1-693 24.7-9.3 50.2-14.2 76.4-14.2 211.7 0 383.4 320.3 383.4 715.3s-171.7 715.3-383.4 715.3c-26.2 0-51.7-4.9-76.4-14.2-173.8-65.5-305-350.3-307.1-693 1.9 342.7 121.8 627.5 280.7 693 22.9 5.5 46.2 10.3 69.8 14.2 56.3 9.4 114.5 14.4 174.1 14.4 429.9 0 787.6-257 863-596.3 4.8.7 9.7 1.1 14.6 1.1 31.7 0 52.6-15.1 65.7-39.4 13-24.3 18.1-58 18.1-95.1s-5-70.8-18.1-95.1z" id="Layer_8"/>
    <g id="STROKES">
        <path class="st1" d="M866.4 960c0 334.5-124.6 605.7-278.2 605.7-19 0-37.5-4.1-55.4-12-127.1-55.9-222.9-300.5-222.9-593.7s95.7-537.8 222.9-593.7c17.9-7.9 36.4-12 55.4-12 153.6 0 278.2 271.2 278.2 605.7z"/>
        <path class="st1" d="M983.8 960c0 395.1-171.7 715.3-383.4 715.3-26.2 0-51.7-4.9-76.4-14.2-175.2-66-307.1-354.8-307.1-701.1S348.8 324.9 524 258.9c24.7-9.3 50.2-14.2 76.4-14.2 211.8 0 383.4 320.2 383.4 715.3z"/>
        <path class="st1" d="M1703.1 960c0 37.1-5.1 70.8-18.1 95.1-13 24.3-34 39.4-65.7 39.4-5 0-9.8-.4-14.6-1.1-75.4 339.3-433.1 596.3-862.9 596.3-59.6 0-117.8-4.9-174.1-14.4-23.6-4-46.9-8.7-69.8-14.2-160.2-66-280.8-354.8-280.8-701.1s120.6-635.1 280.8-701.1c22.9-5.5 46.2-10.3 69.8-14.2 56.3-9.4 114.5-14.4 174.1-14.4 429.9 0 787.6 257 862.9 596.3 4.8-.7 9.7-1.1 14.6-1.1 31.7 0 52.7 15.1 65.7 39.4 12.9 24.3 18.1 58 18.1 95.1z"/>
        <path class="st1" d="M1604.6 1093.4V990.6"/>
        <path class="st1" d="M569.6 1563.1V356.9"/>
        <path class="st1" d="M569.6 960l247.1-345.4"/>
        <path class="st1" d="M842.5 1205.9L569.6 960"/>
        <path class="st1" d="M569.6 960l-227.5 283.3"/>
        <path class="st1" d="M569.6 960l-230-273"/>
    </g>
</svg>
