<svg xmlns="http://www.w3.org/2000/svg" viewBox="0 0 1920 1920">
    <style>
        .st0{fill:#fff}.st1{fill:none;stroke:#231f20;stroke-width:50;stroke-linecap:round;stroke-linejoin:round;stroke-miterlimit:10}
    </style>
    <path class="st0" d="M1106.9 705l104.1 998.1H901.1v-138.3h-94.6v138.3H709L813.1 705h293.8zm0 747.3V1314h-94.6v138.3h94.6zm-138.2-377.8V936.2h-94.6v138.3h94.6zm95.1-810.6c-26.6-26.6-63.4-43.2-103.8-43.2-80.8 0-146.9 66.1-146.9 146.9v120.8h293.8V367.6c0-40.4-16.5-77.1-43.1-103.7z" id="Layer_2"/>
    <path class="st0" d="M901.1 1564.7V1703h-94.6v-138.3h94.6zm111.2-250.7v138.3h94.6V1314h-94.6zM874.1 936.2v138.3h94.6V936.2h-94.6z" id="Layer_10"/>
    <g id="STROKES">
        <g id="XMLID_1_">
            <path class="st1" d="M1106.9 705V488.4"/>
            <path class="st1" d="M813.1 488.4V705"/>
            <path class="st1" d="M901.1 1703.1H1211L1106.9 705"/>
            <path class="st1" d="M813.1 705L709 1703.1h97.4"/>
            <path class="st1" d="M813.1 488.4V367.6c0-80.8 66.1-146.9 146.9-146.9 40.4 0 77.1 16.5 103.8 43.2 26.6 26.6 43.2 63.4 43.2 103.8v120.8"/>
            <path class="st1" d="M911 498v207"/>
            <path class="st1" d="M1009 498v207"/>
            <path class="st1" d="M758 488.4h404"/>
            <path class="st1" d="M758 705h404"/>
            <path class="st1" d="M216.9 216.9L667 488.4"/>
            <path class="st1" d="M216.9 976.5L667 705"/>
            <path class="st1" d="M1703.1 976.5L1253 705"/>
            <path class="st1" d="M304.8 596.7h405"/>
            <path class="st1" d="M1615.2 596.7h-405"/>
            <path class="st1" d="M1703.1 216.9L1253 488.4"/>
            <path class="st1" d="M874.1 936.2h94.6v138.3h-94.6z"/>
            <path class="st1" d="M1012.3 1314h94.6v138.3h-94.6z"/>
            <path class="st1" d="M806.4 1564.7H901V1703h-94.6z"/>
        </g>
    </g>
</svg>
