<svg xmlns="http://www.w3.org/2000/svg" viewBox="0 0 1920 1920">
    <style>
        .st0{fill:#fff}.st1{fill:none;stroke:#231f20;stroke-width:50;stroke-linecap:round;stroke-linejoin:round;stroke-miterlimit:10}
    </style>
    <path class="st0" d="M1149.3 931.2l22.7 315.1h-.3L715 1703.1l26.2-363.8 408.1-408.1zM795.8 583L769 954.8l356.3-356.3-1.1-15.5H795.8z" id="Layer_7"/>
    <path class="st0" d="M1172 1246.3l33 456.8H715l456.8-456.8h.2zM769 954.8l-27.7 384.4 408.1-408.1-24-332.7L769 954.8z" id="Layer_8"/>
    <path class="st0" d="M1205 413H715l245-244z" id="Layer_9"/>
    <g id="STROKES">
        <g id="XMLID_1_">
            <path class="st1" d="M795.8 583L769 954.8l-27.8 384.4-26.2 363.9h490l-33-456.8-22.7-315.1-24-332.7-1.1-15.5"/>
            <path class="st1" d="M715 583h490"/>
            <path class="st1" d="M795.8 583V413"/>
            <path class="st1" d="M1124.2 413v170"/>
            <path class="st1" d="M1124.2 413h80.8L960 169 715 413h80.8z"/>
            <path class="st1" d="M1125.3 598.5L769 954.8"/>
            <path class="st1" d="M1149.3 931.2l-408.1 408"/>
            <path class="st1" d="M715 1703.1l456.8-456.8"/>
        </g>
    </g>
</svg>
