<svg xmlns="http://www.w3.org/2000/svg" viewBox="0 0 1920 1920">
    <style>
        .st0{fill:#fff}.st1{fill:none;stroke:#231f20;stroke-width:50;stroke-linecap:round;stroke-linejoin:round;stroke-miterlimit:10}
    </style>
    <path class="st0" d="M1259.3 994c8.3 14 12.2 29.3 12.2 44.5 0 30.1-15.4 59.5-43.1 75.9l-70.8 41.9-162.6 96.3c-41.6 24.6-95.8 10.7-120.4-30.9-24.6-41.6-10.8-95.8 30.9-120.4l233.4-138.2c41.6-24.6 95.8-10.7 120.4 30.9zm-86.8-460c-.1 0-.1.1-.2.1L744.7 787.2c-.2.1-.5.3-.7.4l-.6.3-88.3 52.3c-41.6 24.6-55.5 78.8-30.9 120.4 23.8 40.2 75.3 54.5 116.3 33.2l434.7-257.4c1.4-.8 2.8-1.6 4.2-2.3l81.4-48.2c27.6-16.4 43-45.8 43-75.9 0-15.2-3.9-30.6-12.2-44.5-24.3-41.1-77.6-55.1-119.1-31.5zm6.9 200.2L744.7 991.6c-1.4.8-2.8 1.6-4.2 2.3l-81.4 48.2c-41.6 24.6-55.5 78.8-30.9 120.4s78.8 55.5 120.4 30.9l13.5-8 502.5-297.5c27.7-16.4 43.1-45.8 43.1-75.9 0-15.2-3.9-30.6-12.2-44.5-23.6-40.3-75.1-54.7-116.1-33.3zm-8.2-403.8l-516 305.5c-41.6 24.6-55.5 78.8-30.9 120.4 24.4 41.2 77.7 55.2 119.1 31.6l.6-.3 427.2-252.9c.4-.2.7-.4 1.1-.6.1 0 .1-.1.2-.1l88.3-52.3c27.6-16.4 43-45.8 43-75.9 0-15.2-3.9-30.6-12.2-44.6-24.6-41.5-78.8-55.4-120.4-30.8zM935 265.9L701.5 404.1c-41.6 24.6-55.5 78.8-30.9 120.4 24.6 41.6 78.8 55.5 120.4 30.9l233.4-138.2c27.6-16.4 43.1-45.8 43.1-75.9 0-15.2-3.9-30.6-12.2-44.5-24.5-41.6-78.7-55.5-120.3-30.9z" id="Layer_7"/>
    <path class="st0" d="M828.4 1617.8h-23.1c-2.9 0-5.9-.4-8.7-1.3-42.2-13.4 27.3-101.9-30.1-140.7-41.6-28.1-56.8-106.1-56.8-106.1h500.6s-15.2 78.1-56.8 106.1c-57.5 38.8 12.1 127.3-30.2 140.7-2.8.9-5.7 1.3-8.7 1.3h-23.1v85.2H828.4v-85.2z" id="Layer_8"/>
    <g id="STROKES">
        <g id="XMLID_1_">
            <path class="st1" d="M670.7 524.6c-24.6-41.6-10.7-95.8 30.9-120.4L935 265.9c41.6-24.6 95.8-10.7 120.4 30.9 8.3 14 12.2 29.3 12.2 44.5 0 30.1-15.4 59.5-43.1 75.9L791.1 555.4c-41.6 24.7-95.8 10.8-120.4-30.8z"/>
            <path class="st1" d="M874.6 1221.7c-24.6-41.6-10.8-95.8 30.9-120.4l233.4-138.2c41.6-24.6 95.8-10.7 120.4 30.9 8.3 14 12.2 29.3 12.2 44.5 0 30.1-15.4 59.5-43.1 75.9l-70.8 41.9-162.6 96.3c-41.6 24.6-95.8 10.7-120.4-30.9z"/>
            <path class="st1" d="M1172.3 534.1L744.7 787.2c-.2.1-.5.3-.7.4"/>
            <path class="st1" d="M743.4 788c-41.4 23.6-94.8 9.5-119.1-31.6-24.6-41.6-10.7-95.8 30.9-120.4l516.1-305.5c41.6-24.6 95.8-10.8 120.4 30.9 8.3 14 12.2 29.3 12.2 44.6 0 30.1-15.4 59.5-43 75.9l-88.3 52.3"/>
            <path class="st1" d="M740.5 993.9c-41 21.4-92.4 7-116.3-33.2-24.6-41.6-10.7-95.8 30.9-120.4l88.3-52.3.6-.3 427.2-252.9c.4-.2.7-.4 1.1-.6.1 0 .1-.1.2-.1 41.4-23.6 94.8-9.5 119.1 31.6 8.3 14 12.2 29.3 12.2 44.5 0 30.1-15.4 59.5-43 75.9l-81.4 48.2-434.7 257.3c-1.4.8-2.7 1.6-4.2 2.3z"/>
            <path class="st1" d="M762.3 1185.4l-13.5 8c-41.6 24.6-95.8 10.7-120.4-30.9s-10.8-95.8 30.9-120.4l81.4-48.2 434.7-257.4c1.4-.8 2.8-1.6 4.2-2.3 41-21.4 92.4-7 116.3 33.2 8.3 14 12.2 29.3 12.2 44.5 0 30.1-15.4 59.5-43.1 75.9l-502.7 297.6"/>
            <path class="st1" d="M762.3 1185.4v175.9"/>
            <path class="st1" d="M1157.7 1156.3v205"/>
            <path class="st1" d="M960 1369.7H709.7s15.2 78.1 56.8 106.1c57.5 38.8-12.1 127.3 30.1 140.7 2.8.9 5.7 1.3 8.7 1.3H956"/>
            <path class="st1" d="M964 1617.8h150.7c2.9 0 5.8-.4 8.7-1.3 42.2-13.4-27.3-101.9 30.2-140.7 41.6-28.1 56.8-106.1 56.8-106.1H960"/>
            <path class="st1" d="M828.4 1617.8v85.3h263.2v-85.3"/>
        </g>
    </g>
</svg>
