<svg xmlns="http://www.w3.org/2000/svg" viewBox="0 0 1920 1920">
    <style>
        .st0{fill:#fff}.st1{fill:none;stroke:#231f20;stroke-width:50;stroke-linecap:round;stroke-linejoin:round;stroke-miterlimit:10}
    </style>
    <path class="st0" d="M1570.1 806.3c15-45 81.9-139.5 116.3-186.5 10.4-14.2 4.3-34.4-12.2-40.4-174.9-63.6-304-58.7-399.3-18.9-43.2 18-79.4 43.2-109.8 72.4-1-30.3-6.8-57.3-15.8-81.2-33.5-89.7-110.1-136.6-135.7-155.4-38.2-28.2-107.4-121-141.4-168.3-10.3-14.3-31.4-14.7-42.2-.9C718.1 370.4 681.9 492.4 688.1 594c3 49.4 16.1 94 35.4 133.8-26.3-7.6-51.2-10.6-74.6-10.3-99.6 1.3-170.8 62.3-197.3 81.2-38.6 27.6-148.2 64.7-203.8 82.5-16.8 5.4-23.7 25.3-13.9 39.9 102.6 152.2 208.5 224.2 307.8 249 47 11.8 92.5 12.9 135.5 7C663 1198 653 1219 646 1239.6c-32.5 97.1 4.6 186.3 14.6 217.9 14.3 45.3 15.8 161 15.5 219.3-.1 17.6 16.7 30.4 33.6 25.5 181.5-52 283.4-133.5 336.4-223.2 23-38.8 36.8-79.1 44-119.2 16.5 21.2 34.6 38.1 53.4 51.5 81.5 58.2 175.5 50.6 208.3 50.9 47.5.3 158 34.7 213.4 53 16.7 5.5 34-6.5 34.7-24.1 6.6-190.3-40.2-312.8-110.1-390.9-29.4-32.9-62.8-57.8-98.1-76.7 28.3-10.2 52-24 71.9-39.7 75.5-59.6 96.5-147.4 106.5-177.6zm-463.5 205.6l-1.1 39.3-37.7 11.1-12.9 16.8-11.1 14.3-37-13.2-37.7 11.1-22.2-32.4-11.4-4.1-25.7-9.2 1.1-39.3-22.2-32.5 24-31.1.3-11.6.8-27.7 37.7-11.1 24-31.1 37 13.2 19.7-5.8 18-5.3 22.2 32.5 37 13.2-1.1 39.3 14.9 21.8 7.3 10.6-23.9 31.2z" id="Layer_5"/>
    <path class="st0" d="M1123.3 970.2l-14.9-21.8 1.2-39.3-37.1-13.2-22.1-32.5-18.1 5.3-19.7 5.8-37-13.3-24 31.2-37.7 11-.8 27.7-.3 11.6-24.1 31.1 22.2 32.5-1.1 39.3 25.6 9.1 11.4 4.1 22.2 32.5 37.7-11.1 37 13.2 11.1-14.3 12.9-16.8 37.7-11.1 1.2-39.3 24-31.1z" id="Layer_6"/>
    <path class="st0" d="M584.5 561.3s44.8 67.2 64.5 156.1c23.4-.3 48.3 2.7 74.6 10.3-19.3-39.8-32.4-84.3-35.4-133.8l-103.7-32.6zm-42.7 608.8l-59.2 83.1s75-21.1 163.5-13.6c6.9-20.6 17-41.6 31.2-62.5-43 5.9-88.5 4.7-135.5-7zm548.6 189.8c-7.2 40.1-21 80.5-44 119.2l62.7 84.7s3-73.3 34.6-152.4c-18.7-13.4-36.8-30.3-53.3-51.5zm373.4-376.1c-19.9 15.7-43.6 29.5-71.9 39.7 35.3 18.9 68.7 43.8 98.1 76.7l108.2-36.3s-69-25.5-134.4-80.1zm-314.4-432.2c8.9 23.9 14.8 50.9 15.8 81.2 30.4-29.2 66.6-54.4 109.8-72.4l-1.1-116.1c0 .1-48.4 61.4-124.5 107.3z" id="Layer_7"/>
    <g id="STROKES">
        <path class="st1" d="M1686.5 619.8c-34.5 47-101.3 141.5-116.3 186.5-10.1 30.2-31.1 117.9-106.4 177.5-19.9 15.7-43.6 29.5-71.9 39.7-90.3-48.3-192.6-56.4-268.6-53.4l-14.9-21.8 1.1-39.3-37-13.2-22.2-32.5-18 5.3c20.8-72.8 60-165.8 132.9-235.8 30.4-29.2 66.6-54.4 109.8-72.4 95.3-39.7 224.4-44.7 399.3 18.9 16.5 6.1 22.5 26.3 12.2 40.5z"/>
        <path class="st1" d="M1165.2 632.9c-72.8 70-112.1 163.1-132.9 235.8l-19.7 5.8-37-13.2-24 31.1-37.7 11.1-.8 27.7c-63.9-42.1-144-109.5-189.5-203.4-19.3-39.8-32.4-84.3-35.4-133.8-6.2-101.5 29.9-223.5 141.9-366.9 10.8-13.9 31.9-13.4 42.2.9 34.1 47.3 103.2 140.1 141.4 168.3 25.6 18.9 102.2 65.8 135.7 155.4 8.9 23.9 14.8 50.8 15.8 81.2z"/>
        <path class="st1" d="M935.4 1054.7c-59.7 48.8-151.1 107.5-258.1 122.3-43 5.9-88.5 4.8-135.5-7-99.2-24.8-205.1-96.8-307.8-249-9.8-14.6-2.9-34.5 13.9-39.9 55.5-17.8 165.1-54.9 203.7-82.5 26.5-19 97.7-80 197.3-81.3 23.4-.3 48.3 2.7 74.6 10.3C769 821.6 849.1 889 913 931l-.3 11.6-24 31.1 22.2 32.5-1.1 39.3 25.6 9.2z"/>
        <path class="st1" d="M1600 1491.2c-.6 17.6-18 29.6-34.7 24.1-55.4-18.3-165.9-52.6-213.3-53-32.7-.2-126.8 7.3-208.3-50.9-18.8-13.4-36.8-30.3-53.4-51.5 18.8-105.1-7.9-209-35.6-280.8l12.9-16.8 37.7-11.1 1.1-39.3 24-31.1-7.3-10.6c76-3.1 178.2 5 268.6 53.4 35.3 18.9 68.7 43.8 98.1 76.7 70 78.1 116.9 200.6 110.2 390.9z"/>
        <path class="st1" d="M1090.4 1359.9c-7.2 40.1-21 80.5-44 119.3-53.1 89.7-155 171.1-336.4 223.2-16.9 4.8-33.7-7.9-33.6-25.5.2-58.3-1.2-174-15.5-219.3-10-31.7-47.2-120.8-14.6-217.9 6.9-20.6 17-41.6 31.2-62.5 107-14.8 198.4-73.5 258.1-122.3l11.4 4.1 22.2 32.5 37.7-11.1 37 13.2 11.1-14.3c27.4 71.6 54.2 175.5 35.4 280.6z"/>
        <path class="st1" d="M1123.3 970.2l-14.9-21.8 1.1-39.3-37-13.2-22.2-32.5-18 5.3-19.7 5.8-37-13.2-24 31.1-37.7 11.1-.8 27.7-.3 11.6-24 31.1 22.2 32.5-1.1 39.3 25.7 9.2 11.4 4.1 22.2 32.5 37.7-11.1 37 13.2 11.1-14.3 12.9-16.8 37.7-11.1 1.1-39.3 24-31.1-7.4-10.8z"/>
        <path class="st1" d="M723.6 727.7c-26.3-7.6-51.2-10.6-74.6-10.3-19.7-88.8-64.5-156.1-64.5-156.1L688.2 594c3 49.4 16.1 93.9 35.4 133.7z"/>
        <path class="st1" d="M677.3 1177c-14.2 20.9-24.2 41.9-31.2 62.5-88.5-7.5-163.5 13.6-163.5 13.6l59.2-83.1c47 11.8 92.5 13 135.5 7z"/>
        <path class="st1" d="M1143.8 1411.4c-31.7 79.1-34.6 152.4-34.6 152.4l-62.7-84.7c23-38.8 36.8-79.1 44-119.3 16.4 21.3 34.5 38.2 53.3 51.6z"/>
        <path class="st1" d="M1598.2 1064l-108.2 36.3c-29.4-32.9-62.8-57.8-98.1-76.7 28.3-10.2 52-24 71.9-39.7 65.5 54.5 134.4 80.1 134.4 80.1z"/>
        <path class="st1" d="M1275 560.5c-43.2 18-79.4 43.2-109.8 72.4-1-30.3-6.9-57.3-15.8-81.2 76.1-46 124.5-107.2 124.5-107.2l1.1 116z"/>
    </g>
</svg>
