<svg xmlns="http://www.w3.org/2000/svg" viewBox="0 0 1920 1920">
    <style>
        .st0{fill:#fff}.st1{fill:none;stroke:#231f20;stroke-width:50;stroke-linecap:round;stroke-linejoin:round;stroke-miterlimit:10}
    </style>
    <path class="st0" d="M915 217S269 371 631 665c0 0 79.2 379.7 174.5 655.6 14.7 42.7 29.9 82.9 45.1 118.8 24 54.1 44.8 90.8 46.3 93.5 0 0 42.1 49.4 78.1-16.2s-24.1-303.6 53-439.6c77-136 151.1-268.7 151.1-268.7 75.6-58.5 149.1-135.6 199.9-235.3C1533 271 1003 330.9 915 217zm14 708c2-1.5 4-3 6.1-4.5-2.1 1.5-4.1 3-6.1 4.5zm-51-267.4c0-27.3 22.2-49.5 49.5-49.5s49.5 22.2 49.5 49.5V833c-.9-.3-1.9-.6-2.8-.9-1-.3-1.9-.6-2.9-.9-2.9-.9-5.8-1.9-8.7-2.9-1-.3-2-.7-2.9-1-4.5-1.5-9-3.2-13.7-4.9-1.2-.4-2.3-.9-3.5-1.3-4.6-1.7-9.2-3.5-13.9-5.3-1.8-.7-3.7-1.5-5.6-2.2-1.5-.6-2.9-1.2-4.4-1.8-6.7-2.7-13.4-5.5-20.2-8.4-1.1-.4-2.1-.9-3.2-1.4-5.7-2.4-11.4-5-17.1-7.5V657.6zm-15 312s.1 0 .1-.1.1-.1.2-.1c.1-.1.2-.1.3-.2.1-.1.3-.2.5-.3.2-.1.3-.2.5-.3 2.3-1.4 6.9-4.3 13.3-8.4v5.1c-9.2 2.8-14.5 4.2-14.9 4.3z" id="Layer_10"/>
    <path class="st0" d="M927.5 608.1c-27.3 0-49.5 22.2-49.5 49.5v137c5.7 2.6 11.4 5.1 17.1 7.5 1.1.5 2.1.9 3.2 1.4 6.8 2.9 13.6 5.7 20.2 8.4 1.5.6 3 1.2 4.4 1.8 1.9.8 3.7 1.5 5.6 2.2 4.7 1.8 9.3 3.6 13.9 5.3 1.2.4 2.4.9 3.5 1.3 4.6 1.7 9.2 3.3 13.7 4.9 1 .3 2 .7 2.9 1 2.9 1 5.8 2 8.7 2.9 1 .3 1.9.6 2.9.9.9.3 1.9.6 2.8.9V657.6c.1-27.4-22.1-49.5-49.4-49.5z" id="Layer_11"/>
    <g id="STROKES">
        <path class="st1" d="M1379 573c-50.8 99.7-124.3 176.7-199.9 235.3C1108 863.3 1035 902 977 927.7c-44.5 19.7-80 31.7-99 37.6v-5.1c3.3-2.2 7.2-4.7 11.5-7.6.4-.3.8-.5 1.2-.8 10.5-7 23.5-16 38.2-26.8 2-1.5 4-3 6.1-4.5 2.2-1.7 4.5-3.3 6.8-5.1 1.1-.8 2.2-1.7 3.4-2.5 3.4-2.5 6.8-5.2 10.4-7.9 1.2-.9 2.3-1.8 3.5-2.7 2.4-1.8 4.8-3.7 7.2-5.6 1.2-.9 2.4-1.9 3.7-2.9 2.3-1.8 4.6-3.7 7-5.6 4.1-3.3 8.2-6.6 12.4-10.1 2.1-1.7 4.2-3.5 6.3-5.2 6.8-5.6 13.6-11.5 20.6-17.6 1.2-1.1 2.5-2.2 3.7-3.3 2.7-2.3 5.3-4.7 8-7.1-1.6-.2-3.2-.4-4.9-.7-2.3-.3-4.6-.8-7-1.2-1.6-.3-3.1-.6-4.8-.9l-1.5-.3c-1.1-.2-2.1-.5-3.2-.7-1.1-.2-2.1-.5-3.2-.8-.9-.2-1.8-.4-2.7-.7-1.1-.3-2.2-.5-3.3-.8-6.6-1.7-13.4-3.6-20.4-5.8V657.6c0-27.3-22.2-49.5-49.5-49.5S878 630.3 878 657.6v137c-18-8-36.1-16.6-54-25.3-1.4-.7-2.7-1.3-4.1-2-9.6-4.7-19-9.4-28.4-14.2-1.8-.9-3.6-1.8-5.4-2.8l-5.4-2.7c-.9-.4-1.8-.9-2.7-1.4-2.1-1-4.1-2.1-6.1-3.2l-6.3-3.3c-2.8-1.5-5.6-2.9-8.4-4.4-.8-.5-1.7-.9-2.5-1.3-8.5-4.5-16.7-8.9-24.6-13.1-1.6-.9-3.1-1.7-4.7-2.6-.8-.4-1.6-.8-2.3-1.3-1.6-.8-3.1-1.7-4.6-2.5-14.4-7.9-27.6-15.2-39.1-21.7-2.1-1.2-4.1-2.3-6.1-3.4-2.6-1.5-5.2-2.9-7.6-4.3-.5-.3-1.1-.6-1.6-.9C643.4 672.4 631 665 631 665 269 371 915 217 915 217c88 113.9 618 54 464 356z"/>
        <path class="st1" d="M878 960.1v5.1c-9.4 2.9-14.7 4.3-15 4.4 0 0 .1 0 .1-.1s.1-.1.2-.1c.1-.1.2-.1.3-.2.1-.1.3-.2.5-.3.2-.1.3-.2.5-.3 2.4-1.4 7-4.3 13.4-8.5z"/>
        <path class="st1" d="M935.1 920.5c-2.1 1.5-4.1 3-6.1 4.5 2-1.5 4-3 6.1-4.5z"/>
        <path class="st1" d="M977 657.6V833c-.9-.3-1.9-.6-2.8-.9-1-.3-1.9-.6-2.9-.9-2.9-.9-5.8-1.9-8.7-2.9-1-.3-2-.7-2.9-1-4.5-1.5-9-3.2-13.7-4.9-1.2-.4-2.3-.9-3.5-1.3-4.6-1.7-9.2-3.5-13.9-5.3-1.8-.7-3.7-1.5-5.6-2.2-1.5-.6-2.9-1.2-4.4-1.8-6.7-2.7-13.4-5.5-20.2-8.4-1.1-.4-2.1-.9-3.2-1.4-5.7-2.4-11.4-5-17.1-7.5v-137c0-27.3 22.2-49.5 49.5-49.5 27.2.1 49.4 22.2 49.4 49.6z"/>
        <path class="st1" d="M850.6 1439.4c-15.1-34.1-31.5-75.1-45.1-118.8 14.7 42.7 29.9 82.9 45.1 118.8z"/>
        <path class="st1" d="M896.9 1532.8c-15.4-25.6-30.9-57.4-46.3-93.5 24 54.1 44.8 90.9 46.3 93.5z"/>
        <path class="st1" d="M1028 844.9c-2.7 2.4-5.3 4.8-8 7.1-1.2 1.1-2.5 2.2-3.7 3.3-6.9 6.1-13.8 12-20.6 17.6-2.1 1.8-4.2 3.5-6.3 5.2-4.2 3.4-8.3 6.8-12.4 10.1-2.4 1.9-4.7 3.8-7 5.6-1.2 1-2.4 1.9-3.7 2.9-2.4 1.9-4.8 3.8-7.2 5.6-1.2.9-2.4 1.8-3.5 2.7-3.5 2.7-7 5.3-10.4 7.9-1.1.9-2.2 1.7-3.4 2.5-2.3 1.7-4.6 3.4-6.8 5.1-2.1 1.5-4.1 3-6.1 4.5-14.8 10.8-27.8 19.8-38.2 26.8-.4.3-.8.5-1.2.8-4.3 2.9-8.2 5.4-11.5 7.6-6.4 4.2-11 7-13.3 8.4-.2.1-.4.2-.5.3-.2.1-.4.2-.5.3-.1.1-.2.1-.3.2-.1.1-.2.1-.2.1l-.1.1c-114.3 67-98.1 220.9-57.5 351C710.2 1044.7 631 665 631 665s12.4 7.4 33.2 19.3c.5.3 1 .6 1.6.9 2.4 1.4 4.9 2.8 7.6 4.3 2 1.1 4 2.3 6.1 3.4 11.5 6.5 24.7 13.8 39.1 21.7 1.5.8 3 1.7 4.6 2.5.8.4 1.5.8 2.3 1.3 1.6.9 3.1 1.7 4.7 2.6 7.9 4.3 16.1 8.7 24.6 13.1.9.4 1.7.9 2.5 1.3 2.8 1.5 5.6 2.9 8.4 4.4l6.3 3.3c2 1 4.1 2.1 6.1 3.2.9.5 1.8.9 2.7 1.4l5.4 2.7c1.8.9 3.6 1.8 5.4 2.8 9.3 4.7 18.8 9.5 28.4 14.2 1.4.7 2.7 1.3 4.1 2 17.9 8.7 36 17.2 54 25.3 5.7 2.6 11.4 5.1 17.1 7.5 1.1.5 2.1.9 3.2 1.4 6.8 2.9 13.6 5.7 20.2 8.4 1.5.6 3 1.2 4.4 1.8 1.9.8 3.7 1.5 5.6 2.2 4.7 1.8 9.3 3.6 13.9 5.3 1.2.4 2.4.9 3.5 1.3 4.6 1.7 9.2 3.3 13.7 4.9 1 .3 2 .7 2.9 1 2.9 1 5.8 2 8.7 2.9 1 .3 1.9.6 2.9.9.9.3 1.9.6 2.8.9 7 2.2 13.9 4.1 20.4 5.8 1.1.3 2.2.6 3.3.8.9.2 1.8.5 2.7.7 1.1.3 2.2.5 3.2.8 1.1.2 2.1.5 3.2.7l1.5.3 4.8.9c2.4.4 4.7.9 7 1.2 1.7.1 3.3.3 4.9.5z"/>
        <path class="st1" d="M935.1 920.5c-2.1 1.5-4.1 3-6.1 4.5 2-1.5 4-3 6.1-4.5z"/>
        <path class="st1" d="M1028 1077c-77 136-17 374-53 439.6s-78.1 16.2-78.1 16.2c-1.5-2.7-22.3-39.4-46.3-93.5-15.3-35.9-30.4-76.1-45.1-118.8-40.6-130-56.8-284 57.5-351 .3-.1 5.6-1.5 15-4.4 18.9-5.9 54.5-17.9 99-37.6 57.9-25.7 131-64.3 202.1-119.4 0 .2-74.1 132.9-151.1 268.9z"/>
        <path class="st1" d="M1028 844.9c77.4-69.6 160.8-163.6 199-269.9"/>
        <path class="st1" d="M929 925c2-1.5 4-3 6.1-4.5-2.1 1.5-4.1 3-6.1 4.5z"/>
        <path class="st1" d="M977 657.6V833c-.9-.3-1.9-.6-2.8-.9-1-.3-1.9-.6-2.9-.9-2.9-.9-5.8-1.9-8.7-2.9-1-.3-2-.7-2.9-1-4.5-1.5-9-3.2-13.7-4.9-1.2-.4-2.3-.9-3.5-1.3-4.6-1.7-9.2-3.5-13.9-5.3-1.8-.7-3.7-1.5-5.6-2.2-1.5-.6-2.9-1.2-4.4-1.8-6.7-2.7-13.4-5.5-20.2-8.4-1.1-.4-2.1-.9-3.2-1.4-5.7-2.4-11.4-5-17.1-7.5v-137c0-27.3 22.2-49.5 49.5-49.5 27.2.1 49.4 22.2 49.4 49.6z"/>
        <path class="st1" d="M935.1 1550.7v152.7"/>
    </g>
</svg>
