<svg xmlns="http://www.w3.org/2000/svg" viewBox="0 0 1920 1920">
    <style>
        .st0{fill:#fff}.st1{fill:none;stroke:#231f20;stroke-width:50;stroke-linecap:round;stroke-linejoin:round;stroke-miterlimit:10}
    </style>
    <path class="st0" d="M1152.4 796c348.4-143.1 335-413.8 335-413.8-3.3-.4-6.6-.8-9.8-1.1-129-13.8-252.1 28.2-344.4 107.4-5.2-69.3-30.8-146.1-89.4-228.3-41-57.5-126.5-57.5-167.5 0-58.6 82.2-84.2 159-89.4 228.3-92.3-79.3-215.4-121.3-344.4-107.5-3.3.3-6.5.7-9.9 1.1 0 0-13.4 270.7 335 413.8-130.9-27.2-303.9-40.4-438.2 30.2 0 0 184 203.8 436.8 132.7 5.3-1.5 10.6-3.1 15.9-4.8-4.4 7.1-7.9 14.2-10.5 21.1-17.3 45.5 2.1 85.5 34.1 118.2 16.4 16.8 36.2 31.6 56 44.2 19.8 12.6 39.6 23 56.3 30.9 26.6 12.7 57.5 12.7 84.1 0 33.3-15.8 79.4-41.5 112.3-75.1 32-32.7 51.5-72.7 34.1-118.2-2.6-6.9-6.1-13.9-10.5-21.1 5.3 1.7 10.6 3.3 15.9 4.8 252.8 71.1 436.8-132.7 436.8-132.7-134.3-70.6-307.4-57.3-438.3-30.1z" id="Layer_2"/>
    <path class="st0" d="M1002.1 1168.4a97.582 97.582 0 0 1-84.1 0c-16.6-7.9-36.5-18.3-56.3-30.9-19.8-12.6-39.6-27.4-56-44.2 31.2 122.2 55.2 262.9 55.2 384 0 80.9 12.4 135.4 28.4 172.1 5.6 12.9 12.8 23.4 20.9 31.6 37.2 37.6 95.2 27 120.7-31.6 16-36.7 28.4-91.2 28.4-172.1 0-121.2 24-261.9 55.2-384-33 33.5-79.2 59.3-112.4 75.1z" id="Layer_4"/>
    <g id="STROKES">
        <path class="st1" d="M960 852.4c-1.9-.8-82.2-33.6-192.4-56.4-348.4-143.1-335-413.8-335-413.8 3.3-.4 6.6-.8 9.9-1.1 129-13.8 252.1 28.2 344.4 107.4 74.3 63.7 128.6 151.6 150.1 253.8l23 110.1z"/>
        <path class="st1" d="M1152.4 796c-110.2 22.9-190.5 55.6-192.4 56.4l23.1-110.1c21.4-102.2 75.8-190.1 150.1-253.8 92.3-79.2 215.4-121.2 344.4-107.4 3.3.3 6.5.7 9.9 1.1-.1-.1 13.3 270.7-335.1 413.8z"/>
        <path class="st1" d="M1133.1 488.4C1058.8 552.1 1004.5 640 983 742.2l-23 110.2-23.1-110.1c-21.4-102.3-75.8-190.1-150-253.9 5.2-69.3 30.8-146.1 89.4-228.3 41-57.5 126.5-57.5 167.5 0 58.5 82.2 84.2 159 89.3 228.3z"/>
        <path class="st1" d="M960 852.4c-35.4 0-70.8 7.6-93.7 22.7-41.9 27.6-68.8 54-84.2 79.1-5.3 1.7-10.6 3.3-15.9 4.8-252.9 71-436.9-132.8-436.9-132.8 134.3-70.7 307.4-57.4 438.2-30.2 110.3 22.8 190.6 55.6 192.5 56.4z"/>
        <path class="st1" d="M1590.7 826.2s-184 203.8-436.8 132.7c-5.3-1.5-10.6-3.1-15.9-4.8-15.4-25-42.3-51.5-84.2-79.1-22.9-15.1-58.3-22.7-93.7-22.7 1.9-.8 82.2-33.5 192.4-56.4 130.8-27.1 303.9-40.4 438.2 30.3z"/>
        <path class="st1" d="M1114.3 1093.3c-32.9 33.5-79 59.3-112.3 75.1a97.582 97.582 0 0 1-84.1 0c-33.3-15.8-79.4-41.5-112.3-75.1-32-32.7-51.5-72.7-34.1-118.2 2.6-6.9 6.1-13.9 10.5-21.1 15.4-25 42.3-51.5 84.2-79.1 22.9-15.1 58.3-22.7 93.7-22.7s70.8 7.6 93.7 22.7c41.9 27.6 68.8 54 84.2 79.1 4.4 7.1 7.9 14.2 10.5 21.1 17.5 45.5-1.9 85.6-34 118.2z"/>
        <path class="st1" d="M805.7 1093.3c31.2 122.2 55.1 262.9 55.1 384 0 80.9 12.4 135.4 28.4 172.1 31.2 71.5 110.5 71.5 141.6 0 16-36.7 28.4-91.2 28.4-172.1 0-121.2 24-261.9 55.1-384"/>
        <path class="st1" d="M960 483v369.4s69-237 215-237"/>
        <path class="st1" d="M927 415h66"/>
        <path class="st1" d="M1241.2 636.7v-42.6"/>
        <path class="st1" d="M960 483v369.4s-69-237-215-237"/>
        <path class="st1" d="M678.8 636.7v-42.6"/>
    </g>
</svg>
