<svg xmlns="http://www.w3.org/2000/svg" viewBox="0 0 1920 1920">
    <style>
        .st0{fill:#fff}.st1{fill:none;stroke:#231f20;stroke-width:50;stroke-linecap:round;stroke-linejoin:round;stroke-miterlimit:10}
    </style>
    <path class="st0" d="M1623.7 991.9c22.4 48.3-51.4 142.7-100.4 197.6-18.2 20.4-47 27.6-72.8 18.3-56.4-20.5-162.7-18.7-162.7-18.7 19.7 11.6 77.2 3.2 9.9 200.3-67.1 196.3-360.6 312.7-362.9 313.6-201.7-240.5-308.5-308.7-308.5-308.7L561 1537c-240-154.9-216-388-216-388l-93.3 135.3c-195.4-468 259.5-881.8 259.5-881.8L386.4 373c269.3-262.8 669.3-58.9 669.3-58.9L1001 217c103.7 16.8 278.4 127.2 330.6 215.8 41.7 70.8 111.2 193 77.1 267.7 0 0 311.7 170 308.4 173.6H1505l118.7 117.8z" id="Layer_8"/>
    <path class="st0" d="M1505 874.1h212.1c-3.3 3.6-93.3 117.8-93.3 117.8L1505 874.1z" id="Layer_2"/>
    <g id="STROKES">
        <g id="XMLID_2_">
            <path class="st1" d="M1187.2 726.5h1.8"/>
            <path class="st1" d="M934.8 1703c2.3-.9 295.8-117.4 362.9-313.6 67.3-197.1 9.8-188.7-9.9-200.3 0 0 106.3-1.8 162.7 18.7 25.7 9.3 54.6 2.2 72.8-18.3 49-54.9 122.8-149.3 100.4-197.6 0 0 90.1-114.1 93.3-117.8 3.3-3.7-308.4-173.6-308.4-173.6 34.1-74.7-35.4-196.9-77.1-267.7-52.1-88.6-226.9-199-330.6-215.8l54.7 97.1s-400-203.9-669.3 58.9l124.8 29.5S56.2 816.3 251.6 1284.3L345 1149s-24 233.1 216 388l65.3-142.7s106.8 68.3 308.5 308.7"/>
            <path class="st1" d="M1717.1 874.1H1505l118.7 117.8s-78.7 199.7-454.7 80.5"/>
            <path class="st1" d="M848.5 696.2s-84.4-15.1-130.1-55.8C683.3 609.2 671 563 737 497c152-152 208-12 223 0"/>
            <path class="st1" d="M626.3 1394.3S306.6 1204.6 505 695"/>
            <path class="st1" d="M934.8 1703.1c89-209.6 162.6-308.7-161.8-573.3-165.6-135.1-54.6-489.3-54.6-489.3"/>
            <path class="st1" d="M930.3 788s87.9 75.5 95.3 256.7c7.4 181.1 262.2 144.4 262.2 144.4-61.1 168.1-262.2 239.4-262.2 239.4"/>
            <path class="st1" d="M1065 661.2s122.2-99.8 208 0"/>
        </g>
    </g>
</svg>
