<svg xmlns="http://www.w3.org/2000/svg" viewBox="0 0 1920 1920">
    <style>
        .st0{fill:#fff}.st1{fill:none;stroke:#231f20;stroke-width:50;stroke-linecap:round;stroke-linejoin:round;stroke-miterlimit:10}
    </style>
    <path class="st0" d="M961 1343.9c129.2 48 228.2-63 228.2-63 102-89.3 67.4-234 67.4-234 130.4-132 69.6-370.8 69.6-370.8s96.1-78.3 26.7-182.5c-69.9-105-233.4-8.8-233.4-8.8s-25.7-70-159.1-70-159.1 70-159.1 70-163.4-96.2-233.3 8.8C498.7 597.7 594.8 676 594.8 676s-60.8 238.8 69.6 370.8c0 0-34.6 144.8 67.4 234 0 0 99 111 228.2 63h1zm586.7-751.6l-54.5-7s122.8 251.6 29.8 439.8l-52.6-47.5s7 225.2-82.7 358.9l-52.8-39.2s-109.1 215.1-225.2 282c0 0-47.5-42.2-47.5-37 0 5.2-99.6 145.9-102.1 149.5-2.5-3.6-102.1-144.3-102.1-149.5 0-5.3-47.5 37-47.5 37-116.1-66.9-225.2-282-225.2-282l-52.8 39.2c-89.7-133.7-82.7-358.9-82.7-358.9l-52.6 47.5C304.1 836.9 427 585.3 427 585.3l-54.5 7c27.1-287.6 292-260.4 292-260.4L561 259.6c82.7-59.8 246.5 38.7 246.5 38.7L789 217.6l134.4 45.6L960 217l36.6 46.2 134.4-45.6-18.4 80.8s163.9-98.5 246.6-38.7L1255.7 332s264.9-27.3 292 260.3z" id="Layer_4"/>
    <path class="st0" d="M1067.5 937l9.3 130.8H844.2l9.1-130.8c-140.8 0-188.9 109.8-188.9 109.8C534 914.8 594.8 676 594.8 676s-96.1-78.3-26.7-182.5c69.9-105 233.3-8.8 233.3-8.8s25.7-70 159.1-70 159.1 70 159.1 70 163.4-96.2 233.4 8.8c69.3 104.2-26.7 182.5-26.7 182.5s60.8 238.8-69.6 370.8c-.5-.8-48.9-109.8-189.2-109.8z" id="Layer_5"/>
    <path class="st0" d="M960.5 1191.6v152.3h-.5c-129.2 48-228.2-63-228.2-63-102-89.3-67.4-234-67.4-234S712.4 937 853.3 937l-9.1 130.8 116.3 123.8zm296.1-144.8c-.4-.8-48.8-109.8-189-109.8l9.3 130.8-116.3 123.8v152.3h.5c129.2 48 228.2-63 228.2-63 101.9-89.3 67.3-234.1 67.3-234.1z" id="Layer_6"/>
    <path class="st0" d="M1076.8 1067.8l-116.3 123.8-116.3-123.8z" id="Layer_7"/>
    <g id="STROKES">
        <g id="XMLID_1_">
            <path class="st1" d="M960.5 1343.9h.5c129.2 48 228.2-63 228.2-63 102-89.3 67.4-234 67.4-234 130.4-132 69.6-370.8 69.6-370.8s96.1-78.3 26.7-182.5c-69.9-105-233.4-8.8-233.4-8.8s-25.7-70-159.1-70-159.1 70-159.1 70-163.4-96.2-233.3 8.8C498.7 597.7 594.8 676 594.8 676s-60.8 238.8 69.6 370.8c0 0-34.6 144.8 67.4 234 0 0 99 111 228.2 63h.5z"/>
            <path class="st1" d="M844.2 1067.8l9.1-130.8 13.4-193.7"/>
            <path class="st1" d="M664.4 732.6s104.7-88.6 202.3 10.7"/>
            <path class="st1" d="M960 217l-36.6 46.2L789 217.6l18.4 80.8s-163.9-98.5-246.5-38.7L664.4 332s-264.9-27.3-292 260.4l54.5-7S304.1 837 397.1 1025.2l52.6-47.5s-7 225.2 82.7 358.9l52.8-39.2s109.1 215.1 225.2 282c0 0 47.5-42.2 47.5-37 0 5.2 99.5 145.9 102.1 149.5"/>
            <path class="st1" d="M960 217v-.1h.1z"/>
            <path class="st1" d="M960 1691.8c2.5-3.6 102.1-144.3 102.1-149.5 0-5.3 47.5 37 47.5 37 116.1-66.9 225.2-282 225.2-282l52.8 39.2c89.7-133.7 82.7-358.9 82.7-358.9l52.6 47.5c93.1-188.2-29.8-439.8-29.8-439.8l54.5 7c-27.1-287.6-292-260.4-292-260.4l103.5-72.3c-82.7-59.8-246.6 38.7-246.6 38.7l18.4-80.8-134.4 45.6L960 217"/>
            <path class="st1" d="M960 1691.8c.1.1.1.1 0 0 0 .1 0 .1 0 0z"/>
            <path class="st1" d="M1076.8 1067.8l-9.3-130.8-13.7-193.7"/>
            <path class="st1" d="M1256.1 732.6s-104.7-88.6-202.3 10.7"/>
            <path class="st1" d="M752.5 802.9h1.8"/>
            <path class="st1" d="M1165.7 802.9h1.8"/>
            <path class="st1" d="M960.5 1191.6l116.3-123.8H844.2z"/>
            <path class="st1" d="M960.5 1191.6v152.3"/>
            <path class="st1" d="M664.4 1046.8S712.4 937 853.3 937"/>
            <path class="st1" d="M1256.6 1046.8c-.4-.9-48.8-109.8-189-109.8"/>
        </g>
    </g>
</svg>
