<svg xmlns="http://www.w3.org/2000/svg" viewBox="0 0 1920 1920">
    <style>
        .st0{fill:#fff}.st1{fill:none;stroke:#231f20;stroke-width:50;stroke-linecap:round;stroke-linejoin:round;stroke-miterlimit:10}
    </style>
    <path class="st0" d="M1195.1 1099.2v540.7c0 34.7-28.4 63.2-63.2 63.2H788c-34.7 0-63.2-28.4-63.2-63.2v-540.7h470.3zM1132 935.5H788c-34.7 0-63.2 28.4-63.2 63.2v100.6h470.3V998.6c0-34.7-28.4-63.1-63.1-63.1z"/>
    <path class="st0" d="M1127.7 537.4v398.1H792.3V537.4h302.2z"/>
    <path class="st0" d="M1094.5 446.6v90.8h-269V256.3c0-21.7 17.6-39.3 39.4-39.3 63.2 0 120.6 25.8 162.2 67.5 41.6 41.5 67.4 99 67.4 162.1z"/>
    <g id="STROKES">
        <path class="st1" d="M792.3 935.5H788c-34.7 0-63.2 28.4-63.2 63.2V1640c0 34.7 28.4 63.2 63.2 63.2h344c34.7 0 63.2-28.4 63.2-63.2V998.6c0-34.7-28.4-63.2-63.2-63.2h-4.3"/>
        <path class="st1" d="M1127.7 935.5V537.4H792.3v398.1z"/>
        <path class="st1" d="M825.5 537.4V256.3c0-21.7 17.6-39.3 39.4-39.3 63.2 0 120.6 25.8 162.2 67.5 41.6 41.6 67.5 99.1 67.5 162.2v90.8"/>
        <path class="st1" d="M724.9 1099.2h470.2"/>
    </g>
</svg>
