<svg xmlns="http://www.w3.org/2000/svg" viewBox="0 0 1920 1920">
    <style>
        .st0{fill:#fff}.st1{fill:none;stroke:#231f20;stroke-width:50;stroke-linecap:round;stroke-linejoin:round;stroke-miterlimit:10}
    </style>
    <path class="st0" d="M807.2 1322.4h305.7v380.7H807.2z" id="Layer_5"/>
    <path class="st0" d="M1112.8 718.2v604.2H807.2V718.2h272.1z" id="Layer_6"/>
    <g id="Layer_2">
        <path class="st0" d="M1079.3 296.1v422H840.7V425.9c.2 29.8 10.1 54.3 30 67.6 43.7 29.3 119.1-6.6 168.4-80.2 26.5-39.5 40.1-81.9 40.2-117.2zm-198.4 11.2c-26.4 39.4-40 81.6-40.2 116.8v1.8c.2 29.8 10.1 54.3 30 67.6 43.7 29.3 119.1-6.6 168.4-80.2 26.5-39.6 40.1-82 40.2-117.2.1-30.3-9.8-55.4-30-69-43.7-29.2-119.1 6.7-168.4 80.2z" id="Layer_1"/>
    </g>
    <g id="STROKES">
        <path class="st1" d="M807.2 1322.4V718.2h305.6v604.2"/>
        <path class="st1" d="M807.2 1322.4h305.7v380.7H807.2z"/>
        <path class="st1" d="M1079.3 296.1c-.1 35.3-13.7 77.7-40.2 117.2-49.3 73.6-124.7 109.5-168.4 80.2-19.9-13.3-29.8-37.9-30-67.6v-1.8c.2-35.2 13.8-77.4 40.2-116.8 49.3-73.6 124.7-109.5 168.4-80.2 20.2 13.6 30 38.7 30 69z"/>
        <path class="st1" d="M840.7 423.2v295"/>
        <path class="st1" d="M1079.3 296.1v422.1"/>
    </g>
</svg>
