<svg xmlns="http://www.w3.org/2000/svg" viewBox="0 0 1920 1920">
    <style>
        .st0{fill:#fff}.st1{fill:none;stroke:#231f20;stroke-width:50;stroke-linecap:round;stroke-linejoin:round;stroke-miterlimit:10}
    </style>
    <path class="st0" d="M1614.7 1308.8c-30.5-32.9-44.1-90.2-49.7-122.6 8.7-.1 21-4.4 34.9-21.9 11.4-14.4 25.4-64.6 25.4-126.6 0-73.3-19.5-163.1-85.7-230.1-9.5-9.6-19.9-18.7-31.3-27.2-159.4-118.5-323.1-64.9-323.1-64.9-142.5-31-393.7 0-393.7 0-2.8-7.8-6.6-13.7-11-18.1-17.7-17.9-44-11.5-44-11.5 3.4-9.7 4.8-18.5 4.8-26.3 0-19.2-8.6-33-17.8-42.1-10.5-10.4-21.5-14.8-21.5-14.8 7.6-22.3 10.4-42.1 10.4-59.3 0-50.4-24.7-77.8-26.2-79.4l-.1-.1v-3.8c0-78.4-44.2-132.2-66-153.8-2.2-2.2-4.2-4.1-5.9-5.7 30.6-21 73.8-54.6 73.8-76.3 0-2.6-.6-5-2-7.3-18.4-30.6-136.9 41-136.9 41s-38.6-36.3-85.4-14c0 0-70-3.1-54.3 58.1l-110.7 57.8 9.8 25.6s-31.9 31.3 9.9 40.2c0 0-1.8 35.6 50.7 28.5 30-4.1 68.7-.3 96.4 3.7 0 0-22.4 26.5-22.4 62 0 20.6 7.5 44.2 31.1 67.5 2.5 2.4 5.1 4.8 7.9 7.2 0 0-23.6 26.7-23.6 60.9 0 11.2 2.5 23.3 9.3 35.5 0 0-9.8 41.2-9.8 86.7 0 33.7 5.4 69.7 24 93 0 0-5.8 11.8-5.8 28.5 0 15 4.6 34 22.3 52.1 2.9 2.9 6.1 5.9 9.8 8.7 0 0-1 8.4-1 22.2 0 38.5 8 119 68.6 179.2 31.8 31.5 77.9 57.4 145 68.6 0 0 4.9 29.1 26.8 54.9-13.6 54.8-33.7 165.5 9 220.1 0 0 1.8 1.2 5.1 2.7v74.9s-49 0-51.6 39.4c0 0 29 31.1 100.2 8.1l3.5-125.9v-1.7c.2.4.4.9.6 1.3 2.4 4.7 5.1 8.6 8.2 11.8 1.4 1.4 2.9 2.7 4.5 3.7 3.8 2.5 7.5 4.7 11 6.4l3.1 92.8s-16.1 2.3-31 11.6c-12.9 8.1-25 21.5-25 43.5 0 0 66.5 30.6 118.1-4.4l-10.1-155.7c5.6-9.6 9.3-22.8 10.6-39.1 4.1-50.4 56.6-138.5 56.6-172.7 0-2.2-.2-4.2-.7-5.9-5.8-21.6-15.4-30.6-15.4-49 0-2.6.2-5.4.6-8.4 62.2 9 180.8 3.7 314.5-117.7 11.4 25.7 26.1 46.4 38.5 59 3.8 3.9 7.4 7 10.6 9.2 5.2 3.6 9.4 7.1 12.9 10.7 21.4 21.9 15.8 46.8 28.2 112.6 7.7 40.7 20.7 63.6 36.2 79.2 13.7 13.8 29.3 22 44.9 31.9 3 1.9 5.6 4 7.9 6.3 9.7 9.9 12.4 22.7 12.4 34.1 0 14.9-4.7 27.4-4.7 27.4s-1.2 11.1-1.2 26c0 7.7.3 16.5 1.3 25.4l-49.1 105.8s-65.6 2.9-73.5 37.8c0 0 21.9 17.1 63 17.1s57.7-26 57.7-26l36.1-80.4c4 .4 8.5 0 13.4-1.2 53.1-13.5 67.6-98.5 80-140.1 32.6-25.7 84.3-99.6 40.6-146.7z" id="Layer_11"/>
    <g id="STROKES">
        <path class="st1" d="M409.4 302l-110.7 57.8 9.8 25.6s-31.9 31.3 9.9 40.2c0 0-1.8 35.6 50.7 28.5s132 9.8 132 9.8 42.1-3.5 35.1-43.3c0 0 42.1-39.8 29.3-66.7l18.7-33.9S704.7 248 686 217c-18.4-30.6-136.9 41-136.9 41s-38.6-36.3-85.4-14c.1-.1-69.9-3.2-54.3 58z"/>
        <path class="st1" d="M924.4 1064.6c3.9 9.9 33.4 126 23.5 161.1-9.9 35.1 4.4 41.6 12.1 70.1s-51.5 124.9-55.9 178.6c-1.3 16.3-5 29.5-10.6 39.1"/>
        <path class="st1" d="M838.5 1525.7c-3.6-1.8-7.3-3.9-11-6.4-5-3.4-9.2-8.7-12.7-15.5-.2-.4-.4-.9-.7-1.3-25-51.8-10.8-182.6-10.8-182.6-25.3-6.7-43.1-20.3-55.4-34.9-21.8-25.8-26.8-54.9-26.8-54.9-241.1-40.5-212.6-270-212.6-270-50.4-40-26.3-89.3-26.3-89.3C438.5 815.9 468 691 468 691c-27.4-49.3 14.2-96.4 14.2-96.4-76.7-65.7-16.6-136.8-16.6-136.8"/>
        <path class="st1" d="M1288.9 914.9c-101.1 113.7-16.7 248.5 20 274s26.7 46.7 41.1 123.3c14.4 76.7 47.8 90 81.1 111.1 33.3 21.1 15.6 67.8 15.6 67.8s-2.8 25.5.1 51.4"/>
        <path class="st1" d="M614.2 300.5c18.3 16.7 73.5 74.6 71.9 163.4 0 0 46.4 48.4 15.9 138.7 0 0 55.5 22.6 34.4 83.2 0 0 40.9-9.9 55 29.6 0 0 251.2-31 393.7 0 0 0 163.7-53.6 323.1 64.9 159.5 118.5 118.5 349.9 91.7 383.8-13.8 17.5-26.2 21.8-34.9 21.9-8.2.1-13.1-3.6-13.1-3.6s-51.9 48.5-35.3 90.7c16.7 42.2 77.8 136.6 63.3 166.6-14.4 30-24.4 140-85.5 155.5-4.9 1.3-9.4 1.6-13.4 1.2"/>
        <path class="st1" d="M945.2 1238.4c62.2 9 180.8 3.7 314.5-117.7"/>
        <path class="st1" d="M1565 1186.1c5.5 32.4 19.2 89.7 49.7 122.6 44.2 47.7-8.2 122.1-40.3 146.8"/>
        <path class="st1" d="M747.9 1284.9c-13.6 54.8-33.7 165.5 9 220.1 0 0 26.9 18.3 57.9-1.2"/>
        <path class="st1" d="M544.4 825.8s-8.4-33.8 40.5-49c0 0-25.3-37.2 0-45.6"/>
        <path class="st1" d="M903.6 1669.2c-51.6 35-118.1 4.4-118.1 4.4 0-21.9 12-35.3 25-43.5 14.9-9.4 31-11.6 31-11.6l-3.1-92.8c24.5 12.2 43.7 7 55-12.3l10.2 155.8z"/>
        <path class="st1" d="M1481 1596.7l-36.1 80.4s-16.6 26-57.7 26-63-17.1-63-17.1c7.9-34.8 73.5-37.8 73.5-37.8l49.1-105.8c2.9 25.9 11.5 52.1 34.2 54.3z"/>
        <path class="st1" d="M762 1507.7v75s-49 0-51.6 39.3c0 0 29 31.1 100.2 8.1l3.5-125.9v-1.7"/>
        <path class="st1" d="M454.6 333.4s10.1-12.7 33.5-4.1c0 0-15.7 6.6-33.5 4.1z"/>
        <path class="st1" d="M602.3 592.3c-4-7.1-2.8-16.8 2.8-22.8 5.6-5.9 15.3-7.6 22.6-4"/>
        <path class="st1" d="M859.2 898.9c10.6 14.4 16.2 32.3 15.8 50.1"/>
        <path class="st1" d="M1149 911c-12.6 2-18.5 20.4-9.5 29.4-5.5-.4-11.3-.8-16 2s-7.3 9.8-3.6 13.8"/>
    </g>
</svg>
