<svg xmlns="http://www.w3.org/2000/svg" viewBox="0 0 1920 1920">
    <style>
        .st0{fill:#fff}.st1{fill:none;stroke:#231f20;stroke-width:50;stroke-linecap:round;stroke-linejoin:round;stroke-miterlimit:10}
    </style>
    <path class="st0" d="M942.1 1703.1H1703c0-96.8-32.5-144.3-52.8-164.5-9.2-9.2-16-12.8-16-12.8 9.4-23.4 13.2-47.2 13.2-70.5 0-105.6-79.4-200.6-81.8-203.6 2.8-15 4.1-29.5 4.1-43.4 0-92.2-54.8-156.7-58.2-160.7l-.1-.1-.1-.1c2.4-5.6 3.5-10.5 3.5-15 0-8.2-3.5-14.6-8.5-19.6-11.8-11.8-31.7-15.5-31.7-15.5 11.2-13.6 15.5-27.4 15.5-40.5 0-28.8-20.7-54.4-34.3-68-6.6-6.7-11.6-10.5-11.6-10.5 3.7-11.3 5.3-21.5 5.3-30.8 0-23.5-10.2-40.9-22.5-53.3-18.6-18.7-41.8-26-41.8-26 20-1.9 38.7-4.5 56.2-7.8-49-40.1-269.3-47.7-269.3-47.7 1.4-4.1 13.8-34.4 57.8-28.9s257.4-29.9 312.3-74.8c-112.3 15.3-269.6 15.6-313.4-18.1-62.2-47.9-288.9-67-288.9-67-199.5 23.9-293 133.4-293 133.4s-249.2 51.3-318.6 141.9c0 0-66.8 2.1-66.8 69.6 0 13.7 2.8 30.1 9.4 49.7 0 0-22 26.4-22 58.8 0 12.6 3.3 26.1 12.7 39.3.8 1.2 1.7 2.2 2.7 3.2 6.2 6 16 9 28.1 9.6-.2 2.3-.3 4.7-.3 7.1 0 13.1 3.5 27.2 14.8 38.3 7.2 7.1 17.7 13 32.6 16.6 74.7 18.1 141-37.4 141-37.4s94 60.3 232.6 65.1c0 0 .1.1.2.3.1 0 .1.1.2.2l.2.2c5.3 5.4 45.4 41 168.1 19.8 0 0 29.3 5.7 47.6 24 8.3 8.3 14.4 19.3 14.4 33.6 0 2.4-.2 4.9-.5 7.5 0 0-34.9 25.1-34.9 77.3 0 8.8 1 18.4 3.3 28.8 0 0-30.6 22.3-30.6 76.6 0 7.4.6 15.4 1.9 24 4.4 29.2 15.2 47.4 26.6 58.7 16.6 16.6 34.3 18.5 34.3 18.5s-37.7 22.2-37.7 69.9c0 8.3 1.1 17.3 3.8 27.1 6 22.3 15.3 37.1 25 47 19.1 19.5 39.7 19.5 39.7 19.5s-32.6 7-32.6 51zM831.2 796.5c-40.8 7.7-81-33.3-100.4-55.3 13.4-9.9 31.9-20 50.9-19 24.2 1.3 60.2 18.4 99.4 23.4-6.4 21-20.1 45.2-49.9 50.9z" id="Layer_7"/>
    <path class="st0" d="M781.7 722.1c-19-1-37.5 9.1-50.9 19 19.4 22 59.7 63 100.4 55.3 29.8-5.7 43.5-29.8 49.8-50.9-39.1-5-75.2-22.1-99.3-23.4z" id="Layer_8"/>
    <path class="st0" d="M1648.6 582.8c-9.7 5.2-24.5 10.1-42.7 14.5-18.2 4.4-40 8.3-63.7 11.5-54.9 44.9-268.3 80.2-312.3 74.8-44-5.5-56.4 24.8-57.8 28.9 0 0 220.4 7.6 269.3 47.7 159.3-29.5 215.4-110 232.7-150.2 19.2-44.7-25.5-27.2-25.5-27.2z" id="Layer_9"/>
    <g id="STROKES">
        <path class="st1" d="M494.8 967.1s-200.1 96.4-233.3 49.4c-33.2-47 9.4-98.1 9.4-98.1-39.3-116.3 57.4-119.3 57.4-119.3 69.5-90.6 318.6-142 318.6-142s93.5-109.4 293-133.4c0 0 226.7 19.2 288.9 67s354.3 27.1 419.8-8c0 0 44.7-17.6 25.5 27.1s-86.2 138.9-288.9 158c0 0 86.2 27.1 59.1 110.1 0 0 78.2 61 30.3 119.1 0 0 54.3 10.2 36.7 50.1 0 0 76.6 86.2 54.3 204.3 0 0 121.3 142.8 68.6 274.1 0 0 68.8 36.6 68.8 177.3"/>
        <path class="st1" d="M292.3 1029.3c-2.1 23 4.8 51.7 47 61.9 74.7 18.1 141-37.4 141-37.4s94 60.3 232.6 65.1c0 0 36.2 43.4 168.8 20.5 0 0 68.7 13.3 61.5 65.1 0 0-47.8 34.3-31.6 106.1 0 0-39.5 28.7-28.7 100.6 10.8 71.8 60.9 77.2 60.9 77.2s-51.9 30.5-33.9 97c18 66.4 64.6 66.4 64.6 66.4s-32.3 7.2-32.3 51.2"/>
        <path class="st1" d="M1385.2 768c-199.5-33.5-229.8 35.1-229.8 35.1"/>
        <path class="st1" d="M1542.2 608.9c-54.9 44.9-268.3 80.2-312.3 74.7s-56.4 24.8-57.8 28.9c0 0 220.4 7.6 269.3 47.7"/>
        <path class="st1" d="M710.8 758.8s34.7-38.5 70.9-36.6c36.2 1.9 99.1 39.4 159.1 18.3"/>
        <path class="st1" d="M730.8 741.1c19.4 22 59.7 63 100.5 55.3 29.8-5.7 43.5-29.8 49.8-50.9"/>
        <path class="st1" d="M333.7 901s39.1-10.9 48.3-29.3l-48.3-3.5s-10.4 17.2 0 32.8z"/>
    </g>
</svg>
