<svg xmlns="http://www.w3.org/2000/svg" viewBox="0 0 1920 1920">
    <style>
        .st0{fill:#fff}.st1{fill:none;stroke:#231f20;stroke-width:50;stroke-linecap:round;stroke-linejoin:round;stroke-miterlimit:10}
    </style>
    <path class="st0" d="M1253.4 942.6c-18-18-32.6-24.3-32.6-24.3l6.1-8.4c-9.4-4-18.5-9.9-27.1-16.8-17.7-14.3-33-33.1-43.9-48.2-10.9-15.2-17.4-26.7-17.4-26.7 25.8-55.5 103.5-18.8 115.8-12.5 1.1.6 1.7.9 1.7.9 11.5-11.8 18.6-27.8 18.6-45.6 0-8.8-1.8-17.3-5-25 92-84.1 120-207.8 120-310.9 0-83.4-18.4-153.4-36.1-177.9-4.2-5.8-8.3-10.6-12.2-14.5-35.1-35.1-58-.2-58-.2-11.9 160.3-75.8 275.9-124.3 342.2.9-4.3 1.4-8.8 1.4-13.4 0-18-7.3-34.3-19.1-46.1-11.8-11.8-28.1-19.1-46.2-19.1-16.9 0-32.3 6.4-43.9 17-4.7-16-13.2-30.3-24.7-41.8-17.8-17.9-42.5-29.1-69.8-29.1-44.8 0-82.6 29.9-94.5 70.9-11.6-10.5-27-17-43.9-17-36 0-65.3 29.2-65.3 65.3 0 3.4.3 6.8.8 10.1C706 502.3 641.5 383 630.3 232.4c0 0-28.3-43.1-70.2 14.8-39 53.9-75.7 339.8 82 493.9-2 6.2-3.1 12.9-3.1 19.8 0 17.8 7.1 33.8 18.6 45.6 0 0 .6-.3 1.7-.9 12.4-6.3 90.1-42.9 115.8 12.5 0 0-25.9 46.3-61.3 75-8.5 6.9-17.7 12.8-27.1 16.8l6.1 8.4s-56.5 24.8-84.5 113.8c-24.3 77.5-25.9 145.8-25.9 268.8V1703H1331v-402.1c0-123-1.6-191.3-25.9-268.8-13.6-43.8-34.2-72.1-51.7-89.5zm-212.8 83.6c1.5 4.7 2.3 9.5 2.3 14.5 0 35-38.5 63.4-86 63.4s-86-28.4-86-63.4c0-5 .8-9.8 2.2-14.5-9.4-6.9-14.7-15.4-14.7-22.9 0-16.5 3.2-74.1 79.2-74.1h19.3c0-37.4-32.3-61.9-32.3-61.9s-32.3 26.9-32.3-25.1 64.7-49.4 64.7-49.4 64.6-2.6 64.6 49.4-32.3 25.1-32.3 25.1-32.3 24.5-32.3 61.9h19.3c76 0 79.2 57.5 79.2 74.1-.2 7.5-5.5 16-14.9 22.9z" id="Layer_2"/>
    <path class="st0" d="M1055.3 1003.3c0-16.5-3.1-74.1-79.2-74.1h-19.3v-.2.2h-19.3c-76 0-79.2 57.5-79.2 74.1 0 7.5 5.4 16 14.7 22.9-1.5 4.7-2.2 9.5-2.2 14.5 0 35 38.5 63.4 86 63.4s86-28.4 86-63.4c0-5-.8-9.8-2.3-14.5 9.5-6.9 14.8-15.4 14.8-22.9z" id="Layer_4"/>
    <path class="st0" d="M956.9 792.8s-64.7-2.6-64.7 49.4 32.3 25.1 32.3 25.1 32.2 24.4 32.3 61.7c.1-37.3 32.3-61.7 32.3-61.7s32.3 26.9 32.3-25.1c.1-52-64.5-49.4-64.5-49.4z" id="Layer_5"/>
    <path class="st0" d="M659.3 805.6c.5 21.2 7.7 63.6 54.5 87.5 35.4-28.7 61.3-75 61.3-75-25.7-55.5-103.4-18.8-115.8-12.5zm479.2 12.5s6.5 11.6 17.4 26.7c10.9 15.2 26.2 33.9 43.9 48.2 46.9-23.9 54.1-66.3 54.5-87.5-12.3-6.2-90-42.9-115.8 12.6z" id="Layer_6"/>
    <g id="STROKES">
        <path class="st1" d="M644 735.9c-166.4-152.3-123.5-434-83.9-488.7 41.9-57.9 70.2-14.8 70.2-14.8 11.9 160.3 75.8 275.9 124.3 342.2"/>
        <path class="st1" d="M588.1 369.7c21.1 48.8 31.7 118.6 19.7 173.1-19.7 89.5 85.1 153.8 85.1 153.8"/>
        <path class="st1" d="M659.3 805.6c.5 21.2 7.7 63.6 54.5 87.5"/>
        <path class="st1" d="M692.9 918.3s-56.5 24.8-84.5 113.8-25.9 165.9-25.9 327.6V1703"/>
        <path class="st1" d="M657.7 806.5l-80.3-27.4"/>
        <path class="st1" d="M1205.6 939.4l21.3-29.5c-48.4-20.4-88.4-91.8-88.4-91.8 28-60.3 117.5-11.7 117.5-11.7 11.5-11.8 18.6-27.9 18.6-45.6 0-32.1-23.2-58.8-53.8-64.2 3.1-7.7 4.9-16 4.9-24.8 0-36-29.2-65.3-65.3-65.3-8 0-15.7 1.5-22.8 4.1 14-12 22.8-29.7 22.8-49.6 0-36-29.2-65.3-65.3-65.3-16.9 0-32.3 6.4-43.9 17-11.9-40.9-49.7-70.9-94.5-70.9s-82.6 29.9-94.5 70.9c-11.6-10.5-27-17-43.9-17-36 0-65.3 29.2-65.3 65.3 0 19.8 8.9 37.6 22.8 49.6-7.1-2.7-14.8-4.1-22.8-4.1-36 0-65.3 29.2-65.3 65.3 0 8.8 1.7 17.2 4.9 24.8-30.6 5.4-53.8 32.1-53.8 64.2 0 17.7 7.1 33.8 18.6 45.6 0 0 89.5-48.7 117.5 11.7 0 0-39.9 71.4-88.4 91.8l21.3 29.5"/>
        <path class="st1" d="M1159.1 574.6c48.5-66.3 112.4-181.9 124.3-342.2 0 0 28.3-43.1 70.2 14.8 39.6 54.7 82.5 336.5-83.9 488.7"/>
        <path class="st1" d="M1325.6 369.7c-21.1 48.8-31.7 118.6-19.7 173.1 19.7 89.5-85.1 153.8-85.1 153.8"/>
        <path class="st1" d="M1055.3 1003.3c0 7.5-5.4 16-14.7 22.9-11.1 8.3-28 14.5-48.1 14.5-34.4 0-35.6-27.8-35.6-31.9 0 4-1.2 31.9-35.6 31.9-20.2 0-37-6.2-48.1-14.5-9.3-7-14.7-15.4-14.7-22.9 0-16.5 3.1-74.1 79.2-74.1H957c0-37.4-32.3-61.9-32.3-61.9s-32.3 26.9-32.3-25.1 64.7-49.4 64.7-49.4 64.6-2.6 64.6 49.4-32.3 25.1-32.3 25.1-32.3 24.5-32.3 61.9h19.3c75.8 0 78.9 57.5 78.9 74.1z"/>
        <path class="st1" d="M956.8 1008.3v.5c.1-.3.1-.5 0-.5"/>
        <path class="st1" d="M1199.8 893.1c46.9-23.9 54.1-66.4 54.5-87.5"/>
        <path class="st1" d="M1220.8 918.3s56.5 24.8 84.5 113.8 25.9 165.9 25.9 327.6V1703"/>
        <path class="st1" d="M1256 806.5l80.3-27.4"/>
        <path class="st1" d="M1042.9 1040.7c0 35-38.5 63.4-86 63.4s-86-28.4-86-63.4c0-5 .8-9.8 2.2-14.5 11.1 8.3 28 14.5 48.1 14.5 34.4 0 35.6-27.9 35.6-31.9 0 4 1.2 31.9 35.6 31.9 20.2 0 37-6.2 48.1-14.5 1.6 4.7 2.4 9.5 2.4 14.5z"/>
        <path class="st1" d="M844.7 1296s11.5 53.1 109.4 53.1S1059 1296 1059 1296"/>
    </g>
</svg>
