<svg xmlns="http://www.w3.org/2000/svg" viewBox="0 0 1920 1920">
    <style>
        .st0{fill:#fff}.st1{fill:#f44336}.st2{fill:none;stroke:#231f20;stroke-width:50;stroke-linecap:round;stroke-linejoin:round;stroke-miterlimit:10}
    </style>
    <path class="st0" d="M1650.3 1227c31.6-9.1 52.8-16 52.8-13.9-201.8 345.2-447.9 52-447.9 52s125.5-220.9 395.1-38.1zM1206 951.3l-48-21.7v214.8l172.1-10.9-23-20.5c-16-14.3-6.6-40.9 14.9-41.8l137.8-6.2-175.4-78.5-78.4-35.2zm-48.1 193.1V929.6c-88.1-60.9-195.8-72.2-269.9-71.1 0 0 67.9 125-20.2 249.9 39.2 16.9 73.6 29.1 103.5 37.6 48.4 13.8 85.3 18.1 113 17.8 54.8-.6 73.6-19.4 73.6-19.4zm-309-44.4c6.4 2.9 12.7 5.7 18.9 8.3C956 983.4 888 858.5 888 858.5c-52.4.8-88 7.8-88 7.8-20.3-3.4-40.3-5.4-59.7-6.1 0 0 52.5 78.6 3.4 190.4 34.8 16.6 47.9 35.7 73.9 44.5 8.6 2.9 18.6 4.7 31.3 4.9zm-162.2-68c24.4 5.1 42.6 11.6 57 18.5 49.1-111.8-3.4-190.4-3.4-190.4-57.3-2.2-110 6.1-154.9 18.1 0 0 29.6 51.3 0 152.1 30.6-3.6 62-4.6 90.4-.3 3.7.6 7.3 1.3 10.9 2zm-248.2-91.8s2.6 62.4-7.3 127.4c0 0 74.4-27.8 154.2-37.3 29.6-100.9 0-152.1 0-152.1-89 23.7-146.9 62-146.9 62zm-167 127.4s18 96.3 54.4 128.9c14.1 12.6 30.9 15.8 50.6.1 31.1-24.8 46.8-77.7 54.7-129 9.9-64.9 7.3-127.4 7.3-127.4l-167 127.4zm-54.6 102.3s33.4 102.2 109 26.7c-36.4-32.7-54.4-128.9-54.4-128.9l-54.6 102.2z" id="Layer_2"/>
    <g id="STROKES">
        <path class="st2" d="M438.5 940.2l-167 127.4s18 96.3 54.4 128.9c14.1 12.6 30.9 15.8 50.6.1 31.1-24.8 46.8-77.7 54.7-129 9.9-64.9 7.3-127.4 7.3-127.4z"/>
        <path class="st2" d="M585.4 1030.3c30.6-3.6 62-4.6 90.4-.3 3.7.6 7.3 1.2 10.9 2 24.4 5.1 42.6 11.6 57 18.5 34.8 16.6 47.9 35.7 73.9 44.5 8.6 2.9 18.6 4.8 31.3 5 6.4 2.9 12.7 5.7 18.9 8.3 39.2 16.9 73.6 29.1 103.5 37.6 48.4 13.8 85.3 18.1 113 17.8 54.7-.6 73.5-19.4 73.5-19.4V929.6c-88.1-60.9-195.8-72.2-269.9-71.1-52.4.8-88 7.8-88 7.8-20.3-3.4-40.3-5.4-59.7-6.1-57.3-2.2-110 6.1-154.9 18.1-89 23.8-146.9 62.1-146.9 62.1"/>
        <path class="st2" d="M431.2 1067.6s74.4-27.8 154.2-37.3"/>
        <path class="st2" d="M1157.9 929.6l48.1 21.7"/>
        <path class="st2" d="M1206 951.3l78.3 35 175.4 78.5-137.8 6.2c-21.5 1-30.9 27.5-14.9 41.8l23 20.5-172.1 10.9"/>
        <path class="st2" d="M1268.8 1020.1s3.5-16.7 15.4-33.7c13.3-18.8 36.9-38 77.9-35 77.9 5.6 106.8-134.2-36.6-186.2S950.4 858.5 538.7 744"/>
        <path class="st2" d="M271.5 1067.6l-54.6 102.3s33.4 102.2 109 26.7"/>
        <path class="st2" d="M1067.2 1100l17.2 63.8 29.8 110.9 141-9.6"/>
        <path class="st2" d="M1408.6 1248.6c59.6 26.8 174.4-2.3 241.7-21.6 31.6-9.1 52.8-16 52.8-13.9-201.8 345.2-447.9 52-447.9 52s125.5-220.8 395.1-38.1"/>
        <path class="st2" d="M549.6 1160.1l126.2-23v-162"/>
        <path class="st2" d="M691.4 1224l126.2-23.1V1039"/>
        <path class="st2" d="M845.2 1285.1l126.1-23.1v-162"/>
        <path class="st2" d="M585.4 878.2s29.6 51.3 0 152.1"/>
        <path class="st2" d="M740.3 860.1s52.5 78.6 3.4 190.4"/>
        <path class="st2" d="M888 858.5s67.9 125-20.2 249.9"/>
    </g>
</svg>
