<svg xmlns="http://www.w3.org/2000/svg" viewBox="0 0 1920 1920">
    <style>
        .st0{fill:#fff}.st1{fill:none;stroke:#231f20;stroke-width:50;stroke-linecap:round;stroke-linejoin:round;stroke-miterlimit:10}
    </style>
    <path class="st0" d="M1484 217s63.3 212.9-52.6 349.6c0 0-93.9-146.3-61.1-349.6 0 0-83.5 100.6-91 276.5-2.3 53.5 2.5 114 18.8 180.7 0 0-11.2 74.3-9.8 147.6L1182 897.4c-.2-28.5-2.3-53.9-5.6-76.4-15.4-104.3-57.4-146.9-57.4-146.9 1.5-62.2-45.5-89.7-87.3-101.9-33.2-9.6-63.1-9.6-63.1-9.6h-17.1s-29.9 0-63.1 9.6c-41.8 12.2-88.8 39.7-87.3 101.9 0 0-42 42.6-57.4 146.9-3.2 21.5-5.2 45.7-5.6 72.6L631.7 821c1.4-73-9.8-146.9-9.8-146.9 16.3-66.7 21.1-127.2 18.8-180.7-7.5-175.8-91-276.5-91-276.5 32.8 203.2-61.1 349.6-61.1 349.6C372.7 429.9 436 217 436 217c-159.6 58.9-142.1 323.8-142.1 323.8s57.4 295.8 207.8 395.1c15.7 10.4 32.5 18.6 50.2 24.2 34.5 10.7 54.9-8.9 66.4-42.2l127.9 91.1c.3 2 .6 4.1.9 6.2 10 65.3 28.9 141.2 60.8 229.1 18.2 50.2 40.7 104.3 68.2 162.4 0 0-302.2 211.6-135.4 288.4 0 0 98.5 41.8 125.8-32.5 26.4 25.8 61.6 40.2 97.9 40.2 7.3 0 14.6-.6 21.9-1.8.5-.1.9-.1 1.3-.2 21-3.6 40.4-13.6 55.6-28.5l9.9-9.7c27.3 74.3 125.8 32.5 125.8 32.5 166.8-76.8-135.3-288.4-135.3-288.4 27.5-58.2 50-112.2 68.2-162.4 31.9-87.9 50.9-163.8 60.8-229.1.3-1.9.6-3.8.8-5.7l129.2-88.2c11.7 31.2 31.9 49.2 65.2 38.9 17.8-5.5 34.5-13.8 50.2-24.2 150.4-99.4 207.8-395.1 207.8-395.1s17.9-265-141.8-323.9z" id="Layer_1"/>
    <g id="STROKES">
        <path class="st1" d="M1053.3 1662.5c27.3 74.3 125.8 32.5 125.8 32.5 166.8-76.8-135.3-288.4-135.3-288.4 27.5-58.2 50-112.2 68.2-162.4 31.9-87.9 50.9-163.8 60.8-229.1.3-1.9.6-3.8.8-5.7 6.1-41.7 8.5-78.9 8.3-112-.2-28.5-2.3-53.8-5.6-76.4-15.3-104.3-57.3-146.9-57.3-146.9 1.5-62.2-45.5-89.7-87.3-101.9-33.2-9.6-63.1-9.6-63.1-9.6h-17.1s-29.9 0-63.1 9.6c-41.8 12.2-88.8 39.7-87.3 101.9 0 0-42 42.6-57.4 146.9-3.2 21.5-5.2 45.7-5.6 72.6-.4 33.9 1.9 72.2 8.2 115.3.3 2 .6 4.1.9 6.2 10 65.3 28.9 141.2 60.8 229.1 18.2 50.2 40.7 104.3 68.2 162.4 0 0-302.2 211.6-135.4 288.4 0 0 98.5 41.8 125.8-32.5 26.4 25.8 61.6 40.2 97.9 40.2 7.3 0 14.6-.6 21.9-1.8.5-.1.9-.1 1.3-.2 21-3.6 40.4-13.6 55.7-28.5l9.9-9.7z"/>
        <path class="st1" d="M488.5 566.5c7.9 9.3 16.6 18.2 26.1 26.7l38.8 29.3 68.3 51.6s11.2 73.9 9.8 146.9c-.6 35.3-4.2 70.4-13.4 96.8-11.5 33.2-31.9 52.9-66.4 42.2-17.8-5.5-34.5-13.8-50.2-24.2-150.4-99.4-207.8-395.1-207.8-395.1S276.3 275.9 436 216.9c0 0-63.3 213 52.5 349.6z"/>
        <path class="st1" d="M488.5 566.5s93.9-146.3 61.1-349.6c0 0 83.5 100.7 91 276.5 2.3 53.5-2.5 114-18.8 180.7"/>
        <path class="st1" d="M1431.5 566.5c-7.9 9.3-16.6 18.2-26.1 26.7l-38.8 29.3-68.3 51.6s-11.2 74.3-9.8 147.6c.7 36.5 4.6 72.8 14.6 99.5 11.7 31.2 31.9 49.2 65.2 38.9 17.8-5.5 34.5-13.8 50.2-24.2 150.4-99.4 207.8-395.1 207.8-395.1S1643.8 276 1484.2 217c-.2-.1 63.1 212.9-52.7 349.5z"/>
        <path class="st1" d="M1431.5 566.5s-93.9-146.3-61.1-349.6c0 0-83.5 100.7-91 276.5-2.3 53.5 2.5 114 18.8 180.7"/>
        <path class="st1" d="M887.8 570.4s-140.3-135.8-247.1-76.9c-34.5 19-65.5 58.3-87.2 129.1-10.8 35.2-19.2 78.2-24.7 130.3-7.2 68.9-16.5 129.6-27.2 183C427 1306.3 281.7 1328 281.7 1328"/>
        <path class="st1" d="M1032.2 570.4s140.3-135.8 247.1-76.9c34.5 19 65.5 58.3 87.2 129.1 10.8 35.2 19.2 78.2 24.7 130.3 7.2 68.9 16.5 129.6 27.2 183 74.6 370.4 219.9 392.1 219.9 392.1"/>
        <path class="st1" d="M743.6 821s92.3 82.3 216.4 82.3 216.4-82.3 216.4-82.3"/>
        <path class="st1" d="M749.8 1014.7s86.2 77.1 210.2 77.1 210.2-77.1 210.2-77.1"/>
        <path class="st1" d="M808 1244.2c37.1 19.4 89.8 38.8 152 38.8s115-19.4 152-38.8"/>
        <path class="st1" d="M738 893.7L631.7 821"/>
        <path class="st1" d="M618.3 917.8l127.9 91.2.6.4"/>
        <path class="st1" d="M1302.9 921.1l-129.2 88.3"/>
        <path class="st1" d="M1182 897.4l106.3-75.7 1-.7"/>
        <path class="st1" d="M876.2 1406.7h167.6"/>
        <path class="st1" d="M866.7 1662.5l93.3-255.8 93.3 255.8"/>
        <path class="st1" d="M900.7 659h4.5"/>
        <path class="st1" d="M1014.8 659h4.5"/>
        <path class="st1" d="M797 342.8s129.6 58.6 129.6 219.8"/>
        <path class="st1" d="M1122.9 342.8s-129.6 58.6-129.6 219.8"/>
    </g>
</svg>
