<svg xmlns="http://www.w3.org/2000/svg" viewBox="0 0 1920 1920">
    <style>
        .st0{fill:#fff}.st1{fill:#f44336}.st2{fill:none;stroke:#231f20;stroke-width:50;stroke-linecap:round;stroke-linejoin:round;stroke-miterlimit:10}
    </style>
    <path class="st0" d="M1075.5 752.3v63.3h-231v-63.3c31.3 0 56.6-25.4 56.6-56.6 0-25.8-17.3-47.6-40.9-54.4 0 0 24.3-53.3 99.8-123.3 75.5 69.9 99.8 123.3 99.8 123.3-23.6 6.8-40.9 28.6-40.9 54.4 0 31.3 25.3 56.6 56.6 56.6zm32.5 702.1l-1.2-1.1c-78.4 81.2-215.3 81.2-293.7 0l-1.2 1.2-48 135.7c-13.2 37.2 6.5 78.5 43.7 91.7l1.9.7c32.6 11.5 68.3-2.1 85.5-30.7 11.9 23.2 36.1 39.2 63.9 39.2h2c27.8 0 52-16 63.9-39.2 17.2 28.6 52.9 42.3 85.5 30.7l1.9-.7c37.2-13.2 56.9-54.4 43.7-91.7l-47.9-135.8zm-145-67.2c-164.5 0-208.2-58.2-208.2-58.2l-.4.1c3.2 16.8 7.4 33 12.9 48.7 10.5 30.2 26.4 55.4 45.9 75.6 78.4 81.2 215.3 81.2 293.7 0 19.5-20.2 35.4-45.4 45.9-75.6 5.4-15.6 9.7-31.9 12.8-48.7l-.4-.1c0-.1-37.7 58.2-202.2 58.2zm206.5-224.9s-38.5 58.2-206.4 58.2-212.5-58.2-212.5-58.2c-6 56.7-6.2 114.1 3.9 166.7l.4-.1s43.7 58.2 208.2 58.2 202.2-58.2 202.2-58.2l.4.1c9.9-52.6 9.8-110 3.8-166.7zm-32.3-166.8l-.6.2s-32.4 58.2-174.1 58.2-179.3-58.2-179.3-58.2l-.6-.2c-13.7 51-26.1 108.5-32.2 166.8 0 0 44.6 58.2 212.5 58.2s206.4-58.2 206.4-58.2c-6-58.2-18.3-115.8-32.1-166.8zm-37.7-119.1c-13.8-37.8-23.9-60.8-23.9-60.8h-231s-10.2 23-23.9 60.8c-6.8 18.8-14.6 41.2-22.4 66.3-5.2 16.5-10.4 34.3-15.4 52.9l.6.2s37.6 58.2 179.3 58.2c141.6 0 174.1-58.2 174.1-58.2l.6-.2c-5-18.6-10.2-36.3-15.4-52.9-8.1-25.1-15.8-47.6-22.6-66.3zm224.9-36.7c-27.4-27.8-41.8-55.7-41.8-55.7s-67.4 106-183.1 92.4c6.8 18.8 14.6 41.2 22.4 66.3 115.9 12.5 202.5-103 202.5-103zm-728.8 0s86.5 115.5 202.5 103c7.8-25.1 15.6-47.5 22.4-66.3C704.8 890 637.4 784 637.4 784s-14.3 27.8-41.8 55.7zm687-55.8c1-3.1 65.7-213.7 201.4-193.8l1.2-217.2c-.1 0-159.5 128-202.6 411zm201.3-193.7c-135.7-20-200.4 190.6-201.4 193.8s14.4 27.9 41.8 55.7c43.2 43.8 118.7 87.4 221.3 21.4 320-205.7 52.9-488.2 52.9-488.2s22.1 237.4-114.6 217.3zm-1047.8 0C299.4 610.3 321.5 373 321.5 373S54.3 655.3 374.3 861.1c102.6 66 178.1 22.4 221.3-21.4 27.4-27.8 41.8-55.7 41.8-55.7-.9-3.2-65.7-213.8-201.3-193.8zm-1.2-217.3l1.2 217.2c135.7-20 200.4 190.6 201.4 193.8-43.2-283-202.6-411-202.6-411z" id="Layer_4"/>
    <path class="st0" d="M1075.5 639c31.3 0 56.6 25.4 56.6 56.6 0 31.3-25.4 56.6-56.6 56.6s-56.6-25.4-56.6-56.6c0-25.8 17.3-47.6 40.9-54.4 5-1.4 10.3-2.2 15.7-2.2zm-231 0c-31.3 0-56.6 25.4-56.6 56.6 0 31.3 25.4 56.6 56.6 56.6 31.3 0 56.6-25.4 56.6-56.6 0-25.8-17.3-47.6-40.9-54.4-5-1.4-10.3-2.2-15.7-2.2z" id="Layer_5"/>
    <g id="STROKES">
        <path class="st2" d="M860.2 641.2c23.6 6.8 40.9 28.6 40.9 54.4 0 31.3-25.4 56.6-56.6 56.6-31.3 0-56.6-25.4-56.6-56.6 0-31.3 25.4-56.6 56.6-56.6 5.4 0 10.7.8 15.7 2.2z"/>
        <path class="st2" d="M1059.8 641.2c5-1.5 10.3-2.2 15.7-2.2 31.3 0 56.6 25.4 56.6 56.6 0 31.3-25.4 56.6-56.6 56.6s-56.6-25.4-56.6-56.6c0-25.8 17.3-47.5 40.9-54.4z"/>
        <path class="st2" d="M1059.8 641.2s-24.3-53.3-99.8-123.3c-75.5 69.9-99.8 123.3-99.8 123.3"/>
        <path class="st2" d="M844.5 752.3v63.3h231v-63.3"/>
        <path class="st2" d="M773.2 229.1s11.3 316.4 116.2 361.1"/>
        <path class="st2" d="M1146.8 229.1s-11.3 316.4-116.2 361.1"/>
        <path class="st2" d="M1075.5 815.6s10.2 23 23.9 60.8c6.8 18.8 14.6 41.2 22.4 66.3 5.2 16.5 10.4 34.3 15.4 52.9 13.7 51 26.1 108.5 32.2 166.8 6 56.7 6.2 114.1-3.9 166.7-3.2 16.8-7.4 33-12.8 48.7-10.5 30.2-26.4 55.4-45.9 75.6-78.4 81.2-215.3 81.2-293.7 0-19.5-20.2-35.4-45.4-45.9-75.6-5.4-15.6-9.7-31.9-12.9-48.7-10.1-52.6-9.9-110-3.9-166.7 6.2-58.2 18.5-115.8 32.2-166.8 5-18.6 10.2-36.3 15.4-52.9 7.8-25.1 15.6-47.5 22.4-66.3 13.8-37.8 23.9-60.8 23.9-60.8"/>
        <path class="st2" d="M637.4 783.9c-1-3.2-65.7-213.8-201.4-193.8-136.7 20.1-114.6-217.2-114.6-217.2S54.3 655.3 374.3 861.1c102.6 66 178.1 22.4 221.3-21.4 27.5-27.9 41.8-55.8 41.8-55.8"/>
        <path class="st2" d="M436.1 590.2L434.9 373s159.4 128 202.6 411"/>
        <path class="st2" d="M770.3 1044.5H543.5l-79.1 105.8"/>
        <path class="st2" d="M746.1 1179.6H543.5l-79.1 105.8"/>
        <path class="st2" d="M752.5 1320.2h-209l-79.1 105.7"/>
        <path class="st2" d="M1149.7 1044.5h226.8l79.2 105.8"/>
        <path class="st2" d="M1173.9 1179.6h202.6l79.2 105.8"/>
        <path class="st2" d="M1167.5 1320.2h209l79.2 105.7"/>
        <path class="st2" d="M812 1454.4l-48 135.7c-13.2 37.2 6.5 78.5 43.7 91.7l1.9.7c32.6 11.5 68.3-2.1 85.5-30.7C907 1675 931.2 1691 959 1691h2c27.8 0 52-16 63.9-39.2 17.2 28.6 52.9 42.3 85.5 30.7l1.9-.7c37.2-13.2 56.9-54.4 43.7-91.7l-48-135.7"/>
        <path class="st2" d="M637.4 783.9s67.4 106 183.1 92.4"/>
        <path class="st2" d="M595.6 839.7s86.5 115.5 202.5 103c.2 0 .5 0 .8-.1"/>
        <path class="st2" d="M1282.6 783.9c1-3.2 65.7-213.8 201.4-193.8 136.7 20.1 114.6-217.2 114.6-217.2s267.1 282.4-52.9 488.2c-102.6 66-178.1 22.4-221.3-21.4-27.5-27.9-41.8-55.8-41.8-55.8"/>
        <path class="st2" d="M1483.9 590.2l1.2-217.2s-159.4 128-202.6 411"/>
        <path class="st2" d="M1282.6 783.9s-67.4 106-183.1 92.4"/>
        <path class="st2" d="M1324.4 839.7s-86.5 115.5-202.5 103c-.2 0-.5 0-.8-.1"/>
        <path class="st2" d="M783.3 995.7s37.6 58.2 179.3 58.2c141.6 0 174.1-58.2 174.1-58.2"/>
        <path class="st2" d="M750.5 1162.3s44.6 58.2 212.5 58.2 206.4-58.2 206.4-58.2"/>
        <path class="st2" d="M754.8 1328.9s43.7 58.2 208.2 58.2 202.2-58.2 202.2-58.2"/>
    </g>
</svg>
