<svg xmlns="http://www.w3.org/2000/svg" viewBox="0 0 1920 1920">
    <style>
        .st0{fill:#fff}.st1{fill:none;stroke:#231f20;stroke-width:50;stroke-linecap:round;stroke-linejoin:round;stroke-miterlimit:10}
    </style>
    <path class="st0" d="M1151.4 408.3V898h-118V419.1c0-39.5-32.9-72.4-73.4-72.4s-73.4 32.9-73.4 73.4V898h-118V408.3C768.6 302.6 854.3 217 960 217s191.4 85.6 191.4 191.3z" id="Layer_11"/>
    <path class="st0" d="M665.6 898h588.8v805H665.6z" id="Layer_12"/>
    <g id="STROKES">
        <path class="st1" d="M1151.4 408.3V898h-118V419.1c0-39.5-32.9-72.4-73.4-72.4s-73.4 32.9-73.4 73.4V898h-118V408.3C768.6 302.6 854.3 217 960 217s191.4 85.6 191.4 191.3z"/>
        <path class="st1" d="M665.6 898h588.8v805H665.6z"/>
        <path class="st1" d="M665.6 1059.9h121"/>
        <path class="st1" d="M665.6 1233.5h121"/>
        <path class="st1" d="M665.6 1407.1h121"/>
    </g>
</svg>
