<svg id="Layer_1" xmlns="http://www.w3.org/2000/svg" viewBox="0 0 1920 1920">
    <style>
        .st0{fill:#fff}.st1{fill:none;stroke:#231f20;stroke-width:50;stroke-linecap:round;stroke-linejoin:round;stroke-miterlimit:10}
    </style>
    <path class="st0" d="M1105.3 253c-93 248.3-455.6 286.9-455.6 286.9-.2-4.1-.2-8.2-.2-12.4C649.5 356 788.5 217 960 217c52.5-.1 102 13 145.3 36z" id="Layer_5_1_"/>
    <path class="st0" d="M649.7 539.9s362.6-38.6 455.6-286.9c38.9 20.6 72.9 49.3 99.8 83.8-163.7 339.4-520.4 334.5-520.4 334.5-20.7-39.5-33.1-84.1-35-131.4z" id="Layer_6_1_"/>
    <path class="st0" d="M684.7 671.3s356.7 4.9 520.4-334.5c30.5 39.2 51.8 85.9 60.8 136.8C1105.1 786 790.2 787.5 790.2 787.5c-44.3-29-80.8-69-105.5-116.2z" id="Layer_7_1_"/>
    <path class="st0" d="M1137.9 812.3c10.2 30.8-6.8 64.3-37.6 74.5l-7.6 2.5c-29.8 9.8-62.1-5.6-73.4-34.5-8.3 22.5-30 38.7-55.4 38.7h-8c-25.3 0-47.1-16.2-55.4-38.7-11.3 28.8-43.6 44.3-73.4 34.5l-7.6-2.5c-30.8-10.2-47.7-43.7-37.6-74.5l8.2-24.8s314.9-1.5 475.7-313.8c3.1 17.5 4.7 35.5 4.7 53.8 0 108.8-56 204.6-140.7 260l8.1 24.8z" id="Layer_8_1_"/>
    <path class="st1" d="M1265.9 473.6c-8.9-51-30.2-97.6-60.8-136.8-26.9-34.5-60.9-63.2-99.8-83.8-43.4-23-92.8-36.1-145.3-36.1-155.5 0-310.5 139-310.5 310.5 0 4.2.1 8.3.2 12.4 1.9 47.3 14.3 91.9 35 131.4 24.7 47.1 61.2 87.2 105.5 116.2l-8.2 24.8c-10.1 30.8 6.8 64.3 37.6 74.5l7.6 2.5c29.8 9.8 62-5.6 73.4-34.5 8.3 22.5 30 38.7 55.4 38.7h8c25.3 0 47.1-16.2 55.4-38.7 11.3 28.8 43.6 44.3 73.4 34.5l7.6-2.5c30.8-10.2 47.7-43.7 37.6-74.5l-8.2-24.8c84.7-55.5 140.7-151.2 140.7-260 0-18.4-1.5-36.3-4.6-53.8z"/>
    <path class="st1" d="M960 893.5v809.6"/>
    <path class="st1" d="M649.7 539.9s362.6-38.6 455.6-286.9"/>
    <path class="st1" d="M684.7 671.3s356.7 4.9 520.4-334.5"/>
    <path class="st1" d="M790.2 787.5s314.9-1.5 475.7-313.8"/>
</svg>
