<svg id="Layer_1" xmlns="http://www.w3.org/2000/svg" viewBox="0 0 1920 1920">
    <style>
        .st0{fill:#fff}.st1{fill:none;stroke:#231f20;stroke-width:50;stroke-linecap:round;stroke-linejoin:round;stroke-miterlimit:10}
    </style>
    <path class="st0" d="M1403.5 385.6v256.2H676v102.5h294l433.5 433.5v525.9h110.8V385.6h-110.8zm0 628.2L1134 744.3h269.5v269.5z"/>
    <path class="st0" d="M1187.4 398v243.8H575.2V398z" id="Layer_9"/>
    <path class="st0" d="M1458.9 216.3c45.6 0 82.5 36.9 82.5 82.5s-36.9 82.5-82.5 82.5-82.5-36.9-82.5-82.5 37-82.5 82.5-82.5z" id="Layer_10"/>
    <g id="STROKES">
        <g id="XMLID_2_">
            <path class="st1" d="M1403.5 1013.8V385.6h110.8v1318.1h-110.8v-525.9z"/>
            <path class="st1" d="M1187.4 641.8V398H575.2v243.8L378.6 766.4"/>
            <path class="st1" d="M575.2 641.8h828.3"/>
            <path class="st1" d="M1458.9 216.3c45.6 0 82.5 36.9 82.5 82.5s-36.9 82.5-82.5 82.5-82.5-36.9-82.5-82.5 37-82.5 82.5-82.5z"/>
            <path class="st1" d="M676 641.8v102.5h727.5"/>
            <path class="st1" d="M970 744.3l433.5 433.5"/>
            <path class="st1" d="M1134 744.3l269.5 269.5"/>
            <path class="st1" d="M694 503.3h186v57"/>
        </g>
    </g>
</svg>
