<svg id="Layer_1" xmlns="http://www.w3.org/2000/svg" viewBox="0 0 1920 1920">
    <style>
        .st0{fill:#fff}.st1{fill:none;stroke:#231f20;stroke-width:50;stroke-linecap:round;stroke-linejoin:round;stroke-miterlimit:10}
    </style>
    <path class="st0" d="M759.5 218.9c69.4 0 125.7 56.3 125.7 125.7v6.4H721.8v374l-96-1V219h133.7v-.1z" id="Layer_2"/>
    <path class="st0" d="M1279.7 489c134.9 0 244.2 109.3 244.2 244.2V966H396.1V489h229.6v235l96 1V489h558z" id="Layer_3"/>
    <path class="st0" d="M871.7 966h267v737h-267z" id="Layer_4"/>
    <g id="STROKES_1_">
        <g id="XMLID_1_">
            <path class="st1" d="M625.8 489H396.1v477h1127.7V733.1c0-134.8-109.3-244.2-244.2-244.2H721.8V725l-96.1-1 .1-235z"/>
            <path class="st1" d="M625.7 489v235l96 1V351h163.4v-6.4c0-69.4-56.3-125.7-125.7-125.7H625.7V489z"/>
            <path class="st1" d="M871.8 966v737.1"/>
            <path class="st1" d="M1138.8 966v737.1"/>
        </g>
    </g>
</svg>
