<svg xmlns="http://www.w3.org/2000/svg" viewBox="0 0 1920 1920">
    <style>
        .st0{fill:#fff}.st1{fill:none;stroke:#231f20;stroke-width:50;stroke-linecap:round;stroke-linejoin:round;stroke-miterlimit:10}
    </style>
    <path class="st0" d="M1358.8 616.3v901.1H561.2V616.3c0-220.3 178.6-398.8 398.8-398.8 110.1 0 209.8 44.6 282 116.8 72.2 72.1 116.8 171.8 116.8 282zM1245 1377.6V915.5H675v462.1h570zm0-588.1v-177c0-78.7-31.9-150-83.5-201.5-51.6-51.6-122.8-83.5-201.6-83.5-157.4 0-285 127.6-285 285v177H1245z" id="Layer_5"/>
    <path class="st0" d="M1245 915.5v462.1H675V915.5h570zm-83.4-504.6c-51.6-51.6-122.8-83.5-201.6-83.5-157.4 0-285 127.6-285 285v177h570v-177c0-78.6-31.9-149.9-83.4-201.5z" id="Layer_6"/>
    <path class="st0" d="M1257 1517.4v185.2h-107.3v-185.2H1257zm-594 0v185.2h107.3v-185.2H663z" id="Layer_7"/>
    <g id="STROKES">
        <g id="XMLID_2_">
            <path class="st1" d="M663 1517.4H561.2V616.3c0-220.3 178.6-398.8 398.8-398.8 110.1 0 209.8 44.6 282 116.8 72.2 72.2 116.8 171.9 116.8 282v901.1H663z"/>
            <path class="st1" d="M770.3 1517.4v185.2H663v-185.2"/>
            <path class="st1" d="M1257 1517.4v185.2h-107.3v-185.2"/>
            <path class="st1" d="M1245 612.5v177H675v-177c0-157.4 127.6-285 285-285 78.7 0 150 31.9 201.6 83.5 51.5 51.5 83.4 122.8 83.4 201.5z"/>
            <path class="st1" d="M675 915.5h570.1v462H675z"/>
            <path class="st1" d="M857.3 605.3v-63h205.4v60"/>
        </g>
    </g>
</svg>
