<svg xmlns="http://www.w3.org/2000/svg" viewBox="0 0 1920 1920">
    <style>
        .st0{fill:#fff}.st1{fill:none;stroke:#231f20;stroke-width:50;stroke-linecap:round;stroke-linejoin:round;stroke-miterlimit:10}
    </style>
    <path class="st0" d="M1160.7 757.1c-100.1-100-238.3-161.9-390.9-161.9-305.3 0-552.8 247.5-552.8 552.9s247.5 552.8 552.8 552.8 552.9-247.5 552.9-552.8c0-152.7-61.9-290.9-162-391z" id="Layer_2"/>
    <g id="STROKES">
        <path class="st1" d="M1322.7 1148.1c0 305.3-247.5 552.9-552.9 552.9-305.3 0-552.9-247.5-552.9-552.9 0-305.3 247.5-552.9 552.9-552.9 152.7 0 290.9 61.9 390.9 161.9 100.1 100.1 162 238.3 162 391z"/>
        <path class="st1" d="M1700.9 216.9l-540.2 540.2"/>
        <path class="st1" d="M1700.9 658.7V216.9h-441.7"/>
        <path class="st1" d="M1322.7 1148.1c0 305.3-247.5 552.9-552.9 552.9-305.3 0-552.9-247.5-552.9-552.9 0-305.3 247.5-552.9 552.9-552.9 152.7 0 290.9 61.9 390.9 161.9 100.1 100.1 162 238.3 162 391z"/>
        <path class="st1" d="M1700.9 216.9l-540.2 540.2"/>
        <path class="st1" d="M1700.9 658.7V216.9h-441.7"/>
        <g>
            <path class="st1" d="M1322.7 1148.1c0 305.3-247.5 552.9-552.9 552.9-305.3 0-552.9-247.5-552.9-552.9 0-305.3 247.5-552.9 552.9-552.9 152.7 0 290.9 61.9 390.9 161.9 100.1 100.1 162 238.3 162 391z"/>
            <path class="st1" d="M1700.9 216.9l-540.2 540.2"/>
            <path class="st1" d="M1700.9 658.7V216.9h-441.7"/>
        </g>
    </g>
</svg>
