<svg xmlns="http://www.w3.org/2000/svg" viewBox="0 0 1920 1920">
    <style>
        .st0{fill:#fff}.st1,.st2{fill:none;stroke:#231f20;stroke-width:50;stroke-linecap:round;stroke-linejoin:round;stroke-miterlimit:10}.st2{stroke-dasharray:50,100}
    </style>
    <path class="st0" d="M1401.2 393.9L1106 552.4l-1.3.7-293-162-1.6.8-299.7 158.2H222.9v975.8h287.5l300.8-158.8.5-.3 293 162 2.2-1.2 294.3-158.2.1-.1h295.8V393.6l-295.9.3zm-987.9 641c-3.9 5.7-7.5 11.6-11 17.5l-46.4 80.1-56.8-100.8h.1c-6.3-10.1-9.9-22-10.1-34.7-.6-37.5 29.7-68.8 67.2-69.3 38.1-.5 69.1 30.2 69.1 68.2.1 14.5-4.4 28-12.1 39z" id="Layer_5"/>
    <path class="st0" d="M425.5 995.9c0 14.5-4.5 27.9-12.2 39-3.9 5.7-7.5 11.6-11 17.5l-46.4 80.1-56.8-100.8h.1c-6.3-10.1-9.9-22-10.1-34.7-.6-37.5 29.7-68.8 67.2-69.3 38.2-.5 69.2 30.3 69.2 68.2zm-68.7-.4c0-.3-.2-.5-.5-.5s-.5.2-.5.5.2.5.5.5.5-.2.5-.5z" id="Layer_6"/>
    <g id="Layer_1">
        <path class="st1" d="M1697.1 881.4V393.6l-295.9.3-295.3 158.5-1.2.7-293-162-1.6.8-299.7 158.2H222.9v487.8"/>
        <path class="st1" d="M510.4 550.1v487.8"/>
        <path class="st1" d="M1105.9 550.1v487.8"/>
        <path class="st1" d="M1401.2 393.9v487.5"/>
        <path class="st1" d="M811.2 393.9v487.5"/>
        <path class="st1" d="M222.9 1038.1v487.8h287.5l300.8-158.7.5-.3 293 162 2.2-1.2 294.3-158.2h295.9V881.7"/>
        <path class="st1" d="M510.4 1038.1v487.8"/>
        <path class="st1" d="M1105.9 1038.1v487.8"/>
        <path class="st1" d="M1401.2 881.9v487.6"/>
        <path class="st1" d="M811.2 881.9v487.6"/>
        <path class="st1" d="M1465.7 545.4l72.7 72.8 72.8 72.7"/>
        <path class="st1" d="M1465.7 690.9l72.7-72.7 72.8-72.8"/>
        <path class="st1" d="M425.5 995.9c0-38-31-68.7-69.1-68.2-37.5.5-67.8 31.7-67.2 69.3.2 12.7 3.9 24.6 10.1 34.7h-.1l56.8 100.8 46.4-80.1c3.5-6 7-11.9 11-17.5 7.6-11 12.1-24.5 12.1-39z"/>
        <path class="st1" d="M356.8 995.5c0 .3-.2.5-.5.5s-.5-.2-.5-.5.2-.5.5-.5.5.2.5.5z"/>
        <path class="st2" d="M425.5 1178.5s28 23.8 84.9 29.9c36.7 4 85.4.7 146.4-20.9 99.2-35.1 110.1-215.6 154.4-324.4 20-49.1 46.8-83.7 91.7-83.7 108.3 0 101.8 217.4 203.1 339.4 39.1 47 94.1 79.8 177.9 80.6 47.1.5 85.7-10.1 117.3-28.4 176.4-101.8 137.3-441.9 137.3-441.9"/>
    </g>
</svg>
