<svg xmlns="http://www.w3.org/2000/svg" viewBox="0 0 1920 1920">
    <style>
        .st0{fill:#fff}.st1,.st2{fill:none;stroke:#231f20;stroke-width:50;stroke-linecap:round;stroke-linejoin:round;stroke-miterlimit:10}.st2{stroke-dasharray:50,100}
    </style>
    <path class="st0" d="M1701.3 447v1026.1H218.7V447h1482.6zM497.8 1258.5c0-35.6-28.9-64.5-64.5-64.5s-64.5 28.9-64.5 64.5 28.9 64.5 64.5 64.5 64.5-28.8 64.5-64.5z" id="Layer_3"/>
    <path class="st0" d="M433.3 1194c35.6 0 64.5 28.9 64.5 64.5s-28.9 64.5-64.5 64.5-64.5-28.9-64.5-64.5 28.8-64.5 64.5-64.5z" id="Layer_4"/>
    <g id="Layer_1">
        <path class="st1" d="M218.7 447h1482.5v1026.1H218.7z"/>
        <path class="st1" d="M1409.9 594l72.7 72.7 72.8 72.8"/>
        <path class="st1" d="M1409.9 739.5l72.7-72.8 72.8-72.7"/>
        <path class="st2" d="M452 1192.5c27-67.4 41.5-140.2 78.4-202.6 30.7-51.9 77.5-95.4 134.2-115.8 56.7-20.4 123.3-15.9 173.4 17.7 62.2 41.7 90 118.2 139.8 174 45.1 50.4 108.8 90.5 176.5 90.5 303.5 0 330.5-334.5 330.5-334.5"/>
        <path class="st1" d="M497.8 1258.5c0 35.6-28.9 64.5-64.5 64.5s-64.5-28.9-64.5-64.5 28.9-64.5 64.5-64.5 64.5 28.9 64.5 64.5z"/>
    </g>
</svg>
