<svg xmlns="http://www.w3.org/2000/svg" viewBox="0 0 1920 1920">
    <style>
        .st0{fill:#fff}.st1{fill:none;stroke:#231f20;stroke-width:50;stroke-linecap:round;stroke-linejoin:round;stroke-miterlimit:10}
    </style>
    <path class="st0" d="M384.8 1277.1l179.4 181.3-.8.8-200.7 103c-49.1 17.8-96.9-29.2-79.9-78.6l102-206.5z" id="Layer_9"/>
    <path class="st0" d="M1552.9 429.8l34.4 34.8L571.5 1465.9l-7.4-7.5-179.3-181.3-7.4-7.5L1393.1 268.3l34.4 34.7z" id="Layer_10"/>
    <path transform="rotate(-44.684 1534.16 322.964)" class="st0" d="M1472.4 233.8H1596v178.4h-123.6z" id="Layer_11"/>
    <g id="STROKES">
        <g id="XMLID_1_">
            <path class="st1" d="M364.1 1566.7l511.4 2.8-17.6 38.6c-27.4 60.1 39 119.8 95.8 86L1166 1568c13.9-8.2 30.6 5.2 25.4 20.5-2.6 7.6-3.7 15.1-3.7 22.2 0 51.8 61.4 88 108 53.3l132.1-98.3 190.9 1.1"/>
            <path class="st1" d="M1552.9 429.8l34.4 34.8L571.5 1465.9l-7.4-7.5-179.3-181.3-7.4-7.5L1393.1 268.3l34.4 34.7z"/>
            <path class="st1" d="M384.8 1277.1l-102.1 206.5c-17 49.4 30.8 96.4 79.9 78.6l200.7-103"/>
            <path class="st1" d="M1427.5 303l87.8-86.9L1640.8 343l-87.9 86.8"/>
            <path class="st1" d="M1299.7 375l172.6 174.6"/>
        </g>
    </g>
</svg>
