<svg xmlns="http://www.w3.org/2000/svg" viewBox="0 0 1920 1920">
    <style>
        .st0{fill:#fff}.st1{fill:none;stroke:#231f20;stroke-width:50;stroke-linecap:round;stroke-linejoin:round;stroke-miterlimit:10}
    </style>
    <path class="st0" d="M505.1 1560.6l-73.8 73.8H216.6l179.9-179.9 1.3-1.2z" id="Layer_6"/>
    <path class="st0" d="M505.1 1560.6l-107.3-107.3-13-12.9L500.2 1325l.6-.6 128.4 129.9-115.3 115.2z" id="Layer_7"/>
    <path class="st0" d="M1499.1 582.6l29.2 29.5-876.9 864.6-22.2-22.4-128.4-129.9-14.3-14.4 876.9-864.6 29.2 29.5z" id="Layer_8"/>
    <path class="st0" d="M1582.7 285.6l106.6 107.7-190.2 189.3-106.5-107.7 1.8-1.8z" id="Layer_2"/>
    <g id="STROKES">
        <g id="XMLID_1_">
            <path class="st1" d="M396.5 1454.5l-179.9 179.9h214.7l73.8-73.8 1.9-1.9"/>
            <path class="st1" d="M1499.1 582.6l29.2 29.5-876.9 864.6-22.2-22.4-128.4-129.9-14.3-14.4 876.9-864.6 29.2 29.5z"/>
            <path class="st1" d="M1394.4 473.1l188.3-187.5 106.6 107.7-190.2 189.3-.7.7"/>
            <path class="st1" d="M1284 536.1l146.6 148.2"/>
            <path class="st1" d="M629.3 1454.1l-.1.2-115.3 115.2-8.8-8.9-107.3-107.3-13-12.9L500.2 1325"/>
        </g>
    </g>
</svg>
