<svg xmlns="http://www.w3.org/2000/svg" viewBox="0 0 1920 1920">
    <style>
        .st0{fill:#fff}.st1{fill:none;stroke:#231f20;stroke-width:50;stroke-linecap:round;stroke-linejoin:round;stroke-miterlimit:10}
    </style>
    <path class="st0" d="M721.8 1567.7l-1.7 1.7c-52.3 97.8-271.4 145.1-401.2 132.2-94.7-9.4-150.2-38.1-40.3-44.8 109.8-6.7 300.4-230.9 300.4-230.9l.6-.6 142.2 142.4z" id="Layer_3"/>
    <path class="st0" d="M558.8 1271.7l317 317-103 30.1-51-51.1-142.4-142.3-47.5-47.6z" id="Layer_4"/>
    <path class="st0" d="M1613.8 216.7l89.4 544.5-827.4 827.5-317-317z" id="Layer_5"/>
    <g id="STROKES">
        <g id="XMLID_1_">
            <path class="st1" d="M1703.2 761.2l-827.4 827.5-317-317 1055-1055"/>
            <path class="st1" d="M558.8 1271.7l-26.9 106.1 47.5 47.6 142.4 142.3 51 51.1 103-30.1"/>
            <path class="st1" d="M578.8 1426s-190.5 224.1-300.4 230.9c-109.8 6.7-54.3 35.4 40.3 44.8 129.8 12.9 348.9-34.5 401.2-132.2"/>
        </g>
    </g>
</svg>
