<svg xmlns="http://www.w3.org/2000/svg" viewBox="0 0 1920 1920">
    <style>
        .st0{fill:#fff}.st1{fill:#d50000}.st2{fill:none;stroke:#231f20;stroke-width:50;stroke-linecap:round;stroke-linejoin:round;stroke-miterlimit:10}
    </style>
    <path class="st0" d="M1322 1057.8L312.6 1708.1l-48.6-75.5 1011-651.3c-11.8 34.6 11.3 71.4 47 76.5z" id="Layer_8"/>
    <path class="st0" d="M1330.1 866.3c9.7-16.9 23.4-31.8 41-43.1 59.7-38.5 139.7-20 176.3 41.6 33.7 56.7 17.2 131-37.3 168.1-.4.2-.8.5-1.1.8-16.6 9.6-34.3 16.5-53.1 20-1.8.2-3.5.4-5.3.6l.1.1-4.3.2c-1.9.1-3.7.2-5.6.2l-32.4 1.1c-54.2-3.1-99-31.9-132.9-75.9.7-1.8 1.4-3.6 2.3-5.3l45.3-94c1.8-4.3 3.8-8.6 6.2-12.8l.8-1.7v.1z" id="Layer_9"/>
    <path class="st0" d="M1275.5 979.9c-75.1-97.4-96.2-268.9-45-397.3 5-12.5 10.3-25 15.9-37.4 34.1 51.7 77.9 96.3 131.4 108.1 0 0 91.4-217.4 73.9-440.3.6-.7.9-1.1.9-1.1h.6s130.1 196.4 187.2 389.5c46.3 156.7-13.4 364-131.4 432.2.4-.2.8-.5 1.1-.8 54.5-37.1 71-111.4 37.3-168.1-36.6-61.6-116.6-80-176.3-41.6-17.5 11.3-31.3 26.2-41 43.1l-.1-.1-.8 1.7c-2.3 4.1-4.3 8.4-6.2 12.8l-45.3 94c-.8 1.7-1.5 3.5-2.2 5.3z" id="Layer_2"/>
    <g id="STROKES">
        <g id="XMLID_1_">
            <path class="st2" d="M1324 1056.5l-2 1.3-1009.4 650.3-48.7-75.4L1275 981.3l.4-.3"/>
            <path class="st2" d="M1408.4 1055.8l32.4-1.1c1.9 0 3.7-.1 5.6-.2l4.3-.2-.1-.1c1.8-.2 3.5-.4 5.3-.6 18.4-2.4 36.6-9 53.1-20 .4-.2.8-.5 1.1-.8 54.5-37.1 71-111.4 37.3-168.1-36.6-61.6-116.6-80-176.3-41.6-17.5 11.3-31.3 26.2-41 43.1l-.1-.1-.8 1.7c-2.3 4.1-4.3 8.4-6.2 12.8l-45.3 94c-.9 1.8-1.6 3.5-2.3 5.3-.2.5-.3 1-.5 1.4-11.8 34.6 11.3 71.5 46.9 76.5 3.4.5 6.9.7 10.5.6l76.1-2.6z"/>
            <path class="st2" d="M1509 1033.6c117.9-68.2 177.7-275.5 131.4-432.2-57-193-187.2-389.5-187.2-389.5h-.6s-.3.4-.9 1.1c17.5 222.8-73.9 440.3-73.9 440.3-53.5-11.9-97.4-56.4-131.4-108.1-5.6 12.4-10.9 24.9-15.9 37.4-51.2 128.4-30.1 299.9 45 397.3 33.9 44 78.7 72.9 132.9 75.9.6 0 1.2.1 1.8.1l7.9.4c13 .6 25.6-.3 37.8-2.7 18.7-3.6 36.5-10.4 53.1-20z"/>
        </g>
    </g>
</svg>
