<svg xmlns="http://www.w3.org/2000/svg" viewBox="0 0 1920 1920">
    <style>
        .st0{fill:#fff}.st1{fill:#d50000}.st2{fill:none;stroke:#231f20;stroke-width:50;stroke-linecap:round;stroke-linejoin:round;stroke-miterlimit:10}
    </style>
    <path class="st0" d="M1113.8 359.7c0 8.1 2 15.7 5.5 22.5h-.1l.4.6c.9 1.6 1.8 3.2 2.9 4.7l21.2 34.6c4.4 7.1 11.7 10.8 19.1 10.9 7.7.1 15.4-3.6 19.8-11.1l21.6-36.2c.4-.6.8-1.2 1.1-1.9l.9-1.4h-.1c3.7-7.1 5.8-15.3 5.6-24-.7-25.6-21.5-46.7-47.1-47.6-27.9-1-50.8 21.3-50.8 48.9zm-195.9 27.7L939 422c4.4 7.1 11.7 10.8 19.1 10.9 7.7.1 15.4-3.6 19.9-11.1l21.6-36.2c.4-.6.8-1.2 1.1-1.9l.9-1.4h-.1c3.7-7.1 5.8-15.3 5.6-24-.7-25.6-21.5-46.7-47.1-47.6-27.8-1-50.7 21.3-50.7 48.9 0 8.1 2 15.7 5.5 22.5h-.1l.4.6c.8 1.7 1.7 3.2 2.8 4.7zm-62.1 45.5c7.7.1 15.4-3.6 19.8-11.1l21.6-36.2c.4-.6.8-1.2 1.1-1.9l.9-1.4h-.1c3.7-7.1 5.8-15.3 5.6-24-.7-25.6-21.5-46.7-47.1-47.6-27.8-1-50.7 21.3-50.7 48.9 0 8.1 2 15.7 5.5 22.5h-.1l.4.6c.9 1.6 1.8 3.2 2.9 4.7l21.2 34.6c4.3 7.2 11.7 10.8 19 10.9zm204.6 0c7.7.1 15.4-3.6 19.8-11.1l21.6-36.2c.4-.6.8-1.2 1.1-1.9l.9-1.4h-.1c3.7-7.1 5.8-15.3 5.6-24-.7-25.6-21.5-46.7-47.1-47.6-27.8-1-50.7 21.3-50.7 48.9 0 8.1 2 15.7 5.5 22.5h-.1l.4.6c.9 1.6 1.8 3.2 2.9 4.7l21.2 34.6c4.3 7.2 11.6 10.8 19 10.9zm-347.1-45.5l21.2 34.6c4.4 7.1 11.7 10.8 19.1 10.9 7.7.1 15.4-3.6 19.9-11.1l21.6-36.2c.4-.6.8-1.2 1.1-1.9l.9-1.4h-.1c3.7-7.1 5.8-15.3 5.6-24-.7-25.6-21.5-46.7-47.1-47.6-27.8-1-50.7 21.3-50.7 48.9 0 8.1 2 15.7 5.5 22.5h-.1l.4.6c.7 1.7 1.6 3.2 2.7 4.7zM753.5 671H640.7V214.9h634.9V671H753.5z" id="Layer_5"/>
    <path class="st0" d="M1302.4 1633.2l-71.9 71.9H685.8l-71.9-71.9h688.5zM613.9 671v962.2h688.5V671H613.9z" id="Layer_6"/>
    <g id="Layer_7">
        <path class="st0" d="M1119.2 382.1a48.6 48.6 0 0 1-5.5-22.5c0-27.6 22.9-49.9 50.7-48.9 25.6.9 46.4 22 47.1 47.6.2 8.7-1.8 16.8-5.6 24h.1l-.9 1.4c-.4.6-.7 1.2-1.1 1.9l-21.6 36.2c-4.5 7.5-12.2 11.2-19.8 11.1-7.4-.1-14.7-3.7-19.1-10.9l-21.2-34.6c-1.1-1.5-2-3.1-2.9-4.7l-.2-.6z"/>
        <path class="st0" d="M1062.2 310.8c25.6.9 46.4 22 47.1 47.6.2 8.7-1.8 16.8-5.6 24h.1l-.9 1.4c-.4.6-.7 1.2-1.1 1.9l-21.6 36.2c-4.5 7.5-12.2 11.2-19.8 11.1-7.4-.1-14.7-3.7-19.1-10.9l-21.2-34.6c-1-1.5-2-3.1-2.9-4.7l-.4-.6h.1a48.6 48.6 0 0 1-5.5-22.5c.1-27.6 23-49.9 50.8-48.9z"/>
        <path class="st0" d="M914.7 382.1a48.6 48.6 0 0 1-5.5-22.5c0-27.6 22.9-49.9 50.7-48.9 25.6.9 46.4 22 47.1 47.6.2 8.7-1.8 16.8-5.6 24h.1l-.9 1.4c-.4.6-.7 1.2-1.1 1.9L978 421.8c-4.5 7.5-12.2 11.2-19.9 11.1-7.4-.1-14.7-3.7-19.1-10.9l-21.2-34.6c-1-1.5-2-3.1-2.9-4.7l-.2-.6z"/>
        <path class="st0" d="M857.6 310.8c25.6.9 46.4 22 47.1 47.6.2 8.7-1.8 16.8-5.6 24h.1l-.9 1.4c-.4.6-.7 1.2-1.1 1.9l-21.6 36.2c-4.5 7.5-12.2 11.2-19.8 11.1-7.4-.1-14.7-3.7-19.1-10.9l-21.2-34.6c-1-1.5-2-3.1-2.9-4.7l-.4-.6h.1a48.6 48.6 0 0 1-5.5-22.5c.1-27.6 23-49.9 50.8-48.9z"/>
        <path class="st0" d="M710.1 382.1a48.6 48.6 0 0 1-5.5-22.5c0-27.6 22.9-49.9 50.7-48.9 25.6.9 46.4 22 47.1 47.6.2 8.7-1.8 16.8-5.6 24h.1l-.9 1.4c-.4.6-.7 1.2-1.1 1.9l-21.6 36.2c-4.5 7.5-12.2 11.2-19.9 11.1-7.4-.1-14.7-3.7-19.1-10.9l-21.2-34.6c-1-1.5-2-3.1-2.9-4.7l-.1-.6z"/>
    </g>
    <g id="STROKES">
        <g id="XMLID_1_">
            <path class="st2" d="M753.5 672V432.1"/>
            <path class="st2" d="M753.5 432.9c7.7.1 15.4-3.6 19.9-11.1l21.6-36.2c.4-.6.8-1.2 1.1-1.9l.9-1.4h-.1c3.7-7.1 5.8-15.3 5.6-24-.7-25.6-21.5-46.7-47.1-47.6-27.8-1-50.7 21.3-50.7 48.9 0 8.1 2 15.7 5.5 22.5h-.1l.4.6c.9 1.6 1.8 3.2 2.9 4.7l21.2 34.6c4.2 7.2 11.6 10.8 18.9 10.9z"/>
            <path class="st2" d="M855.8 672V432.1"/>
            <path class="st2" d="M855.8 432.9c7.7.1 15.4-3.6 19.8-11.1l21.6-36.2c.4-.6.8-1.2 1.1-1.9l.9-1.4h-.1c3.7-7.1 5.8-15.3 5.6-24-.7-25.6-21.5-46.7-47.1-47.6-27.8-1-50.7 21.3-50.7 48.9 0 8.1 2 15.7 5.5 22.5h-.1l.4.6c.9 1.6 1.8 3.2 2.9 4.7l21.2 34.6c4.3 7.2 11.7 10.8 19 10.9z"/>
            <path class="st2" d="M958.1 672V432.1"/>
            <path class="st2" d="M958.1 432.9c7.7.1 15.4-3.6 19.9-11.1l21.6-36.2c.4-.6.8-1.2 1.1-1.9l.9-1.4h-.1c3.7-7.1 5.8-15.3 5.6-24-.7-25.6-21.5-46.7-47.1-47.6-27.8-1-50.7 21.3-50.7 48.9 0 8.1 2 15.7 5.5 22.5h-.1l.4.6c.9 1.6 1.8 3.2 2.9 4.7l21 34.6c4.4 7.2 11.8 10.8 19.1 10.9z"/>
            <path class="st2" d="M1060.4 672V432.1"/>
            <path class="st2" d="M1060.4 432.9c7.7.1 15.4-3.6 19.8-11.1l21.6-36.2c.4-.6.8-1.2 1.1-1.9l.9-1.4h-.1c3.7-7.1 5.8-15.3 5.6-24-.7-25.6-21.5-46.7-47.1-47.6-27.8-1-50.7 21.3-50.7 48.9 0 8.1 2 15.7 5.5 22.5h-.1l.4.6c.9 1.6 1.8 3.2 2.9 4.7l21.2 34.6c4.3 7.2 11.6 10.8 19 10.9z"/>
            <path class="st2" d="M1162.7 672V432.1"/>
            <path class="st2" d="M1162.7 432.9c7.7.1 15.4-3.6 19.8-11.1l21.6-36.2c.4-.6.8-1.2 1.1-1.9l.9-1.4h-.1c3.7-7.1 5.8-15.3 5.6-24-.7-25.6-21.5-46.7-47.1-47.6-27.8-1-50.7 21.3-50.7 48.9 0 8.1 2 15.7 5.5 22.5h-.1l.4.6c.9 1.6 1.8 3.2 2.9 4.7l21.2 34.6c4.3 7.2 11.6 10.8 19 10.9z"/>
            <path class="st2" d="M1302.4 1633.2H613.9V671h688.5z"/>
            <path class="st2" d="M640.7 672V214.9h634.9V672"/>
            <path class="st2" d="M613.9 1633.2l71.9 72h544.7l71.9-72"/>
        </g>
    </g>
</svg>
