<svg xmlns="http://www.w3.org/2000/svg" viewBox="0 0 1920 1920">
    <style>
        .st0{fill:#fff}.st1{fill:#d50000}.st2{fill:none;stroke:#231f20;stroke-width:50;stroke-linecap:round;stroke-linejoin:round;stroke-miterlimit:10}
    </style>
    <g id="Layer_3">
        <path class="st0" d="M1402 216.9L1316.5 800H594.1L518 216.9z"/>
        <path class="st0" d="M1316.5 800v129H594.1V800H1316z"/>
        <path class="st0" d="M1316.5 1559v144.1H594.1V1559H1316z"/>
        <path class="st0" d="M1177.5 1231.5c8.2.1 16.3-3.8 21.1-11.8l23-38.5c.4-.7.8-1.3 1.2-2l.9-1.5h-.1c4-7.6 6.1-16.3 5.9-25.5-.7-27.3-22.8-49.6-50.1-50.6-8-.3-15.6 1.2-22.4 4.2 2.6-6.4 4-13.5 3.8-21-.7-27.3-22.8-49.6-50.1-50.6-29.4-1.1-53.5 22.2-53.9 51.3v-.7c-.7-27.3-22.8-49.6-50.1-50.6-29.4-1.1-53.5 22.2-53.9 51.3v-.7c-.7-27.3-22.8-49.6-50.1-50.6-29.4-1.1-53.5 22.2-53.9 51.3v-.7c-.7-27.3-22.8-49.6-50.1-50.6-29.6-1.1-53.9 22.6-53.9 52 0 5.4.9 10.7 2.4 15.6-1-.1-1.9-.2-2.9-.2-29.6-1.1-53.9 22.6-53.9 52 0 8.6 2.1 16.7 5.8 23.9h-.1l.4.6c.9 1.7 2 3.4 3.1 5l22.5 36.8c4.7 7.6 12.5 11.5 20.3 11.6V1559H594.1V929h722.4v630h-139v-327.5z"/>
        <path class="st0" d="M1114.8 1177.8c2.6-5 4.5-10.5 5.3-16.3 2-1 3.8-2.3 5.5-3.8.5 7.1 2.5 13.8 5.7 19.9h-.1l.4.6c.9 1.7 1.9 3.4 3 5l22.5 36.8c4.7 7.6 12.5 11.5 20.3 11.6V1559h-108.8v-327.5c8.2.1 16.4-3.8 21.1-11.8l23-38.5c.4-.7.8-1.3 1.2-2l.9-1.4z"/>
        <path class="st0" d="M1048.5 1220c4.7 7.6 12.5 11.5 20.3 11.6V1559H960v-327.5c8.2.1 16.3-3.8 21.1-11.8l23-38.5c.4-.7.8-1.3 1.2-2l.9-1.5h-.1c2.3-4.5 4-9.3 5-14.4 2.1-.5 4.2-1.4 6.2-2.5.8 5.9 2.7 11.5 5.3 16.6h-.1l.4.6c.9 1.7 1.9 3.4 3.1 5l22.5 37z"/>
        <path class="st0" d="M939.7 1220c4.7 7.6 12.5 11.5 20.3 11.6V1559H851.3v-327.5c8.2.1 16.3-3.8 21.1-11.8l23-38.5c.4-.7.8-1.3 1.2-2l.9-1.5h-.1c2.2-4.2 3.9-8.8 4.9-13.7 2.2-.1 4.5-.5 6.6-1.2.9 5.2 2.6 10.1 5 14.7h-.1l.4.6c.9 1.7 1.9 3.4 3 5l22.5 36.9z"/>
        <path class="st0" d="M808.5 1183.2L831 1220c4.7 7.6 12.5 11.5 20.3 11.6V1559H742.5v-327.5c8.1.1 16.3-3.8 21.1-11.8l23-38.5c.4-.7.8-1.3 1.2-2l.9-1.5h-.1c2.3-4.3 4-9 4.9-14 1.1.2 2.3.3 3.4.3s2.2-.1 3.4-.2c1 4.8 2.6 9.4 4.8 13.6h-.1l.4.6c.9 1.9 1.9 3.6 3.1 5.2z"/>
    </g>
    <path class="st0" d="M1160.8 1084.9c.2 7.4-1.2 14.5-3.8 21-18.5 7.9-31.5 26.4-31.5 47.8 0 1.3.1 2.7.2 4-1.7 1.6-3.5 2.8-5.5 3.8.2-1 .3-2 .4-3v-.4c0-.4.1-.8.1-1.2.1-1.5.1-3 .1-4.6-.7-25.6-20.2-46.8-45.1-50.2-1.6-.2-3.3-.4-5-.4h-3.3c-.5 0-.8 0-1.2.1-.3 0-.6 0-.9.1-.4 0-.8 0-1.2.1-.4 0-.8.1-1.2.1-.4 0-.8.1-1.2.1-.8.1-1.5.2-2.3.3-1.6-4.8-2.5-9.8-2.6-15.1v-1.8c.4-29 24.5-52.3 53.9-51.3 27.3 1 49.4 23.3 50.1 50.6zm-29.6 92.7l.4.6c.9 1.7 1.9 3.4 3 5l22.5 36.8c4.7 7.6 12.5 11.5 20.3 11.6 8.2.1 16.3-3.8 21.1-11.8l23-38.5c.4-.7.8-1.3 1.2-2l.9-1.5h-.1c4-7.6 6.1-16.3 5.9-25.5-.7-27.3-22.8-49.6-50.1-50.6-8-.3-15.6 1.2-22.4 4.2-18.5 8-31.4 26.3-31.4 47.8 0 1.3.1 2.7.2 4 .5 7.1 2.5 13.8 5.5 19.9zm-74.4-91.3v-1.4c-.7-27.3-22.8-49.6-50.1-50.6-29.4-1.1-53.5 22.2-53.9 51.3v1.4c.1 5.2.9 10.2 2.4 15 1.1-.1 2.2-.2 3.4-.2h3.3c3 .1 5.9.5 8.7 1.1 23.1 4.8 40.7 25.2 41.4 49.5.1 2.1 0 4.2-.2 6.2-.1 1-.2 1.9-.4 2.8 0 .2-.1.5-.1.7-.1.4-.2.9-.2 1.3 2.1-.5 4.2-1.4 6.2-2.5-.3-2.4-.5-4.8-.5-7.3 0-23.5 15.6-43.4 37.1-49.8 1.9-5.2 2.9-10.7 3.1-16.5v-.1c-.2-.2-.2-.6-.2-.9zm18.9 15.8c-1.6-.2-3.3-.4-5-.4h-3.3c-.5 0-.8 0-1.2.1-.3 0-.6 0-.9.1-.4 0-.8.1-1.2.1-.4 0-.8.1-1.2.1-.4 0-.8.1-1.2.1-.8.1-1.5.2-2.3.4-1.9.3-3.8.8-5.7 1.4-21.4 6.4-37 26.3-37 49.8 0 2.5.2 4.9.5 7.2.8 5.9 2.7 11.5 5.3 16.6h-.1l.4.6c.9 1.7 1.9 3.4 3.1 5l22.5 36.8c4.7 7.6 12.5 11.5 20.3 11.6 8.2.1 16.4-3.8 21.1-11.8l23-38.5c.4-.7.8-1.3 1.2-2l.9-1.5h-.1c2.6-5 4.5-10.5 5.3-16.3.2-1 .3-2 .4-3v-.4c0-.4.1-.8.1-1.2.1-1.5.1-3 .1-4.6-.6-25.5-20.1-46.8-45-50.2zm-122.8-16.5v-.7c-.7-27.3-22.8-49.6-50.1-50.6-29.4-1.1-53.5 22.2-53.9 51.3v1.3c.1 5.1.9 10.1 2.3 14.8h2c4.7.2 9.2 1 13.5 2.3 20.7 6.5 36 25.7 36.6 48.3 0 2.1 0 4.2-.2 6.2 0 .5-.1 1.1-.2 1.6v.1c-.1.5-.1 1-.2 1.5-.1.4-.1.8-.2 1.2 0 .3-.1.6-.2.8 0 .1-.1.2-.1.4 2.2-.1 4.5-.5 6.6-1.2-.5-3-.8-6.1-.8-9.2 0-25.4 18.2-46.5 42.2-51.1 1.6-4.9 2.6-10.2 2.7-15.7v-1.3zm-39.1 92l.4.6c.9 1.7 1.9 3.4 3 5l22.5 36.8c4.7 7.6 12.5 11.5 20.3 11.6 8.2.1 16.3-3.8 21.1-11.8l23-38.5c.4-.7.8-1.3 1.2-2l.9-1.5h-.1c2.3-4.5 4-9.3 5-14.4.1-.4.2-.9.2-1.3 0-.2.1-.5.1-.7.1-.9.2-1.9.4-2.8.2-2 .2-4.1.2-6.2-.6-24.3-18.2-44.7-41.3-49.5-2.8-.6-5.7-1-8.7-1.1h-3.3c-1.1 0-2.3.1-3.4.2-1.7.2-3.4.4-5.1.7-24 4.6-42.2 25.7-42.2 51.1 0 3.1.3 6.2.8 9.2 1 5.1 2.7 10 5 14.6zm-64.9-92v-.7c-.7-27.3-22.8-49.6-50.1-50.6-29.6-1.1-53.9 22.6-53.9 52 0 5.4.9 10.7 2.4 15.6.4 0 .8.1 1.2.1.4 0 .8.1 1.2.2.4 0 .8.1 1.2.2 2 .3 3.9.8 5.8 1.3.8.2 1.5.4 2.3.7h.1c.4.1.8.3 1.2.4.4.1.8.3 1.1.4s.8.3 1.1.5c.4.2.7.3 1.1.5 1.5.7 2.9 1.4 4.3 2.2 15.5 8.7 26.1 25.2 26.6 43.9 0 2.1 0 4.2-.2 6.2 0 .5-.1 1-.2 1.5-.1.4-.1.9-.2 1.3s-.1.8-.2 1.2c-.1.4-.1.8-.2 1.2 1.1.2 2.3.3 3.4.3s2.2-.1 3.4-.2c-.7-3.3-1-6.7-1-10.2 0-27.1 20.8-49.4 47.2-51.8 1.5-4.7 2.4-9.8 2.4-15v-1.2zm17.8 18.4c-4.3-1.3-8.8-2.2-13.5-2.3h-2c-1.6 0-3.2.1-4.7.2-26.5 2.4-47.2 24.7-47.2 51.8 0 3.5.4 6.9 1 10.2 1 4.8 2.6 9.4 4.8 13.6h-.1l.4.6c.9 1.7 1.9 3.4 3.1 5L831 1220c4.7 7.6 12.5 11.5 20.3 11.6 8.2.1 16.3-3.8 21.1-11.8l23-38.5c.4-.7.8-1.3 1.2-2l.9-1.5h-.1c2.2-4.2 3.9-8.8 4.9-13.7 0-.1 0-.2.1-.4.1-.3.1-.6.2-.8.1-.4.1-.8.2-1.2.1-.5.1-1 .2-1.5v-.1c.1-.5.1-1.1.2-1.6.2-2 .2-4.1.2-6.2-.7-22.6-16-41.8-36.7-48.3zm-98.7 4.4c-1.4-.8-2.8-1.5-4.3-2.2-.4-.2-.7-.3-1.1-.5-.4-.2-.8-.3-1.1-.5s-.8-.3-1.1-.4c-.4-.1-.8-.3-1.2-.4h-.1c-.7-.2-1.5-.5-2.3-.7-1.9-.6-3.9-1-5.8-1.3-.4-.1-.8-.1-1.2-.2-.4-.1-.8-.1-1.2-.2-.4-.1-.8-.1-1.2-.1-1-.1-1.9-.2-2.9-.2-29.6-1.1-53.9 22.6-53.9 52 0 8.6 2.1 16.7 5.8 23.9h-.1l.4.6c.9 1.7 2 3.4 3.1 5l22.5 36.8c4.7 7.6 12.5 11.5 20.3 11.6 8.1.1 16.3-3.8 21.1-11.8l23-38.5c.4-.7.8-1.3 1.2-2l.9-1.5h-.1c2.3-4.3 4-9 4.9-14 .1-.4.2-.8.2-1.2.1-.4.1-.8.2-1.2.1-.4.1-.9.2-1.3 0-.5.1-1 .2-1.5.2-2 .2-4.1.2-6.2-.6-18.8-11.2-35.3-26.6-44z" id="Layer_4"/>
    <g id="STROKES">
        <g id="XMLID_1_">
            <path class="st1" d="M1157 1105.9c-18.5 8-31.4 26.3-31.4 47.8 0 1.3.1 2.7.2 4-.1-1.3-.2-2.7-.2-4-.1-21.5 12.9-39.9 31.4-47.8z"/>
            <path class="st1" d="M1120.6 1158.1c0-.4.1-.8.1-1.2-.1.4-.1.8-.1 1.2z"/>
            <path class="st1" d="M1120.5 1158.5v-.4c.1.1 0 .3 0 .4z"/>
            <path class="st1" d="M1120.8 1152.3c0 1.5 0 3.1-.1 4.6 0-1.5.1-3.1.1-4.6-.7-25.6-20.2-46.8-45.1-50.2 24.9 3.4 44.4 24.6 45.1 50.2z"/>
            <path class="st1" d="M1068.7 1101.7h-1.3 1.3z"/>
            <path class="st1" d="M1067.4 1101.7c-.4 0-.8 0-1.2.1.4-.1.8-.1 1.2-.1z"/>
            <path class="st1" d="M1065.2 1101.8c-.4 0-.8.1-1.2.1.5-.1.8-.1 1.2-.1z"/>
            <path class="st1" d="M1064.1 1101.9c-.4 0-.8.1-1.2.1.4 0 .8-.1 1.2-.1z"/>
            <path class="st1" d="M1062.9 1102c-.4 0-.8.1-1.2.1.4 0 .8 0 1.2-.1z"/>
            <path class="st1" d="M1061.8 1102.2c-.8.1-1.5.2-2.3.4.7-.2 1.5-.4 2.3-.4z"/>
            <path class="st1" d="M1056.9 1087.4c.1 5.3 1 10.3 2.6 15.1-1.9.3-3.8.8-5.7 1.4 1.9-5.2 2.9-10.7 3.1-16.5z"/>
            <path class="st1" d="M1056.9 1085.6v.6c-.1-.2-.1-.4 0-.6z"/>
            <path class="st1" d="M1016.7 1153.7c0-23.5 15.6-43.4 37.1-49.8-21.4 6.4-37 26.3-37.1 49.8 0 2.5.2 4.9.5 7.2-.3-2.3-.5-4.8-.5-7.2z"/>
            <path class="st1" d="M1011.4 1161.4c.1-.9.2-1.9.4-2.8-.1.9-.2 1.9-.4 2.8z"/>
            <path class="st1" d="M1011.3 1162.1c0-.2.1-.5.1-.7 0 .2 0 .5-.1.7z"/>
            <path class="st1" d="M970.7 1102.8c23.1 4.8 40.7 25.2 41.4 49.5.1 2.1 0 4.2-.2 6.2.2-2 .2-4.1.2-6.2-.7-24.3-18.4-44.7-41.4-49.5z"/>
            <path class="st1" d="M961.9 1101.7h-1.7 1.7z"/>
            <path class="st1" d="M959.7 1101.7h-1 1z"/>
            <path class="st1" d="M958.7 1101.7c-1.1 0-2.3.1-3.4.2 1.1-.1 2.2-.2 3.4-.2z"/>
            <path class="st1" d="M952.9 1086.9c.1 5.2.9 10.2 2.4 15-1.7.2-3.4.4-5.1.7 1.7-4.9 2.6-10.2 2.7-15.7z"/>
            <path class="st1" d="M908 1153.7c0-25.4 18.2-46.5 42.2-51.1-24 4.6-42.2 25.7-42.2 51.1 0 3.1.3 6.2.8 9.2-.5-3-.8-6.1-.8-9.2z"/>
            <path class="st1" d="M902.9 1160.1c.1-.5.1-1.1.2-1.6-.1.6-.2 1.1-.2 1.6z"/>
            <path class="st1" d="M902.6 1161.7c.1-.5.1-1 .2-1.5 0 .5-.1 1-.2 1.5z"/>
            <path class="st1" d="M902.3 1163.7c.1-.3.1-.6.2-.8-.1.3-.2.5-.2.8z"/>
            <path class="st1" d="M903 1158.5c.2-2 .2-4.1.2-6.2-.6-22.6-15.8-41.8-36.5-48.3 20.7 6.5 36 25.7 36.6 48.3 0 2.1-.1 4.2-.3 6.2z"/>
            <path class="st1" d="M852.2 1101.7h-1 1z"/>
            <path class="st1" d="M848.9 1086.9c.1 5.1.9 10.1 2.3 14.8-1.6 0-3.2.1-4.7.2 1.5-4.7 2.3-9.8 2.4-15z"/>
            <path class="st1" d="M799.3 1153.7c0-27.1 20.8-49.4 47.2-51.8-26.5 2.4-47.2 24.7-47.2 51.8 0 3.5.4 6.9 1.1 10.2-.8-3.3-1.1-6.7-1.1-10.2z"/>
            <path class="st1" d="M794.1 1160.1c0-.5.1-1 .2-1.5-.1.4-.1 1-.2 1.5z"/>
            <path class="st1" d="M793.7 1162.6c.1-.4.1-.8.2-1.2 0 .4-.1.8-.2 1.2z"/>
            <path class="st1" d="M793.5 1163.8c.1-.4.2-.8.2-1.2 0 .4-.1.8-.2 1.2z"/>
            <path class="st1" d="M794.3 1158.5c.2-2 .2-4.1.2-6.2-.5-18.7-11.1-35.2-26.5-43.9 15.5 8.7 26.1 25.2 26.6 43.9 0 2.1-.1 4.2-.3 6.2z"/>
            <path class="st1" d="M768 1108.4c-1.4-.8-2.8-1.5-4.3-2.2 1.4.6 2.9 1.4 4.3 2.2z"/>
            <path class="st1" d="M763.6 1106.2c-.4-.2-.7-.3-1.1-.5.4.2.8.3 1.1.5z"/>
            <path class="st1" d="M762.5 1105.7c-.4-.2-.8-.3-1.1-.5.4.2.8.4 1.1.5z"/>
            <path class="st1" d="M761.4 1105.2c-.4-.2-.8-.3-1.1-.4.3.1.7.3 1.1.4z"/>
            <path class="st1" d="M760.3 1104.8c-.4-.1-.8-.3-1.2-.4.4.1.8.3 1.2.4z"/>
            <path class="st1" d="M759 1104.4c-.7-.2-1.5-.5-2.3-.7.8.2 1.6.4 2.3.7z"/>
            <path class="st1" d="M750.9 1102.4c-.4-.1-.8-.1-1.2-.2.4 0 .8.1 1.2.2z"/>
            <path class="st1" d="M749.7 1102.2c-.4-.1-.8-.1-1.2-.2.4.1.8.1 1.2.2z"/>
            <path class="st1" d="M748.5 1102c-.4-.1-.8-.1-1.2-.1.4 0 .8.1 1.2.1z"/>
            <path class="st2" d="M1316.5 1559v144.1H594.1V800L518 216.9h884L1316.5 800v129z"/>
            <path class="st2" d="M1316 929H594.2"/>
            <path class="st2" d="M1316 800H594.2"/>
            <path class="st2" d="M1316 1559H594.1"/>
            <path class="st2" d="M742.5 1556v-325.3"/>
            <path class="st2" d="M750.9 1102.4c-.4-.1-.8-.1-1.2-.2-.4-.1-.8-.1-1.2-.2-.4-.1-.8-.1-1.2-.1-1-.1-1.9-.2-2.9-.2-29.6-1.1-53.9 22.6-53.9 52 0 8.6 2.1 16.7 5.8 23.9h-.1l.4.6c.9 1.7 2 3.4 3.1 5l22.5 36.8c4.7 7.6 12.5 11.5 20.3 11.6 8.1.1 16.3-3.8 21.1-11.8l23-38.5c.4-.7.8-1.3 1.2-2l.9-1.5h-.1c2.3-4.3 4-9 4.9-14 .1-.4.2-.8.2-1.2.1-.4.1-.8.2-1.2"/>
            <path class="st2" d="M759 1104.4c-.7-.2-1.5-.5-2.3-.7"/>
            <path class="st2" d="M794.1 1160.1c0-.5.1-1 .2-1.5.2-2 .2-4.1.2-6.2-.5-18.7-11.1-35.2-26.5-43.9-1.4-.8-2.8-1.5-4.3-2.2-.4-.2-.7-.3-1.1-.5-.4-.2-.8-.3-1.1-.5s-.8-.3-1.1-.4c-.4-.1-.8-.3-1.2-.4"/>
            <path class="st2" d="M851.3 1556v-325.3"/>
            <path class="st2" d="M852.2 1101.7h-1c-1.6 0-3.2.1-4.7.2-26.5 2.4-47.2 24.7-47.2 51.8 0 3.5.3 6.9 1 10.2 1 4.8 2.6 9.4 4.8 13.6h-.1l.4.6c.9 1.7 1.9 3.4 3.1 5L831 1220c4.7 7.6 12.5 11.5 20.3 11.6 8.2.1 16.3-3.8 21.1-11.8l23-38.5c.4-.7.8-1.3 1.2-2l.9-1.5h-.1c2.2-4.2 3.9-8.8 4.9-13.7"/>
            <path class="st2" d="M902.9 1160.1c.1-.5.1-1.1.2-1.6.2-2 .2-4.1.2-6.2-.6-22.6-15.8-41.8-36.5-48.3"/>
            <path class="st2" d="M902.6 1161.7c.1-.5.1-1 .2-1.5"/>
            <path class="st2" d="M902.3 1163.7c.1-.3.1-.6.2-.8"/>
            <path class="st2" d="M960 1556v-325.3"/>
            <path class="st2" d="M958.7 1101.7c-1.1 0-2.3.1-3.4.2-1.7.2-3.4.4-5.1.7-24 4.6-42.2 25.7-42.2 51.1 0 3.2.3 6.2.8 9.2.9 5.2 2.6 10.1 5 14.7h-.1l.4.6c.9 1.7 1.9 3.4 3 5l22.5 36.8c4.7 7.6 12.5 11.5 20.3 11.6 8.2.1 16.3-3.8 21.1-11.8l23-38.5c.4-.7.8-1.3 1.2-2l.9-1.5h-.1c2.3-4.5 4-9.3 5-14.4"/>
            <path class="st2" d="M959.7 1101.7h-1"/>
            <path class="st2" d="M961.9 1101.7h-1.7"/>
            <path class="st2" d="M1011.8 1158.5c.2-2 .2-4.1.2-6.2-.6-24.3-18.2-44.7-41.3-49.5"/>
            <path class="st2" d="M1011.3 1162.1c0-.2.1-.5.1-.7.1-.9.2-1.9.4-2.8"/>
            <path class="st2" d="M1068.7 1556v-325.3"/>
            <path class="st2" d="M1065.2 1101.8c-.4 0-.8 0-1.2.1-.4 0-.8.1-1.2.1-.4 0-.8.1-1.2.1-.8.1-1.5.2-2.3.3-1.9.3-3.8.8-5.7 1.4-21.4 6.4-37.1 26.3-37.1 49.8 0 2.5.2 4.9.5 7.3.8 5.9 2.7 11.5 5.3 16.6h-.1l.4.6c.9 1.7 1.9 3.4 3.1 5l22.5 36.8c4.7 7.6 12.5 11.5 20.3 11.6 8.2.1 16.4-3.8 21.1-11.8l23-38.5c.4-.7.8-1.3 1.2-2l.9-1.5h-.1c2.6-5 4.5-10.5 5.3-16.3"/>
            <path class="st2" d="M1068.7 1101.7h-1.3c-.5 0-.8 0-1.2.1"/>
            <path class="st2" d="M1120.5 1158.5v-.4c0-.4.1-.8.1-1.2.1-1.5.1-3 .1-4.6-.7-25.6-20.1-46.8-45-50.2"/>
            <path class="st2" d="M1177.5 1556v-325.3"/>
            <path class="st2" d="M1177.5 1231.5c8.2.1 16.3-3.8 21.1-11.8l23-38.5c.4-.7.8-1.3 1.2-2l.9-1.5h-.1c4-7.6 6.1-16.3 5.9-25.5-.7-27.3-22.8-49.6-50.1-50.6-8-.3-15.6 1.2-22.4 4.2-18.5 7.9-31.5 26.4-31.5 47.8 0 1.3.1 2.7.2 4 .5 7.1 2.5 13.8 5.7 19.9h-.1l.4.6c.9 1.7 1.9 3.4 3 5l22.5 36.8c4.7 7.7 12.5 11.5 20.3 11.6z"/>
            <path class="st2" d="M1056.9 1087.4c.1 5.3 1 10.3 2.6 15.1.8-.1 1.5-.2 2.3-.4.4-.1.8-.1 1.2-.1.4 0 .8-.1 1.2-.1.4 0 .8-.1 1.2-.1.3 0 .6 0 .9-.1.4 0 .8 0 1.2-.1s.8 0 1.3 0h2c1.7.1 3.4.2 5 .4 24.9 3.3 44.4 24.6 45.1 50.2 0 1.5 0 3.1-.1 4.6 0 .4-.1.8-.1 1.2v.4c-.1 1-.2 2-.4 3 2-1 3.8-2.3 5.5-3.8-.1-1.3-.2-2.6-.2-4 0-21.4 12.9-39.8 31.4-47.8 2.6-6.4 4-13.5 3.8-21-.7-27.3-22.8-49.6-50.1-50.6-29.4-1.1-53.5 22.2-53.9 51.3v.7c0 .4 0 .8.1 1.2"/>
            <path class="st2" d="M955.3 1101.9c1.1-.1 2.2-.2 3.4-.2h3.3c3 .1 5.9.5 8.7 1.1 23.1 4.8 40.7 25.2 41.4 49.5.1 2.1 0 4.2-.2 6.2-.1 1-.2 1.9-.4 2.8 0 .2-.1.5-.1.7-.1.4-.2.9-.2 1.3 2.1-.5 4.2-1.4 6.2-2.5-.3-2.4-.5-4.8-.5-7.2 0-23.5 15.6-43.4 37-49.8 1.9-5.2 2.9-10.7 3.1-16.5v-2.5c-.7-27.3-22.8-49.6-50.1-50.6-29.4-1.1-53.5 22.2-53.9 51.3v1.4c-.1 5.2.8 10.3 2.3 15z"/>
            <path class="st2" d="M800.3 1163.9c-.6-3.3-1-6.7-1-10.2 0-27.1 20.7-49.3 47.2-51.8 1.5-4.7 2.4-9.8 2.4-15v-2c-.7-27.3-22.8-49.6-50.1-50.6-29.6-1.1-53.9 22.6-53.9 52 0 5.4.9 10.7 2.4 15.6.4 0 .8.1 1.2.1.4 0 .8.1 1.2.2.4.1.8.1 1.2.2 2 .3 3.9.8 5.8 1.3.8.2 1.5.4 2.3.7h.1c.4.1.8.3 1.2.4.4.1.8.3 1.1.4s.8.3 1.1.5c.4.2.7.3 1.1.5 1.5.7 2.9 1.4 4.3 2.2 15.5 8.7 26.1 25.2 26.6 43.9 0 2.1 0 4.2-.2 6.2 0 .5-.1 1-.2 1.5-.1.4-.1.9-.2 1.3s-.1.8-.2 1.2c-.1.4-.1.8-.2 1.2 1.1.2 2.3.3 3.4.3 1.1.1 2.3.1 3.4-.1z"/>
            <path class="st2" d="M851.2 1101.7h2c4.7.2 9.2 1 13.5 2.3 20.7 6.5 36 25.7 36.6 48.3 0 2.1 0 4.2-.2 6.2 0 .5-.1 1.1-.2 1.6v.1c-.1.5-.1 1-.2 1.5-.1.4-.1.8-.2 1.2 0 .3-.1.6-.2.8 0 .1-.1.2-.1.4 2.2-.1 4.5-.5 6.6-1.2-.5-3-.8-6.1-.8-9.2 0-25.4 18.2-46.5 42.2-51.1 1.6-4.9 2.6-10.2 2.7-15.7v-2.1c-.7-27.3-22.8-49.6-50.1-50.6-29.4-1.1-53.5 22.2-53.9 51.3v1.4c.1 5.2.9 10.1 2.3 14.8z"/>
        </g>
    </g>
</svg>
