<svg xmlns="http://www.w3.org/2000/svg" viewBox="0 0 1920 1920">
    <style>
        .st0{fill:#fff}.st1{fill:none;stroke:#231f20;stroke-width:50;stroke-linecap:round;stroke-linejoin:round;stroke-miterlimit:10}
    </style>
    <path class="st0" d="M1537.7 398.9s164.2-61.1 165.7 436.4v7.2c-1.6 497.5-165.7 436.4-165.7 436.4-136.5-175.5-339.6-251.9-518.4-251.9h-104V650.8h104c178.8 0 381.9-76.4 518.4-251.9z" id="Layer_2"/>
    <path class="st0" d="M915.3 650.8v376.3H379V650.8h536.3zm-621.9 62l1.1 1.4v249.5l-1.1 1.4 75.9 62h9.8V650.8h-9.8l-75.9 62zm0 0l-3.7 3h-73.1v246.3h73.1l3.7 3 1.1-1.4V714.2l-1.1-1.4z" id="Layer_3"/>
    <path class="st0" d="M870.7 1507.2H713.8l-166.1-480.1H875l-80 65.8 34.1 89.4-40.6 61.8 82.2 263.1z" id="Layer_4"/>
    <g id="STROKES">
        <g id="XMLID_2_">
            <path class="st1" d="M915.3 1027.1h104c178.8 0 381.9 76.4 518.4 251.9 0 0 164.2 61.1 165.7-436.4v-7.2c-1.6-497.5-165.7-436.4-165.7-436.4-136.5 175.5-339.6 251.9-518.4 251.9H369.2l-75.9 62-3.7 3h-73.1v246.3h73.1l3.7 3 75.9 62H875c13.8-.1 27.3-.1 40.3-.1z"/>
            <path class="st1" d="M915.3 650.8v376.3"/>
            <path class="st1" d="M379 650.8v376.3"/>
            <path class="st1" d="M294.5 714.2v249.5"/>
            <path class="st1" d="M870.7 1507.2H713.8l-166.1-480.1"/>
            <path class="st1" d="M870.7 1507.2l-82.1-263.3 40.6-61.7-34.1-89.4 79.9-65.7"/>
        </g>
    </g>
</svg>
