<svg xmlns="http://www.w3.org/2000/svg" viewBox="0 0 1920 1920">
    <style>
        .st0{fill:#fff}.st1{fill:none;stroke:#231f20;stroke-width:50;stroke-linecap:round;stroke-linejoin:round;stroke-miterlimit:10}
    </style>
    <path class="st0" d="M297 1124.7s2.2-1.2 6.5-3.6l130.9 252.4-76.4-13.9-48.4 26.7-43.6-79-2.7-4.8-43.6-79 48.4-26.7 28.9-72.1zm137.4 248.9s50.2-27.7 118-65.2c65.6-36.2 147.6-81.5 216.5-119.5 9.1-5 18-10 26.6-14.7L658.2 925.3C532 995 340.9 1100.5 303.5 1121.1l130.9 252.5z" id="Layer_6"/>
    <path class="st0" d="M1249.5 764.3c180.6 329.6 49.7 349.1 49.7 349.1-154.4-66.2-316.6-42.6-434.8 22.7-18.7 10.3-42.3 23.4-68.8 38L658.2 925.3c26.5-14.6 50-27.6 68.8-38 118.2-65.3 224.7-190 250.9-355.9 0 0 86.2-100.4 269 228.1.4.8.9 1.6 1.3 2.4.4.8.8 1.6 1.3 2.4z" id="Layer_7"/>
    <path class="st0" d="M942 1508.6l-104.4 56.7-285.2-256.9c65.6-36.2 147.6-81.5 216.5-119.5l-28.9 72.7 55.2 46.6-4.3 55.7L942 1508.6z" id="Layer_8"/>
    <g id="STROKES">
        <g id="XMLID_2_">
            <path class="st1" d="M303.5 1121.1c-4.2 2.3-6.5 3.6-6.5 3.6l-28.9 72.1-48.4 26.7 43.6 79 2.7 4.8 43.6 79 48.4-26.7 76.4 13.9s50.2-27.7 118-65.2c65.6-36.2 147.6-81.5 216.5-119.5 9.1-5 18-10 26.6-14.7 26.5-14.6 50-27.6 68.8-38 118.2-65.3 280.5-88.9 434.8-22.7 0 0 130.9-19.5-49.7-349.1-.4-.8-.9-1.6-1.3-2.4-.4-.8-.9-1.6-1.3-2.4-182.7-328.5-269-228.1-269-228.1C951.7 697.3 845.2 822 727 887.3c-18.7 10.3-42.3 23.4-68.8 38-126.3 69.7-317.4 175.2-354.7 195.8"/>
            <path class="st1" d="M658.2 925.3l137.4 248.9"/>
            <path class="st1" d="M303.5 1121.1l130.9 252.5"/>
            <path class="st1" d="M942 1508.6l-104.4 56.7-285.1-256.9"/>
            <path class="st1" d="M942 1508.6l-151.1-144.7 4.4-55.7-55.3-46.6 28.9-72.7"/>
            <path class="st1" d="M1319.7 572.7c104 30 164.3 137.7 134.6 240.4"/>
            <path class="st1" d="M1362.5 466.6c158.2 45.6 247.8 216.6 200.2 381.8"/>
            <path class="st1" d="M1404.1 354.7c216.6 62.5 342.2 286.8 280.4 500.9"/>
        </g>
    </g>
</svg>
