<svg xmlns="http://www.w3.org/2000/svg" viewBox="0 0 1920 1920">
    <style>
        .st0{fill:#fff}.st1{fill:none;stroke:#231f20;stroke-width:50;stroke-linecap:round;stroke-linejoin:round;stroke-miterlimit:10}
    </style>
    <path class="st0" d="M1316.7 599.6c-91.9 35.7-220.5-10.2-231-14-2.5-2.6-4.8-4.7-7-6.3-51.5-37.2-114.7-36.9-114.7-36.9s-5.2 0-13.8.9l-.1-.9c-139.2-18.5-242.6 80.1-244.1 81.5 1.3-2 96.7-151.4 8.6-128.7-88.7 22.9-131.6-45.8-131.6-45.8 72.9 12.9 137.3-154.5 218.8-170.2 59.1-11.4 94.8 8.6 109.9 20.4l-7.8 8.6c-19.9 23.7-32.5 58.1-32.5 96.4 0 71.4 43.6 129.2 97.4 129.2 42.6 0 78.9-36.3 92.1-86.9l5.4-23.6c19 7.4 40 13.5 63 17.6 70.8 12.5 146.8 7.7 217.9 7.4 17.2 45.8 154 148.5 154 148.5s-88.7-34.4-184.5 2.8zM920.2 307.5s44.8 76.3 146.1 115.8c19 7.4 40 13.5 63 17.6 70.8 12.5 146.8 7.7 217.9 7.4 75.4-.4 145.2 4.1 196.8 39.5 0 0-42.9-120.2-171.7-120.2 0 0 168.7-40 228.8-20.1-6.4-2.8-589.9-259.2-680.9-40z" id="Layer_9"/>
    <path class="st0" d="M1066.3 423.3l-5.4 23.6c-13.2 50.6-49.5 86.9-92.1 86.9-53.8 0-97.4-57.9-97.4-129.2 0-38.3 12.5-72.7 32.5-96.4l7.8-8.6c5.8 4.5 8.5 7.8 8.5 7.8s44.8 76.4 146.1 115.9z" id="Layer_10"/>
    <path class="st0" d="M966.1 732.1c57-106.4 105.6.5 105.6.5l.5.5c27.2 95.8-60.3 143.1-42.1 182.8 0 0 76.7 143.1 36.4 300.4-40.3 157.4-36 186.9-36 186.9l-60.4 125.9-68.3-125.9s4.2-29.6-36-186.9c-40.3-157.4 36.7-300.4 36.7-300.4 18.1-39.7-69.3-87-42.1-182.8l.2-.5c-.1 0 48.5-106.9 105.5-.5zm4 797.1l102.8 170.7c53-200.3-42.4-296.6-42.4-296.6l-60.4 125.9zm-110.7 170.7l110.7-170.7-68.3-125.9s-95.4 96.3-42.4 296.6z" id="Layer_11"/>
    <g id="STROKES">
        <path class="st1" d="M1601.2 347.5c-.1 0-.1 0 0 0"/>
        <path class="st1" d="M1066.3 423.3l-5.4 23.6c-13.2 50.6-49.5 86.9-92.1 86.9-53.8 0-97.4-57.9-97.4-129.2 0-38.3 12.5-72.7 32.5-96.4l7.8-8.6"/>
        <path class="st1" d="M1601.1 347.5c-6.4-2.8-589.9-259.1-680.9-40 0 0 44.8 76.3 146.1 115.8 19 7.4 40 13.5 63 17.6 70.8 12.5 146.8 7.7 217.9 7.4 75.4-.4 145.2 4.1 196.8 39.5 0 0-42.9-120.2-171.7-120.2 0-.1 168.7-40.1 228.8-20.1"/>
        <path class="st1" d="M705.9 623.9c1.5-1.4 104.9-100 244.1-81.5"/>
        <path class="st1" d="M920.2 307.5s-2.8-3.3-8.5-7.8c-15.2-11.9-50.8-31.8-109.9-20.4C720.3 295 655.9 462.4 583 449.5c0 0 42.9 68.7 131.6 45.8 88.1-22.7-7.3 126.7-8.6 128.7"/>
        <path class="st1" d="M1085 585.3s.2.1.7.2c10.5 3.9 139.2 49.7 231 14 95.8-37.2 184.5-2.9 184.5-2.9s-136.9-102.8-154-148.5"/>
        <path class="st1" d="M673.3 963.2s-22.9 57.2-8.6 91.5"/>
        <path class="st1" d="M964 542.4s-5.2 0-13.8.9c-20.5 2.2-60.4 9.8-96.6 36-51.6 37.2-177.4 373.4-177.4 373.4"/>
        <path class="st1" d="M1258.9 963.2s22.9 57.2 8.6 91.5"/>
        <path class="st1" d="M964 542.4s63.2-.3 114.7 36.9c2.2 1.6 4.5 3.7 7 6.3 55 58.8 170.4 367.1 170.4 367.1"/>
        <path class="st1" d="M1072.2 733.1c27.2 95.8-60.3 143.1-42.1 182.8 0 0 76.7 143.1 36.4 300.4-40.3 157.4-36 186.9-36 186.9s95.4 96.3 42.4 296.6l-102.8-170.7-110.7 170.7c-53-200.3 42.4-296.6 42.4-296.6s4.2-29.6-36-186.9c-40.3-157.4 36.7-300.4 36.7-300.4 18.1-39.7-69.3-87-42.1-182.8"/>
        <path class="st1" d="M860.5 732.6s48.6-106.9 105.6-.5c.1.2.2.3.3.5"/>
        <path class="st1" d="M1071.7 732.6s-48.6-106.9-105.6-.5c-.1.2-.2.3-.3.5"/>
        <path class="st1" d="M901.8 1403.3l68.3 125.9 60.3-125.9"/>
    </g>
</svg>
