<svg xmlns="http://www.w3.org/2000/svg" viewBox="0 0 1920 1920">
    <style>
        .st0{fill:#fff}.st1{fill:none;stroke:#231f20;stroke-width:50;stroke-linecap:round;stroke-linejoin:round;stroke-miterlimit:10}
    </style>
    <path class="st0" d="M852.5 247.3c206.8-83.7 302.8 43.8 302.8 43.8s-33.5 82.7-153.7 128.8c0 33.7 10.1 65.6 26.5 89.9 0 0-125.7 69.7-252.3 25.8-59.7-20.7-214.8 42.4-216.9 43.2 59.8-53.3 158.2-119.8 65-118.5-93.2 1.3-105.5-65.2-105.5-65.2 112.5 8 242.7-110.8 334.1-147.8zm352.1 177.8c0 28.2-7 54.3-18.9 75.6 213-225-30.5-209.6-30.5-209.6 27 23.4 49.4 89.1 49.4 134z" id="Layer_2"/>
    <g id="Layer_3">
        <path class="st0" d="M1155.2 291.1c27 23.4 49.4 89.1 49.4 134 0 28.2-7 54.3-18.9 75.6-6.9 12.5-15.6 23.3-25.4 31.9-16.3 14.2-36 22.5-57.2 22.5-21.2 0-40.8-9-57.1-24.2-6.6-6.1-12.6-13.2-18-21.1-16.5-24.3-26.5-56.2-26.5-89.9 120.2-46.1 153.7-128.8 153.7-128.8z"/>
        <path class="st0" d="M527 719.4c9.2-17.2 35-12.6 37.7 6.7 3 21.1 9.1 45.6 21.6 67.8 30.2 53.7 164.4 73.8 164.4 73.8L869.5 676c18.4-29.8 48-50.9 82.2-58.6l61.6-14c19.1-4.3 32.7-21.4 32.7-41V531c16.3 15.1 36 24.2 57.1 24.2 21.2 0 40.9-8.3 57.2-22.5v29.8c0 19.6 13.6 36.7 32.7 41l61.6 14c34.1 7.8 63.7 28.9 82.2 58.6l118.8 191.7s134.2-20.1 164.4-73.8c12.5-22.2 18.7-46.7 21.6-67.8 2.7-19.3 28.4-23.9 37.7-6.7 17.5 32.6 30 80.6 5.4 138.7 0 0-212.3 96.9-225.8 120.4-13.4 23.5-185.6-154.6-185.6-154.6 25.8-31.1 0-81.9-46.3-62.6 0 0 12-58.6-32-58.6h-.2c-43.9 0-31.9 58.6-31.9 58.6-47.9-20-73.9 35.3-43.3 65.9 30.6 30.6 78.7 55.8 78.7 55.8s30.5-18.5 58.5-43.1l-27.2 207.3c-11-2.6-23-1.8-34.5 3.2l-81.5 35.9-81.5-35.9c-7.3-3.2-14.8-4.7-22.1-4.7-5.2 0-10.4.8-15.3 2.2l-15.3-187.3c20.1 13.5 36.9 22.3 36.9 22.3s41.4-25.1 72-55.8c30.6-30.6 4.7-85.9-43.3-65.9 0 0 12-58.6-32-58.6h-.2c-43.9 0-32 58.6-32 58.6-45.8-19.1-71.5 30.4-47.1 61.6-1.8 1.8-173 179-186.4 155.6-13.4-23.5-225.7-120.4-225.7-120.4C497 800 509.5 752 527 719.4z"/>
    </g>
    <path class="st0" d="M1119.6 827.1c-30.6-30.6-4.7-85.9 43.3-65.9 0 0-12-58.6 31.9-58.6h.2c43.9 0 32 58.6 32 58.6 46.3-19.3 72.1 31.5 46.3 62.6-.9 1.1-1.9 2.2-3 3.3-4.4 4.3-8.9 8.6-13.6 12.7-28 24.6-58.5 43.1-58.5 43.1s-48-25.1-78.6-55.8zm-182 0c12.5 12.5 27.9 24.1 41.8 33.4 20.1 13.5 36.9 22.3 36.9 22.3s41.4-25.1 72-55.8c30.6-30.6 4.7-85.9-43.3-65.9 0 0 12-58.6-32-58.6h-.2c-43.9 0-32 58.6-32 58.6-45.8-19.1-71.5 30.4-47.1 61.6 1.2 1.6 2.5 3.1 3.9 4.4z" id="Layer_4"/>
    <path class="st0" d="M1010 1045.6c7.3 0 14.8 1.5 22.1 4.7l81.5 35.9 81.5-35.9c11.5-5.1 23.5-5.8 34.5-3.2 23.2 5.5 41.9 26 42.3 52.5l-16.7 7.3-141.9 62.2-132.8-58.4-25.3-11.1c.4-25.5 17.6-45.3 39.4-51.8 5-1.4 10.1-2.2 15.4-2.2z" id="Layer_5"/>
    <path class="st0" d="M213.9 1404.1c112 71.7 117-59.1 215.2-73 98.2-13.8 117 84.3 117 84.3C812.5 1558 987.2 1178 980.6 1110.7l132.8 58.4 141.9-62.2c57.6 467.1-415.9 538.9-658.5 431.7-29.9-13.2-56.3-29.2-77.8-47.4-1.2.2-2.5.5-3.7.7-293.4 54.7-301.4-87.8-301.4-87.8zm301.3 87.8c-274.5 120-210.7 210.1-210.7 210.1 52.1-122.3 130-17 218.9-60.9 88.2-43.5 73.5-101.6 73.2-102.5-29.9-13.2-56.3-29.2-77.8-47.4-1.2.3-2.4.5-3.6.7z" id="Layer_6"/>
    <g id="STROKES">
        <path class="st1" d="M1155.2 291.1c27 23.4 49.4 89.1 49.4 134 0 28.2-7 54.3-18.9 75.6-6.9 12.5-15.6 23.3-25.4 31.9-16.3 14.2-36 22.5-57.2 22.5-21.2 0-40.8-9-57.1-24.2-6.6-6.1-12.6-13.2-18-21.1-16.5-24.3-26.5-56.2-26.5-89.9"/>
        <path class="st1" d="M558.8 578.9c59.8-53.3 158.2-119.8 65-118.5-93.2 1.3-105.5-65.2-105.5-65.2 112.5 8 242.7-110.8 334.1-147.8 206.8-83.7 302.8 43.8 302.8 43.8s243.5-15.4 30.5 209.6"/>
        <path class="st1" d="M1028 509.8s-125.7 69.7-252.3 25.8C716 514.9 560.9 578 558.8 578.8"/>
        <path class="st1" d="M1013 702.6c43.9 0 32 58.6 32 58.6 47.9-20 73.9 35.3 43.3 65.9-30.6 30.6-72 55.8-72 55.8s-16.8-8.8-36.9-22.3c-13.9-9.3-29.2-20.9-41.8-33.4-1.4-1.4-2.7-2.8-3.8-4.3-24.4-31.2 1.3-80.7 47.1-61.6 0 0-12-58.6 32-58.6"/>
        <path class="st1" d="M1195.1 702.6c43.9 0 32 58.6 32 58.6 46.3-19.3 72.1 31.5 46.3 62.6-.9 1.1-1.9 2.2-3 3.3-4.4 4.3-8.9 8.6-13.6 12.7-28 24.6-58.5 43.1-58.5 43.1s-48.1-25.1-78.7-55.8c-30.6-30.6-4.7-85.9 43.3-65.9 0 0-12-58.6 31.9-58.6"/>
        <path class="st1" d="M1255.2 1106.9l-141.9 62.2-132.8-58.4-25.3-11.1c.4-25.5 17.6-45.3 39.4-51.8 4.9-1.4 10.1-2.2 15.3-2.2 7.3 0 14.8 1.5 22.1 4.7l81.5 35.9 81.5-35.9c11.5-5.1 23.5-5.8 34.5-3.2 23.2 5.5 41.9 26 42.3 52.5l-16.6 7.3z"/>
        <path class="st1" d="M596.7 1538.6c-29.9-13.2-56.3-29.2-77.8-47.4-1.2.2-2.5.5-3.7.7-293.3 54.7-301.3-87.8-301.3-87.8 112 71.7 117-59.1 215.2-73 98.2-13.8 117 84.3 117 84.3C812.5 1558 987.2 1178 980.6 1110.7"/>
        <path class="st1" d="M1255.2 1106.9c57.6 467.1-415.9 538.9-658.5 431.7"/>
        <path class="st1" d="M1160.3 532.6v29.8c0 19.6 13.6 36.7 32.7 41l61.6 14c34.1 7.8 63.7 28.9 82.2 58.6l118.8 191.7s134.2-20.1 164.4-73.8c12.5-22.2 18.7-46.7 21.6-67.8 2.7-19.3 28.4-23.9 37.7-6.7 17.5 32.6 30 80.6 5.4 138.7 0 0-212.3 96.9-225.8 120.4-13.4 23.5-185.6-154.6-185.6-154.6"/>
        <path class="st1" d="M1046 531v31.4c0 19.6-13.6 36.7-32.7 41l-61.6 14c-34.1 7.8-63.7 28.9-82.2 58.6L750.7 867.7s-134.2-20.1-164.4-73.8c-12.5-22.2-18.7-46.7-21.6-67.8-2.7-19.3-28.4-23.9-37.7-6.7-17.5 32.6-30 80.6-5.4 138.7 0 0 212.3 96.9 225.8 120.4 13.4 23.4 184.6-153.8 186.4-155.6"/>
        <path class="st1" d="M517.6 1490.9c-.8.3-1.6.7-2.4 1.1-274.5 119.9-210.7 210-210.7 210 52.1-122.3 130-17 218.9-60.9 88.2-43.5 73.5-101.6 73.2-102.5"/>
        <path class="st1" d="M847.7 449.6c62.5-2.6 113.1-14.1 153.7-29.7 120.2-46.1 153.7-128.8 153.7-128.8"/>
        <path class="st1" d="M979.3 860.6l15.4 187.2"/>
        <path class="st1" d="M1256.8 839.8l-27.2 207.3"/>
    </g>
</svg>
