<svg xmlns="http://www.w3.org/2000/svg" viewBox="0 0 1920 1920">
    <style>
        .st0{fill:#fff}.st1{fill:none;stroke:#231f20;stroke-width:50;stroke-linecap:round;stroke-linejoin:round;stroke-miterlimit:10}
    </style>
    <path class="st0" d="M1039.1 222.2c77.7-19.4 69.4 37.3 61.3 64.8-118.3 2.8-50 112.7-112 166.3-19.1 16.5-35.6 42.4-50.1 74.3-32.5 71.5-55.3 173.1-76.7 266.7-31 135.3-107.1 205.7-107.1 205.7C562.8 1132.4 467 957.7 467 957.7 627.7 1014.1 686.8 752 686.8 752c-56.4 16.9-78.9-31-78.9-31 53.5 16.9 200.1-180.4 219.8-324.1 19.8-143.7 109.9-149.3 211.4-174.7z" id="Layer_12"/>
    <path class="st0" d="M1100.4 287c-2.5 8.4-4.9 14.1-4.9 14.1l31 166.3-62 19.7-49.6 68.8c-19.1-20.6-48.5-32.3-76.6-28.3 14.5-31.9 30.9-57.8 50.1-74.3 62-53.5-6.4-163.4 112-166.3zm254.4 746.5c-55.9-51.1-122.9-109.1-164.1-144.5-23.5-20.2-38.7-33-38.7-33l-79.1-118-39.6-149.2c-3.3-12.4-9.8-23.5-18.4-32.9-19.1-20.6-48.5-32.3-76.6-28.3-32.5 71.5-55.3 173.1-76.7 266.7-31 135.3-107.1 205.7-107.1 205.7-.7 1-37.9 55.4-45.6 116.4 156.4 46.9 214.8-75.9 220.3-74.2l14.1-146.5s70.4-5.6 67.9-53.4c16.5 25.6 27.9 42.1 27.9 42.1l42 42 273.8 234.9 2.2 2.2 2.8 124s95.8-84.5 93-152.2c-.4-9.7-44.1-52.5-98.1-101.8z" id="Layer_13"/>
    <path class="st0" d="M1249.5 1379.8c0 3.1-.1 6.1-.1 9.1-.6 39.6-2.9 70.1-4.6 81.7-7.6 51.2-29.3 92.3-56.1 124.7-245.2 56.4-358.1-152.9-358.1-152.9 178.8 95 415-60 418.9-62.6zm105.4-218.5l-273.8-234.9c-88.8 31.8-151 114.6-151.9 115.8-5.5-1.7-63.9 121.1-220.3 74.2-5.6 44.6 4.7 92.8 56.8 125.9 204.9 130.4 388.9-194.4 388.9-194.4 81.7 30.4 95.9 215.4 94.9 331.9 0 3.1-.1 6.1-.1 9.1-.6 39.6-2.9 70.1-4.6 81.7-7.6 51.2-29.3 92.3-56.1 124.7-64.3 77.9-158 106.3-158 106.3s456.5 14.1 295.9-318.4c-.1 0 33-108.4 28.3-221.9zM1190.7 889c41.2 35.4 108.2 93.4 164.1 144.5l.5-.6c-2.3-38.7 23.5-125.1-18.8-156.3-54.5-40.4-83.5-1.9-145.8 12.4z" id="Layer_7"/>
    <g id="STROKES">
        <path class="st1" d="M1249.5 1379.8c-4 2.6-240.1 157.6-419 62.6 0 0 113 209.3 358.1 152.9"/>
        <path class="st1" d="M929.2 1042.3l14.1-146.5s70.4-5.6 67.9-53.4"/>
        <path class="st1" d="M1081.1 926.5c-88.8 31.8-151 114.6-151.9 115.8"/>
        <path class="st1" d="M1188.7 1595.3c-64.3 77.9-158 106.3-158 106.3s456.5 14.1 295.9-318.4c0 0 33-108.4 28.4-221.9"/>
        <path class="st1" d="M754.5 1000c-.7 1-37.9 55.4-45.6 116.4-5.6 44.6 4.7 92.8 56.8 125.9 204.9 130.4 388.9-194.4 388.9-194.4 81.7 30.4 95.9 215.4 94.9 331.9 0 3.1-.1 6.1-.1 9.1-.6 39.6-2.9 70.1-4.6 81.7-7.6 51.2-29.3 92.3-56.1 124.7"/>
        <path class="st1" d="M1014.9 556l49.6-68.8 62-19.7-31-166.3s2.5-5.7 4.9-14.1c8.1-27.6 16.4-84.3-61.3-64.8-101.4 25.4-191.6 31-211.3 174.7C808 540.7 661.5 737.9 607.9 721c0 0 22.5 47.9 78.9 31 0 0-59.2 262.1-219.8 205.7 0 0 95.8 174.7 287.4 42.3"/>
        <path class="st1" d="M1355.3 1033c-2.3-38.7 23.5-125.1-18.8-156.3-54.5-40.4-83.6-1.9-145.9 12.4"/>
        <path class="st1" d="M954.9 748.5c19.7 35.5 40.3 69 56.3 93.8 16.5 25.6 27.9 42.1 27.9 42.1l42 42 273.8 234.9 2.2 2.2 2.8 124s95.8-84.5 93-152.2c-.4-9.8-44.1-52.6-98.1-101.9-55.9-51.1-122.9-109.1-164.1-144.5-23.5-20.2-38.7-33-38.7-33l-79.1-118-39.6-149.2c-3.3-12.4-9.8-23.5-18.4-32.9-19.1-20.6-48.5-32.3-76.6-28.3"/>
        <path class="st1" d="M754.5 1000s76.1-70.5 107.1-205.7c21.4-93.5 44.2-195.2 76.7-266.7 14.5-31.9 30.9-57.8 50.1-74.3 62-53.5-6.3-163.4 112-166.3"/>
        <path class="st1" d="M929.2 1042.3c-5.5-1.7-63.9 121.1-220.3 74.2"/>
    </g>
</svg>
