<svg xmlns="http://www.w3.org/2000/svg" viewBox="0 0 1920 1920">
    <style>
        .st0{fill:#fff}.st1{fill:none;stroke:#231f20;stroke-width:50;stroke-linecap:round;stroke-linejoin:round;stroke-miterlimit:10}
    </style>
    <path class="st0" d="M960 877.9c45.2 0 81.9-36.6 81.9-81.9s-36.6-81.9-81.9-81.9-81.9 36.6-81.9 81.9 36.7 81.9 81.9 81.9zm173.4 455.9c-24.3 11.6-51.6 18.2-80.4 18.2H867c-28.8 0-56-6.5-80.4-18.2-62.8-30-106.2-94.1-106.2-168.4V426.5C680.5 323.5 764 240 867 240h186c103 0 186.5 83.5 186.5 186.5v738.9c0 74.3-43.3 138.4-106.1 168.4z" id="Layer_8"/>
    <circle class="st0" cx="960" cy="796" r="81.9" id="Layer_9"/>
    <path class="st0" d="M1038.3 1521H830.4l-43.8-187.2c24.3 11.6 51.6 18.2 80.4 18.2h186c28.8 0 56-6.5 80.4-18.2l-43.8 187.2h-51.3z" id="Layer_10"/>
    <path class="st0" d="M881.7 1520.9h156.7v182.2H881.7z" id="Layer_11"/>
    <g id="STROKES">
        <g id="XMLID_1_">
            <path class="st1" d="M1133.4 1333.8c-24.3 11.6-51.6 18.2-80.4 18.2H867c-28.8 0-56-6.5-80.4-18.2-62.8-30-106.2-94.1-106.2-168.4V426.5C680.5 323.5 764 240 867 240h186c103 0 186.5 83.5 186.5 186.5v738.9c0 74.3-43.3 138.4-106.1 168.4z"/>
            <circle class="st1" cx="960" cy="796" r="81.9"/>
            <path class="st1" d="M686.6 515.7h546.8"/>
            <path class="st1" d="M686.6 606.3h546.8"/>
            <path class="st1" d="M686.6 696.9h546.8"/>
            <path class="st1" d="M686.6 787.5H865"/>
            <path class="st1" d="M1044.9 787.5h178.4"/>
            <path class="st1" d="M686.6 878.1h546.8"/>
            <path class="st1" d="M686.6 968.7h546.8"/>
            <path class="st1" d="M686.6 1059.3h546.8"/>
            <path class="st1" d="M821 253.1v105"/>
            <path class="st1" d="M913.7 250v160.7"/>
            <path class="st1" d="M1099 253.1v105"/>
            <path class="st1" d="M1006.3 250v160.7"/>
            <path class="st1" d="M1099 1343.5v-105"/>
            <path class="st1" d="M1006.3 1346.6V1186"/>
            <path class="st1" d="M821 1343.5v-105"/>
            <path class="st1" d="M913.7 1346.6V1186"/>
            <path class="st1" d="M786.4 1333l.2.8 43.8 187.2h259.2l43.8-187.2.2-.8"/>
            <path class="st1" d="M881.7 1520.9v182.4"/>
            <path class="st1" d="M1038.3 1520.9v182.4"/>
        </g>
    </g>
</svg>
