<svg xmlns="http://www.w3.org/2000/svg" viewBox="0 0 1920 1920">
    <style>
        .st0{fill:#fff}.st1{fill:none;stroke:#231f20;stroke-width:50;stroke-linecap:round;stroke-linejoin:round;stroke-miterlimit:10}
    </style>
    <path class="st0" d="M1703.1 577.6v764.8H216.9V577.6h1486.2zM1601 1191.8V728.2h-209.5v463.6H1601zm-407.2-1V729.2h-102v-81.8h-120v81.8H324.6v461.5h647.3v81.8h120v-81.8h101.9z" id="Layer_7"/>
    <path class="st0" d="M1193.8 729.2v461.5h-102V729.2h102zm-869.2 0v461.5h647.3V729.2H324.6z" id="Layer_8"/>
    <path class="st0" d="M1091.8 1190.8v81.7h-120v-625h120v81.7z" id="Layer_9"/>
    <path class="st0" d="M1391.5 728.2H1601v463.6h-209.5z" id="Layer_10"/>
    <g id="STROKES">
        <g id="XMLID_2_">
            <path class="st1" d="M216.9 577.6H1703v764.8H216.9z"/>
            <path class="st1" d="M1292.8 584v752.1"/>
            <path class="st1" d="M1391.5 728.2H1601v463.6h-209.5z"/>
            <path class="st1" d="M1399.2 891.1h190.4"/>
            <path class="st1" d="M1399.2 989.2h190.4"/>
            <path class="st1" d="M1399.2 1087.3h190.4"/>
            <path class="st1" d="M1496.2 899.2v291"/>
            <path class="st1" d="M1091.8 729.2h102v461.6h-102"/>
            <path class="st1" d="M971.8 1190.8H324.6V729.2h647.2"/>
            <path class="st1" d="M316.4 1401.9v-48"/>
            <path class="st1" d="M1603.6 1401.9v-48"/>
            <path class="st1" d="M971.8 1190.8v81.7h120v-625h-120v81.7z"/>
        </g>
    </g>
</svg>
