<svg id="Layer_1" xmlns="http://www.w3.org/2000/svg" viewBox="0 0 1920 1920">
    <style>
        .st0{fill:#fff}.st1{fill:none;stroke:#231f20;stroke-width:50;stroke-linecap:round;stroke-linejoin:round;stroke-miterlimit:10}
    </style>
    <g id="Layer_11">
        <path class="st0" d="M1292.9 655.1V1377h410.2V655.1h-410.2zm280.1 552.2h-152.4V841H1573v366.3z"/>
        <path class="st0" d="M216.9 655.1V1377h956V655.1h-956zm832.1 432.7c0 66-53.5 119.5-119.5 119.5H472.1c-66 0-119.5-53.5-119.5-119.5h-.1V960.5c0-66 53.5-119.5 119.5-119.5h457.5c66 0 119.5 53.5 119.5 119.5v127.3z"/>
    </g>
    <path class="st0" d="M568.2 841h361.3c66 0 119.5 53.5 119.5 119.5v127.3c0 66-53.5 119.5-119.5 119.5H869v-1.3l64-129H493l82 128v2.3H472.1c-66 0-119.5-53.5-119.5-119.5V960.5c0-66 53.5-119.5 119.5-119.5h96.1z" id="Layer_12"/>
    <path class="st0" d="M1172.8 655.1h120V1377h-120z" id="Layer_13"/>
    <path class="st0" d="M1420.6 841H1573v366.3h-152.4z" id="Layer_14"/>
    <path class="st0" d="M933 1077l-64 129v1.3H575v-2.3l-82-128z" id="Layer_15"/>
    <path class="st0" d="M429 1486H316.4v-109.1H429V1486zm1172-109.1h-112.6V1486H1601v-109.1z" id="Layer_16"/>
    <g id="STROKES">
        <g id="XMLID_2_">
            <path class="st1" d="M661.2 956.2c-45.5-1.7-93.2-32.3-98.3-77.6-1.5-13.4.6-25.9 5.3-37.7 13.9-34.9 50.6-62.8 84.4-83.9 40.3-25.2 85.7-57.5 94-102 1-5.4 1.5-11 1.3-16.7-1.2-41.3-35.7-74.3-72.4-93.1-36.8-18.9-78-28.6-112.9-50.7-34.9-22-63.7-62.4-54-102.6 10.6-43.6 58.3-64.7 98.4-84.9 40-20.2 82.9-58 71.4-101.3"/>
            <path class="st1" d="M849.2 956.2c-45.5-1.7-93.2-32.3-98.3-77.6-1.5-13.4.6-25.9 5.3-37.7 13.9-34.9 50.6-62.8 84.4-83.9 40.3-25.2 85.7-57.5 94-102 1-5.4 1.5-11 1.3-16.7-1.2-41.3-35.7-74.3-72.4-93.1-36.8-18.9-78-28.6-112.9-50.7-34.9-22-63.7-62.4-54-102.6 10.6-43.6 58.3-64.7 98.4-84.9 40-20.2 82.9-58 71.4-101.3"/>
            <path class="st1" d="M1292.8 655.1h410.3v721.8H216.9V655.1h955.9z"/>
            <path class="st1" d="M1292.8 655.1v721.8"/>
            <path class="st1" d="M1172.8 655.1v721.8"/>
            <path class="st1" d="M756.2 841h173.3c66 0 119.5 53.5 119.5 119.5v127.3c0 66-53.5 119.5-119.5 119.5H472.1c-66 0-119.5-53.5-119.5-119.5V960.5c0-66 53.5-119.5 119.5-119.5h284.1z"/>
            <path class="st1" d="M1420.6 841H1573v366.3h-152.4z"/>
            <path class="st1" d="M316.4 1377.4V1486H429v-109.5"/>
            <path class="st1" d="M1488.4 1377.4V1486H1601v-109.5"/>
            <path class="st1" d="M575 1205l-82-128h440l-64 129"/>
        </g>
    </g>
</svg>
