<svg xmlns="http://www.w3.org/2000/svg" viewBox="0 0 1920 1920">
    <style>
        .st0{fill:#fff}.st1{fill:none;stroke:#231f20;stroke-width:50;stroke-linecap:round;stroke-linejoin:round;stroke-miterlimit:10}
    </style>
    <path class="st0" d="M1206.7 1266.2c-56.8 0-102.9 46.1-102.9 102.9s46.1 102.9 102.9 102.9c56.8 0 102.9-46.1 102.9-102.9s-46.1-102.9-102.9-102.9z" id="Layer_2"/>
    <path class="st0" d="M534.8 1179.3H1049v-64H534.8v64zm389-817.2l68.9 68.9 18.7 18.7 25.9 25.9 44.6-44.6-139.5-139.5-44.6 44.6 26 26z" id="Layer_4"/>
    <path class="st0" d="M1156.4 304.5l-87.5-87.5-100.5 100.5 87.6 87.6 100.4-100.6zm-145.1 145.1L992.7 431l-68.9-68.9-124.7 124.6 87.1 88 125.1-125.1zM905.9 690.8H611.8l-.2 38.9L800 796.8c34.4 9.7 64 21.5 89.6 34.8 161.6 83.5 159.3 221.6 159.3 221.6v244.5c-1.4 95.5-66.8 178.3-159.1 203l-355 94.9v107.5h853.5c0-987.3-482.4-1012.3-482.4-1012.3zm300.8 781.2c-56.8 0-102.9-46.1-102.9-102.9s46.1-102.9 102.9-102.9c56.8 0 102.9 46.1 102.9 102.9s-46.1 102.9-102.9 102.9z" id="Layer_5"/>
    <path class="st0" d="M886.2 574.8l-87.1-88-20.8-21-166.5 163v61.9h277.8V578.2l-3.4-3.4zM611.7 729.7V864h278v-32.4c-25.5-13.2-55.2-25-89.6-34.8l-188.4-67.1z" id="Layer_6"/>
    <path class="st0" d="M696.2 864v81.9l7.2 36.4h88.5l7.2-36.4V864z" id="Layer_7"/>
    <g id="STROKES">
        <circle class="st1" cx="1206.7" cy="1369.1" r="41.4"/>
        <circle class="st1" cx="1206.7" cy="1369.1" r="102.9"/>
        <path transform="rotate(-45.001 1062.404 311.002)" class="st1" d="M991.3 249.1h142.2v123.8H991.3z"/>
        <path class="st1" d="M889.6 578.2v112.6H611.8v-62l166.5-163.1 20.8 21 87.1 88.1z"/>
        <path class="st1" d="M1011.3 449.6L886.2 574.8l-87.1-88.1 124.7-124.6z"/>
        <path transform="rotate(-45.001 989.846 383.558)" class="st1" d="M958.3 284.9h63.1v197.2h-63.1z"/>
        <path class="st1" d="M534.8 1115.3H1049v64H534.8z"/>
        <path class="st1" d="M1388.3 1703.1H534.8v-107.5l355-94.9c92.3-24.7 157.7-107.4 159.1-203v-244.5s2.2-138.1-159.4-221.6c-25.5-13.2-55.2-25-89.6-34.8l-188.4-67.2.2-38.9h294.1c.1.1 482.5 25.2 482.5 1012.4z"/>
        <path class="st1" d="M889.6 831.6V864h-278V729.7L800 796.9c34.5 9.7 64.1 21.5 89.6 34.7z"/>
        <path class="st1" d="M696.2 864v81.9l7.2 36.4h88.5l7.2-36.4V864z"/>
    </g>
</svg>
