<svg xmlns="http://www.w3.org/2000/svg" viewBox="0 0 1920 1920">
    <style>
        .st0{fill:#fff}.st1{fill:none;stroke:#231f20;stroke-width:50;stroke-linecap:round;stroke-linejoin:round;stroke-miterlimit:10}
    </style>
    <path class="st0" d="M1042.6 337H896.4v301.2h146.2V337zM868.1 730.9v63.9h215.5c65.8 0 119.1 53.3 119.1 119.1v597.5H686v191.7h741.5V730.9H868.1zm444.7 652.9c-45.9 0-83.1-37.2-83.1-83.1 0-45.9 37.2-83.1 83.1-83.1 45.9 0 83.1 37.2 83.1 83.1 0 45.9-37.2 83.1-83.1 83.1z" id="Layer_14"/>
    <path class="st0" d="M999.5 217h-59.9v120h59.9V217zm71.4 421.2H868.1V731H1071v-92.8zM731 1079.3v75.8h159.4v122.1h152.2v-122.1h160.1v-75.8H731zm159.3 432.1h152.2v-122.1H890.3v122.1z" id="Layer_15"/>
    <path class="st0" d="M1312.8 1217.7c-45.9 0-83.1 37.2-83.1 83.1 0 45.9 37.2 83.1 83.1 83.1 45.9 0 83.1-37.2 83.1-83.1 0-46-37.2-83.1-83.1-83.1z" id="Layer_16"/>
    <path class="st0" d="M929.4 794.8v130.4c0 21 17 38 38 38h4.3c21 0 38-17 38-38V794.8h-80.3z" id="Layer_17"/>
    <g id="STROKES">
        <path class="st1" d="M1427.5 730.9v780.5h-224.8V913.9c0-65.8-53.3-119.1-119.1-119.1H868.1v-63.9h559.4z"/>
        <path class="st1" d="M686 1511.4h741.5v191.7H686z"/>
        <path class="st1" d="M868.1 638.2h202.8V731H868.1z"/>
        <path class="st1" d="M896.4 337h146.2v301.2H896.4z"/>
        <path class="st1" d="M939.5 217h59.9v120h-59.9z"/>
        <path class="st1" d="M731 1079.3h471.7v75.8H731z"/>
        <path class="st1" d="M890.3 1155.2h152.3v122.1H890.3z"/>
        <path class="st1" d="M890.3 1389.3h152.3v122.1H890.3z"/>
        <path class="st1" d="M1009.6 794.8h-80.3v130.4c0 21 17 38 38 38h4.3c21 0 38-17 38-38V794.8z"/>
        <circle class="st1" cx="1312.8" cy="1300.7" r="83.1"/>
    </g>
</svg>
