<svg xmlns="http://www.w3.org/2000/svg" viewBox="0 0 1920 1920">
    <style>
        .st0{fill:#fff}.st1{fill:none;stroke:#231f20;stroke-width:50;stroke-linecap:round;stroke-linejoin:round;stroke-miterlimit:10}
    </style>
    <path class="st0" d="M726.7 484.6c42.9 8.2 141.7 25.1 226 25.1 87.2 0 197.6-20.6 241.3-29.6-7.9 59.9-38.2 112.7-82.3 149.8-41 34.4-93.9 55.2-151.6 55.2-57.7 0-110.6-20.7-151.6-55.2-43.1-36.1-73-87.3-81.8-145.3zm1-77.5c43.4 8.2 141.3 24.9 225 24.9 85.6 0 193.5-19.9 238.8-29-21.4-108.4-116.9-190-231.5-190-116 0-212.5 83.8-232.3 194.1z" id="Layer_2"/>
    <path class="st0" d="M1213 398.4V476s-7 1.6-19 4c-43.7 8.9-154.1 29.6-241.3 29.6-84.4 0-183.2-16.9-226-25.1-13.7-2.6-21.7-4.3-21.7-4.3v-77.7s8.4 1.8 22.7 4.5c43.4 8.2 141.3 24.9 225 24.9 85.6 0 193.5-19.9 238.8-29 13.6-2.7 21.5-4.5 21.5-4.5z" id="Layer_3"/>
    <path class="st0" d="M1111.6 629.8L1072 1601H849l-40.6-971.2c41 34.4 93.9 55.2 151.6 55.2 57.7 0 110.6-20.7 151.6-55.2zm-106.3 329.4v-57.8c0-12.5-5.1-23.8-13.3-32-8.2-8.2-19.5-13.3-32-13.3-25 0-45.3 20.3-45.3 45.3v57.8c0 25 20.3 45.3 45.3 45.3s45.3-20.3 45.3-45.3z" id="Layer_4"/>
    <path class="st0" d="M1057.1 1601l-21.3 101.7H884.3L862.9 1601h194.2zM992 869.3c-8.2-8.2-19.5-13.3-32-13.3-25 0-45.3 20.3-45.3 45.3v57.8c0 25 20.3 45.3 45.3 45.3s45.3-20.3 45.3-45.3v-57.8c0-12.4-5.1-23.8-13.3-32z" id="Layer_5"/>
    <g id="STROKES">
        <path class="st1" d="M959 685.5c-57.8 0-110.7-20.8-151.6-55.3L848 1601h223l39.6-970.8c-40.9 34.5-93.8 55.3-151.6 55.3zm45.3 273.7c0 25-20.3 45.3-45.3 45.3-25 0-45.3-20.3-45.3-45.3v-57.8c0-25 20.3-45.3 45.3-45.3 12.5 0 23.8 5.1 32 13.3 8.2 8.2 13.3 19.5 13.3 32v57.8z"/>
        <path class="st1" d="M1004.3 901.4v57.8c0 25-20.3 45.3-45.3 45.3-25 0-45.3-20.3-45.3-45.3v-57.8c0-25 20.3-45.3 45.3-45.3 12.5 0 23.8 5.1 32 13.3 8.2 8.1 13.3 19.5 13.3 32z"/>
        <path class="st1" d="M1056.1 1601l-21.3 101.7H883.2L861.9 1601z"/>
        <path class="st1" d="M1004.3 901.4v57.8c0 25-20.3 45.3-45.3 45.3-25 0-45.3-20.3-45.3-45.3v-57.8c0-25 20.3-45.3 45.3-45.3 12.5 0 23.8 5.1 32 13.3 8.2 8.1 13.3 19.5 13.3 32z"/>
        <path class="st1" d="M1213 398.4V476s-7 1.6-19 4c-.5.1-.9.2-1.4.3-44.6 9.1-153.6 29.3-239.9 29.3-84.4 0-183.2-16.9-226-25.1-.2 0-.5-.1-.7-.1-13.2-2.5-21-4.2-21-4.2v-77.7s8.3 1.8 22.4 4.5c.1 0 .2 0 .3.1 43.4 8.2 141.3 24.9 225 24.9 84.6 0 191-19.4 237.2-28.7.6-.1 1.1-.2 1.6-.3 13.6-2.8 21.5-4.6 21.5-4.6z"/>
        <path class="st1" d="M1192.6 480.4c-7.7 59.9-37.9 112.8-82 149.9-41 34.5-93.9 55.3-151.6 55.3-57.8 0-110.7-20.8-151.6-55.3-43-36.2-72.9-87.5-81.4-145.8.2 0 .5.1.7.1 42.9 8.2 141.7 25.1 226 25.1 86.3-.1 195.3-20.3 239.9-29.3z"/>
        <path class="st1" d="M1189.9 403.2c-46.1 9.3-152.6 28.7-237.2 28.7-83.7 0-181.6-16.6-225-24.9-.1 0-.2 0-.3-.1C747.6 297.5 843.6 214.5 959 214.5c114.1 0 209.2 81.1 230.9 188.7z"/>
    </g>
</svg>
