<svg id="Layer_1" xmlns="http://www.w3.org/2000/svg" viewBox="0 0 1920 1920">
    <style>
        .st0{fill:#fff}.st1{fill:none;stroke:#231f20;stroke-width:50;stroke-linecap:round;stroke-linejoin:round;stroke-miterlimit:10}
    </style>
    <path class="st0" d="M492.8 267.3l.3-2.7-48-6.7c-15.7 0-30 6.4-40.3 16.7s-16.7 24.6-16.7 40.3c0 31.5 25.5 57 57 57l48-7.1-.3-2.3s29.5-41.6 0-95.2z"/>
    <path class="st0" d="M493.2 264.7l-.4 2.6c29.5 53.6 0 95.2 0 95.2l.3 2.3L655 341v-53.6l-161.8-22.7z"/>
    <path class="st0" d="M1136.6 1703.8H783.4c0-33.8 79.1-61.2 176.6-61.2s176.6 27.4 176.6 61.2z" id="Layer_7"/>
    <g id="STROKES">
        <path class="st1" d="M960 611v1031.6"/>
        <path class="st1" d="M783.4 1703.8c0-33.8 79.1-61.2 176.6-61.2s176.6 27.4 176.6 61.2H783.4z"/>
        <path class="st1" d="M1099 753l-139-99.3-415.1-296.5"/>
        <path class="st1" d="M493.1 264.6L655 287.4V341l-161.9 23.8-48 7.1c-31.5 0-57-25.5-57-57 0-15.7 6.4-30 16.7-40.3 10.3-10.3 24.6-16.7 40.3-16.7l48 6.7z"/>
        <path class="st1" d="M493.1 264.6l-.4 2.6c29.5 53.6 0 95.2 0 95.2l.3 2.3"/>
        <path class="st1" d="M659 315h30"/>
        <path class="st1" d="M960 829h13.4v158h-26.8V829z"/>
    </g>
</svg>
