<svg xmlns="http://www.w3.org/2000/svg" viewBox="0 0 1920 1920">
    <style>
        .st0{fill:#fff}.st1{fill:none;stroke:#231f20;stroke-width:50;stroke-linecap:round;stroke-linejoin:round;stroke-miterlimit:10}
    </style>
    <g id="Layer_9">
        <path class="st0" d="M769.9 1146.2c-17.8 50.8-44.1 105.4-80 129.7-75.9 51.3-130.4 54.5-132.6 69.5-2.1 15 5.3 58.8 31 77 25.7 18.2 48.1 67.3 17.1 88.7-31 21.4-92.3-18.2-92.3-18.2s-33.9-183.9-33.9-198.8c0-15 181.8-78.8 145.4-128.3-74.8-101.8 25.5-345.3 25.5-345.3 56.8-22.2 112-40.9 146.6-32.3 141.1 35.3 82.3 96.2 279 166.8 196.7 70.6 249.8 19.6 331.4.2 85.8-20.4 122.2 6.4 153 86.4 25.6 66.5-38.8 77.1-58.9 78.2 26.1 40.1 32 114.5-43 123.5 0 0 22.7 172.6 106.1 209 83.4 36.3 114.4 0 141.1 59.9h-183.9s-239.5-254.4-253.4-303.6c0 0-4.2 0-11.8-.2-24.3-.6-83-2.8-148.8-11.4-69.1-9-145.8-25.1-198.6-53.6-112.8-61-110.6-101.7-110.2-105.5-.6 4.2-9.9 54.1-28.8 108.3z"/>
        <path class="st0" d="M1133.6 1412.7c31 0 105.8 63.1 105.8 63.1s-54.5 11.8-89.8 10.7c-35.3-1.1-78-20.3-95.1-43.8-17-23.4 52.5-243.8 53.2-245.8 65.8 8.6 124.6 10.8 148.8 11.4-57.8 22.5-122.9 204.4-122.9 204.4z"/>
        <path class="st0" d="M948.6 1405.2c13.9 6.4 54.5 54.5 0 51.3-54.5-3.2-67.3 35.3-67.3 35.3-13.9-31-111.2-77-114.4-77s34.2-62 44.9-79.1c10.7-17.1-41.8-184.9-41.9-189.6 19-54.2 28.2-104.1 29-108.4-.5 3.8-2.7 44.5 110.2 105.5 0 0 8.6 80.5 1.1 121.9-7.5 41.4-47 122.9-47 122.9s71.5 10.8 85.4 17.2z"/>
    </g>
    <g id="STROKES">
        <g id="XMLID_1_">
            <path class="st1" d="M798.9 1037.8c-.8 4.3-10 54.2-29 108.4-17.8 50.8-44.1 105.4-80 129.7-75.9 51.3-130.4 54.5-132.6 69.5-2.1 15 5.3 58.8 31 77 25.7 18.2 48.1 67.3 17.1 88.7-31 21.4-92.3-18.2-92.3-18.2s-33.9-183.9-33.9-198.8c0-15 181.8-78.8 145.4-128.3-74.8-101.8 25.5-345.3 25.5-345.3"/>
            <path class="st1" d="M798.9 1037.5v.1"/>
            <path class="st1" d="M449.7 634.7c30.3 0 54.9-24.6 54.9-54.9 0-37.9-30.7-68.6-68.6-68.6-47.4 0-85.8 38.4-85.8 85.8 0 59.2 48 107.2 107.2 107.2 74 0 134-60 134-134 0-92.5-75-167.5-167.5-167.5-115.6 0-209.4 93.8-209.4 209.4 0 144.6 117.4 253.3 261.8 261.8 40.6 2.4 108.3-27.7 173.9-53.3 56.8-22.2 112-40.9 146.6-32.3 141.1 35.3 82.3 96.2 279 166.8 196.7 70.6 249.8 19.6 331.4.2 85.8-20.4 122.2 6.4 153 86.4 25.6 66.5-38.8 77.1-58.9 78.2 26.1 40.1 32 114.5-43 123.5 0 0 22.7 172.6 106.1 209 83.4 36.3 114.4 0 141.1 59.9h-183.9s-239.5-254.4-253.4-303.6c0 0-4.2 0-11.8-.2-24.3-.6-83-2.8-148.8-11.4-69.1-9-145.8-25.1-198.6-53.6-112.8-61-110.6-101.7-110.2-105.5v-.1"/>
            <path class="st1" d="M769.9 1146.2c.1 4.7 52.6 172.5 41.9 189.6-10.7 17.1-48.1 79.1-44.9 79.1s100.5 46 114.4 77c0 0 12.8-38.5 67.3-35.3 54.5 3.2 13.9-44.9 0-51.3-13.9-6.4-85.5-17.1-85.5-17.1s39.6-81.5 47-122.9c7.5-41.4-1.1-121.9-1.1-121.9"/>
            <path class="st1" d="M1107.6 1196.9c-.6 1.9-70.2 222.3-53.2 245.8 17.1 23.5 59.9 42.8 95.1 43.8 35.3 1.1 89.8-10.7 89.8-10.7s-74.8-63.1-105.8-63.1c0 0 65.2-181.9 122.9-204.4"/>
            <path class="st1" d="M1444.7 1219.2c-17.1-25.7-35.2-155.2-80.1-145.6"/>
            <path class="st1" d="M1467.3 1045.3s54-39 90 15"/>
        </g>
    </g>
</svg>
