<svg xmlns="http://www.w3.org/2000/svg" viewBox="0 0 1920 1920">
    <style>
        .st0{fill:#fff}.st1{fill:none;stroke:#231f20;stroke-width:50;stroke-linecap:round;stroke-linejoin:round;stroke-miterlimit:10}
    </style>
    <path class="st0" d="M225.2 646.2c56.1-137.2 158.4-97.8 245.3-44.7 4.4-9.5 148.1-322.6 253.5-366.6 107.1-44.6 200.8 8.9 214.1 8.9H983c13.4 0 107.1-53.5 214.1-8.9 107.1 44.6 243.9 371.8 243.9 371.8 88.6-55.6 195.8-102.3 253.8 39.4 58.9 144-225.1 425-247.8 396.2 0 0-46.8 374.7-207.4 450.6 6.1-23.2 9.9-48.4 11.1-75.8.4-8.4.6-16.5.6-24.4 0-8.9-.1-17.5-.5-25.7h.5c0-13.4 120.7-222.8 75.2-404.9-4.5-17.8 111.5-290-98.2-272.1-209.7 17.9-138.3 107.1-263.2 102.6H956c-124.9 4.5-53.5-84.8-263.2-102.6-209.7-17.8-93.7 254.3-98.2 272.1-45.5 182 75.2 391.2 75.2 404.6h.5c-.4 8.7-.5 17.8-.4 27.3.1 7.5.3 15.2.6 23.1 1.3 29.3 5.5 56.1 12.3 80.6-223.1-133.8-208.6-455.3-208.6-455.3H473c-22.7 28.8-306.7-252.1-247.8-396.2z" id="Layer_4"/>
    <path class="st0" d="M1170.3 1167.4s74 40.7 80.5 199.7c.3 8.2.5 16.8.5 25.7 0 0-34.4 44.9-130.3 73.2-41.3 12.2-94.1 21.3-160.5 22.5-61.9-1.1-112-9-152-19.8-102.2-27.7-138.5-74.5-138.5-74.5-.1-9.5.1-18.6.4-27.3 6.5-158.7 80.5-199.4 80.5-199.4 4.5-62.5 93.7-174 209.7-174h.2c115.9-.1 205.1 111.4 209.5 173.9zm-500.4 226.7c.1 7.5.3 15.2.6 23.1 1.3 29.3 5.5 56.1 12.3 80.6 35.3 127.1 139.3 190.1 255.6 202.6l-.1 2.3c7.4 0 14.9-.2 22.2-.6 7.4.4 14.8.6 22.2.6l-.1-2.3c117.7-12.7 222.8-77.1 256.8-207.3 6.1-23.2 9.9-48.4 11.1-75.8.4-8.4.6-16.5.6-24.4 0 0-34.4 44.9-130.3 73.2 0 0-15.2 121.5-145.3 118.3h-24.4c-130.2 3.2-142.8-115.7-142.8-115.7-102-27.8-138.4-74.6-138.4-74.6z" id="Layer_5"/>
    <path class="st0" d="M743.4 891.2c0 26.9 21.8 48.8 48.8 48.8 26.9 0 48.8-21.8 48.8-48.8 0-26.9-21.8-48.8-48.8-48.8-27 0-48.8 21.9-48.8 48.8zm507.4 475.9c-6.5-159-80.5-199.7-80.5-199.7-4.5-62.5-93.7-174-209.7-174h-.2c-116 0-205.2 111.5-209.7 174 0 0-73.9 40.7-80.5 199.4h-.5c0-13.4-120.7-222.6-75.2-404.6 4.5-17.8-111.5-290 98.2-272.1 209.8 17.8 138.4 107 263.3 102.6h9.1c124.9 4.5 53.5-84.8 263.2-102.6 209.7-17.8 93.7 254.3 98.2 272.1 45.5 182-75.2 391.5-75.2 404.9h-.5zm-165-475.9c0 26.9 21.8 48.8 48.8 48.8 26.9 0 48.8-21.8 48.8-48.8 0-26.9-21.8-48.8-48.8-48.8-26.9 0-48.8 21.9-48.8 48.8z" id="Layer_6"/>
    <path class="st0" d="M1134.6 842.4c26.9 0 48.8 21.8 48.8 48.8 0 26.9-21.8 48.8-48.8 48.8-26.9 0-48.8-21.8-48.8-48.8 0-26.9 21.9-48.8 48.8-48.8zm-391.2 48.8c0 26.9 21.8 48.8 48.8 48.8 26.9 0 48.8-21.8 48.8-48.8 0-26.9-21.8-48.8-48.8-48.8-27 0-48.8 21.9-48.8 48.8z" id="Layer_7"/>
    <path class="st0" d="M1120.9 1466s-15.2 121.5-145.3 118.3h-24.4c-130.2 3.2-142.8-115.7-142.8-115.7 40 10.8 90 18.8 152 19.8 66.4-1 119.2-10.2 160.5-22.4z" id="Layer_8"/>
    <g id="STROKES">
        <g id="XMLID_1_">
            <path class="st1" d="M474.2 1042.5s-14.4 321.5 208.6 455.3"/>
            <path class="st1" d="M669.9 1366.8c0-13.4-120.7-222.6-75.2-404.6 4.5-17.8-111.5-290 98.2-272.1 209.6 17.8 138.2 107 263.1 102.6h9.1c124.9 4.5 53.5-84.8 263.2-102.6 209.7-17.8 93.7 254.3 98.2 272.1 45.5 182-75.2 391.5-75.2 404.9"/>
            <path class="st1" d="M669.9 1394.1s36.4 46.8 138.5 74.5c40 10.8 90 18.8 152 19.8 4.7.1 9.5.1 14.3.1"/>
            <path class="st1" d="M862.4 1131.7l45.9 43.1"/>
            <path class="st1" d="M470.4 601.8s0-.1.1-.2C474.9 592.1 618.6 279 724 235c107.1-44.6 200.8 8.9 214.1 8.9H983c13.4 0 107.1-53.5 214.1-8.9 107.1 44.6 243.9 371.8 243.9 371.8"/>
            <path class="st1" d="M960.5 993.4c-116 0-205.2 111.5-209.7 174 0 0-73.9 40.7-80.5 199.4-.4 8.7-.5 17.8-.4 27.3.1 7.5.3 15.2.6 23.1 1.3 29.3 5.5 56.1 12.3 80.6 35.3 127.1 139.3 190.1 255.6 202.6l-.1 2.3c7.4 0 14.9-.2 22.2-.6 7.4.4 14.8.6 22.2.6l-.1-2.3c117.7-12.7 222.8-77.1 256.8-207.3 6.1-23.2 9.9-48.4 11.1-75.8.4-8.4.6-16.5.6-24.4 0-8.9-.1-17.5-.5-25.7-6.5-159-80.5-199.7-80.5-199.7-4.5-62.5-93.7-174-209.7-174"/>
            <path class="st1" d="M1402.3 632.1c12.3-8.2 25.3-16.8 38.7-25.2 88.6-55.6 195.8-102.3 253.8 39.4 58.9 144-225.1 425-247.8 396.2 0 0-46.8 374.7-207.4 450.6"/>
            <path class="st1" d="M1251.3 1392.8s-34.4 44.9-130.3 73.2c-41.3 12.2-94.1 21.3-160.5 22.5-4.6.1-9.2.1-13.9.1"/>
            <path class="st1" d="M792.2 842.4c26.9 0 48.8 21.8 48.8 48.8 0 26.9-21.8 48.8-48.8 48.8-26.9 0-48.8-21.8-48.8-48.8 0-26.9 21.8-48.8 48.8-48.8z"/>
            <path class="st1" d="M673.4 912.9s36.5-68.3 115.3-71.2"/>
            <path class="st1" d="M1064.4 1131.7l-46 43.1"/>
            <path class="st1" d="M1134.6 842.4c-26.9 0-48.8 21.8-48.8 48.8 0 26.9 21.8 48.8 48.8 48.8 26.9 0 48.8-21.8 48.8-48.8 0-26.9-21.8-48.8-48.8-48.8z"/>
            <path class="st1" d="M1253.4 912.9s-36.5-68.3-115.3-71.2"/>
            <path class="st1" d="M1120.9 1466s-15.2 121.5-145.3 118.3h-24.4c-130.2 3.2-142.8-115.7-142.8-115.7"/>
            <path class="st1" d="M1449.6 730.2s116.6-103.6 147-66c63 78-138 213-138 213"/>
            <path class="st1" d="M517.7 632.1c-14.9-9.9-30.7-20.5-47.1-30.5-86.9-53.2-189.2-92.5-245.3 44.7-58.9 144 225.1 425 247.8 396.2"/>
            <path class="st1" d="M470.4 730.2s-116.6-103.6-147-66c-63 78 138 213 138 213"/>
        </g>
    </g>
</svg>
