<svg xmlns="http://www.w3.org/2000/svg" viewBox="0 0 1920 1920">
    <style>
        .st0{fill:#fff}.st1{fill:none;stroke:#231f20;stroke-width:50;stroke-linecap:round;stroke-linejoin:round;stroke-miterlimit:10}
    </style>
    <path class="st0" d="M1142.8 1010.7s-9 28.5 30 48c35.9 18 65.6-1.1 86.1-24.2l2.4 1.7s4.5 201 4.5 217.5 46.5 55.5 45 90 36 252 9 322.5-94.5 16.5-94.5 16.5c43.5 7.5 30-84 28.5-118.5s-15-162-48-220.5-21-163.5-21-163.5c-21 16.5-73.5 88.5-75 94.5-22.7 90.9 64.5 214.5 45 243s-162 73.5-162 73.5-9 96-27 109.5-57 3-48-39-48-102-34.5-121.5 48 7.5 76.5-33 78-49.5 78-49.5-39-61.5-87-115.5-129-46.5-129-46.5 9 61.5-10.5 78-61.5 76.5-54 90 24 72-33 58.5-87 60-87 60c-87.8-6.7-39.1-120.6 37.5-159 38.9-19.5 46.5-169.5 69-217.5s147-22.5 147-22.5c-13.5-127.5 105-291 105-291s-10.5-100.5-18-204 37.5-202.5 64.5-264-10.5-150-10.5-150c-45 10.5-67.5-31.5-67.5-31.5s21-33 78-28.5 120 90 85.5 192c0 0-9 172.5-39 229.5s-3 169.5-3 169.5 27-6 45 15c0 0 130.5-124.5 180 70.5 0 0-87-64.5-127.5-16.5s6 67.5 16.5 88.5-57 48-57 48z" id="Layer_2"/>
    <path class="st0" d="M1183.3 874.2c40.5-48 127.5 16.5 127.5 16.5s-24 45-24 49.5 3 46.5 3 46.5-11.2 25.7-30.9 47.8c-20.5 23-50.2 42.1-86.1 24.2-39-19.5-30-48-30-48s67.5-27 57-48-57-40.5-16.5-88.5z" id="Layer_3"/>
    <g id="STROKES">
        <g id="XMLID_1_">
            <path class="st1" d="M1085.8 805.2s-37.9 3-31.5 52.5c3.8 29.6-14.2 98.7 49.5 94.5"/>
            <path class="st1" d="M1310.8 890.7s-87-64.5-127.5-16.5 6 67.5 16.5 88.5-57 48-57 48-9 28.5 30 48c35.9 18 65.6-1.1 86.1-24.2 19.7-22.1 30.9-47.8 30.9-47.8s-3-42-3-46.5 24-49.5 24-49.5c-49.5-195-180-70.5-180-70.5-18-21-45-15-45-15s-27-112.5 3-169.5 39-229.5 39-229.5c34.5-102-28.5-187.5-85.5-192s-78 28.5-78 28.5 22.5 42 67.5 31.5c0 0 37.5 88.5 10.5 150s-72 160.5-64.5 264 18 204 18 204-118.5 163.5-105 291c0 0-124.5-25.5-147 22.5s-30.1 198-69 217.5c-76.6 38.4-125.3 152.3-37.5 159 0 0 30-73.5 87-60s40.5-45 33-58.5 34.5-73.5 54-90 10.5-78 10.5-78 81-7.5 129 46.5 87 115.5 87 115.5-49.5 9-78 49.5-63 13.5-76.5 33 43.5 79.5 34.5 121.5 30 52.5 48 39 27-109.5 27-109.5 142.5-45 162-73.5-67.7-152.1-45-243c1.5-6 54-78 75-94.5 0 0-12 105 21 163.5s46.5 186 48 220.5 15 126-28.5 118.5c0 0 67.5 54 94.5-16.5s-10.5-288-9-322.5-45-73.5-45-90-4.5-217.5-4.5-217.5"/>
            <path class="st1" d="M1194.9 990.6s35 30.3 74.2 29.9"/>
        </g>
    </g>
</svg>
