<svg xmlns="http://www.w3.org/2000/svg" viewBox="0 0 1920 1920">
    <style>
        .st0{fill:#fff}.st1{fill:none;stroke:#231f20;stroke-width:50;stroke-linecap:round;stroke-linejoin:round;stroke-miterlimit:10}
    </style>
    <path class="st0" d="M648.8 1415.2c8-21.6-16.6-62.6-59.1-96.2-45.4-35.9-94.4-50-110.9-32.2-.6.7-1 1.1-1 1.1-15.4 19.5 9.7 65 56 101.7 46.4 36.7 96.4 50.6 111.8 31.1 1.5-1.7 2.5-3.5 3.2-5.5zm645.7-832.3c.2-.5.3-.9.4-1.3v-.1c6.9-23.9-33.6-56.5-90.4-72.8-56.8-16.3-108.4-10.2-115.3 13.7-.6 2-.8 4.1-.7 6.2.8 23 39.1 51.7 91.2 66.6 55.6 16 106.3 10.5 114.8-12.3zM1704 960c0 186.5-68.6 357-182 487.6l-5.7 7.4c6.3 8.6 12.5 15.1 16.1 18.7-14.7-7.5-46 6.6-73.5 34.1-29.4 29.4-43.5 63.2-32.1 76.4-2.6-2.8-12.8-13.2-27-22.7l-9.8 5.8c-121.4 86.1-269.8 136.8-430 136.8-410.9 0-744-333.1-744-744 0-156.4 48.2-301.5 130.6-421.2l14.4-17.3c-14.6-27.8-34.7-49.6-44-58.9 23.6 12.1 73.7-10.6 117.7-54.6 47.1-47.1 69.7-101.3 51.4-122.4 5.5 5.9 32.5 33.5 68 50.6l12.5-7.8C680.7 257.2 815.6 216 960 216c410.9 0 744 333.1 744 744z" id="Layer_2"/>
    <g id="Layer_6">
        <path class="st0" d="M1532.4 1473.7c1.4.7 2.6 1.5 3.6 2.6 12.6 12.6-1.5 47.2-31.5 77.1-30 30-64.5 44.1-77.1 31.5 0 0-.1-.1-.2-.3-.1-.1-.2-.3-.4-.4-11.4-13.2 2.7-47 32.1-76.4 27.5-27.5 58.8-41.7 73.5-34.1z"/>
        <path class="st0" d="M648.8 1415.2c-.7 2-1.8 3.8-3 5.5-15.4 19.5-65.5 5.6-111.8-31.1-46.4-36.7-71.4-82.2-56-101.7 0 0 .3-.4 1-1.1 16.4-17.8 65.4-3.8 110.9 32.2 42.3 33.6 66.9 74.6 58.9 96.2z"/>
        <path class="st0" d="M485.1 284.5l.3.3c.2.2.4.5.7.8l.1.1c18.3 21.1-4.3 75.2-51.4 122.4-44 44-94.1 66.6-117.7 54.6-2.2-1.1-4.1-2.5-5.8-4.2-20.2-20.2 2.4-75.5 50.4-123.5s103.2-70.8 123.4-50.5z"/>
        <path class="st0" d="M1088.5 528.6c-.1-2.1.2-4.2.7-6.2 6.9-23.9 58.5-30 115.3-13.7s97.3 48.9 90.4 72.8v.1c-.1.2-.2.6-.4 1.2v.1c-8.4 22.7-59.1 28.3-114.8 12.3-52.1-14.9-90.4-43.5-91.2-66.6z"/>
    </g>
    <g id="STROKES">
        <path class="st1" d="M361 521.4l-14.4 17.3C264.2 658.5 216 803.6 216 960c0 410.9 333.1 744 744 744 160.2 0 308.6-50.6 430-136.8l9.8-5.8"/>
        <path class="st1" d="M554.1 336.2l12.5-7.8C680.7 257.2 815.6 216 960 216c410.9 0 744 333.1 744 744 0 186.5-68.6 357-182 487.6l-5.7 7.4"/>
        <path class="st1" d="M478.9 1286.8c16.4-17.8 65.4-3.8 110.9 32.2 42.4 33.6 67 74.6 59.1 96.2-.7 2-1.8 3.8-3 5.5-15.4 19.5-65.5 5.6-111.8-31.1-46.4-36.7-71.4-82.2-56-101.7"/>
        <path class="st1" d="M477.9 1287.9s.3-.4 1-1.1c7.1-8.4 50.9-63 43.1-115.8"/>
        <path class="st1" d="M645.1 1420.1s1.3-1.8 3.7-4.9c12-15.2 51.8-60.8 99.9-64.8"/>
        <path class="st1" d="M1294.5 582.9c-8.4 22.7-59.1 28.3-114.8 12.3-52-15-90.4-43.6-91.2-66.6-.1-2.1.2-4.2.7-6.2 6.9-23.9 58.5-30 115.3-13.7s97.3 48.9 90.4 72.8"/>
        <path class="st1" d="M1294.9 581.6c-.1.4-.2.8-.4 1.2"/>
        <path class="st1" d="M1294.9 581.5s0 .1 0 0c-.1.3-.2.7-.4 1.3v.1c-3.3 10.4-23.2 77.7 4.1 123.5"/>
        <path class="st1" d="M1090.1 522.7s-.5 2.2-1.6 5.9c-5.3 18.6-24.8 75.9-67.8 98"/>
        <path class="st1" d="M486.1 285.6c18.3 21.1-4.3 75.2-51.4 122.4-44 44-94.1 66.6-117.7 54.6-2.2-1.1-4.1-2.5-5.8-4.2-20.2-20.2 2.4-75.5 50.4-123.5s103.3-70.6 123.5-50.4"/>
        <path class="st1" d="M485.3 284.7c.3.3.5.5.7.8"/>
        <path class="st1" d="M485.1 284.5l.3.3c.2.2.4.5.7.8l.1.1c5.5 5.9 32.5 33.5 68 50.6 17.9 8.7 37.9 14.7 58.5 14"/>
        <path class="st1" d="M311.9 457.6s1.9 1.7 5.1 4.9c9.3 9.3 29.5 31.1 44 58.9 10 19.2 17.4 41.1 16.7 63.8"/>
        <path class="st1" d="M1426.8 1584.1c-11.4-13.2 2.7-47 32.1-76.4 27.5-27.5 58.8-41.6 73.5-34.1 1.4.7 2.6 1.5 3.6 2.6 12.6 12.6-1.5 47.2-31.5 77.1-30 30-64.5 44.1-77.1 31.5"/>
        <path class="st1" d="M1427.2 1584.6c-.1-.2-.3-.3-.4-.4"/>
        <path class="st1" d="M1427.4 1584.8s-.1-.1-.2-.3c-.1-.1-.2-.3-.4-.4-2.6-2.8-12.8-13.2-27-22.7-14.3-9.6-32.8-18.3-52-17.7"/>
        <path class="st1" d="M1535.6 1476.7s-1.2-1.1-3.2-3.1c-3.6-3.6-9.7-10.1-16.1-18.7-11-14.9-22.6-35.9-21.8-57.9"/>
        <path class="st1" d="M1313 1202.4c-19.1-15.9-4-65.6 33.8-111.1s83.9-69.4 103-53.6"/>
        <path class="st1" d="M543 696.8c23.2 8.9 24.8 60.9 3.5 116-21.2 55.1-57.3 92.6-80.5 83.7"/>
    </g>
</svg>
