<svg xmlns="http://www.w3.org/2000/svg" viewBox="0 0 1920 1920">
    <style>
        .st0{fill:#fff}.st1{fill:none;stroke:#231f20;stroke-width:50;stroke-linecap:round;stroke-linejoin:round;stroke-miterlimit:10}
    </style>
    <path class="st0" d="M1297 929c27.6 0 50 22.4 50 50s-22.4 50-50 50-50-22.4-50-50 22.4-50 50-50zm-610 384c0 70.7 57.3 128 128 128s128-57.3 128-128-57.3-128-128-128-128 57.3-128 128zM587 653c0 88.4 71.6 160 160 160s160-71.6 160-160-71.6-160-160-160-160 71.6-160 160z" id="Layer_3"/>
    <path class="st0" d="M960 216.9c410.4 0 743.1 332.7 743.1 743S1370.4 1703 960 1703s-743-332.7-743-743.1 332.6-743 743-743zM1347 979c0-27.6-22.4-50-50-50s-50 22.4-50 50 22.4 50 50 50 50-22.4 50-50zm-404 334c0-70.7-57.3-128-128-128s-128 57.3-128 128 57.3 128 128 128 128-57.3 128-128zm-36-660c0-88.4-71.6-160-160-160s-160 71.6-160 160 71.6 160 160 160 160-71.6 160-160z" id="Layer_4"/>
    <g id="STROKES">
        <circle class="st1" cx="960" cy="960" r="743"/>
        <circle class="st1" cx="815" cy="1313" r="128"/>
        <circle class="st1" cx="747" cy="653" r="160"/>
        <circle class="st1" cx="1297" cy="979" r="50"/>
    </g>
</svg>
