<svg xmlns="http://www.w3.org/2000/svg" viewBox="0 0 1920 1920">
    <style>
        .st0{display:none}.st1{fill:#fff}.st2{fill:none;stroke:#231f20;stroke-width:50;stroke-linecap:round;stroke-linejoin:round;stroke-miterlimit:10}
    </style>
    <path class="st1" d="M1703.1 761.8v941.4l-422.4-264.4c-28.5 10.2-56.3 16.1-82.2 19.1-7.8 67-25.2 133-51.6 195.1-11.3 26.8-28.6 56.1-57.3 60.4 6.1-39.7-3-81.5-25-115-1.4 40.6-6.5 88-41.2 109.1-11.2-44.1-29.5-86.4-53.9-124.8-1.3 26.1-2.6 52.2-3.9 78.4-40.2-42.6-83.2-92.7-80.6-150.7-11.8-1.9-21.6-3.7-29-3.5-33.4.8-54.2 93.4-81.7 107.6-27.5 14.2-57.3-13.8-57.3-13.8-2.3 6.5-3.6 10.5-3.6 10.5s-5 41.7-65.9 46.7c-5.3.4-10.2.1-14.6-1-45.8-10.8-43.1-94-43.1-94-42-159.2 118.6-299.5 118.6-299.5 40.5-82.5 110-150.5 110-150.5s1.4-31.1 15-66.2l94.1 78.1 56.8-65.7s-57.9-37.2-67.4-100.7c20.2-7.5 44.6-11 74-8.3 0 0 68.9-121.3 223.2-86.9 0 0 15.3 38.9-6.5 88.8 2.5-1.7 327.6-215.8 495.5-190.2z" id="Layer_5"/>
    <path class="st1" d="M1378.2 309.4c-13.7 137.7-239.1 347.6-393.8 498.8-60.1 58.7-73.5 109.7-67.4 150 9.6 63.5 67.4 100.7 67.4 100.7l-56.8 65.7-94.1-78.1c-409 27.6-390.2-55.5-390.2-55.5 50.3 40.8 146.5 23.2 146.5 23.2-107.5-25.7-197-197.2-198.3-199.9 2.1 2.7 156.6 198.2 305.2 176.6 149.5-21.7 70.1-214.3 70.1-214.3-280-349.8-245.6-399.5-245.6-399.5 16.3 61 268.1 363.4 306.9 406.3 38.7 42.9 69.6 0 69.6 0 85.5-198-68.7-564.3-69.6-566.6 65.8 33.9 123.8 320.5 187 345.4 55.5 21.8 137.2-237.1 156.2-300.1-3.9 17.4-6.7 48.5 13.1 74.4 29.3 38.4 70-75.5 70-75.5 31.6 53.1-45.1 71-6.8 145.1 38.3 74.1 130.6-96.7 130.6-96.7z" id="Layer_6"/>
    <g id="STROKES">
        <path class="st2" d="M1207.7 951.9c-13 29.7-39.1 63.2-89.4 94.8 0 0-55.4 15.8-83.9 0 0 0 4.5-91.6 72.4-120.9"/>
        <path class="st2" d="M716.9 1600.6c10.1-28.6 40.4-106.8 75.7-123.8"/>
        <path class="st2" d="M632.9 1656.8s42.2-83.7 24-128.2"/>
        <path class="st2" d="M874.6 1171.3c-14.2 38.1-42 32.3-42 32.3 5.9-39.4 42-32.3 42-32.3z"/>
        <path class="st2" d="M907.2 1106.5l-73.7-59.8c-409 27.4-390.2-55.7-390.2-55.7 50.3 40.8 146.5 23.2 146.5 23.2-107.5-25.7-197-197.2-198.3-199.9 2.1 2.7 156.6 198.2 305.2 176.6 149.5-21.7 70.1-214.3 70.1-214.3-280-349.8-245.6-399.5-245.6-399.5 16.3 61 268.1 363.4 306.9 406.3 38.7 42.9 69.6 0 69.6 0 85.5-198-68.7-564.3-69.6-566.6 65.8 33.9 123.8 320.5 187 345.4 55.5 21.8 137.2-237.1 156.2-300.1-3.9 17.4-6.7 48.5 13.1 74.4 29.3 38.4 70-75.5 70-75.5 31.6 53.1-45.1 71-6.8 145.1 38.4 74.1 130.7-96.7 130.7-96.7-13.7 137.7-239.1 347.6-393.8 498.8-60.1 58.7-73.5 109.7-67.4 150 9.6 63.5 67.4 100.7 67.4 100.7"/>
        <path class="st2" d="M1175.2 248.5c-.2.8-1.6 5.6-4 13.6 1.8-7.7 3.7-12.8 4-13.6z"/>
        <path class="st2" d="M1703.1 761.8c-167.8-25.6-493 188.5-495.4 190.1 21.8-49.9 6.5-88.8 6.5-88.8C1059.9 828.6 991 950 991 950c-29.4-2.7-53.8.8-74 8.3 9.6 63.5 67.4 100.7 67.4 100.7m-77.2 47.5l-73.7-59.8c-13.6 35.1-15 66.2-15 66.2s-69.4 68-110 150.5c0 0-160.6 140.4-118.6 299.5 0 0-2.7 83.2 43.1 94 4.4 1 9.2 1.4 14.6 1 60.9-5 65.9-46.7 65.9-46.7s1.2-3.9 3.6-10.5c0 0 29.8 28 57.3 13.8 27.5-14.2 48.4-106.8 81.7-107.6 7.4-.2 17.2 1.6 29 3.5-2.6 58 40.4 108.1 80.6 150.7 1.3-26.1 2.6-52.2 3.9-78.4 24.4 38.4 42.7 80.7 53.9 124.8 34.7-21.1 39.8-68.5 41.2-109.1 22 33.5 31.1 75.3 25 115 28.7-4.3 46-33.6 57.3-60.4 26.3-62.2 43.8-128.1 51.6-195.1 25.8-3 53.7-8.9 82.2-19.1l422.4 264.4m-870.5-499.6c5.8-39.4 42-32.3 42-32.3-14.3 38.1-42 32.3-42 32.3z"/>
        <path class="st2" d="M1099.5 1224.1c-5.4 40.7-20.3 80.1-43.4 114.1"/>
        <path class="st2" d="M1195.9 1343.8c7.9 29.5 7.4 60.6 4.9 91.1-.6 7.7-1.4 15.3-2.3 23"/>
        <path class="st2" d="M885.2 1506.2l-.3 4.2"/>
        <path class="st2" d="M1175.2 248.6c-.3 1-1.7 5.8-4 13.5 1.7-7.5 3.6-12.5 4-13.5z"/>
    </g>
</svg>
