<svg xmlns="http://www.w3.org/2000/svg" viewBox="0 0 1920 1920">
    <style>
        .st0{display:none}.st1{fill:#fff}.st2{fill:none;stroke:#231f20;stroke-width:50;stroke-linecap:round;stroke-linejoin:round;stroke-miterlimit:10}
    </style>
    <path class="st1" d="M1668.1 1497.4c-16.3-51.1-49.5-244.9-49.5-244.9s-47.2-4.5-71.1-36.6c-15.9-21.3-38.5-54.6-42.5-90.9-2-18.3.7-37.4 11.5-56.2 5.6-9.8 10.8-21.1 15.1-33.4 4.8-19.5 9.1-40 12.1-60.1 5.4-36.2 6.5-71.2-1.2-97.2-25.7-86.1-204.2-106.1-207.7-104.9-3.5 1.2-227.5 31.8-323-38.9S838.5 677.8 778.4 692c-36.9 8.7-71.7 4.9-106.5-1.2 9-27.6-3-52.6-3-52.6-20.9 0-37.7 3-51.4 8-23.4 8.6-37.2 22.9-45.4 37.3-11.4 3.8-23.4 9.4-35.4 16-49.3 27.3-97.5 71.7-97.5 71.7s-97 61.7-90.4 114.3c6.6 52.6 37 69 56.7 58.4 0 0 18.1 28.8 49.3 10.7 29.1-16.8 42.5-43.6 62.1-40-.2 26.6 11.3 52.1 20 77.4 9.8 28.6 16 58.3 18.7 88.4 9.1-24.4 16-49.8 20.3-75.5 4.8 10.5 9.7 21.1 14.5 31.6 11.6-22.1 20.3-45.7 25.7-70 16.4 11.4 30.2 23.4 36.9 34.9 15.5 26.7 46.1 87.3 90.7 123.1-1.1.4-2.3.8-3.4 1.1 10.1 11.3 23.1 22.6 39.9 33.3 1.5 1 3.1 2 4.7 3-1.6-1-3.2-2-4.7-3 7.5 37 15.9 85.7 14.9 113.4-1.2 34.6-27.1 203.3-55.1 277.5 20.8 11.1 41.3 22.3 59.8 36.2 2.2-4.7 3.5-8 3.6-8.7l42.1-264.5c.5 10.5.5 20.1-.5 27.9-5 40.9 16.5 195.6-21.5 268.9 22.9 2.4 45.9 2.7 68.8.8-4.1-59.5 17.8-301.4 46.5-357.6 25-49 38.2-80.9 42-103.3 1-6.2 1.4-11.6 1.1-16.5 0 0 12.9 7.6 34.6 16.5 47.7 19.7 137.9 45.8 226.8 11.9 3 36 20.9 83.6 85.4 119.2 118.4 65.6 116.2 108.9 95.1 159.4-14.6 34.9-22.4 105.7-45.8 151.7 11.2 4.8 22.7 9.5 34.4 13.2 11.7 3.7 23.6 6.4 35.7 7.4l15-25s-.9-105.3 25.1-143.5c15.2-22.4 28.1-76.4 36.2-117.3 5.2 11 18.2 33.2 42.5 42.9 0 0 81.9 204.6 60.4 232.1l-16.3 27.3c20 6.3 40.5 10.9 61.3 13.6l30.8-54.2c-.1-.2-18.7-39.7-35-90.8zM1250 1158.6c3.4-1.4 6.8-2.9 10.2-4.5-3.3 1.6-6.7 3.1-10.2 4.5zm47.3-26.1c-.4.3-.8.5-1.1.8.4-.3.7-.6 1.1-.8zm146.8 154.4c2.5 1.3 5 2.7 7.6 4-2.6-1.3-5.1-2.6-7.6-4zm14.6 7.6c2.3 1.2 4.7 2.3 7.1 3.4-2.4-1.1-4.8-2.3-7.1-3.4z" id="Layer_7"/>
    <path class="st1" d="M735.6 1560.6c-6.9 15.6-14.9 28.4-23.9 36.5-8 7.1-9.4 19.2-2.9 27.7 6.7 8.7 17.3 16.8 33.9 16.3 24.3-.7 44-29.9 53.9-48.6 1.2-2.3 2.3-4.5 3.2-6.5-18.5-13.9-39-25.1-59.8-36.2-1.5 3.9-2.9 7.5-4.4 10.8z" id="Layer_8"/>
    <path class="st1" d="M892.2 1610.4c-22.9 1.9-46 1.6-68.8-.8-6.2 11.9-14.5 23.4-25.3 34.1 0 0-33.4 26.1-3.2 38.8 30.1 12.8 63.3.2 67.9-.7 4.6-.9 37.5-22.5 31.1-56.5-.7-3.3-1.2-8.4-1.7-14.9z" id="Layer_11"/>
    <path class="st1" d="M1377.9 1591.6c-7.3 14.3-16.1 26.3-27.1 34-10.5 7.4-11.9 22.7-2.9 31.8 11 11.2 30.9 19.9 66.9 9.9l33.1-55.2c-12.1-1-24-3.7-35.7-7.4-11.6-3.6-23.1-8.2-34.3-13.1z" id="Layer_12"/>
    <path class="st1" d="M1610.9 1628.6l-29.5 49.3s-2.5 20.3 25.8 23.8 44-22.6 44-22.6l21-37c-20.8-2.6-41.3-7.1-61.3-13.5z" id="Layer_13"/>
    <path class="st1" d="M683.3 586l-65.7 60.2c-23.4 8.6-37.2 22.9-45.4 37.3-11.4 3.8-23.4 9.4-35.4 16 0 0-244.8 36.8-308.1-118.4 0 0 39.5 49.7 114.9 43.6 59.6-4.8-19.8-127.2-55.8-178.5 34 45 114.4 141.5 170.1 127.3 72.1-18.4 14.9-109.4-18.9-138 8.8 7.4 206.5 168.8 223.5-218.6 0 0 48.9 45 38.5 117.3l28.4-75.7 12.3 78.7 29-36.5c.1.1 67 150.1-87.4 285.3z" id="Layer_9"/>
    <g id="STROKES">
        <path class="st2" d="M785 1161.9c-1.6-1-3.2-2-4.7-3 1.5 1 3.1 2 4.7 3z"/>
        <path class="st2" d="M862.8 1681.8c-4.6.9-37.9 13.4-67.9.7-30.1-12.7 3.2-38.8 3.2-38.8 10.8-10.7 19.1-22.2 25.3-34.1 22.9 2.4 45.9 2.7 68.8.8.5 6.5 1 11.6 1.6 15 6.4 33.9-26.4 55.5-31 56.4z"/>
        <path class="st2" d="M1524.3 1326.3c-8.1 40.9-21 94.9-36.2 117.3-26 38.2-25.1 143.5-25.1 143.5l-15 25c-24.1-1.9-47.6-10.9-70.1-20.5 23.4-46 31.2-116.7 45.8-151.7 21.1-50.5 23.2-93.8-95.1-159.4-64.4-35.7-82.4-83.3-85.4-119.2 2.3-.9 4.6-1.8 6.8-2.7 3.4-1.4 6.8-2.9 10.2-4.5 2.3-1.1 4.5-2.2 6.8-3.3.9-.4 1.8-.9 2.6-1.4.8-.4 1.6-.8 2.4-1.3 1.1-.6 2.3-1.2 3.4-1.8 1.1-.7 2.2-1.3 3.4-1.9.8-.5 1.5-.9 2.3-1.4 2.3-1.4 4.6-2.8 6.9-4.3 1.5-1 3.1-2 4.6-3 .8-.5 1.5-1 2.3-1.6.4-.3.8-.5 1.1-.8.4-.3.8-.5 1.1-.8.1.3 2.1 6.6 7 16.9 8.2 17.1 24.7 45.1 54.6 74.9 7.7 7.7 16.4 15.6 26 23.4 1.2 1 2.4 1.9 3.6 2.9 1.2 1 2.5 1.9 3.7 2.9 1.3 1 2.5 1.9 3.9 2.9 1.9 1.5 3.9 2.9 5.9 4.3 1.4 1 2.7 1.9 4.1 2.9 3.4 2.4 7 4.8 10.6 7.1.9.6 1.7 1.1 2.6 1.7 1.7 1.1 3.5 2.2 5.2 3.3 2 1.2 4 2.4 6.1 3.7l2.1 1.2c1.8 1.1 3.7 2.2 5.6 3.2l3.3 1.8c.8.5 1.6.9 2.5 1.3 2.5 1.4 5 2.7 7.6 4 2.3 1.2 4.6 2.4 7 3.5 2.3 1.2 4.7 2.3 7.1 3.4 1.2.6 2.4 1.1 3.6 1.7 4.9 2.2 9.9 4.5 15.1 6.6 2.6 1.1 5.2 2.1 7.9 3.2 1.3.5 2.7 1 4 1.6 2.7 1 5.4 2.1 8.2 3.1l4.2 1.5c2.8 1 5.6 2 8.5 2.9 1.4.5 2.9 1 4.3 1.4.2.1 1 2.6 2.9 6.5z"/>
        <path class="st2" d="M1297.3 1132.5c-.4.3-.8.5-1.1.8.4-.3.7-.6 1.1-.8z"/>
        <path class="st2" d="M1451.7 1291c-2.6-1.3-5.1-2.7-7.6-4 2.5 1.3 5 2.6 7.6 4z"/>
        <path class="st2" d="M1465.8 1297.9c-2.4-1.1-4.8-2.3-7.1-3.4 2.3 1.1 4.7 2.3 7.1 3.4z"/>
        <path class="st2" d="M1672.2 1642.2l-21 37s-15.7 26-44 22.6c-28.3-3.5-25.8-23.8-25.8-23.8l29.5-49.3c20 6.3 40.5 10.8 61.3 13.5z"/>
        <path class="st2" d="M845.4 1312.8l-42.1 264.5c-.1.9-2.5 7.1-6.8 15.1-9.8 18.7-29.5 47.9-53.9 48.6-16.6.5-27.2-7.7-33.9-16.3-6.5-8.5-5.1-20.6 2.9-27.7 9.1-8.1 17-20.8 23.9-36.5 29.7-67.2 58.2-251.8 59.5-288.2 1-27.7-7.4-76.4-14.9-113.4 1.5 1 3.1 2 4.7 3 .8.5 1.6 1 2.4 1.4.6.4 1.2.7 1.9 1.1.6.4 1.3.8 2 1.1.1.1.3.1.4.2.5.3 1 .6 1.6.9 1.2.7 2.4 1.3 3.6 2 .5.3 1 .5 1.5.8 2.5 1.3 5 2.6 7.6 3.8.9.5 1.9.9 2.8 1.4 1 .4 1.9.9 2.9 1.4 1 .4 2 .9 3 1.3s1.9.8 2.9 1.3 2.1.9 3.2 1.4c1 .4 2.1.9 3.1 1.3.1 0 18.9 78.1 21.7 131.5z"/>
        <path class="st2" d="M1297.3 1132.5c-.4.3-.8.5-1.1.8.4-.3.7-.6 1.1-.8z"/>
        <path class="st2" d="M1451.7 1291c-2.6-1.3-5.1-2.7-7.6-4 2.5 1.3 5 2.6 7.6 4z"/>
        <path class="st2" d="M1377.9 1591.6c22.4 9.6 45.9 18.6 70.1 20.5l-33.1 55.2c-36 10-56 1.3-66.9-9.9-9-9.2-7.7-24.5 2.9-31.8 10.9-7.7 19.7-19.6 27-34z"/>
        <path class="st2" d="M1465.8 1297.9c-2.4-1.1-4.8-2.3-7.1-3.4 2.3 1.1 4.7 2.3 7.1 3.4z"/>
        <path class="st2" d="M798.1 1592.7c-.5-.1-1-.1-1.5-.2-21.9-3.4-42.6-13.8-58.4-29.4l-2.5-2.5"/>
        <path class="st2" d="M823.4 1609.6c-1.5-.2-2.9-.3-4.4-.5"/>
        <path class="st2" d="M1297.3 1132.5c-.4.3-.8.5-1.1.8.4-.3.7-.6 1.1-.8z"/>
        <path class="st2" d="M1703 1588l-30.8 54.2c-20.8-2.7-41.3-7.2-61.3-13.6l16.3-27.3c21.5-27.5-60.4-232.1-60.4-232.1-24.4-9.7-37.4-31.9-42.5-42.9-1.8-3.9-2.7-6.4-2.7-6.4-1.5-.5-2.9-1-4.3-1.4-2.9-1-5.7-1.9-8.5-2.9l-4.2-1.5c-2.8-1-5.5-2-8.2-3.1-1.4-.5-2.7-1-4-1.6-2.6-1-5.3-2.1-7.9-3.2-5.2-2.1-10.2-4.4-15.1-6.6-1.2-.6-2.4-1.1-3.6-1.7-2.4-1.1-4.8-2.3-7.1-3.4-2.4-1.1-4.7-2.3-7-3.5-2.6-1.3-5.1-2.7-7.6-4-.8-.4-1.7-.9-2.5-1.3l-3.3-1.8c-1.9-1.1-3.8-2.1-5.6-3.2l-2.1-1.2c-2.1-1.2-4.1-2.4-6.1-3.7-1.8-1.1-3.5-2.2-5.2-3.3-.9-.5-1.7-1.1-2.6-1.7-3.6-2.4-7.2-4.7-10.6-7.1-1.4-1-2.7-1.9-4.1-2.9-2-1.4-4-2.9-5.9-4.3-1.3-1-2.6-1.9-3.9-2.9-1.3-1-2.5-1.9-3.7-2.9-1.2-1-2.4-1.9-3.6-2.9-9.6-7.8-18.2-15.6-26-23.4-29.9-29.8-46.3-57.8-54.6-74.9-5-10.3-6.9-16.6-7-16.9-.4.3-.8.5-1.1.8-.4.3-.8.5-1.1.8-.8.5-1.5 1.1-2.3 1.6-1.5 1-3.1 2-4.6 3-2.3 1.5-4.6 2.9-6.9 4.3-.8.5-1.5.9-2.3 1.4-1.1.6-2.2 1.3-3.4 1.9-1.1.6-2.3 1.2-3.4 1.8-.8.4-1.6.9-2.4 1.3-.9.5-1.8.9-2.6 1.4-2.3 1.2-4.5 2.3-6.8 3.3-3.4 1.6-6.8 3.1-10.2 4.5-2.3.9-4.5 1.8-6.8 2.7-88.9 33.8-179.1 7.7-226.8-11.9-21.7-8.9-34.6-16.5-34.6-16.5.3 4.9 0 10.4-1.1 16.5-3.8 22.5-17.1 54.3-42 103.3-28.7 56.3-50.5 298.1-46.5 357.6-22.9 1.9-46 1.6-68.8-.8 38.1-73.3 16.5-228 21.5-268.9 1-7.8 1-17.4.5-27.9-2.8-53.4-21.6-131.5-21.6-131.5-1-.4-2.1-.9-3.1-1.3-1.1-.4-2.1-.9-3.2-1.4-1-.4-1.9-.8-2.9-1.3-1-.4-2-.9-3-1.3-1-.5-1.9-.9-2.9-1.4-1-.5-1.9-.9-2.8-1.4-2.6-1.2-5.1-2.5-7.6-3.8-.5-.3-1-.5-1.5-.8-1.2-.7-2.4-1.3-3.6-2-.5-.3-1-.6-1.6-.9-.1-.1-.3-.2-.4-.2-.7-.4-1.3-.8-2-1.1-.6-.4-1.2-.7-1.9-1.1-.8-.5-1.6-1-2.4-1.4-1.6-1-3.2-2-4.7-3-16.8-10.7-29.8-22-39.9-33.3 1.1-.4 2.3-.7 3.4-1.1-44.6-35.8-75.1-96.3-90.7-123.1-6.7-11.5-20.5-23.5-36.9-34.9-5.4 24.3-14.1 47.9-25.7 70-4.8-10.6-9.7-21.1-14.5-31.6-4.4 25.7-11.2 51-20.3 75.5-2.6-30.1-8.9-59.8-18.7-88.4-8.7-25.4-20.2-50.8-20-77.4-19.6-3.6-33 23.1-62.1 40-31.2 18.1-49.3-10.7-49.3-10.7-19.7 10.7-50.1-5.8-56.7-58.4-6.6-52.6 90.4-114.3 90.4-114.3s48.2-44.4 97.5-71.7c11.9-6.6 24-12.3 35.4-16 8.2-14.5 22-28.8 45.4-37.3 13.6-5 30.5-8 51.4-8 0 0 12 25 3 52.6 34.8 6.1 69.6 9.9 106.5 1.2 60-14.2 137.8-28.3 233.3 42.4s319.5 40.1 323 38.9c3.5-1.2 182 18.9 207.7 104.9 7.8 26 6.6 61 1.2 97.2-3 20.1-7.3 40.6-12.1 60.1-4.3 12.3-9.5 23.6-15.1 33.4-10.8 18.7-13.5 37.8-11.5 56.2 4 36.3 26.6 69.6 42.5 90.9 23.9 32.1 71.1 36.6 71.1 36.6s33.2 193.8 49.5 244.9c16.2 51 34.8 90.5 34.8 90.5z"/>
        <path class="st2" d="M671.9 690.8c-5.1 15.6-16.9 32.1-41.4 45.2"/>
        <path class="st2" d="M560.7 731.1s-1.8-24 11.5-47.6"/>
        <path class="st2" d="M683.3 586l-65.7 60.2c-23.4 8.6-37.2 22.9-45.4 37.3-11.4 3.8-23.4 9.4-35.4 16 0 0-244.8 36.8-308.1-118.4 0 0 39.5 49.7 114.9 43.6 59.6-4.8-19.8-127.2-55.8-178.5 34 45 114.4 141.5 170.1 127.3 72.1-18.4 14.9-109.4-18.9-138 8.8 7.4 206.5 168.8 223.5-218.6 0 0 48.9 45 38.5 117.3l28.4-75.7 12.3 78.7 29-36.5c.1.1 67 150.1-87.4 285.3z"/>
        <path class="st2" d="M438.8 435.3l.1.1s.1.1.2.1"/>
        <path class="st2" d="M287.8 446.2c-9.8-13-15.7-21.7-16.1-22.3"/>
        <path class="st2" d="M271.7 424c.4.5 6.8 9 16.1 22.3"/>
        <path class="st2" d="M620.6 941.7c-1.1 8.4-2.5 16.7-4.4 24.9"/>
        <path class="st2" d="M517.2 910.2c-.1 1.5-.1 2.9-.1 4.4"/>
        <path class="st2" d="M287.8 446.2c-9.5-12.6-15.4-21.1-16.1-22.1.8.9 7.1 9.3 16.1 22.1z"/>
        <path class="st2" d="M780.2 1158.9c1.5 1 3.1 2 4.7 3-1.5-1-3.1-2-4.7-3z"/>
        <path class="st2" d="M1250 1158.6c3.4-1.4 6.8-2.9 10.2-4.5-3.3 1.6-6.7 3.1-10.2 4.5z"/>
        <path class="st2" d="M1458.7 1294.5c2.3 1.2 4.7 2.3 7.1 3.4-2.4-1.1-4.8-2.3-7.1-3.4z"/>
        <path class="st2" d="M1297.3 1132.5c-.4.3-.8.5-1.1.8.4-.3.7-.6 1.1-.8z"/>
    </g>
</svg>
