<svg xmlns="http://www.w3.org/2000/svg" viewBox="0 0 1920 1920">
    <style>
        .st0{display:none}.st1{fill:#fff}.st2{fill:none;stroke:#231f20;stroke-width:50;stroke-linecap:round;stroke-linejoin:round;stroke-miterlimit:10}
    </style>
    <path class="st1" d="M1577.3 448.8s-31.3-15.7-14.4 45.8c16.9 61.4 39.7 195.1-42.1 283 0 0 9.6-162.6-37.3-143.3 0 0-28.9-4.8-21.7 89.1 7.2 93.9-67.6 87.9-67.6 87.9s1.3-20.9-2.9-44.7c-.8-4.8-1.9-9.7-3.2-14.7-7.4-27.2-23.5-53.6-57.7-53.6 0 0-26.4 4.2-14.8 37 11.6 32.7 13.7 77.1-1.1 118.2-14.8 41.2 45.4 63.3 45.4 63.3s-17.9 34.8-128.8 15.8c-10.3-1.8-19.9-2.9-28.7-3.6 0 0 63.1-198.9 15.4-176.8-47.7 22.1-129.3 126-157.5 126-24.7 0-83.2-7.4-84.7-7.4s-60 7.4-84.7 7.4c-28.1 0-109.8-103.9-157.5-126-47.7-22.1 15.4 176.8 15.4 176.8-8.8.7-18.4 1.8-28.7 3.6-110.8 19-128.8-15.8-128.8-15.8s60.2-22.2 45.4-63.3c-14.8-41.2-12.7-85.5-1.1-118.2s-14.8-37-14.8-37c-40.3 0-55.4 36.7-60.9 68.3-4.2 23.8-2.9 44.7-2.9 44.7h-.7c-7.6.3-73.7.6-66.9-87.9 7.2-93.9-21.7-89.1-21.7-89.1-47-19.3-37.3 143.3-37.3 143.3-81.9-87.9-59-221.6-42.1-283 16.9-61.4-14.5-45.8-14.5-45.8s-68.1 44.5-68.1 164.5c0 14.8 1 30.7 3.4 47.9 4.4 32.3 13.4 69 28.6 110.3 89.1 240.8 387.7 249.3 425.1 262.5 37.3 13.2 45.7 36.8 45.7 36.8-6.1 10.3-10.3 24-9.5 41.8 0 0 8.1 1.4 17.5 8.1-9.9 21.4-23.5 90.3 48.1 284.2 0 0-10.2 36.2 0 81.5s-1.1 86 50.9 124.4c0 0 10.2 11.3 57.7-13.6h4.7c47.5 24.9 57.7 13.6 57.7 13.6 52-38.5 40.7-79.2 50.9-124.4 10.2-45.3 0-81.5 0-81.5 71.6-193.9 58-262.8 48-284.2 4.7-3.4 9.1-5.4 12.3-6.6s5.2-1.5 5.2-1.5c.8-17.8-3.4-31.5-9.5-41.8 0 0 8.3-23.6 45.7-36.8 37.3-13.3 336-21.7 425.1-262.5 22.5-60.8 31.3-111.5 31.9-153.2v-4.9c.3-120-67.9-164.6-67.9-164.6z" id="Layer_2"/>
    <path class="st1" d="M512 587.7c-8-62-32.9-120.9-39.1-183.1-1.7-16.9-3.7-36.9-18.4-45.4-15.9-9.2-35.5 1.2-50.7 11.5 2.9-11.5-2.7-24.5-13-30.3-10.3-5.8-24.4-3.8-32.7 4.6-5.7-11.5-14.8-22.4-27.3-25.3-12.5-2.9-27.8 5.6-28 18.4-5.4-14.9-26.6-18.6-40.2-10.6-13.7 8-20.9 23.5-25.5 38.7-15 49.1-10.1 102.6 4.9 151.6 15 49.1 39.8 94.5 64.9 139.3.8 1.4 1.6 2.8 2.5 4.2-2.3-17.1-3.4-33.1-3.4-47.9 0-120 68.1-164.5 68.1-164.5s31.3-15.7 14.5 45.8c-16.9 61.4-39.7 195.1 42.1 283 0 0-9.6-162.6 37.3-143.3 0 0 28.9-4.8 21.7 89.1-6.8 88.5 59.3 88.3 66.9 87.9-5-46.4-26.9-90.2-35.4-136.4-5.4-28.8-5.4-58.3-9.2-87.3z" id="Layer_4"/>
    <path class="st1" d="M1693.9 366.1c-4.6-15.1-11.9-30.7-25.6-38.7-13.7-8-34.8-4.3-40.2 10.6-.3-12.8-15.6-21.3-28.1-18.4-12.5 2.9-21.6 13.8-27.2 25.3-8.3-8.4-22.4-10.4-32.7-4.6-10.3 5.8-15.9 18.9-13 30.3-15.2-10.3-34.9-20.6-50.7-11.5-14.7 8.5-16.7 28.5-18.4 45.4-6.2 62.2-31.1 121.1-39.1 183.1-3.8 29-3.8 58.5-9.1 87.2-4.8 26.2-13.9 51.5-21.8 77 1.3 4.9 2.4 9.8 3.2 14.7 4.2 23.8 2.9 44.7 2.9 44.7s74.9 6 67.6-87.9c-7.2-93.9 21.7-89.1 21.7-89.1 47-19.3 37.3 143.3 37.3 143.3 81.9-87.9 59-221.6 42.1-283-16.8-61.4 14.4-45.8 14.4-45.8s68.1 44.5 68.1 164.5v4.9c17.2-32.4 32.9-65.6 43.6-100.6 15.2-48.9 20-102.3 5-151.4z" id="Layer_10"/>
    <g id="STROKES">
        <path class="st2" d="M816.6 1120.8c12.3 8.8 26.8 26.7 28.7 62.5"/>
        <path class="st2" d="M845.4 1041.4s-23.2 6.5-36.8 29.5"/>
        <path class="st2" d="M748.9 929.1c86.1-6.4 104.3 35.3 104.3 35.3"/>
        <path class="st2" d="M1106 1183.3c2-35.8 16.5-53.7 28.7-62.5"/>
        <path class="st2" d="M1142.7 1070.9c-13.6-22.9-36.8-29.5-36.8-29.5"/>
        <path class="st2" d="M1098.1 964.4s18.2-41.7 104.3-35.3"/>
        <path class="st2" d="M556.5 811.3c-7.6.3-73.7.6-66.9-87.9 7.2-93.9-21.7-89.1-21.7-89.1-47-19.3-37.3 143.3-37.3 143.3-81.9-87.9-59-221.6-42.1-283 16.9-61.4-14.4-45.8-14.4-45.8S306 493.3 306 613.3c0 14.8 1 30.7 3.4 47.9-.9-1.4-1.7-2.8-2.5-4.2-25.1-44.8-49.8-90.2-64.9-139.3-15-49.1-19.9-102.6-4.9-151.6 4.6-15.1 11.9-30.7 25.6-38.7 13.7-8 34.8-4.3 40.2 10.6.2-12.8 15.6-21.3 28-18.4 12.5 3 21.6 13.8 27.3 25.3 8.3-8.4 22.4-10.4 32.7-4.6 10.3 5.8 15.9 18.9 13 30.3 15.2-10.3 34.9-20.6 50.7-11.5 14.7 8.5 16.7 28.5 18.4 45.4 6.2 62.2 31.1 121.1 39.1 183.1 3.8 29 3.8 58.5 9.1 87.2 8.4 46.4 30.3 90.1 35.3 136.5z"/>
        <path class="st2" d="M1645.5 613.4v4.9c-.6 41.8-9.5 92.5-32 153.3-89.1 240.8-387.7 249.3-425.1 262.5-37.3 13.2-45.7 36.8-45.7 36.8 6.1 10.3 10.3 24 9.5 41.8 0 0-8.1 1.4-17.5 8.1 9.9 21.4 23.5 90.4-48.1 284.2 0 0 10.2 36.2 0 81.5s1.1 86-50.9 124.5c0 0-10.2 11.3-57.7-13.6h-4.7c-47.5 24.9-57.7 13.6-57.7 13.6-52.1-38.5-40.7-79.2-50.9-124.5-10.2-45.3 0-81.5 0-81.5-71.6-193.9-58-262.8-48.1-284.2-9.4-6.8-17.5-8.1-17.5-8.1-.8-17.8 3.4-31.5 9.5-41.8 0 0-8.3-23.6-45.7-36.8-37.3-13.2-336-21.7-425.1-262.5-15.3-41.3-24.3-78-28.6-110.3-2.3-17.1-3.4-33.1-3.4-47.9 0-120 68.1-164.5 68.1-164.5s31.3-15.7 14.4 45.8c-16.9 61.4-39.7 195.1 42.1 283 0 0-9.6-162.6 37.3-143.3 0 0 28.9-4.8 21.7 89.1-6.8 88.5 59.3 88.3 66.9 87.9h.7s-1.3-20.9 2.9-44.7c5.5-31.6 20.6-68.3 60.9-68.3 0 0 26.4 4.2 14.8 36.9-11.6 32.7-13.7 77.1 1.1 118.2 14.8 41.2-45.4 63.3-45.4 63.3s17.9 34.8 128.8 15.8c10.3-1.8 19.9-2.9 28.7-3.6 0 0-63.1-198.9-15.4-176.8 47.7 22.1 129.3 126 157.5 126 24.7 0 83.2-7.4 84.7-7.4 1.6 0 60 7.4 84.7 7.4 28.1 0 109.8-103.9 157.5-126 47.7-22.1-15.4 176.8-15.4 176.8 8.8.7 18.4 1.8 28.7 3.6 110.8 19 128.8-15.8 128.8-15.8s-60.2-22.2-45.4-63.3c14.8-41.2 12.7-85.5 1.1-118.2s14.8-36.9 14.8-36.9c34.2 0 50.2 26.4 57.7 53.6 1.3 4.9 2.4 9.8 3.2 14.7 4.2 23.8 2.9 44.7 2.9 44.7s74.9 6 67.6-87.9c-7.2-93.9 21.7-89.1 21.7-89.1 47-19.3 37.3 143.3 37.3 143.3 81.9-87.9 59-221.6 42.1-283-16.9-61.4 14.4-45.8 14.4-45.8s68.2 44.5 68.2 164.5z"/>
        <path class="st2" d="M1689.1 517.7c-10.7 35-26.4 68.2-43.6 100.6v-4.9c0-120-68.1-164.5-68.1-164.5s-31.3-15.7-14.4 45.8c16.9 61.4 39.7 195.1-42.1 283 0 0 9.6-162.6-37.3-143.3 0 0-28.9-4.8-21.7 89.1 7.2 93.9-67.6 87.9-67.6 87.9s1.3-20.9-2.9-44.7c-.8-4.8-1.9-9.7-3.2-14.7 7.9-25.5 17-50.9 21.8-77 5.3-28.8 5.3-58.2 9.1-87.2 8-61.9 32.9-120.9 39.1-183.1 1.7-16.9 3.6-36.9 18.4-45.4 15.9-9.2 35.5 1.2 50.7 11.5-2.9-11.5 2.7-24.5 13-30.3 10.3-5.8 24.4-3.8 32.7 4.6 5.7-11.5 14.8-22.4 27.3-25.3 12.5-2.9 27.8 5.6 28.1 18.4 5.4-14.9 26.6-18.6 40.2-10.6 13.7 8 20.9 23.5 25.6 38.7 14.7 48.9 9.9 102.4-5.1 151.4z"/>
    </g>
</svg>
