<svg xmlns="http://www.w3.org/2000/svg" viewBox="0 0 1920 1920">
    <style>
        .st0{fill:#fff}.st1{fill:none;stroke:#231f20;stroke-width:50;stroke-linecap:round;stroke-linejoin:round;stroke-miterlimit:10}
    </style>
    <path class="st0" d="M1233.6 1025.2c21.4 16.6 25.7 47.1 9.8 69-9.9 13.6-25.2 20.6-40.5 20.6-13.2 0-26.4-5.2-36.3-15.7L1063 989.8c-21.3-22.5-34.4-51.7-37-82.6l-4-46.2 211.6 164.2zm-547.2 0c-21.4 16.6-25.7 47.1-9.8 69 9.9 13.6 25.2 20.6 40.5 20.6 13.2 0 26.4-5.2 36.3-15.7L857 989.8c21.3-22.5 34.4-51.7 37-82.6l4-46.2-211.6 164.2z" id="Layer_2"/>
    <path class="st0" d="M1008 1007v12l-48 212-48-212V777l47.7-46 48.3 46z" id="Layer_3"/>
    <g id="STROKES">
        <g id="XMLID_1_">
            <path class="st1" d="M897.8 860.7L722 841l-80 124-360 160h-61"/>
            <path class="st1" d="M722 217l160 384-31 50.5L911.9 777"/>
            <path class="st1" d="M504 1703l56-50 236-284 20-206 96-156"/>
            <path class="st1" d="M898 861l-211.6 164.2c-21.4 16.6-25.7 47.1-9.8 69 9.9 13.6 25.2 20.6 40.5 20.6 13.2 0 26.4-5.2 36.3-15.7L857 989.8c21.3-22.5 34.4-51.7 37-82.6l4-46.2z"/>
            <path class="st1" d="M1022.2 860.7L1198 841l80 124 360 160h61"/>
            <path class="st1" d="M1198 217l-160 384 28 60-58 116"/>
            <path class="st1" d="M1416 1703l-56-50-236-284-20-206-96-156"/>
            <path class="st1" d="M1022 861l211.6 164.2c21.4 16.6 25.7 47.1 9.8 69-9.9 13.6-25.2 20.6-40.5 20.6-13.2 0-26.4-5.2-36.3-15.7L1063 989.8c-21.3-22.5-34.4-51.7-37-82.6l-4-46.2z"/>
            <path class="st1" d="M960 1231l48-212V777l-48.3-46-47.7 46v242l48 212"/>
            <path class="st1" d="M959.7 731V413.6"/>
        </g>
    </g>
</svg>
