<svg xmlns="http://www.w3.org/2000/svg" viewBox="0 0 1920 1920">
    <style>
        .st0{fill:#fff}.st1{fill:none;stroke:#231f20;stroke-width:50;stroke-linecap:round;stroke-linejoin:round;stroke-miterlimit:10}
    </style>
    <path class="st0" d="M1412 980.1c-9.7 9.7-23.2 15.8-38 15.8h-200.3l107.6-107.6h92.6c29.7 0 53.8 24.1 53.8 53.8.1 14.8-5.9 28.3-15.7 38zm-722.2 94.1c-17.1 17.1-17.1 44.8 0 61.8 17.1 17.1 44.8 17.1 61.8 0 17.1-17.1 58.3-86 41.3-103.1-17.1-17.1-86 24.2-103.1 41.3zM1005 888.3c-14.9 0-28.3 6-38 15.8-9.7 9.7-15.8 23.2-15.8 38 0 29.7 24.1 53.8 53.8 53.8h168.7l107.6-107.6H1005zm-218-2.8c-21.7 15.5-35.8 40.9-35.8 69.6 0 47.2 38.2 85.4 85.4 85.4s85.4-38.2 85.4-85.4c0-44.4-33.9-80.9-77.2-85-28.2 8.5-49.1 13.4-57.8 15.4z" id="Layer_4"/>
    <path class="st0" d="M1199 469.8s76.6 98-65.3 239.8c-88.6 88.6-214.4 137.5-289 160.3-2.7-.3-5.4-.4-8.2-.4-18.5 0-35.6 5.9-49.6 15.9-3 .7-4.6 1-4.6 1L1199 469.8z" id="Layer_5"/>
    <g id="STROKES">
        <g id="XMLID_1_">
            <path class="st1" d="M1329.7 888.3h44.2c29.7 0 53.8 24.1 53.8 53.8 0 14.9-6 28.3-15.8 38-9.7 9.7-23.2 15.8-38 15.8H1005c-29.7 0-53.8-24.1-53.8-53.8 0-14.9 6-28.3 15.8-38 9.7-9.7 23.2-15.8 38-15.8h324.7"/>
            <path class="st1" d="M787 885.5c-21.7 15.5-35.8 40.9-35.8 69.6 0 47.2 38.2 85.4 85.4 85.4s85.4-38.2 85.4-85.4c0-44.4-33.9-80.9-77.2-85-2.7-.3-5.4-.4-8.2-.4-18.5-.1-35.6 5.8-49.6 15.8z"/>
            <path class="st1" d="M855.4 1130.4l63.3 63.3v175.2l51.3 51.3"/>
            <path class="st1" d="M940.6 981.2l123.9 123.9 109.2-109.2 107.6-107.6 80.2-80.2h114.3l221-221"/>
            <path class="st1" d="M689.8 1074.2c-17.1 17.1-17.1 44.8 0 61.8 17.1 17.1 44.8 17.1 61.8 0 17.1-17.1 58.3-86 41.3-103.1-17.1-17.1-86 24.2-103.1 41.3z"/>
            <path class="st1" d="M439.2 1386.7L689.8 1136"/>
            <path class="st1" d="M883.3 1030.5l186.5 186.5 88.6-88.7 273.3 273.3h70.5"/>
            <path class="st1" d="M680.1 961.8l-27.7-27.7h-55.2v171l-288.6 288.6h-85.4"/>
            <path class="st1" d="M844.7 870c74.5-22.8 200.3-71.7 289-160.3 141.9-141.9 65.3-239.8 65.3-239.8L782.4 886.4s1.6-.3 4.6-1c8.7-1.9 29.6-6.8 57.7-15.4z"/>
        </g>
    </g>
</svg>
