<svg xmlns="http://www.w3.org/2000/svg" viewBox="0 0 1920 1920">
    <style>
        .st0{fill:#fff}.st1,.st2{fill:none}.st2{stroke:#231f20;stroke-width:50;stroke-linecap:round;stroke-linejoin:round;stroke-miterlimit:10}
    </style>
    <path class="st0" d="M1027.9 885.1c-17.4-17.4-41.4-28.1-67.9-28.1-53 0-96 43-96 96v654.1c0 53 43 96 96 96s96-43 96-96V953c0-26.5-10.7-50.5-28.1-67.9z" id="Layer_7"/>
    <g id="Layer_8">
        <path class="st0" d="M724 304l-124 38 26 99 199.7-54.1z"/>
        <path class="st0" d="M1061.2 469.3c4.4 11.7 6.8 24.4 6.8 37.7 0 59.6-48.4 108-108 108s-108-48.4-108-108c0-13.3 2.4-26 6.8-37.7l-.8-.3h-94v820h100V953c0-53 43-96 96-96 26.5 0 50.5 10.7 67.9 28.1 17.4 17.4 28.1 41.4 28.1 67.9v336h100V469h-94l-.8.3z"/>
        <path class="st0" d="M1196 304l-101.7 82.9L1294 441l26-99z"/>
    </g>
    <g id="Layer_9">
        <path class="st0" d="M606 604c-39.8 0-72 21.5-72 48s32.2 48 72 48 72-21.5 72-48-32.2-48-72-48z"/>
        <path class="st0" d="M550 264c-3.3-19.7-46-48-100-50s-66 56-48 114 156-16 148-64z"/>
        <path class="st0" d="M1314 604c-39.8 0-72 21.5-72 48s32.2 48 72 48 72-21.5 72-48-32.2-48-72-48z"/>
        <path class="st0" d="M1470 214c-54 2-96.7 30.3-100 50-8 48 130 122 148 64s6-116-48-114z"/>
    </g>
    <path class="st1" d="M1061.2 469.3c4.4 11.7 6.8 24.4 6.8 37.7 0 59.7-48.3 108-108 108s-108-48.3-108-108c0-13.3 2.4-26 6.8-37.7 5.1-13.8 13-26.2 22.9-36.7 19.7-20.7 47.5-33.6 78.3-33.6s58.6 12.9 78.3 33.6c9.9 10.5 17.8 22.9 22.9 36.7zM895 332c0 35.9 29.1 65 65 65s65-29.1 65-65-29.1-65-65-65-65 29.1-65 65z" id="Layer_15"/>
    <g id="STROKES">
        <path class="st2" d="M1056 1289v318.1c0 53-43 96-96 96s-96-43-96-96V953c0-53 43-96 96-96 26.5 0 50.5 10.7 67.9 28.1 17.4 17.4 28.1 41.4 28.1 67.9v336z"/>
        <path class="st2" d="M1061.2 469.3c4.4 11.7 6.8 24.4 6.8 37.7 0 59.7-48.3 108-108 108s-108-48.3-108-108c0-13.3 2.4-26 6.8-37.7 5.1-13.8 13-26.2 22.9-36.7 19.7-20.7 47.5-33.6 78.3-33.6s58.6 12.9 78.3 33.6c9.9 10.5 17.8 22.9 22.9 36.7z"/>
        <path class="st2" d="M1025 332c0 35.9-29.1 65-65 65s-65-29.1-65-65 29.1-65 65-65 65 29.1 65 65z"/>
        <path class="st2" d="M772 697h376"/>
        <path class="st2" d="M858 469h-94v820h100"/>
        <path class="st2" d="M854 1479s-184 16-184-136H518"/>
        <path class="st2" d="M764 1289l-104-58h-66"/>
        <path class="st2" d="M762 651h-82"/>
        <path class="st2" d="M678 652c0 26.5-32.2 48-72 48s-72-21.5-72-48 32.2-48 72-48 72 21.5 72 48z"/>
        <path class="st2" d="M550 264c-3.3-19.7-46-48-100-50s-66 56-48 114 156-16 148-64z"/>
        <path class="st2" d="M550 264h50v78l124-38 101.7 82.9 56 45.7"/>
        <path class="st2" d="M394 439l212-56"/>
        <path class="st2" d="M600 342l26 99 199.7-54.1"/>
        <path class="st2" d="M1062 469h94v820h-100"/>
        <path class="st2" d="M1066 1479s184 16 184-136h152"/>
        <path class="st2" d="M1326 1231h-66l-104 58"/>
        <path class="st2" d="M1158 651h82"/>
        <path class="st2" d="M1242 652c0 26.5 32.2 48 72 48s72-21.5 72-48-32.2-48-72-48-72 21.5-72 48z"/>
        <path class="st2" d="M1370 264c3.3-19.7 46-48 100-50s66 56 48 114-156-16-148-64z"/>
        <path class="st2" d="M1370 264h-50v78l-124-38-101.7 82.9-56 45.7"/>
        <path class="st2" d="M1526 439l-212-56"/>
        <path class="st2" d="M1320 342l-26 99-199.7-54.1"/>
        <path class="st2" d="M960 615v242"/>
    </g>
</svg>
