<svg xmlns="http://www.w3.org/2000/svg" viewBox="0 0 1920 1920">
    <style>
        .st0{fill:#fff}.st1,.st2{fill:none}.st2{stroke:#231f20;stroke-width:50;stroke-linecap:round;stroke-linejoin:round;stroke-miterlimit:10}
    </style>
    <path class="st0" d="M654.4 1144.9c-8.3 0-18.7.2-30.7.5.9 5.1 1.3 10.3 1.3 15.6 0 50.8-41.2 92-92 92s-92-41.2-92-92c0-2.7.1-5.3.3-7.9-23.6 1.2-46.9 2.4-68.4 3.5-65.7 3.5-116 6.4-116 6.4 14.4-47.8 30.8-87.3 47.8-120 15.7-30.1 32-54.4 47.9-74 57.8-71.1 110.2-80 110.2-80v-50l320-18v-44l152.4 19-.4 3v58c-124 124-48 258 34 258s144 8 234-26c47.1-17.8 78.3-75 94.5-130.9 14.8-51 17.1-101 7.5-119.1-20-38-117.8-227.6-117.8-227.6l68 .8L1437 933s-112 80-128 158c-6 29.1-24.5 54.6-47.9 75.1-39.4 34.5-92.7 54.9-124.1 54.9H717s12-74-50-76c-3.4-.1-7.6-.2-12.6-.1z" id="Layer_10"/>
    <path class="st0" d="M1325 495v118l-69.7-.8-68-.8-30.5-.4 34.3-48c-.1 0 33.9-70 133.9-68zm356 526c-80-136-244-88-244-88s-112 80-128 158c-6 29.1-24.5 54.6-47.9 75.1l17.9 2.9c30.5 2.8 56.2-1.4 78.8-9.8 57.4-21.5 94.7-70.6 139.2-102.2 5.2-3.7 10.8-7 16.7-10 64.9-32.7 167.3-26 167.3-26z" id="Layer_11"/>
    <path class="st0" d="M974.1 761.7l.9 39.3-39.6-5L783 777l-73.7-9.2c-6.4-.8-12-3.9-16-8.4s-6.4-10.5-6.4-16.9c0-14.1 11.4-25.5 25.5-25.5h215.8c24.9 0 45.3 19.8 45.9 44.7z" id="Layer_12"/>
    <path class="st0" d="M1513.7 1047c88.1.9 159.3 72.6 159.3 161 0 88.9-72.1 161-161 161s-161-72.1-161-161c0-12.6 1.4-24.8 4.2-36.5l2.7-12.3c57.4-21.5 94.7-70.6 139.2-102.2 5.1-3.7 10.7-7 16.6-10zm-859.3 97.9c-8.3 0-18.7.2-30.7.5.9 5.1 1.3 10.3 1.3 15.6 0 50.8-41.2 92-92 92s-92-41.2-92-92c0-2.7.1-5.3.3-7.9-23.6 1.2-46.9 2.4-68.4 3.5v.3c-10.9 21.7-17 46.1-17 72 0 88.9 72.1 161 161 161s161-72.1 161-161c0-29.8-8.1-57.8-22.3-81.8l-1.2-2.2z" id="Layer_13"/>
    <path class="st0" d="M259 969h93.8c-15.9 19.6-32.2 43.9-47.9 74H259v-74z" id="Layer_14"/>
    <g id="STROKES">
        <path class="st2" d="M935.4 796l39.6 5-.9-39.3c-.6-24.9-20.9-44.7-45.8-44.7H712.5c-14.1 0-25.5 11.4-25.5 25.5 0 6.4 2.4 12.4 6.4 16.9 4 4.5 9.6 7.6 16 8.4L783 777l152.4 19z"/>
        <path class="st2" d="M1121 661l35.7-50 34.3-48s34-70 134-68v118l-69.7-.8-68-.8-30.5-.4"/>
        <path class="st2" d="M1187.2 611.4S1285 801 1305 839c9.5 18.1 7.2 68.1-7.5 119.1-16.2 55.9-47.4 113.1-94.5 130.9-90 34-152 26-234 26s-158-134-34-258v-58"/>
        <path class="st2" d="M783 777v44l-320 18v50s-52.5 8.9-110.2 80c-15.9 19.6-32.2 43.9-47.9 74-17 32.7-33.4 72.2-47.8 120 0 0 50.2-2.9 116-6.4 21.5-1.1 44.8-2.3 68.4-3.5-.2 2.6-.3 5.2-.3 7.9 0 50.8 41.2 92 92 92s92-41.2 92-92c0-5.3-.5-10.5-1.3-15.6 12-.3 22.4-.5 30.7-.5 5 0 9.2 0 12.6.1 62 2 50 76 50 76h420c31.3 0 84.7-20.4 124.1-54.9 23.5-20.5 42-46 47.9-75.1 16-78 128-158 128-158l-181.7-320.8"/>
        <path class="st2" d="M373 1157c-10.9 21.7-17 46.1-17 72 0 88.9 72.1 161 161 161s161-72.1 161-161c0-29.8-8.1-57.8-22.3-81.8l-1.3-2.3"/>
        <path class="st2" d="M1512 1047h1.7c88.1.9 159.3 72.6 159.3 161 0 88.9-72.1 161-161 161s-161-72.1-161-161c0-12.6 1.4-24.8 4.2-36.5l2.7-12.3"/>
        <path class="st2" d="M1437 933s164-48 244 88c0 0-102.4-6.7-167.3 26-5.9 3-11.5 6.3-16.7 10-44.5 31.6-81.8 80.6-139.2 102.2-22.6 8.5-48.3 12.7-78.8 9.8l-17.9-2.9"/>
        <path class="st2" d="M1211 815l-34 198"/>
        <path class="st2" d="M1297.5 958.1L1203 903"/>
        <path class="st2" d="M352.8 969H259v74h45.8"/>
    </g>
</svg>
