<svg xmlns="http://www.w3.org/2000/svg" viewBox="0 0 1920 1920">
    <style>
        .st0{fill:#fff}.st1,.st2{fill:none}.st2{stroke:#231f20;stroke-width:50;stroke-linecap:round;stroke-linejoin:round;stroke-miterlimit:10}
    </style>
    <path class="st0" d="M1339 957.2c14-13.7 31.5-25.4 52.9-34.8 74.6-32.7 167.3 9.1 196.4 90.9 9.7 27.3 28.1 37 47.3 38.4v.1c0 106.7-86.5 193.2-193.2 193.2-60.7 0-127.4-40.6-162.8-84.3 10.4-17 17.9-39.2 15.9-67.4-3.8-55.7 8.9-102.2 43.5-136.1zm49.2 94.6c0 30 24.3 54.3 54.3 54.3 30 0 54.3-24.3 54.3-54.3 0-30-24.3-54.2-54.3-54.2-30 0-54.3 24.3-54.3 54.2zm-901 97.8l40.3-45.3c-20-8-34.2-27.5-34.2-50.4 0-30 24.3-54.2 54.3-54.2 20.2 0 37.9 11.1 47.2 27.5l99.2-47.3c-32.6-47.8-78-105.2-163.3-99.5-78 5.2-123.7 58.6-158.5 165-5.6 17.3-12.8 30.5-20.9 40.6 18 88 102.9 165.6 196.3 165.6 74.5 0 139.1-40.1 171.3-101.8v-.3c-123.1.1-231.7.1-231.7.1z" id="Layer_3"/>
    <path class="st0" d="M593.5 1025.9c4.5 7.9 7 17 7 26.7 0 30-24.3 54.3-54.3 54.3-7.1 0-13.8-1.3-20-3.8-20-8-34.2-27.5-34.2-50.4 0-30 24.3-54.2 54.3-54.2 20.2-.1 37.9 11 47.2 27.4zm793.4 24.7c0 30 24.3 54.3 54.3 54.3 30 0 54.3-24.3 54.3-54.3 0-30-24.3-54.2-54.3-54.2-30 0-54.3 24.3-54.3 54.2z" id="Layer_4"/>
    <path class="st0" d="M1203.8 800.8c11.7 33.6-4.5 75.2-4.5 75.2s-14.5 58.9-37.7 122.1l-1.4-.5s-102 49.9-138.9 26c-36.9-23.9-91.2-156.3-91.2-156.3s80.3-108.5 197.6-108.5c47.3 0 68.1 19.1 76.1 42zM849.5 905.7l-81.2 38.7-74.4 35.5-99.2 47.3c4.5 7.9 7 17 7 26.7 0 30-24.3 54.3-54.3 54.3-7.1 0-13.8-1.3-20-3.8l-40.3 45.3h568.8c40.7 0 78.9-78.5 105.6-151.4l-1.4-.5s-102 49.9-138.9 26C984.3 999.9 930 867.5 930 867.5l-80.5 38.2z" id="Layer_5"/>
    <g id="Layer_6">
        <path class="st0" d="M308.5 979.9c18.4-99.7 103.7-176 207.6-180.7 3.4-.1 6.7-.2 10.1-.2 99 0 188.5 40.6 242.1 145.5L693.9 980c-32.6-47.8-78-105.2-163.3-99.5-78 5.2-123.7 58.6-158.5 165-5.6 17.3-12.8 30.5-20.9 40.6-41.7 52.1-107.2 20.2-107.2 20.2 34.7 0 60.8-63 60.8-85.8 0-14 1.3-27.5 3.7-40.6z"/>
        <path class="st0" d="M516.1 798.8v.4c-103.9 4.7-189.2 81-207.6 180.7h-88.9s51.2-41.2 53.4-108.5h-42.5v-72.5h285.6z"/>
        <path class="st0" d="M1303.8 889.2l35.2 67.9c-34.6 34-47.4 80.4-43.5 136.2 2 28.2-5.5 50.5-15.9 67.4-18.2 29.7-45.3 43.2-45.9 43.5 9.1-25.5-4-53.2-4-53.2-35.5-96.5-2.6-201.5 74.1-261.8zm63.2-35.3c-23.4 8.6-44.7 20.6-63.3 35.3l35.2 67.9c14-13.7 31.5-25.4 52.9-34.8 74.6-32.7 167.3 9.1 196.4 90.9 9.7 27.3 28.1 37 47.3 38.4 31.7 2.4 65.4-17.5 65.4-17.5s-23.6-13.7-37-43C1611.3 874.8 1487 809.8 1367 853.9z"/>
    </g>
    <path class="st0" d="M1362.1 582.9l4.3 128.1-80.3-23.9s-82.5-39.1-23.9-67.3c58.6-28.2 99.9-36.9 99.9-36.9z" id="Layer_2"/>
    <g id="STROKES">
        <path class="st2" d="M1635.6 1051.8c0 106.7-86.5 193.2-193.2 193.2-60.7 0-127.4-40.6-162.8-84.3"/>
        <path class="st2" d="M1496.7 1051.8c0 30-24.3 54.3-54.3 54.3-30 0-54.3-24.3-54.3-54.3 0-30 24.3-54.2 54.3-54.2 30 0 54.3 24.3 54.3 54.2z"/>
        <path class="st2" d="M718.8 1149.8c-32.3 61.7-96.9 101.8-171.3 101.8-93.4 0-178.2-77.6-196.3-165.6"/>
        <path class="st2" d="M594.7 1027.1c4.5 7.9 7 17 7 26.7 0 30-24.3 54.3-54.3 54.3-7.1 0-13.8-1.3-20-3.8-20-8-34.2-27.5-34.2-50.4 0-30 24.3-54.2 54.3-54.2 20.2-.1 37.9 11 47.2 27.4z"/>
        <path class="st2" d="M1058.2 702.3l84.9-36.4c20.7-8.9 44.6-.3 55 19.7l46.8 90.2 58.9 113.4 35.2 67.9 49.2 94.7"/>
        <path class="st2" d="M1286.1 687.1s-82.5-39.1-23.9-67.3c58.6-28.2 99.9-36.9 99.9-36.9l4.3 128.1-80.3-23.9z"/>
        <path class="st2" d="M1364.7 847.8l-54.6-111.6-24-49.1"/>
        <path class="st2" d="M930.1 867.3s80.3-108.5 197.6-108.5c47.4 0 68.2 19.2 76.1 42 11.7 33.6-4.5 75.2-4.5 75.2s-14.5 58.9-37.7 122.1c-26.7 72.9-64.9 151.4-105.6 151.4H487.2l40.3-45.3"/>
        <path class="st2" d="M594.7 1027.1l99.2-47.2 74.4-35.5 81.2-38.7 80.6-38.4"/>
        <path class="st2" d="M843.2 1147.4l-58.6-206.3"/>
        <path class="st2" d="M308.5 979.9h-88.9s51.2-41.2 53.4-108.5h-42.5v-72.5h285.6"/>
        <path class="st2" d="M715.2 789.2l102 17.3H891"/>
        <path class="st2" d="M817.2 806.5l28.9 88.3 3.4 10.9 74.1 235.2"/>
        <path class="st2" d="M1160.2 997.6s-102 49.9-138.9 26c-36.9-23.9-91.2-156.3-91.2-156.3"/>
        <path class="st2" d="M768.3 944.4c-53.6-104.8-143-145.5-242.1-145.5-3.4 0-6.8.1-10.1.2-103.9 4.7-189.2 81-207.6 180.7-2.4 13.1-3.7 26.7-3.7 40.5 0 22.8-26 85.8-60.8 85.8 0 0 65.5 32 107.2-20.2 8.1-10.1 15.3-23.4 20.9-40.6 34.7-106.4 80.5-159.7 158.5-165 85.3-5.7 130.7 51.8 163.3 99.5"/>
        <path class="st2" d="M1311.9 735.1l-1.8 1.1-65.2 39.6-41.1 25"/>
        <path class="st2" d="M1233.7 1204.2c9.1-25.5-4-53.2-4-53.2-35.5-96.5-2.7-201.5 74-261.8 18.6-14.6 39.8-26.7 63.3-35.3 119.9-44.1 244.3 20.9 297.1 137.3 13.3 29.4 37 43 37 43s-33.7 19.9-65.4 17.5c-19.2-1.5-37.6-11.1-47.3-38.4-29.1-81.8-121.8-123.7-196.4-90.9-21.4 9.4-38.9 21.1-52.9 34.8-34.6 34-47.4 80.4-43.5 136.2 2 28.2-5.5 50.5-15.9 67.4-18.3 29.7-45.3 43.1-46 43.4"/>
    </g>
</svg>
