<svg xmlns="http://www.w3.org/2000/svg" viewBox="0 0 1920 1920">
    <style>
        .st0{fill:#fff}.st1{fill:none;stroke:#000;stroke-width:50;stroke-linecap:round;stroke-linejoin:round;stroke-miterlimit:10}
    </style>
    <path class="st0" d="M1219.9 667.8l-79.7-30.7 36.8-193.4 401.6 484.9-294.8 135.2-123.1-108.1 102.6-148.4-87.2-32.9 43.8-106.6zm-607.1 11.4l93 43.2L624 829.2l95.7 39.6-97.5 137.2 164.1 57.7 137-217.5L667.9 479l-55.1 200.2z" id="Layer_1"/>
    <path class="st0" d="M216.9 1099.7l451-620.7-55.1 200.2 92.9 43.2-81.8 106.9 95.7 39.5-97.5 137.3 164.1 57.7 137.1-217.5L1177 443.6 1140.2 637l79.7 30.8-43.8 106.6 87.2 32.9-102.6 148.3 123.1 108.2 294.8-135.3 124.5 150.3z" id="Layer_2"/>
    <g id="STROKES">
        <path class="st1" d="M667.9 479l255.4 367.3"/>
        <path class="st1" d="M216.9 1099.7l451-620.7-55.1 200.2 92.9 43.2-81.8 106.9 95.7 39.5-97.5 137.3 164.1 57.7 137.1-217.5L1177 443.6 1140.2 637l79.7 30.8-43.8 106.6 87.2 32.9-102.6 148.3 123.1 108.2 294.8-135.3"/>
        <path class="st1" d="M1177 443.6l401.6 484.9 124.5 150.3"/>
    </g>
</svg>
