<svg xmlns="http://www.w3.org/2000/svg" viewBox="0 0 1920 1920">
    <style>
        .st0{fill:#fff}.st1{fill:none;stroke:#000;stroke-width:50;stroke-linecap:round;stroke-linejoin:round;stroke-miterlimit:10}
    </style>
    <path class="st0" d="M1242 1239.4c-19 40.4-40.8 77.8-66.1 110.1-28.8 36.9-62 67.2-100.1 87.6-.4-.6-.8-1.2-1.2-1.7-.4-.6-.8-1.1-1.2-1.7-.8-1.2-1.7-2.4-2.6-3.5l-1.2-1.5c-1-1.2-2-2.5-3-3.6-.3-.4-.7-.8-1-1.2-1.4-1.6-2.8-3.1-4.2-4.6l-1.5-1.5-1.4-1.4c-2-2-4.1-3.9-6.2-5.8-.5-.5-1.1-.9-1.6-1.4-.5-.4-1-.9-1.5-1.3 0 0-.1 0-.1-.1-.5-.4-1.1-.9-1.6-1.3s-1.1-.9-1.6-1.3c-.7-.5-1.3-1-2-1.5-.9-.7-1.8-1.3-2.7-2-.7-.5-1.4-1-2.1-1.4-.6-.4-1.2-.8-1.7-1.2l-1.8-1.2c-.6-.4-1.2-.8-1.8-1.1-.5-.3-1.1-.7-1.6-1-.7-.4-1.3-.8-2-1.2-.6-.4-1.2-.7-1.8-1-1.3-.7-2.5-1.4-3.8-2.1l-1.8-.9c-.7-.3-1.3-.7-2-1l-1.8-.9c-.6-.3-1.3-.6-1.9-.9-1.3-.6-2.6-1.1-3.9-1.7-1.6-.7-3.3-1.3-4.9-1.9-1-.4-2-.7-3-1.1-.7-.2-1.3-.5-2-.7-.6-.2-1.3-.4-1.9-.6-1.5-.5-3.1-.9-4.6-1.3-.6-.2-1.2-.3-1.8-.5-.7-.2-1.4-.3-2.1-.5-3.3-.8-6.7-1.5-10-2-.5-.1-.9-.2-1.4-.2-.5-.1-.9-.2-1.4-.2l-2.1-.3h-.1c-1.4-.2-2.8-.3-4.2-.5-1.5-.2-3.1-.3-4.6-.4-.7-.1-1.5-.1-2.2-.1-.6 0-1.3-.1-1.9-.1-.9 0-1.7 0-2.6-.1H958c-.9 0-1.7 0-2.6.1-.6 0-1.3.1-1.9.1-.7 0-1.5.1-2.2.1-1.6.1-3.1.2-4.6.4-1.4.1-2.8.3-4.2.5h-.1l-2.1.3c-.5.1-.9.1-1.4.2-.5.1-.9.1-1.4.2-3.4.6-6.7 1.2-10 2-.7.2-1.4.3-2.1.5-.6.2-1.2.3-1.8.5-1.5.4-3.1.9-4.6 1.3-.6.2-1.3.4-1.9.6-.7.2-1.4.4-2 .7-1 .3-2 .7-3 1.1-1.7.6-3.3 1.2-4.9 1.9-1.3.5-2.6 1.1-3.9 1.7-.7.3-1.3.6-1.9.9l-1.8.9c-.7.3-1.3.6-2 1l-1.8.9c-1.3.7-2.6 1.3-3.8 2.1-.6.3-1.2.7-1.8 1-.7.4-1.3.8-2 1.2-.5.3-1.1.7-1.6 1-.6.4-1.2.7-1.8 1.1l-1.8 1.2c-.6.4-1.2.8-1.7 1.2-.7.5-1.4.9-2.1 1.4-.9.7-1.8 1.3-2.7 2-.7.5-1.3 1-2 1.5-.5.4-1.1.8-1.6 1.3-.5.4-1.1.9-1.6 1.3l-.1.1c-.5.4-1 .8-1.5 1.3s-1.1.9-1.6 1.4c-2.1 1.8-4.2 3.8-6.2 5.8l-1.4 1.4-1.5 1.5c-1.5 1.5-2.9 3.1-4.2 4.6-.4.4-.7.8-1 1.2l-3 3.6-1.2 1.5c-.9 1.1-1.8 2.3-2.6 3.5-.4.6-.8 1.1-1.2 1.7-.4.6-.8 1.1-1.2 1.7-38.2-20.4-71.3-50.7-100.1-87.6-25.2-32.3-47.1-69.7-66.1-110.1-18.8-40.1-34.8-83.1-48.4-126.8-16-51.5-28.5-104.1-38.5-154.4-6.4.5-12.8.8-19.3.9-196 4-355-346-352.4-542.1 2.4-189.9 154.7-153.2 345.2-153.2 128.9 0 241.5 70.2 301.5 174.4 28.6-3.9 59.8-6.4 93.9-7.2 34.1.8 65.3 3.3 93.9 7.2 60-104.2 172.6-174.4 301.5-174.4 190.5 0 342.8-36.7 345.2 153.2 2.5 196-156.4 546.1-352.4 542.1-6.5-.1-12.9-.4-19.3-.9-9.9 50.2-22.5 102.9-38.5 154.4-14 43.7-30 86.7-48.8 126.8z" id="Layer_1"/>
    <path class="st0" d="M1075.8 1437.1c15.3 22.5 24.3 49.7 24.3 78.9 0 77.4-62.7 140.1-140.1 140.1s-140.1-62.7-140.1-140.1c0-29.3 9-56.5 24.3-78.9.4-.6.8-1.2 1.2-1.7.4-.6.8-1.1 1.2-1.7.8-1.2 1.7-2.4 2.6-3.5l1.2-1.5c1-1.2 2-2.5 3-3.6.3-.4.7-.8 1-1.2 1.4-1.6 2.8-3.1 4.2-4.6l1.5-1.5 1.4-1.4c2-2 4.1-3.9 6.2-5.8.5-.5 1-.9 1.6-1.4.5-.4 1-.9 1.5-1.3l.1-.1c.5-.4 1.1-.9 1.6-1.3s1.1-.9 1.6-1.3c.7-.5 1.3-1 2-1.5.9-.7 1.8-1.3 2.7-2 .7-.5 1.4-1 2.1-1.4.6-.4 1.2-.8 1.7-1.2l1.8-1.2c.6-.4 1.2-.8 1.8-1.1.5-.3 1.1-.7 1.6-1 .7-.4 1.3-.8 2-1.2.6-.4 1.2-.7 1.8-1 1.3-.7 2.5-1.4 3.8-2.1l1.8-.9c.7-.3 1.3-.7 2-1l1.8-.9c.6-.3 1.3-.6 1.9-.9 1.3-.6 2.6-1.1 3.9-1.7 1.6-.7 3.3-1.3 4.9-1.9 1-.4 2-.7 3-1.1.7-.2 1.3-.4 2-.7.6-.2 1.3-.4 1.9-.6 1.5-.5 3.1-.9 4.6-1.3.6-.2 1.2-.3 1.8-.5.7-.2 1.4-.3 2.1-.5 3.3-.8 6.7-1.5 10-2 .5-.1.9-.2 1.4-.2.5-.1.9-.2 1.4-.2l2.1-.3h.1c1.4-.2 2.8-.3 4.2-.5 1.5-.2 3.1-.3 4.6-.4.7-.1 1.5-.1 2.2-.1.6 0 1.3-.1 1.9-.1.9 0 1.7 0 2.6-.1h4.4c.9 0 1.7 0 2.6.1.6 0 1.3.1 1.9.1.7 0 1.5.1 2.2.1 1.6.1 3.1.2 4.6.4 1.4.1 2.8.3 4.2.5h.1l2.1.3c.5.1.9.1 1.4.2.5.1.9.1 1.4.2 3.4.6 6.7 1.2 10 2 .7.2 1.4.3 2.1.5.6.2 1.2.3 1.8.5 1.5.4 3.1.9 4.6 1.3.6.2 1.3.4 1.9.6.7.2 1.4.4 2 .7 1 .3 2 .7 3 1.1 1.7.6 3.3 1.2 4.9 1.9 1.3.5 2.6 1.1 3.9 1.7.7.3 1.3.6 1.9.9l1.8.9c.7.3 1.3.6 2 1l1.8.9c1.3.7 2.6 1.3 3.8 2.1.6.3 1.2.7 1.8 1 .7.4 1.3.8 2 1.2.6.3 1.1.7 1.6 1 .6.4 1.2.7 1.8 1.1l1.8 1.2c.6.4 1.2.8 1.7 1.2.7.5 1.4.9 2.1 1.4.9.7 1.8 1.3 2.7 2 .7.5 1.3 1 2 1.5.5.4 1.1.9 1.6 1.3s1.1.9 1.6 1.3c0 0 .1 0 .1.1.5.4 1 .9 1.5 1.3.5.5 1.1.9 1.6 1.4 2.1 1.8 4.2 3.8 6.2 5.8l1.4 1.4 1.5 1.5c1.5 1.5 2.9 3.1 4.2 4.6.3.4.7.8 1 1.2l3 3.6 1.2 1.5c.9 1.1 1.8 2.3 2.6 3.5.4.6.8 1.1 1.2 1.7.8.5 1.2 1.1 1.6 1.7z" id="Layer_2"/>
    <g id="STROKES">
        <path class="st1" d="M957.8 1375.9h2.2"/>
        <path class="st1" d="M951 1376.2c.7-.1 1.5-.1 2.2-.1.6 0 1.3-.1 1.9-.1"/>
        <path class="st1" d="M942.2 1377c1.4-.2 2.8-.3 4.2-.5"/>
        <path class="st1" d="M940.1 1377.3l2.1-.3"/>
        <path class="st1" d="M937.2 1377.7c.5-.1.9-.2 1.4-.2"/>
        <path class="st1" d="M923.4 1380.7c.6-.2 1.2-.3 1.8-.5.7-.2 1.4-.3 2.1-.5"/>
        <path class="st1" d="M914.9 1383.3c.7-.2 1.3-.4 2-.7.6-.2 1.3-.4 1.9-.6"/>
        <path class="st1" d="M899.2 1389.7l1.8-.9c.6-.3 1.3-.6 1.9-.9 1.3-.6 2.6-1.1 3.9-1.7 1.6-.7 3.3-1.3 4.9-1.9"/>
        <path class="st1" d="M895.5 1391.6l1.8-.9"/>
        <path class="st1" d="M889.8 1394.7c.6-.4 1.2-.7 1.8-1"/>
        <path class="st1" d="M886.2 1396.9c.5-.3 1.1-.7 1.6-1"/>
        <path class="st1" d="M881 1400.3c.6-.4 1.2-.8 1.7-1.2l1.8-1.2"/>
        <path class="st1" d="M876.2 1403.7c.9-.7 1.8-1.3 2.7-2"/>
        <path class="st1" d="M870.9 1407.8c.5-.4 1.1-.9 1.6-1.3s1.1-.9 1.6-1.3"/>
        <path class="st1" d="M867.7 1410.6c.5-.5 1-.9 1.6-1.4.5-.4 1-.9 1.5-1.3"/>
        <path class="st1" d="M858.7 1419.2l1.5-1.5 1.4-1.4"/>
        <path class="st1" d="M853.4 1425c.3-.4.7-.8 1-1.2"/>
        <path class="st1" d="M849.2 1430.2l1.2-1.5"/>
        <path class="st1" d="M845.4 1435.4c.4-.6.8-1.1 1.2-1.7"/>
        <path class="st1" d="M984.9 430.8c-8.5 0-16.8.1-24.9.3-34.1.8-65.3 3.3-93.9 7.2-60-104.2-172.6-174.4-301.5-174.4-190.5 0-342.8-36.7-345.2 153.2-2.5 196 156.4 546.1 352.4 542.1 6.5-.1 12.9-.4 19.3-.9 9.9 50.2 22.5 102.9 38.5 154.4 13.5 43.8 29.5 86.8 48.4 126.8 19 40.4 40.8 77.8 66.1 110.1 28.8 36.9 62 67.2 100.1 87.6"/>
        <path class="st1" d="M960 1375.9h-2.2c-.9 0-1.7 0-2.6.1-.6 0-1.3.1-1.9.1-.7 0-1.5.1-2.2.1-1.6.1-3.1.2-4.6.4-1.4.1-2.8.3-4.2.5h-.1l-2.1.3c-.5.1-.9.1-1.4.2-.5.1-.9.1-1.4.2-3.4.6-6.7 1.2-10 2-.7.2-1.4.3-2.1.5-.6.2-1.2.3-1.8.5-1.5.4-3.1.9-4.6 1.3-.6.2-1.3.4-1.9.6-.7.2-1.4.4-2 .7-1 .3-2 .7-3 1.1-1.7.6-3.3 1.2-4.9 1.9-1.3.5-2.6 1.1-3.9 1.7-.7.3-1.3.6-1.9.9l-1.8.9c-.7.3-1.3.6-2 1l-1.8.9c-1.3.7-2.6 1.3-3.8 2.1-.6.3-1.2.7-1.8 1-.7.4-1.3.8-2 1.2-.5.3-1.1.7-1.6 1-.6.4-1.2.7-1.8 1.1l-1.8 1.2c-.6.4-1.2.8-1.7 1.2-.7.5-1.4.9-2.1 1.4-.9.7-1.8 1.3-2.7 2-.7.5-1.3 1-2 1.5-.5.4-1.1.8-1.6 1.3-.5.4-1.1.9-1.6 1.3l-.1.1c-.5.4-1 .8-1.5 1.3s-1.1.9-1.6 1.4c-2.1 1.8-4.2 3.8-6.2 5.8l-1.4 1.4-1.5 1.5c-1.5 1.5-2.9 3.1-4.2 4.6-.4.4-.7.8-1 1.2l-3 3.6-1.2 1.5c-.9 1.1-1.8 2.3-2.6 3.5-.4.6-.8 1.1-1.2 1.7-.4.6-.8 1.1-1.2 1.7-15.4 22.5-24.3 49.7-24.3 78.9 0 77.4 62.7 140.1 140.1 140.1"/>
        <path class="st1" d="M781.8 1073.2s-65.6 12.6-152.2 39.4c-167.3 51.8-412.7 156.4-412.7 324.9"/>
        <path class="st1" d="M799.3 1176.5s-50.3 23.4-121.3 62.9c-170.6 95-461 283.1-461 463.6"/>
        <path class="st1" d="M819.9 1296.9s-31.5 20.7-75.8 52.7c-104.2 75.1-279.3 212.7-283.9 291.3"/>
        <path class="st1" d="M684.7 765.9s28-113.7 154.9-88.5"/>
        <path class="st1" d="M962.2 1375.9H960"/>
        <path class="st1" d="M969 1376.2c-.7-.1-1.5-.1-2.2-.1-.6 0-1.3-.1-1.9-.1"/>
        <path class="st1" d="M977.8 1377c-1.4-.2-2.8-.3-4.2-.5"/>
        <path class="st1" d="M979.9 1377.3l-2.1-.3"/>
        <path class="st1" d="M982.8 1377.7c-.5-.1-.9-.2-1.4-.2"/>
        <path class="st1" d="M996.6 1380.7c-.6-.2-1.2-.3-1.8-.5-.7-.2-1.4-.3-2.1-.5"/>
        <path class="st1" d="M1005.1 1383.3c-.7-.2-1.3-.4-2-.7-.6-.2-1.3-.4-1.9-.6"/>
        <path class="st1" d="M1020.8 1389.7l-1.8-.9c-.6-.3-1.3-.6-1.9-.9-1.3-.6-2.6-1.1-3.9-1.7-1.6-.7-3.3-1.3-4.9-1.9"/>
        <path class="st1" d="M1024.5 1391.6l-1.8-.9"/>
        <path class="st1" d="M1030.2 1394.7c-.6-.4-1.2-.7-1.8-1"/>
        <path class="st1" d="M1033.8 1396.9c-.5-.3-1.1-.7-1.6-1"/>
        <path class="st1" d="M1039 1400.3c-.6-.4-1.2-.8-1.7-1.2l-1.8-1.2"/>
        <path class="st1" d="M1043.8 1403.7c-.9-.7-1.8-1.3-2.7-2"/>
        <path class="st1" d="M1049.1 1407.8c-.5-.4-1.1-.9-1.6-1.3s-1.1-.9-1.6-1.3"/>
        <path class="st1" d="M1052.3 1410.6c-.5-.5-1.1-.9-1.6-1.4-.5-.4-1-.9-1.5-1.3"/>
        <path class="st1" d="M1061.3 1419.2l-1.5-1.5-1.4-1.4"/>
        <path class="st1" d="M1066.6 1425c-.3-.4-.7-.8-1-1.2"/>
        <path class="st1" d="M1070.8 1430.2l-1.2-1.5"/>
        <path class="st1" d="M1074.6 1435.4c-.4-.6-.8-1.1-1.2-1.7"/>
        <path class="st1" d="M935.1 430.8c8.5 0 16.8.1 24.9.3 34.1.8 65.3 3.3 93.9 7.2 60-104.2 172.6-174.4 301.5-174.4 190.5 0 342.8-36.7 345.2 153.2 2.5 196-156.4 546.1-352.4 542.1-6.5-.1-12.9-.4-19.3-.9-9.9 50.2-22.5 102.9-38.5 154.4-13.6 43.8-29.5 86.8-48.4 126.8-19 40.4-40.8 77.8-66.1 110.1-28.8 36.9-62 67.2-100.1 87.6"/>
        <path class="st1" d="M960 1375.9h2.2c.9 0 1.7 0 2.6.1.6 0 1.3.1 1.9.1.7 0 1.5.1 2.2.1 1.6.1 3.1.2 4.6.4 1.4.1 2.8.3 4.2.5h.1l2.1.3c.5.1.9.1 1.4.2.5.1.9.1 1.4.2 3.4.6 6.7 1.2 10 2 .7.2 1.4.3 2.1.5.6.2 1.2.3 1.8.5 1.5.4 3.1.9 4.6 1.3.6.2 1.3.4 1.9.6.7.2 1.4.4 2 .7 1 .3 2 .7 3 1.1 1.7.6 3.3 1.2 4.9 1.9 1.3.5 2.6 1.1 3.9 1.7.7.3 1.3.6 1.9.9l1.8.9c.7.3 1.3.6 2 1l1.8.9c1.3.7 2.6 1.3 3.8 2.1.6.3 1.2.7 1.8 1 .7.4 1.3.8 2 1.2.6.3 1.1.7 1.6 1 .6.4 1.2.7 1.8 1.1l1.8 1.2c.6.4 1.2.8 1.7 1.2.7.5 1.4.9 2.1 1.4.9.7 1.8 1.3 2.7 2 .7.5 1.3 1 2 1.5.6.4 1.1.8 1.6 1.3.6.4 1.1.9 1.6 1.3 0 0 .1 0 .1.1.5.4 1 .8 1.5 1.3s1.1.9 1.6 1.4c2.1 1.8 4.2 3.8 6.2 5.8l1.4 1.4 1.5 1.5c1.5 1.5 2.9 3.1 4.2 4.6.3.4.7.8 1 1.2l3 3.6 1.2 1.5c.9 1.1 1.8 2.3 2.6 3.5.4.6.8 1.1 1.2 1.7.4.6.8 1.1 1.2 1.7 15.3 22.5 24.3 49.7 24.3 78.9 0 77.4-62.7 140.1-140.1 140.1"/>
        <path class="st1" d="M1138.2 1073.2s65.6 12.6 152.2 39.4c167.3 51.8 412.7 156.4 412.7 324.9"/>
        <path class="st1" d="M1120.7 1176.5s50.3 23.4 121.3 62.9c170.7 95 461.1 283.1 461.1 463.6"/>
        <path class="st1" d="M1100.1 1296.9s31.5 20.7 75.8 52.7c104.2 75.1 279.3 212.7 283.9 291.3"/>
        <path class="st1" d="M1235.3 765.9s-28-113.7-154.9-88.5"/>
    </g>
</svg>
