<svg xmlns="http://www.w3.org/2000/svg" viewBox="0 0 1920 1920">
    <style>
        .st0{fill:#fff}.st1{fill:none;stroke:#000;stroke-width:50;stroke-linecap:round;stroke-linejoin:round;stroke-miterlimit:10}
    </style>
    <path class="st0" d="M1146.9 377.6l-13.2 1.8C1058 390.2 1000.1 420 960 459.9c-40.1-39.9-98-69.6-173.8-80.5l-13.2-1.8C480 340 216.9 535 216.9 787v733.1c0 25.7 36.6 30.4 43.1 5.5 64.5-248.4 210.4-634.6 497.7-655.9 4.4-.3 8.8-.7 13.1-1.1C853.8 861 917 830 960 787c43 43 106.2 74 189.1 81.6 4.3.4 8.7.8 13.1 1.1 287.3 21.2 433.3 407.5 497.7 655.9 6.5 24.9 43.1 20.2 43.1-5.5V787c.1-252-263-447-556.1-409.4z" id="Layer_4"/>
    <path class="st1" d="M1146.9 377.6l-13.2 1.8C1058 390.2 1000.1 420 960 459.9c-40.1-39.9-98-69.6-173.8-80.5l-13.2-1.8C480 340 216.9 535 216.9 787v733.1c0 25.7 36.6 30.4 43.1 5.5 64.5-248.4 210.4-634.6 497.7-655.9 4.4-.3 8.8-.7 13.1-1.1C853.8 861 917 830 960 787c43 43 106.2 74 189.1 81.6 4.3.4 8.7.8 13.1 1.1 287.3 21.2 433.3 407.5 497.7 655.9 6.5 24.9 43.1 20.2 43.1-5.5V787c.1-252-263-447-556.1-409.4z" id="STROKES"/>
</svg>
