<svg xmlns="http://www.w3.org/2000/svg" viewBox="0 0 1920 1920">
    <style>
        .st0{fill:#fff}.st1{fill:none;stroke:#000;stroke-width:50;stroke-linecap:round;stroke-linejoin:round;stroke-miterlimit:10}
    </style>
    <path class="st0" d="M778.1 951c-.8-2.4-221.4-705.7 365.1-712h.6c587.4 6.4 363 719.2 363 719.2 53.5 32 89.3 90.6 89.3 157.5 0 101.3-82.1 183.4-183.4 183.4 0 0-4.2 45.3-21.9 101.9-8.2 26.3-19.4 55.1-34.4 82.9-30.4 56.3-76.7 108.5-146.6 128.3-.2-1.6-.4-3.1-.6-4.7-.1-.5-.2-1-.2-1.5-.1-.7-.3-1.5-.4-2.2-.1-.5-.2-1-.3-1.6-.1-.2-.1-.5-.2-.7-.1-.5-.2-.9-.3-1.3 0-.1-.1-.3-.1-.4-.1-.5-.2-.9-.4-1.4-.2-.5-.3-1.1-.5-1.6l-.3-1.2c-.2-.5-.3-1-.5-1.5s-.3-1-.5-1.5c-.3-.8-.5-1.5-.8-2.3-.2-.6-.5-1.2-.8-1.9-.3-.6-.5-1.2-.8-1.8l-.9-1.8c-.8-1.7-1.7-3.4-2.7-5.1-.2-.4-.4-.7-.6-1-.8-1.3-1.6-2.6-2.4-3.8-.3-.4-.6-.9-.9-1.3-.1-.1-.1-.2-.2-.3-.3-.4-.6-.8-.8-1.2-.8-1.2-1.7-2.3-2.6-3.4-.3-.4-.7-.8-1-1.2-.4-.5-.8-.9-1.2-1.4-.9-1-1.8-2-2.8-3-.4-.4-.7-.8-1.1-1.1-.9-.9-1.8-1.7-2.7-2.6-.9-.8-1.8-1.6-2.8-2.4-1.1-.9-2.3-1.8-3.5-2.7-.5-.3-.9-.7-1.4-1-1.2-.8-2.3-1.6-3.5-2.4l-1.5-.9c-.4-.2-.8-.5-1.2-.7-.3-.2-.7-.4-1-.6-.1-.1-.3-.2-.4-.2-.4-.2-.9-.5-1.3-.7-.1 0-.1-.1-.2-.1-.5-.3-1-.5-1.5-.8-4.2-2.1-8.7-3.9-13.2-5.3-.4-.1-.8-.3-1.3-.4-.1 0-.2-.1-.3-.1-.5-.2-1-.3-1.6-.4-.6-.2-1.2-.3-1.7-.4-.3-.1-.6-.1-.9-.2l-1.5-.3h-.2c-.4-.1-.9-.2-1.3-.2-.4-.1-.9-.2-1.3-.2-.1 0-.2 0-.3-.1-.6-.1-1.1-.2-1.7-.3-.1 0-.2 0-.4-.1-.4-.1-.9-.1-1.3-.2-.6-.1-1.2-.1-1.8-.2-.6-.1-1.3-.1-1.9-.2h-.3c-.7 0-1.3-.1-2-.1-1.4-.1-2.8-.1-4.2-.1h-2.1c-.7 0-1.4 0-2.1.1-.5 0-1 .1-1.5.1-.4 0-.7.1-1 .1-.6 0-1.1.1-1.7.2-.7.1-1.4.1-2.1.2-.8.1-1.5.2-2.3.3-.6.1-1.2.2-1.7.3h-.2c-.6.1-1.1.2-1.7.3-.1 0-.3.1-.4.1-.3.1-.7.1-1 .2l-1.2.3c-1.1.3-2.2.5-3.3.9-.5.1-.9.2-1.3.4-.2 0-.3.1-.4.1-.4.1-.8.2-1.2.4-.2.1-.4.1-.6.2-.4.1-.8.2-1.1.4-.2.1-.3.1-.5.2-.4.1-.8.3-1.2.4-1.1.4-2.3.9-3.4 1.3-.5.2-1 .5-1.6.7l-1.2.6c-.5.2-1 .5-1.5.7-.5.2-1 .5-1.5.8-1 .5-2 1-2.9 1.6-.5.3-1 .5-1.4.8-.5.3-1 .6-1.4.9-.5.3-.9.6-1.4.9-1.4.9-2.7 1.8-4.1 2.8-.4.3-.9.7-1.3 1-14 10.8-24.4 26-29.1 43.5-53.7-25.5-93-70.4-121.5-117.7-16.4-27.2-29.1-55.3-38.9-81-21.4-56.1-28.7-100.9-28.7-100.9-101.3 0-183.4-82.1-183.4-183.4-.2-72.5 41.6-135 102.3-164.9z" id="Layer_4"/>
    <path class="st0" d="M1209.8 1612.1c.3 2.8.4 5.6.4 8.4 0 45.6-36.9 82.5-82.5 82.5s-82.5-37-82.5-82.5c0-7.6 1-14.9 2.9-21.8 4.8-17.5 15.2-32.7 29.1-43.5.4-.3.9-.7 1.3-1 1.3-1 2.7-1.9 4.1-2.8.5-.3.9-.6 1.4-.9.5-.3.9-.6 1.4-.9.5-.3.9-.6 1.4-.8 1-.6 1.9-1.1 2.9-1.6.5-.3 1-.5 1.5-.8.5-.2 1-.5 1.5-.7l1.2-.6c.5-.2 1-.5 1.6-.7 1.1-.5 2.3-.9 3.4-1.3.4-.2.8-.3 1.2-.4.2-.1.4-.1.5-.2.4-.1.8-.3 1.1-.4.2-.1.4-.1.6-.2.4-.1.8-.2 1.2-.4.2-.1.3-.1.4-.1.4-.1.9-.3 1.3-.4l3.3-.9 1.2-.3c.3-.1.7-.2 1-.2.1 0 .3-.1.4-.1.6-.1 1.1-.2 1.7-.3h.2c.6-.1 1.2-.2 1.7-.3.8-.1 1.5-.2 2.3-.3.7-.1 1.4-.2 2.1-.2.6-.1 1.1-.1 1.7-.2.3 0 .7-.1 1-.1.5 0 1-.1 1.5-.1.7 0 1.4-.1 2.1-.1h2.1c1.4 0 2.8 0 4.2.1.7 0 1.3.1 2 .1h.3c.6.1 1.3.1 1.9.2.6.1 1.2.1 1.8.2.4.1.9.1 1.3.2.1 0 .2 0 .4.1.6.1 1.1.2 1.7.3.1 0 .2 0 .3.1.4.1.9.1 1.3.2.5.1.9.2 1.3.2h.2l1.5.3c.3.1.6.1.9.2.6.1 1.2.3 1.7.4.5.1 1 .3 1.6.4.1 0 .2 0 .3.1.4.1.9.2 1.3.4 4.6 1.4 9 3.2 13.2 5.3.5.2 1 .5 1.5.8.1 0 .1.1.2.1.4.2.9.5 1.3.7.2.1.3.2.4.2.3.2.7.4 1 .6.4.2.8.5 1.2.7l1.5.9c1.2.8 2.4 1.6 3.5 2.4.5.3.9.7 1.4 1 1.2.9 2.3 1.8 3.5 2.7.9.8 1.9 1.6 2.8 2.4.9.8 1.8 1.7 2.7 2.6l1.1 1.1c.9 1 1.9 2 2.8 3 .4.5.8.9 1.2 1.4.3.4.7.8 1 1.2.9 1.1 1.8 2.3 2.6 3.4.3.4.6.8.8 1.2.1.1.1.2.2.3.3.4.6.9.9 1.3.8 1.2 1.6 2.5 2.4 3.8.2.3.4.7.6 1 .9 1.6 1.8 3.3 2.7 5.1l.9 1.8c.3.6.5 1.2.8 1.8.3.6.5 1.2.8 1.9.3.8.6 1.5.8 2.3.2.5.4 1 .5 1.5.2.5.3 1 .5 1.5l.3 1.2c.2.5.3 1 .5 1.6.1.5.2.9.4 1.4 0 .1.1.3.1.4.1.4.2.9.3 1.3.1.2.1.5.2.7.1.5.2 1 .3 1.6.2.7.3 1.5.4 2.2.1.5.2 1 .2 1.5.4 1.6.6 3.2.8 4.8z" id="Layer_5"/>
    <g id="STROKES">
        <path class="st1" d="M1143.2 239.1c-586.4 6.3-365.8 709.6-365.1 712"/>
        <path class="st1" d="M1151.1 239h-7.3"/>
        <path class="st1" d="M1506.8 958.2s224.4-712.8-363-719.2h-8 13.9"/>
        <path class="st1" d="M1001.2 1405.1s-50.2-6.8-113.5-5.1c-80.5 2.2-182.2 18.2-228.4 79.8"/>
        <path class="st1" d="M736.8 1554.4s42.3-62.2 189.8-73.5c22.4-1.7 47.2-2.2 74.6-1.2"/>
        <path class="st1" d="M1254.1 1405.1s62.9-8.6 136.7-4.1c76 4.6 163.4 23 205.3 78.8"/>
        <path class="st1" d="M1518.5 1554.4s-36.9-54.3-162.2-70.6c-29.1-3.8-63-5.5-102.2-4"/>
        <path class="st1" d="M1149.7 239S646.2 84.1 555.8 595c0 0 3.9 375.8-231.9 542.4"/>
        <path class="st1" d="M1209.8 1612.1c69.9-19.8 116.2-72 146.6-128.3 15-27.8 26.2-56.5 34.4-82.9 17.7-56.6 21.9-101.9 21.9-101.9 101.3 0 183.4-82.1 183.4-183.4 0-66.9-35.8-125.4-89.3-157.5-27.5-16.5-59.7-25.9-94.1-25.9-101.3 0-183.4 82.1-183.4 183.4"/>
        <path class="st1" d="M1208.9 1605.9c.1.5.2 1 .2 1.5"/>
        <path class="st1" d="M1208.2 1602.1c.1.5.2 1 .3 1.6"/>
        <path class="st1" d="M1207.7 1600.1c.1.4.2.9.3 1.3"/>
        <path class="st1" d="M1207.2 1598.3c.1.4.2.9.4 1.4"/>
        <path class="st1" d="M1205.3 1592.5c.2.5.4 1 .5 1.5.2.5.3 1 .5 1.5l.3 1.2"/>
        <path class="st1" d="M1202.1 1584.7l.9 1.8c.3.6.5 1.2.8 1.8.3.6.5 1.2.8 1.9"/>
        <path class="st1" d="M1198.8 1578.6c.2.3.4.7.6 1"/>
        <path class="st1" d="M1195.5 1573.5c.3.4.6.9.9 1.3"/>
        <path class="st1" d="M1194.5 1572.1c.3.4.6.8.8 1.2"/>
        <path class="st1" d="M1189.7 1566.1c.4.5.8.9 1.2 1.4.3.4.7.8 1 1.2"/>
        <path class="st1" d="M1185.9 1562l1.1 1.1"/>
        <path class="st1" d="M1180.4 1557c.9.8 1.9 1.6 2.8 2.4"/>
        <path class="st1" d="M1175.5 1553.2c.5.3.9.7 1.4 1"/>
        <path class="st1" d="M1168.3 1548.7c.3.2.7.4 1 .6.4.2.8.5 1.2.7l1.5.9"/>
        <path class="st1" d="M1166.5 1547.7c.4.2.9.5 1.3.7"/>
        <path class="st1" d="M1164.9 1546.8c.5.2 1 .5 1.5.8"/>
        <path class="st1" d="M1150.3 1541.1c.4.1.8.2 1.3.4"/>
        <path class="st1" d="M1148.5 1540.6c.5.1 1 .3 1.6.4"/>
        <path class="st1" d="M1144.4 1539.7l1.5.3c.3.1.6.1.9.2"/>
        <path class="st1" d="M1141.6 1539.2c.4.1.9.1 1.3.2s.9.2 1.3.2"/>
        <path class="st1" d="M1139.6 1538.8c.6.1 1.1.2 1.7.3"/>
        <path class="st1" d="M1134.2 1538.2c.6.1 1.3.1 1.9.2.6.1 1.2.1 1.8.2.4.1.9.1 1.3.2"/>
        <path class="st1" d="M1120.9 1538.3c.3 0 .7-.1 1-.1.5 0 1-.1 1.5-.1.7 0 1.4-.1 2.1-.1h2.1c1.4 0 2.8 0 4.2.1.7 0 1.3.1 2 .1"/>
        <path class="st1" d="M1117.2 1538.7c.7-.1 1.4-.2 2.1-.2"/>
        <path class="st1" d="M1113.1 1539.3c.6-.1 1.2-.2 1.7-.3"/>
        <path class="st1" d="M1111.3 1539.6c.5-.1 1.1-.2 1.7-.3"/>
        <path class="st1" d="M1108.7 1540.2l1.2-.3c.3-.1.7-.1 1-.2"/>
        <path class="st1" d="M1104.1 1541.4c.4-.1.9-.3 1.3-.4"/>
        <path class="st1" d="M1102.4 1541.9c.4-.1.8-.2 1.2-.4"/>
        <path class="st1" d="M1100.7 1542.5c.4-.1.8-.3 1.1-.4"/>
        <path class="st1" d="M1099 1543.1c.4-.2.8-.3 1.2-.4"/>
        <path class="st1" d="M1094 1545.2c.5-.2 1-.5 1.6-.7"/>
        <path class="st1" d="M1042.4 1115.7c0-101.3-82.1-183.4-183.4-183.4-29 0-56.5 6.8-80.9 18.8-60.7 29.9-102.5 92.4-102.5 164.6 0 101.3 82.1 183.4 183.4 183.4 0 0 7.3 44.8 28.7 100.9 9.8 25.7 22.6 53.8 38.9 81 28.4 47.3 67.8 92.2 121.5 117.7 4.8-17.5 15.2-32.7 29.1-43.5.4-.3.9-.7 1.3-1 1.3-1 2.7-1.9 4.1-2.8.5-.3.9-.6 1.4-.9.5-.3.9-.6 1.4-.9.5-.3.9-.6 1.4-.8 1-.6 1.9-1.1 2.9-1.6.5-.3 1-.5 1.5-.8.5-.2 1-.5 1.5-.7"/>
        <path class="st1" d="M1048.1 1598.7c-1.9 7-2.9 14.3-2.9 21.8 0 45.6 36.9 82.5 82.5 82.5s82.5-37 82.5-82.5c0-2.8-.1-5.7-.4-8.4-.2-1.6-.4-3.1-.6-4.7-.1-.5-.2-1-.2-1.5-.1-.7-.3-1.5-.4-2.2-.1-.5-.2-1-.3-1.6-.1-.2-.1-.5-.2-.7-.1-.4-.2-.9-.3-1.3 0-.1-.1-.3-.1-.4-.1-.5-.2-.9-.4-1.4-.2-.5-.3-1.1-.5-1.6l-.3-1.2c-.2-.5-.3-1-.5-1.5s-.3-1-.5-1.5c-.3-.8-.5-1.5-.8-2.3-.2-.6-.5-1.2-.8-1.9-.3-.6-.5-1.2-.8-1.8l-.9-1.8c-.8-1.7-1.7-3.4-2.7-5.1-.2-.4-.4-.7-.6-1-.8-1.3-1.6-2.6-2.4-3.8-.3-.4-.6-.9-.9-1.3-.1-.1-.1-.2-.2-.3-.3-.4-.6-.8-.8-1.2-.8-1.2-1.7-2.3-2.6-3.4-.3-.4-.7-.8-1-1.2-.4-.5-.8-.9-1.2-1.4-.9-1-1.8-2-2.8-3-.4-.4-.7-.8-1.1-1.1-.9-.9-1.8-1.7-2.7-2.6-.9-.8-1.8-1.6-2.8-2.4-1.1-.9-2.3-1.8-3.5-2.7-.5-.3-.9-.7-1.4-1-1.2-.8-2.3-1.6-3.5-2.4l-1.5-.9c-.4-.2-.8-.5-1.2-.7-.3-.2-.7-.4-1-.6-.1-.1-.3-.2-.4-.2-.4-.2-.9-.5-1.3-.7-.1 0-.1-.1-.2-.1-.5-.3-1-.5-1.5-.8-4.2-2.1-8.7-3.9-13.2-5.3-.4-.1-.8-.3-1.3-.4-.1 0-.2-.1-.3-.1-.5-.1-1-.3-1.6-.4-.6-.2-1.2-.3-1.7-.4-.3-.1-.6-.1-.9-.2l-1.5-.3h-.2c-.4-.1-.9-.2-1.3-.2-.4-.1-.9-.2-1.3-.2-.1 0-.2 0-.3-.1-.6-.1-1.1-.2-1.7-.3-.1 0-.2 0-.4-.1-.4-.1-.9-.1-1.3-.2-.6-.1-1.2-.1-1.8-.2-.6-.1-1.3-.1-1.9-.2h-.3c-.7 0-1.3-.1-2-.1-1.4-.1-2.8-.1-4.2-.1h-2.1c-.7 0-1.4 0-2.1.1-.5 0-1 .1-1.5.1-.4 0-.7.1-1 .1-.6 0-1.1.1-1.7.2-.7.1-1.4.1-2.1.2-.8.1-1.5.2-2.3.3-.6.1-1.2.2-1.7.3h-.2c-.6.1-1.1.2-1.7.3-.1 0-.3.1-.4.1-.3.1-.7.1-1 .2l-1.2.3c-1.1.3-2.2.5-3.3.9-.5.1-.9.2-1.3.4-.2 0-.3.1-.4.1-.4.1-.8.2-1.2.4-.2.1-.4.1-.6.2-.4.1-.8.2-1.1.4-.2.1-.3.1-.5.2-.4.1-.8.3-1.2.4-1.1.4-2.3.9-3.4 1.3-.5.2-1.1.4-1.6.7l-1.2.6c-.5.2-1 .5-1.5.7-.5.2-1 .5-1.5.8-1 .5-2 1-2.9 1.6-.5.3-1 .5-1.4.8-.5.3-1 .6-1.4.9-.5.3-.9.6-1.4.9-1.4.9-2.7 1.8-4.1 2.8-.4.3-.9.7-1.3 1a80.453 80.453 0 0 0-29.3 43.4z"/>
    </g>
</svg>
