<svg xmlns="http://www.w3.org/2000/svg" viewBox="0 0 1920 1920">
    <style>
        .st0{fill:#fff}.st1{fill:none;stroke:#000;stroke-width:50;stroke-linecap:round;stroke-linejoin:round;stroke-miterlimit:10}
    </style>
    <path class="st0" d="M418.7 1302.4c-17.9 0-32.5-14.6-32.5-32.5v-41.7c6.6 2.7 13.8 4.3 21.4 4.6 55.6 2 136.3 5.9 141.7 7.3l-7.8 37.6c-2 9.7 1.8 19 8.8 24.7H418.7zm303.8-615.6c-302.9 16.5-358.9 335.4-374.6 476.9-2 18.1 3.9 35.1 14.9 47.7 6.3 7.2 14.3 13 23.4 16.8 6.6 2.7 13.8 4.3 21.4 4.6 55.6 2 136.3 5.9 141.7 7.3l-7.8 37.6c-2 9.7 1.8 19 8.8 24.7 4.1 3.3 9.2 5.5 15 5.7l224 9.1c27.3 1.1 39.6-33.6 17.8-50l-45.5-34 142.6-1.7 105.7-1.2 15.6 72.1 4 18.3 265.1.1c-19.5-82.1-159.1-101.6-159.1-101.6l108.8-50.2c177.6 55 268.1 20.8 310.5-11.4 9.3 6.4 20.6 10.2 32.7 10.2 32.7 0 59.1-27.3 57.7-60.3-1.3-29.6-25.3-53.7-55-55-11.5-.5-22.2 2.3-31.4 7.6-68-101.1-219.7-185.5-219.7-185.5s22.3-140.8-86.5-168.2c-107.2-26.9-87.2 87.6-86.5 91.1-.8-3.8-37.1-132.8-443.6-110.7zm181.7 544.7v38.4c0 17.9 14.5 32.5 32.5 32.5h88.8l-15.6-72.1-105.7 1.2z" id="Layer_3"/>
    <g id="STROKES">
        <path class="st1" d="M362.8 1211.4S-16.1 1514 515 1516.7c531.1 2.8 818.8-102.4 926.7 24.9"/>
        <path class="st1" d="M1166.2 797.5c-1-3.8-37.2-132.8-443.7-110.7-302.9 16.5-358.9 335.4-374.6 476.9-2 18.1 3.9 35.1 14.9 47.7 6.3 7.2 14.3 13 23.4 16.8 6.6 2.7 13.8 4.3 21.4 4.6 55.6 2 136.3 5.9 141.7 7.3l-7.8 37.6c-2 9.7 1.8 19 8.8 24.7 4.1 3.3 9.2 5.5 15 5.7l224 9.1c27.3 1.1 39.6-33.6 17.8-50l-45.5-34 142.6-1.7 105.7-1.2 15.6 72.1 4 18.3 265.1.1c-19.5-82.1-159.1-101.6-159.1-101.6l108.8-50.2c177.6 55 268.1 20.8 310.5-11.4 9.3 6.4 20.6 10.2 32.7 10.2 32.7 0 59.1-27.3 57.7-60.3-1.3-29.6-25.3-53.7-55-55-11.5-.5-22.2 2.3-31.4 7.6-68-101.1-219.7-185.5-219.7-185.5s22.3-140.8-86.5-168.2c-107-27-87 87.6-86.4 91.1"/>
        <path class="st1" d="M904.2 1231.6v38.3c0 17.9 14.5 32.5 32.5 32.5h88.8"/>
        <path class="st1" d="M386.2 1228.2v41.7c0 17.9 14.5 32.5 32.5 32.5h131.7"/>
    </g>
</svg>
