<svg xmlns="http://www.w3.org/2000/svg" viewBox="0 0 1920 1920">
    <style>
        .st0{fill:#fff}.st1{fill:none;stroke:#000;stroke-width:50;stroke-linecap:round;stroke-linejoin:round;stroke-miterlimit:10}
    </style>
    <g id="STROKES">
        <path class="st1" d="M876 754.8S814.4 780 568.2 1005c-110.7 101.2-142 155.1-239.2 155.1-53.9 0-112.1-53.4-112.1-108.1 0-78.1 48.5-115.4 84.9-115.4 75 0 91 57.7 91 57.7"/>
        <path class="st1" d="M1044 754.8s61.6 25.2 307.8 250.2c110.7 101.2 142 155.1 239.2 155.1 53.9 0 112.1-53.4 112.1-108.1 0-78.1-48.5-115.4-84.9-115.4-75 0-91 57.7-91 57.7"/>
    </g>
</svg>
