<svg xmlns="http://www.w3.org/2000/svg" viewBox="0 0 1920 1920">
    <style>
        .st0{fill:#fff}.st1{fill:none;stroke:#000;stroke-width:50;stroke-linecap:round;stroke-linejoin:round;stroke-miterlimit:10}
    </style>
    <path class="st0" d="M960 1009.5c38.2 76.3 131 174.7 357.1 207 386.8 55.3 386-386.8 386-386.8s-73.7 146.6-216.3 146.6c-143.2 0-151.3-141-218.5-208.2-66.8-66.8-112.6-74.5-143.8-74.5-69.5 0-130.5 36.8-164.4 92.1-33.9-55.2-94.8-92.1-164.4-92.1-31.2 0-77 7.7-143.8 74.5-67.2 67.2-75.4 208.2-218.5 208.2-142.6 0-216.3-146.6-216.3-146.6s-.8 442.1 386 386.8c225.9-32.3 318.7-130.7 356.9-207z" id="Layer_5"/>
    <path class="st1" d="M960 1009.5c38.2 76.3 131 174.7 357.1 207 386.8 55.3 386-386.8 386-386.8s-73.7 146.6-216.3 146.6c-143.2 0-151.3-141-218.5-208.2-66.8-66.8-112.6-74.5-143.8-74.5-69.5 0-130.5 36.8-164.4 92.1-33.9-55.2-94.8-92.1-164.4-92.1-31.2 0-77 7.7-143.8 74.5-67.2 67.2-75.4 208.2-218.5 208.2-142.6 0-216.3-146.6-216.3-146.6s-.8 442.1 386 386.8c225.9-32.3 318.7-130.7 356.9-207z" id="STROKES"/>
</svg>
