<svg xmlns="http://www.w3.org/2000/svg" viewBox="0 0 1920 1920">
    <style>
        .st0{fill:#fff}.st1{fill:none;stroke:#231f20;stroke-width:50;stroke-linecap:round;stroke-linejoin:round;stroke-miterlimit:10}
    </style>
    <path class="st0" d="M1703 960c-2.4 2.1-364.7 314.6-743 314.6-379.6 0-743-314.6-743-314.6s467 43.3 743.7 43.3c275.7 0 739.6-43.1 742.3-43.3zm-698.5-263c-27.1 21.1-61.9 21.1-88.9 0-57.5-44.7-161.3-100.1-255.5-16.2C520.7 804.8 216.9 960 216.9 960s467 43.3 743.7 43.3c275.8 0 739.7-43.1 742.4-43.3-2.4-1.2-304.2-155.7-443.1-279.2-94.1-83.9-198-28.5-255.4 16.2z" id="Layer_4"/>
    <g id="Layer_5">
        <path class="st1" d="M1703 960c-2.4-1.2-304.2-155.7-443.1-279.2-94.2-83.8-198-28.5-255.5 16.2-27.1 21.1-61.9 21.1-88.9 0C858 652.3 754.2 596.9 660 680.8 520.7 804.8 216.9 960 216.9 960"/>
        <path class="st1" d="M216.9 960s467 43.3 743.7 43.3c275.8 0 739.7-43.1 742.4-43.3"/>
        <path class="st1" d="M216.9 960s363.4 314.6 743 314.6c378.4 0 740.6-312.5 743-314.6"/>
    </g>
</svg>
