<svg xmlns="http://www.w3.org/2000/svg" viewBox="0 0 1920 1920">
    <style>
        .st0{fill:#fff}.st1{fill:none;stroke:#231f20;stroke-width:50;stroke-linecap:round;stroke-linejoin:round;stroke-miterlimit:10}
    </style>
    <path class="st0" d="M960 960c491.8 0 696.5-135.3 735.8-165.3-57.3 45.8-442 345-700.2 330.5-23.7-1.3-47.5-1.3-71.2 0-258.2 14.6-642.9-284.7-700.2-330.5 39.3 30 244 165.3 735.8 165.3z" id="Layer_2"/>
    <path class="st0" d="M1703 788.8c-2.4 4.2-308.4 538.9-743 538.9S219.4 793 217 788.8l.1.1c.6.5 2.9 2.5 7.1 5.7 57.3 45.8 442 345 700.2 330.5 23.7-1.3 47.5-1.3 71.2 0 258.2 14.6 642.9-284.7 700.2-330.5 4.1-3.2 6.5-5.2 7.1-5.7.1 0 .1-.1.1-.1zm0 0c-1.5.6-156.7 62.8-246.5-27-90.2-90.2-295.8-138.6-496.6-9-200.8-129.6-406.3-81.2-496.6 9-89.8 89.8-245 27.6-246.5 27l.1.1c.6.5 3 2.5 7.1 5.7 39.4 30 244 165.3 735.8 165.3s696.5-135.3 735.8-165.3c4-3.2 6.4-5.2 7.1-5.7.3 0 .3-.1.3-.1z" id="Layer_3"/>
    <g id="Layer_5">
        <path class="st1" d="M217 788.8c2.4 4.2 308.4 538.9 743 538.9"/>
        <path class="st1" d="M1703 788.8c-1.5.6-156.7 62.8-246.5-27-90.2-90.2-295.8-138.6-496.6-9-200.8-129.6-406.3-81.2-496.6 9-89.8 89.8-245 27.6-246.5 27"/>
        <path class="st1" d="M960 1327.7c434.6 0 740.7-534.7 743-538.9"/>
        <path class="st1" d="M217.1 788.9c.6.5 2.9 2.5 7.1 5.7 39.4 30 244 165.3 735.8 165.3s696.5-135.3 735.8-165.3c4.1-3.2 6.5-5.2 7.1-5.7"/>
        <path class="st1" d="M217 788.8l.1.1"/>
        <path class="st1" d="M1702.9 788.9c-.6.5-3 2.5-7.1 5.7-57.3 45.8-442 345-700.2 330.5-23.7-1.3-47.5-1.3-71.2 0-258.2 14.6-642.9-284.7-700.2-330.5-4-3.2-6.4-5.2-7.1-5.7"/>
        <path class="st1" d="M1702.9 788.9c.1-.1.1-.1.2-.1"/>
        <path class="st1" d="M1703 788.8c.1 0 .1 0 0 0"/>
    </g>
</svg>
