<svg xmlns="http://www.w3.org/2000/svg" viewBox="0 0 1920 1920">
    <style>
        .st0{fill:#fff}.st1{fill:none;stroke:#231f20;stroke-width:50;stroke-linecap:round;stroke-linejoin:round;stroke-miterlimit:10}
    </style>
    <path class="st0" d="M1388.8 964.2v502.4c0 32.2-30.9 58.6-68.7 58.6h-172.4l.4 38.2c.3 77.1-62.1 139.7-139.1 139.7H667.3c-76.8 0-139.1-62.3-139.1-139.2V762.4H1157v143.2h163c37.9 0 68.8 26.3 68.8 58.6zm-94.4 434v-365.6c0-19.5-18.7-35.5-41.6-35.5h-73.5c-12.3.1-22.2 10.2-22.2 22.5v391.7c0 12.3 9.9 22.4 22.2 22.5h73.5c22.9-.1 41.6-16.1 41.6-35.6z" id="Layer_1"/>
    <g id="STROKES">
        <path class="st1" d="M1147.7 1525.1h172.4c37.8 0 68.7-26.4 68.7-58.6V964.2c0-32.2-30.9-58.6-68.7-58.6h-163V762.4H528.2v801.5c0 76.8 62.3 139.2 139.1 139.2h341.6c77 0 139.4-62.6 139.1-139.7l-.3-38.3z"/>
        <path class="st1" d="M1294.4 1398.2c0 19.5-18.7 35.5-41.6 35.5h-73.5c-12.3-.1-22.2-10.2-22.2-22.5v-391.7c0-12.3 9.9-22.4 22.2-22.5h73.5c22.9 0 41.6 16 41.6 35.5v365.7z"/>
        <path class="st1" d="M708.5 216.9c-65.2 65.2-65.2 170.8 0 236.1 62.4 62.4 62.4 163.4 0 225.8"/>
        <path class="st1" d="M836 453c62.4 62.4 62.4 163.4 0 225.8"/>
        <path class="st1" d="M836 453c-65.2-65.2-65.2-170.8 0-236.1"/>
        <path class="st1" d="M963.4 216.9c-65.2 65.2-65.2 170.8 0 236.1 62.4 62.4 62.4 163.4 0 225.8"/>
    </g>
</svg>
