<svg xmlns="http://www.w3.org/2000/svg" viewBox="0 0 1920 1920">
    <style>
        .st0{fill:#fff}.st1{fill:none;stroke:#231f20;stroke-width:50;stroke-linecap:round;stroke-linejoin:round;stroke-miterlimit:10}
    </style>
    <path class="st0" d="M714.3 582.5v764.3c0 55.2-45.1 100.3-100.3 100.3-55.2 0-100.4-45.2-100.4-100.3V582.5c0-55.2 45.2-100.4 100.4-100.4 27.6 0 52.7 11.3 70.9 29.5 18.1 18.2 29.4 43.3 29.4 70.9zm371.9-70.9c-18.2-18.2-43.3-29.5-70.9-29.5-55.2 0-100.3 45.2-100.3 100.4v764.3c0 55.2 45.2 100.3 100.3 100.3 55.2 0 100.3-45.2 100.3-100.3V582.5c.1-27.6-11.2-52.7-29.4-70.9zm439.1-69.1h-208.9v128.7h121.1c25.5 0 46.1 20.6 46.1 46.1v643.5c0 25.5-20.6 46.1-46.1 46.1h-121.1V1428h208.9c48.1 0 87.1-37.6 87.1-84V526.5c-.1-46.4-39-84-87.1-84zm-208.9 864.4V259.5c0-23.5-19.1-42.6-42.6-42.6H355.5c-23.5 0-42.6 19.1-42.6 42.6v1293.8c0 82.4 67.4 149.8 149.7 149.8h704c82.4 0 149.8-67.4 149.8-149.8v-246.4zm-301.1 140.2c-55.2 0-100.3-45.2-100.3-100.3V582.5c0-55.2 45.2-100.4 100.3-100.4 27.6 0 52.7 11.3 70.9 29.5 18.2 18.2 29.5 43.3 29.5 70.9v764.3c0 55.2-45.1 100.3-100.4 100.3zm-401.3 0c-55.2 0-100.4-45.2-100.4-100.3V582.5c0-55.2 45.2-100.4 100.4-100.4 27.6 0 52.7 11.3 70.9 29.5 18.2 18.2 29.5 43.3 29.5 70.9v764.3c-.1 55.2-45.2 100.3-100.4 100.3z" id="Layer_2"/>
    <g id="STROKES">
        <path class="st1" d="M1316.4 1428v125.3c0 82.4-67.4 149.8-149.8 149.8h-704c-82.4 0-149.7-67.4-149.7-149.8V259.5c0-23.5 19.1-42.6 42.6-42.6h918.3c23.5 0 42.6 19.1 42.6 42.6V1428z"/>
        <path class="st1" d="M1316.4 571.2h121.1c25.5 0 46.1 20.6 46.1 46.1v643.5c0 25.5-20.6 46.1-46.1 46.1h-121.1"/>
        <path class="st1" d="M1316.4 442.5h208.9c48.1 0 87.1 37.6 87.1 84V1344c0 46.4-39 84-87.1 84h-208.9"/>
        <path class="st1" d="M1015.3 1447.1c-55.2 0-100.3-45.2-100.3-100.3V582.5c0-55.2 45.2-100.4 100.3-100.4 27.6 0 52.7 11.3 70.9 29.5 18.2 18.2 29.5 43.3 29.5 70.9v764.3c0 55.2-45.1 100.3-100.4 100.3z"/>
        <path class="st1" d="M614 1447.1c-55.2 0-100.4-45.2-100.4-100.3V582.5c0-55.2 45.2-100.4 100.4-100.4 27.6 0 52.7 11.3 70.9 29.5 18.2 18.2 29.5 43.3 29.5 70.9v764.3c-.1 55.2-45.2 100.3-100.4 100.3z"/>
    </g>
</svg>
