<svg xmlns="http://www.w3.org/2000/svg" viewBox="0 0 1920 1920">
    <style>
        .st0{fill:#fff}.st1{fill:none;stroke:#231f20;stroke-width:50;stroke-linecap:round;stroke-linejoin:round;stroke-miterlimit:10}
    </style>
    <path class="st0" d="M1667.7 782.4c23.5 56.3 35.4 116.1 35.4 177.6s-11.9 121.3-35.4 177.6c-22.7 54.4-55.2 103.3-96.5 145.2-41.4 42-89.7 75-143.5 98.1-24.1 10.4-48.9 18.5-74.2 24.4s-51.1 9.6-77.3 11v-186c61.9-5.7 119.4-32.9 164-78.1 50.6-51.3 78.4-119.6 78.4-192.3s-27.9-141-78.4-192.3c-44.6-45.2-102.1-72.4-164-78.1v-186c52.4 2.8 103.2 14.7 151.5 35.4 53.8 23.1 102.1 56.1 143.5 98.1 41.3 42.1 73.8 91 96.5 145.4zm-391.5-278.8V314.5H216.9v1101.9c0 104.4 84.7 189.1 189.1 189.1h681.1c104.4 0 189.1-84.7 189.1-189.1V503.6z" id="Layer_3"/>
    <g id="STROKES">
        <path class="st1" d="M1276.2 1416.4c26.2-1.4 52-5.1 77.3-11s50.1-14.1 74.2-24.4c53.8-23.1 102.1-56.1 143.5-98.1 41.4-42 73.8-90.8 96.5-145.2 23.5-56.3 35.4-116.1 35.4-177.6s-11.9-121.3-35.4-177.6c-22.7-54.4-55.2-103.3-96.5-145.2-41.4-42-89.7-75-143.5-98.1-48.3-20.7-99.1-32.6-151.5-35.4V314.5H216.9v1101.9c0 104.4 84.7 189.1 189.1 189.1h681.1c104.4 0 189.1-84.7 189.1-189.1z"/>
        <path class="st1" d="M1276.2 689.6c61.9 5.7 119.4 32.9 164 78.1 50.6 51.3 78.4 119.6 78.4 192.3s-27.9 140.9-78.4 192.3c-44.6 45.2-102.1 72.4-164 78.1"/>
        <path class="st1" d="M1276.2 503.6v912.8"/>
    </g>
</svg>
