<svg xmlns="http://www.w3.org/2000/svg" viewBox="0 0 1920 1920">
    <style>
        .st0{fill:#fff}.st1{fill:none;stroke:#231f20;stroke-width:50;stroke-linecap:round;stroke-linejoin:round;stroke-miterlimit:10}
    </style>
    <path class="st0" d="M1266.2 398.3c56.5 85.2 9.2 215.9-78.2 215.9H732c-87.3 0-134.7-130.7-78.2-215.9 120.3-181.4 314.4-226.7 471.6-136 52.4 30.2 100.7 75.6 140.8 136z" id="Layer_1"/>
    <path class="st0" d="M1025.1 614.2l40.1 1032c0 31.2-26.6 56.8-59 56.8h-92.3c-32.5 0-59-25.6-59-56.8l40-1032h130.2z" id="Layer_2"/>
    <g id="STROKES">
        <g id="XMLID_1_">
            <path class="st1" d="M1025.1 614.2h163c87.3 0 134.7-130.7 78.2-215.9-40.1-60.5-88.4-105.8-140.8-136-157.2-90.7-351.4-45.3-471.6 136-56.5 85.2-9.2 215.9 78.2 215.9h293z"/>
            <path class="st1" d="M913.9 1703.1c-32.5 0-59-25.6-59-56.8l40-1032"/>
            <path class="st1" d="M1025.1 614.2l40.1 1032c0 31.2-26.6 56.8-59 56.8h-92.3"/>
        </g>
    </g>
</svg>
