<svg xmlns="http://www.w3.org/2000/svg" viewBox="0 0 1920 1920">
    <style>
        .st0{fill:#fff}.st1{fill:none;stroke:#231f20;stroke-width:50;stroke-linecap:round;stroke-linejoin:round;stroke-miterlimit:10}
    </style>
    <path class="st0" d="M1376.4 985H921.5c0-125.6 101.8-227.5 227.5-227.5 125.6 0 227.4 101.9 227.4 227.5zm-244-457.4c0 29 23.5 52.5 52.5 52.5s52.5-23.5 52.5-52.5-23.5-52.5-52.5-52.5-52.5 23.5-52.5 52.5zm-551 126.9c0 78.5 63.6 142.1 142.1 142.1S865.6 733 865.6 654.5 802 512.4 723.5 512.4 581.4 576 581.4 654.5z" id="Layer_4"/>
    <path class="st0" d="M1508 765v169.4c0 27.8-22.8 50.6-50.6 50.6h-80.9c0-125.6-101.8-227.5-227.5-227.5-125.6 0-227.5 101.8-227.5 227.5H462.6c-27.8 0-50.6-22.8-50.6-50.6V765c0-301.4 246.6-548 548-548 75.3 0 147.3 15.4 212.8 43.2C1369.3 343.7 1508 538.9 1508 765zm-270.6-237.4c0-29-23.5-52.5-52.5-52.5s-52.5 23.5-52.5 52.5 23.5 52.5 52.5 52.5 52.5-23.5 52.5-52.5zM865.6 654.5c0-78.5-63.6-142.1-142.1-142.1S581.4 576 581.4 654.5 645 796.6 723.5 796.6 865.6 733 865.6 654.5z" id="Layer_5"/>
    <path class="st0" d="M1070.7 985s267.6 718.1-110.7 718.1S849.3 985 849.3 985h221.4z" id="Layer_6"/>
    <g id="STROKES">
        <g id="XMLID_1_">
            <path class="st1" d="M849.3 985S581.7 1703.1 960 1703.1"/>
            <path class="st1" d="M1070.7 985s267.6 718.1-110.7 718.1"/>
            <path class="st1" d="M849.3 985H462.6c-27.8 0-50.6-22.8-50.6-50.6V765c0-301.4 246.6-548 548-548 75.3 0 147.3 15.4 212.8 43.2C1369.3 343.7 1508 538.9 1508 765v169.4c0 27.8-22.8 50.6-50.6 50.6H849.3z"/>
            <path class="st1" d="M865.6 654.5c0 78.5-63.6 142.1-142.1 142.1S581.4 733 581.4 654.5 645 512.4 723.5 512.4 865.6 576 865.6 654.5z"/>
            <circle class="st1" cx="1184.9" cy="527.6" r="52.5"/>
            <path class="st1" d="M1376.4 985c0-125.6-101.8-227.5-227.5-227.5-125.6 0-227.5 101.8-227.5 227.5"/>
        </g>
    </g>
</svg>
