<svg xmlns="http://www.w3.org/2000/svg" viewBox="0 0 1920 1920">
    <style>
        .st0{fill:#fff}.st1{fill:none;stroke:#231f20;stroke-width:50;stroke-linecap:round;stroke-linejoin:round;stroke-miterlimit:10}
    </style>
    <path class="st0" d="M960 216.9c629.9 0 715.5 356.3 715.5 525.1 0 495.9-445.7 409.1-478.8 278.9-28.4-112 12.7-196.7 189.4-153.9 176.8 42.9-41.1-212.5-314.3-212.5v131.8c0 114.7 14.9 228.8 43.9 339.7 55.1 210.7 113.4 577.1-147.5 577.1S757.4 1336.7 812.5 1126c29-110.9 43.9-225.1 43.9-339.7V654.5c-273.2 0-491.1 255.4-314.3 212.5C719 824.2 760 908.9 731.6 1020.9c-33.1 130.2-478.7 217-478.7-278.9 0-168.7 77.2-525.1 707.1-525.1z" id="Layer_7"/>
    <g id="STROKES">
        <path class="st1" d="M960 216.9c629.9 0 715.5 356.3 715.5 525.1 0 495.9-445.7 409.1-478.8 278.9-28.4-112 12.7-196.7 189.4-153.9 176.8 42.9-41.1-212.5-314.3-212.5v131.8c0 114.7 14.9 228.8 43.9 339.7 55.1 210.7 113.4 577.1-147.5 577.1S757.4 1336.7 812.5 1126c29-110.9 43.9-225.1 43.9-339.7V654.5c-273.2 0-491.1 255.4-314.3 212.5C719 824.2 760 908.9 731.6 1020.9c-33.1 130.2-478.7 217-478.7-278.9 0-168.7 77.2-525.1 707.1-525.1z" id="XMLID_1_"/>
    </g>
</svg>
