<svg xmlns="http://www.w3.org/2000/svg" viewBox="0 0 1920 1920">
    <style>
        .st0{fill:#fff}.st1{fill:none;stroke:#231f20;stroke-width:50;stroke-linecap:round;stroke-linejoin:round;stroke-miterlimit:10}
    </style>
    <path class="st0" d="M915.8 1452.9c-26.6-84.4-159.5-117.8-296.9-74.5-137.4 43.3-227.2 146.8-200.6 231.2 26.6 84.4 159.5 117.8 296.8 74.5 123.4-38.8 208.4-126.3 205.2-204.8-.3-9-1.8-17.8-4.5-26.4zm559.6-738.8C1347.6 473 943.3 486.5 920.4 217v376.9c107.9-4.9 345.1 70.4 462.1 210.3 132.7 158.6-86.9 354.5-90 357.2 4-2.6 309.9-207.8 182.9-447.3z" id="Layer_7"/>
    <g id="STROKES">
        <ellipse transform="rotate(-17.484 666.983 1531.197)" class="st1" cx="667.1" cy="1531.3" rx="260.8" ry="160.2"/>
        <path class="st1" d="M920.4 593.9c107.9-4.9 345.1 70.4 462.1 210.3 132.7 158.6-86.9 354.5-90 357.2"/>
        <path class="st1" d="M1292.5 1161.4c4-2.7 310-207.8 183-447.3-127.8-241.1-532.1-227.6-555-497.2v1262.5"/>
    </g>
</svg>
