<svg xmlns="http://www.w3.org/2000/svg" viewBox="0 0 1920 1920">
    <style>
        .st0{fill:#fff}.st1{fill:none;stroke:#231f20;stroke-width:50;stroke-linecap:round;stroke-linejoin:round;stroke-miterlimit:10}
    </style>
    <path class="st0" d="M1440.8 1016c57-80.4 95.4-187.2 34.6-301.8-127.8-241.1-532.1-227.6-555-497.2v730.8c95.7-4.3 293 54.4 418 165.2-24.6 29.4-45 47.6-45.9 48.5 1.1-.7 23.4-15.7 53.3-41.8 13.2 12.2 25.5 25 36.7 38.4 132.7 158.6-86.9 354.5-90 357.2 4-2.7 309.9-207.8 182.9-447.3-9.9-18.8-21.6-36.1-34.6-52zm-27.6-30.1C1254.8 831 961 807 923.4 593.8c109.2-3.4 343.2 71.8 459.1 210.4 30.7 36.8 42.6 75.5 42.6 113.4 0 23.3-4.5 46.3-11.9 68.3zm-497.4 467c-26.6-84.4-159.5-117.8-296.9-74.5-137.4 43.3-227.2 146.8-200.6 231.2 26.6 84.4 159.5 117.8 296.8 74.5 119-37.5 202.3-120.2 205.2-196.5.1-2.7.1-5.3 0-8-.2-9-1.7-18-4.5-26.7z" id="Layer_12"/>
    <g id="STROKES">
        <ellipse transform="rotate(-17.484 666.983 1531.197)" class="st1" cx="667.1" cy="1531.3" rx="260.8" ry="160.2"/>
        <path class="st1" d="M1338.4 1112.9c-24.6 29.4-45 47.6-45.9 48.5"/>
        <path class="st1" d="M923.4 593.8c109.2-3.4 343.2 71.8 459.1 210.4 49.7 59.4 50 124 30.7 181.7"/>
        <path class="st1" d="M920.4 1479.5V947.7"/>
        <path class="st1" d="M920.4 593.9v-377c22.9 269.6 427.2 256.1 555 497.2 60.8 114.6 22.4 221.4-34.6 301.8"/>
        <path class="st1" d="M1345.8 1119.6c-29.9 26.1-52.2 41.1-53.3 41.8"/>
        <path class="st1" d="M1292.5 1515.2c3.1-2.8 222.7-198.6 90-357.2-11.2-13.4-23.5-26.2-36.7-38.4-2.4-2.2-4.9-4.5-7.4-6.7-125-110.8-322.3-169.5-418-165.2V593.9c1 0 2-.1 3-.1C961 807 1254.8 831 1413.2 985.9c9.7 9.5 18.9 19.5 27.6 30.1 13 16 24.7 33.2 34.6 52 127 239.5-178.9 444.6-182.9 447.2z"/>
        <path class="st1" d="M1292.5 1515.2c0 .1-.1.1 0 0"/>
        <path class="st1" d="M923.4 593.8c-1.3-7.4-2.3-15.1-3-23v23.1"/>
        <path class="st1" d="M920.4 947.7v540.2"/>
    </g>
</svg>
