<svg xmlns="http://www.w3.org/2000/svg" viewBox="0 0 1920 1920">
    <style>
        .st0{fill:#fff}.st1{fill:none;stroke:#231f20;stroke-width:50;stroke-linecap:round;stroke-linejoin:round;stroke-miterlimit:10}
    </style>
    <path class="st0" d="M691.8 1489.4c-22.1-70.3-132.8-98.1-247.2-62.1-114.4 36-189.2 122.2-167.1 192.5 22.1 70.3 132.8 98.1 247.2 62.1 102.8-32.4 173.6-105.2 170.9-170.7-.3-7.4-1.5-14.6-3.8-21.8zm773.8-221.3c-.3-7.4-1.6-14.7-3.8-21.8-22.1-70.3-132.8-98.1-247.2-62.1-114.4 36-189.2 122.2-167.1 192.5 22.1 70.3 132.8 98.1 247.2 62.1 102.8-32.3 173.6-105.2 170.9-170.7zm0-1051.1l-770 243v158l770-243.1V217z" id="Layer_5"/>
    <g id="STROKES">
        <ellipse transform="rotate(-17.484 484.548 1554.576)" class="st1" cx="484.7" cy="1554.7" rx="217.2" ry="133.5"/>
        <path class="st1" d="M695.6 1511.5V460"/>
        <ellipse transform="rotate(-17.484 1254.47 1311.537)" class="st1" cx="1254.6" cy="1311.6" rx="217.2" ry="133.5"/>
        <path class="st1" d="M1465.6 1268.4V216.9"/>
        <path class="st1" d="M1465.6 375l-770 243.1V460l770-243.1z"/>
        <path class="st1" d="M695.6 739.6l770-243.1"/>
    </g>
</svg>
