<svg xmlns="http://www.w3.org/2000/svg" viewBox="0 0 1920 1920">
    <style>
        .st0{fill:#fff}.st1{fill:none;stroke:#231f20;stroke-width:50;stroke-linecap:round;stroke-linejoin:round;stroke-miterlimit:10}
    </style>
    <path class="st0" d="M1058.1 924.6c-11-2.6-41.4-4.6-76.1 2.1-63 12.2-140 53.4-140 172 0 150.8 132.9 165 180.8 165.2-60.8-2.4-109.2-52.4-109.2-113.7 0-55.3 39.5-101.4 91.8-111.7 7.1-1.4 14.5-2.1 22-2.1 51.4 0 92.8 34.8 109 81 28.8 81.9-9.1 166.5-52.3 189.9-4.6 2.5-11.9 4.9-21.1 7-77.2 17.3-294.3 9.8-298.7-179.9-3.2-138.8 96.3-235.4 191.2-335.2 50.3-53 99.4-106.9 131-168.6 87.9-171-5.9-337.5-13.1-349.9 3.7 6.7 5.7 21 5.5 40.4v3.7c0 .9 0 1.8-.1 2.7 0 .8 0 1.6-.1 2.4 0 .8-.1 1.5-.1 2.3 0 .7-.1 1.3-.1 2 0 .3 0 .7-.1 1 0 1-.1 2-.2 3-.1 2.1-.3 4.1-.4 6.3-.1 1.1-.2 2.2-.3 3.4 0 .4-.1.7-.1 1.1 0 .2 0 .4-.1.6v-.5c0-.4.1-.8.1-1.2 0-.2 0-.5.1-.7v-.7c0-.4.1-.7.1-1.1.1-1 .1-2.1.2-3.2 0-.5.1-1.1.1-1.7.2-2.9.3-6.2.4-9.8 0-.8.1-1.6.1-2.4 0-1 0-2.1.1-3.2v-2.9c.1-15.1-1-32.1-5.3-41.4 0 0-28.7-79.6-79.3-61.1-50.6 18.5-138.7 184.4-66.8 444.3 0 0-33.5-328.2 150-311.5-8.8 92.9-52.2 245.7-150 311.5-135.8 91.4-264.2 263-219.8 486.2 44.4 223 289.7 220.1 362.8 199.2.1 0 .1 0 .2-.1 72.8-21 142-65.4 150.6-219.8 8.9-154.3-131.9-197.5-162.8-204.9zm19.2-573.3v-.2c.1.2.1.2 0 .2zM893.4 1459.9c-44.1 0-79.9 35.8-79.9 79.9 0 44.1 35.8 79.9 79.9 79.9 44.1 0 79.9-35.8 79.9-79.9-.1-44.2-35.8-79.9-79.9-79.9z" id="Layer_10"/>
    <g id="STROKES">
        <path class="st1" d="M1038.9 1263.4c-3.8.4-7.6.6-11.5.6-1.5 0-3 0-4.5-.1 8.2.1 13.9-.3 16-.5z"/>
        <path class="st1" d="M955.5 799.3c-94.9 99.9-194.4 196.5-191.2 335.2 4.4 189.7 221.5 197.1 298.7 179.9l7.3 35c-73.1 20.9-318.4 23.8-362.8-199.2C663 927 791.5 755.4 927.3 664c134.9-90.7 166.2-347 146.1-383.3 7.3 12.4 101 178.9 13.1 349.9-31.6 61.8-80.7 115.7-131 168.7z"/>
        <path class="st1" d="M1221.1 1129.6c-8.6 154.3-77.8 198.8-150.6 219.8-.1 0-.1 0-.2.1l-7.3-35c9.2-2.1 16.5-4.5 21.1-7 43.2-23.5 81.1-108 52.3-189.9-16.2-46.2-57.5-81-109-81-7.5 0-14.9.7-22 2.1-52.3 10.2-91.8 56.3-91.8 111.7 0 61.3 48.5 111.3 109.2 113.7-47.9-.2-180.8-14.4-180.8-165.2 0-118.6 77-159.8 140-172 34.7-6.7 65.1-4.7 76.1-2.1 30.9 7.2 171.7 50.4 163 204.8z"/>
        <path class="st1" d="M1073.4 280.8s-28.7-79.6-79.3-61.1S855.4 404.1 927.3 664c0 0-33.5-328.2 150-311.5-.1.1 5.1-52.3-3.9-71.7z"/>
        <path class="st1" d="M1070.3 1349.4L1104 1511s46.6 192-114.6 192-175.9-105.1-175.9-145.1"/>
        <path class="st1" d="M1063 1314.4l-57.6-275.8-23.3-111.9-26.6-127.4"/>
        <circle class="st1" cx="893.4" cy="1539.7" r="79.9"/>
    </g>
</svg>
