<svg xmlns="http://www.w3.org/2000/svg" viewBox="0 0 1920 1920">
    <style>
        .st0{fill:#fff}.st1{fill:none;stroke:#231f20;stroke-width:50;stroke-linecap:round;stroke-linejoin:round;stroke-miterlimit:10}
    </style>
    <path class="st0" d="M1441.2 537.5c49.4 0 89.5-40.1 89.5-89.5s-40.1-89.5-89.5-89.5-89.5 40.1-89.5 89.5c.1 49.4 40.1 89.5 89.5 89.5zM839.1 216.9c-189.9 0-417.3 71.7-417.3 319.1 0 94.5 22.6 259.9 194.9 259.9 89.7 0 162.4-72.7 162.4-162.4s-72.7-162.4-162.4-162.4c-50.6 0-95.9 23.2-125.6 59.5-23.6-73.1 58.2-199.4 158.1-234.4 100-35 397.3-134.9 397.3 419.8 0 552.6-652.1 983.7-657.2 987.1 569.7-274.9 892.1-632.2 892.1-997.1S1029 216.9 839.1 216.9zM1441.2 781c-49.4 0-89.5 40.1-89.5 89.5s40.1 89.5 89.5 89.5 89.5-40.1 89.5-89.5-40-89.5-89.5-89.5z" id="Layer_13"/>
    <g id="STROKES">
        <path class="st1" d="M1281.4 706c0 364.8-322.4 722.2-892.1 997.1 5.1-3.4 657.2-434.5 657.2-987.1 0-554.8-297.4-454.8-397.3-419.8-100 35-181.7 161.3-158.1 234.4 29.8-36.3 75-59.5 125.7-59.5 89.7 0 162.4 72.7 162.4 162.4s-72.7 162.4-162.4 162.4c-172.3 0-194.9-165.4-194.9-259.9 0-247.4 227.4-319.1 417.3-319.1s442.2 124.2 442.2 489.1z"/>
        <path class="st1" d="M389.3 1703s0 .1 0 0"/>
        <circle class="st1" cx="1441.2" cy="448" r="89.5"/>
        <circle class="st1" cx="1441.2" cy="870.5" r="89.5"/>
    </g>
</svg>
