<svg xmlns="http://www.w3.org/2000/svg" viewBox="0 0 1920 1920">
    <style>
        .st0{fill:#fff}.st1{fill:none;stroke:#231f20;stroke-width:50;stroke-linecap:round;stroke-linejoin:round;stroke-miterlimit:10}
    </style>
    <path class="st0" d="M1010 680.5V1581l-57 122.1-43-122.1V680.5h100zM910 559.3v121.2h100V559.3H910zm0-121.1v121.2h100V438.2H910zm0-121.2v121.2h100V317H910zm293.9-100.1H716.1c-22.7 0-41.3 18.6-41.3 41.3v17.4c0 22.7 18.6 41.3 41.3 41.3h487.8c22.7 0 41.3-18.6 41.3-41.3v-17.4c0-22.7-18.6-41.3-41.3-41.3z" id="Layer_1"/>
    <g id="STROKES">
        <path class="st1" d="M910 317H716.1c-22.7 0-41.3-18.6-41.3-41.3v-17.4c0-22.7 18.6-41.3 41.3-41.3h487.8c22.7 0 41.3 18.6 41.3 41.3v17.4c0 22.7-18.6 41.3-41.3 41.3H910z"/>
        <path class="st1" d="M910 317v1264l43 122.1 57-122.1V317"/>
        <path class="st1" d="M910 438.2h100"/>
        <path class="st1" d="M910 559.3h100"/>
        <path class="st1" d="M910 680.5h100"/>
    </g>
</svg>
