<svg xmlns="http://www.w3.org/2000/svg" viewBox="0 0 1920 1920">
    <style>
        .st0{fill:#fff}.st1{fill:none;stroke:#231f20;stroke-width:50;stroke-linecap:round;stroke-linejoin:round;stroke-miterlimit:10}
    </style>
    <path class="st0" d="M1252.9 1168.5c44.7 0 81 36.3 81 81s-36.3 81-81 81-81-36.3-81-81 36.2-81 81-81zm162.9-96.9c-11.8-6.6-25.3-10.4-39.8-10.4-44.7 0-81 36.3-81 81s36.3 81 81 81 81-36.3 81-81c0-28.3-14.5-53.2-36.5-67.7-1.6-.9-3.2-1.8-4.7-2.9zm53.3-540.9c0 44.7 36.3 81 81 81s81-36.3 81-81-36.3-81-81-81-81 36.2-81 81zm0 162c0 37 24.9 68.3 58.8 77.9 2.6.5 5.2 1.1 7.8 1.8 4.6.8 9.4 1.3 14.3 1.3 44.7 0 81-36.3 81-81s-36.3-81-81-81-80.9 36.3-80.9 81zm66.7 79.7c-2.6-.5-5.2-1.1-7.8-1.8-4.6-.8-9.4-1.3-14.3-1.3-44.7 0-81 36.3-81 81s36.3 81 81 81 81-36.3 81-81c-.1-37-24.9-68.2-58.9-77.9zM1379.3 1004c0 28.3 14.5 53.2 36.5 67.7 1.6.9 3.2 1.9 4.8 2.9 11.8 6.6 25.3 10.4 39.8 10.4 44.7 0 81-36.3 81-81s-36.3-81-81-81-81.1 36.2-81.1 81zm-353.6 315.9c0 44.7 36.3 81 81 81s81-36.3 81-81-36.3-81-81-81-81 36.2-81 81zM879 1389.3c0 44.7 36.3 81 81 81s81-36.3 81-81-36.3-81-81-81-81 36.3-81 81zm-65.7-150.5c-44.7 0-81 36.3-81 81s36.3 81 81 81 81-36.3 81-81-36.3-81-81-81zM544 1061.2c-14.5 0-28 3.8-39.8 10.4-1.5 1-3.1 2-4.8 2.9-22 14.5-36.5 39.4-36.5 67.7 0 44.7 36.3 81 81 81s81-36.3 81-81-36.2-81-80.9-81zm123.1 107.3c-44.7 0-81 36.3-81 81s36.3 81 81 81 81-36.3 81-81-36.2-81-81-81zM378.6 1004c0 44.7 36.3 81 81 81 14.5 0 28-3.8 39.8-10.4 1.5-1 3.1-2 4.8-2.9 22-14.5 36.5-39.4 36.5-67.7 0-44.7-36.3-81-81-81s-81.1 36.2-81.1 81zM392 770.6c-2.6.7-5.2 1.3-7.8 1.8-34 9.7-58.8 40.9-58.8 77.9 0 44.7 36.3 81 81 81s81-36.3 81-81-36.3-81-81-81c-4.9.1-9.7.5-14.4 1.3zm-103.1-77.9c0 44.7 36.3 81 81 81 4.9 0 9.7-.4 14.3-1.3 2.5-.7 5.1-1.3 7.8-1.8 34-9.7 58.8-40.9 58.8-77.9 0-44.7-36.3-81-81-81s-80.9 36.3-80.9 81zm0-162c0 44.7 36.3 81 81 81s81-36.3 81-81-36.3-81-81-81-81 36.2-81 81z" id="Layer_2"/>
    <g id="STROKES">
        <circle class="st1" cx="369.9" cy="530.7" r="81"/>
        <path class="st1" d="M384.2 772.4c-4.7.8-9.5 1.3-14.3 1.3-44.7 0-81-36.3-81-81s36.3-81 81-81 81 36.3 81 81c0 37-24.9 68.3-58.8 77.9"/>
        <path class="st1" d="M392 770.7c-2.5.7-5.1 1.3-7.8 1.8"/>
        <path class="st1" d="M392 770.6c4.7-.8 9.5-1.3 14.3-1.3 44.7 0 81 36.3 81 81s-36.3 81-81 81-81-36.3-81-81c0-37 24.9-68.3 58.8-77.9 2.7-.7 5.3-1.3 7.9-1.8z"/>
        <path class="st1" d="M499.4 1074.6c-11.8 6.6-25.3 10.4-39.8 10.4-44.7 0-81-36.3-81-81s36.3-81 81-81 81 36.3 81 81c0 28.3-14.5 53.2-36.5 67.7-1.4 1-3 1.9-4.7 2.9z"/>
        <path class="st1" d="M504.2 1071.6c11.8-6.6 25.3-10.4 39.8-10.4 44.7 0 81 36.3 81 81s-36.3 81-81 81-81-36.3-81-81c0-28.3 14.5-53.2 36.5-67.7 1.5-1 3.1-1.9 4.7-2.9z"/>
        <ellipse class="st1" cx="667.1" cy="1249.5" rx="81" ry="81"/>
        <circle class="st1" cx="813.3" cy="1319.9" r="81"/>
        <circle class="st1" cx="960" cy="1389.3" r="81"/>
        <circle class="st1" cx="1550.1" cy="530.7" r="81"/>
        <path class="st1" d="M1535.8 772.4c4.6.8 9.4 1.3 14.3 1.3 44.7 0 81-36.3 81-81s-36.3-81-81-81-81 36.3-81 81c0 37 24.9 68.3 58.8 77.9"/>
        <path class="st1" d="M1528 770.7c2.6.7 5.2 1.3 7.8 1.8"/>
        <path class="st1" d="M1527.9 770.6c-4.6-.8-9.4-1.3-14.3-1.3-44.7 0-81 36.3-81 81s36.3 81 81 81 81-36.3 81-81c0-37-24.9-68.3-58.8-77.9-2.6-.7-5.2-1.3-7.9-1.8.1 0 .1 0 0 0z"/>
        <path class="st1" d="M1420.6 1074.6c11.8 6.6 25.3 10.4 39.8 10.4 44.7 0 81-36.3 81-81s-36.3-81-81-81-81 36.3-81 81c0 28.3 14.5 53.2 36.5 67.7 1.4 1 3 1.9 4.7 2.9z"/>
        <path class="st1" d="M1415.8 1071.6c-11.8-6.6-25.3-10.4-39.8-10.4-44.7 0-81 36.3-81 81s36.3 81 81 81 81-36.3 81-81c0-28.3-14.5-53.2-36.5-67.7-1.5-1-3.1-1.9-4.7-2.9z"/>
        <ellipse class="st1" cx="1252.9" cy="1249.5" rx="81" ry="81"/>
        <circle class="st1" cx="1106.7" cy="1319.9" r="81"/>
    </g>
</svg>
