<svg xmlns="http://www.w3.org/2000/svg" viewBox="0 0 1920 1920">
    <style>
        .st0{fill:#fff}.st1{fill:none;stroke:#231f20;stroke-width:50;stroke-linecap:round;stroke-linejoin:round;stroke-miterlimit:10}
    </style>
    <path class="st0" d="M960 1433.5s196.8 269.6 0 269.6 0-269.6 0-269.6zm-52.8-52.8c0 29.2 23.6 52.8 52.8 52.8s52.8-23.6 52.8-52.8c0-29.1-23.6-52.8-52.8-52.8s-52.8 23.7-52.8 52.8z" id="Layer_4"/>
    <g id="STROKES">
        <path class="st1" d="M1477.9 216.9v489.4c0 300.5-233.1 546.4-517.9 546.4-71.2 0-139.2-15.4-201.1-43.1-185.7-83.2-316.8-277.9-316.8-503.3V216.9"/>
        <path class="st1" d="M960 1195.6v132.3"/>
        <path class="st1" d="M960 1327.9c29.2 0 52.8 23.6 52.8 52.8 0 29.2-23.6 52.8-52.8 52.8s-52.8-23.6-52.8-52.8c0-29.1 23.6-52.8 52.8-52.8z"/>
        <path class="st1" d="M960 1433.5s-196.8 269.6 0 269.6 0-269.6 0-269.6z"/>
    </g>
</svg>
