<svg xmlns="http://www.w3.org/2000/svg" viewBox="0 0 1920 1920">
    <style>
        .st0{fill:#fff}.st1{fill:none;stroke:#231f20;stroke-width:50;stroke-linecap:round;stroke-linejoin:round;stroke-miterlimit:10}
    </style>
    <path class="st0" d="M1228.4 1503.5c-55.5 67.8-140.9 129.2-268.1 129.2-127.7 0-213.2-61.9-268.7-129.9-184.5 261.2-678.4-85.9-382.9-422.6 295.5-336.8 216.6-792.8 216.6-792.8l869.3.7s-78.8 456 216.7 792.8c295.5 336.7-198.4 683.8-382.9 422.6z" id="Layer_2"/>
    <g id="STROKES">
        <g id="XMLID_1_">
            <path class="st1" d="M691.6 1502.7c-67.8-83.1-90.7-175.4-90.7-175.4"/>
            <path class="st1" d="M1319.7 1327.3s-23.1 92.9-91.3 176.2c-55.5 67.8-140.9 129.2-268.1 129.2-127.7 0-213.2-61.9-268.7-129.9"/>
            <path class="st1" d="M525.3 287.4s78.8 456-216.6 792.8C13.2 1416.9 507.1 1764 691.6 1502.8"/>
            <path class="st1" d="M1228.4 1503.4s0 .1 0 0c184.6 261.2 678.4-85.9 382.9-422.6C1315.8 744 1394.6 288 1394.6 288"/>
        </g>
    </g>
</svg>
