<svg xmlns="http://www.w3.org/2000/svg" viewBox="0 0 1920 1920">
    <style>
        .st0{fill:#fff}.st1{fill:none;stroke:#231f20;stroke-width:50;stroke-linecap:round;stroke-linejoin:round;stroke-miterlimit:10}
    </style>
    <path class="st0" d="M217.2 428.7v1148.1H1703V428.7H217.2zM399 563.6c-13.5 0-24.5-11-24.5-24.5s11-24.5 24.5-24.5 24.5 11 24.5 24.5-11 24.5-24.5 24.5zm161.5 0c-13.5 0-24.5-11-24.5-24.5s11-24.5 24.5-24.5 24.5 11 24.5 24.5-11 24.5-24.5 24.5zm161.4 0c-13.5 0-24.5-11-24.5-24.5s11-24.5 24.5-24.5 24.5 11 24.5 24.5-10.9 24.5-24.5 24.5zm161.5 0c-13.5 0-24.5-11-24.5-24.5s11-24.5 24.5-24.5 24.5 11 24.5 24.5-11 24.5-24.5 24.5zm161.5 0c-13.5 0-24.5-11-24.5-24.5s11-24.5 24.5-24.5 24.5 11 24.5 24.5-11 24.5-24.5 24.5zm161.5 0c-13.5 0-24.5-11-24.5-24.5s11-24.5 24.5-24.5 24.5 11 24.5 24.5-11 24.5-24.5 24.5zm161.4 0c-13.5 0-24.5-11-24.5-24.5s11-24.5 24.5-24.5 24.5 11 24.5 24.5-10.9 24.5-24.5 24.5zm161.5 0c-13.5 0-24.5-11-24.5-24.5s11-24.5 24.5-24.5 24.5 11 24.5 24.5-11 24.5-24.5 24.5z" id="Layer_7"/>
    <g id="STROKES">
        <path transform="rotate(90 960.145 1002.79)" class="st1" d="M386.1 259.9h1148.1v1485.8H386.1z"/>
        <circle class="st1" cx="1529.3" cy="539.1" r="24.5"/>
        <path class="st1" d="M1529.3 514.6v-85.9"/>
        <circle class="st1" cx="1367.8" cy="539.1" r="24.5"/>
        <path class="st1" d="M1367.8 514.6v-85.9"/>
        <circle class="st1" cx="1206.4" cy="539.1" r="24.5"/>
        <path class="st1" d="M1206.4 514.6v-85.9"/>
        <circle class="st1" cx="1044.9" cy="539.1" r="24.5"/>
        <path class="st1" d="M1044.9 514.6v-85.9"/>
        <circle class="st1" cx="883.4" cy="539.1" r="24.5"/>
        <path class="st1" d="M883.4 514.6v-85.9"/>
        <circle class="st1" cx="721.9" cy="539.1" r="24.5"/>
        <path class="st1" d="M721.9 514.6v-85.9"/>
        <circle class="st1" cx="560.5" cy="539.1" r="24.5"/>
        <path class="st1" d="M560.5 514.6v-85.9"/>
        <circle class="st1" cx="399" cy="539.1" r="24.5"/>
        <path class="st1" d="M399 514.6v-85.9"/>
    </g>
</svg>
