<svg xmlns="http://www.w3.org/2000/svg" viewBox="0 0 1920 1920">
    <style>
        .st0{fill:#fff}.st1{fill:none;stroke:#231f20;stroke-width:50;stroke-linecap:round;stroke-linejoin:round;stroke-miterlimit:10}
    </style>
    <path class="st0" d="M417.2 217h119.9v1486.1H417.2z" id="Layer_2"/>
    <path class="st0" d="M1385.6 217H537.1v1486.1h848.5c64.7 0 117.2-52.5 117.2-117.2V334.1c0-64.7-52.5-117.1-117.2-117.1zm-117.5 537.2H725.7V541.6h542.4v212.6z" id="Layer_4"/>
    <path class="st0" d="M725.7 541.6h542.4v212.6H725.7z" id="Layer_5"/>
    <g id="STROKES">
        <path class="st1" d="M1502.8 334.1v1251.8c0 64.7-52.5 117.2-117.2 117.2H417.2V217h968.3c64.8 0 117.3 52.4 117.3 117.1z"/>
        <path class="st1" d="M417.2 217h119.9v1486.1H417.2z"/>
        <path class="st1" d="M725.7 541.6h542.4v212.6H725.7z"/>
    </g>
</svg>
