<svg xmlns="http://www.w3.org/2000/svg" viewBox="0 0 1920 1920">
    <style>
        .st0{fill:#fff}.st1{fill:none;stroke:#231f20;stroke-width:50;stroke-linecap:round;stroke-linejoin:round;stroke-miterlimit:10}
    </style>
    <path class="st0" d="M522.9 217h-49v1456.7h1064V217z" id="Layer_6"/>
    <g id="STROKES">
        <path transform="rotate(-180 1005.894 945.312)" class="st1" d="M473.9 216.9h1064v1456.7h-1064z"/>
        <path class="st1" d="M522.9 1628.1c0 39.4-73.4 44.7-93.2 74.9"/>
        <path class="st1" d="M522.9 399c0 45.5-98 45.5-98 91 0 22.8 24.5 34.1 49 45.5"/>
        <path class="st1" d="M522.9 581.1c0 45.5-98 45.5-98 91 0 22.8 24.5 34.1 49 45.5"/>
        <path class="st1" d="M522.9 763.2c0 45.5-98 45.5-98 91 0 22.8 24.5 34.1 49 45.5"/>
        <path class="st1" d="M522.9 945.3c0 45.5-98 45.5-98 91 0 22.8 24.5 34.1 49 45.5"/>
        <path class="st1" d="M522.9 1127.4c0 45.5-98 45.5-98 91 0 22.8 24.5 34.1 49 45.5"/>
        <path class="st1" d="M522.9 1309.5c0 45.5-98 45.5-98 91 0 22.8 24.5 34.1 49 45.5"/>
        <path class="st1" d="M522.9 1491.6c0 45.5-98 45.5-98 91 0 22.8 24.5 34.1 49 45.5"/>
        <path class="st1" d="M522.9 216.9c0 45.5-98 45.5-98 91 0 22.8 24.5 34.1 49 45.5"/>
        <path class="st1" d="M646.7 375.2h749.6"/>
        <path class="st1" d="M646.7 517.7h749.6"/>
        <path class="st1" d="M646.7 660.2h749.6"/>
        <path class="st1" d="M646.7 802.8h749.6"/>
        <path class="st1" d="M646.7 945.3h749.6"/>
        <path class="st1" d="M646.7 1087.8h749.6"/>
        <path class="st1" d="M646.7 1230.3h749.6"/>
        <path class="st1" d="M646.7 1372.9h749.6"/>
        <path class="st1" d="M646.7 1515.4h749.6"/>
    </g>
</svg>
