<svg xmlns="http://www.w3.org/2000/svg" viewBox="0 0 1920 1920">
    <style>
        .st0{fill:#fff}.st1{fill:none;stroke:#231f20;stroke-width:50;stroke-linecap:round;stroke-linejoin:round;stroke-miterlimit:10}
    </style>
    <path class="st0" d="M1703.2 1115.4c-105.5 0-191-85.5-191-191s85.5-191 191-191c-247-47.5-355.1 62.8-619.1 297.6C959.5 1141.9 866 1180.6 802 1190.5c-16.3 4.5-33.4 6.9-51.1 6.9-105.5 0-191-85.5-191-191 0-82.9 52.9-153.5 126.7-179.9-52.2-16.3-300.2-72.8-469.9 348.8v278.5H1703l.2-338.4" id="Layer_1"/>
    <path class="st1" d="M1703.2 1115.4c-105.5 0-191-85.5-191-191s85.5-191 191-191c-247-47.5-355.1 62.8-619.1 297.6C959.5 1141.9 866 1180.6 802 1190.5c-16.3 4.5-33.4 6.9-51.1 6.9-105.5 0-191-85.5-191-191 0-82.9 52.9-153.5 126.7-179.9-52.2-16.3-300.2-72.8-469.9 348.8" id="STROKES"/>
</svg>
