<svg xmlns="http://www.w3.org/2000/svg" viewBox="0 0 1920 1920">
    <style>
        .st0{fill:#fff}.st1{fill:none;stroke:#231f20;stroke-width:50;stroke-linecap:round;stroke-linejoin:round;stroke-miterlimit:10}
    </style>
    <path class="st0" d="M1610.2 799.4c-51.3 0-92.9-41.6-92.9-92.9 0 51.3-41.6 92.9-92.9 92.9-51.3 0-92.9-41.6-92.9-92.9 0 51.3-41.6 92.9-92.9 92.9-51.3 0-92.9-41.6-92.9-92.9 0 51.3-41.6 92.9-92.9 92.9-51.3 0-92.9-41.6-92.9-92.9 0 51.3-41.6 92.9-92.9 92.9-51.3 0-92.9-41.6-92.9-92.9 0 51.3-41.6 92.9-92.9 92.9-51.3 0-92.9-41.6-92.9-92.9 0 51.3-41.6 92.9-92.9 92.9-51.3 0-92.9-41.6-92.9-92.9 0 51.3-41.6 92.9-92.9 92.9-51.3 0-92.9-41.6-92.9-92.9v619h1486.1v-619c.3 51.3-41.3 92.9-92.6 92.9z" id="Layer_2"/>
    <g id="STROKES">
        <path class="st1" d="M1703.1 1325.5v-619c0 51.3-41.6 92.9-92.9 92.9s-92.9-41.6-92.9-92.9"/>
        <path class="st1" d="M402.7 706.5c0 51.3-41.6 92.9-92.9 92.9s-92.9-41.6-92.9-92.9v619"/>
        <path class="st1" d="M588.5 706.5c0 51.3-41.6 92.9-92.9 92.9s-92.9-41.6-92.9-92.9"/>
        <path class="st1" d="M774.2 706.5c0 51.3-41.6 92.9-92.9 92.9-51.3 0-92.9-41.6-92.9-92.9"/>
        <path class="st1" d="M960 706.5c0 51.3-41.6 92.9-92.9 92.9s-92.9-41.6-92.9-92.9"/>
        <path class="st1" d="M1145.8 706.5c0 51.3-41.6 92.9-92.9 92.9-51.3 0-92.9-41.6-92.9-92.9"/>
        <path class="st1" d="M1331.5 706.5c0 51.3-41.6 92.9-92.9 92.9s-92.9-41.6-92.9-92.9"/>
        <path class="st1" d="M1517.3 706.5c0 51.3-41.6 92.9-92.9 92.9s-92.9-41.6-92.9-92.9"/>
        <path class="st1" d="M402.7 915.5c0 51.3-41.6 92.9-92.9 92.9s-92.9-41.6-92.9-92.9"/>
        <path class="st1" d="M588.5 915.5c0 51.3-41.6 92.9-92.9 92.9s-92.9-41.6-92.9-92.9"/>
        <path class="st1" d="M774.2 915.5c0 51.3-41.6 92.9-92.9 92.9-51.3 0-92.9-41.6-92.9-92.9"/>
        <path class="st1" d="M960 915.5c0 51.3-41.6 92.9-92.9 92.9s-92.9-41.6-92.9-92.9"/>
        <path class="st1" d="M1145.8 915.5c0 51.3-41.6 92.9-92.9 92.9-51.3 0-92.9-41.6-92.9-92.9"/>
        <path class="st1" d="M1331.5 915.5c0 51.3-41.6 92.9-92.9 92.9s-92.9-41.6-92.9-92.9"/>
        <path class="st1" d="M1517.3 915.5c0 51.3-41.6 92.9-92.9 92.9s-92.9-41.6-92.9-92.9"/>
        <path class="st1" d="M1703.1 915.5c0 51.3-41.6 92.9-92.9 92.9s-92.9-41.6-92.9-92.9"/>
        <path class="st1" d="M402.7 1124.6c0 51.3-41.6 92.9-92.9 92.9s-92.9-41.6-92.9-92.9"/>
        <path class="st1" d="M588.5 1124.6c0 51.3-41.6 92.9-92.9 92.9s-92.9-41.6-92.9-92.9"/>
        <path class="st1" d="M774.2 1124.6c0 51.3-41.6 92.9-92.9 92.9-51.3 0-92.9-41.6-92.9-92.9"/>
        <path class="st1" d="M960 1124.6c0 51.3-41.6 92.9-92.9 92.9s-92.9-41.6-92.9-92.9"/>
        <path class="st1" d="M1145.8 1124.6c0 51.3-41.6 92.9-92.9 92.9-51.3 0-92.9-41.6-92.9-92.9"/>
        <path class="st1" d="M1331.5 1124.6c0 51.3-41.6 92.9-92.9 92.9s-92.9-41.6-92.9-92.9"/>
        <path class="st1" d="M1517.3 1124.6c0 51.3-41.6 92.9-92.9 92.9s-92.9-41.6-92.9-92.9"/>
        <path class="st1" d="M1703.1 1124.6c0 51.3-41.6 92.9-92.9 92.9s-92.9-41.6-92.9-92.9"/>
    </g>
</svg>
