<svg xmlns="http://www.w3.org/2000/svg" viewBox="0 0 1920 1920">
    <style>
        .st0{fill:#fff}.st1{fill:#d50000}.st2,.st3{fill:none;stroke:#231f20;stroke-width:50;stroke-linecap:round;stroke-linejoin:round;stroke-miterlimit:10}.st3{fill:#fff}
    </style>
    <path class="st0" d="M1020 440c0 22.6 18.3 41 41 41s40.9-18.3 40.9-41-18.3-41-40.9-41-41 18.4-41 41zm-161 41c22.6 0 41-18.3 41-41s-18.3-41-41-41-41 18.3-41 41 18.4 41 41 41zm49 1128c-105.9-101.1-116.1-244.8-107.5-343.3l.6-6.9c.2-1.5.3-3 .5-4.5.2-2.2.5-4.4.7-6.5 0-.3.1-.6.1-.8.5-4.7 1.1-9.2 1.7-13.6.6-4.5 1.3-8.9 1.9-13.1.5-3.1 1-6.2 1.5-9.2.5-3 1-5.8 1.5-8.6l.5-2.7c.2-.9.3-1.7.5-2.6v-.1c.1-.7.3-1.5.4-2.2l.3-1.7c.2-.8.3-1.6.5-2.3v-.2c.2-1.2.5-2.3.7-3.4 0-.1 0-.2.1-.2.2-1.1.5-2.1.7-3.2 0-.1 0-.2.1-.3.2-.8.3-1.5.5-2.2l.2-1.1c.1-.6.3-1.2.4-1.8l.3-1.3c.1-.5.2-1.1.4-1.6l.2-.9c.1-.4.2-.9.3-1.3l1-3.9c.1-.5.3-1.1.4-1.6l.6-2.2c.1-.4.2-.7.3-1.1l2.3-8.2c.1-.4.2-.7.3-.9l.1-.3c0-.1 0-.2.1-.2v-.1c-1.6 2.1-3.3 4.3-5 6.4-1.1 1.4-2.3 2.8-3.4 4.2l-1.8 2.1c-1.2 1.4-2.3 2.8-3.5 4.2-1.8 2.1-3.6 4.2-5.5 6.3-1.2 1.4-2.5 2.8-3.8 4.2-1.3 1.4-2.5 2.8-3.8 4.1-1.9 2.1-3.9 4.1-5.9 6.2l-2 2c-30.1 30.3-66.5 56.7-107.7 70-111 36-165 128-173 192s173 152 173 152-261 4-261-152c0-3.6.1-7.2.3-10.8.1-.9.1-1.9.2-2.8 0-.3 0-.6.1-.9.1-1.2.2-2.3.3-3.5.4-3.6.8-7.1 1.4-10.6.2-1.2.4-2.3.6-3.5.2-1.2.4-2.3.7-3.5.5-2.4 1-4.8 1.6-7.1.5-2 1-3.9 1.6-5.9 0-.1.1-.2.1-.4.3-.9.5-1.9.8-2.8.2-.7.4-1.3.6-2 .2-.8.5-1.5.7-2.2.4-1.1.7-2.2 1.1-3.3l1.5-4.2.9-2.4c.5-1.4 1.1-2.8 1.7-4.2.3-.8.6-1.6 1-2.3.5-1.1.9-2.2 1.4-3.2.5-1.1.9-2.2 1.4-3.2l1.2-2.7c.5-1 1-2 1.5-3.1.3-.7.7-1.4 1-2 1.4-2.9 2.9-5.7 4.5-8.5.5-.8.9-1.7 1.4-2.5.6-1 1.2-2.1 1.8-3.1.5-.8 1-1.7 1.5-2.5s1-1.7 1.5-2.5c.1-.2.2-.3.3-.5.4-.7.8-1.3 1.3-2 .8-1.3 1.6-2.5 2.4-3.8.6-1 1.3-2 1.9-2.9.5-.7 1-1.5 1.5-2.2.4-.5.7-1 1.1-1.6.6-.9 1.3-1.9 1.9-2.8.5-.8 1.1-1.5 1.6-2.3.5-.8 1.1-1.5 1.7-2.3 3.2-4.4 6.5-8.7 10-12.9l1.8-2.1c.5-.7 1.1-1.3 1.6-1.9.6-.7 1.2-1.4 1.8-2.2 5.7-6.8 11.7-13.3 17.8-19.5.7-.8 1.4-1.5 2.2-2.2l1.5-1.5 1.9-1.9c16.3-16.2 33.3-30.6 49.4-42.9l2.4-1.8c1.6-1.2 3.2-2.4 4.7-3.5.8-.6 1.6-1.1 2.3-1.7.8-.6 1.5-1.1 2.3-1.7.8-.6 1.5-1.1 2.3-1.7 7.6-5.5 14.9-10.5 21.6-14.9.7-.4 1.3-.9 2-1.3 7.9-5.2 15.1-9.6 21-13.1.9-.5 1.8-1.1 2.6-1.6 2-1.1 3.8-2.2 5.4-3.1.7-.4 1.5-.8 2.1-1.2 3.7-2.1 6.4-3.5 7.9-4.3l.6-.3c.3-.2.5-.2.6-.3-1.9.8-4 1.7-6.3 2.4-1.3.4-2.7.9-4.2 1.2-2.6.7-5.4 1.4-8.4 2-.8.2-1.7.3-2.5.5-.5.1-.9.2-1.4.3-.9.2-1.8.3-2.7.5-.9.2-1.8.3-2.8.5-2.4.4-4.9.7-7.5 1.1-1 .1-2 .2-3.1.4-.5.1-1.1.1-1.6.2-20.7 2.4-46.3 3.3-74.2 2.7h-.2c-3.3-.1-6.6-.2-10-.3h-.2c-12.5-.4-25.4-1.2-38.4-2.2-9.4-.8-18.9-1.7-28.3-2.8-1.3-.2-2.6-.3-4-.5l-7.2-.9c-1.2-.2-2.4-.3-3.6-.5-3.6-.5-7.2-1-10.7-1.5-2.5-.4-5.1-.8-7.6-1.2-2.2-.3-4.4-.7-6.6-1.1-2.4-.4-4.7-.8-7-1.2-28-5-54.5-11.5-77.4-19.8-100-36-88-200-88-244s-64-80-64-80c132-60 140 188 176 236.6s396-12.6 296-.6S281 937 293 709s216-218 216-218c-260 90-116 478 140 469s76.3-312.6 76.3-312.6C695.5 602.7 678 548.9 678 491c0-155.7 126.3-282 282-282s282 126.3 282 282c0 57.9-17.4 111.7-47.3 156.4 0 0-179.7 303.6 76.3 312.6s400-379 140-469c0 0 204-10 216 218s-240 388-340 376 260 49.3 296 .6S1627 789 1759 849c0 0-64 36-64 80s12 208-88 244c-22.8 8.2-49.4 14.8-77.4 19.8-2.3.4-4.7.8-7 1.2-2.2.4-4.4.7-6.6 1.1-2.5.4-5.1.8-7.6 1.2-3.6.5-7.1 1-10.7 1.5-1.2.2-2.4.3-3.6.5l-7.2.9c-1.3.2-2.6.3-4 .5-9.5 1.1-18.9 2-28.3 2.8-13 1-25.9 1.8-38.4 2.2h-.2c-3.4.1-6.7.2-10 .3h-.2c-27.9.6-53.5-.3-74.2-2.7-.5-.1-1.1-.1-1.6-.2-1-.1-2.1-.2-3.1-.4-2.6-.3-5.1-.7-7.5-1.1-.9-.1-1.9-.3-2.8-.5-.9-.2-1.8-.3-2.7-.5-.5-.1-.9-.2-1.4-.3-.9-.2-1.7-.3-2.6-.5-3-.6-5.8-1.3-8.4-2-1.5-.4-2.9-.8-4.2-1.2-2.3-.8-4.4-1.6-6.3-2.4.1 0 .3.1.6.3l.6.3c1.5.8 4.2 2.2 7.9 4.3l2.1 1.2c1.6.9 3.4 2 5.4 3.1.9.5 1.7 1 2.7 1.6 6 3.5 13.1 7.9 21 13.1.7.4 1.3.9 2 1.3 6.7 4.4 14 9.4 21.6 14.9.8.6 1.5 1.1 2.3 1.7.8.5 1.5 1.1 2.3 1.7.8.6 1.5 1.1 2.3 1.7 1.6 1.2 3.1 2.3 4.7 3.5l2.4 1.8c16.1 12.3 33.1 26.7 49.4 42.9.6.6 1.2 1.2 1.8 1.9l1.5 1.5 2.2 2.2c6.1 6.2 12 12.8 17.8 19.5.6.7 1.2 1.4 1.8 2.2.5.6 1.1 1.3 1.6 1.9.6.7 1.2 1.4 1.7 2.1 3.4 4.2 6.8 8.5 10 12.9.6.8 1.1 1.5 1.7 2.3.6.8 1.1 1.5 1.7 2.3.7.9 1.3 1.9 1.9 2.8.4.5.7 1 1.1 1.6.5.7 1 1.4 1.5 2.2.7 1 1.3 2 1.9 2.9.8 1.3 1.6 2.5 2.4 3.8.4.7.8 1.3 1.3 2 .1.2.2.3.3.5.5.8 1 1.6 1.5 2.5s1 1.7 1.5 2.5c.6 1 1.2 2 1.8 3.1.5.8 1 1.7 1.4 2.5 1.6 2.8 3.1 5.7 4.5 8.5.3.7.7 1.4 1 2 .5 1 1 2 1.5 3.1l1.2 2.7c.5 1.1 1 2.2 1.4 3.2.5 1.1.9 2.2 1.4 3.2.3.8.7 1.6 1 2.3.6 1.4 1.1 2.8 1.7 4.2l.9 2.4 1.5 4.2c.4 1.1.8 2.2 1.1 3.3.2.8.5 1.5.7 2.2.2.7.4 1.3.6 2 .3.9.6 1.9.8 2.8 0 .1.1.2.1.4.5 1.9 1.1 3.9 1.5 5.9.6 2.4 1.1 4.7 1.6 7.1.2 1.2.5 2.3.7 3.5.2 1.2.4 2.3.6 3.5.6 3.5 1.1 7.1 1.4 10.6.1 1.2.2 2.3.3 3.5 0 .3.1.6.1.9.1.9.2 1.9.2 2.8.2 3.6.3 7.2.3 10.8 0 156-261 152-261 152s181-88 173-152-62-156-173-192c-41.2-13.4-77.6-39.7-107.7-70l-2-2c-11.9-12.2-22.8-25-32.6-37.8v.1c0 .1 0 .1.1.2 0 .1.1.2.1.3 0 .2.1.4.2.7.1.3.2.7.3 1.2.1.2.1.5.2.8.2.7.4 1.4.6 2.2 0 .2.1.4.2.6.1.2.1.4.2.6.1.5.3 1.1.4 1.7v.1c.1.2.1.4.2.6 0 .2.1.3.1.5.1.5.2.9.4 1.4.1.5.3 1.1.4 1.7l.6 2.4c.1.5.3 1.1.4 1.7.3 1.1.5 2.2.8 3.4 0 .1 0 .2.1.3.1.5.2 1.1.4 1.6.1.4.2.9.3 1.3.1.6.3 1.1.4 1.7.1.5.2.9.3 1.4.1.6.3 1.2.4 1.8l.3 1.5c.1.4.2.8.2 1.1.3 1.5.7 3.1 1 4.8.1.6.3 1.3.4 1.9.2.8.3 1.7.5 2.5.1.6.2 1.2.4 1.9.2.9.3 1.8.5 2.7.1.4.2.9.3 1.4.1.7.3 1.4.4 2.1.2.9.3 1.8.5 2.8.5 2.8 1 5.8 1.5 8.8.2 1 .3 2 .5 3s.3 2.1.5 3.1c.2 1.1.3 2.1.5 3.2.2 1.2.4 2.5.6 3.7.1.9.3 1.9.4 2.8.2 1.2.3 2.3.5 3.5.1 1.1.3 2.2.4 3.3.3 2.1.6 4.2.8 6.4.6 4.9 1.1 9.9 1.6 15.1.2 2.4.5 4.8.7 7.2.2 2.6.4 5.1.6 7.8.1 1.1.2 2.2.2 3.3.4 6 .8 12.1 1 18.3 0 1 .1 1.9.1 2.9 0 .6 0 1.2.1 1.8.1 1.8.1 3.7.1 5.5 2.2 94.7-17.4 215.3-109.7 303.4 0 0 48-328-52-404C860 1281 908 1609 908 1609z" id="Layer_1"/>
    <path class="st0" d="M1061 399c22.6 0 40.9 18.3 40.9 41s-18.3 41-40.9 41-41-18.3-41-41 18.4-41 41-41zm-243 41c0 22.6 18.3 41 41 41s41-18.3 41-41-18.3-41-41-41-41 18.4-41 41z" id="Layer_2"/>
    <g id="Layer_3">
        <path class="st1" d="M1522.6 1194c2.3-.4 4.7-.8 7-1.2-2.3.4-4.6.8-7 1.2z"/>
        <path class="st1" d="M1516 1195c2.2-.3 4.4-.7 6.6-1.1-2.2.4-4.4.8-6.6 1.1z"/>
        <path class="st1" d="M1502.4 1442.4c-.1-1.2-.2-2.3-.3-3.5.1 1.2.2 2.3.3 3.5z"/>
        <path class="st1" d="M1497.7 1197.7c3.6-.5 7.2-1 10.7-1.5-3.5.5-7.1 1-10.7 1.5z"/>
        <path class="st1" d="M1500.6 1428.3c-.2-1.2-.4-2.3-.6-3.5.2 1.2.4 2.4.6 3.5z"/>
        <path class="st1" d="M1500 1424.8c-.2-1.2-.4-2.3-.7-3.5.3 1.2.5 2.4.7 3.5z"/>
        <path class="st1" d="M1496.2 1408.4c.5 2 1.1 3.9 1.5 5.9-.5-2-1-4-1.5-5.9z"/>
        <path class="st1" d="M1494.6 1403.1c-.2-.8-.5-1.5-.7-2.2.2.7.5 1.5.7 2.2z"/>
        <path class="st1" d="M1493.9 1400.9c-.4-1.1-.7-2.2-1.1-3.3.4 1 .7 2.2 1.1 3.3z"/>
        <path class="st1" d="M1491.3 1393.3l-.9-2.4.9 2.4z"/>
        <path class="st1" d="M1487 1199.1l7.2-.9c-2.5.3-4.9.6-7.2.9z"/>
        <path class="st1" d="M1488.7 1386.7c-.3-.8-.6-1.6-1-2.3.4.7.7 1.5 1 2.3z"/>
        <path class="st1" d="M1487.8 1384.4c-.4-1.1-.9-2.2-1.4-3.2.4 1 .9 2.1 1.4 3.2z"/>
        <path class="st1" d="M1486.4 1381.1c-.5-1.1-.9-2.2-1.4-3.2.4 1.1.9 2.1 1.4 3.2z"/>
        <path class="st1" d="M1476.7 1361.6c-.5-.8-.9-1.7-1.4-2.5.5.8.9 1.7 1.4 2.5z"/>
        <path class="st1" d="M1475.3 1359.1c-.6-1-1.2-2.1-1.8-3.1.6 1 1.2 2 1.8 3.1z"/>
        <path class="st1" d="M1462.1 1338.1c-.6-.9-1.3-1.9-1.9-2.8.6.9 1.3 1.9 1.9 2.8z"/>
        <path class="st1" d="M1454.7 1202.3c9.4-.8 18.9-1.7 28.3-2.8-9.5 1.1-18.9 2-28.3 2.8z"/>
        <path class="st1" d="M1446.9 1317.8c-.6-.7-1.2-1.4-1.7-2.1.5.7 1.1 1.4 1.7 2.1z"/>
        <path class="st1" d="M1416.2 1204.5c12.5-.4 25.4-1.2 38.4-2.2-13 1-25.8 1.8-38.4 2.2z"/>
        <path class="st1" d="M1406 1204.8c3.3-.1 6.6-.2 10-.3-3.4.1-6.7.2-10 .3z"/>
        <path class="st1" d="M1331.6 1202.1c20.7 2.4 46.3 3.3 74.2 2.7-27.8.6-53.4-.3-74.2-2.7z"/>
        <path class="st1" d="M1330 1201.9c-1-.1-2.1-.2-3.1-.4 1 .2 2.1.3 3.1.4z"/>
        <path class="st1" d="M1319.4 1200.5c-.9-.1-1.9-.3-2.8-.5 1 .2 1.9.3 2.8.5z"/>
        <path class="st1" d="M1316.6 1200c-.9-.2-1.8-.3-2.7-.5.9.2 1.8.3 2.7.5z"/>
        <path class="st1" d="M1312.5 1199.2c-.9-.2-1.7-.3-2.6-.5.9.2 1.7.4 2.6.5z"/>
        <path class="st1" d="M1121.6 1300.1c.1 1.8.1 3.7.1 5.5 0-1.8-.1-3.7-.1-5.5z"/>
        <path class="st1" d="M1120.4 1277.1c-.1-1.1-.2-2.2-.2-3.3 0 1.1.1 2.2.2 3.3z"/>
        <path class="st1" d="M1110.5 1201.2c-.1-.5-.2-.9-.3-1.4.2.5.2.9.3 1.4z"/>
        <path class="st1" d="M1109.4 1195.3c.1.6.2 1.2.4 1.9-.2-.7-.3-1.3-.4-1.9z"/>
        <path class="st1" d="M1108.9 1192.7c-.1-.6-.3-1.3-.4-1.9.1.7.3 1.3.4 1.9z"/>
        <path class="st1" d="M1107.5 1186.1c-.1-.4-.2-.8-.2-1.1 0 .3.1.7.2 1.1z"/>
        <path class="st1" d="M1106.9 1183.4c-.1-.6-.3-1.2-.4-1.8.1.6.3 1.2.4 1.8z"/>
        <path class="st1" d="M1106.2 1180.2c-.1-.6-.3-1.2-.4-1.7.1.5.2 1.1.4 1.7z"/>
        <path class="st1" d="M1105.5 1177.1c-.1-.6-.3-1.1-.4-1.6.1.5.2 1.1.4 1.6z"/>
        <path class="st1" d="M1105 1175.2c-.3-1.2-.6-2.3-.8-3.4.3 1.1.6 2.3.8 3.4z"/>
        <path class="st1" d="M1103.8 1170.2l-.6-2.4c.2.7.4 1.5.6 2.4z"/>
        <path class="st1" d="M1102.3 1164.2c-.1-.2-.1-.4-.2-.6.1.2.1.4.2.6z"/>
        <path class="st1" d="M1102.1 1163.4c-.2-.6-.3-1.1-.4-1.7.1.6.2 1.1.4 1.7z"/>
        <path class="st1" d="M1101.6 1161.8c-.1-.2-.1-.4-.2-.6.1.2.2.4.2.6z"/>
        <path class="st1" d="M1101.3 1160.6c-.2-.8-.4-1.6-.6-2.2.2.6.4 1.4.6 2.2z"/>
        <path class="st1" d="M1099.8 1155.4c0 .1.1.2.1.3 0-.1-.1-.2-.1-.3z"/>
        <path class="st1" d="M1099.8 1155.2c0 .1 0 .1.1.2-.1-.1-.1-.1-.1-.2z"/>
        <path class="st1" d="M820.2 1155.2c0 .1 0 .1-.1.2.1-.1.1-.1.1-.2z"/>
        <path class="st1" d="M819.8 1156.6l.3-.9-.3.9z"/>
        <path class="st1" d="M817.3 1165.9c.1-.4.2-.7.3-1.1-.1.4-.2.8-.3 1.1z"/>
        <path class="st1" d="M816.3 1169.7c.1-.5.3-1.1.4-1.6-.1.6-.2 1.1-.4 1.6z"/>
        <path class="st1" d="M815 1174.9c.1-.4.2-.9.3-1.3 0 .5-.1.9-.3 1.3z"/>
        <path class="st1" d="M814.8 1175.9c-.1.5-.2 1.1-.4 1.6.2-.6.3-1.1.4-1.6z"/>
        <path class="st1" d="M814.2 1178.8c-.1.6-.3 1.2-.4 1.8.1-.7.2-1.2.4-1.8z"/>
        <path class="st1" d="M813.5 1181.6c-.2.7-.3 1.4-.5 2.2.2-.7.3-1.5.5-2.2z"/>
        <path class="st1" d="M813 1184.1c-.2 1-.5 2.1-.7 3.2.2-1.2.4-2.2.7-3.2z"/>
        <path class="st1" d="M812.2 1187.4c-.2 1.1-.5 2.2-.7 3.4.3-1.1.5-2.3.7-3.4z"/>
        <path class="st1" d="M811.5 1191c-.1.8-.3 1.5-.5 2.3.2-.8.3-1.6.5-2.3z"/>
        <path class="st1" d="M810.7 1195c-.1.7-.3 1.4-.4 2.2.1-.8.2-1.5.4-2.2z"/>
        <path class="st1" d="M810.2 1197.2c-.2.8-.3 1.7-.5 2.6.2-.9.3-1.7.5-2.6z"/>
        <path class="st1" d="M618.5 1196.7c1.5-.4 2.8-.8 4.2-1.2l-4.2 1.2z"/>
        <path class="st1" d="M607.5 1199.2c.9-.2 1.7-.3 2.5-.5-.8.2-1.7.4-2.5.5z"/>
        <path class="st1" d="M603.4 1200c.9-.2 1.8-.3 2.7-.5-.9.2-1.8.3-2.7.5z"/>
        <path class="st1" d="M600.6 1200.5c.9-.1 1.9-.3 2.8-.5-.9.2-1.9.3-2.8.5z"/>
        <path class="st1" d="M590 1201.9c1-.1 2.1-.2 3.1-.4-1 .2-2.1.3-3.1.4z"/>
        <path class="st1" d="M588.4 1202.1c-20.7 2.4-46.3 3.3-74.2 2.7 27.8.6 53.4-.3 74.2-2.7z"/>
        <path class="st1" d="M504 1204.5c3.4.1 6.7.2 10 .3-3.3-.1-6.6-.2-10-.3z"/>
        <path class="st1" d="M498.2 1289.8l-2.2 2.2c.8-.7 1.5-1.4 2.2-2.2z"/>
        <path class="st1" d="M474.9 1315.7l-1.8 2.1 1.8-2.1z"/>
        <path class="st1" d="M503.8 1204.5c-12.5-.4-25.4-1.2-38.4-2.2 13 1 25.8 1.8 38.4 2.2z"/>
        <path class="st1" d="M459.8 1335.3c-.7.9-1.3 1.9-1.9 2.8.6-.9 1.3-1.9 1.9-2.8z"/>
        <path class="st1" d="M446.5 1356c-.6 1-1.2 2-1.8 3.1.6-1.1 1.2-2.1 1.8-3.1z"/>
        <path class="st1" d="M444.7 1359.1c-.5.8-1 1.7-1.4 2.5.5-.8.9-1.7 1.4-2.5z"/>
        <path class="st1" d="M437 1199.5c9.5 1.1 18.9 2 28.3 2.8-9.4-.8-18.8-1.7-28.3-2.8z"/>
        <path class="st1" d="M435.1 1377.9c-.5 1.1-1 2.2-1.4 3.2.4-1.1.9-2.1 1.4-3.2z"/>
        <path class="st1" d="M433.6 1381.1c-.5 1.1-.9 2.2-1.4 3.2.5-1 1-2.1 1.4-3.2z"/>
        <path class="st1" d="M432.2 1384.4c-.3.8-.6 1.6-1 2.3.4-.8.7-1.6 1-2.3z"/>
        <path class="st1" d="M429.6 1390.9l-.9 2.4.9-2.4z"/>
        <path class="st1" d="M425.9 1198.2l7.2.9c-2.5-.3-4.8-.6-7.2-.9z"/>
        <path class="st1" d="M427.2 1397.5c-.4 1.1-.8 2.2-1.1 3.3.4-1 .8-2.2 1.1-3.3z"/>
        <path class="st1" d="M426.1 1400.9c-.2.8-.5 1.5-.7 2.2.2-.7.5-1.5.7-2.2z"/>
        <path class="st1" d="M423.9 1408.4c-.6 1.9-1.1 3.9-1.6 5.9.5-2 1-4 1.6-5.9z"/>
        <path class="st1" d="M420.7 1421.3c-.2 1.2-.5 2.3-.7 3.5.2-1.1.4-2.3.7-3.5z"/>
        <path class="st1" d="M420 1424.8c-.2 1.2-.4 2.3-.6 3.5.2-1.1.4-2.3.6-3.5z"/>
        <path class="st1" d="M418 1438.9c-.1 1.2-.2 2.3-.3 3.5 0-1.2.1-2.3.3-3.5z"/>
        <path class="st1" d="M411.6 1196.2c3.6.5 7.1 1 10.7 1.5-3.6-.5-7.2-1-10.7-1.5z"/>
        <path class="st1" d="M397.4 1194c2.2.4 4.4.7 6.6 1.1-2.2-.4-4.4-.8-6.6-1.1z"/>
        <path class="st1" d="M390.4 1192.8c2.3.4 4.7.8 7 1.2-2.4-.4-4.7-.8-7-1.2z"/>
        <path class="st2" d="M1291 1193c1.9.8 4 1.7 6.3 2.4 1.3.4 2.7.9 4.2 1.2 2.6.7 5.4 1.4 8.4 2 .8.2 1.7.3 2.6.5.4.1.9.2 1.4.3.9.2 1.8.3 2.7.5.9.2 1.8.3 2.8.5 2.4.4 4.9.7 7.5 1.1 1 .1 2 .2 3.1.4.5.1 1.1.1 1.6.2 20.7 2.4 46.3 3.3 74.2 2.7h.2c3.3-.1 6.6-.2 10-.3h.2c12.5-.4 25.4-1.2 38.4-2.2 9.4-.8 18.9-1.7 28.3-2.8 1.3-.2 2.6-.3 4-.5l7.2-.9c1.2-.2 2.4-.3 3.6-.5 3.6-.5 7.2-1 10.7-1.5 2.5-.4 5.1-.8 7.6-1.2 2.2-.3 4.4-.7 6.6-1.1 2.3-.4 4.7-.8 7-1.2 28-5 54.5-11.5 77.4-19.8 100-36 88-200 88-244s64-80 64-80c-132-60-140 188-176 236.6s-396-12.6-296-.6 352-148 340-376-216-218-216-218c260 90 116 478-140 469s-76.3-312.6-76.3-312.6c29.9-44.8 47.3-98.6 47.3-156.4 0-155.7-126.3-282-282-282S678 335.3 678 491c0 57.9 17.5 111.7 47.3 156.4 0 0 179.7 303.6-76.3 312.6S249 581 509 491c0 0-204-10-216 218s240 388 340 376-260 49.3-296 .6S293 789 161 849c0 0 64 36 64 80s-12 208 88 244c22.8 8.2 49.4 14.8 77.4 19.8 2.3.4 4.7.8 7 1.2 2.2.4 4.4.7 6.6 1.1 2.5.4 5.1.8 7.6 1.2 3.6.5 7.1 1 10.7 1.5 1.2.2 2.4.3 3.6.5l7.2.9c1.3.2 2.6.3 4 .5 9.5 1.1 18.9 2 28.3 2.8 13 1 25.9 1.8 38.4 2.2h.2c3.4.1 6.7.2 10 .3h.2c27.9.6 53.5-.3 74.2-2.7.5-.1 1.1-.1 1.6-.2 1-.1 2.1-.2 3.1-.4 2.6-.3 5.1-.7 7.5-1.1.9-.1 1.9-.3 2.8-.5.9-.2 1.8-.3 2.7-.5.5-.1.9-.2 1.4-.3.9-.2 1.7-.3 2.5-.5 3-.6 5.8-1.3 8.4-2 1.5-.4 2.8-.8 4.2-1.2 2.3-.8 4.5-1.6 6.3-2.4"/>
        <path class="st2" d="M1099.7 1155.1c9.8 12.8 20.7 25.7 32.6 37.8l2 2c30.1 30.3 66.5 56.7 107.7 70 111 36 165 128 173 192s-173 152-173 152 261 4 261-152c0-3.6-.1-7.2-.3-10.8-.1-.9-.1-1.9-.2-2.8 0-.3 0-.6-.1-.9-.1-1.2-.2-2.3-.3-3.5-.4-3.6-.9-7.1-1.4-10.6-.2-1.2-.4-2.3-.6-3.5-.2-1.2-.4-2.3-.7-3.5-.5-2.4-1-4.8-1.6-7.1-.5-2-1-3.9-1.5-5.9 0-.1-.1-.2-.1-.4-.3-.9-.6-1.9-.8-2.8-.2-.7-.4-1.3-.6-2-.2-.8-.5-1.5-.7-2.2-.4-1.1-.7-2.2-1.1-3.3l-1.5-4.2-.9-2.4c-.5-1.4-1.1-2.8-1.7-4.2-.3-.8-.6-1.6-1-2.3-.4-1.1-.9-2.2-1.4-3.2-.5-1.1-.9-2.2-1.4-3.2l-1.2-2.7c-.5-1-1-2-1.5-3.1-.3-.7-.7-1.4-1-2-1.4-2.9-2.9-5.7-4.5-8.5-.5-.8-.9-1.7-1.4-2.5-.6-1-1.2-2.1-1.8-3.1-.5-.8-1-1.7-1.5-2.5s-1-1.7-1.5-2.5c-.1-.2-.2-.3-.3-.5-.4-.7-.8-1.3-1.3-2-.8-1.3-1.6-2.5-2.4-3.8-.6-1-1.3-2-1.9-2.9-.5-.7-1-1.5-1.5-2.2-.4-.5-.7-1-1.1-1.6-.6-.9-1.3-1.9-1.9-2.8-.5-.8-1.1-1.5-1.7-2.3-.6-.8-1.1-1.5-1.7-2.3-3.2-4.4-6.5-8.7-10-12.9-.6-.7-1.2-1.4-1.7-2.1-.5-.7-1.1-1.3-1.6-1.9-.6-.7-1.2-1.4-1.8-2.2-5.7-6.8-11.7-13.3-17.8-19.5-.7-.8-1.4-1.5-2.2-2.2l-1.5-1.5c-.6-.6-1.2-1.2-1.8-1.9-16.3-16.2-33.3-30.6-49.4-42.9l-2.4-1.8c-1.6-1.2-3.1-2.4-4.7-3.5-.8-.6-1.6-1.1-2.3-1.7-.8-.6-1.6-1.1-2.3-1.7-.8-.6-1.5-1.1-2.3-1.7-7.6-5.5-14.9-10.5-21.6-14.9-.7-.4-1.3-.9-2-1.3-7.9-5.2-15.1-9.6-21-13.1-.9-.5-1.8-1.1-2.7-1.6-2-1.1-3.8-2.2-5.4-3.1l-2.1-1.2c-3.7-2.1-6.4-3.5-7.9-4.3l-.6-.3c-.3-.2-.5-.2-.6-.3"/>
        <path class="st2" d="M820.3 1155.1v.1c0 .1 0 .1-.1.2l-.1.3c-.1.2-.2.5-.3.9l-2.3 8.2c-.1.3-.2.7-.3 1.1l-.6 2.2c-.1.5-.3 1-.4 1.6l-1 3.9c-.1.4-.2.8-.3 1.3l-.2.9c-.1.5-.2 1.1-.4 1.6l-.3 1.3c-.1.6-.3 1.2-.4 1.8l-.2 1.1c-.2.7-.3 1.4-.5 2.2 0 .1 0 .2-.1.3-.2 1-.5 2.1-.7 3.2 0 .1 0 .1-.1.2-.2 1.1-.5 2.2-.7 3.4v.2c-.1.8-.3 1.5-.5 2.3l-.3 1.7c-.1.7-.3 1.4-.4 2.2v.1c-.2.8-.3 1.7-.5 2.6l-.5 2.7c-.5 2.8-1 5.6-1.5 8.6s-1 6-1.5 9.2c-.7 4.2-1.3 8.6-1.9 13.1-.6 4.4-1.2 8.9-1.7 13.6 0 .3-.1.6-.1.8-.2 2.1-.5 4.3-.7 6.5-.2 1.5-.3 3-.5 4.5l-.6 6.9c-8.7 98.5 1.6 242.2 107.5 343.3 0 0-48-328 52-404 100 76 52 404 52 404 92.3-88.1 111.9-208.7 109.7-303.4 0-1.8-.1-3.7-.1-5.5 0-.6 0-1.2-.1-1.8 0-1-.1-1.9-.1-2.9-.2-6.2-.6-12.4-1-18.3-.1-1.1-.2-2.2-.2-3.3l-.6-7.8c-.2-2.4-.4-4.8-.7-7.2-.5-5.2-1.1-10.2-1.6-15.1-.3-2.2-.5-4.3-.8-6.4-.1-1.1-.3-2.2-.4-3.3-.2-1.2-.3-2.3-.5-3.5-.1-.9-.3-1.9-.4-2.8-.2-1.2-.4-2.5-.6-3.7-.2-1.1-.3-2.1-.5-3.2-.2-1-.3-2.1-.5-3.1s-.3-2-.5-3c-.5-3-1-5.9-1.5-8.8-.2-.9-.3-1.9-.5-2.8-.1-.7-.3-1.4-.4-2.1-.1-.5-.2-.9-.3-1.4-.2-.9-.3-1.8-.5-2.7-.1-.6-.2-1.3-.4-1.9-.2-.8-.3-1.7-.5-2.5-.1-.6-.3-1.3-.4-1.9-.3-1.7-.7-3.2-1-4.8-.1-.4-.2-.8-.2-1.1l-.3-1.5c-.1-.6-.3-1.2-.4-1.8-.1-.5-.2-1-.3-1.4-.1-.6-.3-1.2-.4-1.7-.1-.4-.2-.9-.3-1.3-.1-.6-.3-1.1-.4-1.6 0-.1 0-.2-.1-.3-.3-1.2-.6-2.3-.8-3.4-.1-.6-.3-1.2-.4-1.7l-.6-2.4c-.1-.6-.3-1.1-.4-1.7-.1-.5-.2-.9-.4-1.4-.1-.2-.1-.3-.1-.5-.1-.2-.1-.4-.2-.6v-.1c-.2-.6-.3-1.1-.4-1.7-.1-.2-.1-.4-.2-.6-.1-.2-.1-.4-.2-.6-.2-.8-.4-1.6-.6-2.2-.1-.3-.2-.6-.2-.8-.1-.5-.2-.8-.3-1.2-.1-.3-.1-.5-.2-.7 0-.1-.1-.2-.1-.3 0-.1 0-.2-.1-.2v-.1"/>
        <path class="st2" d="M629 1193c-.1.1-.3.2-.6.3l-.6.3c-1.5.8-4.2 2.2-7.9 4.3l-2.1 1.2c-1.6.9-3.5 2-5.4 3.1-.8.5-1.7 1-2.6 1.6-6 3.5-13.1 7.9-21 13.1-.7.4-1.3.9-2 1.3-6.7 4.4-14 9.4-21.6 14.9-.8.5-1.5 1.1-2.3 1.7-.8.5-1.5 1.1-2.3 1.7-.8.6-1.6 1.1-2.3 1.7-1.6 1.2-3.1 2.3-4.7 3.5l-2.4 1.8c-16.1 12.3-33.1 26.7-49.4 42.9l-1.9 1.9-1.5 1.5-2.2 2.2c-6.1 6.2-12 12.8-17.8 19.5-.6.7-1.2 1.4-1.8 2.2-.5.6-1.1 1.3-1.6 1.9l-1.8 2.1c-3.4 4.2-6.8 8.5-10 12.9-.6.8-1.1 1.5-1.7 2.3-.6.8-1.1 1.5-1.6 2.3-.7.9-1.3 1.9-1.9 2.8-.4.5-.7 1-1.1 1.6-.5.7-1 1.4-1.5 2.2-.7 1-1.3 2-1.9 2.9-.8 1.3-1.6 2.5-2.4 3.8-.4.7-.9 1.3-1.3 2-.1.2-.2.3-.3.5-.5.8-1 1.6-1.5 2.5-.5.8-1 1.7-1.5 2.5-.6 1-1.2 2-1.8 3.1-.5.8-1 1.7-1.4 2.5-1.6 2.8-3 5.7-4.5 8.5-.4.7-.7 1.4-1 2-.5 1-1 2-1.5 3.1l-1.2 2.7c-.5 1.1-1 2.2-1.4 3.2-.5 1.1-.9 2.2-1.4 3.2-.3.8-.6 1.6-1 2.3-.6 1.4-1.1 2.8-1.7 4.2l-.9 2.4-1.5 4.2c-.4 1.1-.8 2.2-1.1 3.3-.2.8-.5 1.5-.7 2.2-.2.7-.4 1.3-.6 2-.3.9-.6 1.9-.8 2.8 0 .1-.1.2-.1.4-.6 1.9-1.1 3.9-1.6 5.9-.6 2.4-1.1 4.7-1.6 7.1-.2 1.2-.5 2.3-.7 3.5-.2 1.2-.4 2.3-.6 3.5-.6 3.5-1.1 7.1-1.4 10.6-.1 1.2-.2 2.3-.3 3.5 0 .3-.1.6-.1.9-.1.9-.1 1.9-.2 2.8-.2 3.6-.3 7.2-.3 10.8 0 156 261 152 261 152s-181-88-173-152 62-156 173-192c41.2-13.4 77.6-39.7 107.7-70l2-2c2-2 4-4.1 5.9-6.2 1.3-1.4 2.5-2.8 3.8-4.1 1.3-1.4 2.5-2.8 3.8-4.2 1.8-2.1 3.7-4.2 5.5-6.3 1.2-1.4 2.4-2.8 3.5-4.2l1.8-2.1c1.2-1.4 2.3-2.8 3.4-4.2 1.7-2.1 3.4-4.3 5-6.4"/>
        <circle class="st2" cx="859" cy="440" r="41"/>
        <circle class="st2" cx="1061" cy="440" r="41"/>
    </g>
</svg>
