<svg xmlns="http://www.w3.org/2000/svg" viewBox="0 0 1920 1920">
    <style>
        .st0{fill:#fff}.st1{fill:none;stroke:#231f20;stroke-width:50;stroke-linecap:round;stroke-linejoin:round;stroke-miterlimit:10}
    </style>
    <g id="Layer_2">
        <path class="st0" d="M1048.1 478.5c145.4 71.3 420.2 247.5 420.2 560.2 0 410.7-474.1 413.7-506.4 413.4 9.6-.2 19.2-2.5 28-6.9 6-3 12.6-6.6 19.8-10.8 92.1-38.6 279.8-146.9 279.8-387.6 0-275.4-228-515.6-304.7-588.7-6.5-6.2-14.8-9.5-23.2-9.9 12.8.2 25.6 2.8 37.7 8 13.6 5.7 30.1 13.1 48.8 22.3z"/>
        <path class="st0" d="M960 1452.1c-.4-.1-5.3-1.4-13.5-4.1-2-1.3-3.8-2.9-5.5-4.8-19.5-22.3-46.6-69-46.6-156.5 0-113.5 45.7-249.2 61.2-292 1.7-4.8 8.5-4.8 10.2 0 15.5 42.9 61.2 178.5 61.2 292 0 87.5-27.1 134.2-46.6 156.5-1.4 1.5-2.8 2.9-4.4 4-9.8 3.2-15.5 4.7-16 4.9z"/>
        <path class="st0" d="M1103.7 1201.7c0 148.5-78.3 216.9-119.1 242.4-3.2 1.2-6.2 2.2-8.9 3.1 1.6-1.1 3.1-2.5 4.4-4 19.5-22.3 46.6-69 46.6-156.5 0-113.5-45.6-249.2-61.2-292-1.7-4.8-8.5-4.8-10.2 0-15.5 42.9-61.2 178.5-61.2 292 0 87.5 27.1 134.2 46.6 156.5 1.7 1.9 3.5 3.5 5.5 4.8-2.5-.8-5.3-1.8-8.4-2.9-40.3-24.8-120.6-93-120.6-243.4 0-155.8 86.2-324.1 124.8-391.7 8.1-14.2 28.5-14.2 36.6 0 38.9 67.6 125.1 235.9 125.1 391.7z"/>
        <path class="st0" d="M1183.8 1117.3c0 186.6-108.3 278.4-174 317-9.5 4-18 7.2-25.1 9.8 40.8-25.5 119.1-93.9 119.1-242.4 0-155.8-86.2-324.1-124.8-391.7-8.1-14.2-28.5-14.2-36.6 0-38.6 67.5-124.8 235.8-124.8 391.7 0 150.4 80.3 218.6 120.6 243.4-6.7-2.4-14.8-5.4-23.9-9.1-65.4-37.6-176.8-129.4-176.8-318.6 0-216.3 145.4-429.5 201.5-503.7 10.9-14.4 32.5-14.4 43.4 0 55.9 74.1 201.4 287.3 201.4 503.6z"/>
        <path class="st0" d="M984.9 458.1c76.8 73.1 304.7 313.3 304.7 588.7 0 240.7-187.7 348.9-279.8 387.6 65.7-38.6 174-130.4 174-317 0-216.3-145.4-429.5-201.5-503.7-10.9-14.4-32.5-14.4-43.4 0-56.1 74.2-201.5 287.4-201.5 503.7 0 189.3 111.4 281 176.8 318.6-90.6-37.2-283.7-145-283.7-389.2h.6c0-275.3 227.5-515.6 304.2-588.7 6.5-6.2 14.8-9.5 23.1-9.9h3.4c8.3.3 16.5 3.6 23.1 9.9z"/>
        <path class="st0" d="M959 1452c-21.7.3-507.3 2.3-507.3-413.4 0-312.7 275.1-488.9 420.6-560.2 18.7-9.2 35.2-16.6 48.8-22.4 11.9-5.1 24.6-7.7 37.2-8-8.4.4-16.6 3.7-23.1 9.9C858.5 531.2 631 771.4 631 1046.8h-.6c0 244.2 193.1 352 283.7 389.2 6.1 3.5 11.8 6.6 17 9.2 8.9 4.3 18.4 6.6 27.9 6.8z"/>
    </g>
    <path class="st0" d="M1048.1 478.5c-18.6-9.1-35.2-16.6-48.7-22.3-12-5.1-24.8-7.8-37.7-8h-.2c-1.1-.1-2.1-.1-3.2 0-12.7.2-25.3 2.9-37.2 8-13.6 5.8-30.1 13.2-48.8 22.4 0 0-14.2-115.2-98.4-146.6 0 0 110.3-14.6 147.7 39.6 0 0 44.9-86-48.6-153.4 0-.1 139.5-33.4 175.1 260.3z" id="Layer_4"/>
    <g id="STROKES">
        <path class="st1" d="M1026.8 1286.7c0-113.5-45.6-249.2-61.2-292-1.7-4.8-8.5-4.8-10.2 0-15.5 42.9-61.2 178.5-61.2 292"/>
        <path class="st1" d="M961.7 1452c5-.2 9.9-1.8 14.1-4.9 1.6-1.1 3.1-2.5 4.4-4 19.5-22.3 46.6-69 46.6-156.5"/>
        <path class="st1" d="M960.6 1452.1h1.1"/>
        <path class="st1" d="M959.4 1452h.6"/>
        <path class="st1" d="M894.3 1286.7c0 87.5 27.1 134.2 46.6 156.5 1.7 1.9 3.5 3.5 5.5 4.8 3.9 2.5 8.3 3.9 12.8 4.1"/>
        <path class="st1" d="M1103.7 1201.7c0-155.8-86.2-324.1-124.8-391.7-8.1-14.2-28.5-14.2-36.6 0-38.6 67.5-124.8 235.8-124.8 391.7"/>
        <path class="st1" d="M962 1452c6.5-.2 13-2.1 18.8-5.6 1.2-.8 2.5-1.5 3.9-2.4 40.8-25.5 119.1-93.9 119.1-242.4"/>
        <path class="st1" d="M817.4 1201.7c0 150.4 80.3 218.6 120.6 243.4.8.5 1.6 1 2.4 1.4 5.8 3.5 12.2 5.3 18.8 5.5h.1"/>
        <path class="st1" d="M1183.8 1117.3c0-216.3-145.4-429.5-201.5-503.7-10.9-14.4-32.5-14.4-43.4 0-56.1 74.2-201.5 287.4-201.5 503.7"/>
        <path class="st1" d="M962 1452c9.6-.2 19.2-2.5 28-6.9 6-3 12.6-6.6 19.8-10.8 65.7-38.6 174-130.4 174-317"/>
        <path class="st1" d="M960 1452.1h1.6"/>
        <path class="st1" d="M914.2 1435.9c6.1 3.5 11.8 6.6 17 9.2 8.8 4.4 18.3 6.7 27.9 6.9h.9"/>
        <path class="st1" d="M737.4 1117.3c0 189.3 111.4 281 176.8 318.6"/>
        <path class="st1" d="M960 1452.1c-.5-.1-5.3-1.4-13.6-4.1-2.5-.8-5.3-1.8-8.4-2.9-6.7-2.4-14.8-5.4-23.9-9.1-90.6-37.2-283.7-145-283.7-389.2"/>
        <path class="st1" d="M960 1452.1c.5-.1 6.2-1.7 15.8-4.9 2.7-.9 5.6-1.9 8.9-3.1 7.2-2.6 15.6-5.8 25.1-9.8 92.1-38.6 279.8-146.9 279.8-387.6"/>
        <path class="st1" d="M958.3 448.2c-8.4.4-16.6 3.7-23.1 9.9C858.5 531.2 631 771.4 631 1046.8"/>
        <path class="st1" d="M961.5 448.2c-1.1-.1-2.1-.1-3.2 0"/>
        <path class="st1" d="M1289.6 1046.8c0-275.4-228-515.6-304.7-588.7-6.5-6.2-14.8-9.5-23.2-9.9"/>
        <path class="st1" d="M959.8 1452h-.8c-21.7.3-507.3 2.3-507.3-413.4 0-312.7 275.1-488.9 420.6-560.2 18.7-9.2 35.2-16.6 48.8-22.4 11.9-5.1 24.6-7.7 37.2-8h3.4c12.8.2 25.6 2.8 37.7 8 13.5 5.8 30.1 13.2 48.7 22.3 145.4 71.3 420.2 247.5 420.2 560.2 0 410.7-474.1 413.7-506.4 413.4h-1.6"/>
        <path class="st1" d="M960 1467.3v235.8"/>
        <path class="st1" d="M909.9 1452.1s-26.2 250.5-104.1 225.6"/>
        <path class="st1" d="M1010.1 1452.1s26.2 250.5 104.1 225.6"/>
        <path class="st1" d="M872.3 478.5s-14.2-115.2-98.4-146.6c0 0 110.3-14.6 147.7 39.6 0 0 44.9-86-48.6-153.4 0 0 139.5-33.3 175 260.4"/>
    </g>
</svg>
