<svg xmlns="http://www.w3.org/2000/svg" viewBox="0 0 1920 1920">
    <style>
        .st0{fill:#fff}.st1{fill:none;stroke:#231f20;stroke-width:50;stroke-linecap:round;stroke-linejoin:round;stroke-miterlimit:10}
    </style>
    <path class="st0" d="M1121.7 271.3L1032 496l1.4 83.5H878.7l-1.4-76.3h-.1l-78.9-228.7 62.8-21.7 55.7 161.4V216.9h66.5v135.2l76.7-105.5z" id="Layer_5"/>
    <path class="st0" d="M1148.2 845c124.2 67 208.6 198.3 208.6 349.3 0 219.1-177.6 396.7-396.7 396.7s-396.7-177.6-396.7-396.7c0-66 16.1-128.2 44.6-182.9 28.5-54.7 69.4-102 118.9-138 1.6-1.1 3.1-2.2 4.7-3.4 144-103.9 147.2-190.9 147.2-190.9 4.9 0 0-99.7 0-99.7h154.8s-4.9 99.7 0 99.7c-.2 0 2.6 73.4 114.6 165.9z" id="Layer_6"/>
    <g id="STROKES">
        <path class="st1" d="M960 1591.1c219.1 0 396.7-177.6 396.7-396.7 0-151-84.4-282.3-208.6-349.3-112-92.5-114.8-165.8-114.8-165.8-4.9 0 0-99.7 0-99.7L1032 496l89.7-224.7-61.8-24.7L983.3 352V216.9h-66.5v197.2l-55.7-161.3-62.9 21.7 78.9 228.7h.1l1.4 76.2s4.9 99.7 0 99.7c0 0-3.2 87-147.2 190.9-1.6 1.1-3.1 2.2-4.7 3.4-49.5 36.1-90.4 83.3-118.9 138s-44.6 116.9-44.6 182.9c.1 219.1 177.7 396.8 396.8 396.8z"/>
        <path class="st1" d="M878.7 579.5h154.7"/>
        <path class="st1" d="M878.7 1703.1l81.3-112v112"/>
        <path class="st1" d="M1041.3 1703.1l-81.3-112"/>
    </g>
</svg>
