<svg xmlns="http://www.w3.org/2000/svg" viewBox="0 0 1920 1920">
    <style>
        .st0{fill:#fff}.st1{fill:none;stroke:#231f20;stroke-width:50;stroke-linecap:round;stroke-linejoin:round;stroke-miterlimit:10}
    </style>
    <g id="Layer_1">
        <path class="st0" d="M1187.3 591.5l-.1.1c-66.6-40.8-144.3-64.1-227.2-64.1-83.3 0-161.2 23.6-228 64.6v-.1c161.6-99.9 123.1-86.8 169.1-252.2l23.5 47.4 35.4-47.4 35.4 47.4 23.5-47.4c46 165.1 7.6 152.3 168.4 251.7z"/>
        <path class="st0" d="M1555.6 1019.2c0 222.5-229.5 405.9-525.4 431.2l-.4-2.6c213.8-34.7 377.3-226.2 377.3-457.3 0-169.8-88.3-318.2-219.9-398.8l.1-.1c34.6 21.4 78.4 48 134.2 82.6 142.3 79.3 234.1 204.3 234.1 345z"/>
        <path class="st0" d="M1029.8 1447.8c-22.7 3.7-46 5.6-69.8 5.6 102 0 184.7-207.3 184.7-463s-82.7-463-184.7-463c82.9 0 160.6 23.4 227.2 64.1 131.6 80.6 219.9 229 219.9 398.8 0 231.3-163.5 422.8-377.3 457.5z"/>
        <ellipse class="st0" cx="960" cy="990.5" rx="184.7" ry="463"/>
        <path class="st0" d="M775.3 990.5c0 255.7 82.7 463 184.7 463-23.7 0-47-1.9-69.8-5.6-213.8-34.7-377.3-226.2-377.3-457.3 0-169.5 87.9-317.7 219.2-398.4 66.8-41 144.7-64.6 228-64.6-102.1-.1-184.8 207.2-184.8 462.9z"/>
        <path class="st0" d="M890.2 1447.8l-.4 2.6c-295.8-25.3-525.4-208.7-525.4-431.2 0-140.7 91.8-265.7 234-345.1 55.5-34.4 99-60.9 133.5-82.2l.1.2C600.8 672.8 512.9 821 512.9 990.5c0 231.1 163.5 422.6 377.3 457.3z"/>
    </g>
    <g id="STROKES">
        <ellipse class="st1" cx="960" cy="990.5" rx="184.7" ry="463"/>
        <path class="st1" d="M732 592.1C600.8 672.8 512.9 821 512.9 990.5c0 231.1 163.5 422.7 377.3 457.3 22.7 3.7 46 5.6 69.8 5.6s47-1.9 69.8-5.6c213.8-34.7 377.3-226.2 377.3-457.3 0-169.8-88.3-318.2-219.9-398.8-66.6-40.8-144.3-64.1-227.2-64.1-83.3-.1-161.2 23.5-228 64.5z"/>
        <path class="st1" d="M960 1453.4V1567"/>
        <path class="st1" d="M890.5 1446.1l-.3 1.7-.4 2.6L871 1567"/>
        <path class="st1" d="M1049 1567l-18.8-116.6-.4-2.6-.3-1.7"/>
        <path class="st1" d="M1030.2 1450.4c295.9-25.3 525.4-208.7 525.4-431.2 0-140.7-91.8-265.7-234-345.1-55.9-34.7-99.7-61.2-134.2-82.6-160.8-99.4-122.4-86.6-168.4-251.7l-23.5 47.4-35.5-47.4-35.4 47.4-23.5-47.4c-46 165.4-7.5 152.3-169.1 252.2-34.5 21.3-78.1 47.8-133.5 82.2-142.3 79.3-234 204.4-234 345.1 0 222.5 229.5 405.9 525.4 431.2 23 2 46.5 3 70.2 3s47.1-1.1 70.1-3.1z"/>
    </g>
</svg>
