<svg xmlns="http://www.w3.org/2000/svg" viewBox="0 0 1920 1920">
    <style>
        .st0{fill:#fff}.st1{fill:none;stroke:#231f20;stroke-width:50;stroke-linecap:round;stroke-linejoin:round;stroke-miterlimit:10}
    </style>
    <path class="st0" d="M1574.6 216.9v98.6h-523v-98.6h523zm-1229.2 0v98.6h523v-98.6h-523z" id="Layer_6"/>
    <path class="st0" d="M1703.1 711.2v893.2H216.9V711.2h1486.2zm-128.5 763.2v-642H345.4v642.1h1229.2zm128.5-1158.8v395.6H216.9V315.6h1486.2zm-128.5 197.8c0-46.9-38.1-85-85-85s-85 38.1-85 85c0 47 38.1 85 85 85s85-38.1 85-85zm-353.1 0c0-46.9-38.1-85-85-85s-85 38.1-85 85c0 47 38.1 85 85 85 47 0 85-38.1 85-85zm-353 0c0-46.9-38.1-85-85-85s-85 38.1-85 85c0 47 38.1 85 85 85s85-38.1 85-85zm-353.1 0c0-46.9-38.1-85-85-85s-85 38.1-85 85c0 47 38.1 85 85 85s85-38.1 85-85z" id="Layer_7"/>
    <path class="st0" d="M1574.6 1604.4v98.6h-85v-98.6h85zm-1229.2 0v98.6h85v-98.6h-85z" id="Layer_8"/>
    <path class="st0" d="M1489.6 428.4c46.9 0 85 38.1 85 85 0 47-38.1 85-85 85s-85-38-85-85 38-85 85-85zm-438.1 85c0 47 38.1 85 85 85s85-38 85-85c0-46.9-38.1-85-85-85s-85 38-85 85zm-353 0c0 47 38.1 85 85 85s85-38 85-85c0-46.9-38.1-85-85-85s-85 38-85 85zm-353.1 0c0 47 38.1 85 85 85s85-38 85-85c0-46.9-38.1-85-85-85s-85 38-85 85z" id="Layer_9"/>
    <path class="st0" d="M345.4 832.4h1229.1v642.1H345.4z" id="Layer_10"/>
    <g id="STROKES">
        <path class="st1" d="M1703.1 711.2v893.2H216.9V315.6h1486.2z"/>
        <path class="st1" d="M515.4 513.4c0 47-38.1 85-85 85s-85-38-85-85c0-46.9 38.1-85 85-85s85 38 85 85z"/>
        <path class="st1" d="M868.5 513.4c0 47-38.1 85-85 85s-85-38-85-85c0-46.9 38.1-85 85-85s85 38 85 85z"/>
        <path class="st1" d="M1221.5 513.4c0 47-38.1 85-85 85s-85-38-85-85c0-46.9 38.1-85 85-85 47 0 85 38 85 85z"/>
        <path class="st1" d="M1574.6 513.4c0 47-38.1 85-85 85s-85-38-85-85c0-46.9 38.1-85 85-85s85 38 85 85z"/>
        <path class="st1" d="M216.9 711.2h1486.2"/>
        <path class="st1" d="M345.4 832.4h1229.1v642.1H345.4z"/>
        <path class="st1" d="M345.4 1604.4v98.7h85v-98.7"/>
        <path class="st1" d="M1489.6 1604.4v98.7h85v-98.7"/>
        <path class="st1" d="M345.4 315.6v-98.7h523.1v98.7"/>
        <path class="st1" d="M1051.5 315.6v-98.7h523.1v98.7"/>
    </g>
</svg>
