<svg xmlns="http://www.w3.org/2000/svg" viewBox="0 0 1920 1920">
    <style>
        .st0{fill:#fff}.st1{fill:none;stroke:#231f20;stroke-width:50;stroke-linecap:round;stroke-linejoin:round;stroke-miterlimit:10}
    </style>
    <path class="st0" d="M1619.3 929.8v609.1H300.7V929.8c0-29.6 17.1-55.4 41.9-68.1 10.4-5.3 22.1-8.3 34.5-8.3h1165.7c12.4 0 24.2 3 34.5 8.3 24.9 12.6 42 38.4 42 68.1zm-159.7 489.1V1119H460.4v299.9h999.2zm0-437.4c0-22.2-18.2-40.5-40.4-40.5H500.8c-11.1 0-21.2 4.5-28.6 11.9-7.3 7.3-11.9 17.5-11.9 28.6 0 22.2 18.2 40.4 40.4 40.4h918.4c11.1 0 21.2-4.6 28.6-11.9 7.4-7.3 11.9-17.4 11.9-28.5zm159.7-610.4v338.3c0 25.8-17.9 47.7-41.9 53.9-4.4 1.1-9 1.7-13.7 1.7H356.3c-4.7 0-9.3-.6-13.7-1.7-24-6.1-41.9-28-41.9-53.9V371.1c0-30.6 25-55.6 55.6-55.6h1207.4c30.6.1 55.6 25.1 55.6 55.6zm-159.7 169.4c0-61.9-50.2-112.1-112.1-112.1-61.9 0-112.1 50.2-112.1 112.1 0 61.9 50.2 112.1 112.1 112.1 61.9 0 112.1-50.2 112.1-112.1zm-342.5 112.2V428.4H460.4v224.3h656.7zm-816.4 886.2v87.8c0 42 34.4 76.4 76.4 76.4h1165.7c42 0 76.4-34.4 76.4-76.4v-87.8H300.7z" id="Layer_12"/>
    <path class="st0" d="M1577.4 763.3v98.4c-10.4-5.3-22.1-8.3-34.5-8.3H377.1c-12.4 0-24.1 3-34.5 8.3v-98.4c4.4 1.1 9 1.7 13.7 1.7h1207.4c4.7 0 9.3-.6 13.7-1.7zM460.4 1119v299.9h999.3V1119H460.4zm40.4-178c-11.1 0-21.2 4.5-28.6 11.9-7.3 7.3-11.9 17.5-11.9 28.6 0 22.2 18.2 40.4 40.4 40.4h918.4c11.1 0 21.2-4.6 28.6-11.9 7.3-7.3 11.9-17.4 11.9-28.6 0-22.2-18.2-40.5-40.4-40.5H500.8zm734.6-400.5c0 61.9 50.2 112.1 112.1 112.1 61.9 0 112.1-50.2 112.1-112.1 0-61.9-50.2-112.1-112.1-112.1-61.9 0-112.1 50.2-112.1 112.1zm-775 0v112.2h656.7V540.5H460.4zm0-112.1v112.1h656.7V428.4H460.4z" id="Layer_13"/>
    <g id="STROKES">
        <path class="st1" d="M1577.4 763.3c-4.4 1.1-9 1.7-13.7 1.7H356.3c-4.7 0-9.3-.6-13.7-1.7-24-6.1-41.9-28-41.9-53.9V371.1c0-30.6 25-55.6 55.6-55.6h1207.4c30.6 0 55.6 25 55.6 55.6v338.3c0 25.9-17.9 47.7-41.9 53.9z"/>
        <path class="st1" d="M1619.3 1538.9v87.8c0 42-34.4 76.4-76.4 76.4H377.1c-42 0-76.4-34.4-76.4-76.4V929.8c0-29.6 17.1-55.4 41.9-68.1 10.4-5.3 22.1-8.3 34.5-8.3h1165.7c12.4 0 24.2 3 34.5 8.3 24.8 12.7 41.9 38.5 41.9 68.1v609.1z"/>
        <path class="st1" d="M1347.5 652.6c-61.9 0-112.1-50.2-112.1-112.1 0-61.9 50.2-112.1 112.1-112.1 61.9 0 112.1 50.2 112.1 112.1 0 61.9-50.2 112.1-112.1 112.1z"/>
        <path class="st1" d="M300.7 1538.9h1318.6"/>
        <path class="st1" d="M460.4 1119h999.3v299.9H460.4z"/>
        <path class="st1" d="M342.6 763.3v98.3"/>
        <path class="st1" d="M1577.4 763.3v98.3"/>
        <path class="st1" d="M1448 504.2h-199.8"/>
        <path class="st1" d="M1448 576.8h-199.8"/>
        <path class="st1" d="M1117.1 540.5V428.4H460.4v224.3h656.7z"/>
        <path class="st1" d="M460.4 540.5h656.7"/>
        <path class="st1" d="M1419.2 1021.9H500.8c-22.2 0-40.4-18.2-40.4-40.4 0-11.1 4.6-21.2 11.9-28.6 7.3-7.3 17.4-11.9 28.6-11.9h918.4c22.2 0 40.4 18.2 40.4 40.5 0 11.1-4.6 21.2-11.9 28.6-7.4 7.2-17.5 11.8-28.6 11.8z"/>
    </g>
</svg>
