<svg xmlns="http://www.w3.org/2000/svg" viewBox="0 0 1920 1920">
    <style>
        .st0{fill:#fff}.st1{fill:none;stroke:#231f20;stroke-width:50;stroke-linecap:round;stroke-linejoin:round;stroke-miterlimit:10}
    </style>
    <path class="st0" d="M1158.4 740.2h-49.3l-35.8-232.7 71-290.6h-64.2L957.5 493.8 830.4 217h-64.2l76.1 311.5c.2.9.5 1.8.8 2.6l-32.2 209.2h-49.3s-2.8 54.2-6.8 137.2c-11.2 236.3-31.5 705.7-21.7 816.5h124.1s46.8-626.8 102.7-680.2c55.9 53.4 102.7 680.2 102.7 680.2h124.1c13.4-149.8-28.3-953.8-28.3-953.8z" id="Layer_2"/>
    <g id="STROKES">
        <path class="st1" d="M1186.8 1694h-124.1s-46.8-626.8-102.7-680.2c-55.9 53.4-102.7 680.2-102.7 680.2H733.2c-13.3-149.8 28.4-953.7 28.4-953.7h49.3l32.2-209.2c5.1 15.2 21.1 24.1 36.9 20.3 16.7-4.1 27-21 22.9-37.7l-4.9-19.9h114.5l-4.9 19.9c-4.1 16.7 6.2 33.6 22.9 37.7 16.7 4.1 33.6-6.2 37.7-22.9l5.1-20.9 35.8 232.7h49.3c0-.1 41.7 803.9 28.4 953.7z"/>
        <path class="st1" d="M810.9 740.2h298.2"/>
        <path class="st1" d="M758.8 811.4h401-101.4s12.4 66 105.8 66"/>
        <path class="st1" d="M1160.2 811.4h-401 101.4s-12.4 66-105.8 66"/>
        <path class="st1" d="M960 811.4v85.1"/>
        <path class="st1" d="M880 551.3c-15.8 3.9-31.8-5.1-36.9-20.3-.3-.9-.5-1.7-.8-2.6L766.2 217h64.2L898 493.8l4.9 19.9c4.1 16.7-6.2 33.5-22.9 37.6z"/>
        <path class="st1" d="M1144.3 217l-71 290.6-5.1 20.9c-4.1 16.7-21 27-37.7 22.9-16.7-4.1-27-21-22.9-37.7l4.9-19.9 67.7-276.8h64.1z"/>
        <path class="st1" d="M1080.2 217L957.5 493.8 830.4 217 898 493.8h114.5z"/>
    </g>
</svg>
