<svg xmlns="http://www.w3.org/2000/svg" viewBox="0 0 1920 1920">
    <style>
        .st0{fill:#fff}.st1{fill:none;stroke:#231f20;stroke-width:50;stroke-linecap:round;stroke-linejoin:round;stroke-miterlimit:10}
    </style>
    <path class="st0" d="M1216.7 934.2v-9c-.7-60.2-8.8-107.9-17.9-142.9-5.7-21.8-11.7-38.8-16.6-50.8-1.2-3-2.4-5.7-3.4-8-4.1-9.2-6.9-13.8-6.9-13.8v-65.3l-56.3-159.7h6.5V217h-84.8v213.2H882.9V217H798v267.8h6.5l-56.3 159.7v65.3s-2.7 4.6-6.9 13.8c-1.1 2.4-2.2 5-3.4 8-4.9 12-11 28.9-16.6 50.8-9.1 35.1-17.1 82.8-17.9 142.9v9s-8.7 578.7 15 689.8H889c0-.1 71-410 71-512 0 102 70.9 511.9 71 512h170.8c23.6-111.1 14.9-689.9 14.9-689.9zm-175.9-274.6c-51.8 21.1-109.8 21.1-161.6 0l-45.3-18.4 14-91.6h224.2l14 91.6-45.3 18.4z" id="Layer_8"/>
    <path class="st0" d="M1072.1 549.6H847.9l-14 91.6 45.3 18.4c51.8 21.1 109.8 21.1 161.6 0l45.3-18.4-14-91.6z" id="Layer_9"/>
    <path class="st0" d="M701.8 1703.1h195.8v-79H701.8v79zm320.6-79v79h195.8v-79h-195.8z" id="Layer_10"/>
    <g id="STROKES">
        <path class="st1" d="M701.8 1624.1h195.8v79H701.8z"/>
        <path class="st1" d="M703.4 925.3c37.3-21.4 81.3-58 106.2-118.4"/>
        <path class="st1" d="M1178.7 723.6c-3.3 1.2-6.8 2.3-10.5 3.4-47 14.1-122.7 23.2-208.2 23.2s-161.2-9.1-208.2-23.2c-3.7-1.1-7.2-2.2-10.5-3.4 4.1-9.2 6.9-13.8 6.9-13.8v-65.3l56.3-159.7h23.8c30.1 0 54.6-24.4 54.6-54.6h154.2c0 30.1 24.4 54.6 54.6 54.6h23.8l56.3 159.7v65.3s2.7 4.6 6.9 13.8z"/>
        <path class="st1" d="M1198.8 782.4c-18.5 9.9-49.4 18.4-88.3 24.5-42.4 6.7-94.3 10.6-150.4 10.6s-108.1-3.9-150.4-10.6c-38.9-6.2-69.8-14.6-88.3-24.5 5.7-21.8 11.7-38.8 16.6-50.8 1.2-3 2.4-5.7 3.4-8 3.3 1.2 6.8 2.3 10.5 3.4 47 14.1 122.7 23.2 208.2 23.2s161.2-9.1 208.2-23.2c3.7-1.1 7.2-2.2 10.5-3.4 1.1 2.4 2.2 5 3.4 8 4.8 12 10.9 28.9 16.6 50.8z"/>
        <path class="st1" d="M1201.7 1624.1H1031s-71-410-71-512c0 102-71 512-71 512H718.3c-23.6-111.1-15-689.8-15-689.8v-9c.7-60.2 8.8-107.9 17.9-142.9 18.5 9.9 49.4 18.4 88.3 24.5 42.4 6.7 94.3 10.6 150.4 10.6s108.1-3.9 150.4-10.6c38.9-6.2 69.8-14.6 88.3-24.5 9.1 35.1 17.1 82.8 17.9 142.9v9c.2-.1 8.9 578.7-14.8 689.8z"/>
        <path transform="rotate(-180 1120.313 1663.555)" class="st1" d="M1022.4 1624.1h195.8v79h-195.8z"/>
        <path class="st1" d="M1216.6 925.3c-37.3-21.4-81.3-58-106.2-118.4"/>
        <path class="st1" d="M960 817.5v147.1s66.3 0 66.3-49.4v-99.8"/>
        <path class="st1" d="M960 964.7v147.4"/>
        <path class="st1" d="M761 1049.4h97.2"/>
        <path class="st1" d="M761 1112.1h97.2"/>
        <path class="st1" d="M761 1174.8h97.2"/>
        <path class="st1" d="M1115 1266h83.8"/>
        <path class="st1" d="M882.9 217v213.2c0 30.1-24.4 54.6-54.6 54.6H798V217h84.9z"/>
        <path class="st1" d="M1122 217v267.8h-30.3c-30.1 0-54.6-24.4-54.6-54.6V217h84.9z"/>
        <path class="st1" d="M798 299.8h84.9"/>
        <path class="st1" d="M1037.1 299.8h84.9"/>
        <path class="st1" d="M1072.1 549.6H847.9l-14 91.6 45.3 18.4c51.8 21.1 109.8 21.1 161.6 0l45.3-18.4-14-91.6z"/>
    </g>
</svg>
