<svg xmlns="http://www.w3.org/2000/svg" viewBox="0 0 1920 1920">
    <style>
        .st0{fill:#fff}.st1{fill:none;stroke:#231f20;stroke-width:50;stroke-linecap:round;stroke-linejoin:round;stroke-miterlimit:10}
    </style>
    <path class="st0" d="M1773.2 1143.7c0 150.9-67.5 543.5-747.7 665.3h-65c-680.2-121.9-747.7-514.4-747.7-665.3.4 248.3 201.7 449.4 450.1 449.4 0 0 150.5-3.1 222.6-75.3l107.5 180 107.4-180c44.6 55.2 222.6 75.3 222.6 75.3 248.4 0 449.8-201.2 450.2-449.4zm-161-934.9c28 43.8-309.5 298.6-309.5 298.6-83.5-27.7-174.5-42.9-269.7-42.9h-80c-95.2 0-186.2 15.2-269.7 42.9 0 0-337.5-254.8-309.5-298.6 0 0-215.6 242.1-12.2 506.3-90.5 102.5-144.1 229.3-144.6 366.6 29.9-219.6 218.1-388.8 445.9-388.8 130.4 0 247.9 55.5 330.1 144.1 82.2-88.6 199.7-144.1 330.1-144.1 227.8 0 416.1 169.2 446 388.8-.5-137.3-54.2-264.1-144.6-366.6 203.3-264.1-12.3-506.3-12.3-506.3z" id="Layer_5"/>
    <path class="st0" d="M1773.2 1138.5v5.2c-.4 248.3-201.7 449.4-450.1 449.4 0 0-178.1-20.1-222.6-75.3l44.6-74.6-152-181-152 181 44.5 74.6c-72.1 72.1-222.6 75.3-222.6 75.3-248.3 0-449.7-201.1-450.1-449.4v-7.3c0-1.4 0-2.8.1-4.1v-1.8c0-1.5.1-3.1.1-4.6v-.2c.1-3.7.3-7.4.6-11.1v-.5c.1-1.9.3-3.8.4-5.7.1-1.5.2-3 .4-4.5v-.4c.1-.6.1-1.1.2-1.6.1-.7.1-1.3.2-2 1-10.3 2.1-15.9 2.1-15.9v-2.1c29.9-219.6 218.1-388.8 445.9-388.8 130.4 0 247.9 55.5 330.1 144.1 82.2-88.6 199.7-144.1 330.1-144.1 227.8 0 416.1 169.2 446 388.8v2.1s1 5.6 2.1 15.9c.1.7.1 1.3.2 2 0 .5.1 1.1.1 1.6v.4c.1 1.5.2 3 .4 4.5.1 1.9.3 3.8.4 5.7v.5c.2 3.7.4 7.4.5 11.1v.2c.1 1.5.1 3.1.1 4.6v1.8c0 1.4.1 2.8.1 4.1v2c.2 0 .2.1.2.1zm-138.5-10.3c0-152.3-123.5-275.8-275.8-275.8s-275.8 123.5-275.8 275.8 123.4 275.8 275.8 275.8c152.3 0 275.8-123.5 275.8-275.8zm-731.9 0c0-152.3-123.5-275.8-275.8-275.8s-275.8 123.5-275.8 275.8S474.8 1404 627.1 1404c152.3 0 275.7-123.5 275.7-275.8z" id="Layer_6"/>
    <path class="st0" d="M1358.9 1054.9c40.5 0 73.3 32.8 73.3 73.3s-32.8 73.3-73.3 73.3-73.3-32.8-73.3-73.3 32.8-73.3 73.3-73.3zm-805.2 73.3c0 40.5 32.8 73.3 73.3 73.3s73.3-32.8 73.3-73.3-32.8-73.3-73.3-73.3c-40.4 0-73.3 32.8-73.3 73.3z" id="Layer_7"/>
    <path class="st0" d="M1358.9 852.5c152.3 0 275.8 123.5 275.8 275.8S1511.2 1404 1358.9 1404s-275.8-123.5-275.8-275.8 123.5-275.7 275.8-275.7zm73.4 275.7c0-40.5-32.8-73.3-73.3-73.3s-73.3 32.8-73.3 73.3 32.8 73.3 73.3 73.3c40.4.1 73.3-32.8 73.3-73.3zM627.1 852.5c152.3 0 275.8 123.5 275.8 275.8S779.4 1404 627.1 1404s-275.8-123.5-275.8-275.8 123.5-275.7 275.8-275.7zm73.3 275.7c0-40.5-32.8-73.3-73.3-73.3s-73.3 32.8-73.3 73.3 32.8 73.3 73.3 73.3c40.5.1 73.3-32.8 73.3-73.3z" id="Layer_8"/>
    <path class="st0" d="M993 1262.2l152 181-44.6 74.6-107.4 180-107.5-180-44.5-74.6z" id="Layer_9"/>
    <g id="STROKES">
        <path class="st1" d="M902.8 1128.2c0 152.3-123.5 275.8-275.8 275.8s-275.8-123.5-275.8-275.8S474.7 852.4 627 852.4c152.4.1 275.8 123.5 275.8 275.8z"/>
        <path class="st1" d="M700.4 1128.2c0 40.5-32.8 73.3-73.3 73.3s-73.3-32.8-73.3-73.3 32.8-73.3 73.3-73.3 73.3 32.8 73.3 73.3z"/>
        <path class="st1" d="M1302.8 507.4c-83.5-27.7-174.5-42.9-269.7-42.9H953c-95.2 0-186.2 15.2-269.7 42.9"/>
        <path class="st1" d="M1771.1 1099.7c-1-10.3-2.1-15.9-2.1-15.9v-2.1c-.5-137.3-54.2-264.1-144.6-366.6 203.3-264.2-12.2-506.3-12.2-506.3 28 43.8-309.5 298.6-309.5 298.6"/>
        <path class="st1" d="M1771.5 1103.4c0-.6-.1-1.1-.1-1.6"/>
        <path class="st1" d="M1771.9 1108.3c-.1-1.6-.2-3.1-.4-4.5"/>
        <path class="st1" d="M1772.3 1114.1c-.1-2-.2-3.9-.4-5.7"/>
        <path class="st1" d="M1772.8 1125.6c-.2-3.9-.3-7.6-.5-11.1"/>
        <path class="st1" d="M1773 1130.4c0-1.6-.1-3.1-.1-4.6"/>
        <path class="st1" d="M1773.1 1136.3c0-1.4 0-2.8-.1-4.1"/>
        <path class="st1" d="M1773.2 1138.4v-1.5"/>
        <path class="st1" d="M1773.2 1142.5v-4"/>
        <path class="st1" d="M212.8 1143.7c0 150.9 67.4 543.5 747.7 665.3h65c680.2-121.9 747.7-514.4 747.7-665.3"/>
        <path class="st1" d="M212.9 1138.5v4"/>
        <path class="st1" d="M212.9 1136.8v1.5"/>
        <path class="st1" d="M213 1132.2c0 1.3-.1 2.7-.1 4.1"/>
        <path class="st1" d="M213.1 1125.8c-.1 1.5-.1 3-.1 4.6"/>
        <path class="st1" d="M213.7 1114.5c-.2 3.4-.4 7.1-.6 11.1"/>
        <path class="st1" d="M214.1 1108.4c-.2 1.8-.3 3.7-.4 5.7"/>
        <path class="st1" d="M214.5 1103.8c-.1 1.4-.2 2.9-.4 4.5"/>
        <path class="st1" d="M214.7 1101.7c-.1.5-.1 1.1-.2 1.6"/>
        <path class="st1" d="M683.2 507.4S345.7 252.6 373.7 208.8c0 0-215.6 242.1-12.2 506.3-90.4 102.5-144 229.3-144.5 366.6v2.1s-1 5.6-2.1 15.9"/>
        <path class="st1" d="M1083.2 1128.2c0 152.3 123.4 275.8 275.8 275.8 152.3 0 275.8-123.5 275.8-275.8S1511.3 852.4 1359 852.4c-152.4.1-275.8 123.5-275.8 275.8z"/>
        <path class="st1" d="M1285.6 1128.2c0 40.5 32.8 73.3 73.3 73.3s73.3-32.8 73.3-73.3-32.8-73.3-73.3-73.3-73.3 32.8-73.3 73.3z"/>
        <path class="st1" d="M885.5 1517.8l-44.5-74.6 152-181 152 181-44.6 74.6-107.4 180z"/>
        <path class="st1" d="M885.5 1517.8c-72.1 72.1-222.6 75.3-222.6 75.3-248.3 0-449.7-201.1-450.1-449.4v-7.3c0-1.4 0-2.8.1-4.1v-1.8c0-1.5.1-3.1.1-4.6v-.2c.1-3.7.3-7.4.6-11.1v-.5c.1-1.9.3-3.8.4-5.7.1-1.5.2-3 .4-4.5v-.4c.1-.6.1-1.1.2-1.6.1-.7.1-1.3.2-2 .6-6 1.3-12 2.1-18C246.8 862.3 435 693.1 662.8 693.1c130.4 0 247.9 55.5 330.1 144.1 82.2-88.6 199.7-144.1 330.1-144.1 227.8 0 416.1 169.2 446 388.8.8 6 1.5 12 2.1 18 .1.7.1 1.3.2 2 0 .6.1 1.1.1 1.6v.4c.1 1.5.2 3 .4 4.5.1 1.9.3 3.8.4 5.7v.5c.2 3.7.4 7.4.5 11.1v.2c.1 1.5.1 3.1.1 4.6v1.8c0 1.4.1 2.8.1 4.1v7.3c-.4 248.3-201.7 449.4-450.1 449.4 0 0-178.1-20.1-222.6-75.3"/>
    </g>
</svg>
