<svg xmlns="http://www.w3.org/2000/svg" viewBox="0 0 1920 1920">
    <style>
        .st0{fill:#fff}.st1{fill:none;stroke:#231f20;stroke-width:50;stroke-linecap:round;stroke-linejoin:round;stroke-miterlimit:10}
    </style>
    <path class="st0" d="M1016.5 495.8c50.2 0 90.8 40.7 90.8 90.8 0 50.2-40.7 90.8-90.8 90.8-50.2 0-90.8-40.7-90.8-90.8 0-50.2 40.6-90.8 90.8-90.8zm-443.1 90.8c0 50.2 40.7 90.8 90.8 90.8 50.2 0 90.8-40.7 90.8-90.8 0-50.2-40.7-90.8-90.8-90.8-50.2 0-90.8 40.6-90.8 90.8z" id="Layer_1"/>
    <path class="st0" d="M907.5 687.6l-66.1 117.7-66-117.7z" id="Layer_2"/>
    <path class="st0" d="M1425.1 1687c-6.1-24.2-68.6-90.7-492.7-216.1-2.6-.8-5.2-1.5-7.8-2.3-561.4-165.3-381-646.6-381-646.6-28-53.4-43.9-115-43.9-180.7 0-77.7 22.3-149.7 60.4-209.1-8.5-32.1-38.6-151.2-93-174.5 0 0 89.9-64.6 222.9 56.3 46.5-25.8 99.3-40.3 155.2-40.3 53.6 0 104.2 13.4 149.3 37.1 131.1-116.6 219.4-53.1 219.4-53.1-49.8 21.3-88.3 122.7-100.2 164.5 42.1 61.2 67.1 137 67.1 219.1 0 32.7-4 64.4-11.4 94.6 0 0 320.6 260.9 256 952.2 0-.1 0-.2-.1-.3 0-.2-.1-.3-.1-.5-.1-.1-.1-.2-.1-.3zM1107.3 586.6c0-50.2-40.7-90.8-90.8-90.8-50.2 0-90.8 40.7-90.8 90.8 0 50.2 40.7 90.8 90.8 90.8 50.1 0 90.8-40.7 90.8-90.8zM841.4 805.3l66.1-117.7H775.4l66 117.7zM755 586.6c0-50.2-40.7-90.8-90.8-90.8-50.2 0-90.8 40.7-90.8 90.8 0 50.2 40.7 90.8 90.8 90.8 50.2 0 90.8-40.7 90.8-90.8z" id="Layer_4"/>
    <g id="STROKES">
        <path class="st1" d="M932.4 1470.8l-78.4 88.6s-90.1 44.8-91.6 110.1"/>
        <path class="st1" d="M692.1 1641.3s30.1-126.7 161.9-81.8"/>
        <path class="st1" d="M1088 1519.4l-81.2 91.8s-76.1 31.7-77.5 97"/>
        <path class="st1" d="M845 1693s30.1-126.7 161.9-81.8"/>
        <path class="st1" d="M1425.2 1687.2c0 .2.1.4.1.5"/>
        <path class="st1" d="M854 919.9s-45.6 266.2 358.3 472.8c163.3 83.5 209.2 277.7 212.8 294.3"/>
        <path class="st1" d="M1425.3 1688.1c64.6-691.3-256-952.2-256-952.2 7.4-30.2 11.4-61.9 11.4-94.6 0-82.1-24.9-157.9-67.1-219.1 11.9-41.7 50.5-143.1 100.2-164.5 0 0-88.3-63.5-219.4 53.1-45.1-23.8-95.7-37.1-149.3-37.1-55.9 0-108.7 14.6-155.2 40.3-133-120.9-222.9-56.3-222.9-56.3 54.4 23.3 84.5 142.4 93 174.5-38.1 59.4-60.4 131.4-60.4 209.1 0 65.7 15.9 127.3 43.9 180.7 0 0-180.4 481.3 380.9 646.5 2.6.8 5.2 1.5 7.8 2.3 424.1 125.5 486.6 192 492.7 216.1 0 .1 0 .2.1.3 0 .2.1.4.1.5.2.2.2.3.2.4z"/>
        <path class="st1" d="M755 586.6c0 50.2-40.7 90.8-90.8 90.8-50.2 0-90.8-40.7-90.8-90.8 0-50.2 40.7-90.8 90.8-90.8 50.2 0 90.8 40.6 90.8 90.8z"/>
        <path class="st1" d="M1107.3 586.6c0 50.2-40.7 90.8-90.8 90.8-50.2 0-90.8-40.7-90.8-90.8 0-50.2 40.7-90.8 90.8-90.8 50.1 0 90.8 40.6 90.8 90.8z"/>
        <path class="st1" d="M775.4 687.6l66 117.7 66.1-117.7z"/>
    </g>
</svg>
