<svg xmlns="http://www.w3.org/2000/svg" viewBox="0 0 1920 1920">
    <style>
        .st0{fill:#fff}.st1{fill:none;stroke:#231f20;stroke-width:50;stroke-linecap:round;stroke-linejoin:round;stroke-miterlimit:10}
    </style>
    <path class="st0" d="M1316.3 993.5V1704h-713V821.9h713v171.6zM601.5 734.8v87h716v-87h-716zm780.2 144.3h-65.3v114.4h65.3V879.1zm-780.2 0h-64.1v114.5h65.9V879.1h-1.8z" id="Layer_4"/>
    <g id="STROKES">
        <g id="XMLID_1_">
            <path class="st1" d="M1316.3 993.5V1704h-713V821.8h713v57.3z"/>
            <path class="st1" d="M1317.6 879.1h64.1v114.4h-64.1"/>
            <path class="st1" d="M536.1 931.8h-65V699.1c0-138.3 93.8-483.4 482.4-483.4h12.2c388.6 0 481.4 345.1 481.4 483.4v232.7h-64"/>
            <path class="st1" d="M601.5 879.1h-64.2v114.4h64.2"/>
            <path class="st1" d="M1317.6 821.8v-87H601.5v87"/>
            <path class="st1" d="M608.8 1034.8h693"/>
            <path class="st1" d="M608.8 1506.9h693"/>
        </g>
    </g>
</svg>
