<svg xmlns="http://www.w3.org/2000/svg" viewBox="0 0 1920 1920">
    <style>
        .st0{fill:#fff}.st1{fill:none;stroke:#231f20;stroke-width:50;stroke-linecap:round;stroke-linejoin:round;stroke-miterlimit:10}
    </style>
    <path class="st0" d="M1631 474v100h-104V392h104v82zM365 218c-11.6 0-22.1 4.7-29.7 12.3-7.6 7.6-12.3 18.1-12.3 29.7 0 23.2 18.8 42 42 42h28v-1h1134v1h12c11.6 0 22.1-4.7 29.7-12.3 7.6-7.6 12.3-18.1 12.3-29.7 0-23.2-18.8-42-42-42H365zm604.3 1374.9h-19.5c-271.8 0-446.4-102.3-556.8-235.6v266.5c0 44.4 36 80.3 80.3 80.3h973.4c44.4 0 80.3-36 80.3-80.3v-267.6c-110.3 133.8-285.2 236.7-557.7 236.7zM1527 392v-90H393v1055.2c110.4 133.3 285 235.6 556.8 235.6h19.5c272.6 0 447.4-102.9 557.8-236.8V392zm-1136.9 0h-102v182H393V392h-2.9z" id="Layer_3"/>
    <g id="STROKES">
        <g id="XMLID_1_">
            <path class="st1" d="M1527 1356.1v267.6c0 44.4-36 80.3-80.3 80.3H473.3c-44.4 0-80.3-36-80.3-80.3V301h1134v1055.1z"/>
            <path class="st1" d="M1529 392h102v182h-102"/>
            <path class="st1" d="M1633 474c38.7 0 70 31.3 70 70v300c0 123-36.2 342.4-176 512.1-110.3 133.9-285.2 236.8-557.8 236.8h-19.5c-271.8 0-446.4-102.3-556.8-235.6C252.3 1187.5 216 967.3 216 844.1V544c0-38.7 31.3-70 70-70"/>
            <path class="st1" d="M390.1 392h-102v182h102"/>
            <path class="st1" d="M393 302h-28c-23.2 0-42-18.8-42-42 0-11.6 4.7-22.1 12.3-29.7 7.6-7.6 18.1-12.3 29.7-12.3h1174c23.2 0 42 18.8 42 42 0 11.6-4.7 22.1-12.3 29.7-7.6 7.6-18.1 12.3-29.7 12.3H393z"/>
        </g>
    </g>
</svg>
