<svg xmlns="http://www.w3.org/2000/svg" viewBox="0 0 1920 1920">
    <style>
        .st0{fill:#fff}.st1{fill:none;stroke:#231f20;stroke-width:50;stroke-linecap:round;stroke-linejoin:round;stroke-miterlimit:10}
    </style>
    <path class="st0" d="M1383.9 219.4l.3.1c-2.2 4.6-145.9 302.7-231.4 611.6-86.2 311.3-280.9 497.5-280.9 497.5l-72.4-36.4s0-.3.1-.8c2.2-15.9 39.7-274.5 232.1-521.3 196.3-251.7 348.7-543.9 352.2-550.7z" id="Layer_7"/>
    <path class="st0" d="M871.9 1328.6l-43.4 86.2-74.3-37.4 43.4-86.2 2 .2c-.1.5-.1.8-.1.8l72.4 36.4z" id="Layer_8"/>
    <path class="st0" d="M828.5 1414.8c47 58.9-8.3 156.9-104.1 227.2-96.8 71.1-188.7 57.7-188.7 57.7 68.6-43 110.1-139.5 129.1-223.9s89.4-98.3 89.4-98.3l74.3 37.3z" id="Layer_9"/>
    <g id="STROKES">
        <g id="XMLID_1_">
            <path class="st1" d="M1384 219.3l-.1.1c-3.5 6.8-156 299-352.3 550.7-192.4 246.8-229.9 505.3-232.1 521.3-.1.5-.1.8-.1.8l72.4 36.4s194.7-186.2 280.9-497.5c85.5-308.9 229.2-607 231.4-611.6v-.1"/>
            <path class="st1" d="M871.9 1328.6l-43.4 86.2-74.3-37.3 43.4-86.3"/>
            <path class="st1" d="M754.2 1377.5s-70.4 13.9-89.4 98.3c-19 84.4-60.5 180.9-129.1 223.9 0 0 91.9 13.4 188.7-57.7 95.8-70.3 151.1-168.3 104.1-227.2"/>
        </g>
    </g>
</svg>
