<svg xmlns="http://www.w3.org/2000/svg" viewBox="0 0 1920 1920">
    <style>
        .st0{fill:#fff}.st1{fill:none;stroke:#231f20;stroke-width:50;stroke-linecap:round;stroke-linejoin:round;stroke-miterlimit:10}
    </style>
    <path class="st0" d="M801.5 217.4h317s-40 111.3-40 335.8h-237c0-224.5-40-335.8-40-335.8z" id="Layer_10"/>
    <path class="st0" d="M1078.5 553.2V738h-237V553.2z" id="Layer_11"/>
    <path class="st0" d="M1078.5 738l-77.3 84.4s37.8 55.6 37.8 226.5-52.6 407.3-41.3 488.8c11 79.8.4 161.4-36.5 164.8v.1h-2.4v-.1c-36.9-3.4-47.5-85-36.5-164.8 11.3-81.5-41.3-317.9-41.3-488.8 0-170.9 37.8-226.5 37.8-226.5L841.5 738h237z" id="Layer_12"/>
    <g id="STROKES">
        <g id="XMLID_1_">
            <path class="st1" d="M848.8 646.6h222.4"/>
            <path class="st1" d="M1078.5 553.2c0-224.5 40-335.8 40-335.8h-317s40 111.3 40 335.8h237z"/>
            <path class="st1" d="M841.5 553.2V738h237V553.2"/>
            <path class="st1" d="M841.5 738l77.3 84.4S881 878 881 1048.9s52.6 407.3 41.3 488.8c-11 79.8-.4 161.4 36.5 164.8v.1h2.4v-.1c36.9-3.4 47.5-85 36.5-164.8-11.3-81.5 41.3-317.9 41.3-488.8 0-170.9-37.8-226.5-37.8-226.5l77.3-84.4"/>
        </g>
    </g>
</svg>
