<svg xmlns="http://www.w3.org/2000/svg" viewBox="0 0 1920 1920">
    <style>
        .st0{fill:#fff}.st1{fill:none;stroke:#231f20;stroke-width:50;stroke-linecap:round;stroke-linejoin:round;stroke-miterlimit:10}
    </style>
    <path class="st0" d="M393 474v100H288.1V392H393v82zm1238-82h-104v182h104V392z" id="Layer_5"/>
    <path class="st0" d="M1581 218v84h-54v-1H393v1h-70v-84h1258zM874 422.8c144.1 0 58.7 323.1 177 327 90 3 72-195 129-198s70.8 134.9 153 105c64.2-23.3 110.3-334.9 187.3-354.8H393v172c84-36 169-42.2 205 20.8s-51.5 405 90 405c111 0-6-477 186-477z" id="Layer_6"/>
    <path class="st0" d="M598 494.8c36 63-51.5 405 90 405 111 0-6-477 186-477 144.1 0 58.7 323.1 177 327 90 3 72-195 129-198s70.8 134.9 153 105c64.2-23.3 110.3-334.9 187.3-354.8h6.6v947.8c-110.3 94.6-285.2 162.2-557.8 162.2h-19.5c-271.8 0-446.4-67.3-556.8-161.5V474C477 438 562 431.8 598 494.8zM969.3 1412h-19.5c-271.8 0-446.4-67.3-556.8-161.5V1704h1134v-454.3c-110.3 94.6-285.2 162.3-557.7 162.3z" id="Layer_2"/>
    <g id="STROKES">
        <g id="XMLID_1_">
            <path class="st1" d="M1527 1249.8V1704H393V301h1134v273z"/>
            <path class="st1" d="M1529 392h102v182h-102"/>
            <path class="st1" d="M1633 474h70v370c0 123-36.2 285.9-176 405.8-110.3 94.6-285.2 162.2-557.8 162.2h-19.5c-271.8 0-446.4-67.3-556.8-161.5C252.4 1130.7 216.1 967.2 216.1 844V474h70"/>
            <path class="st1" d="M390.1 392h-102v182h102"/>
            <path class="st1" d="M393 302h-70v-84h1258v84h-60.6z"/>
            <path class="st1" d="M393 474c84-36 169-42.2 205 20.8s-51.5 405 90 405c111 0-6-477 186-477 144.1 0 58.7 323.1 177 327 90 3 72-195 129-198s70.8 134.9 153 105c64.2-23.3 110.3-334.9 187.3-354.8 2.2-.6 4.4-.9 6.6-1"/>
        </g>
    </g>
</svg>
