<svg xmlns="http://www.w3.org/2000/svg" viewBox="0 0 1920 1920">
    <style>
        .st0{fill:#fff}.st1{fill:none;stroke:#231f20;stroke-width:50;stroke-linecap:round;stroke-linejoin:round;stroke-miterlimit:10}
    </style>
    <path class="st0" d="M1325.3 534.2c218.8 19.6 197 229.5 197 229.5L1343.5 698c0 .1 28.3-129.8-18.2-163.8zm-148.1-184.4s101.8 13.9 127.3 66.3c133.5-21 108-136.5 108-136.5-106.8-2.4-182.1 26.7-235.3 70.2zM1115 571.3l.5.8c85.5 0 144 102 144 102s20.4-115.1-33.6-137.6c-49.7 6-85.4 19-110.9 34.8zm13.4-170.3c-26.5 35.5-44 74.9-55.5 112.6 37.5-49.5 165.6-36 165.6-36-31.5-61.5-110.1-76.6-110.1-76.6zM865 329c53.5-34.1 148.8-23.7 156.2-22.8-4-64.4-36.3-122.7-128.1-155.6C822.2 213.5 865 329 865 329zm22 62c78.1 36.5 89.4 97.2 91.1 112.6 13-35.1 27.5-75.5 36.1-116.6-54.3-40.5-127.2 4-127.2 4zM710.2 536.5c-54 22.5-33.6 137.6-33.6 137.6s58.5-102 144-102l.5-.8c-25.5-15.8-61.1-28.8-110.9-34.8zm-12.6-58.9s129.9-7.5 167.4 42c-11.5-39.5-29.5-81.2-57.3-118.6 0 0-78.6 15.1-110.1 76.6zm-174-198s-25.5 115.5 108 136.5c25.5-52.5 124.9-68.2 124.9-68.2-53-42.5-127.7-70.7-232.9-68.3zM413.8 763.8l178.8-65.7s-21-132 28.5-163.5l-.1-1.2c-229.7 14-207.2 230.4-207.2 230.4z" id="Layer_8"/>
    <path class="st0" d="M1039.3 769.8l72 93-72 3 33 60-45 15 42 762.1H866.8l42-762.1-45-15 33-60-72-3 72-93-63-9 51-81v-.4c0-.5.1-1.3.1-2.5v-.1c.6-14.2 1.8-76-17.1-146.9C924.6 624.9 973 623 973 623c40.8-5.8 72.2-30.6 88.6-65-11.9 58-11 105.6-10.5 118.4v.6c0 1.2.1 2 .1 2.5v.4l51 81-62.9 8.9z" id="Layer_9"/>
    <g id="STROKES">
        <g id="XMLID_1_">
            <path class="st1" d="M764.8 679.8c75-117 120 0 120 0l-51 81 63 9-72 93 72 3-33 60 45 15-42 762.1"/>
            <path class="st1" d="M502.6 720.6s-19.5-111 42-171"/>
            <path class="st1" d="M885 676.7c.6-14.2 1.8-76-17.1-146.9-.9-3.4-1.9-6.8-2.9-10.3-11.5-39.5-29.5-81.2-57.3-118.6-14.3-19.2-31.2-37.2-51.2-53.2-53-42.5-127.7-70.7-232.9-68.2"/>
            <path class="st1" d="M884.8 679.4c0-.5.1-1.3.1-2.5"/>
            <path class="st1" d="M885 676.9c0 1.2-.1 2-.1 2.5v.3"/>
            <path class="st1" d="M885 676.9v-.1"/>
            <path class="st1" d="M621.1 534.6c-49.5 31.5-28.5 163.5-28.5 163.5l-178.8 65.7s-22.5-216.4 207.3-230.3c7.6-.5 15.5-.7 23.7-.7 24.2 0 45.9 1.3 65.4 3.7 49.7 6.1 85.4 19.1 110.9 34.9 61.3 38 64.1 92.1 63.9 105.4"/>
            <path class="st1" d="M710.2 536.5c-54 22.5-33.6 137.6-33.6 137.6s58.5-102 144-102"/>
            <path class="st1" d="M663.1 302.1s-70.5 1.5-111 54"/>
            <path class="st1" d="M807.7 401s-78.6 15.1-110.1 76.6c0 0 129.9-7.5 167.4 42"/>
            <path class="st1" d="M523.6 279.6s-25.5 115.5 108 136.5c25.5-52.5 124.9-68.2 124.9-68.2"/>
            <path class="st1" d="M1069.3 1702.9l-42-762.1 45-15-33-60 72-3-72-93 63-9-51-81s45-117 120 0"/>
            <path class="st1" d="M1433.5 720.6s19.5-111-42-171"/>
            <path class="st1" d="M1051.1 676.4c-.5-12.8-1.4-60.4 10.5-118.4 2.9-14.3 6.6-29.2 11.2-44.3 11.6-37.7 29.1-77.1 55.5-112.6 13.7-18.4 29.8-35.8 48.8-51.3 53.2-43.5 128.5-72.6 235.3-70.1"/>
            <path class="st1" d="M1051.3 679.4c0-.5-.1-1.3-.1-2.5"/>
            <path class="st1" d="M1051.1 676.9c0 1.2.1 2 .1 2.5v.3"/>
            <path class="st1" d="M1051.1 676.9s0-.1 0 0v-.1"/>
            <path class="st1" d="M1325.3 534.2c-3.4-.3-6.8-.6-10.3-.8-7.6-.5-15.5-.7-23.7-.7-24.2 0-45.9 1.3-65.4 3.7-49.7 6.1-85.4 19.1-110.9 34.9-60.8 37.6-64.1 91.1-63.9 105v.4"/>
            <path class="st1" d="M1325.3 534.2c46.5 34 18.2 163.9 18.2 163.9l178.8 65.7s21.8-209.9-197-229.6z"/>
            <path class="st1" d="M1323.2 532.8c.7.5 1.5 1 2.2 1.5"/>
            <path class="st1" d="M1225.9 536.5c54 22.5 33.6 137.6 33.6 137.6s-58.5-102-144-102"/>
            <path class="st1" d="M1273 302.1s70.5 1.5 111 54"/>
            <path class="st1" d="M1128.4 401s78.6 15.1 110.1 76.6c0 0-128.1-13.5-165.6 36"/>
            <path class="st1" d="M1412.5 279.6s25.5 115.5-108 136.5c-25.5-52.5-127.3-66.3-127.3-66.3"/>
            <path class="st1" d="M893 150.6c91.8 32.9 124.1 91.2 128.1 155.6 1.7 26.4-1.4 53.8-7 80.9-8.6 41.1-23.1 81.5-36.1 116.6-22.4 60.7-40.3 105.8-15 111.3"/>
            <path class="st1" d="M978.3 507.3s0-1.3-.3-3.7c-1.6-15.4-13-76.2-91.1-112.6 0 0 72.9-44.5 127.1-4"/>
            <path class="st1" d="M1021.6 306.2h-.5c-7.4-.9-102.7-11.3-156.2 22.8 0 0-42.8-115.5 28-178.4"/>
            <path class="st1" d="M981 227s-67.1-13-126 32"/>
            <path class="st1" d="M865 525c1 1.7 1.9 3.3 2.9 4.9C924.6 624.9 973 623 973 623c40.8-5.8 72.2-30.6 88.6-65 .5-1 .9-2 1.4-3"/>
        </g>
    </g>
</svg>
