<svg xmlns="http://www.w3.org/2000/svg" viewBox="0 0 1920 1920">
    <style>
        .st0{fill:#fff}.st1{fill:none;stroke:#231f20;stroke-width:50;stroke-linecap:round;stroke-linejoin:round;stroke-miterlimit:10}
    </style>
    <path class="st0" d="M994.2 680.6c-63 35-114.5 119-154.2 210.2l-96.6-12.2 69.5 80.1c-47.9 130.2-72.2 254.2-72.2 254.2-167.1-269.5 40.4-566 40.4-566-68.3-11.5-127.8-.1-178 22.1l-61.8-73.3s2.3 53.6 4.9 105.2C456.7 762 409.3 849 409.3 849c-35-482.5 428.6-366.6 428.6-366.6-1.9-42.7-30.9-83.5-68.1-118.6l27.7-78.2-77.4 37.4C659.4 278.8 598 250.6 598 250.6c331.5-129.4 415.1 140.2 415.1 140.2 245.3-280.3 485.2-24.3 485.2-24.3-59.9 2.7-110.3 14.6-152.1 31l-133.6-66.1 51.2 110.2c-64.9 45.5-91.6 94.7-91.6 94.7 187.9 80.6 338.4 308.2 339.6 310-1.7-1.3-208.5-160.4-389.4-182.4-30.3-3.7-59.9-3.5-87.7 1.8-14.2 2.6-27.6 7.7-40.5 14.9z" id="Layer_3"/>
    <path class="st0" d="M1122.2 663.8c390.8 407 330.1 1034.2 330.1 1034.2l-226.4 8.1s140.1-605-231.6-1025.4c12.9-7.2 26.3-12.3 40.2-15 27.7-5.5 57.3-5.6 87.7-1.9z" id="Layer_4"/>
    <g id="STROKES">
        <path class="st1" d="M1225.8 1706s140.1-605-231.6-1025.4c-.1-.1-.1-.2-.2-.2"/>
        <path class="st1" d="M1122.2 663.8c390.8 407 330.1 1034.2 330.1 1034.2"/>
        <path class="st1" d="M1511.5 846.2c-1.2-1.8-151.7-229.4-339.6-310 0 0 26.7-49.2 91.6-94.7l-51.2-110.2 133.6 66.1c41.8-16.4 92.1-28.4 152.1-31 0 0-239.9-256.1-485.2 24.3 0 0-83.6-269.5-415.1-140.2 0 0 61.4 28.2 122.1 72.4l77.4-37.4-27.7 78.2c37.2 35.1 66.3 75.9 68.1 118.6 0 0-463.6-115.9-428.6 366.6 0 0 47.4-87 136.9-148.1-2.6-51.7-4.9-105.2-4.9-105.2l61.8 73.3c50.2-22.2 109.8-33.6 178-22.1 0 0-207.5 296.5-40.4 566 0 0 24.3-124 72.2-254.2l-69.5-80.1 96.6 12.2c39.7-91.2 91.2-175.1 154.2-210.2 12.9-7.2 26.3-12.3 40.2-15 27.8-5.4 57.4-5.5 87.7-1.8 181.2 22.1 388 181.2 389.7 182.5"/>
    </g>
</svg>
