<svg xmlns="http://www.w3.org/2000/svg" viewBox="0 0 1920 1920">
    <style>
        .st0{fill:#fff}.st1{fill:none;stroke:#231f20;stroke-width:50;stroke-linecap:round;stroke-linejoin:round;stroke-miterlimit:10}
    </style>
    <g id="Layer_8">
        <path class="st0" d="M1098.8 337.1c32.7 14 66.5 34.8 94.2 65.3 1.9-5.8 39.1-16.9 56.4-65.1 17.3-48.1-65.9-130-114-80-47.7 49.5-36.9 79.1-36.6 79.8z"/>
        <path class="st0" d="M1664.7 1377.3c-114-64-162 2-162 2l-63.8-62.7c0-.1.1-.1.1-.2 92-139.2 53.2-364.2-14-462-84-122.4-197.9-141.7-204-143.4v-.6l-11.7-1.1s6 68 2 84c0 0-56-28-72-26s-58 46-162 46h-34c-104 0-146-44-162-46s-72 26-72 26c-4-16 2-84 2-84l-23.8 2.2c-15.9 4.4-122.6 27-202.2 142.9-67.2 97.9-106 322.8-14 462 1.3 2 2.6 3.9 3.9 5.9l-57.9 56.9s-48-66-162-2c-77.6 43.6-24.5 152.9 17.3 218.3 28.1 44 73.8 74.1 125.5 81.3 17.6 2.5 34.9 2.1 49.2-3.6 44.4-17.8 309.2-78 368.3-91.4-36.4-10.1-70.7-24.3-102-42.5 6.4-1.9 13-4.5 19.7-7.8 87.8-42.9 48.7-157 12.7-237.8-8.3-18.5-16.4-35.3-22.7-49.1-34-73.8 54-268 216-268 5.8 0 11-.5 15.9-1.3 4.8.9 10.1 1.3 15.8 1.3 162 0 250 194.1 216 268-6.5 14.2-14.9 31.5-23.4 50.6-35.8 80.7-73.9 193.7 13.4 236.3 11.4 5.6 22.2 9.1 32.7 10.8-31 17.4-64.8 30.9-100.6 40.5 67.3 15.2 320.3 73 363.6 90.3 14.3 5.7 31.7 6 49.2 3.6 51.7-7.2 97.4-37.3 125.5-81.3 41.8-65.2 94.9-174.5 17.3-218.1z"/>
        <path class="st0" d="M726.3 404c27.9-31.4 62.3-52.6 95.6-66.9 0 0 11.6-29.7-36.6-79.8-48.1-50-131.3 31.9-114 80 17.4 48.1 53.1 60.9 55 66.7z"/>
    </g>
    <path class="st0" d="M911.3 479.3s-26 58-58 98-78 30-86 2 30-50 42-94 90-20 102-6zm98 0s26 58 58 98 78 30 86 2-30-50-42-94-90-20-102-6z" id="Layer_9"/>
    <g id="Layer_10">
        <path class="st0" d="M1299.3 623.3c-32-6-2-14-68-162-10.2-22.9-23.4-42.3-38.4-58.9-27.6-30.5-61.5-51.2-94.2-65.3-64.4-27.7-124.4-29.4-124.4-29.4h-27.9s-60 1.8-124.4 29.4c-33.3 14.3-67.7 35.5-95.6 66.9-14.4 16.2-27.1 35.2-37 57.3-66 148-36 156-68 162 0 0 66 22 76 10-.6 1-38.1 68.1-50 82l40.2-3.8 23.8-2.2s-6 68-2 84c0 0 56-28 72-26s58 46 162 46h34c104 0 146-44 162-46s72 26 72 26c4-16-2-84-2-84l11.7 1.1 52.3 4.9c-11.9-13.9-49.4-80.9-50-82 10 12 75.9-10 75.9-10zm-446-46c-32 40-78 30-86 2s30-50 42-94 90-20 102-6c0 0-26 58-58 98zm300 2c-8 28-54 38-86-2s-58-98-58-98c12-14 90-38 102 6s50 66 42 94z"/>
        <path class="st0" d="M1163.7 1295.4c8.5-19.1 16.8-36.5 23.4-50.6 34-73.8-54-268-216-268-5.8 0-11-.5-15.8-1.3-4.8.9-10.1 1.3-15.9 1.3-162 0-250 194.1-216 268 6.4 13.8 14.4 30.6 22.7 49.1 36 80.8 75.1 194.9-12.7 237.8-6.7 3.3-13.3 5.9-19.7 7.8 31.3 18.2 65.6 32.3 102 42.5 46.5 12.9 96.5 19.4 148.7 19.4 50.7 0 99.4-6.1 144.8-18.3 35.8-9.7 69.6-23.1 100.6-40.5-10.4-1.7-21.3-5.3-32.7-10.8-87.4-42.8-49.2-155.7-13.4-236.4z"/>
    </g>
    <g id="STROKES">
        <path class="st1" d="M475.2 1322.4l-57.9 56.9s-48-66-162-2c-77.6 43.6-24.5 152.9 17.3 218.3 28.1 44 73.8 74.1 125.5 81.3 17.6 2.4 34.9 2.1 49.2-3.6 44.4-17.8 309.2-78 368.3-91.4"/>
        <path class="st1" d="M1109.1 1583c67.3 15.2 320.3 73 363.6 90.3 14.3 5.7 31.7 6 49.2 3.6 51.7-7.2 97.4-37.3 125.5-81.3 41.8-65.4 94.9-174.8 17.3-218.3-114-64-162 2-162 2l-63.8-62.7"/>
        <path class="st1" d="M713.6 1539.5c31.3 18.2 65.6 32.3 102 42.5 46.5 12.9 96.5 19.4 148.7 19.4 50.7 0 99.4-6.1 144.8-18.3 35.8-9.7 69.6-23.1 100.6-40.5"/>
        <path class="st1" d="M689.3 711l-1.8.6c-15.9 4.4-122.6 27-202.2 142.9-67.2 97.9-106 322.8-14 462 1.3 2 2.6 4 3.9 5.9 84.2 128.3 143.7 245.5 238.4 217.1 6.4-1.9 13-4.5 19.7-7.8 87.8-42.9 48.7-157 12.7-237.8-8.3-18.6-16.4-35.3-22.7-49.1-34-73.8 54-268 216-268 5.8 0 11-.5 15.8-1.3 4.8.9 10.1 1.3 15.8 1.3 162 0 250 194.1 216 268-6.5 14.2-14.9 31.5-23.4 50.6-35.8 80.7-73.9 193.7 13.4 236.3 11.4 5.6 22.2 9.1 32.7 10.8 88.7 14.7 147-101.3 229.2-225.9 0-.1.1-.1.1-.2 92-139.2 53.2-364.2-14-462C1341 732 1227.1 712.7 1221 711"/>
        <path class="st1" d="M1009.3 479.3c12-14 90-38 102 6s50 66 42 94-54 38-86-2-58-98-58-98z"/>
        <path class="st1" d="M911.3 479.3c-12-14-90-38-102 6s-50 66-42 94 54 38 86-2 58-98 58-98z"/>
        <path class="st1" d="M1192.9 402.4c1.9-5.8 39.1-16.9 56.4-65.1 17.3-48.1-65.9-130.1-114-80-47.6 49.5-36.8 79.1-36.6 79.8"/>
        <path class="st1" d="M726.3 404c-1.9-5.8-37.7-18.5-55-66.7-17.3-48.1 65.9-130.1 114-80 48.1 50.1 36.5 79.8 36.5 79.8"/>
        <path class="st1" d="M1223.3 633.3c10 12 76-10 76-10-32-6-2-14-68-162-10.2-22.9-23.4-42.4-38.4-58.9-27.7-30.5-61.5-51.2-94.2-65.3-64.4-27.6-124.4-29.4-124.4-29.4"/>
        <path class="st1" d="M697.3 633.3c-.6 1.1-38.1 68.1-50 82l40.2-3.8 23.8-2.2s-6 68-2 84c0 0 56-28 72-26s58 46 162 46h34c104 0 146-44 162-46s72 26 72 26c4-16-2-84-2-84l11.7 1.1 52.3 4.9c-11.9-13.9-49.4-80.9-50-82"/>
        <path class="st1" d="M974.2 307.6h-27.8s-60.1 1.8-124.5 29.4c-33.3 14.3-67.7 35.5-95.6 66.9-14.4 16.2-27.1 35.2-37 57.3-66 148-36 156-68 162 0 0 66 22 76 10"/>
        <path class="st1" d="M1004.8 639.3l-44 18v76s72 14 110-38"/>
        <path class="st1" d="M959.8 733.3s-72 14-110-38"/>
        <path class="st1" d="M915.8 639.3l44 18"/>
    </g>
</svg>
