<svg xmlns="http://www.w3.org/2000/svg" viewBox="0 0 1920 1920">
    <style>
        .st0{fill:#fff}.st1{fill:none;stroke:#231f20;stroke-width:50;stroke-linecap:round;stroke-linejoin:round;stroke-miterlimit:10}
    </style>
    <path class="st0" d="M1099.3 1228.2c-21.2-10.6-82.6 24.2-141 24.5h-.1c-58.4-.3-119.8-35-141-24.5 0 0-29.4 68 89.2 106.1 49.5 15.9 45.8 148.5 45.8 148.5h12s-3.7-132.6 45.8-148.5c118.7-38.1 89.3-106.1 89.3-106.1z" id="Layer_12"/>
    <g id="Layer_4">
        <path class="st0" d="M630.2 482.8c-7.2-4.9-3.9-99.6-88.2-118.9-84.4-19.3-189.3 80.1-183.3 209.8 2.7 58 21.7 159.2 89.2 147.1h.1c35.5-62.2 75.8-124.3 115.7-173.7 20.3-25.1 42.7-46.3 66.5-64.3z"/>
        <path class="st0" d="M1249 906.5c-19.3-57.9-70.7-85.8-108.5-94-110.9-24.1-101.3 106.1-67.5 164 33.8 57.9 101.3 125.4 137.4 164 36.2 38.6 98.9 24.1 118.2-14.5 19.3-38.6 74.8-65.1 45.8-113.3-29-48.3-106.2-48.3-125.4-106.2zM1136 998c-28.2 0-51-22.8-51-51s22.8-51 51-51 51 22.8 51 51-22.8 51-51 51z"/>
        <path class="st0" d="M1379.1 363.9c-84.4 19.3-81.1 113.9-88.4 118.8 23.8 18 46.3 39.3 66.7 64.5 39.9 49.4 80.2 111.5 115.6 173.7l.1-.1c67.5 12.1 85.7-89.1 89.2-147.1 8.4-136-98.9-229.1-183.2-209.8z"/>
        <path class="st0" d="M778.3 812.5c-37.8 8.2-89.2 36.2-108.5 94-19.3 57.9-96.4 57.9-125.4 106.1-28.9 48.2 26.5 74.8 45.8 113.3 19.3 38.6 82 53.1 118.2 14.5s103.7-106.1 137.4-164c33.7-57.9 43.4-188.1-67.5-163.9zm4.4 185.5c-28.2 0-51-22.8-51-51s22.8-51 51-51 51 22.8 51 51-22.9 51-51 51z"/>
    </g>
    <path class="st0" d="M1584 962c-13.1-49.7-56.4-145.4-111-241.1-35.5-62.2-75.8-124.3-115.6-173.7-20.4-25.2-42.9-46.5-66.7-64.5-94.6-71.4-209.8-89.9-292.6-89.9H923c-82.9 0-198.1 18.5-292.8 90-23.8 17.9-46.2 39.2-66.5 64.4-39.9 49.4-80.2 111.5-115.7 173.7-54.6 95.6-97.9 191.4-111 241.1-16.8 63.7-33.7 275.6 89.4 401.1 35.5 36.1 82.5 65 144.5 81.2 276.2 72 139.9 113 390 113.3 303.8-.3 113.1-41.3 389.3-113.3 58.5-15.3 103.7-41.9 138.3-75.2 129.8-124.6 112.6-342.4 95.5-407.1zm-993.8 163.9c-19.3-38.6-74.8-65.1-45.8-113.3 28.9-48.2 106.1-48.2 125.4-106.1 19.3-57.9 70.7-85.8 108.5-94 110.9-24.1 101.3 106.1 67.5 164-33.8 57.9-101.3 125.4-137.4 164-36.2 38.5-98.9 24-118.2-14.6zm419.9 208.4c-49.5 15.9-45.8 148.5-45.8 148.5h-12s3.6-132.6-45.8-148.5c-118.6-38.1-89.2-106.1-89.2-106.1 21.2-10.6 82.6 24.2 141 24.5h.1c58.4-.3 119.8-35.1 141-24.5-.1 0 29.3 68-89.3 106.1zm318.4-208.4c-19.3 38.6-82 53.1-118.2 14.5s-103.7-106.1-137.4-164c-33.8-57.9-43.4-188.1 67.5-164 37.8 8.2 89.2 36.2 108.5 94 19.3 57.9 96.4 57.9 125.4 106.1 29 48.3-26.5 74.8-45.8 113.4z" id="Layer_5"/>
    <path class="st0" d="M1488.5 1369.1c-34.7 33.3-79.9 59.9-138.3 75.2-276.2 72-85.5 113-389.3 113.3-250-.3-113.8-41.3-390-113.3-62-16.2-109-45.1-144.5-81.2 0 0-99.9 10-209.9 116v199.3h1487v-199.3c-110-106-215-110-215-110z" id="Layer_6"/>
    <g id="Layer_7">
        <circle class="st0" cx="1136" cy="947" r="51"/>
        <circle class="st0" cx="782.7" cy="947" r="51"/>
    </g>
    <g id="STROKES">
        <path class="st1" d="M778.3 812.5c-37.8 8.2-89.2 36.2-108.5 94-19.3 57.9-96.5 57.9-125.4 106.1-28.9 48.2 26.5 74.8 45.8 113.3 19.3 38.6 82 53 118.2 14.5 36.2-38.6 103.7-106.1 137.4-164 33.7-57.9 43.4-188.1-67.5-163.9z"/>
        <path class="st1" d="M630.2 482.8c-7.2-4.9-3.9-99.6-88.2-118.9-84.4-19.3-189.3 80.1-183.3 209.8 2.7 58 21.7 159.2 89.2 147.1"/>
        <circle class="st1" cx="782.7" cy="947" r="51"/>
        <path class="st1" d="M1140.4 812.5c37.8 8.2 89.2 36.2 108.5 94 19.3 57.9 96.5 57.9 125.4 106.1 28.9 48.2-26.5 74.8-45.8 113.3-19.3 38.6-82 53-118.2 14.5-36.2-38.6-103.7-106.1-137.4-164-33.7-57.9-43.4-188.1 67.5-163.9z"/>
        <circle class="st1" cx="1136" cy="947" r="51"/>
        <path class="st1" d="M957.1 1557.6h3.8c303.8-.3 113.1-41.3 389.3-113.3 58.5-15.3 103.7-41.9 138.3-75.2 129.8-124.6 112.7-342.4 95.6-407.1-13.2-49.7-56.4-145.5-111-241.1-35.5-62.2-75.8-124.3-115.7-173.7-20.4-25.2-42.9-46.5-66.7-64.5-94.6-71.4-209.8-89.9-292.6-89.9H923c-82.9 0-198.1 18.5-292.8 90-23.8 17.9-46.2 39.2-66.5 64.4-39.9 49.4-80.2 111.5-115.7 173.7-54.6 95.6-97.9 191.4-111 241.1-16.9 63.7-33.7 275.6 89.5 401.1 35.4 36.1 82.5 65 144.5 81.2 276.2 72 139.9 113 390 113.3h3.1"/>
        <path class="st1" d="M958.3 1252.7h-.8"/>
        <path class="st1" d="M964.3 1482.8s-3.6-132.6 45.8-148.5c118.6-38.1 89.2-106.1 89.2-106.1-21.2-10.6-82.6 24.2-141 24.5"/>
        <path class="st1" d="M952.3 1482.8s3.6-132.6-45.8-148.5c-118.6-38.1-89.2-106.1-89.2-106.1 21.2-10.6 82.6 24.2 141 24.5h.9"/>
        <path class="st1" d="M1139.3 1415.3c-69.9 77.2-175 67.5-175 67.5"/>
        <path class="st1" d="M777.3 1415.3c69.9 77.2 175 67.5 175 67.5h12"/>
        <path class="st1" d="M1290.7 482.7c7.2-4.9 4-99.5 88.4-118.8 84.4-19.3 191.6 73.8 183.3 209.8-3.6 58-21.7 159.2-89.2 147.1"/>
        <path class="st1" d="M426.4 1363s-99.9 10-209.9 116v199.3h1487V1479c-110-106-215-110-215-110"/>
    </g>
</svg>
