<svg xmlns="http://www.w3.org/2000/svg" viewBox="0 0 1920 1920">
    <style>
        .st0{fill:#fff}.st1{fill:none;stroke:#231f20;stroke-width:50;stroke-linecap:round;stroke-linejoin:round;stroke-miterlimit:10}
    </style>
    <path class="st0" d="M1299.2 1222.7c-51 222.7-30.6 407.6-30.6 407.6-90.2 131-230 45.1-230 45.1l-24.7-42.2c-29.1-4.4-37.9-49.5-37.9-49.5-112 128.1-243 46.6-243 46.6v-32l-32-24.8-53.9-260.5 7.3-65.5-5.8-72.8-26.2-50.9c-66.9-85.9-48-401.7-48-401.7l32-61.9c.9-94.1 17.2-217.4 30.5-303.4 0-1.2.1-1.9.4-2.3 9.3-59.8 17.2-101 17.2-101S695.1 217 976 217s337.7 36.4 337.7 36.4l13.1 103.3c37.9 225.6 23.3 643.3-27.6 866z" id="Layer_4"/>
    <g id="STROKES">
        <path class="st1" d="M654.4 253.3s-46.6 245.9-48 406.8l-32 61.9s-18.9 315.9 48 401.7l26.2 50.9 5.8 72.8-7.3 65.5 53.9 260.5 32 24.7v32s131 81.5 243.1-46.6c0 0 8.7 45.1 37.8 49.5l24.7 42.2s139.7 85.9 230-45.1c0 0-20.4-184.9 30.6-407.6s65.5-640.4 27.7-866.1l-13.1-103.3s-56.8-36.4-337.7-36.4-321.7 36.6-321.7 36.6z"/>
        <path class="st1" d="M654.4 253.3s94.6 49.5 286.7 49.5 372.6-49.5 372.6-49.5"/>
        <path class="st1" d="M976 1583.7s-37.3-176.5-10-238.5c27.3-62.1 0-227.1 0-227.1s-49.7-28.5-49.7-131.6c0-103 14.9-225.9 14.9-225.9s22.3-98 196.1-98 167.5 230.8 167.5 230.8 23.6 270.6-181.2 270.6c0 0-97.1-6.2-147.7-45.9"/>
        <path class="st1" d="M1289.9 989.7c16.3-384.1-358.7-229-358.7-229"/>
        <path class="st1" d="M574.3 722s175.9-38.1 193.9 137.7 18.4 318.1-145.9 264.1"/>
        <path class="st1" d="M606.3 660.1s167.3-20.7 161.9 199.6"/>
        <path class="st1" d="M654.4 1247.5s151.6-38.9 168.9 136.1-7.2 224.4-90.3 214.7"/>
        <path class="st1" d="M976.3 1299.9l149.7 14.3s56.8 17.2 58.3 83.5c1.6 66.3 25.2 222.4-41 242.9s-129.4-7.4-129.4-7.4"/>
        <path class="st1" d="M921.8 859.7s-119.7-51.8-125.2-186.3-9.2-204.5-9.2-204.5"/>
        <path class="st1" d="M636.9 356.7c0-15.5 12.8 44.3 323.1 44.3s362.5-61 362.5-61"/>
    </g>
</svg>
