<svg xmlns="http://www.w3.org/2000/svg" viewBox="0 0 1920 1920">
    <style>
        .st0{fill:#fff}.st1{fill:none;stroke:#231f20;stroke-width:50;stroke-linecap:round;stroke-linejoin:round;stroke-miterlimit:10}
    </style>
    <path class="st0" d="M1398.1 716.6l-48-33c2.3-84.5-19.7-219.5-38.8-318.6-13.9-72.4-26.2-125.6-26.2-125.6C1228.3 219.2 960 217 960 217s-268.3 2.2-325.1 22.5c0 0-12.3 53.1-26.2 125.6-19 99-41.1 234.1-38.8 318.6l-48 33s-11.5 306.1 31 413.5c0 0 28.4 10.6 36.4 58.6.8 4.8 1.9 13.1 3.2 24.2 11.7 98.3 41.2 415.1 42.5 428.9v.5s13.7 60.8 105.2 60.8c0 0 165.9 7 165.9-59.1 0-56.3 39.1-661.6 50.7-839.7 2-31 4.4-31 6.4 0 11.6 178.1 50.7 783.4 50.7 839.7 0 66.1 165.9 59.1 165.9 59.1 91.4 0 105.2-60.8 105.2-60.8v-.5c1.3-13.8 30.9-330.6 42.5-428.9 1.3-11.1 2.4-19.5 3.2-24.2 8-47.9 36.4-58.6 36.4-58.6 42.6-107.5 31.1-413.4 31-413.6z" id="Layer_2"/>
    <g id="STROKES">
        <path class="st1" d="M1367.1 1130.1s-28.4 10.6-36.4 58.6c-.8 4.8-1.9 13.1-3.2 24.2-46.5 3.1-111.5 24-128.1 112.9-19.2 102.4-5.7 199.4 3.4 245.7 4.1 20.7 16.4 38.8 34.1 50.1 13.1 8.4 29.8 16.8 48.1 20.2v.5s-13.7 60.8-105.2 60.8c0 0-165.9 7-165.9-59.1 0-56.3-39.1-661.6-50.7-839.7-2-31-4.4-31-6.4 0-11.6 178.1-50.7 783.4-50.7 839.7 0 66.1-165.9 59.1-165.9 59.1-91.4 0-105.2-60.8-105.2-60.8v-.5c18.3-3.4 35-11.8 48.1-20.2 17.7-11.3 30.1-29.5 34.1-50.1 9.1-46.4 22.6-143.3 3.4-245.7-16.6-89-81.6-109.8-128.1-113-1.3-11.1-2.4-19.5-3.2-24.2-8-47.9-36.4-58.6-36.4-58.6 21.6 0 40.7-3.1 57.2-7.7 40.7-11.3 68.8-48.5 68.8-90.7V804.2c0-123.6-109-120.6-109-120.6-2.3-84.5 19.7-219.5 38.8-318.6 49.6-23.4 351.4-29.9 351.4-29.9s301.8 6.4 351.4 29.9c19 99 41.1 234.1 38.8 318.6 0 0-109-3-109 120.6v227.4c0 42.2 28.1 79.4 68.8 90.7 16.3 4.6 35.4 7.8 57 7.8z"/>
        <path class="st1" d="M1311.4 365.1c-49.6-23.4-351.4-29.9-351.4-29.9s-301.8 6.4-351.4 29.9c13.9-72.4 26.2-125.6 26.2-125.6C691.7 219.2 960 217 960 217s268.3 2.2 325.1 22.5c0 0 12.4 53.1 26.3 125.6z"/>
        <path class="st1" d="M1327.5 1212.8c-11.7 98.3-41.2 415.1-42.5 428.9-18.3-3.4-35-11.8-48.1-20.2-17.7-11.3-30.1-29.5-34.1-50.1-9.1-46.4-22.6-143.3-3.4-245.7 16.7-88.9 81.6-109.7 128.1-112.9z"/>
        <path class="st1" d="M1367.1 1130.1c-21.6 0-40.7-3.1-57.2-7.7-40.7-11.3-68.8-48.5-68.8-90.7V804.2c0-123.6 109-120.6 109-120.6l48 33s11.6 306.1-31 413.5z"/>
        <path class="st1" d="M1398.1 716.6s-157 34.4-157 202.5"/>
        <path class="st1" d="M1327.5 1212.8c-11.7 98.3-41.2 415.1-42.5 428.9-18.3-3.4-35-11.8-48.1-20.2-17.7-11.3-30.1-29.5-34.1-50.1-9.1-46.4-22.6-143.3-3.4-245.7 16.7-88.9 81.6-109.7 128.1-112.9z"/>
        <path class="st1" d="M678.8 919.1v112.6c0 42.2-28.1 79.4-68.8 90.7-16.4 4.6-35.6 7.7-57.2 7.7-42.6-107.4-31-413.5-31-413.5s157 34.5 157 202.5z"/>
        <path class="st1" d="M678.8 804.2V919c0-168-157-202.5-157-202.5l48-33c.1.1 109-2.9 109 120.7z"/>
        <path class="st1" d="M717.3 1571.5c-4.1 20.7-16.4 38.8-34.1 50.1-13.1 8.4-29.8 16.8-48.1 20.2-1.3-13.8-30.9-330.6-42.5-428.9 46.5 3.1 111.5 24 128.1 112.9 19.1 102.4 5.7 199.3-3.4 245.7z"/>
        <path class="st1" d="M860.8 576.1v72.8c0 54.5 27.3 87.6 53.3 106.7 26.6 19.6 65.1 19.6 91.7 0 26-19.1 53.3-52.2 53.3-106.7v-72.8"/>
    </g>
</svg>
