<svg xmlns="http://www.w3.org/2000/svg" viewBox="0 0 1920 1920">
    <style>
        .st0{fill:#fff}.st1{fill:none;stroke:#231f20;stroke-width:50;stroke-linecap:round;stroke-linejoin:round;stroke-miterlimit:10}
    </style>
    <path class="st0" d="M826.8 234.2c.5 27.6 1.4 81.6.9 109.9l-110.4-7.8 6.7-109 102.8 6.9zm282.9-.8c.5 27 1.4 80.5.9 109.4l92.2-6.5.4-.6V227.3l-93.5 6.1zM960 243.2l-133.2-9c.5 27.6 1.4 81.6.9 109.9l132.4 9.4 150.6-10.7c.5-28.9-.4-82.4-.9-109.4L960 243.2zm-.4 56.5c-1.2 0-2.2-1-2.2-2.2 0-1.2 1-2.2 2.2-2.2 1.2 0 2.2 1 2.2 2.2 0 1.3-1 2.2-2.2 2.2zm.4 53.8l-132.4-9.4-110.4-7.8s-31.5 133.5-8.6 288.2 8.6 948.3-131.8 1077.2H960S900.6 954 926.4 802.1c21.5-126.8 31.1-171.8 33.6-183.2 2.6 11.4 12.1 56.4 33.6 183.2 25.8 151.8-33.6 899.6-33.6 899.6h383.2c-140.4-128.9-154.7-922.5-131.8-1077.2s-8.6-288.2-8.6-288.2l-92.2 6.5L960 353.5zm-.4 81.1c-1.2 0-2.2-1-2.2-2.2 0-1.2 1-2.2 2.2-2.2 1.2 0 2.2 1 2.2 2.2 0 1.2-1 2.2-2.2 2.2zm0 77.9c-1.2 0-2.2-1-2.2-2.2 0-1.2 1-2.2 2.2-2.2 1.2 0 2.2 1 2.2 2.2 0 1.3-1 2.2-2.2 2.2z" id="Layer_5"/>
    <g id="STROKES">
        <g id="XMLID_1_">
            <path class="st1" d="M960 353.5l-132.4-9.4-110.4-7.8s-31.5 133.5-8.6 288.2 8.6 948.3-131.8 1077.2H960S900.6 954 926.4 802.1c21.5-126.8 31.1-171.8 33.6-183.2.5-2.3.7-3.2.7-3.2"/>
            <path class="st1" d="M710.1 405.7c5.7-1.4 128.9 10.9 128.9 10.9s16.7 141.2-126.4 139.8"/>
            <path class="st1" d="M1204.6 405.7c-5.7-1.4-128.9 10.9-128.9 10.9s-16.7 141.2 126.4 139.8"/>
            <path class="st1" d="M959.3 615.7s.2.9.7 3.2c2.6 11.4 12.1 56.4 33.6 183.2 25.8 151.8-33.6 899.6-33.6 899.6h383.2c-140.4-128.9-154.7-922.5-131.8-1077.2s-8.6-288.2-8.6-288.2l-92.2 6.5L960 353.5"/>
            <path class="st1" d="M725.8 991.4s67.9-.3 118 37c0 0-40 65.7-120.9 56.1"/>
            <path class="st1" d="M961.8 297.5c0 1.2-1 2.2-2.2 2.2-1.2 0-2.2-1-2.2-2.2 0-1.2 1-2.2 2.2-2.2 1.2.1 2.2 1.1 2.2 2.2z"/>
            <path class="st1" d="M961.8 432.4c0 1.2-1 2.2-2.2 2.2-1.2 0-2.2-1-2.2-2.2 0-1.2 1-2.2 2.2-2.2 1.2 0 2.2 1 2.2 2.2z"/>
            <path class="st1" d="M961.8 510.4c0 1.2-1 2.2-2.2 2.2-1.2 0-2.2-1-2.2-2.2 0-1.2 1-2.2 2.2-2.2 1.2 0 2.2.9 2.2 2.2z"/>
            <path class="st1" d="M717.2 336.3l6.7-109 102.9 6.9 133.2 9 149.7-9.8 93.5-6.1v108.4"/>
            <path class="st1" d="M1109.3 362.1c.7-1.3 1-8.6 1.2-19.3.5-28.9-.4-82.4-.9-109.4-.2-10.1-.3-16.4-.3-16.4"/>
            <path class="st1" d="M826.4 362.1c.6-1.3 1-8 1.2-18 .6-28.2-.3-82.2-.9-109.9-.2-10.5-.3-17.2-.3-17.2"/>
        </g>
    </g>
</svg>
