<svg xmlns="http://www.w3.org/2000/svg" viewBox="0 0 1920 1920">
    <style>
        .st0{fill:#fff}.st1{fill:none;stroke:#231f20;stroke-width:50;stroke-linecap:round;stroke-linejoin:round;stroke-miterlimit:10}
    </style>
    <path class="st0" d="M964.3 750.8l-89.6 361.5 3.2 160-51.2 156.7 12.8 108.8-24.5 164.3-281.5-7.6-1.1-131.1 25.6-76.8 3.2-246.3 19.2-163.2 12.8-159.9 22.4-316.7V475.7l29.7-178.6-.5-.1 3.2-79.1h623l3.2 79.1 22.7 140.3v137.6l25.6 252.7 3.2 179.2 44.8 387 3.2 160 13.9 140.7-281.5 7.6-45.9-237.9-41.6-76.8 16-153.5-51.1-102.4 19.2-102.4z" id="Layer_4"/>
    <g id="STROKES">
        <g id="XMLID_1_">
            <path class="st1" d="M1258.7 297H645.4l-.1.1-29.7 178.6v124.8l-22.4 316.7-12.8 159.9-19.2 163.2-3.2 246.3-25.6 76.8 1.1 131.1 281.5 7.6 24.5-164.3-12.8-108.8 51.2-156.7-3.2-160 89.6-361.5 38.4 278.3-19.2 102.4 51.1 102.4-16 153.5 41.6 76.8 45.9 237.9 281.5-7.6-13.9-140.7-3.2-160-44.8-387-3.2-179.2-25.6-252.7V437.3L1274.2 297l-3.2-79.1H648l-3.2 79.1"/>
            <path class="st1" d="M1303.5 885.3l-162.7 13.4 57.7 298.5 130.7-13.1"/>
            <path class="st1" d="M1171.8 1022.2l134.2-5.7"/>
            <path class="st1" d="M1248.7 1025.3l13.2 156.4"/>
            <path class="st1" d="M1287.4 494.9c-9.6 0-166.3-76.8-166.3-76.8V303"/>
            <path class="st1" d="M612.5 885.3l162.7 13.4-57.7 298.5-130.7-13.1"/>
            <path class="st1" d="M744.3 1022.2l-134.3-5.7"/>
            <path class="st1" d="M667.3 1025.3l-13.2 156.4"/>
            <path class="st1" d="M635.7 494.9c9.6 0 166.3-76.8 166.3-76.8V303"/>
            <path class="st1" d="M1041 303v182.9c0 31-17.7 59.2-45.6 72.7L961.5 581l-.5.3"/>
            <path class="st1" d="M964.3 750.8c-2.6-7.8-3.1-83-2.8-169.8.5-127.6 2.8-280.1 2.8-280.1"/>
        </g>
    </g>
</svg>
