<svg xmlns="http://www.w3.org/2000/svg" viewBox="0 0 1920 1920">
    <style>
        .st0{fill:#fff}.st1{fill:none;stroke:#231f20;stroke-width:50;stroke-linecap:round;stroke-linejoin:round;stroke-miterlimit:10}
    </style>
    <path class="st0" d="M1571.5 720.5c0-51.7-54.6-93.5-122-93.5s-122 41.9-122 93.5c0-51.7-54.6-93.5-122-93.5-66.8 0-121.1 41.2-122 92.3-.8-51.1-55.1-92.3-122-92.3h-3.2c-66.9 0-121.1 41.2-122 92.3-.8-51.1-55.1-92.3-122-92.3-67.4 0-122 41.9-122 93.5 0-51.7-54.6-93.5-122-93.5s-122 41.9-122 93.5c0-236 272.4-503.6 608.4-503.6h6.3c336.1 0 608.5 267.6 608.5 503.6z" id="Layer_4"/>
    <path class="st0" d="M1223.7 1205.7v497.4H696.3v-497.4h527.3z" id="Layer_5"/>
    <g id="STROKES">
        <path class="st1" d="M836.4 720.5v-1.2c-.8-51.1-55.1-92.3-122-92.3-67.4 0-122 41.9-122 93.5"/>
        <path class="st1" d="M348.5 720.5c0-51.7 54.6-93.5 122-93.5s122 41.9 122 93.5c0 0 0 95 204.1 485.2"/>
        <path class="st1" d="M1327.6 720.5s0 95-204.1 485.2"/>
        <path class="st1" d="M960 627h-1.7c-66.9 0-121.1 41.2-122 92.3v1.2"/>
        <path class="st1" d="M1571.5 720.5c0-51.7-54.6-93.5-122-93.5s-122 41.9-122 93.5"/>
        <path class="st1" d="M960 627h1.7c66.9 0 121.1 41.2 122 92.3v1.2"/>
        <path class="st1" d="M1083.6 720.5v-1.2c.8-51.1 55.1-92.3 122-92.3 67.4 0 122 41.9 122 93.5"/>
        <path class="st1" d="M1571.5 720.5c0-236-272.4-503.6-608.4-503.6h-6.3c-336 0-608.4 267.6-608.4 503.6"/>
        <path class="st1" d="M960 1205.7h263.7v497.4H696.3v-497.4H960"/>
        <path class="st1" d="M696.3 1205.7S348.5 815.5 348.5 720.5"/>
        <path class="st1" d="M836.4 720.5s9.5 267 61.8 485.2"/>
        <path class="st1" d="M1083.6 720.5s-9.5 267-61.8 485.2"/>
        <path class="st1" d="M1223.6 1205.7s347.8-390.2 347.8-485.2"/>
    </g>
</svg>
