<svg xmlns="http://www.w3.org/2000/svg" viewBox="0 0 1920 1920">
    <style>
        .st0{fill:#fff}.st1{fill:none;stroke:#231f20;stroke-width:50;stroke-linecap:round;stroke-linejoin:round;stroke-miterlimit:10}
    </style>
    <path class="st0" d="M311 611.1c15 102.7 35.2 159.3 52.2 190.4 0 0-87.5 31.6-127.1-12.6l-12.4-20.5c-4.3-10.9-6.7-24.2-6.7-40.6 0-126.5 91.5-203 91.5-203h.4c-3.1 25.1-2.7 53.6 2.1 86.3zm224.8-256.4c-2-.1-204.9-11.2-227 170.2-3 24.9-2.6 53.5 2.1 86.2 15 102.7 35.2 159.3 52.2 190.4 18.3 33.6 32.8 37.3 32.8 37.3s111.7 62.7 223.9-46.1c-24.6-45.4-58.2-155.7-85-379.5-2.6-21.6-2.1-41 1-58.5zm1075.8 170.2h-.4c3 24.9 2.6 53.5-2.2 86.2-15.2 104-35.7 160.7-52.8 191.5 0 0 90.1 31.8 129.2-15.3l8.3-12.8c5.9-11.9 9.4-27.1 9.4-46.7 0-126.4-91.5-202.9-91.5-202.9zm-227.4-170.2c3.1 17.4 3.6 36.9 1 58.6-26.9 223.8-60.4 334.1-85 379.5 31.6 30.7 63.2 47.7 92.3 56.4 74 22 131.6-10.3 131.6-10.3s14.1-3.7 32.1-36.2c17.1-30.8 37.6-87.5 52.8-191.5 4.8-32.7 5.2-61.3 2.2-86.2-22.1-181.5-225-170.4-227-170.3zm-343.6-119.8C990.4 258 960 298.1 960 341.2v378c0 78.8 85.1 144.4 193.7 147.8 84.1 2.6 124.9-34.6 146.4-74.2 24.6-45.4 58.2-155.7 85-379.5 2.6-21.7 2.1-41.1-1-58.6-28.9-162.5-283.6-148.8-343.5-119.8zM960 341.2c0-43.1-30.4-83.2-80.6-106.3-60-29.1-314.6-42.7-343.6 119.8-3.1 17.4-3.6 36.9-1 58.6 26.9 223.8 60.4 334.1 85 379.5 21.5 39.7 62.3 76.8 146.4 74.2C874.9 863.6 960 798 960 719.2v-378z" id="Layer_3"/>
    <g id="STROKES">
        <path class="st1" d="M308.5 524.9s-91.5 76.5-91.5 203c0 16.4 2.4 29.7 6.7 40.6 3.2 8.2 7.4 14.9 12.4 20.5 39.6 44.2 127.1 12.6 127.1 12.6"/>
        <path class="st1" d="M535.8 354.7c-2-.1-205-11.2-227 170.2-3 24.9-2.6 53.5 2.1 86.2 15 102.7 35.2 159.3 52.2 190.4 18.3 33.6 32.8 37.3 32.8 37.3s111.7 62.7 223.9-46.1"/>
        <path class="st1" d="M960 341.2c0-43.1-30.4-83.2-80.6-106.3"/>
        <path class="st1" d="M879.4 234.9c-60-29.1-314.6-42.7-343.6 119.8-3.1 17.4-3.6 36.9-1 58.6 26.9 223.8 60.4 334.1 85 379.5 21.5 39.7 62.3 76.8 146.4 74.2C874.9 863.6 960 798 960 719.2"/>
        <path class="st1" d="M1611.6 524.9s91.5 76.5 91.5 203c0 19.5-3.5 34.8-9.4 46.7-2.4 4.8-5.2 9-8.3 12.8-39 47.1-129.2 15.3-129.2 15.3"/>
        <path class="st1" d="M1384.2 354.7c2-.1 204.9-11.2 227 170.2 3 24.9 2.6 53.5-2.2 86.2-15.2 104-35.7 160.7-52.8 191.5-18 32.5-32.1 36.2-32.1 36.2s-57.6 32.3-131.6 10.3c-29.1-8.7-60.7-25.7-92.3-56.4"/>
        <path class="st1" d="M1040.6 234.9c60-29.1 314.6-42.7 343.6 119.8 3.1 17.4 3.6 36.9 1 58.6-26.9 223.8-60.4 334.1-85 379.5-21.5 39.7-62.3 76.8-146.4 74.2-108.7-3.4-193.8-69-193.8-147.8v-378c0-43.1 30.4-83.2 80.6-106.3"/>
        <path class="st1" d="M221.6 765l2.1 3.5 12.4 20.4 483.7 797.8"/>
        <path class="st1" d="M773.8 1453.4c0-12-275.2-596.6-275.2-596.6"/>
        <path class="st1" d="M1699.8 765l-6.2 9.5-8.2 12.8-517.7 799.4"/>
        <path class="st1" d="M1113.7 1453.4c0-12 278.7-604.3 278.7-604.3"/>
    </g>
</svg>
