<svg xmlns="http://www.w3.org/2000/svg" viewBox="0 0 1920 1920">
    <style>
        .st0{fill:#fff}.st1{fill:none;stroke:#231f20;stroke-width:50;stroke-linecap:round;stroke-linejoin:round;stroke-miterlimit:10}
    </style>
    <path class="st0" d="M1234.4 1283.3s131.5 68.5 107.4 416.3L216.5 1703v-540.1l169.6-251.5h-74.9L414.6 786c9.7-11.7.7-29.3-14.5-28.4l-62.1 3.9L444.8 652c11.2-11.5 2.1-30.8-13.9-29.4l-58.1 5.1c85.6-139.1 481.7-382.7 690.4-409.4 208.7-26.8 441.5 72.2 484.3 147.2 2.4 4.2 4.5 8.2 6.5 12-44.4-48-85.5 15.3-143-14.7-61.6-32.1-69.6 2.7-238.2-24.1C1004.3 312 908 472.5 908 480.6c0 114.3 48.2 125.8 24.1 254.2-19.7 105.2 149.1 210.4 210.8 245 13.6 7.6 22 11.8 22 11.8l142.6 231.2c14.5 23.6-.8 54.2-28.4 56.6l-44.7 3.9z" id="Layer_5"/>
    <path class="st0" d="M908 480.6c0-8 96.3-168.6 264.9-141.8 168.6 26.8 176.6-8 238.2 24.1 21.4 40.1-5.4 58.9-24.1 104.4-18.7 45.5 32 113.7 32 113.7-58.9 26.1-173.2 59.9-136.4 127.2 0 0-118.4 76.5-139.8 271.8-61.7-34.6-230.5-139.8-210.8-245 24.1-128.7-24-140.1-24-254.4zm187.3 7.4c0 26.3 21.3 47.6 47.5 47.6s47.6-21.3 47.6-47.6-21.3-47.6-47.6-47.6-47.5 21.3-47.5 47.6z" id="Layer_6"/>
    <path class="st0" d="M1563.6 467.2c323.8 374.6-16.1 666.3-16.1 666.3s21.2-96.4 22.7-205.8c.3-22.1-12.6-42.2-32.8-51-48.1-21-138.1-63.5-174.5-101.8 0 0 29.4 160.6 66.9 176.6l72.2 24.1s-123.1 182-337.2 16.1c0 0-8.4-4.2-22-11.8 21.4-195.3 139.8-271.8 139.8-271.8-36.9-67.2 77.5-101.1 136.4-127.2 13.8-6.1 24.5-11.8 29.5-17.3 26.8-29.5 115.1-96.4 115.1-96.4z" id="Layer_2"/>
    <path class="st0" d="M1411 362.8c57.4 30 98.6-33.3 143 14.7 33.4 65.8 9.5 89.6 9.5 89.6s-88.3 66.9-115.1 96.3c-5.1 5.6-15.8 11.2-29.5 17.3 0 0-50.7-68.2-32-113.7 18.8-45.3 45.5-64 24.1-104.2z" id="Layer_7"/>
    <circle class="st0" cx="1142.8" cy="488" r="47.5" id="Layer_8"/>
    <g id="STROKES">
        <path class="st1" d="M1142.8 979.8c-61.7-34.6-230.5-139.8-210.8-245 24.1-128.5-24-139.9-24-254.2 0-8 96.3-168.6 264.9-141.8 168.6 26.8 176.6-8 238.2 24.1 57.4 30 98.6-33.3 143 14.7"/>
        <path class="st1" d="M1554 377.5c-2-3.9-4.1-7.9-6.5-12-42.8-74.9-275.6-173.9-484.3-147.2-208.7 26.8-604.8 270.3-690.4 409.4l58.1-5.1c16-1.4 25.2 17.9 13.9 29.4L338 761.5l62.1-3.9c15.2-1 24.2 16.6 14.5 28.4L311.2 911.4h74.9l-169.6 251.5V1703l1125.3-3.4c24.1-347.9-107.4-416.3-107.4-416.3l44.6-3.9c27.6-2.4 43-33 28.4-56.6l-142.6-231.2s-8.4-4.2-22-11.8"/>
        <path class="st1" d="M1164.8 991.7c214.1 165.9 337.2-16.1 337.2-16.1l-72.2-24.1c-37.5-16.1-66.9-176.6-66.9-176.6 36.4 38.3 126.4 80.8 174.5 101.8 20.2 8.8 33.1 29 32.8 51-1.5 109.3-22.7 205.8-22.7 205.8s339.8-291.7 16.1-666.3c0 0 23.9-23.9-9.5-89.6"/>
        <path class="st1" d="M1467.2 451.1l32.1-18.7"/>
        <path class="st1" d="M1563.6 467.2s-88.3 66.9-115.1 96.3c-5.1 5.6-15.8 11.2-29.5 17.3-58.9 26.1-173.2 59.9-136.4 127.2 0 0-118.4 76.5-139.8 271.8"/>
        <circle class="st1" cx="1142.8" cy="488" r="47.5"/>
        <path class="st1" d="M1419 580.8s-50.7-68.2-32-113.7c18.7-45.5 45.5-64.2 24.1-104.4"/>
    </g>
</svg>
