<svg xmlns="http://www.w3.org/2000/svg" viewBox="0 0 1920 1920">
    <style>
        .st0{fill:#fff}.st1{fill:none;stroke:#231f20;stroke-width:50;stroke-linecap:round;stroke-linejoin:round;stroke-miterlimit:10}
    </style>
    <path class="st0" d="M1473.6 294.8c-2.7 21.4 64.2 104.4 64.2 104.4l46.2-118c-9.2 33.8 34.1 118 34.1 118 2.7-34.3 57.4-157.3 58.8-160.5-.4 2.7-15.9 94.6-8 163.2 8 69.6-48.2 471-61.5 508.4-13.3 37.3-131.5 246-132.4 247.7 85.6 8.4 119.7 10.1 145.8 11.9 40.1 2.7 58.9 26.8 42.8 42.8-45.2 12.7-80.6 91-99.4 102-2.5 0-5-.2-7.6-.3-37.5-2.7-58.9 85.6-206 58.9 0 0-227.5-26.8-313.1-58.9-85.3-32-468.3 100.8-471 101.7l42.8-82.9-329.1 85.6 109.7-83-176.6-50.8s465.6-18.7 540.5-48.2c55.4-21.8 191.2-80 353.3-98.2l-.1-.8c-187.3-18.8-163.2-166-131.1-219.5 4.1-6.9 72.2-101.7 72.2-101.7s-85.6-93.7-93.7-96.3c-8-2.7 120.4-13.4 120.4-13.4L973.2 511.5l101.7 29.4-96.3-259.6 192.7 206-18.7-163.2c65.7 53.1 117.1 169.6 154.8 295.3 24-128.3 166.2-324.6 166.2-324.6z" id="Layer_3"/>
    <path class="st0" d="M1663.6 1212.7c27.8-4.3 78 108.2 0 147.2l-45.5-56.2s-20.8 11.6-53.9 11c18.8-11 54.2-89.4 99.4-102z" id="Layer_4"/>
    <g id="STROKES">
        <path class="st1" d="M566.5 1416l42.8-82.9-329.1 85.6 109.7-83-176.6-50.8s465.6-18.7 540.5-48.2c55.4-21.8 191.2-80 353.3-98.2 6.1-.7 12.3-1.3 18.5-1.9"/>
        <path class="st1" d="M1406.7 1151c25.9 2.7 48.4 5 68.2 7 85.6 8.4 119.7 10.1 145.8 11.9 40.1 2.7 58.9 26.8 42.8 42.8 27.8-4.3 78 108.2 0 147.2l-45.5-56.2s-20.8 11.6-53.9 11c-2.5 0-5-.2-7.6-.3-37.5-2.7-58.9 85.6-206 58.9 0 0-227.5-26.8-313.1-58.9-85.3-32-468.3 100.8-471 101.7"/>
        <path class="st1" d="M1417.4 1212.7s-42.8-85.6-32.1-141.8c6.5-34.3-18.9-254.2-78-451.3-37.7-125.7-89.2-242.2-154.8-295.3l18.7 163.2-192.7-206 96.3 259.6-101.7-29.4 101.7 195.4s-128.5 10.7-120.4 13.4c8 2.7 93.7 96.3 93.7 96.3s-68.1 94.8-72.2 101.7c-32.1 53.5-56.2 200.7 131.1 219.4"/>
        <path class="st1" d="M1584 281.2l-46.2 118s-66.9-83-64.2-104.4c0 0-142.2 196.3-166.3 324.7"/>
        <path class="st1" d="M1584 281.2c.5-1.9 1.2-3.6 2-5.1l-2 5.1z"/>
        <path class="st1" d="M1677 238.7c-1.4 3.2-56.2 126.2-58.8 160.5 0 0-43.3-84.2-34.1-118"/>
        <path class="st1" d="M1475 1158c1-1.7 119.1-210.4 132.4-247.7 13.4-37.5 69.6-438.9 61.5-508.4-7.9-68.5 7.6-160.4 8-163.2"/>
        <path class="st1" d="M1556.6 1314.3c2.1 2.1 4.7 2.1 7.6.3 18.8-11 54.2-89.3 99.4-102"/>
    </g>
</svg>
