<svg xmlns="http://www.w3.org/2000/svg" viewBox="0 0 1920 1920">
    <style>
        .st0{fill:#fff}.st1{fill:none;stroke:#000;stroke-width:50;stroke-linecap:round;stroke-linejoin:round;stroke-miterlimit:10}
    </style>
    <path class="st0" d="M1401.6 1510.1L960 347.8 518.4 1510.1l-8.5 22.2c0 63.4 201.5 170.7 450 170.7s450-107.3 450-170.7l-8.3-22.2z" id="Layer_12"/>
    <path class="st0" d="M960 217c-32.7 0-59.3 26.5-59.3 59.3 0 32.7 26.5 59.2 59.3 59.2s59.3-26.5 59.3-59.2c0-32.8-26.6-59.3-59.3-59.3z" id="Layer_13"/>
    <g id="STROKES">
        <path class="st1" d="M1410 1532.3c0 63.4-201.5 170.7-450 170.7s-450-107.3-450-170.7l8.5-22.2L960 347.8l441.6 1162.3 8.4 22.2z"/>
        <circle class="st1" cx="960" cy="276.3" r="59.3"/>
    </g>
</svg>
