<svg xmlns="http://www.w3.org/2000/svg" viewBox="0 0 1920 1920">
    <style>
        .st0{fill:#fff}.st1{fill:none;stroke:#000;stroke-width:50;stroke-linecap:round;stroke-linejoin:round;stroke-miterlimit:10}
    </style>
    <path class="st0" d="M1151 936.7l-78.5-198.9c-167.1 320.3-418.2 385.6-482.9 397.3l-88.1 223.2c77.1-5 434.5-48 649.5-421.6zm-155.5-394l-8.9-22.5L938.4 398c-10.4-26.2-47.5-26.2-57.9 0l-48.2 122.2-114.4 289.9c52.7-29.8 203.5-124.3 277.6-267.4zm248.7 630.1c-79.1 199.5-282.3 282-417.1 315.4-1.4.4-2.9.7-4.3 1.1 1.4.1 2.8.1 4.1.2 28.9 1.5 58.4 2.3 88.1 2.3 38.1 0 75.2-1.1 111.2-3.1 64.8-3.7 125.6-10.6 180.4-20 53.1-9.2 100.6-20.8 140.7-34.2l-103.1-261.7z" id="Layer_2"/>
    <path class="st0" d="M1072.5 737.8l-77-195.1c-74.1 143.1-224.9 237.6-277.6 267.4l-128.3 325c64.7-11.8 315.8-77 482.9-397.3zm78.5 198.9c-215 373.7-572.4 416.7-649.5 421.6l-28.1 71.2c42.8 14.4 95.3 27.4 154.3 37.8 59.7 10.5 125.9 18.3 195.2 22 1.4-.3 2.8-.7 4.3-1.1 134.7-33.4 338-115.9 417.1-315.4L1151 936.7z" id="Layer_3"/>
    <path class="st0" d="M909.5 217C820.3 217 748 289.2 748 378.4c0 61.2 34.1 114.5 84.3 141.8L880.5 398c10.4-26.2 47.5-26.2 57.9 0l48.2 122.2c50.2-27.4 84.3-80.6 84.3-141.8 0-89.2-72.3-161.4-161.4-161.4z" id="Layer_4"/>
    <path class="st0" d="M419.6 1565.7c-2.3 5.9-3.4 12.1-3.4 18.1 0 15.8 7.5 31 21.1 40.4 27.5 19 75.5 35.7 137.9 48.9l52.5-205.8c-59-10.4-111.5-23.4-154.3-37.8l-53.8 136.2zm606.7-77.1c-36 2.1-73.2 3.1-111.2 3.1-29.7 0-59.2-.8-88.1-2.3l-24.3 210.9c34.4 1.8 70.1 2.7 106.7 2.7 46.2 0 90.9-1.5 133.4-4.2l-16.5-210.2zm373 77.1l-51.8-131.3c-40.1 13.5-87.6 25.1-140.7 34.2l48.3 202c56.9-12.8 100.8-28.6 126.6-46.4 18.8-13 26-37.3 17.6-58.5z" id="Layer_5"/>
    <path class="st0" d="M822.9 1489.3c-69.3-3.8-135.6-11.5-195.2-22l-52.5 205.8c63.2 13.3 141.2 22.9 227.6 27.3l24.3-210.9c-1.4-.1-2.8-.1-4.2-.2zm383.9-20.7c-54.9 9.5-115.7 16.3-180.4 20l16.5 210.2c80.9-5.2 153.5-15.1 212.3-28.2l-48.4-202z" id="Layer_6"/>
    <g id="STROKES">
        <path class="st1" d="M1070.9 378.4c0 61.2-34.1 114.5-84.3 141.8L938.4 398c-10.4-26.2-47.5-26.2-57.9 0l-48.2 122.2c-50.2-27.4-84.3-80.6-84.3-141.8 0-89.2 72.3-161.4 161.4-161.4 89.2 0 161.5 72.2 161.5 161.4z"/>
        <path class="st1" d="M627.7 1467.3l-52.5 205.8c-62.4-13.2-110.4-29.9-137.9-48.9-13.6-9.3-21.1-24.6-21.1-40.4 0-6.1 1.1-12.2 3.4-18.1l53.8-136.2c42.7 14.4 95.3 27.4 154.3 37.8z"/>
        <path class="st1" d="M827 1489.5l-24.3 210.9c-86.4-4.4-164.4-14-227.6-27.3l52.5-205.8c59.7 10.5 125.9 18.3 195.2 22 1.5.1 2.9.1 4.2.2z"/>
        <path class="st1" d="M1042.8 1698.8c-42.4 2.7-87.2 4.2-133.4 4.2-36.6 0-72.3-.9-106.7-2.7l24.3-210.9c28.9 1.5 58.4 2.3 88.1 2.3 38.1 0 75.2-1.1 111.2-3.1l16.5 210.2z"/>
        <path class="st1" d="M1347.5 1434.4c-40.1 13.5-87.6 25.1-140.7 34.2-54.9 9.5-115.7 16.3-180.4 20-36 2.1-73.2 3.1-111.2 3.1-29.7 0-59.2-.8-88.1-2.3l.1-1.3c134.7-33.4 338-115.9 417.1-315.4l103.2 261.7z"/>
        <path class="st1" d="M1244.2 1172.8c-79.1 199.5-282.3 282-417.1 315.4-1.4.4-2.9.7-4.3 1.1-69.3-3.8-135.6-11.5-195.2-22-59-10.4-111.5-23.4-154.3-37.8l28.1-71.2c77.1-4.9 434.5-47.9 649.5-421.6l93.3 236.1z"/>
        <path class="st1" d="M827.2 1488.2l-.1 1.3c-1.4-.1-2.8-.1-4.1-.2 1.3-.4 2.7-.7 4.2-1.1z"/>
        <path class="st1" d="M1072.5 737.8c-167.1 320.3-418.2 385.6-482.9 397.3l128.3-325c52.7-29.8 203.5-124.3 277.6-267.4l77 195.1z"/>
        <path class="st1" d="M995.5 542.7c-74.1 143.1-224.9 237.6-277.6 267.4l114.4-289.9L880.5 398c10.4-26.2 47.5-26.2 57.9 0l48.2 122.2 8.9 22.5z"/>
        <path class="st1" d="M1151 936.7c-215 373.7-572.4 416.7-649.5 421.6l88.1-223.2c64.7-11.8 315.8-77 482.9-397.3l78.5 198.9z"/>
        <path class="st1" d="M1255.1 1670.6c-58.8 13.2-131.4 23-212.3 28.2l-16.5-210.2c64.8-3.7 125.6-10.6 180.4-20l48.4 202z"/>
        <path class="st1" d="M1381.7 1624.2c-25.8 17.8-69.7 33.7-126.6 46.4l-48.3-202c53.1-9.2 100.6-20.8 140.7-34.2l51.8 131.3c8.4 21.2 1.2 45.5-17.6 58.5z"/>
    </g>
</svg>
