<svg xmlns="http://www.w3.org/2000/svg" viewBox="0 0 1920 1920">
    <style>
        .st0{fill:#fff}.st1{fill:none;stroke:#231f20;stroke-width:50;stroke-linecap:round;stroke-linejoin:round;stroke-miterlimit:10}
    </style>
    <path class="st0" d="M1428 967v736.1H492V960h936v7zm-531 518v-316H595v316h302zM492 216.9v743h936v-743H492z" id="Layer_9"/>
    <path class="st0" d="M787.1 1417h-76c-64 0-58 68-58 68H595v-316h302v316h-57.9c0-16-18-68-52-68zm15.8-116c0-31.4-25.5-56.9-56.9-56.9s-56.9 25.5-56.9 56.9 25.5 56.9 56.9 56.9 56.9-25.4 56.9-56.9z" id="Layer_10"/>
    <path class="st0" d="M653.1 1485s-6-68 58-68h76c34 0 52 52 52 68h-186zm36-184c0 31.4 25.5 56.9 56.9 56.9s56.9-25.5 56.9-56.9-25.5-56.9-56.9-56.9-56.9 25.5-56.9 56.9z" id="Layer_11"/>
    <g id="STROKES">
        <path class="st1" d="M492 960V216.9h936v1486.2H492V971z"/>
        <path class="st1" d="M495 960h930"/>
        <path class="st1" d="M653.1 1485H595v-316h302v316h-57.9z"/>
        <path class="st1" d="M999 1169h108"/>
        <path class="st1" d="M579 1072.3h336"/>
        <path class="st1" d="M999 1271.9h224"/>
        <path class="st1" d="M999 1374.8h338"/>
        <path class="st1" d="M999 1477.7h338"/>
        <path class="st1" d="M587 1597h750"/>
        <path class="st1" d="M1212 1169h108"/>
        <path class="st1" d="M802.9 1301c0 31.4-25.5 56.9-56.9 56.9s-56.9-25.5-56.9-56.9 25.5-56.9 56.9-56.9 56.9 25.5 56.9 56.9z"/>
        <path class="st1" d="M653.1 1485s-6-68 58-68h76c34 0 52 52 52 68"/>
    </g>
</svg>
