<svg xmlns="http://www.w3.org/2000/svg" viewBox="0 0 1920 1920">
    <style>
        .st0{fill:#fff}.st1{fill:none;stroke:#231f20;stroke-width:50;stroke-linecap:round;stroke-linejoin:round;stroke-miterlimit:10}
    </style>
    <g id="Layer_7">
        <path class="st0" d="M629.2 1177c9.6 2.8 12.9 14.8 6 22.1l-57.1 60.7c-6.9 7.4-19.2 4.7-22.5-4.8l-29.9-86.4c-3.6-10.3 6-20.4 16.5-17.3l87 25.7z"/>
        <path class="st0" d="M1384 913.7c-.1-10.9 12.3-17.4 21.2-11.1l74.7 52.7c8.3 5.8 7.4 18.3-1.6 23l-74.1 38.1c-8.9 4.6-19.5-1.9-19.6-11.9l-.6-90.8z"/>
        <path class="st0" d="M1327.6 604c36.9-10.8 75.5 10.5 86.3 47.4 10.8 36.9-10.5 75.5-47.4 86.3-36.9 10.8-75.5-10.5-86.3-47.4-10.8-36.9 10.5-75.5 47.4-86.3z"/>
        <path class="st0" d="M1148.8 740.7l1.8 57.8-147.4 4.3-1.7-57.7 72.6-18.7z"/>
        <path class="st0" d="M548.8 903.4c5.7 19.5-19.6 44.1-56.5 54.9-36.9 10.8-71.4 3.6-77.1-15.9-5.7-19.5 19.6-44.1 56.5-54.8s71.4-3.8 77.1 15.8z"/>
    </g>
    <path class="st0" d="M1235.3 835.8c151.7-38.1 286.7-38.4 288.2-38.4l81.5 279.8s-354.7.3-561.6 161.6L962 959.1v-.1c78.8-61.5 179.3-99.7 273.3-123.2zm149.3 168.7c.1 10 10.7 16.5 19.6 11.9l74.1-38.1c9-4.6 9.9-17.1 1.6-23l-74.7-52.7c-8.9-6.3-21.3.1-21.2 11.1l.6 90.8zm138.9-207.1c-1.4 0-136.5.3-288.2 38.4l-81.4-279.4-.4-1.5c152.5-38.2 288.1-38.4 288.1-38.4l81.9 280.9zm-243.3-107.1c10.8 36.9 49.4 58.1 86.3 47.4 36.9-10.8 58.1-49.4 47.4-86.3-10.8-36.9-49.4-58.1-86.3-47.4-36.9 10.8-58.2 49.4-47.4 86.3zm-126.3-134l81.4 279.4c-94 23.6-194.5 61.7-273.4 123.2l-81.8-280.7v-.1c78.9-61.5 179.4-99.7 273.5-123.2l.3 1.4zm-3.3 242.2l-1.7-57.8-74.8-14.3-72.6 18.7 1.7 57.8 147.4-4.4zm245.5-438.3s-107.6.1-238.9 27.1c-107.1 22.1-230 62.1-323 134.7h.4L880 678c78.9-61.5 179.4-99.7 273.5-123.2 152.5-38.2 288.1-38.4 288.1-38.4l-45.5-156.2zm-352.7 878.7l52.2 179.2c206.9-161.3 561.6-161.6 561.6-161.6l-52.2-179.4s-354.7.3-561.6 161.6v.2zm-.7.3l-.1-.5C781.5 1214 482.5 1404 482.5 1404l-.4.1 52.2 179.4s299.4-190.2 560.5-165.2l-52.1-179.1zm-377.9-237.3c91.9-30.5 196.9-52.3 296.4-42.9l.1.5 81.4 279.3c-261.1-24.7-560.1 165.3-560.1 165.3l-.4.1-81.5-279.8.4-.1s114.5-72.7 263.7-122.4zM555.5 1255c3.3 9.6 15.6 12.2 22.5 4.8l57.1-60.7c6.9-7.3 3.6-19.3-6-22.1l-87-25.8c-10.5-3.1-20.1 6.9-16.5 17.3l29.9 86.5zm323.8-576.8c-99.5-9.4-204.5 12.4-296.4 42.9l.5 1.4 81.4 279.4c91.9-30.5 196.9-52.3 296.4-42.9l-81.7-280.4-.2-.4zm-45.1-156.1c-96-9.3-197.1 10.6-286.7 39.4C393.3 611 273.3 687.2 273.3 687.2l45.5 156.3.4-.1s114.5-72.7 263.7-122.3c91.9-30.6 196.9-52.3 296.4-42.9l-45.4-155.8c.1-.2.2-.3.3-.3zm-419 420.2c5.7 19.5 40.2 26.7 77.1 15.9 36.9-10.8 62.2-35.3 56.5-54.9-5.7-19.5-40.2-26.7-77.1-15.9s-62.2 35.4-56.5 54.9zm-96-98.9s114.5-72.7 263.7-122.3l.5 1.4 81.4 279.4c-149.2 49.6-263.7 122.4-263.7 122.4l-.4.1-81.8-280.9.3-.1z" id="Layer_8"/>
    <path class="st0" d="M1395.8 317.7c22.8-6.8 46.7 6.3 53.4 29.1l252.9 868.1c6.6 22.8-6.4 46.6-29.2 53.2L525.2 1602.4c-22.7 6.6-46.5-6.4-53.2-29.2L218 701.1c-6.6-22.8 6.4-46.6 29.2-53.2l300.1-87.4.3.9C393.3 611 273.3 687.2 273.3 687.2l45.5 156.3 81.8 280.9 81.5 279.8 52.2 179.4s299.4-190.2 560.5-165.2l.1.3.3-.3h.4l-.1-.3c206.9-161.3 561.6-161.6 561.6-161.6l-52.2-179.4-81.5-279.8-81.8-280.9-45.5-156.3s-107.6.1-238.9 27.1c34-9 169.4-49 238.6-69.5z" id="Layer_2"/>
    <g id="STROKES">
        <g id="XMLID_2_">
            <path class="st1" d="M880.1 678.1l-45.4-156h-.4c-96-9.3-197.1 10.6-286.7 39.4C393.3 611 273.3 687.2 273.3 687.2l45.5 156.3 81.8 280.9 81.5 279.8 52.2 179.4s299.4-190.2 560.5-165.2h.8l-.1-.3-52.2-179.2v-.1L962 959.1v-.1l-81.8-280.7-.1-.2z"/>
            <path class="st1" d="M1523.5 797.4l81.5 279.8 52.2 179.4s-354.7.3-561.6 161.6c-.1.1-.2.2-.3.2l-.3.3-.1-.3-52.2-179.1-.1-.5-81.4-279.3-.1-.5-81.7-280.4-.1-.5-45.4-155.8.3-.3c93-72.6 215.8-112.6 323-134.7"/>
            <path class="st1" d="M1157.2 387.3c131.3-27 238.9-27.1 238.9-27.1l45.5 156.3 81.8 280.9"/>
            <path class="st1" d="M879.4 678.6c.2-.1.3-.3.5-.4 0 0 .1-.1.2-.1 78.9-61.5 179.4-99.7 273.5-123.2 152.5-38.2 288.1-38.4 288.1-38.4"/>
            <path class="st1" d="M961.2 959.5c.2-.1.3-.3.5-.4l.1-.1c78.9-61.5 179.4-99.6 273.4-123.2 151.7-38.1 286.7-38.4 288.2-38.4"/>
            <path class="st1" d="M1042.7 1239.2c.2-.1.3-.3.5-.4.1 0 .1-.1.2-.1 206.9-161.3 561.6-161.6 561.6-161.6"/>
            <path class="st1" d="M1219.6 478.2c34.3-6.1 66.4-10.4 94.5-13.4"/>
            <path class="st1" d="M931.4 574.1c29.9-16.7 61.5-31 93.5-43.3"/>
            <path class="st1" d="M1153.9 556.3l81.4 279.5 80.6 276.6"/>
            <path class="st1" d="M1366.5 737.7c-36.9 10.8-75.5-10.5-86.3-47.4-10.8-36.9 10.5-75.5 47.4-86.3 36.9-10.8 75.5 10.5 86.3 47.4 10.7 36.9-10.5 75.5-47.4 86.3z"/>
            <path class="st1" d="M1384.6 1004.5l-.6-90.8c-.1-10.9 12.3-17.4 21.2-11.1l74.7 52.7c8.3 5.8 7.4 18.3-1.6 23l-74.1 38.1c-8.9 4.6-19.5-1.9-19.6-11.9z"/>
            <path class="st1" d="M1150.6 798.5l-147.4 4.3-1.7-57.7 72.6-18.7 74.7 14.3z"/>
            <path class="st1" d="M1009.5 856.6l143.8-4.3"/>
            <path class="st1" d="M1322.5 1232.1l32.9-9.5"/>
            <path class="st1" d="M880.6 678.3h-.6c-.2 0-.4 0-.6-.1-99.5-9.4-204.5 12.4-296.4 42.9-149.2 49.6-263.7 122.3-263.7 122.3"/>
            <path class="st1" d="M962.4 959.2h-.6c-.2 0-.4 0-.7-.1-99.5-9.4-204.5 12.4-296.4 42.9-149.2 49.6-263.7 122.4-263.7 122.4"/>
            <path class="st1" d="M1043.9 1238.9h-.7c-.2 0-.4 0-.7-.1-261.1-24.7-560.1 165.3-560.1 165.3"/>
            <path class="st1" d="M486 691.9c-32.3 13.3-61.6 26.9-86.9 39.4"/>
            <path class="st1" d="M780.6 618c-34.2 2-68.5 6.8-102.1 13.7"/>
            <path class="st1" d="M583.4 722.5l81.4 279.4 80.5 276.7"/>
            <path class="st1" d="M415.2 942.3c5.7 19.5 40.2 26.7 77.1 15.9 36.9-10.8 62.2-35.3 56.5-54.9-5.7-19.5-40.2-26.7-77.1-15.9s-62.2 35.4-56.5 54.9z"/>
            <path class="st1" d="M804.1 1383.2l-32.9 9.5"/>
            <path class="st1" d="M777.2 1069.7l113.3-4.2"/>
            <path class="st1" d="M781.5 1150.2l113.4-4.2"/>
            <path class="st1" d="M629.2 1177l-87-25.8c-10.5-3.1-20.1 6.9-16.5 17.3l29.9 86.4c3.3 9.6 15.6 12.2 22.5 4.8l57.1-60.7c6.8-7.1 3.6-19.1-6-22z"/>
            <path class="st1" d="M503.5 1259.4l35-44.6"/>
            <path class="st1" d="M588.4 1158.5l35-44.6"/>
            <path class="st1" d="M421.1 849.7s75.4-49 131.2-13.6"/>
            <path class="st1" d="M1149.4 389.2c.4 0 3.2-.6 7.8-1.9 34-9.1 169.3-49.1 238.6-69.6 22.8-6.8 46.7 6.3 53.4 29.1l252.9 868.1c6.6 22.8-6.4 46.6-29.2 53.2L525.2 1602.4c-22.7 6.6-46.5-6.4-53.2-29.2L218 701.1c-6.6-22.8 6.4-46.6 29.2-53.2l300.1-87.4"/>
        </g>
    </g>
</svg>
