<svg xmlns="http://www.w3.org/2000/svg" viewBox="0 0 1920 1920">
    <style>
        .st0{fill:#fff}.st1{fill:none;stroke:#231f20;stroke-width:50;stroke-linecap:round;stroke-linejoin:round;stroke-miterlimit:10}
    </style>
    <path class="st0" d="M1249.3 751.2s-68.7 120.3-66.3 186.5c2.5 66.3-149.7 91.2-149.7 91.2v-43.3c49.1-17.2 55-47.9 45.2-109.3-9.7-61.3 170.8-125.1 170.8-125.1zM906 1136.5l-51.8 93.3 68.7-22.1 37.1 88 39-88 68.7 22.1-51.8-93.3H906zm127.3 0v-98.2H883.6v98.2h149.7zm0-150.9v-23.4H883.5v76.1h149.7v-52.7zM856.6 729.1c0 55.6 45 100.6 100.6 100.6s100.6-45.1 100.6-100.6c0-55.6-45-100.6-100.6-100.6s-100.6 45-100.6 100.6zm100.6 37c-20.4 0-37-16.6-37-37s16.6-37 37-37 37 16.6 37 37c.1 20.4-16.5 37-37 37zm-62 130.5l51.5 6.7v58.9h67.6s40.4-110.5-35.7-122.7c-76.1-12.3-83.4 57.1-83.4 57.1zm25-167.5c0 20.5 16.6 37 37 37s37-16.6 37-37-16.6-37-37-37-37 16.5-37 37zm-76.9 147.2c9.8-61.4-170.8-125.2-170.8-125.2s68.7 120.3 66.3 186.5c-2.5 66.3 144.8 91.2 144.8 91.2v-45.5c-46.7-17.2-49.9-46.6-40.3-107z" id="Layer_5"/>
    <path class="st0" d="M883.6 1092.4v44.1H906l-51.8 93.3 68.7-22.1 37.1 88 39-88 68.7 22.1-51.8-93.3h17.5v-107.6s152.2-25 149.7-91.2c-2.5-66.3 66.3-186.5 66.3-186.5s-180.6 63.8-170.8 125.2c9.8 61.4 3.9 92.1-45.2 109.3v-23.4h-19.1s40.4-110.5-35.7-122.7c-76.1-12.3-83.5 57.1-83.5 57.1l51.5 6.7v58.9h-63.1v21.2c-46.8-17.3-50-46.8-40.3-107.1C853 815 672.4 751.2 672.4 751.2s68.7 120.3 66.3 186.5c-2.5 66.3 144.8 91.2 144.8 91.2v63.5zm576.7-723.5v1281.2c0 29.2-23.7 52.9-52.9 52.9H459.7V316h947.7c29.2 0 52.9 23.7 52.9 52.9zm-213.8 1098.9v-74.7H682.8v74.7h563.7zm0-938.9v-74.7H682.8v74.7h563.7zm-188.6 200.2c0-55.6-45-100.6-100.6-100.6s-100.6 45.1-100.6 100.6c0 55.6 45 100.6 100.6 100.6s100.6-45.1 100.6-100.6zm-61 878.7v-74.7h-73.7v74.7h73.7zm322.4-1328.6V316H459.7l800.8-89.4c31.4-3.5 58.8 21 58.8 52.6z" id="Layer_6"/>
    <path class="st0" d="M1246.5 1393.1v74.7H682.8v-74.7h563.7zM682.8 454.2v74.7h563.7v-74.7H682.8zm240.3 1078.9v74.7h73.7v-74.7h-73.7z" id="Layer_8"/>
    <g id="STROKES">
        <g id="XMLID_1_">
            <path class="st1" d="M459.7 316l800.8-89.4c31.4-3.6 58.8 21 58.8 52.6V316"/>
            <path class="st1" d="M459.7 316v1387h947.6c29.2 0 52.9-23.7 52.9-52.9V368.9c0-29.2-23.7-52.9-52.9-52.9H459.7z"/>
            <path class="st1" d="M923.1 1533.1h73.7v74.7h-73.7z"/>
            <path class="st1" d="M682.8 1393.1h563.7v74.7H682.8z"/>
            <path class="st1" d="M682.8 454.2h563.7v74.7H682.8z"/>
            <path class="st1" d="M957.2 829.7c-55.6 0-100.6-45.1-100.6-100.6 0-55.6 45-100.6 100.6-100.6s100.6 45.1 100.6 100.6c.1 55.5-45 100.6-100.6 100.6z"/>
            <path class="st1" d="M957.2 692c20.4 0 37 16.6 37 37 0 20.5-16.6 37-37 37s-37-16.6-37-37 16.6-37 37-37z"/>
            <path class="st1" d="M1033.3 1087.9v48.6H883.6V962.2h149.7v76.1z"/>
            <path class="st1" d="M1015.6 1136l.3.5 51.8 93.3-68.7-22.1-39 88"/>
            <path class="st1" d="M1033.3 1087.9l112.9 53.5"/>
            <path class="st1" d="M883.6 1092.4L767 1149"/>
            <path class="st1" d="M1227.2 1018.7l-85.9 154.6"/>
            <path class="st1" d="M1033.3 1028.9s152.2-25 149.7-91.2c-2.5-66.3 66.3-186.5 66.3-186.5s-180.6 63.8-170.8 125.2c9.8 61.4 3.9 92.1-45.2 109.3"/>
            <path class="st1" d="M906 1136.5l-51.8 93.3 68.7-22.1 37.1 88"/>
            <path class="st1" d="M694.6 1018.7l51.5 92.7L767 1149l13.5 24.3"/>
            <path class="st1" d="M883.6 1028.9s-147.3-25-144.8-91.2c2.5-66.3-66.3-186.5-66.3-186.5S853.1 815 843.3 876.3c-9.6 60.3-6.4 89.8 40.3 107.1"/>
            <path class="st1" d="M1014.3 962.2s40.4-110.5-35.7-122.7c-76.1-12.3-83.5 57.1-83.5 57.1l51.5 6.7v58.9"/>
            <path class="st1" d="M883.6 1038.3h149.7"/>
            <path class="st1" d="M653.9 1081.4l37.3 35.5 54.9-5.5 1.1-.1 26.1-43"/>
            <path class="st1" d="M1169.1 1131.8l97-69.1"/>
        </g>
    </g>
</svg>
