<svg xmlns="http://www.w3.org/2000/svg" viewBox="0 0 1920 1920">
    <style>
        .st0{fill:#fff}.st1{fill:none;stroke:#231f20;stroke-width:50;stroke-linecap:round;stroke-linejoin:round;stroke-miterlimit:10}
    </style>
    <path class="st0" d="M1165.8 898.6c-10.2-64.4-31.9-131.8-76.3-176.5-6.9-7-14.4-13.5-22.5-19.2-.2-.1-.4-.3-.6-.4-20-14.2-43.6-24.5-71.5-29.2-20.5-3.5-43.4-4.1-68.8-1.1-241.9 28.2-263.9 222.2-263.9 291.6 0 15.4 1.1 24.6 1.1 24.6 44.2-46.6 82.8-74.7 82.8-74.7s-48 90 13.5 142.5c0 0-1.5-172.5 135-249 0 0 84-39 123-34.5L960 867.1c80.2-15 62.2 64.5 62.2 64.5s-12.8 90-144.4 36l-118.1 88.5s102-15 135 26.2c-32.3 8.3-42.7 66.7-42.7 66.7s9.6.6 17.1 8.1c4.8 4.8 8.7 12.5 8.7 24.7 0 19.1-9.7 49.4-40.8 97.2-50.8 78.1-147.6 234.5-229.5 424.1h415.2c1.9-34.7 3.6-74.8 4.5-101.2 1.5-45.5 10-90.4 25-133.3 28.9-82.4 70.8-222.8 96.3-309.7 16.1-55.1 24.4-112.1 24.4-169.2 0-30.4-2.3-60.9-7.1-91.1z" id="Layer_2"/>
    <path class="st0" d="M759.7 1056.1c-61.5-52.5-13.5-142.5-13.5-142.5s-38.6 28.2-82.8 74.7c-59.3 62.4-128.7 157.9-128.7 262.8 0 0 191.3-114.1 317.3-102.1 0 0 10.4-58.3 42.7-66.7-33-41.2-135-26.2-135-26.2z" id="Layer_4"/>
    <path class="st0" d="M894.7 807.1c-136.5 76.5-135 249-135 249l118.1-88.5s2-85.5 82.2-100.5l57.7-94.5c-39-4.5-123 34.5-123 34.5z" id="Layer_6"/>
    <path class="st0" d="M960 867.1c-80.2 15-82.2 100.5-82.2 100.5 131.6 54 144.4-36 144.4-36s18-79.5-62.2-64.5z" id="Layer_7"/>
    <path class="st0" d="M1337 340c-13-32-41-68-73-89s-67.2-9-67.2-9-29.8-25-96.8-25-117 37-135 56-46 12-87.2 22-27.8 65-12.8 75 29.7-8.4 29.7-8.4c25.4-17.2 82.1-12.4 115-8.5 10.9 1.3 19.3 2.5 22.9 2.8 7.7.6 15.3-1.2 22.8-2.7 17.7-3.7 35.8-5.2 53.8-5.3 11.8-.1 23.7.4 35.5 1.3 22.5 1.6 49 8.1 74.8 17.2 60 21.2 115.9 56.4 107.1 76.2l-.1.1c-1.4.9-17.4 12.2 27.4 32.3 46.8 21 37-16 40-60s-56.9-75-56.9-75z" id="Layer_8"/>
    <g id="STROKES">
        <path class="st1" d="M534.7 1251.1c0-183 211.5-337.5 211.5-337.5s-48 90 13.5 142.5c0 0 102-15 135 26.2 0 0-204-26.2-360 168.8z"/>
        <path class="st1" d="M894.7 1082.3c-32.3 8.3-42.7 66.7-42.7 66.7-126-12-317.3 102.1-317.3 102.1"/>
        <path class="st1" d="M663.4 988.3s-32.7-281.7 262.8-316.2c163.6-19.1 221 108.7 239.6 226.5 13.7 86.9 7.4 175.8-17.3 260.2-25.4 86.9-67.3 227.3-96.3 309.7-15.1 42.9-23.5 87.9-25 133.3-.9 28.5-2.4 63.3-4.5 101.2"/>
        <path class="st1" d="M852 1149s67 4-15 130c-51.2 78.8-148.6 228.6-231 420.2"/>
        <path class="st1" d="M877.8 967.6s2-85.5 82.2-100.5 62.2 64.5 62.2 64.5-12.8 90-144.4 36z"/>
        <path class="st1" d="M960 867.1l57.7-94.5c-39-4.5-123 34.5-123 34.5-136.5 76.5-135 249-135 249l118.1-88.5"/>
        <path class="st1" d="M995 673.2s-37.3-250.1-100.3-311.6c0 0-14.7 18.4-29.7 8.4s-28.4-65 12.8-75 69.2-3 87.2-22 68-56.1 135-56.1 96.9 25.1 96.9 25.1 35.1-12 67.1 9 60 57 73 89c0 0 60 31 57 75s6.8 81-40 60-27.3-32.4-27.3-32.4c-109.5 57-259.6 260.3-259.6 260.3"/>
        <path class="st1" d="M894.7 361.6c33.8-22.9 123.3-6.9 138-5.6 7.6.6 15.3-1.2 22.8-2.7 29.4-6.1 59.4-6.1 89.4-4 75 5.3 194.5 65 181.9 93.4"/>
        <path class="st1" d="M1125.6 303.6c-40.2 96.5-68.4 258.4-77.7 362.6 29.6-104.7 128.7-246 196.2-331.4"/>
        <path class="st1" d="M1007 325.6c10 93.7 14.2 218.5 29.4 311.5"/>
    </g>
</svg>
