<svg xmlns="http://www.w3.org/2000/svg" viewBox="0 0 1920 1920">
    <style>
        .st0{fill:#fff}.st1{fill:none;stroke:#231f20;stroke-width:50;stroke-linecap:round;stroke-linejoin:round;stroke-miterlimit:10}
    </style>
    <path class="st0" d="M1586.9 670.9c-25.8-109.4-71.2-207.1-136-274.8-9.3-9.7-19-18.8-29.2-27.3-224-186.7-461.8 0-461.8 0s-237.8-186.7-461.8 0c-10.1 8.4-19.9 17.6-29.2 27.3-64.8 67.7-110.2 165.3-136 274.8-85.6 363 72.2 739.1 387.6 938.4 72.8 46 154.3 82.5 239.4 93.8 85.1-11.3 166.6-47.9 239.4-93.8 315.3-199.3 473.2-575.4 387.6-938.4zM960 1342s-285.9-95.6-285.9-426.6S960 550.6 960 550.6s285.9 33.8 285.9 364.8S960 1342 960 1342z" id="Layer_7"/>
    <path class="st0" d="M960 550.6s-285.9 33.8-285.9 364.8S960 1342 960 1342s285.9-95.6 285.9-426.6S960 550.6 960 550.6z" id="Layer_8"/>
    <path class="st0" d="M960 217c-233.7 0-430.7 75.8-490.9 179.2 9.3-9.7 19-18.8 29.2-27.3 224-186.7 461.8 0 461.8 0s237.8-186.7 461.8 0c10.1 8.4 19.9 17.6 29.2 27.3C1390.7 292.7 1193.7 217 960 217z" id="Layer_9"/>
    <g id="STROKES">
        <path class="st1" d="M1199.3 1609.2c-72.7 46-154.3 82.5-239.3 93.8-85.1-11.3-166.6-47.9-239.4-93.8-315.3-199.2-473.1-575.3-387.5-938.3 25.8-109.4 71.2-207.1 136-274.7 9.3-9.7 19-18.9 29.2-27.3 224-186.7 461.8 0 461.8 0s237.8-186.7 461.8 0c10.1 8.4 19.9 17.6 29.2 27.3 64.8 67.7 110.2 165.3 136 274.7 85.4 363-72.5 739.1-387.8 938.3z"/>
        <path class="st1" d="M1450.9 396.1c-9.3-9.7-19-18.9-29.2-27.3-224-186.7-461.8 0-461.8 0s-237.8-186.7-461.8 0c-10.1 8.4-19.9 17.6-29.2 27.3C529.3 292.7 726.3 216.9 960 216.9c233.7 0 430.7 75.8 490.9 179.2z"/>
        <path class="st1" d="M960 1342s285.9-95.6 285.9-426.6S960 550.6 960 550.6s-285.9 33.8-285.9 364.8S960 1342 960 1342z"/>
    </g>
</svg>
