<svg xmlns="http://www.w3.org/2000/svg" viewBox="0 0 1920 1920">
    <style>
        .st0{fill:#fff}.st1{fill:none;stroke:#231f20;stroke-width:50;stroke-linecap:round;stroke-linejoin:round;stroke-miterlimit:10}
    </style>
    <path class="st0" d="M1134.5 406.5c-78.5-1.8-153.3 21-219.9 62.8-80.7-33.4-166-43.8-249.1-25.7-265.7 57.8-408.5 384.6-319 730s377.5 578.5 643.2 520.7c34.1-7.4 66.2-19.3 96-35 5.2.3 10.4.6 15.7.7 266.3 5.9 489.6-269.8 498.8-616 9-346.2-199.4-631.6-465.7-637.5z" id="Layer_5"/>
    <path class="st0" d="M870.4 341.5c134.1 0 142-110.5 142-110.5-139.3.1-142 110.5-142 110.5z" id="Layer_6"/>
    <g id="STROKES">
        <path class="st1" d="M1085.5 1659.2c-29.8 15.7-61.9 27.6-96 35-265.7 57.8-553.7-175.3-643.2-520.7-89.5-345.4 53.3-672.2 319-730 83.1-18.1 168.4-7.7 249.1 25.7 177.3 73.3 332.5 257.7 394 495 78.2 301.1-20.3 588.1-222.9 695z"/>
        <path class="st1" d="M1600 1044c-9.2 346.1-232.5 621.9-498.8 616-5.3-.1-10.5-.3-15.7-.7 202.6-107 301.1-393.9 223.1-695-61.5-237.3-216.7-421.7-394-495 66.7-41.8 141.4-64.6 219.9-62.8 266.3 5.9 474.7 291.3 465.5 637.5z"/>
        <path class="st1" d="M914.6 469.3s-82.7-86.1-48.7-252.3"/>
        <path class="st1" d="M1012.5 231.1s-7.9 110.5-142 110.5c-.1-.1 2.6-110.5 142-110.5z"/>
    </g>
</svg>
