<svg xmlns="http://www.w3.org/2000/svg" viewBox="0 0 1920 1920">
    <style>
        .st0{fill:#fff}.st1{fill:none;stroke:#231f20;stroke-width:50;stroke-linecap:round;stroke-linejoin:round;stroke-miterlimit:10}
    </style>
    <path class="st0" d="M1085.8 1425.7l-2.9-16.2-25.4-140.1-2.5-13.8-25.8-142.4-2.1-11.5-26.2-144.5-3.9-21.9 27.6-47.8 6.5-11.2c5.5-11.5 8.6-24.8 8.6-38.8 0-45.1-32.3-81.7-72.2-81.7-39.9 0-72.2 36.6-72.2 81.7 0 14 3.1 27.3 8.6 38.8v.2l6.3 11 27.6 47.9 29.5 51.2-29.5-51.2-4.2 23.1-25.9 142.9-2.4 13.3-25.5 140.6-2.8 15.7-25 138-3.3 18.4-24.1 133v2c1.1 77.9 64.6 140.7 142.8 140.7 77.9 0 141.3-62.4 142.8-140v-2.8l-24.4-134.6z" id="Layer_9"/>
    <path class="st0" d="M1210.9 1307.2c-11.9 0-23.1 2.7-33.2 7.4-.5-1.9-1-3.8-1.7-5.7 1.3.1 2.7.1 4 .1 43.2 0 78.2-35 78.2-78.2s-35-78.2-78.2-78.2c-11.9 0-23.1 2.6-33.2 7.4-.5-1.9-1-3.8-1.7-5.6 1.3.1 2.7.1 4 .1 43.2 0 78.2-35 78.2-78.2s-35-78.2-78.2-78.2c-11.8 0-23.1 2.6-33.1 7.4-8.5-34-39.2-59.1-75.8-59.1-14.4 0-27.9 3.9-39.5 10.7l26.2 144.5c4.3.7 8.8 1.1 13.3 1.1 11.9 0 23.1-2.7 33.2-7.4.5 1.9 1 3.8 1.7 5.7-1.3-.1-2.7-.1-4-.1-15.5 0-29.9 4.5-42 12.2l25.8 142.4c5.2 1.1 10.6 1.7 16.2 1.7 11.9 0 23.1-2.6 33.2-7.4.5 1.9 1 3.8 1.6 5.7-1.3-.1-2.6-.1-4-.1-16.5 0-31.9 5.1-44.5 13.9l25.4 140.1c6.1 1.5 12.5 2.4 19.1 2.4 11.9 0 23.1-2.7 33.2-7.4.5 1.9 1 3.8 1.7 5.7-1.3-.1-2.7-.1-4-.1-17.6 0-33.9 5.8-47 15.7l24.4 134.5v2.8c7.2 2.2 14.8 3.3 22.7 3.3 43.2 0 78.2-35 78.2-78.2 0-8.6-1.4-16.9-4-24.7 1.3.1 2.7.1 4 .1 43.2 0 78.2-35 78.2-78.2-.2-43.1-35.2-78.1-78.4-78.1zm-394.5-301.7c-10.1-4.7-21.3-7.4-33.2-7.4-43.2 0-78.2 35-78.2 78.2s35 78.2 78.2 78.2c1.4 0 2.7 0 4-.1-.6 1.9-1.2 3.7-1.7 5.6-10.1-4.7-21.3-7.4-33.2-7.4-43.2 0-78.2 35-78.2 78.2s35 78.2 78.2 78.2c1.3 0 2.7 0 4-.1-.6 1.9-1.2 3.7-1.7 5.7-10.1-4.7-21.3-7.4-33.2-7.4-43.2 0-78.2 35-78.2 78.2s35 78.2 78.2 78.2c1.3 0 2.7 0 4-.1-2.6 7.8-4 16.1-4 24.7 0 43.2 35 78.2 78.2 78.2 8.7 0 17.1-1.4 24.9-4v-2l24.1-133c-13.4-10.8-30.4-17.2-49-17.2-1.4 0-2.7 0-4 .1.6-1.8 1.2-3.7 1.6-5.7 10.1 4.7 21.3 7.4 33.2 7.4 7.4 0 14.6-1 21.5-3l25-138c-13-9.6-29.1-15.3-46.5-15.3-1.4 0-2.7 0-4 .1.6-1.8 1.2-3.7 1.6-5.7 10.1 4.7 21.3 7.4 33.2 7.4 6.4 0 12.6-.8 18.5-2.2l25.5-140.6c-12.5-8.6-27.7-13.5-44-13.5-1.4 0-2.7 0-4 .1.6-1.8 1.2-3.7 1.7-5.7 10.1 4.7 21.3 7.4 33.2 7.4 5.3 0 10.5-.5 15.6-1.6l25.9-142.9c-12-7.5-26.2-11.9-41.5-11.9-36.5-.1-67.2 25-75.7 58.9z" id="Layer_10"/>
    <path class="st0" d="M452.1 769.8c-50.4 0-140.5 40.9-140.5 91.3s90.1 91.2 140.5 91.2c50.4 0 91.3-40.9 91.3-91.2 0-50.4-40.9-91.3-91.3-91.3zm-3 101.3c-5.5 0-10-4.5-10-10s4.5-10 10-10 10 4.5 10 10-4.5 10-10 10zM967.4 217c-50.4 0-91.2 90.1-91.2 140.5 0 50.4 40.9 91.2 91.2 91.2 50.4 0 91.2-40.9 91.2-91.2 0-50.5-40.8-140.5-91.2-140.5zm0 147.4c-5.5 0-10-4.5-10-10s4.5-10 10-10 10 4.5 10 10-4.5 10-10 10zm515.2 405.4c-50.4 0-91.3 40.9-91.3 91.3s40.9 91.2 91.3 91.2 140.5-40.9 140.5-91.2c0-50.4-90.1-91.3-140.5-91.3z" id="Layer_11"/>
    <path class="st0" d="M640.8 531.2c.6-.5 1.2-1.1 1.7-1.7 29.4-29.4 29.4-77 0-106.4-26.4-26.4-90.9-52.3-125-35.9-3.8 1.8-7.2 4.2-10.1 7.1-29.4 29.4-.7 105.8 28.7 135.1 28.8 29 75.2 29.5 104.7 1.8zm-45.6-59.6c.6 1.6.7 3.3.3 4.9-.2 1-.7 1.9-1.2 2.7.6-.8 1-1.8 1.2-2.7.4-1.6.3-3.3-.3-4.9zm-3.3-4c-.8-.5-1.7-.9-2.7-1.1 1 .2 1.9.5 2.7 1.1zm-12.1 3.9c-.6 1.5-.7 3.1-.4 4.7-.3-1.6-.2-3.2.4-4.7zM814 1024.6c0-5 .5-10 1.4-14.7-.9 4.8-1.4 9.7-1.4 14.7zm327.4 188.8c-7 14.3-18.1 26.1-31.9 33.9 13.8-7.8 25-19.7 31.9-33.9zm-174-849c5.5 0 10-4.5 10-10s-4.5-10-10-10-10 4.5-10 10 4.4 10 10 10zm148.7 641.1c1.2 4.7 1.9 9.5 2.2 14.5-.2-4.9-1-9.8-2.2-14.5zm61.7 309.1c1 3.8 1.6 7.7 2 11.8-.4-4.1-1.1-8-2-11.8zm-30.9-154.5c1 3.8 1.6 7.7 2 11.8-.3-4.1-1-8-2-11.8zm-66.3-68.5c4.6-2.7 8.8-5.9 12.7-9.5-3.9 3.6-8.2 6.8-12.7 9.5zm213.3-560.4c29.5 27.7 75.9 27.2 104.7-1.7 29.4-29.4 58.1-105.8 28.7-135.1-2.9-3-6.4-5.3-10.2-7.1-34.1-16.5-98.5 9.4-125 35.9-29.4 29.4-29.4 77 0 106.4.7.5 1.2 1.1 1.8 1.6zm59.2-50.8l-.6.6c.1-.2.3-.4.6-.6.2-.2.3-.4.5-.6-.2.2-.4.4-.5.6zm0-11.7c.5.5 1 1.2 1.4 1.8-.5-.6-.9-1.3-1.4-1.8-.9-.9-2-1.6-3.2-2 1.1.4 2.2 1.1 3.2 2zm-12 .3c-1 1.1-1.7 2.5-2 3.8.3-1.4 1-2.7 2-3.8zm-229.5 643.3c2.5 1.5 4.9 3.1 7.2 4.9-2.3-1.8-4.7-3.4-7.2-4.9zm-314.2 292.2c-.5 1.9-1 3.8-1.7 5.7 1.3-.1 2.7-.1 4-.1 18.5 0 35.6 6.4 49 17.2l3.3-18.4c-6.8 2-14 3-21.5 3-11.8-.1-23.1-2.7-33.1-7.4zm308.5-148.9c-.6-1.9-1.2-3.7-1.7-5.7-10.1 4.7-21.3 7.4-33.2 7.4-5.6 0-11-.6-16.2-1.7l2.5 13.8c12.6-8.8 28-13.9 44.5-13.9 1.5 0 2.8 0 4.1.1zm-30.8-154.5c-.6-1.9-1.2-3.7-1.7-5.7-10.1 4.7-21.3 7.4-33.2 7.4-4.5 0-9-.4-13.3-1.1l2.1 11.5c12.1-7.7 26.5-12.2 42-12.2 1.5 0 2.8 0 4.1.1zm-78.2-165.8zm105 476.5c-6.6 0-13-.8-19.1-2.4l2.9 16.2c13.1-9.9 29.4-15.7 47-15.7 1.3 0 2.7 0 4 .1-.6-1.9-1.2-3.7-1.7-5.7-10 4.9-21.2 7.5-33.1 7.5zm37.9-1.5c31.4 2.8 57.5 24.2 67.1 53.1-9.6-28.8-35.7-50.2-67.1-53.1zm345.8-559.2c-1.7 0-3.4.4-4.8 1.2-3.1 1.7-5.2 5-5.2 8.8 0 5.5 4.5 10 10 10 3.5 0 6.5-1.8 8.3-4.4 1.1-1.6 1.7-3.5 1.7-5.6.1-5.6-4.4-10-10-10zm-193.4 302.5c-29.4 29.4-29.4 77 0 106.4 29.4 29.4 105.8 58.1 135.1 28.7 29.4-29.4.7-105.8-28.7-135.1-29.4-29.4-77-29.4-106.4 0zm60.9 60.9l-.6.6c.1-.2.3-.4.6-.6 3.2-3.2 3.2-8.5 0-11.7-3.2-3.2-8.5-3.2-11.7 0-3.2 3.2-3.2 8.5 0 11.7l.6.6-.6-.6c-3.2-3.2-3.2-8.5 0-11.7s8.5-3.2 11.7 0 3.2 8.4 0 11.7zM859 1095.4c-.5 1.9-1 3.8-1.7 5.7 1.3-.1 2.7-.1 4-.1 16.3 0 31.4 5 44 13.5l2.4-13.3c-5 1-10.2 1.6-15.6 1.6-11.8 0-23-2.6-33.1-7.4zm-130.9 361.5c9.2-21.1 27.5-37.3 49.9-43.8-22.5 6.5-40.7 22.7-49.9 43.8zm-192-303.3c-29.4 29.4-58.1 105.8-28.7 135.1 29.4 29.4 105.8.7 135.2-28.7 29.4-29.4 29.4-77 0-106.4s-77.1-29.4-106.5 0zm57.3 60.9c-.4.4-.8.8-1.3 1.1.4-.4.9-.7 1.3-1.1.3-.3.6-.6.8-1-.3.3-.5.7-.8 1zm0-11.7c-3.2-3.2-8.5-3.2-11.7 0-3.2 3.2-3.2 8.5 0 11.7-3.2-3.2-3.2-8.5 0-11.7s8.4-3.2 11.7 0c.7.7 1.2 1.4 1.6 2.2-.4-.8-1-1.5-1.6-2.2zm374-216.3l-29.5-51.2 29.5 51.2 29.5-51.2-29.5 51.2zM828.2 1250c-.5 1.9-1 3.8-1.7 5.7 1.3-.1 2.7-.1 4-.1 17.4 0 33.5 5.7 46.5 15.3l2.8-15.7c-5.9 1.5-12.1 2.2-18.5 2.2-11.8-.1-23-2.7-33.1-7.4zm109.6-314.7zm-488.7-84.2c-5.5 0-10 4.5-10 10s4.5 10 10 10 10-4.5 10-10c0-5.6-4.5-10-10-10zm488.7 84.2z" id="Layer_12"/>
    <path class="st0" d="M1460.6 682.4c31.7-19.4 47.9-50.5 36.3-69.4-11.6-19-46.7-18.6-78.3.8-31.7 19.4-31 40.1-19.4 59.1 11.5 18.9 29.7 28.9 61.4 9.5zm-986.4 336.9c-31.7 19.4-47.9 50.5-36.3 69.4 11.6 18.9 46.7 18.6 78.3-.8 31.7-19.4 31-40.1 19.4-59.1-11.6-18.9-29.8-28.9-61.4-9.5zm986.4 0c-31.7-19.4-49.8-9.4-61.4 9.6-11.6 19-12.3 39.7 19.4 59.1s66.8 19.7 78.3.8c11.6-19-4.7-50.1-36.3-69.5zM516.2 613.7c-31.7-19.4-66.8-19.7-78.3-.8-11.6 19 4.7 50 36.3 69.4 31.7 19.4 49.8 9.4 61.4-9.6 11.6-18.8 12.3-39.6-19.4-59z" id="Layer_13"/>
    <path class="st0" d="M771.2 910.2c-17.8-17.8-46.5-17.8-64.3 0-17.8 17.8-35.1 63.9-17.4 81.6 4.1 4 9.6 6.3 15.9 7.1 21.4 2.7 52-10.7 65.7-24.4 17.4-17.5 17.8-45.5.9-63.4-.2-.3-.5-.6-.8-.9zm-66.9-73.8c10.9-21.6 2.2-47.9-19.4-58.8-21.6-10.9-70.4-13.5-81.3 8.1-10.9 21.6 20.4 59.2 42 70.1 21.5 10.9 47.8 2.2 58.7-19.4zm156.5-338.9c-23 7.6-27.5 56.3-19.9 79.2 7.6 23 32.4 35.4 55.3 27.8 23-7.6 35.4-32.3 27.8-55.3-7.6-22.9-40.2-59.3-63.2-51.7zm-89.6 204l.9-.9c16.8-17.8 16.5-45.9-.9-63.3-13.7-13.7-44.3-27.2-65.7-24.4-6.3.8-11.8 3-15.9 7.1-17.8 17.8-.4 63.9 17.3 81.6 17.7 17.6 46.5 17.6 64.3-.1zm392.4 208.7l-.9.9c-16.8 17.8-16.6 45.9.9 63.4 13.7 13.7 44.3 27.2 65.7 24.4 6.3-.8 11.8-3 15.9-7.1 17.8-17.8.4-63.9-17.3-81.6-17.8-17.8-46.6-17.8-64.3 0zm-89.7-412.7c-23-7.6-55.6 28.8-63.2 51.8-7.6 23 4.9 47.7 27.8 55.3 22.9 7.6 47.7-4.9 55.3-27.8 7.6-23 3.1-71.7-19.9-79.3zm259 288.2c-10.9-21.6-59.7-19-81.3-8.1-21.6 10.9-30.3 37.2-19.4 58.8 10.9 21.6 37.2 30.3 58.8 19.4 21.5-10.9 52.8-48.5 41.9-70.1zm-169.3-84.2c17.8 17.8 46.5 17.8 64.3 0 17.8-17.8 35.1-63.9 17.3-81.6-4.1-4.1-9.6-6.3-15.9-7.1-1.9-.2-3.8-.4-5.8-.4-20.8 0-47.4 12.3-59.9 24.8-17.4 17.5-17.8 45.5-.9 63.3.2.3.5.6.9 1z" id="Layer_14"/>
    <g id="STROKES">
        <path class="st1" d="M1293.9 531.2c-22.2 27.3-43.8 54.7-64.7 81.5"/>
        <path class="st1" d="M1347.8 466.3c-2.9 3.4-5.8 6.8-8.6 10.2"/>
        <path class="st1" d="M996.9 935.3s67.5-102.6 165.8-234.7"/>
        <path class="st1" d="M595.5 476.5c-2.9-3.4-5.8-6.8-8.6-10.2"/>
        <path class="st1" d="M772.1 700.5c98.2 132.1 165.8 234.7 165.8 234.7"/>
        <path class="st1" d="M705.4 612.8c-20.8-26.8-42.4-54.2-64.7-81.5"/>
        <path class="st1" d="M860.5 686.6l69.2 69.1"/>
        <path class="st1" d="M1074.2 686.6l-69.1 69.1"/>
        <path class="st1" d="M1003.6 663.9l-35.1 91.3"/>
        <path class="st1" d="M929.9 663.9l35.1 91.3"/>
        <path class="st1" d="M1110.1 1560.3v2.8c-1.5 77.6-64.8 140-142.8 140-78.2 0-141.7-62.8-142.8-140.7v-2.1l24.1-133 3.3-18.4 25-138 2.8-15.7 25.5-140.6 2.4-13.3 25.9-142.9 4.2-23.1 29.5 51.2 29.5-51.2 4 21.9 26.2 144.5 2.1 11.5 25.8 142.4 2.5 13.8 25.4 140.1 2.9 16.2 24.5 134.6z"/>
        <path class="st1" d="M1039.5 837.4c0 14-3.1 27.3-8.6 38.8l-6.5 11.2-27.5 47.8-29.5 51.2-29.5-51.2-27.6-47.9-6.3-11v-.2c-5.5-11.5-8.6-24.8-8.6-38.8 0-45.1 32.3-81.7 72.2-81.7 39.6.1 71.9 36.7 71.9 81.8z"/>
        <path class="st1" d="M876.1 357.4c0-50.4 40.9-140.5 91.3-140.5s91.3 90.1 91.3 140.5-40.9 91.3-91.3 91.3-91.3-40.9-91.3-91.3z"/>
        <circle class="st1" cx="967.4" cy="354.4" r="10"/>
        <path class="st1" d="M1482.6 769.8c50.4 0 140.5 40.9 140.5 91.3s-90.1 91.3-140.5 91.3-91.3-40.9-91.3-91.3 40.9-91.3 91.3-91.3z"/>
        <circle class="st1" cx="1485.7" cy="861.1" r="10"/>
        <path class="st1" d="M452.1 952.3c-50.4 0-140.5-40.9-140.5-91.3s90.1-91.3 140.5-91.3 91.3 40.9 91.3 91.3-40.9 91.3-91.3 91.3z"/>
        <circle class="st1" cx="449.1" cy="861.1" r="10"/>
        <path class="st1" d="M1427.3 394.4c-2.9-2.9-6.4-5.3-10.2-7.1-34.1-16.5-98.5 9.4-125 35.9-29.4 29.4-29.4 77 0 106.4l1.7 1.7c29.5 27.7 75.9 27.1 104.7-1.7 29.5-29.4 58.2-105.8 28.8-135.2zm-74.3 86c-3.2 3.2-8.5 3.2-11.7 0-1.1-1.1-1.8-2.5-2.2-3.9-.7-2.7.1-5.7 2.2-7.8 1.8-1.8 4.1-2.6 6.4-2.4 1.9.1 3.8.9 5.2 2.4 3.4 3.2 3.4 8.5.1 11.7z"/>
        <path class="st1" d="M1353 480.4c-3.2 3.2-8.5 3.2-11.7 0-1.1-1.1-1.8-2.5-2.2-3.9-.7-2.7.1-5.7 2.2-7.8 1.8-1.8 4.1-2.6 6.4-2.4 1.9.1 3.8.9 5.2 2.4 3.4 3.2 3.4 8.5.1 11.7z"/>
        <path class="st1" d="M1353 480.4c-3.2 3.2-8.5 3.2-11.7 0-1.1-1.1-1.8-2.5-2.2-3.9-.7-2.7.1-5.7 2.2-7.8 1.8-1.8 4.1-2.6 6.4-2.4 1.9.1 3.8.9 5.2 2.4 3.4 3.2 3.4 8.5.1 11.7z"/>
        <path class="st1" d="M642.5 423.1c-26.4-26.4-90.9-52.3-125-35.9-3.8 1.8-7.2 4.2-10.2 7.1-29.4 29.4-.7 105.8 28.7 135.1 28.8 28.8 75.2 29.4 104.7 1.7.6-.5 1.2-1.1 1.7-1.7 29.5-29.2 29.5-76.9.1-106.3zm-49.1 57.3c-3.2 3.2-8.5 3.2-11.7 0s-3.2-8.5 0-11.7c1.5-1.5 3.3-2.3 5.2-2.4 2.3-.2 4.7.6 6.5 2.4 2.1 2.1 2.8 5.1 2.2 7.8-.4 1.4-1.1 2.8-2.2 3.9z"/>
        <path class="st1" d="M595.5 476.5c-.3 1.4-1.1 2.8-2.2 3.9-3.2 3.2-8.5 3.2-11.7 0s-3.2-8.5 0-11.7c1.5-1.5 3.3-2.3 5.2-2.4 2.3-.2 4.7.6 6.5 2.4 2.2 2.1 2.9 5.1 2.2 7.8z"/>
        <path class="st1" d="M595.5 476.5c-.3 1.4-1.1 2.8-2.2 3.9-3.2 3.2-8.5 3.2-11.7 0s-3.2-8.5 0-11.7c1.5-1.5 3.3-2.3 5.2-2.4 2.3-.2 4.7.6 6.5 2.4 2.2 2.1 2.9 5.1 2.2 7.8z"/>
        <path class="st1" d="M1227.8 701.5c-17.7 17.8-46.5 17.8-64.3 0l-.9-.9c-16.8-17.8-16.5-45.9.9-63.4 13.7-13.7 44.3-27.1 65.7-24.4 6.3.8 11.9 3 15.9 7.1 17.8 17.7.5 63.8-17.3 81.6z"/>
        <path class="st1" d="M772.1 700.5l-.9.9c-17.7 17.8-46.5 17.8-64.3 0-17.7-17.7-35.1-63.9-17.3-81.6 4-4 9.6-6.3 15.9-7.1 21.4-2.7 52 10.7 65.7 24.4 17.4 17.5 17.7 45.6.9 63.4z"/>
        <path class="st1" d="M706.9 910.2c17.7-17.8 46.5-17.8 64.3 0l.9.9c16.8 17.8 16.5 45.9-.9 63.4-13.7 13.7-44.3 27.1-65.7 24.4-6.3-.8-11.9-3-15.9-7.1-17.8-17.7-.5-63.9 17.3-81.6z"/>
        <path class="st1" d="M1162.7 911.1l.9-.9c17.7-17.8 46.5-17.8 64.3 0 17.7 17.7 35.1 63.9 17.3 81.6-4 4-9.6 6.3-15.9 7.1-21.4 2.7-52-10.7-65.7-24.4-17.5-17.5-17.8-45.6-.9-63.4z"/>
        <path class="st1" d="M642.5 1260.1c-29.4 29.4-105.8 58.1-135.1 28.7-29.4-29.4-.7-105.8 28.7-135.1 29.4-29.4 77-29.4 106.4 0 29.4 29.3 29.4 77 0 106.4z"/>
        <ellipse transform="rotate(-45.001 587.508 1208.649)" class="st1" cx="587.5" cy="1208.6" rx="8.3" ry="8.3"/>
        <path class="st1" d="M1292.2 1260.1c29.4 29.4 105.8 58.1 135.1 28.7 29.4-29.4.7-105.8-28.7-135.1-29.4-29.4-77-29.4-106.4 0-29.4 29.3-29.4 77 0 106.4z"/>
        <ellipse transform="rotate(-45.001 1347.193 1208.658)" class="st1" cx="1347.2" cy="1208.6" rx="8.3" ry="8.3"/>
        <path class="st1" d="M905.3 1114.5l-25.5 140.6c-5.9 1.5-12.1 2.2-18.5 2.2-11.9 0-23.1-2.6-33.2-7.4-26.6-12.5-45-39.5-45-70.8 0-6.6.8-13 2.3-19.1.5-1.9 1-3.8 1.7-5.6 9.9-29.8 37.4-51.7 70.2-53.3 1.3-.1 2.7-.1 4-.1 16.4 0 31.5 5 44 13.5z"/>
        <path class="st1" d="M933.6 958.4l-25.9 142.9c-5 1-10.2 1.6-15.6 1.6-11.9 0-23.1-2.6-33.2-7.4-26.6-12.5-45-39.5-45-70.8 0-6.6.8-13 2.3-19.1 8.5-33.9 39.2-59.1 75.8-59.1 15.4 0 29.6 4.3 41.6 11.9z"/>
        <path class="st1" d="M824.6 1560.3v2.1c-7.8 2.6-16.2 4-24.9 4-43.2 0-78.2-35-78.2-78.2 0-8.6 1.4-17 4-24.7 9.9-29.8 37.4-51.7 70.2-53.3 1.3-.1 2.7-.1 4-.1 18.5 0 35.6 6.4 49 17.2l-24.1 133z"/>
        <path class="st1" d="M797.4 1404.5c-.5 1.9-1 3.8-1.7 5.7-32.8 1.7-60.2 23.5-70.2 53.3-1.3.1-2.7.1-4 .1-43.2 0-78.2-35-78.2-78.2s35-78.2 78.2-78.2c11.9 0 23.1 2.6 33.2 7.4-1.5 6.1-2.3 12.5-2.3 19.1 0 31.3 18.4 58.3 45 70.8z"/>
        <path class="st1" d="M877 1270.8l-25 138c-6.8 2-14 3-21.5 3-11.9 0-23.1-2.6-33.2-7.4-26.6-12.5-45-39.5-45-70.8 0-6.6.8-13 2.3-19.1.5-1.9 1-3.8 1.7-5.6 9.9-29.8 37.4-51.7 70.2-53.3 1.3-.1 2.7-.1 4-.1 17.5 0 33.5 5.7 46.5 15.3z"/>
        <path class="st1" d="M828.2 1250c-.5 1.9-1 3.8-1.7 5.7-32.8 1.7-60.2 23.5-70.2 53.3-1.3.1-2.7.1-4 .1-43.2 0-78.2-35-78.2-78.2s35-78.2 78.2-78.2c11.9 0 23.1 2.6 33.2 7.4-1.5 6.1-2.3 12.5-2.3 19.1 0 31.3 18.4 58.3 45 70.8z"/>
        <path class="st1" d="M859 1095.4c-.5 1.9-1 3.8-1.7 5.7-32.8 1.7-60.2 23.5-70.2 53.3-1.3.1-2.7.1-4 .1-43.2 0-78.2-35-78.2-78.2s35-78.2 78.2-78.2c11.8 0 23.1 2.6 33.2 7.4-1.5 6.1-2.3 12.5-2.3 19.1 0 31.3 18.4 58.4 45 70.8z"/>
        <path class="st1" d="M1149.3 1179.2c0 31.3-18.4 58.3-45 70.8-10.1 4.7-21.3 7.4-33.2 7.4-5.6 0-11-.6-16.2-1.7l-25.8-142.4c12.1-7.7 26.5-12.2 42-12.2 1.3 0 2.7 0 4 .1 32.8 1.7 60.2 23.5 70.2 53.3.6 1.9 1.2 3.7 1.7 5.6 1.5 6.1 2.3 12.5 2.3 19.1z"/>
        <path class="st1" d="M1118.5 1024.6c0 31.3-18.4 58.3-45 70.8-10.1 4.7-21.3 7.4-33.2 7.4-4.5 0-9-.4-13.3-1.1l-26.2-144.5c11.6-6.8 25.1-10.7 39.5-10.7 36.6 0 67.3 25.1 75.8 59.1 1.6 6.1 2.4 12.4 2.4 19z"/>
        <path class="st1" d="M1210.9 1488.2c0 43.2-35 78.2-78.2 78.2-7.9 0-15.5-1.2-22.7-3.3v-2.8l-24.4-134.5c13.1-9.9 29.4-15.7 47-15.7 1.3 0 2.7 0 4 .1 32.8 1.7 60.2 23.5 70.2 53.3 2.7 7.7 4.1 16.1 4.1 24.7z"/>
        <path class="st1" d="M1135.1 1404.5c.5 1.9 1 3.8 1.7 5.7 32.8 1.7 60.2 23.5 70.2 53.3 1.3.1 2.7.1 4 .1 43.2 0 78.2-35 78.2-78.2s-35-78.2-78.2-78.2c-11.9 0-23.1 2.6-33.2 7.4 1.5 6.1 2.3 12.5 2.3 19.1 0 31.3-18.4 58.3-45 70.8z"/>
        <path class="st1" d="M1180.1 1333.7c0 31.3-18.4 58.3-45 70.8-10.1 4.7-21.3 7.4-33.2 7.4-6.6 0-13-.8-19.1-2.4l-25.4-140.1c12.6-8.8 28-13.9 44.5-13.9 1.3 0 2.7 0 4 .1 32.8 1.7 60.2 23.5 70.2 53.3.6 1.9 1.2 3.7 1.7 5.6 1.5 6.2 2.3 12.6 2.3 19.2z"/>
        <path class="st1" d="M1104.3 1250c.5 1.9 1 3.8 1.7 5.7 32.8 1.7 60.2 23.5 70.2 53.3 1.3.1 2.7.1 4 .1 43.2 0 78.2-35 78.2-78.2s-35-78.2-78.2-78.2c-11.9 0-23.1 2.6-33.2 7.4 1.5 6.1 2.3 12.5 2.3 19.1 0 31.3-18.4 58.3-45 70.8z"/>
        <path class="st1" d="M1073.5 1095.4c.5 1.9 1 3.8 1.7 5.7 32.8 1.7 60.2 23.5 70.2 53.3 1.3.1 2.7.1 4 .1 43.2 0 78.2-35 78.2-78.2s-35-78.2-78.2-78.2c-11.8 0-23.1 2.6-33.2 7.4 1.5 6.1 2.3 12.5 2.3 19.1 0 31.3-18.4 58.4-45 70.8z"/>
        <path class="st1" d="M1562.2 243.1c-47.4 41.3-96.4 90.8-145 144.2 48.5-53.4 97.6-102.9 145-144.2"/>
        <path class="st1" d="M372.5 243.1c47.4 41.3 96.4 90.8 145 144.2-48.5-53.4-97.6-102.9-145-144.2"/>
        <path class="st1" d="M996.9 935.3s105.2-82.8 394.4-74.2"/>
        <path class="st1" d="M937.8 935.3s-105.2-82.8-394.4-74.2"/>
        <g>
            <path class="st1" d="M924 549.2c7.6 23-4.9 47.7-27.8 55.3-23 7.6-47.7-4.9-55.3-27.8s-3.1-71.7 19.9-79.2c23-7.6 55.6 28.8 63.2 51.7z"/>
            <path class="st1" d="M1010.7 549.2c-7.6 23 4.9 47.7 27.8 55.3 23 7.6 47.7-4.9 55.3-27.8 7.6-23 3.1-71.7-19.9-79.2-22.9-7.6-55.6 28.8-63.2 51.7z"/>
        </g>
        <path class="st1" d="M1251.6 777.6c-21.6 10.9-30.3 37.2-19.4 58.8 10.9 21.6 37.2 30.3 58.8 19.4 21.6-10.9 52.8-48.5 42-70.1s-59.8-19-81.4-8.1z"/>
        <path class="st1" d="M684.8 777.6c21.6 10.9 30.3 37.2 19.4 58.8-10.9 21.6-37.2 30.3-58.8 19.4-21.6-10.9-52.8-48.5-42-70.1 11-21.6 59.8-19 81.4-8.1z"/>
        <g>
            <path class="st1" d="M1496.9 1088.7c-11.6 19-46.7 18.6-78.4-.8-31.7-19.4-31-40.1-19.4-59.1 11.6-19 29.8-29 61.4-9.6 31.7 19.5 48 50.5 36.4 69.5z"/>
            <path class="st1" d="M437.8 1088.7c11.6 19 46.7 18.6 78.4-.8s31-40.1 19.4-59.1c-11.6-19-29.8-29-61.4-9.6-31.7 19.5-48 50.5-36.4 69.5z"/>
        </g>
        <g>
            <path class="st1" d="M437.8 613c11.6-19 46.7-18.6 78.4.8 31.7 19.4 31 40.1 19.4 59.1-11.6 19-29.8 29-61.4 9.6-31.7-19.5-48-50.6-36.4-69.5z"/>
            <path class="st1" d="M1496.9 613c-11.6-19-46.7-18.6-78.4.8-31.7 19.4-31 40.1-19.4 59.1 11.6 19 29.8 29 61.4 9.6 31.7-19.5 48-50.6 36.4-69.5z"/>
        </g>
    </g>
</svg>
