<svg xmlns="http://www.w3.org/2000/svg" viewBox="0 0 1920 1920">
    <style>
        .st0{fill:#fff}.st1{fill:none;stroke:#231f20;stroke-width:50;stroke-linecap:round;stroke-linejoin:round;stroke-miterlimit:10}
    </style>
    <path class="st0" d="M845 1439c-.1.1-.1.2-.1.2s0-.1.1-.2zm.5-1.3c-.2.4-.3.8-.4 1 .1-.2.2-.6.4-1zm-114.6-443l7.2 11.7c-2.4-4.2-4.8-8.1-7.2-11.7zM850 1426.1c-.3.8-.6 1.5-.9 2.3.4-.8.7-1.6.9-2.3zm-53.6 10.6c-26.9-3.7-51.4-11.2-73.6-22.3C586 1346.7 535.6 1148 547.9 904.1c15.5-306.2-145.4-306.2-145.4-306.2-79.3-1.9-105.4 48.1-113.8 85.9-9.8 44-23 87.3-40.3 129l-31.4 76L322.1 799s86.6 6.2 102.1 71.2-99 340.2-99 482.5c0 116.1 53.6 209.6 182.6 240 29 6.9 61.9 10.5 98.9 10.5 67.2 0 116.1-18.3 151.4-42.7 24.5-16.9 42.5-36.8 55.5-55.6 24.3-34.9 31.2-65.7 31.2-65.7-16.9.5-33.1-.4-48.4-2.5zm235.9-177.9c-3.3 4.1-6.7 8.2-10.1 12.3 3.4-4 6.8-8.2 10.1-12.3zm210.9-507c.5-4.4 1-8.7 1.4-13.1-.4 4.4-.9 8.8-1.4 13.1zm-228.1 527.8c-2.8 3.3-5.7 6.6-8.5 9.9 2.9-3.3 5.7-6.6 8.5-9.9zm-65 69.6c-8 7.8-16.2 15.5-24.6 23.2 8.5-7.6 16.6-15.4 24.6-23.2zm40.1-41.4c-3.6 4-7.3 7.9-11 11.8 3.8-3.9 7.4-7.8 11-11.8z" id="Layer_15"/>
    <path class="st0" d="M626.3 475.3c-1-12.3-2-24.8-6.9-36.1-4.8-11.3-14.2-21.5-26.3-23.9-6.8-1.4-13.9-.2-20.8.9-29.5 4.9-58.9 9.8-88.4 14.8-5.5.9-11.3 1.8-16.4-.4-5.1-2.2-8.5-7.1-11.7-11.6-9.8-13.9-21.2-27.4-36.2-35.4-15-8-34.5-9.7-48.7-.2-8.8 5.9-14.8 15.2-23.2 21.7-12.6 9.6-56.9 39-38.9 55 5.6 5 13.5 6.6 20.9 7.6 7.5 1 15.2 1.7 21.8 5.5 7.3 4.2 12.3 11.7 19.9 15.5 14.9 7.5 32.9-2.1 49.4.1 15.8 2.1 27.9 14.5 41 23.6 28.8 19.8 65.2 24.2 100.1 25.6 20.9.9 45.3-.8 57.4-17.8 9.1-12.8 8.3-29.6 7-44.9z" id="Layer_16"/>
    <path class="st0" d="M1590.3 1049.9c70.5-106.3 112.8-213.1 112.8-300.8 0-53.7-15.8-100.2-50.8-135.1-5.7-5.7-11.9-11.1-18.7-16.2-115.4-86.7-156.2 27.6-156.2 27.6 1.8-21.2 2.6-41.7 2.6-61.2 0-91.3-18.9-161.5-51.2-193.8-8.2-8.2-17.3-14-27.2-17-152-46.4-166.8 128-166.8 128-26.8-136.7-86-224.7-145.6-215.8-141 21-80.4 165.1-80.4 165.1l3 7.5c.5 1.2 1 2.5 1.5 3.8.5 1.2 1 2.5 1.5 3.8.7 1.7 1.3 3.5 2 5.2.8 2 1.5 4 2.2 6 .8 2 1.5 4.1 2.2 6.2l2.1 6c.7 2.1 1.4 4.1 2.1 6.2.5 1.3.9 2.7 1.4 4.1.4 1.3.8 2.5 1.2 3.8l2.4 7.5c1.6 5 3.1 9.9 4.6 14.9 0 .1.1.3.1.4.7 2.4 1.4 4.7 2.1 7.1 0 .1.1.2.1.3l1.8 6.3c.8 2.8 1.6 5.6 2.3 8.4.6 2.1 1.1 4.3 1.7 6.4.4 1.3.7 2.7 1 4 .1.4.2.8.3 1.3.4 1.4.7 2.8 1.1 4.3.5 2.1 1 4.2 1.5 6.2 0-.1 0-.1-.1-.2 0-.1-.1-.3-.2-.5 0-.1-.1-.2-.1-.3-.1-.2-.1-.5-.2-.8 0-.2-.1-.3-.1-.5-.3-.9-.6-2-1.1-3.4l-.3-.9c-.1-.5-.3-1-.5-1.5l-.3-.9c-.2-.5-.4-1.1-.6-1.6-.5-1.2-.9-2.6-1.5-4-.2-.6-.5-1.2-.7-1.9-.2-.4-.3-.9-.5-1.3-.2-.6-.5-1.3-.8-2 0-.1-.1-.2-.1-.2l-.9-2.4c-.2-.4-.3-.8-.5-1.2-.5-1.3-1.1-2.6-1.7-4-.2-.4-.3-.7-.5-1.1-1.1-2.6-2.4-5.4-3.7-8.2-.4-.8-.7-1.6-1.1-2.4-.5-1.1-1.1-2.2-1.7-3.4-.2-.5-.5-1-.7-1.5-.2-.5-.5-1-.8-1.5-1.5-3-3.2-6.1-4.9-9.2-.4-.7-.8-1.3-1.1-2-.4-.7-.8-1.3-1.2-2-2.4-4.1-4.9-8.2-7.6-12.2-.7-1-1.3-2-2-3-.6-.8-1.1-1.6-1.7-2.5-.5-.8-1.1-1.5-1.6-2.3-.4-.5-.7-1-1.1-1.5-.6-.8-1.1-1.5-1.7-2.3-.4-.5-.8-1.1-1.2-1.6-1.4-1.7-2.7-3.5-4.1-5.2l-1.2-1.5c-.5-.6-1-1.2-1.6-1.8-.5-.6-1.1-1.2-1.6-1.8-.6-.6-1.1-1.2-1.6-1.8-.5-.6-1.1-1.2-1.7-1.8-.7-.8-1.5-1.5-2.2-2.3l-.4-.4c-.1 0-.1-.1-.1-.2-.8-.8-1.5-1.5-2.3-2.2-.8-.8-1.7-1.6-2.5-2.4-.9-.8-1.7-1.6-2.6-2.3-.9-.8-1.8-1.5-2.6-2.3l-1.5-1.2-1.5-1.2c-.7-.5-1.4-1.1-2.1-1.6-.2-.2-.4-.3-.6-.5l-2.1-1.5c-.5-.4-1-.7-1.5-1.1-.5-.3-1-.7-1.5-1-3.4-2.3-7-4.4-10.7-6.3-.2-.1-.3-.2-.5-.2-.3-.2-.7-.3-1-.5-1.5-.7-3-1.5-4.5-2.1-.5-.2-1-.5-1.5-.7-.4-.2-.8-.4-1.2-.5-.6-.3-1.2-.5-1.9-.8-.5-.2-1.1-.4-1.6-.6-.4-.2-.9-.3-1.3-.5h-.1c-.8-.3-1.7-.6-2.5-.8-.8-.3-1.7-.5-2.5-.8-.1 0-.3-.1-.4-.1l-2.1-.6c-.1 0-.3-.1-.4-.1l-2.4-.6h-.2c-.7-.2-1.4-.3-2-.5-1.3-.3-2.6-.5-4-.8h-.1l-2.1-.3c-.3 0-.6-.1-.9-.1-.4-.1-.8-.1-1.2-.2-.7-.1-1.4-.2-2.1-.2-.7-.1-1.5-.2-2.2-.2-.4 0-.8-.1-1.1-.1-.7-.1-1.4-.1-2.1-.1-.9 0-1.8-.1-2.8-.1h-2.8c-4.6 0-9.3.3-14.1.9-.9.1-1.8.2-2.8.4-.2 0-.3 0-.5.1-.9.1-1.8.3-2.7.4-.2 0-.4.1-.6.1l-3 .6c-1 .2-2 .4-2.9.7-.7.2-1.4.3-2 .5-1.7.4-3.4.9-5.1 1.4-2.3.6-4.6 1.4-6.9 2.2-1.2.4-2.3.8-3.5 1.2-1.2.4-2.4.9-3.5 1.3-1.8.7-3.6 1.4-5.4 2.2-138.4 59.8-60.1 195.9-60.1 195.9 21.9 33.4 40.2 67.6 55.4 102.1-6.8-12.5-14.6-23-23.1-31.5-34-33.9-79.7-36.7-122.5-16.9-32.7 15.1-60 43.8-60 98.3 0 49.4 22.4 120 83.7 220.9 2.5 3.6 4.9 7.5 7.2 11.7-2.5-3.9-4.9-7.9-7.2-11.7-4-5.9-8.2-11-12.6-15.4-25.3-25.4-55.3-26.5-82.7-15.2-20.8 8.6-47.6 38.3-47.6 78.3 0 26 11.3 56.4 42.8 88.1 1.6 1.6 3.2 3.1 4.8 4.7.7.7 1.4 1.3 2 2 84.8 83.7 85.1 277.2 85.1 277.2 22.2 11 46.8 18.6 73.6 22.3 15.4 2.1 31.5 3 48.5 2.5 0 0-7 30.8-31.2 65.7-13 18.7-31 38.6-55.5 55.6-35.3 24.4-84.2 42.7-151.4 42.7-36.9 0-69.8-3.7-98.9-10.5 3.9 1.7 431 183 960-81.6 17.9-9 34.2-21 47.7-35.8 16.6-18.2 32.8-44.4 32.8-77.1 0-24.8-9.3-53.4-34.8-85.2 22.2-15.3 42-29.6 59.2-42.3 17.2-12.7 31.7-23.9 43.3-33.1 29-22.9 49.6-55 57.5-91.2 2.1-9.4 3-18 3-25.7 0-21.8-7.5-36.9-18.1-47.4-25.5-25.3-68.3-23.7-68.3-23.7zm-854.9 53.4c-2.2 7.4-5.6 15.1-12.3 19-9.6 5.6-22.2 1.2-30.9-5.8-40.2-32-17.9-102.6 33.3-62.1 13.8 11 14.8 31.9 9.9 48.9zm80.8-233.8c-4 6.9-9.9 13-17.4 15.7-47.3 17.1-82.9-71.9-41.1-98.7 44.4-28.5 77.7 49.4 58.5 83zm28.7 569.7s0-.1.1-.2c-.1.1-.1.2-.1.2zm.2-.5c.1-.2.2-.6.4-1-.2.4-.3.8-.4 1zm4.1-10.4c.3-.7.6-1.5.9-2.3-.3.8-.6 1.6-.9 2.3zm76.4-55.9c8.4-7.7 16.6-15.4 24.6-23.2-8.1 7.8-16.2 15.6-24.6 23.2zM949 673c-6.9-1.3-12.8-5.7-18.4-10-9.7-7.7-19-15.8-27.9-24.4-9.5-9.2-18.9-19.6-22.1-32.4-1.9-7.7-1.5-15.9.1-23.7 5.5-27.1 28.3-45.4 56.5-40.7 34.5 5.8 45.9 40.8 48.6 70.9 1.2 13.7 1.6 28.1-4.2 40.6-5.6 12.5-19.1 22.4-32.6 19.7zm30.2 646.6c3.7-3.9 7.4-7.9 11-11.8-3.6 4-7.2 7.9-11 11.8zm27.4-30.1c2.9-3.3 5.7-6.6 8.5-9.9-2.8 3.3-5.6 6.6-8.5 9.9zm15.6-18.4c3.4-4.1 6.8-8.2 10.1-12.3-3.3 4.1-6.7 8.3-10.1 12.3zM1173.1 547c-11.5 15.7-34.5 21.5-52 13.1-39.4-18.8-49.5-116.5 1.2-127.1 51.7-10.8 75.2 80.8 50.8 114zm70.1 204.8c.5-4.4 1-8.7 1.4-13.1-.4 4.4-.8 8.8-1.4 13.1zm160.2-144.4c-.5 19.9-8.4 40.6-24.8 51.8-16.4 11.3-41.8 9.8-53.6-6.2-5-6.8-7.2-15.3-8.6-23.7-4.4-26.8-5.4-95.5 33.3-98.6 36.2-2.9 54.3 48.8 53.7 76.7zm126.5 251.5c-23.5-29.1 2.7-117.9 36.7-133 21.4-9.5 44.7 9.8 54.7 28 12.5 22.7 6 48.6-4.8 70.6-8.2 16.7-19.2 33-35.7 41.6-16.4 8.6-39.2 7.3-50.9-7.2z" id="Layer_22"/>
    <path class="st0" d="M937.3 541.8c-28.2-4.7-51 13.6-56.5 40.7-1.6 7.8-2.1 16-.1 23.7 3.2 12.9 12.5 23.2 22.1 32.4 8.9 8.6 18.2 16.8 27.9 24.4 5.5 4.4 11.4 8.7 18.4 10 13.5 2.7 27-7.3 32.8-19.8 5.7-12.5 5.4-26.9 4.2-40.6-2.9-30-14.2-65.1-48.8-70.8zM757.8 786.4c-41.8 26.8-6.3 115.8 41.1 98.7 7.5-2.7 13.4-8.8 17.4-15.7 19.1-33.5-14.2-111.4-58.5-83zm-32.4 268.1c-51.2-40.5-73.5 30.1-33.3 62.1 8.7 6.9 21.3 11.4 30.9 5.8 6.7-3.9 10.2-11.6 12.3-19 5-17.1 4-38-9.9-48.9zm896-300.6c-10-18.1-33.4-37.5-54.7-28-34 15.1-60.2 103.9-36.7 133 11.7 14.5 34.5 15.8 50.9 7.2 16.5-8.6 27.5-24.9 35.7-41.6 10.7-22 17.3-48 4.8-70.6zM1122.3 433c-50.7 10.6-40.5 108.2-1.2 127.1 17.5 8.4 40.6 2.6 52-13.1 24.4-33.2.9-124.8-50.8-114zm227.4 97.7c-38.7 3.1-37.6 71.8-33.3 98.6 1.4 8.4 3.5 16.9 8.6 23.7 11.8 16 37.2 17.5 53.6 6.2s24.3-31.9 24.8-51.8c.6-27.9-17.5-79.6-53.7-76.7z" id="Layer_23"/>
    <g id="STROKES">
        <path class="st1" d="M248.5 812.8c17.3-41.7 30.4-84.9 40.2-129 8.4-37.8 34.5-87.8 113.8-85.9 0 0 160.8 0 145.4 306.2-15.5 306.2 68 541.3 296.9 535.1 0 0-37.1 163.9-238.2 163.9s-281.5-108.3-281.5-250.5 114.4-417.6 99-482.5C408.6 805.1 322 799 322 799l-105.2 89.9 31.7-76.1z"/>
        <path class="st1" d="M844.8 1439.2s368.1-507.3 163.9-1008.4c0 0-60.6-144.1 80.4-165.1 170.1-25.3 337.3 737.4-244.3 1173.5z"/>
        <path class="st1" d="M844.8 1439.2s191.7-452.4-47.5-817.4c0 0-78.3-136.1 60.1-195.9s189.8 124.9 189.8 124.9"/>
        <path class="st1" d="M796.3 1436.7s79.3-209.1-58.3-430.2-94.3-301.5-30.9-330.9c63.4-29.4 133.3-9.1 161.9 88.7"/>
        <path class="st1" d="M722.7 1414.4s-.4-196.6-87.1-279.2-35.1-156.7 0-171.1c35.1-14.4 74.3-8.7 102.5 42.4"/>
        <path class="st1" d="M1234.8 481.6s14.8-174.4 166.8-128c164.9 50.3 113.8 867.5-588 1151.4"/>
        <path class="st1" d="M1477.4 625.4s40.8-114.2 156.2-27.6c115.4 86.7 77.3 270-43.3 452.1 0 0-207.6 331.7-832.2 510.5"/>
        <path class="st1" d="M1590.3 1049.9s105-3.9 83.2 96.5c-7.9 36.1-28.4 68.2-57.5 91.2-118.6 93.6-548.3 405-968.9 363.2"/>
        <path class="st1" d="M507.8 1592.7s428.6 184.3 960-81.6c17.9-9 34.2-21 47.7-35.8 29.2-32.1 57.1-88.6-2-162.3"/>
        <path class="st1" d="M309 459.9c5.6 5 13.5 6.6 20.9 7.6 7.5 1 15.2 1.7 21.8 5.5 7.3 4.2 12.3 11.7 19.8 15.5 14.9 7.5 32.9-2.1 49.4.1 15.8 2.1 27.9 14.5 41 23.6 28.8 19.8 65.2 24.2 100.1 25.6 20.9.9 45.3-.7 57.4-17.8 8.9-12.5 8.1-29.3 6.8-44.6-1-12.3-2-24.8-6.9-36.1-4.8-11.3-14.2-21.5-26.3-23.9-6.8-1.4-13.9-.2-20.8.9-29.5 4.9-58.9 9.9-88.4 14.8-5.5.9-11.3 1.8-16.4-.4-5.1-2.2-8.5-7.1-11.7-11.6-9.8-13.9-21.2-27.4-36.2-35.4-15-8-34.5-9.7-48.7-.2-8.8 5.9-14.7 15.2-23.2 21.7-12.3 9.3-56.7 38.7-38.6 54.7z"/>
        <path class="st1" d="M352 480.4c7 31.1 14 62.1 20.9 93.2"/>
        <path class="st1" d="M456 516.8c-6.8 24.1-13.6 48.1-20.5 72.2"/>
        <path class="st1" d="M477.7 620.2c21.1-25 44.9-47.6 70.9-67.3"/>
        <path class="st1" d="M880.8 582.5c-1.6 7.8-2.1 16-.1 23.7 3.2 12.9 12.6 23.2 22.1 32.4 8.9 8.6 18.2 16.8 27.9 24.4 5.5 4.4 11.4 8.7 18.4 10 13.5 2.6 27-7.3 32.8-19.8 5.7-12.5 5.4-26.9 4.2-40.6-2.7-30.1-14.1-65.1-48.6-70.9-28.4-4.7-51.2 13.7-56.7 40.8z"/>
        <path class="st1" d="M1121.1 560.1c17.5 8.4 40.6 2.6 52-13.1 24.3-33.2.9-124.8-50.9-114-50.6 10.6-40.5 108.2-1.1 127.1z"/>
        <path class="st1" d="M1529.9 858.9c11.7 14.5 34.5 15.8 50.9 7.2 16.4-8.7 27.5-24.9 35.7-41.6 10.8-22 17.4-47.9 4.8-70.6-10-18.1-33.4-37.5-54.7-28-34 15.1-60.2 103.9-36.7 133z"/>
        <path class="st1" d="M1316.4 629.3c1.4 8.4 3.5 16.9 8.6 23.7 11.8 16 37.2 17.5 53.6 6.2s24.3-31.9 24.8-51.8c.7-27.9-17.5-79.6-53.7-76.7-38.7 3.1-37.6 71.8-33.3 98.6z"/>
        <path class="st1" d="M798.8 885.1c7.5-2.7 13.4-8.8 17.3-15.7 19.2-33.6-14-111.5-58.4-83-41.7 26.8-6.2 115.8 41.1 98.7z"/>
        <path class="st1" d="M692.1 1116.6c8.7 6.9 21.3 11.4 30.9 5.8 6.7-3.9 10.2-11.6 12.3-19 4.9-16.9 3.9-37.9-9.9-48.8-51.2-40.6-73.5 29.9-33.3 62z"/>
        <path class="st1" d="M986.5 741.1c-1.3 0-1.3 0 0 0"/>
        <path class="st1" d="M1153 652.6l1.5-1.5"/>
        <path class="st1" d="M1348 748.6h1.5"/>
        <path class="st1" d="M1502.5 940.6c-1.3 0-1.3 0 0 0"/>
        <path class="st1" d="M1501 1237v-2"/>
        <path class="st1" d="M1391 1465c0 1.7 0 1.7 0 0"/>
    </g>
</svg>
