<svg xmlns="http://www.w3.org/2000/svg" viewBox="0 0 1920 1920">
    <style>
        .st0{fill:#fff}.st1{fill:none;stroke:#231f20;stroke-width:50;stroke-linecap:round;stroke-linejoin:round;stroke-miterlimit:10}
    </style>
    <path class="st0" d="M1037.8 323c64 38 300 122 290 676-5.3 293.8-64.4 543.5-202.5 649.9-46 35.5-100.8 55.1-165.3 55.1-258 0-360.8-313.2-367.8-705-10-554 226-638 290-676 63.2-37.5 77.8-105.8 77.8-106 0 0 14.7 68.5 77.8 106z" id="Layer_5"/>
    <g id="STROKES">
        <path class="st1" d="M1037.8 323C974.7 285.5 960 217 960 217c0 .2-14.7 68.5-77.8 106-64 38-300 122-290 676 7.1 391.8 109.8 705 367.8 705 64.5 0 119.3-19.6 165.3-55.1 138.1-106.5 197.2-356.1 202.5-649.9 10-554-226-638-290-676z"/>
        <path class="st1" d="M960 253v1446"/>
    </g>
</svg>
