<svg xmlns="http://www.w3.org/2000/svg" viewBox="0 0 1920 1920">
    <style>
        .st0{fill:#fff}.st1{fill:none;stroke:#231f20;stroke-width:50;stroke-linecap:round;stroke-linejoin:round;stroke-miterlimit:10}
    </style>
    <path class="st0" d="M960 1621.4l-33.5 33.5c-49.2 49.2-125.6 58.8-185.3 23-125.4-75-209.4-254.5-209-410.7.3-113.8 45-217 117.7-293.5 41-43.1 62.5-101.1 60.2-160.5-.1-3.3-.2-6.6-.2-10 0-138.1 112-250.1 250.1-250.1 138 0 251.3 114.4 250.1 252.3 0 1.8 0 3.5-.1 5.3-1.8 61.3 20.7 120.8 62.6 165.6 71.5 76.5 115.2 179.2 115.2 292.1 0 156.3-83.8 335.2-209 409.8-59.7 35.6-135.9 26-185.1-23.2l-33.7-33.6zm107.7-230.3c0-59.5-48.2-107.7-107.7-107.7s-107.7 48.2-107.7 107.7 48.2 107.7 107.7 107.7 107.7-48.2 107.7-107.7z" id="Layer_4"/>
    <path class="st0" d="M1275.1 217.9s-12.7 264.5-305.6 177.4c0 0-.9-124.5 133.9-140.1 134.7-15.6 145.1 6.2 171.7-37.3z" id="Layer_5"/>
    <path class="st0" d="M960 1283.3c59.5 0 107.7 48.2 107.7 107.7s-48.2 107.7-107.7 107.7-107.7-48.2-107.7-107.7c0-59.4 48.2-107.7 107.7-107.7z" id="Layer_2"/>
    <g id="Layer_1">
        <g id="XMLID_1_">
            <path class="st1" d="M960 1506.9v123"/>
            <path class="st1" d="M969.4 395.4s-.9-124.5 133.9-140.1c134.8-15.6 145.1 6.2 171.7-37.3.1-.1-12.6 264.5-305.6 177.4z"/>
            <path class="st1" d="M960 1621.4l33.7 33.7c49.1 49.1 125.4 58.7 185.1 23.2 125.2-74.6 209-253.5 209-409.8 0-112.9-43.8-215.6-115.2-292.1-41.9-44.8-64.4-104.3-62.6-165.6.1-1.8.1-3.5.1-5.3 1.2-138-112.1-252.3-250.1-252.3-138.1 0-250.1 112-250.1 250.1 0 3.3.1 6.7.2 10 2.3 59.4-19.2 117.4-60.2 160.5-72.7 76.5-117.4 179.8-117.7 293.5-.4 156.2 83.6 335.7 209 410.7 59.7 35.7 136.1 26.2 185.3-23l33.5-33.6z"/>
            <path class="st1" d="M1067.7 1391.1c0 59.5-48.2 107.7-107.7 107.7s-107.7-48.2-107.7-107.7 48.2-107.7 107.7-107.7 107.7 48.2 107.7 107.7z"/>
            <path class="st1" d="M960 216.3v1061"/>
        </g>
    </g>
</svg>
