<svg xmlns="http://www.w3.org/2000/svg" viewBox="0 0 1920 1920">
    <style>
        .st0{fill:#fff}.st1{fill:none;stroke:#231f20;stroke-width:50;stroke-linecap:round;stroke-linejoin:round;stroke-miterlimit:10}
    </style>
    <path class="st0" d="M1321.7 865.4c82.7 88.5 133.4 207.3 133.4 338 0 180.9-97 387.9-241.9 474.3-69.1 41.2-157.3 30.1-214.2-26.8l-.2-.2c-10.7-10.7-24.8-16.1-38.8-16.1s-28.1 5.4-38.8 16.1c-56.7 56.7-144.8 68.1-213.7 27.1-145.4-86.6-243-294.6-242.5-475.7.4-131.6 52.1-251.2 136.2-339.7 47.5-49.9 72.3-117.2 69.7-186.1-.1-3.7-.2-7.5-.2-11.3 0-109.7 61-205.1 151-254.2 34.5-18.8 77.4-12.6 105.2 15.3l.3.3c9.1 9.1 21 13.6 32.9 13.6s23.8-4.5 32.9-13.6c28-28 71.1-34.1 105.7-15 90.3 49.9 151.8 146.6 150.9 256.2 0 2-.1 4.1-.1 6.1-2.3 71 23.7 139.8 72.2 191.7z" id="Layer_3"/>
    <g id="Layer_1">
        <g id="XMLID_1_">
            <path class="st1" d="M962.6 435.5s-46-128 86-218"/>
            <path class="st1" d="M1321.7 865.4c-48.5-51.9-74.5-120.7-72.4-191.7.1-2 .1-4 .1-6.1 1-109.6-60.5-206.4-150.9-256.2-34.6-19.1-77.7-13-105.7 15-9.1 9.1-21 13.6-32.9 13.6s-23.8-4.5-32.9-13.6l-.3-.3c-27.8-27.8-70.7-34.1-105.2-15.3-90 49.1-151 144.5-151 254.2 0 3.8.1 7.5.2 11.3 2.6 68.9-22.2 136.1-69.7 186.1-84.1 88.5-135.9 208-136.2 339.7-.5 181.1 97.1 389.2 242.5 475.7 68.9 41 157 29.6 213.7-27.1 10.7-10.7 24.8-16.1 38.8-16.1s28.1 5.4 38.8 16.1l.2.2c56.9 56.9 145.1 68 214.2 26.8 144.9-86.4 241.9-293.4 241.9-474.3.2-130.7-50.5-249.5-133.2-338z"/>
        </g>
    </g>
</svg>
