<svg xmlns="http://www.w3.org/2000/svg" viewBox="0 0 1920 1920">
    <style>
        .st0{fill:#fff}.st1{fill:none;stroke:#231f20;stroke-width:50;stroke-linecap:round;stroke-linejoin:round;stroke-miterlimit:10}
    </style>
    <path class="st0" d="M1474.6 1279.1c-165.1 66.9-349.7 4.9-437.9-138.6.4-1 .9-2 1.3-3 48.8-114 41.5-238.3-9.6-343.1 24.9-46.1 60.2-87.2 104.2-119.4 16.3-11.9 29-28.1 36.9-46.7l12.8-30.1c4.7-11.1 17.5-16.2 28.5-11.6l30.1 12.8c18.6 7.9 39 10.7 59 7.9 157.7-21.8 314.7 62.2 375.8 213.1 72.5 179-17.5 384.4-201.1 458.7zm-572-638.2c-19.1-14.6-33.9-34.2-42.9-56.5l-14.5-36.2c-2.9-7.3-8.8-12.5-15.6-14.9l-1.3 2.4C356 877.4 481.2 1352.8 481.2 1352.8c216 92.4 464-2.7 555.5-212.2.4-1 .9-2 1.3-3 48.8-114 41.5-238.3-9.6-343.1-28.7-59.1-71.4-112.1-125.8-153.6zm-91.1-107.1l-36.2 14.5c-22.4 9-46.7 11.8-70.5 8-187.4-29.6-376.4 66.9-452.7 245.2-90.5 211.6 12 458.4 229 551.3 0 0-125.2-475.4 347.1-817.1l1.3-2.4c-5.6-2-12-2-18 .5z" id="Layer_3"/>
    <g id="STROKES">
        <g id="XMLID_1_">
            <path class="st1" d="M481.2 1352.8S356 877.4 828.3 535.7"/>
            <path class="st1" d="M1036.7 1140.6c88.2 143.5 272.8 205.5 437.9 138.6 183.6-74.3 273.6-279.7 201.1-458.7-61.1-150.8-218.1-234.8-375.8-213.1-20 2.8-40.4 0-59-7.9l-30.1-12.8c-11.1-4.7-23.8.5-28.5 11.6l-12.8 30.1c-7.9 18.6-20.6 34.8-36.9 46.7-43.9 32.2-79.2 73.3-104.2 119.4"/>
            <path class="st1" d="M1028.4 794.5a430.21 430.21 0 0 0-125.8-153.6c-19.1-14.6-33.9-34.2-42.9-56.5l-14.5-36.2c-2.9-7.3-8.8-12.5-15.6-14.9-5.7-2-12.1-2-18.1.5l-36.2 14.5c-22.4 9-46.7 11.8-70.5 8-187.4-29.6-376.4 66.9-452.7 245.2-90.5 211.6 12 458.4 229 551.3 216 92.4 464-2.7 555.5-212.2.4-1 .9-2 1.3-3 48.9-114 41.6-238.3-9.5-343.1z"/>
            <path class="st1" d="M1474.6 1279.1s-357.1-206.6-281.3-689.8"/>
        </g>
    </g>
</svg>
