<svg xmlns="http://www.w3.org/2000/svg" viewBox="0 0 1920 1920">
    <style>
        .st0{fill:#fff}.st1{fill:none;stroke:#000;stroke-width:50;stroke-linecap:round;stroke-linejoin:round;stroke-miterlimit:10}
    </style>
    <path class="st0" d="M1494.4 1057.9c41.5-136 77.5-341.3 2.4-526.6-123.7 163.2-236.1 224.8-242 235.2-44.2 95.6-96.6 176.4-143.3 238.2.1-.5.2-1 .2-1.5-2.9 3.9-5.8 7.6-8.6 11.3-53.8-216.2-143.9-360.4-214.1-446.1-34.5 65.5-66 126.3-79.9 155.6-38.2 80.6-14.3 108.3-14.3 108.3 163.9 257.8 43 356.4 43 356.4S857.9 1072 737 1072c0 0-430.1 8.7-519.8 106.4 106.1 35.5-50.9 434.4 241.9 417.4 254.6-14.8 249.3-303.9 243.6-343.8 13.9 69 120.5 487.6 620.4 237.4 0 0 76.4-42.9 162.3-19.1 0 0-5.8-110.8-148.7-134 25.9-52.3 8.2-115.9 8.2-115.9 58.9-53.3 108.3-108 149.5-162.5z" id="Layer_9"/>
    <path class="st0" d="M1040.8 424.3c-.3-.7-.7-1.3-1-2 13.2-77.2-21.7-97.1-21.7-97.1S949 453.9 888.9 568.4c70.2 85.7 160.3 230 214.1 446.1 2.9-3.7 5.7-7.5 8.6-11.3 49.3-284.7-29.5-493.9-70.8-578.9zm612.7-160.7c-49.4 110.2-104.1 198.1-156.8 267.6 75.2 185.3 39.2 390.6-2.4 526.6 199.7-264.5 208.1-527.5 197.3-639.9 40-114.6-38.1-154.3-38.1-154.3z" id="Layer_10"/>
    <g id="STROKES">
        <path class="st1" d="M1111.6 1003.2c-2.9 3.9-5.8 7.6-8.6 11.3-53.8-216.2-143.9-360.4-214.1-446.1 60.1-114.5 129.2-243.2 129.2-243.2s34.9 19.9 21.7 97.1c.3.7.7 1.3 1 2 41.3 85 120.1 294.2 70.8 578.9z"/>
        <path class="st1" d="M1691.7 417.9c10.8 112.4 2.4 375.4-197.3 639.9 41.5-136 77.5-341.3 2.4-526.6 52.7-69.5 107.4-157.4 156.8-267.6-.1 0 78 39.7 38.1 154.3z"/>
        <path class="st1" d="M1494.4 1057.9c41.5-136 77.5-341.3 2.4-526.6-123.7 163.2-236.1 224.8-242 235.2-44.2 95.6-96.6 176.4-143.3 238.2.1-.5.2-1 .2-1.5-2.9 3.9-5.8 7.6-8.6 11.3-53.8-216.2-143.9-360.4-214.1-446.1-34.5 65.5-66 126.3-79.9 155.6-38.2 80.6-14.3 108.3-14.3 108.3 163.9 257.8 43 356.4 43 356.4S857.9 1072 737 1072c0 0-430.1 8.7-519.8 106.4 106.1 35.5-50.9 434.4 241.9 417.4 254.6-14.8 249.3-303.9 243.6-343.8 13.9 69 120.5 487.6 620.4 237.4 0 0 76.4-42.9 162.3-19.1 0 0-5.8-110.8-148.7-134 25.9-52.3 8.2-115.9 8.2-115.9 58.9-53.3 108.3-108 149.5-162.5zM701 1242.6c.1.5.9 3.8 1.7 9.3-1.2-5.5-1.7-8.8-1.7-9.3z"/>
        <path class="st1" d="M1688.5 419.9c-13.8 39.8-42 88.7-92.7 148.1"/>
        <path class="st1" d="M1111.9 1002.8c-.1.1-.2.2-.3.4"/>
        <path class="st1" d="M987.9 1139.2c5.1-1.2 54.3-46 115-124.7"/>
        <path class="st1" d="M1335.7 1332.4c-6.3 12.8-15.3 24.8-27.7 35.1"/>
        <path class="st1" d="M705.2 1249.2c-.1 0-.1 0 0 0"/>
        <path class="st1" d="M1040.8 424.2c-6.9 40.6-8.3 63.6-54.3 141.7"/>
    </g>
</svg>
