<svg xmlns="http://www.w3.org/2000/svg" viewBox="0 0 1920 1920">
    <style>
        .st0{fill:#fff}.st1{fill:none;stroke:#000;stroke-width:50;stroke-linecap:round;stroke-linejoin:round;stroke-miterlimit:10}
    </style>
    <path class="st0" d="M1687.2 499.7c8.7 16.8 13.6 35.8 13.6 56v413.1c0 584.6-129.7 613.8-289.8 613.8v-1149h137.5c40.8-17.1 119.3-53.9 121-137.9.1-.1 60.3 122.9 17.7 204z" id="Layer_2"/>
    <path class="st0" d="M1411 614.9v666.7c-.1 91.8-74.6 166.2-166.4 166.2H724.3c-280.6 0-508.1-227.5-508.1-508.1V614.9H1411z" id="Layer_3"/>
    <path class="st0" d="M1411 433.6v102.6H216.2v-1.3c0-55.9 45.3-101.2 101.2-101.2H1411z" id="Layer_7"/>
    <g id="STROKES">
        <path class="st1" d="M1411 536.1H216.3v-1.3c0-55.9 45.3-101.2 101.2-101.2H1411v102.5z"/>
        <path class="st1" d="M724.3 1447.8h520.3c91.9 0 166.4-74.5 166.4-166.4V614.9H216.3v324.8c0 280.6 227.4 508.1 508 508.1z"/>
        <path class="st1" d="M1687.2 499.7c8.7 16.8 13.6 35.8 13.6 56v413.1c0 584.6-129.7 613.8-289.7 613.8v-1149h137.5c40.8-17.1 119.3-53.9 121-137.9 0-.1 60.2 122.9 17.6 204z"/>
        <circle class="st1" cx="1556.7" cy="594.7" r="18.3"/>
    </g>
</svg>
