<svg xmlns="http://www.w3.org/2000/svg" viewBox="0 0 1920 1920">
    <style>
        .st0{fill:#fff}.st1{fill:none;stroke:#000;stroke-width:50;stroke-linecap:round;stroke-linejoin:round;stroke-miterlimit:10}
    </style>
    <path class="st0" d="M811.4 1294.3c-2.6-.4-5.1-.8-7.8-1.3 2.6.5 5.2.9 7.8 1.3zm-7.8-1.2c-4.3-.8-8.7-1.6-13.1-2.5 4.4.9 8.8 1.7 13.1 2.5zm-54.2-13c-2.7-.8-5.4-1.7-8.2-2.6 2.7.9 5.5 1.7 8.2 2.6zm60.1-297.3C900 844.3 1155.7 632.4 1030.4 524c-145-125.4-247.6 0-247.6 0s-562 223.1-568.5 229.6c0 0 175.9 3.3 236.2 81.5 37 48 134.3 118.8 231.4 93.4-24.2 41.9-47.8 88.5-60.7 129.9 53.2-27 119.7-53 188.3-75.6zm-19 307.8c-2.7-.6-5.3-1.1-8-1.7 2.7.5 5.4 1.1 8 1.7zm54.6 7.5c-10.9-.7-22.1-2-33.7-3.8 11.5 1.8 22.7 3.1 33.7 3.8zm140.4-19.3c-2.9 1.1-5.9 2.1-8.9 3.1 3-1 5.9-2 8.9-3.1zm-10.9 3.8c-2.6.9-5.3 1.7-8 2.5 2.7-.8 5.4-1.7 8-2.5zm63.3-28.3c-8.7 5-18 9.9-27.8 14.4 9.8-4.6 19.1-9.4 27.8-14.4zm-76.7 32.3c-2.8.8-5.7 1.6-8.6 2.3 2.9-.7 5.8-1.5 8.6-2.3zm-105.3 12.1l-7.2-.3 7.2.3zm3.5.1c33.4 1 63.9-2.7 91.4-9.5-27.4 6.8-57.9 10.5-91.4 9.5z" id="Layer_4"/>
    <path class="st0" d="M1517.4 882.3c-13-32.6-70-9.8-70-9.8s-97.5 29.1-192.2 36.7c-106.3 180.8-325.5 321-443.7 385.1 4.3.7 8.6 1.3 12.8 1.8 5.7.7 11.2 1.2 16.7 1.7 1.4.1 2.7.2 4.1.3 1.2.1 2.4.2 3.6.2l7.2.3c1.2 0 2.4.1 3.6.1 11 .3 21.7.1 32.1-.5 3.5-.2 7-.5 10.5-.8 1.7-.2 3.4-.3 5.1-.5 15.3-1.6 29.9-4.3 43.7-7.6.6-.1 1.2-.3 1.8-.4 2.9-.7 5.8-1.5 8.6-2.3 1.8-.5 3.6-1 5.4-1.6 2.7-.8 5.4-1.6 8-2.5.6-.2 1.3-.4 1.9-.6 3-1 6-2 8.9-3.1 4.3-1.6 8.5-3.2 12.6-4.9 2.1-.8 4.1-1.7 6.1-2.6 2-.9 4-1.8 5.9-2.7 4.9-2.3 9.7-4.6 14.3-7 2.3-1.2 4.6-2.4 6.8-3.6 2.2-1.2 4.5-2.5 6.6-3.7.9-.5 1.7-1 2.6-1.5 2.6-1.5 5.1-3.1 7.6-4.6 62-38.8 93-85.7 93-85.7 131.9 117.3 179.2-4.9 179.2-4.9 37.5 48.8 148.2 50.5 141.7 6.5s-158-161.3-158-161.3c50-9.7 89.5-20.7 120.3-32.1 82.8-30.6 102.7-64.7 93.2-88.4z" id="Layer_5"/>
    <path class="st0" d="M1566.2 1106.5c-36.7-63.9-99.8-110.1-141.8-135.7-30.8 11.4-70.3 22.4-120.3 32.1 0 0 151.5 117.3 158 161.3 6.5 44-104.2 42.3-141.7-6.5 0 0-47.2 122.2-179.2 4.9 0 0-31 46.9-93 85.7-2.5 1.5-5 3.1-7.6 4.6-.9.5-1.7 1-2.6 1.5-2.2 1.3-4.4 2.5-6.6 3.7-2.2 1.2-4.5 2.4-6.8 3.6-4.6 2.4-9.4 4.7-14.3 7-2 .9-3.9 1.8-5.9 2.7-2 .9-4 1.7-6.1 2.6-4.1 1.7-8.3 3.3-12.6 4.9-2.9 1.1-5.9 2.1-8.9 3.1-.6.2-1.3.4-1.9.6-2.6.9-5.3 1.7-8 2.5-1.8.5-3.6 1.1-5.4 1.6-2.8.8-5.7 1.6-8.6 2.3-.6.2-1.2.3-1.8.4-13.8 3.4-28.4 6-43.7 7.6-1.7.2-3.4.4-5.1.5-3.5.3-6.9.6-10.5.8-10.4.6-21.1.8-32.1.5-1.2 0-2.4-.1-3.6-.1l-7.2-.3c-1.2-.1-2.4-.2-3.6-.2-1.4-.1-2.7-.2-4.1-.3-5.5-.4-11.1-1-16.7-1.7-4.2-.5-8.5-1.1-12.8-1.8-2.6-.4-5.1-.8-7.8-1.3 2.6.4 5.2.9 7.8 1.3 118.2-64.1 337.4-204.3 443.7-385.1-30.1 2.4-60 2.7-86.3-.8-53.3-7.2-211.1 25.7-359.3 74.4-68.6 22.6-135.1 48.5-188.3 75.5-67.4 34.1-113.4 69.9-115.3 102.5-4 69.5 41.7 78.5 78 74.9 53.2 252.6 453.2 213.9 673.9 213.9 236.7 0 261.8-126 261.8-126 29.4-63 185.6-104.2 185.6-104.2s-80.7-10.9-139.3-113zm-825 171c2.7.9 5.5 1.7 8.2 2.6-2.7-.9-5.5-1.7-8.2-2.6zm41.3 11.3c2.7.6 5.3 1.2 8 1.7-2.6-.5-5.3-1.1-8-1.7z" id="Layer_8"/>
    <g id="STROKES">
        <path class="st1" d="M1030.4 524c-145-125.4-247.6 0-247.6 0s-562 223.1-568.5 229.6c0 0 175.9 3.3 236.2 81.5 37 48 134.3 118.8 231.4 93.4-24.2 41.9-47.8 88.5-60.7 129.9 53.2-27 119.8-52.9 188.3-75.5C900 844.3 1155.7 632.4 1030.4 524zM903 616.4c-.8 0-1.5-.7-1.5-1.5s.7-1.5 1.5-1.5 1.5.7 1.5 1.5-.7 1.5-1.5 1.5z"/>
        <circle class="st1" cx="903" cy="614.9" r="1.5"/>
        <path class="st1" d="M681.9 928.5c61-16 121.8-69.8 167.7-191.1"/>
        <path class="st1" d="M1424.3 970.8c-30.8 11.4-70.3 22.4-120.3 32.1 0 0 151.5 117.3 158 161.3 6.5 44-104.2 42.3-141.7-6.5 0 0-47.2 122.2-179.2 4.9 0 0-31 46.9-93 85.7-2.5 1.5-5 3.1-7.6 4.6-.9.5-1.7 1-2.6 1.5-8.7 5-18 9.9-27.8 14.4-2 .9-3.9 1.8-5.9 2.7-2 .9-4 1.7-6.1 2.6-4.1 1.7-8.3 3.3-12.6 4.9-2.9 1.1-5.9 2.1-8.9 3.1-.6.2-1.3.4-1.9.6-2.6.9-5.3 1.7-8 2.5-1.8.5-3.6 1.1-5.4 1.6-2.8.8-5.7 1.6-8.6 2.3-.6.2-1.2.3-1.8.4-27.5 6.7-58 10.4-91.4 9.5-1.2 0-2.4-.1-3.6-.1l-7.2-.3c-1.2-.1-2.4-.2-3.6-.2-10.9-.7-22.1-2-33.7-3.8 118.2-64.1 337.4-204.3 443.7-385.1 94.7-7.6 192.2-36.7 192.2-36.7s57-22.8 70 9.8c9.6 23.4-10.3 57.5-93 88.2z"/>
        <path class="st1" d="M1255.1 909.2c-106.3 180.8-325.5 321-443.7 385.1-2.6-.4-5.1-.8-7.8-1.3-4.3-.8-8.7-1.6-13.1-2.5-2.7-.6-5.3-1.1-8-1.7l-5.4-1.2c-1.8-.4-3.6-.9-5.4-1.3s-3.6-.9-5.5-1.4c-1.8-.5-3.7-1-5.5-1.5s-3.7-1-5.5-1.6l-2.1-.6c-1.2-.4-2.5-.7-3.8-1.1-2.7-.8-5.4-1.7-8.2-2.6l-5.4-1.8c-1-.3-2.1-.7-3.1-1.1-1-.3-1.9-.7-2.9-1-1.9-.7-3.8-1.3-5.8-2-1-.3-1.9-.7-2.9-1.1-1-.4-1.9-.7-2.9-1.1-1-.4-1.9-.7-2.9-1.1l-2.4-.9c-8.2-3.2-16.6-6.6-25.1-10.4-.7-.3-1.5-.7-2.2-1-9.1-4-18.3-8.4-27.6-13.1-1-.5-2.1-1-3.1-1.6-1.4-.7-2.9-1.5-4.3-2.2-1.3-.7-2.6-1.4-4-2.1-3.9-2.1-7.8-4.2-11.8-6.4-1.2-.7-2.4-1.3-3.6-2l-4.8-2.7s-19.3 7.4-42.5 9.7c-36.3 3.6-82-5.3-78-74.9 1.9-32.6 47.9-68.4 115.3-102.5 53.2-27 119.8-52.9 188.3-75.5 148.3-48.8 306.1-81.6 359.3-74.4 26.4 3.6 56.3 3.4 86.4.9z"/>
        <path class="st1" d="M1705.2 1219.4s-156.2 41.3-185.6 104.2c0 0-25.1 126-261.8 126-220.7 0-620.7 38.7-673.9-213.9 23.2-2.3 42.5-9.7 42.5-9.7l4.8 2.7c1.2.7 2.4 1.4 3.6 2 3.9 2.2 7.9 4.3 11.8 6.4 1.3.7 2.7 1.4 4 2.1 1.5.8 2.9 1.5 4.3 2.2 1 .5 2.1 1.1 3.1 1.6 9.3 4.7 18.5 9.1 27.6 13.1.7.3 1.5.7 2.2 1 8.5 3.8 16.9 7.2 25.1 10.4l2.4.9c1 .4 1.9.7 2.9 1.1 1 .4 1.9.7 2.9 1.1 1 .4 1.9.7 2.9 1.1 1.9.7 3.8 1.4 5.8 2 1 .3 1.9.7 2.9 1 1 .4 2.1.7 3.1 1.1l5.4 1.8c2.7.9 5.5 1.7 8.2 2.6 1.3.4 2.5.8 3.8 1.1l2.1.6c1.9.5 3.7 1.1 5.5 1.6 1.8.5 3.7 1 5.5 1.5 1.8.5 3.6 1 5.5 1.4 1.8.5 3.6.9 5.4 1.3l5.4 1.2c2.7.6 5.3 1.2 8 1.7 4.4.9 8.8 1.8 13.1 2.5 2.6.5 5.2.9 7.8 1.3 11.5 1.8 22.8 3 33.7 3.8 1.2.1 2.4.2 3.6.2 2.4.2 4.8.3 7.2.3 1.2.1 2.4.1 3.6.1 33.4 1 63.9-2.7 91.4-9.5.6-.1 1.2-.3 1.8-.4 2.9-.7 5.8-1.5 8.6-2.3 1.8-.5 3.6-1 5.4-1.6 2.7-.8 5.4-1.6 8-2.5.6-.2 1.3-.4 1.9-.6 3-1 6-2 8.9-3.1 4.3-1.6 8.5-3.2 12.6-4.9 2.1-.8 4.1-1.7 6.1-2.6 2-.9 4-1.8 5.9-2.7 9.8-4.5 19.1-9.3 27.8-14.4.9-.5 1.7-1 2.6-1.5 2.6-1.5 5.1-3.1 7.6-4.6 62-38.8 93-85.7 93-85.7 131.9 117.3 179.2-4.9 179.2-4.9 37.5 48.8 148.2 50.5 141.7 6.5s-158-161.3-158-161.3c50-9.7 89.5-20.7 120.3-32.1 42.1 25.6 105.1 71.8 141.8 135.7 58.6 102.3 139 113.1 139 113.1z"/>
        <circle class="st1" cx="903" cy="614.9" r="1.5"/>
    </g>
</svg>
