<svg xmlns="http://www.w3.org/2000/svg" viewBox="0 0 1920 1920">
    <style>
        .st0{fill:#fff}.st1{fill:none;stroke:#231f20;stroke-width:50;stroke-linecap:round;stroke-linejoin:round;stroke-miterlimit:10}.st2{fill:#606060}
    </style>
    <path class="st0" d="M1275.8 998c-19.2 0-34.8-15.6-34.8-34.8v-6.4c0-19.2 15.6-34.8 34.8-34.8h355.3c-98.8-23.9-296-40.8-568.8-43.4-24.5-.2-49.6-.4-75.3-.4-181.4 0-355.3 13.4-498.1 29.3v104.9c142.8 15.9 316.7 29.3 498.1 29.3 25.7 0 50.8-.1 75.3-.4 273-2.6 470.2-19.5 569-43.4h-355.5zm371.2-71.9c10.9 5.9 18.3 17.4 18.3 30.7v6.4c0 13.3-7.5 24.9-18.5 30.8 36.9-10.3 56.2-21.8 56.2-33.9 0-12.2-19.2-23.7-56-34z" id="Layer_15"/>
    <path class="st0" d="M217 974.6c62.3 10.5 157.1 25 272 37.8V907.6c-114.9 12.8-209.7 27.3-272 37.8v29.2zm1430-48.5c-5-1.4-10.2-2.8-15.8-4.1h-355.3c-19.2 0-34.8 15.6-34.8 34.8v6.4c0 19.2 15.6 34.8 34.8 34.8h355.5c5.5-1.3 10.6-2.7 15.4-4 11-5.8 18.5-17.4 18.5-30.8v-6.4c.1-13.3-7.4-24.8-18.3-30.7z" id="Layer_16"/>
    <g id="STROKES">
        <path class="st1" d="M1703 960c0 45.1-267.7 81.7-715.9 81.7-327.3 0-630.3-43.6-770.1-67.1v-29.3c139.7-23.5 442.8-67.1 770.1-67.1 448.2.1 715.9 36.7 715.9 81.8z"/>
        <path class="st1" d="M217 974.6v-29.2"/>
        <path class="st1" d="M1062.4 1041.4V878.6"/>
        <path class="st1" d="M489 1012.4V907.6"/>
        <path class="st1" d="M1630.6 998h-354.7c-19.2 0-34.8-15.6-34.8-34.8v-6.4c0-19.2 15.6-34.8 34.8-34.8h354.7c19.2 0 34.8 15.6 34.8 34.8v6.4c0 19.2-15.6 34.8-34.8 34.8z"/>
        <path class="st2" d="M1646.8 993.9c-4.6 2.5-9.9 3.9-15.4 4 5.5-1.3 10.6-2.6 15.4-4z"/>
        <path class="st2" d="M1647 926.1c-5-1.4-10.2-2.8-15.8-4.1 5.7.1 11.1 1.6 15.8 4.1z"/>
    </g>
</svg>
