<svg xmlns="http://www.w3.org/2000/svg" viewBox="0 0 1920 1920">
    <style>
        .st0{fill:#fff}.st1{fill:none;stroke:#231f20;stroke-width:50;stroke-linecap:round;stroke-linejoin:round;stroke-miterlimit:10}.st2{fill:#606060}
    </style>
    <path class="st0" d="M380 1037.9h100v-90H380v90zm1278-90H810.4v90H1658c12.4 0 23.7-5 31.8-13.2 8.1-8.2 13.2-19.4 13.2-31.8.1-24.9-20.1-45-45-45z" id="Layer_2"/>
    <path class="st0" d="M480 947.9h330.4v90H480z" id="Layer_4"/>
    <path class="st0" d="M217 992.9l163 45v-90z" id="Layer_5"/>
    <g id="STROKES">
        <path class="st1" d="M380 947.9v90l-163.1-45z"/>
        <path class="st1" d="M380 947.9h100v90H380z"/>
        <path class="st1" d="M1703.1 992.9c0 12.4-5 23.7-13.2 31.8-8.2 8.1-19.4 13.2-31.8 13.2H810.4v-90H1658c24.9 0 45.1 20.1 45.1 45z"/>
        <path class="st1" d="M480 947.9h330.4v90H480z"/>
        <path class="st1" d="M1626.6 947.9l-49.3-65.8h-356.7"/>
    </g>
</svg>
