<svg xmlns="http://www.w3.org/2000/svg" viewBox="0 0 1920 1920">
    <style>
        .st0{fill:#fff}.st1{fill:none;stroke:#231f20;stroke-width:50;stroke-linecap:round;stroke-linejoin:round;stroke-miterlimit:10}.st2{fill:#606060}
    </style>
    <path class="st0" d="M867.5 895.4c-124.6-20.2-252.2-13.4-374.2 19l-93.7 24.8L217 971.9v31.3l182.5 32.8h239v-96.9h335c0-20.2-47.1-34.2-106-43.7z" id="Layer_6"/>
    <path class="st0" d="M638.5 939.2h975.7v96.9H638.5z" id="Layer_13"/>
    <path class="st0" d="M1688.8 953.4c-8.8-8.8-20.9-14.2-34.2-14.2h-40.4v96.9h40.4c26.8 0 48.4-21.7 48.4-48.4 0-13.5-5.4-25.6-14.2-34.3z" id="Layer_14"/>
    <g id="STROKES">
        <path class="st1" d="M638.5 939.2v96.8h-239L217 1003.3V972l182.5-32.8z"/>
        <path class="st1" d="M399.5 939.2l93.7-24.8c122.1-32.4 249.6-39.2 374.3-18.9 58.9 9.6 106 23.5 106 43.8h-574z"/>
        <path class="st1" d="M1703 987.6c0 26.8-21.7 48.4-48.4 48.4h-40.4v-96.9h40.4c13.4 0 25.5 5.4 34.3 14.2 8.7 8.8 14.1 20.9 14.1 34.3z"/>
        <path class="st1" d="M638.5 939.2h975.7v96.9H638.5z"/>
    </g>
</svg>
