<svg xmlns="http://www.w3.org/2000/svg" viewBox="0 0 1920 1920">
    <style>
        .st0{fill:#fff}.st1{fill:none;stroke:#231f20;stroke-width:50;stroke-linecap:round;stroke-linejoin:round;stroke-miterlimit:10}.st2{fill:#606060}
    </style>
    <path class="st0" d="M297.7 908.3L216.9 960l80.8 46.6 97.3-18.1v-57z" id="Layer_7"/>
    <path class="st0" d="M395 1006.6h238.2v-93.2H395v93.2zM1689.6 926c-8.3-8.9-20-14.8-33-15.6L1111.9 875c-21.8-1.4-40.3 15.9-40.3 37.8v-19.3h-367v133.1h367v-19.3c0 21.9 18.5 39.2 40.3 37.8l544.7-35.4c26.1-1.7 46.5-23.4 46.5-49.6 0-13.2-5.1-25.2-13.5-34.1z" id="Layer_8"/>
    <path class="st0" d="M633.1 893.5h71.4v133.1h-71.4z" id="Layer_9"/>
    <g id="STROKES">
        <path class="st1" d="M297.7 908.3L216.9 960l80.8 46.6 97.3-18.1v-57z"/>
        <path class="st1" d="M395 913.4h238.2v93.2H395z"/>
        <path class="st1" d="M633.1 893.5h438.4v133.1H633.1z"/>
        <path class="st1" d="M1656.6 910.4L1111.9 875c-21.8-1.4-40.3 15.9-40.3 37.8v94.4c0 21.9 18.5 39.2 40.3 37.8l544.7-35.4c26.1-1.7 46.5-23.4 46.5-49.6 0-26.2-20.4-47.9-46.5-49.6z"/>
        <path class="st1" d="M1568.2 960h-314.9"/>
        <path class="st1" d="M704.5 1026.5v-133"/>
    </g>
</svg>
