<svg xmlns="http://www.w3.org/2000/svg" viewBox="0 0 1920 1920">
    <style>
        .st0{fill:#fff}.st1{fill:none;stroke:#231f20;stroke-width:50;stroke-linecap:round;stroke-linejoin:round;stroke-miterlimit:10}.st2{fill:#606060}
    </style>
    <path class="st0" d="M297.7 909.6L217 961.3l80.7 46.6 97.3-18.2v-56.9z" id="Layer_10"/>
    <path class="st0" d="M441.5 912.1c-25.7 0-46.6 20.9-46.6 46.6 0 12.9 5.2 24.5 13.6 32.9 8.4 8.4 20.1 13.6 32.9 13.6h233.2V912H441.5z" id="Layer_11"/>
    <path class="st0" d="M674.7 912.1v93.2L1703 970.8v-21.6z" id="Layer_12"/>
    <g id="STROKES">
        <path class="st1" d="M297.7 909.6l-80.8 51.7 80.8 46.6 97.3-18.2v-56.9z"/>
        <path class="st1" d="M674.7 1005.3H441.5c-25.7 0-46.6-20.9-46.6-46.6 0-25.7 20.9-46.6 46.6-46.6h233.2v93.2z"/>
        <path class="st1" d="M1703.1 970.8l-1028.4 34.5v-93.2l1028.4 37.1z"/>
    </g>
</svg>
