<svg xmlns="http://www.w3.org/2000/svg" viewBox="0 0 1920 1920">
    <style>
        .st0{fill:#fff}.st1{fill:none;stroke:#231f20;stroke-width:50;stroke-linecap:round;stroke-linejoin:round;stroke-miterlimit:10}
    </style>
    <path class="st0" d="M832.9 586.6s-254.2-78.1-350.6-92.1c-16.4-5.4-33.3-9.4-50.7-11.5L217 457.1s85.1-86.9 201.7-74c24.6 2.7 50.8 5.5 77.7 8v.4c153.4 13.8 336.5 195.1 336.5 195.1z" id="Layer_7"/>
    <path class="st0" d="M1215.8 373.9c124.7 77.6 245.2 269.7 304.1 382.7-3.8-6.3-8-12.4-12.4-18.4-73.2-98.4-227.5-159.1-299-160.9-75.8-1.8-72.1 144.3-98 218.3-25.9 74-129.5 64.7-205.3 33.3-75.8-31.4-118.4-16.6-118.4-16.6S668 556.1 482.3 494.5c96.4 14 350.6 92.1 350.6 92.1S649.8 405.3 496.3 391.5v-.4c100.6 9.1 210.3 12.7 277.4-13.5 85.1-33.3 275.6-107.3 442.1-3.7zM869.9 508.8c94.6 85.8 127.6-11 127.6-11-72.6-57.2-127.6 11-127.6 11z" id="Layer_8"/>
    <path class="st0" d="M1507.5 738.2c-.3 1.2-25.4 104.1-51.2 177.6-24.1 68.8-165 56-184.6 53.9-91.8-28.7-190.2-13.3-192.8 112.6-3.6 178.9 70.9 495.4 75.8 515.9H563s12.8-589.9 223.7-785.9c0 0 42.5-14.8 118.4 16.6 75.8 31.4 179.4 40.7 205.3-33.3 25.9-74 22.2-220.1 98-218.3 71.5 1.8 225.8 62.5 299.1 160.9z" id="Layer_2"/>
    <path class="st0" d="M1271.7 969.7c19.6 2.1 160.5 14.9 184.6-53.9 25.7-73.5 50.9-176.4 51.2-177.6 4.5 6 8.6 12.1 12.4 18.4 19.7 37.9 32.5 66.9 36.3 79.7 14.8 51.1 146.9 273.9 146.9 273.9v488h-548.3c-4.9-20.5-79.4-337-75.8-515.9 2.5-125.9 100.9-141.2 192.7-112.6z" id="Layer_9"/>
    <path class="st0" d="M997.6 497.8s-33 96.8-127.6 11c-.1 0 54.9-68.2 127.6-11z" id="Layer_10"/>
    <g id="STROKES">
        <path class="st1" d="M1703.1 1598.2v-488S1571 887.4 1556.2 836.3c-3.7-12.8-16.5-41.8-36.3-79.7-58.9-113-179.4-305.1-304.1-382.7-166.5-103.6-357-29.6-442.1 3.7-67.1 26.3-176.9 22.6-277.4 13.5-26.9-2.4-53.1-5.2-77.7-8-116.5-12.9-201.7 74-201.7 74L431.5 483c17.4 2.1 34.3 6 50.7 11.5C668 556.1 786.7 812.3 786.7 812.3c-210.9 196-223.7 785.9-223.7 785.9"/>
        <path class="st1" d="M786.7 812.3s42.5-14.8 118.4 16.6c75.8 31.4 179.4 40.7 205.3-33.3 25.9-74 22.2-220.1 98-218.3 71.5 1.7 225.8 62.5 299 160.9 4.5 6 8.6 12.1 12.4 18.4"/>
        <path class="st1" d="M496.3 391.5c153.5 13.9 336.6 195.1 336.6 195.1s-254.2-78.1-350.6-92.1c-.9-.1-1.8-.3-2.6-.4"/>
        <path class="st1" d="M869.9 508.8s55-68.2 127.6-11c.1 0-33 96.8-127.6 11z"/>
        <path class="st1" d="M1155 1599.2s-.1-.4-.2-1.1c-4.9-20.5-79.4-337-75.8-515.9 2.5-125.9 101-141.3 192.8-112.6 43.1 13.5 84.7 36.6 114.3 62.6 92.5 81.4 223 274.1 223 274.1"/>
        <path class="st1" d="M1269.5 969.5s.8.1 2.2.3c19.6 2.1 160.5 14.9 184.6-53.9 25.7-73.5 50.9-176.4 51.2-177.6"/>
    </g>
</svg>
