<svg xmlns="http://www.w3.org/2000/svg" viewBox="0 0 1920 1920">
    <style>
        .st0{fill:#fff}.st1{fill:none;stroke:#231f20;stroke-width:50;stroke-linecap:round;stroke-linejoin:round;stroke-miterlimit:10}
    </style>
    <path class="st0" d="M1077 1325c14 30-2 106-58 178s-24 148-24 148l-35 52.1H721.5S693 1609 837 1617l-10-92s-80-6-110-96-112-584-48-768 118-226 118-226 81.4-32.6 120.8.7c4.3 3.6 8 8 11.2 13.3 32 54-6 182 20 266 10.9 35.2 44 130 30 154-13.2 22.7-110.4 366.7 20.7 482.2 10.3 9.1 26.5 2.5 27.7-11.1 1-11.5 2.4-26 4.1-42.5-.1.1 41.5-2.6 55.5 27.4z" id="Layer_3"/>
    <path class="st0" d="M1021.4 1297.7c-1.7 16.5-3.1 30.9-4.1 42.5-1.2 13.6-17.4 20.2-27.7 11.1-131-115.5-33.9-459.5-20.7-482.2 14-24-19.1-118.8-30-154-26-84 12-212-20-266-3.1-5.3-6.9-9.6-11.2-13.3l20.7-40.9c11.2-23.1 34.9-37.5 60.5-37l64 1.5c57.3 66.9 107.3 160.3 139.9 275.6 52 184 44 610-50 790s106 280 106 280-228 2-254-54c0 0-32-76 24-148s72-148 58-178-55.4-27.3-55.4-27.3z" id="Layer_4"/>
    <path class="st0" d="M787 435s.5-30.8-26.5-67.7l.5-.3 52.3-112.9c36.5-8.2 76.9-14.7 131.7 14.9 37.3 20.1 74 50.6 108.1 90.4l-64-1.5c-25.7-.5-49.3 13.9-60.5 37l-20.7 40.9C868.4 402.4 787 435 787 435zm78-112c0-1.1-.9-2-2-2s-2 .9-2 2 .9 2 2 2 2-.9 2-2z" id="Layer_5"/>
    <path class="st0" d="M813.3 254.1L761 367l-.5.3c-24.9-34-73.4-73.3-167.5-98.3 0 0 64-32 132-10 30.7 9.9 58.2 1.9 88.3-4.9z" id="Layer_6"/>
    <g id="STROKES">
        <path class="st1" d="M760.5 367.3c-24.9-34-73.4-73.3-167.5-98.3 0 0 64-32 132-10 30.7 9.9 58.2 1.9 88.3-4.9 36.5-8.2 76.9-14.7 131.7 14.9 37.3 20.1 74 50.6 108.1 90.4 57.3 66.9 107.3 160.3 139.9 275.6 52 184 44 610-50 790s106 280 106 280-228 2-254-54l-35 52.1H721.5S693 1609 837 1617l-10-92s-80-6-110-96-112-584-48-768 118-226 118-226 .5-30.8-26.5-67.7z"/>
        <path class="st1" d="M787 435s81.4-32.6 120.8.7c4.3 3.6 8 8 11.2 13.3 32 54-6 182 20 266 10.9 35.2 44 130 30 154-13.2 22.7-110.4 366.7 20.7 482.2 10.3 9.1 26.5 2.5 27.7-11.1 1-11.5 2.4-26 4.1-42.5 10.6-102.9 35.1-285 77.6-324.7"/>
        <path class="st1" d="M995 1651s-32-76 24-148 72-148 58-178-55.6-27.3-55.6-27.3"/>
        <path class="st1" d="M907.8 435.7l20.7-40.9c11.2-23.1 34.9-37.5 60.5-37l64 1.5"/>
        <circle class="st1" cx="863" cy="323" r="2"/>
        <path class="st1" d="M761 367l52.3-112.9"/>
    </g>
</svg>
