<svg xmlns="http://www.w3.org/2000/svg" viewBox="0 0 1920 1920">
    <style>
        .st0{fill:#fff}.st1{fill:none;stroke:#231f20;stroke-width:50;stroke-linecap:round;stroke-linejoin:round;stroke-miterlimit:10}
    </style>
    <path class="st0" d="M1300.5 873.6c84.4 84.4 239.3 307.9 166.2 495.5-9.3 23.9-41.7 27.5-56.1 6.3-9.1-13.4-18.3-31.5-25.1-55.7-20.5-72.3-92.5-247.8-183.8-268.3l-1.2-.3s-18.2-390.8-149.2-533.5l34.3-12.1c-7.9 97.3 144.7 297.9 214.9 368.1zM860.9 503.9c-20.3 36-123.3 277-257.9 428-69.1 77.6-222.9 249.6-149.8 437.2 9.3 23.9 41.7 27.5 56.1 6.3 9.1-13.4 18.3-31.5 25.1-55.7 20.5-72.6 94.8-249.4 186.6-268.6.4-17 1.9-34 4.4-50.8 13.1-86.7 51.9-403 158.6-497.8l-19.8-6.5c-.8 3-2 5.6-3.3 7.9z" id="Layer_11"/>
    <path class="st0" d="M1246.2 1703.1h-206.5c-25.8 0-38.3-40-39.3-81.5 12.4-4.1 24.4-10.1 35.4-18.1 28.8-21 61.3-54.6 88.4-108.2.3 3 14.3 126 65.8 154.4 52.1 28.7 56.2 53.4 56.2 53.4zm-360.7-99.7c-28.9-21.1-61.5-54.8-88.7-108.8l-1 .5s-13.7 125.7-65.8 154.5c-52.1 28.8-56.2 53.4-56.2 53.4h206.5c25.8 0 38.5-40.4 39.5-81.9-12.1-4-23.6-9.9-34.3-17.7z" id="Layer_12"/>
    <path class="st0" d="M849.5 245.3c64.1 29.7 7.1 125.9 7.1 125.9-8.7-23.7-21.8-44.1-39.4-55.1-53.2-32.9-228.4-98.6-228.4-98.6s148.6-3.1 233.1 21.9c8.9 2.8 18.2 4.7 27.6 5.9z" id="Layer_13"/>
    <path class="st0" d="M1078.4 263c67.7 42.1 35.4 131.7 9.4 230-1.1 4-1.8 8.2-2.1 12.6l-34.3 12.1c-6.4-7-13.1-13.4-20.1-19.2-19.2-15.8-43.5-24.2-68.4-24.2h-5.7c-25.3 0-49.8 8.9-69.3 25-1.2 1-2.5 2.1-3.7 3.2l-19.8-6.5c9.8-27.7 8-81.7-7.9-124.8 0 0 57.1-96.2-7.1-125.9 78.2 10.5 165.6-21.7 229 17.7zm-115.8 65.7c0-2.6-2.1-4.7-4.7-4.7s-4.7 2.1-4.7 4.7 2.1 4.7 4.7 4.7 4.7-2.1 4.7-4.7z" id="Layer_14"/>
    <path class="st0" d="M1051.3 517.7c131 142.7 149.2 533.5 149.2 533.5l1.2.3c-8.4 141.5-22.6 283-46.5 364.2-8.9 30.5-19.5 56.8-31 79.5-27.2 53.6-59.6 87.2-88.4 108.2-11 8-22.9 14-35.4 18.1-26.2 8.6-54.6 8.5-80.7-.4-12-4.1-23.5-10-34.2-17.7-28.9-21.1-61.5-54.8-88.7-108.8-11.4-22.6-21.9-48.7-30.7-78.9-21.7-74.1-35.5-198.4-44.1-327.1-.8-12.5-1.1-25-.8-37.5.4-17 1.9-34 4.4-50.8 13.1-86.7 51.9-403 158.6-497.8 1.2-1.1 2.4-2.1 3.7-3.2 19.5-16.1 44-25 69.3-25h5.7c24.9 0 49.1 8.4 68.4 24.2 6.9 5.8 13.6 12.2 20 19.2z" id="Layer_15"/>
    <g id="STROKES">
        <path class="st1" d="M795.8 1495.1s-13.7 125.7-65.8 154.5c-52.1 28.8-56.2 53.4-56.2 53.4h206.5c25.8 0 38.5-40.4 39.5-81.9"/>
        <path class="st1" d="M1124.2 1495.1c.3 3 14.3 126.1 65.8 154.5 52.1 28.8 56.2 53.4 56.2 53.4h-206.5c-25.8 0-38.3-40-39.3-81.5"/>
        <path class="st1" d="M884.2 502.5c-106.6 94.8-145.5 411.1-158.6 497.8-2.5 16.8-4 33.8-4.4 50.8-.3 12.5 0 25 .8 37.5 8.7 128.7 22.4 253 44.1 327.1 8.9 30.2 19.3 56.4 30.7 78.9 27.2 54 59.8 87.7 88.7 108.8 10.7 7.8 22.2 13.7 34.2 17.7 26.1 8.9 54.5 9 80.7.4 12.4-4.1 24.4-10.1 35.4-18.1 28.8-21 61.3-54.6 88.4-108.2 11.5-22.7 22.1-49 31-79.5 23.8-81.2 38-222.7 46.5-364.2l-1.2-.3s-18.2-390.8-149.2-533.5c-6.4-7-13.1-13.4-20.1-19.2-19.2-15.8-43.5-24.2-68.4-24.2h-5.7c-25.3 0-49.8 8.9-69.3 25-1.2 1.1-2.4 2.1-3.6 3.2"/>
        <path class="st1" d="M849.5 245.3c-9.4-1.3-18.6-3.1-27.7-5.8-84.5-25-233.1-21.9-233.1-21.9s175.2 65.7 228.4 98.6c17.7 10.9 30.7 31.3 39.4 55.1 15.9 43.1 17.7 97.1 7.9 124.8-1 2.9-2.2 5.6-3.5 7.9-20.3 36-123.3 277-257.9 428-69.1 77.6-222.9 249.6-149.8 437.2 9.3 23.9 41.7 27.5 56.1 6.3 9.1-13.4 18.3-31.5 25.1-55.7 20.5-72.6 94.8-249.4 186.6-268.6"/>
        <path class="st1" d="M1201.7 1051.4c91.2 20.5 163.3 196 183.8 268.3 6.9 24.2 16 42.3 25.1 55.7 14.4 21.2 46.8 17.5 56.1-6.3 73.1-187.6-81.8-411.1-166.2-495.5-70.2-70.2-222.8-270.8-214.9-368 .4-4.4 1-8.6 2.1-12.6 26-98.2 58.3-187.9-9.4-230-63.4-39.4-150.8-7.2-228.9-17.7"/>
        <path class="st1" d="M962.6 328.7c0 2.6-2.1 4.7-4.7 4.7s-4.7-2.1-4.7-4.7 2.1-4.7 4.7-4.7 4.7 2.1 4.7 4.7z"/>
        <path class="st1" d="M856.5 371.2s57.1-96.2-7.1-125.9"/>
        <path class="st1" d="M864.4 496l19.8 6.5"/>
        <path class="st1" d="M1051.3 517.7l34.4-12.1"/>
    </g>
</svg>
