<svg xmlns="http://www.w3.org/2000/svg" viewBox="0 0 1920 1920">
    <style>
        .st0{fill:#fff}.st1{fill:none;stroke:#231f20;stroke-width:50;stroke-linecap:round;stroke-linejoin:round;stroke-miterlimit:10}
    </style>
    <path class="st0" d="M1289.5 1601.1c-14-9-36.3-16.5-68.6-7.8l-52.7-20.7-76-338.6-105-287.4s-6.9-42.3-12-90l131 69.9 53 86 43-19.4v-33.7l-63-57.2-164.1-172.4c12.2-49.4 13.1-182.2-39.6-260.3l2.1-62.8c34.5-6.3 65.3-39.5 74.3-84.3 11.1-55.2-17.7-94.5-61.2-103.2s-85.2 16.4-96.3 71.6c-7.9 39.3 3.2 76.9 26 98.5l-20.1 44.5-103.1 64-107.8 237.4V943s-26 29.2-26 93.3l50.2 50.2 18.8-77.9 11.3 31.4-.8-95.4 18.3-201 28-31.6c12.1 31.3 27.6 86.2 23.4 154.4-6.1 97.8-10.5 133.1 24.6 177.8l-34.6 172.9s-89.1 201.2-76.8 367c0 0-15.4 15.6-15.4 118.4h218.1s7.7-41.6-63-53.9l-56.8-50.7 109-328.6 21.5-104.1c39.4 48.7 74.1 93.1 74.1 93.1s-3 65.1 37.9 145.6c41 80.5 80.5 170.6 79.2 214.3l37.3 84.2 159.6-74.5c11.4-5 12.4-20.2 2.2-26.8z" id="Layer_7"/>
    <g id="STROKES">
        <path class="st1" d="M858.2 589.2L749.4 712"/>
        <path class="st1" d="M888.8 1702.5H670.7c0-102.8 15.4-118.4 15.4-118.4-12.3-165.8 76.8-367 76.8-367l34.6-172.9c3.8 4.8 8 9.7 12.7 14.8 22 23.7 57.2 66.4 89.4 106.2L878 1269.3l-109 328.6 56.8 50.7c70.7 12.3 63 53.9 63 53.9z"/>
        <path class="st1" d="M1289.5 1601.1c-14-9-36.3-16.5-68.6-7.8l-52.7-20.7-76-338.6-105-287.4s-6.9-42.3-12-90c-5-47.1-8.3-99.4-1.6-121.4.5-1.7 1-3.5 1.5-5.4 12.2-49.4 13.1-182.2-39.6-260.3l2.1-62.8c34.5-6.3 65.3-39.5 74.3-84.3 11.1-55.2-17.7-94.5-61.2-103.2-43.5-8.7-85.2 16.4-96.3 71.6-7.9 39.3 3.2 76.9 26 98.5l-20.1 44.5-103.1 64-107.8 237.4V943s-26 29.2-26 93.3l50.2 50.2 18.8-77.9 11.3 31.4-.8-95.4 18.3-201 28-31.6c12.1 31.3 27.6 86.2 23.4 154.4-6.1 97.8-10.5 133.1 24.6 177.8 3.8 4.8 8 9.7 12.7 14.8 22 23.7 57.2 66.4 89.4 106.2 39.4 48.7 74.1 93.1 74.1 93.1s-3 65.1 37.9 145.6 80.5 170.6 79.2 214.3l37.3 84.2 159.6-74.5c11.3-5 12.3-20.2 2.1-26.8z"/>
        <path class="st1" d="M1202.3 959.4v33.7l-43 19.4-53-86-131-69.9c-5-47.1-8.3-99.4-1.6-121.4.5-1.7 1-3.5 1.5-5.4l164.1 172.4 63 57.2z"/>
    </g>
</svg>
