<svg xmlns="http://www.w3.org/2000/svg" viewBox="0 0 1920 1920">
    <style>
        .st0{fill:#fff}.st1{fill:none;stroke:#231f20;stroke-width:50;stroke-linecap:round;stroke-linejoin:round;stroke-miterlimit:10}
    </style>
    <path class="st0" d="M1241.4 1160.1l72.4-72.4-58.6-58.6 116.4-162.4-168-314.8-.6.6v-.6h-153.5c43.9-32.7 72.8-88.7 72.8-152.2 0-100.7-72.6-182.3-162.3-182.7-89.7.4-162.3 82-162.3 182.7 0 63.5 28.9 119.5 72.8 152.2H717v.6l-.6-.6-168 314.8 116.4 162.4-58.6 58.6 72.4 72.4 83.7-83.7v493.8H671v132.9h224.2v-523.8h129.5v523.8H1249v-132.9h-91.3v-493.8l83.7 83.7zM1157.7 696l101.4 170.6-101.4 129.7V696zM762.3 996.3L660.9 866.6 762.3 696v300.3z" id="Layer_5"/>
    <g id="STROKES">
        <path class="st1" d="M1157.7 996.3v80"/>
        <path class="st1" d="M1241.4 1160.1l72.4-72.4-58.6-58.6 116.4-162.4-168.1-314.8-.6.6v-.6h-153.5c43.9-32.7 72.8-88.7 72.8-152.2 0-100.7-72.6-182.3-162.3-182.7-89.7.4-162.3 82-162.3 182.7 0 63.5 28.9 119.5 72.8 152.2H717v.6l-.6-.6-168 314.8 116.4 162.4-58.6 58.6 72.4 72.4 83.7-83.7v493.8H671v132.9h224.2v-523.8h129.5v523.8H1249v-132.9h-91.3v-493.8l83.7 83.7zM1157.7 696l101.5 170.6-101.5 129.7V696zM762.3 996.3L660.9 866.6 762.3 696v300.3z"/>
        <path class="st1" d="M762.3 996.3v80"/>
    </g>
</svg>
