<svg xmlns="http://www.w3.org/2000/svg" viewBox="0 0 1920 1920">
    <style>
        .st0{fill:#fff}.st1{fill:none;stroke:#231f20;stroke-width:50;stroke-linecap:round;stroke-linejoin:round;stroke-miterlimit:10}
    </style>
    <path class="st0" d="M1158.3 1570.1h91.3V1703h-224.2v-523.8H894.7V1703H670.5v-132.9h91.3v-392.2h-151v-102.4h48.7V654.1c0-28.3 11.5-53.8 30-72.4 18.5-18.5 44.1-30 72.4-30h108.2c-43.9-32.7-72.8-88.7-72.8-152.2 0-100.9 72.9-182.6 162.9-182.6s162.9 81.8 162.9 182.6c0 63.5-28.9 119.5-72.8 152.2h108.2c56.5 0 102.3 45.8 102.3 102.3v421.4h48.7v102.4h-151v392.3z" id="Layer_2"/>
    <g id="STROKES">
        <path class="st1" d="M1158.3 1177.9h151v-102.4h-48.7V654.1c0-56.5-45.8-102.4-102.4-102.4H1050c43.9-32.7 72.8-88.7 72.8-152.2 0-100.9-72.9-182.6-162.9-182.6S797 298.7 797 399.5c0 63.5 28.9 119.5 72.8 152.2H761.7c-56.5 0-102.4 45.8-102.4 102.4v421.4h-48.7v102.4h151v392.3h-91.3v132.9h224.2v-523.8h130.7v523.8h224.2v-132.9h-91.3v-392.3z"/>
        <path class="st1" d="M761.7 1177.9V773"/>
        <path class="st1" d="M1158.3 1177.9V782.2"/>
    </g>
</svg>
