<svg xmlns="http://www.w3.org/2000/svg" viewBox="0 0 1920 1920">
    <style>
        .st0{fill:#fff}.st1{fill:none;stroke:#231f20;stroke-width:50;stroke-linecap:round;stroke-linejoin:round;stroke-miterlimit:10}
    </style>
    <path class="st0" d="M1193.3 732.3l-41-234.3s-8.7-32.1-101.9-59.9c0 0-34.3-13.6-51.5-55.3 19.4-17.2 32.3-46.9 32.3-80.7 0-53.2-31.8-90-71.1-90-39.2 0-71.1 36.8-71.1 90 0 33.8 12.8 63.5 32.3 80.7-17.3 41.7-51.5 55.3-51.5 55.3C776.4 466 767.7 498 767.7 498l-41 234.3c-1.1 6.5-1.3 13.2-.4 19.8C744.6 888.3 800.5 980 800.5 980c-6.6 34 13.2 289.6 13.2 289.6-19.8 87.8-3.4 366.7-3.4 366.7-39 20.9-36.3 71.6-36.3 71.6h83.4c0-19 43-32.6 43-32.6 0-30.8-11.5-45.1-11.5-45.1 6.5-32.2 11.5-364.2 11.5-364.2 6.3-58.4 48.2-211.1 59.6-252 11.4 40.8 53.3 193.6 59.6 252 0 0 5 332 11.5 364.2 0 0-11.5 14.3-11.5 45.1 0 0 43 13.6 43 32.6h83.4s2.7-50.8-36.3-71.6c0 0 16.4-279-3.4-366.7 0 0 19.8-255.6 13.2-289.6 0 0 55.9-91.7 74.2-227.9.9-6.6.7-13.3-.4-19.8z" id="Layer_6"/>
    <g id="STROKES">
        <path class="st1" d="M816.3 751.7l15.8 127.1L800.5 980"/>
        <path class="st1" d="M1103.7 751.7l-15.8 127.1 31.6 101.2"/>
        <path class="st1" d="M1109.7 1636.3s16.4-279-3.4-366.7c0 0 19.7-255.6 13.2-289.6 0 0 55.9-91.7 74.2-227.9.9-6.6.7-13.2-.4-19.8l-41-234.3s-8.7-32.1-101.9-59.9c0 0-34.3-13.6-51.5-55.3 19.4-17.2 32.3-46.9 32.3-80.7 0-53.2-31.8-90-71.1-90s-71.1 36.8-71.1 90c0 33.8 12.8 63.5 32.3 80.7-17.3 41.7-51.5 55.3-51.5 55.3C776.4 466 767.7 498 767.7 498l-41 234.3c-1.1 6.5-1.3 13.2-.4 19.8C744.6 888.3 800.5 980 800.5 980c-6.6 34 13.2 289.6 13.2 289.6-19.7 87.7-3.4 366.7-3.4 366.7-39 20.9-36.3 71.6-36.3 71.6h83.4c0-19 43-32.6 43-32.6 0-30.8-11.5-45.1-11.5-45.1 6.5-32.2 11.5-364.2 11.5-364.2 6.3-58.4 48.2-211.1 59.6-252 11.4 40.8 53.3 193.6 59.6 252 0 0 5 332 11.5 364.2 0 0-11.5 14.3-11.5 45.1 0 0 43 13.6 43 32.6h83.4s2.7-50.8-36.3-71.6z"/>
    </g>
</svg>
