<svg xmlns="http://www.w3.org/2000/svg" viewBox="0 0 1920 1920">
    <style>
        .st0{fill:#fff}.st1{fill:none;stroke:#231f20;stroke-width:50;stroke-linecap:round;stroke-linejoin:round;stroke-miterlimit:10}
    </style>
    <path class="st0" d="M1465.5 774.7v95.7h-141.2V625.6h-179V1703H935.8v-124.2h85.3v-454.7h-67.4l-267.2-.3V1413H476.9v-124.2h85.3V999.6h212.5v-374H500V380.7h-45.5V285h141.2v244.8h179v.1h101.1c-41-30.6-68.1-82.9-68.1-142.3 0-94.3 68.2-170.7 152.3-170.7s152.3 76.4 152.3 170.7c0 59.4-27 111.7-68.1 142.3H1420v244.8h45.5z" id="Layer_4"/>
    <path class="st1" d="M1465.5 774.7v95.7h-141.2V625.6h-179V1703H935.8v-124.2h85.3v-454.7h-67.4l-267.2-.3V1413H476.9v-124.2h85.3V999.6h212.5v-374H500V380.7h-45.5V285h141.2v244.8h179v.1h101.1c-41-30.6-68.1-82.9-68.1-142.3 0-94.3 68.2-170.7 152.3-170.7s152.3 76.4 152.3 170.7c0 59.4-27 111.7-68.1 142.3H1420v244.8h45.5z" id="STROKES"/>
</svg>
