<svg xmlns="http://www.w3.org/2000/svg" viewBox="0 0 1920 1920">
    <style>
        .st0{fill:#fff}.st1{fill:none;stroke:#231f20;stroke-width:50;stroke-linecap:round;stroke-linejoin:round;stroke-miterlimit:10}
    </style>
    <path class="st0" d="M1349.3 307.8v1304.4c0 49-39.8 88.8-88.8 88.8h-601c-49 0-88.8-39.8-88.8-88.8V307.8c0-49 39.8-88.8 88.8-88.8h601c49 0 88.8 39.8 88.8 88.8zm-102.6 1130.6V428.5H673.3v1009.8h573.4zM1004 1575.8c0-24.3-19.7-44-44-44s-44 19.7-44 44 19.7 44 44 44 44-19.7 44-44zM795.9 323.1c0-1.7-1.3-3-3-3s-3 1.3-3 3c0 1.6 1.3 3 3 3s3-1.4 3-3z" id="Layer_3"/>
    <path class="st0" d="M673.3 428.5h573.3v1009.8H673.3z" id="Layer_2"/>
    <ellipse class="st0" cx="960" cy="1575.8" rx="44" ry="44" id="Layer_4"/>
    <g id="STROKES">
        <path class="st1" d="M1260.5 1701h-601c-49 0-88.8-39.8-88.8-88.8V307.8c0-49 39.8-88.8 88.8-88.8h601c49 0 88.8 39.8 88.8 88.8v1304.4c0 49-39.8 88.8-88.8 88.8z"/>
        <path class="st1" d="M673.3 428.5h573.3v1009.8H673.3z"/>
        <ellipse class="st1" cx="960" cy="1575.8" rx="44" ry="44"/>
        <path class="st1" d="M903 326.5h114"/>
        <path class="st1" d="M795.9 323.1c0 1.6-1.3 3-3 3s-3-1.4-3-3c0-1.7 1.3-3 3-3s3 1.3 3 3z"/>
    </g>
</svg>
