<svg xmlns="http://www.w3.org/2000/svg" viewBox="0 0 1920 1920">
    <style>
        .st0{fill:#fff}.st1{fill:none;stroke:#231f20;stroke-width:50;stroke-linecap:round;stroke-linejoin:round;stroke-miterlimit:10}
    </style>
    <path class="st0" d="M1189.2 271.8c38.3 12.1 61 51.4 52.5 90.6l-48.4 223.9c-8.3 38.4-43.9 64.6-83 61.1l-167.6-15.8s-77.9 7.3-85.2 99.8c-2.9 36.2-2.9 426 0 462.2 7.3 92.5 85.2 99.8 85.2 99.8l167.6-15.8c39.1-3.5 74.7 22.7 83 61.1l48.4 223.8c8.5 39.2-14.3 78.5-52.5 90.6 0 0-116.1 38.7-137 42.2-199.3 33.6-250-148.3-251.3-151.6-16-41.1-125.7-263.8-124.4-581.4C675.2 645 785 422.2 801 381.1c1.3-3.3 56.6-205.8 251.3-151.6 17.6 5 136.9 42.3 136.9 42.3z" id="Layer_9"/>
    <path class="st1" d="M801 381.1C785 422.2 675.2 645 676.5 962.5c-1.3 317.5 108.4 540.3 124.4 581.4 1.3 3.3 52 185.2 251.3 151.6 20.8-3.5 137-42.2 137-42.2 38.3-12.1 61-51.4 52.5-90.6l-48.4-223.8c-8.3-38.4-43.9-64.6-83-61.1l-167.6 15.8s-77.9-7.3-85.2-99.8c-2.9-36.2-2.9-426 0-462.2 7.3-92.5 85.2-99.8 85.2-99.8l167.6 15.8c39.1 3.5 74.7-22.7 83-61.1l48.4-223.9c8.5-39.2-14.3-78.5-52.5-90.6 0 0-119.2-37.3-137-42.2-194.7-54.4-250 148.1-251.2 151.3z" id="STROKES"/>
</svg>
