<svg xmlns="http://www.w3.org/2000/svg" viewBox="0 0 1920 1920">
    <style>
        .st0{fill:#fff}.st1{fill:none;stroke:#231f20;stroke-width:50;stroke-linecap:round;stroke-linejoin:round;stroke-miterlimit:10}
    </style>
    <path class="st0" d="M1276.7 996.6s-342.2 143.3-633.4 0h-2.1l1.1 128 1.1 125.2 1.1 125.7 1.1 128.8c291.2 143.4 633.4 0 633.4 0V996.6h-2.3z" id="Layer_5"/>
    <path class="st0" d="M655.2 392.3h609.6v371.2H655.2z" id="Layer_6"/>
    <path class="st0" d="M644.3 1375.5l1.1 128.8c291.2 143.4 633.4 0 633.4 0V996.6h-2.1s-342.2 143.4-633.4 0h-2.1l1.1 128 1 125.2 1 125.7zm729.6-944v1128.4c0 39-68.5 74-150.1 101.8-154.3 52.6-395.9 50.7-548.4-6.1-71.8-26.8-129.3-59.5-129.3-95.7V431.5c0-116.7 94.6-211.3 211.3-211.3h405.1c116.8 0 211.4 94.6 211.4 211.3zm-109.1 332V392.3H655.2v371.2h609.6zm-146.2-451.3c0-.9-.7-1.6-1.6-1.6s-1.6.7-1.6 1.6.7 1.6 1.6 1.6 1.6-.8 1.6-1.6zm-100.4 623.1v-62.6c0-14.9-12.1-27-27-27h-62.6c-14.9 0-27 12.1-27 27v62.6c0 14.9 12.1 27 27 27h62.6c15-.1 27-12.1 27-27z" id="Layer_7"/>
    <path class="st0" d="M1018.2 872.7v62.6c0 14.9-12.1 27-27 27h-62.6c-14.9 0-27-12.1-27-27v-62.6c0-14.9 12.1-27 27-27h62.6c15 .1 27 12.1 27 27z" id="Layer_8"/>
    <g id="STROKES">
        <path class="st1" d="M1223.8 1661.8c-154.3 52.6-395.9 50.7-548.4-6.1-71.8-26.8-129.3-59.5-129.3-95.7V431.5c0-116.7 94.6-211.3 211.3-211.3h405.1c116.7 0 211.3 94.6 211.3 211.3v1128.4c.1 39-68.4 74-150 101.9z"/>
        <path class="st1" d="M655.2 392.3h609.6v371.2H655.2z"/>
        <path class="st1" d="M899.4 311.1h121.2"/>
        <circle class="st1" cx="1117" cy="312.2" r="1.6"/>
        <path class="st1" d="M1278.8 996.6v507.7s-342.2 143.4-633.4 0l-1.1-128.8-1-125.7-1-125.2-1.1-128"/>
        <path class="st1" d="M1276.7 996.6s-342.2 143.4-633.4 0"/>
        <path class="st1" d="M1276.7 1124.6s-37.1 15.6-97.3 31.3c-31.1 8.1-68.3 16.3-109.7 22.4-34.1 5-71 8.7-109.7 9.7-35.4 1-72.2-.2-109.7-4.4-36.2-4.1-73-11-109.7-21.5-32.7-9.4-65.3-21.7-97.3-37.4"/>
        <path class="st1" d="M1276.7 1375s-37.1 15.6-97.3 31.3c-31.1 8.1-68.3 16.3-109.7 22.4-34.1 5-71 8.7-109.7 9.7-35.4 1-72.2-.2-109.7-4.4-36.2-4.1-73-11-109.7-21.5-32.3-9.3-64.6-21.4-96.2-36.9-.3-.2-.7-.3-1-.5"/>
        <path class="st1" d="M1276.7 1249.8s-37.1 15.5-97.3 31.3c-31.1 8.1-68.3 16.3-109.7 22.4-34.1 5-71 8.7-109.7 9.7-35.4 1-72.2-.2-109.7-4.4-36.2-4.1-73-11-109.7-21.5-32.7-9.4-65.3-21.7-97.3-37.4"/>
        <path class="st1" d="M991.3 962.2h-62.6c-14.9 0-27-12.1-27-27v-62.6c0-14.9 12.1-27 27-27h62.6c14.9 0 27 12.1 27 27v62.6c-.1 15-12.1 27-27 27z"/>
        <path class="st1" d="M794.1 874.8l-7.8 39.2-95.2-18.9 7.7-39.2"/>
        <path class="st1" d="M1132.6 916.6l-10.2-38.6 93.9-24.7 10.2 38.6"/>
        <path class="st1" d="M965.1 500.2l154.5 154.5"/>
        <path class="st1" d="M1098 497.2l43.3 43.3"/>
        <path class="st1" d="M740.6 1041.4v489.8"/>
        <path class="st1" d="M850.3 1065.3v489.8"/>
        <path class="st1" d="M1069.7 1065.3v489.8"/>
        <path class="st1" d="M960 1065.3v489.8"/>
        <path class="st1" d="M1179.4 1041.4v489.8"/>
    </g>
</svg>
