<svg xmlns="http://www.w3.org/2000/svg" viewBox="0 0 1920 1920">
    <style>
        .st0{fill:#fff}.st1{fill:none;stroke:#231f20;stroke-width:50;stroke-linecap:round;stroke-linejoin:round;stroke-miterlimit:10}
    </style>
    <path class="st0" d="M1278 560v2H714V290h564z" id="Layer_3"/>
    <path class="st0" d="M1702.1 562v238H216V562h1062z" id="Layer_4"/>
    <path class="st0" d="M743.3 1460h433.3v160H743.3z" id="Layer_5"/>
    <g id="STROKES">
        <g id="XMLID_1_">
            <path class="st1" d="M1278 562h424.1v238H216V562h498z"/>
            <path class="st1" d="M714 559V290h564v270"/>
            <path class="st1" d="M222 650h1470"/>
            <path class="st1" d="M1326 808l-363.8 306.7L351 1630H217"/>
            <path class="st1" d="M592 808l370.2 306.7 607.8 503.5h134"/>
            <path class="st1" d="M817.5 1601.7c0-30.4 24.6-55 55-55s55 24.6 55 55"/>
            <path class="st1" d="M992.5 1601.7c0-30.4 24.6-55 55-55s55 24.6 55 55"/>
            <path class="st1" d="M743.3 1460h433.3v160H743.3z"/>
        </g>
    </g>
</svg>
