<svg xmlns="http://www.w3.org/2000/svg" viewBox="0 0 1920 1920">
    <style>
        .st0{fill:#fff}.st1{fill:none;stroke:#231f20;stroke-width:50;stroke-linecap:round;stroke-linejoin:round;stroke-miterlimit:10}
    </style>
    <path class="st0" d="M1596.6 1031.8l86.1-29.8 19.8 19.8v71.5c0 16.3-13.2 29.6-29.6 29.6h-58.2l-16.9-86.5c-.4-1.7-.7-3.2-1.2-4.6zM280 1058.3h-62.5v63.6H281v-63.6h-1z" id="Layer_15"/>
    <path class="st0" d="M1492.4 1054.5c53.5 0 96.8 43.4 96.8 96.8 0 53.5-43.4 96.8-96.8 96.8-53.5 0-96.8-43.4-96.8-96.8 0-53.5 43.3-96.8 96.8-96.8zm-1038.2 96.8c0 53.5 43.4 96.8 96.8 96.8 53.5 0 96.8-43.4 96.8-96.8 0-53.5-43.4-96.8-96.8-96.8s-96.8 43.3-96.8 96.8z" id="Layer_16"/>
    <path class="st0" d="M1625.7 900.4c32.3 3.2 57 30.4 57 62.9v38.6l-86.1 29.8c-5.3-17.4-21-29.8-39.5-30.7l-114.8-5.5c-19.3-.9-36.8 11.2-42.7 29.6l-31.2 97.7h-333.5V756.3l91.6.4c29.2.1 57.8 8 82.9 22.7l163.6 96 252.7 25zm-521 4.2h155.7L1153 824.1h-48.3v80.5zm-69.8 218.2H844.6v-1.5l-26.4-232.8 18.2-97.3c3.9-20.8 22.1-35.8 43.2-35.8l155.2.7v366.7zm-71.7-218.2v-80.5h-62.9v80.5h62.9zm-145-16.1H281v234.2h145.4l15.7-97.4c3.3-20.7 21.2-35.8 42.1-35.8h125.3c19.6 0 36.8 13.1 42 31.9l28 101.3h165.2v-1.5l-26.5-232.7z" id="Layer_17"/>
    <path class="st0" d="M1260.4 904.6h-155.7v-80.5h48.3l107.4 80.5zm-360.2-80.5v80.5h62.9v-80.5h-62.9z" id="Layer_18"/>
    <g id="STROKES">
        <g id="XMLID_4_">
            <path class="st1" d="M1682.7 1002v-38.6c0-32.5-24.6-59.7-57-62.9l-252.6-25.1-163.6-96c-25.1-14.8-53.7-22.6-82.9-22.7l-91.6-.4-155.2-.7c-21.2-.1-39.4 15-43.2 35.8l-18.2 97.3H281v234.2h145.4l15.7-97.4c3.3-20.7 21.2-35.8 42.1-35.8h125.3c19.6 0 36.8 13.1 42 31.9l28 101.3h689l31.2-97.7c5.9-18.4 23.4-30.5 42.7-29.6l114.8 5.5c18.5.9 34.2 13.3 39.5 30.7.4 1.4.8 2.9 1.1 4.5l16.9 86.5h58.2c16.3 0 29.6-13.2 29.6-29.6v-71.5l-19.8-19.7z"/>
            <path class="st1" d="M1034.9 756.8v363"/>
            <path class="st1" d="M314.7 671.9h953"/>
            <path class="st1" d="M348.3 886.1V676.2"/>
            <path class="st1" d="M914.9 750.9v-74.7"/>
            <path class="st1" d="M280 1121.9h-62.5v-63.6H280"/>
            <path class="st1" d="M818.2 888.5l26.4 232.8"/>
            <path class="st1" d="M1102.3 989.5h35.1"/>
            <path class="st1" d="M900.2 824.1h62.9v80.5h-62.9z"/>
            <path class="st1" d="M1104.7 904.6v-80.5h48.3l107.4 80.5z"/>
            <path class="st1" d="M551.1 1054.5c53.5 0 96.8 43.4 96.8 96.8 0 53.5-43.4 96.8-96.8 96.8-53.5 0-96.8-43.4-96.8-96.8-.1-53.5 43.3-96.8 96.8-96.8z"/>
            <path class="st1" d="M1395.6 1151.3c0-53.5 43.3-96.8 96.8-96.8s96.8 43.4 96.8 96.8c0 53.5-43.4 96.8-96.8 96.8-53.5 0-96.8-43.3-96.8-96.8z"/>
            <path class="st1" d="M1682.7 1002l-86.1 29.8"/>
            <path class="st1" d="M739.2 1191.1h549.9"/>
            <path class="st1" d="M371.8 1128.8l-50.8 47.1"/>
        </g>
    </g>
</svg>
