<svg xmlns="http://www.w3.org/2000/svg" viewBox="0 0 1920 1920">
    <style>
        .st0{fill:#fff}.st1{fill:none;stroke:#231f20;stroke-width:50;stroke-linecap:round;stroke-linejoin:round;stroke-miterlimit:10}
    </style>
    <path class="st0" d="M1673 965.8v84h-121.3l-4.7-11.7c-12.2-30.2-41.5-44.5-74.1-44.5h-86.5c-32.1 0-61 14.1-73 43.9l-26.4 94.1-5.6 20h-92.6v-1.4l7.9-49.3c3.9-28.8 12-56.6 24-82.7s27.8-50.4 47.2-72.1c22.5-25.2 54.6-39.6 88.3-39.6h257.4c32.8 0 59.4 26.5 59.4 59.3zm-1275.5 71.3c9.5-23.5 32.3-38.9 57.7-38.9h103.9c34.2 0 62 27.8 58.5 62v91.4h106.7v-109.4c0-55.9-45.3-101.2-101.2-101.2H437.4c-40.9 0-78.1 23.8-95.3 60.9L290 1118.6h80.4l5.6-16.9 21.5-64.6zm-124.7 81.5H290l52.1-116.8c17.2-37.2 54.4-60.9 95.3-60.9H623c55.9 0 101.2 45.3 101.2 101.2v109.4h464.6v-1.4l7.9-49.3c3.9-28.8 12-56.6 24-82.7s27.8-50.4 47.2-72.1c22.5-25.2 54.6-39.6 88.3-39.6H1597v-2.9c0-35.3-27.7-64.4-63-66.1l-321-15.5-93.4-121.8c-15.2-19.9-38.8-31.5-63.9-31.5H907.2c-23.6 0-43.7 17.3-47.1 40.7l-25.5 172.9H272.8v236.4zM912 820.5l10-90.3h137.6l61.6 90.3H912z" id="Layer_3"/>
    <path class="st0" d="M559.1 998.2c34.2 0 62 27.8 58.5 62v79.7c-16.4 49.2-62.9 84.8-117.6 84.8-68.1 0-123.4-54.9-124-122.9l21.5-64.6c9.5-23.5 32.3-38.9 57.7-38.9h103.9zm-15.9 103.4c0-25.6-20.8-46.4-46.4-46.4-25.6 0-46.4 20.8-46.4 46.4 0 25.6 20.8 46.4 46.4 46.4 25.7 0 46.4-20.8 46.4-46.4zm926.5-108c36.8 21.5 61.4 61.4 61.4 107.1 0 68.5-55.5 124-124 124-57.8 0-106.3-39.6-120.1-93.1l26.4-94.1c12-29.8 40.9-43.9 73-43.9h83.3zm-15.5 108c0-25.6-20.8-46.4-46.4-46.4-25.6 0-46.4 20.8-46.4 46.4 0 25.6 20.8 46.4 46.4 46.4 25.6 0 46.4-20.8 46.4-46.4z" id="Layer_4"/>
    <path class="st0" d="M1407.8 1055.2c25.6 0 46.4 20.8 46.4 46.4 0 25.6-20.8 46.4-46.4 46.4-25.6 0-46.4-20.8-46.4-46.4 0-25.6 20.8-46.4 46.4-46.4zm-957.4 46.4c0 25.6 20.8 46.4 46.4 46.4 25.6 0 46.4-20.8 46.4-46.4 0-25.6-20.8-46.4-46.4-46.4-25.6 0-46.4 20.8-46.4 46.4z" id="Layer_5"/>
    <path class="st0" d="M1059.6 730.2l61.6 90.3H912l10-90.3z" id="Layer_6"/>
    <path class="st0" d="M1673 1049.8v40.8c0 21.8-17.7 39.5-39.5 39.5h-49.3l-32.4-80.2c3-.1 78.5-.1 121.2-.1z" id="Layer_7"/>
    <g id="STROKES">
        <g id="XMLID_1_">
            <path class="st1" d="M1597 903.6c0-35.3-27.7-64.4-63-66.1l-321-15.6-93.4-121.8c-15.2-19.9-38.8-31.5-63.9-31.5H907.2c-23.6 0-43.7 17.3-47.1 40.7l-25.5 172.9H272.8v236.5h97.6l5.6-16.9 21.5-64.6c9.5-23.5 32.3-38.9 57.7-38.9h103.9c34.2 0 62 27.8 58.5 62v91.4h663.9l5.6-20 26.4-94.1c12-29.8 40.9-43.9 73-43.9h86.5c32.6 0 61.9 14.3 74.1 44.5l4.7 11.7 32.4 80.2h49.3c21.8 0 39.5-17.7 39.5-39.5V965.8c0-32.8-26.6-59.3-59.3-59.3h-257.5c-33.7 0-65.8 14.4-88.3 39.6-19.3 21.7-35.2 46-47.2 72.1-12 26.1-20.1 54-24 82.7l-7.9 49.3"/>
            <path class="st1" d="M1469.7 993.6c36.8 21.5 61.4 61.4 61.4 107.1 0 68.5-55.5 124-124 124-57.8 0-106.3-39.6-120.1-93.1"/>
            <path class="st1" d="M617.6 1139.9c-16.4 49.2-62.9 84.8-117.6 84.8-68.1 0-123.4-54.9-124-122.9v-1"/>
            <path class="st1" d="M272.8 1118.6h-55.9"/>
            <path class="st1" d="M290 1118.6l52.1-116.8c17.2-37.2 54.4-60.9 95.3-60.9H623c55.9 0 101.2 45.3 101.2 101.2v108"/>
            <path class="st1" d="M813.1 883.5v260.9"/>
            <path class="st1" d="M912 899.3h47.3"/>
            <path class="st1" d="M912 820.5l10-90.3h137.6l61.6 90.3z"/>
            <path class="st1" d="M543.2 1101.6c0 25.6-20.8 46.4-46.4 46.4-25.6 0-46.4-20.8-46.4-46.4 0-25.6 20.8-46.4 46.4-46.4 25.7 0 46.4 20.8 46.4 46.4z"/>
            <path class="st1" d="M1454.2 1101.6c0 25.6-20.8 46.4-46.4 46.4-25.6 0-46.4-20.8-46.4-46.4 0-25.6 20.8-46.4 46.4-46.4 25.6 0 46.4 20.8 46.4 46.4z"/>
            <path class="st1" d="M1551.7 1049.8h150"/>
        </g>
    </g>
</svg>
