<svg xmlns="http://www.w3.org/2000/svg" viewBox="0 0 1920 1920">
    <style>
        .st0{fill:#fff}.st1{fill:none;stroke:#231f20;stroke-width:50;stroke-linecap:round;stroke-linejoin:round;stroke-miterlimit:10}
    </style>
    <path class="st0" d="M1532.4 837.3l-37.6-65.1c-3.4-5.8-5.7-12.2-6.8-18.8l-13.1-74c-2.3-13.3-9.3-25.4-19.7-34.1l-57.6-48.3c-5.1-4.3-9.5-9.5-12.8-15.3l-37.6-65.1c-6.8-11.7-17.4-20.7-30.1-25.3l-70.6-25.7c-6.3-2.3-12.2-5.7-17.3-10l-57.6-48.3c-10.4-8.7-23.4-13.5-37-13.5h-75.1c-6.7 0-13.4-1.2-19.7-3.5l-70.6-25.7c-12.7-4.6-26.6-4.6-39.4 0l-70.6 25.7c-6.3 2.3-13 3.5-19.7 3.5h-75.1c-13.5 0-26.6 4.8-37 13.5L670 455.7c-5.1 4.3-11 7.7-17.3 10l-70.6 25.7c-12.7 4.6-23.4 13.6-30.1 25.3l-37.6 65.1c-3.4 5.8-7.7 11-12.8 15.3L444 645.4c-10.4 8.7-17.3 20.8-19.7 34.1l-13.1 74c-1.2 6.6-3.5 13-6.8 18.8l-37.6 65.1c-6.8 11.7-9.2 25.4-6.8 38.8l13.1 74c1.2 6.6 1.2 13.4 0 20l-13.1 74c-2.3 13.3.1 27 6.8 38.8l37.6 65.1c3.4 5.8 5.7 12.2 6.8 18.8l13.1 74c2.3 13.3 9.3 25.4 19.7 34.1l57.6 48.3c5.1 4.3 9.5 9.5 12.8 15.3l37.6 65.1c6.8 11.7 17.4 20.7 30.1 25.3l70.6 25.7c6.3 2.3 12.2 5.7 17.3 10l57.6 48.3c10.4 8.7 23.4 13.5 37 13.5h75.1c6.7 0 13.4 1.2 19.7 3.5l70.6 25.7c12.7 4.6 26.6 4.6 39.4 0l70.6-25.7c6.3-2.3 13-3.5 19.7-3.5h75.1c13.5 0 26.6-4.8 37-13.5l57.6-48.3c5.1-4.3 11-7.7 17.3-10l70.6-25.7c12.7-4.6 23.4-13.6 30.1-25.3 5.2-9 7.7-18.9 7.7-28.8 0-14.9-5.8-29.6-16.9-40.7L963.4 959.1h512.9c27.9 0 51.8-20 56.6-47.5l6.3-35.5c2.3-13.4-.1-27.1-6.8-38.8z" id="Layer_6"/>
    <path class="st0" d="M1674.5 812.2l-50.3-87.1c-3.3-5.8-5.7-12.2-6.8-18.8l-17.5-99.1c-2.3-13.3-9.3-25.4-19.7-34.1l-77.1-64.7c-5.1-4.3-9.5-9.5-12.8-15.3L1440 406c-6.8-11.7-17.4-20.7-30.1-25.3l-94.5-34.4c-6.3-2.3-12.2-5.7-17.3-10l-77.1-64.7c-10.4-8.7-23.4-13.5-37-13.5h-100.6c-6.7 0-13.4-1.2-19.7-3.5l-94.5-34.4c-12.7-4.6-26.6-4.6-39.4 0l-94.5 34.4c-6.3 2.3-13 3.5-19.7 3.5H715.1c-13.5 0-26.6 4.8-37 13.5L601 336.3c-5.1 4.3-11 7.7-17.3 10l-94.5 34.4c-12.7 4.6-23.4 13.6-30.1 25.3l-50.3 87.1c-3.4 5.8-7.7 11-12.8 15.3l-77.1 64.7c-10.4 8.7-17.3 20.8-19.7 34.1l-17.5 99.1c-1.2 6.6-3.5 13-6.8 18.8l-50.3 87.1c-6.8 11.7-9.2 25.4-6.8 38.7l17.5 99.1c1.2 6.6 1.2 13.4 0 20l-17.5 99.1c-2.4 13.3.1 27 6.8 38.8l50.3 87.1c3.4 5.8 5.7 12.2 6.8 18.8l17.5 99.1c2.4 13.3 9.3 25.4 19.7 34.1l77.1 64.7c5.1 4.3 9.5 9.5 12.8 15.3l50.3 87.1c6.8 11.7 17.4 20.7 30.1 25.3l94.5 34.4c6.3 2.3 12.2 5.7 17.3 10l77.1 64.7c10.4 8.7 23.5 13.5 37 13.5h100.6c6.7 0 13.4 1.2 19.7 3.5l94.5 34.4c12.7 4.6 26.6 4.6 39.4 0l94.5-34.4c6.3-2.3 13-3.5 19.7-3.5h100.6c13.5 0 26.6-4.8 37-13.5l77.1-64.7c5.1-4.3 11-7.7 17.3-10l94.5-34.4c12.7-4.6 23.4-13.6 30.1-25.3l6.5-11.3c13-22.6 9.3-51-9.1-69.4l-68.1-68.1-31.2-31.2c11.1 11.1 16.9 25.8 16.9 40.7 0 9.8-2.5 19.8-7.7 28.8-6.8 11.7-17.4 20.7-30.1 25.3l-70.6 25.7c-6.3 2.3-12.2 5.7-17.3 10l-57.6 48.3c-10.4 8.7-23.4 13.5-37 13.5h-75.1c-6.7 0-13.4 1.2-19.7 3.5l-70.6 25.7c-12.7 4.6-26.6 4.6-39.4 0l-70.6-25.7c-6.3-2.3-13-3.5-19.7-3.5h-75.1c-13.5 0-26.6-4.8-37-13.5l-57.6-48.3c-5.1-4.3-11-7.7-17.3-10l-70.6-25.7c-12.7-4.6-23.4-13.6-30.1-25.3l-37.6-65.1c-3.4-5.8-7.7-11-12.8-15.3l-57.6-48.3c-10.4-8.7-17.3-20.8-19.7-34.1l-13.1-74c-1.2-6.6-3.5-13-6.8-18.8l-37.6-65.1c-6.8-11.7-9.2-25.4-6.8-38.8l13.1-74c1.2-6.6 1.2-13.4 0-20L360 876c-2.3-13.3.1-27 6.8-38.8l37.6-65.1c3.4-5.8 5.7-12.2 6.8-18.8l13.1-74c2.3-13.3 9.3-25.4 19.7-34.1l57.6-48.3c5.1-4.3 9.5-9.5 12.8-15.3l37.6-65.1c6.8-11.7 17.4-20.7 30.1-25.3l70.6-25.7c6.3-2.3 12.2-5.7 17.3-10l57.6-48.3c10.4-8.7 23.4-13.5 37-13.5h75.1c6.7 0 13.4-1.2 19.7-3.5l70.6-25.7c12.7-4.6 26.6-4.6 39.4 0l70.6 25.7c6.3 2.3 13 3.5 19.7 3.5h75.1c13.5 0 26.6 4.8 37 13.5l57.6 48.3c5.1 4.3 11 7.7 17.3 10l70.6 25.7c12.7 4.6 23.4 13.6 30.1 25.3l37.6 65.1c3.3 5.8 7.7 11 12.8 15.3l57.6 48.3c10.4 8.7 17.3 20.8 19.7 34.1l13.1 74c1.2 6.6 3.5 13 6.8 18.8l37.6 65.1c6.8 11.7 9.2 25.4 6.8 38.8l-6.3 35.5c-4.8 27.5-28.7 47.5-56.6 47.5H1614c27.9 0 51.8-20 56.6-47.5l10.7-60.6c2.4-13.3 0-27-6.8-38.7z" id="Layer_7"/>
    <g id="STROKES">
        <path class="st1" d="M1681.3 850.9l-10.7 60.6c-4.8 27.5-28.7 47.5-56.7 47.5H963.2l406 406 68.1 68.1c18.4 18.4 22.2 46.9 9.1 69.4l-6.5 11.3c-6.8 11.7-17.4 20.7-30.1 25.3l-94.5 34.4c-6.3 2.3-12.2 5.7-17.3 10l-77.1 64.7c-10.4 8.7-23.5 13.5-37 13.5h-100.6c-6.7 0-13.4 1.2-19.7 3.5l-94.5 34.4c-12.7 4.6-26.6 4.6-39.3 0l-94.5-34.4c-6.3-2.3-13-3.5-19.7-3.5H715.1c-13.5 0-26.6-4.8-37-13.5l-77.1-64.7c-5.1-4.3-11-7.7-17.3-10l-94.5-34.4c-12.7-4.6-23.4-13.6-30.1-25.3l-50.3-87.1c-3.4-5.8-7.7-11-12.8-15.3l-77.1-64.7c-10.4-8.7-17.3-20.8-19.7-34.1l-17.5-99.1c-1.2-6.6-3.5-13-6.8-18.8l-50.3-87.1c-6.8-11.7-9.2-25.4-6.8-38.8l17.5-99.1c1.2-6.6 1.2-13.4 0-20l-17.5-99.1c-2.3-13.3.1-27 6.8-38.7l50.3-87.1c3.4-5.8 5.7-12.2 6.8-18.8l17.5-99.1c2.3-13.3 9.3-25.4 19.7-34.1l77.1-64.7c5.1-4.3 9.5-9.5 12.8-15.3l50.3-87.1c6.8-11.7 17.4-20.7 30.1-25.3l94.5-34.4c6.3-2.3 12.2-5.7 17.3-10l77.1-64.7c10.4-8.7 23.5-13.5 37-13.5h100.6c6.7 0 13.4-1.2 19.7-3.5l94.5-34.4c12.7-4.6 26.6-4.6 39.3 0l94.5 34.4c6.3 2.3 13 3.5 19.7 3.5H1184c13.5 0 26.6 4.8 37 13.5l77.1 64.7c5.1 4.3 11 7.7 17.3 10l94.5 34.4c12.7 4.6 23.4 13.6 30.1 25.3l50.3 87.1c3.4 5.8 7.7 11 12.8 15.3l77.1 64.7c10.4 8.7 17.3 20.8 19.7 34.1l17.5 99.1c1.2 6.6 3.5 13 6.8 18.8l50.3 87.1c6.8 12 9.2 25.7 6.8 39z"/>
        <path class="st1" d="M963.3 959.1l374.8 374.8c18.4 18.4 22.2 46.9 9.1 69.4-6.8 11.7-17.4 20.7-30.1 25.3l-70.6 25.7c-6.3 2.3-12.2 5.7-17.3 10l-57.6 48.3c-10.4 8.7-23.5 13.5-37 13.5h-75.1c-6.7 0-13.4 1.2-19.7 3.5l-70.6 25.7c-12.7 4.6-26.6 4.6-39.4 0l-70.6-25.7c-6.3-2.3-13-3.5-19.7-3.5h-75.1c-13.5 0-26.6-4.8-37-13.5l-57.6-48.3c-5.1-4.3-11-7.7-17.3-10l-70.6-25.7c-12.7-4.6-23.4-13.6-30.1-25.3l-37.6-65.1c-3.4-5.8-7.7-11-12.8-15.3l-57.6-48.3c-10.4-8.7-17.3-20.8-19.7-34.1l-13-74c-1.2-6.6-3.5-13-6.8-18.8l-37.6-65.1c-6.8-11.7-9.2-25.4-6.8-38.8l13-74c1.2-6.6 1.2-13.4 0-20l-13-74c-2.3-13.3.1-27 6.8-38.8l37.6-65.1c3.4-5.8 5.7-12.2 6.8-18.8l13-74c2.3-13.3 9.3-25.4 19.7-34.1l57.6-48.3c5.1-4.3 9.5-9.5 12.8-15.3l37.6-65.1c6.8-11.7 17.4-20.7 30.1-25.3l70.6-25.7c6.3-2.3 12.2-5.7 17.3-10l57.6-48.3c10.4-8.7 23.5-13.5 37-13.5h75.1c6.7 0 13.4-1.2 19.7-3.5l70.6-25.7c12.7-4.6 26.6-4.6 39.3 0l70.6 25.7c6.3 2.3 13 3.5 19.7 3.5h75.1c13.5 0 26.6 4.8 37 13.5l57.6 48.3c5.1 4.3 11 7.7 17.3 10L1317 491c12.7 4.6 23.4 13.6 30.1 25.3l37.6 65.1c3.4 5.8 7.7 11 12.8 15.3l57.6 48.3c10.4 8.7 17.3 20.8 19.7 34.1l13 74c1.2 6.6 3.5 13 6.8 18.8l37.6 65.1c6.8 11.7 9.2 25.4 6.8 38.7l-6.3 35.5c-4.8 27.5-28.7 47.5-56.7 47.5-212 .4-461.2.4-512.7.4z"/>
        <path class="st1" d="M1681.3 850.9l-10.7 60.6c-4.8 27.5-28.7 47.5-56.7 47.5H963.2l406 406 68.1 68.1c18.4 18.4 22.2 46.9 9.1 69.4l-6.5 11.3c-6.8 11.7-17.4 20.7-30.1 25.3l-94.5 34.4c-6.3 2.3-12.2 5.7-17.3 10l-77.1 64.7c-10.4 8.7-23.5 13.5-37 13.5h-100.6c-6.7 0-13.4 1.2-19.7 3.5l-94.5 34.4c-12.7 4.6-26.6 4.6-39.3 0l-94.5-34.4c-6.3-2.3-13-3.5-19.7-3.5H715.1c-13.5 0-26.6-4.8-37-13.5l-77.1-64.7c-5.1-4.3-11-7.7-17.3-10l-94.5-34.4c-12.7-4.6-23.4-13.6-30.1-25.3l-50.3-87.1c-3.4-5.8-7.7-11-12.8-15.3l-77.1-64.7c-10.4-8.7-17.3-20.8-19.7-34.1l-17.5-99.1c-1.2-6.6-3.5-13-6.8-18.8l-50.3-87.1c-6.8-11.7-9.2-25.4-6.8-38.8l17.5-99.1c1.2-6.6 1.2-13.4 0-20l-17.5-99.1c-2.3-13.3.1-27 6.8-38.7l50.3-87.1c3.4-5.8 5.7-12.2 6.8-18.8l17.5-99.1c2.3-13.3 9.3-25.4 19.7-34.1l77.1-64.7c5.1-4.3 9.5-9.5 12.8-15.3l50.3-87.1c6.8-11.7 17.4-20.7 30.1-25.3l94.5-34.4c6.3-2.3 12.2-5.7 17.3-10l77.1-64.7c10.4-8.7 23.5-13.5 37-13.5h100.6c6.7 0 13.4-1.2 19.7-3.5l94.5-34.4c12.7-4.6 26.6-4.6 39.3 0l94.5 34.4c6.3 2.3 13 3.5 19.7 3.5H1184c13.5 0 26.6 4.8 37 13.5l77.1 64.7c5.1 4.3 11 7.7 17.3 10l94.5 34.4c12.7 4.6 23.4 13.6 30.1 25.3l50.3 87.1c3.4 5.8 7.7 11 12.8 15.3l77.1 64.7c10.4 8.7 17.3 20.8 19.7 34.1l17.5 99.1c1.2 6.6 3.5 13 6.8 18.8l50.3 87.1c6.8 12 9.2 25.7 6.8 39z"/>
    </g>
</svg>
