<svg xmlns="http://www.w3.org/2000/svg" viewBox="0 0 1920 1920">
    <style>
        .st0{fill:#fff}.st1{fill:none;stroke:#231f20;stroke-width:50;stroke-linecap:round;stroke-linejoin:round;stroke-miterlimit:10}
    </style>
    <path class="st0" d="M1549.8 957.7c-144.1 47.1-1328.2 400.1-1332.8 401.5l62 227.1L1403.4 1272l155-310.8c-2.9-1-5.8-2.1-8.6-3.5z" id="Layer_2"/>
    <path class="st0" d="M1487.4 856.3c.3-8.9 1.7-17.6 4.1-25.8-53.2-8.1-93.1-55-91.1-110.1.2-5.5.8-10.8 1.8-16.1-5.5.7-11.1.9-16.8.7-48.9-1.8-89-35.9-100.4-81.2-13.6 5.5-28.6 8.3-44.2 7.8-53.2-1.9-95.9-42.1-102.7-93.2-13.2 5.1-27.6 7.7-42.6 7.1-41.5-1.5-76.6-26.3-93.3-61.3-17 9.9-36.9 15.3-58 14.6-42.4-1.5-78.1-27.4-94.3-63.6-20.4 21.1-49.4 33.8-81.1 32.7-31-1.1-58.5-15.2-77.3-37L217 1359.3c4.6-1.4 1188.7-354.4 1332.8-401.5-38.2-17.7-64-56.9-62.4-101.5z" id="Layer_4"/>
    <path class="st0" d="M1611 753.9c2.4-8.2 3.8-16.9 4.1-25.8 2.1-59.3-44.2-109.1-103.5-111.2-5.7-.2-11.3 0-16.8.7 1-5.2 1.6-10.6 1.8-16.1 2.1-59.3-44.2-109.1-103.5-111.2-15.6-.6-30.6 2.2-44.2 7.8-11.3-45.2-51.4-79.4-100.4-81.1-15-.5-29.4 2-42.6 7.1-6.7-51-49.5-91.3-102.7-93.2-21.1-.8-41 4.6-58 14.6-16.7-35.1-51.8-59.9-93.3-61.3-31.7-1.1-60.7 11.6-81.1 32.7-16.2-36.3-52-62.1-94.3-63.6-59.3-2.1-109.1 44.2-111.2 103.5-1 28.3 9 54.4 26.2 74.3 18.8 21.7 46.3 35.9 77.3 37 31.7 1.1 60.7-11.6 81.1-32.7 16.2 36.3 51.9 62.1 94.3 63.6 21.1.8 41-4.6 58-14.6 16.7 35.1 51.8 59.9 93.3 61.3 15 .5 29.4-2 42.6-7.1 6.8 51.1 49.5 91.3 102.7 93.2 15.6.6 30.6-2.2 44.2-7.8 11.4 45.2 51.5 79.4 100.4 81.2 5.7.2 11.3 0 16.8-.7-1 5.2-1.6 10.6-1.8 16.1-2 55.1 37.9 102 91.1 110.1-2.3 8.2-3.8 16.9-4.1 25.8-1.6 44.6 24.2 83.8 62.4 101.4 2.8 1.3 5.7 2.5 8.6 3.5 10.2 3.7 21.1 5.8 32.5 6.2 59.3 2.1 109.1-44.2 111.2-103.5 2-55.2-37.8-102.1-91.1-110.2z" id="Layer_5"/>
    <g id="STROKES">
        <path class="st1" d="M1558.4 961.3l-155 310.7-1124.5 314.3-62-227.1c4.6-1.4 1188.7-354.4 1332.8-401.5 2.9 1.4 5.8 2.5 8.7 3.6z"/>
        <path class="st1" d="M1549.8 957.7c-144.1 47.1-1328.2 400.1-1332.8 401.5L691.4 431c18.8 21.7 46.3 35.9 77.3 37 31.7 1.1 60.7-11.6 81.1-32.7 16.2 36.3 51.9 62.1 94.3 63.6 21.1.8 41-4.6 58-14.6 16.7 35.1 51.8 59.9 93.3 61.3 15 .5 29.4-2 42.6-7.1 6.7 51 49.5 91.3 102.7 93.2 15.6.6 30.6-2.3 44.2-7.8 11.4 45.2 51.5 79.4 100.4 81.2 5.7.2 11.3 0 16.8-.7-1 5.2-1.6 10.6-1.8 16.1-2 55.1 37.9 102 91.1 110.1-2.3 8.2-3.8 16.9-4.1 25.8-1.5 44.5 24.3 83.7 62.5 101.3z"/>
        <path class="st1" d="M1702.2 864c-2.1 59.3-51.9 105.7-111.2 103.5-11.4-.4-22.3-2.6-32.5-6.2-2.9-1.1-5.8-2.2-8.6-3.6-38.1-17.6-64-56.8-62.4-101.4.3-8.9 1.7-17.6 4.1-25.8-53.2-8.1-93.1-55-91.1-110.1.2-5.5.8-10.8 1.8-16.1-5.5.7-11.1.9-16.8.7-48.9-1.8-89-35.9-100.4-81.2-13.6 5.5-28.6 8.3-44.2 7.8-53.2-1.9-95.9-42.1-102.7-93.2-13.2 5.1-27.6 7.7-42.6 7.1-41.5-1.5-76.6-26.3-93.3-61.3-17 9.9-36.9 15.3-58 14.6-42.4-1.5-78.1-27.4-94.3-63.6-20.4 21.1-49.4 33.8-81.1 32.7-31-1.1-58.5-15.3-77.3-37-17.2-19.8-27.2-46-26.2-74.3 2.1-59.3 51.9-105.7 111.2-103.5 42.4 1.5 78.1 27.4 94.3 63.6 20.4-21.1 49.4-33.8 81.1-32.7 41.5 1.5 76.6 26.3 93.3 61.4 17-9.9 36.9-15.3 58-14.6 53.2 1.9 95.9 42.1 102.7 93.2 13.2-5.1 27.6-7.7 42.6-7.1 48.9 1.8 89 35.9 100.4 81.2 13.6-5.5 28.6-8.3 44.2-7.8 59.3 2.1 105.7 51.9 103.5 111.2-.2 5.5-.8 10.8-1.8 16.1 5.5-.7 11.1-.9 16.8-.7 59.3 2.1 105.7 51.9 103.5 111.2-.3 8.9-1.7 17.6-4.1 25.8 53.2 8.1 93 55 91.1 110.1z"/>
    </g>
</svg>
