<svg xmlns="http://www.w3.org/2000/svg" viewBox="0 0 1920 1920">
    <style>
        .st0{fill:#fff}.st1{fill:none;stroke:#231f20;stroke-width:50;stroke-linecap:round;stroke-linejoin:round;stroke-miterlimit:10}
    </style>
    <path class="st0" d="M1676.1 984.8c-3.8-16.8-3.8-34.3 0-51.1l20.2-88.5c7.8-34.1-.4-69.9-22.2-97.2l-56.6-70.9c-10.8-13.5-18.4-29.2-22.2-46.1l-20.2-88.5c-7.8-34.1-30.7-62.8-62.2-78l-81.7-39.4c-15.6-7.5-29.2-18.4-40-31.9l-56.6-70.9c-21.8-27.3-54.9-43.3-89.9-43.3H1154c-17.3 0-34.3-3.9-49.9-11.4l-81.7-39.4c-31.5-15.2-68.2-15.2-99.7 0L841 267.7c-15.5 7.5-32.6 11.4-49.9 11.4h-90.7c-35 0-68.1 15.9-89.9 43.3L554 393.3c-10.8 13.5-24.4 24.4-40 31.9l-81.7 39.4c-31.5 15.2-54.4 43.9-62.2 78L349.9 631c-3.9 16.8-11.4 32.6-22.2 46.1L271.1 748c-21.8 27.3-30 63.1-22.2 97.2l20.2 88.5c3.8 16.8 3.8 34.3 0 51.1l-20.2 88.5c-7.8 34.1.4 69.9 22.2 97.2l56.6 70.9c10.8 13.5 18.4 29.3 22.2 46.1L370 1376c7.8 34.1 30.7 62.8 62.2 78l81.7 39.4c15.6 7.5 29.2 18.4 40 31.9l56.6 70.9c21.8 27.4 54.9 43.3 89.9 43.3h90.7c17.3 0 34.3 3.9 49.9 11.4l81.8 39.4c31.5 15.2 68.2 15.2 99.7 0l81.7-39.4c15.5-7.5 32.6-11.4 49.9-11.4h90.7c35 0 68.1-15.9 89.9-43.3l56.6-70.9c10.8-13.5 24.4-24.4 40-31.9l81.7-39.4c31.5-15.2 54.4-43.9 62.2-78l20.2-88.4c3.9-16.8 11.4-32.6 22.2-46.1l56.6-70.9c21.8-27.4 30-63.1 22.2-97.2l-20.3-88.6zm-277.9-451.1c23.6 23.5 44.8 48.6 63.6 74.8l-75.2 75.2-67.6-216.8c27.8 19.6 54.3 41.9 79.2 66.8zm-149.3-33.6l76.4 244.8-181.4 181.4-76.4-244.8 181.4-181.4zm-166.4 487.6l-181.4 181.4-76.4-244.8 181.4-181.4 76.4 244.8zM1221 410.8c1.9.9 3.9 1.8 5.8 2.7l-185.2 185.2-75.3-241.3c87-.9 174 16.9 254.7 53.4zm-317.1 4.4L980.3 660 870.8 769.5l-71.9 71.9-76.4-244.8 181.4-181.4zm-66-42.6L696.7 513.7l-23.9-76.6c52.1-29.9 107.8-51.5 165.1-64.5zM737.6 902.8l-181.4 181.4-76.4-244.9 181.4-181.4 76.4 244.9zM433.6 691c28.3-56.8 66.1-110 113.4-157.4 18.9-18.9 38.6-36.2 59.2-52l29.1 93.4L454 756.5 433.6 691zm-6.8 522.5c-39-83.8-57.7-174.6-56-265.2l47.7-47.7 76.4 244.8-68.1 68.1zM547 1384.9c-31.4-31.4-58.6-65.4-81.6-101.3l55.3-55.3 58.1 186.2c-10.9-9.4-21.5-19.3-31.8-29.6zm35-217.9l181.4-181.4 76.4 244.8-181.4 181.4L582 1167zm357.9 393.3c-86.7-4.7-172.6-28.1-251.2-70.1l177-176.9 76.4 244.8.7 2.3c-1 0-2-.1-2.9-.1zm113.1-4.5c-10 1.3-20.1 2.4-30.2 3.3l-19.5-62.3-76.3-244.9 181.4-181.4 76.4 244.8 25.8 82.8-157.6 157.7zm116.7-546.6l181.4-181.4 76.4 244.8-181.4 181.4-76.4-244.8zm228.5 375.7c-27.6 27.6-57.3 52-88.5 73.1l-37.8-121.2 181.4-181.4 35.5 113.7c-24.8 41.3-55 80.2-90.6 115.8zm139.3-217.5l-22.9-73.2 54.5-54.5c-5.8 43.3-16.3 86.2-31.6 127.7zm-48.7-156.1l-76.4-244.9 91.1-91.1c42 78.5 65.4 164.4 70.1 251.2l-84.8 84.8z" id="Layer_8"/>
    <path class="st0" d="M1503.5 675.4l-91.1 91.1 76.4 244.9 84.8-84.8c-4.7-86.8-28.1-172.7-70.1-251.2zm-359.6 251L1325.2 745l-76.4-244.8-181.4 181.4 76.5 244.8zm-306-553.8c-57.2 13.1-112.9 34.6-165 64.6l23.9 76.6 141.1-141.2zm-419.4 528l-47.7 47.7c-1.6 90.6 17 181.4 56 265.2l68-68-76.3-244.9zm216.9-325.5l-29.1-93.4c-20.6 15.8-40.4 33.2-59.2 52C499.6 581 461.8 634.2 433.6 691l20.4 65.4 181.4-181.3zm-79.2 509l181.4-181.4-76.4-244.8-181.4 181.4 76.4 244.8zm794.9-256.3l-181.4 181.4 76.4 244.9 181.4-181.4-76.4-244.9zm-552.2 13.6l71.9-71.9L980.3 660l-76.4-244.8-181.4 181.4 76.4 244.8zm25.9 82.8l76.4 244.8 181.4-181.4-76.4-244.8-181.4 181.4zm-61.4 61.4L582 1166.9l76.4 244.8 181.4-181.4-76.4-244.7zm698.4-377.2c-18.8-26.2-40-51.2-63.6-74.8-24.9-24.9-51.4-47.2-79.2-66.8l67.6 216.7 75.2-75.1zm75.7 559c15.3-41.5 25.8-84.4 31.6-127.7l-54.5 54.5 22.9 73.2zm-848.8 322.8c78.6 42 164.4 65.4 251.2 70.1l2.2-2.2-76.4-244.8-177 176.9zm583.2-153.3l37.8 121.2c31.2-21.1 60.8-45.5 88.5-73.1 35.6-35.6 65.8-74.5 90.6-115.7l-35.5-113.7-181.4 181.3zm-87.1-21.5l-76.4-244.8L927 1251.9l76.4 244.9 19.5 62.3c10.1-.8 20.1-1.9 30.2-3.3l157.6-157.6-25.9-82.8zm-719.4-31.8c23 35.9 50.2 69.9 81.6 101.3 10.3 10.3 20.9 20.2 31.8 29.6l-58.1-186.2-55.3 55.3zm761.4-870.1c-1.9-.9-3.9-1.8-5.8-2.7-80.7-36.5-167.7-54.3-254.6-53.4l75.3 241.3 185.1-185.2z" id="Layer_9"/>
    <g id="STROKES">
        <path class="st1" d="M658.4 1411.8l-36.7 36.7c19.4 13.9 39.4 26.6 60 37.9l-23.3-74.6zm105-426.2L582 1167l76.4 244.8 181.4-181.4-76.4-244.8zm-157.2-504c-20.6 15.8-40.4 33.2-59.2 52C499.6 581 461.8 634.2 433.6 691l20.4 65.4L635.4 575l-29.2-93.4zm55 176.3L479.8 839.3l76.4 244.9 181.4-181.4-76.4-244.9zm-140.5 570.4l-25.8-82.8-76.4-244.8-47.7 47.7c-1.6 90.6 17 181.4 56 265.2 11.2 24 24 47.5 38.6 70.1 23 35.9 50.2 69.9 81.6 101.3 10.3 10.3 20.9 20.2 31.8 29.6l-58.1-186.3zm728.2-728.2L1297 452c-22.7-14.5-46.1-27.4-70.1-38.6l-3.8 3.8-181.4 181.4 25.8 82.8 76.4 244.8L1325.2 745l-76.3-244.9zm265.8 594l-61.4 61.3-181.4 181.4 37.8 121.2c31.2-21.1 60.8-45.5 88.5-73.1 35.6-35.6 65.8-74.5 90.6-115.7 19.6-32.6 35.9-66.7 48.8-101.8 15.3-41.5 25.8-84.4 31.6-127.7l-54.5 54.4zm-163.6-266.3l-181.4 181.4 76.4 244.9 181.4-181.4-76.4-244.9zm152.4-152.4c-12.3-23-26.2-45.4-41.7-66.9-18.8-26.2-40-51.2-63.6-74.8-24.9-24.9-51.4-47.1-79.2-66.8l67.6 216.7 25.8 82.8 76.4 244.9 84.8-84.8c-4.7-86.7-28.1-172.6-70.1-251.1zm-292.9 722.8l-25.8-82.8-76.4-244.9L927 1251.9l76.4 244.9-61.4 61.3-76.4-244.9-177 176.9c78.5 42 164.4 65.4 251.2 70.1 1 .1 1.9.1 2.9.1 26.7 1.3 53.4.9 80.1-1.3 10.1-.8 20.1-1.9 30.2-3.3 65-8.7 128.8-28 188.7-58l-31.1-99.5zm-204.5-655.3L824.8 924.2l76.4 244.8 181.4-181.4-76.5-244.7zM903.9 415.2l57.7-57.7c-24.7.4-49.4 2.4-73.9 5.9-16.7 2.4-33.4 5.4-49.9 9.2-57.2 13.1-112.9 34.6-165 64.6l23.9 76.6 25.8 82.8 76.4 244.8L980.3 660l-76.4-244.8z"/>
        <path class="st1" d="M661.2 657.9L479.8 839.3l76.4 244.9 181.4-181.4-76.4-244.9zm102.2 327.7L582 1167l76.4 244.8 181.4-181.4-76.4-244.8zm0 0L582 1167l76.4 244.8 181.4-181.4-76.4-244.8zM661.2 657.9L479.8 839.3l76.4 244.9 181.4-181.4-76.4-244.9zm0 0L479.8 839.3l76.4 244.9 181.4-181.4-76.4-244.9zm344.9 85L824.8 924.2l76.4 244.8 181.4-181.4-76.5-244.7zM763.4 985.6L582 1167l76.4 244.8 181.4-181.4-76.4-244.8zm0 0L582 1167l76.4 244.8 181.4-181.4-76.4-244.8zm242.7-242.7L824.8 924.2l76.4 244.8 181.4-181.4-76.5-244.7zm-344.9-85L479.8 839.3l76.4 244.9 181.4-181.4-76.4-244.9zm0 0L479.8 839.3l76.4 244.9 181.4-181.4-76.4-244.9zm344.9 85L824.8 924.2l76.4 244.8 181.4-181.4-76.5-244.7zM763.4 985.6L582 1167l76.4 244.8 181.4-181.4-76.4-244.8zm0 0L582 1167l76.4 244.8 181.4-181.4-76.4-244.8zm242.7-242.7L824.8 924.2l76.4 244.8 181.4-181.4-76.5-244.7zm-344.9-85L479.8 839.3l76.4 244.9 181.4-181.4-76.4-244.9zm-55-176.3c-20.6 15.8-40.4 33.2-59.2 52C499.6 581 461.8 634.2 433.6 691l20.4 65.4L635.4 575l-29.2-93.4zm-85.5 746.7l-25.8-82.8-76.4-244.8-47.7 47.7c-1.6 90.6 17 181.4 56 265.2 11.2 24 24 47.5 38.6 70.1 23 35.9 50.2 69.9 81.6 101.3 10.3 10.3 20.9 20.2 31.8 29.6l-58.1-186.3zm137.7 183.5l-36.7 36.7c19.4 13.9 39.4 26.6 60 37.9l-23.3-74.6zm2.8-753.9L479.8 839.3l76.4 244.9 181.4-181.4-76.4-244.9zm102.2 327.7L582 1167l76.4 244.8 181.4-181.4-76.4-244.8zm140.5-570.4l57.7-57.7c-24.7.4-49.4 2.4-73.9 5.9-16.7 2.4-33.4 5.4-49.9 9.2-57.2 13.1-112.9 34.6-165 64.6l23.9 76.6 25.8 82.8 76.4 244.8L980.3 660l-76.4-244.8zm102.2 327.7L824.8 924.2l76.4 244.8 181.4-181.4-76.5-244.7zm204.5 655.3l-25.8-82.8-76.4-244.9L927 1251.9l76.4 244.9-61.4 61.3-76.4-244.9-177 176.9c78.5 42 164.4 65.4 251.2 70.1 1 .1 1.9.1 2.9.1 26.7 1.3 53.4.9 80.1-1.3 10.1-.8 20.1-1.9 30.2-3.3 65-8.7 128.8-28 188.7-58l-31.1-99.5zm38.3-898.1L1297 452c-22.7-14.5-46.1-27.4-70.1-38.6l-3.8 3.8-181.4 181.4 25.8 82.8 76.4 244.8L1325.2 745l-76.3-244.9zm102.2 327.7l-181.4 181.4 76.4 244.9 181.4-181.4-76.4-244.9zm152.4-152.4c-12.3-23-26.2-45.4-41.7-66.9-18.8-26.2-40-51.2-63.6-74.8-24.9-24.9-51.4-47.1-79.2-66.8l67.6 216.7 25.8 82.8 76.4 244.9 84.8-84.8c-4.7-86.7-28.1-172.6-70.1-251.1zm11.2 418.7l-61.4 61.3-181.4 181.4 37.8 121.2c31.2-21.1 60.8-45.5 88.5-73.1 35.6-35.6 65.8-74.5 90.6-115.7 19.6-32.6 35.9-66.7 48.8-101.8 15.3-41.5 25.8-84.4 31.6-127.7l-54.5 54.4zM661.2 657.9L479.8 839.3l76.4 244.9 181.4-181.4-76.4-244.9zm102.2 327.7L582 1167l76.4 244.8 181.4-181.4-76.4-244.8zm242.7-242.7L824.8 924.2l76.4 244.8 181.4-181.4-76.5-244.7zm345 84.9l-181.4 181.4 76.4 244.9 181.4-181.4-76.4-244.9zm0 0l-181.4 181.4 76.4 244.9 181.4-181.4-76.4-244.9zM763.4 985.6L582 1167l76.4 244.8 181.4-181.4-76.4-244.8zm242.7-242.7L824.8 924.2l76.4 244.8 181.4-181.4-76.5-244.7zm-344.9-85L479.8 839.3l76.4 244.9 181.4-181.4-76.4-244.9zm0 0L479.8 839.3l76.4 244.9 181.4-181.4-76.4-244.9zm344.9 85L824.8 924.2l76.4 244.8 181.4-181.4-76.5-244.7zM763.4 985.6L582 1167l76.4 244.8 181.4-181.4-76.4-244.8zm0 0L582 1167l76.4 244.8 181.4-181.4-76.4-244.8zm242.7-242.7L824.8 924.2l76.4 244.8 181.4-181.4-76.5-244.7zm-344.9-85L479.8 839.3l76.4 244.9 181.4-181.4-76.4-244.9zm0 0L479.8 839.3l76.4 244.9 181.4-181.4-76.4-244.9zm344.9 85L824.8 924.2l76.4 244.8 181.4-181.4-76.5-244.7zM763.4 985.6L582 1167l76.4 244.8 181.4-181.4-76.4-244.8zm0 0L582 1167l76.4 244.8 181.4-181.4-76.4-244.8zm242.7-242.7L824.8 924.2l76.4 244.8 181.4-181.4-76.5-244.7zm-344.9-85L479.8 839.3l76.4 244.9 181.4-181.4-76.4-244.9zm102.2 327.7L582 1167l76.4 244.8 181.4-181.4-76.4-244.8zm0 0L582 1167l76.4 244.8 181.4-181.4-76.4-244.8z"/>
        <path class="st1" d="M1569.1 1039.7l-54.5 54.5-61.4 61.3-181.4 181.4-25.8-82.8 181.4-181.4 61.3-61.3 84.8-84.8c2.2 37.7.7 75.5-4.4 113.1z"/>
        <path class="st1" d="M658.4 1411.8l-36.7 36.7c-14.7-10.6-29-21.9-43-34l-58.1-186.2-25.8-82.8-76.4-244.8 61.4-61.4 76.4 244.9L582 1167l76.4 244.8z"/>
        <path class="st1" d="M681.7 1486.4c-20.5-11.4-40.6-24-60-37.9l36.7-36.7 23.3 74.6z"/>
        <path class="st1" d="M1022.8 1559.1c-26.6 2.2-53.4 2.7-80.1 1.3l-.7-2.3 61.4-61.3 19.4 62.3z"/>
        <path class="st1" d="M1143.9 926.4l-61.3 61.3-76.4-244.8-25.9-82.9-76.4-244.9 57.7-57.7c1.6 0 3.2-.1 4.7-.1l75.3 241.3 25.8 82.8 76.5 245z"/>
        <path class="st1" d="M961.6 357.5l-57.7 57.7-16.2-51.8c24.5-3.5 49.2-5.5 73.9-5.9z"/>
        <path class="st1" d="M1488.8 1011.3l-61.3 61.3-76.4-244.9-25.8-82.8-76.4-244.8L1297 452c7.4 4.8 14.8 9.7 22 14.8l67.6 216.7 25.8 82.8 76.4 245z"/>
        <path class="st1" d="M1226.8 413.5l-3.8 3.8-181.4 181.4-75.3-241.3c86.9-.9 174 16.9 254.6 53.4 2 .9 4 1.8 5.9 2.7z"/>
        <path class="st1" d="M1296.9 452.1l-48.1 48.1-25.8-82.8 3.8-3.8c24 11.1 47.5 23.9 70.1 38.5z"/>
        <path class="st1" d="M1537.5 1167.4c-12.9 35-29.1 69.1-48.8 101.8l-35.5-113.7 61.4-61.3 22.9 73.2z"/>
        <path class="st1" d="M798.9 841.4l-61.3 61.4-76.4-244.9-25.8-82.8-29.2-93.4c21.4-16.5 43.7-31.3 66.6-44.5l23.9 76.6 25.8 82.8 76.4 244.8z"/>
        <path class="st1" d="M961.6 357.5L722.5 596.6l-25.8-82.8 141.2-141.2c16.5-3.8 33.1-6.9 49.9-9.2 24.4-3.5 49.1-5.5 73.8-5.9z"/>
        <path class="st1" d="M661.2 657.9L479.8 839.3l-61.4 61.4-47.7 47.7c.7-41.6 5.8-83.1 15.1-123.8l68.1-68.1 181.4-181.4 25.9 82.8z"/>
        <path class="st1" d="M1006.1 742.9L582 1167l-25.8-82.9L980.3 660z"/>
        <path class="st1" d="M1296.9 452.1l-48.1 48.1-181.4 181.4-25.8-82.8L1223 417.3l3.8-3.8c24 11.2 47.5 24 70.1 38.6z"/>
        <path class="st1" d="M520.7 1228.3l-55.3 55.3c-14.5-22.7-27.4-46.1-38.6-70.1l68-68 25.9 82.8z"/>
        <path class="st1" d="M1503.5 675.4l-91.1 91.1-25.8-82.8 75.2-75.2c15.5 21.5 29.4 43.9 41.7 66.9z"/>
        <path class="st1" d="M681.7 1486.4c-20.5-11.4-40.6-24-60-37.9l36.7-36.7 23.3 74.6z"/>
        <path class="st1" d="M1537.5 1167.4c-12.9 35-29.1 69.1-48.8 101.8-24.8 41.2-55 80.2-90.6 115.7-27.6 27.6-57.3 52-88.5 73.1-22 14.9-44.7 28.2-68.1 39.8-59.9 29.9-123.7 49.2-188.7 58-10 1.4-20.1 2.4-30.2 3.3-26.6 2.2-53.4 2.7-80.1 1.3-1 0-1.9-.1-2.9-.1-86.7-4.7-172.6-28.1-251.2-70.1-2.3-1.3-4.7-2.5-7-3.8-20.5-11.4-40.6-24-60-37.9-14.7-10.6-29-21.9-43-34-10.9-9.4-21.5-19.3-31.8-29.6-31.4-31.4-58.6-65.4-81.6-101.3-14.5-22.7-27.4-46.1-38.6-70.1-39-83.8-57.7-174.6-56-265.2.7-41.6 5.8-83.1 15.1-123.8 1.2-5.3 2.5-10.7 3.9-15.9 10.4-40.3 25-79.7 43.8-117.5 28.3-56.8 66.1-110 113.4-157.4 18.9-18.9 38.6-36.2 59.2-52 21.4-16.5 43.7-31.3 66.6-44.5 52.1-30 107.8-51.5 165-64.6 16.5-3.8 33.1-6.9 49.9-9.2 24.5-3.5 49.2-5.4 73.9-5.9 1.6 0 3.2-.1 4.7-.1 86.9-.9 174 16.9 254.6 53.4 1.9.9 3.9 1.8 5.8 2.7 24 11.2 47.4 24 70.1 38.6 7.4 4.8 14.8 9.7 22 14.8 27.8 19.6 54.3 41.9 79.2 66.8 23.6 23.5 44.8 48.6 63.6 74.8 15.5 21.6 29.4 43.9 41.7 66.9 42 78.5 65.4 164.4 70.1 251.2 2 37.7.6 75.6-4.5 113.1-5.2 43.3-15.7 86.2-31 127.7z"/>
        <path class="st1" d="M454 756.5l-68.1 68.1c1.2-5.3 2.5-10.7 3.9-15.9 10.4-40.3 25-79.7 43.8-117.5l20.4 65.3z"/>
        <path class="st1" d="M1309.7 1458c-22 14.9-44.7 28.2-68.1 39.8l-31.1-99.6-25.8-82.8-76.4-244.9 61.4-61.4 76.4 244.9 25.8 82.8 37.8 121.2z"/>
        <path class="st1" d="M1003.4 1496.8l181.4-181.4"/>
        <path class="st1" d="M942 1558.1l-2.1 2.2"/>
        <path class="st1" d="M1053 1555.8l157.6-157.6"/>
        <path class="st1" d="M1351.1 827.8l-181.4 181.4-61.4 61.4L927 1251.9l76.4 244.9-61.4 61.3-76.4-244.9-177 176.9c-2.3-1.3-4.7-2.5-7-3.8l-23.3-74.6 181.4-181.4-76.4-244.8 61.3-61.3L901 1169l181.4-181.4 61.3-61.3L1325.2 745l25.9 82.8z"/>
        <path class="st1" d="M1022.5 228.3l81.7 39.4c15.6 7.5 32.6 11.4 49.9 11.4h90.7c35 0 68.1 15.9 89.9 43.3l56.6 70.9c10.8 13.5 24.4 24.4 40 31.9l81.7 39.4c31.5 15.2 54.4 43.9 62.2 78l20.2 88.5c3.8 16.8 11.4 32.6 22.2 46.1l56.6 70.9c21.8 27.3 30 63.1 22.2 97.2l-20.2 88.5c-3.8 16.8-3.8 34.3 0 51.2l20.2 88.5c7.8 34.1-.4 69.9-22.2 97.2l-56.6 70.9c-10.8 13.5-18.4 29.3-22.2 46.1l-20.2 88.5c-7.8 34.1-30.7 62.8-62.2 78l-81.7 39.4c-15.6 7.5-29.2 18.4-40 31.9l-56.6 70.9c-21.8 27.3-54.9 43.3-89.9 43.3h-90.7c-17.3 0-34.3 3.9-49.9 11.4l-81.7 39.4c-31.5 15.2-68.2 15.2-99.7 0l-81.7-39.4c-15.6-7.5-32.6-11.4-49.9-11.4h-90.7c-35 0-68.1-15.9-89.9-43.3l-56.6-70.9c-10.8-13.5-24.4-24.4-40-31.9l-81.7-39.4c-31.5-15.2-54.4-43.9-62.2-78l-20.2-88.5c-3.8-16.8-11.4-32.6-22.2-46.1l-56.6-70.9c-21.8-27.3-30-63.1-22.2-97.2l20.2-88.5c3.8-16.8 3.8-34.3 0-51.2l-20.2-88.5c-7.8-34.1.4-69.9 22.2-97.2l56.6-70.9c10.8-13.5 18.4-29.3 22.2-46.1l20.2-88.5c7.8-34.1 30.7-62.8 62.2-78l81.7-39.4c15.6-7.5 29.2-18.4 40-31.9l56.6-70.9c21.8-27.3 54.9-43.3 89.9-43.3h90.7c17.3 0 34.3-3.9 49.9-11.4l81.7-39.4c31.4-15.1 68.2-15.1 99.7 0z"/>
    </g>
</svg>
