<svg xmlns="http://www.w3.org/2000/svg" viewBox="0 0 1920 1920">
    <style>
        .st0{fill:#fff}.st1{fill:none;stroke:#231f20;stroke-width:50;stroke-linecap:round;stroke-linejoin:round;stroke-miterlimit:10}
    </style>
    <path class="st0" d="M1156.4 916.5c4 0 7.3-3.3 7.3-7.3s-3.3-7.3-7.3-7.3-7.3 3.3-7.3 7.3 3.3 7.3 7.3 7.3zm-400.1-7.3c0 4 3.3 7.3 7.3 7.3s7.3-3.3 7.3-7.3-3.3-7.3-7.3-7.3-7.3 3.3-7.3 7.3zM364 437.1c103.7 0 393.6 192.7 426 200.8 31.5 7.9 104.5-16.5 165.2-16.3v.1-.1c1.6 0 3.2 0 4.8.1 61.5-1.6 137.7 24.3 170.1 16.2 32.4-8.1 322.3-200.8 426-200.8 103.7 0 146-37.2 145.8-32.4-.2 4.9 11.3 95.6-24.3 145.8s3.2 134.4-79.4 241.3c-82.6 106.9-145.8 183-200.8 184.6-54.5 1.6-121.8-82.6-123.1-84.2 2.3 4.2 184.1 332.6 102 421.1-35.9 38.7-220.8 203.5-416.8 202.5-185.2-1-381.8-165.9-415.7-202.5-82.1-88.5 99.7-416.9 102-421.1-1.3 1.6-68.5 85.8-123.1 84.2-55.1-1.6-118.2-77.7-200.8-184.6-82.6-106.9-43.7-191.1-79.4-241.3s-24.1-140.9-24.3-145.8c-.3-4.9 42.1 32.4 145.8 32.4zm504.4 878.5c5.4 12.8 91 208.1 183.5-.6l-.1-.2c12-4.1 22.6-11.8 30.3-22.3l20.2-27.5c16.3-22.2 16.2-52.5-.2-74.7l-58.9-79.7c-11.9-16.1-30.7-25.6-50.7-25.6h-69.7c-21.5 0-41.5 11-53.1 29.1l-54.3 85.1c-14.5 22.7-12.9 52.2 3.9 73.3l17.7 22.1c7.3 9.1 16.9 15.9 27.7 19.9 1.2.3 2.5.7 3.7 1.1z" id="Layer_5"/>
    <path class="st0" d="M868.4 1315.6c5.7 1.7 11.7 2.6 17.8 2.6h145.1c7.1 0 14-1.2 20.5-3.4l.1.2c-92.5 208.7-178.1 13.4-183.5.6zm54.5-230.7c-21.5 0-41.5 11-53.1 29.1l-54.3 85.1c-14.5 22.7-12.9 52.2 3.9 73.3l17.7 22.1c7.3 9.1 16.9 15.9 27.7 19.9 2.2.4 3.4.6 3.4.6l.3.6c5.7 1.7 11.7 2.6 17.8 2.6h145.1c7.1 0 14-1.2 20.5-3.4 12-4.1 22.6-11.8 30.3-22.3l20.2-27.5c16.3-22.2 16.2-52.5-.2-74.7l-58.9-79.7c-11.9-16.1-30.7-25.6-50.7-25.6h-69.7z" id="Layer_6"/>
    <g id="STROKES">
        <path class="st1" d="M1274.2 892.2c1.3 1.7 68.6 85.8 123.1 84.2 55.1-1.6 118.2-77.7 200.8-184.6 82.6-106.9 43.7-191.1 79.4-241.3s24.1-140.9 24.3-145.8c.2-4.9-42.1 32.4-145.8 32.4-103.7 0-393.6 192.7-426 200.8-32.4 8.1-108.5-17.8-170.1-16.2-1.6 0-3.2-.1-4.8-.1h-.1c-60.6-.2-133.6 24.1-165.2 16.3-32.4-8.1-322.3-200.8-426-200.8s-146-37.2-145.8-32.4c.2 4.9-11.3 95.6 24.3 145.8s-3.2 134.4 79.4 241.3c82.6 106.9 145.8 183 200.8 184.6 54.5 1.6 121.8-82.6 123.1-84.2"/>
        <path class="st1" d="M645.8 892.2c-2.4 4.2-184.1 332.6-102 421.1 33.9 36.5 230.6 201.4 415.7 202.5 196 1.1 380.9-163.8 416.8-202.5 82.1-88.5-99.7-416.9-102-421.1"/>
        <path class="st1" d="M1249.9 770.7s-3.2-145.8 202.5-204.1c172-48.7 247.8-147.4 247.8-147.4"/>
        <path class="st1" d="M678.2 770.7s3.2-145.8-202.5-204.1c-172-48.7-247.8-147.4-247.8-147.4"/>
        <path class="st1" d="M1156.4 916.5c-4 0-7.3-3.3-7.3-7.3s3.3-7.3 7.3-7.3 7.3 3.3 7.3 7.3-3.3 7.3-7.3 7.3z"/>
        <path class="st1" d="M763.6 916.5c-4 0-7.3-3.3-7.3-7.3s3.3-7.3 7.3-7.3 7.3 3.3 7.3 7.3-3.3 7.3-7.3 7.3z"/>
        <path class="st1" d="M864.7 1314.4c-10.8-3.9-20.4-10.7-27.7-19.9l-17.7-22.1c-16.9-21.1-18.4-50.5-3.9-73.3l54.3-85.1c11.6-18.1 31.6-29.1 53.1-29.1h69.7c20 0 38.8 9.5 50.7 25.6l58.9 79.7c16.4 22.2 16.4 52.4.2 74.7l-20.2 27.5c-7.7 10.5-18.3 18.2-30.3 22.3-6.5 2.2-13.5 3.4-20.5 3.4H886.2c-6.1 0-12.1-.9-17.8-2.6-1.2-.3-2.5-.7-3.7-1.1z"/>
        <path class="st1" d="M899.3 1221l24.3-32.4"/>
        <path class="st1" d="M1020.7 1221l-24.3-32.4"/>
        <path class="st1" d="M672.1 1248.5c62.9 42.4 172.1 62.4 192.6 65.9 2.2.4 3.4.6 3.4.6l.3.6c5.4 12.8 91 208.1 183.5-.6 0 0 126.3-19.4 196-66.4"/>
        <path class="st1" d="M895.2 529.4l59.9 92.2v.1l.1-.1 69.6-127.8"/>
    </g>
</svg>
