<svg xmlns="http://www.w3.org/2000/svg" viewBox="0 0 1920 1920">
    <style>
        .st0{fill:#fff}.st1{fill:none;stroke:#231f20;stroke-width:50;stroke-linecap:round;stroke-linejoin:round;stroke-miterlimit:10}
    </style>
    <path class="st0" d="M629.4 1329.9c-9.2-39.4-29.4-129.8-25.8-155.6 4.5-33.3 51.5-148.5 51.5-148.5s18.7 33.6 63.4 61.3l-42.2 125.1 25.8 107.6s-36.3 23.7-72.7 10.1zm578.7-110.2l-27.3-124.1s-23.8 2.9-62.6 7c3 7.7 14.1 112.6 14.1 112.6l-33.3 54.6 30.3 22.7 7.6 40.9s28.9 38.8 113.8 11.5l-13.8-67.6-45.5-6.1 16.7-51.5zm0 0l-16.7 51.5 45.5 6.1 13.8 67.6 1.4 6.6s66.7 27.3 118.2 1.5c0 0-106.1-110.5-42.4-307.5 0 0 120.2-35 161.1-72.9 52.9 6.4 84.4 11.1 105.6 3.2 6.6-2.5 13.1-5 19.4-7.7v-70c5.2-21.8 24.2-37.5 46.6-38.4l26.4-1.1.1-.3c-19-9.6-91.9-48.3-88-72 4.5-27.3-15.2-50-22.7-56.1-1.3-1-1.5-4.2-1-9.1h-.5c-30.3-60.6-68.2-65.1-72.7-62.1l-28.8-4.5-75.8-78.8s-16 25.6-29.4 58.8c-90.9 27.3-303.9 14-303.9 14-72.7-4.5-383.3-74.2-510.6-18.2-127.3 56.1-260.6 269.7-80.3 404.5 0 0 36.4 60.6 12.1 92.4 0 0 63.6 143.9 40.9 193.9 0 0 45.5 36.4 107.6 27.3 0 0-1.8-7.2-4.5-18.7-9.2-39.4-29.4-129.8-25.8-155.6 4.5-33.3 51.5-148.5 51.5-148.5s18.7 33.6 63.4 61.3c34.7 21.6 85.2 39.7 154.8 35.7 95.4-5.5 187-14.2 245-20.3 38.8-4.1 62.6-7 62.6-7l27.1 124.4zm317.5-421.1c-1.3 0-2.3-1-2.3-2.3 0-1.3 1-2.3 2.3-2.3 1.2 0 2.3 1 2.3 2.3-.1 1.2-1.1 2.3-2.3 2.3zm-23.5-139.4c4.5-3 42.4 1.5 72.7 62.1h.5c2.7-23.7 24.2-85.7 34.3-112.2 12.1-31.8-31.8-65.2-31.8-65.2l-75.7 115.3z" id="Layer_3"/>
    <path class="st0" d="M1687 858.5c2.8 1.4 4.5 2.2 4.5 2.2 25.8 34.9-4.5 80.3-27.3 87.9-16.6 5.5-33.1 12.6-50.2 19.6v-70c5.2-21.8 24.2-37.5 46.6-38.4l26.4-1.1v-.2z" id="Layer_4"/>
    <g id="STROKES">
        <path class="st1" d="M1488.9 972.7c-40.9 37.9-161.1 72.9-161.1 72.9-63.6 197 42.4 307.5 42.4 307.5-51.5 25.8-118.2-1.5-118.2-1.5l-1.4-6.6-13.8-67.6-45.5-6.1 16.7-51.5-27.3-124.1s-23.8 2.9-62.6 7c-58 6.1-149.6 14.8-245 20.3-69.6 4-120.1-14.1-154.8-35.7-44.7-27.7-63.4-61.3-63.4-61.3s-47 115.2-51.5 148.5c-3.5 25.8 16.6 116.1 25.8 155.6 2.7 11.5 4.5 18.7 4.5 18.7-62.1 9.1-107.6-27.3-107.6-27.3 22.7-50-40.9-193.9-40.9-193.9 24.2-31.8-12.1-92.4-12.1-92.4-180.3-134.9-47-348.5 80.3-404.5 127.3-56.1 437.9 13.6 510.6 18.2 0 0 213 13.3 303.9-14"/>
        <path class="st1" d="M1385.4 881.9s10.6 80.3 78.8 87.9c8.7 1 17 1.9 24.8 2.9 52.9 6.4 84.4 11.1 105.6 3.2 6.6-2.5 13.1-5 19.4-7.7 17.1-7 33.7-14.1 50.2-19.6 22.7-7.6 53-53 27.3-87.9 0 0-1.6-.8-4.5-2.2-19-9.6-91.9-48.3-88-72 4.5-27.3-15.2-50-22.7-56.1-1.3-1-1.5-4.2-1-9.1 2.7-23.7 24.2-85.7 34.3-112.2 12.1-31.8-31.8-65.2-31.8-65.2L1502 659.1l-28.8-4.5-75.8-78.8s-16 25.6-29.4 58.8c-23.1 57-38.6 136.2 47.6 145.8"/>
        <path class="st1" d="M1613.9 968.2v-70c5.2-21.8 24.2-37.5 46.6-38.4l26.4-1.1"/>
        <path class="st1" d="M1527.8 796.3c0 1.2-1 2.3-2.3 2.3-1.3 0-2.3-1-2.3-2.3 0-1.3 1-2.3 2.3-2.3 1.3 0 2.3 1 2.3 2.3z"/>
        <path class="st1" d="M452.2 709.3c-55.3 55.3-145 55.3-200.4 0-44.3-44.3-44.3-116 0-160.3 35.4-35.4 92.8-35.4 128.2 0 28.3 28.3 28.3 74.2 0 102.6-22.7 22.7-59.4 22.7-82.1 0"/>
        <path class="st1" d="M1502.1 659.2c4.5-3 42.4 1.5 72.7 62.1"/>
        <path class="st1" d="M718.5 1087.1l-42.2 125.1 25.8 107.6s-36.3 23.8-72.7 10.1"/>
        <path class="st1" d="M1118.3 1102.5c3 7.7 14.1 112.6 14.1 112.6l-33.3 54.6 30.3 22.7 7.6 40.9s28.9 38.8 113.8 11.5"/>
    </g>
</svg>
