<svg xmlns="http://www.w3.org/2000/svg" viewBox="0 0 1920 1920">
    <style>
        .st0{fill:#fff}.st1{fill:none;stroke:#231f20;stroke-width:50;stroke-linecap:round;stroke-linejoin:round;stroke-miterlimit:10}
    </style>
    <path class="st0" d="M1237.5 1149.8s118.4-158.9 109.1-312.1c-8.3-136.4-38.6-195.5-45.2-206.9-2.2 10.2-5 19.1-9.1 26.8-1.6 3.1-3.5 6-5.6 8.7 2.1-2.7 4-5.7 5.6-8.7 4.1-7.7 6.8-16.6 9.1-26.8 6-27.6 8.5-65.1 24.7-116.6 34.1-108.4-45.6-154.5-20.1-190.4 25.5-35.9-28-103.3-27.9-106.8.1-2.3-81.9 119-142.9 200.9-15.9 21.4-30.4 40.1-41.7 53.3 11.2-13.1 25.8-31.9 41.7-53.3-198.5-137.9-367 3.8-367 3.8 23.3 31.2 43.3 56.1 53.9 65.4-10.6-9.2-30.6-34.2-53.9-65.4-61.3-82-145.9-207.1-145.8-204.8.2 3.5-53.3 71-27.9 106.8 25.5 35.9-54.2 82-20.1 190.4 15.8 50.2 18.5 87.1 24.2 114.5h-.1s-37.1 55.7-46.4 209 106.1 312.1 106.1 312.1l13.1 412.3s-34.1 66.6-37.1 116.1c0 0 55.7 55.7 168.7 0l-24.8-128.5 9.6-63.8c39.2 57.8 139 8.1 139 8.1L905 1401l9.7-201.2h70.5l9.6 201.2-21.7 92.9s95.6 49.6 134.8-8.2v.3l9.6 63.8-24.8 128.5c113 55.7 168.7 0 168.7 0-3.1-49.5-37.2-116.1-37.2-116.1l13.3-412.4zm34.4-470c5.5-3.6 10-7.6 13.7-12.1-3.7 4.5-8.2 8.5-13.7 12.1-4.6 3-9.9 5.1-15.4 6.3 5.5-1.2 10.8-3.3 15.4-6.3zm-17.3 6.7c-1.3.2-2.5.4-3.8.6 1.3-.1 2.5-.3 3.8-.6zm-39.4-1.4c2.6.5 5.2 1 7.8 1.4 4.6.7 9.3 1.2 14 1.3-4.7-.2-9.4-.6-14-1.3-2.7-.5-5.3-.9-7.8-1.4-3.2-.6-6.3-1.4-9.3-2.1 3 .7 6.1 1.4 9.3 2.1zm-39.7-12.6s131.9 237.1 72.9 300.8c-.6.6-1.2 1.2-1.8 1.9.7-.7 1.3-1.3 1.8-1.9 59-63.6-72.9-300.8-72.9-300.8zm-78.9 12.2c0 2.9-2.3 5.2-5.2 5.2-2.9 0-5.2-2.3-5.2-5.2s2.3-5.2 5.2-5.2c2.9 0 5.2 2.3 5.2 5.2zm-24-193.8c3.1-.8 9.1-6.3 17-15.3-8 9-13.9 14.5-17 15.3-2.9.7-6.3 1.1-10.1 1.1-1.9 0-3.9 0-6-.1 2.1.1 4.1.2 6 .1 3.8 0 7.2-.4 10.1-1.1zm-55.8 483.5c-66.1 149.1-127.2 9.6-131.1.5-8.7-2.6-16.6-7.8-22.4-15l-12.6-15.8c-12-15-13.2-36.1-2.8-52.3l38.8-60.8c8.3-13 22.6-20.8 37.9-20.8h49.8c14.3 0 27.7 6.8 36.2 18.3l42 56.9c11.7 15.8 11.7 37.4.1 53.3l-14.4 19.7c-5.5 7.5-13.1 13-21.7 16h.2zm-18.3-491.1c-2.9-.4-5.8-.9-8.7-1.3 2.9.5 5.8.9 8.7 1.3zm-21.8-2.8c-2.9-.3-5.8-.5-8.7-.7 2.9.1 5.8.4 8.7.7zm-68.6 2.2c4.3-.6 8.7-1.2 13.1-1.7 8.7-1 17.4-1.6 25.8-1.7 1.4 0 2.8 0 4.1.1 1.4 0 2.8-.1 4.2-.1 2.8 0 5.6.1 8.5.2-2.8-.1-5.7-.2-8.5-.2-1.4 0-2.8 0-4.2.1-1.4 0-2.8-.1-4.1-.1-8.4 0-17 .7-25.8 1.7-4.3.5-8.7 1-13.1 1.7-2.9.4-5.8.9-8.7 1.3 2.9-.4 5.8-.9 8.7-1.3zm-45.2 7.4c-2.5.4-4.9.7-7.2 1 2.3-.4 4.7-.7 7.2-1zm-33.2.8c2.2.5 4.6.9 7.3 1-2.7-.1-5.2-.4-7.3-1zm-1.8 0c-.7-.2-1.5-.6-2.5-1.2 1 .6 1.8 1 2.5 1.2zm-17 188.6c2.9 0 5.2 2.3 5.2 5.2s-2.3 5.2-5.2 5.2c-2.9 0-5.2-2.3-5.2-5.2s2.3-5.2 5.2-5.2zm-84.2-7s-36.1 65-62.1 136c-.8 2.1-1.5 4.2-2.3 6.4.8-2.1 1.5-4.3 2.3-6.4 26-71 62.1-136 62.1-136zm-66.6 148.8c-.7 2.1-1.5 4.3-2.2 6.4.7-2.1 1.4-4.2 2.2-6.4zm-7.3 22.5l3-9.6-3 9.6zm-34.7-172.5c3 3.1 6.5 5.9 10.5 8.5 8.7 5.7 19.6 7.9 30.9 8-11.3-.1-22.2-2.3-30.9-8-4-2.6-7.5-5.4-10.5-8.5zm63.8 327.5c-2.1-1.7-4.1-3.4-5.9-5 1.9 1.6 3.9 3.3 5.9 5 37.3 30.8 103.4 77.2 176.1 102-72.7-24.9-138.8-71.2-176.1-102zm268.8 119.1c45.3.3 89.8-11.9 130.2-29.5-40.3 17.5-84.8 29.7-130.2 29.5zm141.1-34.4zm21.1-10.5c3.4-1.8 6.8-3.6 10.2-5.5-3.3 1.9-6.7 3.7-10.2 5.5z" id="Layer_7"/>
    <path class="st0" d="M1052.6 885.3l-42-56.9c-8.5-11.5-21.9-18.3-36.2-18.3h-49.8c-15.4 0-29.7 7.8-37.9 20.8l-38.8 60.8c-10.4 16.2-9.2 37.3 2.8 52.3l12.6 15.8c5.8 7.3 13.7 12.5 22.4 15 3.9 9.1 65 148.6 131.1-.5l-.1-.2c8.6-2.9 16.2-8.5 21.7-16l14.4-19.7c11.6-15.6 11.6-37.2-.2-53.1z" id="Layer_8"/>
    <g id="STROKES">
        <path class="st1" d="M726.7 672.5s-131.9 237.1-72.9 300.8c24.2 26.1 164.7 143.9 296.9 144.6 131.9.7 256.8-103.8 292.2-139 2.2-2.1 4-4 5.5-5.6 59-63.6-72.9-300.8-72.9-300.8s63.4 28.8 96.4 7.3c17.7-11.6 24.7-27.2 29.5-49 6-27.6 8.5-65.1 24.7-116.6 34.1-108.4-45.6-154.5-20.1-190.4 25.5-35.9-28-103.3-27.9-106.8.1-2.3-81.9 119-142.9 200.9-30 40.3-55 71.1-62.6 73-23.1 5.8-77.5-12.7-121.5-11.6-44-1.2-98.3 17.4-121.5 11.6"/>
        <path class="st1" d="M1086.2 684.7c0-2.9 2.3-5.2 5.2-5.2 2.9 0 5.2 2.3 5.2 5.2s-2.3 5.2-5.2 5.2c-2.9 0-5.2-2.4-5.2-5.2z"/>
        <path class="st1" d="M805.7 684.7c0-2.9 2.3-5.2 5.2-5.2 2.9 0 5.2 2.3 5.2 5.2s-2.3 5.2-5.2 5.2c-2.9 0-5.2-2.4-5.2-5.2z"/>
        <path class="st1" d="M885.7 974.9c-8.7-2.6-16.6-7.8-22.4-15l-12.6-15.8c-12-15-13.2-36.1-2.8-52.3l38.8-60.8c8.3-12.9 22.6-20.8 37.9-20.8h49.8c14.3 0 27.7 6.8 36.2 18.3l42 56.9c11.7 15.8 11.7 37.4.1 53.3l-14.4 19.7c-5.5 7.5-13.1 13-21.7 15.9-4.7 1.6-9.6 2.5-14.7 2.5H898.4c-4.3 0-8.6-.7-12.7-1.9z"/>
        <path class="st1" d="M907.8 907.3l17.3-23.1"/>
        <path class="st1" d="M994.5 907.3l-17.3-23.1"/>
        <path class="st1" d="M885.5 974.4s.1.2.2.5c3.9 9.1 65 148.6 131.1-.5"/>
        <path class="st1" d="M724.9 672.5s-63.4 28.8-96.4 7.3c-18.3-12-25.2-28.2-30-51.1-5.7-27.4-8.5-64.3-24.2-114.5-34.1-108.4 45.6-154.5 20.1-190.4-25.5-35.9 28-103.3 27.9-106.8-.1-2.4 84.5 122.8 145.8 204.8 28.7 38.4 52.3 67.3 59.7 69.1"/>
        <path class="st1" d="M652.7 978.6l5.5 171.3 13.1 412.3s-34 66.6-37.2 116.1c0 0 55.7 55.7 168.7 0L778 1549.8l9.6-63.8 32.8-217.7c5.9-39.3 39.6-68.3 79.3-68.3h96.1c39.7 0 73.4 29 79.3 68.3l32.7 217.5v.3l9.6 63.8-24.8 128.5c113 55.7 168.7 0 168.7 0-3.1-49.5-37.2-116.1-37.2-116.1l13.1-412.3 5.4-170.9v-.3"/>
        <path class="st1" d="M768.2 421.8s168.5-141.8 367-3.8"/>
        <path class="st1" d="M914.7 1199.9l-9.7 201.2 21.7 92.9s-99.8 49.7-139-8.1"/>
        <path class="st1" d="M833.5 1506.4l12.5-52.2"/>
        <path class="st1" d="M985.2 1199.9l9.7 201.2-21.7 92.9s95.6 49.5 134.8-8.2"/>
        <path class="st1" d="M1066.4 1506.4l-12.6-52.2"/>
        <path class="st1" d="M658.2 1149.8S542.8 990.9 552.1 837.7s46.4-209 46.4-209"/>
        <path class="st1" d="M1237.5 1149.8s118.4-158.9 109.1-312.1c-8.3-136.4-38.6-195.5-45.2-206.9-.8-1.4-1.3-2.1-1.3-2.1"/>
    </g>
</svg>
