<svg xmlns="http://www.w3.org/2000/svg" viewBox="0 0 1920 1920">
    <style>
        .st0{fill:#fff}.st1{fill:none;stroke:#231f20;stroke-width:50;stroke-linecap:round;stroke-linejoin:round;stroke-miterlimit:10}
    </style>
    <path class="st0" d="M1681 1258.5c11-98 24.4-231.2 24.4-297.8S1692 760.9 1681 662.9c4-77.9 26.7-102.8 26.7-102.8 15.7-15.7 15.7-41.3 0-57-14-14-35.7-15.5-51.4-4.7 0 0-51.7 29.9-162.7 23.9-131.8-14-325.5-29.6-532.6-29.6s-400.8 15.6-532.6 29.6c-111 6-162.7-23.9-162.7-23.9-15.7-10.9-37.4-9.3-51.4 4.7-15.7 15.7-15.7 41.3 0 57 0 0 22.7 24.9 26.7 102.8-11 98-24.4 231.2-24.4 297.8s13.4 199.8 24.4 297.8c-4 77.9-26.7 102.8-26.7 102.8-15.7 15.7-15.7 41.3 0 57 14 14 35.7 15.5 51.4 4.7 0 0 51.7-29.9 162.7-23.9 131.8 14 325.5 29.6 532.6 29.6s400.8-15.6 532.6-29.6c111-6 162.7 23.9 162.7 23.9 15.7 10.9 37.4 9.3 51.4-4.7 15.7-15.7 15.7-41.3 0-57 0 .1-22.7-24.9-26.7-102.8z" id="Layer_2"/>
    <g id="STROKES">
        <path class="st1" d="M1681 1258.5c11-98 24.4-231.2 24.4-297.8S1692 760.9 1681 662.9c4-77.9 26.7-102.8 26.7-102.8 15.7-15.7 15.7-41.3 0-57-14-14-35.7-15.5-51.4-4.7 0 0-51.7 29.9-162.7 23.9-131.8-14-325.5-29.6-532.6-29.6s-400.8 15.6-532.6 29.6c-111 6-162.7-23.9-162.7-23.9-15.7-10.9-37.4-9.3-51.4 4.7-15.7 15.7-15.7 41.3 0 57 0 0 22.7 24.9 26.7 102.8-11 98-24.4 231.2-24.4 297.8s13.4 199.8 24.4 297.8c-4 77.9-26.7 102.8-26.7 102.8-15.7 15.7-15.7 41.3 0 57 14 14 35.7 15.5 51.4 4.7 0 0 51.7-29.9 162.7-23.9 131.8 14 325.5 29.6 532.6 29.6s400.8-15.6 532.6-29.6c111-6 162.7 23.9 162.7 23.9 15.7 10.9 37.4 9.3 51.4-4.7 15.7-15.7 15.7-41.3 0-57 0 .1-22.7-24.9-26.7-102.8z"/>
        <path class="st1" d="M335.7 654.2s-34.1 170.6-34.1 281.9 34.1 329.6 34.1 329.6"/>
    </g>
</svg>
