<svg xmlns="http://www.w3.org/2000/svg" viewBox="0 0 1920 1920">
    <style>
        .st0{fill:#fff}.st1{fill:none;stroke:#231f20;stroke-width:50;stroke-linecap:round;stroke-linejoin:round;stroke-miterlimit:10}
    </style>
    <path class="st0" d="M1688.2 852.6c9.8 34.7 14.9 70.6 14.9 107.4s-5.1 72.7-14.9 107.4c-31.5 112 9.8 227.5 9.8 343.9v41.7h-300c-82.2 0-164.3 7.9-245 23.7-61.4 12-125.9 18.4-192.5 18.4s-131.1-6.4-192.5-18.4c-80.7-15.7-162.7-23.7-245-23.7H226.2v-41.7c0-116.3 37.1-231.9 5.6-343.9-9.8-34.7-14.9-70.6-14.9-107.4s5.1-72.7 14.9-107.4c31.5-112-5.6-227.5-5.6-343.9V467h296.9c82.2 0 164.2-7.9 245-23.7 61.4-12 125.9-18.4 192.5-18.4s131.1 6.4 192.5 18.4c80.7 15.7 162.7 23.7 245 23.7h300v41.7c-.1 116.4-41.4 231.9-9.9 343.9z" id="Layer_4"/>
    <g id="STROKES">
        <path class="st1" d="M1398 1453c-82.2 0-164.3 7.9-245 23.7-61.4 12-125.9 18.4-192.5 18.4s-131.1-6.4-192.5-18.4c-80.7-15.7-162.7-23.7-245-23.7H226.2v-41.7c0-116.3 37.1-231.9 5.6-343.9-9.8-34.7-14.9-70.6-14.9-107.4s5.1-72.7 14.9-107.4c31.5-112-5.6-227.5-5.6-343.9V467h296.9c82.2 0 164.2-7.9 245-23.7 61.4-12 125.9-18.4 192.5-18.4s131.1 6.4 192.5 18.4c80.7 15.7 162.7 23.7 245 23.7h300v41.7c0 116.3-41.3 231.9-9.8 343.9 9.8 34.7 14.9 70.6 14.9 107.4s-5.1 72.7-14.9 107.4c-31.5 112 9.8 227.5 9.8 343.9v41.7H1398z"/>
        <path class="st1" d="M996.7 1316.2c-310.9 0-562.9-247.1-562.9-551.9"/>
    </g>
</svg>
