<svg xmlns="http://www.w3.org/2000/svg" viewBox="0 0 1920 1920">
    <style>
        .st0{fill:#fff}.st1{fill:none;stroke:#231f20;stroke-width:50;stroke-linecap:round;stroke-linejoin:round;stroke-miterlimit:10}
    </style>
    <path class="st0" d="M618 1189c36.9 0 66.9 30 66.9 66.9 0 36.9-30 66.9-66.9 66.9-37 0-66.9-30-66.9-66.9 0-37 30-66.9 66.9-66.9zm617 66.9c0 36.9 30 66.9 66.9 66.9 36.9 0 66.9-30 66.9-66.9 0-37-30-66.9-66.9-66.9-37 0-66.9 29.9-66.9 66.9zm0-592.3c0 37 30 66.9 66.9 66.9 36.9 0 66.9-30 66.9-66.9 0-37-30-66.9-66.9-66.9-37 0-66.9 30-66.9 66.9zm-683.9 0c0 37 30 66.9 66.9 66.9 36.9 0 66.9-30 66.9-66.9 0-37-30-66.9-66.9-66.9-36.9 0-66.9 30-66.9 66.9z" id="Layer_5"/>
    <path class="st0" d="M1703.4 959.7v2.1c0 51.1-5.2 100.9-15 149.1-17 83.3-24.8 168.1-24.8 253.1v300.8l-166.5-1.1s-298.2 40.8-536.5 40.8h-.9c-238.3 0-536.5-40.8-536.5-40.8l-166.5 1.1V1364c0-85-7.8-169.9-24.8-253.1-9.8-48.2-15-98-15-149.1v-2.1c0-51.1 5.2-100.9 15-149.1 17-83.3 24.8-168.1 24.8-253.1V256.7l166.5 1.1S721.4 217 959.7 217h.9c238.2 0 536.5 40.8 536.5 40.8l166.5-1.1v300.8c0 85 7.8 169.9 24.8 253.1 9.8 48.2 15 98.1 15 149.1zm-334.6-296.1c0-37-30-66.9-66.9-66.9-37 0-66.9 30-66.9 66.9 0 37 30 66.9 66.9 66.9 36.9 0 66.9-29.9 66.9-66.9zm0 592.3c0-37-30-66.9-66.9-66.9-37 0-66.9 30-66.9 66.9 0 36.9 30 66.9 66.9 66.9 36.9 0 66.9-30 66.9-66.9zM684.9 663.6c0-37-30-66.9-66.9-66.9-37 0-66.9 30-66.9 66.9 0 37 30 66.9 66.9 66.9 37 0 66.9-29.9 66.9-66.9zm0 592.3c0-37-30-66.9-66.9-66.9-37 0-66.9 30-66.9 66.9 0 36.9 30 66.9 66.9 66.9 37 0 66.9-30 66.9-66.9z" id="Layer_6"/>
    <g id="STROKES">
        <path class="st1" d="M684.9 663.6c0 37-30 66.9-66.9 66.9-37 0-66.9-30-66.9-66.9 0-37 30-66.9 66.9-66.9 37 0 66.9 30 66.9 66.9z"/>
        <path class="st1" d="M1368.8 663.6c0 37-30 66.9-66.9 66.9-37 0-66.9-30-66.9-66.9 0-37 30-66.9 66.9-66.9 36.9 0 66.9 30 66.9 66.9z"/>
        <path class="st1" d="M684.9 1255.9c0 36.9-30 66.9-66.9 66.9-37 0-66.9-30-66.9-66.9 0-37 30-66.9 66.9-66.9 37 0 66.9 29.9 66.9 66.9z"/>
        <path class="st1" d="M1368.8 1255.9c0 36.9-30 66.9-66.9 66.9-37 0-66.9-30-66.9-66.9 0-37 30-66.9 66.9-66.9 36.9 0 66.9 29.9 66.9 66.9z"/>
        <path class="st1" d="M1703.4 959.7c0-51.1-5.2-100.9-15-149.1-17-83.3-24.8-168.1-24.8-253.1V256.7l-166.5 1.1S1198.9 217 960.6 217"/>
        <path class="st1" d="M1703.4 961.8c0 51.1-5.2 100.9-15 149.1-17 83.3-24.8 168.1-24.8 253.1v300.8l-166.5-1.1s-298.2 40.8-536.5 40.8"/>
        <path class="st1" d="M216.9 959.7c0-51.1 5.2-100.9 15-149.1 17-83.3 24.8-168.1 24.8-253.1V256.7l166.5 1.1S721.4 217 959.7 217"/>
        <path class="st1" d="M216.9 961.8c0 51.1 5.2 100.9 15 149.1 17 83.3 24.8 168.1 24.8 253.1v300.8l166.5-1.1s298.2 40.8 536.5 40.8"/>
    </g>
</svg>
