<svg xmlns="http://www.w3.org/2000/svg" viewBox="0 0 1920 1920">
    <style>
        .st0{fill:#fff}.st1{fill:none;stroke:#231f20;stroke-width:50;stroke-linecap:round;stroke-linejoin:round;stroke-miterlimit:10}
    </style>
    <path class="st0" d="M1004.2 657.7c101.7-218.8 300.6-207.8 300.6-207.8-190.1 86.2-249.8 329.3-249.8 329.3 145.9-132.6 338.2-72.9 338.2-72.9-161.4 22.1-331.6 214.4-331.6 214.4l-.4 1c-31.5-12-65.6-18.7-101.3-18.7-19.3 0-38.2 1.9-56.5 5.6-15.4 3.1-30.4 7.5-44.8 13l-.4-1.1S688 728.2 526.6 706.1c0 0 192.3-59.7 338.2 72.9 0 0-59.7-242-249.8-328.2 0 0 198.9-12.2 300.6 206.7 0 0-28.7-296.2 44.2-442.1 73.1 146.1 44.4 442.3 44.4 442.3z" id="Layer_3"/>
    <path class="st0" d="M1335.2 1360.6l-78 60s79.5 100.5 75 100.5-109.5 27-109.5 27 42 87 37.5 87-103.5 1.5-103.5 1.5l6 66-110.2-15c-14.5 5-29.5 8.9-45 11.5-15.5 2.6-31.3 4-47.5 4-29.3 0-57.6-4.5-84.2-12.7l-116.1 12.2 6-66s-99-1.5-103.5-1.5 37.5-87 37.5-87-105-27-109.5-27 75-100.5 75-100.5l-78-60 81-67.5-75-106.5 84-54-48-106.5 102.3-7.2c1.3-1.7 2.6-3.5 3.9-5.2l-5.7-94.1 121.1 5.3c2.6-1.1 5.2-2.1 7.9-3.1 14.4-5.5 29.4-9.9 44.8-13 18.3-3.7 37.2-5.6 56.5-5.6 35.7 0 69.8 6.6 101.3 18.7 2.7 1 5.4 2.1 8.1 3.2l123.3-5.4-5.9 97 1.5 2.1 104.8 7.4-48 106.5 84 54-75 106.5 81.1 67.4zm-155.8 31.3v-177.6c0-109.6-88.8-198.4-198.4-198.4h-42c-109.6 0-198.4 88.8-198.4 198.4v177.6c0 109.6 88.8 198.4 198.4 198.4h42c109.6 0 198.4-88.8 198.4-198.4z" id="Layer_4"/>
    <path class="st0" d="M1179.4 1214.3v177.6c0 109.6-88.8 198.4-198.4 198.4h-42c-109.6 0-198.4-88.8-198.4-198.4v-177.6c0-109.6 88.8-198.4 198.4-198.4h42c109.6-.1 198.4 88.8 198.4 198.4z" id="Layer_5"/>
    <g id="STROKES">
        <path class="st1" d="M858.3 920.7S688.1 728.4 526.7 706.3c0 0 192.3-59.7 338.2 72.9 0 0-59.7-242-249.8-328.2 0 0 198.9-12.2 300.6 206.7 0 0-28.7-296.2 44.2-442.1"/>
        <path class="st1" d="M1061.7 920.7s170.2-192.3 331.6-214.4c0 0-192.3-59.7-338.2 72.9 0 0 59.7-243.1 249.8-329.3 0 0-198.9-11.1-300.6 207.8 0 0 28.7-296.2-44.2-442.1"/>
        <path class="st1" d="M981 1590.3h-42c-109.6 0-198.4-88.8-198.4-198.4v-177.6c0-109.6 88.8-198.4 198.4-198.4h42c109.6 0 198.4 88.8 198.4 198.4v177.6c0 109.6-88.8 198.4-198.4 198.4z"/>
        <path class="st1" d="M1031.7 1303.8h31.5"/>
        <path class="st1" d="M1027.2 1221.3l22.5-43.5"/>
        <path class="st1" d="M1049.7 1428.3l-22.5-43.5"/>
        <path class="st1" d="M879.2 1302.3h-31.5"/>
        <path class="st1" d="M883.7 1384.8l-22.5 43.5"/>
        <path class="st1" d="M861.2 1177.8l22.5 43.5"/>
        <path class="st1" d="M858.7 921.8c-2.7 1-5.3 2.1-7.9 3.1l-121.1-5.3 5.7 94.1c-1.3 1.7-2.6 3.4-3.9 5.2l-102.3 7.2 48 106.5-84 54 75 106.5-81 67.5 78 60s-79.5 100.5-75 100.5 109.5 27 109.5 27-42 87-37.5 87 103.5 1.5 103.5 1.5l-6 66 116.1-12.2c26.6 8.3 54.9 12.7 84.2 12.7 16.2 0 32.1-1.4 47.5-4 15.5-2.6 30.5-6.5 45-11.5l110.2 15-6-66s99-1.5 103.5-1.5-37.5-87-37.5-87 105-27 109.5-27-75-100.5-75-100.5l78-60-81-67.5 75-106.5-84-54 48-106.5-104.8-7.4-1.5-2.1 5.9-97-123.3 5.4c-2.7-1.1-5.4-2.2-8.1-3.2-31.5-12-65.6-18.7-101.3-18.7-19.3 0-38.2 1.9-56.5 5.6-15.5 3.2-30.5 7.5-44.9 13.1z"/>
    </g>
</svg>
