<svg xmlns="http://www.w3.org/2000/svg" viewBox="0 0 1920 1920">
    <style>
        .st0{fill:#fff}.st1{fill:none;stroke:#231f20;stroke-width:50;stroke-linecap:round;stroke-linejoin:round;stroke-miterlimit:10}
    </style>
    <path class="st0" d="M1283.8 675.4l-186 261-2.5 1.1c-16.3-8.9-33.6-16.2-51.7-21.8-26.4-8.2-54.5-12.6-83.7-12.6-14.6 0-28.9 1.1-42.8 3.2-14 2.1-27.6 5.3-40.8 9.3-19 5.9-37.1 13.7-54.1 23.2v-2.4l-186-261 216 98.7.4 1 109 50 106.2-51 216-98.7zm-246-45.3l-80.7 37.2-74.9-37.2-186-97.5 156 241.5.4 1 109 50 106.2-51 156-241.5-186 97.5zM1015.6 469l-57 27.6-48-27.6-106.4-54 78 215.1 74.9 37.2 80.7-37.2 78-215.1-100.2 54zm-55.4-252.5l-.2.9-.2-.9v1.7L910.6 469l48 27.6 57-27.6-55.4-250.8v-1.7z" id="Layer_6"/>
    <path class="st0" d="M1233.8 1113.2c-20.2-75.8-71-139-138.4-175.8-16.3-8.9-33.6-16.2-51.7-21.8-26.4-8.2-54.5-12.6-83.7-12.6-14.6 0-28.9 1.1-42.8 3.2-14 2.1-27.6 5.3-40.8 9.3-19 5.9-37.1 13.7-54.1 23.2-44.1 24.6-80.9 60.6-106.5 104-24.8 42.1-39.1 91.2-39.1 143.6v233.3c0 93 44.8 175.6 114.1 227.2 47.2 35.2 105.8 56.1 169.2 56.1 78.2 0 149.1-31.7 200.3-83 8.6-8.6 16.6-17.7 24-27.3 27.1-35.1 46.1-76.6 54.3-122 3-16.6 4.6-33.6 4.6-51v-233.3c.1-25.2-3.2-49.7-9.4-73.1z" id="Layer_7"/>
    <g id="STROKES">
        <path class="st1" d="M679.3 1358.5L791 1470.3 904.3 1357l112.5 112.5 110.3-110.3 111.5 111.6"/>
        <path class="st1" d="M791 1646.6l113.3-113.3 112.5 112.6 110.3-110.3 56.7 56.6"/>
        <path class="st1" d="M717.1 1043.6l73.9 74 113.3-113.3 112.5 112.5 110.3-110.2 106.7 106.6.1.2"/>
        <path class="st1" d="M679.3 1182.2L791 1293.9l113.3-113.2 112.5 112.5 110.3-110.3 112.5 112.5"/>
        <path class="st1" d="M1095.3 937.5c-16.3-8.9-33.6-16.2-51.7-21.8-26.4-8.2-54.5-12.6-83.7-12.6-14.6 0-28.9 1.1-42.8 3.2-14 2.1-27.6 5.3-40.8 9.3-19 5.9-37.1 13.7-54.1 23.2-44.1 24.6-80.9 60.6-106.5 104-24.8 42.1-39 91.2-39 143.6v233.3c0 93 44.8 175.6 114.1 227.2C838 1682.1 896.6 1703 960 1703c78.2 0 149.1-31.7 200.3-83 8.6-8.6 16.6-17.7 24-27.3 27.1-35 46.1-76.6 54.3-122 3-16.6 4.6-33.6 4.6-51v-233.3c0-25.3-3.3-49.9-9.5-73.2-20.1-75.8-71-139-138.4-175.7z"/>
        <path class="st1" d="M1097.8 936.4l186-261-216 98.7 156-241.5-186 97.5 78-215.1-100.2 54-55.4-250.8v-1.7l-.2.9-.2-.9v1.7L910.6 469l-106.4-54 78 215.1-186-97.5 156 241.5-216-98.7 186 261"/>
        <path class="st1" d="M852.6 775.1l109 50 106.2-51"/>
        <path class="st1" d="M882.2 630.1l74.9 37.2 80.7-37.2"/>
        <path class="st1" d="M910.6 469l48 27.6 57-27.6"/>
    </g>
</svg>
