<svg xmlns="http://www.w3.org/2000/svg" viewBox="0 0 1920 1920">
    <style>
        .st0{fill:#fff}.st1{fill:none;stroke:#231f20;stroke-width:50;stroke-linecap:round;stroke-linejoin:round;stroke-miterlimit:10}
    </style>
    <path class="st0" d="M1070.7 661.7s60-244.5 251.2-331.2c0 0-200-11.1-302.3 208.9 0 0 13.8-175.8-59.6-322.5-73.4 146.7-60.6 322.5-60.6 322.5-102.2-220-302.3-207.8-302.3-207.8 191.2 86.7 251.2 330.1 251.2 330.1-146.7-133.4-340.1-73.4-340.1-73.4 162.3 22.2 334.5 337.3 334.5 337.3 34.9-16 73.7-24.9 114.6-24.9 42.3 0 82.4 9.5 118.3 26.6 0 0 172.8-316.8 335.1-339.1.1.1-193.3-59.9-340 73.5z" id="Layer_8"/>
    <path class="st0" d="M1244.7 1416.8l-13.6-257.9v-.3c-3.8-72.3-35.8-136.7-85-183.1-20.7-19.5-44.4-35.8-70.4-48.1-35.9-17.1-76-26.6-118.3-26.6-40.9 0-79.7 8.9-114.6 24.9-91.6 41.9-156.1 132.5-159.4 238.9l-7.9 258.2c-2.5 81.3 31.1 155.1 86.3 206.5 49 45.7 114.9 73.8 187.7 73.8H971c157 0 282-130.7 273.7-286.3z" id="Layer_2"/>
    <g id="STROKES">
        <path class="st1" d="M842.8 925.7S670.5 610.6 508.3 588.4c0 0 193.4-60 340.1 73.3 0 0-60-243.4-251.2-330.1 0 0 200.1-12.2 302.3 207.8 0 0-12.8-175.8 60.6-322.5"/>
        <path class="st1" d="M1075.7 927.4s172.8-316.8 335.1-339.1c0 0-193.4-60-340.1 73.3 0 0 60-244.5 251.2-331.2 0 0-200-11.1-302.3 208.9 0 0 13.8-175.8-59.6-322.5"/>
        <path class="st1" d="M848.3 661.7s51 41.2 89.6 101.6c7.7 12.1 14.9 24.9 21.1 38.3"/>
        <path class="st1" d="M899.4 539.4s61.8 124.2 39.1 223.4"/>
        <path class="st1" d="M1070 661.7s-51.2 41.1-89.8 101.4c-7.7 12.1-15 25-21.2 38.4"/>
        <path class="st1" d="M1018.8 539.4s-61.9 124.2-39.1 223.4"/>
        <path class="st1" d="M1231.1 1158.9l13.6 257.9c8.2 155.6-116.7 286.3-273.7 286.3h-21.5c-72.7 0-138.7-28.1-187.7-73.8-55.2-51.4-88.8-125.3-86.3-206.5l7.9-258.2c3.2-106.4 67.8-197 159.4-238.9 34.9-16 73.7-24.9 114.6-24.9 42.3 0 82.4 9.5 118.3 26.6 26 12.3 49.7 28.6 70.4 48.1 49.3 46.4 81.2 110.8 85 183.1v.3z"/>
        <path class="st1" d="M751 1003l56 56 129 129 132.5 132.5 131.8 131.8 32.7 32.7"/>
        <path class="st1" d="M689 1215l110 110 133 133 131.3 131.3 61.7 61.7"/>
        <path class="st1" d="M945 1695l-124.7-124.7L687 1437l112-112 137-137 118-118 87-87"/>
        <path class="st1" d="M895 911l30 30 129 129 132.1 132.1 38.9 38.9"/>
        <path class="st1" d="M761.8 1629.3l58.5-59L932 1458l136.5-137.5 117.6-118.4 42.9-43.1"/>
        <path class="st1" d="M949.5 1703.1l113.8-113.8 137-137 35-35"/>
        <path class="st1" d="M693 1173l114-114 118-118 33.8-33.8"/>
    </g>
</svg>
