<svg xmlns="http://www.w3.org/2000/svg" viewBox="0 0 1920 1920">
    <style>
        .st0{fill:#fff}.st1{fill:none;stroke:#231f20;stroke-width:50;stroke-linecap:round;stroke-linejoin:round;stroke-miterlimit:10}
    </style>
    <path class="st0" d="M245.7 435.1c-14.5 3.8-14.5 24.3 0 28.2 65.2 17.2 189.9 44 333 44 210.6 0 381.3-58.1 381.3-58.1s-170.7-58.1-381.3-58.1c-143.1 0-267.8 26.8-333 44z" id="Layer_2"/>
    <path class="st0" d="M1674.3 435.1c-65.2-17.2-189.9-44-333-44-210.6 0-381.3 58.1-381.3 58.1s170.7 58.1 381.3 58.1c143.1 0 267.8-26.8 333-44 14.5-3.8 14.5-24.4 0-28.2z" id="Layer_18"/>
    <path class="st0" d="M1018.3 275.3c0 32.2-26.1 58.3-58.3 58.3-32.2 0-58.3-26.1-58.3-58.3 0-32.2 26.1-58.3 58.3-58.3 32.2 0 58.3 26.1 58.3 58.3z" id="Layer_4"/>
    <path class="st0" d="M960 914.3s-308.9 126.4-308.9 615.6H344.4C344.4 1190 620 914.3 960 914.3z" id="Layer_5"/>
    <path class="st0" d="M651.1 1529.9h617.8c0-489.2-308.9-615.6-308.9-615.6s-308.9 126.4-308.9 615.6z" id="Layer_6"/>
    <path class="st0" d="M1575.6 1529.9h-306.7c0-489.2-308.9-615.6-308.9-615.6 340 .1 615.6 275.7 615.6 615.6z" id="Layer_7"/>
    <path class="st0" d="M344.4 1529.9h1231.2V1703H344.4z" id="Layer_8"/>
    <g id="STROKES">
        <path class="st1" d="M960 914.3s-308.9 126.4-308.9 615.6H344.4C344.4 1190 620 914.3 960 914.3z"/>
        <path class="st1" d="M1575.6 1529.9h-306.7c0-489.2-308.9-615.6-308.9-615.6 340 0 615.6 275.7 615.6 615.6z"/>
        <path class="st1" d="M344.4 1529.9h1231.2V1703H344.4z"/>
        <path class="st1" d="M1268.9 1529.9H651.1c0-489.2 308.9-615.6 308.9-615.6s308.9 126.4 308.9 615.6z"/>
        <path class="st1" d="M960 914.3V337.5"/>
        <path class="st1" d="M960 449.2s-170.7 58.1-381.3 58.1c-143.1 0-267.8-26.8-333-44.1-14.5-3.8-14.5-24.4 0-28.2 65.2-17.2 189.9-44.1 333-44.1 210.6.2 381.3 58.3 381.3 58.3z"/>
        <path class="st1" d="M960 449.2s170.7-58.1 381.3-58.1c143.1 0 267.8 26.8 333 44.1 14.5 3.8 14.5 24.4 0 28.2-65.2 17.2-189.9 44.1-333 44.1-210.6-.2-381.3-58.3-381.3-58.3z"/>
        <circle class="st1" cx="960" cy="275.3" r="58.3"/>
    </g>
</svg>
