<svg xmlns="http://www.w3.org/2000/svg" viewBox="0 0 1920 1920">
    <style>
        .st0{fill:#fff}.st1{fill:none;stroke:#231f20;stroke-width:50;stroke-linecap:round;stroke-linejoin:round;stroke-miterlimit:10}
    </style>
    <path class="st0" d="M940.3 1312.9c-261.7 21-328.5-9.8-451.5-58.4-357.3-17.2-259.7-235.2-259.7-235.2l259.7 69.1 451.5 224.5z" id="Layer_14"/>
    <path class="st0" d="M940.3 1312.9l-451.5-224.5S764.3 688.1 1117 901.5c35.3 200.6-176.7 411.4-176.7 411.4z" id="Layer_15"/>
    <path class="st0" d="M1209.2 1465.4l-268.8-152.5s212-210.8 176.7-411.4c352.7 213.4 92.1 563.9 92.1 563.9z" id="Layer_16"/>
    <path class="st0" d="M929.7 540.4c-58.7-36.1-117-64.2-168-85.4-41.5-17.3-75 37.2-40.9 66.5 41.9 36 93.3 75.4 152 111.5 167.7 103.1 332.1 140.5 332.1 140.5s-107.5-129.9-275.2-233.1z" id="Layer_17"/>
    <path class="st0" d="M1689 1025.5c-41.9-36-93.3-75.4-152-111.5-167.7-103.1-332.1-140.5-332.1-140.5s107.4 129.9 275.1 233.1c58.7 36.1 117.1 64.2 168.1 85.4 41.5 17.2 75-37.2 40.9-66.5z" id="Layer_25"/>
    <g id="STROKES">
        <path class="st1" d="M1117.1 901.5l87.8-128"/>
        <path class="st1" d="M1204.9 773.5S1040.5 736.2 872.8 633c-58.7-36.1-110.1-75.6-152-111.5-34.1-29.3-.7-83.7 40.9-66.5 51 21.2 109.3 49.3 168.1 85.4 167.6 103.2 275.1 233.1 275.1 233.1z"/>
        <path class="st1" d="M1204.9 773.5S1369.3 810.8 1537 914c58.7 36.1 110.1 75.6 152 111.5 34.1 29.3.7 83.7-40.9 66.5-51-21.2-109.3-49.3-168.1-85.4-167.7-103.2-275.1-233.1-275.1-233.1z"/>
        <path class="st1" d="M940.3 1312.9c-261.7 21-328.5-9.8-451.5-58.4-223.7-88.3-259.7-235.2-259.7-235.2l259.7 69.1 451.5 224.5z"/>
        <path class="st1" d="M488.8 1254.5c-357.3-17.2-259.7-235.2-259.7-235.2s36 146.9 259.7 235.2z"/>
        <path class="st1" d="M940.3 1312.9l268.8 152.5s260.6-350.4-92.1-563.9-628.2 186.9-628.2 186.9l451.5 224.5z"/>
        <path class="st1" d="M1117.1 901.5c35.3 200.6-176.7 411.4-176.7 411.4"/>
    </g>
</svg>
