<svg xmlns="http://www.w3.org/2000/svg" viewBox="0 0 1920 1920">
    <style>
        .st0{fill:#fff}.st1{fill:none;stroke:#231f20;stroke-width:50;stroke-linecap:round;stroke-linejoin:round;stroke-miterlimit:10}
    </style>
    <path class="st0" d="M1586.2 960h113c0 204.1-82.8 388.9-216.5 522.7l-79.9-79.9c113.3-113.3 183.4-269.9 183.4-442.8zM960 220.8v113c171.4 0 330.8 70.8 443.9 182.3l78.8-78.8C1349.6 308 1160.2 220.8 960 220.8zm0 1365.4v113c204.1 0 388.9-82.8 522.7-216.5l-79.9-79.9c-113.3 113.3-269.9 183.4-442.8 183.4zm-442.8-183.4l-79.9 79.9C571 1616.5 755.9 1699.2 960 1699.2v-113c-172.9 0-329.5-70.1-442.8-183.4zm-79.9-965.5l79.9 79.9C630.5 403.9 787.1 333.8 960 333.8v-113c-204.1 0-389 82.7-522.7 216.5zM333.8 960h-113c0 204.1 82.8 388.9 216.5 522.7l79.9-79.9C403.9 1289.5 333.8 1132.9 333.8 960zm-113 0h113c0-172.9 70.1-329.5 183.4-442.8l-79.9-79.9C303.5 571 220.8 755.9 220.8 960z" id="Layer_3"/>
    <path class="st0" d="M1470.6 960v2.2c0 56.1-45.5 101.6-101.6 101.6-56.1 0-101.6-45.5-101.6-101.6V960H960l443.9-443.9C1290.8 404.5 1131.4 333.8 960 333.8c-172.9 0-329.5 70.1-442.8 183.4S333.8 787.1 333.8 960s70.1 329.5 183.4 442.8c113.3 113.3 269.9 183.4 442.8 183.4s329.5-70.1 442.8-183.4c113.3-113.3 183.4-269.9 183.4-442.8h-115.6zm-250.8-499.2c20.2 0 36.5 16.3 36.5 36.5s-16.3 36.5-36.5 36.5-36.5-16.3-36.5-36.5c0-20.1 16.3-36.5 36.5-36.5zm-278.6 73c6.4 0 12.7.6 18.8 1.7 49.3 8.8 86.8 52 86.8 103.9 0 51.9-37.4 95-86.8 103.9-6.1 1.1-12.4 1.7-18.8 1.7-58.3 0-105.5-47.3-105.5-105.6s47.2-105.6 105.5-105.6zM546.8 683c36.8 0 66.7 29.8 66.7 66.7 0 36.8-29.8 66.7-66.7 66.7-36.8 0-66.7-29.9-66.7-66.7 0-36.8 29.9-66.7 66.7-66.7zm161.9 665.1c-37 0-68.9-21.8-83.5-53.3-5.5-11.8-8.5-24.9-8.5-38.8 0-50.8 41.2-92.1 92.1-92.1 13.9 0 27 3.1 38.8 8.6 31.5 14.6 53.3 46.5 53.3 83.5-.1 50.9-41.4 92.1-92.2 92.1zm388.1 77.8c-33.8 0-61.1-27.4-61.1-61.1s27.4-61.1 61.1-61.1 61.1 27.4 61.1 61.1-27.4 61.1-61.1 61.1z" id="Layer_4"/>
    <g id="Layer_5">
        <path class="st0" d="M546.8 683c-36.8 0-66.7 29.8-66.7 66.7 0 36.8 29.9 66.7 66.7 66.7 36.8 0 66.7-29.9 66.7-66.7-.1-36.8-29.9-66.7-66.7-66.7z"/>
        <path class="st0" d="M960 535.5c-6.1-1.1-12.4-1.7-18.8-1.7-58.3 0-105.5 47.3-105.5 105.6S883 745 941.2 745c6.4 0 12.7-.6 18.8-1.7 49.3-8.8 86.8-52 86.8-103.9 0-51.9-37.5-95-86.8-103.9z"/>
        <path class="st0" d="M747.5 1172.6c-11.8-5.5-24.9-8.6-38.8-8.6-50.8 0-92.1 41.2-92.1 92.1 0 13.8 3.1 27 8.5 38.8 14.6 31.5 46.5 53.3 83.5 53.3 50.9 0 92.1-41.2 92.1-92.1.1-37-21.8-68.9-53.2-83.5z"/>
        <path class="st0" d="M1267.4 960v2.2c0 56.1 45.5 101.6 101.6 101.6 56.1 0 101.6-45.5 101.6-101.6V960h-203.2z"/>
        <path class="st0" d="M1219.8 460.8c-20.2 0-36.5 16.3-36.5 36.5s16.3 36.5 36.5 36.5 36.5-16.3 36.5-36.5c0-20.1-16.3-36.5-36.5-36.5z"/>
        <circle class="st0" cx="1096.8" cy="1364.8" r="61.1"/>
    </g>
    <g id="STROKES">
        <path class="st1" d="M1699.2 960c0 204.1-82.8 388.9-216.5 522.7-133.8 133.8-318.6 216.5-522.7 216.5s-389-82.8-522.7-216.5C303.5 1348.9 220.8 1164.1 220.8 960s82.8-389 216.5-522.7C571 303.5 755.9 220.8 960 220.8c200.2 0 389.6 87.3 522.7 216.5"/>
        <path class="st1" d="M1586.2 960c0 172.9-70.1 329.5-183.4 442.8-113.3 113.3-269.9 183.4-442.8 183.4s-329.5-70.1-442.8-183.4C403.9 1289.5 333.8 1132.9 333.8 960s70.1-329.5 183.4-442.8S787.1 333.8 960 333.8c171.4 0 330.8 70.8 443.9 182.3"/>
        <path class="st1" d="M1699.2 960H220.8"/>
        <path class="st1" d="M960 220.8v1478.4"/>
        <path class="st1" d="M1482.7 437.3l-78.8 78.8L960 960l-212.5 212.6-122.3 122.2-108 108-79.9 79.9"/>
        <path class="st1" d="M437.3 437.3l79.9 79.9L960 960l442.8 442.8 79.9 79.9"/>
        <path class="st1" d="M1470.6 962.2c0 56.1-45.5 101.6-101.6 101.6-56.1 0-101.6-45.5-101.6-101.6"/>
        <path class="st1" d="M747.5 1172.6c31.5 14.6 53.3 46.5 53.3 83.5 0 50.8-41.2 92.1-92.1 92.1-37 0-68.9-21.8-83.5-53.3-5.5-11.8-8.5-24.9-8.5-38.8 0-50.8 41.2-92.1 92.1-92.1 13.7 0 26.9 3.1 38.7 8.6z"/>
        <path class="st1" d="M613.4 749.7c0 36.8-29.8 66.7-66.7 66.7-36.8 0-66.7-29.8-66.7-66.7 0-36.8 29.9-66.7 66.7-66.7 36.9 0 66.7 29.9 66.7 66.7z"/>
        <path class="st1" d="M960 535.5c49.3 8.8 86.8 52 86.8 103.9 0 51.9-37.4 95-86.8 103.9-6.1 1.1-12.4 1.7-18.8 1.7-58.3 0-105.5-47.3-105.5-105.5 0-58.3 47.3-105.6 105.5-105.6 6.4-.1 12.7.5 18.8 1.6z"/>
        <path class="st1" d="M1256.3 497.3c0 20.2-16.3 36.5-36.5 36.5s-36.5-16.3-36.5-36.5 16.3-36.5 36.5-36.5 36.5 16.4 36.5 36.5z"/>
        <circle class="st1" cx="1096.8" cy="1364.8" r="61.1"/>
        <path class="st1" d="M537.2 1075.1c0 16.7-13.5 30.2-30.1 30.2-16.7 0-30.2-13.5-30.2-30.2"/>
        <path class="st1" d="M1134.2 607.4c15.8-5.2 32.8 3.5 38 19.4 5.2 15.8-3.5 32.9-19.4 38"/>
        <path class="st1" d="M1449.5 1200.7c-38.4 27.7-92 18.9-119.6-19.5"/>
        <path class="st1" d="M733.2 487.1c32.2 34.7 30 89-4.7 121.1"/>
        <path class="st1" d="M867.8 1372.5c-10.3 46.2-56.1 75.3-102.3 65"/>
    </g>
</svg>
