<svg xmlns="http://www.w3.org/2000/svg" viewBox="0 0 1920 1920">
    <style>
        .st0{fill:#fff}.st1{fill:none;stroke:#231f20;stroke-width:50;stroke-linecap:round;stroke-linejoin:round;stroke-miterlimit:10}
    </style>
    <path class="st0" d="M1695.9 856.6c-16-115-58.4-221.6-120.8-313.5C1441.5 346.3 1215.8 217 960 217c-150.2 0-290 44.6-406.9 121.2C350.6 470.9 217 699.9 217 960c0 38 2.9 75.4 8.4 111.9 9 59.8 25.2 117.2 47.5 171.4 27.5 66.8 64.5 128.6 109.3 184 98.2 121.2 233.7 211 389.2 251.7 60.2 15.8 123.5 24.2 188.6 24.2s128.3-8.4 188.5-24.1c30.4-8 60.1-17.8 88.9-29.4 273-109.9 465.7-377.2 465.7-689.5 0-35.3-2.5-69.8-7.2-103.6zM544.6 747.8c-33.7 0-61-27.3-61-61s27.3-61 61-61 61 27.3 61 61-27.3 61-61 61zM862.8 1311c-43.3 0-78.3-35.1-78.3-78.3 0-43.3 35.1-78.3 78.3-78.3s78.3 35.1 78.3 78.3c0 43.2-35.1 78.3-78.3 78.3zM1254 876.2c28.1 0 50.8 22.8 50.8 50.8 0 28.1-22.8 50.8-50.8 50.8-28.1 0-50.8-22.8-50.8-50.8 0-28.1 22.7-50.8 50.8-50.8zm134.1 581.9c-25.4 25.4-59.8 32.2-76.9 15.1-17.1-17.1-10.3-51.5 15.1-76.9 25.4-25.4 59.8-32.2 76.9-15.1 17 17.1 10.3 51.5-15.1 76.9z" id="Layer_2"/>
    <path class="st0" d="M1254 876.2c-28.1 0-50.8 22.8-50.8 50.8 0 28.1 22.8 50.8 50.8 50.8 28.1 0 50.8-22.8 50.8-50.8 0-28.1-22.8-50.8-50.8-50.8z" id="Layer_4"/>
    <circle class="st0" cx="862.8" cy="1232.7" r="78.3" id="Layer_5"/>
    <path class="st0" d="M1403.2 1381.2c-17.1-17.1-51.5-10.3-76.9 15.1-25.4 25.4-32.2 59.8-15.1 76.9 17.1 17.1 51.5 10.3 76.9-15.1 25.4-25.4 32.1-59.8 15.1-76.9z" id="Layer_6"/>
    <circle class="st0" cx="544.6" cy="686.8" r="61" id="Layer_8"/>
    <g id="STROKES">
        <circle class="st1" cx="960" cy="960" r="743.1"/>
        <circle class="st1" cx="544.6" cy="686.8" r="61"/>
        <circle class="st1" cx="862.8" cy="1232.7" r="78.3"/>
        <circle class="st1" cx="1254" cy="927" r="50.8"/>
        <ellipse transform="rotate(-45.001 1357.148 1427.245)" class="st1" cx="1357.2" cy="1427.2" rx="65" ry="43.7"/>
        <path class="st1" d="M272.9 1243.3s276 31.1 418-123.8 350.5 4.6 524.1-15.5c129.1-15 227.5-77.4 283.3-205.9"/>
        <path class="st1" d="M1695.9 856.6s-27.7 396.1-429.4 403.7-29.1 389.3-29.1 389.3"/>
        <path class="st1" d="M1148.5 1678.9S948.7 1379.2 699 1463.1c-249.7 83.9 72.4 215.8 72.4 215.8"/>
        <path class="st1" d="M382.2 1427.2s118.9 44 276.1-99.6"/>
        <path class="st1" d="M225.3 1071.9s548.6 62 543.2-296.1"/>
        <path class="st1" d="M553.1 338.2s441.7-197.9 457.8 192.6"/>
        <path class="st1" d="M1575.2 543.1S1339.5 390.7 1102.5 730"/>
    </g>
</svg>
