<svg xmlns="http://www.w3.org/2000/svg" viewBox="0 0 1920 1920">
    <style>
        .st0{fill:#fff}.st1{fill:none;stroke:#231f20;stroke-width:50;stroke-linecap:round;stroke-linejoin:round;stroke-miterlimit:10}
    </style>
    <path class="st0" d="M1700.8 902.4C1671.5 519 1351 217 960 217c-273.3 0-512.1 147.5-641.2 367.3-21.7 36.9-40.3 75.9-55.4 116.5-30 80.7-46.5 168-46.5 259.2 0 43 3.7 85.1 10.7 126.1 59.9 350.3 365 617 732.4 617 284.8 0 532.1-160.2 656.8-395.3 36.2-68.3 62.1-142.8 75.5-221.6 7-41 10.7-83.1 10.7-126.1.1-19.5-.7-38.7-2.2-57.7zm-983.1 333.5c-53.2 0-96.4-43.1-96.4-96.3 0-53.2 43.1-96.4 96.4-96.4 53.2 0 96.4 43.1 96.4 96.4-.1 53.1-43.2 96.3-96.4 96.3z" id="Layer_2"/>
    <path class="st0" d="M814 1139.5c0 53.2-43.1 96.3-96.4 96.3-53.2 0-96.4-43.1-96.4-96.3 0-53.2 43.1-96.4 96.4-96.4 53.3.1 96.4 43.2 96.4 96.4z" id="Layer_4"/>
    <g id="STROKES">
        <circle class="st1" cx="960" cy="960" r="743.1"/>
        <circle class="st1" cx="717.7" cy="1139.5" r="96.4"/>
        <path class="st1" d="M1693 1086.1h-636.9c-66.5 0-129.3-30-171.1-81.7-39.4-48.7-99.7-79.9-167.2-79.9-67.6 0-127.8 31.2-167.2 79.9-41.8 51.7-104.7 81.7-171.1 81.7H227.6"/>
        <path class="st1" d="M396.5 1193h3.2c57.4 0 110.8 27.8 144.9 74 39.1 53.1 102.1 87.6 173.2 87.6s134.1-34.5 173.2-87.6c34-46.2 87.5-74 144.8-74h326.7"/>
        <path class="st1" d="M886.1 1452.1c50.1-27 93-65.8 124.9-112.6 13.5-19.8 35.9-31.8 59.9-31.8h545.9"/>
        <path class="st1" d="M1387.1 1421.7h153.2"/>
        <path class="st1" d="M263.4 700.8h820.3"/>
        <path class="st1" d="M318.8 584.2h424"/>
        <path class="st1" d="M1415.3 902.4h285.6"/>
        <path class="st1" d="M1036.8 402h406.4"/>
    </g>
</svg>
