<svg xmlns="http://www.w3.org/2000/svg" viewBox="0 0 1920 1920">
    <style>
        .st0{fill:#fff}.st1{fill:none;stroke:#231f20;stroke-width:50;stroke-linecap:round;stroke-linejoin:round;stroke-miterlimit:10}
    </style>
    <path class="st0" d="M1192.5 571.3c243.8 0 266.9 119.5 468.7 142.3-32.9-93.8-84.2-178.9-149.4-251.2-202.7-5.6-209.4-95.7-425.1-95.7-222.6 0-222.6 96-445.2 96-94.7 0-149.1-17.4-197.5-37.3a746.719 746.719 0 0 0-137.4 180.5c104.6 43.2 162.8 111.5 347 111.5 269.5-.1 269.5-146.1 538.9-146.1z" id="Layer_2"/>
    <path class="st0" d="M1698.3 875.9c-122.5 47.3-152.1 184.1-323.6 184.1-207.3 0-207.3-200-414.7-200-207.3 0-207.3 200-414.7 200-171.5 0-201.2-136.8-323.6-184.1-3.1 27.6-4.7 55.7-4.7 84.1 0 77.4 11.8 152 33.8 222.1 134.9 18.8 146.1 149.7 301.8 149.7 167.8 0 167.8-152 335.6-152s167.8 152 335.6 152 167.8-152 335.6-152c43.4 0 75.5 10.2 102.3 25.2 26.8-76.7 41.4-159.2 41.4-245.1 0-28.4-1.7-56.4-4.8-84z" id="Layer_8"/>
    <path class="st0" d="M990.7 1468.9c-185.1 0-185.1 96-370.3 96-48.5 0-84.3-6.6-114.1-16.3 125.5 96.9 282.8 154.5 453.6 154.5 161.6 0 311.1-51.6 433.1-139.2-10.1.7-20.7 1-32.1 1-185 0-185-96-370.2-96z" id="Layer_9"/>
    <path class="st0" d="M1086.7 366.6c215.7 0 222.4 90.1 425.1 95.7C1375.8 311.7 1179 217 960 217c-200.4 0-382.3 79.4-516 208.4 48.4 20 102.8 37.3 197.5 37.3 222.6-.1 222.6-96.1 445.2-96.1z" id="Layer_4"/>
    <path class="st0" d="M960 860c207.4 0 207.4 200 414.7 200 171.5 0 201.2-136.8 323.6-184.1-6.3-56.2-18.9-110.6-37.1-162.3-201.8-22.7-225-142.3-468.7-142.3-269.4 0-269.4 146-538.8 146-184.2 0-242.5-68.3-347-111.5-44.5 81.9-74.1 173.2-85 270C344.1 923.2 373.8 1060 545.3 1060c207.4 0 207.4-200 414.7-200z" id="Layer_5"/>
    <path class="st0" d="M1223.8 1331.8c-167.8 0-167.8-152-335.6-152s-167.8 152-335.6 152c-155.7 0-166.9-130.9-301.8-149.7 46 147.1 136.5 274.5 255.7 366.5 29.8 9.7 65.6 16.3 114.1 16.3 185.1 0 185.1-96 370.3-96 185.1 0 185.1 96 370.3 96 11.4 0 22-.4 32.1-1 122.9-88.3 217.8-213.2 268.6-358.8-26.8-15.1-58.9-25.2-102.3-25.2-168-.1-168 151.9-335.8 151.9z" id="Layer_6"/>
    <g id="STROKES">
        <path class="st1" d="M1511.8 462.4c-202.7-5.6-209.4-95.7-425.1-95.7-222.6 0-222.6 96-445.2 96-94.7 0-149.1-17.4-197.5-37.3C577.7 296.3 759.6 217 960 217c219 0 415.8 94.7 551.8 245.4z"/>
        <path class="st1" d="M1698.3 875.9c-122.5 47.3-152.1 184.1-323.6 184.1-207.3 0-207.3-200-414.7-200-207.3 0-207.3 200-414.7 200-171.5 0-201.2-136.8-323.6-184.1 10.9-96.9 40.5-188.1 85-270 104.6 43.2 162.8 111.5 347 111.5 269.4 0 269.4-146 538.8-146 243.8 0 266.9 119.5 468.7 142.3 18.2 51.6 30.8 105.9 37.1 162.2z"/>
        <path class="st1" d="M653.7 717.3c-184.2 0-242.5-68.3-347-111.5 36.4-67.1 82.9-127.9 137.4-180.5 48.4 20 102.8 37.3 197.5 37.3 222.6 0 222.6-96 445.2-96 215.7 0 222.4 90.1 425.1 95.7 65.2 72.3 116.4 157.4 149.4 251.2-201.8-22.7-225-142.3-468.7-142.3-269.5.1-269.5 146.1-538.9 146.1z"/>
        <path class="st1" d="M1703.1 960c0 85.9-14.6 168.3-41.4 245.1-26.8-15.1-58.9-25.2-102.3-25.2-167.8 0-167.8 152-335.6 152s-167.8-152-335.6-152-167.8 152-335.6 152c-155.7 0-166.9-130.9-301.8-149.7-22-70.2-33.8-144.8-33.8-222.2 0-28.5 1.6-56.5 4.7-84.1C344.1 923.2 373.8 1060 545.3 1060c207.4 0 207.4-200 414.7-200 207.4 0 207.4 200 414.7 200 171.5 0 201.2-136.8 323.6-184.1 3.1 27.6 4.8 55.6 4.8 84.1z"/>
        <path class="st1" d="M1661.7 1205.1c-50.8 145.6-145.7 270.5-268.6 358.8-10.1.7-20.7 1-32.1 1-185.1 0-185.1-96-370.3-96-185.1 0-185.1 96-370.3 96-48.5 0-84.3-6.6-114.1-16.3-119.2-92-209.7-219.4-255.7-366.5 134.9 18.8 146.1 149.7 301.8 149.7 167.8 0 167.8-152 335.6-152s167.8 152 335.6 152 167.8-152 335.6-152c43.6 0 75.7 10.2 102.5 25.3z"/>
        <path class="st1" d="M1393.1 1563.8C1271.2 1651.4 1121.6 1703 960 1703c-170.8 0-328.1-57.6-453.6-154.5 29.8 9.7 65.6 16.3 114.1 16.3 185.1 0 185.1-96 370.3-96 185.1 0 185.1 96 370.3 96 11.2.1 21.9-.3 32-1z"/>
    </g>
</svg>
