<svg xmlns="http://www.w3.org/2000/svg" viewBox="0 0 1920 1920">
    <style>
        .st0{fill:#fff}.st1{fill:none;stroke:#231f20;stroke-width:50;stroke-linecap:round;stroke-linejoin:round;stroke-miterlimit:10}
    </style>
    <path class="st0" d="M1040.3 626.8c-25.7-6.2-52.6-9.5-80.3-9.5s-54.5 3.3-80.3 9.5C729.2 662.9 617.3 798.4 617.3 960s111.9 297.1 262.4 333.2c25.7 6.2 52.6 9.5 80.3 9.5s54.5-3.3 80.3-9.5c150.5-36.1 262.4-171.6 262.4-333.2s-111.9-297.1-262.4-333.2z" id="Layer_2"/>
    <g id="STROKES">
        <path class="st1" d="M960 1302.6c27.6 0 54.5-3.3 80.3-9.5-14.8 243.1-45.2 409.9-80.3 409.9s-65.5-166.8-80.3-409.9c25.8 6.3 52.7 9.5 80.3 9.5z"/>
        <path class="st1" d="M960 617.3c-27.6 0-54.5 3.3-80.3 9.5C894.5 383.7 924.9 217 960 217s65.5 166.8 80.3 409.9c-25.8-6.3-52.7-9.6-80.3-9.6z"/>
        <path class="st1" d="M1049.8 960c0 119.8-3.4 233-9.5 333.2-25.7 6.2-52.6 9.5-80.3 9.5s-54.5-3.3-80.3-9.5c-150.5-36.1-262.4-171.6-262.4-333.2s111.9-297.1 262.4-333.2c25.7-6.2 52.6-9.5 80.3-9.5s54.5 3.3 80.3 9.5c6 100.2 9.5 213.4 9.5 333.2z"/>
        <path class="st1" d="M1302.7 960c0 161.6-111.9 297.1-262.4 333.2 6.1-100.2 9.5-213.4 9.5-333.2s-3.4-233-9.5-333.2c150.5 36.1 262.4 171.6 262.4 333.2z"/>
    </g>
</svg>
