<svg xmlns="http://www.w3.org/2000/svg" viewBox="0 0 1920 1920">
    <style>
        .st0{fill:#fff}.st1{fill:none;stroke:#231f20;stroke-width:50;stroke-linecap:round;stroke-linejoin:round;stroke-miterlimit:10}
    </style>
    <path class="st0" d="M1312.8 844.8c-30.3-92.8-96.1-169.5-181.4-213.9-42.8-22.3-90.4-36.6-140.9-40.6-10-.8-20.2-1.2-30.5-1.2-181.6 0-332.8 130.5-364.8 302.9-4.1 22.1-6.2 44.9-6.2 68.2 0 26.8 2.8 52.9 8.2 78.1 20.7 96.7 79.1 179.4 159 232 90.9-39.1 196.1-101.4 301.1-181.5 105.6-80.8 193.8-166.4 255.5-244z" id="Layer_5"/>
    <path class="st0" d="M1133.7 1187.6c-68.5 52.3-137.1 99.9-204.2 142.2 10 .8 20.2 1.2 30.5 1.2 181.6 0 332.8-130.5 364.8-302.9-58.5 53.6-122.5 107.2-191.1 159.5z" id="Layer_9"/>
    <path class="st0" d="M1324.8 1028.1c-58.5 53.6-122.5 107.2-191.1 159.5-68.5 52.3-137.1 99.9-204.2 142.2-323.5 204-612.4 285.5-691.8 181.4-79.5-104.1 75.3-361.2 357.5-619.4-4.1 22.1-6.2 44.9-6.2 68.2 0 26.8 2.8 52.9 8.2 78.1-89.9 109.2-129.4 204.4-94.1 250.7 34.1 44.7 130.4 34.1 253.1-18.7 90.9-39.1 196.1-101.4 301.1-181.5 105.6-80.6 193.8-166.2 255.5-243.8 82.5-103.8 117.7-193.4 83.8-237.9-35.2-46.1-136.8-33.3-265.2 24-42.8-22.3-90.4-36.6-140.9-40.6 323.5-204 612.4-285.5 691.8-181.4 79.4 104-75.4 361.1-357.5 619.2z" id="Layer_6"/>
    <g id="STROKES">
        <path class="st1" d="M1312.8 844.8c-61.7 77.7-149.9 163.2-255.5 243.8-105 80.1-210.3 142.4-301.1 181.5-79.9-52.6-138.3-135.4-159-232-5.4-25.2-8.2-51.3-8.2-78.1 0-23.3 2.1-46.1 6.3-68.2 32-172.4 183.2-302.9 364.8-302.9 10.3 0 20.4.4 30.5 1.2 50.5 4.1 98.2 18.3 140.9 40.6 85.2 44.6 151 121.3 181.3 214.1z"/>
        <path class="st1" d="M1324.8 1028.2c-32 172.4-183.2 302.9-364.8 302.9-10.3 0-20.4-.4-30.5-1.2 67.1-42.3 135.7-89.9 204.2-142.2 68.6-52.4 132.6-106 191.1-159.5z"/>
        <path class="st1" d="M756.2 1270.1c-122.6 52.8-219 63.3-253.1 18.7-35.3-46.3 4.2-141.5 94.1-250.7 20.7 96.7 79 179.4 159 232z"/>
        <path class="st1" d="M1312.8 844.8c-30.3-92.8-96.1-169.5-181.4-214 128.4-57.3 230-70.1 265.2-24 33.9 44.5-1.2 134.2-83.8 238z"/>
        <path class="st1" d="M1324.8 1028.2c-58.5 53.6-122.5 107.2-191.1 159.5-68.5 52.3-137.1 99.9-204.2 142.2-323.5 204-612.4 285.5-691.8 181.4-79.4-104.2 75.3-361.3 357.5-619.5-4.1 22.1-6.3 44.9-6.3 68.2 0 26.8 2.8 52.9 8.2 78.1-89.9 109.2-129.4 204.4-94.1 250.7 34.1 44.7 130.5 34.1 253.1-18.7 90.9-39.1 196.1-101.4 301.1-181.5 105.6-80.6 193.8-166.2 255.5-243.8 82.5-103.8 117.7-193.4 83.8-237.9-35.2-46.1-136.8-33.4-265.2 24-42.8-22.3-90.4-36.5-140.9-40.6 323.5-204 612.4-285.5 691.8-181.4 79.5 104-75.2 361.1-357.4 619.3z"/>
        <path class="st1" d="M756.2 1270.1c-122.6 52.8-219 63.3-253.1 18.7-35.3-46.3 4.2-141.5 94.1-250.7 20.7 96.7 79 179.4 159 232z"/>
        <path class="st1" d="M1312.8 844.8c-30.3-92.8-96.1-169.5-181.4-214 128.4-57.3 230-70.1 265.2-24 33.9 44.5-1.2 134.2-83.8 238z"/>
    </g>
</svg>
