<svg xmlns="http://www.w3.org/2000/svg" viewBox="0 0 1920 1920">
    <style>
        .st0{fill:#fff}.st1{fill:none;stroke:#231f20;stroke-width:50;stroke-linecap:round;stroke-linejoin:round;stroke-miterlimit:10}
    </style>
    <path class="st0" d="M1307.3 784.9c-30.2-59.6-75.2-110.3-130.3-147.4-62-41.8-136.7-66.1-217-66.1s-155 24.4-217 66.1c-55 37-100.1 87.8-130.3 147.4C586 837.6 571 897.2 571 960.4c0 34.4 4.4 67.7 12.8 99.4 88.8 46.7 224.4 76.6 376.2 76.6s287.4-29.8 376.2-76.6c8.4-31.7 12.8-65.1 12.8-99.4 0-63.2-15-122.8-41.7-175.5z" id="Layer_2"/>
    <path class="st0" d="M691.4 1241.9c69.8 66.6 164.4 107.6 268.6 107.6s198.7-40.9 268.6-107.6c-83.3 14.6-173.9 22.6-268.6 22.6s-185.3-8-268.6-22.6z" id="Layer_8"/>
    <path class="st0" d="M1703.1 929.3c0 142.4-196.9 264-474.5 312.6-83.3 14.6-173.9 22.6-268.6 22.6s-185.3-8-268.6-22.6C413.8 1193.3 217 1071.7 217 929.3c0-151 221.5-257.7 526-291.8-55 37-100.1 87.8-130.3 147.4-85 37.3-137.3 88.3-137.3 144.4 0 49.5 40.6 94.9 108.4 130.5 88.8 46.7 224.4 76.6 376.2 76.6s287.4-29.8 376.2-76.6c67.8-35.6 108.4-81 108.4-130.5 0-56.2-52.3-107.1-137.3-144.4-30.2-59.6-75.2-110.3-130.3-147.4 304.5 34.1 526.1 140.8 526.1 291.8z" id="Layer_4"/>
    <g id="STROKES">
        <path class="st1" d="M1349 960.4c0 34.4-4.4 67.7-12.8 99.4-88.8 46.7-224.4 76.6-376.2 76.6s-287.4-29.8-376.2-76.6c-8.4-31.7-12.8-65.1-12.8-99.4 0-63.2 15-122.8 41.8-175.5C643 725.3 688 674.6 743.1 637.5c62-41.8 136.7-66.1 217-66.1 80.4 0 155 24.4 217 66.1 55 37.1 100.1 87.8 130.3 147.4 26.6 52.7 41.6 112.4 41.6 175.5z"/>
        <path class="st1" d="M1228.6 1241.9c-69.8 66.6-164.4 107.6-268.6 107.6-104.1 0-198.7-40.9-268.6-107.6 83.3 14.6 173.9 22.6 268.6 22.6 94.7 0 185.3-8 268.6-22.6z"/>
        <path class="st1" d="M1703.1 929.3c0 142.4-196.8 264-474.5 312.6-83.3 14.6-173.9 22.6-268.6 22.6-94.7 0-185.3-8-268.6-22.6-277.6-48.6-474.5-170.2-474.5-312.6 0-151 221.5-257.7 526-291.8-55 37.1-100.1 87.8-130.3 147.4-85 37.3-137.3 88.3-137.3 144.4 0 49.5 40.6 94.9 108.3 130.5 88.8 46.7 224.4 76.6 376.2 76.6s287.4-29.8 376.2-76.6c67.7-35.6 108.3-81 108.3-130.5 0-56.2-52.3-107.1-137.3-144.4-30.2-59.6-75.2-110.3-130.3-147.4 304.8 34.1 526.4 140.8 526.4 291.8z"/>
        <path class="st1" d="M612.7 784.9C586 837.6 571 897.3 571 960.4c0 34.4 4.4 67.7 12.8 99.4-67.7-35.6-108.3-81-108.3-130.5-.1-56.2 52.3-107.1 137.2-144.4z"/>
        <path class="st1" d="M1444.6 929.3c0 49.5-40.6 94.9-108.3 130.5 8.4-31.7 12.8-65.1 12.8-99.4 0-63.2-15-122.8-41.8-175.5 84.9 37.3 137.3 88.2 137.3 144.4z"/>
        <path class="st1" d="M571 960.4c0 34.4 4.4 67.7 12.8 99.4-67.7-35.6-108.3-81-108.3-130.5 0-56.2 52.3-107.1 137.3-144.4C586 837.6 571 897.3 571 960.4z"/>
        <path class="st1" d="M1444.6 929.3c0 49.5-40.6 94.9-108.3 130.5 8.4-31.7 12.8-65.1 12.8-99.4 0-63.2-15-122.8-41.8-175.5 84.9 37.3 137.3 88.2 137.3 144.4z"/>
    </g>
</svg>
