<svg xmlns="http://www.w3.org/2000/svg" viewBox="0 0 1920 1920">
    <style>
        .st0{fill:#fff}.st1{fill:none;stroke:#231f20;stroke-width:50;stroke-linecap:round;stroke-linejoin:round;stroke-miterlimit:10}
    </style>
    <path class="st0" d="M1485.2 434.3C1350.7 300 1165.1 217 960 217c-54.3 0-107.3 5.8-158.3 16.9 128.2 129 324.8 211.5 545.3 211.5 47.3-.1 93.5-3.9 138.2-11.1z" id="Layer_2"/>
    <path class="st0" d="M1687.2 806.5c-19.5-92.8-56.3-179.2-106.9-255.8-156.9 99-359.6 158.7-581 158.7-247.2 0-471.1-74.4-634-195-72.7 97-122.3 212.2-140.6 337.7C408.9 920.8 645.1 962 902.6 962c310.4 0 589.8-59.9 784.6-155.5z" id="Layer_8"/>
    <path class="st0" d="M761.3 1263.5c-180.3 0-351.4-23.1-505.1-64.5 36.6 107.8 97.2 204.4 175.5 283.6 125.2 24.4 258.3 37.5 396.5 37.5 277.2 0 534.5-52.9 747.1-143.4 73.6-108.4 119.3-237.4 126.7-376.5-221.2 160.6-560.4 263.3-940.7 263.3z" id="Layer_9"/>
    <path class="st0" d="M1580.2 550.7c-27.8-42-59.6-81-95.1-116.4-44.7 7.2-90.9 11-138.2 11-220.5 0-417.2-82.5-545.3-211.5-177.4 38.5-331.1 140.3-436.4 280.6 162.9 120.5 386.8 195 634 195 221.4 0 424.1-59.7 581-158.7z" id="Layer_4"/>
    <path class="st0" d="M1687.2 806.5C1492.4 902.1 1213 962 902.6 962c-257.5 0-493.7-41.2-677.9-109.9-5.1 35.2-7.8 71.2-7.8 107.9 0 83.6 13.8 164 39.3 239 153.7 41.4 324.7 64.5 505.1 64.5 380.3 0 719.5-102.7 940.7-263.3.7-13.3 1.1-26.7 1.1-40.2 0-52.6-5.5-104-15.9-153.5z" id="Layer_5"/>
    <path class="st0" d="M431.8 1482.6c134.7 136.1 321.6 220.5 528.2 220.5 255.9 0 481.7-129.4 615.3-326.3-212.5 90.5-469.8 143.4-747.1 143.4-138.1-.1-271.3-13.2-396.4-37.6z" id="Layer_6"/>
    <g id="STROKES">
        <path class="st1" d="M1575.3 1376.7C1441.7 1573.6 1215.9 1703 960 1703c-206.6 0-393.6-84.3-528.2-220.5 125.2 24.4 258.3 37.5 396.5 37.5 277.1.1 534.5-52.8 747-143.3z"/>
        <path class="st1" d="M1580.2 550.7c-156.9 99-359.6 158.7-581 158.7-247.2 0-471.1-74.4-634-195 105.3-140.3 259-242.1 436.4-280.6 128.2 129 324.8 211.5 545.3 211.5 47.3 0 93.5-3.8 138.2-11 35.5 35.4 67.4 74.4 95.1 116.4z"/>
        <path class="st1" d="M1702 1000.2c-7.4 139.1-53.1 268-126.7 376.5-212.5 90.5-469.8 143.4-747.1 143.4-138.1 0-271.3-13.1-396.5-37.5-78.3-79.2-139-175.8-175.5-283.6 153.7 41.4 324.7 64.5 505.1 64.5 380.3 0 719.5-102.7 940.7-263.3z"/>
        <path class="st1" d="M1687.2 806.5C1492.4 902.1 1213 962 902.6 962c-257.5 0-493.7-41.2-677.9-109.9 18.2-125.5 67.8-240.8 140.6-337.7 162.9 120.5 386.8 195 634 195 221.3 0 424-59.7 581-158.7 50.5 76.5 87.4 162.9 106.9 255.8z"/>
        <path class="st1" d="M1703.1 960c0 13.5-.4 26.9-1.1 40.2-221.2 160.5-560.4 263.3-940.7 263.3-180.3 0-351.4-23.1-505.1-64.5-25.5-75-39.3-155.4-39.3-239 0-36.7 2.6-72.7 7.8-107.9C408.9 920.8 645.1 962 902.6 962c310.4 0 589.8-59.9 784.6-155.5 10.4 49.5 15.9 100.9 15.9 153.5z"/>
        <path class="st1" d="M1485.2 434.3c-44.7 7.2-90.9 11-138.2 11-220.5 0-417.2-82.5-545.3-211.5 51-11.1 104-16.9 158.3-16.9 205.1.1 390.7 83.1 525.2 217.4z"/>
    </g>
</svg>
