<svg xmlns="http://www.w3.org/2000/svg" viewBox="0 0 1920 1920">
    <style>
        .st0{fill:#fff}.st1{fill:none;stroke:#231f20;stroke-width:50;stroke-linecap:round;stroke-linejoin:round;stroke-miterlimit:10}
    </style>
    <path class="st0" d="M1703.1 960c0 75.5-11.2 148.3-32.2 216.9-15.5 51-36.4 99.7-62 145.4H660.6c-40.2 0-72.7-32.5-72.7-72.7 0-20.1 8.1-38.2 21.3-51.4 13.2-13.2 31.3-21.3 51.4-21.3h524.8c35.1 0 66.9-14.2 90-37.3 23-23 37.3-54.8 37.3-90 0-70.3-57-127.2-127.2-127.2H217.9c10-201.9 100.7-382.6 240.4-510.6 32.3-29.6 67.3-56.4 104.5-80C677.7 259.1 813.9 217 960 217c252.9 0 476.3 126.3 610.5 319.3H829.8c-28.5 0-54.4 11.6-73.1 30.3-18.7 18.7-30.3 44.5-30.3 73.1 0 57.1 46.3 103.4 103.4 103.4h841c21 68.5 32.3 141.4 32.3 216.9z" id="Layer_2"/>
    <path class="st0" d="M953.6 1447H398.8c40.4 46.5 86.4 87.9 137.1 123.2 31.5 22 64.9 41.6 99.8 58.5h318c25.1 0 47.8-10.2 64.2-26.6 16.4-16.5 26.6-39.2 26.6-64.2 0-50.3-40.7-90.9-90.9-90.9z" id="Layer_4"/>
    <path class="st0" d="M1608.9 1322.3c-127.1 227.2-370.1 380.8-648.9 380.8-116.3 0-226.4-26.7-324.4-74.4h318c25.1 0 47.8-10.2 64.2-26.6 16.4-16.5 26.6-39.2 26.6-64.2 0-50.2-40.7-90.9-90.9-90.9H398.8c-6.5-7.5-12.9-15.2-19.2-23-58-72.5-102.8-156.1-130.5-247.1-20.9-68.6-32.1-141.4-32.1-216.9 0-12.6.3-25.1.9-37.5h967.5c70.3 0 127.2 57 127.2 127.2 0 35.1-14.2 66.9-37.3 90-23 23-54.8 37.3-90 37.3H660.6c-20.1 0-38.2 8.1-51.4 21.3-13.2 13.2-21.3 31.3-21.3 51.4 0 40.2 32.5 72.7 72.7 72.7h948.3z" id="Layer_5"/>
    <path class="st0" d="M829.8 743h841c-22.7-74.6-56.9-144.2-100.4-206.7H829.8c-28.5 0-54.4 11.6-73.1 30.3-18.7 18.7-30.3 44.5-30.3 73.1.1 57 46.3 103.3 103.4 103.3z" id="Layer_6"/>
    <g id="STROKES">
        <path class="st1" d="M1703.1 960c0 75.5-11.2 148.3-32.2 216.9-15.5 51-36.4 99.7-62 145.4-127.1 227.2-370.1 380.8-648.9 380.8-116.3 0-226.4-26.7-324.4-74.4-34.9-16.9-68.2-36.5-99.8-58.5-50.7-35.3-96.7-76.7-137.1-123.2-6.5-7.5-12.9-15.2-19.2-23-58-72.5-102.8-156.1-130.5-247.1-20.8-68.6-32-141.4-32-216.9 0-12.6.3-25.1.9-37.5 10-201.9 100.7-382.6 240.4-510.6 32.3-29.6 67.3-56.4 104.5-80C677.7 259.1 813.9 217 960 217c252.9 0 476.3 126.3 610.5 319.3 43.5 62.6 77.7 132.2 100.4 206.7 20.9 68.6 32.2 141.5 32.2 217z"/>
        <path class="st1" d="M1670.9 743h-841c-57.1 0-103.4-46.3-103.4-103.4 0-28.5 11.6-54.4 30.3-73.1 18.7-18.7 44.5-30.3 73.1-30.3h740.7c43.4 62.7 77.5 132.3 100.3 206.8z"/>
        <path class="st1" d="M1608.9 1322.3H660.6c-40.2 0-72.7-32.5-72.7-72.7 0-20.1 8.1-38.2 21.3-51.4 13.2-13.2 31.3-21.3 51.4-21.3h524.8c35.1 0 66.9-14.2 90-37.3 23-23 37.3-54.8 37.3-90 0-70.3-57-127.2-127.2-127.2H217.9c-.6 12.4-.9 24.9-.9 37.5"/>
        <path class="st1" d="M1044.5 1537.8c0 25.1-10.2 47.8-26.6 64.2-16.4 16.4-39.2 26.6-64.2 26.6h-318c-34.9-16.9-68.2-36.5-99.8-58.5-50.7-35.3-96.7-76.7-137.1-123.2h554.8c50.2.1 90.9 40.7 90.9 90.9z"/>
    </g>
</svg>
