<svg xmlns="http://www.w3.org/2000/svg" viewBox="0 0 1920 1920">
    <style>
        .st0{fill:#fff}.st1{fill:none;stroke:#231f20;stroke-width:50;stroke-linecap:round;stroke-linejoin:round;stroke-miterlimit:10}
    </style>
    <path class="st0" d="M668.5 960c0 133.5 89.8 246.1 212.2 280.6-4.1-86.6-6.3-181.3-6.3-280.6s2.2-194 6.3-280.6C758.3 713.9 668.5 826.5 668.5 960z" id="Layer_4"/>
    <path class="st0" d="M1039.3 679.4c-21.1-6-43.2-9.6-66-10.6-4.4-.2-8.8-.3-13.3-.3s-8.9.1-13.3.3c-2.1 81.3-3.3 182-3.3 291.2 0 109.1 1.2 209.9 3.3 291.2 4.4.2 8.8.3 13.3.3s8.9-.1 13.3-.3c22.8-1 44.9-4.6 66-10.6 122.5-34.5 212.2-147.1 212.2-280.6s-89.8-246.1-212.2-280.6z" id="Layer_7"/>
    <path class="st0" d="M973.3 1251.2c22.8-1 44.9-4.6 66-10.6-12.7 271.3-43.4 462.5-79.3 462.5s-66.5-191.2-79.3-462.5c-4.1-86.6-6.3-181.3-6.3-280.6s2.2-194 6.3-280.6C893.5 408.1 924.2 217 960 217s66.5 191.2 79.3 462.5c-21.1-6-43.2-9.6-66-10.6-3-119.3-7.8-196.6-13.3-196.6s-10.3 77.3-13.3 196.6c-2.1 81.3-3.3 182-3.3 291.2 0 109.1 1.2 209.9 3.3 291.2 3 119.3 7.8 196.6 13.3 196.6s10.3-77.4 13.3-196.7z" id="Layer_5"/>
    <g id="STROKES">
        <path class="st1" d="M973.3 1251.2c22.8-1 44.9-4.6 66-10.6-12.7 271.3-43.4 462.5-79.3 462.5s-66.5-191.2-79.3-462.5c-4.1-86.6-6.3-181.3-6.3-280.6s2.2-194 6.3-280.6C893.5 408.1 924.2 217 960 217s66.5 191.2 79.3 462.5c-21.1-6-43.2-9.6-66-10.6-3-119.3-7.8-196.6-13.3-196.6s-10.3 77.3-13.3 196.6c-2.1 81.3-3.3 182-3.3 291.2 0 109.1 1.2 209.9 3.3 291.2 3 119.3 7.8 196.6 13.3 196.6s10.3-77.4 13.3-196.7z"/>
        <path class="st1" d="M973.3 668.8c-4.4-.2-8.8-.3-13.3-.3s-8.9.1-13.3.3c3-119.3 7.8-196.6 13.3-196.6s10.3 77.3 13.3 196.6z"/>
        <path class="st1" d="M973.3 1251.2c-3 119.3-7.8 196.6-13.3 196.6s-10.3-77.3-13.3-196.6c4.4.2 8.8.3 13.3.3s8.9-.1 13.3-.3z"/>
        <path class="st1" d="M973.3 1251.2c-3 119.3-7.8 196.6-13.3 196.6s-10.3-77.3-13.3-196.6c4.4.2 8.8.3 13.3.3s8.9-.1 13.3-.3z"/>
        <path class="st1" d="M973.3 668.8c-4.4-.2-8.8-.3-13.3-.3s-8.9.1-13.3.3c3-119.3 7.8-196.6 13.3-196.6s10.3 77.3 13.3 196.6z"/>
        <path class="st1" d="M1251.5 960c0 133.5-89.8 246.1-212.2 280.6-21.1 6-43.2 9.6-66 10.6-4.4.2-8.8.3-13.3.3s-8.9-.1-13.3-.3c-2.1-81.3-3.3-182.1-3.3-291.2 0-109.2 1.2-209.9 3.3-291.2 4.4-.2 8.8-.3 13.3-.3s8.9.1 13.3.3c22.8 1 44.9 4.7 66 10.6 122.4 34.5 212.2 147.1 212.2 280.6z"/>
        <path class="st1" d="M874.4 960c0 99.3 2.2 194 6.3 280.6-122.5-34.5-212.2-147.1-212.2-280.6s89.8-246.1 212.2-280.6c-4 86.6-6.3 181.3-6.3 280.6z"/>
    </g>
</svg>
