<svg xmlns="http://www.w3.org/2000/svg" viewBox="0 0 1920 1920">
    <style>
        .st0{fill:#fff}.st1{fill:none;stroke:#231f20;stroke-width:50;stroke-linecap:round;stroke-linejoin:round;stroke-miterlimit:10}
    </style>
    <path class="st0" d="M1532 960c65.6 0 124.9 26.7 167.8 69.7 2.1-23 3.2-46.2 3.2-69.7 0-410.4-332.7-743-743.1-743S217 549.6 217 960s332.7 743.1 743 743.1c230.3 0 436.2-104.8 572.5-269.4h-.5c-130.8 0-236.9-106-236.9-236.8S1401.2 960 1532 960zM523 1101.7c-104.1 0-188.5-84.4-188.5-188.5S418.9 724.8 523 724.8s188.5 84.4 188.5 188.5-84.4 188.4-188.5 188.4zm233.4 413c-54.7 0-99-44.3-99-99s44.3-99 99-99 99 44.3 99 99c.1 54.6-44.3 99-99 99zm383.5-844c-73.6 0-133.3-59.7-133.3-133.3 0-73.6 59.7-133.3 133.3-133.3 73.6 0 133.3 59.7 133.3 133.3 0 73.6-59.7 133.3-133.3 133.3z" id="Layer_2"/>
    <circle class="st0" cx="756.4" cy="1415.6" r="99" id="Layer_4"/>
    <path class="st0" d="M1532 960c-130.8 0-236.9 106-236.9 236.8s106 236.8 236.9 236.8h.5c92.6-111.8 153.1-251.2 167.3-404-42.9-42.9-102.2-69.6-167.8-69.6z" id="Layer_5"/>
    <circle class="st0" cx="523" cy="913.2" r="188.5" id="Layer_6"/>
    <circle class="st0" cx="1139.9" cy="537.4" r="133.3" id="Layer_8"/>
    <g id="STROKES">
        <path class="st1" d="M1703.1 960c0 23.5-1.1 46.8-3.2 69.7-14.2 152.8-74.7 292.2-167.3 404-136.3 164.5-342.2 269.4-572.5 269.4-410.4 0-743-332.7-743-743.1s332.7-743 743-743 743 332.6 743 743z"/>
        <circle class="st1" cx="523" cy="913.2" r="188.5"/>
        <circle class="st1" cx="1139.9" cy="537.4" r="133.3"/>
        <circle class="st1" cx="756.4" cy="1415.6" r="99"/>
        <path class="st1" d="M1699.8 1029.7c-14.2 152.8-74.7 292.2-167.3 404h-.5c-130.8 0-236.9-106-236.9-236.8S1401.2 960 1532 960c65.6 0 124.9 26.7 167.8 69.7z"/>
    </g>
</svg>
