<svg xmlns="http://www.w3.org/2000/svg" viewBox="0 0 1920 1920">
    <style>
        .st0{fill:#fff}.st1{fill:none;stroke:#231f20;stroke-width:50;stroke-linecap:round;stroke-linejoin:round;stroke-miterlimit:10}
    </style>
    <path class="st0" d="M1093.6 1702.6l-13.2-24.8c-16.3-30.7-21.6-66.1-15-100.2 67.7-354.7-19.6-573.4-40.1-642.4-5.8-19.4-19.4-47.2-37-80.1h130.2c34.7 96.3 86.4 266.6 92.3 460.9 7.8 259.6-117.2 386.6-117.2 386.6zM831.9 1148c7.8-121.6 62.2-232 98.1-292.7l-.4-.2H800.3c-35.9 63.4-92.8 183.2-91.4 425.7 2 337.8 125 421.8 125 421.8l10.1-18.3c18.7-33.9 23.5-73.7 14-111.2-24.5-95.9-35.6-276-26.1-425.1z" id="Layer_2"/>
    <path class="st0" d="M988.2 217.4C1092 373.1 1092 526.2 1091.7 541.3c-.3-.2-8.3-6.1-105.5-65.2-4.6-2.8-8.9-5.8-12.9-8.8C1030 393.1 953 294.6 953 294.6v-77.3l35.2.1zM835.8 546.5s2 214.8-7.8 255.8c-2.8 11.6-13.6 27.8-27.7 52.7h129.3l.4.2c17.4-29.4 30.4-47.2 31.7-48.9-45.2-81.6-100.8-180.5-124.3-260.3l-1.6.5z" id="Layer_7"/>
    <path class="st0" d="M935.1 607c0 25.5 20.7 46.2 46.2 46.2 25.5 0 46.2-20.7 46.2-46.2s-20.7-46.2-46.2-46.2c-25.5 0-46.2 20.7-46.2 46.2zm26.6 199.4C916.5 724.7 860.9 625.8 837.4 546l-1.5-5.4c-37.1-132.8 82.6-323.7 82.6-323.7l34.6.2v77.3s-60.3 110.1 20.3 172.8c3.9 3.1 8.2 6 12.9 8.8 97.2 59.1 105.1 64.9 105.5 65.2v243.3c5.4 13.8 15.2 37.9 26.9 70.3H988.3c-8.1-15-17.1-31.3-26.6-48.4z" id="Layer_8"/>
    <path class="st0" d="M981.3 560.8c25.5 0 46.2 20.7 46.2 46.2s-20.7 46.2-46.2 46.2c-25.5 0-46.2-20.7-46.2-46.2s20.7-46.2 46.2-46.2z" id="Layer_9"/>
    <g id="STROKES">
        <path class="st1" d="M1118.5 855c-11.7-32.4-21.4-56.5-26.9-70.3V541.4c.3-15.1.3-168.2-103.5-323.9l-35.1-.2-34.6-.2S798.7 408 835.8 540.8l1.5 5.4c23.5 79.8 79.1 178.7 124.3 260.3 9.5 17.1 18.5 33.4 26.6 48.7 17.6 32.9 31.2 60.7 37 80.1 20.5 69 107.9 287.7 40.1 642.4-6.5 34.2-1.2 69.5 15 100.2l13.2 24.8s125-126.9 117.2-386.7c-5.8-194.4-57.5-364.6-92.2-461z"/>
        <path class="st1" d="M961.8 806.2s0 .1-.1.1c-1.3 1.7-14.3 19.5-31.7 48.9-35.9 60.7-90.3 171.1-98.1 292.7-9.5 149.1 1.6 329.2 26 425 9.6 37.5 4.7 77.3-14 111.2l-10.1 18.3s-123-84-125-421.8c-1.4-242.5 55.6-362.3 91.4-425.7 14.1-24.9 24.9-41.2 27.7-52.7 9.8-41 7.8-255.8 7.8-255.8"/>
        <path class="st1" d="M1027.4 607c0 25.5-20.7 46.2-46.2 46.2-25.5 0-46.2-20.7-46.2-46.2s20.7-46.2 46.2-46.2c25.6 0 46.2 20.7 46.2 46.2z"/>
        <path class="st1" d="M973.3 467.4c3.9 3.1 8.2 6 12.9 8.8 97.2 59.1 105.1 64.9 105.5 65.2"/>
        <path class="st1" d="M953 217.9v76.6s-60.3 110.1 20.3 172.8"/>
        <path class="st1" d="M953 294.6s77 98.6 20.3 172.8"/>
        <path class="st1" d="M800.3 855h129.3"/>
        <path class="st1" d="M988.3 855H1119"/>
    </g>
</svg>
