<svg xmlns="http://www.w3.org/2000/svg" viewBox="0 0 1920 1920">
    <style>
        .st0{fill:#fff}.st1{fill:none;stroke:#231f20;stroke-width:50;stroke-linecap:round;stroke-linejoin:round;stroke-miterlimit:10}
    </style>
    <path class="st0" d="M736.9 944.9c-3.1-37-7-72.9-11.6-107.3l-134.6-207 60.5-93.1 75.5-116.2h10.2V217H322.6v204.3h10.2l75.5 116.2 60.5 93.1-134.6 207c-4.7 34.4-8.6 70.3-11.7 107.3-2.9 35-5.1 71.2-6.5 108.1-1.2 31.5-1.8 63.7-1.8 96.3 0 220.3 28 418 72.4 553.7h286.2c44.4-135.7 72.4-333.4 72.4-553.7 0-32.7-.6-64.8-1.8-96.3-1.3-37-3.5-73.1-6.5-108.1zM467.2 440.5l-12.5-19.2h150.2l-12.5 19.2-62.6 96.3-62.6-96.3zm62.6 867.1c-85.6 0-159.6-116.1-194.3-284.3l194.3-299 194.3 299c-34.8 168.1-108.7 284.3-194.3 284.3zm822.5-852.8l-225.7 437.6-136.3-108.7 269.4-362.4h6.6V217H851.9v204.3h280.4L910.3 720l18.9 145.8L1078.8 985 977 1182.5c-17.9 34.8-22.9 74.7-14.1 112.8l94.5 407.8h181.8v-422.5s-4.8-65.2 21.4-150.6c9.4-30.6 22.7-63.7 41.7-97.4 35-62.3 89.2-126.4 172.8-179.5 255.6-162.3 93.4-511.3-122.8-398.3z" id="Layer_4"/>
    <path class="st0" d="M592.4 440.5c-7.5-7.8-15.2-14.3-23-19.2h-79.2c-7.8 5-15.5 11.4-23 19.2l62.6 96.3 62.6-96.3zm132.9 397.1c-16.4-121.5-42.2-225.2-74.1-300.1l-60.5 93.1 134.6 207zm-389.8 185.7c34.7 168.2 108.7 284.3 194.3 284.3 85.6 0 159.6-116.1 194.3-284.3l-194.3-299-194.3 299zm72.8-485.8c-31.9 74.9-57.6 178.6-74.1 300.1l134.6-207-60.5-93.1z" id="Layer_5"/>
    <g id="STROKES">
        <path class="st1" d="M408.3 537.5l60.5 93.1-134.6 207c16.5-121.5 42.2-225.2 74.1-300.1z"/>
        <path class="st1" d="M592.4 440.5l-62.6 96.3-62.6-96.3c7.5-7.8 15.2-14.3 23-19.2h79.2c7.8 5 15.5 11.4 23 19.2z"/>
        <path class="st1" d="M736.9 944.9c-3.3 27.1-7.6 53.3-12.8 78.4-34.7 168.2-108.7 284.3-194.3 284.3-85.6 0-159.6-116.1-194.3-284.3l194.3-299 60.9-93.7 60.5-93.1c31.9 74.9 57.7 178.6 74.1 300.1 4.6 34.4 8.5 70.3 11.6 107.3z"/>
        <path class="st1" d="M408.3 537.5l60.5 93.1-134.6 207c16.5-121.5 42.2-225.2 74.1-300.1z"/>
        <path class="st1" d="M592.4 440.5l-62.6 96.3-62.6-96.3c7.5-7.8 15.2-14.3 23-19.2h79.2c7.8 5 15.5 11.4 23 19.2z"/>
        <path class="st1" d="M736.9 944.9c-3.3 27.1-7.6 53.3-12.8 78.4-34.7 168.2-108.7 284.3-194.3 284.3-85.6 0-159.6-116.1-194.3-284.3l194.3-299 60.9-93.7 60.5-93.1c31.9 74.9 57.7 178.6 74.1 300.1 4.6 34.4 8.5 70.3 11.6 107.3z"/>
        <path class="st1" d="M1475.1 852.9c-83.7 53.1-137.8 117.2-172.8 179.5-19 33.7-32.3 66.9-41.7 97.4-26.2 85.5-21.4 150.6-21.4 150.6v422.5h-181.8l-94.5-407.8c-8.8-38.1-3.8-78.1 14.1-112.8L1078.8 985l47.8-92.6 225.7-437.6c216.2-113 378.4 235.9 122.8 398.1z"/>
        <path class="st1" d="M745.3 1149.4c0 220.3-28 418-72.4 553.7H386.7c-44.4-135.6-72.4-333.4-72.4-553.7 0-32.7.6-64.8 1.8-96.3 1.4-37 3.6-73.1 6.5-108.1 3.3 27.1 7.6 53.3 12.8 78.4 34.7 168.2 108.7 284.3 194.3 284.3 85.6 0 159.6-116.1 194.3-284.3 5.2-25 9.5-51.2 12.8-78.4 2.9 35 5.1 71.1 6.5 108.1 1.3 31.4 2 63.6 2 96.3z"/>
        <path class="st1" d="M322.6 216.9h414.3v102.2H322.6z"/>
        <path class="st1" d="M322.6 319.1h414.3v102.2H322.6z"/>
        <path class="st1" d="M851.9 319.1h414.3v102.2H851.9z"/>
        <path class="st1" d="M529.8 536.8l-61 93.8-60.5-93.1-75.5-116.2h121.9l12.5 19.2z"/>
        <path class="st1" d="M736.9 944.9c-3.3 27.1-7.6 53.3-12.8 78.4l-194.3-299 60.9-93.7 134.6 207c4.6 34.4 8.5 70.3 11.6 107.3z"/>
        <path class="st1" d="M1126.6 892.4l-47.8 92.6-149.5-119.3 61-82z"/>
        <path class="st1" d="M851.9 216.9h414.3v102.2H851.9z"/>
        <path class="st1" d="M1259.7 421.3L990.3 783.7l-61 82-19-145.8 222.1-298.6z"/>
        <path class="st1" d="M726.7 421.3l-75.5 116.2-60.5 93.1-60.9 93.7-194.3 299c-5.2-25-9.5-51.2-12.8-78.4 3.1-37 7-72.9 11.7-107.3l134.6-207 60.9-93.7 62.6-96.3 12.5-19.3h121.7z"/>
    </g>
</svg>
