<svg xmlns="http://www.w3.org/2000/svg" viewBox="0 0 1920 1920">
    <style>
        .st0{fill:#fff}.st1{fill:none;stroke:#231f20;stroke-width:50;stroke-linecap:round;stroke-linejoin:round;stroke-miterlimit:10}
    </style>
    <path class="st0" d="M379.5 702v52.5l-51 34.5-31.4-.8c-15.8-.4-29.2-11.8-32.2-27.3l-1.6-8.5c-3.7-19.1 9.6-37.4 29-39.7l87.2-10.7zm1161 0v52.5l51 34.5 31.4-.8c15.8-.4 29.2-11.8 32.2-27.3l1.6-8.5c3.7-19.1-9.6-37.4-29-39.7l-87.2-10.7zm-303 481.5h-555c-42 0-81-73.5-81-73.5s-169.5-3-262.5-3c-92.1 0-110.1-42.3-110.5-43.1-2.9 17.4-3.5 28.1-3.5 28.1v160.5l43.5 57.3 14 18.5c45.1 59.4 114.3 95.3 188.5 98 3.1.1 6.2.2 9.3.2h959.4c3.1 0 6.2-.1 9.3-.2 74.2-2.8 143.4-38.6 188.5-98l14-18.5 43.5-57.3V1092s-.6-10.7-3.5-28.1c-.4.8-18.4 43.1-110.5 43.1-93 0-262.5 3-262.5 3s-39 73.5-81 73.5zm84-177s22.5-36 87-36h192c43.5 0 51.4-26.6 51.4-26.6-27.2-51.8-71.3-103.8-142.9-130.9-612-57-1098 0-1098 0-71.5 27.1-115.7 79.1-142.9 130.9 0 0 7.9 26.6 51.4 26.6h192c64.5 0 87 36 87 36s1-.4 3-1c18.9-6.4 127.9-39.5 357-39.5h3c229.1 0 338.1 33.1 357 39.5 2 .6 3 1 3 1z" id="Layer_3"/>
    <path class="st0" d="M1527.5 447c32.3 0 58.5 26.2 58.5 58.5s-26.2 58.5-58.5 58.5-58.5-26.2-58.5-58.5 26.2-58.5 58.5-58.5zm-206 559.5s-1-.4-3-1V1110s169.5-3 262.5-3c92.1 0 110.1-42.3 110.5-43.1-4.7-28.2-15.5-74-39.6-119.9 0 0-7.9 26.6-51.4 26.6h-192c-64.5-.1-87 35.9-87 35.9zm-1002-36h192c64.5 0 87 36 87 36s1-.4 3-1V1110s-169.5-3-262.5-3c-92.1 0-110.1-42.3-110.5-43.1 4.7-28.2 15.5-74 39.6-119.9.1-.1 7.9 26.5 51.4 26.5z" id="Layer_4"/>
    <path class="st0" d="M1341 556.5L1509 813c-612-57-1098 0-1098 0l168-256.5s123.2-49 309.1-59.8c23-1.3 47.1-2.1 71.9-2.1h.4c23.1 0 45.5.6 67 1.8 188.4 10.3 313.6 60.1 313.6 60.1z" id="Layer_5"/>
    <path class="st0" d="M888 400.5V492H582v-29.2c0-35.2 28.6-63.8 63.8-63.8H888v1.5z" id="Layer_6"/>
    <path class="st0" d="M1027.5 400.5V492H888v-93h139.5z" id="Layer_7"/>
    <path class="st0" d="M1335 462.9V492h-307.5v-93h243.7c35.2 0 63.8 28.6 63.8 63.9z" id="Layer_8"/>
    <path class="st0" d="M1318.5 1005.5V1110s-39 73.5-81 73.5h-555c-42 0-81-73.5-81-73.5v-104.5c18.9-6.4 127.9-39.5 357-39.5h3c229.1 0 338.1 33.1 357 39.5zm-312.8 72.2c0-19.5-23.2-35.2-51.8-35.2-28.6 0-51.8 15.8-51.8 35.2 0 19.5 23.2 35.2 51.8 35.2 28.6.1 51.8-15.7 51.8-35.2z" id="Layer_2"/>
    <path class="st0" d="M1651.5 1309.8v159.3c0 28.6-23.2 51.9-51.9 51.9h-98.8c-28.6 0-51.9-23.2-51.9-51.9v-42.8c74.2-2.8 143.4-38.6 188.5-98l14.1-18.5zM471 1426.3c-74.2-2.8-143.4-38.6-188.5-98l-14-18.5v159.3c0 28.6 23.2 51.9 51.9 51.9h98.8c28.6 0 51.9-23.2 51.9-51.9v-42.8h-.1z" id="Layer_9"/>
    <path class="st0" d="M953.9 1042.5c28.6 0 51.8 15.8 51.8 35.2 0 19.5-23.2 35.2-51.8 35.2-28.6 0-51.8-15.8-51.8-35.2.1-19.4 23.2-35.2 51.8-35.2z" id="Layer_10"/>
    <g id="STROKES">
        <path class="st1" d="M601.5 960v381"/>
        <path class="st1" d="M471 1426.3v42.8c0 28.6-23.2 51.9-51.9 51.9h-98.8c-28.6 0-51.9-23.2-51.9-51.9v-159.3"/>
        <path class="st1" d="M379.5 754.5V702l-87.2 10.6c-19.3 2.4-32.6 20.6-29 39.7l1.6 8.5c3 15.5 16.4 26.9 32.2 27.3l31.4.8 51-34.4z"/>
        <path class="st1" d="M420 781.5l-40.5-27"/>
        <path class="st1" d="M1027.5 399h243.7c35.2 0 63.8 28.6 63.8 63.8V492H582v-29.2c0-35.2 28.6-63.8 63.8-63.8h381.7z"/>
        <path class="st1" d="M888 400.5V495"/>
        <path class="st1" d="M1027.5 400.5V495"/>
        <path class="st1" d="M340.5 973.5L363 1101"/>
        <path class="st1" d="M1318.5 960v381"/>
        <path class="st1" d="M1691.4 1063.8c-4.7-28.2-15.5-74-39.6-119.9-27.2-51.8-71.3-103.8-142.9-130.9l-168-256.5s-125.2-49.8-313.6-60c-21.6-1.2-43.9-1.8-67-1.8h-.4c-24.8 0-48.9.7-71.9 2.1-185.7 10.7-309 59.7-309 59.7L411 813c-71.5 27.1-115.7 79.1-142.9 130.9-24.1 45.9-34.9 91.7-39.6 119.9"/>
        <path class="st1" d="M228.6 1063.8c-2.9 17.4-3.5 28.1-3.5 28.1v160.5l43.5 57.3 14 18.5c45.1 59.4 114.3 95.3 188.5 98 3.1.1 6.2.2 9.3.2h959.4c3.1 0 6.2-.1 9.3-.2 74.2-2.8 143.4-38.6 188.5-98l14-18.5 43.5-57.3V1092s-.6-10.7-3.5-28.1"/>
        <path class="st1" d="M1449 1426.3v42.8c0 28.6 23.2 51.9 51.9 51.9h98.8c28.6 0 51.9-23.2 51.9-51.9v-159.3"/>
        <path class="st1" d="M1540.5 754.5V702l87.2 10.6c19.3 2.4 32.6 20.6 29 39.7l-1.6 8.5c-3 15.5-16.4 26.9-32.2 27.3l-31.4.8-51-34.4z"/>
        <path class="st1" d="M1500 781.5l40.5-27"/>
        <path class="st1" d="M228.6 1063.8c.4.9 18.4 43.2 110.5 43.2 93 0 262.5 3 262.5 3s39 73.5 81 73.5h555c42 0 81-73.5 81-73.5s169.5-3 262.5-3c92.1 0 110.1-42.3 110.5-43.1"/>
        <path class="st1" d="M1651.8 943.9s-7.9 26.6-51.4 26.6h-192c-64.5 0-87 36-87 36s-1-.4-3-1c-18.9-6.4-127.9-39.5-357-39.5h-3c-229.1 0-338.1 33.1-357 39.5-2 .7-3 1-3 1s-22.5-36-87-36h-192c-43.5 0-51.4-26.6-51.4-26.6"/>
        <path class="st1" d="M1579.5 973.5L1557 1101"/>
        <path class="st1" d="M1005.7 1077.7c0 19.5-23.2 35.2-51.8 35.2-28.6 0-51.8-15.8-51.8-35.2 0-19.5 23.2-35.2 51.8-35.2 28.6 0 51.8 15.8 51.8 35.2z"/>
        <path class="st1" d="M411 813s486-57 1097.9 0"/>
        <path class="st1" d="M1586 505.5c0 32.3-26.2 58.5-58.5 58.5s-58.5-26.2-58.5-58.5 26.2-58.5 58.5-58.5 58.5 26.2 58.5 58.5z"/>
        <path class="st1" d="M1387.5 621h140v-55.5"/>
        <path class="st1" d="M888 573h174"/>
    </g>
</svg>
