<svg xmlns="http://www.w3.org/2000/svg" viewBox="0 0 1920 1920">
    <style>
        .st0{fill:#fff}.st1{fill:none;stroke:#231f20;stroke-width:50;stroke-linecap:round;stroke-linejoin:round;stroke-miterlimit:10}
    </style>
    <path class="st0" d="M1243.1 680.8l-25.2-353.3c-2.7-4.1-5.5-8-8.3-11.8l-35.8 37.8-72.2-44.1-16.2-78.5c-23.9-7.4-46.8-11.3-66.5-13.2l4.4 67.6H896.8l4.4-67.6c-19.6 1.9-42.6 5.8-66.5 13.2l-16.2 78.5-72.2 44.1-35.8-37.8c-2.9 3.8-5.6 7.7-8.3 11.8L677 679.8l-.9 12.9v640.1c0 1.2 1.9 14.2 4.9 34.3 7.6 50 22.2 143.9 32.3 208.8 6 0 97.2 59.9 135.3 59.9 0 0 12 43.9-1.9 60.1 30 4.8 66.9 8 112.3 8.1h2c45.3-.1 82.3-3.3 112.3-8.1-13.9-16.1-1.9-60.1-1.9-60.1 38.1 0 129.3-59.9 135.3-59.9 10.1-64.9 24.8-158.8 32.3-208.8 3-20.1 4.9-33.1 4.9-34.3V692.7l-.8-11.9zM949 602.4h22c138.5 0 214.8 36.6 249.1 59.8l-98.7 213.1s-106.4-20.6-158.5-20.6c-52.2 0-164.5 20.6-164.5 20.6l-98.8-213.4c35-23.3 111.6-59.5 249.4-59.5zm196.6 399.3v84.3H774.4v-84.3h371.2zm18.8 507.8c-5.8 3.7-12.1 6.4-18.8 7.9-58.3 12.8-166.3 20.5-185.6 21.9-19.4-1.3-127.3-9.1-185.6-21.9-6.7-1.5-12.9-4.2-18.8-7.9l26.8-178.7s62.2 21.5 178.6 21.5c116.4 0 176.6-21.5 176.6-21.5l26.8 178.7z" id="Layer_12"/>
    <path class="st0" d="M971 602.4c138.5 0 214.8 36.6 249.1 59.8l-98.7 213.1s-106.4-20.6-158.5-20.6-164.5 20.6-164.5 20.6l-98.8-213.4c34.9-23.2 111.5-59.5 249.3-59.5H971zm174.6 915c6.7-1.5 12.9-4.2 18.8-7.9l-26.8-178.7s-60.2 21.5-176.6 21.5-178.6-21.5-178.6-21.5l-26.8 178.7c5.8 3.7 12.1 6.4 18.8 7.9 58.3 12.8 166.3 20.5 185.6 21.9 19.3-1.4 127.3-9.1 185.6-21.9z" id="Layer_18"/>
    <path class="st0" d="M1206.7 1575.9c-6.3 40.7-10.9 69.9-10.9 69.9s-23.5 34-122.5 50c-13.9-16.1-1.9-60.1-1.9-60.1 38.1.1 129.3-59.8 135.3-59.8zM1101.5 309.4l72.2 44.1 35.8-37.8c-34.8-46.2-81-71.3-124.2-84.8l16.2 78.5zM713.3 1575.9c6.3 40.7 10.9 69.9 10.9 69.9s23.5 34 122.5 50c13.9-16.1 1.9-60.1 1.9-60.1-38.1.1-129.3-59.8-135.3-59.8zm33-1222.4l72.2-44.1 16.2-78.5c-43.2 13.5-89.4 38.6-124.2 84.8l35.8 37.8z" id="Layer_19"/>
    <path class="st0" d="M960 217c4.9-.5 27.7-2.4 58.8.7l4.4 67.6H896.8l4.4-67.6c31.1-3.1 53.9-1.2 58.8-.7z" id="Layer_20"/>
    <path class="st0" d="M516 679.3c0-22.4 18.1-19.5 40.5-19.5s40.5-2.9 40.5 19.5-18.1 64.5-40.5 64.5-40.5-42.1-40.5-64.5z" id="Layer_21"/>
    <path class="st0" d="M774.4 1001.7h371.2v84.3H774.4z" id="Layer_13"/>
    <g id="STROKES">
        <g id="XMLID_1_">
            <path class="st1" d="M755.6 1509.5l26.8-178.7s62.2 21.5 178.6 21.5 176.6-21.5 176.6-21.5l26.8 178.7"/>
            <path class="st1" d="M682.1 1366.9c3.6 5.4 23.3 110.6 73.5 142.6 5.8 3.7 12.1 6.4 18.8 7.9 58.3 12.8 166.3 20.5 185.6 21.9 2 .1 3 .2 3 .2"/>
            <path class="st1" d="M676.1 768.9l-78.3 42.2"/>
            <path class="st1" d="M710.2 315.4l.3.3 35.8 37.8 72.2-44.1 16.2-78.5"/>
            <path class="st1" d="M740.3 632.5l78.2-323.1"/>
            <path class="st1" d="M774.4 1001.7h371.2v84.3H774.4z"/>
            <path class="st1" d="M713.3 1575.9c6 0 97.2 59.9 135.3 59.9 0 0 12 43.9-1.9 60.1l-.1.1"/>
            <path class="st1" d="M1243.1 680.8l-25.2-353.3c-2.7-4.1-5.5-8-8.3-11.8-34.8-46.2-81-71.3-124.2-84.8-23.9-7.4-46.8-11.3-66.5-13.2-31.1-3.1-53.9-1.2-58.8-.7-4.9-.5-27.7-2.4-58.8.7-19.6 1.9-42.6 5.8-66.5 13.2-43.2 13.5-89.4 38.6-124.2 84.8-2.9 3.8-5.6 7.7-8.3 11.8L677 679.8l-.9 12.9v640.1c0 1.2 1.9 14.2 4.9 34.3 7.6 50 22.2 143.9 32.3 208.8 6.3 40.7 10.9 69.9 10.9 69.9s23.5 34 122.5 50c30 4.8 66.9 8.1 112.3 8.1h2c45.3-.1 82.3-3.3 112.3-8.1 99-16 122.5-50 122.5-50s4.6-29.3 10.9-69.9c10.1-64.9 24.8-158.8 32.3-208.8 3-20.1 4.9-33.1 4.9-34.3V692.7l-.8-11.9z"/>
            <path class="st1" d="M1243.1 680.8s-7-7.9-22.9-18.6c-34.4-23.2-110.6-59.8-249.1-59.8H949c-137.8 0-214.4 36.2-249.3 59.5-13 8.6-20.2 15.5-22.7 17.9l-1 1"/>
            <path class="st1" d="M1237.9 1366.9c-3.6 5.4-23.3 110.6-73.5 142.6-5.8 3.7-12.1 6.4-18.8 7.9-58.3 12.8-166.3 20.5-185.6 21.9-2 .1-3 .2-3 .2"/>
            <path class="st1" d="M1220.2 662.2l-98.7 213.1s-106.4-20.6-158.5-20.6-164.5 20.6-164.5 20.6l-98.8-213.4"/>
            <path class="st1" d="M1243.9 768.9l78.3 42.2"/>
            <path class="st1" d="M1209.8 315.4l-.3.3-35.8 37.8-72.2-44.1-16.2-78.5"/>
            <path class="st1" d="M1018.8 217.7l4.4 67.6H896.8l4.4-67.6"/>
            <path class="st1" d="M1179.7 632.5l-78.2-323.1"/>
            <path class="st1" d="M911.8 1005.7v72.2"/>
            <path class="st1" d="M1008.2 1005.7v72.2"/>
            <path class="st1" d="M1206.7 1575.9c-6 0-97.2 59.9-135.3 59.9 0 0-12 43.9 1.9 60.1l.1.1"/>
            <path class="st1" d="M597 679.3c0 22.4-18.1 64.5-40.5 64.5S516 701.7 516 679.3s18.1-19.5 40.5-19.5 40.5-2.9 40.5 19.5z"/>
            <path class="st1" d="M676 680.8h-79"/>
        </g>
    </g>
</svg>
