<svg xmlns="http://www.w3.org/2000/svg" viewBox="0 0 1920 1920">
    <style>
        .st0{fill:#fff}.st1{fill:none;stroke:#231f20;stroke-width:50;stroke-linecap:round;stroke-linejoin:round;stroke-miterlimit:10}
    </style>
    <path class="st0" d="M1427.8 889.7l171 12.3-.5 79.7h74.6c3.2 12.8 4.9 24.6 4.9 33.1v24.8l6 6 22.5 22.5v57l-11 11c-10.3 10.3-24 16.5-38.5 17.4l-186.4 11.9c-5.8-69.6-64.1-124.3-135.3-124.3-2.9 0-5.8.1-8.6.3 4.5-1.5 55.8-83.7 49.8-118.2 0 0 2.5-33.9 51.5-33.5zm-1184 178.5l-12.6 6.8c-15 8.1-21.5 26.2-15 41.9l11.2 27.3c5.4 13 18.1 21.5 32.1 21.5h103.2c5.7-69.7 64.1-124.5 135.3-124.5s129.6 54.8 135.3 124.5h107l-48-72-12-157-36.6-71.7-21.9 13.2s-247 29.1-329.8 61.1c-12.8 5-22.3 16-25.4 29.4l-7.8 34h112.5l-7.6 65.5H243.8z" id="Layer_11"/>
    <path class="st0" d="M371.3 1002.7l-7.6 65.5H243.8l15-65.5h112.5zM1598.8 902l-.5 79.7h74.6c-8.6-34.7-27.6-76.3-50.6-78l-23.5-1.7z" id="Layer_14"/>
    <path class="st0" d="M1291.6 763l136.2 126.8c-49-.5-51.5 33.5-51.5 33.5 6 34.5-45.3 116.7-49.8 118.2-67.2 4.2-121.2 57.4-126.7 124.2H740.3l-48-72-12-157 616.5-4.5s-79.5-130.1-135.2-130.1l-360.4 5.5c27.8-29.2 49.4-51.8 49.4-51.8 153.9-29.9 348.4-12.2 408.5-5.7 11.8 1.3 23 5.7 32.5 12.9zM643.7 865l36.6 71.7c1.9-3.8 71.3-77 120.9-129.1 27.8-29.2 49.4-51.8 49.4-51.8-14.7 2.8-29 6.1-42.8 9.9L643.7 865z" id="Layer_15"/>
    <path class="st0" d="M680.3 936.7c1.9-3.8 71.3-77 120.9-129.1l360.4-5.5c55.7 0 135.2 130.1 135.2 130.1l-616.5 4.5z" id="Layer_16"/>
    <g id="Layer_17">
        <path class="st0" d="M1326.8 1151.2c1.7 0 3-1.3 3-3s-1.3-3-3-3-3 1.3-3 3 1.3 3 3 3zm3-106.5c55.5 0 100.5 45 100.5 100.5s-45 100.5-100.5 100.5-100.5-45-100.5-100.5c-.1-55.5 45-100.5 100.5-100.5z"/>
        <path class="st0" d="M492.8 1044.7c55.5 0 100.5 45 100.5 100.5s-45 100.5-100.5 100.5-100.5-45-100.5-100.5 45-100.5 100.5-100.5zm-6 106.5c1.7 0 3-1.3 3-3s-1.3-3-3-3-3 1.3-3 3 1.4 3 3 3z"/>
    </g>
    <g id="STROKES">
        <path class="st1" d="M1683.8 1045.7l-6-6v-24.8c0-8.5-1.7-20.4-4.9-33.1-8.6-34.7-27.6-76.3-50.6-78l-23.5-1.7-171-12.3L1291.6 763c-9.5-7.1-20.8-11.6-32.6-12.9-60.1-6.5-254.5-24.2-408.5 5.7-14.7 2.8-29 6.1-42.8 9.9l-164 99.3-21.9 13.2s-247 29.1-329.8 61.1c-12.8 5-22.3 16-25.4 29.4l-7.8 34-15 65.5-12.6 6.8c-15 8.1-21.5 26.2-15 41.9l11.2 27.3c5.4 13 18.1 21.5 32.1 21.5h103.2c5.7-69.7 64.1-124.5 135.3-124.5s129.6 54.8 135.3 124.5h566.5c5.5-66.9 59.4-120 126.7-124.2 2.8-.2 5.7-.3 8.6-.3 71.1 0 129.5 54.7 135.3 124.3l186.4-11.9c14.5-.9 28.2-7.1 38.5-17.4l11-11v-57l-22.5-22.5z"/>
        <path class="st1" d="M680.3 936.7l616.5-4.5s-79.5-130.1-135.2-130.1l-360.4 5.5"/>
        <path class="st1" d="M1146.8 810.7l37.5 115.5"/>
        <path class="st1" d="M1088.3 674.2h-99"/>
        <path class="st1" d="M1035.8 677.2v43.5"/>
        <path class="st1" d="M1011.8 805.7v117.5"/>
        <path class="st1" d="M740.3 1165.7l-48-72-12-157c1.9-3.8 71.3-77 120.9-129.1 27.8-29.2 49.4-51.8 49.4-51.8"/>
        <path class="st1" d="M1326.4 1041.5c4.5-1.5 55.8-83.7 49.8-118.2 0 0 2.5-34 51.5-33.5"/>
        <path class="st1" d="M243.8 1068.2h163.5"/>
        <path class="st1" d="M1684.1 1045.7h-183.3"/>
        <path class="st1" d="M1598.8 902l-.5 79.7h74.6"/>
        <path class="st1" d="M653.3 753.7h-52.5v51l42 58.5.9 1.8 36.6 71.7"/>
        <path class="st1" d="M258.8 1002.7h112.5l-7.6 65.5"/>
        <path class="st1" d="M531.8 949.2l76.5-11"/>
        <path class="st1" d="M492.8 1044.7c55.5 0 100.5 45 100.5 100.5s-45 100.5-100.5 100.5-100.5-45-100.5-100.5 45-100.5 100.5-100.5z"/>
        <path class="st1" d="M1329.8 1044.7c55.5 0 100.5 45 100.5 100.5s-45 100.5-100.5 100.5-100.5-45-100.5-100.5c-.1-55.5 45-100.5 100.5-100.5z"/>
        <path class="st1" d="M1329.8 1148.2c0 1.7-1.3 3-3 3s-3-1.3-3-3 1.3-3 3-3c1.6 0 3 1.3 3 3z"/>
        <path class="st1" d="M489.8 1148.2c0 1.7-1.3 3-3 3s-3-1.3-3-3 1.3-3 3-3 3 1.3 3 3z"/>
        <path class="st1" d="M915.8 1005.7h46.5"/>
        <path class="st1" d="M1184.3 1005.7h46.5"/>
    </g>
</svg>
