<svg xmlns="http://www.w3.org/2000/svg" viewBox="0 0 1920 1920">
    <style>
        .st0{fill:#fff}.st1{fill:none;stroke:#231f20;stroke-width:50;stroke-linecap:round;stroke-linejoin:round;stroke-miterlimit:10}
    </style>
    <path class="st0" d="M1642.9 820.8L1411.2 988l-99.1-99.9v816.6H960v.2H607.9V888.3l-99.1 99.9L277.1 821l298.6-442.4 211.1-78.1 50.6-83.3v-.1H960v-.1h122.6l50.6 83.3 211.1 78.1z" id="Layer_4"/>
    <g id="STROKES">
        <path class="st1" d="M1642.9 820.8L1411.2 988l-99-99.9c-56.1-405.5 32.2-509.7 32.2-509.7l298.5 442.4z"/>
        <path class="st1" d="M1133.2 300.3L1038 477.4l-44.6-90.9 89.2-169.5z"/>
        <path class="st1" d="M1312.1 888.1v816.6H960v.2H607.9V888.3c56.1-405.5-32.2-509.7-32.2-509.7l211.1-78.1L882 477.6l44.6-90.9-89.2-169.5H960v-.2h122.6l-89.2 169.5 44.6 90.9 95.2-177.1 211.1 78.1s-88.2 104.2-32.2 509.7z"/>
        <path class="st1" d="M607.9 888.3l-99 99.9L277.1 821l298.6-442.4s88.2 104.2 32.2 509.7z"/>
        <path class="st1" d="M786.8 300.5L882 477.6l44.6-90.9-89.2-169.5z"/>
        <path class="st1" d="M993.4 386.5l-46.2 100.2c-9.9 21.5-15 44.9-15 68.6v145.3h75v-155"/>
        <path class="st1" d="M926.6 386.7l36 66.6"/>
    </g>
</svg>
