<svg xmlns="http://www.w3.org/2000/svg" viewBox="0 0 1920 1920">
    <style>
        .st0{fill:#fff}.st1{fill:none;stroke:#231f20;stroke-width:50;stroke-linecap:round;stroke-linejoin:round;stroke-miterlimit:10}
    </style>
    <path class="st0" d="M1510.8 869.9c0-23-.3-44.8-.8-65.5-7.2-198.2-46.9-296.8-77.4-343.8-14.3-22-35.1-38.9-59.5-48.3-117.9-45.6-214.6-111.8-229.5-122.2-1.3-.9-2-1.4-2-1.4-43.7-22.9-55.7-71.7-55.7-71.7H834.2s-12 48.7-55.7 71.7c0 0-.7.5-2 1.4-14.7 10.3-109.4 75.1-225.4 120.7-24.2 9.5-44.7 26.4-58.9 48.2-31.7 48.8-76.5 151.4-82.1 345.5-.5 20.7-.8 42.5-.8 65.5L607 887c17.2 322.6 6.5 816 6.5 816h692.8s-10.7-493.4 6.5-816l198-17.1z" id="Layer_2"/>
    <g id="STROKES">
        <path class="st1" d="M1510 804.4c.5 20.7.8 42.5.8 65.5L1313 887"/>
        <path class="st1" d="M1317.3 817.8c4.9-66.4 11.3-121.4 19.8-157.5"/>
        <path class="st1" d="M1143.5 290l-28.1 119.1-101.3-59.8c58.8-33.8 71.7-132.4 71.7-132.4s12 48.7 55.7 71.7c.1 0 .7.5 2 1.4z"/>
        <path class="st1" d="M607 887l-197.9-17.2c0-23 .3-44.8.8-65.5"/>
        <path class="st1" d="M1510 804.4l-192.7 13.4c-1.6 21.9-3.1 45.1-4.3 69.3-17.2 322.6-6.5 816-6.5 816H613.7s10.7-493.4-6.5-816c-1.3-24.1-2.7-47.3-4.3-69.3L410 804.4c5.6-194.1 50.4-296.6 82.1-345.4 14.2-21.8 34.7-38.7 58.9-48.2C667.1 365.1 761.8 300.3 776.5 290l28.1 119.1 101.3-59.8C847 315.6 834.2 217 834.2 217h251.7s-12.8 98.6-71.7 132.4l101.3 59.8 28.1-119.1c14.9 10.4 111.6 76.6 229.5 122.2 24.4 9.5 45.3 26.3 59.5 48.3 30.5 47 70.3 145.5 77.4 343.8z"/>
        <path class="st1" d="M582.9 660.2c8.5 36.1 14.9 91.2 19.8 157.5"/>
        <path class="st1" d="M905.8 349.3l-101.3 59.8-28-119.1c1.3-.9 2-1.4 2-1.4 43.7-22.9 55.7-71.7 55.7-71.7s12.8 98.7 71.6 132.4z"/>
        <path class="st1" d="M1014.2 349.3s-92.5 30.2-92.5 201.4v82.8"/>
        <path class="st1" d="M905.8 349.3s28.2 21.2 41.6 69.3"/>
    </g>
</svg>
