<svg xmlns="http://www.w3.org/2000/svg" viewBox="0 0 1920 1920">
    <style>
        .st0{fill:#fff}.st1{fill:none;stroke:#231f20;stroke-width:50;stroke-linecap:round;stroke-linejoin:round;stroke-miterlimit:10}
    </style>
    <path class="st0" d="M1667 1103c108.5 120.4-52 454-224 380s-186 220.1-446 220.1S855 1363 451 1373c-164.4 4.1-340-300-162-450s96-252 164-358c105.5-164.5 320-150 470-106s212 4 238-74c57.7-173.1 209.1-192.8 340-152 186 58 292.6 335.6 103 514-68 64-65 214 63 356zm-194.3-642.4c9.8-17.7 13.8-37.8 8.6-55.8-15.2-52.6-69.8-1.7-69.8-1.7s16.4-75.3-38.5-59.5c-18.7 5.4-34.4 19.7-44.4 38.2-21.4 39.7-7 89 32.5 110.8 39.8 22.1 89.7 7.7 111.6-32zM1310 1219c0-30.3-9.2-59.6-29.1-79.4-58-58-92.7 48.4-92.7 48.4s-33-110.7-93.6-50.1c-20.7 20.7-30.9 50.8-30.6 82.4.7 67.7 55.3 121.8 123 121.8 67.9-.1 123-55.2 123-123.1zm-254.1 291c38.6-23.8 50.6-74.3 26.9-112.9-10.6-17.2-26.1-30.6-44.3-34.9-53.2-12.7-35.8 59.9-35.8 59.9s-57.5-51.3-70.7 4.3c-4.5 19 .2 39.7 11.4 57.5 24 38.1 74 49.8 112.5 26.1zM777.8 763.3c40.6-71.2-71.1-76.7-71.1-76.7s98-61.1 23.7-103.5c-25.4-14.5-57.2-16.4-87.5-7.8-65.1 18.5-102.9 85.5-85 150.8 17.9 65.5 85.6 104.1 151.1 86.2 29-7.9 54.8-24.6 68.8-49z" id="Layer_3"/>
    <path class="st0" d="M1481.4 404.9c5.2 18 1.1 38.1-8.6 55.8-21.9 39.7-71.8 54.1-111.5 32.2-39.5-21.8-54-71.1-32.5-110.8 10-18.5 25.7-32.8 44.4-38.2 54.9-15.8 38.5 59.5 38.5 59.5s54.5-51.1 69.7 1.5zm-443 957.3c-53.2-12.7-35.8 59.9-35.8 59.9s-57.5-51.3-70.7 4.3c-4.5 19 .2 39.7 11.4 57.5 24 38.2 74 49.8 112.5 26.2 38.6-23.8 50.6-74.3 26.9-112.9-10.6-17.3-26.1-30.7-44.3-35zm149.8-174.2s-33-110.7-93.6-50.1c-20.7 20.7-30.9 50.8-30.6 82.4.7 67.7 55.3 121.8 123 121.8 67.9 0 123-55.1 123-123 0-30.3-9.2-59.6-29.1-79.4-58-58.1-92.7 48.3-92.7 48.3zM730.3 583.2c-25.4-14.5-57.2-16.4-87.5-7.8-65.1 18.5-102.9 85.5-85 150.8 17.9 65.5 85.6 104.1 151.1 86.2 29.2-8 55-24.6 69-49 40.6-71.2-71.1-76.7-71.1-76.7s97.9-61.1 23.5-103.5z" id="Layer_4"/>
    <g id="STROKES">
        <g id="XMLID_1_">
            <path class="st1" d="M1161 385c-26 78-88 118-238 74s-364.5-58.5-470 106c-68 106 14 208-164 358s-2.4 454.1 162 450c404-10 286 330.1 546 330.1s274-294.1 446-220.1 332.5-259.6 224-380c-128-142-131-292-63-356 189.6-178.4 83-456-103-514-130.9-40.8-282.3-21.1-340 152z"/>
            <path class="st1" d="M1188.2 1188s-33-110.7-93.6-50.1c-20.7 20.7-30.9 50.8-30.6 82.4.7 67.7 55.3 121.8 123 121.8 67.9 0 123-55.1 123-123 0-30.3-9.2-59.6-29.1-79.4-58-58.1-92.7 48.3-92.7 48.3z"/>
            <path class="st1" d="M706.7 686.7s98-61.1 23.7-103.5c-25.4-14.5-57.2-16.4-87.5-7.8-65.1 18.5-102.9 85.5-85 150.8 17.9 65.5 85.6 104.1 151.1 86.2 29.2-8 55-24.6 69-49 40.4-71.3-71.3-76.7-71.3-76.7z"/>
            <path class="st1" d="M1002.7 1422.1s-57.5-51.3-70.7 4.3c-4.5 19 .2 39.7 11.4 57.5 24 38.2 74 49.8 112.5 26.2 38.6-23.8 50.6-74.3 26.9-112.9-10.6-17.2-26.1-30.6-44.3-34.9-53.3-12.8-35.8 59.8-35.8 59.8z"/>
            <path class="st1" d="M1411.6 403.2s16.4-75.3-38.5-59.5c-18.7 5.4-34.4 19.7-44.4 38.2-21.4 39.7-7 89 32.5 110.8 39.7 21.9 89.6 7.5 111.5-32.2 9.8-17.7 13.8-37.8 8.6-55.8-15.1-52.4-69.7-1.5-69.7-1.5z"/>
            <path class="st1" d="M391.9 1078c36 36 94.1 36 130.1 0"/>
            <path class="st1" d="M522.1 1078c36 36 94.2 36 130.1 0"/>
            <path class="st1" d="M652.2 1078c36 36 94.2 36 130.1 0"/>
            <path class="st1" d="M782.3 1078c36 36 94.2 36 130.1 0"/>
            <path class="st1" d="M522.1 963c36 36 94.2 36 130.1 0"/>
            <path class="st1" d="M652.2 963c36 36 94.2 36 130.1 0"/>
            <path class="st1" d="M1073 628c35.9 36 94.2 36 130.1 0"/>
            <path class="st1" d="M1203.1 628c36 36 94.2 36 130.1 0"/>
            <path class="st1" d="M1333.2 628c35.9 36 94.2 36 130.1 0"/>
        </g>
    </g>
</svg>
