<svg xmlns="http://www.w3.org/2000/svg" viewBox="0 0 1920 1920">
    <style>
        .st0{fill:#fff}.st1{fill:none;stroke:#231f20;stroke-width:50;stroke-linecap:round;stroke-linejoin:round;stroke-miterlimit:10}
    </style>
    <path class="st0" d="M791.5 1217.9c-2.2-3.8-49.4-82.9-129.7 1.1 78.8 84 127.4 2.8 129.7-1.1zm44.7-118.6c2.3 3.9 50.9 85.1 129.7 1.1-80.3-84-127.5-4.9-129.7-1.1zm607.7 122.2c12 279-222 360.8-474.9 363h-17.9c-252.9-2.2-487-84-475-363 7.1-165.3-166-274.5-166-274.5 1.8-1.5 3.6-2.9 5.5-4.4 44.5 44.5 116.4 44.5 160.9 0 44.5 44.5 116.4 44.5 160.9 0 44.5 44.5 116.4 44.5 160.9 0 44.5 44.5 116.4 44.5 160.9 0l.7.3c44.5 44.5 116.4 44.5 160.9 0 44.5 44.5 116.4 44.5 160.9 0h.8c44.5 44.5 116.4 44.5 160.9 0 44.5 44.5 116.4 44.5 160.9 0l.2-.2c1.8 1.4 3.6 2.9 5.3 4.3.1 0-173 109.2-165.9 274.5zm-290.6 82.4c2.3 3.9 50.9 85.2 129.7 1.1-80.3-84.1-127.5-4.9-129.7-1.1zM1221 1115c0-1.1-.9-2-2-2s-2 .9-2 2 .9 2 2 2 2-.9 2-2zm-44 82c0-1.1-.9-2-2-2s-2 .9-2 2 .9 2 2 2 2-.9 2-2zm-3-151c0-1.1-.9-2-2-2s-2 .9-2 2 .9 2 2 2 2-.9 2-2z" id="Layer_7"/>
    <path class="st0" d="M1609.9 547.9v78C1251 333.3 669 333.3 310.1 626v-78c347.5-283.4 952.3-283.4 1299.8-.1z" id="Layer_8"/>
    <g id="Layer_2">
        <path class="st0" d="M1283 1305c-78.8 84-127.4 2.8-129.7-1.1 2.2-3.8 49.4-83 129.7 1.1z"/>
        <path class="st0" d="M966 1100.4c-78.8 84-127.4 2.8-129.7-1.1 2.1-3.8 49.3-82.9 129.7 1.1z"/>
        <path class="st0" d="M661.8 1219c80.3-84.1 127.5-4.9 129.7-1.1-2.3 3.9-50.9 85.1-129.7 1.1z"/>
    </g>
    <g id="STROKES">
        <g id="XMLID_1_">
            <path class="st1" d="M1002.5 1056.2l-36.6 44.2c-80.3-84.1-127.5-4.9-129.7-1.1 0 .1-.1.1-.1.1"/>
            <path class="st1" d="M836.1 1099.2l.1.2c2.3 3.9 50.9 85.1 129.7 1.1l35 36.6"/>
            <path class="st1" d="M625.2 1174.8l36.6 44.2c80.3-84.1 127.5-4.9 129.7-1.1 0 .1.1.1.1.1"/>
            <path class="st1" d="M791.6 1217.7s0 .1-.1.2c-2.3 3.9-50.9 85.2-129.7 1.1l-35 36.6"/>
            <path class="st1" d="M1319.6 1260.8L1283 1305c-80.3-84.1-127.5-4.9-129.7-1.1l-.1.1"/>
            <path class="st1" d="M1153.2 1303.7s0 .1.1.2c2.3 3.9 50.9 85.2 129.7 1.1l35.1 36.6"/>
            <path class="st1" d="M310.1 947s173.1 109.2 166 274.5c-12 279 222 360.8 475 363H969c252.9-2.2 486.9-84 474.9-363-7.1-165.3 166-274.5 166-274.5"/>
            <path class="st1" d="M310.1 947c1.8-1.5 3.6-2.9 5.5-4.4 357.6-286.8 931.5-286.8 1289 .1 1.8 1.4 3.6 2.9 5.3 4.3"/>
            <path class="st1" d="M310.1 547.9c347.5-283.3 952.3-283.3 1299.8 0v78C1251 333.3 669 333.3 310.1 626v-78.1z"/>
            <path class="st1" d="M409.3 870.5V573.4"/>
            <path class="st1" d="M547 792.5V495.4"/>
            <path class="st1" d="M684.7 747.5V450.4"/>
            <path class="st1" d="M822.3 714.5V417.4"/>
            <path class="st1" d="M960 708.5V411.4"/>
            <path class="st1" d="M1508.3 870.5V573.4"/>
            <path class="st1" d="M1370.6 792.5V495.4"/>
            <path class="st1" d="M1233 747.5V450.4"/>
            <path class="st1" d="M1095.3 714.5V417.4"/>
            <path class="st1" d="M1142 1547.7s5-62.8 53-94.7"/>
            <path class="st1" d="M1056 1578.7s-9-91.7 39-173.7"/>
            <path class="st1" d="M922 1572.7s31-89.7-55-207.7"/>
            <path class="st1" d="M816 1566.7s25-93.7-73-137.7"/>
            <path class="st1" d="M315.6 942.6c44.5 44.5 116.4 44.5 160.9 0"/>
            <path class="st1" d="M476.6 942.6c44.5 44.5 116.4 44.5 160.9 0"/>
            <path class="st1" d="M637.5 942.6c44.5 44.5 116.4 44.5 160.9 0"/>
            <path class="st1" d="M798.4 942.6c44.5 44.5 116.4 44.5 160.9 0"/>
            <path class="st1" d="M960 942.9c44.5 44.5 116.4 44.5 160.9 0"/>
            <path class="st1" d="M1120.9 942.9c44.5 44.5 116.4 44.5 160.9 0"/>
            <path class="st1" d="M1282.6 942.9c44.5 44.5 116.4 44.5 160.9 0"/>
            <path class="st1" d="M1443.5 942.9c44.5 44.5 116.4 44.5 160.9 0"/>
            <path class="st1" d="M217 958.7h88"/>
            <path class="st1" d="M1615 958.7h88"/>
            <circle class="st1" cx="1175" cy="1197" r="2"/>
            <circle class="st1" cx="1219" cy="1115" r="2"/>
            <path class="st1" d="M1174 1046c0 1.1-.9 2-2 2s-2-.9-2-2 .9-2 2-2 2 .9 2 2z"/>
        </g>
    </g>
</svg>
