<svg xmlns="http://www.w3.org/2000/svg" viewBox="0 0 1920 1920">
    <style>
        .st0{fill:#fff}.st1{fill:none;stroke:#231f20;stroke-width:50;stroke-linecap:round;stroke-linejoin:round;stroke-miterlimit:10}
    </style>
    <path class="st0" d="M499 217v1486.1h922V217H499zm828.3 1386.9H592.7V316.1h734.7v1287.8z" id="Layer_3"/>
    <path class="st0" d="M592.7 1555V316.1h734.7v1287.7H592.7V1555zM921 580c0 95.5 77.5 173 173 173 95.6 0 173-77.5 173-173s-77.4-173-173-173c-95.5 0-173 77.5-173 173zm101.4 832.3l-205.3-288.4-151.5 107.9 205.3 288.4 151.5-107.9z" id="Layer_4"/>
    <ellipse class="st0" cx="1094" cy="580" rx="68.8" ry="68.8" id="Layer_5"/>
    <path class="st0" d="M1025.2 580c0 38 30.8 68.8 68.8 68.8s68.8-30.8 68.8-68.8-30.8-68.8-68.8-68.8-68.8 30.8-68.8 68.8zm68.8-173c95.6 0 173 77.5 173 173s-77.4 173-173 173c-95.5 0-173-77.5-173-173s77.5-173 173-173z" id="Layer_6"/>
    <path transform="rotate(-35.442 844.053 1322.01)" class="st0" d="M751 1145h186v354H751z" id="Layer_7"/>
    <g id="STROKES">
        <g id="XMLID_2_">
            <path class="st1" d="M1421 1399v304.1H499V216.9h922V1249z"/>
            <path class="st1" d="M1327.3 1401.3v202.6H592.7V316.1h734.6v935.2z"/>
            <path class="st1" d="M759 225v86"/>
            <path class="st1" d="M1151 219v91"/>
            <path class="st1" d="M1339 419h64"/>
            <path class="st1" d="M1329 881h90"/>
            <path class="st1" d="M1259 1607v90"/>
            <path class="st1" d="M893 1613v86"/>
            <path class="st1" d="M593 1555h-92"/>
            <path class="st1" d="M593 1097h-86"/>
            <path class="st1" d="M585 419h-82"/>
            <path class="st1" d="M697.9 988c36 36 94.2 36 130.1 0"/>
            <path class="st1" d="M828.1 988c36 36 94.2 36 130.1 0"/>
            <path class="st1" d="M958.2 988c36 36 94.1 36 130.1 0"/>
            <path class="st1" d="M1088.3 988c35.9 36 94.1 36 130.1 0"/>
            <path class="st1" d="M828.1 873c36 36 94.2 36 130.1 0"/>
            <path class="st1" d="M958.2 873c36 36 94.1 36 130.1 0"/>
            <path class="st1" d="M654.9 545c36 36 94.2 36 130.1 0"/>
            <path class="st1" d="M785 545c36 36 94.2 36 130.1 0"/>
            <path class="st1" d="M967 1177c36 36 94.2 36 130.1 0"/>
            <path class="st1" d="M1097.1 1177c35.9 36 94.2 36 130.1 0"/>
            <path class="st1" d="M1267 580c0 95.5-77.4 173-173 173-95.5 0-173-77.5-173-173s77.5-173 173-173c95.6 0 173 77.5 173 173z"/>
            <ellipse class="st1" cx="1094" cy="580" rx="68.8" ry="68.8"/>
            <path transform="rotate(-35.442 844.03 1321.992)" class="st1" d="M751 1145h186v354H751z"/>
            <path class="st1" d="M741 1320.4l135.2-96.2"/>
            <path class="st1" d="M1244 1345s36.2-79.1 83.3-93.7c4.8-1.5 9.7-2.3 14.7-2.3h160v86"/>
            <path class="st1" d="M1244 1495s36.2-79.1 83.3-93.7c4.8-1.5 9.7-2.3 14.7-2.3h160v86"/>
        </g>
    </g>
</svg>
