<svg xmlns="http://www.w3.org/2000/svg" viewBox="0 0 1920 1920">
    <style>
        .st0{fill:#fff}.st1{fill:none;stroke:#231f20;stroke-width:50;stroke-linecap:round;stroke-linejoin:round;stroke-miterlimit:10}
    </style>
    <path class="st0" d="M802 757c0 95.5 77.5 173 173 173 95.6 0 173-77.5 173-173s-77.4-173-173-173-173 77.5-173 173zm-181.5 948.5c-224.2 0-406-181.8-406-406 0-141.1 168.8-265.2 296-337.7 74.5-42.4 120-121.8 119.8-207.5v-1.5c0-149.9 61.5-285.5 160.6-382.9 27.2-26.8 57.3-50.6 89.8-71.1 82.9-52.4 181.2-82.8 286.5-82.8 128.3 0 246.1 45.1 338.5 120.3l-235.3 235.3 78.5 78.5L1584 414.8c75 92.3 119.9 210 119.9 338 0 296.5-240.4 536.9-536.9 536.9h-1.5c-85.5-.2-164.6 45.1-206.9 119.4-72.3 127.3-196.7 296.4-338.1 296.4zM975 660.6c53.3 0 96.4 43.2 96.4 96.4s-43.2 96.4-96.4 96.4-96.4-43.2-96.4-96.4 43.1-96.4 96.4-96.4z" id="Layer_12"/>
    <path class="st0" d="M975 584c95.6 0 173 77.5 173 173s-77.4 173-173 173c-95.5 0-173-77.5-173-173s77.4-173 173-173zm-96.5 173c0 53.3 43.2 96.4 96.4 96.4s96.4-43.2 96.4-96.4-43.2-96.4-96.4-96.4-96.4 43.1-96.4 96.4z" id="Layer_13"/>
    <path class="st0" d="M1700.9 297.9L1584 414.8l-235.2 235.3-78.6-78.5 235.4-235.3 116.8-116.9z" id="Layer_14"/>
    <g id="STROKES">
        <g id="XMLID_2_">
            <path class="st1" d="M557.2 1140.7c36 35.9 94.1 35.9 130.1 0"/>
            <path class="st1" d="M687.3 1140.7c35.9 35.9 94.1 35.9 130.1 0"/>
            <path class="st1" d="M817.4 1140.7c36 35.9 94.1 35.9 130.1 0"/>
            <path class="st1" d="M947.5 1140.7c35.9 35.9 94.2 35.9 130.1 0"/>
            <path class="st1" d="M687.3 1025.7c35.9 35.9 94.1 35.9 130.1 0"/>
            <path class="st1" d="M817.4 1025.7c36 35.9 94.1 35.9 130.1 0"/>
            <path class="st1" d="M1273.3 795.6c36 36 94.2 36 130.1 0"/>
            <path class="st1" d="M1403.4 795.6c35.9 36 94.2 36 130.1 0"/>
            <path class="st1" d="M215 1310.6c104.8-104.8 281.9-97.8 395.5 15.8 103.9 103.9 118.6 260.9 40.1 367.2"/>
            <path class="st1" d="M246.5 1405.2c73.3-73.3 196.6-69 275.3 9.8 78.7 78.7 83.1 202 9.8 275.4"/>
            <path class="st1" d="M287.8 1506.4c39.4-39.4 103.2-39.4 142.6 0 39.4 39.4 39.4 103.2 0 142.6"/>
            <path class="st1" d="M975 584c95.6 0 173 77.5 173 173s-77.4 173-173 173c-95.5 0-173-77.5-173-173s77.4-173 173-173z"/>
            <circle class="st1" cx="975" cy="757" r="96.4"/>
            <path class="st1" d="M975 590.8v66"/>
            <path class="st1" d="M975 857.8v66"/>
            <path class="st1" d="M808.5 757.3h66"/>
            <path class="st1" d="M1075.5 757.3h66"/>
            <path class="st1" d="M688 438.8v-82.2c0-25.2 27.3-40.9 49.2-28.4 3.4 1.9 6.8 4 10.3 6.3 14.1 9 29.2 20.7 43.3 35.5 32.1 33.6 59.2 83.4 59.2 155.9"/>
            <path class="st1" d="M748 333.8v-82.2c0-25.2 27.3-40.9 49.2-28.4 25.9 14.9 58.8 38.8 83.4 75.6 20.6 30.9 35.5 70.8 35.5 122"/>
            <path class="st1" d="M1505.6 336.3c-92.4-75.2-210.2-120.3-338.5-120.3-105.3 0-203.6 30.3-286.5 82.8-32.4 20.5-62.5 44.4-89.8 71.1-99.1 97.4-160.6 233-160.6 382.9v1.5c.2 85.7-45.3 165-119.8 207.5-127.2 72.5-296 196.6-296 337.7 0 224.2 181.8 406 406 406 141.4 0 265.8-169.1 338.2-296.4 42.3-74.3 121.4-119.6 206.9-119.4h1.5c296.5 0 536.9-240.4 536.9-536.9 0-128.1-45-245.7-119.9-338"/>
            <path class="st1" d="M1584 414.8l116.9-116.9-78.5-78.5-116.8 116.9-235.4 235.3 78.6 78.5z"/>
        </g>
    </g>
</svg>
