<svg xmlns="http://www.w3.org/2000/svg" viewBox="0 0 1920 1920">
    <style>
        .st0{fill:#fff}.st1{fill:none;stroke:#231f20;stroke-width:50;stroke-linecap:round;stroke-linejoin:round;stroke-miterlimit:10}
    </style>
    <path class="st0" d="M317.8 1035.1c0 62.4 50.6 113 113 113h81.8c-29.6 26.1-53.5 58.7-69.4 95.5h-49.9c-97.4 0-176.3-78.9-176.3-176.3V475.9c0-97.4 78.9-176.3 176.3-176.3h1133.4c97.4 0 176.3 78.9 176.3 176.3v591.4c0 97.4-79 176.3-176.3 176.3H938.8c-15.9-36.8-39.8-69.3-69.4-95.5h619.8c62.4 0 113-50.6 113-113V508c0-62.4-50.6-113-113-113H430.8c-62.4 0-113 50.6-113 113v527.1z" id="Layer_8"/>
    <path class="st0" d="M1489.2 395H430.8c-62.4 0-113 50.6-113 113v527.1c0 62.4 50.6 113 113 113h81.8c47.6-41.9 110-67.4 178.4-67.4s130.8 25.5 178.4 67.4h619.8c62.4 0 113-50.6 113-113V508c0-62.4-50.6-113-113-113z" id="Layer_9"/>
    <path class="st0" d="M808 1243.6c25.8 28.2 41.6 65.8 41.6 107 0 87.6-71 158.6-158.6 158.6s-158.6-71-158.6-158.6c0-41.2 15.8-78.8 41.6-107 29-31.7 70.7-51.5 117-51.5s88 19.8 117 51.5z" id="Layer_10"/>
    <path class="st0" d="M532.4 1350.6c0 87.6 71 158.6 158.6 158.6s158.6-71 158.6-158.6c0-41.2-15.8-78.8-41.6-107-29-31.7-70.7-51.5-117-51.5s-88 19.9-117 51.5c-25.8 28.2-41.6 65.7-41.6 107zm337-202.5c29.6 26.1 53.5 58.7 69.4 95.5 14.2 32.8 22.1 69 22.1 107 0 149.1-120.8 269.9-269.9 269.9s-269.9-120.8-269.9-269.9c0-38 7.9-74.2 22.1-107 15.9-36.8 39.8-69.3 69.4-95.5 47.6-41.9 110-67.4 178.4-67.4s130.8 25.5 178.4 67.4z" id="Layer_11"/>
    <g id="STROKES">
        <g id="XMLID_2_">
            <path class="st1" d="M443.2 1243.6h-49.9c-97.4 0-176.3-78.9-176.3-176.3V475.9c0-97.4 78.9-176.3 176.3-176.3h1133.4c97.4 0 176.3 78.9 176.3 176.3v591.4c0 97.4-79 176.3-176.3 176.3H938.8"/>
            <path class="st1" d="M512.6 1148.1h-81.8c-62.4 0-113-50.6-113-113V508c0-62.4 50.6-113 113-113h1058.4c62.4 0 113 50.6 113 113v527.1c0 62.4-50.6 113-113 113H869.4"/>
            <path class="st1" d="M443.2 1243.6c-14.2 32.8-22.1 69-22.1 107 0 149.1 120.8 269.9 269.9 269.9s269.9-120.8 269.9-269.9c0-38-7.9-74.2-22.1-107-15.9-36.8-39.8-69.3-69.4-95.5-47.6-41.9-110-67.4-178.4-67.4s-130.8 25.5-178.4 67.4c-29.6 26.1-53.5 58.7-69.4 95.5z"/>
            <path class="st1" d="M532.4 1350.6c0-41.2 15.8-78.8 41.6-107 29-31.7 70.7-51.5 117-51.5s88 19.9 117 51.5c25.8 28.2 41.6 65.8 41.6 107 0 87.6-71 158.6-158.6 158.6s-158.6-71-158.6-158.6z"/>
            <path class="st1" d="M1599.7 567.6c-92.8 0-168-75.2-168-168"/>
            <path class="st1" d="M1596.7 706.6c-167.9 0-304-136.1-304-304"/>
            <path class="st1" d="M1603.7 851.6h-1.5c-251.2-.8-454.5-204.6-454.5-456"/>
            <path class="st1" d="M482.6 714.6c36 36 94.2 36 130.1 0"/>
            <path class="st1" d="M612.8 714.6c36 36 94.2 36 130.1 0"/>
            <path class="st1" d="M742.9 714.6c36 36 94.2 36 130.1 0"/>
            <path class="st1" d="M873 714.6c36 36 94.2 36 130.1 0"/>
            <path class="st1" d="M612.8 599.6c36 36 94.2 36 130.1 0"/>
            <path class="st1" d="M742.9 599.6c36 36 94.2 36 130.1 0"/>
            <path class="st1" d="M685.7 849.6c36 36 94.2 36 130.1 0"/>
            <path class="st1" d="M815.8 849.6c36 36 94.2 36 130.1 0"/>
        </g>
    </g>
</svg>
