<svg xmlns="http://www.w3.org/2000/svg" viewBox="0 0 1920 1920">
    <style>
        .st0{fill:#fff}.st1{fill:none;stroke:#231f20;stroke-width:50;stroke-linecap:round;stroke-linejoin:round;stroke-miterlimit:10}
    </style>
    <path class="st0" d="M1484 951.8c-1.9 48.6-18.4 94.7-46.5 136.6-84.4 125.8-274.1 213.4-494.7 213.4-147 0-280.4-39-378-102.2-12.2-7.9-23.8-16.2-34.9-24.8-1.4-1.1-2.8-2.2-4.1-3.2-5.4-4.4-10.7-8.8-15.9-13.3-1.3-1.1-2.5-2.3-3.8-3.4-1.3-1.2-2.5-2.3-3.8-3.4-1.2-1.2-2.5-2.3-3.7-3.5-1.2-1.2-2.4-2.3-3.6-3.5-1.2-1.2-2.4-2.3-3.6-3.5-1.2-1.2-2.4-2.4-3.5-3.6-2.3-2.4-4.6-4.8-6.8-7.2-1.4-1.6-2.8-3.1-4.2-4.7-.2-.2-.4-.5-.7-.7-10.4-11.7-19.8-23.8-28.1-36.2-.9-1.4-1.8-2.8-2.7-4.1-.1-.2-.3-.4-.4-.6-.8-1.2-1.6-2.4-2.3-3.7-.2-.3-.3-.5-.5-.8-.8-1.2-1.5-2.5-2.3-3.7-.1-.2-.3-.4-.4-.6-.9-1.5-1.7-2.9-2.6-4.4-2.3-4-4.5-8.1-6.6-12.2-1-2.1-2.1-4.1-3.1-6.2-.3-.7-.7-1.4-1-2.1-1.3-2.8-2.6-5.6-3.8-8.3-1.2-2.8-2.4-5.6-3.5-8.4-.8-2.1-1.6-4.2-2.4-6.4-.3-.7-.5-1.4-.8-2.1-.8-2.1-1.5-4.3-2.2-6.4-.9-2.9-1.8-5.8-2.6-8.6-.6-2.2-1.2-4.4-1.8-6.5-.4-1.5-.7-2.9-1.1-4.4-.4-1.5-.7-2.9-1-4.4-1-4.4-1.8-8.8-2.5-13.3-.2-1.5-.5-3-.7-4.5-1.2-8.2-1.9-16.5-2.3-24.8-96.7 79.4-154.7 180.6-154.7 290.7 0 255.4 311.5 462.5 695.9 462.5s695.9-207.1 695.9-462.5c.1-110.4-57.9-211.5-154.6-291z" id="Layer_2"/>
    <path class="st0" d="M1284.3 662.8c-1 57.3-34 109.5-87.6 149-62.6 46.2-153.1 75.2-253.9 75.2s-191.4-29-253.9-75.2c-53.6-39.6-86.6-91.7-87.6-149-122 66-199.9 166.5-199.9 279.2 0 3.3.1 6.5.2 9.8.3 8.3 1.1 16.6 2.3 24.8.2 1.5.4 3 .7 4.5.7 4.5 1.6 8.9 2.5 13.3.3 1.5.7 2.9 1 4.4.3 1.5.7 2.9 1.1 4.4.6 2.2 1.1 4.4 1.8 6.5.8 2.9 1.7 5.8 2.6 8.6.7 2.2 1.4 4.3 2.2 6.4.3.7.5 1.4.8 2.1.8 2.1 1.6 4.3 2.4 6.4 1.1 2.8 2.3 5.6 3.5 8.4 1.2 2.8 2.5 5.6 3.8 8.3.3.7.7 1.4 1 2.1 1 2.1 2 4.1 3.1 6.2 2.1 4.1 4.3 8.2 6.6 12.2.8 1.5 1.7 2.9 2.6 4.4.1.2.3.4.4.6.7 1.2 1.5 2.5 2.3 3.7.2.3.3.5.5.8.8 1.2 1.5 2.4 2.3 3.7.1.2.3.4.4.6 9 13.9 19.4 27.4 30.9 40.4.2.2.4.5.7.7 1.4 1.6 2.8 3.1 4.2 4.7 2.2 2.4 4.5 4.8 6.8 7.2 1.2 1.2 2.3 2.4 3.5 3.6 1.2 1.2 2.4 2.3 3.6 3.5 1.2 1.2 2.4 2.3 3.6 3.5 1.2 1.2 2.4 2.3 3.7 3.5 1.2 1.2 2.5 2.3 3.8 3.4 1.3 1.1 2.5 2.3 3.8 3.4 5.1 4.5 10.4 9 15.9 13.3 1.4 1.1 2.7 2.2 4.1 3.2 11 8.6 22.7 16.9 34.9 24.8 97.6 63.2 230.9 102.2 378 102.2 220.6 0 410.3-87.7 494.7-213.4 28.1-41.9 44.6-88.1 46.5-136.6.1-3.3.2-6.5.2-9.8-.2-112.4-78.2-213-200.1-279z" id="Layer_4"/>
    <path class="st0" d="M1139.3 219.1c27.1 96.3-78.2 123.4-78.2 123.4-305.8 31.8-409.1 194-426.9 220.2 0 .1-.1.1-.1.2-.1.1-.2.2-.3.4-.6.8-1 1.5-1.4 2-20 28.8-31.1 60.9-31.1 94.7v2.8c1 57.3 34 109.5 87.6 149C751.4 858 842 887 942.8 887s191.4-29 253.9-75.2c53.6-39.6 86.6-91.7 87.6-149 150.9-278.4-145-443.7-145-443.7z" id="Layer_5"/>
    <g id="STROKES">
        <path class="st1" d="M1638.7 1242.6c0 255.4-311.6 462.5-695.9 462.5S246.9 1498 246.9 1242.6c0-110.1 57.9-211.3 154.7-290.7 7.8 194.2 247.1 350 541.2 350s533.4-155.8 541.2-350c96.7 79.4 154.7 180.5 154.7 290.7z"/>
        <path class="st1" d="M1484.2 942c0 3.3-.1 6.5-.2 9.8-7.8 194.2-247.1 350-541.2 350s-533.4-155.8-541.2-350c-.1-3.3-.2-6.5-.2-9.8 0-112.7 77.9-213.2 199.9-279.2 1 57.3 34 109.4 87.6 149C751.4 858 842 887 942.8 887s191.4-29 253.9-75.2c53.6-39.6 86.6-91.7 87.6-149 121.9 66 199.9 166.6 199.9 279.2z"/>
        <path class="st1" d="M634 562.9c-.7 1-1.3 1.8-1.7 2.4.6-.8 1.2-1.6 1.7-2.4z"/>
        <path class="st1" d="M1284.3 662.8c-1 57.3-34 109.4-87.6 149-62.6 46.2-153.2 75.2-253.9 75.2s-191.4-29-253.9-75.2c-53.6-39.6-86.6-91.7-87.6-149V660c0-33.8 11.1-65.9 31.1-94.7v-.1c.4-.6 1-1.4 1.7-2.4 0-.1.1-.1.1-.2 17.8-26.2 121.1-188.5 426.9-220.2 0 0 105.3-27.1 78.2-123.4 0 .1 295.9 165.4 145 443.8z"/>
        <path class="st1" d="M1284.3 662.8s-77.4 93.1-192.1 93.1"/>
    </g>
</svg>
