<svg xmlns="http://www.w3.org/2000/svg" viewBox="0 0 1920 1920">
    <style>
        .st0{fill:#fff}.st1{fill:none;stroke:#231f20;stroke-width:50;stroke-linecap:round;stroke-linejoin:round;stroke-miterlimit:10}
    </style>
    <path class="st0" d="M1467.4 1022.5s39-150-33.7-255.1c-35.8-51.8-98.8-92.8-207.1-99.4 0 0-190.6-163.9-93.6-324.4 0 0-190.6 10-277.5 294.3 0 0-177.7 7.3-257.1 118.8-31.7 44.5-47.7 105.5-30.5 189.3 0 0-318.7-15.3-350.4 351-5.2 59.8 26.9 116.5 80.6 143.4 172.2 86.1 419.6 140.1 694.5 140.1 235.2 0 450.2-39.5 615.3-104.8 51.7-20.5 87.4-68.7 91.6-124.2 7.9-103.6-22.1-252.9-232.1-329z" id="Layer_10"/>
    <g id="STROKES">
        <path class="st1" d="M1699.5 1351.5c-4.3 55.5-39.9 103.7-91.6 124.2-165 65.3-380.1 104.8-615.3 104.8-274.9 0-522.3-54-694.5-140.1-53.7-26.8-85.8-83.6-80.6-143.4 31.8-366.3 350.4-351 350.4-351-17.2-83.8-1.2-144.8 30.5-189.3C677.8 645.3 855.5 638 855.5 638 942.4 353.7 1133 343.7 1133 343.7c-97 160.5 93.6 324.4 93.6 324.4 108.2 6.6 171.2 47.5 207.1 99.4 72.7 105.1 33.7 255.1 33.7 255.1 210 76 240 225.3 232.1 328.9z"/>
        <path class="st1" d="M567.9 946s6.7 85.5 357.8 107.7"/>
        <path class="st1" d="M855.5 638s30.1 34.7 137.1 45.8"/>
        <path class="st1" d="M1699.5 1351.4c-4.2 55.5-39.9 103.7-91.6 124.2-165 65.3-380.1 104.8-615.3 104.8-274.9 0-522.3-54-694.5-140.1-53.7-26.8-85.8-83.6-80.6-143.4 31.8-366.3 350.4-351 350.4-351-17.2-83.8-1.2-144.8 30.5-189.3C677.8 645.3 855.5 638 855.5 638 942.4 353.7 1133 343.7 1133 343.7c-97 160.5 93.6 324.4 93.6 324.4 108.2 6.6 171.2 47.5 207.1 99.4 72.7 105.1 33.7 255.1 33.7 255.1 210 76 240 225.3 232.1 328.8z"/>
        <path class="st1" d="M567.9 946s6.7 85.5 357.8 107.7"/>
        <path class="st1" d="M855.5 638s30.1 34.7 137.1 45.8"/>
    </g>
</svg>
