<svg xmlns="http://www.w3.org/2000/svg" viewBox="0 0 1920 1920">
    <style>
        .st0{fill:#fff}.st1{fill:none;stroke:#231f20;stroke-width:50;stroke-linecap:round;stroke-linejoin:round;stroke-miterlimit:10}
    </style>
    <path class="st0" d="M1469 1422.9c-29.4-29.4-69.9-47.5-114.7-47.5H645.8c-89.6 0-162.2 72.6-162.2 162.2 0 44.8 18.2 85.4 47.5 114.7 29.4 29.4 69.9 47.5 114.7 47.5h708.5c89.6 0 162.2-72.6 162.2-162.2 0-44.8-18.1-85.4-47.5-114.7z" id="Layer_6"/>
    <path class="st0" d="M1259.5 1145.5H740.6c-63.5 0-114.9 51.4-114.9 114.9 0 31.7 12.9 60.5 33.7 81.3 20.8 20.8 49.5 33.7 81.3 33.7h518.9c63.5 0 114.9-51.4 114.9-114.9 0-63.5-51.5-115-115-115z" id="Layer_7"/>
    <path class="st0" d="M1139.8 953.9H860.3c-52.9 0-95.8 42.9-95.8 95.8 0 26.4 10.7 50.4 28.1 67.7 17.3 17.3 41.3 28.1 67.7 28.1h279.5c52.9 0 95.8-42.9 95.8-95.8s-42.9-95.8-95.8-95.8z" id="Layer_8"/>
    <path class="st0" d="M1000.1 748.5S897.4 818 897.4 874.8c0 56.7 46 79.1 102.7 79.1s102.7-22.4 102.7-79.1c0-56.7-102.7-126.3-102.7-126.3z" id="Layer_9"/>
    <path class="st0" d="M616.6 679.4c-10.7-6.2-19.1-10.3-19.1-10.3s.4-3.1 1-8c-.5 4.9-1 8-1 8s8.4 4.1 19.1 10.3l24.6-13.1c8.8-4.7 12.2-15.7 7.5-24.5-3.3-6.1-9.5-9.6-16-9.6-2.9 0-5.8.7-8.5 2.1l-24.6 13.1c1.1-17.6 1.2-41.5-5.2-53.5-10.9-20.4-32.6-30-48.5-21.5-15.9 8.5-20 31.9-9.1 52.2 6.4 12 26.2 25.2 41.5 34.1l6.3-3.3-6.3 3.3c4.4 2.6 8.5 4.8 11.7 6.5-3.2-1.7-7.3-3.9-11.7-6.5L553.6 672c-8.8 4.7-12.2 15.7-7.5 24.5 4.7 8.8 15.7 12.2 24.5 7.5l24.6-13.1 12.4-6.6-12.4 6.6c-1.1 17.6-1.2 41.5 5.2 53.4 10.9 20.4 32.6 30 48.5 21.5 15.9-8.5 20-31.9 9.1-52.2-6.3-12.1-26.2-25.3-41.4-34.2zm796.9-417.3c-13-4-36.4.7-53.4 5.2-6.5 1.7-12.1 3.4-15.9 4.6 3.7-1.2 9.3-2.9 15.9-4.6l8.1-26.7c2.9-9.6-2.5-19.7-12-22.6-9.6-2.9-19.7 2.5-22.6 12l-8.1 26.7-3.1 10.2 3.1-10.2c-11.6-13.3-28.5-30.2-41.5-34.1-22.1-6.7-44.2 1.8-49.5 19-5.3 17.2 8.4 36.7 30.5 43.4 13 4 36.4-.7 53.4-5.2l-8.1 26.7c-2.9 9.6 2.5 19.7 12 22.6 9.6 2.9 19.7-2.5 22.6-12l8.1-26.7 3.1-10.3-3.1 10.3c11.6 13.3 28.5 30.2 41.4 34.1 22.1 6.7 44.2-1.8 49.5-19 5.3-17.3-8.3-36.7-30.4-43.4zm-74.2 11.5s-7.9 2.8-18.9 5.7c10.9-3 18.8-5.7 18.9-5.7 0 0 2.5 3.3 6.4 8.1-4-4.9-6.4-8.1-6.4-8.1z" id="Layer_11"/>
    <g id="STROKES">
        <path class="st1" d="M1267 1375.3H733.1c-59.3 0-107.4-48.1-107.4-107.4V1253c0-59.3 48.1-107.4 107.4-107.4H1267c59.3 0 107.4 48.1 107.4 107.4v14.9c.1 59.3-48.1 107.4-107.4 107.4z"/>
        <path class="st1" d="M1146 1145.5H854.1c-49.5 0-89.6-40.1-89.6-89.6v-12.5c0-49.5 40.1-89.6 89.6-89.6H1146c49.5 0 89.6 40.1 89.6 89.6v12.5c0 49.5-40.1 89.6-89.6 89.6z"/>
        <path class="st1" d="M1364.9 1699.8H635.3c-83.8 0-151.7-67.9-151.7-151.7V1527c0-83.8 67.9-151.7 151.7-151.7h729.6c83.8 0 151.7 67.9 151.7 151.7v21.1c-.1 83.8-68 151.7-151.7 151.7z"/>
        <path class="st1" d="M1102.8 874.8c0 56.7-46 79.1-102.7 79.1s-102.7-22.4-102.7-79.1c0-56.7 102.7-126.3 102.7-126.3s102.7 69.6 102.7 126.3z"/>
        <path class="st1" d="M740.1 601.9c91.6-63.7 208.2-78 319.7-81.8 110.1-3.7 228 3.6 316.7 69 10 7.4 19.9 15.9 24.4 27.5 11.4 29.2-15.8 58.6-42 75.8-71.8 47.1-155.7 71.4-237.5 97.5-102.3 32.6-203.5 69-303.2 108.9-95.6 38.3-190.4 80.2-275.7 137.8-46.2 31.2-90 67.5-121.8 113.3-19.3 27.7-34.2 61.3-28.2 94.6 5.1 28 24.9 51.7 48.9 66.8 24.1 15.1 52.2 22.5 80.2 27.2 99.9 16.7 202.2 1.1 301.7-18 173.8-33.3 345.6-77.2 514-131.6 44.8-14.5 96.3-21 141-6.1 17.3 5.8 34.8 14.9 43.9 30.7 13.1 22.7 5.1 52.1-9.2 74.1-29.2 44.9-64.4 68.2-112.4 91.9"/>
        <path class="st1" d="M658.1 713.5c10.9 20.4 6.8 43.8-9.1 52.2-15.9 8.5-37.6-1.2-48.5-21.5-10.9-20.4-3.1-75.1-3.1-75.1s49.8 24 60.7 44.4z"/>
        <path class="st1" d="M536.8 624.8c-10.9-20.4-6.8-43.8 9.1-52.2 15.9-8.5 37.6 1.2 48.5 21.5 10.9 20.4 3.1 75.1 3.1 75.1s-49.9-24.1-60.7-44.4z"/>
        <path class="st1" d="M642.2 665.7l-72.6 38.7c-8.2 4.4-18.5 1.3-22.9-7l-1.1-2.1c-4.4-8.2-1.3-18.5 7-22.9l72.6-38.7c8.2-4.4 18.5-1.3 22.9 7l1.1 2.1c4.4 8.3 1.3 18.5-7 22.9z"/>
        <path class="st1" d="M1265 285.1c-22.1-6.7-35.7-26.1-30.5-43.4s27.4-25.8 49.5-19c22.1 6.7 55.2 50.9 55.2 50.9s-52.1 18.2-74.2 11.5z"/>
        <path class="st1" d="M1413.5 262.1c22.1 6.7 35.7 26.1 30.5 43.4-5.2 17.2-27.4 25.8-49.5 19-22.1-6.7-55.2-50.9-55.2-50.9s52.1-18.3 74.2-11.5z"/>
        <path class="st1" d="M1310 307.7l24-78.7c2.7-8.9 12.2-14 21.1-11.3l2.3.7c8.9 2.7 14 12.2 11.3 21.1l-24 78.7c-2.7 8.9-12.2 14-21.1 11.3l-2.3-.7c-9-2.7-14-12.2-11.3-21.1z"/>
    </g>
</svg>
