<svg xmlns="http://www.w3.org/2000/svg" viewBox="0 0 1920 1920">
    <style>
        .st0{fill:#fff}.st1{fill:none;stroke:#231f20;stroke-width:50;stroke-linecap:round;stroke-linejoin:round;stroke-miterlimit:10}
    </style>
    <path class="st0" d="M959.5 390.8c0-48 19.5-91.5 50.9-122.9 31.5-31.5 74.9-50.9 122.9-50.9 96 0 163.8 77.8 163.8 173.8l20 933.6H602.9l18-933.6c0-96 67.8-173.8 163.8-173.8 48 0 91.5 19.4 122.9 50.9 31.4 31.5 50.9 74.9 50.9 122.9h1z" id="Layer_3"/>
    <path class="st0" d="M1192.8 1326.5v317c0 32.9-26.6 59.5-59.5 59.5-16.4 0-31.3-6.7-42.1-17.4-10.8-10.8-17.4-25.7-17.4-42.1v-319.2h119v2.2zm-348.6-2.2h-119v319.2c0 16.4 6.7 31.3 17.4 42.1 10.8 10.8 25.7 17.4 42.1 17.4 32.9 0 59.5-26.7 59.5-59.5v-319.2z" id="Layer_4"/>
    <g id="STROKES">
        <g id="XMLID_1_">
            <path class="st1" d="M958.5 1324.3H602.9l18-933.6c0-96 67.8-173.8 163.8-173.8 48 0 91.5 19.4 122.9 50.9 31.4 31.5 50.9 74.9 50.9 122.9"/>
            <path class="st1" d="M959.5 1324.3h357.6l-20-933.6c0-96-67.8-173.8-163.8-173.8-48 0-91.5 19.4-122.9 50.9-31.4 31.5-50.9 74.9-50.9 122.9V1317"/>
            <path class="st1" d="M844.2 1326.5v317c0 32.9-26.7 59.5-59.5 59.5-16.4 0-31.3-6.7-42.1-17.4-10.8-10.8-17.4-25.7-17.4-42.1v-317"/>
            <path class="st1" d="M1192.8 1326.5v317c0 32.9-26.6 59.5-59.5 59.5-16.4 0-31.3-6.7-42.1-17.4-10.8-10.8-17.4-25.7-17.4-42.1v-317"/>
        </g>
    </g>
</svg>
