<svg xmlns="http://www.w3.org/2000/svg" viewBox="0 0 1920 1920">
    <style>
        .st0{fill:#fff}.st1{fill:none;stroke:#231f20;stroke-width:50;stroke-linecap:round;stroke-linejoin:round;stroke-miterlimit:10}
    </style>
    <path class="st0" d="M1281 538v817.9H639V538c0-27.7 3.5-54.6 10.1-80.3 5.8 1.4 11.8 2.2 17.9 2.2 13.8 0 26.6-3.7 37.8-10.1 13.9 17.7 35.4 29 59.6 29 32.3 0 60-20.3 70.8-48.9 1.6.1 3.3.2 4.9.2 41.8 0 75.7-33.9 75.7-75.7 0-15.9-4.9-30.6-13.3-42.8 17.9-13.8 29.5-35.5 29.5-59.9 0-11.7-2.7-22.8-7.5-32.7 11.6-1.3 23.4-1.9 35.4-1.9 177.4-.2 321.1 143.6 321.1 320.9z" id="Layer_2"/>
    <path class="st0" d="M1042.2 1358.9v262c0 45.4-36.8 82.2-82.2 82.2-22.7 0-43.2-9.2-58.1-24.1s-24.1-35.4-24.1-58.1v-265h164.4v3z" id="Layer_7"/>
    <g id="STROKES">
        <g id="XMLID_1_">
            <path class="st1" d="M1042.2 1358.9v262c0 45.4-36.8 82.2-82.2 82.2-22.7 0-43.2-9.2-58.1-24.1s-24.1-35.4-24.1-58.1v-262"/>
            <path class="st1" d="M1042.2 1355.9H1281V538c0-177.3-143.7-321-321-321-12 0-23.8.7-35.4 1.9 4.8 9.9 7.5 21 7.5 32.7 0 24.4-11.6 46.1-29.5 59.9 8.4 12.2 13.3 26.9 13.3 42.8 0 41.8-33.9 75.7-75.7 75.7-1.6 0-3.3-.1-4.9-.2-10.8 28.6-38.4 48.9-70.8 48.9-24.2 0-45.7-11.4-59.6-29-11.1 6.4-24 10.1-37.8 10.1-6.2 0-12.2-.8-17.9-2.2-6.6 25.7-10.1 52.6-10.1 80.3v817.9h403.1z"/>
            <path class="st1" d="M895.1 419.3v696.3c0 30.6-24.8 55.4-55.4 55.4-15.3 0-29.2-6.2-39.2-16.2-10-10-16.2-23.9-16.2-39.2v-626"/>
            <path class="st1" d="M1135.8 489.6v626c0 30.6-24.8 55.4-55.4 55.4-15.3 0-29.2-6.2-39.2-16.2-10-10-16.2-23.9-16.2-39.2V367.9"/>
        </g>
    </g>
</svg>
