<svg xmlns="http://www.w3.org/2000/svg" viewBox="0 0 1920 1920">
    <style>
        .st0{fill:#fff}.st1{fill:none;stroke:#231f20;stroke-width:50;stroke-linecap:round;stroke-linejoin:round;stroke-miterlimit:10}
    </style>
    <path class="st0" d="M1281 538v817.9H639V538c0-177.3 143.7-321 321-321 88.7 0 168.9 35.9 227 94 58.1 58.1 94 138.3 94 227z" id="Layer_5"/>
    <path class="st0" d="M1042.2 1358.9v262c0 45.4-36.8 82.2-82.2 82.2-22.7 0-43.2-9.2-58.1-24.1s-24.1-35.4-24.1-58.1v-265h164.4v3z" id="Layer_6"/>
    <g id="STROKES">
        <g id="XMLID_1_">
            <path class="st1" d="M877.8 1355.9H639V538c0-177.3 143.7-321 321-321 88.7 0 168.9 35.9 227 94 58.1 58.1 94 138.3 94 227v817.9H877.8z"/>
            <path class="st1" d="M1042.2 1358.9v262c0 45.4-36.8 82.2-82.2 82.2-22.7 0-43.2-9.2-58.1-24.1s-24.1-35.4-24.1-58.1v-262"/>
            <path class="st1" d="M755 606.2s36.5 28.6 36.5 76.2-28.6 98.4-22.2 142.9c3.1 21.9 25.4 49.2 55.6 49.2"/>
            <path class="st1" d="M897.9 606.2s-36.5 28.6-36.5 76.2 28.6 98.4 22.2 142.9c-3.1 21.9-25.4 49.2-55.6 49.2"/>
        </g>
    </g>
</svg>
