<svg xmlns="http://www.w3.org/2000/svg" viewBox="0 0 1920 1920">
    <style>
        .st0{fill:#fff}.st1{fill:none;stroke:#231f20;stroke-width:50;stroke-linecap:round;stroke-linejoin:round;stroke-miterlimit:10}
    </style>
    <g id="Layer_9">
        <path class="st0" d="M1703.1 475.5v969.1H216.9V475.5h1486.2zm-129.4 340v-234h-189v234h189z"/>
        <path class="st0" d="M1573.7 581.5v234h-132.9c-17.4-10.3-36.6-16.6-56.1-18.9V581.4h189z"/>
    </g>
    <path class="st0" d="M1384.7 796.6c19.5 2.2 38.7 8.5 56.1 18.9h-56.1v-18.9z" id="Layer_13"/>
    <g id="STROKE">
        <g id="XMLID_2_">
            <path class="st1" d="M216.9 475.5H1703v969.1H216.9z"/>
            <path class="st1" d="M1384.7 590.3v-8.8h189v234h-189v-122z"/>
            <path class="st1" d="M1150.6 1034.8h426.1"/>
            <path class="st1" d="M1150.6 1148.2h426.1"/>
            <path class="st1" d="M1150.6 1261.5h426.1"/>
            <path class="st1" d="M317 608.8h142"/>
            <path class="st1" d="M317 813.7h480"/>
            <path class="st1" d="M317 927h480"/>
            <path class="st1" d="M317 1038.3h480"/>
            <path class="st1" d="M317 1151.7h480"/>
            <path class="st1" d="M317 1265h158"/>
            <path class="st1" d="M1066.8 734.2c55.6 55.6 145.5 55.6 201 0"/>
            <path class="st1" d="M1468.9 734.2c-23.6-23.6-53.5-37.2-84.3-40.7-41.6-4.8-84.8 8.8-116.8 40.7"/>
            <path class="st1" d="M1066.8 631c55.6 55.6 145.5 55.6 201 0"/>
            <path class="st1" d="M1468.9 631.1c-23.6-23.6-53.5-37.2-84.3-40.7-41.6-4.8-84.8 8.8-116.8 40.7"/>
            <path class="st1" d="M1066.8 837.3c55.6 55.6 145.5 55.6 201 0"/>
            <path class="st1" d="M1468.9 837.3c-8.6-8.6-18.1-15.9-28.1-21.9-17.4-10.3-36.6-16.6-56.1-18.9-41.6-4.8-84.8 8.8-116.8 40.7"/>
        </g>
    </g>
</svg>
