<svg xmlns="http://www.w3.org/2000/svg" viewBox="0 0 1920 1920">
    <style>
        .st0{fill:#fff}.st1{fill:none;stroke:#231f20;stroke-width:50;stroke-linecap:round;stroke-linejoin:round;stroke-miterlimit:10}
    </style>
    <path class="st0" d="M1294 1483.7l94.2-11.5c18.3-44.1 28.4-92.6 28.4-143.3V590c0-206.7-167.6-374.2-374.2-374.2-98.9 0-188.9 38.4-255.8 101.1-22.1 20.7-27 53.8-11.8 79.9l22.4 38.4s-94.4-3.2-99.9 9.7c-18.8 44.6-29.2 93.7-29.2 145.1v738.8c0 206.7 167.6 374.2 374.2 374.2 128.1 0 241.1-64.3 308.6-162.4l-56.9-56.9z" id="Layer_2"/>
    <g id="STROKES">
        <path class="st1" d="M1213.4 464.2l-25.8 58 51.6 19.4"/>
        <path class="st1" d="M942.4 983.6l16.1 51.6H894"/>
        <path class="st1" d="M1148.9 1309.4l-32.3-61.3 64.5-22.5"/>
        <path class="st1" d="M942.4 1528.8l32.2-41.9 25.8 41.9"/>
        <path class="st1" d="M1294 1483.7l94.2-11.5c18.3-44.1 28.4-92.6 28.4-143.3V590c0-206.7-167.6-374.2-374.2-374.2-98.9 0-188.9 38.4-255.8 101.1-22.1 20.7-27 53.8-11.8 79.9l22.4 38.4s-94.4-3.2-99.9 9.7c-18.8 44.6-29.2 93.7-29.2 145.1v738.8c0 206.7 167.6 374.2 374.2 374.2 128.1 0 241.1-64.3 308.6-162.4l-56.9-56.9z"/>
        <path class="st1" d="M619.7 1244.9l45.2 38.7-61.3 42"/>
        <path class="st1" d="M1467.7 557.7l-41.9 64.6 54.8 38.7"/>
        <path class="st1" d="M805.6 599.8l48 33 18-66"/>
    </g>
</svg>
