<svg xmlns="http://www.w3.org/2000/svg" viewBox="0 0 1920 1920">
    <style>
        .st0{fill:#fff}.st1{fill:none;stroke:#231f20;stroke-width:50;stroke-linecap:round;stroke-linejoin:round;stroke-miterlimit:10}
    </style>
    <path class="st0" d="M1609.1 1171.3c0-28.4 14.9-53.4 37.4-67.5 26.4-16.5 44.9-43.1 50.4-73.7 4.1-22.8 6.2-46.2 6.2-70.2 0-219.8-178.2-398-398-398h-199.8c-21.3 0-42 6.7-59.8 18.5-12.6 8.4-27.7 13.2-43.9 13.2s-31.3-4.9-43.9-13.2c-17.8-11.8-38.5-18.5-59.8-18.5h-283c-219.8 0-398 178.2-398 398 0 187.1 129.1 344.1 303.2 386.6 29.1 7.1 59.6 1.6 84.9-14.4 12.3-7.8 26.8-12.3 42.5-12.3 18 0 34.7 6 48 16.2 18.8 14.3 41.9 22 65.5 22h544c103.7 0 198.1-39.6 268.9-104.6 22.8-20.9 35.3-50.7 35.1-81.7.1-.1.1-.2.1-.4z" id="Layer_4"/>
    <g id="STROKES">
        <path class="st1" d="M974.5 1067.8c-50.5 0-91.5-41-91.5-91.5"/>
        <path class="st1" d="M1275.2 1146.1c-16.3-47.8 9.3-99.8 57.2-116.1"/>
        <path class="st1" d="M608.2 783c-20.7 46.1-74.8 66.8-120.9 46.1"/>
        <path class="st1" d="M1310.5 787.6c-41.5 28.8-98.5 18.5-127.3-23.1"/>
        <path class="st1" d="M554.5 1095.6c28.6 41.7 17.9 98.7-23.8 127.2"/>
        <path class="st1" d="M1609.1 1171.3c0-28.4 14.9-53.4 37.4-67.5 26.4-16.5 44.9-43.1 50.4-73.7 4.1-22.8 6.2-46.2 6.2-70.2 0-219.8-178.2-398-398-398h-199.8c-21.3 0-42 6.7-59.8 18.5-12.6 8.4-27.7 13.2-43.9 13.2s-31.3-4.9-43.9-13.2c-17.8-11.8-38.5-18.5-59.8-18.5h-283c-219.8 0-398 178.2-398 398 0 187.1 129.1 344.1 303.2 386.6 29.1 7.1 59.6 1.6 84.9-14.4 12.3-7.8 26.8-12.3 42.5-12.3 18 0 34.7 6 48 16.2 18.8 14.3 41.9 22 65.5 22h544c103.7 0 198.1-39.6 268.9-104.6 22.8-20.9 35.3-50.7 35.1-81.7.1-.1.1-.2.1-.4z"/>
    </g>
</svg>
