<svg xmlns="http://www.w3.org/2000/svg" viewBox="0 0 1920 1920">
    <style>
        .st0{fill:#fff}.st1{fill:none;stroke:#231f20;stroke-width:50;stroke-linecap:round;stroke-linejoin:round;stroke-miterlimit:10}
    </style>
    <path class="st0" d="M1705.1 218v1484H217V218h1488.1zm-257.7 551c56.2-42.3 92.3-107.7 92.3-181 0-83.4-46.6-156.4-116.4-197h-254.6c-69.8 40.6-116.4 113.6-116.4 197 0 73.3 36.1 138.7 92.3 181h302.8zm0 760c56.2-42.3 92.3-107.7 92.3-181 0-83.3-46.6-156.4-116.4-197h-254.6c-69.8 40.6-116.4 113.7-116.4 197 0 73.3 36.1 138.7 92.3 181h302.8zM1346 960c0-27.6-22.4-50-50-50s-50 22.4-50 50 22.4 50 50 50 50-22.4 50-50zM775.4 769c56.2-42.3 92.3-107.7 92.3-181 0-83.4-46.6-156.4-116.4-197H496.7c-69.8 40.6-116.4 113.6-116.4 197 0 73.3 36.1 138.7 92.3 181h302.8zm0 760c56.2-42.3 92.3-107.7 92.3-181 0-83.3-46.6-156.4-116.4-197H496.7c-69.8 40.6-116.4 113.7-116.4 197 0 73.3 36.1 138.7 92.3 181h302.8zM674 960c0-27.6-22.4-50-50-50s-50 22.4-50 50 22.4 50 50 50 50-22.4 50-50z" id="Layer_6"/>
    <g id="Layer_7">
        <path class="st0" d="M751.3 1151H496.7c-69.8 40.6-116.4 113.6-116.4 197 0 73.3 36.1 138.7 92.3 181h302.9c56.2-42.3 92.3-107.7 92.3-181-.1-83.4-46.7-156.4-116.5-197z"/>
        <circle class="st0" cx="1296" cy="960" r="50"/>
        <path class="st0" d="M1144.6 769h302.9c56.2-42.3 92.3-107.7 92.3-181 0-83.4-46.6-156.4-116.4-197h-254.6c-69.8 40.6-116.4 113.6-116.4 197-.1 73.3 35.9 138.7 92.2 181z"/>
        <path class="st0" d="M1423.3 1151h-254.6c-69.8 40.6-116.4 113.6-116.4 197 0 73.3 36.1 138.7 92.3 181h302.9c56.2-42.3 92.3-107.7 92.3-181-.1-83.4-46.7-156.4-116.5-197z"/>
        <path class="st0" d="M751.3 391H496.7c-69.8 40.6-116.4 113.6-116.4 197 0 73.3 36.1 138.7 92.3 181h302.9c56.2-42.3 92.3-107.7 92.3-181-.1-83.4-46.7-156.4-116.5-197z"/>
        <circle class="st0" cx="624" cy="960" r="50"/>
    </g>
    <g id="STROKES">
        <path class="st1" d="M217 218h1488.1v1484H217z"/>
        <path class="st1" d="M380.3 588c0 73.3 36.1 138.7 92.3 181h302.9c56.2-42.3 92.3-107.7 92.3-181 0-83.4-46.6-156.4-116.4-197H496.7c-69.8 40.6-116.4 113.6-116.4 197z"/>
        <path class="st1" d="M664 683h-80v-40c0-22.1 17.9-40 40-40 11 0 21 4.5 28.3 11.7C659.5 622 664 632 664 643v40z"/>
        <path class="st1" d="M716 477v68"/>
        <path class="st1" d="M532 477v68"/>
        <path class="st1" d="M380.3 1348c0 73.3 36.1 138.7 92.3 181h302.9c56.2-42.3 92.3-107.7 92.3-181 0-83.3-46.6-156.4-116.4-197H496.7c-69.8 40.6-116.4 113.7-116.4 197z"/>
        <path class="st1" d="M664 1443h-80v-40c0-22.1 17.9-40 40-40 11 0 21 4.5 28.3 11.7 7.2 7.2 11.7 17.2 11.7 28.3v40z"/>
        <path class="st1" d="M716 1237v68"/>
        <path class="st1" d="M532 1237v68"/>
        <circle class="st1" cx="624" cy="960" r="50"/>
        <path class="st1" d="M1052.3 588c0 73.3 36.1 138.7 92.3 181h302.9c56.2-42.3 92.3-107.7 92.3-181 0-83.4-46.6-156.4-116.4-197h-254.6c-70 40.6-116.5 113.6-116.5 197z"/>
        <path class="st1" d="M1336 683h-80v-40c0-22.1 17.9-40 40-40 11 0 21 4.5 28.3 11.7 7.2 7.2 11.7 17.2 11.7 28.3v40z"/>
        <path class="st1" d="M1388 477v68"/>
        <path class="st1" d="M1204 477v68"/>
        <path class="st1" d="M1052.3 1348c0 73.3 36.1 138.7 92.3 181h302.9c56.2-42.3 92.3-107.7 92.3-181 0-83.3-46.6-156.4-116.4-197h-254.6c-70 40.6-116.5 113.7-116.5 197z"/>
        <path class="st1" d="M1336 1443h-80v-40c0-22.1 17.9-40 40-40 11 0 21 4.5 28.3 11.7s11.7 17.2 11.7 28.3v40z"/>
        <path class="st1" d="M1388 1237v68"/>
        <path class="st1" d="M1204 1237v68"/>
        <circle class="st1" cx="1296" cy="960" r="50"/>
    </g>
</svg>
