<svg xmlns="http://www.w3.org/2000/svg" viewBox="0 0 1920 1920">
    <style>
        .st0{fill:#fff}.st1{fill:none;stroke:#231f20;stroke-width:50;stroke-linecap:round;stroke-linejoin:round;stroke-miterlimit:10}
    </style>
    <path class="st0" d="M1552.7 216.9V1703H367.3V216.9h1185.4zm-100.6 1385.6v-1285H467.9v1285h984.2z" id="Layer_3"/>
    <path class="st0" d="M1452.1 317.5v1285H467.9v-1285h984.2zm-96 1092.9v-71.6h-63.8v-34.9h-124.2v-44.1h-82.7v229.6h82.7v-44.1h124.2v-34.9h63.8zm-13.3-757.2V430.4H1204v222.8h138.8zm-291.4 301v-82h-60.7v-51.7c30-12.2 51.2-41.6 51.2-76 0-26.2-12.3-49.6-31.5-64.6v-77.3H909.5v77.3c-19.2 15-31.5 38.4-31.5 64.6 0 34.4 21.2 63.9 51.2 76v51.7h-60.7v82c0 50.3 41.2 91.4 91.5 91.4 25.2 0 48-10.3 64.6-26.9 16.6-16.5 26.8-39.4 26.8-64.5zm-216.8 535.2v-229.6h-82.7v44.1H627.7v34.9h-63.8v71.6h63.8v34.9h124.2v44.1h82.7z" id="Layer_4"/>
    <path class="st0" d="M834.6 1445.4v44.1h-82.7v-44.1H627.7v-34.9h-63.8v-71.6h63.8V1304h124.2v-44.1h82.7v185.5zm457.7-106.6v-34.9h-124.2v-44.1h-82.7v229.6h82.7v-44.1h124.2v-34.9h63.8v-71.6h-63.8zM1204 430.4v222.8h138.8V430.4H1204zM990.8 872.2v-51.7c30-12.2 51.2-41.6 51.2-76 0-26.2-12.3-49.6-31.5-64.6v-77.3h-101v77.3c-19.2 15-31.5 38.4-31.5 64.6 0 34.4 21.2 63.9 51.2 76v51.7h-60.7v82c0 50.3 41.2 91.4 91.5 91.4 25.2 0 48-10.3 64.6-26.9 16.6-16.6 26.9-39.4 26.9-64.6v-82h-60.7z" id="Layer_5"/>
    <g id="STROKES">
        <path class="st1" d="M467.9 317.5h984.3v1285H467.9z"/>
        <path class="st1" d="M367.3 216.9h1185.4V1703H367.3z"/>
        <path class="st1" d="M990.8 872.2v-51.7c30-12.2 51.2-41.6 51.2-76 0-26.2-12.3-49.6-31.5-64.6v-77.3h-101v77.3c-19.2 15-31.5 38.4-31.5 64.6 0 34.4 21.2 63.9 51.2 76v51.7h-60.7v82c0 50.3 41.2 91.4 91.5 91.4 25.2 0 48-10.3 64.6-26.9 16.6-16.6 26.9-39.4 26.9-64.6v-82h-60.7z"/>
        <path class="st1" d="M1204 430.4h138.9v222.8H1204z"/>
        <path class="st1" d="M751.9 1259.8v44.1H627.7v34.9h-63.8v71.6h63.8v35h124.2v44h82.7v-229.6z"/>
        <path class="st1" d="M1168.1 1489.4v-44h124.2v-35h63.8v-71.6h-63.8v-34.9h-124.2v-44.1h-82.7v229.6z"/>
    </g>
</svg>
