<svg xmlns="http://www.w3.org/2000/svg" viewBox="0 0 1920 1920">
    <style>
        .st0{fill:#fff}.st1{fill:none;stroke:#231f20;stroke-width:50;stroke-linecap:round;stroke-linejoin:round;stroke-miterlimit:10}
    </style>
    <path class="st0" d="M1609.2 716.1s-.1 0 0 0c-.1 0-.1-.1 0 0-25.8-65-57.1-111.2-90.1-143.8-112.4-110.9-244.5-64.2-245.4-63.9-2-2.2-4-4.4-6-6.4-73.6-73.9-178.3-21.8-178.3-21.8-.3-.3-.6-.6-.9-1-47.1-47.5-127-14.1-127-14.1s-12.3-5.2-30.2-8.6c31 40 60.5 92 75.7 134 13.3 36.7 50.4 72.6 83.7 99.1-3.4-.2-6.9-.4-10.5-.5-106.8-6-118.6 57.2-118.6 57.2S949.7 683 843 689.1c-3.7.2-7.2.4-10.7.6 18.9-35.9 24.1-70.4 27.2-104.8 2-21.6-9.5-40.7-23.6-55.6-1.5-1.3-3-2.5-4.5-3.7-.7-.6-1.5-1.2-2.2-1.8-1.4-1.2-2.9-2.3-4.3-3.4s-2.8-2.2-4.1-3.2c-.6-.5-1.2-.9-1.8-1.4-.7-.6-1.5-1.1-2.2-1.7-.6-.5-1.3-1-1.9-1.4-1.2-1-2.5-1.9-3.7-2.7-.6-.4-1.2-.9-1.8-1.3-.6-.4-1.1-.8-1.7-1.2l-2.4-1.8c-.2-.2-.5-.4-.8-.5-.8-.5-1.5-1.1-2.2-1.6-5.9-4.2-10.1-6.8-11.5-7.7-.1 0-.2-.1-.2-.1-.1-.1-.2-.1-.2-.1h-.1s.8-2.9 2.2-7.8c1.5-4.9 3.7-11.7 6.5-19.4-38.6-9.6-101.9-13.8-149.8 40.2 0 0-101.9-36.4-203 29.5-48 31.3-95.9 85.7-132.6 178.1-122 163.2-155.6 467.2 87.7 623.7 6.7 8.3 13.8 16.3 21.3 23.9 52.7 53.1 126.9 86.8 221.4 90.3h16c66.1 48.2 153.3 71.3 206.9 71.3 86.6 0 94.4-59.6 94.4-59.6s7.8 59.6 94.5 59.6c53.6 0 140.8-23.1 206.9-71.3h15.9c108-4 189.4-47.5 242.7-114.2 130.8-84.2 181.6-211 181.6-335.6.2-107.3-37.4-212.9-93.7-288.3z" id="Layer_7"/>
    <path class="st0" d="M1006.9 590.6c-15.2-42-44.7-94-75.7-134-22.5-29.1-45.7-51.8-64.8-59.8-30.9-13-55.2 38-67.4 71.5-2.8 7.8-5 14.6-6.5 19.4-1.5 4.9-2.2 7.8-2.2 7.8h.1c.3.2 1.8.9 4 2.2.2.1.3.2.5.3.8.5 1.8 1 2.8 1.6.2.1.4.2.6.4.6.4 1.3.8 2 1.2.4.3.9.5 1.3.8 1.5.9 3.1 2 4.8 3.1.5.4 1.1.7 1.7 1.1.6.4 1.2.8 1.7 1.2.6.4 1.1.8 1.7 1.2.4.2.7.5 1.1.8.6.4 1.2.9 1.9 1.4.5.4 1.1.8 1.6 1.2.7.5 1.4 1.1 2.2 1.7.6.5 1.3 1 1.9 1.5.6.5 1.3 1 1.9 1.6.6.5 1.3 1.1 2 1.7 1.3 1.1 2.6 2.2 3.9 3.4.6.5 1.1 1 1.6 1.5 2 1.9 4.1 3.9 6.1 6 14.1 14.9 25.6 33.9 23.6 55.6-3.1 34.4-8.3 68.9-27.2 104.8 3.5-.2 7-.4 10.7-.6 106.8-6 118.6 57.2 118.6 57.2s11.9-63.3 118.6-57.2c3.6.2 7.1.4 10.5.5-33.3-26.5-70.4-62.4-83.6-99.1z" id="Layer_8"/>
    <g id="STROKES">
        <path class="st1" d="M961.4 746.4v719.2s-7.8 59.6-94.5 59.6-260.9-60.1-292.1-189.4c-66.4-275 44.3-497.6 44.3-497.6 79-140.1 110-144.1 191.4-147.6 6.8-.3 13.9-.6 21.5-.9 3.5-.2 7-.4 10.7-.6 106.9-5.9 118.7 57.3 118.7 57.3z"/>
        <path class="st1" d="M660 1454h-16c-108-4-189.4-47.5-242.7-114.2"/>
        <path class="st1" d="M740.9 657.7c42.3 12.9 69.1 32.6 69.7 33"/>
        <path class="st1" d="M740.9 657.7c-76.9-23.3-205-24.1-321.1 154-119.2 183-121.6 398.9-18.4 528.1-243.3-156.5-209.7-460.5-87.7-623.7 25.9-34.6 55.7-62.9 87.7-82.1 182-109.2 337.8 22.2 339.5 23.7z"/>
        <path class="st1" d="M649.2 508.5s67.9 30.6 91.7 59.8"/>
        <path class="st1" d="M1348 1335.9c-11.9 49.2-44.5 88.4-85.2 118.1-66.1 48.2-153.3 71.3-206.9 71.3-86.6 0-94.5-59.6-94.5-59.6V746.4s11.9-63.3 118.6-57.2c3.6.2 7.1.4 10.5.5 7.6.4 14.8.7 21.6.9 81.4 3.5 112.4 7.5 191.4 147.6.2.1 110.9 222.7 44.5 497.7z"/>
        <path class="st1" d="M1521.4 1339.8c-53.3 66.7-134.7 110.2-242.7 114.2h-15.9c40.7-29.7 73.3-68.9 85.2-118.1 66.4-275-44.3-497.6-44.3-497.6-79-140.1-110-144.1-191.4-147.6.6-.5 27.4-20.2 69.7-33 76.8-23.3 205-24.1 321.1 154 119.1 182.9 121.6 398.9 18.3 528.1z"/>
        <path class="st1" d="M1521.4 1339.8c243.3-156.6 209.7-460.5 87.7-623.7-25.9-34.6-55.7-62.9-87.7-82.1-182-109.2-337.7 22.2-339.5 23.7"/>
        <path class="st1" d="M1609.2 716.1s-.1 0 0 0c-114-286.9-335.6-207.6-335.6-207.6-73.7-83.2-184.3-28.2-184.3-28.2-47-48.9-127.9-15-127.9-15s-12.4-5.2-30.2-8.6"/>
        <path class="st1" d="M799 468.3c-38.6-9.6-101.9-13.8-149.8 40.2 0 0-221.6-79.3-335.5 207.6"/>
        <path class="st1" d="M1273.6 508.5s-67.9 30.6-91.7 59.8"/>
        <path class="st1" d="M1090.6 689.7c-3.4-.2-6.9-.3-10.5-.5-106.8-6-118.6 57.2-118.6 57.2s-11.9-63.3-118.6-57.2c-3.7.2-7.2.4-10.7.6 18.9-35.9 24.1-70.4 27.2-104.8 4.8-52.3-69-89.4-69-89.4s3.1-11.8 8.7-27.3c12.2-33.5 36.5-84.5 67.4-71.5 19 8 42.3 30.8 64.8 59.8 31 40 60.5 92 75.7 134 13.1 36.7 50.2 72.6 83.6 99.1z"/>
        <path class="st1" d="M790.3 495.5s97.8 61 124.1 135.1"/>
    </g>
</svg>
