<svg xmlns="http://www.w3.org/2000/svg" viewBox="0 0 1920 1920">
    <style>
        .st0{fill:#fff}.st1{fill:none;stroke:#231f20;stroke-width:50;stroke-linecap:round;stroke-linejoin:round;stroke-miterlimit:10}
    </style>
    <path class="st0" d="M1357.2 585c-57.1-43.5-124.4-67-196.4-67-36.7 0-72.1 7.7-105.6 22.2-6.8-3-13.7-6-20.7-8.8-11.7-4.7-23.7-8.2-36-10.5-10.4-1.9-21-2.9-31.7-2.9-20.5 0-40.6 3.6-59.9 10.5-2.6.9-5.1 1.9-7.7 2.9-9.3 3.8-18.5 7.7-27.5 11.9-35.5-16.4-73.3-25.3-112.5-25.3-72 0-139.2 23.5-196.4 67-200 53-345.8 221.7-345.8 461.6 0 292.4 216.8 579.8 484.3 579.8 11.5 0 22.9-.4 34.2-1.3 7.8.9 15.7 1.3 23.7 1.3 29.5 0 58.3-5 85.8-14.5 21.5-7.4 43.4-12.7 65.5-15.9 14.4-2.1 28.8-3.2 43.3-3.5-80.9-3.9-152.3-83.7-196.6-204.8 52.2 116.7 122.1 199.6 199.3 204.8h9.6c.9 0 1.8 0 2.7.1 13.5.3 27.1 1.5 40.5 3.4 22 3.2 43.9 8.5 65.5 15.9 27.6 9.5 56.3 14.5 85.8 14.5 8 0 15.8-.4 23.7-1.3 11.3.9 22.7 1.3 34.2 1.3 267.5 0 484.3-287.3 484.3-579.8.3-239.9-145.6-408.6-345.6-461.6z" id="Layer_2"/>
    <path class="st0" d="M960.1 293.7c-41.3 30.9-51.7 144.2-53 234.8 19.4-6.9 39.4-10.5 59.9-10.5 10.7 0 21.3 1 31.7 2.9 11.8-103.5 45.4-205.2 45.4-205.2l-84-22z" id="Layer_6"/>
    <g id="STROKES">
        <path class="st1" d="M1536.7 1019.5c0 294.3-155.6 583.7-352.2 605.4-7.8.9-15.7 1.3-23.7 1.3-29.5 0-58.3-5-85.8-14.5-21.5-7.4-43.4-12.7-65.5-15.9-13.5-1.9-27-3.1-40.5-3.4 1.8 0 3.6 0 5.5.1 164.1-7 296-365.6 296-658 0-242.4-90.6-338.7-215.2-394.4 33.5-14.4 68.9-22.2 105.6-22.2 72 0 139.2 23.5 196.4 67 107.6 82 179.4 234.7 179.4 434.6z"/>
        <path class="st1" d="M735.7 1625c-11.3.9-22.7 1.3-34.2 1.3-267.5 0-484.3-287.3-484.3-579.8C217.2 806.7 363 638 563 585c-107.7 81.9-179.5 234.6-179.5 434.5 0 294.4 155.7 583.8 352.2 605.5z"/>
        <path class="st1" d="M1009.6 1595.9c-32.9-2.7-66-2.7-98.9 0 14.4-2.1 28.8-3.2 43.3-3.5h12.3c.9 0 1.8 0 2.7.1 13.6.3 27.1 1.4 40.6 3.4z"/>
        <path class="st1" d="M1703.1 1046.5c0 292.4-216.8 579.8-484.3 579.8-11.5 0-22.9-.4-34.2-1.3 196.6-21.7 352.2-311.1 352.2-605.4 0-199.9-71.8-352.7-179.5-434.5 199.9 52.9 345.8 221.6 345.8 461.4z"/>
        <path class="st1" d="M954 1592.4c-14.5.2-28.9 1.4-43.3 3.5-22 3.2-43.9 8.5-65.5 15.9-27.6 9.5-56.3 14.5-85.8 14.5-8 0-15.8-.4-23.7-1.3-196.6-21.7-352.2-311.1-352.2-605.4 0-199.9 71.8-352.7 179.5-434.5 57.2-43.5 124.4-67 196.4-67 39.2 0 77 8.9 112.5 25.3-121 56.2-208.3 153.3-208.3 391.3 0 152.8 36 323.7 93.8 453 44.3 121 115.6 200.8 196.6 204.7z"/>
        <path class="st1" d="M1044.1 315.7s-33.6 101.7-45.4 205.2c-10.4-1.9-21-2.9-31.7-2.9-20.5 0-40.6 3.6-59.9 10.5 1.4-90.6 11.7-203.9 53-234.8l84 22z"/>
        <path class="st1" d="M1270.4 934.6c0 292.3-131.8 650.9-296 658-1.8 0-3.6-.1-5.5-.1-.9 0-1.8 0-2.7-.1-3.2-.1-6.4-.1-9.6 0-77.2-5.2-147.1-88.1-199.3-204.8-57.8-129.3-93.8-300.2-93.8-453 0-237.9 87.3-335.1 208.3-391.3 9-4.2 18.1-8.1 27.5-11.9 2.5-1 5.1-2 7.7-2.9 19.4-6.9 39.4-10.5 59.9-10.5 10.7 0 21.3 1 31.7 2.9 12.2 2.2 24.2 5.8 36 10.5 7 2.8 13.9 5.7 20.7 8.8 124.5 55.7 215.1 152 215.1 394.4z"/>
        <path class="st1" d="M969 1592.5h-4.5c-1.7 0-3.3 0-5 .1-1 0-1.9-.1-2.9-.2h9.6c1 0 1.9 0 2.8.1z"/>
        <path class="st1" d="M966.3 1592.4c-.6 0-1.2 0-1.8.1-1.5.1-2.9.1-4.4.1-2.1 0-4.1 0-6.2-.1h2.7c3.3-.2 6.5-.2 9.7-.1z"/>
    </g>
</svg>
