<svg xmlns="http://www.w3.org/2000/svg" viewBox="0 0 1920 1920">
    <style>
        .st0{fill:#fff}.st1{fill:none;stroke:#231f20;stroke-width:50;stroke-linecap:round;stroke-linejoin:round;stroke-miterlimit:10}
    </style>
    <path class="st0" d="M1248 536.3c-72.7-40.3-155.9-64.7-244.9-70.9-15-1.1-30.2-1.6-45.6-1.6-17.8 0-35.5.7-52.9 2.2-86.2 7-166.8 31.1-237.5 70.3-266 76.8-452.5 261.9-452.5 517.5 0 340.3 330.6 597.4 739.3 598.9h7.4c408.6-1.5 739.3-258.6 739.3-598.9-.2-255.6-186.7-440.6-452.6-517.5zM1192.2 881l25-43.3 41.5-71.8 66.4 115.1 66.4 115.1h-265.8l66.5-115.1zM953.8 996.1l96.8 167.6H857l96.8-167.6zM589.9 881l66.4-115.1 41.4 71.8 25 43.3 66.4 115.1H523.4L589.9 881zm542.4 634.1c-53.2 18.8-110.9 29.1-171.1 29.1-63.8 0-124.6-11.5-180.3-32.4-176.1-66.1-300.4-226-300.4-412.9 0-20.9 1.6-41.4 4.6-61.6 19.8 100.1 102.1 186.1 218.5 238 74.5 33.2 162.8 52.4 257.6 52.4 91.4 0 176.8-17.9 249.6-48.9 120.6-51.5 206.4-139.2 226.6-241.5 3 20.1 4.6 40.7 4.6 61.6-.2 190-128.8 352.3-309.7 416.2z" id="Layer_9"/>
    <path class="st0" d="M1325.1 881l-66.4-115.1-41.5 71.8-25 43.3-66.4 115.1h265.8L1325.1 881zm-602.4 0l-25-43.3-41.4-71.8L589.9 881l-66.4 115.1h265.8L722.7 881zm231.1 115.1L857 1163.6h193.5l-96.7-167.5zm483.5 41.2c-20.2 102.4-105.9 190-226.6 241.5-72.8 31-158.2 48.9-249.6 48.9-94.8 0-183.1-19.2-257.6-52.4-116.4-51.9-198.8-137.9-218.5-238-3 20.1-4.6 40.7-4.6 61.6 0 186.9 124.2 346.8 300.4 412.9 55.7 20.9 116.6 32.4 180.3 32.4 60.3 0 118-10.3 171.1-29.1 181-63.9 309.6-226.2 309.6-416.2 0-20.9-1.5-41.5-4.5-61.6z" id="Layer_12"/>
    <path class="st0" d="M904.5 267.3V466c17.4-1.4 35.1-2.2 52.9-2.2 15.4 0 30.6.5 45.6 1.6V401c.1-61.3-39.9-115.5-98.5-133.7z" id="Layer_13"/>
    <g id="STROKES">
        <path class="st1" d="M1525.8 1036.7c0 349.8-252.5 614-564.6 616.1h-3.7 3.1c1 0 2-.1 3-.1h.1c.9 0 1.7-.1 2.6-.1.3 0 .5 0 .8-.1.8-.1 1.7-.1 2.5-.2h.5c2-.2 3.9-.4 5.9-.7.9-.1 1.7-.3 2.6-.4.3 0 .5-.1.8-.1.9-.1 1.8-.3 2.7-.5l3-.6c1-.2 1.9-.4 2.9-.7.1 0 .2 0 .3-.1.8-.2 1.5-.4 2.3-.6.2-.1.4-.1.6-.2.9-.2 1.9-.5 2.8-.8.1 0 .1 0 .2-.1.9-.3 1.9-.5 2.8-.9.1 0 .3-.1.4-.1.9-.3 1.8-.6 2.6-.9 1-.3 2-.7 3-1 1-.3 1.9-.7 2.9-1.1h.1c.9-.4 1.9-.7 2.8-1.1.2-.1.3-.1.5-.2.9-.4 1.7-.7 2.6-1.1 1.9-.8 3.8-1.7 5.8-2.7h.1c1-.5 1.9-1 2.9-1.5.7-.3 1.3-.7 2-1 .3-.2.7-.4 1-.5.9-.5 1.9-1 2.8-1.5 0 0 .1 0 .1-.1.9-.5 1.9-1.1 2.8-1.6 1-.6 1.9-1.1 2.9-1.7.1-.1.2-.1.3-.2.8-.5 1.6-1 2.3-1.5l.9-.6c.7-.5 1.4-.9 2.2-1.4 1.8-1.2 3.6-2.4 5.4-3.7.2-.1.3-.2.5-.4.8-.6 1.7-1.2 2.5-1.8 1-.8 2.1-1.6 3.2-2.4.8-.6 1.5-1.2 2.3-1.8 1.1-.8 2.1-1.7 3.1-2.6.8-.7 1.7-1.4 2.5-2.1 1.8-1.6 3.6-3.1 5.4-4.8 1.7-1.6 3.5-3.2 5.2-4.9.3-.3.6-.6.9-.8.7-.6 1.3-1.3 2-2l3-3c.8-.8 1.5-1.6 2.3-2.4.9-.9 1.8-1.8 2.6-2.8.9-.9 1.7-1.9 2.6-2.9l2.4-2.7.2-.2c.8-.9 1.6-1.8 2.3-2.7 1.1-1.3 2.2-2.6 3.3-4 .7-.8 1.3-1.6 2-2.4 1.7-2.1 3.5-4.3 5.2-6.6.8-1 1.6-2.1 2.4-3.1 1.8-2.4 3.6-4.8 5.3-7.2.6-.8 1.2-1.7 1.8-2.6.6-.9 1.3-1.8 1.9-2.8.4-.6.8-1.1 1.2-1.7 2.4-3.5 4.8-7.2 7.2-10.9.6-.9 1.1-1.8 1.7-2.7 1.5-2.4 3-4.9 4.5-7.4.4-.7.9-1.5 1.3-2.2 2.7-4.6 5.4-9.3 8-14.1 181-63.9 309.6-226.2 309.6-416.2 0-20.9-1.5-41.4-4.6-61.6-20.2 102.4-105.9 190-226.6 241.5.4-2.3.9-4.6 1.3-6.9.8-4.6 1.6-9.3 2.4-14 .4-2.3.8-4.7 1.1-7.1.7-4.7 1.5-9.3 2.2-14 0-.3.1-.6.1-.9.3-2 .6-4.1.9-6.2.1-.4.1-.8.2-1.3l.9-6.3c.3-2.4.6-4.7.9-7.1 0-.3.1-.6.1-.9.3-2.2.6-4.4.8-6.6.3-2.4.6-4.9.9-7.4.3-2.9.7-5.8 1-8.8.2-2 .4-4 .7-6 .3-3.2.7-6.5 1-9.8.2-1.8.4-3.6.5-5.3.5-5 .9-10.1 1.3-15.2.2-2.2.4-4.3.5-6.5.1-1.5.2-3 .3-4.4.1-1.4.2-2.9.3-4.3.2-2.6.4-5.1.5-7.7.2-2.6.3-5.2.5-7.8.2-2.6.3-5.2.5-7.8.1-2.4.2-4.7.4-7.1.1-2.6.3-5.3.4-8 .2-5.3.4-10.6.6-16 .1-2 .1-4.1.2-6.1.4-14.1.6-28.3.6-42.7v-10.3c0-2.8 0-5.6-.1-8.3v-.3c0-1.3 0-2.6-.1-3.9 0-2.6-.1-5.2-.1-7.7-.1-3.1-.1-6.2-.2-9.2v-.8h160.2L1325.1 881l-66.4-115.1-41.5 71.8c-.4-2.5-.8-5.1-1.2-7.6-.4-2.5-.8-5-1.2-7.4-.4-2.5-.9-5-1.3-7.5s-.9-4.9-1.4-7.4c-.5-2.5-.9-4.9-1.4-7.3v-.2c-.9-4.7-1.9-9.4-2.9-14-.1-.3-.1-.5-.2-.8-.5-2.2-.9-4.3-1.4-6.5-.5-2.3-1-4.5-1.5-6.7-.1-.4-.2-.9-.3-1.3-.5-2-.9-4-1.4-6-.4-1.8-.9-3.6-1.3-5.4-.7-3-1.5-6-2.2-8.9-.5-2.1-1.1-4.1-1.6-6.2-.5-2.1-1.1-4.2-1.7-6.3-.5-1.7-.9-3.4-1.4-5.1-.3-1-.6-2.1-.9-3.1-.5-1.8-1-3.5-1.5-5.3l-1.8-6c-.4-1.4-.9-2.8-1.3-4.3-.3-1-.6-2-.9-2.9-.2-.5-.3-1.1-.5-1.6-.5-1.5-.9-2.9-1.4-4.4-.5-1.4-.9-2.8-1.4-4.2l-.9-2.7c-.6-1.9-1.3-3.8-1.9-5.7-.5-1.6-1.1-3.1-1.6-4.7-1.2-3.6-2.5-7.1-3.8-10.6l-1.5-3.9c-.8-2.3-1.7-4.5-2.6-6.7-.5-1.2-.9-2.4-1.4-3.6-.6-1.5-1.2-3-1.8-4.6-.3-.8-.6-1.5-.9-2.3-.6-1.4-1.1-2.8-1.7-4.2-1.7-4-3.4-7.9-5.1-11.8l-1.5-3.3c-.3-.7-.7-1.4-1-2.1-.2-.5-.5-1.1-.7-1.6-.5-1-.9-2-1.4-3 0-.1-.1-.2-.1-.3-1-2-1.9-4-2.9-6-1.2-2.4-2.3-4.7-3.5-7 0-.1-.1-.1-.1-.2-.6-1.1-1.1-2.3-1.7-3.4l-3.6-6.9c-.6-1.1-1.2-2.3-1.8-3.4-.7-1.2-1.3-2.4-2-3.6-.6-1-1.1-2-1.7-3-.6-1.1-1.2-2.2-1.9-3.3-.6-1.1-1.2-2.2-1.9-3.2-.6-1.1-1.3-2.1-1.9-3.2-.6-1.1-1.3-2.1-1.9-3.1-3.2-5.2-6.5-10.3-9.8-15.2-.7-1-1.3-2-2-2.9-2.5-3.5-5-7-7.5-10.4-.4-.6-.9-1.2-1.4-1.8-3.1-4-6.2-8-9.3-11.7-.4-.5-.8-1-1.3-1.5-5.3-6.3-10.7-12.2-16.2-17.7-.5-.5-1-1-1.6-1.5l-1.1-1.1c-.6-.6-1.3-1.3-2-1.9-.8-.8-1.7-1.6-2.6-2.4-.8-.7-1.5-1.4-2.3-2.1-.3-.3-.7-.6-1-.9l-2.7-2.4c-.6-.5-1.1-1-1.7-1.4-2.8-2.4-5.6-4.7-8.5-6.9-18.5-14.3-38-24.7-58.3-30.9-14.8-4.6-30.1-6.9-45.6-6.9 15.4 0 30.6.5 45.6 1.6 89 6.2 172.2 30.6 244.9 70.9 166.4 91.8 277.9 267.5 277.9 499.9z"/>
        <path class="st1" d="M961.1 1544.1c60.3 0 118-10.3 171.1-29-2.6 4.8-5.3 9.5-8 14.1-.4.7-.9 1.5-1.3 2.2-1.5 2.5-3 5-4.5 7.4-.6.9-1.1 1.8-1.7 2.7-2.4 3.7-4.8 7.4-7.2 10.9-.4.6-.8 1.2-1.2 1.7-.6.9-1.3 1.9-1.9 2.8-.6.9-1.2 1.7-1.8 2.6-1.8 2.5-3.5 4.9-5.3 7.2-.8 1-1.6 2.1-2.4 3.1-1.7 2.2-3.5 4.4-5.2 6.6-.7.8-1.3 1.6-2 2.4-1.1 1.3-2.2 2.7-3.3 4-.8.9-1.5 1.8-2.3 2.7l-.2.2-2.4 2.7c-.9 1-1.7 1.9-2.6 2.9-.9 1-1.8 1.9-2.6 2.8-.8.8-1.5 1.6-2.3 2.4l-3 3-2 2c-.3.3-.6.5-.9.8-1.7 1.7-3.5 3.3-5.2 4.9l-5.4 4.8c-.8.7-1.7 1.4-2.5 2.1-1 .9-2.1 1.7-3.1 2.6-.8.6-1.5 1.2-2.3 1.8-1.1.8-2.1 1.6-3.2 2.4-.8.6-1.7 1.2-2.5 1.8-.2.1-.3.2-.5.4-1.8 1.3-3.6 2.5-5.4 3.7-.7.5-1.4 1-2.2 1.4l-.9.6c-.8.5-1.5 1-2.3 1.5-.1.1-.2.1-.3.2-1 .6-1.9 1.2-2.9 1.7-.9.5-1.9 1.1-2.8 1.6 0 0-.1 0-.1.1-.9.5-1.8 1-2.8 1.5-.3.2-.7.4-1 .5-.6.3-1.3.7-2 1-1 .5-1.9 1-2.9 1.5h-.1c-1.9.9-3.8 1.8-5.8 2.7-.9.4-1.7.8-2.6 1.1-.2.1-.3.1-.5.2-.9.4-1.9.8-2.8 1.1h-.1c-1 .4-1.9.7-2.9 1.1-1 .4-2 .7-3 1-.9.3-1.8.6-2.6.9-.1 0-.3.1-.4.1-.9.3-1.9.6-2.8.9-.1 0-.1 0-.2.1-.9.3-1.9.5-2.8.8-.2.1-.4.1-.6.2-.8.2-1.6.4-2.3.6-.1 0-.2.1-.3.1-1 .2-1.9.5-2.9.7l-3 .6c-.9.2-1.8.3-2.7.5-.3 0-.5.1-.8.1-.9.1-1.7.3-2.6.4-2 .3-3.9.5-5.9.7h-.5c-.8.1-1.7.2-2.5.2-.2 0-.5 0-.8.1-.9.1-1.7.1-2.6.1h-.1c-1 .1-2 .1-3 .1h-3.1c-67.3 0-128.9-52.2-176.6-141 55.6 20.8 116.5 32.3 180.2 32.3z"/>
        <path class="st1" d="M953.8 1652.7c-408.6-1.5-739.3-258.6-739.3-598.9 0-255.6 186.5-440.6 452.5-517.5-166.4 92.2-277.9 267.9-277.9 500.3 0 349.8 252.5 614.1 564.7 616.1z"/>
        <path class="st1" d="M1700.4 1053.8c0 340.3-330.6 597.4-739.3 598.9 312.2-2.1 564.6-266.3 564.6-616.1 0-232.4-111.5-408.1-277.8-500.3 266 76.9 452.5 261.9 452.5 517.5z"/>
        <path class="st1" d="M789.2 996.1H523.4L589.9 881l66.4-115.1 41.5 71.8 24.9 43.3z"/>
        <path class="st1" d="M953.8 996.1L857 1163.6h193.5l-96.7-167.5-96.8 167.5h193.5z"/>
        <path class="st1" d="M1441.8 1098.9c0 190.1-128.6 352.4-309.6 416.2-53.2 18.8-110.9 29-171.1 29-63.8 0-124.6-11.5-180.3-32.4-176.1-66.1-300.4-226-300.4-412.9 0-20.9 1.6-41.4 4.6-61.6 19.8 100.1 102.1 186.1 218.5 238 74.5 33.2 162.8 52.4 257.6 52.4 91.4 0 176.8-17.9 249.6-48.9 120.6-51.5 206.4-139.2 226.6-241.5 3 20.2 4.5 40.8 4.5 61.7z"/>
        <path class="st1" d="M1231.9 1036.7c0 14.4-.2 28.6-.6 42.7 0 2-.1 4.1-.2 6.1-.2 5.3-.4 10.7-.6 16-.1 2.7-.2 5.3-.4 8-.1 2.4-.2 4.7-.4 7.1-.1 2.6-.3 5.2-.5 7.8-.2 2.6-.3 5.2-.5 7.8-.2 2.6-.4 5.2-.5 7.7-.1 1.5-.2 2.9-.3 4.3-.1 1.5-.2 3-.3 4.4-.2 2.2-.3 4.4-.5 6.5-.4 5.1-.9 10.2-1.3 15.2-.2 1.8-.3 3.6-.5 5.3-.3 3.3-.6 6.5-1 9.8-.2 2-.4 4-.7 6-.3 2.9-.7 5.9-1 8.8-.3 2.5-.6 4.9-.9 7.4-.3 2.2-.6 4.4-.8 6.6 0 .3-.1.6-.1.9-.3 2.4-.6 4.7-.9 7.1l-.9 6.3c-.1.4-.1.8-.2 1.3-.3 2.1-.6 4.1-.9 6.2 0 .3-.1.6-.1.9-.7 4.7-1.4 9.4-2.2 14-.4 2.4-.8 4.7-1.1 7.1-.8 4.7-1.6 9.4-2.4 14-.4 2.3-.8 4.6-1.3 6.9-72.8 31-158.2 48.9-249.6 48.9-94.8 0-183.1-19.2-257.6-52.4-13.2-72.7-20.5-153.1-20.5-238.6 0-13.7.2-27.3.6-40.6h105.6L722.7 881l-25-43.3c25.7-162.4 82.9-279.6 155.8-336 16.2-12.6 33.3-22.1 50.9-28.5 17.1-6.2 34.8-9.3 52.9-9.3 15.5 0 30.8 2.3 45.6 6.9 20.3 6.2 39.8 16.6 58.3 30.9 2.9 2.2 5.7 4.5 8.5 6.9.6.5 1.1 1 1.7 1.4l2.7 2.4c.4.3.7.6 1 .9.8.7 1.5 1.4 2.3 2.1.9.8 1.7 1.6 2.6 2.4.7.6 1.3 1.2 2 1.9l1.1 1.1c.5.5 1 1 1.6 1.5 5.5 5.5 10.9 11.4 16.2 17.7.4.5.9 1 1.3 1.5 3.1 3.8 6.3 7.7 9.3 11.7.5.6.9 1.2 1.4 1.8 2.5 3.4 5 6.8 7.5 10.4.7 1 1.3 1.9 2 2.9 3.3 4.9 6.6 10 9.8 15.2.6 1 1.3 2.1 1.9 3.1.6 1.1 1.3 2.1 1.9 3.2.6 1.1 1.3 2.1 1.9 3.2.6 1.1 1.2 2.2 1.9 3.3.6 1 1.1 2 1.7 3 .7 1.2 1.3 2.4 2 3.6.6 1.1 1.2 2.2 1.8 3.4 1.2 2.3 2.4 4.5 3.6 6.9.6 1.1 1.1 2.2 1.7 3.4 0 .1.1.1.1.2 1.2 2.3 2.3 4.7 3.5 7 1 2 1.9 4 2.9 6 0 .1.1.2.1.3.5 1 .9 2 1.4 3 .2.5.5 1 .7 1.6.3.7.7 1.4 1 2.1l1.5 3.3c1.7 3.9 3.4 7.8 5.1 11.8.6 1.4 1.2 2.8 1.7 4.2.3.8.6 1.5.9 2.3.6 1.5 1.2 3 1.8 4.6.5 1.2 1 2.4 1.4 3.6.9 2.2 1.7 4.5 2.6 6.7l1.5 3.9c1.3 3.5 2.6 7.1 3.8 10.6.6 1.6 1.1 3.1 1.6 4.7.6 1.9 1.3 3.8 1.9 5.7l.9 2.7c.5 1.4.9 2.8 1.4 4.2.5 1.5.9 2.9 1.4 4.4.2.5.3 1.1.5 1.6.3 1 .6 1.9.9 2.9.4 1.4.9 2.8 1.3 4.3l1.8 6c.5 1.7 1 3.5 1.5 5.3.3 1 .6 2.1.9 3.1.5 1.7 1 3.4 1.4 5.1.6 2.1 1.1 4.2 1.7 6.3.6 2.1 1.1 4.1 1.6 6.2.8 3 1.5 5.9 2.2 8.9.4 1.8.9 3.6 1.3 5.4.5 2 .9 4 1.4 6 .1.4.2.9.3 1.3.5 2.2 1 4.5 1.5 6.7.5 2.1.9 4.3 1.4 6.5.1.3.1.5.2.8 1 4.6 1.9 9.3 2.9 14v.2c.5 2.4.9 4.9 1.4 7.3s.9 4.9 1.4 7.4c.5 2.5.9 5 1.3 7.5s.8 4.9 1.2 7.4c.4 2.5.8 5 1.2 7.6l-25 43.3-66.4 115.1h105.6v.8c.1 3.1.2 6.1.2 9.2.1 2.6.1 5.1.1 7.7 0 1.3 0 2.6.1 3.9v.3c0 2.8.1 5.5.1 8.3.1 3.9.1 7.3.1 10.8z"/>
        <path class="st1" d="M957.5 1652.7h-3.7c-312.2-2.1-564.7-266.3-564.7-616.1 0-232.4 111.5-408.1 277.9-500.3 70.7-39.2 151.3-63.3 237.5-70.3 17.4-1.4 35.1-2.1 52.9-2.1-18.1 0-35.8 3.2-52.9 9.3-17.6 6.4-34.7 15.9-50.9 28.5-72.9 56.4-130.2 173.6-155.8 336l-41.4-71.8L589.9 881l-66.4 115.1h160.2c-.4 13.3-.6 26.9-.6 40.6 0 85.5 7.3 165.9 20.5 238.6-116.4-51.9-198.8-137.9-218.5-238-3 20.1-4.6 40.7-4.6 61.6 0 186.9 124.2 346.8 300.4 412.9 47.7 88.7 109.3 140.9 176.6 140.9z"/>
        <path class="st1" d="M1003.1 401.1v64.3c-15-1.1-30.2-1.6-45.6-1.6-17.8 0-35.5.7-52.9 2.1V267.3c58.5 18.2 98.5 72.4 98.5 133.8z"/>
    </g>
</svg>
