<svg xmlns="http://www.w3.org/2000/svg" viewBox="0 0 1920 1920">
    <style>
        .st0{fill:#fff}.st1{fill:none;stroke:#231f20;stroke-width:50;stroke-linecap:round;stroke-linejoin:round;stroke-miterlimit:10}
    </style>
    <path class="st0" d="M1180.5 768.1c62.5-9.1 123.8-14.1 185.6-7.9l10.2 687.3c2.1 140.5-111.3 255.6-251.8 255.6H795.6c-140.3 0-253.5-114.6-251.8-254.9l8.2-686.4s84.5 27.1 187.6 41.9c57.8 8.3 121.4 12.8 179.2 6.4 92.1-10.2 178-29.8 261.7-42z" id="Layer_3"/>
    <g id="STROKES">
        <g id="XMLID_1_">
            <path class="st1" d="M1180.5 768.1c62.5-9.1 123.8-14.1 185.6-7.9l10.2 687.3c2.1 140.5-111.3 255.6-251.8 255.6H795.6c-140.3 0-253.5-114.6-251.8-254.9l8.2-686.4s84.5 27.1 187.6 41.9c57.8 8.3 121.4 12.8 179.2 6.4 92.1-10.2 178-29.8 261.7-42z"/>
            <path class="st1" d="M739.5 1034.3V801.4S736.3 217 958.4 217h3.2c222.1 0 218.8 548.9 218.8 548.9v269.9"/>
        </g>
    </g>
</svg>
