<svg xmlns="http://www.w3.org/2000/svg" viewBox="0 0 1920 1920">
    <style>
        .st0{fill:#fff}.st1{fill:none;stroke:#231f20;stroke-width:50;stroke-linecap:round;stroke-linejoin:round;stroke-miterlimit:10}
    </style>
    <g id="Layer_4">
        <path class="st0" d="M593.8 985.2c0 31 25.2 56.2 56.2 56.1 15.5 0 29.5-6.3 39.6-16.5 10.1-10.2 16.4-24.2 16.4-39.7V716.7h489.2v268.6c0 31 25.1 56.1 56 56.1h.1c31 0 56.1-25.1 56.1-56.1V716.7h114.3c48.4 0 89.3 35.8 95.7 83.7l121.6 902.7H280.8L399 800.7c6.3-48.1 47.3-84 95.8-84h99.1v268.5zm809.8 322.8l-99 28.8-88.1 193.4 147.9 67.3 88.1-193.4-48.9-96.1z"/>
        <path class="st0" d="M1307.6 887.6v97.6c0 31-25.1 56.1-56.1 56.1h-.1c-31-.1-56-25.2-56-56.1V578.9c0-67.5-27.4-128.7-71.7-173-44.3-44.3-105.4-71.6-173-71.6-135.1 0-244.6 109.5-244.6 244.6v406.4c0 15.5-6.3 29.5-16.4 39.7-10.1 10.2-24.1 16.4-39.6 16.5-31 .1-56.2-25.1-56.2-56.1V573.8c0-197.1 159.8-356.9 356.9-356.9 197.1 0 356.9 159.8 356.9 356.9v313.8z"/>
    </g>
    <path class="st0" d="M1403.6 1308l48.9 96.1-88.1 193.4-147.9-67.4 88.1-193.4z" id="Layer_5"/>
    <g id="STROKES">
        <g id="XMLID_1_">
            <path class="st1" d="M373.8 1082.1c139.1 139.1 327.7 217.2 524.4 217.2h121.2c146.8 0 289.1-43.5 409.7-123.4 41-27.2 79.5-58.5 114.8-93.8l2.3-2.3"/>
            <path class="st1" d="M593.8 716.7h-99.1c-48.5 0-89.5 36-95.8 84l-118.2 902.4h1358.5l-121.6-902.7c-6.5-47.9-47.4-83.7-95.7-83.7h-114.3"/>
            <path class="st1" d="M1195.3 716.7H706.1"/>
            <path class="st1" d="M1307.6 716.7V573.8c0-197.1-159.8-356.9-356.9-356.9-197.1 0-356.9 159.8-356.9 356.9v411.4c0 31 25.2 56.2 56.2 56.1 15.5 0 29.5-6.3 39.6-16.5 10.1-10.2 16.4-24.2 16.4-39.7V578.9c0-135.1 109.5-244.6 244.6-244.6 67.5 0 128.7 27.4 173 71.6 44.3 44.3 71.7 105.4 71.7 173v406.4c0 31 25.1 56.1 56 56.1h.1c31 0 56.1-25.1 56.1-56.1V716.7z"/>
            <path class="st1" d="M1025.6 1313.7v99c0 36.2-29.4 65.6-65.6 65.6-18.1 0-34.5-7.3-46.4-19.2-11.9-11.9-19.2-28.3-19.2-46.4v-99"/>
            <path class="st1" d="M1314.1 837.3s143.9 79 115 338.6c-4.4 39.2-12.7 82.4-26 130.2"/>
            <path class="st1" d="M1364.4 1597.5l-147.9-67.4 88.1-193.4 99-28.7 48.9 96.1z"/>
        </g>
    </g>
</svg>
