<svg xmlns="http://www.w3.org/2000/svg" viewBox="0 0 1920 1920">
    <style>
        .st0{fill:#fff}.st1{fill:none;stroke:#231f20;stroke-width:50;stroke-linecap:round;stroke-linejoin:round;stroke-miterlimit:10}
    </style>
    <path class="st0" d="M1086.4 1209.1c0 74.2 68 74.2 68 148.4s-68 74.2-68 148.4H639.9c0-74.2-68-74.2-68-148.4s68-74.2 68-148.4-68-74.2-68-148.4 68-74.2 68-148.4h446.5c0 74.2 68 74.2 68 148.4s-68 74.2-68 148.4z" id="Layer_11"/>
    <path class="st0" d="M1331.6 1060.7c0-74.2-68-74.2-68-148.4h-177.2c0 74.2 68 74.2 68 148.4s-68 74.2-68 148.4 68 74.2 68 148.4-68 74.2-68 148.4h177.2c0-74.2 68-74.2 68-148.4s-68-74.2-68-148.4 68-74.2 68-148.4z" id="Layer_13"/>
    <path class="st0" d="M1228.9 414.2h-3.7c-18.7 0-36.6 3-53.3 8.6-14.6-5.2-30.5-8.2-47.5-8.5h-3.7c-18.7 0-36.6 3-53.3 8.6-14.6-5.2-30.5-8.2-47.4-8.5h-3.7c-19.6 0-38.4 3.3-55.8 9.4-17.4-6.1-36.2-9.4-55.8-9.4H901c-17 .4-33 3.4-47.7 8.6-16.8-5.6-34.8-8.7-53.6-8.7H796c-17 .4-33 3.4-47.7 8.6-16.8-5.6-34.8-8.7-53.6-8.7H691c-109.8 2.3-176.3 116-122.2 206.5 12.8 21.3 27.2 47.2 40.1 74.3 20 42.1 31 87.2 31 123.1v94.3h634.9V818h.2c0-35.9 16.1-81 36.1-123.1 12.9-27.1 27.3-53 40.1-74.3 54-90.4-12.4-204.1-122.3-206.4zm-372 132.3c-.1 1-.3 2-.4 3l-.3 3-.3 3c.1-.9.1-1.8.2-2.6v-.1c0-.2 0-.4.1-.7.1-.7.1-1.4.2-2.1 0-.3.1-.6.1-.9.2-.9.3-1.8.4-2.6z" id="Layer_17"/>
    <g id="STROKES">
        <path class="st1" d="M639.9 818h634.9v94.3H639.9z"/>
        <path class="st1" d="M878.1 1250.3H762.2l64.9-210s-55.8-42.6-133.8-35.6"/>
        <path class="st1" d="M891.9 1019.6s94.1-37.9 156.1 6.9"/>
        <path class="st1" d="M1001.3 1103.4s-42.6-16-75.3 0c0 0 30.5 20.5 75.3 0z"/>
        <path class="st1" d="M795.6 1103.4s-42.6-16-75.3 0c0 0 30.5 20.5 75.3 0z"/>
        <path class="st1" d="M748.4 422.8c20.4 6.8 38.9 17.4 54.5 30.9 29.7 25.6 49.2 61.5 52.2 101.8.3 3.6.4 7.2.4 10.8 0-3.6.1-7.2.4-10.8 3-40.2 22.5-76.1 52.1-101.7-15.7-13.5-34.2-24.2-54.7-31-16.8-5.6-34.8-8.7-53.6-8.7H796c-17 .4-33 3.5-47.6 8.7z"/>
        <path class="st1" d="M853.4 422.8c20.4 6.8 39 17.5 54.7 31 15.1-13 32.9-23.4 52.5-30.3-17.4-6.1-36.2-9.4-55.8-9.4h-3.7c-17.1.4-33.1 3.5-47.7 8.7z"/>
        <path class="st1" d="M568.9 620.7c12.8 21.3 27.2 47.2 40.1 74.3 20 42.1 31 87.2 31 123.1h215.6V566.3c0-3.6-.1-7.2-.4-10.8-3-40.3-22.5-76.2-52.2-101.8-15.7-13.5-34.2-24.1-54.5-30.9-16.8-5.6-34.8-8.7-53.6-8.7h-3.7c-109.9 2.4-176.4 116.1-122.3 206.6z"/>
        <path class="st1" d="M855.5 566.3V818H1066c0-35.9 16.1-81 36.1-123.1 12.9-27.1 27.3-53 40.1-74.3 34.8-58.1 19.8-125.8-24.5-167.4-14-13.2-31-23.7-50.2-30.5-14.6-5.2-30.5-8.2-47.4-8.5h-3.7c-19.6 0-38.4 3.3-55.8 9.4-19.6 6.9-37.4 17.2-52.5 30.3-29.6 25.6-49.1 61.5-52.1 101.7-.3 3.4-.5 7-.5 10.7z"/>
        <path class="st1" d="M1066 818h104.5c0-35.9 16.1-81 36.1-123.1 12.9-27.1 27.3-53 40.1-74.3 45.8-76.5 5.3-169.6-74.8-198-14.6-5.2-30.5-8.2-47.4-8.5h-3.7c-18.7 0-36.6 3-53.3 8.6 19.2 6.8 36.2 17.4 50.2 30.5 44.3 41.6 59.3 109.3 24.5 167.4-12.8 21.3-27.2 47.2-40.1 74.3-20 42.1-36.1 87.2-36.1 123.1z"/>
        <path class="st1" d="M1170.5 818H1275c0-35.9 16.1-81 36.1-123.1 12.9-27.1 27.3-53 40.1-74.3 54.1-90.5-12.4-204.2-122.2-206.5h-3.7c-18.7 0-36.6 3-53.3 8.6 80 28.3 120.5 121.4 74.8 198-12.8 21.3-27.2 47.2-40.1 74.3-20.1 42-36.2 87.1-36.2 123z"/>
        <path class="st1" d="M960.8 818V625.1"/>
        <path class="st1" d="M748.4 818V625.1"/>
        <path class="st1" d="M639.9 912.3c0 74.2-68 74.2-68 148.4s68 74.2 68 148.4-68 74.2-68 148.4 68 74.2 68 148.4"/>
        <path class="st1" d="M1263.6 1505.9c0-74.2 68-74.2 68-148.4s-68-74.2-68-148.4 68-74.2 68-148.4-68-74.2-68-148.4"/>
        <path class="st1" d="M1177.6 1505.9c0-74.2 68-74.2 68-148.4s-68-74.2-68-148.4 68-74.2 68-148.4-68-74.2-68-148.4"/>
        <path class="st1" d="M1086.4 1505.9c0-74.2 68-74.2 68-148.4s-68-74.2-68-148.4 68-74.2 68-148.4-68-74.2-68-148.4"/>
        <path class="st1" d="M832 1368.7h59.9"/>
    </g>
</svg>
