<svg xmlns="http://www.w3.org/2000/svg" viewBox="0 0 1920 1920">
    <style>
        .st0{fill:#fff}.st1{fill:none;stroke:#231f20;stroke-width:50;stroke-linecap:round;stroke-linejoin:round;stroke-miterlimit:10}
    </style>
    <path class="st0" d="M1589.4 697c-83.4-55-73.4-115.3-243.9-123.2 2-6.2-20.1-254.8-42.1-308.8s-80-50-80-50-35 28.8-29 66.8c-8-8.5-16.3-15.5-25-20.8-92-56-126-54-126 32s40 218 94 248 81.3 118.8 81.3 118.8c-40 66.7-29.3 155.2-29.3 155.2s-284 14-408 114c-94.7 76.4-317.9 318.6-273.4 528.5-108-144-236.5-72.5-236.5-72.5 118 304 312 210 312 210l1.3-1.3c15.1 15 32.6 29.5 52.7 43.3l-16 66h550s-12-108-110-118c-89.4-9.1-135.5 36.7-208.2 40.2-8.8 1.9-16.2 2-21.8-.2 7.5.5 14.8.6 21.8.2 54.6-11.5 160.5-90.8 176.2-106.2 85.3-11.2 158.1-64.5 153.5-94.2l118.5 280.2h254c0-66-112-66-112-66-42-16-106-260-106-260 176-124 154-458 154-458s38-26 90-36 60-62 60-62 35.9-68-52.1-126zm-179-12c-1.7 0-3-1.3-3-3 0-1.6 1.3-3 3-3s3 1.4 3 3c0 1.7-1.4 3-3 3z" id="Layer_3"/>
    <g id="STROKES">
        <path class="st1" d="M853.1 1625.2c54.6-11.5 160.5-90.8 176.2-106.2"/>
        <path class="st1" d="M853.1 1625.2c-7 .4-14.2.3-21.8-.2 5.6 2.2 13 2.1 21.8.2z"/>
        <path class="st1" d="M1194.4 281.9c-8-8.5-16.3-15.5-25-20.8-92-56-126-54-126 32s40 218 94 248 81.3 118.8 81.3 118.8c-40 66.7-29.3 155.2-29.3 155.2s-284 14-408 114c-94.7 76.4-317.9 318.6-273.4 528.5 10.1 47.8 34.1 94 76.7 136.2 15.1 15 32.6 29.5 52.7 43.3l-16 66h550s-12-108-110-118c-89.4-9.1-135.5 36.7-208.2 40.2"/>
        <path class="st1" d="M647.4 1285c0-8 82.6-224.5 308-134 207.1 83.2 74 368 74 368 85.3-11.2 158.1-64.5 153.5-94.2l118.5 280.2h254c0-66-112-66-112-66-42-16-106-260-106-260 176-124 154-458 154-458s38-26 90-36 60-62 60-62 36-68-52-126c-83.4-55-73.4-115.3-243.9-123.2-9.5-.4-19.5-.7-30.1-.8 0 0-44.3-209.9-121-291.2"/>
        <path class="st1" d="M1413.4 682c0 1.7-1.3 3-3 3s-3-1.3-3-3 1.3-3 3-3c1.6 0 3 1.4 3 3z"/>
        <path class="st1" d="M1589.4 785s10 36 42 42"/>
        <path class="st1" d="M583.4 1595s-194 94-312-210c0 0 128.6-71.5 236.6 72.5"/>
        <path class="st1" d="M1527.4 841l32 36"/>
        <path class="st1" d="M1345.5 573.9c2-6.2-20.1-254.9-42.1-308.8-22-54-80-50-80-50s-35 28.8-29 66.8"/>
        <path class="st1" d="M1182.8 1424.8l-31.2-78.1"/>
    </g>
</svg>
