<svg xmlns="http://www.w3.org/2000/svg" viewBox="0 0 1920 1920">
    <style>
        .st0{fill:#fff}.st1{fill:none;stroke:#231f20;stroke-width:50;stroke-linecap:round;stroke-linejoin:round;stroke-miterlimit:10}
    </style>
    <path class="st0" d="M959.9 1514.8l69-77.4c13-14.6 8.7-37.5-8.6-46.5-26.6-13.8-68.8-24.6-119.7 1.4-17.4 8.9-21.6 31.9-8.6 46.5l67.8 76h.1zM795 1197.2c-16.2-38.8-39.8-58.3-61.7-67.9l-.3.7c-25.5 4.3-44.8 26.4-44.8 53.1 0 29.7 24.1 53.8 53.8 53.8 24.6 0 45.4-16.5 51.8-39.1l1.2-.6zm391-67.9c-21.8 9.6-45.5 29.1-61.7 67.9l1.2.5c6.4 22.6 27.1 39.1 51.8 39.1 29.7 0 53.8-24.1 53.8-53.8 0-26.7-19.4-48.8-44.8-53.1l-.3-.6zm-472.6 526.5c-146.4-12.7-206.1-67.6-224.3-130.2-18-62.2 4.9-132 24.7-175.6 11.9-26.2 22.6-43 22.6-43-20.2-96 136.2-295.6 98.6-300.8-69.3-9.5-122.7-181.1-166.8-308.2-50-144-17.7-475.2-17.7-475.2s139 78.4 222.4 174.4 131.4 481.2 131.4 481.2 75.8-27.8 136.5-27.8h37.9c60.7 0 136.5 27.8 136.5 27.8s48-385.1 131.4-481.2C1330 301.1 1469 222.8 1469 222.8s16.2 326.6-17.7 475.2c-30.5 133.7-119.6 290.7-166.8 308.2-35.6 13.2 118.8 204.7 98.6 300.8 0 0 10.8 16.9 22.8 43.4 19.7 43.6 42.5 113.2 24.6 175.2-18.1 62.7-77.8 117.6-224.3 130.3 0 0-32.8 45.5-250.2 45.5-217.3-.1-242.6-45.6-242.6-45.6z" id="Layer_4"/>
    <path class="st0" d="M1020.3 1391c17.3 9 21.6 31.9 8.6 46.5l-69 77.4h-.1l-67.8-76c-13-14.6-8.8-37.6 8.6-46.5 51-26.1 93.2-15.2 119.7-1.4z" id="Layer_5"/>
    <path class="st0" d="M1124.3 1197.2c16.2-38.8 39.8-58.3 61.7-67.9l.3.7c25.4 4.3 44.8 26.4 44.8 53.1 0 29.7-24.1 53.8-53.8 53.8-24.6 0-45.4-16.5-51.8-39.1l-1.2-.6zM733.1 1130c-25.5 4.3-44.8 26.4-44.8 53.1 0 29.7 24.1 53.8 53.8 53.8 24.6 0 45.4-16.5 51.8-39.1l1.2-.5c-16.2-38.8-39.8-58.3-61.7-67.9l-.3.6z" id="Layer_6"/>
    <g id="STROKES">
        <path class="st1" d="M959.9 1514.8l69-77.4c13-14.6 8.7-37.5-8.6-46.5-26.6-13.8-68.8-24.6-119.7 1.4-17.4 8.9-21.6 31.9-8.6 46.5l67.8 76v23.8"/>
        <path class="st1" d="M677.7 1121.5s26.2-5.1 55.7 7.8c21.8 9.6 45.5 29.1 61.7 67.9 6.1 14.7 11.2 32.2 14.7 52.9"/>
        <path class="st1" d="M793.8 1197.7c-6.4 22.6-27.1 39.1-51.8 39.1-29.7 0-53.8-24.1-53.8-53.8 0-26.7 19.4-48.8 44.8-53.1"/>
        <path class="st1" d="M1430.6 1525.5c-18.1 62.7-77.8 117.6-224.3 130.3 0 0-32.8 45.5-250.2 45.5-217.4 0-242.7-45.5-242.7-45.5-146.4-12.7-206.1-67.6-224.3-130.2-18-62.2 4.9-132 24.7-175.6 11.9-26.2 22.6-43 22.6-43-20.2-96 136.2-295.6 98.6-300.8-69.3-9.5-122.7-181.1-166.8-308.2-50-144-17.7-475.2-17.7-475.2s139 78.4 222.4 174.4 131.4 481.2 131.4 481.2 75.8-27.8 136.5-27.8h37.9c60.7 0 136.5 27.8 136.5 27.8s48-385.1 131.4-481.2C1330 301.1 1469 222.8 1469 222.8s16.2 326.6-17.7 475.2c-30.5 133.7-119.6 290.7-166.8 308.2-35.6 13.2 118.8 204.7 98.6 300.8 0 0 10.8 16.9 22.8 43.4 19.8 43.6 42.6 113.1 24.7 175.1z"/>
        <path class="st1" d="M764.2 1534.7c-11.6 69.9 183.7 121.7 195.4 5 0-.4.1-.7.1-1.1"/>
        <path class="st1" d="M1241.7 1121.5s-26.2-5.1-55.7 7.8c-21.8 9.6-45.5 29.1-61.7 67.9-6.1 14.7-11.2 32.2-14.7 52.9"/>
        <path class="st1" d="M1125.6 1197.7c6.4 22.6 27.1 39.1 51.8 39.1 29.7 0 53.8-24.1 53.8-53.8 0-26.7-19.4-48.8-44.8-53.1"/>
        <path class="st1" d="M1155.1 1534.7c11.7 69.9-183.7 121.7-195.4 5 0-.4-.1-.7-.1-1.1"/>
        <path class="st1" d="M1267.5 1403.6l138.5-53.3 282.1-108.6"/>
        <path class="st1" d="M1269.5 1502.4c2.4 0 75.6 10.6 161.1 23.1 123.2 18 272.1 40.1 272.1 40.1"/>
        <path class="st1" d="M653.4 1403.6l-139.5-53.7-281.1-108.2"/>
        <path class="st1" d="M651.4 1502.4c-2.4 0-76.2 10.6-162.3 23.2-123.7 18-273 40-273 40"/>
        <path class="st1" d="M1076.5 1078.3s28.6-69.9 114.3-61.9"/>
        <path class="st1" d="M842 1078.3s-28.6-69.9-114.3-61.9"/>
        <path class="st1" d="M1218.2 884.6s60.3-461.9 115.9-561.9"/>
        <path class="st1" d="M707.1 884.6s-60.3-461.9-115.9-561.9"/>
    </g>
</svg>
