<svg xmlns="http://www.w3.org/2000/svg" viewBox="0 0 1920 1920">
    <style>
        .st0{fill:#fff}.st1{fill:none;stroke:#231f20;stroke-width:50;stroke-linecap:round;stroke-linejoin:round;stroke-miterlimit:10}
    </style>
    <g id="Layer_6">
        <path class="st0" d="M957.2 1123.2c62.1-62.2-12.4-205.1-12.4-205.1s-130.5 40.4-198.9 34.2c-68.4-6.2-149.2-121.2-214.4-87-65.2 34.2-132.1 109.2-132.1 109.2-2.7-92.5 2-195.2 73.1-252.1 94.6-75.8 179-187 305.4-276.4 49.5-35 105.6-66.7 171.2-91.6 19.6-7.5 40.1-14.3 61.5-20.4 40.2-40.5 90.5-71.9 148.6-68.4 27.3 1.6 50.6 10.9 69.9 25.3 1.8-.2 219.2-19.4 256.4-78.2 0 0-3.1 205.1-40.4 226.8 0 0 183.3-34.2 205.1-80.8-.4 2.1-25.1 139.9-59 155.3 0 0 87 46.6 108.8 130.5l3.2 1058.4h-585c68.4-298.3-36.7-400.4-36.7-400.4-110.8 18.7-281.3 67.9-372.7 134.4-102.5 74.6-164.7 40.4-198.9 34.2-29.8-5.4-120.9 5.7-174.7 10.7 43.5-80.8-33.5-190.9-33.5-190.9l-.6-.4c35.5-51.7 73.1-109 90.7-145.7 3.6-7.5 6.1-16.5 7.7-26.8 0 0 104.1 107.6 206.7 144.9 102.4 37.4 288.9-77.5 351-139.7z"/>
        <path class="st0" d="M944.8 918.1s74.6 142.9 12.4 205.1c-62.1 62.2-248.6 177.1-351.1 139.8-102.5-37.3-206.7-144.9-206.7-144.9 5.9-36.2 1.6-88.1 0-143.7 0 0 66.8-75 132.1-109.2s146 80.8 214.4 87c68.4 6.3 198.9-34.1 198.9-34.1zm-330 103.2c0-32.3-26.2-58.5-58.5-58.5s-58.5 26.2-58.5 58.5 26.2 58.5 58.5 58.5 58.5-26.2 58.5-58.5z"/>
    </g>
    <path class="st0" d="M556.3 962.8c32.3 0 58.5 26.2 58.5 58.5s-26.2 58.5-58.5 58.5-58.5-26.2-58.5-58.5 26.2-58.5 58.5-58.5z" id="Layer_7"/>
    <path class="st0" d="M301.5 1291s77 110.1 33.5 190.9c-7.9.7-15.1 1.3-21.1 1.7-46.6 3.1-93.2-77.7-93.2-77.7 3.3-6.6 40.4-57.4 80.2-115.4l.6.5z" id="Layer_2"/>
    <path class="st0" d="M777 444.7c0-9.3 34.2-207.1 77.7-207.1s94 115.6 94 115.6" id="Layer_8"/>
    <g id="STROKES">
        <path class="st1" d="M220.8 1406c3.3-6.6 40.4-57.4 80.2-115.4 35.5-51.7 73.1-109 90.7-145.7 3.6-7.5 6.1-16.5 7.7-26.8 5.9-36.2 1.6-88.1 0-143.7-2.7-92.5 2-195.2 73.1-252.1 94.6-75.8 179-187 305.4-276.4 49.5-35 105.6-66.7 171.2-91.6 19.6-7.5 40.1-14.3 61.5-20.4"/>
        <path class="st1" d="M220.8 1406s46.6 80.8 93.2 77.7c6-.4 13.1-1 21.1-1.7 53.8-5 144.9-16.1 174.7-10.7 34.2 6.2 96.3 40.4 198.9-34.2 91.4-66.5 261.9-115.7 372.7-134.4 13.5-2.3 26-4.1 37.5-5.4 105.7-12.4 226.8-202 226.8-202"/>
        <path class="st1" d="M1650.2 358.8c-21.8 46.6-205.1 80.8-205.1 80.8 37.3-21.8 40.4-226.8 40.4-226.8-37.1 58.8-254.6 78-256.4 78.2"/>
        <path class="st1" d="M1699.9 644.7c-21.8-83.9-108.8-130.5-108.8-130.5 33.9-15.4 58.7-153.2 59-155.3"/>
        <path class="st1" d="M1081.3 1302.7s105.1 102.1 36.7 400.4"/>
        <path class="st1" d="M399.4 974.5s66.8-75 132.1-109.2 146 80.8 214.4 87c68.4 6.2 198.9-34.2 198.9-34.2s74.6 142.9 12.4 205.1c-62.1 62.2-248.6 177.1-351.1 139.8-102.5-37.3-206.7-144.9-206.7-144.9"/>
        <path class="st1" d="M301.5 1291s77 110.1 33.5 190.9"/>
        <path class="st1" d="M543.9 1468.2l83.9-87"/>
        <path class="st1" d="M777 444.7c0-9.3 34.2-207.1 77.7-207.1s94 115.6 94 115.6"/>
        <path class="st1" d="M904.4 495.5s39-93.7 106.2-161.6c40.2-40.5 90.5-71.9 148.6-68.4 27.3 1.6 50.6 10.9 69.9 25.3 90.4 67.8 92.8 250.8 10.9 307.2-51.2 35.2-105.7 83.9-105.7 83.9"/>
        <path class="st1" d="M562.6 763.3c42.6-22.3 91.9 19 140 52.1"/>
        <path class="st1" d="M614.8 1021.3c0 32.3-26.2 58.5-58.5 58.5s-58.5-26.2-58.5-58.5 26.2-58.5 58.5-58.5 58.5 26.2 58.5 58.5z"/>
        <path class="st1" d="M1022.8 563.8s39-231 159-282"/>
    </g>
</svg>
