<svg xmlns="http://www.w3.org/2000/svg" viewBox="0 0 1920 1920">
    <style>
        .st0{fill:#fff}.st1{fill:none;stroke:#231f20;stroke-width:50;stroke-linecap:round;stroke-linejoin:round;stroke-miterlimit:10}
    </style>
    <path class="st0" d="M1475.5 1171.6s31.5-201-10.5-382.5c-42-181.4-337.9-319.4-347.1-319.5-3.7-25.8-13.7-51.9-32.4-76.5 0 0 96-73.5 60-172.5 0 0-72.9 5.3-118.5 38-49.5-55.5-303-55.5-352.5 0l-1.3.5C627.7 226 554 220.6 554 220.6c-36 99 60 172.5 60 172.5-46.6 61.4-39 131.8-15 184.1.7 1.5 1.4 3.1 2.2 4.6 0 0-184.1 157.2-88.6 484.8 14.9 51.2 43.8 97.9 77.1 139.1 0 0-65.1 55.9-9.6 151.9 55.5 96 90 117 90 117s-87 31.5-70.5 88.5 91.5 1.5 105-7.5c13.4-8.9 89.4-63.6 90.6-64.5 7 36.4 18.6 69.4 43.6 76.6 18.8-13.8 38.9-26.1 56.3-35.3v.8s121.5 42 72 163.5l.2 1c37.9-8.5 78.1-22.1 118.8-39 49.5-121.5-84.8-171.6-84.8-171.6 4.5-1.9 9.1-3.8 13.8-5.8 30-12.6 64.4-27.3 100-42.9l.5 1.2s128.2 45.7 78.7 167.2c38.9-20.8 76.6-43.3 111.4-65.8l-1.4-2.2c28.5-100.5-74.9-151.7-74.9-151.7 35.9-16.6 69.4-32.7 96.9-47 0 0 102.6 43.9 71.1 136.9 33-25 59.5-47.8 76.6-65.4 90-93 1.5-240 1.5-240zM681.7 441.8c35.8-49.6 145.3 27.3 162.9 40.2 1.6 1.2 3.5 1.8 5.5 1.8 1.9 0 3.8-.6 5.3-1.7 17.9-12.6 132.7-90.1 168.6-40.3 39 54 36 204-39 192-36.1-5.8-68.2-17-91.8-26.8-23.6-9.8-38.6-18.2-40.3-18.2-3.4 0-60 33.5-132.1 45-75.1 12-78.1-138-39.1-192z" id="Layer_9"/>
    <g id="Layer_10">
        <path class="st0" d="M1326.2 1340.1s102.6 43.9 71.1 136.9c-26.8 20.3-57.9 42.2-91.7 64l-1.4-2.2c28.5-100.5-74.9-151.7-74.9-151.7 35.9-16.6 69.4-32.7 96.9-47z"/>
        <path class="st0" d="M1001.2 1487c4.5-1.9 9.1-3.8 13.8-5.8 30-12.6 64.4-27.3 100-42.9l.5 1.2s128.2 45.7 78.7 167.2c-35.6 19-72.1 36.7-108.2 51.8 49.4-121.4-84.8-171.5-84.8-171.5z"/>
        <path class="st0" d="M946 528.9c1.2 0 2.2-1 2.2-2.2 0-1.2-1-2.2-2.2-2.2s-2.2 1-2.2 2.2c0 1.2 1 2.2 2.2 2.2zm-188 0c1.2 0 2.2-1 2.2-2.2 0-1.2-1-2.2-2.2-2.2-1.2 0-2.2 1-2.2 2.2 0 1.2 1 2.2 2.2 2.2zm97.4-46.8c17.9-12.6 132.7-90.1 168.7-40.3 39 54 36 204-39 192-36.1-5.8-68.2-17-91.8-26.8-23.6-9.8-38.6-18.2-40.3-18.2-3.4 0-60 33.5-132.1 45-75 12-78-138-39-192 35.8-49.6 145.3 27.3 162.9 40.2 1.6 1.2 3.5 1.8 5.5 1.8 1.7 0 3.5-.6 5.1-1.7z"/>
        <path class="st0" d="M895 1533.1s121.5 42 72 163.5l.2 1c-43 9.6-82.9 12.6-117.2 6.5-126.3-22.6-76.2-88.7-11.3-136.4 18.8-13.8 38.9-26.1 56.3-35.3v.7z"/>
    </g>
    <g id="STROKES">
        <g id="XMLID_1_">
            <path class="st1" d="M895 1533.1s121.5 42 72 163.5"/>
            <path class="st1" d="M1001.2 1487s134.3 50.1 84.8 171.6"/>
            <path class="st1" d="M1115.5 1439.6s128.2 45.7 78.7 167.2"/>
            <path class="st1" d="M1326.2 1340.1s102.6 43.9 71.1 136.9"/>
            <path class="st1" d="M1229.3 1387.1s103.4 51.2 74.9 151.7"/>
            <path class="st1" d="M601.1 581.8S417 739 512.5 1066.6c14.9 51.2 43.8 97.9 77.1 139.1 76 94 175.4 159.4 186.9 183.3 8.6 18.1 10.9 62 18.6 102 7 36.4 18.6 69.4 43.6 76.6"/>
            <path class="st1" d="M1117.9 469.6c9.2.1 305.1 138.1 347.1 319.5 42 181.5 10.5 382.5 10.5 382.5s88.5 147-1.5 240c-17.1 17.7-43.6 40.4-76.6 65.4-26.8 20.3-57.9 42.2-91.7 64-34.8 22.5-72.5 45-111.4 65.8-35.6 19-72.1 36.7-108.2 51.8-40.6 16.9-80.9 30.5-118.8 39-43 9.6-82.9 12.6-117.2 6.5-126.3-22.6-76.2-88.7-11.3-136.4 18.8-13.8 38.9-26.1 56.3-35.3 10.2-5.4 19.5-9.8 27-12.8 14-5.5 42.6-17.2 79.2-32.6 4.5-1.9 9.1-3.8 13.8-5.8 30-12.6 64.4-27.3 100-42.9 38-16.6 77.5-34.2 114.3-51.2 35.9-16.6 69.4-32.7 96.9-47 36.4-18.9 62.4-34.6 69.7-44"/>
            <path class="st1" d="M730 994.6s87 129 87 213 39 174 55.5 184.5c15.8 10 22 129.7 22.5 140.2v.8"/>
            <path class="st1" d="M1015 1481.2s6-149.1 18-174.6 217.5-318 205.5-405-52.5-175.5-52.5-175.5"/>
            <path class="st1" d="M967 995.8c-6 3-87 153.3-78 220.8s7.5 171-6 198"/>
            <path class="st1" d="M589.6 1205.7s-65.1 55.9-9.6 151.8c55.5 96 90 117 90 117s-87 31.5-70.5 88.5 91.5 1.5 105-7.5c13.4-8.9 89.4-63.6 90.6-64.5"/>
            <path class="st1" d="M851.5 757.9c42 0 103.5-102.3 114-114.3 0 0 48.6 10.8 87.2-8.7 11.3-5.7 21.7-13.9 29.8-25.8 6.3-9.2 12.3-19.5 17.5-30.7 14.7-31.6 23.5-69.8 17.9-108.8-3.7-25.8-13.7-51.9-32.4-76.5 0 0 96-73.5 60-172.5 0 0-72.9 5.3-118.5 38-8.8 6.3-16.5 13.6-22.5 22"/>
            <circle class="st1" cx="946" cy="526.7" r="2.2"/>
            <path class="st1" d="M851.5 757.9c-42 0-107-102.3-117.5-114.3 0 0-46.6 10.4-84.8-7.5-12.2-5.7-23.5-14.3-32.2-27-5.7-8.3-11-17.4-15.8-27.3-.7-1.5-1.5-3-2.2-4.6-24-52.3-31.6-122.7 15-184.1 0 0-96-73.5-60-172.5 0 0 73.7 5.3 119.2 38.5 8.4 6.1 15.9 13.2 21.8 21.4"/>
            <path class="st1" d="M674.5 258.6c49.5-55.5 303-55.5 352.5 0"/>
            <path class="st1" d="M760.3 526.7c0-1.2-1-2.2-2.2-2.2-1.2 0-2.2 1-2.2 2.2 0 1.2 1 2.2 2.2 2.2 1.1 0 2.2-1 2.2-2.2z"/>
            <path class="st1" d="M811 710.7s32-53.8 80.7-1.2"/>
            <path class="st1" d="M1387.1 992.8s-45-119.5-150-39"/>
            <path class="st1" d="M551 246s73 32 90 81"/>
            <path class="st1" d="M1143.5 246s-73 32-90 81"/>
            <path class="st1" d="M670.5 628.6s-9 1.6-21.3 7.5c-24.7 11.7-62.4 40.4-65.3 106.7"/>
            <path class="st1" d="M671.5 618.1s-26.6-32.6-72.5-40.9c-40.5-7.4-96 4.2-161.5 73.9"/>
            <path class="st1" d="M1034 628.6s7.8 1.4 18.7 6.3c24.5 10.9 64.8 39.2 67.9 107.9"/>
            <path class="st1" d="M1033 618.1s24.5-30 67-39.7c40.9-9.4 98.6-.1 167 72.7"/>
            <path class="st1" d="M1024 441.8c-35.9-49.7-150.7 27.8-168.7 40.3-1.6 1.1-3.4 1.7-5.3 1.7-2 0-3.9-.6-5.5-1.8-17.6-12.9-127-89.8-162.9-40.2-39 54-36 204 39 192 72.1-11.5 128.7-45 132.1-45 1.7 0 16.7 8.4 40.3 18.2 23.6 9.8 55.8 21.1 91.8 26.8 75.2 12 78.2-138 39.2-192z"/>
        </g>
    </g>
</svg>
