<svg xmlns="http://www.w3.org/2000/svg" viewBox="0 0 1920 1920">
    <style>
        .st0{fill:#fff}.st1{fill:none;stroke:#231f20;stroke-width:50;stroke-linecap:round;stroke-linejoin:round;stroke-miterlimit:10}
    </style>
    <g id="Layer_3">
        <path class="st0" d="M1329 955c-8-70 95.9-106.1 95.9-106.1-20.1-30.1-39.1-56.5-55.9-73.9-60-62-154-148-346-178s-306 76-366 114c-39.6 25-89.5 29.2-148.8 40.6-4.7.9-9.5 1.9-14.4 2.9-26.5 5.6-54.8 12.9-84.8 24.5-63.1 24.3-98.2 97.1-116.1 155.5 0 0 56.1-27.5 88.1.5s64 28 64 28-38 82-84 80c-43.3-1.9-83.1-16.2-87.6-17.8-12.1 24.3-50.4 59.8-50.4 59.8 24 50.7 48 20 68 32s50 2 66-8 144-120 168-102c4.3 3.2 14 7.4 27.2 12.2 0 0-57.2 251.8-117.2 255.8s-82 50-82 50h134s80-74 114-92 143.3-151.3 143.3-151.3c16.5 6.2 30.1 12.1 38.7 17.3 46 28 36 168 36 168-48 0-60 54-60 54h126c6 0 36-54 36-54l2-216s20.2-10.6 56.7-14.5c1.7 2 149.3 174.7 143.3 198.5-6 24-56 44-56 44s-56 8-56 34c0 0 134 8 134 0s102.1-154.4 102.1-154.4c20.7 13.5 33.9 22.4 33.9 22.4l-24 78c-28 4-20 44-20 44h100l36-172-60-88c22-24 16-88 16-88z"/>
        <path class="st0" d="M1696.3 1151.6c-13-14.7-49.5-40.8-81.6-63.9 0 0-76.4 23.1-68.4 93.1 8.3 5.8 15.9 10.6 22.8 14.2 33.7 17.8 84.6 15.8 110 10 24-5.6 33.6-34.8 17.2-53.4z"/>
        <path class="st0" d="M1485.1 941.6c-1.2.4-96.4 32.1-88.4 101.7 20.7 22.7 44.1 46.5 67.5 68.6l.9-.9c-8-70 74-92.3 74-92.3-17.5-22.2-35.8-49.1-54-77.1z"/>
    </g>
    <path class="st0" d="M381 935c32 28 64 28 64 28s-38 82-84 80c-43.3-1.9-83.1-16.2-87.6-17.8 2.2-4.6 3.6-8.7 3.6-12.2 0-8.7 4.3-40.5 15.9-78.5 0 0 56.1-27.5 88.1.5z" id="Layer_4"/>
    <path class="st0" d="M1581 1063c9.5 7.2 21.2 15.8 33.7 24.7 0 0-76.4 23.1-68.4 93.1-24-16.7-53.1-41.5-82.1-68.9l.9-.9c-8-70 74-92.3 74-92.3 14.6 18.8 28.8 34.3 41.9 44.3zm-252-108c8.9 19.3 35 52.5 67.7 88.3-8-69.5 87.2-101.3 88.4-101.7-20.3-31.2-40.7-63.7-60.2-92.8 0 .1-103.9 36.2-95.9 106.2z" id="Layer_5"/>
    <g id="STROKES">
        <path class="st1" d="M1485.1 941.7c18.3 28 36.5 54.8 53.9 77 14.7 18.8 28.9 34.3 42 44.3 9.5 7.2 21.2 15.8 33.7 24.7 32.1 23.2 68.6 49.2 81.6 63.9 16.4 18.5 6.8 47.8-17.3 53.4-25.4 5.8-76.3 7.8-110-10-6.8-3.6-14.5-8.4-22.8-14.2-24-16.7-53.1-41.5-82.1-68.9-23.4-22.1-46.8-45.9-67.5-68.6-32.7-35.9-58.7-69-67.7-88.3 0 0 6 64-16 88l60 88-36 172h-100s-8-40 20-44l24-78s-13.2-9-33.9-22.4c-62.6-40.8-194-123-236.1-123.6-11.5-.2-21.9.4-31.3 1.5-36.4 4-56.7 14.5-56.7 14.5l-2 216s-30 54-36 54h-126s12-54 60-54c0 0 10-140-36-168-8.6-5.2-22.2-11.1-38.7-17.3-55.9-20.9-145.8-45.7-192.1-62.5-13.2-4.8-22.9-9-27.2-12.2-24-18-152 92-168 102s-46 20-66 8-44 18.7-68-32c0 0 38.4-35.5 50.4-59.8 2.2-4.6 3.6-8.7 3.6-12.2 0-8.7 4.3-40.5 15.9-78.5 17.9-58.5 53-131.3 116.1-155.5 30-11.5 58.3-18.9 84.8-24.5 4.9-1 9.7-2 14.4-2.9C567.5 740.2 617.4 736 657 711c60-38 174-144 366-114s286 116 346 178c16.8 17.4 35.8 43.8 55.9 73.9 19.4 29.1 39.8 61.6 60.2 92.8"/>
        <path class="st1" d="M744.3 1081.7S635 1215 601 1233s-114 92-114 92H353s22-46 82-50 117.2-255.8 117.2-255.8"/>
        <path class="st1" d="M979.7 1036.4s0 .1 0 0c1.7 2 149.3 174.7 143.3 198.6-6 24-56 44-56 44s-56 8-56 34c0 0 134 8 134 0s102.1-154.4 102.1-154.4"/>
        <path class="st1" d="M479 899s78-30 52-120c-5.3-18.4-13.4-26.3-22.8-27.3-4.5-.5-9.4.6-14.4 2.9C457.9 771 413 849 413 849"/>
        <path class="st1" d="M292.9 934.5S349 907 381 935s64 28 64 28-38 82-84 80c-43.3-1.9-83.1-16.2-87.6-17.8-.3-.1-.4-.2-.4-.2"/>
        <path class="st1" d="M1614.7 1087.7s-76.4 23.1-68.4 93.1"/>
        <path class="st1" d="M1539 1018.7s-82 22.3-74 92.3"/>
        <path class="st1" d="M1485.1 941.7c-1.2.4-96.4 32.1-88.4 101.7"/>
        <path class="st1" d="M1424.9 848.9S1321 885 1329 955"/>
        <path class="st1" d="M369 793l10-38"/>
    </g>
</svg>
