<svg xmlns="http://www.w3.org/2000/svg" viewBox="0 0 1920 1920">
    <style>
        .st0{fill:#fff}.st1{fill:none;stroke:#231f20;stroke-width:50;stroke-linecap:round;stroke-linejoin:round;stroke-miterlimit:10}
    </style>
    <path class="st0" d="M1186.8 992.8c0 17.8-3.5 38-9.1 58.8v321.8H1107v106.1h70.7v170.7h-427v-170.7H813v-106.1h-70.7v-321.8c-5.5-20.8-9-40.9-9-58.8 0-41.7 9.6-57.8 27.6-69.8-2.4-14.6-3.1-27.4-2.1-38.9 2.9-34.8 20.9-58.2 51.6-86.7 34-31.5 74-125.3 98.2-188 2.7-28.4 4.8-57.1 6.5-85.1h-49.3v-72.6h53c1.8-44.4 2.4-83.5 2.4-111.9 0-3.9 0-7.7.1-11.4H744v-91h192c11-23 24-20.3 24-20.3s13-2.6 24 20.3h192v91H998.9c.1 3.7.1 7.5.1 11.4 0 28.4.7 67.6 2.4 111.9h53v72.6h-49.3c1.7 27.9 3.9 56.6 6.5 85.1 24.2 62.7 64.2 156.6 98.2 188 30.7 28.5 48.7 51.8 51.6 86.7 1 11.5.3 24.3-2.1 38.9 18 12 27.5 28.1 27.5 69.8z" id="Layer_7"/>
    <path class="st0" d="M760.6 388.7h-54.9c-16.5 0-29.8 13.3-29.8 29.8v139c0 16.5 13.4 29.8 29.8 29.8h54.9c16.5 0 29.8-13.4 29.8-29.8v-139c0-16.5-13.3-29.8-29.8-29.8zm.9 991.4h-56.7c-16 0-28.9 12.9-28.9 28.9v140.8c0 15.9 12.9 28.9 28.9 28.9h45.9v-99.3h39.7V1409c0-15.9-12.9-28.9-28.9-28.9zm452.8-991.4h-54.9c-16.5 0-29.8 13.3-29.8 29.8v139c0 16.5 13.4 29.8 29.8 29.8h54.9c16.5 0 29.8-13.4 29.8-29.8v-139c0-16.5-13.4-29.8-29.8-29.8zm.9 991.4h-56.7c-16 0-28.9 12.9-28.9 28.9v70.4h48.2v99.3h37.4c16 0 28.9-12.9 28.9-28.9V1409c0-15.9-12.9-28.9-28.9-28.9z" id="Layer_8"/>
    <g id="STROKES">
        <path class="st1" d="M760.6 587.3h-54.9c-16.5 0-29.8-13.4-29.8-29.8v-139c0-16.5 13.4-29.8 29.8-29.8h54.9c16.5 0 29.8 13.4 29.8 29.8v139c0 16.5-13.3 29.8-29.8 29.8z"/>
        <path class="st1" d="M790.4 1409v70.4h-39.7v99.3h-45.9c-16 0-28.9-12.9-28.9-28.9V1409c0-16 12.9-28.9 28.9-28.9h56.7c16 0 28.9 13 28.9 28.9z"/>
        <path class="st1" d="M742.2 1051.5c20.4 76.4 68 160.4 68 160.4"/>
        <path class="st1" d="M936 237.4c-7.5 15.6-14 43-14.9 91H744v-91h192z"/>
        <path class="st1" d="M744 237.4v115.5"/>
        <path class="st1" d="M908.4 609.4C896.9 732.5 876 850.6 839.2 878c-33.9 25.2-60.4 33.1-78.4 45.1-2.4-14.6-3.1-27.4-2.1-38.9 2.9-34.8 20.9-58.2 51.6-86.7 33.9-31.6 73.9-125.4 98.1-188.1z"/>
        <path class="st1" d="M758.6 884V773.1"/>
        <path class="st1" d="M918.6 451.7c-.9 23-2.1 47.5-3.7 72.6h-49.3v-72.6h53z"/>
        <path class="st1" d="M865.6 488h-75.2"/>
        <path class="st1" d="M1159.4 587.3h54.9c16.5 0 29.8-13.4 29.8-29.8v-139c0-16.5-13.4-29.8-29.8-29.8h-54.9c-16.5 0-29.8 13.4-29.8 29.8v139c0 16.5 13.3 29.8 29.8 29.8z"/>
        <path class="st1" d="M1244.1 1409v140.8c0 16-12.9 28.9-28.9 28.9h-37.4v-99.3h-48.2V1409c0-16 12.9-28.9 28.9-28.9h56.7c16 0 28.9 13 28.9 28.9z"/>
        <path class="st1" d="M1109.7 1211.9s47.7-84 68-160.4"/>
        <path class="st1" d="M1176 237.4v91H998.9c-.9-48.1-7.4-75.4-14.9-91h192z"/>
        <path class="st1" d="M1176 237.4v115.5"/>
        <path class="st1" d="M1159.3 923c-18-12-44.6-19.9-78.4-45.1-36.8-27.4-57.8-145.5-69.2-268.6 24.2 62.7 64.2 156.6 98.2 188 30.7 28.5 48.7 51.9 51.6 86.7.9 11.6.2 24.4-2.2 39z"/>
        <path class="st1" d="M1161.4 884V773.1"/>
        <path class="st1" d="M1186.8 992.8c0 17.8-3.5 38-9 58.7v321.8H1107v106.1H813v-106.1h-70.7v-321.8c-5.5-20.8-9-40.9-9-58.7 0-41.7 9.6-57.8 27.6-69.8s44.6-19.9 78.4-45.1c36.8-27.4 57.8-145.5 69.2-268.6 2.7-28.4 4.8-57.2 6.5-85.1 1.5-25.1 2.7-49.5 3.7-72.6 1.7-44.4 2.4-83.5 2.4-111.9 0-3.9 0-7.7.1-11.4.9-48.1 7.4-75.4 14.9-91 11-23 24-20.3 24-20.3s13-2.6 24 20.3c7.5 15.6 14 43 14.9 91 .1 3.7.1 7.5.1 11.4 0 28.4.7 67.6 2.4 111.9.9 23 2.1 47.5 3.7 72.6 1.7 27.9 3.9 56.6 6.5 85.1 11.5 123.1 32.4 241.2 69.2 268.6 33.9 25.2 60.4 33.1 78.4 45.1 18 12 27.5 28.1 27.5 69.8z"/>
        <path class="st1" d="M1054.4 451.7v72.6h-49.3c-1.5-25.1-2.7-49.5-3.7-72.6h53z"/>
        <path class="st1" d="M1054.4 488h75.2"/>
        <path class="st1" d="M1022.6 809.8v189.1c0 16.8-13.7 30.5-30.5 30.5H928c-16.8 0-30.5-13.7-30.5-30.5V809.8c0-16.8 13.7-30.5 30.5-30.5h64.1c16.8 0 30.5 13.7 30.5 30.5z"/>
        <path class="st1" d="M918.6 1200.5c-34.6-24.4-58.7-78.4-58.7-141.1 0-49 14.7-92.6 37.6-121V999c0 16.8 13.7 30.5 30.5 30.5h64.1c16.8 0 30.5-13.7 30.5-30.5v-60.6c22.9 28.4 37.6 72.1 37.6 121 0 62.7-24.1 116.8-58.7 141.1"/>
        <path class="st1" d="M964.2 1479.5s42.7-176.9 107.1-209.6"/>
        <path class="st1" d="M960 1479.5s-42.7-176.9-107.1-209.6"/>
        <path class="st1" d="M750.7 1479.5h427.1v170.7H750.7z"/>
        <path class="st1" d="M750.7 1479.5v223.6"/>
        <path class="st1" d="M1177.8 1479.5v223.6"/>
    </g>
</svg>
