<svg xmlns="http://www.w3.org/2000/svg" viewBox="0 0 1920 1920">
    <style>
        .st0{fill:#fff}.st1{fill:none;stroke:#231f20;stroke-width:50;stroke-linecap:round;stroke-linejoin:round;stroke-miterlimit:10}
    </style>
    <path class="st0" d="M665.8 1003.7c-.1-.7-.2-1.5-.4-2.2 0-.1-.1-.3-.1-.4-.1-.6-.2-1.2-.4-1.8l-.3-1.5c-.1-.3-.2-.7-.2-1v-.1c-.1-.6-.3-1.2-.4-1.8l-.1-.5v-.2c-.1-.2-.1-.5-.2-.7-.1-.4-.2-.7-.3-1.1 0-.1-.1-.2-.1-.4-.1-.2-.1-.5-.2-.7v-.2c-.1-.2-.1-.3-.1-.5 0-.1-.1-.2-.1-.4-.1-.2-.1-.4-.2-.6 0-.1-.1-.3-.1-.4 0-.1-.1-.3-.1-.4l-.6-1.8c-.1-.2-.1-.4-.2-.6-.2-.5-.3-.9-.5-1.4-.1-.2-.1-.3-.2-.5 0-.1-.1-.2-.1-.3-.2-.6-.5-1.2-.7-1.9 0-.1-.1-.2-.1-.3 0 0 0-.1-.1-.2-.3-.8-.6-1.5-1-2.3-.2-.6-.5-1.1-.8-1.7-.3-.7-.6-1.3-.9-1.9-.1-.1-.1-.2-.2-.4 0-.1-.1-.2-.1-.3-.2-.3-.3-.7-.5-1-.2-.4-.5-.9-.7-1.3-.3-.6-.6-1.1-.9-1.7-.6-1.1-1.3-2.2-1.9-3.2-.3-.5-.7-1.1-1-1.6-.7-1.1-1.4-2.1-2.1-3.1-1.1-1.5-2.2-3-3.4-4.5-.8-1-1.6-1.9-2.4-2.9-.8-1-1.6-1.9-2.5-2.8-.9-.9-1.7-1.8-2.6-2.7-.4-.5-.9-.9-1.3-1.3-17.5-16.9-41.3-27.3-67.5-27.3-29.6 0-56.1 13.3-74 34.2-.6.7-1.2 1.4-1.8 2.2-.5.6-1 1.3-1.5 1.9-.3.4-.6.7-.8 1.1-.1.2-.3.3-.4.5l-.9 1.2c-.1.1-.1.2-.2.3-.4.6-.8 1.1-1.2 1.7-.3.5-.6.9-.9 1.4-.2.3-.4.6-.6 1l-.1.1c-.1.2-.2.4-.4.6l-.3.6c-.2.4-.5.8-.7 1.1-.1.2-.2.3-.3.5l-.9 1.5c-.1.2-.2.5-.4.7-.4.7-.8 1.4-1.1 2.1-.2.5-.5.9-.7 1.4-.2.4-.4.8-.6 1.3-.2.4-.4.9-.6 1.3-.2.4-.4.9-.6 1.3-.2.4-.4.9-.6 1.3-.4.9-.7 1.8-1.1 2.6-.7 1.8-1.4 3.7-2 5.5-.1.4-.2.8-.4 1.1-.2.8-.5 1.7-.7 2.5-.1.5-.3 1-.4 1.6-.1.5-.3 1-.4 1.6-.6 2.5-1.1 5.1-1.5 7.7-.2 1.6-.5 3.1-.6 4.7-.4 3.5-.6 7-.6 10.6 0 53.6 43.5 97.1 97.1 97.1 46.8 0 85.9-33.2 95.1-77.3.1-.7.3-1.5.4-2.2.3-1.4.5-2.9.7-4.3.2-1.4.4-2.9.5-4.4.2-2.2.3-4.4.4-6.7v-2.2c0-4.2-.3-8.2-.8-12.3-.2-1-.4-2-.5-3zm938.1-66.7c-15-9.6-32.9-15.1-52.1-15.1-25.6 0-48.9 9.9-66.2 26.1-19 17.7-30.9 43-30.9 71 0 41.4 25.9 76.8 62.4 90.7 10.8 4.1 22.5 6.4 34.7 6.4 52.3 0 95-41.4 97-93.2.1-1.3.1-2.6.1-3.9 0-34.5-18-64.8-45-82z" id="Layer_17"/>
    <path class="st0" d="M1517.4 804.6v57.2l86.5 75.1c27.1 17.2 45 47.5 45 82 0 1.3 0 2.6-.1 3.9 52.2-11.1 54.2-44 54.2-44V804.6s-181.1-1.5-185.6 0zm-1146.7 194v52.9h-84.9c-15.2 0-27.6 12.4-27.6 27.6v30.6h153.7v-107.5c19.4 1.8 40.1 3.9 61.5 6.3.2-1.6.4-3.2.6-4.7.4-2.6.9-5.2 1.5-7.7.1-.5.3-1 .4-1.6.1-.5.3-1.1.4-1.6.2-.8.5-1.7.7-2.5.1-.4.2-.8.4-1.1.6-1.9 1.2-3.7 2-5.5.3-.9.7-1.8 1.1-2.6.2-.4.4-.9.6-1.3s.4-.9.6-1.3c.1-.2.1-.3.2-.5 0-.1.1-.2.2-.3.1-.2.1-.3.2-.5.2-.4.4-.8.6-1.3.2-.5.5-1 .7-1.4.4-.7.7-1.4 1.1-2.1.1-.2.2-.5.4-.7.3-.5.5-1 .9-1.5.1-.2.2-.3.3-.5 0-.1.1-.2.1-.2l.6-.9.3-.5c.1-.2.2-.4.4-.6 0 0 0-.1.1-.1 0-.1.1-.1.1-.2.2-.3.3-.5.5-.8.3-.5.6-.9.9-1.4.4-.6.8-1.2 1.2-1.7.1-.1.1-.2.2-.3l.9-1.2c.1-.2.2-.3.4-.5.3-.4.5-.8.8-1.1.5-.6 1-1.3 1.5-1.9.6-.7 1.2-1.4 1.8-2.2-96.6 6.8-180.7 18.1-215 36.7-.2-.2 35.9 1.4 89.6 5.7zm1084 20.3c0-28.1 11.9-53.3 30.9-71L1227.2 848H1051v35.9l53.2 23.9v26.8l-114.6-11.5-61.5 23.7s-139.6-2.5-290.7 2.3l1.3 1.3c.9.9 1.8 1.8 2.6 2.7.8.9 1.7 1.8 2.5 2.8.8 1 1.6 1.9 2.4 2.9 1.2 1.5 2.3 3 3.4 4.5.7 1 1.4 2.1 2.1 3.1.3.5.7 1.1 1 1.6.7 1.1 1.3 2.2 1.9 3.2.3.6.6 1.1.9 1.7.2.4.5.9.7 1.3.2.3.3.7.5 1 0 .1.1.2.1.3.1.1.1.2.2.4.3.6.6 1.3.9 1.9.3.5.5 1.1.8 1.7.3.8.7 1.5 1 2.3 0 .1.1.1.1.2s.1.2.1.3c.3.6.5 1.2.7 1.9 0 .1.1.2.1.3.1.2.1.3.2.5.2.5.3.9.5 1.4.1.2.1.4.2.6l.6 1.8c.1.1.1.3.1.4.1.1.1.3.1.4.1.2.1.4.2.6 0 .1.1.2.1.4s.1.3.1.5v.2c.1.2.1.5.2.7 0 .1.1.2.1.4.1.4.2.7.3 1.1.1.2.1.5.2.7v.2l.1.5c.2.6.3 1.2.4 1.8v.1c.1.3.2.7.2 1l.3 1.5c.1.6.2 1.2.4 1.8 0 .1 0 .3.1.4.1.7.3 1.5.4 2.2.1 1 .3 2 .4 3 .5 4 .8 8.1.8 12.3v2.2c-.1 2.2-.2 4.5-.4 6.7-.1 1.5-.3 2.9-.5 4.4-.2 1.4-.4 2.9-.7 4.3-.1.7-.3 1.5-.4 2.2 76 17.2 137.5 40.2 153.2 70.9h698.9c-36.2-14-62.1-49.4-62.1-90.8z" id="Layer_18"/>
    <g id="STROKES">
        <path class="st1" d="M637.4 949.1c-17.5-16.9-41.3-27.3-67.5-27.3-29.6 0-56.1 13.3-74 34.2-12.3 14.4-20.4 32.5-22.6 52.4-.4 3.5-.6 7-.6 10.6 0 53.6 43.5 97.1 97.1 97.1 46.8 0 85.9-33.2 95.1-77.3 1.3-6.4 2-13 2-19.9.1-27.4-11.3-52.1-29.5-69.8zm-60.7 73c-1.2 2.6-3.8 4.3-6.8 4.3-3.8 0-7-2.8-7.5-6.5 0-.3-.1-.7-.1-1 0-4.2 3.4-7.5 7.5-7.5 4.2 0 7.5 3.4 7.5 7.5.1 1.2-.2 2.3-.6 3.2z"/>
        <path class="st1" d="M1559.3 1018.9c0 4.2-3.4 7.5-7.5 7.5-4.2 0-7.5-3.4-7.5-7.5 0-4.2 3.4-7.5 7.5-7.5s7.5 3.4 7.5 7.5z"/>
        <path class="st1" d="M1559.3 1018.9c0 4.2-3.4 7.5-7.5 7.5-4.2 0-7.5-3.4-7.5-7.5 0-4.2 3.4-7.5 7.5-7.5s7.5 3.4 7.5 7.5z"/>
        <path class="st1" d="M258.1 1109.7h-41.2"/>
        <path class="st1" d="M495.9 956c-12.3 14.4-20.4 32.5-22.6 52.4-21.4-2.4-42.1-4.5-61.5-6.3v107.6H258.1V1079c0-15.2 12.4-27.6 27.6-27.6h84.9v-52.9c-53.6-4.3-89.8-5.9-89.8-5.9 34.4-18.5 118.5-29.8 215.1-36.6z"/>
        <path class="st1" d="M577.4 1018.9c0 1.2-.3 2.2-.7 3.2-1.2 2.6-3.8 4.3-6.8 4.3-3.8 0-7-2.8-7.5-6.5 0-.3-.1-.7-.1-1 0-4.2 3.4-7.5 7.5-7.5 4.2 0 7.6 3.4 7.6 7.5z"/>
        <path class="st1" d="M1517.1 1109.7H818.2c-15.8-30.7-77.2-53.7-153.3-70.9 1.3-6.4 2-13 2-19.8 0-27.4-11.4-52.2-29.6-69.8 151.1-4.8 290.7-2.3 290.7-2.3l61.5-23.7 114.6 11.5v-26.8l-53.2-23.9v-36h176.2l258.4 99.9c-19 17.7-30.9 43-30.9 71.1.1 41.3 26 76.7 62.5 90.7z"/>
        <path class="st1" d="M1559.3 1018.9c0 4.2-3.4 7.5-7.5 7.5-4.2 0-7.5-3.4-7.5-7.5 0-4.2 3.4-7.5 7.5-7.5s7.5 3.4 7.5 7.5z"/>
        <path class="st1" d="M1104.2 934.6l262.1 67.9"/>
        <path class="st1" d="M928.1 946.8v70.9l78.5 37.3"/>
        <path class="st1" d="M818.2 1109.7h-88.6"/>
        <path class="st1" d="M1603.9 936.9c-15-9.6-32.9-15.1-52.1-15.1-25.6 0-48.8 9.9-66.2 26.1-19 17.7-30.9 43-30.9 71.1 0 41.4 25.9 76.8 62.4 90.7 10.8 4.1 22.5 6.4 34.7 6.4 52.3 0 95-41.4 97-93.2.1-1.3.1-2.6.1-3.9 0-34.5-18-64.8-45-82.1zm-52.1 89.6c-4.2 0-7.5-3.4-7.5-7.5 0-4.2 3.4-7.5 7.5-7.5 4.2 0 7.5 3.4 7.5 7.5s-3.4 7.5-7.5 7.5z"/>
        <path class="st1" d="M1703 804.6v174.2s-2.1 32.9-54.3 44c.1-1.3.1-2.6.1-3.9 0-34.5-18-64.7-45-82l-86.5-75.1v-57.2c4.6-1.5 185.7 0 185.7 0z"/>
    </g>
</svg>
