<svg xmlns="http://www.w3.org/2000/svg" viewBox="0 0 1920 1920">
    <style>
        .st0{fill:#fff}.st1{fill:none;stroke:#231f20;stroke-width:50;stroke-linecap:round;stroke-linejoin:round;stroke-miterlimit:10}
    </style>
    <path class="st0" d="M1465.5 1147.3V974.2l-3.4 1.5-215.8-97 2.6-.6-74.2-59.1h-88.5v39.6H833.9V819h-88.5l-75 59.7-215.8 97v171.6H261v59c0 80.8 41 85.3 41 85.3h1316s41-4.6 41-85.3v-59h-193.5z" id="Layer_14"/>
    <path class="st0" d="M673.7 567.6v100.8h572.6V567.6H673.7zm614.4 189h-113.4v62.3h143.2v-32.5c0-16.5-13.4-29.8-29.8-29.8zm-656.2 0c-16.5 0-29.8 13.4-29.8 29.8v32.5h143.2v-62.3H631.9z" id="Layer_15"/>
    <path class="st0" d="M399.6 858.5H271.9c-30.3 0-54.9 24.6-54.9 54.9V1340c0 30.3 24.6 54.9 54.9 54.9h127.8c30.3 0 54.9-24.6 54.9-54.9v-48.4H302s-41-4.6-41-85.3v-59h193.5V913.4c0-13.2-4.7-25.3-12.5-34.8-10-12.3-25.2-20.1-42.4-20.1zm1248.5 0h-127.8c-17.1 0-32.4 7.8-42.4 20.1-7.8 9.5-12.5 21.6-12.5 34.8v233.9H1659v59c0 80.8-41 85.3-41 85.3h-152.5v48.4c0 30.3 24.6 54.9 54.9 54.9h127.8c30.3 0 54.9-24.6 54.9-54.9V913.4c0-30.3-24.6-54.9-55-54.9z" id="Layer_16"/>
    <g id="STROKES">
        <path class="st1" d="M1086.1 858.5v191.1c0 69.7-56.5 126.2-126.1 126.2-69.7 0-126.1-56.5-126.1-126.2V858.5h252.2z"/>
        <path class="st1" d="M1086.1 1049.6v241.9H833.9v-241.9c0 69.7 56.5 126.2 126.1 126.2 69.7 0 126.1-56.5 126.1-126.2z"/>
        <path class="st1" d="M737.9 1291.6H302s-41-4.6-41-85.3v-59h358.9s118 11.7 118 144.3z"/>
        <path class="st1" d="M737.9 1291.6h96"/>
        <path class="st1" d="M454.5 1147.3l379.4-97.7"/>
        <path class="st1" d="M723 917.6h110.9v63.8H723z"/>
        <path class="st1" d="M833.9 818.9v328.4H454.5V975.6l215.8-97 75-59.7z"/>
        <path class="st1" d="M454.5 1061l379.4-53.5"/>
        <path class="st1" d="M745.3 818.9H602.1v-32.5c0-16.5 13.4-29.8 29.8-29.8h113.4v62.3z"/>
        <path class="st1" d="M833.9 1049.6h252.2"/>
        <path class="st1" d="M833.9 858.5v191.1c0 69.7 56.5 126.2 126.1 126.2s126.1-56.5 126.1-126.2V858.5H833.9z"/>
        <path class="st1" d="M833.9 1049.6v241.9h252.3v-241.9c0 69.7-56.5 126.2-126.1 126.2s-126.2-56.5-126.2-126.2z"/>
        <path class="st1" d="M1659 1147.3v59c0 80.8-41 85.3-41 85.3h-435.8c0-132.6 117.9-144.3 117.9-144.3H1659z"/>
        <path class="st1" d="M1182.1 1291.6h-96"/>
        <path class="st1" d="M1465.5 1147.3l-379.4-97.7"/>
        <path transform="rotate(-180 1141.574 949.466)" class="st1" d="M1086.1 917.6H1197v63.8h-110.9z"/>
        <path class="st1" d="M1465.5 974.2v173.1h-379.4V818.9h88.6l74.2 59.1-2.6.6 215.8 97z"/>
        <path class="st1" d="M1465.5 1061l-379.4-53.5"/>
        <path class="st1" d="M1174.7 818.9h143.2v-32.5c0-16.5-13.4-29.8-29.8-29.8h-113.4v62.3z"/>
        <path class="st1" d="M1086.1 1049.6H833.9"/>
        <path class="st1" d="M673.7 567.6h572.6v100.8H673.7z"/>
        <path class="st1" d="M673.7 756.6V525.1"/>
        <path class="st1" d="M1246.3 756.6V525.1"/>
        <path class="st1" d="M454.5 913.4v233.9H261v59c0 80.8 41 85.3 41 85.3h152.5v48.4c0 30.3-24.6 54.9-54.9 54.9H271.8c-30.3 0-54.9-24.6-54.9-54.9V913.4c0-30.3 24.6-54.9 54.9-54.9h127.8c17.1 0 32.4 7.8 42.4 20.1 7.9 9.5 12.5 21.6 12.5 34.8z"/>
        <path class="st1" d="M1703.1 913.4V1340c0 30.3-24.6 54.9-54.9 54.9h-127.8c-30.3 0-54.9-24.6-54.9-54.9v-48.4H1618s41-4.6 41-85.3v-59h-193.5V913.4c0-13.2 4.7-25.4 12.5-34.8 10.1-12.3 25.3-20.1 42.4-20.1h127.8c30.3 0 54.9 24.6 54.9 54.9z"/>
    </g>
</svg>
