<svg xmlns="http://www.w3.org/2000/svg" viewBox="0 0 1920 1920">
    <style>
        .st0{fill:#fff}.st1{fill:none;stroke:#231f20;stroke-width:50;stroke-linecap:round;stroke-linejoin:round;stroke-miterlimit:10}
    </style>
    <path class="st0" d="M1691.6 1466.4c6.2 58.1-39.3 108.8-97.8 108.8H326.2c-58.3 0-103.8-50.4-97.8-108.4l80.3-779.3c5.2-50.2 47.4-88.3 97.8-88.3h1103.8c50.3 0 92.4 37.9 97.8 87.9l83.5 779.3zm-190.4-534.6c0-123.4-100.1-223.5-223.5-223.5s-223.5 100.1-223.5 223.5 100.1 223.5 223.5 223.5 223.5-100.1 223.5-223.5z" id="Layer_8"/>
    <circle class="st0" cx="1277.7" cy="931.8" r="223.5" id="Layer_9"/>
    <path class="st0" d="M1391.2 511.8v87.4h-148.5v-87.4h148.5zm22.7 1063.4v87.6h148.5v-87.6h-148.5zm-1055.9 0v87.6h148.5v-87.6H358z" id="Layer_10"/>
    <g id="STROKES">
        <g id="XMLID_1_">
            <path class="st1" d="M1391.2 599.2h119.1c50.3 0 92.4 37.9 97.8 87.9l83.5 779.3c6.2 58.1-39.3 108.8-97.8 108.8H326.2c-58.3 0-103.8-50.4-97.8-108.4l80.3-779.3c5.2-50.2 47.4-88.3 97.8-88.3h984.7z"/>
            <circle class="st1" cx="1277.7" cy="931.8" r="223.5"/>
            <circle class="st1" cx="1277.7" cy="931.8" r="44.7"/>
            <path class="st1" d="M354.1 1077.3h633"/>
            <path class="st1" d="M1528.6 1077.3h25.5"/>
            <path class="st1" d="M346.6 1171.2h706.5"/>
            <path class="st1" d="M1464.1 1171.2h97.5"/>
            <path class="st1" d="M339.9 1265h1228.4"/>
            <path class="st1" d="M332.2 1359.2l1238.5-.8"/>
            <path class="st1" d="M322.2 1453.1l1264.5-.8"/>
            <path class="st1" d="M1562.4 1575.2v87.6h-148.5v-87.6"/>
            <path class="st1" d="M506.5 1575.2v87.6H358v-87.6"/>
            <path class="st1" d="M369.2 987h580"/>
            <path class="st1" d="M1291.3 879l36-69"/>
            <path class="st1" d="M1242.7 599.2v-87.4h148.5v87.4"/>
            <path class="st1" d="M1316 505.2l-740.8-248"/>
        </g>
    </g>
</svg>
