<svg xmlns="http://www.w3.org/2000/svg" viewBox="0 0 1920 1920">
    <style>
        .st0{fill:#fff}.st1{fill:none;stroke:#231f20;stroke-width:50;stroke-linecap:round;stroke-linejoin:round;stroke-miterlimit:10}
    </style>
    <path class="st0" d="M1555 661v-78h-138v78H216v884h1488V661h-149zm-93.9 114.8c38.1 0 69 30.9 69 69s-30.9 69-69 69-69-30.9-69-69c-.1-38.1 30.8-69 69-69zm-1002.2 0c38.1 0 69 30.9 69 69s-30.9 69-69 69-69-30.9-69-69 30.9-69 69-69zM563 1441c-82.3 0-154.3-43.8-194.1-109.3-20.7-34.1-32.7-74-32.8-116.7v-1c0-42.1 11.5-81.6 31.5-115.4C407 1031.8 479.8 987 563 987c125.4 0 227 101.6 227 227s-101.6 227-227 227zm220.7-520H700V769h520v152H783.7zm573.3 520c-125.4 0-227-101.6-227-227s101.6-227 227-227 227 101.6 227 227-101.6 227-227 227z" id="Layer_6"/>
    <g id="Layer_7">
        <circle class="st0" cx="1357" cy="1214" r="227"/>
        <path class="st0" d="M563 987c-83.2 0-156 44.8-195.5 111.6-20 33.8-31.5 73.2-31.5 115.4v1c.2 42.7 12.2 82.6 32.8 116.7C408.7 1397.2 480.7 1441 563 1441c125.4 0 227-101.6 227-227 0-125.3-101.6-227-227-227z"/>
    </g>
    <path class="st0" d="M1461.1 775.8c38.1 0 69 30.9 69 69s-30.9 69-69 69-69-30.9-69-69 30.8-69 69-69zM1136.3 921h83.7V769H700v152h83.7c41.6-51.2 105.1-84 176.3-84 22.8 0 44.8 3.3 65.5 9.6 44.1 13.3 82.5 39.6 110.8 74.4zm-110.8-74.4L963 919v2h173.3c-28.3-34.8-66.7-61.1-110.8-74.4zM960 837c-71.2 0-134.7 32.8-176.3 84H963v-2l62.5-72.4c-20.7-6.2-42.7-9.6-65.5-9.6zm-570.1 7.8c0 38.1 30.9 69 69 69s69-30.9 69-69-30.9-69-69-69-69 30.9-69 69z" id="Layer_2"/>
    <g id="STROKES">
        <g id="XMLID_1_">
            <path class="st1" d="M1555 661h149v884H216V661h1201z"/>
            <path class="st1" d="M1136.3 921h83.7V769H700v152h263z"/>
            <path class="st1" d="M963 919l62.5-72.4L1089 773"/>
            <path class="st1" d="M1136.3 921c-28.3-34.9-66.7-61.2-110.8-74.4-20.7-6.2-42.7-9.6-65.5-9.6-71.2 0-134.7 32.8-176.3 84"/>
            <path class="st1" d="M1417 661v-78h138v77.9"/>
            <path class="st1" d="M1489 583L617 375"/>
            <circle class="st1" cx="1357" cy="1214" r="227"/>
            <path class="st1" d="M367.5 1098.7C407 1031.8 479.8 987 563 987c125.4 0 227 101.6 227 227s-101.6 227-227 227c-82.3 0-154.3-43.8-194.1-109.3-20.7-34-32.7-74-32.8-116.7v-1c-.1-42.1 11.4-81.5 31.4-115.3z"/>
            <path class="st1" d="M556 997v436"/>
            <path class="st1" d="M440 1029v370"/>
            <path class="st1" d="M672 1029v370"/>
            <path class="st1" d="M338 1215h436"/>
            <path class="st1" d="M370 1331h370"/>
            <path class="st1" d="M370 1099h370"/>
            <path class="st1" d="M1356 997v436"/>
            <path class="st1" d="M1240 1029v370"/>
            <path class="st1" d="M1472 1029v370"/>
            <path class="st1" d="M1138 1215h436"/>
            <path class="st1" d="M1170 1331h370"/>
            <path class="st1" d="M1170 1099h370"/>
            <circle class="st1" cx="459" cy="844.8" r="69"/>
            <circle class="st1" cx="1461.1" cy="844.8" r="69"/>
        </g>
    </g>
</svg>
