<svg xmlns="http://www.w3.org/2000/svg" viewBox="0 0 1920 1920">
    <style>
        .st0{fill:#fff}.st1{fill:none;stroke:#231f20;stroke-width:50;stroke-linecap:round;stroke-linejoin:round;stroke-miterlimit:10}
    </style>
    <path class="st0" d="M964.8 496.5c-330.7 0-598.8 267.8-599.4 598.3 11.2 1.6 22 4.8 32.1 9.2 41.6-47.4 102.6-77.4 170.6-77.4 68.7 0 130.2 30.5 171.7 78.8 0-124.3 100.7-234.5 225-234.5 123.9 0 224.5 100.2 225 224 41.2-42.1 98.6-68.3 162.1-68.3 68 0 129 30 170.6 77.4 12.9-5.7 26.9-9.2 41.7-10.2-1.1-330-269-597.3-599.4-597.3z" id="Layer_11"/>
    <g id="Layer_12">
        <path class="st0" d="M1662 1303.6c21.9-22.8 35.1-53.9 34.5-88.2-1.2-66.4-55.3-120.6-121.7-121.9-3.6-.1-7.1 0-10.6.2-14.7 1-28.8 4.5-41.7 10.2-41.6-47.4-102.6-77.4-170.6-77.4-63.6 0-121 26.2-162.1 68.3-13.9 14.2-25.9 30.2-35.7 47.7-18.4 32.8-28.9 70.5-28.9 110.7 0 3.8.1 7.7.3 11.5-16.7 13.6-31.1 29.8-42.6 48.1s-20 38.6-25 60.3c0 27.8 22.5 50.3 50.3 50.3h536.1v-.2c32-2.5 57.2-29.2 57.2-61.9 0-26.2-16.4-48.6-39.5-57.7z"/>
        <path class="st0" d="M794.4 1264.8c.2-3.8.3-7.6.3-11.5 0-40.2-10.5-78-28.9-110.7-7.5-13.3-16.2-25.7-26.1-37.2-41.6-48.2-103.1-78.8-171.7-78.8-68 0-129 30-170.6 77.4-10.1-4.4-20.8-7.6-32.1-9.2-6.6-1-13.3-1.4-20.2-1.2-66.4 1.2-120.6 55.4-121.7 121.9-.6 34.2 12.7 65.4 34.5 88.2-23.1 9-39.4 31.5-39.4 57.8 0 32.6 25.2 59.3 57.2 61.9v.2h536.1c27.8 0 50.3-22.5 50.3-50.3-4.9-21.7-13.5-42-25-60.3-11.5-18.4-26-34.6-42.7-48.2z"/>
    </g>
    <g id="STROKES">
        <g id="XMLID_2_">
            <path class="st1" d="M365.4 1095.9v-1.1c.6-330.5 268.7-598.3 599.4-598.3 330.4 0 598.3 267.3 599.4 597.3v2.1"/>
            <path class="st1" d="M739.8 1105.4c0-124.3 100.7-234.5 225-234.5 123.9 0 224.5 100.2 225 224v1"/>
            <path class="st1" d="M365.4 1094.8c-6.6-.9-13.3-1.4-20.2-1.2-66.5 1.2-120.6 55.4-121.7 121.9-.6 34.2 12.7 65.4 34.5 88.2-23.1 9-39.4 31.5-39.4 57.8 0 32.6 25.2 59.3 57.2 61.8v.2h536.1c27.8 0 50.3-22.5 50.3-50.3-5-21.7-13.5-42-25-60.3-11.5-18.3-25.9-34.6-42.6-48.1.2-3.8.3-7.6.3-11.5 0-40.2-10.5-78-28.9-110.7-7.5-13.3-16.2-25.7-26.1-37.2-41.6-48.2-103.1-78.8-171.7-78.8-68 0-129 30-170.6 77.4-10.2-4.4-21-7.5-32.2-9.2z"/>
            <path class="st1" d="M1564.2 1093.8c3.5-.2 7-.3 10.6-.2 66.4 1.2 120.6 55.4 121.7 121.9.6 34.2-12.7 65.4-34.5 88.2 23.1 9 39.4 31.5 39.4 57.8 0 32.6-25.2 59.3-57.2 61.8v.2h-536.1c-27.8 0-50.3-22.5-50.3-50.3 4.9-21.7 13.5-42 25-60.3 11.5-18.3 25.9-34.6 42.6-48.1-.2-3.8-.3-7.6-.3-11.5 0-40.2 10.5-78 28.9-110.7 9.8-17.4 21.8-33.5 35.7-47.7 41.2-42.1 98.6-68.3 162.1-68.3 68 0 129 30 170.6 77.4 13-5.6 27.1-9.2 41.8-10.2z"/>
        </g>
    </g>
</svg>
