<svg xmlns="http://www.w3.org/2000/svg" viewBox="0 0 1920 1920">
    <style>
        .st0{fill:#fff}.st1{fill:none;stroke:#231f20;stroke-width:50;stroke-linecap:round;stroke-linejoin:round;stroke-miterlimit:10}
    </style>
    <path class="st0" d="M1228.7 1255.4c23 42.8 36.1 91.8 36.1 143.8 0 168.2-136.3 304.5-304.5 304.5s-304.5-136.3-304.5-304.5c0-51.8 12.9-100.6 35.8-143.3 12.7-23.7 267.9-507.6 267.9-507.6s256.4 483.3 269.2 507.1zM1462 216.3S1261.2 597 1251.2 615.7c-18 33.6-28.1 72-28.1 112.7 0 132.3 107.3 239.6 239.6 239.6s239.6-107.3 239.6-239.6c0-40.9-10.3-79.5-28.4-113.2-10.1-18.8-211.9-398.9-211.9-398.9zm-1005.3 0S255.9 597 245.9 615.7c-18 33.6-28.1 72-28.1 112.7C217.8 860.7 325 968 457.4 968S697 860.7 697 728.4c0-40.9-10.3-79.5-28.4-113.2-10.1-18.8-211.9-398.9-211.9-398.9z" id="Layer_3"/>
    <g id="STROKES">
        <path class="st1" d="M959.4 748.4S704.1 1232.3 691.5 1256c-22.8 42.7-35.8 91.5-35.8 143.3 0 168.2 136.3 304.5 304.5 304.5s304.5-136.3 304.5-304.5c0-52-13.1-101-36.1-143.8-12.7-23.9-269.2-507.1-269.2-507.1z"/>
        <path class="st1" d="M1462 216.3S1261.2 597 1251.2 615.7c-18 33.6-28.1 72-28.1 112.7 0 132.3 107.3 239.6 239.6 239.6s239.6-107.3 239.6-239.6c0-40.9-10.3-79.5-28.4-113.2-10.1-18.8-211.9-398.9-211.9-398.9z"/>
        <path class="st1" d="M456.7 216.3S255.9 597 245.9 615.7c-18 33.6-28.1 72-28.1 112.7C217.8 860.7 325 968 457.4 968S697 860.7 697 728.4c0-40.9-10.3-79.5-28.4-113.2-10.1-18.8-211.9-398.9-211.9-398.9z"/>
    </g>
</svg>
