<svg xmlns="http://www.w3.org/2000/svg" viewBox="0 0 1920 1920">
    <style>
        .st0{fill:#fff}.st1{fill:none;stroke:#231f20;stroke-width:50;stroke-linecap:round;stroke-linejoin:round;stroke-miterlimit:10}
    </style>
    <path class="st0" d="M293.1 272.8c5.5 4.9 10 11.3 12.7 18.8 8.8 24.1-3.7 50.8-27.8 59.6s-50.8-3.7-59.6-27.8c-2.7-7.4-3.4-15.1-2.4-22.4.6-4.1 11.9-86.8 11.9-86.8s62.2 55.8 65.2 58.6zM228 484.1s-11.4 82.8-11.9 86.8c-1 7.3-.4 15 2.4 22.4 8.8 24.1 35.5 36.6 59.6 27.8s36.6-35.5 27.8-59.6c-2.7-7.5-7.1-13.8-12.7-18.8-3.1-2.6-65.2-58.6-65.2-58.6zm0 270.1S216.6 837 216.1 841c-1 7.3-.4 15 2.4 22.4 8.8 24.1 35.5 36.6 59.6 27.8s36.6-35.5 27.8-59.6c-2.7-7.5-7.1-13.8-12.7-18.8-3.1-2.7-65.2-58.6-65.2-58.6zm0 270s-11.4 82.8-11.9 86.8c-1 7.3-.4 15 2.4 22.4 8.8 24.1 35.5 36.6 59.6 27.8s36.6-35.5 27.8-59.6c-2.7-7.5-7.1-13.8-12.7-18.8-3.1-2.6-65.2-58.6-65.2-58.6zm0 270.1s-11.4 82.8-11.9 86.8c-1 7.3-.4 15 2.4 22.4 8.8 24.1 35.5 36.6 59.6 27.8s36.6-35.5 27.8-59.6c-2.7-7.5-7.1-13.8-12.7-18.8-3.1-2.7-65.2-58.6-65.2-58.6zm0 270s-11.4 82.8-11.9 86.8c-1 7.3-.4 15 2.4 22.4 8.8 24.1 35.5 36.6 59.6 27.8s36.6-35.5 27.8-59.6c-2.7-7.5-7.1-13.8-12.7-18.8-3.1-2.6-65.2-58.6-65.2-58.6zM402.5 380.1s-11.4 82.8-11.9 86.8c-1 7.3-.4 15 2.4 22.4 8.8 24.1 35.5 36.6 59.6 27.8s36.6-35.5 27.8-59.6c-2.7-7.5-7.1-13.8-12.7-18.8-3.1-2.7-65.2-58.6-65.2-58.6zm0 270s-11.4 82.8-11.9 86.8c-1 7.3-.4 15 2.4 22.4 8.8 24.1 35.5 36.6 59.6 27.8s36.6-35.5 27.8-59.6c-2.7-7.5-7.1-13.8-12.7-18.8-3.1-2.6-65.2-58.6-65.2-58.6zm0 270.1s-11.4 82.8-11.9 86.8c-1 7.3-.4 15 2.4 22.4 8.8 24.1 35.5 36.6 59.6 27.8s36.6-35.5 27.8-59.6c-2.7-7.5-7.1-13.8-12.7-18.8-3.1-2.7-65.2-58.6-65.2-58.6zm0 270s-11.4 82.8-11.9 86.8c-1 7.3-.4 15 2.4 22.4 8.8 24.1 35.5 36.6 59.6 27.8s36.6-35.5 27.8-59.6c-2.7-7.5-7.1-13.8-12.7-18.8-3.1-2.6-65.2-58.6-65.2-58.6zm0 270.1s-11.4 82.8-11.9 86.8c-1 7.3-.4 15 2.4 22.4 8.8 24.1 35.5 36.6 59.6 27.8s36.6-35.5 27.8-59.6c-2.7-7.5-7.1-13.8-12.7-18.8-3.1-2.7-65.2-58.6-65.2-58.6zM577 214.1s-11.4 82.8-11.9 86.8c-1 7.3-.4 15 2.4 22.4 8.8 24.1 35.5 36.6 59.6 27.8s36.6-35.5 27.8-59.6c-2.7-7.5-7.1-13.8-12.7-18.8-3.1-2.7-65.2-58.6-65.2-58.6zm0 270s-11.4 82.8-11.9 86.8c-1 7.3-.4 15 2.4 22.4 8.8 24.1 35.5 36.6 59.6 27.8s36.6-35.5 27.8-59.6c-2.7-7.5-7.1-13.8-12.7-18.8-3.1-2.6-65.2-58.6-65.2-58.6zm0 270.1S565.6 837 565.1 841c-1 7.3-.4 15 2.4 22.4 8.8 24.1 35.5 36.6 59.6 27.8s36.6-35.5 27.8-59.6c-2.7-7.5-7.1-13.8-12.7-18.8-3.1-2.7-65.2-58.6-65.2-58.6zm0 270s-11.4 82.8-11.9 86.8c-1 7.3-.4 15 2.4 22.4 8.8 24.1 35.5 36.6 59.6 27.8s36.6-35.5 27.8-59.6c-2.7-7.5-7.1-13.8-12.7-18.8-3.1-2.6-65.2-58.6-65.2-58.6zm0 270.1s-11.4 82.8-11.9 86.8c-1 7.3-.4 15 2.4 22.4 8.8 24.1 35.5 36.6 59.6 27.8s36.6-35.5 27.8-59.6c-2.7-7.5-7.1-13.8-12.7-18.8-3.1-2.7-65.2-58.6-65.2-58.6zm0 270s-11.4 82.8-11.9 86.8c-1 7.3-.4 15 2.4 22.4 8.8 24.1 35.5 36.6 59.6 27.8s36.6-35.5 27.8-59.6c-2.7-7.5-7.1-13.8-12.7-18.8-3.1-2.6-65.2-58.6-65.2-58.6zM751.5 380.1s-11.4 82.8-11.9 86.8c-1 7.3-.4 15 2.4 22.4 8.8 24.1 35.5 36.6 59.6 27.8s36.6-35.5 27.8-59.6c-2.7-7.5-7.1-13.8-12.7-18.8-3.1-2.7-65.2-58.6-65.2-58.6zm0 270s-11.4 82.8-11.9 86.8c-1 7.3-.4 15 2.4 22.4 8.8 24.1 35.5 36.6 59.6 27.8s36.6-35.5 27.8-59.6c-2.7-7.5-7.1-13.8-12.7-18.8-3.1-2.6-65.2-58.6-65.2-58.6zm0 270.1s-11.4 82.8-11.9 86.8c-1 7.3-.4 15 2.4 22.4 8.8 24.1 35.5 36.6 59.6 27.8s36.6-35.5 27.8-59.6c-2.7-7.5-7.1-13.8-12.7-18.8-3.1-2.7-65.2-58.6-65.2-58.6zm0 270s-11.4 82.8-11.9 86.8c-1 7.3-.4 15 2.4 22.4 8.8 24.1 35.5 36.6 59.6 27.8s36.6-35.5 27.8-59.6c-2.7-7.5-7.1-13.8-12.7-18.8-3.1-2.6-65.2-58.6-65.2-58.6zm0 270.1s-11.4 82.8-11.9 86.8c-1 7.3-.4 15 2.4 22.4 8.8 24.1 35.5 36.6 59.6 27.8s36.6-35.5 27.8-59.6c-2.7-7.5-7.1-13.8-12.7-18.8-3.1-2.7-65.2-58.6-65.2-58.6zM926 214.1s-11.4 82.8-11.9 86.8c-1 7.3-.4 15 2.4 22.4 8.8 24.1 35.5 36.6 59.6 27.8s36.6-35.5 27.8-59.6c-2.7-7.5-7.1-13.8-12.7-18.8-3.1-2.7-65.2-58.6-65.2-58.6zm0 270s-11.4 82.8-11.9 86.8c-1 7.3-.4 15 2.4 22.4 8.8 24.1 35.5 36.6 59.6 27.8s36.6-35.5 27.8-59.6c-2.7-7.5-7.1-13.8-12.7-18.8-3.1-2.6-65.2-58.6-65.2-58.6zm0 270.1S914.6 837 914.1 841c-1 7.3-.4 15 2.4 22.4 8.8 24.1 35.5 36.6 59.6 27.8s36.6-35.5 27.8-59.6c-2.7-7.5-7.1-13.8-12.7-18.8-3.1-2.7-65.2-58.6-65.2-58.6zm0 270s-11.4 82.8-11.9 86.8c-1 7.3-.4 15 2.4 22.4 8.8 24.1 35.5 36.6 59.6 27.8s36.6-35.5 27.8-59.6c-2.7-7.5-7.1-13.8-12.7-18.8-3.1-2.6-65.2-58.6-65.2-58.6zm0 270.1s-11.4 82.8-11.9 86.8c-1 7.3-.4 15 2.4 22.4 8.8 24.1 35.5 36.6 59.6 27.8s36.6-35.5 27.8-59.6c-2.7-7.5-7.1-13.8-12.7-18.8-3.1-2.7-65.2-58.6-65.2-58.6zm0 270s-11.4 82.8-11.9 86.8c-1 7.3-.4 15 2.4 22.4 8.8 24.1 35.5 36.6 59.6 27.8s36.6-35.5 27.8-59.6c-2.7-7.5-7.1-13.8-12.7-18.8-3.1-2.6-65.2-58.6-65.2-58.6zm174.5-1184.2s-11.4 82.8-11.9 86.8c-1 7.3-.4 15 2.4 22.4 8.8 24.1 35.5 36.6 59.6 27.8s36.6-35.5 27.8-59.6c-2.7-7.5-7.1-13.8-12.7-18.8-3.1-2.7-65.2-58.6-65.2-58.6zm0 270s-11.4 82.8-11.9 86.8c-1 7.3-.4 15 2.4 22.4 8.8 24.1 35.5 36.6 59.6 27.8s36.6-35.5 27.8-59.6c-2.7-7.5-7.1-13.8-12.7-18.8-3.1-2.6-65.2-58.6-65.2-58.6zm0 270.1s-11.4 82.8-11.9 86.8c-1 7.3-.4 15 2.4 22.4 8.8 24.1 35.5 36.6 59.6 27.8s36.6-35.5 27.8-59.6c-2.7-7.5-7.1-13.8-12.7-18.8-3.1-2.7-65.2-58.6-65.2-58.6zm0 270s-11.4 82.8-11.9 86.8c-1 7.3-.4 15 2.4 22.4 8.8 24.1 35.5 36.6 59.6 27.8s36.6-35.5 27.8-59.6c-2.7-7.5-7.1-13.8-12.7-18.8-3.1-2.6-65.2-58.6-65.2-58.6zm0 270.1s-11.4 82.8-11.9 86.8c-1 7.3-.4 15 2.4 22.4 8.8 24.1 35.5 36.6 59.6 27.8s36.6-35.5 27.8-59.6c-2.7-7.5-7.1-13.8-12.7-18.8-3.1-2.7-65.2-58.6-65.2-58.6zM1275 214.1s-11.4 82.8-11.9 86.8c-1 7.3-.4 15 2.4 22.4 8.8 24.1 35.5 36.6 59.6 27.8s36.6-35.5 27.8-59.6c-2.7-7.5-7.1-13.8-12.7-18.8-3.1-2.7-65.2-58.6-65.2-58.6zm0 270s-11.4 82.8-11.9 86.8c-1 7.3-.4 15 2.4 22.4 8.8 24.1 35.5 36.6 59.6 27.8s36.6-35.5 27.8-59.6c-2.7-7.5-7.1-13.8-12.7-18.8-3.1-2.6-65.2-58.6-65.2-58.6zm0 270.1s-11.4 82.8-11.9 86.8c-1 7.3-.4 15 2.4 22.4 8.8 24.1 35.5 36.6 59.6 27.8s36.6-35.5 27.8-59.6c-2.7-7.5-7.1-13.8-12.7-18.8-3.1-2.7-65.2-58.6-65.2-58.6zm0 270s-11.4 82.8-11.9 86.8c-1 7.3-.4 15 2.4 22.4 8.8 24.1 35.5 36.6 59.6 27.8s36.6-35.5 27.8-59.6c-2.7-7.5-7.1-13.8-12.7-18.8-3.1-2.6-65.2-58.6-65.2-58.6zm0 270.1s-11.4 82.8-11.9 86.8c-1 7.3-.4 15 2.4 22.4 8.8 24.1 35.5 36.6 59.6 27.8s36.6-35.5 27.8-59.6c-2.7-7.5-7.1-13.8-12.7-18.8-3.1-2.7-65.2-58.6-65.2-58.6zm0 270s-11.4 82.8-11.9 86.8c-1 7.3-.4 15 2.4 22.4 8.8 24.1 35.5 36.6 59.6 27.8s36.6-35.5 27.8-59.6c-2.7-7.5-7.1-13.8-12.7-18.8-3.1-2.6-65.2-58.6-65.2-58.6zm349-1350.2s-11.4 82.8-11.9 86.8c-1 7.3-.4 15 2.4 22.4 8.8 24.1 35.5 36.6 59.6 27.8s36.6-35.5 27.8-59.6c-2.7-7.5-7.1-13.8-12.7-18.8-3.1-2.7-65.2-58.6-65.2-58.6zm0 270s-11.4 82.8-11.9 86.8c-1 7.3-.4 15 2.4 22.4 8.8 24.1 35.5 36.6 59.6 27.8s36.6-35.5 27.8-59.6c-2.7-7.5-7.1-13.8-12.7-18.8-3.1-2.6-65.2-58.6-65.2-58.6zm0 270.1s-11.4 82.8-11.9 86.8c-1 7.3-.4 15 2.4 22.4 8.8 24.1 35.5 36.6 59.6 27.8s36.6-35.5 27.8-59.6c-2.7-7.5-7.1-13.8-12.7-18.8-3.1-2.7-65.2-58.6-65.2-58.6zm0 270s-11.4 82.8-11.9 86.8c-1 7.3-.4 15 2.4 22.4 8.8 24.1 35.5 36.6 59.6 27.8s36.6-35.5 27.8-59.6c-2.7-7.5-7.1-13.8-12.7-18.8-3.1-2.6-65.2-58.6-65.2-58.6zm0 270.1s-11.4 82.8-11.9 86.8c-1 7.3-.4 15 2.4 22.4 8.8 24.1 35.5 36.6 59.6 27.8s36.6-35.5 27.8-59.6c-2.7-7.5-7.1-13.8-12.7-18.8-3.1-2.7-65.2-58.6-65.2-58.6zm0 270s-11.4 82.8-11.9 86.8c-1 7.3-.4 15 2.4 22.4 8.8 24.1 35.5 36.6 59.6 27.8s36.6-35.5 27.8-59.6c-2.7-7.5-7.1-13.8-12.7-18.8-3.1-2.6-65.2-58.6-65.2-58.6zM1449.5 380.1s-11.4 82.8-11.9 86.8c-1 7.3-.4 15 2.4 22.4 8.8 24.1 35.5 36.6 59.6 27.8s36.6-35.5 27.8-59.6c-2.7-7.5-7.1-13.8-12.7-18.8-3.1-2.7-65.2-58.6-65.2-58.6zm0 270s-11.4 82.8-11.9 86.8c-1 7.3-.4 15 2.4 22.4 8.8 24.1 35.5 36.6 59.6 27.8s36.6-35.5 27.8-59.6c-2.7-7.5-7.1-13.8-12.7-18.8-3.1-2.6-65.2-58.6-65.2-58.6zm0 270.1s-11.4 82.8-11.9 86.8c-1 7.3-.4 15 2.4 22.4 8.8 24.1 35.5 36.6 59.6 27.8s36.6-35.5 27.8-59.6c-2.7-7.5-7.1-13.8-12.7-18.8-3.1-2.7-65.2-58.6-65.2-58.6zm0 270s-11.4 82.8-11.9 86.8c-1 7.3-.4 15 2.4 22.4 8.8 24.1 35.5 36.6 59.6 27.8s36.6-35.5 27.8-59.6c-2.7-7.5-7.1-13.8-12.7-18.8-3.1-2.6-65.2-58.6-65.2-58.6zm0 270.1s-11.4 82.8-11.9 86.8c-1 7.3-.4 15 2.4 22.4 8.8 24.1 35.5 36.6 59.6 27.8s36.6-35.5 27.8-59.6c-2.7-7.5-7.1-13.8-12.7-18.8-3.1-2.7-65.2-58.6-65.2-58.6z" id="Layer_2"/>
    <g id="STROKES">
        <path class="st1" d="M228 214.1s-11.4 82.8-11.9 86.8c-1 7.3-.4 15 2.4 22.4 8.8 24.1 35.5 36.6 59.6 27.8s36.6-35.5 27.8-59.6c-2.7-7.5-7.1-13.8-12.7-18.8-3.1-2.7-65.2-58.6-65.2-58.6z"/>
        <path class="st1" d="M228 484.1s-11.4 82.8-11.9 86.8c-1 7.3-.4 15 2.4 22.4 8.8 24.1 35.5 36.6 59.6 27.8s36.6-35.5 27.8-59.6c-2.7-7.5-7.1-13.8-12.7-18.8-3.1-2.6-65.2-58.6-65.2-58.6z"/>
        <path class="st1" d="M228 754.2S216.6 837 216.1 841c-1 7.3-.4 15 2.4 22.4 8.8 24.1 35.5 36.6 59.6 27.8s36.6-35.5 27.8-59.6c-2.7-7.5-7.1-13.8-12.7-18.8-3.1-2.7-65.2-58.6-65.2-58.6z"/>
        <path class="st1" d="M228 1024.2s-11.4 82.8-11.9 86.8c-1 7.3-.4 15 2.4 22.4 8.8 24.1 35.5 36.6 59.6 27.8s36.6-35.5 27.8-59.6c-2.7-7.5-7.1-13.8-12.7-18.8-3.1-2.6-65.2-58.6-65.2-58.6z"/>
        <path class="st1" d="M228 1294.3s-11.4 82.8-11.9 86.8c-1 7.3-.4 15 2.4 22.4 8.8 24.1 35.5 36.6 59.6 27.8s36.6-35.5 27.8-59.6c-2.7-7.5-7.1-13.8-12.7-18.8-3.1-2.7-65.2-58.6-65.2-58.6z"/>
        <path class="st1" d="M228 1564.3s-11.4 82.8-11.9 86.8c-1 7.3-.4 15 2.4 22.4 8.8 24.1 35.5 36.6 59.6 27.8s36.6-35.5 27.8-59.6c-2.7-7.5-7.1-13.8-12.7-18.8-3.1-2.6-65.2-58.6-65.2-58.6z"/>
        <path class="st1" d="M402.5 380.1s-11.4 82.8-11.9 86.8c-1 7.3-.4 15 2.4 22.4 8.8 24.1 35.5 36.6 59.6 27.8s36.6-35.5 27.8-59.6c-2.7-7.5-7.1-13.8-12.7-18.8-3.1-2.7-65.2-58.6-65.2-58.6z"/>
        <path class="st1" d="M402.5 650.1s-11.4 82.8-11.9 86.8c-1 7.3-.4 15 2.4 22.4 8.8 24.1 35.5 36.6 59.6 27.8s36.6-35.5 27.8-59.6c-2.7-7.5-7.1-13.8-12.7-18.8-3.1-2.6-65.2-58.6-65.2-58.6z"/>
        <path class="st1" d="M402.5 920.2s-11.4 82.8-11.9 86.8c-1 7.3-.4 15 2.4 22.4 8.8 24.1 35.5 36.6 59.6 27.8s36.6-35.5 27.8-59.6c-2.7-7.5-7.1-13.8-12.7-18.8-3.1-2.7-65.2-58.6-65.2-58.6z"/>
        <path class="st1" d="M402.5 1190.2s-11.4 82.8-11.9 86.8c-1 7.3-.4 15 2.4 22.4 8.8 24.1 35.5 36.6 59.6 27.8s36.6-35.5 27.8-59.6c-2.7-7.5-7.1-13.8-12.7-18.8-3.1-2.6-65.2-58.6-65.2-58.6z"/>
        <path class="st1" d="M402.5 1460.3s-11.4 82.8-11.9 86.8c-1 7.3-.4 15 2.4 22.4 8.8 24.1 35.5 36.6 59.6 27.8s36.6-35.5 27.8-59.6c-2.7-7.5-7.1-13.8-12.7-18.8-3.1-2.7-65.2-58.6-65.2-58.6z"/>
        <path class="st1" d="M577 214.1s-11.4 82.8-11.9 86.8c-1 7.3-.4 15 2.4 22.4 8.8 24.1 35.5 36.6 59.6 27.8s36.6-35.5 27.8-59.6c-2.7-7.5-7.1-13.8-12.7-18.8-3.1-2.7-65.2-58.6-65.2-58.6z"/>
        <path class="st1" d="M577 484.1s-11.4 82.8-11.9 86.8c-1 7.3-.4 15 2.4 22.4 8.8 24.1 35.5 36.6 59.6 27.8s36.6-35.5 27.8-59.6c-2.7-7.5-7.1-13.8-12.7-18.8-3.1-2.6-65.2-58.6-65.2-58.6z"/>
        <path class="st1" d="M577 754.2S565.6 837 565.1 841c-1 7.3-.4 15 2.4 22.4 8.8 24.1 35.5 36.6 59.6 27.8s36.6-35.5 27.8-59.6c-2.7-7.5-7.1-13.8-12.7-18.8-3.1-2.7-65.2-58.6-65.2-58.6z"/>
        <path class="st1" d="M577 1024.2s-11.4 82.8-11.9 86.8c-1 7.3-.4 15 2.4 22.4 8.8 24.1 35.5 36.6 59.6 27.8s36.6-35.5 27.8-59.6c-2.7-7.5-7.1-13.8-12.7-18.8-3.1-2.6-65.2-58.6-65.2-58.6z"/>
        <path class="st1" d="M577 1294.3s-11.4 82.8-11.9 86.8c-1 7.3-.4 15 2.4 22.4 8.8 24.1 35.5 36.6 59.6 27.8s36.6-35.5 27.8-59.6c-2.7-7.5-7.1-13.8-12.7-18.8-3.1-2.7-65.2-58.6-65.2-58.6z"/>
        <path class="st1" d="M577 1564.3s-11.4 82.8-11.9 86.8c-1 7.3-.4 15 2.4 22.4 8.8 24.1 35.5 36.6 59.6 27.8s36.6-35.5 27.8-59.6c-2.7-7.5-7.1-13.8-12.7-18.8-3.1-2.6-65.2-58.6-65.2-58.6z"/>
        <path class="st1" d="M751.5 380.1s-11.4 82.8-11.9 86.8c-1 7.3-.4 15 2.4 22.4 8.8 24.1 35.5 36.6 59.6 27.8s36.6-35.5 27.8-59.6c-2.7-7.5-7.1-13.8-12.7-18.8-3.1-2.7-65.2-58.6-65.2-58.6z"/>
        <path class="st1" d="M751.5 650.1s-11.4 82.8-11.9 86.8c-1 7.3-.4 15 2.4 22.4 8.8 24.1 35.5 36.6 59.6 27.8s36.6-35.5 27.8-59.6c-2.7-7.5-7.1-13.8-12.7-18.8-3.1-2.6-65.2-58.6-65.2-58.6z"/>
        <path class="st1" d="M751.5 920.2s-11.4 82.8-11.9 86.8c-1 7.3-.4 15 2.4 22.4 8.8 24.1 35.5 36.6 59.6 27.8s36.6-35.5 27.8-59.6c-2.7-7.5-7.1-13.8-12.7-18.8-3.1-2.7-65.2-58.6-65.2-58.6z"/>
        <path class="st1" d="M751.5 1190.2s-11.4 82.8-11.9 86.8c-1 7.3-.4 15 2.4 22.4 8.8 24.1 35.5 36.6 59.6 27.8s36.6-35.5 27.8-59.6c-2.7-7.5-7.1-13.8-12.7-18.8-3.1-2.6-65.2-58.6-65.2-58.6z"/>
        <path class="st1" d="M751.5 1460.3s-11.4 82.8-11.9 86.8c-1 7.3-.4 15 2.4 22.4 8.8 24.1 35.5 36.6 59.6 27.8s36.6-35.5 27.8-59.6c-2.7-7.5-7.1-13.8-12.7-18.8-3.1-2.7-65.2-58.6-65.2-58.6z"/>
        <path class="st1" d="M926 214.1s-11.4 82.8-11.9 86.8c-1 7.3-.4 15 2.4 22.4 8.8 24.1 35.5 36.6 59.6 27.8s36.6-35.5 27.8-59.6c-2.7-7.5-7.1-13.8-12.7-18.8-3.1-2.7-65.2-58.6-65.2-58.6z"/>
        <path class="st1" d="M926 484.1s-11.4 82.8-11.9 86.8c-1 7.3-.4 15 2.4 22.4 8.8 24.1 35.5 36.6 59.6 27.8s36.6-35.5 27.8-59.6c-2.7-7.5-7.1-13.8-12.7-18.8-3.1-2.6-65.2-58.6-65.2-58.6z"/>
        <path class="st1" d="M926 754.2S914.6 837 914.1 841c-1 7.3-.4 15 2.4 22.4 8.8 24.1 35.5 36.6 59.6 27.8s36.6-35.5 27.8-59.6c-2.7-7.5-7.1-13.8-12.7-18.8-3.1-2.7-65.2-58.6-65.2-58.6z"/>
        <path class="st1" d="M926 1024.2s-11.4 82.8-11.9 86.8c-1 7.3-.4 15 2.4 22.4 8.8 24.1 35.5 36.6 59.6 27.8s36.6-35.5 27.8-59.6c-2.7-7.5-7.1-13.8-12.7-18.8-3.1-2.6-65.2-58.6-65.2-58.6z"/>
        <path class="st1" d="M926 1294.3s-11.4 82.8-11.9 86.8c-1 7.3-.4 15 2.4 22.4 8.8 24.1 35.5 36.6 59.6 27.8s36.6-35.5 27.8-59.6c-2.7-7.5-7.1-13.8-12.7-18.8-3.1-2.7-65.2-58.6-65.2-58.6z"/>
        <path class="st1" d="M926 1564.3s-11.4 82.8-11.9 86.8c-1 7.3-.4 15 2.4 22.4 8.8 24.1 35.5 36.6 59.6 27.8s36.6-35.5 27.8-59.6c-2.7-7.5-7.1-13.8-12.7-18.8-3.1-2.6-65.2-58.6-65.2-58.6z"/>
        <path class="st1" d="M1100.5 380.1s-11.4 82.8-11.9 86.8c-1 7.3-.4 15 2.4 22.4 8.8 24.1 35.5 36.6 59.6 27.8s36.6-35.5 27.8-59.6c-2.7-7.5-7.1-13.8-12.7-18.8-3.1-2.7-65.2-58.6-65.2-58.6z"/>
        <path class="st1" d="M1100.5 650.1s-11.4 82.8-11.9 86.8c-1 7.3-.4 15 2.4 22.4 8.8 24.1 35.5 36.6 59.6 27.8s36.6-35.5 27.8-59.6c-2.7-7.5-7.1-13.8-12.7-18.8-3.1-2.6-65.2-58.6-65.2-58.6z"/>
        <path class="st1" d="M1100.5 920.2s-11.4 82.8-11.9 86.8c-1 7.3-.4 15 2.4 22.4 8.8 24.1 35.5 36.6 59.6 27.8s36.6-35.5 27.8-59.6c-2.7-7.5-7.1-13.8-12.7-18.8-3.1-2.7-65.2-58.6-65.2-58.6z"/>
        <path class="st1" d="M1100.5 1190.2s-11.4 82.8-11.9 86.8c-1 7.3-.4 15 2.4 22.4 8.8 24.1 35.5 36.6 59.6 27.8s36.6-35.5 27.8-59.6c-2.7-7.5-7.1-13.8-12.7-18.8-3.1-2.6-65.2-58.6-65.2-58.6z"/>
        <path class="st1" d="M1100.5 1460.3s-11.4 82.8-11.9 86.8c-1 7.3-.4 15 2.4 22.4 8.8 24.1 35.5 36.6 59.6 27.8s36.6-35.5 27.8-59.6c-2.7-7.5-7.1-13.8-12.7-18.8-3.1-2.7-65.2-58.6-65.2-58.6z"/>
        <path class="st1" d="M1275 214.1s-11.4 82.8-11.9 86.8c-1 7.3-.4 15 2.4 22.4 8.8 24.1 35.5 36.6 59.6 27.8s36.6-35.5 27.8-59.6c-2.7-7.5-7.1-13.8-12.7-18.8-3.1-2.7-65.2-58.6-65.2-58.6z"/>
        <path class="st1" d="M1275 484.1s-11.4 82.8-11.9 86.8c-1 7.3-.4 15 2.4 22.4 8.8 24.1 35.5 36.6 59.6 27.8s36.6-35.5 27.8-59.6c-2.7-7.5-7.1-13.8-12.7-18.8-3.1-2.6-65.2-58.6-65.2-58.6z"/>
        <path class="st1" d="M1275 754.2s-11.4 82.8-11.9 86.8c-1 7.3-.4 15 2.4 22.4 8.8 24.1 35.5 36.6 59.6 27.8s36.6-35.5 27.8-59.6c-2.7-7.5-7.1-13.8-12.7-18.8-3.1-2.7-65.2-58.6-65.2-58.6z"/>
        <path class="st1" d="M1275 1024.2s-11.4 82.8-11.9 86.8c-1 7.3-.4 15 2.4 22.4 8.8 24.1 35.5 36.6 59.6 27.8s36.6-35.5 27.8-59.6c-2.7-7.5-7.1-13.8-12.7-18.8-3.1-2.6-65.2-58.6-65.2-58.6z"/>
        <path class="st1" d="M1275 1294.3s-11.4 82.8-11.9 86.8c-1 7.3-.4 15 2.4 22.4 8.8 24.1 35.5 36.6 59.6 27.8s36.6-35.5 27.8-59.6c-2.7-7.5-7.1-13.8-12.7-18.8-3.1-2.7-65.2-58.6-65.2-58.6z"/>
        <path class="st1" d="M1275 1564.3s-11.4 82.8-11.9 86.8c-1 7.3-.4 15 2.4 22.4 8.8 24.1 35.5 36.6 59.6 27.8s36.6-35.5 27.8-59.6c-2.7-7.5-7.1-13.8-12.7-18.8-3.1-2.6-65.2-58.6-65.2-58.6z"/>
        <path class="st1" d="M1624 214.1s-11.4 82.8-11.9 86.8c-1 7.3-.4 15 2.4 22.4 8.8 24.1 35.5 36.6 59.6 27.8s36.6-35.5 27.8-59.6c-2.7-7.5-7.1-13.8-12.7-18.8-3.1-2.7-65.2-58.6-65.2-58.6z"/>
        <path class="st1" d="M1624 484.1s-11.4 82.8-11.9 86.8c-1 7.3-.4 15 2.4 22.4 8.8 24.1 35.5 36.6 59.6 27.8s36.6-35.5 27.8-59.6c-2.7-7.5-7.1-13.8-12.7-18.8-3.1-2.6-65.2-58.6-65.2-58.6z"/>
        <path class="st1" d="M1624 754.2s-11.4 82.8-11.9 86.8c-1 7.3-.4 15 2.4 22.4 8.8 24.1 35.5 36.6 59.6 27.8s36.6-35.5 27.8-59.6c-2.7-7.5-7.1-13.8-12.7-18.8-3.1-2.7-65.2-58.6-65.2-58.6z"/>
        <path class="st1" d="M1624 1024.2s-11.4 82.8-11.9 86.8c-1 7.3-.4 15 2.4 22.4 8.8 24.1 35.5 36.6 59.6 27.8s36.6-35.5 27.8-59.6c-2.7-7.5-7.1-13.8-12.7-18.8-3.1-2.6-65.2-58.6-65.2-58.6z"/>
        <path class="st1" d="M1624 1294.3s-11.4 82.8-11.9 86.8c-1 7.3-.4 15 2.4 22.4 8.8 24.1 35.5 36.6 59.6 27.8s36.6-35.5 27.8-59.6c-2.7-7.5-7.1-13.8-12.7-18.8-3.1-2.7-65.2-58.6-65.2-58.6z"/>
        <path class="st1" d="M1624 1564.3s-11.4 82.8-11.9 86.8c-1 7.3-.4 15 2.4 22.4 8.8 24.1 35.5 36.6 59.6 27.8s36.6-35.5 27.8-59.6c-2.7-7.5-7.1-13.8-12.7-18.8-3.1-2.6-65.2-58.6-65.2-58.6z"/>
        <path class="st1" d="M1449.5 380.1s-11.4 82.8-11.9 86.8c-1 7.3-.4 15 2.4 22.4 8.8 24.1 35.5 36.6 59.6 27.8s36.6-35.5 27.8-59.6c-2.7-7.5-7.1-13.8-12.7-18.8-3.1-2.7-65.2-58.6-65.2-58.6z"/>
        <path class="st1" d="M1449.5 650.1s-11.4 82.8-11.9 86.8c-1 7.3-.4 15 2.4 22.4 8.8 24.1 35.5 36.6 59.6 27.8s36.6-35.5 27.8-59.6c-2.7-7.5-7.1-13.8-12.7-18.8-3.1-2.6-65.2-58.6-65.2-58.6z"/>
        <path class="st1" d="M1449.5 920.2s-11.4 82.8-11.9 86.8c-1 7.3-.4 15 2.4 22.4 8.8 24.1 35.5 36.6 59.6 27.8s36.6-35.5 27.8-59.6c-2.7-7.5-7.1-13.8-12.7-18.8-3.1-2.7-65.2-58.6-65.2-58.6z"/>
        <path class="st1" d="M1449.5 1190.2s-11.4 82.8-11.9 86.8c-1 7.3-.4 15 2.4 22.4 8.8 24.1 35.5 36.6 59.6 27.8s36.6-35.5 27.8-59.6c-2.7-7.5-7.1-13.8-12.7-18.8-3.1-2.6-65.2-58.6-65.2-58.6z"/>
        <path class="st1" d="M1449.5 1460.3s-11.4 82.8-11.9 86.8c-1 7.3-.4 15 2.4 22.4 8.8 24.1 35.5 36.6 59.6 27.8s36.6-35.5 27.8-59.6c-2.7-7.5-7.1-13.8-12.7-18.8-3.1-2.7-65.2-58.6-65.2-58.6z"/>
    </g>
</svg>
