<svg xmlns="http://www.w3.org/2000/svg" viewBox="0 0 1920 1920">
    <style>
        .st0{fill:#fff}.st1{fill:none;stroke:#231f20;stroke-width:50;stroke-linecap:round;stroke-linejoin:round;stroke-miterlimit:10}
    </style>
    <g id="STROKES">
        <path class="st1" d="M1027.7 300.3v83.3"/>
        <path class="st1" d="M1027.7 489v83.3"/>
        <path class="st1" d="M1027.7 677.7V761"/>
        <path class="st1" d="M1027.7 866.5v83.3"/>
        <path class="st1" d="M1027.7 1055.2v83.3"/>
        <path class="st1" d="M1027.7 1243.9v83.3"/>
        <path class="st1" d="M1027.7 1432.7v83.3"/>
        <path class="st1" d="M1027.7 1621.4v83.3"/>
        <path class="st1" d="M892.2 215.2v83.3"/>
        <path class="st1" d="M892.2 404v83.3"/>
        <path class="st1" d="M892.2 592.7V676"/>
        <path class="st1" d="M892.2 781.4v83.3"/>
        <path class="st1" d="M892.2 970.1v83.4"/>
        <path class="st1" d="M892.2 1158.9v83.3"/>
        <path class="st1" d="M892.2 1347.6v83.3"/>
        <path class="st1" d="M892.2 1536.3v83.4"/>
        <path class="st1" d="M756.7 300.3v83.3"/>
        <path class="st1" d="M756.7 489v83.3"/>
        <path class="st1" d="M756.7 677.7V761"/>
        <path class="st1" d="M756.7 866.5v83.3"/>
        <path class="st1" d="M756.7 1055.2v83.3"/>
        <path class="st1" d="M756.7 1243.9v83.3"/>
        <path class="st1" d="M756.7 1432.7v83.3"/>
        <path class="st1" d="M756.7 1621.4v83.3"/>
        <path class="st1" d="M621.2 215.2v83.3"/>
        <path class="st1" d="M621.2 404v83.3"/>
        <path class="st1" d="M621.2 592.7V676"/>
        <path class="st1" d="M621.2 781.4v83.3"/>
        <path class="st1" d="M621.2 970.1v83.4"/>
        <path class="st1" d="M621.2 1158.9v83.3"/>
        <path class="st1" d="M621.2 1347.6v83.3"/>
        <path class="st1" d="M621.2 1536.3v83.4"/>
        <path class="st1" d="M1163.1 215.2v83.3"/>
        <path class="st1" d="M1163.1 404v83.3"/>
        <path class="st1" d="M1163.1 592.7V676"/>
        <path class="st1" d="M1163.1 781.4v83.3"/>
        <path class="st1" d="M1163.1 970.1v83.4"/>
        <path class="st1" d="M1163.1 1158.9v83.3"/>
        <path class="st1" d="M1163.1 1347.6v83.3"/>
        <path class="st1" d="M1163.1 1536.3v83.4"/>
        <path class="st1" d="M1569.5 300.3v83.3"/>
        <path class="st1" d="M1569.5 489v83.3"/>
        <path class="st1" d="M1569.5 677.7V761"/>
        <path class="st1" d="M1569.5 866.5v83.3"/>
        <path class="st1" d="M1569.5 1055.2v83.3"/>
        <path class="st1" d="M1569.5 1243.9v83.3"/>
        <path class="st1" d="M1569.5 1432.7v83.3"/>
        <path class="st1" d="M1569.5 1621.4v83.3"/>
        <path class="st1" d="M1434.1 215.2v83.3"/>
        <path class="st1" d="M1434.1 404v83.3"/>
        <path class="st1" d="M1434.1 592.7V676"/>
        <path class="st1" d="M1434.1 781.4v83.3"/>
        <path class="st1" d="M1434.1 970.1v83.4"/>
        <path class="st1" d="M1434.1 1158.9v83.3"/>
        <path class="st1" d="M1434.1 1347.6v83.3"/>
        <path class="st1" d="M1434.1 1536.3v83.4"/>
        <path class="st1" d="M1298.6 300.3v83.3"/>
        <path class="st1" d="M1298.6 489v83.3"/>
        <path class="st1" d="M1298.6 677.7V761"/>
        <path class="st1" d="M1298.6 866.5v83.3"/>
        <path class="st1" d="M1298.6 1055.2v83.3"/>
        <path class="st1" d="M1298.6 1243.9v83.3"/>
        <path class="st1" d="M1298.6 1432.7v83.3"/>
        <path class="st1" d="M1298.6 1621.4v83.3"/>
        <path class="st1" d="M485.8 300.3v83.3"/>
        <path class="st1" d="M485.8 489v83.3"/>
        <path class="st1" d="M485.8 677.7V761"/>
        <path class="st1" d="M485.8 866.5v83.3"/>
        <path class="st1" d="M485.8 1055.2v83.3"/>
        <path class="st1" d="M485.8 1243.9v83.3"/>
        <path class="st1" d="M485.8 1432.7v83.3"/>
        <path class="st1" d="M485.8 1621.4v83.3"/>
        <path class="st1" d="M350.3 215.2v83.3"/>
        <path class="st1" d="M350.3 404v83.3"/>
        <path class="st1" d="M350.3 592.7V676"/>
        <path class="st1" d="M350.3 781.4v83.3"/>
        <path class="st1" d="M350.3 970.1v83.4"/>
        <path class="st1" d="M350.3 1158.9v83.3"/>
        <path class="st1" d="M350.3 1347.6v83.3"/>
        <path class="st1" d="M350.3 1536.3v83.4"/>
        <path class="st1" d="M214.8 300.3v83.3"/>
        <path class="st1" d="M214.8 489v83.3"/>
        <path class="st1" d="M214.8 677.7V761"/>
        <path class="st1" d="M214.8 866.5v83.3"/>
        <path class="st1" d="M214.8 1055.2v83.3"/>
        <path class="st1" d="M214.8 1243.9v83.3"/>
        <path class="st1" d="M214.8 1432.7v83.3"/>
        <path class="st1" d="M214.8 1621.4v83.3"/>
        <path class="st1" d="M1705 215.2v83.3"/>
        <path class="st1" d="M1705 404v83.3"/>
        <path class="st1" d="M1705 592.7V676"/>
        <path class="st1" d="M1705 781.4v83.3"/>
        <path class="st1" d="M1705 970.1v83.4"/>
        <path class="st1" d="M1705 1158.9v83.3"/>
        <path class="st1" d="M1705 1347.6v83.3"/>
        <path class="st1" d="M1705 1536.3v83.4"/>
    </g>
</svg>
