<svg xmlns="http://www.w3.org/2000/svg" viewBox="0 0 1920 1920">
    <style>
        .st0{fill:#fff}.st1{fill:none;stroke:#231f20;stroke-width:50;stroke-linecap:round;stroke-linejoin:round;stroke-miterlimit:10}
    </style>
    <path class="st0" d="M960 936.6c-218 0-394.7 176.7-394.7 394.7h115.9c0-153.9 124.8-278.7 278.7-278.7s278.7 124.8 278.7 278.7h115.9c.2-218-176.5-394.7-394.5-394.7z" id="Layer_13"/>
    <path class="st0" d="M960 820.6c-282 0-510.6 228.6-510.6 510.6h115.9c0-218 176.7-394.7 394.7-394.7s394.7 176.7 394.7 394.7h115.9c0-282-228.6-510.6-510.6-510.6z" id="Layer_14"/>
    <path class="st0" d="M960 704.7c-346 0-626.6 280.5-626.6 626.6h115.9c0-282 228.6-510.6 510.6-510.6s510.6 228.6 510.6 510.6h115.9c.2-346.1-280.4-626.6-626.4-626.6z" id="Layer_15"/>
    <path class="st0" d="M960 588.8c-410.1 0-742.5 332.4-742.5 742.5h115.9c0-346 280.5-626.6 626.6-626.6s626.6 280.5 626.6 626.6h115.9c0-410.1-332.4-742.5-742.5-742.5z" id="Layer_16"/>
    <g id="STROKES">
        <g id="XMLID_1_">
            <path class="st1" d="M1586.6 1331.2h115.9c0-410.1-332.4-742.5-742.5-742.5s-742.5 332.4-742.5 742.5h463.6c0-153.9 124.8-278.7 278.7-278.7s278.7 124.8 278.7 278.7h348.1z"/>
            <path class="st1" d="M333.4 1331.2c0-346 280.5-626.6 626.6-626.6s626.6 280.5 626.6 626.6"/>
            <path class="st1" d="M449.4 1331.2c0-282 228.6-510.6 510.6-510.6s510.6 228.6 510.6 510.6"/>
            <path class="st1" d="M565.3 1331.2c0-218 176.7-394.7 394.7-394.7s394.7 176.7 394.7 394.7"/>
        </g>
    </g>
</svg>
