<svg xmlns="http://www.w3.org/2000/svg" viewBox="0 0 1920 1920">
    <style>
        .st0{fill:#fff}.st1{fill:none;stroke:#231f20;stroke-width:50;stroke-linecap:round;stroke-linejoin:round;stroke-miterlimit:10}
    </style>
    <path class="st0" d="M776.2 1514.8c20.3-21.2 32.7-50.1 32.1-81.9-.6-34.9-16.9-66.1-42.1-86.9-19.4-16-44.1-25.8-71-26.3h-4.6c-15.6.3-30.5 3.7-44 9.7-10.5-12-22.3-22.8-35.3-32.1-22.1-16-47.5-27.8-75-34.3-15.5-3.7-31.7-5.6-48.3-5.6-11.7 0-23.2 1-34.4 2.8-32.8 5.4-63 18.3-88.9 37-24.8 17.9-45.5 41.1-60.6 67.9-17.1 30.4-26.8 65.5-26.8 102.9 0 3.6.1 7.1.3 10.7-.9.8-1.9 1.5-2.8 2.3-14.3 12.1-26.8 26.4-36.8 42.4-10.7 17-18.6 35.9-23.2 56.1 0 25.8 20.9 46.7 46.7 46.7h498.3v-.2c29.7-2.3 53.1-27.2 53.1-57.5 0-24.5-15.2-45.3-36.7-53.7z" id="Layer_17"/>
    <path class="st0" d="M1497 627.6c-54.4-5.9-109.2-6.3-163.9-1.3-365.6 33.5-662.1 313.2-721.8 670.8 12.9 9.3 24.8 20.1 35.3 32.1 13.5-5.9 28.3-9.4 44-9.7v-1.3c51.5-336.7 334-597.1 680.7-614.5 49.9-2.5 99.3 0 147.8 7.3 64.1 9.8 125.4 27.9 182.7 53.2v-86.5c-64.7-25.2-133.3-42.3-204.8-50.1z" id="Layer_18"/>
    <path class="st0" d="M1519 711c-48.5-7.3-97.9-9.8-147.8-7.3-346.7 17.4-629.1 277.8-680.7 614.5v1.3h4.6c26.9.5 51.6 10.3 71 26.3 38.6-321.2 311.4-564.8 643-564.8 105.2 0 204.6 25.1 292.5 69.6v-86.5c-57.3-25.2-118.6-43.3-182.6-53.1z" id="Layer_19"/>
    <path class="st0" d="M1475 544.1c-60.3-4.4-120.5-2.8-179.9 4.8-381.9 48.3-688 339.4-758.8 713.9 27.5 6.4 52.8 18.2 75 34.3 59.8-357.6 356.2-637.3 721.9-670.8 54.7-5 109.5-4.6 163.9 1.3 71.5 7.8 140.1 24.9 204.7 50.2v-86.5c-71.9-25.1-147.9-41.3-226.8-47.2z" id="Layer_20"/>
    <path class="st0" d="M1453.1 460.7c-66.3-2.9-131.8.8-196 10.8-408.4 63.8-732.2 382.5-803.6 788.6 11.2-1.9 22.7-2.8 34.4-2.8 16.6 0 32.8 1.9 48.3 5.6C607.1 888.3 913.1 597.3 1295 549c59.4-7.5 119.6-9.1 179.9-4.8 78.9 5.9 154.9 22 226.7 47.1v-86.5c-78.9-25-162.2-40.2-248.5-44.1z" id="Layer_21"/>
    <path class="st0" d="M1431.1 377.3c-72.2-1.5-143.1 4.3-212 16.9-448.2 81.4-797.3 446.7-854.5 903 25.8-18.7 56.1-31.7 88.9-37 71.3-406 395.1-724.8 803.6-788.6 64.2-10 129.7-13.7 196-10.8 86.3 3.9 169.7 19.1 248.6 44.1v-86.5c-86.2-25-176.8-39.2-270.6-41.1z" id="Layer_22"/>
    <path class="st0" d="M1409.2 293.8C782 293.8 273.5 802.3 273.5 1429.4c0 18.7.3 33.1 1.2 51.6.9-.8 1.9-1.6 2.8-2.3-.2-3.5-.3-7.1-.3-10.7 0-37.4 9.8-72.5 26.8-102.9 15-26.8 35.8-50 60.6-67.9 57.1-456.2 406.3-821.5 854.5-903 68.9-12.5 139.8-18.3 212-16.9 93.7 2 184.4 16.2 270.6 41.1v-86.5c-93.3-24.8-191.4-38.1-292.5-38.1z" id="Layer_2"/>
    <g id="STROKES">
        <path class="st1" d="M274.7 1481c-.9-18.4-1.2-32.9-1.2-51.6 0-627.2 508.4-1135.6 1135.6-1135.6 101.1 0 199.2 13.2 292.5 38.1v519c-87.9-44.5-187.3-69.6-292.5-69.6-331.6 0-604.4 243.6-643 564.8"/>
        <path class="st1" d="M364.6 1297.1c57.1-456.2 406.3-821.5 854.4-903 68.9-12.5 139.8-18.3 212-16.9 93.7 2 184.4 16.2 270.6 41.1"/>
        <path class="st1" d="M453.4 1260.7c0-.2.1-.4.1-.6 71.3-406 395.1-724.8 803.6-788.5 64.2-10 129.7-13.7 196-10.8 86.3 3.9 169.7 19.1 248.6 44.1"/>
        <path class="st1" d="M536.1 1263.8c.1-.3.1-.7.2-1 70.9-374.6 376.9-665.6 758.8-713.9 59.4-7.5 119.6-9.1 179.9-4.8 78.9 5.8 154.9 22 226.7 47.1"/>
        <path class="st1" d="M611.3 1297.1c59.8-357.6 356.2-637.3 721.9-670.8 54.7-5 109.5-4.6 163.9 1.3 71.5 7.8 140.1 24.9 204.7 50.2"/>
        <path class="st1" d="M690.5 1318.2c51.5-336.7 334-597.1 680.7-614.5 49.9-2.5 99.3 0 147.8 7.3 64.1 9.8 125.4 27.9 182.7 53.2"/>
        <path class="st1" d="M274.7 1481c.9-.8 1.9-1.6 2.8-2.3-.2-3.5-.3-7.1-.3-10.7 0-37.4 9.8-72.5 26.8-102.9 15.1-26.8 35.8-50 60.6-67.9 25.8-18.7 56.1-31.7 88.9-37 11.2-1.8 22.7-2.8 34.4-2.8 16.6 0 32.8 1.9 48.3 5.6 27.5 6.4 52.8 18.2 75 34.3 12.9 9.3 24.8 20.1 35.3 32.1 13.5-5.9 28.3-9.4 44-9.7h4.6c26.9.5 51.6 10.3 71 26.3 25.2 20.8 41.5 52.1 42.1 86.9.6 31.8-11.8 60.8-32.1 81.9 21.5 8.4 36.7 29.3 36.7 53.7 0 30.3-23.4 55.2-53.1 57.5v.2H261.4c-25.8 0-46.7-20.9-46.7-46.7 4.6-20.2 12.5-39 23.2-56.1 10-16 22.5-30.3 36.8-42.4z"/>
    </g>
</svg>
