<svg xmlns="http://www.w3.org/2000/svg" viewBox="0 0 1920 1920">
    <style>
        .st0{fill:#fff}.st1,.st2{fill:none;stroke:#231f20;stroke-width:50;stroke-linecap:round;stroke-linejoin:round;stroke-miterlimit:10}.st2{stroke-width:60}
    </style>
    <path class="st0" d="M681.7 1237.9l.1.1s-26.3 96.8 60.7 183.7c87 87 4.9 200.1 4.9 200.1l-.7.7L297 1172.8l.8-.8c4.5-3.2 114.8-80.2 200 5 87 87 183.7 60.7 183.7 60.7l.2.2z" id="Layer_2"/>
    <g id="STROKES">
        <g id="XMLID_1_">
            <path class="st1" d="M1696.3 223.2L681.7 1237.8v.1h-.1"/>
            <path class="st1" d="M297 1172.8l449.7 449.7"/>
            <path class="st1" d="M212.2 1256.6l84.1-84"/>
            <path class="st1" d="M662.4 1706.8l84.1-84"/>
            <path class="st1" d="M546.6 1597.6l84-84.1"/>
            <path class="st1" d="M606.1 1650.5l84.1-84"/>
            <path class="st1" d="M434 1485l84.1-84"/>
            <path class="st1" d="M493.6 1538l84.1-84.1"/>
            <path class="st1" d="M377.8 1428.8l84-84.1"/>
            <path class="st1" d="M265.2 1316.2l84-84"/>
            <path class="st1" d="M324.8 1369.2l84-84.1"/>
            <path class="st1" d="M297.7 1172.1s.1 0 .1-.1c4.5-3.2 114.8-80.2 200 5 87 87 183.7 60.7 183.7 60.7"/>
            <path class="st1" d="M747.4 1621.8s82-113.1-4.9-200.1c-87-87-60.7-183.7-60.7-183.7"/>
        </g>
    </g>
</svg>
