<svg xmlns="http://www.w3.org/2000/svg" viewBox="0 0 1920 1920">
    <style>
        .st0{fill:#fff}.st1{fill:none;stroke:#231f20;stroke-width:50;stroke-linecap:round;stroke-linejoin:round;stroke-miterlimit:10}
    </style>
    <path class="st0" d="M1493.5 445.4l-103.9 128.3c6.3 7.1 12.4 14.3 18.3 21.7 7.5 9.3 14.7 18.9 21.6 28.7l32.5-8.5 55.8 56.9 53.4 59.2-25.3 77.1-3.9 80.8-9.3 8.3c2.2 20.6 3.3 41.5 3.3 62.7 0 5.2-.1 10.4-.2 15.5-.2 5.9-.4 11.8-.7 17.7l37.9 31.7 73.8 33.7 7.4 79.4 3.6 70.6c13.8-38.9 24.5-79.3 31.8-121s11-84.4 11-128.1c0-199.9-78.8-381.2-207.1-514.7zm42.4 876.7l-81.2 3.6-73.4 34.9-2.9-.9c-37.2 39.8-80 74.4-127 102.6-23.9 14.3-48.9 27-74.9 37.8-35.6 14.9-73 26.3-111.8 34-15.2 3-30.7 5.4-46.4 7.2-22 2.5-44.4 3.8-67 3.8-30 0-59.4-2.3-88.2-6.6-6.7-1-13.3-2.1-20-3.4-44.7-8.4-87.6-21.8-128.1-39.7-155.9-69-276-204.2-324.7-369.9-14.2-48.5-22.3-99.6-23.5-152.5-.1-4.1-.1-8.3-.1-12.5 0-48.9 6-96.4 17.3-141.7 13.4-53.9 34.3-104.8 61.5-151.5 101.4-174.2 290-291.3 506-291.3 33.8 0 66.9 2.9 99.2 8.4 73.9 12.6 143 39.1 204.7 76.7l61.9-76.4 67.5 54.6 43.8-54.1C1300.3 280.1 1136.3 217 957.5 217c-410.4 0-743.1 332.7-743.1 743s332.7 743.1 743.1 743.1c318.5 0 590.1-200.3 695.8-481.9l-63.3 40.7-54.1 60.2z" id="Layer_2"/>
    <path class="st0" d="M1223 1344.6l-49.9-41.7-12.2-10.2-73.8-33.6-7.4-79.4-4-79.6 27.7-17.8c-3.7-7.5-7.6-15-11.6-22.3l-46.9-52 5.2-16 20-61.1 1.8-37.7-31.8-25.8-6.6 8.1-7.3 9-28.6-23.1-40.1-32.5L1253.1 464l2.3-2.8c-61.7-37.6-130.8-64.1-204.7-76.7-32.2-5.5-65.4-8.4-99.2-8.4-216 0-404.6 117.1-505.8 291.3-27.2 46.8-48.1 97.7-61.5 151.5C373 864.2 367 911.7 367 960.6c0 4.2 0 8.3.1 12.5 1.1 52.8 9.2 104 23.5 152.5 48.7 165.8 168.8 300.9 324.7 369.9 40.5 17.9 83.4 31.4 128.1 39.7 6.6 1.2 13.3 2.4 20 3.4 28.8 4.3 58.2 6.6 88.2 6.6 22.7 0 45-1.3 67-3.8 15.6-1.8 31.1-4.2 46.4-7.2 38.8-7.6 76.2-19.1 111.8-34 26-10.8 51-23.5 74.9-37.8 47-28.2 89.8-62.8 127-102.6l-74.7-23.1-81 7.9zm185-749.2c-5.9-7.4-12-14.6-18.3-21.7l-18.7 23.1-31.4 38.7 44 .5 46-12c-7-9.7-14.2-19.3-21.6-28.6z" id="Layer_4"/>
    <path class="st0" d="M1442.5 368l-14 17.3-43.8 54.1 1.2 1-58.7 72.5c-.4-.3-.8-.7-1.2-1l58.6-72.4-67.5-54.6-61.9 76.4-2.3 2.8-295.2 364.8 40.1 32.5 28.6 23.1 7.3-9 6.6-8.1-.5-.4-.7-.6L1140 741.8l88.6-109.5c1-.4 2-.9 3-1.3l-191.4 236.4 31.8 25.8 2.1-43.1 60.7-54.1 34.9-73.3 75.3-30.3 57.7-57.2 37 .5 31.4-38.7 18.7-23.1 103.9-128.3 17.6-21.8-68.8-55.8z" id="Layer_5"/>
    <path class="st0" d="M1654.2 1138.4l-7.4-79.4-73.8-33.7-37.9-31.7-24.2-20.2-45.9 4.5 16.4-34.5 16.1-14.4 32.1-28.6 3.1-2.8 9.3-8.3 3.9-80.8 25.3-77.1-53.4-59.2-55.8-56.9-32.5 8.5-46 12-44-.5-37-.5-57.7 57.2-75.3 30.3-34.9 73.3-60.7 54.1-2.1 43.1-1.8 37.7-20 61.1-5.2 16 46.9 52 3.2 3.5 3.3 3.7 11.1 11.3-6 3.8-27.7 17.8 4 79.6 7.4 79.4 73.8 33.6 12.2 10.2 49.9 41.7 80.9-8 74.7 23.1 2.9.9 73.4-34.9 81.2-3.6 54.1-60.2 63.3-40.7c1.5-4 3-8.1 4.4-12.1l-3.6-70.3z" id="Layer_7"/>
    <g id="STROKES">
        <path class="st1" d="M1700.6 960c0 87.4-15.1 171.2-42.8 249-1.5 4.1-2.9 8.1-4.4 12.1C1547.7 1502.6 1276 1703 957.6 1703c-410.4 0-743.1-332.7-743.1-743.1s332.7-743 743.1-743c178.8 0 342.8 63.1 471 168.3l-43.8 54.1 1.2 1-58.7 72.5-95.8 118.2-191.4 236.4 31.8 25.8 2.1-43.1 60.7-54.1 34.9-73.3 75.3-30.3 57.7-57.2 37 .5L1371 597l18.7-23.1 103.9-128.3c128.2 133.3 207 314.6 207 514.4z"/>
        <path class="st1" d="M726.3 1415.5c0 27.7-3.8 54.5-11 79.9-155.9-69-276.1-204.2-324.7-369.9 13.9-2 28.1-3.1 42.6-3.1 161.8 0 293.1 131.2 293.1 293.1z"/>
        <path class="st1" d="M1253.1 464L957.7 828.9l40.1 32.5c-6.4 14.4-12 29.2-16.9 44.3-36.6-39.3-77.4-74.6-121.6-105.3-41-28.4-85-52.9-131.3-72.8-86.8-37.2-182.1-58.5-282.2-60.2C546.9 493.1 735.5 376 951.5 376c33.8 0 66.9 2.9 99.2 8.4 73.9 12.6 143 39.1 204.7 76.7l-2.3 2.9z"/>
        <path class="st1" d="M1327.2 512.8L1231.5 631c-1 .4-2 .9-3 1.3l97.6-120.5c.4.3.8.6 1.1 1z"/>
        <path class="st1" d="M1408 595.4h-1.2c-12.1 0-24 .5-35.8 1.4l18.7-23.1c6.2 7.1 12.3 14.3 18.3 21.7z"/>
        <path class="st1" d="M1181.4 1415.5c0 4.6 0 9.1-.1 13.6-.4 24-2 47.7-4.6 71.1-35.6 14.9-73 26.4-111.8 34-15.2 3-30.7 5.4-46.4 7.2 2.6-12.3 4.9-24.7 6.7-37.3 4.3-28.9 6.5-58.4 6.5-88.5 0-60.2-8.9-118.4-25.5-173.3-8.4-27.7-18.7-54.6-30.8-80.5-37.8-80.6-93-151.4-160.8-207.5-41.1-34-86.8-62.6-136-84.8-74.9-33.7-158-52.5-245.5-52.5-16.5 0-32.8.7-48.9 2 13.4-53.9 34.3-104.8 61.5-151.5 100.1 1.6 195.4 22.9 282.2 60.2 46.4 19.9 90.3 44.3 131.3 72.8 44.2 30.7 85 66.1 121.6 105.3 25.1 27 48.3 55.8 69.3 86.3l-5.2 16 46.9 52c4 7.4 7.9 14.8 11.6 22.3l-27.7 17.8 4 79.6 7.4 79.4 73.8 33.6 12.2 10.2c5.5 36.6 8.3 74.2 8.3 112.5z"/>
        <path class="st1" d="M726.3 1415.5c0 27.7-3.8 54.5-11 79.9-155.9-69-276.1-204.2-324.7-369.9 13.9-2 28.1-3.1 42.6-3.1 161.8 0 293.1 131.2 293.1 293.1z"/>
        <path class="st1" d="M726.3 1415.5c0 27.7-3.8 54.5-11 79.9-155.9-69-276.1-204.2-324.7-369.9 13.9-2 28.1-3.1 42.6-3.1 161.8 0 293.1 131.2 293.1 293.1z"/>
        <path class="st1" d="M726.3 1415.5c0 27.7-3.8 54.5-11 79.9-155.9-69-276.1-204.2-324.7-369.9 13.9-2 28.1-3.1 42.6-3.1 161.8 0 293.1 131.2 293.1 293.1z"/>
        <path class="st1" d="M726.3 1415.5c0 27.7-3.8 54.5-11 79.9-155.9-69-276.1-204.2-324.7-369.9 13.9-2 28.1-3.1 42.6-3.1 161.8 0 293.1 131.2 293.1 293.1z"/>
        <path class="st1" d="M726.3 1415.5c0 27.7-3.8 54.5-11 79.9-155.9-69-276.1-204.2-324.7-369.9 13.9-2 28.1-3.1 42.6-3.1 161.8 0 293.1 131.2 293.1 293.1z"/>
        <path class="st1" d="M880.5 1415.5c0 42.7-6 83.9-17.1 123-6.7-1-13.3-2.1-20-3.4-44.7-8.4-87.6-21.8-128.1-39.7 7.2-25.4 11-52.2 11-79.9 0-161.9-131.2-293.1-293.1-293.1-14.5 0-28.7 1-42.6 3.1-14.2-48.5-22.4-99.6-23.5-152.5 21.6-3.2 43.6-4.9 66.1-4.9 82.2 0 159.2 22.2 225.4 60.9 75 43.8 136 108.9 175 186.9 12.8 25.5 23.1 52.5 30.8 80.5 10.5 38 16.1 77.9 16.1 119.1z"/>
        <path class="st1" d="M726.3 1415.5c0 27.7-3.8 54.5-11 79.9-155.9-69-276.1-204.2-324.7-369.9 13.9-2 28.1-3.1 42.6-3.1 161.8 0 293.1 131.2 293.1 293.1z"/>
        <path class="st1" d="M1031.8 1415.5c0 30.1-2.2 59.6-6.5 88.5-1.9 12.6-4.1 25-6.7 37.3-22 2.5-44.4 3.8-67 3.8-30 0-59.4-2.3-88.2-6.6 11.2-39.1 17.1-80.3 17.1-123 0-41.2-5.6-81.1-16-119-7.7-28-18.1-55-30.8-80.5-38.9-78-100-143-175-186.9-66.2-38.7-143.2-60.9-225.4-60.9-22.5 0-44.5 1.6-66.1 4.9-.1-4.1-.1-8.3-.1-12.5 0-48.9 6-96.4 17.3-141.7 16.1-1.3 32.4-2 48.9-2 87.5 0 170.6 18.8 245.5 52.5 49.2 22.2 94.9 50.8 136 84.8 67.8 56.1 123 126.9 160.8 207.5 12.1 25.9 22.5 52.8 30.8 80.5 16.5 54.9 25.4 113 25.4 173.3z"/>
        <path class="st1" d="M1253.1 464L957.7 828.9l40.1 32.5c-6.4 14.4-12 29.2-16.9 44.3-36.6-39.3-77.4-74.6-121.6-105.3-41-28.4-85-52.9-131.3-72.8 68-146.1 181.7-266.6 322.8-343.1 73.9 12.6 143 39.1 204.7 76.7l-2.4 2.8z"/>
        <path class="st1" d="M1327.2 512.8L1231.5 631c-1 .4-2 .9-3 1.3l97.6-120.5c.4.3.8.6 1.1 1z"/>
        <path class="st1" d="M1408 595.4h-1.2c-12.1 0-24 .5-35.8 1.4l18.7-23.1c6.2 7.1 12.3 14.3 18.3 21.7z"/>
        <path class="st1" d="M957.7 828.9l40.1 32.5c-6.4 14.4-12 29.2-16.9 44.3-36.6-39.3-77.4-74.6-121.6-105.3 72.8-164.2 217.3-289.6 393.8-336.3L957.7 828.9z"/>
        <path class="st1" d="M1327.2 512.8L1231.5 631c-1 .4-2 .9-3 1.3l97.6-120.5c.4.3.8.6 1.1 1z"/>
        <path class="st1" d="M1408 595.4h-1.2c-12.1 0-24 .5-35.8 1.4l18.7-23.1c6.2 7.1 12.3 14.3 18.3 21.7z"/>
        <path class="st1" d="M1109.3 1078.4l-6 3.8c-3.7-7.5-7.6-15-11.6-22.3l6.5 7.2 11.1 11.3z"/>
        <path class="st1" d="M1378.6 1359.7c-37.2 39.8-80 74.4-127 102.6-23.9 14.3-48.9 27-74.9 37.8 2.6-23.4 4.2-47.1 4.6-71.1.1-4.5.1-9.1.1-13.6 0-38.3-2.9-75.9-8.4-112.6l50 41.7 80.9-8 74.7 23.2z"/>
        <path class="st1" d="M1072 893.1l-1.8 37.7-20 61.1c-21-30.5-44.1-59.3-69.3-86.3 4.9-15.1 10.5-29.9 16.9-44.3l28.6 23.1 13.8-17.1 31.8 25.8z"/>
        <path class="st1" d="M1231.5 631l-191.4 236.4-1.2-1 189.5-234.1c1.1-.4 2.1-.9 3.1-1.3z"/>
        <path class="st1" d="M1429.5 624.1l-46 12-44-.5 31.4-38.7c11.8-.9 23.8-1.4 35.8-1.4h1.2c7.5 9.2 14.7 18.8 21.6 28.6z"/>
        <path class="st1" d="M1536 960.6c0 5.2-.1 10.4-.2 15.5-.2 5.9-.4 11.8-.7 17.7l-24.2-20.2-46 4.5 16.4-34.5 16.1-14.4 35.2-31.4c2.3 20.7 3.4 41.6 3.4 62.8z"/>
        <path class="st1" d="M1194.3 967.9c-30.7-65.2 3.7-153.2 76.7-196.6 58.4-34.7 125.7-20.5 150.2 31.7 19.6 41.7-2.3 98.1-49.1 125.8-37.4 22.2-80.4 13.1-96.1-20.3-12.6-26.7 1.5-62.8 31.4-80.5 23.9-14.2 51.5-8.4 61.5 13 8 17.1-1 40.2-20.1 51.5"/>
        <path class="st1" d="M1658.3 1218l-68.3 43.9-54.1 60.2-81.1 3.6-73.4 34.9-2.8-.9-74.7-23.1-80.9 8-50-41.7-12.2-10.2-73.8-33.7-7.3-79.3-4.1-79.6 27.8-17.8 5.9-3.9 7.6 7.7 37.2 37.9 78.5-20.5 19.5.3 23 .3 38.4.5 47.2-46.9 10.5-10.4 75.3-30.3 18.5-38.9 45.9-4.5 24.2 20.2 38 31.6 73.8 33.7 7.3 79.3z"/>
        <path class="st1" d="M1360.7 1057.7c13-.9 26.3-.4 39.6 1.6 67.2 10 110.4 63.4 96.5 119.4-11.1 44.8-63.7 74.6-117.5 66.6-43-6.4-70.7-40.6-61.8-76.4 7.1-28.7 40.8-47.7 75.2-42.6 27.5 4.1 45.2 26 39.5 48.9-4.6 18.3-26.1 30.6-48.1 27.3"/>
        <path class="st1" d="M1252.1 1103.8c-17.2 16.6-29.6 36.8-35.3 59.5"/>
        <path class="st1" d="M1511.2 423.6l-17.7 21.8-103.8 128.3-18.8 23.1-31.3 38.7-37-.4-57.6 57.2-75.3 30.3-34.9 73.4-60.7 54-2.1 43.1-31.8-25.7L1231.5 631l95.7-118.2 58.7-72.5-1.2-.9 43.8-54.1 14-17.3z"/>
        <path class="st1" d="M1385.9 440.3l-58.7 72.5-95.7 118.2-191.3 236.4-1.2-1 189.5-234.1 97.6-120.5 58.6-72.4z"/>
        <path class="st1" d="M1571.2 731.7l-25.2 77-4 80.9-9.3 8.3-35.2 31.4-16.1 14.3-16.4 34.5-18.5 38.9-75.3 30.3-10.5 10.3-47.2 47-38.4-.5-23-.3-19.5-.3-78.5 20.5-37.2-37.9-7.6-7.7-11.1-11.3-6.4-7.2-46.9-52 5.2-16 20.1-61 1.8-37.8 2.1-43.1 60.7-54 34.9-73.4 75.3-30.3 57.6-57.2 37 .4 44 .6 45.9-12 32.6-8.5 55.8 56.9z"/>
        <path class="st1" d="M1384.7 439.4l-58.6 72.4-97.6 120.5L1039 866.4l1.2 1-13.9 17.1-28.5-23.2-40.1-32.4L1253.1 464l2.3-2.9 61.9-76.4z"/>
        <path class="st1" d="M1385.9 440.3l-58.7 72.5-95.7 118.2-191.3 236.4-1.2-1 189.5-234.1 97.6-120.5 58.6-72.4z"/>
    </g>
</svg>
