<svg xmlns="http://www.w3.org/2000/svg" viewBox="0 0 1920 1920">
    <style>
        .st0{fill:#fff}.st1{fill:none;stroke:#231f20;stroke-width:50;stroke-linecap:round;stroke-linejoin:round;stroke-miterlimit:10}
    </style>
    <path class="st0" d="M1426.9 928.5h-1159c-32.3 0-57 29-51.6 61 24.9 148.3 107.2 515.8 312.7 515.8h22.3v51.6c0 20.3 16.4 36.7 36.7 36.7h518.8c20.3 0 36.7-16.4 36.7-36.7v-51.6h22.3c205.5 0 287.8-367.5 312.7-515.8 5.3-32-19.3-61-51.6-61z" id="Layer_8"/>
    <path class="st0" d="M1130.1 716.5c-67.3 0-129.1 14.9-177.7 39.8V434.8c0-12.4-3.4-24-9.3-34-11.4-19.2-32.2-32.2-56-32.8H726.4c-24.5 0-45.8 13.2-57.5 32.8-5.9 10-9.3 21.6-9.3 34v345.4c-6.8-.2-13.7-.4-20.6-.4-156.4 0-285.2 65.1-301.5 148.7h1071.3c3-10.4 4.5-21.2 4.5-32.2-.1-99.3-126.8-179.8-283.2-179.8z" id="Layer_9"/>
    <path class="st0" d="M356.8 428.5l302.8 10.8v-4.5c0-12.4 3.4-24 9.3-34H356.8v27.7zm586.3-27.7c5.9 10 9.3 21.6 9.3 34v14.9l750.6 26.7v-75.6H943.1z" id="Layer_10"/>
    <g id="STROKES">
        <path class="st1" d="M1106.7 1593.6H588c-20.3 0-36.7-16.4-36.7-36.7v-51.6h592.2v51.6c0 20.2-16.5 36.7-36.8 36.7z"/>
        <path class="st1" d="M429.4 1118v30.4h61.1v-91.6H368.2v151.9h122.3"/>
        <path class="st1" d="M639 1147.6v-30.4h-61.2v91.5h122.3v-151.9H577.8"/>
        <path class="st1" d="M848.6 1118v30.4h61.1v-91.6H787.4v151.9h122.3"/>
        <path class="st1" d="M1058.2 1147.6v-30.4H997v91.5h122.3v-151.9H997"/>
        <path class="st1" d="M1267.7 1118v30.4h61.2v-91.6h-122.3v151.9h122.3"/>
        <path class="st1" d="M726.4 368v418.9c-21.4-3.5-43.7-5.8-66.8-6.7V434.8c0-12.4 3.4-24 9.3-34 11.6-19.7 33-32.8 57.5-32.8z"/>
        <path class="st1" d="M806.7 368v439.6c-24.5-9-51.5-16-80.4-20.8V368h80.4z"/>
        <path class="st1" d="M887.1 368v435.9c-9.2 9.7-16.9 20-23.1 30.8-16.9-10.3-36.1-19.4-57.2-27.1V368h80.3z"/>
        <path class="st1" d="M952.4 434.8v321.5c-25.9 13.3-48.1 29.4-65.3 47.7V368c23.9.5 44.6 13.5 56 32.8 5.9 9.9 9.3 21.6 9.3 34z"/>
        <path class="st1" d="M356.8 400.8h312.1c-5.9 10-9.3 21.6-9.3 34v4.5l-302.8-10.8v-27.7z"/>
        <path class="st1" d="M1703.1 400.8v75.6l-750.6-26.7v-14.9c0-12.4-3.4-24-9.3-34h759.9z"/>
        <path class="st1" d="M1426.9 928.5c32.3 0 57 29.1 51.6 61-24.9 148.3-107.2 515.8-312.7 515.8H528.9c-205.5 0-287.8-367.5-312.7-515.8-5.3-31.9 19.3-61 51.6-61h1159.1z"/>
        <path class="st1" d="M846.9 896.3c0 11 1.5 21.7 4.5 32.2h-24.2c-5.2-8.2-12.1-15.9-20.5-23.1-19.7-16.8-47.5-30.5-80.4-39.3-20.5-5.5-43-9.1-66.8-10.5-6.8-.4-13.7-.6-20.6-.6-87.1 0-161.1 30.7-188.2 73.5H337.5c16.3-83.6 145.1-148.7 301.5-148.7 6.9 0 13.8.1 20.6.4 23.1.8 45.4 3.1 66.8 6.7 28.8 4.8 55.9 11.8 80.4 20.8 21.1 7.7 40.3 16.8 57.2 27.1-11.1 19.2-17.1 39.9-17.1 61.5z"/>
        <path class="st1" d="M827.2 928.5H450.7C477.8 885.7 551.9 855 639 855c7 0 13.8.2 20.6.6 23.7 1.3 46.3 5 66.8 10.5 32.9 8.8 60.7 22.5 80.4 39.3 8.3 7.2 15.2 14.9 20.4 23.1z"/>
        <path class="st1" d="M1242.2 928.5H1018c12.6-31.9 58-55.4 112.1-55.4 54 0 99.4 23.5 112.1 55.4z"/>
        <path class="st1" d="M1242.2 928.5H1018c12.6-31.9 58-55.4 112.1-55.4 54 0 99.4 23.5 112.1 55.4z"/>
        <path class="st1" d="M1413.2 896.3c0 11-1.5 21.7-4.5 32.2h-86.4c.5-3.5.7-7 .7-10.5 0-67.7-86.4-122.6-193-122.6-79.8 0-148.3 30.8-177.7 74.6-9.5 14.1-14.9 29.6-15.3 45.9v2.1c0 3.5.2 7 .7 10.5h-86.4c-3-10.4-4.5-21.2-4.5-32.2 0-21.6 6-42.4 17-61.6 6.2-10.8 14-21.1 23.1-30.8 17.2-18.2 39.4-34.4 65.3-47.7 48.6-24.9 110.4-39.8 177.7-39.8 156.6.1 283.3 80.6 283.3 179.9z"/>
        <path class="st1" d="M1323.1 918c0 3.5-.2 7-.7 10.5h-80.2c-12.6-31.9-58-55.4-112.1-55.4-54.1 0-99.5 23.6-112.1 55.4h-80.2c-.5-3.5-.7-7-.7-10.5v-2.1c.4-16.3 5.8-31.8 15.3-45.9 29.4-43.9 97.9-74.6 177.7-74.6 106.6 0 193 54.9 193 122.6z"/>
        <path class="st1" d="M1242.2 928.5H1018c12.6-31.9 58-55.4 112.1-55.4 54 0 99.4 23.5 112.1 55.4z"/>
    </g>
</svg>
