<svg xmlns="http://www.w3.org/2000/svg" viewBox="0 0 1920 1920">
    <style>
        .st0{fill:#fff}.st1{fill:none;stroke:#231f20;stroke-width:50;stroke-linecap:round;stroke-linejoin:round;stroke-miterlimit:10}
    </style>
    <path class="st0" d="M676.8 1294.2h74.7v-68.1h-74.7v68.1zm0-311.9v68.1h74.7v-68.1h-74.7z" id="Layer_10"/>
    <path class="st0" d="M960 217c-193.9 0-351.1 33.8-351.1 75.4v841.9H1311V292.4c.1-41.7-157.1-75.4-351-75.4zm-208.5 833.4h-74.7v-68.1h74.7v68.1z" id="Layer_11"/>
    <path class="st0" d="M608.9 1134.3v521.8c0 25.9 21 46.9 46.9 46.9h608.4c25.9 0 46.9-21 46.9-46.9v-521.8H608.9zm142.6 159.9h-74.7v-68.1h74.7v68.1z" id="Layer_12"/>
    <g id="STROKES">
        <path class="st1" d="M1311.1 292.4v1363.8c0 25.9-21 46.9-46.9 46.9H655.8c-25.9 0-46.9-21-46.9-46.9V292.4c0-41.7 157.2-75.4 351.1-75.4s351.1 33.7 351.1 75.4z"/>
        <path class="st1" d="M1311.1 1134.3H608.9"/>
        <path class="st1" d="M676.8 982.3h74.7v68.1h-74.7z"/>
        <path class="st1" d="M751.5 1016.4h181.4"/>
        <path class="st1" d="M676.8 1226.1h74.7v68.1h-74.7z"/>
        <path class="st1" d="M751.5 1260.1h181.4"/>
    </g>
</svg>
