<svg xmlns="http://www.w3.org/2000/svg" viewBox="0 0 1920 1920">
    <style>
        .st0{fill:#fff}.st1{fill:none;stroke:#231f20;stroke-width:50;stroke-linecap:round;stroke-linejoin:round;stroke-miterlimit:10}
    </style>
    <path class="st0" d="M1212 292v1336c0 41.4-33.6 75-75 75H783c-41.4 0-75-33.6-75-75V292c0-41.4 33.6-75 75-75h354c41.4-.1 75 33.5 75 75zm-100.2 863.1v-104.2h-104.2v104.2h104.2zm0-207V843.9h-104.2v104.2h104.2zm0-207V636.9h-104.2v104.2h104.2zm0-207V429.9h-104.2v104.2h104.2zm16.2 896.5c0-92.8-75.2-168-168-168s-168 75.2-168 168 75.2 168 168 168 168-75.2 168-168zm-215.7-275.5v-104.2H808.2v104.2h104.1zm0-207V843.9H808.2v104.2h104.1zm0-207V636.9H808.2v104.2h104.1zm0-207V429.9H808.2v104.2h104.1z" id="Layer_8"/>
    <g id="Layer_9">
        <path class="st0" d="M960 1367.3c34.9 0 63.3 28.3 63.3 63.3 0 34.9-28.3 63.3-63.3 63.3s-63.3-28.3-63.3-63.3c0-34.9 28.4-63.3 63.3-63.3z"/>
        <path class="st0" d="M960 1262.6c92.8 0 168 75.2 168 168s-75.2 168-168 168-168-75.2-168-168 75.2-168 168-168zm63.3 168c0-34.9-28.3-63.3-63.3-63.3s-63.3 28.3-63.3 63.3c0 34.9 28.3 63.3 63.3 63.3s63.3-28.4 63.3-63.3z"/>
        <path class="st0" d="M1007.7 429.9h104.2v104.2h-104.2z"/>
        <path class="st0" d="M1007.7 636.9h104.2v104.2h-104.2z"/>
        <path class="st0" d="M1007.7 843.9h104.2v104.2h-104.2z"/>
        <path class="st0" d="M1007.7 1050.9h104.2v104.2h-104.2z"/>
        <path class="st0" d="M808.2 1050.9h104.2v104.2H808.2z"/>
        <path class="st0" d="M808.2 843.9h104.2v104.2H808.2z"/>
        <path class="st0" d="M808.2 636.9h104.2v104.2H808.2z"/>
        <path class="st0" d="M808.2 429.9h104.2v104.2H808.2z"/>
    </g>
    <g id="STROKES">
        <g id="XMLID_1_">
            <path class="st1" d="M708 1628V292c0-41.4 33.6-75 75-75h354c41.4 0 75 33.6 75 75v1336c0 41.4-33.6 75-75 75H783c-41.4.1-75-33.5-75-75z"/>
            <path class="st1" d="M1128 1430.6c0 92.8-75.2 168-168 168s-168-75.2-168-168 75.2-168 168-168 168 75.2 168 168z"/>
            <path class="st1" d="M1023.3 1430.6c0 34.9-28.3 63.3-63.3 63.3s-63.3-28.3-63.3-63.3c0-34.9 28.3-63.3 63.3-63.3s63.3 28.4 63.3 63.3z"/>
            <path class="st1" d="M1067.5 1321.1l-58 58"/>
            <path class="st1" d="M910.5 1478.1l-58 58"/>
            <path class="st1" d="M852.5 1321.1l58 58"/>
            <path class="st1" d="M1009.5 1478.1l58 58"/>
            <path class="st1" d="M860.5 315.6h199"/>
            <path class="st1" d="M808.2 1050.9h104.2v104.2H808.2z"/>
            <path class="st1" d="M1007.7 1050.9h104.2v104.2h-104.2z"/>
            <path class="st1" d="M808.2 843.9h104.2v104.2H808.2z"/>
            <path class="st1" d="M1007.7 843.9h104.2v104.2h-104.2z"/>
            <path class="st1" d="M808.2 636.9h104.2v104.2H808.2z"/>
            <path class="st1" d="M1007.7 636.9h104.2v104.2h-104.2z"/>
            <path class="st1" d="M808.2 429.9h104.2v104.2H808.2z"/>
            <path class="st1" d="M1007.7 429.9h104.2v104.2h-104.2z"/>
        </g>
    </g>
</svg>
