<svg xmlns="http://www.w3.org/2000/svg" viewBox="0 0 1920 1920">
    <style>
        .st0{fill:#fff}.st1{fill:none;stroke:#231f20;stroke-width:50;stroke-linecap:round;stroke-linejoin:round;stroke-miterlimit:10}
    </style>
    <path class="st0" d="M1212 292v1336c0 41.4-33.6 75-75 75H783c-41.4 0-75-33.6-75-75V292c0-41.4 33.6-75 75-75h354c41.4-.1 75 33.5 75 75zm-83.7 543c0-34.9-28.3-63.3-63.3-63.3-34.9 0-63.2 28.3-63.2 63.3s28.3 63.3 63.2 63.3c34.9 0 63.3-28.4 63.3-63.3zm-.3-334c0-92.8-75.2-168-168-168s-168 75.2-168 168 75.2 168 168 168 168-75.2 168-168zM922.3 835c0-34.9-28.3-63.3-63.3-63.3S795.7 800 795.7 835s28.3 63.3 63.3 63.3 63.3-28.4 63.3-63.3z" id="Layer_3"/>
    <path class="st0" d="M1065 771.7c34.9 0 63.3 28.3 63.3 63.3s-28.3 63.3-63.3 63.3c-34.9 0-63.2-28.3-63.2-63.3s28.3-63.3 63.2-63.3zM795.7 835c0 34.9 28.3 63.3 63.3 63.3s63.3-28.3 63.3-63.3-28.3-63.3-63.3-63.3-63.3 28.4-63.3 63.3z" id="Layer_4"/>
    <circle class="st0" cx="960" cy="501" r="63.3" id="Layer_5"/>
    <path class="st0" d="M960 333c92.8 0 168 75.2 168 168s-75.2 168-168 168-168-75.2-168-168 75.2-168 168-168zm63.3 168c0-34.9-28.3-63.3-63.3-63.3S896.7 466 896.7 501s28.3 63.3 63.3 63.3 63.3-28.4 63.3-63.3z" id="Layer_6"/>
    <g id="STROKES">
        <g id="XMLID_1_">
            <circle class="st1" cx="960" cy="501" r="168"/>
            <circle class="st1" cx="960" cy="501" r="63.3"/>
            <path class="st1" d="M708 1628V292c0-41.4 33.6-75 75-75h354c41.4 0 75 33.6 75 75v1336c0 41.4-33.6 75-75 75H783c-41.4.1-75-33.5-75-75z"/>
            <circle class="st1" cx="859" cy="835" r="63.3"/>
            <path class="st1" d="M1128.3 835c0 34.9-28.3 63.3-63.3 63.3-34.9 0-63.2-28.3-63.2-63.3s28.3-63.3 63.2-63.3c34.9 0 63.3 28.4 63.3 63.3z"/>
        </g>
    </g>
</svg>
