<svg xmlns="http://www.w3.org/2000/svg" viewBox="0 0 1920 1920">
    <style>
        .st0{fill:#fff}.st1{fill:none;stroke:#231f20;stroke-width:50;stroke-linecap:round;stroke-linejoin:round;stroke-miterlimit:10}
    </style>
    <path class="st0" d="M1677.1 1324.7c34.6 37.2 33.5 95.2-2.4 131.1L1458 1672.5c-35.8 35.8-93.5 37-130.8 2.7l-633.8-583.6c-81.2-7.7-160.4-42.6-222.6-104.8C416.1 932.3 382.5 864.6 370 794L255 688.1c-48.4-44.5-49.9-120.3-3.4-166.8l267.7-267.7c46.4-46.4 121.9-44.9 166.5 3.1l107.6 116c70 12.8 137 46.3 191.1 100.4 61 61 95.8 138.3 104.3 217.8l588.3 633.8zm-103.5 117.9c21.5-21.5 22.2-56.2 1.5-78.5l-352.4-379.7-236.9 240.1 379.7 349.6c22.3 20.6 56.9 19.8 78.4-1.6l129.7-129.9zm-410.8-528.3c7.5-7.5 7.9-19.5 1.1-27.5l-24.1-28.2c-7.7-9-21.4-9.5-29.7-1.2l-38 38c-7.9 7.9-7.9 20.7 0 28.7l26.2 26.1c7.9 7.9 20.7 7.9 28.7 0l35.8-35.9zM1037 1039.4c15-15 15-39.2 0-54.1-15-14.9-39.2-14.9-54.1 0-15 15-15 39.2 0 54.1 14.9 15 39.2 15 54.1 0zm-87.3 88c7.9-7.9 7.9-20.8 0-28.7l-26.1-26.1c-7.9-7.9-20.7-7.9-28.7 0l-38 38c-8.3 8.3-7.8 22 1.2 29.7l28.2 24.1c8 6.9 20 6.4 27.5-1.1l35.9-35.9zm-38-214.7c101.3-101.3 101.3-265.5 0-366.7-101.3-101.3-265.4-101.3-366.7 0-101.3 101.3-101.3 265.5 0 366.7 101.2 101.2 265.4 101.2 366.7 0zM625.3 358.2c0-8.7-3.3-17.4-9.9-24-13.2-13.2-34.7-13.2-47.9 0l-49.3 49.3c-6.6 6.6-9.9 15.3-9.9 24s3.3 17.4 9.9 24c13.2 13.2 34.7 13.2 48 0l49.3-49.3c6.5-6.6 9.8-15.3 9.8-24zM430.8 552.8c0-8.7-3.3-17.3-9.9-24-13.2-13.2-34.7-13.2-48 0l-49.3 49.3c-6.6 6.6-9.9 15.3-9.9 24s3.3 17.4 9.9 24c13.2 13.2 34.7 13.2 48 0l49.3-49.3c6.6-6.7 9.9-15.4 9.9-24z" id="Layer_10"/>
    <g id="Layer_11">
        <path class="st0" d="M949.7 1098.7c7.9 7.9 7.9 20.7 0 28.7l-35.9 35.9c-7.5 7.5-19.5 7.9-27.5 1.1l-28.2-24.1c-9-7.7-9.5-21.4-1.2-29.7l38-38c7.9-7.9 20.7-7.9 28.7 0l26.1 26.1z"/>
        <path class="st0" d="M1212.9 1142.2l81.6 83.7-70.7 70.7-83.9-81.4z"/>
        <path class="st0" d="M1365.3 1574.1l-379.7-349.6 236.9-240.1L1575 1364c20.7 22.3 20.1 57-1.5 78.5l-129.8 129.8c-21.5 21.6-56 22.3-78.4 1.8zm-57.6-196.2l68.3-68.3-81.6-83.7-81.5-83.7-73 73 83.9 81.4 83.9 81.3z"/>
        <path class="st0" d="M1163.9 886.8c6.9 8 6.4 20-1.1 27.5l-35.9 35.9c-7.9 7.9-20.7 7.9-28.7 0l-26.2-26.1c-7.9-7.9-7.9-20.8 0-28.7l38-38c8.3-8.3 22-7.8 29.7 1.2l24.2 28.2z"/>
        <path class="st0" d="M1037 985.3c15 15 15 39.2 0 54.1-15 14.9-39.2 14.9-54.1 0-15-15-15-39.2 0-54.1 14.9-15 39.2-15 54.1 0z"/>
        <path class="st0" d="M615.4 334.2c6.6 6.6 9.9 15.3 9.9 24s-3.3 17.4-9.9 24l-49.3 49.3c-13.2 13.2-34.7 13.2-48 0-6.6-6.6-9.9-15.3-9.9-24s3.3-17.4 9.9-24l49.3-49.3c13.3-13.2 34.8-13.2 48 0z"/>
        <path class="st0" d="M420.9 528.8c6.6 6.6 9.9 15.3 9.9 24s-3.3 17.3-9.9 24L371.6 626c-13.2 13.2-34.7 13.2-48 0-6.6-6.6-9.9-15.3-9.9-24s3.3-17.3 9.9-24l49.3-49.3c13.3-13.2 34.7-13.2 48 .1z"/>
        <path class="st0" d="M1294.5 1225.9l81.5 83.7-68.3 68.3-83.9-81.3z"/>
        <path class="st0" d="M794.2 663.5c36.4 36.4 36.4 95.3 0 131.7-36.4 36.4-95.3 36.4-131.7 0-36.4-36.4-36.4-95.3 0-131.7 36.3-36.4 95.3-36.4 131.7 0z"/>
        <path class="st0" d="M911.7 546c101.3 101.3 101.3 265.5 0 366.7-101.3 101.3-265.4 101.3-366.7 0-101.3-101.3-101.3-265.5 0-366.7 101.2-101.3 265.4-101.3 366.7 0zM794.2 795.2c36.4-36.4 36.4-95.3 0-131.7-36.4-36.4-95.3-36.4-131.7 0-36.4 36.4-36.4 95.3 0 131.7 36.3 36.3 95.3 36.3 131.7 0z"/>
    </g>
    <g id="STROKES">
        <g id="XMLID_1_">
            <path class="st1" d="M984.5 473.1c-54.1-54.1-121.1-87.6-191.1-100.4l-107.6-116c-44.6-48-120.2-49.4-166.5-3.1L251.6 521.3c-46.5 46.5-44.9 122.3 3.4 166.8L370 794c12.6 70.7 46.2 138.3 100.8 192.9 62.2 62.2 141.4 97.1 222.6 104.8l633.8 583.6c37.3 34.3 95 33.1 130.8-2.7l216.7-216.7c35.9-35.9 37-93.8 2.4-131.1L1088.8 691c-8.6-79.6-43.3-156.9-104.3-217.9z"/>
            <path class="st1" d="M911.7 546c101.3 101.3 101.3 265.5 0 366.7-101.3 101.3-265.4 101.3-366.7 0-101.3-101.3-101.3-265.5 0-366.7 101.2-101.3 265.4-101.3 366.7 0z"/>
            <path class="st1" d="M794.2 663.5c36.4 36.4 36.4 95.3 0 131.7-36.4 36.4-95.3 36.4-131.7 0-36.4-36.4-36.4-95.3 0-131.7 36.3-36.4 95.3-36.4 131.7 0z"/>
            <path class="st1" d="M420.9 576.7L371.6 626c-13.2 13.2-34.7 13.2-48 0-6.6-6.6-9.9-15.3-9.9-24s3.3-17.3 9.9-24l49.3-49.3c13.2-13.2 34.7-13.2 48 0 6.6 6.6 9.9 15.3 9.9 24s-3.3 17.4-9.9 24z"/>
            <path class="st1" d="M615.4 382.2l-49.3 49.3c-13.2 13.2-34.7 13.2-48 0-6.6-6.6-9.9-15.3-9.9-24s3.3-17.4 9.9-24l49.3-49.3c13.2-13.2 34.7-13.2 47.9 0 6.6 6.6 9.9 15.3 9.9 24 .1 8.7-3.2 17.4-9.8 24z"/>
            <path class="st1" d="M726.4 480.8v147.3"/>
            <path class="st1" d="M726.4 828.8v148"/>
            <path class="st1" d="M478.4 728.8h151.4"/>
            <path class="st1" d="M828.4 728.8h145.9"/>
            <path class="st1" d="M593.1 648.3v-52.8h52.8"/>
            <path class="st1" d="M864.7 814.3v52.9h-52.8"/>
            <path class="st1" d="M645.9 867.2h-52.8v-52.9"/>
            <path class="st1" d="M811.9 595.5h52.8v52.8"/>
            <path class="st1" d="M949.7 1127.4l-35.9 35.9c-7.5 7.5-19.5 7.9-27.5 1.1l-28.2-24.1c-9-7.7-9.5-21.4-1.2-29.7l38-38c7.9-7.9 20.7-7.9 28.7 0l26.1 26.1c7.9 7.9 7.9 20.8 0 28.7z"/>
            <path class="st1" d="M1126.9 950.2l35.9-35.9c7.5-7.5 7.9-19.5 1.1-27.5l-24.1-28.2c-7.7-9-21.4-9.5-29.7-1.2l-38 38c-7.9 7.9-7.9 20.7 0 28.7l26.2 26.1c7.8 7.9 20.7 7.9 28.6 0z"/>
            <path class="st1" d="M1037 985.3c15 15 15 39.2 0 54.1-15 14.9-39.2 14.9-54.1 0-15-15-15-39.2 0-54.1 14.9-15 39.2-15 54.1 0z"/>
            <path class="st1" d="M1222.6 984.3L1575 1364c20.7 22.3 20.1 57-1.5 78.5l-129.8 129.8c-21.5 21.5-56 22.2-78.4 1.6l-379.7-349.6 237-240z"/>
            <path class="st1" d="M1069.2 1146.7l70.7 68.5 83.9 81.4 83.9 81.3 79.6 77.2"/>
            <path class="st1" d="M1144.3 1071.7l68.6 70.5 81.6 83.7 81.5 83.7 77.4 79.4"/>
            <path class="st1" d="M1065.4 1289.7l74.5-74.5 73-73 74.3-74.3"/>
            <path class="st1" d="M1148.1 1372.3l75.7-75.7 70.7-70.7 75.4-75.4"/>
            <path class="st1" d="M1238.2 1447.4l69.5-69.5 68.3-68.3 71-71"/>
            <path class="st1" d="M1320.9 1530l208.8-208.8"/>
        </g>
    </g>
</svg>
