<svg xmlns="http://www.w3.org/2000/svg" viewBox="0 0 1920 1920">
    <style>
        .st0{fill:#fff}.st1{fill:none;stroke:#231f20;stroke-width:50;stroke-linecap:round;stroke-linejoin:round;stroke-miterlimit:10}
    </style>
    <path class="st0" d="M1219 1286.4c2.6-59.9 11.2-111.1 31.3-125.3-193.8-96.9-95.5-218.3-81.6-234-18.2-5.4-30.5-23.5-28-43.2C858.2 931 934.6 765.4 934.6 765.4v-.1c-11.1-.1-22-5.5-28.7-15.2-13.1-18.8-32.8-48.8-53.9-85.8 90.8 34.6 153.7-29.3 179.9-65.3 34.6-47.6 32.4-201.1 32.4-201.1-51.9 6.5-144.9 118.9-168.7 151.4-22.2 30.3-93.5 11.5-102.8 8.9C744.1 495.6 675 488 616.7 508c-8 2.7-15.4 5.8-22.3 9.1-148.7-39.8-153-265-375.1-298v1388.1c16.8-128.7 314.2-256.8 354.1-273.5 77.2 69.4 154.9 132.5 212 136.6 90.8 6.5 88.7 45.4 170.8 54.1 82.2 8.7 121.8 73.8 184.5 24.1 15.2 5.6 28.9 6.5 40.4-.3 47.6-28.1 26.8-89.1 51.9-114.6 37.1-37.6 63.8-91.8-14-147.2zm-451-239.9c-3.6 0-6.5-2.9-6.5-6.5s2.9-6.5 6.5-6.5 6.5 2.9 6.5 6.5-2.9 6.5-6.5 6.5z" id="Layer_3"/>
    <path class="st0" d="M1692.1 357c2.9-6.6 12.8-4 12.1 3.1-68.9 700.4-430.6 786.1-453.9 800.9-193.8-96.9-95.5-218.3-81.6-234 2.9.9 6 1.4 9.2 1.6 297.8 16.5 455.3-437 514.2-571.6zm-741 404.2c-5.3 2.8-11 4.1-16.6 4v.1s-76.4 165.6 206.2 118.5l40.6-316.2c1.2-9.2-10.3-14.3-16.3-7.3-43.2 50.5-145.7 165-213.9 200.9z" id="Layer_4"/>
    <g id="STROKES">
        <path class="st1" d="M391.8 784.8s-60.5 337.4 49.7 430.3c40.9 34.5 86.3 77.7 131.9 118.6 77.2 69.4 154.9 132.5 212 136.6 90.8 6.5 88.7 45.4 170.8 54.1 82.2 8.7 121.8 73.8 184.5 24.1"/>
        <path class="st1" d="M1250.3 1161.1c23.3-14.9 385-100.5 453.9-800.9.7-7.2-9.2-9.7-12.1-3.1-58.9 134.6-216.4 588.1-514.2 571.7-3.2-.2-6.2-.7-9.2-1.6-18.2-5.4-30.5-23.5-28-43.2l40.6-316.2c1.2-9.2-10.3-14.3-16.3-7.3-43.2 50.4-145.7 164.9-213.9 200.9-5.3 2.8-11 4.1-16.6 4-11.1-.1-22-5.5-28.7-15.2-13.1-18.8-32.8-48.8-53.9-85.8-11.3-19.9-23-41.9-34.2-65.3-7.5-15.6-15.9-29.2-24.9-40.8C744.1 495.6 675 488 616.7 508c-8 2.7-15.4 5.8-22.3 9.1C541.1 542.3 518 580 518 580"/>
        <path class="st1" d="M897.8 1347.1s10.8 73.5 80 99.5c52.5 19.7 115 84.3 162.9 101.9 15.2 5.6 28.9 6.5 40.4-.3 47.6-28.1 26.8-89.1 51.9-114.6 37.1-37.6 63.8-91.7-14-147.2"/>
        <path class="st1" d="M791.8 557.8s.3.1 1 .3c9.3 2.6 80.6 21.4 102.8-8.9 23.8-32.4 116.8-144.9 168.7-151.4 0 0 2.2 153.5-32.4 201.1-26.2 36.1-89.1 99.9-179.9 65.3"/>
        <path class="st1" d="M1057.8 458.3s-118.9 88.7-88.7 186"/>
        <path class="st1" d="M558.3 594.5s-15.1 8.6-32.4-6.5c-2-1.7-4.6-4.5-7.8-8-25-27.4-87.7-100.8-191.2-89.3-116.8 13 10.8 276.8 77.8 289.8s134.1-58.4 134.1-58.4"/>
        <path class="st1" d="M506.4 830.2c10.8 0 118.9-10.8 136.2-138.4"/>
        <circle class="st1" cx="768" cy="1040" r="6.5"/>
        <path class="st1" d="M934.5 765.4S858.1 931 1140.7 883.9"/>
        <path class="st1" d="M1170.3 925.4s-.6.6-1.6 1.7c-13.9 15.7-112.2 137.1 81.6 234"/>
        <path class="st1" d="M1127 1420.6s4.3-64.9-36.8-62.7c-41.1 2.2-60.6-25.9-60.6-25.9"/>
        <path class="st1" d="M292.3 542.6c8.6-8.7 222.7 51.9 203.3 199"/>
        <path class="st1" d="M690.2 1014s114.6-49.7 155.7 75.7"/>
        <path class="st1" d="M1250.3 1161.1c-20.1 14.2-28.7 65.3-31.3 125.3-2.2 49.9-.1 105.8 3.2 151.5"/>
        <path class="st1" d="M219.3 219.1c222 33 226.3 258.2 375.1 298"/>
        <path class="st1" d="M577.8 1331.9s-1.5.6-4.4 1.8c-39.9 16.6-337.3 144.7-354.1 273.5"/>
    </g>
</svg>
