<svg xmlns="http://www.w3.org/2000/svg" viewBox="0 0 1920 1920">
    <style>
        .st0{fill:#fff}.st1{fill:none;stroke:#231f20;stroke-width:50;stroke-linecap:round;stroke-linejoin:round;stroke-miterlimit:10}
    </style>
    <path class="st0" d="M1560 1030.3l20-94-78 16s-33.4-104.1-32.5-153.1c.2-11 2.1-19.2 6.5-22.9 24-20 96-44 106-104 0 0-102.7 3.9-168.7 68.7-.4.4-.9.8-1.3 1.3 0 0-2.5-1.2-6.9-3.5-19.6-10.4-75.8-43.7-97.1-94.5-26-62-74-18-134-50s-148-40-228 4-212 2-274-2-112 48-194 54-154 48-188 102c-13 20.7-23.7 58.8-32.2 100.4-.4 18.6 1.2 92.7 45.8 156.4.3 1.6 14.2 83.5-1.7 115.2-16 32-66 100-66 100s46 108 34 128h144s-20-78-72-96l81-142.6c57.8 67 36.1 142.6 41 142.6 6 0 70 34 70 34v62h156s10-56-60-94-93.6-148-67.6-200c18.5 19.9 39.6 35.4 63.6 44 93.4 33.3 204.4 13.6 268.1-3.3 31.8-8.4 51.7-16.1 51.7-16.1l16.2 75.4-62 2s-88 62-12 130l162-68 18.2-92.2 39.8 92.2-6 74 176 2s-24-74-82-90l27.8-202.2c25.2-12.8 43.9-23 46.9-23.8 18.3 122.2 114.1 196 147.3 223.9 38 32 118 18 138-10s20-70 20-70c106-26 128-174 128-174s-87.9 92.1-143.9 78.1z" id="Layer_5"/>
    <g id="STROKES">
        <path class="st1" d="M1268 926.3c-1 19.7 0 38.4 2.7 56.1 18.3 122.2 114.1 196 147.3 223.9 38 32 118 18 138-10s20-70 20-70c106-26 128-174 128-174s-88 92-144 78l20-94-78 16s-33.4-104.1-32.5-153.1c.2-11 2.1-19.2 6.5-22.9 24-20 96-44 106-104 0 0-102.7 4-168.7 68.7l-1.3 1.3s-2.6-1.2-6.9-3.5c-19.6-10.4-75.8-43.7-97.1-94.5-26-62-74-18-134-50s-148-40-228 4-212 2-274-2-112 48-194 54-154 48-188 102c-13 20.7-23.7 58.8-32.2 100.4-13.6 67-21.4 143.2-23.8 171.6-4 46-18 68-18 68"/>
        <path class="st1" d="M303.7 1009c16 22.8 37.4 44.2 66.3 61.2 22.6 13.3 39.9 28.1 53 43.4 57.8 67 36.1 142.6 41 142.6 6 0 70 34 70 34v62h156s10-56-60-94-93.6-148-67.6-200"/>
        <path class="st1" d="M258 848.3s-.1 1.5-.2 4.4c-.4 18.6 1.2 92.7 45.8 156.4"/>
        <path class="st1" d="M444 764.3s28.9 197.8 118.4 294c18.5 19.9 39.6 35.4 63.6 44 93.4 33.3 204.4 13.6 268.1-3.3 31.8-8.4 51.7-16.1 51.7-16.1"/>
        <path class="st1" d="M1068.2 1130.1l11.8-59.8s4.3-4.7 9.3-12.1c10.3-15.2 23.5-41.7 8.7-61.9-20.9-28.5-107.5-14.1-170.2 3.2-3.3.9-6.6 1.8-9.8 2.8-81.2 23.7-33.8 96-24.2 96h.2"/>
        <path class="st1" d="M928 1000.3l17.8 82.6 16.2 75.4-62 2s-88 62-12 130l162-68 18.2-92.2"/>
        <path class="st1" d="M1270.7 982.3c-3 .8-21.7 11-46.9 23.8-40.7 20.6-98.4 47.8-134.4 52-.4.1-.9.1-1.3.1"/>
        <path class="st1" d="M1068.2 1130.1l39.8 92.2-6 74 176 2s-24-74-82-90l27.8-202.2.2-1.8"/>
        <path class="st1" d="M303.7 1009c.3 1.7 14.2 83.5-1.7 115.2-16 32-66 100-66 100s46 108 34 128h144s-20-78-72-96l81-142.6"/>
        <path class="st1" d="M1378 810.3l-144-108s-36 104 14 126 78 32 78 32"/>
        <path class="st1" d="M1470 800.3s-.2-.4-.5-1.1c-3.3-7.1-22.8-46.5-56.2-58.2-2.6-.9-5.3-1.7-8.2-2.2-1-.2-2.1-.4-3.1-.5"/>
        <path class="st1" d="M1368.9 973.5c31 3.1 53.5 30.8 50.4 61.7"/>
        <path class="st1" d="M1451 1141l48 72"/>
    </g>
</svg>
