<svg xmlns="http://www.w3.org/2000/svg" viewBox="0 0 1920 1920">
    <style>
        .st0{fill:#fff}.st1{fill:none;stroke:#231f20;stroke-width:50;stroke-linecap:round;stroke-linejoin:round;stroke-miterlimit:10}
    </style>
    <path class="st0" d="M1483 732.4c7.2 77.4-28.2 121.9-82.8 162.6-23 17.2-47.7 32-73.5 44.6-67.4 33-244.7 132.9-217 259.6 25 114.2 359.6 122.6 373.3 271.2 9.1 98.4-50.6 143.7-131.1 195.6l-54.8 28H622l54.8-28c80.4-51.8 140.2-97.1 131.1-195.6-13.7-148.6-348.3-157-373.3-271.2-27.7-126.7 149.5-226.6 217-259.6 25.8-12.6 50.5-27.4 73.5-44.6 54.5-40.7 90-85.2 82.8-162.6-13.7-148.6-348.3-157.1-373.3-271.2C400.5 305.2 632 215 632 215h675.1s-231.6 90.2-197.4 246.2c25 114.1 359.5 122.6 373.3 271.2z" id="Layer_2"/>
    <g id="STROKES">
        <path class="st1" d="M803.2 1047.9c-25.9 25.9-68 25.9-93.9 0"/>
        <path class="st1" d="M897.2 1047.9c-25.9 25.9-68 25.9-93.9 0"/>
        <path class="st1" d="M991.1 1047.9c-25.9 25.9-68 25.9-93.9 0"/>
        <path class="st1" d="M704.2 1160.7c-25.9 25.9-68 25.9-93.9 0"/>
        <path class="st1" d="M798.2 1160.7c-25.9 25.9-68 25.9-93.9 0"/>
        <path class="st1" d="M892.1 1160.7c-25.9 25.9-68 25.9-93.9 0"/>
        <path class="st1" d="M632 215s-231.5 90.2-197.4 246.2c25 114.1 359.6 122.6 373.3 271.2 7.2 77.4-28.2 121.9-82.8 162.6-23 17.2-47.7 32-73.5 44.6-67.4 33-244.7 132.9-217 259.6 25 114.2 359.6 122.6 373.3 271.2 9.1 98.4-50.6 143.7-131.1 195.6l-54.8 28"/>
        <path class="st1" d="M1297.1 1694.1l54.8-28c80.4-51.8 140.2-97.1 131.1-195.6-13.7-148.6-348.3-157-373.3-271.2-27.7-126.7 149.5-226.6 217-259.6 25.8-12.6 50.5-27.4 73.5-44.6 54.6-40.7 90-85.2 82.8-162.6-13.7-148.6-348.3-157.1-373.3-271.2-34.1-156 197.4-246.2 197.4-246.2"/>
        <path class="st1" d="M1177.2 1525.1c-25.9 25.9-68 25.9-93.9 0"/>
        <path class="st1" d="M1271.1 1525.1c-25.9 25.9-68 25.9-93.9 0"/>
        <path class="st1" d="M763.1 358c-25.9 25.9-68 25.9-93.9 0"/>
        <path class="st1" d="M857.1 358c-25.9 25.9-68 25.9-93.9 0"/>
        <path class="st1" d="M1105.1 755.1c-25.9 25.9-68 25.9-93.9 0"/>
        <path class="st1" d="M1199.1 755.1c-25.9 25.9-68 25.9-93.9 0"/>
        <path class="st1" d="M1293 755.1c-25.9 25.9-68 25.9-93.9 0"/>
    </g>
</svg>
