<svg xmlns="http://www.w3.org/2000/svg" viewBox="0 0 1920 1920">
    <style>
        .st0{fill:#fff}.st1{fill:none;stroke:#231f20;stroke-width:50;stroke-linecap:round;stroke-linejoin:round;stroke-miterlimit:10}
    </style>
    <path class="st0" d="M1705.7 1612l-1490.3 3c-11.9-5.8 80.2-175.5 264.4-326.5 168.4-138.1 432.7-198.3 767.2-268.4 334.5-70.1-170.3-260.4-284.4-300.5-120.9-42.4-256.4-124.2-146.2-188.3 0 0-138.2 102.2 198.3 140.2 336.5 38.1 689 214.3 689 374.6s-108.2 118.2-288.4 268.4c-191 159.1 290.4 297.5 290.4 297.5z" id="Layer_3"/>
    <g id="STROKES">
        <path class="st1" d="M816.3 531.3c110.2-64.1 274.4-74.1 274.4-74.1 108.2-24 34.1-74.1-6-80.1-53.5-8-148.2-26-112.2-48.1 36-22 96.1-24 96.1-24"/>
        <path class="st1" d="M215.4 1615c-11.9-5.8 80.2-175.5 264.4-326.5 168.4-138.1 432.7-198.3 767.2-268.4 334.5-70.1-170.3-260.4-284.4-300.5-120.9-42.4-256.4-124.2-146.2-188.3 0 0-138.2 102.2 198.3 140.2 336.5 38.1 689 214.3 689 374.6s-108.2 118.2-288.4 268.4c-190.9 159.1 290.5 297.5 290.5 297.5"/>
    </g>
</svg>
