<svg xmlns="http://www.w3.org/2000/svg" viewBox="0 0 1920 1920">
    <style>
        .st0{fill:#fff}.st1{fill:none;stroke:#231f20;stroke-width:50;stroke-linecap:round;stroke-linejoin:round;stroke-miterlimit:10}
    </style>
    <path class="st0" d="M1703.5 1282.8l-.4 420.2H215.7v-421c137 137 359.1 137 496.1 0h.1c137 137 359.1 137 496.1 0h.1c136.8 136.8 358.3 137.1 495.4.8zM1208.2 893c-137.1 137-359.2 137-496.2 0h-.1c-137 137-359.1 137-496.1 0v389.1c137 137 359.1 137 496.1 0h.1c137 137 359.1 137 496.1 0h.1c136.7 136.7 358.3 137 495.3.8l.4-389.5c-137 136.6-358.9 136.5-495.7-.4zm0-357.8c-137.1 137-359.2 137-496.2 0h-.1c-137 137-359.1 137-496.1 0V893c137 137 359.1 137 496.1 0h.1c137 137 359.1 137 496.1 0h.1c136.9 136.9 358.7 137 495.8.4l.4-358.2c-137.1 137-359.2 137-496.2 0z" id="Layer_4"/>
    <g id="STROKES">
        <path class="st1" d="M711.8 535.2c-137 137-359.1 137-496.1 0v1167.9H1703l.4-420.2.4-389.5.4-358.2c-137 137-359.1 137-496.1 0"/>
        <path class="st1" d="M1208.1 535.2c-137 137-359.1 137-496.1 0"/>
        <path class="st1" d="M711.8 893c-137 137-359.1 137-496.1 0"/>
        <path class="st1" d="M1208.1 893c-137 137-359.1 137-496.1 0"/>
        <path class="st1" d="M1704.3 893l-.4.4c-137 136.6-358.9 136.5-495.8-.4"/>
        <path class="st1" d="M711.8 1282.1c-137 137-359.1 137-496.1 0"/>
        <path class="st1" d="M1208.1 1282.1c-137 137-359.1 137-496.1 0"/>
        <path class="st1" d="M1704.3 1282.1l-.8.8c-137.1 136.2-358.6 136-495.3-.8"/>
    </g>
</svg>
