<svg xmlns="http://www.w3.org/2000/svg" viewBox="0 0 1920 1920">
    <style>
        .st0{fill:#fff}.st1{fill:none;stroke:#231f20;stroke-width:50;stroke-linecap:round;stroke-linejoin:round;stroke-miterlimit:10}
    </style>
    <path class="st0" d="M364.3 431.7v1030.8h1191.3V431.7H364.3zm329.2 180.8c75.2 0 136.1 60.9 136.1 136.1 0 75.2-60.9 136.1-136.1 136.1-75.2 0-136.1-60.9-136.1-136.1 0-75.2 60.9-136.1 136.1-136.1zm669.1 724.2H557.4v-253h805.2v253zm-136.1-452c-75.2 0-136.1-60.9-136.1-136.1 0-75.2 60.9-136.1 136.1-136.1 75.2 0 136.1 60.9 136.1 136.1 0 75.2-60.9 136.1-136.1 136.1z" id="Layer_2"/>
    <path class="st0" d="M693.5 612.5c-75.2 0-136.1 60.9-136.1 136.1 0 75.2 60.9 136.1 136.1 136.1 75.2 0 136.1-60.9 136.1-136.1 0-75.2-60.9-136.1-136.1-136.1zm533 0c-75.2 0-136.1 60.9-136.1 136.1 0 75.2 60.9 136.1 136.1 136.1 75.2 0 136.1-60.9 136.1-136.1 0-75.2-60.9-136.1-136.1-136.1z" id="Layer_4"/>
    <path class="st0" d="M557.4 1083.7h805.2v253H557.4z" id="Layer_5"/>
    <path class="st0" d="M217 928.3c0 119.1 66 215.7 147.4 215.7V712.7c-81.5 0-147.4 96.5-147.4 215.6zm1338.7-215.6V1144c81.4 0 147.4-96.6 147.4-215.7s-66-215.6-147.4-215.6z" id="Layer_6"/>
    <path class="st0" d="M1165.7 245.1H754.3c-41.1 0-74.4 33.3-74.4 74.4v112.2h560.2V319.5c0-41-33.3-74.4-74.4-74.4z" id="Layer_7"/>
    <path class="st0" d="M1362.6 1528.7v-26.2c0-22.1-17.9-40-40-40H597.4c-22.1 0-40 17.9-40 40v26.2c0 22.1 17.9 40 40 40-22.1 0-40 17.9-40 40v26.2c0 22.1 17.9 40 40 40h725.3c22.1 0 40-17.9 40-40v-26.2c0-22.1-17.9-40-40-40 22 0 39.9-17.9 39.9-40z" id="Layer_8"/>
    <g id="STROKES">
        <circle class="st1" cx="693.5" cy="748.6" r="136.1"/>
        <path class="st1" d="M693.5 539.4v418.4"/>
        <path class="st1" d="M484.3 748.6h418.4"/>
        <circle class="st1" cx="1226.5" cy="748.6" r="136.1"/>
        <path class="st1" d="M1226.5 539.4v418.4"/>
        <path class="st1" d="M1017.3 748.6h418.4"/>
        <path class="st1" d="M1240.1 431.7H679.9V319.6c0-41.1 33.3-74.4 74.4-74.4h411.4c41.1 0 74.4 33.3 74.4 74.4v112.1z"/>
        <path class="st1" d="M557.4 1083.7h805.2v253H557.4z"/>
        <path class="st1" d="M557.4 1210.2h805.2"/>
        <path class="st1" d="M364.4 712.7V1144C283 1144 217 1047.4 217 928.3c-.1-119.1 65.9-215.6 147.4-215.6z"/>
        <path class="st1" d="M364.4 431.7h1191.3v1030.8H364.4z"/>
        <path class="st1" d="M1703.1 928.4c0 119.1-66 215.7-147.4 215.7V712.7c81.4 0 147.4 96.5 147.4 215.7z"/>
        <path class="st1" d="M216.9 928.4V323.3"/>
        <path class="st1" d="M1703.1 928.4V323.3"/>
        <path class="st1" d="M1322.6 1568.7H597.4c-22.1 0-40-17.9-40-40v-26.2c0-22.1 17.9-40 40-40h725.3c22.1 0 40 17.9 40 40v26.2c-.1 22.1-18 40-40.1 40z"/>
        <path class="st1" d="M1322.6 1674.9H597.4c-22.1 0-40-17.9-40-40v-26.2c0-22.1 17.9-40 40-40h725.3c22.1 0 40 17.9 40 40v26.2c-.1 22.1-18 40-40.1 40z"/>
    </g>
</svg>
