<svg xmlns="http://www.w3.org/2000/svg" viewBox="0 0 1920 1920">
    <style>
        .st0{fill:#fff}.st1{fill:none;stroke:#231f20;stroke-width:50;stroke-linecap:round;stroke-linejoin:round;stroke-miterlimit:10}
    </style>
    <path class="st0" d="M734.5 217.2v405.7h450.9V217.2H734.5zm123.6 165.9c-25.9 0-46.9-21-46.9-46.9s21-46.9 46.9-46.9 46.9 21 46.9 46.9-21 46.9-46.9 46.9zm203.8 0c-25.9 0-46.9-21-46.9-46.9s21-46.9 46.9-46.9 46.9 21 46.9 46.9-21 46.9-46.9 46.9z" id="Layer_16"/>
    <path class="st0" d="M734.5 461.3V313l-74.2 74.2 74.2 74.1zm451-148.3v148.3l74.2-74.2-74.2-74.1z" id="Layer_17"/>
    <path class="st0" d="M858.1 289.3c-25.9 0-46.9 21-46.9 46.9s21 46.9 46.9 46.9 46.9-21 46.9-46.9-21-46.9-46.9-46.9zm203.8 0c-25.9 0-46.9 21-46.9 46.9s21 46.9 46.9 46.9 46.9-21 46.9-46.9-21-46.9-46.9-46.9z" id="Layer_18"/>
    <path class="st0" d="M393.8 1032.1c-42.9 0-77.6 34.8-77.6 77.6 0 29.1 16 54.4 39.7 67.7 11.2 6.3 24.2 9.9 38 9.9 12.8 0 25-3.1 35.6-8.6 25-12.9 42-39 42-69 0-42.8-34.8-77.6-77.7-77.6zm1133 0c-42.9 0-77.6 34.8-77.6 77.6 0 30 17.1 56.1 42 69 10.7 5.5 22.8 8.6 35.6 8.6 13.8 0 26.7-3.6 38-9.9 23.7-13.3 39.7-38.6 39.7-67.7 0-42.8-34.8-77.6-77.7-77.6z" id="Layer_19"/>
    <path class="st0" d="M559.9 727.5l100.5 598.3 189.4-444.3L960 622.9H542.3l17.6 104.6zM960 622.9l110.2 258.6 189.4 444.3 118.1-703H960z" id="Layer_20"/>
    <path class="st0" d="M1070.2 881.5L960 622.9 849.8 881.5l-189.4 444.3h599.2z" id="Layer_21"/>
    <path class="st0" d="M710.5 1411.9c15-12.8 34.5-20.6 55.8-20.6 21.3 0 40.8 7.8 55.8 20.6v-86H710.5v86zm387.1-86.1v86c15-12.8 34.5-20.6 55.8-20.6 21.3 0 40.8 7.8 55.8 20.6v-86h-111.6zm-387.1 216.8v86.1h111.6v-86.1c-15 12.8-34.5 20.6-55.8 20.6-21.3 0-40.8-7.8-55.8-20.6zm387.1 0v86.1h111.6v-86.1c-15 12.8-34.5 20.6-55.8 20.6-21.3 0-40.8-7.8-55.8-20.6z" id="Layer_22"/>
    <path class="st0" d="M822.2 1411.9c-15-12.8-34.5-20.6-55.8-20.6-21.3 0-40.8 7.8-55.8 20.6-18.4 15.8-30.1 39.2-30.1 65.3 0 26.2 11.7 49.6 30.1 65.3 15 12.8 34.5 20.6 55.8 20.6 21.3 0 40.8-7.8 55.8-20.6 18.4-15.8 30.1-39.2 30.1-65.3 0-26.1-11.7-49.5-30.1-65.3zm387 0c-15-12.8-34.5-20.6-55.8-20.6-21.3 0-40.8 7.8-55.8 20.6-18.4 15.8-30.1 39.2-30.1 65.3 0 26.2 11.7 49.6 30.1 65.3 15 12.8 34.5 20.6 55.8 20.6 21.3 0 40.8-7.8 55.8-20.6 18.4-15.8 30.1-39.2 30.1-65.3 0-26.1-11.7-49.5-30.1-65.3z" id="Layer_23"/>
    <path class="st0" d="M675.6 1703.1h181.5v-74.4H675.6v74.4zm387-74.5v74.4h181.5v-74.4h-181.5z" id="Layer_24"/>
    <path class="st0" d="M429.5 1178.7v170c50.8 0 92-41.2 92-92v-146.9h-50c0 30-17.1 56-42 68.9zm-113.3-68.9h-52.3v146.9c0 50.8 41.2 92 92 92v-171.2c-23.7-13.3-39.7-38.7-39.7-67.7zm1288.3 0c0 29.1-16 54.4-39.7 67.7v171.2c50.8 0 92-41.2 92-92v-146.9h-52.3zm-155.3 0h-50v146.9c0 50.8 41.2 92 92 92v-170c-24.9-12.9-42-38.9-42-68.9z" id="Layer_25"/>
    <g id="STROKES">
        <circle class="st1" cx="858.1" cy="336.2" r="46.9"/>
        <circle class="st1" cx="1061.9" cy="336.2" r="46.9"/>
        <path class="st1" d="M811.2 461.3l37.2 41.3 37.2-41.3 37.2 41.3 37.2-41.3 37.2 41.3 37.2-41.3 37.2 41.3 37.2-41.3"/>
        <path class="st1" d="M734.5 313v148.3l-74.1-74.1z"/>
        <path class="st1" d="M734.5 217.2h450.9v405.7H734.5z"/>
        <path class="st1" d="M1259.6 387.2l-74.1 74.1V313z"/>
        <path class="st1" d="M660.4 387.2h-55.5"/>
        <path class="st1" d="M1315.1 387.2h-55.5"/>
        <path class="st1" d="M1259.6 1325.8H660.4L542.3 622.9h835.4z"/>
        <path class="st1" d="M660.4 1325.8L960 622.9l299.6 702.9"/>
        <path class="st1" d="M1126.9 783.9L960 1071.5 793.1 783.9"/>
        <path class="st1" d="M1209.2 1325.8v86.1c-15-12.8-34.5-20.6-55.8-20.6-21.3 0-40.8 7.8-55.8 20.6v-86.1h111.6z"/>
        <path class="st1" d="M1153.4 1563.2c21.3 0 40.8-7.8 55.8-20.6v86.1h-111.6v-86.1c15 12.8 34.5 20.6 55.8 20.6z"/>
        <path class="st1" d="M1239.3 1477.2c0 26.2-11.7 49.6-30.1 65.3-15 12.8-34.5 20.6-55.8 20.6-21.3 0-40.8-7.8-55.8-20.6-18.4-15.8-30.1-39.2-30.1-65.3 0-26.2 11.7-49.6 30.1-65.3 15-12.8 34.5-20.6 55.8-20.6 21.3 0 40.8 7.8 55.8 20.6 18.5 15.8 30.1 39.2 30.1 65.3z"/>
        <path class="st1" d="M1062.7 1628.6h181.5v74.4h-181.5z"/>
        <path class="st1" d="M822.2 1325.8v86.1c-15-12.8-34.5-20.6-55.8-20.6s-40.8 7.8-55.8 20.6v-86.1h111.6z"/>
        <path class="st1" d="M766.3 1563.2c21.3 0 40.8-7.8 55.8-20.6v86.1H710.5v-86.1c15 12.8 34.5 20.6 55.8 20.6z"/>
        <path class="st1" d="M852.3 1477.2c0 26.2-11.7 49.6-30.1 65.3-15 12.8-34.5 20.6-55.8 20.6s-40.8-7.8-55.8-20.6c-18.4-15.8-30.1-39.2-30.1-65.3 0-26.2 11.7-49.6 30.1-65.3 15-12.8 34.5-20.6 55.8-20.6s40.8 7.8 55.8 20.6c18.4 15.8 30.1 39.2 30.1 65.3z"/>
        <path class="st1" d="M675.6 1628.6h181.5v74.4H675.6z"/>
        <path class="st1" d="M355.9 1177.5v171.2c-50.8 0-92-41.2-92-92v-147h52.3c0 29.1 16 54.5 39.7 67.8z"/>
        <path class="st1" d="M471.5 1109.8c0 30-17.1 56.1-42 69-10.7 5.5-22.8 8.6-35.6 8.6-13.8 0-26.7-3.6-38-9.9-23.7-13.3-39.7-38.6-39.7-67.7 0-42.9 34.8-77.6 77.6-77.6 42.9-.1 77.7 34.7 77.7 77.6z"/>
        <path class="st1" d="M521.5 1109.8v147c0 50.8-41.2 92-92 92v-170c25-12.9 42-39 42-69h50z"/>
        <path class="st1" d="M559.9 727.5s-166 1.8-166 183.2v121.4"/>
        <path class="st1" d="M1564.8 1177.5v171.2c50.8 0 92-41.2 92-92v-147h-52.3c0 29.1-16 54.5-39.7 67.8z"/>
        <path class="st1" d="M1449.2 1109.8c0 30 17.1 56.1 42 69 10.7 5.5 22.8 8.6 35.6 8.6 13.8 0 26.7-3.6 38-9.9 23.7-13.3 39.7-38.6 39.7-67.7 0-42.9-34.8-77.6-77.6-77.6-42.9-.1-77.7 34.7-77.7 77.6z"/>
        <path class="st1" d="M1399.2 1109.8v147c0 50.8 41.2 92 92 92v-170c-25-12.9-42-39-42-69h-50z"/>
        <path class="st1" d="M1360.8 727.5s166 1.8 166 183.2v121.4"/>
    </g>
</svg>
