<svg xmlns="http://www.w3.org/2000/svg" viewBox="0 0 1920 1920">
    <style>
        .st0{fill:#fff}.st1{fill:none;stroke:#231f20;stroke-width:50;stroke-linecap:round;stroke-linejoin:round;stroke-miterlimit:10}
    </style>
    <path class="st0" d="M957.9 217c-26.9 0-48.7 21.8-48.7 48.7 0 26.9 21.8 48.7 48.7 48.7 26.9 0 48.7-21.8 48.7-48.7 0-26.9-21.8-48.7-48.7-48.7z" id="Layer_9"/>
    <path class="st0" d="M1200 501.6c-61.4-50.4-146.3-81.5-240-81.5-187.5 0-339.5 124.6-339.5 278.3h678.9c.1-76.9-37.9-146.5-99.4-196.8z" id="Layer_10"/>
    <path class="st0" d="M620.5 698.3v572.1h678.9V698.3H620.5zm437.1 311.3H708V791.5h349.6v218.1zm113.4 0c-22.6 0-41-18.3-41-41s18.4-41 41-41 41 18.3 41 41-18.4 41-41 41zm0-136.2c-22.6 0-41-18.3-41-41 0-22.6 18.4-41 41-41s41 18.3 41 41c0 22.6-18.4 41-41 41z" id="Layer_11"/>
    <path class="st0" d="M708 791.5h349.6v218.2H708z" id="Layer_12"/>
    <path class="st0" d="M1171 873.4c22.6 0 41-18.3 41-41s-18.3-41-41-41-41 18.3-41 41 18.4 41 41 41zm0 54.3c-22.6 0-41 18.3-41 41s18.3 41 41 41 41-18.3 41-41-18.4-41-41-41z" id="Layer_13"/>
    <path class="st0" d="M1068.2 1270.4v338.5h107.4v-338.5h-107.4zm-323.9 338.5h107.4v-338.5H744.3v338.5z" id="Layer_14"/>
    <path class="st0" d="M681.6 1661.7v41.4h218.3v-94.2H734.3c-29.1 0-52.7 23.6-52.7 52.8zm504.1-52.8h-165.6v94.2h218.3v-41.4c0-29.2-23.6-52.8-52.7-52.8z" id="Layer_15"/>
    <g id="STROKES">
        <path class="st1" d="M620.5 698.3h678.9v572.1H620.5z"/>
        <path class="st1" d="M744.3 1270.4h107.4v338.5H744.3z"/>
        <path class="st1" d="M681.6 1703.1h218.3v-94.2H734.3c-29.1 0-52.8 23.6-52.8 52.8v41.4z"/>
        <path transform="rotate(-180 1121.947 1439.645)" class="st1" d="M1068.2 1270.4h107.4v338.5h-107.4z"/>
        <path class="st1" d="M1238.4 1703.1h-218.3v-94.2h165.6c29.1 0 52.8 23.6 52.8 52.8v41.4z"/>
        <path class="st1" d="M851.8 1332.2H744.3"/>
        <path class="st1" d="M851.8 1403.6H744.3"/>
        <path class="st1" d="M851.8 1475.1H744.3"/>
        <path class="st1" d="M851.8 1546.6H744.3"/>
        <path class="st1" d="M1175.7 1332.2h-107.5"/>
        <path class="st1" d="M1175.7 1403.6h-107.5"/>
        <path class="st1" d="M1175.7 1475.1h-107.5"/>
        <path class="st1" d="M1175.7 1546.6h-107.5"/>
        <path class="st1" d="M708 791.5h349.6v218.2H708z"/>
        <circle class="st1" cx="1171" cy="832.4" r="41"/>
        <circle class="st1" cx="1171" cy="968.7" r="41"/>
        <path class="st1" d="M704.5 1110.6h511"/>
        <path class="st1" d="M704.5 1174.5h511"/>
        <path class="st1" d="M1299.5 698.3h-679c0-153.7 152-278.3 339.5-278.3 187.5.1 339.5 124.7 339.5 278.3z"/>
        <circle class="st1" cx="957.9" cy="265.7" r="48.7"/>
        <path class="st1" d="M957.9 314.4v105.7"/>
        <path class="st1" d="M537.7 791.5h82.8v109.1h-82.8z"/>
        <path class="st1" d="M537.7 738.4v587.4"/>
        <path class="st1" d="M485 1402c0-42 23.6-76.1 52.8-76.1 29.2 0 52.8 34.1 52.8 76.1"/>
        <path transform="rotate(-180 1340.859 846.001)" class="st1" d="M1299.5 791.5h82.8v109.1h-82.8z"/>
        <path class="st1" d="M1382.3 738.4v587.4"/>
        <path class="st1" d="M1435 1402c0-42-23.6-76.1-52.8-76.1-29.2 0-52.8 34.1-52.8 76.1"/>
    </g>
</svg>
