<svg xmlns="http://www.w3.org/2000/svg" viewBox="0 0 1920 1920">
    <style>
        .st0{fill:#fff}.st1{fill:none;stroke:#231f20;stroke-width:50;stroke-linecap:round;stroke-linejoin:round;stroke-miterlimit:10}
    </style>
    <path class="st0" d="M1031.6 487.9H888.4c0-60 5.3-107 13-143.5 20.6-98 58.6-121.2 58.6-121.2s38 23.2 58.6 121.2c7.7 36.5 13 83.5 13 143.5z" id="Layer_13"/>
    <path class="st0" d="M888.4 487.9v695.6h143.1V487.9H888.4z" id="Layer_14"/>
    <path class="st0" d="M888.4 922.9v260.6H757.2z" id="Layer_15"/>
    <path class="st0" d="M1162.8 1183.5h-131.2V922.9z" id="Layer_16"/>
    <path class="st0" d="M1318.4 1563.9c-22-92.4-105-161.1-204.1-161.1-22.9 0-44.9 3.7-65.6 10.5-27.8-114.1-36.9-229.8-36.9-229.8h-90.2s-7.2 132.6-25.6 249.1c-5.3-1.5-10.8-2.3-16.6-2.3-33.2 0-60.1 26.9-60.1 60.1v.8c-46.5 10.4-84.5 43.1-102.3 86.3-15-8.7-32.4-13.6-51-13.6-56.3 0-102 45.7-102 102 0 13.1 2.5 25.7 7 37.2h808.6c4.2-11.6 6.4-24.2 6.4-37.2-.1-45.9-27.9-85.2-67.6-102z" id="Layer_17"/>
    <g id="STROKES">
        <path class="st1" d="M888.4 487.9h143.1v695.6H888.4z"/>
        <path class="st1" d="M1031.6 487.9H888.4c0-60 5.3-107 13-143.5 20.6-98 58.6-121.2 58.6-121.2s38 23.2 58.6 121.2c7.7 36.5 13 83.5 13 143.5z"/>
        <path class="st1" d="M888.4 922.9v260.6H757.2z"/>
        <path class="st1" d="M1031.6 922.9v260.6h131.1z"/>
        <path class="st1" d="M888.4 568.5h143.2"/>
        <path class="st1" d="M888.4 641.8h143.2"/>
        <path class="st1" d="M888.4 715.1h143.2"/>
        <path class="st1" d="M888.4 788.4h143.2"/>
        <path class="st1" d="M888.4 861.7h143.2"/>
        <path class="st1" d="M888.4 935h143.2"/>
        <path class="st1" d="M888.4 1008.3h143.2"/>
        <path class="st1" d="M960 1008.3v175.2"/>
        <path class="st1" d="M1385.9 1665.8c0 13.1-2.3 25.6-6.4 37.2H570.8c-4.5-11.5-7-24.1-7-37.2 0-56.3 45.7-102 102-102 18.6 0 36 5 51 13.6 17.8-43.2 55.9-75.9 102.3-86.3v-.8c0-33.2 26.9-60.1 60.1-60.1 5.8 0 11.3.8 16.6 2.3 25.1 7.2 43.5 30.3 43.5 57.8 0 2.4-.2 4.7-.4 7 25.8-39.2 64.4-69.2 109.7-84.1 20.6-6.8 42.7-10.5 65.6-10.5 99.1 0 182.1 68.7 204.1 161.1 39.8 16.9 67.6 56.2 67.6 102z"/>
        <path class="st1" d="M1048.7 1413.3c-45.4 14.9-83.9 44.9-109.7 84.1.3-2.3.4-4.6.4-7 0-27.4-18.4-50.6-43.5-57.8 18.4-116.5 25.6-249.1 25.6-249.1h90.2s9.2 115.7 37 229.8z"/>
        <path class="st1" d="M938.9 1497.4s-27 38.2-22.9 98.1"/>
        <path class="st1" d="M1318.4 1563.9s-90.1-11.8-119 56.4"/>
        <path class="st1" d="M716.9 1577.4s36.8 20.7 40.4 53.5"/>
        <path class="st1" d="M819.2 1490.3s34.9 5.6 45.7 21.4"/>
    </g>
</svg>
