<svg xmlns="http://www.w3.org/2000/svg" viewBox="0 0 1920 1920">
    <style>
        .st0{fill:#fff}.st1{fill:none;stroke:#231f20;stroke-width:50;stroke-linecap:round;stroke-linejoin:round;stroke-miterlimit:10}
    </style>
    <path class="st0" d="M1121.3 492H793.7c40.2-99.4 94.8-192.5 163.8-275 69 82.4 123.6 175.6 163.8 275z" id="Layer_2"/>
    <path class="st0" d="M1121.3 492H793.7C732 644.3 704.1 811.3 710 976.9h495c5.9-165.6-22-332.6-83.7-484.9zM957.5 864.8c-62.6 0-113.4-50.8-113.4-113.4 0-62.6 50.8-113.4 113.4-113.4s113.4 50.8 113.4 113.4c0 62.6-50.7 113.4-113.4 113.4z" id="Layer_4"/>
    <circle class="st0" cx="957.5" cy="751.4" r="113.4" id="Layer_5"/>
    <path class="st0" d="M710.1 976.8c4.1 115.1 24.5 229.6 61.3 338 9.9 29.3 21.1 58.1 33.4 86.4h305.6c57.9-133 89.5-278.2 94.7-424.4h-495z" id="Layer_6"/>
    <path class="st0" d="M804.7 1401.3c-98.8 44.9-146 301.8-146 301.8-192.5-470.1 50.5-726.2 50.5-726.2h.8c4.1 115.1 24.5 229.6 61.3 338 10 29.2 21.1 58.1 33.4 86.4z" id="Layer_7"/>
    <path class="st0" d="M1261.3 1703.1s-47.2-256.9-146-301.8h-4.9c57.9-133 89.5-278.2 94.7-424.4h5.7c-.1-.1 243 256 50.5 726.2z" id="Layer_8"/>
    <path class="st0" d="M804.7 1401.3h78.4v131.1h-78.4z" id="Layer_9"/>
    <path class="st0" d="M883.2 1401.3h74.4v131.1h-74.4z" id="Layer_10"/>
    <path class="st0" d="M957.5 1401.3h74.4v131.1h-74.4z" id="Layer_11"/>
    <path class="st0" d="M1031.9 1401.3h78.4v131.1h-78.4z" id="Layer_12"/>
    <g id="STROKES">
        <path class="st1" d="M957.5 216.9C782.8 425.8 700.3 703.2 710.1 976.8H1205c9.7-273.6-72.7-551-247.5-759.9zm0 647.9c-62.6 0-113.4-50.8-113.4-113.4S894.9 638 957.5 638s113.4 50.8 113.4 113.4-50.7 113.4-113.4 113.4z"/>
        <path class="st1" d="M1205 976.8c-5.2 146.2-36.7 291.4-94.7 424.4H804.7c-12.3-28.3-23.5-57.1-33.4-86.4-36.8-108.4-57.2-222.9-61.3-338h495z"/>
        <path class="st1" d="M804.7 1401.3h305.6v131.1H804.7z"/>
        <path class="st1" d="M799.8 492h315.5"/>
        <path class="st1" d="M1031.9 1532.4v-131.1"/>
        <path class="st1" d="M957.5 1532.4v-131.1"/>
        <path class="st1" d="M883.2 1532.4v-131.1"/>
        <path class="st1" d="M804.7 1401.3c-98.8 44.9-146 301.8-146 301.8-192.5-470.1 50.5-726.2 50.5-726.2h.8c4.1 115.1 24.5 229.6 61.3 338 10 29.2 21.1 58.1 33.4 86.4z"/>
        <path class="st1" d="M1261.3 1703.1s-47.2-256.9-146-301.8H804.7c-12.3-28.3-23.5-57.1-33.4-86.4-36.8-108.4-57.2-222.9-61.3-338h500.7c0-.1 243.1 256 50.6 726.2z"/>
    </g>
</svg>
