<svg xmlns="http://www.w3.org/2000/svg" viewBox="0 0 1920 1920">
    <style>
        .st0{fill:#fff}.st1{fill:none;stroke:#231f20;stroke-width:50;stroke-linecap:round;stroke-linejoin:round;stroke-miterlimit:10}
    </style>
    <path class="st0" d="M1423.4 1292.8c8.6 14.3 13.6 41.3 13.6 59.2 0 52.5-42.5 95-95 95s-95-42.5-95-95c0-6.6.7-18.4 1.9-24.6v-.1c51.3-2.4 93.5-6.4 113.6-11.6 24.9-6.5 45.2-15 60.9-23.1v.2zm-441.2 290.7c0 65.4 53.1 118.5 118.5 118.5s118.5-53.1 118.5-118.5c0-65.5-53.1-118.5-118.5-118.5s-118.5 53.1-118.5 118.5zm-642.8 0c0 65.4 53.1 118.5 118.5 118.5s118.5-53.1 118.5-118.5c0-65.5-53.1-118.5-118.5-118.5s-118.5 53.1-118.5 118.5z" id="Layer_3"/>
    <path class="st0" d="M1499.1 1009.6c157.1 47.4 124.7 142.1 124.7 142.1s-27.4 27.4-84.8 42.4c-14.3 3.7-42.2 6.7-76.9 8.7l-.8.3c-13.1-36.1-50.1-80.2-146.8-109.4-35.3-10.7-73-27.3-110.9-48.1-44-24.2-88.4-54.1-130.1-87-41.6-32.9-80.4-68.7-113.3-104.7-36.6-40-65.8-80.4-83.5-117.3-10.2-21.3-16.5-41.5-18.2-59.8-3.3-36-4.5-83-4.6-132.5-.1-49.6.9-101.7 2.3-147.3 1-32.8 2.1-62.4 3.1-85.3 127-82.5 263.4 7.5 263.4 7.5s-1.4 25.6-2.8 63.8c-.8 20.6-1.6 44.9-2.2 70.8-1 40.1-1.6 84.2-1.1 124.6.4 31.6 1.5 60.9 3.7 84.5 1.5 16.4 7.5 34.5 17.1 53.6 13.7 27.4 34.9 56.9 61 86.4 26 29.4 57 58.8 90.4 86 33 26.9 68.3 51.7 103.7 72.3 36.2 21.3 72.7 38.2 106.6 48.4zM858.5 676.8c-3.3-36-4.5-83-4.6-132.5l-92.8 92.8c15.5 84.2 34.8 150 53.7 200.6l61.9-101.1c-10.2-21.4-16.6-41.5-18.2-59.8zm-97.4-39.7l92.8-92.8c-.1-49.6.9-101.7 2.3-147.3L738 463c5.6 65.2 13.6 123 23.1 174.1zm553.4 456.7c-35.3-10.7-73-27.3-110.9-48.1-44-24.2-88.4-54.1-130.1-87-41.6-32.9-80.4-68.7-113.3-104.7-36.6-40-65.8-80.4-83.5-117.3l-61.9 101.1c-18.9-50.5-38.2-116.4-53.7-200.6-9.4-51.1-17.5-108.9-23.2-174.1l118.2-66c1-32.8 2.1-62.4 3.1-85.3 1.3-30 2.3-48.6 2.3-48.6s-72-48-183-45-285 144-345 138c0 0 93 245.6 27 446.7s-99 300-24 474c0 0 46.9 21.7 111 34.1 39.7 7.7 86.1 11.8 132 4.9l3-126 .5-2.9c23.2 3.3 45.4 5.5 65.5 5.9 129 3 183 96 249 120 2.6 1 5.7 1.9 9.1 2.7 35.7 9.1 113.1 13.6 194.9 14.4 50.4.5 102.5-.4 147.5-2.5 51.3-2.4 93.5-6.4 113.6-11.6 24.9-6.5 45.2-15 60.9-23.1 27.7-14.4 41.2-27.9 41.2-27.9s9.3-27.2-3.2-61.6c-13.3-36.2-50.3-80.3-147-109.5zm-731.6 93.1l-.5 2.9-3 126h327l.1-.3c-3.4-.9-6.5-1.8-9.1-2.7-66-24-120-117-249-120-20.1-.5-42.3-2.6-65.5-5.9z" id="Layer_4"/>
    <path class="st0" d="M906.5 1315.6c35.7 9.1 113.1 13.6 194.9 14.4v65.6h-654V1311c39.7 7.7 86.1 11.8 132 4.9h327l.1-.3z" id="Layer_5"/>
    <g id="Layer_1">
        <g id="XMLID_2_">
            <circle class="st1" cx="457.9" cy="1583.5" r="118.5"/>
            <path class="st1" d="M1100.8 1465c65.4 0 118.5 53.1 118.5 118.5s-53.1 118.5-118.5 118.5c-65.5 0-118.5-53.1-118.5-118.5-.1-65.4 53-118.5 118.5-118.5z"/>
            <path class="st1" d="M297.4 1114.8c7.6 2.5 160.4 54.2 285.5 72.1 23.2 3.3 45.4 5.5 65.5 5.9 129 3 183 96 249 120 2.6 1 5.7 1.9 9.1 2.7 35.7 9.1 113.1 13.6 194.9 14.4 50.4.5 102.5-.4 147.5-2.5 51.3-2.4 93.5-6.4 113.6-11.6 24.9-6.5 45.2-15 60.9-23.1 27.7-14.4 41.2-27.9 41.2-27.9s9.3-27.2-3.2-61.6c-13.1-36.1-50.1-80.2-146.8-109.4-35.3-10.7-73-27.3-110.9-48.1-44-24.2-88.4-54.1-130.1-87C1032 925.8 993.2 890 960.3 854c-36.6-40-65.8-80.4-83.5-117.3-10.2-21.3-16.5-41.5-18.2-59.8-3.3-36-4.5-83-4.6-132.5-.1-49.6.9-101.7 2.3-147.3 1-32.8 2.1-62.4 3.1-85.3 1.3-30 2.3-48.6 2.3-48.6s-72-48-183-45-285 144-345 138c0 0 93 245.6 27 446.7s-99 300-24 474c0 0 46.9 21.7 111 34.1 39.7 7.7 86.1 11.8 132 4.9l3-126"/>
            <path class="st1" d="M579.4 1315.8h327.1"/>
            <path class="st1" d="M447.4 1310.8V1465"/>
            <path class="st1" d="M1101.5 1330v135"/>
            <path class="st1" d="M1206.5 1131.6l-2.9-85.9-1.1-32.6"/>
            <path class="st1" d="M1073.5 1094.1v-183"/>
            <path class="st1" d="M920.5 998.1l39.7-144.2 9.8-35.8"/>
            <path class="st1" d="M790 878.1l24.8-40.4 61.9-101.1 19.8-32.5"/>
            <path class="st1" d="M716.5 681.6l.7-.6 43.9-43.9 92.7-92.8 26.2-26.2"/>
            <path class="st1" d="M709 479.1l28.9-16.1 118.2-66 32.9-18.4"/>
            <path class="st1" d="M688 324.6c1.4-.5 18.8-.6 41.8-.7 49.3 0 124.7.7 124.7.7"/>
            <path class="st1" d="M653.6 459.7c22.8-4.3 44.8 10.7 49.1 33.5C707 516 692 538 669.2 542.3"/>
            <path class="st1" d="M662.8 669.4c18.7-10.6 42-5.3 54.4 11.5 1 1.4 2 2.8 2.8 4.4 11.4 20.2 4.3 45.8-15.9 57.2"/>
            <path class="st1" d="M734.5 879c18.1-14.5 44.5-11.6 59 6.5s11.6 44.5-6.5 59"/>
            <path class="st1" d="M859.3 1017.2c10.1-20.9 35.3-29.6 56.1-19.4 20.9 10.1 29.6 35.3 19.4 56.1"/>
            <path class="st1" d="M646 284.1c23.2 0 42 18.8 42 42s-18.8 42-42 42"/>
            <path class="st1" d="M1312 1100.1s-45 81-166.5 36-195-102-195-102"/>
            <path class="st1" d="M890.5 980.1s-37.1-39.1-75.7-142.4c-18.9-50.5-38.2-116.4-53.7-200.6-9.4-51.1-17.5-108.9-23.2-174.1-3.8-43.1-6.6-89.4-8.1-139.1-.9-30-1.3-61.3-1.3-93.8"/>
            <path class="st1" d="M446.6 1395.6h654.9"/>
            <path class="st1" d="M1423.4 1292.8c8.6 14.3 13.6 41.3 13.6 59.2 0 52.5-42.5 95-95 95s-95-42.5-95-95c0-6.6.7-18.4 1.9-24.6"/>
            <path class="st1" d="M1462.2 1202.9c34.6-2 62.5-5 76.9-8.7 57.3-15 84.8-42.4 84.8-42.4s32.4-94.8-124.7-142.1c-33.9-10.2-70.4-27.1-106.9-48.3-35.4-20.6-70.8-45.4-103.7-72.3-33.4-27.2-64.3-56.6-90.4-86-26.1-29.5-47.3-59-61-86.4-9.6-19.2-15.6-37.3-17.1-53.6-2.2-23.6-3.2-53-3.7-84.5-.5-40.5.1-84.5 1.1-124.6.6-25.9 1.5-50.2 2.2-70.8 1.5-38.2 2.8-63.8 2.8-63.8s-136.4-90.1-263.4-7.5"/>
            <path class="st1" d="M1383.9 1010.6l8.4-49.3 3.7-22.1"/>
            <path class="st1" d="M1278.5 972.5l10-83.5 2.8-22.8"/>
            <path class="st1" d="M1162.7 902.7l35.5-99.7 5.8-16.2"/>
            <path class="st1" d="M1081.7 801.1l55.5-84.4 14.4-22"/>
            <path class="st1" d="M1037.3 640.8l79.1-62.3 17.7-13.9"/>
            <path class="st1" d="M1034.1 505.8l83.4-51.9 14.8-9.3"/>
            <path class="st1" d="M1038.9 382c2.5-.8 51.9.3 80.9 1 12.1.3 20.7.5 20.7.5"/>
            <path class="st1" d="M1037.3 285.9s-47.2 445 55.6 561.2c96.8 109.5 258.7 185.7 307.9 193.7 49.2 7.9 82.5-25.4 82.5-25.4"/>
        </g>
    </g>
</svg>
