<svg xmlns="http://www.w3.org/2000/svg" viewBox="0 0 1920 1920">
    <style>
        .st0{fill:#fff}.st1{fill:none;stroke:#231f20;stroke-width:50;stroke-linecap:round;stroke-linejoin:round;stroke-miterlimit:10}
    </style>
    <path class="st0" d="M1235.5 970c-2.2 53-3.9 97.5-4.4 118.6-1.5 62.8 58.9 77.7 66 79.2 7.1-1.5 67.5-16.5 66-79.2-.5-21-2.1-64.9-4.4-117.4-1.5-34.4-3.2-72.5-5.1-110.3-1.9-38.7-3.9-77-5.9-110.7-2.5-42.5-5-77.5-7.1-96.6-.4-4-.9-8.7-1.2-14.1-1.8-25.3-3-65.3-3.3-110.7-.3-35.2 0-73.5.8-110.7.9-40.2 2.5-78.9 4.9-110.7 2.9-38.7 7-67 12.5-74.6 20.6-28.6 89.1-30.2 100.2 66.7 0 0-50.2 404.8-20 463.5 30.2 58.7 77.8 201.6 54 293.7-23.8 92.1 1.6 198.4-11.1 225.4-12.6 26.8-95.9 61.5-179.6 61.9h-1.4c-83.7-.4-166.9-35.1-179.6-61.9-.1-.1-.1-.3-.2-.4-12.3-27.6 12.8-133.4-10.9-225-23.8-92.1 23.8-234.9 54-293.7 30.2-58.7-19-463.5-19-463.5 11.1-96.8 78.6-95.2 99.2-66.7 5.5 7.6 9.6 35.9 12.5 74.6 2.4 31.7 3.9 70.5 4.8 110.7.8 37.1 1 75.5.8 110.7-.4 45.3-1.5 85.4-3.3 110.7-.4 5.4-.8 10.1-1.2 14.1-2.1 19-4.6 54.1-7.1 96.6-2 33.7-4 72-5.9 110.7-1.9 37.4-3.6 75.1-5 109.1zm-118.8 311.9l-.9.4s-19.1 47.6 4.8 68.3c23.8 20.6 96.8 54 182.5 54s160.3-41.3 166.7-57.2c6.3-15.9 7.6-65.1 7.6-65.1-12.6 26.8-95.9 61.5-179.6 61.9h-1.4c-83.7-.4-166.9-35.1-179.6-61.9 0-.1-.1-.2-.1-.4zM572.3 750.3c2.5-42.5 5-77.5 7.1-96.6.4-4 .9-8.7 1.2-14.1 1.8-25.3 3-65.3 3.3-110.7.3-35.2.1-73.5-.8-110.7-.9-40.2-2.4-78.9-4.8-110.7-2.9-38.7-7-67-12.5-74.6-20.6-28.6-88.1-30.2-99.2 66.7 0 0 49.2 404.8 19 463.5-30.1 58.7-77.8 201.6-54 293.7 23.7 91.6-1.4 197.4 10.9 225 .1.1.1.3.2.4 12.6 26.8 95.9 61.5 179.6 61.9h1.4c83.7-.4 167-35.1 179.6-61.9 12.7-27-12.7-133.3 11.1-225.4 23.8-92.1-23.8-234.9-54-293.7-30.2-58.7 20-463.5 20-463.5-11.1-96.8-79.6-95.2-100.2-66.7-5.5 7.6-9.6 35.9-12.5 74.6-2.4 31.7-4 70.5-4.9 110.7-.8 37.1-1.1 75.5-.8 110.7.3 45.3 1.5 85.4 3.3 110.7.4 5.4.8 10.1 1.2 14.1 2.1 19 4.6 54.1 7.1 96.6 2 33.7 4 72 5.9 110.7 1.9 37.8 3.6 75.9 5.1 110.3 2.2 52.5 3.9 96.4 4.4 117.4 1.5 62.8-58.9 77.7-66 79.2-7.1-1.5-67.5-16.5-66-79.2.5-21.2 2.1-65.6 4.4-118.6 1.4-34.1 3.1-71.7 4.9-109 2-38.8 4-77.1 6-110.8zm56.8 654.3c85.7 0 160.3-41.3 166.7-57.2 6.3-15.9 7.6-65.1 7.6-65.1-12.6 26.8-95.9 61.5-179.6 61.9h-1.4c-83.7-.4-167-35.1-179.6-61.9-.1-.1-.1-.3-.2-.4l-.9.4s-19 47.6 4.8 68.3c23.9 20.6 96.9 54 182.6 54z" id="Layer_5"/>
    <path class="st0" d="M1491.9 1410.9c40.6 0 73.5 32.9 73.5 73.4v146.1c0 40.6-32.9 73.5-73.5 73.5h-34c-40.6 0-73.4-32.9-73.4-73.5v-49.7h30.1c12.1-17.4 19.1-37.8 19.1-59.5 0-30.4-13.6-58.1-36-78.9 13.3-19 35.3-31.4 60.2-31.4h34zm-331.3 110.3c0-30.4 13.6-58.1 36-78.9-13.3-19-35.3-31.4-60.2-31.4h-34c-40.6 0-73.5 32.9-73.5 73.4v146.1c0 40.6 32.9 73.5 73.5 73.5h34c40.6 0 73.5-32.9 73.5-73.5v-49.7h-30.1c-12.2-17.4-19.2-37.7-19.2-59.5zm-375.4-110.3c-41.2 0-74.6 33.4-74.6 74.6v143.9c0 41.2 33.4 74.6 74.6 74.6H817c41.2 0 74.6-33.4 74.6-74.6v-143.9c0-41.2-33.4-74.6-74.6-74.6h-31.8zm-356 0c-41.2 0-74.6 33.4-74.6 74.6v143.9c0 41.2 33.4 74.6 74.6 74.6H461c41.2 0 74.6-33.4 74.6-74.6v-143.9c0-41.2-33.4-74.6-74.6-74.6h-31.8z" id="Layer_6"/>
    <g id="Layer_1">
        <g id="XMLID_2_">
            <path class="st1" d="M803.4 1282.3c12.7-27-12.7-133.3 11.1-225.4 23.8-92.1-23.8-234.9-54-293.7-30.2-58.7 20-463.5 20-463.5-11.1-96.8-79.6-95.2-100.2-66.7-5.5 7.6-9.6 35.9-12.5 74.6-2.4 31.7-4 70.5-4.9 110.7-.8 37.1-1.1 75.5-.8 110.7.3 45.3 1.5 85.4 3.3 110.7.4 5.4.8 10.1 1.2 14.1 2.1 19 4.6 54.1 7.1 96.6 2 33.7 4 72 5.9 110.7 1.9 37.8 3.6 75.9 5.1 110.3 2.2 52.5 3.9 96.4 4.4 117.4 1.5 62.8-58.9 77.7-66 79.2-7.1-1.5-67.5-16.5-66-79.2.5-21.2 2.1-65.6 4.4-118.6 1.4-34.1 3.1-71.7 4.9-109 1.9-38.7 3.9-77 5.8-110.7 2.5-42.5 5-77.5 7.1-96.6.4-4 .9-8.7 1.2-14.1 1.8-25.3 3-65.3 3.3-110.7.3-35.2.1-73.5-.8-110.7-.9-40.2-2.4-78.9-4.8-110.7-2.9-38.7-7-67-12.5-74.6-20.6-28.6-88.1-30.2-99.2 66.7 0 0 49.2 404.8 19 463.5-30.1 58.7-77.8 201.6-54 293.7 23.7 91.6-1.4 197.4 10.9 225 .1.1.1.3.2.4 12.6 26.8 95.9 61.5 179.6 61.9h1.4c83.9-.5 167.2-35.1 179.8-62z"/>
            <path class="st1" d="M441.8 1282.3s-19 47.6 4.8 68.3c23.8 20.6 96.8 54 182.5 54s160.3-41.3 166.7-57.2c6.3-15.9 7.6-65.1 7.6-65.1"/>
            <path class="st1" d="M623.1 1334.7v-160.3"/>
            <path class="st1" d="M564.4 1082.3h117.5"/>
            <path class="st1" d="M552.5 307.7h141.3"/>
            <path class="st1" d="M563.6 418.4h119.1"/>
            <path class="st1" d="M557.2 529H689"/>
            <path class="st1" d="M563.6 639.7h119.1"/>
            <path class="st1" d="M554.5 750.3h137.2"/>
            <path class="st1" d="M521.2 969.6l40.3.4 123.2 1.3 40.3.4"/>
            <path class="st1" d="M523.6 861h199.1"/>
            <path class="st1" d="M461 1703.9h-31.9c-41.2 0-74.6-33.4-74.6-74.6v-143.9c0-41.2 33.4-74.6 74.6-74.6H461c41.2 0 74.6 33.4 74.6 74.6v143.9c0 41.2-33.4 74.6-74.6 74.6z"/>
            <path class="st1" d="M817 1703.9h-31.9c-41.2 0-74.6-33.4-74.6-74.6v-143.9c0-41.2 33.4-74.6 74.6-74.6H817c41.2 0 74.6 33.4 74.6 74.6v143.9c0 41.2-33.4 74.6-74.6 74.6z"/>
            <path class="st1" d="M1196.6 1442.3c-13.3-19-35.3-31.4-60.2-31.4h-34c-40.6 0-73.5 32.9-73.5 73.4v146.1c0 40.6 32.9 73.5 73.5 73.5h34c40.6 0 73.5-32.9 73.5-73.5v-49.7"/>
            <path class="st1" d="M1384.4 1580.7v49.7c0 40.6 32.9 73.5 73.4 73.5h34c40.6 0 73.5-32.9 73.5-73.5v-146.1c0-40.6-32.9-73.4-73.5-73.4h-34c-24.9 0-46.9 12.4-60.2 31.4"/>
            <path class="st1" d="M1397.7 1442.3c-25-23.2-60.8-37.8-100.6-37.8s-75.6 14.5-100.5 37.8c-22.3 20.8-36 48.5-36 78.9 0 21.8 7 42.1 19.1 59.5h234.8c12.1-17.4 19.1-37.8 19.1-59.5 0-30.4-13.6-58.1-35.9-78.9z"/>
            <path class="st1" d="M1477.4 1282.3c12.7-27-12.7-133.3 11.1-225.4 23.8-92.1-23.8-234.9-54-293.7-30.2-58.7 20-463.5 20-463.5-11.1-96.8-79.6-95.2-100.2-66.7-5.5 7.6-9.6 35.9-12.5 74.6-2.4 31.7-4 70.5-4.9 110.7-.8 37.1-1.1 75.5-.8 110.7.3 45.3 1.5 85.4 3.3 110.7.4 5.4.8 10.1 1.2 14.1 2.1 19 4.6 54.1 7.1 96.6 2 33.7 4 72 5.9 110.7 1.9 37.8 3.6 75.9 5.1 110.3 2.2 52.5 3.9 96.4 4.4 117.4 1.5 62.8-58.9 77.7-66 79.2-7.1-1.5-67.5-16.5-66-79.2.5-21.2 2.1-65.6 4.4-118.6 1.4-34.1 3.1-71.7 4.9-109 1.9-38.7 3.9-77 5.9-110.7 2.5-42.5 4.9-77.5 7.1-96.6.4-4 .8-8.7 1.2-14.1 1.8-25.3 3-65.3 3.3-110.7.3-35.2.1-73.5-.8-110.7-.9-40.2-2.4-78.9-4.8-110.7-2.9-38.7-7-67-12.5-74.6-20.6-28.6-88.1-30.2-99.2 66.7 0 0 49.2 404.8 19 463.5-30.1 58.7-77.8 201.6-54 293.7 23.7 91.6-1.3 197.4 10.9 225 .1.1.1.3.2.4 12.6 26.8 95.9 61.5 179.6 61.9h1.4c83.8-.5 167.1-35.1 179.7-62z"/>
            <path class="st1" d="M1115.8 1282.3s-19.1 47.6 4.8 68.3c23.8 20.6 96.8 54 182.5 54s160.3-41.3 166.7-57.2c6.3-15.9 7.6-65.1 7.6-65.1"/>
            <path class="st1" d="M1297.1 1334.7v-160.3"/>
            <path class="st1" d="M1238.4 1082.3h117.5"/>
            <path class="st1" d="M1226.5 307.7h141.3"/>
            <path class="st1" d="M1237.6 418.4h119.1"/>
            <path class="st1" d="M1231.2 529H1363"/>
            <path class="st1" d="M1237.6 639.7h119.1"/>
            <path class="st1" d="M1228.5 750.3h137.2"/>
            <path class="st1" d="M1195.2 969.6l40.3.4 123.2 1.3 40.4.4"/>
            <path class="st1" d="M1197.6 861h199.1"/>
            <path class="st1" d="M544.1 1495.9h158"/>
            <path class="st1" d="M623.1 1409.9v70"/>
        </g>
    </g>
</svg>
