<svg xmlns="http://www.w3.org/2000/svg" viewBox="0 0 1920 1920">
    <style>
        .st0{fill:#fff}.st1{fill:none;stroke:#231f20;stroke-width:50;stroke-linecap:round;stroke-linejoin:round;stroke-miterlimit:10}
    </style>
    <g id="Layer_7">
        <path class="st0" d="M1629 759.2c21.8 42.4 35.2 145.5 18 212-17.2 66.5 1.1 143.2-8 162.7-9.1 19.4-69.2 44.4-129.6 44.7h-1c-60.4-.3-120.5-25.3-129.6-44.7-9.2-19.5 9.2-96.2-8-162.7-17.2-66.5-12.4-169.6 9.3-212 21.8-42.4-66-217-66-217 8-69.9 53.8-68.7 68.8-48.1 6.4 8.8 25.6 56.1 45 111.4 11.5 32.6 23 67.9 32.1 99.8 11.6 40.7 19.2 75.8 17.3 92.4-.3 3.2-.7 6.6-1.1 10.1-3 27.8-6.6 65-9.6 100.7-2.7 32.7-4.8 64-5.3 85.6-1.1 45.3 42.5 56.1 47.6 57.2 5.1-1.1 48.7-11.9 47.6-57.2-.5-21.4-2.6-52.4-5.3-84.8-3-35.9-6.7-73.5-9.8-101.6-.4-3.5-.8-6.9-1.1-10.1-1.8-16.5 4.8-51.3 15.1-91.8 8.2-32.1 18.7-67.7 29.2-100.5 17.7-55.3 35.3-102.6 41.7-111.4 14.9-20.6 60.7-21.8 68.7 48.1 0 .2-87.8 174.8-66 217.2zM667.5 537s-1 45.7-6.5 117.1c-1 13.4-2.2 27.7-3.6 42.8-1.2 13.2-5.8 27.8-13.2 43.2-12.8 26.7-33.9 55.8-60.3 84.7-23.8 26-51.8 51.9-81.8 75.6-30.1 23.8-62.1 45.3-93.9 62.8-27.4 15.1-54.5 27.1-80 34.8-136.4 41.1-108.3 123.4-108.3 123.4s23.8 23.8 73.6 36.8c27.2 7.1 110.5 11 188.4 10.2 59.1-.6 115-3.8 140.7-10.4 2.5-.6 4.7-1.3 6.5-2 47.6-17.3 86.6-84.5 179.7-86.6 91.8-2.1 238.5-7.7 248.9-9.9 19.8-86.9-3-155.8-41-271.6-18.9-57.4-17.8-98.2-9.6-126.4 9.9-34.2-6-70.6-37.4-87.4-54-28.9-120.8-68.1-170.2-69.4-80-2.4-132 32.3-132 32.3z"/>
        <path class="st0" d="M629.2 1155.9c47.6-17.3 86.6-84.5 179.7-86.6 91.8-2.1 238.5-7.7 248.9-9.9-5 22-12.8 45.2-23.7 70.5 0 0-33.8 15.7-80.1 24.6-28.7 5.5-62.1 8.5-95.3 3.5h-236v-.2c2.4-.6 4.6-1.2 6.5-1.9z"/>
    </g>
    <path class="st0" d="M1649.5 1226.7c29.3 0 53 23.7 53 53v105.5c0 29.3-23.7 53-53 53h-24.6c-29.3 0-53-23.7-53-53v-35.9h21.7c8.8-12.6 13.8-27.3 13.8-43 0-22-9.8-42-26-57 9.6-13.7 25.5-22.7 43.5-22.7h24.6zm-281.2 0c-29.3 0-53 23.7-53 53v105.5c0 29.3 23.7 53 53 53h24.6c29.3 0 53-23.7 53-53v-35.9h-21.7c-8.8-12.6-13.8-27.3-13.8-43 0-22 9.8-42 26-57-9.6-13.7-25.5-22.7-43.5-22.7h-24.6zm-507.4 124.6c0 47.2 38.3 85.5 85.5 85.5s85.5-38.3 85.5-85.5-38.3-85.5-85.5-85.5-85.5 38.3-85.5 85.5zm-464 0c0 47.2 38.3 85.5 85.5 85.5s85.5-38.3 85.5-85.5-38.3-85.5-85.5-85.5-85.5 38.3-85.5 85.5z" id="Layer_2"/>
    <path class="st0" d="M1508.9 1222.1c28.7 0 54.6 10.5 72.6 27.2 16.1 15 26 35 26 57 0 15.7-5 30.4-13.8 43h-169.4c-8.8-12.6-13.8-27.3-13.8-43 0-22 9.8-42 26-57 17.8-16.7 43.6-27.2 72.4-27.2zm-886.2-64v-.2c-25.8 6.5-81.7 9.8-140.7 10.4v47.3h472.1v-61.1c-28.7 5.5-62.1 8.5-95.3 3.5H622.7z" id="Layer_8"/>
    <g id="Layer_1">
        <g id="XMLID_2_">
            <circle class="st1" cx="946.5" cy="1351.3" r="85.5"/>
            <path class="st1" d="M396.9 1351.3c0 47.2 38.3 85.5 85.5 85.5s85.5-38.3 85.5-85.5-38.3-85.5-85.5-85.5-85.5 38.3-85.5 85.5z"/>
            <path class="st1" d="M1058.3 1059.3c-.1 0-.2.1-.4.1-10.5 2.2-157.2 7.8-248.9 9.9-93.1 2.2-132.1 69.3-179.7 86.6-1.9.7-4.1 1.3-6.5 2-25.8 6.5-81.7 9.8-140.7 10.4-77.8.8-161.2-3.1-188.4-10.2-49.8-13-73.6-36.8-73.6-36.8s-28.2-82.3 108.3-123.4c25.5-7.7 52.7-19.7 80-34.8 31.8-17.5 63.8-39.1 93.9-62.8 30-23.7 58.1-49.6 81.8-75.6 26.4-28.9 47.5-58 60.3-84.7 7.4-15.4 12-29.9 13.2-43.2 1.4-15.1 2.6-29.4 3.6-42.8 5.5-71.3 6.5-117.1 6.5-117.1s52-34.6 132.1-32.5C849.2 505.7 916 545 970 573.8c31.4 16.8 47.3 53.2 37.4 87.4-8.2 28.3-9.2 69 9.6 126.4 38 115.8 60.9 184.7 41 271.6-5 22-12.8 45.2-23.7 70.5 0 0-33.8 15.7-80.1 24.6-28.7 5.5-62.1 8.5-95.3 3.5l-61.8-78.2"/>
            <path class="st1" d="M858.8 1158.1H622.7"/>
            <path class="st1" d="M954.1 1154.5v111.3"/>
            <path class="st1" d="M482 1171.1v94.7"/>
            <path class="st1" d="M406.2 1025.1l2-62 .8-23.6"/>
            <path class="st1" d="M502.1 998V865.9"/>
            <path class="st1" d="M612.5 928.7l-28.6-104-7.1-25.9"/>
            <path class="st1" d="M706.7 842.1L644.2 740l-14.3-23.5"/>
            <path class="st1" d="M759.8 700.3L661 654l-9.8-4.5"/>
            <path class="st1" d="M954.7 1215.6H482.5"/>
            <path class="st1" d="M1436.3 1249.4c-9.6-13.7-25.5-22.7-43.5-22.7h-24.6c-29.3 0-53 23.7-53 53v105.5c0 29.3 23.7 53 53 53h24.6c29.3 0 53-23.7 53-53v-35.9"/>
            <path class="st1" d="M1571.9 1349.3v35.9c0 29.3 23.7 53 53 53h24.6c29.3 0 53-23.7 53-53v-105.5c0-29.3-23.7-53-53-53h-24.6c-18 0-33.9 9-43.5 22.7"/>
            <path class="st1" d="M1581.4 1249.4c-18-16.8-43.9-27.2-72.6-27.2s-54.6 10.5-72.6 27.2c-16.1 15-26 35-26 57 0 15.7 5 30.4 13.8 43h169.4c8.8-12.6 13.8-27.3 13.8-43 .2-22.1-9.6-42.1-25.8-57z"/>
            <path class="st1" d="M1427.8 605.5c-19.5-55.3-38.7-102.6-45-111.4-14.9-20.6-60.7-21.8-68.8 48.1 0 0 87.8 174.6 66 217-21.8 42.4-26.5 145.5-9.3 212s-1.2 143.2 8 162.7c9.1 19.4 69.2 44.4 129.6 44.7h1c60.4-.3 120.5-25.3 129.6-44.7 9.2-19.5-9.2-96.2 8-162.7 17.2-66.5 3.7-169.6-18-212s66-217 66-217c-8-69.9-53.8-68.7-68.7-48.1-6.4 8.8-24 56.1-41.7 111.4-10.5 32.8-21 68.4-29.2 100.5-10.3 40.4-16.9 75.3-15.1 91.8.3 3.2.7 6.6 1.1 10.1 3 28 6.7 65.6 9.8 101.6 2.7 32.4 4.8 63.4 5.3 84.8 1.1 45.3-42.5 56.1-47.6 57.2-5.1-1.1-48.7-11.9-47.6-57.2.5-21.6 2.6-52.9 5.3-85.6 3-35.7 6.6-72.9 9.6-100.7.4-3.5.8-6.9 1.1-10.1 1.8-16.6-5.7-51.7-17.3-92.4-9-32.1-20.6-67.4-32.1-100z"/>
            <path class="st1" d="M1378 1133.9s-13.8 34.4 3.4 49.3c17.2 14.9 69.9 39 131.8 39s115.7-29.8 120.3-41.2c4.6-11.5 11.5-49.3 11.5-49.3"/>
            <path class="st1" d="M1508.9 1171.7V1056"/>
            <path class="st1" d="M1466.5 989.5h84.8"/>
            <path class="st1" d="M1435.3 908.2l31.3.3 84.6.8 31.2.4"/>
            <path class="st1" d="M1437.8 807.8h133.4"/>
            <path class="st1" d="M1450.2 705.3h9.8l95.4.7h7.2"/>
            <path class="st1" d="M1406.2 605.5h196.6"/>
        </g>
    </g>
</svg>
