<svg xmlns="http://www.w3.org/2000/svg" viewBox="0 0 1920 1920">
    <style>
        .st0{fill:none;stroke:#231f20;stroke-width:50;stroke-linecap:round;stroke-linejoin:round;stroke-miterlimit:10}
    </style>
    <g id="Layer_1">
        <path class="st0" d="M549.6 644c-116.2 20.4-441.4 26.8-289.5 62.5s237.7-23.2 339.5 103.6c50.6 63.1 50 282.3 176.9 298.4 126.9 16.1 372-234 355.6-419.9-15.6-176.7-296.6-198.3-309.1-7.1-9.6 146.9 60.8 391.3 398.5 430.6s322.7-352 396-348.4c73.3 3.6 98.3-42.9 80.4-66.1-17.9-23.2-256.2-102.6-329.9 28.6-196.6 350.4-330.4 154.5-473.5-110.8-123.8-229.3-261.5 14-344.9 28.6z"/>
        <path class="st0" d="M218.3 685.1V1239"/>
        <path class="st0" d="M773 1239v-121.5"/>
        <path class="st0" d="M968.8 1030v207.2"/>
        <path class="st0" d="M1403 1083.6V1239"/>
        <path class="st0" d="M1702.9 717.3V1239"/>
        <path class="st0" d="M506.8 740.5v501.6"/>
        <path class="st0" d="M225.1 749.4l276.1 276.1"/>
        <path class="st0" d="M501.2 738.7l-281.5 284.1"/>
        <path class="st0" d="M506.8 1167.6l155.4-155.5"/>
        <path class="st0" d="M1525.3 937l174.2 174.3"/>
        <path class="st0" d="M1410 1181l282.4-282.4"/>
        <path class="st0" d="M969.6 1182.3l102.7-101.8"/>
        <path class="st0" d="M886.9 1238.1l-111.7-111.6-116.1 116.1"/>
        <path class="st0" d="M217.3 1131.8l108.1 108.1"/>
        <path class="st0" d="M1700.9 1126.5l-116.2 116.1"/>
        <path class="st0" d="M1608.7 579.9c-81.3-21.3-209.8-29.6-275.4 59.8"/>
        <circle class="st0" cx="1389.8" cy="645.4" r="3.5"/>
        <circle class="st0" cx="1569.4" cy="610.9" r="3.5"/>
        <circle class="st0" cx="1470.6" cy="613.1" r="3.5"/>
    </g>
</svg>
