<svg xmlns="http://www.w3.org/2000/svg" viewBox="0 0 1920 1920">
    <style>
        .st0{fill:#fff}.st1{fill:none;stroke:#231f20;stroke-width:50;stroke-linecap:round;stroke-linejoin:round;stroke-miterlimit:10}
    </style>
    <path class="st0" d="M1462 1701.6v1.5h-134.6v-1.5l-131.5-338.3h75.2c35.8 0 67.9 22 80.9 55.4l110 282.9zm-818.2-338.3c-36.8 0-69.7 23.2-81.9 58l-98.6 280.3v1.5h134.6v-1.5l119-338.3h-73.1z" id="Layer_3"/>
    <path class="st0" d="M1351.3 539.6c39.2 6 73.5 26.7 97.1 56.3 21 26.3 33.5 59.6 33.5 95.8v512.9H438.1V691.7c0-36.2 12.5-69.5 33.5-95.8 23.6-29.6 57.9-50.3 97.1-56.3 7.6-1.2 15.4-1.8 23.4-1.8h735.7c8.1 0 15.9.6 23.5 1.8zm-1.5 481.9c0-44.1-35.7-79.8-79.8-79.8-44.1 0-79.8 35.8-79.8 79.8s35.7 79.8 79.8 79.8c44 0 79.8-35.7 79.8-79.8zm-619.9 0c0-44.1-35.7-79.8-79.8-79.8-44.1 0-79.8 35.8-79.8 79.8s35.7 79.8 79.8 79.8c44.1 0 79.8-35.7 79.8-79.8z" id="Layer_4"/>
    <path class="st0" d="M1269.9 941.7c44.1 0 79.8 35.8 79.8 79.8s-35.7 79.8-79.8 79.8c-44.1 0-79.8-35.7-79.8-79.8s35.7-79.8 79.8-79.8zm-699.7 79.8c0 44.1 35.7 79.8 79.8 79.8 44.1 0 79.8-35.7 79.8-79.8s-35.7-79.8-79.8-79.8c-44 0-79.8 35.7-79.8 79.8z" id="Layer_5"/>
    <g id="Layer_6">
        <path class="st0" d="M471.6 460.5v135.4c23.6-29.6 57.9-50.4 97-56.3V400h-36.5c-33.4 0-60.5 27.1-60.5 60.5z"/>
        <path class="st0" d="M1387.9 400h-36.6v139.5c39.1 6 73.4 26.7 97 56.3V460.5c.1-33.4-27-60.5-60.4-60.5z"/>
        <path class="st0" d="M903.7 400h112.7v137.8H903.7z"/>
    </g>
    <g id="Layer_7">
        <path class="st0" d="M736.1 218.5c-92.5 0-167.5 75-167.5 167.5v153.5c7.6-1.2 15.5-1.8 23.4-1.8h311.5V385.9c0-46.2-18.8-88.1-49.1-118.4-30.1-30.3-72-49-118.3-49z"/>
        <path class="st0" d="M1302.3 267.5c-30.3-30.3-72.2-49.1-118.4-49.1-92.5 0-167.5 75-167.5 167.5v151.8h311.5c8 0 15.8.6 23.4 1.8V385.9c.1-46.2-18.7-88.1-49-118.4z"/>
    </g>
    <g id="STROKES">
        <g id="XMLID_1_">
            <path class="st1" d="M1448.4 595.9c21 26.3 33.5 59.6 33.5 95.8v512.9H438.1V691.7c0-36.2 12.5-69.5 33.5-95.8 23.6-29.6 57.9-50.3 97.1-56.3 7.6-1.2 15.4-1.8 23.4-1.8h735.7c8 0 15.8.6 23.4 1.8 39.3 5.9 73.6 26.6 97.2 56.3z"/>
            <path class="st1" d="M729.9 1021.5c0 44.1-35.7 79.8-79.8 79.8-44.1 0-79.8-35.7-79.8-79.8s35.7-79.8 79.8-79.8c44.1 0 79.8 35.7 79.8 79.8z"/>
            <path class="st1" d="M650 1214v147.2"/>
            <path class="st1" d="M1349.8 1021.5c0 44.1-35.7 79.8-79.8 79.8-44.1 0-79.8-35.7-79.8-79.8s35.7-79.8 79.8-79.8c44 0 79.8 35.7 79.8 79.8z"/>
            <path class="st1" d="M1269.9 1214v147.2"/>
            <path class="st1" d="M568.7 539.5V385.9c0-92.5 75-167.5 167.5-167.5 46.2 0 88.1 18.8 118.4 49.1s49.1 72.2 49.1 118.4v151.8"/>
            <path class="st1" d="M621.9 536.2c0-63.1 51.2-114.3 114.3-114.3s114.3 51.2 114.3 114.3"/>
            <path class="st1" d="M1069.6 536.2c0-63.1 51.2-114.3 114.3-114.3s114.3 51.2 114.3 114.3"/>
            <path class="st1" d="M1016.3 537.8V385.9c0-92.5 75-167.5 167.5-167.5 46.2 0 88.1 18.8 118.4 49.1 30.3 30.3 49.1 72.2 49.1 118.4v153.8"/>
            <path class="st1" d="M1352.4 400h35.5c33.4 0 60.5 27.1 60.5 60.5v135.4"/>
            <path class="st1" d="M903.7 400h109.6"/>
            <path class="st1" d="M471.6 595.9V460.5c0-33.4 27.1-60.5 60.5-60.5h36.6"/>
            <path class="st1" d="M882.8 1010.5h159.7"/>
            <path class="st1" d="M1327.4 1701.6l-131.5-338.3h75.2c35.8 0 67.9 22 80.9 55.4l110 282.9"/>
            <path class="st1" d="M463.3 1701.6l98.6-280.3c12.2-34.8 45.1-58 81.9-58h73.1l-119 338.3"/>
            <path class="st1" d="M726.8 1395.6h466.4"/>
            <path class="st1" d="M685 1496.9h550"/>
            <path class="st1" d="M643.8 1598.2h632.4"/>
            <path class="st1" d="M601.5 1699.5h717"/>
        </g>
    </g>
</svg>
