<svg xmlns="http://www.w3.org/2000/svg" viewBox="0 0 1920 1920">
    <style>
        .st0{fill:none;stroke:#231f20;stroke-width:50;stroke-linecap:round;stroke-linejoin:round;stroke-miterlimit:10}
    </style>
    <g id="Layer_1">
        <path class="st0" d="M1191.1 1550v74"/>
        <path class="st0" d="M215.4 282c142 0 294 30 376 230s110 1014 504 1040 380.1-672 608.1-666"/>
        <path class="st0" d="M293.4 288v1340"/>
        <path class="st0" d="M518.1 1628V398"/>
        <path class="st0" d="M742.8 1170v458"/>
        <path class="st0" d="M967.4 1524v104"/>
        <path class="st0" d="M1416.8 1628v-294"/>
        <path class="st0" d="M1641.4 1624V912"/>
        <path class="st0" d="M643.5 400s46.4 105.3 73.1 216.6c27.3 113.6 78 451.5 153.7 573.6 0 0 54.2-.2 82.2-92.2s1-151 1-151l-29.5 7.3c-25.9 6.4-51.9-10.1-57.2-36.3l-1.9-9.4c-4.8-23.6 9.1-47 32.1-54.1l27.5-8.5-26-105-22.1 5.9c-25.2 6.7-51.1-8.5-57.5-33.9l-3.6-14.1c-6.1-24.1 7.7-48.7 31.4-56.2l33.8-10.7-18-88-27.7 8.2c-25.3 7.5-51.9-7.3-58.7-32.9l-.4-1.4c-6.3-23.7 6.7-48.3 29.8-56.4l39-13.6s-22-88-104-90c-95.7-2.3-97 42.1-97 42.1z"/>
        <path class="st0" d="M848.5 446l46-17"/>
        <path class="st0" d="M880.5 632c3-1 61-19 61-19"/>
        <path class="st0" d="M924.5 846l70-22"/>
        <circle class="st0" cx="779.9" cy="1107.5" r="43.5"/>
        <circle class="st0" cx="634.9" cy="497.5" r="43.5"/>
        <circle class="st0" cx="702.3" cy="797.5" r="43.5"/>
        <path class="st0" d="M979 891s14.8 35.3-25.6 55.9"/>
        <path class="st0" d="M937 684.1s14.8 35.3-25.6 55.9"/>
        <path class="st0" d="M901.1 489.1s14.8 35.3-25.6 55.9"/>
        <path class="st0" d="M742.1 1588.5L216.4 782.3"/>
        <path class="st0" d="M520.1 1638l-303.7-465.7"/>
        <path class="st0" d="M217.4 1422.7l428.7-657.4"/>
        <path class="st0" d="M1417 1570.5l287.6-441"/>
        <path class="st0" d="M216.4 867l302.2-463.4"/>
        <path class="st0" d="M523.6 1527l223-342"/>
        <path class="st0" d="M750.1 1572l110.5-169.4"/>
        <path class="st0" d="M1702.5 1564.2l-230.6-353.7"/>
        <path class="st0" d="M703.9 1032L216.4 284.4"/>
    </g>
</svg>
