<svg xmlns="http://www.w3.org/2000/svg" viewBox="0 0 1920 1920">
    <style>
        .st0{fill:#fff}.st1{fill:none;stroke:#231f20;stroke-width:50;stroke-linecap:round;stroke-linejoin:round;stroke-miterlimit:10}
    </style>
    <path class="st0" d="M825.8 1518c-.6-.1-1.3-.3-1.9-.4-1.2-.3-2.5-.5-3.7-.8-1.8-.4-3.6-.7-5.4-1-1.2-.2-2.4-.4-3.5-.6-1.2-.2-2.3-.4-3.4-.5-1.1-.2-2.2-.3-3.4-.4-1.1-.1-2.2-.3-3.3-.4-2.2-.2-4.3-.4-6.4-.6-1-.1-2-.1-2.9-.2-1.5-.1-3-.2-4.4-.2-1 0-1.9-.1-2.8-.1h-2.8c-5.5 0-10.5.3-15.1.8-.5 0-1 .1-1.5.2-1.5.2-3 .4-4.4.6-.9.2-1.9.3-2.8.5-1.8.3-3.5.7-5.2 1.1-.7.2-1.4.3-2.1.5-.2 0-.4.1-.6.2-1.1.3-2.1.6-3.1.8-.3.1-.7.2-1.1.3-.7.2-1.4.4-2 .7-1.3.4-2.5.9-3.7 1.3-1.2.5-2.2.9-3.2 1.4-.5.2-1 .4-1.5.7-.5.2-.9.4-1.3.7l-.6.3c-.8.4-1.6.8-2.2 1.2-.5.3-1 .6-1.4.8-.6.3-1.1.7-1.5 1-.2.1-.4.3-.6.4-.2.1-.3.2-.5.3-.1.1-.2.1-.2.2-.2.1-.4.3-.5.4l-.1.1c-.1.1-.2.1-.2.2v-.1l-.2-.4c-.1-.3-.3-.8-.6-1.4-.2-.4-.4-.9-.6-1.5-.5-1.1-1-2.4-1.7-4-3.6-8.2-10.3-22.6-19.5-39.6-2.2-4-4.5-8.2-6.9-12.4-1.7-3-3.5-6-5.3-9-13.8-23-31.1-47.9-50.9-67.8-6.5-6.5-12.6-13.2-18.2-20-24.5-29.5-40.8-61.6-47.1-93-6.4-32.1-2.2-63.4 14.7-90.7 5.6-9 12.5-17.6 21-25.5s18.3-15.4 29.8-22.1c-.6-1.2-1.1-2.3-1.6-3.5-1-2.2-1.9-4.4-2.7-6.5-.3-.7-.5-1.4-.8-2-8.6 4.3-17.3 9.6-26 15.8-141.1 100.3-324.3 334.3-392.5 347.8 0 0 263.5 199.7 438.2 137.9 67.2-23.7 129.3-65.9 180.4-108.9-2-.5-4-1-5.9-1.5-1.7-.5-3-.8-4.3-1.1zm10.8-1259.2c1.7 1.1 89.9 58.3 36.3 156.7-50.3 92.2-91.5 193.6 4.1 289.5 49.7-40.1 124.1-77.8 206-74.7 22.6.8 45.7 4.7 69.1 12.5 54.9 7.7 106.7 10 151.5 9.5-9.7-55.5-161.2-324.6-467-393.5z" id="Layer_2"/>
    <path class="st0" d="M1567.1 990.6c-34.6-72.4-106.7-142.7-239-200-27.5-40.7-56.1-72.2-85-96.1-30.2-24.9-60.8-41.5-91-51.6-23.3-7.8-46.5-11.7-69.1-12.5-81.9-3-156.2 34.7-206 74.7-26.4 21.3-45.8 43.2-55.8 60.1-47 79.8-118.2 85.3-118.2 85.3 8.5 45.3-19.2 89.7-43.2 136-23.1 44.5-42.9 90.7-24.3 141.2.2.7.5 1.3.8 2 .8 2.2 1.8 4.3 2.7 6.5.5 1.2 1.1 2.3 1.6 3.5 5.5 11.3 13 22.9 23 34.7 6.2 7.4 12.2 13.9 18 19.6 92.7 90.8 141.8-13.1 142.5-14.6 1.8 12.8 5 25.6 9.9 38.5 4.5 11.8 10.3 23.5 17.8 35.2 0 0-11.8 13.5-20.4 35.4v.1c-1.2 4.9-3.3 12.8-6.6 22.7-8.9 46.4 6.3 113.4 125.6 174 101.2 51.4 178.4 64.3 238.2 70.4 63.6 6.5 107.7 5.3 140.4 34.6 0 0 47.8-58.7 94.4-117.7 19.6-24.9 39-49.8 54.5-70.5 21.7-28.9 103.1-137 114.6-262.3 4.4-48.4-1.6-99.3-25.4-149.2zm-98 151.1c-12.4 127.5-123.2 202.6-249.8 226.1 192.1-205.8 110-303.7 110-303.7-.2-.2-29.8-25.6-72.7-51-91.9-54.5-245.1-108.8-301.3 86.8 0 0-82.5-19.4-131.2 79.6 0-.3-.1-.6-.1-.9-4.5-33.8 1.2-67.3 13.1-99.2C885.1 951 1034 848.1 1034 848.1s189.2 86.1 295.3 215.9c.1-1.9 8-211-163.2-311.5 116.5 60.2 321.9 194.8 303 389.2z" id="Layer_4"/>
    <path class="st0" d="M639 1136.3zm-64.6 137.6zm-.7-4.8c0-.1 0-.2-.1-.3.1.1.1.2.1.3zm1062.2-224.9c14.1-56.9 12.8-131.8-49.3-203.1C1462.6 698.7 1458 639 1458 639s-62.5 12.5-154.4 13.4c-44.8.5-96.6-1.8-151.5-9.5 30.2 10.1 60.8 26.7 91 51.6 29 23.9 57.5 55.4 85 96.1 132.3 57.4 204.4 127.7 239 200 23.8 49.9 29.8 100.8 25.4 149.2-11.5 125.3-93 233.4-114.6 262.3-15.5 20.7-34.9 45.6-54.5 70.5 45.1-2 104-12.8 143.6-51.3 71.9-70 93.3-170.1 136.1-190.1 0 0-43.5-94.1-67.2-187zm-469.8-291.7c171.2 100.4 163.3 309.6 163.2 311.5C1223.2 934.3 1034 848.1 1034 848.1S885.1 951 837.2 1079.2c-11.9 31.9-17.6 65.4-13.1 99.3 0 .3.1.6.1.9 48.6-99.1 131.2-79.6 131.2-79.6 82.5-286.7 373.3-36.3 374-35.7s82.1 98-110 303.7c126.5-23.4 237.4-98.6 249.7-226.1 18.9-194.4-186.5-329-303-389.2zm-341.3 558.8c3.3-9.9 5.4-17.9 6.6-22.7-1.7 4.3-3.2 8.9-4.6 13.8 1.3-4.9 2.9-9.5 4.6-13.8v-.1c8.6-21.9 20.4-35.4 20.4-35.4-7.4-11.7-13.3-23.5-17.8-35.2-4.9-12.8-8.1-25.7-9.9-38.5-.7 1.6-49.9 105.4-142.5 14.6-5.8-5.7-11.9-12.2-18-19.6-10-11.8-17.5-23.4-23-34.7-.6-1.2-1.1-2.3-1.6-3.5.5 1.2 1.1 2.3 1.6 3.5-1.1.6-2.2 1.3-3.2 2-3.2 2-6.3 4-9.3 6.1-3.7 2.6-7.3 5.4-10.6 8.2-.2.2-.4.3-.6.5.1-.1.3-.2.4-.3-.3.3-.6.5-.9.8.1-.1.2-.2.3-.2l-.3.3c-.4.4-.9.7-1.3 1.1-1.4 1.2-2.8 2.5-4.1 3.7-.1.1-.2.2-.4.3.2-.1.3-.3.5-.4-.7.7-1.4 1.4-2.1 2-5.5 5.4-10.3 11.1-14.5 16.9-.3.4-.5.7-.8 1.1-1.3 1.8-2.5 3.7-3.7 5.6-1.3 2.1-2.6 4.3-3.7 6.5-4.2 7.9-7.4 16.1-9.7 24.5-4.2 15.5-5.1 31.8-3.1 48.3l.3 2.4c.2 1.3.4 2.7.6 4v.2c0 .2.1.4.1.6.2 1.4.5 2.8.8 4.2 0 .2.1.4.1.6 0-.2-.1-.4-.1-.6 0 .2.1.4.1.6.2.9.4 1.7.6 2.6.1.5.2.9.3 1.4.1.6.3 1.3.4 1.9.1.5.3 1 .4 1.5.2.6.3 1.2.5 1.8.1.5.3 1 .4 1.6.2.6.3 1.2.5 1.9.2.6.3 1.1.5 1.7.3.9.6 1.9.9 2.8.2.6.4 1.1.5 1.7.2.5.4 1.1.5 1.6.2.6.4 1.2.6 1.7.2.5.4 1 .5 1.5l.6 1.8.6 1.5c.2.6.5 1.2.7 1.8.2.4.3.9.5 1.3l1.5 3.6c.2.5.4.9.6 1.4.3.6.6 1.3.8 1.9.2.5.4.9.6 1.4.3.6.6 1.3.9 1.9.2.4.4.9.6 1.3.3.6.6 1.3.9 1.9.2.4.4.7.6 1.1.7 1.3 1.3 2.6 2 3.9.2.4.4.7.6 1.1.3.7.7 1.3 1.1 2 .2.4.5.9.7 1.3.4.6.7 1.3 1.1 1.9.2.4.5.9.7 1.3.4.6.7 1.3 1.1 1.9.2.4.5.8.7 1.2.9 1.5 1.8 2.9 2.7 4.4.1.1.2.3.3.4.4.7.8 1.3 1.2 1.9.3.4.5.8.8 1.3.4.6.8 1.3 1.2 1.9.3.4.6.9.9 1.3l1.2 1.8c.3.4.6.9.9 1.3.4.6.8 1.2 1.3 1.8.2.3.5.7.7 1 .8 1.2 1.7 2.4 2.6 3.6.3.5.7.9 1 1.4.4.6.9 1.2 1.3 1.7s.7.9 1.1 1.4c.4.6.9 1.1 1.3 1.7.4.5.8 1 1.1 1.4.4.6.9 1.1 1.3 1.7.4.5.9 1.1 1.3 1.6 1.7 2 3.3 4 5.1 6 .3.3.5.6.8.9 2.7 3 5.4 6.1 8.2 9l1 1c1.4 1.5 2.8 2.9 4.2 4.4l.6.6c6.3 6.4 12.4 13.3 18.2 20.5-.3-.4-.7-.8-1-1.2.3.4.7.8 1 1.2.9 1.1 1.8 2.2 2.7 3.4.5.6.9 1.2 1.4 1.8 1.1 1.5 2.3 3 3.4 4.5.1.2.3.4.5.6-.1-.2-.3-.4-.4-.6 4.3 5.8 8.5 11.7 12.4 17.6 4.4 6.5 8.5 13.1 12.3 19.5.8 1.4 1.7 2.8 2.5 4.2 1 1.6 1.9 3.2 2.8 4.8.7 1.3 1.4 2.5 2.1 3.7 1.7 3 3.3 5.9 4.8 8.7 9.2 17 15.9 31.4 19.5 39.6.7 1.5 1.3 2.9 1.7 4 .5 1.1.8 1.9 1.1 2.5.2.6.4.9.4.9s-.1-.3-.3-.8c0 .1.1.2.1.3l.2.4v.1l.2-.2.1-.1c.1-.1.3-.2.5-.4l.2-.2c.1-.1.3-.2.5-.3.2-.1.4-.3.6-.4.4-.3.9-.6 1.5-1 .4-.3.9-.5 1.4-.8.7-.4 1.4-.8 2.2-1.2l.6-.3c.4-.2.9-.4 1.3-.7.5-.2 1-.4 1.5-.7 1-.5 2.1-.9 3.2-1.4 1.2-.4 2.4-.9 3.7-1.3.7-.2 1.3-.4 2-.7.4-.1.7-.2 1.1-.3 1-.3 2-.6 3.1-.8.2-.1.4-.1.6-.2.7-.2 1.4-.3 2.1-.5 1.6-.4 3.4-.7 5.2-1.1.9-.2 1.8-.3 2.8-.5 1.4-.2 2.9-.4 4.4-.6.5-.1 1-.1 1.5-.2 4.6-.5 9.7-.8 15.1-.8h2.8c.9 0 1.9 0 2.8.1 1.5 0 2.9.1 4.4.2 1 .1 2 .1 2.9.2 2.1.2 4.2.4 6.4.6 1.1.1 2.2.2 3.3.4 1.1.1 2.2.3 3.4.4 1.1.2 2.3.3 3.4.5 1.2.2 2.3.4 3.5.6 1.8.3 3.6.7 5.4 1 1.2.2 2.5.5 3.7.8.6.1 1.3.3 1.9.4 1.3.3 2.5.6 3.8.9 1.9.5 3.9 1 5.9 1.5 28.8 7.6 64 21.7 106.3 46.1 156 89.8 245.4-9.3 246.6-10.8-59.8-6.1-137-19-238.2-70.4-119-60.2-134.3-127.2-125.3-173.6zm-128.1 156.6c-.8-1.5-1.7-2.9-2.6-4.4.9 1.5 1.8 2.9 2.6 4.4.5.9 1 1.7 1.4 2.6-.4-.9-.9-1.7-1.4-2.6zm-61.2-340.2c.2.7.5 1.3.8 2-.3-.6-.6-1.3-.8-2z" id="Layer_5"/>
    <g id="STROKES">
        <path class="st1" d="M1060.4 1183.8c-12.5-154.8 113.8-208.6 113.8-208.6 121.9 98.3 36.7 230.7 36.7 230.7-165.1 52.4-255.6-106.2-255.6-106.2 82.6-287 374-35.7 374-35.7"/>
        <path class="st1" d="M640.6 1139.7v.1"/>
        <path class="st1" d="M831.4 1288.6c-1.2 4.9-3.3 12.8-6.6 22.7 1.5-8.3 3.9-15.9 6.6-22.7z"/>
        <path class="st1" d="M1328.1 790.6c-49.6-21.5-107.7-41.2-175.5-58.6-20.3-5.2-41.5-10.2-63.5-14.9 0 0-20.5 15-50.2 41.5-62.6 55.8-165.8 162.5-203.4 287.2-12.9 42.6-18 87.3-11.3 132.7 0 .3.1.6.1.9-.7 1.6-49.9 105.4-142.5 14.6-5.8-5.7-11.9-12.2-18.1-19.6-9.9-11.8-17.5-23.4-23-34.7-2-4-3.7-8-5.1-12-18.6-50.5 1.2-96.7 24.3-141.2 24.1-46.3 51.7-90.8 43.2-136 0 0 71.1-5.5 118.2-85.4 10-16.9 29.4-38.8 55.8-60.1 49.7-40.1 124.1-77.8 206-74.7 22.6.8 45.7 4.7 69.1 12.5 30.2 10.1 60.8 26.7 91 51.6 28.8 24 57.4 55.5 84.9 96.2z"/>
        <path class="st1" d="M1219.4 1367.8c-141.4 26.2-302.5-12.3-367.5-114.7-7.4-11.7-13.3-23.5-17.8-35.2-4.9-12.8-8.1-25.7-9.9-38.5 0-.3-.1-.6-.1-.9-4.5-33.8 1.2-67.3 13.1-99.3C885.1 951 1034 848.1 1034 848.1s189.2 86.1 295.3 215.9 82.2 98-109.9 303.8z"/>
        <path class="st1" d="M1329.4 1064C1223.2 934.3 1034 848.1 1034 848.1S885.1 951 837.2 1079.2c-11.9 31.9-17.6 65.4-13.1 99.3-6.7-45.4-1.5-90.1 11.3-132.7 37.6-124.7 140.9-231.4 203.4-287.2 29.7-26.5 50.2-41.5 50.2-41.5.8.3 18.9 7.2 46.8 20.5 9.1 4.3 19.3 9.3 30.3 15 171.3 100.4 163.3 309.6 163.3 311.4z"/>
        <path class="st1" d="M1188.5 1555.7c-1.3 1.5-90.6 100.6-246.6 10.8-42.4-24.4-77.6-38.5-106.4-46.1-78-20.5-109.2 6.8-109.2 6.8s-11-26.8-29.6-59.4c-14.6-25.4-33.8-54.3-56.2-76.8-82.2-82.4-99.2-193.1.1-251.4 5.5 11.3 13.1 22.9 23 34.7 6.2 7.3 12.2 13.9 18.1 19.6 92.7 90.8 141.8-13.1 142.5-14.6 1.8 12.8 5 25.6 9.9 38.5 4.5 11.8 10.3 23.5 17.8 35.2 0 0-11.8 13.5-20.4 35.4v.1c-2.7 6.8-5 14.4-6.6 22.7-8.9 46.4 6.3 113.4 125.6 174 101.1 51.5 178.2 64.4 238 70.5z"/>
        <path class="st1" d="M835.6 1520.4c-51.1 43-113.3 85.2-180.4 108.9C480.6 1691 217 1491.4 217 1491.4c68.2-13.5 251.4-247.6 392.5-347.8 8.7-6.2 17.4-11.5 26-15.8 1.5 4 3.2 8 5.1 12-99.3 58.3-82.3 168.9-.1 251.4 22.4 22.5 41.7 51.4 56.2 76.8 18.7 32.6 29.6 59.4 29.6 59.4s31.2-27.5 109.3-7z"/>
        <path class="st1" d="M1592.5 1139.8c-.1 0-.1 0 0 0-11.5 125.3-93 233.4-114.6 262.3-15.5 20.7-34.9 45.6-54.5 70.5-46.5 59.1-94.4 117.7-94.4 117.7-32.7-29.4-76.8-28.1-140.4-34.6-59.8-6.1-137-19-238.2-70.4-119.3-60.6-134.5-127.6-125.6-174 3.3-9.9 5.4-17.9 6.6-22.7v-.1c8.6-21.9 20.4-35.4 20.4-35.4 65 102.4 226.1 140.9 367.5 114.7 126.5-23.4 237.4-98.6 249.7-226.1 18.9-194.4-186.5-329.1-303-389.2-11-5.7-21.2-10.7-30.3-15-27.9-13.2-45.9-20.2-46.8-20.5 22.1 4.7 43.2 9.7 63.5 14.9 67.8 17.3 125.9 37 175.5 58.6 132.3 57.4 204.4 127.7 239 200 24 50 30 100.9 25.6 149.3z"/>
        <path class="st1" d="M1303.5 652.4c-44.8.5-96.6-1.8-151.5-9.5-23.3-7.8-46.5-11.7-69.1-12.5-81.9-3-156.2 34.6-206 74.7-95.7-95.9-54.4-197.3-4.1-289.5 53.7-98.4-34.6-155.6-36.3-156.7 305.9 68.8 457.4 337.9 467 393.5z"/>
        <path class="st1" d="M1635.9 1044.2c-13.9 56-42.8 94.7-43.5 95.6 4.4-48.3-1.5-99.2-25.4-149.2-34.6-72.4-106.7-142.7-239-200-27.5-40.7-56.1-72.2-85.1-96.1-30.2-24.9-60.8-41.5-91-51.6 54.9 7.7 106.7 10 151.5 9.5 91.9-1 154.4-13.4 154.4-13.4s4.6 59.7 128.6 202.1c62.4 71.3 63.7 146.2 49.5 203.1z"/>
        <path class="st1" d="M1703.1 1231.2c-42.8 20-64.2 120-136.1 190.1-39.6 38.5-98.5 49.3-143.6 51.3 19.6-24.9 39-49.8 54.5-70.5 21.7-28.9 103.1-137 114.6-262.3.7-.9 29.6-39.6 43.5-95.6 23.6 92.9 67.1 187 67.1 187z"/>
        <path class="st1" d="M955.4 1099.8s-82.5-19.4-131.2 79.6"/>
    </g>
</svg>
