<svg xmlns="http://www.w3.org/2000/svg" viewBox="0 0 1920 1920">
    <style>
        .st0{fill:#fff}.st1{fill:none;stroke:#231f20;stroke-width:50;stroke-linecap:round;stroke-linejoin:round;stroke-miterlimit:10}
    </style>
    <path class="st0" d="M868.2 278.5l97.9 70.8 40.3-71.3s41.5-12.8 75.4-22.9c-72.4-63-171.3-33.7-220-13.1 7.6 15.7 6.4 36.5 6.4 36.5zM717.8 453.7s21.2-124.5 61.8-188.4C530.5 220.8 461.9 358 461.9 358c43.8 15 201 140.5 201 140.5l54.9-44.8zm746.4-32.5c-23.9-149.1-169.9-121.8-222.3-107 .4.8.8 1.5 1.2 2.3-.4-.8-.8-1.5-1.2-2.3-14.3-27.2-29.4-45.2-29.4-45.2s-72.2-30.1-90.2-25.6c0 7.1-.5 14.1-1.3 20.9-.1.7-.2 1.4-.2 2.1-.1 1-.3 2-.4 2.9-.1.7-.2 1.3-.3 2-.1.5-.1 1-.2 1.5-.1.8-.2 1.5-.4 2.3-.1.5-.2 1.1-.3 1.6-.1.7-.3 1.5-.4 2.2-.2 1.1-.5 2.3-.7 3.4-.2.9-.4 1.8-.6 2.6-.2 1-.5 2-.7 3l-.6 2.4c-.2.7-.4 1.3-.6 2-.1.5-.3 1-.4 1.5-1.4 4.9-3 9.6-4.8 14.2l-2.1 5.4c-.4 1-.8 2-1.3 3-.1.2-.2.5-.3.7-.5 1.1-1 2.2-1.5 3.4l-.6 1.2c-.2.6-.5 1.1-.8 1.7-.2.5-.5 1-.7 1.5l-.8 1.7c-1.7 3.4-3.4 6.7-5.3 9.9-.4.8-.9 1.5-1.3 2.3-1 1.8-2 3.5-3.1 5.2-.4.7-.8 1.3-1.2 2-.6 1-1.3 2-1.9 3-.5.8-1 1.5-1.5 2.2-.5.8-1 1.6-1.6 2.3-1.1 1.5-2.1 3-3.2 4.5s-2.1 2.9-3.2 4.4c-.6.7-1.1 1.4-1.6 2.1l-3.3 4.2c-.8 1-1.6 2-2.5 3-.7.9-1.5 1.8-2.2 2.6-1.8 2.1-3.6 4.1-5.3 6.1-.5.6-1 1.1-1.5 1.6-1.1 1.2-2.2 2.3-3.2 3.5-.5.6-1.1 1.1-1.6 1.7-1.4 1.5-2.9 2.9-4.3 4.3-.6.6-1.3 1.2-1.9 1.8-.1.1-.1.2-.2.2-.7.7-1.4 1.3-2.1 2-.8.7-1.5 1.4-2.2 2.1-.8.7-1.5 1.4-2.2 2-1.1 1-2.1 1.9-3.2 2.8l-.2.2c-.6.5-1.2 1.1-1.8 1.6-1 .9-2 1.7-3 2.5-.6.5-1.3 1.1-1.9 1.6-3.1 2.5-5.9 4.7-8.2 6.5-.5.3-.9.7-1.3 1-.2.2-.5.4-.7.5-.2.2-.5.4-.7.5-.7.5-1.3 1-1.9 1.4-.2.1-.4.3-.5.4-.3.2-.7.5-1 .7-.2.1-.3.2-.4.3h-.1c-.2.1-.3.2-.5.3-.8.6-1.3.9-1.5 1 0 0-.1 0-.1.1 14.5.9 27.1 2 36.8 3.2 48.1 5.8 113.5 62.1 150 97.2-18.1 23.2-38 46.3-56.4 66.7-1.4 1.6-2.8 3.1-4.2 4.7-2.8 3.1-5.5 6.1-8.2 9h-.6c-.2 0-.4 0-.6-.1-.2 0-.5 0-.8-.1-.3 0-.6-.1-1-.1-.2 0-.4 0-.6-.1-.6-.1-1.2-.1-1.9-.2-1.2-.1-2.6-.3-4.1-.5-.6-.1-1.3-.2-1.9-.2-.7-.1-1.4-.2-2.1-.2-.7-.1-1.5-.2-2.2-.3l-2.4-.3c-.4-.1-.8-.1-1.2-.2-.8-.1-1.7-.2-2.6-.3-.4-.1-.9-.1-1.4-.2-1.8-.2-3.7-.5-5.7-.8-1-.1-2-.3-3.1-.4-1-.2-2.1-.3-3.2-.5-.5-.1-1.1-.2-1.6-.2-2.2-.3-4.5-.7-6.8-1-2.3-.4-4.7-.7-7.2-1.1-1.2-.2-2.5-.4-3.7-.6-1.3-.2-2.5-.4-3.8-.6-1.3-.2-2.6-.5-3.9-.7-1.3-.2-2.6-.5-4-.7-1.3-.2-2.7-.5-4.1-.7-1.4-.2-2.7-.5-4.1-.8-13.8-2.6-28.6-5.7-43.6-9.4-1.5-.4-3-.7-4.5-1.1-5.2-1.3-10.5-2.7-15.7-4.2-1.5-.4-3-.8-4.5-1.3-3-.9-5.9-1.8-8.9-2.7l-6.6-2.1c-2.9-.9-5.8-1.9-8.7-2.9-2.1-.8-4.3-1.5-6.4-2.3-1.4-.5-2.8-1-4.2-1.6-1.4-.5-2.8-1.1-4.1-1.6-1.4-.5-2.7-1.1-4.1-1.7-3.4-1.4-6.7-2.8-9.9-4.3-1.3-.6-2.6-1.2-3.8-1.8-1.9-.9-3.8-1.8-5.6-2.8-4.3-2.2-8.3-4.5-12.2-6.8-4.3-2.7-8.8-4.8-13.5-6.4-1.3-.4-2.6-.9-3.9-1.2-1.3-.4-2.6-.7-4-1-1.3-.3-2.7-.6-4-.8-.4-.1-.9-.2-1.4-.2-.9-.1-1.8-.3-2.7-.4-12.8-1.6-26.5-.6-40.9 2.2-2.1.4-4.2.8-6.3 1.3-1.4.3-2.8.6-4.2 1-2.1.5-4.2 1.1-6.4 1.6l-2.1.6c-1.4.4-2.9.8-4.3 1.2-.7.2-1.4.4-2.2.6-1.4.4-2.9.9-4.3 1.3-2.9.9-5.8 1.9-8.7 2.8-11.2 3.8-22.5 8-33.7 12.4-12.9 5-25.7 10.2-38.3 14.9-1.6.6-3.1 1.2-4.7 1.8-5.7 2.1-11.4 4.1-17 6l-4.8 1.5c-3.9 1.2-7.8 2.4-11.7 3.5-1.5.4-3.1.8-4.6 1.2-.8.2-1.5.4-2.3.6-2.3.5-4.5 1.1-6.7 1.5-.7.2-1.5.3-2.2.4-9.7 1.9-18.9 2.8-27.4 2.3h-.1c-.9 0-1.8-.1-2.7-.2-.9-.1-1.9-.2-2.8-.3-.5-.1-.9-.1-1.4-.2-1.4-.2-2.7-.4-4.1-.6-2.7-.4-5.4-.8-8-1.2-10.5-1.6-20.4-3.3-29.7-5-2.3-.4-4.6-.8-6.8-1.3-3.4-.6-6.6-1.3-9.8-1.9-39-7.7-62.8-14.6-63.5-14.8.8 1.1 51.5 68.5 96.2 81.9 0 0 30.8 175.6 176.3 186-8.5-14.2-13.7-31.6-13.7-52.7 0-67.4 92.1-98.8 168.3-113.2 54-10.2 100.1-12 100.1-12s10.7.4 27.9-.6c5.2-.3 11.1-.7 17.4-1.4 29.7-2.9 70.1-9.8 108.6-25.9 4.7-2 9.3-4 13.9-6.3 33-16 63.5-39.6 83.2-74.1l32.1-50.7c-.5 2.1-30.8 140.1-115.4 254 .1.1 270.2-149.1 241-331.3zm-214.1-90l3.3 7.8c-1.1-2.7-2.2-5.3-3.3-7.8z" id="Layer_6"/>
    <path class="st0" d="M1247.4 989.2c-128.2 27.5-194.5 111-228.8 191.8V918.8c15.9 13.5 34.6 26.1 54.4 32 54.4 16.5 154.6-14.4 154.6-14.4-32.6-1.2-98.7-33.2-150.1-60.8-18.4 8.3-38.1 14.8-58.9 19.3-6.9 1.5-14 2.7-21.2 3.7-15.9 2.2-32.5 3.2-49.7 2.9-2.2 0-4.4-.1-6.6-.2 0 0-11.1-.2-27.3-2.8-19.7-3.1-47-9.7-71.2-23.5-35.9 12.4-78.2 30.6-108.9 55.1-60.5 48.3-55.4 48.1-60.5 48.3 10.3-.2 123.4-.7 173.3-16 22.6-7 46.4-18.8 67.4-33.1v389.1c-89.4-147.8-289-240.5-365.2-237.7-82.8 3-164.5-35.7-160.7-28.5 141 271.7 259.9 380.8 314.1 408.6 29 14.9 170.2 74.3 211.6 46.5V1703h104.9v-334.1c-6-1.3-12-2.7-18.1-4.2-6.1-1.5-12.3-3.1-18.5-4.9 6.2 1.8 12.4 3.4 18.5 4.9 6.1 1.5 12.1 2.9 18.1 4.2 457.1 97.8 512.9-494.9 513.7-503.8-.7 3-18.5 67-284.9 124.1zm-265.3 360.1c0-1.7.1-3.7.2-5.8-.1 2.2-.1 4.1-.2 5.8zm.8-15.9c0-.3.1-.7.1-1v-.2c0 .4-.1.8-.1 1.2zm.7-9c-.1.5-.1 1-.1 1.6v-.4c0-.3.1-.6.1-.9v-.5c0-.2 0-.5.1-.7 0 .3-.1.6-.1.9zm.5-5.2c.1-.7.1-1.4.2-2.1v-.2c0 .8-.1 1.6-.2 2.3zm.3-2.3c.1-.8.2-1.7.3-2.5.1-.8.2-1.5.3-2.3.1-.8.2-1.6.3-2.3-.4 2.4-.7 4.8-.9 7.1zm3-23.7c0-.1 0-.3.1-.4 0-.1 0-.2.1-.3-.1.2-.2.5-.2.7zm3.6-20.7c.1-.4.1-.8.2-1.2.1-.3.1-.6.2-.9-.1.7-.3 1.4-.4 2.1zm2.4-11.4c.1-.3.1-.7.2-1 .1-.2.1-.5.2-.7-.2.6-.3 1.2-.4 1.7zm10.2-38.9l-.4 1.1c-.1.3-.2.7-.3 1 .1-.2.1-.4.2-.7 0-.1.1-.2.1-.3.3-.8.5-1.7.8-2.5-.1.5-.3 1-.4 1.4zm2.9-8.9c.2-.6.4-1.1.5-1.6.1-.2.1-.4.2-.6-.3.7-.5 1.5-.7 2.2z" id="Layer_9"/>
    <path class="st0" d="M1306.5 549.4c-19.8 34.5-50.3 58-83.2 74.1-4.6 2.3-9.3 4.4-13.9 6.3-38.6 16.2-78.9 23-108.6 25.9-6.3.6-12.1 1.1-17.4 1.4-17.2 1-27.9.6-27.9.6s-46.1 1.7-100.1 12C879.1 684.1 787 715.5 787 782.9c0 21.1 5.2 38.5 13.7 52.7 10.3 17.3 25.4 30 41.9 39.5 24.2 13.8 51.5 20.3 71.2 23.5 16.2 2.6 27.3 2.8 27.3 2.8 2.2.1 4.4.2 6.6.2 17.3.3 33.8-.7 49.7-2.9 7.2-1 14.3-2.3 21.2-3.7 20.8-4.5 40.4-11 58.9-19.3 60.6-27.1 108.4-72.7 145.8-122.9 84.6-113.9 114.9-251.8 115.4-254l-32.2 50.6zm-474.2-9.1c1.8-.5 3.7-1 5.5-1.4.1 0 .2 0 .3-.1 1.6-.4 3.1-.8 4.6-1.1h.3c1.8-.4 3.5-.8 5.2-1.1h.3c16.5-3.2 32.1-4.2 46.5-1.4.2 0 .5.1.7.1 2.2.5 4.4 1 6.6 1.6l3 .9c.4.1.7.3 1.1.4h.1c.1 0 .2.1.3.1.5.2 1.1.4 1.6.6.1 0 .1 0 .2.1.1 0 .1 0 .1.1.3.1.7.3 1 .4.1 0 .1.1.2.1.6.3 1.2.5 1.8.8.1 0 .2.1.3.1.3.1.6.3.9.4l1.2.6c.2.1.4.2.7.3l.6.3c.2.1.4.2.7.3.3.2.6.3 1 .5.1 0 .1 0 .1.1.7.4 1.4.8 2 1.2.9.5 1.8 1.1 2.8 1.7.1 0 .1.1.2.1.1.1.2.1.3.2.1.1.2.1.4.2.4.2.8.5 1.2.7.1 0 .1.1.2.1.5.3 1 .5 1.4.8.4.2.7.4 1.1.6.1.1.2.1.4.2.6.3 1.2.7 1.8 1h.1c.4.2.9.5 1.3.7.5.3 1 .5 1.5.8.2.1.3.2.5.3h.1c.1.1.3.2.4.2.1.1.2.1.4.2.1 0 .1.1.2.1.6.3 1.1.6 1.7.8.4.2.7.4 1.1.5 2.8 1.4 5.8 2.7 8.8 4 .4.2.8.3 1.2.5.4.2.7.3 1.1.5l2.1.9s.1 0 .1.1c6.6 2.8 13.4 5.4 20.4 7.8.4.1.8.3 1.1.4 2.2.8 4.5 1.5 6.8 2.3 6.7 2.2 13.4 4.2 20.2 6.1.2.1.4.1.7.2h.1c2 .6 4.1 1.1 6.1 1.7.2.1.4.1.6.2.4.1.9.2 1.3.3.4.1.7.2 1.1.3 1.5.4 3 .8 4.4 1.1.1 0 .2.1.4.1.1 0 .2.1.4.1 3.2.8 6.5 1.6 9.7 2.4 1.3.3 2.5.6 3.8.9.2.1.5.1.7.2 1.2.3 2.4.5 3.6.8.3.1.7.2 1 .2 1.1.2 2.1.5 3.2.7.5.1.9.2 1.4.3.3.1.5.1.8.2.7.2 1.4.3 2.1.5.6.1 1.2.2 1.7.4.2 0 .5.1.7.1.2 0 .4.1.6.1.4.1.9.2 1.3.3.7.1 1.4.3 2 .4.2 0 .3.1.5.1.4.1.8.2 1.1.2.2 0 .4.1.7.1.7.2 1.5.3 2.2.5h.3c.6.1 1.1.2 1.7.4h.2c.7.1 1.4.3 2.2.4h.1c.3.1.7.1 1 .2 19.7 3.8 37.7 6.6 51.7 8.6 1.5.2 2.9.4 4.2.6.2 0 .3 0 .5.1.3 0 .7.1 1 .1h-.2c1.9.2 3.7.5 5.4.7l2.1.3c.9.1 1.7.2 2.5.3.7.1 1.4.2 2.1.2.7.1 1.3.2 2 .2 1.4.2 2.7.3 3.8.4h.4c.6.1 1.1.1 1.6.2 2.3.3 3.7.4 3.8.4 10.8-11.7 22.4-24.6 34.2-38.2 11.7-13.6 23.6-27.8 34.7-42.1-36.6-35.1-101.9-91.4-150-97.2-9.8-1.2-22.4-2.2-36.8-3.2l.1-.1c.2-.1.7-.5 1.5-1 .2-.1.3-.2.5-.3h.1c.1-.1.3-.2.4-.3.3-.2.6-.5 1-.7.2-.1.4-.3.5-.4.6-.4 1.2-.9 1.9-1.4.2-.2.5-.3.7-.5.2-.2.5-.3.7-.5.4-.3.9-.7 1.3-1 2.4-1.8 5.2-4 8.2-6.5.6-.5 1.2-1 1.9-1.6 1-.8 1.9-1.6 3-2.5.6-.5 1.2-1 1.8-1.6.1-.1.2-.1.2-.2.3-.3.6-.5.9-.8.3-.3.6-.6 1-.9.4-.4.9-.8 1.3-1.2.7-.7 1.4-1.3 2.2-2 .7-.7 1.5-1.4 2.2-2.1.7-.7 1.4-1.3 2.1-2 .1 0 .1-.1.2-.2.6-.6 1.2-1.2 1.9-1.8l4.3-4.3c.6-.5 1.1-1.1 1.6-1.7 1.1-1.1 2.1-2.3 3.2-3.5.5-.5 1-1.1 1.5-1.6 1.8-2 3.5-4 5.3-6.1.7-.9 1.5-1.7 2.2-2.6.8-1 1.7-2 2.5-3l3.3-4.2c.5-.7 1.1-1.4 1.6-2.1 1.1-1.5 2.1-2.9 3.2-4.4 1.1-1.5 2.1-3 3.2-4.5.5-.8 1.1-1.5 1.6-2.3.5-.7 1-1.5 1.5-2.2.6-1 1.3-2 1.9-3 .4-.7.8-1.3 1.2-2 1.1-1.7 2.1-3.4 3.1-5.2.5-.8.9-1.5 1.3-2.3 1.8-3.2 3.6-6.5 5.3-9.9l.8-1.7c.2-.5.5-1 .7-1.5.3-.6.5-1.1.8-1.7l.6-1.2c.5-1.1 1-2.2 1.5-3.4.1-.2.2-.5.3-.7.4-1 .8-2 1.3-3 .8-1.8 1.4-3.6 2.1-5.4 1.7-4.6 3.3-9.4 4.8-14.2.1-.5.3-1 .4-1.5.2-.7.4-1.3.6-2l.6-2.4c.2-1 .5-2 .7-3 .2-.9.4-1.8.6-2.6.2-1.1.5-2.3.7-3.4.1-.7.3-1.5.4-2.2.1-.5.2-1 .3-1.6.1-.8.3-1.5.4-2.3.1-.5.2-1 .2-1.5.1-.7.2-1.3.3-2 .1-1 .3-1.9.4-2.9.1-.7.2-1.4.2-2.1.8-6.8 1.2-13.7 1.3-20.9-6.3 1.6-22.3 6.2-40.4 11.7-33.9 10.1-75.4 22.9-75.4 22.9L966.1 349l-97.9-70.8s1.1-20.8-6.4-36.4c-6.9-14.4-21.2-24.4-50.6-9.4-11.6 5.9-22.2 17.6-31.7 32.6-40.5 63.9-61.7 188.3-61.8 188.4l-54.9 44.9s-39.3-31.4-84.1-64.7c-44.8-33.3-95-68.4-116.9-75.9l129.7 224.4c3.2.6 6.4 1.2 9.8 1.9 2.2.4 4.5.8 6.8 1.3 9.3 1.7 19.2 3.4 29.7 5 2.6.4 5.3.8 8 1.2 1.3.2 2.7.4 4.1.6.5.1.9.1 1.4.2.9.1 1.8.2 2.8.3.9.1 1.8.1 2.7.2h.1c8.6.4 17.8-.5 27.4-2.3.7-.1 1.5-.3 2.2-.4 2.2-.4 4.4-1 6.7-1.5.8-.2 1.5-.4 2.3-.6 1.5-.4 3-.8 4.6-1.2 3.8-1.1 7.7-2.2 11.7-3.5l4.8-1.5c5.6-1.8 11.2-3.9 17-6 1.7-.6 3.5-1.3 5.2-2 .1 0 .1 0 .1-.1 2.3-.9 4.6-1.7 6.9-2.6.7-.3 1.4-.5 2-.8 1.5-.6 2.9-1.1 4.4-1.7.1-.1.3-.1.5-.2 5.9-2.3 11.9-4.7 17.9-7 .7-.3 1.5-.6 2.2-.9 1.1-.5 2.3-.9 3.4-1.3h.1c11.4-4.4 22.7-8.7 34-12.5 7.4-2.2 14.8-4.5 22-6.4z" id="Layer_10"/>
    <g id="STROKES">
        <path class="st1" d="M1122.3 243.4c0 7.2-.5 14.1-1.3 20.9l-.3 2.1c-.1 1-.3 2-.4 2.9-.1.7-.2 1.3-.3 2-.1.5-.2 1-.2 1.5-.1.8-.3 1.5-.4 2.3-.1.5-.2 1.1-.3 1.6-.1.7-.3 1.5-.4 2.2-.2 1.1-.5 2.3-.7 3.4-.2.9-.4 1.8-.6 2.6-.2 1-.5 2-.7 3l-.6 2.4c-.2.7-.4 1.3-.6 2-.1.5-.3 1-.4 1.5-1.4 4.9-3 9.6-4.8 14.2-.7 1.8-1.4 3.6-2.2 5.4-.4 1-.8 2-1.3 3-.1.2-.2.5-.3.7-.5 1.1-1 2.3-1.5 3.4l-.6 1.2c-.3.6-.5 1.1-.8 1.7-.2.5-.5 1-.7 1.4l-.8 1.7c-1.7 3.4-3.4 6.7-5.3 9.9-.4.8-.9 1.6-1.3 2.3-1 1.8-2 3.5-3.1 5.2-.4.7-.8 1.3-1.2 2-.6 1-1.3 2-1.9 2.9-.5.8-1 1.5-1.5 2.2-.5.8-1 1.6-1.6 2.3-1.1 1.5-2.1 3-3.2 4.5s-2.1 2.9-3.2 4.4c-.5.7-1.1 1.4-1.6 2.1l-3.3 4.2c-.8 1-1.6 2-2.5 3-.7.9-1.5 1.8-2.2 2.6-1.8 2.1-3.6 4.1-5.3 6.1-.5.6-1 1.1-1.5 1.6-1.1 1.2-2.2 2.3-3.2 3.5-.5.6-1.1 1.1-1.6 1.7-1.4 1.5-2.9 2.9-4.3 4.3-.6.6-1.3 1.2-1.9 1.9l-.2.2c-.7.7-1.4 1.3-2.1 2-.7.7-1.5 1.4-2.2 2.1-.7.7-1.5 1.4-2.2 2-1.1 1-2.1 1.9-3.2 2.8-.1.1-.2.2-.3.2-.6.5-1.2 1.1-1.8 1.6-1 .9-2 1.7-3 2.5-.6.5-1.3 1.1-1.9 1.6-3.1 2.5-5.9 4.7-8.2 6.5-.5.3-.9.7-1.3 1-.3.2-.5.4-.7.5-.2.2-.5.4-.7.5-.7.5-1.3 1-1.9 1.4-.2.1-.4.3-.5.4-.4.2-.7.5-1 .7-.2.1-.3.2-.4.3h-.1c-.2.1-.3.2-.5.3-.8.5-1.3.9-1.5 1 0 0-.1 0-.1.1l-44.3-60.7-8.1-11.1 40.3-71.3s41.5-12.8 75.4-22.9c18.1-5.2 34.1-9.9 40.4-11.5z"/>
        <path class="st1" d="M624.4 649.6s108.5 24.9 186.9-21.7"/>
        <path class="st1" d="M1136.6 601.9c-30 32.5-53.3 55.2-53.3 55.2-17.2 1-27.9.6-27.9.6s-46.1 1.7-100.1 12C879 684.1 787 715.5 787 782.9c0 21.1 5.2 38.5 13.7 52.7-145.5-10.4-176.3-186-176.3-186-44.8-13.4-95.5-80.9-96.3-81.9.7.2 24.5 7.1 63.5 14.8 16.8 3.3 36.5 6.8 58.3 10 23.6 3.4 52.7-4.9 83.7-16.4 25-9.2 51.2-20.5 76.7-29.1 40.6-13.7 79.5-20.8 108.8-2.7 70.4 43.4 215.8 57.4 217.5 57.6z"/>
        <path class="st1" d="M1205.5 521.5c-22.3 28.6-47.3 57-68.9 80.3-1.7-.2-147.1-14.2-217.4-57.6-29.4-18.1-68.2-11-108.8 2.7-25.5 8.6-51.7 19.8-76.7 29.1L663 498.6l54.9-44.9 48.9-40s162 1.6 251.9 7.4c14.5.9 27.1 2 36.8 3.2 48.1 5.8 113.4 62.2 150 97.2z"/>
        <path class="st1" d="M733.6 576c-30.9 11.4-60 19.8-83.7 16.4-21.8-3.2-41.5-6.7-58.3-10L461.9 358c43.8 15 201 140.6 201 140.6l70.7 77.4z"/>
        <path class="st1" d="M841.2 413.7c-8.8-49.1 2.9-88.1 13.5-111.4"/>
        <path class="st1" d="M779.6 265.3c-40.5 63.9-61.8 188.4-61.8 188.4l-54.9 44.9S505.7 373 461.9 358c0 0 68.6-137.2 317.7-92.7z"/>
        <path class="st1" d="M1223.3 752.6c84.6-113.9 114.9-251.9 115.4-254l-32.1 50.7c-19.8 34.5-50.3 58-83.2 74.1-4.6 2.3-9.3 4.3-13.9 6.3-38.6 16.1-78.9 23-108.6 25.9-6.3.6-12.2 1.1-17.4 1.4 0 0 23.3-22.7 53.3-55.2 21.6-23.4 46.6-51.7 68.9-80.3 6.2-7.9 12.2-15.9 17.8-23.7 24.4-34.1 42.4-66.5 43.4-88.9 1.5-35-11.3-69-24.7-94.7 52.3-14.9 198.4-42.1 222.3 107 28.9 182.2-241.2 331.4-241.2 331.4z"/>
        <path class="st1" d="M1018.6 421.2c-89.9-5.9-251.9-7.4-251.9-7.4l-48.9 40s21.2-124.5 61.8-188.4c9.5-15 20.1-26.7 31.7-32.6 29.4-15 43.7-5 50.6 9.4 7.5 15.6 6.4 36.4 6.4 36.4l97.9 70.8 8.1 11.1 44.3 60.7z"/>
        <path class="st1" d="M1081.9 255.1c-33.9 10.1-75.4 22.9-75.4 22.9l-40.3 71.3-97.9-70.8s1.1-20.8-6.4-36.4c48.6-20.7 147.6-49.9 220 13z"/>
        <path class="st1" d="M1266.7 408.9c-.9 22.4-19 54.8-43.4 88.9-5.6 7.9-11.6 15.8-17.8 23.7-36.6-35.1-101.9-91.4-150-97.2-9.8-1.2-22.4-2.2-36.8-3.2l.1-.1c.2-.1.7-.5 1.5-1 .2-.1.3-.2.5-.3h.1c.1-.1.3-.2.4-.3.3-.2.6-.4 1-.7.2-.1.4-.3.5-.4.6-.4 1.2-.9 1.9-1.4.2-.2.5-.3.7-.5.2-.2.5-.3.7-.5.4-.3.9-.6 1.3-1 2.4-1.8 5.2-4 8.2-6.5.6-.5 1.2-1 1.9-1.6 1-.8 2-1.7 3-2.5.6-.5 1.2-1 1.8-1.6.1-.1.2-.1.3-.2 1-.9 2.1-1.9 3.2-2.8.7-.7 1.4-1.3 2.2-2 .7-.7 1.5-1.4 2.2-2.1.7-.6 1.4-1.3 2.1-2l.2-.2c.6-.6 1.3-1.2 1.9-1.9l4.3-4.3c.5-.6 1.1-1.1 1.6-1.7 1.1-1.1 2.2-2.3 3.2-3.5.5-.5 1-1.1 1.5-1.6 1.8-2 3.5-4 5.3-6.1.7-.9 1.5-1.7 2.2-2.6.8-1 1.7-2 2.5-3 1.1-1.4 2.2-2.7 3.3-4.2.5-.7 1.1-1.4 1.6-2.1 1.1-1.4 2.2-2.9 3.2-4.4 1.1-1.5 2.1-3 3.2-4.5.5-.8 1.1-1.5 1.6-2.3.5-.7 1-1.5 1.5-2.2.6-1 1.3-2 1.9-2.9.4-.7.8-1.3 1.2-2 1.1-1.7 2.1-3.4 3.1-5.2.5-.8.9-1.5 1.3-2.3 1.8-3.2 3.6-6.5 5.3-9.9l.8-1.7c.2-.5.5-1 .7-1.4.3-.6.5-1.1.8-1.7l.6-1.2c.5-1.1 1-2.2 1.5-3.4.1-.3.2-.5.3-.7.4-1 .9-2 1.3-3 .7-1.8 1.5-3.6 2.2-5.4 1.7-4.6 3.3-9.4 4.8-14.2.1-.5.3-1 .4-1.5.2-.7.4-1.3.6-2l.6-2.4c.3-1 .5-2 .7-3 .2-.9.4-1.8.6-2.6.2-1.1.5-2.3.7-3.4.1-.7.3-1.5.4-2.2.1-.5.2-1.1.3-1.6.1-.8.3-1.5.4-2.3.1-.5.2-1 .2-1.5.1-.7.2-1.3.3-2 .1-1 .3-1.9.4-2.9l.3-2.1c.8-6.8 1.3-13.7 1.3-20.9 18.1-4.5 90.3 25.6 90.3 25.6s15.1 17.9 29.4 45.2c13.3 25.5 26 59.5 24.6 94.5z"/>
        <path class="st1" d="M1532.3 865.1c-.8 8.8-56.6 601.6-513.7 503.8-11.9-2.6-24.1-5.6-36.6-9.1 0 0-2.1-87.7 36.6-178.8 34.3-80.8 100.6-164.3 228.8-191.8 266.4-57.1 284.2-121.1 284.9-124.1z"/>
        <path class="st1" d="M1018.6 918.8V1181c-1.2 2.7-2.3 5.5-3.4 8.2-.5 1.4-1.1 2.7-1.6 4.1-.5 1.4-1.1 2.7-1.6 4.1-.8 2.2-1.6 4.4-2.4 6.7-.9 2.6-1.8 5.1-2.7 7.6-.4 1.3-.8 2.5-1.2 3.7-.3 1-.7 2.1-1 3.1-.4 1.3-.8 2.5-1.2 3.7-.2.5-.3 1-.5 1.5-.3 1-.6 2-.9 2.9-.4 1.2-.7 2.5-1.1 3.7-.7 2.5-1.4 4.9-2.1 7.3-.3 1.2-.7 2.4-1 3.6-1.3 4.8-2.4 9.6-3.5 14.2-.2.8-.3 1.5-.5 2.2-.2.8-.4 1.6-.5 2.4l-1.2 5.7c-.2 1.1-.5 2.3-.7 3.4-.1.7-.3 1.4-.4 2.1-.6 3.2-1.2 6.4-1.8 9.5-.2 1-.3 1.9-.5 2.8-.5 3.1-1 6.2-1.5 9.2-.3 1.6-.5 3.3-.7 4.8-.7 5.1-1.3 9.9-1.9 14.4-.1.8-.2 1.5-.3 2.3-.1.9-.2 1.7-.3 2.6v.2c-.1.8-.2 1.5-.2 2.3v.1c0 .4-.1.9-.1 1.3 0 .5-.1.9-.1 1.4-.1.7-.1 1.3-.2 2v.5c0 .3-.1.6-.1.9-.1.7-.1 1.4-.2 2.1v.2c-.1.8-.1 1.5-.2 2.2v.4c0 .6-.1 1.2-.1 1.8-.1 1.1-.1 2.1-.2 3.1 0 .3 0 .7-.1 1 0 .3 0 .6-.1.9-.1.9-.1 1.7-.1 2.5 0 .4 0 .8-.1 1.2v2.4c-.1 2.9-.2 5.5-.3 7.7v8.7c12.5 3.5 24.7 6.5 36.6 9.1v334.1H913.7V929.4c12.6-8.6 24.2-18.1 33.9-27.9 17.3.3 33.8-.7 49.7-2.9 6.3 6.5 13.5 13.5 21.3 20.2z"/>
        <path class="st1" d="M913.7 1318.5v188.9c-41.4 27.8-182.5-31.7-211.6-46.6-54.2-27.8-173.1-136.9-314.3-408.5-3.7-7.2 77.9 31.5 160.7 28.5 76.3-2.8 275.9 89.9 365.2 237.7z"/>
        <path class="st1" d="M947.6 901.5c-9.7 9.8-21.3 19.3-33.9 27.9-21 14.3-44.7 26.2-67.4 33.1-49.8 15.3-162.9 15.8-173.3 16 5.1-.2 0 0 60.5-48.3 30.7-24.5 73-42.8 108.9-55.1 24.2 13.8 51.5 20.3 71.2 23.5 16.2 2.6 27.3 2.8 27.3 2.8 2.3 0 4.5.1 6.7.1z"/>
        <path class="st1" d="M1338.7 498.6c-.5 2.2-30.8 140.1-115.4 254-37.3 50.2-85.2 95.8-145.8 122.9-18.4 8.3-38 14.8-58.9 19.3-6.9 1.5-14 2.7-21.2 3.7-15.9 2.2-32.5 3.2-49.7 2.9-2.2 0-4.4-.1-6.7-.2 0 0-11.1-.2-27.3-2.8-19.7-3.1-47-9.7-71.2-23.5-16.5-9.4-31.6-22.2-41.9-39.4-8.5-14.3-13.7-31.6-13.7-52.7 0-67.4 92-98.8 168.3-113.2 54-10.2 100.1-12 100.1-12s10.7.4 27.9-.6c5.2-.3 11.1-.7 17.4-1.4 29.7-2.9 70.1-9.8 108.6-25.9 4.7-2 9.3-4.1 13.9-6.3 33-16.1 63.5-39.6 83.2-74.1l32.4-50.7z"/>
        <path class="st1" d="M1227.6 936.4s-100.2 30.9-154.6 14.4c-19.8-6-38.6-18.5-54.4-32-7.9-6.7-15-13.6-21.2-20.1 7.2-1 14.3-2.3 21.2-3.7 20.8-4.5 40.4-11 58.9-19.3 51.4 27.5 117.5 59.5 150.1 60.7z"/>
    </g>
</svg>
