<svg xmlns="http://www.w3.org/2000/svg" viewBox="0 0 1920 1920">
    <style>
        .st0{fill:#fff}.st1{fill:none;stroke:#231f20;stroke-width:50;stroke-linecap:round;stroke-linejoin:round;stroke-miterlimit:10}
    </style>
    <path class="st0" d="M1101.8 244.4c-19.2-2.5-50.8-.6-99.3 18.5-7.3-19.3-24-42.3-62.2-45.6-51.4-4.4-74.7 31.8-82.8 48.9-26.4-24.8-46.7-38.3-47.4-38.8 1 1.1 33.2 35.3 33.2 99.6v167.2c0 17.3 5.5 34.2 16.3 47.8 9.7 12.2 24.5 23 46.8 23h92.9s83-13.3 83-83V327.1s2.8-47.5 24.4-66.5c6-5.3 3-15.2-4.9-16.2z" id="Layer_11"/>
    <g id="STROKES">
        <path class="st1" d="M957.1 564.9v1138.2"/>
        <path class="st1" d="M1005.8 792.4c-40.8-91.4 39.2-80 39.2-130.6 0-50.6-58.8-50.6-58.8-50.6h-57.9s-58.8 0-58.8 50.6 80 39.2 39.2 130.6"/>
        <path class="st1" d="M878.4 1114.9h78.7"/>
        <path class="st1" d="M878.4 1364.1h78.7"/>
        <path class="st1" d="M958.6 981.4h78.7"/>
        <path class="st1" d="M958.6 1230.6h78.7"/>
        <path class="st1" d="M958.6 1479.8h78.7"/>
        <path class="st1" d="M1106.7 260.5c-21.6 19-24.4 66.5-24.4 66.5v154.9c0 69.7-83 83-83 83h-92.9c-22.3 0-37.1-10.8-46.8-23-10.8-13.5-16.3-30.5-16.3-47.7V327c0-64.3-32.2-98.5-33.2-99.6.8.5 21 14.1 47.4 38.8 8.1-17.2 31.3-53.4 82.8-48.9 38.2 3.3 54.9 26.3 62.2 45.6 48.5-19.2 80.1-21.1 99.3-18.6 7.9 1.1 10.9 11 4.9 16.2z"/>
        <path class="st1" d="M961.4 411.4c-6.2-15-13.3-29.2-21-42.5-25.2-43.6-56.9-78.4-82.7-102.6"/>
        <path class="st1" d="M1002.5 262.9c-26.8 10.6-58.8 26.5-96.7 49.9"/>
        <path class="st1" d="M940.3 368.9c4.3-2.1 135.7-49.5 135.7-49.5"/>
    </g>
</svg>
