<svg xmlns="http://www.w3.org/2000/svg" viewBox="0 0 1920 1920">
    <style>
        .st0{fill:#fff}.st1{fill:none;stroke:#231f20;stroke-width:50;stroke-linecap:round;stroke-linejoin:round;stroke-miterlimit:10}
    </style>
    <path class="st0" d="M1197.5 691.1v1.1c0 .3 0 .6-.1.8v.3c0 .2 0 .4-.1.7v.1c-.1.4-.1.8-.2 1.2 0 .1 0 .2-.1.3 0 .2-.1.4-.1.6v.1c-.2.6-.3 1.2-.6 1.8-.1.3-.2.5-.3.8l-.6 1.5-.3.6v.1c-.1.2-.2.3-.3.5-.1.3-.3.6-.5.8-.5.8-1 1.7-1.6 2.5-.2.3-.4.5-.6.8-2.2 2.9-5.1 5.7-8.5 8.5-.3.2-.5.4-.8.6-.5.4-1.1.8-1.7 1.3-.4.3-.7.5-1.1.8-.4.3-.7.5-1.1.8-.8.5-1.5 1-2.3 1.5-.1.1-.2.2-.4.2-.4.3-.9.5-1.3.8-.4.3-.9.5-1.3.8-.5.3-1.1.6-1.6.9-.1.1-.2.1-.3.2-.2.1-.5.3-.8.4-.2.1-.5.3-.8.4-.6.3-1.3.7-1.9 1-.7.3-1.3.7-2 1-.7.3-1.3.6-2 1-.7.3-1.4.7-2.1 1-.1 0-.2.1-.3.1-.6.3-1.2.5-1.8.8-.7.3-1.5.7-2.2 1-.8.3-1.5.6-2.3 1-.9.4-1.8.7-2.6 1.1-.7.3-1.4.5-2.1.8-.6.2-1.3.5-2 .8-2.6 1-5.4 1.9-8.2 2.9-.8.3-1.6.5-2.5.8-.1 0-.1 0-.2.1-1.2.4-2.5.8-3.7 1.2-.7.2-1.3.4-2 .6-.7.2-1.3.4-2 .6-.1 0-.2.1-.3.1-.9.3-1.8.5-2.8.8-1.1.3-2.2.6-3.4.9-.2.1-.5.1-.7.2-1.6.4-3.1.8-4.7 1.2-1 .2-2 .5-3 .8-1 .2-2 .5-3.1.7-.8.2-1.7.4-2.5.6l-1.2.3c-.9.2-1.7.4-2.6.6-1.1.2-2.1.5-3.2.7-1.1.2-2.2.5-3.3.7-1.1.2-2.1.4-3.2.7-1.1.2-2.1.4-3.2.6-2.4.4-4.8.9-7.2 1.3l-3.3.6-3.3.6-3.6.6c-1.2.2-2.3.4-3.5.5-.4.1-.8.1-1.2.2-1.1.2-2.1.3-3.2.5l-4.5.6c-1.7.2-3.5.5-5.2.7-1.8.2-3.5.5-5.3.7-1.3.2-2.7.3-4 .5-1.4.2-2.7.3-4.1.5-.8.1-1.7.2-2.5.3l-3 .3c-.8.1-1.7.2-2.5.2l-3 .3c-1 .1-1.9.2-2.8.3-5.2.5-10.6.9-16 1.2-1.3.1-2.6.2-3.8.2-1.4.1-2.9.2-4.3.2-1 .1-1.9.1-2.9.2-.5 0-1 .1-1.5.1-1.9.1-3.9.2-5.9.3-5.9.3-11.9.5-17.9.6-1 0-2 0-3 .1-2.5 0-5.1.1-7.6.1h-15.4c-2.5 0-5.1-.1-7.6-.1-1 0-2 0-3-.1-6-.1-12-.3-17.9-.6-2-.1-3.9-.2-5.9-.3-.5 0-1-.1-1.5-.1-1 0-1.9-.1-2.9-.2-1.4-.1-2.9-.2-4.3-.2-1.3-.1-2.6-.2-3.8-.2-5.4-.4-10.7-.8-16-1.2-1-.1-1.9-.2-2.8-.3l-3-.3c-.8-.1-1.7-.2-2.5-.2l-3-.3c-.8-.1-1.7-.2-2.5-.3-1.4-.2-2.7-.3-4.1-.5-1.3-.1-2.7-.3-4-.5-1.8-.2-3.5-.4-5.3-.7-1.8-.2-3.5-.5-5.2-.7l-4.5-.6c-1.1-.2-2.1-.3-3.2-.5-.4-.1-.8-.1-1.2-.2-1.2-.2-2.3-.3-3.5-.5l-3.6-.6-3.3-.6-3.3-.6c-2.4-.4-4.8-.9-7.2-1.3-1.1-.2-2.2-.4-3.2-.6-1.1-.2-2.1-.4-3.2-.7-1.1-.2-2.2-.5-3.3-.7-1.1-.2-2.1-.5-3.2-.7-.9-.2-1.7-.4-2.6-.6l-1.2-.3c-.8-.2-1.7-.4-2.5-.6-1-.2-2-.5-3.1-.7-1-.2-2-.5-3-.8-1.6-.4-3.2-.8-4.7-1.2-.2-.1-.5-.1-.7-.2-1.1-.3-2.2-.6-3.4-.9-.9-.3-1.9-.5-2.8-.8-.1 0-.2-.1-.3-.1-.7-.2-1.4-.4-2-.6-.7-.2-1.3-.4-2-.6-1.3-.4-2.5-.8-3.7-1.2-.1 0-.1 0-.2-.1-.8-.3-1.6-.5-2.5-.8-2.8-1-5.6-1.9-8.2-2.9-.7-.3-1.3-.5-2-.8-.7-.3-1.4-.5-2.1-.8-.9-.3-1.8-.7-2.6-1.1-.8-.3-1.5-.6-2.3-1-.8-.3-1.5-.6-2.2-1-.6-.3-1.2-.5-1.8-.8-.1 0-.2-.1-.3-.1-.7-.3-1.4-.7-2.1-1-.7-.3-1.3-.6-2-1-.7-.3-1.3-.7-2-1-.6-.3-1.3-.7-1.9-1-.3-.1-.5-.3-.8-.4-.2-.1-.5-.3-.8-.4-.1-.1-.2-.1-.3-.2-.6-.3-1.1-.6-1.6-.9-.4-.3-.9-.5-1.3-.8-.5-.3-.9-.5-1.3-.8-.1-.1-.2-.2-.4-.2-.8-.5-1.6-1-2.3-1.5-.4-.2-.8-.5-1.1-.8-.4-.2-.7-.5-1.1-.8-.6-.4-1.1-.8-1.7-1.3-.3-.2-.5-.4-.8-.6-3.5-2.7-6.3-5.6-8.5-8.5-.2-.3-.4-.5-.6-.8-.6-.8-1.1-1.7-1.6-2.5-.2-.3-.3-.6-.5-.8-.1-.2-.2-.3-.3-.5v-.1l-.3-.6-.6-1.5c-.1-.3-.2-.5-.3-.8l-.6-1.8v-.1c-.1-.2-.1-.4-.1-.6 0-.1 0-.2-.1-.3-.1-.4-.2-.8-.2-1.2v-.1c0-.2-.1-.5-.1-.7V693c0-.3 0-.6-.1-.8v-1.1c0-7 3.7-13.7 10.5-20 2.3-2.1 4.9-4.2 7.9-6.2 35.9-24.4 120.5-41.5 219.1-41.5s183.2 17.1 219.1 41.5c3 2 5.6 4.1 7.9 6.2 6.5 6.4 10.1 13.1 10.1 20z" id="Layer_8"/>
    <path class="st0" d="M1703 1135.3c0 170-332.7 307.8-743 307.8s-743-137.8-743-307.8c0-49.4 28-96 77.9-137.4l31.5-23.5 80.2-59.8 73.3-54.7c1.8-1 3.7-2.1 5.6-3.1.2-.5.5-1.1.7-1.6l113.4-84.5 16.1-12L733 671.1c-6.8 6.3-10.5 13-10.5 20v1.1c0 .3 0 .6.1.8v.3c0 .2 0 .4.1.7v.1c.1.4.1.8.2 1.2 0 .1 0 .2.1.3 0 .2.1.4.1.6v.1c.2.6.3 1.2.6 1.8.1.3.2.5.3.8l.6 1.5.3.6v.1c.1.2.2.3.3.5.1.3.3.6.5.8.5.8 1 1.7 1.6 2.5.2.3.4.5.6.8 2.2 2.9 5.1 5.7 8.5 8.5.3.2.5.4.8.6.5.4 1.1.8 1.7 1.3.4.3.7.5 1.1.8.4.3.7.5 1.1.8.8.5 1.5 1 2.3 1.5.1.1.2.2.4.2.4.3.9.5 1.3.8.4.3.9.5 1.3.8.5.3 1.1.6 1.6.9.1.1.2.1.3.2.2.1.5.3.8.4.2.1.5.3.8.4.6.3 1.3.7 1.9 1 .7.3 1.3.7 2 1 .7.3 1.3.6 2 1 .7.3 1.4.7 2.1 1 .1 0 .2.1.3.1.6.3 1.2.5 1.8.8.7.3 1.5.7 2.2 1 .8.3 1.5.6 2.3 1 .9.4 1.8.7 2.6 1.1.7.3 1.4.5 2.1.8.6.2 1.3.5 2 .8 2.6 1 5.4 1.9 8.2 2.9.8.3 1.6.5 2.5.8.1 0 .1 0 .2.1 1.2.4 2.5.8 3.7 1.2.7.2 1.3.4 2 .6.7.2 1.3.4 2 .6.1 0 .2.1.3.1.9.3 1.8.5 2.8.8 1.1.3 2.2.6 3.4.9.2.1.5.1.7.2 1.6.4 3.1.8 4.7 1.2 1 .2 2 .5 3 .8 1 .2 2 .5 3.1.7.8.2 1.7.4 2.5.6l1.2.3c.9.2 1.7.4 2.6.6 1.1.2 2.1.5 3.2.7 1.1.2 2.2.5 3.3.7 1.1.2 2.1.4 3.2.7 1.1.2 2.1.4 3.2.6 2.4.4 4.8.9 7.2 1.3l3.3.6 3.3.6 3.6.6c1.2.2 2.3.4 3.5.5.4.1.8.1 1.2.2 1.1.2 2.1.3 3.2.5l4.5.6c1.7.2 3.5.5 5.2.7 1.8.2 3.5.5 5.3.7 1.3.2 2.7.3 4 .5 1.4.2 2.7.3 4.1.5.8.1 1.7.2 2.5.3a5142737504635186 5142737504635186 0 0 0 8.5.8c1 .1 1.9.2 2.8.3 5.2.5 10.6.9 16 1.2 1.3.1 2.6.2 3.8.2 1.4.1 2.9.2 4.3.2 1 .1 1.9.1 2.9.2.5 0 1 .1 1.5.1 1.9.1 3.9.2 5.9.3 5.9.3 11.9.5 17.9.6 1 0 2 0 3 .1 2.5 0 5.1.1 7.6.1h15.4c2.5 0 5.1-.1 7.6-.1 1 0 2 0 3-.1 6-.1 12-.3 17.9-.6 2-.1 3.9-.2 5.9-.3.5 0 1-.1 1.5-.1 1 0 1.9-.1 2.9-.2 1.4-.1 2.9-.2 4.3-.2 1.3-.1 2.6-.2 3.8-.2 5.4-.4 10.7-.8 16-1.2 1-.1 1.9-.2 2.8-.3l3-.3c.8-.1 1.7-.2 2.5-.2l3-.3c.8-.1 1.7-.2 2.5-.3 1.4-.2 2.7-.3 4.1-.5 1.3-.1 2.7-.3 4-.5 1.8-.2 3.5-.4 5.3-.7 1.8-.2 3.5-.5 5.2-.7l4.5-.6c1.1-.2 2.1-.3 3.2-.5.4-.1.8-.1 1.2-.2 1.2-.2 2.3-.3 3.5-.5l3.6-.6 3.3-.6 3.3-.6c2.4-.4 4.8-.9 7.2-1.3 1.1-.2 2.2-.4 3.2-.6 1.1-.2 2.1-.4 3.2-.7 1.1-.2 2.2-.5 3.3-.7 1.1-.2 2.1-.5 3.2-.7.9-.2 1.7-.4 2.6-.6l1.2-.3c.8-.2 1.7-.4 2.5-.6 1-.2 2-.5 3.1-.7 1-.2 2-.5 3-.8 1.6-.4 3.2-.8 4.7-1.2.2-.1.5-.1.7-.2 1.1-.3 2.2-.6 3.4-.9.9-.3 1.9-.5 2.8-.8.1 0 .2-.1.3-.1.7-.2 1.4-.4 2-.6.7-.2 1.3-.4 2-.6 1.3-.4 2.5-.8 3.7-1.2.1 0 .1 0 .2-.1.8-.3 1.6-.5 2.5-.8 2.8-1 5.6-1.9 8.2-2.9.7-.3 1.3-.5 2-.8.7-.3 1.4-.5 2.1-.8.9-.3 1.8-.7 2.6-1.1.8-.3 1.5-.6 2.3-1 .8-.3 1.5-.6 2.2-1 .6-.3 1.2-.5 1.8-.8.1 0 .2-.1.3-.1.7-.3 1.4-.7 2.1-1 .7-.3 1.3-.6 2-1 .7-.3 1.3-.7 2-1 .6-.3 1.3-.7 1.9-1 .3-.1.5-.3.8-.4.2-.1.5-.3.8-.4.1-.1.2-.1.3-.2.6-.3 1.1-.6 1.6-.9.4-.3.9-.5 1.3-.8.5-.3.9-.5 1.3-.8.1-.1.2-.2.4-.2.8-.5 1.6-1 2.3-1.5.4-.2.8-.5 1.1-.8.4-.2.7-.5 1.1-.8.6-.4 1.1-.8 1.7-1.3.3-.2.5-.4.8-.6 3.5-2.7 6.3-5.6 8.5-8.5.2-.3.4-.5.6-.8.6-.8 1.1-1.7 1.6-2.5.2-.3.3-.6.5-.8.1-.2.2-.3.3-.5v-.1l.3-.6.6-1.5c.1-.3.2-.5.3-.8l.6-1.8v-.1c.1-.2.1-.4.1-.6 0-.1 0-.2.1-.3.1-.4.2-.8.2-1.2v-.1c0-.2.1-.5.1-.7V693c0-.3 0-.6.1-.8v-1.1c0-7-3.7-13.7-10.5-20l117.4 87.5 16.1 12 113.4 84.6c.2.5.5 1 .7 1.6 1.9 1 3.7 2 5.6 3.1l73.3 54.7 80 59.7 31.6 23.6c50.3 41.3 78.3 88 78.3 137.4z" id="Layer_9"/>
    <g id="STROKES">
        <path class="st1" d="M1197.5 691.1v1.1c0 .3 0 .6-.1.8v.3c0 .2 0 .4-.1.7v.1c-.1.4-.1.8-.2 1.2 0 .1 0 .2-.1.3 0 .2-.1.4-.1.6v.1c-.2.6-.3 1.2-.6 1.8-.1.3-.2.5-.3.8l-.6 1.5-.3.6v.1c-.1.2-.2.3-.3.5-.1.3-.3.6-.5.8-.5.8-1 1.7-1.6 2.5-.2.3-.4.5-.6.8-2.2 2.9-5.1 5.7-8.5 8.5-.3.2-.5.4-.8.6-.5.4-1.1.8-1.7 1.3-.4.3-.7.5-1.1.8-.4.3-.7.5-1.1.8-.8.5-1.5 1-2.3 1.5-.1.1-.2.2-.4.2-.4.3-.9.5-1.3.8-.4.3-.9.5-1.3.8-.5.3-1.1.6-1.6.9-.1.1-.2.1-.3.2-.2.1-.5.3-.8.4-.2.1-.5.3-.8.4-.6.3-1.3.7-1.9 1-.7.3-1.3.7-2 1-.7.3-1.3.6-2 1-.7.3-1.4.7-2.1 1-.1 0-.2.1-.3.1-.6.3-1.2.5-1.8.8-.7.3-1.5.7-2.2 1-.8.3-1.5.6-2.3 1-.9.4-1.8.7-2.6 1.1-.7.3-1.4.5-2.1.8-.6.2-1.3.5-2 .8-2.6 1-5.4 1.9-8.2 2.9-.8.3-1.6.5-2.5.8-.1 0-.1 0-.2.1-1.2.4-2.5.8-3.7 1.2-.7.2-1.3.4-2 .6-.7.2-1.3.4-2 .6-.1 0-.2.1-.3.1-.9.3-1.8.5-2.8.8-1.1.3-2.2.6-3.4.9-.2.1-.5.1-.7.2-1.6.4-3.1.8-4.7 1.2-1 .2-2 .5-3 .8-1 .2-2 .5-3.1.7-.8.2-1.7.4-2.5.6l-1.2.3c-.9.2-1.7.4-2.6.6-1.1.2-2.1.5-3.2.7-1.1.2-2.2.5-3.3.7-1.1.2-2.1.4-3.2.7-1.1.2-2.1.4-3.2.6-2.4.4-4.8.9-7.2 1.3l-3.3.6-3.3.6-3.6.6c-1.2.2-2.3.4-3.5.5-.4.1-.8.1-1.2.2-1.1.2-2.1.3-3.2.5l-4.5.6c-1.7.2-3.5.5-5.2.7-1.8.2-3.5.5-5.3.7-1.3.2-2.7.3-4 .5-1.4.2-2.7.3-4.1.5-.8.1-1.7.2-2.5.3l-3 .3c-.8.1-1.7.2-2.5.2l-3 .3c-1 .1-1.9.2-2.8.3-5.2.5-10.6.9-16 1.2-1.3.1-2.6.2-3.8.2-1.4.1-2.9.2-4.3.2-1 .1-1.9.1-2.9.2-.5 0-1 .1-1.5.1-1.9.1-3.9.2-5.9.3-5.9.3-11.9.5-17.9.6-1 0-2 0-3 .1-2.5 0-5.1.1-7.6.1h-15.4c-2.5 0-5.1-.1-7.6-.1-1 0-2 0-3-.1-6-.1-12-.3-17.9-.6-2-.1-3.9-.2-5.9-.3-.5 0-1-.1-1.5-.1-1 0-1.9-.1-2.9-.2-1.4-.1-2.9-.2-4.3-.2-1.3-.1-2.6-.2-3.8-.2-5.4-.4-10.7-.8-16-1.2-1-.1-1.9-.2-2.8-.3l-3-.3c-.8-.1-1.7-.2-2.5-.2l-3-.3c-.8-.1-1.7-.2-2.5-.3-1.4-.2-2.7-.3-4.1-.5-1.3-.1-2.7-.3-4-.5-1.8-.2-3.5-.4-5.3-.7-1.8-.2-3.5-.5-5.2-.7l-4.5-.6c-1.1-.2-2.1-.3-3.2-.5-.4-.1-.8-.1-1.2-.2-1.2-.2-2.3-.3-3.5-.5l-3.6-.6-3.3-.6-3.3-.6c-2.4-.4-4.8-.9-7.2-1.3-1.1-.2-2.2-.4-3.2-.6-1.1-.2-2.1-.4-3.2-.7-1.1-.2-2.2-.5-3.3-.7-1.1-.2-2.1-.5-3.2-.7-.9-.2-1.7-.4-2.6-.6l-1.2-.3c-.8-.2-1.7-.4-2.5-.6-1-.2-2-.5-3.1-.7-1-.2-2-.5-3-.8-1.6-.4-3.2-.8-4.7-1.2-.2-.1-.5-.1-.7-.2-1.1-.3-2.2-.6-3.4-.9-.9-.3-1.9-.5-2.8-.8-.1 0-.2-.1-.3-.1-.7-.2-1.4-.4-2-.6-.7-.2-1.3-.4-2-.6-1.3-.4-2.5-.8-3.7-1.2-.1 0-.1 0-.2-.1-.8-.3-1.6-.5-2.5-.8-2.8-1-5.6-1.9-8.2-2.9-.7-.3-1.3-.5-2-.8-.7-.3-1.4-.5-2.1-.8-.9-.3-1.8-.7-2.6-1.1-.8-.3-1.5-.6-2.3-1-.8-.3-1.5-.6-2.2-1-.6-.3-1.2-.5-1.8-.8-.1 0-.2-.1-.3-.1-.7-.3-1.4-.7-2.1-1-.7-.3-1.3-.6-2-1-.7-.3-1.3-.7-2-1-.6-.3-1.3-.7-1.9-1-.3-.1-.5-.3-.8-.4-.2-.1-.5-.3-.8-.4-.1-.1-.2-.1-.3-.2-.6-.3-1.1-.6-1.6-.9-.4-.3-.9-.5-1.3-.8-.5-.3-.9-.5-1.3-.8-.1-.1-.2-.2-.4-.2-.8-.5-1.6-1-2.3-1.5-.4-.2-.8-.5-1.1-.8-.4-.2-.7-.5-1.1-.8-.6-.4-1.1-.8-1.7-1.3-.3-.2-.5-.4-.8-.6-3.5-2.7-6.3-5.6-8.5-8.5-.2-.3-.4-.5-.6-.8-.6-.8-1.1-1.7-1.6-2.5-.2-.3-.3-.6-.5-.8-.1-.2-.2-.3-.3-.5v-.1l-.3-.6-.6-1.5c-.1-.3-.2-.5-.3-.8l-.6-1.8v-.1c-.1-.2-.1-.4-.1-.6 0-.1 0-.2-.1-.3-.1-.4-.2-.8-.2-1.2v-.1c0-.2-.1-.5-.1-.7V693c0-.3 0-.6-.1-.8v-1.1c0-7 3.7-13.7 10.5-20 2.3-2.1 4.9-4.2 7.9-6.2 35.9-24.4 120.5-41.5 219.1-41.5s183.2 17.1 219.1 41.5c3 2 5.6 4.1 7.9 6.2 6.5 6.4 10.1 13.1 10.1 20z"/>
        <path class="st1" d="M294.9 997.9c9.7-8.1 20.2-15.9 31.5-23.5l-31.5 23.5z"/>
        <path class="st1" d="M1625.1 997.9l-31.6-23.6c11.3 7.7 21.9 15.5 31.6 23.6z"/>
        <path class="st1" d="M1703 1135.3c0 170-332.7 307.8-743 307.8s-743-137.8-743-307.8c0-49.4 28-96 77.9-137.4l111.7-83.3 73.3-54.7 6.3-4.7c-.2.5-.5 1.1-.7 1.6-4.5 10.2-6.8 20.6-6.8 31.3 0 102.3 215.5 185.2 481.4 185.2s481.4-82.9 481.4-185.2c0-10.7-2.3-21.1-6.8-31.3-.2-.5-.5-1-.7-1.6l6.3 4.7 73.3 54.7 111.7 83.3c49.7 41.3 77.7 88 77.7 137.4z"/>
        <path class="st1" d="M1556.4 1007.3c0 137.2-267 248.5-596.4 248.5s-596.4-111.3-596.4-248.5c0-32.8 15.2-64.1 42.9-92.8l73.3-54.7c1.8-1 3.7-2.1 5.6-3.1-4.5 10.2-6.8 20.6-6.8 31.3 0 102.3 215.5 185.2 481.4 185.2s481.4-82.9 481.4-185.2c0-10.7-2.3-21.1-6.8-31.3 1.9 1 3.7 2 5.6 3.1l73.3 54.7c27.6 28.7 42.9 60 42.9 92.8z"/>
        <path class="st1" d="M1441.4 888.1c0 102.3-215.5 185.2-481.4 185.2s-481.4-82.9-481.4-185.2c0-10.7 2.3-21.1 6.8-31.3.2-.5.5-1.1.7-1.6l113.4-84.5c-.1 1.5-.2 3-.2 4.5 0 10.8 3.2 21.3 9.3 31.4C645.6 868.1 788.9 914 960 914s314.5-45.9 351.4-107.4c6.1-10.1 9.3-20.6 9.3-31.4 0-1.5-.1-3-.2-4.5l113.4 84.6c.2.5.5 1 .7 1.6 4.5 10.1 6.8 20.5 6.8 31.2z"/>
        <path class="st1" d="M1320.7 775.1c0 10.8-3.2 21.3-9.3 31.4-37 61.5-180.3 107.4-351.4 107.4S645.5 868 608.6 806.5c-6.1-10.1-9.3-20.6-9.3-31.4 0-1.5.1-3 .2-4.5l16.1-12L733 671.1c-6.8 6.3-10.5 13-10.5 20v1.1c0 .3 0 .6.1.8v.3c0 .2 0 .4.1.7v.1c.1.4.1.8.2 1.2 0 .1 0 .2.1.3 0 .2.1.4.1.6v.1c.2.6.3 1.2.6 1.8.1.3.2.5.3.8l.6 1.5.3.6v.1c.1.2.2.3.3.5.1.3.3.6.5.8.5.8 1 1.7 1.6 2.5.2.3.4.5.6.8 2.2 2.9 5.1 5.7 8.5 8.5.3.2.5.4.8.6.5.4 1.1.8 1.7 1.3.4.3.7.5 1.1.8.4.3.7.5 1.1.8.8.5 1.5 1 2.3 1.5.1.1.2.2.4.2.4.3.9.5 1.3.8.4.3.9.5 1.3.8.5.3 1.1.6 1.6.9.1.1.2.1.3.2.2.1.5.3.8.4.2.1.5.3.8.4.6.3 1.3.7 1.9 1 .7.3 1.3.7 2 1 .7.3 1.3.6 2 1 .7.3 1.4.7 2.1 1 .1 0 .2.1.3.1.6.3 1.2.5 1.8.8.7.3 1.5.7 2.2 1 .8.3 1.5.6 2.3 1 .9.4 1.8.7 2.6 1.1.7.3 1.4.5 2.1.8.6.2 1.3.5 2 .8 2.6 1 5.4 1.9 8.2 2.9.8.3 1.6.5 2.5.8.1 0 .1 0 .2.1 1.2.4 2.5.8 3.7 1.2.7.2 1.3.4 2 .6.7.2 1.3.4 2 .6.1 0 .2.1.3.1.9.3 1.8.5 2.8.8 1.1.3 2.2.6 3.4.9.2.1.5.1.7.2 1.6.4 3.1.8 4.7 1.2 1 .2 2 .5 3 .8 1 .2 2 .5 3.1.7.8.2 1.7.4 2.5.6l1.2.3c.9.2 1.7.4 2.6.6 1.1.2 2.1.5 3.2.7 1.1.2 2.2.5 3.3.7 1.1.2 2.1.4 3.2.7 1.1.2 2.1.4 3.2.6 2.4.4 4.8.9 7.2 1.3l3.3.6 3.3.6 3.6.6c1.2.2 2.3.4 3.5.5.4.1.8.1 1.2.2 1.1.2 2.1.3 3.2.5l4.5.6c1.7.2 3.5.5 5.2.7 1.8.2 3.5.5 5.3.7 1.3.2 2.7.3 4 .5 1.4.2 2.7.3 4.1.5.8.1 1.7.2 2.5.3a5142737504635186 5142737504635186 0 0 0 8.5.8c1 .1 1.9.2 2.8.3 5.2.5 10.6.9 16 1.2 1.3.1 2.6.2 3.8.2 1.4.1 2.9.2 4.3.2 1 .1 1.9.1 2.9.2.5 0 1 .1 1.5.1 1.9.1 3.9.2 5.9.3 5.9.3 11.9.5 17.9.6 1 0 2 0 3 .1 2.5 0 5.1.1 7.6.1h15.4c2.5 0 5.1-.1 7.6-.1 1 0 2 0 3-.1 6-.1 12-.3 17.9-.6 2-.1 3.9-.2 5.9-.3.5 0 1-.1 1.5-.1 1 0 1.9-.1 2.9-.2 1.4-.1 2.9-.2 4.3-.2 1.3-.1 2.6-.2 3.8-.2 5.4-.4 10.7-.8 16-1.2 1-.1 1.9-.2 2.8-.3l3-.3c.8-.1 1.7-.2 2.5-.2l3-.3c.8-.1 1.7-.2 2.5-.3 1.4-.2 2.7-.3 4.1-.5 1.3-.1 2.7-.3 4-.5 1.8-.2 3.5-.4 5.3-.7 1.8-.2 3.5-.5 5.2-.7l4.5-.6c1.1-.2 2.1-.3 3.2-.5.4-.1.8-.1 1.2-.2 1.2-.2 2.3-.3 3.5-.5l3.6-.6 3.3-.6 3.3-.6c2.4-.4 4.8-.9 7.2-1.3 1.1-.2 2.2-.4 3.2-.6 1.1-.2 2.1-.4 3.2-.7 1.1-.2 2.2-.5 3.3-.7 1.1-.2 2.1-.5 3.2-.7.9-.2 1.7-.4 2.6-.6l1.2-.3c.8-.2 1.7-.4 2.5-.6 1-.2 2-.5 3.1-.7 1-.2 2-.5 3-.8 1.6-.4 3.2-.8 4.7-1.2.2-.1.5-.1.7-.2 1.1-.3 2.2-.6 3.4-.9.9-.3 1.9-.5 2.8-.8.1 0 .2-.1.3-.1.7-.2 1.4-.4 2-.6.7-.2 1.3-.4 2-.6 1.3-.4 2.5-.8 3.7-1.2.1 0 .1 0 .2-.1.8-.3 1.6-.5 2.5-.8 2.8-1 5.6-1.9 8.2-2.9.7-.3 1.3-.5 2-.8.7-.3 1.4-.5 2.1-.8.9-.3 1.8-.7 2.6-1.1.8-.3 1.5-.6 2.3-1 .8-.3 1.5-.6 2.2-1 .6-.3 1.2-.5 1.8-.8.1 0 .2-.1.3-.1.7-.3 1.4-.7 2.1-1 .7-.3 1.3-.6 2-1 .7-.3 1.3-.7 2-1 .6-.3 1.3-.7 1.9-1 .3-.1.5-.3.8-.4.2-.1.5-.3.8-.4.1-.1.2-.1.3-.2.6-.3 1.1-.6 1.6-.9.4-.3.9-.5 1.3-.8.5-.3.9-.5 1.3-.8.1-.1.2-.2.4-.2.8-.5 1.6-1 2.3-1.5.4-.2.8-.5 1.1-.8.4-.2.7-.5 1.1-.8.6-.4 1.1-.8 1.7-1.3.3-.2.5-.4.8-.6 3.5-2.7 6.3-5.6 8.5-8.5.2-.3.4-.6.6-.8.6-.8 1.1-1.7 1.6-2.5.2-.3.3-.6.5-.8.1-.2.2-.3.3-.5v-.1l.3-.6.6-1.5c.1-.3.2-.5.3-.8l.6-1.8v-.1c.1-.2.1-.4.1-.6 0-.1 0-.2.1-.3.1-.4.2-.8.2-1.2v-.1c0-.2.1-.5.1-.7V693c0-.3 0-.6.1-.8v-1.1c0-7-3.7-13.7-10.5-20l117.4 87.5 16.1 12c.5 1.5.6 3 .6 4.5z"/>
    </g>
</svg>
