<svg xmlns="http://www.w3.org/2000/svg" viewBox="0 0 1920 1920">
    <style>
        .st0{fill:#fff}.st1,.st2{fill:none;stroke:#231f20;stroke-width:50;stroke-linecap:round;stroke-linejoin:round;stroke-miterlimit:10}.st2{stroke:#000}
    </style>
    <path class="st0" d="M1433 1139.7l-128.2-11.3s-4.5-57.5-12.7-94.1c-8.2-36.5-21.3-80.9-21.3-80.9l162.2 186.3zm-694.8-31.4s45.4-210.6 45.4-286.6v-74.9H651.3v454h537.5v-76.4l-181.8-16s45.4-210.6 45.4-286.6v-74.9H920.1v377.6l-181.9-16.2zm904.7 63.8l-454-602.8v290l82 94.2 162.2 186.3 64.1 73.7.3 1.1c1.4-.4 2.8-.7 4.2-1.1 66.5-17.4 116.1-33.1 141.2-41.4zm-454.1-425.3l-136.5-134v208.9c0 76-45.4 286.6-45.4 286.6l181.8 16V746.8zM783.6 612.7v208.9c0 76-45.4 286.6-45.4 286.6l181.8 16V746.8L783.6 612.7zm-268.7 0v208.9c0 94.6-45.4 286.6-45.4 286.6l181.8 16V746.8L514.9 612.7z" id="Layer_4"/>
    <path class="st0" d="M1188.8 1274.4c118.8-15.2 226.3-38.7 308.6-59.9 1.4-.4 2.8-.7 4.2-1.1-.2 1.9-32.3 257.4-299.1 257.4H397.6c-.1 0-.1 0-.2.1h-.3c-5.8-1-8.7-57 7.9-92.9 12.6-27.3 44-60 44-60s-28-47.5-35.2-85.6c0 0 166.6 58.2 533.4 58.2 82.8 0 164.6-6.4 241.6-16.2z" id="Layer_5"/>
    <g id="STROKES">
        <path class="st2" d="M651.3 1124.3l-181.8-16s45.4-192 45.4-286.6V612.6"/>
        <path class="st2" d="M482.8 581.2l32.1 31.5 136.4 134.1"/>
        <path class="st2" d="M920.1 1124.3l-181.8-16s45.4-210.6 45.4-286.6v-209"/>
        <path class="st2" d="M751.5 581.2l32.1 31.5 136.5 134.1"/>
        <path class="st2" d="M920.1 442.9v753.3"/>
        <path class="st2" d="M1188.8 1124.3l-181.8-16s45.4-210.6 45.4-286.6v-209"/>
        <path class="st2" d="M1020.2 581.2l32.2 31.5 136.4 134.1"/>
        <path class="st2" d="M651.3 468.6v801.9"/>
        <path class="st2" d="M1188.8 1274.9V468.6"/>
        <path class="st2" d="M783.6 746.8H651.3"/>
        <path class="st2" d="M1052.4 746.8H920.1"/>
        <path class="st2" d="M413.8 1232.4s166.6 58.2 533.4 58.2c82.8 0 164.6-6.3 241.6-16.2 118.8-15.2 226.3-38.7 308.6-59.9 1.4-.4 2.8-.7 4.2-1.1 66.6-17.3 116.2-33 141.2-41.3 11.9-3.9 18.2-6.2 18.2-6.2"/>
        <path class="st2" d="M1501.6 1213.4c-.2 1.9-32.3 257.5-299.1 257.5H397.6c-.1 0-.1 0-.2.1h-.3c-5.8-1-8.7-57 7.9-92.9 12.6-27.3 44-60 44-60s-28-47.5-35.2-85.6"/>
        <path class="st2" d="M1188.8 569.3l454 602.7"/>
        <path class="st2" d="M1188.8 859.3l82 94.2 162.2 186.2 64.1 73.7"/>
        <path class="st2" d="M1270.8 678.8s47.7 149.9 55.9 186.5 20.9 84.2 20.9 84.2l132.1 11.6"/>
        <path class="st2" d="M1270.8 953.5s13.1 44.4 21.3 80.9c8.2 36.5 12.7 94.1 12.7 94.1l128.2 11.3"/>
        <path class="st2" d="M651.3 1200.7h537.5"/>
        <path class="st2" d="M1235 1354.9h43.5"/>
        <path class="st2" d="M1073.6 1354.9h43.5"/>
        <path class="st2" d="M912.2 1354.9h43.5"/>
        <path class="st2" d="M750.8 1354.9h43.5"/>
        <path class="st2" d="M589.4 1354.9h43.5"/>
        <path class="st2" d="M399.6 1470.9H174.9"/>
    </g>
</svg>
