<svg xmlns="http://www.w3.org/2000/svg" viewBox="0 0 1920 1920">
    <style>
        .st0{fill:#fff}.st1,.st2{fill:none;stroke:#231f20;stroke-width:50;stroke-linecap:round;stroke-linejoin:round;stroke-miterlimit:10}.st2{stroke:#000}
    </style>
    <path class="st0" d="M942.7 487.2l278.2 535.7H942.7V487.2zM736.6 942.3h206V545.5l-206 396.8z" id="Layer_2"/>
    <path class="st0" d="M1381.8 1232.4s-33.7 27.9-93.6 58.3l-.5.6c-3.2-2.7-6.3-5.5-9.3-8.5-58.6 58.6-153.7 58.6-212.3 0-58.6 58.6-153.7 58.6-212.3 0-58.6 58.6-153.7 58.6-212.3 0-2.3 2.3-4.6 4.4-6.9 6.5l-.5-.6c-112.7-69.2-130.6-159.2-130.6-159.2h743.6c107.8 0 134.7 23.7 134.7 23.7v79.2z" id="Layer_3"/>
    <g id="STROKES">
        <path class="st1" d="M634.1 1288.7c-112.7-69.2-130.6-159.2-130.6-159.2h743.6c107.8 0 134.7 23.7 134.7 23.7v79.1s-33.7 27.9-93.6 58.3"/>
        <path class="st1" d="M549.7 1208.6h697.5c107.8 0 134.7 23.7 134.7 23.7"/>
        <path class="st1" d="M942.7 1022.9v106.6"/>
        <path class="st1" d="M942.7 545.5v-58.3l278.2 535.7H942.7v-80.6"/>
        <path class="st1" d="M942.7 545.5L736.6 942.3h206.1z"/>
        <path class="st1" d="M1703.1 1282.8c-58.6 58.6-153.7 58.6-212.3 0-55.6 55.6-144.1 58.5-203 8.5-3.2-2.7-6.3-5.5-9.3-8.5-58.6 58.6-153.7 58.6-212.3 0-58.6 58.6-153.7 58.6-212.3 0-58.6 58.6-153.7 58.6-212.3 0-2.3 2.3-4.6 4.4-6.9 6.5-59 52-149 49.8-205.4-6.5-58.6 58.6-153.7 58.6-212.3 0"/>
    </g>
</svg>
