<svg xmlns="http://www.w3.org/2000/svg" viewBox="0 0 1920 1920">
    <style>
        .st0{fill:#fff}.st1,.st2{fill:none;stroke:#231f20;stroke-width:50;stroke-linecap:round;stroke-linejoin:round;stroke-miterlimit:10}.st2{stroke:#000}
    </style>
    <path class="st0" d="M1314.2 1115.3l-121.4 204.6s-174.7-34.2-295.9-23.8h-.4c-121.2 10.6-287.7 74.8-287.7 74.8l-155.1-180.4 860.5-75.2zm-448-170.4L487.8 978l-51.7 214.1s251.3-144.8 437.1-161h.4c185.2-16 456.1 82 458 82.7l-87.9-201.9-377.5 33zM533.7 788.2L487.8 978c3.6-2 213.6-122.4 369.3-136.1h.1c150.5-13.2 368.4 63.1 386.4 69.5L1166 732.9l-632.3 55.3zm61.2-253.6l-61.2 253.5c5-2.9 177.7-103.4 308.7-114.8 128.3-11.2 310.8 54.7 323.4 59.3l-103.9-238.8-467 40.8zM986 319.4l-173.2 15.2-173.2 15.2L595 534.6c2.8-2 130.8-91.5 226.6-99.9 94.3-8.2 232.9 55.4 240.3 58.9L986 319.4z" id="Layer_6"/>
    <path class="st0" d="M923 1594.2L911 1457c.7-.1 1.3-.1 2-.2 35.8-3.1 72.3-2.9 104.8-1.2l.1-1.3-6.9-78.4v-.7c65.3 3.1 115.7 12 115.7 12s25.2 123.7-42.8 206.5-147 108.9-147 108.9v.4h-4.4l-9.5-108.8zm88-219c-32.8-1.6-69.3-1.7-105 1.4-.7.1-1.3.1-2 .2l7 80.2c.7-.1 1.3-.1 2-.2 35.8-3.1 72.3-2.9 104.8-1.2l.1-1.3-6.9-78.4v-.7zm-208.7 18.2l.2.7 6.9 78.4.3 1.2c31.1-7.2 66.3-13.7 101.4-16.8l-7-80.2c-35.2 3.3-70.4 9.6-101.8 16.7zm108.7 63.5c-35.1 3.2-70.3 9.7-101.4 16.8l-.3-1.2-6.9-78.4-.2-.7c-63.8 14.4-111.9 31.9-111.9 31.9s-3.4 126.2 78 195.9c78.8 67.6 158.5 81 163.4 81.7h.7l-9.5-108.8-11.9-137.2z" id="Layer_7"/>
    <g id="STROKES">
        <path class="st2" d="M607.8 352.5l31.7-2.8 173.3-15.1L986 319.4l31.8-2.8"/>
        <path class="st2" d="M1062.1 493.7s-.1 0-.3-.1c-7.4-3.4-145.9-67.1-240.3-58.9-95.9 8.4-223.8 97.9-226.6 99.9"/>
        <path class="st2" d="M436.1 1192.1L487.8 978l45.9-189.8v-.1l61.2-253.5 44.6-184.9"/>
        <path class="st2" d="M812.8 334.6l-10.3-117.7"/>
        <path class="st2" d="M563.1 537.4l31.8-2.8 467-40.9h.2l31.8-2.8"/>
        <path class="st2" d="M1166.5 732.8c-.1 0-.3-.1-.7-.2-12.6-4.6-195.1-70.5-323.4-59.3-131 11.5-303.8 111.9-308.7 114.8-.1 0-.1.1-.1.1"/>
        <path class="st2" d="M1331.7 1113.8l-87.8-202-.3-.5-77.6-178.4-.2-.3-103.9-238.9-.1-.1L986 319.4"/>
        <path class="st2" d="M501.8 791l31.8-2.8h.1l632.3-55.3.5-.1 35.8-3.1"/>
        <path class="st2" d="M1244.8 911.8s-.4-.2-1.2-.4c-17.9-6.4-235.8-82.6-386.4-69.5h-.1c-155.7 13.7-365.8 134-369.3 136.1"/>
        <path class="st2" d="M1331.7 1113.8c-2-.7-272.9-98.7-458-82.7h-.4c-185.8 16.2-437.1 161-437.1 161"/>
        <path class="st2" d="M1314.2 1115.3l-121.4 204.6s-174.7-34.2-295.9-23.8h-.4c-121.2 10.6-287.7 74.8-287.7 74.8l-155.1-180.4"/>
        <path class="st2" d="M460 980.4l27.8-2.4 378.4-33.1 377.7-33.1 28.7-2.5"/>
        <path class="st2" d="M827.8 506.2l-6.3-71.5"/>
        <path class="st2" d="M848.7 744.8l-6.3-71.5"/>
        <path class="st2" d="M866.2 944.9l-9-103"/>
        <path class="st2" d="M404.3 1194.9l31.8-2.8 17.6-1.5 860.5-75.3 17.5-1.5 31.8-2.8"/>
        <path class="st2" d="M937 1702.6s78.9-26.1 147-108.9c68-82.8 42.8-206.5 42.8-206.5s-50.4-8.8-115.7-12c-32.8-1.6-69.3-1.7-105 1.4-.7.1-1.3.1-2 .2-35.1 3.2-70.3 9.6-101.7 16.7-63.8 14.4-111.9 31.9-111.9 31.9s-3.4 126.2 78 195.9c78.8 67.6 158.5 81 163.4 81.7h.2"/>
        <path class="st2" d="M1125.8 1467s-46.8-8.2-108.1-11.4c-32.5-1.7-69-1.9-104.8 1.2-.7.1-1.3.1-2 .2-35.1 3.2-70.3 9.7-101.4 16.8-59.8 13.8-104.5 30-104.5 30"/>
        <path class="st2" d="M1064.7 1610.1s-67.4-22.4-139.7-16c-.7.1-1.3.1-2 .2-71.5 6.8-132.8 40.6-132.8 40.6"/>
        <path class="st2" d="M882.7 1134.1l-9-103"/>
        <path class="st2" d="M932.5 1703l-9.5-108.8-12-137.3-7-80.1-7.1-80.7"/>
        <path class="st2" d="M809.3 1472.5l-6.8-78.4"/>
        <path class="st2" d="M1017.8 1454.3l-6.9-78.4"/>
        <path class="st2" d="M1220.5 1703h-576"/>
    </g>
</svg>
