<svg xmlns="http://www.w3.org/2000/svg" viewBox="0 0 1920 1920">
    <style>
        .st0{fill:#fff}.st1{fill:none;stroke:#231f20;stroke-width:50;stroke-linecap:round;stroke-linejoin:round;stroke-miterlimit:10}
    </style>
    <path class="st0" d="M1611.5 1448.3v128.9h-1287v-128.9h1287zM932.4 828.2H324.5v136.5h1287V828.2H932.4z" id="Layer_4"/>
    <path class="st0" d="M938.6 578.8c51.5 0 93.2 41.7 93.2 93.2s-41.7 93.2-93.2 93.2-93.2-41.7-93.2-93.2 41.8-93.2 93.2-93.2z" id="Layer_5"/>
    <g id="STROKES">
        <path class="st1" d="M324.5 1448.3h1287v128.9h-1287z"/>
        <path class="st1" d="M617.2 964.7H324.5V828.2h1287v136.5h-43.1"/>
        <path class="st1" d="M1166.6 964.7H770.1"/>
        <path class="st1" d="M1527.6 964.7h-174.2"/>
        <path class="st1" d="M647.7 881.9l-6 10.4"/>
        <path class="st1" d="M891.8 842.4l-6 10.4"/>
        <path class="st1" d="M1445 872.7l-6 10.3"/>
        <path class="st1" d="M1457.7 1538.7l-6 10.3"/>
        <path class="st1" d="M420.1 1471.4l-6 10.3"/>
        <path class="st1" d="M1080.9 1461.1l-6 10.3"/>
        <path class="st1" d="M661.8 1511.8l-6 10.4"/>
        <path class="st1" d="M1649.4 1375.9H286.7"/>
        <path class="st1" d="M1649.4 1295.9H286.7"/>
        <path class="st1" d="M1649.4 1215.9H286.7"/>
        <path class="st1" d="M499.2 1135.9H286.7"/>
        <path class="st1" d="M732 1135.9H630.9"/>
        <path class="st1" d="M1093.2 1135.9H828.5"/>
        <path class="st1" d="M1649.4 1135.9h-429.2"/>
        <path class="st1" d="M1696 1036.2l-127.6-71.5h-40.8l-46.3 82.7-42.3 18.8-17.8 69.7-110.6-56.5 42.8-114.7h-186.8l80.5 62-121.3 1.9 94.4 107.3h-127l32.6-107.3L857 1135.9l206.6-171.2-129.9 33.4-60.1-33.4v101.5H767l61.5 69.7H732l-44.7-57.8 82.8-113.4H617.2l24.5 71.5H550l80.9 99.7H499.2l-59.5-75.9-73.2-93.4-48 169.3-50-94.1h-51.6"/>
        <path class="st1" d="M1439 1066.2l-85.6-101.5"/>
        <path class="st1" d="M1310.6 1079.4l-63.5-52.7"/>
        <path class="st1" d="M1621 1135.9l-52.6-171.2"/>
        <path class="st1" d="M550 1036.2L439.7 1060"/>
        <path class="st1" d="M318.5 1135.9l121.2-75.9"/>
        <path class="st1" d="M1568.4 1135.9l-87.1-88.5"/>
        <path class="st1" d="M494.9 964.7l-55.2 95.3"/>
        <path class="st1" d="M845.4 672c0-51.5 41.7-93.2 93.2-93.2s93.2 41.7 93.2 93.2-41.7 93.2-93.2 93.2c-51.4.1-93.2-41.7-93.2-93.2z"/>
        <path class="st1" d="M932.4 765.3v62.9"/>
        <path class="st1" d="M932.4 481.4l43.7-26.6"/>
        <path class="st1" d="M888.8 454.6l43.6 28.2"/>
        <path class="st1" d="M932.4 406.8v172"/>
    </g>
</svg>
