<svg xmlns="http://www.w3.org/2000/svg" viewBox="0 0 1920 1920">
    <style>
        .st0{fill:#fff}.st1{fill:none;stroke:#231f20;stroke-width:50;stroke-linecap:round;stroke-linejoin:round;stroke-miterlimit:10}
    </style>
    <path class="st0" d="M609 333.5c4.3-.8 8.6-1.5 12.9-2.2 91.9-15.3 204.2-23 339.8-23 18.3 0 36.2.1 53.6.4 19.3.3 38 .8 56.3 1.5 135.8 4.8 244.1 19.1 328.7 42.6 34.8 9.7 65.5 20.9 92.6 33.7 36.5 17.3 66.2 37.4 89.7 60.2 43 41.9 65.5 93.1 71.6 153.4 1.2 11.4 1.7 23.1 1.7 35.2 0 36.1-3.8 67.2-9.7 93.9-22.2 99.4-74.8 136.3-74.8 136.3s84.5 32.2 84.5 251.2c0 109.5.7 470.2.7 470.2H267.4v-470.1c0-219 84.5-251.2 84.5-251.2s-41.9-29.4-66.7-106.4c-10.4-32.4-17.9-73.2-17.9-123.8 0-94.2 34.1-168.4 115.3-222.2 53.8-35.5 127.9-62.1 226.4-79.7z" id="Layer_2"/>
    <g id="Layer_3">
        <path class="st0" d="M488.2 261L609 333.5c-98.4 17.5-172.6 44.1-226.2 79.6l-.4-.6L488.2 261z"/>
        <path class="st0" d="M1015.3 308.3v.4c-17.5-.3-35.3-.4-53.6-.4-135.6 0-247.9 7.7-339.8 23l32.8-43.2 63 21.6 69.5-86.7 228.1 85.3z"/>
        <path class="st0" d="M1173.1 222.9l227.2 129.9c-84.6-23.5-192.8-37.8-328.7-42.6l.1-1.9 101.4-85.4z"/>
        <path class="st0" d="M1355.2 1587l-256.5 88.9-72-88.9z"/>
        <path class="st0" d="M787.2 1587l-191.8 93.7-128.1-93.7z"/>
        <path class="st0" d="M285.3 759.2c24.8 76.9 66.7 106.4 66.7 106.4s-84.5 32.2-84.5 251.2l-26.6-225.5 44.4-132.1z"/>
    </g>
    <g id="STROKES">
        <path class="st1" d="M1400.3 352.8c-84.6-23.5-192.8-37.8-328.7-42.6-18.3-.7-37-1.1-56.3-1.5-17.5-.3-35.3-.4-53.6-.4-135.6 0-247.9 7.7-339.8 23-4.4.7-8.7 1.5-12.9 2.2-98.4 17.5-172.6 44.1-226.2 79.6-81.3 53.9-115.4 128.2-115.4 222.3 0 50.6 7.4 91.4 17.9 123.8 24.8 76.9 66.7 106.4 66.7 106.4s-84.5 32.2-84.5 251.2v470.1h1389.1s-.7-360.6-.7-470.2c0-219-84.5-251.2-84.5-251.2s52.6-37 74.8-136.3c6-26.6 9.7-57.8 9.7-93.9 0-12.1-.6-23.8-1.7-35.2-6.1-60.4-28.6-111.6-71.6-153.4-23.5-22.9-53.2-43-89.7-60.2"/>
        <path class="st1" d="M1492.9 386.5c-27-12.8-57.8-24-92.6-33.7"/>
        <path class="st1" d="M467.3 609.4l-12.8 22"/>
        <path class="st1" d="M826.5 1164.1l-12.8 22"/>
        <path class="st1" d="M989.2 425.8l-12.8 22"/>
        <path class="st1" d="M460.9 1368.2l-12.8 22"/>
        <path class="st1" d="M1445.7 1008.3l-12.9 21.9"/>
        <path class="st1" d="M1458.5 1415l-12.8 22"/>
        <path class="st1" d="M787.2 1437l-12.8 21.9"/>
        <path class="st1" d="M984 737.7l-12.8 22"/>
        <path class="st1" d="M517.8 1091.7l-12.8 22"/>
        <path class="st1" d="M1015.3 1019.2l-12.8 22"/>
        <path class="st1" d="M1234.1 515.2l-12.8 22"/>
        <path class="st1" d="M740.9 524.5l-12.8 22"/>
        <path class="st1" d="M1155.1 1279.5l-12.8 22"/>
        <path class="st1" d="M1413.1 656.5l-12.8 21.9"/>
        <path class="st1" d="M1206.7 914l-12.8 22"/>
        <path class="st1" d="M582.4 839.2l-12.8 21.9"/>
        <path class="st1" d="M382.4 412.6L488.2 261 609 333.5v.1"/>
        <path class="st1" d="M787.2 1587l-191.8 93.7-128.1-93.7"/>
        <path class="st1" d="M267.4 1116.8l-26.6-225.5 44.5-132.1"/>
        <path class="st1" d="M1655.9 600l39.8 31.4-49.5 97.9"/>
        <path class="st1" d="M1655.9 1102.7l47.2 61.4-39.1 67.1"/>
        <path class="st1" d="M621.9 331.3l32.8-43.2 63 21.5"/>
        <path class="st1" d="M1355.2 1587l-256.5 88.9-72-88.9"/>
        <path class="st1" d="M1492.9 386.5l55.3-8.2 34.4 68.5"/>
        <path class="st1" d="M939.7 1587l-93.4 52.7-32.6-52.7"/>
        <path class="st1" d="M1539.1 1587l-35.4 52.7-90.6-52.7"/>
        <path class="st1" d="M1071.7 308.3l101.4-85.4 227.2 129.9"/>
        <path class="st1" d="M717.7 309.6l69.5-86.7 228.1 85.4"/>
        <path class="st1" d="M267.4 1390.2l-50.5-43.1 50.5-56.5"/>
    </g>
</svg>
