<svg xmlns="http://www.w3.org/2000/svg" viewBox="0 0 1920 1920">
    <style>
        .st0{fill:#fff}.st1{fill:none;stroke:#231f20;stroke-width:50;stroke-linecap:round;stroke-linejoin:round;stroke-miterlimit:10}
    </style>
    <path class="st0" d="M623.6 773.7h-53.7c-20 0-36.2 16.2-36.2 36.2 0-20-16.2-36.2-36.2-36.2h-53.7c-20 0-36.2 16.2-36.2 36.2 0-20-16.2-36.2-36.2-36.2h-53.7c-20 0-36.2 16.2-36.2 36.2v426.4c0 20 16.2 36.2 36.2 36.2h53.7c20 0 36.2-16.2 36.2-36.2 0 20 16.2 36.2 36.2 36.2h53.7c20 0 36.2-16.2 36.2-36.2 0 20 16.2 36.2 36.2 36.2h53.7c20 0 36.2-16.2 36.2-36.2V809.9c0-20-16.2-36.2-36.2-36.2z" id="Layer_8"/>
    <path class="st0" d="M1602.2 773.7h-53.7c-20 0-36.2 16.2-36.2 36.2 0-20-16.2-36.2-36.2-36.2h-53.7c-20 0-36.2 16.2-36.2 36.2 0-20-16.2-36.2-36.2-36.2h-53.7c-20 0-36.2 16.2-36.2 36.2v426.4c0 20 16.2 36.2 36.2 36.2h53.7c20 0 36.2-16.2 36.2-36.2 0 20 16.2 36.2 36.2 36.2h53.7c20 0 36.2-16.2 36.2-36.2 0 20 16.2 36.2 36.2 36.2h53.7c20 0 36.2-16.2 36.2-36.2V809.9c0-20-16.2-36.2-36.2-36.2z" id="Layer_18"/>
    <path class="st0" d="M1032.3 432.8c0 39.9-32.4 72.3-72.3 72.3s-72.3-32.4-72.3-72.3 32.4-72.3 72.3-72.3 72.3 32.4 72.3 72.3z" id="Layer_9"/>
    <path class="st0" d="M751.8 636h416.4v73.5H751.8z" id="Layer_10"/>
    <path class="st0" d="M1168.2 709.5c0 97.3-93.2 176.3-208.2 176.3-115 0-208.2-78.9-208.2-176.3h416.4z" id="Layer_11"/>
    <path class="st0" d="M1119.5 885.8v255.9h-319V885.8h319z" id="Layer_12"/>
    <path class="st0" d="M800.5 1141.8h319.1v97.5H800.5z" id="Layer_13"/>
    <g id="STROKES">
        <path class="st1" d="M1168.2 709.6c0 97.3-93.2 176.3-208.2 176.3S751.8 807 751.8 709.6h416.4z"/>
        <path class="st1" d="M751.8 636h416.4v73.5H751.8z"/>
        <path class="st1" d="M960 636V505.1"/>
        <circle class="st1" cx="960" cy="432.8" r="72.3"/>
        <path class="st1" d="M800.5 885.8h319.1v353.4H800.5z"/>
        <path class="st1" d="M800.5 1141.8h319"/>
        <path class="st1" d="M569.9 1272.4h53.7c20 0 36.2-16.2 36.2-36.2V809.9c0-20-16.2-36.2-36.2-36.2h-53.7c-20 0-36.2 16.2-36.2 36.2v426.4c0 19.9 16.2 36.1 36.2 36.1z"/>
        <path class="st1" d="M443.9 1272.4h53.7c20 0 36.2-16.2 36.2-36.2V809.9c0-20-16.2-36.2-36.2-36.2h-53.7c-20 0-36.2 16.2-36.2 36.2v426.4c0 19.9 16.2 36.1 36.2 36.1z"/>
        <path class="st1" d="M317.8 1272.4h53.7c20 0 36.2-16.2 36.2-36.2V809.9c0-20-16.2-36.2-36.2-36.2h-53.7c-20 0-36.2 16.2-36.2 36.2v426.4c0 19.9 16.2 36.1 36.2 36.1z"/>
        <path class="st1" d="M226.1 1023.1h574.4"/>
        <path class="st1" d="M1350.1 1272.4h-53.7c-20 0-36.2-16.2-36.2-36.2V809.9c0-20 16.2-36.2 36.2-36.2h53.7c20 0 36.2 16.2 36.2 36.2v426.4c0 19.9-16.2 36.1-36.2 36.1z"/>
        <path class="st1" d="M1476.1 1272.4h-53.7c-20 0-36.2-16.2-36.2-36.2V809.9c0-20 16.2-36.2 36.2-36.2h53.7c20 0 36.2 16.2 36.2 36.2v426.4c0 19.9-16.2 36.1-36.2 36.1z"/>
        <path class="st1" d="M1602.2 1272.4h-53.7c-20 0-36.2-16.2-36.2-36.2V809.9c0-20 16.2-36.2 36.2-36.2h53.7c20 0 36.2 16.2 36.2 36.2v426.4c0 19.9-16.2 36.1-36.2 36.1z"/>
        <path class="st1" d="M1693.9 1023.1h-574.4"/>
        <path class="st1" d="M1168.2 709.6H751.8h416.4z"/>
    </g>
</svg>
