<svg xmlns="http://www.w3.org/2000/svg" viewBox="0 0 1920 1920">
    <style>
        .st0{fill:#fff}.st1{fill:none;stroke:#000;stroke-width:50;stroke-linecap:round;stroke-linejoin:round;stroke-miterlimit:10}
    </style>
    <path class="st0" d="M1678.1 934.3v100h-100V529.8c0-27.6 22.4-50 50-50s50 22.4 50 50v404.5zM342 529.8c0-27.6-22.4-50-50-50s-50 22.4-50 50V1031h100V529.8z" id="Layer_10"/>
    <path class="st0" d="M1703.1 934.3v212.5l-60.9-3.5 25.5 18.3-60.1-4.7 21.9 18.8-59-6 18.2 19.2-57.8-7.1 14.5 19.6-56.2-8.3 10.7 19.8-54.6-9.5 6.8 20-52.6-10.5 3 20.1-50.6-11.6-.8 20.1-48.2-12.6-4.8 20-45.7-13.5-8.6 19.9-42.9-14.5-12.5 19.7-40.1-15.3-16.2 19.4-37-16.1-20 19.1-33.9-16.9-23.5 18.6-30.6-17.4-27.1 18-27.1-18-30.6 17.4-23.5-18.6-33.9 16.9-20-19.1-37 16.1-16.2-19.4-40.1 15.3-12.5-19.7-42.9 14.5-8.7-19.9-45.6 13.5-4.8-20-48.2 12.6-.9-20.1-50.5 11.6 3-20.1-52.6 10.5 6.8-20-54.6 9.5 10.7-19.8-56.3 8.3 14.5-19.6-57.7 7.1 18.2-19.2-59 6 21.9-18.8-60.1 4.7 25.5-18.3-60.9 3.5V934.3h25v96.7H342v-96.7h1236.1v100h100v-100z" id="Layer_11"/>
    <g id="STROKES">
        <path class="st1" d="M1678.1 934.3h25v212.5l-60.9-3.5 25.5 18.3-60.1-4.7 21.9 18.8-59-6 18.2 19.2-57.8-7.1 14.5 19.5-56.2-8.2 10.7 19.7-54.6-9.4 6.8 20-52.6-10.5 3 20.1-50.6-11.6-.8 20.1-48.2-12.6-4.8 20-45.7-13.5-8.6 19.9-42.9-14.5-12.5 19.7-40.1-15.3-16.2 19.4-37-16.1-20 19.1-33.9-16.9-23.5 18.6-30.6-17.5-27.1 18.1-27.1-18.1-30.6 17.5-23.5-18.6-33.9 16.9-20-19.1-37 16.1-16.2-19.4-40.1 15.3-12.5-19.7-42.9 14.5-8.7-19.9-45.6 13.5-4.8-20-48.2 12.6-.9-20.1-50.5 11.6 3-20.1-52.6 10.5 6.8-20-54.6 9.4 10.7-19.7-56.3 8.2 14.5-19.5-57.7 7.1 18.2-19.2-59 6 21.9-18.8-60.1 4.7 25.5-18.3-60.9 3.5V934.3h25"/>
        <path class="st1" d="M342 934.3h1236.1"/>
        <path class="st1" d="M342 934.3v96.7H242V529.8c0-27.6 22.4-50 50-50s50 22.4 50 50v404.5z"/>
        <path class="st1" d="M1678.1 934.3v100h-100V529.8c0-27.6 22.4-50 50-50s50 22.4 50 50v404.5z"/>
        <path class="st1" d="M808 1031h304"/>
        <path class="st1" d="M919.5 1102.1h81"/>
    </g>
</svg>
