<svg xmlns="http://www.w3.org/2000/svg" viewBox="0 0 1920 1920">
    <style>
        .st0{fill:#fff}.st1{fill:none;stroke:#000;stroke-width:50;stroke-linecap:round;stroke-linejoin:round;stroke-miterlimit:10}
    </style>
    <path class="st0" d="M609.7 987.3L721 1180.1l-76.9 287.2c-1.5 5.5-3.7 10.8-6.5 15.7-2.8 4.9-6.3 9.4-10.3 13.5-8.1 8.1-18.1 13.9-29.1 16.8l-198.8 53.3-91-339.7-91.3-52.7 375.4-216.8 17.2 29.9zm9.1 223.1l-65.9-114.2-132.6 76.6 72.4 270.1 68.8-18.4 57.3-214.1z" id="Layer_2"/>
    <path class="st0" d="M1703.1 461.2v36.5h-36.5v36.5H1630v36.5h-36.5v36.5H1557v36.5h-36.5v36.5H1484v36.5h-36.5v36.5H1411V790h-36.5v36.5H1338V863h-36.5v36.5H1265V936h-36.5v36.5H1192v36.5h-36.5v36.5H1119v36.5h-37v36.5h-36.5v36.5H1009v36.5h-36.5v36.5H936v36.5h-36.5v36.5H863v36.5h-36.5v36.5H790v36.5h-36.5v36.5H717v36.5h-77.2l-2-1.1c2.8-4.9 5-10.2 6.5-15.7l76.9-287.2-111.5-192.2 1026.7-592.8 66.7 66.7z" id="Layer_3"/>
    <g id="STROKES">
        <path class="st1" d="M609.7 987.3l1026.7-592.7 66.7 66.6v36.6h-36.6v36.5H1630v36.5h-36.5v36.5h-36.6v36.6h-36.5v36.5h-36.5v36.5h-36.6v36.6h-36.5V790h-36.5v36.5h-36.5V863h-36.6v36.6h-36.5v36.5h-36.5v36.5h-36.6v36.6h-36.5v36.5h-36.5v36.5H1082v36.6h-36.5v36.5H1009v36.5h-36.5v36.5h-36.6v36.6h-36.5v36.5h-36.5v36.5h-36.6v36.6h-36.5v36.5h-36.5v36.5h-36.6v36.6h-77.1"/>
        <path class="st1" d="M609.7 987.3l-17.3-30L217 1174.1l91.3 52.7 91 339.7 198.8-53.3c11-3 21.1-8.8 29.1-16.8 4-4 7.5-8.6 10.3-13.5 2.8-4.9 5-10.2 6.5-15.7l76.9-287.2-111.2-192.7z"/>
        <path class="st1" d="M561.5 1424.5l57.3-214.1-65.9-114.1-132.6 76.6 72.3 270.1z"/>
        <path class="st1" d="M1472.3 595.8l36.5-36.6"/>
    </g>
</svg>
