<svg xmlns="http://www.w3.org/2000/svg" viewBox="0 0 1920 1920">
    <style>
        .st0{fill:#fff}.st1{fill:#ff5252}.st2{fill:none;stroke:#000;stroke-width:50;stroke-linecap:round;stroke-linejoin:round;stroke-miterlimit:10}
    </style>
    <path class="st0" d="M864.7 226.4c87.9 4.2 101.6 138.3 103.3 232.2.6 35.4-.4 65 .1 80 .9 24.2 1 198.8.8 390.2-.2 240.3-.8 507.2-.8 536.5 0 39.8 13.3 67.3 35 78.4-19.2 7.8-32.8 26.6-32.8 48.7 0 29 23.5 52.4 52.5 52.4s52.4-23.5 52.4-52.4c0-24.2-16.4-44.7-38.8-50.7 4.3-7.8 7.3-21.3 9.3-39.2 5.3 23.4 26.2 40.8 51.2 40.8 29 0 52.4-23.5 52.4-52.5s-23.5-52.5-52.4-52.5c-22.1 0-41 13.6-48.7 33 1.6-31.9 1.7-71.6 1.1-115 4.6 24.2 25.9 42.6 51.5 42.6 29 0 52.5-23.5 52.5-52.5s-23.5-52.5-52.5-52.5c-26.1 0-47.8 19.1-51.8 44.1-1-61.2-2.8-128.3-2.8-190.8 0-175.8 89.8-294.6 89.8-294.6-21.5-35.1-3.9-52.7-3.9-52.7 214.6 136.6 185.3 214.6 185.3 214.6-38.1-36.7-122.1-5.4-146 127-8-4.9-17.4-7.7-27.4-7.7-29 0-52.5 23.5-52.5 52.5s23.5 52.5 52.5 52.5c7 0 13.7-1.4 19.8-3.9.9 30.2 6.6 73.3 13.1 109.5 50.7 282.9-44.9 359-161.9 359-67.5 0-107.8-45.4-129.7-115.7-9-28.8-15-61.7-18.5-97.4-2.8-28.3-4-58.3-4-89.3 0-57 12.7-222.1 21.5-401 16-6.2 27.3-21.8 27.3-40 0-18-11.1-33.5-26.9-39.8v-.1c1.3-29 2.8-44.1 4-73.5 21.7-2.2 38.5-20.5 38.5-42.7 0-21.4-15.7-39.2-36.3-42.4.9-23.6 2-38.8 2.8-62 19.2-4.3 33.5-21.4 33.5-41.9s-14.4-37.6-33.5-41.9c4.8-215.2 1.9-381.2-29-389.3zm279.2 907.5c-29 0-52.5 23.5-52.5 52.5s23.5 52.5 52.5 52.5c7 0 13.7-1.4 19.8-3.9 19.1-7.8 32.6-26.6 32.6-48.6 0-18.9-10-35.5-25.1-44.7-7.8-5-17.2-7.8-27.3-7.8zm-43.1 160.2c29 0 52.5 23.5 52.5 52.5s-23.5 52.5-52.5 52.5c-25.6 0-46.9-18.3-51.5-42.6-.1-6-.2-12.1-.3-18.3 4-25 25.7-44.1 51.8-44.1zm-3.9 144.4c29 0 52.4 23.5 52.4 52.5s-23.5 52.5-52.4 52.5c-25 0-45.9-17.4-51.2-40.8 1.1-9.3 1.8-19.7 2.5-31.1 7.7-19.5 26.6-33.1 48.7-33.1zm-60.5 103.2c22.3 6 38.8 26.4 38.8 50.7 0 29-23.5 52.4-52.4 52.4s-52.5-23.5-52.5-52.4c0-22 13.6-40.9 32.8-48.7 7 3.6 14.9 5.5 23.6 5.5 3.8 0 7-2.6 9.7-7.5zm-5.8-1083.1l1.9 470.2h-63.6c.2-191.4.1-366-.8-390.2-.5-14.9.5-44.6-.1-80h62.6zm-137 157.1c19.2 4.3 33.5 21.4 33.5 41.9s-14.4 37.6-33.5 41.9c-3 .7-6.2 1-9.4 1-23.7 0-42.9-19.2-42.9-42.9s19.2-42.9 42.9-42.9c3.2 0 6.4.3 9.4 1zm-2.8 145.8c20.6 3.2 36.3 21 36.3 42.4 0 22.2-16.9 40.5-38.5 42.7-1.4.1-2.9.2-4.4.2-23.7 0-42.9-19.2-42.9-42.9s19.2-42.9 42.9-42.9c2.3 0 4.5.2 6.6.5zm-6.2 158.7c15.8 6.3 26.9 21.8 26.9 39.8 0 18.2-11.3 33.8-27.3 40-4.8 1.9-10.1 2.9-15.6 2.9-23.7 0-42.9-19.2-42.9-42.9s19.2-42.9 42.9-42.9c5.7 0 11.1 1.1 16 3.1zm.6 667.5l-73.2 16.2-19.5-97.6 74.2-16c3.5 35.7 9.5 68.6 18.5 97.4z" id="Layer_3"/>
    <g id="STROKES">
        <path class="st2" d="M1171.3 1141.6c23.9-132.3 107.9-163.6 146-127 0 0 29.3-78-185.3-214.6 0 0-17.6 17.6 3.9 52.7 0 0-89.8 118.8-89.8 294.6 0 62.5 1.8 129.7 2.8 190.8.1 6.2.2 12.3.3 18.3.6 43.4.5 83.1-1.1 115-.6 11.4-1.4 21.9-2.5 31.1-2 17.9-5 31.4-9.3 39.2-2.7 4.9-5.9 7.5-9.8 7.5-8.6 0-16.5-1.9-23.6-5.5-21.6-11.1-35-38.7-35-78.4 0-29.3.6-296.2.8-536.5.2-191.4.1-366-.8-390.2-.5-14.9.5-44.6-.1-80-1.7-93.9-15.4-227.9-103.3-232.2"/>
        <path class="st2" d="M884.2 1000c-8.8 178.8-21.5 343.9-21.5 401 0 31 1.2 61 4 89.3 3.5 35.7 9.4 68.7 18.5 97.4 22 70.2 62.2 115.7 129.7 115.7 117.1 0 212.7-76.1 161.9-359-6.5-36.2-12.2-79.3-13.1-109.5"/>
        <path class="st2" d="M888.6 846.6c-1.2 29.4-2.6 44.4-4 73.5"/>
        <path class="st2" d="M893.6 699.5c-.7 23.2-1.9 38.5-2.8 62"/>
        <path class="st2" d="M601.3 216.6s27.3 37.1 91.7 37.1 97.6-46.8 171.7-27.3c30.9 8.1 33.8 174.1 28.9 389.3"/>
        <path class="st2" d="M1163.8 1234.9c-6.1 2.5-12.8 3.9-19.8 3.9-29 0-52.5-23.5-52.5-52.5s23.5-52.5 52.5-52.5c10 0 19.4 2.8 27.4 7.7 15 9.2 25.1 25.8 25.1 44.7-.1 22.1-13.6 40.9-32.7 48.7z"/>
        <path class="st2" d="M1049 1338.1c4-25 25.7-44.1 51.8-44.1 29 0 52.5 23.5 52.5 52.5s-23.5 52.5-52.5 52.5c-25.6 0-46.9-18.3-51.5-42.6-.6-3.2-.9-6.5-.9-9.9-.1-2.8.2-5.6.6-8.4z"/>
        <path class="st2" d="M1048.2 1471.4c7.7-19.3 26.6-33 48.7-33 29 0 52.4 23.5 52.4 52.5s-23.5 52.5-52.4 52.5c-25 0-45.9-17.4-51.2-40.8-.8-3.7-1.3-7.6-1.3-11.6 0-7 1.4-13.6 3.8-19.6z"/>
        <path class="st2" d="M1036.4 1541.7c22.3 6 38.8 26.4 38.8 50.7 0 29-23.5 52.4-52.4 52.4s-52.5-23.5-52.5-52.4c0-22 13.6-40.9 32.8-48.7"/>
        <path class="st2" d="M969.1 458.6h61.5l1.9 470.2h-62.4"/>
        <path class="st2" d="M798.4 1227.3s0-58.5 25.4-68.3c25.4-9.8 48.8-39 48.8-39"/>
        <path class="st2" d="M866.7 1490.3l-74.2 16 19.5 97.6 73.2-16.2"/>
        <path class="st2" d="M888.6 846.6c-1.4.1-2.9.2-4.4.2-23.7 0-42.9-19.2-42.9-42.9s19.2-42.9 42.9-42.9c2.2 0 4.5.2 6.6.5 20.6 3.2 36.3 21 36.3 42.4 0 22.2-16.9 40.5-38.5 42.7z"/>
        <path class="st2" d="M884.2 1000c-4.8 1.9-10.1 2.9-15.6 2.9-23.7 0-42.9-19.2-42.9-42.9s19.2-42.9 42.9-42.9c5.7 0 11.1 1.1 16 3.1 15.8 6.3 26.9 21.8 26.9 39.8 0 18.2-11.3 33.8-27.3 40z"/>
        <path class="st2" d="M893.6 699.5c-3 .7-6.2 1-9.4 1-23.7 0-42.9-19.2-42.9-42.9s19.2-42.9 42.9-42.9c3.2 0 6.4.4 9.4 1 19.2 4.3 33.5 21.4 33.5 41.9s-14.3 37.6-33.5 41.9z"/>
    </g>
</svg>
