<svg xmlns="http://www.w3.org/2000/svg" viewBox="0 0 1920 1920">
    <style>
        .st0{fill:#fff}.st1{fill:#ff5252}.st2{fill:none;stroke:#000;stroke-width:50;stroke-linecap:round;stroke-linejoin:round;stroke-miterlimit:10}
    </style>
    <path class="st0" d="M402.6 691.8l36.5 62.3-154.2 90.3 14-91.8z" id="Layer_4"/>
    <path class="st0" d="M1335.8 1182.8c22.1-13 29.5-41.4 16.6-63.5-13-22.1-41.4-29.5-63.5-16.6-1.8 1.1-3.5 2.2-5.1 3.4l-46.3-80.9c-14.6-24.9-28.1-48.9-40.4-72l.2-.1c66.3 34.9 129-41.7 129-41.7 38.8 80.6 156.9 323.8 244.5 503.9l-.9.4c-.5-1-1-1.9-1.5-2.8-13-22.1-41.4-29.5-63.5-16.6-16.8 9.8-25.1 28.5-22.5 46.6l-64.1-113.1c10.8 2.1 22.3.5 32.5-5.5 22.1-12.9 29.5-41.4 16.6-63.5-13-22.1-41.4-29.5-63.5-16.6-11 6.4-18.3 16.7-21.4 28.1l-51.2-87.5c1.5-.3 3-1.1 4.5-2zm241.1 428.5c.6 1 1.1 1.9 1.6 2.9.2.3.3.6.4.9.1.1.1.2.1.3.1.1.1.3.2.4 0 0 0 .1.1.1.1.2.2.5.3.7.2.4.3.8.5 1.2.1.1.1.3.2.4.2.5.4 1.1.6 1.6 0 .1.1.3.1.4.2.4.3.8.4 1.3 0 .1.1.2.1.3.1.2.1.4.2.6.1.4.2.9.4 1.3 0 .1 0 .2.1.2.1.4.2.9.3 1.3.1.4.2.8.3 1.3 0 .2.1.3.1.5.2.9.3 1.7.4 2.6.1.7.2 1.4.2 2.1v.8c0 .5.1 1 .1 1.5v.8c0 2.3-.1 4.7-.4 7a48 48 0 0 1-2.1 9.1c-.8 2.3-1.7 4.6-2.9 6.8 0 0 0 .1-.1.1-.2.4-.5.9-.7 1.3-.3.5-.5 1-.8 1.4-.8 1.3-1.7 2.6-2.6 3.9-.3.4-.6.8-1 1.2-3.6 4.5-8 8.4-13.3 11.5-22.9 13.4-52.4 5.7-65.8-17.2-13.4-22.9-5.7-52.4 17.2-65.9 22.9-13.3 52.4-5.7 65.8 17.3zM970.2 909.4l-.5-12.5 434.7 741.8c23 39.3 64.4 61.2 106.9 61.2 21.3 0 42.8-5.5 62.5-17 55.8-32.7 77-102.8 48.8-160.9-15-30.9-32.7-67.2-51.8-106.5l-.9.4c10.8 21.7 3.1 48.3-18.1 60.7-18.6 10.9-41.7 7.4-56.3-7.2 4 6.8 5.8 14.7 5.8 21.8 0 12.6-6.1 24.5-18.1 31.5-18.8 11-43 4.7-54.1-14.1l-706.8-1206c-3.2 3.6-6.9 6.8-11.3 9.4-21.7 12.7-49.6 5.4-62.3-16.3-12.7-21.7-5.4-49.6 16.3-62.3-11.4-5.1-29.1-13.4-41.7-13.4-15.2 0-30.6 3.9-44.7 12.2-42.2 24.7-56.3 78.9-31.6 121.1l315.4 538.3c3.8 6.4 5.5 13.5 5.5 20.4 0 13.9-7.2 27.4-20 34.9-16.4 9.6-36.9 6.3-49.5-6.8l-1 .6c11.7 19.9 27.9 35.4 46.5 46.1 56.9 32.3 127.2-11.4 126.3-77.4zm589.5 767.7c5.2-3.1 9.7-7 13.3-11.5.3-.4.7-.8 1-1.2.9-1.2 1.8-2.5 2.6-3.9.3-.5.6-.9.8-1.4.2-.4.5-.9.7-1.3 0-.1 0-.1.1-.1 1.1-2.2 2.1-4.5 2.9-6.8 1-2.9 1.7-6 2.1-9.1.3-2.3.4-4.6.4-7v-.8c0-.5 0-1-.1-1.5v-.8c-.1-.7-.1-1.4-.2-2.1-.1-.9-.2-1.7-.4-2.6 0-.2-.1-.3-.1-.5-.1-.4-.2-.8-.3-1.3-.1-.4-.2-.9-.3-1.3 0-.1 0-.2-.1-.2-.1-.5-.2-.9-.4-1.3-.1-.2-.1-.4-.2-.6 0-.1-.1-.2-.1-.3-.1-.4-.3-.9-.4-1.3 0-.1-.1-.3-.1-.4-.2-.6-.4-1.1-.6-1.6-.1-.2-.1-.3-.2-.4-.2-.4-.3-.8-.5-1.2-.1-.2-.2-.5-.3-.7 0 0 0-.1-.1-.1-.1-.1-.1-.3-.2-.4 0-.1-.1-.2-.1-.3-.1-.3-.3-.6-.4-.9-.5-1-1-2-1.6-2.9-13.4-22.9-42.9-30.6-65.9-17.2-22.9 13.4-30.6 42.9-17.2 65.9 13.5 22.9 43 30.6 65.9 17.1zm-141.4-347c10.8 2.1 22.3.5 32.5-5.5 22.1-12.9 29.5-41.4 16.6-63.5-13-22.1-41.4-29.5-63.5-16.6-11 6.4-18.3 16.7-21.4 28.1-3.1 11.5-1.7 24.3 4.8 35.4 7 11.9 18.4 19.6 31 22.1zm70 129.9c2 3.5 4.5 6.6 7.2 9.3 14.6 14.6 37.7 18.1 56.3 7.2 21.2-12.4 28.9-39 18.1-60.7-.5-1-1-1.9-1.5-2.8-13-22.1-41.4-29.5-63.5-16.6-16.8 9.8-25.1 28.5-22.5 46.6.8 5.9 2.8 11.7 5.9 17zm-204.5-353.8c-18.1 14.1-23.4 39.7-11.5 60.1 12.1 20.6 37.6 28.4 58.9 18.9 1.6-.7 3.1-1.5 4.6-2.4 22.1-13 29.5-41.4 16.6-63.5-13-22.1-41.4-29.5-63.5-16.6-1.8 1.1-3.5 2.3-5.1 3.5zM1070.6 635c8 49.2 41.8 160.6 126.5 318.3l.2-.1c66.3 34.9 129-41.7 129-41.7-64.3-133.6-61.8-210.8-51.3-250.8 10.4-40 71.2-75.6 71.2-75.6-185.4-113.3-345-11.1-346.6-10.1.9.1 61.9 4.1 71 60zM664.9 233.3c-21.7 12.7-29 40.6-16.3 62.3 12.7 21.7 40.6 29 62.3 16.3 4.4-2.6 8.2-5.7 11.3-9.4 12.5-14.4 15.1-35.6 5-53-12.7-21.6-40.6-28.9-62.3-16.2z" id="Layer_6"/>
    <g id="STROKES">
        <path class="st1" d="M1581 1620.3c0-.1-.1-.3-.1-.4 0 .1.1.2.1.4z"/>
        <path class="st1" d="M1574 1664.4c-.3.4-.6.8-1 1.2.4-.4.7-.8 1-1.2z"/>
        <path class="st1" d="M1581.7 1622.4c.1.4.2.9.4 1.3-.2-.4-.3-.8-.4-1.3z"/>
        <path class="st1" d="M1579.1 1615.4c.1.1.1.3.2.4-.1-.2-.2-.3-.2-.4z"/>
        <path class="st1" d="M1583.1 1641.8c.3-2.3.4-4.6.4-7 .1 2.3-.1 4.6-.4 7z"/>
        <path class="st1" d="M1578.5 1614.2c.2.3.3.6.4.9-.1-.3-.2-.6-.4-.9z"/>
        <path class="st1" d="M1580.1 1617.8c.1.1.1.3.2.4-.1-.1-.1-.3-.2-.4z"/>
        <path class="st1" d="M1583.1 1641.8a48 48 0 0 1-2.1 9.1c1-3 1.7-6.1 2.1-9.1z"/>
        <path class="st1" d="M1581.1 1650.8c-.8 2.3-1.7 4.6-2.9 6.8 1.1-2.2 2.1-4.4 2.9-6.8z"/>
        <path class="st1" d="M1583.2 1629.6c-.1-.9-.2-1.7-.4-2.6.1.9.3 1.8.4 2.6z"/>
        <path class="st1" d="M1582.1 1624c.1.4.2.9.3 1.3-.1-.4-.2-.9-.3-1.3z"/>
        <path class="st1" d="M1574 1664.4c.9-1.2 1.8-2.5 2.6-3.9-.8 1.3-1.7 2.6-2.6 3.9z"/>
        <path class="st1" d="M1577.4 1659.1c.2-.4.5-.9.7-1.3-.2.4-.4.9-.7 1.3z"/>
        <path class="st1" d="M1581.4 1621.6c0 .1.1.2.1.3 0-.2 0-.2-.1-.3z"/>
        <path class="st1" d="M1579.6 1616.6c-.1-.2-.2-.5-.3-.7.1.2.2.5.3.7z"/>
        <path class="st1" d="M1582.7 1626.6c-.1-.4-.2-.8-.3-1.3.1.4.2.9.3 1.3z"/>
        <path class="st1" d="M1576.6 1660.5c.3-.5.6-.9.8-1.4-.2.5-.5 1-.8 1.4z"/>
        <path class="st2" d="M439.1 754.1l-154.2 90.3 14-91.8 103.7-60.8z"/>
        <path class="st2" d="M1574 1664.4c-.3.4-.6.8-1 1.2"/>
        <path class="st2" d="M1578.1 1657.8c-.2.4-.5.9-.7 1.3-.3.5-.5 1-.8 1.4"/>
        <path class="st2" d="M1581.1 1650.8c-.8 2.3-1.7 4.6-2.9 6.8"/>
        <path class="st2" d="M1583.5 1634.8c0 2.3-.1 4.7-.4 7"/>
        <path class="st2" d="M969.7 896.8L706.6 447.9 674.5 393"/>
        <path class="st2" d="M999.6 575c1.6-1 161.2-103.3 346.5 10.1 0 0-60.8 35.6-71.2 75.6-10.4 40-13 117.2 51.3 250.8 38.8 80.6 156.9 323.8 244.5 503.9 19.1 39.3 36.7 75.5 51.8 106.5 28.3 58.1 7 128.2-48.8 160.9-19.7 11.5-41.2 17-62.5 17-42.5 0-83.9-21.9-106.9-61.2L969.7 896.8"/>
        <path class="st2" d="M1283.8 1106.2l-46.3-80.9c-14.6-24.9-28.1-48.9-40.4-72-84.7-157.7-118.5-269.1-126.5-318.3-9.1-56-70.1-59.9-71-60"/>
        <path class="st2" d="M1382.5 1272.7v-.1l-51.3-87.4"/>
        <path class="st2" d="M1482.4 1443.2l-64.1-113.1"/>
        <path class="st2" d="M722.3 302.6l706.9 1206.1c11 18.8 35.3 25.2 54.1 14.1 12-7 18.1-18.9 18.1-31.5 0-7.2-1.8-15-5.8-21.8"/>
        <path class="st2" d="M424.7 722.7l182.4-106.9 185.5 316.6c1.6 2.8 3.6 5.3 5.7 7.6 12.7 13.2 33.1 16.5 49.5 6.8 12.8-7.5 20-21 20-34.9 0-6.9-1.8-14-5.5-20.4L546.9 353.2c-24.7-42.2-10.6-96.4 31.6-121.1 14.1-8.2 29.5-12.2 44.7-12.2 12.6 0 30.3 8.2 41.7 13.4"/>
        <path class="st2" d="M797.4 940.5c11.7 19.9 27.9 35.4 46.5 46.1 56.8 32.4 127.1-11.2 126.2-77.3l-.5-12.5v-.7"/>
        <path class="st2" d="M1326.3 911.5s-62.7 76.6-129 41.7"/>
        <path class="st2" d="M1583.4 1632.6c0 .5.1 1 .1 1.5v.8c0 2.3-.1 4.7-.4 7a48 48 0 0 1-2.1 9.1c-.8 2.3-1.7 4.6-2.9 6.8 0 0 0 .1-.1.1-.2.4-.5.9-.7 1.3-.3.5-.5 1-.8 1.4-.8 1.3-1.7 2.6-2.6 3.9-.3.4-.6.8-1 1.2-3.6 4.5-8 8.4-13.3 11.5-22.9 13.4-52.4 5.7-65.8-17.2-13.4-22.9-5.7-52.4 17.2-65.9 22.9-13.4 52.4-5.7 65.9 17.2.6 1 1.1 1.9 1.6 2.9.2.3.3.6.4.9.1.1.1.2.1.3.1.1.1.3.2.4 0 0 0 .1.1.1.1.2.2.5.3.7.2.4.3.8.5 1.2.1.1.1.3.2.4.2.5.4 1.1.6 1.6 0 .1.1.3.1.4.2.4.3.8.4 1.3 0 .1.1.2.1.3.1.2.1.4.2.6.1.4.2.9.4 1.3 0 .1 0 .2.1.2.1.4.2.9.3 1.3.1.4.2.8.3 1.3 0 .2.1.3.1.5.2.9.3 1.7.4 2.6.1.7.2 1.4.2 2.1v.5c-.1.1-.1.2-.1.4z"/>
        <path class="st2" d="M1482.4 1443.2c-2.6-18.1 5.7-36.8 22.5-46.6 22.1-13 50.5-5.5 63.5 16.6.5.9 1 1.8 1.5 2.8 10.8 21.7 3.1 48.3-18.1 60.7-18.6 10.9-41.7 7.4-56.3-7.2-2.7-2.7-5.2-5.9-7.2-9.3-3.1-5.5-5.1-11.3-5.9-17z"/>
        <path class="st2" d="M1382.5 1272.6c3-11.4 10.4-21.7 21.4-28.1 22.1-13 50.5-5.5 63.5 16.6 12.9 22.1 5.5 50.5-16.6 63.5-10.2 6-21.8 7.6-32.5 5.5-12.6-2.5-24-10.2-31-22-6.5-11.2-7.9-23.9-4.8-35.5z"/>
        <path class="st2" d="M1283.8 1106.2c1.6-1.2 3.3-2.4 5.1-3.4 22.1-13 50.5-5.5 63.5 16.6s5.5 50.5-16.6 63.5c-1.5.9-3 1.7-4.6 2.4-21.3 9.5-46.8 1.7-58.9-18.9-11.9-20.5-6.6-46.1 11.5-60.2z"/>
        <path class="st2" d="M1096.9 914.5l53.4-31.3"/>
        <path class="st2" d="M635 489.9l71.6-42 66.3-38.8"/>
        <path class="st2" d="M664.9 233.3c21.7-12.7 49.6-5.4 62.3 16.3 10.2 17.3 7.6 38.6-5 53-3.2 3.6-6.9 6.8-11.3 9.4-21.7 12.7-49.6 5.4-62.3-16.3-12.7-21.7-5.4-49.7 16.3-62.4z"/>
    </g>
</svg>
