<svg xmlns="http://www.w3.org/2000/svg" viewBox="0 0 1920 1920">
    <style>
        .st0{fill:#fff}.st1{fill:none;stroke:#231f20;stroke-width:50;stroke-linecap:round;stroke-linejoin:round;stroke-miterlimit:10}
    </style>
    <path class="st0" d="M1263.3 997v84.9h-601V997H376.4v706h507v-175.6c0-43.9 35.6-79.4 79.4-79.4 43.9 0 79.4 35.6 79.4 79.4V1703h507V997h-285.9zm-680.5 566H482.6v-140.3h100.2V1563zm0-227.9H482.6v-140.3h100.2v140.3zM755.2 1563H655v-140.3h100.2V1563zm0-227.9H655v-140.3h100.2v140.3zm172.4 0H827.4v-140.3h100.2v140.3zm172.3 0H999.7v-140.3h100.2v140.3zm172.4 227.9h-100.2v-140.3h100.2V1563zm0-227.9h-100.2v-140.3h100.2v140.3zm172.4 227.9h-100.2v-140.3h100.2V1563zm0-227.9h-100.2v-140.3h100.2v140.3z" id="Layer_10"/>
    <path class="st0" d="M482.6 1335.2h100.2v-140.3H482.6v140.3zm172.4 0h100.2v-140.3H655v140.3zm172.4 0h100.2v-140.3H827.4v140.3zm172.3 0h100.2v-140.3H999.7v140.3zm172.4 0h100.2v-140.3h-100.2v140.3zm172.4-140.4v140.3h100.2v-140.3h-100.2zM482.6 1563h100.2v-140.3H482.6V1563zm172.4 0h100.2v-140.3H655V1563zm517.1 0h100.2v-140.3h-100.2V1563zm172.4 0h100.2v-140.3h-100.2V1563z" id="Layer_11"/>
    <path class="st0" d="M962.8 1448c-43.9 0-79.4 35.6-79.4 79.4V1703h158.8v-175.6c0-43.8-35.5-79.4-79.4-79.4z" id="Layer_12"/>
    <path class="st0" d="M662.3 898.8v183.1h601V898.8z" id="Layer_13"/>
    <path class="st0" d="M962.8 217L638.1 377.3h649.4L962.8 217zm743.1 780l-528.3-258.5v.1H748v-.1L219.8 997h442.5v-98.2h601V997h442.6z" id="Layer_14"/>
    <path class="st0" d="M748 377.3v361.3h429.5V377.3H748zm248.6 259.6c0 18.7-15.1 33.8-33.8 33.8S929 655.6 929 636.9c0-9.7 9.1-25.3 17.9-38.1H835.1s47.1-50.7 47.1-128.4c0-77.8 80.6-80.6 80.6-80.6s80.6 2.9 80.6 80.6c0 77.7 47.2 128.4 47.2 128.4H978.8c8.7 12.8 17.8 28.4 17.8 38.1z" id="Layer_15"/>
    <path class="st0" d="M1090.5 598.8s-47.1-50.7-47.1-128.4-80.6-80.6-80.6-80.6-80.6 2.9-80.6 80.6-47.1 128.4-47.1 128.4h111.8c-8.8 12.8-17.8 28.4-17.8 38.1 0 18.7 15.1 33.8 33.8 33.8 18.7 0 33.8-15.1 33.8-33.8 0-9.7-9.1-25.3-17.8-38.1h111.6z" id="Layer_17"/>
    <g id="STROKES">
        <path class="st1" d="M1705.9 997h-442.6v-98.2h-601V997H219.8L748 738.5v.1h429.6v-.1z"/>
        <path class="st1" d="M1287.5 377.3H638.1l324.7-160.4z"/>
        <path class="st1" d="M748 377.3h429.5v361.3H748z"/>
        <path class="st1" d="M1090.5 598.8H835.1s47.1-50.7 47.1-128.4 80.6-80.6 80.6-80.6 80.6 2.9 80.6 80.6 47.1 128.4 47.1 128.4z"/>
        <path class="st1" d="M996.6 636.9c0 18.7-15.1 33.8-33.8 33.8-18.7 0-33.8-15.1-33.8-33.8 0-9.7 9.1-25.3 17.8-38.1h31.9c8.8 12.8 17.9 28.4 17.9 38.1z"/>
        <path class="st1" d="M1549.2 997v706.1H376.4V997h285.9v84.9h601V997z"/>
        <path class="st1" d="M662.3 898.8h601v183.1h-601z"/>
        <path class="st1" d="M1042.2 1703.1H883.4v-175.6c0-43.9 35.6-79.4 79.4-79.4 43.9 0 79.4 35.6 79.4 79.4v175.6z"/>
        <path class="st1" d="M482.6 1194.8h100.2v140.3H482.6z"/>
        <path class="st1" d="M655 1194.8h100.2v140.3H655z"/>
        <path class="st1" d="M827.4 1194.8h100.2v140.3H827.4z"/>
        <path class="st1" d="M999.7 1194.8h100.2v140.3H999.7z"/>
        <path class="st1" d="M1172.1 1194.8h100.2v140.3h-100.2z"/>
        <path class="st1" d="M1344.5 1194.8h100.2v140.3h-100.2z"/>
        <path class="st1" d="M482.6 1422.6h100.2v140.3H482.6z"/>
        <path class="st1" d="M655 1422.6h100.2v140.3H655z"/>
        <path class="st1" d="M1172.1 1422.6h100.2v140.3h-100.2z"/>
        <path class="st1" d="M1344.5 1422.6h100.2v140.3h-100.2z"/>
    </g>
</svg>
