<svg xmlns="http://www.w3.org/2000/svg" viewBox="0 0 1920 1920">
    <style>
        .st0{fill:#fff}.st1{fill:none;stroke:#231f20;stroke-width:50;stroke-linecap:round;stroke-linejoin:round;stroke-miterlimit:10}
    </style>
    <path class="st0" d="M1252.2 894.5V706.9H690.5v187.6H217v535.1h576.4v-227.8h365.7v227.8h566.6V894.5h-473.5zm-93.1 102.8H793.4V874.5h365.7v122.8z" id="Layer_18"/>
    <path class="st0" d="M793.4 1201.8h365.7v227.8H793.4z" id="Layer_19"/>
    <path class="st0" d="M793.4 874.5h365.7v122.8H793.4z" id="Layer_20"/>
    <path class="st0" d="M631.8 616.5h679.1v90.4H631.8z" id="Layer_21"/>
    <path class="st0" d="M971.3 368H1159v134H971.3z" id="Layer_22"/>
    <g id="STROKES">
        <path class="st1" d="M690.5 706.9h561.8v722.7H690.5z"/>
        <path class="st1" d="M217 894.5h473.5v535.1H217z"/>
        <path class="st1" d="M1252.2 894.5h473.5v535.1h-473.5z"/>
        <path class="st1" d="M631.8 616.5h679.1v90.4H631.8z"/>
        <path class="st1" d="M793.4 1201.8h365.7v227.8H793.4z"/>
        <path class="st1" d="M315.3 997.3v59.5"/>
        <path class="st1" d="M400.7 997.3v59.5"/>
        <path class="st1" d="M486.2 997.3v59.5"/>
        <path class="st1" d="M571.7 997.3v59.5"/>
        <path class="st1" d="M315.3 1142.4v59.6"/>
        <path class="st1" d="M400.7 1142.4v59.6"/>
        <path class="st1" d="M486.2 1142.4v59.6"/>
        <path class="st1" d="M571.7 1142.4v59.6"/>
        <path class="st1" d="M315.3 1287.6v59.6"/>
        <path class="st1" d="M400.7 1287.6v59.6"/>
        <path class="st1" d="M486.2 1287.6v59.6"/>
        <path class="st1" d="M571.7 1287.6v59.6"/>
        <path class="st1" d="M1356.3 997.3v59.5"/>
        <path class="st1" d="M1441.8 997.3v59.5"/>
        <path class="st1" d="M1527.2 997.3v59.5"/>
        <path class="st1" d="M1612.7 997.3v59.5"/>
        <g>
            <path class="st1" d="M1356.3 1142.4v59.6"/>
            <path class="st1" d="M1441.8 1142.4v59.6"/>
            <path class="st1" d="M1527.2 1142.4v59.6"/>
            <path class="st1" d="M1612.7 1142.4v59.6"/>
        </g>
        <g>
            <path class="st1" d="M1356.3 1287.6v59.6"/>
            <path class="st1" d="M1441.8 1287.6v59.6"/>
            <path class="st1" d="M1527.2 1287.6v59.6"/>
            <path class="st1" d="M1612.7 1287.6v59.6"/>
        </g>
        <path class="st1" d="M971.3 616.5V368"/>
        <path class="st1" d="M971.3 368H1159v134H971.3z"/>
        <path class="st1" d="M793.4 874.5h365.7v122.8H793.4z"/>
    </g>
</svg>
