<svg xmlns="http://www.w3.org/2000/svg" viewBox="0 0 1920 1920">
    <style>
        .st0{fill:#fff}.st1{fill:none;stroke:#000;stroke-width:50;stroke-linecap:round;stroke-linejoin:round;stroke-miterlimit:10}
    </style>
    <path class="st0" d="M1619 803.2v90.2h-91.5v-.1c0-49.8 40.3-90.1 90.1-90.1h1.4zM1600.1 669h-208.9v224.3h136.3v-.1c0-49.8 40.3-90.1 90.1-90.1h1.4v-57.3c0-27.7-6.8-53.8-18.9-76.8zm-208.9 0h-247.8v192.7h247.8V669zm-247.8.8v-.8h-279v192.7h279V669.8zm-279 0v-.8h-279v192.7h279V669.8zm-279 0H464.9c-44.1 0-79.9 35.8-79.9 79.9v112h200.4V669.8z" id="Layer_13"/>
    <path class="st0" d="M1600.1 669H310.8c23.3-52 75.6-88.2 136.3-88.2h1006.8c63.4 0 118.5 35.7 146.2 88.2zm-208.9 346H297.7v161.8h1093.5V1015zM297.7 933.9v81.1h1093.5v-81.1H297.7zm1093.5-55.1v-17.1H385V749.6c0-44.1 35.8-79.9 79.9-79.9h120.5v-.7H310.8c-8.4 18.7-13.1 39.3-13.1 61.1v203.8h1093.5v-55.1z" id="Layer_14"/>
    <path class="st0" d="M1703.1 1084.2v92.6H1619v-92.6h84.1zm-1405.4 0h-80.8l2.1 92.6h78.7v-92.6z" id="Layer_15"/>
    <path class="st0" d="M1547.9 1179.8c6.1 11.4 9.5 24.3 9.5 38.1 0 44.6-36.2 80.8-80.8 80.8-44.6 0-80.8-36.2-80.8-80.8 0-13.8 3.5-26.8 9.5-38.1v-3h142.4v3zm-746.8-3H658.7v3c-6.1 11.4-9.5 24.3-9.5 38.1 0 44.6 36.2 80.8 80.8 80.8 44.6 0 80.8-36.2 80.8-80.8 0-13.8-3.5-26.8-9.5-38.1v-3zm-229.9 0H428.8v3c-6.1 11.4-9.5 24.3-9.5 38.1 0 44.6 36.2 80.8 80.8 80.8 44.6 0 80.8-36.2 80.8-80.8 0-13.8-3.5-26.8-9.5-38.1v-3z" id="Layer_16"/>
    <path class="st0" d="M1619 1175v1.8h-227.8V893.4H1619v190.8z" id="Layer_17"/>
    <g id="STROKES">
        <path class="st1" d="M297.7 1175V730.1c0-21.8 4.7-42.5 13.1-61.1 23.3-52 75.6-88.2 136.3-88.2h1006.8c63.4 0 118.5 35.8 146.2 88.2 12.1 23 18.9 49.1 18.9 76.9V1175"/>
        <path class="st1" d="M1143.4 859.5V669.8"/>
        <path class="st1" d="M1160.8 1015h230.4"/>
        <path class="st1" d="M1517.3 971.9h30.5"/>
        <path class="st1" d="M864.4 859.5V669.8"/>
        <path class="st1" d="M585.4 859.5V669.8H464.9c-44.1 0-79.9 35.8-79.9 79.9v109.8"/>
        <path class="st1" d="M1391.2 933.9H297.7"/>
        <path class="st1" d="M1160.8 1015H297.7"/>
        <path class="st1" d="M310.8 669h1289.6"/>
        <path class="st1" d="M385 861.7h1006.2"/>
        <path class="st1" d="M1391.2 878.8V669"/>
        <path class="st1" d="M1618.8 893.4h-227.6"/>
        <path class="st1" d="M1391.2 878.8V1175"/>
        <path class="st1" d="M864.4 578l-156.1-61.8"/>
        <path class="st1" d="M1129.4 578l-156.1-61.8"/>
        <path class="st1" d="M1527.5 893.3c0-49.8 40.3-90.1 90.1-90.1"/>
        <path class="st1" d="M428.8 1179.8c-6.1 11.4-9.5 24.3-9.5 38.1 0 44.6 36.2 80.8 80.8 80.8 44.6 0 80.8-36.2 80.8-80.8 0-13.8-3.5-26.8-9.5-38.1"/>
        <path class="st1" d="M658.7 1179.8c-6.1 11.4-9.5 24.3-9.5 38.1 0 44.6 36.2 80.8 80.8 80.8 44.6 0 80.8-36.2 80.8-80.8 0-13.8-3.5-26.8-9.5-38.1"/>
        <path class="st1" d="M1405.4 1179.8c-6.1 11.4-9.5 24.3-9.5 38.1 0 44.6 36.2 80.8 80.8 80.8 44.6 0 80.8-36.2 80.8-80.8 0-13.8-3.5-26.8-9.5-38.1"/>
        <path class="st1" d="M297.7 1084.2h-80.8l2.1 92.6h1484.1v-92.6H1619"/>
    </g>
</svg>
