<svg xmlns="http://www.w3.org/2000/svg" viewBox="0 0 1920 1920">
    <style>
        .st0{fill:#fff}.st1{fill:none;stroke:#000;stroke-width:50;stroke-linecap:round;stroke-linejoin:round;stroke-miterlimit:10}
    </style>
    <path class="st0" d="M1644.6 753v181H1511V753h133.6zm-267.2 0v181H1511V753h-133.6zm-133.6 0v181h133.6V753h-133.6zm-133.6 0v181h133.6V753h-133.6zm-133.5 0v181h133.6V753H976.7zm-133.6 0v181h133.6V753H843.1zm-133.6 0v181h133.6V753H709.5zm-282.6 0v181h136.5V753H426.9z" id="Layer_2"/>
    <path class="st0" d="M768.7 1081.2L710.8 981H595l-57.9 100.3 57.9 100.3h115.8l57.9-100.4zM1644.6 934v211.5h-21.8v86h-237.4c-12-25.4-37.9-43-67.8-43-30 0-55.8 17.6-67.8 43h-755c-12-25.4-37.9-43-67.8-43s-55.8 17.6-67.9 43h-60.9v-86H281V1084c41.4 0 75-33.6 75-75s-33.6-75-75-75h282.5V753H426.9v-75h1217.6v75h-935v181h935.1z" id="Layer_3"/>
    <path class="st0" d="M281 934c41.4 0 75 33.6 75 75s-33.6 75-75 75V934z" id="Layer_4"/>
    <path class="st0" d="M768.7 1081.2l-57.9 100.3H595l-57.9-100.3L595 981h115.8z" id="Layer_5"/>
    <g id="Layer_6">
        <path class="st0" d="M1385.4 1231.5c4.6 9.7 7.2 20.5 7.2 32 0 41.4-33.6 75-75 75s-75-33.6-75-75c0-11.5 2.6-22.3 7.2-32 12-25.4 37.9-43 67.8-43s55.8 17.6 67.8 43zm-958.4-43c-30 0-55.8 17.6-67.9 43-4.6 9.7-7.1 20.5-7.1 32 0 41.4 33.6 75 75 75s75-33.6 75-75c0-11.5-2.6-22.3-7.2-32-12-25.4-37.9-43-67.8-43z"/>
        <path class="st0" d="M1703.1 1145.5v86h-80.3v-86h80.3zm-1422.1 0h-64v86h81.3v-86H281z"/>
    </g>
    <g id="STROKES">
        <path class="st1" d="M494.8 1231.5c4.6 9.7 7.2 20.5 7.2 32 0 41.4-33.6 75-75 75s-75-33.6-75-75c0-11.5 2.6-22.3 7.1-32 12-25.4 37.9-43 67.9-43s55.8 17.6 67.8 43z"/>
        <path class="st1" d="M281 934c41.4 0 75 33.6 75 75s-33.6 75-75 75"/>
        <path class="st1" d="M1385.4 1231.5c4.6 9.7 7.2 20.5 7.2 32 0 41.4-33.6 75-75 75s-75-33.6-75-75c0-11.5 2.6-22.3 7.2-32 12-25.4 37.9-43 67.8-43s55.8 17.6 67.8 43z"/>
        <path class="st1" d="M494.8 1231.5h754.9"/>
        <path class="st1" d="M298.2 1231.5v-86h-81.3v86H281"/>
        <path class="st1" d="M684.2 1081.2h-62.6"/>
        <path class="st1" d="M281 1231.5h78.1"/>
        <path class="st1" d="M1644.6 753v-75H426.9v256H281v211.5"/>
        <path class="st1" d="M1644.6 1145.5V934"/>
        <path class="st1" d="M1385.4 1231.5h237.4"/>
        <path class="st1" d="M361.4 753h202v181H426.9"/>
        <path class="st1" d="M843.1 934H709.5V753h133.6"/>
        <path class="st1" d="M976.7 934H843.1V753h133.6"/>
        <path class="st1" d="M1110.2 934H976.7V753h133.5"/>
        <path class="st1" d="M1243.8 934h-133.6V753h133.6"/>
        <path class="st1" d="M1377.4 934h-133.6V753h133.6"/>
        <path class="st1" d="M1511 934h-133.6V753H1511"/>
        <path class="st1" d="M1511 753h133.6v181H1511z"/>
        <path class="st1" d="M537.1 1081.2L595 981h115.8l57.9 100.2-57.9 100.3H595z"/>
        <path class="st1" d="M732.6 1006h799.5"/>
        <path class="st1" d="M1622.8 1231.5h80.3v-86h-80.3z"/>
        <path class="st1" d="M765.4 1081.2h766.7"/>
        <path class="st1" d="M447 1081.2h90.1"/>
    </g>
</svg>
