<svg xmlns="http://www.w3.org/2000/svg" viewBox="0 0 1920 1920">
    <style>
        .st0{fill:#fff}.st1{fill:none;stroke:#000;stroke-width:50;stroke-linecap:round;stroke-linejoin:round;stroke-miterlimit:10}
    </style>
    <path class="st0" d="M1692.6 513.8v252h-102.7v-252h102.7zm-178.1 252v-274h-554v274h554zm-554 0v-274h-554v274h554zm-629.4-252H228.4v252h102.7v-252z" id="Layer_7"/>
    <path class="st0" d="M1569.9 1070.8l-6.7 79.8h-245.3l115.5-141.9h74.4c14.4 0 27.7 4.9 38.2 13.1 14.5 11.3 23.9 29.1 23.9 49zm-17.7 208H368.8v141h1183.5l-.1-141zm-1201.1-208l6.7 79.8h245.3l-115.5-141.9h-74.4c-14.4 0-27.6 4.9-38.2 13.1a62.095 62.095 0 0 0-23.9 49z" id="Layer_8"/>
    <path class="st0" d="M1545.9 796.9c40.6 0 73.5 32.9 73.5 73.5s-32.9 73.5-73.5 73.5-73.5-32.9-73.5-73.5 32.9-73.5 73.5-73.5zm-227.4-414.1c0 27.1 21.9 49 49 49s49-21.9 49-49-21.9-49-49-49-49 22-49 49zm-118 0c0 27.1 21.9 49 49 49s49-21.9 49-49-21.9-49-49-49-49 22-49 49zm-578 0c0 27.1 21.9 49 49 49s49-21.9 49-49-21.9-49-49-49-49 22-49 49zm-118 0c0 27.1 21.9 49 49 49s49-21.9 49-49-21.9-49-49-49-49 22-49 49zM301.6 870.4c0 40.6 32.9 73.5 73.5 73.5s73.5-32.9 73.5-73.5-32.9-73.5-73.5-73.5-73.5 32.9-73.5 73.5z" id="Layer_9"/>
    <path class="st0" d="M1534.7 1419.8v232.5c0 17.4-14.1 31.5-31.5 31.5h-120c-17.4 0-31.5-14.1-31.5-31.5v-232.5h183zm-1148.4 0v232.5c0 17.4 14.1 31.5 31.5 31.5h120c17.4 0 31.5-14.1 31.5-31.5v-232.5h-183z" id="Layer_10"/>
    <path class="st0" d="M1545.9 943.9v76.3c-10.5-8.2-23.8-13.1-38.2-13.1h-74.4v-81.2c0-26.8-23.8-139.9-472.9-139.9S487.5 899 487.5 925.9v81.2h-74.4c-14.4 0-27.6 4.9-38.2 13.1v-76.3c40.6 0 73.5-32.9 73.5-73.5s-32.9-73.5-73.5-73.5l31.4-31.1h1108l31.4 31.1c-40.6 0-73.5 32.9-73.5 73.5.2 40.6 33.1 73.5 73.7 73.5zm-585.4-717c-526.1 0-554 132.4-554 163.9v101h1108v-101c0-31.4-27.9-163.9-554-163.9zm407 204.9c-27.1 0-49-21.9-49-49s21.9-49 49-49 49 21.9 49 49-21.9 49-49 49zm-118 0c-27.1 0-49-21.9-49-49s21.9-49 49-49 49 21.9 49 49-21.9 49-49 49zm-578 0c-27.1 0-49-21.9-49-49s21.9-49 49-49 49 21.9 49 49-21.9 49-49 49zm-118 0c-27.1 0-49-21.9-49-49s21.9-49 49-49 49 21.9 49 49-21.9 49-49 49zm407 354.2c-449 0-472.9 113-472.9 139.9v81.2L603.1 1149v129.8h714.8V1149l115.5-141.9v-81.2c0-26.8-23.9-139.9-472.9-139.9z" id="Layer_11"/>
    <g id="Layer_12">
        <path class="st0" d="M1563.1 1149l-10.9 129.8h-234.3V1149z"/>
        <path class="st0" d="M603.1 1149v129.8H368.8L357.9 1149z"/>
    </g>
    <g id="STROKES">
        <circle class="st1" cx="671.5" cy="382.8" r="49"/>
        <circle class="st1" cx="553.5" cy="382.8" r="49"/>
        <circle class="st1" cx="1367.5" cy="382.8" r="49"/>
        <circle class="st1" cx="1249.5" cy="382.8" r="49"/>
        <path class="st1" d="M960.5 765.8h-554v-274h554"/>
        <path class="st1" d="M882.5 701.8l-258 64"/>
        <path class="st1" d="M960.5 765.8h554v-274h-554z"/>
        <path class="st1" d="M960.5 231.9V258"/>
        <path class="st1" d="M1038.5 231.9V258"/>
        <path class="st1" d="M882.5 231.9V258"/>
        <path class="st1" d="M1038.5 701.8l258 64"/>
        <path class="st1" d="M331.1 765.8H228.4v-252h102.7v25z"/>
        <path class="st1" d="M357.9 1149h245.2v129.8"/>
        <path class="st1" d="M1563.1 1149h-245.2v129.8"/>
        <path class="st1" d="M331.1 538.8h75.4"/>
        <path class="st1" d="M1514.5 538.8h75.4"/>
        <path class="st1" d="M1692.6 765.8h-102.7v-252h102.7z"/>
        <path class="st1" d="M1514.5 491.8v-101c0-31.4-27.9-163.9-554-163.9s-554 132.4-554 163.9v101"/>
        <path class="st1" d="M603.1 1149l-115.5-141.9"/>
        <path class="st1" d="M1545.9 1020.2c-10.5-8.2-23.8-13.1-38.2-13.1h-74.4v-81.2c0-26.8-23.8-139.9-472.9-139.9S487.5 899 487.5 925.9v81.2h-74.4c-14.4 0-27.6 4.9-38.2 13.1-14.6 11.4-24 29.1-24 49.1l6.7 79.8 11 129.8"/>
        <path class="st1" d="M1552.2 1278.8l11-129.8 6.7-79.8c0-19.9-9.4-37.7-24-49"/>
        <path class="st1" d="M1317.9 1149l115.4-141.9"/>
        <path class="st1" d="M375.1 796.9c40.6 0 73.5 32.9 73.5 73.5s-32.9 73.5-73.5 73.5-73.5-32.9-73.5-73.5 32.9-73.5 73.5-73.5z"/>
        <path class="st1" d="M375.1 943.9v76.3"/>
        <path class="st1" d="M1545.9 796.9c40.6 0 73.5 32.9 73.5 73.5s-32.9 73.5-73.5 73.5-73.5-32.9-73.5-73.5 32.9-73.5 73.5-73.5z"/>
        <path class="st1" d="M1545.9 943.9v76.3"/>
        <path class="st1" d="M386.3 1419.8h-17.5v-141h1183.4v141h-17.5"/>
        <path class="st1" d="M1351.8 1419.8H569.2"/>
        <path class="st1" d="M683.5 943.9h554"/>
        <path class="st1" d="M683.5 1018.9h554"/>
        <path class="st1" d="M683.5 1093.9h554"/>
        <path class="st1" d="M683.5 1168.9h554"/>
        <path class="st1" d="M569.2 1419.8v232.5c0 17.4-14.1 31.5-31.5 31.5h-120c-17.4 0-31.5-14.1-31.5-31.5v-232.5h183z"/>
        <path class="st1" d="M1534.7 1419.8v232.5c0 17.4-14.1 31.5-31.5 31.5h-120c-17.4 0-31.5-14.1-31.5-31.5v-232.5h183z"/>
        <path class="st1" d="M406.5 765.8l-31.4 31.1"/>
        <path class="st1" d="M1514.5 765.8l31.4 31.1"/>
    </g>
</svg>
