<svg xmlns="http://www.w3.org/2000/svg" viewBox="0 0 1920 1920">
    <style>
        .st0{fill:#fff}.st1{fill:none;stroke:#231f20;stroke-width:50;stroke-linecap:round;stroke-linejoin:round;stroke-miterlimit:10}
    </style>
    <path class="st0" d="M422.3 626.2L217 839.1h507.4v-51.6l9.8-11.4H627l129.1-149.9H422.3zm1280.8 212.9l-205.3-212.9H1164l129 149.9h-107.7l9.8 11.4v51.6h508z" id="Layer_2"/>
    <path class="st0" d="M1163.9 626.2l-168-195.1c-18.9-22-52.9-22-71.9 0L756 626.2 627 776.1h107.1l129.1-149.9 96.2-111.7.3.3.3-.3 96.2 111.7 129.1 149.9H1293l-129.1-149.9z" id="Layer_4"/>
    <path class="st0" d="M1184.7 776.1l-129.1-149.9-95.9-111.3-95.9 111.3-129.1 149.9-9.8 11.4v601h162.2v-280.7h145.7v280.7h161.6v-601l-9.7-11.4zM959.4 978c-71.9 0-130.1-58.2-130.1-130.1s58.2-130.1 130.1-130.1c71.9 0 130.1 58.2 130.1 130.1S1031.2 978 959.4 978z" id="Layer_5"/>
    <path class="st0" d="M959.4 717.8c-71.9 0-130.1 58.2-130.1 130.1S887.5 978 959.4 978c71.9 0 130.1-58.2 130.1-130.1s-58.3-130.1-130.1-130.1z" id="Layer_6"/>
    <path class="st0" d="M887.1 1107.8h145.7v280.7H887.1z" id="Layer_7"/>
    <path class="st0" d="M217 1388.5h507.4V839.1H217v549.4zm286-446.3h106.6v123.5H503V942.2zm0 226.7h106.6v123.5H503v-123.5zM313.5 942.2h106.6v123.5H313.5V942.2zm0 226.7h106.6v123.5H313.5v-123.5zm881.6-329.8v549.4h508V839.1h-508zm220.7 453.2h-106.6v-123.5h106.6v123.5zm0-226.6h-106.6V942.2h106.6v123.5zm189.5 226.6h-106.6v-123.5h106.6v123.5zm0-226.6h-106.6V942.2h106.6v123.5z" id="Layer_8"/>
    <path class="st0" d="M503 1292.3h106.6v-123.5H503v123.5zm0-226.6h106.6V942.2H503v123.5zm-189.5 226.6h106.6v-123.5H313.5v123.5zm0-226.6h106.6V942.2H313.5v123.5zm995.7 0h106.6V942.2h-106.6v123.5zm0 226.6h106.6v-123.5h-106.6v123.5zm189.5-350.1v123.5h106.6V942.2h-106.6zm0 350.1h106.6v-123.5h-106.6v123.5z" id="Layer_9"/>
    <g id="STROKES">
        <path class="st1" d="M1195.1 839.1h508v549.4h-508z"/>
        <path class="st1" d="M1195.1 839.1v-51.6l-9.8-11.4H1293l-129.1-149.9h333.8l205.4 212.9z"/>
        <path class="st1" d="M1293 776.1h-107.7l-129.1-149.9L960 514.5l-96.2 111.7-129.1 149.9H627l129.1-149.9 168-195.1c18.9-22 52.9-22 71.9 0l168 195.1 129 149.9z"/>
        <path class="st1" d="M1194.5 787.5v601H724.3v-601l9.8-11.4 129.1-149.9 96.2-111.7 96.2 111.7 129.1 149.9z"/>
        <path class="st1" d="M627 776.1h107.7l-9.8 11.4v51.6H217l205.3-212.9h333.8z"/>
        <path class="st1" d="M217 839.1h508v549.4H217z"/>
        <path class="st1" d="M313.5 942.2h106.6v123.5H313.5z"/>
        <path class="st1" d="M503 942.2h106.6v123.5H503z"/>
        <path class="st1" d="M1309.2 942.2h106.6v123.5h-106.6z"/>
        <path class="st1" d="M1498.7 942.2h106.6v123.5h-106.6z"/>
        <path class="st1" d="M313.5 1168.9h106.6v123.5H313.5z"/>
        <path class="st1" d="M503 1168.9h106.6v123.5H503z"/>
        <path class="st1" d="M1309.2 1168.9h106.6v123.5h-106.6z"/>
        <path class="st1" d="M1498.7 1168.9h106.6v123.5h-106.6z"/>
        <circle class="st1" cx="959.4" cy="848" r="130.1"/>
        <path class="st1" d="M959.4 786.5v74.4h37.9"/>
        <path class="st1" d="M887.1 1107.8h145.7v280.7H887.1z"/>
    </g>
</svg>
