<svg xmlns="http://www.w3.org/2000/svg" viewBox="0 0 1920 1920">
    <style>
        .st0{fill:#fff}.st1{fill:none;stroke:#231f20;stroke-width:50;stroke-linecap:round;stroke-linejoin:round;stroke-miterlimit:10}
    </style>
    <g id="Layer_4">
        <path class="st0" d="M965.1 1703.1h-10.2 10.2z"/>
        <path class="st0" d="M1398.1 1463.7l-258-860V304.5h-.7c23.5 0 42.6-19.1 42.6-42.6v-2.3c0-23.5-19.1-42.6-42.6-42.6H780.3c-23.5 0-42.6 19.1-42.6 42.6v2.3c0 23.4 18.9 42.4 42.2 42.6v299.2l-258 860s-96.5 237.9 438.1 239.4c534.6-1.6 438.1-239.4 438.1-239.4z"/>
    </g>
    <g id="STROKES">
        <path class="st1" d="M954.9 1703.1c540.3 0 443.2-239.4 443.2-239.4l-258-860V304.5H779.9v299.1l-258 860S424.8 1703 965.1 1703h-10.2z"/>
        <path class="st1" d="M1139.5 304.5H780.3c-23.5 0-42.6-19.1-42.6-42.6v-2.3c0-23.5 19.1-42.6 42.6-42.6h359.2c23.5 0 42.6 19.1 42.6 42.6v2.3c0 23.5-19.1 42.6-42.6 42.6z"/>
        <path class="st1" d="M693.5 914.1h88.3"/>
        <path class="st1" d="M660.9 1031.8h153.5"/>
        <path class="st1" d="M628 1149.5h219.3"/>
    </g>
</svg>
