<svg xmlns="http://www.w3.org/2000/svg" viewBox="0 0 1920 1920">
    <style>
        .st0{fill:#fff}.st1{fill:none;stroke:#000;stroke-width:50;stroke-linecap:round;stroke-linejoin:round;stroke-miterlimit:10}
    </style>
    <path class="st0" d="M1088 627.3v-275c50.5 0 91.4-40.9 91.4-91.4v-4.1c0-.8-.1-1.6-.4-2.5-7-20.9-102.4-37.4-219-37.4s-212 16.5-219 37.4c-.3.8-.4 1.6-.4 2.5v4.1c0 25.2 10.2 48.1 26.8 64.6 16.5 16.5 39.4 26.8 64.6 26.8v275c-240.2 57.6-418.6 273.8-418.6 531.6 0 301.9 244.8 546.7 546.7 546.7s546.7-244.8 546.7-546.7c-.1-257.8-178.6-474-418.8-531.6zm-128 969.3c-240.6 0-435.6-195-435.6-435.6 0-64.6 14-125.9 39.3-181 1.1-2.5 2.3-4.9 3.4-7.3 25.6-27.2 191.8-48.2 392.9-48.2 11.5 0 22.9.1 34.1.2v-.2c0-51 41.4-92.5 92.5-92.5s92.4 41.4 92.4 92.5c0 3.1-.1 6.2-.5 9.2 93.4 8.7 159 22.7 174.3 39 1.2 2.4 2.3 4.9 3.4 7.3 25.2 55.1 39.3 116.4 39.3 181 .1 240.6-194.9 435.6-435.5 435.6z" id="Layer_6"/>
    <path class="st0" d="M1356.3 980c-1.1-2.5-2.3-4.9-3.4-7.3-15.3-16.3-81-30.4-174.3-39 .3-3 .5-6.1.5-9.2 0-51.1-41.4-92.5-92.5-92.5s-92.4 41.4-92.4 92.5v.2c-11.2-.1-22.6-.2-34.1-.2-201.1 0-367.3 21-392.9 48.2-1.2 2.4-2.3 4.9-3.4 7.3-25.2 55.1-39.3 116.4-39.3 181 0 240.6 195 435.6 435.6 435.6s435.6-195 435.6-435.6c-.1-64.6-14.2-125.9-39.4-181zm-544.4 297.4c-37.2 0-67.4-30.1-67.4-67.3 0-37.2 30.2-67.3 67.4-67.3s67.4 30.2 67.4 67.3c0 37.2-30.2 67.3-67.4 67.3zm161 196.5c-25.1 0-45.5-20.4-45.5-45.5s20.4-45.5 45.5-45.5 45.5 20.4 45.5 45.5-20.4 45.5-45.5 45.5z" id="Layer_8"/>
    <path class="st0" d="M811.9 1142.7c-37.2 0-67.4 30.2-67.4 67.4s30.2 67.4 67.4 67.4 67.4-30.2 67.4-67.4-30.2-67.4-67.4-67.4zm161 240.2c-25.1 0-45.5 20.4-45.5 45.5s20.4 45.5 45.5 45.5 45.5-20.4 45.5-45.5-20.4-45.5-45.5-45.5z" id="Layer_9"/>
    <g id="STROKES">
        <path class="st1" d="M741 254.4c-.3.8-.4 1.6-.4 2.5v-2.5h.4z"/>
        <path class="st1" d="M1179.4 254.4v2.5c0-.8-.1-1.6-.4-2.5h.4z"/>
        <path class="st1" d="M741 254.4c-.3.8-.4 1.6-.4 2.5v-2.5h.4z"/>
        <path class="st1" d="M1179.4 254.4v2.5c0-.8-.1-1.6-.4-2.5h.4z"/>
        <path class="st1" d="M1506.7 1158.9c0 301.9-244.8 546.7-546.7 546.7s-546.7-244.8-546.7-546.7c0-257.8 178.5-474 418.7-531.6v-275c-25.2 0-48.1-10.2-64.6-26.8-16.5-16.5-26.8-39.4-26.8-64.6v-4c0 22 98.2 39.9 219.4 39.9s219.4-17.9 219.4-39.9v4c0 50.5-40.9 91.4-91.4 91.4v275c240.2 57.6 418.7 273.8 418.7 531.6z"/>
        <path class="st1" d="M1395.6 1161c0 240.6-195 435.6-435.6 435.6s-435.6-195-435.6-435.6c0-64.6 14.1-125.9 39.3-181 0 30.7 177.4 55.6 396.3 55.6s396.3-24.9 396.3-55.6c25.2 55.1 39.3 116.4 39.3 181z"/>
        <path class="st1" d="M1179.4 256.8c0 22-98.2 39.9-219.4 39.9s-219.4-17.9-219.4-39.9c0-.8.1-1.6.4-2.5 7-20.9 102.4-37.4 219-37.4s212 16.5 219 37.4c.3.9.4 1.7.4 2.5z"/>
        <path class="st1" d="M1356.3 980c0 30.7-177.4 55.6-396.3 55.6s-396.3-24.9-396.3-55.6c1.1-2.5 2.3-4.9 3.4-7.3 25.6-27.2 191.8-48.2 392.9-48.2 11.5 0 22.9.1 34.1.2v-.2c0-51.1 41.4-92.5 92.4-92.5 51.1 0 92.5 41.4 92.5 92.5 0 3.1-.2 6.2-.5 9.2 93.4 8.7 159 22.7 174.3 39 1.3 2.4 2.4 4.8 3.5 7.3z"/>
        <circle class="st1" cx="811.9" cy="1210.1" r="67.4"/>
        <circle class="st1" cx="972.9" cy="1428.4" r="45.5"/>
    </g>
</svg>
