<svg xmlns="http://www.w3.org/2000/svg" viewBox="0 0 1920 1920">
    <style>
        .st0{fill:#fff}.st1{fill:none;stroke:#231f20;stroke-width:50;stroke-linecap:round;stroke-linejoin:round;stroke-miterlimit:10}
    </style>
    <path class="st0" d="M1435.6 1703.1H484.4c-154.3 0-253-164.3-180.7-300.5L794.1 629V311.2l-63-63c-11.5-11.5-3.4-31.3 13-31.3h431.6c16.3 0 24.5 19.7 12.9 31.3l-62.9 62.9v317.8l490.4 773.6c72.5 136.3-26.2 300.6-180.5 300.6z" id="Layer_2"/>
    <path class="st1" d="M1616.2 1402.5l-490.4-773.6V311.1l62.9-62.9c11.5-11.5 3.4-31.3-13-31.3H744.2c-16.3 0-24.5 19.7-13 31.3l62.9 62.9v317.7l-490.4 773.6c-72.4 136.3 26.4 300.5 180.7 300.5h951.2c154.3.2 253-164.1 180.6-300.4z" id="STROKES"/>
</svg>
