<svg xmlns="http://www.w3.org/2000/svg" viewBox="0 0 1920 1920">
    <style>
        .st0{fill:#fff}.st1{fill:none;stroke:#000;stroke-width:50;stroke-linecap:round;stroke-linejoin:round;stroke-miterlimit:10}
    </style>
    <path class="st0" d="M1496.1 1579.5l-411.4-588.7V869.4h71.4v-93H763.7v93h71.7v121.4L424 1579.5c-31 55.3 8.9 123.6 72.4 123.6h927.4c63.3 0 103.3-68.3 72.3-123.6zM551.6 1594l267.6-402.7 282.3 1.1 267 401.6H551.6z" id="Layer_2"/>
    <path class="st0" d="M1101.4 1192.4l-282.2-1.1L551.6 1594h816.8z" id="Layer_3"/>
    <path class="st0" d="M892.9 393.4c-28 0-50.6 22.7-50.6 50.6 0 28 22.6 50.6 50.6 50.6s50.6-22.7 50.6-50.6c0-27.9-22.7-50.6-50.6-50.6zm85.7 175.9c-19.4 0-35.2 15.8-35.2 35.2 0 19.4 15.8 35.2 35.2 35.2 19.4 0 35.2-15.8 35.2-35.2 0-19.5-15.7-35.2-35.2-35.2zm79.3-352.3c-43.8 0-79.3 35.5-79.3 79.3s35.5 79.3 79.3 79.3 79.3-35.5 79.3-79.3c0-43.9-35.5-79.3-79.3-79.3z" id="Layer_4"/>
    <g id="STROKES">
        <path class="st1" d="M1368.4 1594l-267-401.6-282.2-1.1L551.6 1594z"/>
        <circle class="st1" cx="892.9" cy="444" r="50.6"/>
        <circle class="st1" cx="1057.9" cy="296.2" r="79.3"/>
        <path class="st1" d="M1423.7 1703.1H496.3c-63.4 0-103.4-68.3-72.4-123.6l411.4-588.7V869.4h-71.7v-93H1156v93h-71.4v121.4l411.4 588.7c31.1 55.3-8.9 123.6-72.3 123.6z"/>
        <circle class="st1" cx="978.6" cy="604.5" r="35.2"/>
    </g>
</svg>
