<svg xmlns="http://www.w3.org/2000/svg" viewBox="0 0 1920 1920">
    <style>
        .st0{fill:#fff}.st1{fill:#b71c1c}.st2{fill:none;stroke:#000;stroke-width:50;stroke-linecap:round;stroke-linejoin:round;stroke-miterlimit:10}
    </style>
    <g id="STROKES">
        <path class="st2" d="M894.7 992.8v691.8"/>
        <path class="st2" d="M994.7 435.9v356.9"/>
        <path class="st2" d="M994.7 435.9c0-108.9 88.3-197.2 197.2-197.2 108.9 0 197.2 88.3 197.2 197.2 0 108.9-88.3 197.2-197.2 197.2-108.9 0-197.2-88.3-197.2-197.2z"/>
        <path class="st2" d="M894.7 435.9c0-108.9-88.3-197.2-197.2-197.2-108.9 0-197.2 88.3-197.2 197.2 0 108.9 88.3 197.2 197.2 197.2 108.9 0 197.2-88.3 197.2-197.2z"/>
        <path class="st2" d="M994.7 892.8v791.8"/>
        <path class="st2" d="M894.7 435.9v456.9"/>
        <path class="st2" d="M894.7 892.8c0 27.6 22.4 50 50 50s50-22.4 50-50-22.4-50-50-50-50 22.4-50 50z"/>
    </g>
</svg>
