<svg xmlns="http://www.w3.org/2000/svg" viewBox="0 0 1920 1920">
    <style>
        .st0{fill:#fff}.st1{fill:none;stroke:#231f20;stroke-width:50;stroke-linecap:round;stroke-linejoin:round;stroke-miterlimit:10}
    </style>
    <path class="st0" d="M486.9 1378.9c-22.9-7-47.2 6-54.1 28.9l-70.1 231.1c-7 22.9 6 47.2 28.9 54.1 4.2 1.3 8.4 1.9 12.6 1.9 18.6 0 35.8-12.1 41.5-30.8l70.1-231.1c7-22.9-6-47.2-28.9-54.1zm941.1-7.1c-77.1 0-141.8 53.2-159.4 124.9-3.1 12.6-4.7 25.7-4.7 39.2s1.6 26.7 4.7 39.2c17.6 71.7 82.3 124.9 159.4 124.9 90.7 0 164.2-73.5 164.2-164.2-.1-90.5-73.6-164-164.2-164z" id="Layer_4"/>
    <path class="st0" d="M1268.6 1496.7H828.9L578 1245.8l107.4-354.1-36-10.9-39.1-11.8-95.2 313.9-25.8 85.2-9.3 30.8 57.6 17.5 258.9 258.9h472.2c-3.1-12.6-4.7-25.7-4.7-39.2s1.5-26.8 4.6-39.4zm-92.8-1066.5L968 371l-16 56.2 207.8 59.2 16-56.2zM671.3 279l-207.8-59.2-16 56.2 207.8 59.1 16-56.1z" id="Layer_6"/>
    <g id="STROKES">
        <path class="st1" d="M391.6 1693.1c22.9 7 47.2-6 54.1-28.9l70.1-231.1c7-22.9-6-47.2-28.9-54.1-22.9-7-47.2 6-54.1 28.9L362.7 1639c-7 22.9 5.9 47.1 28.9 54.1z"/>
        <path class="st1" d="M1592.2 1536c0 90.7-73.5 164.2-164.2 164.2-77.1 0-141.9-53.2-159.4-124.9-3.1-12.6-4.7-25.7-4.7-39.2s1.6-26.7 4.7-39.2c17.6-71.7 82.3-124.9 159.4-124.9 90.7-.2 164.2 73.3 164.2 164z"/>
        <path class="st1" d="M685.4 891.7L578 1245.8l-23 75.8-17.5-5.3-57.6-17.5 9.3-30.7 25.9-85.2L610.3 869z"/>
        <path class="st1" d="M1263.8 1536c0 13.5 1.6 26.7 4.7 39.2H796.4l-78.5-78.5-180.4-180.4 17.5 5.3 23-75.8 250.9 250.9h439.7c-3.1 12.6-4.8 25.7-4.8 39.3z"/>
        <path class="st1" d="M649.4 880.8L808.1 356"/>
        <path class="st1" d="M665 315.3l286.3 81.4"/>
        <path transform="rotate(15.888 1063.908 428.73)" class="st1" d="M955.8 399.5h216.1v58.4H955.8z"/>
        <path transform="rotate(15.888 559.404 277.522)" class="st1" d="M451.3 248.3h216.1v58.4H451.3z"/>
    </g>
</svg>
