<svg xmlns="http://www.w3.org/2000/svg" viewBox="0 0 1920 1920">
    <style>
        .st0{fill:#fff}.st1{fill:none;stroke:#231f20;stroke-width:50;stroke-linecap:round;stroke-linejoin:round;stroke-miterlimit:10}
    </style>
    <path class="st0" d="M466.2 1323.6c-22.2-10.1-46.9-15.7-72.9-15.7-97.4 0-176.4 79-176.4 176.4s79 176.4 176.4 176.4 176.4-79 176.4-176.4c0-71.5-42.5-133-103.5-160.7zm1060.5-15.8c-46.6 0-89 18.1-120.5 47.6-34.4 32.2-55.8 77.9-55.8 128.7 0 16.7 2.3 32.9 6.7 48.3 15.1 53 54.3 95.9 105 115.9 20 7.9 41.8 12.2 64.7 12.2 97.4 0 176.4-79 176.4-176.4s-79.1-176.3-176.5-176.3z" id="Layer_2"/>
    <g id="STROKES">
        <circle class="st1" cx="393.3" cy="1484.2" r="176.4"/>
        <path class="st1" d="M1702 1308.9c-44.9-44.9-106.8-72.6-175.3-72.6-136.9 0-247.9 111-247.9 247.9H698.1l-208.2-268.7 216.5-955.7h125.8"/>
        <path class="st1" d="M489.9 1215.5l-23.7 108.1"/>
        <path class="st1" d="M569.7 1484.2c0 97.4-79 176.4-176.4 176.4s-176.4-79-176.4-176.4 79-176.4 176.4-176.4c26 0 50.7 5.6 72.9 15.7 61 27.8 103.5 89.3 103.5 160.7z"/>
        <path class="st1" d="M1702 1308.9c-44.9-44.9-106.8-72.6-175.3-72.6-136.9 0-247.9 111-247.9 247.9H698.1l-208.2-268.7 216.5-955.7h125.8"/>
        <circle class="st1" cx="1526.7" cy="1484.2" r="176.4"/>
        <path class="st1" d="M466.2 1323.6l23.7-108.1"/>
    </g>
</svg>
