<svg xmlns="http://www.w3.org/2000/svg" viewBox="0 0 1920 1920">
    <style>
        .st0{fill:#fff}.st1{fill:none;stroke:#000;stroke-width:50;stroke-linecap:round;stroke-linejoin:round;stroke-miterlimit:10}
    </style>
    <path class="st0" d="M1123.3 720.5c0 109.8-41.9 65.2-93.5 65.2s-93.5 42.9-93.5-65.2c0-51.6 41.9-93.5 93.5-93.5s93.5 41.9 93.5 93.5zM770.7 419.6c0 25.9 21 59.7 46.9 59.7s46.9-33.8 46.9-59.7-21-46.9-46.9-46.9c-25.9-.1-46.9 20.9-46.9 46.9zm217.6 1022.2c0 23.5 19 42.5 42.5 42.5s42.5-19 42.5-42.5-19-54.1-42.5-54.1c-23.4 0-42.5 30.6-42.5 54.1zm-149.6 240c11.7 20.3 37.8 27.3 58.1 15.6 20.3-11.8 37.4-43.6 25.6-63.9-11.8-20.3-47.8-21.5-68.2-9.8-20.2 11.7-27.2 37.7-15.5 58.1zm149.6-373.3c0 23.5 19 42.5 42.5 42.5s42.5-19 42.5-42.5-19-54.1-42.5-54.1c-23.4 0-42.5 30.6-42.5 54.1zm-28.9-720.7c0 21.6 31.5 39.2 70.4 39.2 38.9 0 70.4-17.5 70.4-39.2 0-21.7-31.5-39.2-70.4-39.2-38.9 0-70.4 17.6-70.4 39.2zm-188.7-35.7c0 38.1 21 54 46.9 54s46.9-16 46.9-54c0-38.1-21-72.9-46.9-72.9-25.9.1-46.9 34.8-46.9 72.9zm474-72.8c25.9 0 46.9-33.8 46.9-59.7s-21-46.9-46.9-46.9-46.9 21-46.9 46.9 20.9 59.7 46.9 59.7zm-508.2 1111c0 24.9 11.4 51.2 36.3 51.2 39.8 0 44.8-60.4 44.8-103.8 0 27-81.1-3.7-81.1 52.6zm508.2-984.1c25.9 0 46.9-16 46.9-54 0-38.1-21-72.9-46.9-72.9s-46.9 34.8-46.9 72.9c-.1 38 20.9 54 46.9 54zM955.5 1608c20.3 11.7 46.4 4.8 58.1-15.6 11.8-20.3 10.6-56.4-9.8-68.1-20.3-11.8-52.2 5.3-63.9 25.6-11.7 20.4-4.7 46.4 15.6 58.1z" id="Layer_7"/>
    <g id="Layer_1">
        <g id="XMLID_1_">
            <path class="st1" d="M988.3 1308.5c0-23.5 19-54.1 42.5-54.1s42.5 30.6 42.5 54.1-19 42.5-42.5 42.5c-23.4.1-42.5-19-42.5-42.5z"/>
            <path class="st1" d="M988.3 1441.8c0-23.5 19-54.1 42.5-54.1s42.5 30.6 42.5 54.1-19 42.5-42.5 42.5c-23.4.1-42.5-19-42.5-42.5z"/>
            <path class="st1" d="M940 1549.9c11.8-20.3 43.6-37.4 63.9-25.6 20.3 11.7 21.5 47.8 9.8 68.1-11.7 20.3-37.8 27.3-58.1 15.6-20.4-11.7-27.4-37.7-15.6-58.1z"/>
            <path class="st1" d="M854.3 1623.7c20.3-11.8 56.4-10.6 68.2 9.8 11.7 20.3-5.3 52.2-25.6 63.9-20.3 11.7-46.4 4.8-58.1-15.6-11.8-20.4-4.8-46.4 15.5-58.1z"/>
            <path class="st1" d="M913.9 671.7l-56.5 6.3"/>
            <path class="st1" d="M896.6 742.2l-39.2 4.4"/>
            <path class="st1" d="M817.2 687.6l-64 16.3"/>
            <path class="st1" d="M711.7 694.3l-99.6-113.7"/>
            <path class="st1" d="M814.8 764.7c-16.8 0-61.6 39.4-61.6 39.4"/>
            <path class="st1" d="M711.7 796.1l-128.1-116"/>
            <path class="st1" d="M928.2 865.8l-27.9 18"/>
            <path class="st1" d="M875.2 925l-41.2 90.2"/>
            <path class="st1" d="M817.2 1059l-34.2 78.3"/>
            <path class="st1" d="M758.2 1172.9l-36.7 36.9"/>
            <path class="st1" d="M624.2 1156.6l55.5 34.8"/>
            <path class="st1" d="M914 802.8l-29.2 6.7"/>
            <path class="st1" d="M850.8 838.2L817.1 881"/>
            <path class="st1" d="M750.6 1015.2l44-97"/>
            <path class="st1" d="M688.6 1079.6l32.9-30.7"/>
            <path class="st1" d="M657.6 1054.1l-68.2-84"/>
            <path class="st1" d="M884.8 262.8s-19.6 9.6-27.4 29.9c-7.8 20.3-14.2 51.2-14.2 51.2s-58.4-13.9-58-49.1 22.6-77.8 22.6-77.8"/>
            <path class="st1" d="M817.6 372.6c25.9 0 46.9 21 46.9 46.9s-21 59.7-46.9 59.7-46.9-33.8-46.9-59.7 21-46.9 46.9-46.9z"/>
            <path class="st1" d="M770.7 552.1c0 38.1 21 54 46.9 54s46.9-16 46.9-54c0-38.1-21-72.9-46.9-72.9-25.9.1-46.9 34.8-46.9 72.9z"/>
            <path class="st1" d="M866.3 591.2l95.3 35.8"/>
            <path class="st1" d="M1148.3 671.7l56.5 6.3"/>
            <path class="st1" d="M1165.6 742.2l39.2 4.4"/>
            <path class="st1" d="M1245.1 687.6l64 16.3"/>
            <path class="st1" d="M1350.6 694.3l99.5-113.7"/>
            <path class="st1" d="M1247.5 764.7c16.8 0 61.6 39.4 61.6 39.4"/>
            <path class="st1" d="M1350.6 796.1l128-116"/>
            <path class="st1" d="M1134.1 865.8l27.9 18"/>
            <path class="st1" d="M1187.1 925l41.2 90.2"/>
            <path class="st1" d="M1245.1 1059l34.1 78.3"/>
            <path class="st1" d="M1304 1172.9l36.7 36.9"/>
            <path class="st1" d="M1438 1156.6l-55.4 34.8"/>
            <path class="st1" d="M1148.3 802.8l29.1 6.7"/>
            <path class="st1" d="M1211.4 838.2l33.8 42.8"/>
            <path class="st1" d="M1311.6 1015.2l-44-97"/>
            <path class="st1" d="M1373.7 1079.6l-33-30.7"/>
            <path class="st1" d="M1404.6 1054.1l68.2-84"/>
            <path class="st1" d="M1177.4 262.8s19.6 9.6 27.4 29.9c7.8 20.3 14.2 51.2 14.2 51.2s58.4-13.9 58-49.1c-.4-35.2-22.6-77.8-22.6-77.8"/>
            <path class="st1" d="M1197.7 419.6c0 25.9 21 59.7 46.9 59.7s46.9-33.8 46.9-59.7-21-46.9-46.9-46.9c-25.9-.1-46.9 20.9-46.9 46.9z"/>
            <path class="st1" d="M1197.7 552.1c0-38.1 21-72.9 46.9-72.9s46.9 34.8 46.9 72.9c0 38.1-21 54-46.9 54-25.9.1-46.9-15.9-46.9-54z"/>
            <path class="st1" d="M1195.9 591.2l-95.2 35.8"/>
            <path class="st1" d="M985 1183.6h89.6"/>
            <path class="st1" d="M978.6 1118.1H1081"/>
            <path class="st1" d="M972.2 1052.6h115.2"/>
            <path class="st1" d="M965.8 987.2h128"/>
            <path class="st1" d="M959.4 921.7h140.8"/>
            <path class="st1" d="M953 856.2h153.6"/>
            <path class="st1" d="M1123.3 720.5c0 109.8-41.9 65.2-93.5 65.2s-93.5 42.9-93.5-65.2c0-51.6 41.9-93.5 93.5-93.5s93.5 41.9 93.5 93.5z"/>
            <path class="st1" d="M1029.8 548.6c38.9 0 70.4 17.5 70.4 39.2 0 21.6-31.5 39.2-70.4 39.2-38.9 0-70.4-17.5-70.4-39.2 0-21.6 31.5-39.2 70.4-39.2z"/>
            <path class="st1" d="M975.8 529.9c-10.3-17.8-4.2-40.7 13.7-51"/>
            <path class="st1" d="M1083.8 529.9c10.3-17.8 4.2-40.7-13.7-51"/>
            <path class="st1" d="M817.6 1537.7c0 43.4-5 103.8-44.8 103.8-24.9 0-36.3-26.3-36.3-51.2 0-56.3 81.1-25.6 81.1-52.6z"/>
            <path class="st1" d="M720.9 1474.4h44.8c27 0 51.9 19.9 51.9 63.3"/>
        </g>
    </g>
</svg>
