<svg xmlns="http://www.w3.org/2000/svg" viewBox="0 0 1920 1920">
    <style>
        .st0{fill:#fff}.st1{fill:none;stroke:#000;stroke-width:50;stroke-linecap:round;stroke-linejoin:round;stroke-miterlimit:10}
    </style>
    <path class="st0" d="M1168.1 1092.6c17.1 26.5 36 63.7 44.9 108.4l-44.2-89.6s-46.3 73-77.9 124.2L1043 1105l-32.7 73.3-33.2 74.6h-58.9L885.8 1111l-42.3 141.9h-36.8c-10.1 0-20.3-.3-30.4-.9l-104.5-122.6-82.3 48.9v-129.5h498.2c28.7 0 55.7 12.8 73.7 34.6 2.4 2.9 4.7 5.9 6.7 9.2zM445 530.5c-15.4 0-27.6 12.9-26.7 28.3l4.1 69.2H575l4.1-69.2c.9-15.3-11.3-28.3-26.7-28.3H445zm144.5 647.9v46.6l135.6 21.5c17 2.7 34 4.5 51.2 5.6l-104.5-122.6-82.3 48.9zm-174.2-172.3l-48.8 49.3-19.9 20.1L551 1201.3l38.5-22.9v-129.5l-174.2-42.8zm907.2 175.6c-9-18.8-20.3-34.1-32.7-46.4-50.8-50.5-120.3-51.9-128.4-51.9 2.4 2.9 4.7 5.9 6.7 9.2 17.1 26.5 36 63.7 44.9 108.4l24.2 49.1c20.1-3.2 28.9-5.2 40.2-8.7v.1s56 62.5 154.7 57.6c98.8-4.9 202.5-41.1 225.5-131.7 0 0-79 57.6-128.4 49.4 0 0 56-139.9 174.5-130 0 0-143.2-79-265 87.2.1-.1-71.2-25.6-116.2 7.7zM313.6 893l-.9.1-53.6 42.6c-12 9.6-13.5 27.3-3.2 38.7l71.8 80c10.3 11.4 28 11.9 38.9.9l48.8-49.3-101.8-113.2v.2zm-56.1-234.8c-10.3 11.5-8.8 29.2 3.3 38.7l54.3 43.2L417 626.5l-48.8-49.3c-10.8-10.9-28.6-10.5-38.9.9l-71.8 80.1zM575.1 628s58.8 39 164.2 85.1C844.6 759.2 885.8 695 885.8 695S792 721.3 764 630.8c-13-41.8-40.3-66.8-66-81.6-29-16.7-66-7.7-84.4 20.2L575.1 628zm268.4 624.9h74.7L885.8 1111l-42.3 141.9zm166.8-74.6l8.8 74.6h61.1c3.3-5.4 6.9-11.2 10.7-17.4L1043 1105l-32.7 73.3zm158.6-66.9s-46.3 73-77.9 124.2l6.4 17.4h120.9c0-18.2-1.9-35.6-5.2-51.9l-44.2-89.7zM216.2 870c-.1 15.4 12.8 27.6 28.2 26.8l68.3-3.8.7-.5.3.3.7-152.4-69.2-4.4c-15.3-1-28.3 11.2-28.4 26.5l-.6 107.5z" id="Layer_6"/>
    <g id="Layer_1">
        <g id="XMLID_1_">
            <path class="st1" d="M552.5 530.5c15.4 0 27.6 12.9 26.7 28.3l-4.1 69.2H422.5l-4.1-69.2c-.9-15.3 11.3-28.3 26.7-28.3h107.4z"/>
            <path class="st1" d="M368.1 577.3l48.8 49.3L315 740.2 260.8 697c-12-9.6-13.5-27.3-3.3-38.7l71.8-80c10.2-11.5 28-12 38.8-1z"/>
            <path class="st1" d="M415.3 1006.1L313.6 892.8l-.3-.3-.7.5-53.6 42.6c-12 9.6-13.5 27.3-3.2 38.7l71.8 80c10.3 11.4 28 11.9 38.9.9"/>
            <path class="st1" d="M312.7 893l-68.3 3.8c-15.4.8-28.2-11.4-28.2-26.8l.5-107.5c.1-15.4 13.1-27.5 28.4-26.5l69.2 4.4-.7 152.4v.2h-.9z"/>
            <path class="st1" d="M415.3 1006.1l174.2 42.7V1225l-38.5-23.7-204.5-125.8 20-20.1z"/>
            <path class="st1" d="M589.5 1048.8h498.2c28.7 0 55.7 12.8 73.7 34.6 2.4 2.9 4.7 5.9 6.7 9.2 17.1 26.5 36 63.7 44.9 108.4 3.3 16.4 5.2 33.8 5.2 51.9H806.7c-10.1 0-20.3-.3-30.4-.9-17.1-1-34.2-2.9-51.2-5.6L589.5 1225"/>
            <path class="st1" d="M795.2 1274.3l-19-22.2-104.4-122.6-82.3 48.9-38.5 22.9-45.5 26.9-60.9 87.3-49.3 37.8"/>
            <path class="st1" d="M843 1254.6l.5-1.7 42.3-141.9 32.3 141.9 7.2 31.3v87.2l44.4 18.2"/>
            <path class="st1" d="M963.1 1284.2l14-31.3 33.2-74.6 32.7-73.3 47.9 130.6 6.4 17.3 20.5 56v52.7l39.5 19.7"/>
            <path class="st1" d="M1282.4 1239.8c-1.7.6-3.4 1.1-5 1.6-11.3 3.5-20.2 5.6-40.2 8.7-5.4.8-11.7 1.8-19 2.8"/>
            <path class="st1" d="M1160.6 1083.4h.8c8 0 77.5 1.5 128.4 51.9 12.4 12.3 23.7 27.6 32.7 46.4"/>
            <path class="st1" d="M764 630.8c28 90.5 121.8 64.2 121.8 64.2s-41.1 64.2-146.5 18.1S575.1 628 575.1 628l38.6-58.5c18.4-27.9 55.4-36.9 84.4-20.2C723.7 564 751 589 764 630.8z"/>
            <path class="st1" d="M1061.9 1284.2c.4-1.7 7.7-14 18.3-31.3 3.3-5.4 6.9-11.2 10.7-17.4 31.7-51.2 77.9-124.2 77.9-124.2l44.2 89.6 24.2 49.1 46.8 95 36.2 23"/>
            <path class="st1" d="M1277.5 1241.4s56 62.5 154.7 57.6c98.8-4.9 202.5-41.1 225.5-131.7 0 0-79 57.6-128.4 49.4 0 0 56-139.9 174.5-130 0 0-143.2-79-265 87.2 0 0-71.3-25.5-116.3 7.8"/>
            <path class="st1" d="M1289 1136.1l.8-.8c5.3-5 37.7-32.9 94.7-23.9"/>
            <path class="st1" d="M805.1 1057.1c0 4.9 18.1 190.9 18.1 190.9"/>
            <path class="st1" d="M996 1057.1l14.3 121.2 8.8 74.6"/>
        </g>
    </g>
</svg>
