<svg xmlns="http://www.w3.org/2000/svg" viewBox="0 0 1920 1920">
    <style>
        .st0{fill:#fff}.st1{fill:none;stroke:#000;stroke-width:50;stroke-linecap:round;stroke-linejoin:round;stroke-miterlimit:10}
    </style>
    <path class="st0" d="M1099.9 1254.9c-2.2-31.4-5.1-62.8-8.8-94.2-1-8.9-2.2-17.9-3.3-26.8l-3.4-25.6c-1.4-10.2-3.5-20.3-6.4-30.2l-9.4-31.4c-9.5-31.9-14.3-64.9-14.3-97.9 0-31.6 4.4-63.1 13.1-93.8h-214c17.9 62.7 17.4 129.2-1.2 191.7l-9.8 32.9c-2.7 8.9-4.7 18-6 27.2a1944.56 1944.56 0 0 0-8.6 501.5l5.3 46.8c3.1 27.3 26.2 48 53.7 48h146.9c27.7 0 50.9-21 53.7-48.6l7.1-69.7c11.1-109.7 13-220 5.4-329.9z" id="Layer_5"/>
    <path class="st0" d="M1034 775v80.1H886V775h74z" id="Layer_6"/>
    <g id="STROKES">
        <path class="st1" d="M960 215v560"/>
        <path class="st1" d="M1034 855.1h33.4c-8.7 30.7-13.1 62.2-13.1 93.8 0 33 4.8 66 14.3 97.9l9.4 31.4c2.9 9.9 5.1 19.9 6.4 30.1l3.4 25.6c1.2 8.9 2.3 17.9 3.3 26.8 3.7 31.3 6.6 62.7 8.8 94.2 7.5 109.8 5.7 220.2-5.5 329.9l-7.1 69.7c-2.8 27.6-26 48.6-53.7 48.6H886.7c-27.5 0-50.6-20.7-53.7-48l-5.3-46.8a1944.56 1944.56 0 0 1 8.6-501.5c1.3-9.2 3.4-18.2 6-27.2l9.8-32.9c18.6-62.5 19.1-129 1.2-191.6H1034z"/>
        <path class="st1" d="M1034 855.1V775H886v80.1"/>
        <path class="st1" d="M857.8 1058.9H1063"/>
        <path class="st1" d="M1099 1255h-92c-25.9 0-47-21-47-47 0-13 5.3-24.7 13.8-33.2 8.5-8.5 20.3-13.8 33.2-13.8h82"/>
        <path class="st1" d="M1101 1436.5H961c-25.9 0-47-21-47-47 0-13 5.3-24.7 13.8-33.2 8.5-8.5 20.3-13.8 33.2-13.8h130"/>
        <path class="st1" d="M1091 1618h-68c-25.9 0-47-21.1-47-47 0-13 5.3-24.7 13.8-33.2 8.5-8.5 20.3-13.8 33.2-13.8h72"/>
    </g>
</svg>
