<svg xmlns="http://www.w3.org/2000/svg" viewBox="0 0 1920 1920">
    <style>
        .st0{fill:#fff}.st1{fill:none;stroke:#000;stroke-width:50;stroke-linecap:round;stroke-linejoin:round;stroke-miterlimit:10}
    </style>
    <path class="st0" d="M1035 1628.1H885l26.2-597.9.2-.2c13.1 11.1 30 17.9 48.6 17.9s35.5-6.7 48.6-17.9l.2.2 26.2 597.9zM885 972.8c0 22.9 10.2 43.4 26.4 57.1 13.1 11.1 30 17.9 48.6 17.9s35.5-6.7 48.6-17.9c16.2-13.8 26.4-34.2 26.4-57.1H885zm75 730.3c41.4 0 75-33.6 75-75H885c0 41.4 33.6 75 75 75z" id="Layer_4"/>
    <g id="STROKES">
        <path class="st1" d="M956.2 223.6v749.2"/>
        <path class="st1" d="M976.2 268.6l-20 40.5"/>
        <path class="st1" d="M936.2 268.6l20 40.5"/>
        <path class="st1" d="M956.2 972.8h78.8c0 22.9-10.2 43.4-26.4 57.1-13.1 11.1-30 17.9-48.6 17.9s-35.5-6.7-48.6-17.9c-16.2-13.8-26.4-34.2-26.4-57.1h71.2z"/>
        <path class="st1" d="M1035 1628.1c0 41.4-33.6 75-75 75s-75-33.6-75-75"/>
        <path class="st1" d="M911.2 1030.2L885 1628.1h150l-26.2-597.9"/>
    </g>
</svg>
