<svg xmlns="http://www.w3.org/2000/svg" viewBox="0 0 1920 1920">
    <style>
        .st0{fill:#fff}.st1{fill:none;stroke:#231f20;stroke-width:50;stroke-linecap:round;stroke-linejoin:round;stroke-miterlimit:10}
    </style>
    <path class="st0" d="M359.5 373.5l.1.1s-.1 0-.1-.1zm-25-12.5c.1 0 .2.1.4.1-.2-.1-.3-.1-.4-.1zm1003.1 67.1c-357.5 0-357.5 273.3-715 273.3-92.6 0-164.2-27.5-225.5-65.8-6.2-3.8-12.2-7.8-18.1-11.8-51.1-34.8-95.3-76.3-139.4-113.9-7.5-6.4-15.1-12.7-22.6-18.9v594c0 4.4 0 8.8.1 13.1 7.2 388.1 453.6 602.7 762 367 89.7-68.6 179.1-137.4 358.5-137.4 73.1 0 133.1 17.2 185.3 43.2V569.4c0-49.8 40.3-90.1 90.1-90.1 9.9 0 19.5 1.6 28.5 4.6-72.2-34.8-156.5-55.8-303.9-55.8z" id="Layer_2"/>
    <path class="st0" d="M1703 572.2c-1.3 42.7-32.3 77.9-73.1 85.7-.4.1-.7.1-1.1.2-.7.1-1.5.3-2.2.4-1 .2-2 .3-3 .4h-.9c-.5.1-.9.1-1.4.1h-1.2c-.3 0-.6 0-.8.1h-1.2c-.4 0-.8.1-1.2.1h-4.1c-1 0-2.1 0-3.1-.1h-.8c-.9 0-1.8-.1-2.7-.1h-.4c-.3 0-.5 0-.8-.1h-.4c-.3 0-.7-.1-1-.1-.4 0-.8-.1-1.2-.1h-.1c-.3 0-.7-.1-1-.1h-.2l-4.2-.6h-.1c-.7-.1-1.5-.3-2.2-.4-1.4-.3-2.9-.6-4.3-1l-2.1-.6h-.1c-1.3-.4-2.5-.8-3.8-1.2-.1 0-.2-.1-.4-.1-.6-.2-1.3-.4-1.9-.7-.8-.3-1.5-.6-2.2-.8-.8-.3-1.6-.7-2.4-1-.2-.1-.3-.1-.4-.2-.6-.3-1.2-.6-1.9-.8l-.6-.3c-.6-.3-1.1-.5-1.7-.8-.2-.1-.5-.2-.7-.3-.6-.3-1.3-.7-1.9-1-.2-.1-.5-.3-.7-.4-.6-.3-1.1-.6-1.7-1-.3-.2-.6-.4-1-.6-.4-.2-.8-.5-1.1-.7-.3-.2-.7-.4-1-.6-.4-.2-.8-.5-1.1-.7l-.9-.6c-.7-.4-1.3-.9-1.9-1.3-1.1-.8-2.2-1.6-3.2-2.4-.1-.1-.2-.1-.2-.2l-.1-.1-.1-.1c-1-.8-1.9-1.6-2.9-2.4-.1-.1-.3-.2-.4-.4-.9-.8-1.9-1.6-2.8-2.5-.2-.1-.3-.3-.4-.4-.9-.9-1.8-1.7-2.6-2.6l-.4-.4c-.9-1-1.8-1.9-2.7-2.9l-.1-.1c-.8-.9-1.6-1.9-2.4-2.9-.4-.5-.7-.9-1.1-1.3-.4-.5-.7-1-1.1-1.4-.1-.2-.2-.3-.4-.5l-1.5-2.1c-.1-.1-.1-.2-.2-.3-.5-.7-1-1.5-1.5-2.2-.1-.1-.2-.2-.2-.4-.5-.7-.9-1.5-1.3-2.2-.1-.2-.3-.5-.4-.7l-1.2-2.1c-.2-.5-.5-.9-.7-1.4 0-.1-.1-.2-.2-.3-.1-.2-.2-.5-.4-.8-.5-1-1-2.1-1.5-3.2-.4-.9-.8-1.9-1.2-2.8-.1-.1-.1-.3-.2-.4-.3-.8-.6-1.5-.9-2.3 0 0 0-.1-.1-.1-.2-.5-.4-.9-.5-1.4l-.3-.9c-.2-.7-.4-1.3-.7-2 0-.1-.1-.2-.1-.3-.3-.9-.6-1.9-.8-2.8-.1-.2-.1-.5-.2-.7-.5-1.9-1-3.9-1.3-5.9 0-.2-.1-.5-.1-.7-.4-2-.7-4-.9-6 0-.2-.1-.5-.1-.7-.2-2-.4-4.1-.5-6.1v-.8c0-1-.1-2.1-.1-3.1v831.9c0 24.9 10.1 47.4 26.4 63.7 16.3 16.3 38.8 26.4 63.7 26.4 20.4 0 39.3-6.8 54.4-18.3 21.7-16.4 35.7-42.5 35.7-71.8V569.4c.1.9 0 1.9 0 2.8zM307 536.9c-49.7 0-90-40.3-90.1-90v44c7.6 6.1 15.1 12.5 22.6 18.9 44.1 37.6 88.3 79.1 139.4 113.9 6 4 12 8 18.1 11.8V446.8c.1 49.7-40.2 90.1-90 90.1z" id="Layer_10"/>
    <path class="st0" d="M307 356.7c-12.3 0-24 2.5-34.6 6.9-1.3.6-2.7 1.2-4 1.8-1.3.6-2.6 1.3-3.9 2-1.3.7-2.5 1.4-3.7 2.1-2.5 1.5-4.8 3.1-7.1 4.8-3.5 2.5-6.7 5.3-9.8 8.3-8.1 8-14.8 17.5-19.4 28.1-4.9 11.1-7.6 23.3-7.6 36.2v.1c0 49.7 40.4 90 90.1 90 49.8 0 90.1-40.3 90.1-90.1 0-23.7-9.2-45.3-24.1-61.4-16.5-17.7-39.9-28.8-66-28.8zm1396 209.9c0-.9-.1-1.7-.1-2.5v-.8c0-.3 0-.7-.1-1-.1-.7-.1-1.4-.2-2.1 0-.4-.1-.7-.1-1.1-.1-.6-.1-1.2-.2-1.7-.1-.6-.2-1.2-.2-1.8v-.2l-.3-1.8c-.1-.6-.2-1.3-.4-1.9 0-.2-.1-.4-.1-.7-.1-.7-.3-1.4-.5-2.1-.1-.5-.2-1-.4-1.5 0-.1 0-.2-.1-.2-.3-1.2-.6-2.3-.9-3.4 0-.1 0-.2-.1-.2-.3-1-.7-2.1-1-3.1-.2-.5-.4-1.1-.6-1.6-.1-.4-.3-.7-.4-1.1-.1-.2-.1-.3-.2-.5 0-.1-.1-.2-.1-.3-.2-.5-.4-1.1-.7-1.6-.1-.3-.2-.6-.4-.9-.3-.6-.5-1.3-.8-1.9 0 0 0-.1-.1-.2-.2-.5-.4-.9-.6-1.3-.2-.3-.3-.7-.5-1-.1-.2-.2-.3-.2-.5-.3-.5-.5-1-.8-1.5-.1-.1-.1-.2-.2-.3-.2-.4-.4-.7-.6-1.1-.1-.2-.3-.5-.4-.8-.1-.3-.3-.6-.5-.8-.2-.3-.3-.6-.5-.8-.2-.4-.5-.9-.8-1.3l-.4-.6-.1-.1-.9-1.5c-.2-.3-.3-.5-.5-.8-.3-.4-.6-.9-.9-1.3-.1-.1-.2-.3-.3-.4-.2-.3-.4-.6-.7-1 0-.1-.1-.2-.2-.2-.1-.2-.2-.3-.3-.5-.3-.4-.7-.9-1-1.3-.2-.3-.5-.7-.7-1-.1-.1-.2-.2-.3-.4-.6-.8-1.3-1.6-1.9-2.4-.2-.2-.3-.4-.5-.6-.8-.9-1.5-1.7-2.3-2.6l-.2-.2c-.7-.8-1.5-1.5-2.2-2.3-.2-.2-.3-.4-.5-.5l-1.7-1.7c-.3-.2-.5-.5-.8-.7-.3-.2-.5-.5-.8-.7-.1-.1-.2-.2-.4-.3-.3-.2-.5-.5-.8-.7-.3-.2-.6-.5-.8-.7 0 0 0-.1-.1-.1l-1.8-1.5c-.2-.2-.4-.3-.6-.5-.9-.7-1.9-1.4-2.8-2.1-7.9-4.3-15.9-8.4-24.1-12.3-8.9-3-18.5-4.6-28.5-4.6-49.8 0-90.1 40.3-90.1 90.1 0 1 0 2.1.1 3.1v.8c.1 2.1.2 4.1.5 6.1 0 .2.1.5.1.7.2 2 .5 4 .9 6 0 .2.1.4.1.7.4 2 .8 3.9 1.3 5.9.1.2.1.5.2.7.3 1 .5 1.9.8 2.8 0 .1.1.2.1.3.2.7.4 1.4.7 2l.3.9.3.9c.1.2.1.3.2.5 0 0 0 .1.1.1.3.8.6 1.5.9 2.3.1.1.1.3.2.4.4.9.8 1.9 1.2 2.8.5 1.1 1 2.1 1.5 3.2.1.2.2.5.4.8.1.1.1.2.2.3.2.5.5.9.7 1.4.3.5.5.9.8 1.4.1.2.2.5.4.7.1.2.3.5.4.7.4.7.9 1.5 1.3 2.2.1.1.2.2.2.4.5.8 1 1.5 1.5 2.2.1.1.1.2.2.3a6450447906384303 6450447906384303 0 0 1 3 4c.2.3.5.6.7.9.1.2.2.3.4.4.8 1 1.5 1.9 2.4 2.9l.1.1c.9 1 1.8 2 2.7 2.9l.4.4c.9.9 1.7 1.8 2.6 2.6l.4.4c.9.9 1.8 1.7 2.8 2.5.1.1.3.2.4.4.9.8 1.9 1.6 2.9 2.4l.1.1.1.1c.1.1.2.1.2.2 1.1.8 2.1 1.6 3.2 2.4.6.5 1.3.9 1.9 1.3l.9.6c.4.2.7.5 1.1.7.3.2.7.4 1 .6.4.2.8.5 1.1.7.3.2.7.4 1 .6.6.3 1.1.6 1.7 1 .2.1.5.2.7.4.6.3 1.3.7 1.9 1 .2.1.4.2.7.3.5.3 1.1.5 1.7.8l.6.3c.6.3 1.2.6 1.9.8.1.1.3.1.4.2.8.3 1.6.7 2.4 1 .7.3 1.5.6 2.2.8s1.5.5 2.3.8c1.2.4 2.5.8 3.8 1.2h.1l2.1.6c1.4.4 2.9.7 4.3 1 .7.2 1.5.3 2.2.4h.1c1.4.2 2.8.5 4.2.6.4 0 .8.1 1.2.2h.1c.4 0 .8.1 1.2.1.3 0 .7.1 1 .1h.4c.4 0 .8.1 1.1.1.9.1 1.8.1 2.7.1h.8c1 0 2.1.1 3.1.1h4.1c.4 0 .8 0 1.2-.1h1.2c.3 0 .6 0 .8-.1.3 0 .6-.1 1-.1h.2c.5 0 1-.1 1.4-.1h.9c.6-.1 1.3-.2 1.9-.2.4 0 .7-.1 1.1-.2l1.1-.2c.4-.1.7-.1 1.1-.2.4-.1.7-.1 1.1-.2 40.1-7.7 70.9-42.4 73-83.9 0-.6.1-1.1.1-1.7 0-.9.1-1.9.1-2.8.2-.9.1-1.8.1-2.8z" id="Layer_11"/>
    <g id="STROKES">
        <path class="st1" d="M1613 659.5c-49.8 0-90.1-40.3-90.1-90.1s40.3-90.1 90.1-90.1c10 0 19.5 1.6 28.5 4.6 8.7 2.9 16.8 7.1 24.1 12.3 22.7 16.4 37.5 43 37.5 73.2 0 49.8-40.4 90.1-90.1 90.1z"/>
        <path class="st1" d="M1613 659.5c-49.8 0-90.1-40.3-90.1-90.1s40.3-90.1 90.1-90.1c10 0 19.5 1.6 28.5 4.6 8.7 2.9 16.8 7.1 24.1 12.3 22.7 16.4 37.5 43 37.5 73.2 0 49.8-40.4 90.1-90.1 90.1z"/>
        <path class="st1" d="M397.1 635.5c-6.2-3.8-12.2-7.8-18.1-11.8-51.1-34.8-95.3-76.3-139.4-113.9-7.5-6.4-15.1-12.7-22.6-18.9v-44.1c0-49.8 40.3-90.1 90.1-90.1s90.1 40.3 90.1 90.1v188.7z"/>
        <circle class="st1" cx="307" cy="446.8" r="90.1"/>
        <path class="st1" d="M1613 1491.4c-24.9 0-47.4-10.1-63.7-26.4-16.3-16.3-26.4-38.8-26.4-63.7V569.4c0 49.8 40.3 90.1 90.1 90.1s90.1-40.3 90.1-90.1v831.9c0 29.3-14 55.3-35.7 71.8-15.1 11.5-34 18.3-54.4 18.3z"/>
        <path class="st1" d="M979.1 1465.1c-308.4 235.7-754.8 21.1-762-367-.1-4.3-.1-8.7-.1-13.1V490.9c7.6 6.1 15.1 12.5 22.6 18.9 44.1 37.6 88.3 79.1 139.4 113.9 5.9 4 12 8 18.1 11.8 61.3 38.3 132.9 65.8 225.5 65.8 357.5 0 357.5-273.3 715-273.3 147.4 0 231.7 21.1 303.8 55.8 8.2 3.9 16.2 8 24.1 12.3 2.1 1.5 4.2 3.2 6.2 4.9.7.6 1.3 1.2 2 1.7 3.8 3.4 7.2 7.2 10.4 11.2.3.5.7.9 1 1.4.2.3.5.6.7.9.1.2.3.4.4.6.4.5.8 1.1 1.1 1.6.4.6.9 1.3 1.3 1.9.4.6.7 1.1 1.1 1.7.1.2.2.4.3.5.3.5.6 1 .8 1.5.3.6.7 1.1.9 1.7.4.6.7 1.2 1 1.8l.6 1.2.6 1.2c.4.8.8 1.6 1.1 2.4.2.4.3.8.5 1.1.4.9.7 1.7 1.1 2.6.2.4.3.8.5 1.2.1.4.3.8.4 1.1.3.9.6 1.8.9 2.6.1.4.3.9.4 1.3.1.4.3.9.4 1.3.1.4.2.7.3 1.1 0 .2.1.4.2.5.2.8.4 1.5.6 2.2.7 2.6 1.2 5.3 1.6 8 .1.5.1.9.2 1.4.3 2 .5 3.9.6 5.9 0 .3.1.7.1 1v.6c0 .6.1 1.2.1 1.9v3.1c0 1.5 0 3-.1 4.5-2.1 41.6-32.8 76.2-73 83.9-.7.1-1.5.3-2.2.4-.7.1-1.5.2-2.2.3-.7.1-1.4.2-2.2.3h-.2c-.7.1-1.3.1-2 .2h-.4c-.6 0-1.2.1-1.9.1h-.5c-.5 0-.9.1-1.4.1-.4 0-.8 0-1.1.1h-3c-2.3 0-4.6-.1-6.9-.3-1.5-.1-3-.3-4.5-.5-6-.8-11.8-2.1-17.4-4-1.4-.5-2.8-1-4.1-1.5-6.8-2.7-13.2-6.2-19.1-10.4-1.2-.8-2.3-1.7-3.5-2.6-4.5-3.6-8.7-7.6-12.5-11.9-.9-1.1-1.9-2.2-2.8-3.3-1.3-1.7-2.6-3.5-3.8-5.2-1.1-1.6-2.1-3.2-3-4.8-.3-.5-.5-.9-.8-1.4-.6-1-1.2-2.1-1.7-3.1-.7-1.3-1.3-2.6-1.9-3.9-.9-2-1.7-4-2.5-6.1-.5-1.4-1-2.8-1.4-4.2-2.6-8.5-4.1-17.5-4.1-26.8v801.5c-52.2-26.1-112.2-43.2-185.3-43.2-179.2.3-268.6 69.1-358.3 137.7z"/>
    </g>
</svg>
