<svg xmlns="http://www.w3.org/2000/svg" viewBox="0 0 1920 1920">
    <style>
        .st0{fill:#fff}.st1{fill:none;stroke:#231f20;stroke-width:50;stroke-linecap:round;stroke-linejoin:round;stroke-miterlimit:10}
    </style>
    <path class="st0" d="M1607.8 217.4c-3.1-.3-6.2-.4-9.4-.4H530.7h4.8c.5 0 .9 0 1.4.1.4 0 .8 0 1.1.1.5 0 1.1.1 1.6.1.3 0 .5.1.8.1.7.1 1.3.1 2 .2h.4c.8.1 1.5.2 2.2.3 1.5.2 3 .4 4.4.7 41.9 7.6 75.1 40.1 83.6 81.7.2.7.3 1.5.4 2.2.3 1.5.5 2.9.7 4.4.1.7.2 1.5.3 2.2v.4c.1.7.1 1.3.2 2 0 .3.1.6.1.8 0 .5.1 1.1.1 1.7 0 .4 0 .8.1 1.1 0 .5 0 .9.1 1.4 0 .4 0 .9.1 1.3v3.5c0 41.8-24.5 77.8-59.9 94.6-4.8 2.3-3.2 9.6 2.2 9.6h1030.3c53.4-4.7 95.2-49.5 95.2-104.2.1-54.4-41.7-99.2-95.1-103.9z" id="Layer_7"/>
    <path class="st0" d="M577.5 425.7c-5.4 0-7-7.3-2.2-9.6 35.4-16.8 59.9-52.8 59.9-94.6V318c0-.4 0-.9-.1-1.3 0-.5 0-.9-.1-1.4 0-.4 0-.8-.1-1.1 0-.6-.1-1.1-.1-1.7 0-.3 0-.6-.1-.8-.1-.7-.1-1.3-.2-2v-.4c-.1-.8-.2-1.5-.3-2.2-.2-1.5-.5-2.9-.7-4.4-.1-.7-.3-1.5-.4-2.2-8.6-41.4-41.9-74-83.6-81.7-1.5-.3-2.9-.5-4.4-.7-.7-.1-1.5-.2-2.2-.3h-.4c-.7-.1-1.3-.1-2-.2-.3 0-.5 0-.8-.1-.5 0-1.1-.1-1.6-.1-.4 0-.8 0-1.1-.1-.5 0-.9-.1-1.4-.1h-4c-58.1-.4-105.3 46.6-105.3 104.6v1277c0 57.8-46.8 104.6-104.6 104.6h1067.8c57.8 0 104.6-46.8 104.6-104.6V425.7H577.5z" id="Layer_8"/>
    <circle class="st0" cx="321.5" cy="1598.5" r="104.6" id="Layer_9"/>
    <g id="STROKES">
        <circle class="st1" cx="321.5" cy="1598.5" r="104.6"/>
        <path class="st1" d="M1607.8 425.7c-3.1.3-6.2.4-9.3.4s-6.2-.1-9.3-.4h18.6z"/>
        <path class="st1" d="M1493.9 425.7v1172.8c0 57.8-46.8 104.6-104.6 104.6H321.5c57.8 0 104.6-46.8 104.6-104.6v-1277"/>
        <path class="st1" d="M426.1 321.5c0-58.2 47.6-105.4 106.1-104.6 56.2.8 102.1 46.5 103.1 102.8"/>
        <path class="st1" d="M1703 321.5c0 54.6-41.8 99.4-95.2 104.2H577.5c-5.4 0-7-7.3-2.2-9.6 35.4-16.8 59.9-52.8 59.9-94.6 0-57.8-46.8-104.6-104.6-104.6h1067.8c3.1 0 6.3.1 9.4.4 53.4 4.8 95.2 49.6 95.2 104.2z"/>
        <path class="st1" d="M1607.8 217v.4c-3.1-.3-6.2-.4-9.4-.4h9.4z"/>
        <path class="st1" d="M426.1 1598.5s-56.2 65.7-104.6 0"/>
    </g>
</svg>
