<svg xmlns="http://www.w3.org/2000/svg" viewBox="0 0 1920 1920">
    <style>
        .st0{fill:#fff}.st1{fill:none;stroke:#231f20;stroke-width:50;stroke-linecap:round;stroke-linejoin:round;stroke-miterlimit:10}
    </style>
    <path class="st0" d="M635.4 360.3h64.7c12-.3 19.1 0 19.1 0h481.5s7.1-.3 19.1 0h64.7s281.5-13.9 320.2 221.8C1604.6 217.7 998.5 217 998.5 217s-683.1.8-683.2 365.2C354 346.4 635.4 360.3 635.4 360.3zm737.1 668.3c-12.6 0-25.2-2.9-38-8.6-68.4-30.6-140.1-140.9-221-307.9-96-198.3-153.5-181.8-153.5-181.8S902.5 513.8 806.5 712c-80.9 167-152.6 277.3-221 307.9-12.8 5.7-25.5 8.6-38 8.6-66.4 0-185.8-66.2-224.3-257.2 15.6 164.9 55.1 279.4 125.7 351 33.3 33.8 73.4 58 121.3 73.5 184.4 59.7 156.3-167.3 389.8-167.3 95.1 0 146.8 37.7 187.1 78.3 17.8 17.9 33.4 36.4 49.5 52.4 37.1 37 77 61.2 153.2 36.6 149.3-48.4 224-181.9 247-424.5-38.6 191.1-157.9 257.3-224.3 257.3z" id="Layer_2"/>
    <path class="st0" d="M1604.7 582.1c-38.7-235.7-320.2-221.8-320.2-221.8h-64.7c29.7.9 89.8 6 148.9 31.2-59.1-25.2-119.2-30.3-148.9-31.2H700.1c-27.3.8-80.2 5.2-134.4 25.4 54.2-20.2 107.1-24.6 134.4-25.4h-64.7s-281.5-13.9-320.2 221.8c-2.9 17.4-4.4 36.1-4.4 56.4 0 49.8 4.5 94 12.3 132.9 38.5 191 157.9 257.2 224.3 257.2 12.6 0 25.2-2.9 38-8.6-82.5-29.3-190.9-136.8-190.9-381.5 0-116.4 50.9-184.3 112.3-223.8-61.3 39.5-112.1 107.3-112.1 223.8 0 244.7 108.4 352.2 190.9 381.5 68.4-30.6 140.1-140.9 221-307.9C902.5 513.8 960 530.3 960 530.3s57.5-16.5 153.5 181.8c80.8 167 152.6 277.3 221 307.9 82.5-29.3 190.9-136.8 190.9-381.5 0-126.2-59.8-195.3-128-233.1 68.2 37.8 128 106.9 128 233.1 0 244.7-108.4 352.2-190.9 381.5 12.8 5.7 25.4 8.6 38 8.6 66.4 0 185.8-66.2 224.3-257.2 7.9-38.9 12.3-83.1 12.3-132.9 0-20.3-1.5-39-4.4-56.4z" id="Layer_5"/>
    <circle class="st0" cx="965" cy="1408.7" r="121.5" id="Layer_7"/>
    <path class="st0" d="M1298.2 1260.6c-67-86.9-191.1-145.3-333.1-145.3-142.1 0-266.2 58.4-333.1 145.3H502v47.7H217v200.9h285v47.7h129.8c67 86.9 191.1 145.3 333.1 145.3 142.1 0 266.2-58.4 333.1-145.3h130v-296.3h-129.8zM965 1530.3c-67.1 0-121.5-54.4-121.5-121.5s54.4-121.5 121.5-121.5 121.5 54.4 121.5 121.5-54.3 121.5-121.5 121.5z" id="Layer_9"/>
    <g id="STROKES">
        <path class="st1" d="M719.2 360.3h-19.1c12.1-.4 19.1 0 19.1 0z"/>
        <path class="st1" d="M1219.8 360.3h-19.1c.1 0 7.1-.4 19.1 0z"/>
        <path class="st1" d="M585.5 1019.9c-12.8 5.7-25.5 8.6-38 8.6-66.4 0-185.7-66.2-224.3-257.2-7.9-38.9-12.4-83.1-12.4-132.9 0-20.2 1.5-39 4.4-56.4C354 346.4 635.4 360.3 635.4 360.3h64.7c-69.5 2-305.5 27.4-305.5 278.2.1 244.6 108.5 352.2 190.9 381.4z"/>
        <path class="st1" d="M1609.1 638.5c0 49.8-4.5 93.9-12.4 132.9-38.5 191-157.9 257.2-224.3 257.2-12.6 0-25.2-2.9-38-8.6 82.5-29.3 190.9-136.8 190.9-381.5 0-250.8-235.9-276.2-305.5-278.2h64.7s281.5-13.9 320.2 221.8c2.9 17.4 4.4 36.1 4.4 56.4z"/>
        <path class="st1" d="M1525.3 638.5c0 244.7-108.4 352.2-190.9 381.5-68.4-30.6-140.1-140.9-221-307.9C1017.5 513.8 960 530.3 960 530.3S902.5 513.8 806.5 712c-80.8 167-152.6 277.3-221 307.9-82.5-29.3-190.9-136.8-190.9-381.5 0-250.8 235.9-276.2 305.5-278.2h519.7c69.6 2.1 305.5 27.4 305.5 278.3z"/>
        <path class="st1" d="M315.3 582.1c.1-364.4 683.2-365.2 683.2-365.2s606.2.8 606.3 365.2"/>
        <path class="st1" d="M323.2 771.4c23 242.6 97.7 376.1 247 424.5 184.4 59.7 156.3-167.3 389.8-167.3s205.4 227 389.8 167.3c149.3-48.4 224-181.9 247-424.5"/>
        <path class="st1" d="M1350.9 1408.7c0 54-19.2 104.7-52.7 148.1-67 86.9-191.1 145.3-333.1 145.3s-266.2-58.4-333.1-145.3c-33.5-43.5-52.7-94.1-52.7-148.1s19.2-104.6 52.7-148.1c67-86.9 191.1-145.3 333.1-145.3s266.2 58.4 333.1 145.3c33.5 43.5 52.7 94.1 52.7 148.1z"/>
        <path class="st1" d="M631.9 1260.6c-33.5 43.5-52.7 94.1-52.7 148.1s19.2 104.7 52.7 148.1H502v-296.3h129.9z"/>
        <path class="st1" d="M1428 1260.6v296.3h-129.8c33.5-43.5 52.7-94.1 52.7-148.1s-19.2-104.6-52.7-148.1H1428z"/>
        <circle class="st1" cx="965" cy="1408.7" r="121.5"/>
        <path class="st1" d="M216.9 1308.3H502v200.9H216.9z"/>
    </g>
</svg>
