<svg xmlns="http://www.w3.org/2000/svg" viewBox="0 0 1920 1920">
    <style>
        .st0{fill:#fff}.st1{fill:none;stroke:#231f20;stroke-width:50;stroke-linecap:round;stroke-linejoin:round;stroke-miterlimit:10}
    </style>
    <path class="st0" d="M1190 1151.8c-.1 0-.1 0 0 0 0 0-116.1-53.6-149-58.9-12.1-1.9-28.9-3.4-47-2.6l16.2-141.9V560.2c0-15.2 4.9-29.2 13.3-40.6-.3-1.8-4.9-31.2-26.2-52.8-8.3-8.5-19.2-15.8-33.3-19.7-16.7-4.7-36.1-1.8-53.1 3.2 6.9-3.4 13.6-7.6 19.9-12.6 44.6-35.1 55.1-96.1 23.5-136.2-14.6-18.5-35.5-29.3-58.2-32.2l11.3 24.8-93.1 42.3-13.3-29.3c-2.4 2.7-4.6 5.5-6.7 8.4 10.9 5.5 18.5 16.8 18.5 29.9 0 18.5-15 33.4-33.4 33.4-1.5 0-3.1-.1-4.5-.3.7 17.9 6.6 35.4 18.2 50 22.2 28.2 59.3 38.6 94.9 30.1-11.6 5-19.2 9.4-19.2 9.4s-51.8 21.4-57.7 106.8c-2.6 38.9-6.8 75.4-6.8 109.3 0 29 3 56 12.6 80.8l-73.5 133.3s-8.7 15.3-8.7 30.2c0 6.7 1.8 13.4 7 18.5.5.5 1.1 1 1.7 1.5 0 0 4.4 10.2 16.2 21.3 11.8 11.1 30.9 23 60.4 26.5 0 75.9 6.8 149.9 30.8 174.8.8.8 1.6 1.6 2.4 2.2 0 0 26.7.6 64.3 2.8l49 245.3s49.4-22.2 43.8-69.1c-3.8-31.8-11-117.9-15.2-170.1 37.6 3.8 76.2 9.2 106.4 16.6 24.1 5.9 42.9 13.2 51.8 22.1 2.3 2.3 3.9 4.7 4.8 7.1 30.5-20.7 32.1-65.5 32.1-74.6-.2-.9-.2-1.5-.2-1.5z" id="Layer_10"/>
    <path class="st0" d="M896.1 269.3L872.3 217l-93.2 42.3 21.7 47.8 13.4 29.3 93.1-42.3z" id="Layer_11"/>
    <path class="st0" d="M794.2 315.5c-4.5-2.3-9.6-3.5-14.9-3.5-18.5 0-33.4 15-33.4 33.4 0 16.9 12.6 30.9 28.9 33.1 1.5.2 3 .3 4.5.3 18.5 0 33.4-15 33.4-33.4-.1-13.1-7.6-24.4-18.5-29.9z" id="Layer_12"/>
    <path class="st0" d="M1079.4 491.4h-.4c-22.8 0-43.1 11.1-55.6 28.2-8.3 11.4-13.3 25.4-13.3 40.6v388.1h138.1V560.2c.1-38-30.8-68.8-68.8-68.8z" id="Layer_13"/>
    <path class="st0" d="M1010.1 1546.7c-47.1-84.3 41-138 41-165.6 0-27.6-41-28.8-41-28.8 5.6 46.9-43.8 69.1-43.8 69.1s-97.8 48.6-19.5 193.1c78.2 144.5 211 70.2 211 70.2s-100.6-53.6-147.7-138zm224-374.8s-12-30.8-44.1-20.1v1.6c0 9.1-1.6 53.9-32.1 74.6s0 215.3-88.2 279.5c0 0 74.9 48.1 140.4-37.4 65.4-85.6 24-298.2 24-298.2z" id="Layer_14"/>
    <g id="STROKES">
        <path class="st1" d="M1148.3 948.4h-138.1V560.2c0-38 30.8-68.9 68.9-68.9h.4c38 0 68.9 30.8 68.9 68.9v388.2z"/>
        <path class="st1" d="M1148.3 848h-138.2"/>
        <path class="st1" d="M1079.2 491.4v-59.7"/>
        <path class="st1" d="M1010.1 876.4c0 58.8-56.9 77.6-56.9 77.6-1.3 57.5-33.4 159.1-33.4 159.1 34.8-26.7 91.8-24.9 121.1-20.1 32.9 5.3 149 58.9 149 58.9 32.1-10.7 44.1 20.1 44.1 20.1s41.4 212.6-24.1 298.2-140.4 37.4-140.4 37.4c88.2-64.2 88.2-279.5 88.2-279.5-8.8-24.5-87.7-38.3-163-45.9"/>
        <path class="st1" d="M1190 1151.8s2 53.1-32.1 76.2"/>
        <path class="st1" d="M966.3 1421.4l-49-245.3c23 1.4 50 3.3 77.6 6.1 4.2 52.2 11.5 138.3 15.2 170.1 5.6 46.9-43.8 69.1-43.8 69.1z"/>
        <path class="st1" d="M1010.1 1352.3s41 1.2 41 28.8-88.1 81.3-41 165.6c47.1 84.4 147.7 138 147.7 138s-132.8 74.2-211.1-70.2c-78.2-144.5 19.5-193.1 19.5-193.1"/>
        <path class="st1" d="M993.9 1090.4l16.2-142"/>
        <path class="st1" d="M819.9 996.2c0 78.4 7.2 154.7 33.1 177.1 0 0 26.7.6 64.3 2.8"/>
        <path class="st1" d="M825.3 863.2c-1.4 18.9-2.8 40.4-3.8 63.3"/>
        <path class="st1" d="M868.6 554.5l-15.9 145.3-35.9 65.1-73.5 133.3s-19.6 34.4 0 50.2"/>
        <path class="st1" d="M798.2 898.2l27.1-35 91.2-117.7L949 605.1"/>
        <path class="st1" d="M829.3 997c-3.3-.2-6.4-.4-9.5-.8-58.9-6.9-76.6-47.7-76.6-47.7l54.9-50.2s11.9 14 23.4 28.2c8.8 10.8 17.3 21.7 20.3 26.6 6.8 11.2-12.5 43.9-12.5 43.9z"/>
        <path class="st1" d="M816.8 764.9C796 711.2 806 647 810.9 574.8c5.8-85.4 57.7-106.8 57.7-106.8s55.6-32.1 95.4-20.9c51.3 14.4 59.5 72.6 59.5 72.6"/>
        <path class="st1" d="M930.8 437.7c-44.6 35.1-106.3 31-137.9-9.2-11.5-14.7-17.5-32.1-18.2-50 1.5.2 3 .3 4.5.3 18.5 0 33.4-15 33.4-33.4 0-13.1-7.5-24.4-18.5-29.9 2.1-2.9 4.3-5.7 6.7-8.4l13.3 29.3 93.1-42.3-11.2-24.8c22.7 2.9 43.7 13.7 58.2 32.2 31.7 40.1 21.2 101.1-23.4 136.2z"/>
        <path class="st1" d="M812.7 345.4c0 18.5-15 33.4-33.4 33.4-1.5 0-3.1-.1-4.5-.3-16.3-2.2-28.9-16.2-28.9-33.1 0-18.5 15-33.4 33.4-33.4 5.4 0 10.5 1.3 15 3.5 10.8 5.5 18.4 16.8 18.4 29.9z"/>
        <path class="st1" d="M907.3 294.1l-93.1 42.3-13.4-29.3-21.7-47.8 93.2-42.4 23.7 52.4z"/>
    </g>
</svg>
