<svg xmlns="http://www.w3.org/2000/svg" viewBox="0 0 1920 1920">
    <style>
        .st0{fill:#fff}.st1{fill:none;stroke:#000;stroke-width:50;stroke-linecap:round;stroke-linejoin:round;stroke-miterlimit:10}
    </style>
    <path class="st0" d="M1147.2 667.2s124.2-99 205.3-76c170.1 48.3 373.7 337.7 348.4 426.6-13.8 48.6-75.9 45-113.2 23.1-71.2-41.8-130.3-262-192.5-279.6-62.2-17.7-149-9.5-149-9.5-23.8-34.9-56.1-63.8-99-84.6zm26.2 652.6c-16.2 18.1-33.3 34.4-51 48.6-22.9 18.4-46.9 33.4-71 44.4 0 0 165.9 260.4 207.9 257.4s114-99 99-195c-14.9-96-184.9-155.4-184.9-155.4zM960 249.8c-43.7 0-173.2 77.6-173.2 173.2 0 51.3 22.3 97.4 57.7 129.1v90.4c33.8-7.7 72.1-11.8 115.5-11.8s81.7 4.1 115.5 11.8v-90.4c35.4-31.7 57.7-77.8 57.7-129.1 0-95.7-129.5-173.2-173.2-173.2zM753.3 1327.2s-161 52-176 148 56.9 195 99 195c44.9 0 156.7-255.2 201-253.6-27.1-11.2-54.1-27.5-79.7-48.2-15.3-12.2-30.1-26-44.3-41.2zm-185.8-736c-170.1 48.3-373.7 337.7-348.4 426.6 13.8 48.6 75.9 45 113.2 23.1 71.2-41.8 130.3-262 192.6-279.6 62.2-17.7 149-9.5 149-9.5 23.7-34.8 56-63.7 98.9-84.5 0-.1-124.3-99.1-205.3-76.1z" id="Layer_5"/>
    <path class="st0" d="M1270.8 796.7c23 52.7 32.1 114.6 32.1 180.4 0 38-4.2 74.8-11.9 110.1h-163.3L1043.9 942l83.8-145.2h143.1zm-227 435.6l78.6 136.1c17.7-14.2 34.8-30.5 51-48.6 54-60.5 97.5-141.2 117.5-232.7h-163.3l-83.8 145.2zM876.2 941.9l-83.8 145.2 83.8 145.2h167.7l83.8-145.2-83.8-145.2H876.2zm175.2 470.9c24.2-11 48.1-25.9 71-44.4l-78.6-136.1H876.2l-78.6 136.1c25.7 20.7 52.6 37 79.7 48.2 27.7 11.5 55.7 17.6 82.7 17.6 29.8 0 60.8-7.4 91.4-21.4zM649.2 796.7c-23 52.7-32.1 114.6-32.1 180.4 0 38 4.2 74.8 11.9 110.1h163.3L876.1 942l-83.8-145.2H649.2zM629 1087.1c20.8 95.3 67.1 178.9 124.3 240.1 14.2 15.2 29 29 44.2 41.2l78.6-136.1-83.8-145.2H629zm617.2-335.4c-23.7-34.8-56-63.7-98.9-84.5-21.2-10.3-45.1-18.6-71.7-24.7-33.8-7.7-72.1-11.8-115.5-11.8s-81.7 4.1-115.5 11.8c-26.7 6.1-50.5 14.4-71.7 24.7-42.9 20.8-75.2 49.7-98.9 84.5-9.6 14.1-17.8 29.1-24.7 44.9h143.1l83.8 145.2h167.7l83.8-145.2h143.1c-6.9-15.8-15.1-30.8-24.6-44.9z" id="Layer_6"/>
    <g id="STROKES">
        <g id="XMLID_1_">
            <path class="st1" d="M629 1087.1c-7.7-35.3-11.9-72.1-11.9-110.1 0-65.8 9-127.6 32.1-180.4 6.9-15.8 15.1-30.9 24.7-44.9 23.7-34.8 56-63.7 98.9-84.5 21.2-10.3 45.1-18.6 71.7-24.7 33.8-7.7 72.1-11.8 115.5-11.8s81.7 4.1 115.5 11.8c26.7 6.1 50.5 14.4 71.7 24.7 42.9 20.8 75.2 49.7 98.9 84.5 9.6 14.1 17.8 29.1 24.7 44.9 23 52.7 32.1 114.6 32.1 180.4 0 38-4.2 74.8-11.9 110.1-20 91.6-63.5 172.2-117.5 232.7-16.2 18.1-33.3 34.4-51 48.6-22.9 18.4-46.9 33.4-71 44.4-30.6 13.9-61.6 21.4-91.4 21.4-27 0-55-6.1-82.7-17.6-27.1-11.2-54.1-27.5-79.7-48.2-15.3-12.3-30.1-26.1-44.2-41.2-57.3-61.2-103.6-144.8-124.5-240.1z"/>
            <path class="st1" d="M1043.8 941.9l83.9 145.2-83.9 145.2"/>
            <path class="st1" d="M876.2 1232.3l-83.9-145.2 83.9-145.2"/>
            <path class="st1" d="M797.6 1368.5l78.6-136.2h167.6l78.6 136.2"/>
            <path class="st1" d="M1043.8 651.5l83.9 145.2-83.9 145.2H876.2l-83.9-145.2 83.9-145.2"/>
            <path class="st1" d="M629 1087.1h163.3"/>
            <path class="st1" d="M1127.7 796.7h143.1"/>
            <path class="st1" d="M792.3 796.7H649.2"/>
            <path class="st1" d="M1291 1087.1h-163.3"/>
            <path class="st1" d="M1075.5 642.5v-90.4c35.4-31.7 57.7-77.8 57.7-129.1 0-95.7-129.6-173.2-173.2-173.2S786.8 327.3 786.8 423c0 51.3 22.3 97.4 57.7 129.1v90.4"/>
            <path class="st1" d="M1246.2 751.7s86.8-8.1 149 9.5c62.2 17.7 121.4 237.8 192.5 279.6 37.3 21.9 99.4 25.5 113.2-23.1 25.2-89-178.4-378.3-348.4-426.6-81-23-205.3 76-205.3 76"/>
            <path class="st1" d="M673.8 751.7s-86.8-8.1-149 9.5c-62.2 17.7-121.4 237.8-192.6 279.6-37.3 21.9-99.4 25.5-113.2-23.1-25.2-89 178.4-378.3 348.4-426.6 81-23 205.3 76 205.3 76"/>
            <path class="st1" d="M1173.4 1319.8s169.9 59.4 184.9 155.4-57 192-99 195-207.9-257.4-207.9-257.4"/>
            <path class="st1" d="M753.3 1327.2s-161 52-176 148 56.9 195 99 195c44.9 0 156.7-255.2 201-253.6 1 0 2.1.2 3 .6"/>
        </g>
    </g>
</svg>
