<svg xmlns="http://www.w3.org/2000/svg" viewBox="0 0 1920 1920">
    <style>
        .st0{fill:#fff}.st1{fill:none;stroke:#000;stroke-width:50;stroke-linecap:round;stroke-linejoin:round;stroke-miterlimit:10}
    </style>
    <path class="st0" d="M1284.8 1160.6c-20 1.6-36.4 2.3-47.8 2.3-27.6 0-55-25.8-55-62 0-27.6 22.4-50 50-50h75c40 0 189-220.1 272.8-220.1 62.8 0 123.3-36.9 123.3-36.9v111c0 191.2-286.6 244.9-418.3 255.7zM773.2 832.9c-28.5 28.5-39 68.2-31.5 105 4.4 21.4 14.9 41.8 31.5 58.4v.7s79.3-2.6 102.5-2.6c23.1 0 39.3 9.5 84.3 9.5s61.2-9.5 84.3-9.5c22.8 0 100.7 2.5 102.4 2.6v-.7c16.6-16.6 27.1-37 31.5-58.4 7.6-36.8-2.9-76.5-31.5-105 0 0 16.6-134-111.7-134-25.4 0-75.1 8.1-75.1 8.1s-49.7-8.1-75.1-8.1c-128.2 0-111.6 134-111.6 134zm102.5 161.5c-23.1 0-102.5 2.6-102.5 2.6s13.3 28.3 41 58c30.5 32.6 78.6 66.8 145.8 66.8s115.2-34.2 145.8-66.8c27.8-29.7 41-58 41-58-1.8-.1-79.6-2.6-102.4-2.6-23.1 0-39.3 9.5-84.3 9.5s-61.3-9.5-84.4-9.5zm-658.8-89.5c0 190.9 285.8 244.7 417.8 255.7 20.2 1.7 36.8 2.3 48.2 2.3 27.6 0 55-25.8 55-62 0-27.6-22.4-50-50-50H613c-40 0-189-220.1-272.8-220.1-62.8 0-123.3-36.9-123.3-36.9v111z" id="Layer_2"/>
    <path class="st0" d="M1182 1100.9l-75.8-45.6-.5-.4c27.8-29.7 41-58 41-58v-.7c16.6-16.6 27.1-37 31.5-58.4 66.6 0 107.1 113 107.1 113H1232c-27.6.1-50 22.5-50 50.1zM773.2 997v-.7c-16.6-16.6-27.1-37-31.5-58.4-66.6 0-107.1 113-107.1 113H688c27.6 0 50 22.4 50 50l75.8-45.6.5-.4c-27.8-29.6-41.1-57.9-41.1-57.9z" id="Layer_3"/>
    <path class="st0" d="M634.8 1160.6c20.2 1.7 36.8 2.3 48.2 2.3 27.6 0 55-25.8 55-62l75.8-45.6.5-.4c30.5 32.6 78.6 66.8 145.8 66.8s115.2-34.2 145.8-66.8l.5.4 75.8 45.6c0 36.2 27.4 62 55 62 11.3 0 27.8-.7 47.8-2.3-7.2 16-66 125.8-324.8 125.8-279.1 0-325.4-123.5-325.4-123.5v-2.3z" id="Layer_4"/>
    <g id="STROKES">
        <g id="XMLID_1_">
            <path class="st1" d="M634.6 1050.9H688c27.6 0 50 22.4 50 50 0 36.2-27.4 62-55 62-11.4 0-28-.7-48.2-2.3-132-10.9-417.8-64.7-417.8-255.7v-111s60.5 36.9 123.3 36.9c83.8 0 232.8 220.1 272.8 220.1h21.5z"/>
            <path class="st1" d="M738 1100.9l75.8-45.5"/>
            <path class="st1" d="M898.7 894.2l61.3-61.3 61.3 61.3"/>
            <path class="st1" d="M773.2 832.9H831"/>
            <path class="st1" d="M773.2 997s13.3 28.3 41 58c30.5 32.6 78.6 66.8 145.8 66.8s115.2-34.2 145.8-66.8c27.8-29.7 41-58 41-58-1.8-.1-79.6-2.6-102.4-2.6-23.1 0-39.3 9.5-84.3 9.5s-61.2-9.5-84.3-9.5c-23.3 0-102.6 2.6-102.6 2.6"/>
            <path class="st1" d="M634.6 1162.9s46.3 123.5 325.4 123.5c258.7 0 317.6-109.8 324.8-125.8.6-1.3.8-1.9.8-1.9"/>
            <path class="st1" d="M773.2 996.3c-16.6-16.6-27.1-37-31.5-58.4-7.5-36.8 2.9-76.5 31.5-105"/>
            <path class="st1" d="M1146.8 832.9H1089"/>
            <path class="st1" d="M1146.8 996.3c16.6-16.6 27.1-37 31.5-58.4 7.6-36.8-2.9-76.5-31.5-105"/>
            <path class="st1" d="M741.7 937.9c-66.6 0-107.1 113-107.1 113"/>
            <path class="st1" d="M1146.8 832.9s16.6-134-111.7-134c-25.4 0-75.1 8.1-75.1 8.1s-49.7-8.1-75.1-8.1c-128.2 0-111.7 134-111.7 134"/>
            <path class="st1" d="M1285.4 1050.9H1232c-27.6 0-50 22.4-50 50 0 36.2 27.4 62 55 62 11.3 0 27.8-.7 47.8-2.3 131.8-10.8 418.3-64.5 418.3-255.7v-111s-60.5 36.9-123.3 36.9c-83.8 0-232.8 220.1-272.8 220.1h-21.6z"/>
            <path class="st1" d="M1182 1100.9l-75.8-45.5"/>
            <path class="st1" d="M1178.3 937.9c66.6 0 107.1 113 107.1 113"/>
        </g>
    </g>
</svg>
