<svg xmlns="http://www.w3.org/2000/svg" viewBox="0 0 1920 1920">
    <style>
        .st0{fill:#fff}.st1{fill:none;stroke:#000;stroke-width:50;stroke-linecap:round;stroke-linejoin:round;stroke-miterlimit:10}
    </style>
    <path class="st0" d="M1515.8 918.2s18.3 20.2 43.3 32.2c13.3 6.4 64.1 12.9 64.6 13 0 0 79.2 33.3 79.2 127.1 0 20.2 8.3 43.9-86.4 43.9-94.8 0-222.9-114.8-227.2-118.5 54.1-35.3 96.8-70.6 126.5-97.7zm-821.1 192.4c-103-62.9-131.8-160.2-135.2-173.2l-.4.1s-105.9-74.8-249.6-74.8c-71.2 0-92.6 68.5-92.6 90.4v57.9s87 43.4 164 43.4h85.4c16.7 0 104.8 70.7 104.8 70.7s-62.1 78-62.1 138.4c0 60.4 146.9 221.8 242.7 221.8 45.8 0 60.8-36.5 60.8-60.4 0-76.7-109.3-102.8-123.4-224.3-2.8-25.4-1.6-55 5.6-90zm-5.5 90c56 33.4 119 53.3 210.5 52.4 403-4.1 488.9-235.3 489.5-237.1-113.9 74.1-278.7 148.5-481.6 148.5-93 0-162-22.7-212.9-53.8-7.2 35-8.4 64.6-5.5 90z" id="Layer_7"/>
    <path class="st0" d="M1460.1 841.4c63.2 15.4 105.3 27.3 105.3 27.3s-17.1 20-49.5 49.5c-29.7 27.1-72.4 62.4-126.6 97.7-113.9 74.1-278.7 148.5-481.6 148.5-93 0-162-22.7-212.9-53.8-103-62.9-131.8-160.2-135.2-173.2-.2-1-.4-1.5-.4-1.5s14.3-31.3 62.6-66.5c27 67.2 76.8 139.5 167.2 173.7 33.6 12.8 72.9 20.3 118.8 20.3 31.2 0 61.6-2.1 91.1-5.9 209.6-26.8 376.2-140.3 461.2-216.1z" id="Layer_8"/>
    <path class="st0" d="M1207.7 892.8l135.1-78c43 9.1 83.2 18.4 117.2 26.7-84.9 75.8-251.6 189.2-461.3 216.1l-.1-.5V892.8l104.5-60.3 104.6 60.3zm135.1-78c-76.8-16.2-162.7-31.5-239.4-38.7l-.2 2.4v54l104.5 60.3 135.1-78zm-448.6-36.3v54l104.5 60.3 104.5-60.3v-54l.2-2.4c-28.9-2.7-56.5-4.3-81.8-4.3-46.9 0-89.3 2.4-127.4 6.7zm-209 54l104.5 60.3 104.5-60.3v-54c-91.8 10.1-159.5 30.8-209 54zm0 0c-25.8 12-46.6 24.7-63.4 37 27 67.2 76.8 139.5 167.2 173.7l.8-2.1V892.8l-104.6-60.3zm222.4 230.9c31.2 0 61.6-2.1 91.1-5.9l-.1-.5V892.8l-104.5-60.3-104.5 60.3v148.3l-.8 2.1c33.7 12.7 73 20.2 118.8 20.2z" id="Layer_9"/>
    <g id="STROKES">
        <g id="XMLID_1_">
            <path class="st1" d="M894.2 778.5v54l104.5 60.3 104.5-60.3"/>
            <path class="st1" d="M1103.2 778.5v54l104.5 60.3 135.1-78"/>
            <path class="st1" d="M685.2 832.5l104.5 60.3 104.5-60.3"/>
            <path class="st1" d="M789.7 892.8v148.3"/>
            <path class="st1" d="M998.7 1057V892.8"/>
            <path class="st1" d="M1207.7 994.8v-102"/>
            <path class="st1" d="M559.1 937.5s-105.9-74.8-249.6-74.8c-71.2 0-92.6 68.5-92.6 90.4v57.9s87 43.4 164 43.4h85.4c16.7 0 104.8 70.7 104.8 70.7s-62.1 78-62.1 138.4c0 60.4 146.9 221.8 242.7 221.8 45.8 0 60.8-36.5 60.8-60.4 0-76.7-109.3-102.8-123.4-224.3-2.9-25.4-1.7-54.9 5.5-90"/>
            <path class="st1" d="M1389.2 1015.9c54.2-35.3 96.9-70.5 126.6-97.7 32.4-29.5 49.5-49.5 49.5-49.5s-42-11.9-105.3-27.3c-34-8.3-74.2-17.6-117.2-26.7-76.8-16.2-162.7-31.5-239.4-38.7-28.9-2.7-56.5-4.3-81.8-4.3-46.9 0-89.2 2.4-127.4 6.6-91.8 10.2-159.5 30.8-209 54-25.8 12-46.6 24.7-63.4 37-48.3 35.2-62.6 66.5-62.6 66.5s.1.5.4 1.5c3.5 13.1 32.2 110.3 135.2 173.2 50.9 31.1 119.9 53.8 212.9 53.8 202.8 0 367.6-74.3 481.5-148.4"/>
            <path class="st1" d="M689.2 1200.6c56 33.4 119 53.3 210.5 52.4 403-4.1 488.9-235.3 489.5-237.1 4.3 3.8 132.4 118.5 227.2 118.5 94.8 0 86.4-23.7 86.4-43.9 0-93.8-79.2-127.1-79.2-127.1-.5-.1-51.3-6.6-64.6-13-25-12-43.3-32.2-43.3-32.2"/>
            <path class="st1" d="M621.7 869.4c27 67.2 76.8 139.5 167.2 173.7 33.6 12.8 72.9 20.3 118.8 20.3 31.2 0 61.6-2.1 91.1-5.9 209.7-26.9 376.3-140.3 461.3-216.1"/>
        </g>
    </g>
</svg>
