<svg xmlns="http://www.w3.org/2000/svg" viewBox="0 0 1920 1920">
    <style>
        .st0{fill:#fff}.st1{fill:none;stroke:#231f20;stroke-width:50;stroke-linecap:round;stroke-linejoin:round;stroke-miterlimit:10}
    </style>
    <path class="st0" d="M1550.6 674.7h-66.9v-60.8L1287 504.4v-85.2h-139.9l-56.8-68.9-62.8 77H924.1v87.2L678.9 863.6l-326.1 195.1s-69.8-18.5-76.9 42.7c-7.1 61.2 51.3 51.3 51.3 51.3l51.7 51s-11.1 33.2 15.1 43.3c21.7 8.4 68.2-50.3 83.6-70.7 4.5-5.9 9.3-11.6 14.4-17 36.7-38.5 177.1-173.8 353.1-190.2h261.8l41.3 40.3-114.5 111.4-219 351.7-34.5 230.6H1350l261.6-444.4 50.7-326.4-111.7-257.6zm-634.9 165c-29.3 0-53.1-23.8-53.1-53.1s23.8-53.1 53.1-53.1 53.1 23.8 53.1 53.1-23.8 53.1-53.1 53.1z" id="Layer_6"/>
    <circle class="st0" cx="915.7" cy="786.7" r="53.1" id="Layer_7"/>
    <g id="STROKES">
        <path class="st1" d="M780.2 1703.1l34.4-230.6 219-351.7 114.5-111.4"/>
        <path class="st1" d="M1287 973.1h-101.7l-37.2 36.2-41.3-40.3H845.1c-175.9 16.4-316.4 151.7-353.1 190.2-5.1 5.4-9.9 11-14.4 17-15.3 20.4-61.9 79.1-83.6 70.7-26.2-10.1-15.1-43.3-15.1-43.3l-51.7-51s-58.4 10-51.3-51.3c7.1-61.2 76.9-42.7 76.9-42.7l326.1-195.1 245.2-349.1v-87.2h103.4l62.9-77 56.8 68.9H1287v85.2l196.7 109.5v60.8h66.9l111.5 257.5-50.7 326.4-261.6 444.4"/>
        <path class="st1" d="M1461.4 865.7l28.4 94.3-44.6 227.7-329 515.4"/>
        <circle class="st1" cx="915.7" cy="786.7" r="53.1"/>
        <path class="st1" d="M1253.4 570.5l122.4 143.8-61.2 165.3"/>
    </g>
</svg>
