<svg xmlns="http://www.w3.org/2000/svg" viewBox="0 0 1920 1920">
    <style>
        .st0{fill:#fff}.st1{fill:none;stroke:#231f20;stroke-width:50;stroke-linecap:round;stroke-linejoin:round;stroke-miterlimit:10}
    </style>
    <path class="st0" d="M1310.8 694.7c-10.8 33.1-23.1 78.6-33.9 137.5-3.7 20-7.1 41.6-10.3 64.8-2.7 19.8-5.2 40.8-7.3 63-5.7 58.1-9.2 124.4-9.2 199.2 0 11.1.1 22.4.2 33.9.1 9.1.3 18.2.5 27.6 0 0-4.2 482.4-350.7 482.4-259.2 0-296.5-174.2-298.8-262-1.2-45.5 13.9-90.2 43.7-124.8 27.4-31.9 70.7-59.7 136.2-49.7 137.8 20.9 150.3 154.5 106.5 202.5-43.8 48-98.5 49-122.2 35.3-4.6-2.7-8.7-6.1-12.1-10.3-7.8-12.8-12.1-27.3-12.5-43.1.3-12.5 2.8-26.6 7.9-42.3-5.7 14.7-8.2 28.9-7.9 42.3-.4 18.2 4.1 32.9 12.5 43.1 28.9 47.4 105.3 69.8 203.7 35 147.3-52.2 122.5-283.9 122.5-283.9s-113.5-60.8-162.5-221c-13.5-44-22-95.6-22-155.4 0-34.7 2.7-67.1 7.3-97.3 14.6-94.3 48.9-166.8 82.3-218.2 41.4-63.7 81.6-94.9 81.6-94.9L867 539.6 523 824.4l-106.3-41.3 85.6-35.4L672.1 578l22-64.5c.8.8 1.6 1.5 2.5 2.3.3.2.6.5.8.7.6.5 1.1 1 1.7 1.5.3.3.7.5 1.1.8.5.4 1.1.8 1.6 1.2.4.3.8.5 1.2.8.5.4 1.1.7 1.6 1.1.4.3.8.5 1.2.8.5.3 1.1.7 1.6 1 .4.2.9.5 1.3.8.5.3 1.1.6 1.6.9.5.2.9.5 1.4.7.6.3 1.1.5 1.7.8.5.2 1 .4 1.4.6.6.2 1.1.5 1.7.7l1.5.6c.6.2 1.1.4 1.7.6.5.2 1 .3 1.5.5.6.2 1.2.4 1.8.5.5.2 1 .3 1.5.4.6.2 1.2.3 1.8.5.5.1 1 .2 1.6.4.6.1 1.2.2 1.8.4.5.1 1.1.2 1.6.3.6.1 1.2.2 1.9.3.6.1 1.1.1 1.6.2.6.1 1.3.1 1.9.2.5 0 1.1.1 1.6.1.6 0 1.3.1 1.9.1.5 0 1.1 0 1.7.1h3.6c.5 0 1.1-.1 1.6-.1.6 0 1.2-.1 1.9-.1.6-.1 1.1-.1 1.7-.2.5-.1 1.1-.1 1.6-.2.7-.1 1.4-.2 2-.3.4-.1.8-.1 1.2-.2.8-.2 1.6-.3 2.5-.5.2 0 .4-.1.6-.2 1-.2 2-.5 3-.8.8-.2 1.6-.5 2.4-.7.5-.2 1-.4 1.5-.5.1 0 .2-.1.3-.1.1 0 .3-.1.4-.2.2-.1.3-.1.5-.2.5-.2.9-.3 1.3-.5h.1c.1 0 .3-.1.4-.2.5-.2 1.1-.5 1.6-.7.6-.2 1.2-.5 1.7-.8.9-.4 1.7-.8 2.5-1.3.6-.3 1.1-.6 1.7-.9 0 0 .1 0 .1-.1.6-.3 1.2-.7 1.8-1 .7-.4 1.4-.8 2-1.3.5-.3.9-.6 1.4-.9.2-.1.3-.2.5-.3.5-.3 1-.7 1.5-1 .1 0 .1-.1.2-.1.5-.4 1-.8 1.5-1.1.1-.1.2-.2.4-.3.4-.3.9-.7 1.3-1 .8-.6 1.5-1.3 2.3-2 .4-.4.8-.7 1.2-1.1.6-.6 1.2-1.1 1.7-1.7.5-.5.9-.9 1.3-1.4.5-.5 1-1.1 1.5-1.6 0 0 .1-.1.1-.2.4-.5.9-1 1.3-1.5.5-.6.9-1.1 1.3-1.7.4-.6.9-1.1 1.3-1.7l1.2-1.8c.4-.5.7-1.1 1.1-1.6.1-.1.1-.2.2-.3.3-.6.7-1.1 1-1.7.1-.1.2-.3.2-.4.3-.5.6-1.1.9-1.6.3-.6.7-1.3 1-1.9 0-.1 0-.1.1-.2.2-.5.5-1 .7-1.5.7-1.5 1.3-3 1.9-4.5.2-.7.5-1.3.7-2 .1-.3.2-.5.3-.8.2-.5.3-1 .5-1.6.1-.2.1-.4.2-.6.1-.2.1-.5.2-.7 0-.1 0-.2.1-.2 0-.1.1-.2.1-.4v-.1c.2-.7.4-1.4.6-2.2l.3-1.2.3-1.2c.1-.4.2-.8.2-1.2.1-.4.1-.8.2-1.2v-.3l.3-2.4c0-.4.1-.8.2-1.1.1-.6.1-1.3.2-1.9 0-.5.1-1.1.1-1.6s0-1.1.1-1.7V461.4c0-.6-.1-1.2-.1-1.8 0-.6-.1-1.2-.1-1.7-.1-.6-.1-1.2-.2-1.8-.1-.6-.1-1.1-.2-1.7l-.3-1.8c-.1-.6-.2-1.1-.3-1.7-.1-.6-.2-1.2-.4-1.7-.1-.5-.2-1.1-.4-1.6-.1-.6-.3-1.1-.5-1.7-.2-.5-.3-1.1-.5-1.6-.2-.6-.4-1.1-.5-1.7-.2-.5-.3-1.1-.5-1.6s-.4-1.1-.6-1.6l-.6-1.5c-.2-.5-.5-1.1-.7-1.6-.2-.5-.5-1-.7-1.5-.2-.5-.5-1-.8-1.5-.2-.5-.5-1-.8-1.5l-.9-1.5c-.3-.5-.5-1-.8-1.4l-.9-1.5c-.3-.5-.6-.9-.9-1.4-.3-.5-.7-.9-1-1.4-.3-.4-.6-.9-.9-1.3-.3-.5-.7-.9-1.1-1.4-.3-.4-.7-.9-1-1.3-.4-.4-.7-.9-1.1-1.3-.4-.4-.7-.8-1.1-1.2l-1.2-1.2c-.4-.4-.7-.8-1.1-1.2l-1.2-1.2c-.4-.4-.8-.8-1.2-1.1-.4-.4-.9-.8-1.3-1.2-.4-.3-.8-.7-1.2-1-.5-.4-.9-.7-1.4-1.1-.4-.3-.8-.7-1.3-1-.5-.3-1-.7-1.4-1-.4-.3-.9-.6-1.3-.9-.5-.3-1-.6-1.5-1-.5-.3-.9-.6-1.3-.9l-1.5-.9c-.5-.3-.9-.5-1.4-.8-.5-.3-1-.6-1.6-.8-.5-.2-.9-.5-1.4-.7-.5-.3-1.1-.5-1.6-.7-.5-.2-1-.5-1.5-.7-.5-.2-1.1-.4-1.7-.7l-1.5-.6-1.8-.6c-.5-.2-1-.3-1.5-.5-.6-.2-1.2-.4-1.8-.5-.5-.1-1-.3-1.5-.4-.6-.2-1.2-.3-1.9-.4-.5-.1-1-.2-1.5-.4-.6-.1-1.3-.2-2-.3l-1.5-.3-2.1-.3c-.5-.1-1-.1-1.4-.2-.8-.1-1.5-.1-2.3-.2-.4 0-.8-.1-1.2-.1-1.2-.1-2.4-.1-3.6-.1-2.7 0-5.4.2-8 .5l46.8-137.1s231.5-92.1 395.9 1c62.6 35.4 115.5 97.7 142.1 202.2 20.1 76.2 16.6 157.3-8 233z" id="Layer_2"/>
    <path class="st0" d="M812 464.3v1.8c0 .6 0 1.1-.1 1.7 0 .5-.1 1.1-.1 1.6 0 .6-.1 1.3-.2 1.9 0 .4-.1.8-.2 1.1l-.3 2.4v.3c-.1.4-.1.8-.2 1.2-.1.4-.2.8-.2 1.2l-.3 1.2-.3 1.2c-.2.7-.4 1.5-.6 2.2v.2c-.1.5-.3 1-.4 1.4l-.3.9v.2c-.1.4-.3.9-.4 1.3-.2.7-.5 1.3-.7 2l-.3.9c0 .1-.1.2-.1.3-.2.4-.3.8-.5 1.2-.8 1.9-1.7 3.8-2.7 5.6-.1.3-.3.5-.4.8-.2.4-.5.8-.7 1.2-.2.3-.3.5-.5.8-.2.4-.5.9-.8 1.3-.2.2-.3.5-.5.8-.4.5-.7 1.1-1.1 1.6-.3.5-.6.9-.9 1.4-2.9 4-6.2 7.8-9.9 11.1-.3.3-.6.5-.9.8-.4.3-.8.7-1.2 1-.5.4-1 .9-1.6 1.3-1.3 1-2.6 2-3.9 2.9-.5.3-.9.6-1.4.9-.6.4-1.1.7-1.7 1.1-.3.2-.6.4-.9.5-2.8 1.7-5.8 3.1-8.8 4.4-.4.1-.7.3-1 .4-.1 0-.2.1-.2.1-.3.1-.7.3-1 .4-.4.1-.7.2-1 .4-.4.2-.8.3-1.2.4-.8.2-1.6.5-2.4.7-1 .3-2 .5-3 .8-.2 0-.4.1-.6.2-.8.2-1.6.4-2.5.5-.4.1-.8.1-1.2.2-.7.1-1.3.2-2 .3-.5.1-1.1.1-1.6.2-.6.1-1.1.1-1.7.2-.6.1-1.2.1-1.9.1-.5 0-1.1.1-1.6.1h-3.7c-.6 0-1.1 0-1.7-.1-.7 0-1.3 0-1.9-.1-.6 0-1.1-.1-1.6-.1-.6-.1-1.3-.1-1.9-.2-.5-.1-1.1-.1-1.6-.2-.6-.1-1.2-.2-1.9-.3-.5-.1-1.1-.2-1.6-.3-.6-.1-1.2-.2-1.8-.4-.5-.1-1.1-.2-1.6-.4-.6-.1-1.2-.3-1.8-.5-.5-.1-1-.3-1.5-.4-.6-.2-1.2-.4-1.8-.5-.5-.2-1-.3-1.5-.5-.6-.2-1.2-.4-1.7-.6l-1.5-.6c-.6-.2-1.1-.5-1.7-.7-.5-.2-1-.4-1.4-.6-.5-.3-1.1-.5-1.7-.8-.5-.2-.9-.5-1.4-.7-.6-.3-1.1-.6-1.6-.9-.4-.2-.9-.5-1.3-.8-.5-.3-1.1-.7-1.6-1-.4-.3-.8-.5-1.2-.8-.5-.3-1.1-.7-1.6-1.1-.4-.3-.8-.5-1.2-.8-.5-.4-1.1-.8-1.6-1.2-.3-.3-.7-.5-1.1-.8-.6-.5-1.2-1-1.7-1.5-.3-.2-.6-.5-.8-.7-.8-.7-1.7-1.5-2.5-2.3-12.9-12.6-20.9-30.2-20.9-49.7 0-35.6 26.9-65 61.4-69 2.6-.3 5.3-.5 8-.5 1.2 0 2.4 0 3.6.1.4 0 .8.1 1.2.1.8 0 1.5.1 2.3.2.5 0 1 .1 1.4.2l2.1.3 1.5.3c.7.1 1.3.2 2 .3.5.1 1 .2 1.5.4.6.1 1.3.3 1.9.4.5.1 1 .3 1.5.4.6.2 1.2.3 1.8.5.5.2 1 .3 1.5.5l1.8.6 1.5.6c.6.2 1.1.4 1.7.7.5.2 1 .4 1.5.7.6.2 1.1.5 1.6.7.5.2 1 .5 1.4.7.5.3 1.1.5 1.6.8.5.2.9.5 1.4.8l1.5.9c.5.3.9.6 1.3.9.5.3 1 .6 1.5 1 .4.3.9.6 1.3.9.5.3 1 .7 1.4 1 .4.3.8.7 1.3 1 .5.4.9.7 1.4 1.1.4.3.8.7 1.2 1 .4.4.9.8 1.3 1.2.4.4.8.7 1.2 1.1l1.2 1.2c.4.4.7.8 1.1 1.2l1.2 1.2c.4.4.7.8 1.1 1.2.4.4.8.9 1.1 1.3.3.4.7.9 1 1.3.4.4.7.9 1.1 1.4.3.4.6.9.9 1.3.3.5.7.9 1 1.4.3.5.6.9.9 1.4l.9 1.5c.3.5.5 1 .8 1.4l.9 1.5c.3.5.5 1 .8 1.5.3.5.5 1 .8 1.5.2.5.5 1 .7 1.5.2.5.5 1.1.7 1.6l.6 1.5c.2.5.4 1.1.6 1.6.2.5.4 1.1.5 1.6.2.6.4 1.1.5 1.7.2.5.3 1.1.5 1.6.1.6.3 1.1.5 1.7.1.5.2 1.1.4 1.6.1.6.3 1.2.4 1.7.1.6.2 1.1.3 1.7l.3 1.8c.1.6.1 1.1.2 1.7.1.6.1 1.2.2 1.8.1.6.1 1.2.1 1.7 0 .6.1 1.2.1 1.8v1.8c-.6 1.1-.6 1.7-.6 2.3z" id="Layer_4"/>
    <path class="st0" d="M1362.8 968.8s-27.4 78-6.5 135.5c0 0-27.3 51.3-18.6 126.2l-87.5-37.4c-.2-11.5-.2-22.8-.2-33.9 0-74.8 3.6-141 9.2-199.2 2.2-22.2 4.6-43.2 7.3-63l104.9-31.2c.1-.1-24.3 47.5-8.6 103z" id="Layer_5"/>
    <g id="STROKES">
        <path class="st1" d="M1266.6 897c-10.8 79.5-18 177.8-16.3 296.1.1 9.1.3 18.2.5 27.6 0 0-4.2 482.4-350.7 482.4-259.2 0-296.5-174.2-298.8-262-1.2-45.5 13.9-90.2 43.6-124.8 27.4-31.9 70.7-59.6 136.2-49.7 137.8 20.9 150.3 154.5 106.5 202.5-43.8 48-98.5 49-122.2 35.3-4.6-2.7-8.7-6.1-12.1-10.3-7.8-12.8-12.1-27.3-12.5-43.1.3-12.5 2.8-26.7 7.9-42.3-5.7 14.7-8.2 28.9-7.9 42.3-.4 18.2 4.1 32.9 12.5 43.1 28.8 47.4 105.3 69.8 203.7 35 147.3-52.1 122.5-283.9 122.5-283.9S895 1146.3 895 868.8s171.2-410.3 171.2-410.3l-199.3 81.2L523 824.4l-106.3-41.3 85.6-35.4L672 578l22-64.5c13.1 12.8 31.2 20.4 51.2 19.7 36.7-1.4 66.2-31.6 66.8-68.3.6-38.9-30.7-70.6-69.4-70.6-2.7 0-5.4.2-8 .5l46.8-137.1s441.5-175.7 538 203.2c19.6 77.1 16.2 158.2-8.5 233.9-14.5 44.2-31.9 110.9-44.3 202.2z"/>
        <path class="st1" d="M753.3 1494c-8.4-10.2-12.8-24.8-12.5-43.1.4 15.8 4.7 30.4 12.5 43.1z"/>
        <path class="st1" d="M1362.8 968.8s-27.4 78-6.4 135.5c0 0-27.3 51.3-18.6 126.2l-87.5-37.4c-1.7-118.3 5.5-216.6 16.3-296.1l104.9-31.3s-24.4 47.6-8.7 103.1z"/>
        <path class="st1" d="M812 463.7c0 38.4-31.1 69.5-69.5 69.5-18.9 0-36-7.5-48.5-19.8-12.9-12.6-20.9-30.2-20.9-49.7 0-35.6 26.9-65 61.4-69 2.6-.3 5.3-.5 8-.5 38.4.1 69.5 31.2 69.5 69.5z"/>
        <circle class="st1" cx="742.5" cy="463.1" r="5.1"/>
        <path class="st1" d="M1066.2 458.4l111-199.9"/>
        <path class="st1" d="M1079.4 1245.1l170.9-52"/>
        <path class="st1" d="M917 1024.1l342.3-64.1"/>
        <path class="st1" d="M902.3 771.4l374.6 60.8"/>
        <path class="st1" d="M984.6 553.2l334.5 69.6"/>
        <path class="st1" d="M748.7 1408.6s14-40.7 69.5-19.7"/>
    </g>
</svg>
