<svg xmlns="http://www.w3.org/2000/svg" viewBox="0 0 1920 1920">
    <style>
        .st0{fill:#fff}.st1{fill:none;stroke:#231f20;stroke-width:50;stroke-linecap:round;stroke-linejoin:round;stroke-miterlimit:10}
    </style>
    <path class="st0" d="M1132.9 1353.6c-126.7-117.5-262.7 105.6-209.9 153.1 52.8 47.5 125.4 0 121.4-62 0 0-24.4-22.4-46.5 11.9 0 0 9.6-50.2 54.4-40.9 0 0 29.4 119.2-159.5 156.4 0 0-28.8-54.5 48.6-211.1 30.3-61.2 54.4-82.3 71.5-135.9 2.9-9.1 5.6-19.1 8.1-30.4 4.5-20.6 9-42.9 13.2-66.7 5.3-30.1 10.2-62.6 14.3-97.1 3.6-30.8 6.6-63.3 8.7-97.2 1.9-31.2 3-63.7 3-97.1v-.9l-.6.6c.4-14 .6-28.4.6-43.4 0-145.3-18-247.1-40-317.1l15.4-26.4.3.8c3.9-6.7 131.6-25.1 131.6-25.1l-29.9-137.3-113.7 40.2c3.9-21.7 13.5-29.4 13.5-29.4s-94.5 6-94.5-81.6c0 87.6-94.6 81.6-94.6 81.6s9.6 7.7 13.5 29.1l-113.1-40.2L719 424.8s127.7 18.4 131.7 25.1l15 25.7c-21.9 70-40 171.8-40 317.1 0 15.1.2 29.7.6 43.8 2 74.1 8.9 133.6 18.6 181.4 0 0 .1.5.3 1.4.5 2.3 1.4 6.1 2.6 11.4 4 18.1 10.9 52.7 11.1 97.1.1 28.9-2.6 61.9-10.7 97.2-3.4 14.8-7.8 30-13.4 45.4-47.5 132-186.1 341.9 11.9 419.8 197.8 77.9 412.9-219.1 286.2-336.6z" id="Layer_8"/>
    <g id="STROKES">
        <path class="st1" d="M892.2 471.6c-3.7 1-8.5-4.8-10.9-13-2.4-8.2-1.3-15.8 2.4-16.8s8.5 4.8 10.9 13c2.3 8.2 1.2 15.7-2.4 16.8z"/>
        <path class="st1" d="M810.5 381.1l40.2 68.8c-3.9-6.7-131.7-25.1-131.7-25.1l29.8-137.3 113.1 40.2c1 5.5 1.6 11.8 1.6 19.2 0 36.3-53 34.2-53 34.2z"/>
        <path class="st1" d="M1022.4 346.9c0-7.2.6-13.5 1.6-18.9 3.9-21.7 13.5-29.4 13.5-29.4s-94.5 6-94.5-81.6c0 87.6-94.6 81.6-94.6 81.6s9.6 7.7 13.5 29.1c1 5.5 1.6 11.8 1.6 19.2 0 36.3-53 34.1-53 34.1l40.2 68.8 15 25.7 25.5 43.7v192l51.8 44.2 51.8-44.2v-192l25.5-43.7 15.4-26.4 39.7-68.1c0 .1-53 2.2-53-34.1zM892.2 471.6c-3.7 1-8.5-4.8-10.9-13-2.4-8.2-1.3-15.8 2.4-16.8s8.5 4.8 10.9 13c2.3 8.2 1.2 15.7-2.4 16.8zm112.4-13.1c-2.3 8.2-7.2 14.1-10.9 13-3.7-1-4.7-8.6-2.4-16.8 2.4-8.2 7.2-14.1 10.9-13 3.7 1.1 4.7 8.6 2.4 16.8z"/>
        <path class="st1" d="M894.5 454.7c2.4 8.2 1.3 15.8-2.4 16.8s-8.5-4.8-10.9-13c-2.4-8.2-1.3-15.8 2.4-16.8s8.6 4.8 10.9 13z"/>
        <path class="st1" d="M1004.6 458.5c-2.3 8.2-7.2 14.1-10.9 13-3.7-1-4.7-8.6-2.4-16.8 2.4-8.2 7.2-14.1 10.9-13 3.7 1.1 4.7 8.6 2.4 16.8z"/>
        <path class="st1" d="M1167.6 424.8s-127.7 18.4-131.7 25.1l-.3-.8 39.7-68.1s-53 2.1-53-34.1c0-7.2.6-13.5 1.6-18.9l113.8-40.5 29.9 137.3z"/>
        <path class="st1" d="M1004.6 458.5c-2.3 8.2-7.2 14.1-10.9 13-3.7-1-4.7-8.6-2.4-16.8 2.4-8.2 7.2-14.1 10.9-13 3.7 1.1 4.7 8.6 2.4 16.8z"/>
        <path class="st1" d="M881.3 458.5c-2.4-8.2-1.3-15.8 2.4-16.8s8.5 4.8 10.9 13c2.4 8.2 1.3 15.8-2.4 16.8-3.7 1.1-8.6-4.7-10.9-13z"/>
        <path class="st1" d="M991.3 454.7c2.4-8.2 7.2-14.1 10.9-13 3.7 1 4.7 8.6 2.4 16.8-2.3 8.2-7.2 14.1-10.9 13-3.7-1-4.8-8.5-2.4-16.8z"/>
        <path class="st1" d="M846.4 1690.2c-198-77.9-59.4-287.8-11.9-419.8 45-125.1 13.9-233.8 10.5-251.1l-.3-1.5c-11.5-56.9-19.1-130.3-19.1-225.2 0-145.3 18.1-247 40-317.1l25.5 43.7v192l51.8 44.2 51.8-44.2v-192l25.5-43.7c22 70.1 40 171.8 40 317.1 0 15-.2 29.5-.6 43.4l.6-.6c0 143-19.1 267.6-39.2 359.1-17.1 78-44.2 94.8-79.6 166.3-77.4 156.7-48.6 211.2-48.6 211.2 188.9-37.1 159.5-156.4 159.5-156.4-44.9-9.2-54.4 40.9-54.4 40.9 22.1-34.3 46.5-11.9 46.5-11.9 4 62-68.7 109.6-121.4 62-52.8-47.5 83.2-270.6 209.9-153.1 126.7 117.6-88.4 414.6-286.5 336.7z"/>
        <path class="st1" d="M892.8 1572s-68.5 15.7-82.4-51.9"/>
        <path class="st1" d="M1060.2 836.5h-234"/>
        <path class="st1" d="M1057.3 933.6H832.2"/>
        <path class="st1" d="M1048.6 1030.7h-201"/>
        <path class="st1" d="M1034.2 1127.9H858.7"/>
        <path class="st1" d="M1012.9 1225H848"/>
    </g>
</svg>
