<svg xmlns="http://www.w3.org/2000/svg" viewBox="0 0 1920 1920">
    <style>
        .st0{fill:#fff}.st1{fill:none;stroke:#231f20;stroke-width:50;stroke-linecap:round;stroke-linejoin:round;stroke-miterlimit:10}
    </style>
    <path class="st0" d="M1685.8 1304.1c-10.5-.4-21.2-.8-31.5-1.4-6.8-11.1-1.6-13.7 5.5-19.9.6-.5 1.3-1.1 1.9-1.7 2.3-2.1 4.6-4.6 6.8-7.9 2.9-4.4 5.7-9.3 8-14.3 2.6-5.8 4.5-11.7 4.9-17.5 0-.6.1-1.2.1-1.8.1-5.9-1.4-11.5-5.4-16.3-7.3-8.8-19.5-10.4-31.2-10.6h-4.9c-21.3.2-41.7.4-61.5.6-13.2.1-26.1.2-38.9.4-31.9.3-62.8.6-94.4.9-12.6.1-25.4.2-38.3.4-6.4.1-12.9.1-19.5.2-3.4 0-6.7.1-10.1.1-6.6.1-13.2.1-19.9.2-10.3.1-20.8.2-31.5.3-33-15.8-84.5-39.1-170-45 0 0-199-12.7-408.8-180.9 0 0-89.9-167.3-181.6-229.4 0 0 17.8-174.3-113.6-240.5 0 0-47.4-55.8-114.1-37.3 0 0-76-25.9-87.1-36.1-11.1-10.2-47.2 2.8-28.7 54.7 18.5 51.9 11.1 100 73.2 153.8 0 0-5.4 195.7 12.3 242.3 0 0 20 143.1 105.4 235.1l-.1.1c-2.6 4.1-66.9 106.2-89.4 129-25.9 13.5-12.7 89-12.7 89s11.2 73.1 117 76.5c105.7 3.4 132.7-19.1 132.7-19.1s-121.4-49.5-64.1-81c57.4-31.5 85.5-69.7 85.5-69.7s89.9 154.3 413.6 170.1c239.1 11.7 389.9-103.3 389.9-103.3s150.9 35.7 251.1 24.2c19.6-2.2 37.1-5.2 52.5-8.5 20.6-4.6 17.9-34.9-3.1-35.7z" id="Layer_7"/>
    <g id="STROKES">
        <path class="st1" d="M1688.9 1339.6c-15.4 3.3-32.9 6.2-52.5 8.5-100.2 11.5-251.1-24.2-251.1-24.2s-150.8 115-389.9 103.3c-323.7-15.8-413.6-170.1-413.6-170.1s-28.1 38.2-85.5 69.7 64.1 81 64.1 81-27 22.5-132.7 19.1c-105.7-3.4-116.9-76.5-116.9-76.5s-13.1-75.5 12.7-89c25.9-13.5 89.5-129.2 89.5-129.2-85.4-92.1-105.4-235.1-105.4-235.1-17.7-46.6-12.3-242.3-12.3-242.3-62.1-53.7-54.7-101.9-73.2-153.8-18.5-51.9 17.6-64.8 28.7-54.7 11.1 10.2 87.1 36.1 87.1 36.1C404.6 464 452 519.9 452 519.9c131.5 66.2 113.6 240.5 113.6 240.5 91.6 62.1 181.6 229.4 181.6 229.4C957 1158 1156 1170.7 1156 1170.7c85.5 5.9 137 29.2 170 45 18.6 8.9 31.3 15.3 40.8 14.9 26.5-1.1 190.1 55.3 213.6 64.5 8.8 3.5 39.3 5.9 73.9 7.7 10.3.5 20.9 1 31.5 1.4 21 .7 23.7 31 3.1 35.4z"/>
        <path class="st1" d="M413 1132.3s-66.5 105.8-89.5 129.2c-20.5 20.8-12.7 89-12.7 89"/>
        <path class="st1" d="M342.4 569.5c.7-3.7-.9-7.7-4.1-9.7-.4 2-.1 4.2.9 6"/>
        <path class="st1" d="M1326.1 1215.6c113.7-1.1 200.3-1.9 314.1-3 13-.1 27.8.6 36.1 10.6 11.6 14 2.3 34.8-7.7 50-10 15.1-23.6 14.1-14.2 29.6"/>
    </g>
</svg>
