<svg xmlns="http://www.w3.org/2000/svg" viewBox="0 0 1920 1920">
    <style>
        .st0{fill:#fff}.st1{fill:none;stroke:#231f20;stroke-width:50;stroke-linecap:round;stroke-linejoin:round;stroke-miterlimit:10}
    </style>
    <path class="st0" d="M1340.9 991.8c5.2 6 10 12.3 14.4 19-6.3-2.2-12.8-3.5-19.4-4.2-15.7 44.7-37 87.5-65.3 126.6-52 71.6-114.6 145.5-190.8 205.2-76.2 59.7-166 105.1-272.6 119.7-56.9 7.8-118.5 6.8-185.4-5.4 0 0-8.2-5.4-21.8-13.8-36.4-22.3-111-65.3-168.9-80.1-1.7 0-3.3 0-5-.1-7.2-.2-14.3-.9-21.2-1.9-10.7 11.9-25.1 21.7-40.9 21.1-17.4-.7-32.1-13.7-41.5-28.5-6.8-10.6-11.5-22.5-14.1-34.8-2.3-11-6.5-21.6-11.7-31.6-8.4-16.1-13-34.1-13-52.9 0-71.1 66-128.7 147.4-128.7 0 0 188.8-10.3 305.3-118.7s480-363.5 510.1-586.4c0 0 2.8-73.8-37.2-119.6 23.8 13.7 59.7 23.2 97.5-7 66.3-52.8 78.3-52.8 78.3-52.8s-80.3 119.1-64.3 177.3c13.4 48.6 99.8 349.1 20.1 597.6z" id="Layer_5"/>
    <path class="st0" d="M920.6 1621c1.6-5.4 2.4-10.9 2.4-16.3 0-24.7-15.2-49.1-31.6-68.9-8.4-10.1-17.3-19.9-26.6-29.2-17.7-17.8-37-34-57.6-48.5-56.9 7.8-118.5 6.8-185.4-5.4 0 0-8.2-5.4-21.8-13.8 39 50.3 65.4 113.2 107.4 162.1 4.7 5.5 9.6 10.8 14.7 15.9 49.2 49.3 116.3 80.6 185.7 86.2-1.5-.9-2.8-2-4-3.2-5.1-5.2-7.3-12.7-7.3-20.5 0-6 1.3-12.2 3.5-17.6 5.9-14.1 16.2-26.2 20.6-40.8zm0 0c1.6-5.4 2.4-10.9 2.4-16.3 0-24.7-15.2-49.1-31.6-68.9-8.4-10.1-17.3-19.9-26.6-29.2-17.7-17.8-37-34-57.6-48.5-56.9 7.8-118.5 6.8-185.4-5.4 0 0-8.2-5.4-21.8-13.8 39 50.3 65.4 113.2 107.4 162.1 4.7 5.5 9.6 10.8 14.7 15.9 49.2 49.3 116.3 80.6 185.7 86.2-1.5-.9-2.8-2-4-3.2-5.1-5.2-7.3-12.7-7.3-20.5 0-6 1.3-12.2 3.5-17.6 5.9-14.1 16.2-26.2 20.6-40.8z" id="Layer_6"/>
    <g id="STROKES">
        <path class="st1" d="M1180.2 253.7c11.6 6.1 21.2 14 29.1 23-18-10.3-29.1-23-29.1-23z"/>
        <path class="st1" d="M807.3 1458.1c31.3 22.1 59.7 48.3 84.1 77.7 20 24.1 38.2 55.2 29.2 85.2-4.4 14.6-14.8 26.7-20.6 40.8-5.8 14.1-5.2 33.3 7.9 41.2-76.7-6.2-150.3-43.7-200.4-102.1-42-48.9-68.4-111.9-107.4-162.1"/>
        <path class="st1" d="M1320.8 394.3c16.1 58.2 137.6 480.4-50.2 739-104 143.2-250.3 295.6-463.3 324.8-56.9 7.8-118.5 6.8-185.4-5.4 0 0-8.2-5.5-21.8-13.8-36.4-22.3-111-65.3-168.9-80.1-1.7 0-3.3 0-5-.1-7.2-.2-14.3-.9-21.2-1.9-10.7 11.9-25.1 21.7-40.9 21.1-17.4-.7-32.1-13.7-41.5-28.5-6.8-10.6-11.5-22.5-14.1-34.8-2.3-11-6.5-21.6-11.7-31.6-8.4-16.1-13-34.1-13-52.9 0-71.1 66-128.7 147.4-128.7 0 0 188.8-10.3 305.3-118.7s480-363.5 510.1-586.4c0 0 2.8-73.8-37.2-119.6 23.8 13.7 59.7 23.2 97.5-7 66.3-52.8 78.3-52.8 78.3-52.8s-80.5 119.1-64.4 177.4z"/>
        <path class="st1" d="M862.1 985.6c47.4-34.3 96.1-68 150.7-89.1 54.6-21.1 116.3-28.7 171.7-9.9 27.9 9.5 53.3 25.3 77.9 41.5 34.9 22.9 70 47.8 92.9 82.7-15.8-5.4-33.2-6-49.3-1.8-13.2 3.5-25.3 10-38.1 14.7-40.6 14.7-85.2 9.1-128.3 10.9s-90.8 14.6-112.5 51.9"/>
        <path class="st1" d="M521.3 1265.4c-.6 16.4-2.5 33.4-11.1 47.3-6.4 10.2-16 18.1-26.3 24.3-22.7 13.5-49.9 19.4-76.1 16.6-.9 1-1.8 2.1-2.7 3.1"/>
        <path class="st1" d="M418.5 1198.2c-.6 3.3-2 6.4-4.1 9"/>
        <path class="st1" d="M309.4 1251.8c4.6-1.2 9.5-1.5 14.2-.9"/>
    </g>
</svg>
