<svg xmlns="http://www.w3.org/2000/svg" viewBox="0 0 1920 1920">
    <style>
        .st0{fill:#fff}.st1{fill:none;stroke:#231f20;stroke-width:50;stroke-linecap:round;stroke-linejoin:round;stroke-miterlimit:10}
    </style>
    <path class="st0" d="M1514.2 1042.5c0-846.4-562.7-825.5-562.7-825.5s-562.7-20.9-562.7 825.5c0 0-157.2 137.5-188.9 505.9H1703c-31.6-368.4-188.8-505.9-188.8-505.9zm-866.5-532c4.4-67.1 55.5-90.5 55.5-90.5 90.5-39.4 112.3 56.5 112.3 56.5-33.7 62.5-172.2 101.2-167.8 34zm439.8-33.9s21.8-96 112.3-56.5c0 0 51.1 23.4 55.5 90.5 4.4 67.1-134.2 28.4-167.8-34z" id="Layer_2"/>
    <path class="st0" d="M951.5 706.9L861.8 635h179.3z" id="Layer_8"/>
    <path class="st0" d="M703.1 420s-51.1 23.4-55.5 90.5c-4.4 67.1 134.2 28.4 167.8-34 .1.1-21.8-95.9-112.3-56.5z" id="Layer_4"/>
    <path class="st0" d="M1255.3 510.5c-4.4-67.1-55.5-90.5-55.5-90.5-90.5-39.4-112.3 56.5-112.3 56.5 33.6 62.5 172.2 101.2 167.8 34z" id="Layer_9"/>
    <g id="STROKES">
        <path class="st1" d="M815.5 476.6s-21.8-96-112.3-56.5c0 0-51.1 23.4-55.5 90.5-4.4 67.1 134.1 28.3 167.8-34z"/>
        <path class="st1" d="M951.5 850.7s-81.2 177.7-239.8 82.5S770.9 635 770.9 635"/>
        <path class="st1" d="M785.1 847.6c-93.1 157.6-148.5 337.3-160.5 520"/>
        <path class="st1" d="M730.8 806.6c-121.3 94.8-192.7 239.2-246.1 383.6"/>
        <path class="st1" d="M1703.1 1548.4c-31.7-368.4-188.9-505.9-188.9-505.9 0-846.4-562.7-825.5-562.7-825.5s-562.7-20.9-562.7 825.5c0 0-157.2 137.5-188.9 505.9"/>
        <path class="st1" d="M1087.5 476.6s21.8-96 112.3-56.5c0 0 51.1 23.4 55.5 90.5s-134.2 28.3-167.8-34z"/>
        <path class="st1" d="M951.5 833.8V706.9l89.6-71.9H861.8l89.7 71.9v150.9"/>
        <path class="st1" d="M951.5 850.7s81.2 177.7 239.8 82.5-59.2-298.2-59.2-298.2"/>
        <path class="st1" d="M1117.8 847.6c93.1 157.6 148.5 337.3 160.5 520"/>
        <path class="st1" d="M1172.2 806.6c121.3 94.8 192.7 239.2 246.1 383.6"/>
    </g>
</svg>
