<svg xmlns="http://www.w3.org/2000/svg" viewBox="0 0 1920 1920">
    <style>
        .st0{fill:#fff}.st1,.st2{fill:none;stroke:#000;stroke-linecap:round;stroke-linejoin:round}.st1{stroke-miterlimit:10;stroke-width:50}.st2{stroke-width:.5}
    </style>
    <path class="st0" d="M1173.4 926.2c35.5 118.8-31.9 243.8-150.7 279.3-118.7 35.5-243.8-31.9-279.3-150.7v-.1l96.4-28.8v.1c19.6 65.5 88.6 102.7 154 83.1 65.5-19.6 102.7-88.5 83.1-154v-.1l96.5-28.8z" id="Layer_6"/>
    <g id="STROKE">
        <path class="st1" d="M1173.4 926.2c35.5 118.8-31.9 243.8-150.7 279.3-118.7 35.5-243.8-31.9-279.3-150.7"/>
        <path class="st1" d="M1077 955c19.6 65.5-17.6 134.4-83.1 154-65.5 19.6-134.4-17.6-154-83.1"/>
        <path class="st1" d="M207.8 1215l145.7-43.6 97.8-29.3 292.1-87.3 96.4-28.9 237.1-70.9 96.5-28.9 294.9-88.2 99.5-29.8 131-39.1"/>
        <path class="st1" d="M353.5 1171.4c-17.6-58.8-10.5-114.8 16.6-122.9 27.2-8.1 63.5 34.8 81.1 93.7"/>
        <path class="st1" d="M1468.3 837.9c-17.6-58.8-10.2-114.9 17-123 27.2-8.1 64.9 34.4 82.5 93.2"/>
    </g>
</svg>
