<svg xmlns="http://www.w3.org/2000/svg" viewBox="0 0 1920 1920">
    <style>
        .st0{fill:#fff}.st1,.st2{fill:none;stroke:#000;stroke-linecap:round;stroke-linejoin:round}.st1{stroke-miterlimit:10;stroke-width:50}.st2{stroke-width:.5}
    </style>
    <path class="st0" d="M1200.4 838.1l8.7 97.4-223.4-181.1c23.2-21 53.8-33.5 86.4-33.5 8.4 0 16.9.8 25.4 2.5 55.9 11.2 97.8 57.9 102.9 114.7zm-277.6 273.2l-13.7-152.9c-3.7-41-26.5-76.8-60-97.7-12.9-8-27.4-13.9-42.9-17-54-10.8-106.6 13.9-134.1 57.5-9.4 14.9-15.9 32.1-18.6 50.8l-53.1 378.8 350.5 96-22.4-250.2-5.7-65.3zm-144-74.6c-29.7 0-53.8-24.1-53.8-53.8 0-29.7 24.1-53.8 53.8-53.8 29.7 0 53.8 24.1 53.8 53.8.1 29.7-24 53.8-53.8 53.8z" id="Layer_3"/>
    <circle class="st0" cx="778.8" cy="982.8" r="53.8" id="Layer_4"/>
    <path class="st0" d="M1703.7 1336.7l-301.4 176.5-366.7-307.3-112.9-94.6L909 958.4c-3.7-41-26.5-76.8-60-97.7-12.9-8-27.4-13.9-42.9-17-54-10.8-106.6 13.9-134.1 57.5l-455.8-382 340.3-112.5 346.7 281.1L1126.8 869l576.9 467.7z" id="Layer_5"/>
    <g id="STROKE">
        <path class="st1" d="M922.8 1111.3l112.9 94.6 366.7 307.3 301.3-176.5L1126.8 869 903.4 687.9 556.6 406.8 216.3 519.2l455.8 382"/>
        <path class="st1" d="M672.1 901.2c-9.4 14.9-15.9 32.1-18.6 50.8l-53.1 378.8 350.5 96-22.4-250.2-5.8-65.3L909 958.4c-3.7-41-26.5-76.8-60-97.7-12.9-8-27.4-13.9-42.9-17-54-10.8-106.5 13.9-134 57.5z"/>
        <path class="st1" d="M1326.6 1355.1c-2.1-77.8 14.4-120.6 61.2-144.3 46.8-23.8 101.3 9.5 108.3 58.3"/>
        <path class="st1" d="M498.3 664.6c-1.8-67.6 12.5-104.8 53.2-125.4s88 8.2 94.1 50.7"/>
        <circle class="st1" cx="778.8" cy="982.8" r="53.8"/>
        <path class="st1" d="M1200.4 838.1c-5.1-56.8-47-103.5-102.9-114.7-8.5-1.7-17-2.5-25.4-2.5-32.6 0-63.2 12.5-86.4 33.5l223.5 181.2-8.8-97.5z"/>
    </g>
</svg>
