<svg xmlns="http://www.w3.org/2000/svg" viewBox="0 0 1920 1920">
    <style>
        .st0{fill:#fff}.st1{fill:none;stroke:#231f20;stroke-width:50;stroke-linecap:round;stroke-linejoin:round;stroke-miterlimit:10}
    </style>
    <path class="st0" d="M430 217v1486.1h1060V217H430zm122.8 149.1h598.9v117.1H552.8V366.1zm0 234.2h598.9v117.1H552.8V600.3zm0 234.2h598.9v117.1H552.8V834.5zm0 234.1h598.9v117.1H552.8v-117.1zm797 351.3h-797v-117.1h797v117.1zM1298 1179c-28.6 0-51.8-23.2-51.8-51.8 0-28.6 23.2-51.8 51.8-51.8 28.6 0 51.8 23.2 51.8 51.8 0 28.6-23.2 51.8-51.8 51.8zm0-234.2c-28.6 0-51.8-23.2-51.8-51.8 0-28.6 23.2-51.8 51.8-51.8 28.6 0 51.8 23.2 51.8 51.8 0 28.6-23.2 51.8-51.8 51.8zm0-234.2c-28.6 0-51.8-23.2-51.8-51.8 0-28.6 23.2-51.8 51.8-51.8 28.6 0 51.8 23.2 51.8 51.8 0 28.6-23.2 51.8-51.8 51.8zm0-234.2c-28.6 0-51.8-23.2-51.8-51.8 0-28.6 23.2-51.8 51.8-51.8 28.6 0 51.8 23.2 51.8 51.8 0 28.7-23.2 51.8-51.8 51.8z" id="Layer_2"/>
    <path class="st0" d="M1298 1075.4c-28.6 0-51.8 23.2-51.8 51.8s23.2 51.8 51.8 51.8 51.8-23.2 51.8-51.8-23.2-51.8-51.8-51.8zm0-599c28.6 0 51.8-23.2 51.8-51.8s-23.2-51.8-51.8-51.8-51.8 23.2-51.8 51.8 23.2 51.8 51.8 51.8zm0 364.8c-28.6 0-51.8 23.2-51.8 51.8s23.2 51.8 51.8 51.8 51.8-23.2 51.8-51.8-23.2-51.8-51.8-51.8zm0-234.2c-28.6 0-51.8 23.2-51.8 51.8s23.2 51.8 51.8 51.8 51.8-23.2 51.8-51.8-23.2-51.8-51.8-51.8z" id="Layer_4"/>
    <path class="st0" d="M1151.7 717.4V600.3h-142.5v117.1h142.5zm0-351.3H835.3v117.1h316.3V366.1zm0 468.4h-468v117.1h468V834.5zm-598.9 468.3v117.1h797v-117.1h-797z" id="Layer_5"/>
    <path class="st0" d="M835.3 366.1H552.8v117.1h282.5V366.1zm173.8 234.2H552.8v117.1h456.3V600.3zM683.6 834.5H552.8v117.1h130.9V834.5zm-130.8 234.2v117.1h598.9v-117.1H552.8z" id="Layer_6"/>
    <g id="STROKES">
        <path class="st1" d="M430 216.9h1060.1V1703H430z"/>
        <path class="st1" d="M552.8 366.1h282.5v117.1H552.8z"/>
        <path class="st1" d="M552.8 366.1h598.9v117.1H552.8z"/>
        <path class="st1" d="M552.8 600.3h456.3v117.1H552.8z"/>
        <path class="st1" d="M552.8 600.3h598.9v117.1H552.8z"/>
        <path class="st1" d="M552.8 834.5h130.9v117.1H552.8z"/>
        <path class="st1" d="M552.8 834.5h598.9v117.1H552.8z"/>
        <path class="st1" d="M552.8 1068.7h598.9v117.1H552.8z"/>
        <path class="st1" d="M552.8 1302.8h797v117.1h-797z"/>
        <circle class="st1" cx="1298" cy="424.7" r="51.8"/>
        <circle class="st1" cx="1298" cy="658.8" r="51.8"/>
        <circle class="st1" cx="1298" cy="893" r="51.8"/>
        <circle class="st1" cx="1298" cy="1127.2" r="51.8"/>
    </g>
</svg>
