<svg xmlns="http://www.w3.org/2000/svg" viewBox="0 0 1920 1920">
    <style>
        .st0{fill:#fff}.st1{fill:none;stroke:#231f20;stroke-width:50;stroke-linecap:round;stroke-linejoin:round;stroke-miterlimit:10}
    </style>
    <path class="st0" d="M836.5 1230.8H217v233.1c0 40.8 33 73.8 73.8 73.8h1269.1c40.8 0 73.8-33 73.8-73.8v-233.1H836.5z" id="Layer_2"/>
    <path class="st0" d="M1397.5 772.1c48.4 0 87.7-39.2 87.7-87.7s-39.2-87.7-87.7-87.7c-48.4 0-87.7 39.2-87.7 87.7s39.3 87.7 87.7 87.7zm0 100.3c-68.6 0-124.2 55.6-124.2 124.2s55.6 124.2 124.2 124.2 124.2-55.6 124.2-124.2-55.6-124.2-124.2-124.2z" id="Layer_5"/>
    <path class="st0" d="M1661.8 582.8h-28.1v-27.4c0-34.9-28.3-63.2-63.2-63.2h-84.9V382.4h-56.2v109.8H407.7c-36 0-65.1 29.2-65.1 65.1v233.2l21 146.6h307.1l74.9-146.6h415.7v440.2h472.3V811.3h28.1c22.7 0 41-18.4 41-41V623.9c.2-22.7-18.2-41.1-40.9-41.1zm-264.3 14c48.4 0 87.6 39.2 87.6 87.7 0 48.4-39.2 87.7-87.6 87.7-48.4 0-87.7-39.2-87.7-87.7.1-48.4 39.3-87.7 87.7-87.7zm0 524c-68.6 0-124.2-55.6-124.2-124.2s55.6-124.1 124.2-124.1 124.1 55.6 124.1 124.1-55.5 124.2-124.1 124.2z" id="Layer_7"/>
    <g id="STROKES">
        <path class="st1" d="M1161.4 492.2H407.7c-36 0-65.1 29.2-65.1 65.1v233.2l21 146.6h307.2l74.9-146.6h415.7v440.2H216.9v233c0 40.8 33 73.8 73.8 73.8h1269.1c40.8 0 73.8-33 73.8-73.8V555.4c0-34.9-28.3-63.2-63.2-63.2h-409z"/>
        <path class="st1" d="M1661.8 811.3h-28.1V582.8h28.1c22.7 0 41.1 18.4 41.1 41.1v146.4c0 22.7-18.4 41-41.1 41z"/>
        <path class="st1" d="M1429.4 382.4h56.2v109.8h-56.2z"/>
        <path class="st1" d="M655.9 492.2v445"/>
        <circle class="st1" cx="1397.5" cy="684.5" r="87.7"/>
        <circle class="st1" cx="1397.5" cy="996.6" r="124.2"/>
        <path class="st1" d="M1078.3 1230.8h555.4"/>
        <path class="st1" d="M216.9 1463.8h619.6v-233"/>
        <path class="st1" d="M554.6 937.2v183.6"/>
        <path class="st1" d="M342.6 790.6h313.3"/>
    </g>
</svg>
