<svg xmlns="http://www.w3.org/2000/svg" viewBox="0 0 1920 1920">
    <style>
        .st0{fill:#fff}.st1{fill:none;stroke:#231f20;stroke-width:50;stroke-linecap:round;stroke-linejoin:round;stroke-miterlimit:10}
    </style>
    <path class="st0" d="M1410.9 682.3c-38.1-26.3-87.1-40.4-139.5-40.4-146.5 0-607.4 138.5-778.5-19-.6-.6-1.3-1.1-1.9-1.7h-64.1v460h66s47.1 10.4 79.2-121.1 582.5-100.3 580.6 0c-1.9 100.3-103.6 389-103.7 389.2h416.6c-.1-.2-73.5-238 0-417.1 5.9-14.5 10.6-28.5 14.1-42.1 24.2-94.5-8.6-166.3-68.8-207.8z" id="Layer_9"/>
    <path class="st0" d="M216.9 1349.2v60.6h111.7v194.1h26.3l36.9-118.7h935.5l36.8 118.7h26.4v-194.1h113.8v-60.6z" id="Layer_10"/>
    <path class="st0" d="M1662.5 546c-22.4 0-40.5 18.1-40.5 40.5v80.1h-211.2v15.6c60.2 41.5 93.1 113.4 68.7 207.8H1622v125c0 22.4 18.1 40.5 40.5 40.5 11.2 0 21.3-4.5 28.6-11.9 7.3-7.3 11.9-17.5 11.9-28.6V586.5c.1-22.4-18.1-40.5-40.5-40.5z" id="Layer_11"/>
    <g id="STROKES">
        <path class="st1" d="M216.9 1349.2h1287.4v60.6H216.9z"/>
        <path class="st1" d="M328.5 1409.8h1061.9v75.4H328.5z"/>
        <path class="st1" d="M1364.1 1603.9h26.4v-118.7h-63.2z"/>
        <path class="st1" d="M354.9 1603.9h-26.4v-118.7h63.3z"/>
        <path class="st1" d="M426.9 621.1h66V1081h-66z"/>
        <path class="st1" d="M1271.3 641.9V492.2"/>
        <path class="st1" d="M492.8 621.1V546"/>
        <path class="st1" d="M468.5 1081.1v191.6"/>
        <path class="st1" d="M1662.5 1055.5c-22.4 0-40.5-18.1-40.5-40.5V586.5c0-22.4 18.1-40.5 40.5-40.5s40.5 18.1 40.5 40.5V1015c.1 22.4-18.1 40.5-40.5 40.5z"/>
        <path class="st1" d="M1516.4 666.6H1622V890h-105.6z"/>
        <path class="st1" d="M1479.6 890.1c-3.5 13.6-8.2 27.6-14.1 42.1-73.5 179.1 0 417.1 0 417.1h-416.6s101.8-288.9 103.7-389.2c1.9-100.3-548.5-131.5-580.6 0-32 131.5-79.2 121.1-79.2 121.1h-66v-460h64.1c169.7 160.2 633.4 20.7 780.4 20.7 52.4 0 101.4 14.1 139.5 40.4 60.3 41.5 93.1 113.3 68.8 207.8z"/>
        <path class="st1" d="M1516.4 666.6V890h-36.8c24.3-94.5-8.6-166.3-68.7-207.8v-15.6h105.5z"/>
    </g>
</svg>
