<svg xmlns="http://www.w3.org/2000/svg" viewBox="0 0 1920 1920">
    <style>
        .st0{fill:#fff}.st1,.st2{fill:none;stroke:#231f20;stroke-width:50;stroke-linecap:round;stroke-linejoin:round;stroke-miterlimit:10}.st2{stroke:#000}
    </style>
    <path class="st0" d="M1278.1 1027.7c0 19.1 18.9 41.8 47.2 63.3 39.1 29.8 96.2 57.2 145.4 68.8 15.9 3.8 31 5.8 44.4 5.8 24.8 0 43.3 3.7 57.1 9.7 32.9 14.3 38.9 42.1 38.9 65.3 0 33-249 78-318 126s-84 69-84 69H225s249.5-398.8 532.5-659.4c328-302 590.5-422.2 580.6-414.7 0 0 93 132 93 210 0 12.8-4.1 25.3-11.1 37.8-16.9 30.6-50.3 61.1-80.4 96.1-25 29-47.8 61-57.1 98.5-2.9 11.5-4.5 23.6-4.5 36.2v178c.1 3.6.1 6.7.1 9.6zm-71.9-396.2c0-27.6-22.4-50-50-50s-50 22.4-50 50 22.4 50 50 50 50-22.4 50-50z" id="Layer_4"/>
    <path class="st0" d="M1156.2 581.5c27.6 0 50 22.4 50 50s-22.4 50-50 50-50-22.4-50-50 22.4-50 50-50z" id="Layer_5"/>
    <g id="Layer_6">
        <path class="st0" d="M1376.1 705.7l22 84.8-72.3 8.1-42.7 4.8c9.3-37.6 32.1-69.6 57.1-98.5l.9.8h35z"/>
        <path class="st0" d="M1325.3 799.3l68.5 88.7-115.7 12v-59.6c0-12.6 1.6-24.7 4.5-36.2l42.7-4.9z"/>
        <path class="st0" d="M1385.1 977.2l-107 41.2V900l107 77.2z"/>
        <path class="st0" d="M1452.3 1112.6l18.4 47.3c-49.2-11.6-106.3-39-145.4-68.8l105.9-32.7 21.1 54.2z"/>
        <path class="st0" d="M1536.7 1080.3l35.6 95.1c-13.8-6-32.3-9.7-57.1-9.7-13.4 0-28.5-2.1-44.4-5.8l-18.4-47.3 84.3-32.3z"/>
        <path class="st0" d="M1420.7 608.9l67.4 96.8h-147l-.9-.8c30.2-34.9 63.6-65.4 80.5-96z"/>
    </g>
    <g id="Layer_1">
        <path class="st1" d="M1209.1 1435.8s15-21 84-69 318-93 318-126c0-23.3-6-51-38.9-65.3-13.8-6-32.3-9.7-57.1-9.7-13.4 0-28.5-2.1-44.4-5.8-49.2-11.6-106.3-39-145.4-68.8-28.2-21.5-47.2-44.3-47.2-63.3"/>
        <path class="st1" d="M1179.1 1126.7s99-24 99-96V840.3c0-12.6 1.6-24.7 4.5-36.2 9.3-37.6 32.1-69.6 57.1-98.5 30.2-35 63.6-65.5 80.4-96.1 6.9-12.5 11.1-25 11.1-37.8 0-78-93-210-93-210 9.9-7.5-252.6 112.7-580.6 414.7-283 260.6-532.5 659.4-532.5 659.4"/>
        <path class="st1" d="M533.6 1180.3c141.1 0 255.4 114.4 255.4 255.4"/>
        <path class="st1" d="M440.1 1273.9c108 0 200.4 67.1 237.8 161.9"/>
        <path class="st1" d="M346.5 1367.5c67.2 0 128.3 25.9 173.9 68.3"/>
        <path class="st1" d="M1206.2 631.5c0 27.6-22.4 50-50 50s-50-22.4-50-50 22.4-50 50-50 50 22.4 50 50z"/>
        <path class="st1" d="M216.9 1263.6L298 1141"/>
        <path class="st1" d="M1420.1 609.5l67.4 96.8h-147"/>
        <path class="st1" d="M1375.5 706.3l22 84.9-72.2 8.1-42.7 4.8"/>
        <path class="st1" d="M1325.3 799.3l68.5 88.7-115.7 12"/>
        <path class="st1" d="M1278.1 900l107 77.2-107 41.1"/>
        <path class="st1" d="M1325.3 1091.1l105.8-32.8 21.2 54.3 18.4 47.3"/>
        <path class="st1" d="M1450.9 1113.1l1.4-.5 84.4-32.3 35.6 95.1"/>
        <path class="st1" d="M1562.9 669l37-56"/>
        <path class="st1" d="M1553.5 878.9l55.9 37"/>
        <path class="st1" d="M1703.1 1396.2c-53.5 53.5-140.2 53.5-193.6 0-53.5 53.5-140.2 53.5-193.6 0"/>
    </g>
</svg>
