<svg xmlns="http://www.w3.org/2000/svg" viewBox="0 0 1920 1920">
    <style>
        .st0{fill:#fff}.st1{fill:none;stroke:#000;stroke-width:50;stroke-linecap:round;stroke-linejoin:round;stroke-miterlimit:10}
    </style>
    <ellipse class="st0" cx="444.4" cy="1371.9" rx="109.7" ry="109.7" id="Layer_2"/>
    <path class="st0" d="M689.9 768.8c-21.5-2.5-40.8-12.2-55.4-26.6-6.5 6.4-13.9 11.9-22 16.2-13.3 7.1-28.4 11.1-44.5 11.1-25.9 0-49.4-10.4-66.5-27.2-17.1 16.9-40.6 27.2-66.5 27.2-52.4 0-94.8-42.5-94.8-94.8 0-37.9 22.2-70.5 54.2-85.7 3.4-49.2 44.5-88.1 94.6-88.1 33 0 62 16.9 79 42.4 17-25.5 61.3-42.4 94.3-42.4 4.5 9.5 10.7 18.5 18.6 26.4l60.8 60.8c10.5 10.5 22.9 18 36 22.5 12.5 16.1 18.2 42.3 18.2 64.2 0 52.4-42.5 94.8-94.8 94.8-3.9-.1-7.6-.4-11.2-.8z" id="Layer_3"/>
    <path class="st0" d="M1631.6 544.9c27.9 13.2 47.2 41.7 47.2 74.6 0 45.6-37 82.5-82.5 82.5-22.6 0-43-9-57.9-23.7-14.9 14.7-35.3 23.7-57.9 23.7-22.5 0-43-9-57.9-23.7-14.9 14.7-35.3 23.7-57.9 23.7-45.6 0-82.5-37-82.5-82.5 0-26.3 9.8-51.8 29.1-66.9 6.5-3.6 12.6-8.2 18.1-13.7l52.9-52.9c5.1-5.1 9.4-10.7 12.9-16.7l.7.4c5.2-1 10.5-1.5 15.9-1.5 28.7 0 54 14.7 68.8 36.9 14.8-22.2 40.1-36.9 68.8-36.9 43.5 0 79.2 33.8 82.2 76.7z" id="Layer_4"/>
    <path class="st0" d="M404.4 1134.8c31.9 31.9 31.9 83.7 0 115.6l-52.9 52.9c-31.9 31.9-83.7 31.9-115.6 0-31.9-31.9-31.9-83.7 0-115.6l52.9-52.9c32-32 83.7-32 115.6 0z" id="Layer_5"/>
    <path class="st0" d="M1173.6 1095.3c-5 .7-10.1 1-15.3 1-62.1 0-112.5-50.4-112.5-112.5V880.9c0-12.3 2-24.1 5.6-35.2 14.8-44.9 57-77.3 106.9-77.3s92.1 32.4 106.9 77.3c3.6 11.1 5.6 22.9 5.6 35.2v102.9c-.1 57-42.4 104-97.2 111.5z" id="Layer_6"/>
    <path class="st0" d="M1679.4 1246.5c31.9 31.9 31.9 83.7 0 115.6-21.5 21.5-51.9 28.5-79.3 21.1-13.3-3.6-25.9-10.6-36.3-21.1l-52.9-52.9c-7.1-7.1-12.6-15.2-16.6-23.8-13.8-30.1-8.2-66.9 16.6-91.8 31.9-31.9 83.7-31.9 115.6 0l52.9 52.9z" id="Layer_7"/>
    <path class="st0" d="M1387.3 370.4c26.8 26.8 31.1 67.6 12.9 98.9-3.5 6-7.8 11.6-12.9 16.7l-52.9 52.9c-5.5 5.5-11.6 10.1-18.1 13.7-31.1 17.3-71.1 12.7-97.5-13.7-31.9-31.9-31.9-83.7 0-115.6l52.9-52.9c32-31.9 83.7-31.9 115.6 0z" id="Layer_8"/>
    <path class="st0" d="M874.4 455.1c36.7 36.7 36.7 96.1 0 132.8-26.2 26.2-64 33.7-96.8 22.5-13.2-4.5-25.5-12-36-22.5l-60.8-60.8c-7.9-7.9-14.1-16.8-18.6-26.4-16.4-34.8-10.2-77.6 18.6-106.4 36.7-36.7 96.1-36.7 132.8 0l60.8 60.8z" id="Layer_9"/>
    <path class="st0" d="M1173.6 1095.3c9.8 16.8 15.1 42.5 15.1 63.4 0 62.7-50.8 113.6-113.6 113.6-31 0-59.2-12.5-79.7-32.6-20.5 20.2-48.6 32.6-79.7 32.6-31 0-59.2-12.5-79.7-32.6-20.5 20.2-48.6 32.6-79.7 32.6-62.7 0-113.6-50.9-113.6-113.6 0-45.3 26.6-84.5 65-102.7 4.1-59 53.3-105.6 113.3-105.6 39.5 0 74.3 20.2 94.7 50.8 20.3-30.6 55.1-50.8 94.7-50.8 10.5 0 25.8 2.8 35.3 5.4v28c0 62.1 50.4 112.5 112.5 112.5 5.2 0 10.3-.3 15.4-1z" id="Layer_10"/>
    <path class="st0" d="M1600.1 1383.2c7.8 12.6 10.9 37.6 10.9 53.5 0 45.6-36.9 82.5-82.5 82.5-22.5 0-43-9-57.9-23.7-5.9 5.9-12.8 10.8-20.3 14.7-11.3 5.8-24.1 9-37.6 9-22.6 0-43-9-57.9-23.7-14.9 14.7-35.3 23.7-57.9 23.7-45.6 0-82.5-36.9-82.5-82.5 0-32.9 19.3-61.4 47.2-74.6 3-42.9 38.7-76.7 82.3-76.7 28.7 0 54 14.7 68.8 36.9 14.8-22.2 52.9-36.9 81.6-36.9 3.9 8.6 9.5 16.7 16.6 23.8l52.9 52.9c10.4 10.4 23 17.5 36.3 21.1z" id="Layer_11"/>
    <g id="STROKES">
        <g id="XMLID_2_">
            <path class="st1" d="M1315.1 845.7h-50"/>
            <path class="st1" d="M834.7 1271v123.9"/>
            <path class="st1" d="M760.7 1272.2v122.7"/>
            <path class="st1" d="M992.2 1259v135.9"/>
            <path class="st1" d="M1066.2 1276.4v118.5"/>
            <path class="st1" d="M1045.7 955.8c-9.6-2.6-24.9-5.4-35.3-5.4-39.5 0-74.3 20.2-94.7 50.8-20.4-30.6-55.1-50.8-94.7-50.8-60 0-109.2 46.6-113.3 105.6-38.4 18.2-65 57.3-65 102.7 0 62.7 50.9 113.6 113.6 113.6 31 0 59.2-12.5 79.7-32.6 20.5 20.2 48.6 32.6 79.7 32.6 31 0 59.2-12.5 79.7-32.6 20.5 20.2 48.6 32.6 79.7 32.6 62.7 0 113.6-50.9 113.6-113.6 0-20.9-5.2-46.6-15.1-63.4"/>
            <path class="st1" d="M1045.7 955.8v-74.9c0-12.3 2-24.1 5.6-35.2 14.8-44.9 57-77.3 106.9-77.3s92.1 32.4 106.9 77.3c3.6 11.1 5.6 22.9 5.6 35.2v102.9c0 56.9-42.3 104-97.2 111.5-5 .7-10.1 1-15.3 1-62.1 0-112.5-50.4-112.5-112.5v-28z"/>
            <path class="st1" d="M1051.3 845.7h-50"/>
            <path class="st1" d="M1120.7 898v7.5"/>
            <path class="st1" d="M1195.7 898v7.5"/>
            <path class="st1" d="M1167.1 1006h-17.8"/>
            <path class="st1" d="M642.8 1158.7v148.7"/>
            <path class="st1" d="M529.8 768.4v78.2"/>
            <path class="st1" d="M454.8 768.4v78.2"/>
            <path class="st1" d="M612.5 758.4v88.2"/>
            <path class="st1" d="M689.9 768.4v78.2"/>
            <path class="st1" d="M662.3 500.8c-33 0-77.3 16.9-94.3 42.4-17-25.5-46-42.4-79-42.4-50.1 0-91.2 38.9-94.6 88.1-32.1 15.2-54.2 47.9-54.2 85.7 0 52.4 42.5 94.8 94.8 94.8 25.9 0 49.4-10.4 66.5-27.2 17.1 16.9 40.6 27.2 66.5 27.2 16.1 0 31.2-4 44.5-11.1 8.1-4.3 15.5-9.8 22-16.2 14.6 14.4 33.9 24.1 55.4 26.6 3.6.4 7.3.6 11.1.6 52.4 0 94.8-42.5 94.8-94.8 0-22-5.7-48.2-18.2-64.2"/>
            <path class="st1" d="M777.6 610.4c-13.2-4.5-25.5-12-36-22.5l-60.8-60.8c-7.9-7.9-14.1-16.8-18.6-26.4-16.4-34.8-10.2-77.6 18.6-106.4 36.7-36.7 96.1-36.7 132.8 0l60.8 60.7c36.7 36.7 36.7 96.1 0 132.8-26.2 26.3-64 33.8-96.8 22.6z"/>
            <path class="st1" d="M653.5 434.5h-77.2"/>
            <path class="st1" d="M772.8 455.4l4.4 4.4"/>
            <path class="st1" d="M884.2 471.5l-18 18"/>
            <path class="st1" d="M340.1 674.6v124.3"/>
            <path class="st1" d="M1525.6 697.1v65.4"/>
            <path class="st1" d="M1600.6 702v60.5"/>
            <path class="st1" d="M1419.9 687.1v75.4"/>
            <path class="st1" d="M1342.5 702v60.5"/>
            <path class="st1" d="M1395.8 469.7c5.2-1 10.5-1.5 15.9-1.5 28.7 0 54 14.7 68.8 36.9 14.8-22.2 40.1-36.9 68.8-36.9 43.6 0 79.3 33.8 82.3 76.7 27.9 13.2 47.2 41.7 47.2 74.6 0 45.6-37 82.5-82.5 82.5-22.6 0-43-9-57.9-23.7-14.9 14.7-35.3 23.7-57.9 23.7-22.5 0-43-9-57.9-23.7-14.9 14.7-35.3 23.7-57.9 23.7-45.6 0-82.5-37-82.5-82.5 0-26.3 9.8-51.8 29.1-66.9"/>
            <path class="st1" d="M1678.8 619.5v108.1"/>
            <path class="st1" d="M1311.2 552.6c6.5-3.6 12.6-8.2 18.1-13.7l52.9-52.9c5.1-5.1 9.4-10.7 12.9-16.7 18.2-31.3 14-72.1-12.9-98.9-31.9-31.9-83.7-31.9-115.6 0l-52.9 52.9c-31.9 31.9-31.9 83.7 0 115.6 26.5 26.4 66.5 30.9 97.5 13.7z"/>
            <path class="st1" d="M1406.1 405.4h67.2"/>
            <path class="st1" d="M1303.1 424.5l-3.8 3.8"/>
            <path class="st1" d="M1205.3 437.6l15.7 15.6"/>
            <path class="st1" d="M1367.6 1510.2v69.5"/>
            <path class="st1" d="M1292.6 1519.2v60.5"/>
            <path class="st1" d="M1450.3 1510.2v69.5"/>
            <path class="st1" d="M1527.7 1519.2v60.5"/>
            <path class="st1" d="M1494.3 1285.4c-28.7 0-66.9 14.7-81.6 36.9-14.8-22.2-40.1-36.9-68.8-36.9-43.6 0-79.3 33.8-82.3 76.7-27.9 13.2-47.2 41.7-47.2 74.6 0 45.6 36.9 82.5 82.5 82.5 22.5 0 43-9 57.9-23.7 14.9 14.7 35.3 23.7 57.9 23.7 13.5 0 26.3-3.3 37.6-9 7.5-3.8 14.3-8.8 20.3-14.7 14.9 14.7 35.3 23.7 57.9 23.7 45.6 0 82.5-36.9 82.5-82.5 0-15.9-3.1-40.9-10.9-53.5"/>
            <path class="st1" d="M1600.1 1383.2c-13.3-3.6-25.9-10.6-36.3-21.1l-52.9-52.9c-7.1-7.1-12.6-15.2-16.6-23.8-13.8-30.1-8.2-66.9 16.6-91.8 31.9-31.9 83.7-31.9 115.6 0l52.9 52.9c31.9 31.9 31.9 83.7 0 115.6-21.5 21.5-52 28.5-79.3 21.1z"/>
            <path class="st1" d="M1487.1 1228.6h-67.2"/>
            <path class="st1" d="M1590.1 1247.7l3.8 3.8"/>
            <path class="st1" d="M1687.8 1260.8l-15.6 15.6"/>
            <path class="st1" d="M1214.4 1436.7v108.1"/>
            <path class="st1" d="M393 1473.9v87.7"/>
            <path class="st1" d="M495.4 1472.9v88.7"/>
            <ellipse class="st1" cx="444.4" cy="1371.9" rx="109.7" ry="109.7"/>
            <path class="st1" d="M404.4 1134.8c-31.9-31.9-83.7-31.9-115.6 0l-52.9 52.9c-31.9 31.9-31.9 83.7 0 115.6 31.9 31.9 83.7 31.9 115.6 0l52.9-52.9c32-32 32-83.7 0-115.6z"/>
            <path class="st1" d="M428.2 1169.7h67.2"/>
            <path class="st1" d="M325.3 1188.8l-3.8 3.8"/>
            <path class="st1" d="M227.5 1201.9l15.6 15.6"/>
            <path class="st1" d="M545.9 1426l34.2 34.1"/>
        </g>
    </g>
</svg>
