<svg xmlns="http://www.w3.org/2000/svg" viewBox="0 0 1920 1920">
    <style>
        .st0{fill:#fff}.st1{fill:none;stroke:#000;stroke-width:50;stroke-linecap:round;stroke-linejoin:round;stroke-miterlimit:10}
    </style>
    <path class="st0" d="M694.3 740.1c0 26.7 21.6 48.3 48.3 48.3 26.7 0 48.3-21.6 48.3-48.3 0-26.7-21.6-48.3-48.3-48.3-26.6 0-48.3 21.7-48.3 48.3zm20.9-184.3zm2.7-.6c-.8.1-1.5.3-2.3.5.7-.2 1.5-.3 2.3-.5zm6.3-1.2c-1 .1-2 .3-3 .5-.9.2-1.8.3-2.7.5.9-.2 1.8-.3 2.7-.5 1-.1 2-.3 3-.5zm-23.1 6c-.9.3-1.8.7-2.7 1-.9.3-1.8.7-2.7 1.1.9-.4 1.8-.8 2.7-1.1.9-.3 1.8-.7 2.7-1zm11.3-3.5c-.9.2-1.8.5-2.8.8-1.9.5-3.8 1.1-5.7 1.8-.9.3-1.8.6-2.7 1 .9-.3 1.8-.6 2.7-1l5.7-1.8c.9-.3 1.8-.6 2.8-.8zm-44.3 21.9c-.8.6-1.5 1.2-2.3 1.8-.7.6-1.5 1.2-2.2 1.9-.7.6-1.5 1.3-2.2 1.9.7-.7 1.4-1.3 2.2-1.9.7-.6 1.5-1.2 2.2-1.9.8-.6 1.5-1.2 2.3-1.8zm3.2-2.4c.5-.4 1.1-.8 1.6-1.2-.5.4-1.1.8-1.6 1.2zm1.7-1.3c1-.7 2.1-1.5 3.2-2.2-1.1.8-2.1 1.5-3.2 2.2zm20.4-11.6c-.5.2-1 .4-1.4.7-4.2 1.9-8.4 4.2-12.4 6.6-1.1.7-2.2 1.3-3.2 2.1 1.1-.7 2.1-1.4 3.2-2.1 4-2.4 8.1-4.7 12.4-6.6.4-.3.9-.5 1.4-.7zm553.7 11.7c.5.4 1.1.8 1.6 1.2-.5-.4-1.1-.8-1.6-1.2zm11.4 9.2c-.7-.7-1.4-1.3-2.2-1.9-.7-.7-1.5-1.3-2.2-1.9-.8-.6-1.5-1.2-2.3-1.8.8.6 1.5 1.2 2.3 1.8.7.6 1.5 1.2 2.2 1.9.8.6 1.5 1.3 2.2 1.9zm-57.1-28.9c-.9-.2-1.8-.4-2.7-.5-1-.2-2-.4-3-.5 1 .2 2 .3 3 .5.9.1 1.8.3 2.7.5zm3 .6c-.8-.2-1.5-.4-2.3-.5.8.2 1.6.3 2.3.5zm3 .7c-.9-.2-1.8-.4-2.6-.6.9.2 1.8.4 2.6.6zm11.4 3.6c-.9-.3-1.8-.7-2.7-1-1.9-.7-3.8-1.2-5.7-1.8-.9-.3-1.8-.5-2.8-.8.9.2 1.8.5 2.8.8 1.9.5 3.8 1.1 5.7 1.8.9.3 1.8.6 2.7 1zm5.5 2.1c-.9-.4-1.8-.8-2.7-1.1-.9-.4-1.8-.7-2.7-1 .9.3 1.8.7 2.7 1 .9.4 1.8.8 2.7 1.1zm2.3 1c.5.2 1 .4 1.4.7 4.3 2 8.4 4.2 12.4 6.6 1.1.7 2.2 1.4 3.2 2.1-1.1-.7-2.1-1.4-3.2-2.1-4-2.5-8.2-4.7-12.4-6.6-.4-.3-.9-.5-1.4-.7zm20.4 11.6c-1.1-.8-2.1-1.5-3.2-2.2 1.1.8 2.1 1.5 3.2 2.2zM957.9 1410c84.5 1.1 154.9-61 168.5-141.8.3-.9.4-1.9.4-2.8-.1.9-.3 1.9-.4 2.8-6.7 20.7-86.7 31-166.4 30.9-77.2-.1-154-9.9-163.5-29.5-.4-1.4-.7-2.8-1-4.2 0 1.4.3 2.8 1 4.2 19.4 78.5 79 139.3 161.4 140.4zM378.2 660.5c-25.5-55.2 14.9-125.2 75.4-130.6l47.1-4.3c42.3-3.8 75.8-37.3 79.6-79.6l4.3-47.1c5.5-60.6 69.3-97.4 124.5-71.9l43 19.9c38.5 17.8 84.3 5.6 108.8-29.1l27.3-38.7c35-49.7 108.7-49.7 143.7 0l27.3 38.7c24.4 34.7 70.2 47 108.8 29.1l43-19.9c55.2-25.5 119 11.3 124.5 71.9l4.3 47.1c3.8 42.3 37.3 75.8 79.6 79.6l47.2 4.3c60.6 5.5 101 75.5 75.4 130.6 12.9 7.3 25.1 16.1 35.6 26.7 70.5 70.5 125.6 190.7 125.6 190.7s-78 12.8-162.7 13.6c46.1 35 46.1 114.9 0 149.9l-35.9 27.3c-32.2 24.5-43.6 70.2-27 108.8l18.4 43c23.7 55.2-10.5 119-66.6 124.4l-43.7 4.3c-39.2 3.8-70.3 37.3-73.8 79.6l-3.9 47.2c-5.1 60.5-64.2 97.4-115.4 71.8l-39.8-19.9c-35.7-17.8-78.2-5.6-100.9 29.1l-25.3 38.7c-32.5 49.7-100.8 49.7-133.3 0L868 1557c-22.7-34.7-65.1-47-100.9-29.1l-39.8 19.9c-51.2 25.5-110.3-11.3-115.4-71.8l-4-47.2c-3.5-42.3-34.6-75.8-73.8-79.6l-43.7-4.3c-56.1-5.5-90.3-69.3-66.6-124.4l18.4-43c16.5-38.5 5.2-84.3-27-108.8l-35.9-27.3c-46.1-35-46.1-114.9 0-149.9-84.5-.9-162.3-13.6-162.3-13.6s55.1-120.2 125.6-190.7c10.6-10.5 22.7-19.3 35.6-26.7zm847.5 79.6c0-26.7-21.6-48.3-48.3-48.3-26.7 0-48.3 21.6-48.3 48.3 0 26.7 21.6 48.3 48.3 48.3 26.6 0 48.3-21.6 48.3-48.3z" id="Layer_14"/>
    <g id="Layer_15">
        <path class="st0" d="M1177.4 691.8c26.7 0 48.3 21.6 48.3 48.3 0 26.7-21.6 48.3-48.3 48.3-26.7 0-48.3-21.6-48.3-48.3 0-26.6 21.6-48.3 48.3-48.3z"/>
        <path class="st0" d="M742.6 691.8c26.7 0 48.3 21.6 48.3 48.3 0 26.7-21.6 48.3-48.3 48.3-26.7 0-48.3-21.6-48.3-48.3 0-26.6 21.7-48.3 48.3-48.3z"/>
    </g>
    <path class="st0" d="M960 1299c79.7.1 159.7-10.2 166.4-30.9-13.6 80.8-83.9 142.9-168.5 141.8-82.4-1-142-61.9-161.4-140.5 9.5 19.7 86.3 29.5 163.5 29.6z" id="Layer_16"/>
    <g id="STROKES">
        <g id="XMLID_2_">
            <path class="st1" d="M1540.3 891.5c46.1 35 46.1 114.9 0 149.9l-35.9 27.3c-32.2 24.5-43.6 70.2-27 108.8l18.4 43c23.7 55.2-10.5 119-66.6 124.4l-43.7 4.3c-39.2 3.8-70.3 37.3-73.8 79.6l-3.9 47.2c-5.1 60.5-64.2 97.4-115.4 71.8l-39.8-19.9c-35.7-17.8-78.2-5.6-100.9 29.1l-25.3 38.7c-32.5 49.7-100.8 49.7-133.3 0l-25.3-38.7c-22.7-34.7-65.1-47-100.9-29.1l-39.8 19.9c-51.2 25.5-110.3-11.3-115.4-71.8l-4-47.2c-3.5-42.3-34.6-75.8-73.8-79.6l-43.7-4.3c-56.1-5.5-90.3-69.3-66.6-124.4l18.4-43c16.5-38.5 5.2-84.3-27-108.8l-35.9-27.3c-46.1-35-46.1-114.9 0-149.9"/>
            <path class="st1" d="M378.2 660.5c-25.5-55.2 14.9-125.2 75.4-130.6l47.1-4.3c42.3-3.8 75.8-37.3 79.6-79.6l4.3-47.1c5.5-60.6 69.3-97.4 124.5-71.9l43 19.9c38.5 17.8 84.3 5.6 108.8-29.1l27.3-38.7c35-49.7 108.7-49.7 143.7 0l27.3 38.7c24.4 34.7 70.2 47 108.8 29.1l43-19.9c55.2-25.5 119 11.3 124.5 71.9l4.3 47.1c3.8 42.3 37.3 75.8 79.6 79.6l47.2 4.3c60.6 5.5 101 75.5 75.4 130.6"/>
            <path class="st1" d="M694.3 740.1c0-26.7 21.6-48.3 48.3-48.3 26.7 0 48.3 21.6 48.3 48.3 0 26.7-21.6 48.3-48.3 48.3"/>
            <path class="st1" d="M742.6 788.4c-26.7 0-48.3-21.6-48.3-48.3"/>
            <path class="st1" d="M960 1253.6c0-26.7-21.6-48.3-48.3-48.3-26.7 0-48.3-21.6-48.3-48.3"/>
            <path class="st1" d="M1056.6 1157.1c0 26.7-21.6 48.3-48.3 48.3-26.7 0-48.3 21.6-48.3 48.3v45.4"/>
            <path class="st1" d="M560.7 857c-39.6 28.1-112.8 35.2-181.4 34.5-84.5-.9-162.3-13.6-162.3-13.6s55.1-120.2 125.6-190.7c10.6-10.6 22.7-19.4 35.6-26.7 73.3-41.5 173.3-35.7 173.3-35.7"/>
            <path class="st1" d="M728.8 553.4c4.5-.5 9.1-.8 13.8-.8"/>
            <path class="st1" d="M718.6 555.1c.9-.2 1.8-.3 2.7-.5 1-.2 2-.3 3-.5"/>
            <path class="st1" d="M715.6 555.7c.8-.2 1.5-.3 2.3-.5"/>
            <path class="st1" d="M712.6 556.4c.9-.2 1.8-.4 2.6-.6"/>
            <path class="st1" d="M701.2 560c.9-.3 1.8-.6 2.7-1l5.7-1.8c.9-.3 1.8-.5 2.8-.8"/>
            <path class="st1" d="M695.7 562.1c.9-.4 1.8-.8 2.7-1.1.9-.4 1.8-.7 2.7-1"/>
            <path class="st1" d="M676.3 572.5c1.1-.7 2.1-1.4 3.2-2.1 4-2.4 8.1-4.7 12.4-6.6.5-.2 1-.4 1.4-.7"/>
            <path class="st1" d="M673 574.7c1-.7 2.1-1.5 3.2-2.2"/>
            <path class="st1" d="M671.3 576c.5-.4 1.1-.8 1.6-1.2"/>
            <path class="st1" d="M661.5 584c.7-.7 1.4-1.3 2.2-1.9.7-.6 1.5-1.2 2.2-1.9.8-.6 1.5-1.2 2.3-1.8"/>
            <path class="st1" d="M706 1102.2c-13-19.3-84.1-143.9-84.1-428.9 0-34.3 14.3-65.3 37.3-87.2"/>
            <path class="st1" d="M1260.8 586.1c.7.6 1.3 1.2 1.9 1.9"/>
            <path class="st1" d="M1251.9 578.4c.8.6 1.5 1.2 2.3 1.8.7.6 1.5 1.2 2.2 1.9.7.6 1.5 1.3 2.2 1.9"/>
            <path class="st1" d="M1247.1 574.8c.5.4 1.1.8 1.6 1.2"/>
            <path class="st1" d="M1243.8 572.6c1.1.7 2.1 1.4 3.2 2.2"/>
            <path class="st1" d="M1226.6 563.1c.5.2 1 .4 1.4.7 4.2 1.9 8.4 4.2 12.4 6.6 1.1.7 2.2 1.3 3.2 2.1"/>
            <path class="st1" d="M1218.9 560c.9.3 1.8.7 2.7 1 .9.3 1.8.7 2.7 1.1"/>
            <path class="st1" d="M1207.6 556.5c.9.2 1.8.5 2.8.8 1.9.5 3.8 1.1 5.7 1.8.9.3 1.8.6 2.7 1"/>
            <path class="st1" d="M1204.8 555.8c.9.2 1.8.4 2.6.6"/>
            <path class="st1" d="M1202.1 555.2c.8.1 1.5.3 2.3.5"/>
            <path class="st1" d="M1195.8 554c1 .1 2 .3 3 .5.9.2 1.8.3 2.7.5"/>
            <path class="st1" d="M657.3 588l1.9-1.9c.7-.7 1.5-1.4 2.2-2.1.7-.7 1.4-1.3 2.2-1.9.7-.7 1.5-1.3 2.2-1.9.8-.6 1.5-1.2 2.3-1.8 1-.8 2.1-1.6 3.2-2.4.5-.4 1.1-.8 1.6-1.2 0 0 .1 0 .1-.1 1-.8 2.1-1.5 3.2-2.2l.1-.1c1.1-.7 2.1-1.4 3.2-2.1 4-2.5 8.2-4.7 12.4-6.6.5-.2 1-.4 1.4-.7.8-.3 1.5-.7 2.2-1 .9-.4 1.8-.8 2.7-1.1.9-.4 1.8-.7 2.7-1h.1c.9-.3 1.8-.7 2.7-1 1.9-.7 3.8-1.2 5.7-1.8.9-.3 1.8-.5 2.8-.8.1 0 .1 0 .2-.1.9-.2 1.8-.4 2.6-.6.1 0 .2-.1.4-.1.8-.2 1.5-.4 2.3-.5.2-.1.5-.1.7-.2.9-.2 1.8-.4 2.7-.5 1-.2 2-.4 3-.5 1.5-.2 3-.4 4.6-.6 35.3-4 72 7.5 99.1 34.6 72.9 72.9 191.1 72.9 264 0 27.1-27.1 63.8-38.6 99.1-34.6"/>
            <path class="st1" d="M791.3 967.3s-1.1 264.5 0 274c1 8.2 2.4 16.2 4.2 24.1.3 1.4.6 2.8 1 4.2 19.4 78.6 79 139.4 161.4 140.5 84.5 1.1 154.9-61 168.5-141.8.2-.9.3-1.9.4-2.8 1.3-8.4 1.9-17 1.9-25.8V967.3"/>
            <path class="st1" d="M795.5 1265.4c0 1.4.3 2.8 1 4.2 9.5 19.6 86.4 29.4 163.5 29.5 79.7.1 159.7-10.2 166.4-30.9.3-.9.4-1.9.4-2.8"/>
            <path class="st1" d="M1129.1 740.1c0 26.7 21.6 48.3 48.3 48.3 26.7 0 48.3-21.6 48.3-48.3 0-26.7-21.6-48.3-48.3-48.3-26.7 0-48.3 21.7-48.3 48.3z"/>
            <path class="st1" d="M1359.3 857c39.5 28.1 112.5 35.2 181 34.5 84.7-.8 162.7-13.6 162.7-13.6s-55.1-120.2-125.6-190.7c-10.6-10.6-22.7-19.4-35.6-26.7-73.3-41.5-173.3-35.7-173.3-35.7"/>
            <path class="st1" d="M1213.9 1102.2c13-19.3 84.1-143.9 84.1-428.9 0-34.3-14.3-65.3-37.3-87.2-.7-.7-1.5-1.4-2.2-2.1-.7-.7-1.4-1.3-2.2-1.9-.7-.6-1.5-1.2-2.2-1.9-.8-.6-1.5-1.2-2.3-1.8-1.1-.8-2.1-1.6-3.2-2.4-.5-.4-1.1-.8-1.6-1.2 0 0-.1 0-.1-.1-1.1-.7-2.1-1.5-3.2-2.2-.1 0-.1-.1-.2-.1-1.1-.7-2.1-1.4-3.2-2.1-4-2.4-8.1-4.7-12.4-6.6-.5-.2-1-.4-1.4-.7-.8-.3-1.5-.7-2.2-1-.9-.4-1.8-.8-2.7-1.1-.9-.4-1.8-.7-2.7-1h-.1c-.9-.3-1.8-.6-2.7-1l-5.7-1.8c-.9-.3-1.8-.5-2.8-.8-.1 0-.1 0-.2-.1-.9-.2-1.8-.4-2.6-.6-.1 0-.2-.1-.4-.1-.8-.2-1.5-.3-2.3-.5-.2-.1-.5-.1-.7-.2-.9-.2-1.8-.3-2.7-.5-1-.2-2-.3-3-.5-1.5-.2-3.1-.4-4.6-.6-4.5-.5-9.1-.8-13.8-.8"/>
        </g>
    </g>
</svg>
