<svg xmlns="http://www.w3.org/2000/svg" viewBox="0 0 1920 1920">
    <style>
        .st0{fill:#fff}.st1{fill:none;stroke:#000;stroke-width:50;stroke-linecap:round;stroke-linejoin:round;stroke-miterlimit:10}
    </style>
    <path class="st0" d="M996.4 843c35.6 35.6 81.5 54.7 128.1 57.3 2.6 46.6 21.7 92.5 57.3 128.2 56 56 137.3 71.2 207 45.6v51.4c0 132.3-107.1 239.5-239.2 239.9h-.6c-58.3 0-111.7-20.8-153.2-55.3-39.2 57-104.8 94.4-179.2 94.4-86 0-160.4-50-195.6-122.5-29.7 17.3-64.2 27.3-101.1 27.3-110.9 0-200.8-89.9-200.8-200.8 0-32.9 7.9-64 22-91.5-38.9-37.9-63-90.7-63-149.3 0-115.1 93.3-208.4 208.4-208.4 21.8 0 42.8 3.3 62.5 9.6 29.4-95 118-164.1 222.7-164.1 80.1 0 150.8 40.4 192.8 102-42.8 74.9-32.1 172.1 31.9 236.2z" id="Layer_12"/>
    <path class="st0" d="M1388.9 1074c-69.7 25.6-151 10.4-207-45.6-35.6-35.6-54.7-81.5-57.3-128.2-46.6-2.6-92.5-21.7-128.1-57.3-64-64-74.7-161.2-32-236.3 8.5-15 19.2-29.1 32-41.9 35.6-35.6 81.5-54.7 128.1-57.3 2.6-46.6 21.7-92.5 57.3-128.1 76.8-76.8 201.4-76.8 278.2 0 35.6 35.6 54.7 81.5 57.3 128.1 46.6 2.6 92.5 21.7 128.2 57.3 76.8 76.8 76.8 201.4 0 278.2-35.6 35.6-81.5 54.7-128.2 57.3-2.6 46.6-21.7 92.5-57.3 128.2-20.9 20.8-45.3 36-71.2 45.6z" id="Layer_13"/>
    <g id="STROKES">
        <g id="XMLID_2_">
            <path class="st0" d="M1271.6 955.8h104.9c-29 29-76 29-104.9 0z"/>
            <path class="st0" d="M1271.6 648.1h-52.5c14.5-14.5 38-14.5 52.5 0z"/>
            <path class="st1" d="M341 1016.8c-14 27.4-22 58.5-22 91.5 0 110.9 89.9 200.8 200.8 200.8 36.9 0 71.4-9.9 101.1-27.3 35.2 72.5 109.6 122.5 195.6 122.5 74.4 0 140-37.4 179.2-94.4 41.6 34.5 95 55.3 153.2 55.3h.6c132.2-.3 239.2-107.6 239.2-239.9v-51.9"/>
            <path class="st1" d="M964.5 606.7c-42-61.6-112.7-102.1-192.8-102.1-104.7 0-193.3 69-222.7 164.1-19.7-6.2-40.7-9.6-62.5-9.6-115.1 0-208.4 93.3-208.4 208.4 0 58.5 24.2 111.4 63 149.3"/>
            <path class="st1" d="M708.2 1380.2v232.7"/>
            <path class="st1" d="M554.3 1306.1v306.8"/>
            <path class="st1" d="M587.7 1612.9H521"/>
            <path class="st1" d="M995.8 1309.9v303"/>
            <path class="st1" d="M1149.6 1365.2v247.7"/>
            <path class="st1" d="M741.5 1612.9h-66.6"/>
            <path class="st1" d="M1029.1 1612.9h-66.6"/>
            <path class="st1" d="M1182.9 1612.9h-66.6"/>
            <path class="st1" d="M341 1016.8l-124.1 124.1"/>
            <path class="st1" d="M1517.3 900.2c46.6-2.6 92.5-21.7 128.2-57.3 76.8-76.8 76.8-201.4 0-278.2-35.6-35.6-81.5-54.7-128.2-57.3-2.6-46.6-21.7-92.5-57.3-128.1-76.8-76.8-201.4-76.8-278.2 0-35.6 35.6-54.7 81.5-57.3 128.1-46.6 2.6-92.5 21.7-128.1 57.3-12.8 12.8-23.4 26.9-32 41.9-42.7 75.1-32.1 172.3 32 236.3 35.6 35.6 81.5 54.7 128.1 57.3 2.6 46.6 21.7 92.5 57.3 128.2 56 56 137.3 71.2 207 45.6 26-9.5 50.3-24.7 71.2-45.6 35.7-35.6 54.8-81.5 57.3-128.2z"/>
            <path class="st1" d="M1251.4 475.8c38.4 38.4 100.7 38.4 139.1 0"/>
            <path class="st1" d="M1271.6 648.1c-14.5-14.5-38-14.5-52.5 0"/>
            <path class="st1" d="M1428.9 648.1c-14.5-14.5-38-14.5-52.5 0"/>
            <path class="st1" d="M1271.6 955.8c29 29 75.9 29 104.9 0"/>
            <path class="st1" d="M1124.6 900.2V614.4"/>
            <path class="st1" d="M1517.3 900.2V612.4"/>
        </g>
    </g>
</svg>
