<svg xmlns="http://www.w3.org/2000/svg" viewBox="0 0 1920 1920">
    <style>
        .st0{fill:#fff}.st1{fill:none;stroke:#231f20;stroke-width:50;stroke-linecap:round;stroke-linejoin:round;stroke-miterlimit:10}
    </style>
    <path class="st0" d="M1495.2 947.4C1298.1 680.5 1027 818 1027 818l-103.2 360.8c1-2.9 67.1-187.1 186.5-199.4 115.5-11.9 339.1-76.5 509.9 301.1-22-80.2 11.2-148.7-125-333.1z" id="Layer_11"/>
    <path class="st0" d="M1641.4 1330.3c-10.3-17.7-16.8-33.9-21.1-49.7-170.8-377.6-394.4-313-509.9-301.1C991 991.7 924.9 1176 923.9 1178.9l-65.2 227.9H1703c-29.1-29.2-48.5-54-61.6-76.5z" id="Layer_12"/>
    <path class="st0" d="M932.2 690.7l-13.8-4c-63.1-18.1-128.9 18.4-147 81.5l-144.6 504.9c-18.1 63.1 18.4 128.9 81.5 147l13.8 4c63.1 18.1 128.9-18.4 147-81.5l144.6-504.9c18.1-63.2-18.4-128.9-81.5-147z" id="Layer_13"/>
    <path class="st0" d="M758.4 795l-92.9 324c-15.5 54-71.8 85.3-125.8 69.8l-11.8-3.4c-54-15.5-85.3-71.8-69.8-125.8l92.8-323.9c15.5-54 71.8-85.3 125.8-69.8l11.8 3.4c54.1 15.4 85.3 71.7 69.9 125.7z" id="Layer_14"/>
    <path class="st0" d="M536.7 752.4l-46.8 163.4c-11.5 40.2-53.4 63.4-93.6 51.9l-8.8-2.5c-40.1-11.5-63.4-53.4-51.9-93.5l13.5-47.1 32.1-111.9 1.3-4.4c11.5-40.2 53.4-63.4 93.5-51.9l8.8 2.5c40.2 11.5 63.4 53.3 51.9 93.5z" id="Layer_15"/>
    <path class="st0" d="M381.2 712.6l-32.1 111.9c-150.6-15.4-131.5-167.4-131.5-167.4 48.9 1.8 163.6 55.5 163.6 55.5z" id="Layer_16"/>
    <g id="STROKES">
        <path class="st1" d="M1703.1 1406.8H858.7L1027.1 818s271-137.6 468.1 129.4 39.4 290.9 207.9 459.4z"/>
        <path class="st1" d="M923.8 1178.9s66.2-187.1 186.5-199.4c120.3-12.4 358-82 531 350.9"/>
        <path class="st1" d="M722.1 1424.1l-13.8-4c-63.1-18.1-99.6-83.9-81.5-147l144.6-504.9c18.1-63.1 83.9-99.6 147-81.5l13.8 4c63.1 18.1 99.6 83.9 81.5 147l-144.6 504.9c-18.1 63.1-83.9 99.5-147 81.5z"/>
        <path class="st1" d="M539.7 1188.8l-11.8-3.4c-54-15.5-85.3-71.8-69.8-125.8l92.8-323.9c15.5-54 71.8-85.3 125.8-69.8l11.8 3.4c54 15.5 85.3 71.8 69.8 125.8L665.6 1119c-15.5 54-71.9 85.3-125.9 69.8z"/>
        <path class="st1" d="M396.4 967.7l-8.8-2.5c-40.2-11.5-63.4-53.4-51.9-93.5l46.8-163.4c11.5-40.2 53.4-63.4 93.5-51.9l8.8 2.5c40.2 11.5 63.4 53.4 51.9 93.5l-46.8 163.4c-11.5 40.2-53.4 63.4-93.5 51.9z"/>
        <path class="st1" d="M381.2 712.6s-114.8-53.7-163.5-55.5c0 0-19.1 152 131.4 167.4l32.1-111.9z"/>
    </g>
</svg>
