<svg xmlns="http://www.w3.org/2000/svg" viewBox="0 0 1920 1920">
    <style>
        .st0{fill:#fff}.st1{fill:none;stroke:#231f20;stroke-width:50;stroke-linecap:round;stroke-linejoin:round;stroke-miterlimit:10}
    </style>
    <path class="st0" d="M1447.9 1294.6c11-7 19.3-20.1 26.7-35.2-8.9 11.9-18.1 23.8-27.4 35.6.3-.1.5-.2.7-.4zm204.4-318.2c19.1-33.6 50.8-62.6 50.8-101.3 0-45.9-44.7-78.2-59.9-120.7-13.8-38.7-2.6-107.1-27.5-141.8-21.8-30.4-71.8-17-101-43.6-26.1-23.7-36.5-93.3-67.8-113.4-28.6-18.4-73.3 15.4-105.6.5-30.1-13.9-51.4-78.6-84.3-89.2-31.1-10-70.5 34.9-103.7 28.1-31.7-6.5-60.2-65.4-93.6-68.7-32.1-3.2-66.3 49.5-99.6 49.5s-67.5-52.7-99.6-49.5c-33.3 3.3-61.8 62.3-93.6 68.7-33.2 6.8-72.6-38.1-103.7-28.1-32.9 10.6-54.2 75.3-84.3 89.2-32.3 14.9-77-18.9-105.6-.5-31.3 20.1-41.6 89.7-67.8 113.4-29.3 26.6-79.2 13.1-101 43.6-24.9 34.7-13.7 103.1-27.5 141.8-15.2 42.5-59.9 74.8-59.9 120.7 0 38.7 31.7 67.7 50.8 101.3 0 .1.1.1.1.2 1.2 2.1 2.3 4.2 3.4 6.3 27.7 51.3 65.2 116.4 110.8 185.2 19.9 30 41.4 60.8 64.4 91.4 1.1 1.4 2.1 2.8 3.2 4.3 6.5 12.6 13.9 23.4 23 29.9-1.6-2.1-3.3-4.2-4.9-6.3 1.6 2.1 3.3 4.2 4.9 6.3.5.4 1 .7 1.5 1 .2.1.5.3.7.4-.2-.1-.5-.3-.7-.4-.5-.3-1-.7-1.5-1l1.2 1.5c48.7 61.6 102.9 121.1 161.5 171.5v116.9h188.7c44 16.5 89.5 25.8 135.9 25.8s91.9-9.3 135.9-25.8h188.7v-116.9c58.6-50.4 112.9-109.9 161.6-171.5 9.4-11.8 18.5-23.7 27.4-35.6 22.9-30.6 44.4-61.3 64.3-91.4 45.6-68.8 83.2-133.9 110.8-185.2 1.1-2.1 2.2-4.2 3.4-6.3 0-.2 0-.2.1-.3zm-1380.1 6.4c-1-2-2.1-4-3.2-6 0-.1-.1-.2-.1-.3 1.2 2.1 2.3 4.2 3.3 6.3.1 0 .1 0 0 0zm175.3 276.7c4.8 6.5 9.7 12.9 14.7 19.3-5-6.4-9.9-12.9-14.7-19.3zm1205.7-282.9c-1.2 2.1-2.3 4.2-3.4 6.3 1.2-2.2 2.3-4.3 3.4-6.3z" id="Layer_2"/>
    <g id="STROKES">
        <path class="st1" d="M1703.1 875.1c0 38.7-31.7 67.7-50.8 101.3 0 .1-.1.1-.1.2-1.2 2.1-2.3 4.2-3.4 6.3-27.7 51.3-65.2 116.5-110.8 185.2-19.9 30-41.4 60.8-64.4 91.4-8.9 11.9-18.1 23.8-27.4 35.6-48.7 61.6-102.9 121.1-161.6 171.5-58.9 50.6-122.2 92-188.7 116.9-44 16.5-89.5 25.8-135.9 25.8-46.5 0-91.9-9.3-135.9-25.8-66.5-24.9-129.8-66.3-188.7-116.9-58.6-50.4-112.9-109.9-161.5-171.5-9.4-11.8-18.5-23.7-27.4-35.6-22.9-30.6-44.4-61.3-64.4-91.4-45.6-68.8-83.1-133.9-110.8-185.2-1.1-2.1-2.2-4.2-3.4-6.3 0-.1-.1-.1-.1-.2-19.1-33.6-50.8-62.6-50.8-101.3 0-45.9 44.7-78.3 59.9-120.7 13.8-38.7 2.6-107.1 27.5-141.8 21.8-30.4 71.8-17 101-43.6 26.1-23.7 36.5-93.3 67.8-113.4 28.6-18.4 73.3 15.4 105.6.5 30.1-13.9 51.4-78.6 84.3-89.2 31.1-10 70.5 34.9 103.7 28.1 31.7-6.5 60.2-65.4 93.6-68.7 32.1-3.2 66.3 49.5 99.6 49.5s67.5-52.7 99.6-49.5c33.3 3.3 61.8 62.3 93.6 68.7 33.2 6.8 72.6-38.1 103.7-28.1 32.9 10.6 54.2 75.3 84.3 89.2 32.4 14.9 77.1-18.9 105.7-.5 31.3 20.1 41.6 89.7 67.8 113.4 29.3 26.6 79.2 13.1 101 43.6 24.9 34.7 13.7 103.1 27.5 141.8 15.1 42.5 59.9 74.8 59.9 120.7z"/>
        <path class="st1" d="M474.9 1295.1c-.2-.1-.5-.3-.7-.4-10.9-7-19.3-20.1-26.7-35.2 8.9 11.9 18 23.8 27.4 35.6z"/>
        <path class="st1" d="M1474.7 1259.5c-7.4 15.1-15.8 28.2-26.7 35.2-.2.1-.5.3-.7.4 9.3-11.8 18.4-23.7 27.4-35.6z"/>
        <path class="st1" d="M272.3 982.9c-1.1-2.1-2.3-4.2-3.4-6.3 1.2 2.1 2.3 4.1 3.4 6.3z"/>
        <path class="st1" d="M1653.2 976.6c-1.1 2.1-2.2 4.2-3.4 6.3 1.1-2.2 2.2-4.2 3.4-6.3z"/>
        <path class="st1" d="M635.4 1466.6c58.9 50.6 122.2 92 188.7 116.9H635.4v-116.9z"/>
        <path class="st1" d="M1284.6 1466.6v116.9h-188.7c66.5-24.9 129.8-66.3 188.7-116.9z"/>
        <path class="st1" d="M960 1609.3C820.2 1193.9 766.8 395 766.8 395"/>
        <path class="st1" d="M578.8 456.1S697.9 1294 910 1600.6"/>
        <path class="st1" d="M405.4 569s224.9 780.8 418.7 1014.5"/>
        <path class="st1" d="M276.8 754.4s287.1 654.8 547.2 829.1"/>
        <path class="st1" d="M960 1609.3C1099.8 1193.9 1153.2 395 1153.2 395"/>
        <path class="st1" d="M1341.2 456.1S1222.1 1294 1010 1600.6"/>
        <path class="st1" d="M1514.6 569s-224.9 780.8-418.7 1014.5"/>
        <path class="st1" d="M1643.2 754.4s-287.1 654.8-547.2 829.1"/>
        <path class="st1" d="M960 375.8v1233.5"/>
    </g>
</svg>
