<svg xmlns="http://www.w3.org/2000/svg" viewBox="0 0 1920 1920">
    <style>
        .st0{fill:#fff}.st1{fill:none;stroke:#231f20;stroke-width:50;stroke-linecap:round;stroke-linejoin:round;stroke-miterlimit:10}
    </style>
    <path class="st0" d="M1212.1 1501.8c-15-13.7-31.3-26.3-48.7-37.4l-1.5-.9c-16.8-10.6-34.6-20-53.3-27.9-.5-.2-1-.5-1.6-.7-18.1-7.5-36.9-13.7-56.4-18.4-.5-.1-1.1-.3-1.6-.4-18.8-4.5-38.2-7.5-58.1-9.1-.6-.1-1.1-.1-1.7-.1-9.7-.7-19.4-1.1-29.3-1.1s-19.6.4-29.3 1.1c-.6 0-1.1.1-1.7.1-19.9 1.6-39.3 4.6-58.1 9.1-.5.1-1.1.2-1.6.4-19.5 4.7-38.4 10.9-56.4 18.4-.5.2-1.1.4-1.6.7-18.7 7.9-36.5 17.2-53.3 27.9l-1.5.9c-17.4 11.1-33.7 23.6-48.7 37.4l-41.6-28.2v100.1c0 36.5 31.9 66.1 71.3 66.1h174.1l6.6 4.5c24.9 16.8 58.7 16.8 83.5 0l6.6-4.5h174.1c39.4 0 71.3-29.6 71.3-66.1v-100.1l-41.5 28.2z" id="Layer_5"/>
    <path class="st0" d="M1062.5 302.5c-26.2-24.3-62.5-39.3-102.5-39.3-80 0-144.9 60.1-144.9 134.3l81.3 698 34.4 311.5c9.7-.7 19.4-1.1 29.3-1.1s19.6.4 29.3 1.1l34.4-311.5 81.3-698c-.2-37.2-16.4-70.8-42.6-95z" id="Layer_6"/>
    <path class="st0" d="M817.5 450.5c-13.5-58.7-69.5-99-131.8-99-9.3 0-18.7.9-28.2 2.8-72.9 14.4-119.4 80.7-103.9 148.2l205.9 593L871 1416.1c18.8-4.5 38.2-7.5 58.1-9.1l-36.3-311.6-75.3-644.9zm444.9-96.2c-9.5-1.9-18.9-2.8-28.2-2.8-62.3 0-118.3 40.3-131.8 99l-75.2 644.9-36.2 311.7c19.9 1.6 39.3 4.6 58.1 9.1l111.4-320.7 205.9-593c15.4-67.5-31.1-133.9-104-148.2z" id="Layer_7"/>
    <path class="st0" d="M1499.4 550.2c-16.2-6.7-33.2-9.9-49.9-9.9-47.1 0-92 25.2-112.4 67.6l-172.7 487.4-113.7 321.1c19.5 4.7 38.4 10.9 56.4 18.4l146.7-237 307.9-497.4c27.6-57.3-.3-124.6-62.3-150.2zM582.9 608c-20.4-42.4-65.3-67.6-112.4-67.6-16.7 0-33.7 3.2-49.9 9.9-62 25.6-89.9 92.9-62.3 150.4L666.2 1198l146.7 237c18.1-7.5 36.9-13.7 56.4-18.4l-113.7-321.1L582.9 608z" id="Layer_8"/>
    <path class="st0" d="M416 805.4c-21.5-27.5-55.1-42-89.1-42-22.4 0-45 6.3-64.6 19.5-49.2 33.1-60.1 96.8-24.4 142.4l428.3 443.2 91.8 95c16.8-10.6 34.6-20 53.3-27.9l-145.1-231.3L416 805.4zm1241.7-22.5c-19.5-13.2-42.2-19.5-64.6-19.5-34 0-67.6 14.6-89.1 42l-250.2 398.9-145.1 231.3c18.7 7.9 36.5 17.2 53.3 27.9l91.8-95L1682 925.3c35.8-45.6 24.9-109.3-24.3-142.4z" id="Layer_9"/>
    <path class="st0" d="M410.2 1110.2c-15.9-13.3-35.8-19.8-55.7-19.8-22.8 0-45.4 8.6-61.9 25.5-30.8 31.7-28 80.4 6.2 108.9l367.4 248.8 41.6 28.2c15-13.7 31.3-26.3 48.7-37.4l-90.3-92.4-256-261.8zm1217.1 5.7c-16.4-16.9-39.1-25.5-61.9-25.5-19.8 0-39.8 6.5-55.7 19.8l-256 261.8-90.3 92.4c17.4 11.1 33.7 23.6 48.7 37.4l41.6-28.2 367.4-248.8c34.2-28.5 37-77.3 6.2-108.9z" id="Layer_10"/>
    <g id="STROKES">
        <path class="st1" d="M1104.9 397.4l-81.3 698-34.4 311.5c-9.7-.7-19.4-1.1-29.3-1.1s-19.6.4-29.3 1.1l-34.4-311.5-81.3-698c0-74.1 64.9-134.3 144.9-134.3 40 0 76.3 15 102.5 39.3 26.4 24.3 42.6 57.9 42.6 95z"/>
        <path class="st1" d="M1366.3 502.5l-205.9 593-111.4 320.6c-18.8-4.5-38.2-7.5-58.1-9.1l36.3-311.6 75.2-644.9c13.5-58.7 69.5-99 131.8-99 9.3 0 18.7.9 28.2 2.8 72.9 14.3 119.4 80.7 103.9 148.2z"/>
        <path class="st1" d="M756.5 1464.4c-17.4 11.1-33.7 23.6-48.7 37.4l-41.6-28.2-367.4-248.8c-34.2-28.5-36.9-77.3-6.2-108.9 16.4-16.9 39.1-25.5 61.9-25.5 19.8 0 39.8 6.5 55.7 19.8l256 261.8 90.3 92.4z"/>
        <path class="st1" d="M811.4 1435.6c-18.7 7.9-36.5 17.2-53.4 27.9l-91.8-95L238 925.3c-35.7-45.6-24.8-109.3 24.3-142.4 19.5-13.2 42.2-19.5 64.6-19.5 34 0 67.6 14.6 89.1 42l250.2 398.8 145.2 231.4z"/>
        <path class="st1" d="M869.3 1416.5c-19.5 4.7-38.4 10.9-56.4 18.4l-146.7-237-307.8-497.3c-27.6-57.5.3-124.8 62.3-150.4 16.2-6.7 33.2-9.9 49.9-9.9 47.1 0 92 25.2 112.4 67.6l172.7 487.5 113.6 321.1z"/>
        <path class="st1" d="M929 1407c-19.9 1.6-39.3 4.6-58.1 9.1l-111.4-320.7-205.9-593c-15.5-67.5 31-133.8 103.9-148.2 9.5-1.9 18.9-2.8 28.2-2.8 62.3 0 118.3 40.3 131.8 99l75.2 644.9L929 1407z"/>
        <path class="st1" d="M1561.6 700.6L1253.8 1198l-146.7 237c-18.1-7.5-36.9-13.7-56.4-18.4l113.7-321.1L1337.1 608c20.4-42.4 65.3-67.6 112.4-67.6 16.7 0 33.7 3.2 49.9 9.9 62 25.5 89.9 92.8 62.2 150.3z"/>
        <path class="st1" d="M1682 925.3l-428.3 443.2-91.8 95c-16.8-10.6-34.7-20-53.4-27.9l145.1-231.3L1504 805.4c21.5-27.5 55.1-42 89.1-42 22.4 0 45.1 6.3 64.6 19.5 49.2 33.1 60 96.8 24.3 142.4z"/>
        <path class="st1" d="M1621.1 1224.8l-367.4 248.8-41.6 28.2c-15-13.7-31.3-26.3-48.7-37.4l90.3-92.4 256-261.8c15.9-13.3 35.8-19.8 55.7-19.8 22.8 0 45.4 8.6 61.9 25.5 30.8 31.6 28 80.4-6.2 108.9z"/>
        <path class="st1" d="M1212.1 1501.8l-203.7 138-6.6 4.5c-24.9 16.9-58.7 16.9-83.5 0l-6.6-4.5-203.7-138c15-13.7 31.3-26.3 48.7-37.4l1.5-.9c16.8-10.6 34.7-20 53.4-27.9.5-.2 1-.4 1.6-.7 18.1-7.5 36.9-13.7 56.4-18.4.5-.1 1.1-.3 1.6-.4 18.8-4.5 38.2-7.5 58.1-9.1.6-.1 1.1-.1 1.7-.1 9.7-.7 19.4-1.1 29.3-1.1s19.6.4 29.3 1.1c.6 0 1.1.1 1.7.1 19.9 1.6 39.3 4.6 58.1 9.1.5.1 1.1.3 1.6.4 19.5 4.7 38.4 10.9 56.4 18.4.5.2 1 .4 1.6.7 18.7 7.9 36.5 17.2 53.4 27.9l1.5.9c17 11.1 33.3 23.6 48.2 37.4z"/>
        <path class="st1" d="M756.5 1464.4l-90.3-92.4v-3.5l91.8 95-1.5.9z"/>
        <path class="st1" d="M811.4 1435.6l-145.1-231.3v-6.3L813 1435c-.6.2-1.1.4-1.6.6z"/>
        <path class="st1" d="M869.3 1416.5l-113.7-321.1h4L871 1416.1c-.6.2-1.1.3-1.7.4z"/>
        <path class="st1" d="M707.9 1501.8l203.7 138H737.5c-39.4 0-71.3-29.6-71.3-66.1v-100.1l41.7 28.2z"/>
        <path class="st1" d="M896.4 1095.4l34.4 311.5c-.6 0-1.1.1-1.7.1l-36.3-311.6h3.6z"/>
        <path class="st1" d="M1027.3 1095.4L991 1407c-.6-.1-1.1-.1-1.7-.1l34.4-311.5h3.6z"/>
        <path class="st1" d="M1050.7 1416.5c-.5-.1-1.1-.3-1.6-.4l111.4-320.7h4l-113.8 321.1z"/>
        <path class="st1" d="M1253.8 1198v6.3l-145.1 231.3c-.5-.2-1-.4-1.6-.7l146.7-236.9z"/>
        <path class="st1" d="M1162 1463.5l91.8-95v3.5l-90.3 92.4-1.5-.9z"/>
        <path class="st1" d="M1212.1 1501.8l41.6-28.2v100.1c0 36.5-31.9 66.1-71.3 66.1h-174.1l203.8-138z"/>
    </g>
</svg>
