<svg xmlns="http://www.w3.org/2000/svg" viewBox="0 0 1920 1920">
    <style>
        .st0{fill:#fff}.st1{fill:none;stroke:#231f20;stroke-width:50;stroke-linecap:round;stroke-linejoin:round;stroke-miterlimit:10}
    </style>
    <path class="st0" d="M1579.5 890.9c-38.8-197.5-99.9-331.5-146.2-411.3-12.3-21.1-27.1-40.5-44.1-57.6-28.3-28.6-62.5-51.1-100.5-65.8l-164.1-63.3c-.3-3.5-.7-7-1.3-10.5l-57.3-65.5H848.8l-57.3 65.5c-.6 3.5-1 7-1.3 10.5l-164.1 63.3c-60.8 23.5-111.8 67-144.6 123.4-46.3 79.8-107.4 213.8-146.2 411.3-20.5 104.3-27.8 198.6-27.8 279.6 0 193.5 41.3 311.6 41.3 311.6v136.4h133v-136.4h15.8c-1.8-32.9-2.6-66-2.6-99.1 0-323.7 78-637.1 78-637.1v801.8c0 13.7 5.7 24.9 14.8 34.1 18.7 18.8 51.8 29.1 80.2 34.8 28.3 5.6 55 17.9 77 36.6 70.2 59.5 211.1 49.2 211.1 49.2h2.7s140.9 10.4 211.1-49.2c22-18.7 48.7-31 77-36.6 42.3-8.4 95-27.2 95-68.8V746s78 313.4 78 637.1c0 33-.8 66.1-2.6 99.1h15.8v136.4h133v-136.4s41.3-118.1 41.3-311.7c-.1-81.1-7.4-175.3-27.9-279.6z" id="Layer_2"/>
    <g id="STROKES">
        <path class="st1" d="M911.7 390.5s47.1 38.6 47.1 110.1"/>
        <path class="st1" d="M573.1 746l-34.8-146.9"/>
        <path class="st1" d="M348.9 1482.1h133v136.4h-133z"/>
        <path class="st1" d="M1066.1 216.9l57.3 65.5c15.2 94.3-66.9 193.2-66.9 193.2l-53.2-85.2c-.1.1 57.3-43.7 62.8-173.5H848.8c5.5 129.8 62.8 173.5 62.8 173.5l-53.2 85.2s-82.1-98.9-66.9-193.2l57.3-65.5"/>
        <path class="st1" d="M1003.2 390.5s-44.4 38.6-44.4 110.1"/>
        <path class="st1" d="M1124.6 292.9l164.1 63.3c60.8 23.5 111.8 67 144.6 123.4 46.3 79.8 107.4 213.8 146.2 411.3 69.6 353.6-13.5 591.2-13.5 591.2h-148.8c19.3-355.5-75.4-736.1-75.4-736.1v801.8c0 41.7-52.7 60.5-95 68.8-28.3 5.6-55 17.9-77 36.6-70.2 59.5-211.1 49.2-211.1 49.2H956s-140.9 10.4-211.1-49.2c-22-18.7-48.7-31-77-36.6-42.3-8.4-95-27.2-95-68.8V746s-94.7 380.6-75.4 736.1H348.9s-83.1-237.7-13.5-591.2c38.9-197.5 99.9-331.5 146.2-411.3 32.7-56.4 83.7-99.9 144.6-123.4l164.1-63.3"/>
        <path class="st1" d="M1341.8 746l34.8-146.9"/>
        <path transform="rotate(-180 1499.486 1550.321)" class="st1" d="M1433 1482.1h133v136.4h-133z"/>
        <path class="st1" d="M958.8 500.6v1201.8"/>
    </g>
</svg>
