<svg xmlns="http://www.w3.org/2000/svg" viewBox="0 0 1920 1920">
    <style>
        .st0{fill:#fff}.st1{fill:none;stroke:#231f20;stroke-width:50;stroke-linecap:round;stroke-linejoin:round;stroke-miterlimit:10}
    </style>
    <path class="st0" d="M1582.9 893.2c-64.4-327.1-147.3-422.8-159.9-435.7l-.3-.3-.3-.3-1-1-38.9 133.8c.9-4 1.7-8.8 1.7-13.3 0-5.6-1.2-11-4.6-14.4-3.9-3.8-10.6-5.2-21.7-2-41.5 12.2-33.4 27.3-76.9 7.1-43.5-20.2-105.3-45.5-139.7 62.8-34.4 108.3-54.7 150.8-54.7 150.8l-127.8 59.7-1.3 4.2-1.3-4.2-127.8-59.7s-20.2-42.5-54.7-150.8c-9.3-29.4-20.7-49-33.2-61.5-33.4-33.5-74.8-16-106.5-1.3-43.5 20.2-35.4 5.1-76.9-7.1-21.2-6.2-26.4 4.4-26.4 16.3 0 4.5.8 9.3 1.7 13.3l-38.9-133.8S401.8 538.3 332 893.1c-20.6 104.7-27.9 195.4-27.9 271.2 0 181 41.4 277.2 41.4 277.2l42-45.2 107.3 45.2c-1.8-33.2-2.6-66.2-2.6-98.8 0-318.1 77.7-593 78.2-595v804.7c0 13.7 5.7 25 14.8 34.2 18.7 18.9 52 29.2 80.5 34.9 28.4 5.6 55.2 17.9 77.3 36.7 35.2 29.9 124.9 44.8 214.5 44.8 89.7 0 179.3-14.9 214.5-44.8 22.1-18.8 48.9-31.1 77.3-36.7 42.4-8.4 95.3-27.3 95.3-69.1V747.8c.6 2 78.2 276.9 78.2 595 0 32.5-.8 65.5-2.6 98.8l107.3-45.2 42 45.2s41.4-96.2 41.4-277.2c-.2-75.8-7.5-166.4-28-271.2zM793.5 503.8L910 391.1s47.3 38.8 47.3 110.5c0-71.7 47.3-110.5 47.3-110.5L1121 503.8s3.8-119.9 4.1-211.8v-9.4l-57.5-65.7H846.9l-57.5 65.7v8.5c.3 92 4.1 212.7 4.1 212.7z" id="Layer_4"/>
    <path class="st0" d="M1421.3 455.9L1125.1 292c-.3 91.9-4.1 211.8-4.1 211.8L1004.5 391s-47.3 38.8-47.3 110.5c0-71.7-47.3-110.5-47.3-110.5L793.5 503.8s-3.8-120.7-4.1-212.7L493.2 455.9l38.9 133.8c-.9-4.1-1.7-8.8-1.7-13.3 0-11.9 5.2-22.5 26.4-16.3 41.5 12.2 33.4 27.3 76.9 7.1 31.7-14.8 73.1-32.2 106.5 1.3 12.5 12.5 23.9 32 33.2 61.5 34.4 108.3 54.7 150.8 54.7 150.8l127.8 59.7 1.3 4.2 1.3-4.2 127.8-59.7s20.2-42.5 54.7-150.8c34.4-108.3 96.2-83 139.7-62.8 43.5 20.2 35.4 5.1 76.9-7.1 11.2-3.3 17.9-1.9 21.7 2 3.5 3.4 4.6 8.8 4.6 14.4 0 4.5-.8 9.3-1.7 13.3l39.1-133.9zm-1076 985.7v181.9h148l1.3-181.9-107.3-45.2-42 45.2zm1182-45.1l-107.3 45.2 1.3 181.9h148v-181.9l-42-45.2z" id="Layer_5"/>
    <g id="STROKES">
        <path class="st1" d="M910 391.1s47.3 38.8 47.3 110.5"/>
        <path class="st1" d="M345.3 1441.6s-83.4-193.5-13.6-548.4c69.8-354.8 161.5-437.3 161.5-437.3l296.2-164.8"/>
        <path class="st1" d="M957.3 501.6V1703"/>
        <path class="st1" d="M618.9 674.1s18.3 97.3 124.3 121.9"/>
        <path class="st1" d="M535.3 600.5l-42.1-144.6"/>
        <path class="st1" d="M494.6 1441.6l-1.4 181.9H345.3v-181.9l42-45.1z"/>
        <path class="st1" d="M1004.6 391.1s-47.3 38.8-47.3 110.5"/>
        <path class="st1" d="M1344.4 747.8l34.9-147.4s19.9-52.5-21.6-40.4-33.4 27.3-76.9 7.1c-43.5-20.2-105.3-45.6-139.7 62.8s-54.7 150.8-54.7 150.8l-127.8 59.7-1.3 4.1-1.3-4.1-127.8-59.7s-20.2-42.5-54.7-150.8-96.2-83-139.7-62.8c-43.5 20.2-35.4 5.1-76.9-7.1s-21.6 40.4-21.6 40.4l34.9 147.4"/>
        <path class="st1" d="M1067.6 216.9l57.5 65.7c0 92.8-4.1 221.2-4.1 221.2L1004.5 391c.1.1 57.6-43.8 63.1-174.1H846.9C852.4 347.1 910 391 910 391L793.5 503.8s-4.1-128.3-4.1-221.2l57.5-65.7"/>
        <path class="st1" d="M1125.1 292.1L1421.3 456s91.7 82.5 161.5 437.3-13.6 548.4-13.6 548.4"/>
        <path class="st1" d="M1420 1441.6c19.4-358.9-75.6-693.8-75.6-693.8v804.7c0 41.8-52.9 60.7-95.3 69.1-28.4 5.6-55.2 17.9-77.3 36.7-70.4 59.7-358.6 59.7-429 0-22.1-18.7-48.9-31.1-77.3-36.7-42.4-8.4-95.3-27.3-95.3-69.1V747.8s-95 334.9-75.6 693.8"/>
        <path class="st1" d="M1295.6 674.1s-18.3 97.3-124.3 121.9"/>
        <path class="st1" d="M1379.3 600.5l42-144.6"/>
        <path class="st1" d="M1420 1441.6l1.3 181.9h148v-181.9l-42-45.1z"/>
    </g>
</svg>
