<svg xmlns="http://www.w3.org/2000/svg" viewBox="0 0 1920 1920">
    <style>
        .st0{fill:#fff}.st1{fill:none;stroke:#231f20;stroke-width:50;stroke-linecap:round;stroke-linejoin:round;stroke-miterlimit:10}
    </style>
    <path class="st0" d="M1429.5 549.1c-17.7-50-51.3-92.8-95.7-121.7l-191.7-125.1c-4.4-18.1-12-34.2-24.2-46.6-7.8-7.9-17.5-14.2-29.4-18.4C1050.8 217 959 217 959 217s-91.8 0-129.5 20.4c-30.4 10.7-46.4 35.3-53.6 64.9L584.2 427.4c-44.4 29-78 71.7-95.7 121.7l-140 404.8 189.4 91 79.3-200.7V1703h683.6V844.2l79.3 200.7 192.5-91-143.1-404.8z" id="Layer_6"/>
    <g id="STROKES">
        <path class="st1" d="M959 528.2V1703H617.3V844.2L538 1044.9l-189.4-91 140-404.8c17.7-50 51.3-92.8 95.7-121.7L776 302.3c-17.9 73.3 17.4 177.3 17.4 177.3L899.7 394 959 528.2z"/>
        <path class="st1" d="M789.9 293.2l-14 9.1"/>
        <path class="st1" d="M617.3 844.2l-47.6-166.5"/>
        <path class="st1" d="M829.5 237.4c-30.4 10.7-46.4 35.3-53.6 64.9"/>
        <path class="st1" d="M899.7 394s-86.1-95.5-86.1-136.2c0-8.4 6.1-15 15.9-20.3C867.2 217 959 216.9 959 216.9s91.8 0 129.5 20.5"/>
        <path class="st1" d="M1088.6 237.4c9.8 5.3 15.9 11.9 15.9 20.3 0 40.7-86.1 136.2-86.1 136.2"/>
        <path class="st1" d="M1142.1 302.3c-7.2-29.6-23.1-54.2-53.6-64.9"/>
        <path class="st1" d="M1572.6 953.9l-192.5 91-79.3-200.7V1703H959V528.2l59.3-134.3 106.4 85.7s35.3-104 17.4-177.3l191.7 125.1c44.4 29 78 71.7 95.7 121.7l143.1 404.8z"/>
        <path class="st1" d="M1142.1 302.3l-14-9.1"/>
        <path class="st1" d="M1300.8 844.2l47.6-166.5"/>
    </g>
</svg>
