<svg xmlns="http://www.w3.org/2000/svg" viewBox="0 0 1920 1920">
    <style>
        .st0{fill:#fff}.st1{fill:none;stroke:#000;stroke-width:50;stroke-linecap:round;stroke-linejoin:round;stroke-miterlimit:10}
    </style>
    <path class="st0" d="M1256 1642.2h-.1c-125.9-5.3-267.9-60-374.1-230.9-130.3-209.7-262.8-405.6-341.1-490.5-24.5-26.5-43.6-42.2-55.8-44-51.1-7.9-88.4 9.8-88.4 188.7v567.9h-70.8c0-542.4-133.6-854.8-102.2-1043.5 31.4-188.6 192.6-312.5 192.6-312.5s212.2 169 430.4 609.2c26.5 53.4 51.4 100.5 75 141.9 170.4 299.6 267.1 304 339.7 302.2 82.2-1.9 113.7-118.9 114-119.9l171 43.2 37.3 123.8h117.9l-25.6 133.6s-82.5 55-224 102.2c-52.6 17.6-121.4 31.7-195.8 28.6z" id="Layer_5"/>
    <path class="st0" d="M1255.9 1642.2c-22.3-.2-203.2-2.6-293.5-26.5-96.3-25.6-180.7-171-229.9-279.1-46.9-102.7-166.3-370.6-191.8-415.8 78.3 84.9 210.9 280.8 341.2 490.5 106.1 170.9 248.1 225.5 374 230.9zm-77.3-403.8c-98.2-21.6-256.5-210.3-256.5-210.3l-.7.4c170.4 299.6 267.1 304 339.7 302.2 82.2-1.9 113.7-118.9 114-119.9-1.3.7-98.9 49-196.5 27.6z" id="Layer_6"/>
    <g id="Layer_1">
        <g id="XMLID_1_">
            <path class="st1" d="M1375.1 1210.9c-.2.9-31.8 117.9-114 119.9-72.5 1.7-169.3-2.6-339.7-302.2-23.5-41.4-48.5-88.4-75-141.9-218.1-440.3-430.3-609.3-430.3-609.3S254.9 401.2 223.5 589.8C192.1 778.5 325.7 1091 325.7 1633.4h70.8v-567.9c0-178.8 37.3-196.5 88.4-188.7 12.2 1.9 31.3 17.5 55.8 44 78.3 84.9 210.9 280.8 341.2 490.5 106.2 170.9 248.1 225.5 374.1 230.9"/>
            <path class="st1" d="M1256 1642.2c74.4 3.1 143.2-11 195.7-28.5 141.5-47.2 224-102.2 224-102.2l25.6-133.6h-117.9l-37.3-123.8-171-43.2"/>
            <path class="st1" d="M1375.1 1210.8c-1.3.6-98.9 49-196.5 27.5-98.2-21.6-256.5-210.3-256.5-210.3"/>
            <path class="st1" d="M333.5 1550.8h49.2"/>
            <path class="st1" d="M536.2 914.3c.7.2 2.2 2.4 4.5 6.5 25.5 45.1 145 313 191.8 415.8 49.3 108 133.6 253.5 229.9 279.1 90.3 23.9 271.2 26.3 293.5 26.5h2.2"/>
        </g>
    </g>
</svg>
