<svg xmlns="http://www.w3.org/2000/svg" viewBox="0 0 1920 1920">
    <style>
        .st0{fill:#fff}.st1{fill:none;stroke:#000;stroke-width:50;stroke-linecap:round;stroke-linejoin:round;stroke-miterlimit:10}
    </style>
    <path class="st0" d="M223.9 1252.2c-28.4-115.8 38.6-296.7 38.6-296.7l-6.1-274.3c180.9 22.4 382-65 382-65 .8-.5 35-19.5 77.2 44.7 11.2 17.1 23.8 37.1 36.4 57.4 18.2 29.5 36.1 59.4 49.2 81.3 3.7 6.3 7.1 11.9 9.9 16.7 6.6 11.1 8.9 24.2 6.5 36.9l-5.3 28.3c-3.4 18.2 13.5 33.6 31.3 28.7l121.9-34 400.3 227.6s207.3 52.8 270.2 63c63 10.2 67.1 67.1 67.1 67.1v86.1c0 15-10.6 27.9-25.2 30.9-61.6 12.6-219.3 43.5-285.7 43.5H258.9c-19.4 0-35.1-15.7-35.1-35.1v-107.1zm565.6-295.8c0-.3-.3-.5-.7-.5-.4 0-.7.2-.7.5s.3.5.7.5c.4 0 .7-.2.7-.5z" id="Layer_3"/>
    <path class="st0" d="M801.2 799.6c-13.1-22-31-51.9-49.2-81.3-12.5-20.3-25.1-40.3-36.4-57.4-42.2-64.2-76.4-45.2-77.2-44.7l80.8-75.9c26.6-25 69.8-17.3 86.1 15.3l160.3 320.6-121.9 34c-17.8 5-34.7-10.5-31.3-28.7l5.3-28.3c2.4-12.7 0-25.8-6.5-36.9-2.9-4.7-6.3-10.4-10-16.7z" id="Layer_4"/>
    <g id="Layer_1">
        <g id="XMLID_1_">
            <path class="st1" d="M638.4 616.2s-201.2 87.4-382 65l6.1 274.3s-67.1 180.9-38.6 296.7v107.2c0 19.4 15.7 35.1 35.1 35.1h1133.3c66.3 0 224.1-30.9 285.7-43.5 14.7-3 25.2-15.9 25.2-30.9V1234s-4.1-56.9-67.1-67.1c-63-10.2-270.2-63-270.2-63L965.5 876.3 805.2 555.7c-16.3-32.6-59.5-40.3-86.1-15.3l-80.7 75.8"/>
            <path class="st1" d="M607.9 642.6l126 229.6-17.7 64.5c-6.7 24.3-.2 50.4 17 68.8 14 14.9 33.2 22.9 52.9 22.9 8.6 0 17.3-1.5 25.6-4.7l105-39.7 327.2 150.4 33.5 64.6c13 25.1 39.4 40.3 67.6 39l8.9-.4c22.8-1 43.9-12.8 56.8-31.7l48.6-71.5"/>
            <path class="st1" d="M638.4 616.2c.8-.5 35.1-19.5 77.2 44.7 11.2 17.1 23.8 37.1 36.4 57.4 18.2 29.5 36.1 59.4 49.2 81.3 3.7 6.3 7.1 11.9 9.9 16.7 6.6 11.1 8.9 24.2 6.5 36.9l-5.3 28.3c-3.4 18.2 13.5 33.6 31.3 28.7l121.9-34"/>
            <path class="st1" d="M1365.9 1103.9l-33.6 33.5"/>
            <path class="st1" d="M1282.1 1066.5l-13.2 13.3"/>
            <path class="st1" d="M1208.5 1027.7l-13.2 13.2"/>
            <path class="st1" d="M1134.9 989l-13.2 13.2"/>
            <path class="st1" d="M1061.3 946.1l-13.2 13.2"/>
            <path class="st1" d="M987.7 906.9l-13.2 13.3"/>
            <path class="st1" d="M789.5 956.4c0 .3-.3.5-.7.5-.4 0-.7-.2-.7-.5s.3-.5.7-.5c.4.1.7.3.7.5z"/>
            <path class="st1" d="M223.9 1252.2s231.7 22.4 343.4 12.2c111.8-10.2 514.1 48.8 646.2 48.8 132.1 0 481.6-48.8 481.6-48.8"/>
            <path class="st1" d="M774.5 809.2l26.7-9.6 97.3-35.1"/>
            <path class="st1" d="M719.7 730l32.3-11.7 107.9-39.1"/>
            <path class="st1" d="M262.5 955.5s174.8 152.4 471.4-83.3"/>
        </g>
    </g>
</svg>
