<svg xmlns="http://www.w3.org/2000/svg" viewBox="0 0 1920 1920">
    <style>
        .st0{fill:#fff}.st1{fill:none;stroke:#000;stroke-width:50;stroke-linecap:round;stroke-linejoin:round;stroke-miterlimit:10}
    </style>
    <path class="st0" d="M856 539.7c-67.7-.6-134.3-1.8-197-3.3V381.2c94.7 2.2 198.2 3.8 301 3.8s206.3-1.6 301-3.8v155.1c-94.7 2.2-198.2 3.8-301 3.8-34.7.1-69.5-.1-104-.4zm802.2-172.5s-174.2 8.8-397.2 14v155.1c-94.7 2.2-198.2 3.8-301 3.8H856v-.5c-67.7-.6-134.3-1.8-197-3.3V381.2c-223.1-5.2-397.2-14-397.2-14l-24.6 642-20.3 529.9 620.6 13.6L960 1136.5l122.4 416.2 620.6-13.6-20.3-529.9-24.5-642z" id="Layer_3"/>
    <g id="Layer_1">
        <g id="XMLID_1_">
            <path class="st1" d="M1658.2 522.4s-174.2 8.8-397.2 14c-94.7 2.2-198.2 3.8-301 3.8-34.7 0-69.5-.2-104-.5-67.7-.6-134.3-1.8-197-3.3-223.1-5.2-397.2-14-397.2-14"/>
            <path class="st1" d="M960 1136.5l-122.4 416.3-620.7-13.6"/>
            <path class="st1" d="M864.2 1423.4l-642-13.6"/>
            <path class="st1" d="M960 893.7V540.2H856v-141"/>
            <path class="st1" d="M1261 599.1V380.2"/>
            <path class="st1" d="M659 599.1V380.2"/>
            <path class="st1" d="M235.8 1012.7l1.4-3.5 194.9-469"/>
            <path class="st1" d="M216.9 1539.2l20.3-530 24.6-642"/>
            <path class="st1" d="M960 1136.5l122.4 416.3 620.7-13.6"/>
            <path class="st1" d="M1703.1 1539.2l-20.3-529.9-24.6-642s-174.2 8.8-397.2 14c-94.7 2.2-198.2 3.8-301 3.8s-206.3-1.6-301-3.8c-223.1-5.2-397.2-14-397.2-14"/>
            <path class="st1" d="M1684.2 1012.7l-1.4-3.5-194.9-469"/>
            <path class="st1" d="M1684.2 1409.8l-632.2 13.6"/>
        </g>
    </g>
</svg>
