<svg xmlns="http://www.w3.org/2000/svg" viewBox="0 0 1920 1920">
    <style>
        .st0{fill:#fff}.st1{fill:none;stroke:#000;stroke-width:50;stroke-linecap:round;stroke-linejoin:round;stroke-miterlimit:10}
    </style>
    <path class="st0" d="M1339.4 1236.1l-12.6-159.8h228.8l26.2 511.6h-214.5l-27.9-351.8zm-746.2-159.8H364.4L338.3 1588h214.5l27.8-351.8 12.6-159.9zm905.4-859.4s-272.7 13.7-538.6 13.7-538.6-13.7-538.6-13.7l-20 497.9-14.5 361.5h206.4l-12.6 159.8-27.9 351.9H366.2l-4.6 115.1h478.7L960 810.4l119.7 892.7h478.7l-4.6-115.1h-186.6l-27.8-351.8-12.6-159.8h206.4l-14.5-361.5-20.1-498z" id="Layer_2"/>
    <g id="Layer_1">
        <g id="XMLID_1_">
            <path class="st1" d="M1553.8 1588l4.6 115.1h-478.7L960 810.4l-119.7 892.7H361.6"/>
            <path class="st1" d="M1518.6 714.8l-20-497.9s-272.7 13.7-538.6 13.7-538.6-13.7-538.6-13.7"/>
            <path class="st1" d="M1533.2 1076.3l-14.6-361.5"/>
            <path class="st1" d="M960 621.5V237.6"/>
            <path class="st1" d="M1518.6 714.8l-151.4-364.4"/>
            <path class="st1" d="M960 350.4c-79.2 0-159.1-1.2-232.1-2.9"/>
            <path class="st1" d="M401.4 714.8l151.4-364.4"/>
            <path class="st1" d="M1533.2 1076.3h22.4l26.1 511.7h-214.5l-27.8-351.9-12.6-159.8z"/>
            <path class="st1" d="M1338.6 1236.1h213.7"/>
            <path class="st1" d="M366.2 1588l-4.6 115.1"/>
            <path class="st1" d="M386.8 1076.3l14.6-361.5 20-497.9"/>
            <path class="st1" d="M386.8 1076.3h-22.4L338.3 1588h214.5l27.8-351.9 12.6-159.8z"/>
            <path class="st1" d="M581.5 1236.1H366.2"/>
            <path class="st1" d="M629.5 345c-126.7-3.9-208-8.4-208-8.4"/>
            <path class="st1" d="M727.9 368.4l-.1-137.3"/>
            <path class="st1" d="M629.5 231.1V366"/>
            <path class="st1" d="M960 350.4c79.2 0 159.1-1.2 232.1-2.9"/>
            <path class="st1" d="M1290.6 345c126.7-3.9 208-8.4 208-8.4"/>
            <path class="st1" d="M1192.1 378.9l.1-147.8"/>
            <path class="st1" d="M1290.5 231.1l.1 145.4"/>
        </g>
    </g>
</svg>
