<svg xmlns="http://www.w3.org/2000/svg" viewBox="0 0 1920 1920">
    <style>
        .st0{fill:#fff}.st1{fill:none;stroke:#000;stroke-width:50;stroke-linecap:round;stroke-linejoin:round;stroke-miterlimit:10}
    </style>
    <path class="st0" d="M1671.4 705.4l-15-451.6s-120.6 6.1-289.5 11.1c-119.4 3.6-262.9 6.6-405 6.6-142 0-285.6-3-405-6.6-168.9-5-289.5-11.1-289.5-11.1l-15 451.6-29.7 894.5 64.7-6.8 63.6 10.8 52.7-9.5 62.3 12.2 84.1-8.1 92.5 14.9 68.3-13.5 73.7 13.5 50.1-9.8 18.9-3.7 108.3-642.6 108.3 642.6 83.8-11.5 16.4 3.2 42.5 8.3 62.9-9.5 55.7 17.6 96.5-13.5 71 9.5 99.5-9.5 102.6 5.4-29.7-894.5z" id="Layer_4"/>
    <g id="Layer_1">
        <g id="XMLID_1_">
            <path class="st1" d="M961.9 957.3l108.3 642.6 83.8-11.5 16.4 3.2 42.4 8.3 63-9.5 55.7 17.6 96.4-13.5 71.1 9.5 99.4-9.5 102.6 5.4"/>
            <path class="st1" d="M1170.4 1591.6l-111.8-634.3h-96.7l-108.2 642.6-19 3.7-50 9.8-73.8-13.5-68.3 13.5-92.5-14.8-84 8.1-62.3-12.2-52.7 9.5-63.6-10.9-64.7 6.8 29.6-894.5 15-451.6"/>
            <path class="st1" d="M1701 1599.9l-29.7-894.5-15-451.6s-120.7 6.1-289.5 11.1c-119.4 3.6-262.9 6.6-405 6.6s-285.5-3-405-6.6c-168.9-5-289.5-11.1-289.5-11.1"/>
            <path class="st1" d="M556.8 410.4h-.2c-168.7-5-289.2-11.1-289.2-11.1"/>
            <path class="st1" d="M961.9 777.5v-506"/>
            <path class="st1" d="M556.9 266.7v217.8l105.6 4v-217"/>
            <path class="st1" d="M1673.1 705.4h-1.7c-164.6-.9-298.4-131.6-304.2-295-.1-3.7-.2-7.4-.2-11.1"/>
            <path class="st1" d="M250.7 705.4h1.8c164.6-.9 298.4-131.7 304.2-295 .1-3.7.2-7.4.2-11.1"/>
            <path class="st1" d="M961.9 417c-102.2 0-205.2-1.6-299.4-3.8"/>
            <path class="st1" d="M1367 410.4h.1c168.7-5 289.3-11.1 289.3-11.1"/>
            <path class="st1" d="M1366.9 266.7v217.8l-105.6 4v-217"/>
            <path class="st1" d="M961.9 417c102.2 0 205.2-1.6 299.4-3.8"/>
            <path class="st1" d="M731.9 1608v37.9"/>
            <path class="st1" d="M1083 1599.9l-.6 64.9"/>
            <path class="st1" d="M1699 1599.9l4.1 61.9"/>
            <path class="st1" d="M1197.7 1599.9l-5.4 36.5"/>
            <path class="st1" d="M1276.9 1599.9l9.3 46"/>
            <path class="st1" d="M1361.9 1609.4l6 49"/>
            <path class="st1" d="M222.8 1613.4l-5.9 32.2"/>
            <path class="st1" d="M326.7 1613.4v52.8"/>
            <path class="st1" d="M427.5 1599.9v46"/>
            <path class="st1" d="M531 1608v21.5"/>
            <path class="st1" d="M622.3 1619.5v39.9"/>
            <path class="st1" d="M1456.6 1598.8l2.1 53.1"/>
            <path class="st1" d="M1543.7 1599.9v23"/>
            <path class="st1" d="M1626.8 1599.9v33.3"/>
            <path class="st1" d="M834.7 1601.3v57.1"/>
        </g>
    </g>
</svg>
