<svg xmlns="http://www.w3.org/2000/svg" viewBox="0 0 1920 1920">
    <style>
        .st0{fill:#fff}.st1{fill:none;stroke:#231f20;stroke-width:50;stroke-linecap:round;stroke-linejoin:round;stroke-miterlimit:10}
    </style>
    <path class="st0" d="M1180.8 1209v224.6c0 174-220.8 269.5-220.8 269.5s-220.8-95.5-220.8-269.5V1209h119.6c19.3 0 38.2-1.6 54.4-3.6l.1.8v104c0 27.6 22.4 50 50 50s50-22.4 50-50v-104c14.6 1.6 31.1 2.8 47.9 2.8h119.6zM960 1197.5s-19.4 4.5-46.8 7.9l.1.8v104c0 27.6 22.4 50 50 50s50-22.4 50-50v-104c-30.8-3.4-53.3-8.7-53.3-8.7z" id="Layer_4"/>
    <g id="STROKES">
        <g id="XMLID_1_">
            <path class="st1" d="M960 1703.1s-220.8-95.5-220.8-269.5V1209h119.6c19.3 0 38.2-1.6 54.4-3.6 27.4-3.4 46.8-7.9 46.8-7.9"/>
            <path class="st1" d="M960 1703.1s220.8-95.5 220.8-269.5V1209h-119.6c-16.8 0-33.3-1.2-47.9-2.8-30.8-3.4-53.3-8.7-53.3-8.7"/>
            <path class="st1" d="M960 1197.5V216.9"/>
            <path class="st1" d="M913.3 1206.2v104c0 27.6 22.4 50 50 50s50-22.4 50-50v-104"/>
        </g>
    </g>
</svg>
