<svg xmlns="http://www.w3.org/2000/svg" viewBox="0 0 1920 1920">
    <style>
        .st0{fill:#fff}.st1{fill:none;stroke:#231f20;stroke-width:50;stroke-linecap:round;stroke-linejoin:round;stroke-miterlimit:10}
    </style>
    <path class="st0" d="M960 934.3s64 18.7 132 18.7h156s-28.6 318.8-55.6 450c-42.8 207.6-232.4 300.1-232.4 300.1s-189.7-92.4-232.4-300.1c-27-131.2-55.6-450-55.6-450h156c68 0 132-18.7 132-18.7z" id="Layer_2"/>
    <path class="st0" d="M860 317c0-55.2 44.8-100 100-100s100 44.8 100 100v500H860V317z" id="Layer_3"/>
    <g id="STROKES">
        <g id="XMLID_1_">
            <path class="st1" d="M960 817h100V317c0-55.2-44.8-100-100-100s-100 44.8-100 100v500h100z"/>
            <path class="st1" d="M960 934.3S896 953 828 953H672s28.6 318.8 55.6 450c42.8 207.6 232.4 300.1 232.4 300.1"/>
            <path class="st1" d="M960 934.3s64 18.7 132 18.7h156s-28.6 318.8-55.6 450c-42.8 207.6-232.4 300.1-232.4 300.1"/>
            <path class="st1" d="M960 817v443"/>
            <path class="st1" d="M860 317h80"/>
            <path class="st1" d="M860 417h80"/>
            <path class="st1" d="M860 517h80"/>
            <path class="st1" d="M860 617h80"/>
            <path class="st1" d="M860 717h80"/>
        </g>
    </g>
</svg>
