<svg xmlns="http://www.w3.org/2000/svg" viewBox="0 0 1920 1920">
    <style>
        .st0{fill:#fff}.st1{fill:none;stroke:#000;stroke-width:50;stroke-linecap:round;stroke-linejoin:round;stroke-miterlimit:10}
    </style>
    <path class="st0" d="M1256.5 498.3H217s35.5 445.5 623.1 445.5h416.5c-123 0-234.4 49.9-315 130.5s-130.5 192-130.5 315h445.5c123 0 234.4-49.9 315-130.5s130.5-192 130.5-315c-.1-246-199.5-445.5-445.6-445.5zM633.4 701.8c-33 0-59.7-26.7-59.7-59.7s26.7-59.7 59.7-59.7 59.7 26.7 59.7 59.7-26.7 59.7-59.7 59.7z" id="Layer_2"/>
    <path class="st0" d="M575.2 1153.6c0 65.1 26.4 124 69 166.7 42.7 42.7 101.6 69 166.7 69 .1-130.2-105.5-235.7-235.7-235.7z" id="Layer_9"/>
    <path class="st0" d="M575.2 1625.1c65.1 0 124-26.4 166.7-69 42.7-42.7 69-101.6 69-166.7-130.1-.1-235.7 105.5-235.7 235.7z" id="Layer_10"/>
    <circle class="st0" cx="633.4" cy="642.2" r="59.7" id="Layer_3"/>
    <g id="STROKES">
        <path class="st1" d="M811 1389.3c-65.1 0-124-26.4-166.7-69-42.7-42.7-69-101.6-69-166.7 130.1 0 235.7 105.5 235.7 235.7z"/>
        <path class="st1" d="M1702 943.8c0 123-49.9 234.4-130.5 315s-192 130.5-315 130.5H811c0-123 49.9-234.4 130.5-315s192-130.5 315-130.5H840c-587.5 0-623-445.5-623-445.5h1039.6c246 0 445.4 199.5 445.4 445.5z"/>
        <path class="st1" d="M1702 943.8c0 123-49.9 234.4-130.5 315s-192 130.5-315 130.5v-891c246.1 0 445.5 199.5 445.5 445.5z"/>
        <path class="st1" d="M1702 943.8H840c-587.5 0-623-445.5-623-445.5h1039.6c246 0 445.4 199.5 445.4 445.5z"/>
        <path class="st1" d="M1256.5 943.8v445.5H811c0-123 49.9-234.4 130.5-315s192-130.5 315-130.5z"/>
        <path class="st1" d="M811 1389.3c-65.1 0-124-26.4-166.7-69-42.7-42.7-69-101.6-69-166.7 130.1 0 235.7 105.5 235.7 235.7z"/>
        <path class="st1" d="M811 1389.3c0 65.1-26.4 124-69 166.7-42.7 42.7-101.6 69-166.7 69-.1-130.1 105.5-235.7 235.7-235.7z"/>
        <path class="st1" d="M1256.5 943.8l315-315"/>
        <path class="st1" d="M1256.5 943.8l315 315.1"/>
        <path class="st1" d="M1033.7 498.3h222.8v445.5h-222.8z"/>
        <circle class="st1" cx="633.4" cy="642.2" r="59.7"/>
        <path class="st1" d="M217 498.3c0-112.3 91-203.4 203.3-203.4H1702"/>
    </g>
</svg>
