<svg xmlns="http://www.w3.org/2000/svg" viewBox="0 0 1920 1920">
    <style>
        .st0{fill:#fff}.st1{fill:none;stroke:#000;stroke-width:50;stroke-linecap:round;stroke-linejoin:round;stroke-miterlimit:10}
    </style>
    <path class="st0" d="M1287.1 1683.3c-48.7 12.9-99.8 19.8-152.6 19.8-48.8 0-96.3-5.9-141.7-17-112.6-27.6-212.6-87.2-289.8-168.7-85.4-90.1-142.8-206.9-158.5-336.5-2.9-23.7-4.4-47.8-4.4-72.2 0-82.3 16.7-160.6 46.9-231.9 39.8-93.9 103.1-175.4 182.4-237.2 6.3 2.2 1.8 1.3 13.4 8.9.2.1.4.3.7.4 1.6 1 3.1 2.1 4.6 3.2 16.6 12 30.3 27.6 37.1 48-25.1 48.6-41.4 101.8-47.2 157.8-1.6 15-2.4 30.2-2.4 45.6 0 64.9 7.5 121.9 21.5 171.7 38.7 137.6 126.8 220.4 242.6 264.4 75.7 28.7 163.1 40.9 256.2 40.9h.7c41.4-.1 77.3 29 85.3 69.7 15 75.2 15.6 187.9-94.8 233.1z" id="Layer_6"/>
    <path class="st0" d="M1093.1 229.5C984 259.6 768 639 769.4 639.5c6.3 2.2 1.8 1.3 13.4 8.9.2.1.4.3.7.4 1.6 1 3.1 2.1 4.6 3.2 16.6 12 30.3 27.6 37.1 48 .4 1.3.9 2.7 1.2 4.1 258.1-186.6 380.9-349.7 397.6-398 4.4-12.7 7.6-26.3 7.7-39 .4-38.4-28-68-138.6-37.6z" id="Layer_7"/>
    <g id="STROKES">
        <path class="st1" d="M1231.8 267.2c-.1 12.6-3.3 26.2-7.7 39-16.7 48.3-139.5 211.3-397.6 398-.4-1.4-.8-2.7-1.2-4.1-6.8-20.4-20.5-36-37.1-48-1.5-1.1-3.1-2.2-4.6-3.2-.2-.1-.4-.3-.7-.4 17.2-17.9 35.1-34.9 53.5-51.4 128.1-114.5 282.2-200.6 395.4-329.9z"/>
        <path class="st1" d="M1231.8 267.2c-113.2 129.3-267.3 215.4-395.4 329.9-18.4 16.5-36.3 33.5-53.5 51.4-11.7-7.7-7.2-6.8-13.4-8.9-1.4-.5 214.6-379.9 323.7-410 110.5-30.5 138.9-.9 138.6 37.6z"/>
        <path class="st1" d="M1287.1 1683.3c-48.7 12.9-99.8 19.8-152.6 19.8-328.3 0-594.4-266.1-594.4-594.4 0-190.7 89.8-360.4 229.4-469.1 6.3 2.2 1.8 1.3 13.4 8.9.2.1.4.3.7.4 1.6 1 3.1 2.1 4.6 3.2 16.6 12 30.3 27.6 37.1 48-31.8 61.7-49.5 130.6-49.5 203.3 0 361.4 233 476.9 520.4 476.9h.7c41.4 0 77.3 29 85.3 69.7 14.7 75.4 15.4 188.1-95.1 233.3z"/>
        <path class="st1" d="M992.8 1686.1c-16.5-116.9-.2-238.5 47.1-346.6"/>
        <path class="st1" d="M702.9 1517.4c8.4-74.6 48.2-143.7 101.9-196.4 27.8-27.3 59.2-50.5 92.7-70.6"/>
        <path class="st1" d="M544.4 1180.9c15.2-11.3 31.2-21.6 47.4-30.9 63.6-36.3 133.4-61.6 205.3-75"/>
        <path class="st1" d="M587 876.8c62.2-16.1 126.9-22.5 191-19"/>
    </g>
</svg>
