<svg xmlns="http://www.w3.org/2000/svg" viewBox="0 0 1920 1920">
    <style>
        .st0{fill:#fff}.st1{fill:none;stroke:#000;stroke-width:50;stroke-linecap:round;stroke-linejoin:round;stroke-miterlimit:10}
    </style>
    <path class="st0" d="M1617.7 691.2c38.6 36.4 40.5 97.1 4.2 135.8-36.3 38.6-97.1 40.5-135.8 4.2-29.1-27.4-37.4-68.7-24.1-103.9 4.3-11.5 11-22.4 19.9-31.9 9-9.5 19.4-16.8 30.6-21.8 34.4-15.5 76.1-9.8 105.2 17.6zm-900.8 828.2c-11.2 5-21.6 12.3-30.6 21.8s-15.6 20.4-19.9 31.9c-13.3 35.2-5 76.5 24.1 103.9 38.6 36.3 99.4 34.5 135.8-4.2 36.3-38.6 34.5-99.4-4.2-135.8-29.2-27.3-70.9-33-105.2-17.6z" id="Layer_4"/>
    <path class="st0" d="M1462 727.2L1342.4 696l131.7-140 38.5 117.5c-11.2 5-21.7 12.3-30.6 21.8-9 9.5-15.6 20.4-20 31.9zm-915.2 814.7l119.6 31.2c4.3-11.5 11-22.4 19.9-31.9s19.4-16.8 30.6-21.8L678.4 1402l-131.6 139.9z" id="Layer_5"/>
    <g id="STROKES">
        <g id="XMLID_1_">
            <path class="st1" d="M1614.7 217l-64.5 191c-7.1 20.9-18.6 40.1-33.7 56.2L457.6 1589.9c-15.1 16.1-33.6 28.7-54 37.1l-186.7 76.1"/>
            <path class="st1" d="M716.9 1519.4c34.3-15.4 76-9.7 105.2 17.7 38.6 36.3 40.5 97.1 4.2 135.8-36.3 38.6-97.1 40.5-135.8 4.2-29.1-27.4-37.3-68.7-24.1-103.9 4.3-11.5 11-22.4 19.9-31.9s19.3-16.8 30.6-21.9z"/>
            <path class="st1" d="M666.3 1573.1l-119.5-31.2"/>
            <path class="st1" d="M678.4 1402l38.5 117.4"/>
            <path class="st1" d="M502.9 1588.6l43.9-46.7L678.4 1402l43.8-46.7"/>
            <path class="st1" d="M1512.6 673.5c34.3-15.4 76-9.7 105.2 17.7 38.6 36.4 40.5 97.1 4.2 135.8-36.3 38.6-97.1 40.5-135.8 4.2-29.1-27.4-37.4-68.7-24.1-103.9 4.3-11.5 11-22.4 19.9-31.9 8.9-9.6 19.3-16.9 30.6-21.9z"/>
            <path class="st1" d="M1462 727.2L1342.4 696"/>
            <path class="st1" d="M1474.1 556l38.5 117.5"/>
            <path class="st1" d="M1298.6 742.6l43.8-46.6 131.7-140 43.8-46.6"/>
        </g>
    </g>
</svg>
