<svg xmlns="http://www.w3.org/2000/svg" viewBox="0 0 1920 1920">
    <style>
        .st0{fill:#fff}.st1{fill:none;stroke:#231f20;stroke-width:50;stroke-linecap:round;stroke-linejoin:round;stroke-miterlimit:10}
    </style>
    <path class="st0" d="M822.3 679.9l356 362.4.7.7-229.2 162.2h-.3l-74.5-14.9 93.8-167.5-329.9-309.5-20.4 9c2 36.5 5.8 71.3 9.3 91 9 50.7-38 101.5-88.8 117.7-50.7 16.3-169.6-17.9-169.6-17.9s-60 29-99.9 0c-39.8-29 3.6-61.6 45.3-56.1l40.8-18.1c16.6-17.7 25.8-41.9 25.8-41.9s4.6 1.6 12.1 3.8c7.5 2.3 17.9 5.3 29.4 8.2 26.7 6.7 59.6 12.7 78.1 7.9 4.2-1.1 7.3-6.4 9.7-14.9 2.3-8.5 3.9-20.2 4.7-34 1.3-20.3 1.1-45.2.2-71.5l-75-24.5-76.8 13-15.6-46.9c-17.7-12.2-77.8-133.6-8.7-195.8 69-62.1 167.2 17.7 167.2 17.7 11.3-33.6 40.5-77.6 113.4-115 139.5-71.5 376.6-130.8 554.5 0 43 31.6 60.1 68 57.6 105-8 115.8-208.9 236.5-409.9 229.9z" id="Layer_4"/>
    <g id="STROKES">
        <path class="st1" d="M1232.1 450.1L638.9 713.3l-21.7-24.4c.2 11 .7 22.3 1.3 33.4 2 36.5 5.8 71.3 9.3 91 9.1 50.7-38 101.4-88.7 117.7-50.7 16.3-169.6-17.9-169.6-17.9s-60 29-99.9 0c-39.8-29 3.6-61.6 45.3-56.2 16.4 2.1 30.1-6.6 40.8-18.1l67.3-29.9c26.7 6.7 59.6 12.7 78 7.9 8.4-2.2 12.7-21.3 14.4-48.9C520.8 682 501 512.7 501 512.7s-20.4-96 119-167.5c139.5-71.5 376.6-130.8 554.5 0 43.1 31.6 60.2 68 57.6 104.9z"/>
        <path class="st1" d="M617.2 688.9c-1-45.8 1.6-87.7 11.7-98.4 0 0 176.8-140.5 328.7-158.9"/>
        <path class="st1" d="M355.7 838.9c16.6-17.7 25.8-41.9 25.8-41.9s18.4 6.2 41.5 12"/>
        <path class="st1" d="M638.9 713.3l329.9 309.4-93.8 167.5 74.8 15L1179 1043 822.3 679.9c200.9 6.6 401.9-114.1 409.8-229.8"/>
        <path class="st1" d="M1703.1 668.1S457.6 1557.8 314.9 1652.3l-97.9-27.1"/>
        <path class="st1" d="M506.7 460.1s-98.2-79.9-167.2-17.7-8.9 183.6 8.7 195.8l15.6 46.9 76.8-12.9 75 24.5"/>
        <path class="st1" d="M1511.1 326.3l-279 123.8"/>
        <path class="st1" d="M638.9 713.3l-20.4 9"/>
        <path class="st1" d="M515.4 768.1l-92.4 41"/>
        <path class="st1" d="M355.7 838.9l-40.8 18.2"/>
        <path class="st1" d="M1459.8 428.5l-65-129.4"/>
    </g>
</svg>
