<svg xmlns="http://www.w3.org/2000/svg" viewBox="0 0 1920 1920">
    <style>
        .st0{fill:#fff}.st1{fill:none;stroke:#231f20;stroke-width:50;stroke-linecap:round;stroke-linejoin:round;stroke-miterlimit:10}
    </style>
    <path class="st0" d="M1703 1459.7l-279.1-1027V272.1H496.1v160.6L217 1459.7s-7.7 101 229.3 74.2c5.6-.6 11-1.2 16.3-1.7l-3.7 31.3s47 37.2 125.4 41.7 107.3-12.2 107.3-12.2l.8-14.8c18-12.7 68.8-44.1 135-48v93.4c0 13.5 59.3 24.4 132.6 24.4s132.6-10.9 132.6-24.4V1530c66.2 4 117 35.4 135 48l.8 14.8s29 16.6 107.3 12.2c78.3-4.4 125.4-41.7 125.4-41.7l-3.7-31.3c5.3.5 10.7 1.1 16.3 1.7 237.1 27 229.3-74 229.3-74z" id="Layer_2"/>
    <g id="STROKES">
        <path class="st1" d="M496.1 272.1h927.8v160.6H496.1z"/>
        <path class="st1" d="M714 1289.5l-21.6 288.6"/>
        <path class="st1" d="M566.6 642.5l-104 889.7"/>
        <path class="st1" d="M1473.7 1533.9c-5.6-.6-11-1.2-16.3-1.7l3.7 31.3s-47 37.2-125.4 41.7c-78.3 4.4-107.3-12.2-107.3-12.2l-.8-14.8c-18-12.7-68.8-44.1-135-48v93.4c0 13.5-59.3 24.4-132.6 24.4s-132.6-10.9-132.6-24.4V1530c-66.2 4-117 35.4-135 48l-.8 14.8s-29 16.6-107.3 12.2c-78.3-4.4-125.4-41.7-125.4-41.7l3.7-31.3c-5.3.5-10.7 1.1-16.3 1.7-237 26.8-229.3-74.2-229.3-74.2l279.1-1027h927.8l279.1 1027c0 .2 7.8 101.2-229.3 74.4z"/>
        <path class="st1" d="M1227.6 1578.1l-21.6-288.6"/>
        <path class="st1" d="M1457.4 1532.2l-104.9-897.5"/>
        <path class="st1" d="M827.4 1530V634.7"/>
        <path class="st1" d="M1092.6 1530V634.7"/>
    </g>
</svg>
