<svg xmlns="http://www.w3.org/2000/svg" viewBox="0 0 1920 1920">
    <style>
        .st0{fill:#fff}.st1{fill:none;stroke:#231f20;stroke-width:50;stroke-linecap:round;stroke-linejoin:round;stroke-miterlimit:10}
    </style>
    <path class="st0" d="M1374.6 752.1c0 265.4-50.4 636.6-75.6 805.6-8.4 56.3-14 90.2-14 90.2 0 8.1-30.2 15.6-80 21.3l19.1-713.9c-2.8 106.4-83.4 717.7-92.1 720.1-49.9 3.1-108.9 4.9-172.1 4.9-89.8 0-171-3.6-229.9-9.5-58.8-5.9-95.2-14-95.2-22.9 0 0-89.6-541.9-89.6-895.8 0-237 61.6-359.7 102.3-415 22.6-30.7 35.1-67.8 35.1-105.9v-1h554.5v1c0 38.2 12.4 75.2 35.1 105.9 40.8 55.3 102.4 178.1 102.4 415z" id="Layer_4"/>
    <path class="st1" d="M1374.6 752.1c0 265.4-50.4 636.6-75.6 805.6-8.4 56.3-14 90.2-14 90.2 0 8.1-30.2 15.6-80 21.3l19.1-713.9c-2.8 106.4-83.4 717.7-92.1 720.1-49.9 3.1-108.9 4.9-172.1 4.9-89.8 0-171-3.6-229.9-9.5-58.8-5.9-95.2-14-95.2-22.9 0 0-89.6-541.9-89.6-895.8 0-237 61.6-359.7 102.3-414.9 22.6-30.7 35.1-67.8 35.1-105.9v-1h554.5v1c0 38.2 12.4 75.2 35.1 105.9 40.8 55.2 102.4 178 102.4 414.9z" id="STROKES"/>
</svg>
