<svg xmlns="http://www.w3.org/2000/svg" viewBox="0 0 1920 1920">
    <style>
        .st0{fill:#fff}.st1{fill:none;stroke:#231f20;stroke-width:50;stroke-linecap:round;stroke-linejoin:round;stroke-miterlimit:10}
    </style>
    <path class="st0" d="M960 865.8c145.9 0 283.4-4.5 404.4-12.3 78.4-5.1 149.8-11.6 212-19.3-14.2-60.6-31-114.3-48.1-160.7-48.8-132-100-203.9-100-203.9l-51.9-167.1H543.7l-51.9 167.1s-51.2 71.9-100 203.9c-17.1 46.3-33.9 100.1-48.1 160.7 62.2 7.7 133.6 14.2 212 19.3 120.9 7.8 258.4 12.3 404.3 12.3zm662 391.8c-160.5 30.5-397.5 49.7-662 49.7s-501.5-19.3-662-49.7c-17 247.5-36.6 250.8-36.6 250.8s107.6 81.3 698.6 81.3 698.6-81.3 698.6-81.3-19.7-3.3-36.6-250.8z" id="Layer_5"/>
    <path class="st0" d="M1609.2 1040.6c-28.4 4.3-59 8.3-91.7 12-151.4 17.2-345.7 27.5-557.5 27.5s-406.1-10.3-557.5-27.5c-32.6-3.7-63.3-7.7-91.7-12 5.1-59 13.4-113.9 23.7-164.6 2.9-14.3 6-28.3 9.2-41.9 62.2 7.7 133.6 14.2 212 19.3 120.9 7.9 258.5 12.3 404.4 12.3 145.9 0 283.4-4.5 404.4-12.3 78.4-5.1 149.8-11.6 212-19.3 3.2 13.6 6.3 27.6 9.2 41.9 10.1 50.6 18.4 105.6 23.5 164.6z" id="Layer_6"/>
    <path class="st0" d="M1622 1257.6c-160.5 30.5-397.5 49.7-662 49.7s-501.5-19.3-662-49.7c3-43.3 5.9-94 8.5-153.5.6-12.4 1.3-24.6 2.1-36.7.6-9 1.3-18 2.1-26.8 28.4 4.3 59 8.3 91.7 12 151.4 17.2 345.7 27.5 557.5 27.5s406.1-10.3 557.5-27.5c32.6-3.7 63.3-7.7 91.7-12 .8 8.8 1.5 17.8 2.1 26.8.8 12.1 1.5 24.3 2.1 36.7 2.8 59.5 5.7 110.2 8.7 153.5z" id="Layer_7"/>
    <g id="STROKES">
        <path class="st1" d="M1576.3 834.1c-62.2 7.7-133.6 14.2-212 19.3-121 7.9-258.5 12.3-404.4 12.3-145.9 0-283.4-4.5-404.4-12.3-78.4-5.1-149.8-11.6-212-19.3 14.2-60.6 31-114.3 48.1-160.7 48.8-132 100-203.9 100-203.9H1428s51.2 71.9 100 203.9c17.3 46.4 34.1 100.1 48.3 160.7z"/>
        <path class="st1" d="M1428.2 469.5H491.8l51.9-167.1h832.6z"/>
        <path class="st1" d="M1609.2 1040.6c-28.4 4.3-59 8.3-91.7 12-151.4 17.2-345.7 27.5-557.5 27.5s-406.1-10.3-557.5-27.5c-32.6-3.7-63.3-7.7-91.7-12 5.1-59 13.4-113.9 23.7-164.6 2.9-14.3 6-28.3 9.2-41.9 62.2 7.7 133.6 14.2 212 19.3 120.9 7.9 258.5 12.3 404.4 12.3 145.9 0 283.4-4.5 404.4-12.3 78.4-5.1 149.8-11.6 212-19.3 3.2 13.6 6.3 27.6 9.2 41.9 10.1 50.6 18.4 105.6 23.5 164.6z"/>
        <path class="st1" d="M1622 1257.6c-160.5 30.5-397.5 49.7-662 49.7s-501.5-19.3-662-49.7c3-43.3 5.9-94 8.5-153.5.6-12.4 1.3-24.6 2.1-36.7.6-9 1.3-18 2.1-26.8 28.4 4.3 59 8.3 91.7 12 151.4 17.2 345.7 27.5 557.5 27.5s406.1-10.3 557.5-27.5c32.6-3.7 63.3-7.7 91.7-12 .8 8.8 1.5 17.8 2.1 26.8.8 12.1 1.5 24.3 2.1 36.7 2.8 59.5 5.7 110.2 8.7 153.5z"/>
        <path class="st1" d="M1658.6 1508.3s-107.6 81.3-698.6 81.3-698.6-81.3-698.6-81.3 19.6-3.3 36.6-250.8c160.5 30.5 397.5 49.7 662 49.7s501.5-19.3 662-49.7c16.9 247.6 36.6 250.8 36.6 250.8z"/>
    </g>
</svg>
