<svg xmlns="http://www.w3.org/2000/svg" viewBox="0 0 1920 1920">
    <style>
        .st0{fill:#fff}.st1{fill:none;stroke:#231f20;stroke-width:50;stroke-linecap:round;stroke-linejoin:round;stroke-miterlimit:10}
    </style>
    <g id="Layer_5">
        <path class="st0" d="M630.3 851.6s-78 40.9-78 151.4c0 0 .9 42.5 41.9 56.6 8.2 2.8 17.9 5.3 29.5 4.5 67-4.5 101.9-33.7 101.9-33.7L794 958c6.8-7.2 10.5-16.6 10.5-26.4v-225H630.3v145z"/>
        <path class="st0" d="M1285.5 851.6v-145h-174.2v225c0 9.8 3.8 19.3 10.5 26.4l68.4 72.4s34.9 29.2 101.8 33.7c11.6.8 21.4-1.7 29.6-4.5 41-14.1 41.9-56.6 41.9-56.6.1-110.5-78-151.4-78-151.4z"/>
    </g>
    <g id="Layer_6">
        <path class="st0" d="M908.1 837.8c-20.9-21.1-58.9-17.5-73.8 12.1-.2.5-.5.9-.7 1.4-2.6 5.5-12.9 16.4-29.1 31.6v48.7c0 9.8-3.8 19.3-10.5 26.4l-68.4 72.4s-34.9 29.2-101.9 33.7c-11.6.8-21.4-1.7-29.5-4.5-94.1 75.9-196.7 156.5-269.1 213 85.6 12.5 159.9 74.5 159.9 74.5s419.2-403.8 434.2-449.9c2.4-7.4 3.5-14.4 3.5-20.9 0-8.9-1.9-16.9-4.8-23.7-2.4-5.8-5.8-10.8-9.8-14.8z"/>
        <path class="st0" d="M1321.6 1059.6c-8.2 2.8-17.9 5.3-29.6 4.5-67-4.5-101.8-33.7-101.8-33.7l-68.4-72.4c-6.8-7.2-10.5-16.6-10.5-26.4v-48.7c-5-4.7-9.5-9-13.4-12.9-8.5-8.5-13.9-14.9-15.7-18.6-.2-.5-.5-.9-.7-1.4-2.4-4.8-5.5-8.9-8.9-12.3-22-21.8-61.6-16.3-74.7 15.2-2.9 6.9-4.8 14.8-4.8 23.7 0 6.5 1 13.4 3.5 20.9 7.5 23 116.1 135.5 222.8 242.2 104.2 104.2 206.6 202.9 211.3 207.5l.1.1c0 .1.1.1.1.1s74.3-61.9 159.9-74.5c-72.5-56.8-175-137.4-269.2-213.3z"/>
    </g>
    <g id="Layer_7">
        <path class="st0" d="M295.9 1270.4c-97.1 0-84.3 63.9-66.5 76.7H485s-74.3-61.9-159.9-74.5c-9.6-1.4-19.4-2.2-29.2-2.2z"/>
        <path class="st0" d="M1620 1270.4c-9.8 0-19.6.8-29.3 2.2-85.6 12.5-159.9 74.5-159.9 74.5h255.6c17.9-12.8 30.7-76.7-66.4-76.7z"/>
    </g>
    <g id="STROKES">
        <path class="st1" d="M325.1 1272.6c72.3-56.5 174.9-137.1 269.1-213"/>
        <path class="st1" d="M804.5 882.8c16.1-15.1 26.4-26.1 29.1-31.6.2-.5.5-.9.7-1.4 17.8-35.2 68.5-33.6 83.7 2.8 4.9 11.8 7.2 26.9 1.4 44.6-15.1 46-434.3 449.8-434.3 449.8"/>
        <path class="st1" d="M485 1347.1H229.4c-17.9-12.8-30.7-76.7 66.5-76.7 9.8 0 19.6.8 29.3 2.2 85.5 12.5 159.8 74.5 159.8 74.5z"/>
        <path class="st1" d="M804.5 706.5v225c0 9.8-3.8 19.3-10.5 26.4l-68.4 72.4s-34.8 29.2-101.8 33.7c-11.6.8-21.4-1.7-29.6-4.5-41-14.1-41.9-56.6-41.9-56.6 0-110.5 78-151.4 78-151.4v-145h174.2z"/>
        <path class="st1" d="M630.3 763.9h61.3"/>
        <path class="st1" d="M630.3 818.6h61.3"/>
        <path class="st1" d="M1321.6 1059.6c94.1 75.9 196.7 156.6 269.1 213"/>
        <path class="st1" d="M1430.8 1347.1s-419.2-403.8-434.3-449.8c-5.8-17.7-3.6-32.8 1.4-44.6 15.2-36.4 65.9-38 83.7-2.8.2.5.5.9.7 1.4 2.6 5.5 12.9 16.4 29.1 31.6"/>
        <path class="st1" d="M1430.8 1347.1h255.6c17.9-12.8 30.7-76.7-66.5-76.7-9.8 0-19.6.8-29.3 2.2-85.5 12.5-159.8 74.5-159.8 74.5z"/>
        <path class="st1" d="M1111.4 706.5v225c0 9.8 3.8 19.3 10.5 26.4l68.4 72.4s34.8 29.2 101.8 33.7c11.6.8 21.4-1.7 29.6-4.5 41-14.1 41.9-56.6 41.9-56.6 0-110.5-78-151.4-78-151.4v-145h-174.2z"/>
        <path class="st1" d="M1285.6 763.9h-61.4"/>
        <path class="st1" d="M1285.6 818.6h-61.4"/>
    </g>
</svg>
