<svg xmlns="http://www.w3.org/2000/svg" viewBox="0 0 1920 1920">
    <style>
        .st0{fill:#fff}.st1,.st2{fill:none;stroke:#000;stroke-width:50;stroke-miterlimit:10}.st2{stroke-linecap:round;stroke-linejoin:round}
    </style>
    <path class="st0" d="M996.1 1174.7l32 164.6-68.1-37.9-66.3 37.9 32-164.6c1.6-8.4 6.2-15.7 12.4-20.8 6.2-5.2 14.2-8.2 22.8-8.2 17.2-.1 31.9 12.1 35.2 29zm82.3-177c0 98.1 79.5 177.6 177.6 177.6s177.6-79.5 177.6-177.6-79.5-177.6-177.6-177.6-177.6 79.5-177.6 177.6zM664 820.1c98.1 0 177.6 79.5 177.6 177.6s-79.5 177.6-177.6 177.6-177.6-79.5-177.6-177.6S566 820.1 664 820.1z" id="Layer_2"/>
    <path class="st0" d="M1078.4 1703.1H723.2v-177.6c0-65.4-53-118.4-118.4-118.4-130.8 0-236.8-106-236.8-236.8V808.9c0-326.9 265-592 592-592 326.9 0 591.9 265 591.9 592h-.1v361.4c0 130.8-106 236.8-236.8 236.8-65.4 0-118.4 53-118.4 118.4h.1v177.6h-118.3zm355.2-705.4c0-98.1-79.5-177.6-177.6-177.6s-177.6 79.5-177.6 177.6 79.5 177.6 177.6 177.6 177.6-79.5 177.6-177.6zm-405.5 341.6l-32-164.6c-3.3-16.9-18-29-35.2-29-8.6 0-16.6 3-22.8 8.2-6.2 5.2-10.8 12.4-12.4 20.8l-32 164.6 66.3-37.9 68.1 37.9zM841.6 997.7c0-98.1-79.5-177.6-177.6-177.6s-177.6 79.5-177.6 177.6 79.5 177.6 177.6 177.6 177.6-79.5 177.6-177.6z" id="Layer_3"/>
    <g id="STROKES">
        <g id="XMLID_1_">
            <path class="st1" d="M841.6 997.7c0 98.1-79.5 177.6-177.6 177.6s-177.6-79.5-177.6-177.6S565.9 820.1 664 820.1s177.6 79.5 177.6 177.6z"/>
            <path class="st2" d="M368 938.5c0-81.7 33.1-155.7 86.7-209.3"/>
            <path class="st2" d="M664 642.5c-81.7 0-155.7 33.1-209.3 86.7"/>
            <path class="st2" d="M1256 642.5c81.7 0 155.7 33.1 209.3 86.7"/>
            <path class="st2" d="M1551.9 938.5c0-2.9 0-5.7-.1-8.6-2.2-78.3-34.9-149-86.6-200.7"/>
            <path class="st1" d="M1433.6 997.7c0 98.1-79.5 177.6-177.6 177.6s-177.6-79.5-177.6-177.6 79.5-177.6 177.6-177.6 177.6 79.5 177.6 177.6z"/>
            <path class="st2" d="M925.6 1174.7l-32 164.6 66.3-37.9 68.1 37.9-32-164.6c-3.3-16.9-18-29-35.2-29-8.6 0-16.6 3-22.8 8.2-6.2 5.1-10.7 12.4-12.4 20.8z"/>
            <path class="st2" d="M841.6 1584.7v118.4H723.2v-177.6c0-65.4-53-118.4-118.4-118.4-130.8 0-236.8-106-236.8-236.8V808.9c0-326.9 265-592 592-592 326.9 0 591.9 265 591.9 592"/>
            <path class="st2" d="M960 1584.7v118.4H841.6"/>
            <path class="st2" d="M1078.4 1584.7v118.4H960"/>
            <path class="st2" d="M1078.4 1703.1h118.4v-177.6h-.1c0-65.4 53-118.4 118.4-118.4 130.8 0 236.8-106 236.8-236.8V808.9"/>
        </g>
    </g>
</svg>
