<svg xmlns="http://www.w3.org/2000/svg" viewBox="0 0 1920 1920">
    <style>
        .st0{fill:#fff}.st1{fill:none;stroke:#000;stroke-width:50;stroke-linecap:round;stroke-linejoin:round;stroke-miterlimit:10}
    </style>
    <path class="st0" d="M878.8 501.5h162.3v216H878.8v-216zm213.5 216H827.6v467.1h264.6V717.5zm0 467.1H790.2V1702h339.7v-517.4h-37.6z" id="Layer_4"/>
    <g id="STROKES">
        <g id="XMLID_1_">
            <path class="st1" d="M1092.3 1184.6h37.6V1702H790.1v-517.4h37.6z"/>
            <path class="st1" d="M827.7 1183.4V717.5h264.6v465.9"/>
            <path class="st1" d="M878.8 717.5v-216h162.4v216"/>
            <path class="st1" d="M960.1 492.1V218"/>
            <path class="st1" d="M1018.8 497.6v-274"/>
            <path class="st1" d="M901.2 381.9v103.5"/>
            <path class="st1" d="M897.7 804.2v19.6"/>
            <path class="st1" d="M960 804.2v19.6"/>
            <path class="st1" d="M1022.3 804.2v19.6"/>
            <path class="st1" d="M897.7 900.3v19.6"/>
            <path class="st1" d="M960 900.3v19.6"/>
            <path class="st1" d="M1022.3 900.3v19.6"/>
            <path class="st1" d="M897.7 996.4v19.6"/>
            <path class="st1" d="M960 996.4v19.6"/>
            <path class="st1" d="M1022.3 996.4v19.6"/>
            <path class="st1" d="M897.7 1092.5v19.6"/>
            <path class="st1" d="M960 1092.5v19.6"/>
            <path class="st1" d="M1022.3 1092.5v19.6"/>
            <path class="st1" d="M960 593.4v19.5"/>
            <path class="st1" d="M897.7 1293.8v19.6"/>
            <path class="st1" d="M960 1293.8v19.6"/>
            <path class="st1" d="M1022.3 1293.8v19.6"/>
            <path class="st1" d="M897.7 1389.9v19.6"/>
            <path class="st1" d="M960 1389.9v19.6"/>
            <path class="st1" d="M1022.3 1389.9v19.6"/>
            <path class="st1" d="M897.7 1486.1v19.5"/>
            <path class="st1" d="M960 1486.1v19.5"/>
            <path class="st1" d="M1022.3 1486.1v19.5"/>
            <path class="st1" d="M897.7 1582.1v19.6"/>
            <path class="st1" d="M960 1582.1v19.6"/>
            <path class="st1" d="M1022.3 1582.1v19.6"/>
        </g>
    </g>
</svg>
