<svg xmlns="http://www.w3.org/2000/svg" viewBox="0 0 1920 1920">
    <style>
        .st0{fill:#fff}.st1{fill:none;stroke:#000;stroke-width:50;stroke-linecap:round;stroke-linejoin:round;stroke-miterlimit:10}
    </style>
    <path class="st0" d="M1450.6 929.4c-12.9-172.8-129.8-308.2-129.8-308.2S1379 575 1510.5 575c106.3 0 192.5 172.4 192.5 385.1s-86.2 385.1-192.5 385.1c-131.5 0-189.7-46.2-189.7-46.2s130.9-151.7 130.9-338.9c0-10.4-.4-20.6-1.1-30.7zm-129.8-308.3s-100.1-108.5-305.5-108.5-305.5 108.5-305.5 108.5 131 151.7 131 338.9c0 7.7-.2 15.3-.7 22.9-9.9 176.5-130.3 316-130.3 316s100.1 108.5 305.5 108.5 305.5-108.5 305.5-108.5 130.9-151.7 130.9-338.9c0-10.3-.4-20.5-1.2-30.6-12.8-172.8-129.7-308.3-129.7-308.3zM602 960c0 212.7-86.2 385.1-192.5 385.1 274.7 0 300.4-46.2 300.4-46.2s120.4-139.5 130.3-316c.4-7.6.7-15.2.7-22.9 0-187.2-130.9-338.9-130.9-338.9s-25.7-46.2-300.4-46.2C515.8 574.9 602 747.3 602 960z" id="Layer_5"/>
    <path class="st0" d="M364.8 585.4c14.3-6.8 29.3-10.4 44.7-10.4C515.8 574.9 602 747.3 602 960s-86.2 385.1-192.5 385.1S216.9 1172.7 216.9 960c0-181.9 63.1-334.4 147.9-374.6zm-33.1 588.3l1.3-.7c144-159.8 44.6-417.9 28-436-102.7 163.1-78.6 347.4-29.3 436.7z" id="Layer_6"/>
    <path class="st0" d="M361 737c16.6 18.1 116 276.2-28 436l-1.3.7c-49.3-89.3-73.4-273.6 29.3-436.7z" id="Layer_7"/>
    <g id="Layer_1">
        <path class="st1" d="M409.5 574.9C515.8 574.9 602 747.3 602 960s-86.2 385.1-192.5 385.1S216.9 1172.7 216.9 960c0-181.9 63.1-334.4 147.9-374.6 14.3-6.9 29.3-10.5 44.7-10.5z"/>
        <path class="st1" d="M709.8 621.1S840.7 772.8 840.7 960c0 7.7-.2 15.3-.7 22.9-9.9 176.5-130.3 316-130.3 316"/>
        <path class="st1" d="M1320.8 621.1s116.9 135.4 129.8 308.2c.8 10.1 1.2 20.3 1.2 30.6 0 187.2-130.9 338.9-130.9 338.9"/>
        <path class="st1" d="M409.5 574.9c274.7 0 300.4 46.2 300.4 46.2"/>
        <path class="st1" d="M1320.8 621.1s-100.1-108.5-305.5-108.5-305.5 108.5-305.5 108.5"/>
        <path class="st1" d="M1320.8 1298.9s-100.1 108.5-305.5 108.5-305.5-108.5-305.5-108.5"/>
        <path class="st1" d="M409.5 1345.1c274.7 0 300.4-46.2 300.4-46.2"/>
        <path class="st1" d="M1320.8 1298.9s58.2 46.2 189.7 46.2c106.3 0 192.5-172.4 192.5-385.1s-86.2-385.1-192.5-385.1c-131.5 0-189.7 46.2-189.7 46.2"/>
        <path class="st1" d="M753 925l84 60 3.1-2.1L925 925"/>
        <path class="st1" d="M1541 985l-84-60-6.4 4.4L1369 985"/>
        <path class="st1" d="M364.8 585.4S517 717 517 933c0 165.5-68.1 260.5-99.9 295.9-8.2 9.1-17.9.9-29.9-1.5-18.7-3.7-38.5-23.1-55.4-53.7-49.3-89.3-73.4-273.6 29.3-436.7 16.6 18.1 116 276.2-28 436"/>
    </g>
</svg>
