<svg xmlns="http://www.w3.org/2000/svg" viewBox="0 0 1920 1920">
    <style>
        .st0{fill:#fff}.st1{fill:none;stroke:#000;stroke-width:50;stroke-linecap:round;stroke-linejoin:round;stroke-miterlimit:10}
    </style>
    <path class="st0" d="M882.7 1586c-10.4-25.9-17.8-53-21.9-80.6L757 813l370-16 66.4-367.4L1259 483l.2-.1c3.8 14.7 5.8 30 5.8 45.4V813l-103.8 692.4c-4.1 27.6-11.5 54.7-21.9 80.6l-28.1 69.7c-11 27.3-37.5 45.2-67 45.2h-66.4c-29.5 0-56-17.9-67-45.2l-28.1-69.7zM1019 213h-17.7c-47.5 0-91.8 24.2-117.5 64.2l-98 152.9c-10.5 16.3-18.2 34.2-23 52.8l.2.1 128.3-104.5c28.2-23 63.5-35.5 100-35.5h39.4c36.4 0 71.7 12.5 100 35.5l62.7 51L1259 483l.2-.1c-4.8-18.6-12.5-36.5-23-52.8l-98-152.9c-25.7-40-69.9-64.2-117.5-64.2h-1.7z" id="Layer_8"/>
    <path class="st0" d="M1193.4 429.6L1127 797l-370 16 90.5-79.6L1059 721l41.1-209.5 93.3-81.9zm0 0l-62.7-51c-28.2-23-63.6-35.5-100-35.5h-39.4c-36.4 0-71.7 12.5-100 35.5L763 483l-.2-.1c-3.8 14.7-5.8 30-5.8 45.4V813l90.5-79.6L1100 511.5l93.4-81.9z" id="Layer_9"/>
    <path class="st0" d="M757 813l-107.3 68.3-20.7-78.9z" id="Layer_10"/>
    <path class="st0" d="M1100.1 511.5L1059 721l-211.5 12.4z" id="Layer_11"/>
    <g id="Layer_1">
        <path class="st1" d="M757 813l90.5-79.6 252.6-221.9 93.3-81.9L1127 797z"/>
        <path class="st1" d="M763 483l128.3-104.5c28.2-23 63.5-35.5 100-35.5h39.4c36.4 0 71.7 12.5 100 35.5l62.7 51L1259 483"/>
        <path class="st1" d="M1019 213h1.7c47.5 0 91.8 24.2 117.5 64.2l98 152.9c10.5 16.3 18.2 34.2 23 52.8 3.8 14.7 5.8 30 5.8 45.4V813l-103.8 692.4c-4.1 27.6-11.5 54.7-21.9 80.6l-28.1 69.7c-11 27.3-37.5 45.2-67 45.2h-66.4c-29.5 0-56-17.9-67-45.2l-28.1-69.7c-10.4-25.9-17.8-53-21.9-80.6L757 813V528.3c0-15.4 2-30.6 5.8-45.4 4.8-18.6 12.5-36.5 23-52.8l98-152.9c25.7-40 69.9-64.2 117.5-64.2h17.7"/>
        <path class="st1" d="M757 813l-128-10.6 20.7 78.9z"/>
        <path class="st1" d="M847.5 733.4L1059 721l41.1-209.5.6-3"/>
        <path class="st1" d="M869 1537s140-74 276 0"/>
    </g>
</svg>
