<svg xmlns="http://www.w3.org/2000/svg" viewBox="0 0 1920 1920">
    <style>
        .st0{fill:#fff}.st1{fill:none;stroke:#000;stroke-width:50;stroke-linecap:round;stroke-linejoin:round;stroke-miterlimit:10}
    </style>
    <path class="st0" d="M1541 863l-41.9 82.5-120.6-113.1L1541 863zm-220.2 468H636.2c-31.6 0-57.2 25.6-57.2 57.2v257.6c0 31.6 25.6 57.2 57.2 57.2h684.6c31.6 0 57.2-25.6 57.2-57.2v-257.6c0-31.6-25.6-57.2-57.2-57.2zm7.6-371.5c-2.5.3-5 .5-7.6.5H636.2c-2.6 0-5.1-.2-7.6-.5-28 3.7-49.6 27.7-49.6 56.7v257.6c0 31.6 25.6 57.2 57.2 57.2h684.6c31.6 0 57.2-25.6 57.2-57.2v-257.6c0-29-21.6-53-49.6-56.7zm49.6-56.7v-70.3H763V588H636.2c-2.6 0-5.1.2-7.6.5-28 3.7-49.6 27.7-49.6 56.7v257.6c0 29 21.6 53 49.6 56.7 2.5.3 5 .5 7.6.5h684.6c2.6 0 5.1-.2 7.6-.5 28-3.7 49.6-27.7 49.6-56.7zM636.2 217c-31.6 0-57.2 25.6-57.2 57.2v257.6c0 29 21.6 53 49.6 56.7 2.5-.3 5-.5 7.6-.5H763V217H636.2zm638.9 512H854V308l-91-91v615.5h615v-.5l-102.9-103z" id="Layer_2"/>
    <path class="st0" d="M854 729V308l421.1 421z" id="Layer_3"/>
    <path class="st0" d="M1328.4 588.5c28 3.7 49.6 27.7 49.6 56.7V832l-103-103-421-421-91-91h557.8c31.6 0 57.2 25.6 57.2 57.2v257.6c0 29-21.6 53-49.6 56.7z" id="Layer_4"/>
    <g id="Layer_1">
        <path class="st1" d="M1378.5 832.5H763V216.9v.1l91 91 421.1 421L1378 832z"/>
        <path class="st1" d="M1378.5 832.5L1541 863l-41.8 82.6z"/>
        <path class="st1" d="M1275.1 729H854V308"/>
        <path class="st1" d="M854 729l207.5-207.5"/>
        <path class="st1" d="M1037 721l102-102"/>
        <path class="st1" d="M867 551l102-102"/>
        <path class="st1" d="M636.2 589c-2.6 0-5.1-.2-7.6-.5-28-3.7-49.6-27.7-49.6-56.7V274.2c0-31.6 25.6-57.2 57.2-57.2h684.6c31.6 0 57.2 25.6 57.2 57.2v257.6c0 29-21.6 53-49.6 56.7-2.5.3-5 .5-7.6.5"/>
        <path class="st1" d="M763 588H636.2c-2.6 0-5.1.2-7.6.5-28 3.7-49.6 27.7-49.6 56.7v257.6c0 29 21.6 53 49.6 56.7 2.5.3 5 .5 7.6.5h684.6c2.6 0 5.1-.2 7.6-.5 28-3.7 49.6-27.7 49.6-56.7V645.2c0-29-21.6-53-49.6-56.7-2.5-.3-5-.5-7.6-.5"/>
        <path class="st1" d="M1320.8 959c2.6 0 5.1.2 7.6.5 28 3.7 49.6 27.7 49.6 56.7v257.6c0 31.6-25.6 57.2-57.2 57.2H636.2c-31.6 0-57.2-25.6-57.2-57.2v-257.6c0-29 21.6-53 49.6-56.7 2.5-.3 5-.5 7.6-.5"/>
        <path class="st1" d="M1320.8 1331c31.6 0 57.2 25.6 57.2 57.2v257.6c0 31.6-25.6 57.2-57.2 57.2H636.2c-31.6 0-57.2-25.6-57.2-57.2v-257.6c0-31.6 25.6-57.2 57.2-57.2"/>
    </g>
</svg>
