<svg xmlns="http://www.w3.org/2000/svg" viewBox="0 0 1920 1920">
    <style>
        .st0{fill:#fff}.st1{fill:none;stroke:#000;stroke-width:50;stroke-linecap:round;stroke-linejoin:round;stroke-miterlimit:10}
    </style>
    <path class="st0" d="M1605.5 1134.7c240.1-275.5-38.6-434.2-38.6-434.2-298.5-283.4-700.2-225.2-700.2-225.2s-92-11-135.2-45.8c-43.2-34.9-152-31.1-157.7-31.1s-97.6-.2-108.9-.1c-11.3.1-61.9-2.1-73.2 0-11.3 2-45-22.4-47.9 20.8-2.8 43.2.9 95.9 62.9 118.3 0 0 114.5 62.7 211.1 117.1 30.7 17.3 59.6 33.7 82.4 47.1 22.9 13.3 39.7 23.6 46.2 28.4 0 0-2.8 22.6 3.4 53-1.2.3-91.9 21.5-136.6-21.9C568.1 717.4 510 658.7 463 699.3c0 0 33.7 5 33.7 36 0 30.9-26.2 47.6-26.2 47.6s33.4 15.1 62.5 44.6c15.3 15.4 29.4 34.8 36.9 58 7 21.4 18.2 38.7 32 52.5 69.8 69.8 206.6 53.1 206.6 53.1-24.4 37.9-60.3 81.7-109.2 113.1 0 0-52.5 20.6-78.8 99.5-15.7 47.2-38.9 76.2-54.9 91.9-10.8 10.5-18.3 15.1-18.3 15.1s7.6 9.3 20.9 19.5c13.3 10.2 32.5 21.3 55.6 25.1 13.9-.6 27.5-1.1 40.6-1.6 5.6-1.4 11.3-3.2 17.1-5.7 5.8-2.5 11.8-5.5 17.8-9.2 86.4-52.6 110.8-122 110.8-122S1006 1145 1061.3 1015c0 0 191.1 74.2 257 205.6 0 0-28.1 14-50.6 32.3-17 13.8-30.9 30.1-26.9 44.7 4.5 16.4 11.6 28 29 34 5.1.5 9.1 1 11.8 1.4 2.8.4 4.2.7 4.2.7-1.4.3-2.9.6-4.3.9 18.7 3.2 46.1 2 87-3.9-8.8 7.7-14.8 16.3-16 26-3.3 27 38.8 43.3 74.1 52.2 24.8 6.3 46.3 8.9 46.3 8.9s164.9-33.8 185.6-73.2c20.6-39.4-11.3-75.1-11.3-75.1 5.2-47.6-21.4-101.4-41.7-134.8z" id="Layer_8"/>
    <path class="st0" d="M470.8 782.8s26.2-16.6 26.2-47.6c0-30.9-33.7-36-33.7-36s-162.4-29-246.3 126.2c1.3-.7 100.9-58.8 253.8-42.6zm76.8 527.8s7.6-4.5 18.3-15.1c-32.5-8-150.4-28-235.5 75.6 0 0 160.4-10.3 293.6-15.9-23.2-3.8-42.3-14.9-55.6-25.1-13.2-10.3-20.8-19.5-20.8-19.5zm722.5 20.9c-17.4-6-24.5-17.6-29-34-4-14.6 9.9-30.8 26.9-44.7-211.2 22.9-206.3 134.5-206.3 134.5 61.6-63.5 168.1-59.8 208.4-55.8zm82.9 25c1.2-9.7 7.2-18.3 16-26-40.9 5.9-68.3 7.1-87 3.9-68.6 14.5-102.9 41.1-120.1 64.1-17.2 23-17.2 42.4-17.2 42.4 79.1-45.9 219.2-38.6 282.4-32.3-35.4-8.8-77.5-25.2-74.1-52.1z" id="Layer_10"/>
    <g id="STROKES">
        <path class="st1" d="M1286.2 1333.5c-1.4.3-2.9.6-4.3.9-4.4-.7-8.3-1.7-11.8-2.9 5.1.5 9.1 1 11.8 1.4 2.8.4 4.3.6 4.3.6z"/>
        <path class="st1" d="M664.7 1353.6c-8.4 2-16.5 2.9-24.2 2.9-5.7 0-11.1-.5-16.4-1.3 13.9-.6 27.5-1.2 40.6-1.6z"/>
        <path class="st1" d="M624.1 1355.1c12.5 2 26.1 1.9 40.6-1.6"/>
        <path class="st1" d="M1007.5 756.8s99.5 80.7 63.9 229c-2.4 10-5.7 19.7-9.7 29.1"/>
        <path class="st1" d="M1405.5 885.4s-114.5 188.6-63.8 275 184 159.6 184 159.6"/>
        <path class="st1" d="M1647.6 1269.3s31.9 35.7 11.3 75.1c-20.6 39.4-185.6 73.2-185.6 73.2s-21.5-2.6-46.3-8.9c-35.3-8.9-77.4-25.2-74.1-52.2 1.2-9.7 7.2-18.3 16-26-40.9 5.9-68.3 7.1-87 3.9 1.4-.3 2.8-.6 4.3-.9 0 0-5.9-1-16.1-2.1-17.4-6-24.5-17.6-29-34-4-14.6 9.9-30.8 26.9-44.7 22.5-18.3 50.6-32.3 50.6-32.3-65.9-131.4-257-205.6-257-205.6-55.4 129.9-251.2 201.8-251.2 201.8s-24.4 69.4-110.8 122c-12.1 7.4-23.8 12.1-35 14.8-13.1.5-26.7 1-40.6 1.6-46.3-7.5-76.5-44.6-76.5-44.6s7.6-4.5 18.3-15.1c16-15.7 39.2-44.7 54.9-91.9 26.3-78.8 78.8-99.5 78.8-99.5 48.9-31.4 84.7-75.2 109.2-113.1 28.1-43.6 41-79.4 41-79.4-67.5-33.8-91.6-88.2-99.8-128.7-6.2-30.5-3.4-53-3.4-53-13.1-9.7-67.3-40.9-128.6-75.5-96.5-54.2-211-116.9-211-116.9C345 514.9 341.2 462.1 344 419c2.8-43.2 36.6-18.8 47.9-20.8 11.3-2 62 .1 73.2 0 11.3-.1 103.2.1 108.9.1s114.5-3.8 157.7 31.1c43.2 34.9 135.2 45.8 135.2 45.8s401.7-58.2 700.2 225.2c0 0 278.7 158.8 38.6 434.2 20.1 33.5 46.7 87.3 41.9 134.7z"/>
        <path class="st1" d="M1368.9 1330.5c32.9-28.8 104.4-43.3 104.4-43.3"/>
        <path class="st1" d="M1605.5 1134.7c-11.9-19.6-21.7-32.1-21.7-32.1l37.5-118.7"/>
        <path class="st1" d="M1281.9 1334.4c-4.4-.7-8.3-1.7-11.8-2.9"/>
        <path class="st1" d="M497 735.2c0 30.9-26.2 47.6-26.2 47.6-152.9-16.2-252.5 41.9-253.8 42.7 83.9-155.3 246.3-126.2 246.3-126.2s33.7 5 33.7 35.9z"/>
        <path class="st1" d="M470.8 782.8s77.5 35.1 99.5 102.6C612.5 1014.9 808.9 991 808.9 991"/>
        <path class="st1" d="M463.3 699.2c46.9-40.6 105.1 18.1 150.2 61.8 44.8 43.4 135.5 22.2 136.7 21.9"/>
        <path class="st1" d="M546.3 517.9c21.6 20.8 77.1 102.5 71.7 136.4"/>
        <path class="st1" d="M217 825.5c-.1 0-.1 0 0 0"/>
        <path class="st1" d="M668.3 1353.4c-1.2 0-2.4.1-3.6.1"/>
        <path class="st1" d="M624.1 1355.1c-133.2 5.6-293.6 15.9-293.6 15.9 85.1-103.6 203-83.6 235.5-75.6-10.8 10.5-18.3 15.1-18.3 15.1s30.1 37.1 76.4 44.6z"/>
        <path class="st1" d="M1270.1 1331.5c-40.3-4-146.8-7.6-208.4 55.8 0 0-4.9-111.5 206.3-134.5-17 13.8-30.9 30.1-26.9 44.7 4.5 16.4 11.7 28 29 34z"/>
        <path class="st1" d="M1427 1408.7c-63.1-6.2-203.3-13.6-282.4 32.3 0 0 .1-77.7 137.3-106.6 18.7 3.2 46.1 2 87-3.9-8.8 7.7-14.8 16.3-16 26-3.3 26.9 38.8 43.3 74.1 52.2z"/>
    </g>
</svg>
