<svg xmlns="http://www.w3.org/2000/svg" viewBox="0 0 1920 1920">
    <style>
        .st0{fill:#fff}.st1{fill:none;stroke:#000;stroke-width:50;stroke-linecap:round;stroke-linejoin:round;stroke-miterlimit:10}
    </style>
    <path class="st0" d="M954.6 217c-388.5 0-703.4 292.3-703.4 653 0 61.1 9 120.2 25.9 176.2 19.1 63.3 48.2 122.8 85.6 176.8 67.8 126.1 166.7 280.8 263.2 324.5 0 0-55.6-89.6-11.8-106 .4 1.1 47.5 138.4 163 170.4 0 0-42.2-67.5-56.6-126-3.8-15.4-5.7-30.2-4.3-42.9 0 0 12.3 22.3 30.1 50.9 26.8 43.1 65.9 100.6 94 118.1 46.7 29.2 41.9 88.8 41.9 88.8s56.2-100.3 65.6-177.8c2-16.2 1.9-31.4-1.2-44.5 0 0 17 18.9 29.9 44.2 10.6 20.8 18.6 46 12 68.6 0 0 58.2-27.6 99.7-80 12.5-15.7 23.4-33.6 30.8-53.7 0 0 9.1 21.1 11.1 45 1.3 16.3-.6 33.8-11.1 46.9 0 0 208.3-26.8 327.3-212.4 130.7-118.6 211.8-284 211.8-467-.1-360.8-315-653.1-703.5-653.1zM758.1 769.7c-.8 12-3.5 25.1-12.9 32.6-4 3.1-8.8 5-13.7 6.2-13.4 3.5-28 3.1-40.8-2-12.9-5.2-23.9-15.2-29.3-28-6.7-15.8-4.6-34-.7-50.7 1.4-6.1 3.1-12.2 6.8-17.2 9-12 26.8-13.2 41.1-8.9 11 3.3 32.4 9.4 41.2 17 12.3 10.8 9.3 36.5 8.3 51zm497.7 8.9c-5.4 12.8-16.5 22.8-29.3 28-12.9 5.2-27.4 5.5-40.9 2-4.9-1.3-9.8-3.1-13.7-6.2-9.4-7.5-12.1-20.6-12.9-32.6-1-14.5-4-40.2 8.4-50.9 8.8-7.6 30.2-13.7 41.2-17 14.3-4.3 32.1-3.1 41.1 8.9 3.7 5 5.4 11.1 6.9 17.2 3.8 16.6 6 34.7-.8 50.6z" id="Layer_5"/>
    <path class="st0" d="M749.7 718.8c-8.8-7.6-30.2-13.7-41.2-17.1-14.3-4.3-32.1-3.1-41.1 8.9-3.7 5-5.4 11.2-6.8 17.2-3.9 16.8-6 34.9.7 50.7 5.4 12.8 16.5 22.8 29.3 28 12.9 5.2 27.4 5.6 40.9 2 4.9-1.3 9.7-3.1 13.7-6.3 9.5-7.5 12.1-20.6 12.9-32.6 1-14.4 4-40.1-8.4-50.8zm506.8 9.1c-1.4-6.1-3.1-12.2-6.8-17.2-9-11.9-26.8-13.2-41.1-8.9-11 3.3-32.4 9.4-41.2 17.1-12.4 10.7-9.4 36.4-8.4 50.9.8 12 3.5 25.1 12.9 32.6 4 3.1 8.8 5 13.7 6.3 13.4 3.5 28 3.1 40.9-2 12.9-5.2 23.9-15.2 29.3-28 6.7-16 4.6-34.1.7-50.8z" id="Layer_7"/>
    <g id="STROKES">
        <path class="st1" d="M1658 869.9c0 183-81.1 348.4-211.8 467-119 185.5-327.3 212.4-327.3 212.4 10.4-13 12.4-30.6 11.1-46.9-2-23.9-11.1-45-11.1-45-7.4 20.1-18.4 38-30.8 53.7-41.5 52.4-99.7 80-99.7 80 6.6-22.6-1.4-47.7-12-68.6-12.9-25.3-29.9-44.2-29.9-44.2 3.1 13.1 3.1 28.3 1.2 44.5-9.4 77.5-65.6 177.8-65.6 177.8s4.8-59.6-41.9-88.8c-28.1-17.5-67.2-75-94-118.1-17.8-28.6-30.1-50.9-30.1-50.9-1.3 12.8.5 27.5 4.3 42.9 14.4 58.5 56.6 126 56.6 126-115.5-32.1-162.7-169.4-163-170.5-43.8 16.4 11.8 106 11.8 106-96.5-43.7-195.5-198.4-263.2-324.5-51.2-95.3-84.6-174.3-85.6-176.8v-.1c-16.9-56.1-25.9-115.2-25.9-176.2 0-360.6 314.9-653 703.5-653S1658 509.3 1658 869.9z"/>
        <path class="st1" d="M362.7 1222.9c-37.4-54-66.6-113.4-85.6-176.8 1 2.5 34.4 81.5 85.6 176.8z"/>
        <path class="st1" d="M708.5 701.8c-14.3-4.3-32.1-3.1-41.1 8.9-3.7 5-5.4 11.2-6.8 17.2-3.9 16.8-6 34.9.7 50.7 5.4 12.8 16.5 22.8 29.3 28 12.9 5.2 27.4 5.6 40.9 2 4.9-1.3 9.7-3.1 13.7-6.3 9.5-7.5 12.1-20.6 12.9-32.6 1-14.6 4-40.2-8.4-50.9-8.8-7.6-30.1-13.7-41.2-17z"/>
        <path class="st1" d="M758.1 769.7s12.8 95.9-133.2 107.7c-146.1 11.8-131 63.4-131 63.4"/>
        <path class="st1" d="M689.3 699.5s-70.9-37.9-150.4 30.8"/>
        <path class="st1" d="M1208.5 701.8c14.3-4.3 32.1-3.1 41.1 8.9 3.7 5 5.4 11.2 6.8 17.2 3.9 16.8 6 34.9-.7 50.7-5.4 12.8-16.5 22.8-29.3 28-12.9 5.2-27.4 5.6-40.9 2-4.9-1.3-9.7-3.1-13.7-6.3-9.5-7.5-12.1-20.6-12.9-32.6-1-14.6-4-40.2 8.4-50.9 8.9-7.6 30.2-13.7 41.2-17z"/>
        <path class="st1" d="M1159 769.7s-12.8 95.9 133.2 107.7c146.1 11.8 131 63.4 131 63.4"/>
        <path class="st1" d="M1227.8 699.5s70.9-37.9 150.4 30.8"/>
        <path class="st1" d="M1172.7 432c8.2-.4 16.8-.7 25.7-1 221.2-5.7 332.9 156.7 339.4 258.1s66.6 453.7-298.6 524.5c-171.8 88.1-265.3 85.9-265.3 85.9h-19.3s-93.4 2.1-265.3-85.9c-365.2-70.9-305-423.1-298.6-524.5 6.4-101.4 118.1-263.8 339.4-258.1 34.5.9 63.9 3.3 89.1 6.6"/>
        <path class="st1" d="M993.6 927.9c-7.4 7-8.2 15.1-6 22.5 5.3 18.8 26.3 28.1 44.4 20.7 36.7-15 70-48.7 54.6-87.1-19.3-48.3-126.6-43.4-126.6-43.4s-118-4.9-137.4 43.4c-15.4 38.4 10.1 72.8 46.8 87.9 18.1 7.4 39-1.9 44.4-20.7 2.1-7.5 1.4-15.5-6-22.5"/>
        <path class="st1" d="M696.8 982.7s244.9 240.6 534.8 0"/>
        <path class="st1" d="M1148.4 355.7c-45 28.9-80.1 73-98 123.4"/>
        <path class="st1" d="M1010.2 359.2c-12.1 20.1-20 42.7-22.7 66"/>
        <path class="st1" d="M796.9 354.2c32.6 21.3 53 60.1 51.9 99"/>
    </g>
</svg>
