<svg xmlns="http://www.w3.org/2000/svg" viewBox="0 0 1920 1920">
    <style>
        .st0{fill:#fff}.st1{fill:none;stroke:#000;stroke-width:50;stroke-linecap:round;stroke-linejoin:round;stroke-miterlimit:10}
    </style>
    <path class="st0" d="M1642.9 1048.1c-21.7-25.9-69.8-53.1-176.7-20.4-31 9.5-63.8-16.3-97.1-44.9 33.9-62.3 129-230 203.6-294.8 30.2-26.2 42.8-45.7 46.1-59.9 6.7-29.4-26.2-36.8-26.2-36.8s-3.3-.7-8.6-1.3c-18.9-2-63.5-2.3-78.9 37.3-16 41.1-173.8 127.4-233.3 158.8-.2-1.7-.4-3.3-.5-5-10.4-102 .9-219 10.1-288.5 5-37.5 9.3-61.1 9.3-61.1s12.4-34.2-8.4-49.3c-9.3-4.6-15.3-6.1-15.3-6.1-8.3-1.5-15.9-2.4-22.7-2.4-26.7 0-41.9 13.5-48.1 55.9-1.7 11.5-4.2 26.3-7.9 43.3-13 61.6-39.7 151.7-87.4 212.9-46 59-96.5 148.4-113.7 220.2-33.5-7.6-114.9-23.7-191.1-18.9-3.1-7.6-57.9-141.2-99.4-170C670.1 698.6 657 626 644.6 571c-7.5-33.2-14.9-60.1-24.9-64.8-26.6-12.5-81.3-33.3-75.4 29.6-11.7-23.2-35.5-46.7-79.3-7.8-19.4 17.2-28.6 53.8-32.2 99.9-1.5 18.6-2.1 38.8-2.1 59.8 0 116 17.8 259.2 1.5 321.5-26.6 101.5-45.3 331.2 150 434.3 195.3 103.1 589-134.4 589-134.4 207.8 67.2 340.6 18.8 410.9-25 70.3-43.8 40.6-143.7 40.6-143.7 16.1-19.6 23-55.8 25.5-73.4 1.1-6.6-.8-13.6-5.3-18.9z" id="Layer_3"/>
    <path class="st0" d="M1669.4 473.1s-43.6 74.8-85.4 117c5.3.6 8.6 1.3 8.6 1.3s32.9 7.4 26.2 36.8c16.9-21.7 62.7-87.8 50.6-155.1zm-387.1-90.7c20.8 15.1 8.4 49.3 8.4 49.3s-4.4 23.6-9.3 61.1l95.6 35.4c-6.2-36.8-17.8-65-31.2-86.5-21.4-34.2-47.4-51.3-63.5-59.3z" id="Layer_4"/>
    <g id="STROKES">
        <path class="st1" d="M1648.4 1067.3c-2.5 17.6-9.4 53.8-25.5 73.4 0 0 29.7 100-40.6 143.7-70.3 43.7-203.1 92.2-410.9 25 0 0-393.7 237.5-589 134.4s-176.5-332.8-150-434.3c19.2-73.6-9.1-260.2.6-381.3 3.7-46.1 12.9-82.7 32.2-99.9 43.8-38.9 67.5-15.5 79.3 7.8 7.1 14.1 9.8 28.2 9.8 28.2s-20.3 145.3 6.2 190.6c18.7 31.9 100.3 77.8 133.2 158.5 28.6-16.1 65-23.6 102.6-25.9 76.1-4.8 157.6 11.2 191.1 18.9 17.2-71.8 67.7-161.2 113.7-220.2 47.8-61.2 74.4-151.3 87.4-212.9 3.6-17 6.2-31.8 7.9-43.3 7.8-53.1 29.7-60.9 70.8-53.5 0 0 6 1.5 15.3 6.1 20.8 15.1 8.4 49.3 8.4 49.3s-4.4 23.6-9.3 61.1c-9.2 69.5-20.6 186.4-10.1 288.5.2 1.7.3 3.3.5 5 8.1 73.4 27.8 138.5 68.1 171.6 9.8 8 19.6 16.6 29.3 25 33.3 28.6 66.1 54.4 97.1 44.9 106.9-32.7 155-5.5 176.7 20.4 4.2 5 6.1 12 5.2 18.9z"/>
        <path class="st1" d="M693.6 913.2c13.8 33.8 19 73.7 7.5 121.2-39.1 160.9-68.8 156.2-68.8 156.2"/>
        <path class="st1" d="M1282.3 382.4c-3.8-2.8-8.8-5-15.3-6.1"/>
        <path class="st1" d="M919.8 1025.1s73.4 17.2 62.5-56.2c-2.7-18-.6-39.4 5-62.6"/>
        <path class="st1" d="M216.9 717.3c0-1.6 191.6-87.6 216-89.1"/>
        <path class="st1" d="M550.3 598.9s49-16.4 94.4-27.8"/>
        <path class="st1" d="M644.7 571.1c29.1-7.3 56.6-12.5 68.9-10.1 31.2 6.2 68.7 23.2 92.2 18.6 23.4-4.6 356.1-88.2 382.7-106.6"/>
        <path class="st1" d="M1288.7 454S1653 378.1 1703 345.1"/>
        <path class="st1" d="M796.2 887.3c-37.7 2.4-74 9.8-102.6 25.9-32.9-80.6-114.4-126.5-133.2-158.5-26.6-45.3-6.2-190.6-6.2-190.6s-2.7-14-9.8-28.2c-5.9-62.9 48.8-42.1 75.4-29.6 10 4.7 17.3 31.5 24.9 64.8 12.5 55 25.5 127.6 52.1 146.1 41.5 28.9 96.3 162.5 99.4 170.1z"/>
        <path class="st1" d="M796.4 887.7s0-.1-.1-.3"/>
        <path class="st1" d="M1271.8 786.2c59.5-31.4 217.3-117.7 233.3-158.8 15.5-39.6 60.1-39.4 78.9-37.3"/>
        <path class="st1" d="M1618.9 628.1c-3.2 14.2-15.8 33.7-46.1 59.9-74.6 64.8-169.7 232.4-203.6 294.8"/>
        <path class="st1" d="M1618.9 628.1c6.7-29.4-26.2-36.8-26.2-36.8s-3.3-.7-8.6-1.3c41.7-42.1 85.4-117 85.4-117 12 67.4-33.8 133.5-50.6 155.1z"/>
        <path class="st1" d="M1290.7 431.7s12.4-34.2-8.4-49.3c16.1 8 42.1 25.1 63.4 59.4 13.4 21.5 25 49.6 31.2 86.5l-95.6-35.4c5-37.6 9.4-61.2 9.4-61.2z"/>
        <path class="st1" d="M1462.8 1224.7c-14.8 5.1-77.8 75.4-93.1 117.3"/>
        <path class="st1" d="M1282.3 382.4c-9.3-4.6-15.3-6.1-15.3-6.1 3.2.6 6.1 1.4 8.6 2.4 2.6 1.1 4.8 2.3 6.7 3.7z"/>
    </g>
</svg>
