<svg xmlns="http://www.w3.org/2000/svg" viewBox="0 0 1920 1920">
    <style>
        .st0{fill:#fff}.st1{stroke-linecap:round}.st1,.st2,.st3{fill:none;stroke:#000;stroke-width:50;stroke-miterlimit:10}.st3{stroke-linecap:round;stroke-linejoin:round}
    </style>
    <path class="st0" d="M1554.4 811.4v297.2c0 328.3-266.1 594.4-594.4 594.4s-594.4-266.1-594.4-594.4V811.4C365.6 483.1 631.7 217 960 217s594.4 266.1 594.4 594.4zM1183.8 713V601.2c0-30.9-25.1-56-56-56s-55.9 25-55.9 56V713c0 30.9 25 56 55.9 56s56-25 56-56zm-335.7 0V601.2c0-30.9-25-56-55.9-56s-56 25-56 56V713c0 30.9 25 56 56 56 30.8 0 55.9-25 55.9-56z" id="Layer_4"/>
    <path class="st0" d="M1183.8 601.2V713c0 30.9-25.1 56-56 56s-55.9-25-55.9-56V601.2c0-30.9 25-56 55.9-56s56 25 56 56zm-391.6-56c-30.9 0-56 25-56 56V713c0 30.9 25 56 56 56 30.9 0 55.9-25 55.9-56V601.2c0-31-25.1-56-55.9-56z" id="Layer_5"/>
    <g id="STROKES">
        <g id="XMLID_1_">
            <path class="st2" d="M1554.4 1108.6c0 328.3-266.1 594.4-594.4 594.4s-594.4-266.1-594.4-594.4V811.4C365.6 483.1 631.7 217 960 217s594.4 266.1 594.4 594.4v297.2z"/>
            <path class="st1" d="M736.2 601.2c0-30.9 25-56 56-56 30.9 0 55.9 25 55.9 56V713c0 30.9-25 56-55.9 56s-56-25-56-56V601.2z"/>
            <path class="st1" d="M1071.9 601.2c0-30.9 25-56 55.9-56s56 25 56 56V713c0 30.9-25.1 56-56 56s-55.9-25-55.9-56V601.2z"/>
            <path class="st1" d="M1295.7 1041.9c0 183.8-149 332.9-332.9 332.9-183.8 0-332.9-149-332.9-332.9"/>
        </g>
    </g>
</svg>
