<svg xmlns="http://www.w3.org/2000/svg" viewBox="0 0 1920 1920">
    <style>
        .st0{fill:#fff}.st1{fill:none;stroke:#000;stroke-width:50;stroke-linecap:round;stroke-linejoin:round;stroke-miterlimit:10}
    </style>
    <path class="st0" d="M633.5 1419.1H219l278.4-124.6c23.8 64.3 69.4 114.5 136.1 124.6zm744.1-655.8l-64.1-100.5-.5.3s80.4 146.8 64 228c-42 208-150.6 192.3-150.6 192.3-31.8 43.3-133.6 161.8-336.8 229.6 0 0-38.3 91.8-190.1 106.1H1323s-40-42 6-64 222-168 196-318c-12.3-71.1 26.6-195.7 70.9-307.1l-52.7 44.5c-49.1 41.6-122.5 36.6-165.6-11.2z" id="Layer_2"/>
    <path class="st0" d="M497.4 1294.4c-35.1-94.8-23.1-220.3 38.2-293.5 108-129 405-279 645.1 51 0 0 25.6 34.8 57 15 0 0-3.6 6.1-11.2 16.5-31.8 43.3-133.6 161.8-336.8 229.6 0 0-38.3 91.8-190.1 106.1h-66.1c-66.7-10.1-112.3-60.3-136.1-124.7z" id="Layer_3"/>
    <g id="STROKES">
        <g id="XMLID_1_">
            <path class="st1" d="M497.4 1294.4c-35.1-94.8-23.1-220.3 38.2-293.5 108-129 405-279 645.1 51 0 0 25.6 34.8 57 15 0 0-3.6 6.1-11.2 16.5-31.8 43.3-133.6 161.8-336.8 229.6 0 0-38.3 91.8-190.1 106.1-12.8 1.2-26.5 1.9-41 1.9-8.7 0-17-.6-25.1-1.9-66.7-10.1-112.3-60.3-136.1-124.7z"/>
            <path class="st1" d="M889.6 1312.9c37.7-40.5 66.5-480.7-272.6-379.9"/>
            <path class="st1" d="M485 1155.1s44 100 128 60 68-174 20-186-100 24-104 72 50 34 56 12"/>
            <path class="st1" d="M497.4 1294.4L219 1419.1h1104s-40-42 6-64 222-168 196-318c-12.3-71.1 26.6-195.7 70.9-307.1 49.2-123.6 105.1-230.9 105.1-230.9"/>
            <path class="st1" d="M1213 505.1l100.5 157.7 64.1 100.5c43.2 47.8 116.5 52.8 165.7 11.2L1596 730l1.1-.9"/>
            <path class="st1" d="M1313 663.1s80.4 146.8 64 228c-42 208-150.6 192.3-150.6 192.3"/>
        </g>
    </g>
</svg>
