<svg xmlns="http://www.w3.org/2000/svg" viewBox="0 0 1920 1920">
    <style>
        .st0{fill:#fff}.st1{fill:none;stroke:#000;stroke-width:50;stroke-linecap:round;stroke-linejoin:round;stroke-miterlimit:10}
    </style>
    <path class="st0" d="M1408.6 1156.9c93.3 29.2 143.2 64 144.1 64.6-23.9-1.5-50.7 1.7-91.2 11.8-82.3 20.6-100 5.9-179.4-11.8-79.4-17.6-126.5 73.5-185.3 67.6s-55.9-61.8-102.9-61.8H869.6c8.4-6.3 16.4-13.3 24-20.9 19.2-19.2 33.2-41.5 42.1-65.4l.9.3c48.9 3.5 90.1 2.4 124.8-1.9 47.1 26.5 100.2 29.1 179.6 11.5 79.4-17.5 73.5-23.4 167.6 6zm-838.2 49.7c-33.6-33.6-57.1-73.5-70.5-115.9 0 0-135.3 142.7-282.4 142.7h385c-11.3-7.8-22-16.8-32.1-26.8z" id="Layer_5"/>
    <path class="st0" d="M935.7 1141.2c-8.9 23.9-22.9 46.2-42.1 65.4-7.6 7.6-15.7 14.6-24 20.9-78.5 59.3-186.6 61.3-267 5.9-11.3-7.8-22.1-16.7-32.2-26.8-33.6-33.6-57.1-73.5-70.5-115.9-31-98.4-7.5-210.2 70.5-288.1 139.5-139.5 365.6-139.5 505 0 33.2 33.8 60.8 74.8 74.4 101.5 41.1 80.8 97.1 79.4 97.1 79.4s.8 8.6-1.4 21.7c-6.2 38.4-37.2 116-184.1 134.5-34.7 4.4-75.9 5.5-124.8 1.9l-.9-.4z" id="Layer_6"/>
    <path class="st0" d="M1552.7 1221.5c-.8-.6-50.8-35.5-144.1-64.6-94.1-29.4-88.2-23.5-167.6-5.9-79.4 17.7-132.5 15-179.6-11.5 146.8-18.5 177.8-96.1 184.1-134.5 0 0 133.7 34.2 219 34.2 40.3 0 67.5-4.6 90.2-8.8 25.3-4.7 45.2-9 71.5-5.9 81.2 71 118.9 251.1 2.9 214.7-30-9.4-51.6-16.1-76.4-17.7z" id="Layer_7"/>
    <g id="STROKES">
        <g id="XMLID_1_">
            <path class="st1" d="M602.6 1233.4c-11.3-7.8-22.1-16.7-32.2-26.8-33.6-33.6-57.1-73.5-70.5-115.9-31-98.4-7.5-210.2 70.5-288.1 139.5-139.5 365.6-139.5 505 0 33.2 33.8 60.8 74.8 74.4 101.5 41.1 80.8 97.1 79.4 97.1 79.4s.8 8.6-1.4 21.7c-6.2 38.4-37.2 116-184.1 134.5-34.7 4.4-75.9 5.5-124.8 1.9"/>
            <path class="st1" d="M819.2 1007.6c29.2 29.2 29.2 76.7 0 105.9-36.6 36.6-95.8 36.6-132.4 0-45.7-45.7-45.7-119.8 0-165.5 57.1-57.1 149.7-57.1 206.9 0 52.2 52.2 66.2 128.2 42.1 193.2-8.9 23.9-22.9 46.2-42.1 65.4-7.6 7.6-15.7 14.6-24 20.9-78.5 59.3-186.6 61.3-267 5.9"/>
            <path class="st1" d="M499.9 1090.7s-135.3 142.7-282.4 142.7h385"/>
            <path class="st1" d="M1552.7 1221.6c24.8 1.6 46.3 8.2 76.5 17.7 116 36.4 78.3-143.7-2.9-214.7-62.7-54.8 79.4-397 70.6-394.1"/>
            <path class="st1" d="M866.9 1227.5h127c47.1 0 44.1 55.9 102.9 61.8s105.9-85.3 185.3-67.6c79.4 17.7 97 32.3 179.4 11.8 40.4-10.1 67.3-13.3 91.2-11.8"/>
            <path class="st1" d="M1245.5 1005.1s133.7 34.2 219 34.2c40.3 0 67.5-4.6 90.2-8.8 25.3-4.7 45.2-9 71.5-5.9"/>
            <path class="st1" d="M1523.3 721.7c-32.4 61.7 1.1 222.4 31.4 308.8 10.5 29.9 20.6 51 27.4 55.9"/>
            <path class="st1" d="M1552.7 1221.6c-.8-.6-50.8-35.5-144.1-64.6-94.1-29.4-88.2-23.5-167.6-5.9-79.4 17.7-132.5 15-179.6-11.5"/>
        </g>
    </g>
</svg>
