<svg xmlns="http://www.w3.org/2000/svg" viewBox="0 0 1920 1920">
    <style>
        .st0{fill:#fff}.st1{fill:none;stroke:#000;stroke-width:50;stroke-linecap:round;stroke-linejoin:round;stroke-miterlimit:10}
    </style>
    <g id="Layer_8">
        <path class="st0" d="M425.8 559.5h-31.4V350.2c0-38.1 22.8-72.4 57.9-87.2l113-47.5v344H425.8zm1049 191.8h-82.6c20 38 31 79.7 31 123.5 0 49.5-14.1 96.3-39.2 138.1h90.8c28.1 0 50.8-22.8 50.8-50.8v-160c0-28.1-22.8-50.8-50.8-50.8zm-847 123.5c0-43.8 11-85.5 31-123.5h-81.1c-28.1 0-50.8 22.8-50.8 50.8v160c0 28.1 22.8 50.8 50.8 50.8H667c-25.1-41.8-39.2-88.7-39.2-138.1z"/>
        <path class="st0" d="M921.6 1456.6c0 68.5-27.8 130.4-72.6 175.3-44.9 44.9-106.8 72.6-175.3 72.6-136.9 0-247.9-111-247.9-247.9V559.5h98.8v899c0 79.5 64.4 143.9 143.9 143.9 39.7 0 75.7-16.1 101.8-42.1 26-26 42.1-62 42.1-101.8v-48c16.9 10.5 36.8 16.5 58.1 16.5 18.4 0 35.8-4.5 51.1-12.5v42.1z"/>
    </g>
    <path class="st0" d="M1025.5 633C1239 633 1412 740.7 1412 873.6s-173.1 240.6-386.5 240.6C812 1114.2 639 1006.5 639 873.6S812 633 1025.5 633z" id="Layer_9"/>
    <path class="st0" d="M1383.9 1012.9c-64.2 106.8-200.6 180.4-358.4 180.4s-294.2-73.7-358.5-180.4c-25.1-41.8-39.2-88.6-39.2-138.1 0-43.8 11-85.5 31-123.5 60.2-114.6 201.7-195 366.7-195s306.5 80.5 366.7 195c20 38 31 79.7 31 123.5 0 49.4-14.1 96.3-39.3 138.1zm28.1-139.3c0-132.9-173-240.6-386.5-240.6S639 740.7 639 873.6s173.1 240.6 386.5 240.6c213.5 0 386.5-107.7 386.5-240.6z" id="Layer_10"/>
    <g id="STROKES">
        <path class="st1" d="M425.8 559.5v897.1c0 136.9 111 247.9 247.9 247.9 68.5 0 130.4-27.8 175.3-72.6 44.8-44.9 72.6-106.8 72.6-175.3v-42.1"/>
        <path class="st1" d="M981 1316.5c0 42.6-24.1 79.5-59.4 97.9-15.3 8-32.6 12.5-51.1 12.5-21.3 0-41.2-6-58.1-16.5-31.4-19.5-52.3-54.2-52.3-93.9"/>
        <path class="st1" d="M1392.2 751.3c20 38 31 79.7 31 123.5 0 49.5-14.1 96.3-39.2 138.1-64.2 106.8-200.6 180.4-358.4 180.4s-294.2-73.7-358.5-180.4c-25.1-41.8-39.2-88.6-39.2-138.1 0-43.8 11-85.5 31-123.5 60.2-114.6 201.7-195 366.7-195s306.4 80.4 366.6 195z"/>
        <path class="st1" d="M1412 873.6c0 132.9-173.1 240.6-386.5 240.6-213.5 0-386.5-107.7-386.5-240.6S812 633 1025.5 633 1412 740.7 1412 873.6z"/>
        <path class="st1" d="M1209.8 1078.2s-93-41.8-118.6-109.3c-7.2-18.9-15.5-33.1-23.9-43.6-21.5-27.4-62.9-27.3-84.1.3-8.1 10.5-16.3 24.6-23.4 43.3-25.6 67.4-118.6 109.3-118.6 109.3"/>
        <path class="st1" d="M663 751.3h-85.3c-28.1 0-50.8 22.8-50.8 50.8v160c0 28.1 22.8 50.8 50.8 50.8h92.2"/>
        <path class="st1" d="M1389.6 751.3h85.2c28.1 0 50.8 22.8 50.8 50.8v160c0 28.1-22.8 50.8-50.8 50.8h-92.1"/>
        <path class="st1" d="M425.8 559.5h-31.4V350.2c0-38.1 22.8-72.4 57.9-87.2l113-47.5v344H425.8z"/>
        <path class="st1" d="M524.6 559.5v899c0 79.5 64.4 143.9 143.9 143.9 39.7 0 75.7-16.1 101.8-42.1 26-26 42.1-62 42.1-101.8v-48"/>
        <path class="st1" d="M522.5 831.5h-89.7"/>
        <path class="st1" d="M522.5 921.2h-89.7"/>
    </g>
</svg>
