<svg xmlns="http://www.w3.org/2000/svg" viewBox="0 0 1920 1920">
    <style>
        .st0{fill:#fff}.st1{fill:none;stroke:#000;stroke-width:50;stroke-linecap:round;stroke-linejoin:round;stroke-miterlimit:10}
    </style>
    <path class="st0" d="M1413.8 932.3v105.4H1207l147.5 122.9-28 120.8-265-227.7 121.3-121.4h231zm-684.6 444.1l-60.3-60.3c-1.7-1.7-3.6-3-5.6-4-7.4-3.5-16.4-2.1-22.5 4l-156 155.9c-24.4 24.4-24.4 64 0 88.5 24.4 24.4 64 24.4 88.5 0l155.9-155.9c6.1-6.1 7.4-15.1 4-22.5-1-2.1-2.4-4-4-5.7zm-78.7-444.1H413v105.4h524.7L1043 932.3H650.5z" id="Layer_5"/>
    <path class="st0" d="M1704.1 411.2L1183 932.3l-121.3 121.4L733.2 1382h-.1c-1-2-2.3-3.9-4-5.6l-60.3-60.3c-1.7-1.7-3.6-3-5.6-4v-.1l274.4-274.4L1043 932.3l591.1-591.1 70 70zM349.3 1228.6l-72 12.3 32.5 62.4 70.1 12.2c37 6.5 75.1 1.3 108.9-15.2 13.4-6.6 63.4-41.8 84.4-47.5 65.8-17.6 84-215.1 84-215.1H456.5l-107.2 190.9zm180-432.4c-70.2-11-101-41.7-101-41.7L372 813.4l84.4 118.9h194c.1 0-50.9-125.1-121.1-136.1z" id="Layer_6"/>
    <path class="st0" d="M372 813.4l84.4 118.9H413v105.4h43.5l-107.1 190.9-72 12.3-31.1 5.3c-68-237.1 0-489.5 0-489.5h85.6l40.1 56.7z" id="Layer_7"/>
    <g id="STROKES">
        <path class="st1" d="M663.2 1312.1l274.4-274.4L1043 932.3l591.1-591.1 70 70-521.2 521.1-121.3 121.4L733.2 1382"/>
        <path class="st1" d="M733.1 1382.1c3.5 7.4 2.1 16.4-4 22.5l-155.9 155.9c-24.4 24.4-64 24.4-88.5 0-24.4-24.4-24.4-64 0-88.5l155.9-155.9c6.1-6.1 15.1-7.4 22.5-4 2 1 3.9 2.3 5.6 4l60.3 60.3c1.8 1.7 3.2 3.6 4.1 5.7z"/>
        <path class="st1" d="M1507.5 472.3l66 65.9"/>
        <path class="st1" d="M1448.1 531.7l66 65.9"/>
        <path class="st1" d="M1388.8 591l65.9 66"/>
        <path class="st1" d="M1043 932.3H413v105.4h524.6"/>
        <path class="st1" d="M1061.6 1053.7l265 227.6 28-120.7-147.6-122.9h206.8V932.3h-230.9"/>
        <path class="st1" d="M456.5 1037.7l-107.1 190.9-72 12.3-31.1 5.3c-68-237.1 0-489.5 0-489.5h85.6l40.2 56.7 84.4 118.9"/>
        <path class="st1" d="M277.3 1240.9l32.5 62.4 70.1 12.2c37 6.5 75.1 1.3 108.9-15.2 13.4-6.6 63.4-41.8 84.4-47.5 65.8-17.6 84-215.1 84-215.1"/>
        <path class="st1" d="M650.5 932.3s-50.9-125.1-121.2-136.1c-70.2-11-101-41.7-101-41.7L372 813.4l-.7.7"/>
    </g>
</svg>
