<svg xmlns="http://www.w3.org/2000/svg" viewBox="0 0 1920 1920">
    <style>
        .st0{fill:#fff}.st1{fill:none;stroke:#000;stroke-width:50;stroke-linecap:round;stroke-linejoin:round;stroke-miterlimit:10}
    </style>
    <path class="st0" d="M623.3 1025c-17.6-49.7-.4-110.7 35.8-136.5 1-.7 1.9-1.4 2.9-2 11-7.1 26.2-13.5 44.1-19.4 68.6-22.5 175.2-35.6 223.4-35.6H959c51.8 0 171.1 15.2 238.1 40.8 11.6 4.4 21.6 9.2 29.4 14.2 53.1 34.2 68.3 142.3 0 189.7-68.3 47.4-155.6 37.9-210.6-38-11.8-16.3-22-28.7-30.6-38-22.8-24.7-35.3-28.5-40.5-28.7h-1.1c-5.2.2-18 4.2-41.5 29.9-8.4 9.2-18.2 21.2-29.6 36.9-55 75.9-142.3 85.4-210.6 38-19.1-13.3-31.6-31.4-38.7-51.3z" id="Layer_2"/>
    <path class="st0" d="M1254.2 357.5l45.5 98.4-15 6.3-81.5 34.1-30.6 12.8-127.1-292.2 51.1 12c69.4 16.2 127.6 63.7 157.6 128.6zM989 1476.9l-129.2 57.2-14.2 6.3a96.069 96.069 0 0 0-55.7 76.1l-10.6 86.7 306.7-148.3-1.2-2.5s-82.1-37-95.8-75.5zm123.7-696.7c-21.1-11.4-142.5-24.5-155.6-23.4h-25.6c-13.1-1.1-115.6 12.8-139.3 16.4-19.9 3-38.3 32.1-52.3 46.6l-33.7 47.3c68.6-22.5 175.2-35.6 223.4-35.6H959c51.8 0 171.1 15.2 238.1 40.8l-32.1-37.5c-14-14.5-30.3-42.7-52.3-54.6zm-168.4 371.7c-43.9.2-109.8 28.3-174.1 21.2-68.3-7.6-108.1-96.8-108.1-96.8 68.3 47.4 155.6 37.9 210.6-38 11.3-15.7 21.2-27.7 29.6-36.9v83c7.1.5 33.7 22.3 83 0v-84.1c8.6 9.4 18.8 21.7 30.6 38 55 75.9 142.3 85.4 210.6 38 0 0-39.9 89.2-108.2 96.8-64.1 7.1-130.1-21-174-21.2z" id="Layer_3"/>
    <path class="st0" d="M1259 1238.6l29.5-522.7c2.3-41-7.2-81.7-27.5-117.4l-58-102.3 81.5-34.1 60.2 99.8c22.5 37.2 33.1 80.4 30.4 123.8l-39.8 635.9c-4.5 71.3-46.7 134.7-110.7 166.4l-138.5 67-1.2-2.5s-82.1-37-95.8-75.5l153.4-68c67.4-30.8 112.3-96.4 116.5-170.4zm-271.9 229.6v-62.6c-17 14.6-39.5 23.4-64 23.4-24.6 0-47-8.9-64-23.4v126.8l.8 1.7 129.2-57.2c-1.1-2.9-1.8-5.8-2-8.7zM544.5 925v63.5c0 20.2 16.3 36.5 36.5 36.5h42.3c-17.6-49.7-.4-110.7 35.8-136.5H581c-20.2 0-36.5 16.4-36.5 36.5z" id="Layer_4"/>
    <g id="Layer_11">
        <circle class="st0" cx="633.1" cy="716.8" r="40.5"/>
        <circle class="st0" cx="645.1" cy="1264.3" r="40.5"/>
        <circle class="st0" cx="758.1" cy="521.3" r="51"/>
        <path class="st0" d="M654.7 346.7c0 30.4-24.7 55.1-55.1 55.1s-55.1-24.7-55.1-55.1c0-30.4 24.7-55.1 55.1-55.1s55.1 24.6 55.1 55.1z"/>
    </g>
    <path class="st0" d="M985.3 1084.4c-49.3 22.3-75.9.5-83 0v-83c23.5-25.7 36.2-29.6 41.5-29.9h1.1c5.2.2 17.6 4 40.5 28.7v84.2z" id="Layer_12"/>
    <g id="STROKES">
        <path class="st1" d="M943.8 971.6c-1.3.1-1.8.4-1.8.4"/>
        <path class="st1" d="M706.2 867.1c68.6-22.5 175.2-35.6 223.4-35.6H959c51.8 0 171.1 15.2 238.1 40.8 11.6 4.4 21.6 9.2 29.4 14.2 53.1 34.2 68.3 142.3 0 189.7-68.3 47.4-155.6 37.9-210.6-38-11.8-16.3-22-28.7-30.6-38-22.8-24.7-35.3-28.5-40.5-28.7"/>
        <path class="st1" d="M659.2 888.5c1-.7 1.9-1.4 2.9-2 11-7.1 26.2-13.5 44.1-19.4"/>
        <path class="st1" d="M946.7 971.9s-.6-.3-1.8-.4h-1.1c-5.2.2-18 4.2-41.5 29.9-8.4 9.2-18.2 21.2-29.6 36.9-55 75.9-142.3 85.4-210.6 38-19.2-13.3-31.7-31.4-38.8-51.2-17.6-49.7-.4-110.7 35.8-136.5"/>
        <path class="st1" d="M662.1 1076.3s39.8 89.2 108.1 96.8c64.2 7.1 130.2-21 174.1-21.2 2.8 0 5.5.1 8.1.3"/>
        <path class="st1" d="M659.2 888.5H581c-20.2 0-36.5 16.4-36.5 36.5v63.5c0 20.2 16.3 36.5 36.5 36.5h42.3"/>
        <path class="st1" d="M1226.6 1076.3s-39.9 89.2-108.2 96.8c-64.2 7.1-130.2-21-174.1-21.2-2.8 0-5.5.1-8.1.3"/>
        <path class="st1" d="M1197.1 872.3l-32.1-37.5c-14-14.5-30.3-42.7-52.3-54.7-21.1-11.4-142.5-24.5-155.6-23.4h-25.6c-13.1-1.1-115.6 12.8-139.3 16.4-19.9 3-38.3 32.1-52.3 46.6L706.2 867"/>
        <path class="st1" d="M1284.6 462.1l15-6.3-45.5-98.4c-30-64.9-88.2-112.3-157.7-128.7l-51.1-12L1172.5 509l30.6-12.8 81.5-34.1z"/>
        <path class="st1" d="M1203 496.2l57.9 102.3c20.3 35.7 29.8 76.4 27.5 117.4l-29.5 522.7c-4.2 74-49.1 139.6-116.6 170.4l-153.4 68-129.2 57.2-14.2 6.3a96.069 96.069 0 0 0-55.7 76.1l-10.6 86.7 306.7-148.3 138.5-67c64-31.7 106.2-95.1 110.7-166.4l39.8-635.9c2.7-43.4-7.9-86.6-30.4-123.8l-60.2-99.8"/>
        <path class="st1" d="M1286.3 787.9l75.9 11.4"/>
        <path class="st1" d="M859 1532.5v-126.8"/>
        <path class="st1" d="M987.1 1404.7v63.6c.2 2.9.8 5.8 1.9 8.7 13.7 38.5 95.8 75.5 95.8 75.5"/>
        <path class="st1" d="M1019.4 1336.6c0 27.5-12.5 52.1-32.2 69.1-17 14.6-39.5 23.4-64 23.4-24.6 0-47-8.9-64-23.4-19.8-16.9-32.3-41.6-32.3-69.1"/>
        <path class="st1" d="M902.3 1001.4v83c7.1.5 33.7 22.3 83 0v-84.1"/>
        <circle class="st1" cx="633.1" cy="716.8" r="40.5"/>
        <circle class="st1" cx="645.1" cy="1264.3" r="40.5"/>
        <circle class="st1" cx="758.1" cy="521.3" r="51"/>
        <path class="st1" d="M654.7 346.7c0 30.4-24.7 55.1-55.1 55.1s-55.1-24.7-55.1-55.1c0-30.4 24.7-55.1 55.1-55.1s55.1 24.6 55.1 55.1z"/>
    </g>
</svg>
