<svg xmlns="http://www.w3.org/2000/svg" viewBox="0 0 1920 1920">
    <style>
        .st0{fill:#fff}.st1{fill:none;stroke:#000;stroke-width:50;stroke-linecap:round;stroke-linejoin:round;stroke-miterlimit:10}
    </style>
    <path class="st0" d="M469 1704.1s90-62.8 102-278.8c8.4-151.2 10.9-278.9 44.6-372.7 14.4-40.2 34.6-74.2 63.4-101.2 96-90 102.5-102.4 102.5-102.4v-.2c1.4.1 2.8.2 4.2.2h96.5s146.5 84.1 164.4 233.4c8.9 74.3 28.6 140.7 69.1 154l106.8-89.9s-45.1-59.3-51.5-82.8c-6.4-23.5-14-70.6-28.3-101.1-16.8-35.7-79.6-112.3-79.6-112.3V849h54c3.2 0 6.4-.4 9.4-1.1 0 0 6.4 13.6 102.4 103.5 29.6 27.7 50 62.8 64.5 104.4 32.6 93.5 35.2 220 43.5 369.5 12 216 102 278.8 102 278.8H469zm551.6-666.4c0-38.2-31-69.2-69.2-69.2s-69.2 31-69.2 69.2 31 69.2 69.2 69.2 69.2-31 69.2-69.2zm0 238.2c0-38.2-31-69.2-69.2-69.2s-69.2 31-69.2 69.2 31 69.2 69.2 69.2 69.2-31 69.2-69.2zm0 238.2c0-38.2-31-69.2-69.2-69.2s-69.2 31-69.2 69.2 31 69.2 69.2 69.2 69.2-31 69.2-69.2z" id="Layer_8"/>
    <path class="st0" d="M951.4 1445c38.2 0 69.2 31 69.2 69.2s-31 69.2-69.2 69.2-69.2-31-69.2-69.2 31-69.2 69.2-69.2zm-69.2-169.1c0 38.2 31 69.2 69.2 69.2s69.2-31 69.2-69.2-31-69.2-69.2-69.2c-38.2.1-69.2 31-69.2 69.2zm0-238.2c0 38.2 31 69.2 69.2 69.2s69.2-31 69.2-69.2-31-69.2-69.2-69.2c-38.2.1-69.2 31-69.2 69.2z" id="Layer_9"/>
    <path class="st0" d="M1158 760.8v47.3c0 19.3-13.4 35.5-31.4 39.7-3 .7-6.2 1.1-9.4 1.1H785.7c-1.4 0-2.8-.1-4.2-.2-20.6-2.1-36.6-19.5-36.6-40.6v-47.3c0-22.5 18.3-40.8 40.8-40.8h331.5c22.5-.1 40.8 18.2 40.8 40.8zm13 302.8c-6.4-23.5-14-70.6-28.3-101.1-16.8-35.7-79.6-112.3-79.6-112.3v-1.3H882.2s146.5 84.1 164.4 233.4c8.9 74.3 28.6 140.7 69.1 154l106.8-89.9s-45-59.3-51.5-82.8z" id="Layer_10"/>
    <path class="st0" d="M1198.1 258.7c36.6 0 66.2 29.6 66.2 66.2s-29.6 66.2-66.2 66.2-66.2-29.6-66.2-66.2 29.7-66.2 66.2-66.2zM756.2 484.5c15.6-12.7 32.1-23.1 49-31.6 101.5-50.9 219.7-31.5 277.9-14.7 15.8 4.5 27.1 8.9 32.6 11.6-15.4-15.5-73.9-92.9-65.5-138.6 9.7-52.6 93.4-27.2 93.4-27.2s-11.7-63.5-144-66.2c-194.1-3.9-243.4 266.7-243.4 266.7z" id="Layer_11"/>
    <path class="st0" d="M805.2 452.9c101.5-50.9 219.7-31.5 277.9-14.7 39.1 35.5 63.7 86.5 64.2 143.4v1.7c0 53.2 7.1 101.4-27.3 136.7H785.7c-34.4-35.3-30.1-83.5-30.1-136.7-.1-50.1 18.7-95.8 49.6-130.4zm232.1 169.8c0-2.1-1.7-3.7-3.7-3.7-2.1 0-3.7 1.7-3.7 3.7 0 2.1 1.7 3.7 3.7 3.7 2 .1 3.7-1.6 3.7-3.7zm-19.2-115.9c0-2.1-1.7-3.7-3.7-3.7-2.1 0-3.7 1.7-3.7 3.7 0 2.1 1.7 3.7 3.7 3.7 2.1 0 3.7-1.6 3.7-3.7zm-23.8 179.5c0-2.1-1.7-3.7-3.7-3.7-2.1 0-3.7 1.7-3.7 3.7 0 2.1 1.7 3.7 3.7 3.7s3.7-1.7 3.7-3.7zm-84.1 0c0-2.1-1.7-3.7-3.7-3.7-2.1 0-3.7 1.7-3.7 3.7 0 2.1 1.7 3.7 3.7 3.7s3.7-1.7 3.7-3.7zm-18-179.5c0-2.1-1.7-3.7-3.7-3.7-2.1 0-3.7 1.7-3.7 3.7 0 2.1 1.7 3.7 3.7 3.7s3.7-1.6 3.7-3.7zm-32.5 115.9c0-2.1-1.7-3.7-3.7-3.7-2.1 0-3.7 1.7-3.7 3.7 0 2.1 1.7 3.7 3.7 3.7 2 .1 3.7-1.6 3.7-3.7z" id="Layer_6"/>
    <g id="STROKES">
        <path class="st1" d="M882.2 848.9s146.5 84.1 164.4 233.4c8.9 74.3 28.6 140.7 69.1 154l106.8-89.9s-45.1-59.3-51.5-82.8c-6.4-23.5-14-70.6-28.3-101.1-16.8-35.7-79.6-112.3-79.6-112.3"/>
        <path class="st1" d="M1115.8 1236.3l57 65"/>
        <path class="st1" d="M1174.4 1189.5l64.7 64.2"/>
        <path class="st1" d="M1222.5 1146.4l67.9 45.2"/>
        <path class="st1" d="M892.2 506.8c0 2.1-1.7 3.7-3.7 3.7-2.1 0-3.7-1.7-3.7-3.7 0-2.1 1.7-3.7 3.7-3.7s3.7 1.7 3.7 3.7z"/>
        <path class="st1" d="M1018.1 506.8c0 2.1-1.7 3.7-3.7 3.7-2.1 0-3.7-1.7-3.7-3.7 0-2.1 1.7-3.7 3.7-3.7 2.1 0 3.7 1.7 3.7 3.7z"/>
        <path class="st1" d="M859.7 622.7c0 2.1-1.7 3.7-3.7 3.7-2.1 0-3.7-1.7-3.7-3.7 0-2.1 1.7-3.7 3.7-3.7s3.7 1.7 3.7 3.7z"/>
        <path class="st1" d="M1037.3 622.7c0 2.1-1.7 3.7-3.7 3.7-2.1 0-3.7-1.7-3.7-3.7 0-2.1 1.7-3.7 3.7-3.7s3.7 1.7 3.7 3.7z"/>
        <path class="st1" d="M910.2 686.3c0 2.1-1.7 3.7-3.7 3.7-2.1 0-3.7-1.7-3.7-3.7 0-2.1 1.7-3.7 3.7-3.7 2-.1 3.7 1.6 3.7 3.7z"/>
        <path class="st1" d="M994.3 686.3c0 2.1-1.7 3.7-3.7 3.7-2.1 0-3.7-1.7-3.7-3.7 0-2.1 1.7-3.7 3.7-3.7 2-.1 3.7 1.6 3.7 3.7z"/>
        <path class="st1" d="M950.5 581.6h239.3"/>
        <path class="st1" d="M1020.6 1037.7c0 38.2-31 69.2-69.2 69.2s-69.2-31-69.2-69.2 31-69.2 69.2-69.2c38.2.1 69.2 31 69.2 69.2z"/>
        <circle class="st1" cx="951.4" cy="1275.9" r="69.2"/>
        <circle class="st1" cx="951.4" cy="1514.1" r="69.2"/>
        <path class="st1" d="M1239 1073l54.5-17.2 140.1-44.2 86-102.8-13-101"/>
        <path class="st1" d="M1519.6 908.8l108.5-37.4"/>
        <path class="st1" d="M657 1069l-41.4-16.4-206.4-82.2L454 863.9l-65.4-67.3"/>
        <path class="st1" d="M525.1 774.2L454 863.9"/>
        <path class="st1" d="M805.2 452.9c-30.9 34.6-49.7 80.3-49.7 130.4 0 53.2-4.2 101.4 30.1 136.7"/>
        <path class="st1" d="M1117.2 719.9h2.8c34.4-35.3 27.3-83.5 27.3-136.7v-1.7c-.5-56.8-25.1-107.9-64.2-143.4"/>
        <path class="st1" d="M1119.3 452.4c0-.4-1.3-1.3-3.6-2.5 2.2 2.3 3.6 3.2 3.6 2.5z"/>
        <path class="st1" d="M1115.7 449.9c-15.4-15.5-73.9-92.9-65.5-138.6 9.7-52.6 93.4-27.2 93.4-27.2s-11.7-63.5-144-66.2C805.5 214 756.3 484.6 756.3 484.6c15.6-12.7 32.1-23.1 49-31.6 101.5-50.9 219.7-31.5 277.9-14.7 15.6 4.5 27 8.8 32.5 11.6z"/>
        <path class="st1" d="M1117.2 719.9H785.7c-22.5 0-40.8 18.3-40.8 40.8V808c0 21.1 16.1 38.5 36.6 40.6 1.4.1 2.8.2 4.2.2h331.4c3.2 0 6.4-.4 9.4-1.1 18-4.2 31.4-20.4 31.4-39.7v-47.3c.1-22.5-18.2-40.8-40.7-40.8z"/>
        <ellipse class="st1" cx="1198.1" cy="324.9" rx="66.2" ry="66.2"/>
        <path class="st1" d="M781.5 848.9S775 861.4 679 951.3c-28.8 27-48.9 61-63.4 101.2-33.7 93.8-36.2 221.5-44.6 372.7-12 216-102 278.8-102 278.8h970s-90-62.8-102-278.8c-8.3-149.5-10.9-275.9-43.5-369.5-14.5-41.6-34.9-76.7-64.5-104.4-96-90-102.4-103.5-102.4-103.5"/>
    </g>
</svg>
