<svg xmlns="http://www.w3.org/2000/svg" viewBox="0 0 1920 1920">
    <style>
        .st0{fill:#fff}.st1{fill:none;stroke:#000;stroke-width:50;stroke-linecap:round;stroke-linejoin:round;stroke-miterlimit:10}
    </style>
    <path class="st0" d="M1095.6 1130.2c125.5 45.2 213.7 151.2 213.7 274.8 0 164.6-156.3 298.1-349.2 298.1S610.8 1569.6 610.8 1405c0-123.6 88.1-229.6 213.7-274.8 39.8 19.9 86.1 31.2 135.5 31.2s95.7-11.4 135.6-31.2zm-85.5 209.2c0-25-20.2-45.2-45.2-45.2-25 0-45.2 20.2-45.2 45.2 0 25 20.3 45.2 45.2 45.2 24.9 0 45.2-20.2 45.2-45.2zm0 165.1c0-25-20.2-45.2-45.2-45.2-25 0-45.2 20.2-45.2 45.2 0 25 20.3 45.2 45.2 45.2 24.9 0 45.2-20.2 45.2-45.2zm-309-635.3c23.7-71.5 86.9-128.9 168.3-153.7 24.6 20.4 56.2 32.7 90.6 32.7s66-12.3 90.6-32.7c88.8 27.1 156.1 93 173.8 173.7 3 13.8 4.6 28 4.6 42.6 0 84.6-53.7 158.6-133.5 198.4-39.8 19.9-86.1 31.2-135.6 31.2s-95.7-11.4-135.5-31.2C744.6 1090.3 691 1016.4 691 931.8c0-21.7 3.5-42.7 10.1-62.6zm309-6c0-25-20.2-45.2-45.2-45.2-25 0-45.2 20.2-45.2 45.2 0 25 20.3 45.2 45.2 45.2 24.9 0 45.2-20.2 45.2-45.2zm0 161.9c0-25-20.2-45.2-45.2-45.2-25 0-45.2 20.3-45.2 45.2 0 25 20.3 45.2 45.2 45.2 24.9 0 45.2-20.2 45.2-45.2zm85.2-375.7c4.4-13.7 6.7-28.2 6.7-43.3 0-35.1-12.7-67.2-33.8-92H851.8c-21.1 24.8-33.8 56.9-33.8 92 0 44 20 83.3 51.4 109.4 24.6 20.4 56.2 32.7 90.6 32.7s66-12.3 90.6-32.7c16.4-13.6 29.7-30.8 38.7-50.5 2.3-5.1 4.3-10.3 6-15.6z" id="Layer_4"/>
    <g id="Layer_5">
        <path class="st0" d="M964.8 818c25 0 45.2 20.2 45.2 45.2 0 25-20.2 45.2-45.2 45.2-25 0-45.2-20.2-45.2-45.2 0-25 20.3-45.2 45.2-45.2zm-45.2 207.1c0 25 20.3 45.2 45.2 45.2 25 0 45.2-20.2 45.2-45.2 0-25-20.2-45.2-45.2-45.2-24.9 0-45.2 20.2-45.2 45.2zm0 314.3c0 25 20.3 45.2 45.2 45.2 25 0 45.2-20.2 45.2-45.2 0-25-20.2-45.2-45.2-45.2-24.9 0-45.2 20.2-45.2 45.2zm0 165.1c0 25 20.3 45.2 45.2 45.2 25 0 45.2-20.2 45.2-45.2 0-25-20.2-45.2-45.2-45.2-24.9-.1-45.2 20.2-45.2 45.2z"/>
        <path class="st0" d="M847.3 279.1h225.4v234.1H847.3z"/>
    </g>
    <g id="STROKES">
        <path class="st1" d="M737 513.2h446"/>
        <path class="st1" d="M824.5 1130.2C699 1175.4 610.8 1281.4 610.8 1405c0 164.6 156.4 298.1 349.2 298.1s349.2-133.5 349.2-298.1c0-123.6-88.1-229.6-213.7-274.8"/>
        <path class="st1" d="M869.4 715.5c-81.4 24.8-144.6 82.2-168.3 153.7-6.6 19.9-10.1 40.9-10.1 62.5 0 84.6 53.6 158.6 133.5 198.4 39.8 19.9 86.1 31.2 135.5 31.2s95.7-11.4 135.6-31.2c79.8-39.8 133.5-113.8 133.5-198.4 0-14.6-1.6-28.8-4.6-42.6-17.7-80.7-85-146.6-173.8-173.7"/>
        <path class="st1" d="M1068.2 514H851.8c-21.1 24.8-33.8 56.9-33.8 92 0 44 20 83.3 51.4 109.4 24.6 20.4 56.2 32.7 90.6 32.7s66-12.3 90.6-32.7c16.4-13.6 29.7-30.8 38.7-50.5 2.3-5 4.3-10.2 6-15.6 4.4-13.7 6.7-28.2 6.7-43.3.1-35-12.7-67.2-33.8-92z"/>
        <path class="st1" d="M1068.2 514h4.5V279.1H847.3V514h4.5"/>
        <path class="st1" d="M765.4 876.5l-64.3-7.3-160.3-18.1-57.1-92.6-64.5-16.5"/>
        <path class="st1" d="M556.2 683.3l-72.5 75.2"/>
        <path class="st1" d="M1153 925.3l71.4-36.1 93.6-47.4 37.9-162.3-41.6-61.4"/>
        <path class="st1" d="M1489.7 626.4l-133.8 53.1"/>
        <path class="st1" d="M1010.1 1025.1c0 25-20.2 45.2-45.2 45.2-25 0-45.2-20.2-45.2-45.2 0-25 20.3-45.2 45.2-45.2 24.9 0 45.2 20.2 45.2 45.2z"/>
        <path class="st1" d="M1010.1 863.2c0 25-20.2 45.2-45.2 45.2-25 0-45.2-20.2-45.2-45.2 0-25 20.3-45.2 45.2-45.2 24.9 0 45.2 20.2 45.2 45.2z"/>
        <path class="st1" d="M1010.1 1339.4c0 25-20.2 45.2-45.2 45.2-25 0-45.2-20.2-45.2-45.2 0-25 20.3-45.2 45.2-45.2 24.9 0 45.2 20.2 45.2 45.2z"/>
        <path class="st1" d="M1010.1 1504.5c0 25-20.2 45.2-45.2 45.2-25 0-45.2-20.2-45.2-45.2 0-25 20.3-45.2 45.2-45.2 24.9-.1 45.2 20.2 45.2 45.2z"/>
        <path class="st1" d="M966.4 663.2l122.9 1.8 41.4.6-35.4-16.2-113.8-52.1"/>
    </g>
</svg>
