<svg xmlns="http://www.w3.org/2000/svg" viewBox="0 0 1920 1920">
    <style>
        .st0{fill:#fff}.st1{fill:none;stroke:#000;stroke-width:50;stroke-linecap:round;stroke-linejoin:round;stroke-miterlimit:10}
    </style>
    <path class="st0" d="M1575.2 1237l-127-73.3 66.7-17.9c36.1-9.7 57.5-46.8 47.9-82.9-9.7-36.1-46.8-57.5-82.9-47.9l-197.4 52.9-187-108 187-108 197.4 52.9c5.9 1.6 11.8 2.3 17.6 2.3 29.9 0 57.2-19.9 65.3-50.2 9.7-36.1-11.8-73.2-47.9-82.9l-66.7-17.9 127-73.3c32.4-18.7 43.5-60.1 24.8-92.4-18.7-32.4-60.1-43.5-92.4-24.8l-127 73.3 17.9-66.7c9.7-36.1-11.8-73.2-47.9-82.9-36.1-9.7-73.2 11.8-82.9 47.9l-52.9 197.4-187 108v-216l144.5-144.5c26.4-26.4 26.4-69.3 0-95.7-26.4-26.4-69.3-26.4-95.7 0l-48.8 48.8V288.7c0-37.4-30.3-67.7-67.7-67.7s-67.7 30.3-67.7 67.7v146.7l-48.8-48.8c-26.4-26.4-69.3-26.4-95.7 0-26.4 26.4-26.4 69.3 0 95.7l144.5 144.5v216l-187-108-52.9-197.4c-9.7-36.1-46.8-57.5-82.9-47.9-36.1 9.7-57.5 46.8-47.9 82.9l17.9 66.7-127-73.3c-32.4-18.7-73.8-7.6-92.4 24.8-18.7 32.4-7.6 73.8 24.8 92.4l127 73.3-66.7 17.9c-36.1 9.7-57.5 46.8-47.9 82.9 8.1 30.2 35.4 50.2 65.3 50.2 5.8 0 11.7-.8 17.6-2.3l197.3-53 187 108-187 108-197.4-52.9c-36.1-9.7-73.2 11.8-82.9 47.9-9.7 36.1 11.8 73.2 47.9 82.9l66.7 17.9-127 73.3c-32.4 18.7-43.5 60.1-24.8 92.4 12.5 21.7 35.3 33.9 58.7 33.9 11.5 0 23.1-2.9 33.8-9.1l127-73.3-17.9 66.7c-9.7 36.1 11.8 73.2 47.9 82.9 5.9 1.6 11.8 2.3 17.6 2.3 29.9 0 57.2-19.9 65.3-50.2l52.9-197.4 187-108v216l-144.5 144.5c-26.4 26.4-26.4 69.3 0 95.7 26.4 26.4 69.3 26.4 95.7 0l48.8-48.8v146.7c0 37.4 30.3 67.7 67.7 67.7s67.7-30.3 67.7-67.7v-146.7l48.8 48.8c13.2 13.2 30.5 19.8 47.9 19.8 17.3 0 34.6-6.6 47.9-19.8 26.4-26.4 26.4-69.3 0-95.7l-144.5-144.5v-216l187 108 52.9 197.4c8.1 30.2 35.4 50.2 65.3 50.2 5.8 0 11.7-.8 17.6-2.3 36.1-9.7 57.5-46.8 47.9-82.9l-17.9-66.7 127 73.3c10.7 6.2 22.3 9.1 33.8 9.1 23.4 0 46.1-12.1 58.7-33.9 18.5-32.4 7.4-73.8-25-92.5z" id="Layer_2"/>
    <path class="st1" d="M1575.2 1237l-127-73.3 66.7-17.9c36.1-9.7 57.5-46.8 47.9-82.9-9.7-36.1-46.8-57.5-82.9-47.9l-197.4 52.9-187-108 187-108 197.4 52.9c5.9 1.6 11.8 2.3 17.6 2.3 29.9 0 57.2-19.9 65.3-50.2 9.7-36.1-11.8-73.2-47.9-82.9l-66.7-17.9 127-73.3c32.4-18.7 43.5-60.1 24.8-92.4-18.7-32.4-60.1-43.5-92.4-24.8l-127 73.3 17.9-66.7c9.7-36.1-11.8-73.2-47.9-82.9-36.1-9.7-73.2 11.8-82.9 47.9l-52.9 197.4-187 108v-216l144.5-144.5c26.4-26.4 26.4-69.3 0-95.7-26.4-26.4-69.3-26.4-95.7 0l-48.8 48.8V288.7c0-37.4-30.3-67.7-67.7-67.7s-67.7 30.3-67.7 67.7v146.7l-48.8-48.8c-26.4-26.4-69.3-26.4-95.7 0-26.4 26.4-26.4 69.3 0 95.7l144.5 144.5v216l-187-108-52.9-197.4c-9.7-36.1-46.8-57.5-82.9-47.9-36.1 9.7-57.5 46.8-47.9 82.9l17.9 66.7-127-73.3c-32.4-18.7-73.8-7.6-92.4 24.8-18.7 32.4-7.6 73.8 24.8 92.4l127 73.3-66.7 17.9c-36.1 9.7-57.5 46.8-47.9 82.9 8.1 30.2 35.4 50.2 65.3 50.2 5.8 0 11.7-.8 17.6-2.3l197.3-53 187 108-187 108-197.4-52.9c-36.1-9.7-73.2 11.8-82.9 47.9-9.7 36.1 11.8 73.2 47.9 82.9l66.7 17.9-127 73.3c-32.4 18.7-43.5 60.1-24.8 92.4 12.5 21.7 35.3 33.9 58.7 33.9 11.5 0 23.1-2.9 33.8-9.1l127-73.3-17.9 66.7c-9.7 36.1 11.8 73.2 47.9 82.9 5.9 1.6 11.8 2.3 17.6 2.3 29.9 0 57.2-19.9 65.3-50.2l52.9-197.4 187-108v216l-144.5 144.5c-26.4 26.4-26.4 69.3 0 95.7 26.4 26.4 69.3 26.4 95.7 0l48.8-48.8v146.7c0 37.4 30.3 67.7 67.7 67.7s67.7-30.3 67.7-67.7v-146.7l48.8 48.8c13.2 13.2 30.5 19.8 47.9 19.8 17.3 0 34.6-6.6 47.9-19.8 26.4-26.4 26.4-69.3 0-95.7l-144.5-144.5v-216l187 108 52.9 197.4c8.1 30.2 35.4 50.2 65.3 50.2 5.8 0 11.7-.8 17.6-2.3 36.1-9.7 57.5-46.8 47.9-82.9l-17.9-66.7 127 73.3c10.7 6.2 22.3 9.1 33.8 9.1 23.4 0 46.1-12.1 58.7-33.9 18.5-32.4 7.4-73.8-25-92.5z" id="STROKES"/>
</svg>
