<svg xmlns="http://www.w3.org/2000/svg" viewBox="0 0 1920 1920">
    <style>
        .st0{fill:#fff}.st1{fill:none;stroke:#000;stroke-width:50;stroke-linecap:round;stroke-linejoin:round;stroke-miterlimit:10}
    </style>
    <g id="STROKES">
        <path class="st1" d="M960.3 217.5v1485"/>
        <path class="st1" d="M836.5 344.8l123 123"/>
        <path class="st1" d="M694.5 432.3L960 697.8"/>
        <path class="st1" d="M826 458.8v108H721"/>
        <path class="st1" d="M625.5 428.8H693v-65"/>
        <path class="st1" d="M1083.5 344.8l-123 123"/>
        <path class="st1" d="M1225.5 432.3L960 697.8"/>
        <path class="st1" d="M1094 458.8v108h105"/>
        <path class="st1" d="M1294.5 428.8H1227v-65"/>
        <path class="st1" d="M1083.5 1575.2l-123-123"/>
        <path class="st1" d="M1225.5 1487.7L960 1222.2"/>
        <path class="st1" d="M1094 1461.2v-108h105"/>
        <path class="st1" d="M1294.5 1491.2H1227v65"/>
        <path class="st1" d="M836.5 1575.2l123-123"/>
        <path class="st1" d="M694.5 1487.7L960 1222.2"/>
        <path class="st1" d="M826 1461.2v-108H721"/>
        <path class="st1" d="M625.5 1491.2H693v65"/>
        <path class="st1" d="M217.5 959.7h1485"/>
        <path class="st1" d="M344.8 1083.5l123-123"/>
        <path class="st1" d="M432.3 1225.5L697.8 960"/>
        <path class="st1" d="M458.8 1094h108v105"/>
        <path class="st1" d="M428.8 1294.5V1227h-65"/>
        <path class="st1" d="M344.8 836.5l123 123"/>
        <path class="st1" d="M432.3 694.5L697.8 960"/>
        <path class="st1" d="M458.8 826h108V721"/>
        <path class="st1" d="M428.8 625.5V693h-65"/>
        <path class="st1" d="M1575.2 836.5l-123 123"/>
        <path class="st1" d="M1487.7 694.5L1222.2 960"/>
        <path class="st1" d="M1461.2 826h-108V721"/>
        <path class="st1" d="M1491.2 625.5V693h65"/>
        <path class="st1" d="M1575.2 1083.5l-123-123"/>
        <path class="st1" d="M1487.7 1225.5L1222.2 960"/>
        <path class="st1" d="M1461.2 1094h-108v105"/>
        <path class="st1" d="M1491.2 1294.5V1227h65"/>
        <path class="st1" d="M805 804.7l310.6 310.6"/>
        <path class="st1" d="M1115.6 804.7L805 1115.3"/>
        <path class="st1" d="M803.9 694.8v108h-108"/>
        <path class="st1" d="M697.4 1114.3h108v108"/>
        <path class="st1" d="M1119.9 1222.3v-108h108"/>
        <path class="st1" d="M1226.4 802.8h-108v-108"/>
    </g>
</svg>
