<svg xmlns="http://www.w3.org/2000/svg" viewBox="0 0 1920 1920">
    <style>
        .st0{fill:#fff}.st1{fill:none;stroke:#000;stroke-width:50;stroke-linecap:round;stroke-linejoin:round;stroke-miterlimit:10}
    </style>
    <path class="st0" d="M1172.2 971.9c110.8 70.2 184.3 193.8 184.3 334.7 0 218.7-177.3 395.9-395.9 395.9-218.7 0-395.9-177.3-395.9-395.9 0-140.8 73.6-264.5 184.3-334.7 54.1 54.3 128.9 87.8 211.6 87.8 82.7 0 157.5-33.5 211.6-87.8zM963.6 1445c0-1.1-.9-1.9-1.9-1.9s-1.9.9-1.9 1.9c0 1.1.9 1.9 1.9 1.9s1.9-.8 1.9-1.9zm-2.2-255.6c0-1.1-.9-1.9-1.9-1.9s-1.9.9-1.9 1.9c0 1.1.9 1.9 1.9 1.9s1.9-.8 1.9-1.9zm0 127.8c0-1.1-.9-1.9-1.9-1.9s-1.9.9-1.9 1.9c0 1.1.9 1.9 1.9 1.9s1.9-.8 1.9-1.9zm-136-822.9c31.4 40.1 80.3 65.9 135.2 65.9 54.9 0 103.8-25.8 135.2-65.9 97.1 49.4 163.6 150.2 163.6 266.6 0 82.4-33.3 157-87.2 211-54.1 54.3-128.9 87.8-211.6 87.8-82.7 0-157.5-33.6-211.6-87.8-53.9-54.1-87.2-128.7-87.2-211-.1-116.4 66.5-217.2 163.6-266.6zm138.2 432.8c0-1.1-.9-1.9-1.9-1.9s-1.9.9-1.9 1.9.9 1.9 1.9 1.9 1.9-.9 1.9-1.9zm-2.2-255.6c0-1.1-.9-1.9-1.9-1.9s-1.9.9-1.9 1.9c0 1.1.9 1.9 1.9 1.9s1.9-.8 1.9-1.9zm0 127.8c0-1.1-.9-1.9-1.9-1.9s-1.9.9-1.9 1.9.9 1.9 1.9 1.9 1.9-.8 1.9-1.9zm170.8-410.7c0 14.3-1.7 28.1-5 41.4l-166.9-27.9s-36.6 34.9 1.5 79.4l158.5-30c-6.1 15.5-14.4 29.9-24.5 42.8-31.4 40.1-80.3 65.9-135.2 65.9-54.9 0-103.8-25.8-135.2-65.9-22.8-29.1-36.4-65.8-36.4-105.7 0-94.8 76.8-171.6 171.6-171.6 94.8-.1 171.6 76.8 171.6 171.6zm-110.6-48.9c0-1.1-.9-1.9-1.9-1.9-1.1 0-1.9.9-1.9 1.9 0 1.1.9 1.9 1.9 1.9 1 0 1.9-.9 1.9-1.9zm-118.1 0c0-1.1-.9-1.9-1.9-1.9s-1.9.9-1.9 1.9c0 1.1.9 1.9 1.9 1.9s1.9-.9 1.9-1.9z" id="Layer_2"/>
    <path class="st0" d="M960.3 402.1l166.9 27.9c-1.8 7.4-4.1 14.6-6.9 21.5l-158.5 30c-38.1-44.5-1.5-79.4-1.5-79.4z" id="Layer_3"/>
    <g id="STROKES">
        <path class="st1" d="M749 971.9c-110.8 70.2-184.3 193.8-184.3 334.7 0 218.7 177.3 395.9 395.9 395.9 218.7 0 395.9-177.3 395.9-395.9 0-140.8-73.5-264.5-184.3-334.7"/>
        <path class="st1" d="M825.4 494.3c-97.1 49.4-163.6 150.2-163.6 266.6 0 82.4 33.3 157 87.2 211 54.1 54.3 128.9 87.8 211.6 87.8 82.7 0 157.5-33.6 211.6-87.8 53.9-54.1 87.2-128.7 87.2-211 0-116.4-66.5-217.2-163.6-266.6"/>
        <path class="st1" d="M1127.2 430c3.3-13.2 5-27.1 5-41.4 0-94.8-76.8-171.6-171.6-171.6S789 293.8 789 388.6c0 39.9 13.6 76.6 36.4 105.7 31.4 40.1 80.3 65.9 135.2 65.9 54.9 0 103.8-25.8 135.2-65.9 10.1-12.9 18.4-27.3 24.5-42.8 2.8-7 5.1-14.2 6.9-21.5z"/>
        <circle class="st1" cx="901.5" cy="339.7" r="1.9"/>
        <path class="st1" d="M1021.6 339.7c0 1.1-.9 1.9-1.9 1.9-1.1 0-1.9-.9-1.9-1.9 0-1.1.9-1.9 1.9-1.9 1-.1 1.9.8 1.9 1.9z"/>
        <path class="st1" d="M961.4 671.5c0 1.1-.9 1.9-1.9 1.9s-1.9-.9-1.9-1.9c0-1.1.9-1.9 1.9-1.9s1.9.8 1.9 1.9z"/>
        <circle class="st1" cx="959.5" cy="799.3" r="1.9"/>
        <circle class="st1" cx="961.7" cy="927.1" r="1.9"/>
        <circle class="st1" cx="959.5" cy="1189.4" r="1.9"/>
        <circle class="st1" cx="959.5" cy="1317.2" r="1.9"/>
        <ellipse class="st1" cx="961.7" cy="1445" rx="1.9" ry="1.9"/>
        <path class="st1" d="M284.7 554.3l94.4 94.5-94.4 94.5"/>
        <path class="st1" d="M379.1 648.8h294.4"/>
        <path class="st1" d="M1629.9 554.3l-94.5 94.5 94.5 94.5"/>
        <path class="st1" d="M1535.4 648.8h-294.3"/>
        <path class="st1" d="M1127.2 430l-166.9-27.9s-36.6 34.9 1.5 79.4l158.5-30 63.7-12-56.8-9.5z"/>
    </g>
</svg>
