<svg xmlns="http://www.w3.org/2000/svg" viewBox="0 0 1920 1920">
    <style>
        .st0{fill:#fff}.st1{fill:none;stroke:#000;stroke-width:50;stroke-linecap:round;stroke-linejoin:round;stroke-miterlimit:10}
    </style>
    <path class="st0" d="M666.1 1395.7h584l113.3 185.7.9 1.4c-116.3 75.7-255.2 119.6-404.3 119.6-150.9 0-291.3-45-408.5-122.4L665 1394l.5-.2.6 1.9zM960 219.6v271.5l475.6 345.5-181.7 559.1h-3.8l113.3 185.7.9 1.4c203.6-132.4 338.2-361.9 338.2-622.9 0-410.1-332.4-742.5-742.5-742.5v2.2zM551.5 1580.1l113.5-186 .5-.2-181.1-557.3L960 491.1V217.5c-410.1 0-742.5 332.4-742.5 742.5 0 259.2 132.8 487.3 334 620.1z" id="Layer_4"/>
    <path class="st0" d="M1250.1 1395.7h-584l-.6-1.7-181.1-557.4L960 491.1l475.6 345.5-181.7 559.1z" id="Layer_5"/>
    <g id="STROKES">
        <path class="st1" d="M960 217.5c410.1 0 742.5 332.4 742.5 742.5 0 260.9-134.6 490.4-338.2 622.9-116.3 75.7-255.2 119.6-404.3 119.6-150.9 0-291.3-45-408.5-122.4-201.2-132.8-334-361-334-620.1 0-410.1 332.4-742.5 742.5-742.5z"/>
        <path class="st1" d="M960 491.1l475.6 345.5-181.7 559.1H666.1l-.6-1.7-181.1-557.4z"/>
        <path class="st1" d="M960 491.1V219.6"/>
        <path class="st1" d="M1435.6 836.6l235.7-66.3"/>
        <path class="st1" d="M1249.1 1394.2l1 1.5 113.3 185.8"/>
        <path class="st1" d="M478.5 836.6l-235.7-66.3"/>
        <path class="st1" d="M665 1394.2l-113.5 185.9-.8 1.4"/>
        <path class="st1" d="M520.2 937.1l520-382.4"/>
        <path class="st1" d="M567.4 1071.2l587.9-432.4"/>
        <path class="st1" d="M821.3 1390.7l556.3-409.2"/>
        <path class="st1" d="M612 1207.1l653.4-480.6"/>
        <path class="st1" d="M651.9 1346.5l735.6-541"/>
        <path class="st1" d="M1058.7 1384.7l254-186.8"/>
    </g>
</svg>
