<svg xmlns="http://www.w3.org/2000/svg" viewBox="0 0 1920 1920">
    <style>
        .st0{fill:#fff}.st1{fill:none;stroke:#231f20;stroke-width:50;stroke-linecap:round;stroke-linejoin:round;stroke-miterlimit:10}
    </style>
    <path class="st0" d="M1277.3 388.5V415c-.5 31.9-2.8 75.3-11.5 91.8l-74.1 50-40.3 58-16.1 175.6s32.2 79 1.6 178.9c0 0 1.9 3.6 5.3 9.9-31.9-2.1-66.6-8.5-82.2-8.1-27.6.8-103.1 28.2-159.8 25.3-32.6-1.7-71.5-18.2-98.6-32 2.1-4.2 3.4-6.5 3.4-6.5l29-124.1-46.7-127.3-116 48.3-14-12.7-71.4-64.6s106.4-66.1 120.9-99.9c14.5-33.9 82.2-67.7 99.9-74.1 13.1-4.8 42.5-25.2 57-35.6 4 3.6 8.5 6.7 13.8 9 8.7 16.6 31.3 41.1 88.8 41.1 0 0 69.3-19.3 32.2-77.4 0 0 72.5 0 90.2-11.3 0 0 64.5-24.2 106.3-19.3 17.7-3.2 82.2-32.2 82.2-32.2s0 4 .1 10.7z" id="Layer_15"/>
    <path class="st0" d="M1703 275.6l-67.5 55.8s-98.6 19-160.4 73.7c-61.8 54.6-197.8 60.6-197.8 60.6v-50.8c.1-10.5.1-19.8 0-26.5 1.2-.9 75.1-61.8 185.9-72.5 111.7-10.7 123.6-33.3 123.6-33.3l47.5-36.8h58.2l10.5 29.8z" id="Layer_16"/>
    <path class="st0" d="M998.3 440.6s7.7-104.4 5.3-118.7c-2.4-14.3-14.4-75-40.5-93.6-21.3-15.2-79.5-18.9-114.8 12-13.1 11.4-21.4 46.8-24.4 68.1-1.4 9.5-1.1 19.2.7 28.7l18.9 97.6c-.9.9 5.2 20 20 33.3 4 3.6 8.5 6.7 13.8 9 8.7 16.6 31.3 41.1 88.8 41.1 0-.1 69.3-19.4 32.2-77.5z" id="Layer_17"/>
    <path class="st0" d="M657.1 742.2c-6.4 14.6-161.2 96.5-210.6 121.2-49.4 24.7-102.3 82.4-102.3 82.4L257.8 921l12.3-54s130.5-19.4 172.8-83.9c42.3-64.5 142.7-105.4 142.7-105.4l71.5 64.5z" id="Layer_18"/>
    <path class="st0" d="M860.3 1231.9c-25.1 61.2-111.1 98.3-111.1 98.3-15.4 6.4-210.2 12.9-247.3 8.1-4.7-.6-12.2.1-21.7 1.8-5.9-26.5-8.8-53.7-8.7-80.8 10 .2 34.3-3.9 91.6-28.9 88.6-38.7 128.9 0 128.9 0 1.3-11.3 5-26 10.5-42.7 0 0 66.9-31.4 97.4-27.1 30.6 4.3 60.4 71.3 60.4 71.3z" id="Layer_19"/>
    <path class="st0" d="M1231.7 1235.4c-7.5-15.1-9.4-64.8-9.4-64.8-1.3-1-63.4-47.8-114.4-3.2-38.6 33.7-42 61.1-32.5 81.6l13.2 18.3-1.9 40.3c-78.9 79.7-70.5 173.8-70.5 173.8s-20.7 48.6-40.1 89l64.5 35.2c5.5-11.6 14.2-22 14.2-22s141.2-252.2 154.4-271c13.1-18.8 30.1-62.1 22.5-77.2z" id="Layer_20"/>
    <path class="st0" d="M1142.1 979.1c-31.9-2.1-66.6-8.5-82.2-8.1-27.6.8-103.1 28.2-159.8 25.3-32.6-1.7-71.5-18.2-98.6-32-14.7 28.8-74.2 146.8-99 223.1 0 0 66.9-31.4 97.4-27.1 30.5 4.4 60.4 71.3 60.4 71.3l13.9 16.1s59.5-46.1 96.3-88.1l92.2 128.4 25.8-20.9c-5.3-5.3-10-11.4-13.2-18.3-9.5-20.5-6-47.9 32.5-81.6 51-44.6 113.1 2.2 114.4 3.2-10.7-56.3-63.1-159.1-80.1-191.3z" id="Layer_21"/>
    <path class="st0" d="M480.3 1340c-65.4 11.5-227.1 68.9-242.6 56.2-17.7-14.5 12.9-58 12.9-58l159.5-93.4 54.8 12.9s1.2 1.4 6.7 1.5c-.1 27.1 2.8 54.3 8.7 80.8z" id="Layer_22"/>
    <path class="st0" d="M1125.6 1703s-88.2 11-109.5 0c-21.3-11-70.3-31.7-70.3-31.7s-13.9-38.3 0-47.8c5.5-3.8 17.6-26.6 30.2-52.9l64.5 35.2c-4.4 9.3-6.7 19.4-1 25.7 12.7 14.2 86.1 71.5 86.1 71.5z" id="Layer_23"/>
    <circle class="st0" cx="749.2" cy="1583.7" r="111.1" id="Layer_24"/>
    <g id="STROKES">
        <circle class="st1" cx="749.2" cy="1583.7" r="111.1"/>
        <path class="st1" d="M860.3 1231.9c-25.2 61.2-111.1 98.3-111.1 98.3-15.4 6.4-210.2 12.9-247.3 8.1-37.1-4.8-246.5 72.5-264.3 58-17.7-14.5 12.9-58 12.9-58l159.5-93.5 54.8 12.9s9.7 11.3 98.3-27.4 128.9 0 128.9 0c1.3-11.3 5-26 10.5-42.7 0 0 66.9-31.4 97.4-27.1 30.6 4.4 60.4 71.4 60.4 71.4z"/>
        <path class="st1" d="M998.3 1115.8c-2.7 12.1-13.5 27.8-27.8 44"/>
        <path class="st1" d="M471.6 1259.2c-.1 27.1 2.9 54.3 8.7 80.8"/>
        <path class="st1" d="M1277.3 388.5V415c-.5 31.9-2.8 75.3-11.5 91.8l-74.1 50-40.3 58-16.1 175.6s32.2 79 1.6 178.9c0 0 2 3.6 5.3 9.9-31.9-2.1-66.6-8.5-82.2-8.1-27.6.8-103.1 28.2-159.7 25.3-32.6-1.7-71.5-18.2-98.6-32 2.2-4.2 3.4-6.5 3.4-6.5l29-124.1-46.7-127.3-116 48.3-14-12.7-71.4-64.6s106.3-66.1 120.9-99.9c14.5-33.8 82.2-67.7 99.9-74.1 13.1-4.7 42.5-25.2 57-35.6 4 3.6 8.5 6.7 13.8 9 8.7 16.7 31.3 41.1 88.8 41.1 0 0 69.3-19.3 32.2-77.3 0 0 72.5 0 90.2-11.3 0 0 64.5-24.2 106.3-19.3 17.7-3.2 82.2-32.2 82.2-32.2s-.1 3.9 0 10.6z"/>
        <path class="st1" d="M1142.1 979.1c16.9 32.2 69.4 134.9 80.1 191.5-1.3-1-63.4-47.8-114.4-3.2-38.5 33.7-42 61.1-32.5 81.6 3.2 6.9 7.9 13 13.2 18.3l-25.8 20.9-92.2-128.4c-36.8 42-96.3 88.1-96.3 88.1l-13.9-16.1s-29.9-67-60.4-71.3c-30.5-4.4-97.4 27.1-97.4 27.1 24.8-76.4 84.2-194.3 99-223.1 27.1 13.7 66 30.3 98.6 32 56.6 2.9 132.2-24.5 159.7-25.3 15.8-.6 50.4 5.9 82.3 7.9z"/>
        <path class="st1" d="M1277.3 414.9v-26.5c.1 6.7.1 16 0 26.5z"/>
        <path class="st1" d="M1054.7 1583.7s-28 33.4-15.2 47.7c12.8 14.4 86.1 71.6 86.1 71.6s-88.2 11-109.5 0c-21.3-11-70.3-31.7-70.3-31.7s-13.9-38.3 0-47.8c13.9-9.6 70.3-141.9 70.3-141.9s-8.4-94.1 70.5-173.8l1.9-40.3-13.2-18.3c-9.5-20.5-6-47.9 32.5-81.6 51-44.6 113.1 2.2 114.4 3.2 0 0 1.9 49.7 9.5 64.8 7.5 15.1-9.4 58.4-22.6 77.2-13.1 18.7-154.4 270.9-154.4 270.9z"/>
        <path class="st1" d="M1151.4 614.7s10.4-116.5 23.3-135.8"/>
        <path class="st1" d="M657.1 742.2c-6.4 14.6-161.2 96.5-210.6 121.2s-102.3 82.4-102.3 82.4L257.8 921l12.3-54s130.5-19.4 172.8-83.9 142.7-105.4 142.7-105.4l71.5 64.5z"/>
        <path class="st1" d="M1703 275.6l-67.6 55.8s-98.6 19-160.4 73.7c-61.8 54.6-197.8 60.6-197.8 60.6v-77.2c1.2-.9 75.1-61.8 185.9-72.5 111.7-10.7 123.6-33.3 123.6-33.3l47.5-36.8h58.2l10.6 29.7z"/>
        <path class="st1" d="M966.1 518c-57.4 0-80-24.5-88.8-41.1-5.2-2.3-9.8-5.4-13.8-9-14.8-13.3-20.9-32.4-20-33.3L824.6 337c-1.8-9.5-2.1-19.1-.7-28.7 3-21.2 11.3-56.6 24.4-68.1 35.3-30.8 93.5-27.2 114.8-12 26 18.6 38.1 79.3 40.5 93.6 2.4 14.3-5.3 118.7-5.3 118.7 37 58.2-32.2 77.5-32.2 77.5z"/>
        <path class="st1" d="M877.3 476.9c8.5 3.6 18.6 5 30.6 2.1 14-3.4 25.5-10.6 34.7-18.9"/>
        <path class="st1" d="M1040.6 1605.6l-64.6-35.1"/>
    </g>
</svg>
