<svg xmlns="http://www.w3.org/2000/svg" viewBox="0 0 1920 1920">
    <style>
        .st0{fill:#fff}.st1{fill:none;stroke:#231f20;stroke-width:50;stroke-linecap:round;stroke-linejoin:round;stroke-miterlimit:10}
    </style>
    <path class="st0" d="M746.5 1423.1c-227.6 14.8-529.5-12.6-529.5-92.8 0-116.1 152.3-128.8 152.3-128.8s386.3 38.9 377.2 221.6z" id="Layer_6"/>
    <path class="st0" d="M1569.7 1081.9c-293.8 50.8-471.5 224.8-596.6 297.4-38.6 22.4-125.2 37.3-226.6 43.9 9.1-182.8-377.2-221.6-377.2-221.6s177.7-67.1 476.9-297.4c299.2-230.3 271.9-473 271.9-473h462.2v162.9s283.1 437-10.6 487.8z" id="Layer_7"/>
    <g id="STROKES">
        <path class="st1" d="M1580.3 431.1H1118s27.3 242.7-271.9 473-476.9 297.4-476.9 297.4-152.3 12.7-152.3 128.7c0 116.1 631 121.5 756.2 49s302.8-246.6 596.6-297.4c293.8-50.8 10.6-487.8 10.6-487.8V431.1z"/>
        <path class="st1" d="M369.3 1201.5s386.3 38.8 377.2 221.6"/>
        <path class="st1" d="M1225.6 431.1v94.2"/>
        <path class="st1" d="M1337.4 431.1v94.2"/>
        <path class="st1" d="M1449.3 431.1v94.2"/>
    </g>
</svg>
