<svg xmlns="http://www.w3.org/2000/svg" viewBox="0 0 1920 1920">
    <style>
        .st0{fill:#fff}.st1{fill:none;stroke:#231f20;stroke-width:50;stroke-linecap:round;stroke-linejoin:round;stroke-miterlimit:10}
    </style>
    <path class="st0" d="M1610.9 409.2v877.2h-161.5c-130 0-235.5 105.4-235.5 235.5V1703H678.1c-101.9 0-194.1-41.3-260.9-108.1-66.8-66.8-108.1-159-108.1-260.9 0-203.8 165.2-369 369-369h194.7V409.2h738.1z" id="Layer_8"/>
    <path class="st0" d="M1610.9 1286.4V1459c0 134.8-109.3 244-244 244h-153v-181.1c0-130.1 105.5-235.5 235.5-235.5h161.5z" id="Layer_9"/>
    <path class="st0" d="M872.9 216.9h738v192.3h-738z" id="Layer_10"/>
    <g id="STROKES">
        <g id="STROKES_2_">
            <path class="st1" d="M1610.8 216.9V1459c0 134.8-109.3 244-244 244H678.1c-101.9 0-194.1-41.3-260.9-108.1-66.8-66.8-108.1-159-108.1-260.9 0-203.8 165.2-369 369-369h194.7V216.9h738z"/>
            <path class="st1" d="M1610.8 409.2H873"/>
            <path class="st1" d="M1610.8 1286.4V1459c0 134.8-109.3 244-244 244h-153v-181.1c0-130.1 105.5-235.5 235.5-235.5h161.5z"/>
        </g>
    </g>
</svg>
