<svg xmlns="http://www.w3.org/2000/svg" viewBox="0 0 1920 1920">
    <style>
        .st0{fill:#fff}.st1{fill:none;stroke:#231f20;stroke-width:50;stroke-linecap:round;stroke-linejoin:round;stroke-miterlimit:10}
    </style>
    <path class="st0" d="M1057.1 1634.8c-38.9 45.1-93.8 68.3-149.1 68.3-45.5 0-91.2-15.7-128.3-47.7-21.9-18.9-38.6-41.5-50-66.1-6.2.6-12.5.9-18.8.9-45.5 0-91.2-15.7-128.3-47.7-61.2-52.7-82-134.9-59.4-207.4l194 123.9c2.8-11.4 6.7-22.7 11.7-33.6l328.2 209.4z" id="Layer_2"/>
    <path class="st0" d="M1239 1215.4l83.8 96.9c-48.9 42.1-122.7 107.3-150.3 140.2-34.6 41.3-115.3 182.2-115.3 182.2L729 1425.2c-4.9 10.9-8.8 22.2-11.7 33.6l-194-123.9c7.8-25 20.7-48.9 38.9-70L820.7 965V216.8H1163v112.9h197v736.2l-101.5 51.1c-37 18.6-46.6 67.1-19.5 98.4z" id="Layer_4"/>
    <path class="st0" d="M1405.6 1179.8c-1.5 41.2-20.9 79.8-52.4 106.5-7.9 6.7-18.4 15.7-30.5 26l-83.8-96.9c-27.1-31.3-17.5-79.8 19.5-98.4l101.5-51.1c31.7 30.7 47.2 72.4 45.7 113.9z" id="Layer_5"/>
    <g id="STROKES">
        <path class="st1" d="M1057.1 1634.8c-38.9 45.1-93.8 68.3-149.1 68.3-45.5 0-91.2-15.7-128.3-47.7-21.9-18.9-38.6-41.5-50-66.1-18.9-40.7-23.3-86.9-12.5-130.4 2.8-11.4 6.7-22.7 11.7-33.6l328.2 209.5z"/>
        <path class="st1" d="M1405.6 1179.8c-1.5 41.2-20.9 79.8-52.4 106.5-7.9 6.7-18.4 15.7-30.5 26l-83.8-96.9c-27.1-31.3-17.5-79.8 19.5-98.4l101.5-51.1c31.7 30.7 47.2 72.4 45.7 113.9z"/>
        <path class="st1" d="M1239 1215.4l83.8 96.9c-48.9 42.1-122.7 107.3-150.3 140.2-34.6 41.3-115.3 182.2-115.3 182.2L729 1425.2c7.6-16.7 17.6-32.7 30.3-47.3l258.5-299.9V329.7H1360v736.2l-101.5 51.1c-37 18.6-46.6 67.1-19.5 98.4z"/>
        <path class="st1" d="M729.7 1589.3c-6.2.6-12.5.9-18.8.9-45.5 0-91.2-15.7-128.3-47.7-61.2-52.7-82-134.9-59.4-207.4l194 123.9c-10.7 43.4-6.4 89.5 12.5 130.3z"/>
        <path class="st1" d="M1162.9 216.8v112.9h-145.2V1078l-258.5 300c-12.6 14.6-22.7 30.6-30.3 47.3-4.9 10.9-8.8 22.2-11.7 33.6l-194-123.9c7.8-25 20.7-48.9 38.9-70l258.5-299.9V216.8h342.3z"/>
        <path class="st1" d="M1095 445.6v341"/>
        <path class="st1" d="M1157.3 445.6v341"/>
        <path class="st1" d="M1219.6 445.6v341"/>
        <path class="st1" d="M1282 445.6v341"/>
        <path class="st1" d="M895.5 317.8v341.1"/>
        <path class="st1" d="M957.8 317.8v341.1"/>
    </g>
</svg>
