<svg xmlns="http://www.w3.org/2000/svg" viewBox="0 0 1920 1920">
    <style>
        .st0{fill:#fff}.st1{fill:none;stroke:#000;stroke-width:50;stroke-linecap:round;stroke-linejoin:round;stroke-miterlimit:10}
    </style>
    <path class="st0" d="M447.5 1083.7c70.2 117-42.5 225.6-42.5 225.6-104-16.8-188.4-49.2-188.4-140.8-.1-117 152-84.8 230.9-84.8zM1579 599.3c-239.7 99.4-511.6-3.9-511.6-3.9l-40.9 67.2s90.7 52.1 318.7 55.5c195.9 2.9 257.3-58.5 257.3-58.5l-23.5-60.3z" id="Layer_5"/>
    <path class="st0" d="M1602.3 659.8c.4 1.7 41.1 164.1 78.9 233.9 38 70.2 49.7 260.2-155 263.1-204.7 2.9-380.1-26.3-532.1 64.3s-359.6 114-499.9 99.4c-30.4-3.2-60.6-6.6-89.3-11.2 0 0 112.7-108.6 42.5-225.6 78.9 0 251.4-58.5 321.6-137.4 70.2-78.9 213.4-207.6 257.3-283.6 0 0 90.7 52.1 318.7 55.5 195.9 3 257.3-58.4 257.3-58.4z" id="Layer_6"/>
    <g id="STROKES">
        <g id="XMLID_1_">
            <path class="st1" d="M1602.3 659.8c.4 1.7 41.1 164.1 78.9 233.9 38 70.2 49.7 260.2-155 263.1-204.7 2.9-380.1-26.3-532.1 64.3s-359.6 114-499.9 99.4c-30.4-3.2-60.6-6.6-89.3-11.2-104-16.8-188.4-49.2-188.4-140.8 0-116.9 152-84.8 231-84.8s251.4-58.5 321.6-137.4c70.2-78.9 213.4-207.6 257.3-283.6 0 0 90.7 52.1 318.7 55.5 195.8 3 257.2-58.4 257.2-58.4"/>
            <path class="st1" d="M405 1309.3s112.7-108.6 42.5-225.6"/>
            <path class="st1" d="M1505.8 975.5l160.9 117"/>
            <path class="st1" d="M1026.4 662.7l40.9-67.2s271.9 103.3 511.6 3.9l23.4 60.4"/>
        </g>
    </g>
</svg>
