<svg xmlns="http://www.w3.org/2000/svg" viewBox="0 0 1920 1920">
    <style>
        .st0{fill:#fff}.st1{fill:none;stroke:#000;stroke-width:50;stroke-linecap:round;stroke-linejoin:round;stroke-miterlimit:10}
    </style>
    <path class="st0" d="M1460.3 218.5v980.6c0 97.3-56.8 185.7-145.3 226.1l-568.5 259.7c-101.5 46.3-221.3 1.9-268.1-99.4-12.7-27.5-18.7-56.3-18.7-84.8 0-75.9 42.8-148.6 115.8-183.2l420.2-199.3c43.5-20.6 71.2-64.5 71.2-112.6V216.8l393.4 1.7z" id="Layer_2"/>
    <g id="STROKES">
        <path class="st1" d="M1460.3 218.5v980.6c0 97.3-56.8 185.7-145.3 226.1l-568.5 259.7c-101.5 46.3-221.3 1.9-268.1-99.4-12.7-27.5-18.7-56.3-18.7-84.8 0-75.9 42.8-148.6 115.8-183.2l420.2-199.3c43.5-20.6 71.2-64.5 71.2-112.6V216.8l393.4 1.7z" id="XMLID_1_"/>
    </g>
</svg>
