<svg xmlns="http://www.w3.org/2000/svg" viewBox="0 0 1920 1920">
    <style>
        .st0{fill:#fff}.st1{fill:none;stroke:#231f20;stroke-width:50;stroke-linecap:round;stroke-linejoin:round;stroke-miterlimit:10}
    </style>
    <path class="st0" d="M1346.3 487.2V1494c0 25.5-27.1 49.2-73.1 68.5-72.1 30.3-190.6 50-324.7 50-117.3 0-222.7-15.1-295.5-39.2-1.3-.4-2.6-.9-3.9-1.3-1.3-.4-2.5-.9-3.8-1.3-1.2-.4-2.5-.9-3.7-1.3-1.2-.4-2.5-.9-3.7-1.3-1.2-.5-2.4-.9-3.6-1.4-1.2-.5-2.4-.9-3.5-1.4-1.2-.5-2.3-.9-3.5-1.4-1.1-.5-2.3-.9-3.4-1.4-46.1-19.3-73.1-43-73.1-68.5V487.2c0 43.4 178.1 78.6 397.8 78.6 219.6-.1 397.7-35.3 397.7-78.6z" id="Layer_9"/>
    <path class="st0" d="M1273.2 1562.4c0 132.4-324.7 140.6-324.7 140.6s-182.6-4.7-274-62.8c-30.4-19.4-50.7-44.7-50.7-77.8 1.1.5 2.3.9 3.4 1.4 1.1.5 2.3.9 3.5 1.4 1.2.5 2.4.9 3.5 1.4 1.2.5 2.4.9 3.6 1.4 1.2.4 2.4.9 3.7 1.3 1.2.4 2.5.9 3.7 1.3 1.3.4 2.5.9 3.8 1.3 1.3.4 2.6.9 3.9 1.3 72.8 24.1 178.2 39.2 295.5 39.2 134.1 0 252.7-19.7 324.8-50z" id="Layer_10"/>
    <path class="st0" d="M1346.3 487.2c0 43.4-178.1 78.6-397.8 78.6-219.7 0-397.8-35.2-397.8-78.6l13.2-20.2 78.4-119.3c32.3 22.1 104.2 39.6 195.1 47.7 34.7 3.1 72.1 4.7 111.2 4.7 39.1 0 76.5-1.7 111.2-4.7 90.9-8 162.8-25.6 195.1-47.7l78.4 119.3 13 20.2z" id="Layer_11"/>
    <path class="st0" d="M876.3 329.1l-14.1-67.5c-1.2-5.5-.4-10.9 1.9-15.9-138.4 9-240.3 39.5-240.3 75.9 0 9.2 6.5 18 18.5 26.2 32.3 22.1 104.2 39.6 195.1 47.7 3.5-21.7 31.2-40 69.3-47.8-15.7-1.3-28.3-8.8-30.4-18.6z" id="Layer_12"/>
    <path class="st0" d="M1032.9 245.6c2.3 5 3.1 10.4 1.9 15.9l-14.1 67.5c-2.1 9.8-14.7 17.3-30.3 18.4 38.1 7.8 65.8 26.1 69.3 47.8 90.9-8 162.8-25.6 195.1-47.7 12-8.2 18.5-17 18.5-26.2-.1-36.1-102-66.7-240.4-75.7z" id="Layer_15"/>
    <path class="st0" d="M1034.8 261.5l-14.1 67.5c-2.1 9.8-14.7 17.3-30.3 18.4-12.9-2.7-27.1-4.1-41.9-4.1-14.8 0-28.9 1.5-41.9 4.1-15.6-1.1-28.2-8.6-30.3-18.4l-14.1-67.5c-1.2-5.5-.4-10.9 1.9-15.9 7.6-16.4 32.1-28.7 61.7-28.7h45.3c29.6 0 54.1 12.3 61.7 28.7 2.4 5 3.2 10.4 2 15.9z" id="Layer_13"/>
    <path class="st0" d="M990.4 347.5c-12.9-2.7-27.1-4.1-41.9-4.1-14.8 0-28.9 1.5-41.9 4.1-38.1 7.8-65.8 26.1-69.3 47.8 34.7 3.1 72.1 4.7 111.2 4.7 39.1 0 76.5-1.7 111.2-4.7-3.6-21.7-31.2-40-69.3-47.8z" id="Layer_14"/>
    <g id="STROKES">
        <path class="st1" d="M906.6 347.5c-38.1 7.8-65.8 26.1-69.3 47.8-90.9-8-162.8-25.6-195.1-47.6-12-8.2-18.5-17-18.5-26.2 0-36.3 101.9-66.9 240.3-75.9-2.3 5-3.1 10.4-1.9 15.9l14.1 67.5c2.2 9.9 14.8 17.4 30.4 18.5z"/>
        <path class="st1" d="M1273.2 321.5c0 9.2-6.5 18-18.5 26.2-32.3 22.1-104.2 39.6-195.1 47.6-3.5-21.7-31.2-40-69.3-47.8 15.6-1.1 28.2-8.6 30.3-18.4l14.1-67.5c1.2-5.5.4-10.9-1.9-15.9 138.5 8.9 240.4 39.5 240.4 75.8z"/>
        <path class="st1" d="M1346.3 487.2V1494c0 25.5-27.1 49.2-73.1 68.5-72.1 30.3-190.6 50-324.7 50-134 0-252.6-19.7-324.7-50-46.1-19.3-73.1-43-73.1-68.5V487.2c0 43.4 178.1 78.6 397.8 78.6s397.8-35.3 397.8-78.6z"/>
        <path class="st1" d="M1273.2 1562.4c0 132.4-324.7 140.6-324.7 140.6s-324.7-8.3-324.7-140.6c72.1 30.3 190.6 50 324.7 50s252.6-19.7 324.7-50z"/>
        <path class="st1" d="M1346.3 487.2c0 43.4-178.1 78.6-397.8 78.6s-397.8-35.2-397.8-78.6L564 467l78.4-119.3c32.3 22.1 104.2 39.6 195.1 47.6 34.7 3.1 72.1 4.7 111.2 4.7 39.1 0 76.5-1.7 111.2-4.7 90.9-8 162.8-25.6 195.1-47.6l78.4 119.3 12.9 20.2z"/>
        <path class="st1" d="M1059.6 395.3c-34.7 3.1-72.1 4.7-111.2 4.7-39 0-76.5-1.7-111.2-4.7 3.5-21.7 31.2-40 69.3-47.8 12.9-2.7 27.1-4.1 41.9-4.1 14.8 0 28.9 1.5 41.9 4.1 38.2 7.8 65.8 26.1 69.3 47.8z"/>
        <path class="st1" d="M1034.8 261.6l-14.1 67.5c-2.1 9.8-14.7 17.3-30.3 18.4-12.9-2.7-27.1-4.1-41.9-4.1-14.8 0-28.9 1.5-41.9 4.1-15.6-1.1-28.3-8.6-30.3-18.4l-14.1-67.5c-1.2-5.5-.4-10.9 1.9-15.9 7.6-16.4 32.1-28.7 61.7-28.7h45.3c29.6 0 54.1 12.3 61.7 28.7 2.4 4.9 3.1 10.3 2 15.9z"/>
    </g>
</svg>
