<svg xmlns="http://www.w3.org/2000/svg" viewBox="0 0 1920 1920">
    <style>
        .st0{fill:#fff}.st1{fill:none;stroke:#231f20;stroke-width:50;stroke-linecap:round;stroke-linejoin:round;stroke-miterlimit:10}
    </style>
    <path class="st0" d="M960 239.8c-397.7 0-720.1 322.4-720.1 720.2s322.4 720.1 720.1 720.1 720.1-322.4 720.1-720.1S1357.7 239.8 960 239.8zm0 1312.7c-327.2 0-592.5-265.2-592.5-592.5S632.8 367.5 960 367.5s592.5 265.2 592.5 592.5-265.3 592.5-592.5 592.5z" id="Layer_6"/>
    <path class="st0" d="M960 367.5c-327.2 0-592.5 265.2-592.5 592.5s265.2 592.5 592.5 592.5 592.5-265.2 592.5-592.5S1287.2 367.5 960 367.5zm0 1073.6c-153.1 0-277.1-96.8-277.1-216.2 0-67.2 39.3-127.3 101-166.9 31.9 65.1 98.8 109.9 176.2 109.9s144.3-44.8 176.2-109.9c61.7 39.7 101 99.7 101 166.9-.2 119.4-124.2 216.2-277.3 216.2z" id="Layer_7"/>
    <path class="st0" d="M1237.1 1224.9c0 119.4-124.1 216.2-277.1 216.2s-277.1-96.8-277.1-216.2c0-67.2 39.3-127.3 101-166.9 31.9 65.1 98.8 109.9 176.2 109.9s144.3-44.8 176.2-109.9c61.5 39.6 100.8 99.6 100.8 166.9z" id="Layer_8"/>
    <g id="STROKES">
        <circle class="st1" cx="960" cy="960" r="592.5"/>
        <circle class="st1" cx="960" cy="960" r="720.1"/>
        <path class="st1" d="M1071.5 662.6c0 40.7-49.9 44.9-111.5 44.9s-111.5-4.2-111.5-44.9c0-40.7 49.9-86.4 111.5-86.4s111.5 45.6 111.5 86.4z"/>
        <circle class="st1" cx="960" cy="960" r="48.6"/>
        <path class="st1" d="M830.5 1008.6v-71.7c0-71.5 58-129.5 129.5-129.5s129.5 58 129.5 129.5v71.7"/>
        <path class="st1" d="M1156.1 684.1v287.6c0 30.9-7.2 60.2-19.9 86.2-31.9 65.1-98.8 109.9-176.2 109.9s-144.3-44.8-176.2-109.9c-12.8-26-19.9-55.2-19.9-86.2V684.1C763.9 575.8 851.7 488 960 488c54.1 0 103.2 21.9 138.6 57.4 35.5 35.6 57.5 84.6 57.5 138.7z"/>
        <path class="st1" d="M1237.1 1224.9c0 119.4-124.1 216.2-277.1 216.2s-277.1-96.8-277.1-216.2c0-67.2 39.3-127.3 101-166.9 31.9 65.1 98.8 109.9 176.2 109.9s144.3-44.8 176.2-109.9c61.5 39.6 100.8 99.6 100.8 166.9z"/>
        <path class="st1" d="M960 1472.4c402.5 0 351.1-334.9 351.1-334.9s-12.4-142.7-71.3-408.3C1180.8 463.5 960 476.9 960 476.9s-220.8-13.4-279.8 252.2c-58.9 265.7-71.3 408.3-71.3 408.3s-51.4 335 351.1 335z"/>
    </g>
</svg>
