<svg xmlns="http://www.w3.org/2000/svg" viewBox="0 0 1920 1920">
    <style>
        .st0{fill:#fff}.st1{fill:none;stroke:#231f20;stroke-width:50;stroke-linecap:round;stroke-linejoin:round;stroke-miterlimit:10}
    </style>
    <path class="st0" d="M1609.2 820.4l-87.1-142.9-86.9-142.6-222.3 63.3-61-90-250.6 64.1-309.1 79-375.2 96 262.1 594.9 233-108.8 89.3 182 355.5-173.9 305.3-149.3L1703 974.4z" id="Layer_9"/>
    <g id="STROKES">
        <path class="st1" d="M1156.9 1241.5l-355.5 173.9-89.3-182-8.1-16.6 169.3-74.2 190-83.1 4.1 8.1z"/>
        <path class="st1" d="M1462.2 1092.2l-305.3 149.3-89.5-173.9-4.1-8.1 115.6-50.6 188.5-82.6.6 1z"/>
        <path class="st1" d="M1522.1 677.5l-207.4 70.7-41.1 14-66.4-116.2-22.7-39.8 28.4-8 222.3-63.3z"/>
        <path class="st1" d="M1609.2 820.4l-198.1 86.8-43.7 19.1-83-145.2-10.8-18.9 41.1-14 207.4-70.7z"/>
        <path class="st1" d="M1703.1 974.4l-240.9 117.8-94.2-164.9-.6-1 43.7-19.1 198.1-86.8z"/>
        <path class="st1" d="M1367.4 926.3l.6 1 43.1-20.1-43.7 19.1zm-215.5-418.1l-250.6 64.1-309.1 79.1-375.2 96 262.1 594.9 233.1-108.8-8.2-16.7-85.2-173.8-24.3-49.6-68.1-139-26.2-53.4L653 757.6l222.5-63.3 87.5-24.9 221.6-63.1 28.4-8.1-61.1-90z"/>
        <path class="st1" d="M1367.4 926.3l-188.5 82.6-115.6 50.6-81.9-159.2-16.9-32.9 102.3-34.8 206.8-70.4 10.8 18.9z"/>
        <path class="st1" d="M1273.6 762.2l-206.8 70.4-102.3 34.8-65.3-127.1-23.7-46.1 87.5-24.9 221.5-63.1 22.7 39.8z"/>
        <path class="st1" d="M653 757.6l-60.8-106.2"/>
        <path class="st1" d="M873.6 1143.2l-.3-.6"/>
        <path class="st1" d="M963 669.3l-61.7-97"/>
        <path class="st1" d="M1178.9 1009v-.1"/>
        <path class="st1" d="M964.5 867.4l-208.1 70.9-161.9 55.1-68.1-139-26.2-53.4L653 757.6l222.5-63.4 23.7 46.1z"/>
        <path class="st1" d="M526.4 854.4l-215.2 65.8"/>
        <path class="st1" d="M1063.3 1059.5l-190 83.1-169.3 74.2-85.2-173.8-24.3-49.6 161.9-55.1 208.1-70.9 16.9 32.9z"/>
        <path class="st1" d="M618.8 1043l-198.1 77.9"/>
    </g>
</svg>
