<svg xmlns="http://www.w3.org/2000/svg" viewBox="0 0 1920 1920">
    <style>
        .st0{fill:#fff}.st1{fill:none;stroke:#231f20;stroke-width:50;stroke-linecap:round;stroke-linejoin:round;stroke-miterlimit:10}
    </style>
    <path class="st0" d="M617.6 1133.5l-43.6 43.6v129.5l43.6 43.6h129.5l43.6-43.6v-129.5l-43.6-43.6H617.6zm277.6 281.9l-43.6 43.6v129.5l43.6 43.6h129.5l43.6-43.6V1459l-43.6-43.6H895.2zM617.6 851.6L574 895.2v129.5l43.6 43.6h129.5l43.6-43.6V895.2l-43.6-43.6H617.6zm0-563.8L574 331.4v129.5l43.6 43.6h129.5l43.6-43.6V331.4l-43.6-43.6H617.6zm0 281.9L574 613.3v129.5l43.6 43.6h129.5l43.6-43.6V613.3l-43.6-43.6H617.6zm-277.7 563.8l-43.6 43.6v129.5l43.6 43.6h129.5l43.6-43.6v-129.5l-43.6-43.6H339.9zm555.3 0l-43.6 43.6v129.5l43.6 43.6h129.5l43.6-43.6v-129.5l-43.6-43.6H895.2zM339.9 851.6l-43.6 43.6v129.5l43.6 43.6h129.5l43.6-43.6V895.2l-43.6-43.6H339.9zm0 563.8l-43.6 43.6v129.5l43.6 43.6h129.5l43.6-43.6V1459l-43.6-43.6H339.9zm277.7 0L574 1459v129.5l43.6 43.6h129.5l43.6-43.6V1459l-43.6-43.6H617.6zM339.9 569.7l-43.6 43.6v129.5l43.6 43.6h129.5l43.6-43.6V613.3l-43.6-43.6H339.9zm0-281.9l-43.6 43.6v129.5l43.6 43.6h129.5l43.6-43.6V331.4l-43.6-43.6H339.9zm833 563.8l-43.6 43.6v129.5l43.6 43.6h129.5l43.6-43.6V895.2l-43.6-43.6h-129.5zm277.7 281.9l-43.6 43.6v129.5l43.6 43.6h129.5l43.6-43.6v-129.5l-43.6-43.6h-129.5zm0-281.9l-43.6 43.6v129.5l43.6 43.6h129.5l43.6-43.6V895.2l-43.6-43.6h-129.5zm0 563.8L1407 1459v129.5l43.6 43.6h129.5l43.6-43.6V1459l-43.6-43.6h-129.5zm0-845.7l-43.6 43.6v129.5l43.6 43.6h129.5l43.6-43.6V613.3l-43.6-43.6h-129.5zm-277.7-281.9l-43.6 43.6v129.5l43.6 43.6h129.5l43.6-43.6V331.4l-43.6-43.6h-129.5zm407.2 0h-129.5l-43.6 43.6v129.5l43.6 43.6h129.5l43.6-43.6V331.4l-43.6-43.6zM895.2 851.6l-43.6 43.6v129.5l43.6 43.6h129.5l43.6-43.6V895.2l-43.6-43.6H895.2zm0-563.8l-43.6 43.6v129.5l43.6 43.6h129.5l43.6-43.6V331.4l-43.6-43.6H895.2zm0 281.9l-43.6 43.6v129.5l43.6 43.6h129.5l43.6-43.6V613.3l-43.6-43.6H895.2zm277.7 0l-43.6 43.6v129.5l43.6 43.6h129.5l43.6-43.6V613.3l-43.6-43.6h-129.5zm0 845.7l-43.6 43.6v129.5l43.6 43.6h129.5l43.6-43.6V1459l-43.6-43.6h-129.5zm0-281.9l-43.6 43.6v129.5l43.6 43.6h129.5l43.6-43.6v-129.5l-43.6-43.6h-129.5z" id="Layer_6"/>
    <path class="st0" d="M216.9 217v1486.1H1703V217H216.9zM513 1588.6l-43.6 43.6H339.9l-43.6-43.6v-129.5l43.6-43.6h129.5l43.6 43.6v129.5zm0-281.9l-43.6 43.6H339.9l-43.6-43.6v-129.5l43.6-43.6h129.5l43.6 43.6v129.5zm0-281.9l-43.6 43.6H339.9l-43.6-43.6V895.2l43.6-43.6h129.5l43.6 43.6v129.6zm0-282l-43.6 43.6H339.9l-43.6-43.6V613.3l43.6-43.6h129.5l43.6 43.6v129.5zm0-281.9l-43.6 43.6H339.9l-43.6-43.6V331.4l43.6-43.6h129.5l43.6 43.6v129.5zm277.7 1127.7l-43.6 43.6H617.6l-43.6-43.6v-129.5l43.6-43.6h129.5l43.6 43.6v129.5zm0-281.9l-43.6 43.6H617.6l-43.6-43.6v-129.5l43.6-43.6h129.5l43.6 43.6v129.5zm0-281.9l-43.6 43.6H617.6l-43.6-43.6V895.2l43.6-43.6h129.5l43.6 43.6v129.6zm0-282l-43.6 43.6H617.6L574 742.8V613.3l43.6-43.6h129.5l43.6 43.6v129.5zm0-281.9l-43.6 43.6H617.6L574 460.9V331.4l43.6-43.6h129.5l43.6 43.6v129.5zm277.7 1127.7l-43.6 43.6H895.2l-43.6-43.6v-129.5l43.6-43.6h129.5l43.6 43.6v129.5zm0-281.9l-43.6 43.6H895.2l-43.6-43.6v-129.5l43.6-43.6h129.5l43.6 43.6v129.5zm0-281.9l-43.6 43.6H895.2l-43.6-43.6V895.2l43.6-43.6h129.5l43.6 43.6v129.6zm0-282l-43.6 43.6H895.2l-43.6-43.6V613.3l43.6-43.6h129.5l43.6 43.6v129.5zm0-281.9l-43.6 43.6H895.2l-43.6-43.6V331.4l43.6-43.6h129.5l43.6 43.6v129.5zM1346 1588.6l-43.6 43.6h-129.5l-43.6-43.6v-129.5l43.6-43.6h129.5l43.6 43.6v129.5zm0-281.9l-43.6 43.6h-129.5l-43.6-43.6v-129.5l43.6-43.6h129.5l43.6 43.6v129.5zm0-281.9l-43.6 43.6h-129.5l-43.6-43.6V895.2l43.6-43.6h129.5l43.6 43.6v129.6zm0-282l-43.6 43.6h-129.5l-43.6-43.6V613.3l43.6-43.6h129.5l43.6 43.6v129.5zm0-281.9l-43.6 43.6h-129.5l-43.6-43.6V331.4l43.6-43.6h129.5l43.6 43.6v129.5zm277.7 1127.7l-43.6 43.6h-129.5l-43.6-43.6v-129.5l43.6-43.6h129.5l43.6 43.6v129.5zm0-281.9l-43.6 43.6h-129.5l-43.6-43.6v-129.5l43.6-43.6h129.5l43.6 43.6v129.5zm0-281.9l-43.6 43.6h-129.5l-43.6-43.6V895.2l43.6-43.6h129.5l43.6 43.6v129.6zm0-282l-43.6 43.6h-129.5l-43.6-43.6V613.3l43.6-43.6h129.5l43.6 43.6v129.5zm0-281.9l-43.6 43.6h-129.5l-43.6-43.6V331.4l43.6-43.6h129.5l43.6 43.6v129.5z" id="Layer_7"/>
    <g id="STROKES">
        <path class="st1" d="M513 1459.1v129.5l-43.6 43.6H339.9l-43.6-43.6v-129.5l43.6-43.7h129.5z"/>
        <path class="st1" d="M790.7 1459.1v129.5l-43.6 43.6H617.6l-43.6-43.6v-129.5l43.6-43.7h129.5z"/>
        <path class="st1" d="M1068.4 1459.1v129.5l-43.7 43.6H895.3l-43.7-43.6v-129.5l43.7-43.7h129.4z"/>
        <path class="st1" d="M1346 1459.1v129.5l-43.6 43.6h-129.5l-43.6-43.6v-129.5l43.6-43.7h129.5z"/>
        <path class="st1" d="M1623.7 1459.1v129.5l-43.6 43.6h-129.5l-43.6-43.6v-129.5l43.6-43.7h129.5z"/>
        <path class="st1" d="M357.8 1415.4h93.7v216.7h-93.7z"/>
        <path class="st1" d="M635.5 1415.4h93.7v216.7h-93.7z"/>
        <path class="st1" d="M913.1 1415.4h93.7v216.7h-93.7z"/>
        <path class="st1" d="M1190.8 1415.4h93.7v216.7h-93.7z"/>
        <path class="st1" d="M1468.5 1415.4h93.7v216.7h-93.7z"/>
        <path class="st1" d="M513 1177.2v129.5l-43.6 43.6H339.9l-43.6-43.6v-129.5l43.6-43.7h129.5z"/>
        <path class="st1" d="M790.7 1177.2v129.5l-43.6 43.6H617.6l-43.6-43.6v-129.5l43.6-43.7h129.5z"/>
        <path class="st1" d="M1068.4 1177.2v129.5l-43.7 43.6H895.3l-43.7-43.6v-129.5l43.7-43.7h129.4z"/>
        <path class="st1" d="M1346 1177.2v129.5l-43.6 43.6h-129.5l-43.6-43.6v-129.5l43.6-43.7h129.5z"/>
        <path class="st1" d="M1623.7 1177.2v129.5l-43.6 43.6h-129.5l-43.6-43.6v-129.5l43.6-43.7h129.5z"/>
        <path class="st1" d="M357.8 1133.5h93.7v216.7h-93.7z"/>
        <path class="st1" d="M635.5 1133.5h93.7v216.7h-93.7z"/>
        <path class="st1" d="M913.1 1133.5h93.7v216.7h-93.7z"/>
        <path class="st1" d="M1190.8 1133.5h93.7v216.7h-93.7z"/>
        <path class="st1" d="M1468.5 1133.5h93.7v216.7h-93.7z"/>
        <path class="st1" d="M513 895.3v129.4l-43.6 43.7H339.9l-43.6-43.7V895.3l43.6-43.7h129.5z"/>
        <path class="st1" d="M790.7 895.3v129.4l-43.6 43.7H617.6l-43.6-43.7V895.3l43.6-43.7h129.5z"/>
        <path class="st1" d="M1068.4 895.3v129.4l-43.7 43.7H895.3l-43.7-43.7V895.3l43.7-43.7h129.4z"/>
        <path class="st1" d="M1346 895.3v129.4l-43.6 43.7h-129.5l-43.6-43.7V895.3l43.6-43.7h129.5z"/>
        <path class="st1" d="M1623.7 895.3v129.4l-43.6 43.7h-129.5l-43.6-43.7V895.3l43.6-43.7h129.5z"/>
        <path class="st1" d="M357.8 851.6h93.7v216.7h-93.7z"/>
        <path class="st1" d="M635.5 851.6h93.7v216.7h-93.7z"/>
        <path class="st1" d="M913.1 851.6h93.7v216.7h-93.7z"/>
        <path class="st1" d="M1190.8 851.6h93.7v216.7h-93.7z"/>
        <path class="st1" d="M1468.5 851.6h93.7v216.7h-93.7z"/>
        <path class="st1" d="M513 613.3v129.5l-43.6 43.7H339.9l-43.6-43.7V613.3l43.6-43.6h129.5z"/>
        <path class="st1" d="M790.7 613.3v129.5l-43.6 43.7H617.6L574 742.8V613.3l43.6-43.6h129.5z"/>
        <path class="st1" d="M1068.4 613.3v129.5l-43.7 43.7H895.3l-43.7-43.7V613.3l43.7-43.6h129.4z"/>
        <path class="st1" d="M1346 613.3v129.5l-43.6 43.7h-129.5l-43.6-43.7V613.3l43.6-43.6h129.5z"/>
        <path class="st1" d="M1623.7 613.3v129.5l-43.6 43.7h-129.5l-43.6-43.7V613.3l43.6-43.6h129.5z"/>
        <path class="st1" d="M357.8 569.7h93.7v216.7h-93.7z"/>
        <path class="st1" d="M635.5 569.7h93.7v216.7h-93.7z"/>
        <path class="st1" d="M913.1 569.7h93.7v216.7h-93.7z"/>
        <path class="st1" d="M1190.8 569.7h93.7v216.7h-93.7z"/>
        <path class="st1" d="M1468.5 569.7h93.7v216.7h-93.7z"/>
        <path class="st1" d="M513 331.4v129.5l-43.6 43.7H339.9l-43.6-43.7V331.4l43.6-43.6h129.5z"/>
        <path class="st1" d="M790.7 331.4v129.5l-43.6 43.7H617.6L574 460.9V331.4l43.6-43.6h129.5z"/>
        <path class="st1" d="M1068.4 331.4v129.5l-43.7 43.7H895.3l-43.7-43.7V331.4l43.7-43.6h129.4z"/>
        <path class="st1" d="M1346 331.4v129.5l-43.6 43.7h-129.5l-43.6-43.7V331.4l43.6-43.6h129.5z"/>
        <path class="st1" d="M1623.7 331.4v129.5l-43.6 43.7h-129.5l-43.6-43.7V331.4l43.6-43.6h129.5z"/>
        <path class="st1" d="M357.8 287.8h93.7v216.7h-93.7z"/>
        <path class="st1" d="M635.5 287.8h93.7v216.7h-93.7z"/>
        <path class="st1" d="M913.1 287.8h93.7v216.7h-93.7z"/>
        <path class="st1" d="M1190.8 287.8h93.7v216.7h-93.7z"/>
        <path class="st1" d="M1468.5 287.8h93.7v216.7h-93.7z"/>
        <path class="st1" d="M216.9 216.9H1703V1703H216.9z"/>
    </g>
</svg>
