<svg xmlns="http://www.w3.org/2000/svg" viewBox="0 0 1920 1920">
    <style>
        .st0{fill:#fff}.st1{fill:none;stroke:#231f20;stroke-width:50;stroke-linecap:round;stroke-linejoin:round;stroke-miterlimit:10}
    </style>
    <path class="st0" d="M1325.4 1466.9c-5.8-22.6-18-43.1-35.3-58.9-21.4-19.6-52.8-48.5-82.6-76.3-33-30.8-64.2-60.3-77.8-74.6-12.1-12.7-25.8-53.6-38.4-101.6-23.9-90.7-44.4-206.8-44.4-206.8V840.2c0-12.4-.7-24.8-2.2-37.1-6.6-55.6-29.5-204.3-84.7-204.3s-78.1 148.7-84.7 204.3c-1.5 12.3-2.2 24.7-2.2 37.1v108.6s-20.5 116.2-44.4 206.9c-12.7 48-26.3 88.8-38.4 101.5-13.6 14.2-44.7 43.8-77.8 74.6-29.8 27.8-61.2 56.7-82.6 76.3-17.2 15.8-29.5 36.2-35.3 58.9l-6.9 27 265.2 37.1v99.1h214.3V1531l265.2-37.1-7-27z" id="Layer_2"/>
    <path class="st0" d="M712.5 699.9v631.9c33-30.8 64.2-60.4 77.8-74.6 12.1-12.7 25.8-53.5 38.4-101.5V699.9l-58.1-187.3-58.1 187.3zm436.9-187.3l-58.1 187.3v455.7c12.7 48 26.3 88.9 38.4 101.6 13.6 14.2 44.7 43.8 77.8 74.6V699.9l-58.1-187.3z" id="Layer_4"/>
    <path class="st0" d="M960 217c-128.4 45.7-131.3 271.6-131.3 271.6v667.1c24-90.7 44.4-206.9 44.4-206.9V840.2c0-12.4.7-24.8 2.2-37.1 6.6-55.6 29.5-204.3 84.7-204.3s78.1 148.7 84.7 204.3c1.5 12.3 2.2 24.7 2.2 37.1v108.6s20.5 116.2 44.4 206.8v-667c0-.1-2.9-225.9-131.3-271.6z" id="Layer_5"/>
    <path class="st0" d="M928 1630.1h-43.2c-17.7.5-32 15-32 32.8v7.3c0 18.1 14.7 32.8 32.8 32.8h41.5c18.1 0 32.8-14.7 32.8-32.8v-7.3c.1-17.8-14.1-32.3-31.9-32.8zm-75.1-99.1l-265.2-37.1-17.5 68.3 282.7 43.6V1531zm479.4-37.1l-265.2 37.1v74.8l282.7-43.6-17.5-68.3zm-301.7 136.2h-34.2c-10.1 0-19.2 4.1-25.8 10.7-6.6 6.6-10.7 15.7-10.7 25.8 0 20.1 16.3 36.5 36.5 36.5h34.2c10.1 0 19.2-4.1 25.8-10.7 6.6-6.6 10.7-15.7 10.7-25.8 0-20.2-16.3-36.5-36.5-36.5z" id="Layer_6"/>
    <g id="STROKES">
        <path class="st1" d="M928 1630.1h-43.2H928z"/>
        <path class="st1" d="M960 1662.9v7.3c0 18.1-14.7 32.8-32.8 32.8h-41.5c-18.1 0-32.8-14.7-32.8-32.8v-7.3c0-17.8 14.2-32.3 32-32.8h43.2c17.7.5 31.9 15 31.9 32.8z"/>
        <path class="st1" d="M1067.1 1666.6c0 10.1-4.1 19.2-10.7 25.8-6.6 6.6-15.7 10.7-25.8 10.7h-34.2c-20.1 0-36.5-16.3-36.5-36.5 0-10.1 4.1-19.2 10.7-25.8 6.6-6.6 15.7-10.7 25.8-10.7h34.2c20.2 0 36.5 16.3 36.5 36.5z"/>
        <path class="st1" d="M1046.9 840.2v572.7c-16.8-20.8-42.5-34.1-71.3-34.1-8.6 0-15.6 7-15.6 15.6 0-8.6-7-15.6-15.6-15.6-28.8 0-54.5 13.3-71.3 34.1V840.2c0-12.4.7-24.8 2.2-37.1 6.6-55.6 29.5-204.3 84.7-204.3s78.1 148.7 84.7 204.3c1.5 12.3 2.2 24.7 2.2 37.1z"/>
        <path class="st1" d="M1091.3 488.5v667c-23.9-90.7-44.4-206.8-44.4-206.8V840.2c0-12.4-.7-24.8-2.2-37.1-6.6-55.6-29.5-204.3-84.7-204.3s-78.1 148.7-84.7 204.3c-1.5 12.3-2.2 24.7-2.2 37.1v108.6s-20.5 116.2-44.4 206.9V488.5s2.9-225.9 131.3-271.6c128.4 45.8 131.3 271.6 131.3 271.6z"/>
        <path class="st1" d="M828.7 699.9v455.7c-12.7 48-26.3 88.8-38.4 101.5-13.6 14.2-44.7 43.8-77.8 74.6V699.9l58.1-187.3 58.1 187.3z"/>
        <path class="st1" d="M1067.1 1531v-60.8c0-21.7-7.6-41.6-20.2-57.3V948.7s20.5 116.2 44.4 206.8c12.7 48 26.3 88.9 38.4 101.6 13.6 14.2 44.7 43.8 77.8 74.6 29.8 27.8 61.2 56.7 82.6 76.3 17.2 15.8 29.5 36.2 35.3 58.9l6.9 27-265.2 37.1z"/>
        <path class="st1" d="M1349.8 1562.2l-282.7 43.6V1531l265.2-37.1z"/>
        <path class="st1" d="M1207.5 699.9v631.8c-33-30.8-64.2-60.3-77.8-74.6-12.1-12.7-25.8-53.6-38.4-101.6V699.9l58.1-187.3 58.1 187.3z"/>
        <path class="st1" d="M712.5 699.9h116.2"/>
        <path class="st1" d="M712.5 849.6h116.2"/>
        <path class="st1" d="M712.5 1094.8h116.2"/>
        <path class="st1" d="M1091.3 699.9h116.2"/>
        <path class="st1" d="M1091.3 849.6h116.2"/>
        <path class="st1" d="M1091.3 1094.8h116.2"/>
        <path class="st1" d="M960 1394.4v235.7H852.8v-159.9c0-21.7 7.6-41.6 20.2-57.3 16.8-20.8 42.5-34.1 71.3-34.1 8.7 0 15.7 7 15.7 15.6z"/>
        <path class="st1" d="M873.1 948.7v464.2c-12.6 15.7-20.2 35.6-20.2 57.3v60.8l-265.2-37.1 6.9-27c5.8-22.6 18-43.1 35.3-58.9 21.4-19.6 52.8-48.5 82.6-76.3 33-30.8 64.2-60.4 77.8-74.6 12.1-12.7 25.8-53.5 38.4-101.5 24-90.7 44.4-206.9 44.4-206.9z"/>
        <path class="st1" d="M1067.1 1470.2v159.9H960v-235.7c0-8.6 7-15.6 15.6-15.6 28.8 0 54.5 13.3 71.3 34.1 12.6 15.7 20.2 35.6 20.2 57.3z"/>
        <path class="st1" d="M852.9 1531v74.8l-282.7-43.6 17.5-68.3z"/>
        <path class="st1" d="M932.1 785h55.8"/>
    </g>
</svg>
