<svg xmlns="http://www.w3.org/2000/svg" viewBox="0 0 1920 1920">
    <style>
        .st0{fill:#fff}.st1{fill:none;stroke:#231f20;stroke-width:50;stroke-linecap:round;stroke-linejoin:round;stroke-miterlimit:10}
    </style>
    <path class="st0" d="M960 217c-410.4 0-743 332.7-743 743s332.7 743.1 743 743.1 743-332.7 743-743.1-332.6-743-743-743zm441.8 744.5c-.1 33.2-3.9 65.5-10.9 96.5-24.6 108.6-89.2 202-177.5 263.9-29.5 20.7-61.6 37.8-95.8 50.9-15.3 5.8-30.9 10.8-46.9 15-23.5 6.1-47.8 10.2-72.7 12.3-12.5 1.1-25.2 1.6-38 1.6-25.4 0-50.3-2.1-74.6-6.3-63.9-10.9-123.1-35.4-174.6-70.6-16.6-11.3-32.4-23.8-47.2-37.3-36.2-32.8-67-71.5-90.8-114.6-20.9-38-36.4-79.4-45.5-123.1-5.8-28.3-9-57.6-9.1-87.6v-2.3c0-53.2 9.4-104.2 26.6-151.4 17.6-48.2 43.3-92.5 75.5-131.2 59.5-71.4 141.1-123.8 234.3-146.6 33.8-8.3 69.1-12.6 105.4-12.6 4.2 0 8.3 0 12.4.2.8 0 1.5 0 2.3.1 37.1 1.2 73 7 107.3 16.8.7.2 1.3.4 2 .6 35.2 10.3 68.6 24.8 99.5 43l1.5.9c34.5 20.5 66 45.5 93.7 74.2 53.8 56 93 126.1 111.4 204.2 7.7 32.7 11.8 66.8 11.8 101.9-.1.5-.1 1-.1 1.5z" id="Layer_10"/>
    <path class="st0" d="M1390 858.1c-18.4-78.1-57.6-148.3-111.4-204.2-27.6-28.8-59.1-53.8-93.7-74.2l-1.5-.9c-31-18.2-64.3-32.7-99.5-43-.7-.2-1.3-.4-2-.6-34.2-9.8-70.2-15.6-107.3-16.8-.8 0-1.5 0-2.3-.1-4.1-.1-8.3-.2-12.4-.2-36.3 0-71.6 4.4-105.4 12.6-93.2 22.8-174.8 75.2-234.3 146.6-32.2 38.7-58 83-75.5 131.2-17.2 47.2-26.6 98.2-26.6 151.4v2.3c.2 30 3.3 59.3 9.1 87.6 9.1 43.8 24.6 85.1 45.5 123.1 23.8 43.1 54.5 81.8 90.8 114.6 14.9 13.5 30.6 25.9 47.2 37.3 51.4 35.2 110.6 59.8 174.6 70.6 24.2 4.1 49.2 6.3 74.6 6.3 12.8 0 25.5-.6 38-1.6 24.9-2.1 49.1-6.3 72.7-12.3 16-4.1 31.7-9.2 46.9-15 34.2-13 66.3-30.2 95.8-50.9 88.3-61.9 152.9-155.3 177.5-263.9 7-31.1 10.8-63.4 10.9-96.5V960c.1-35-4-69.2-11.7-101.9zm-180.5 129.3c-7.3-4.7-14.5-10.6-21.6-17.8-1.7 10.1-2.6 20.4-3.4 30.9-1.2 15.7-2.2 31.5-5.7 46.7-13.1 56.5-67.4 100.3-113.4 94.2-3.2-.4-6.4-1.1-9.6-2.1-16.8-5-31.5-16.2-49.1-18.4-20.5-2.5-40.6 7.3-60.8 19.7-26.1 16-52.3 36.3-79.7 39.8-.6.1-1.2.2-1.8.2-33.3 3.3-62.2-20-79-51.1-17-31.7-23.6-70.6-30-108.8-.8-4.9-1.6-10.3.2-15.3 2.3-6.7 8.3-10.7 12.4-16.3 2.4-3.3 4-6.8 4.9-10.5 3.9-15.1-3.3-32.3-12.9-42.5-11.9-12.8-27.8-22.9-31.4-42.2-1-5.4-1-11.4.9-17 3-9.3 10.3-16.1 17.1-22.4 5-4.5 10-9.1 15-13.6 15.2-13.8 30.3-27.5 45.5-41.3 15.8-14.4 32-29 50-37.8.3-.2.7-.3 1-.5 17.5-8.3 35.7-10.7 53.7-15.6 1.9-.5 3.8-1 5.7-1.6 40.1-12.2 79.2-41.5 119.1-43.1 1-.1 1.9-.1 2.9-.1 24.3-.2 47.1 11 62.6 30.8 15.6 19.9 23.2 47.1 30.2 73.8.3 1 .5 2 .8 3.1.3 1.2.6 2.3.9 3.5.1.5.2 1.1.4 1.6l1.2 5.7c.2 1.1.5 2.3.7 3.5.1.4.2.8.2 1.1.1.6.3 1.3.4 1.9.6 2.8 1.2 5.6 1.9 8.3.7 2.8 1.4 5.6 2.2 8.2.2.7.5 1.5.7 2.2 29.3-40.7 78.5-40.9 105.8-37.2 11.9 1.6 19.7 4 19.7 4-6.6 22.5-14.2 41.1-22.4 56.3-4 7.5-8.2 14.1-12.4 20.1 31.6 2.1 71.7 19.3 118.7 69.6 2.3 2.5 4.7 5 7 7.7-.1-.1-76.3 69.2-148.6 22.3z" id="Layer_11"/>
    <path class="st0" d="M1160.7 933.5c-24.6 2.4-42.7-6.2-42.7-6.2 1.4-37.9 10.6-64.3 23.7-82.6-.2-.7-.5-1.5-.7-2.2-.8-2.7-1.6-5.5-2.2-8.2-.7-2.8-1.3-5.5-1.9-8.3-.1-.6-.3-1.3-.4-1.9-.1-.4-.2-.8-.2-1.1-.2-1.2-.5-2.3-.7-3.5l-1.2-5.7c-.1-.5-.2-1.1-.4-1.6-.3-1.2-.6-2.4-.9-3.5-.3-1-.5-2-.8-3.1-7-26.7-14.7-53.9-30.2-73.8-15.4-19.7-38.2-31-62.6-30.8-1 0-1.9 0-2.9.1-39.9 1.6-78.9 30.9-119.1 43.1-1.9.6-3.8 1.1-5.7 1.6-18 4.9-36.2 7.2-53.7 15.6-.3.2-.7.3-1 .5-18 8.8-34.2 23.4-50 37.8-15.1 13.8-30.3 27.5-45.5 41.3-5 4.5-10 9.1-15 13.6-6.8 6.2-14.1 13.1-17.1 22.4-1.8 5.6-1.9 11.6-.9 17 3.7 19.3 19.5 29.4 31.4 42.2 9.6 10.2 16.8 27.5 12.9 42.5-.9 3.7-2.5 7.2-4.9 10.5-4.1 5.6-10 9.7-12.4 16.3-1.8 5.1-1 10.4-.2 15.3 6.3 38.2 12.9 77.2 30 108.8 16.7 31.1 45.6 54.3 79 51.1.6-.1 1.2-.1 1.8-.2 27.4-3.5 53.6-23.8 79.7-39.8 20.2-12.4 40.3-22.2 60.8-19.7 17.5 2.1 32.3 13.3 49.1 18.4 3.1.9 6.3 1.6 9.6 2.1 45.9 6.1 100.2-37.6 113.4-94.2 3.5-15.2 4.5-31 5.7-46.7.8-10.5 1.6-20.8 3.4-30.9-9.4-9.7-18.5-21.6-27.2-36.2z" id="Layer_12"/>
    <path class="st0" d="M1351 957.3c-47-50.3-87.1-67.5-118.7-69.6 4.3-5.9 8.4-12.6 12.4-20.1 8.2-15.2 15.8-33.7 22.4-56.3 0 0-7.7-2.4-19.7-4-27.3-3.7-76.4-3.5-105.8 37.2-13.2 18.2-22.3 44.7-23.7 82.6 0 0 18.1 8.7 42.7 6.2 8.7 14.6 17.9 26.5 27.2 36 7.1 7.2 14.3 13.1 21.6 17.8 72.4 46.9 148.6-22.4 148.6-22.4-2.3-2.3-4.6-4.9-7-7.4z" id="Layer_13"/>
    <g id="STROKES">
        <path class="st1" d="M998 1400.2c-12.5 1.1-25.2 1.6-38 1.6-25.4 0-50.3-2.1-74.6-6.3 9.5-7.1 18.6-14.9 27.1-23.5 16.9-16.9 30.9-35.9 42-56.3 10.3 30.1 25 58.4 43.5 84.5z"/>
        <path class="st1" d="M972.4 518.3c-26.6 72.8-46.3 154-60.6 227.4-18 4.9-36.2 7.2-53.7 15.6-.3.2-.7.3-1 .5-17.8-11.7-36.1-22.1-54.6-31.4-59.2-29.8-121.3-47.5-182.2-52.9 59.5-71.4 141.1-123.8 234.3-146.6 33.8-8.3 69.1-12.6 105.4-12.6 4.2-.1 8.3-.1 12.4 0z"/>
        <path class="st1" d="M1390 858.1c-13.8-1.2-27.8-1.8-41.9-1.8h-10.7c-1.2 0-2.4.1-3.5.1-1.3 0-2.6.1-3.8.1-1 0-2 .1-3 .1-1.4.1-2.7.1-4 .2-1.1.1-2.2.1-3.3.2-.8 0-1.5.1-2.3.1-.8 0-1.7.1-2.5.2-1 .1-2 .1-3 .2-1.2.1-2.4.2-3.5.3l-3.3.3c-1.6.1-3.2.3-4.8.5-.6.1-1.2.1-1.7.2-2.2.2-4.3.5-6.5.7-1.1.1-2.2.3-3.2.4-2.1.3-4.3.5-6.4.8-1.1.2-2.1.3-3.2.5s-2.1.3-3.2.5-2.1.3-3.2.5c-2.8.5-5.7.9-8.5 1.4l-6.6 1.2c-4.4.9-8.8 1.8-13.1 2.8 8.2-15.2 15.8-33.7 22.4-56.3 0 0-7.7-2.4-19.7-4 7.8-46.9 18-100 31.1-153.6 53.8 56.2 93 126.3 111.4 204.4z"/>
        <path class="st1" d="M1390.9 1058.1c-24.6 108.6-89.2 202-177.5 263.9-30.4-28.5-49-66.7-49-108.6 0-88.2 82.2-159.7 183.7-159.7 14.7 0 29.1 1.5 42.8 4.4z"/>
        <path class="st1" d="M998 1400.2c-12.5 1.1-25.2 1.6-38 1.6-25.4 0-50.3-2.1-74.6-6.3 9.5-7.1 18.6-14.9 27.1-23.5 16.9-16.9 30.9-35.9 42-56.3 10.3 30.1 25 58.4 43.5 84.5z"/>
        <path class="st1" d="M972.4 518.3c-26.6 72.8-46.3 154-60.6 227.4-18 4.9-36.2 7.2-53.7 15.6-.3.2-.7.3-1 .5-17.8-11.7-36.1-22.1-54.6-31.4-59.2-29.8-121.3-47.5-182.2-52.9 59.5-71.4 141.1-123.8 234.3-146.6 33.8-8.3 69.1-12.6 105.4-12.6 4.2-.1 8.3-.1 12.4 0z"/>
        <path class="st1" d="M1278.6 653.9c-13.1 53.6-23.4 106.7-31.1 153.6-27.3-3.7-76.4-3.5-105.8 37.2-.2-.7-.5-1.5-.7-2.2-.8-2.7-1.6-5.5-2.2-8.2-.7-2.8-1.3-5.5-1.9-8.3-.1-.6-.3-1.3-.4-1.9-.1-.4-.2-.8-.2-1.1-.2-1.2-.5-2.3-.7-3.5l-1.2-5.7c-.1-.5-.2-1.1-.4-1.6-.3-1.2-.6-2.4-.9-3.5-.3-1-.5-2-.8-3.1 11.4-68.5 28-149.7 51.2-226.7l1.5.9c34.5 20.3 66 45.3 93.6 74.1z"/>
        <path class="st1" d="M1390 858.1c-13.8-1.2-27.8-1.8-41.9-1.8h-10.7c-1.2 0-2.4.1-3.5.1-1.3 0-2.6.1-3.8.1-1 0-2 .1-3 .1-1.4.1-2.7.1-4 .2-1.1.1-2.2.1-3.3.2-.8 0-1.5.1-2.3.1-.8 0-1.7.1-2.5.2-1 .1-2 .1-3 .2-1.2.1-2.4.2-3.5.3l-3.3.3c-1.6.1-3.2.3-4.8.5-.6.1-1.2.1-1.7.2-2.2.2-4.3.5-6.5.7-1.1.1-2.2.3-3.2.4-2.1.3-4.3.5-6.4.8-1.1.2-2.1.3-3.2.5s-2.1.3-3.2.5-2.1.3-3.2.5c-2.8.5-5.7.9-8.5 1.4l-6.6 1.2c-4.4.9-8.8 1.8-13.1 2.8 8.2-15.2 15.8-33.7 22.4-56.3 0 0-7.7-2.4-19.7-4 7.8-46.9 18-100 31.1-153.6 53.8 56.2 93 126.3 111.4 204.4z"/>
        <path class="st1" d="M1390.9 1058.1c-24.6 108.6-89.2 202-177.5 263.9-30.4-28.5-49-66.7-49-108.6 0-88.2 82.2-159.7 183.7-159.7 14.7 0 29.1 1.5 42.8 4.4z"/>
        <path class="st1" d="M1390.9 1058.1c-24.6 108.6-89.2 202-177.5 263.9-30.4-28.5-49-66.7-49-108.6 0-88.2 82.2-159.7 183.7-159.7 14.7 0 29.1 1.5 42.8 4.4z"/>
        <path class="st1" d="M1390.9 1058.1c-24.6 108.6-89.2 202-177.5 263.9-30.4-28.5-49-66.7-49-108.6 0-88.2 82.2-159.7 183.7-159.7 14.7 0 29.1 1.5 42.8 4.4z"/>
        <path class="st1" d="M1117.6 1372.9c-15.3 5.8-30.9 10.8-46.9 15-23.5 6.1-47.8 10.2-72.7 12.3-18.5-26.1-33.2-54.4-43.5-84.4-11.1-32.4-17.1-66.8-17.1-102.3 0-25 2.9-49.3 8.6-72.9 20.2-12.4 40.3-22.2 60.8-19.7 17.5 2.1 32.3 13.3 49.1 18.4 3.1.9 6.3 1.6 9.6 2.1-7.7 22.9-11.9 47.1-11.9 72.2 0 45.9 13.9 88.9 38.2 126.1 7.5 11.6 16.2 22.7 25.8 33.2z"/>
        <path class="st1" d="M1187.9 969.5c7.1 7.2 14.3 13.1 21.6 17.8-8.6 4-16.9 8.3-25 13 .8-10.3 1.6-20.7 3.4-30.8z"/>
        <path class="st1" d="M1401.8 960v1.5c-16.5-2.6-33.5-4.1-50.8-4.2-47-50.3-87.1-67.5-118.7-69.6 4.3-5.9 8.4-12.6 12.4-20.1 4.4-1 8.7-1.9 13.1-2.8l6.6-1.2c2.8-.5 5.7-1 8.5-1.4 1.1-.2 2.1-.3 3.2-.5s2.1-.3 3.2-.5 2.1-.3 3.2-.5c2.1-.3 4.3-.6 6.4-.8 1.1-.1 2.1-.3 3.2-.4 2.1-.3 4.3-.5 6.5-.7.6-.1 1.2-.1 1.7-.2 1.6-.2 3.2-.3 4.8-.5l3.3-.3c1.2-.1 2.4-.2 3.5-.3l3-.2c.8-.1 1.7-.1 2.5-.2.8 0 1.5-.1 2.3-.1 1.1-.1 2.2-.1 3.3-.2 1.3-.1 2.7-.1 4-.2 1 0 2-.1 3-.1 1.3 0 2.6-.1 3.8-.1 1.2 0 2.4-.1 3.5-.1h10.7c14.1 0 28.1.6 41.9 1.8 7.8 32.7 11.9 66.9 11.9 101.9z"/>
        <path class="st1" d="M1390.9 1058.1c-24.6 108.6-89.2 202-177.5 263.9-30.4-28.5-49-66.7-49-108.6 0-88.2 82.2-159.7 183.7-159.7 14.7 0 29.1 1.5 42.8 4.4z"/>
        <path class="st1" d="M998 1400.2c-12.5 1.1-25.2 1.6-38 1.6-25.4 0-50.3-2.1-74.6-6.3 9.5-7.1 18.6-14.9 27.1-23.5 16.9-16.9 30.9-35.9 42-56.3 10.3 30.1 25 58.4 43.5 84.5z"/>
        <path class="st1" d="M773 978.5c-80.8-66-188.4-73.6-254.8-16.2V960c0-53.2 9.4-104.2 26.6-151.4 68.8-14.3 145.7-3.1 216.9 32.2-5 4.5-10 9.1-15 13.6-6.8 6.2-14.1 13.1-17.1 22.4-1.8 5.6-1.9 11.6-.9 17 3.7 19.3 19.5 29.4 31.4 42.2 9.6 10.2 16.8 27.4 12.9 42.5z"/>
        <path class="st1" d="M954.5 1315.8c-11.1 20.4-25 39.4-42 56.3-8.6 8.6-17.6 16.4-27.1 23.5-63.9-10.9-123.1-35.4-174.6-70.6 41.1-1.9 79.4-17 108.4-46 26.6-26.6 41.5-61.1 45.2-98.3.6-.1 1.2-.1 1.8-.2 27.4-3.5 53.6-23.8 79.7-39.8-5.6 23.5-8.6 47.9-8.6 72.9.1 35.4 6.1 69.8 17.2 102.2z"/>
        <path class="st1" d="M785.5 1129.5c-17-31.7-23.6-70.6-30-108.8-.8-4.9-1.6-10.3.2-15.3 2.3-6.7 8.3-10.7 12.4-16.3 2.4-3.3 4-6.8 4.9-10.5-80.8-66-188.4-73.6-254.8-16.2.2 30 3.3 59.3 9.1 87.6 9.1 43.8 24.6 85.1 45.5 123.1 23.8 43.1 54.5 81.8 90.8 114.6 14.9 13.5 30.6 25.9 47.2 37.3 41.1-1.9 79.4-17 108.4-46 26.6-26.6 41.5-61.1 45.2-98.3-33.3 3.1-62.2-20.1-78.9-51.2z"/>
        <path class="st1" d="M972.4 518.3c-26.6 72.8-46.3 154-60.6 227.4-18 4.9-36.2 7.2-53.7 15.6-.3.2-.7.3-1 .5-17.8-11.7-36.1-22.1-54.6-31.4 12-74 31.1-141.3 52-199.5 33.8-8.3 69.1-12.6 105.4-12.6 4.3-.1 8.4-.1 12.5 0z"/>
        <path class="st1" d="M1082 535.2c-18.5 53.5-33.4 110.8-45.4 165.7-39.9 1.6-78.9 30.9-119.1 43.1-1.9.6-3.8 1.1-5.7 1.6 14.2-73.4 33.9-154.6 60.6-227.4.8 0 1.5 0 2.3.1 37.1 1.3 73 7.1 107.3 16.9z"/>
        <path class="st1" d="M857.2 761.8c-18 8.8-34.2 23.4-50 37.8-15.1 13.8-30.3 27.5-45.5 41.3-71.2-35.3-148.1-46.5-216.9-32.2 17.6-48.2 43.3-92.5 75.5-131.2 60.9 5.3 123 23.1 182.2 52.9 18.6 9.2 36.8 19.7 54.7 31.4z"/>
        <path class="st1" d="M1183.5 578.8c-23.2 77-39.8 158.2-51.2 226.7-7-26.7-14.7-53.9-30.2-73.8-15.4-19.7-38.2-31-62.6-30.8-1 0-1.9 0-2.9.1 11.9-54.9 26.8-112.2 45.4-165.7.7.2 1.3.4 2 .6 35.1 10.2 68.5 24.7 99.5 42.9z"/>
        <path class="st1" d="M1401.8 961.5c-.1 33.2-3.9 65.5-10.9 96.5-13.7-2.9-28.1-4.4-42.8-4.4-101.5 0-183.7 71.5-183.7 159.7 0 41.9 18.6 80.1 49 108.6-29.5 20.7-61.6 37.8-95.8 50.9-9.6-10.5-18.3-21.6-25.9-33.3-24.3-37.2-38.2-80.3-38.2-126.1 0-25.1 4.1-49.3 11.9-72.2 45.9 6.1 100.2-37.6 113.4-94.2 3.5-15.2 4.5-31 5.7-46.7 8-4.7 16.4-9.1 25-13 72.4 46.9 148.6-22.4 148.6-22.4-2.4-2.7-4.7-5.2-7-7.7 17.3.3 34.2 1.7 50.7 4.3z"/>
        <path class="st1" d="M1187.9 969.5c-1.7 10.1-2.6 20.4-3.4 30.9-1.2 15.7-2.2 31.5-5.7 46.7-13.1 56.5-67.4 100.3-113.4 94.2-3.2-.4-6.4-1.1-9.6-2.1-16.8-5-31.5-16.2-49.1-18.4-20.5-2.5-40.6 7.3-60.8 19.7-26.1 16-52.3 36.3-79.7 39.8-.6.1-1.2.2-1.8.2-33.3 3.3-62.2-20-79-51.1-17-31.7-23.6-70.6-30-108.8-.8-4.9-1.6-10.3.2-15.3 2.3-6.7 8.3-10.7 12.4-16.3 2.4-3.3 4-6.8 4.9-10.5 3.9-15.1-3.3-32.3-12.9-42.5-11.9-12.8-27.8-22.9-31.4-42.2-1-5.4-1-11.4.9-17 3-9.3 10.3-16.1 17.1-22.4 5-4.5 10-9.1 15-13.6 15.2-13.8 30.3-27.5 45.5-41.3 15.8-14.4 32-29 50-37.8.3-.2.7-.3 1-.5 17.5-8.3 35.7-10.7 53.7-15.6 1.9-.5 3.8-1 5.7-1.6 40.1-12.2 79.2-41.5 119.1-43.1 1-.1 1.9-.1 2.9-.1 24.3-.2 47.1 11 62.6 30.8 15.6 19.9 23.2 47.1 30.2 73.8.3 1 .5 2 .8 3.1.3 1.2.6 2.3.9 3.5.1.5.2 1.1.4 1.6l1.2 5.7c.2 1.1.5 2.3.7 3.5.1.4.2.8.2 1.1.1.6.3 1.3.4 1.9.6 2.8 1.2 5.6 1.9 8.3.7 2.8 1.4 5.6 2.2 8.2.2.7.5 1.5.7 2.2-13.2 18.2-22.3 44.7-23.7 82.6 0 0 18.1 8.7 42.7 6.2 8.7 14.8 17.8 26.7 27.2 36.2z"/>
        <path class="st1" d="M960 217c-410.4 0-743 332.7-743 743s332.7 743.1 743 743.1 743-332.7 743-743.1-332.6-743-743-743zm441.8 744.5c-.1 33.2-3.9 65.5-10.9 96.5-24.6 108.6-89.2 202-177.5 263.9-29.5 20.7-61.6 37.8-95.8 50.9-15.3 5.8-30.9 10.8-46.9 15-23.5 6.1-47.8 10.2-72.7 12.3-12.5 1.1-25.2 1.6-38 1.6-25.4 0-50.3-2.1-74.6-6.3-63.9-10.9-123.1-35.4-174.6-70.6-16.6-11.3-32.4-23.8-47.2-37.3-36.2-32.8-67-71.5-90.8-114.6-20.9-38-36.4-79.4-45.5-123.1-5.8-28.3-9-57.6-9.1-87.6v-2.3c0-53.2 9.4-104.2 26.6-151.4 17.6-48.2 43.3-92.5 75.5-131.2 59.5-71.4 141.1-123.8 234.3-146.6 33.8-8.3 69.1-12.6 105.4-12.6 4.2 0 8.3 0 12.4.2.8 0 1.5 0 2.3.1 37.1 1.2 73 7 107.3 16.8.7.2 1.3.4 2 .6 35.2 10.3 68.6 24.8 99.5 43l1.5.9c34.5 20.5 66 45.5 93.7 74.2 53.8 56 93 126.1 111.4 204.2 7.7 32.7 11.8 66.8 11.8 101.9-.1.5-.1 1-.1 1.5z"/>
        <path class="st1" d="M663.6 1287.7c-36.2-32.8-67-71.5-90.8-114.6-20.9-38-36.4-79.4-45.5-123.1 39-17 107.6-40.2 142.2-12.7 44.7 35.4 106.9 167.5-5.9 250.4z"/>
        <path class="st1" d="M1358 965s-76.2 69.3-148.6 22.4c-7.3-4.7-14.5-10.6-21.6-17.8-9.3-9.5-18.5-21.4-27.2-36-2.6-4.3-5.1-8.9-7.6-13.7 0 0 17.3-21.4 48.7-29.3 9-2.3 19.3-3.5 30.6-2.7 31.6 2.1 71.7 19.3 118.7 69.6 2.4 2.3 4.7 4.9 7 7.5z"/>
        <path class="st1" d="M1267.1 811.4c-6.6 22.5-14.2 41.1-22.4 56.3-4 7.5-8.2 14.1-12.4 20.1-11.3-.8-21.5.4-30.6 2.7-31.4 8-48.7 29.3-48.7 29.3 2.5 4.8 5 9.4 7.6 13.7-24.6 2.4-42.7-6.2-42.7-6.2 1.4-37.9 10.6-64.3 23.7-82.6 29.3-40.7 78.5-40.9 105.8-37.2 12 1.6 19.7 3.9 19.7 3.9z"/>
        <path class="st1" d="M572.8 1173c66-58.2 138-78.3 138-78.3"/>
        <path class="st1" d="M755.7 1005.3s40.7 23 81.7-12.9 6.2-68.7 6.2-68.7"/>
        <path class="st1" d="M946 1140.6s-53.1-70.2-8.6-101c44.5-30.8 65 6.2 65 6.2"/>
        <path class="st1" d="M949.8 827.9c-8.4 12.9-6.9 30.6 1.2 43.7s21.8 21.9 36.3 27c7.8 2.7 16 4.5 24.2 3.5s16.2-5 20.6-12"/>
    </g>
</svg>
