<svg xmlns="http://www.w3.org/2000/svg" viewBox="0 0 1920 1920">
    <style>
        .st0{fill:#fff}.st1{fill:none;stroke:#000;stroke-width:50;stroke-linecap:round;stroke-linejoin:round;stroke-miterlimit:10}
    </style>
    <path class="st0" d="M1703 887.8c-2.5 2.5-161.6 160.7-503.1 238.8-45.9 34.7-111.5 31.2-153.4-10.6-45.8 45.7-120 45.7-165.7-.1h-.1c-45.8 45.8-120 45.8-165.8 0h-.3c-45.8 45.8-120.1 45.8-165.9 0h-.1c-40.6 40.7-103.7 45.2-149.4 13.7 0 0 802.2-151.1 889.5-161.4C1376 958 1682.2 905 1703 887.8z" id="Layer_2"/>
    <path class="st0" d="M1703 887.8c-20.8 17.2-327 70.2-414.3 80.5-87.3 10.3-889.5 161.4-889.5 161.4 3.4-5.1 72.9-96.3 72.9-96.3L728.9 958l28.1-9.2 160.5-52.9 87-28.6 137 37.7 561.5-17.2z" id="Layer_3"/>
    <path class="st0" d="M917.2 895l.3.9L757 948.8l160.2-160.3 71.9-5.1z" id="Layer_4"/>
    <g id="STROKES">
        <path class="st1" d="M1703 887.8c-2.5 2.5-161.6 160.7-503.1 238.8"/>
        <path class="st1" d="M399.2 1129.7c3.4-5.1 72.9-96.3 72.9-96.3L728.9 958l28.1-9.2 160.5-52.9 87-28.6 137 37.7 561.5-17.1"/>
        <path class="st1" d="M399.2 1129.7s802.2-151.1 889.5-161.4C1376 958 1682.2 905 1703 887.8"/>
        <path class="st1" d="M757 948.8l160.2-160.3 71.9-5.1L917.2 895"/>
        <path class="st1" d="M836.8 769.7l80.4 18.8"/>
        <path class="st1" d="M548.6 1116c-40.6 40.7-103.7 45.2-149.4 13.7-5.8-4-11.3-8.5-16.4-13.7"/>
        <path class="st1" d="M382.8 1116c-45.8 45.8-120.1 45.8-165.9 0"/>
        <path class="st1" d="M714.5 1116c-45.8 45.8-120.1 45.8-165.9 0"/>
        <path class="st1" d="M880.7 1116c-45.8 45.8-120 45.8-165.8 0"/>
        <path class="st1" d="M1046.7 1116l-.1.1c-45.8 45.7-120 45.7-165.7-.1"/>
        <path class="st1" d="M1212.3 1116c-3.9 3.9-8 7.5-12.3 10.7-45.9 34.7-111.5 31.2-153.4-10.6l-.1-.1"/>
    </g>
</svg>
