<svg xmlns="http://www.w3.org/2000/svg" viewBox="0 0 1920 1920">
    <style>
        .st0{fill:#fff}.st1{fill:none;stroke:#000;stroke-width:50;stroke-linecap:round;stroke-linejoin:round;stroke-miterlimit:10}
    </style>
    <path class="st0" d="M847 957.8s-88-32-180 60c-26.9 26.9-70.5 42.4-116.5 51.2-122.1-40.6-236.3-130.6-331.5-241.2l572 50.4 130 11.5 62.1 5.5 126 11.1 382 33.6 32 44-36.3 68.8-19.7 37.2 1.3 2.5c-12.6 6.2-25.1 13.9-37.3 23.4-82.5 64.6-315.8-33-400-16-137.4 27.7-226-20.1-246-54-28.1-47.5 61.9-88 61.9-88z" id="Layer_5"/>
    <path class="st0" d="M1628.8 877.8c19.7 3.5 34 20.8 33.7 40.8l-1.3 87.1c-.1 9.2-3.4 18.1-9.2 25.2a96.651 96.651 0 0 1-74.9 35.6c-4.9 0-9.9-.4-14.9-1.2l-73.2-11.4-2.3-1.2 36.3-68.8-32-44 33.4-54.3c8.8-14.3 25.4-21.7 41.9-18.8l62.5 11z" id="Layer_6"/>
    <path class="st0" d="M1109 906.2l-126-11.1c0-69.6 28.2-113.3 63-113.3 34.5 0 62.6 55.5 63 124.4zM823 782.8l-32 95v.4l130 11.5-32-97.9-66-9z" id="Layer_7"/>
    <g id="STROKES">
        <path class="st1" d="M553 1069.8c-.8-.3-1.7-.6-2.5-.8-122.1-40.6-236.3-130.6-331.5-241.2l572 50.4 130 11.5 62.1 5.5 126 11.1 382 33.6 32 44-36.3 68.8-19.7 37.2"/>
        <path class="st1" d="M1491 939.8l33.4-54.3c8.8-14.3 25.4-21.7 41.9-18.8l62.5 11.1c19.7 3.5 34 20.8 33.7 40.8l-1.3 87.1c-.1 9.2-3.4 18.1-9.2 25.2a96.651 96.651 0 0 1-74.9 35.6c-4.9 0-9.9-.4-14.9-1.2l-73.2-11.4"/>
        <path class="st1" d="M791 877.8l32-95 66 9 31.9 97.8.1.2"/>
        <path class="st1" d="M983 895.1c0-69.6 28.2-113.3 63-113.3 34.5 0 62.6 55.5 63 124.4v1.6"/>
        <path class="st1" d="M359 1077.8c5.3 0 102.9 8 191.5-8.8 46-8.8 89.6-24.3 116.5-51.2 92-92 180-60 180-60s-90 40.5-62 88c20 33.9 108.6 81.7 246 54 84.2-17 317.5 80.6 400 16 12.2-9.5 24.7-17.3 37.3-23.4 111.6-54.8 232.7 11.5 232.7 11.5"/>
        <path class="st1" d="M803 989.8s650.4 45.1 693 44"/>
        <path class="st1" d="M373 967.8s305.5 20.7 328 20.1"/>
    </g>
</svg>
