<svg xmlns="http://www.w3.org/2000/svg" viewBox="0 0 1920 1920">
    <style>
        .st0{fill:#fff}.st1{fill:none;stroke:#000;stroke-width:50;stroke-linecap:round;stroke-linejoin:round;stroke-miterlimit:10}
    </style>
    <path class="st0" d="M571.8 1592.1l-1.5 1.5-90.4 101.5c-11.3 12.7-31 13.3-43 1.2l-42.1-42.1c-12-12-11.5-31.6 1.1-42.9l101-91.1 1.5-1.5 73.4 73.4zm-244.5-244.5l-1.5 1.5-101 91.1c-12.6 11.4-13.1 30.9-1.1 42.9l42.1 42.1c12 12 31.7 11.5 43-1.2l90.4-101.5 1.5-1.5-73.4-73.4z" id="Layer_8"/>
    <path class="st0" d="M1704.8 215.5c-1.1 11.5-15.8 229-126.1 398.7-88.1 135.5-389.9 538.9-508.8 648.4l-135.3 124.6-1.1-1.2 143.2-222 43.8-67.9L1087 833l-263.1-33.4-67.9 43.8-222 143.1-1.2-1.1 124.6-135.3C767 731.2 1164.6 420 1305.8 341.3c168.2-93.7 387.2-125 398.7-126.1l.2-.2v.2h.2l-.1.3zM862.5 1374.1a82.606 82.606 0 0 0-58.4-24.2c-7.6 0-15.3 1.1-22.8 3.2-28.8 8.3-59.9.3-81.2-21l-112.6-112.6a82.606 82.606 0 0 1-24.2-58.4c0-7.6 1.1-15.3 3.2-22.8 8.3-28.8.3-59.9-21-81.2l-40.3-40.3-.8-.8-224.9 244.2c-10.6 11.5-10.2 29.3.8 40.4l46.8 46.8 73.4 73.4 43 43 12.4 12.4 42.4 42.3 73.4 73.4 47.4 47.4c11.1 11.1 28.9 11.4 40.4.8l244.2-224.9-.8-.8-40.4-40.3z" id="Layer_9"/>
    <path class="st0" d="M809.2 1042.2l-2-2-106.4-106.4-1.3-1.3-27.2 27.2c-32.5 32.5-34.3 83.4-4 113.7 30.3 30.3 81.2 28.5 113.7-4l27.2-27.2zm174.3 174.3l-2-2-106.3-106.3-1.3-1.3-27.2 27.2c-32.5 32.5-34.3 83.4-4 113.7 30.3 30.3 81.2 28.5 113.7-4l27.1-27.3zm93.1-52.5l-143.2 222 1.1 1.2-30.7 28.3-.8-.8-40.5-40.5a82.606 82.606 0 0 0-58.4-24.2c-7.6 0-15.3 1.1-22.8 3.2-28.8 8.3-59.9.3-81.2-21l-112.6-112.6a82.606 82.606 0 0 1-24.2-58.4c0-7.6 1.1-15.3 3.2-22.8 8.3-28.8.3-59.9-21-81.2l-40.3-40.3-.8-.8 28.3-30.7 1.2 1.1 222-143.2.5.9 251.7 67.5 10.5 39.3-1.2.3c-23.9 16.2-39.7 43.6-39.7 74.6 0 48 37.6 87.3 85 89.9l12.8 47.6 1.1.6z" id="Layer_10"/>
    <path class="st0" d="M1063 1115.9l-44.2-164.8-10.5-39.3-251.7-67.5-.5-.9 67.9-43.8 263 33.4 33.4 263.1-43.8 67.9-.9-.6-12.7-47.5zm-45.3-164.5C993.8 967.6 978 995 978 1026c0 48 37.6 87.3 85 89.9l-44.2-164.8-1.1.3z" id="Layer_11"/>
    <path class="st0" d="M809.2 1042.2l-27.2 27.2c-32.5 32.5-83.4 34.3-113.7 4-30.3-30.3-28.5-81.2 4-113.7l27.2-27.2 1.3 1.3 106.3 106.3 2.1 2.1zm172.3 172.3l-106.3-106.3-1.3-1.3-27.2 27.2c-32.5 32.5-34.3 83.4-4 113.7 30.3 30.3 81.2 28.5 113.7-4l27.2-27.2-2.1-2.1z" id="Layer_12"/>
    <g id="STROKES">
        <path class="st1" d="M756.5 844.2l251.8 67.5 10.5 39.4 44.2 164.8 12.8 47.5"/>
        <path class="st1" d="M570.3 1593.6l-90.4 101.5c-11.3 12.7-31 13.3-43 1.2l-42.1-42.1c-12-12-11.5-31.6 1.1-42.9l101-91.1"/>
        <path class="st1" d="M399.2 1422.5L308.8 1524c-11.3 12.7-31 13.3-43 1.2l-42.1-42.1c-12-12-11.5-31.6 1.1-42.9l101-91.1"/>
        <path class="st1" d="M505.4 1017l40.3 40.3c21.2 21.2 29.2 52.3 21 81.2-2.2 7.5-3.2 15.2-3.2 22.8 0 21.6 8.5 42.7 24.2 58.4l112.6 112.6c21.2 21.2 52.3 29.2 81.2 21 7.5-2.2 15.2-3.2 22.8-3.2 21.6 0 42.7 8.5 58.4 24.2l40.5 40.5"/>
        <path class="st1" d="M934.5 1387.2l135.3-124.6c118.9-109.5 420.7-512.8 508.8-648.4 110.3-169.7 125-387.2 126.1-398.7l.2-.2h-.2v-.2l-.2.2c-11.5 1.1-230.5 32.4-398.7 126.1C1164.6 420 767 731.2 657.5 850.2L532.8 985.5l-28.3 30.7-224.9 244.2c-10.6 11.5-10.2 29.3.8 40.4l46.8 46.8 73.4 73.4 43 43 12.4 12.4 42.4 42.3 73.4 73.4 47.4 47.4c11.1 11.1 28.9 11.4 40.4.8l244.2-224.9 30.7-28.2z"/>
        <path class="st1" d="M933.5 1386l143.1-222 43.8-67.9L1087 833l-263.1-33.4-67.9 43.8-222 143.1"/>
        <path class="st1" d="M731.1 900.9l-31.6 31.6-27.2 27.2c-32.5 32.5-34.3 83.4-4 113.7 30.3 30.3 81.2 28.5 113.7-4l27.2-27.2 34.3-34.3"/>
        <path class="st1" d="M700.8 933.8l106.3 106.4"/>
        <path class="st1" d="M905.4 1075.3l-31.6 31.6-27.2 27.2c-32.5 32.5-34.3 83.4-4 113.7 30.3 30.3 81.2 28.5 113.7-4l27.2-27.2 34.3-34.3"/>
        <path class="st1" d="M875.2 1108.2l106.3 106.3"/>
        <path class="st1" d="M867.6 1442.8l-151.4 57.5-296.5-296.5 57.5-151.4"/>
        <path class="st1" d="M1068 1116c-1.7 0-3.3-.1-5-.1-47.4-2.6-85-41.8-85-89.9 0-31.1 15.7-58.5 39.7-74.6"/>
    </g>
</svg>
