<svg xmlns="http://www.w3.org/2000/svg" viewBox="0 0 1920 1920">
    <style>
        .st0{fill:#fff}.st1{fill:none;stroke:#000;stroke-width:50;stroke-linecap:round;stroke-linejoin:round;stroke-miterlimit:10}
    </style>
    <path class="st0" d="M1149.9 886.3c57.4 12.5 98.1 50 94 89.7-4.3 42.2-57.7 71.7-121.4 68.6l-4.8-120.1 32.2-38.2zm-33.8-1.6l-1.5-2.7c-62-1.8-113.3 27.4-117.5 68.7-4.5 44.4 47 86.1 115.2 93 3.4.3 6.8.6 10.2.8l-4.8-120.1-1.6-39.7zm-160.3 11.5l-112.4-12.9 11.3 56.7-59.7-32.7c-1.9 4.1-3.2 8.6-3.8 13.4l-1.2 10.5-3.4 29.3c-2.7 23.7 14.3 45 37.9 47.8l10.4 1.2 106.3 12.2c23.7 2.7 45-14.3 47.8-37.9l4.6-39.7c2.1-18.2-7.5-35.1-22.8-43.1-4.5-2.5-9.6-4.1-15-4.8zm-169.1 64.3l3.4-29.3s-54.9 0-66 24.4c-7.4 16.3-14.9 59.6-5.6 87 4.6 13.4 13.1 23 27.7 23.7 44.3 2.2 88.8-56.9 88.8-56.9l-10.4-1.2c-23.6-2.7-40.6-24-37.9-47.7z" id="Layer_3"/>
    <g id="STROKES">
        <g id="XMLID_1_">
            <path class="st1" d="M1149.9 886.3c57.4 12.5 98.1 50 94 89.7-4.3 42.2-57.7 71.7-121.4 68.6-3.4-.2-6.8-.4-10.2-.8-68.2-7-119.7-48.6-115.2-93 4.2-41.3 55.5-70.5 117.5-68.7 4.6.1 9.4.4 14.1.9 7.3.6 14.4 1.8 21.2 3.3z"/>
            <path class="st1" d="M970.9 900.9c15.3 8 24.9 24.9 22.8 43.1l-4.6 39.7c-2.7 23.7-24.1 40.6-47.8 37.9L835 1009.4l-10.4-1.2c-23.7-2.7-40.6-24.1-37.9-47.8l3.4-29.3 1.2-10.5c.5-4.8 1.9-9.2 3.8-13.4 7.6-16.3 25.1-26.7 44-24.6l4.4.5L955.9 896c5.3.9 10.4 2.5 15 4.9z"/>
            <path class="st1" d="M790.1 931.2s-54.9 0-66 24.4c-7.4 16.3-14.9 59.6-5.6 87 4.6 13.4 13.1 23 27.7 23.7 44.3 2.2 88.8-56.9 88.8-56.9"/>
            <path class="st1" d="M718.6 1042.6l-54.3 30.3 31 66.5"/>
            <path class="st1" d="M1089.6 957.8l28.1-33.4 32.2-38.1 59.3-70.3 263.5 75.3 137.3 250.3 93.1 33.2"/>
            <path class="st1" d="M958.9 950.7l12-49.8 47.8-197.8 96 178.9 1.4 2.7 1.6 39.7 4.9 120.1 4.6 114.8 64.2 57.6"/>
            <path class="st1" d="M854.8 940.1l-11.3-56.8-35.2-175.8-144.7 128-65.7 58.1-53.2 210.4-81.9 68.6"/>
            <path class="st1" d="M854.8 940.1l-59.7-32.7-131.5-71.9-67.9-37.2-194.9 88.6-99.7 188.3-84.2 50.9"/>
        </g>
    </g>
</svg>
