<svg xmlns="http://www.w3.org/2000/svg" viewBox="0 0 1920 1920">
    <style>
        .st0{fill:#fff}.st1{fill:none;stroke:#000;stroke-width:50;stroke-linecap:round;stroke-linejoin:round;stroke-miterlimit:10}
    </style>
    <path class="st0" d="M1021.7 1113.9c43.1 29.2 72.6 88.1 72.6 156 0 97-60.1 175.6-134.3 175.6s-134.3-78.6-134.3-175.6c0-67.9 29.5-126.8 72.6-156 18.5-12.5 39.5-19.6 61.7-19.6s43.2 7.1 61.7 19.6zM865.6 945.4c-6.6 12.6-11.3 26.7-13.7 41.7-1.2 7.4-1.8 14.9-1.8 22.7 0 9.7 1 19.1 2.8 28.2 2.5 12.3 6.5 23.9 11.8 34.5 8.3 16.6 19.8 30.8 33.6 41.5 18.5-12.5 39.5-19.6 61.7-19.6s43.2 7.1 61.7 19.6c13.8-10.7 25.3-24.9 33.6-41.5 5.3-10.6 9.3-22.1 11.8-34.4 1.8-9.1 2.8-18.6 2.8-28.3 0-7.7-.6-15.3-1.8-22.7-3.9-24.5-13.9-46.4-28.2-63.8-20-24.3-48.4-39.4-79.8-39.4s-59.8 15.1-79.8 39.4c-5.7 6.7-10.6 14.1-14.7 22.1z" id="Layer_2"/>
    <g id="STROKES">
        <g id="XMLID_1_">
            <path class="st1" d="M1021.7 1113.9c13.8-10.7 25.3-24.9 33.6-41.5 5.3-10.6 9.3-22.1 11.8-34.4 1.8-9.1 2.8-18.6 2.8-28.3 0-7.7-.6-15.3-1.8-22.7-3.9-24.5-13.9-46.4-28.2-63.8-20-24.3-48.4-39.4-79.8-39.4s-59.8 15.1-79.8 39.4c-5.6 6.7-10.4 14.1-14.6 22.1-6.6 12.6-11.3 26.7-13.7 41.7-1.2 7.4-1.8 14.9-1.8 22.7 0 9.7 1 19.1 2.8 28.2 2.5 12.3 6.5 23.9 11.8 34.5 8.3 16.6 19.8 30.8 33.6 41.5"/>
            <path class="st1" d="M1021.7 1113.9c-18.5-12.5-39.5-19.6-61.7-19.6s-43.2 7.1-61.7 19.6c-43.1 29.2-72.6 88.1-72.6 156 0 97 60.1 175.6 134.3 175.6s134.3-78.6 134.3-175.6c0-67.9-29.5-126.8-72.6-156z"/>
            <path class="st1" d="M923.4 818.2s-21.6 46-1.9 65.8"/>
            <path class="st1" d="M893.3 748.7s-71.4 92-13.2 174.7"/>
            <path class="st1" d="M735.5 260.3c0 5.6 63.9 159.7 63.9 159.7l-22.5 317.4 88.7 208 .2.5"/>
            <path class="st1" d="M852 987.2l-.1-.1-197.1-294.8-336.3-270.4"/>
            <path class="st1" d="M852.9 1037.9v.1l-314.6 41.3-191.6 120.2-78.9 120.2-50.7 24.4"/>
            <path class="st1" d="M865.1 1071.8l-.4.6-144.2 215.4-35.7 223.5-95.8 148.4"/>
            <path class="st1" d="M996.6 818.2s21.6 46 1.9 65.8"/>
            <path class="st1" d="M1026.7 748.7s71.4 92 13.2 174.7"/>
            <path class="st1" d="M1184.5 260.3c0 5.6-63.9 159.7-63.9 159.7l22.5 317.4-87.7 209.8"/>
            <path class="st1" d="M1068 987.2l.1-.1 197.1-294.8 336.3-270.4"/>
            <path class="st1" d="M1066.1 1037.9l1 .2 314.6 41.2 191.6 120.2 78.9 120.2 50.7 24.4"/>
            <path class="st1" d="M1054.9 1071.8l.4.6 144.2 215.4 35.7 223.5 95.8 148.4"/>
        </g>
    </g>
</svg>
