<svg xmlns="http://www.w3.org/2000/svg" viewBox="0 0 1920 1920">
    <style>
        .st0{fill:#fff}.st1{fill:none;stroke:#231f20;stroke-width:50;stroke-linecap:round;stroke-linejoin:round;stroke-miterlimit:10}
    </style>
    <path class="st0" d="M1673.9 728c-139.5-81.4-238.4-217.5-272.7-375.3-19.2 1.9-38.4 2.9-57.6 2.9-140.8 0-277.5-51.6-383.6-146.2a576.422 576.422 0 0 1-383.6 146.2c-19.2 0-38.4-1-57.6-2.9-17.2 78.9-50.5 152.4-96.9 216.3s-106 118.3-175.8 159c32.5 73.9 48.7 152.9 48.7 232s-16.2 158.1-48.7 232c69.7 40.7 129.3 95.1 175.8 159s79.8 137.4 96.9 216.3c19.2-1.9 38.4-2.9 57.6-2.9 140.8 0 277.5 51.6 383.6 146.2a576.422 576.422 0 0 1 383.6-146.2c19.2 0 38.4 1 57.6 2.9 17.2-78.9 50.5-152.4 96.9-216.3s106-118.3 175.8-159c-32.5-73.9-48.7-152.9-48.7-232s16.2-158.1 48.7-232zm-243.2 384.9c-46 26.8-85.3 62.7-115.9 104.8-30.6 42.2-52.6 90.6-63.9 142.6-12.7-1.3-25.3-1.9-38-1.9-92.8 0-183 34-252.9 96.4-69.9-62.4-160.1-96.4-252.9-96.4-12.6 0-25.3.6-38 1.9-11.3-52-33.3-100.5-63.9-142.6-30.6-42.1-69.9-78-115.9-104.8 21.4-48.7 32.1-100.8 32.1-152.9 0-52.1-10.7-104.2-32.1-152.9 46-26.8 85.3-62.7 115.9-104.8 30.6-42.2 52.6-90.6 63.9-142.6 12.7 1.3 25.3 1.9 38 1.9 92.8 0 183-34 252.9-96.4 69.9 62.4 160.1 96.4 252.9 96.4 12.6 0 25.3-.6 38-1.9 11.3 52 33.3 100.4 63.9 142.6 30.6 42.1 69.9 78 115.9 104.8-21.4 48.7-32.1 100.8-32.1 152.9-.1 52.1 10.6 104.2 32.1 152.9z" id="Layer_2"/>
    <path class="st0" d="M1430.7 807.1c-91.9-53.7-157.2-143.4-179.8-247.4C1145 570.3 1039.4 536 960 465.1c-79.4 70.9-185 105.1-290.9 94.5-22.6 104-87.8 193.8-179.8 247.4 42.8 97.5 42.8 208.4 0 305.9 91.9 53.7 157.2 143.4 179.8 247.4 105.9-10.6 211.4 23.7 290.9 94.5 79.4-70.9 185-105.1 290.9-94.5 22.6-104 87.8-193.8 179.8-247.4-42.9-97.4-42.9-208.4 0-305.8zm-198.2 241.4c-53.2 31.1-91 83-104.1 143.3-61.3-6.2-122.4 13.7-168.4 54.7-46-41-107.1-60.9-168.4-54.7-13.1-60.2-50.9-112.2-104.1-143.3 24.8-56.4 24.8-120.7 0-177.1 53.2-31.1 91-83 104.1-143.3 61.3 6.2 122.4-13.7 168.4-54.7 46 41 107.1 60.9 168.4 54.7 13.1 60.2 50.9 112.2 104.1 143.3-24.8 56.5-24.8 120.7 0 177.1z" id="Layer_5"/>
    <path class="st0" d="M1232.5 871.5c-53.2-31.1-91-83-104.1-143.3-61.3 6.2-122.4-13.7-168.4-54.7-46 41-107.1 60.9-168.4 54.7-13.1 60.2-50.9 112.2-104.1 143.3 24.8 56.4 24.8 120.7 0 177.1 53.2 31.1 91 83 104.1 143.3 61.3-6.2 122.4 13.7 168.4 54.7 46-41 107.1-60.9 168.4-54.7 13.1-60.2 50.9-112.2 104.1-143.3-24.8-56.5-24.8-120.7 0-177.1z" id="Layer_7"/>
    <g id="STROKES">
        <path class="st1" d="M960 1703.1V216.9"/>
        <path class="st1" d="M1396.8 1561.1L523.2 358.9"/>
        <path class="st1" d="M1666.7 1189.6L253.3 730.4"/>
        <path class="st1" d="M1666.7 730.4L253.3 1189.6"/>
        <path class="st1" d="M960 960l-436.8 601.1"/>
        <path class="st1" d="M1396.8 358.9L960 960"/>
        <path class="st1" d="M960 209.4c120.5 107.5 280.6 159.5 441.2 143.4 34.3 157.8 133.2 293.9 272.7 375.3-65 147.8-65 316.1 0 463.9-139.5 81.4-238.4 217.5-272.7 375.3-160.7-16.1-320.7 35.9-441.2 143.4-120.5-107.5-280.6-159.5-441.2-143.4-34.3-157.8-133.2-293.9-272.7-375.3 65-147.8 65-316.1 0-463.9 139.5-81.4 238.4-217.5 272.7-375.3 160.6 16 320.7-36 441.2-143.4z"/>
        <path class="st1" d="M960 465.1c79.4 70.9 185 105.1 290.9 94.5 22.6 104 87.8 193.8 179.8 247.4-42.8 97.5-42.8 208.4 0 305.9-91.9 53.7-157.2 143.4-179.8 247.4-105.9-10.6-211.4 23.7-290.9 94.5-79.4-70.9-185-105.1-290.9-94.5-22.6-104-87.8-193.8-179.8-247.4 42.8-97.5 42.8-208.4 0-305.9 91.9-53.7 157.2-143.4 179.8-247.4C775 570.3 880.6 536 960 465.1z"/>
        <path class="st1" d="M960 673.5c46 41 107.1 60.9 168.4 54.7 13.1 60.2 50.9 112.2 104.1 143.3-24.8 56.4-24.8 120.7 0 177.1-53.2 31.1-91 83-104.1 143.3-61.3-6.2-122.4 13.7-168.4 54.7-46-41-107.1-60.9-168.4-54.7-13.1-60.2-50.9-112.2-104.1-143.3 24.8-56.4 24.8-120.7 0-177.1 53.2-31.1 91-83 104.1-143.3 61.3 6.2 122.4-13.7 168.4-54.7z"/>
    </g>
</svg>
