<svg xmlns="http://www.w3.org/2000/svg" viewBox="0 0 1920 1920">
    <style>
        .st0{fill:#fff}.st1{fill:none;stroke:#000;stroke-width:50;stroke-linecap:round;stroke-linejoin:round;stroke-miterlimit:10}
    </style>
    <path class="st0" d="M1071.9 621.3c21.9 50.4.6 120 .6 120-26.5-27-65-47.7-109.9-47.7h-5.4c-44.9 0-83.4 20.7-109.9 47.7 0 0-21.2-69.5.6-120 21.9-50.4 109.2-57.1 109.2-57.1h5.4c.2 0 87.6 6.7 109.4 57.1zm.7 120c-26.5-27-65-47.7-109.9-47.7h-5.4c-44.9 0-83.4 20.7-109.9 47.7-14.1 14.4-24.9 30.6-31.3 46.4-18.5 45.4 70.2 77.5 70.2 77.5l1.1.5 3.5-7.2c8.6-18 30.2-25.6 48.2-16.9 12.9 6.2 20.5 19.1 20.5 32.6h.7c0-13.5 7.6-26.4 20.5-32.6 18-8.6 39.6-1.1 48.2 16.9l3.4 7 .7-.3s24.4-8.8 45-23.6l-.1-.1h.1c18.8-13.6 34.5-32.2 25.7-53.8-6.4-15.8-17.1-32-31.2-46.4zm-77.1 43.1c-1.4 0-2.5-1.1-2.5-2.5s1.1-2.5 2.5-2.5 2.5 1.1 2.5 2.5c0 1.3-1.1 2.5-2.5 2.5zm-71 0c-1.4 0-2.5-1.1-2.5-2.5s1.1-2.5 2.5-2.5 2.5 1.1 2.5 2.5c0 1.3-1.1 2.5-2.5 2.5z" id="Layer_4"/>
    <path class="st0" d="M1057.4 917.6c8.6 18 1.1 39.6-16.9 48.2-18 8.6-39.6 1.1-48.2-16.9l-28.4-59.1c-2.4-5-3.6-10.4-3.6-15.6 0-13.5 7.6-26.4 20.5-32.6 18-8.6 39.6-1.1 48.2 16.9l3.4 7 25 52.1zm-177.9 48.2c18 8.6 39.6 1.1 48.2-16.9l28.4-59.1c2.4-5 3.6-10.4 3.6-15.6 0-13.5-7.6-26.4-20.5-32.6-18-8.6-39.6-1.1-48.2 16.9l-3.5 7.2-24.9 51.9c-2.3 4.8-3.4 9.8-3.6 14.8-.3 13.7 7.2 27.1 20.5 33.4z" id="Layer_5"/>
    <g id="STROKES">
        <g id="XMLID_1_">
            <path class="st1" d="M927 781.8c0 1.4-1.1 2.5-2.5 2.5s-2.5-1.1-2.5-2.5 1.1-2.5 2.5-2.5 2.5 1.2 2.5 2.5z"/>
            <path class="st1" d="M993 781.8c0 1.4 1.1 2.5 2.5 2.5s2.5-1.1 2.5-2.5-1.1-2.5-2.5-2.5-2.5 1.2-2.5 2.5z"/>
            <path class="st1" d="M886.4 865.2s-88.7-32.1-70.2-77.5c6.4-15.8 17.2-32 31.3-46.4 26.5-27 65-47.7 109.9-47.7h5.4c44.9 0 83.4 20.7 109.9 47.7 14.2 14.4 24.9 30.6 31.3 46.4 8.8 21.6-6.8 40.2-25.7 53.8h-.1c-20.6 14.8-45 23.6-45 23.6"/>
            <path class="st1" d="M1072.6 741.3s21.2-69.5-.6-120c-21.8-50.4-109.2-57.1-109.2-57.1h-5.4s-87.4 6.7-109.2 57.1c-21.8 50.4-.6 120-.6 120"/>
            <path class="st1" d="M832.1 759.2s-78.2-144.6-84.9-146.3c-6.7-1.7-50.4-10.1-50.4-10.1L673.2 665l-94.1 5-45.3-47"/>
            <path class="st1" d="M811.1 809.6l-238.7-30.3-117.6 53.8-136.2 8.4-75.6-43.7"/>
            <path class="st1" d="M217.8 1260l82.3-68.9 99.2-151.3 154.6-110.9 52.1-77.3 234.6-10.1-78.3 63.9-13.4 218.5-47.1 173.1-58.8 58.8"/>
            <path class="st1" d="M1087.4 758.4s78.6-143.8 85.4-145.5c6.7-1.7 50.4-10.1 50.4-10.1l23.5 62.2 94.1 5 45.4-47.1"/>
            <path class="st1" d="M1108.9 809.6l238.7-30.3 117.6 53.8 136.2 8.4 75.6-43.7"/>
            <path class="st1" d="M1702.2 1260l-82.3-68.9-99.2-151.3-154.6-110.9-52.1-77.3-235.8-10.1h-.1l.1.1 79.5 63.8 13.4 218.5 47.1 173.1 58.8 58.8"/>
            <path class="st1" d="M855.1 1120.5c29.1-2.3-29.9-103.9 3.9-188.2.3-.9.7-1.7 1.1-2.6"/>
            <path class="st1" d="M1067.9 1120.5c-31.9-8.1 24.6-110.4-5-190.8"/>
            <path class="st1" d="M959.7 874.2c0 5.2-1.2 10.6-3.6 15.6l-28.4 59.1c-8.6 18-30.2 25.6-48.2 16.9-13.2-6.3-20.8-19.7-20.5-33.5.1-5 1.3-10 3.6-14.8l24.9-51.9 3.5-7.2c8.6-18 30.2-25.6 48.2-16.9 12.9 6.3 20.5 19.2 20.5 32.7z"/>
            <path class="st1" d="M960.3 874.2c0 5.2 1.2 10.6 3.6 15.6l28.4 59.1c8.6 18 30.2 25.6 48.2 16.9 18-8.6 25.6-30.2 16.9-48.2l-25-52.1-3.4-7c-8.6-18-30.2-25.6-48.2-16.9-12.9 6.2-20.5 19.1-20.5 32.6z"/>
        </g>
    </g>
</svg>
