<svg xmlns="http://www.w3.org/2000/svg" viewBox="0 0 1920 1920">
    <style>
        .st0{fill:#fff}.st1{fill:none;stroke:#000;stroke-width:50;stroke-linecap:round;stroke-linejoin:round;stroke-miterlimit:10}
    </style>
    <path class="st0" d="M1003.2 224.9c83.1 71.5 189.1 288 107.5 449.4-20.7 40.9-53.4 78.2-101.7 108.8v270.7c0 32.8 4.2 65.4 12.5 97.1l23.5 90.3-5.1 147.5c-.6 17.6 1.4 35.2 5.9 52.2l14 52.5c7.3 27.5 8 56.4 1.9 84.2l-3.7 16.9c0 145.2-196.1 145.2-196.1 0l-3.7-16.9c-6.1-27.8-5.4-56.7 1.9-84.2l14-52.5c4.5-17 6.5-34.6 5.9-52.2l-5-147.7 23.5-90.3c8.3-31.7 12.5-64.3 12.5-97.1V783c-238.5-150.9-98.3-468.5 5.8-558.1 6-5.1 12.8-9.1 20.1-11.8 7.3-2.7 15.1-4.1 23-4.1 15.9 0 31.3 5.6 43.3 15.9z" id="Layer_4"/>
    <g id="STROKES">
        <path class="st1" d="M911 783v270.7c0 32.8-4.2 65.4-12.5 97.1L875 1241l5.1 147.5c.6 17.6-1.4 35.2-5.9 52.2l-14 52.5c-7.3 27.5-8 56.4-1.9 84.2l3.7 16.9c0 145.2 196.1 145.2 196.1 0l3.7-16.9c6.1-27.8 5.4-56.7-1.9-84.2l-14-52.5c-4.5-17-6.5-34.6-5.9-52.2l5.1-147.5-23.5-90.3c-8.3-31.7-12.5-64.3-12.5-97.1V783c48.2-30.5 81-67.9 101.7-108.8 81.6-161.3-24.4-377.9-107.5-449.4-12-10.3-27.3-15.9-43.2-15.9-7.9 0-15.7 1.4-23 4.1-7.3 2.7-14.1 6.6-20.1 11.8-104.3 89.7-244.5 407.3-6 558.2z" id="XMLID_1_"/>
    </g>
</svg>
