<svg xmlns="http://www.w3.org/2000/svg" viewBox="0 0 1920 1920">
    <style>
        .st0{fill:#fff}.st1{fill:none;stroke:#000;stroke-width:50;stroke-linecap:round;stroke-linejoin:round;stroke-miterlimit:10}
    </style>
    <path class="st0" d="M1685.7 1604.1c11.2 11.2 16.8 26 16.8 40.7s-5.6 29.5-16.8 40.7c-22.4 22.5-58.8 22.5-81.2 0l-848-850.3c-38.4-38.5-84.8-68-136-86.4L491 702.4l.3-.5c-57.4-12.3-117.1-44.5-167.5-95C215.1 497.8 191 345.2 269.9 266c79-79.2 231.1-55 339.9 54.1 51.7 51.8 84.2 113.5 95.7 172.4l45.9 126.2c18.4 50.5 47.5 96.3 85.5 134.3l848.8 851.1z" id="Layer_2"/>
    <g id="STROKES">
        <g id="XMLID_1_">
            <path class="st1" d="M705.5 492.5c-11.5-58.9-44-120.6-95.7-172.4C501 211.1 348.9 186.9 269.9 266c-79 79.2-54.8 231.8 53.9 340.8 50.4 50.5 110.1 82.8 167.5 95l-.3.5 129.4 46.5c51.1 18.4 97.6 47.9 136 86.4l848 850.3c22.4 22.5 58.8 22.5 81.2 0 11.2-11.2 16.8-26 16.8-40.7s-5.6-29.5-16.8-40.7l-848.7-851c-37.9-38-67.1-83.9-85.5-134.3l-45.9-126.3z"/>
            <path class="st1" d="M554 413.4c53.9 54 66.9 128.6 29.1 166.6-37.9 38-112.3 24.9-166.2-29.1"/>
        </g>
    </g>
</svg>
