<svg xmlns="http://www.w3.org/2000/svg" viewBox="0 0 1920 1920">
    <style>
        .st0{fill:#fff}.st1{fill:none;stroke:#000;stroke-width:50;stroke-linecap:round;stroke-linejoin:round;stroke-miterlimit:10}
    </style>
    <path class="st0" d="M410.4 217.5h1099.2V409H410.4z" id="Layer_6"/>
    <path class="st0" d="M410.4 409h1099.2v1293.5H410.4z" id="Layer_7"/>
    <g id="STROKES">
        <g id="XMLID_1_">
            <path class="st1" d="M1509.6 409v1293.5H410.4v-1485h1099.2z"/>
            <path class="st1" d="M410.4 409h1099.2"/>
            <path class="st1" d="M419 524.2h1082"/>
            <path class="st1" d="M419 761.5h1082"/>
            <path class="st1" d="M419 642.8h1082"/>
            <path class="st1" d="M852 880.1h649"/>
            <path class="st1" d="M419 1235.9h1082"/>
            <path class="st1" d="M419 1117.3h1082"/>
            <path class="st1" d="M853 1354.6h648"/>
            <path class="st1" d="M417 1000.5h1084"/>
            <path class="st1" d="M850.2 525v354"/>
            <path class="st1" d="M1069.8 525v354"/>
            <path class="st1" d="M1289.4 525v354"/>
            <path class="st1" d="M846.2 1001v350"/>
            <path class="st1" d="M1065.8 1001v350"/>
            <path class="st1" d="M1285.4 1001v350"/>
            <path class="st1" d="M419 1475.9h1082"/>
            <path class="st1" d="M853 1594.6h648"/>
            <path class="st1" d="M846.2 1477v116"/>
            <path class="st1" d="M1065.8 1477v116"/>
            <path class="st1" d="M1285.4 1477v116"/>
            <path class="st1" d="M491 311h238"/>
            <path class="st1" d="M901 311h64"/>
            <path class="st1" d="M1159 311h64"/>
            <path class="st1" d="M1359 311h64"/>
        </g>
    </g>
</svg>
