<svg xmlns="http://www.w3.org/2000/svg" viewBox="0 0 1920 1920">
    <style>
        .st0{fill:#fff}.st1{fill:none;stroke:#231f20;stroke-width:50;stroke-linecap:round;stroke-linejoin:round;stroke-miterlimit:10}
    </style>
    <path class="st0" d="M217 748.7h143.4v422.6H217z" id="Layer_2"/>
    <path class="st0" d="M360.3 823.5h413.5v273H360.3z" id="Layer_4"/>
    <path class="st0" d="M773.9 853.3h413.5v213.4H773.9z" id="Layer_5"/>
    <path class="st0" d="M1187.4 901.3h413.5v117.3h-413.5z" id="Layer_6"/>
    <path class="st0" d="M1694.4 883v154c0 16.4-13.3 29.7-29.7 29.7h-34.1c-16.4 0-29.7-13.3-29.7-29.7V883c0-16.4 13.3-29.7 29.7-29.7h34.1c16.5 0 29.7 13.3 29.7 29.7z" id="Layer_7"/>
    <g id="STROKES">
        <path class="st1" d="M360.3 823.5h413.5v273H360.3z"/>
        <path class="st1" d="M773.9 853.3h413.5v213.4H773.9z"/>
        <path class="st1" d="M1664.8 1066.7h-34.1c-16.4 0-29.7-13.3-29.7-29.7V883c0-16.4 13.3-29.7 29.7-29.7h34.1c16.4 0 29.7 13.3 29.7 29.7v154c-.1 16.4-13.3 29.7-29.7 29.7z"/>
        <path class="st1" d="M1187.4 901.3h413.5v117.3h-413.5z"/>
        <path class="st1" d="M216.9 748.7h143.4v422.6H216.9z"/>
    </g>
</svg>
