<svg xmlns="http://www.w3.org/2000/svg" viewBox="0 0 1920 1920">
    <style>
        .st0{fill:#fff}.st1{fill:none;stroke:#231f20;stroke-width:50;stroke-linecap:round;stroke-linejoin:round;stroke-miterlimit:10}
    </style>
    <path class="st0" d="M369.7 846.2c-12.8-64.2-37.2-107.6-65.3-107.6-28 0-52.5 43.4-65.2 107.6-13.8 27.1-22.2 62.8-22.2 102s8.4 74.9 22.2 102c12.8 64.2 37.2 107.6 65.2 107.6 28.1 0 52.5-43.4 65.3-107.6 6-30.2 9.4-65 9.4-102s-3.4-71.8-9.4-102z" id="Layer_9"/>
    <path class="st0" d="M798.4 948.2c0 21.7-1.2 42.6-3.3 62.3-.2 1.9-.4 3.7-.7 5.6-.5 3.7-.9 7.4-1.5 11-.3 1.8-.5 3.6-.8 5.4-.3 1.8-.6 3.5-.9 5.3-4.9 28.9-12 54.2-20.8 74-.1.2-.2.5-.3.7-12.7 28.4-28.9 45.4-46.4 45.4H304.4c28.1 0 52.5-43.4 65.3-107.6 6-30.2 9.4-65 9.4-102s-3.4-71.8-9.4-102c-12.8-64.2-37.2-107.6-65.3-107.6h419.3c17.5 0 33.7 17 46.4 45.4 2.4 5.4 4.7 11.2 6.9 17.4.5 1.4.9 2.8 1.4 4.2.5 1.4.9 2.8 1.4 4.3.4 1.4.9 2.9 1.3 4.4.2.7.4 1.5.7 2.2 1.3 4.5 2.5 9.2 3.7 13.9.6 2.4 1.1 4.8 1.7 7.3.2.8.4 1.7.5 2.5 6.8 31.5 10.7 68.5 10.7 107.9z" id="Layer_10"/>
    <path class="st0" d="M1086.5 948.2c0 44.6-6.3 85.1-16.6 114.7-10.6 30.5-25.4 49.5-41.9 49.5H770.2c.1-.2.2-.5.3-.7 8.8-19.8 15.9-45.1 20.8-74 .3-1.8.6-3.5.9-5.3.3-1.8.6-3.6.8-5.4.5-3.6 1-7.3 1.5-11 .2-1.9.4-3.7.7-5.6 2.2-19.7 3.4-40.6 3.4-62.3 0-39.5-3.9-76.4-10.7-108-.2-.8-.4-1.7-.5-2.5-.5-2.5-1.1-4.9-1.7-7.3-1.2-4.8-2.4-9.4-3.7-13.9-.2-.8-.4-1.5-.7-2.2-.4-1.5-.9-2.9-1.3-4.4-.4-1.5-.9-2.9-1.4-4.3-.5-1.4-.9-2.8-1.4-4.2-2.2-6.2-4.5-12-6.9-17.4H1028c16.4 0 31.2 19 41.9 49.5 10.3 29.8 16.6 70.2 16.6 114.8z" id="Layer_11"/>
    <path class="st0" d="M1321.9 948.2c0 23.3-2.5 45-6.8 63.1-7.3 31.1-19.8 51.6-34.1 51.6h-211.2c10.3-29.6 16.6-70 16.6-114.7 0-44.6-6.3-85.1-16.6-114.7H1281c14.3 0 26.8 20.5 34.1 51.6 4.4 18.1 6.8 39.8 6.8 63.1z" id="Layer_12"/>
    <path class="st0" d="M1670.4 948.2c0 34.8-18.3 63.1-40.9 63.1h-314.3c4.3-18.1 6.8-39.8 6.8-63.1 0-23.3-2.5-45-6.8-63.1h314.3c22.6 0 40.9 28.3 40.9 63.1z" id="Layer_13"/>
    <path class="st0" d="M1703.1 948.2c0 57.1-32 88.8-54.6 88.8-13.2 0-24.9-1.1-32.4-25.7h13.4c22.6 0 40.9-28.2 40.9-63.1 0-34.8-18.3-63.1-40.9-63.1h-13.4c7.5-24.5 19.2-25.9 32.4-25.9 22.6 0 54.6 31.9 54.6 89z" id="Layer_14"/>
    <g id="STROKES">
        <path class="st1" d="M1086.5 948.2c0 44.6-6.3 85.1-16.6 114.7-10.6 30.5-25.4 49.5-41.9 49.5H770.2c17.2-38.4 28.2-97.7 28.2-164.2s-11-125.8-28.2-164.2H1028c16.4 0 31.2 19 41.9 49.5 10.3 29.7 16.6 70.1 16.6 114.7z"/>
        <path class="st1" d="M369.7 1050.3c-12.8 64.2-37.2 107.6-65.3 107.6-28 0-52.5-43.4-65.2-107.6 16 31.4 39.3 51.2 65.3 51.2 25.8 0 49.1-19.8 65.2-51.2z"/>
        <path class="st1" d="M369.7 846.2c-16-31.4-39.3-51.2-65.2-51.2-25.9 0-49.2 19.8-65.3 51.2 12.8-64.2 37.2-107.6 65.2-107.6 28.1.1 52.5 43.5 65.3 107.6z"/>
        <path class="st1" d="M1703.1 948.2c0 57.1-32 88.7-54.5 88.7-13.2 0-24.9-1.1-32.4-25.7h13.4c22.6 0 40.9-28.2 40.9-63.1s-18.3-63.1-40.9-63.1h-13.4c7.5-24.5 19.2-26 32.4-26 22.5.2 54.5 32.1 54.5 89.2z"/>
        <path class="st1" d="M1321.9 948.2c0 23.3-2.5 45-6.7 63.1-7.3 31.1-19.8 51.6-34.1 51.6h-211.2c10.3-29.6 16.6-70 16.6-114.7 0-44.6-6.3-85.1-16.6-114.7h211.2c14.3 0 26.8 20.5 34.1 51.6 4.3 18.1 6.7 39.8 6.7 63.1z"/>
        <path class="st1" d="M1670.3 948.2c0 34.8-18.3 63.1-40.9 63.1h-314.3c4.3-18.1 6.7-39.8 6.7-63.1s-2.5-45-6.7-63.1h314.3c22.7.1 40.9 28.3 40.9 63.1z"/>
        <path class="st1" d="M379.1 948.2c0 37-3.4 71.8-9.4 102-16 31.4-39.3 51.2-65.2 51.2-25.9 0-49.2-19.8-65.3-51.2-13.8-27.1-22.2-62.8-22.2-102s8.4-74.9 22.2-102c16-31.4 39.3-51.2 65.3-51.2 25.9 0 49.2 19.8 65.2 51.2 6 30.2 9.4 65 9.4 102z"/>
        <path class="st1" d="M798.4 948.2c0 66.5-11 125.8-28.2 164.2-12.7 28.4-28.9 45.4-46.4 45.4H304.4c28.1 0 52.5-43.4 65.3-107.6 6-30.2 9.4-65 9.4-102s-3.4-71.8-9.4-102c-12.8-64.2-37.2-107.6-65.3-107.6h419.3c17.5 0 33.7 17 46.4 45.4 17.3 38.5 28.3 97.7 28.3 164.2z"/>
    </g>
</svg>
