<svg xmlns="http://www.w3.org/2000/svg" viewBox="0 0 1920 1920">
    <style>
        .st0{fill:#fff}.st1{fill:none;stroke:#231f20;stroke-width:50;stroke-linecap:round;stroke-linejoin:round;stroke-miterlimit:10}
    </style>
    <path class="st0" d="M1674 938.3c20.1 7.6 52.7 29.9 2.5 88.6-60.9 71.3-123.2 91.6-207.3 51.3-14.2-6.8-31 1.8-33.9 17.2l-10.8 57.6c-1.8 9.3 2.2 18.8 10 24.2l30 20.6c6.2 4.2 13.9 5.4 21 3.1l79.4-25.7c12-3.9 24.9 2.2 29.6 13.8l31.1 40.4c4.1 10.1 18.4 45.2 18.4 45.2l-25.6 17.2c-13.7 10.3-33.4 3.3-37.7-13.2 0 0-33.7-7.8-47.4-.6l-120.9 28c-4.7 2.5-10.1 3.3-15.3 2.4l-95.1-16.9c-17.7-3.1-32.4 13.5-27.2 30.7 10.4 34.2 15.7 89.2-17.6 157.1-7.8 15.9 3.8 34.5 21.6 34.5h16.9c13.3 0 24 10.8 24 24v14.5c0 13.3-10.8 24-24 24H793.3c-17.2 0-28.8-17.5-22.1-33.3l4.5-10.6c4.4-10.4.9-22.5-8.4-29-51.5-35.8-202.5-161.7-108.8-354.6 0 0-2.7-120.7-96.1-159.8-133.2-55.8-191.2 73.2-345.4 82.3V668c0-78.4 31.8-149.3 83.1-200.6s122.3-83.1 200.6-83.1c163.6 0 293.3 138 283.2 301.2l-18.5 298.1c-1.1 17.3 16 30 32.2 24 48.2-17.7 375.2-150.5 447.5-132.5 12.2 3 24.7-3.8 28.6-15.8 14.4-43.8 52.9-136.9 124.7-156 6.6-1.8 12.1-6.3 15.2-12.4l31.5-63c7.1-14.2 25.7-17.7 37.5-7.2 24.4 21.8 55.5 62.8 38 120.2-3.2 10.5 1 21.8 10.3 27.6 34.5 21.1 110.4 75.5 128.4 152.6 1.6 7.9 7.2 14.4 14.7 17.2z" id="Layer_4"/>
    <g id="STROKES">
        <path class="st1" d="M1659.1 921.2c-17.9-77.1-93.9-131.4-128.4-152.6-9.3-5.7-13.5-17.1-10.3-27.6 17.6-57.5-13.6-98.4-38-120.2-11.8-10.6-30.4-7-37.5 7.2l-31.5 63c-3.1 6.1-8.6 10.7-15.2 12.4-71.7 19.1-110.3 112.2-124.7 156-3.9 11.9-16.4 18.8-28.6 15.7-72.3-17.9-399.3 114.8-447.5 132.5-16.3 6-33.3-6.7-32.2-24l18.5-298.1c10.1-163.3-119.6-301.2-283.2-301.2-156.7 0-283.7 127-283.7 283.7v403.1c154.2-9 212.2-138.1 345.4-82.3 93.4 39.1 96.1 159.8 96.1 159.8-93.7 192.9 57.3 318.8 108.8 354.6 9.3 6.5 12.8 18.6 8.4 29l-4.5 10.6c-6.7 15.8 5 33.3 22.1 33.3h502.3c13.3 0 24-10.7 24-24v-14.5c0-13.3-10.7-24-24-24h-16.9c-17.7 0-29.4-18.6-21.6-34.5 33.4-67.9 28-122.9 17.6-157.1-5.2-17.2 9.5-33.8 27.2-30.7l95.1 16.9c5.2.9 10.6.1 15.3-2.4l120.9-28c13.7-7.2 47.4.6 47.4.6 4.2 16.6 24 23.5 37.7 13.2l25.6-17.2s-14.3-35.1-18.4-45.2l-31.1-40.4c-4.7-11.6-17.7-17.7-29.6-13.8l-79.4 25.7c-7.1 2.3-14.8 1.2-21-3.1l-30-20.6c-7.8-5.4-11.7-14.9-10-24.2l10.8-57.6c2.9-15.5 19.7-24.1 33.9-17.2 84.2 40.3 146.4 20 207.4-51.3 50.2-58.7 17.5-81-2.5-88.6-7.3-2.6-12.9-9.1-14.7-16.9z"/>
        <path class="st1" d="M1533.3 881.5v-10.3"/>
    </g>
</svg>
