<svg xmlns="http://www.w3.org/2000/svg" viewBox="0 0 1920 1920">
    <style>
        .st0{fill:#fff}.st1{fill:none;stroke:#231f20;stroke-width:50;stroke-linecap:round;stroke-linejoin:round;stroke-miterlimit:10}
    </style>
    <path class="st0" d="M1467.2 216.9l-108 455.4c-32.1-42.6-66.5-81.2-101.3-115.7-20.2-20.1-41.9-37.7-64.7-52.8 5.1-11.6 125.3-286.9 274-286.9zm-907 456.2c32.2-42.9 66.9-81.7 101.9-116.5 20-19.9 41.5-37.4 64.1-52.4 0 0-122.2-287.3-274.2-287.3l108.2 456.2zm247.3 848.5c-39.2-39.2-63.5-93.2-63.5-152.6 0-16.9 13.9-29 29-29 5.1 0 10.3 1.4 15.2 4.4l49 30.4c75.2 46.7 170.4 46.7 245.6 0l49-30.4c19.3-12 44.2 1.9 44.2 24.6 0 118.8-97.2 216-216 216-59.4 0-113.4-24.3-152.5-63.4zM726.2 504.2c-22.6 15.1-44.1 32.5-64.1 52.4-34.9 34.8-69.6 73.6-101.9 116.5-91.1 121.1-163 274.6-167.9 459.7-86.3 39.8-146.8 132.8-146.8 241.3 0 38.9 7.8 75.8 21.7 109 21.3 50.6 56.9 92.6 101.3 119.6 34.7 21.2 74.7 33.3 117.3 33.3 23.3 0 45.8-3.6 67.1-10.3 51.1 46.8 118.4 77.4 207.1 77.4 198.4 0 200-116.2 200-118 0 1.8 1.6 118 200 118 86.3 0 152.3-29 202.9-73.6 17.2 4.3 35.1 6.5 53.5 6.5 44.8 0 86.7-13.3 122.5-36.6 42.8-27.7 77-69.4 97.3-119.3 13.2-32.4 20.5-68.3 20.5-106 0-100.8-52.2-188.2-128.8-232-2.7-189.7-75.8-346.5-168.7-469.8-32.1-42.6-66.5-81.2-101.3-115.7-20.2-20.1-41.9-37.7-64.7-52.8-141-93.6-326-93.4-467 .4zm490.1 534c-35.1 0-63.5-34.8-63.5-77.8s28.4-77.8 63.5-77.8 63.5 34.8 63.5 77.8-28.4 77.8-63.5 77.8zm-512.6 0c-35.1 0-63.5-34.8-63.5-77.8s28.4-77.8 63.5-77.8 63.5 34.8 63.5 77.8-28.5 77.8-63.5 77.8z" id="Layer_2"/>
    <path class="st0" d="M1216.3 882.8c35.1 0 63.5 34.8 63.5 77.8s-28.4 77.8-63.5 77.8-63.5-34.8-63.5-77.8 28.5-77.8 63.5-77.8zm-576.1 77.7c0 42.9 28.4 77.8 63.5 77.8s63.5-34.8 63.5-77.8-28.4-77.8-63.5-77.8-63.5 34.9-63.5 77.8z" id="Layer_3"/>
    <path class="st0" d="M1131.8 1344.4c19.3-12 44.2 1.9 44.2 24.6 0 118.8-97.2 216-216 216-59.4 0-113.4-24.3-152.5-63.4-39.2-39.2-63.5-93.2-63.5-152.6 0-16.9 13.9-29 29-29 5.1 0 10.3 1.4 15.2 4.4l49 30.4c75.2 46.7 170.4 46.7 245.6 0l49-30.4z" id="Layer_5"/>
    <g id="STROKES">
        <path class="st1" d="M1176 1369c0 118.8-97.2 216-216 216s-216-97.2-216-216c0-22.7 24.9-36.5 44.2-24.6l49 30.4c75.2 46.7 170.4 46.7 245.6 0l49-30.4c19.3-11.9 44.2 1.9 44.2 24.6z"/>
        <path class="st1" d="M726.1 504.2S604 216.9 452 216.9l108.2 456.2"/>
        <path class="st1" d="M1193.1 504.2s122.1-287.3 274.1-287.3L1359 673.1"/>
        <path class="st1" d="M1527.9 1142.1c-3.6-255.2-134.7-451-269.9-585.5-164.8-163.9-431.2-163.9-596 0-133.6 132.9-263.1 325.5-269.7 576.2-86.3 39.7-146.8 132.8-146.8 241.3 0 144.6 107.6 261.9 240.4 261.9 23.3 0 45.8-3.6 67.1-10.3 51.1 46.8 118.4 77.4 207.1 77.4 198.4 0 200-116.2 200-118 0 1.8 1.6 118 200 118 86.3 0 152.3-29 202.9-73.6 17.2 4.3 35.1 6.5 53.5 6.5 132.7 0 240.4-117.2 240.4-261.9-.2-100.7-52.4-188.2-129-232z"/>
        <ellipse class="st1" cx="703.7" cy="960.5" rx="63.5" ry="77.8"/>
        <path class="st1" d="M612.2 813.9s55.7-94.5 154.9-23.4"/>
        <path class="st1" d="M653 1415l-412.9 72.9"/>
        <path class="st1" d="M240.1 1636L677 1522.7"/>
        <ellipse class="st1" cx="1216.3" cy="960.5" rx="63.5" ry="77.8"/>
        <path class="st1" d="M1307.8 813.9s-55.7-94.5-154.9-23.4"/>
        <path class="st1" d="M1267 1415l412.9 72.9"/>
        <path class="st1" d="M1679.9 1636L1243 1522.7"/>
    </g>
</svg>
