<svg xmlns="http://www.w3.org/2000/svg" viewBox="0 0 1920 1920">
    <style>
        .st0{fill:#fff}.st1{fill:none;stroke:#231f20;stroke-width:50;stroke-linecap:round;stroke-linejoin:round;stroke-miterlimit:10}
    </style>
    <path class="st0" d="M617.2 1197.4H488.5l82.8-85.2c19 15.6 39.4 41.9 45.9 85.2zm82 438.6c-52.5 0-95 42.6-95 95h176.5c0-26.2 10.6-50 27.8-67.2 17.2-17.2 41-27.8 67.2-27.8H699.2zm88.7-228.6c0-53.1 12.9-92.6 32.4-121.9l-94.7 7.4s-42.8 44.4-42.8 159.2c0 114.8 44.3 183.9 44.3 183.9h244.3c.1 0-183.5-9.9-183.5-228.6zm-7.2-557c-26.2-112.5-114.3-156-114.3-156l-1.3.2C654.3 615.2 582.2 572 582.2 572c-46.4 26.7-64.4 65.8-69.4 102.8 0 0-236.7 67.2-249.9 214s-44 136.8-44 136.8 87.7 148.6 315.1 66.2c0 0 17.8 4.6 37.1 20.4 19 15.5 39.5 41.8 46 85.2H447.7c-26.4 0-47.7 21.4-47.7 47.7 0 13.2 5.3 25.1 14 33.7 8.6 8.6 20.6 14 33.7 14h278.1l94.7-7.4c-19.5 29.3-32.4 68.7-32.4 121.9 0 218.7 183.6 228.6 183.6 228.6h-95.8c-26.2 0-50 10.6-67.2 27.8-17.2 17.2-27.8 41-27.8 67.2h432.7c91.6 0 182-22.9 261.8-67.8 105.1-59 213.6-166.9 213.6-360.9 0-7.6-.1-15.1-.2-22.4-3.1-192.7-113.5-366.3-284.5-455.3-160.2-83.4-199-297.8-19.3-297.8 223.1 0 308.3 132.7 308.3 132.7s105-470.4-456.4-470.4-375.2 624.5-375.2 624.5c-50.4 15.1-81 36.9-81 36.9z" id="Layer_6"/>
    <path class="st0" d="M447.6 1292.9h81.3c-.8 7-2.3 13.8-4.6 20.4-22.9 65-76 101.8-134.8 101.8-27 0-55.3-7.8-82.4-24.2-29.9-18.1-48.3-54.5-48.3-89.8 0-10.6 1.6-21.1 5.1-30.9l42.3-120c9.5-27.1 41.6-38.5 66.1-23.6l108.7 66c2.5 1.5 4.9 3.2 7.3 5h-40.8c-26.4 0-47.7 21.4-47.7 47.7 0 13.2 5.3 25.1 14 33.7 8.7 8.5 20.7 13.9 33.8 13.9z" id="Layer_7"/>
    <g id="STROKES">
        <path class="st1" d="M525.4 777.5s-56.9-140 56.9-205.6c0 0 109.3 65.6 78.7 183.7"/>
        <path class="st1" d="M725.7 1292.9l94.7-7.4"/>
        <path class="st1" d="M512.8 674.7s-236.7 67.2-249.9 214c-13.1 146.8-44 136.8-44 136.8s87.7 148.6 315.1 66.2c0 0 70 18.2 83.1 105.6H447.6c-26.4 0-47.7 21.4-47.7 47.7 0 26.4 21.4 47.7 47.7 47.7h278s-42.8 44.4-42.8 159.2 44.3 183.9 44.3 183.9"/>
        <path class="st1" d="M666.4 694.4s125.8 62.1 121.4 230.1"/>
        <path class="st1" d="M780.6 850.4s216.2-154.3 444.6 74.1 30.6 598.2 30.6 598.2"/>
        <path class="st1" d="M932.2 1636h-233c-52.5 0-95 42.5-95 95h176.5"/>
        <path class="st1" d="M861.7 813.5S675.5 189 1236.9 189s456.3 470.6 456.3 470.6-85.2-132.7-308.3-132.7c-179.7 0-141 214.4 19.3 297.8 171 88.9 281.3 262.6 284.4 455.3.1 7.4.2 14.8.2 22.4 0 194-108.5 301.9-213.7 360.9-79.9 44.9-170.2 67.8-261.8 67.8H780.6c0-52.5 42.5-95 95-95h95.8s-183.6-9.9-183.6-228.6 218.6-205.6 218.6-205.6"/>
        <path class="st1" d="M528.9 1292.9c-.7 7-2.3 13.8-4.6 20.4-33.5 94.8-131.2 129.8-217.1 77.6-38.8-23.6-58.3-77.9-43.1-120.8l42.3-119.9c9.5-27.1 41.6-38.5 66.1-23.6l108.7 66c2.5 1.5 4.9 3.2 7.3 5l82.8-85.2"/>
    </g>
</svg>
