<svg xmlns="http://www.w3.org/2000/svg" viewBox="0 0 1920 1920">
    <style>
        .st0{fill:#fff}.st1{fill:none;stroke:#231f20;stroke-width:50;stroke-linecap:round;stroke-linejoin:round;stroke-miterlimit:10}
    </style>
    <g id="STROKES">
        <path class="st1" d="M1614.5 1107.1l.5-281.1c.1-42.7 35.1-77.6 77.8-77.5h10.7"/>
        <path class="st1" d="M1615 815.3l-.5 281.1c-.1 42.7-35.1 77.6-77.8 77.5-42.7-.1-77.6-35.1-77.5-77.8l.5-281.1"/>
        <path class="st1" d="M1303.8 1106.5l.5-281.1c.1-42.7 35.1-77.6 77.8-77.5h10.7c36.8.1 66.9 30.3 66.9 67.1"/>
        <path class="st1" d="M1304.4 814.7l-.5 281.1c-.1 42.7-35.1 77.6-77.8 77.5-42.7-.1-77.6-35.1-77.5-77.8l.5-281.1"/>
        <path class="st1" d="M993.2 1106l.5-281.1c.1-42.7 35.1-77.6 77.8-77.5h10.7c36.8.1 66.9 30.3 66.9 67.1"/>
        <path class="st1" d="M993.7 814.2l-.5 281.1c-.1 42.7-35.1 77.6-77.8 77.5-42.7-.1-77.6-35.1-77.5-77.8l.5-281.1"/>
        <path class="st1" d="M682.6 1105.4l.5-281.1c.1-42.7 35.1-77.6 77.8-77.5h10.7c36.8.1 66.9 30.3 66.9 67.1"/>
        <path class="st1" d="M683.1 813.6l-.5 281.1c-.1 42.7-35.1 77.6-77.8 77.5-42.7-.1-77.6-35.1-77.5-77.8l.5-281.1"/>
        <path class="st1" d="M372 1104.9l.5-281.1c.1-42.7 35.1-77.6 77.8-77.5H461c36.8.1 66.9 30.3 66.9 67.1"/>
        <path class="st1" d="M372.5 813.1l-.5 281.1c-.1 42.7-35.1 77.6-77.8 77.5h-10.7c-36.8-.1-66.9-30.3-66.9-67.1"/>
    </g>
</svg>
