<svg xmlns="http://www.w3.org/2000/svg" viewBox="0 0 1920 1920">
    <style>
        .st0{fill:#fff}.st1{fill:none;stroke:#231f20;stroke-width:50;stroke-linecap:round;stroke-linejoin:round;stroke-miterlimit:10}
    </style>
    <path class="st0" d="M1703.1 851.7L1389 1058.4l224.4 301.6-373.4-43.6-21.9 375.4L960 1418.4l-258.1 273.4-21.9-375.4-373.4 43.6L531 1058.4 216.9 851.7l365.8-86.8L475 404.8l336 168.6 149-345.2 149 345.2 336-168.6-107.7 360.1z" id="Layer_5"/>
    <g id="STROKES">
        <path class="st1" d="M960 228.2l149 345.2 336-168.6-107.7 360.1 365.8 86.8-314.1 206.7 224.4 301.6-373.4-43.6-21.9 375.4L960 1418.4l-258.1 273.4-21.9-375.4-373.4 43.6L531 1058.4 216.9 851.7l365.8-86.8L475 404.8l336 168.6z" id="XMLID_1_"/>
    </g>
</svg>
