<svg xmlns="http://www.w3.org/2000/svg" viewBox="0 0 1920 1920">
    <style>
        .st0{fill:#fff}.st1{fill:none;stroke:#231f20;stroke-width:50;stroke-linecap:round;stroke-linejoin:round;stroke-miterlimit:10}
    </style>
    <path class="st0" d="M960 253.3V960L784.6 793.2 960 253.3zm175.4 539.9L960 960l743.1-166.8h-567.7zM960 960l459.2 706.7-175.4-539.9L960 960zm-459.2 706.7L960 1333V960l-459.2 706.7zM216.9 793.2l459.2 333.7L960 960 216.9 793.2z" id="Layer_6"/>
    <g id="Layer_7">
        <path class="st0" d="M960 253.3l175.4 539.9L960 960z"/>
        <path class="st0" d="M1703.1 793.2l-459.3 333.6L960 960z"/>
        <path class="st0" d="M960 960l459.2 706.7L960 1333z"/>
        <path class="st0" d="M960 960l-459.2 706.7 175.4-539.9z"/>
        <path class="st0" d="M960 960L216.9 793.2h567.7z"/>
    </g>
    <g id="STROKES">
        <g id="XMLID_1_">
            <path class="st1" d="M960 253.3l175.4 539.9h567.7l-459.3 333.6 175.4 539.9L960 1333l-459.2 333.7 175.4-539.9-459.3-333.6h567.7z"/>
            <path class="st1" d="M960 253.3V960l-459.2 706.7"/>
            <path class="st1" d="M1419.2 1666.7L960 960l743.1-166.8"/>
            <path class="st1" d="M676.2 1126.8L960 960 216.9 793.2"/>
            <path class="st1" d="M784.6 793.2L960 960l175.4-166.8"/>
            <path class="st1" d="M1243.8 1126.8L960 960v373"/>
        </g>
    </g>
</svg>
