<svg xmlns="http://www.w3.org/2000/svg" viewBox="0 0 1920 1920">
    <style>
        .st0{fill:#fff}.st1{fill:none;stroke:#231f20;stroke-width:50;stroke-linecap:round;stroke-linejoin:round;stroke-miterlimit:10}
    </style>
    <path class="st0" d="M1022.8 278c0-33.7-27.4-61.1-61.1-61.1-16.9 0-32.1 6.8-43.2 17.9-11.1 11.1-17.9 26.3-17.9 43.2v122.6h122.2V278zm-22.4 256h-177v343.7l67.4 33.6 69.1 34.4 136.5 68V891.1h-96V534zm-601.2-99l34 62h129.6L521 435H399.2zm999.6 0l-41.9 62h129.9l34-62h-122z" id="Layer_7"/>
    <path class="st0" d="M1200.8 435l-104.4-34.4V624l87.4-66h132l41.1-61 41.9-62h-198zm-474.5-2.4L719 435H521.2l41.8 62h-.2l41.1 61h132l87.4 66v-90h177V400.6h-177l-97 32z" id="Layer_8"/>
    <path class="st0" d="M1000.4 400.6h96v490.5h-96z" id="Layer_9"/>
    <path class="st0" d="M959.9 945.7l-69.1-34.4-67.4-33.6v382.4h273v-246.5z" id="Layer_10"/>
    <path class="st0" d="M1186.4 1623.1v-264h-39v-99H776v99h-39v264h-84v80h617.4v-80z" id="Layer_11"/>
    <g id="STROKES">
        <path class="st1" d="M890.8 911.3v348.8h-67.4V877.7z"/>
        <path class="st1" d="M1096.4 891.1v122.5l-136.5-67.9-69.1-34.4-67.4-33.6V534h177v357.1z"/>
        <path class="st1" d="M1096.4 1013.6v246.5H890.8V911.3l69.1 34.4z"/>
        <path class="st1" d="M1000.4 400.6V534h-177l-97.1-101.4 97.1-32z"/>
        <path class="st1" d="M1000.4 400.6h96v490.5h-96z"/>
        <path class="st1" d="M959.9 1260.1V945.7"/>
        <path class="st1" d="M1027.8 1260.1V981"/>
        <path class="st1" d="M1398.8 435l-41.9 62-41.1 61h-132l-87.4 66V400.6l104.4 34.4z"/>
        <path class="st1" d="M562.8 497H433.2l-34-62H521z"/>
        <path class="st1" d="M823.4 534v90L736 558H604l-41.2-61-41.8-62h198l7.3-2.4z"/>
        <path class="st1" d="M1520.8 435l-34 62h-129.9l41.9-62z"/>
        <path class="st1" d="M563 497h-.2L521 435h.2z"/>
        <path class="st1" d="M961.7 216.9c-33.7 0-61.1 27.4-61.1 61.1v122.6h122.2V278c0-33.7-27.4-61.1-61.1-61.1z"/>
        <path class="st1" d="M776 1260.1h371.3v99H776z"/>
        <path class="st1" d="M653 1623.1h617.3v80H653z"/>
        <path class="st1" d="M737 1359.1h449.3v264H737z"/>
        <path class="st1" d="M563 497h-.2L521 435h.2z"/>
    </g>
</svg>
