<svg xmlns="http://www.w3.org/2000/svg" viewBox="0 0 1920 1920">
    <style>
        .st0{fill:#fff}.st1{fill:none;stroke:#231f20;stroke-width:50;stroke-linecap:round;stroke-linejoin:round;stroke-miterlimit:10}
    </style>
    <path class="st0" d="M717.8 845c0 46 43.5 83.4 97.2 83.4V504.5h-58.2l-39 340.5zm296.8-135.5h-105v-.2c-52.5 1.4-94.5 44.4-94.5 97.1v799.3h301.6V817.9c0-57.8-45.2-105.1-102.1-108.4zm-198.9 671c.2-.2.5-.4.8-.7-.4.3-.6.5-.8.7zm.8-.7c.2-.2.5-.4.8-.7-.4.2-.6.5-.8.7z" id="Layer_6"/>
    <path class="st0" d="M781 217s-10.1 16.9-28.1 41.9c-21.8 30.2-3 93 28.1 93s56.3-30.2 56.3-67.4c0-37.4-56.3-67.5-56.3-67.5z" id="Layer_7"/>
    <path class="st0" d="M1023.7 587.2c-.4-6.8-2.1-13.2-4.8-19-2.8-5.8-6.6-11-11.2-15.4-9.2-8.6-21.5-13.9-35.1-13.9h-12c-13.7 0-26.1 5.3-35.2 14.1-9.1 8.7-15.1 20.8-15.8 34.2-.1 1-.1 1.9-.1 2.9v119.3h98.5c2.2 0 4.4.1 6.5.2h9.2V590c.1-.9.1-1.9 0-2.8z" id="Layer_8"/>
    <path class="st0" d="M1212.8 792.9l-96.1 80.2v190.7l189.9-158.6z" id="Layer_9"/>
    <path class="st0" d="M747.6 1605.8h435.7v97.2H747.6z" id="Layer_10"/>
    <g id="STROKES">
        <path class="st1" d="M1116.7 1126.5v479.4H815v-224.6c0-2.3 301.7-254.8 301.7-254.8z"/>
        <path class="st1" d="M815 1508.6c0-2.2 301.7-254.7 301.7-254.7"/>
        <path class="st1" d="M815 1253.8c0-.8 55.4-47.8 110.9-94.7"/>
        <path class="st1" d="M1008.1 709.3L815 905.2"/>
        <path class="st1" d="M1023.8 590v119.4h-9.2c-2.2-.1-4.3-.2-6.5-.2h-98.5V590c0-1 0-1.9.1-2.9.7-13.4 6.7-25.5 15.8-34.2 9.2-8.7 21.6-14.1 35.2-14.1h12c13.6 0 25.9 5.3 35.1 13.9 9.2 8.7 15.2 20.8 16 34.3v3z"/>
        <path class="st1" d="M1014.6 709.5h-105v-.2h98.5c2.1 0 4.3 0 6.5.2z"/>
        <path class="st1" d="M966.7 538.9v-95.1"/>
        <path class="st1" d="M925.5 553L878 500.3"/>
        <path class="st1" d="M1007.8 552.9l47.3-52.6"/>
        <path class="st1" d="M1023.7 587.2h41.5"/>
        <path class="st1" d="M868.1 587.2h41.6"/>
        <path class="st1" d="M756.8 504.5H815v423.9c-53.7 0-97.2-37.3-97.2-83.4l39-340.5z"/>
        <path class="st1" d="M785.9 504.5V422"/>
        <path class="st1" d="M727.7 422h116.4"/>
        <path class="st1" d="M965.9 1380.4v225.5"/>
        <path class="st1" d="M890.2 1448.8v157.1"/>
        <path class="st1" d="M1043 1315.6v290.3"/>
        <path class="st1" d="M837.3 284.4c0-37.2-56.3-67.4-56.3-67.4s-10.1 16.9-28.1 41.9c-21.8 30.2-3 93 28.1 93s56.3-30.3 56.3-67.5z"/>
        <path class="st1" d="M747.6 1605.9h435.7v97.2H747.6z"/>
        <path class="st1" d="M1116.7 817.9v308.5s-301.6 252.5-301.6 254.8V806.5c0-52.8 42.1-95.8 94.5-97.1h98.5c2.2 0 4.4.1 6.5.2 56.9 3.2 102.1 50.5 102.1 108.3z"/>
        <path class="st1" d="M1306.6 905.2l-189.9 158.6V873.1l96.1-80.2z"/>
        <path class="st1" d="M1044.2 720.1v343.7"/>
    </g>
</svg>
