<svg xmlns="http://www.w3.org/2000/svg" viewBox="0 0 1920 1920">
    <style>
        .st0{fill:#fff}.st1{fill:none;stroke:#231f20;stroke-width:50;stroke-linecap:round;stroke-linejoin:round;stroke-miterlimit:10}
    </style>
    <path class="st0" d="M1703 806.7c5.8 542.1-389.4 725.5-864.8 861.6-497.2 142.5-776.1-450.6-530.8-539.8 176.2-64.1 249.6-179.9 270.8-259 9-33.3 27-223.3 46.4-287.2 84.6-278.9 389.3-412.6 689.6-326.8 297.3 85 384.8 180 388.8 551.2zm-101.7 90.5c57.9-280.8-120.7-486.8-345.8-555.1-225.1-68.3-461.4 55.2-535.1 298-32.5 107.3 56.6 437.5-327.1 560.6-182.3 58.5 77.5 503.2 459.7 367.5 394.3-140 665.7-270.2 748.3-671zM1198.1 797c-6.7-.9-12.9-3.6-18.1-8L970.2 610.5c-14.3-12.2-35.8-10.8-48.4 3.2l-6.9 7.7c-13.1 14.5-11.7 37 3.1 49.7l162 139.6c14.3 12.3 16.2 33.8 4.2 48.4l-364.9 401.3c-23 25.3-20 64.6 6.4 86.2 7.1 5.8 15.8 8.7 24.4 8.7 10.5 0 21-4.3 28.6-12.7l407.7-450.8c7.5-8.3 18.5-12.5 29.6-11.3l203 21.8c16.6 1.8 32.2-8.5 37.1-24.5l1.9-6.2c6.2-20.6-7.5-41.9-28.8-44.6l-231.1-30z" id="Layer_7"/>
    <path class="st0" d="M1255.5 342.1c225.1 68.3 403.6 274.3 345.8 555.1-82.6 400.7-354 531-748.2 671-382.2 135.7-642-309-459.7-367.5 383.7-123.1 294.5-453.3 327.1-560.6 73.6-242.7 310-366.2 535-298zm202.3 529.6c6.2-20.6-7.5-41.9-28.8-44.6l-230.9-30c-6.7-.9-12.9-3.6-18.1-8L970.2 610.5c-14.3-12.2-35.8-10.8-48.4 3.2l-6.9 7.7c-13.1 14.5-11.7 37 3.1 49.7l162 139.6c14.3 12.3 16.2 33.8 4.2 48.4l-364.9 401.3c-23 25.3-20 64.6 6.4 86.2 7.1 5.8 15.8 8.7 24.4 8.7 10.5 0 21-4.3 28.6-12.7l407.7-450.8c7.5-8.3 18.5-12.5 29.6-11.3l203 21.8c16.6 1.8 32.2-8.5 37.1-24.5l1.7-6.1z" id="Layer_2"/>
    <g id="STROKES">
        <path class="st1" d="M1703 806.7c-3.9-371.1-91.4-466.2-388.7-551.2-300.2-85.9-605 47.9-689.6 326.8-19.4 63.9-37.5 253.9-46.4 287.2-21.2 79.1-94.6 194.9-270.8 259-245.3 89.2 33.6 682.3 530.8 539.8 475.3-136.2 870.5-319.5 864.7-861.6z"/>
        <path class="st1" d="M1255.5 342.1c-225.1-68.3-461.4 55.2-535.1 298-32.5 107.3 56.6 437.5-327.1 560.6-182.3 58.5 77.5 503.2 459.7 367.5 394.2-140 665.6-270.2 748.2-671 58-280.8-120.6-486.8-345.7-555.1z"/>
        <path class="st1" d="M1429 827l-230.9-30c-6.7-.9-12.9-3.6-18.1-8L970.2 610.5c-14.3-12.2-35.8-10.8-48.4 3.2l-6.9 7.7c-13.1 14.5-11.7 37 3.1 49.7l162 139.6c14.3 12.3 16.2 33.8 4.2 48.4l-364.9 401.3c-23 25.3-20 64.6 6.4 86.2 7.1 5.8 15.8 8.7 24.4 8.7 10.5 0 21-4.3 28.6-12.7l407.7-450.8c7.5-8.3 18.5-12.5 29.6-11.3l203 21.8c16.6 1.8 32.2-8.5 37.1-24.5l1.9-6.2c6.1-20.5-7.7-41.8-29-44.6z"/>
    </g>
</svg>
