<svg xmlns="http://www.w3.org/2000/svg" viewBox="0 0 1920 1920">
    <style>
        .st0{fill:#fff}.st1{fill:none;stroke:#231f20;stroke-width:50;stroke-linecap:round;stroke-linejoin:round;stroke-miterlimit:10}
    </style>
    <path class="st0" d="M1640 760.3c25.7 43.2 37.4 88.5 36.8 133.7-2.1 144.1-130.8 286.9-340.2 354.6 0 0-876.9 309.1-1087.9-45.7-8-13.5-14.4-26.8-19.3-40-4-12.2-6.3-20-6.7-21.4 0-.2-.1-.2-.1-.2-81-322.3 724.9-547.2 724.9-547.2 275-89 585-14.6 692.5 166.2zm-295.3 124.4c75.1-24.3 109.2-88.8 76.3-144.2-32.9-55.4-120.5-80.6-195.5-56.3-75.1 24.3-109.2 88.8-76.3 144.2 32.9 55.4 120.5 80.6 195.5 56.3zm-22.1 181.8c33-32.5 2.6-91.7-41.3-80.4-1.8.5-1.3-1.7-3.2-1.4-93.9 14.6-186.4-40.6-230.6-132.9-3.3-7-7.6-13.6-12.8-19.9-68.2-81.6-275.3-69.8-462.6 26.5-187.3 96.2-283.8 240.4-215.6 322 27.9 33.4 133.2 58.6 133.2 58.6 448.8 56.7 708.9-50.6 832.9-172.5z" id="Layer_4"/>
    <path class="st0" d="M1421.1 740.5c32.9 55.4-1.2 119.9-76.3 144.2-75.1 24.3-162.6-.9-195.5-56.3-32.9-55.4 1.3-119.9 76.3-144.2 75-24.3 162.5.9 195.5 56.3zm-143 244.2c-93.9 14.6-186.4-40.6-230.6-132.9-3.3-7-7.6-13.6-12.8-19.9-68.2-81.6-275.3-69.8-462.6 26.5-187.3 96.2-283.8 240.4-215.6 322 27.9 33.4 133.2 58.6 133.2 58.6 448.7 56.7 708.9-50.6 832.9-172.5 33-32.5 2.6-91.7-41.3-80.4-1.8.4-1.4-1.7-3.2-1.4z" id="Layer_5"/>
    <path class="st0" d="M229.4 1162.9c4.9 13.2 11.3 26.5 19.3 40 211 354.9 1087.9 45.7 1087.9 45.7 209.3-67.7 338.1-210.5 340.2-354.6v97.6c0 213.8-157.2 342.8-340.3 391.1-370.1 97.5-522.1 113.9-863.5 79-138.7-14.3-220.6-229.2-243.6-298.8z" id="Layer_6"/>
    <g id="STROKES">
        <path class="st0" d="M222.7 1141.5c.4 1.4 2.6 9.1 6.7 21.4-2.7-7.2-4.9-14.3-6.7-21.4z"/>
        <path class="st1" d="M222.7 1141.5c1.8 7.1 4 14.2 6.7 21.4 4.9 13.2 11.3 26.5 19.3 40 211 354.9 1087.9 45.7 1087.9 45.7 209.3-67.7 338.1-210.5 340.2-354.6.7-45.2-11.1-90.5-36.8-133.7-107.5-180.7-417.5-255.2-692.5-166.2 0 0-805.8 224.9-724.8 547.2"/>
        <path class="st1" d="M1149.2 828.4c-32.9-55.4 1.3-119.9 76.3-144.2 75.1-24.3 162.6.9 195.5 56.3 32.9 55.4-1.2 119.9-76.3 144.2-75 24.3-162.6-.9-195.5-56.3z"/>
        <path class="st1" d="M222.7 1141.3s0 .1.1.2c.4 1.4 2.6 9.1 6.7 21.4 23 69.6 104.9 284.5 243.6 298.7 341.4 34.9 493.4 18.6 863.5-79 183-48.2 340.3-177.3 340.3-391.1V894"/>
        <path class="st1" d="M1278.1 984.7c-93.9 14.6-186.4-40.6-230.6-132.9-3.3-7-7.6-13.6-12.8-19.9-68.2-81.6-275.3-69.8-462.6 26.5-187.3 96.2-283.8 240.4-215.6 322 27.9 33.4 133.2 58.6 133.2 58.6 448.7 56.7 708.9-50.6 832.9-172.5 33-32.5 2.6-91.7-41.3-80.4-1.8.4-1.4-1.7-3.2-1.4z"/>
    </g>
</svg>
