<svg xmlns="http://www.w3.org/2000/svg" viewBox="0 0 1920 1920">
    <style>
        .st0{fill:#fff}.st1{fill:none;stroke:#231f20;stroke-width:50;stroke-linecap:round;stroke-linejoin:round;stroke-miterlimit:10}
    </style>
    <path class="st0" d="M1703.1 957.4c0 41.2-12.3 80.2-33.9 112.8l-417.4-310.1 69.3-2c88.1-2.6 264.6 10.2 343 96.6 24.1 26.6 39 60.3 39 102.7zm-451.4-197.3L960 768.8v.3l538 399.7 51.6-13.3c50.4-13 92.2-44.1 119.5-85.2l-417.4-310.2zM960 769v-.3l-285.7 8.4v.4l603.1 448 220.6-56.9L960 769zm317.4 456.7l-603.1-448v-.4l-14.8.4c-167.2 0-312.7 64-388 158.5l572.2 425.1c15.1-4.8 29.7-10.1 43.8-16 78.4-32.6 158.9-59.9 241.1-81.1l148.8-38.5zM216.9 1083.2c0 168.8 198.1 305.6 442.5 305.6 65.7 0 128.1-9.9 184.2-27.7l-572.1-425c-34.8 43.7-54.6 93.8-54.6 147.1z" id="Layer_3"/>
    <path class="st0" d="M1703.1 957.4v165.4c0 77.9-51.9 146.2-127 167l-602.6 167.3c-8 2.2-15.6 5.5-22.7 9.9-30.3 19-137 74.8-343.8 74.8-164.7 0-282.1-81.6-342.8-136.8-30.2-27.5-47.3-66.5-47.3-107.4v-214.4c0 168.8 198.1 305.6 442.5 305.6 65.7 0 128.1-9.9 184.2-27.7 15.1-4.8 29.7-10.1 43.8-16 78.4-32.6 158.9-59.9 241.1-81.1l148.9-38.4 220.6-56.9 51.6-13.3c50.4-13 92.2-44.1 119.5-85.2 21.6-32.6 34-71.5 34-112.8z" id="Layer_8"/>
    <g id="STROKES">
        <path class="st1" d="M1703.1 957.4c0-42.4-14.8-76.1-39-102.7-78.4-86.4-254.9-99.2-343-96.6l-69.3 2-291.8 8.7-285.7 8.4-14.8.4c-167.2 0-312.7 64-388 158.5-34.8 43.6-54.6 93.8-54.6 147.1 0 168.8 198.1 305.6 442.5 305.6 65.7 0 128.1-9.9 184.2-27.7 15.1-4.8 29.7-10.1 43.8-16 78.4-32.6 158.9-59.9 241.1-81.1l148.9-38.4 220.6-56.9 51.6-13.3c50.4-13 92.2-44.1 119.5-85.2 21.6-32.6 34-71.5 34-112.8z"/>
        <path class="st1" d="M216.9 1083.2v214.4c0 40.8 17.1 79.9 47.3 107.4 60.7 55.3 178.1 136.8 342.8 136.8 206.8 0 313.5-55.9 343.8-74.8 7-4.4 14.7-7.7 22.7-9.9l602.6-167.3c75-20.8 127-89.1 127-167V957.4"/>
        <path class="st1" d="M430.1 826l619.7 460.4"/>
        <path class="st1" d="M674.3 777.6l603.1 448.1"/>
        <path class="st1" d="M960 769l538 399.8"/>
        <path class="st1" d="M1251.7 760.1l417.4 310.1"/>
        <path class="st1" d="M271.5 936.1l572.2 425.1"/>
    </g>
</svg>
