<svg xmlns="http://www.w3.org/2000/svg" viewBox="0 0 1920 1920">
    <style>
        .st0{fill:#fff}.st1{fill:none;stroke:#231f20;stroke-width:50;stroke-linecap:round;stroke-linejoin:round;stroke-miterlimit:10}
    </style>
    <path class="st0" d="M1460.9 607c26.5 0 48 21.5 48 48s-21.5 48-48 48-48-21.5-48-48 21.5-48 48-48zm146.1 716.6c0 26.5 21.5 48 48 48s48-21.5 48-48-21.5-48-48-48-48 21.5-48 48zm-194.1 0c0 26.5 21.5 48 48 48s48-21.5 48-48-21.5-48-48-48-48 21.5-48 48zM285 1512.1c0 26.5 21.5 48 48 48s48-21.5 48-48-21.5-48-48-48-48 21.5-48 48zM411.1 445c0 26.5 21.5 48 48 48s48-21.5 48-48-21.5-48-48-48-48 21.4-48 48zm-194.2 0c0 26.5 21.5 48 48 48s48-21.5 48-48-21.5-48-48-48-48 21.4-48 48z" id="Layer_2"/>
    <path class="st0" d="M1278.2 581v1122.1H641.8V581h636.4zm-114.4 310.8c0-112.6-91.2-203.8-203.8-203.8s-203.8 91.2-203.8 203.8 91.2 203.8 203.8 203.8 203.8-91.2 203.8-203.8zm0 500.5c0-112.6-91.2-203.8-203.8-203.8s-203.8 91.2-203.8 203.8c0 112.6 91.2 203.8 203.8 203.8s203.8-91.3 203.8-203.8z" id="Layer_3"/>
    <path class="st0" d="M960 1188.4c112.6 0 203.8 91.2 203.8 203.8 0 112.6-91.2 203.8-203.8 203.8s-203.8-91.2-203.8-203.8c0-112.5 91.2-203.8 203.8-203.8zm130.4 203.9c0-72-58.4-130.4-130.4-130.4s-130.5 58.4-130.5 130.4S888 1522.7 960 1522.7s130.4-58.4 130.4-130.4zM960 688c112.6 0 203.8 91.2 203.8 203.8s-91.2 203.8-203.8 203.8-203.8-91.2-203.8-203.8S847.4 688 960 688zm130.4 203.8c0-72-58.4-130.4-130.4-130.4s-130.5 58.4-130.5 130.4S888 1022.2 960 1022.2s130.4-58.4 130.4-130.4z" id="Layer_4"/>
    <path class="st0" d="M960 1261.8c72 0 130.4 58.4 130.4 130.4S1032 1522.7 960 1522.7s-130.5-58.4-130.5-130.4S888 1261.8 960 1261.8zm-130.5-370c0 72 58.4 130.5 130.5 130.5s130.4-58.4 130.4-130.5S1032 761.3 960 761.3s-130.5 58.5-130.5 130.5z" id="Layer_5"/>
    <g id="STROKES">
        <g id="XMLID_1_">
            <path class="st1" d="M641.8 581h636.3v1122.1H641.8z"/>
            <circle class="st1" cx="960" cy="891.8" r="203.8"/>
            <circle class="st1" cx="960" cy="1392.3" r="203.8"/>
            <ellipse class="st1" cx="960" cy="891.8" rx="130.4" ry="130.4"/>
            <circle class="st1" cx="960" cy="1392.3" r="130.4"/>
            <circle class="st1" cx="265" cy="445" r="48"/>
            <path class="st1" d="M507.1 445c0 26.5-21.5 48-48 48s-48-21.5-48-48 21.5-48 48-48 48 21.4 48 48z"/>
            <path class="st1" d="M507.1 445V216.9H313V445"/>
            <path class="st1" d="M1508.9 1323.6c0 26.5-21.5 48-48 48s-48-21.5-48-48 21.5-48 48-48 48 21.5 48 48z"/>
            <path class="st1" d="M1703.1 1323.6c0 26.5-21.5 48-48 48s-48-21.5-48-48 21.5-48 48-48 48 21.5 48 48z"/>
            <path class="st1" d="M1703.1 1323.6v-228h-194.2v228"/>
            <path class="st1" d="M1508.9 655c0 26.5-21.5 48-48 48s-48-21.5-48-48 21.5-48 48-48 48 21.5 48 48z"/>
            <path class="st1" d="M1625 427h-116.1v228"/>
            <path class="st1" d="M381 1512.1c0 26.5-21.5 48-48 48s-48-21.5-48-48 21.5-48 48-48 48 21.5 48 48z"/>
            <path class="st1" d="M497.1 1284.1H381v228"/>
        </g>
    </g>
</svg>
