<svg xmlns="http://www.w3.org/2000/svg" viewBox="0 0 1920 1920">
    <style>
        .st0{fill:#fff}.st1{fill:none;stroke:#231f20;stroke-width:50;stroke-linecap:round;stroke-linejoin:round;stroke-miterlimit:10}
    </style>
    <path class="st0" d="M1479 640.3c79.3 0 143.5 64.3 143.5 143.5s-64.2 143.5-143.5 143.5-143.5-64.2-143.5-143.5 64.3-143.5 143.5-143.5zm-143.5 495.9c0 79.3 64.3 143.5 143.5 143.5s143.5-64.3 143.5-143.5c0-79.3-64.2-143.5-143.5-143.5s-143.5 64.2-143.5 143.5zm-1038 0c0 79.3 64.2 143.5 143.5 143.5s143.5-64.3 143.5-143.5c0-79.3-64.3-143.5-143.5-143.5s-143.5 64.2-143.5 143.5zm0-352.4c0 79.3 64.2 143.5 143.5 143.5s143.5-64.2 143.5-143.5S520.2 640.3 441 640.3s-143.5 64.2-143.5 143.5z" id="Layer_6"/>
    <path class="st0" d="M1703.1 565v790H1255V565h448.1zm-80.6 218.8c0-79.3-64.2-143.5-143.5-143.5s-143.5 64.3-143.5 143.5 64.3 143.5 143.5 143.5 143.5-64.2 143.5-143.5zm0 352.4c0-79.3-64.2-143.5-143.5-143.5s-143.5 64.3-143.5 143.5c0 79.3 64.3 143.5 143.5 143.5s143.5-64.3 143.5-143.5zM665 565v790H217V565h448zm-80.5 218.8c0-79.3-64.3-143.5-143.5-143.5s-143.5 64.3-143.5 143.5S361.7 927.3 441 927.3s143.5-64.2 143.5-143.5zm0 352.4c0-79.3-64.3-143.5-143.5-143.5s-143.5 64.3-143.5 143.5c0 79.3 64.2 143.5 143.5 143.5s143.5-64.3 143.5-143.5zM756 857v422.7h408V857H756z" id="Layer_7"/>
    <path class="st0" d="M756 1279.7h408v75.3H756z" id="Layer_8"/>
    <g id="STROKES">
        <g id="XMLID_1_">
            <path class="st1" d="M216.9 565h448v790.1h-448z"/>
            <circle class="st1" cx="441" cy="783.8" r="143.5"/>
            <circle class="st1" cx="441" cy="1136.2" r="143.5"/>
            <path class="st1" d="M1255 565h448v790.1h-448z"/>
            <circle class="st1" cx="1479" cy="783.8" r="143.5"/>
            <circle class="st1" cx="1479" cy="1136.2" r="143.5"/>
            <path class="st1" d="M1164 1279.7V857H756v498h408z"/>
            <path class="st1" d="M830 992.7h260"/>
            <path class="st1" d="M830 1106h260"/>
            <path class="st1" d="M756 1279.7h408"/>
        </g>
    </g>
</svg>
