<svg xmlns="http://www.w3.org/2000/svg" viewBox="0 0 1920 1920">
    <style>
        .st0{fill:#fff}.st1{fill:none;stroke:#231f20;stroke-width:50;stroke-linecap:round;stroke-linejoin:round;stroke-miterlimit:10}
    </style>
    <path class="st0" d="M931 291.3c0 41-33.3 74.3-74.3 74.3s-74.3-33.3-74.3-74.3 33.3-74.3 74.3-74.3c41-.1 74.3 33.2 74.3 74.3zm-577.4 0c0 18.2 6.6 35 17.5 47.9 13.6 16.1 34 26.4 56.8 26.4 41 0 74.3-33.3 74.3-74.3S468.9 217 427.9 217c-41.1-.1-74.3 33.2-74.3 74.3z" id="Layer_2"/>
    <path class="st0" d="M1461.3 1414.5c79.7 0 144.3 64.6 144.3 144.3 0 79.7-64.6 144.3-144.3 144.3-79.7 0-144.3-64.6-144.3-144.3.1-79.7 64.7-144.3 144.3-144.3zm41.7 144.3c0-23-18.7-41.7-41.7-41.7-23 0-41.7 18.7-41.7 41.7s18.7 41.7 41.7 41.7c23.1 0 41.7-18.7 41.7-41.7zm-83.4 0c0 23 18.7 41.7 41.7 41.7 23 0 41.7-18.7 41.7-41.7s-18.7-41.7-41.7-41.7c-23 0-41.7 18.7-41.7 41.7z" id="Layer_4"/>
    <g id="STROKES">
        <path class="st1" d="M502.2 291.3c0 41-33.3 74.3-74.3 74.3-22.8 0-43.2-10.3-56.8-26.4a74.138 74.138 0 0 1-17.5-47.9c0-41 33.3-74.3 74.3-74.3 41-.1 74.3 33.2 74.3 74.3z"/>
        <ellipse class="st1" cx="856.7" cy="291.3" rx="74.3" ry="74.3"/>
        <path class="st1" d="M913.5 339.2c48.3 38.5 68.2 102.6 50.1 161.6C916.2 655 807.7 933.3 642.3 933.3S368.4 655 321 500.8c-18.1-59 1.8-123.1 50.1-161.6"/>
        <path class="st1" d="M642.3 933.3s-226.7 697.2 183.9 483.3c410.6-213.8 633-162.5 635.1-2.2"/>
        <path class="st1" d="M1605.6 1558.8c0 79.7-64.6 144.3-144.3 144.3-79.7 0-144.3-64.6-144.3-144.3 0-79.7 64.6-144.3 144.3-144.3 79.7 0 144.3 64.6 144.3 144.3z"/>
        <path class="st1" d="M1503 1558.8c0 23-18.7 41.7-41.7 41.7-23 0-41.7-18.7-41.7-41.7s18.7-41.7 41.7-41.7c23.1 0 41.7 18.7 41.7 41.7z"/>
    </g>
</svg>
