<svg xmlns="http://www.w3.org/2000/svg" viewBox="0 0 1920 1920">
    <style>
        .st0{fill:#fff}.st1{fill:none;stroke:#231f20;stroke-width:50;stroke-linecap:round;stroke-linejoin:round;stroke-miterlimit:10}
    </style>
    <path class="st0" d="M1184.9 1159.4c37 0 67.1 30 67.1 67.1 0 37.1-30 67.1-67.1 67.1s-67.1-30-67.1-67.1c0-37 30-67.1 67.1-67.1z" id="Layer_5"/>
    <g id="STROKES">
        <path class="st1" d="M1104.3 216.9c33.9 0 61.6 27.7 61.6 61.6v350.9c0 140.1-114.6 254.7-254.7 254.7-70 0-133.7-28.6-179.9-74.8-46.2-46.2-74.8-109.8-74.8-179.9V278.5c0-33.9 27.7-61.6 61.6-61.6"/>
        <path class="st1" d="M911.2 884.1v682.1c0 75.6 61.3 136.8 136.8 136.8 37.8 0 72-15.3 96.8-40.1 24.8-24.8 40.1-59 40.1-96.8v-272.7"/>
        <path class="st1" d="M1251.9 1226.5c0 37.1-30 67.1-67.1 67.1s-67.1-30-67.1-67.1c0-37 30-67.1 67.1-67.1s67.1 30.1 67.1 67.1z"/>
    </g>
</svg>
