<svg xmlns="http://www.w3.org/2000/svg" viewBox="0 0 1920 1920">
    <style>
        .st0{fill:#fff}.st1{fill:none;stroke:#231f20;stroke-width:50;stroke-linecap:round;stroke-linejoin:round;stroke-miterlimit:10}
    </style>
    <path class="st0" d="M773.5 216.9v75H736c-10.4 0-19.7-4.2-26.5-11-6.8-6.8-11-16.1-11-26.5 0-20.7 16.8-37.5 37.5-37.5h37.5zm-411.2 0h-37.5v75h37.5c20.7 0 37.5-16.8 37.5-37.5 0-10.3-4.2-19.7-11-26.5-6.8-6.8-16.2-11-26.5-11zm426.2 0h-15V666c0 61.7-25.2 117.8-65.9 158.5s-96.8 65.9-158.5 65.9c-123.4 0-224.4-101-224.4-224.4V216.9h-15c-33.1 0-60 26.9-60 60v389c0 82.3 33.7 157.2 87.9 211.4s129.1 87.9 211.4 87.9c164.6 0 299.3-134.7 299.3-299.3V277c.2-33.2-26.7-60.1-59.8-60.1z" id="Layer_6"/>
    <path class="st0" d="M1554.9 1497.4c3.9-.5 8-.7 12.1-.7 57 0 103.2 46.2 103.2 103.2s-46.2 103.2-103.2 103.2-103.2-46.2-103.2-103.2c0-53 39.8-96.6 91.1-102.5z" id="Layer_7"/>
    <g id="STROKES">
        <path class="st1" d="M549.2 965.3s0 317.3 410.8 317.3c228.8 0 531.3-27.5 594.9 214.8 7.8 29.9 12.1 63.8 12.1 102.5"/>
        <path class="st1" d="M1670.2 1599.9c0 57-46.2 103.2-103.2 103.2s-103.2-46.2-103.2-103.2c0-52.9 39.8-96.5 91.1-102.5 3.9-.5 8-.7 12.1-.7 57 0 103.2 46.2 103.2 103.2z"/>
        <path class="st1" d="M324.8 291.9v374.2c0 123.4 101 224.4 224.4 224.4 61.7 0 117.8-25.2 158.5-65.9s65.9-96.8 65.9-158.5V216.9h15c33.1 0 60 26.9 60 60v389c0 164.6-134.7 299.3-299.3 299.3-82.3 0-157.2-33.7-211.4-87.9s-88.1-129-88.1-211.3V277c0-33.1 26.9-60 60-60h15"/>
        <path class="st1" d="M324.8 291.9h37.5c20.7 0 37.5-16.8 37.5-37.5 0-10.3-4.2-19.7-11-26.5-6.8-6.8-16.1-11-26.5-11h-37.5v75z"/>
        <path class="st1" d="M736 291.9h37.5v-75H736c-20.7 0-37.5 16.8-37.5 37.5 0 10.4 4.2 19.7 11 26.5 6.8 6.8 16.2 11 26.5 11z"/>
    </g>
</svg>
