<svg xmlns="http://www.w3.org/2000/svg" viewBox="0 0 1920 1920">
    <style>
        .st0{fill:#fff}.st1{fill:none;stroke:#231f20;stroke-width:50;stroke-linecap:round;stroke-linejoin:round;stroke-miterlimit:10}
    </style>
    <path class="st0" d="M1252.9 500.1v88.6h-90.8v-88.6h90.8zm-90.8 0h90.8v88.6h-90.8v-88.6zm-44.2-283.2H810.1L592.5 434.6v307.8L810.1 960h307.7l217.6-217.6V434.6l-217.5-217.7zM989.4 676.8V500.1H1090v176.7H989.4zm0-176.7v176.7H1090V500.1H989.4z" id="Layer_6"/>
    <path class="st0" d="M920.6 960h78.7v743h-78.7z" id="Layer_7"/>
    <g id="Layer_1">
        <g id="XMLID_1_">
            <g id="XMLID_2_">
                <path class="st1" d="M920.6 960v743.1h78.8V960"/>
                <path class="st1" d="M999.4 960h118.5l217.6-217.6V434.6l-217.6-217.7H810.1L592.5 434.6v307.8L810.1 960h110.5z"/>
                <path class="st1" d="M675.1 588.7v-88.6h90.8"/>
                <path class="st1" d="M765.9 588.3v88.5h-90.8"/>
                <path class="st1" d="M675.1 588.7h90.8"/>
                <path class="st1" d="M1252.9 588.7v-88.6h-90.8"/>
                <path class="st1" d="M1162.1 500.1v176.7"/>
                <path class="st1" d="M1252.9 588.7h-90.8"/>
                <path class="st1" d="M832 500.1h90.7"/>
                <path class="st1" d="M877.3 676.8V500.1"/>
                <path class="st1" d="M989.4 500.1H1090v176.7H989.4z"/>
            </g>
        </g>
    </g>
</svg>
