<svg xmlns="http://www.w3.org/2000/svg" viewBox="0 0 1920 1920">
    <style>
        .st0{fill:#fff}.st1{fill:none;stroke:#231f20;stroke-width:50;stroke-linecap:round;stroke-linejoin:round;stroke-miterlimit:10}
    </style>
    <path class="st0" d="M1295.1 413.3v277.6l-196.3 196.3H821.1L624.9 690.9V413.3L821.2 217h277.6l196.3 196.3zm-238.7 327.6l92.5-92.5-96.4-96.4 96.4-96.4-92.5-92.5-96.4 96.5-96.4-96.4-92.5 92.5 96.4 96.4-96.4 96.4 92.5 92.5 96.4-96.4 96.4 96.3z" id="Layer_5"/>
    <path class="st0" d="M1008.9 887.2v815.9l-97.8-1.1V887.2h97.8z" id="Layer_2"/>
    <path class="st0" d="M1148.8 648.4l-92.4 92.5-96.4-96.4-96.4 96.4-92.4-92.5 96.3-96.3-96.3-96.4 92.4-92.5 96.4 96.4 96.4-96.4 92.4 92.5-96.3 96.4z" id="Layer_3"/>
    <g id="Layer_1">
        <g id="XMLID_1_">
            <g id="XMLID_2_">
                <path class="st1" d="M1008.9 887.2h89.9l196.3-196.3V413.3l-196.3-196.4H821.2L624.9 413.3v277.6l196.3 196.3h89.9z"/>
                <path class="st1" d="M1008.9 887.2v815.9l-97.8-1.1V887.2"/>
                <path class="st1" d="M1056.4 740.9l92.4-92.5-96.3-96.3 96.3-96.4-92.4-92.5-96.4 96.4-96.4-96.4-92.4 92.5 96.3 96.4-96.3 96.3 92.4 92.5 96.4-96.4z"/>
            </g>
        </g>
    </g>
</svg>
