<svg xmlns="http://www.w3.org/2000/svg" viewBox="0 0 1920 1920">
    <style>
        .st0{fill:#fff}.st1{fill:none;stroke:#231f20;stroke-width:50;stroke-linecap:round;stroke-linejoin:round;stroke-miterlimit:10}
    </style>
    <path class="st0" d="M1703.1 537.4v759.1H216.9V537.4h1486.2zm-117.2 382.1c0-129.6-105-234.6-234.6-234.6s-234.6 105-234.6 234.6 105 234.6 234.6 234.6 234.6-105.1 234.6-234.6zm-662.8 0c0-162.7-131.9-294.5-294.5-294.5S334.1 756.8 334.1 919.5 465.9 1214 628.6 1214s294.5-131.9 294.5-294.5z" id="Layer_1"/>
    <path class="st0" d="M1703.1 1296.5V1593H216.9v-296.5h1486.2zm-156.8 149.3c0-40.8-33-73.8-73.8-73.8s-73.8 33.1-73.8 73.8c0 40.8 33 73.8 73.8 73.8s73.8-33.1 73.8-73.8zm-242.4 0c0-40.8-33.1-73.8-73.8-73.8-40.8 0-73.8 33.1-73.8 73.8 0 40.8 33 73.8 73.8 73.8 40.7 0 73.8-33.1 73.8-73.8zm-480.3 0c0-40.8-33-73.8-73.8-73.8s-73.8 33.1-73.8 73.8c0 40.8 33.1 73.8 73.8 73.8 40.8 0 73.8-33.1 73.8-73.8zm-242.4 0c0-40.8-33-73.8-73.8-73.8s-73.8 33.1-73.8 73.8c0 40.8 33.1 73.8 73.8 73.8 40.7 0 73.8-33.1 73.8-73.8z" id="Layer_2"/>
    <path class="st0" d="M1472.5 1372c40.8 0 73.8 33.1 73.8 73.8 0 40.8-33 73.8-73.8 73.8s-73.8-33-73.8-73.8 33.1-73.8 73.8-73.8zm-316.2 73.8c0 40.8 33 73.8 73.8 73.8s73.8-33 73.8-73.8-33.1-73.8-73.8-73.8c-40.8 0-73.8 33-73.8 73.8zm-722.8 0c0 40.8 33.1 73.8 73.8 73.8 40.8 0 73.8-33 73.8-73.8s-33-73.8-73.8-73.8c-40.7 0-73.8 33-73.8 73.8zm242.5 0c0 40.8 33.1 73.8 73.8 73.8 40.8 0 73.8-33 73.8-73.8s-33-73.8-73.8-73.8-73.8 33-73.8 73.8z" id="Layer_4"/>
    <path class="st0" d="M1351.3 770.8c82.1 0 148.7 66.6 148.7 148.7s-66.6 148.7-148.7 148.7-148.7-66.6-148.7-148.7 66.6-148.7 148.7-148.7zm62.2 148.7c0-34.4-27.9-62.2-62.2-62.2-34.4 0-62.2 27.9-62.2 62.2 0 34.4 27.9 62.2 62.2 62.2 34.4 0 62.2-27.9 62.2-62.2zm-62.2-234.7c129.6 0 234.6 105 234.6 234.6s-105 234.6-234.6 234.6-234.6-105-234.6-234.6 105-234.6 234.6-234.6zM1500 919.5c0-82.1-66.6-148.7-148.7-148.7s-148.7 66.6-148.7 148.7 66.6 148.7 148.7 148.7c82.1-.1 148.7-66.6 148.7-148.7zm-949.5 0c0 43.1 35 78.1 78.1 78.1 43.1 0 78.1-35 78.1-78.1 0-43.1-35-78.1-78.1-78.1-43.2 0-78.1 34.9-78.1 78.1zm78.1-186.7c103.1 0 186.6 83.6 186.6 186.6S731.7 1106 628.6 1106 442 1022.5 442 919.5s83.5-186.7 186.6-186.7zm78.1 186.7c0-43.1-35-78.1-78.1-78.1-43.1 0-78.1 35-78.1 78.1 0 43.1 35 78.1 78.1 78.1 43.1 0 78.1-35 78.1-78.1zM628.6 625c162.6 0 294.5 131.8 294.5 294.5S791.2 1214 628.6 1214s-294.5-131.8-294.5-294.5S465.9 625 628.6 625zm186.6 294.5c0-103.1-83.5-186.6-186.6-186.6S442 816.4 442 919.5s83.6 186.6 186.6 186.6 186.6-83.6 186.6-186.6zm473.9 0c0 34.4 27.9 62.2 62.2 62.2 34.4 0 62.2-27.8 62.2-62.2 0-34.4-27.9-62.2-62.2-62.2-34.4-.1-62.2 27.8-62.2 62.2z" id="Layer_5"/>
    <g id="STROKES">
        <path class="st1" d="M1703.1 1296.5V1593H216.9V537.4h1486.2z"/>
        <path class="st1" d="M581.2 1445.8c0 40.8-33 73.8-73.8 73.8s-73.8-33-73.8-73.8 33.1-73.8 73.8-73.8c40.7 0 73.8 33 73.8 73.8z"/>
        <path class="st1" d="M823.6 1445.8c0 40.8-33 73.8-73.8 73.8s-73.8-33-73.8-73.8 33.1-73.8 73.8-73.8c40.8 0 73.8 33 73.8 73.8z"/>
        <path class="st1" d="M1303.9 1445.8c0 40.8-33.1 73.8-73.8 73.8-40.8 0-73.8-33-73.8-73.8s33-73.8 73.8-73.8c40.7 0 73.8 33 73.8 73.8z"/>
        <path class="st1" d="M1546.3 1445.8c0 40.8-33 73.8-73.8 73.8s-73.8-33-73.8-73.8 33-73.8 73.8-73.8 73.8 33 73.8 73.8z"/>
        <path class="st1" d="M216.9 1296.5h1486.2"/>
        <circle class="st1" cx="628.6" cy="919.5" r="294.5"/>
        <ellipse class="st1" cx="628.6" cy="919.5" rx="186.6" ry="186.6"/>
        <path class="st1" d="M706.7 919.5c0 43.1-35 78.1-78.1 78.1-43.1 0-78.1-35-78.1-78.1 0-43.1 35-78.1 78.1-78.1 43.1 0 78.1 34.9 78.1 78.1z"/>
        <circle class="st1" cx="1351.3" cy="919.5" r="234.6"/>
        <path class="st1" d="M1500 919.5c0 82.1-66.6 148.7-148.7 148.7s-148.7-66.6-148.7-148.7 66.6-148.7 148.7-148.7S1500 837.3 1500 919.5z"/>
        <path class="st1" d="M1351.3 857.2c34.4 0 62.2 27.9 62.2 62.2 0 34.4-27.9 62.2-62.2 62.2-34.4 0-62.2-27.8-62.2-62.2 0-34.3 27.8-62.2 62.2-62.2z"/>
    </g>
</svg>
