<svg xmlns="http://www.w3.org/2000/svg" viewBox="0 0 1920 1920">
    <style>
        .st0{fill:#fff}.st1{fill:none;stroke:#231f20;stroke-width:50;stroke-linecap:round;stroke-linejoin:round;stroke-miterlimit:10}
    </style>
    <path class="st0" d="M393.9 605.1c0 136 110.2 246.2 246.2 246.2S886.4 741 886.4 605.1 776.1 358.9 640.2 358.9 393.9 469.1 393.9 605.1zm0 623.7c0 136 110.2 246.2 246.2 246.2s246.2-110.2 246.2-246.2-110.2-246.2-246.1-246.2-246.3 110.2-246.3 246.2zm639.7 0c0 136 110.2 246.2 246.2 246.2s246.2-110.2 246.2-246.2-110.2-246.2-246.2-246.2-246.2 110.2-246.2 246.2zm0-623.7c0 136 110.2 246.2 246.2 246.2S1526 741.1 1526 605.1s-110.2-246.2-246.2-246.2-246.2 110.2-246.2 246.2zm626.4-323v1269.7c0 35.8-29.3 65.1-65.1 65.1H325.1c-35.8 0-65.1-29.3-65.1-65.1V282.1c0-35.8 29.3-65.1 65.1-65.1h1269.7c35.9-.1 65.2 29.3 65.2 65.1z" id="Layer_8"/>
    <path class="st0" d="M1465 1616.9v86.2h-157v-86.2h157zm-431.4 0v86.2h156.9v-86.2h-156.9zm-639.7 0v86.2h313.9v-86.2H393.9z" id="Layer_9"/>
    <path class="st0" d="M1279.8 739v-66.3c37.4 0 67.7-30.3 67.7-67.7h66.3c0 74-60 134-134 134zm-246.2-133.9c0 136 110.2 246.2 246.2 246.2S1526 741.1 1526 605.1s-110.2-246.2-246.2-246.2-246.2 110.2-246.2 246.2zm246.2-134c74 0 134 60 134 134s-60 134-134 134-134-60-134-134 60.1-134 134-134zm-246.2 757.7c0 136 110.2 246.2 246.2 246.2s246.2-110.2 246.2-246.2-110.2-246.2-246.2-246.2-246.2 110.2-246.2 246.2zm246.2-134c74 0 134 60 134 134s-60 134-134 134-134-60-134-134 60.1-134 134-134zm67.7 134c0 37.4-30.3 67.7-67.7 67.7v66.3c74 0 134-60 134-134h-66.3zm-67.7-691.4c37.4 0 67.7 30.3 67.7 67.7h66.3c0-74-60-134-134-134v66.3zm0 623.7c37.4 0 67.7 30.3 67.7 67.7h66.3c0-74-60-134-134-134v66.3zm-133.9 67.7h66.3c0-37.4 30.3-67.7 67.7-67.7v-66.3c-74 0-134 60-134 134zm0-623.7h66.3c0-37.4 30.3-67.7 67.7-67.7v-66.3c-74 0-134 60-134 134zm133.9 67.7c-37.4 0-67.7-30.3-67.7-67.7h-66.3c0 74 60 134 134 134v-66.3zm0 689.9v-66.3c-37.4 0-67.7-30.3-67.7-67.7h-66.3c.1 74.1 60.1 134 134 134zM640.2 471.1c74 0 134 60 134 134s-60 134-134 134-134-60-134-134 60-134 134-134zm-246.3 134c0 136 110.2 246.2 246.2 246.2S886.4 741 886.4 605.1 776.1 358.9 640.2 358.9 393.9 469.1 393.9 605.1zm246.3 489.7c74 0 134 60 134 134s-60 134-134 134-134-60-134-134 60-134 134-134zm-246.3 134c0 136 110.2 246.2 246.2 246.2s246.2-110.2 246.2-246.2-110.2-246.2-246.1-246.2-246.3 110.2-246.3 246.2zm246.3-556V739c74 0 134-60 134-134h-66.3c-.1 37.5-30.4 67.8-67.7 67.8zm0-135.4c37.4 0 67.7 30.3 67.7 67.7h66.3c0-74-60-134-134-134v66.3zm0 623.7c37.4 0 67.7 30.3 67.7 67.7h66.3c0-74-60-134-134-134v66.3zm0 135.4v66.3c74 0 134-60 134-134h-66.3c-.1 37.4-30.4 67.7-67.7 67.7zm-134-67.7h66.3c0-37.4 30.3-67.7 67.7-67.7v-66.3c-74 0-134 60-134 134zm0-623.7h66.3c0-37.4 30.3-67.7 67.7-67.7v-66.3c-74 0-134 60-134 134zm134 133.9v-66.3c-37.4 0-67.7-30.3-67.7-67.7h-66.3c0 74 60 134 134 134zm0 623.7v-66.3c-37.4 0-67.7-30.3-67.7-67.7h-66.3c0 74.1 60 134 134 134zm639.6-689.9c37.4 0 67.7-30.3 67.7-67.7 0-37.4-30.3-67.7-67.7-67.7-37.4 0-67.7 30.3-67.7 67.7.1 37.4 30.4 67.7 67.7 67.7zm0 623.7c37.4 0 67.7-30.3 67.7-67.7 0-37.4-30.3-67.7-67.7-67.7-37.4 0-67.7 30.3-67.7 67.7.1 37.4 30.4 67.7 67.7 67.7zM572.5 605.1c0 37.4 30.3 67.7 67.7 67.7 37.4 0 67.7-30.3 67.7-67.7 0-37.4-30.3-67.7-67.7-67.7-37.4 0-67.7 30.3-67.7 67.7zm0 623.7c0 37.4 30.3 67.7 67.7 67.7 37.4 0 67.7-30.3 67.7-67.7 0-37.4-30.3-67.7-67.7-67.7-37.4 0-67.7 30.3-67.7 67.7z" id="Layer_10"/>
    <g id="STROKES">
        <path class="st1" d="M393.9 1616.9h-68.8c-35.8 0-65.1-29.3-65.1-65.1V282.1c0-35.8 29.3-65.1 65.1-65.1h1269.7c35.8 0 65.1 29.3 65.1 65.1v1269.7c0 35.8-29.3 65.1-65.1 65.1H393.9z"/>
        <circle class="st1" cx="640.2" cy="605.1" r="246.2"/>
        <circle class="st1" cx="640.1" cy="605.1" r="134"/>
        <path class="st1" d="M707.8 605.1c0 37.4-30.3 67.7-67.7 67.7-37.4 0-67.7-30.3-67.7-67.7 0-37.4 30.3-67.7 67.7-67.7 37.4 0 67.7 30.3 67.7 67.7z"/>
        <path class="st1" d="M640.2 537.4V415.2"/>
        <path class="st1" d="M640.2 794.9V672.8"/>
        <path class="st1" d="M707.8 605.1H830"/>
        <path class="st1" d="M450.3 605.1h122.2"/>
        <circle class="st1" cx="1279.8" cy="605.1" r="246.2"/>
        <circle class="st1" cx="1279.9" cy="605.1" r="134"/>
        <path class="st1" d="M1347.5 605.1c0 37.4-30.3 67.7-67.7 67.7-37.4 0-67.7-30.3-67.7-67.7 0-37.4 30.3-67.7 67.7-67.7 37.4 0 67.7 30.3 67.7 67.7z"/>
        <path class="st1" d="M1279.8 537.4V415.2"/>
        <path class="st1" d="M1279.8 794.9V672.8"/>
        <path class="st1" d="M1347.5 605.1h122.2"/>
        <path class="st1" d="M1090 605.1h122.2"/>
        <circle class="st1" cx="640.2" cy="1228.8" r="246.2"/>
        <ellipse class="st1" cx="640.1" cy="1228.8" rx="134" ry="134"/>
        <path class="st1" d="M707.8 1228.8c0 37.4-30.3 67.7-67.7 67.7-37.4 0-67.7-30.3-67.7-67.7 0-37.4 30.3-67.7 67.7-67.7 37.4 0 67.7 30.3 67.7 67.7z"/>
        <path class="st1" d="M640.2 1161.1v-122.2"/>
        <path class="st1" d="M640.2 1418.6v-122.1"/>
        <path class="st1" d="M707.8 1228.8H830"/>
        <path class="st1" d="M450.3 1228.8h122.2"/>
        <circle class="st1" cx="1279.8" cy="1228.8" r="246.2"/>
        <ellipse class="st1" cx="1279.9" cy="1228.8" rx="134" ry="134"/>
        <path class="st1" d="M1347.5 1228.8c0 37.4-30.3 67.7-67.7 67.7-37.4 0-67.7-30.3-67.7-67.7 0-37.4 30.3-67.7 67.7-67.7 37.4 0 67.7 30.3 67.7 67.7z"/>
        <path class="st1" d="M1279.8 1161.1v-122.2"/>
        <path class="st1" d="M1279.8 1418.6v-122.1"/>
        <path class="st1" d="M1347.5 1228.8h122.2"/>
        <path class="st1" d="M1090 1228.8h122.2"/>
        <path class="st1" d="M707.8 1616.9v86.2H393.9v-86.2"/>
        <path class="st1" d="M1465 1616.9v86.2h-157v-86.2"/>
        <path class="st1" d="M1190.6 1616.9v86.2h-157v-86.2"/>
    </g>
</svg>
