<svg xmlns="http://www.w3.org/2000/svg" viewBox="0 0 1920 1920">
    <style>
        .st0{fill:#fff}.st1{fill:none;stroke:#231f20;stroke-width:50;stroke-linecap:round;stroke-linejoin:round;stroke-miterlimit:10}
    </style>
    <path class="st0" d="M1166.3 444.9C1410.6 485.3 1711.9 650 1411 1265c-133.4 272.6-264.1 387.1-382.5 412.2 5.1-38.2-6.1-70.7-27.8-76.2-24.9-6.2-54.3 25.2-65.6 70.4-.9 3.7-1.7 7.4-2.3 11.1-128.2-5.7-273-111.8-421.2-412.6 14.5 22.7 33.9 35.4 50.7 30.7 24.7-6.9 34.7-48.8 22.3-93.6-12.4-44.8-42.6-75.6-67.3-68.7-24.8 6.9-34.7 48.8-22.3 93.6 1 3.5 2 6.8 3.2 10.1-282.3-596.1 14.4-757.2 255.7-797.1l5.4-.9c1.8-.3 3.6-.6 5.3-.8l3.9-.6c4-.6 8-1.2 12-1.7 3.5-.5 7-.9 10.5-1.3 1.7-.2 3.5-.4 5.2-.6 5.2-.6 10.3-1.1 15.4-1.6 4.1-.4 8.1-.8 12.1-1.1 2.4-.2 4.7-.4 7.1-.6 5.8-.5 11.6-.8 17.2-1.2 2.6-.1 5.2-.3 7.8-.4 3.6-.2 7.1-.4 10.6-.5 2.3-.1 4.6-.2 6.8-.2 2-.1 3.9-.1 5.9-.2 2.6-.1 5.3-.1 7.9-.2 29.4-.6 54.6.1 73.4 1.1 18.8-1 44-1.7 73.4-1.1 2.6 0 5.2.1 7.9.2 1.9 0 3.9.1 5.8.2 2.2.1 4.5.2 6.8.2 3.5.1 7 .3 10.6.5 2.6.1 5.2.3 7.8.4 5.6.3 11.4.7 17.2 1.2 2.3.2 4.7.4 7.1.6 4 .3 8 .7 12.1 1.1 5.1.5 10.2 1 15.4 1.6 1.7.2 3.5.4 5.2.6 3.5.4 7 .9 10.5 1.3 4 .5 7.9 1.1 11.9 1.7l3.9.6c1.8.3 3.6.5 5.3.8s3.2.6 5 .9zm291.7 622c25.6 2.5 49.9-33 54.4-79.3s-12.6-85.8-38.1-88.3c-25.6-2.5-49.9 33-54.4 79.3-4.5 46.2 12.6 85.8 38.1 88.3zm-106-216.7c24.9-6.3 35.9-47.9 24.6-93-11.3-45.1-40.7-76.6-65.6-70.4s-35.9 47.9-24.6 93c11.4 45.2 40.7 76.7 65.6 70.4zm-82.4 272.5c12.4-44.8 2.5-86.7-22.3-93.6-24.7-6.9-54.9 23.9-67.3 68.7-12.4 44.8-2.4 86.7 22.3 93.6 24.7 6.9 54.9-23.9 67.3-68.7zm-137.7-333.5c24.9-6.3 35.9-47.9 24.6-93-11.3-45.1-40.7-76.6-65.6-70.4-24.9 6.3-35.9 47.9-24.6 93 11.4 45.2 40.7 76.7 65.6 70.4zm24.6 608.7c11.3-45.1.3-86.8-24.6-93-24.9-6.2-54.3 25.2-65.6 70.4-11.3 45.1-.3 86.8 24.6 93 24.9 6.2 54.3-25.3 65.6-70.4zm-128.9-380.1c0-46.5-20.8-84.2-46.5-84.2s-46.5 37.7-46.5 84.2 20.8 84.2 46.5 84.2 46.5-37.6 46.5-84.2zM875.2 682.3c11.3-45.1.3-86.8-24.6-93-24.9-6.2-54.3 25.2-65.6 70.4-11.3 45.1-.3 86.8 24.6 93 24.9 6.2 54.2-25.3 65.6-70.4zm-46.1 786c24.9-6.2 35.9-47.9 24.6-93s-40.7-76.6-65.6-70.4c-24.9 6.3-35.9 47.9-24.6 93 11.3 45.1 40.7 76.6 65.6 70.4zm-94.9-344.5c24.8-6.9 34.7-48.8 22.3-93.6-12.4-44.8-42.6-75.6-67.3-68.7-24.7 6.9-34.7 48.8-22.3 93.6 12.4 44.7 42.5 75.5 67.3 68.7zM593.1 773.4c11.3-45.1.3-86.7-24.6-93-24.9-6.2-54.3 25.2-65.6 70.4-11.3 45.1-.3 86.7 24.6 93 24.9 6.2 54.3-25.3 65.6-70.4z" id="Layer_4"/>
    <path class="st0" d="M1257 195.4c43.2 43.3 2.6 154.2-90.8 249.6l-5.4-.9c-1.8-.3-3.6-.6-5.3-.8l-3.9-.6c-4-.6-8-1.2-11.9-1.7-3.5-.5-7-.9-10.5-1.3-1.7-.2-3.5-.4-5.2-.6-5.2-.6-10.3-1.1-15.4-1.6-4.1-.4-8.1-.8-12.1-1.1-2.4-.2-4.7-.4-7.1-.6-5.8-.5-11.6-.8-17.2-1.2-2.6-.1-5.2-.3-7.8-.4-3.6-.2-7.1-.4-10.6-.5-2.3-.1-4.6-.2-6.8-.2-2-.1-3.9-.1-5.8-.2-2.7-.1-5.3-.1-7.9-.2-29.4-.6-54.6.1-73.4 1.1-18.8-1-44-1.7-73.4-1.1-2.6 0-5.2.1-7.9.2-1.9 0-3.9.1-5.9.2-2.2.1-4.5.2-6.8.2-3.5.1-7 .3-10.6.5-2.6.1-5.2.3-7.8.4-5.6.3-11.4.7-17.2 1.2-2.3.2-4.7.4-7.1.6-4 .3-8 .7-12.1 1.1-5.1.5-10.2 1-15.4 1.6-1.7.2-3.5.4-5.2.6-3.5.4-6.9.9-10.5 1.3-4 .5-8 1.1-12 1.7l-3.9.6c-1.8.3-3.6.5-5.3.8l-5.4.9c-93.4-95.3-134-206.3-90.8-249.6 35.3-35.3 115.8 52.2 196.1 111.8 16.5-83.4 55.5-141.9 100.9-141.9s84.4 58.6 100.9 141.9c80.7-59.6 161.2-147.1 196.5-111.8z" id="Layer_5"/>
    <path class="st0" d="M1156.5 696.2c11.3 45.1.3 86.7-24.6 93-24.9 6.2-54.3-25.2-65.6-70.4-11.3-45.1-.3-86.7 24.6-93 24.9-6.2 54.3 25.3 65.6 70.4zm154.5-9.4c-24.9 6.2-35.9 47.9-24.6 93 11.3 45.1 40.7 76.6 65.6 70.4 24.9-6.3 35.9-47.9 24.6-93-11.3-45.1-40.7-76.6-65.6-70.4zm108.9 291.7c-4.5 46.3 12.5 85.8 38.1 88.3s49.9-33 54.4-79.3-12.6-85.8-38.1-88.3-49.9 33-54.4 79.3zM1180 1097.8c-12.4 44.8-2.4 86.7 22.3 93.6 24.8 6.9 54.9-23.9 67.3-68.7 12.4-44.8 2.5-86.7-22.3-93.6-24.7-6.8-54.9 23.9-67.3 68.7zm-113.7 277.5c-11.3 45.1-.3 86.8 24.6 93 24.9 6.2 54.3-25.2 65.6-70.3 11.3-45.1.3-86.8-24.6-93-24.9-6.3-54.2 25.2-65.6 70.3zM935 1671.4c-.9 3.7-1.7 7.4-2.3 11.1h.5c.7 0 1.4.1 2.1.1.8 0 1.6.1 2.3.1h2.1c6.8.1 13.6 0 20.3-.5 7.4.5 14.9.6 22.4.4h1.7c.6 0 1.2 0 1.8-.1.9 0 1.8-.1 2.7-.1.8 0 1.5-.1 2.2-.1 1.6-.1 3.2-.2 4.7-.3 1-.1 2-.2 3-.2l2.7-.3 3-.3c.9-.1 1.7-.2 2.6-.3 1.3-.2 2.6-.3 4-.5.8-.1 1.7-.2 2.5-.4 1.4-.2 2.8-.4 4.2-.7.6-.1 1.1-.2 1.7-.3l1.8-.3c1.4-.3 2.8-.5 4.2-.8 1-.2 1.9-.4 2.9-.6.1 0 .2 0 .3-.1 5.1-38.2-6.1-70.7-27.8-76.2-24.9-6.2-54.3 25.3-65.6 70.4zm-146.9-366.5c-24.9 6.3-35.9 47.9-24.6 93 11.3 45.1 40.7 76.6 65.6 70.3 24.9-6.2 35.9-47.9 24.6-93s-40.7-76.5-65.6-70.3zm146.5-287.1c0 46.5 20.8 84.2 46.5 84.2s46.5-37.7 46.5-84.2-20.8-84.2-46.5-84.2-46.5 37.7-46.5 84.2zm-245.4-56.3c-24.7 6.9-34.7 48.8-22.3 93.6 12.4 44.8 42.6 75.6 67.3 68.7 24.8-6.9 34.7-48.8 22.3-93.6-12.5-44.8-42.6-75.6-67.3-68.7zm-172.1 176.8c-24.8 6.9-34.7 48.8-22.3 93.6 1 3.5 2 6.8 3.2 10.1 3.6 7.6 7.3 15.2 11 23 .8 1.6 1.6 3.3 2.4 4.9 14.5 22.7 33.9 35.4 50.7 30.7 24.7-6.9 34.7-48.8 22.3-93.6-12.4-44.8-42.5-75.5-67.3-68.7zm-14.2-387.5c-11.3 45.1-.3 86.7 24.6 93 24.9 6.2 54.3-25.2 65.6-70.4 11.3-45.1.3-86.7-24.6-93-24.9-6.2-54.3 25.3-65.6 70.4zM785 659.6c-11.3 45.1-.3 86.8 24.6 93 24.9 6.2 54.3-25.2 65.6-70.3 11.3-45.1.3-86.8-24.6-93-24.9-6.3-54.3 25.2-65.6 70.3z" id="Layer_6"/>
    <g id="STROKES">
        <g id="XMLID_1_">
            <path class="st1" d="M1041.2 433.3c-2.7-.1-5.3-.1-7.9-.2"/>
            <path class="st1" d="M1053.9 433.7c-2.3-.1-4.6-.2-6.8-.2"/>
            <path class="st1" d="M1072.3 434.6c-2.6-.1-5.2-.3-7.8-.4"/>
            <path class="st1" d="M1096.6 436.3c-2.4-.2-4.7-.4-7.1-.6"/>
            <path class="st1" d="M1124 439.1c-5.2-.6-10.3-1.1-15.4-1.6"/>
            <path class="st1" d="M1139.7 441c-3.5-.5-7-.9-10.5-1.3"/>
            <path class="st1" d="M1155.6 443.2l-3.9-.6"/>
            <path class="st1" d="M1028.4 1677.2c118.4-25.1 249.1-139.6 382.5-412.2 300.9-615-.3-779.7-244.7-820.1l-5.4-.9"/>
            <path class="st1" d="M1025.3 1677.9c1-.2 1.9-.4 2.9-.6"/>
            <path class="st1" d="M1017.5 1679.3c.6-.1 1.1-.2 1.7-.3l1.8-.3"/>
            <path class="st1" d="M1010.8 1680.3c.8-.1 1.7-.2 2.5-.4"/>
            <path class="st1" d="M1001.3 1681.5l3-.3c.9-.1 1.7-.2 2.6-.3"/>
            <path class="st1" d="M995.6 1682c1-.1 2-.2 3-.2"/>
            <path class="st1" d="M988.6 1682.5c.8 0 1.5-.1 2.2-.1"/>
            <path class="st1" d="M982.4 1682.7h1.7c.6 0 1.2 0 1.8-.1"/>
            <path class="st1" d="M937.6 1682.7h2.1"/>
            <path class="st1" d="M933.1 1682.5c.7 0 1.4.1 2.1.1"/>
            <path class="st1" d="M759.1 444.1l-5.4.9c-241.3 39.9-538 201-255.7 797.1 3.6 7.6 7.3 15.2 11 23 .8 1.6 1.6 3.3 2.4 4.9 148.2 300.8 293 406.9 421.2 412.6"/>
            <path class="st1" d="M768.4 442.7l-3.9.6"/>
            <path class="st1" d="M790.8 439.7c-3.5.4-6.9.9-10.5 1.3"/>
            <path class="st1" d="M811.3 437.4c-5.1.5-10.2 1-15.4 1.6"/>
            <path class="st1" d="M830.5 435.8c-2.3.2-4.7.4-7.1.6"/>
            <path class="st1" d="M855.5 434.2c-2.6.1-5.2.3-7.8.4"/>
            <path class="st1" d="M872.9 433.4c-2.2.1-4.5.2-6.8.2"/>
            <path class="st1" d="M886.6 433.1c-2.6 0-5.2.1-7.9.2"/>
            <path class="st1" d="M756.5 1030.2c12.4 44.8 2.5 86.7-22.3 93.6-24.7 6.9-54.9-23.9-67.3-68.7-12.4-44.8-2.5-86.7 22.3-93.6 24.7-6.9 54.8 23.9 67.3 68.7z"/>
            <path class="st1" d="M498 1242c-1.2-3.3-2.2-6.7-3.2-10.1-12.4-44.8-2.4-86.7 22.3-93.6 24.7-6.9 54.9 23.9 67.3 68.7 12.4 44.8 2.5 86.7-22.3 93.6-16.8 4.7-36.1-8.1-50.7-30.7-5.1-8.1-9.7-17.5-13.4-27.9z"/>
            <path class="st1" d="M1180 1097.8c-12.4 44.8-2.4 86.7 22.3 93.6 24.8 6.9 54.9-23.9 67.3-68.7 12.4-44.8 2.5-86.7-22.3-93.6-24.7-6.8-54.9 23.9-67.3 68.7z"/>
            <path class="st1" d="M1419.9 978.5c-4.5 46.3 12.5 85.8 38.1 88.3s49.9-33 54.4-79.3-12.6-85.8-38.1-88.3-49.9 33-54.4 79.3z"/>
            <path class="st1" d="M1027.6 1017.8c0 46.5-20.8 84.2-46.5 84.2s-46.5-37.7-46.5-84.2 20.8-84.2 46.5-84.2 46.5 37.7 46.5 84.2z"/>
            <path class="st1" d="M1066.3 1375.3c-11.3 45.1-.3 86.8 24.6 93 24.9 6.2 54.3-25.2 65.6-70.3 11.3-45.1.3-86.8-24.6-93-24.9-6.3-54.2 25.2-65.6 70.3z"/>
            <path class="st1" d="M853.7 1375.3c11.3 45.1.3 86.8-24.6 93-24.9 6.2-54.3-25.2-65.6-70.3-11.3-45.1-.3-86.8 24.6-93 24.9-6.3 54.2 25.2 65.6 70.3z"/>
            <path class="st1" d="M875.2 682.3c11.3-45.1.3-86.8-24.6-93-24.9-6.2-54.3 25.2-65.6 70.4-11.3 45.1-.3 86.8 24.6 93 24.9 6.2 54.2-25.3 65.6-70.4z"/>
            <path class="st1" d="M1066.3 718.9c-11.3-45.1-.3-86.7 24.6-93 24.9-6.2 54.3 25.2 65.6 70.4 11.3 45.1.3 86.7-24.6 93-24.9 6.2-54.2-25.3-65.6-70.4z"/>
            <path class="st1" d="M593.1 773.4c11.3-45.1.3-86.7-24.6-93-24.9-6.2-54.3 25.2-65.6 70.4-11.3 45.1-.3 86.7 24.6 93 24.9 6.2 54.3-25.3 65.6-70.4z"/>
            <path class="st1" d="M1286.4 779.8c-11.3-45.1-.3-86.8 24.6-93s54.3 25.2 65.6 70.4c11.3 45.1.3 86.8-24.6 93-24.9 6.3-54.2-25.2-65.6-70.4z"/>
            <path class="st1" d="M886.6 433.1c29.4-.6 54.6.1 73.4 1.1 18.8-1 44-1.7 73.4-1.1 2.6 0 5.2.1 7.9.2 1.9 0 3.9.1 5.8.2 2.2.1 4.5.2 6.8.2 3.5.1 7 .3 10.6.5 2.6.1 5.2.3 7.8.4 5.6.3 11.4.7 17.2 1.2 2.3.2 4.7.4 7.1.6 4 .3 8 .7 12.1 1.1 5.1.5 10.2 1 15.4 1.6 1.7.2 3.5.4 5.2.6 3.5.4 7 .9 10.5 1.3 4 .5 7.9 1.1 11.9 1.7l3.9.6c1.8.3 3.6.5 5.3.8s3.6.6 5.4.9c93.4-95.3 134-206.3 90.8-249.6-35.3-35.3-115.8 52.2-196.1 111.8-16.5-83.4-55.5-141.9-100.9-141.9s-84.4 58.6-100.9 141.9C778.8 247.6 698.3 160.1 663 195.4c-43.2 43.3-2.6 154.2 90.8 249.6l5.4-.9c1.8-.3 3.6-.6 5.3-.8l3.9-.6c4-.6 8-1.2 12-1.7 3.5-.5 7-.9 10.5-1.3 1.7-.2 3.5-.4 5.2-.6 5.2-.6 10.3-1.1 15.4-1.6 4.1-.4 8.1-.8 12.1-1.1 2.4-.2 4.7-.4 7.1-.6 5.8-.5 11.6-.8 17.2-1.2 2.6-.1 5.2-.3 7.8-.4 3.6-.2 7.1-.4 10.6-.5 2.3-.1 4.6-.2 6.8-.2 2-.1 3.9-.1 5.9-.2 2.4-.1 5-.2 7.6-.2z"/>
            <path class="st1" d="M1028.4 1677.2c5.1-38.2-6.1-70.7-27.8-76.2-24.9-6.2-54.3 25.2-65.6 70.4-.9 3.7-1.7 7.4-2.3 11.1h.5c.7 0 1.4.1 2.1.1.8 0 1.6.1 2.3.1h2.1c6.8.1 13.6 0 20.3-.5 7.4.5 14.9.6 22.4.4h1.7c.6 0 1.2 0 1.8-.1.9 0 1.8-.1 2.7-.1.8 0 1.5-.1 2.2-.1 1.6-.1 3.2-.2 4.7-.3 1-.1 2-.2 3-.2l2.7-.3 3-.3c.9-.1 1.7-.2 2.6-.3 1.3-.2 2.6-.3 4-.5.8-.1 1.7-.2 2.5-.4 1.4-.2 2.8-.4 4.2-.7.6-.1 1.1-.2 1.7-.3l1.8-.3c1.4-.3 2.8-.5 4.2-.8 1-.2 1.9-.4 2.9-.6.1 0 .2 0 .3-.1z"/>
        </g>
    </g>
</svg>
