<svg xmlns="http://www.w3.org/2000/svg" viewBox="0 0 1920 1920">
    <style>
        .st0{fill:#fff}.st1{fill:none;stroke:#231f20;stroke-width:50;stroke-linecap:round;stroke-linejoin:round;stroke-miterlimit:10}
    </style>
    <path class="st0" d="M1317 535.8c3.7 2 254.2 137.3 172.8 473.6-41 169.4-283.7 693.6-526.4 693.6S478 1178.8 437 1009.4C355.6 673 609.8 537.6 613.3 535.8c-28.7 18.6-28.1 34.8-28.1 34.8 30.7 10.9 62 16.1 92.8 16.1 13 0 25.9-.9 38.6-2.7-7.5 25.1-11.6 51.8-11.6 79.3 38.2 0 74.7-7.8 107.8-21.8 33.1-14 62.9-34.4 87.9-59.5-4.2 75.7 22.6 152.8 80.4 210.6 53.9-53.9 80.8-124.6 80.8-195.2 0-3.8-.1-7.6-.2-11.4 49.7 47.9 117.2 77.3 191.6 77.3 0-13.3-.9-26.4-2.8-39.2-1.8-12.8-4.5-25.3-8-37.5 30.3-.2 61.2-5.3 91.4-16.1 0 0 .7-1.9.7-5-.2-6.1-2.7-17.3-17.6-29.7z" id="Layer_1"/>
    <path class="st0" d="M910.9 480.6c19.9-.5 41-.9 63.4-.9 12 0 23.6.1 34.8.2 200.9 3 278.4 31.5 307.8 55.8 14.9 12.3 17.4 23.5 17.4 29.7 0 3.2-.7 5-.7 5-30.2 10.8-61 16-91.4 16.1 3.5 12.2 6.2 24.7 8 37.5 1.8 12.8 2.8 25.9 2.8 39.2-74.4 0-141.9-29.5-191.6-77.3.2 3.8.2 7.6.2 11.4 0 70.6-26.9 141.3-80.8 195.2-57.8-57.8-84.6-134.9-80.4-210.6-25 25.1-54.8 45.5-87.9 59.5-33.1 14-69.5 21.8-107.8 21.8 0-27.6 4.1-54.2 11.6-79.3-12.7 1.8-25.6 2.7-38.6 2.7-30.8 0-62.1-5.2-92.8-16.1 0 0-.5-16.1 28.1-34.8 35.8-23 116.2-50 297.9-55.1zm63.4-.8c12 0 23.6.1 34.8.2V216.9h-98.2v263.7c19.9-.5 41-.8 63.4-.8z" id="Layer_2"/>
    <g id="STROKES">
        <g id="XMLID_1_">
            <path class="st1" d="M1317 535.8c3.7 2 254.2 137.3 172.8 473.6-41 169.4-283.7 693.6-526.4 693.6S478 1178.8 437 1009.4C355.6 673 609.8 537.6 613.3 535.8"/>
            <path class="st1" d="M1009.1 480c-11.2-.2-22.8-.2-34.8-.2-22.4 0-43.5.3-63.4.9-181.7 5.1-262 32.1-297.6 55.2-28.7 18.6-28.1 34.8-28.1 34.8 30.7 10.9 62 16.1 92.8 16.1 13 0 25.9-.9 38.6-2.7-7.5 25.1-11.6 51.8-11.6 79.3 38.2 0 74.7-7.8 107.8-21.8 33.1-14 62.9-34.4 87.9-59.5-4.2 75.7 22.6 152.8 80.4 210.6 53.9-53.9 80.8-124.6 80.8-195.2 0-3.8-.1-7.6-.2-11.4 49.7 47.9 117.2 77.3 191.6 77.3 0-13.3-.9-26.4-2.8-39.2-1.8-12.8-4.5-25.3-8-37.5 30.3-.2 61.2-5.3 91.4-16.1 0 0 .7-1.9.7-5 0-6.2-2.5-17.4-17.4-29.7-29.7-24.4-107.2-52.9-308.1-55.9z"/>
            <path class="st1" d="M910.9 480.6V216.9h98.2v262.9"/>
        </g>
    </g>
</svg>
