<svg xmlns="http://www.w3.org/2000/svg" viewBox="0 0 1920 1920">
    <style>
        .st0{fill:#fff}.st1{fill:none;stroke:#231f20;stroke-width:50;stroke-linecap:round;stroke-linejoin:round;stroke-miterlimit:10}
    </style>
    <path class="st0" d="M1319.1 557.5c27.5 17.3 503.5 332.6-153.4 1056.7-54 59.6-112.3 89.6-184.1 88.8-14.4-.2-28.7-.2-43.1 0-71.8.8-130.1-29.2-184.1-88.8-656.9-724-181-1039.3-153.5-1056.7 42.7 17.4 105.2 23.5 193.8-8.2 0 0-133 114.7-111 245.4 0 0 237-54 276.3-172.1 39.4 118.1 276.3 172.1 276.3 172.1 22-130.7-111-245.4-111-245.4 88.5 31.7 151.1 25.7 193.8 8.2z" id="Layer_7"/>
    <path class="st0" d="M1319.1 557.5c-42.7 17.4-105.2 23.5-193.8-8.2 0 0 133.1 114.7 111 245.4 0 0-237-54-276.3-172.1-39.4 118.1-276.3 172.1-276.3 172.1-22-130.7 111-245.4 111-245.4-88.5 31.7-151.1 25.6-193.8 8.2C543.4 534.1 522 490 522 490c170.9-176.6 381-54 381-54V217h114v219s210.1-122.6 381 54c0 0-21.4 44.1-78.9 67.5z" id="Layer_8"/>
    <g id="STROKES">
        <g id="XMLID_1_">
            <path class="st1" d="M1317.8 556.8s.4.2 1.2.8c27.5 17.3 503.5 332.6-153.4 1056.7-54 59.6-112.3 89.6-184.1 88.8-14.4-.2-28.7-.2-43.1 0-71.8.8-130.1-29.2-184.1-88.8C97.5 890.2 573.4 574.9 600.9 557.5c.8-.5 1.2-.8 1.2-.8"/>
            <path class="st1" d="M600.9 557.5c42.7 17.4 105.2 23.5 193.8-8.2 0 0-133 114.7-111 245.4 0 0 237-54 276.3-172.1 39.4 118.1 276.3 172.1 276.3 172.1 22-130.7-111-245.4-111-245.4 88.5 31.7 151.1 25.6 193.8 8.2 57.6-23.5 78.9-67.6 78.9-67.6-170.9-176.6-381-54-381-54v-219H903v219s-210.1-122.6-381 54c0 .1 21.4 44.2 78.9 67.6z"/>
        </g>
    </g>
</svg>
