<svg xmlns="http://www.w3.org/2000/svg" viewBox="0 0 1920 1920">
    <style>
        .st0{fill:#fff}.st1{fill:none;stroke:#231f20;stroke-width:50;stroke-linecap:round;stroke-linejoin:round;stroke-miterlimit:10}
    </style>
    <path class="st0" d="M1261.9 741.9c-3-7.8-4.1-13.3-4.1-13.3h148.8s-13.4 66.8-74.4 66.8c-43.6 0-62.9-34-70.3-53.5zm70.3-80.3v67h74.4l8.3-37.8s-19.8-29.2-82.7-29.2zm-82.7 29.2l8.3 37.8h74.4v-67c-62.9 0-82.7 29.2-82.7 29.2zm82.7-344.3v148.4h125.6l8.8-39.9s-134.4-7-134.4-108.5zM1197.8 455l8.8 39.9h125.6V346.5c0 101.5-134.4 108.5-134.4 108.5zM885.6 595.6s13.4 66.8 74.4 66.8 74.4-66.8 74.4-66.8H885.6zm74.4-67.1v67.1h74.4l8.3-37.9s-19.9-29.2-82.7-29.2zm-82.7 29.2l8.3 37.9H960v-67.1c-62.8 0-82.7 29.2-82.7 29.2zm-51.7-235.8l8.8 39.9H960V213.4c0 101.5-134.4 108.5-134.4 108.5zm134.4 40h125.6l8.8-39.9S960 315 960 213.5v148.4zM662.2 728.7H513.4s13.4 66.8 74.4 66.8c43.6 0 62.9-34 70.3-53.5 3-7.9 4.1-13.3 4.1-13.3zm-157.1-37.9l8.3 37.8h74.4v-67c-62.8 0-82.7 29.2-82.7 29.2zm82.7-29.2v67h74.4l8.3-37.8s-19.8-29.2-82.7-29.2zM453.4 455l8.8 39.9h125.6V346.5C587.8 448 453.4 455 453.4 455zm134.4 39.9h125.6l8.8-39.9s-134.4-7-134.4-108.5v148.4z" id="Layer_6"/>
    <path class="st0" d="M1332.2 494.9v166.7c-62.8 0-82.7 29.2-82.7 29.2l-42.9-195.9h125.6zm0 0v166.7c62.9 0 82.7 29.2 82.7 29.2l42.9-195.9h-125.6zM960 361.9v166.7c62.8 0 82.7 29.2 82.7 29.2l42.9-195.9H960zm-125.6 0l42.9 195.9s19.9-29.2 82.7-29.2V361.9H834.4zm-246.6 133v166.7c62.9 0 82.7 29.2 82.7 29.2l42.9-195.9H587.8zm-125.6 0l42.9 195.9s19.9-29.2 82.7-29.2V494.9H462.2z" id="Layer_7"/>
    <g id="STROKES">
        <g id="XMLID_1_">
            <path class="st1" d="M960 361.9H834.4l42.9 195.8 8.3 37.9H960"/>
            <path class="st1" d="M834.4 361.9l-8.8-40-8.8-39.9"/>
            <path class="st1" d="M825.6 321.9s134.4-7 134.4-108.5"/>
            <path class="st1" d="M960 361.9V213.4"/>
            <path class="st1" d="M877.3 557.7s19.9-29.2 82.7-29.2"/>
            <path class="st1" d="M1085.6 361.9l-42.9 195.8-8.3 37.9H960V361.9z"/>
            <path class="st1" d="M1085.6 361.9l8.8-40 8.8-39.9"/>
            <path class="st1" d="M1094.4 321.9S960 314.9 960 213.4"/>
            <path class="st1" d="M1042.7 557.7s-19.8-29.2-82.7-29.2"/>
            <path class="st1" d="M885.6 595.6s13.4 66.8 74.4 66.8 74.4-66.8 74.4-66.8"/>
            <path class="st1" d="M960 662.4v405.4"/>
            <path class="st1" d="M587.8 494.9H462.2l42.9 195.9 8.3 37.9h74.4"/>
            <path class="st1" d="M462.2 494.9l-8.8-39.9-8.7-39.9"/>
            <path class="st1" d="M587.8 494.9V346.5"/>
            <path class="st1" d="M505.1 690.8s19.9-29.2 82.7-29.2"/>
            <path class="st1" d="M713.4 494.9l-42.9 195.9-8.3 37.9h-74.4V494.9z"/>
            <path class="st1" d="M713.4 494.9l8.8-39.9 8.8-39.9"/>
            <path class="st1" d="M670.5 690.8s-19.8-29.2-82.7-29.2"/>
            <path class="st1" d="M513.4 728.7s13.4 66.8 74.4 66.8c43.6 0 62.9-34 70.3-53.5 3-7.8 4.1-13.3 4.1-13.3"/>
            <path class="st1" d="M587.8 795.4v49.2"/>
            <path class="st1" d="M1332.2 795.4v49.2"/>
            <path class="st1" d="M650.6 737.7s2.7 1.5 7.5 4.3C705.4 769.3 960 923.6 960 1067.8"/>
            <path class="st1" d="M1332.2 494.9h125.6l-42.9 195.9-8.3 37.9h-74.4"/>
            <path class="st1" d="M1457.8 494.9l8.8-39.9 8.7-39.9"/>
            <path class="st1" d="M1466.6 455s-134.4-7-134.4-108.5"/>
            <path class="st1" d="M1332.2 494.9V346.5"/>
            <path class="st1" d="M1414.9 690.8s-19.8-29.2-82.7-29.2"/>
            <path class="st1" d="M1206.6 494.9l42.9 195.9 8.3 37.9h74.4V494.9z"/>
            <path class="st1" d="M1206.6 494.9l-8.8-39.9-8.7-39.9"/>
            <path class="st1" d="M1197.8 455s134.4-7 134.4-108.5"/>
            <path class="st1" d="M1249.5 690.8s19.8-29.2 82.7-29.2"/>
            <path class="st1" d="M1406.6 728.7s-13.4 66.8-74.4 66.8c-43.6 0-62.9-34-70.3-53.5-3-7.8-4.1-13.3-4.1-13.3"/>
            <path class="st1" d="M1269.4 737.7s-2.7 1.5-7.5 4.3C1214.6 769.3 960 923.6 960 1067.8V1703"/>
            <path class="st1" d="M453.4 455s134.4-7 134.4-108.5"/>
            <path class="st1" d="M722.2 455s-134.4-7-134.4-108.5"/>
        </g>
    </g>
</svg>
