<svg xmlns="http://www.w3.org/2000/svg" viewBox="0 0 1920 1920">
    <style>
        .st0{fill:#fff}.st1{fill:none;stroke:#231f20;stroke-width:50;stroke-linecap:round;stroke-linejoin:round;stroke-miterlimit:10}
    </style>
    <path class="st0" d="M950.2 230.8v97.1H725.4c-41.3 0-74.7 33.5-74.7 74.7v978.1h-97.1V380.4c0-82.6 67-149.6 149.6-149.6h247zm-396.7 1150v322.3h97.1v-322.3h-97.1zm734.7-1163.9h-227.1v78.2h305.3c.1-43.1-35-78.2-78.2-78.2zm-227.1 0h-111v124.9h111V216.9z" id="Layer_4"/>
    <path class="st0" d="M1323.1 295.2v103.6h-262V295.2z" id="Layer_5"/>
    <g id="STROKES">
        <g id="XMLID_1_">
            <path class="st1" d="M950.2 230.8h-247c-82.6 0-149.6 67-149.6 149.6V1703h97.1V402.6c0-41.3 33.4-74.7 74.7-74.7h224.8"/>
            <path class="st1" d="M1061.1 295.2v46.6H950.2V216.9h110.9"/>
            <path class="st1" d="M1061.1 216.9h227.1c43.2 0 78.2 35 78.2 78.2h-305.3v-78.2z"/>
            <path class="st1" d="M1061.1 341.8v57h262V295.2"/>
            <path class="st1" d="M553.5 1380.8h97.2"/>
        </g>
    </g>
</svg>
