<svg xmlns="http://www.w3.org/2000/svg" viewBox="0 0 1920 1920">
    <style>
        .st0{fill:#fff}.st1{fill:none;stroke:#231f20;stroke-width:50;stroke-linecap:round;stroke-linejoin:round;stroke-miterlimit:10}
    </style>
    <path class="st0" d="M1070.7 1703.1H849.3s28.1-183.1 39.8-289.9h141.7c11.8 106.8 39.9 289.9 39.9 289.9zm-44.9-353.7H894.2c0 12.8-1.9 35.7-5 63.8h141.7c-3.1-28.2-5.1-51-5.1-63.8zM960 658.5h-93.5L960 760.2l93.5-101.7H960zM828.3 470.2h263.4L960 301 828.3 470.2zM913.6 259c0 23.2 18.8 42 42 42s42-18.8 42-42-18.8-42-42-42c-23.2-.1-42 18.8-42 42z" id="Layer_1"/>
    <path class="st0" d="M960 470.2h131.7s-38.2 104.4-38.2 188.4H960V470.2zm-131.7 0s38.2 104.4 38.2 188.4H960V470.2H828.3z" id="Layer_2"/>
    <g id="STROKES">
        <g id="XMLID_1_">
            <path class="st1" d="M960 470.2v188.4h-93.5c0-84-38.2-188.4-38.2-188.4h263.4s-38.2 104.4-38.2 188.4H960"/>
            <path class="st1" d="M866.5 658.5L960 760.2l93.5-101.7"/>
            <path class="st1" d="M960 760.2v589.2"/>
            <path class="st1" d="M960 1349.4h65.8c0 12.8 1.9 35.7 5 63.8 11.7 106.8 39.8 289.9 39.8 289.9H849.3s28.1-183.1 39.8-289.9c3.1-28.1 5-50.9 5-63.8H960"/>
            <path class="st1" d="M762.3 470.2h66L960 301l131.7 169.2h66"/>
            <path class="st1" d="M997.6 259c0 23.2-18.8 42-42 42s-42-18.8-42-42 18.8-42 42-42c23.2-.1 42 18.8 42 42z"/>
            <path class="st1" d="M889.1 1413.1h141.8"/>
            <path class="st1" d="M1222.5 564.4h225.1"/>
            <path class="st1" d="M472.5 564.4h225"/>
            <path class="st1" d="M1145.6 378.7l159.2-159.1"/>
            <path class="st1" d="M615.2 909.1L774.4 750"/>
            <path class="st1" d="M1145.6 750l159.2 159.1"/>
            <path class="st1" d="M615.2 219.6l159.2 159.1"/>
        </g>
    </g>
</svg>
