<svg xmlns="http://www.w3.org/2000/svg" viewBox="0 0 1920 1920">
    <style>
        .st0{fill:#fff}.st1,.st2{fill:none;stroke:#231f20;stroke-width:50;stroke-linecap:round;stroke-linejoin:round;stroke-miterlimit:10}.st2{stroke-width:49.5008}.st3{fill:#a0f}.st4{fill:none;stroke:#231f20;stroke-width:52.7301;stroke-linecap:round;stroke-linejoin:round;stroke-miterlimit:10}
    </style>
    <path class="st0" d="M891.7 453.8l57.8-38.6 26.6 45.6c-11.9 53.5-78.9 319.9-86.8 375.4-7.9 55.4-49.5 223.7-41.6 267.3 7.9 43.6 47.5 160.4 57.4 202s81.2 106.9 85.1 120.8 91.1 130.7 93.1 168.3c2 37.6 0 65.3 0 65.3s-138.6-33.7-168.3-67.3-77.2-132.7-110.9-168.3c-33.7-35.6-93.1-225.7-106.9-273.2s11.9-227.7 33.7-285.1c21.8-57.4 19.8-178.2 35.6-207.9 15.8-29.7 16.5-232.4 54.2-268l56.9 5.9 14.1 57.8z" id="Layer_4"/>
    <path class="st0" d="M995.8 333l26.2 93.8-36.5 50.1-9.4-16-26.6-45.6-57.8 38.6-14.1-57.9-56.9-5.9-29.2-3 32.1-37.8L866 342s37.3-5.1 51-69.4c13.8-64.2 95.5-55.2 95.5-55.2-68.1-2.6-16.7 115.6-16.7 115.6z" id="Layer_5"/>
    <g id="STROKES">
        <path class="st2" d="M976.2 460.9c-11.9 53.5-78.9 319.9-86.8 375.4-7.9 55.4-49.5 223.7-41.6 267.3 7.9 43.6 47.5 160.4 57.4 202s81.2 106.9 85.1 120.8 91.1 130.7 93.1 168.3c2 37.6 0 65.3 0 65.3s-138.6-33.7-168.3-67.3-77.2-132.7-110.9-168.3c-33.7-35.6-93.1-225.7-106.9-273.2s11.9-227.7 33.7-285.1c21.8-57.4 19.8-178.2 35.6-207.9 15.8-29.7 16.5-232.4 54.2-268"/>
        <path class="st2" d="M1083.4 1660s15.8 55.4 43.6 43.6c27.7-11.9 25.7-43.6 25.7-43.6"/>
        <path class="st2" d="M1069.5 1634.2s-156.4-170.3-172.3-200c-15.8-29.7-120.8-229.7-122.8-306.9-2-77.2 27.6-286.6 43.6-346.5 23.8-89 73.7-327 73.7-327"/>
        <path class="st2" d="M976.2 460.9l9.4 16 36.5-50.1-26.3-93.8s-51.4-118.2 16.7-115.6c0 0-81.7-9-95.5 55.2-13.8 64.2-51 69.4-51 69.4l-42.4 7.2-32.1 37.8 29.2 3 56.9 5.9 14.1 57.8 57.8-38.6 26.7 45.8z"/>
    </g>
</svg>
