<svg xmlns="http://www.w3.org/2000/svg" viewBox="0 0 1920 1920">
    <style>
        .st0{fill:#fff}.st1,.st2{fill:none;stroke:#231f20;stroke-width:50;stroke-linecap:round;stroke-linejoin:round;stroke-miterlimit:10}.st2{stroke-width:49.5008}.st3{fill:#a0f}.st4{fill:none;stroke:#231f20;stroke-width:52.7301;stroke-linecap:round;stroke-linejoin:round;stroke-miterlimit:10}
    </style>
    <path class="st0" d="M825.4 521.6L1269.2 656s-39.9 23.4-53.7 85.5L620.2 573.1c3.1-17.6 7.7-35.6 12.2-51.5h193zm801.7-41.4l-23.9-41.1-61.6 41.1-75.6 332.6c54.2 9.2 76.2 42.7 76.2 42.7l84.9-375.3zm-903.9 801.9s-472.9-106.5-491.5-297.7c-37.3-23.7-5.7 151.9 118.9 237.9 0 0 240.6 139.4 408.9 140 2.1 0 3.1-.5 3-1.4-.1-7.1-57.5-41-39.3-78.8zM1179.6 418L561 424.5c4.2 63.4-27.4 97.1-27.4 97.1h647.5s3.9-55-1.5-103.6zm298.9-4.4c-96.5 158.5-88.9 405.3-88.9 405.3s26.2-14.6 76.4-6.1l75.6-332.6-15.1-61.6-48-5zm122.6 878.1l-408.3 273.6c24.1 42.5 59.6 84.8 59.6 84.8l427.9-295.8s-45.4-8.8-79.2-62.6zm-425.8 198.1c-10.9 15.3.5 45.5 17.6 75.5l408.3-273.6c-31.3-49.8-27.3-84.3-27.3-84.3s-273.2 106.9-398.6 282.4zm-112.4 8.1l-427.1 94.6c15.7 61.5.6 99.1.6 99.1l448.4-92.4c.1 0-8.3-54.5-21.9-101.3zm-35.2-65.7c-155.5-37.9-427.8 81.7-427.8 81.7s21.5 21.7 36 78.6l427.1-94.6c-9.6-33.1-21.8-62.4-35.3-65.7zM990 1247.9c24.6 53.4 16.1 87.1 16.1 87.1s284.7-70.5 431.8-228.3c12.8-13.8 5.4-45.1-7.6-77.2L990 1247.9zm392.2-310.2l-462.7 237.8s43.9 14.6 70.5 72.3l440.3-218.3c-18.4-45.2-48.1-91.8-48.1-91.8zM231.6 984.4c18.6 191.1 491.5 297.7 491.5 297.7 13.1-27.4 54.1-54.9 54.1-54.9l-381.4-138.8c-31.1-10.6-85.8-54-164.2-104zm328.6-343.1s.5 34.7-35.7 81.1l378.3 313.7c20.1-28.2 34.5-57 25.2-73.3-106.9-187.4-367.8-321.5-367.8-321.5zM439.3 776.6l395.6 337.8s39.6-38.5 67.9-78.3L524.5 722.4c-39.1 50.1-85.2 54.2-85.2 54.2zm180.9-203.5c-6 34.1-6.7 66.3 8.8 77C805.9 773.6 1218 830 1218 830s-15.4-31.2-2.5-88.6L620.2 573.1zm529.2-226.5c-204.6-68.5-615.9-6.3-615.9-6.3s23.5 25.6 27.4 84.2l618.6-6.5c-3.8-34.4-12.2-65.5-30.1-71.4z" id="Layer_6"/>
    <path class="st0" d="M820.6 1303.3c-19.8 51.5-19.8 51.5-58.1 57.6-.1-7.2-57.4-41-39.3-78.9 13.1-27.4 54.1-54.9 54.1-54.9s63.1 24.7 43.3 76.2zm394.9-561.9c-12.8 57.4 2.5 88.6 2.5 88.6s61.3 15.8 83.8-45.7 7.9-116.4-32.6-128.3c0 0-39.9 23.4-53.7 85.4zm358.3 466.1s-4 34.5 27.3 84.3c33.8 53.8 79.2 62.5 79.2 62.5 34.1-24.8 29.6-81.4-12.2-131.8-41.8-50.5-94.3-15-94.3-15zm-974 306.4s-43.4 11.1-33.1 75.7c10.3 64.6 40.5 107.9 69.7 101.9 0 0 15.1-37.6-.6-99.1-14.5-56.8-36-78.5-36-78.5zm319.7-338.3c-37.1 20.1-39.9 76.8-5 132.3 34.9 55.4 91.5 27.1 91.5 27.1s8.5-33.7-16.1-87.1c-26.4-57.8-70.4-72.3-70.4-72.3zM464.9 646.7c-46.7 45.9-57 101.8-25.6 129.9 0 0 46.1-4.1 85.2-54.2 36.2-46.3 35.7-81.1 35.7-81.1s-48.6-40.5-95.3 5.4zm68.6-306.5s-63.3 2.1-67.5 67.5c-4.2 65.4 25.3 113.9 67.5 113.9 0 0 31.6-33.7 27.4-97.1-3.8-58.7-27.4-84.3-27.4-84.3z" id="Layer_7"/>
    <path class="st0" d="M1478.5 413.6l-43.6-4.6 34.2-40.3 45.2-7.6s39.7-5.5 54.3-73.9c14.6-68.4 101.7-58.9 101.7-58.9-72.5-2.7-17.8 123.2-17.8 123.2l27.9 99.9-38.9 53.4-14.4-24.6-23.9-41.1-61.6 41.1-15.1-61.6-48-5z" id="Layer_8"/>
    <g id="STROKES">
        <path class="st3" d="M1466 812.8c54.2 9.2 76.2 42.7 76.2 42.7-8.5 35.5-55.3 50.5-109.5 33.8-54.2-16.7-43.2-70.4-43.2-70.4s26.3-14.7 76.5-6.1z"/>
        <path class="st4" d="M1179.6 418c5.4 48.6 1.5 103.6 1.5 103.6H533.6s31.6-33.7 27.4-97.1c-3.9-58.7-27.4-84.2-27.4-84.2s411.3-62.1 615.9 6.3c17.8 5.9 26.2 37 30.1 71.4z"/>
        <path class="st4" d="M561 424.5l618.6-6.5"/>
        <path class="st4" d="M533.5 340.2s-63.3 2.1-67.5 67.5c-4.2 65.4 25.3 113.9 67.5 113.9"/>
        <path class="st4" d="M1062.9 1497.9c13.5 46.8 21.9 101.3 21.9 101.3l-448.4 92.4s15.1-37.6-.6-99.1c-14.5-56.9-36-78.6-36-78.6s272.3-119.5 427.8-81.7c13.6 3.3 25.8 32.6 35.3 65.7z"/>
        <path class="st4" d="M635.8 1592.5l427.1-94.6"/>
        <path class="st4" d="M599.8 1513.9s-43.4 11.1-33.1 75.7c10.3 64.6 40.5 107.9 69.7 101.9"/>
        <path class="st4" d="M902.8 1036.2c-28.3 39.8-67.9 78.3-67.9 78.3L439.3 776.6s46.1-4.1 85.2-54.2c36.2-46.3 35.7-81.1 35.7-81.1S821.1 775.4 928 962.8c9.3 16.3-5.1 45.2-25.2 73.4z"/>
        <path class="st4" d="M524.5 722.4l378.3 313.8"/>
        <path class="st4" d="M560.2 641.3s-48.6-40.6-95.3 5.3c-46.7 45.9-57 101.8-25.6 129.9"/>
        <path class="st4" d="M1430.3 1029.5c-18.4-45.2-48.1-91.8-48.1-91.8l-462.7 237.8s43.9 14.6 70.5 72.3c24.6 53.4 16.1 87.1 16.1 87.1s284.7-70.5 431.8-228.3c12.9-13.7 5.5-45-7.6-77.1z"/>
        <path class="st4" d="M990 1247.9l440.3-218.4"/>
        <path class="st4" d="M1006.1 1335s-56.6 28.3-91.5-27.1c-34.9-55.5-32.1-112.2 5-132.3"/>
        <path class="st4" d="M350.5 1222.4s240.6 139.4 408.9 140c2.1 0 3.1-.5 3-1.4-.1-7.2-57.4-41-39.3-78.9 13.1-27.4 54.1-54.9 54.1-54.9l-381.4-138.8"/>
        <path class="st4" d="M231.6 984.4c18.6 191.1 491.5 297.7 491.5 297.7"/>
        <path class="st4" d="M350.5 1222.4c-124.6-86-156.2-261.7-118.9-237.9 78.4 49.9 133.1 93.4 164.3 103.9"/>
        <path class="st4" d="M1192.8 1565.4c24.1 42.5 59.6 84.8 59.6 84.8l427.9-295.8s-45.4-8.7-79.2-62.5c-31.3-49.8-27.3-84.3-27.3-84.3s-273.2 106.8-398.6 282.4c-10.9 15.1.5 45.3 17.6 75.4z"/>
        <path class="st4" d="M1601.1 1291.7l-408.3 273.7"/>
        <path class="st4" d="M1573.8 1207.5s52.5-35.5 94.3 15 46.4 107.1 12.2 131.8"/>
        <path class="st4" d="M825.4 521.6L1269.2 656s-39.9 23.4-53.7 85.5c-12.8 57.4 2.5 88.6 2.5 88.6s-412.1-56.4-589.1-179.8c-15.4-10.8-14.8-43-8.8-77 3.1-17.6 7.7-35.6 12.2-51.5"/>
        <path class="st4" d="M1215.5 741.4L620.2 573.1"/>
        <path class="st4" d="M1218 830s61.3 15.8 83.8-45.7 7.9-116.4-32.6-128.3"/>
        <path class="st4" d="M777.3 1227.1s63.1 24.7 43.3 76.2c-19.8 51.5-19.8 51.5-58.1 57.6"/>
        <path class="st4" d="M1627.1 480.2l-84.9 375.3s-22-33.4-76.2-42.7c-50.2-8.6-76.4 6.1-76.4 6.1s-7.6-246.8 88.9-405.3c.8-1.2 1.5-2.5 2.3-3.7"/>
        <path class="st4" d="M1466 812.8l75.6-332.6"/>
        <path class="st4" d="M1389.6 818.9s-11 53.7 43.2 70.4c54.2 16.7 100.9 1.7 109.5-33.8"/>
        <path class="st4" d="M1627.1 480.2l14.4 24.6 38.9-53.4-27.9-99.9s-54.7-125.9 17.8-123.2c0 0-87-9.6-101.7 58.9-14.6 68.4-54.3 73.9-54.3 73.9l-45.2 7.6-34.2 40.3 43.6 4.6 48 5 15.1 61.6 61.6-41.1 23.9 41.1z"/>
    </g>
</svg>
