<svg xmlns="http://www.w3.org/2000/svg" viewBox="0 0 1920 1920">
    <style>
        .st0{fill:#fff}.st1,.st2{fill:none;stroke:#231f20;stroke-width:50;stroke-linecap:round;stroke-linejoin:round;stroke-miterlimit:10}.st2{stroke-width:49.5008}.st3{fill:#a0f}.st4{fill:none;stroke:#231f20;stroke-width:52.7301;stroke-linecap:round;stroke-linejoin:round;stroke-miterlimit:10}
    </style>
    <path class="st0" d="M1141.2 335.5c9.1 91-74.8 162.6-74.8 162.6s-56.3 19.3-72.6 64.8-60 100.1-74.6 160.1c-14.6 60-63.7 136.5-76.4 185.6s-47.3 109.2-78.2 180.1c-30.9 71-69.1 100.1-127.4 176.5-58.2 76.4-132.8 138.3-185.6 136.5-52.8-1.8-131 9.1-131 9.1 5.5-16.4 52.8-25.5 78.2-54.6 25.5-29.1 138.3-129.2 163.8-152.9 25.5-23.7 30.9-54.6 49.1-87.3 18.2-32.8 61.9-83.7 83.7-127.4 21.8-43.7 72.8-178.3 100.1-234.7 27.3-56.4 71-191.1 105.5-222 34.6-30.9 51-87.3 71.9-116.5 20.9-29.1 133.3-103.7 133.3-103.7s32.4-2.1 35 23.8zm113 48.3s-137.3 116.5-151.4 207.4-43.3 309.3-28.7 509.5c-16.4 91-14.6 189.2-7.3 227.5 7.3 38.2-56.4 169.2-47.3 222 9.1 52.8 9.1 125.6 0 152.9 0 0 20-23.7 61.9-58.2 41.9-34.6 138.3-185.6 121.9-447.6-16.4-262-41.9-414.9-20-504 21.8-89.2 30.9-127.4 34.6-147.4s43.7-81.9 47.3-107.4c3.6-25.5-6.7-41.9-6.7-41.9l-4.3-12.8z" id="Layer_2"/>
    <path class="st0" d="M1319.5 244.5l-63 63.7-28.8-37.5-13.1-17.1s35.5-40.1 56.4-36.4 48.5 27.3 48.5 27.3z" id="Layer_3"/>
    <g id="STROKES">
        <path class="st1" d="M1214.7 253.6l13.1 17.1 28.8 37.5 63-63.7s-27.5-23.7-48.4-27.3-56.5 36.4-56.5 36.4z"/>
        <path class="st1" d="M1019.5 1703.1s20-23.7 61.9-58.2c41.9-34.6 138.3-185.6 121.9-447.6-16.4-262-41.9-414.9-20-504 21.8-89.2 30.9-127.4 34.6-147.4s43.7-81.9 47.3-107.4c3.6-25.5-6.7-41.9-6.7-41.9l-4.2-12.7S1117 500.4 1102.9 591.3s-43.3 309.3-28.7 509.5c-16.4 91-14.6 189.2-7.3 227.5 7.3 38.2-56.4 169.2-47.3 222 9 52.7 9 125.5-.1 152.8z"/>
        <path class="st1" d="M1106.2 311.9l121.6-41.2"/>
        <path class="st1" d="M1106.2 311.9s-112.3 74.6-133.3 103.7c-20.9 29.1-37.3 85.5-71.9 116.5-34.6 30.9-78.2 165.6-105.5 222-27.3 56.4-78.2 191.1-100.1 234.7-21.8 43.7-65.5 94.6-83.7 127.4-18.2 32.8-23.7 63.7-49.1 87.3-25.5 23.7-138.3 123.7-163.8 152.9-25.5 29.1-72.8 38.2-78.2 54.6 0 0 78.2-10.9 131-9.1 52.8 1.8 127.4-60 185.6-136.5 58.2-76.4 96.4-105.5 127.4-176.5 30.9-71 65.5-131 78.2-180.1s61.9-125.6 76.4-185.6c14.6-60 58.2-114.6 74.6-160.1s72.6-64.8 72.6-64.8 83.9-71.6 74.8-162.6c-2.6-26.1-35-23.8-35-23.8z"/>
        <path class="st1" d="M1258.5 396.5l-9.4-88.3"/>
    </g>
</svg>
