<svg xmlns="http://www.w3.org/2000/svg" viewBox="0 0 1920 1920">
    <style>
        .st0{fill:#fff}.st1{fill:none;stroke:#231f20;stroke-width:50;stroke-linecap:round;stroke-linejoin:round;stroke-miterlimit:10}
    </style>
    <path class="st0" d="M960 893.7H528.3v72.1h863.4v-72.1z" id="Layer_10"/>
    <path class="st0" d="M528.3 965.8v446.1h863.4V965.8H528.3zm647.5-450.2c-119.2 0-215.8 96.6-215.8 215.8 0-119.2-96.6-215.8-215.8-215.8-119.2 0-215.8 96.6-215.8 215.8v162.3h863.3V731.1c-.2-119.1-96.8-215.5-215.9-215.5z" id="Layer_11"/>
    <path class="st0" d="M1175.8 415.8c-119.2 0-215.8 96.6-215.8 215.8 0-119.2-96.6-215.8-215.8-215.8-119.2 0-215.8 96.6-215.8 215.8v99.8c0-119.2 96.6-215.8 215.8-215.8 119.2 0 215.8 96.6 215.8 215.8 0-119.2 96.6-215.8 215.8-215.8 119.1 0 215.7 96.5 215.8 215.5v-99.8c-.1-119.1-96.7-215.5-215.8-215.5z" id="Layer_12"/>
    <path class="st0" d="M1316.4 217h-281.2c-41.6 0-75.2 33.7-75.2 75.2 0-41.5-33.7-75.2-75.2-75.2H603.6c-41.5 0-75.2 33.7-75.2 75.2v61h.3c3.6-38.2 35.7-68.1 74.9-68.1h281.2c39.2 0 71.3 29.9 74.9 68.1h.7c3.6-38.2 35.8-68.1 74.9-68.1h281.2c39.2 0 71.3 29.9 74.9 68.1h.3v-61c-.1-41.6-33.7-75.2-75.3-75.2z" id="Layer_13"/>
    <g id="STROKES">
        <path class="st1" d="M1391.7 292.2v1325.4"/>
        <path class="st1" d="M1462.9 1617.7h-142.5"/>
        <path class="st1" d="M1320.4 1532.3v170.8"/>
        <path class="st1" d="M1462.9 1532.3v170.8"/>
        <path class="st1" d="M960 1617.7V965.8"/>
        <path class="st1" d="M960 907.6V292.2"/>
        <path class="st1" d="M1031.2 1617.7H888.8"/>
        <path class="st1" d="M888.8 1532.3v170.8"/>
        <path class="st1" d="M1031.2 1532.3v170.8"/>
        <path class="st1" d="M528.3 292.2v1325.4"/>
        <path class="st1" d="M599.6 1617.7H457.1"/>
        <path class="st1" d="M457.1 1532.3v170.8"/>
        <path class="st1" d="M599.6 1532.3v170.8"/>
        <path class="st1" d="M528.3 965.8H960v446.1H528.3z"/>
        <path class="st1" d="M960 631.6v262.2H528.3V631.6c0-119.2 96.6-215.8 215.8-215.8 119.3-.1 215.9 96.6 215.9 215.8z"/>
        <path class="st1" d="M528.3 965.8H960v446.1H528.3z"/>
        <path class="st1" d="M960 731.4v162.3H528.3V731.4c0-119.2 96.6-215.8 215.8-215.8 119.3 0 215.9 96.6 215.9 215.8z"/>
        <path class="st1" d="M847.4 893.7V733.4"/>
        <path class="st1" d="M847.4 965.8v122.1L960 1198.2H528.3"/>
        <path class="st1" d="M641 893.7V733.4"/>
        <path class="st1" d="M641 965.8v122.1l-112.7 110.3H960"/>
        <path class="st1" d="M528.3 893.7H960v72.1H528.3z"/>
        <path class="st1" d="M960 965.8h431.7v446.1H960z"/>
        <path class="st1" d="M1391.7 631.6v262.2H960V631.6c0-119.2 96.6-215.8 215.8-215.8 119.2-.1 215.9 96.6 215.9 215.8z"/>
        <path class="st1" d="M960 965.8h431.7v446.1H960z"/>
        <path class="st1" d="M1391.7 731.4v162.3H960V731.4c0-119.2 96.6-215.8 215.8-215.8 119.2 0 215.9 96.6 215.9 215.8z"/>
        <path class="st1" d="M1279 893.7V733.4"/>
        <path class="st1" d="M1279 965.8v122.1l112.7 110.3H960"/>
        <path class="st1" d="M1072.6 893.7V733.4"/>
        <path class="st1" d="M1072.6 965.8v122.1L960 1198.2h431.7"/>
        <path class="st1" d="M960 893.7h431.7v72.1H960z"/>
        <path class="st1" d="M960 292.2v61h-.3c-3.6-38.2-35.7-68.1-74.9-68.1H603.6c-39.2 0-71.3 29.9-74.9 68.1h-.3v-61c0-41.6 33.7-75.2 75.2-75.2h281.2c41.5 0 75.2 33.6 75.2 75.2z"/>
        <path class="st1" d="M1391.7 292.2v61h-.3c-3.6-38.2-35.7-68.1-74.9-68.1h-281.2c-39.2 0-71.3 29.9-74.9 68.1h-.4v-61c0-41.6 33.7-75.2 75.2-75.2h281.2c41.6 0 75.3 33.6 75.3 75.2z"/>
    </g>
</svg>
