<svg xmlns="http://www.w3.org/2000/svg" viewBox="0 0 1920 1920">
    <style>
        .st0{fill:#fff}.st1{fill:none;stroke:#231f20;stroke-width:50;stroke-linecap:round;stroke-linejoin:round;stroke-miterlimit:10}
    </style>
    <path class="st0" d="M1418.9 286.3L1120 217v492.9h432.4l15.3-221.3-148.8-202.3zM578 879.3c0 75.9 61.6 137.5 137.5 137.5h689.7c75.9 0 137.5-61.6 137.5-137.5v-92.7H578v92.7z" id="Layer_2"/>
    <path class="st0" d="M1589.6 721.1c-6.9-7-16.6-11.2-27.2-11.2H566.8c-21.2 0-38.4 17.2-38.4 38.4 0 10.6 4.3 20.2 11.2 27.2 7 6.9 16.5 11.2 27.2 11.2h995.6c21.2 0 38.4-17.2 38.4-38.4 0-10.7-4.2-20.3-11.2-27.2z" id="Layer_4"/>
    <path class="st0" d="M741.4 1343c33.8 0 65.3 9.3 92.3 25.4 52.5 31.4 87.7 88.9 87.7 154.6h401.1c20.4-40.6 62.5-68.4 111-68.4 24.7 0 47.8 7.2 67.1 19.7 17.5 11.3 32 26.8 42 45.1V1343H741.4z" id="Layer_5"/>
    <path class="st0" d="M833.8 1368.5c-27-16.2-58.6-25.4-92.3-25.4-99.4 0-180 80.6-180 180s80.6 180 180 180 180-80.6 180-180c0-65.7-35.2-123.2-87.7-154.6zm720.7 182.1c-2.2-9.7-5.6-18.9-10-27.5-.6-1.2-1.2-2.4-1.9-3.6-10-18.3-24.5-33.9-42-45.1-19.4-12.5-42.4-19.7-67.1-19.7-48.5 0-90.6 27.8-111 68.4-8.4 16.8-13.2 35.7-13.2 55.8 0 68.6 55.6 124.2 124.2 124.2s124.2-55.6 124.2-124.2c.1-9.8-1-19.2-3.2-28.3z" id="Layer_6"/>
    <g id="STROKES">
        <path class="st1" d="M1542.7 786.6v92.7c0 75.9-61.6 137.5-137.5 137.5H715.5c-75.9 0-137.5-61.6-137.5-137.5v-92.7h964.7z"/>
        <path class="st1" d="M1600.9 748.2c0 21.2-17.2 38.4-38.4 38.4H566.8c-10.6 0-20.2-4.3-27.2-11.2-6.9-7-11.2-16.6-11.2-27.2 0-21.2 17.2-38.4 38.4-38.4h995.6c10.6 0 20.2 4.3 27.2 11.2 6.9 7 11.3 16.6 11.3 27.2z"/>
        <path class="st1" d="M1567.7 488.5l-15.3 221.3H1120V216.9l298.9 69.4z"/>
        <path class="st1" d="M1120 709.8l447.7-221.3"/>
        <path class="st1" d="M1418.9 286.3L1120 709.8"/>
        <path class="st1" d="M490 373.6H319.1"/>
        <path class="st1" d="M1500.7 1474.3l42-65.3v-174L1276 1016.8l-156-127.6-125.3-102.6-93.8-76.8L490 373.6"/>
        <path class="st1" d="M1500.7 1474.3l-67.2 104.5"/>
        <path class="st1" d="M739.3 1526.6L849 1343l194.8-326.2 76.2-127.6"/>
        <path class="st1" d="M921.5 1523c0 99.4-80.6 180-180 180s-180-80.6-180-180 80.6-180 180-180c33.8 0 65.3 9.3 92.3 25.4 52.5 31.5 87.7 89 87.7 154.6z"/>
        <path class="st1" d="M1542.7 1343v176.4c-10-18.3-24.5-33.9-42-45.1-19.4-12.5-42.4-19.7-67.1-19.7-48.5 0-90.6 27.8-111 68.4H921.5c0-65.7-35.2-123.1-87.7-154.6-27-16.2-58.6-25.4-92.3-25.4h801.2z"/>
        <path class="st1" d="M1557.8 1578.8c0 68.6-55.6 124.2-124.2 124.2s-124.2-55.6-124.2-124.2c0-20.1 4.8-39 13.2-55.8 20.4-40.6 62.5-68.4 111-68.4 24.7 0 47.8 7.2 67.1 19.7 17.5 11.3 32 26.8 42 45.1.6 1.2 1.3 2.4 1.9 3.6 4.4 8.7 7.7 17.9 10 27.5 2 9.2 3.2 18.6 3.2 28.3z"/>
    </g>
</svg>
