<svg xmlns="http://www.w3.org/2000/svg" viewBox="0 0 1920 1920">
    <style>
        .st0{fill:#fff}.st1{fill:none;stroke:#231f20;stroke-width:50;stroke-linecap:round;stroke-linejoin:round;stroke-miterlimit:10}
    </style>
    <path class="st0" d="M828 343.5l179.8 482.8 172.1-185.9 172-185.9z" id="Layer_7"/>
    <path class="st0" d="M1179.9 640.4l-172 185.9-90.6 97.9L568 1301.7s104 199 364.4 145.4c62-12.8 114.9-46.4 159.9-93.9 179.7-189.5 235.9-600.3 252.7-793.8 5.6-64.5 6.9-104.9 6.9-104.9l-172 185.9z" id="Layer_8"/>
    <path class="st0" d="M434.4 1495.1c-29.1 0-55.5 12-74.3 31.3-18.3 18.8-29.6 44.4-29.6 72.7 0 57.4 46.6 104 104 104s104-46.6 104-104c-.1-57.5-46.6-104-104.1-104zm758.3 0c-13.9 0-27.2 2.7-39.3 7.7-19 7.8-35.1 20.9-46.6 37.6-11.4 16.7-18.1 36.9-18.1 58.7 0 57.4 46.6 104 104 104s104-46.6 104-104c-.1-57.5-46.6-104-104-104z" id="Layer_9"/>
    <g id="STROKES">
        <circle class="st1" cx="434.4" cy="1599.1" r="104"/>
        <circle class="st1" cx="1192.7" cy="1599.1" r="104"/>
        <path class="st1" d="M1326.2 216.9l117.3 42.6c31.5 11.4 41.2 51.3 18.5 76l-110.1 119-344.1 371.9-647.8 700"/>
        <path class="st1" d="M917.3 924.2l236.1 578.6"/>
        <path class="st1" d="M1351.9 454.5l-344.1 371.8L828 343.5z"/>
        <path class="st1" d="M568 1301.7s104 199 364.4 145.4c391.4-80.5 419.5-992.6 419.5-992.6"/>
    </g>
</svg>
