<svg xmlns="http://www.w3.org/2000/svg" viewBox="0 0 1920 1920">
    <style>
        .st0{fill:#fff}.st1{fill:none;stroke:#231f20;stroke-width:50;stroke-linecap:round;stroke-linejoin:round;stroke-miterlimit:10}
    </style>
    <path class="st0" d="M941.6 1004.5c0 122.4 99.3 221.7 221.7 221.7v19.9H452.2c-56.1 0-101.6-45.5-101.6-101.6V886.4c0-56.1 45.5-101.6 101.6-101.6h681.7c-108.5 14.4-192.3 107.3-192.3 219.7zm-661.9-40.1v11.5h-86.2v77.4h83.3v11.5h73.9V964.4h-71zM173.6 793.9v181.9h19.9v-11.5h86.2v-127l-106.1-43.4zm19.9 270.9v-11.5h-22.8v181.9l106-43.3v-127.1h-83.2zm1020.1 181.3h-904c-23.7 0-45.2 9.6-60.7 25.2-15.5 15.5-25.1 37-25.1 60.7 0 47.4 38.4 85.9 85.9 85.9h956.2c23.7 0 45.2-9.6 60.7-25.2 15.5-15.5 25.2-37 25.2-60.7 0-47.4-38.4-85.9-85.9-85.9h-52.3z" id="Layer_7"/>
    <path class="st0" d="M1163.3 782.8c122.4 0 221.7 99.3 221.7 221.7s-99.3 221.7-221.7 221.7-221.7-99.3-221.7-221.7c0-112.5 83.7-205.4 192.3-219.8 9.6-1.2 19.4-1.9 29.4-1.9z" id="Layer_8"/>
    <path class="st0" d="M947.1 687.1c0 23.6 19.1 42.8 42.8 42.8v54.9H609.2v-54.9c23.6 0 42.8-19.1 42.8-42.8 0-23.6-19.1-42.8-42.8-42.8v-54.9h380.7v54.9c-23.7 0-42.8 19.2-42.8 42.8zm-190.3 0c0 23.6 19.1 42.8 42.8 42.8 23.6 0 42.8-19.1 42.8-42.8 0-23.6-19.1-42.8-42.8-42.8-23.7 0-42.8 19.2-42.8 42.8z" id="Layer_9"/>
    <path class="st0" d="M799.5 644.3c23.6 0 42.8 19.1 42.8 42.8 0 23.6-19.1 42.8-42.8 42.8-23.6 0-42.8-19.1-42.8-42.8.1-23.6 19.2-42.8 42.8-42.8zm190.4 85.5v-85.5c-23.6 0-42.8 19.1-42.8 42.8 0 23.6 19.1 42.7 42.8 42.7zm-380.7 0c23.6 0 42.8-19.1 42.8-42.8 0-23.6-19.1-42.8-42.8-42.8v85.6z" id="Layer_10"/>
    <g id="Layer_11">
        <path class="st0" d="M1677 1257.4l26.1 71.7-31.8 77.3-92.6 29.2-37.5-37.5 40.6-40.6 46.4-7.3-2.5-36.6z"/>
        <path class="st0" d="M1643.6 1224.1l-56.1 51.2-36.7-2.4-7.3 46.4-40.6 40.6-37.5-37.5 29.3-92.6 77.3-31.8z"/>
        <path class="st0" d="M1502.9 1359.9l38.3 38.2-.1.1 37.4 37.5.2-.1 5.6 5.7-47.2 47.2-60.2-60.2-60.3-60.4 47.2-47.2 1.6 1.7v.1l37.4 37.5z"/>
        <path class="st0" d="M1284.1 1567.9c29.4 0 53.2 23.8 53.2 53.2s-23.8 53.3-53.2 53.3c-29.4 0-53.2-23.8-53.2-53.3 0-13.5 5-25.8 13.2-35.1 9.7-11.1 24-18.1 40-18.1z"/>
    </g>
    <g id="STROKES">
        <g id="XMLID_1_">
            <path class="st1" d="M989.9 784.8h144"/>
            <path class="st1" d="M350.6 964.4v-78c0-56.1 45.5-101.6 101.6-101.6h157"/>
            <path class="st1" d="M452.2 1246.1c-56.1 0-101.6-45.5-101.6-101.6v-79.8"/>
            <path class="st1" d="M1163.3 1246.1h102.5c47.4 0 85.9 38.4 85.9 85.9 0 23.7-9.6 45.2-25.2 60.7-15.5 15.5-37 25.2-60.7 25.2H309.6c-47.4 0-85.9-38.4-85.9-85.9 0-23.7 9.6-45.2 25.1-60.7 15.5-15.5 37-25.2 60.7-25.2h853.8z"/>
            <path class="st1" d="M193.5 1053.3v11.5h157.1V964.4H193.5v11.5z"/>
            <path class="st1" d="M193.5 975.9h86.2V837.3l-106.1-43.4v182z"/>
            <path class="st1" d="M193.5 1053.3h83.3v138.6l-106 43.3v-181.9z"/>
            <path class="st1" d="M989.9 644.3v-54.9H609.2v195.4h380.7v-55z"/>
            <path class="st1" d="M799.5 644.3c-23.6 0-42.8 19.1-42.8 42.8 0 23.6 19.1 42.8 42.8 42.8 23.6 0 42.8-19.1 42.8-42.8 0-23.6-19.1-42.8-42.8-42.8z"/>
            <path class="st1" d="M989.9 644.3c-23.6 0-42.8 19.1-42.8 42.8 0 23.6 19.1 42.8 42.8 42.8"/>
            <path class="st1" d="M609.2 729.8c23.6 0 42.8-19.1 42.8-42.8 0-23.6-19.1-42.8-42.8-42.8"/>
            <path class="st1" d="M1502.9 1359.9l40.6-40.6 7.3-46.4 36.7 2.4 56.1-51.2-71.6-26.1-77.3 31.8-29.3 92.6v.1l37.4 37.5z"/>
            <path class="st1" d="M1541.2 1398.1l40.6-40.6 46.4-7.3-2.5-36.6 51.3-56.2 26.1 71.7-31.8 77.3-92.6 29.2-.2.1-37.4-37.5z"/>
            <path class="st1" d="M1578.7 1435.6l5.6 5.7-47.2 47.2-60.2-60.2-60.3-60.4 47.2-47.2 1.6 1.7 37.5 37.5 38.3 38.2z"/>
            <path class="st1" d="M1244.1 1586l-191.5-168.2"/>
            <path class="st1" d="M1476.9 1428.3l-155.2 155.2"/>
            <path class="st1" d="M1284.1 1567.9c-16 0-30.3 7-40 18.1-8.2 9.4-13.2 21.7-13.2 35.1 0 29.4 23.8 53.3 53.2 53.3 29.4 0 53.2-23.8 53.2-53.3s-23.8-53.2-53.2-53.2z"/>
            <path class="st1" d="M1163.3 1226.2c122.4 0 221.7-99.3 221.7-221.7s-99.3-221.7-221.7-221.7c-10 0-19.8.7-29.4 1.9-108.5 14.4-192.3 107.3-192.3 219.8 0 122.5 99.3 221.7 221.7 221.7z"/>
            <path class="st1" d="M1314 1004.5c0-83.2-67.5-150.7-150.7-150.7"/>
            <path class="st1" d="M1163.3 1226.2v19.9"/>
        </g>
    </g>
</svg>
