<svg xmlns="http://www.w3.org/2000/svg" viewBox="0 0 1920 1920">
    <style>
        .st0{fill:#fff}.st1{fill:none;stroke:#231f20;stroke-width:50;stroke-linecap:round;stroke-linejoin:round;stroke-miterlimit:10}
    </style>
    <path class="st0" d="M473.4 1114.3L416.2 1261h-57.1v-183.5l114.3 36.8zm-114.3-314v185.6l115.1-37-57.9-148.6h-57.2zm1150.8 61.9c-39.5-.5-98.2-.8-165.8-.9-84-.2-181.8-.1-273.8 0-173.7.3-326.7.9-326.7.9l-269.5 86.7-115.1 37-65.5 21.1v49.4l65.5 21.1 114.3 36.9 64.7 20.9v-14.6h211.8v80.5h67.6v-80.5h211.8v80.5h58.5v-80.5h211.8v80.5h167.2v-80.5h211.8l1.3.9c15.8-23.2 26.9-53.3 29.4-92.1 0-.2-18.1-165.1-199.3-167.3zm-165.8-156.8h-168.6l-105.2 155.9c92-.1 189.8-.2 273.8 0V705.4z" id="Layer_2"/>
    <path class="st0" d="M1678.5 1120.6l1.3.9c-56 82.3-171.2 79.6-171.2 79.6h-41.8v-80.5h211.7zm-590.7 0v80.5h211.8v-80.5h-211.8zm-270.3 0v80.5h211.8v-80.5H817.5zm-279.4 0v14.6l204.1 65.8h7.7v-80.5H538.1z" id="Layer_3"/>
    <g id="STROKES">
        <g id="XMLID_1_">
            <path class="st1" d="M1679.8 1121.4c15.8-23.2 26.9-53.3 29.4-92.1 0 0-18.1-164.9-199.2-167.2-39.5-.5-98.2-.8-165.8-.9-84-.2-181.8-.1-273.8 0-173.7.3-326.7.9-326.7.9l-269.5 86.7-115.1 37-65.5 21.1-76.6 24.6 76.6 24.7 65.5 21.1 114.3 36.9 64.7 20.9 204.1 65.8h766.4c-.1.1 115.1 2.9 171.2-79.5z"/>
            <path class="st1" d="M474.1 948.8l-57.9-148.5h-57.1v185.6"/>
            <path class="st1" d="M473.4 1114.3L416.2 1261h-57.1v-183.9"/>
            <path class="st1" d="M293.6 945v163"/>
            <path class="st1" d="M1070.3 861.3l105.2-155.9h168.6v155.8"/>
            <path class="st1" d="M817.5 1201v-80.4h211.7v80.4"/>
            <path class="st1" d="M538.1 1135.2v-14.6h211.8v80.4"/>
            <path class="st1" d="M1087.8 1201v-80.4h211.7v80.4"/>
            <path class="st1" d="M1466.7 1201v-80.4h211.8"/>
            <path class="st1" d="M554.8 1030.6h-84.3"/>
        </g>
    </g>
</svg>
