<svg xmlns="http://www.w3.org/2000/svg" viewBox="0 0 1920 1920">
    <style>
        .st0{fill:#fff}.st1{fill:none;stroke:#231f20;stroke-width:50;stroke-linecap:round;stroke-linejoin:round;stroke-miterlimit:10}
    </style>
    <path class="st0" d="M1391.5 1194.6c50.2 0 90.9 40.7 90.9 90.9s-40.7 90.9-90.9 90.9-90.9-40.7-90.9-90.9 40.7-90.9 90.9-90.9zm-358.3 90.9c0 50.2 40.7 90.9 90.9 90.9s90.9-40.7 90.9-90.9-40.7-90.9-90.9-90.9-90.9 40.7-90.9 90.9zm-267.4 0c0 50.2 40.7 90.9 90.9 90.9s90.9-40.7 90.9-90.9-40.7-90.9-90.9-90.9-90.9 40.7-90.9 90.9z" id="Layer_4"/>
    <path class="st0" d="M1452.4 1012.8c67.1 4.4 127.4 33.4 172 78 48.5 48.5 78.6 115.6 78.6 189.7 0 148.2-120.1 268.3-268.3 268.3H779.2c-78.9 0-150.4-32-202.1-83.7-51.7-51.7-83.7-123.2-83.7-202.1 0-138.5 112.2-250.7 250.7-250.7h690.8c5.8-.1 11.7.1 17.5.5zm-151.8 272.7c0 50.2 40.7 90.9 90.9 90.9s90.9-40.7 90.9-90.9-40.7-90.9-90.9-90.9-90.9 40.7-90.9 90.9zm-267.4 0c0 50.2 40.7 90.9 90.9 90.9s90.9-40.7 90.9-90.9-40.7-90.9-90.9-90.9-90.9 40.7-90.9 90.9zm-267.4 0c0 50.2 40.7 90.9 90.9 90.9s90.9-40.7 90.9-90.9-40.7-90.9-90.9-90.9-90.9 40.7-90.9 90.9zm563.4-591.9h-212l-142.3 318.7h460c5.9 0 11.8.2 17.7.6V693.6h-123.4zm-964.4 555l8.2 49.9s-3-2-8.2-5.4v22.2c5.1-3.4 8.2-5.4 8.2-5.4l-6.2 38.2h97.5v-99.4h-99.5zm0 99.4v-32.8c-27.3 18.4-113.3 79.5-107.9 114.3 6.4 41.3 85.9 64 85.9 64l23.8-145.5h-1.8zM257 1178.7c-5.4 34.8 80.6 95.9 107.9 114.3v-44.4L343 1114.8c-.1-.1-79.6 22.5-86 63.9z" id="Layer_5"/>
    <path class="st0" d="M1471 414.2c0 53.7-36.5 43-36.5 43h-32.1v-86h32.1s36.5 0 36.5 43zm-119.3-43c-59.9 0-108.4 48.5-108.4 108.4v213.9h85.9V479.7c0-12.4 10.1-22.5 22.5-22.5h50.8v-86h-50.8z" id="Layer_6"/>
    <g id="STROKES">
        <g id="XMLID_1_">
            <path class="st1" d="M342.9 1114.7s-79.5 22.6-85.9 64c-5.4 34.8 80.6 95.9 107.9 114.3 5.1 3.4 8.2 5.4 8.2 5.4l-8.2-49.9-22-133.8"/>
            <path class="st1" d="M364.8 1315.2c5.1-3.4 8.2-5.4 8.2-5.4l-6.2 38.2-23.8 145.5s-79.5-22.6-85.9-64c-5.6-34.8 80.4-95.9 107.7-114.3z"/>
            <path class="st1" d="M364.8 1248.6h99.4v99.4h-99.4v-55z"/>
            <path class="st1" d="M1329.2 693.6h123.3v318.6"/>
            <path class="st1" d="M974.8 1012.2l142.3-318.6h126.1"/>
            <circle class="st1" cx="1391.5" cy="1285.5" r="90.9"/>
            <circle class="st1" cx="1124.1" cy="1285.5" r="90.9"/>
            <path class="st1" d="M856.7 1194.6c-50.2 0-90.9 40.7-90.9 90.9s40.7 90.9 90.9 90.9 90.9-40.7 90.9-90.9c-.1-50.2-40.7-90.9-90.9-90.9z"/>
            <path class="st1" d="M1452.4 1012.8c-5.8-.4-11.7-.6-17.7-.6H744c-138.5 0-250.7 112.2-250.7 250.7 0 78.9 32 150.4 83.7 202.1 51.7 51.7 123.2 83.7 202.1 83.7h655.6c148.2 0 268.3-120.1 268.3-268.3 0-74.1-30-141.2-78.6-189.7-44.6-44.6-104.9-73.5-172-77.9z"/>
            <path class="st1" d="M1329.2 693.6h-85.9V479.7c0-59.9 48.5-108.4 108.4-108.4h82.9s36.5 0 36.5 43c0 53.7-36.5 43-36.5 43h-82.9c-12.4 0-22.5 10.1-22.5 22.5v213.8z"/>
            <path class="st1" d="M1402.4 371.2v86"/>
        </g>
    </g>
</svg>
