<svg xmlns="http://www.w3.org/2000/svg" viewBox="0 0 1920 1920">
    <style>
        .st0{fill:#fff}.st1{fill:none;stroke:#231f20;stroke-width:50;stroke-linecap:round;stroke-linejoin:round;stroke-miterlimit:10}
    </style>
    <path class="st0" d="M1622.7 772.8s-158.6 106.1-375.9 227.1l1.3-297.8 9-.6c111.1.8 276-2.5 276-2.5s39 13.3 79.2 60.8l10.4 13zm59.6 126c-34.5 21.8-211 132.2-434.4 249.1l.2.3-4 323.7c213-1.6 381-2.9 381-2.9s44.2-170.3 48-188c32.2-151.5 27.7-291.5 11.6-375.7l-2.4-6.5zM1369 1359.1v-145.5h183v145.5h-183zm-378-85.5c-66 29.9-133.3 56.8-198.9 80.8l1 121.1c114.1-.9 238.2-1.9 355-2.9l1.8-274.7c-51.7 25.8-105 51.3-158.9 75.7zm-294.3 114.2c-131.8 44-249.8 74.9-326.8 92.1 13.8-.7 149.5-2 327-3.5l-.2-88.6zM819 697.5l-13.7.2-.3 1.3-18 80 3.9 443.3c51.9-20.8 104.9-43.6 158.1-68.7 69.8-32.9 138.3-67.6 203.3-102.2L1154 779l-18-80c-42.1-3.8-190.1-2.8-317-1.5zM693 699s-390 14-394 26c-1.6 4.9-11.7 36.4-22 88.4-6.3 31.8-12.7 71.2-17.4 116.9-6.3 61.7-9.3 134.7-4.6 215.7 2.4 40.1 11.8 135 32 217l1.5 7.1c105.2-18 249-54.5 407.6-111.7l-.4-1.1L693 699z" id="Layer_10"/>
    <path class="st0" d="M1247.9 1147.9l.2.3-4 323.7c-31.2.2-63.3.5-96 .7l1.8-274.7c33.4-16.6 66.2-33.4 98-50zm-551.2 239.9l.2 88.6c30.9-.3 63.1-.6 96.1-.8l-1-121.1c-32.2 11.7-64.1 22.9-95.3 33.3zM1138 399l-60 44 58 256 18 80-1.8 272.4c32.4-17.3 64-34.5 94.5-51.4l1.3-297.8v-3.1c0-.1-72-272.1-110-300.1zm0 0l-60 44s-90.8-98-215 0l-60-44s60-60 157-62 143.1 44 178 62zm-275 44l-57.7 254.7-.3 1.3-18 80 3.9 443.3c-32 12.8-63.7 24.8-94.8 36l-.4-1.1L693 699s72-272 110-300l60 44z" id="Layer_11"/>
    <path class="st0" d="M1369 1213.6h183v145.5h-183z" id="Layer_13"/>
    <path class="st0" d="M277 813.4c-6.3 31.8-12.7 71.2-17.4 116.9l-53.1-7.7s4.5-33-12-54 9-43.5 25.5-66 57 10.8 57 10.8zm11.5 556.7l-1.5-7.1c-20.2-82-29.6-176.9-32-217-4.7-81-1.7-154.1 4.6-215.7l-53.1-7.7s-60 382.5-66 421.5c-1.4 9.4.2 23.3 5 39 30.5 1.6 82-2.6 143-13zm81.5 109.7c76.9-17.2 194.9-48.1 326.8-92.1 31.1-10.4 63-21.5 95.3-33.3 65.6-24 132.9-51 198.9-80.8 53.9-24.4 107.2-49.9 158.9-75.6 33.4-16.7 66.2-33.4 98-50.1 223.4-116.8 399.9-227.2 434.4-249.1 4-2.6 6.1-3.9 6.1-3.9s78-132.8-65.8-122.1c0 0-158.6 106.1-375.9 227.1-30.4 16.9-62 34.2-94.5 51.4-65 34.6-133.5 69.3-203.3 102.2-53.2 25.1-106.2 48-158.1 68.7-32 12.8-63.7 24.8-94.8 36-158.6 57.2-302.4 93.8-407.6 111.7-61 10.4-112.5 14.6-142.9 13 15.1 49.3 61.1 115.9 137.4 112.5 11.9-.4 42.6-5.7 87.1-15.6z" id="Layer_12"/>
    <g id="STROKES">
        <path class="st1" d="M693 699s-390 14-394 26c-1.6 4.9-11.7 36.4-22 88.4-6.3 31.8-12.7 71.2-17.4 116.9-6.3 61.7-9.3 134.7-4.6 215.7 2.4 40.1 11.8 135 32 217l1.5 7.1"/>
        <path class="st1" d="M1136 699c-42.1-3.8-190.1-2.8-317.1-1.5l-13.7.2"/>
        <path class="st1" d="M1622.7 772.8l-10.4-13.1C1572 712.3 1533 699 1533 699s-164.9 3.3-276 2.5l-9 .6"/>
        <path class="st1" d="M369.9 1479.8s.1 0 0 0c13.8-.7 149.5-2 327-3.5 30.9-.3 63.1-.6 96.1-.8 114.1-.9 238.2-1.9 355-2.9 32.7-.2 64.8-.5 96-.7 213-1.6 381-2.9 381-2.9s44.2-170.3 48-188c32.2-151.5 27.7-291.5 11.6-375.7l-2.3-6.5"/>
        <path class="st1" d="M863 443l-57.7 254.7-.3 1.3-18 80 3.9 443.3"/>
        <path class="st1" d="M695.7 1257.2L693 699s72-272 110-300"/>
        <path class="st1" d="M697 1476.3l-.2-88.5"/>
        <path class="st1" d="M792.1 1354.4l.9 121.1"/>
        <path class="st1" d="M1078 443l58 256 18 80-1.7 272.4"/>
        <path class="st1" d="M1246.7 1000.1v-.1l1.3-297.8v-3.1s-72-272-110-300"/>
        <path class="st1" d="M1244 1471.9l4-323.7"/>
        <path class="st1" d="M1149.9 1197.9l-1.9 274.7"/>
        <path class="st1" d="M803 399s60-60 157-62 143.1 44 178 62l-60 44s-90.8-98-215 0l-60-44z"/>
        <path class="st1" d="M926.5 762.1l33.5-65.6 52 65.6"/>
        <path class="st1" d="M277 813.4s-40.5-33.3-57-10.8-42 45-25.5 66 12 54 12 54l53.1 7.7"/>
        <path class="st1" d="M206.5 922.6s-60 382.5-66 421.5c-1.4 9.4.2 23.3 5 39 15.1 49.3 61.1 115.9 137.4 112.5 11.8-.5 42.5-5.8 87-15.7 76.9-17.2 194.9-48.1 326.8-92.1 31.1-10.4 63-21.5 95.3-33.3 65.6-24 132.9-51 198.9-80.8 53.9-24.4 107.2-49.9 158.9-75.6 33.4-16.7 66.2-33.4 98-50.1 223.4-116.8 399.9-227.2 434.4-249.1 4-2.6 6.1-3.9 6.1-3.9s78-132.8-65.8-122.1c0 0-158.6 106.1-375.9 227.1-30.4 16.9-62 34.2-94.5 51.4-65 34.6-133.5 69.3-203.3 102.2-53.2 25.1-106.2 48-158.1 68.7-32 12.8-63.7 24.8-94.8 36-158.6 57.2-302.4 93.8-407.6 111.7-61 10.4-112.5 14.6-142.9 13"/>
        <path class="st1" d="M1369 1213.6h183v145.5h-183z"/>
    </g>
</svg>
