<svg xmlns="http://www.w3.org/2000/svg" viewBox="0 0 1920 1920">
    <style>
        .st0{fill:#fff}.st1{fill:none;stroke:#231f20;stroke-width:50;stroke-linecap:round;stroke-linejoin:round;stroke-miterlimit:10}
    </style>
    <path class="st0" d="M1350 1331.5H570c0-42.1 6.7-82.6 19-120.5 12.8-39.3 31.6-75.9 55.5-108.7 24.1-33.1 53.2-62.2 86.3-86.3 32.8-23.8 69.3-42.7 108.7-55.5 38-12.3 78.5-19 120.5-19s82.6 6.7 120.5 19c39.3 12.8 75.9 31.6 108.7 55.5 33.1 24.1 62.2 53.2 86.3 86.3 23.8 32.8 42.7 69.3 55.5 108.7 12.3 37.9 19 78.5 19 120.5z" id="Layer_3"/>
    <g id="STORMS">
        <g id="XMLID_1_">
            <path class="st1" d="M1350 1331.5c0-42.1-6.7-82.6-19-120.5"/>
            <path class="st1" d="M570 1331.5c0-42.1 6.7-82.6 19-120.5"/>
            <path class="st1" d="M730.8 1016c-33.1 24.1-62.2 53.2-86.3 86.3"/>
            <path class="st1" d="M960 941.6c-42.1 0-82.6 6.7-120.5 19"/>
            <path class="st1" d="M1275.5 1102.3c-24.1-33.1-53.2-62.2-86.3-86.3"/>
            <path class="st1" d="M1275.5 1102.3c23.8 32.8 42.7 69.3 55.5 108.7"/>
            <path class="st1" d="M730.8 1016c32.8-23.8 69.3-42.7 108.7-55.5"/>
            <path class="st1" d="M1080.5 960.5c39.3 12.8 75.9 31.6 108.7 55.5"/>
            <path class="st1" d="M589 1211c12.8-39.3 31.6-75.9 55.5-108.7"/>
            <path class="st1" d="M1080.5 960.5c-38-12.3-78.5-19-120.5-19"/>
            <path class="st1" d="M960 588.5v353.1"/>
            <path class="st1" d="M1189.6 624.8l-109.1 335.7"/>
            <path class="st1" d="M1396.8 730.4L1189.2 1016"/>
            <path class="st1" d="M1561.1 894.8l-285.6 207.5"/>
            <path class="st1" d="M1666.7 1101.9L1331 1211"/>
            <path class="st1" d="M1703.1 1331.5h-306.3"/>
            <path class="st1" d="M1396.8 1331.5H216.9"/>
            <path class="st1" d="M253.3 1101.9L589 1211"/>
            <path class="st1" d="M644.5 1102.3L358.9 894.8"/>
            <path class="st1" d="M523.2 730.4L730.8 1016"/>
            <path class="st1" d="M839.5 960.5L730.4 624.8"/>
        </g>
    </g>
</svg>
