<svg xmlns="http://www.w3.org/2000/svg" viewBox="0 0 1920 1920">
    <style>
        .st0{fill:#fff}.st1{fill:none;stroke:#231f20;stroke-width:50;stroke-linecap:round;stroke-linejoin:round;stroke-miterlimit:10}
    </style>
    <circle class="st0" cx="960" cy="960" r="304.2" id="Layer_4"/>
    <path class="st0" d="M434.6 419.4l288 181.8C680.8 629 644.1 663.8 614.3 704L434.6 419.4zm762.9 181.8c41.8 27.7 78.5 62.5 108.3 102.7l179.7-284.6-288 181.9zm-313.1-64.8c24.5-4.3 49.8-6.6 75.6-6.6s51 2.3 75.6 6.6L960 201.8l-75.6 334.6zm496.8 335.7c5.9 28.4 9 57.8 9 87.9 0 19.1-1.2 37.9-3.7 56.3l316.5-71.5-321.8-72.7zm-161.1 430.6l265.3 167.5-169.5-268.5c-26.3 38.7-58.7 72.8-95.8 101zM960 1390.2c-23.3 0-46.2-1.9-68.5-5.4l68.5 303.1 68.5-303.1c-22.3 3.5-45.2 5.4-68.5 5.4zm-355.9-188.4l-169.5 268.5 265.3-167.5c-37.1-28.3-69.5-62.4-95.8-101zm-70.6-185.5c-2.4-18.4-3.7-37.2-3.7-56.3 0-30.1 3.1-59.5 9-87.9L217 944.8l316.5 71.5z" id="Layer_5"/>
    <g id="STORMS">
        <g id="XMLID_1_">
            <path class="st1" d="M722.5 601.2l-288-181.8L614.3 704c29.8-40.2 66.5-75 108.2-102.8z"/>
            <path class="st1" d="M960 529.8c25.8 0 51 2.3 75.6 6.6L960 201.8l-75.6 334.7c24.6-4.4 49.8-6.7 75.6-6.7z"/>
            <path class="st1" d="M1703.1 944.8l-321.9-72.7c5.9 28.4 9 57.8 9 87.9 0 19.1-1.2 37.9-3.7 56.3l316.6-71.5z"/>
            <path class="st1" d="M1305.7 704l179.7-284.6-288 181.8c41.8 27.8 78.5 62.6 108.3 102.8z"/>
            <path class="st1" d="M529.8 960c0-30.1 3.1-59.5 9-87.9L217 944.8l316.5 71.5c-2.4-18.4-3.7-37.2-3.7-56.3z"/>
            <path class="st1" d="M960 1390.2c-23.3 0-46.2-1.9-68.5-5.4l68.5 303.1 68.5-303.1c-22.3 3.5-45.2 5.4-68.5 5.4z"/>
            <path class="st1" d="M1220.1 1302.7l265.3 167.5-169.5-268.5c-26.3 38.7-58.7 72.8-95.8 101z"/>
            <path class="st1" d="M604.1 1201.8l-169.5 268.5 265.3-167.5c-37.1-28.3-69.5-62.4-95.8-101z"/>
            <circle class="st1" cx="960" cy="960" r="304.2"/>
        </g>
    </g>
</svg>
