<svg xmlns="http://www.w3.org/2000/svg" viewBox="0 0 1920 1920">
    <style>
        .st0{fill:#fff}.st1{fill:none;stroke:#231f20;stroke-width:50;stroke-linecap:round;stroke-linejoin:round;stroke-miterlimit:10}
    </style>
    <path class="st0" d="M1617.9 713c-232.5-39.6-507.6 14.1-553.1 24.6-1.7.4-3.4.8-5.2 1.2-65.6 14.5-133.6 14.5-199.2 0-1.7-.4-3.4-.8-5.2-1.2-45.4-10.6-320.6-64.2-553.1-24.6-28.1 4.8-56.6 7.3-85.2 7.3v104.4s20.6 3.5 24.9 84c1 19 2.4 38 4.4 56.8 9.5 91.1-19.5 275.1 323.6 275.1 267.6 0 312.2-212.1 312.2-212.1 50.4-194.3 105.5-194.3 155.9 0 0 0 44.6 212.1 312.2 212.1 343.2 0 314.1-184 323.6-275.1 2-18.9 3.4-37.9 4.4-56.8 4.3-80.5 24.9-84 24.9-84V720.3c-28.5 0-57-2.5-85.1-7.3zM837.3 874.3c-.1.8-.1 1.6-.2 2.3-5.3 56.5-40.8 241.5-156.1 277.1-115.3 35.6-284.8 21.7-322-45.2-37.3-66.9-53.5-244.6-5.6-332.7 0 0 163.5-50.2 422.8 16.1 37.7 9.8 63.8 44.2 61.1 82.4zm723.8 234.3c-37.3 66.9-206.7 80.8-322 45.2-115.3-35.6-150.8-220.7-156.1-277.1-.1-.8-.1-1.6-.2-2.3-2.7-38.2 23.4-72.6 61.2-82.3 259.2-66.3 422.8-16.1 422.8-16.1 47.8 88.1 31.5 265.7-5.7 332.6z" id="Layer_4"/>
    <path class="st0" d="M776.1 792c-259.2-66.2-422.8-16-422.8-16-47.9 88.1-31.7 265.8 5.6 332.7 37.3 66.9 206.7 80.8 322 45.2 115.3-35.6 150.8-220.7 156.1-277.1.1-.8.1-1.6.2-2.3 2.8-38.3-23.3-72.8-61.1-82.5z" id="Layer_5"/>
    <path class="st0" d="M1143.9 792c-37.8 9.7-63.9 44.1-61.2 82.3.1.8.1 1.5.2 2.3 5.3 56.5 40.8 241.5 156.1 277.1 115.3 35.6 284.8 21.7 322-45.2 37.3-66.9 53.5-244.6 5.6-332.7.1.2-163.5-50-422.7 16.2z" id="Layer_9"/>
    <g id="STROKES">
        <path class="st1" d="M353.3 776s163.5-50.2 422.7 16.1c37.8 9.7 63.9 44.1 61.2 82.3-.1.8-.1 1.5-.2 2.3-5.3 56.5-40.8 241.5-156.1 277.1s-284.8 21.7-322-45.2c-37.2-66.9-53.5-244.5-5.6-332.6z"/>
        <path class="st1" d="M1566.7 776s-163.5-50.2-422.7 16.1c-37.8 9.7-63.9 44.1-61.2 82.3.1.8.1 1.5.2 2.3 5.3 56.5 40.8 241.5 156.1 277.1 115.3 35.6 284.8 21.7 322-45.2 37.2-66.9 53.5-244.5 5.6-332.6z"/>
        <path class="st1" d="M1703.1 720.3c-28.6 0-57.1-2.5-85.2-7.3-232.5-39.6-507.6 14.1-553.1 24.6-1.7.4-3.4.8-5.2 1.2-65.6 14.5-133.6 14.5-199.2 0-1.7-.4-3.5-.8-5.2-1.2-45.4-10.6-320.5-64.2-553-24.6-28.2 4.8-56.6 7.3-85.2 7.3v104.4s20.6 3.5 24.9 84c1 19 2.4 37.9 4.4 56.8 9.5 91.1-19.5 275.1 323.6 275.1 267.6 0 312.2-212.1 312.2-212.1 50.4-194.3 105.5-194.3 155.9 0 0 0 44.6 212.1 312.2 212.1 343.1 0 314.1-184 323.6-275.1 2-18.9 3.4-37.9 4.4-56.8 4.3-80.5 24.9-84 24.9-84V720.3z"/>
    </g>
</svg>
