<svg xmlns="http://www.w3.org/2000/svg" viewBox="0 0 1920 1920">
    <style>
        .st0{fill:#fff}.st1{fill:none;stroke:#231f20;stroke-width:50;stroke-linecap:round;stroke-linejoin:round;stroke-miterlimit:10}
    </style>
    <path class="st0" d="M1297.5 220.2c-9.7-2.2-19.5-3.3-29.4-3.3H601.8c42.2 0 82.4 20.1 119 56.6C833.1 385.3 912 650.5 912 959.9c0 307.8-78.1 571.9-189.5 684.7-37.1 37.6-77.9 58.4-120.8 58.4h666.2c9.9 0 19.7-1.1 29.4-3.3 157.6-35.5 280.9-353.1 280.9-739.8s-123.1-704.2-280.7-739.7z" id="Layer_2"/>
    <path class="st0" d="M912.1 950.4v-19.2c0-2.8-.1-5.6-.1-8.4 0-1.3-.1-2.6-.1-3.9v-2.2c0-.9 0-1.8-.1-2.6v-3.4c0-1.1-.1-2.3-.1-3.4v-1.7c0-.9-.1-1.9-.1-2.8-.1-3.8-.3-7.7-.4-11.5v-.6c-.1-1.7-.1-3.3-.2-5 0-1.1-.1-2.1-.1-3.2-.1-1.6-.1-3.2-.2-4.7 0-.6 0-1.2-.1-1.7 0-1.1-.1-2.2-.2-3.3-.1-1.8-.2-3.7-.3-5.5-.1-1.4-.1-2.9-.2-4.3-.1-1.8-.2-3.5-.3-5.2 0-.9-.1-1.8-.2-2.7l-.3-4.5c-.2-3-.4-5.9-.6-8.9-.1-1.3-.2-2.6-.3-3.8v-.3c-.1-1.6-.2-3.3-.3-4.9-.1-1.2-.2-2.4-.3-3.7 0-.5-.1-1-.1-1.5l-.3-4.2c-.1-1.2-.2-2.5-.3-3.7v-.7c0-.3 0-.6-.1-.8 0-.4-.1-.8-.1-1.2 0-.5-.1-1-.1-1.5v-.5c-.1-.7-.1-1.3-.2-2 0-.6-.1-1.2-.1-1.8-.1-.7-.1-1.3-.2-2-.1-1.8-.3-3.6-.5-5.3 0-.3-.1-.7-.1-1 0-.5-.1-.9-.1-1.3 0-.5-.1-.9-.1-1.4-.1-1.4-.2-2.8-.4-4.2-.2-1.9-.4-3.7-.5-5.5-.2-1.8-.4-3.7-.5-5.5-.2-1.5-.3-3.1-.5-4.7l-.6-5.4-.3-2.7c-.2-1.8-.4-3.7-.6-5.5 0-.3-.1-.6-.1-.9v-.1c0-.3-.1-.6-.1-.9-.3-2.8-.6-5.6-1-8.3-.2-1.7-.4-3.3-.6-5-.3-2.2-.5-4.4-.8-6.6-.2-1.6-.4-3.1-.6-4.7-.1-.6-.2-1.3-.2-1.9l-.9-6.6c-.3-2.3-.6-4.5-.9-6.8-.3-2-.5-3.9-.8-5.9-.6-4.5-1.3-8.9-2-13.3-.2-1.5-.5-3.1-.7-4.6l-.3-1.8c-.2-1-.3-2-.5-3-.9-5.4-1.8-10.8-2.7-16.1-.1-.6-.2-1.1-.3-1.7-.2-.9-.3-1.8-.5-2.7-.1-.7-.2-1.4-.4-2 0-.2-.1-.4-.1-.6 0-.2-.1-.4-.1-.6l-.3-1.5c0-.1 0-.3-.1-.4l-.3-1.5c-.1-.5-.2-1-.3-1.6-.1-.7-.3-1.5-.4-2.2-.2-1.3-.5-2.7-.7-4-.8-4.2-1.5-8.3-2.3-12.4-.2-.8-.3-1.6-.5-2.4-.1-.7-.2-1.3-.4-2 0-.1 0-.3-.1-.4-.1-.5-.2-1-.3-1.4-.2-.9-.4-1.8-.6-2.8-.4-1.9-.8-3.8-1.1-5.7-.1-.4-.2-.9-.3-1.3-.2-.8-.3-1.6-.5-2.5-.1-.7-.3-1.4-.4-2.1-.3-1.3-.5-2.7-.8-4-.1-.5-.2-1.1-.4-1.6l-.3-1.5c0-.2-.1-.3-.1-.5-.2-.8-.3-1.5-.5-2.2-.1-.3-.1-.6-.2-.9 0-.1 0-.2-.1-.3-.1-.6-.3-1.3-.4-1.9-.7-3-1.3-6.1-2-9.1 0-.1 0-.2-.1-.3-.4-1.9-.9-3.8-1.3-5.7 0-.2-.1-.5-.2-.7 0-.1-.1-.2-.1-.4-.2-.8-.4-1.7-.6-2.5l-.3-1.5-.2-.8c-.5-2-.9-3.9-1.4-5.9-.4-1.5-.8-3.1-1.1-4.6-.3-1.1-.6-2.3-.8-3.4-.3-1.1-.6-2.3-.9-3.4-.1-.4-.2-.9-.3-1.3 0-.2-.1-.4-.1-.6-.2-.7-.4-1.5-.6-2.2l-.6-2.4c-.3-1.2-.6-2.3-.9-3.4-.7-2.5-1.3-5-2-7.5v-.1c-.3-1.2-.6-2.4-1-3.6-.2-.8-.4-1.5-.6-2.3-.5-1.8-1-3.5-1.5-5.3-.3-1.2-.7-2.3-1-3.5-.1-.3-.1-.5-.2-.8 0-.1-.1-.3-.1-.4-.3-.9-.5-1.8-.8-2.7v-.1c-.2-.9-.5-1.7-.7-2.6-.1-.3-.2-.7-.3-1-.8-2.8-1.6-5.6-2.5-8.4-.1-.4-.3-.9-.4-1.3-.3-1.1-.6-2.1-1-3.2 0-.1-.1-.2-.1-.3-.1-.5-.3-.9-.4-1.4 0-.1-.1-.2-.1-.3-.1-.3-.2-.6-.3-1-.1-.2-.1-.5-.2-.7-.4-1.4-.9-2.8-1.3-4.2-.1-.4-.2-.8-.4-1.2-.7-2.3-1.5-4.7-2.2-7-.4-1.2-.8-2.5-1.2-3.7-.2-.7-.4-1.4-.7-2.1l-.6-1.8c-.7-2.1-1.4-4.2-2.1-6.4 0-.1-.1-.2-.1-.2l-2.1-6c-.5-1.5-1-2.9-1.5-4.4-.1-.2-.2-.5-.2-.7-.1-.2-.1-.4-.2-.6-.4-1-.7-2.1-1.1-3.1-.1-.2-.2-.5-.3-.7-.6-1.6-1.1-3.2-1.7-4.8-.6-1.8-1.3-3.6-2-5.4-.1-.2-.2-.4-.2-.6 0-.1-.1-.2-.1-.3 0-.1-.1-.3-.1-.4-.2-.5-.4-1.1-.6-1.6-.2-.6-.5-1.2-.7-1.8-.4-1-.8-2.1-1.2-3.1-.8-2.2-1.7-4.3-2.5-6.5v-.1c0-.1-.1-.3-.2-.4-.8-2-1.6-4.1-2.4-6.1-.5-1.2-1-2.5-1.5-3.7-.2-.4-.3-.8-.5-1.2-.1-.3-.3-.7-.4-1-.1-.3-.2-.5-.3-.8-.2-.6-.5-1.2-.7-1.8-.3-.7-.6-1.3-.8-2v-.2c-.4-.9-.7-1.8-1.1-2.6-.1-.2-.2-.5-.3-.7-.3-.6-.5-1.3-.8-1.9-.2-.5-.4-.9-.6-1.4-.1-.2-.2-.5-.3-.7l-.3-.6c-.1-.1-.1-.3-.2-.4-.5-1.2-1-2.4-1.6-3.7-.1-.3-.3-.6-.4-.9-.3-.6-.5-1.3-.8-1.9-.4-.9-.8-1.9-1.2-2.8-.5-1.2-1.1-2.4-1.6-3.6l-.6-1.2-.3-.6-.3-.6c-.3-.7-.7-1.5-1-2.2-.1-.2-.2-.4-.2-.5l-1.8-3.9c-.4-.8-.7-1.6-1.1-2.3l-1.2-2.4c-.3-.7-.7-1.4-1-2.1-.2-.4-.4-.9-.6-1.3-.4-.8-.7-1.5-1.1-2.3-.1-.2-.2-.3-.2-.5 0-.1-.1-.1-.1-.2-.8-1.7-1.6-3.3-2.5-5-.2-.5-.5-1-.7-1.4-.4-.7-.7-1.4-1.1-2.1 0-.1 0-.1-.1-.2-.5-.9-.9-1.8-1.4-2.7-.5-.9-1-1.9-1.5-2.8-.2-.5-.5-.9-.7-1.4-.2-.5-.5-.9-.7-1.4-.5-.9-1-1.9-1.5-2.8s-1-1.8-1.5-2.8l-1.5-2.7-1.5-2.7-1.5-2.7c-.2-.5-.5-.9-.8-1.3s-.5-.9-.8-1.3c-.5-.9-1-1.8-1.5-2.6-.7-1.2-1.3-2.3-2-3.4-.4-.6-.7-1.2-1.1-1.8l-1.2-2.1c-.1-.2-.2-.3-.3-.5-.7-1.1-1.4-2.3-2-3.4-.3-.6-.7-1.1-1-1.7-.4-.7-.8-1.4-1.3-2.1-.1-.1-.2-.3-.3-.4-.5-.8-.9-1.5-1.4-2.3 0-.1-.1-.2-.1-.2-.4-.7-.8-1.3-1.3-2-.3-.5-.7-1-1-1.5-.2-.3-.4-.7-.6-1-.1-.1-.2-.3-.2-.4-.1-.1-.1-.2-.2-.4-.5-.7-.9-1.4-1.3-2.1l-.6-.9c-.2-.4-.5-.7-.7-1.1-.2-.3-.5-.7-.7-1-.1-.2-.2-.3-.3-.5-.3-.4-.6-.9-.9-1.3l-1.2-1.8c-.1-.2-.3-.4-.4-.6l-.1-.1c-.3-.4-.6-.8-.9-1.3 0 0 0-.1-.1-.1-.4-.6-.8-1.1-1.2-1.7-.7-1.1-1.5-2.1-2.2-3.1-.1-.1-.1-.2-.2-.3l-.9-1.2c-.3-.5-.7-.9-1-1.4-1.1-1.5-2.2-3-3.2-4.5-.5-.7-1.1-1.5-1.6-2.2-.5-.7-1.1-1.5-1.6-2.2-.6-.7-1.1-1.5-1.7-2.2-.5-.7-1.1-1.4-1.7-2.1-.8-1.1-1.7-2.2-2.5-3.2-.1-.2-.3-.4-.4-.6-.1-.1-.2-.3-.3-.4-.6-.7-1.1-1.4-1.7-2.1-1.1-1.4-2.2-2.7-3.4-4.1-.5-.6-1.1-1.3-1.6-1.9l-.1-.1c-.2-.2-.3-.4-.5-.6-.4-.4-.7-.8-1.1-1.2-.2-.2-.3-.4-.5-.6-.4-.5-.8-.9-1.2-1.3-.3-.3-.5-.6-.8-.9-.3-.4-.6-.7-.9-1.1l-.1-.1c-.4-.4-.8-.9-1.2-1.3-.1-.1-.2-.2-.3-.4-.6-.7-1.3-1.4-1.9-2.1-.5-.5-1-1.1-1.5-1.6-.6-.6-1.1-1.2-1.7-1.8-.1 0-.1-.1-.2-.2-.5-.5-1-1.1-1.6-1.6l-.5-.5-.3-.3-.9-.9c-.6-.6-1.2-1.2-1.7-1.8-.6-.6-1.2-1.1-1.7-1.7-.6-.5-1.1-1.1-1.7-1.7l-1.2-1.1-.5-.5-.1-.1c-.1-.1-.2-.2-.3-.2l-.2-.2-2.9-2.7-.1-.1c-.1 0-.1-.1-.2-.1-.5-.4-1-.9-1.5-1.3l-.2-.2-4-3.5c-.2-.2-.4-.3-.6-.5l-.6-.5-.1-.6-.3-.3c-.4-.3-.8-.7-1.2-1l-.1-.1-.2-.2-.1-.1-1.5-1.3-.1-.1-1.5-1.2c-.6-.5-1.2-.9-1.8-1.4-.6-.5-1.2-.9-1.8-1.4-.1-.1-.3-.2-.4-.3-.2-.1-.3-.2-.5-.4s-.5-.3-.7-.5l-.4-.3s-.1 0-.1-.1l-.4-.3c-.2-.2-.4-.3-.7-.5L691 248c-.6-.4-1.2-.9-1.8-1.3l-2.7-1.8c-.5-.3-1-.7-1.5-1l-2-1.3c-.1-.1-.2-.1-.2-.2l-.6-.4-.8-.5h-.2c-.4-.2-.8-.5-1.2-.7-.6-.4-1.2-.8-1.8-1.1l-1.4-.8c-.1 0-.1-.1-.2-.1l-.5-.3-.2-.1-.3-.2-1.8-1h-.2l-.4-.2c-.2-.1-.4-.2-.6-.4-.1-.1-.2-.1-.3-.2-.2-.1-.3-.2-.4-.2-.4-.2-.7-.4-1.1-.6-.5-.3-.9-.5-1.4-.8-.1-.1-.2-.1-.3-.2l-1-.5-2.9-1.5c-.6-.3-1.2-.6-1.9-.9-.6-.3-1.2-.6-1.9-.9-.6-.3-1.2-.5-1.7-.8l-2-.9c-.6-.3-1.2-.5-1.9-.8-.6-.3-1.2-.5-1.9-.8l-1.4-.6c-.1 0-.2-.1-.2-.1l-.6-.2c-.1 0-.1-.1-.2-.1h-.1l-2.8-1-1-.4c-.1 0-.2-.1-.3-.1l-.6-.2-2.9-1c-.4-.2-.9-.3-1.3-.4l-1.9-.6c-.6-.2-1.3-.4-1.9-.6l-6.1-1.6-.2-.1c-.5-.1-.9-.2-1.4-.3l-5.4-1.1c-.4-.1-.7-.1-1.1-.2-.4-.1-.8-.2-1.2-.2l-2.4-.4-.5-.1c-.4 0-.7-.1-1-.1-.6-.1-1.1-.2-1.7-.2l-2.2-.2c-.7-.1-1.3-.1-2-.2l-2.2-.2c-.5 0-1-.1-1.6-.1h-1l-1-.1c-.5 0-1 0-1.5-.1h-4.5c-171.4 0-310.3 332.7-310.3 743s138.9 743.1 310.3 743.1l3.3-.1h1.6c.8 0 1.7-.1 2.5-.1.4 0 .7 0 1.1-.1l1.4-.1c1.3-.1 2.7-.2 4-.4l13.7-2.2h.1l3.9-.9 32.6-12.2 1.7-.9c.1 0 .2-.1.2-.1.1-.1.3-.1.4-.2l.8-.4 1.7-.9.9-.5c1.2-.7 2.5-1.4 3.7-2.1l47-37.2c.9-.9 1.7-1.8 2.6-2.7.9-.9 1.7-1.8 2.6-2.7.6-.6 1.1-1.2 1.7-1.9l.2-.2c.5-.5 1-1.1 1.5-1.6 1.1-1.3 2.3-2.6 3.4-3.9.6-.6 1.1-1.3 1.7-1.9 1.3-1.5 2.6-3 3.9-4.6.4-.5.8-.9 1.2-1.4 1.2-1.4 2.3-2.8 3.5-4.2.1-.1.2-.2.3-.4.2-.3.4-.5.6-.8 1.3-1.7 2.6-3.3 3.9-5 .5-.7 1.1-1.4 1.7-2.2 2.7-3.6 5.4-7.3 8.1-11.1.3-.4.5-.8.8-1.2 1.3-1.9 2.7-3.8 4-5.8.1-.1.1-.2.2-.3.9-1.3 1.7-2.6 2.6-3.8.5-.7.9-1.4 1.4-2.1 1.2-1.9 2.5-3.8 3.7-5.8.6-1 1.2-2 1.9-3 .2-.2.3-.5.5-.7.1-.2.2-.4.4-.6 2-3.2 3.9-6.4 5.8-9.6.4-.6.7-1.2 1.1-1.9.4-.6.7-1.2 1.1-1.9.5-.9 1-1.7 1.5-2.6 1-1.8 2-3.5 3-5.3l1.5-2.7c.7-1.3 1.5-2.6 2.2-4 .3-.5.5-1 .8-1.5.4-.8.9-1.6 1.3-2.4.6-1.1 1.1-2.1 1.7-3.2.5-1 1-1.9 1.5-2.9l.6-1.1c.5-.9 1-1.8 1.4-2.8.4-.8.8-1.5 1.1-2.2.3-.5.5-1.1.8-1.6.3-.6.6-1.3.9-1.9 1.2-2.4 2.4-4.8 3.5-7.2.5-1 .9-1.9 1.4-2.9 1.1-2.3 2.2-4.6 3.3-7 .3-.7.6-1.3.9-2 .1-.3.3-.6.4-.9.5-1 .9-2 1.3-2.9.6-1.4 1.3-2.8 1.9-4.2.2-.3.3-.7.5-1.1.6-1.3 1.2-2.6 1.8-4 .2-.3.3-.7.5-1.1.2-.5.4-1 .7-1.5l1.5-3.6 1.5-3.6 1.2-3c.1-.2.2-.5.3-.7.5-1.2 1-2.5 1.5-3.7.3-.7.6-1.5.9-2.2.1-.3.2-.6.4-.9.2-.6.5-1.2.7-1.7.5-1.1.9-2.3 1.4-3.5.2-.4.3-.7.4-1.1.5-1.4 1.1-2.8 1.6-4.2.8-2.2 1.7-4.4 2.5-6.6.7-1.9 1.5-3.9 2.2-5.8.2-.7.5-1.3.7-2 .1-.3.2-.5.3-.8l.9-2.4c.3-.8.6-1.6.8-2.4.1-.2.2-.4.2-.6.3-.9.6-1.7.9-2.6.4-1.2.9-2.4 1.3-3.6.4-1.1.8-2.3 1.2-3.4.4-1.1.8-2.3 1.2-3.4.7-2.1 1.5-4.3 2.2-6.4.8-2.5 1.7-5 2.5-7.5.8-2.3 1.5-4.7 2.3-7.1.7-2 1.3-4.1 2-6.1.1-.2.2-.5.2-.7 0-.2.1-.3.1-.4 0-.1 0-.2.1-.3.7-2.2 1.4-4.5 2.1-6.7.4-1.2.7-2.4 1.1-3.6.4-1.2.7-2.4 1.1-3.6.5-1.8 1.1-3.7 1.6-5.5.3-1.2.7-2.4 1-3.6.5-1.8 1-3.7 1.6-5.5l.3-.9c.6-2.2 1.2-4.3 1.8-6.5.7-2.5 1.4-5 2-7.5.4-1.6.9-3.2 1.3-4.8.1-.4.2-.9.3-1.3 0-.2.1-.4.2-.7v-.1c.1-.2.1-.5.2-.7l1.5-5.7.3-1.2c.1-.2.1-.4.2-.7.1-.2.1-.4.2-.6.1-.4.2-.7.3-1.1l1.5-6c.3-1.3.6-2.6 1-3.9l1.2-4.8c.4-1.6.8-3.3 1.2-4.9.2-1 .5-2 .7-3.1.4-1.7.8-3.4 1.2-5l.4-1.7c.6-2.6 1.2-5.3 1.8-7.9.7-3.3 1.4-6.7 2.2-10 .3-1.3.5-2.5.8-3.8 0-.2.1-.5.2-.7.1-.3.1-.5.2-.8.2-.7.3-1.4.4-2.1.5-2.2.9-4.4 1.4-6.7.3-1.3.6-2.7.8-4.1.1-.2.1-.4.1-.7.2-.8.3-1.7.5-2.5.1-.3.1-.6.2-.9l.3-1.8c.4-2.1.8-4.3 1.2-6.4.3-1.6.6-3.1.9-4.7l1.5-8.4c.5-2.5.9-5.1 1.3-7.6.1-.2.1-.5.1-.7.1-.4.2-.9.2-1.3.2-1.4.5-2.8.7-4.3.4-2.2.8-4.4 1.1-6.6.4-2.2.7-4.5 1.1-6.7l.9-5.7c.3-2.1.7-4.3 1-6.4.3-2 .6-4.1.9-6.1v-.3c.2-1.2.3-2.3.5-3.5.2-1.1.3-2.2.5-3.3.2-1.4.4-2.7.6-4.1.1-.9.3-1.9.4-2.8.2-1.7.5-3.4.7-5.1.3-2.4.7-4.8 1-7.2.2-1.4.4-2.9.6-4.4.2-1.5.4-2.9.5-4.4.4-3.3.8-6.5 1.2-9.8l.2-1.7c.2-2 .5-4 .7-6.1.2-2 .5-4 .7-6.1v-.5c0-.3.1-.6.1-.8 0-.2 0-.4.1-.7.2-1.7.4-3.5.6-5.2.2-2.2.5-4.5.7-6.7.4-4.3.9-8.7 1.3-13V1121.5c0-.2 0-.4.1-.7.2-2 .4-4 .5-6 0-.2 0-.4.1-.6.2-2 .3-3.9.5-5.9l.6-7.5c.2-2.2.3-4.5.5-6.7.1-.8.1-1.6.2-2.4.2-3 .4-6 .7-9 .1-.8.1-1.7.2-2.5v-.1c.1-.8.1-1.5.2-2.3.1-.9.1-1.9.2-2.8 0-.6.1-1.2.1-1.7 0-.4 0-.8.1-1.2.1-1.9.2-3.8.3-5.8.1-2.3.3-4.6.4-6.9l.3-5.7c.1-1.2.1-2.5.2-3.7.1-1.4.1-2.9.2-4.4l.3-5.7v-.1c0-.9.1-1.8.1-2.7 0-.8.1-1.7.1-2.5 0-.4 0-.8.1-1.2l.3-6.6v-.2c.1-3.1.2-6.3.3-9.4.1-3.1.2-6.3.3-9.5.1-2.1.1-4.2.1-6.3.1-1.8.1-3.7.1-5.5.1-5 .2-10 .2-15V960c.1-3.2.1-6.4.1-9.6zM740.6 960l-28.1 42.7s40.9 126.1 28.1 175.2c-5.7 21.8-24.9 73.5-46.8 123-27.5 61.8-59.4 120.1-74.8 111.8-11.8-6.3-26.3-31.6-37.6-62.8-.5-1.4-1-2.7-1.5-4.1-.2-.7-.5-1.4-.7-2.1-.2-.7-.5-1.4-.7-2.1-3.3-9.8-6.2-20-8.6-30.3 0 0-98 48-147.4-88.6-44.7-123.5 40.8-220 57.6-237.4.1-.1.2-.2.4-.3.3-.4.6-.7.9-.9.2-.2.4-.3.5-.5l.2-.2.2-.2.2-.2c.1 0 .1-.1.1-.1.1-.1.2-.1.2-.2s.1-.1.1-.1c-4-26-6.4-53-6.5-80.7L429.1 673l133.8-147.1 24 90.8S615 524.6 693 605.3c78.1 80.4 47.6 354.7 47.6 354.7z" id="Layer_4"/>
    <path class="st0" d="M693 605.1c-78-80.6-106.1 11.4-106.1 11.4L740.6 960s30.5-274.3-47.6-354.9z" id="Layer_5"/>
    <path class="st0" d="M712.5 1002.7l-.1.1-78.9 120-65.8 99.9c0 .1-.1.3-.1.4-7.7 22.7-5.2 55.8 2.3 88.2 2.4 10.3 5.3 20.5 8.6 30.3.2.7.5 1.4.7 2.1.2.7.5 1.4.7 2.1.5 1.4 1 2.7 1.5 4.1 11.3 31.2 25.8 56.4 37.6 62.8 15.4 8.3 47.3-50 74.8-111.8 22-49.4 41.2-101.2 46.8-123 12.8-49.1-28.1-175.2-28.1-175.2z" id="Layer_6"/>
    <path class="st0" d="M567.6 1223.1v-.7c-3.3-5.5-64.3-108.1-84.6-239.9 0 0-.1 0-.1.1l-.2.2c0 .1-.1.1-.1.1l-.2.2-.2.2-.2.2c-.1.2-.3.3-.5.5l-.9.9c-.1.1-.2.2-.4.3-16.8 17.4-102.3 113.9-57.6 237.4 49.4 136.6 147.4 88.6 147.4 88.6-7.6-32.2-10.1-65.4-2.4-88.1z" id="Layer_7"/>
    <path class="st0" d="M562.9 525.8L429.1 672.9l47.3 228.9c-.3-94.7 26.5-196.7 110.5-285.3l-24-90.7z" id="Layer_8"/>
    <path class="st0" d="M586.9 616.5C502.9 705 476 807 476.4 901.8c.1 27.7 2.5 54.8 6.5 80.7 20.3 131.9 81.3 234.4 84.6 239.9l.1.2 65.8-99.9 78.9-120c0-.1.1-.1.1-.1l28.1-42.7-153.6-343.4z" id="Layer_9"/>
    <g id="STROKES">
        <path class="st1" d="M1578.3 960c0 386.6-123.3 704.3-280.9 739.8-9.7 2.2-19.5 3.3-29.4 3.3H601.8c171.4 0 310.3-332.7 310.3-743.1S773.2 217 601.8 217H1268c9.9 0 19.7 1.1 29.4 3.3 157.6 35.4 280.9 353.1 280.9 739.7z"/>
        <path class="st1" d="M601.8 217c-171.4 0-310.3 332.7-310.3 743s138.9 743.1 310.3 743.1S912.1 1370.4 912.1 960 773.2 217 601.8 217zm138.8 960.9c-5.7 21.8-24.9 73.5-46.8 123-27.5 61.8-59.4 120.1-74.8 111.8-27.8-14.9-70.4-134.5-51.2-190 0 0-63.9-104.6-84.8-240.2-4-26-6.4-53-6.5-80.7l-47.3-228.9L563 525.8l24 90.8s28.1-92.1 106.1-11.4c78 80.6 47.6 354.9 47.6 354.9l-28.1 42.7c-.1-.1 40.8 126 28 175.1z"/>
        <path class="st1" d="M1297.5 217v3.3c-9.7-2.2-19.5-3.3-29.4-3.3h29.4z"/>
        <path class="st1" d="M1268 1703.1c9.9 0 19.7-1.1 29.4-3.3v3.3H1268z"/>
        <path class="st1" d="M740.6 1177.9c-5.7 21.8-24.9 73.5-46.8 123l-60.3-178.1 78.9-120c0-.1.1-.1.1-.1s40.9 126.1 28.1 175.2z"/>
        <path class="st1" d="M693.8 1300.9c-27.5 61.8-59.4 120.1-74.8 111.8-27.8-14.9-70.4-134.5-51.2-190l65.8-99.9 60.2 178.1z"/>
        <path class="st1" d="M740.6 960l-28.1 42.7s0 .1-.1.1l-78.9 120-65.8 99.9s-63.9-104.6-84.8-240.2c-4-26-6.4-53-6.5-80.7-.3-94.7 26.5-196.7 110.5-285.3L740.6 960z"/>
        <path class="st1" d="M569.9 1311.3s-98 48-147.4-88.6 60.4-240.2 60.4-240.2"/>
        <path class="st1" d="M740.6 960L586.9 616.5S615 524.4 693 605.1c78.1 80.6 47.6 354.9 47.6 354.9z"/>
        <path class="st1" d="M586.9 616.5C502.9 705 476 807 476.4 901.8l-47.3-228.9 133.8-147.1 24 90.7z"/>
    </g>
</svg>
