<svg xmlns="http://www.w3.org/2000/svg" viewBox="0 0 1920 1920">
    <style>
        .st0{fill:#fff}.st1{fill:none;stroke:#231f20;stroke-width:50;stroke-linecap:round;stroke-linejoin:round;stroke-miterlimit:10}
    </style>
    <path class="st0" d="M439.4 1052.3c-57.1 19.5-116.9-2.7-160.7-44.4-.4 5.3-.6 10.6-.6 16 0 62.3 25.3 118.7 66.1 159.6 40.8 40.8 97.2 66.1 159.6 66.1h510.4c124.3 0 225.1-100.5 225.6-224.7-175.3-33.1-508.1-72.4-800.4 27.4z" id="Layer_13"/>
    <path class="st0" d="M1602.6 1110.9c1.4 0 100.4-71 100.4-71l-304-40.2c-185.6-280.8-630.3-308.1-925.8-279.9-64.1 6.1-114 15.2-152.7 25.6-63.3 17-103.5 74.2-103.5 135.3 0 18.8 3.8 37.9 11.9 56.4 1.1 2.6 2.3 5.1 3.5 7.6 11.5 23.5 27.4 45.2 46.3 63.2 43.8 41.7 103.5 63.9 160.7 44.4 292.3-99.8 625.1-60.5 800.4-27.4 40.3 7.6 132.7 10.1 132.7 10.1 222.2 123.2 224.4 243.2 224.4 243.2 60.3-78.8 7.6-166.1 5.7-167.3z" id="Layer_14"/>
    <g id="STROKES">
        <path class="st1" d="M1703.1 1039.9s-99.4 71.2-100.4 71c1.6.9 54.6 88.4-5.8 167.4 0 0-2.2-120-224.4-243.2 0 0-92.5-2.5-132.7-10.1-175.3-33.1-508.1-72.4-800.4 27.4-57.1 19.5-116.9-2.7-160.7-44.4-18.9-18-34.9-39.7-46.3-63.2-1.2-2.5-2.4-5.1-3.5-7.6-8.1-18.5-11.9-37.6-11.9-56.4 0-61.1 40.3-118.3 103.6-135.3 38.7-10.4 88.6-19.5 152.7-25.6 295.5-28.1 740.2-.9 925.8 279.9l304 40.1z"/>
        <path class="st1" d="M452.2 824.9l43.8 89.6"/>
        <path class="st1" d="M650.2 801.5L694 891"/>
        <path class="st1" d="M855.8 819.1l28.5 58.3"/>
        <path class="st1" d="M1239.8 1024.9c-.5 124.2-101.3 224.7-225.6 224.7H503.8c-62.3 0-118.7-25.3-159.5-66.1s-66.1-97.2-66.1-159.6c0-5.4.2-10.7.6-16.1 43.8 41.7 103.5 63.9 160.7 44.4 292.2-99.7 625-60.4 800.3-27.3z"/>
        <path class="st1" d="M1602.6 1110.9l-30.2-20.6"/>
    </g>
</svg>
