<svg xmlns="http://www.w3.org/2000/svg" viewBox="0 0 1920 1920">
    <style>
        .st0{fill:#fff}.st1{fill:none;stroke:#231f20;stroke-width:50;stroke-linecap:round;stroke-linejoin:round;stroke-miterlimit:10}
    </style>
    <path class="st0" d="M216.9 1247.4s135.1-34 141.3-109.1c.1 0 33.1 3.1 87.5 4.3 94.9 2.1 254.9-1.5 419.1-37.4V611.4C795.3 624 723.5 644.7 651 676.3c-403.3 176.1-434.1 571.1-434.1 571.1zm1279.7-546.5c-38.1-26.1-218.9-105.3-453.4-105.3v456.2c78.9-31.2 153.4-72.7 215.9-127.8 0 0 87.6-53.2 243.2-1.8 43.4 14.3 92.2 36.8 145.8 70.9 0 0 32.8 28.7 53.2-27.3 20.5-56-147.3-225.6-204.7-264.9z" id="Layer_10"/>
    <path class="st0" d="M1502.3 922.2c-155.6-51.3-243.2 1.8-243.2 1.8-62.6 55.1-137 96.6-215.9 127.8V1328h190.7s302.8-4.4 302.8-250.2c0-63.3-13.9-114.4-34.4-155.6zM445.7 1142.7c-3 78.1 18.1 185.4 156.2 185.4h263v-222.8c-164.3 35.9-324.3 39.5-419.2 37.4z" id="Layer_11"/>
    <path class="st0" d="M864.8 611.4V1328h178.3V595.7c-56.7 0-116.5 4.6-178.3 15.7z" id="Layer_12"/>
    <g id="STROKES">
        <path class="st1" d="M358.2 1138.4l-10.9-75.8"/>
        <path class="st1" d="M476 796.7l86.7 131.9"/>
        <path class="st1" d="M580.8 716.2L678 870.3"/>
        <path class="st1" d="M651 676.4c72.5-31.6 144.3-52.4 213.8-64.9v493.8c-164.2 35.9-324.2 39.5-419.1 37.4-54.5-1.2-87.5-4.3-87.5-4.3-6.1 75-141.3 109.1-141.3 109.1S247.7 852.4 651 676.4z"/>
        <path class="st1" d="M1701.3 965.8c-20.5 56.1-53.2 27.4-53.2 27.4-53.6-34.1-102.4-56.6-145.8-70.9-155.6-51.3-243.2 1.8-243.2 1.8-62.6 55.1-137 96.6-215.9 127.8V595.7c234.6 0 415.3 79.2 453.4 105.3 57.4 39.2 225.2 208.8 204.7 264.8z"/>
        <path class="st1" d="M864.8 1105.3V1328h-263c-138.1 0-159.2-107.2-156.2-185.4 95 2.2 255-1.4 419.2-37.3z"/>
        <path class="st1" d="M1536.7 1077.9c0 245.8-302.8 250.2-302.8 250.2h-190.7v-276.2c78.9-31.2 153.4-72.7 215.9-127.8 0 0 87.6-53.2 243.2-1.8 20.5 41.1 34.4 92.3 34.4 155.6z"/>
        <path class="st1" d="M1043.1 595.7V1328H864.8V611.4c61.8-11.1 121.6-15.7 178.3-15.7z"/>
    </g>
</svg>
