<svg xmlns="http://www.w3.org/2000/svg" viewBox="0 0 1920 1920">
    <style>
        .st0{fill:#fff}.st1{fill:none;stroke:#231f20;stroke-width:50;stroke-linecap:round;stroke-linejoin:round;stroke-miterlimit:10}
    </style>
    <path class="st0" d="M1159.8 405.9c-.9 1.9-113.3 247.3 12.2 303.1 150 30 290 98 288 220s-81 308-282 418c0 0-66 39-73 97l-33.8 3.4-15.2 1.6s-3.8-6.7-8.9-15.2l-1.2.7s-41.2 37.3-151.7 55.1c-60.7 9.8-142.2 13.7-249.3 2.4l-90 40h-47s-74 44-121 50-64 0-64 0l170-197-19-45s202.7-463.2 600.7-509.2C976.8 779.6 993 679.7 993 571.6c0-123 64.5-277.5 112.5-312s154.5-12 187.5 27c21.4 25.3 23.9 58.3 23 78.2 0 0-71 11.1-59 50.8 1 3.1 4.2 7.5 8.9 12.6-52.1 11.4-86.6-6.1-106.1-22.3z" id="Layer_4"/>
    <path class="st0" d="M1057 1631l35 84-191.8-80 156.8-4zm53 4l-38.8-187.6L1082 1651l133 64 128-70-233-10z" id="Layer_5"/>
    <path class="st0" d="M1314.1 382.6l61.5 132s-81.7-56.5-109.6-86.4c-4.8-5.1-8-9.4-8.9-12.6-12.1-39.6 59-50.8 59-50.8-.6 10.8-2 17.8-2 17.8z" id="Layer_6"/>
    <g id="STROKES">
        <path class="st1" d="M1316 364.9s-71 11.1-59 50.8c1 3.1 4.2 7.5 8.9 12.6 27.9 29.9 109.6 86.4 109.6 86.4l-61.5-132c.1-.1 1.5-7.1 2-17.8.9-20-1.5-52.9-23-78.2-33-39-139.5-61.5-187.5-27S993 448.7 993 571.7c0 108.1-16.2 208 81.6 259.2 13.5 7.1 29.2 13.2 47.4 18.3 150 42 196.5 76.5 211.5 99"/>
        <path class="st1" d="M1159.8 405.9c19.5 16.2 54 33.7 106.2 22.3"/>
        <path class="st1" d="M1140.1 384.1s6.3 10.6 19.8 21.8"/>
        <path class="st1" d="M1159.8 405.9c-.9 1.9-113.3 247.3 12.2 303.1 150 30 290 98 288 220s-81 308-282 418c0 0-66 39-73 97l-33.8 3.4-15.2 1.6s-3.8-6.7-8.9-15.2c-6.5-10.9-15-24.7-20.1-30.8"/>
        <path class="st1" d="M1045.9 1434.5s-41.2 37.3-151.7 55.1c-60.7 9.8-142.2 13.7-249.3 2.4l-90 40h-47s-74 44-121 50-64 0-64 0l170-197-19-45s202.7-463.2 600.7-509.2"/>
        <path class="st1" d="M1000 918s-136 50-183 113-129 129-136 135-133.7 223.6-133.7 223.6 14.7 46 181.7 0 186-71.6 194-73.6 151-27 169-59"/>
        <path class="st1" d="M1071.2 1447.4L1082 1651l133 64 128-70-233-10z"/>
        <path class="st1" d="M900.2 1635l191.8 80-35-84z"/>
        <path class="st1" d="M900.2 1635l-5.9-145.4"/>
    </g>
</svg>
