<svg xmlns="http://www.w3.org/2000/svg" viewBox="0 0 1920 1920">
    <style>
        .st0{fill:#fff}.st1{fill:none;stroke:#231f20;stroke-width:50;stroke-linecap:round;stroke-linejoin:round;stroke-miterlimit:10}
    </style>
    <path class="st0" d="M648.4 626.5c-4.6-29.2 60.3-85.2 60.3-85.2l103.8 78.5 1.7-.7c22.3 41 48 79.7 70.3 92.1 0 0 22.5 37.5 7.5 69s3 132 3 132 12-6 150 69c0 0 42 31.5 210 27s223.5-12 223.5-12 75-31.5 121.5-21 51 33.4 51 33.4l94.9 44.7H1612s-487.5 23.9-517.5 23.9-134.2-16.5-154.1-15c-19.9 1.5-94.9 79.5-228.4 112.5s-196.5 34.5-250.5 25.5-238.5 43.4-238.5 43.4l97.5-115.5 85.5-4.5 90-60 52.5-24-55.5-19.5L437.5 912s-15-29.9-67.5-211.4-18-301.5-18-301.5l202.8 151.5c26.1 25.3 53.2 45.5 78.8 54 5 7.6 9.9 14.9 14.8 21.9z" id="Layer_7"/>
    <g id="STROKES">
        <path class="st1" d="M875.5 960S740.5 801.1 724 720.1c0 0-36.5-37.6-75.6-93.6-4.9-7-9.8-14.3-14.7-21.9-44.8-68.8-87.5-158.4-77.7-240"/>
        <path class="st1" d="M479.5 352.6s43.5 168 105 198"/>
        <path class="st1" d="M554.8 550.6c26.1 25.3 53.2 45.5 78.8 54"/>
        <path class="st1" d="M413.5 364.6s66.5 113.7 141.3 186"/>
        <path class="st1" d="M554.8 550.6L352 399.1s-34.5 120 18 301.5S437.5 912 437.5 912l55.5 108.1 55.5 19.5-52.5 24-90 60-85.5 4.5-97.5 115.5s184.5-52.5 238.5-43.5 117 7.5 250.5-25.5 208.5-111 228.4-112.5c19.9-1.5 124.1 15 154.1 15s517.5-23.9 517.5-23.9h133.9l-94.9-44.7s-4.5-22.9-51-33.4-121.5 21-121.5 21-55.5 7.5-223.5 12-210-27-210-27c-138-75-150-69-150-69s-18-100.5-3-132-7.5-69-7.5-69 0-201-9-231"/>
        <path class="st1" d="M812.5 480.1s39.6 121.4 63 150"/>
        <path class="st1" d="M757.5 498.1s25.1 62.8 56.7 120.9c22.3 41 48 79.7 70.3 92.1"/>
        <path class="st1" d="M812.5 619.7l-103.8-78.5s-65 56.1-60.3 85.2"/>
    </g>
</svg>
