<svg xmlns="http://www.w3.org/2000/svg" viewBox="0 0 1920 1920">
    <style>
        .st0{fill:#fff}.st1{fill:none;stroke:#231f20;stroke-width:50;stroke-linecap:round;stroke-linejoin:round;stroke-miterlimit:10}
    </style>
    <path class="st0" d="M1326.9 1053.4c-4.1-16.2-7.3-32.9-9.3-49.9-12-103.5-61.5-295.5-60-355.5s9-289.5 154.5-282 172.5 82.5 186 111c3.4 7.2 6.9 13.5 10.2 19.1 0 0-66 29-74.7 85.9 0 0-75-6-109.5-22.5 0 0-22.5 0-27 30s-15 154.5 33 262.5 97.5 238.5 133.5 283.5 87 135 31.5 165c0 0-243.6 189-725.1 109.5s-435.9-222-435.9-222-73.5-129-115.5-166.5-105.2-151.5-103.5-249c0 0 198 159 261 141 0 0 177-87.7 399-74.6 177.3 10.6 327.3 112.5 451.8 214.5z" id="Layer_2"/>
    <path class="st0" d="M1685.2 649.6s7.5 18 0 28.5-151.5-96-151.5-96c8.7-56.9 74.7-85.9 74.7-85.9 9.6 16.6 17.2 27.8 13.8 42.4-4.5 19.5 12 55.5 63 111z" id="Layer_3"/>
    <g id="STROKES">
        <path class="st1" d="M1389.7 1204.6s-42-68.2-62.7-151.1c-4.1-16.2-7.3-32.9-9.3-49.9-12-103.5-61.5-295.5-60-355.5s9-289.5 154.5-282 172.5 82.5 186 111c3.4 7.2 6.9 13.5 10.2 19.1 9.6 16.6 17.2 27.8 13.8 42.4-4.5 19.5 12 55.5 63 111 0 0 7.5 18 0 28.5s-151.5-96-151.5-96-75-6-109.5-22.5c0 0-22.5 0-27 30s-15 154.5 33 262.5 97.5 238.5 133.5 283.5 87 135 31.5 165c0 0-243.6 189-725.1 109.5s-435.9-222-435.9-222-73.5-129-115.5-166.5-105.2-151.5-103.5-249c0 0 198 159 261 141 0 0 177-87.7 399-74.6 177.2 10.5 327.2 112.4 451.7 214.4"/>
        <path class="st1" d="M1608.4 496.2s-66 29-74.7 85.9"/>
    </g>
</svg>
