<svg xmlns="http://www.w3.org/2000/svg" viewBox="0 0 1920 1920">
    <style>
        .st0{fill:#fff}.st1{fill:none;stroke:#231f20;stroke-width:50;stroke-linecap:round;stroke-linejoin:round;stroke-miterlimit:10}
    </style>
    <g id="Layer_9">
        <path class="st0" d="M1360 1053.8s13.5 221.2 9 287.2-12 268.5-19.5 280.5c0 0-286.5-70.5-333-70.5 0 0 16.8-36.3 17.8-49.4 3.2-38.8-19.3-105.8-8.8-155.3 10.5-49.5-22.5-151.2-9-188.7s-19.5-135.4-9-182.3c8.7-38.8-8.8-136-11.6-190.3 36-28.5 117.8-230.5 131.3-272.5 13.5-42 11.9-180 11.9-180 57.6 16.4 169.9 50 195.4 81.6 31.5 39 129 222 172.5 330s174 483 189 585 19.5 162.2 19.5 162.2l-162 22.2-27-100.5c0 .1-70.5-238.4-166.5-359.2zm-97.9 428.3v-216.6c-71.4 48.4-169.4 0-169.4 0l6 205.7 163.4 10.9z"/>
        <path class="st0" d="M922 1553.7l-360.3 34.9s3.3-111 .3-137.1 6-221.4 0-252.9c-5.9-31.2-11.3-161.5-11.5-164.3-.2 7.1-.3 11.7-.5 12.8-1.5 7.5-157.5 316.8-157.5 316.8S346 1486.6 346 1491.1s-142.5-52.5-142.5-52.5l28.5-159.8C388 603 514 522.2 533.5 487.7s72-76.5 102-90c16.7-7.5 65.9-22.4 110.4-35.5 0 0 42.1 187 63.1 223s78.9 173.2 80.4 198.8c1.5 25.3 32.4 766.4 32.6 769.7zm-69-81.3l-8.5-231.1c-121 71.4-175.5 9.7-175.5 9.7v231.1l184-9.7z"/>
    </g>
    <path class="st0" d="M1259.5 1265.5v216.6l-163.4-10.9-6-205.7s98 48.4 169.4 0zm-593-14.6V1482l183.9-9.7-8.5-231.1c-120.9 71.5-175.4 9.7-175.4 9.7z" id="Layer_10"/>
    <path class="st0" d="M1049.5 294.1s22.5 129 12 168c-10.4 38.8-97.6 212-98.5 213.8-15.6-23.9-31.7-45.3-36.5-56.3-10.5-24-90.4-203-82.9-293 30.8-24.1 88.7-69.7 205.9-32.5zm-33 1257H949l-27 2.6-360.3 34.9s84.5 56.1 437.9 74.3c353.4 18.2 349.8-41.3 349.8-41.3s-286.4-70.5-332.9-70.5z" id="Layer_11"/>
    <path class="st0" d="M1139 332.5s1.6 138-11.9 180-95.3 244-131.3 272.5c-.6-11.3-.6-20.7.5-27.4 3.3-21.2-14.6-53.2-33.3-81.8.9-1.7 88-175 98.5-213.8 10.5-39-12-168-12-168s30 21 60 30c5.7 1.8 16.1 4.7 29.5 8.5zm-122.5 825.2c13.5-37.5-19.5-135.4-9-182.3 8.7-38.8-8.8-136-11.6-190.3-.6-11.3-.6-20.7.5-27.4 3.3-21.2-14.6-53.2-33.3-81.8-15.6-23.9-31.7-45.3-36.5-56.3-10.5-24-90.4-203-82.9-293-8 6.2-14.1 11-19.1 12.5-10.6 3.3-43.1 12.6-78.6 23 0 0 42.1 187 63.1 223s78.9 173.2 80.4 198.8c1.5 25.4 32.5 766.6 32.6 769.8l27-2.6h67.5s16.8-36.3 17.8-49.4c3.2-38.8-19.3-105.8-8.8-155.3 10.4-49.6-22.6-151.2-9.1-188.7z" id="Layer_12"/>
    <g id="STROKES">
        <g id="XMLID_2_">
            <path class="st1" d="M550.5 1034.3c-.2 7.1-.3 11.7-.5 12.8-1.5 7.5-157.5 316.8-157.5 316.8S346 1486.6 346 1491.1s-142.5-52.5-142.5-52.5l28.5-159.8C388 603 514 522.2 533.5 487.7s72-76.5 102-90c16.7-7.5 65.9-22.4 110.4-35.5 35.5-10.4 68-19.7 78.6-23 4.9-1.5 11.1-6.3 19.1-12.5 30.9-24.1 88.7-69.7 205.9-32.5"/>
            <path class="st1" d="M557.5 747.4s-6 70.2-6 88.2c0 15.5 0 154.9-1 198.7"/>
            <path class="st1" d="M1358.5 905.2s-3 60.9 1.5 148.6c96 120.7 166.5 359.2 166.5 359.2l27 100.5 162-22.2s-4.5-60.2-19.5-162.2c-15-102-145.5-477-189-585s-141-291-172.5-330c-25.5-31.6-137.9-65.2-195.4-81.6-13.4-3.8-23.9-6.7-29.6-8.4-30-9-60-30-60-30s22.5 129 12 168c-10.4 38.8-97.6 212-98.5 213.8"/>
            <path class="st1" d="M922 1553.7l27-2.6h67.5s16.8-36.3 17.8-49.4c3.2-38.8-19.3-105.8-8.8-155.3 10.5-49.5-22.5-151.2-9-188.7s-19.5-135.4-9-182.3c8.7-38.8-8.8-136-11.6-190.3-.6-11.3-.6-20.7.5-27.4 3.3-21.2-14.6-53.2-33.3-81.8-15.6-23.9-31.7-45.3-36.5-56.3-10.5-24-90.4-203-82.9-293"/>
            <path class="st1" d="M550.5 1034.3c.1 2.8 5.5 133.2 11.5 164.3 6 31.5-3 226.9 0 252.9s-.3 137.1-.3 137.1l360.3-34.9"/>
            <path class="st1" d="M1360 1053.8s13.5 221.2 9 287.2-12 268.5-19.5 280.5c0 0-286.5-70.5-333-70.5"/>
            <path class="st1" d="M745.9 362.1s42.1 187 63.1 223 78.9 173.2 80.4 198.8c1.5 25.4 32.5 766.6 32.6 769.8"/>
            <path class="st1" d="M1139 332.5s1.6 138-11.9 180-95.3 244-131.3 272.5"/>
            <path class="st1" d="M1262.1 1265.5c-71.4 48.4-169.4 0-169.4 0l6 205.7 163.4 10.9v-216.6z"/>
            <path class="st1" d="M844.6 1241.3c-121 71.4-175.5 9.7-175.5 9.7v231.1l183.9-9.7-8.4-231.1z"/>
            <path class="st1" d="M561.7 1588.6s84.5 56.1 437.9 74.3c353.4 18.2 349.8-41.3 349.8-41.3"/>
        </g>
    </g>
</svg>
