<svg xmlns="http://www.w3.org/2000/svg" viewBox="0 0 1920 1920">
    <style>
        .st0{fill:#fff}.st1{fill:none;stroke:#231f20;stroke-width:50;stroke-linecap:round;stroke-linejoin:round;stroke-miterlimit:10}
    </style>
    <path class="st0" d="M1617.1 1674.1c1.5 24 4.5 36 4.5 36l-181.5 15-33-129s-27.9-65-43.1-130.4l270.3-27c.6 25.5.9 51.5.9 77.9-.1 0-19.6 133.5-18.1 157.5zm-592.4-500.4l331.5 25.6h2v25.8l259.8-26.5c-13.3-118.1-33.2-222.6-55.6-312.8-28.9-116.4-62-209.1-90.5-277l-135.2 84.3-33-18c-33-18-252.8 23.3-252.8 23.3-5.4 69.4-12 162.9-17.4 264.3-3.8 68.4-7 140.3-8.8 211zm322.4 234.4l-324.6-12.5c1.1 164.6 8.1 267.2 8.1 267.2v1.8c27.6.6 54.6 1.2 70.8 1.7 43.7 1.3 247.3 15.2 245.8 7.7-1.6-7.4-.1-265.9-.1-265.9zm-473-12.5l-326.9 38.3c3 59.6 8.8 168.8 10.9 178.6 3 13.5 0 52.5 0 52.5s187.8 1.7 298.6 1.2c11.5-71.5 17-166.5 18.7-270.7l-1.3.1zm-577.5-232.7s251.8 18 283.6 13.4c-.6 7.6-1.1 14.9-1.6 21.9l295.5-21.4c-1.9-80.8-5.2-161.3-8.9-236-.4-7.4-.7-14.8-1.1-22.1-4.4-85-9.3-161.6-13.5-220.9-4.2-.8-174.3-31.8-201-37.7-27-6-63 10.5-75.3-6.8-12.3-17.2-139.8-73.4-139.8-73.4-59.2 121.7-120.9 321.5-137.9 583zm18.5 472.2l6 49.5h163.5l9-65.1s24.2-104.2 45.8-198.4l-245.6-25.7c3 76.1 9.8 156.1 21.3 239.7z" id="Layer_5"/>
    <g id="Layer_6">
        <path class="st0" d="M1618 1198.6c5.1 45.5 9.3 93 12.2 142.5 1.9 31.7 3.2 64.2 4.1 97.6l-270.3 27c-6-25.7-10.1-51.5-9.8-73.4 0-3.1.2-6.2.4-9.2 2.1-26.5 3.5-87.1 3.6-158l259.8-26.5z"/>
        <path class="st0" d="M1024.7 1173.7l331.5 25.6h2v25.8c-.2 71-1.5 131.5-3.6 158-.2 3-.4 6-.4 9.2l-7.1 15.8-324.6-12.5c-.4-64.5 0-138.5 2.1-219.5 0-.8 0-1.6.1-2.4z"/>
        <path class="st0" d="M545.3 1395.6c-1.9 8.3-3.9 16.8-5.8 25.4l-245.6-25.7c-1.9-48.1-2.2-94.7-1.2-139.6.7-31.7 2.1-62.6 4-92.7 0 0 251.8 18 283.6 13.4-.6 7.6-1.1 14.9-1.6 21.9-3.2 42.3-5.4 72.5-5.4 73.8-.2 1.8-12.8 57.3-28 123.5z"/>
        <path class="st0" d="M874.1 1176.8c1.8 74.2 2.4 148.6 1.3 218.8h-1.3l-326.9 38.3c-1.1-22.3-1.9-37.6-1.9-38.3 15.2-66.2 27.8-121.8 27.8-123.6 0-1.3 2.2-31.5 5.4-73.8l295.6-21.4z"/>
        <path class="st0" d="M705.5 376.7c10.2 39.5 45.2 146.4 135.5 195.9.1.8 4.2 48.7 9.5 125.2-4.2-.8-174.3-31.8-201-37.7-27-6-63 10.5-75.3-6.8-12.3-17.2-139.8-73.4-139.8-73.4 24.7-50.7 49-87.9 69.5-110.3 23-24.9 199.9-92.2 201.6-92.9z"/>
        <path class="st0" d="M1050.7 698.4c5.7-73.9 10-120.5 10-120.5 98-46.8 135.3-160.3 145.9-201.2 1.8.8 185.5 79.5 197.5 95.9 4.1 5.6 32.3 51.7 67.7 136.2l-135.2 84.3-33-18c-33-18-252.9 23.3-252.9 23.3z"/>
    </g>
    <path class="st0" d="M1030.5 1664.7c-46.8-1-95.2-1.8-95.2-1.8 36.4-42.8 7-691.8 14.3-771.8l-.8-.1 43.7-293.9c25.5-2.8 48.1-9.6 68.2-19.2 0 0-4.3 46.6-10 120.5-5.4 69.4-12 162.9-17.4 264.3-3.7 68.3-6.8 140.3-8.7 211 0 .8 0 1.6-.1 2.4-2.1 81.1-2.6 155.1-2.1 219.5 1.1 164.6 8.1 267.2 8.1 267.2v1.9zM850.6 697.8c4.2 59.3 9.1 135.9 13.5 220.9.4 7.3.8 14.7 1.1 22.1 3.7 74.7 7 155.3 8.9 236 1.8 74.2 2.4 148.6 1.3 218.8-1.6 104.2-7.1 199.2-18.7 270.7 36.4-.1 64.5-.5 74.9-1.2 1.3-.1 2.5-.8 3.7-2.2 36.4-42.8 7-691.8 14.3-771.8l-.8-.1-2.2 15.1-27-309c-30-3.3-56-12.1-78.6-24.5.1.9 4.2 48.8 9.6 125.2zM1060.8 578c98-46.8 135.3-160.3 145.9-201.2 2.4-9.5 3.5-15.1 3.5-15.1l-146.5-112.2c-6.9-5.3-16.8.1-16.2 8.7 2.2 31.6-2.5 77.1-9.9 124.5-16 102.7-44.8 214.5-44.8 214.5 25.2-2.9 47.9-9.7 68-19.2zM841 572.6c22.6 12.4 48.6 21.2 78.6 24.5 0 0-28.8-111.8-44.8-214.5-7.4-47.4-12.1-92.8-9.9-124.5.2-3.4-1.1-6.2-3.3-8.2-3.4-3.1-8.7-3.8-12.9-.6L702.1 361.6s1 5.6 3.5 15.1c10.1 39.5 45.2 146.4 135.4 195.9zM861.6 250c2.1 1.9 3.5 4.8 3.3 8.2-2.2 31.6 2.5 77.1 9.9 124.5h162.7c7.4-47.4 12.1-92.8 9.9-124.5-65.1-28.8-184.4-8.5-185.8-8.2z" id="Layer_7"/>
    <path class="st0" d="M874.8 382.6h162.7c-16 102.7-44.8 214.5-44.8 214.5L948.8 891l-2.2 15.1-27-309s-28.8-111.8-44.8-214.5z" id="Layer_8"/>
    <g id="STROKES">
        <g id="XMLID_1_">
            <path class="st1" d="M545.3 1395.6c15.2-66.2 27.8-121.8 27.8-123.6 0-1.3 2.2-31.5 5.4-73.8.5-7 1.1-14.3 1.6-21.9 7.9-105 19.7-258.9 19.7-258.9"/>
            <path class="st1" d="M705.6 376.7c-1.7.7-178.7 68-201.5 92.9-20.5 22.4-44.8 59.6-69.5 110.3-59.3 121.7-121 321.5-138 583-2 30.1-3.3 61-4 92.7-1 45-.7 91.5 1.2 139.6 3 76.2 9.8 156.2 21.3 239.8l6 49.5h163.5l9-65.1s24.2-104.2 45.8-198.4c2-8.6 3.9-17.1 5.8-25.4"/>
            <path class="st1" d="M861.6 250c-3.4-3.1-8.7-3.8-12.9-.6L702.1 361.6s1 5.6 3.5 15.1c10.2 39.5 45.2 146.4 135.5 195.9"/>
            <path class="st1" d="M841 572.6c22.6 12.4 48.6 21.2 78.6 24.5 0 0-28.8-111.8-44.8-214.5-7.4-47.4-12.1-92.8-9.9-124.5.2-3.4-1.1-6.2-3.3-8.2"/>
            <path class="st1" d="M1047.3 258.2c-.6-8.7 9.3-14 16.2-8.7L1210 361.7s-1 5.6-3.5 15.1c-10.6 41-47.9 154.5-145.9 201.2-20.1 9.6-42.7 16.4-68.2 19.2 0 0 28.8-111.8 44.8-214.5 7.6-47.5 12.3-92.9 10.1-124.5z"/>
            <path class="st1" d="M1363.9 1465.6c-6-25.7-10.1-51.5-9.8-73.4 0-3.1.2-6.2.4-9.2 2.1-26.5 3.5-87.1 3.6-158v-25.8c-.2-128.9-4.1-281.5-14.2-329.2"/>
            <path class="st1" d="M1206.6 376.7c1.8.8 185.5 79.5 197.5 95.9 4.1 5.6 32.3 51.7 67.7 136.2 28.5 67.9 61.6 160.6 90.5 277 22.4 90.2 42.3 194.6 55.6 312.8 5.1 45.5 9.3 93 12.2 142.5 1.9 31.7 3.2 64.2 4.1 97.6.6 25.5.9 51.5.9 77.9 0 0-19.5 133.5-18 157.5s4.5 36 4.5 36l-181.5 15-33-129s-27.9-65-43.1-130.4"/>
            <path class="st1" d="M949.6 891.1c-7.3 79.9 22.1 729-14.3 771.8-1.2 1.4-2.4 2.1-3.7 2.2-10.4.7-38.5 1.1-74.9 1.2-110.8.4-298.6-1.2-298.6-1.2s3-39 0-52.5c-2.2-9.8-7.9-119-10.9-178.6-1.1-22.3-1.9-37.6-1.9-38.3"/>
            <path class="st1" d="M1347.1 1408.1s-1.5 258.5 0 266-202-6.3-245.8-7.7c-16.2-.5-43.2-1.1-70.8-1.7-46.8-1-95.2-1.8-95.2-1.8"/>
            <path class="st1" d="M992.6 597.1L948.8 891l-2.2 15.1-27-309"/>
            <path class="st1" d="M1037.4 382.6H874.8"/>
            <path class="st1" d="M861.6 250c1.5-.2 120.8-20.6 185.7 8.2"/>
            <path class="st1" d="M292 1255.6l.6.1 61.5 7.4v53.9l55.5 6.1"/>
            <path class="st1" d="M415.6 1255.6h61.5v67.5h68.2"/>
            <path class="st1" d="M535.1 1249.6h29"/>
            <path class="st1" d="M586.6 1270.6h34.5v57h46.5"/>
            <path class="st1" d="M687.1 1255.6h57v72l66.7-4.5"/>
            <path class="st1" d="M810.8 1249.6h45.8"/>
            <path class="st1" d="M841 572.6c.1.8 4.2 48.8 9.5 125.2 4.2 59.3 9.1 135.9 13.5 220.9.4 7.3.8 14.7 1.1 22.1 3.7 74.7 7 155.3 8.9 236 1.8 74.2 2.4 148.6 1.3 218.8-1.6 104.2-7.1 199.2-18.7 270.7v.1"/>
            <path class="st1" d="M1060.8 578s-4.3 46.6-10 120.5c-5.4 69.4-12 162.9-17.4 264.3-3.7 68.3-6.8 140.3-8.7 211 0 .8 0 1.6-.1 2.4-2.1 81.1-2.6 155.1-2.1 219.5 1.1 164.6 8.1 267.2 8.1 267.2"/>
            <path class="st1" d="M1030.6 1249.6h52.5l-7.5 73.5 71.2 4.5"/>
            <path class="st1" d="M1158.1 1249.6h52l6.5 67.4 67.5 6.1"/>
            <path class="st1" d="M1284.1 1249.6h63"/>
            <path class="st1" d="M1365.1 1363.8h39"/>
            <path class="st1" d="M1425.8 1291.6c-.8 1.5 24.8-3 24.8-3l10.5 64.5 51-7.5"/>
            <path class="st1" d="M1522.6 1278.7h43.5l12 62.4h52"/>
            <path class="st1" d="M296.6 1162.9s251.8 18 283.6 13.4"/>
            <path class="st1" d="M293.8 1395.3l245.6 25.7"/>
            <path class="st1" d="M578.5 1198.3l295.6-21.5"/>
            <path class="st1" d="M874.1 1395.6l-326.9 38.3"/>
            <path class="st1" d="M1024.7 1173.7l331.5 25.6"/>
            <path class="st1" d="M1022.5 1395.6l324.6 12.5 7.1-15.9"/>
            <path class="st1" d="M1618 1198.6l-259.8 26.4"/>
            <path class="st1" d="M1635.1 1438.6l-.9.1-270.3 26.9"/>
            <path class="st1" d="M1050.7 698.4s219.8-41.3 252.8-23.3l33 18 135.2-84.3"/>
            <path class="st1" d="M434.6 579.9s127.5 56.2 139.8 73.4c12.3 17.2 48.3.8 75.3 6.8 26.7 5.9 196.7 36.9 201 37.7h.1"/>
            <path class="st1" d="M667.6 516.1h48l8.6 49.5h81.4"/>
            <path class="st1" d="M650.1 565.6h-45.5v-56.2h-55"/>
            <path class="st1" d="M1158.1 509.4l52 6.7v56.5h54.7"/>
            <path class="st1" d="M1272.1 516.1h61.5V578l31.5 7"/>
            <path class="st1" d="M1101.3 565.6h45.5"/>
            <path class="st1" d="M393.1 688.1l50.4 19.5"/>
            <path class="st1" d="M502.5 728.1l23.7 7.5"/>
            <path class="st1" d="M587.5 748.7l24.6 3.4"/>
            <path class="st1" d="M677.5 760.4l24.6 3.4"/>
            <path class="st1" d="M767.4 772.5l24.6 3.4"/>
            <path class="st1" d="M385.9 1038.5l31.2 8.1"/>
            <path class="st1" d="M478.1 1060.2l24.4 4.8"/>
            <path class="st1" d="M564.9 1071l19.8.6"/>
            <path class="st1" d="M853 1096.3l12.4.3"/>
            <path class="st1" d="M664.4 1096l24.8.6"/>
            <path class="st1" d="M755.1 1097.8l24.8.6"/>
            <path class="st1" d="M1067.4 802l24.8.1"/>
            <path class="st1" d="M1150.8 797.6l24.8.1"/>
            <path class="st1" d="M1241.8 789.7l24.8.1"/>
            <path class="st1" d="M1376.2 781.6l23.5-8"/>
            <path class="st1" d="M1450.5 751.4l23.5-8.1"/>
            <path class="st1" d="M1090.9 1117.9l24.9.1"/>
            <path class="st1" d="M1188.5 1117.9l24.8.1"/>
            <path class="st1" d="M1279.4 1117.4l24.9.1"/>
            <path class="st1" d="M1433.9 1099l24.6-3.6"/>
            <path class="st1" d="M1538.9 1078.7l23.4-8"/>
            <path class="st1" d="M350.8 845.9l112-43.9 78.3 10-9.4 68-50.6-5"/>
            <path class="st1" d="M864.2 918.8l-.1-.1L763 834l-85.5-8.2.3 88.2h58.8v-22"/>
            <path class="st1" d="M338.3 906.1l110.5 83.6 78.9 4.6 3.1-68.6-50.5-4.4"/>
            <path class="st1" d="M865.3 940.7l-.1.1-101.4 88.4-85.3 9.8-1.4-88.2 58.8-1.1.4 22"/>
            <path class="st1" d="M1562.3 885.8l-80-58.5-78.4 9.9 9.5 68 50.5-5"/>
            <path class="st1" d="M1036 947.3l104.2-87.3 85.5-8.2-.4 88.2h-58.7v-22"/>
            <path class="st1" d="M1571.3 931.3l-75.1 83.6-78.8 4.6-3.2-68.6 50.6-4.3"/>
            <path class="st1" d="M1033.3 962.8l106 92.4 85.3 9.8 1.5-88.1-58.8-1.2-.5 22"/>
        </g>
    </g>
</svg>
