<svg xmlns="http://www.w3.org/2000/svg" viewBox="0 0 1920 1920">
    <style>
        .st0{fill:#fff}.st1{fill:none;stroke:#231f20;stroke-width:50;stroke-linecap:round;stroke-linejoin:round;stroke-miterlimit:10}
    </style>
    <path class="st0" d="M829.3 225.6s213.4 8.8 283.5 2.2c13.2-1.2 24-1.8 33-1.6 0 0-.1 19.2-13.3 63-4.4 14.6-13.3 31.8-26.8 48.8-13.9 17.6-32.6 35-55.9 49.2-22.2 13.5-48.8 24.1-79.5 29.1-31.1 5.1-55.7-.1-75.7-10.8-22.1-11.8-38.5-30.3-51.7-49.3-11.2-16-20.1-32.3-28.2-45.1-7.6-12-9.6-24.2-8.6-35.5 2.5-27.8 23.2-50 23.2-50zM562.7 857.3s-10.9 254.8 0 311.6c-21.2-39-49.9-85-83.3-121.4-37.3-39.4-19.7-57-19.7-57l103-133.2zm602.8-441c-20 22.3-47.7 42-86.2 56-26.7 9.6-58.6 16.5-96.7 19.5-7.2.6-14.6 1-22.2 1.3-37.9 1.4-69.7-3.4-96.6-12.5-39.9-13.5-68.8-36.4-89.5-62.3-28.3-35.2-41.7-75.9-48.1-105.8-5.4-25.4-5.7-43-5.7-43S521 354.9 490.3 390s-81.1 118.4-81.1 118.4-57 59.2-72.3 100.8C321.5 650.9 205.4 902.9 207.6 961c2.2 58.1 24.1 229 201.6 413.1l192.9-123.5c11 36.5 72.3 147.6 72.3 147.6l-45.1 31.2-97.3 67.4v50.4s67.2 2.8 163.4 4.9c211.8 4.6 564.5 5.8 651.9-33.4l24.1-21.9s1.8-50 4.1-113.7c3.9-107.1 9-253.1 9-265.4V990.6c15.3 78.9 76.1 118.1 76.1 118.1-3.3 8.3-5.5 16.6-6 24.3-2.2 37.3-65.7 219.2-65.7 219.2l162.9 86.2 65 34.4c11-15.3 76.7-306.8 83.3-348.5 6.6-41.6 0-89.9 0-133.7 0-43.8-87.7-293.7-124.9-407.6-37.3-114-131.5-197.2-162.2-219.2-30.7-21.9-157.8-67.9-192.9-98.6-2 21.9-4.9 50.2-14.3 79.5-7.8 24.2-20.2 49.2-40.3 71.6z" id="Layer_2"/>
    <g id="Layer_3">
        <path class="st0" d="M1551.8 1438.3l-162.9-86.2-13.4 30.9c-2.3 63.7-4.1 113.7-4.1 113.7l-24.1 21.9-2.5 12.1 45.1 21.9 75.1 36.4 44.5 21.6s96.4-122.7 107.4-138.1l-65.1-34.2z"/>
        <path class="st0" d="M409.2 1374L532 1496.8l97.3-67.4 45.1-31.2s-61.4-111-72.3-147.6L409.2 1374z"/>
        <path class="st0" d="M1145.8 226.2c39.1.6 45.9 14 74.4 38.9-2 21.9-4.9 50.2-14.3 79.5l-73.3-55.4c13-43.9 13.2-63 13.2-63zm-13.3 62.9c-4.4 14.6-13.3 31.8-26.8 48.8l59.8 78.3c20.1-22.4 32.4-47.4 40.3-71.7l-73.3-55.4zm-82.7 98.1l29.6 85c38.5-13.9 66.2-33.6 86.2-56l-59.8-78.3c-14 17.6-32.6 35.1-56 49.3zm-79.5 29.1l12.3 74.8v.7c38.1-3 70-9.8 96.7-19.5l-29.6-85c-22.2 13.4-48.7 24-79.4 29zm-106.4 64.2c26.8 9.1 58.7 13.9 96.6 12.5 7.6-.3 15-.7 22.2-1.3v-.7l-12.3-74.8c-31.1 5.1-55.7-.1-75.7-10.8l-30.8 75.1zm0 0l30.7-75.1c-22.1-11.8-38.5-30.3-51.7-49.3l-68.5 62.1c20.7 25.9 49.5 48.8 89.5 62.3zm-57.8-205l-79.9 36.9c6.4 29.9 19.8 70.6 48.1 105.8l68.5-62.1c-11.2-16-20.1-32.3-28.2-45.1-7.5-12-9.5-24.2-8.5-35.5zm-85.6-6.1s.3 17.6 5.7 43l79.9-36.9c2.5-27.8 23.2-49.9 23.2-49.9s-80.3-35.1-108.8 43.8z"/>
    </g>
    <path class="st0" d="M695.3 1552c-96.2-2.1-163.4-4.9-163.4-4.9l30.7 131.5s59.5 1.1 145.6 2.2c191.8 2.5 515.4 5.4 606.2-2.2l30.4-147.9 2.5-12.1c-87.4 39.2-440.1 38-652 33.4z" id="Layer_4"/>
    <g id="STROKES">
        <path class="st1" d="M562.7 1168.9c24.8 45.6 39.5 81.7 39.5 81.7 11 36.5 72.3 147.6 72.3 147.6l-45.1 31.2-97.3 67.4L409.2 1374c-177.5-184.1-199.4-355-201.6-413.1-2.2-58.1 114-310.1 129.3-351.8 15.3-41.6 72.3-100.8 72.3-100.8S459.7 425 490.3 390s230.1-120.5 230.1-120.5c28.5-78.9 108.8-43.8 108.8-43.8s213.4 8.8 283.5 2.2c13.2-1.2 24-1.8 33-1.6 39.1.6 45.9 14 74.4 38.9 35.1 30.7 162.2 76.7 192.9 98.6 30.7 21.9 124.9 105.2 162.2 219.2 37.2 114 124.9 363.8 124.9 407.6 0 43.8 6.6 92.1 0 133.7-6.6 41.6-72.3 333.1-83.3 348.5-11 15.3-107.4 138.1-107.4 138.1l-44.5-21.6-75.1-36.4-45.1-21.9"/>
        <path class="st1" d="M549.5 731.9l13.1 125.4-103 133.2s-17.5 17.5 19.7 57c33.3 36.4 62 82.4 83.3 121.4"/>
        <path class="st1" d="M343.5 931.3s2.2 46 28.5 50.4c26.3 4.4 87.7 8.8 87.7 8.8"/>
        <path class="st1" d="M409.2 1374l192.9-123.4"/>
        <path class="st1" d="M562.7 857.3s-10.9 254.8 0 311.6"/>
        <path class="st1" d="M532 1496.8v50.4l30.7 131.5s59.5 1 145.6 2.2c191.8 2.5 515.4 5.4 606.2-2.2l30.4-147.9 2.5-12.1 24.1-21.9s1.8-50 4.1-113.7c3.9-107.1 9-253.1 9-265.4v-206l15.3-219.2"/>
        <path class="st1" d="M1388.9 1352.1s63.5-181.9 65.7-219.2c.5-7.7 2.7-16 6-24.3 12.5-31.7 40-63.3 40-63.3"/>
        <path class="st1" d="M1460.7 1108.6s-60.8-39.2-76.1-118.1"/>
        <path class="st1" d="M720.5 269.4s.3 17.6 5.7 43c6.4 29.9 19.8 70.6 48.1 105.8 20.8 25.9 49.6 48.8 89.5 62.3 26.8 9.1 58.7 13.9 96.6 12.5 7.6-.3 15-.7 22.2-1.3 38.1-3 70-9.8 96.7-19.5 38.5-13.9 66.2-33.6 86.2-56 20.1-22.4 32.4-47.4 40.3-71.7 9.4-29.2 12.4-57.6 14.3-79.5"/>
        <path class="st1" d="M894.6 405.4c20 10.7 44.6 15.9 75.7 10.8 30.7-5 57.2-15.6 79.5-29.1 23.4-14.2 42.1-31.6 55.9-49.2 13.5-17.1 22.4-34.2 26.8-48.8 13.2-43.8 13.3-63 13.3-63"/>
        <path class="st1" d="M829.3 225.6s-20.7 22.2-23.2 49.9c-1 11.3 1 23.5 8.6 35.5 8.1 12.8 17 29.1 28.2 45.1 13.2 18.9 29.7 37.5 51.7 49.3"/>
        <path class="st1" d="M1616.8 1472.6l-65-34.3-162.9-86.2-13.4 30.9"/>
        <path class="st1" d="M532 1547.2s67.2 2.8 163.4 4.9c211.8 4.6 564.5 5.8 651.9-33.4"/>
        <path class="st1" d="M546.6 1300.5l82.7 128.9"/>
        <path class="st1" d="M491.5 1336.7l76.5 125"/>
        <path class="st1" d="M1551.8 1438.3l-86.9 150.8"/>
        <path class="st1" d="M1475.8 1403.4l-86 149.3-.9 1.6"/>
        <path class="st1" d="M616.4 1554.3l12.9 123.8"/>
        <path class="st1" d="M695.3 1554.3l12.9 123.8"/>
        <path class="st1" d="M774.2 1554.3l13 123.8"/>
        <path class="st1" d="M853.2 1554.3l12.9 123.8"/>
        <path class="st1" d="M932.1 1554.3l13 123.8"/>
        <path class="st1" d="M1024 1554.8v123.3"/>
        <path class="st1" d="M1103 1554.8v123.3"/>
        <path class="st1" d="M1181.9 1554.3v123.8"/>
        <path class="st1" d="M1260.9 1548.2v129.9"/>
        <path class="st1" d="M806.1 275.5l-79.9 37"/>
        <path class="st1" d="M842.9 356.1l-68.6 62.1"/>
        <path class="st1" d="M894.6 405.4l-30.7 75.1"/>
        <path class="st1" d="M970.3 416.3l12.3 74.7"/>
        <path class="st1" d="M1049.8 387.2l29.5 85"/>
        <path class="st1" d="M1105.7 338l59.8 78.3"/>
        <path class="st1" d="M1132.5 289.1l73.3 55.4"/>
    </g>
</svg>
