<svg id="Layer_1" xmlns="http://www.w3.org/2000/svg" viewBox="0 0 1920 1920">
    <style>
        .st0{fill:#fff}.st1{fill:none;stroke:#231f20;stroke-width:50;stroke-linecap:round;stroke-linejoin:round;stroke-miterlimit:10}
    </style>
    <path class="st0" d="M1373.3 558.3l55.7 19.4c-.2 0-1078.2 1045.9-1078.2 1045.9L205.7 1705l83.8-140.8L1351.9 494.5l21.4 63.8z" id="Layer_6"/>
    <path class="st0" d="M1657.7 210.1c-31.5-1.1-57.9 23.5-59 55-.6 17.2 6.5 32.8 18.1 43.7-5.5.3-129 7.9-202.6 189.8l15.9 16.2c53.2-22.2 172.3-84.8 186.9-205.8 9.7 9 22.5 14.6 36.7 15.1 31.5 1.1 57.9-23.5 59-55 1.1-31.5-23.5-57.9-55-59z"/>
    <path class="st0" d="M1414.1 498.6c-36.4-37.3-72.2-73.9-99.1-101.3-26.9-27.4-44.8-45.5-45.5-45.8l-47.8 49.3 37.4 37.7 66.1-23 26.6 79 21.5 63.8 55.7 19.4 65.8 22.9 8.8 17.3-7 47.8 35.8 33.3 41.3-36.6s-70.6-72.6-143.7-147.6l-15.9-16.2z"/>
    <g id="STROKES">
        <g id="XMLID_1_">
            <path class="st1" d="M1712.7 269c1.1-31.5-23.5-57.9-55-59s-57.9 23.5-59 55c-.6 17.2 6.5 32.9 18.2 43.8 9.7 9 22.5 14.7 36.8 15.2 31.5 1.1 57.9-23.5 59-55z"/>
            <path class="st1" d="M1617 308.8s-127.4 3.6-202.8 189.8c-3.3 8.2-6.6 16.8-9.7 25.8 0 0 9.9-3 25.5-9.5 53.3-22.3 172.4-85 187-206.1z"/>
            <path class="st1" d="M1503.7 617.9l-7.1 47.8 35.8 33.3 41.3-36.6s-70.6-72.5-143.7-147.6l-15.9-16.2c-72.8-74.6-143.3-146.6-144.7-147.1l-47.8 49.4 37.4 37.7 66.1-23"/>
            <path class="st1" d="M1494.9 600.6l-65.8-22.9-55.8-19.4-21.4-63.8-26.6-79"/>
            <path class="st1" d="M1429.1 577.7c-.2 0-1078.2 1045.9-1078.2 1045.9L205.8 1705l83.8-140.8L1351.9 494.5"/>
        </g>
    </g>
</svg>
