<svg xmlns="http://www.w3.org/2000/svg" viewBox="0 0 1920 1920">
    <style>
        .st0{fill:#fff}.st1{fill:none;stroke:#231f20;stroke-width:50;stroke-linecap:round;stroke-linejoin:round;stroke-miterlimit:10}
    </style>
    <g id="Layer_8">
        <path class="st0" d="M317.9 1607.5c47.9-40.5 335.7-273.7 335.7-273.7l-32.4-21.3s-19.5-15.6-22-13.5c-2.6 2.1-345.5 279.9-345.5 279.9s-73.2 55.8-12.8 126.2c36.6 42.6 65.8 28.2 83.1 10.3 9.1-9.4 5.1-25.3-7.5-28.9-9.5-2.7-19.2-7.3-24.7-14.9-10.1-14.1-21.7-23.6 26.1-64.1z"/>
        <path class="st0" d="M555.3 1133.8c-11.1 9-16.1 22.6-14.5 35.8.9 7.3 3.7 14.4 8.6 20.5 13.9 17.2 39.1 19.8 56.3 5.9 17.2-13.9 19.8-39.1 5.9-56.3-13.9-17.2-39.1-19.8-56.3-5.9z"/>
        <path class="st0" d="M744.7 1436.9c-1.4-5.4-3.9-10.6-7.7-15.3-13.9-17.2-39.1-19.8-56.3-5.9-17.2 13.9-19.8 39.1-5.9 56.3 13.9 17.2 39.1 19.8 56.3 5.9 12.5-10.2 17.3-26.3 13.6-41z"/>
        <path class="st0" d="M684.4 1329.6l19.6-75.8-89.2 7.2-37.9 3.1c0 .1.1.1.1.2l85.3 71.8c6.1 4.7 11.7 9.2 16.9 13.7l5.2-20.2z"/>
    </g>
    <path class="st0" d="M1659.8 131.1c54.3 499.1-975.1 1198.6-975.1 1198.6l-.2-.1 19.6-75.8-89.2 7.2c757.2-636.2 693.4-832.2 693.4-832.2 232.8-42 351.5-297.7 351.5-297.7z" id="Layer_3"/>
    <g id="STROKES">
        <g id="XMLID_1_">
            <path class="st1" d="M605.7 1195.9c17.2-13.9 19.8-39.1 5.9-56.3-13.9-17.2-39.1-19.8-56.3-5.9-11.1 9-16.1 22.6-14.5 35.8.9 7.3 3.7 14.4 8.6 20.5 13.9 17.2 39.1 19.8 56.3 5.9z"/>
            <path class="st1" d="M731.1 1477.9c12.5-10.2 17.3-26.3 13.6-41-1.4-5.4-3.9-10.6-7.7-15.3-13.9-17.2-39.1-19.8-56.3-5.9-17.2 13.9-19.8 39.1-5.9 56.3 14 17.2 39.2 19.8 56.3 5.9z"/>
            <path class="st1" d="M577 1264.2c0-.1-.1-.1-.1-.2-37.6-48.9-36.1-94.4-36.1-94.4"/>
            <path class="st1" d="M744.7 1437.1v-.2c-.5-2.6-8.4-38.3-65.5-87.2-5.2-4.5-10.9-9-16.9-13.7-9-6.9-18.9-14-30-21.3-24.3-16.1-42.2-33.5-55.3-50.5"/>
            <path class="st1" d="M577 1264.2l-.2-.2 38-3.1 89.2-7.2-19.6 75.9-5.2 20.1-.1.4-16.8-14.1-85.3-71.8z"/>
            <path class="st1" d="M621.2 1312.5s-19.5-15.6-22-13.5c-2.6 2.1-345.5 279.9-345.5 279.9s-73.2 55.8-12.8 126.2c36.6 42.6 65.8 28.2 83.1 10.3 9.1-9.4 5.1-25.3-7.5-28.9-9.5-2.7-19.2-7.3-24.7-14.9-10.1-14.1-21.7-23.6 26.2-64.1 47.9-40.5 335.7-273.7 335.7-273.7l-32.5-21.3z"/>
            <path class="st1" d="M684.7 1329.6S1714.1 630.2 1659.8 131c0 0-118.7 255.7-351.6 297.7 0 0 63.8 196-693.4 832.2"/>
        </g>
    </g>
</svg>
