<svg xmlns="http://www.w3.org/2000/svg" viewBox="0 0 1920 1920">
    <style>
        .st0{fill:#fff}.st1{fill:none;stroke:#231f20;stroke-width:50;stroke-linecap:round;stroke-linejoin:round;stroke-miterlimit:10}
    </style>
    <path class="st0" d="M1366.9 1289.3l-70.8-78-160.3-176.6-359.6-396.3-101.8 92.4 359.6 396.3 160.2 176.7 70.8 78 .8.7 80.6 53.6 33.6-30.5 35.6-32.4z" id="Layer_5"/>
    <path class="st0" d="M776.2 638.4l-101.9 92.4-33.8 30.7S636.9 639.4 486.1 571c21.7-14.7 47.3-34.5 76.4-60.9 35-31.8 59.9-59.3 77.5-81.8 3.8 13.2 47.7 154.9 165.2 183.8l-29 26.3z" id="Layer_6"/>
    <g id="Layer_7">
        <path class="st0" d="M513.6 392.1l-65.1 56.2 68.6 59.6 43-39z"/>
        <path class="st0" d="M480.8 253.6c-41.5-45.7-112.1-49.1-157.9-7.7-45.7 41.5-49.1 112.1-7.7 157.8 41.5 45.7 112.1 49.1 157.9 7.7 45.7-41.4 49.1-112.1 7.7-157.8z"/>
    </g>
    <g id="STROKES">
        <g id="XMLID_1_">
            <g id="XMLID_2_">
                <path class="st1" d="M509.7 326.1c-.6-25.9-10.1-51.8-29-72.5-41.5-45.7-112.1-49.1-157.9-7.7s-49.1 112.1-7.7 157.9c41.5 45.7 112.1 49.1 157.8 7.7 25.2-22.7 37.5-54.1 36.8-85.4z"/>
                <path class="st1" d="M337.2 671.1l63.7-57.8s30-4.8 85.3-42.3c21.7-14.7 47.3-34.5 76.4-60.9"/>
                <path class="st1" d="M640.1 428.3c-17.6 22.5-42.5 50.1-77.5 81.8"/>
                <path class="st1" d="M744.7 301.4L681 359.2s-6.5 25-40.9 69.1"/>
                <path class="st1" d="M448.5 448.3l68.6 59.6 43-39-46.5-76.8z"/>
                <path class="st1" d="M674.4 730.8l-33.8 30.7S637 639.4 486.2 571c-.4-.2-.8-.4-1.1-.5"/>
                <path class="st1" d="M639.8 427.3s.1.3.3 1c3.8 13.2 47.7 154.9 165.2 183.8l-29 26.3"/>
                <path class="st1" d="M1265 1381.8l-70.8-78-160.2-176.7-359.6-396.3 101.8-92.4 359.6 396.3 160.3 176.6 70.8 78"/>
                <path class="st1" d="M1034 1127.1s.4-101.9 101.9-92.4"/>
                <path class="st1" d="M1194.2 1303.8s42.8 4.8 73-22.4c15.2-13.7 27.2-35.5 28.8-70"/>
                <path class="st1" d="M1265.8 1382.5l80.6 53.6 33.6-30.5 35.6-32.4-48.7-83.9"/>
                <path class="st1" d="M1066.8 1060.4l200.5 221 112.7 124.2 269.9 297.5"/>
            </g>
        </g>
    </g>
</svg>
