<svg xmlns="http://www.w3.org/2000/svg" viewBox="0 0 1920 1920">
    <style>
        .st0{fill:#fff}.st1{fill:none;stroke:#231f20;stroke-width:50;stroke-linecap:round;stroke-linejoin:round;stroke-miterlimit:10}
    </style>
    <g id="Layer_4">
        <path class="st0" d="M774.3 869.9l-70.6-84.2-70.6-84.2-70.6-84.2-51.2-61.3c24.2-13.9 50.6-32.4 76.9-54.4 0 0 .1-.1.2-.1 27.3-22.9 50.8-46.5 69-68.6l593.4 708.1c-4.4 5.8-9.2 11.6-14.4 17.6-17.2 19.8-38.3 40.6-62.4 60.8-16.7 14-33.4 26.5-49.6 37.4-.6.4-1.1.7-1.7 1.1-5.1 3.4-10.2 6.6-15.1 9.7l-121.5-145-70.6-84.2-70.6-84.2-70.6-84.3z"/>
        <path class="st0" d="M1236.2 1158.6l98 117.3-57 47.8-57.3 48-94.5-113.1-1.2-1.8c16.2-10.8 32.9-23.4 49.6-37.4 24.1-20.2 45.3-41 62.4-60.8z"/>
    </g>
    <path class="st0" d="M509.8 225.6c11.6 13.9-19.1 58.8-68.6 100.2-49.5 41.5-99.1 63.9-110.7 50-11.6-13.9 19.1-58.8 68.6-100.2 49.5-41.5 99-63.8 110.7-50z" id="Layer_8"/>
    <g id="STROKES">
        <g id="XMLID_1_">
            <g id="XMLID_2_">
                <path class="st1" d="M509.8 225.6c-11.6-13.9-61.2 8.5-110.7 50s-80.2 86.4-68.6 100.2c11.6 13.9 61.2-8.5 110.7-50 49.5-41.4 80.2-86.3 68.6-100.2z"/>
                <path class="st1" d="M411.6 577.7c13 15.5 52.1 5.7 99.7-21.6 24.2-13.9 50.6-32.4 76.9-54.4 0 0 .1-.1.2-.1 27.3-22.9 50.8-46.5 69-68.6 33.8-41 49.4-76.7 36.7-91.8"/>
                <path class="st1" d="M997.2 1295.4c13.9 16.6 57.9 4.2 110.2-27.9 5-3.1 10-6.3 15.1-9.7.6-.4 1.1-.7 1.7-1.1 16.2-10.8 32.9-23.4 49.6-37.4 24.1-20.2 45.2-41 62.4-60.8 5.2-6 10-11.9 14.4-17.6 28.4-36.9 40.6-68.2 28.9-82.2"/>
                <path class="st1" d="M1277.3 1323.7l310.3 370.3"/>
                <path class="st1" d="M588.3 501.5l537.2 641"/>
                <path class="st1" d="M446.8 332.6l96.6 115.3"/>
                <path class="st1" d="M1236.2 1158.6l98 117.3-56.9 47.8-57.3 48-94.5-113.1"/>
                <path class="st1" d="M562.6 617.3l22.6-19"/>
                <path class="st1" d="M633.1 701.5l22.6-19"/>
                <path class="st1" d="M703.7 785.7l22.6-18.9"/>
                <path class="st1" d="M774.3 869.9l22.5-18.9"/>
                <path class="st1" d="M844.8 954.1l22.6-18.9"/>
                <path class="st1" d="M915.4 1038.3l22.6-18.9"/>
                <path class="st1" d="M985.9 1122.5l22.6-18.9"/>
            </g>
        </g>
        <ellipse transform="rotate(-39.962 420.082 300.736)" class="st1" cx="420.1" cy="300.7" rx="117" ry="32.8"/>
        <path class="st1" d="M411.6 577.7c19.6 23.3 98.6-10.7 176.6-76S713.5 364.5 694 341.1"/>
        <path class="st1" d="M997.2 1295.4c19.6 23.3 98.6-10.7 176.6-76s125.3-137.2 105.8-160.6"/>
        <path class="st1" d="M1277.3 1323.7l310.3 370.3"/>
        <path class="st1" d="M588.3 501.5l537.2 641"/>
        <path class="st1" d="M446.8 332.6l96.6 115.3"/>
        <path class="st1" d="M1059.4 1210.1L511.3 556"/>
        <path class="st1" d="M662.3 438.8l543.5 648.7"/>
        <path class="st1" d="M1242.9 1166.6l91.3 109.3-114.2 95.8-91.4-109.4"/>
        <path class="st1" d="M562.6 617.3l22.6-19"/>
        <path class="st1" d="M633.1 701.5l22.6-18.9"/>
        <path class="st1" d="M703.7 785.7l22.6-18.9"/>
        <path class="st1" d="M774.3 869.9l22.5-18.9"/>
        <path class="st1" d="M844.8 954.1l22.6-18.9"/>
        <path class="st1" d="M915.4 1038.3l22.6-18.9"/>
        <path class="st1" d="M985.9 1122.5l22.6-18.9"/>
    </g>
</svg>
