<svg xmlns="http://www.w3.org/2000/svg" viewBox="0 0 1920 1920">
    <style>
        .st0{fill:#fff}.st1{fill:none;stroke:#231f20;stroke-width:50;stroke-linecap:round;stroke-linejoin:round;stroke-miterlimit:10}
    </style>
    <path class="st0" d="M1414.4 1019.9l288.7-167L1434 279.6 1198.2 217S1101.8 427.1 960 522.1C818.2 427 721.8 217 721.8 217L486 279.6 216.9 852.8l288.7 167 98.3-160.5S721.8 1541 495.8 1703h928.4c-226-161.9-108.1-843.7-108.1-843.7l98.3 160.6z" id="Layer_4"/>
    <g id="STROKES">
        <path class="st1" d="M960 522c141.8-95 238.2-305.1 238.2-305.1l235.8 62.7 269.1 573.2-288.7 167.1-98.3-160.5s-117.9 681.7 108.1 843.7H495.8c226-161.9 108.1-843.7 108.1-843.7l-98.3 160.5-288.7-167.1 269-573.2 235.8-62.7c.1 0 96.5 210.1 238.3 305.1z" id="XMLID_1_"/>
    </g>
</svg>
