<svg xmlns="http://www.w3.org/2000/svg" viewBox="0 0 1920 1920">
    <style>
        .st0{fill:#fff}.st1{fill:none;stroke:#231f20;stroke-width:50;stroke-linecap:round;stroke-linejoin:round;stroke-miterlimit:10}
    </style>
    <path class="st0" d="M215 620.7v80h143v127.1h58.7v57.9c0 25-5.7 49.9-17.4 72-5.9 11.1-9.2 23.8-9.2 37.3 0 11.8 2.6 23 7.2 33.1 12.4 27.1 19.5 56.3 19.5 86.1v100H376v85h190.5v-85H524v-102.7c0-29.1 6.7-57.6 18.5-84.2 4.4-9.9 6.8-20.8 6.8-32.3 0-13.1-3.2-25.5-8.8-36.5-11.2-21.7-16.5-45.8-16.5-70.2v-60.5h60.5V700.7h749v127.1h60.5v60.5c0 24.4-5.3 48.6-16.5 70.2-5.6 10.9-8.8 23.3-8.8 36.5 0 11.5 2.4 22.4 6.8 32.3 11.8 26.6 18.5 55.1 18.5 84.2v102.7h-42.5v85H1542v-85h-40.6v-100c0-29.8 7.1-59 19.5-86.1 4.6-10.1 7.2-21.3 7.2-33.1 0-13.5-3.4-26.2-9.2-37.3-11.8-22.1-17.4-47-17.4-72v-57.9h58.6V700.7H1705v-80H215z" id="Layer_5"/>
    <g id="STROKES">
        <g id="XMLID_1_">
            <path class="st1" d="M358 700.7H215v-80h1490v80H584.5z"/>
            <path class="st1" d="M376 1214.2h1165.9"/>
            <path class="st1" d="M524 1214.2v-102.7c0-29.1 6.7-57.6 18.5-84.2 4.4-9.9 6.8-20.8 6.8-32.3 0-13.1-3.2-25.5-8.8-36.5-11.2-21.7-16.5-45.8-16.5-70.2v-60.5"/>
            <path class="st1" d="M416.7 827.8v57.9c0 25-5.7 49.9-17.4 72-5.9 11.1-9.2 23.8-9.2 37.3 0 11.8 2.6 23 7.2 33.1 12.4 27.1 19.5 56.3 19.5 86.1v100"/>
            <path class="st1" d="M584.5 700.3v127.5H358V700.3"/>
            <path class="st1" d="M566.5 1214.2v85.1H376v-85.1"/>
            <path class="st1" d="M1394 1214.2v-102.7c0-29.1-6.7-57.6-18.5-84.2-4.4-9.9-6.8-20.8-6.8-32.3 0-13.1 3.2-25.5 8.8-36.5 11.2-21.7 16.5-45.8 16.5-70.2v-60.5"/>
            <path class="st1" d="M1501.3 827.8v57.9c0 25 5.7 49.9 17.4 72 5.9 11.1 9.2 23.8 9.2 37.3 0 11.8-2.6 23-7.2 33.1-12.4 27.1-19.5 56.3-19.5 86.1v100"/>
            <path class="st1" d="M1333.4 700.3v127.5h226.5V700.3"/>
            <path class="st1" d="M1351.4 1214.2v85.1h190.5v-85.1"/>
            <path class="st1" d="M539.7 902L960 1027.7l420.3 125.6"/>
            <path class="st1" d="M1380.3 902L960 1027.7l-420.3 125.6"/>
        </g>
    </g>
</svg>
