<svg xmlns="http://www.w3.org/2000/svg" viewBox="0 0 1920 1920">
    <style>
        .st0{fill:#fff}.st1{fill:none;stroke:#231f20;stroke-width:50;stroke-linecap:round;stroke-linejoin:round;stroke-miterlimit:10}
    </style>
    <g id="Layer_1">
        <path class="st0" d="M216.4 1345.8l94.3 12.9V682.6l-94.3-8.6z"/>
        <path class="st0" d="M715.9 1107l70.4 6.9V836.3l-70.4-7z"/>
        <path class="st0" d="M1545.2 1195.4l94.2 12.8V670l-94.2 49.1z"/>
        <path class="st0" d="M715.9 435.5L216.4 673.3l94.3 9.2 820.7 80v709.3l94.3 12.7V771.7l64.1-33.4 349.6-182 63.1-32.8z"/>
    </g>
    <g id="Layer_3">
        <path class="st0" d="M310.7 682.6v676.1l64-30.3v-533l341.2 33.9 70.4 7v277.6l65.7-36.8V842.8l279.4 27.7v-108l-820.7-80z"/>
        <path class="st0" d="M1702.5 523.5l-63.1 32.8-349.6 182-64.1 33.4v712.8l64.1-53.7V852l255.4-132.9 94.2-49.1v538.2h.1l64.1-53.8V523.5z"/>
    </g>
    <g id="STROKES">
        <g id="XMLID_1_">
            <path class="st1" d="M310.7 1358.7l-94.3-12.9V674l94.3 8.6v106.5z"/>
            <path class="st1" d="M1225.7 771.7v712.8l-94.3-12.7V870.5L852 842.8l-65.7-6.5-70.4-7-341.2-33.9-64-6.3"/>
            <path class="st1" d="M1702.5 523.5l-986.6-88-499.5 237.8 94.3 9.2 820.7 80 94.3 9.2 64.1-33.4 349.6-182z"/>
            <path class="st1" d="M374.7 795.4v533l-64 30.3"/>
            <path class="st1" d="M1225.7 1484.5l64.1-53.7V738.3"/>
            <path class="st1" d="M1289.8 852l255.4-132.9 94.2-49.1h.1"/>
            <path class="st1" d="M786.3 1113.9l-70.4-6.9V829.1"/>
            <path class="st1" d="M852 842.8v234.3l-65.7 36.8"/>
            <path class="st1" d="M786.3 835.1v278.8"/>
            <path class="st1" d="M1131.4 870.5v-108"/>
            <path class="st1" d="M1639.4 556.3v651.9l-94.2-12.8V719.1"/>
            <path class="st1" d="M1639.5 1208.2l64.1-53.8V523.5"/>
        </g>
    </g>
</svg>
