<svg xmlns="http://www.w3.org/2000/svg" viewBox="0 0 1920 1920">
    <style>
        .st0{fill:#fff}.st1{fill:none;stroke:#231f20;stroke-width:50;stroke-linecap:round;stroke-linejoin:round;stroke-miterlimit:10}
    </style>
    <path class="st0" d="M1575 631.2c-54-82.1-123.6-137-206.2-154.9-97.1-21.1-199.1 11.8-295.4 86-143.8 110.8-275 313.8-358.2 567.2-16.2 49.5-30.7 100.9-43 153.9-2.1 9.1-4.2 18.2-6.2 27.4 0 0-12.2 83.9-57.3 163.8-6.4 11.4-13.5 22.7-21.4 33.7-7.5 10.5-15.6 20.7-24.5 30.3-.7.7-1.4 1.5-2 2.2-.7.7-1.4 1.5-2.1 2.2-.7.7-1.4 1.4-2.1 2.2-.7.7-1.4 1.4-2.1 2.2-.8.8-1.6 1.6-2.5 2.4l-.5.5-.5.5c-1 1-2 1.9-3 2.9-.7.7-1.5 1.4-2.2 2.1-7.8-5.9-15.3-12.2-22.3-19-.5 2.1-1.1 4.2-1.8 6.2-10.3 29-42 44.1-71 33.9-29-10.3-44.1-42.1-33.9-71 8.7-24.6 33-39.3 57.9-36.8-3-5.4-5.2-11.3-6.4-17.5-.1-.3-.2-.7-.4-1-13.2 22.6-41 33.4-66.5 24.3-29-10.3-44.1-42-33.9-71 9.8-27.7 39.4-42.8 67.3-35a55.65 55.65 0 0 1-5.6-48.5c7.1-20.1 24.7-33.6 44.5-36.5 1-2.3 2-4.5 3.1-6.8l3.3-6.6c1.2-2.3 2.4-4.6 3.7-6.9 1.2-2.1 2.4-4.2 3.6-6.2-.9-1-1.7-2-2.6-3.1-.6-.8-1.3-1.6-1.9-2.3-.1-.1-.2-.3-.3-.4-.6-.7-1.2-1.4-1.7-2.2-.2-.2-.3-.4-.5-.6-.1-.2-.2-.3-.4-.5-.6-.8-1.2-1.6-1.8-2.3-.7-1-1.4-1.9-2.1-2.9-.5-.7-1.1-1.5-1.6-2.2 0 0 0-.1-.1-.1-.3-.4-.6-.9-.9-1.3-3.7-5.3-7.2-10.7-10.5-16.3-.8-1.3-1.5-2.7-2.3-4.1-.3-.5-.6-1-.8-1.5-.2-.3-.3-.6-.5-1-.5-.2-1-.5-1.5-.7-.4-.2-.8-.4-1.2-.7-.2-.1-.3-.2-.5-.3-.4-.2-.7-.4-1.1-.6-.3-.2-.7-.4-1-.6-.3-.2-.6-.4-.8-.5-.1-.1-.3-.2-.4-.3-.2-.1-.4-.3-.7-.4-.4-.2-.7-.5-1.1-.8-.3-.2-.6-.4-.9-.7-.2-.1-.3-.2-.5-.4-.3-.3-.7-.5-1-.8-.2-.1-.3-.2-.5-.4-.3-.2-.6-.5-.9-.7-.2-.2-.5-.4-.7-.6-.2-.2-.5-.4-.7-.6-.2-.2-.5-.4-.7-.7-.5-.4-.9-.9-1.4-1.4-.4-.4-.8-.8-1.1-1.2-.2-.2-.4-.5-.6-.7-.4-.4-.8-.8-1.1-1.3-.1-.1-.2-.2-.2-.3-.1-.1-.2-.3-.4-.4-.1-.1-.2-.3-.4-.5-.9-1.2-1.8-2.4-2.6-3.7-.1-.1-.2-.3-.3-.4-.1-.1-.1-.2-.2-.3-.1-.1-.2-.3-.3-.4-.1-.1-.2-.2-.2-.4-.1-.1-.1-.2-.2-.3-.1-.1-.1-.2-.2-.3-.2-.3-.4-.6-.6-1-.3-.4-.5-.9-.8-1.4-.3-.6-.6-1.1-.9-1.7-.2-.5-.4-.9-.7-1.4-.1-.2-.2-.5-.3-.8-.2-.5-.4-.9-.6-1.4-.2-.4-.3-.9-.5-1.3l-.3-.9c-.2-.5-.3-.9-.5-1.4-.2-.6-.4-1.2-.5-1.8v-.2c-.2-.6-.3-1.1-.5-1.7v-.2c-.2-.6-.3-1.2-.4-1.8-2.2-9.8-1.7-20.3 1.9-30.5.9-2.6 2-5.1 3.2-7.4-1.4-10.2-2.1-20.6-2.1-31.2 0-32.7 7-63.8 19.5-91.9 4.1-9.2 8.8-18.1 14-26.6 11.9-19.3 26.6-36.7 43.5-51.5-.4-.8-.8-1.5-1.3-2.3-.5-.9-.9-1.7-1.4-2.6-.2-.3-.3-.6-.5-.9-.2-.3-.3-.7-.5-1-.4-.8-.9-1.7-1.3-2.5 0 0 0-.1-.1-.1-.1-.1-.1-.2-.2-.3l-1.2-2.4c-.1-.2-.2-.3-.2-.5 0-.1-.1-.2-.1-.3-.3-.6-.5-1.1-.8-1.7l-.6-1.2c-.1-.3-.3-.6-.4-.9-.1-.3-.3-.6-.4-.9-.2-.4-.4-.9-.6-1.3l-.3-.6c-.4-.8-.7-1.7-1.1-2.5-.7-1.7-1.4-3.3-2.1-5-.7-1.7-1.3-3.4-2-5.1l-1.8-5.1c-.4-1.1-.7-2.2-1.1-3.2l-.9-2.7c-.1-.2-.1-.3-.2-.5-.3-1.1-.7-2.2-1-3.3-.3-1.1-.6-2.2-1-3.3-5.4-19.4-8.4-39.9-8.4-61 0-95 58.5-176.2 141.5-209.8-.1-1-.1-2.1-.2-3.1 0-.9-.1-1.7-.1-2.6v-.5c0-.5 0-1-.1-1.5v-2.2c0-.9 0-1.7-.1-2.6v-3.9c0-9.8.6-19.5 1.8-28.9l1.2-8.4c-170.1 132.8-322.1 394.5-397.5 715.7 0 0-69.5 336.1 162.6 336.1h1162.9c52.9 0 98.9-36.8 110.1-88.5.1-.3.1-.6.2-.9 79.4-364.2 38.7-704-87.2-895.6zM325.7 1355.5c-29-10.2-44.1-42-33.9-71 10.2-29 42-44.1 71-33.9 29 10.2 44.1 42 33.9 71-10.3 29-42.1 44.1-71 33.9z" id="Layer_2"/>
    <path class="st0" d="M459.4 1216.4c1.9.9 3.8 1.7 5.8 2.4 29 10.3 60.7-4.9 71-33.9 10.3-29-4.9-60.7-33.9-71-26.4-9.3-55.1 2.4-67.8 26.5-1.2 2.3-2.3 4.8-3.2 7.4-3.6 10.2-4.1 20.7-1.9 30.5 3.6 16.3 14.3 30.5 30 38.1zm221.4-122.6c-29-10.3-60.8 4.9-71 33.9-1.8 5.2-2.8 10.5-3.1 15.7 0 1-.1 1.9-.1 2.9 0 7.8 1.6 15.4 4.7 22.3.3.7.7 1.5 1 2.2.7 1.4 1.5 2.8 2.3 4.2.4.7.9 1.4 1.3 2 .4.7.9 1.3 1.4 2 .7 1 1.4 1.9 2.2 2.9.4.4.7.8 1.1 1.3.7.8 1.5 1.6 2.3 2.4l1.2 1.2.5.5.4.4.3.3.2.2c.2.2.5.4.7.6h.1c.2.2.5.4.8.6 0 .1.1.1.2.1.2.2.4.3.5.4l1.5 1.2c-4.3 1.1-8.5 2.8-12.4 4.9l-.1.1c-.5.2-.9.5-1.4.8-.5.3-.9.5-1.3.8-.5.3-.9.6-1.3.8-.3.2-.5.3-.8.5-.5.3-1 .7-1.4 1-2.2 1.6-4.3 3.4-6.3 5.3l-1.1 1.1c-.7.8-1.4 1.5-2.1 2.3-.3.4-.6.7-.9 1.1-.2.3-.5.6-.7.8-.2.3-.4.5-.6.8-.3.3-.5.7-.8 1-1 1.4-1.9 2.8-2.8 4.3-.2.4-.5.8-.7 1.2-.2.3-.4.7-.5 1l-.6 1.2-.6 1.2c-.1.3-.3.6-.4.9-.6 1.3-1.1 2.7-1.6 4-.5 1.5-1 3.1-1.4 4.6-.2.8-.4 1.6-.5 2.3-.5 2.3-.8 4.7-1 7-.2 2.9-.3 5.8 0 8.7v.1c0 .5.1 1.1.1 1.6 0 .2 0 .4.1.7.1.5.1 1.1.2 1.6v.3l.3 1.8v.1l.3 1.5c0 .2.1.5.2.7v.1c.1.5.3 1.1.4 1.6.2.6.3 1.1.5 1.7.1.2.1.4.2.7.2.5.3 1 .5 1.5.4 1.3.9 2.5 1.5 3.8.3.6.5 1.2.8 1.9.6 1.2 1.2 2.4 1.9 3.6.7 1.2 1.4 2.3 2.1 3.5-2.6-.4-5.2-.5-7.8-.5-.9 0-1.8 0-2.7.1h-.9c-.8.1-1.6.1-2.4.2-.4 0-.8.1-1.2.1-.4 0-.8.1-1.2.2-.4.1-.8.1-1.2.2-.3.1-.7.1-1 .2-.6.1-1.2.2-1.8.4-.4.1-.9.2-1.3.3-.1 0-.2 0-.2.1-.8.2-1.5.4-2.3.7-.5.1-1 .3-1.5.5-.3.1-.7.2-1 .4-.3.1-.6.2-.8.3-1 .4-2.1.8-3.1 1.2-.3.2-.6.3-1 .4-.6.3-1.3.6-1.9.9l-1.2.6c-.2.1-.3.2-.5.3-.3.2-.7.4-1 .6-1.5.9-3 1.8-4.4 2.9-.6.4-1.1.8-1.7 1.3-.3.2-.6.4-.8.7-.5.5-1.1.9-1.6 1.4-.5.5-1.1.9-1.6 1.4-.4.4-.8.7-1.1 1.1-.4.4-.8.8-1.1 1.2-.2.3-.5.5-.7.8-.2.3-.5.5-.7.8-.2.3-.5.5-.7.8-.2.3-.5.5-.7.8-.2.3-.4.6-.7.8l-.6.9-.6.9-1.2 1.8c-.4.6-.8 1.2-1.1 1.8l-.6.9c-.3.5-.6 1.1-.9 1.7 0 .1-.1.2-.1.2-.2.3-.3.6-.5 1-.2.3-.3.7-.5 1-.2.3-.3.7-.5 1-.1.3-.3.7-.4 1-.1.3-.3.7-.4 1-.1.3-.3.7-.4 1-.1.3-.3.7-.4 1.1-.2.6-.4 1.2-.6 1.9-.2.6-.4 1.2-.5 1.9-.2.6-.3 1.1-.5 1.7 0 .1 0 .2-.1.3-.1.6-.3 1.2-.4 1.8v.1c0 .3-.1.5-.2.8 0-.1-.1-.2-.1-.3-.1-.2-.1-.4-.2-.5-.2-.5-.3-.9-.5-1.4-.4-.9-.8-1.9-1.2-2.8-.4-.9-.9-1.8-1.3-2.7-.7-1.3-1.5-2.6-2.2-3.9-2.2-3.4-4.7-6.6-7.5-9.4-1.1-1.1-2.2-2.1-3.3-3.1-.8-.7-1.6-1.3-2.4-1.9-.8-.6-1.7-1.2-2.5-1.8-.4-.3-.9-.6-1.3-.9-3.5-2.2-7.3-4.1-11.4-5.5-.8-.3-1.5-.5-2.3-.8l-2.1-.6c-4.7-1.3-9.5-1.9-14.2-1.9-2.7 0-5.3.2-7.9.6-19.8 2.9-37.4 16.4-44.5 36.5a55.65 55.65 0 0 0 5.6 48.5c-27.9-7.8-57.5 7.3-67.3 35-10.2 28.9 4.9 60.7 33.9 71 25.6 9.1 53.3-1.7 66.5-24.3.1.3.2.7.4 1 2.2 6 4.6 11.9 7.2 17.6-.3 0-.6-.1-.9-.1-24.9-2.5-49.2 12.2-57.9 36.8-10.3 29 4.9 60.8 33.9 71 29 10.2 60.8-4.9 71-33.9.7-2.1 1.3-4.2 1.8-6.2 7 6.8 14.5 13.2 22.3 19 .8-.7 1.5-1.4 2.2-2.1 1-1 2-1.9 3-2.9l.5-.5.5-.5c.8-.8 1.7-1.6 2.5-2.4.7-.7 1.4-1.4 2.1-2.2.7-.7 1.4-1.4 2.1-2.2.7-.7 1.4-1.4 2.1-2.2.7-.7 1.4-1.5 2-2.2 8.9-9.7 17-19.8 24.5-30.3 7.8-11 14.9-22.3 21.4-33.7 45-79.9 57.3-163.8 57.3-163.8 2-9.2 4-18.3 6.2-27.4 12.3-53 26.8-104.4 43-153.9-5.6-15.9-17.9-29.5-35-35.5zm-284.1 227.8c10.3-29-4.9-60.7-33.9-71s-60.7 4.9-71 33.9c-10.3 29 4.9 60.7 33.9 71s60.7-4.9 71-33.9z" id="Layer_4"/>
    <path class="st0" d="M1359.6 335.9c-20.5 0-40.4 2.8-59.3 7.9-41.3-45.1-100.8-73.5-166.8-73.5-87.4 0-163.2 49.6-200.8 122.1-26.3-10.7-55.1-16.6-85.3-16.6-112.2 0-205.3 81.7-223.1 188.9-.5 2.8-.9 5.6-1.2 8.4-1.2 9.5-1.8 19.1-1.8 28.9v3.9c0 .9 0 1.7.1 2.6v2.2c0 .5 0 1 .1 1.5v.5c0 .9.1 1.7.1 2.6.1 1 .1 2.1.2 3.1-82.9 33.5-141.5 114.8-141.5 209.8 0 21.1 2.9 41.6 8.4 61 .3 1.1.6 2.2 1 3.3.3 1.1.6 2.2 1 3.3.1.2.1.3.2.5l.9 2.7c.3 1.1.7 2.2 1.1 3.2l1.8 5.1c.6 1.7 1.3 3.4 2 5.1.7 1.7 1.4 3.4 2.1 5 .4.8.7 1.7 1.1 2.5l.3.6c.2.4.4.9.6 1.3.1.3.3.6.4.9.1.3.3.6.4.9l.6 1.2c.3.5.5 1.1.8 1.7.1.1.1.2.1.3.1.2.2.3.2.5l1.2 2.4c.1.1.1.2.2.3 0 0 0 .1.1.1.4.8.9 1.7 1.3 2.5.2.3.3.7.5 1 .1.3.3.6.5.9.5.9.9 1.7 1.4 2.6.4.8.8 1.5 1.3 2.3a230.95 230.95 0 0 0-43.5 51.5c-5.2 8.5-9.9 17.4-14 26.6-12.5 28.1-19.5 59.2-19.5 91.9 0 10.6.7 21 2.1 31.2 12.7-24.1 41.4-35.8 67.8-26.5 29 10.2 44.1 42 33.9 71-10.2 29-42 44.1-71 33.9-1.5-.5-3-1.1-4.4-1.8-.5-.2-.9-.4-1.4-.7.2.3.3.7.5 1 .3.5.6 1 .8 1.5.8 1.4 1.5 2.7 2.3 4.1 3.3 5.6 6.8 11 10.5 16.3.3.5.6.9 1 1.3 0 0 0 .1.1.1.1.1.2.2.3.4.4.6.9 1.2 1.3 1.8.7 1 1.4 1.9 2.1 2.9.6.8 1.2 1.6 1.8 2.3.1.2.2.3.4.5s.3.4.5.6c.6.7 1.2 1.4 1.7 2.2.1.1.2.3.3.4.6.8 1.3 1.6 1.9 2.3.9 1 1.7 2.1 2.6 3.1-1.2 2-2.4 4.1-3.6 6.2-1.3 2.3-2.5 4.6-3.7 6.9l-3.3 6.6c-1.1 2.2-2.1 4.5-3.1 6.8 2.6-.4 5.2-.6 7.9-.6 4.7 0 9.5.6 14.2 1.9l2.1.6c.8.2 1.5.5 2.3.8 4.1 1.4 7.9 3.3 11.4 5.5.4.3.9.6 1.3.9.9.6 1.7 1.2 2.5 1.8.8.6 1.6 1.3 2.4 1.9 1.2 1 2.3 2 3.3 3.1 2.8 2.9 5.4 6 7.5 9.4.8 1.3 1.5 2.6 2.2 3.9.5.9.9 1.8 1.3 2.7.4.9.8 1.8 1.2 2.8.2.5.4.9.5 1.4.1.2.1.4.2.5 0 .1.1.2.1.3.1-.3.1-.5.2-.8v-.1c.1-.6.2-1.2.4-1.8 0-.1.1-.2.1-.3.1-.6.3-1.1.5-1.7.1-.5.3-1 .4-1.5 0-.1.1-.3.1-.4.2-.6.4-1.2.6-1.9.1-.3.3-.7.4-1.1.1-.4.3-.7.4-1 .1-.4.3-.7.4-1 .1-.3.3-.7.4-1 .2-.3.3-.7.5-1 .2-.3.3-.7.5-1 .2-.3.3-.6.5-1 .1-.1.1-.2.1-.2.3-.6.6-1.1.9-1.7l.6-.9c.4-.6.8-1.2 1.1-1.8l1.2-1.8.6-.9.6-.9c.2-.3.4-.6.7-.8.2-.3.4-.6.7-.8.2-.3.5-.5.7-.8.2-.3.5-.5.7-.8.2-.3.5-.5.7-.8.4-.4.7-.8 1.1-1.2l1.1-1.1c.5-.5 1-1 1.6-1.4.5-.5 1.1-.9 1.6-1.4.3-.2.5-.4.8-.7.6-.4 1.1-.8 1.7-1.3 1.4-1 2.9-2 4.4-2.9.3-.2.7-.4 1-.6.2-.1.4-.2.5-.3l1.2-.6c.6-.3 1.2-.6 1.9-.9.3-.1.6-.3 1-.4 1-.4 2-.9 3.1-1.2.3-.1.6-.2.8-.3.3-.1.7-.2 1-.4.5-.2 1-.3 1.5-.5.8-.2 1.5-.4 2.3-.7.1 0 .2 0 .2-.1.4-.1.8-.2 1.3-.3.6-.1 1.2-.3 1.8-.4.3-.1.7-.1 1-.2.4-.1.8-.1 1.2-.2.4-.1.8-.1 1.2-.2.4-.1.8-.1 1.2-.1.8-.1 1.6-.2 2.4-.2h.9c.9 0 1.8-.1 2.7-.1 2.6 0 5.2.2 7.8.5-.4-.6-.7-1.1-1.1-1.7-.4-.7-.8-1.4-1.2-2.2-.2-.3-.4-.7-.5-1-.4-.7-.8-1.5-1.1-2.2-.3-.6-.6-1.2-.8-1.9-.5-1.2-1-2.5-1.5-3.8-.2-.5-.3-1-.5-1.5-.1-.2-.1-.4-.2-.7-.2-.6-.3-1.1-.5-1.7-.1-.5-.3-1.1-.4-1.6v-.1c-.1-.2-.1-.5-.2-.7l-.3-1.5v-.1l-.3-1.8v-.3c-.1-.5-.2-1.1-.2-1.6 0-.2 0-.4-.1-.7-.1-.5-.1-1-.1-1.6v-.1c-.2-2.9-.2-5.8 0-8.7.2-2.3.5-4.6 1-7 .2-.8.4-1.5.5-2.3.4-1.5.9-3.1 1.4-4.6.5-1.4 1-2.7 1.6-4 .1-.3.3-.6.4-.9l.6-1.2.6-1.2c.1-.1.1-.3.2-.4 0-.1.1-.2.1-.2.3-.5.6-1.1.9-1.6.9-1.5 1.8-2.9 2.8-4.3.2-.3.5-.7.8-1 .2-.3.4-.5.6-.8.2-.3.5-.6.7-.8.3-.4.6-.7.9-1.1.7-.8 1.4-1.6 2.1-2.3.4-.4.7-.8 1.1-1.1 2-1.9 4.1-3.7 6.3-5.3.5-.3 1-.7 1.4-1 .3-.2.5-.4.8-.5.4-.3.9-.6 1.3-.8.4-.3.9-.5 1.3-.8.4-.3.9-.5 1.4-.8l.1-.1c3.9-2.1 8.1-3.7 12.4-4.9l-1.5-1.2c-.2-.1-.4-.3-.5-.4 0 0-.1-.1-.2-.1-.3-.2-.5-.4-.8-.6h-.1c-.2-.2-.5-.4-.7-.6l-.2-.2-.3-.3c-.1-.1-.3-.2-.4-.4l-.5-.5-1.2-1.2c-.8-.8-1.5-1.6-2.3-2.4-.4-.4-.7-.8-1.1-1.3-.8-.9-1.5-1.9-2.2-2.9-.5-.6-.9-1.3-1.4-2-.4-.7-.9-1.3-1.3-2-.8-1.4-1.6-2.8-2.3-4.2-.3-.7-.7-1.4-1-2.2-3.1-7-4.7-14.6-4.7-22.3 0-1 0-1.9.1-2.9.3-5.2 1.3-10.5 3.1-15.7 10.2-29 42-44.1 71-33.9 17.1 6.1 29.4 19.6 34.5 35.7 83.3-253.4 214.4-456.4 358.2-567.2 96.3-74.2 198.3-107.1 295.4-86 82.6 17.9 152.2 72.8 206.2 154.9 7-21.8 10.8-45 10.8-69.1 0-125-101.3-226.3-226.2-226.3z" id="Layer_5"/>
    <g id="STROKES">
        <path class="st1" d="M621.1 601.9c0 5.5.2 11 .6 16.4-82.9 33.5-141.5 114.8-141.5 209.8 0 40.4 10.6 78.3 29.2 111.2-47.2 41.5-77 102.3-77 170 0 10.6.7 21 2.1 31.2-1.2 2.3-2.3 4.8-3.2 7.4-9.5 26.9 2.9 56.3 28 68.5 7.9 14.7 17.4 28.4 28.2 40.8-5.1 8.5-9.7 17.3-13.8 26.4-19.8 2.9-37.4 16.4-44.5 36.5a55.65 55.65 0 0 0 5.6 48.5c-27.9-7.8-57.5 7.3-67.3 35-10.2 28.9 4.9 60.7 33.9 71 25.6 9.1 53.3-1.7 66.5-24.3.1.3.2.7.4 1 2.2 6 4.6 11.9 7.2 17.6-.3 0-.6-.1-.9-.1-24.9-2.5-49.2 12.2-57.9 36.8-10.3 29 4.9 60.8 33.9 71 29 10.2 60.8-4.9 71-33.9.7-2.1 1.3-4.2 1.8-6.2 7 6.8 14.5 13.2 22.3 19-39.1 35.7-90.1 60.7-156.5 60.7-232.2 0-162.6-336.1-162.6-336.1C301.9 959 454 697.2 624.1 564.4c-1.9 12.4-3 24.8-3 37.5z"/>
        <path class="st1" d="M715.2 1129.5c-19 58-35.6 118.6-49.2 181.3 0 0-16 109.6-78.6 197.5-12.1 16.9-25.8 33.1-41.6 47.5-7.8-5.9-15.3-12.2-22.3-19 3.1-13.4.9-27.1-5.3-38.7-6.3-11.8-16.9-21.3-30.4-26.1-4-1.4-8.1-2.4-12.2-2.8-2.6-5.7-5.1-11.6-7.2-17.6-.1-.3-.2-.7-.4-1-13.2 22.6-41 33.4-66.5 24.3-29-10.3-44.1-42-33.9-71 9.8-27.7 39.4-42.8 67.3-35a55.65 55.65 0 0 1-5.6-48.5c7.1-20.1 24.7-33.6 44.5-36.5 8.6-1.2 17.7-.5 26.5 2.6 16.3 5.8 28.2 18.3 33.7 33.4.1.3.2.6.3.8.1-.3.1-.6.2-.9.5-2.5 1.2-5 2.1-7.5 9-25.4 34.5-40.2 60.2-36.5-9.3-14.1-12.2-32.2-6.1-49.3 6.4-18.1 21.2-30.8 38.6-35.3-19.2-14.1-27.8-39.7-19.5-63.3 10.2-29 42-44.1 71-33.9 17.1 5.8 29.4 19.4 34.4 35.5z"/>
        <path class="st1" d="M1585.8 562.1c0 24.1-3.8 47.3-10.8 69.1-54-82.1-123.6-137-206.1-154.9-97.1-21.1-199.1 11.8-295.4 86-143.8 110.8-275 313.8-358.2 567.2-5.1-16.1-17.4-29.7-34.5-35.7-29-10.3-60.7 4.9-71 33.9-8.4 23.7.2 49.2 19.5 63.4-17.3 4.5-32.1 17.2-38.6 35.3-6.1 17.1-3.2 35.3 6.1 49.3-25.7-3.6-51.2 11.1-60.2 36.5-.9 2.5-1.6 5-2.1 7.5-.1.3-.1.6-.2.9-.1-.3-.2-.6-.3-.8-5.5-15.1-17.4-27.6-33.7-33.4-8.8-3.1-17.9-3.9-26.5-2.6 4-9.1 8.6-18 13.7-26.5-10.8-12.5-20.3-26.2-28.2-40.8 1.9.9 3.8 1.7 5.8 2.4 29 10.3 60.7-4.9 71-33.9 10.3-29-4.9-60.7-33.9-71-26.4-9.3-55.1 2.4-67.8 26.5-1.4-10.2-2.1-20.6-2.1-31.2 0-67.8 29.8-128.6 77.1-170-18.6-32.8-29.2-70.8-29.2-111.2 0-95 58.5-176.2 141.5-209.8-.4-5.4-.6-10.9-.6-16.4 0-12.7 1-25.2 3.1-37.3C642 457.5 735.1 375.8 847.3 375.8c30.2 0 59 5.9 85.3 16.6 37.7-72.5 113.5-122.1 200.8-122.1 66 0 125.5 28.3 166.8 73.5 18.9-5.1 38.8-7.9 59.3-7.9 125 0 226.3 101.3 226.3 226.2z"/>
        <path class="st1" d="M1662.6 1527c-.1.3-.1.6-.2.9-11.3 51.7-57.2 88.5-110.1 88.5h-1163c66.4 0 117.5-25 156.5-60.7 15.7-14.4 29.5-30.5 41.6-47.5 62.6-87.9 78.6-197.5 78.6-197.5 13.6-62.7 30.2-123.3 49.2-181.3C798.5 876 929.6 673 1073.4 562.2c96.3-74.2 198.3-107.1 295.4-86 82.6 17.9 152.2 72.8 206.1 154.9 126 191.7 166.7 531.5 87.7 895.9z"/>
        <path class="st1" d="M536.2 1185c-10.3 29-42 44.1-71 33.9-2-.7-4-1.5-5.8-2.4-25.1-12.2-37.6-41.6-28-68.6.9-2.6 2-5.1 3.2-7.4 12.7-24.1 41.4-35.8 67.8-26.5 28.9 10.3 44 42.1 33.8 71z"/>
        <ellipse transform="rotate(-70.501 344.227 1302.981)" class="st1" cx="344.2" cy="1303" rx="55.6" ry="55.6"/>
        <path class="st1" d="M523.5 1536.7c-.5 2.1-1.1 4.2-1.8 6.2-10.3 29-42 44.1-71 33.9-29-10.3-44.1-42.1-33.9-71 8.7-24.6 33-39.3 57.9-36.8.3 0 .6.1.9.1 4.1.5 8.2 1.4 12.2 2.8 13.6 4.8 24.1 14.3 30.4 26.1 6.3 11.5 8.4 25.2 5.3 38.7z"/>
        <path class="st1" d="M582.5 1440.8c0 31.8-25.8 57.5-57.5 57.5-2.2 0-4.5-.1-6.7-.4-6.3-11.8-16.9-21.3-30.4-26.1-4-1.4-8.1-2.4-12.2-2.8-.3 0-.6-.1-.9-.1-3-5.4-5.2-11.3-6.4-17.5-.6-3.4-1-7-1-10.6 0-31.8 25.8-57.5 57.5-57.5 31.8 0 57.6 25.8 57.6 57.5z"/>
    </g>
</svg>
