<svg xmlns="http://www.w3.org/2000/svg" viewBox="0 0 1920 1920">
    <style>
        .st0{fill:#fff}.st1{fill:#ef9a9a}.st2{fill:none;stroke:#231f20;stroke-width:50;stroke-linecap:round;stroke-linejoin:round;stroke-miterlimit:10}
    </style>
    <path class="st0" d="M1247.3 800.3c3 60.3 58.7 157.8 74.4 184.1 36.8 23.7 68.6 51.2 94.3 81.6 9.8 11.6 18.7 23.7 26.7 36.1 28.6 44.7 44.7 94.3 45 146.5v1.5c0 138.9-111.4 259.4-274.3 319.2-69.8 25.6-148.9 40-232.9 40-86.5 0-167.9-15.3-239.2-42.4-80.4-30.5-155.7-81.2-202.8-136.3 138.1-186.3 65.9-346.9 65.9-346.9-15-6.8-28.3-19.7-40-38.2 34.5-46.1 91.6-132.1 112.3-217.9 28.2-117-48-263.4-67.9-298.8 11.4 14.4 39.2 27.5 78.9 38.2 65.1 17.5 162 28.7 270.3 28.7 103.3 0 196.2-10.1 261.1-26.3 47.1-11.7 79.4-26.7 90-43.2-45.7 88.7-62 201.1-62 269.2.1 1.5.1 3.2.2 4.9zM603.1 514.2c0 2.3.4 4.6 1.3 6.9.4.8 2 3.4 4.5 7.8 11.4 14.4 39.2 27.5 78.9 38.2l.1-.3s80.3-33.7 133.3-86.7c13.3-13.3 24.1-28 33.7-42.6-136.4 11.3-251.8 41.4-251.8 76.7zm998.7-16.4c-117.2-46.3-245.6 32-314.5 206.6-11.8 29.9-25.7 62.4-39.9 95.9 3 60.3 58.7 157.8 74.4 184.1 8.8-20.6-8.2-145.9 34.9-238.4 48.7-104.4 130.8-186.4 202.7-158s66.2 101.7 23.9 208.9c-21.6 54.7-108.4 225.5-167.2 269.1 9.8 11.6 18.7 23.7 26.7 36.1 28.6 44.7 44.7 94.3 45 146.5h1.5c43.2-161.9 140-318.1 175.2-407.2 68.9-174.7 54.5-297.4-62.7-343.6zM1079.7 480c52.6 52.6 138.2 88.9 139.4 89.4 47.1-11.7 79.4-26.7 90-43.2.7-1.4 1.5-2.9 2.2-4.3 1-2.5 1.6-5.1 1.6-7.7 0-38.2-114.1-70.2-268.5-79.1 10.2 15.4 21.4 30.9 35.3 44.9zm-35.2-44.9c-28-42.5-47.3-83.2-94-83.6-47.5.5-66.8 42.6-95.5 85.9-9.7 14.6-20.5 29.3-33.7 42.6-53 53-133.3 86.7-133.3 86.7l-.1.3c65.1 17.5 162 28.7 270.3 28.7 103.3 0 196.2-10.1 261.1-26.3-1.2-.5-86.8-36.8-139.4-89.4-14.1-14-25.3-29.5-35.4-44.9zM741.2 1567.2s1.6 72.3-38.5 93.2c0 0 84.4 41.4 268.2 43.3v.1h12.8v-.1c183.8-1.9 268.2-43.3 268.2-43.3-36.1-18.8-38.4-79-38.5-91.1-69.8 25.6-148.9 40-232.9 40-86.5 0-167.9-15.3-239.2-42.4l-.1.3zm-176.8-521.6C535 998.8 516.5 916 509.6 804.3c-6.6-106-68.2-180.8-106.8-217.8-17.7-17-41.4-26.4-65.9-26.4H214.1c96.4 45 197.5 221.6 168.6 363-28.9 141.3-61 310-4.8 420.8 56.2 110.8 160.6 86.7 160.6 86.7 138.1-186.3 65.9-346.9 65.9-346.9-15.1-6.7-28.4-19.6-40-38.1z" id="Layer_3"/>
    <g id="STROKES">
        <g id="XMLID_1_">
            <g id="XMLID_2_">
                <path class="st2" d="M538.5 1430.7c47.1 55.1 122.4 105.8 202.8 136.3 71.3 27 152.7 42.4 239.2 42.4 84 0 163.2-14.4 232.9-40 163-59.8 274.3-180.3 274.3-319.2v-1.5c-.3-52.2-16.4-101.8-45-146.5-7.9-12.4-16.9-24.5-26.7-36.1-25.7-30.4-57.5-57.9-94.3-81.6-15.7-26.3-71.4-123.8-74.4-184.1-.1-1.7-.1-3.3-.1-5 0-68 16.3-180.5 62-269.2.7-1.4 1.5-2.9 2.2-4.3.2-.3.3-.7.5-1"/>
                <path class="st2" d="M604.4 521.1c.4.8 2 3.4 4.5 7.8 19.9 35.4 96.1 181.8 67.9 298.8-20.7 85.8-77.8 171.8-112.3 217.9"/>
                <path class="st2" d="M604.2 520.9s0 .1.1.2"/>
                <path class="st2" d="M1489.2 1248.6c43.2-161.9 140-318.1 175.2-407.2 69-174.6 54.5-297.3-62.7-343.6-117.2-46.3-245.6 32-314.5 206.6-11.8 29.9-25.7 62.4-39.9 95.9"/>
                <path class="st2" d="M1416 1066c58.9-43.6 145.6-214.4 167.2-269.1 42.3-107.2 48-180.5-23.9-208.9s-154 53.6-202.7 158c-43.2 92.5-26.2 217.8-34.9 238.4"/>
                <path class="st2" d="M1219.1 569.4c-64.9 16.2-157.8 26.3-261.1 26.3-108.2 0-205.2-11.1-270.3-28.7-39.7-10.7-67.5-23.8-78.9-38.2-2-2.5-3.5-5.1-4.5-7.8-.8-2.3-1.3-4.6-1.3-6.9 0-35.2 115.3-65.4 251.8-76.8"/>
                <path class="st2" d="M1044.5 435.1C1198.8 444 1313 476 1313 514.2c0 2.6-.5 5.2-1.6 7.7-.6 1.4-1.3 2.9-2.2 4.3-10.6 16.6-42.9 31.5-90 43.2"/>
                <path class="st2" d="M741.2 1567.2s1.6 72.3-38.5 93.2c0 0 84.4 41.4 268.2 43.3v.1h12.8v-.1c183.8-1.9 268.2-43.3 268.2-43.3-36.1-18.8-38.4-79-38.5-91.1v-2.1"/>
                <path class="st2" d="M538.5 1430.7s-104.4 24.1-160.6-86.7c-56.2-110.8-24.1-279.5 4.8-420.8 28.9-141.3-72.3-318-168.6-363h122.8c24.5 0 48.1 9.4 65.9 26.4 38.7 37 100.3 111.7 106.8 217.8 6.9 111.7 25.4 194.5 54.8 241.3 11.6 18.5 25 31.3 40 38.2-.1-.1 72.2 160.5-65.9 346.8z"/>
                <path class="st2" d="M687.8 566.7S768.1 533 821.1 480c13.3-13.3 24.1-28 33.7-42.6 28.8-43.3 48-85.4 95.5-85.9h.8"/>
                <path class="st2" d="M1219.1 569.4c-1.2-.5-86.8-36.8-139.4-89.4-14-14-25.2-29.5-35.2-44.9-27.9-42.5-47.3-83.2-94-83.6h-.8V216.6"/>
                <path class="st2" d="M891.6 216.3h115.6"/>
            </g>
        </g>
    </g>
</svg>
