<svg xmlns="http://www.w3.org/2000/svg" viewBox="0 0 1920 1920">
    <style>
        .st0{fill:#fff}.st1{fill:#ef9a9a}.st2{fill:none;stroke:#231f20;stroke-width:50;stroke-linecap:round;stroke-linejoin:round;stroke-miterlimit:10}
    </style>
    <g id="Layer_4">
        <path class="st0" d="M1040.4 731.2v-43.6c-17.7-15.3-29-37.8-29-63 0-46 37.3-83.2 83.2-83.2 45.9 0 83.2 37.2 83.2 83.2 0 25.2-11.2 47.8-29 63v43.6s268.5 19.2 298.9 49.6c30.4 30.4 2 62.8 2 62.8-413 74.9-712.3 0-712.3 0s-28.4-32.4 2-62.8c30.5-30.4 301-49.6 301-49.6z"/>
        <path class="st0" d="M737.5 843.6s299.3 74.9 712.3 0c127.6 97.2 253.1 534.5 253.1 534.5s12.1 123.5-103.3 224.7c-105.4 92.5-443.9 102.2-501.8 103.2v.1h-8.4v-.1c-57.9-1-396.4-10.7-501.8-103.2-21.5-18.8-38.5-38.5-52.1-57.9-59.2-85-51.2-166.8-51.2-166.8s42.4-147.7 102.9-290.5c43.8-102.9 96.9-203.3 150.3-244z"/>
        <path class="st0" d="M403.1 890.2c65.4 22.4 168.8 174.2 184.3 197.5-60.5 142.8-102.9 290.5-102.9 290.5s-8 81.8 51.2 166.8c-5.5.7-11.2 1.1-17.1 1.2-230.8 4-184.2-317.9-170.1-425.2 14.2-107.3-133.6-204.5-133.6-204.5l188.2-26.3z"/>
    </g>
    <g id="STROKES">
        <g id="XMLID_1_">
            <g id="XMLID_2_">
                <path class="st2" d="M1474.1 853.7l40.6-20.8c19.7-10.1 43.3 3.7 44 25.9l4.4 130.6"/>
                <path class="st2" d="M713.2 853.7l-40.6-20.8c-19.7-10.1-43.3 3.7-44 25.9l-4.5 130.6"/>
                <path class="st2" d="M619.7 884.1h-72.5V720c0-279.5 226.6-506.1 506.1-506.1h80.9c279.5 0 506.1 226.6 506.1 506.1v164.1h-76.9"/>
                <path class="st2" d="M587.4 1087.6c-15.5-23.2-118.9-175-184.3-197.5l-188.3 26.3s147.8 97.2 133.6 204.5c-14.2 107.3-60.7 429.2 170.1 425.2 6-.1 11.7-.5 17.1-1.2"/>
                <path class="st2" d="M1040.4 731.2s-270.5 19.2-300.9 49.6c-30.4 30.4-2 62.8-2 62.8-53.4 40.7-106.5 141.1-150.2 244-60.5 142.8-102.9 290.5-102.9 290.5s-8 81.8 51.2 166.8c13.5 19.4 30.6 39.1 52.1 57.9 105.4 92.5 443.9 102.2 501.8 103.2v.1h8.4v-.1c57.9-1 396.3-10.7 501.8-103.2 115.4-101.2 103.3-224.7 103.3-224.7s-125.5-437.3-253.1-534.5c0 0 28.4-32.4-2-62.8S1149 731.2 1149 731.2"/>
                <path class="st2" d="M737.5 843.6s299.3 74.9 712.3 0"/>
                <path class="st2" d="M1148.9 784.9v-97.2c17.7-15.3 29-37.8 29-63 0-46-37.3-83.2-83.2-83.2-46 0-83.2 37.2-83.2 83.2 0 25.2 11.2 47.8 29 63v97.2"/>
            </g>
        </g>
    </g>
</svg>
