<svg xmlns="http://www.w3.org/2000/svg" viewBox="0 0 1920 1920">
    <style>
        .st0{fill:#fff}.st1{fill:#ef9a9a}.st2{fill:none;stroke:#231f20;stroke-width:50;stroke-linecap:round;stroke-linejoin:round;stroke-miterlimit:10}
    </style>
    <path class="st0" d="M1302.1 800.7c41.8-49.1 102.9-80 170.9-80 125.8 0 227.9 105.8 227.9 236.3 0 130-189.6 238.5-315.5 239.3 17.4-31.8 29.1-65.7 34.3-101.2 74.7-.4 189.5-64.8 189.5-142 0-77.4-60.6-140.2-135.2-140.2-40.4 0-86.5 26.8-111.3 55.9l-.6.4c-17.1-24.4-37.5-47.1-60.5-67.7l.5-.8zm-371.9 626.5c204.1 0 381-95.2 455.2-230.9 17.4-31.8 29.1-65.7 34.3-101.2 2.2-14.9 3.2-30.1 2.9-45.6-1-65.4-23.1-127-60.6-180.4-17.1-24.4-37.5-47.1-60.5-67.7-35.7-31.9-77.9-58.7-124.5-78.8-.3-.1-.6-.3-.9-.4-2.6-1.1-5.2-2.2-7.7-3.4-1.4-.6-2.8-1.2-4.3-1.8-44.1 37.8-129.2 63.3-227 63.3-101 0-188.6-27.3-231.3-67.2-5.9 2.3-11.7 4.7-17.4 7.2-67.4 29.2-124.9 70.2-167.7 119.4-52.3 60-82.8 132.1-82.8 209.7 0 35.9 6.5 70.5 18.7 103.4 58.5 158.4 248.4 274.4 473.6 274.4zM695.1 701.8c3.2 3.9 6.7 7.7 10.7 11.4 42.7 39.8 130.3 67.2 231.3 67.2 97.8 0 182.9-25.6 227-63.3 3.2-2.7 6.2-5.5 9-8.4-22.6-55.9-121.7-98-240.6-98-114-.1-209.8 38.6-237.4 91.1zm-174.5 138s-47.6 4.8-104.2-50.3c-37-36-80.6-66.2-106.3-82.7-13.2-8.5-30.1-8.2-43.1.5L226.1 735c-11.3 7.6-8.5 25 4.7 28.7 32.5 9 58 58.1 70.9 109.9 21.4 85.6 15.6 251.7 154.8 279.2-12.2-32.9-18.7-67.5-18.7-103.4 0-77.5 30.5-149.6 82.8-209.6z" id="Layer_2"/>
    <g id="STROKES">
        <g id="XMLID_1_">
            <g id="XMLID_2_">
                <path class="st1" d="M1164.1 717c1.4.6 2.9 1.2 4.3 1.8-1.4-.6-2.9-1.2-4.3-1.8z"/>
                <path class="st2" d="M1302.1 800.7c41.8-49.1 102.9-80 170.9-80 125.8 0 227.9 105.8 227.9 236.3 0 130-189.6 238.5-315.5 239.3h-1.4"/>
                <path class="st2" d="M1362.6 868.7c24.8-29.1 70.9-55.9 111.3-55.9 74.7 0 135.2 62.8 135.2 140.2 0 77.2-114.8 141.7-189.5 142h-.6"/>
                <path class="st2" d="M867.6 492.8h136.1"/>
                <path class="st2" d="M935.6 598.3V494.4"/>
                <path class="st2" d="M456.5 1152.8c-139.2-27.5-133.4-193.6-154.8-279.2-13-51.8-38.4-100.9-70.9-109.9-13.1-3.6-16-21-4.7-28.7l40.9-27.7c13-8.8 29.9-9 43.1-.5 25.7 16.5 69.3 46.7 106.3 82.7 56.6 55 104.2 50.3 104.2 50.3"/>
                <path class="st2" d="M1177.1 722.6c-.8-4.7-2.1-9.4-4-14"/>
                <path class="st2" d="M1168.4 718.8c2.6 1.1 5.2 2.2 7.7 3.4"/>
                <path class="st2" d="M695.1 701.8c-3.2 6-5.5 12.2-6.7 18.6"/>
                <path class="st2" d="M705.8 713.2c-5.9 2.3-11.7 4.7-17.4 7.2-67.4 29.2-124.9 70.2-167.7 119.4-52.3 60-82.8 132.1-82.8 209.7 0 35.9 6.5 70.5 18.7 103.4 58.6 158.3 248.5 274.3 473.7 274.3 204.1 0 381-95.2 455.2-230.9 17.4-31.8 29.1-65.7 34.3-101.2 2.2-14.9 3.2-30.1 2.9-45.6-1-65.4-23.1-127-60.6-180.4-17.1-24.4-37.5-47.1-60.5-67.7-35.7-31.9-77.9-58.7-124.5-78.8"/>
                <path class="st2" d="M1176.1 722.2c-2.6-1.1-5.2-2.2-7.7-3.4-1.4-.6-2.8-1.2-4.3-1.8"/>
                <path class="st2" d="M1173.1 708.6c-22.6-55.9-121.7-98-240.6-98-114 0-209.8 38.7-237.4 91.2 3.2 3.9 6.7 7.7 10.7 11.4 42.7 39.8 130.3 67.2 231.3 67.2 97.8 0 182.9-25.6 227-63.3 3.2-2.8 6.2-5.6 9-8.5z"/>
            </g>
        </g>
    </g>
</svg>
