<svg xmlns="http://www.w3.org/2000/svg" viewBox="0 0 1920 1920">
    <style>
        .st0{fill:#fff}.st1{fill:none;stroke:#231f20;stroke-width:50;stroke-linecap:round;stroke-linejoin:round;stroke-miterlimit:10}
    </style>
    <path class="st0" d="M1327.5 371.6c-31.3-31.8-66.7-59.4-105.4-82.1 43.4-35.3 98.8-56.4 159.1-56.4 139.5 0 252.6 113.1 252.6 252.6 0 106.9-66.5 198.4-160.3 235.2-.6-41.3-6.1-81.5-16-119.9-22.6-87.9-68.2-166.6-130-229.4zm-625-78.2c-44.1-37.6-101.3-60.3-163.8-60.3-139.5 0-252.6 113.1-252.6 252.6 0 111.1 71.8 205.5 171.5 239.3.3-43.6 6-85.8 16.6-126.2 23-87.6 68.7-165.9 130.5-228.3 29.3-29.5 62.1-55.5 97.8-77.1z" id="Layer_3"/>
    <path class="st0" d="M960 738.2c144.6 0 261.9 95.1 261.9 212.5 0 117.3-117.2 212.5-261.9 212.5s-261.9-95.1-261.9-212.5c0-117.3 117.3-212.5 261.9-212.5zm98.8 179.3v-24.9c0-28.1-22.8-50.9-50.9-50.9h-95.7c-28.1 0-50.9 22.8-50.9 50.9v24.9c0 28.1 22.8 50.9 50.9 50.9h95.7c28.1 0 50.9-22.8 50.9-50.9z" id="Layer_4"/>
    <path class="st0" d="M1058.8 892.6v24.9c0 28.1-22.8 50.9-50.9 50.9h-95.7c-28.1 0-50.9-22.8-50.9-50.9v-24.9c0-28.1 22.8-50.9 50.9-50.9h95.7c28.1 0 50.9 22.8 50.9 50.9z" id="Layer_5"/>
    <path class="st0" d="M1225.6 544.9c52.1 0 94.3 42.2 94.3 94.3 0 52.1-42.2 94.3-94.3 94.3-52.1 0-94.3-42.2-94.3-94.3 0-52.1 42.2-94.3 94.3-94.3zM600 639.2c0 52.1 42.2 94.3 94.4 94.3 52.1 0 94.3-42.2 94.3-94.3 0-52.1-42.2-94.3-94.3-94.3-52.1 0-94.4 42.2-94.4 94.3z" id="Layer_6"/>
    <path class="st0" d="M1345.7 1604.9l-151-8.4-64.3 103.5-150.9-316h9.8c26.9 0 48.8-21.8 48.8-48.8v-19.9c0-14.2-6.1-26.9-15.7-35.8l239.3-70.8c29.3-8.8 58.8 13.2 58.8 43.8v131.2c0 29-26.6 50.7-55 44.7l-213.4-44.5 293.6 221zm-323.3-325.4c-8.7-8-20.3-12.9-33.1-12.9h-70.2c-11.5 0-22.1 4-30.4 10.6-11.2 8.9-18.4 22.7-18.4 38.1v19.9c0 26.9 21.8 48.8 48.8 48.8h70.2c26.9 0 48.8-21.8 48.8-48.8v-19.9c0-14.2-6-26.9-15.7-35.8zM919.1 1384c-26.9 0-48.8-21.8-48.8-48.8v-19.9c0-15.4 7.2-29.2 18.4-38.1l-228-68.5c-29.3-8.8-58.8 13.2-58.8 43.8v131.2c0 29 26.6 50.7 55 44.7l213.4-44.5-293.6 220.9 151-8.4 64.3 103.5 150.9-316h-23.8z" id="Layer_7"/>
    <path class="st0" d="M1473.5 720.9c0 2.4.1 4.7.1 7.1 0 280.5-227.4 507.9-507.9 507.9s-508-227.4-508-507.9v-3c.3-43.6 6-85.8 16.6-126.2 23-87.6 68.7-165.9 130.5-228.3 29.2-29.5 62-55.4 97.7-77.1 76.7-46.5 166.8-73.4 263.1-73.4 93.6 0 181.3 25.3 256.6 69.5 38.7 22.7 74.1 50.4 105.4 82.1 61.8 62.7 107.3 141.4 130 229.4 9.8 38.4 15.3 78.5 15.9 119.9zM1320 639.2c0-52.1-42.2-94.3-94.3-94.3-52.1 0-94.3 42.2-94.3 94.3 0 52.1 42.2 94.3 94.3 94.3 52 .1 94.3-42.2 94.3-94.3zm-98.1 311.5c0-117.4-117.2-212.5-261.9-212.5s-261.9 95.1-261.9 212.5c0 117.3 117.2 212.5 261.9 212.5s261.9-95.1 261.9-212.5zM788.7 639.2c0-52.1-42.2-94.3-94.3-94.3-52.1 0-94.4 42.2-94.4 94.3 0 52.1 42.2 94.3 94.4 94.3 52.1.1 94.3-42.2 94.3-94.3z" id="Layer_8"/>
    <g id="STROKES">
        <g id="XMLID_1_">
            <g id="XMLID_2_">
                <path class="st1" d="M1221.9 950.7c0 117.3-117.2 212.5-261.9 212.5s-261.9-95.1-261.9-212.5S815.3 738.2 960 738.2s261.9 95.2 261.9 212.5z"/>
                <path class="st1" d="M702.5 293.4c-44.1-37.6-101.3-60.3-163.8-60.3-139.5 0-252.6 113.1-252.6 252.6 0 111.1 71.8 205.5 171.5 239.3"/>
                <path class="st1" d="M1473.5 720.9c93.9-36.8 160.3-128.3 160.3-235.2 0-139.5-113.1-252.6-252.6-252.6-60.3 0-115.7 21.2-159.1 56.4"/>
                <path class="st1" d="M604.8 370.5c-16-6.8-33.6-10.6-52.1-10.6-73.1 0-132.3 59.2-132.3 132.3"/>
                <path class="st1" d="M1327.5 371.6c16.7-7.6 35.2-11.8 54.7-11.8 73.1 0 132.3 59.2 132.3 132.3"/>
                <path class="st1" d="M1473.5 720.9c-.6-41.3-6.1-81.5-16-119.9-22.6-87.9-68.2-166.6-130-229.4-31.3-31.8-66.7-59.4-105.4-82.1-75.3-44.2-163-69.5-256.6-69.5-96.3 0-186.3 26.8-263.1 73.4-35.6 21.6-68.4 47.6-97.6 77.1-61.8 62.4-107.6 140.7-130.5 228.3-10.6 40.3-16.3 82.6-16.6 126.2v3c0 280.5 227.4 507.9 507.9 507.9s507.9-227.4 507.9-507.9v-7.1z"/>
                <path class="st1" d="M1058.8 892.6v24.9c0 28.1-22.8 50.9-50.9 50.9h-95.7c-28.1 0-50.9-22.8-50.9-50.9v-24.9c0-28.1 22.8-50.9 50.9-50.9h95.7c28.1 0 50.9 22.8 50.9 50.9z"/>
                <path class="st1" d="M827.7 1010.4c0 37.1 30 67.1 67.1 67.1 35.8 0 65-28 67-63.3.1-1.2.1-2.5.1-3.8v-41.7"/>
                <path class="st1" d="M1095.8 1010.4c0 37.1-30 67.1-67.1 67.1-35.8 0-65-28-67-63.3-.1-1.2-.1-2.5-.1-3.8v-41.7"/>
                <path class="st1" d="M788.7 639.2c0 52.1-42.2 94.3-94.3 94.3-52.1 0-94.4-42.2-94.4-94.3 0-52.1 42.2-94.3 94.4-94.3 52.1 0 94.3 42.2 94.3 94.3z"/>
                <path class="st1" d="M716.5 555.6l-23.6 63c-3.7 10 6.2 19.6 16.1 15.5l67.1-28.1"/>
                <path class="st1" d="M1320 639.2c0 52.1-42.2 94.3-94.3 94.3-52.1 0-94.3-42.2-94.3-94.3 0-52.1 42.2-94.3 94.3-94.3 52 0 94.3 42.2 94.3 94.3z"/>
                <path class="st1" d="M1247.8 555.6l-23.6 63c-3.7 10 6.2 19.6 16.1 15.5l67.2-28.1"/>
                <path class="st1" d="M1022.4 1279.5c9.7 8.9 15.7 21.7 15.7 35.8v19.9c0 26.9-21.8 48.8-48.8 48.8h-70.2c-26.9 0-48.8-21.8-48.8-48.8v-19.9c0-15.4 7.2-29.2 18.4-38.1 8.3-6.7 18.9-10.6 30.4-10.6h70.2c12.8-.1 24.4 4.8 33.1 12.9z"/>
                <path class="st1" d="M888.7 1277.2l-228-68.5c-29.3-8.8-58.8 13.2-58.8 43.8v131.2c0 29 26.6 50.7 55 44.7l213.4-44.5-293.6 220.9 151-8.4 64.3 103.5 150.9-316"/>
                <path class="st1" d="M1022.4 1279.5l239.3-70.8c29.3-8.8 58.8 13.2 58.8 43.8v131.2c0 29-26.6 50.7-55 44.7l-213.4-44.5 293.6 220.9-151-8.4-64.3 103.5-150.9-316"/>
            </g>
        </g>
    </g>
</svg>
