<svg xmlns="http://www.w3.org/2000/svg" viewBox="0 0 1920 1920">
    <style>
        .st0{fill:#fff}.st1{fill:none;stroke:#231f20;stroke-width:50;stroke-linecap:round;stroke-linejoin:round;stroke-miterlimit:10}
    </style>
    <path class="st0" d="M1650.5 745.5c14.4 15.7 23.1 36.6 23.1 59.4 0 44.5-33.3 82.1-77.5 87.4l-22.6 2.7c-96.6 11.7-194.2 12.2-290.9 1.5 7.5 29.9 11.5 61.3 11.5 93.7 0 109.7-45.7 208-117.9 274.1 3 4.3 5.5 9 7.6 14l104.9 142.7 33-10.6c51.1-16.4 105.8 11.8 122.2 62.9l15.9 49.7c16.4 51.1-11.8 105.8-62.9 122.2l-156 50c-51.1 16.4-105.8-11.8-122.2-62.9l-45.5-142.2-81.6-141c-11.2 1.2-22.5 1.8-34 1.8-9.8 0-19.5-.5-29.1-1.3L854 1490.1l-45.5 142.2c-16.4 51.1-71.1 79.3-122.2 62.9l-156-50c-51.1-16.4-79.3-71.1-62.9-122.2l15.9-49.7c16.4-51.1 71.1-79.3 122.2-62.9l33 10.6 97.8-142.7c1.6-3.9 3.5-7.6 5.7-11.1-74-66.2-121.1-165.7-121.1-277 0-32.2 4-63.4 11.3-93.1-95 10.1-190.8 9.4-285.7-2.1l-22.6-2.7c-22.1-2.7-41.5-13.4-55.3-29-13.8-15.6-22.2-36.1-22.2-58.4 0-45.6 34.8-83.6 80.2-87.7l61.1-5.4c75.9-6.8 152.3-6.6 228.3.3l115.6 10.6c26.6-25.8 57-47 90.2-62.7-63.6-41.7-105.1-109.8-105.1-186.8 0-35.9 9-69.9 25.1-100.2-24.2-15.2-40.1-40.4-40.1-68.8 0-46.4 42.1-84.1 94.1-84.1 33.6 0 63 15.8 79.7 39.4 28.7-10.4 59.9-16.1 92.6-16.1 32.2 0 63 5.5 91.3 15.6 16.7-23.4 46-38.9 79.3-38.9 52 0 94.1 37.6 94.1 84.1 0 28-15.3 52.8-38.8 68 16.3 30.5 25.5 64.7 25.5 100.9 0 80.8-45.6 151.8-114.6 192.8 28.8 15.1 55.2 34.4 78.7 57.2l120.2-11c75.9-7 152.3-7.1 228.2-.3l61.2 5.4c22.9 2 42.9 12.6 57.3 28.3z" id="Layer_2"/>
    <g id="STROKES">
        <g id="XMLID_1_">
            <path class="st1" d="M1673.6 804.9c0-22.8-8.7-43.7-23.1-59.4-14.4-15.7-34.4-26.2-57.2-28.2l-61.2-5.4c-75.9-6.8-152.3-6.6-228.2.3l-120.2 11c-23.4-22.8-49.9-42.1-78.7-57.2 69-41 114.6-112 114.6-192.8 0-36.2-9.2-70.5-25.5-100.9 23.5-15.3 38.8-40.1 38.8-68 0-46.4-42.1-84.1-94.1-84.1-33.4 0-62.6 15.5-79.3 38.9-28.3-10.1-59.1-15.6-91.3-15.6-32.7 0-64 5.7-92.6 16.1-16.6-23.7-46.1-39.4-79.7-39.4-51.9 0-94.1 37.6-94.1 84.1 0 28.5 15.8 53.6 40.1 68.8-16.1 30.3-25.1 64.2-25.1 100.2 0 77 41.5 145.1 105.1 186.8-33.2 15.7-63.7 37-90.2 62.7L616 712.1c-75.9-7-152.3-7.1-228.3-.3l-61.1 5.4c-45.4 4-80.2 42.1-80.2 87.7 0 22.3 8.3 42.8 22.2 58.4 13.9 15.6 33.2 26.3 55.3 29l22.6 2.7c94.9 11.4 190.7 12.1 285.7 2.1-7.4 29.7-11.3 60.9-11.3 93.1 0 111.3 47.1 210.9 121.1 277-2.2 3.5-4.1 7.2-5.7 11.1L638.5 1421l-33-10.6c-51.1-16.4-105.8 11.8-122.2 62.9l-15.9 49.7c-16.4 51.1 11.8 105.8 62.9 122.2l156 50c51.1 16.4 105.8-11.8 122.2-62.9l45.5-142.2 74.4-140.6c9.6.9 19.3 1.3 29.1 1.3 11.5 0 22.8-.6 34-1.8l81.6 141 45.5 142.2c16.4 51.1 71.1 79.3 122.2 62.9l156-50c51.1-16.4 79.3-71.1 62.9-122.2l-15.9-49.7c-16.4-51.1-71.1-79.3-122.2-62.9l-33 10.6-104.9-142.7c-2.1-5-4.6-9.7-7.6-14 72.2-66.1 117.9-164.4 117.9-274.1 0-32.4-4-63.8-11.5-93.7 96.7 10.7 194.3 10.2 290.9-1.5l22.6-2.7c44.3-5.2 77.6-42.8 77.6-87.3z" id="XMLID_2_"/>
        </g>
    </g>
</svg>
