<svg xmlns="http://www.w3.org/2000/svg" viewBox="0 0 1920 1920">
    <style>
        .st0{fill:#fff}.st1{fill:none;stroke:#231f20;stroke-width:50;stroke-linecap:round;stroke-linejoin:round;stroke-miterlimit:10}
    </style>
    <path class="st0" d="M1157.2 1179.8c23.3-34.4 36.9-75.9 36.9-120.5 0-118.8-96.3-215-215-215s-215 96.3-215 215 96.3 215 215 215c74 0 139.4-37.5 178.1-94.5zM840.8 779.1V642.4h276.5v136.7c215.3 0 382.3 321.9 514.7 348.3l20.6 73.5v357.5H305.5V1201l20.6-73.5c132.4-26.5 340.3-348.4 514.7-348.4zm292.6-431c35.7 0 64.7 29 64.7 64.7v170.6c0 32.6-26.4 59.1-59.1 59.1H819c-16.3 0-31.1-6.6-41.8-17.3S760 599.7 760 583.3V412.7c0-35.7 29-64.7 64.7-64.7s64.7 29 64.7 64.7v104.7h179.4V412.8c-.1-35.8 28.9-64.7 64.6-64.7zM276.5 693.6c-8.7-27.6-17-54.8-18.5-63.8-32.9-195.4 145.4-245.1 148.6-246.3 40.3-15.7 258.7-123.2 569.9-122 311.3-1.3 529.7 106.3 569.9 122 3.2 1.2 201.7 55.5 148.6 246.3-4.8 17.4-41.4 134.3-41.4 134.3-11.9 37.5-50.4 59.8-88.8 51.5l-219.4-47.4c-37.6-8.1-63.3-43.1-59.9-81.4l15.4-164.3s-7.2-76.4-97.9-83.5c-1.2-.1-2.9-.2-4.9-.3v-25.8c0-35.7-29-64.7-64.7-64.7s-64.7 29-64.7 64.7V437c-56.6-.2-122.3-.3-179.4 0v-24.2c0-35.7-29-64.7-64.7-64.7s-64.7 29-64.7 64.7v25.6c-4.4.1-7.8.3-9.9.5-90.7 7.2-97.9 83.5-97.9 83.5l15.4 164.3c3.5 38.4-22.2 73.3-59.9 81.4l-219.4 47.4c-38.5 8.3-76.9-14-88.8-51.5.1.1-11.8-35.5-22.9-70.4z" id="Layer_3"/>
    <path class="st0" d="M1514.1 1558.5v100H1420v-100h94.1zm-1082.3 0v100h94.1v-100h-94.1z" id="Layer_4"/>
    <path class="st0" d="M1157.2 1179.8c-38.7 57-104 94.5-178.1 94.5-118.8 0-215-96.3-215-215s96.3-215 215-215 215 96.3 215 215c0 44.6-13.7 86.1-36.9 120.5zm-34.1-118.6c0-.8-.7-1.5-1.5-1.5s-1.5.7-1.5 1.5.7 1.5 1.5 1.5c.9 0 1.5-.7 1.5-1.5zm-18.8-66.5c.7-.4 1-1.3.6-2s-1.3-1-2-.6-1 1.3-.6 2 1.3 1 2 .6zm-54.2-56.9c.4-.7.2-1.6-.6-2-.7-.4-1.6-.2-2 .5-.4.7-.2 1.6.5 2 .8.5 1.7.2 2.1-.5zm-6.6 243.7c0-.8-.7-1.5-1.5-1.5s-1.5.7-1.5 1.5.7 1.5 1.5 1.5 1.5-.7 1.5-1.5zm8.7-122.2c0-40.4-32.8-73.2-73.2-73.2-40.4 0-73.2 32.8-73.2 73.2 0 40.4 32.8 73.1 73.2 73.1 40.4 0 73.2-32.7 73.2-73.1zm-71.7-143.4c0-.8-.7-1.5-1.5-1.5s-1.5.7-1.5 1.5.7 1.5 1.5 1.5c.8-.1 1.5-.7 1.5-1.5zm0 284.8c0-.8-.7-1.5-1.5-1.5s-1.5.7-1.5 1.5.7 1.5 1.5 1.5c.8-.1 1.5-.7 1.5-1.5zm-73-14.7c.4-.7.2-1.6-.5-2-.7-.4-1.6-.2-2 .5-.4.7-.2 1.6.5 2 .7.5 1.6.3 2-.5zm-.6-247.6c.7-.4 1-1.3.5-2-.4-.7-1.3-1-2-.5-.7.4-.9 1.3-.5 2 .4.6 1.3.9 2 .5zm-54.7 191.9c.7-.4 1-1.3.6-2s-1.3-1-2-.6-1 1.3-.6 2 1.3 1 2 .6zm.6-136.2c.4-.7.1-1.6-.6-2-.7-.4-1.6-.1-2 .6-.4.7-.1 1.6.6 2 .7.4 1.6.1 2-.6zm-15.9 67.1c0-.8-.7-1.5-1.5-1.5s-1.5.7-1.5 1.5.7 1.5 1.5 1.5 1.5-.7 1.5-1.5z" id="Layer_5"/>
    <circle class="st0" cx="979" cy="1059.3" r="73.2" id="Layer_11"/>
    <g id="STROKES">
        <g id="XMLID_1_">
            <path class="st1" d="M889.3 436.9c57.1-.2 122.8-.2 179.4 0"/>
            <path class="st1" d="M1198.1 438.6c2 .1 3.7.2 4.9.3 90.7 7.2 97.9 83.5 97.9 83.5l-15.4 164.3c-3.4 38.4 22.2 73.3 59.9 81.4l219.4 47.4c38.5 8.3 76.9-14 88.8-51.5 0 0 36.6-116.9 41.4-134.3 53.2-190.8-145.4-245.1-148.6-246.3-40.3-15.7-258.7-123.2-569.9-122-311.3-1.3-529.7 106.3-569.9 122-3.2 1.2-181.5 51-148.6 246.3 1.5 9 9.8 36.2 18.5 63.8 11.1 34.9 22.9 70.4 22.9 70.4 11.9 37.5 50.4 59.8 88.8 51.5L607.6 768c37.6-8.1 63.3-43.1 59.9-81.4l-15.4-164.3s7.2-76.4 97.9-83.5c2.1-.2 5.5-.3 9.9-.5"/>
            <path class="st1" d="M1198.1 438.6v-25.8c0-35.7-29-64.7-64.7-64.7s-64.7 29-64.7 64.7v104.7H889.3V412.8c0-35.7-29-64.7-64.7-64.7s-64.7 29-64.7 64.7v170.6c0 16.3 6.6 31.1 17.3 41.8s25.5 17.3 41.8 17.3h320.1c32.6 0 59.1-26.5 59.1-59.1V438.6z"/>
            <path class="st1" d="M840.8 642.4v136.7c-174.4 0-382.3 321.9-514.7 348.3l-20.6 73.5v357.5h1347V1201l-20.6-73.5c-132.3-26.5-299.4-348.3-514.7-348.3V642.4"/>
            <path class="st1" d="M525.9 1558.5v100h-94.1v-100"/>
            <path class="st1" d="M1514.1 1558.5v100H1420v-100"/>
            <path class="st1" d="M1194.1 1059.3c0 44.6-13.6 86.1-36.9 120.5-38.7 57-104 94.5-178.1 94.5-118.8 0-215-96.3-215-215s96.3-215 215-215 215 96.2 215 215z"/>
            <circle class="st1" cx="979" cy="1059.3" r="73.2"/>
            <path class="st1" d="M1205 1206.1s-22.4-10.7-47.8-26.3c-22-13.5-46.3-30.7-60.1-47.7"/>
            <path class="st1" d="M836.9 1061.2c0 .8-.7 1.5-1.5 1.5s-1.5-.7-1.5-1.5.7-1.5 1.5-1.5 1.5.7 1.5 1.5z"/>
            <path class="st1" d="M1123.1 1061.2c0 .8-.7 1.5-1.5 1.5s-1.5-.7-1.5-1.5.7-1.5 1.5-1.5c.9 0 1.5.7 1.5 1.5z"/>
            <path class="st1" d="M907 1184c.7.4 1 1.3.5 2-.4.7-1.3.9-2 .5s-.9-1.3-.5-2c.4-.6 1.3-.9 2-.5z"/>
            <path class="st1" d="M1049.6 935.8c.7.4 1 1.3.6 2s-1.3 1-2 .5c-.7-.4-.9-1.3-.5-2 .3-.6 1.2-.9 1.9-.5z"/>
            <path class="st1" d="M852.8 1128.3c.4.7.1 1.6-.6 2-.7.4-1.6.1-2-.6-.4-.7-.1-1.6.6-2 .7-.4 1.6-.1 2 .6z"/>
            <path class="st1" d="M1104.9 992.7c.4.7.1 1.6-.6 2-.7.4-1.6.1-2-.6-.4-.7-.1-1.6.6-2 .7-.4 1.6-.1 2 .6z"/>
            <path class="st1" d="M905.5 935.8c-.7.4-.9 1.3-.5 2s1.3 1 2 .5c.7-.4 1-1.3.5-2-.4-.6-1.3-.9-2-.5z"/>
            <path class="st1" d="M850.2 992.7c-.4.7-.1 1.6.6 2 .7.4 1.6.1 2-.6.4-.7.1-1.6-.6-2-.8-.4-1.7-.1-2 .6z"/>
            <circle class="st1" cx="979" cy="915.9" r="1.5"/>
            <circle class="st1" cx="979" cy="1200.7" r="1.5"/>
            <path class="st1" d="M1042 1180.1c.8 0 1.5.7 1.5 1.5s-.7 1.5-1.5 1.5-1.5-.7-1.5-1.5c0-.9.7-1.5 1.5-1.5z"/>
            <path class="st1" d="M276.7 693.5s0 .1-.1.2c-4.3 6.6-121.9 189.2-17.5 276.2 103.2 86 123.5 123.5 123.5 123.5"/>
            <path class="st1" d="M1645.2 1390.8H307"/>
        </g>
    </g>
</svg>
