<svg xmlns="http://www.w3.org/2000/svg" viewBox="0 0 1920 1920">
    <style>
        .st0{fill:#fff}.st1{fill:none;stroke:#231f20;stroke-width:50;stroke-linecap:round;stroke-linejoin:round;stroke-miterlimit:10}
    </style>
    <circle class="st0" cx="960" cy="582.4" r="108" id="Layer_6"/>
    <g id="Layer_7">
        <path class="st0" d="M1221.5 432.5v63.1h-1.5s-21 286-261 286-259-276-259-276h-1.5v-73.1c0-34.7 28.2-62.9 62.9-62.9h397.2c34.8 0 62.9 28.1 62.9 62.9zM1068 582.4c0-59.7-48.4-108-108-108s-108 48.4-108 108 48.4 108 108 108 108-48.4 108-108z"/>
        <path class="st0" d="M1221.5 495.6v1137c0 37.5-30.4 67.8-67.9 67.8H766.3c-37.5 0-67.9-30.4-67.9-67.8v-1127h1.5s19 276 259 276 261-286 261-286h1.6zm-108.5 1028v-447.9H807v447.8h306zm0-539v-116H807v116h306z"/>
    </g>
    <path class="st0" d="M807 868.6h306v116H807z" id="Layer_8"/>
    <path class="st0" d="M1009 1075.8H807v447.8h306v-447.9h-104zm-100 335.1v-112.7h100v112.7H909zm100-112.6V1411H909v-112.7h100z" id="Layer_9"/>
    <path class="st0" d="M1141.1 255.5v114h-72v-114c0-9.9 4-18.9 10.5-25.5 6.5-6.5 15.5-10.6 25.5-10.6 19.8.1 36 16.2 36 36.1z" id="Layer_10"/>
    <g id="STROKES">
        <g id="XMLID_1_">
            <path class="st1" d="M1221.5 495.6v1137c0 37.5-30.4 67.8-67.9 67.8H766.3c-37.5 0-67.9-30.4-67.9-67.8V432.5c0-34.7 28.2-62.9 62.9-62.9h397.3c34.7 0 62.9 28.2 62.9 62.9v63.1z"/>
            <circle class="st1" cx="960" cy="582.4" r="108"/>
            <path class="st1" d="M1141.1 369.6v-114c0-19.9-16.1-36-36-36-9.9 0-19 4-25.5 10.6-6.5 6.5-10.5 15.5-10.5 25.5v114"/>
            <path class="st1" d="M807 868.6h306v116H807z"/>
            <path class="st1" d="M1113 1410.9v112.7H807v-447.8h306v222.5z"/>
            <path class="st1" d="M909 1078.6v441"/>
            <path class="st1" d="M1009 1078.6v441"/>
            <path class="st1" d="M1113 1185.6H811"/>
            <path class="st1" d="M1113 1298.3H811"/>
            <path class="st1" d="M1113 1410.9H811"/>
            <path class="st1" d="M919 1609.6h108"/>
            <path class="st1" d="M700 505.6s19 276 259 276 261-286 261-286"/>
        </g>
    </g>
</svg>
