<svg xmlns="http://www.w3.org/2000/svg" viewBox="0 0 1920 1920">
    <style>
        .st0{fill:#fff}.st1{fill:none;stroke:#231f20;stroke-width:50;stroke-linecap:round;stroke-linejoin:round;stroke-miterlimit:10}
    </style>
    <circle class="st0" cx="1555.1" cy="1070.8" r="63" id="Layer_5"/>
    <circle class="st0" cx="1555.1" cy="857.8" r="63" id="Layer_7"/>
    <path class="st0" d="M1401 951.3c11.3 51.9 19.7 155.9 19.7 251.1 0 114.6-12.9 190.2-28.6 249.8-20 75.7-83.5 127.8-155.7 127.8H541.7c-72.2 0-135.7-52.1-155.7-127.8-15.7-59.6-28.6-135.2-28.6-249.8 0-95.2 8.4-199.3 19.7-251.1 17.4-79.5 82.6-135.5 157.5-135.5h708.8c75 0 140.2 56 157.6 135.5z" id="Layer_6"/>
    <path class="st0" d="M1699.1 653.8v1049.3H216.9V653.8h1482.2zm-81 204c0-34.8-28.2-63-63-63s-63 28.2-63 63 28.2 63 63 63 63-28.2 63-63zm0 213c0-34.8-28.2-63-63-63s-63 28.2-63 63 28.2 63 63 63 63-28.2 63-63zm-197.4 131.6c0-95.2-8.4-199.3-19.7-251.1-17.3-79.5-82.6-135.5-157.5-135.5H534.6c-75 0-140.2 56-157.5 135.5-11.3 51.9-19.7 155.9-19.7 251.1 0 114.6 12.9 190.2 28.6 249.8 20 75.7 83.5 127.8 155.7 127.8h694.7c72.2 0 135.7-52.1 155.7-127.8 15.7-59.6 28.6-135.1 28.6-249.8z" id="Layer_8"/>
    <g id="STROKE">
        <g id="XMLID_2_">
            <path class="st1" d="M216.9 653.8h1482.2v1049.3H216.9z"/>
            <circle class="st1" cx="1555.1" cy="857.8" r="63"/>
            <circle class="st1" cx="1555.1" cy="1070.8" r="63"/>
            <path class="st1" d="M1236.4 1580c72.2 0 135.7-52.1 155.7-127.8 15.7-59.6 28.6-135.2 28.6-249.8 0-95.2-8.4-199.3-19.7-251.1-17.3-79.5-82.6-135.5-157.5-135.5H534.6c-75 0-140.2 56-157.5 135.5-11.3 51.9-19.7 155.9-19.7 251.1 0 114.6 12.9 190.2 28.6 249.8 20 75.7 83.5 127.8 155.7 127.8h694.7z"/>
            <path class="st1" d="M1051 935.8s189 18 231 222"/>
            <path class="st1" d="M1294.2 346.2s194.2 307.6 194.2 299.5c0-8.1 214.6-428.8 214.6-428.8"/>
        </g>
    </g>
</svg>
