<svg xmlns="http://www.w3.org/2000/svg" viewBox="0 0 1920 1920">
    <style>
        .st0{fill:#fff}.st1{fill:none;stroke:#231f20;stroke-width:50;stroke-linecap:round;stroke-linejoin:round;stroke-miterlimit:10}
    </style>
    <path class="st0" d="M730.2 1374.8l-303.6 303.6c-12.8 12.8-33.6 12.8-46.4 0l-33.3-33.2c-12.8-12.8-12.8-33.6 0-46.4l303.6-303.6c12.8-12.8 33.6-12.8 46.4 0l33.2 33.2c13 12.8 13 33.6.1 46.4z" id="Layer_5"/>
    <g id="STROKES">
        <g id="XMLID_1_">
            <path class="st1" d="M907.6 773.3C923 673.8 975.5 569.5 1062 483c176.2-176.2 426.6-211.5 559.2-78.8 132.7 132.7 97.4 383-78.8 559.2-86.5 86.5-190.8 139-290.3 154.4-103.3 16-201.4-8-268.9-75.6s-91.6-165.6-75.6-268.9z"/>
            <path class="st1" d="M907.4 773.2c-1 5.1-62.2 325.5-193.3 537.3"/>
            <path class="st1" d="M1252.2 1118.1c-5 1-325.5 62.2-537.3 193.3"/>
            <path class="st1" d="M380.3 1678.4l-33.3-33.2c-12.8-12.8-12.8-33.6 0-46.4l303.6-303.6c12.8-12.8 33.6-12.8 46.4 0l33.2 33.2c12.8 12.8 12.8 33.6 0 46.4l-303.6 303.6c-12.7 12.8-33.5 12.8-46.3 0z"/>
            <path class="st1" d="M356.3 373.9c85.7-168.8 429-99.2 597.8-13.5"/>
            <path class="st1" d="M219.2 565.6c85.7-168.8 429-99.2 597.8-13.5"/>
            <path class="st1" d="M445 1659.9v-153"/>
            <path class="st1" d="M539.5 1565.4v-153.1"/>
            <path class="st1" d="M634 1470.9v-153.1"/>
        </g>
    </g>
</svg>
