<svg xmlns="http://www.w3.org/2000/svg" viewBox="0 0 1920 1920">
    <style>
        .st0{fill:#fff}.st1{fill:none;stroke:#231f20;stroke-width:50;stroke-linecap:round;stroke-linejoin:round;stroke-miterlimit:10}
    </style>
    <path class="st0" d="M617.2 1381.2l-315.4 315.4c-16.1 16.1-42.1 16.1-58.2 0l-20.2-20.2c-16.1-16.1-16.1-42.1 0-58.2l315.5-315.4 78.3 78.4z" id="Layer_3"/>
    <path class="st0" d="M1576.8 781.3c79.5-149.9 75.5-315.6-23.5-414.6s-264.7-103-414.6-23.5c-47.8 25.3-94 59.2-136 101.1-173.5 173.5-208.2 419.9-77.6 550.6s377.1 95.9 550.6-77.6c41.9-41.9 75.7-88.1 101.1-136zm31.5-469.6c160.2 160.3 124.9 455.5-79 659.3-123.6 123.6-280.8 185.3-421.1 179-91.1-4.1-175.2-36.9-238.3-100-63.1-63.1-95.9-147.1-100-238.3-6.3-140.3 55.4-297.5 179-421.1 204-203.8 499.2-239.2 659.4-78.9z" id="Layer_4"/>
    <g id="STROKES">
        <g id="XMLID_1_">
            <path class="st1" d="M1576.8 781.3c-25.3 47.8-59.2 94-101.1 136-173.5 173.5-420 208.2-550.6 77.6s-95.9-377.1 77.6-550.6c42-42 88.2-75.8 136-101.1 149.9-79.5 315.6-75.5 414.6 23.5s102.9 264.7 23.5 414.6z"/>
            <path class="st1" d="M770 811.8c-6.3-140.3 55.4-297.5 179-421.1 203.9-203.9 499.1-239.3 659.3-79 160.2 160.3 124.9 455.5-79 659.3-123.6 123.6-280.8 185.3-421.1 179-91.1-4.1-175.2-36.9-238.3-100-63-63.1-95.8-147.1-99.9-238.2z"/>
            <path class="st1" d="M768.7 811.8s-60.2 318.8-190.3 529"/>
            <path class="st1" d="M1108.2 1151.3s-318.8 60.2-529 190.3"/>
            <path class="st1" d="M243.6 1696.7l-20.2-20.2c-16.1-16.1-16.1-42.1 0-58.2l315.5-315.4 78.4 78.4-315.4 315.4c-16.3 16.1-42.3 16.1-58.3 0z"/>
            <path class="st1" d="M1047.8 410.1l74.5 74.5 77.9 77.9 77.8 77.8 77.9 77.9 77.8 77.8 74.5 74.5"/>
            <path class="st1" d="M980.6 500.6l62.9 62.9 77.8 77.8 77.9 77.9L1277 797l77.9 77.9 64.5 64.5"/>
            <path class="st1" d="M920.1 597.8l44.5 44.5 77.9 77.9 77.8 77.8 77.9 77.9 77.8 77.8 42.8 42.8"/>
            <path class="st1" d="M1262.2 309.1l17.8 17.8 77.9 77.9 77.8 77.8 77.9 77.9 77.8 77.8 22.8 22.8"/>
            <path class="st1" d="M1138.3 342.9l.4.3 62.5 62.6 77.8 77.8 77.9 77.9 77.8 77.8 77.9 77.9 64.2 64.1.3.4"/>
            <path class="st1" d="M888 723.4l75.6 75.6 77.9 77.8 77.8 77.9 67.3 67.3"/>
            <path class="st1" d="M1543.8 374.5l-108.1 108.1-78.8 78.9-78.9 78.8-78.8 78.9-78.9 78.8-78.8 78.8-107.4 107.4"/>
            <path class="st1" d="M1449.3 313.3l-91.4 91.5-78.9 78.8-78.8 78.9-78.9 78.8-78.8 78.9-78.9 78.8-93.2 93.2"/>
            <path class="st1" d="M1313.1 293.9l-33.1 33-78.8 78.9-78.9 78.8-78.8 78.9-78.9 78.8L851 756"/>
            <path class="st1" d="M1624.5 605.3l-33.1 33-78.8 78.9-78.9 78.8-78.8 78.9-78.9 78.8-113.6 113.6"/>
            <path class="st1" d="M1605 469l-91.4 91.5-78.9 78.8-78.8 78.9L1277 797l-78.8 78.9-78.9 78.8-93.2 93.2"/>
            <path class="st1" d="M305 1543v144"/>
            <path class="st1" d="M408 1440v144"/>
            <path class="st1" d="M507 1341v144"/>
        </g>
    </g>
</svg>
