<svg xmlns="http://www.w3.org/2000/svg" viewBox="0 0 1920 1920">
    <style>
        .st0{fill:#fff}.st1{fill:none;stroke:#231f20;stroke-width:50;stroke-linecap:round;stroke-linejoin:round;stroke-miterlimit:10}
    </style>
    <path class="st0" d="M913 1289.1h94v413h-94z" id="Layer_1"/>
    <g id="STROKES">
        <g id="XMLID_1_">
            <path class="st1" d="M756.7 856.8C707 789 676.5 696.4 676.5 594.4c0-208 126.9-376.5 283.5-376.5s283.5 168.6 283.5 376.5c0 102.1-30.6 194.6-80.2 262.5C1111.8 927.3 1039.7 971 960 971c-79.8-.1-151.8-43.8-203.3-114.2z"/>
            <path class="st1" d="M756.5 856.9c1.2 1.8 155.2 228 203 431.2"/>
            <path class="st1" d="M1163.5 856.9c-2.4 3.6-155.4 228.8-203 431.2"/>
            <path class="st1" d="M913 1289.1h94v413h-94z"/>
        </g>
    </g>
</svg>
