<svg xmlns="http://www.w3.org/2000/svg" viewBox="0 0 1920 1920">
    <style>
        .st0{fill:#fff}.st1{fill:none;stroke:#231f20;stroke-width:50;stroke-linecap:round;stroke-linejoin:round;stroke-miterlimit:10}
    </style>
    <path class="st0" d="M960.1 428.8c308.1 0 530.7 454.6 647.9 769.1l-325.5-275-229.7-194.1c-53.6-45.3-132-45.3-185.7-.1L711.3 860.1l-69.1 58.3-329.9 278.4-1.2-.5C428.4 882 650.8 428.8 958.4 428.8h1.7zm647.9 769.1l-325.5-275c7 16.6 11.8 39.2 11.8 58.4v304.9c0 63-51.1 114.1-114.1 114.1H744.4c-63 0-114.1-51.1-114.1-114.1V981.3c0-18.2 5.7-46.9 12-62.9l-329.9 278.4-1.2-.5c-62.3 167-94.9 294.8-94.9 294.8h1486.2c-.2.1-32.6-127-94.5-293.2z" id="Layer_3"/>
    <path class="st0" d="M1294.2 1177.9c-124-12.7-516.2-81.5-582.9-317.8l155.8-131.4c53.6-45.3 132.1-45.2 185.7.1l229.7 194.1c7 16.6 11.8 39.2 11.8 58.4v196.6z" id="Layer_4"/>
    <path class="st0" d="M711.3 860.1c170.4 600.5 461.8 478.4 582.9 317.8v108.2c0 63-51.1 114.1-114.1 114.1H744.4c-63 0-114.1-51.1-114.1-114.1V981.3c0-18.2 5.7-46.9 12-62.9l69-58.3z" id="Layer_5"/>
    <path class="st0" d="M1294.2 1177.9c-121.2 160.6-412.5 282.7-582.9-317.8 66.7 236.3 459 305.1 582.9 317.8z" id="Layer_6"/>
    <g id="STROKES">
        <g id="XMLID_1_">
            <path class="st1" d="M958.4 428.8c-307.6 0-530 453.2-647.3 767.6-62.3 167-94.9 294.8-94.9 294.8h1487.7"/>
            <path class="st1" d="M1702.3 1491.2s-32.4-127.1-94.4-293.3C1490.8 883.4 1268.1 428.8 960 428.8"/>
            <path class="st1" d="M711.3 860.1c66.7 236.3 459 305.1 582.9 317.8-121.1 160.7-412.5 282.7-582.9-317.8z"/>
            <path class="st1" d="M1282.4 922.8l325.6 275.1 4 3.3"/>
            <path class="st1" d="M312.3 1196.8l329.9-278.4 69.1-58.3 155.8-131.4c53.6-45.3 132.1-45.2 185.7.1l229.7 194.1"/>
            <path class="st1" d="M364.4 1078.2l526.9-516.6c38.1-37.4 99.1-37.4 137.3 0l531.3 521"/>
            <path class="st1" d="M959.9 686.8v-147"/>
            <path class="st1" d="M1282.4 922.8c7 16.6 11.8 39.2 11.8 58.4v304.9c0 63-51.1 114.1-114.1 114.1H744.4c-63 0-114.1-51.1-114.1-114.1V981.3c0-18.2 5.7-46.9 12-62.9"/>
        </g>
    </g>
</svg>
