<svg xmlns="http://www.w3.org/2000/svg" viewBox="0 0 1920 1920">
    <style>
        .st0{fill:#fff}.st1{fill:none;stroke:#231f20;stroke-width:50;stroke-linecap:round;stroke-linejoin:round;stroke-miterlimit:10}
    </style>
    <path class="st0" d="M1530.9 980.4c40 0 72.5 32.5 72.5 72.5 0 15.3-4.7 29.4-12.8 41.1-13.1 18.9-34.9 31.4-59.7 31.4-24.8 0-46.6-12.4-59.7-31.4-8.1-11.7-12.8-25.8-12.8-41.1 0-40.1 32.5-72.5 72.5-72.5zm-59.7 113.6v609.2h119.4V1094c-13.1 18.9-34.9 31.4-59.7 31.4-24.7-.1-46.6-12.5-59.7-31.4zM329.4 1703.1h119.4V1094c-13.1 18.9-34.9 31.4-59.7 31.4s-46.6-12.4-59.7-31.4v609.1zm-12.8-650.2c0 15.3 4.7 29.4 12.8 41.1 13.1 18.9 34.9 31.4 59.7 31.4s46.6-12.4 59.7-31.4c8.1-11.7 12.8-25.8 12.8-41.1 0-40-32.4-72.5-72.5-72.5s-72.5 32.4-72.5 72.5z" id="Layer_13"/>
    <path class="st0" d="M1292.6 216.2v902H627.4v-902h665.2zm-86.7 813.9V304.2H719v725.9h486.9z" id="Layer_14"/>
    <path class="st0" d="M1081.9 421.8l-25.7 23.5c-3.8-10.3-8.4-20.7-14.1-30.9-.3-.5-.6-1-.8-1.5-.1-.2-.2-.4-.4-.7-29.9-53.2-70-70-95-67.1 0 0-60.1 6.2-73.8 53.1 0 0-16.6 17.5-23.8 34.2l-9.4-14.5-33.8 35-34.5 26.4-19.4-66.3-31.2 46.8h-1V304.2h486.9v121.5h-1.9s-33.2 57.6-33.2 60.5-36.1 5.9-36.1 5.9l-16.6-49.8-36.2-20.5z" id="Layer_15"/>
    <g id="Layer_16">
        <path class="st0" d="M1205.9 699s-34.2-20.3-69.5-33.6c-10.1-26.4-21.7-47.8-34.8-56.8-29.9-20.5-18.3-90.6-45.3-163.4l25.7-23.5 36.1 20.5 16.6 49.8s36.1-2.9 36.1-5.9 33.2-60.5 33.2-60.5h1.9V699z"/>
        <path class="st0" d="M827.2 568.2c13.5 27.8 31.6 60.7 24.2 77.8-1.7 3.9-4.7 7-9.5 9-25.4 10.7-29.3 90.7-52.7 103.4-23.4 12.7-63.4 46.8-69.3 93.7h-1V459.8h1l31.2-46.8 19.5 66.3 34.5-26.4 33.8-35 9.4 14.5c-2.9 6.8-4.2 13.5-2.3 18.8.1 0-35.4 82.8-18.8 117z"/>
    </g>
    <path class="st0" d="M1009.1 673.2l-4.2 3.3c9.8-12.7 12.6-82.1-3-101.6-2.8-3.5-2.9-10-1.1-18.3 7.7-37.2 50.4-112.8 38.4-142.6-.1-.2-.2-.5-.3-.7-.1-.2-.2-.5-.3-.7l2.4-.4c.1.2.2.4.4.7.3.5.6 1 .8 1.5 5.6 10.3 10.2 20.6 14.1 30.9 27.1 72.7 15.4 142.9 45.3 163.4 13.1 9 24.7 30.4 34.8 56.8-32.2-12.1-68.6-21.8-89.5-14.4-10.6 3.8-23.7 11.4-37.6 22.1h-.2zM848.4 432.4c-2.9 6.8-4.2 13.5-2.3 18.8 0 0-35.5 82.8-18.9 117 13.5 27.8 31.6 60.7 24.2 77.8l29.7-13.6c13.7-31.3 42.8-66.7 42.8-66.7-10.2-7.8-21-21.4-25.3-28.7-5.9-9.8-17.5-44.6-15.6-52.4 1.9-7.7-10.6-84.9-10.8-86.3 0-.2-16.7 17.3-23.8 34.1z" id="Layer_17"/>
    <path class="st0" d="M945.9 345c25-2.9 65.2 13.9 95 67.1l-2.4.4c.1.2.2.5.3.7.1.2.2.5.3.7 11.9 29.8-30.7 105.4-38.4 142.6 0 0-31.7 25-67.1 14.4-3-.9-6.4-2.9-9.8-5.5-10.2-7.8-21-21.4-25.3-28.7-5.9-9.8-17.5-44.6-15.6-52.4 1.9-7.7-10.6-84.9-10.8-86.3 13.7-46.7 73.8-53 73.8-53zm-71.8 311.9c-2 33.2 90.5 43 106.1 42 8.3-8.4 16.6-15.9 24.7-22.4 9.8-12.7 12.6-82.1-3-101.6-2.8-3.5-2.9-10-1.1-18.3 0 0-31.7 25-67.1 14.4-3-.9-6.4-2.9-9.8-5.5 0 0-29.1 35.4-42.8 66.7-3.9 8.9-6.5 17.4-7 24.7z" id="Layer_18"/>
    <path class="st0" d="M874.1 656.9c-2 33.2 90.5 43 106.1 42 8.3-8.4 16.6-15.9 24.7-22.4l4.2-3.3.1-.1c13.9-10.7 26.9-18.3 37.6-22.1 21-7.5 57.3 2.2 89.5 14.4 16.4 42.7 28.9 98.5 37.3 135.9 13.7 60.5 14.6 159 32.2 178.5v50.2H719V852h1c5.9-46.8 45.9-81 69.3-93.7 23.4-12.7 27.3-92.7 52.7-103.4 4.7-2 7.8-5.1 9.5-9l29.7-13.6c-4 8.8-6.6 17.3-7.1 24.6zM912.9 930c-15.7-7.1-30-16.7-38.8-29.2 0 0-18.3-5.6-39.8-7.2l-.2 2.4s-22.5 36.1-2.9 62.4c.4.6.8 1.1 1.2 1.6 11 14.3 33.3 9.8 38.9-7.4.5-1.5 1.1-2.6 1.8-3 4.9-2.9 39.8-19.6 39.8-19.6zm-78.6-36.4l-.2 2.4s-22.5 36.1-2.9 62.4c.4.6.8 1.1 1.2 1.6 11 14.3 33.3 9.8 38.9-7.4.5-1.5 1.1-2.6 1.8-3 4.9-2.9 39.8-19.6 39.8-19.6-15.7-7.1-30-16.7-38.8-29.2 0 0-18.3-5.6-39.8-7.2zm339.4-92.3c13.7 60.5 14.6 159 32.2 178.5V699s-34.2-20.3-69.5-33.6c16.3 42.7 28.8 98.5 37.3 135.9z" id="Layer_19"/>
    <g id="STROKES">
        <g id="XMLID_2_">
            <g id="XMLID_1_">
                <path class="st1" d="M1205.9 979.9v50.2H719V304.2h486.9v121.5"/>
                <path class="st1" d="M872.2 398.1s-16.6 17.5-23.8 34.2c-2.9 6.8-4.2 13.5-2.3 18.8 0 0-35.5 82.8-18.9 117 13.5 27.8 31.6 60.7 24.2 77.8-1.7 3.9-4.7 7-9.5 9-25.4 10.7-29.3 90.7-52.7 103.4-23.4 12.7-63.4 46.8-69.3 93.7"/>
                <path class="st1" d="M1205.9 979.9c-17.6-19.5-18.5-118.1-32.2-178.5-8.4-37.4-20.9-93.2-37.3-135.9-10.1-26.4-21.7-47.8-34.8-56.8-29.9-20.5-18.3-90.6-45.3-163.4-3.8-10.3-8.4-20.7-14.1-30.9-.3-.5-.6-1-.8-1.5-.1-.2-.2-.4-.4-.7-29.9-53.2-70-70-95-67.1 0 0-60.1 6.2-73.8 53.1"/>
                <path class="st1" d="M720 459.8l31.2-46.8 19.5 66.3 34.5-26.4 33.8-35 9.4 14.5"/>
                <path class="st1" d="M1056.2 445.3l25.7-23.5 36.1 20.5 16.6 49.8s36.1-2.9 36.1-5.9 33.2-60.5 33.2-60.5"/>
                <path class="st1" d="M1038.6 412.5c.1.2.2.5.3.7.1.2.2.5.3.7 11.9 29.8-30.7 105.4-38.4 142.6-1.7 8.4-1.7 14.8 1.1 18.3 15.6 19.5 12.7 88.9 3 101.6"/>
                <path class="st1" d="M1205.9 699s-34.2-20.3-69.5-33.6c-32.2-12.1-68.6-21.8-89.5-14.4-10.6 3.8-23.7 11.4-37.6 22.1l-.1.1-4.2 3.3c-8.1 6.5-16.4 14-24.7 22.4-35.2 35.5-69.3 86.4-79.7 141.4"/>
                <path class="st1" d="M822.4 803.3c2 3.9 25.4 38 53.7 37.1 28.3-1 104.4 29.3 121 59.5 16.6 30.2 3.9 46.8-10.7 47.8-9.6.6-43.8-4.1-73.4-17.6-15.7-7.1-30-16.7-38.8-29.2 0 0-18.3-5.6-39.8-7.2-8.3-.6-17.1-.7-25.5.4-30.2 3.9-86.3-44.5-86.3-44.5"/>
                <path class="st1" d="M834.1 896s-22.5 36.1-2.9 62.4c.4.6.8 1.1 1.2 1.6 11 14.3 33.3 9.8 38.9-7.4.5-1.5 1.1-2.6 1.8-3 4.9-2.9 39.8-19.6 39.8-19.6"/>
                <path class="st1" d="M990.2 882.3s30.2-2.9 52.7-5.9c22.4-2.9 47.8 17.6 47.8 17.6"/>
                <path class="st1" d="M872.2 398.1c.2 1.4 12.7 78.6 10.8 86.4-1.9 7.8 9.7 42.7 15.6 52.4 4.4 7.3 15.1 20.8 25.3 28.7 3.4 2.6 6.7 4.6 9.8 5.5 35.4 10.5 67.1-14.4 67.1-14.4"/>
                <path class="st1" d="M923.9 565.6s-29.1 35.4-42.8 66.7c-3.9 8.8-6.5 17.3-6.9 24.6-2 33.2 90.5 43 106.1 42"/>
                <path class="st1" d="M958 860.8c2-3.9 96.6-119 180.5-143.4"/>
                <path class="st1" d="M627.4 216.2h665.2v902H627.4z"/>
                <path class="st1" d="M329.4 1094c-8.1-11.7-12.8-25.8-12.8-41.1 0-40 32.5-72.5 72.5-72.5s72.5 32.5 72.5 72.5c0 15.3-4.7 29.4-12.8 41.1-13.1 18.9-34.9 31.4-59.7 31.4s-46.7-12.5-59.7-31.4z"/>
                <path class="st1" d="M329.4 1094v609.1"/>
                <path class="st1" d="M448.8 1094v609.1"/>
                <path class="st1" d="M265.9 1703.1h246.3"/>
                <path class="st1" d="M1471.2 1094c-8.1-11.7-12.8-25.8-12.8-41.1 0-40 32.5-72.5 72.5-72.5s72.5 32.5 72.5 72.5c0 15.3-4.7 29.4-12.8 41.1-13.1 18.9-34.9 31.4-59.7 31.4-24.7-.1-46.6-12.5-59.7-31.4z"/>
                <path class="st1" d="M1471.2 1094v609.2"/>
                <path class="st1" d="M1590.6 1094v609.2"/>
                <path class="st1" d="M1407.8 1703.2h246.3"/>
                <path class="st1" d="M463.7 1248.8s451 342.2 1004.3 0"/>
            </g>
        </g>
        <path class="st1" d="M1205.9 979.9v50.2H719V304.2h486.9v121.5z"/>
    </g>
</svg>
