<svg xmlns="http://www.w3.org/2000/svg" viewBox="0 0 1920 1920">
    <style>
        .st0{fill:#fff}.st1{fill:none;stroke:#231f20;stroke-width:50;stroke-linecap:round;stroke-linejoin:round;stroke-miterlimit:10}
    </style>
    <path class="st0" d="M584.3 1100.1v117.1H243.1v-183.7h67.3v40.1h62.4v-40.1h82.5v45.7h60.5v-45.7h68.6v66.6zm1016.9-360.3v45.7h-60.5v-45.7h-82.5v40.1h-62.4v-40.1h-67.2v183.7h341.2V739.8h-68.6zM761.3 524.4h-79v-51.9H574.4V525h-81.8v98.1h268.6v-98.7z" id="Layer_9"/>
    <path class="st0" d="M1328.7 889.4v34.2l-25.6 387.9-694.4 196.8-24.5-291.1v-117.1l75.4-21.4 10.9 38.6 60-17-10.9-38.6 79.3-22.5 12.5 44 58.2-16.5-12.5-44 66-18.7 12.2 42.9 64-18.1-12.1-42.9 4.3-1.2 60.4-17.1 10.9 38.6 60-17-10.9-38.6 79.3-22.5 12.5 44 58.2-16.5-12.5-44 78.6-22.2h.7zm-.6-101.8l-49.3-14.1-47.2-13.4 8.6-30.4-62.5-17.7-45.8-13-52-14.7-9.6 33.8-50.4-14.3-50-17.9-47.2-13.4 4.4-15.4 4.2-15L823 611.6l-61.6-17.5h-.2V623l25.7 305.4 204.7 56.2 60.4-17.1 10.9 38.6 60-17-10.9-38.6 79.3-22.5 12.5 44 58.2-16.5-12.5-44 78.6-22.2h.6V787.6h-.6zM1172.8 372l-128.7 40.5 5.4 19-29.6 8.4-31.3 11.2L957 460l-6-21.2-32.6 9.2-28.7 8.1-39.1 11.1 5.4 19-64.8 21.1-29.8 8.5v8.5h-.2V594h.2l61.6 17.5 108.3 30.7-4.2 15 268.3-86.8 14.9-209.1-37.5 10.7z" id="Layer_10"/>
    <path class="st0" d="M608.7 1508.3l8.1 96.9H217.5l25.6-387.9h341.2l24.4 291zm-152.4-9.9s17.8-174.4-38.4-174.4-40.3 174.4-40.3 174.4h78.7zm1213.6-574.8l32.6 387.9h-399.4l25.6-387.9h341.2zm-128 281.1s17.8-174.4-38.4-174.4-40.3 174.4-40.3 174.4h78.7zM761.3 623.1L787 928.5H472.5l20.1-305.4h268.7zM660.5 844.4s14-137.3-30.3-137.3-31.7 137.3-31.7 137.3h62zM1211 350.8l-.8 10.5-14.9 209.1h196.9L1377 350.8h-166z" id="Layer_11"/>
    <path class="st0" d="M630.2 707.1c44.3 0 30.3 137.3 30.3 137.3h-62S586 707.1 630.2 707.1zm832.9 497.6h78.8s17.8-174.4-38.4-174.4-40.4 174.4-40.4 174.4zM377.5 1498.4h78.8s17.8-174.4-38.4-174.4-40.4 174.4-40.4 174.4z" id="Layer_12"/>
    <g id="STROKES">
        <g id="XMLID_2_">
            <g id="XMLID_1_">
                <path class="st1" d="M584.3 1100.1v-66.6h-68.7v45.7h-60.5v-45.7h-82.4v40.1h-62.4v-40.1h-67.2v183.7h341.2z"/>
                <path class="st1" d="M243.1 1217.2l-25.6 388h399.4l-8.2-96.9-24.4-291.1"/>
                <path class="st1" d="M456.3 1498.4s17.8-174.4-38.4-174.4-40.3 174.4-40.3 174.4h78.7z"/>
                <path class="st1" d="M492.7 478.4v144.7h268.6V478.4"/>
                <path class="st1" d="M492.7 623.1l-20.2 305.4h314.4l-25.6-305.4"/>
                <path class="st1" d="M660.5 844.4s14-137.3-30.3-137.3-31.7 137.3-31.7 137.3h62z"/>
                <path class="st1" d="M1669.9 923.6V739.8h-68.7v45.8h-60.4v-45.8h-82.5v40.1h-62.4v-40.1h-67.2v183.8h277.4z"/>
                <path class="st1" d="M1328.7 923.6l-25.6 387.9h399.4l-32.6-387.9"/>
                <path class="st1" d="M1541.9 1204.7s17.8-174.4-38.4-174.4-40.3 174.4-40.3 174.4h78.7z"/>
                <path class="st1" d="M584.3 1100.1l75.4-21.3 10.9 38.5 60-17-10.9-38.5 79.3-22.5 12.5 44 58.2-16.5-12.5-44 66-18.7 12.2 42.9 64-18.1-12.1-43 4.3-1.2 60.4-17.1 11 38.6 59.9-17-10.9-38.6 79.4-22.5 12.4 44 58.2-16.5-12.4-44 78.5-22.2"/>
                <path class="st1" d="M608.7 1508.3l694.4-196.8"/>
                <path class="st1" d="M775.3 1224.2v77.7"/>
                <path class="st1" d="M937 1175.1v77.7"/>
                <path class="st1" d="M1098.6 1123.9v77.8"/>
                <path class="st1" d="M1328.1 787.6l-49.3-14.1-47.2-13.3 8.6-30.4-62.5-17.7-45.8-13-52-14.7-9.6 33.8-50.3-14.3-50.1-17.9-47.2-13.4 4.4-15.3 4.2-15L823 611.6l-61.6-17.5"/>
                <path class="st1" d="M991.6 984.7l-204.7-56.2"/>
                <path class="st1" d="M1196.4 857.6v61.2"/>
                <path class="st1" d="M1069.1 819v61.2"/>
                <path class="st1" d="M941.8 778.7v61.2"/>
                <path class="st1" d="M761.4 472.5v51.9h-79.1v-51.9H574.4V525h-81.5v-52.5"/>
                <path class="st1" d="M1377 350.8l15.3 219.7h-196.9l14.8-209.1.8-10.6"/>
                <path class="st1" d="M1297 470.8v82"/>
                <path class="st1" d="M760.3 516.2l1-.2.1-.1 29.8-8.5 64.8-21.1-5.4-19 39.1-11.1 28.7-8.1 32.6-9.3 6 21.2 31.6-8.9 31.3-11.2 29.6-8.4-5.4-19 128.7-40.5 37.4-10.6"/>
                <path class="st1" d="M927.1 657.3l268.3-86.8"/>
                <path class="st1" d="M880.9 568.8v27.7"/>
                <path class="st1" d="M992.6 536.8v25.4"/>
                <path class="st1" d="M1100.3 496.8V519"/>
                <path class="st1" d="M1211 314.8v36h166v-36"/>
                <path class="st1" d="M1289 314.8v34"/>
            </g>
        </g>
    </g>
</svg>
