<svg xmlns="http://www.w3.org/2000/svg" viewBox="0 0 1920 1920">
    <style>
        .st0{fill:#fff}.st1{fill:none;stroke:#231f20;stroke-width:50;stroke-linecap:round;stroke-linejoin:round;stroke-miterlimit:10}
    </style>
    <path class="st0" d="M1100 1634.4c1.2 0 2.2-1 2.2-2.2 0-1.2-1-2.2-2.2-2.2s-2.2 1-2.2 2.2c-.1 1.2.9 2.2 2.2 2.2zm-279 0c1.2 0 2.2-1 2.2-2.2 0-1.2-1-2.2-2.2-2.2s-2.2 1-2.2 2.2c-.1 1.2 1 2.2 2.2 2.2zm-269.4-81.3c-14.4 8.6-90.3 51-139 19.8h-.6V339.1h.6c51-32.6 139.1 15 148.8 20.5.9 1.6 1.5 2.4 1.5 2.4v1196h793.2v.1l1.5 2.4c9.7 5.5 97.9 53 148.8 20.5h1.6v122H531.1v-1.1c-32.6-51 15.1-139.1 20.5-148.8zm-62.9-274.2c1.2 0 2.2-1.1 2.2-2.5s-1-2.5-2.2-2.5-2.2 1.1-2.2 2.5c0 1.3 1 2.5 2.2 2.5zm0-316.4c1.2 0 2.2-1.1 2.2-2.5s-1-2.5-2.2-2.5-2.2 1.1-2.2 2.5 1 2.5 2.2 2.5zm0-316.4c1.2 0 2.2-1.1 2.2-2.5s-1-2.5-2.2-2.5-2.2 1.1-2.2 2.5 1 2.5 2.2 2.5zm944.2 630.3c0 1.4 1 2.5 2.2 2.5 1.2 0 2.2-1.1 2.2-2.5s-1-2.5-2.2-2.5c-1.2 0-2.2 1.1-2.2 2.5zm0-316.4c0 1.4 1 2.5 2.2 2.5 1.2 0 2.2-1.1 2.2-2.5s-1-2.5-2.2-2.5c-1.2 0-2.2 1.1-2.2 2.5zm0-316.4c0 1.4 1 2.5 2.2 2.5 1.2 0 2.2-1.1 2.2-2.5s-1-2.5-2.2-2.5c-1.2 0-2.2 1.2-2.2 2.5zm-75.3 916.9c-.9-1.6-1.5-2.4-1.5-2.4v-.1h9V370.4c.2-.1 1-.6 2.4-1.4 14.4-8.6 90.3-51 139-19.8h1.6V1581h-1.6c-51.1 32.5-139.2-15.1-148.9-20.5zM819.1 294.1c1.2 0 2.2-1 2.2-2.2 0-1.2-1-2.2-2.2-2.2s-2.2 1-2.2 2.2c-.1 1.2.9 2.2 2.2 2.2zm278.9 0c1.2 0 2.2-1 2.2-2.2 0-1.2-1-2.2-2.2-2.2s-2.2 1-2.2 2.2c0 1.2 1 2.2 2.2 2.2zM562.9 362l-1.5-2.4c-9.7-5.5-97.9-53-148.8-20.5h-.6V217h1096v132.2h-1.6c-48.7-31.1-124.6 11.2-139 19.8-1.3.8-2.2 1.3-2.4 1.4V362H562.9zm-11.3 1191.1c-5.4 9.7-53.1 97.9-20.5 148.8v1.1H412v-130.1h.6c48.7 31.1 124.6-11.2 139-19.8z" id="Layer_7"/>
    <path class="st0" d="M816 635l-55.4-85.8L705 607l-56.9 43.5L616 541.2l-53 79.6V362h802.2v194.7s-57.9 100.2-57.9 105c0 4.8-59.5 9.7-59.5 9.7l-27.3-82-59.5-33.8-61.9 56.6c-1.2-8.4-2.5-16.6-4-24.4-19.3-101.3-110.9-112.5-152.7-107.7 0 0-65.7-1.5-89.8 69.9-.6 1.8-1.2 3.7-1.8 5.7 0 0-4.2 6.5-9.6 16.5-9.2 16.4-21.7 41.9-25.2 62.8z" id="Layer_8"/>
    <path class="st0" d="M1365.1 556.8v452.8s-80.9-43.6-153.7-65.8c-16.5-24.9-33.3-44.5-48.9-55.3-51.9-35.6-49.1-175.2-63.5-276.2l61.9-56.6 59.5 33.8 27.3 82s59.5-4.8 59.5-9.7c0-4.8 57.9-105 57.9-105zm-102.5 481.9c21.9 48.7 40 100.3 49.5 142.3 22.5 99.7 24.1 262 53 294.2v-465.7s-80.9-43.6-153.7-65.8c17.9 27 35.5 60.2 51.2 95zM819.3 848.3c1.2-19-1.8-38.5-10.4-56.3-27.3-56.3 8-135 8-135-2.2-6-2.2-13.6-.9-21.9l-55.4-85.8L705 607l-56.9 43.5L616 541.2l-53 79.6v232.4l53.5 33.9 1.2-1.9s48.2-43.4 65.9-41.8c4.7.4 15.4 1 28.8 1.5 37.1 1.6 102.2 3.4 106.9 3.4zm-53.8 91.6c12.9-5.5 24.6-16.3 33.8-30.4 11.1-17 18.6-38.8 20-61.3-4.7 0-69.8-1.7-107-3.3-13.4-.6-24.1-1.1-28.8-1.5-17.7-1.6-65.9 41.8-65.9 41.8l-1.2 1.9-53.5-33.9v411.4h1.6c9.6-77.2 75.5-133.4 114.1-154.3 38.6-20.9 45.1-152.7 86.9-170.4zm-202.6 324.7v237.6c5.1-79.1 104-176.6 104-176.6-48.2-18.5-102.5-61.1-102.5-61.1h-1.5z" id="Layer_9"/>
    <path class="st0" d="M942.3 480.1c41.8-4.8 133.4 6.4 152.7 107.7 1.5 7.8 2.8 16 4 24.4 14.4 100.9 11.6 240.6 63.5 276.2 15.6 10.7 32.4 30.4 48.9 55.3-41.3-12.6-82.1-19.6-108.4-10.2-17.4 6.2-38.9 18.9-61.8 36.8 16.1-20.9 13.6-130.1-12.1-162.2-4.4-5.6-6.6-15.3-7.3-27.7-3.5-59.7 25.3-182.9-12-221.4-45-46.6-157.3-8.9-157.3-8.9 24.1-71.5 89.8-70 89.8-70zM816.9 657s-35.4 78.8-8 135c8.6 17.8 11.7 37.3 10.4 56.3-1.5 22.5-8.9 44.2-20 61.3l44.8-16.2c31-34.6 79.3-61.6 79.3-61.6L912.2 800c-19.6-9.1-44.4-39.6-53.4-54.5-9.7-16.1-11.3-83.6-8-96.5 3.2-12.9-9.6-76.7-9.6-76.7-9 16.3-21.5 41.8-25 62.8-1.5 8.3-1.5 15.9.7 21.9z" id="Layer_10"/>
    <path class="st0" d="M852.5 550s112.3-37.7 157.3 8.9c37.2 38.6 8.5 161.8 12 221.4 0 0-46.8 38.7-105.2 21.3-1.5-.4-3-1-4.5-1.7-19.6-9.1-44.4-39.6-53.4-54.5-9.7-16.1-11.3-83.6-8-96.5 3.2-12.9-9.6-76.7-9.6-76.7 5.5-10 9.6-16.5 9.6-16.5.5-1.9 1.1-3.8 1.8-5.7zm64.1 251.7c-1.5-.4-3-1-4.5-1.7l11.2 31.8s-48.2 26.9-79.3 61.6c-14 15.6-24.5 32.8-25.5 49.8-3.2 54.7 150.2 70.8 175.9 69.2 15.8-16 31.6-30.2 46.8-42 16.1-20.9 13.6-130.1-12.1-162.2-4.4-5.6-6.6-15.3-7.3-27.7 0-.2-46.8 38.5-105.2 21.2z" id="Layer_11"/>
    <g id="Layer_12">
        <path class="st0" d="M1103.1 933.5c26.2-9.3 67-2.4 108.4 10.2 17.9 27 35.5 60.2 51.2 95-65.5 19-137.8 74.2-196.1 127.8-64.9 59.5-112.4 116.9-114.1 120.3-30.2-16.2-64.5-29.2-92.5-36.1 17.3-91.6 75.4-178.1 134.6-238.3 15.8-16 31.6-30.2 46.8-42 22.8-18 44.2-30.7 61.7-36.9z"/>
        <path class="st0" d="M1021.1 1343.4c27.3 49.8 6.4 77.2-17.7 78.8-15.5 1-69.9-6.5-118-27.7-26.9-11.9-51.9-28.1-66.9-49.4 0 0-29.8-9.1-65-11.9-13.9-1.1-28.7-1.2-42.8.6-12.4 1.6-27.8-1.9-43.8-8.1-48.2-18.5-102.5-61.1-102.5-61.1 9.6-77.2 75.5-133.4 114.1-154.3 38.6-20.9 45-152.7 86.8-170.4 12.9-5.5 24.6-16.3 33.8-30.4l44.8-16.2c-14 15.6-24.5 32.8-25.5 49.8-3.2 54.7 150.2 70.8 175.9 69.2C935 1072.5 877 1159 859.7 1250.6c28 6.9 62.3 19.9 92.5 36.1 18.3 9.8 35.2 20.8 48.1 32.3 9.1 8 16.3 16.2 20.8 24.4z"/>
        <path class="st0" d="M563 1502.2c5.1-79.1 104-176.6 104-176.6 16 6.2 31.4 9.7 43.8 8.1 14.1-1.8 28.9-1.7 42.8-.6v.6s-37.9 62.7-5.7 106.1c32.2 43.4 62.7 41.8 62.7 41.8s-1.6-51.4 6.4-56.3c8-4.8 67.6-30.6 68.5-30.9 48.1 21.2 102.5 28.8 118 27.7 24.1-1.6 45-28.9 17.7-78.8-4.5-8.2-11.6-16.4-20.7-24.3-13-11.5-29.8-22.4-48.1-32.3 1.7-3.4 49.3-60.8 114.1-120.3 58.3-53.5 130.7-108.7 196.1-127.8 21.9 48.7 40 100.3 49.5 142.3 22.5 99.7 24.1 262 53 294.2v82.8H562.9l.1-55.7z"/>
        <path class="st0" d="M753.5 1333.8v-.6c35.2 2.8 65 11.9 65 11.9 15 21.4 40 37.5 66.9 49.4-.9.4-60.5 26.2-68.5 30.9-8 4.8-6.4 56.3-6.4 56.3s-30.5 1.6-62.7-41.8c-32.2-43.5 5.7-106.1 5.7-106.1z"/>
    </g>
    <g id="STROKES">
        <g id="XMLID_2_">
            <g id="XMLID_1_">
                <path class="st1" d="M1365.1 1475.2v82.8H562.9V362h802.2v647.5z"/>
                <path class="st1" d="M816 635.1c-1.4 8.3-1.3 15.9.9 21.9 0 0-35.4 78.8-8 135 8.6 17.8 11.7 37.3 10.4 56.3-1.5 22.5-8.9 44.2-20 61.3-9.2 14-20.9 24.9-33.8 30.4-41.8 17.7-48.2 149.5-86.8 170.4-38.6 20.9-104.5 77.2-114.1 154.3"/>
                <path class="st1" d="M1365.1 1475.2c-28.9-32.1-30.5-194.5-53-294.2-9.5-42-27.5-93.7-49.5-142.3-15.6-34.8-33.3-67.9-51.2-95-16.5-24.9-33.3-44.5-48.9-55.3-51.9-35.6-49.1-175.2-63.5-276.2-1.2-8.4-2.5-16.6-4-24.4-19.3-101.3-110.9-112.5-152.7-107.7 0 0-65.7-1.5-89.8 69.9-.6 1.8-1.2 3.7-1.8 5.7 0 0-4.2 6.5-9.6 16.5-9 16.3-21.5 41.8-25 62.8"/>
                <path class="st1" d="M562.3 621.7l.6-.9 53.1-79.6 32.1 109.3L705 607l55.7-57.7L816 635v.1"/>
                <path class="st1" d="M1099 612.3l61.9-56.6 59.5 33.8 27.3 82s59.5-4.8 59.5-9.7c0-4.8 57.9-105 57.9-105"/>
                <path class="st1" d="M746.2 700.4s-61.1 30.5-75.5 45c-14.5 14.5 20.9 20.9 53 38.6 31.9 17.5 41.6 57.2-11.4 61-.5 0-1 .1-1.4.1"/>
                <path class="st1" d="M562.9 853.2l53.5 34 34.9 22.2 16.1 57.8"/>
                <path class="st1" d="M819.3 848.3c-4.7 0-69.8-1.7-107-3.3-13.4-.6-24.1-1.1-28.8-1.5-17.7-1.6-65.9 41.8-65.9 41.8"/>
                <path class="st1" d="M852.5 550s112.3-37.7 157.3 8.9c37.2 38.6 8.5 161.8 12 221.4.7 12.5 2.9 22.2 7.3 27.7 25.7 32.1 28.2 141.3 12.1 162.2"/>
                <path class="st1" d="M1365.1 1009.5s-80.9-43.6-153.7-65.8c-41.3-12.6-82.1-19.6-108.4-10.2-17.4 6.2-38.9 18.9-61.8 36.8-15.2 11.9-31.1 26-46.8 42-59.3 60.2-117.3 146.7-134.6 238.3"/>
                <path class="st1" d="M775.1 1036.4s-9.7 57.9 16.1 98.1c25.7 40.2-9.1 99.3-9.1 99.3"/>
                <path class="st1" d="M733.3 1184.2c3.2 6.4 41.8 62.7 88.4 61.1 9.8-.3 23 1.6 38 5.3 28 6.9 62.3 19.9 92.5 36.1 18.3 9.8 35.2 20.8 48.1 32.3 9 8 16.2 16.2 20.7 24.3 27.3 49.8 6.4 77.2-17.7 78.8-15.5 1-69.9-6.5-118-27.7-26.9-11.9-51.9-28.1-66.9-49.4 0 0-29.8-9.1-65-11.9-13.9-1.1-28.7-1.2-42.8.6-12.4 1.6-27.8-1.9-43.8-8.1-48.2-18.5-102.5-61.1-102.5-61.1"/>
                <path class="st1" d="M753.5 1333.8s-37.9 62.7-5.7 106.1c32.2 43.4 62.7 41.8 62.7 41.8s-1.6-51.4 6.4-56.3c8-4.8 67.6-30.6 68.5-30.9"/>
                <path class="st1" d="M1000.4 1319s59.2-9.4 96.2-14.2c37-4.8 78.8 28.9 78.8 28.9"/>
                <path class="st1" d="M1096.6 1296.8s-39.8-98.2-30.2-130.3"/>
                <path class="st1" d="M841 572.2s12.9 63.8 9.6 76.7c-3.2 12.9-1.6 80.4 8 96.5 8.9 14.9 33.8 45.4 53.4 54.5 1.5.7 3 1.3 4.5 1.7 58.4 17.3 105.2-21.3 105.2-21.3"/>
                <path class="st1" d="M912.1 799.9l11.2 31.8 11 31"/>
                <path class="st1" d="M923.3 831.7s-48.2 26.9-79.3 61.6c-14 15.6-24.5 32.8-25.5 49.8-3.2 54.7 150.2 70.8 175.9 69.2"/>
                <path class="st1" d="M952.3 1286.8c1.7-3.4 49.3-60.8 114.1-120.3 58.3-53.5 130.7-108.7 196.1-127.8"/>
                <path class="st1" d="M1125.6 708.4c12.9-1.6 91.6 9.7 86.8 27.3-4.8 17.7-83.6 40.2-24.1 48.2 59.5 8 164 37 130.2 53-33.8 16.1-117.3 35.4-141.5 56.3"/>
                <path class="st1" d="M910.5 720.2c-.6 3.3 36.5 10.8 58.5-3.2"/>
                <path class="st1" d="M940 487.3l-12.8 40.9"/>
                <path class="st1" d="M667 1325.7s-99 97.5-104 176.6"/>
                <path class="st1" d="M1508 1580.9V1703H412V217h1096v132.2z"/>
                <path class="st1" d="M621.9 289.5h112.5"/>
                <path class="st1" d="M903.8 289.5h112.4"/>
                <path class="st1" d="M819.1 294.1c-1.2 0-2.2-1-2.2-2.2 0-1.2 1-2.2 2.2-2.2s2.2 1 2.2 2.2c0 1.2-1 2.2-2.2 2.2z"/>
                <path class="st1" d="M1182.7 289.5h112.5"/>
                <path class="st1" d="M1098 294.1c-1.2 0-2.2-1-2.2-2.2 0-1.2 1-2.2 2.2-2.2s2.2 1 2.2 2.2c.1 1.2-.9 2.2-2.2 2.2z"/>
                <path class="st1" d="M562.9 362l-1.5-2.4c-8.6-14.4-51-90.3-19.8-139"/>
                <path class="st1" d="M562.3 360.1s-.3-.2-.9-.5c-9.7-5.5-97.9-53-148.8-20.5"/>
                <path class="st1" d="M1365 370.5s.1 0 0 0c.2-.2 1.1-.7 2.4-1.5 14.4-8.6 90.3-51 139-19.8"/>
                <path class="st1" d="M1366.9 369.9s.2-.3.5-.9c5.5-9.7 53-97.9 20.5-148.8"/>
                <path class="st1" d="M1297.2 1634.5h-112.5"/>
                <path class="st1" d="M1015.3 1634.5H902.8"/>
                <path class="st1" d="M1097.7 1632.2c0-1.2 1-2.2 2.2-2.2s2.2 1 2.2 2.2c0 1.2-1 2.2-2.2 2.2s-2.2-1-2.2-2.2z"/>
                <path class="st1" d="M736.3 1634.5H623.8"/>
                <path class="st1" d="M818.7 1632.2c0-1.2 1-2.2 2.2-2.2s2.2 1 2.2 2.2c0 1.2-1 2.2-2.2 2.2s-2.2-1-2.2-2.2z"/>
                <path class="st1" d="M1356.1 1558.1l1.5 2.4c8.6 14.4 51 90.3 19.8 139"/>
                <path class="st1" d="M1356.7 1560s.3.2.9.5c9.7 5.5 97.9 53 148.8 20.5"/>
                <path class="st1" d="M554 1551.6l-2.4 1.5c-14.4 8.6-90.3 51-139 19.8"/>
                <path class="st1" d="M552.1 1552.2s-.2.3-.5.9c-5.4 9.7-53.1 97.9-20.5 148.8"/>
                <path class="st1" d="M486.4 1496.9v-124.7"/>
                <path class="st1" d="M486.4 1180.5v-124.7"/>
                <path class="st1" d="M488.7 1278.9c-1.2 0-2.2-1.1-2.2-2.5s1-2.5 2.2-2.5 2.2 1.1 2.2 2.5c.1 1.3-.9 2.5-2.2 2.5z"/>
                <path class="st1" d="M486.4 864.2V739.5"/>
                <path class="st1" d="M486.4 547.8V423.1"/>
                <ellipse class="st1" cx="488.7" cy="960" rx="2.2" ry="2.5"/>
                <path class="st1" d="M488.7 646.1c-1.2 0-2.2-1.1-2.2-2.5s1-2.5 2.2-2.5 2.2 1.1 2.2 2.5c.1 1.4-.9 2.5-2.2 2.5z"/>
                <path class="st1" d="M1432.8 1496.9v-124.7"/>
                <path class="st1" d="M1432.8 1180.5v-124.7"/>
                <path class="st1" d="M1435.2 1278.9c-1.2 0-2.2-1.1-2.2-2.5s1-2.5 2.2-2.5c1.2 0 2.2 1.1 2.2 2.5 0 1.3-1 2.5-2.2 2.5z"/>
                <path class="st1" d="M1432.8 864.2V739.5"/>
                <path class="st1" d="M1432.8 547.8V423.1"/>
                <path class="st1" d="M1435.2 962.5c-1.2 0-2.2-1.1-2.2-2.5s1-2.5 2.2-2.5c1.2 0 2.2 1.1 2.2 2.5s-1 2.5-2.2 2.5z"/>
                <path class="st1" d="M1435.2 646.1c-1.2 0-2.2-1.1-2.2-2.5s1-2.5 2.2-2.5c1.2 0 2.2 1.1 2.2 2.5s-1 2.5-2.2 2.5z"/>
            </g>
        </g>
    </g>
</svg>
