<svg xmlns="http://www.w3.org/2000/svg" viewBox="0 0 1920 1920">
    <style>
        .st0{fill:#fff}.st1{fill:#00e676}.st2{fill:none;stroke:#231f20;stroke-width:50;stroke-linecap:round;stroke-linejoin:round;stroke-miterlimit:10}
    </style>
    <path class="st0" d="M1161.5 1517.3c-19.4-38.6-39.7-84.5-60.2-138.7-13.8-36.4-27.6-76.5-41.2-120.7h106.6c12.9 30.8 26.8 61.5 41.9 92.1 61.5 124.4 141.9 245.5 247.1 351.9h-167.5c0 .1-56.4-44.3-126.7-184.6zM893.2 1258H779.5c-15 32.5-30.5 63.2-46.2 92.1C606.1 1584.4 464.2 1702 464.2 1702h185.6s53.5-69.6 117.1-180.3l.1-.1c.1-.1.2-.3.3-.6.1-.2.2-.3.3-.5 25.3-44.2 52.3-94.9 78-150.3 16.6-35.6 32.7-73.2 47.6-112.2zm185.2-267.3h-85.9c21 102.4 43.9 190.9 67.5 267.3h106.6c-20.7-49.4-38.7-98.9-54.2-147.7-12.9-40.5-24.2-80.5-34-119.6zm-66.3-580h-72.4l-10.2 162.6c12.5 118.2 27.6 224.6 44.6 320.4 6 33.6 12.1 66 18.5 97h85.9c-79.8-316.9-66.4-580-66.4-580zm-82.7 162.6L917 771.2c-9.7 78-24.1 151.2-42 219.5h89.8c4.7-32.2 7.8-64.6 9-97h.1c-16.8-95.8-32-202.2-44.5-320.4zM779.5 1258h113.7c31.9-83.9 58.2-174.6 71.7-267.3H875c-10.9 41.7-23 81.5-36.2 119.5-18.2 52.8-38.2 102-59.3 147.8zm140.3-847.3h113.3v-40.8c0-22.7-25.4-41.1-56.8-41.1s-56.8 18.4-56.8 41.1l.3 40.8z" id="Layer_5"/>
    <path class="st0" d="M1176.5 990.7v119.5h-64.1c-12.9-40.4-24.2-80.4-34-119.5h98.1zm-404.6 119.5h66.9c13.1-38 25.3-77.9 36.2-119.5H771.9v119.5zm-119.6 239.9h81c15.7-28.9 31.2-59.6 46.2-92.1H652.3v92.1zm514.4-92.1c12.9 30.8 26.8 61.5 41.9 92.1h78.1V1258h-120z" id="Layer_6"/>
    <path class="st0" d="M767.7 1520.5c25.3-44.2 52.3-94.9 78-150.3 27.1-12.9 70.5-22.8 118.6-22.8 59.8 0 108.1 14.5 137 31.2 20.5 54.2 40.9 100.1 60.2 138.7-4.6-6.9-57.4-79.8-199.8-79.8-138.9 0-187.8 72.8-194 83z" id="Layer_7"/>
    <g id="STROKES">
        <g id="XMLID_1_">
            <path class="st1" d="M767.4 1521l-.3.6c0-.1.1-.3.3-.6z"/>
            <path class="st2" d="M1161.5 1517.3c-19.3-38.6-39.7-84.5-60.2-138.7-13.8-36.4-27.6-76.5-41.2-120.7-23.6-76.4-46.6-164.9-67.5-267.3-6.4-31-12.5-63.4-18.5-97-17-95.7-32.1-202.2-44.6-320.4"/>
            <path class="st2" d="M1208.6 1350.1c61.5 124.4 141.9 245.5 247.1 351.9h-167.5s-56.5-44.4-126.7-184.7"/>
            <path class="st2" d="M1012.1 410.7s-13.4 263.1 66.3 580c9.8 39.1 21.1 79.1 34 119.5 15.6 48.9 33.5 98.3 54.2 147.7 12.9 30.8 26.8 61.5 41.9 92.1"/>
            <path class="st2" d="M767 1521.7C703.4 1632.4 649.9 1702 649.9 1702H464.2s141.9-117.6 269.1-351.9c15.7-28.9 31.2-59.6 46.2-92.1 21.1-45.7 41.1-95 59.3-147.7 13.1-38 25.3-77.9 36.2-119.5 17.8-68.3 32.3-141.4 42-219.5l12.4-197.9 10.2-162.6"/>
            <path class="st2" d="M767.4 1521l-.3.6"/>
            <path class="st2" d="M973.9 893.7c-1.3 32.4-4.4 64.8-9 97-13.4 92.7-39.8 183.4-71.7 267.3-14.9 39.1-30.9 76.6-47.5 112.3-25.8 55.4-52.7 106.1-78 150.3"/>
            <path class="st2" d="M767 1521.7l.1-.1c.1-.1.2-.3.3-.6.1-.2.2-.3.3-.5 6.2-10.2 55.1-83.1 194-83.1 142.4 0 195.2 73 199.8 79.8.2.3.3.5.3.5"/>
            <path class="st2" d="M844.8 1370.6c.3-.1.6-.3.9-.4 27.1-12.9 70.5-22.8 118.6-22.8 59.8 0 108.1 14.5 137 31.2"/>
            <path class="st2" d="M733.3 1350.1h-81V1258h634.4v92.1h-78.1"/>
            <path class="st2" d="M1112.4 1110.2h64.1V990.7H771.9v119.5h66.9"/>
            <path class="st2" d="M1012.1 410.7h21.1v-40.8c0-22.7-25.4-41.1-56.8-41.1s-56.8 18.4-56.8 41.1l.3 40.8h92.2z"/>
            <path class="st2" d="M976.3 218v109.7"/>
        </g>
    </g>
</svg>
