<svg xmlns="http://www.w3.org/2000/svg" viewBox="0 0 1920 1920">
    <style>
        .st0{fill:#fff}.st1{fill:none;stroke:#231f20;stroke-width:50;stroke-linecap:round;stroke-linejoin:round;stroke-miterlimit:10}
    </style>
    <path class="st0" d="M1123 497c-24-126-138-140-190-134 0 0-80.9-1.9-111.3 85.6-.9 2.7-1.8 5.5-2.7 8.4 0 0-5.2 8.1-12 20.5-11.1 20.2-26.6 51.8-31 77.8h-.3L747 511l-54 118 14-180-72 120-24-82-44 88-40-136-66 90V216h998v242s-72 125-72 131-74 12-74 12l-34-102-74-42-77 70.4c-1.5-10.5-3.2-20.7-5-30.4z" id="Layer_1"/>
    <path class="st0" d="M1142 646.8c16-2 133 12.2 127 34.2s-104 50-30 60 204 46 162 66-150 49.2-180 75.2c-4.7-4.3-9.4-8.1-14-11.2-45.5-31.2-57.2-126.5-66.4-224.1l1.4-.1zm251 588.2c28 124 30 326 66 366v-579s-97.2-52.3-190.6-81.3c21.6 32.8 43 72.8 62 114.8 27.8 61.2 50.7 126.6 62.6 179.5zm-172-352.8c15.5 14.2 31.6 34.4 47.4 58.5 93.4 29 190.6 81.3 190.6 81.3V458s-72 125-72 131-74 12-74 12l-34-102-74-42-77 70.4c5.3 37.2 8.7 78.5 12.6 119.5l1.4-.1c16-2 133 12.2 127 34.2s-104 50-30 60 204 46 162 66-150 49.2-180 75.2zM777 583c-2.8-7.6-2.8-17.2-1-27.6h-.3L747 511l-54 118s-80 46-98 64 26 26 66 48c39.9 22 52 71.8-15.6 76 48.7 2.3 128.5 5.3 134.5 5.3 1.8-24-1.9-48.8-12.9-71.2C733 681 777 583 777 583zM595 693c18-18 98-64 98-64l14-180-72 120-24-82-44 88-40-136-66 90v298.2l66.5 42.2 1.5-2.4s60-54 82-52c5.5.5 18.2 1.2 34.4 2 67.5-4.2 55.5-54 15.6-76-40-22-84-30-66-48zm-66 174l-1.5 2.4-66.5-42.2V1339h2c12-96 94-166 142-192s56-190 108-212c8-3.4 15.6-8.4 22.6-14.7 24.1-21.7 41.4-58.8 44.3-98-6 0-85.8-3-134.5-5.3-16.2-.8-28.9-1.5-34.4-2-22-2-82 52-82 52zm-68 472v295.6c6-93.7 118.5-209 129.2-219.8-59.8-23-127.2-75.8-127.2-75.8h-2z" id="Layer_3"/>
    <path class="st0" d="M863 1500.8c59.7 26.2 126.9 35.5 146 34.2 30-2 56-36 22-98-6.5-11.9-17.5-23.7-31.4-35.2 0 0 79.4-6.8 125.4-12.8 0 0-49.4-132.3-38.2-173.2 73.2-66.6 163.2-135.6 243.6-160.2 27.8 61.2 50.6 126.5 62.6 179.5 28 124 30 326 66 366v103H461v-69.4c6-93.7 118.5-209 129.2-219.8 20 7.7 39.2 12.1 54.8 10.1 17.8-2.3 36.4-2.1 53.9-.7 0 0-47.9 78.7-7.9 132.7s78 52 78 52-2-64 8-70 86-38.2 86-38.2zm136.6-99s79.4-6.8 125.4-12.8c0 0-49.4-132.3-38.2-173.2-81.6 74.2-142.2 145.5-145.2 148.7 21.7 11.4 41.8 24.1 58 37.3zm87.2-186c73.2-66.6 163.2-135.6 243.6-160.2-19-42-40.3-82-62-114.8-52.2-16.2-103.2-25.2-135.4-13.7-22.1 7.8-49.1 23.9-78 46.6-18.6 14.6-38 31.9-57.2 51.5-32 2-222.8-18.1-218.8-86.1.9-15.8 8.7-31.6 20.1-46.7l-63.5 28c-7 6.3-14.6 11.4-22.6 14.7-52 22-60 186-108 212s-130 96-142 192c0 0 67.4 52.8 127.2 75.9 20 7.7 39.2 12.1 54.8 10.1 17.8-2.3 36.4-2.1 53.9-.7 43.5 3.5 80.1 14.7 80.1 14.7 18.8 26.8 50.2 47 84 61.8 59.7 26.2 126.9 35.5 146 34.2 30-2 56-36 22-98-6.5-11.9-17.5-23.7-31.4-35.2-16.2-13.3-36.3-26-58-37.3 2.9-3.4 63.6-74.6 145.2-148.8zM779 1439s-36.6-11.2-80.1-14.7c0 0-47.9 78.7-7.9 132.7s78 52 78 52-2-64 8-70 86-38.2 86-38.2c-33.8-14.8-65.2-35-84-61.8z" id="Layer_4"/>
    <path class="st0" d="M1123 497c1.8 9.7 3.5 19.9 5 30.4 5.3 37.2 8.7 78.5 12.6 119.5 9.2 97.5 20.9 192.9 66.4 224.1 4.6 3.2 9.3 6.9 14 11.2 15.5 14.2 31.6 34.4 47.4 58.5-52.2-16.2-103.2-25.2-135.4-13.7-22.1 7.8-49.1 23.9-78 46.6 20-26 18-162.6-14-202.6s32-252-24-310-195.3-12.4-195.3-12.4C852.1 361.1 933 363 933 363c52-6 166 8 190 134zm-304 76c4-16-12-95.5-12-95.5-11.1 20.2-26.6 51.8-31 77.8-1.8 10.5-1.8 20 1 27.6 0 0-44 98-10 168 10.9 22.5 14.6 47.3 12.9 71.2-2.8 39.2-20.2 76.3-44.3 98l63.5-28c34.2-45.3 101.1-83.5 113.2-90.2L901 763c-26 2-60-50-72-70s-14-104-10-120z" id="Layer_5"/>
    <path class="st0" d="M1017 461c56 58-8 270 24 310s34 176.6 14 202.6c-18.6 14.6-38 31.9-57.2 51.5-32 2-222.8-18.1-218.8-86.1.9-15.8 8.7-31.6 20.1-46.7 34.2-45.3 101.1-83.5 113.2-90.2L901 763c-26 2-60-50-72-70s-14-104-10-120-12-95.5-12-95.5c6.8-12.4 12-20.5 12-20.5.8-2.9 1.7-5.6 2.7-8.4 0 0 139.3-45.6 195.3 12.4z" id="Layer_6"/>
    <g id="STROKES">
        <g id="XMLID_2_">
            <g id="XMLID_1_">
                <path class="st1" d="M1459 1601v103H461V216h998v806z"/>
                <path class="st1" d="M735.6 920.3c-7 6.3-14.6 11.4-22.6 14.7-52 22-60 186-108 212s-130 96-142 192"/>
                <path class="st1" d="M1459 1601c-36-40-38-242-66-366-11.9-52.9-34.8-118.3-62.6-179.5-19-42-40.3-82-62-114.8-15.9-24.1-32-44.3-47.4-58.5-4.7-4.3-9.4-8.1-14-11.2-45.5-31.2-57.2-126.5-66.4-224.1-3.9-41-7.3-82.4-12.6-119.5-1.5-10.5-3.2-20.7-5-30.4-24-126-138-140-190-134 0 0-80.9-1.9-111.3 85.6-.9 2.7-1.8 5.5-2.7 8.4 0 0-5.2 8.1-12 20.5-11.1 20.2-26.6 51.8-31 77.8-1.8 10.5-1.8 20 1 27.6 0 0-44 98-10 168 10.9 22.5 14.6 47.3 12.9 71.2-2.8 39.2-20.2 76.3-44.3 98"/>
                <path class="st1" d="M461 529l66-90 40 136 44-88 24 82 72-120-14 180 54-118 28.7 44.3"/>
                <path class="st1" d="M1128 527.4l77-70.4 74 42 34 102s74-6 74-12 72-131 72-131"/>
                <path class="st1" d="M693 629s-80 46-98 64 26 26 66 48c39.9 22 52 71.8-15.6 76h-.4"/>
                <path class="st1" d="M461 827.2l66.5 42.2L571 897l20 72"/>
                <path class="st1" d="M779.9 822.2c-6 0-85.8-3-134.5-5.3-16.2-.8-28.9-1.5-34.4-2-22-2-82 52-82 52"/>
                <path class="st1" d="M821.7 448.6S961 403 1017 461s-8 270 24 310 34 176.6 14 202.6"/>
                <path class="st1" d="M1459 1022s-97.2-52.3-190.6-81.3c-52.2-16.2-103.2-25.2-135.4-13.7-22.1 7.8-49.1 23.9-78 46.6-18.6 14.6-38 31.9-57.2 51.5-72.6 74-143.3 180.1-164.8 293.6"/>
                <path class="st1" d="M725 1055s-12 72 20 122-8.8 125-8.8 125"/>
                <path class="st1" d="M673 1239c2.8 5.7 28 42.8 63.2 63 14.2 8.2 30.1 13.6 46.8 13 34-1.2 101.6 19.6 158.6 49.5 21.7 11.4 41.8 24.1 58 37.3 13.9 11.4 24.9 23.3 31.4 35.2 34 62 8 96-22 98-19.2 1.3-86.4-8-146-34.2-33.8-14.8-65.2-35-84-61.8 0 0-36.6-11.2-80.1-14.7-17.5-1.4-36.1-1.6-53.9.7-15.5 2-34.8-2.4-54.8-10.1C530.4 1391.8 463 1339 463 1339"/>
                <path class="st1" d="M698.9 1424.3S651 1503 691 1557s78 52 78 52-2-64 8-70 86-38.2 86-38.2"/>
                <path class="st1" d="M999.6 1401.8s79.4-6.8 125.4-12.8 98 36 98 36"/>
                <path class="st1" d="M1125 1389s-49.4-132.3-38.2-173.2c.1-.3.1-.5.2-.8"/>
                <path class="st1" d="M807 477.5s16 79.5 12 95.5-2 100 10 120 46 72 72 70 68-20 68-20"/>
                <path class="st1" d="M901 763l11.3 39 10.7 37"/>
                <path class="st1" d="M799.1 892.3c-11.4 15.1-19.1 31-20.1 46.7-4 68 186.8 88.1 218.8 86.1"/>
                <path class="st1" d="M914.2 801s-.7.4-1.9 1c-12.1 6.7-79 44.9-113.2 90.2"/>
                <path class="st1" d="M941.6 1364.5c3-3.3 63.6-74.5 145.2-148.7 73.2-66.6 163.2-135.6 243.6-160.2"/>
                <path class="st1" d="M1142 646.8c16-2 133 12.2 127 34.2s-104 50-30 60 204 46 162 66-150 49.2-180 75.2"/>
                <path class="st1" d="M891 684c-.8 4.1 26.4 13.3 50.2 5.4"/>
                <path class="st1" d="M919 568.8c-5.2 11.2-18.8 36.3-23.9 42.5-9.4 11.5.3 12.2 6 14.4 8.6 3.2 21.1 6.5 32.2 3.6"/>
                <path class="st1" d="M981.2 560.6s-35.2-12.4-56 1"/>
                <path class="st1" d="M852.3 565.6l-23.7 1.4"/>
                <path class="st1" d="M930.1 371.9l-15.9 50.8"/>
                <path class="st1" d="M591 1414.1l-.8.8c-10.7 10.8-123.1 126.1-129.2 219.8"/>
                <path class="st1" d="M735.6 920.3l63.5-28"/>
            </g>
        </g>
    </g>
</svg>
