<svg xmlns="http://www.w3.org/2000/svg" viewBox="0 0 1920 1920">
    <style>
        .st0{fill:#fff}.st1{fill:#00e676}.st2{fill:none;stroke:#231f20;stroke-width:50;stroke-linecap:round;stroke-linejoin:round;stroke-miterlimit:10}
    </style>
    <path class="st0" d="M1043.2 1109.2c37.8 243.1 301.6 591.9 301.6 591.9H1167s-36-189-198-189h-18c-162 0-198 189-198 189H575.2s263.8-348.8 301.6-591.9c.1-.7.2-1.5.3-2.2h165.7c.2.8.3 1.5.4 2.2zM891 1383h138c-15-48-38-177-38-177h-63c0 57-37 177-37 177zm102-942l27-36-45-93h-30l-45 93 27 36s-9.5 405-49.9 666.1h165.7C1002.5 845.9 993 441 993 441z" id="Layer_1"/>
    <g id="STROKES">
        <g id="XMLID_1_">
            <path class="st2" d="M575.2 1701.1s263.8-348.8 301.6-591.9c.1-.7.2-1.5.3-2.2C917.5 845.9 927 441 927 441l-27-36 45-93h30l45 93-27 36s9.5 405 49.9 666.1c.1.7.2 1.5.3 2.2 37.8 243.1 301.6 591.9 301.6 591.9"/>
            <path class="st2" d="M1344.8 1701.1H1167s-36-189-198-189h-18c-162 0-198 189-198 189H575.2"/>
            <path class="st2" d="M891 1383s37-120 37-177h63s23 129 38 177H891z"/>
            <path class="st2" d="M960 215.9v84"/>
            <path class="st2" d="M808.6 1107h303"/>
            <path class="st2" d="M721.6 1374h48"/>
            <path class="st2" d="M1147.6 1374h48"/>
        </g>
    </g>
</svg>
