<svg xmlns="http://www.w3.org/2000/svg" viewBox="0 0 1920 1920">
    <style>
        .st0{fill:#fff}.st1{fill:#00e676}.st2{fill:none;stroke:#231f20;stroke-width:50;stroke-linecap:round;stroke-linejoin:round;stroke-miterlimit:10}
    </style>
    <path class="st0" d="M1437 1701.7h-177s-2.7-6.1-7.6-16.1c-22-45.5-87.8-172.1-139.4-172.1-3.5 0-6.8.2-10 .6-54.9 7.1-71 74.7-71 182.4H867s41.3-200.5-60-189c-6.2.7-12.3 2.4-18.4 5.1-58.7 25.1-113.6 131-151.3 173-8.3 9.3-15.8 15.4-22.3 16.9H483s117-54 213-231c13.5-24.9 26.5-51.9 38.9-80.4l192.1-33.6 226 38.5c177 254.4 284 305.7 284 305.7zm-294-320.2c-29.1-42.5-53.9-97.2-74.8-159.2L918 1186.5l-121.9 35.3c-18.1 59.9-38.6 117.2-61.2 169.3l192.1-33.6 226 38.5c-3.3-4.8-6.7-9.6-10-14.5zm-103.3-256.2L918 1096.5l-95.2 27.5c-8.2 33.1-17.1 65.8-26.7 97.8l121.9-35.3 150.2 35.8c-10.4-30.7-19.9-63.3-28.5-97zM959 424.5l22-60-54-48-57 51 26 54s-5 150-20 372c-7 103.2-25.6 218.7-53.2 330.5l95.2-27.5 121.7 28.8c-64.5-252.2-81-570.3-80.7-700.8z" id="Layer_3"/>
    <path class="st0" d="M788.8 1513.1s-64.7 37.5-43.7 172.5H637.3c37.7-42 92.6-147.9 151.3-173l.2.5zm314.2 1v.3s64 36.2 43 171.2h106.4c-22-45.5-87.8-172.1-139.4-172.1-3.5 0-6.8.2-10 .6z" id="Layer_4"/>
    <g id="STROKES">
        <g id="XMLID_1_">
            <path class="st2" d="M1153 1396c177 254.5 284 305.7 284 305.7h-177s-2.7-6.1-7.6-16.1c-22-45.5-87.8-172.1-139.4-172.1-3.5 0-6.8.2-10 .6-54.9 7.1-71 74.7-71 182.4H867s41.3-200.5-60-189c-6.2.7-12.3 2.4-18.4 5.1-58.7 25.1-113.6 131-151.3 173-8.3 9.3-15.8 15.4-22.3 16.9H483s117-54 213-231c13.5-24.9 26.5-51.9 38.9-80.4 22.6-52.1 43.2-109.4 61.2-169.3 9.6-32 18.6-64.8 26.7-97.8 27.6-111.8 46.2-227.3 53.2-330.5 15-222 20-372 20-372l-26-54 57-51 54 48-22 60c-.3 130.5 16.2 448.6 80.7 700.8 8.6 33.7 18.1 66.3 28.5 97.1 21 62 45.7 116.7 74.8 159.2 3.3 4.8 6.7 9.6 10 14.4z"/>
            <path class="st2" d="M788.8 1513.1s-64.7 37.5-43.7 172.5H637.3"/>
            <path class="st2" d="M1103 1514.4s64 36.2 43 171.2h106.4"/>
            <path class="st2" d="M687 1399.5l47.9-8.4 192.1-33.6 226 38.5 56 9.5"/>
            <path class="st2" d="M783 1135.5l39.8-11.5 95.2-27.5 121.7 28.8 43.3 10.2"/>
            <path class="st2" d="M768.4 1229.8l27.7-8 121.9-35.3 150.2 35.8 20.4 4.9"/>
            <path class="st2" d="M927 316.5v-99"/>
        </g>
    </g>
</svg>
