<svg xmlns="http://www.w3.org/2000/svg" viewBox="0 0 1920 1920">
    <style>
        .st0{fill:#fff}.st1{fill:none;stroke:#231f20;stroke-width:50;stroke-linecap:round;stroke-linejoin:round;stroke-miterlimit:10}
    </style>
    <path class="st0" d="M1031.7 1411.5V288.6c0-39.6-32.1-71.7-71.7-71.7-19.8 0-37.7 8-50.7 21s-21 30.9-21 50.7v1122.8c-49.3 25.8-82.9 77.5-82.9 137 0 85.3 69.2 154.6 154.5 154.6 85.4 0 154.6-69.2 154.6-154.6.1-59.4-33.5-111.1-82.8-136.9zM960 1614.6c-36.5 0-66.1-29.6-66.1-66.1 0-6.5.9-12.8 2.7-18.7 8.1-27.4 33.4-47.4 63.5-47.4s55.4 20 63.5 47.4c1.7 5.9 2.7 12.2 2.7 18.7-.2 36.5-29.8 66.1-66.3 66.1z" id="Layer_2"/>
    <path class="st0" d="M1023.5 1529.8c-8.1-27.4-33.4-47.4-63.5-47.4s-55.4 20-63.5 47.4c-1.7 5.9-2.7 12.2-2.7 18.7 0 36.5 29.6 66.1 66.1 66.1s66.1-29.6 66.1-66.1c.1-6.5-.8-12.8-2.5-18.7z" id="Layer_4"/>
    <g id="STROKES">
        <path class="st1" d="M1031.7 1411.5V288.6c0-39.6-32.1-71.7-71.7-71.7s-71.7 32.1-71.7 71.7v1122.9c-49.3 25.8-82.9 77.5-82.9 137 0 85.3 69.2 154.6 154.5 154.6 85.4 0 154.6-69.2 154.6-154.6.1-59.5-33.5-111.2-82.8-137zM960 1614.6c-36.5 0-66.1-29.6-66.1-66.1 0-6.5.9-12.8 2.7-18.7 8.1-27.4 33.4-47.4 63.5-47.4s55.4 20 63.5 47.4c1.7 5.9 2.7 12.2 2.7 18.7-.2 36.5-29.8 66.1-66.3 66.1z"/>
        <path class="st1" d="M1026.1 1548.5c0 36.5-29.6 66.1-66.1 66.1s-66.1-29.6-66.1-66.1c0-6.5.9-12.8 2.7-18.7 8.1-27.4 33.4-47.4 63.5-47.4s55.4 20 63.5 47.4c1.6 5.9 2.5 12.2 2.5 18.7z"/>
        <path class="st1" d="M960 1482.3V793.7"/>
    </g>
</svg>
