<svg xmlns="http://www.w3.org/2000/svg" viewBox="0 0 1920 1920">
    <style>
        .st0{fill:#fff}.st1{fill:none;stroke:#231f20;stroke-width:50;stroke-linecap:round;stroke-linejoin:round;stroke-miterlimit:10}
    </style>
    <path class="st0" d="M1067.4 217H852.6c-27.3 0-49.4 22.1-49.4 49.4v440.9c0 132.2 23.3 263.4 70.3 386.9 71.6 187.9 86.5 478.4 86.5 478.4s14.9-290.5 86.5-478.4c47.1-123.5 70.4-254.8 70.4-386.9v-441c-.1-27.2-22.2-49.3-49.5-49.3zm-35.9 481.7h-143V310.2h143.1v388.5z" id="Layer_5"/>
    <path class="st0" d="M888.5 310.2h143.1v388.5H888.5z" id="Layer_6"/>
    <g id="STROKES">
        <path class="st1" d="M1116.8 266.4v440.9c0 132.2-23.3 263.4-70.3 386.9-71.6 187.8-86.5 478.3-86.5 478.3s-14.9-290.5-86.5-478.4c-47.1-123.5-70.3-254.8-70.3-386.9V266.4c0-27.3 22.1-49.4 49.4-49.4h214.9c27.2-.1 49.3 22.1 49.3 49.4z"/>
        <path class="st1" d="M888.5 310.2h143.1v388.5H888.5z"/>
        <path class="st1" d="M960 1572.5v130.6"/>
    </g>
</svg>
