<svg xmlns="http://www.w3.org/2000/svg" viewBox="0 0 1920 1920">
    <style>
        .st0{fill:#fff}.st1{fill:none;stroke:#231f20;stroke-width:50;stroke-linecap:round;stroke-linejoin:round;stroke-miterlimit:10}
    </style>
    <path class="st0" d="M998.2 817.9V1703l-76.4-97.7V817.9c12.6.4 25.3.7 38.2.7s25.6-.2 38.2-.7z" id="Layer_7"/>
    <path class="st0" d="M1476.3 460.6v114.3c0 128.5-210.8 233.8-478.1 243-12.6.4-25.3.7-38.2.7s-25.6-.2-38.2-.7c-267.3-9.2-478.1-114.5-478.1-243V460.6c0 19.7 4.9 38.8 14.3 57.1 54.5 107 258.5 186.5 502 186.5s447.5-79.5 502-186.5c9.3-18.3 14.3-37.4 14.3-57.1z" id="Layer_8"/>
    <path class="st0" d="M960 217c-285.1 0-516.3 109-516.3 243.6 0 19.7 4.9 38.8 14.3 57.1 54.5 107 258.5 186.5 502 186.5s447.5-79.5 502-186.5c9.3-18.3 14.3-37.5 14.3-57.1C1476.3 326 1245.1 217 960 217zm9 396.9c-216.7 0-392.4-68.6-392.4-153.2S752.2 307.4 969 307.4c216.7 0 392.4 68.6 392.4 153.2S1185.7 613.9 969 613.9z" id="Layer_9"/>
    <path class="st0" d="M969 307.4c-216.7 0-392.4 68.6-392.4 153.2S752.2 613.9 969 613.9c216.7 0 392.4-68.6 392.4-153.2S1185.7 307.4 969 307.4z" id="Layer_10"/>
    <g id="STROKES">
        <path class="st1" d="M1476.3 460.6v114.3c0 128.5-210.8 233.8-478.1 243-12.6.4-25.3.7-38.2.7s-25.6-.2-38.2-.7c-267.3-9.2-478.1-114.5-478.1-243V460.6c0 19.7 4.9 38.8 14.3 57.1 54.5 107 258.5 186.5 502 186.5s447.5-79.5 502-186.5c9.3-18.3 14.3-37.4 14.3-57.1z"/>
        <path class="st1" d="M1476.3 460.6c0 19.7-4.9 38.8-14.3 57.1-54.5 107-258.5 186.5-502 186.5s-447.5-79.5-502-186.5c-9.3-18.3-14.3-37.5-14.3-57.1C443.7 326 674.9 217 960 217s516.3 109 516.3 243.6z"/>
        <path class="st1" d="M998.2 817.9V1703l-76.4-97.7V817.9c12.6.4 25.3.7 38.2.7s25.6-.2 38.2-.7z"/>
        <ellipse class="st1" cx="969" cy="460.6" rx="392.4" ry="153.2"/>
        <path class="st1" d="M969 491.1l191.4-103.8"/>
        <path class="st1" d="M729.3 491.1c0-50.2 107.3-90.9 239.6-90.9s239.6 40.7 239.6 90.9"/>
    </g>
</svg>
