<svg xmlns="http://www.w3.org/2000/svg" viewBox="0 0 1920 1920">
    <style>
        .st0{fill:#fff}.st1{fill:none;stroke:#231f20;stroke-width:50;stroke-linecap:round;stroke-linejoin:round;stroke-miterlimit:10}
    </style>
    <path class="st0" d="M1333.5 890.2c-2.6-18.9-6.5-37.7-11.4-56.2-9-34.2-25.6-126.4 7.2-262.2 11.9-49.4 18.1-100 17.3-150.8-1.5-91.4-23.8-204.1-124.7-204.1-169.9 0-112.2 330.6-112.2 330.6s28 174.9-72.6 194.6c0 0-315.1-30.8-366.2 106.7 0 0-28 58.3 0 104.5 0 0-103.9 49.5-97.3 140.2 1.7 23.7 8.5 43.1 17.6 58.7-6.6 65.5-10.6 174.3 26.9 215.1 0 0-28 173.2 62.7 226 90.7 52.8 285.4 163.3 414 79.2 128.6-84.1 82.5-158.3 82.5-158.3s13.8-12.9 27.6-34.3c24.1-37.4 48.1-100.8-1.2-166.9 1.7-1.2 172.6-116.2 129.8-422.8z" id="Layer_4"/>
    <g id="STROKES">
        <path class="st1" d="M637 1198.7c-14.4-9-32.5-23.9-45.8-46.5-9.1-15.6-15.9-34.9-17.6-58.7-6.6-90.7 97.3-140.2 97.3-140.2-28-46.2 0-104.5 0-104.5 51.1-137.4 366.2-106.7 366.2-106.7 100.6-19.8 72.6-194.6 72.6-194.6s-57.7-330.6 112.2-330.6c101 0 123.3 112.7 124.7 204.1.8 50.8-5.3 101.4-17.3 150.8-32.9 135.8-16.2 228-7.2 262.2 4.9 18.5 8.8 37.2 11.4 56.2 43 308.1-129.8 422.7-129.8 422.7 77.5 103.9-26.4 201.2-26.4 201.2s46.2 74.2-82.5 158.3-323.3-26.4-414-79.2c-90.7-52.8-62.7-226-62.7-226-37.4-40.9-33.5-149.6-26.9-215.1"/>
        <path class="st1" d="M774.9 1255.2c310.1 176.5 428.9 57.7 428.9 57.7s84.1-132 13.2-186.4c0 0-29.7-24.7-92.4-8.2s-305.2-85.8-305.2-85.8"/>
        <path class="st1" d="M1177.3 1514.1s-94 89.1-382.7-41.2"/>
        <path class="st1" d="M1151.3 1113.3s72.2-18.2 78.8-89.1c0 0 27.1-87.4-78.8-140.2"/>
    </g>
</svg>
