<svg xmlns="http://www.w3.org/2000/svg" viewBox="0 0 1920 1920">
    <style>
        .st0{fill:#fff}.st1{fill:none;stroke:#231f20;stroke-width:50;stroke-linecap:round;stroke-linejoin:round;stroke-miterlimit:10}
    </style>
    <path class="st0" d="M1408.3 1034.8V1644h-307.4c-259.2 45.8-339.4-6.2-397.7-18.7s-127-43.7-153-101c-26-57.2 7.3-111.4 7.3-111.4s-45.8-36.4-45.8-101c0-64.5 35.4-96.8 35.4-96.8s-35.4-35.4-35.4-102 38.5-96.8 38.5-96.8-38.5-17.7-38.5-84.3 46.8-84.5 46.8-84.5c25.2-23.4 251.8-70.5 251.8-70.5-1.7-37.5-46-71.5-46-71.5C589 581.2 614.5 417.8 614.5 417.8c7.5-88.3 28.2-131.1 51.6-149.8 9.3 43.7 23.9 89 33.7 117.1 2.3 6.7 6 12.6 10.6 17.4 10.6 11.1 26.2 16.8 42.1 14.1 13.2-2.2 26.9-6.5 39.2-11.1 72.9 180.3 208.1 254.2 258.4 276.2 14.2 6.2 26.9 15.4 37.2 27 46.9 52.1 172.6 200.5 205.5 326.2h115.5z" id="Layer_5"/>
    <g id="Layer_6">
        <path class="st0" d="M791.8 405.5c-12.4 4.6-26 8.9-39.2 11.1-15.9 2.7-31.5-3-42.1-14.1-4.6-4.9-8.3-10.8-10.6-17.4-9.8-28.2-24.4-73.4-33.7-117.1 25.5-20.5 54.1-12.3 71.9-3.4 10.5 5.3 17.9 15.2 20.1 26.7 8.3 42.2 19.8 80.1 33.6 114.2z"/>
        <path class="st0" d="M1482.2 645.5c3.2 0 3.2-5 0-5s-3.2 5 0 5z"/>
    </g>
    <g id="STROKES">
        <path class="st1" d="M1408.3 1644h-307.4c-259.2 45.8-339.4-6.2-397.7-18.7-58.3-12.5-127-43.7-153-101-26-57.2 7.3-111.4 7.3-111.4s-45.8-36.4-45.8-101 35.4-96.8 35.4-96.8-35.4-35.4-35.4-102 38.5-96.8 38.5-96.8-38.5-17.7-38.5-84.3 46.8-84.5 46.8-84.5c25.2-23.4 251.8-70.4 251.8-70.4-1.7-37.5-46-71.5-46-71.5C589 581.2 614.5 417.8 614.5 417.8 630.1 233 704 247.5 738 264.6c10.5 5.3 17.9 15.2 20.1 26.7 52.3 264.8 232.3 364.2 292 390.4 14.2 6.2 26.9 15.4 37.2 26.9 46.9 52.2 172.6 200.5 205.5 326.2h115.5"/>
        <path class="st1" d="M666.1 267.9c9.3 43.7 23.9 89 33.7 117.1 7.6 21.9 29.9 35.4 52.7 31.5 13.2-2.2 26.9-6.5 39.2-11.1"/>
    </g>
</svg>
