<svg xmlns="http://www.w3.org/2000/svg" viewBox="0 0 1920 1920">
    <style>
        .st0{fill:#fff}.st1{fill:none;stroke:#231f20;stroke-width:50;stroke-linecap:round;stroke-linejoin:round;stroke-miterlimit:10}
    </style>
    <path class="st0" d="M887.7 584.7l-8.3 163L1023.1 604l-7.5-147.2-127.9 127.9zm-22.1 433.2l170-170-7.5-147.2-154.2 154.2-8.3 163zM896 420.8l-2.9 56.8 100-100-8.8-18.3 76.3-102.8V217H849.2v39.4l76.3 102.8-29.5 61.6zm169.3 1012l-187.7 187.7 77.3 82.5 117.8-125.8-7.4-144.4zm-12.4-244l-206.5 206.5-8.3 163 222.3-222.3-7.5-147.2zm-201.1 99.3L1048 1092l-7.5-147.2-180.3 180.4-8.4 162.9z" id="Layer_2"/>
    <path class="st0" d="M1023.1 604L879.4 747.7l-5.5 107.2L1028 700.7l-4.9-96.7zm37.3 732l-222.3 222.3-1 18.9 40.5 43.3 187.7-187.7-4.9-96.8zm-46.6-915.2l-20.7-43.2-100 100-5.5 107.2 128-128-1.8-36zM1048 1092l-196.1 196.2-5.5 107.2 206.5-206.5-4.9-96.9zm-12.4-244l-170 170-5.5 107.2 180.3-180.4-4.8-96.8z" id="Layer_4"/>
    <g id="STROKES">
        <path class="st1" d="M1072.7 1577.2l-117.8 125.9-77.3-82.6-40.5-43.3 1-18.9 8.3-163 5.4-107.2 8.3-163 5.5-107.2 8.3-163 5.5-107.2 8.3-163 5.4-107.2 2.9-56.7 29.5-61.6h58.9l8.7 18.3 20.7 43.3 1.8 36 7.5 147.2 5 96.8 7.5 147.2 4.9 96.8 7.5 147.2 4.9 96.8 7.5 147.2 4.9 96.8z"/>
        <path class="st1" d="M1060.7 216.9v39.5l-76.3 102.8h-58.9l-76.3-102.8v-39.5z"/>
        <path class="st1" d="M1015.6 456.8L887.7 584.7l5.4-107.2 100-100 20.7 43.3z"/>
        <path class="st1" d="M1028.1 700.8L873.9 854.9l5.5-107.2L1023.1 604z"/>
        <path class="st1" d="M1040.5 944.8l-180.4 180.3 5.5-107.2 170-169.9z"/>
        <path class="st1" d="M1052.9 1188.8l-206.5 206.5 5.4-107.2L1048 1092z"/>
        <path class="st1" d="M1065.3 1432.8l-187.7 187.7-40.5-43.3 1-18.9 222.3-222.3z"/>
    </g>
</svg>
