<svg xmlns="http://www.w3.org/2000/svg" viewBox="0 0 1920 1920">
    <style>
        .st0{fill:#fff}.st1{fill:none;stroke:#231f20;stroke-width:50;stroke-linecap:round;stroke-linejoin:round;stroke-miterlimit:10}
    </style>
    <path class="st0" d="M1065.3 1432.8l-4.9-96.8-7.5-147.2-4.9-96.8-7.5-147.2-4.9-96.8-7.5-147.2-5-96.8-7.5-147.2-1.8-36-20.7-43.3-8.7-18.3 76.3-102.8V217H849.2v39.4l76.3 102.8-29.5 61.6-2.9 56.7-5.4 107.2-8.3 163-5.5 107.2-8.3 163-5.5 107.2-8.2 163-5.5 107.2-8.3 163-1 18.9 40.5 43.3 77.3 82.6 117.8-125.9z" id="Layer_9"/>
    <g id="STROKES">
        <path class="st1" d="M1072.7 1577.2l-117.8 125.9-77.3-82.6-40.5-43.3 1-18.9 8.3-163 5.5-107.2 8.2-163 5.5-107.2 8.3-163 5.5-107.2 8.3-163 5.4-107.2 2.9-56.7 29.5-61.6h58.9l8.7 18.3 20.7 43.3 1.8 36 7.5 147.2 5 96.8 7.5 147.2 4.9 96.8 7.5 147.2 4.9 96.8 7.5 147.2 4.9 96.8z"/>
        <path class="st1" d="M1060.7 217v39.4l-76.3 102.8h-58.9l-76.3-102.8V217z"/>
    </g>
</svg>
