<svg xmlns="http://www.w3.org/2000/svg" viewBox="0 0 1920 1920">
    <style>
        .st0{fill:#fff}.st1{fill:none;stroke:#231f20;stroke-width:50;stroke-linecap:round;stroke-linejoin:round;stroke-miterlimit:10}
    </style>
    <path class="st0" d="M966.7 700S787 519.9 742 377.4c-5.4 7.9-10 16.5-13.8 25.8-1-4.8-1.7-9.6-2.3-14.2-7.8 69.2 25 168.5 136.4 311h104.4zm240.7-311c-.6 4.7-1.3 9.4-2.3 14.2-3.7-9.3-8.4-17.9-13.7-25.8-45 142.5-224.7 322.6-224.7 322.6H1071c111.4-142.6 144.3-241.9 136.4-311zM922.5 868L809 1546l157.7 157 157.8-157L1011 868h-88.5z" id="Layer_6"/>
    <path class="st0" d="M862.3 700l39 168h130.8l38.9-168z" id="Layer_7"/>
    <path class="st0" d="M1206.6 350c-26.9-142.4-240-132.9-240-132.9s-213-9.4-240 132.9c-2.3 12.2-2.5 25.3-.8 38.9 1.6-13.8 4.7-26.4 9.2-37.9 1.7 8.6 4 17.4 6.8 26.4 62.7-92.7 224.7-95 224.7-95s162 2.3 224.7 95c2.8-9 5.1-17.8 6.8-26.4 4.5 11.5 7.7 24.1 9.2 37.9 1.9-13.6 1.7-26.7-.6-38.9z" id="Layer_8"/>
    <g id="STROKES">
        <path class="st1" d="M966.7 700H862.3l39 168h130.8l38.9-168z"/>
        <path class="st1" d="M1205.1 403.2c-47.6-118.1-238.5-120.8-238.5-120.8s-190.9 2.7-238.5 120.8c-3.8-18.9-4.6-36.8-1.5-53.2 26.9-142.4 240-132.9 240-132.9s213-9.4 240 132.9c3.1 16.4 2.3 34.3-1.5 53.2z"/>
        <path class="st1" d="M966.7 700H862.3C728.7 529 708.1 420.2 735.1 351.1 763.7 496.5 966.7 700 966.7 700z"/>
        <path class="st1" d="M1071 700H966.7s203-203.4 231.5-348.9c27.1 69.1 6.4 177.9-127.2 348.9z"/>
        <path class="st1" d="M1124.4 1546l-157.7 157.1L808.9 1546l113.5-678h88.5z"/>
    </g>
</svg>
