<svg xmlns="http://www.w3.org/2000/svg" viewBox="0 0 1920 1920">
    <style>
        .st0{fill:#fff}.st1{fill:none;stroke:#231f20;stroke-width:50;stroke-linecap:round;stroke-linejoin:round;stroke-miterlimit:10}
    </style>
    <path class="st0" d="M1418.8 1263.1s-169.6 12.1-230.2 20.2c-60.6 8.1-137.3-38.4-137.3-38.4 0-4.4.6-8.5 1.7-12.5 8.1-29.2 44.5-47.6 87.1-44 48.5 4 129.2-4 129.2-4s-135.3-161.5-123.2-240.3c12.1-78.7 129.2-81.8 129.2-81.8v-.1c99.3 12.2 194.1 40.8 246.3 88 82.8 74.7 214 169.6 173.6 260.5-23.4 52.8-155.2 58.5-267 71.1l-9.4-18.7zm-365.8-30.7c8.1-29.2 44.5-47.6 87.1-44 48.5 4 129.2-4 129.2-4s-135.3-161.5-123.2-240.3c12.1-78.7 129.2-81.8 129.2-81.8v-.1c-58.2-7.1-117.9-8.7-171.6-4.9-145.4 10.1-230.2 12.1-236.2 14.1l-13.5 2 1.3 22.2-68.7 6.1L799 942l-74.7-10.1s-30.3 54.5-101 6.1c0 0-96.9 14.1-92.9 8.1s25.9-73.6 26.2-74.7l-40.4 15.5-6.1 16.8s-46.4 145.4-60.6 183.7c-14.1 38.4-147.4 90.9-145.4 131.2.1 2.8.4 5.7.7 8.7 3.9 36.2 22.2 82.2 71.8 66.8 5.1-1.6 10.6-3.8 16.4-6.8 14.6-7.5 26.6-16.6 36.4-26.2h10s224.1-8.1 278.6-2c54.5 6.1 103-32.3 103-32.3s189.8-14.1 214-4l18 9.6zm-748-5l-12.8 5.4s-66.6 32.3-74.7 74.7c-8.1 42.4 98.9 30.3 143.4-2l15.9-11.3c-49.6 15.4-67.9-30.7-71.8-66.8z" id="Layer_6"/>
    <path class="st0" d="M556.7 871.4l-40.4 15.5-12.1 4.7 14.1-72.7-34.3-4s14.1-125.2 70.7-127.2c0 0-58.6-44.4-26.2-90.9 32.3-46.4 82.8 34.3 82.8 34.3s31.3-1 71.7-1c40.4 0 85.8 7.1 85.8 7.1s20.2-62.6 52.5-56.5c32.3 6 28.3 117.1 4 123.2 0 0 60.6 58.6 56.5 98.9L851.5 829l2.7 44.4 1.3 22.2-68.7 6.1L799 942l-74.7-10.1s-30.3 54.5-101 6.1c0 0-96.9 14.1-92.9 8.1s25.9-73.7 26.3-74.7z" id="Layer_7"/>
    <g id="Layer_2">
        <path class="st1" d="M556.7 871.4l-40.4 15.5-12.1 4.7 14.1-72.7-34.3-4s14.1-125.2 70.7-127.2c0 0-58.6-44.4-26.2-90.9 32.3-46.4 82.8 34.3 82.8 34.3s31.3-1 71.7-1c40.4 0 85.8 7.1 85.8 7.1s20.2-62.6 52.5-56.5c32.3 6 28.3 117.1 4 123.2 0 0 60.6 58.6 56.5 98.9L851.5 829l2.7 44.4 1.3 22.2-68.7 6.1L799 942l-74.7-10.1s-30.3 54.5-101 6.1c0 0-96.9 14.1-92.9 8.1s25.9-73.7 26.3-74.7"/>
        <path class="st1" d="M656.6 866.3c10.6 9.4 26.4 10.2 37.8 1.8l2.5-1.8"/>
        <path class="st1" d="M627.3 697.7l31.3 24.4c10.6 9.4 26.4 10.2 37.8 1.8l37.9-26.2"/>
        <path class="st1" d="M724.2 782.5l18.2-16.1"/>
        <path class="st1" d="M633.4 782.5l-18.2-16.1"/>
        <path class="st1" d="M1265.4 1339.8c11.8-36.4 82.3-49 163.1-58.1 111.9-12.6 243.6-18.4 267-71.1 40.4-90.9-90.9-185.8-173.6-260.5-52.2-47.1-147-75.8-246.3-88-58.2-7.1-117.9-8.7-171.6-4.9-145.4 10.1-230.2 12.1-236.2 14.1l-13.5 2"/>
        <path class="st1" d="M376.7 1294.2c-49.5 15.4-67.8-30.6-71.8-66.8-.3-3-.6-5.9-.7-8.7-2-40.4 131.2-92.9 145.4-131.2 14.1-38.4 60.6-183.7 60.6-183.7l6.1-16.8"/>
        <path class="st1" d="M510.2 1133.8s-26.2 32.3-32.3 42.4c-4.7 7.9-13.2 50.3-48.4 84.8-9.9 9.7-21.8 18.7-36.4 26.2-5.8 3-11.3 5.2-16.4 6.8"/>
        <path class="st1" d="M305 1227.4l-12.8 5.4s-66.6 32.3-74.7 74.7c-8.1 42.4 98.9 30.3 143.4-2l15.9-11.3"/>
        <path class="st1" d="M1182.6 1182.3s-16.2-48.5-78.8-68.7c-62.6-20.2-68.7 109-68.7 109-24.2-10.1-214 4-214 4s-48.5 38.4-103 32.3c-54.5-6.1-278.6 2-278.6 2h-10"/>
        <path class="st1" d="M1275.5 862.3s-117.1 3-129.2 81.8c-12.1 78.8 123.2 240.3 123.2 240.3s-80.8 8.1-129.2 4c-42.6-3.5-79 14.8-87.1 44-1.1 4-1.7 8.2-1.7 12.5 0 0 76.7 46.4 137.3 38.4 60.6-8.1 230.2-20.2 230.2-20.2s-36.3-74.7-22.2-96.9c7.4-11.7 35 2.9 59.5 19.3 30.3 20.4 69.9 20.3 100.2-.2 37.5-25.5 34.4-108.8 32.2-164.5"/>
        <path class="st1" d="M366.9 1234.8l14.1 38.4"/>
        <path class="st1" d="M419.4 1200.5l14.1 32.3"/>
        <path class="st1" d="M504.2 1164.1c8.1-2 94.9 4 117.1-26.2"/>
        <path class="st1" d="M942.3 877.4s56.5 54.5 58.5 131.2"/>
        <path class="st1" d="M936.3 1214.6s20.2-100.9 4-163.5"/>
        <path class="st1" d="M788.9 1240.9s70.7-65.9 76.7-165.6"/>
        <path class="st1" d="M514.3 952.1s24.2 72.7 52.5 100.9"/>
        <path class="st1" d="M611.2 1002.6l42.4-38.4"/>
        <path class="st1" d="M639.5 1069.2s40.4-36.3 94.9-50.5C788.9 1004.6 799 942 799 942"/>
        <path class="st1" d="M1021.1 873.4c6.1 2 84.8 86.8 62.6 167.6"/>
        <path class="st1" d="M1023.1 1089.4s14.1 70.7 4 117.1"/>
        <path class="st1" d="M1216.9 1101.5s70.7-98.9 153.4-40.4"/>
        <path class="st1" d="M1186.6 1030.9s42.4-98.9 117.1-105"/>
        <path class="st1" d="M1467.3 929.9s-42.4 42.4-96.9 46.4"/>
        <path class="st1" d="M1548 986.5s-105 66.6-98.9 119.1"/>
        <path class="st1" d="M1525.8 1154s2-88.8 28.3-88.8"/>
        <path class="st1" d="M1267.4 1160.1s26.2-38.4 60.6-28.3"/>
        <path class="st1" d="M1386.5 1202.5s-48.5-30.3-117.1-18.2"/>
        <path class="st1" d="M670.8 880.5V939"/>
        <path class="st1" d="M1120 1259l10.1-10.1"/>
        <path class="st1" d="M1035.2 1222.7l17.8 9.7"/>
        <path class="st1" d="M1418.8 1263.1l9.6 18.6"/>
    </g>
</svg>
