<svg xmlns="http://www.w3.org/2000/svg" viewBox="0 0 1920 1920">
    <style>
        .st0{fill:#fff}.st1{fill:none;stroke:#231f20;stroke-width:50;stroke-linecap:round;stroke-linejoin:round;stroke-miterlimit:10}
    </style>
    <path class="st0" d="M1568.2 1120.6l9 124.5-39.8 39.7h-81.8s0-59.2 42-63.7l-43.5-99-144.6-133.2c5.4-13.2 13.4-23 24.6-27.2 162-61.5 114-249 114-249l1.4-.8c1.1 1.7 2.1 3.5 3.1 5.3 57 105-12 247.5 4.5 285 16.6 37.4 111.1 118.4 111.1 118.4zm-1101 36s76.5-31.5 154.5-73.5c15.4-8.3 34.9-15.9 57-22.6 38.2-11.7 83.9-20.8 128.9-26.8 60.8-8 120.3-10.2 157.7-4.6 81 12 187.5-57 187.5-57s72 225 6 225-55.5 70.5-55.5 70.5h93l117-117c-11.6-34.7-22-117.3-3.6-161.7 5.4-13.2 13.4-23 24.6-27.2 162-61.5 114-249 114-249l1.4-.8c-62.7-99.7-315.4-99.5-430.4-84.7-117 15-190.5 54-316.5 10.5s-319.5-48-319.5-48l-34.5-31.5-28.5 55.5-46.5 61.5-3 55.5-33 61.5c-19.5 24 15 36 15 36s31.5 42 52.5 46.5 57-45 57-45c34.5 40.5 81 18 112.5 25.5s34.5 141 34.5 141l-75 73.5-124.5 156s27 48 76.5 31.5c49.4-16.6 80.9-100.6 80.9-100.6zm340.3-122.9c-45 5.9-90.7 15.1-128.9 26.8v.1l36 139.5s-70.5-3-82.5 66h129l52.5-70.5-6-160.5-.1-1.4z" id="Layer_1"/>
    <g id="Layer_2">
        <path class="st1" d="M1448.2 712.6s48 187.5-114 249c-11.2 4.3-19.2 14.1-24.6 27.2-18.4 44.5-8 127 3.6 161.7l-117 117h-93s-10.5-70.5 55.5-70.5-6-225-6-225-106.5 69-187.5 57c-37.4-5.5-96.8-3.4-157.7 4.6-45 5.9-90.7 15.1-128.9 26.8-22 6.7-41.6 14.3-57 22.6-78 42-154.5 73.5-154.5 73.5s-31.5 84-81 100.5-76.5-31.5-76.5-31.5l124.5-156 75-73.5s-3-133.5-34.5-141-78 15-112.5-25.5c0 0-36 49.5-57 45S252.6 828 252.6 828s-34.5-12-15-36l33-61.5 3-55.5 46.5-61.5 28.5-55.5 34.5 31.5s193.5 4.5 319.5 48 199.5 4.5 316.5-10.5c115-14.7 367.7-15 430.4 84.7 1.1 1.7 2.1 3.5 3.1 5.3 57 105-12 247.5 4.5 285s111 118.5 111 118.5l9 124.5-39.8 39.7h-81.8s0-59.2 42-63.7l-43.5-99-144.6-133.2"/>
        <path class="st1" d="M678.7 1060.6l36 139.5s-70.5-3-82.5 66h129l52.5-70.5-6-160.5"/>
        <path class="st1" d="M1452.7 717.1s90 57 91.5 174 58.5 225 157.5 142.5"/>
        <path class="st1" d="M887.2 660.1s106.5 115.5 100.5 250.5"/>
        <path class="st1" d="M885.7 1012.6s-16.5-106.5-18-214.5"/>
        <path class="st1" d="M801.7 663.1C790.9 675 781 798.6 782.2 844.6"/>
        <path class="st1" d="M795.7 1102.6l-40.5 9"/>
        <path class="st1" d="M1187.2 1044.1s58.5 18 112.5-30"/>
        <path class="st1" d="M1152.7 972.1s79.5-61.5 78-151.5"/>
        <path class="st1" d="M1053.7 1006.6c4.5-6 63-78 34.5-172.5"/>
        <path class="st1" d="M1064.2 624.1s97.5 85.5 90 190.5"/>
        <path class="st1" d="M1233.7 631.6s114 94.5 67.5 220.5"/>
        <path class="st1" d="M536.2 612.1s36 90-15 150"/>
        <path class="st1" d="M629.2 628.6s27 121.5-28.5 190.5"/>
        <path class="st1" d="M707.2 651.1s-16.5 252-30 268.5"/>
        <path class="st1" d="M771.7 933.1s13.5 69 58.5 97.5"/>
        <path class="st1" d="M585.7 1101.1c-1.5-6-19.5-48-33-52.5"/>
        <path class="st1" d="M974.2 645.1s63 42 81 91.5"/>
        <path class="st1" d="M1161.7 634.6s57 72 57 103.5"/>
        <path class="st1" d="M1365.7 928.6c4.5-6 36-105 18-180"/>
    </g>
</svg>
