<svg xmlns="http://www.w3.org/2000/svg" viewBox="0 0 1920 1920">
    <style>
        .st0{fill:#fff}.st1{fill:none;stroke:#231f20;stroke-width:50;stroke-linecap:round;stroke-linejoin:round;stroke-miterlimit:10}
    </style>
    <path class="st0" d="M1467.2 1295.5c55.7 13.7 110 27 152.8 37.3l6 61.1-79.2-17.3 5.8 100.7-84.9-21.6-8.6 77.7-20.3-8.7c-50-60.4-136.7-133.9-200.8-185 12.9-27.2 23.3-60.4 29.5-93.6 55.1 13.8 128.6 31.9 199.7 49.4zm-229.1 44.3c-21.8 46-50.5 74.6-77 55.9l-1.2 2.5s-22.5 77.4-199.8 79.1h6l-6 2.6 96.2 42 25.9-23 40.3 40.3 38.8-30.2 72 63.3 33.1-54.7 69.1 70.5 43.2-89.2 60.3 25.8c-50.1-60.2-136.8-133.7-200.9-184.9zm-78.3 58.4l1.2-2.5c-1.9-1.3-3.7-2.9-5.6-4.7-66.2-64.8-199-93.5-199-93.5s-125.8 28.7-192 93.5c-28.3 27.7-60-2.8-83.5-53.2-69.9 53.4-167 132.3-218.2 194.8l78.6-33.7 43.2 89.2 69.1-70.5 33.1 54.7 72-63.3 38.8 30.2 40.3-40.3 25.9 23 96.2-42-6-2.6h6c177.4-1.6 199.9-79.1 199.9-79.1zm-859.9-65.4l-6 61.1 79.1-17.3-5.8 100.7 84.9-21.6 8.6 77.7 2-.8c51.2-62.5 148.3-141.4 218.2-194.8-12.5-26.8-22.6-59.3-28.6-91.7-55 13.7-128.5 31.8-199.7 49.3-55.6 13.8-109.9 27.1-152.7 37.4zm824.4-514.4c2-16.9 6.3-31.5 13.9-41.9 26.7-36.8 63.4-34.4 104.3-11.6 0 0-13 105.4-118.2 53.5zm-342.5-41.9c7.5 10.4 11.9 25 13.9 41.9-105.1 51.9-118.1-53.5-118.1-53.5 40.8-22.8 77.5-25.2 104.2 11.6zm714.8-118c-2.9-48.9 77.7-97.9 120.9-141 43.2-43.2 13-177-90.7-188.5-103.6-11.5-214.5 100.8-214.5 100.8l-48.9-8.6-10.1-43.2-67.6 11.5-18.7-41.7-61.9 11.5-46-33.1-36 30.2-31.7-25.9-31.2 34.5-31.7-34.5-31.7 25.9-36-30.2-46 33.1-61.8-11.7-18.7 41.7-67.6-11.5-10.1 43.2-48.9 8.6S496.9 317.3 393.2 328.8c-103.6 11.5-133.9 145.4-90.7 188.5s123.8 92.1 120.9 141v71.3l-100.8 38 100.8 28.8-152.5 135.5 123.8-20.2-175.6 191.4 87.8-17.3-67.6 133.8 72-1.4-11.3 114.5c42.8-10.3 97.1-23.6 152.9-37.3 71.1-17.5 144.6-35.7 199.7-49.3 6 32.4 16.2 64.9 28.6 91.7 23.5 50.4 55.2 80.9 83.5 53.2 66.2-64.8 192-93.5 192-93.5s132.8 28.7 199 93.5c1.8 1.8 3.7 3.4 5.6 4.7 26.4 18.7 55.2-9.9 77-55.9 12.9-27.2 23.3-60.4 29.5-93.6 55 13.7 128.5 31.8 199.7 49.3 55.7 13.7 110 27 152.8 37.3l-11.3-114.5 72 1.4-67.6-133.8 87.8 17.3-175.6-191.4 123.8 20.2-152.6-135.3 100.8-28.8-100.8-38v-71.4zM1009 1168c-2.9 31.7-50.4 41.7-50.4 41.7h-3.2s-47.5-10.1-50.4-41.7c-2.9-31.7-50.4-21.6-66.2-23-15.8-1.4-21.6-40.3-21.6-40.3 0-4.3 31.7-63.3 56.1-38.9 22.3 22.3 56.6 33.1 73.4 42.1 3.2 1.7 6.7 2.5 10.2 2.5 3.6 0 7.1-.9 10.2-2.5 16.8-9 51.1-19.8 73.4-42.1 24.5-24.5 56.1 34.5 56.1 38.9 0 0-5.8 38.9-21.6 40.3-15.6 1.4-63.1-8.7-66 23z" id="Layer_3"/>
    <path class="st0" d="M1096.8 1104.6s-5.8 38.9-21.6 40.3c-15.8 1.4-63.3-8.6-66.2 23-2.9 31.7-50.4 41.7-50.4 41.7h-3.2s-47.5-10.1-50.4-41.7c-2.9-31.7-50.4-21.6-66.2-23-15.8-1.4-21.6-40.3-21.6-40.3 0-4.3 31.7-63.3 56.1-38.9 22.3 22.3 56.6 33.1 73.4 42.1 3.2 1.7 6.7 2.5 10.2 2.5 3.6 0 7.1-.9 10.2-2.5 16.8-9 51.1-19.8 73.4-42.1 24.6-24.4 56.3 34.6 56.3 38.9z" id="Layer_4"/>
    <path class="st0" d="M781.8 776.5c7.5 10.4 11.9 25 13.9 41.9-105.1 51.9-118.1-53.5-118.1-53.5 40.8-22.8 77.5-25.2 104.2 11.6zm356.4 0c-7.5 10.4-11.9 25-13.9 41.9 105.1 51.9 118.1-53.5 118.1-53.5-40.8-22.8-77.5-25.2-104.2 11.6z" id="Layer_5"/>
    <g id="Layer_2">
        <path class="st1" d="M577.4 747.7s36 59 83.5 27.3c5.6-3.7 11.2-7.2 16.6-10.2 40.9-22.8 77.6-25.2 104.3 11.6 7.5 10.4 11.9 25 13.9 41.9 6.1 50.7-8.5 121.8-18.2 159.6-13 50.4-72 57.6-118 141-7.1 12.8-11.1 29.7-12.5 48.8-1.8 23.8.4 51.1 5.5 78.4 6 32.4 16.2 64.9 28.6 91.7 23.5 50.4 55.2 80.9 83.5 53.2 66.2-64.8 192-93.5 192-93.5"/>
        <path class="st1" d="M677.5 764.9s13 105.4 118.1 53.5"/>
        <path class="st1" d="M717 1173.7l-70-5.9-168.9-14.2"/>
        <path class="st1" d="M741.5 1224.1s-35.9 8.9-89 22.1c-55 13.7-128.5 31.8-199.7 49.3-55.7 13.7-110 27-152.9 37.3-41.4 10-72.1 17.2-82.9 19.4"/>
        <path class="st1" d="M763.1 1277.3s-34.8 24.5-82 60.5c-69.9 53.4-167 132.3-218.2 194.8-19.3 23.5-32 44.7-34.4 61.3"/>
        <path class="st1" d="M960.2 364.9l-31.7-34.5-31.7 25.9-36-30.2-46 33.1-61.8-11.6-18.7 41.7-67.6-11.5-10.1 43.2-48.9 8.6S496.9 317.3 393.2 328.8c-103.6 11.5-133.9 145.4-90.7 188.5s123.8 92.1 120.9 141v74.2"/>
        <path class="st1" d="M463.7 714.6l-40.3 15.2-100.8 38 100.8 28.8-152.5 135.3 123.8-20.2-175.6 191.4 87.8-17.3-67.6 133.8 72-1.4-11.3 114.5-6 61.1 79.1-17.3-5.8 100.7 84.9-21.6 8.6 77.7 2-.8 78.6-33.7 43.2 89.2 69.1-70.5 33.1 54.7 72-63.3 38.8 30.2 40.3-40.3 25.9 23 96.2-42 6-2.6h-6c-177.3-1.7-199.8-79.1-199.8-79.1"/>
        <path class="st1" d="M546 509.4c-.9-1.5-66.9-117.7-167-70.5"/>
        <path class="st1" d="M436.2 532.6s39.8-48 109.7-23.2"/>
        <path class="st1" d="M1372.1 509.4c.8-1.5 66.9-117.7 166.9-70.5"/>
        <path class="st1" d="M1481.9 532.6s-39.8-48.1-109.7-23.3"/>
        <path class="st1" d="M404.7 1024.1c-3.2 3.1-25.5 148.5 48 271.5 27.1 45.3 67.2 87.6 126.1 118.6"/>
        <path class="st1" d="M502.6 822.5c0 5.8-43.2 205.8-8.6 259.1"/>
        <path class="st1" d="M564.5 896c1.4 30.2 14.4 73.4 14.4 73.4"/>
        <path class="st1" d="M610.5 1042.8l23-28.8"/>
        <path class="st1" d="M694 681.5l-37.4 1.5"/>
        <path class="st1" d="M731.4 612.4s36-57.6 83.5-56.1"/>
        <path class="st1" d="M830.7 693s-27.3-50.4 11.5-72c38.6-21.4 105.6-31.5 117.8-72.5.1-.3.2-.6.2-.9"/>
        <path class="st1" d="M583.2 649.8s151.1-171.3 250.4-184.2c99.3-13 125.2-41.7 125.2-41.7"/>
        <path class="st1" d="M890.2 717.5s11.5-43.2 36-63.3"/>
        <path class="st1" d="M1342.6 747.7s-36 59-83.5 27.3c-5.6-3.7-11.2-7.2-16.6-10.2-40.9-22.8-77.6-25.2-104.3 11.6-7.5 10.4-11.9 25-13.9 41.9-6.1 50.7 8.5 121.8 18.2 159.6 13 50.4 72 57.6 118 141 7.1 12.8 11.1 29.7 12.5 48.8 1.8 23.8-.4 51.1-5.5 78.4-6.2 33.2-16.6 66.4-29.5 93.6-21.8 46-50.5 74.6-77 55.9-1.9-1.3-3.7-2.9-5.6-4.7-66.2-64.8-199-93.5-199-93.5"/>
        <path class="st1" d="M1203 1173.7l70.1-5.9 168.8-14.2"/>
        <path class="st1" d="M1178.5 1224.1s35.9 8.9 89 22.1c55 13.7 128.5 31.8 199.7 49.3 55.7 13.7 110 27 152.8 37.3 41.4 10 72.1 17.2 83 19.4"/>
        <path class="st1" d="M1156.9 1277.3s34.6 25.3 81.1 62.5c64.1 51.2 150.8 124.7 200.8 185 22 26.6 36.9 50.7 39.6 69.1"/>
        <path class="st1" d="M960.2 364.9l31.2-34.5 31.7 25.9 36-30.2 46 33.1 61.9-11.5 18.7 41.7 67.6-11.5 10.1 43.2 48.9 8.6s110.8-112.3 214.5-100.8c103.6 11.5 133.8 145.4 90.7 188.5-43.2 43.2-123.8 92.1-120.9 141v74.2"/>
        <path class="st1" d="M1456.3 714.6l40.3 15.2 100.8 38-100.8 28.8 152.6 135.3-123.8-20.2 175.6 191.4-87.8-17.3 67.6 133.8-72-1.4 11.3 114.5 6 61.1-79.2-17.3 5.8 100.7-84.9-21.6-8.6 77.7-20.3-8.7-60.3-25.8-43.2 89.2-69.1-70.5-33.1 54.7-72-63.3-38.8 30.2-40.3-40.3-25.9 23-96.2-42-6-2.6h6c177.3-1.7 199.8-79.1 199.8-79.1"/>
        <path class="st1" d="M1515.3 1024.1c3.2 3.1 25.5 148.5-48 271.5-27.1 45.3-67.2 87.6-126.1 118.6"/>
        <path class="st1" d="M1417.4 822.5c0 5.8 43.2 205.8 8.6 259.1"/>
        <path class="st1" d="M1355.5 896c-1.4 30.2-14.4 73.4-14.4 73.4"/>
        <path class="st1" d="M1309.5 1042.8l-23-28.8"/>
        <path class="st1" d="M1226 681.5l37.4 1.5"/>
        <path class="st1" d="M1188.6 612.4s-36-57.6-83.5-56.1"/>
        <path class="st1" d="M1089.3 693s27.3-50.4-11.5-72c-38.6-21.4-105.6-31.5-117.8-72.5-.1-.3-.2-.6-.2-.9"/>
        <path class="st1" d="M1336.8 649.8s-151.1-171.3-250.4-184.2c-99.3-13-127.6-41.7-127.6-41.7"/>
        <path class="st1" d="M1029.8 717.5s-11.5-43.2-36-63.3"/>
        <path class="st1" d="M957 1110.4c-3.6 0-7.1-.9-10.2-2.5-16.8-9-51.1-19.8-73.4-42.1-24.5-24.5-56.1 34.5-56.1 38.9 0 0 5.8 38.9 21.6 40.3 15.8 1.4 63.3-8.6 66.2 23 2.9 31.7 50.4 41.7 50.4 41.7h3.2s47.5-10.1 50.4-41.7c2.9-31.7 50.4-21.6 66.2-23 15.8-1.4 21.6-40.3 21.6-40.3 0-4.3-31.7-63.3-56.1-38.9-22.3 22.3-56.6 33.1-73.4 42.1-3.3 1.6-6.8 2.5-10.4 2.5z"/>
        <path class="st1" d="M1242.5 764.9s-13 105.4-118.1 53.5"/>
    </g>
</svg>
