<svg xmlns="http://www.w3.org/2000/svg" viewBox="0 0 1920 1920">
    <style>
        .st0{fill:#fff}.st1{fill:none;stroke:#231f20;stroke-width:50;stroke-linecap:round;stroke-linejoin:round;stroke-miterlimit:10}
    </style>
    <path class="st0" d="M1509.8 1277.9c11.2-30.4-4.4-64.2-34.9-75.4-30.4-11.2-64.2 4.4-75.4 34.9-11.2 30.4 4.5 64.2 34.9 75.4 30.5 11.2 64.3-4.5 75.4-34.9zm-420.8 67h145.1V645H318.2v700H1089zm614.1-825.3v950.8H216.6V519.6h1486.5zm-143.7 300c0-57.8-46.9-104.7-104.7-104.7-57.8 0-104.7 46.9-104.7 104.7 0 57.8 46.9 104.7 104.7 104.7 57.8-.1 104.7-46.9 104.7-104.7z" id="Layer_11"/>
    <g id="Layer_12">
        <path class="st0" d="M1529.7 1576.7h-128.6v-106.3h128.6v106.3zm-1011.1 0v-106.3H390v106.3h128.6z"/>
        <path class="st0" d="M1089 1344.9H318.2V645h915.9v699.9z"/>
    </g>
    <g id="Layer_13">
        <path class="st0" d="M1454.7 714.9c57.8 0 104.7 46.9 104.7 104.7 0 57.8-46.9 104.7-104.7 104.7-57.8 0-104.7-46.9-104.7-104.7 0-57.9 46.9-104.7 104.7-104.7zm4.8 104.7c0-2.6-2.1-4.8-4.8-4.8s-4.8 2.1-4.8 4.8 2.1 4.8 4.8 4.8 4.8-2.2 4.8-4.8z"/>
        <path class="st0" d="M1474.9 1202.5c30.5 11.2 46.1 44.9 34.9 75.4-11.2 30.4-44.9 46.1-75.4 34.9-30.4-11.2-46.1-44.9-34.9-75.4 11.3-30.4 45-46.1 75.4-34.9z"/>
    </g>
    <g id="STROKES">
        <g id="XMLID_1_">
            <path class="st1" d="M390 1470.3H216.6V519.6h1486.5v950.7H518.6z"/>
            <path class="st1" d="M1509.8 1277.9c-11.2 30.4-44.9 46.1-75.4 34.9-30.4-11.2-46.1-44.9-34.9-75.4 11.2-30.5 44.9-46.1 75.4-34.9 30.5 11.2 46.1 44.9 34.9 75.4z"/>
            <path class="st1" d="M1559.4 819.6c0 57.8-46.9 104.7-104.7 104.7-57.8 0-104.7-46.9-104.7-104.7 0-57.8 46.9-104.7 104.7-104.7 57.8 0 104.7 46.8 104.7 104.7z"/>
            <path class="st1" d="M1351.8 1132.5c56.8-56.8 149-56.8 205.9 0"/>
            <path class="st1" d="M1491.1 1167.8l-13.2 35.8"/>
            <path class="st1" d="M457 1344.9H318.2V645h915.9v699.9H583.4z"/>
            <path class="st1" d="M488 745h544.5"/>
            <path class="st1" d="M518.6 1470.3v106.4H390v-106.4"/>
            <path class="st1" d="M1529.7 1470.3v106.4h-128.6v-106.4"/>
            <circle class="st1" cx="1454.7" cy="819.6" r="4.8"/>
            <path class="st1" d="M329 1197h896"/>
            <path class="st1" d="M709.8 1205v140"/>
            <path class="st1" d="M457 1205v140"/>
            <path class="st1" d="M583.4 1205v140"/>
            <path class="st1" d="M1089 1205v140"/>
            <path class="st1" d="M836.2 1205v140"/>
            <path class="st1" d="M962.6 1205v140"/>
        </g>
    </g>
</svg>
