<svg xmlns="http://www.w3.org/2000/svg" viewBox="0 0 1920 1920">
    <style>
        .st0{fill:#fff}.st1{fill:none;stroke:#231f20;stroke-width:50;stroke-linecap:round;stroke-linejoin:round;stroke-miterlimit:10}
    </style>
    <path class="st0" d="M1652.9 536.9c-15-8.8-32.5-13.9-51.2-13.9H318.3c-14.9 0-29.1 3.2-41.9 9l167.5-144.5c21.4-18.4 48.6-28.6 76.8-28.6h924.5c34.1 0 66.6 14.8 88.9 40.6l118.8 137.4zM455 789h326v74H455v-74zm649 0h326v74h-326v-74zm548.9-252.1c-15-8.8-32.5-13.9-51.2-13.9H318.3c-14.9 0-29.1 3.2-41.9 9-35.1 15.9-59.5 51.3-59.5 92.3V1397h1486.2V624.4c0-37.3-20.2-69.9-50.2-87.5zM960 835.5c-28.6 0-51.8-23.2-51.8-51.8S931.4 732 960 732s51.8 23.2 51.8 51.8-23.2 51.7-51.8 51.7zm0 204.7c-28.6 0-51.8-23.2-51.8-51.8s23.2-51.8 51.8-51.8 51.8 23.2 51.8 51.8-23.2 51.8-51.8 51.8zm0 204.8c-28.6 0-51.8-23.2-51.8-51.8s23.2-51.8 51.8-51.8 51.8 23.2 51.8 51.8-23.2 51.8-51.8 51.8zm743 152H216.9v178h1486.2l-.1-178z" id="Layer_7"/>
    <path class="st0" d="M1463 1575v128.1h-124V1575h124zm-1060 0v128.1h124V1575H403z" id="Layer_8"/>
    <path class="st0" d="M1430 789v74h-326v-74h326zm-975 0v74h326v-74H455z" id="Layer_9"/>
    <path class="st0" d="M960 732c28.6 0 51.8 23.2 51.8 51.8s-23.2 51.8-51.8 51.8-51.8-23.2-51.8-51.8S931.4 732 960 732zm-51.8 256.5c0 28.6 23.2 51.8 51.8 51.8s51.8-23.2 51.8-51.8-23.2-51.8-51.8-51.8-51.8 23.2-51.8 51.8zm0 204.7c0 28.6 23.2 51.8 51.8 51.8s51.8-23.2 51.8-51.8-23.2-51.8-51.8-51.8-51.8 23.3-51.8 51.8z" id="Layer_10"/>
    <g id="STROKES">
        <g id="XMLID_1_">
            <path class="st1" d="M1703.1 1397v178H216.9V624.4c0-41 24.4-76.4 59.5-92.3 12.8-5.8 27-9 41.9-9h1283.3c18.7 0 36.2 5.1 51.2 13.9 30 17.6 50.2 50.2 50.2 87.5V1397z"/>
            <path class="st1" d="M276.4 532l167.5-144.5c21.4-18.4 48.6-28.6 76.8-28.6h924.5c34.1 0 66.6 14.8 88.9 40.6l118.7 137.2"/>
            <path class="st1" d="M586 513l72.8-65.7c5.9-5.4 13.6-8.4 21.6-8.5l132.4-1.5c18.3-.2 33.2 14.6 33.2 32.8V507"/>
            <path class="st1" d="M1334 513l-72.8-65.7c-5.9-5.4-13.6-8.4-21.6-8.5l-132.4-1.5c-18.3-.2-33.2 14.6-33.2 32.8V507"/>
            <path class="st1" d="M217 1397h1486"/>
            <path class="st1" d="M527 1575v128.1H403V1575"/>
            <path class="st1" d="M1463 1575v128.1h-124V1575"/>
            <path class="st1" d="M455 789h326v74H455z"/>
            <path class="st1" d="M1104 789h326v74h-326z"/>
            <path class="st1" d="M1267 865v356"/>
            <path class="st1" d="M618 865v356"/>
            <path class="st1" d="M1267 683v104"/>
            <path class="st1" d="M618 683v104"/>
            <circle class="st1" cx="960" cy="988.5" r="51.8"/>
            <circle class="st1" cx="960" cy="1193.2" r="51.8"/>
            <circle class="st1" cx="960" cy="783.8" r="51.8"/>
        </g>
    </g>
</svg>
