<svg xmlns="http://www.w3.org/2000/svg" viewBox="0 0 1920 1920">
    <style>
        .st0{fill:#fff}.st1{fill:none;stroke:#231f20;stroke-width:50;stroke-linecap:round;stroke-linejoin:round;stroke-miterlimit:10}
    </style>
    <path class="st0" d="M964.3 217c588 12.5 573.4 816.2 453.7 1052.2-87.1 171.7-72.2 433.8-72.2 433.8H553.5s35.6-262.1-51.5-433.8C382.2 1033.2 367.6 229.5 955.7 217h8.6zm332.4 479.6c4.9-461.1-677.4-460.8-673.5-2.4.1 7.7.2 239.6.4 297.4.4 92.4 75.4 102.5 167.7 102.5h337.2c92.4 0 167.4-10.1 167.7-102.5.3-57 .5-287.7.5-295z" id="Layer_1"/>
    <path class="st0" d="M623.2 694.2c-3.9-458.4 678.4-458.7 673.5 2.4-.1 7.3-.2 238-.4 295-.4 92.4-75.4 102.5-167.7 102.5H791.4c-92.4 0-167.4-10.1-167.7-102.5-.3-57.9-.4-289.8-.5-297.4z" id="Layer_3"/>
    <g id="STROKES">
        <path class="st1" d="M1296.7 696.6c-.1 7.3-.2 238-.4 295-.4 92.4-75.3 102.5-167.7 102.5H791.4c-92.4 0-167.4-10.1-167.7-102.5-.2-57.8-.4-289.7-.4-297.4-3.9-458.4 678.3-458.7 673.4 2.4z"/>
        <path class="st1" d="M553.5 1703s35.6-262-51.5-433.8C382.3 1033.2 367.6 229.5 955.7 217h8.7c588 12.5 573.4 816.2 453.7 1052.2-87.1 171.7-72.2 433.8-72.2 433.8"/>
        <path class="st1" d="M634.9 979.6s294.7-231.4 650.3 0"/>
        <path class="st1" d="M779.8 1519.9s159.2-97.3 360.4 0"/>
    </g>
</svg>
