<svg xmlns="http://www.w3.org/2000/svg" viewBox="0 0 1920 1920">
    <style>
        .st0{fill:#fff}.st1{fill:none;stroke:#231f20;stroke-width:50;stroke-linecap:round;stroke-linejoin:round;stroke-miterlimit:10}
    </style>
    <path class="st0" d="M1239.9 434.2c77 287.7-82.2 532.5-86.2 651.7-4.5 134.4 67.2 613.6 67.2 613.6H679.2s71.7-479.3 67.2-613.6c-4-119.3-163.2-364-86.2-651.7 16.7-62.2 52.7-116.9 102.1-155.7-35.7 197.5-5.5 303.2 17.6 348.8 9.4 18.6 26.9 30.1 45.7 30.1h246.5c18.9 0 36.3-11.4 45.8-30.1 23.1-45.6 53.2-153.3 17.5-350.8 50.6 39 87.5 94.4 104.5 157.7z" id="Layer_4"/>
    <path class="st0" d="M1135.3 276.6c35.7 197.4 5.7 305.1-17.5 350.8-9.4 18.6-26.9 30.1-45.8 30.1H825.6c-18.9 0-36.3-11.4-45.7-30.1-23.1-45.6-53.3-151.4-17.6-348.8 23.3-18.3 49.5-33.1 78.1-43.4 15.1-5.5 59.8-18 106.4-18.1 47.8-.1 97.5 12.4 113 18.1 27.5 9.9 52.9 24 75.5 41.4z" id="Layer_5"/>
    <g id="STROKES">
        <path class="st1" d="M679.2 1699.6s71.7-479.3 67.2-613.6c-4-119.3-163.2-364.1-86.2-651.7 24.5-91.6 91-166.8 180.2-199.2 15.1-5.5 59.8-18 106.4-18.1 47.8-.1 97.5 12.4 113 18.1 89.1 32.4 155.6 107.6 180.2 199.2 77 287.7-82.2 532.5-86.2 651.7-4.5 134.4 67.2 613.6 67.2 613.6"/>
        <path class="st1" d="M761.8 281.2c-35.7 197.5-5.1 300.5 18 346.1 9.4 18.6 26.9 30.1 45.7 30.1H1072c18.9 0 36.3-11.4 45.7-30.1 23.1-45.6 53.8-148.7 18-346.1"/>
        <path class="st1" d="M789.9 628c0-87.8 71.2-98.1 159-98.1s159 10.3 159 98.1"/>
        <path class="st1" d="M862 1040.8c50.4-50.4 132.2-50.4 182.7 0"/>
    </g>
</svg>
