<svg xmlns="http://www.w3.org/2000/svg" viewBox="0 0 1920 1920">
    <style>
        .st0{fill:#fff}.st1{fill:none;stroke:#231f20;stroke-width:50;stroke-linecap:round;stroke-linejoin:round;stroke-miterlimit:10}
    </style>
    <path class="st0" d="M1254.9 611.5l2.7 1.1s55.8-46.7 122 1.3c68.2 49.5 99.5 175.1 70.2 215 14.2-2.3 80.9-9.2 106.4 60.2 28.6 77.9 35.1 128.5 26 181.8-6.9 40.2-41.5 163.6-36.3 205.1 5.2 41.5 67.5 193.4 19.5 358.3l-1115.2 70.1c-11.8-91-40.6-158-59.3-193.8-44-63.8-70.3-161.5-49.8-273.6 33.3-181.9 28.5-323.5 10.5-405.9-1.7-7.6-3.4-14.7-5.3-21.2-22.1-77.9-19.5-402.5 89.6-511.5 109.1-109.1 211.6-92.2 262.3-48 37 32.3 73.3 119.3 70.9 236.3-2 22.2-3.4 42.1-6 57.2-1.4 7.8-2.2 18.4-2.8 30.9-3 17-6.8 34.4-11.5 52.2-49.4 185.6-75.4 305-75.4 305l101.3-51.9s-18.3-209.9-14.4-305.3c5.5-30.8 8.2-60.3 8.8-88.1 7.1-77.5 22.2-181.9 125.1-196 132.4-18.2 177.9 88.3 163.6 125.9-6 15.9-15.3 36.9-24.9 60.5l2.8.6s33.8-59.7 119.4-41.5c79 16.7 124.4 133.3 99.8 175.3z" id="Layer_6"/>
    <g id="STROKES">
        <path class="st1" d="M803.2 1569.5c-61-19.5-196 19.5-292.1 19.5S304.7 1435.8 341 1237.1s27.3-349.2 5.2-427.1-19.5-402.5 89.6-511.5 211.6-92.2 262.3-48c50.6 44.1 100 190.9 50.6 376.5-49.3 185.6-75.3 305-75.3 305l101.3-51.9S751.3 611.3 763 543.8s-1.3-235 131.1-253.2c132.4-18.2 177.9 88.3 163.6 125.9-14.3 37.7-46.7 103.9-58.4 166.2-9.7 51.9-1.3 292.1-1.3 292.1"/>
        <path class="st1" d="M1184.9 971c3.9-10.4 36.4-57.1 32.5-105.2 0 0-90.9-151.9 29.9-245.4 39.6-30.7-6.5-166.2-92.2-184.4-85.7-18.2-119.4 41.5-119.4 41.5"/>
        <path class="st1" d="M1357.6 1170.9s7.8-53.2-3.9-90.9-11.7-44.1-11.7-44.1-10.4-106.5 102.6-201.2c37.9-31.8 7-168.6-64.9-220.7-66.2-48-122-1.3-122-1.3"/>
        <path class="st1" d="M1447.2 829.5s80.5-18.2 109.1 59.7 35.1 128.5 26 181.8c-6.9 40.2-41.5 163.6-36.4 205.1s67.5 193.4 19.5 358.3"/>
        <path class="st1" d="M938.3 881.4s175.3 24.7 316.8 170.1 169.4 239.5 169.4 239.5"/>
        <path class="st1" d="M350.5 827s11.3 77.8 128.1 60.9"/>
        <path class="st1" d="M373.5 1481.2s58.4 83.1 76.6 223.3"/>
        <path class="st1" d="M1353.7 1080.1s26 71.4 111.7 61"/>
        <path class="st1" d="M1231.7 871c7.8 0 57.1 15.6 80.5-2.6"/>
        <path class="st1" d="M995.4 606.2s5.2 96.1 93.5 106.5"/>
        <path class="st1" d="M769.5 512.7S785.1 601 865.6 614"/>
    </g>
</svg>
