<svg xmlns="http://www.w3.org/2000/svg" viewBox="0 0 1920 1920">
    <style>
        .st0{fill:#fff}.st1{fill:none;stroke:#231f20;stroke-width:50;stroke-linecap:round;stroke-linejoin:round;stroke-miterlimit:10}
    </style>
    <path class="st0" d="M1612.9 991.1c23.9 0 43.3 19.4 43.3 43.3v70H743.5V991.1h869.4zM1473 1349.9s125.1-70.6 151.8-245.5H743.5v-1H480.3s-15 78.3 119.9 148.2c103.9 53.9 116.9 215.5 95.3 308.2l-.3-.1h-75.6c-59.5 0-107.7 48.2-107.7 107.7v35.5s750.9 1.2 967.9.5c30.3-.1 53-27.6 47.6-57.3l-54.4-296.2zM743.5 315.6h-428v787.8h428V315.6zm0-99.3H263.8v99.3h479.6v-99.3z" id="Layer_5"/>
    <g id="STROKES">
        <g id="XMLID_2_">
            <path class="st1" d="M743.5 991.1V315.6"/>
            <path class="st1" d="M315.5 315.6v787.8h428"/>
            <path class="st1" d="M743.5 315.6v-99.3H263.8v99.3h51.7z"/>
            <path class="st1" d="M950 991.1l-56.6-53.3V216.3"/>
            <path class="st1" d="M1624.7 1104.4c-26.7 174.9-151.8 245.5-151.8 245.5l54.5 296.3c5.5 29.8-17.3 57.2-47.6 57.3-217.1.7-967.9-.5-967.9-.5v-35.5c0-59.5 48.2-107.7 107.7-107.7h75.6"/>
            <path class="st1" d="M855.1 1104.4s35 270.5 416.4 265.5"/>
            <path class="st1" d="M1064.9 1344.9L940 1619.7H668.5c11.1-10.7 20.6-32.2 27.1-59.9 21.6-92.7 8.6-254.3-95.3-308.2-134.9-69.9-119.9-148.2-119.9-148.2"/>
            <path class="st1" d="M843.4 1584.7v111.6"/>
            <path class="st1" d="M819.7 260.6v634.6"/>
            <path class="st1" d="M666.9 428.9s-25 93.3-118.2 94.9"/>
            <path class="st1" d="M950 991.1h662.9c23.9 0 43.3 19.4 43.3 43.3v70H743.5V991.1H950z"/>
        </g>
    </g>
</svg>
