<svg xmlns="http://www.w3.org/2000/svg" viewBox="0 0 1920 1920">
    <style>
        .st0{fill:#fff}.st1{fill:none;stroke:#231f20;stroke-width:50;stroke-linecap:round;stroke-linejoin:round;stroke-miterlimit:10}
    </style>
    <path class="st0" d="M1338.8 216.9v86.7h-206.5c-47.1-45.6-107-73-172.3-73s-125.2 27.4-172.3 73H581.1v-86.7h757.7zm-187.2 709.2c-59.4 10.8-123.6 16.7-190.8 16.7-64.6 0-126.5-5.5-184-15.5-50.4-8.8-97.4-21.1-139.6-36.3-11.5 25.4-17.7 52.6-17.7 80.9 0 11 .9 21.9 2.8 32.5 92.8 29.5 210.5 47.2 338.5 47.2 127.3 0 244.3-17.5 336.8-46.7 1.9-10.8 2.9-21.9 2.9-33.1 0-28.1-6.1-55.2-17.4-80.5-40 14.5-84.2 26.2-131.5 34.8zm111.2-70.4c-38.7-26-81-39.8-125.9-47-14.1-2.3-28.4-3.9-42.9-5.1-3.3-.3-6.7-.5-10.1-.8-39.5-2.7-80.8-2.3-123.1-2.3-46.6 0-91.7-.3-134.9 3.4-14.3 1.2-28.4 2.9-42.3 5.2-45.7 7.6-88.6 21.8-127.8 48.5-7.2 10.7-13.5 21.8-18.7 33.3 42.2 15.2 89.2 27.5 139.6 36.3 0 0 29.2-58.6 86.4-64.9 57.2-6.3 161.9-7.9 211.1 4.8 49.2 12.7 67.7 41.5 77.3 58.9 47.3-8.6 91.5-20.3 131.5-34.6-5.5-12.3-12.3-24.2-20.2-35.7zm-302 196c-128 0-245.7-17.7-338.5-47.2 13.3 77.4 73.3 144 158.3 183.3 52.1 24.1 113.5 38.1 179.4 38.1s127.3-13.9 179.4-38.1c84.8-39.3 144.8-105.6 158.2-182.8-92.5 29.2-209.6 46.7-336.8 46.7zm-180.2 403.7c0 52.5-13.9 103.8-37.8 150.6-2.8 5.4-4.2 11-4.2 16.8 0 47.3 99.1 85.7 221.4 85.7s221.4-38.4 221.4-85.7c0-5.7-1.5-11.3-4.2-16.8-24-46.8-37.8-98-37.8-150.6v-267.6c-52.1 24.1-113.5 38.1-179.4 38.1s-127.3-13.9-179.4-38.1v267.6zm303.3-652.6c3.4.2 6.7.5 10.1.8l.2-2.3 83-12.2c37.3-5.5 66.3-35.1 71-72.5l52.4-413h-168.2c61.9 60.1 101.5 151.9 101.5 254.8 0 100.3-90.6 183.5-149.9 243.7l-.1.7zM787.7 303.7c-61.9 60.1-101.5 151.9-101.5 254.8 0 100.6 80.1 182.7 139.7 242.8v2.6c43.1-3.7 88.3-3.4 134.9-3.4 42.3 0 83.5-.4 123.1 2.3l.1-.7c59.3-60.1 149.9-143.3 149.9-243.7 0-102.9-39.6-194.7-101.5-254.8-47.1-45.6-107-73-172.3-73S834.8 258 787.7 303.7zm0 0H619.5l13.3 104.8 39.1 308.2c4.7 37.4 33.8 67 71 72.5l83 12.2c-59.6-60.3-139.7-142.4-139.7-243 0-102.8 39.6-194.6 101.5-254.7z" id="Layer_3"/>
    <path class="st0" d="M1151.6 926.1c-59.4 10.8-123.6 16.7-190.8 16.7-64.6 0-126.5-5.5-184-15.5 0 0 29.2-58.6 86.4-64.9 57.2-6.3 161.9-7.9 211.1 4.8 49.2 12.7 67.7 41.4 77.3 58.9z" id="Layer_4"/>
    <g id="STROKES">
        <g id="XMLID_2_">
            <path class="st1" d="M1297.6 1005c1.9-10.8 2.9-21.9 2.9-33.1 0-28.1-6.1-55.2-17.4-80.5"/>
            <path class="st1" d="M637.2 891c-11.5 25.4-17.7 52.6-17.7 80.9 0 11 .9 21.9 2.8 32.5"/>
            <path class="st1" d="M780.6 1187.8v267.6c0 52.5-13.9 103.8-37.8 150.6-2.8 5.4-4.2 11-4.2 16.8 0 47.3 99.1 85.7 221.4 85.7s221.4-38.4 221.4-85.7c0-5.7-1.5-11.3-4.2-16.8-24-46.8-37.8-98-37.8-150.6v-267.6"/>
            <path class="st1" d="M1297.6 1005c-92.5 29.2-209.6 46.7-336.8 46.7-128 0-245.7-17.7-338.5-47.2 13.3 77.4 73.3 144 158.3 183.3 52.1 24.1 113.5 38.1 179.4 38.1s127.3-13.9 179.4-38.1c84.8-39.3 144.7-105.6 158.2-182.8z"/>
            <path class="st1" d="M619.5 303.7l13.3 104.8 39.1 308.2c4.7 37.4 33.8 67 71 72.5l83 12.2"/>
            <path class="st1" d="M1300.5 303.7l-52.4 413c-4.7 37.4-33.8 67-71 72.5l-83 12.2"/>
            <path class="st1" d="M711 408.4H584"/>
            <path class="st1" d="M1132.3 303.7h206.5v-86.8H581.2v86.8h206.5"/>
            <path class="st1" d="M1083.9 802.1c59.3-60.1 149.9-143.3 149.9-243.7 0-102.9-39.6-194.7-101.5-254.8-47.1-45.6-107-73-172.3-73s-125.2 27.4-172.3 73c-61.9 60.1-101.5 151.9-101.5 254.8 0 100.6 80.1 182.7 139.7 242.8"/>
            <path class="st1" d="M1151.6 926.1c47.3-8.6 91.5-20.3 131.5-34.6-5.6-12.4-12.3-24.3-20.2-35.8-38.7-26-81-39.8-125.9-47-14.1-2.3-28.4-3.9-42.9-5.1-3.3-.3-6.7-.5-10.1-.8-39.5-2.7-80.8-2.3-123.1-2.3-46.6 0-91.7-.3-134.9 3.4-14.3 1.2-28.4 2.9-42.3 5.2-45.7 7.6-88.6 21.8-127.8 48.5-7.2 10.7-13.5 21.8-18.7 33.3 42.2 15.2 89.2 27.5 139.6 36.3 57.5 10 119.4 15.5 184 15.5 67.1.1 131.4-5.8 190.8-16.6"/>
            <path class="st1" d="M898.1 749.7v47.6"/>
            <path class="st1" d="M1021.9 749.7v47.6"/>
            <path class="st1" d="M776.8 927.3s29.2-58.6 86.4-64.9c57.2-6.3 161.9-7.9 211.1 4.8 49.2 12.7 67.7 41.5 77.3 58.9"/>
        </g>
    </g>
</svg>
