<svg xmlns="http://www.w3.org/2000/svg" viewBox="0 0 1920 1920">
    <style>
        .st0{fill:#fff}.st1{fill:none;stroke:#231f20;stroke-width:50;stroke-linecap:round;stroke-linejoin:round;stroke-miterlimit:10}
    </style>
    <path class="st0" d="M581.2 217l-.4 86.7h38.7l13.3 104.8 39.1 308.2c4.7 37.4 33.8 67 71 72.5l95.8 13.8c-66.4 4.6-128.2 17.6-182.8 54.8-7.2 10.7-13.5 21.8-18.7 33.3-11.5 25.4-17.7 52.6-17.7 80.9 0 11 .9 21.9 2.8 32.5 13.3 77.4 73.3 144 158.3 183.3v267.6c0 52.5-13.9 103.8-37.8 150.6-2.8 5.4-4.2 11-4.2 16.8 0 47.3 99.1 85.7 221.4 85.7s221.4-38.4 221.4-85.7c0-5.7-1.5-11.3-4.2-16.8-24-46.8-37.8-98-37.8-150.6v-267.6c84.8-39.3 144.8-105.6 158.2-182.8 1.9-10.8 2.9-21.9 2.9-33.1 0-28.1-6.1-55.2-17.4-80.5-5.6-12.4-12.3-24.3-20.2-35.8-53.4-35.8-113.5-48.4-178-52.9l92.3-13.7c37.3-5.5 66.3-35.1 71-72.5l52.4-413h38l.4-86.7H581.2zm140.9 199.4c-4.4 0-7.9-3.6-7.9-7.9 0-4.4 3.5-7.9 7.9-7.9s7.9 3.5 7.9 7.9c0 4.3-3.5 7.9-7.9 7.9z" id="Layer_1"/>
    <g id="STROKES">
        <g id="XMLID_2_">
            <path class="st1" d="M619.5 303.7h-38.7l.4-86.8h757.6l-.3 86.8h-38z"/>
            <path class="st1" d="M1297.6 1005c1.9-10.8 2.9-21.9 2.9-33.1 0-28.1-6.1-55.2-17.4-80.5"/>
            <path class="st1" d="M637.2 891c-11.5 25.4-17.7 52.6-17.7 80.9 0 11 .9 21.9 2.8 32.5"/>
            <path class="st1" d="M1283 891.5c-5.6-12.4-12.3-24.3-20.2-35.8-53.4-35.8-113.5-48.4-178-52.9-39.8-2.7-81.3-2.3-124-2.3-42 0-82.9-.3-122.1 2.4-66.4 4.6-128.2 17.6-182.8 54.8-7.2 10.7-13.5 21.8-18.7 33.3 90.4 32.5 202.3 51.8 323.6 51.8 120.6 0 232.1-19.1 322.2-51.3z"/>
            <path class="st1" d="M780.6 1187.8v267.6c0 52.5-13.9 103.8-37.8 150.6-2.8 5.4-4.2 11-4.2 16.8 0 47.3 99.1 85.7 221.4 85.7s221.4-38.4 221.4-85.7c0-5.7-1.5-11.3-4.2-16.8-24-46.8-37.8-98-37.8-150.6v-267.6"/>
            <path class="st1" d="M1297.6 1005c-92.5 29.2-209.6 46.7-336.8 46.7-128 0-245.7-17.7-338.5-47.2 13.3 77.4 73.3 144 158.3 183.3 52.1 24.1 113.5 38.1 179.4 38.1s127.3-13.9 179.4-38.1c84.8-39.3 144.7-105.6 158.2-182.8z"/>
            <path class="st1" d="M619.5 303.7l13.3 104.8 39.1 308.2c4.7 37.4 33.8 67 71 72.5l95.8 13.8"/>
            <path class="st1" d="M1300.5 303.7l-52.4 413c-4.7 37.4-33.8 67-71 72.5l-92.3 13.7-.6.1"/>
            <path class="st1" d="M711 408.4H584"/>
            <path class="st1" d="M730 408.4c0 4.4-3.5 7.9-7.9 7.9s-7.9-3.6-7.9-7.9c0-4.4 3.5-7.9 7.9-7.9s7.9 3.6 7.9 7.9z"/>
        </g>
    </g>
</svg>
