<svg xmlns="http://www.w3.org/2000/svg" viewBox="0 0 1920 1920">
    <style>
        .st0{fill:#fff}.st1{fill:none;stroke:#231f20;stroke-width:50;stroke-linecap:round;stroke-linejoin:round;stroke-miterlimit:10}
    </style>
    <path class="st0" d="M1175.8 217.9c-25.9 0-50.7 6.8-73.8 19.4-71.2 38.7-154.7 46.2-230.7 22.5L820 238.4c-.7-.4-1.4-.7-2-1.1-23.1-12.5-47.9-19.4-73.8-19.4-123.3 0-223.3 155.2-223.3 346.6 0 82.4 18.5 158 49.4 217.5 0 0 150.5 497.1 160.7 710.6 10.2 213.5 119.9 237.8 134.2 187 14.2-50.8-20.3-416.7 115.9-640.4 136.2 223.6 102.3 589.5 116.5 640.4 14.2 50.8 124 26.4 134.2-187 10.2-213.5 118-710.6 118-710.6 30.9-59.5 49.4-135.1 49.4-217.5-.1-191.4-100.1-346.6-223.4-346.6z" id="Layer_3"/>
    <g id="STROKES">
        <path class="st1" d="M1349.7 782c30.9-59.5 49.4-135.1 49.4-217.5 0-191.4-100-346.6-223.3-346.6-25.9 0-50.7 6.8-73.8 19.4-88.4 48-195.7 48-284 0-23.1-12.5-47.9-19.4-73.8-19.4-123.3 0-223.3 155.2-223.3 346.6 0 82.4 18.5 158 49.4 217.5"/>
        <path class="st1" d="M819.7 238.3s56.9 147.4 309 129.1"/>
        <path class="st1" d="M1349.7 782s-107.8 497.1-118 710.6-119.9 237.8-134.2 187c-14.2-50.8 19.7-416.7-116.5-640.4-136.2 223.6-101.6 589.5-115.9 640.4-14.2 50.8-124 26.4-134.2-187S570.3 782 570.3 782"/>
    </g>
</svg>
