<svg xmlns="http://www.w3.org/2000/svg" viewBox="0 0 1920 1920">
    <style>
        .st0{fill:#fff}.st1{fill:none;stroke:#231f20;stroke-width:50;stroke-linecap:round;stroke-linejoin:round;stroke-miterlimit:10}
    </style>
    <path class="st0" d="M1651.7 757.8l-2 1.6c0 157.2-136.2 203.3-291.4 203.3H471.6c-209.6 0-121.6 260-121.6 260l-1 2.1c-49.5-22.6-89.2-62.7-111.5-112.4-12.2-27.3-19.2-57.4-19.5-89.2-1.3-124 99.4-226.1 223.4-226.5 3.8 0 7.5.1 11.2.2l938-1.9c61.5 0 78-86 20.3-107.5-.7-.3-1.4-.5-2.2-.8-.5-.1-.9-.3-1.3-.5 22.1-7.3 45.7-11.2 70.2-11.2 70.3 0 133 32.3 174.1 82.8z" id="Layer_1"/>
    <path class="st0" d="M1701.9 896.9c1.3 124-99.4 226.1-223.4 226.5H529.6c-62.6 0-79.1 87.5-20.4 109.2.6.2 1.3.5 2 .7.5.2.9.3 1.4.4-22.1 7.3-45.7 11.2-70.2 11.2-33.2 0-64.8-7.2-93.2-20.2l1-2.1s-88.1-259.9 121.6-259.9h886.7c155.1 0 291.4-46.1 291.4-203.3l2-1.6c12.3 15.1 22.7 31.9 30.8 49.9 12 27.3 18.9 57.4 19.2 89.2z" id="Layer_3"/>
    <g id="STROKES">
        <g id="XMLID_1_">
            <path class="st1" d="M349.1 1224.7c28.4 13 59.9 20.2 93.2 20.2 24.5 0 48.1-4 70.2-11.2-.5-.1-.9-.3-1.4-.4-.7-.2-1.3-.5-2-.7-58.7-21.7-42.2-109.2 20.4-109.2h948.9c124-.4 224.7-102.5 223.4-226.5-.3-31.8-7.2-61.9-19.5-89.2-8.1-18-18.5-34.8-30.8-49.9-41.1-50.5-103.7-82.7-173.9-82.7-24.5 0-48.1 4-70.2 11.2.4.2.9.3 1.3.5.7.2 1.5.5 2.2.8 57.6 21.5 41.2 107.5-20.3 107.5l-938 1.9c-3.7-.2-7.5-.3-11.2-.2-124 .4-224.7 102.5-223.4 226.5.3 31.8 7.2 61.9 19.5 89.2 22.3 49.5 62.1 89.6 111.6 112.2z"/>
            <path class="st1" d="M350 1222.7s-88.1-259.9 121.6-259.9h886.7c155.1 0 291.4-46.1 291.4-203.3"/>
        </g>
    </g>
</svg>
