<svg xmlns="http://www.w3.org/2000/svg" viewBox="0 0 1920 1920">
    <style>
        .st0{fill:#fff}.st1{fill:none;stroke:#231f20;stroke-width:50;stroke-linecap:round;stroke-linejoin:round;stroke-miterlimit:10}
    </style>
    <path class="st0" d="M664.5 1421.2c-3.2 25.4-7.8 50.1-14.9 73.1-30.3 97.4-113 198.9-316.9 155-81.9-17.6-108.9 11.4-108.9 11.4-30.2-43 32.1-133.2 116-133.2 92.7 0 212.4 18 290.2-60 12.7-12.7 24.3-28 34.5-46.3z" id="Layer_6"/>
    <path class="st0" d="M1703.6 455.3h.3c-1.5 48-20.8 96.7-61.2 137.1-86.5 86.5-661.4 687.8-661.4 687.8l-190.6-190.6s345.7-317.3 549.9-385.7c201-67.3 327.8-81.4 363-248.6z" id="Layer_7"/>
    <g id="Layer_8">
        <path class="st0" d="M835 1362.8c-13.2-3.9-25.6-11.1-36-21.5l-69.3-69.3c-7.8-7.8-13.9-16.8-18-26.5-13.6-31.4-7.6-69.2 18-94.9l61-61 190.6 190.6-61 61c-23.1 23.1-56.1 30.3-85.3 21.6z"/>
        <path class="st0" d="M835 1362.8c-47.6-4.6-138.2 75.8-138.2 75.8l-55.7-55.7s92.6-85.8 70-137.1l.5-.2c4.2 9.6 10.2 18.6 18 26.5l69.3 69.3c10.5 10.3 22.9 17.4 36.1 21.4z"/>
    </g>
    <g id="STROKES">
        <g id="XMLID_1_">
            <path class="st1" d="M981.3 1280.2s574.8-601.2 661.4-687.8c40.4-40.4 59.7-89.1 61.2-137.1 1.7-54.9-19.8-109-59.7-148.9-74.8-74.8-176-49.9-225.8 0-49.8 49.9-55.7 137.9-7.3 186.2s98.2 36.7 118.8 16.1"/>
            <path class="st1" d="M790.7 1089.6s345.7-317.3 549.9-385.7c201-67.3 327.8-81.4 362.9-248.6"/>
            <path class="st1" d="M981.3 1280.2l-61 61c-23.1 23.1-56.1 30.3-85.3 21.5-13.2-3.9-25.6-11.1-36-21.5l-69.3-69.3c-7.8-7.8-13.9-16.8-18-26.5-13.6-31.4-7.6-69.2 18-94.9l61-61 190.6 190.7z"/>
            <path class="st1" d="M838.6 1363.3c-1.2-.2-2.4-.4-3.6-.5-47.6-4.6-138.2 75.8-138.2 75.8l-55.7-55.7s92.6-85.8 70-137.1c0-.1-.1-.1-.1-.2"/>
            <path class="st1" d="M332.6 1649.3c-81.9-17.6-108.9 11.4-108.9 11.4-30.2-43 32.1-133.2 116-133.2 92.7 0 212.4 18 290.2-60 12.7-12.7 24.3-28 34.5-46.4-3.2 25.4-7.8 50.1-14.9 73.1-30.2 97.5-113 199-316.9 155.1z"/>
        </g>
    </g>
</svg>
