<svg xmlns="http://www.w3.org/2000/svg" viewBox="0 0 1920 1920">
    <style>
        .st0{fill:#fff}.st1{fill:none;stroke:#231f20;stroke-width:50;stroke-linecap:round;stroke-linejoin:round;stroke-miterlimit:10}
    </style>
    <path class="st0" d="M1195.7 219.2c-28.2 0-55.3 7.4-80.6 21.1-96.5 52.4-213.7 52.4-310.2 0-25.2-13.7-52.3-21.1-80.6-21.1-134.7 0-243.9 169.5-243.9 378.6 0 89.9 20.2 172.6 54 237.5 45.1 86.8 72.5 188.1 81.1 293.5l35.8 442.2c6.1 74.9 53.4 131.2 109.2 129.8 15.4-.4 41.9-7.3 57.5-65l109.8-461.4c8.9-33 55.8-33 64.7 0l105.3 445.8c11.1 48.8 46.6 80.2 61.9 80.6 55.7 1.4 103.1-54.9 109.2-129.8l35.8-442.2c8.5-105.4 36-206.7 81.1-293.5 33.8-64.9 54-147.6 54-237.5-.2-209.1-109.4-378.6-244.1-378.6z" id="Layer_1"/>
    <path class="st1" d="M1439.6 597.8c0-209.1-109.2-378.6-243.9-378.6-28.2 0-55.3 7.4-80.6 21.1-96.5 52.4-213.7 52.4-310.2 0-25.2-13.7-52.3-21.1-80.6-21.1-134.7 0-243.9 169.5-243.9 378.6 0 89.9 20.2 172.6 54 237.5 45.1 86.8 72.5 188.1 81.1 293.5l35.8 442.2c6.1 74.9 53.4 131.2 109.2 129.8 15.4-.4 41.9-7.3 57.5-65l109.8-461.4c8.9-33 55.8-33 64.7 0l105.3 445.8c11.1 48.8 46.6 80.2 61.9 80.6 55.8 1.4 103.1-54.9 109.2-129.8l35.8-442.2c8.5-105.4 36-206.7 81.1-293.5 33.6-65 53.8-147.6 53.8-237.5z" id="STROKES"/>
</svg>
