<svg xmlns="http://www.w3.org/2000/svg" viewBox="0 0 1920 1920">
    <style>
        .st0{fill:#fff}.st1{fill:none;stroke:#231f20;stroke-width:50;stroke-linecap:round;stroke-linejoin:round;stroke-miterlimit:10}
    </style>
    <path class="st0" d="M773.9 1409.3H405.8c-104.8 0-188.3-87.8-183-192.4l18.9-375C251 656.3 404.2 510.7 590 510.7c185.9 0 339.2 145.9 348.4 331.6l18.5 374.8c5.2 104.6-78.2 192.2-183 192.2z" id="Layer_4"/>
    <path class="st0" d="M1514.3 1409.3h-368.2c-104.8 0-188.3-87.8-183-192.4l18.9-375c9.3-185.6 162.5-331.3 348.4-331.3 185.9 0 339.2 145.9 348.4 331.6l18.5 374.8c5.2 104.7-78.3 192.3-183 192.3z" id="Layer_5"/>
    <g id="STROKES">
        <path class="st1" d="M1514.3 1409.3h-368.2c-104.8 0-188.3-87.8-183-192.4l18.9-375c9.3-185.6 162.5-331.3 348.4-331.3 185.9 0 339.2 145.9 348.4 331.6l18.5 374.8c5.2 104.7-78.3 192.3-183 192.3z"/>
        <path class="st1" d="M773.9 1409.3H405.8c-104.8 0-188.3-87.8-183-192.4l18.9-375C251 656.3 404.2 510.7 590 510.7c185.9 0 339.2 145.9 348.4 331.6l18.5 374.8c5.2 104.6-78.2 192.2-183 192.2z"/>
    </g>
</svg>
