<svg xmlns="http://www.w3.org/2000/svg" viewBox="0 0 1920 1920">
    <style>
        .st0{fill:#fff}.st1{fill:none;stroke:#231f20;stroke-width:50;stroke-linecap:round;stroke-linejoin:round;stroke-miterlimit:10}
    </style>
    <path class="st0" d="M896.5 892.2c-.1-18.6 2.2-37.1 7-55l.3-1.3c13-48.9 18.2-99.6 15.6-150.1l-8.8-165.9c4.1 1.6 8.5 2.5 13.1 2.5h72.4c5.9 0 11.5-1.5 16.5-4.1l-9.5 174.4c-2.4 46 1.8 92.2 12.3 137l2.4 10.2c3.8 16.2 5.7 32.8 5.6 49.4l-4.5 755c-.1 16.2-6.7 30.9-17.4 41.5-10.7 10.6-25.4 17.2-41.6 17.2-32.4 0-58.8-26.2-59-58.6l-4.4-752.2z" id="Layer_1"/>
    <path class="st0" d="M888.4 486.9V288.5c0-39.5 32-71.6 71.6-71.6 19.8 0 37.7 8 50.6 21 13 12.9 21 30.8 21 50.6v198.4c0 13.6-7.7 25.4-18.9 31.3-4.9 2.6-10.5 4.1-16.5 4.1h-72.4c-4.6 0-9.1-.9-13.1-2.5-13.1-5.2-22.3-18-22.3-32.9z" id="Layer_3"/>
    <g id="STROKES">
        <g id="XMLID_1_">
            <g id="XMLID_2_">
                <path class="st1" d="M1012.7 518.2c-4.9 2.6-10.5 4.1-16.5 4.1h-72.4c-4.6 0-9.1-.9-13.1-2.5-13-5.2-22.2-18-22.2-32.9V288.5c0-39.5 32-71.6 71.6-71.6 19.8 0 37.7 8 50.6 21 13 12.9 21 30.8 21 50.6v198.4c-.1 13.6-7.8 25.4-19 31.3z"/>
                <path class="st1" d="M910.7 519.8l8.8 165.9c2.6 50.5-2.6 101.2-15.6 150.1l-.3 1.3c-4.8 18-7.1 36.5-7 55l4.5 752.1c.2 32.4 26.5 58.6 59 58.6 16.2 0 30.9-6.6 41.6-17.2 10.7-10.6 17.3-25.2 17.4-41.5l4.5-755c.1-16.6-1.8-33.2-5.6-49.4l-2.4-10.2c-10.6-44.9-14.7-91-12.3-137l9.5-174.4"/>
                <path class="st1" d="M889.8 293.8l48.4 48.4 46.9-46.9 42.2 42.2"/>
                <path class="st1" d="M889.8 400l48.4 48.5 46.9-46.9 42.2 42.2"/>
            </g>
        </g>
    </g>
</svg>
