<svg xmlns="http://www.w3.org/2000/svg" viewBox="0 0 1920 1920">
    <style>
        .st0{fill:#fff}.st1{fill:none;stroke:#231f20;stroke-width:50;stroke-linecap:round;stroke-linejoin:round;stroke-miterlimit:10}
    </style>
    <path class="st0" d="M635.8 466.9c17.8-5.1 37.6-1.3 52.5 11.6l853.1 745.1-1 1.1-390 390-1.2 1.1-746-852.2c-14.4-16.5-17.5-39.1-9.7-58.3 2.7-6.7 6.8-12.9 12.2-18.3l205.9-205.9c7-7 15.3-11.7 24.2-14.2z" id="Layer_4"/>
    <path class="st0" d="M1626.6 1298l-402.9 403-74.6-85.2 1.2-1.1 390-390 1-1.1 85.3 74.4zM395.8 370.3h-.7v-.7l-1.3-1.3-100.4 100.5 108 108-8.3 128.3.5.2c2.7-6.7 6.8-12.9 12.2-18.3l205.9-205.9c6.9-6.9 15.3-11.7 24.1-14.2l-133.9 9.5-106.1-106.1zm-.7-151.3v150.6l.7.7h75.7V219h-76.4z" id="Layer_5"/>
    <g id="STROKES">
        <g id="XMLID_1_">
            <path class="st1" d="M1541.3 1223.6l85.3 74.5-402.9 402.9-74.6-85.2-745.9-852.2c-14.4-16.5-17.5-39.1-9.7-58.3 2.7-6.7 6.8-12.9 12.2-18.3l205.9-205.9c6.9-6.9 15.3-11.7 24.1-14.2 17.8-5.1 37.6-1.3 52.5 11.6l853.1 745.1z"/>
            <path class="st1" d="M1540.3 1224.7l-390 390"/>
            <path class="st1" d="M639.1 466.6l-3.3.3-133.9 9.4-106.1-106-.7-.7-1.2-1.3-100.5 100.5 108 108-8.3 128.3"/>
            <path class="st1" d="M395.8 370.3h-.7V219h76.4v151.3z"/>
        </g>
    </g>
</svg>
