<svg xmlns="http://www.w3.org/2000/svg" viewBox="0 0 1920 1920">
    <style>
        .st0{fill:#fff}.st1{fill:none;stroke:#231f20;stroke-width:50;stroke-linecap:round;stroke-linejoin:round;stroke-miterlimit:10}
    </style>
    <g id="Layer_5">
        <path class="st0" d="M547.8 1590.8l-91.8 91.8c-20 20-52.4 20-72.4 0l-129.4-129.4c-20-20-20-52.4 0-72.4L346 1389l201.8 201.8z"/>
        <path class="st0" d="M1207.1 729.8l-67.8 187c-30.9 85.2-80.1 162.6-144.2 226.7l-447.3 447.3L346 1389.1l447.3-447.3c64.1-64.1 141.5-113.3 226.7-144.2l187.1-67.8z"/>
    </g>
    <path transform="rotate(-44.992 1517.035 318.42)" class="st0" d="M1421.3 278.2h191.2v80.4h-191.2z" id="Layer_6"/>
    <path class="st0" d="M1666.1 296.8c19.5 19.5 19.5 51.1 0 70.7l-102.3 102.4c-19.5 19.5-51.1 19.5-70.7 0l-35.4-35.4 20-20 135.2-135.2 17.8-17.8 35.4 35.3z" id="Layer_7"/>
    <g id="STROKES">
        <g id="XMLID_1_">
            <g id="XMLID_2_">
                <path class="st1" d="M1612.9 279.2l17.8-17.8 35.4 35.4c19.5 19.5 19.5 51.1 0 70.7l-102.3 102.4c-19.5 19.5-51.1 19.5-70.7 0l-35.4-35.4 20-20 135.2-135.3z"/>
                <path class="st1" d="M1207.1 729.8l-187 67.8c-85.2 30.9-162.6 80.1-226.7 144.2L346 1389.1l-91.8 91.8c-20 20-20 52.4 0 72.4l129.4 129.4c20 20 52.4 20 72.4 0l91.8-91.8 447.3-447.3c64.1-64.1 113.3-141.5 144.2-226.7l67.8-187.1z"/>
                <path class="st1" d="M767.7 982.4c27.1 27.1 25.3 73-4.1 102.3-29.4 29.4-75.2 31.2-102.4 4.1"/>
                <path class="st1" d="M1207.1 729.8L1476.9 460"/>
                <path class="st1" d="M896.8 869.3l170.7 170.8"/>
                <path class="st1" d="M346 1389.1l201.8 201.7"/>
                <path class="st1" d="M1477.8 414.4l-56.9-56.8 135.2-135.2 56.8 56.8"/>
            </g>
        </g>
    </g>
</svg>
