<svg xmlns="http://www.w3.org/2000/svg" viewBox="0 0 1920 1920">
    <style>
        .st0{fill:#fff}.st1{fill:none;stroke:#231f20;stroke-width:50;stroke-linecap:round;stroke-linejoin:round;stroke-miterlimit:10}
    </style>
    <path class="st0" d="M1414.6 492.2s33.5 139.4-30.7 340.7c-11.9 37.3-27.1 76.9-46.3 118.5-60.9 5.7-131 8.9-205.6 8.9-76 0-147.2-3.3-208.9-9.2 3.4-44.6 1.6-85.6-3.4-122.5-19-141.5-86.2-227.2-86.2-227.2 72.3-15 134.3-57.8 174.6-116.8 21.3 4.4 43.3 6.7 65.8 6.7 62.1 0 120.1-17.4 169.4-47.6 32.8 33.1 78.3 53.6 128.6 53.6 14.8-.1 29-1.8 42.7-5.1zM1132 960.3c-76 0-147.2-3.3-208.9-9.2-5.5 72.2-24.5 153.9-65.6 243.5-14.4 31.5-31.5 63.9-51.7 97.2 54.5 6.3 120.7 10.1 192.2 10.1 35.3 0 69.3-.9 101.3-2.6 31.3-33.9 59.6-67.4 85.3-100.3 68.2-87.4 117.5-170.8 153-247.5-60.9 5.5-131 8.8-205.6 8.8zm-326.2 331.5c-34 56.2-94.2 131.1-147.5 192 55.9 5.4 101.9 44.9 116.9 97.4 30.7-23.3 113.9-85.7 141.6-108.9 69.9-58.5 130.3-116.4 182.6-173.1-32 1.7-66 2.6-101.3 2.6-71.6 0-137.8-3.7-192.3-10z" id="Layer_3"/>
    <path class="st0" d="M215 216.9h1488.1c0 85.9-67.3 121.4-152 126.1-10.9 73.2-65.5 132.1-136.5 149.2-13.7 3.3-27.9 5-42.6 5-50.3 0-95.8-20.5-128.6-53.6-49.3 30.2-107.4 47.6-169.4 47.6-22.6 0-44.6-2.3-65.8-6.7-40.2 58.9-102.3 101.7-174.6 116.8-18.6 3.9-37.9 5.9-57.6 5.9-137.9 0-252.6-99.3-276.4-230.3-28.9 19-63.5 30-100.7 30-101.6 0-183.9-88.4-183.9-190zm581.5 1416.7c-6 0-11.8.8-17.3 2.3.7-5.7 1.1-11.6 1.1-17.5 0-12.9-1.8-25.4-5.2-37.2-15-52.5-60.9-92-116.9-97.4-4.3-.4-8.8-.6-13.2-.6-55.8 0-103.8 33.8-124.4 82.1-12.4-5.1-26-8-40.2-8-49.1 0-90.3 33.7-101.8 79.3-6.8-2.5-14.1-3.9-21.7-3.9-34.4 0-62.4 27.9-62.4 62.4l568.6 5.2c.1-36.9-29.8-66.7-66.6-66.7z" id="Layer_4"/>
    <g id="Layer_2">
        <path class="st1" d="M215 216.9c0 101.5 82.3 190 183.9 190 37.2 0 71.8-11 100.7-30 23.9 131 138.5 230.3 276.4 230.3 96.5 0 181.6-48.6 232.2-122.7 21.3 4.4 43.3 6.7 65.8 6.7 62.1 0 120.1-17.4 169.4-47.6 32.8 33.1 78.3 53.6 128.6 53.6 90.9 0 166.1-66.9 179-154.2 84.7-4.7 152-40.1 152-126.1"/>
        <path class="st1" d="M835 605s65.7 82 84.8 223.5"/>
        <path class="st1" d="M1383.9 832.9C1448.1 631.6 1417 499 1417 499"/>
        <path class="st1" d="M1184.6 1198.9c68.2-87.4 117.5-170.8 153-247.5-60.9 5.7-131 8.9-205.6 8.9-76 0-147.2-3.3-208.9-9.2-5.5 72.2-24.5 153.9-65.6 243.5"/>
        <path class="st1" d="M1555 889.6c0-23.3-67.3-43.9-171.1-56.7-11.9 37.3-27 76.9-46.3 118.5 129.7-12.1 217.4-35.2 217.4-61.8z"/>
        <path class="st1" d="M919.8 828.5c-126 12.2-210.8 35-210.8 61.1 0 26.3 86.3 49.3 214.1 61.4 3.4-44.6 1.6-85.6-3.3-122.5z"/>
        <path class="st1" d="M919.8 828.5c5 36.9 6.8 77.9 3.4 122.5 61.6 5.9 132.9 9.2 208.9 9.2 74.6 0 144.7-3.2 205.6-8.9 19.2-41.6 34.4-81.2 46.3-118.5"/>
        <path class="st1" d="M1334.5 1245.6c0-19.5-59.5-36.7-149.9-46.8-25.7 32.9-54 66.4-85.3 100.3 136.3-7.1 235.2-28.3 235.2-53.5z"/>
        <path class="st1" d="M661.5 1245.6c0 19.1 57.1 36 144.3 46.1 20.2-33.3 37.3-65.7 51.7-97.2-115.6 8.9-196 28.5-196 51.1z"/>
        <path class="st1" d="M857.6 1194.6c-14.4 31.5-31.5 63.9-51.7 97.2 54.5 6.3 120.7 10.1 192.2 10.1 35.3 0 69.3-.9 101.3-2.6 31.3-33.9 59.6-67.4 85.3-100.3"/>
        <path class="st1" d="M779.4 1577.4c30.7-23.3 109.7-81.9 137.4-105.1 69.9-58.5 130.3-116.4 182.6-173.1-32 1.7-66 2.6-101.3 2.6-71.5 0-137.7-3.7-192.2-10.1-34 56.2-90.3 127.6-143.6 188.5"/>
        <path class="st1" d="M863.2 1700.3c0-36.8-29.8-66.7-66.7-66.7-6 0-11.8.8-17.3 2.3.7-5.7 1.1-11.6 1.1-17.5 0-74.7-60.5-135.2-135.2-135.2-55.8 0-103.8 33.8-124.4 82.1-12.4-5.1-26-8-40.2-8-49.1 0-90.3 33.7-101.8 79.3-6.7-2.5-14-3.9-21.7-3.9-34.5 0-62.4 27.9-62.4 62.4"/>
    </g>
</svg>
