<svg xmlns="http://www.w3.org/2000/svg" viewBox="0 0 1920 1920">
    <style>
        .st0{fill:#fff}.st1{fill:none;stroke:#231f20;stroke-width:50;stroke-linecap:round;stroke-linejoin:round;stroke-miterlimit:10}
    </style>
    <path class="st0" d="M1254.2 694.2c-44.4 37.1-91.1 88.5-131.1 156.5-107.1 5.8-221.9 2.4-322.6 11.7C717 720.1 602.7 649.7 539.9 620.5c73.1-5.8 134.3-54.1 158.6-120.3 26.1 11.2 54.9 17.5 85.2 17.5 25.5 0 49.9-4.4 72.5-12.5 8.3 131.7 117.7 235.9 251.5 235.9 54.7 0 105.3-17.4 146.5-46.9zM800.5 862.4c52.5 89.4 92.8 207.1 100.6 360.7 6.7 131.3 13.5 226.8 20 296.3 24.7-3.3 51.7-5.8 78.7-8.7 6.2-68.7 12.8-161.7 19.2-287.6 8-158.4 50.1-280.6 104.2-372.4-107.2 5.7-222 2.4-322.7 11.7zM955.1 1703h9.7s15.9 17.2 34.9-192.3c-27 2.9-54 5.4-78.7 8.7 18.7 200.3 34.1 183.6 34.1 183.6z" id="Layer_5"/>
    <g id="Layer_2">
        <path class="st1" d="M543.7 625.4c102.1 47.5 337.1 199.4 357.4 597.7 25.9 510.2 54 479.9 54 479.9"/>
        <path class="st1" d="M1267.1 683.8c-107.5 84.3-233.6 252.3-248.2 539.3-25.9 510.2-54 479.9-54 479.9"/>
        <path class="st1" d="M216 442.9c0 69.9 56.6 126.5 126.5 126.5 16.3 0 31.9-3.1 46.2-8.7 33.8 37.1 82.5 60.4 136.6 60.4 79.5 0 147.3-50.3 173.3-120.8 26.1 11.2 54.9 17.5 85.2 17.5 25.4 0 49.9-4.4 72.5-12.5C864.6 637 974 741.2 1107.8 741.2c139.2 0 252-112.8 252-252 0-12.3-.9-24.4-2.6-36.3 3.3.2 6.6.3 10 .3 77.8 0 144.2-49.2 169.7-118.1 13.3 4.8 27.6 7.4 42.6 7.4 69.9 0 126.5-56.6 126.5-126.5"/>
        <path class="st1" d="M621.2 270.5c-45.7 45.7-119.8 45.7-165.5 0"/>
        <path class="st1" d="M1339.1 452c-64.6 0-117-52.4-117-117"/>
        <path class="st1" d="M529.2 218.5c-86.6 86.6-226.9 86.6-313.5 0"/>
        <path class="st1" d="M1367 515s191.3 100.9 78 230c-158 180-606 56-818 158-102.2 49.2-132.8 122.5-137.1 186-6.1 89.4 39.6 174.2 116.4 220.3 59.4 35.6 152.1 67.5 292.7 65.7"/>
        <path class="st1" d="M927 1615s-130 16-106-54 314.7-24.6 348-112c32-84-148-74-148-74"/>
    </g>
</svg>
