<svg xmlns="http://www.w3.org/2000/svg" viewBox="0 0 1920 1920">
    <style>
        .st0{fill:#fff}.st1{fill:none;stroke:#231f20;stroke-width:50;stroke-linecap:round;stroke-linejoin:round;stroke-miterlimit:10}
    </style>
    <path class="st0" d="M622.9 1208.5c90.4-85.7 207.7-186.1 297.9-294.8 19.9-24 38.5-48.3 55.2-73 64.8-95.9 101.2-196.8 75.6-298.7-1.6-6.5-3.3-12.8-5.1-19-85.8-299.3-344.9-307-344.9-307l786-2s351 487-304 826c-694.8 359.6-654.4 663-654 666-1.2-1.6-85-119.1-66-255.2 3.4-24.7 10.3-50.1 21.6-75.4 4.7-10.4 10.1-20.9 16.4-31.3 23.5-39.2 67.6-84.8 121.3-135.6z" id="Layer_1"/>
    <g id="Layer_2">
        <path class="st1" d="M1487.5 214s351 487-304 826c-698.2 361.3-654 666-654 666s-134-186-28-362 630-484 550-802-350-326-350-326"/>
        <path class="st1" d="M1007.5 437c-161.8 0-293 19.3-293 43s131.2 43 293 43h349"/>
        <path class="st1" d="M973.5 839.1c-112.1 0-203 17-203 38s90.9 38 203 38h153"/>
        <path class="st1" d="M695.5 1135.1c-112.1 0-203 17-203 38s90.9 38 203 38h47"/>
        <path class="st1" d="M484.5 1375.1c-112.1 0-146 17-146 38s33.9 38 146 38h61"/>
    </g>
</svg>
