<svg xmlns="http://www.w3.org/2000/svg" viewBox="0 0 1920 1920">
    <style>
        .st0{fill:#fff}.st1{fill:none;stroke:#231f20;stroke-width:50;stroke-linecap:round;stroke-linejoin:round;stroke-miterlimit:10}
    </style>
    <path class="st0" d="M1370.1 744v782L1193 1703.1H727L549.9 1526V744h221.3v145.6h68.7V744h240.2v145.6h68.7V744z" id="Layer_2"/>
    <path class="st0" d="M1148.8 285.6v604h-68.7v-604H839.9v604h-68.7v-604l68.7-68.6h240.2z" id="Layer_4"/>
    <g id="STROKES">
        <path class="st1" d="M1370.1 744v782L1193 1703.1H727L549.9 1526V744h221.3v145.6h68.7V744h240.2v145.6h68.7V744z"/>
        <path class="st1" d="M771.2 285.6h68.7v604h-68.7z"/>
        <path class="st1" d="M1080.1 285.6h68.7v604h-68.7z"/>
        <path class="st1" d="M839.9 217v68.6h-68.7z"/>
        <path class="st1" d="M1148.8 285.6h-68.7V217z"/>
        <path class="st1" d="M839.9 216.9h240.2v68.7H839.9z"/>
    </g>
</svg>
