<svg xmlns="http://www.w3.org/2000/svg" viewBox="0 0 1920 1920">
    <style>
        .st0{fill:#fff}.st1{fill:none;stroke:#231f20;stroke-width:50;stroke-linecap:round;stroke-linejoin:round;stroke-miterlimit:10}
    </style>
    <path class="st0" d="M1213.8 367.7V827h-100.3V369.9c0-25.6-20.8-46.4-46.4-46.4H852.9c-25.6 0-46.4 20.8-46.4 46.4V827H706.2V367.7c0-83.3 67.5-150.8 150.8-150.8h206c83.3.1 150.8 67.5 150.8 150.8z" id="Layer_5"/>
    <path class="st0" d="M706.2 881.4c0 13.8 5.6 26.4 14.7 35.5 9.1 9.1 21.6 14.7 35.5 14.7 27.7 0 50.1-22.4 50.1-50.1V827H706.2v54.4z" id="Layer_6"/>
    <path class="st0" d="M1113.5 827v54.5c0 13.8 5.6 26.4 14.7 35.5 9.1 9.1 21.6 14.7 35.4 14.7 27.7 0 50.1-22.4 50.1-50.1V827h-100.2z" id="Layer_11"/>
    <path class="st0" d="M1377.4 744l-90.3 951.5h-665L542.6 744h163.6v137.4c0 13.8 5.6 26.4 14.7 35.5 9.1 9.1 21.6 14.7 35.5 14.7 27.7 0 50.1-22.4 50.1-50.1V744h307v137.4c0 13.8 5.6 26.4 14.7 35.5 9.1 9.1 21.6 14.7 35.4 14.7 27.7 0 50.1-22.4 50.1-50.1V744h163.7z" id="Layer_7"/>
    <g id="STROKES">
        <path class="st1" d="M1377.4 744l-90.3 951.5h-665L542.6 744h163.6v137.4c0 13.8 5.6 26.4 14.7 35.5 9.1 9.1 21.6 14.7 35.5 14.7 27.7 0 50.1-22.4 50.1-50.1V744h307v137.4c0 13.8 5.6 26.4 14.7 35.5 9.1 9.1 21.6 14.7 35.4 14.7 27.7 0 50.1-22.4 50.1-50.1V744h163.7z"/>
        <path class="st1" d="M1213.8 367.7v513.7c0 27.7-22.4 50.1-50.1 50.1-13.8 0-26.4-5.6-35.4-14.7-9.1-9.1-14.7-21.6-14.7-35.5V369.9c0-25.6-20.8-46.4-46.4-46.4H852.9c-25.6 0-46.4 20.8-46.4 46.4v511.6c0 27.7-22.4 50.1-50.1 50.1-13.9 0-26.4-5.6-35.5-14.7-9.1-9.1-14.7-21.6-14.7-35.5V367.7c0-83.3 67.5-150.8 150.8-150.8h206c83.3.1 150.8 67.5 150.8 150.8z"/>
        <path class="st1" d="M706.2 827h100.3"/>
        <path class="st1" d="M1113.5 827h100.3"/>
    </g>
</svg>
