<svg xmlns="http://www.w3.org/2000/svg" viewBox="0 0 1920 1920">
    <style>
        .st0{fill:#fff}.st1{fill:none;stroke:#231f20;stroke-width:50;stroke-linecap:round;stroke-linejoin:round;stroke-miterlimit:10}
    </style>
    <path class="st0" d="M1527.6 1522.8v71.8c0 18.1-4.5 35.2-12.3 50.2-10.9 20.8-28.2 37.6-49.4 47.7-14.1 6.8-30 10.5-46.7 10.5H500.8c-16.7 0-32.5-3.8-46.7-10.5-21.2-10.1-38.6-26.9-49.4-47.7-7.9-15-12.3-32.1-12.3-50.2v-71.8h257.9V744h87.2v778.8h444.9V744h87.2v778.8h258z" id="Layer_8"/>
    <path class="st0" d="M392.4 744h257.9v778.8H392.4z" id="Layer_9"/>
    <path class="st0" d="M737.5 744h444.9v778.8H737.5z" id="Layer_11"/>
    <path class="st0" d="M1269.7 744h257.9v778.8h-257.9z" id="Layer_12"/>
    <path class="st0" d="M1269.7 744h-87.2L972.6 315.7c-5.1-10.5-20.1-10.5-25.2 0L737.5 744h-87.2l236.1-481.4c30-61.1 117.1-61.1 147.1 0L1269.7 744z" id="Layer_10"/>
    <g id="STROKES">
        <path class="st1" d="M1419.2 1703.1H500.8c-59.9 0-108.4-48.5-108.4-108.4v-71.8h1135.2v71.8c0 59.8-48.6 108.4-108.4 108.4z"/>
        <path class="st1" d="M1527.6 744v850.6c0 59.9-48.5 108.4-108.4 108.4H500.8c-59.9 0-108.4-48.5-108.4-108.4V744h1135.2z"/>
        <path class="st1" d="M650.3 744h87.2v778.8h-87.2z"/>
        <path class="st1" d="M1182.5 744h87.2v778.8h-87.2z"/>
        <path class="st1" d="M737.5 744l209.8-428.3c5.1-10.5 20.1-10.5 25.2 0l210 428.3h87.2l-236.1-481.4c-30-61.1-117.2-61.1-147.1 0L650.3 744h87.2z"/>
    </g>
</svg>
