<svg xmlns="http://www.w3.org/2000/svg" viewBox="0 0 1920 1920">
    <style>
        .st0{fill:#fff}.st1{fill:none;stroke:#000;stroke-width:50;stroke-linecap:round;stroke-linejoin:round;stroke-miterlimit:10}
    </style>
    <path class="st0" d="M895.5 1383.3c-19.9-54.2-34.8-109-45.8-163.1-65.7-324.5 10.6-625.7 10.6-625.7H661.7c-10.2 10.4-20.2 68.6-27.6 144-12.7 129.8-17.8 310.7-3.8 386.3 5.1 27.5 10.6 53.5 16.4 77.9 26.9 112.7 61.2 192.7 97.6 249.3 69.7 108.2 147.3 130.9 196.9 132.2 31.4.8 51.6-6.9 51.6-6.9-41-62-72.9-127.5-97.3-194z" id="Layer_7"/>
    <path class="st0" d="M934.4 1220.9c-13.2-241 .1-494.9.1-494.9l-74.1-131.4s-76.3 301.2-10.6 625.7c11 54.2 25.9 109 45.8 163.1 24.4 66.4 56.3 131.9 97.5 194-34.1-78.6-51-215.4-58.7-356.5z" id="Layer_8"/>
    <path class="st0" d="M1104.3 373.8c-27.7-42.8-66.8-72.6-110.2-88.8-82.8-31-181.2-12.8-246.8 58.8-6 6-21.5 23.8-26.6 31-28 39.4-42.7 94.4-50.4 139.4-7.7 45.1-8.5 80.2-8.5 80.2h198.6l74.1 131.4s-13.3 253.9-.1 494.9c174-11 309.5-102.1 309.5-359 0-163.4-54.9-357.3-139.6-487.9zM960 532c-5.6 0-10.9-1.2-15.8-3.2-14.2-6.1-24.2-20.3-24.2-36.7 0-22.1 17.9-40 40-40 10.2 0 19.4 3.8 26.5 10 8.3 7.3 13.5 18 13.5 29.9 0 22.1-17.9 40-40 40z" id="Layer_9"/>
    <path class="st0" d="M986.5 462.1c-7-6.2-16.3-10-26.5-10-22.1 0-40 17.9-40 40 0 16.5 10 30.6 24.2 36.7 4.8 2.1 10.2 3.2 15.8 3.2 22.1 0 40-17.9 40-40 0-11.8-5.2-22.5-13.5-29.9z" id="Layer_10"/>
    <path class="st0" d="M1076.1 236.8c-29.8-12-60.5-18.4-91.9-18.4-21.3 0-42.3 3-62.9 8.6-62.1 17-120.8 58.4-174.1 116.9C812.8 272.2 911.3 254 994 285c43.4 16.3 82.5 46.1 110.2 88.8 84.8 130.5 139.6 324.5 139.6 488 0 257-135.5 348-309.5 359 7.8 141.2 24.6 277.9 58.7 356.5 0 0-20.2 7.7-51.6 6.9-49.7-1.3-127.3-24-196.9-132.2-36.4-56.6-70.7-136.7-97.6-249.3 6.4 242.3 96.9 381.2 231.6 451.8 122.3 64.1 268.7 64.8 391.6 1.9 39.6-20.2 75.4-46.3 106.4-79 80.4-84.6 129.2-213.8 129.2-402.7.1-368.5-185.4-839.7-429.6-937.9z" id="Layer_11"/>
    <g id="STROKES">
        <path class="st1" d="M744.5 1452c47.1-27.2 96.5-50.2 147.6-68.7"/>
        <path class="st1" d="M1505.8 1174.6c0 261.9-93.7 409.1-235.7 481.7-122.9 62.9-269.3 62.2-391.6-1.9-134.8-70.6-225.2-209.5-231.6-451.8 27 112.7 61.2 192.7 97.7 249.3 69.7 108.2 147.3 130.9 196.9 132.2 31.4.8 51.6-6.9 51.6-6.9-34-78.6-50.9-215.4-58.7-356.5 174-11 309.5-102.1 309.5-359 0-163.5-54.8-357.5-139.6-488-27.7-42.8-66.8-72.6-110.3-88.8-82.8-31-181.2-12.8-246.8 58.8C800.6 285.4 859.3 244 921.3 227c20.6-5.7 41.6-8.6 62.9-8.6 31.4 0 62.1 6.4 91.9 18.4 244.2 98.2 429.7 569.4 429.7 937.8z"/>
        <path class="st1" d="M934.4 1220.9c-13.2-241 .1-494.9.1-494.9l-74.1-131.4s-76.3 301.2-10.6 625.7c24.4 120.6 68.4 244.4 143.3 357.2-34.1-78.7-51-215.5-58.7-356.6z"/>
        <path class="st1" d="M993 1577.4s-20.2 7.7-51.6 6.9c-49.7-1.3-127.3-24-196.9-132.2-36.4-56.6-70.7-136.7-97.7-249.3-5.8-24.4-11.3-50.3-16.4-77.9-22.1-119.6 3.5-501.9 31.3-530.3h198.6s-76.3 301.2-10.6 625.7c24.4 120.5 68.5 244.3 143.3 357.1z"/>
        <path class="st1" d="M993 1577.4c-74.8-112.8-118.9-236.6-143.3-357.2-65.7-324.5 10.6-625.7 10.6-625.7l74.1 131.4s-13.3 253.9-.1 494.9c7.8 141.2 24.7 278 58.7 356.6z"/>
        <path class="st1" d="M1000 492.1c0 22.1-17.9 40-40 40-5.6 0-10.9-1.1-15.8-3.2-14.2-6.1-24.2-20.3-24.2-36.7 0-22.1 17.9-40 40-40 10.2 0 19.4 3.8 26.5 10 8.3 7.3 13.5 18 13.5 29.9z"/>
        <path class="st1" d="M737.2 355c-6 6-11.5 12.7-16.6 19.8-55.9 78.9-58.9 219.7-58.9 219.7"/>
        <path class="st1" d="M1168 1252.9s-10.4 324.5 208.6 324.5c0 0 38.8-143.1 0-236.9"/>
    </g>
</svg>
