<svg xmlns="http://www.w3.org/2000/svg" viewBox="0 0 1920 1920">
    <style>
        .st0{fill:#fff}.st1{fill:none;stroke:#000;stroke-width:50;stroke-linecap:round;stroke-linejoin:round;stroke-miterlimit:10}
    </style>
    <path class="st0" d="M1312.5 492.1l107.1-122.4c-78.2-79.1-232.5-152.4-535.9-152.4v345.8s36.1.3 89.7-.4h.5c142.9-1.7 409-9.8 445.7-46.6-30.8-10.3-67.5-18.1-107.1-24z" id="Layer_2"/>
    <path class="st0" d="M1419.6 369.6L1312.5 492c39.6 5.9 76.3 13.8 107.1 24.1 36 12 63.9 27.4 78.8 47 0 0 12.9-100.7-78.8-193.5z" id="Layer_3"/>
    <path class="st0" d="M883.4 217.3h-6.5c-10.4.3-31.7 1.6-57.8 7.4-78 17.3-198.9 74.5-198.9 262.3 0 85.3 69.2 154.5 154.5 154.5 60.2 0 109-48.8 109-109V217.3h-.3zM779.3 397.9c-20.6 0-37.3-16.7-37.3-37.3 0-20.6 16.7-37.3 37.3-37.3 20.6 0 37.3 16.7 37.3 37.3-.1 20.6-16.7 37.3-37.3 37.3z" id="Layer_4"/>
    <path class="st0" d="M779.3 323.3c-20.6 0-37.3 16.7-37.3 37.3 0 20.6 16.7 37.3 37.3 37.3 20.6 0 37.3-16.7 37.3-37.3-.1-20.6-16.7-37.3-37.3-37.3z" id="Layer_5"/>
    <path class="st0" d="M973.4 562.8c-53.5.6-89.7.4-89.7.4v-30.6c0 60.2-48.8 109-109 109-85.3 0-154.5-69.2-154.5-154.5 0-187.8 120.9-245 198.9-262.3 26.1-5.8 47.4-7.1 57.8-7.4-226 2.9-303.7 151.1-328.8 257.8-16.1 68.4-40.8 134.5-74.8 196.1-12.1 21.9-21.3 43.6-28.2 63.8 71.2 508.8 296 504.6 296 504.6s232.1 4.4 299.3-530c-12.2-49.6-32.7-103.6-67-146.9z" id="Layer_6"/>
    <path class="st0" d="M1058.2 840c-.6-21.3-3.6-72.8-17.9-130.4-67.2 534.4-299.3 530-299.3 530s-224.7 4.2-296-504.6c0 0-10.5 77.3-20.6 188.7-22.6 249.8-42.8 671.1 63.1 777 0 0 67.6-30.5 106.3-89.4 75.3 90.8 147.1 89.4 147.1 89.4s75 1.4 152.2-95.6c37.8 63 110.2 95.6 110.2 95.6 119.1-118.9 78.8-635.9 54.9-860.7z" id="Layer_18"/>
    <g id="STROKES">
        <path class="st1" d="M1498.4 563.1c-14.9-19.6-42.8-35-78.8-47-30.8-10.3-67.5-18.1-107.1-24.1-183.6-27.5-428.8-13.9-428.8-13.9V217.3c303.4 0 457.7 73.3 535.9 152.4 91.7 92.7 78.8 193.4 78.8 193.4z"/>
        <path class="st1" d="M1419.6 516.1c-36.8 36.8-302.9 44.9-445.7 46.6-53.8.6-90.2.4-90.2.4v-84.9s245.2-13.6 428.8 13.9c39.6 5.9 76.3 13.7 107.1 24z"/>
        <path class="st1" d="M879.2 217.3c-9.3.1-31.8 1.2-60.1 7.5-78 17.3-198.9 74.5-198.9 262.3 0 85.3 69.2 154.5 154.5 154.5 60.2 0 109-48.8 109-109V217.3h-4.5zm-99.9 180.6c-20.6 0-37.3-16.7-37.3-37.3 0-20.6 16.7-37.3 37.3-37.3 20.6 0 37.3 16.7 37.3 37.3-.1 20.6-16.7 37.3-37.3 37.3z"/>
        <path class="st1" d="M1419.6 369.6l-107.1 122.5"/>
        <path class="st1" d="M593.9 1611.3c-38.7 58.9-106.3 89.4-106.3 89.4-105.9-105.9-85.6-527.2-63.1-777 9 399 91.1 593.1 169.4 687.6z"/>
        <path class="st1" d="M1058.4 850.4c0 439.9-83.7 652.2-165.2 754.7-77.1 97-152.2 95.6-152.2 95.6s-71.8 1.4-147.1-89.4c-78.3-94.4-160.5-288.5-169.4-687.6C434.6 812.3 445.1 735 445.1 735c71.2 508.8 296 504.6 296 504.6s232.1 4.4 299.3-530c14.2 57.6 17.2 109 17.9 130.3.2 6.8.1 10.5.1 10.5z"/>
        <path class="st1" d="M973.2 562.6l.2.2c34.3 43.3 54.8 97.4 67 146.9"/>
        <path class="st1" d="M424.5 923.7c-.5-23.7-.8-48.1-.8-73.3 0 0-.8-50.5 21.4-115.4 6.9-20.2 16.1-41.9 28.2-63.8 34-61.5 58.7-127.7 74.8-196.1 25.2-106.8 102.8-254.9 328.8-257.8 2.3 0 4.5-.1 6.8-.1"/>
        <path class="st1" d="M1003.4 1700.7s-72.4-32.6-110.2-95.6c81.5-102.5 165.2-314.8 165.2-754.7 0 0 0-3.7-.2-10.4 23.9 224.8 64.2 741.8-54.8 860.7z"/>
        <path class="st1" d="M1058.2 840c-6.9-64.6-12.4-105-12.4-105"/>
    </g>
</svg>
