<svg xmlns="http://www.w3.org/2000/svg" viewBox="0 0 1920 1920">
    <style>
        .st0{fill:#fff}.st1{fill:none;stroke:#000;stroke-width:50;stroke-linecap:round;stroke-linejoin:round;stroke-miterlimit:10}
    </style>
    <path class="st0" d="M498.9 219.9c-38.8 4-75.9 12.1-109.5 25.6-33.6 13.5-63.9 32.3-89.1 57.5 1.7.4 97.8 21.3 216.3 54.2 3.5-15.5 5.2-31.4 5-47.3-.5-31.2-8.5-62.2-22.7-90z" id="Layer_12"/>
    <path class="st0" d="M559 217c-20.4 0-40.5.9-60.1 2.9 14.2 27.8 22.2 58.8 22.7 90.1.2 15.9-1.5 31.8-5 47.3-118.5-33-214.6-53.9-216.3-54.2 1.7.7 94.6 36.8 205.3 87h.7s0-.1.1-.2v.2c0 .1 0 .2.1.4 145.6 66 321.7 156.4 361.1 222.5h1.6c16.8-25.9 34.3-45.9 47.5-59.4 13.2-13.5 22.3-20.5 22.3-20.5 47.7-10.6 83.4-50.2 89-98.7l10.3-88.5C985.5 307.1 759.8 217 559 217z" id="Layer_13"/>
    <path class="st0" d="M1060.8 363.1s-8-6.8-22.5-17.3l-10.3 88.5c-5.6 48.5-41.4 88.1-89 98.7 0 0-9 7-22.3 20.5-13.2 13.5-30.7 33.5-47.5 59.4-.4.6-.7 1.1-1.1 1.7-32.6 50.7-62.5 123.5-54.6 214.5 252.1 90.2 366.2-131 366.2-131-.1-244.1-118.9-335-118.9-335zm26.2 198.3c-.3-5.7-4.9-10.2-10.7-10.4 5.7.2 10.4 4.7 10.7 10.4zm0 .6c0 6.1-4.9 11-11 11s-11-4.9-11-11c0 6.1 4.9 11 11 11s11-4.9 11-11z" id="Layer_14"/>
    <path class="st0" d="M1179.6 698.2s-114 221.1-366.2 131c4.4 50.5 20.4 106.6 54.2 167.6 35.2 63.6 82.9 119.3 139.8 164.5 29.8 23.7 68.8 53.2 110.9 80.9 98.1 64.4 212.7 118.5 264.2 64.2 3.4-3.6 6.5-7.7 9.4-12.2s5.4-9.7 7.6-15.3c32.1 24.3 52.4 37.7 52.4 37.7 7-25.7 12.3-50.6 15.9-74.5 58.8-384.1-288.2-543.9-288.2-543.9z" id="Layer_15"/>
    <path class="st0" d="M1566.7 1442.9l-98.9-200.9c-3.7 24-8.9 48.8-15.9 74.5 0 0-20.3-13.4-52.4-37.7-2.2 5.6-4.8 10.7-7.6 15.3s-6 8.7-9.4 12.2l92 347.4s37.1 97.2 115.6 18.7c78.5-78.4-23.4-229.5-23.4-229.5z" id="Layer_16"/>
    <g id="STROKES">
        <path class="st1" d="M1467.8 1242c-3.7 24-8.9 48.8-15.9 74.5 0 0-20.3-13.4-52.4-37.7-4.4 11.2-10.2 20.3-17 27.5-73.7 77.6-276-66.1-375.1-145-56.8-45.3-104.6-101-139.8-164.5C709.7 711.5 939 533.1 939 533.1c47.7-10.6 83.4-50.2 89-98.7l10.3-88.5c14.4 10.6 22.5 17.3 22.5 17.3s118.9 90.9 118.9 335.1c-.1-.1 346.9 159.7 288.1 543.7z"/>
        <path class="st1" d="M1318.4 974.5c72.6 70.3 91.3 250.6 91.3 250.6-1.1 21.7-4.6 39.4-10.3 53.7"/>
        <path class="st1" d="M1368.9 1255.1c-95-75.7-190-128.6-273.3-295.1"/>
        <path class="st1" d="M521.5 309.9c.2 15.9-1.5 31.8-5 47.3-118.5-33-214.6-53.9-216.3-54.2 50.5-50.5 121-75.2 198.6-83.1 14.3 27.8 22.3 58.8 22.7 90z"/>
        <path class="st1" d="M498.9 219.9c213.5-21.7 481.3 83.3 539.4 125.9"/>
        <path class="st1" d="M516.6 357.2C674.7 401.2 872.5 466.5 939 533"/>
        <path class="st1" d="M1590.1 1672.4c-78.5 78.5-115.6-18.7-115.6-18.7l-92-347.4c6.8-7.2 12.5-16.3 17-27.5 32.1 24.3 52.4 37.7 52.4 37.7 7-25.7 12.3-50.6 15.9-74.5l98.9 200.9s101.9 151.1 23.4 229.5z"/>
        <path class="st1" d="M1179.6 698.2s-114 221.1-366.2 131"/>
        <path class="st1" d="M955.3 1387l53.3-74v-150.5"/>
        <path class="st1" d="M1065 1466.9l53.3-74v-202.5"/>
        <path class="st1" d="M868.3 614.2c-38-66.2-215.5-157.4-362.2-224-111-50.4-204.2-86.6-205.9-87.3"/>
        <path class="st1" d="M506.1 390.3c4.4-10.7 7.9-21.8 10.4-33"/>
        <circle class="st1" cx="1076" cy="562" r="11"/>
    </g>
</svg>
