<svg xmlns="http://www.w3.org/2000/svg" viewBox="0 0 1920 1920">
    <style>
        .st0{fill:#fff}.st1{fill:none;stroke:#231f20;stroke-width:50;stroke-linecap:round;stroke-linejoin:round;stroke-miterlimit:10}
    </style>
    <path class="st0" d="M1057 1193h69.8c-47.5 61.5-75.7 138.6-75.7 222.3 0 34.2 4.7 67.2 13.5 98.6H758.5c2.1-7.8-2.5-15.7-10.3-17.8-7.2-1.9-10.8-8-10.8-14 0-6.1 3.6-12.1 10.8-14 6.5-1.7 10.8-7.6 10.8-14 0-1.2-.2-2.5-.5-3.8l-13.6-50.8c-2.1-7.8-10.1-12.4-17.8-10.3-1.4.4-2.7.5-4 .5-12.1 0-19.6-15.4-10.1-24.9 2.8-2.8 4.3-6.6 4.3-10.3 0-3.7-1.4-7.4-4.3-10.3l-37.2-37.2c-5.7-5.7-14.9-5.7-20.6 0-3 3-6.6 4.3-10.1 4.3-8.7 0-16.9-8.1-14.2-18.4.3-1.3.5-2.5.5-3.8 0-6.4-4.3-12.3-10.8-14l-50.8-13.6c-7.8-2.1-15.7 2.5-17.8 10.3-1.9 7.2-8 10.8-14.1 10.8s-12.1-3.6-14-10.8c-1.7-6.5-7.6-10.8-14-10.8-1.2 0-2.5.2-3.8.5l-50.8 13.6c-7.8 2.1-12.4 10.1-10.3 17.8.4 1.4.5 2.7.5 4 0 12.1-15.4 19.6-24.9 10-2.8-2.8-6.6-4.3-10.3-4.3-3.7 0-7.5 1.4-10.3 4.3l-37.2 37.2c-5.7 5.7-5.7 14.9 0 20.6 3 3 4.3 6.6 4.3 10.1 0 8.8-8.1 16.9-18.4 14.2-1.3-.3-2.5-.5-3.8-.5-6.4 0-12.3 4.3-14 10.8l-13.6 50.8c-2.1 7.8 2.5 15.7 10.3 17.8 7.2 1.9 10.8 8 10.8 14 0 6.1-3.6 12.1-10.8 14-6.5 1.7-10.8 7.6-10.8 14.1 0 1.2.2 2.5.5 3.8H216.9V1064c0-71.2 57.8-129 130.8-129h453.1l256.2 258z" id="Layer_12"/>
    <path class="st0" d="M1702.4 1373.8c.4 1.6.7 3.3.7 4.9 0 8.4-5.6 16-14 18.3-18.7 5-18.7 31.6 0 36.6 10.1 2.7 16.1 13.1 13.4 23.2l-17.7 66.2c-2.3 8.5-9.9 14-18.3 14-1.6 0-3.3-.2-4.9-.7-13.3-3.6-23.9 7.1-23.9 18.5 0 4.6 1.7 9.3 5.6 13.2 7.4 7.4 7.4 19.4 0 26.8l-48.4 48.4c-3.7 3.7-8.5 5.5-13.4 5.5-4.8 0-9.7-1.8-13.4-5.5-12.4-12.4-32.4-2.7-32.4 13.1 0 1.7.2 3.4.7 5.2 2.7 10.1-3.3 20.5-13.4 23.2l-66.2 17.7c-1.6.4-3.3.7-4.9.7-8.4 0-16-5.6-18.3-14-2.5-9.3-10.4-14-18.3-14s-15.8 4.7-18.3 14c-2.7 10.1-13.1 16.1-23.2 13.4l-66.1-17.7c-8.5-2.3-14-9.9-14-18.3 0-1.6.2-3.3.7-4.9 3.6-13.3-7.1-23.9-18.5-23.9-4.6 0-9.3 1.7-13.2 5.6-7.4 7.4-19.4 7.4-26.8 0l-48.4-48.4c-3.7-3.7-5.5-8.5-5.5-13.4 0-4.8 1.8-9.7 5.5-13.4 12.4-12.4 2.7-32.4-13.1-32.4-1.7 0-3.4.2-5.2.7-10.1 2.7-20.5-3.3-23.2-13.4l-17.7-66.2c-2.7-10.1 3.3-20.5 13.4-23.2 9.4-2.5 14-10.4 14-18.3s-4.7-15.8-14-18.3c-10.1-2.7-16.1-13.1-13.4-23.2l17.7-66.1c2.3-8.5 9.9-14 18.3-14 1.6 0 3.3.2 4.9.7 13.3 3.6 23.9-7.1 23.9-18.5 0-4.6-1.7-9.3-5.6-13.2-7.4-7.4-7.4-19.4 0-26.8l48.4-48.4c3.7-3.7 8.5-5.5 13.4-5.5 4.8 0 9.7 1.8 13.4 5.5 12.4 12.4 32.4 2.7 32.4-13.1 0-1.7-.2-3.4-.7-5.2-2.7-10.1 3.3-20.5 13.4-23.2l66.1-17.7c1.6-.4 3.3-.6 4.9-.6 8.4 0 16 5.6 18.3 14 2.5 9.4 10.4 14 18.3 14s15.8-4.7 18.3-14c2.7-10.1 13.1-16.1 23.2-13.4l66.2 17.7c10.1 2.7 16.1 13.1 13.4 23.2-3.6 13.3 7.1 23.9 18.5 23.9 4.6 0 9.3-1.7 13.2-5.6 7.4-7.4 19.4-7.4 26.8 0l48.4 48.4c3.7 3.7 5.5 8.5 5.5 13.4 0 4.8-1.8 9.7-5.5 13.4-12.4 12.4-2.7 32.4 13.1 32.4 1.7 0 3.4-.2 5.2-.7 10.1-2.7 20.5 3.3 23.2 13.4l17.5 66zm-175.6 41.5c0-61.6-49.9-111.5-111.5-111.5s-111.5 49.9-111.5 111.5 49.9 111.5 111.5 111.5 111.5-49.9 111.5-111.5zm-768.3 34.9c.3 1.3.5 2.5.5 3.8 0 6.4-4.3 12.3-10.8 14-7.2 1.9-10.8 8-10.8 14 0 6.1 3.6 12.1 10.8 14 7.8 2.1 12.4 10.1 10.3 17.8l-13.6 50.8c-1.7 6.5-7.6 10.8-14 10.8-1.2 0-2.5-.2-3.8-.5-10.3-2.8-18.4 5.5-18.4 14.2 0 3.5 1.3 7.1 4.3 10.1 5.7 5.7 5.7 14.9 0 20.6l-37.2 37.2c-2.8 2.8-6.6 4.3-10.3 4.3-3.7 0-7.5-1.4-10.3-4.3-9.5-9.5-24.9-2.1-24.9 10.1 0 1.3.2 2.6.5 4 2.1 7.8-2.5 15.7-10.3 17.8l-50.8 13.6c-1.3.3-2.5.5-3.8.5-6.4 0-12.3-4.3-14-10.8-1.9-7.2-8-10.8-14.1-10.8s-12.1 3.6-14 10.8c-2.1 7.8-10.1 12.4-17.8 10.3l-50.8-13.6c-6.5-1.7-10.8-7.6-10.8-14 0-1.2.2-2.5.5-3.8 2.8-10.2-5.5-18.4-14.2-18.4-3.5 0-7.1 1.3-10.1 4.3-5.7 5.7-14.9 5.7-20.6 0l-37.2-37.2c-2.8-2.8-4.3-6.6-4.3-10.3 0-3.7 1.4-7.4 4.3-10.3 9.5-9.5 2.1-24.9-10.1-24.9-1.3 0-2.6.2-4 .5-7.8 2.1-15.7-2.5-17.8-10.3l-13.6-50.8c-.3-1.3-.5-2.5-.5-3.8 0-6.4 4.3-12.3 10.8-14.1 7.2-1.9 10.8-8 10.8-14 0-6.1-3.6-12.1-10.8-14-7.8-2.1-12.4-10.1-10.3-17.8l13.6-50.8c1.7-6.5 7.6-10.8 14-10.8 1.2 0 2.5.2 3.8.5 10.2 2.8 18.4-5.4 18.4-14.2 0-3.5-1.3-7.1-4.3-10.1-5.7-5.7-5.7-14.9 0-20.6l37.2-37.2c2.8-2.8 6.6-4.3 10.3-4.3 3.7 0 7.4 1.4 10.3 4.3 9.5 9.5 24.9 2.1 24.9-10 0-1.3-.2-2.6-.5-4-2.1-7.8 2.5-15.7 10.3-17.8l50.8-13.6c1.3-.3 2.5-.5 3.8-.5 6.4 0 12.3 4.3 14 10.8 1.9 7.2 8 10.8 14 10.8s12.1-3.6 14.1-10.8c2.1-7.8 10.1-12.4 17.8-10.3l50.8 13.6c6.5 1.7 10.8 7.6 10.8 14 0 1.2-.2 2.5-.5 3.8-2.8 10.2 5.5 18.4 14.2 18.4 3.5 0 7.1-1.3 10.1-4.3 5.7-5.7 14.9-5.7 20.6 0l37.2 37.2c2.8 2.8 4.3 6.6 4.3 10.3 0 3.7-1.4 7.4-4.3 10.3-9.5 9.5-2.1 24.9 10.1 24.9 1.3 0 2.6-.2 4-.5 7.8-2.1 15.7 2.5 17.8 10.3l13.6 50.8zM623.6 1482c0-47.3-38.4-85.7-85.7-85.7-47.3 0-85.6 38.3-85.6 85.7 0 47.3 38.3 85.6 85.6 85.6 47.4.1 85.7-38.3 85.7-85.6z" id="Layer_13"/>
    <path class="st0" d="M1415.3 1303.8c61.6 0 111.5 49.9 111.5 111.5s-49.9 111.5-111.5 111.5-111.5-49.9-111.5-111.5 49.9-111.5 111.5-111.5zm-963 178.2c0 47.3 38.3 85.6 85.6 85.6s85.7-38.3 85.7-85.6-38.4-85.7-85.7-85.7c-47.2.1-85.6 38.4-85.6 85.7z" id="Layer_14"/>
    <path class="st0" d="M421 689.4h117V935H421z" id="Layer_15"/>
    <path class="st0" d="M1425 1051.1v.1c-3.2-.1-6.4-.1-9.7-.1-64.6 0-125.2 16.8-177.8 46.3H1093v-51.2c0-32.7 26.5-59.2 59.2-59.2h162.4V744.6c0-30.5 24.7-55.2 55.2-55.2 15.2 0 29 6.2 39 16.2s16.2 23.8 16.2 39v306.5z" id="Layer_16"/>
    <g id="STROKES">
        <path class="st1" d="M1702.4 1373.8l-17.7-66.1c-2.7-10.1-13.1-16.1-23.2-13.4-1.8.5-3.5.7-5.2.7-15.8 0-25.5-20-13.1-32.4 3.7-3.7 5.5-8.5 5.5-13.4 0-4.8-1.8-9.7-5.5-13.4l-48.4-48.4c-7.4-7.4-19.4-7.4-26.8 0-3.9 3.9-8.6 5.6-13.2 5.6-11.4 0-22.1-10.6-18.5-23.9 2.7-10.1-3.3-20.5-13.4-23.2l-66.2-17.7c-10.1-2.7-20.5 3.3-23.2 13.4-2.5 9.4-10.4 14-18.3 14s-15.8-4.7-18.3-14c-2.3-8.5-9.9-14-18.3-14-1.6 0-3.3.2-4.9.6l-66.1 17.7c-10.1 2.7-16.1 13.1-13.4 23.2.5 1.8.7 3.5.7 5.2 0 15.8-20 25.5-32.4 13.1-3.7-3.7-8.5-5.5-13.4-5.5-4.8 0-9.7 1.8-13.4 5.5l-48.4 48.4c-7.4 7.4-7.4 19.4 0 26.8 3.9 3.9 5.6 8.6 5.6 13.2 0 11.4-10.6 22.1-23.9 18.5-1.6-.4-3.3-.7-4.9-.7-8.4 0-16 5.6-18.3 14l-17.7 66.1c-2.7 10.1 3.3 20.5 13.4 23.2 9.4 2.5 14 10.4 14 18.3s-4.7 15.8-14 18.3c-10.1 2.7-16.1 13.1-13.4 23.2l17.7 66.2c2.7 10.1 13.1 16.1 23.2 13.4 1.8-.5 3.5-.7 5.2-.7 15.8 0 25.5 20 13.1 32.4-3.7 3.7-5.5 8.5-5.5 13.4 0 4.8 1.8 9.7 5.5 13.4l48.4 48.4c7.4 7.4 19.4 7.4 26.8 0 3.9-3.9 8.6-5.6 13.2-5.6 11.4 0 22.1 10.6 18.5 23.9-.4 1.6-.7 3.3-.7 4.9 0 8.4 5.6 16 14 18.3l66.1 17.7c10.1 2.7 20.5-3.3 23.2-13.4 2.5-9.3 10.4-14 18.3-14s15.8 4.7 18.3 14c2.3 8.5 9.9 14 18.3 14 1.6 0 3.3-.2 4.9-.7l66.2-17.7c10.1-2.7 16.1-13.1 13.4-23.2-.5-1.8-.7-3.5-.7-5.2 0-15.8 20-25.5 32.4-13.1 3.7 3.7 8.5 5.5 13.4 5.5 4.8 0 9.7-1.8 13.4-5.5l48.4-48.4c7.4-7.4 7.4-19.4 0-26.8-3.9-3.9-5.6-8.6-5.6-13.2 0-11.4 10.6-22.1 23.9-18.5 1.6.4 3.3.7 4.9.7 8.4 0 16-5.6 18.3-14l17.7-66.2c2.7-10.1-3.3-20.5-13.4-23.2-18.7-5-18.7-31.6 0-36.6 8.5-2.3 14-9.9 14-18.3.2-1.5-.1-3.1-.5-4.8z"/>
        <path class="st1" d="M1526.8 1415.3c0 61.6-49.9 111.5-111.5 111.5s-111.5-49.9-111.5-111.5 49.9-111.5 111.5-111.5 111.5 49.9 111.5 111.5z"/>
        <path class="st1" d="M1064.6 1513.9c-8.8-31.3-13.5-64.4-13.5-98.6 0-83.7 28.2-160.8 75.7-222.3 30-38.9 67.6-71.5 110.7-95.6 52.6-29.5 113.2-46.3 177.8-46.3 3.2 0 6.5 0 9.7.1 113.1 3 213.3 57.4 278.1 140.8"/>
        <path class="st1" d="M758.5 1513.9c2.1-7.8-2.5-15.7-10.3-17.8-7.2-1.9-10.8-8-10.8-14 0-6.1 3.6-12.1 10.8-14 6.5-1.7 10.8-7.6 10.8-14 0-1.2-.2-2.5-.5-3.8l-13.6-50.8c-2.1-7.8-10.1-12.4-17.8-10.3-1.4.4-2.7.5-4 .5-12.1 0-19.6-15.4-10.1-24.9 2.8-2.8 4.3-6.6 4.3-10.3 0-3.7-1.4-7.4-4.3-10.3l-37.2-37.2c-5.7-5.7-14.9-5.7-20.6 0-3 3-6.6 4.3-10.1 4.3-8.7 0-16.9-8.1-14.2-18.4.3-1.3.5-2.5.5-3.8 0-6.4-4.3-12.3-10.8-14l-50.8-13.6c-7.8-2.1-15.7 2.5-17.8 10.3-1.9 7.2-8 10.8-14.1 10.8s-12.1-3.6-14-10.8c-1.7-6.5-7.6-10.8-14-10.8-1.2 0-2.5.2-3.8.5l-50.8 13.6c-7.8 2.1-12.4 10.1-10.3 17.8.4 1.4.5 2.7.5 4 0 12.1-15.4 19.6-24.9 10-2.8-2.8-6.6-4.3-10.3-4.3-3.7 0-7.5 1.4-10.3 4.3l-37.2 37.2c-5.7 5.7-5.7 14.9 0 20.6 3 3 4.3 6.6 4.3 10.1 0 8.8-8.1 16.9-18.4 14.2-1.3-.3-2.5-.5-3.8-.5-6.4 0-12.3 4.3-14 10.8l-13.6 50.8c-2.1 7.8 2.5 15.7 10.3 17.8 7.2 1.9 10.8 8 10.8 14 0 6.1-3.6 12.1-10.8 14-6.5 1.7-10.8 7.6-10.8 14.1 0 1.2.2 2.5.5 3.8l13.6 50.8c2.1 7.8 10.1 12.4 17.8 10.3 1.4-.4 2.7-.5 4-.5 12.1 0 19.6 15.4 10.1 24.9-2.8 2.8-4.3 6.6-4.3 10.3 0 3.7 1.4 7.4 4.3 10.3l37.2 37.2c5.7 5.7 14.9 5.7 20.6 0 3-3 6.6-4.3 10.1-4.3 8.7 0 16.9 8.1 14.2 18.4-.3 1.3-.5 2.5-.5 3.8 0 6.4 4.3 12.3 10.8 14l50.8 13.6c7.8 2.1 15.7-2.5 17.8-10.3 1.9-7.2 8-10.8 14-10.8s12.1 3.6 14.1 10.8c1.7 6.5 7.6 10.8 14 10.8 1.2 0 2.5-.2 3.8-.5l50.8-13.6c7.8-2.1 12.4-10.1 10.3-17.8-.4-1.4-.5-2.7-.5-4 0-12.1 15.4-19.6 24.9-10.1 2.8 2.8 6.6 4.3 10.3 4.3 3.7 0 7.4-1.4 10.3-4.3l37.2-37.2c5.7-5.7 5.7-14.9 0-20.6-3-3-4.3-6.6-4.3-10.1 0-8.7 8.1-16.9 18.4-14.2 1.3.3 2.5.5 3.8.5 6.4 0 12.3-4.3 14-10.8l13.6-50.8z"/>
        <path class="st1" d="M623.6 1482c0 47.3-38.4 85.6-85.7 85.6-47.3 0-85.6-38.3-85.6-85.6s38.3-85.7 85.6-85.7c47.4.1 85.7 38.4 85.7 85.7z"/>
        <path class="st1" d="M538 935h262.8l256.2 258h70.6"/>
        <path class="st1" d="M317.5 1513.9H216.9V1064c0-71.2 57.8-129 130.8-129H421"/>
        <path class="st1" d="M804 774l78 78 78 78"/>
        <path class="st1" d="M758.5 1513.9h306.1"/>
        <path class="st1" d="M799 935l83-83"/>
        <path class="st1" d="M1237.5 1097.4H1093v-51.2c0-32.7 26.5-59.2 59.2-59.2h162.4V744.6c0-30.5 24.7-55.2 55.2-55.2 15.2 0 29 6.2 39 16.2s16.2 23.8 16.2 39v306.5"/>
        <path class="st1" d="M421 689.4h117V935H421z"/>
        <path class="st1" d="M709.7 216.9c-72.2 0-130.8 58.5-130.8 130.8 0 10.7 1.3 21.2 3.8 31.2-37.3 23-62.1 64.3-62.1 111.3 0 72.2 58.5 130.8 130.8 130.8 46.3 0 86.9-24 110.2-60.3 13.3 4.6 27.6 7.1 42.5 7.1 49.5 0 92.5-27.5 114.7-67.9 23.8 24.6 57.1 39.9 94.1 39.9 45.5 0 85.6-23.3 109-58.6 7.1 1.2 14.3 1.8 21.7 1.8 72.2 0 130.8-58.5 130.8-130.8v-3.4c9.5 2.2 19.4 3.4 29.6 3.4 72.2 0 130.8-58.5 127.2-134.3"/>
    </g>
</svg>
