<svg xmlns="http://www.w3.org/2000/svg" viewBox="0 0 1920 1920">
    <style>
        .st0{fill:#fff}.st1{fill:none;stroke:#231f20;stroke-width:50;stroke-linecap:round;stroke-linejoin:round;stroke-miterlimit:10}
    </style>
    <path class="st0" d="M1703.1 844.6V1367c-27.1-82.4-84.2-151.3-158.3-193.7-50.9-29.1-109.9-45.8-172.7-45.8-171.9 0-314.8 124.5-343.2 288.3-3.4 19.5-5.2 39.6-5.2 60H856.3c-.4-1.2-.5-2.5-.5-3.8 0-7.2 5.6-14.2 14.1-14.2 17.3 0 33-7.1 44.5-18.5 11.4-11.4 18.5-27.1 18.5-44.4v-90.4c0-34.6-28.3-62.9-63-62.9-12.5 0-18.8-15.1-9.9-24 12.2-12.2 18.4-28.4 18.4-44.5s-6.1-32.3-18.4-44.5l-63.9-63.9c-24.5-24.5-64.5-24.5-89 0-2.9 2.9-6.4 4.2-9.8 4.2-7.2 0-14.2-5.6-14.2-14.1 0-17.3-7.1-33-18.5-44.4-11.4-11.4-27.1-18.5-44.5-18.5h-90.4c-34.6 0-62.9 28.3-62.9 62.9 0 8.5-6.9 14.1-14.2 14.1-3.4 0-7-1.3-9.8-4.2-12.2-12.2-28.4-18.4-44.5-18.4-11.7 0-23.5 3.2-33.7 9.7l-.9-1.3V490.2h731.1l144 354.4h464.3zm-635.8-110.4l-50-133.7H474v133.7h593.3z" id="Layer_7"/>
    <path class="st0" d="M1544.6 1328.4c34 39.7 54.5 91.2 54.5 147.6 0 125.4-101.7 227.1-227.1 227.1-125.4 0-227.1-101.7-227.1-227.1 0-20.8 2.8-41 8.1-60.1 26.4-96.2 114.4-166.9 219-166.9 69.1-.1 130.9 30.7 172.6 79.4zM1490 1476c0-65.2-52.8-118-118-118s-118 52.8-118 118 52.8 118 118 118 118-52.8 118-118zm-557.2-171.4v90.4c0 17.3-7.1 33-18.5 44.4-11.4 11.4-27.2 18.5-44.5 18.5-8.5 0-14.1 6.9-14.1 14.2 0 1.3.2 2.5.5 3.8.6 2.2 1.8 4.3 3.6 6.1 24.5 24.5 24.5 64.5 0 89l-63.9 63.9c-12.2 12.2-28.4 18.4-44.5 18.4s-32.3-6.1-44.5-18.4c-2.9-2.9-6.4-4.2-9.8-4.2-7.2 0-14.2 5.6-14.2 14.1 0 34.6-28.3 62.9-62.9 62.9h-90.4c-17.3 0-33-7.1-44.5-18.5s-18.5-27.2-18.5-44.5c0-8.5-6.9-14.1-14.2-14.1-3.4 0-7 1.3-9.8 4.2-24.5 24.5-64.5 24.5-89 0l-63.9-63.9c-12.2-12.2-18.4-28.4-18.4-44.5s6.1-32.3 18.4-44.5c2.9-2.9 4.1-6.4 4.1-9.8 0-7.2-5.6-14.2-14.1-14.2-34.6 0-62.9-28.3-62.9-62.9v-90.4c0-17.3 7.1-33.1 18.5-44.4 11.4-11.4 27.1-18.5 44.5-18.5 8.5 0 14.1-6.9 14.1-14.2 0-3.5-1.3-7-4.1-9.8-24.5-24.5-24.5-64.5 0-89l63.9-63.9c3.3-3.3 7-6.2 10.8-8.6 10.2-6.5 22-9.7 33.7-9.7 16.1 0 32.3 6.1 44.5 18.4 2.9 2.9 6.4 4.2 9.8 4.2 7.2 0 14.2-5.6 14.2-14.1 0-34.6 28.3-62.9 62.9-62.9H620c17.3 0 33 7.1 44.5 18.5 11.4 11.4 18.5 27.1 18.5 44.4 0 8.5 6.9 14.1 14.2 14.1 3.5 0 7-1.3 9.8-4.2 24.5-24.5 64.5-24.5 89 0l63.9 63.9c12.2 12.2 18.4 28.4 18.4 44.5s-6.1 32.3-18.4 44.5c-8.9 8.9-2.6 24 9.9 24 34.7-.1 63 28.2 63 62.8zm-257 45.2c0-55.7-45.2-100.9-100.9-100.9S474 1294.1 474 1349.8s45.2 100.9 100.9 100.9 100.9-45.2 100.9-100.9z" id="Layer_8"/>
    <path class="st0" d="M1372 1358c65.2 0 118 52.8 118 118s-52.8 118-118 118-118-52.8-118-118 52.8-118 118-118zm-898-8.2c0 55.7 45.2 100.9 100.9 100.9s100.9-45.2 100.9-100.9-45.2-100.9-100.9-100.9S474 1294.1 474 1349.8z" id="Layer_9"/>
    <path class="st0" d="M1544.7 1173.3l-.2.3v154.7c-41.6-48.6-103.5-79.4-172.5-79.4-104.6 0-192.7 70.7-219 166.9h-124.2c28.5-163.8 171.3-288.3 343.2-288.3 62.9.1 121.8 16.7 172.7 45.8z" id="Layer_10"/>
    <path class="st0" d="M1703.1 498.4v133.4h-197.6v212.8H1372v-261c0-46.9 38.3-85.2 85.2-85.2h245.9z" id="Layer_11"/>
    <path class="st0" d="M1017.3 600.5l50 133.7H474V600.5z" id="Layer_17"/>
    <g id="STROKES">
        <path class="st1" d="M474 1349.8c0-55.7 45.2-100.9 100.9-100.9s100.9 45.2 100.9 100.9-45.2 100.9-100.9 100.9S474 1405.5 474 1349.8z"/>
        <path class="st1" d="M856.3 1475.9c-.4-1.2-.5-2.5-.5-3.8 0-7.2 5.6-14.2 14.1-14.2 17.3 0 33-7.1 44.5-18.5 11.4-11.4 18.5-27.1 18.5-44.4v-90.4c0-34.6-28.3-62.9-63-62.9-12.5 0-18.8-15.1-9.9-24 12.2-12.2 18.4-28.4 18.4-44.5s-6.1-32.3-18.4-44.5l-63.9-63.9c-24.5-24.5-64.5-24.5-89 0-2.9 2.9-6.4 4.2-9.8 4.2-7.2 0-14.2-5.6-14.2-14.1 0-17.3-7.1-33-18.5-44.4-11.4-11.4-27.1-18.5-44.5-18.5h-90.4c-34.6 0-62.9 28.3-62.9 62.9 0 8.5-6.9 14.1-14.2 14.1-3.4 0-7-1.3-9.8-4.2-12.2-12.2-28.4-18.4-44.5-18.4-11.7 0-23.5 3.2-33.7 9.7-3.8 2.4-7.5 5.3-10.8 8.6l-63.9 63.9c-24.5 24.5-24.5 64.5 0 89 2.9 2.9 4.1 6.4 4.1 9.8 0 7.2-5.6 14.2-14.1 14.2-17.3 0-33.1 7.1-44.5 18.5-11.4 11.4-18.5 27.1-18.5 44.4v90.4c0 34.6 28.3 62.9 62.9 62.9 8.5 0 14.1 6.9 14.1 14.2 0 3.5-1.3 7-4.1 9.8-12.2 12.2-18.4 28.4-18.4 44.5s6.1 32.3 18.4 44.5l63.9 63.9c24.5 24.5 64.5 24.5 89 0 2.9-2.9 6.4-4.2 9.8-4.2 7.2 0 14.2 5.6 14.2 14.1 0 17.3 7.1 33 18.5 44.5s27.1 18.5 44.5 18.5h90.4c34.6 0 62.9-28.3 62.9-62.9 0-8.5 6.9-14.1 14.2-14.1 3.5 0 7 1.3 9.8 4.2 12.2 12.2 28.4 18.4 44.5 18.4s32.3-6.1 44.5-18.4l63.9-63.9c24.5-24.5 24.5-64.5 0-89-1.8-1.8-3-3.9-3.6-6z"/>
        <path class="st1" d="M1023.6 1475.9H856.3"/>
        <path class="st1" d="M363.7 1054.8V490.2h731.1l144 354.4h464.3V1367"/>
        <path class="st1" d="M1505.4 844.6V631.8H1703V498.4h-245.8c-46.9 0-85.2 38.3-85.2 85.2v261"/>
        <path class="st1" d="M1544.6 1328.4c34 39.7 54.5 91.2 54.5 147.6 0 125.4-101.7 227.1-227.1 227.1-125.4 0-227.1-101.7-227.1-227.1 0-20.8 2.8-41 8.1-60.1 26.4-96.2 114.4-166.9 219-166.9 69.1-.1 130.9 30.7 172.6 79.4z"/>
        <path class="st1" d="M1023.6 1476v-.1c0-20.5 1.8-40.5 5.2-60 28.5-163.8 171.3-288.3 343.2-288.3 62.8 0 121.8 16.6 172.7 45.8 74.1 42.4 131.2 111.2 158.3 193.7"/>
        <path class="st1" d="M1490 1476c0 65.2-52.8 118-118 118s-118-52.8-118-118 52.8-118 118-118 118 52.8 118 118z"/>
        <path class="st1" d="M1017.3 600.5H474v133.7h593.3z"/>
        <path class="st1" d="M1028.8 1415.8H1153"/>
        <path class="st1" d="M1544.6 1173.6v154.8"/>
    </g>
</svg>
