<svg xmlns="http://www.w3.org/2000/svg" viewBox="0 0 1920 1920">
    <style>
        .st0{fill:#fff}.st1{fill:none;stroke:#231f20;stroke-width:50;stroke-linecap:round;stroke-linejoin:round;stroke-miterlimit:10}
    </style>
    <path class="st0" d="M1657.9 1227.1c37.8 46.5 60.5 105.8 60.5 170.3 0 149.1-120.8 269.9-269.9 269.9s-269.9-120.9-269.9-269.9c0-64.6 22.7-123.9 60.5-170.3 7-8.5 14.4-16.7 22.4-24.3 6.2-5.9 12.6-11.6 19.3-16.9 5.8-4.6 11.7-8.9 17.8-13 1-.7 2-1.4 3.1-2 2.1-1.3 4.1-2.7 6.2-3.9 1.1-.6 2.1-1.3 3.2-1.9 1.1-.6 2.1-1.2 3.2-1.9 1.1-.6 2.2-1.2 3.2-1.8l3.9-2.1c.8-.4 1.6-.8 2.4-1.3.2-.1.3-.2.4-.2.9-.5 1.7-.9 2.6-1.3 1.3-.7 2.6-1.3 3.9-2 1.1-.5 2.1-1 3.2-1.5 2.2-1 4.5-2.1 6.8-3.1 1-.5 2.1-.9 3.1-1.3.3-.1.7-.3 1-.4.9-.4 1.8-.8 2.7-1.1 1-.4 1.9-.8 2.9-1.2.4-.2.8-.3 1.2-.5.7-.3 1.4-.5 2.1-.8 3.9-1.5 7.9-2.8 11.9-4.1l3-.9c.9-.3 1.7-.5 2.6-.8.8-.2 1.6-.5 2.4-.7 1.6-.4 3.1-.9 4.7-1.3l2.1-.6c.9-.2 1.8-.5 2.7-.7 1-.2 2-.5 3-.7 3.7-.9 7.4-1.7 11.1-2.4 1.1-.2 2.1-.4 3.2-.6.8-.2 1.6-.3 2.4-.4.6-.1 1.1-.2 1.7-.3l1.8-.3 2.1-.3c.4-.1.8-.1 1.1-.2 1.2-.2 2.3-.3 3.5-.5 1.3-.2 2.6-.3 3.8-.5 1.2-.1 2.4-.3 3.6-.4l6.9-.6c.9-.1 1.8-.1 2.8-.2.4 0 .7-.1 1.1-.1.7 0 1.4-.1 2.1-.1.5 0 1.1-.1 1.6-.1.9-.1 1.8-.1 2.7-.1h.2c1.1-.1 2.2-.1 3.2-.1s2.1-.1 3.1-.1h7.9c1.1 0 2.1 0 3.1.1 1.1 0 2.2.1 3.2.1h.2c.9 0 1.8.1 2.7.1.5 0 1.1.1 1.6.1.7 0 1.4.1 2.1.1.4 0 .7 0 1.1.1.9 0 1.8.1 2.8.2l6.9.6c1.2.1 2.4.3 3.6.4 1.3.1 2.6.3 3.8.5 1.2.2 2.3.3 3.5.5.4 0 .8.1 1.1.2l2.1.3 1.8.3c.6.1 1.2.2 1.7.3.8.1 1.6.3 2.4.4 1.1.2 2.1.4 3.2.6 3.7.7 7.5 1.5 11.1 2.4 1 .2 2 .5 3 .7.9.2 1.8.5 2.7.7l2.1.6c1.6.4 3.1.9 4.7 1.3.8.2 1.6.5 2.4.7.9.3 1.8.5 2.6.8l3 .9c4 1.3 8 2.7 11.9 4.1.7.3 1.4.5 2.1.8.4.2.8.3 1.2.5 1 .4 1.9.8 2.9 1.2.9.4 1.8.7 2.7 1.1.3.1.7.3 1 .4 1 .4 2.1.9 3.1 1.3 2.3 1 4.5 2 6.8 3.1 1.1.5 2.1 1 3.2 1.5 1.3.7 2.6 1.3 3.9 2 .9.4 1.8.9 2.6 1.3.2.1.3.2.4.2.8.4 1.6.8 2.4 1.3l3.9 2.1c1.1.6 2.2 1.2 3.2 1.8 1.1.6 2.1 1.2 3.2 1.9 1.1.6 2.1 1.3 3.2 1.9 2.1 1.3 4.2 2.6 6.2 3.9 1 .7 2 1.3 3.1 2 6.1 4.1 12.1 8.4 17.8 13 6.7 5.3 13.2 11 19.3 16.9 8.9 7.7 16.3 15.8 23.3 24.3zm-87.6 170.4c0-67.3-54.5-121.8-121.8-121.8s-121.8 54.5-121.8 121.8 54.5 121.8 121.8 121.8 121.8-54.5 121.8-121.8zm-602-247c12.9 38.9 19.8 80.4 19.8 123.6 0 217.2-176.1 393.3-393.3 393.3-217.2 0-393.3-176.1-393.3-393.3 0-186.3 129.6-342.4 303.6-383 28.8-6.7 58.8-10.3 89.7-10.3 174.1 0 321.7 113.1 373.5 269.7zm-196 123.6c0-98-79.4-177.4-177.4-177.4s-177.4 79.5-177.4 177.4c0 98 79.4 177.4 177.4 177.4s177.4-79.4 177.4-177.4z" id="Layer_1"/>
    <g id="Layer_2">
        <path class="st0" d="M1718.4 875.2v352h-60.5c-7-8.6-14.4-16.7-22.4-24.3-6.2-5.9-12.6-11.6-19.3-16.9-5.8-4.6-11.7-8.9-17.8-13-1-.7-2-1.4-3.1-2-2.1-1.3-4.1-2.7-6.2-3.9-1.1-.7-2.1-1.3-3.2-1.9-1.1-.6-2.1-1.2-3.2-1.9-1.1-.6-2.1-1.2-3.2-1.8l-3.9-2.1c-.8-.4-1.6-.9-2.4-1.3-.2-.1-.3-.2-.4-.2-.9-.5-1.8-.9-2.6-1.3-1.3-.7-2.6-1.3-3.9-2-1.1-.5-2.1-1-3.2-1.5-2.2-1.1-4.5-2.1-6.8-3.1-1-.5-2.1-.9-3.1-1.3-.3-.1-.7-.3-1-.4-.9-.4-1.8-.8-2.7-1.1-1-.4-1.9-.8-2.9-1.2-.4-.2-.8-.3-1.2-.5-.7-.3-1.4-.5-2.1-.8-3.9-1.5-7.9-2.8-11.9-4.1l-3-.9c-.9-.3-1.7-.5-2.6-.8-.8-.2-1.6-.5-2.4-.7-1.6-.4-3.1-.9-4.7-1.3l-2.1-.6c-.9-.2-1.8-.5-2.7-.7-1-.2-2-.5-3-.7-3.7-.9-7.4-1.7-11.1-2.4-1.1-.2-2.1-.4-3.2-.6-.8-.2-1.6-.3-2.4-.4-.6-.1-1.1-.2-1.7-.3l-1.8-.3-2.1-.3c-.4-.1-.8-.1-1.1-.2-1.2-.2-2.3-.3-3.5-.5-1.3-.2-2.5-.3-3.8-.5-1.2-.1-2.4-.3-3.6-.4l-6.9-.6c-.9-.1-1.9-.1-2.8-.2-.4 0-.7-.1-1.1-.1-.7 0-1.4-.1-2.1-.1-.5 0-1.1-.1-1.6-.1-.9-.1-1.8-.1-2.7-.1h-.2c-1.1-.1-2.1-.1-3.2-.1-1 0-2.1-.1-3.1-.1h-7.9c-1 0-2.1 0-3.1.1-1.1 0-2.1.1-3.2.1h-.2c-.9 0-1.8.1-2.7.1-.5 0-1.1.1-1.6.1-.7 0-1.4.1-2.1.1-.4 0-.7 0-1.1.1-.9 0-1.8.1-2.8.2l-6.9.6c-1.2.1-2.4.3-3.6.4-1.3.1-2.6.3-3.8.5-1.2.2-2.3.3-3.5.5-.4 0-.8.1-1.1.2l-2.1.3-1.8.3c-.6.1-1.2.2-1.7.3-.8.1-1.6.3-2.4.4-1.1.2-2.1.4-3.2.6-3.7.7-7.4 1.5-11.1 2.4-1 .2-2 .5-3 .7-.9.2-1.8.5-2.7.7l-2.1.6c-1.6.4-3.1.9-4.7 1.3-.8.2-1.6.5-2.4.7-.9.3-1.8.5-2.6.8l-3 .9c-4 1.3-8 2.7-11.9 4.1-.7.3-1.4.5-2.1.8-.4.2-.8.3-1.2.5-1 .4-1.9.8-2.9 1.2-.9.4-1.8.7-2.7 1.1-.3.1-.7.3-1 .4-1 .4-2.1.9-3.1 1.3-2.3 1-4.5 2-6.8 3.1-1.1.5-2.1 1-3.2 1.5-1.3.7-2.6 1.3-3.9 2-.9.4-1.8.9-2.6 1.3-.2.1-.3.2-.4.2-.8.4-1.6.8-2.4 1.3l-3.9 2.1c-1.1.6-2.1 1.2-3.2 1.8-1.1.6-2.1 1.2-3.2 1.9-1.1.6-2.1 1.2-3.2 1.9-2.1 1.3-4.2 2.6-6.2 3.9-1 .7-2.1 1.3-3.1 2-6.1 4.1-12.1 8.4-17.8 13-6.7 5.3-13.2 11-19.3 16.9-7.9 7.6-15.4 15.7-22.4 24.3h-112.1c-2.3-26.1-6.4-51.7-12.3-76.6-56.7-235.6-268.2-410.7-520.8-410.7h-7.3c-3.9.1-7.7.1-11.6.3-1 0-2 .1-3 .1-23 .9-45.6 3.3-67.8 7-41.6 7-81.6 18.9-119.4 35l-.6-.4 78-383.4h603.4l115.1 408.1h468.2c38 0 68.6 30.7 68.6 68.6zM953.5 565.1c0-20.7-8.4-39.4-21.9-53-13.5-13.6-32.3-21.9-53-21.9H665.9c-41.4 0-74.9 33.5-74.9 74.9 0 41.4 33.5 74.9 74.9 74.9h212.7c41.4 0 74.9-33.5 74.9-74.9z"/>
        <path class="st0" d="M1119.9 305.8v39.5c0 29.3-24 53.2-53.2 53.2H463.2c-29.3 0-53.2-24-53.2-53.2v-39.5c0-29.3 24-53.2 53.2-53.2h603.4c29.3 0 53.3 23.9 53.3 53.2z"/>
    </g>
    <path class="st0" d="M594.8 1096.7c98 0 177.4 79.5 177.4 177.4 0 98-79.4 177.4-177.4 177.4s-177.4-79.4-177.4-177.4 79.4-177.4 177.4-177.4zm731.9 300.8c0 67.3 54.5 121.8 121.8 121.8s121.8-54.5 121.8-121.8-54.5-121.8-121.8-121.8-121.8 54.5-121.8 121.8z" id="Layer_4"/>
    <path class="st0" d="M1114.7 1150.5H968.3c-51.8-156.6-199.4-269.7-373.5-269.7-30.9 0-60.9 3.6-89.7 10.3V747.5c22.2-3.8 44.8-6.2 67.8-7.2 1 0 2-.1 3-.1 3.8-.1 7.7-.2 11.6-.3h7.3c252.6 0 464.1 175.1 519.9 410.6z" id="Layer_5"/>
    <path class="st0" d="M931.6 512.1c13.6 13.5 21.9 32.3 21.9 53 0 41.4-33.5 74.9-74.9 74.9H665.9c-41.4 0-74.9-33.5-74.9-74.9 0-41.4 33.5-74.9 74.9-74.9h212.7c20.7 0 39.5 8.4 53 21.9z" id="Layer_6"/>
    <g id="STROKES">
        <path class="st1" d="M1066.6 398.5H463.2"/>
        <path class="st1" d="M968.3 1150.5c12.9 38.9 19.8 80.4 19.8 123.6 0 217.2-176.1 393.3-393.3 393.3-217.2 0-393.3-176.1-393.3-393.3 0-186.3 129.6-342.4 303.6-383 28.8-6.7 58.8-10.3 89.7-10.3 174.1 0 321.7 113.1 373.5 269.7z"/>
        <path class="st1" d="M587.5 739.9h2.9"/>
        <path class="st1" d="M201.6 916.2c77.6-87 183.7-148.1 303.6-168.7 22.2-3.8 44.8-6.2 67.8-7.2 1 0 2-.1 3-.1"/>
        <path class="st1" d="M772.3 1274.1c0 98-79.4 177.4-177.4 177.4s-177.4-79.4-177.4-177.4 79.4-177.4 177.4-177.4 177.4 79.4 177.4 177.4z"/>
        <path class="st1" d="M1579.5 1161.4c1.1.6 2.2 1.2 3.2 1.8 1.1.6 2.1 1.2 3.2 1.9 1.1.6 2.1 1.2 3.2 1.9 2.1 1.3 4.2 2.6 6.2 3.9 1 .7 2 1.3 3.1 2 6.1 4.1 12.1 8.4 17.8 13 6.7 5.3 13.2 11 19.3 16.9 7.9 7.6 15.4 15.7 22.4 24.3 37.8 46.5 60.5 105.8 60.5 170.3 0 149.1-120.8 269.9-269.9 269.9s-269.9-120.9-269.9-269.9c0-64.6 22.7-123.9 60.5-170.3 7-8.6 14.4-16.7 22.4-24.3 6.2-5.9 12.6-11.6 19.3-16.9 5.8-4.6 11.7-8.9 17.8-13 1-.7 2-1.4 3.1-2 2.1-1.3 4.1-2.7 6.2-3.9 1.1-.7 2.1-1.3 3.2-1.9 1.1-.6 2.1-1.2 3.2-1.9 1.1-.6 2.1-1.2 3.2-1.8"/>
        <path class="st1" d="M1573.2 1158c.8.4 1.6.8 2.4 1.3"/>
        <path class="st1" d="M1570.1 1156.4c.9.4 1.8.9 2.6 1.3"/>
        <path class="st1" d="M1553.1 1148.6c1 .4 2.1.9 3.1 1.3 2.3 1 4.5 2 6.8 3.1 1.1.5 2.1 1 3.2 1.5"/>
        <path class="st1" d="M1546.4 1145.9c1 .4 1.9.8 2.9 1.2.9.4 1.8.7 2.7 1.1"/>
        <path class="st1" d="M1543 1144.6c.7.3 1.4.5 2.1.8"/>
        <path class="st1" d="M1528.2 1139.5l3 .9"/>
        <path class="st1" d="M1523.1 1138c.8.2 1.6.5 2.4.7"/>
        <path class="st1" d="M1516.3 1136.1l2.1.6"/>
        <path class="st1" d="M1510.6 1134.7c1 .2 2 .5 3 .7"/>
        <path class="st1" d="M1488.2 1130.5l2.1.3 1.8.3c.6.1 1.2.2 1.7.3.8.1 1.6.3 2.4.4 1.1.2 2.1.4 3.2.6"/>
        <path class="st1" d="M1476.1 1128.9c1.2.1 2.4.3 3.6.4 1.3.1 2.6.3 3.8.5 1.2.2 2.3.3 3.5.5"/>
        <path class="st1" d="M1466.4 1128.2c.9 0 1.8.1 2.8.2"/>
        <path class="st1" d="M1459 1127.8c.9 0 1.8.1 2.7.1.5 0 1.1.1 1.6.1.7 0 1.4.1 2.1.1"/>
        <path class="st1" d="M1455.6 1127.7c1.1 0 2.2.1 3.2.1"/>
        <path class="st1" d="M1444.6 1127.6h7.9"/>
        <path class="st1" d="M1438.2 1127.8c1.1-.1 2.2-.1 3.2-.1"/>
        <path class="st1" d="M1431.7 1128.1c.7 0 1.4-.1 2.1-.1.5 0 1.1-.1 1.6-.1.9-.1 1.8-.1 2.7-.1"/>
        <path class="st1" d="M1427.9 1128.3c.9-.1 1.8-.1 2.8-.2"/>
        <path class="st1" d="M1410 1130.3c1.2-.2 2.3-.3 3.5-.5 1.3-.2 2.6-.3 3.8-.5 1.2-.1 2.4-.3 3.6-.4"/>
        <path class="st1" d="M1397.6 1132.4c1.1-.2 2.1-.4 3.2-.6.8-.2 1.6-.3 2.4-.4.6-.1 1.1-.2 1.7-.3l1.8-.3 2.1-.3"/>
        <path class="st1" d="M1383.4 1135.5c1-.2 2-.5 3-.7"/>
        <path class="st1" d="M1378.6 1136.7l2.1-.6"/>
        <path class="st1" d="M1371.5 1138.7c.8-.2 1.6-.5 2.4-.7"/>
        <path class="st1" d="M1365.9 1140.4l3-.9"/>
        <path class="st1" d="M1351.9 1145.4c.7-.3 1.4-.5 2.1-.8"/>
        <path class="st1" d="M1345 1148.1c.9-.4 1.8-.8 2.7-1.1 1-.4 1.9-.8 2.9-1.2"/>
        <path class="st1" d="M1330.9 1154.5c1.1-.5 2.1-1 3.2-1.5 2.2-1.1 4.5-2.1 6.8-3.1 1-.5 2.1-.9 3.1-1.3"/>
        <path class="st1" d="M1324.3 1157.8c.9-.5 1.8-.9 2.6-1.3"/>
        <path class="st1" d="M1321.5 1159.3c.8-.4 1.6-.9 2.4-1.3"/>
        <path class="st1" d="M1657.9 1227.1h60.5v-352c0-37.8-30.7-68.5-68.5-68.5h-468.2l-115.1-408.1c29.3 0 53.2-24 53.2-53.2v-39.5c0-29.3-24-53.2-53.2-53.2H463.2c-29.3 0-53.2 24-53.2 53.2v39.5c0 29.3 24 53.2 53.2 53.2l-78 383.4.6.4c37.8-16.1 77.7-27.9 119.4-35 22.2-3.8 44.8-6.1 67.8-7 1 0 2-.1 3-.1 3.8-.1 7.7-.2 11.6-.3h7.3c252.5 0 464.1 175.2 519.9 410.6 5.9 24.9 10.1 50.5 12.3 76.6h112.1c7-8.5 14.4-16.7 22.4-24.3 6.2-5.9 12.6-11.6 19.3-16.9 5.8-4.6 11.7-8.9 17.8-13 1-.7 2-1.4 3.1-2 2.1-1.3 4.1-2.7 6.2-3.9 1.1-.6 2.1-1.3 3.2-1.9 1.1-.6 2.1-1.2 3.2-1.9 1.1-.6 2.2-1.2 3.2-1.8l3.9-2.1c.8-.4 1.6-.8 2.4-1.3.2-.1.3-.2.4-.2.9-.5 1.7-.9 2.6-1.3 1.3-.7 2.6-1.3 3.9-2 1.1-.5 2.1-1 3.2-1.5 2.2-1 4.5-2.1 6.8-3.1 1-.5 2.1-.9 3.1-1.3.3-.1.7-.3 1-.4.9-.4 1.8-.8 2.7-1.1 1-.4 1.9-.8 2.9-1.2.4-.2.8-.3 1.2-.5.7-.3 1.4-.5 2.1-.8 3.9-1.5 7.9-2.8 11.9-4.1l3-.9c.9-.3 1.7-.5 2.6-.8.8-.2 1.6-.5 2.4-.7 1.6-.4 3.1-.9 4.7-1.3l2.1-.6c.9-.2 1.8-.5 2.7-.7 1-.2 2-.5 3-.7 3.7-.9 7.4-1.7 11.1-2.4 1.1-.2 2.1-.4 3.2-.6.8-.2 1.6-.3 2.4-.4.6-.1 1.1-.2 1.7-.3l1.8-.3 2.1-.3c.4-.1.8-.1 1.1-.2 1.2-.2 2.3-.3 3.5-.5 1.3-.2 2.6-.3 3.8-.5 1.2-.1 2.4-.3 3.6-.4l6.9-.6c.9-.1 1.8-.1 2.8-.2.4 0 .7-.1 1.1-.1.7 0 1.4-.1 2.1-.1.5 0 1.1-.1 1.6-.1.9-.1 1.8-.1 2.7-.1h.2c1.1-.1 2.1-.1 3.2-.1 1 0 2.1-.1 3.1-.1h7.9c1.1 0 2.1 0 3.1.1 1.1 0 2.2.1 3.2.1h.2c.9 0 1.8.1 2.7.1.5 0 1.1.1 1.6.1.7 0 1.4.1 2.1.1.4 0 .7 0 1.1.1.9 0 1.8.1 2.8.2l6.9.6c1.2.1 2.4.3 3.6.4 1.3.1 2.6.3 3.8.5 1.2.2 2.3.3 3.5.5.4 0 .8.1 1.1.2l2.1.3 1.8.3c.6.1 1.2.2 1.7.3.8.1 1.6.3 2.4.4 1.1.2 2.1.4 3.2.6 3.7.7 7.5 1.5 11.1 2.4 1 .2 2 .5 3 .7.9.2 1.8.5 2.7.7l2.1.6c1.6.4 3.1.9 4.7 1.3.8.2 1.6.5 2.4.7.9.3 1.8.5 2.6.8l3 .9c4 1.3 8 2.7 11.9 4.1.7.3 1.4.5 2.1.8.4.2.8.3 1.2.5 1 .4 1.9.8 2.9 1.2.9.4 1.8.7 2.7 1.1.3.1.7.3 1 .4 1 .4 2.1.9 3.1 1.3 2.3 1 4.5 2 6.8 3.1 1.1.5 2.1 1 3.2 1.5 1.3.7 2.6 1.3 3.9 2 .9.4 1.8.9 2.6 1.3.2.1.3.2.4.2.8.4 1.6.8 2.4 1.3l3.9 2.1c1.1.6 2.2 1.2 3.2 1.8 1.1.6 2.1 1.2 3.2 1.9 1.1.6 2.1 1.3 3.2 1.9 2.1 1.3 4.2 2.6 6.2 3.9 1 .7 2 1.3 3.1 2 6.1 4.1 12.1 8.4 17.8 13 6.7 5.3 13.2 11 19.3 16.9 8.8 7.7 16.2 15.8 23.2 24.3z"/>
        <circle class="st1" cx="1448.5" cy="1397.5" r="121.8"/>
        <path class="st1" d="M505.2 747.4v143.7"/>
        <path class="st1" d="M1114.7 1150.5H968.3"/>
        <path class="st1" d="M591 565.1c0 41.4 33.5 74.9 74.9 74.9h212.7c41.4 0 74.9-33.5 74.9-74.9 0-20.7-8.4-39.4-21.9-53-13.5-13.6-32.3-21.9-53-21.9H665.9c-41.4 0-74.9 33.5-74.9 74.9z"/>
    </g>
</svg>
