<svg xmlns="http://www.w3.org/2000/svg" viewBox="0 0 1920 1920">
    <style>
        .st0{fill:#fff}.st1{fill:none;stroke:#231f20;stroke-width:50;stroke-linecap:round;stroke-linejoin:round;stroke-miterlimit:10}
    </style>
    <g id="Layer_7">
        <path class="st0" d="M1546.4 1289v84.3l-265.3 214.1V1289z"/>
        <path class="st0" d="M1546.4 810.8v84.3l-265.3 214.1V810.8z"/>
        <path class="st0" d="M1546.4 332.6v84.3L1281.1 631V332.6z"/>
        <path class="st0" d="M1281.1 1587.4v115.7H638.9V216.9h642.2v1370.5zm-180-1105.6c0-77.9-63.2-141.1-141.1-141.1s-141.1 63.2-141.1 141.1c0 77.9 63.2 141.1 141.1 141.1s141.1-63.2 141.1-141.1zm0 478.2c0-77.9-63.2-141.1-141.1-141.1S818.9 882.1 818.9 960s63.2 141.1 141.1 141.1 141.1-63.2 141.1-141.1zm0 478.2c0-77.9-63.2-141.1-141.1-141.1s-141.1 63.2-141.1 141.1c0 77.9 63.2 141.1 141.1 141.1s141.1-63.2 141.1-141.1z"/>
        <path class="st0" d="M638.9 1289v298.4l-265.3-214.1V1289z"/>
        <path class="st0" d="M638.9 810.8v298.4L373.6 895.1v-84.3z"/>
        <path class="st0" d="M638.9 332.6V631L373.6 416.9v-84.3z"/>
    </g>
    <path class="st0" d="M960 340.7c77.9 0 141.1 63.2 141.1 141.1 0 77.9-63.2 141.1-141.1 141.1s-141.1-63.2-141.1-141.1c0-77.9 63.2-141.1 141.1-141.1z" id="Layer_8"/>
    <circle class="st0" cx="960" cy="960" r="141.1" id="Layer_9"/>
    <path class="st0" d="M960 1297.1c77.9 0 141.1 63.2 141.1 141.1 0 77.9-63.2 141.1-141.1 141.1s-141.1-63.2-141.1-141.1c0-77.9 63.2-141.1 141.1-141.1z" id="Layer_10"/>
    <g id="STROKES">
        <g id="XMLID_1_">
            <path class="st1" d="M1281.1 1587.4v115.7H638.9V216.9h642.2V1289z"/>
            <path class="st1" d="M1101.1 481.8c0 77.9-63.2 141.1-141.1 141.1s-141.1-63.2-141.1-141.1c0-77.9 63.2-141.1 141.1-141.1s141.1 63.2 141.1 141.1z"/>
            <circle class="st1" cx="960" cy="960" r="141.1"/>
            <path class="st1" d="M1101.1 1438.2c0 77.9-63.2 141.1-141.1 141.1s-141.1-63.2-141.1-141.1c0-77.9 63.2-141.1 141.1-141.1s141.1 63.2 141.1 141.1z"/>
            <path class="st1" d="M638.9 332.6H373.6v84.3L638.9 631"/>
            <path class="st1" d="M638.9 810.8H373.6v84.3l265.3 214.1"/>
            <path class="st1" d="M638.9 1289H373.6v84.3l265.3 214.1"/>
            <path class="st1" d="M1281.1 332.6h265.3v84.3L1281.1 631"/>
            <path class="st1" d="M1281.1 810.8h265.3v84.3l-265.3 214.1"/>
            <path class="st1" d="M1281.1 1289h265.3v84.3l-265.3 214.1"/>
        </g>
    </g>
</svg>
