<svg xmlns="http://www.w3.org/2000/svg" viewBox="0 0 1920 1920">
    <style>
        .st0{fill:#fff}.st1{fill:none;stroke:#231f20;stroke-width:50;stroke-linecap:round;stroke-linejoin:round;stroke-miterlimit:10}
    </style>
    <path class="st0" d="M644.2 1506.8v196.3H396.5v-196.3c0-46.7 37.9-84.6 84.6-84.6h78.5c46.7-.1 84.6 37.8 84.6 84.6zM555 1233.3c-8.9-8.9-21.1-14.4-34.7-14.4-27.1 0-49 21.9-49 49v154.2h98.1V1268c0-13.6-5.5-25.8-14.4-34.7z" id="Layer_11"/>
    <path class="st0" d="M1174.6 406.2V960H885V406.2h289.6zm-99.1 123.3c0-25.2-20.4-45.7-45.7-45.7-25.2 0-45.7 20.5-45.7 45.7 0 25.2 20.5 45.7 45.7 45.7 25.2 0 45.7-20.5 45.7-45.7zm0 153.6c0-25.2-20.4-45.7-45.7-45.7-25.2 0-45.7 20.4-45.7 45.7 0 25.2 20.5 45.7 45.7 45.7 25.2 0 45.7-20.5 45.7-45.7zm0 153.6c0-25.2-20.4-45.7-45.7-45.7-25.2 0-45.7 20.5-45.7 45.7 0 25.2 20.5 45.7 45.7 45.7 25.2-.1 45.7-20.5 45.7-45.7z" id="Layer_12"/>
    <path class="st0" d="M1029.8 483.8c25.2 0 45.7 20.5 45.7 45.7 0 25.2-20.4 45.7-45.7 45.7-25.2 0-45.7-20.5-45.7-45.7 0-25.3 20.5-45.7 45.7-45.7z" id="Layer_13"/>
    <path class="st0" d="M1029.8 637.4c25.2 0 45.7 20.4 45.7 45.7 0 25.2-20.4 45.7-45.7 45.7-25.2 0-45.7-20.5-45.7-45.7 0-25.3 20.5-45.7 45.7-45.7z" id="Layer_14"/>
    <path class="st0" d="M1029.8 791c25.2 0 45.7 20.5 45.7 45.7 0 25.2-20.4 45.7-45.7 45.7-25.2 0-45.7-20.4-45.7-45.7 0-25.2 20.5-45.7 45.7-45.7z" id="Layer_15"/>
    <g id="STROKES">
        <g id="XMLID_1_">
            <path class="st1" d="M520.3 1218.9V726.4c0-280.2 229.2-509.4 509.4-509.4v180.5"/>
            <path class="st1" d="M1174.6 406.2V960H885V406.2"/>
            <path class="st1" d="M1075.5 529.5c0 25.2-20.4 45.7-45.7 45.7-25.2 0-45.7-20.5-45.7-45.7 0-25.2 20.5-45.7 45.7-45.7 25.2 0 45.7 20.4 45.7 45.7z"/>
            <path class="st1" d="M1075.5 683.1c0 25.2-20.4 45.7-45.7 45.7-25.2 0-45.7-20.5-45.7-45.7 0-25.2 20.5-45.7 45.7-45.7 25.2 0 45.7 20.4 45.7 45.7z"/>
            <path class="st1" d="M1075.5 836.7c0 25.2-20.4 45.7-45.7 45.7-25.2 0-45.7-20.4-45.7-45.7 0-25.2 20.5-45.7 45.7-45.7 25.2 0 45.7 20.5 45.7 45.7z"/>
            <path class="st1" d="M833.8 406.2h391.9"/>
            <path class="st1" d="M1187.4 529.5h51.1"/>
            <path class="st1" d="M821.1 529.5h51.1"/>
            <path class="st1" d="M1187.4 683.1h51.1"/>
            <path class="st1" d="M821.1 683.1h51.1"/>
            <path class="st1" d="M1187.4 836.7h51.1"/>
            <path class="st1" d="M821.1 836.7h51.1"/>
            <path class="st1" d="M1029.8 216.9h144.8"/>
            <path class="st1" d="M481.1 1422.1h-9.8V1268c0-27.1 22-49 49-49 13.5 0 25.8 5.5 34.7 14.4 8.9 8.9 14.4 21.1 14.4 34.7v154.2h-9.8"/>
            <path class="st1" d="M559.6 1422.1c46.7 0 84.6 37.9 84.6 84.6V1703H396.5v-196.3c0-46.7 37.9-84.6 84.6-84.6h78.5z"/>
        </g>
    </g>
</svg>
