<svg xmlns="http://www.w3.org/2000/svg" viewBox="0 0 1920 1920">
    <style>
        .st0{fill:#fff}.st1{fill:none;stroke:#231f20;stroke-width:50;stroke-linecap:round;stroke-linejoin:round;stroke-miterlimit:10}
    </style>
    <path class="st0" d="M590 951.9c16 13.6 36.8 21.7 59.4 21.7 50.9 0 92.1-41.2 92.1-92.1v134h-24L667 1126.2H513.5V951.9H590zm588.2-194c-49.2 67.2-128.7 110.9-218.5 110.9-89.6 0-169-43.6-218.3-110.7v257.4h51.3v-91.2h333.9v91.2h51.8V758.1l-.2-.2zm.3 257.6h23.6l50.5 110.7H1406V951.9h-75.9c-16 13.6-36.8 21.7-59.4 21.7-50.9 0-92.1-41.2-92.1-92.1v134zm93-226.1V645.7h-44l-1.3-.2c-7.3 41.5-24.1 79.8-48 112.4l.3.2v123.4c0-50.9 41.2-92.1 92.1-92.1h.9zM693.4 645.7h-44v143.7c50.9 0 92.1 41.2 92.1 92.1V758.1c-24-32.6-40.8-70.9-48.1-112.4z" id="Layer_1"/>
    <path class="st0" d="M649.4 789.4c50.9 0 92.1 41.2 92.1 92.1s-41.2 92.1-92.1 92.1c-22.6 0-43.4-8.2-59.4-21.7-20-16.9-32.7-42.2-32.7-70.4 0-50.9 41.2-92.1 92.1-92.1zm621.3 0c-50.9 0-92.1 41.2-92.1 92.1s41.2 92.1 92.1 92.1c22.7 0 43.4-8.2 59.4-21.7 20-16.9 32.7-42.2 32.7-70.4 0-50.6-40.8-91.7-91.3-92.1h-.8z" id="Layer_2"/>
    <path class="st0" d="M959.8 457.8c77.6 0 140.5 62.9 140.5 140.5s-62.9 140.5-140.5 140.5-140.5-62.9-140.5-140.5 62.9-140.5 140.5-140.5z" id="Layer_4"/>
    <path class="st0" d="M959.8 738.8c77.6 0 140.5-62.9 140.5-140.5s-62.9-140.5-140.5-140.5-140.5 62.9-140.5 140.5 62.9 140.5 140.5 140.5zm270.5-140.5c0 16.1-1.4 31.9-4.1 47.2-7.3 41.5-24.1 79.8-48 112.4-49.2 67.2-128.7 110.9-218.5 110.9-89.6 0-169-43.6-218.3-110.7-24-32.7-40.8-70.9-48.1-112.4-2.7-15.4-4.1-31.2-4.1-47.4 0-149.4 121.1-270.5 270.5-270.5 149.5 0 270.6 121.1 270.6 270.5zM959.8 216.9c30.6 0 55.4 24.8 55.4 55.4s-24.8 55.4-55.4 55.4c-30.6 0-55.4-24.8-55.4-55.4s24.8-55.4 55.4-55.4z" id="Layer_5"/>
    <path class="st0" d="M1126.7 924.3v91.2H792.9v-91.2z" id="Layer_6"/>
    <path class="st0" d="M871.6 1015.5l-52.3 400.6-88.5-49.7-41.6-23.3 103.6-327.6h78.8zm0 0l-52.3 400.6 140.5 78.8v-479.4h-88.2zm-130.1 0h-24L667 1126.2 592.8 1289l96.5 54.2 103.6-327.6h-51.4zm218.3 0V1495l140.5-78.8-52.3-400.6h-88.2zm88.2 0l52.3 400.6 88.5-49.7 41.6-23.3-103.6-327.6H1048zm154.1 0h-75.4l103.6 327.6 96.5-54.2-74.2-162.8-50.5-110.6z" id="Layer_7"/>
    <g id="STROKES">
        <path class="st1" d="M959.8 327.8c149.4 0 270.5 121.1 270.5 270.5 0 16.1-1.4 31.9-4.1 47.2-7.3 41.5-24.1 79.8-48 112.4-49.2 67.2-128.7 110.9-218.5 110.9-89.6 0-169-43.6-218.3-110.7-24-32.7-40.8-70.9-48.1-112.4-2.7-15.4-4.1-31.2-4.1-47.4.1-149.4 121.2-270.5 270.6-270.5z"/>
        <path class="st1" d="M959.8 457.8c77.6 0 140.5 62.9 140.5 140.5s-62.9 140.5-140.5 140.5-140.5-62.9-140.5-140.5 62.9-140.5 140.5-140.5z"/>
        <path class="st1" d="M590 951.9c-20-16.9-32.7-42.2-32.7-70.4 0-50.9 41.2-92.1 92.1-92.1s92.1 41.2 92.1 92.1-41.2 92.1-92.1 92.1c-22.7.1-43.4-8.1-59.4-21.7"/>
        <path class="st1" d="M1271.5 789.4c50.5.4 91.3 41.5 91.3 92.1 0 28.2-12.7 53.5-32.7 70.4-16 13.6-36.8 21.7-59.4 21.7-50.9 0-92.1-41.2-92.1-92.1s41.2-92.1 92.1-92.1h.8z"/>
        <path class="st1" d="M959.8 216.9c30.6 0 55.4 24.8 55.4 55.4s-24.8 55.4-55.4 55.4c-30.6 0-55.4-24.8-55.4-55.4s24.8-55.4 55.4-55.4z"/>
        <path class="st1" d="M792.9 1015.5v-91.2h333.8v91.2"/>
        <path class="st1" d="M959.8 1495l-140.5-78.8-88.5-49.7-41.5-23.3-96.5-54.2 74.2-162.8 50.5-110.7h242.3"/>
        <path class="st1" d="M792.9 1015.5l-103.6 327.7"/>
        <path class="st1" d="M871.6 1015.5l-52.3 400.7"/>
        <path class="st1" d="M959.8 1495l140.5-78.8 88.5-49.7 41.5-23.3 96.5-54.2-74.2-162.8-50.5-110.7H959.8z"/>
        <path class="st1" d="M1126.7 1015.5l103.6 327.7"/>
        <path class="st1" d="M1048 1015.5l52.3 400.7"/>
        <path class="st1" d="M741.5 758.1v257.4"/>
        <path class="st1" d="M1178.5 758.1v257.4"/>
        <path class="st1" d="M590 951.9h-76.5v174.3H667"/>
        <path class="st1" d="M1329.4 951.9h76.5v174.3h-153.5"/>
        <path class="st1" d="M557.3 1126.2l-141.8 240.3-141.7 240.2-56.9 96.4"/>
        <path class="st1" d="M1703.1 1703.1l-56.8-96.4-141.8-240.2-141.7-240.3"/>
        <path class="st1" d="M415.5 1366.5h315.3"/>
        <path class="st1" d="M273.8 1606.7h1372.5"/>
        <path class="st1" d="M1188.8 1366.5h315.7"/>
        <path class="st1" d="M649.4 789.4V645.7h44"/>
        <path class="st1" d="M1271.5 789.4V645.7h-44"/>
    </g>
</svg>
