<svg xmlns="http://www.w3.org/2000/svg" viewBox="0 0 1920 1920">
    <style>
        .st0{fill:#fff}.st1{fill:none;stroke:#231f20;stroke-width:50;stroke-linecap:round;stroke-linejoin:round;stroke-miterlimit:10}
    </style>
    <path class="st0" d="M1407.4 763.3c32.5 0 63.7 12.8 86.7 35.7l172.5 171.2c23.3 23.1 36.4 54.6 36.4 87.4 0 34-13.8 64.8-36.1 87.1-12.7 12.7-28 22.6-45.2 28.8-13.1 4.7-27.1 7.3-41.8 7.3H604.8V763.3h802.6zm64.7 181.4c11.7 0 17.6-14.1 9.4-22.4l-79.4-67.2c-6.9-5.9-15.8-9.1-24.9-9.1h-215.8v98.8h310.7zm-393.3 0v-98.8H687.4v98.8h391.4zm-861.9 236h313.8V763.3H216.9v82.6h231.2v98.8H216.9v236zm313.8-89.5v89.5h74.1v-89.5h-74.1z" id="Layer_13"/>
    <path class="st0" d="M1402.1 855l79.4 67.2c8.2 8.3 2.3 22.4-9.4 22.4h-310.7v-98.8h215.8c9.2.1 18 3.3 24.9 9.2zm-714.7-9.1v98.8h391.3v-98.8H687.4zm-470.5 0v98.8h231.2v-98.8H216.9z" id="Layer_14"/>
    <g id="Layer_15">
        <path class="st0" d="M1621.8 1180.7c0 51.5-41.7 93.2-93.2 93.2s-93.2-41.7-93.2-93.2H1580c14.7 0 28.8-2.6 41.8-7.3v7.3z"/>
        <path class="st0" d="M1043.9 1180.7h186.4c0 51.5-41.7 93.2-93.2 93.2s-93.2-41.7-93.2-93.2z"/>
        <path class="st0" d="M652.4 1180.7h186.5c0 51.5-41.7 93.2-93.2 93.2s-93.3-41.7-93.3-93.2z"/>
        <path class="st0" d="M261 1180.7h186.5c0 51.5-41.8 93.2-93.2 93.2s-93.3-41.7-93.3-93.2z"/>
    </g>
    <g id="STROKES">
        <path class="st1" d="M604.8 1091.2V763.3h802.6c32.5 0 63.7 12.8 86.7 35.7l172.5 171.2c23.3 23.1 36.4 54.6 36.4 87.4 0 34-13.8 64.8-36.1 87.1-12.7 12.7-28 22.6-45.2 28.8-13.1 4.7-27.1 7.3-41.8 7.3H604.8v-89.6z"/>
        <path class="st1" d="M687.4 845.9h391.3v98.8H687.4z"/>
        <path class="st1" d="M216.9 845.9h231.2v98.8H216.9"/>
        <path class="st1" d="M1481.5 922.3c8.2 8.3 2.3 22.4-9.4 22.4h-310.7v-98.8h215.8c9.1 0 17.9 3.2 24.9 9.1l79.4 67.3z"/>
        <path class="st1" d="M682.6 1027.3H1694"/>
        <path class="st1" d="M838.9 1180.7c0 51.5-41.7 93.2-93.2 93.2s-93.2-41.7-93.2-93.2"/>
        <path class="st1" d="M1230.3 1180.7c0 51.5-41.7 93.2-93.2 93.2s-93.2-41.7-93.2-93.2"/>
        <path class="st1" d="M447.5 1180.7c0 51.5-41.8 93.2-93.2 93.2s-93.2-41.7-93.2-93.2"/>
        <path class="st1" d="M1435.3 1180.7c0 51.5 41.7 93.2 93.2 93.2s93.2-41.7 93.2-93.2v-7.3"/>
        <path class="st1" d="M216.9 1027.3v153.4h313.8V763.3H216.9v181.4z"/>
        <path class="st1" d="M530.7 1091.2h74.1"/>
        <path class="st1" d="M530.7 1180.7h74.1"/>
        <path class="st1" d="M448.1 1027.3H216.9"/>
        <path class="st1" d="M216.9 1273.9h1486.2"/>
    </g>
</svg>
