<svg xmlns="http://www.w3.org/2000/svg" viewBox="0 0 1920 1920">
    <style>
        .st0{fill:#fff}.st1{fill:none;stroke:#231f20;stroke-width:50;stroke-linecap:round;stroke-linejoin:round;stroke-miterlimit:10}
    </style>
    <path class="st0" d="M1497 910.9l206.1 469.4h-339.2V910.9H1497zM741.4 420.8H403L216.9 606.9v62h710.6v-62L741.4 420.8zm622.4 618.7H216.9v340.8c0-63.4 51.4-114.7 114.7-114.7s114.7 51.4 114.7 114.7c0-63.4 51.4-114.7 114.7-114.7s114.7 51.4 114.7 114.7h229.1c0-63.4 51.4-114.7 114.7-114.7s114.7 51.4 114.7 114.7c0-63.4 51.4-114.7 114.7-114.7s114.7 51.4 114.7 114.7v-340.8zm-221.5-128.6H216.9v128.6h1146.9V910.9h-221.5z" id="Layer_8"/>
    <path class="st0" d="M861 668.9v242H319v-242h542zm-70.6 177.3V733.5H383.6v112.7h406.8zM1142.3 685v225.9h221.5V685h-221.5z" id="Layer_9"/>
    <path class="st0" d="M383.6 733.5h406.7v112.7H383.6z" id="Layer_10"/>
    <path class="st0" d="M1381.2 211c69.6 0 126 56.4 126 126 0 66.6-51.7 121.2-117.2 125.7-4.9 39-30.6 71.6-65.7 86.2 0 .9.1 1.8.1 2.6 0 38.2-31 69.2-69.2 69.2s-69.2-31-69.2-69.2c0-13.7 4-26.4 10.8-37.2-13.8-18.1-21.9-40.7-21.9-65.2 0-50.2 34.2-92.4 80.6-104.5-.2-2.5-.2-5.1-.2-7.6-.2-69.6 56.3-126 125.9-126z" id="Layer_11"/>
    <path class="st0" d="M1249.1 1265.5c63.4 0 114.7 51.4 114.7 114.7 0 63.3-51.4 114.7-114.7 114.7s-114.7-51.4-114.7-114.7c0-63.3 51.3-114.7 114.7-114.7zm-802.7 114.8c0 63.3 51.4 114.7 114.7 114.7s114.7-51.4 114.7-114.7c0-63.4-51.4-114.7-114.7-114.7s-114.7 51.3-114.7 114.7zm458.5 0c0 63.3 51.4 114.7 114.7 114.7s114.7-51.4 114.7-114.7c0-63.4-51.4-114.7-114.7-114.7s-114.7 51.3-114.7 114.7zm-688 0c0 63.3 51.4 114.7 114.7 114.7s114.7-51.4 114.7-114.7c0-63.4-51.4-114.7-114.7-114.7s-114.7 51.3-114.7 114.7z" id="Layer_12"/>
    <g id="STROKES">
        <path class="st1" d="M1363.8 910.9H1497l206.1 469.4h-339.3v-340.8z"/>
        <path class="st1" d="M861 668.9h66.5v-62L741.4 420.8H403L216.9 606.9v62H319z"/>
        <path class="st1" d="M319 668.9v242"/>
        <path class="st1" d="M861 668.9v242"/>
        <path class="st1" d="M1142.3 685h221.5v225.9h-221.5z"/>
        <path class="st1" d="M1507.2 335.4c-.9-68.9-57-124.4-126-124.4-69.6 0-126 56.4-126 126 0 2.6.1 5.1.2 7.6-46.4 12.1-80.6 54.3-80.6 104.5 0 24.5 8.2 47.1 21.9 65.2-6.8 10.7-10.8 23.5-10.8 37.2 0 38.2 31 69.2 69.2 69.2s69.2-31 69.2-69.2c0-.9 0-1.8-.1-2.6 35.1-14.6 60.8-47.2 65.7-86.2 65.5-4.5 117.2-59.1 117.2-125.7.1-.5.1-1.1.1-1.6z"/>
        <path class="st1" d="M383.6 733.5h406.7v112.7H383.6z"/>
        <path class="st1" d="M216.9 1039.5h1146.9"/>
        <path class="st1" d="M1142.3 910.9H216.9v469.4"/>
        <path class="st1" d="M1134.4 1380.3c0 63.3-51.4 114.7-114.7 114.7S905 1443.6 905 1380.3c0-63.4 51.4-114.7 114.7-114.7s114.7 51.3 114.7 114.7z"/>
        <path class="st1" d="M1363.8 1380.3c0 63.3-51.4 114.7-114.7 114.7s-114.7-51.4-114.7-114.7c0-63.4 51.4-114.7 114.7-114.7s114.7 51.3 114.7 114.7z"/>
        <path class="st1" d="M446.4 1380.3c0 63.3-51.4 114.7-114.7 114.7S217 1443.6 217 1380.3c0-63.4 51.4-114.7 114.7-114.7s114.7 51.3 114.7 114.7z"/>
        <path class="st1" d="M675.8 1380.3c0 63.3-51.4 114.7-114.7 114.7s-114.7-51.4-114.7-114.7c0-63.4 51.4-114.7 114.7-114.7s114.7 51.3 114.7 114.7z"/>
        <path class="st1" d="M675.8 1380.3h229.1"/>
    </g>
</svg>
