<svg xmlns="http://www.w3.org/2000/svg" viewBox="0 0 1920 1920">
    <style>
        .st0{fill:#fff}.st1{fill:none;stroke:#231f20;stroke-width:50;stroke-linecap:round;stroke-linejoin:round;stroke-miterlimit:10}
    </style>
    <path class="st0" d="M1131.5 801l75 14.6s-74.1 87.2-113.5 283.2c-28.5 141.8-38.9 340.5 10 604.3H873.8c50-269.6 35.8-474.4 3.3-620.5-43.3-194.3-119-284.5-119-284.5l94.4 24.3L928 952.9l17-130.5 76.2 20.1v152.9s86.9-165.6 110.3-194.4z" id="Layer_7"/>
    <path class="st0" d="M1592.4 690.9c65.3 16.9 110.7 54 110.7 97 0 49.5-60 91.1-141.3 103.2-3.9 64.8-57.7 116.2-123.5 116.2-20.5 0-39.9-5-56.9-13.9-23.7 50.3-74.8 85.1-134.1 85.1-37.8 0-72.3-14.2-98.5-37.5-9.2 25.6-31 46.8-55.7 57.7 39.4-196 113.5-283.2 113.5-283.2l-75-14.6c-23.3 28.8-110.2 194.4-110.2 194.4V842.5L945 822.4l-17 130.5-75.5-130.5-94.5-24.3s75.7 90.1 119 284.5c-17.4 15-40.9 24-65.7 24-36.8 0-68.9-20-86.1-49.7-8.3 1.9-16.9 3-25.7 3-41 0-76.9-22.1-96.3-55-5.1.7-10.2 1.1-15.5 1.1-41.1 0-77.1-22.2-96.5-55.3-11.9 5.1-25.1 7.9-38.9 7.9-37.7 0-70.4-21-87.3-51.8-83.4-7.1-148.1-60.1-148.1-124.4 0-53.5 44.8-99.1 107.9-117.1 15.6-31.5 47.3-53.5 84.4-55.2 17.3-29.3 49.1-48.9 85.6-48.9 6.3 0 12.5.6 18.5 1.7v-1.7c0-54.9 44.5-99.3 99.4-99.3h1.4c9.3-62 62.8-109.5 127.3-109.5 32.8 0 62.7 12.3 85.5 32.4 20.4-18.6 46.9-30.9 76.6-33.3 20.4-1.7 40.2 1.5 58 8.6 21.7-18.5 49.8-29.8 80.6-29.8 58.8 0 108 40.9 120.9 95.7 15.2-9.4 33-14.8 52.2-14.8 37.2 0 69.6 20.5 86.7 50.7 52.2 3 93.5 46.2 93.5 99.2v1.7c6-1.1 12.2-1.7 18.5-1.7 36.5 0 68.3 19.6 85.6 48.9 46.4 2.2 84.5 36.3 92.9 80.9z" id="Layer_8"/>
    <g id="STROKES">
        <path class="st1" d="M1093 1098.7c24.7-10.9 46.4-32.1 55.7-57.7 26.2 23.3 60.7 37.5 98.5 37.5 59.3 0 110.4-34.8 134.1-85.1 17 8.8 36.4 13.8 56.9 13.8 65.8 0 119.6-51.4 123.5-116.2 81.3-12.1 141.3-53.7 141.3-103.2 0-43.1-45.4-80.2-110.7-97-8.3-44.6-46.4-78.7-92.9-80.9-17.3-29.3-49.1-48.9-85.6-48.9-6.3 0-12.5.6-18.5 1.7V561c0-52.9-41.4-96.2-93.5-99.2-17-30.3-49.4-50.7-86.7-50.7-19.1 0-37 5.4-52.2 14.8-12.8-54.9-62.1-95.7-120.9-95.7-30.8 0-58.9 11.2-80.6 29.8-17.9-7.1-37.6-10.2-58-8.6-29.7 2.4-56.2 14.7-76.6 33.3-22.7-20.2-52.7-32.4-85.4-32.4-64.6 0-118 47.5-127.3 109.5h-1.4c-54.9 0-99.3 44.5-99.3 99.3v1.7c-6-1.1-12.2-1.7-18.5-1.7-36.4 0-68.3 19.6-85.6 48.9-37 1.7-68.8 23.8-84.3 55.2-63.1 17.9-107.9 63.6-107.9 117.1 0 64.3 64.7 117.2 148.1 124.4 16.8 30.9 49.6 51.9 87.3 51.9 13.8 0 27-2.8 38.9-7.9 19.4 33.1 55.4 55.3 96.5 55.3 5.2 0 10.4-.4 15.5-1.1 19.5 32.9 55.3 55 96.3 55 8.9 0 17.5-1 25.7-3 17.2 29.7 49.3 49.7 86.1 49.7 24.8 0 48.3-9 65.7-24"/>
        <path class="st1" d="M1206.5 815.6s-220 259-103.5 887.5H873.8c116.5-628.5-115.7-904.9-115.7-904.9"/>
        <path class="st1" d="M852.5 822.4L928 952.9l17-130.5"/>
        <path class="st1" d="M1021.2 842.5v152.9s86.9-165.6 110.2-194.4"/>
    </g>
</svg>
