<svg xmlns="http://www.w3.org/2000/svg" viewBox="0 0 1920 1920">
    <style>
        .st0{fill:#fff}.st1{fill:none;stroke:#231f20;stroke-width:50;stroke-linecap:round;stroke-linejoin:round;stroke-miterlimit:10}
    </style>
    <path class="st0" d="M1243 1126.5v172.4h-71.5v-172.4h71.5zm-260.2 0v172.4h71.5v-172.4h-71.5zm-100.9-335c-12.5-1-25.1-1.6-37.7-1.6h-33.8V1055h71.5V791.5zm-313.6-1.6V1055h71.5V789.9h-71.5zm-170.8 0V1055H469V789.9h-71.5zm215.4 506.8l-56-56v185.7l56-56h932.5c43.6 0 83-17.7 111.5-46.2 28.5-28.5 46.2-68 46.2-111.5 0-87.1-70.6-157.7-157.7-157.7H349.5c-72.9 0-132.5-59.6-132.5-132.5 0-36.4 14.9-69.6 38.9-93.6s57.2-38.9 93.6-38.9h494.8c12.6 0 25.2.5 37.7 1.6 116.3 9.6 225 63.5 303.2 151.4 3.1 3.5 7 6.3 11.2 8.2 4.2 1.9 8.8 2.9 13.6 2.9 9.2 0 17.4-3.7 23.4-9.7 6-6 9.7-14.3 9.7-23.4V587.5c0-18.3-14.8-33.1-33.1-33.1-4.7 0-9.3 1-13.6 2.9-4.2 1.9-8 4.7-11.2 8.2-43.3 48.6-95.9 86.9-154.1 113-58.1 26.1-121.7 40-186.8 40H342.1c-112.2 0-204 91.8-204 204 0 56.1 22.9 107.1 59.9 144.1s88 59.9 144.1 59.9h1203.3c47.4 0 86.2 38.8 86.2 86.2 0 23.7-9.7 45.3-25.3 60.9-15.6 15.6-37.2 25.3-60.9 25.3H612.9v-2.2z" id="Layer_4"/>
    <g id="STROKES">
        <g id="XMLID_1_">
            <path class="st1" d="M397.5 789.9V1055"/>
            <path class="st1" d="M469 789.9V1055"/>
            <path class="st1" d="M568.3 789.9V1055"/>
            <path class="st1" d="M639.7 789.9V1055"/>
            <path class="st1" d="M810.5 789.9V1055"/>
            <path class="st1" d="M881.9 791.5V1055"/>
            <path class="st1" d="M982.8 1126.5v172.4"/>
            <path class="st1" d="M1054.2 1126.5v172.4"/>
            <path class="st1" d="M1171.5 1126.5v172.4"/>
            <path class="st1" d="M1243 1126.5v172.4"/>
            <path class="st1" d="M882.1 1055H349.5c-72.9 0-132.5-59.6-132.5-132.5 0-36.4 14.9-69.6 38.9-93.6s57.2-38.9 93.6-38.9h494.8c12.6 0 25.2.5 37.7 1.6 116.3 9.6 225 63.5 303.2 151.4 3.1 3.5 7 6.3 11.2 8.2 4.2 1.9 8.8 2.9 13.6 2.9 9.2 0 17.4-3.7 23.4-9.7 6-6 9.7-14.3 9.7-23.4V587.5c0-18.3-14.8-33.1-33.1-33.1-4.7 0-9.3 1-13.6 2.9-4.2 1.9-8 4.7-11.2 8.2-43.3 48.6-95.9 86.9-154.1 113-58.1 26.1-121.7 40-186.8 40H342.1c-112.2 0-204 91.8-204 204 0 56.1 22.9 107.1 59.9 144.1s88 59.9 144.1 59.9h539.6"/>
            <path class="st1" d="M881.8 1126.5h663.7c47.4 0 86.2 38.8 86.2 86.2 0 23.7-9.7 45.3-25.3 60.9-15.6 15.6-37.2 25.3-60.9 25.3H612.7"/>
            <path class="st1" d="M882.1 1055h663.2c87.1 0 157.7 70.6 157.7 157.7 0 43.5-17.7 83-46.2 111.5-28.5 28.5-67.9 46.2-111.5 46.2H613"/>
            <path class="st1" d="M612.9 1370.4l-56.1 56v-185.8l56.1 56.1"/>
        </g>
    </g>
</svg>
