<svg xmlns="http://www.w3.org/2000/svg" viewBox="0 0 1920 1920">
    <style>
        .st0{fill:#fff}.st1{fill:none;stroke:#231f20;stroke-width:50;stroke-linecap:round;stroke-linejoin:round;stroke-miterlimit:10}
    </style>
    <path class="st0" d="M1373.5 1107.8l-52.7 52.7-127.2-127.2 52.7-52.7 127.2 127.2zm-266.4 12l-52.7 52.7 127.2 127.2 52.7-52.7-127.2-127.2zM733 999.8c-10 8.4-19.6 17.3-29 26.6l-24.9 24.9 195.5 195.5 52.7-52.7L733 999.8zm15.7 373l-195.5-195.5-52.7 52.7L696 1425.5l52.7-52.7zm-321.4-69.6l-52.7 52.7 195.5 195.5 52.7-52.7-195.5-195.5zm479.8 267.6h-82.6l95.7 95.7 41.3 41.3v-82.6l.1-.1 687.6-687.6c32.1-32.1 48.2-74.2 48.2-116.3 0-42.1-16.1-84.2-48.2-116.3-64.2-64.2-168.4-64.2-232.6 0L927.5 1194l-.1.1-52.7 52.7-125.9 125.9-52.7 52.7-73.2 73.2-52.7 52.7-35.4 35.4c-53.8 53.8-141.7 53.8-195.5 0-26.9-26.9-40.3-62.3-40.3-97.8 0-35.4 13.4-70.9 40.3-97.7l35.4-35.4 52.7-52.7 73.2-73.2 52.7-52.7 125.9-125.9 24.9-24.9c9.3-9.3 19-18.2 29-26.6 92.8-78.7 212.8-119.1 335.2-111.9.7 0 1.3.1 2 .1 9.1 0 17.9-3.6 24.4-10.1 6.8-6.8 10.1-15.6 10.1-24.4 0-8.8-3.4-17.7-10.1-24.4l-245.8-246c-13.5-13.5-35.4-13.5-48.9 0-6.5 6.5-10.1 15.3-10.1 24.5 0 .7 0 1.3.1 2 .5 9.3.8 18.5.8 27.7 0 125.8-49.9 247-139.4 336.5l-370.3 370.3c-82.8 82.7-82.8 218.1 0 300.9 41.4 41.4 95.9 62.1 150.4 62.1s109.1-20.7 150.4-62.1l398-398 74.5-74.5 52.7-52.7 86.5-86.5 52.7-52.7 223-223c35-35 92.2-35 127.2 0 17.5 17.5 26.2 40.5 26.2 63.6s-8.8 46.1-26.2 63.6l-223 223-52.7 52.7-86.5 86.5-52.7 52.7-272.8 272.8-1.7-1.7z" id="Layer_5"/>
    <path class="st0" d="M500.5 670c37.2 0 67.3 30.1 67.3 67.3 0 37.2-30.1 67.3-67.3 67.3-37.2 0-67.3-30.1-67.3-67.3.1-37.1 30.2-67.3 67.3-67.3zm792.4-173c0 37.2 30.1 67.3 67.3 67.3 37.2 0 67.3-30.1 67.3-67.3s-30.1-67.3-67.3-67.3c-37.1 0-67.3 30.1-67.3 67.3zm-251.8 0c0 37.2 30.1 67.3 67.3 67.3 37.2 0 67.3-30.1 67.3-67.3s-30.1-67.3-67.3-67.3c-37.2 0-67.3 30.1-67.3 67.3z" id="Layer_6"/>
    <g id="STROKES">
        <g id="XMLID_1_">
            <path class="st1" d="M374.6 1355.9l195.5 195.5"/>
            <path class="st1" d="M427.3 1303.2l195.5 195.5"/>
            <path class="st1" d="M500.5 1230L696 1425.5"/>
            <path class="st1" d="M553.2 1177.3l195.5 195.5"/>
            <path class="st1" d="M679.2 1051.4l195.5 195.5"/>
            <path class="st1" d="M731.9 998.7l1.1 1.1 194.4 194.4"/>
            <path class="st1" d="M1054.4 1172.5l127.2 127.2"/>
            <path class="st1" d="M1107.1 1119.8l127.2 127.2"/>
            <path class="st1" d="M1193.6 1033.3l127.2 127.2"/>
            <path class="st1" d="M1246.3 980.6l127.2 127.2"/>
            <path class="st1" d="M927.5 1194l-.1.1-52.7 52.7-125.9 125.9-52.7 52.7-73.2 73.2-52.7 52.7-35.4 35.4c-53.8 53.8-141.7 53.8-195.5 0-26.9-26.9-40.3-62.3-40.3-97.8 0-35.4 13.4-70.9 40.3-97.7l35.4-35.4 52.7-52.7 73.2-73.2 52.7-52.7 125.9-125.9 24.9-24.9c9.3-9.3 19-18.2 29-26.6 92.8-78.7 212.8-119.1 335.2-111.9.7 0 1.3.1 2 .1 9.1 0 17.9-3.6 24.4-10.1 6.8-6.8 10.1-15.6 10.1-24.4 0-8.8-3.4-17.7-10.1-24.4l-245.8-246c-13.5-13.5-35.4-13.5-48.9 0-6.5 6.5-10.1 15.3-10.1 24.5 0 .7 0 1.3.1 2 .5 9.3.8 18.5.8 27.7 0 125.8-49.9 247-139.4 336.5l-370.3 370.3c-82.8 82.7-82.8 218.1 0 300.9 41.4 41.4 95.9 62.1 150.4 62.1s109.1-20.7 150.4-62.1l398-398"/>
            <path class="st1" d="M979.9 1247l74.5-74.5 52.7-52.7 86.5-86.5 52.7-52.7 223-223c35-35 92.2-35 127.2 0 17.5 17.5 26.2 40.5 26.2 63.6s-8.8 46.1-26.2 63.6l-223 223-52.7 52.7-86.5 86.5-52.7 52.7-272.8 272.8-.1.1"/>
            <path class="st1" d="M927.5 1194l489.2-489.2c64.2-64.2 168.3-64.2 232.6 0 32.1 32.1 48.2 74.2 48.2 116.3 0 42.1-16.1 84.2-48.2 116.3L961.7 1625"/>
            <path class="st1" d="M961.5 1625.2v82.6l-41.3-41.3-95.7-95.7h82.6"/>
            <circle class="st1" cx="1108.4" cy="497" r="67.3"/>
            <circle class="st1" cx="1360.2" cy="497" r="67.3"/>
            <path class="st1" d="M1175.7 497V201.7h251.8V497"/>
            <path class="st1" d="M567.8 737.3c0 37.2-30.1 67.3-67.3 67.3-37.2 0-67.3-30.1-67.3-67.3 0-37.2 30.1-67.3 67.3-67.3 37.2 0 67.3 30.2 67.3 67.3z"/>
            <path class="st1" d="M567.8 737.3V442"/>
        </g>
    </g>
</svg>
