<svg xmlns="http://www.w3.org/2000/svg" viewBox="0 0 1920 1920">
    <style>
        .st0{fill:#fff}.st1{fill:none;stroke:#231f20;stroke-width:50;stroke-linecap:round;stroke-linejoin:round;stroke-miterlimit:10}
    </style>
    <path class="st0" d="M1243.2 891.1V960h-177.8V753.2H1175c37.7 0 68.2 30.5 68.2 68.2v69.7z" id="Layer_7"/>
    <path class="st0" d="M1065.4 960h177.8v249.4h-177.8z" id="Layer_8"/>
    <path class="st0" d="M1643.4 1061.8c35.9 13.3 59.7 47.6 59.7 85.8h-87.6v61.8h87.6v116h-146.8c4-12.9 6.1-26.6 6.1-40.8 0-76.2-61.8-138-138-138-48.4 0-91 25-115.7 62.7h-65.5V821.4c0-37.7-30.5-68.2-68.2-68.2h-109.6v456.2h-77.8V594.9h111.1c258 0 325.6 385.5 325.6 385.5l219.1 81.4z" id="Layer_9"/>
    <path class="st0" d="M1356.8 1284.7c0 37.3 30.2 67.6 67.6 67.6s67.6-30.2 67.6-67.6c0-37.3-30.3-67.6-67.6-67.6s-67.6 30.3-67.6 67.6zm-48.1-75.3c24.6-37.8 67.2-62.7 115.7-62.7 76.2 0 138 61.8 138 138 0 14.2-2.1 27.9-6.1 40.8-17.4 56.3-69.8 97.2-131.9 97.2-69.9 0-127.7-52-136.7-119.5-.8-6.1-1.2-12.2-1.2-18.5-.1-27.8 8.1-53.6 22.2-75.3zm-922.8 75.3c0 37.3 30.3 67.6 67.6 67.6s67.6-30.2 67.6-67.6c0-37.3-30.2-67.6-67.6-67.6s-67.6 30.3-67.6 67.6zm-48.1-75.3c24.6-37.8 67.2-62.7 115.7-62.7 48.4 0 91.1 25 115.7 62.7 14.1 21.6 22.3 47.5 22.3 75.2 0 6.2-.4 12.4-1.2 18.4-9 67.5-66.8 119.6-136.8 119.6-70 0-127.8-52.1-136.8-119.6-.8-6-1.2-12.1-1.2-18.4-.1-27.7 8.1-53.5 22.3-75.2z" id="Layer_10"/>
    <path class="st0" d="M1424.4 1217.1c37.3 0 67.6 30.3 67.6 67.6s-30.3 67.6-67.6 67.6-67.6-30.2-67.6-67.6c0-37.3 30.3-67.6 67.6-67.6zm-1038.5 67.6c0 37.3 30.3 67.6 67.6 67.6s67.6-30.2 67.6-67.6c0-37.3-30.2-67.6-67.6-67.6s-67.6 30.3-67.6 67.6z" id="Layer_11"/>
    <path class="st0" d="M960.5 1303.2v49.1H712.2v-142.9h248.3z" id="Layer_12"/>
    <path class="st0" d="M1287.6 1303.2H960.5v-93.8h348.3c-14.1 21.6-22.3 47.5-22.3 75.2-.1 6.4.3 12.6 1.1 18.6zm-696.2-18.5c0 6.2-.4 12.4-1.2 18.4l1.2.2h120.8v-93.8H569.1c14.1 21.6 22.3 47.4 22.3 75.2zm-374.5-75.3v93.8h98.5l1.2-.2c-.8-6-1.2-12.1-1.2-18.4 0-27.8 8.2-53.6 22.3-75.2H216.9z" id="Layer_13"/>
    <path class="st0" d="M1615.4 1147.6h87.6v61.8h-87.6z" id="Layer_14"/>
    <g id="STROKES">
        <g id="XMLID_2_">
            <path class="st1" d="M569.1 1209.4c14.1 21.6 22.3 47.5 22.3 75.2 0 6.2-.4 12.4-1.2 18.4-9 67.5-66.8 119.6-136.8 119.6-70 0-127.8-52.1-136.8-119.6-.8-6-1.2-12.1-1.2-18.4 0-27.8 8.2-53.6 22.3-75.2 24.6-37.8 67.2-62.7 115.7-62.7s91.1 25 115.7 62.7z"/>
            <circle class="st1" cx="453.4" cy="1284.7" r="67.6"/>
            <path class="st1" d="M1308.7 1209.4c24.6-37.8 67.2-62.7 115.7-62.7 76.2 0 138 61.8 138 138 0 14.2-2.1 27.9-6.1 40.8-17.4 56.3-69.8 97.2-131.9 97.2-69.9 0-127.7-52-136.7-119.5-.8-6.1-1.2-12.2-1.2-18.5-.1-27.8 8.1-53.6 22.2-75.3z"/>
            <circle class="st1" cx="1424.4" cy="1284.7" r="67.6"/>
            <path class="st1" d="M337.8 1209.4H216.9v93.8h98.5"/>
            <path class="st1" d="M712.2 1209.4H569.1"/>
            <path class="st1" d="M591.4 1303.2h120.8"/>
            <path class="st1" d="M960.5 1303.2v49.1H712.2v-142.9h248.3z"/>
            <path class="st1" d="M1556.2 1325.4H1703v-177.8c0-38.3-23.8-72.5-59.7-85.8l-219-81.4s-67.6-385.5-325.6-385.5h-111v614.5"/>
            <path class="st1" d="M1703.1 1147.6h-87.7v61.8h87.7"/>
            <path class="st1" d="M960 1303.2h327.6"/>
            <path class="st1" d="M1065.4 1209.4V753.2H1175c37.7 0 68.2 30.5 68.2 68.2v69.7"/>
            <path class="st1" d="M1065.4 960h177.8v249.4"/>
            <path class="st1" d="M1243.2 960v-68.9"/>
            <path class="st1" d="M1308.7 878v82"/>
            <path class="st1" d="M1308.7 1052.5v156.9H960.5"/>
        </g>
    </g>
</svg>
