<svg xmlns="http://www.w3.org/2000/svg" viewBox="0 0 1920 1920">
    <style>
        .st0{fill:#fff}.st1{fill:none;stroke:#231f20;stroke-width:50;stroke-linecap:round;stroke-linejoin:round;stroke-miterlimit:10}
    </style>
    <path class="st0" d="M1222.9 899.8V1021h-201.2V735h201.2v164.8zM820.5 735v286h201.2V735H820.5zm-201.2 0v286h201.2V735H619.3zm-201.2 0v286h201.2V735H418.1zm-201.2 0v286h201.2V735H216.9z" id="Layer_1"/>
    <path class="st0" d="M1703 1078.7v68h-141.4c0-34.6-28.1-62.7-62.7-62.7s-62.7 28.1-62.7 62.7h-141.4v-68H1703zm-542.8 0v5.2c34.6 0 62.7 28.1 62.7 62.7h71.7v-68h-134.4zm62.7-57.7h-62.7v57.7h134.4V1021h-71.7zm0-121.2V1021h71.7V899.8h-71.7zm-1006 178.9v68h62.6c0-34.6 28.1-62.7 62.7-62.7s62.7 28.1 62.7 62.7h62.7c0-34.6 28.1-62.7 62.7-62.7s62.7 28.1 62.7 62.7h316.1c0-34.6 28.1-62.7 62.7-62.7s62.7 28.1 62.7 62.7h62.7c0-34.6 28.1-62.7 62.7-62.7v-5.2h-943zm804.9-57.7H216.9v57.7h943.3V1021h-138.4z" id="Layer_2"/>
    <path class="st0" d="M1498.8 1084c34.7 0 62.7 28.1 62.7 62.7 0 34.7-28.1 62.7-62.7 62.7s-62.7-28.1-62.7-62.7 28.1-62.7 62.7-62.7zm-401.3 62.7c0 34.7 28.1 62.7 62.7 62.7s62.7-28.1 62.7-62.7-28.1-62.7-62.7-62.7-62.7 28.1-62.7 62.7zm-188.2 0c0 34.7 28.1 62.7 62.7 62.7s62.7-28.1 62.7-62.7-28.1-62.7-62.7-62.7-62.7 28.1-62.7 62.7zm-441.6 0c0 34.7 28.1 62.7 62.7 62.7s62.7-28.1 62.7-62.7-28.1-62.7-62.7-62.7-62.7 28.1-62.7 62.7zm-188.2 0c0 34.7 28.1 62.7 62.7 62.7s62.7-28.1 62.7-62.7-28.1-62.7-62.7-62.7-62.7 28.1-62.7 62.7z" id="Layer_4"/>
    <path class="st0" d="M1703 1021v57.7h-408.4V735.9S1551 714.7 1551 878.5h104.2c26.3 0 47.7 21.3 47.7 47.7v94.8zm-347.4-129.9h132.7s0-90.7-132.7-90.7v90.7z" id="Layer_5"/>
    <path class="st0" d="M1488.3 891.1h-132.7v-90.7c132.7 0 132.7 90.7 132.7 90.7z" id="Layer_6"/>
    <g id="STROKES">
        <g id="XMLID_2_">
            <path class="st1" d="M216.9 735h1006"/>
            <path class="st1" d="M1222.9 1021h-1006"/>
            <path class="st1" d="M405 1146.7c0 34.7-28.1 62.7-62.7 62.7s-62.7-28.1-62.7-62.7 28.1-62.7 62.7-62.7 62.7 28.1 62.7 62.7z"/>
            <path class="st1" d="M593.2 1146.7c0 34.7-28.1 62.7-62.7 62.7s-62.7-28.1-62.7-62.7 28.1-62.7 62.7-62.7 62.7 28.1 62.7 62.7z"/>
            <path class="st1" d="M1034.8 1146.7c0 34.7-28.1 62.7-62.7 62.7-34.7 0-62.7-28.1-62.7-62.7s28.1-62.7 62.7-62.7 62.7 28.1 62.7 62.7z"/>
            <path class="st1" d="M1222.9 1146.7c0 34.7-28.1 62.7-62.7 62.7-34.7 0-62.7-28.1-62.7-62.7s28.1-62.7 62.7-62.7c34.7 0 62.7 28.1 62.7 62.7z"/>
            <path class="st1" d="M1561.6 1146.7c0 34.7-28.1 62.7-62.7 62.7s-62.7-28.1-62.7-62.7 28.1-62.7 62.7-62.7 62.7 28.1 62.7 62.7z"/>
            <path class="st1" d="M1294.6 1021V735.9S1551 714.7 1551 878.5h104.2c26.3 0 47.7 21.3 47.7 47.7v94.9"/>
            <path class="st1" d="M405 1146.7h62.7"/>
            <path class="st1" d="M593.2 1146.7h316.1"/>
            <path class="st1" d="M1160.2 1084v-63"/>
            <path class="st1" d="M1097.5 1146.7h-62.7"/>
            <path class="st1" d="M1222.9 899.8h71.7"/>
            <path class="st1" d="M1222.9 1021h71.7v125.7h141.5"/>
            <path class="st1" d="M1561.6 1146.7H1703V1021"/>
            <path class="st1" d="M418.1 735v286"/>
            <path class="st1" d="M1222.9 735v286"/>
            <path class="st1" d="M820.5 735v286"/>
            <path class="st1" d="M1021.8 735v286"/>
            <path class="st1" d="M619.3 735v286"/>
            <path class="st1" d="M216.9 735v286"/>
            <path class="st1" d="M1294.6 1078.7H1703"/>
            <path class="st1" d="M1355.6 800.4v90.7h132.7s0-90.7-132.7-90.7z"/>
            <path class="st1" d="M216.9 1078.7h1077.7"/>
            <path class="st1" d="M279.5 1146.7h-62.6V1021"/>
            <path class="st1" d="M1294.6 1146.7h-71.7"/>
        </g>
    </g>
</svg>
