<svg xmlns="http://www.w3.org/2000/svg" viewBox="0 0 1920 1920">
    <style>
        .st0{fill:#fff}.st1{fill:none;stroke:#231f20;stroke-width:50;stroke-linecap:round;stroke-linejoin:round;stroke-miterlimit:10}
    </style>
    <path class="st0" d="M1148.8 960.5v223.2h-63.3V960.5h63.3zm-477.9-63.4h-94.4c-48.1 0-91.8 19.7-123.5 51.4-3.8 3.8-7.4 7.8-10.9 11.9-25.2 30.3-40.5 69.3-40.5 111.6 0 96.2 78.7 174.9 174.9 174.9h666.7c48.1 0 91.8-19.7 123.5-51.4 31.7-31.7 51.4-75.4 51.4-123.5 0-42.1-15.1-80.9-40.1-111.2-32.1-38.9-80.7-63.8-134.8-63.8H670.9zm-206 175c0-30.7 12.5-58.6 32.8-78.8 20.2-20.2 48.1-32.8 78.8-32.8h666.7c61.4 0 111.6 50.2 111.6 111.6 0 30.7-12.6 58.6-32.8 78.8-20.2 20.2-48.1 32.8-78.8 32.8H576.5c-61.4-.1-111.6-50.3-111.6-111.6zM1378 960.9h111.7v2.8s155.4 58.6 155.4 216.6h58V680.5h-58c0 158.1-155.4 216.6-155.4 216.6h-246.5c54.1 0 102.7 24.9 134.8 63.8zm-324.9-255.3V769h128.1v-63.3h-128.1zm32.4 63.4v128.1h63.3V769h-63.3zm-239.7-63.4V769h128.1v-63.3H845.8zm32.4 254.9v223.2h63.3V960.5h-63.3zm0-191.5v128.1h63.3V769h-63.3zm-239.7-63.4V769h128.1v-63.3H638.5zm32.4 254.9v223.2h63.3V960.5h-63.3zm0-191.5v128.1h63.3V769h-63.3zm-454 59.3v189.4l68.8-57.2H442c3.5-4.2 7.1-8.1 10.9-11.9 31.7-31.7 75.4-51.4 123.5-51.4H285.8l-68.9-68.9z" id="Layer_5"/>
    <g id="STROKES">
        <path class="st1" d="M670.9 897.1h572.3c54.1 0 102.7 24.9 134.8 63.8 25 30.3 40.1 69 40.1 111.2 0 48.1-19.7 91.8-51.4 123.5-31.7 31.7-75.4 51.4-123.5 51.4H576.5c-96.2 0-174.9-78.7-174.9-174.9 0-42.3 15.2-81.3 40.5-111.6 3.5-4.2 7.1-8.1 10.9-11.9 31.7-31.7 75.4-51.4 123.5-51.4"/>
        <path class="st1" d="M941.5 960.5h144"/>
        <path class="st1" d="M734.2 960.5h144"/>
        <path class="st1" d="M670.9 1183.6h-94.4c-61.4 0-111.6-50.2-111.6-111.6 0-30.7 12.5-58.6 32.8-78.8 20.2-20.2 48.1-32.8 78.8-32.8h94.4"/>
        <path class="st1" d="M878.2 1183.6h-144"/>
        <path class="st1" d="M1085.5 1183.6h-144"/>
        <path class="st1" d="M1148.8 960.5h94.4c61.4 0 111.6 50.2 111.6 111.6 0 30.7-12.6 58.6-32.8 78.8-20.2 20.2-48.1 32.8-78.8 32.8h-94.4"/>
        <path class="st1" d="M670.9 960.5h63.3v223.2h-63.3z"/>
        <path class="st1" d="M878.2 960.5h63.3v223.2h-63.3z"/>
        <path class="st1" d="M1085.5 960.5h63.3v223.2h-63.3z"/>
        <path class="st1" d="M670.9 769v128.1h63.3V769"/>
        <path class="st1" d="M734.2 769h32.4v-63.4H638.5V769h32.4z"/>
        <path class="st1" d="M941.5 769h32.4v-63.4H845.8V769h32.4"/>
        <path class="st1" d="M1148.8 769h32.4v-63.4h-128.1V769h32.4"/>
        <path class="st1" d="M878.2 769h63.3v128.1h-63.3z"/>
        <path class="st1" d="M1085.5 769h63.3v128.1h-63.3z"/>
        <path class="st1" d="M1489.7 963.7s155.4 58.6 155.4 216.6h58V680.5h-58c0 158.1-155.4 216.6-155.4 216.6h-246.5"/>
        <path class="st1" d="M1378 960.9h111.7"/>
        <path class="st1" d="M670.9 897.1H285.8l-68.9-68.8v189.4l68.9-57.2h156.3"/>
    </g>
</svg>
