<svg xmlns="http://www.w3.org/2000/svg" viewBox="0 0 1920 1920">
    <style>
        .st0{fill:#fff}.st1{fill:none;stroke:#231f20;stroke-width:50;stroke-linecap:round;stroke-linejoin:round;stroke-miterlimit:10}
    </style>
    <path class="st0" d="M1285.4 693.1v533.8c0-205.5-344.5-266.9-344.5-266.9s344.5-61.4 344.5-266.9z" id="Layer_3"/>
    <path class="st0" d="M1645.4 1327c-6.6 25.4-32.5 40.6-57.9 33.9-25.4-6.6-40.6-32.5-34-57.9 6.6-25.4 32.5-40.6 57.9-33.9 23.8 6.2 38.7 29.5 34.9 53.3-.1 1.6-.5 3.1-.9 4.6zm-278.3-72.5c-6.6 25.4 8.6 51.3 34 57.9 25.4 6.6 51.3-8.6 57.9-34 6.6-25.4-8.6-51.3-34-57.9-25.4-6.6-51.3 8.6-57.9 34zM1517 708.9c-24.8 12.4-34.8 42.5-22.4 67.2s42.5 34.8 67.3 22.4 34.8-42.5 22.4-67.2c-12.5-24.8-42.6-34.8-67.3-22.4z" id="Layer_4"/>
    <g id="STROKES">
        <path class="st1" d="M216.9 914.4v91.2"/>
        <path class="st1" d="M940.8 960s344.5 61.4 344.5 266.9V693.1c.1 205.5-344.5 266.9-344.5 266.9z"/>
        <path class="st1" d="M940.8 960h-89.2"/>
        <path class="st1" d="M435.8 960H216.9"/>
        <path class="st1" d="M851.6 960c73.4 0 133.5 60 133.5 133.4 0 36.7-15 70.1-39.2 94.2-24.2 24.2-57.5 39.2-94.2 39.2H435.8c-73.4 0-133.5-60.1-133.5-133.4 0-36.7 15-70.1 39.2-94.2S399 960 435.7 960h415.9z"/>
        <path class="st1" d="M643.7 960v266.9"/>
        <path class="st1" d="M504.5 960v266.9"/>
        <path class="st1" d="M782.9 960v266.9"/>
        <path class="st1" d="M643.7 960v-93"/>
        <path class="st1" d="M504.5 960V823.4"/>
        <path class="st1" d="M782.9 960V823.4"/>
        <path class="st1" d="M469.9 823.4h69.3"/>
        <path class="st1" d="M609.1 867h69.3"/>
        <path class="st1" d="M748.3 823.4h69.3"/>
        <path class="st1" d="M1584.2 731.2c12.4 24.8 2.4 54.9-22.4 67.2s-54.9 2.4-67.3-22.4-2.4-54.9 22.4-67.2c24.8-12.3 54.9-2.3 67.3 22.4z"/>
        <path class="st1" d="M1584.2 731.2L1507.5 578l40.9-20.5"/>
        <path class="st1" d="M1458.9 1278.4c-6.6 25.4-32.5 40.6-57.9 34-25.4-6.6-40.6-32.5-34-57.9 6.6-25.4 32.5-40.6 57.9-33.9 25.4 6.5 40.6 32.4 34 57.8z"/>
        <path class="st1" d="M1645.4 1327c-6.6 25.4-32.5 40.6-57.9 33.9-25.4-6.6-40.6-32.5-34-57.9 6.6-25.4 32.5-40.6 57.9-33.9 23.8 6.2 38.7 29.5 34.9 53.3-.1 1.6-.5 3.1-.9 4.6z"/>
        <path class="st1" d="M1458.9 1278.4l58.1-222.8 186.3 48.6-56.9 218.2-1.2 4.6"/>
    </g>
</svg>
