<svg xmlns="http://www.w3.org/2000/svg" viewBox="0 0 1920 1920">
    <style>
        .st0{fill:#fff}.st1{fill:none;stroke:#231f20;stroke-width:50;stroke-linecap:round;stroke-linejoin:round;stroke-miterlimit:10}
    </style>
    <path class="st0" d="M1135.5 986.3c30 49.5 37.1 58.8 37.1 58.8S960 1103.8 960 1138.8c0-35-212.6-93.7-212.6-93.7s7.1-9.3 37.1-58.8c2.7-4.5 5-9.2 6.7-14.1 18.1-49.1-6.7-114.9-6.7-114.9s-132-274.5 22.5-261C958.6 609.5 960 848 960 857c0-9.1 1.4-247.5 153-260.7 154.5-13.5 22.5 261 22.5 261s-24.8 65.7-6.7 114.9c1.7 4.9 4 9.6 6.7 14.1z" id="Layer_8"/>
    <path class="st0" d="M1703 1222c0 182.8-460.5 293.6-743 293.6S217 1404.8 217 1222c0-159.2 456.5-233.4 574.3-249.8-1.8 4.9-4 9.6-6.7 14.1-30 49.5-37.1 58.8-37.1 58.8s212.6 58.7 212.6 93.7c0-35 212.6-93.7 212.6-93.7s-7.1-9.3-37.1-58.8c-2.7-4.5-5-9.2-6.7-14.1 117.7 16.4 574.1 90.6 574.1 249.8z" id="Layer_9"/>
    <g id="STROKES">
        <path class="st1" d="M1146 451.6l-13.1 144.7"/>
        <path class="st1" d="M1135.5 986.3c30 49.5 37.1 58.8 37.1 58.8S960 1103.8 960 1138.8c0-35.1-212.6-93.7-212.6-93.7s7.1-9.3 37.1-58.8c2.7-4.5 5-9.2 6.7-14.1 18.1-49.1-6.7-114.9-6.7-114.9s-132-274.5 22.5-261C958.6 609.5 960 848 960 857c0-9.1 1.4-247.5 153-260.7 154.5-13.5 22.5 261 22.5 261s-24.8 65.7-6.7 114.9c1.7 4.9 4 9.6 6.7 14.1z"/>
        <path class="st1" d="M960 1138.8v376.8c-282.6 0-743-110.8-743-293.6 0-159.2 456.5-233.4 574.3-249.8-1.8 4.9-4 9.6-6.7 14.1-30 49.5-37.1 58.8-37.1 58.8s212.5 58.7 212.5 93.7z"/>
        <path class="st1" d="M774 451.6l13.1 144.7"/>
        <path class="st1" d="M549.4 1018.5s-99.8 40.2-79.5 86.3c20.3 46.2 96 19.4 96 19.4s-86.8 91.4 10.2 147.7c97 56.3 383.9-84 383.9-84"/>
        <path class="st1" d="M1703 1222c0 182.8-460.5 293.6-743 293.6v-376.8c0-35.1 212.6-93.7 212.6-93.7s-7.1-9.3-37.1-58.8c-2.7-4.5-5-9.2-6.7-14.1 117.8 16.5 574.2 90.6 574.2 249.8z"/>
        <path class="st1" d="M1370.6 1018.5s99.8 40.2 79.5 86.3-96 19.4-96 19.4 86.8 91.4-10.2 147.7c-97 56.3-383.9-84-383.9-84"/>
        <path class="st1" d="M891 636.7h138"/>
    </g>
</svg>
