<svg xmlns="http://www.w3.org/2000/svg" viewBox="0 0 1920 1920">
    <style>
        .st0{fill:#fff}.st1{fill:none;stroke:#000;stroke-width:50;stroke-linecap:round;stroke-linejoin:round;stroke-miterlimit:10}
    </style>
    <path class="st0" d="M1203.8 319.6C1140.3 256.2 1052.7 217 955.9 217c-193.6 0-350.6 157-350.6 350.6v503.9c1.8.9 3.6 1.7 5.5 2.5.3.2.7.3 1 .4 1.5.7 3 1.4 4.6 2 .4.2.8.3 1.2.5 1.6.7 3.3 1.4 4.9 2.1.2.1.5.2.7.3 3.9 1.7 7.9 3.3 12 4.9.2.1.3.1.5.2 1.9.7 3.7 1.4 5.6 2.2.3.1.6.2.8.3 1.9.7 3.8 1.4 5.8 2.1.1 0 .2.1.3.1 4.3 1.6 8.6 3.1 13.1 4.6.1 0 .2.1.2.1 2.1.7 4.1 1.4 6.2 2 .3.1.5.2.8.3 2.1.7 4.1 1.3 6.2 2 .1 0 .2.1.4.1 4.5 1.4 9.2 2.8 13.8 4.1.2.1.3.1.5.1l6.3 1.8c.4.1.8.2 1.1.3 2 .6 4 1.1 6.1 1.6.3.1.6.2.9.2 1.2.3 2.3.6 3.5.9.5.1.9.2 1.4.4.4.1.7.2 1.1.3.3.1.7.2 1.1.3-.6-5.8-.9-11.7-.9-17.6 0-64.1 34.9-121.4 89.7-159.7-49.5-70.8-80.7-163.8-80.7-235.5 0-133.8 108.4-168.2 242.2-168.2s242.2 34.4 242.2 168.2c0 71.7-31.2 164.8-80.7 235.6 54.9 38.2 89.7 95.6 89.7 159.7 0 4.7-.2 9.5-.6 14.1 34.3-9.4 65.4-20.6 92.4-33.3l1.1.6 1.2-.6V567.6c0-96.8-39.3-184.5-102.7-248zm-247.9 50.6c-49.7 0-92.1-13-109.3-31.4 17.1 18.4 59.6 31.4 109.3 31.4 64.9 0 117.5-22.2 117.5-49.6 0-27.4-52.6-49.6-117.5-49.6-54.7 0-100.7 15.8-113.8 37.2 13-21.4 59-37.2 113.8-37.2 64.9 0 117.5 22.2 117.5 49.6 0 27.4-52.6 49.6-117.5 49.6z" id="Layer_2"/>
    <path class="st0" d="M1122.7 931c49.5-70.9 80.7-163.9 80.7-235.6 0-133.8-108.4-168.2-242.2-168.2S719 561.6 719 695.4c0 71.7 31.2 164.8 80.7 235.6-54.8 38.2-89.7 95.6-89.7 159.7 0 5.9.3 11.8.9 17.6 1.3.3 2.7.7 4.1 1 1.4.3 2.7.7 4.1 1 .5.1 1.1.3 1.7.4 2.6.6 5.3 1.3 8 1.9.1 0 .2.1.4.1 2.6.6 5.2 1.2 7.9 1.8l2.7.6c2.2.5 4.3.9 6.5 1.4l3 .6c2.1.4 4.2.8 6.3 1.3l3.3.6c2 .4 4.1.8 6.1 1.2 1.1.2 2.3.4 3.4.6l6.6 1.2c1 .2 1.9.3 2.8.5 2.8.5 5.6 1 8.5 1.4 1.8.3 3.6.6 5.3.8 2.8.4 5.6.9 8.4 1.3 3.1.5 6.2.9 9.3 1.3 2.3.3 4.7.6 7 .9l4.8.6c.5.1 1 .1 1.5.2l4.8.6c.3 0 .7.1 1 .1.2 0 .3 0 .5.1h.5c.6.1 1.3.1 1.9.2h.4c.2 0 .3 0 .5.1l3 .3c1.1.1 2.2.2 3.3.4.7.1 1.4.2 2.2.2.4.1.8.1 1.2.1.2 0 .5 0 .7.1.4 0 .7.1 1 .1 1.1.1 2.2.2 3.4.3.5 0 1 .1 1.5.1s.9.1 1.4.1c1.8.2 3.5.3 5.3.5 2.2.2 4.5.4 6.7.6 1.9.2 3.8.3 5.7.5.5 0 1 .1 1.4.1.5 0 .9.1 1.4.1 1.9.2 3.8.3 5.8.4 2.4.2 4.8.3 7.2.5.7.1 1.4.1 2.2.1.7 0 1.4.1 2.1.1 1.6.1 3.3.2 4.9.3.6 0 1.2.1 1.8.1h.8c.5 0 1 .1 1.5.1h2c1.5.1 3 .2 4.5.2.6 0 1.2 0 1.8.1h1.5c1.4.1 2.7.1 4.1.2h3c.7 0 1.4 0 2.1.1 1.1 0 2.3.1 3.4.1h8.1c.6 0 1.2 0 1.7.1h1c2 0 4.1.1 6.1.1h1.5c.9 0 1.7 0 2.6.1h38.3c1 0 2 0 3.1-.1.7 0 1.5 0 2.2-.1.6 0 1.2 0 1.8-.1h6.2c.5 0 1.1 0 1.6-.1.8 0 1.5 0 2.2-.1.8 0 1.6-.1 2.4-.1h4.7c.4 0 .8 0 1.2-.1h.4c.4 0 .9 0 1.3-.1h2.5c.5 0 .9 0 1.4-.1 1.2-.1 2.3-.1 3.4-.2h.4c.5 0 1.1 0 1.6-.1h.1c1.5-.1 3-.1 4.4-.2 2.7-.2 5.4-.3 8-.5.9 0 1.8-.1 2.7-.2.9-.1 1.8-.1 2.6-.2.9-.1 1.7-.1 2.6-.2h.4c.3 0 .7 0 1-.1h.3c13.7-1 27.2-2.3 40.4-3.8l3-.3c.2 0 .4 0 .7-.1 1.6-.2 3.2-.4 4.7-.6 1.5-.2 3.1-.4 4.6-.6h.3l4.5-.6c1.5-.2 2.9-.4 4.4-.6l.6-.1c1.5-.2 2.9-.4 4.4-.6l4.8-.7c1.5-.2 2.9-.4 4.4-.7l9.1-1.4c31.3-5 60.9-11.4 88.5-19 .4-4.7.6-9.4.6-14.1.5-63.8-34.4-121.2-89.2-159.4z" id="Layer_3"/>
    <path class="st0" d="M1669.1 1303.4c-7.8-28.8-26.9-54.8-56.3-70.4l-306.3-161.6-1.2.6c-.2.1-.5.2-.7.3-1 .5-1.9.9-2.9 1.3-.8.4-1.7.8-2.5 1.1-.8.4-1.6.7-2.5 1.1-.9.4-1.8.8-2.6 1.2-.8.4-1.6.7-2.5 1.1l-2.7 1.2c-.8.3-1.6.7-2.5 1-.9.4-1.8.8-2.8 1.1-.8.3-1.7.7-2.5 1-.9.4-1.9.8-2.8 1.1-.8.3-1.7.7-2.6 1-.9.4-1.9.7-2.8 1.1-.9.3-1.8.7-2.7 1-.9.4-1.8.7-2.7 1-1.7.7-3.5 1.3-5.2 1.9-.9.3-1.8.7-2.8 1-1 .3-1.9.7-2.9 1-1 .3-1.9.7-2.9 1-.9.3-1.9.7-2.9 1-1 .3-1.9.6-2.9 1-1 .3-1.9.6-2.9.9l-3 .9c-1 .3-1.9.6-2.9.9l-3 .9-3 .9-3 .9-3 .9-3 .9c-1 .3-2.1.6-3.1.9-2 .6-4 1.1-6 1.7-.9.3-1.8.5-2.8.8-.2.1-.4.1-.6.2l-1.2.3c-2.6.7-5.1 1.4-7.7 2-.6.2-1.2.3-1.9.5-2.8.7-5.5 1.4-8.3 2.1l-2.7.6c-2.7.7-5.4 1.3-8.2 1.9-.9.2-1.9.4-2.8.6-2.6.6-5.3 1.2-8 1.8l-2.7.6c-2.4.5-4.9 1-7.4 1.5-.9.2-1.8.4-2.7.5-2.9.6-5.8 1.1-8.7 1.7-1 .2-1.9.4-2.9.5-3 .5-5.9 1.1-8.9 1.6-.8.1-1.5.3-2.3.4-3.2.5-6.4 1.1-9.7 1.6h-.2l-9.1 1.4c-.2 0-.3.1-.5.1l-3.9.6-4.8.7c-.2 0-.3.1-.5.1-1.1.2-2.3.3-3.4.5-.2 0-.3 0-.5.1l-.6.1c-.1 0-.3 0-.4.1-1.3.2-2.6.4-4 .5-.8.1-1.5.2-2.2.3s-1.5.2-2.2.3h-.3c-1.5.2-3 .4-4.6.6-1.6.2-3.1.4-4.7.6-.2 0-.4.1-.7.1-.2 0-.4 0-.6.1l-2.4.3c-.8.1-1.5.2-2.3.2h-.1c-.5.1-1 .1-1.4.2h-.2c-.3 0-.6.1-.9.1h-.2c-.4 0-.8.1-1.1.1-.8.1-1.5.2-2.3.2-1 .1-1.9.2-2.9.3-.7.1-1.5.2-2.2.2-.7.1-1.3.1-2 .2-1 .1-2 .2-3.1.3-.5.1-1.1.1-1.6.1-3.2.3-6.5.6-9.8.9-3.2.3-6.3.5-9.5.8-.2 0-.4 0-.6.1h-.3c-.3 0-.6.1-1 .1h-.4c-.9.1-1.7.1-2.6.2-.9.1-1.7.1-2.6.2-.8.1-1.7.1-2.6.2-.9.1-1.8.1-2.6.2h-.9c-.3 0-.7 0-1 .1-1.2.1-2.4.2-3.7.2-1.4.1-2.9.2-4.3.2H1017.4c-.5 0-1 .1-1.5.1h-.5c-1.1.1-2.2.1-3.4.2-.5 0-.9 0-1.4.1h-2.5c-.4 0-.9 0-1.3.1h-.4c-.4 0-.8 0-1.2.1H1000.4c-.8 0-1.6.1-2.4.1-.8 0-1.5.1-2.2.1-.5 0-1.1 0-1.6.1h-6.1c-.6 0-1.2 0-1.8.1-.7 0-1.4 0-2.2.1-1 0-2 .1-3.1.1h-11.2c-2 0-4 .1-6 .1h-37.6c-.7 0-1.4 0-2.1-.1H917c-1.2 0-2.3-.1-3.4-.1-.8 0-1.7 0-2.5-.1h-2.6c-1 0-2.1-.1-3.1-.1h-2.7c-2-.1-3.9-.2-5.9-.3H894.4c-1-.1-2-.1-3-.2h-.8c-.6 0-1.3-.1-1.9-.1h-.4c-.9-.1-1.7-.1-2.6-.1h-.7c-.4 0-.8-.1-1.3-.1h-1.2c-1 0-1.9-.1-2.9-.2-1 0-1.9-.1-2.9-.2-2.9-.2-5.9-.4-8.8-.6h-.5l-7.2-.6c-.9-.1-1.8-.2-2.7-.2-1.8-.2-3.6-.3-5.4-.5-1.1-.1-2.3-.2-3.4-.3-.9-.1-1.7-.2-2.5-.2-2-.2-4-.4-5.9-.6-.2 0-.5 0-.7-.1-1.1-.1-2.2-.2-3.3-.4-.5 0-.9-.1-1.4-.1-.6-.1-1.3-.1-1.9-.2l-3-.3c-.9-.1-1.8-.2-2.8-.3h-.6c-.2 0-.3-.1-.5-.1-1.9-.2-3.9-.4-5.8-.7-.5-.1-1-.1-1.5-.2l-4.8-.6c-2.3-.3-4.7-.6-7-.9-3.1-.4-6.2-.8-9.3-1.3-2.8-.4-5.6-.8-8.4-1.3-1.8-.3-3.6-.5-5.3-.8-69.7-11.2-131.2-29.1-179.8-51.7L299 1233c-24.8 13.1-42.3 33.7-51.8 57.1-.2.5-.4 1.1-.6 1.6-16.2 41.5-7.5 91.5 29.4 124.6 67.9 60.7 180.7 110.9 320.4 142.9 1.7.4 3.3.8 5 1.1.1 0 .2.1.3.1 1.5.3 2.9.7 4.4 1 .2 0 .4.1.6.1l1.2.3 1.2.3c3.9.8 7.8 1.7 11.8 2.5l3 .6h.1c1 .2 1.9.4 2.9.6l6 1.2c.9.2 1.9.4 2.8.6 1.9.4 3.8.7 5.6 1.1.8.2 1.7.3 2.5.5.2.1.4.1.7.1.3 0 .6.1.8.2.4.1.8.2 1.1.2.4.1.8.2 1.2.2 1.1.2 2.1.4 3.2.6.2 0 .3.1.5.1.7.1 1.5.3 2.2.4l1.8.3c.2 0 .3.1.5.1.4.1.8.1 1.1.2l1.8.3h.1c1.2.2 2.4.4 3.5.6.3.1.7.1 1 .2.2 0 .4.1.5.1.8.1 1.6.3 2.4.4 2.2.4 4.5.8 6.7 1.2.3.1.7.1 1 .2.2 0 .5.1.7.1.3.1.6.1.8.1.1 0 .2 0 .3.1.1 0 .2 0 .4.1l3.9.6c.4.1.9.1 1.3.2.8.1 1.7.3 2.5.4 1.1.2 2.2.4 3.4.5.5.1 1 .2 1.5.2.9.2 1.9.3 2.8.4 2.3.4 4.5.7 6.8 1.1.6.1 1.1.2 1.7.3.6.1 1.1.2 1.7.3h.7c.2 0 .3 0 .5.1.6.1 1.2.2 1.8.2.3 0 .7.1 1 .2.4.1.8.1 1.2.2h.5c.2 0 .5.1.7.1h.8c.7.1 1.5.2 2.2.3.1 0 .2 0 .3.1h.1c.2 0 .5.1.7.1.4.1.9.1 1.3.2h.3c.1 0 .2 0 .3.1.7.1 1.3.2 2 .3.4.1.8.1 1.1.2.2 0 .5.1.7.1h.2c.2 0 .3.1.5.1.6.1 1.1.2 1.7.2.5.1 1.1.2 1.6.2h1.6c.5.1 1.1.1 1.6.2 1.9.2 3.7.5 5.6.8.3 0 .7.1 1 .1.2 0 .5.1.8.1.3 0 .7.1 1 .1.2 0 .5.1.7.1.4.1.8.1 1.1.2h.8c1.2.2 2.4.3 3.6.5.7.1 1.3.2 2 .2 1.4.2 2.8.3 4.2.5.7.1 1.3.2 2 .2 1.8.2 3.6.4 5.4.7.3 0 .6.1.9.1 1.2.2 2.5.3 3.7.4 3 .3 6 .7 9 1h.2c.5 0 .9.1 1.4.2h.1c.8.1 1.7.2 2.6.3.5 0 1 .1 1.4.1.4 0 .8.1 1.2.1.5 0 .9.1 1.4.1 1.1.1 2.1.2 3.2.3.8.1 1.6.2 2.4.2.8.1 1.6.2 2.4.2h.8c1 .1 2.1.2 3.2.3h.6c.4 0 .9.1 1.3.1.2 0 .4 0 .6.1 2.6.2 5.3.5 7.9.7h.5c.3 0 .6.1.9.1.3 0 .7.1 1 .1.9.1 1.8.2 2.7.2.5 0 1 .1 1.5.1h.5c5.8.5 11.6 1 17.5 1.4.3 0 .5 0 .8.1 1.1.1 2.3.2 3.5.2 2.6.2 5.1.4 7.7.6.9.1 1.8.1 2.8.2h1.6c1 .1 2.1.1 3.2.2.3 0 .5 0 .8.1 1.5.1 3 .2 4.6.3.7.1 1.3.1 2 .1l4.5.3c.3 0 .7 0 1 .1 1 .1 2 .1 3 .2.9.1 1.8.1 2.7.2.6 0 1.1.1 1.7.1.3 0 .7 0 1 .1h4.1c1 0 1.9.1 2.9.1.8 0 1.5.1 2.2.1h1.3c.8 0 1.5.1 2.3.1h5.9c.7 0 1.3.1 2 .1 1.4.1 2.9.1 4.3.2h7.5c.6 0 1.2 0 1.8.1h.1c1.3 0 2.7.1 4 .1h5.3c1 0 2.1.1 3.1.1h.1c1.2 0 2.3.1 3.5.1h22c1.6 0 3.3 0 4.9.1h31.2c1.6 0 3.2 0 4.9-.1 1.3 0 2.6 0 3.8-.1h3.8c1 0 2 0 3.1-.1h10.6c1.3 0 2.6-.1 3.9-.1h9.7c.5 0 1.1 0 1.6-.1h2.6c1.2 0 2.4-.1 3.5-.1h1.5c2.4-.1 4.7-.2 7-.3h8.1c.6 0 1.1 0 1.7-.1.4 0 .9 0 1.3-.1h.5c1.7-.1 3.5-.2 5.2-.2h1.2c.5 0 .9-.1 1.4-.1h1.3c.3 0 .6 0 .9-.1.7 0 1.4-.1 2.1-.1 1 0 1.9-.1 2.9-.2-.8 0-1.5.1-2.3.1.3 0 .7 0 1-.1 1.2-.1 2.4-.1 3.7-.2h.1c.5 0 .9-.1 1.4-.1 1.5-.1 2.9-.2 4.3-.2.7 0 1.5-.1 2.2-.1l3-.2c.8 0 1.6-.1 2.3-.1l3.1-.2h.8c.4 0 .7 0 1.1-.1.5 0 .9-.1 1.4-.1.7 0 1.5-.1 2.2-.2h.1c.5 0 1-.1 1.5-.1 2.9-.2 5.9-.4 8.8-.6h.5c6.5-.5 12.9-1 19.4-1.6.9-.1 1.8-.2 2.7-.2.4 0 .8-.1 1.2-.1.3 0 .5-.1.8-.1.9-.1 1.8-.2 2.7-.2h.6c1.7-.2 3.4-.3 5.1-.5.2 0 .5 0 .7-.1h.6c.3 0 .7-.1 1-.1h.5c.6-.1 1.2-.1 1.8-.2.4 0 .7-.1 1.1-.1h.8c.6-.1 1.1-.1 1.7-.2.9-.1 1.9-.2 2.8-.3h.6c2.1-.2 4.3-.4 6.4-.7.5 0 1-.1 1.5-.2.6-.1 1.2-.1 1.8-.2h.1c.4-.1.8-.1 1.3-.1.2 0 .3 0 .5-.1 2.9-.3 5.7-.6 8.6-1 1.3-.2 2.7-.3 4-.5.2 0 .5-.1.8-.1 1.3-.2 2.6-.3 3.9-.5.7-.1 1.3-.2 2-.2.4 0 .8-.1 1.1-.1h.3c1.4-.2 2.8-.3 4.2-.5.7-.1 1.3-.2 2-.2.2 0 .4-.1.7-.1.5-.1.9-.1 1.4-.2.5-.1.9-.1 1.4-.2.2 0 .4 0 .6-.1h.6c.2 0 .4-.1.7-.1.3 0 .6-.1.9-.1.4-.1.8-.1 1.3-.2.2 0 .3 0 .5-.1.3 0 .7-.1 1-.1 1.8-.2 3.6-.5 5.4-.7.6-.1 1.2-.2 1.8-.2h1.4c.5-.1 1.1-.2 1.6-.2.6-.1 1.1-.2 1.7-.2.2 0 .4 0 .6-.1h.1c.1 0 .2 0 .4-.1h.6c.1 0 .3 0 .4-.1.1 0 .2 0 .4-.1.7-.1 1.3-.2 2-.3.1 0 .3 0 .4-.1h.1c.5-.1 1-.1 1.4-.2.1 0 .3 0 .5-.1.2 0 .3 0 .5-.1h.3c.4-.1.7-.1 1.1-.2.4 0 .7-.1 1.1-.2h.8c.2 0 .5-.1.7-.1h.7c.4-.1.8-.1 1.2-.2h.2c.6-.1 1.1-.2 1.7-.2h.4c.1 0 .3 0 .4-.1h.1c.3 0 .5-.1.8-.1h.1c.2 0 .4-.1.6-.1.8-.1 1.6-.2 2.5-.4 2.4-.4 4.9-.8 7.3-1.1 1.1-.2 2.1-.3 3.2-.5.9-.2 1.9-.3 2.8-.5l1.8-.3c.8-.1 1.6-.2 2.4-.4.5-.1.9-.1 1.4-.2h.2c.2 0 .4-.1.7-.1 1-.2 1.9-.3 2.9-.5.3-.1.7-.1 1-.2.3-.1.5-.1.8-.1.2 0 .5-.1.7-.1.3-.1.7-.1 1-.2.4-.1.8-.1 1.2-.2l1.8-.3 3.3-.6h.2c.8-.1 1.5-.3 2.3-.4.6-.1 1.2-.2 1.9-.3 1.1-.2 2.2-.4 3.4-.6h.2c.7-.1 1.5-.3 2.2-.4.4-.1.9-.2 1.3-.2 1.8-.3 3.6-.7 5.4-1 1.7-.3 3.3-.6 5-.9 1.9-.4 3.8-.7 5.7-1.1 1.4-.3 2.8-.6 4.2-.8l3-.6c.8-.2 1.7-.3 2.5-.5.5-.1 1.1-.2 1.6-.3.3-.1.6-.1.9-.2h.2c.9-.2 1.9-.4 2.8-.6.1 0 .2 0 .3-.1 1.6-.3 3.1-.7 4.7-1 .1 0 .3-.1.4-.1.3-.1.5-.1.8-.2.8-.2 1.5-.3 2.2-.5.6-.1 1.1-.2 1.7-.4 2.3-.5 4.7-1 7-1.5.3-.1.6-.1.9-.2 1-.2 1.9-.4 2.9-.7.4-.1.9-.2 1.3-.3l5.1-1.2c69.9-16 133-36.6 187.1-60.7 54.1-24.1 99.3-51.9 133.3-82.2 33.2-29.4 43.5-73.4 33-112.3z" id="Layer_5"/>
    <path class="st0" d="M1310.2 1560.4c-.9.2-1.8.4-2.6.6-.5.1-1.1.2-1.6.4-2.6.6-5.2 1.1-7.9 1.7-1.1.2-2.2.5-3.4.7-.2 0-.4.1-.6.1-.3.1-.6.1-.8.2-1.7.4-3.4.7-5.1 1.1-.1 0-.2 0-.3.1-.9.2-1.9.4-2.8.6h-.2c-.3.1-.6.1-.9.2-.5.1-1.1.2-1.6.3-.8.2-1.7.3-2.5.5l-3 .6c-1.4.3-2.8.6-4.2.8-1.9.4-3.8.7-5.7 1.1-1.7.3-3.3.6-5 .9-.6.1-1.2.2-1.9.4-1.2.2-2.3.4-3.5.6-.4.1-.9.2-1.3.2-.7.1-1.5.3-2.2.4h-.2c-1.1.2-2.2.4-3.4.6-.6.1-1.2.2-1.9.3-.8.1-1.5.3-2.3.4-.7.1-1.5.3-2.2.4-1 .2-2.1.3-3.1.5-.4.1-.8.1-1.2.2-.3.1-.7.1-1 .2-.8.1-1.6.3-2.5.4-1 .2-1.9.3-2.9.5-.2 0-.4.1-.7.1h-.2c-.5.1-.9.2-1.4.2-.8.1-1.6.3-2.4.4l-1.8.3c-1 .2-1.9.3-2.8.5-1.1.2-2.1.3-3.2.5-2.4.4-4.9.8-7.3 1.1-.8.1-1.6.2-2.5.4-.2 0-.4.1-.6.1h-.4c-.2 0-.3.1-.5.1-.3 0-.6.1-.9.1-.6.1-1.1.2-1.7.2h-.2c-.3.1-.6.1-.8.1h-1.1c-.2 0-.5.1-.7.1h-.7c-.4.1-.8.1-1.2.2-.4.1-.7.1-1.1.2h-.3l-2.4.3h-.1c-.1 0-.3 0-.4.1-.7.1-1.3.2-2 .3-.1 0-.2 0-.4.1-.3 0-.6.1-.9.1h-.3c-.1 0-.2 0-.4.1h-.1c-.2 0-.4.1-.6.1-.6.1-1.1.2-1.7.2-.7.1-1.4.2-2 .3h-1c-.6.1-1.2.2-1.8.2-.9.1-1.8.2-2.7.4-.9.1-1.8.2-2.8.4-.3 0-.7.1-1 .1-.2 0-.3 0-.5.1-.4.1-.9.1-1.3.2-.3 0-.6.1-.9.1-.2 0-.5.1-.7.1h-.6c-.2 0-.4 0-.6.1-.5.1-.9.1-1.4.2-.5.1-.9.1-1.4.2-.2 0-.4.1-.7.1-.2 0-.4.1-.7.1-.5.1-.9.1-1.3.2-1.4.2-2.8.3-4.2.5h-.3c-.4 0-.8.1-1.1.1-.7.1-1.4.2-2 .2-1.3.2-2.6.3-3.9.5-.2 0-.5.1-.8.1-1.3.2-2.7.3-4 .5-1.2.1-2.5.3-3.7.4-1.6.2-3.3.4-4.9.5-.2 0-.3 0-.5.1-.4 0-.9.1-1.3.1h-.1c-.3 0-.6.1-.9.1-.3 0-.6.1-.9.1-.5.1-1 .1-1.5.2-2.1.2-4.3.4-6.4.7h-.6c-1.5.1-3 .3-4.5.4H1126.6c-1.1.1-2.2.2-3.2.3h-.2c-.3 0-.7.1-1 .1h-.6c-.2 0-.5.1-.7.1-1.7.2-3.4.3-5.1.5h-.6c-.5.1-1 .1-1.6.2-.2 0-.4 0-.6.1h-.5c-.3 0-.5.1-.8.1-.4 0-.8.1-1.2.1-.9.1-1.8.2-2.7.2-.6.1-1.3.1-1.9.2-2.6.2-5.3.5-8 .7-.2 0-.5 0-.7.1-2.9.2-5.8.4-8.8.7h-.5c-2.9.2-5.8.4-8.8.6-.5 0-1 .1-1.5.1h-.1c-.7.1-1.5.1-2.2.2-.5 0-.9.1-1.4.1-.4 0-.7.1-1.1.1h-1.6c-.8 0-1.5.1-2.2.1-.3 0-.5 0-.8.1-1 .1-2.1.1-3.1.2-.5 0-1 .1-1.5.1-.7.1-1.5.1-2.2.1-1.4.1-2.8.2-4.2.2-.5 0-1.1.1-1.6.1-.8 0-1.7.1-2.5.1-1 .1-1.9.1-2.9.2-.6 0-1.1.1-1.7.1h-.4c-.7 0-1.4.1-2.1.1h-2.5c-.7 0-1.4.1-2 .1-.5 0-1.1 0-1.6.1h-.3c-1.6.1-3.2.1-4.9.2h-1.2c-.4 0-.8 0-1.3.1h-3.7c-.5 0-1 0-1.5.1-.5 0-1.1.1-1.6.1h-.2c-1.8.1-3.6.1-5.4.2h-1.1c-.4 0-.8 0-1.3.1-1.4 0-2.8.1-4.2.1-1 0-2 .1-3.1.1-.9 0-1.7.1-2.6.1h-3.1c-.7 0-1.4 0-2.1.1h-1.8c-1.3 0-2.6.1-3.9.1h-10.2c-1.6 0-3.1.1-4.7.1h-2.6c-1.3 0-2.6 0-3.8.1h-47.5c-1.6 0-3.2 0-4.8-.1h-8.3c-1.6 0-3.3-.1-4.9-.1h-9.2c-1.3 0-2.7-.1-4-.1-.6 0-1.2 0-1.8-.1h-.7c-.6 0-1.3 0-1.9-.1h-3.4c-1.5 0-3-.1-4.5-.2s-3-.1-4.5-.2h-4.7c-1.6-.1-3.2-.1-4.8-.2h-.3c-.5 0-1.1-.1-1.6-.1-.7 0-1.4-.1-2-.1H863c-.4 0-.9 0-1.3-.1h-.4c-.6 0-1.1-.1-1.7-.1-.9 0-1.8-.1-2.7-.2-1-.1-2-.1-3-.2-.4 0-.8 0-1.2-.1-1.4-.1-2.9-.2-4.3-.3-.7 0-1.4-.1-2-.1-.5 0-1 0-1.5-.1-1-.1-2.1-.1-3.1-.2-.3 0-.5 0-.8-.1-.8 0-1.5-.1-2.2-.1h-2.5c-.9-.1-1.8-.1-2.8-.2-2.6-.2-5.1-.4-7.7-.6-1.1-.1-2.3-.2-3.5-.2-.3 0-.5 0-.8-.1-2.9-.2-5.8-.4-8.7-.7-.2 0-.5 0-.7-.1-2.7-.2-5.3-.4-8-.7h-.5c-.5 0-1-.1-1.5-.1-.9-.1-1.8-.2-2.7-.2-.3 0-.7-.1-1-.1-.3 0-.6-.1-.9-.1h-.5c-.2 0-.4 0-.6-.1-2.4-.2-4.9-.4-7.3-.7-.2 0-.4 0-.6-.1-.4 0-.9-.1-1.3-.1h-.5c-1-.1-2.1-.2-3.2-.3H782.6c-1.6-.2-3.2-.3-4.8-.5-1.1-.1-2.1-.2-3.2-.3-.5-.1-.9-.1-1.4-.1-.4-.1-.8-.1-1.2-.1-.8-.1-1.5-.1-2.2-.2-.3 0-.6-.1-.9-.1-.3 0-.6-.1-.9-.1h-.1c-.5-.1-.9-.1-1.4-.2h-.2l-5.1-.6c-1.3-.2-2.6-.3-3.9-.4-1.2-.1-2.5-.3-3.7-.4-.3 0-.6-.1-.9-.1l-7.5-.9c-1.4-.2-2.8-.3-4.2-.5-.5-.1-.9-.1-1.3-.2-.2 0-.5-.1-.7-.1-.2 0-.5-.1-.7-.1-1-.1-2-.2-2.9-.4H734.6c-.4 0-.8-.1-1.1-.2-.2 0-.5-.1-.7-.1-.3 0-.7-.1-1-.1-.2 0-.5-.1-.8-.1-.3 0-.7-.1-1-.1-.9-.1-1.8-.2-2.8-.4-.9-.1-1.9-.3-2.8-.4-.5-.1-1.1-.1-1.6-.2h-1.3c-.6-.1-1.2-.2-1.9-.3-.6-.1-1.1-.2-1.7-.2-.2 0-.3 0-.5-.1h-.1c-.2 0-.5-.1-.7-.1-.4-.1-.8-.1-1.1-.2-.7-.1-1.3-.2-2-.3-.1 0-.2 0-.3-.1h-.3c-.7-.1-1.4-.2-2.2-.3-.1 0-.2 0-.3-.1-.7-.1-1.5-.2-2.2-.3H707.4c-.2 0-.5-.1-.7-.1h-1c-.3 0-.6-.1-.8-.1-.3-.1-.7-.1-1-.2-.6-.1-1.2-.2-1.8-.2-.2 0-.3-.1-.5-.1h-.6l-1.8-.3c-.6-.1-1.1-.2-1.7-.3l-3.9-.6c-1-.2-2-.3-3-.5-.9-.2-1.9-.3-2.8-.4-.5-.1-1-.2-1.5-.2-1.1-.2-2.2-.3-3.4-.5-1.1-.2-2.1-.3-3.2-.5-.2 0-.4-.1-.7-.1-.3 0-.5-.1-.8-.1-1.2-.2-2.3-.4-3.5-.6-1-.2-1.9-.3-2.9-.5-1.4-.2-2.8-.5-4.3-.7-.8-.2-1.6-.3-2.5-.4-.9-.2-1.8-.3-2.7-.5-.4-.1-.8-.2-1.2-.2-1.2-.2-2.4-.4-3.5-.6h-.1l-1.8-.3c-.4-.1-.8-.1-1.1-.2-.2 0-.3-.1-.5-.1l-1.8-.3-1.8-.3c-.3-.1-.6-.1-.9-.2-1.1-.2-2.1-.4-3.2-.6-.4-.1-.8-.2-1.2-.2-.4-.1-.8-.1-1.1-.2-.3 0-.6-.1-.8-.2-.7-.1-1.3-.2-2-.4-1.4-.3-2.8-.5-4.1-.8-1.9-.4-3.7-.7-5.5-1.1-.2 0-.5-.1-.7-.1-.9-.2-1.7-.3-2.5-.5-.2 0-.3-.1-.5-.1h-.2c-.3-.1-.6-.1-.9-.2-.4-.1-.7-.2-1.1-.2-1-.2-1.9-.4-2.9-.6l-3-.6c-1.1-.2-2.2-.5-3.3-.7-.2 0-.4-.1-.6-.1-2.7-.6-5.3-1.2-7.9-1.7l-1.2-.3c-.6-.1-1.2-.3-1.8-.4-.6-.1-1.3-.3-1.9-.4-.9-.2-1.9-.4-2.8-.6-1.7-.4-3.3-.7-5-1.1 36.8 82.3 183.8 143.9 359.5 143.9s322.7-61.5 359.5-143.9l-4.2.6z" id="Layer_6"/>
    <g id="STROKES">
        <path class="st1" d="M1315.4 1559.2c-36.8 82.3-183.8 143.9-359.5 143.9s-322.7-61.5-359.5-143.9c106.8 24.5 229.3 38.4 359.5 38.4s252.7-13.9 359.5-38.4z"/>
        <path class="st1" d="M1635.8 1416.3c-67.9 60.7-180.7 110.9-320.4 142.9l-7.8 1.8c-.8.2-1.7.4-2.5.6-3.4.8-6.9 1.5-10.3 2.2-.2 0-.4.1-.6.1-2.1.4-4.2.9-6.3 1.3-1.3.3-2.7.6-4 .8-.5.1-1.1.2-1.6.3-.8.2-1.7.3-2.5.5-6.5 1.3-13.1 2.6-19.7 3.8-1.2.2-2.3.4-3.5.6-1.2.2-2.4.4-3.5.6-1.2.2-2.4.4-3.5.6-1.2.2-2.4.4-3.5.6-.9.2-1.9.3-2.8.5-1.4.2-2.9.5-4.3.7-.3.1-.7.1-1 .2-1.8.3-3.6.6-5.3.9-.3 0-.5.1-.8.1-.2 0-.3.1-.5.1l-3.3.6c-1.1.2-2.2.4-3.3.5-2.4.4-4.8.8-7.2 1.1-2.5.4-5 .8-7.6 1.2h-.4c-.2 0-.3 0-.5.1-.7.1-1.5.2-2.2.3-.2 0-.4.1-.6.1-.3 0-.6.1-.8.1-.1 0-.3 0-.4.1h-.6c-.2 0-.5.1-.7.1h-.3c-.2 0-.3 0-.5.1-.7.1-1.5.2-2.2.3-.4.1-.8.1-1.2.2-.5.1-1 .1-1.5.2-.1 0-.3 0-.4.1-.7.1-1.3.2-2 .3-.4.1-.8.1-1.1.2-.1 0-.3 0-.4.1-.1 0-.3 0-.4.1-.2 0-.4.1-.6.1-.6.1-1.1.2-1.7.2-.5.1-1.1.1-1.6.2-.2 0-.4 0-.5.1h-.9c-1.5.2-2.9.4-4.4.6-.9.1-1.8.2-2.8.4-.3 0-.7.1-1 .1-.6.1-1.2.2-1.8.2-.6.1-1.2.2-1.9.2h-.4c-1.1.2-2.2.3-3.3.4-.5.1-.9.1-1.3.2-.4 0-.9.1-1.3.2-1.5.2-3 .4-4.6.6-.5.1-1.1.1-1.6.2l-5.4.6c-2.8.3-5.6.7-8.5 1-2.2.3-4.4.5-6.7.7h-.1c-.3 0-.6.1-.9.1-.3 0-.6.1-.9.1-1.6.2-3.2.3-4.8.5-1.1.1-2.1.2-3.2.3-1.6.2-3.2.3-4.9.5h-.9l-3.3.3h-.1c-.8.1-1.5.2-2.3.2-1.7.2-3.4.3-5.1.5-.2 0-.4 0-.6.1-.5 0-1 .1-1.6.1h-.6c-.2 0-.4 0-.7.1-.6 0-1.2.1-1.8.2-1.6.1-3.1.3-4.7.4-2.7.2-5.3.5-8 .7-.2 0-.5 0-.7.1-2.9.2-5.8.5-8.7.7-3.6.3-7.2.5-10.8.8-.3 0-.6 0-.9.1l-3.9.3c-.4 0-.9.1-1.3.1h-.3c-.8 0-1.5.1-2.2.1-1.3.1-2.6.2-3.9.2-2.6.2-5.2.3-7.8.5-2.9.2-5.7.3-8.6.5h-.4c-1.1.1-2.1.1-3.2.2-1.2.1-2.4.1-3.6.2-.5 0-1.1 0-1.6.1-.5 0-1.1 0-1.6.1h-.8c-.9 0-1.8.1-2.8.1-3 .1-6.1.3-9.1.4-2.1.1-4.2.2-6.3.2-4.2.1-8.5.3-12.7.4-2.1.1-4.3.1-6.4.2-2.1 0-4.3.1-6.4.1-2.1 0-4.3.1-6.4.1-1.8 0-3.5.1-5.3.1-2.5 0-5 .1-7.6.1-2.1 0-4.3 0-6.4.1h-26c-2.2 0-4.3 0-6.4-.1-2.5 0-5.1-.1-7.6-.1-1.8 0-3.5-.1-5.3-.1-2.1 0-4.3-.1-6.4-.1-2.1 0-4.3-.1-6.4-.1-2.1-.1-4.3-.1-6.4-.2-4.3-.1-8.5-.3-12.7-.4-2.1-.1-4.2-.2-6.3-.2-3-.1-6.1-.3-9.1-.4-.9 0-1.9-.1-2.8-.1h-.8c-.5 0-1.1 0-1.6-.1-.5 0-1.1-.1-1.6-.1-1.2-.1-2.4-.1-3.6-.2-1.1 0-2.1-.1-3.2-.2h-.4c-2.9-.1-5.8-.3-8.6-.5-2.6-.1-5.2-.3-7.8-.5-1.3-.1-2.6-.2-3.9-.2-.7 0-1.5-.1-2.2-.1h-.3c-.4 0-.9-.1-1.3-.1-5.2-.3-10.4-.7-15.5-1.1-2.9-.2-5.8-.4-8.7-.7-.2 0-.5 0-.7-.1-2.7-.2-5.3-.4-8-.7-1.6-.1-3.1-.3-4.7-.4-.6 0-1.2-.1-1.8-.2-.2 0-.4 0-.7-.1h-.6c-2.4-.2-4.9-.4-7.3-.7-.8-.1-1.5-.1-2.3-.2h-.1l-3.3-.3H784c-1.6-.2-3.2-.3-4.9-.5-1.1-.1-2.2-.2-3.2-.3-1.6-.2-3.2-.3-4.8-.5-.3 0-.6-.1-.9-.1-.3 0-.6-.1-.9-.1h-.1c-2.2-.2-4.5-.5-6.7-.7-2.8-.3-5.7-.6-8.5-1l-5.4-.6c-.5-.1-1.1-.1-1.6-.2-1.5-.2-3.1-.4-4.6-.6-.4-.1-.9-.1-1.3-.2s-.9-.1-1.3-.2c-1.1-.1-2.2-.3-3.3-.4h-.4c-.6-.1-1.2-.2-1.9-.2-.6-.1-1.2-.2-1.8-.2-.3 0-.7-.1-1-.1-.9-.1-1.8-.3-2.8-.4-1.5-.2-3-.4-4.4-.6h-1c-.2 0-.4 0-.5-.1-.5-.1-1.1-.1-1.6-.2-.6-.1-1.1-.2-1.7-.2-.2 0-.4-.1-.6-.1h-.1c-.2 0-.5-.1-.7-.1-.4 0-.8-.1-1.1-.2-.7-.1-1.3-.2-2-.3-.1 0-.3 0-.4-.1-.5-.1-1-.1-1.5-.2-.4-.1-.8-.1-1.2-.2-.7-.1-1.5-.2-2.2-.3-.2 0-.3 0-.5-.1h-.4c-.2 0-.4-.1-.6-.1h-.6c-.1 0-.3 0-.4-.1-.3 0-.6-.1-.8-.1-.2 0-.4-.1-.6-.1-.7-.1-1.5-.2-2.2-.3-.2 0-.3 0-.5-.1h-.7c-2.4-.4-4.9-.7-7.3-1.1-2.4-.4-4.8-.8-7.2-1.1-1.1-.2-2.2-.4-3.3-.5l-3.3-.6c-.2 0-.3-.1-.5-.1-.3 0-.5-.1-.8-.1-1.8-.3-3.6-.6-5.3-.9-.3-.1-.7-.1-1-.2-1.4-.2-2.9-.5-4.3-.7-.9-.2-1.9-.3-2.8-.5-1.2-.2-2.4-.4-3.5-.6-1.2-.2-2.4-.4-3.5-.6-1.2-.2-2.4-.4-3.5-.6-1.2-.2-2.3-.4-3.5-.6-1.4-.3-2.8-.5-4.1-.8-.4-.1-.8-.2-1.2-.2-1.3-.3-2.7-.5-4-.8-1.4-.3-2.7-.5-4.1-.8l-6.3-1.2c-.8-.2-1.7-.3-2.5-.5-.2 0-.3-.1-.5-.1h-.2c-.3-.1-.6-.1-.9-.2-1.3-.3-2.7-.5-4-.8-2.1-.4-4.2-.9-6.3-1.3-.2 0-.4-.1-.6-.1-3.5-.7-6.9-1.5-10.3-2.2-.8-.2-1.7-.4-2.5-.6l-7.8-1.8c-139.7-32-252.5-82.2-320.4-142.9-37.4-33.5-45.8-84.3-28.8-126.2 9.5-23.4 27-44 51.8-57.1l306.3-161.6c48.8 22.9 110.7 41 181 52.3 1.8.3 3.6.6 5.3.8 2.8.4 5.6.9 8.4 1.3 3.1.5 6.2.9 9.3 1.3 2.3.3 4.7.6 7 .9l4.8.6c.5.1 1 .1 1.5.2 1.9.3 3.9.5 5.8.7.2 0 .3 0 .5.1h.5c.9.1 1.8.2 2.8.3l3 .3c.6.1 1.3.1 1.9.2.5 0 .9.1 1.4.1l3.3.3c.2 0 .5.1.7.1 2 .2 3.9.4 5.9.6.8.1 1.7.2 2.5.3 1.1.1 2.3.2 3.4.3 1.8.2 3.6.3 5.4.5.9.1 1.8.2 2.7.2l7.2.6h.5c2.9.2 5.8.4 8.8.6 1 .1 1.9.1 2.9.2s1.9.1 2.9.2h1.2c.4 0 .8 0 1.3.1h.7c.8 0 1.7.1 2.6.1h.4c.6 0 1.3.1 1.9.1h.8c1 .1 2 .1 3 .2h2.4c2 .1 3.9.2 5.9.3h2.5c1 0 2.1.1 3.1.1h2.5c.8 0 1.7.1 2.5.1 1.1 0 2.3.1 3.4.1h7.1c.7 0 1.4 0 2.1.1h35.5c2 0 4 0 6.1-.1h11.3c1 0 2 0 3.1-.1h10.2c.5 0 1.1 0 1.6-.1.8 0 1.5 0 2.2-.1.8 0 1.6-.1 2.4-.1h6.4c.4 0 .9 0 1.3-.1h2.6c.5 0 .9 0 1.4-.1 1.2 0 2.3-.1 3.4-.2h.4c.5 0 1.1 0 1.6-.1h.1c1.5-.1 3-.1 4.4-.2 2.7-.2 5.4-.3 8-.5.9 0 1.8-.1 2.7-.2.9-.1 1.7-.1 2.6-.2.9-.1 1.7-.1 2.6-.2h.4c.3 0 .7 0 1-.1h.3c13.7-1 27.2-2.3 40.4-3.8l3-.3c.2 0 .4 0 .7-.1 1.6-.2 3.2-.4 4.7-.6 1.5-.2 3.1-.4 4.6-.6h.3l4.5-.6c1.5-.2 2.9-.4 4.4-.6l.6-.1c1.5-.2 2.9-.4 4.4-.6l4.8-.7c1.5-.2 2.9-.4 4.4-.7l9.1-1.4c70.3-11.3 132.2-29.4 181-52.3l306.3 161.6c29.4 15.5 48.6 41.6 56.3 70.4 9.6 39.2-.7 83.2-34.2 113.2z"/>
        <path class="st1" d="M1203.8 319.6C1140.4 256.2 1052.7 217 955.9 217c-193.6 0-350.6 157-350.6 350.6v503.9c30.5 14.3 66.1 26.7 105.6 36.8 23.8 6.1 49 11.3 75.3 15.5 1.8.3 3.6.6 5.3.8 2.8.4 5.6.9 8.4 1.3 3.1.4 6.2.9 9.3 1.3 2.3.3 4.7.6 7 .9l4.8.6c.5.1 1 .1 1.5.2l4.8.6c.3 0 .7.1 1 .1.2 0 .3 0 .5.1h.4c.6.1 1.3.1 1.9.2.3 0 .6.1 1 .1l3 .3 5.4.6c.4 0 .8.1 1.2.1.6.1 1.2.1 1.7.2 1.1.1 2.2.2 3.4.3 1 .1 1.9.2 2.9.3 1.7.2 3.5.3 5.3.5 2.2.2 4.4.4 6.7.6 1.9.2 3.8.3 5.7.5.5 0 .9.1 1.4.1.5 0 1 .1 1.4.1 1.9.2 3.8.3 5.8.4 2.4.2 4.8.3 7.2.5.7 0 1.4.1 2.2.1.7 0 1.4.1 2.2.1 1.6.1 3.3.2 4.9.3 1.4.1 2.7.2 4.1.2h2c1.5.1 3 .2 4.5.2.6 0 1.2 0 1.8.1h1.5c1.4.1 2.7.1 4.1.2h2.9c.7 0 1.4 0 2.1.1 1.1 0 2.3.1 3.4.1h10.8c2.5.1 5 .1 7.6.1h26.1c2 0 4 0 6.1-.1h11.2c1.8 0 3.5-.1 5.2-.1h6.9c1.6 0 3.2-.1 4.8-.2.8 0 1.6-.1 2.4-.1h1.6c.6 0 1.3 0 1.9-.1h2.2c.7 0 1.4-.1 2.2-.1.5 0 1 0 1.5-.1h.4c1.1 0 2.2-.1 3.4-.2.7 0 1.4-.1 2.1-.1h.4c.4 0 .7 0 1.1-.1h.6c1.2-.1 2.3-.1 3.5-.2.9-.1 1.8-.1 2.7-.2.6 0 1.3-.1 1.9-.1.5 0 1-.1 1.4-.1h.4c1.7-.1 3.5-.2 5.2-.3 1.5-.1 3-.2 4.6-.3h1c.3 0 .7 0 1-.1h.3c2.3-.2 4.7-.4 7-.6 2.1-.2 4.2-.3 6.3-.5.2 0 .4 0 .6-.1.5 0 1-.1 1.5-.1.7-.1 1.4-.1 2.2-.2.8-.1 1.6-.1 2.4-.2l2.7-.3c1.3-.1 2.6-.3 3.9-.4 1.7-.2 3.4-.3 5.1-.5.8-.1 1.5-.2 2.3-.2.4 0 .8-.1 1.1-.1.4 0 .7-.1 1.1-.1h.2c.3 0 .5-.1.7-.1.3 0 .6-.1.8-.1.7-.1 1.4-.2 2.1-.2l2.7-.3c.2 0 .4 0 .6-.1.2 0 .4 0 .7-.1 1.6-.2 3.2-.4 4.7-.6 1.5-.2 3-.4 4.6-.6h.3l4.5-.6c1.5-.2 2.9-.4 4.4-.6l.6-.1c1.5-.2 2.9-.4 4.4-.6l4.8-.7c1.5-.2 2.9-.4 4.4-.7l9.1-1.4c30.4-4.9 59.3-11.1 86.2-18.3 35.2-9.5 67.1-21 94.7-34V567.6c.4-96.9-38.9-184.5-102.3-248zM961.2 1037c-62 0-118.6-44.7-161.5-106-49.5-70.9-80.7-163.9-80.7-235.6 0-133.8 108.4-168.2 242.2-168.2s242.2 34.4 242.2 168.2c0 71.7-31.2 164.8-80.7 235.6-42.9 61.3-99.5 106-161.5 106zm50.1-222.7s75.3 13 75.3-65.1c0-.1-75.3-3-75.3 65.1zm-175.5-65.2c0 78.2 75.3 65.1 75.3 65.1 0-68-75.3-65.1-75.3-65.1z"/>
        <ellipse class="st1" cx="955.9" cy="320.6" rx="117.5" ry="49.6"/>
        <path class="st1" d="M1666.9 1303.4c-130.9 120.4-397 202.8-704.1 202.8-318.2 0-592.5-88.5-717.8-216.1 9.5-23.4 27-44 51.8-57.1L603 1071.5c48.8 22.9 110.7 41 181 52.3 1.8.3 3.6.6 5.3.8 2.8.4 5.6.9 8.4 1.3 3.1.5 6.2.9 9.3 1.3 2.3.3 4.7.6 7 .9l4.8.6c.5.1 1 .1 1.5.2 1.9.3 3.9.5 5.8.7.2 0 .3 0 .5.1h.5c.9.1 1.8.2 2.8.3l3 .3c.6.1 1.3.1 1.9.2.5 0 .9.1 1.4.1l3.3.3c.2 0 .5.1.7.1 2 .2 3.9.4 5.9.6.8.1 1.7.2 2.5.3 1.1.1 2.3.2 3.4.3 1.8.2 3.6.3 5.4.5.9.1 1.8.2 2.7.2l7.2.6h.5c2.9.2 5.8.4 8.8.6 1 .1 1.9.1 2.9.2s1.9.1 2.9.2h1.2c.4 0 .8 0 1.3.1h.7c.8 0 1.7.1 2.6.1h.4c.6 0 1.3.1 1.9.1h.8c1 .1 2 .1 3 .2h2.4c2 .1 3.9.2 5.9.3h2.5c1 0 2.1.1 3.1.1h2.5c.8 0 1.7.1 2.5.1 1.1 0 2.3.1 3.4.1h7.1c.7 0 1.4 0 2.1.1h35.5c2 0 4 0 6.1-.1h11.3c1 0 2 0 3.1-.1H992c.5 0 1.1 0 1.6-.1.8 0 1.5 0 2.2-.1.8 0 1.6-.1 2.4-.1h6.4c.4 0 .9 0 1.3-.1h2.6c.5 0 .9 0 1.4-.1 1.2 0 2.3-.1 3.4-.2h.4c.5 0 1.1 0 1.6-.1h.1c1.5-.1 3-.1 4.4-.2 2.7-.2 5.4-.3 8-.5.9 0 1.8-.1 2.7-.2.9-.1 1.7-.1 2.6-.2.9-.1 1.7-.1 2.6-.2h.4c.3 0 .7 0 1-.1h.3c13.7-1 27.2-2.3 40.4-3.8l3-.3c.2 0 .4 0 .7-.1 1.6-.2 3.2-.4 4.7-.6 1.5-.2 3.1-.4 4.6-.6h.3l4.5-.6c1.5-.2 2.9-.4 4.4-.6l.6-.1c1.5-.2 2.9-.4 4.4-.6l4.8-.7c1.5-.2 2.9-.4 4.4-.7l9.1-1.4c70.3-11.3 132.2-29.4 181-52.3l306.3 161.6c29.4 16.1 48.5 42.1 56.3 70.9z"/>
        <path class="st1" d="M961.2 1136.8v369.4"/>
        <path class="st1" d="M784 1123.8l-284.1 312"/>
        <path class="st1" d="M1142 1123.8l288.6 310.3"/>
        <path class="st1" d="M911.1 814.3s-75.3 13-75.3-65.1c0-.1 75.3-3 75.3 65.1z"/>
        <path class="st1" d="M1086.6 749.1c0 78.2-75.3 65.1-75.3 65.1 0-68 75.3-65.1 75.3-65.1z"/>
        <path class="st1" d="M1086.6 749.1c0 78.2-75.3 65.1-75.3 65.1 0-68 75.3-65.1 75.3-65.1z"/>
        <path class="st1" d="M911.1 814.3s-75.3 13-75.3-65.1c0-.1 75.3-3 75.3 65.1z"/>
        <path class="st1" d="M961.2 527.2c-133.8 0-242.2 34.4-242.2 168.2 0 71.7 31.2 164.8 80.7 235.6 42.9 61.3 99.4 106 161.5 106s118.6-44.7 161.5-106c49.5-70.9 80.7-163.9 80.7-235.6 0-133.8-108.5-168.2-242.2-168.2zm125.4 221.9c0 78.2-75.3 65.1-75.3 65.1 0-68 75.3-65.1 75.3-65.1zm-175.5 65.2s-75.3 13-75.3-65.1c0-.1 75.3-3 75.3 65.1z"/>
        <path class="st1" d="M1212.4 1090.7c0 5-.2 9.9-.6 14.7-26.9 7.3-55.8 13.5-86.2 18.3l-9.1 1.4c-1.5.2-2.9.4-4.4.7l-4.8.7c-1.4.2-2.9.4-4.4.6l-.6.1c-1.4.2-2.9.4-4.4.6l-4.5.6h-.3c-1.5.2-3 .4-4.6.6-1.6.2-3.1.4-4.7.6-.2 0-.4.1-.7.1-.2 0-.4 0-.6.1l-2.7.3c-.7.1-1.4.2-2.1.2-.3 0-.6.1-.8.1-.3 0-.5.1-.7.1h-.2c-.4 0-.7.1-1.1.1-.4 0-.8.1-1.1.1-.8.1-1.5.2-2.3.2-1.7.2-3.4.4-5.1.5-1.3.1-2.6.3-3.9.4l-2.7.3c-.8.1-1.6.1-2.4.2-.7.1-1.4.1-2.2.2-.5 0-1 .1-1.5.1-.2 0-.4 0-.6.1-2.1.2-4.2.4-6.3.5-2.3.2-4.7.4-7 .6h-.3c-.3 0-.7.1-1 .1h-1c-1.5.1-3 .2-4.6.3-1.7.1-3.5.2-5.2.3h-.4c-.5 0-1 .1-1.4.1-.6 0-1.3.1-1.9.1-.9.1-1.8.1-2.7.2-1.1.1-2.3.1-3.5.2h-.6c-.4 0-.7 0-1.1.1h-.4c-.7 0-1.4.1-2.1.1-1.1 0-2.2.1-3.4.2h-.4c-.5 0-1 0-1.5.1-.7 0-1.4.1-2.2.1h-2.2c-.6 0-1.3.1-1.9.1h-1.6c-.8 0-1.6.1-2.4.1-1.6.1-3.2.1-4.8.2h-6.9c-1.7 0-3.5.1-5.2.1h-11.2c-2 0-4 0-6.1.1h-26.4c-2.5 0-5-.1-7.6-.1H919c-1.1 0-2.3-.1-3.4-.1-.7 0-1.4 0-2.1-.1h-2.9c-1.4-.1-2.7-.1-4.1-.2h-1.6c-.6 0-1.2-.1-1.8-.1-1.5-.1-3-.1-4.5-.2h-2c-1.4-.1-2.7-.1-4.1-.2-1.7-.1-3.3-.2-4.9-.3-.7 0-1.4-.1-2.2-.1-.7 0-1.4-.1-2.2-.1-2.4-.2-4.8-.3-7.2-.5-1.9-.1-3.8-.3-5.8-.4-.5 0-1-.1-1.4-.1-.5 0-1-.1-1.4-.1-1.9-.1-3.8-.3-5.7-.5-2.2-.2-4.5-.4-6.7-.6-1.8-.2-3.5-.3-5.3-.5-1-.1-1.9-.2-2.9-.3-1.1-.1-2.3-.2-3.4-.3-.6-.1-1.2-.1-1.7-.2-.4 0-.8-.1-1.2-.1l-5.4-.6-3-.3c-.3 0-.6-.1-1-.1-.6-.1-1.3-.1-1.9-.2h-.4c-.2 0-.3 0-.5-.1-.3 0-.7-.1-1-.1l-4.8-.6c-.5-.1-1-.1-1.5-.2l-4.8-.6c-2.3-.3-4.7-.6-7-.9-3.1-.4-6.2-.9-9.3-1.3-2.8-.4-5.6-.8-8.4-1.3-1.8-.3-3.6-.6-5.3-.8-26.4-4.2-51.6-9.4-75.3-15.5-.6-5.8-.9-11.7-.9-17.6 0-64.1 34.9-121.4 89.7-159.7 42.9 61.3 99.4 106 161.5 106s118.6-44.7 161.5-106c54.8 37.9 89.7 95.3 89.7 159.4z"/>
    </g>
</svg>
