<svg xmlns="http://www.w3.org/2000/svg" viewBox="0 0 1920 1920">
    <style>
        .st0{fill:#fff}.st1{fill:none;stroke:#000;stroke-width:50;stroke-linecap:round;stroke-linejoin:round;stroke-miterlimit:10}
    </style>
    <ellipse class="st0" cx="960" cy="285.1" rx="68.1" ry="68.1" id="Layer_11"/>
    <path class="st0" d="M960 492.9c-154.5 0-279.8 125.3-279.8 279.8h559.6c0-154.6-125.3-279.8-279.8-279.8z" id="Layer_12"/>
    <path class="st0" d="M1584 981.7c-61.7-61.7-146.9-99.8-241-99.8h11.2c0-60.3-48.9-109.2-109.2-109.2H675c-30.2 0-57.5 12.2-77.2 32-19.8 19.8-32 47.1-32 77.2H577c-188.3 0-340.9 152.6-340.9 340.9h1447.7c.1-94.2-38.1-179.4-99.8-241.1z" id="Layer_13"/>
    <path class="st0" d="M492.3 1222.7c21.9 42 73.9 79.1 145.7 107.1 85.1 33.1 198 53.2 322 53.2 228.6 0 419.8-68.6 467.7-160.3H492.3z" id="Layer_14"/>
    <path class="st0" d="M1279.5 1329.8l203.6 281.9-57.9-389c-21.9 42-73.8 79.1-145.7 107.1zm-787.2-107.1l-57.9 389L638 1329.8c-71.8-28-123.8-65.1-145.7-107.1zM245 1672.2v30.8h189.5v-91.4h-129c-33.4.1-60.5 27.2-60.5 60.6zm1369.5-60.5h-128.9v91.4H1675v-30.8c0-33.5-27.1-60.6-60.5-60.6z" id="Layer_16"/>
    <g id="STROKES">
        <path class="st1" d="M1239.8 772.6H680.2c0-154.5 125.3-279.8 279.8-279.8 154.5.1 279.8 125.3 279.8 279.8z"/>
        <path class="st1" d="M1354.2 881.8H565.8c0-30.1 12.2-57.5 32-77.2 19.8-19.8 47.1-32 77.2-32h570c60.3 0 109.2 48.9 109.2 109.2z"/>
        <path class="st1" d="M960 492.9V353.2"/>
        <circle class="st1" cx="960" cy="285.1" r="68.1"/>
        <path class="st1" d="M1683.9 1222.7H236.1c0-188.3 152.6-340.9 340.9-340.9h766c94.1 0 179.3 38.2 241 99.8 61.7 61.8 99.9 147 99.9 241.1z"/>
        <path class="st1" d="M1427.7 1222.7c-47.9 91.7-239.1 160.3-467.7 160.3s-419.8-68.6-467.7-160.3h935.4z"/>
        <path class="st1" d="M492.3 1222.7l-57.8 389L638 1329.8"/>
        <path class="st1" d="M1427.5 1222.7l58 390.5-204.3-283"/>
        <path class="st1" d="M245 1703.1h189.5v-91.4h-129c-33.4 0-60.6 27.1-60.6 60.6v30.8z"/>
        <path class="st1" d="M1485.5 1703.1H1675v-30.8c0-33.4-27.1-60.6-60.6-60.6h-128.9v91.4z"/>
        <path class="st1" d="M851.7 1052.3h216.6"/>
        <path class="st1" d="M523.7 1052.3h116.8"/>
        <path class="st1" d="M1279.5 1052.3h116.8"/>
    </g>
</svg>
