<svg xmlns="http://www.w3.org/2000/svg" viewBox="0 0 1920 1920">
    <style>
        .st0{fill:#fff}.st1{fill:none;stroke:#000;stroke-width:50;stroke-linecap:round;stroke-linejoin:round;stroke-miterlimit:10}
    </style>
    <path class="st0" d="M960 217c-228.9 0-419.4 129.1-460 299.7C623.5 476 773.9 451.2 936.8 449h.9c3.5 0 7.1-.1 10.6-.1h23.4c3.5 0 7.1.1 10.6.1h.9c162.9 2.2 313.3 26.9 436.8 67.7C1379.4 346.1 1188.9 217 960 217z" id="Layer_7"/>
    <path class="st0" d="M1392.7 516.7c-115.8-40.6-256.8-65.4-409.5-67.7h-.9c-3.5 0-7.1-.1-10.6-.1-3.9 0-7.8-.1-11.7-.1s-7.8 0-11.7.1c-3.5 0-7.1.1-10.6.1h-.9c-152.7 2.3-293.7 27-409.5 67.7-186 65.2-307 171.3-307 291.1 0-123.2 331.2-223.1 739.7-223.1s739.7 99.9 739.7 223.1c0-119.8-121-225.9-307-291.1z" id="Layer_8"/>
    <path class="st0" d="M960 584.7c-408.5 0-739.7 99.9-739.7 223.1 0 85.5 159.6 133.8 393.8 155.4v-161c0-44.7 154.8-80.9 345.9-80.9s345.9 36.2 345.9 80.9v161c234.2-21.5 393.8-69.9 393.8-155.4 0-123.2-331.2-223.1-739.7-223.1z" id="Layer_9"/>
    <path class="st0" d="M960 721.3c-191 0-345.9 36.2-345.9 80.9v831.7c0 38.2 31 69.2 69.2 69.2s69.2-31 69.2-69.2v-167.3c0 38.2 31 69.2 69.2 69.2s69.2-31 69.2-69.2V1169c0 38.2 31 69.2 69.2 69.2s69.2-31 69.2-69.2v184.9c0 38.2 31 69.2 69.2 69.2s69.2-31 69.2-69.2v203.2c0 38.2 31 69.2 69.2 69.2s69.2-31 69.2-69.2V802.2c-.2-44.7-155.1-80.9-346.1-80.9z" id="Layer_10"/>
    <g id="STROKES">
        <path class="st1" d="M1699.7 807.8c0 85.5-159.6 133.8-393.8 155.4v-161c0 31.5-54.3 45.1-138.4 50.9-40.2 2.8-87.2 3.8-138.4 4.2-22.3.2-45.5.2-69.2.2s-46.8-.2-69.2-.5c-51.1-.9-98.1-2.8-138.4-6.4-84-7.4-138.4-22-138.4-48.4v161c-234.2-21.5-393.8-69.9-393.8-155.4 0-123.2 331.2-223.1 739.7-223.1s739.9 99.9 739.9 223.1z"/>
        <path class="st1" d="M1305.9 802.2c0 31.5-54.3 45.1-138.4 50.9-40.2 2.8-87.2 3.8-138.4 4.2-22.3.2-45.5.2-69.2.2s-46.8-.2-69.2-.5c-51.1-.9-98.1-2.8-138.4-6.4-84-7.4-138.4-22-138.4-48.4 0-44.7 154.8-80.9 345.9-80.9s346.1 36.2 346.1 80.9z"/>
        <path class="st1" d="M1699.7 807.8c0 85.5-159.6 133.8-393.8 155.4v-161c0 31.5-54.3 45.1-138.4 50.9-40.2 2.8-87.2 3.8-138.4 4.2-22.3.2-45.5.2-69.2.2s-46.8-.2-69.2-.5c-51.1-.9-98.1-2.8-138.4-6.4-84-7.4-138.4-22-138.4-48.4v161c-234.2-21.5-393.8-69.9-393.8-155.4 0-119.9 121-226 306.9-291.2 119.7-42 266.2-67 424.7-67.8h16c158.5.8 305 25.8 424.7 67.8 186.3 65.3 307.3 171.4 307.3 291.2z"/>
        <path class="st1" d="M1420 516.7c-129.3-42.7-288.2-67.8-460-67.8S629.3 474 500 516.7C540.6 346.1 731.1 217 960 217s419.4 129.1 460 299.7z"/>
        <path class="st1" d="M1305.9 802.2v754.9c0 38.2-31 69.2-69.2 69.2s-69.2-31-69.2-69.2v-203.2c0 38.2-31 69.2-69.2 69.2s-69.2-31-69.2-69.2V1169c0 38.2-31 69.2-69.2 69.2s-69.2-31-69.2-69.2v297.6c0 38.2-31 69.2-69.2 69.2s-69.2-31-69.2-69.2v167.3c0 38.2-31 69.2-69.2 69.2s-69.2-31-69.2-69.2V802.2c0 26.5 54.3 41 138.4 48.4 40.2 3.6 87.2 5.5 138.4 6.4 22.3.4 45.5.5 69.2.5s46.8 0 69.2-.2c51.1-.4 98.1-1.4 138.4-4.2 84-5.8 138.4-19.4 138.4-50.9z"/>
        <path class="st1" d="M752.5 1345.1V928.5"/>
        <path class="st1" d="M1167.5 1222.7v-171.9"/>
        <path class="st1" d="M728.3 375.3s21.2-39.4 82.5-47.9"/>
        <path class="st1" d="M948.3 448.9c-3.5 0-7.1.1-10.6.1 3.5 0 7.1-.1 10.6-.1z"/>
        <path class="st1" d="M982.3 449c-3.5 0-7.1-.1-10.6-.1 3.5 0 7.1.1 10.6.1z"/>
        <path class="st1" d="M960 448.8h-11.7c3.9.1 7.8.1 11.7 0 3.9 0 7.8 0 11.7.1H968c-2.6 0-5.3-.1-8-.1z"/>
        <path class="st1" d="M983.2 449h-.9.9z"/>
        <path class="st1" d="M936.8 449h.9-.9z"/>
    </g>
</svg>
