<svg xmlns="http://www.w3.org/2000/svg" viewBox="0 0 1920 1920">
    <style>
        .st0{fill:#fff}.st1{fill:none;stroke:#231f20;stroke-width:50;stroke-linecap:round;stroke-linejoin:round;stroke-miterlimit:10}
    </style>
    <path class="st0" d="M1333.8 817.1c.1 25.2-2.3 45.9-11.4 35.8-16.2-17.9-45.6-44.8-42.5-109.5.7-13.8 2.9-29.4 6.9-46.9-19.1-12.7-23.3-6.4-26.5 9.5-3.2 15.9-27.6 61.5-62.6 22.3-39.2-35 6.4-59.4 22.3-62.6 15.9-3.2 22.3-7.4 9.5-26.5-17.6 4.1-33.1 6.3-46.9 7-64.7 3.2-91.6-26.3-109.5-42.5-10.1-9.1 10.7-11.4 35.8-11.4-43-9.7-90.4-26.3-90.4-26.3l-546.2 858s4.2 4.2 14.9 14.8c10.6 10.6 14.9 14.8 14.9 14.8l858-546.2c0 .1-16.6-47.3-26.3-90.3z" id="Layer_3"/>
    <g id="STROKES">
        <g id="XMLID_1_">
            <path class="st1" d="M487.2 1438.8c5-5.9 640.3-758.3 695.5-792.7"/>
            <path class="st1" d="M1197.8 728.3c-39.2-35 6.4-59.4 22.3-62.6 15.9-3.2 22.3-7.4 9.5-26.5-17.6 4.1-33.1 6.3-46.9 7-64.7 3.2-91.6-26.3-109.5-42.5-10.1-9.1 10.7-11.5 35.8-11.4-43-9.7-90.5-26.3-90.5-26.3l-546.2 858s4.2 4.2 14.9 14.8"/>
            <path class="st1" d="M1173.4 595.7s-35.2-3.4-64.4-3.4c28.3 6.3 54.7 9.7 64.4 3.4z"/>
            <path class="st1" d="M1333.8 817.1c-.1-29.2-3.4-64.4-3.4-64.4-6.3 9.6-2.9 36.1 3.4 64.4z"/>
            <path class="st1" d="M1197.8 728.3c35 39.2 59.4-6.4 62.6-22.3 3.2-15.9 7.4-22.3 26.5-9.5-4.1 17.5-6.3 33.1-7 46.9-3.2 64.7 26.3 91.6 42.5 109.5 9.1 10.1 11.5-10.7 11.4-35.8 9.7 43 26.3 90.4 26.3 90.4l-858 546.2s-4.2-4.2-14.9-14.8"/>
            <path class="st1" d="M487.2 1438.9c5.9-5 758.4-640.3 792.8-695.5"/>
            <path class="st1" d="M396.9 1528.1l90.3-89.2"/>
            <path class="st1" d="M1197.8 728.3s88.6-88.7 211.4-211.4c32.3-32.3 80.3-62.7 131.4-11.6 49.6 49.6 4.5 114.8-50.7 127.5"/>
        </g>
    </g>
</svg>
