<svg xmlns="http://www.w3.org/2000/svg" viewBox="0 0 1920 1920">
    <style>
        .st0{fill:#fff}.st1{fill:none;stroke:#231f20;stroke-width:50;stroke-linecap:round;stroke-linejoin:round;stroke-miterlimit:10}
    </style>
    <path class="st0" d="M1641.6 723.1c.2-1 .4-1.5.4-1.5-150-136.5-264-345-264-345-301-44.4-402.9-123.6-416.4-135.1-1.1-.9-1.6-1.4-1.6-1.4s-128 85.5-416 150C427.4 635 295.2 739.7 287.8 745.4c-.2.2-.3.2-.3.2 49.5 138 10.5 432 10.5 432 .2.2.3.4.5.6 191.6 215.8 250.1 323.6 260.3 343.9 1.2 2.4 1.7 3.6 1.7 3.6 268.5 46.5 418.1 126 418.1 126 229.1-136.5 409.9-133.5 409.9-133.5.5-1.1 1.1-2.2 1.7-3.3 106.4-208.2 251.8-353.7 251.8-353.7-35.4-274.4-4.1-422.1-.4-438.1zM960 995c-6.8 0-13.2-2-18.6-5.3-9.9-6.2-16.4-17.2-16.4-29.7 0-19.3 15.7-35 35-35s35 15.7 35 35c0 4.5-.9 8.9-2.4 12.8-2.8 7-7.7 12.9-14 16.8-5.4 3.4-11.8 5.4-18.6 5.4z" id="Layer_4"/>
    <g id="STROKES">
        <g id="XMLID_1_">
            <path class="st1" d="M995 960c0-19.3-15.7-35-35-35s-35 15.7-35 35c0 12.5 6.5 23.5 16.4 29.7 5.4 3.4 11.8 5.3 18.6 5.3s13.2-2 18.6-5.3c6.3-3.9 11.2-9.8 14-16.8 1.5-4 2.4-8.4 2.4-12.9z"/>
            <path class="st1" d="M544 390.1S905.5 900.4 925 925"/>
            <path class="st1" d="M960 925c8-56.1 0-684.9 0-684.9s-128 85.5-416 150"/>
            <path class="st1" d="M960 240.1s.5.5 1.6 1.4C975.1 253 1077 332.2 1378 376.6c0 0-376.7 543.5-383 553.5"/>
            <path class="st1" d="M1378 376.6s114 208.5 264 345c0 0-615.9 223.3-646.9 238.4"/>
            <path class="st1" d="M1641.6 723.1c-3.7 16.1-35 163.8.3 438 0 0-567.9-160.5-646.9-187.5"/>
            <path class="st1" d="M1641.9 721.6l-.3 1.5"/>
            <path class="st1" d="M1641.9 1161.1s-145.5 145.5-251.8 353.7c-.6 1.1-1.1 2.2-1.7 3.3 0 0-356.2-463.7-409.9-528.4"/>
            <path class="st1" d="M1388.5 1518.1s-180.8-3-409.9 133.5c0 0-20.6-551.3-18.6-656.6"/>
            <path class="st1" d="M978.6 1651.6s-149.6-79.5-418.1-126c0 0 329.8-450.8 380.9-535.9"/>
            <path class="st1" d="M560.5 1525.6s-.5-1.2-1.7-3.6c-10.2-20.3-68.7-128.1-260.3-343.9-.2-.2-.3-.4-.5-.6 0 0 592-187.4 627-202.5"/>
            <path class="st1" d="M298 1177.6s39-294-10.5-432c0 0 616.5 205.3 637.5 214.4"/>
            <path class="st1" d="M287.5 745.6s.1-.1.3-.2c7.3-5.7 139.5-110.3 256.2-355.2"/>
            <path class="st1" d="M513 356l31 34.1"/>
            <path class="st1" d="M254.8 733.5l33 11.9 10.4 3.7"/>
            <path class="st1" d="M1639.4 724l2.2-.9 40.5-16.5"/>
            <path class="st1" d="M1641.9 1161.1l44.5 12.2"/>
            <path class="st1" d="M1384.4 1506.9l5.7 7.9 21.5 29.4"/>
            <path class="st1" d="M1404.5 337.3l-27 37.4"/>
            <path class="st1" d="M961.4 200.1l.2 41.4v4.6"/>
            <path class="st1" d="M975.4 1652.3l.2 46"/>
            <path class="st1" d="M560.5 1519.8l-1.7 2.2-26.7 34"/>
            <path class="st1" d="M300.5 1177.6l-2 .5-42.3 11.7"/>
        </g>
    </g>
</svg>
