<svg xmlns="http://www.w3.org/2000/svg" viewBox="0 0 1920 1920">
    <style>
        .st0{fill:#fff}.st1{fill:none;stroke:#231f20;stroke-width:50;stroke-linecap:round;stroke-linejoin:round;stroke-miterlimit:10}
    </style>
    <path class="st0" d="M1431.7 610.3l1.2-.2c0-37.9 30.2-68.6 67.6-68.6 37.3 0 67.5 30.7 67.5 68.6 0-37.9 30.2-68.6 67.6-68.6 36.4 0 66.1 29.2 67.5 65.8-4.7.5-293.1 32.8-675.4 38.5v-1.4c0-4.8-.5-9.5-1.4-14l1.4-.3c0-37.9 30.2-68.6 67.5-68.6 34 0 62.1 25.5 66.8 58.7l.7-.1c0-37.9 30.2-68.6 67.5-68.6s67.6 30.7 67.6 68.6h.1c1.5-36.5 31.2-65.6 67.5-65.6 32.9 0 60.4 24 66.3 55.8zm-405.6 20.1c-6.4-31.2-33.5-54.6-66.1-54.6s-59.8 23.4-66.1 54.6c-.9 4.5-1.4 9.2-1.4 14v1.4c22.2.3 44.8.6 67.6.7 22.8-.1 45.3-.4 67.6-.7v-1.4c-.1-4.8-.6-9.5-1.6-14zm-268.8-10.3c0-37.9-30.2-68.6-67.5-68.6s-67.5 30.7-67.5 68.6h-.1c-1.5-36.5-31.2-65.6-67.5-65.6-33 0-60.5 24-66.4 55.8l-1.2-.2c0-37.9-30.2-68.6-67.5-68.6S352 572.2 352 610.1c0-37.9-30.2-68.6-67.5-68.6-36.4 0-66.1 29.2-67.5 65.8 4.8.5 293.2 32.8 675.4 38.5v-1.4c0-4.8.5-9.5 1.4-14l-1.4-.3c0-37.9-30.2-68.6-67.5-68.6-34 0-62.1 25.5-66.9 58.7l-.7-.1z" id="Layer_5"/>
    <path class="st0" d="M1703.1 610.1v367c-361.2 0-607.9 369.8-607.9 369.8H824.8S578.2 977.1 216.9 977.1v-367c0-.9 0-1.9.1-2.8 4.8.5 293.2 32.8 675.4 38.5 22.2.3 44.8.6 67.6.7 22.8-.1 45.3-.4 67.6-.7 382.3-5.7 670.7-38 675.4-38.5 0 .9.1 1.8.1 2.8z" id="Layer_6"/>
    <g id="STROKES">
        <g id="XMLID_1_">
            <path class="st1" d="M1027.6 645.8c-22.2.3-44.7.6-67.6.7-22.8-.1-45.3-.4-67.6-.7-382.3-5.7-670.6-38-675.4-38.5h-.1v369.8c361.2 0 607.9 369.8 607.9 369.8h270.4s246.6-369.8 607.9-369.8V607.3h-.1c-4.8.5-293.2 32.8-675.4 38.5z"/>
            <path class="st1" d="M352 610.1c0-37.9-30.2-68.6-67.5-68.6-36.4 0-66.1 29.2-67.5 65.8 0 .9-.1 1.9-.1 2.8"/>
            <path class="st1" d="M487.1 610.1c0-37.9-30.2-68.6-67.5-68.6S352 572.2 352 610.1"/>
            <path class="st1" d="M622.2 623.1c0-1 0-2-.1-3-1.5-36.5-31.2-65.6-67.5-65.6-33 0-60.5 24-66.4 55.8-.8 4.1-1.2 8.4-1.2 12.8"/>
            <path class="st1" d="M757.3 620.1c0-37.9-30.2-68.6-67.5-68.6s-67.5 30.7-67.5 68.6"/>
            <path class="st1" d="M892.5 630.1c0-37.9-30.2-68.6-67.5-68.6-34 0-62.1 25.5-66.9 58.7-.5 3.2-.7 6.5-.7 9.9"/>
            <path class="st1" d="M1027.6 644.4c0-4.8-.5-9.5-1.4-14-6.4-31.2-33.5-54.6-66.1-54.6s-59.8 23.4-66.1 54.6c-.9 4.5-1.4 9.2-1.4 14"/>
            <path class="st1" d="M1162.7 630.1c0-3.4-.2-6.7-.7-9.9-4.7-33.2-32.8-58.7-66.8-58.7-37.3 0-67.5 30.7-67.5 68.6"/>
            <path class="st1" d="M1297.8 620.1c0-37.9-30.2-68.6-67.6-68.6-37.3 0-67.5 30.7-67.5 68.6"/>
            <path class="st1" d="M1432.8 623.1c0-4.4-.4-8.6-1.2-12.8-5.9-31.8-33.4-55.8-66.4-55.8-36.3 0-65.9 29.1-67.5 65.6 0 1-.1 2-.1 3"/>
            <path class="st1" d="M1567.9 610.1c0-37.9-30.2-68.6-67.5-68.6s-67.6 30.7-67.6 68.6"/>
            <path class="st1" d="M1703.1 610.1c0-.9 0-1.9-.1-2.8-1.4-36.6-31.1-65.8-67.5-65.8-37.3 0-67.6 30.7-67.6 68.6"/>
        </g>
    </g>
</svg>
