<svg xmlns="http://www.w3.org/2000/svg" viewBox="0 0 1920 1920">
    <style>
        .st0{fill:#fff}.st1{fill:none;stroke:#231f20;stroke-width:50;stroke-linecap:round;stroke-linejoin:round;stroke-miterlimit:10}
    </style>
    <path class="st0" d="M913.1 525.9c29.3 1.3 46.9 1.9 46.9 1.9s461-15 608-66c60 189 144 1083.1 144 1083.1l-669.1 147-83-465-83 465-669.1-147s84-894.1 144-1083.1c18.7 6.5 42.5 12.4 69.8 17.8 81 15.9 192.7 27.1 293.4 34.7 80 5.9 153 9.6 198.1 11.6z" id="Layer_7"/>
    <path class="st0" d="M1550 341.8s-319 63-590 60C762.2 404 538.9 371 432.7 353c-39.4-6.7-62.7-11.3-62.7-11.3-30 42-18 120-18 120 18.7 6.5 42.5 12.4 69.8 17.8 81 15.9 192.7 27.1 293.4 34.7 80 6 152.9 9.7 198 11.7 29.3 1.3 46.9 1.9 46.9 1.9s461-15 608-66c-.1 0 11.9-78-18.1-120z" id="Layer_8"/>
    <g id="STROKES">
        <g id="XMLID_1_">
            <path class="st1" d="M960 1226.8l-83 465-669.1-147s84-894.1 144-1083.1"/>
            <path class="st1" d="M1568 461.8s12-78-18-120c0 0-319 63-590 60C762.2 404 538.9 371 432.7 353c-39.4-6.7-62.7-11.3-62.7-11.3-30 42-18 120-18 120 18.7 6.5 42.5 12.4 69.8 17.8 81 15.9 192.7 27.1 293.4 34.7 80 6 152.9 9.7 198 11.7 29.3 1.3 46.9 1.9 46.9 1.9s460.9-15 607.9-66z"/>
            <path class="st1" d="M960 1226.8l83 465 669.1-147s-84-894.1-144-1083.1"/>
            <path class="st1" d="M919 550.6L931 960h93"/>
            <path class="st1" d="M432.7 353l-11 126.5"/>
            <path class="st1" d="M529.8 371.5l-10.1 117"/>
            <path class="st1" d="M627 390l-10 115.9"/>
            <path class="st1" d="M724.2 408.5l-9.1 105.7"/>
            <path class="st1" d="M821.4 427l-7.8 90.7"/>
            <path class="st1" d="M913.1 425.1v100.8"/>
            <path class="st1" d="M1490.6 360.8l9.1 106.2"/>
            <path class="st1" d="M1393.1 376.1l8.6 99.9"/>
            <path class="st1" d="M1295.6 390.4l8.8 102.9"/>
            <path class="st1" d="M1197.2 396l9.2 105.7"/>
            <path class="st1" d="M1100.1 414.5l7.8 90.7"/>
            <path class="st1" d="M1008.3 412.5v111.1"/>
        </g>
    </g>
</svg>
