<svg xmlns="http://www.w3.org/2000/svg" viewBox="0 0 1920 1920">
    <style>
        .st0{fill:#fff}.st1{fill:none;stroke:#231f20;stroke-width:50;stroke-linecap:round;stroke-linejoin:round;stroke-miterlimit:10}
    </style>
    <path class="st0" d="M1703.1 662.8v718.5c-38.7-38.7-103.3-38.2-141.9.4-38.7 38.7-33.7 106.5 5 145.2h-330.5c0-56.7-46-102.7-102.7-102.7s-102.7 46-102.7 102.7h-43.6v-330s-36.2-57-73.6 0v330H718c0-56.7-46-102.7-102.7-102.7s-102.7 46-102.7 102.7H216.9v-507c54.7 0 99-44.3 99-99s-44.3-99-99-99v-159h398.4c0 54.7 44.3 99 99 99s99-44.3 99-99h889.8zm-157.4 159c0-54.7-44.3-99-99-99s-99 44.3-99 99 44.3 99 99 99 99-44.3 99-99zm-172.6 297c0-54.7-44.3-99-99-99s-99 44.3-99 99 44.3 99 99 99 99-44.3 99-99zM902.8 960c0-54.7-44.3-99-99-99s-99 44.3-99 99 44.3 99 99 99 99-44.3 99-99zm-340.2 257.8c0-54.7-44.3-99-99-99s-99 44.3-99 99 44.3 99 99 99 99-44.3 99-99z" id="Layer_2"/>
    <path class="st0" d="M1703.1 551.8v111H216.9v-111z" id="Layer_3"/>
    <path class="st0" d="M1446.7 722.8c54.7 0 99 44.3 99 99s-44.3 99-99 99-99-44.3-99-99 44.3-99 99-99zm114.4 658.9c-38.7 38.7-33.7 106.5 5 145.2H1703v-145.6c-38.6-38.7-103.2-38.3-141.9.4zm-428.2 42.5c-56.7 0-102.7 46-102.7 102.7h205.4c0-56.7-46-102.7-102.7-102.7zm42.2-305.4c0 54.7 44.3 99 99 99s99-44.3 99-99-44.3-99-99-99-99 44.4-99 99zm-559.8 305.4c-56.7 0-102.7 46-102.7 102.7H718c0-56.7-46-102.7-102.7-102.7zm-250.8-206.4c0 54.7 44.3 99 99 99s99-44.3 99-99-44.3-99-99-99-99 44.4-99 99zM704.8 960c0 54.7 44.3 99 99 99s99-44.3 99-99-44.3-99-99-99-99 44.3-99 99zm9.5-198.2c54.7 0 99-44.3 99-99h-198c0 54.7 44.4 99 99 99zm-497.4 258c54.7 0 99-44.3 99-99s-44.3-99-99-99v198z" id="Layer_4"/>
    <g id="STROKES">
        <g id="XMLID_1_">
            <path class="st1" d="M216.9 662.8H1703v864.1H986.6v-330s-36.2-57-73.6 0v330H216.9V662.8z"/>
            <path class="st1" d="M216.9 662.8v-111h1486.2v111"/>
            <path class="st1" d="M562.6 1217.8c0-54.7-44.3-99-99-99s-99 44.3-99 99 44.3 99 99 99 99-44.3 99-99z"/>
            <path class="st1" d="M216.9 1019.8c54.7 0 99-44.3 99-99s-44.3-99-99-99"/>
            <path class="st1" d="M718 1526.9c0-56.7-46-102.7-102.7-102.7s-102.7 46-102.7 102.7"/>
            <circle class="st1" cx="803.8" cy="960" r="99"/>
            <path class="st1" d="M1545.7 821.8c0-54.7-44.3-99-99-99s-99 44.3-99 99 44.3 99 99 99 99-44.3 99-99z"/>
            <path class="st1" d="M1373.1 1118.8c0-54.7-44.3-99-99-99s-99 44.3-99 99 44.3 99 99 99 99-44.3 99-99z"/>
            <path class="st1" d="M1703.1 1381.2c-38.7-38.7-103.3-38.2-141.9.4-38.7 38.7-33.7 106.5 5 145.2"/>
            <path class="st1" d="M615.3 662.8c0 54.7 44.3 99 99 99s99-44.3 99-99"/>
            <path class="st1" d="M1235.6 1526.9c0-56.7-46-102.7-102.7-102.7s-102.7 46-102.7 102.7"/>
        </g>
    </g>
</svg>
