<svg xmlns="http://www.w3.org/2000/svg" viewBox="0 0 1920 1920">
    <style>
        .st0{fill:#fff}.st1{fill:none;stroke:#231f20;stroke-width:50;stroke-linecap:round;stroke-linejoin:round;stroke-miterlimit:10}
    </style>
    <path class="st0" d="M963 652.7h-2.9c-290 0-525.2 235.1-525.2 525.2 0 290 235.1 525.2 525.2 525.2s525.2-235.1 525.2-525.2c-.1-289.1-233.6-523.6-522.3-525.2zm-3 957.2c-238.6 0-432-193.4-432-432s193.4-432 432-432h2.9c237.2 1.6 429.1 194.4 429.1 432 0 238.6-193.4 432-432 432z" id="Layer_2"/>
    <path class="st0" d="M1007 1171.2c0 24.6-20 44.6-44.6 44.6-2.8 0-5.5-.3-8.2-.8-.7-.1-1.3-.3-2-.4-.3-.1-.6-.2-1-.2-.7-.2-1.3-.4-1.9-.6-1-.3-1.9-.6-2.8-1l-3-1.3c-.5-.2-1-.5-1.5-.7-.9-.5-1.7-.9-2.6-1.4-.5-.3-1-.6-1.4-.9l-4.9-3.7c-9.3-8.2-15.2-20.2-15.2-33.6 0-24.6 20-44.5 44.5-44.5 13.4 0 25.4 5.9 33.6 15.2 6.8 7.8 11 18.1 11 29.3z" id="Layer_4"/>
    <path class="st0" d="M1138.3 338.7H781.7V217.4l266.8 37.9c52 7.4 89.8 42.5 89.8 83.4z" id="Layer_5"/>
    <g id="STROKES">
        <path class="st1" d="M963 652.7h-3c-290 0-525.2 235.1-525.2 525.2s235.1 525.2 525.2 525.2 525.2-235.1 525.2-525.2c0-289.1-233.5-523.6-522.2-525.2zm-3 957.2c-238.6 0-432-193.4-432-432s193.4-432 432-432h3c237.3 1.6 429.1 194.4 429.1 432-.1 238.6-193.5 432-432.1 432z"/>
        <path class="st1" d="M962.4 1126.6V338.7"/>
        <path class="st1" d="M1048.4 255.3l-266.8-37.9v121.4h356.7c0-41-37.8-76.1-89.9-83.5z"/>
        <path class="st1" d="M1007 1171.2c0 24.6-19.9 44.5-44.6 44.5-11.2 0-21.5-4.1-29.3-11-9.3-8.2-15.2-20.2-15.2-33.6 0-24.6 19.9-44.6 44.6-44.6 13.4 0 25.4 5.9 33.6 15.2 6.7 8 10.9 18.3 10.9 29.5z"/>
        <path class="st1" d="M1104.9 1033L996 1141.9"/>
        <path class="st1" d="M933.1 1204.7l-118 118"/>
        <path class="st1" d="M1104.9 1001.2h91.9v31.8h-91.9z"/>
        <path class="st1" d="M723.3 1322.6h91.9v31.8h-91.9z"/>
    </g>
</svg>
