<svg xmlns="http://www.w3.org/2000/svg" viewBox="0 0 1920 1920">
    <style>
        .st0{fill:#fff}.st1{fill:#00c853}.st2{fill:none;stroke:#231f20;stroke-width:50;stroke-linecap:round;stroke-linejoin:round;stroke-miterlimit:10}
    </style>
    <path class="st0" d="M1653.2 1176.9h58.8l-4 73.1-138 40-14-58 98-21s-.2-12.8-.8-34.1zm-1436.3 44.2L201 1216v69l161.8 25v-65l-145.9-23.9z" id="Layer_17"/>
    <g id="Layer_19">
        <path class="st0" d="M1391 1320c19.3 0 35-15.7 35-35s-15.7-35-35-35-35 15.7-35 35 15.7 35 35 35zm59.8-125.7c28.5 19.2 47.2 51.8 47.2 88.7 0 59.1-47.9 107-107 107s-107-47.9-107-107c0-38.9 20.8-72.9 51.8-91.7l9-4.3h94.1l11.9 7.3z"/>
        <path class="st0" d="M464.4 1189.3c42.5-8.1 81.6-3.7 106 1.2l5.3 3.8c28.5 19.2 47.2 51.8 47.2 88.7 0 59.1-47.9 107-107 107s-107-47.9-107-107c0-38.9 20.8-72.9 51.8-91.7l3.7-2zm16.4 95.7c0 19.3 15.7 35 35 35s35-15.7 35-35-15.7-35-35-35-35 15.7-35 35z"/>
    </g>
    <g id="Layer_20">
        <path class="st0" d="M1375.8 969.5c.2 6-4.6 11-10.7 11.2l-151.1 3.7c-6 .1-11-4.7-11.2-10.7l-2.9-120.1c-.2-6 4.7-11 10.7-11.2l151.1-3.7c6-.1 11 4.7 11.2 10.7l2.9 120.1z"/>
        <path class="st0" d="M1118.8 844.6c6-.1 11 4.7 11.2 10.7l2.9 120.2c.2 6-4.7 11-10.7 11.2l-151.1 3.7c-6 .1-11-4.6-11.2-10.7L957 859.5c-.1-6 4.7-11 10.7-11.2l151.1-3.7z"/>
        <path class="st0" d="M876.1 850.5c5.9-.1 10.8 4.5 10.9 10.4l2.8 114.1c.1 5.9-4.5 10.8-10.4 10.9l-151.6 3.7c-5.9.1-10.8-4.5-10.9-10.4L714.1 865c-.1-5.9 4.5-10.8 10.4-10.9l151.6-3.6z"/>
        <path class="st0" d="M631.7 856.1c6-.2 11 4.6 11.2 10.7l2.9 114.8c.1 6-4.7 11-10.7 11.2L397 996.3c-6 .1-11.1-4.7-11.2-10.7 0 0 68.2-125.8 74.2-125.9l171.7-3.6z"/>
    </g>
    <path class="st0" d="M244.7 1028.9c4.7-11.8 10.2-22.3 16.5-30.9l1381.3-11.9c6.6 74.3 9.5 148.9 10.7 190.8.6 21.3.8 34.1.8 34.1l-98 21-44-45h-244l-47 81-578 5-47-76s-9.6-3.3-25.7-6.5c-24.3-4.8-63.5-9.3-106-1.2-10.6 2-21.5 4.9-32.4 8.7l-34.8 52.6-34.3-5.6-145.9-23.9s-.7-66.2 10.9-130.1l5.7 3c58.5 18 73.5-16.1 73.5-36s-16.1-36-36-36c0 0-19.4 2.9-26.3 6.9zM957 859.5c-.1-6 4.7-11 10.7-11.2l151.1-3.7c6-.1 11 4.7 11.2 10.7l2.9 120.2c.2 6-4.7 11-10.7 11.2l-151.1 3.7c-6 .1-11-4.6-11.2-10.7L957 859.5zm-242.9 5.6c-.1-5.9 4.5-10.8 10.4-10.9l151.6-3.7c5.9-.1 10.8 4.5 10.9 10.4l2.8 114.1c.1 5.9-4.5 10.8-10.4 10.9l-151.6 3.7c-5.9.1-10.8-4.5-10.9-10.4l-2.8-114.1zM385.8 985.7S454 859.9 460 859.8l171.7-3.7c6-.2 11 4.6 11.2 10.7l2.9 114.8c.1 6-4.7 11-10.7 11.2L397 996.3c-6 .2-11-4.6-11.2-10.6zm828.3-1.3c-6 .1-11-4.7-11.2-10.7l-2.9-120.1c-.2-6 4.7-11 10.7-11.2l151.1-3.7c6-.1 11 4.7 11.2 10.7l2.9 120.1c.2 6-4.6 11-10.7 11.2l-151.1 3.7zM400 800.2L301 982l-31 6c-3.1 2.9-6 6.3-8.8 10l1381.3-11.9c-8.6-95.6-23.3-190.7-48.8-214.5L400 800.2z" id="Layer_21"/>
    <path class="st0" d="M1477.1 707.1c34.6 11 119.6 32.8 143.9 63.9l-27.3.7L400 800.2l-33 .8-50 1s76.8-68 163.8-73c84.9-4.9 624.6-40.1 944.4-30.7 17.6.5 35.1 3.5 51.9 8.8z" id="Layer_22"/>
    <g id="STROKES">
        <g id="XMLID_1_">
            <circle class="st1" cx="1391" cy="1285" r="35"/>
            <path class="st1" d="M515.8 1320c-19.3 0-35-15.7-35-35s15.7-35 35-35 35 15.7 35 35-15.6 35-35 35z"/>
            <path class="st2" d="M400 800.2l-33 .8-50 1s76.8-68 163.8-73c84.9-4.9 624.6-40.1 944.4-30.7 17.6.5 35.1 3.5 51.9 8.8 34.6 11 119.6 32.8 143.9 63.9l-27.3.7L400 800.2z"/>
            <path class="st2" d="M244.7 1028.9c4.7-11.8 10.2-22.3 16.5-30.9 2.8-3.7 5.7-7.1 8.8-10l31-6 99-181.8"/>
            <path class="st2" d="M1593 771c.2.2.5.4.7.7 25.5 23.8 40.3 118.9 48.8 214.5 6.6 74.3 9.5 148.9 10.7 190.8.6 21.3.8 34.1.8 34.1l-98 21-44-45h-244l-47 81-578 5-47-76s-9.6-3.3-25.7-6.5c-24.3-4.8-63.5-9.3-106-1.2-10.6 2-21.5 4.9-32.4 8.7l-34.8 52.6-34.3-5.6-145.9-23.9s-.7-66.2 10.9-130.1c4-21.9 9.4-43.5 16.8-62.1"/>
            <path class="st2" d="M1365.2 980.7c6-.1 10.8-5.2 10.7-11.2l-2.9-120.1c-.2-6-5.2-10.8-11.2-10.7l-151.1 3.7c-6 .1-10.8 5.2-10.7 11.2l2.9 120.1c.2 6 5.2 10.8 11.2 10.7l151.1-3.7z"/>
            <path class="st2" d="M1122.2 986.6c6-.2 10.8-5.2 10.7-11.2l-2.9-120.2c-.2-6-5.2-10.8-11.2-10.7l-151.1 3.7c-6 .1-10.8 5.2-10.7 11.2l2.9 120.2c.1 6 5.2 10.8 11.2 10.7l151.1-3.7z"/>
            <path class="st2" d="M879.4 986c5.9-.1 10.6-5.1 10.4-10.9L887 861c-.2-5.9-5.1-10.6-10.9-10.4l-151.6 3.7c-5.9.1-10.6 5.1-10.4 10.9l2.8 114.2c.1 5.9 5.1 10.5 10.9 10.4l151.6-3.8z"/>
            <path class="st2" d="M635.2 992.7c6-.1 10.8-5.2 10.7-11.2L643 866.7c-.1-6-5.2-10.8-11.2-10.7L460 859.7c-6 .1-74.2 125.9-74.2 125.9.1 6 5.2 10.8 11.2 10.7l238.2-3.6z"/>
            <path class="st2" d="M261.2 998l1381.3-11.9"/>
            <path class="st2" d="M1426 1050h99"/>
            <path class="st2" d="M1426 1112h99"/>
            <path class="st2" d="M579 1058h36"/>
            <path class="st2" d="M244.7 1028.9c6.9-4 26.3-6.9 26.3-6.9 19.9 0 36 16.1 36 36s-15 54-73.5 36l-5.7-3"/>
            <path class="st2" d="M1344.8 1187l-9 4.3c-31 18.7-51.8 52.8-51.8 91.7 0 59.1 47.9 107 107 107s107-47.9 107-107c0-36.9-18.7-69.5-47.2-88.7l-11.9-7.3"/>
            <circle class="st2" cx="1391" cy="1285" r="35"/>
            <path class="st2" d="M464.4 1189.3l-3.8 2c-31 18.7-51.8 52.8-51.8 91.7 0 59.1 47.9 107 107 107s107-47.9 107-107c0-36.9-18.7-69.5-47.2-88.7l-5.3-3.8"/>
            <path class="st2" d="M550.8 1285c0-19.3-15.7-35-35-35s-35 15.7-35 35 15.7 35 35 35c19.4 0 35-15.7 35-35z"/>
            <path class="st2" d="M1653.2 1176.9h58.8l-4 73.1-138 40-14-58"/>
            <path class="st2" d="M216.9 1221.1L201 1216v69l161.8 25v-64.8"/>
        </g>
    </g>
</svg>
