<svg xmlns="http://www.w3.org/2000/svg" viewBox="0 0 1920 1920">
    <style>
        .st0{fill:#fff}.st1{fill:none;stroke:#231f20;stroke-width:50;stroke-linecap:round;stroke-linejoin:round;stroke-miterlimit:10}
    </style>
    <path class="st0" d="M1214.7 856.6c160.8 79.5 194 491.6-105.3 722.6-76.4 40.7-346.9 49.9-452.2 0C357.7 1348.2 391 936 551.8 856.6c160.8-79.5 151.5-181.1 157.1-271.7 5.5-90.6-83.2-310.5-83.2-310.5s213.2 55.5 515 0c0 0-88.7 219.9-83.2 310.5 5.6 90.6-3.6 192.2 157.2 271.7zm-557.6 722.6l1.9 68.4s51.1 57.3 224.2 55.4c173.1 1.8 224.2-55.4 224.2-55.4l1.9-68.4c-76.4 40.6-346.8 49.9-452.2 0zM625.7 274.4s213.2 55.5 515 0c0 0-30.8-61-257.1-57.3-226.2 3.7-257.9 57.3-257.9 57.3z" id="Layer_2"/>
    <g id="STROKES">
        <g id="XMLID_1_">
            <path class="st1" d="M883.2 1703c-173.1 1.8-224.2-55.4-224.2-55.4l-1.9-68.4C357.7 1348.2 391 936 551.8 856.6c160.8-79.5 151.5-181.1 157.1-271.7 5.5-90.6-83.2-310.5-83.2-310.5s213.2 55.5 515 0c0 0-88.7 219.9-83.2 310.5s-3.7 192.2 157.1 271.7 194 491.6-105.3 722.6l-1.9 68.4c.1 0-51.1 57.3-224.2 55.4"/>
            <path class="st1" d="M657.1 1579.2c105.3 49.9 375.8 40.7 452.2 0"/>
            <path class="st1" d="M625.7 274.4s31.7-53.6 258-57.3c226.2-3.7 257.1 57.3 257.1 57.3"/>
        </g>
    </g>
</svg>
