<svg xmlns="http://www.w3.org/2000/svg" viewBox="0 0 1920 1920">
    <style>
        .st0{fill:#fff}.st1{fill:none;stroke:#231f20;stroke-width:50;stroke-linecap:round;stroke-linejoin:round;stroke-miterlimit:10}
    </style>
    <path class="st0" d="M486.7 225.7c24.2-7.7 49.8-10.4 75.1-7.8C674.2 229.2 960 233.1 960 233.1s283.6-3.9 396.9-15.1c26.2-2.6 52.7.2 77.8 8.1l85.8 27.1-78.9 117.5h-95.7c-389.4 66.6-771.9 0-771.9 0h-95.6l-78.9-117.5 87.2-27.5zm193.1 1396.8s52 80.6 280.2 80.6 280.2-80.6 280.2-80.6c38.6-100.7-80.5-146-80.5-146-213.2 156.6-399.4 0-399.4 0s-119.1 45.3-80.5 146zM584.1 609S434.7 644.2 428 726.5c-6.7 82.2 28.5 594 332.2 750.1 0 0 186.2 156.6 399.4 0 303.7-156.1 339-667.9 332.2-750.1-6.7-82.2-156.1-117.5-156.1-117.5-457.4 94.5-751.6 0-751.6 0zm0 0s294.2 94.5 751.8 0c-28.5-62.1 10.1-238.3 10.1-238.3-389.4 66.6-771.9 0-771.9 0s38.5 176.2 10 238.3z" id="Layer_4"/>
    <g id="STROKES">
        <g id="XMLID_1_">
            <path class="st1" d="M1335.9 609c-28.5-62.1 10.1-238.3 10.1-238.3h95.7l78.9-117.5-85.8-27.1c-25.1-7.9-51.6-10.7-77.8-8.1-113.4 11.2-397 15.1-397 15.1s-285.8-3.9-398.2-15.2c-25.3-2.5-50.9.2-75.1 7.8l-87.1 27.5 78.9 117.5H574s38.6 176.2 10.1 238.3c0 0-149.4 35.2-156.1 117.5-6.7 82.2 28.5 594 332.2 750.1 0 0-119.1 45.3-80.5 146 0 0 52 80.6 280.2 80.6s280.2-80.6 280.2-80.6c38.6-100.7-80.5-146-80.5-146 303.7-156.1 339-667.9 332.2-750.1-6.6-82.3-155.9-117.5-155.9-117.5z"/>
            <path class="st1" d="M574 370.7s382.5 66.6 771.9 0"/>
            <path class="st1" d="M584.1 609s294.2 94.5 751.8 0"/>
            <path class="st1" d="M760.3 1476.5s186.2 156.6 399.4 0"/>
        </g>
    </g>
</svg>
