<svg xmlns="http://www.w3.org/2000/svg" viewBox="0 0 1920 1920">
    <style>
        .st0{fill:#fff}.st1{fill:none;stroke:#231f20;stroke-width:50;stroke-linecap:round;stroke-linejoin:round;stroke-miterlimit:10}
    </style>
    <path class="st0" d="M1076.4 553s58.2 29.1 58.2 80.7c0 51.5-62.7 71.7-62.7 71.7s40.3 76.2 40.3 134.4-42.6 120.1-42.6 120.1 8.1 4 20.5 11.6c63.8 39.1 79.9 124.7 34.8 184.3-.5.7-1 1.3-1.5 2 17.9 29.1 60.5 29.1 69.4 85.1 4.6 28.8-6.7 65-33.6 87.4 0 0 118.7 73.9 116.5 190.4-2.2 116.5-76.2 152.3-76.2 152.3s-77.3 35.8-239.1 29.1c-161.9 6.7-239.1-29.1-239.1-29.1s-73.9-35.8-76.2-152.3c-2.2-116.5 116.5-190.4 116.5-190.4-26.9-22.4-38.2-58.5-33.6-87.4 9-56 51.5-56 69.4-85.1-.5-.7-1-1.3-1.5-2-45.2-59.7-29.1-145.2 34.8-184.3 12.4-7.6 20.5-11.6 20.5-11.6s-42.6-61.9-42.6-120.1c0-58.2 40.3-134.4 40.3-134.4s-62.7-20.2-62.7-71.7 58.2-80.7 58.2-80.7l-29.1-336h290.1l-29 336z" id="Layer_3"/>
    <g id="STROKES">
        <g id="XMLID_1_">
            <path class="st1" d="M959.9 216.9H815.5l29.1 336s-58.2 29.1-58.2 80.7c0 51.5 62.7 71.7 62.7 71.7s-40.3 76.2-40.3 134.4 42.6 120.1 42.6 120.1-8.1 4-20.5 11.6c-63.8 39.1-80 124.7-34.8 184.3.5.7 1 1.3 1.5 2-17.9 29.1-60.5 29.1-69.4 85.1-4.6 28.8 6.7 65 33.6 87.4 0 0-118.7 73.9-116.5 190.4 2.2 116.5 76.2 152.3 76.2 152.3s77.3 35.8 239.1 29.1"/>
            <path class="st1" d="M961.1 216.9h144.5l-29.1 336s58.2 29.1 58.2 80.7c0 51.5-62.7 71.7-62.7 71.7s40.3 76.2 40.3 134.4-42.6 120.1-42.6 120.1 8.1 4 20.5 11.6c63.8 39.1 79.9 124.7 34.8 184.3-.5.7-1 1.3-1.5 2 17.9 29.1 60.5 29.1 69.4 85.1 4.6 28.8-6.7 65-33.6 87.4 0 0 118.7 73.9 116.5 190.4-2.2 116.5-76.2 152.3-76.2 152.3s-77.3 35.8-239.1 29.1"/>
        </g>
    </g>
</svg>
