<svg xmlns="http://www.w3.org/2000/svg" viewBox="0 0 1920 1920">
    <style>
        .st0{fill:#fff}.st1{fill:none;stroke:#231f20;stroke-width:50;stroke-linecap:round;stroke-linejoin:round;stroke-miterlimit:10}
    </style>
    <path class="st0" d="M1010.4 734.6c-3-43.2-7.5-84.7-13.2-124-31.6-217.1-101.9-368.5-183.7-370.1h-2.6C699.5 242.7 707.2 523 707.2 868.6v44.3c-.4 324.9-2.9 581.6 103.7 583.7h2.6c81.8-1.6 152-153 183.7-370.1 11.5-78.7 17.8-166 17.8-258 0-45.9-1.5-90.7-4.6-133.9z" id="Layer_7"/>
    <path class="st0" d="M1188.2 739.6c-5.7-45-14.4-88.1-25.7-129-12.8-46.2-28.8-89.5-47.8-129-70.1-146.2-178.9-240.4-301.2-241.1 81.8 1.6 152 153 183.7 370.1 5.7 39.3 10.2 80.9 13.2 124 3 43.2 4.6 88 4.6 134 0 92-6.4 179.3-17.8 258-31.6 217-101.9 368.5-183.7 370.1 122.3-.7 231.1-94.8 301.2-241.1 18.9-39.5 35-82.7 47.8-129 11.3-40.9 19.9-84.1 25.7-129 5.3-41.6 8.1-84.8 8.1-129 0-44.3-2.8-87.4-8.1-129z" id="Layer_8"/>
    <g id="STROKES">
        <path class="st1" d="M1196.3 868.6c0 346.2-171.2 626.9-382.7 628.1 111.4-2.2 201.5-282.5 201.5-628.1S925 242.7 813.5 240.5c211.5 1.1 382.8 281.9 382.8 628.1z"/>
        <path class="st1" d="M1015 868.6c0 345.5-90.1 625.9-201.5 628.1h-2.6c-106.6-2.1-104.1-258.9-103.7-583.7v-44.3c0-345.5-7.7-625.9 103.7-628.1h2.6C925 242.7 1015 523 1015 868.6z"/>
        <path class="st1" d="M1196.3 868.6H861.1"/>
        <path class="st1" d="M1363.9 739.6h-335.2"/>
        <path class="st1" d="M1162.8 610.6H827.6"/>
        <path class="st1" d="M1309.8 481.6H974.6"/>
        <path class="st1" d="M1309.8 1255.6H974.6"/>
        <path class="st1" d="M1162.8 1126.6H827.6"/>
        <path class="st1" d="M1363.9 997.6h-335.2"/>
        <path class="st1" d="M707.2 912.9c-75.5 41.8-164.7 139-164.7 364.9V1703"/>
    </g>
</svg>
