<svg xmlns="http://www.w3.org/2000/svg" viewBox="0 0 1920 1920">
    <style>
        .st0{fill:#fff}.st1{fill:none;stroke:#231f20;stroke-width:50;stroke-linecap:round;stroke-linejoin:round;stroke-miterlimit:10}
    </style>
    <path class="st0" d="M955 869.7S840.6 682.8 659.7 635.1c-11-2.9-22.2-5.3-33.6-7.1-5 3.7-9.9 7.6-14.6 11.7-27.7 24.4-48.7 58.5-49.8 95.3-11.2 5.3-22.5 10.7-33.7 16-3.2 13.6 17.4 20.6 21.7 33.8 4.1 12.5-7.3 24.2-16.8 33.4-9.4 9.2-18 24.7-9 34.4 4.3 4.6 11.3 5.9 15.7 10.5 4.7 5 5.1 12.6 5.3 19.5 2 70.9 12 141.5 29.6 210.1 8.3 32.1 18.3 64 34 93.1 2.3 4.4 4.9 8.9 4.7 13.9-.1 3.2-1.4 6.2-2.7 9.2-4.5 10.4-8.9 20.7-13.4 31.1 19.5 10.1 42.4 26.8 37.4 48.2-1.6 7-6.2 12.9-8.5 19.7-2.3 6.8-1.5 15.8 4.8 19.2 4 2.1 8.9 1.2 13.2 2.6 9.8 3.1 12.5 15.9 10.7 25.9-1.8 10.1-6.4 20-4.8 30.1 1.1 7.1 5.2 13.4 9.1 19.4 23.1 35.2 46.1 70.3 69.7 105.1 31.8 46.9 68.4 96 121.6 114.3 116.2-90.5 104.5-134.7 104.5-134.7V869.7zm422.7-51.4c-9.4-9.2-20.9-20.8-16.8-33.4 4.4-13.2 24.9-20.3 21.8-33.8-11.2-5.3-22.5-10.7-33.7-16-1-36.9-22.1-71-49.8-95.3-4.7-4.1-9.6-8-14.6-11.7-11.5 1.8-22.7 4.2-33.6 7.1-180.9 47.6-295.3 234.6-295.3 234.6V1490s-11.6 44.2 104.5 134.7c53.2-18.3 89.8-67.4 121.7-114.3 23.6-34.8 46.7-69.9 69.7-105.1 4-6 8-12.3 9.1-19.4 1.6-10.1-3-20-4.8-30.1-1.8-10.1 1-22.8 10.7-25.9 4.3-1.3 9.2-.5 13.2-2.6 6.4-3.3 7.2-12.3 4.8-19.2-2.3-6.8-6.9-12.7-8.5-19.7-5-21.4 17.8-38.1 37.4-48.2-4.5-10.4-8.9-20.7-13.4-31.1-1.3-2.9-2.6-6-2.7-9.2-.2-4.9 2.3-9.5 4.7-13.9 15.7-29.1 25.8-61 34-93.1 17.7-68.6 27.7-139.3 29.6-210.1.2-6.9.6-14.5 5.3-19.5 4.3-4.6 11.4-5.9 15.7-10.5 9-9.8.4-25.3-9-34.5z" id="Layer_2"/>
    <path class="st0" d="M728.8 1510.3c-23.6-34.8-46.7-69.9-69.7-105.1-3.9-6-8-12.3-9.1-19.4-1.6-10.1 3-20 4.8-30.1 1.8-10.1-1-22.8-10.7-25.9-4.3-1.3-9.2-.5-13.2-2.6-6.4-3.3-7.2-12.3-4.8-19.2 2.3-6.8 6.9-12.7 8.5-19.7 5-21.4-17.9-38.1-37.4-48.2 4.5-10.4 9-20.7 13.4-31.1 1.3-2.9 2.6-6 2.7-9.2.2-4.9-2.3-9.5-4.7-13.9-15.7-29.1-25.8-61-34-93.1-17.7-68.6-27.6-139.3-29.6-210.1-.2-6.9-.6-14.5-5.3-19.5-4.3-4.6-11.4-5.9-15.7-10.5-8.9-9.7-.4-25.2 9-34.4s20.9-20.8 16.8-33.4c-4.3-13.2-24.9-20.3-21.7-33.8 11.2-5.3 22.5-10.7 33.7-16 1-36.9 22.1-71 49.8-95.3 4.7-4.1 9.6-8 14.6-11.7-16.1-2.5-32.7-3.9-49.7-3.9 0 0-30-5.1-62.1 17.6-19.6 13.8-39.9 38.1-54.7 80.1-4.2 11.9-7.9 25.2-11 40-3.9 18.2-6.8 38.9-8.6 62.2-.3 4.4-.6 8.8-.9 13.4-1.1 20.2-1.4 42.3-.8 66.5.6 20.9 1.9 43.4 4 67.5 1 11.7 2.2 23.7 3.7 36.2 1.6 14.5 3.6 29.4 5.8 45 3.5 24.8 7.8 51 12.9 78.7 2.7 14.8 5.7 30 8.8 45.6-10.4 25.9-19.2 52.4-26.4 79.4 15.4 3.1 30.9 6.3 46.3 9.4 6.6 1.4 13.2 2.7 19.8 4.1-3.4 9.3-6.7 18.6-10.1 27.9-6.5 17.9-12.9 35.8-19.4 53.7l23.7 9.3c7.7 3 15.4 6.1 23.1 9.1 10.2 4 20.3 8 30.5 12-2.3 14.3-4.6 28.7-6.9 43-3.4 21.2-6.8 42.4-10.3 63.6 3.9.2 7.7.5 11.6.7 10.3.7 20.6 1.3 31 2 3.7.2 7.4.5 11 .7 5.8.4 12.3 1.1 16.1 5.5 2.8 3.3 3.4 7.9 3.9 12.3l4.7 43.4c2 18.2 3.9 36.3 5.9 54.5 1.4 12.5 6.3 28.3 17.4 31 1.3.3 2.7.4 4.2.4 6.5-.4 11.8-5.1 16.7-9.4 2.9-2.5 5.9-5 9-7.3 42.6 43.9 89.2 63.6 135.9 31.1 14.5-10.1 27.5-19.7 39.2-28.8-53.3-18.4-89.8-67.4-121.7-114.3zm742.8-672.7c-.3-4.6-.6-9-.9-13.4-1.8-23.3-4.8-43.9-8.6-62.2-3.1-14.9-6.9-28.2-11-40-14.8-42.1-35.1-66.3-54.7-80.1-32.1-22.7-62.1-17.6-62.1-17.6-17 0-33.6 1.4-49.7 3.9 5 3.7 9.9 7.6 14.6 11.7 27.7 24.4 48.7 58.5 49.8 95.3 11.2 5.3 22.5 10.7 33.7 16 3.2 13.6-17.4 20.6-21.8 33.8-4.1 12.5 7.4 24.2 16.8 33.4s17.9 24.7 9 34.4c-4.3 4.6-11.3 5.9-15.7 10.5-4.7 5-5.1 12.6-5.3 19.5-2 70.9-11.9 141.5-29.6 210.1-8.3 32.1-18.3 64-34 93.1-2.4 4.4-4.9 8.9-4.7 13.9.1 3.2 1.4 6.2 2.7 9.2 4.5 10.4 9 20.7 13.4 31.1-19.6 10.1-42.4 26.8-37.4 48.2 1.6 7 6.2 12.9 8.5 19.7 2.3 6.8 1.5 15.8-4.8 19.2-4 2.1-8.9 1.2-13.2 2.6-9.8 3.1-12.5 15.9-10.7 25.9 1.8 10.1 6.4 20 4.8 30.1-1.1 7.1-5.1 13.4-9.1 19.4-23.1 35.2-46.1 70.3-69.7 105.1-31.8 46.9-68.4 96-121.7 114.3 11.7 9.1 24.7 18.7 39.2 28.8 46.7 32.5 93.3 12.8 135.9-31.1 3.1 2.3 6 4.8 8.9 7.3 4.9 4.3 10.2 9 16.7 9.4 1.5.1 2.9 0 4.2-.4 11.1-2.7 16-18.5 17.4-31 2-18.2 3.9-36.3 5.9-54.5l4.7-43.4c.5-4.3 1.1-9 3.9-12.3 3.8-4.4 10.3-5.1 16.1-5.5 3.7-.2 7.4-.5 11.1-.7 10.3-.7 20.6-1.3 30.9-2 3.9-.2 7.7-.5 11.6-.7-3.4-21.2-6.8-42.4-10.3-63.6-2.3-14.3-4.6-28.6-6.9-43 10.2-4 20.3-8 30.5-12 7.7-3 15.4-6.1 23.1-9.1l23.7-9.3c-6.5-17.9-12.9-35.8-19.4-53.7-3.4-9.3-6.7-18.6-10.1-27.9 6.6-1.4 13.2-2.7 19.8-4.1 15.4-3.1 30.8-6.3 46.3-9.4-7.2-26.9-16-53.5-26.3-79.4 3.2-15.7 6.1-30.8 8.8-45.6 5.1-27.7 9.4-53.9 12.9-78.7 2.2-15.5 4.2-30.5 5.8-45 1.4-12.5 2.6-24.5 3.7-36.2 2.1-24.1 3.5-46.6 4-67.5.7-24.2.4-46.3-.7-66.5z" id="Layer_4"/>
    <g id="STROKES">
        <path class="st1" d="M1472.4 904c-.6 20.9-1.9 43.4-4 67.5-1 11.7-2.2 23.7-3.7 36.2-1.6 14.4-3.6 29.4-5.8 45-3.5 24.8-7.8 51-12.9 78.7-2.7 14.8-5.7 30-8.8 45.6 10.3 25.9 19.2 52.4 26.4 79.4-15.4 3.1-30.9 6.3-46.3 9.4-6.6 1.4-13.2 2.7-19.8 4 3.4 9.3 6.7 18.6 10.1 27.9 6.5 17.9 12.9 35.8 19.4 53.7l-23.7 9.3c-7.7 3-15.4 6-23.1 9.1-10.2 4-20.3 8-30.5 12 2.3 14.3 4.6 28.7 6.9 43 3.4 21.2 6.8 42.4 10.3 63.6-3.9.2-7.7.5-11.6.7-10.3.7-20.6 1.3-31 2-3.7.2-7.4.5-11.1.7-5.8.4-12.3 1.1-16.1 5.5-2.8 3.3-3.4 7.9-3.9 12.3l-4.7 43.4c-2 18.2-3.9 36.3-5.9 54.5-1.4 12.5-6.3 28.3-17.4 31-1.3.3-2.7.5-4.2.4-6.5-.4-11.8-5.1-16.7-9.4-2.9-2.5-5.9-5-9-7.3-42.6 43.9-89.2 63.6-135.9 31.1-14.5-10.1-27.5-19.7-39.2-28.8 53.2-18.3 89.8-67.4 121.7-114.3 23.6-34.8 46.7-69.9 69.7-105.1 3.9-6 8-12.3 9.1-19.4 1.6-10.1-3-20-4.8-30.1-1.8-10.1 1-22.8 10.7-25.9 4.3-1.4 9.2-.5 13.2-2.6 6.4-3.3 7.2-12.3 4.8-19.1-2.3-6.8-6.9-12.7-8.5-19.7-5-21.4 17.9-38.1 37.4-48.2-4.5-10.4-9-20.7-13.4-31.1-1.3-2.9-2.6-6-2.7-9.2-.2-4.9 2.3-9.5 4.7-13.9 15.7-29.1 25.8-61 34-93.1 17.7-68.6 27.7-139.3 29.6-210.1.2-6.9.6-14.5 5.3-19.5 4.3-4.6 11.4-5.9 15.7-10.5 8.9-9.7.4-25.2-9-34.4s-20.9-20.8-16.8-33.3c4.4-13.2 24.9-20.3 21.7-33.9-11.2-5.3-22.5-10.7-33.7-16-1-36.9-22.1-71-49.8-95.3-4.7-4.1-9.6-8-14.6-11.7 16.1-2.5 32.7-3.9 49.7-3.9 0 0 30-5.1 62.1 17.6 19.6 13.9 39.9 38.1 54.7 80.1 4.2 11.9 7.9 25.2 11 40 3.8 18.2 6.8 38.9 8.6 62.2.3 4.4.6 8.8.9 13.4 1.2 20.3 1.5 42.4.9 66.5z"/>
        <path class="st1" d="M1386.7 852.7c-4.3 4.6-11.3 5.9-15.7 10.5-4.7 5-5.1 12.6-5.3 19.5-2 70.9-12 141.5-29.6 210.1-8.3 32.1-18.3 64-34 93.1-2.4 4.4-4.9 8.9-4.7 13.9.1 3.2 1.4 6.2 2.7 9.2 4.5 10.4 8.9 20.7 13.4 31.1-19.5 10.1-42.4 26.8-37.4 48.2 1.6 7 6.2 13 8.5 19.7 2.3 6.8 1.5 15.8-4.8 19.1-4 2.1-8.9 1.2-13.2 2.6-9.8 3.1-12.5 15.9-10.7 25.9 1.8 10.1 6.4 20 4.8 30.1-1.1 7.1-5.2 13.4-9.1 19.4-23.1 35.2-46.1 70.3-69.7 105.1-31.8 46.9-68.4 96-121.7 114.3-116.2-90.5-104.6-134.7-104.6-134.7V869.7s114.4-186.9 295.3-234.6c11-2.9 22.2-5.3 33.6-7.1 5 3.7 9.9 7.6 14.6 11.7 27.7 24.4 48.7 58.5 49.8 95.3 11.2 5.3 22.5 10.7 33.7 16 3.2 13.6-17.4 20.6-21.7 33.9-4.1 12.5 7.4 24.1 16.8 33.3 9.4 9.3 18 24.8 9 34.5z"/>
        <path class="st1" d="M1421.3 216.9c-6.9 138.4-36.6 278.1-87 407.3"/>
        <path class="st1" d="M1327.4 353c-14.8 88-41.3 173.5-68.8 258.4-2.6 7.9-5.1 15.8-7.7 23.7"/>
        <path class="st1" d="M1501.5 354.5c-26.4 98.6-61.7 194.9-105.1 287.3"/>
        <path class="st1" d="M1559.1 504.8c-28 76-64.4 149-108 217.2"/>
        <path class="st1" d="M1470.7 824.2c43.1-42.3 82.9-87.9 118.9-136.4"/>
        <path class="st1" d="M1468.3 971.6c40.6-27.8 79.4-57.9 112.9-93.9"/>
        <path class="st1" d="M1355.2 1489.3c36.7 41.9 75.5 81.8 116.3 119.6"/>
        <path class="st1" d="M1403.2 1360.9c23.6 21.3 48.3 41.4 74 60.1"/>
        <path class="st1" d="M1263.6 1636.6c18.2 22.8 37.1 44.9 56.7 66.5"/>
        <path class="st1" d="M438.4 904c.6 20.9 1.9 43.4 4 67.5 1 11.7 2.2 23.7 3.7 36.2 1.6 14.4 3.6 29.4 5.8 45 3.5 24.8 7.8 51 12.9 78.7 2.7 14.8 5.7 30 8.8 45.6-10.3 25.9-19.2 52.4-26.4 79.4 15.4 3.1 30.9 6.3 46.3 9.4 6.6 1.4 13.2 2.7 19.8 4-3.4 9.3-6.7 18.6-10.1 27.9-6.5 17.9-12.9 35.8-19.4 53.7l23.7 9.3c7.7 3 15.4 6 23.1 9.1 10.2 4 20.3 8 30.5 12-2.3 14.3-4.6 28.7-6.9 43-3.4 21.2-6.8 42.4-10.3 63.6 3.9.2 7.7.5 11.6.7 10.3.7 20.6 1.3 31 2 3.7.2 7.4.5 11.1.7 5.8.4 12.3 1.1 16.1 5.5 2.8 3.3 3.4 7.9 3.9 12.3l4.7 43.4c2 18.2 3.9 36.3 5.9 54.5 1.4 12.5 6.3 28.3 17.4 31 1.3.3 2.7.5 4.2.4 6.5-.4 11.8-5.1 16.7-9.4 2.9-2.5 5.9-5 8.9-7.3 42.6 43.9 89.2 63.6 135.9 31.1 14.5-10.1 27.5-19.7 39.2-28.8-53.2-18.3-89.8-67.4-121.7-114.3-23.6-34.8-46.7-69.9-69.7-105.1-3.9-6-8-12.3-9.1-19.4-1.6-10.1 3-20 4.8-30.1 1.8-10.1-1-22.8-10.7-25.9-4.3-1.4-9.2-.5-13.2-2.6-6.4-3.3-7.2-12.3-4.8-19.1 2.3-6.8 6.9-12.7 8.5-19.7 5-21.4-17.9-38.1-37.4-48.2 4.5-10.4 9-20.7 13.4-31.1 1.3-2.9 2.6-6 2.7-9.2.2-4.9-2.3-9.5-4.7-13.9-15.7-29.1-25.8-61-34-93.1-17.7-68.6-27.7-139.3-29.6-210.1-.2-6.9-.6-14.5-5.3-19.5-4.3-4.6-11.4-5.9-15.7-10.5-8.9-9.7-.4-25.2 9-34.4s20.9-20.8 16.8-33.3c-4.4-13.2-24.9-20.3-21.7-33.9 11.2-5.3 22.5-10.7 33.7-16 1-36.9 22.1-71 49.8-95.3 4.7-4.1 9.6-8 14.6-11.7-16.1-2.5-32.7-3.9-49.7-3.9 0 0-30-5.1-62.1 17.6-19.6 13.9-39.9 38.1-54.7 80.1-4.2 11.9-7.9 25.2-11 40-3.8 18.2-6.8 38.9-8.6 62.2-.3 4.4-.6 8.8-.9 13.4-1.2 20.3-1.5 42.4-.8 66.5z"/>
        <path class="st1" d="M524 852.7c4.3 4.6 11.3 5.9 15.7 10.5 4.7 5 5.1 12.6 5.3 19.5 2 70.9 12 141.5 29.6 210.1 8.3 32.1 18.3 64 34 93.1 2.4 4.4 4.9 8.9 4.7 13.9-.1 3.2-1.4 6.2-2.7 9.2-4.5 10.4-8.9 20.7-13.4 31.1 19.5 10.1 42.4 26.8 37.4 48.2-1.6 7-6.2 13-8.5 19.7-2.3 6.8-1.5 15.8 4.8 19.1 4 2.1 8.9 1.2 13.2 2.6 9.8 3.1 12.5 15.9 10.7 25.9-1.8 10.1-6.4 20-4.8 30.1 1.1 7.1 5.2 13.4 9.1 19.4 23.1 35.2 46.1 70.3 69.7 105.1 31.8 46.9 68.4 96 121.7 114.3 116.2-90.5 104.6-134.7 104.6-134.7V869.7S840.7 682.8 659.8 635.1c-11-2.9-22.2-5.3-33.6-7.1-5 3.7-9.9 7.6-14.6 11.7-27.7 24.4-48.7 58.5-49.8 95.3-11.2 5.3-22.5 10.7-33.7 16-3.2 13.6 17.4 20.6 21.7 33.9 4.1 12.5-7.4 24.1-16.8 33.3-9.4 9.3-17.9 24.8-9 34.5z"/>
        <path class="st1" d="M489.5 216.9c6.9 138.4 36.6 278.1 87 407.3"/>
        <path class="st1" d="M659.7 635.2c-2.6-7.9-5.1-15.8-7.7-23.7-27.4-85-53.9-170.5-68.7-258.5"/>
        <path class="st1" d="M409.2 354.5c26.4 98.6 61.7 194.9 105.1 287.3"/>
        <path class="st1" d="M351.6 504.8c28 76 64.4 149 108 217.2"/>
        <path class="st1" d="M440 824.2c-43.1-42.3-82.9-87.9-118.9-136.4"/>
        <path class="st1" d="M442.4 971.6c-40.6-27.8-79.4-57.9-112.9-93.9"/>
        <path class="st1" d="M555.5 1489.3c-36.7 41.9-75.5 81.8-116.3 119.6"/>
        <path class="st1" d="M433.5 1421c25.7-18.7 50.4-38.8 74-60.1"/>
        <path class="st1" d="M647.2 1636.6c-18.2 22.8-37.1 44.9-56.7 66.5"/>
    </g>
</svg>
