<svg xmlns="http://www.w3.org/2000/svg" viewBox="0 0 1920 1920">
    <style>
        .st0{fill:#fff}.st1{fill:none;stroke:#231f20;stroke-width:50;stroke-linecap:round;stroke-linejoin:round;stroke-miterlimit:10}
    </style>
    <path class="st0" d="M1495.6 889.7c-19.3-113-73.5-214-151.1-291.7-16.3-16.3-33.7-31.6-51.9-45.7-91.7-70.9-206.6-113.1-331.4-113.1-268.2 0-490.8 194.7-534.5 450.4-4.3 25.4 11.2 47.6 32.9 54.9C462.5 861 607 790.4 806.2 765.9h.1c48.8-6 100.9-9.3 155-9.3 54.1 0 106.2 3.2 155 9.3 199.2 24.5 343.7 95.1 346.6 178.6 7.3-2.5 13.9-6.6 19.3-12 10.4-10.6 16.3-26 13.4-42.8z" id="Layer_5"/>
    <path class="st0" d="M1116.2 765.9c-48.9-6-100.9-9.3-155.1-9.3-54.1 0-106.2 3.2-155 9.3h-.1C606.9 790.4 462.4 861 459.6 944.5c9.5 3.2 20.2 3.5 30.9 0 22.1-7.3 46.2-14 72.1-20.2 108.1-25.8 247-41.3 398.6-41.3 11.9 0 23.7.1 35.4.3 53.7.9 105.5 3.7 154.8 8.2h.1c77.1 7.1 147.6 18.3 208.4 32.8 25.9 6.2 50 12.9 72.1 20.2 10.7 3.5 21.4 3.2 30.9 0-3-83.5-147.5-154.1-346.7-178.6z" id="Layer_6"/>
    <g id="STROKES">
        <path class="st1" d="M1482.1 932.5c-5.4 5.4-12 9.5-19.3 12-2.9-83.5-147.4-154.1-346.6-178.6-48.8-6-100.9-9.3-155-9.3-54.1 0-106.2 3.2-155 9.3h-.1C606.9 790.4 462.4 861 459.6 944.5c-21.7-7.3-37.2-29.5-32.9-54.9C470.3 633.9 693 439.2 961.2 439.2c124.8 0 239.8 42.2 331.4 113.1 18.3 14.1 35.6 29.4 51.9 45.7 77.6 77.6 131.8 178.7 151.1 291.7 2.9 16.8-3 32.2-13.5 42.8z"/>
        <path class="st1" d="M961.2 433.9V224.1"/>
        <path class="st1" d="M961.2 733V628.1"/>
        <path class="st1" d="M778.1 466.2L706.3 269"/>
        <path class="st1" d="M617.1 559.1L482.3 398.4"/>
        <path class="st1" d="M496.4 700.2L314.6 595.3"/>
        <path class="st1" d="M427.5 876.2l-210.6-36.5"/>
        <path class="st1" d="M1700.1 839.7l-206.6 36.5"/>
        <path class="st1" d="M1607.7 595.3L1426 700.2"/>
        <path class="st1" d="M1440.1 398.4l-134.9 160.7"/>
        <path class="st1" d="M1216 269l-71.8 197.2"/>
        <path class="st1" d="M778.1 766.2l-71.8-98.6"/>
        <path class="st1" d="M1216 667.6l-71.8 98.6"/>
        <path class="st1" d="M1462.8 944.5c-9.5 3.2-20.2 3.5-30.9 0-22.1-7.3-46.2-14-72.1-20.2-60.8-14.5-131.4-25.8-208.4-32.8h-.1c-49.2-4.5-101.1-7.3-154.8-8.2-11.7-.2-23.5-.3-35.4-.3-151.6 0-290.6 15.5-398.6 41.3-25.9 6.2-50 12.9-72.1 20.2-10.7 3.5-21.4 3.2-30.9 0 2.9-83.5 147.4-154.1 346.6-178.6h.1c48.8-6 100.9-9.3 155-9.3 54.1 0 106.2 3.2 155 9.3 199.2 24.5 343.7 95.1 346.6 178.6z"/>
        <path class="st1" d="M1542.4 1703.1c11.1-41.8 16.9-89.2 16.9-142.8 0-341.4-244.7-630.1-562.8-677 53.7.9 105.5 3.7 154.8 8.2h.1"/>
    </g>
</svg>
