<svg xmlns="http://www.w3.org/2000/svg" viewBox="0 0 1920 1920">
    <style>
        .st0{fill:#fff}.st1{fill:none;stroke:#231f20;stroke-width:50;stroke-linecap:round;stroke-linejoin:round;stroke-miterlimit:10}
    </style>
    <path class="st0" d="M1340 1259.6c5.5 85.1 18.9 176.6 45.3 267.8l-301.9 175.7-134-178.6-134 178.6-301.9-175.7c26.4-91.2 39.8-182.7 45.3-267.8 14.9-229.7-27.9-412.3-27.9-412.3 62.1-219.5-17.5-528.4-17.5-528.4l268.1-102c3.1 296.6 167.8 686.9 167.8 686.9s164.7-390.2 167.8-686.9l268.1 102s-79.6 308.9-17.5 528.4c.2 0-42.6 182.5-27.7 412.3z" id="Layer_4"/>
    <g id="STROKES">
        <path class="st1" d="M1340 1259.6l-198.3 54.5"/>
        <path class="st1" d="M1385.3 1527.3L1083.4 1703l-134-178.5-134 178.5-301.9-175.7C611.3 1190 531 847.2 531 847.2c62.2-219.5-17.5-528.4-17.5-528.4l268.1-102c3.1 296.6 167.8 686.9 167.8 686.9s164.7-390.2 167.8-686.9l268.1 102s-79.6 308.9-17.5 528.4c.1.1-80.2 342.9 17.5 680.1z"/>
        <path class="st1" d="M757.3 1314.1l-198.4-54.5"/>
        <path class="st1" d="M949.5 903.8l-40.8 95.8v466.6l40.8 58.3"/>
        <circle class="st1" cx="985.7" cy="1111.3" r="5.9"/>
        <circle class="st1" cx="985.7" cy="1227.2" r="5.9"/>
        <circle class="st1" cx="985.7" cy="1343.2" r="5.9"/>
    </g>
</svg>
