<svg xmlns="http://www.w3.org/2000/svg" viewBox="0 0 1920 1920">
    <style>
        .st0{fill:#fff}.st1{fill:none;stroke:#231f20;stroke-width:50;stroke-linecap:round;stroke-linejoin:round;stroke-miterlimit:10}
    </style>
    <path class="st0" d="M1290.7 666.3c-13.1-156.8 40.8-233.6 40.8-233.6l-178.4-70.5-44.1-119.9c-21.9-18.5-118.3-26.3-149.1-25.3-30.7-1.1-127.1 6.8-149 25.3l-44.1 119.9-178.4 70.5s53.9 76.8 40.8 233.6c-13.1 156.8-120.9 209.1-120.9 209.1V1703h903.3V875.4s-107.9-52.3-120.9-209.1z" id="Layer_2"/>
    <g id="STROKES">
        <path class="st1" d="M1288 1180.6v329.1"/>
        <path class="st1" d="M1290.7 666.3c-13.1-156.8 40.8-233.6 40.8-233.6l-178.4-70.5-44.1-120c-21.9-18.5-118.3-26.3-149-25.3-30.7-1.1-127.1 6.8-149 25.3l-44.1 119.9-178.4 70.5s53.9 76.8 40.8 233.6C616.2 823 508.4 875.3 508.4 875.3v827.6h903.2V875.4s-107.9-52.3-120.9-209.1z"/>
        <path class="st1" d="M632 1180.6v329.1"/>
        <path class="st1" d="M960 379v1324.1"/>
        <path class="st1" d="M1109 242.2S1050.5 379 960 379 811 242.2 811 242.2"/>
        <path class="st1" d="M1153.2 362.1S1100.7 506.5 960 506.5 766.8 362.1 766.8 362.1"/>
    </g>
</svg>
