<svg xmlns="http://www.w3.org/2000/svg" viewBox="0 0 1920 1920">
    <style>
        .st0{fill:#fff}.st1{fill:none;stroke:#231f20;stroke-width:50;stroke-linecap:round;stroke-linejoin:round;stroke-miterlimit:10}
    </style>
    <path class="st0" d="M766.1 217C572.8 248.3 509 320.1 509 320.1 569 815 356.5 839.3 356.5 839.3v863.8H960V883.5L766.1 217zm-187 464.3h209.6v288.3H579.1V681.3zm278.6 948h-409v-462.4h409v462.4zM1411 320.1s-63.8-71.8-257.2-103.1L960 883.4V1703h603.5V839.3S1351 815 1411 320.1zm-285.5 341H1335V1093h-209.6V661.1zm344.7 968.2h-409v-462.4h409v462.4z" id="Layer_5"/>
    <path class="st0" d="M448.7 1629.3h409v-462.4h-409v462.4zm612.5-462.4v462.4h409v-462.4h-409zM1335 661.1h-209.6V1093H1335V661.1zm-546.3 20.2H579.1v288.3h209.6V681.3z" id="Layer_8"/>
    <g id="STROKES">
        <path class="st1" d="M1563.5 839.3v863.8H960V883.5L1153.8 217c193.4 31.3 257.2 103.1 257.2 103.1-60 494.9 152.5 519.2 152.5 519.2z"/>
        <path class="st1" d="M960 883.4L1153.8 217"/>
        <path class="st1" d="M1061.2 1166.9h409v114.2h-409z"/>
        <path class="st1" d="M1061.2 1166.9h409v462.4h-409z"/>
        <path class="st1" d="M356.5 839.3v863.8H960V883.5L766.2 217C572.8 248.3 509 320.1 509 320.1 569 815 356.5 839.3 356.5 839.3z"/>
        <path transform="rotate(-180 653.197 1224.015)" class="st1" d="M448.7 1166.9h409v114.2h-409z"/>
        <path transform="rotate(-180 653.197 1398.12)" class="st1" d="M448.7 1166.9h409v462.4h-409z"/>
        <path class="st1" d="M579.1 681.3h209.6v122H579.1z"/>
        <path class="st1" d="M579.1 681.3h209.6v288.3H579.1z"/>
        <path class="st1" d="M1125.4 661.1H1335v86.6h-209.6z"/>
        <path class="st1" d="M1125.4 661.1H1335V1093h-209.6z"/>
        <path class="st1" d="M1125.4 572.5h199.8"/>
    </g>
</svg>
