<svg xmlns="http://www.w3.org/2000/svg" viewBox="0 0 1920 1920">
    <style>
        .st0{fill:#fff}.st1{fill:none;stroke:#000;stroke-width:50;stroke-linecap:round;stroke-linejoin:round;stroke-miterlimit:10}
    </style>
    <path class="st0" d="M1500.8 406.6c-1.7-3.4-3.2-7.1-4.4-11.1-19-60.4 70.2-133.9 139.8-98.4 82.4 42.1 98.3 160.7 0 193.2-21.8 7.2-43 11.9-63.9 16.1-59.3 12.2-115.5 21.7-174.2 80.5 0 0-41.4-51.8-96.6-3.5-55.2 48.3-136.3 122.5-167.4 153.6-31.1 31 3.4 79.4 19 98.3 0 0-53.2 68.8-119.9 149.6l-99.4-89 102-102-51.2-51.2s304.7-254.3 342.7-281.9c37.7-27.5 173.5-54.2 173.5-54.2zm-1126 1048.3l-94.9 94.9-17.2 17.2 91.4 91.5c31.1-31.1 291.6-260.5 457.2-426.2 50.5-50.5 125.1-128.8 172.2-183.1l-107.4-95.6-501.3 501.3zm-1-.9l-39.6-39.6-23.2-23.2-94.9 94.9 63 63 .9.9 94.9-94.9-1.1-1.1z" id="Layer_4"/>
    <g id="STROKES">
        <g id="XMLID_1_">
            <path class="st1" d="M933.6 896.2l102-102.1-51.2-51.2s304.7-254.3 342.7-281.9c38-27.6 173.7-54.3 173.7-54.3"/>
            <path class="st1" d="M983.6 1049.2c-47.1 54.3-121.8 132.6-172.2 183.1-165.6 165.6-426.2 395.1-457.2 426.2l-91.4-91.5 17.2-17.2 94.9-94.9 501.3-501.3"/>
            <path class="st1" d="M1567.1 376.5s36.2-8.6 27.6 31.1c-8.1 37.1-70.3 47-93.9-1-1.7-3.4-3.2-7.1-4.4-11.1-19-60.4 70.2-133.9 139.8-98.4 82.4 42.1 98.3 160.7 0 193.2-21.8 7.2-43 11.9-63.9 16.1-59.3 12.2-115.5 21.7-174.2 80.5 0 0-41.4-51.8-96.6-3.5-55.2 48.3-136.3 122.5-167.4 153.6-31.1 31 3.4 79.4 19 98.3 0 0-53.2 68.8-119.9 149.6"/>
            <path class="st1" d="M801.2 886.9l-290.1 241.9-176.9 285.5"/>
            <path class="st1" d="M984.4 742.9l-117.3 93.6"/>
            <path class="st1" d="M373.8 1454l-39.6-39.7-23.2-23.2-94.9 94.9 62.9 63"/>
            <path class="st1" d="M511.1 1128.8l91.5 91.5"/>
            <path class="st1" d="M225 261.5l642.1 575 66.6 59.6 99.4 89 463.4 415 119.2 106.7"/>
            <path class="st1" d="M264.4 304.2L218 367.8l583.2 519.1 74.9 66.7 107.5 95.6 492.9 438.9"/>
            <path class="st1" d="M1496.6 1400l-.1.1-54.8 55"/>
            <path class="st1" d="M1439.6 559.9l45 54"/>
            <path class="st1" d="M1454.6 646.9l72-42"/>
            <path class="st1" d="M1571.6 505.9l.6.7 44.4 53.3"/>
            <path class="st1" d="M1586.6 592.9l72.1-42"/>
        </g>
    </g>
</svg>
