<svg xmlns="http://www.w3.org/2000/svg" viewBox="0 0 1920 1920">
    <style>
        .st0{fill:#fff}.st1{fill:none;stroke:#000;stroke-width:50;stroke-linecap:round;stroke-linejoin:round;stroke-miterlimit:10}
    </style>
    <path class="st0" d="M1176.4 1309.2c-64.9 43.2 56.2 66.3 15.9 226.3-32.1 127.3-159.9 147.9-210.9 151 46.7-27.7 77.6-86.4 14.6-117.9-80.7-40.4-177.3-20.2-213.4-2.9-20.2 9.7-20.9 28.9-17.7 43.9-16.3-19.5-29.5-43.8-37.1-74.2-40.4-160 80.7-183.1 15.9-226.3 0 0 96.6 15.9 96.6-122.6 0-137.3-63.8-90.2-64.9-89.4.7-.8 31.4-39.5 2.9-89.4-26.3-46.1-17-182.6 129.2-205.7h1.6l-5.4 339.8h112.5l-7.8-339.4h1.6c144.3 24.1 158.1 159.5 131.9 205.4-28.5 49.9 2.2 88.6 2.9 89.4-1-.8-64.9-47.9-64.9 89.4-.1 138.4 96.5 122.6 96.5 122.6zm-152.9 122.5h-127s2.9 59.1 59.1 59.1h8.9c56.2 0 59-59.1 59-59.1zm-34-1176.4V237c0-10.6-8.6-19.2-19.2-19.2h-23.6c-10.6 0-19.2 8.6-19.2 19.2v18.3h-41v70.6h144v-70.6h-41z" id="Layer_2"/>
    <path class="st0" d="M896.5 1431.7h127.1s-2.9 59.1-59.1 59.1h-8.9c-56.3 0-59.1-59.1-59.1-59.1zM997.3 325.9h-80.7v.5L909 802.2l-5.4 339.8h112.5l-7.8-339.4-11-476.7zM782.6 1565.8c-20.2 9.7-20.9 28.9-17.7 43.9 2.6 11.8 7.6 21 7.6 21 18.7 40.4 103.8 77.9 167.2 70.6 14-1.6 28.4-6.9 41.6-14.8 46.7-27.7 77.6-86.4 14.6-117.9-80.7-40.3-177.3-20.1-213.3-2.8z" id="Layer_3"/>
    <g id="STROKES">
        <g id="XMLID_1_">
            <path class="st1" d="M820 1378.9s37.2 26.7 44.1-14.6c6.8-41.3 12.1-126.4 43.8-90.2"/>
            <path class="st1" d="M1100.9 1378.1s-36.7 27.3-44.3-13.8c-7.6-41.1-14.4-126.1-45.4-89.4"/>
            <path class="st1" d="M964.4 1490.8c56.2 0 59.1-59.1 59.1-59.1h-127s2.9 59.1 59.1 59.1h8.8z"/>
            <path class="st1" d="M1144.7 1097.2c-.7-.8-31.4-39.5-2.9-89.4 26.2-45.9 12.4-181.3-131.9-205.4"/>
            <path class="st1" d="M981.3 1686.6c51-3.1 178.8-23.7 210.9-151 40.4-160-80.7-183.1-15.9-226.3 0 0-96.6 15.9-96.6-122.6 0-137.3 63.8-90.2 64.9-89.4"/>
            <path class="st1" d="M775.3 1097.2c1.1-.8 64.9-47.9 64.9 89.4 0 138.4-96.6 122.6-96.6 122.6 64.9 43.2-56.2 66.3-15.9 226.3 7.7 30.3 20.8 54.7 37.1 74.2"/>
            <path class="st1" d="M907.4 802.2c-146.2 23.1-155.5 159.6-129.2 205.7 28.5 49.9-2.2 88.6-2.9 89.4"/>
            <path class="st1" d="M981.3 1686.6c46.7-27.7 77.6-86.4 14.6-117.9-80.7-40.4-177.3-20.2-213.4-2.9-20.2 9.7-20.9 28.9-17.7 43.9 2.6 11.8 7.6 21 7.6 21 18.7 40.4 103.8 77.9 167.2 70.6 14.1-1.5 28.5-6.9 41.7-14.7z"/>
            <path class="st1" d="M916.5 326.4L909 802.2l-5.3 339.7h112.4l-7.8-339.4-11-476.6"/>
            <path class="st1" d="M872 428.8h42.1"/>
            <path class="st1" d="M1006.9 466.7h44.3"/>
            <path class="st1" d="M999.7 406.2h44.3"/>
            <path class="st1" d="M864.7 500.8h42.2"/>
            <path class="st1" d="M997.3 325.9h33.2v-70.6h-41V237c0-10.6-8.6-19.2-19.2-19.2h-23.6c-10.6 0-19.2 8.6-19.2 19.2v18.3h-41v70.6h110.8z"/>
            <path class="st1" d="M932.5 1332.7h54.8"/>
        </g>
    </g>
</svg>
