<svg xmlns="http://www.w3.org/2000/svg" viewBox="0 0 1920 1920">
    <style>
        .st0{fill:#fff}.st1{fill:none;stroke:#231f20;stroke-width:50;stroke-linecap:round;stroke-linejoin:round;stroke-miterlimit:10}
    </style>
    <path class="st0" d="M438 213.4c-12.3 0-15 17.3-3.3 21l210.1 67.3c-4.6 13.5-7.2 27.9-7.2 43 0 64.2 46.1 117.7 107 129.1 4.3 39 18.7 74.9 40.5 105.1-54.4 10.3-95.6 58.1-95.6 115.5 0 64.9 52.6 117.6 117.6 117.6 1.9 0 3.8 0 5.7-.1-1.9 7.6-2.9 15.5-2.9 23.7 0 45.7 3.5 71.9 45.5 83.5 7.6 26.6-4.8 85.8-4.8 103.4 0 32.5 31.9 152.6 31.9 152.6l49.2-5.2 20.8-237.6c44-10.2 56.1-49.6 56.1-96.8 0-22-7.2-42.3-19.3-58.8 57-11.3 99.9-61.6 99.9-121.9 0-7.1-.6-14.1-1.8-20.9 59.8-39.7 99.2-107.6 99.2-184.8 0-23.6-3.7-46.4-10.6-67.8 3.5.3 7 .5 10.6.5 58.2 0 107.1-40.1 120.6-94.2l117.1-2.5c19.5-.4 37.1-8.6 49.8-21.5 12.7-13 20.5-30.7 20.5-50.2H438z" id="Layer_9"/>
    <path class="st0" d="M1151.4 1381.5c-.2-.3-.4-.7-.6-1-31.4-54.1-74.5-100.4-125.7-136.2l-86.1-60c-17.9-12.5-41.6-12.5-59.4 0l-86.1 60c-51.3 35.8-94.4 82.1-125.7 136.2-.2.3-.4.7-.6 1l-183.6 318H1335l-183.6-318z" id="Layer_10"/>
    <g id="STROKES">
        <path class="st1" d="M939 1184.3l86.1 60c51.3 35.8 94.4 82.1 125.7 136.2.2.3.4.7.6 1l183.6 318H483.6l183.6-318c.2-.3.4-.7.6-1 31.4-54.1 74.4-100.4 125.7-136.2l86.1-60c17.9-12.5 41.6-12.5 59.4 0z"/>
        <path class="st1" d="M1302.8 213.4H438c-12.3 0-15 17.3-3.3 21l210.1 67.3c-4.7 13.5-7.2 27.9-7.2 42.9 0 64.2 46.1 117.7 107 129.1 4.3 39 18.7 74.9 40.5 105.1-54.4 10.3-95.6 58.1-95.6 115.5 0 64.9 52.6 117.6 117.6 117.6 1.9 0 3.8 0 5.7-.1-1.9 7.6-2.9 15.5-2.9 23.7 0 45.7 3.5 71.9 45.5 83.5 7.6 26.6-4.8 85.8-4.8 103.4 0 32.5 31.9 152.6 31.9 152.6l49.2-5.2 20.8-237.6c44-10.2 56.1-49.6 56.1-96.8 0-22-7.2-42.3-19.3-58.8 57-11.3 99.9-61.6 99.9-121.9 0-7.1-.6-14.1-1.8-20.9 59.8-39.7 99.2-107.6 99.2-184.8 0-23.7-3.7-46.4-10.6-67.8 3.5.3 7 .4 10.6.4 58.2 0 107.1-40.1 120.6-94.2l117.1-2.5c19.5-.4 37.1-8.6 49.8-21.5 12.7-13 20.5-30.7 20.5-50.2h-191.8z"/>
        <path class="st1" d="M940.2 539.1c-39.5-25-65.7-69.1-65.7-119.4 0-78 63.2-141.2 141.2-141.2 34.9 0 66.9 12.7 91.5 33.6"/>
    </g>
</svg>
