<svg xmlns="http://www.w3.org/2000/svg" viewBox="0 0 1920 1920">
    <style>
        .st0{fill:#fff}.st1{fill:none;stroke:#231f20;stroke-width:50;stroke-linecap:round;stroke-linejoin:round;stroke-miterlimit:10}
    </style>
    <path class="st0" d="M975.9 1118.4c-98.3-181.5-99.8-569.6-95.6-731.9-12.8 24.3-40.8 50-97.9 69-147.4 49-171.8-106.7-171.8-106.7-14.2 71.1-80.1 87-137.7 86.5-1.1 0-2.3 0-3.4-.1h-2.6c-.9 0-1.8 0-2.7-.1-.7 0-1.5 0-2.2-.1-.8 0-1.5-.1-2.2-.1-.5 0-1 0-1.5-.1-.4 0-.9 0-1.3-.1-.8 0-1.5-.1-2.2-.1-2.3-.1-4.6-.3-6.9-.5-.7-.1-1.3-.1-2-.2-.4 0-.8-.1-1.2-.1-.7-.1-1.3-.1-2-.2-1.4-.1-2.8-.3-4.1-.4-8.8-1-17-2.2-24.3-3.4-1.1-.2-2.2-.4-3.2-.6-1.7-.3-3.4-.6-5-.9-.8-.2-1.7-.3-2.5-.5-.2-.1-.4-.1-.7-.1-.8-.2-1.6-.3-2.4-.5-.6-.1-1.2-.2-1.8-.4-1.2-.2-2.3-.5-3.3-.7l-1.2-.3c-4.3-.9-7.6-1.8-10-2.4-.4-.1-.8-.2-1.1-.3-.4-.1-.8-.2-1.1-.3-.2-.1-.5-.1-.6-.2-.1 0-.2 0-.3-.1 1.3.4 2.7.8 4 1.2 1.5.4 3 .9 4.5 1.4 2.8.9 5.7 1.8 8.5 2.7 1.7.5 3.3 1.1 5 1.7l3.6 1.2c15.1 5.2 29.8 10.9 44 17l4.2 1.8c19.6 8.6 38.5 18.1 56.6 28.4 2.3 1.3 4.6 2.6 6.9 4 3.8 2.2 7.6 4.5 11.4 6.8 1.2.8 2.5 1.5 3.7 2.3 1.7 1 3.4 2.1 5 3.2 2 1.2 3.9 2.5 5.9 3.8.4.3.9.6 1.3.8 1.5 1 3.1 2 4.6 3 18.5 12.4 36.2 25.5 53.1 39.4 2.2 1.8 4.3 3.6 6.5 5.4 1.1.9 2.2 1.9 3.3 2.8 1.1.9 2.1 1.8 3.2 2.8 26.7 23 51.2 47.8 73.8 73.7 2.7 3.1 5.4 6.2 8 9.3 7.1 8.4 14 16.9 20.7 25.5 1.5 1.9 2.9 3.8 4.4 5.7 2.7 3.5 5.3 7 7.9 10.5 1.6 2.1 3.2 4.3 4.7 6.4 9.6 13.2 18.8 26.5 27.5 40 1.3 1.9 2.5 3.9 3.8 5.8l9.6 15.3c1.8 2.8 3.5 5.7 5.2 8.5 16.9 28.1 32.1 56.5 45.6 84.4 2 4 3.9 8.1 5.8 12.1 2.2 4.7 4.3 9.3 6.5 14 4 8.8 7.8 17.5 11.5 26.2 3 6.9 5.8 13.8 8.6 20.7 1.4 3.4 2.7 6.8 4.1 10.1.3.8.6 1.6.9 2.3 1.4 3.5 2.7 7 4.1 10.5 15.8 41.2 28.2 79.8 37.7 113.4.3 1.2.7 2.4 1 3.6 2.2 8 4.3 15.7 6.2 23.1.3 1.4.7 2.7 1 4 4.7 18.2 8.4 34.4 11.3 47.8 3.4 14.5 5.6 26.2 6.9 34.1 15.2-3 30.6-4.6 46-4.6 7 0 13.9.3 20.9.9-8.9-10.9-16.8-23.4-24.2-37.1z" id="Layer_2"/>
    <path class="st0" d="M419.8 695.3s-45.2 54.8-38.8 62.9c6.5 8.1 19.4 30.7 51.7 27.5 32.3-3.2 64.6-25.5 71-45.1 6.5-19.5-83.9-45.3-83.9-45.3zm888.1-418.5l-39.3 49.7 67.3 22.2 73.2-72h-101.2zm-571.8 13.3c14.6 8.8 61.4 20.5 70.2 17.5 8.8-2.9 26.3-73.1 26.3-73.1L750.8 217s-29.3 64.3-14.7 73.1z" id="Layer_4"/>
    <path class="st0" d="M1169 1280c8.2-2.2 16.2-4.9 24.1-7.9l-7.9-10c-48.2-60.5-109.1-95.5-171.9-104.8-4.5-.7-9-1.2-13.6-1.6-7-.6-13.9-.9-20.9-.9-15.4 0-30.8 1.5-46 4.6h-.2c-58.6 11.7-115 46-160.2 102.7l-14.1 17.7c10.4 6.3 19.7 13.8 27.9 22.2 44.6 45.3 60.5 117.4 76.9 181.6 2.4 9.6 5.4 19.7 12.3 26.5.7.7 1.5 1.4 2.3 2 16.1 12.7 41.6.8 50.6-17.6 5-10.3 6.4-21.5 6.4-33 0-9.1-.9-18.4-1.7-27.4-.7-8.4-1.3-17-1.3-25.5 0-15.8 1.9-31.4 8.3-45.7 9.8-22 33.2-39.8 56.9-35.7 10.4 1.8 18.6 6.8 25.6 13.8 20.3 20.4 29.7 57.5 51.5 79.5 3.6 3.6 7.5 6.8 11.9 9.5 5.4 3.3 11.8 5.7 18 4.4 12.2-2.5 17.4-16.8 19.1-29.1.9-6.9 1.4-13.9 1.4-20.9 0-14-1.9-28-5.6-41.5-1.9-7.1-4.4-14.3-4.4-21.6 0-1.3.1-2.6.2-3.9 3.3-23.2 31.8-31.3 54.4-37.4z" id="Layer_5"/>
    <path class="st0" d="M1193.1 1272.1c-7.9 3-16 5.7-24.1 7.9-22.6 6.2-51.1 14.3-54.2 37.5-.2 1.3-.2 2.6-.2 3.9 0 7.3 2.5 14.5 4.4 21.6 3.7 13.5 5.6 27.5 5.6 41.5 0 7-.5 13.9-1.4 20.9-1.7 12.3-6.9 26.6-19.1 29.1-6.2 1.2-12.6-1.1-18-4.4-4.4-2.7-8.3-5.9-11.9-9.5-21.8-22-31.1-59.1-51.5-79.5-6.9-7-15.2-12-25.6-13.8-23.8-4.1-47.1 13.6-56.9 35.7-6.4 14.3-8.3 29.9-8.3 45.7 0 8.5.6 17.1 1.3 25.5.8 9 1.7 18.3 1.7 27.4 0 11.5-1.4 22.8-6.4 33-9 18.4-34.5 30.3-50.6 17.6-.8-.6-1.6-1.3-2.3-2-6.9-6.8-9.9-17-12.3-26.5-16.4-64.2-32.3-136.3-76.9-181.6-8.3-8.4-17.5-15.8-27.9-22.2l-337 423.3h1114.9l-343.3-431.1z" id="Layer_6"/>
    <g id="STROKES">
        <path class="st1" d="M1536.3 1703.1H421.4l351.1-441c113.9-143.1 298.7-143.1 412.7 0l351.1 441z"/>
        <path class="st1" d="M1536.3 1703.1H421.4l351.1-441c113.9-143.1 298.7-143.1 412.7 0l351.1 441z"/>
        <path class="st1" d="M583.1 751.8c310.2 62.1 349 406 349 406s-84.8-597-551.7-735.2c0 0 203.8 58.1 230.2-73.7 0 0 24.4 155.7 171.8 106.7S883 312.8 883 312.8s-41.3 661.6 127 843.3c0 0 30.7-497.1 457.6-509.4"/>
        <path class="st1" d="M1061.8 1164.2S1096 953.8 1307.9 963"/>
        <path class="st1" d="M978.9 1154.8s-70.6-680 206-806c0 0-63.9 84 32.9 175 96.9 91 217.2 2.9 217.2 2.9"/>
        <path class="st1" d="M1307.9 276.8l-39.3 49.8 67.3 22.2 73.1-72z"/>
        <path class="st1" d="M750.8 216.9s-29.3 64.4-14.6 73.1c14.6 8.8 61.4 20.5 70.2 17.6s26.3-73.1 26.3-73.1l-81.9-17.6z"/>
        <path class="st1" d="M1422.9 981.6c-2.6 1.8-5.2 3.6-7.8 5.5"/>
        <path class="st1" d="M1317.7 815.4c-2.5 3.2-5 6.5-7.4 9.7"/>
        <path class="st1" d="M419.8 695.3s-45.2 54.8-38.8 62.9 19.4 30.7 51.7 27.5c32.3-3.2 64.6-25.5 71-45.1 6.5-19.5-83.9-45.3-83.9-45.3z"/>
        <path class="st1" d="M758.5 1279.8c66.6 40.5 85.4 127.7 104.8 203.8 2.7 10.6 6 21.8 14.6 28.6 16.1 12.7 41.6.8 50.6-17.6 9-18.4 6.5-40 4.7-60.4-2.1-24-2.8-49.2 7-71.2s33.2-39.8 56.9-35.7c46 8 49.1 78.4 88.9 102.7 5.4 3.3 11.8 5.7 18 4.4 12.2-2.4 17.5-16.8 19.1-29.1 2.8-20.8 1.4-42.1-4.2-62.4-2.3-8.4-5.3-16.9-4.2-25.4 3.1-23.2 31.6-31.3 54.2-37.5 8.2-2.2 16.2-4.9 24.1-7.9"/>
    </g>
</svg>
