<svg xmlns="http://www.w3.org/2000/svg" viewBox="0 0 1920 1920">
    <style>
        .st0{fill:#fff}.st1{fill:none;stroke:#231f20;stroke-width:50;stroke-linecap:round;stroke-linejoin:round;stroke-miterlimit:10}.st2{fill:#606161}
    </style>
    <path class="st0" d="M1268.4 1478.8L1119.6 1221 970.8 963.3H217c.4 90.7 17 177.5 47.1 257.8 36.5 97.2 92.8 184.8 163.9 257.8 134.9 138.3 323.4 224.2 532 224.2 138.1 0 267.4-37.7 378.2-103.3l-69.8-121z" id="Layer_6"/>
    <path class="st0" d="M1082.3 227c-39.8-6.6-80.6-10-122.3-10-63 0-124.2 7.8-182.6 22.6C455.3 321 216.9 612.6 216.9 960v3.3h737.9l8-13.8 148.8-257.8 148.8-257.8 68.7-118.9c-75-43.1-158.3-73.4-246.8-88z" id="Layer_7"/>
    <path class="st0" d="M1329.1 315l-68.7 118.9-148.8 257.8-148.8 257.8 8 13.8 148.8 257.8 148.8 257.8 69.8 120.9c76-45 143.3-103.2 198.7-171.4 64.3-79.1 112.6-171.7 140.1-272.8 16.9-62.3 26-127.8 26-195.5.1-276.1-150.4-517-373.9-645.1z" id="Layer_8"/>
    <g id="STROKES">
        <path class="st1" d="M1703.1 960c0 67.7-9 133.2-26 195.5-27.5 101.2-75.9 193.7-140.1 272.8-55.4 68.2-122.7 126.4-198.7 171.4-110.8 65.7-240.1 103.3-378.2 103.3-208.5 0-397-85.9-532-224.2-71.2-73-127.5-160.5-163.9-257.8-30.1-80.2-46.7-167.1-47.1-257.8v-3.3c0-347.4 238.3-639 560.4-720.4 58.4-14.8 119.6-22.6 182.6-22.6 41.6 0 82.5 3.4 122.3 10 88.5 14.7 171.8 45 246.8 88C1552.6 443.1 1703.1 684 1703.1 960z"/>
        <path class="st1" d="M777.4 239.6L665.1 433.9 359.5 963.3H217V960c-.1-347.4 238.3-639 560.4-720.4z"/>
        <path class="st1" d="M1082.3 227L962.8 433.9 814 691.7 657.2 963.3H359.5l305.6-529.4 112.2-194.3c58.4-14.8 119.6-22.6 182.6-22.6 41.7-.1 82.6 3.4 122.4 10z"/>
        <path class="st1" d="M1329.1 315l-68.7 118.9-148.8 257.8-148.8 257.8-8 13.8H657.2L814 691.7l148.8-257.8L1082.3 227c88.5 14.6 171.8 44.9 246.8 88z"/>
        <path class="st1" d="M1536.9 1428.3c-55.4 68.2-122.7 126.4-198.7 171.4l-69.8-120.9-148.8-257.8-148.8-257.7-8-13.8 148.8-257.8 156.8 271.6 148.8 257.8 119.7 207.2z"/>
        <path class="st1" d="M1677.1 1155.5c-27.5 101.2-75.9 193.7-140.1 272.8L1417.2 1221l-148.8-257.8-156.8-271.6 148.8-257.8L1566 963.2l111.1 192.3z"/>
        <path class="st1" d="M1703.1 960c0 67.7-9 133.2-26 195.5l-111-192.2-305.6-529.4 68.7-118.9c223.4 128.1 373.9 369 373.9 645z"/>
        <path class="st1" d="M1119.6 1221H264.1c-30.1-80.2-46.7-167.1-47.1-257.8h753.8l148.8 257.8z"/>
        <path class="st1" d="M1268.4 1478.8H428c-71.2-73-127.5-160.5-163.9-257.8h855.5l148.8 257.8z"/>
        <path class="st1" d="M1338.2 1599.7C1227.4 1665.4 1098.1 1703 960 1703c-208.5 0-397-85.9-532-224.2h840.4l69.8 120.9z"/>
    </g>
</svg>
