<svg xmlns="http://www.w3.org/2000/svg" viewBox="0 0 1920 1920">
    <style>
        .st0{fill:#fff}.st1{stroke:#231f20;stroke-width:50;stroke-linecap:round;stroke-linejoin:round;stroke-miterlimit:10}.st1,.st2{fill:none}.st3,.st4{fill:none;stroke:#231f20;stroke-width:49.7269;stroke-linecap:round;stroke-linejoin:round;stroke-miterlimit:10}.st4{stroke-width:51.1856}.st5{fill:#606060}
    </style>
    <path class="st0" d="M843.4 447.8c-1.6.5-66 22.2-105.6 2.3-40.1-20.2-113.9-24.1-113.9-24.1s-154.4-19.5-206.5-43c0 0-85.7 15.1-102.4 11.8l23.5 22.9 94 8.4s139.3 66.3 191.4 57l158.9 75.6c1.9-11.4 4.2-22.8 7-34 9.9-39.8 30.7-63.2 53.6-76.9zm202.2 15.3c-1.5 1.5-64.4 63.5-28.5 141.1 11.4-6.2 25-11.9 41.2-17 146.2-46.2 210.3-22.4 274.5-97l-107.4-176 22.8-55.2-76.9-42-11 67.9-34.2-31.7 3.7 24.4 56.4 61 54.7 129.3c0 .1-170.8 15.9-195.3-4.8 0 0 79.3-28.1 72-117.1-7.3-89.1-87.2-87-87.2-87s-88.5 23.9-113.9 98.4c0 0 44.8 35.8 19.4 73.1 0 0-17.7-2.9-41 .1-1.9 11.6-.1 26.9 9 46.8 29.8 65.4 139.7-12.9 141.7-14.3zm543.8 789.4c-41.8-68.6-71.6-70.1-71.6-70.1s-46.2-38.8-73.1-4.5c0 0-91-16.4-129.8-53.7-38.8-37.3-164.1-13.4-164.1-13.4s-25.8-80.5-52.5-152.9c-18.7-50.7-37.9-97.4-48.9-109.6v-1c-1.6.9-3.1 1.8-4.7 2.7-48.2 28.2-96.8 60-140.7 90.4 2.2 4.8 4.5 9.5 6.8 14.1.5 1.1 1.1 2.3 1.7 3.4H807.2c.3 15.8.7 32.9 1.5 51 2.8 69.2 9.7 152.7 28.9 230.2 0 0-1 55.2 61.4 85l138.5 193.9s37.3 116.8 23.9 182.2c0 0 56.7 32.6 74.6-124 0 0 34.3-80.6-19.4-85 0 0-50.7-3-94-152.2 0 0-29.8-70.1-79.1-99.9l6-213.3s107.4 156.6 180.5 173c73.1 16.4 207.4 23.9 304.3 55.2 97 31.3 141.7 97 141.7 97s55.1-29.9 13.4-98.5z" id="Layer_59"/>
    <path class="st0" d="M1049 838.3c-1.9-23.1-13-80.6-74.2-106.5 0 0-1.7-2.6-3.8-7.2-84.1 25.9-155.2 59.2-202.1 84 6.8 3.8 36.1 23.4 37.4 81.3.3 11.9.4 26.6.6 43.5.1 7.7.2 15.9.4 24.4h105.2c-.6-1.1-1.1-2.3-1.7-3.4-2.3-4.6-4.5-9.3-6.8-14.1 43.9-30.4 92.5-62.1 140.7-90.4 1.6-.9 3.1-1.8 4.7-2.7 0-1.5-.1-4.6-.4-8.9z" id="Layer_60"/>
    <path class="st0" d="M1045.6 463.1c-2 1.4-111.9 79.7-141.6 14.3-9.1-19.9-10.9-35.2-9-46.8-15.9 2.1-34.3 6.9-51.6 17.2-22.9 13.7-43.7 37.1-53.6 76.7-2.8 11.3-5.1 22.6-7 34-17 103.2.7 207.8-15.4 249.4 0 0 .5.2 1.4.7 47-24.8 118-58.1 202.1-84-9.6-20.4-29-79.8 46.2-120.5-35.8-77.5 27-139.5 28.5-141z" id="Layer_61"/>
    <g id="STROKES">
        <path class="st3" d="M904 940.3c2.8 5.9 5.6 11.8 8.4 17.5H807.2c-.2-8.6-.3-16.7-.4-24.4-.2-16.9-.4-31.6-.6-43.5-1.3-58-30.6-77.5-37.4-81.3 47-24.8 118-58.1 202.1-84 2.1 4.6 3.8 7.2 3.8 7.2 61.2 25.9 72.3 83.4 74.2 106.5.4 4.3.4 7.4.4 8.9-49.7 28.9-100 61.8-145.3 93.1z"/>
        <path class="st3" d="M904 940.3c-.7-2.1-19.6-48.4-20.2-50.4l-14.9-34.3"/>
        <path class="st3" d="M1575.9 1350.9s-44.8-65.6-141.7-97c-97-31.3-231.2-38.8-304.3-55.2-73.1-16.4-180.5-173-180.5-173s-18.6-30.9-37-67.9c-2.8-5.7-5.7-11.6-8.4-17.5 45.3-31.3 95.6-64.2 145.4-93.1v1c11.1 12.3 30.2 59 48.9 109.6 26.7 72.4 52.5 152.9 52.5 152.9s125.3-23.9 164.1 13.4 129.8 53.7 129.8 53.7c26.9-34.3 73.1 4.5 73.1 4.5s29.8 1.5 71.6 70.1c41.7 68.7-13.5 98.5-13.5 98.5z"/>
        <path class="st3" d="M1135.9 1576.2c-17.9 156.6-74.6 124-74.6 124 13.4-65.4-23.9-182.2-23.9-182.2l-138.5-194c-62.4-29.8-61.4-85-61.4-85-19.1-77.4-26.1-161-28.9-230.2-.7-18.1-1.2-35.2-1.5-51h105.2c18.3 37 37 67.9 37 67.9l-6 213.3c49.2 29.8 79.1 99.9 79.1 99.9 43.3 149.2 94 152.2 94 152.2 53.8 4.5 19.5 85.1 19.5 85.1z"/>
        <path class="st3" d="M1017.1 604.2C942 644.8 961.4 704.3 971 724.7c-84.1 25.9-155.2 59.2-202.1 84-.9-.5-1.4-.7-1.4-.7 16.1-41.7-1.6-146.2 15.4-249.4 1.9-11.4 4.2-22.8 7-34 9.9-39.6 30.7-63 53.6-76.7 17.3-10.3 35.8-15.1 51.6-17.2-1.9 11.6-.1 26.9 9 46.8 29.7 65.4 139.6-12.9 141.6-14.3-1.6 1.4-64.4 63.4-28.6 141z"/>
        <path class="st3" d="M1045.7 463.1s-.1 0 0 0c-2.1 1.5-111.9 79.7-141.7 14.3-9.1-19.9-10.9-35.2-9-46.8 23.3-3 41-.1 41-.1 25.4-37.3-19.4-73.1-19.4-73.1 25.4-74.6 113.9-98.4 113.9-98.4s79.9-2.1 87.2 87c7.3 89-72 117.1-72 117.1z"/>
        <path class="st3" d="M1332.8 490.2c-64.2 74.6-128.3 50.7-274.5 97-16.2 5.1-29.8 10.9-41.2 17-35.9-77.6 27-139.6 28.5-141.1 24.4 20.8 195.2 4.9 195.2 4.9l-54.7-129.3-56.4-61-3.7-24.4 34.2 31.7 11-67.9 76.9 42-22.8 55.2 107.5 175.9z"/>
        <path class="st3" d="M843.4 447.8c-22.9 13.7-43.7 37.1-53.6 76.7-2.8 11.3-5.1 22.6-7 34l-158.9-75.6c-52 9.3-191.4-57-191.4-57l-94-8.4-23.5-22.8c16.7 3.4 102.4-11.8 102.4-11.8 52 23.5 206.5 43 206.5 43s73.9 4 113.9 24.1c39.6 20 104-1.7 105.6-2.2z"/>
        <path class="st5" d="M1049.4 847.2c-1.6.9-3.1 1.8-4.7 2.7 1.5-.9 3.1-1.8 4.7-2.7z"/>
        <path class="st5" d="M1049.4 847.2c-1.6.9-3.1 1.8-4.7 2.7 1.5-.9 3.1-1.8 4.7-2.7z"/>
    </g>
</svg>
