<svg xmlns="http://www.w3.org/2000/svg" viewBox="0 0 1920 1920">
    <style>
        .st0{fill:#fff}.st1{fill:none;stroke:#231f20;stroke-width:50;stroke-linecap:round;stroke-linejoin:round;stroke-miterlimit:10}.st2{fill:#606161}
    </style>
    <path class="st0" d="M1650.2 684.4l-153.8-40.8-253.3-67.2L913.6 489c-1.5-.4-3-.8-4.6-1-.4-.1-.8-.1-1.2-.2-.2 0-.4-.1-.5-.1h-.1c-.3 0-.6-.1-.9-.1h-.1c-.7-.1-1.4-.2-2.1-.2-.7-.1-1.4-.1-2.1-.2-.7-.1-1.4-.1-2.1-.1-2.8-.1-5.6 0-8.5.2-.7.1-1.4.1-2.1.2-.7.1-1.4.2-2.2.3-.7.1-1.4.2-2.1.4-.7.1-1.5.3-2.2.4-1.4.3-2.9.6-4.3 1-1.5.4-2.9.9-4.4 1.3-.7.2-1.5.5-2.2.8-.7.2-1.5.5-2.2.8-.7.3-1.5.6-2.2.9-.7.3-1.5.6-2.2.9-.8.3-1.5.7-2.2 1-.7.3-1.5.7-2.2 1.1-.8.4-1.5.7-2.2 1.1-1.4.7-2.8 1.5-4.3 2.3-.1 0-.2.1-.2.1-.8.4-1.5.9-2.3 1.3-1.5.9-3.1 1.8-4.6 2.8-1.5.9-3 1.9-4.4 2.9-1.7 1.1-3.4 2.4-5.1 3.6-.7.5-1.3 1-2 1.5-2.1 1.6-4.2 3.2-6.3 5-.8.6-1.5 1.3-2.3 2-.9.8-1.8 1.5-2.7 2.3-.8.7-1.7 1.5-2.5 2.2-.9.8-1.7 1.5-2.6 2.3-.7.6-1.4 1.3-2.1 2-1.6 1.5-3.1 3-4.7 4.5-.6.6-1.2 1.2-1.7 1.8l-2.3 2.3-.9.9c-4.7 4.9-9.4 10.1-14.1 15.6-.8.9-1.6 1.9-2.3 2.8-1.2 1.4-2.4 2.9-3.6 4.4-.4.4-.7.9-1.1 1.3-.8 1-1.6 2-2.3 3-1.1 1.4-2.2 2.8-3.3 4.3-.4.5-.7 1-1.1 1.5-3.2 4.2-6.4 8.5-9.6 13-.8 1.1-1.5 2.2-2.3 3.3-2.3 3.3-4.6 6.7-6.9 10.2-.8 1.2-1.5 2.3-2.3 3.5-1 1.5-2 3-3 4.6-.5.8-1.1 1.7-1.6 2.5-1.6 2.5-3.2 5-4.8 7.6-.7 1.1-1.4 2.2-2.1 3.4-1.6 2.6-3.2 5.3-4.8 8-.6.9-1.1 1.9-1.7 2.8-1 1.7-2 3.5-3 5.2-.6 1-1.2 2.1-1.8 3.2-.1.2-.3.5-.4.7-.7 1.2-1.4 2.4-2.1 3.7-.1.2-.2.3-.3.5-.6 1-1.1 2.1-1.7 3.1-.6 1.2-1.3 2.3-1.9 3.5-1 1.8-2 3.7-3 5.5-1.5 2.8-3 5.6-4.5 8.5-.5 1-1.1 2.1-1.6 3.1-.7 1.4-1.4 2.8-2.2 4.3-.3.7-.7 1.3-1 2-.4.8-.8 1.5-1.1 2.2-.1.1-.1.3-.2.4-.8 1.6-1.6 3.1-2.4 4.7-.6 1.2-1.2 2.5-1.8 3.7-1.5 3-3 6.1-4.5 9.2-.7 1.5-1.4 2.9-2.1 4.4-.7 1.4-1.3 2.8-1.9 4.2-4.9 10.7-9.8 21.6-14.5 32.9-.5 1.3-1.1 2.5-1.6 3.8-.7 1.6-1.3 3.2-2 4.8-.8 1.9-1.6 3.8-2.3 5.8-.7 1.6-1.3 3.3-2 4.9-1.7 4.3-3.4 8.6-5 12.9-.9 2.4-1.8 4.7-2.7 7.1-.6 1.7-1.3 3.4-1.9 5.1-.4 1-.7 2-1.1 3-.4 1.1-.8 2.1-1.2 3.2-.5 1.3-1 2.7-1.5 4-.6 1.7-1.2 3.4-1.8 5.2-.3 1-.7 1.9-1 2.9l-1.2 3.3c-.5 1.6-1.1 3.2-1.6 4.7-.5 1.3-.9 2.7-1.4 4-.8 2.3-1.5 4.6-2.3 6.9-.6 1.7-1.2 3.5-1.7 5.3-1.1 3.3-2.2 6.6-3.2 10-.7 2.3-1.5 4.6-2.2 6.9l-1.8 5.7c-.8 2.7-1.7 5.5-2.5 8.2-.3.9-.5 1.8-.8 2.7-1.5 4.9-2.9 9.8-4.3 14.8-.2.7-.4 1.3-.6 2-.3 1.2-.7 2.5-1.1 3.8-.7 2.5-1.4 4.9-2 7.4l-.3 1.2c-.7 2.7-1.5 5.4-2.2 8.1-2.2 8.3-4.3 16.5-6.3 24.7-.4 1.6-.8 3.3-1.2 4.9-.8 3.3-1.6 6.5-2.3 9.8l-.9 3.9-.9 3.9c-.3 1.1-.5 2.2-.8 3.3-.4 1.9-.9 3.8-1.3 5.7l-3.6 17.1-.9 4.5c-.5 2.5-1 5-1.5 7.4-.4 2.1-.8 4.1-1.2 6.2-.6 3.3-1.2 6.7-1.8 10-.2 1.1-.4 2.2-.6 3.4-.3 1.7-.6 3.4-.9 5-.4 2-.7 4.1-1 6.1-.3 1.8-.6 3.6-.9 5.3-.4 2.6-.8 5.1-1.2 7.6 0 .1 0 .2-.1.3-.4 2.7-.8 5.3-1.2 7.9-.2 1.2-.4 2.4-.5 3.6-.2 1.2-.3 2.4-.5 3.6-.1.5-.1.9-.2 1.4l-.9 6.9c-.4 2.9-.8 5.8-1.1 8.7-.3 2.1-.5 4.1-.8 6.2-.2 2.1-.5 4.1-.7 6.1-.2 1.6-.3 3.2-.5 4.8-.3 2.8-.6 5.7-.9 8.5-.2 2-.4 4.1-.6 6.1l-.6 6.6c-.2 2.2-.4 4.4-.5 6.5-.1.9-.2 1.8-.2 2.7-.1 1.5-.2 2.9-.3 4.4-.1 1.9-.3 3.8-.4 5.7-.1 1.5-.2 3-.3 4.6l-.3 4.8c-.2 3.2-.3 6.4-.5 9.6-.1 1.6-.1 3.2-.2 4.7-.1 3.2-.2 6.3-.3 9.4 0 1.5-.1 3.1-.1 4.6-.1 3.1-.1 6.2-.1 9.2v5c0 5.9 0 11.7.2 17.5 0 1.5.1 2.9.1 4.4l.3 8.7c.1 1.4.1 2.9.2 4.3s.1 2.8.2 4.2a12007838731592944 12007838731592944 0 0 1 .9 12.5c.1 1.4.2 2.7.3 4.1.1 1.3.2 2.7.4 4 .1 1.3.3 2.7.4 4s.3 2.7.4 4c.4 3.9.9 7.8 1.4 11.7.2 1.3.4 2.6.5 3.8.1.6.2 1.3.3 1.9.1.6.2 1.3.3 1.9.3 2.3.7 4.5 1.1 6.7.1.4.1.8.2 1.1.4 2.2.8 4.3 1.1 6.4.2 1.3.5 2.6.8 3.9.2.9.4 1.9.6 2.8.3 1.7.7 3.3 1.1 5 .5 2.4 1.1 4.8 1.7 7.2l.9 3.6c.7 2.6 1.4 5.3 2.1 7.8.3.9.5 1.8.8 2.7.3 1 .6 2 .9 2.9.4 1.3.8 2.6 1.2 3.8.2.5.3 1 .5 1.5.3.9.6 1.9 1 2.8.3.9.6 1.8 1 2.8.2.7.5 1.3.8 2 1.2 3.3 2.6 6.5 3.9 9.6.3.7.6 1.5 1 2.2.3.8.7 1.5 1.1 2.3l.9 1.8c.2.3.3.7.5 1 .4.8.7 1.5 1.1 2.2 1 2 2.1 4 3.2 5.9l.9 1.5c.3.5.6 1.1.9 1.6.1.2.2.3.3.5.3.6.7 1.1 1 1.6.4.6.7 1.1 1.1 1.7.4.6.8 1.3 1.2 1.9.3.5.6.9 1 1.4.4.5.8 1.1 1.1 1.6.4.6.9 1.2 1.3 1.8.9 1.2 1.8 2.3 2.7 3.5.8 1 1.6 1.9 2.4 2.8.7.7 1.3 1.4 2 2.1l.9.9c0 .1.1.1.1.1l.7.7c.4.4.9.8 1.3 1.2l.2.2c.4.4.8.7 1.1 1.1.4.4.9.8 1.3 1.2.7.6 1.3 1.1 2 1.7.4.3.7.6 1.1.9.5.4.9.7 1.4 1.1 2.3 1.7 4.6 3.2 7 4.5.4.2.7.4 1.1.6.5.3 1 .5 1.5.8.5.3 1 .5 1.5.7.5.2.9.4 1.4.6.3.1.6.2.8.4.3.1.6.3.9.4 1 .4 2 .8 3 1.1 1.5.5 3 1 4.5 1.4l312.4 82.9 253.3 67.2 144.8 38.4c93.8-66.2 171.6-153.7 226.4-255.4 55.6-103.2 87.6-221 88.5-346.4.9-99.5-17.9-194.5-52.7-281.4z" id="Layer_2"/>
    <path class="st0" d="M989.9 1461.8l-312.4-82.9-4.6-1.2v-.2c-1-.4-2-.7-3-1.1-.3-.1-.6-.2-.9-.4-.3-.1-.6-.2-.8-.4-.5-.2-.9-.4-1.4-.6-.5-.2-1-.5-1.5-.7-.5-.2-1-.5-1.5-.8-.4-.2-.7-.4-1.1-.6-2.4-1.3-4.7-2.9-7-4.5-.5-.3-.9-.7-1.4-1.1-.4-.3-.8-.6-1.1-.9-.7-.5-1.3-1.1-2-1.7-.4-.4-.9-.8-1.3-1.2-39 25-80.3 44.8-122.9 58.9-41.9 13.9-85 22.2-128.6 24.3 81.9 94.4 187.2 168 307.1 211.6 77.7 28.3 161.4 44 248.8 44.7 19.7.1 39.2-.5 58.5-1.8 139-9.8 267.6-57.8 375.2-133.8l-144.8-38.4-253.3-67.2zm383.4-1119.4c-85.1-57.1-182.8-97-288-114.9-38.9-6.6-78.9-10.2-119.7-10.5-88.4-.7-173.4 14.1-252.2 41.9 36.9 23.5 70.3 52.1 99.8 85 37.5 41.7 68.8 90.2 92.9 143.7h.1c.3 0 .6.1.9.1h.1c.2 0 .4 0 .5.1.4 0 .8.1 1.2.2l.1-.2 4.5 1.2 329.5 87.4 253.3 67.2 153.8 40.8c-55.8-140-153.2-259.1-276.8-342z" id="Layer_4"/>
    <path class="st0" d="M813.2 343.8c-29.5-32.8-62.9-61.5-99.8-85-287.2 101-494 373.6-496.5 695.5-1.4 188.2 67.2 360.6 181.6 492.4 43.6-2.2 86.7-10.5 128.6-24.3 42.6-14.1 83.8-33.9 122.9-58.9-.4-.3-.8-.7-1.1-1.1l-.2-.2c-.4-.4-.9-.8-1.3-1.2-.2-.2-.5-.4-.7-.7l-.1-.1-.9-.9c-.7-.7-1.3-1.4-2-2.1-.8-.9-1.6-1.8-2.4-2.8-.9-1.1-1.8-2.3-2.7-3.5-.5-.6-.9-1.2-1.3-1.8-.4-.5-.8-1.1-1.1-1.6-.3-.5-.7-.9-1-1.4-.4-.6-.8-1.2-1.2-1.9-.4-.5-.7-1.1-1.1-1.7-.3-.5-.7-1.1-1-1.6-.1-.2-.2-.3-.3-.5-.3-.5-.6-1-.9-1.6l-.9-1.5c-1.1-1.9-2.2-3.9-3.2-5.9-.4-.7-.8-1.5-1.1-2.2-.2-.3-.3-.7-.5-1l-.9-1.8c-.4-.8-.7-1.5-1.1-2.3-.3-.7-.7-1.5-1-2.2-1.4-3.1-2.7-6.3-3.9-9.6-.3-.7-.5-1.3-.8-2-.3-.9-.7-1.8-1-2.8-.3-.9-.7-1.8-1-2.8-.2-.5-.3-1-.5-1.5-.4-1.3-.8-2.5-1.2-3.8-.3-1-.6-1.9-.9-2.9-.3-.9-.5-1.8-.8-2.7-.7-2.6-1.5-5.2-2.1-7.8l-.9-3.6c-.6-2.4-1.2-4.8-1.7-7.2-.4-1.6-.7-3.3-1.1-5-.2-.9-.4-1.8-.6-2.8-.3-1.3-.5-2.6-.8-3.9-.4-2.1-.8-4.2-1.1-6.4-.1-.4-.1-.8-.2-1.1-.4-2.2-.7-4.4-1.1-6.7-.1-.6-.2-1.3-.3-1.9-.1-.6-.2-1.3-.3-1.9-.2-1.2-.4-2.5-.5-3.8-.5-3.8-1-7.7-1.4-11.7-.2-1.3-.3-2.6-.4-4s-.3-2.7-.4-4c-.1-1.3-.2-2.7-.4-4-.1-1.4-.2-2.7-.3-4.1-.1-1.4-.2-2.8-.3-4.1l-.3-4.2-.3-4.2c-.1-1.4-.1-2.8-.2-4.2-.1-1.4-.1-2.8-.2-4.3l-.3-8.7c0-1.5-.1-2.9-.1-4.4-.1-5.7-.2-11.6-.2-17.5v-5c0-3 .1-6.1.1-9.2 0-1.6.1-3.1.1-4.6.1-3.1.2-6.2.3-9.4.1-1.6.1-3.1.2-4.7.1-3.2.3-6.4.5-9.6l.3-4.8c.1-1.5.2-3 .3-4.6.1-1.9.2-3.8.4-5.7.1-1.5.2-2.9.3-4.4.1-.9.1-1.8.2-2.7.2-2.2.3-4.3.5-6.5l.6-6.6c.2-2 .4-4.1.6-6.1.3-2.8.6-5.7.9-8.5.2-1.6.3-3.2.5-4.8.2-2 .5-4.1.7-6.1.2-2 .5-4.1.8-6.2.4-2.9.7-5.8 1.1-8.7l.9-6.9c.1-.5.1-.9.2-1.4.2-1.2.3-2.4.5-3.6.2-1.2.3-2.4.5-3.6.4-2.6.8-5.3 1.2-7.9 0-.1 0-.2.1-.3.4-2.5.8-5.1 1.2-7.6.3-1.8.6-3.6.9-5.3.3-2 .7-4.1 1-6.1.3-1.7.6-3.4.9-5 .2-1.1.4-2.3.6-3.4.6-3.3 1.2-6.7 1.8-10 .4-2.1.8-4.1 1.2-6.2.5-2.5 1-4.9 1.5-7.4l.9-4.5c1.2-5.7 2.3-11.4 3.6-17.1.4-1.9.8-3.8 1.3-5.7.2-1.1.5-2.2.8-3.3l.9-3.9.9-3.9c.8-3.2 1.5-6.5 2.3-9.8.4-1.6.8-3.3 1.2-4.9 2-8.2 4.1-16.4 6.3-24.7.7-2.7 1.4-5.4 2.2-8.1l.3-1.2c.7-2.5 1.3-4.9 2-7.4.4-1.3.7-2.5 1.1-3.8.2-.7.4-1.3.6-2 1.4-5 2.8-9.9 4.3-14.8.3-.9.5-1.8.8-2.7.8-2.8 1.7-5.5 2.5-8.2l1.8-5.7c.7-2.3 1.4-4.6 2.2-6.9 1.1-3.3 2.1-6.7 3.2-10 .6-1.8 1.2-3.5 1.7-5.3.8-2.3 1.5-4.6 2.3-6.9.5-1.3.9-2.7 1.4-4 .5-1.6 1.1-3.2 1.6-4.7l1.2-3.3c.3-1 .7-1.9 1-2.9.6-1.7 1.2-3.5 1.8-5.2.5-1.4 1-2.7 1.5-4 .4-1.1.8-2.2 1.2-3.2.4-1 .7-2 1.1-3 .6-1.7 1.3-3.4 1.9-5.1.9-2.4 1.8-4.7 2.7-7.1 1.7-4.3 3.3-8.6 5-12.9.7-1.6 1.3-3.3 2-4.9.8-1.9 1.6-3.9 2.3-5.8.7-1.6 1.3-3.2 2-4.8.5-1.3 1.1-2.6 1.6-3.8 4.7-11.2 9.5-22.2 14.5-32.9.6-1.4 1.3-2.8 1.9-4.2.7-1.5 1.4-2.9 2.1-4.4 1.5-3.1 3-6.2 4.5-9.2.6-1.2 1.2-2.5 1.8-3.7.8-1.6 1.6-3.2 2.4-4.7.1-.2.1-.3.2-.4.4-.8.7-1.5 1.1-2.2.3-.7.7-1.3 1-2 .7-1.4 1.5-2.9 2.2-4.3.6-1.1 1.1-2.1 1.6-3.1 1.5-2.9 3-5.7 4.5-8.5 1-1.9 2-3.7 3-5.5.6-1.2 1.3-2.3 1.9-3.5.6-1 1.1-2.1 1.7-3.1.1-.2.2-.3.3-.5.7-1.2 1.4-2.4 2.1-3.7.1-.2.2-.5.4-.7.6-1.1 1.2-2.1 1.8-3.2 1-1.8 2-3.5 3-5.2.5-.9 1.1-1.9 1.7-2.8 1.6-2.7 3.2-5.4 4.8-8 .7-1.1 1.4-2.3 2.1-3.4 1.6-2.6 3.2-5.1 4.8-7.6.5-.8 1.1-1.7 1.6-2.5 1-1.5 2-3.1 3-4.6.8-1.2 1.5-2.3 2.3-3.5 2.3-3.5 4.6-6.8 6.9-10.2.8-1.1 1.5-2.2 2.3-3.3 3.2-4.5 6.4-8.8 9.6-13 .4-.5.7-1 1.1-1.5 1.1-1.4 2.2-2.9 3.3-4.3.8-1 1.6-2 2.3-3 .4-.5.7-.9 1.1-1.3 1.2-1.5 2.4-2.9 3.6-4.4.8-1 1.6-1.9 2.3-2.8 4.7-5.5 9.4-10.7 14.1-15.6l.9-.9 2.3-2.3c.6-.6 1.2-1.2 1.7-1.8 1.6-1.5 3.1-3.1 4.7-4.5.7-.7 1.4-1.3 2.1-2 .8-.8 1.7-1.6 2.6-2.3.8-.8 1.7-1.5 2.5-2.2.9-.8 1.8-1.6 2.7-2.3.8-.7 1.6-1.3 2.3-2 2.1-1.7 4.2-3.4 6.3-5 .7-.5 1.3-1 2-1.5 1.7-1.2 3.4-2.5 5.1-3.6 1.5-1 3-2 4.4-2.9 1.5-1 3-1.9 4.6-2.8.8-.5 1.5-.9 2.3-1.3.1 0 .2-.1.2-.1 1.4-.8 2.9-1.6 4.3-2.3.8-.4 1.5-.8 2.2-1.1.8-.4 1.5-.7 2.2-1.1.8-.3 1.5-.7 2.2-1 .8-.3 1.5-.6 2.2-.9.7-.3 1.5-.6 2.2-.9.7-.3 1.5-.6 2.2-.8.7-.3 1.5-.5 2.2-.8 1.5-.5 3-.9 4.4-1.3 1.4-.4 2.9-.7 4.3-1 .7-.2 1.4-.3 2.2-.4.7-.1 1.4-.3 2.1-.4.7-.1 1.5-.2 2.2-.3.7-.1 1.4-.2 2.1-.2 2.8-.3 5.7-.4 8.5-.2.7 0 1.4 0 2.1.1.7 0 1.4.1 2.1.2.7.1 1.4.1 2.1.2-24.2-53.3-55.4-101.8-93-143.6z" id="Layer_5"/>
    <g id="STROKES">
        <path class="st1" d="M1373.3 342.4c123.7 82.9 221 202 277 342L913.6 488.9c-1.5-.4-3.1-.7-4.6-1-.4-.1-.8-.1-1.2-.2-.2 0-.4-.1-.5-.1h-.1c-.3-.1-.6-.1-.9-.1h-.1c-.7-.1-1.4-.2-2.1-.2-.7-.1-1.4-.1-2.1-.2-.7-.1-1.4-.1-2.1-.1-2.8-.1-5.6 0-8.5.2-.7.1-1.4.1-2.1.2-.7.1-1.4.2-2.2.3-.7.1-1.4.2-2.2.4-.7.1-1.4.3-2.2.4-1.4.3-2.9.6-4.3 1-1.5.4-3 .8-4.4 1.3-.7.2-1.5.5-2.2.7-.7.3-1.5.5-2.2.8-.7.3-1.5.6-2.2.9-1.5.6-3 1.2-4.5 1.9-.7.3-1.5.7-2.2 1.1-.8.4-1.5.7-2.3 1.1-1.4.7-2.8 1.5-4.3 2.3-.1.1-.2.1-.2.1-.8.4-1.5.9-2.3 1.3-1.5.9-3 1.8-4.6 2.8-1.5.9-3 1.9-4.4 2.9l-5.1 3.6c-.7.5-1.3 1-1.9 1.5-2.1 1.6-4.2 3.3-6.3 5-.8.6-1.6 1.3-2.3 2-.9.8-1.8 1.5-2.7 2.3-.8.7-1.7 1.5-2.5 2.2-.8.8-1.7 1.5-2.6 2.3-.7.6-1.4 1.3-2.1 2-1.6 1.5-3.1 3-4.7 4.5-.6.6-1.2 1.2-1.7 1.8-.7.8-1.5 1.5-2.3 2.3l-.9.9c-4.7 4.9-9.4 10.1-14.1 15.6-.8.9-1.6 1.9-2.3 2.8-1.2 1.4-2.4 2.9-3.6 4.4-.4.5-.7.9-1.1 1.4-.8 1-1.6 2-2.3 2.9-1.1 1.4-2.2 2.8-3.3 4.3-.4.5-.7 1-1.1 1.4-3.2 4.2-6.4 8.5-9.6 13-.8 1.1-1.6 2.2-2.3 3.3-2.3 3.3-4.6 6.7-6.9 10.2-.8 1.2-1.5 2.3-2.3 3.5-1 1.5-2 3-3 4.6-.5.8-1.1 1.7-1.6 2.5-1.6 2.5-3.2 5-4.8 7.6-.7 1.1-1.4 2.3-2.1 3.4-1.6 2.6-3.2 5.3-4.8 8-.6.9-1.1 1.9-1.7 2.8-1 1.7-2 3.5-3 5.2-.6 1-1.2 2.1-1.8 3.2-.1.2-.3.5-.4.7-.7 1.2-1.4 2.4-2.1 3.7-.1.2-.2.3-.3.5-.6 1-1.2 2.1-1.7 3.1-.6 1.2-1.3 2.3-1.9 3.5-1 1.8-2 3.7-3 5.5-1.5 2.8-3 5.6-4.5 8.5-.5 1-1.1 2.1-1.6 3.1-.7 1.4-1.5 2.8-2.2 4.3-.3.7-.7 1.3-1 2-.4.7-.8 1.5-1.1 2.2-.1.1-.1.3-.2.4-.8 1.6-1.6 3.1-2.3 4.7-.6 1.2-1.2 2.5-1.8 3.7-1.5 3-3 6.1-4.4 9.2-.7 1.5-1.4 2.9-2.1 4.4-.7 1.4-1.3 2.8-2 4.2-4.9 10.7-9.8 21.6-14.5 32.8-.5 1.3-1.1 2.6-1.6 3.8-.7 1.6-1.3 3.2-2 4.8-.8 1.9-1.6 3.8-2.4 5.8-.7 1.6-1.3 3.3-2 4.9-1.7 4.3-3.4 8.6-5 12.9-.9 2.3-1.8 4.7-2.7 7.1-.6 1.7-1.3 3.4-1.9 5.1-.4 1-.7 2-1.1 3-.4 1.1-.8 2.1-1.2 3.2-.5 1.3-1 2.7-1.5 4-.6 1.7-1.2 3.4-1.8 5.2-.3 1-.7 1.9-1 2.9-.4 1.1-.8 2.2-1.1 3.3-.6 1.6-1.1 3.2-1.7 4.7-.4 1.3-.9 2.7-1.4 4-.8 2.3-1.5 4.6-2.3 6.9-.6 1.7-1.2 3.5-1.7 5.3-1.1 3.3-2.2 6.6-3.2 10-.7 2.3-1.5 4.6-2.2 6.9l-1.8 5.7c-.8 2.7-1.7 5.5-2.5 8.2-.3.9-.5 1.8-.8 2.7-1.5 4.9-2.9 9.8-4.3 14.8-.2.7-.4 1.3-.6 2-.4 1.3-.7 2.5-1.1 3.8-.7 2.4-1.4 4.9-2 7.4l-.3 1.2c-.7 2.7-1.5 5.4-2.2 8.1-2.2 8.3-4.3 16.5-6.3 24.7-.4 1.6-.8 3.3-1.2 4.9-.8 3.3-1.6 6.5-2.3 9.8l-.9 3.9-.9 3.9c-.3 1.1-.5 2.2-.7 3.3-.4 1.9-.8 3.8-1.3 5.7l-3.6 17.1-.9 4.5c-.5 2.5-1 5-1.5 7.4-.4 2.1-.8 4.1-1.2 6.2-.6 3.3-1.2 6.7-1.8 10-.2 1.1-.4 2.3-.6 3.4-.3 1.7-.6 3.4-.9 5-.4 2-.7 4.1-1 6.1-.3 1.8-.6 3.6-.9 5.3-.4 2.6-.8 5.1-1.2 7.6v.3c-.4 2.7-.8 5.3-1.2 7.9-.2 1.2-.4 2.4-.5 3.6-.2 1.2-.3 2.4-.5 3.6-.1.5-.1.9-.2 1.4l-.9 6.9c-.4 2.9-.8 5.8-1.1 8.7-.3 2.1-.5 4.1-.7 6.2-.2 2-.5 4.1-.7 6.1-.2 1.6-.3 3.2-.5 4.8-.3 2.8-.6 5.7-.9 8.5-.2 2-.4 4.1-.6 6.1l-.6 6.6c-.2 2.2-.4 4.4-.5 6.5-.1.9-.1 1.8-.2 2.7-.1 1.5-.2 2.9-.3 4.4-.1 1.9-.3 3.8-.4 5.7-.1 1.5-.2 3-.3 4.6l-.3 4.8c-.2 3.2-.3 6.4-.5 9.6-.1 1.6-.1 3.2-.2 4.7-.1 3.2-.2 6.3-.3 9.4 0 1.6-.1 3.1-.1 4.6-.1 3.1-.1 6.2-.1 9.2v5c0 5.9.1 11.7.2 17.5 0 1.5.1 2.9.1 4.4l.3 8.7c.1 1.4.1 2.9.2 4.3s.1 2.8.2 4.2a12007838731592944 12007838731592944 0 0 1 .9 12.5c.1 1.4.2 2.7.3 4.1.1 1.4.2 2.7.4 4 .1 1.3.3 2.7.4 4 .1 1.3.3 2.6.4 4 .4 4 .9 7.8 1.4 11.7.2 1.3.3 2.5.5 3.8.1.6.2 1.3.3 1.9.1.6.2 1.3.3 1.9.3 2.3.7 4.5 1.1 6.7.1.4.1.8.2 1.1.4 2.2.7 4.3 1.1 6.4.2 1.3.5 2.6.7 3.9.2.9.4 1.9.6 2.8.3 1.7.7 3.3 1.1 5 .5 2.4 1.1 4.8 1.7 7.2l.9 3.6c.7 2.7 1.4 5.3 2.1 7.8.3.9.5 1.8.8 2.7.3 1 .6 2 .9 2.9.4 1.3.8 2.6 1.2 3.8.2.5.3 1 .5 1.5.3.9.6 1.9 1 2.8s.6 1.8 1 2.8c.2.7.5 1.3.7 2 1.3 3.3 2.6 6.5 3.9 9.6.3.7.6 1.5 1 2.2.3.8.7 1.5 1 2.3l.9 1.8c.2.4.3.7.5 1 .4.8.7 1.5 1.1 2.2 1 2 2.1 4 3.2 5.9.3.5.6 1 .8 1.5.3.5.6 1.1 1 1.6.1.2.2.3.3.5.3.6.7 1.1 1 1.6.4.6.7 1.1 1.1 1.7.4.6.8 1.3 1.3 1.9.3.5.6.9 1 1.4.4.5.8 1.1 1.1 1.6.4.6.9 1.2 1.3 1.8.9 1.2 1.8 2.3 2.7 3.5.8 1 1.6 1.9 2.4 2.8.6.7 1.3 1.4 2 2.1l.9.9.1.1.7.7c.4.4.9.8 1.3 1.2l.2.2c.4.4.8.7 1.1 1.1.4.4.9.8 1.3 1.2.7.6 1.3 1.1 2 1.7.4.3.7.6 1.1.9.5.4.9.7 1.4 1.1 2.3 1.7 4.6 3.2 7 4.6.4.2.7.4 1.1.6.5.3 1 .5 1.5.8.5.3 1 .5 1.5.7.5.2.9.4 1.4.6.3.1.6.2.8.4.3.1.6.3.9.4 1 .4 2 .8 3 1.1 1.5.5 3 1 4.5 1.4l710.6 188.5c-107.6 76-236.2 124-375.2 133.8-19.3 1.4-38.8 2-58.5 1.8-87.4-.7-171.1-16.4-248.8-44.7-119.8-43.6-225.2-117.2-307-211.6-114.3-131.8-183-304.2-181.6-492.4 2.4-321.9 209.3-594.5 496.4-695.5 78.9-27.8 163.8-42.6 252.2-41.9 40.8.3 80.7 3.9 119.7 10.5 105.3 18 202.9 58 288.1 115.1z"/>
        <path class="st1" d="M673 1377.5c1.5.5 3 1 4.5 1.4l-4.6-1.2.1-.2z"/>
        <path class="st1" d="M909 487.7l4.6 1.2c-1.5-.4-3.1-.7-4.6-1v-.2z"/>
        <path class="st1" d="M713.4 258.9C797.1 312.2 863 392 906.1 487.5c-.7-.1-1.4-.2-2.1-.2-.7-.1-1.4-.1-2.1-.2-.7 0-1.4-.1-2.1-.1-2.8-.1-5.6 0-8.5.2-.7.1-1.4.1-2.1.2-.7.1-1.4.2-2.2.3-.7.1-1.4.2-2.2.4-.7.1-1.4.3-2.2.4-1.4.3-2.9.6-4.3 1-1.5.4-3 .8-4.4 1.3-.7.2-1.5.5-2.2.7-.7.3-1.5.5-2.2.8-.7.3-1.5.6-2.2.9-1.5.6-3 1.2-4.5 1.9-.7.3-1.5.7-2.2 1.1-.8.4-1.5.7-2.3 1.1-1.4.7-2.8 1.5-4.3 2.3-.1.1-.2.1-.2.1-.8.4-1.5.9-2.3 1.3-1.5.9-3 1.8-4.6 2.8-1.5.9-3 1.9-4.4 2.9l-5.1 3.6c-.6.5-1.3 1-1.9 1.5-2.1 1.6-4.2 3.3-6.3 5-.8.6-1.6 1.3-2.3 2-.9.8-1.8 1.5-2.7 2.3-.8.7-1.7 1.5-2.5 2.2-.8.8-1.7 1.5-2.6 2.3-.7.6-1.4 1.3-2.1 2-1.6 1.5-3.1 3-4.7 4.5-.6.6-1.2 1.2-1.7 1.8-.7.8-1.5 1.5-2.3 2.3l-.9.9c-4.7 4.9-9.4 10.1-14.1 15.6-.8.9-1.6 1.9-2.3 2.8-1.2 1.4-2.4 2.9-3.6 4.4-.4.5-.7.9-1.1 1.4-.8 1-1.6 2-2.3 2.9-1.1 1.4-2.2 2.8-3.3 4.3-.4.5-.7 1-1.1 1.4-3.2 4.2-6.4 8.5-9.6 13-.8 1.1-1.6 2.2-2.3 3.3-2.3 3.3-4.6 6.7-6.9 10.2-.8 1.2-1.5 2.3-2.3 3.5-1 1.5-2 3-3 4.6-.5.8-1.1 1.7-1.6 2.5-1.6 2.5-3.2 5-4.8 7.6-.7 1.1-1.4 2.3-2.1 3.4-1.6 2.6-3.2 5.3-4.8 8-.6.9-1.1 1.9-1.7 2.8-1 1.7-2 3.5-3 5.2-.6 1-1.2 2.1-1.8 3.2-.1.2-.3.5-.4.7-.7 1.2-1.4 2.4-2.1 3.7-.1.2-.2.3-.3.5-.6 1-1.2 2.1-1.7 3.1-.6 1.2-1.3 2.3-1.9 3.5-1 1.8-2 3.7-3 5.5-1.5 2.8-3 5.6-4.5 8.5-.5 1-1.1 2.1-1.6 3.1-.7 1.4-1.5 2.8-2.2 4.3-.3.7-.7 1.3-1 2-.4.7-.8 1.5-1.1 2.2-.1.1-.1.3-.2.4-.8 1.6-1.6 3.1-2.3 4.7-.6 1.2-1.2 2.5-1.8 3.7-1.5 3-3 6.1-4.4 9.2-.7 1.5-1.4 2.9-2.1 4.4-.7 1.4-1.3 2.8-2 4.2-4.9 10.7-9.8 21.6-14.5 32.8-.5 1.3-1.1 2.6-1.6 3.8-.7 1.6-1.3 3.2-2 4.8-.8 1.9-1.6 3.8-2.4 5.8-.7 1.6-1.3 3.3-2 4.9-1.7 4.3-3.4 8.6-5 12.9-.9 2.3-1.8 4.7-2.7 7.1-.6 1.7-1.3 3.4-1.9 5.1-.4 1-.7 2-1.1 3-.4 1.1-.8 2.1-1.2 3.2-.5 1.3-1 2.7-1.5 4-.6 1.7-1.2 3.4-1.8 5.2-.3 1-.7 1.9-1 2.9-.4 1.1-.8 2.2-1.1 3.3-.6 1.6-1.1 3.2-1.7 4.7-.4 1.3-.9 2.7-1.4 4-.8 2.3-1.5 4.6-2.3 6.9-.6 1.7-1.2 3.5-1.7 5.3-1.1 3.3-2.2 6.6-3.2 10-.7 2.3-1.5 4.6-2.2 6.9l-1.8 5.7c-.8 2.7-1.7 5.5-2.5 8.2-.3.9-.5 1.8-.8 2.7-1.5 4.9-2.9 9.8-4.3 14.8-.2.7-.4 1.3-.6 2-.4 1.3-.7 2.5-1.1 3.8-.7 2.4-1.4 4.9-2 7.4l-.3 1.2c-.7 2.7-1.5 5.4-2.2 8.1-2.2 8.3-4.3 16.5-6.3 24.7-.4 1.6-.8 3.3-1.2 4.9-.8 3.3-1.6 6.5-2.3 9.8l-.9 3.9-.9 3.9c-.3 1.1-.5 2.2-.7 3.3-.4 1.9-.8 3.8-1.3 5.7l-3.6 17.1-.9 4.5c-.5 2.5-1 5-1.5 7.4-.4 2.1-.8 4.1-1.2 6.2-.6 3.3-1.2 6.7-1.8 10-.2 1.1-.4 2.3-.6 3.4-.3 1.7-.6 3.4-.9 5-.4 2-.7 4.1-1 6.1-.3 1.8-.6 3.6-.9 5.3-.4 2.6-.8 5.1-1.2 7.6v.3c-.4 2.7-.8 5.3-1.2 7.9-.2 1.2-.4 2.4-.5 3.6-.2 1.2-.3 2.4-.5 3.6-.1.5-.1.9-.2 1.4l-.9 6.9c-.4 2.9-.8 5.8-1.1 8.7-.3 2.1-.5 4.1-.7 6.2-.2 2-.5 4.1-.7 6.1-.2 1.6-.3 3.2-.5 4.8-.3 2.8-.6 5.7-.9 8.5-.2 2-.4 4.1-.6 6.1l-.6 6.6c-.2 2.2-.4 4.4-.5 6.5-.1.9-.1 1.8-.2 2.7-.1 1.5-.2 2.9-.3 4.4-.1 1.9-.3 3.8-.4 5.7-.1 1.5-.2 3-.3 4.6l-.3 4.8c-.2 3.2-.3 6.4-.5 9.6-.1 1.6-.1 3.2-.2 4.7-.1 3.2-.2 6.3-.3 9.4 0 1.6-.1 3.1-.1 4.6-.1 3.1-.1 6.2-.1 9.2v5c0 5.9.1 11.7.2 17.5 0 1.5.1 2.9.1 4.4l.3 8.7c.1 1.4.1 2.9.2 4.3s.1 2.8.2 4.2a12007838731592944 12007838731592944 0 0 1 .9 12.5c.1 1.4.2 2.7.3 4.1.1 1.4.2 2.7.4 4 .1 1.3.3 2.7.4 4 .1 1.3.3 2.6.4 4 .4 4 .9 7.8 1.4 11.7.2 1.3.3 2.5.5 3.8.1.6.2 1.3.3 1.9.1.6.2 1.3.3 1.9.3 2.3.7 4.5 1.1 6.7.1.4.1.8.2 1.1.4 2.2.7 4.3 1.1 6.4.2 1.3.5 2.6.7 3.9.2.9.4 1.9.6 2.8.3 1.7.7 3.3 1.1 5 .5 2.4 1.1 4.8 1.7 7.2l.9 3.6c.7 2.7 1.4 5.3 2.1 7.8.3.9.5 1.8.8 2.7.3 1 .6 2 .9 2.9.4 1.3.8 2.6 1.2 3.8.2.5.3 1 .5 1.5.3.9.6 1.9 1 2.8s.6 1.8 1 2.8c.2.7.5 1.3.7 2 1.3 3.3 2.6 6.5 3.9 9.6.3.7.6 1.5 1 2.2.3.8.7 1.5 1 2.3l.9 1.8c.2.4.3.7.5 1 .4.8.7 1.5 1.1 2.2 1 2 2.1 4 3.2 5.9.3.5.6 1 .8 1.5.3.5.6 1.1 1 1.6.1.2.2.3.3.5.3.6.7 1.1 1 1.6.4.6.7 1.1 1.1 1.7.4.6.8 1.3 1.3 1.9.3.5.6.9 1 1.4.4.5.8 1.1 1.1 1.6.4.6.9 1.2 1.3 1.8.9 1.2 1.8 2.3 2.7 3.5.8.9 1.6 1.9 2.4 2.8.6.7 1.3 1.4 2 2.1l.9.9.1.1.7.7c.4.4.9.8 1.3 1.2l.2.2c.4.4.8.7 1.1 1.1-77.5 49.5-163.6 78.9-251.4 83.2-114.3-131.8-183-304.2-181.6-492.4 2.6-321.7 209.4-594.3 496.6-695.2z"/>
        <path class="st1" d="M1085.3 227.5c76.8 97.3 131.1 217.2 157.8 348.9L913.6 489c-1.5-.4-3.1-.7-4.6-1-.4-.1-.8-.1-1.2-.2-.2 0-.4-.1-.5-.1h-.1c-.3-.1-.6-.1-.9-.1h-.1c-.7-.1-1.4-.2-2.1-.2-.7-.1-1.4-.1-2.1-.2-.7 0-1.4-.1-2.1-.1-2.8-.1-5.6 0-8.5.2-.7.1-1.4.1-2.1.2-.7.1-1.4.2-2.2.3-.7.1-1.4.2-2.2.4-.7.1-1.4.3-2.2.4-1.4.3-2.9.6-4.3 1-1.5.4-3 .8-4.4 1.3-.7.2-1.5.5-2.2.7-.7.3-1.5.5-2.2.8-.7.3-1.5.6-2.2.9-1.5.6-3 1.2-4.5 1.9-.7.3-1.5.7-2.2 1.1-.8.4-1.5.7-2.3 1.1-1.4.7-2.8 1.5-4.3 2.3-.1.1-.2.1-.2.1-.8.4-1.5.9-2.3 1.3-1.5.9-3 1.8-4.6 2.8-1.5.9-3 1.9-4.4 2.9l-5.1 3.6c-.6.5-1.3 1-1.9 1.5-2.1 1.6-4.2 3.3-6.3 5-.8.6-1.6 1.3-2.3 2-.9.8-1.8 1.5-2.7 2.3-.8.7-1.7 1.5-2.5 2.2-.8.8-1.7 1.5-2.6 2.3-.7.6-1.4 1.3-2.1 2-1.6 1.5-3.1 3-4.7 4.5-.6.6-1.2 1.2-1.7 1.8-.7.8-1.5 1.5-2.3 2.3l-.9.9c-4.7 4.9-9.4 10.1-14.1 15.6-.8.9-1.6 1.9-2.3 2.8-1.2 1.4-2.4 2.9-3.6 4.4-.4.5-.7.9-1.1 1.4-.8 1-1.6 2-2.3 2.9-1.1 1.4-2.2 2.8-3.3 4.3-.4.5-.7 1-1.1 1.4-3.2 4.2-6.4 8.5-9.6 13-.8 1.1-1.6 2.2-2.3 3.3-2.3 3.3-4.6 6.7-6.9 10.2-.8 1.2-1.5 2.3-2.3 3.5-1 1.5-2 3-3 4.6-.5.8-1.1 1.7-1.6 2.5-1.6 2.5-3.2 5-4.8 7.6-.7 1.1-1.4 2.3-2.1 3.4-1.6 2.6-3.2 5.3-4.8 8-.6.9-1.1 1.9-1.7 2.8-1 1.7-2 3.5-3 5.2-.6 1-1.2 2.1-1.8 3.2-.1.2-.3.5-.4.7-.7 1.2-1.4 2.4-2.1 3.7-.1.2-.2.3-.3.5-.6 1-1.2 2.1-1.7 3.1-.6 1.2-1.3 2.3-1.9 3.5-1 1.8-2 3.7-3 5.5-1.5 2.8-3 5.6-4.5 8.5-.5 1-1.1 2.1-1.6 3.1-.7 1.4-1.5 2.8-2.2 4.3-.3.7-.7 1.3-1 2-.4.7-.8 1.5-1.1 2.2-.1.1-.1.3-.2.4-.8 1.6-1.6 3.1-2.3 4.7-.6 1.2-1.2 2.5-1.8 3.7-1.5 3-3 6.1-4.4 9.2-.7 1.5-1.4 2.9-2.1 4.4-.7 1.4-1.3 2.8-2 4.2-4.9 10.7-9.8 21.6-14.5 32.8-.5 1.3-1.1 2.6-1.6 3.8-.7 1.6-1.3 3.2-2 4.8-.8 1.9-1.6 3.8-2.4 5.8-.7 1.6-1.3 3.3-2 4.9-1.7 4.3-3.4 8.6-5 12.9-.9 2.3-1.8 4.7-2.7 7.1-.6 1.7-1.3 3.4-1.9 5.1-.4 1-.7 2-1.1 3-.4 1.1-.8 2.1-1.2 3.2-.5 1.3-1 2.7-1.5 4-.6 1.7-1.2 3.4-1.8 5.2-.3 1-.7 1.9-1 2.9-.4 1.1-.8 2.2-1.1 3.3-.6 1.6-1.1 3.2-1.7 4.7-.4 1.3-.9 2.7-1.4 4-.8 2.3-1.5 4.6-2.3 6.9-.6 1.7-1.2 3.5-1.7 5.3-1.1 3.3-2.2 6.6-3.2 10-.7 2.3-1.5 4.6-2.2 6.9l-1.8 5.7c-.8 2.7-1.7 5.5-2.5 8.2-.3.9-.5 1.8-.8 2.7-1.5 4.9-2.9 9.8-4.3 14.8-.2.7-.4 1.3-.6 2-.4 1.3-.7 2.5-1.1 3.8-.7 2.4-1.4 4.9-2 7.4l-.3 1.2c-.7 2.7-1.5 5.4-2.2 8.1-2.2 8.3-4.3 16.5-6.3 24.7-.4 1.6-.8 3.3-1.2 4.9-.8 3.3-1.6 6.5-2.3 9.8l-.9 3.9-.9 3.9c-.3 1.1-.5 2.2-.7 3.3-.4 1.9-.8 3.8-1.3 5.7l-3.6 17.1-.9 4.5c-.5 2.5-1 5-1.5 7.4-.4 2.1-.8 4.1-1.2 6.2-.6 3.3-1.2 6.7-1.8 10-.2 1.1-.4 2.3-.6 3.4-.3 1.7-.6 3.4-.9 5-.4 2-.7 4.1-1 6.1-.3 1.8-.6 3.6-.9 5.3-.4 2.6-.8 5.1-1.2 7.6v.3c-.4 2.7-.8 5.3-1.2 7.9-.2 1.2-.4 2.4-.5 3.6-.2 1.2-.3 2.4-.5 3.6-.1.5-.1.9-.2 1.4l-.9 6.9c-.4 2.9-.8 5.8-1.1 8.7-.3 2.1-.5 4.1-.7 6.2-.2 2-.5 4.1-.7 6.1-.2 1.6-.3 3.2-.5 4.8-.3 2.8-.6 5.7-.9 8.5-.2 2-.4 4.1-.6 6.1l-.6 6.6c-.2 2.2-.4 4.4-.5 6.5-.1.9-.1 1.8-.2 2.7-.1 1.5-.2 2.9-.3 4.4-.1 1.9-.3 3.8-.4 5.7-.1 1.5-.2 3-.3 4.6l-.3 4.8c-.2 3.2-.3 6.4-.5 9.6-.1 1.6-.1 3.2-.2 4.7-.1 3.2-.2 6.3-.3 9.4 0 1.6-.1 3.1-.1 4.6-.1 3.1-.1 6.2-.1 9.2v5c0 5.9.1 11.7.2 17.5 0 1.5.1 2.9.1 4.4l.3 8.7c.1 1.4.1 2.9.2 4.3s.1 2.8.2 4.2a12007838731592944 12007838731592944 0 0 1 .9 12.5c.1 1.4.2 2.7.3 4.1.1 1.4.2 2.7.4 4 .1 1.3.3 2.7.4 4 .1 1.3.3 2.6.4 4 .4 4 .9 7.8 1.4 11.7.2 1.3.3 2.5.5 3.8.1.6.2 1.3.3 1.9.1.6.2 1.3.3 1.9.3 2.3.7 4.5 1.1 6.7.1.4.1.8.2 1.1.4 2.2.7 4.3 1.1 6.4.2 1.3.5 2.6.7 3.9.2.9.4 1.9.6 2.8.3 1.7.7 3.3 1.1 5 .5 2.4 1.1 4.8 1.7 7.2l.9 3.6c.7 2.7 1.4 5.3 2.1 7.8.3.9.5 1.8.8 2.7.3 1 .6 2 .9 2.9.4 1.3.8 2.6 1.2 3.8.2.5.3 1 .5 1.5.3.9.6 1.9 1 2.8s.6 1.8 1 2.8c.2.7.5 1.3.7 2 1.3 3.3 2.6 6.5 3.9 9.6.3.7.6 1.5 1 2.2.3.8.7 1.5 1 2.3l.9 1.8c.2.4.3.7.5 1 .4.8.7 1.5 1.1 2.2 1 2 2.1 4 3.2 5.9.3.5.6 1 .8 1.5.3.5.6 1.1 1 1.6.1.2.2.3.3.5.3.6.7 1.1 1 1.6.4.6.7 1.1 1.1 1.7.4.6.8 1.3 1.3 1.9.3.5.6.9 1 1.4.4.5.8 1.1 1.1 1.6.4.6.9 1.2 1.3 1.8.9 1.2 1.8 2.3 2.7 3.5.8.9 1.6 1.9 2.4 2.8.6.7 1.3 1.4 2 2.1l.9.9.1.1.7.7c.4.4.9.8 1.3 1.2l.2.2c.4.4.8.7 1.1 1.1.4.4.9.8 1.3 1.2.7.6 1.3 1.1 2 1.7.4.3.7.6 1.1.9.5.4.9.7 1.4 1.1 2.3 1.7 4.6 3.2 7 4.6.4.2.7.4 1.1.6.5.3 1 .5 1.5.8.5.3 1 .5 1.5.7.5.2.9.4 1.4.6.3.1.6.2.8.4.3.1.6.3.9.4 1 .4 2 .8 3 1.1 1.5.5 3 1 4.5 1.4l312.4 82.9c-83.1 87.3-180.3 154.5-284.3 196.6-119.8-43.6-225.2-117.2-307-211.6-114.3-131.8-183-304.2-181.6-492.4 2.4-321.9 209.3-594.5 496.4-695.5 78.9-27.8 163.8-42.6 252.2-41.9 40.9.3 80.9 3.9 119.8 10.5z"/>
        <path class="st1" d="M913.6 488.9l736.7 195.4c34.7 86.9 53.5 181.9 52.8 281.3-1.9 248.9-126 468.4-314.9 601.8l-710.6-188.5c-1.5-.4-3-.9-4.5-1.4-1-.3-2-.7-3-1.1-.3-.1-.6-.3-.9-.4-.3-.1-.6-.2-.8-.4-.5-.2-.9-.4-1.4-.6-.5-.2-1-.5-1.5-.7-.5-.2-1-.5-1.5-.8-.4-.2-.7-.4-1.1-.6-2.4-1.3-4.7-2.9-7-4.6-.5-.3-.9-.7-1.4-1.1-.4-.3-.7-.6-1.1-.9-.7-.5-1.3-1.1-2-1.7-.4-.4-.9-.8-1.3-1.2-.4-.3-.8-.7-1.1-1.1l-.2-.2c-.4-.4-.9-.8-1.3-1.2-.2-.2-.4-.5-.7-.7l-.1-.1-.9-.9c-.7-.7-1.3-1.4-2-2.1-.8-.9-1.6-1.8-2.4-2.8-.9-1.1-1.8-2.3-2.7-3.5-.4-.6-.9-1.2-1.3-1.8-.4-.5-.8-1-1.1-1.6-.3-.5-.6-.9-1-1.4-.4-.6-.8-1.2-1.3-1.9-.4-.6-.7-1.1-1.1-1.7-.3-.5-.7-1.1-1-1.6-.1-.1-.2-.3-.3-.5-.3-.5-.6-1-1-1.6-.3-.5-.6-1-.8-1.5-1.1-1.9-2.2-3.9-3.2-5.9-.4-.7-.8-1.5-1.1-2.2-.2-.3-.3-.7-.5-1l-.9-1.8c-.3-.8-.7-1.5-1-2.3-.3-.7-.7-1.5-1-2.2-1.4-3.1-2.7-6.3-3.9-9.6-.3-.7-.5-1.3-.7-2-.3-.9-.7-1.8-1-2.8s-.6-1.9-1-2.8c-.2-.5-.3-1-.5-1.5-.4-1.3-.8-2.5-1.2-3.8-.3-1-.6-1.9-.9-2.9-.3-.9-.5-1.8-.8-2.7-.7-2.6-1.5-5.2-2.1-7.8l-.9-3.6c-.6-2.4-1.1-4.8-1.7-7.2-.4-1.6-.7-3.3-1.1-5-.2-.9-.4-1.8-.6-2.8-.3-1.3-.5-2.6-.7-3.9-.4-2.1-.8-4.2-1.1-6.4-.1-.4-.1-.8-.2-1.1-.4-2.2-.7-4.4-1.1-6.7-.1-.6-.2-1.3-.3-1.9-.1-.6-.2-1.3-.3-1.9-.2-1.3-.4-2.5-.5-3.8-.5-3.8-1-7.7-1.4-11.7-.1-1.3-.3-2.6-.4-4-.1-1.3-.3-2.7-.4-4-.1-1.3-.2-2.7-.4-4-.1-1.4-.2-2.7-.3-4.1-.1-1.4-.2-2.7-.3-4.1l-.3-4.2-.3-4.2c-.1-1.4-.2-2.8-.2-4.2-.1-1.4-.1-2.8-.2-4.3-.1-2.9-.2-5.7-.3-8.7 0-1.5-.1-2.9-.1-4.4-.1-5.7-.2-11.6-.2-17.5v-5c0-3 .1-6.1.1-9.2 0-1.5.1-3.1.1-4.6.1-3.1.2-6.3.3-9.4.1-1.6.1-3.2.2-4.7.1-3.2.3-6.4.5-9.6l.3-4.8c.1-1.5.2-3 .3-4.6.1-1.9.2-3.8.4-5.7.1-1.5.2-2.9.3-4.4.1-.9.1-1.8.2-2.7.2-2.2.3-4.4.5-6.5l.6-6.6c.2-2 .4-4.1.6-6.1.3-2.8.6-5.7.9-8.5.2-1.6.3-3.2.5-4.8.2-2 .5-4.1.7-6.1.2-2 .5-4.1.7-6.2.3-2.9.7-5.8 1.1-8.7l.9-6.9c.1-.5.1-.9.2-1.4.2-1.2.3-2.4.5-3.6.2-1.2.3-2.4.5-3.6.4-2.6.8-5.3 1.2-7.9v-.3c.4-2.5.8-5.1 1.2-7.6.3-1.8.6-3.6.9-5.3.3-2 .7-4.1 1-6.1.3-1.7.6-3.4.9-5 .2-1.1.4-2.3.6-3.4.6-3.3 1.2-6.7 1.8-10 .4-2.1.8-4.1 1.2-6.2.5-2.5 1-4.9 1.5-7.4l.9-4.5c1.2-5.7 2.3-11.4 3.6-17.1.4-1.9.8-3.8 1.3-5.7.2-1.1.5-2.2.7-3.3l.9-3.9.9-3.9c.7-3.2 1.5-6.5 2.3-9.8.4-1.6.8-3.3 1.2-4.9 2-8.2 4.1-16.4 6.3-24.7.7-2.7 1.4-5.4 2.2-8.1l.3-1.2c.7-2.5 1.3-4.9 2-7.4.4-1.3.7-2.5 1.1-3.8.2-.7.4-1.3.6-2 1.4-5 2.8-9.9 4.3-14.8.3-.9.5-1.8.8-2.7.8-2.8 1.7-5.5 2.5-8.2l1.8-5.7c.7-2.3 1.4-4.6 2.2-6.9 1.1-3.3 2.1-6.7 3.2-10 .6-1.8 1.1-3.5 1.7-5.3.8-2.3 1.5-4.6 2.3-6.9.5-1.3.9-2.7 1.4-4 .6-1.6 1.1-3.2 1.7-4.7.4-1.1.8-2.2 1.1-3.3.3-1 .7-1.9 1-2.9.6-1.7 1.2-3.5 1.8-5.2.5-1.4 1-2.7 1.5-4 .4-1.1.8-2.2 1.2-3.2.4-1 .7-2 1.1-3 .6-1.7 1.3-3.4 1.9-5.1.9-2.4 1.8-4.7 2.7-7.1 1.7-4.3 3.3-8.6 5-12.9.7-1.6 1.3-3.3 2-4.9.8-1.9 1.6-3.9 2.4-5.8.7-1.6 1.3-3.2 2-4.8.5-1.3 1.1-2.6 1.6-3.8 4.7-11.2 9.5-22.2 14.5-32.8.6-1.4 1.3-2.8 2-4.2.7-1.5 1.4-2.9 2.1-4.4 1.5-3.1 3-6.2 4.4-9.2.6-1.2 1.2-2.5 1.8-3.7.8-1.6 1.6-3.2 2.3-4.7.1-.1.1-.3.2-.4.4-.7.7-1.5 1.1-2.2.3-.7.7-1.3 1-2 .7-1.4 1.4-2.8 2.2-4.3.5-1.1 1.1-2.1 1.6-3.1 1.5-2.9 3-5.7 4.5-8.5 1-1.9 2-3.7 3-5.5.6-1.2 1.3-2.3 1.9-3.5.6-1 1.2-2.1 1.7-3.1.1-.2.2-.3.3-.5.7-1.2 1.4-2.4 2.1-3.7.1-.2.3-.5.4-.7.6-1.1 1.2-2.1 1.8-3.2 1-1.8 2-3.5 3-5.2.5-.9 1.1-1.9 1.7-2.8 1.6-2.7 3.2-5.4 4.8-8 .7-1.1 1.4-2.3 2.1-3.4 1.6-2.6 3.2-5.1 4.8-7.6.5-.8 1.1-1.7 1.6-2.5 1-1.5 2-3.1 3-4.6.8-1.2 1.5-2.3 2.3-3.5 2.3-3.5 4.6-6.8 6.9-10.2.8-1.1 1.5-2.2 2.3-3.3 3.2-4.5 6.4-8.8 9.6-13 .4-.5.7-1 1.1-1.4 1.1-1.4 2.2-2.9 3.3-4.3.8-1 1.6-2 2.3-2.9.4-.5.7-.9 1.1-1.4 1.2-1.5 2.4-2.9 3.6-4.4.8-.9 1.6-1.9 2.3-2.8 4.7-5.5 9.4-10.7 14.1-15.6l.9-.9 2.3-2.3c.6-.6 1.2-1.2 1.7-1.8 1.6-1.5 3.1-3.1 4.7-4.5.7-.7 1.4-1.3 2.1-2 .9-.8 1.7-1.6 2.6-2.3.8-.7 1.7-1.5 2.5-2.2.9-.8 1.8-1.6 2.7-2.3.8-.7 1.6-1.3 2.3-2 2.1-1.7 4.2-3.4 6.3-5 .6-.5 1.3-1 1.9-1.5 1.7-1.2 3.4-2.5 5.1-3.6 1.5-1 3-2 4.4-2.9 1.5-1 3-1.9 4.6-2.8.7-.4 1.5-.9 2.3-1.3.1 0 .2-.1.2-.1 1.4-.8 2.9-1.6 4.3-2.3.8-.4 1.5-.8 2.3-1.1.7-.4 1.5-.7 2.2-1.1 1.5-.7 3-1.3 4.5-1.9.7-.3 1.5-.6 2.2-.9.7-.3 1.5-.6 2.2-.8.7-.3 1.5-.5 2.2-.7 1.5-.5 3-.9 4.4-1.3 1.4-.4 2.9-.7 4.3-1 .7-.2 1.4-.3 2.2-.4.7-.1 1.4-.2 2.2-.4.7-.1 1.4-.2 2.2-.3.7-.1 1.4-.2 2.1-.2 2.9-.3 5.7-.3 8.5-.2.7 0 1.4.1 2.1.1.7 0 1.4.1 2.1.2.7.1 1.4.2 2.1.2h.1c.3 0 .6.1.9.1h.1c.2 0 .4 0 .5.1.4.1.8.1 1.2.2 1.3.2 2.9.5 4.4.9z"/>
        <path class="st1" d="M1373.3 342.4c58.6 87.8 100.6 190.3 123.2 301.2L913.6 488.9c-1.5-.4-3.1-.7-4.6-1-.4-.1-.8-.1-1.2-.2-.2 0-.4-.1-.5-.1h-.1c-.3-.1-.6-.1-.9-.1h-.1c-.7-.1-1.4-.2-2.1-.2-.7-.1-1.4-.1-2.1-.2-.7 0-1.4-.1-2.1-.1-2.8-.1-5.6 0-8.5.2-.7.1-1.4.1-2.1.2-.7.1-1.4.2-2.2.3-.7.1-1.4.2-2.2.4-.7.1-1.4.3-2.2.4-1.4.3-2.9.6-4.3 1-1.5.4-3 .8-4.4 1.3-.7.2-1.5.5-2.2.7-.7.3-1.5.5-2.2.8-.7.3-1.5.6-2.2.9-1.5.6-3 1.2-4.5 1.9-.7.3-1.5.7-2.2 1.1-.8.4-1.5.7-2.3 1.1-1.4.7-2.8 1.5-4.3 2.3-.1.1-.2.1-.2.1-.8.4-1.5.9-2.3 1.3-1.5.9-3 1.8-4.6 2.8-1.5.9-3 1.9-4.4 2.9l-5.1 3.6c-.6.5-1.3 1-1.9 1.5-2.1 1.6-4.2 3.3-6.3 5-.8.6-1.6 1.3-2.3 2-.9.8-1.8 1.5-2.7 2.3-.8.7-1.7 1.5-2.5 2.2-.8.8-1.7 1.5-2.6 2.3-.7.6-1.4 1.3-2.1 2-1.6 1.5-3.1 3-4.7 4.5-.6.6-1.2 1.2-1.7 1.8-.7.8-1.5 1.5-2.3 2.3l-.9.9c-4.7 4.9-9.4 10.1-14.1 15.6-.8.9-1.6 1.9-2.3 2.8-1.2 1.4-2.4 2.9-3.6 4.4-.4.5-.7.9-1.1 1.4-.8 1-1.6 2-2.3 2.9-1.1 1.4-2.2 2.8-3.3 4.3-.4.5-.7 1-1.1 1.4-3.2 4.2-6.4 8.5-9.6 13-.8 1.1-1.6 2.2-2.3 3.3-2.3 3.3-4.6 6.7-6.9 10.2-.8 1.2-1.5 2.3-2.3 3.5-1 1.5-2 3-3 4.6-.5.8-1.1 1.7-1.6 2.5-1.6 2.5-3.2 5-4.8 7.6-.7 1.1-1.4 2.3-2.1 3.4-1.6 2.6-3.2 5.3-4.8 8-.6.9-1.1 1.9-1.7 2.8-1 1.7-2 3.5-3 5.2-.6 1-1.2 2.1-1.8 3.2-.1.2-.3.5-.4.7-.7 1.2-1.4 2.4-2.1 3.7-.1.2-.2.3-.3.5-.6 1-1.2 2.1-1.7 3.1-.6 1.2-1.3 2.3-1.9 3.5-1 1.8-2 3.7-3 5.5-1.5 2.8-3 5.6-4.5 8.5-.5 1-1.1 2.1-1.6 3.1-.7 1.4-1.5 2.8-2.2 4.3-.3.7-.7 1.3-1 2-.4.7-.8 1.5-1.1 2.2-.1.1-.1.3-.2.4-.8 1.6-1.6 3.1-2.3 4.7-.6 1.2-1.2 2.5-1.8 3.7-1.5 3-3 6.1-4.4 9.2-.7 1.5-1.4 2.9-2.1 4.4-.7 1.4-1.3 2.8-2 4.2-4.9 10.7-9.8 21.6-14.5 32.8-.5 1.3-1.1 2.6-1.6 3.8-.7 1.6-1.3 3.2-2 4.8-.8 1.9-1.6 3.8-2.4 5.8-.7 1.6-1.3 3.3-2 4.9-1.7 4.3-3.4 8.6-5 12.9-.9 2.3-1.8 4.7-2.7 7.1-.6 1.7-1.3 3.4-1.9 5.1-.4 1-.7 2-1.1 3-.4 1.1-.8 2.1-1.2 3.2-.5 1.3-1 2.7-1.5 4-.6 1.7-1.2 3.4-1.8 5.2-.3 1-.7 1.9-1 2.9-.4 1.1-.8 2.2-1.1 3.3-.6 1.6-1.1 3.2-1.7 4.7-.4 1.3-.9 2.7-1.4 4-.8 2.3-1.5 4.6-2.3 6.9-.6 1.7-1.2 3.5-1.7 5.3-1.1 3.3-2.2 6.6-3.2 10-.7 2.3-1.5 4.6-2.2 6.9l-1.8 5.7c-.8 2.7-1.7 5.5-2.5 8.2-.3.9-.5 1.8-.8 2.7-1.5 4.9-2.9 9.8-4.3 14.8-.2.7-.4 1.3-.6 2-.4 1.3-.7 2.5-1.1 3.8-.7 2.4-1.4 4.9-2 7.4l-.3 1.2c-.7 2.7-1.5 5.4-2.2 8.1-2.2 8.3-4.3 16.5-6.3 24.7-.4 1.6-.8 3.3-1.2 4.9-.8 3.3-1.6 6.5-2.3 9.8l-.9 3.9-.9 3.9c-.3 1.1-.5 2.2-.7 3.3-.4 1.9-.8 3.8-1.3 5.7l-3.6 17.1-.9 4.5c-.5 2.5-1 5-1.5 7.4-.4 2.1-.8 4.1-1.2 6.2-.6 3.3-1.2 6.7-1.8 10-.2 1.1-.4 2.3-.6 3.4-.3 1.7-.6 3.4-.9 5-.4 2-.7 4.1-1 6.1-.3 1.8-.6 3.6-.9 5.3-.4 2.6-.8 5.1-1.2 7.6v.3c-.4 2.7-.8 5.3-1.2 7.9-.2 1.2-.4 2.4-.5 3.6-.2 1.2-.3 2.4-.5 3.6-.1.5-.1.9-.2 1.4l-.9 6.9c-.4 2.9-.8 5.8-1.1 8.7-.3 2.1-.5 4.1-.7 6.2-.2 2-.5 4.1-.7 6.1-.2 1.6-.3 3.2-.5 4.8-.3 2.8-.6 5.7-.9 8.5-.2 2-.4 4.1-.6 6.1l-.6 6.6c-.2 2.2-.4 4.4-.5 6.5-.1.9-.1 1.8-.2 2.7-.1 1.5-.2 2.9-.3 4.4-.1 1.9-.3 3.8-.4 5.7-.1 1.5-.2 3-.3 4.6l-.3 4.8c-.2 3.2-.3 6.4-.5 9.6-.1 1.6-.1 3.2-.2 4.7-.1 3.2-.2 6.3-.3 9.4 0 1.6-.1 3.1-.1 4.6-.1 3.1-.1 6.2-.1 9.2v5c0 5.9.1 11.7.2 17.5 0 1.5.1 2.9.1 4.4l.3 8.7c.1 1.4.1 2.9.2 4.3s.1 2.8.2 4.2a12007838731592944 12007838731592944 0 0 1 .9 12.5c.1 1.4.2 2.7.3 4.1.1 1.4.2 2.7.4 4 .1 1.3.3 2.7.4 4 .1 1.3.3 2.6.4 4 .4 4 .9 7.8 1.4 11.7.2 1.3.3 2.5.5 3.8.1.6.2 1.3.3 1.9.1.6.2 1.3.3 1.9.3 2.3.7 4.5 1.1 6.7.1.4.1.8.2 1.1.4 2.2.7 4.3 1.1 6.4.2 1.3.5 2.6.7 3.9.2.9.4 1.9.6 2.8.3 1.7.7 3.3 1.1 5 .5 2.4 1.1 4.8 1.7 7.2l.9 3.6c.7 2.7 1.4 5.3 2.1 7.8.3.9.5 1.8.8 2.7.3 1 .6 2 .9 2.9.4 1.3.8 2.6 1.2 3.8.2.5.3 1 .5 1.5.3.9.6 1.9 1 2.8s.6 1.8 1 2.8c.2.7.5 1.3.7 2 1.3 3.3 2.6 6.5 3.9 9.6.3.7.6 1.5 1 2.2.3.8.7 1.5 1 2.3l.9 1.8c.2.4.3.7.5 1 .4.8.7 1.5 1.1 2.2 1 2 2.1 4 3.2 5.9.3.5.6 1 .8 1.5.3.5.6 1.1 1 1.6.1.2.2.3.3.5.3.6.7 1.1 1 1.6.4.6.7 1.1 1.1 1.7.4.6.8 1.3 1.3 1.9.3.5.6.9 1 1.4.4.5.8 1.1 1.1 1.6.4.6.9 1.2 1.3 1.8.9 1.2 1.8 2.3 2.7 3.5.8.9 1.6 1.9 2.4 2.8.6.7 1.3 1.4 2 2.1l.9.9.1.1.7.7c.4.4.9.8 1.3 1.2l.2.2c.4.4.8.7 1.1 1.1.4.4.9.8 1.3 1.2.7.6 1.3 1.1 2 1.7.4.3.7.6 1.1.9.5.4.9.7 1.4 1.1 2.3 1.7 4.6 3.2 7 4.6.4.2.7.4 1.1.6.5.3 1 .5 1.5.8.5.3 1 .5 1.5.7.5.2.9.4 1.4.6.3.1.6.2.8.4.3.1.6.3.9.4 1 .4 2 .8 3 1.1 1.5.5 3 1 4.5 1.4l565.8 150.1c-68.6 72-146.7 130.4-230.3 172.2-19.3 1.4-38.8 2-58.5 1.8-87.4-.7-171.1-16.4-248.8-44.7-119.8-43.6-225.2-117.2-307-211.6-114.3-131.8-183-304.2-181.6-492.4 2.4-321.9 209.3-594.5 496.4-695.5 78.9-27.8 163.8-42.6 252.2-41.9 40.8.3 80.7 3.9 119.7 10.5 105.2 18 202.8 58 288 115.1z"/>
        <path class="st1" d="M527.1 1422.4s-218.8-250.5-127.8-593.6 413.9-485 413.9-485"/>
        <path class="st1" d="M604.9 1044.2l1009.8 267.9"/>
        <path class="st1" d="M688.7 733.9l1011.8 268.4"/>
    </g>
</svg>
