<svg xmlns="http://www.w3.org/2000/svg" viewBox="0 0 1920 1920">
    <style>
        .st0{fill:#fff}.st1{fill:none;stroke:#231f20;stroke-width:50;stroke-linecap:round;stroke-linejoin:round;stroke-miterlimit:10}
    </style>
    <path class="st0" d="M1450.8 216.9c30.4 0 55.3 24.9 55.3 55.3V531H413.9V272.3c0-30.4 24.9-55.3 55.3-55.3h981.6zM730 377.4c0 32.8 26.5 59.3 59.3 59.3s59.3-26.6 59.3-59.3c0-32.8-26.6-59.3-59.3-59.3-32.8 0-59.3 26.6-59.3 59.3zm-160.4 59.4c32.8 0 59.3-26.6 59.3-59.3 0-32.8-26.6-59.3-59.3-59.3-32.8 0-59.3 26.6-59.3 59.3-.1 32.7 26.5 59.3 59.3 59.3z" id="Layer_2"/>
    <path class="st0" d="M789.3 318.1c32.8 0 59.3 26.6 59.3 59.3 0 32.8-26.6 59.3-59.3 59.3-32.8 0-59.3-26.6-59.3-59.3 0-32.7 26.5-59.3 59.3-59.3zm-279.1 59.3c0 32.8 26.6 59.3 59.3 59.3 32.8 0 59.3-26.6 59.3-59.3 0-32.8-26.6-59.3-59.3-59.3-32.7 0-59.3 26.6-59.3 59.3z" id="Layer_3"/>
    <path class="st0" d="M564.5 1102.2c16 204.5 186.9 365.4 395.5 365.4s379.6-161 395.5-365.4c.8-10.3 1.2-20.8 1.2-31.3 0-219.1-177.6-396.7-396.7-396.7s-396.7 177.6-396.7 396.7c0 10.6.4 21 1.2 31.3zM1506.1 531v1024.6c0 30.4-24.9 55.3-55.3 55.3H469.2c-30.4 0-55.3-24.9-55.3-55.3V531h1092.2z" id="Layer_4"/>
    <path class="st0" d="M1356.7 1070.9c0 10.5-.4 21-1.2 31.3-7.5 47.4-48.5 83.6-98 83.6-54.8 0-99.2-44.4-99.2-99.2 0 54.8-44.4 99.2-99.2 99.2-54.8 0-99.2-44.4-99.2-99.2 0 54.8-44.4 99.2-99.2 99.2-54.8 0-99.2-44.4-99.2-99.2 0 54.8-44.4 99.2-99.2 99.2-49.5 0-90.5-36.2-98-83.6-.8-10.3-1.2-20.8-1.2-31.3 0-219.1 177.6-396.7 396.7-396.7s396.9 177.6 396.9 396.7z" id="Layer_5"/>
    <path class="st0" d="M662.5 1185.8c54.8 0 99.2-44.4 99.2-99.2 0 54.8 44.4 99.2 99.2 99.2 54.8 0 99.2-44.4 99.2-99.2 0 54.8 44.4 99.2 99.2 99.2 54.8 0 99.2-44.4 99.2-99.2 0 54.8 44.4 99.2 99.2 99.2 49.5 0 90.5-36.2 98-83.6-16 204.5-186.9 365.4-395.5 365.4s-379.5-161-395.5-365.4c7.3 47.4 48.3 83.6 97.8 83.6z" id="Layer_6"/>
    <path class="st0" d="M1423.1 1610.9v92.2h-114v-92.2h114zm-926.2 0v92.2h114v-92.2h-114z" id="Layer_7"/>
    <g id="STROKES">
        <g id="XMLID_2_">
            <path class="st1" d="M496.9 1610.9h-27.7c-30.4 0-55.3-24.9-55.3-55.3V272.3c0-30.4 24.9-55.3 55.3-55.3h981.5c30.4 0 55.3 24.9 55.3 55.3v1283.3c0 30.4-24.9 55.3-55.3 55.3H1423"/>
            <path class="st1" d="M1309.1 1610.9H610.9"/>
            <path class="st1" d="M413.9 531h1092.2"/>
            <path class="st1" d="M569.6 318.1c32.8 0 59.3 26.6 59.3 59.3 0 32.8-26.6 59.3-59.3 59.3-32.8 0-59.3-26.6-59.3-59.3-.1-32.7 26.5-59.3 59.3-59.3z"/>
            <path class="st1" d="M730 377.4c0-32.8 26.5-59.3 59.3-59.3s59.3 26.6 59.3 59.3c0 32.8-26.6 59.3-59.3 59.3-32.8.1-59.3-26.5-59.3-59.3z"/>
            <path class="st1" d="M564.5 1102.2c-.8-10.3-1.2-20.8-1.2-31.3 0-219.1 177.6-396.7 396.7-396.7s396.7 177.6 396.7 396.7c0 10.5-.4 21-1.2 31.3-16 204.5-186.9 365.4-395.5 365.4s-379.5-160.9-395.5-365.4z"/>
            <path class="st1" d="M761.6 1086.6c0 54.8-44.4 99.2-99.2 99.2-49.5 0-90.5-36.2-98-83.6-.8-5.1-1.2-10.3-1.2-15.6"/>
            <path class="st1" d="M960 1086.6c0 54.8-44.4 99.2-99.2 99.2-54.8 0-99.2-44.4-99.2-99.2"/>
            <path class="st1" d="M1158.4 1086.6c0 54.8-44.4 99.2-99.2 99.2-54.8 0-99.2-44.4-99.2-99.2"/>
            <path class="st1" d="M1356.7 1086.6c0 5.3-.4 10.5-1.2 15.6-7.5 47.4-48.5 83.6-98 83.6-54.8 0-99.2-44.4-99.2-99.2"/>
            <path class="st1" d="M496.9 1610.9h114v92.2h-114z"/>
            <path class="st1" d="M1309.1 1610.9h114v92.2h-114z"/>
        </g>
    </g>
</svg>
