<svg xmlns="http://www.w3.org/2000/svg" viewBox="0 0 1920 1920">
    <style>
        .st0{fill:#fff}.st1{fill:none;stroke:#231f20;stroke-width:50;stroke-linecap:round;stroke-linejoin:round;stroke-miterlimit:10}
    </style>
    <path class="st0" d="M1493 216.9c32.4 0 59 26.6 59 59v231.6H368V276c0-32.5 26.5-59 59-59h1066zM670.8 361.4c0 34.9 28.3 63.2 63.2 63.2s63.2-28.3 63.2-63.2c0-34.9-28.3-63.2-63.2-63.2s-63.2 28.2-63.2 63.2zm-206.7 0c0 34.9 28.3 63.2 63.2 63.2 34.9 0 63.2-28.3 63.2-63.2 0-34.9-28.3-63.2-63.2-63.2-34.9-.1-63.2 28.2-63.2 63.2zm413.3 0c0 34.9 28.3 63.2 63.2 63.2 34.9 0 63.2-28.3 63.2-63.2 0-34.9-28.3-63.2-63.2-63.2-34.9-.1-63.2 28.2-63.2 63.2z" id="Layer_14"/>
    <path class="st0" d="M940.7 298.1c34.9 0 63.2 28.3 63.2 63.2 0 34.9-28.3 63.2-63.2 63.2-34.9 0-63.2-28.3-63.2-63.2-.1-34.9 28.2-63.2 63.2-63.2zm-269.9 63.3c0 34.9 28.3 63.2 63.2 63.2s63.2-28.3 63.2-63.2c0-34.9-28.3-63.2-63.2-63.2s-63.2 28.2-63.2 63.2zm-206.7 0c0 34.9 28.3 63.2 63.2 63.2 34.9 0 63.2-28.3 63.2-63.2 0-34.9-28.3-63.2-63.2-63.2-34.9-.1-63.2 28.2-63.2 63.2z" id="Layer_15"/>
    <path class="st0" d="M368 507.6h1184v88.3H368z" id="Layer_16"/>
    <path class="st0" d="M1552 595.9V1644c0 32.4-26.6 59-59 59H427c-32.5 0-59-26.6-59-59V595.9h1184zm-195.3 557.7c0-219.1-177.6-396.7-396.7-396.7s-396.7 177.6-396.7 396.7 177.6 396.7 396.7 396.7 396.7-177.6 396.7-396.7z" id="Layer_17"/>
    <path class="st0" d="M960 756.9c219.1 0 396.7 177.6 396.7 396.7s-177.6 396.7-396.7 396.7-396.7-177.6-396.7-396.7S740.9 756.9 960 756.9zm290.6 500.1c11.5-32.3 17.8-67.1 17.8-103.4 0-47.5-10.7-92.5-29.9-132.6-49.6-103.9-155.7-175.8-278.5-175.8-170.3 0-308.4 138.1-308.4 308.4S789.7 1462 960 1462c134.1 0 248.1-85.5 290.6-205z" id="Layer_18"/>
    <path class="st0" d="M1268.4 1153.6c0 36.3-6.3 71.1-17.8 103.4H1005v-236h233.5c19.2 40.2 29.9 85.2 29.9 132.6z" id="Layer_19"/>
    <path class="st0" d="M1250.6 1257c-42.5 119.5-156.6 205-290.6 205-170.3 0-308.4-138.1-308.4-308.4S789.7 845.2 960 845.2c122.8 0 228.9 71.8 278.5 175.8H1005v236h245.6z" id="Layer_20"/>
    <g id="STROKES">
        <g id="XMLID_2_">
            <path class="st1" d="M368 507.6h1184"/>
            <path class="st1" d="M368 595.9h1184"/>
            <path class="st1" d="M1552 595.9V1644c0 32.4-26.6 59-59 59H427c-32.5 0-59-26.6-59-59V276c0-32.5 26.5-59 59-59h1066c32.4 0 59 26.6 59 59v319.9z"/>
            <path class="st1" d="M960 756.9c219.1 0 396.7 177.6 396.7 396.7s-177.6 396.7-396.7 396.7-396.7-177.6-396.7-396.7S740.9 756.9 960 756.9z"/>
            <path class="st1" d="M1250.6 1257c-42.5 119.5-156.6 205-290.6 205-170.3 0-308.4-138.1-308.4-308.4S789.7 845.2 960 845.2c122.8 0 228.9 71.8 278.5 175.8 19.2 40.2 29.9 85.2 29.9 132.6 0 36.3-6.3 71.1-17.8 103.4z"/>
            <path class="st1" d="M1238.5 1021H1005v236h245.6"/>
            <path class="st1" d="M527.3 298.1c34.9 0 63.2 28.3 63.2 63.2 0 34.9-28.3 63.2-63.2 63.2-34.9 0-63.2-28.3-63.2-63.2 0-34.9 28.3-63.2 63.2-63.2z"/>
            <path class="st1" d="M734 298.1c34.9 0 63.2 28.3 63.2 63.2 0 34.9-28.3 63.2-63.2 63.2s-63.2-28.3-63.2-63.2c0-34.9 28.3-63.2 63.2-63.2z"/>
            <path class="st1" d="M940.7 298.1c34.9 0 63.2 28.3 63.2 63.2 0 34.9-28.3 63.2-63.2 63.2-34.9 0-63.2-28.3-63.2-63.2-.1-34.9 28.2-63.2 63.2-63.2z"/>
            <path class="st1" d="M1091.9 361.4h364"/>
        </g>
    </g>
</svg>
