<svg xmlns="http://www.w3.org/2000/svg" viewBox="0 0 1920 1920">
    <style>
        .st0{fill:#fff}.st1{fill:none;stroke:#231f20;stroke-width:50;stroke-linecap:round;stroke-linejoin:round;stroke-miterlimit:10}
    </style>
    <path class="st0" d="M1293.3 1137.5l-59.9 19.8-224 74.1-382.6-126.6 281.4-93.1 385.1 125.5v.3zM983.2 556.3l-356.4 118 368.9 122.1 66-21.8c71.5-23.7 131-69.7 171.7-128.8 37.9-55.1 59.5-121.5 59.4-191.8L983.2 556.3z" id="Layer_2"/>
    <path class="st0" d="M1293.3 1567.9l-264.3-86.1-169.1-55.1c-139.2-45.4-233.4-175.3-233.1-321.8l382.6 126.6 53.1 17.6c71.1 23.5 130.3 69.2 170.9 127.9 37.9 54.7 59.7 120.9 59.9 190.9zm-230.9-749.5l-66.8-22.1-368.8-122.1c-.3 146.5 93.8 276.4 233.1 321.8l48.3 15.7 385.1 125.5c-.1-70-21.9-136.2-59.9-191-40.7-58.6-99.9-104.3-171-127.8zM1239.5 300c-87.2 0-164.3 43.6-210.6 110.1-28.8 41.4-45.7 91.8-45.7 146.2l309.6-102.4V300h-53.3z" id="Layer_3"/>
    <g id="STROKE">
        <g id="XMLID_1_">
            <path class="st1" d="M995.7 796.3l66-21.8c71.5-23.7 131-69.7 171.7-128.8 37.9-55.1 59.5-121.5 59.4-191.8L983.2 556.3l-356.4 118"/>
            <path class="st1" d="M908.1 1011.8l-281.3 93.1h-.1"/>
            <path class="st1" d="M1293.3 1137.5l-60 19.9-223.9 74.1"/>
            <path class="st1" d="M1293.3 1137.2l-385.1-125.5-48.4-15.7c-139.2-45.4-233.4-175.3-233.1-321.8l368.9 122.1 66.8 22.1c71.1 23.5 130.3 69.2 170.9 127.9 38 54.8 59.8 120.9 60 190.9z"/>
            <path class="st1" d="M1233.3 1376.9c38 54.8 59.8 121 59.9 191l-264.3-86.1-169.1-55.1c-139.2-45.4-233.4-175.3-233.1-321.8l382.6 126.6 53.1 17.6c71.1 23.5 130.3 69.1 170.9 127.8z"/>
            <path class="st1" d="M1292.8 453.9V300h-53.2c-87.2 0-164.3 43.6-210.6 110.1-28.8 41.4-45.7 91.8-45.7 146.2"/>
            <path class="st1" d="M686.7 1301.8v369.3"/>
            <path class="st1" d="M1233.3 1559v112.1"/>
            <path class="st1" d="M1028.9 1481.7v189.4"/>
            <path class="st1" d="M1028.9 216.9v193.2"/>
            <path class="st1" d="M1292.8 216.9V300"/>
            <path class="st1" d="M1233.3 1157.4v219.5"/>
            <path class="st1" d="M1233.3 645.6v302.2"/>
            <path class="st1" d="M1302.8 1700.8c-59.8 0-112.5-40.6-143.1-70.5-16.3-15.9-40.2-15.9-56.5 0-30.7 29.9-83.3 70.5-143.1 70.5"/>
            <path class="st1" d="M1645.6 1700.8c-59.8 0-112.5-40.6-143.1-70.5-16.3-15.9-40.2-15.9-56.5 0-30.7 29.9-83.3 70.5-143.1 70.5"/>
            <path class="st1" d="M274.4 1700.8c59.8 0 112.5-40.6 143.1-70.5 16.3-15.9 40.2-15.9 56.5 0 30.7 29.9 83.3 70.5 143.1 70.5"/>
            <path class="st1" d="M960 1700.8c-59.8 0-112.5-40.6-143.1-70.5-16.3-15.9-40.2-15.9-56.5 0-30.7 29.9-83.3 70.5-143.1 70.5"/>
        </g>
    </g>
</svg>
