<svg xmlns="http://www.w3.org/2000/svg" viewBox="0 0 1920 1920">
    <style>
        .st0{fill:#fff}.st1{fill:none;stroke:#231f20;stroke-width:50;stroke-linecap:round;stroke-linejoin:round;stroke-miterlimit:10}
    </style>
    <path class="st0" d="M945 213.1L1636.2 1314c-179.9 141.2-416.7 227-676.2 227-269.2 0-514-92.3-696.1-243L945 213.1zm381.2 1059.5c69.1-29.4-87.5-192.5-87.5-192.5s18.4 221.9 87.5 192.5zm-215.8-353.8c69.1-29.4-87.5-192.5-87.5-192.5s18.4 221.8 87.5 192.5zm-160.2 486.8c75.1 0-5.2-211.3-5.2-211.3s-69.9 211.3 5.2 211.3zM782.5 880.8c71.1 24.3 63.6-201.6 63.6-201.6s-134.6 177.2-63.6 201.6zM565 1261.4c63.4 40.2 108.8-181.3 108.8-181.3S501.5 1221.2 565 1261.4z" id="Layer_6"/>
    <path class="st0" d="M1636.2 1314l77.8 123.8c-197.8 162.3-462.8 261.6-753.9 261.6-301 0-573.9-106-773.6-278.1l77.5-123.4c182.1 150.7 426.9 243 696.1 243 259.4 0 496.2-85.7 676.1-226.9z" id="Layer_7"/>
    <path class="st0" d="M846.1 679.2s7.5 225.9-63.6 201.6c-71-24.4 63.6-201.6 63.6-201.6zm264.3 239.6c69.1-29.4-87.5-192.5-87.5-192.5s18.4 221.8 87.5 192.5zm215.8 353.8c69.1-29.4-87.5-192.5-87.5-192.5s18.4 221.9 87.5 192.5zm-376 133c75.1 0-5.2-211.3-5.2-211.3s-69.9 211.3 5.2 211.3zM565 1261.4c63.4 40.2 108.8-181.3 108.8-181.3S501.5 1221.2 565 1261.4z" id="Layer_8"/>
    <g id="STROKES">
        <g id="XMLID_1_">
            <path class="st1" d="M945 1194.3s-69.9 211.3 5.2 211.3-5.2-211.3-5.2-211.3z"/>
            <path class="st1" d="M263.9 1297.9l-77.5 123.4C386.1 1593.4 659 1699.4 960 1699.4c291.2 0 556.2-99.3 753.9-261.6l-77.8-123.8"/>
            <path class="st1" d="M263.9 1297.9c182.1 150.7 426.9 243 696.1 243 259.5 0 496.3-85.8 676.2-227L945 213.1 263.9 1297.9z"/>
            <path class="st1" d="M673.8 1080.2s-172.2 141-108.8 181.3c63.4 40.1 108.8-181.3 108.8-181.3z"/>
            <path class="st1" d="M846.1 679.2s-134.6 177.3-63.6 201.6c71.1 24.3 63.6-201.6 63.6-201.6z"/>
            <path class="st1" d="M1022.9 726.3s18.3 221.9 87.5 192.5-87.5-192.5-87.5-192.5z"/>
            <path class="st1" d="M1238.8 1080.2s18.3 221.8 87.5 192.5-87.5-192.5-87.5-192.5z"/>
        </g>
    </g>
</svg>
