<svg xmlns="http://www.w3.org/2000/svg" viewBox="0 0 1920 1920">
    <style>
        .st0{fill:#fff}.st1{fill:none;stroke:#231f20;stroke-width:50;stroke-linecap:round;stroke-linejoin:round;stroke-miterlimit:10}
    </style>
    <path class="st0" d="M963.3 213.1c349.6 2.1 632.5 334.8 632.5 745 0 409.8-282.4 742.3-631.7 744.9 166.6-2.1 313.5-129.3 401.6-322.5.9-2.3 1.7-4.3 2.6-6.4 7.7-21.1 5.9-69.6 25.7-60.1 28.7 13.8 34.3 10.8 6-16-28.4-26.9 19-69 44-97 7-8 7-21 0-31-4-5-11-7-12-14-4-29 46.2-39.6 65.2-60.6 9-10-28.2-37.4-36.2-48.4-7-9-15-17-15-29 2-31 66.9-76.4 47.6-105.6-.9-1.4-44.7 10.8-45.7 9.5-20-29.9-10-66.9-3-100.9 3-19 29.4-52.3 21.4-69.3-3-6-42.4 3.3-41.4-3.7 10-54 3.7-50.6-15.3-97.6-3-10-29.2-70.7-28.7-81.4 1.1-23 38.1-62.8-35-59-18.1.9-11-33-18.4-47.6-2-3.4-4.2-7-6.3-10.5-89.1-145.7-216.4-237.3-357.9-238.8zm-1.9 0h2.5c78 3.3 137.9 107.8 186.4 296.8 4.3 16.8 15.3 58.2 19.1 76.2 5 24.3 10.5 42.8 14.3 69 3.5 24.4 4.8 45.1 7.1 71.1.2 2.8-8.3 28.2-8.2 31.2C1184 785 1175 809 1167 835c0 2 1 5 2 6 12 10 19 22 20.8 36.5.1 3 .2 5.9.3 8.8.3 11.8.6 23.7.8 35.6 0 3 .1 6 .1 9 0 6 18.5 10.9 18.8 17 .1 2.8-.1 29.2 0 31.8-.6 17.9-2.5 14.5-9.5 32.5 1 14.8 9.5 39.6 9.5 47.6 0 26-21.8 20.2-26.8 47.2-3 17-13 32-8 48 3 9 8.5 17.5 12 26.2 1.2 2.9 2.1 5.9 2.7 8.9 1.3 6.9.3 12.9-2.7 18.9-1.8 3.1-3.3 6.2-4.7 9.4-9.8 22.3-11.3 45.9-4.3 69.5 1 3-1 7-1 10-5 20-18 35-21.1 55.4-.5 2.4-.9 4.8-1.4 7.1-40.8 204.4-111.8 340.4-192.6 342.5 107-1 203.5-88.8 272.3-229.2 1.8-3.7 3.6-7.5 5.3-11.3 6.5-10.6 3.5-25.6 8.5-35.6 9-19 28-32 33-55 2-11-1-22 3-32 11-30 23-60 26.1-91.9l1.5-7.2c2-9.7 3.9-19.5 5.8-29.4.4-2.5.9-4.9 1.3-7.4-78.9-56.7-2.3-56.6 11.2-80 13.2-22.8 9-55-10-79-9-12 7-30 10.1-45.7.8-2.5 3.1-5.2 2.6-8-9.1-46-35.2-71.8 3.3-124.3 11.1-15.2-4.5-50.9-4.8-69.7-.3-18.8 4.3-33-2.4-51.7-.5-2.6-23.8-71.6-22.8-95.6 0-25-18-41-41-46 12-39 20-82-9.6-115.2-1-2-1.9-4.1-2.9-6.1-69.2-163.4-173.2-268-289.8-269.6-.3.1-.8.1-1.2.1zm64.5 250.7c36.3-21.4-14.4-106.3-17.2-126.9-14.6-108.7-25.1-122.5-44.9-123.7h-3.6c-20.4.2-39.1 59.6-54 158.9-.6 3.7-1.1 7.4-1.6 11.2-3.2 43.8-6.4 85.8-16 128.8-4 21 .8 40 4 61 4 29-14.3 52-17.5 81-2.4 21 21.7 43.4 8.8 60-25.8 33.1-.2 30.2 13.6 58.5 6.1 12.5-36.8 89.1-23.3 110.1 5.6 7-1.4 99-1.4 107.5.1 2.5 27.6 34.8 27.7 37 3 28.1-19.1-.9-16.7 28.1.8 9-8.7 68.3-8 71.5 1.9 9.4 14.4 39.4 9.2 48.2-1.7 2.9-3.7 5.8-5.8 8.5-6.3 9.7 10.4 75.7 10.4 89.7.8 6 .8 11 2.4 18 2.4 15 8 85 12.8 88 14.3 7-3.2 33-2.7 49.3-.3 3.6-.4 7.3 0 11.2-.2 3.4-.4 6.9-.7 10.3-1.1 13.7-2.7 27.3-2.1 41.4.2 2.1.5 4.2.8 6.2 15.7 127.2 37 205.4 60.4 205.7h.2c21.1-.4 34.5-180.2 59.1-204.4 14.5-14.3-16.9-73.1-16.4-77 8-76.4 42.5-52.7 28.9-128.7-1.6-11-8.8-32-3.2-47 11.2-30 23.1-61 16.7-96-8-44-9.8-55.9-9.8-58 .1-8.4.1-16.8.2-25.3 0-2.1-2.5-6.1-.7-13.1.4-1.3 5-15.4 5.5-16.6 3.3-5.4 16-88 15.2-93-5.6-34-28.4-27.3-24.7-61.4 0-3.3 31-22 30.9-25.1-.2-12.3-8.6-93.5-10.2-105.5-3.9-24.7-35.5-71.9-11.4-72.8 44.9-1.9 14.7-78.6 1-118.2-10.7-31 28.3-31.9 20.6-60.3-.6-2.5-38.4-35.9-36.5-37.1zm-68-250.7c-88.4.9-169.7 61.1-234 161.2-11.8 18.4-28.4 37.9-39 58.9-9.8 19.4-13.7 40.1-22.4 61.5-.8 2-32 31.6-32.8 33.6-7.1 24.2 37.6 43.5 27.6 67.5-6 17-32.3 12.1-37.4 29.6-.6 2.3-1.2 4.7-1.8 7-5.1 20.4-9.7 41.4-13.8 62.8-.7 3.6-1.4 7.1-2 10.8-2.3 18-3.3 36-7.3 54-7 32-20 63-9 96 3 9 1 19-5 26-6 6-15 12-13 18 11 30 11 56 0 85-1 5-2 10 0 15 14 36 43 86 18 122-32 47-6 49.3.7 97 .7 2.3 20.6 34.7 30.1 37.4 3-8.6 5.4-12.8 4.8-5.5-.4 4.8-2.2 6.3-4.8 5.5-4.2 12.2-9.4 33.2-8.6 43.6.5 3 25.3 30.8 25.7 33.9.4 3 .8 6.1 1.1 9.2 1 8 4 15 6.6 21.9.8 2.2 33.3 38.5 34.1 40.7 67.5 198 150.8 295.5 280.5 297.4h2.6c-55.8-1-106.9-65.8-146.7-172.8-1.3-3.6-2.7-7.2-4-10.9-3-6.3-3-12.3-2-18.3 4-14 18-30 11-38-31-31-67-55-51.9-102.2-.2-2.6-.6-5.1-1.1-7.4-.5-2.4-.9-4.8-1.4-7.2C758 1329 784 1326 786 1316c3-32-47-45-62-69-19-29 2-32 27-51 8-6-5.7-44-12.7-47-18-7-19.3 0-16.3-26 2-14 11-26 10.1-40.6-.2-2.9-.3-5.8-.4-8.7-.4-8.7-.8-17.4-1.1-26.2-.1-2.9 0-5.8.9-8.5 6.6-16 39.6-14 31.6-34-8-19-24-33-39-48-5-4-12-5-17-9-7-7-5-19 0-25 34-40 71-115.3 27-158.3-17-18 0-31.7 21-49.7 27-25 3-67-10-95-4-9-6.5-33.8 1.5-47.8 14-25 36.3-25.2 26.3-51.3-17-44.2 18.2-70.7 18.8-73 41.8-181.2 91.6-234 166.6-234.8h-.4zM586.8 1444.3c-10.8-16.3-8.6-45.6-26.8-50.3-33.4-8.6-22.8-38.5-42.8-67.5-25-38-37.6-64.7-47.6-104.7-.5-2.3.8-67.6.4-70-1.8-11.7 12.8-5.1 12-16.8-1-14-4.4-27.6-13-36-39.6-38.6-19.1-52.6-28.1-84.4-5.9-20.9-77.4-82.2 28.1-135.6 19.2-9.7-13-42-2-61 3-5.4 5.9-10.8 8.7-16.2 2.8-5.4 13.8-10.8 9.9-15.9-38.2-48.7-31.1-29.1 6.4-64.9 12.5-11.9 12.6-47.1 14.2-52.5.6-2.4-27.8-15.7-27.1-18.1 2-7.1 33.2-3.1 35.3-10 2-2 4.2-3.8 7.4-5.6C548 623 537 597 526 577c-9-16 12-29 25.5-36.3 1.1-2 24-69.1 25.2-71.1 65.6-143.6 151.9-215 260.2-242.5-292.2 67.2-512.7 368.9-512.7 731 0 410.1 282.8 742.8 632.3 744.9h-.4c-145.8-1.7-276.5-99.2-365.9-252.9-1.1-1.9-2.2-3.9-3.4-5.8z" id="Layer_4"/>
    <path class="st0" d="M963.3 213.1c141.5 1.4 268.7 93.1 358 238.8 2.1 3.5 4.3 7 6.3 10.5 7.4 14.6.3 48.5 18.4 47.6 73.1-3.8 36.1 36 35 59-.5 10.8 25.7 71.4 28.7 81.4 19 47 25.3 43.6 15.3 97.6-1 7 38.4-2.3 41.4 3.7 8 17-18.4 50.3-21.4 69.3-7 34-17 71 3 100.9.9 1.3 44.8-10.9 45.7-9.5 19.2 29.2-45.6 74.6-47.6 105.6 0 12 8 20 15 29 8 11 45.2 38.4 36.2 48.4-19 21-69.2 31.6-65.2 60.6 1 7 8 9 12 14 7 10 7 23 0 31-25 28-72.4 70.1-44 97 28.3 26.8 22.7 29.8-6 16-19.8-9.6-18 39-25.7 60.1-.9 2.1-1.7 4.2-2.6 6.4-88.1 193.2-235 320.4-401.6 322.5h-3.7 1.5c107-1 203.5-88.8 272.3-229.2 1.8-3.7 3.6-7.5 5.3-11.3 6.5-10.6 3.5-25.6 8.5-35.6 9-19 28-32 33-55 2-11-1-22 3-32 11-30 23-60 26.1-91.9l1.5-7.2c2-9.7 3.9-19.5 5.8-29.4.4-2.5.9-4.9 1.3-7.4-78.9-56.7-2.3-56.6 11.2-80 13.2-22.8 9-55-10-79-9-12 7-30 10.1-45.7.8-2.5 3.1-5.2 2.6-8-9.1-46-35.2-71.8 3.3-124.3 11.1-15.2-4.5-50.9-4.8-69.7-.3-18.8 4.3-33-2.4-51.7-.5-2.6-23.8-71.6-22.8-95.6 0-25-18-41-41-46 12-39 20-82-9.6-115.2-1-2-1.9-4.1-2.9-6.1-69.2-163.4-173.2-268-289.8-269.6h.6zM1191 931c0-3-.1-6-.1-9-.2-12-.4-23.8-.8-35.6-.1-3-.2-5.9-.3-8.8C1188 863 1181 851 1169 841c-1-1-2-4-2-6 8-26 17-50 15.5-77.5-.1-3 8.5-28.5 8.2-31.2-2.3-26-3.6-46.7-7.1-71.1-3.8-26.2-9.2-44.7-14.3-69-3.7-17.9-14.7-59.3-19.1-76.2-48.5-189-108.4-293.5-186.4-296.8 19.8 1.2 30.3 15 44.9 123.7 2.8 20.6 53.4 105.5 17.2 126.9-1.9 1.1 35.9 34.6 36.3 36.9 7.7 28.4-31.3 29.3-20.6 60.3 13.7 39.6 43.9 116.3-1 118.2-24.1 1 7.5 48.2 11.4 72.8 1.6 12 10 93.2 10.2 105.5.1 3.1-30.9 21.8-30.9 25.1-3.7 34.1 19.1 27.4 24.7 61.4.8 5-11.9 87.6-15.2 93-.5 1.2-5.1 15.3-5.5 16.6-1.8 6.9.8 10.9.7 13.1 0 8.5-.1 16.9-.2 25.3 0 2.1 1.8 14 9.8 58 6.4 35-5.6 66-16.7 96-5.6 15 1.6 36 3.2 47 13.5 76-21 52.3-28.9 128.7-.5 3.9 30.9 62.7 16.4 77-24.6 24.1-38 204-59.1 204.4h1.5c80.9-2.1 151.8-138.1 192.6-342.5.5-2.4.9-4.7 1.4-7.1 3.1-20.4 16.1-35.4 21.1-55.4 0-3 2-7 1-10-7-23.6-5.6-47.2 4.3-69.5 1.4-3.2 3-6.3 4.7-9.4 3-6 4-12 2.7-18.9-.6-3-1.5-5.9-2.7-8.9-3.5-8.8-9-17.2-12-26.2-5-16 5-31 8-48 5-27 26.8-21.2 26.8-47.2 0-8-8.6-32.8-9.5-47.6 7-18 8.9-14.6 9.5-32.5-.1-2.6.1-29 0-31.8-.5-6.2-18.9-11.1-18.9-17.1zM958.2 213.1c-75 .8-124.8 53.6-166.6 234.8-.5 2.3-35.8 28.8-18.8 73 10 26-12.3 26.3-26.3 51.3-8 14-5.5 38.8-1.5 47.8 13 28 37 70 10 95-21 18-38 31.7-21 49.7 44 43 7 118.3-27 158.3-5 6-7 18 0 25 5 4 12 5 17 9 15 15 31 29 39 48 8 20-25 18-31.6 34-.9 2.7-1 5.6-.9 8.5.3 8.8.7 17.5 1.1 26.2.1 2.9.3 5.8.4 8.7 1 14.6-8 26.6-10 40.6-3 26-1.7 19 16.3 26 7 3 20.7 41 12.7 47-25 19-46 22-27 51 15 24 65 37 62 69-2 10-28 13-23.3 30.2.5 2.4.9 4.8 1.4 7.2.5 2.4.9 4.8 1.1 7.4C750 1408 786 1432 817 1463c7 8-7 24-11 38-1 6-1 12 2 18.3 1.3 3.7 2.6 7.3 4 10.9 39.8 107 90.9 171.8 146.7 172.8h1.5c-23.4-.3-44.7-78.5-60.4-205.7-.3-2-.5-4.1-.8-6.2-.6-14.1 1-27.7 2.1-41.4.3-3.4.5-6.9.7-10.3-.3-3.9-.3-7.6 0-11.2-.5-16.3 17-42.3 2.7-49.3-4.8-3-10.4-73-12.8-88-1.6-7-1.6-12-2.4-18 0-14-16.7-80-10.4-89.7 2.1-2.8 4.1-5.6 5.8-8.5 5.2-8.8-7.4-38.8-9.2-48.2-.7-3.2 8.9-62.5 8-71.5-2.4-29 19.7 0 16.7-28.1 0-2.2-27.6-34.5-27.7-37 0-8.5 7-100.5 1.4-107.5-13.5-21 29.3-97.6 23.3-110.1-13.8-28.3-39.4-25.5-13.6-58.5 12.9-16.6-11.2-39-8.8-60 3.2-29 21.5-52 17.5-81-3.2-21-8-40-4-61 9.6-43 12.8-85 16-128.8.5-3.8 1.1-7.5 1.6-11.2 14.9-99.3 33.6-158.7 54-158.9h-.2c-.3.2-.9.2-1.5.2zm-121.3 14c-108.3 27.5-194.5 99-260.2 242.5-1.1 2-24 69.1-25.2 71.1C538 548 517 561 526 577c11 20 22 46-4.2 57.8-3.2 1.8-5.5 3.7-7.4 5.6-2.2 7-33.3 3-35.3 10-.7 2.4 27.7 15.7 27.1 18.1-1.5 5.4-1.7 40.6-14.2 52.5-37.6 35.8-44.6 16.2-6.4 64.9 4 5.1-7.1 10.5-9.9 15.9-2.8 5.4-5.7 10.8-8.7 16.2-11 19 21.2 51.3 2 61-105.5 53.4-34 114.7-28.1 135.6 9 31.8-11.5 45.8 28.1 84.4 8.6 8.4 12 22 13 36 .8 11.7-13.8 5.1-12 16.8.3 2.3-.9 67.6-.4 70 10 40 22.6 66.7 47.6 104.7 20 29 9.4 58.9 42.8 67.5 18.3 4.7 16 34 26.8 50.3 1.1 1.9 2.2 3.9 3.4 5.8 89.5 153.7 220.2 251.2 365.9 252.9-129.7-1.9-213-99.4-280.5-297.4-.7-2.2-33.3-38.5-34.1-40.7-2.6-6.9-5.6-13.9-6.6-21.9-.3-3.1-.7-6.2-1.1-9.2-.4-3.1-25.2-30.9-25.7-33.9-.8-10.4 4.4-31.4 8.6-43.6-9.4-2.7-29.3-35.1-30.1-37.4-6.7-47.7-32.7-50-.7-97 25-36-4-86-18-122-2-5-1-10 0-15 11-29 11-55 0-85-2-6 7-12 13-18 6-7 8-17 5-26-11-33 2-64 9-96 4-18 5-36 7.3-53.9.7-3.6 1.3-7.2 2-10.8 4.1-21.4 8.7-42.4 13.8-62.8.6-2.3 1.2-4.7 1.8-7 5.1-17.5 31.4-12.6 37.4-29.6 10-24-34.7-43.4-27.6-67.5.8-2 32-31.6 32.8-33.6 8.7-21.4 12.6-42.1 22.4-61.5 10.6-20.9 27.2-40.5 39-58.9 64.3-100.1 145.6-160.3 234-161.2-41.3.2-81.8 5-120.9 14z" id="Layer_5"/>
    <g id="STROKES">
        <g id="XMLID_1_">
            <path class="st1" d="M961.4 213.1h2c349.6 2.1 632.5 334.8 632.5 745 0 409.8-282.4 742.3-631.7 744.9"/>
            <path class="st1" d="M960.7 213.1h.6"/>
            <path class="st1" d="M956.5 1703c-349.5-2.2-632.3-334.9-632.3-744.9 0-362.1 220.4-663.8 512.7-731 39.2-9 79.6-13.8 121-14"/>
            <path class="st1" d="M962.8 213.1h.6c141.5 1.4 268.7 93.1 358 238.8 2.1 3.5 4.3 7 6.3 10.5 7.4 14.6.3 48.5 18.4 47.6 73.1-3.8 36.1 36 35 59-.5 10.8 25.7 71.4 28.7 81.4 19 47 25.3 43.6 15.3 97.6-1 7 38.4-2.3 41.4 3.7 8 17-18.4 50.3-21.4 69.3-7 34-17 71 3 100.9.9 1.3 44.8-10.9 45.7-9.5 19.2 29.2-45.6 74.6-47.6 105.6 0 12 8 20 15 29 8 11 45.2 38.4 36.2 48.4-19 21-69.2 31.6-65.2 60.6 1 7 8 9 12 14 7 10 7 23 0 31-25 28-72.4 70.1-44 97 28.3 26.8 22.7 29.8-6 16-19.8-9.6-18 39-25.7 60.1-.9 2.1-1.7 4.2-2.6 6.4-88.1 193.2-235 320.4-401.6 322.5h-3.7"/>
            <path class="st1" d="M957.9 213.1h2.1"/>
            <path class="st1" d="M956.9 1703h-.8c-145.8-1.7-276.5-99.2-365.9-252.9-1.1-1.9-2.2-3.9-3.4-5.8-10.8-16.3-8.6-45.6-26.8-50.3-33.4-8.6-22.8-38.5-42.8-67.5-25-38-37.6-64.7-47.6-104.7-.5-2.3.8-67.6.4-70-1.8-11.7 12.8-5.1 12-16.8-1-14-4.4-27.6-13-36-39.6-38.6-19.1-52.6-28.1-84.4-5.9-20.9-77.4-82.2 28.1-135.6 19.2-9.7-13-42-2-61 3-5.4 5.9-10.8 8.7-16.2 2.8-5.4 13.8-10.8 9.9-15.9-38.2-48.7-31.1-29.1 6.4-64.9 12.5-11.9 12.6-47.1 14.2-52.5.6-2.4-27.8-15.7-27.1-18.1 2-7.1 33.2-3.1 35.3-10 2-2 4.2-3.8 7.4-5.6C548 623 537 597 526 577c-9-16 12-29 25.5-36.3 1.1-2 24-69.1 25.2-71.1 65.6-143.6 151.9-215 260.2-242.5 37.7-9.6 78-13.8 121-14"/>
            <path class="st1" d="M961.4 213.1h1.4c116.6 1.6 220.6 106.2 289.8 269.6 1 2 1.9 4 2.9 6.1C1285 522 1277 565 1265 604c23 5 41 21 41 46-1 24 22.3 93.1 22.8 95.6 6.7 18.6 2.1 32.9 2.4 51.7.3 18.8 15.9 54.5 4.8 69.7-38.5 52.5-12.4 78.3-3.3 124.3.5 2.8-1.8 5.4-2.6 8-3.1 15.7-19.1 33.7-10.1 45.7 19 24 23.2 56.2 10 79-13.5 23.4-90.2 23.3-11.2 80-.4 2.5-.9 5-1.3 7.4-1.8 9.9-3.8 19.7-5.8 29.4l-1.5 7.2c-3.1 31.9-15.1 61.9-26.1 91.9-4 10-1 21-3 32-5 23-24 36-33 55-5 10-2 25-8.5 35.6-1.7 3.8-3.5 7.5-5.3 11.3C1165.6 1614.2 1069 1702 962 1703"/>
            <path class="st1" d="M616.8 1256.4c-9.4-2.7-29.3-35.1-30.1-37.4-6.7-47.7-32.7-50-.7-97 25-36-4-86-18-122-2-5-1-10 0-15 11-29 11-55 0-85-2-6 7-12 13-18 6-7 8-17 5-26-11-33 2-64 9-96 4-18 5-36 7.3-53.9.7-3.6 1.3-7.2 2-10.8 4.1-21.4 8.7-42.4 13.8-62.8.6-2.3 1.2-4.7 1.8-7 5.1-17.5 31.4-12.6 37.4-29.6 10-24-34.7-43.4-27.6-67.5.8-2 32-31.6 32.8-33.6 8.7-21.4 12.6-42.1 22.4-61.5 10.6-20.9 27.2-40.5 39-58.9 64.3-100.1 145.6-160.3 234-161.2h.3"/>
            <path class="st1" d="M616.8 1256.4c3-8.6 5.4-12.8 4.8-5.5-.5 4.8-2.3 6.2-4.8 5.5z"/>
            <path class="st1" d="M958.7 1703h-2.6c-129.7-1.9-213-99.4-280.5-297.4-.7-2.2-33.3-38.5-34.1-40.7-2.6-6.9-5.6-13.9-6.6-21.9-.3-3.1-.7-6.2-1.1-9.2-.4-3.1-25.2-30.9-25.7-33.9-.8-10.4 4.4-31.4 8.6-43.6"/>
            <path class="st1" d="M961.9 213.1h1"/>
            <path class="st1" d="M960.3 213.1h.5"/>
            <path class="st1" d="M960.2 1703.1h-1.5c-55.8-1-106.9-65.8-146.7-172.8-1.3-3.6-2.7-7.2-4-10.9-3-6.3-3-12.3-2-18.3 4-14 18-30 11-38-31-31-67-55-51.9-102.2-.2-2.6-.6-5.1-1.1-7.4-.5-2.4-.9-4.8-1.4-7.2C758 1329 784 1326 786 1316c3-32-47-45-62-69-19-29 2-32 27-51 8-6-5.7-44-12.7-47-18-7-19.3 0-16.3-26 2-14 11-26 10.1-40.6-.2-2.9-.3-5.8-.4-8.7-.4-8.7-.8-17.4-1.1-26.2-.1-2.9 0-5.8.9-8.5 6.6-16 39.6-14 31.6-34-8-19-24-33-39-48-5-4-12-5-17-9-7-7-5-19 0-25 34-40 71-115.3 27-158.3-17-18 0-31.7 21-49.7 27-25 3-67-10-95-4-9-6.5-33.8 1.5-47.8 14-25 36.3-25.2 26.3-51.3-17-44.2 18.2-70.7 18.8-73 41.8-181.2 91.6-234 166.6-234.8h2"/>
            <path class="st1" d="M963.9 213.2c78 3.3 137.9 107.8 186.4 296.8 4.3 16.8 15.3 58.2 19.1 76.2 5 24.3 10.5 42.8 14.3 69 3.5 24.4 4.8 45.1 7.1 71.1.2 2.8-8.3 28.2-8.2 31.2C1184 785 1175 809 1167 835c0 2 1 5 2 6 12 10 19 22 20.8 36.5.1 3 .2 5.9.3 8.8.3 11.8.6 23.7.8 35.6 0 3 .1 6 .1 9 0 6 18.5 10.9 18.8 17 .1 2.8-.1 29.2 0 31.8-.6 17.9-2.5 14.5-9.5 32.5 1 14.8 9.5 39.6 9.5 47.6 0 26-21.8 20.2-26.8 47.2-3 17-13 32-8 48 3 9 8.5 17.5 12 26.2 1.2 2.9 2.1 5.9 2.7 8.9 1.3 6.9.3 12.9-2.7 18.9-1.8 3.1-3.3 6.2-4.7 9.4-9.8 22.3-11.3 45.9-4.3 69.5 1 3-1 7-1 10-5 20-18 35-21.1 55.4-.5 2.4-.9 4.8-1.4 7.1-40.8 204.4-111.8 340.4-192.6 342.5h-1.5"/>
            <path class="st1" d="M963.9 213.2c19.8 1.2 30.3 15 44.9 123.7 2.8 20.6 53.4 105.5 17.2 126.9-1.9 1.1 35.9 34.6 36.3 36.9 7.7 28.4-31.3 29.3-20.6 60.3 13.7 39.6 43.9 116.3-1 118.2-24.1 1 7.5 48.2 11.4 72.8 1.6 12 10 93.2 10.2 105.5.1 3.1-30.9 21.8-30.9 25.1-3.7 34.1 19.1 27.4 24.7 61.4.8 5-11.9 87.6-15.2 93-.5 1.2-5.1 15.3-5.5 16.6-1.8 6.9.8 10.9.7 13.1 0 8.5-.1 16.9-.2 25.3 0 2.1 1.8 14 9.8 58 6.4 35-5.6 66-16.7 96-5.6 15 1.6 36 3.2 47 13.5 76-21 52.3-28.9 128.7-.5 3.9 30.9 62.7 16.4 77-24.6 24.1-38 204-59.1 204.4h-.2c-23.4-.3-44.7-78.5-60.4-205.7-.3-2-.5-4.1-.8-6.2-.6-14.1 1-27.7 2.1-41.4.3-3.4.5-6.9.7-10.3-.3-3.9-.3-7.6 0-11.2-.5-16.3 17-42.3 2.7-49.3-4.8-3-10.4-73-12.8-88-1.6-7-1.6-12-2.4-18 0-14-16.7-80-10.4-89.7 2.1-2.8 4.1-5.6 5.8-8.5 5.2-8.8-7.4-38.8-9.2-48.2-.7-3.2 8.9-62.5 8-71.5-2.4-29 19.7 0 16.7-28.1 0-2.2-27.6-34.5-27.7-37 0-8.5 7-100.5 1.4-107.5-13.5-21 29.3-97.6 23.3-110.1-13.8-28.3-39.4-25.5-13.6-58.5 12.9-16.6-11.2-39-8.8-60 3.2-29 21.5-52 17.5-81-3.2-21-8-40-4-61 9.6-43 12.8-85 16-128.8.5-3.8 1.1-7.5 1.6-11.2 14.9-99.3 33.6-158.7 54-158.9h2.6c.5.2.8.2 1.2.2z"/>
        </g>
    </g>
</svg>
