<svg xmlns="http://www.w3.org/2000/svg" viewBox="0 0 1920 1920">
    <style>
        .st0{fill:#fff}.st1{fill:none;stroke:#231f20;stroke-width:50;stroke-linecap:round;stroke-linejoin:round;stroke-miterlimit:10}
    </style>
    <path class="st0" d="M1319.8 750.7l-71.3 139.9-96.8 190C1045.9 944.4 914 851.2 787.6 787.5c-230.5-116.2-442.4-134-442.4-134V274.1s618.8 42.2 974.6 476.6zM216.9 274.1v379.3h128.3V274.1H216.9z" id="Layer_4"/>
    <path class="st0" d="M1609.6 1264.8c85.5 48.4 118.2 155.2 73.5 242.7l-.8 1.5c-126.5-22.2-237.1-95.8-324.1-175.9l95.5-187.2c46.5 44.5 99 86.7 155.9 118.9zm-361.1-374.2l-96.8 190s77.2 133.4 206.5 252.5l95.5-187.2c-124.7-119.6-205.2-255.3-205.2-255.3z" id="Layer_5"/>
    <g id="STROKE">
        <g id="XMLID_1_">
            <path class="st1" d="M216.9 274.1h128.2v379.4H216.9z"/>
            <path class="st1" d="M1319.8 750.7C964 316.3 345.2 274.1 345.2 274.1"/>
            <path class="st1" d="M345.2 653.5s211.8 17.8 442.4 134c126.4 63.7 258.3 157 364.2 293.1"/>
            <path class="st1" d="M787.6 787.5v858.4"/>
            <path class="st1" d="M1358.2 1333v312.9"/>
            <path class="st1" d="M216.9 653.5v992.4"/>
            <path class="st1" d="M1319.8 750.7l-71.3 139.9-96.8 190s77.2 133.4 206.5 252.5c87 80.1 197.5 153.7 324.1 175.9l.8-1.5c44.7-87.5 12-194.2-73.5-242.7-56.8-32.2-109.4-74.4-155.8-118.9-124.8-119.6-205.2-255.3-205.2-255.3"/>
            <path class="st1" d="M1358.2 1333l95.5-187.1"/>
        </g>
    </g>
</svg>
