<svg xmlns="http://www.w3.org/2000/svg" viewBox="0 0 1920 1920">
    <style>
        .st0{fill:#fff}.st1{fill:none;stroke:#231f20;stroke-width:50;stroke-linecap:round;stroke-linejoin:round;stroke-miterlimit:10}
    </style>
    <path class="st0" d="M1386 996.1c7.7 15.4 11.3 31.9 11.3 48.1 0 40.1-22.2 78.8-60.3 97.8l-242.9 118.3h-2.9v1.4l-265.7 129.4L595 1503.3s-55.7-80.4 72.6-150.5c0 0-4.5-119.2 49.1-145.8l108.8-54.1 265.7-132 149-74c31.6-15.7 67.3-14.5 96.8.1 20.6 10.3 38.1 27 49 49.1zm5.8-269.3c0-16.2-3.6-32.6-11.3-48.1-9.9-20-25.3-35.6-43.5-46-30.5-17.3-68.8-19.8-102.4-3.1l-143.4 71.2-265.7 132-114.4 56.8c-53.6 26.6-75.7 92.2-49 145.8 26.6 53.6 92.2 75.7 145.8 49l16.9-8.4 266.1-132.2 240.6-119.5c1.9-.9 3.8-1.9 5.6-3 34.6-19.5 54.7-56.4 54.7-94.5zm-300.6-101.7l230.7-114.6c5.3-2.6 10.3-5.7 15-9 28.9-20.7 45.3-54.2 45.3-88.7 0-16.2-3.6-32.6-11.3-48.1-7.6-15.4-18.4-28.1-31.3-37.9-32-24.4-76.3-30.1-114.6-11.2l-134.6 66.9-388.8 193.1c-53.6 26.6-75.7 92.2-49 145.8 26.6 53.6 92.2 75.7 145.8 49.1l27.1-13.5 265.7-131.9z" id="Layer_6"/>
    <g id="STROKE">
        <g id="XMLID_1_">
            <path class="st1" d="M825.5 757l-27.1 13.5c-53.6 26.6-119.2 4.5-145.8-49.1-26.6-53.6-4.5-119.2 49-145.8l388.9-193.2 134.6-66.9c38.2-19 82.6-13.2 114.6 11.2 12.8 9.8 23.7 22.5 31.3 37.9 7.7 15.4 11.3 31.9 11.3 48.1 0 34.5-16.4 68-45.3 88.7-4.7 3.4-9.7 6.4-15 9L1091.3 625 825.5 757z"/>
            <path class="st1" d="M824.8 1076.2l-16.9 8.4c-53.6 26.6-119.2 4.5-145.8-49-26.6-53.6-4.6-119.2 49-145.8L825.5 833l265.7-132 143.4-71.2c33.6-16.7 71.9-14.2 102.4 3.1 18.2 10.3 33.5 25.9 43.5 46 7.7 15.4 11.3 31.9 11.3 48.1 0 38.1-20 75-54.8 94.8-1.8 1-3.7 2-5.6 3l-240.6 119.5-266 131.9z"/>
            <path class="st1" d="M825.5 1391.1L595 1503.3s-55.7-80.4 72.6-150.5c0 0-4.5-119.2 49.1-145.8l108.8-54.1 265.7-132 149-74c31.6-15.7 67.3-14.5 96.8.1 20.6 10.2 38.1 26.9 49.1 48.9 7.7 15.4 11.3 31.9 11.3 48.1 0 40.1-22.2 78.8-60.3 97.8l-242.9 118.3-2.9 1.4-265.8 129.6z"/>
            <path class="st1" d="M825.5 1391.1v309"/>
            <path class="st1" d="M825.5 757v75.9"/>
            <path class="st1" d="M825.5 1077.7v75.3"/>
            <path class="st1" d="M1337 1141.9V1703"/>
            <path class="st1" d="M733.4 1600.2c0 56.8-54.3 102.9-121.2 102.9-66.8 0-121-45.9-121.2-102.6v-.3"/>
            <path class="st1" d="M491 1600.2v.3c-.2 56.7-54.4 102.6-121.2 102.6-66.9 0-121.2-46.1-121.2-102.9"/>
            <path class="st1" d="M975.8 1600.2c0 56.8-54.3 102.9-121.2 102.9-10 0-19.8-1-29.1-3-52.9-11.1-92.1-51.6-92.1-99.9"/>
            <path class="st1" d="M1218.2 1600.2c0 56.8-54.3 102.9-121.2 102.9s-121.2-46.1-121.2-102.9"/>
            <path class="st1" d="M1460.6 1600.2c0 56.8-54.3 102.9-121.2 102.9h-2.4c-65.8-1.1-118.8-46.7-118.8-102.9"/>
            <path class="st1" d="M1703.1 1600.2c0 56.8-54.3 102.9-121.2 102.9s-121.2-46.1-121.2-102.9"/>
            <path class="st1" d="M1337 821.6v125.6"/>
            <path class="st1" d="M1337 501.6v131.2"/>
            <path class="st1" d="M1090.5 382.5V216.9"/>
            <path class="st1" d="M1339.7 326.8V216.9"/>
            <path class="st1" d="M1091.2 625.1v75.8"/>
            <path class="st1" d="M1091.2 944.7v76.3"/>
            <path class="st1" d="M1091.2 1260.2v412.5"/>
            <path class="st1" d="M1091.2 1368.6h236.7"/>
            <path class="st1" d="M1091.2 1477h236.7"/>
            <path class="st1" d="M1091.2 1260.2h236.7"/>
            <path class="st1" d="M1091.2 264.5h236.7"/>
        </g>
    </g>
</svg>
