<svg xmlns="http://www.w3.org/2000/svg" viewBox="0 0 1920 1920">
    <style>
        .st0{fill:#fff}.st1{fill:none;stroke:#231f20;stroke-width:50;stroke-linecap:round;stroke-linejoin:round;stroke-miterlimit:10}
    </style>
    <path class="st0" d="M1164.1 487.4v53.2H743.3v-53.2c0-54.6 54.2-77.9 131.2-84.2 1.1-2 2.6-4.6 4.2-7.7 11.2-21 31.6-64 31.6-97.8 0-31.4-9.4-50.1-15.5-58.9-3.3-1.9-5.1-4-5.1-6.2 0-8.7 28.7-15.8 64-15.8s64 7.1 64 15.8c0 2.2-1.8 4.3-5.1 6.2-6.1 8.8-15.5 27.4-15.5 58.9 0 33.8 20.4 76.7 31.6 97.8 1.6 3.1 3.1 5.7 4.2 7.7 77 6.3 131.2 23.2 131.2 84.2z" id="Layer_7"/>
    <path class="st0" d="M1164.1 540.6H743.3l-52.2 350.3h525.2z" id="Layer_8"/>
    <path class="st0" d="M731.7 1703.1h444.1l40.5-732.2H691.1z" id="Layer_10"/>
    <path class="st0" d="M710.1 890.9h487.3v80H710.1z" id="Layer_9"/>
    <g id="STROKES">
        <path class="st1" d="M1032.9 403.2c-1.2-2-2.6-4.6-4.2-7.7-11.2-21-31.6-64-31.6-97.8 0-31.4 9.4-50.1 15.5-58.8 3.3-1.9 5.1-4 5.1-6.2 0-8.7-28.7-15.8-64-15.8-35.4 0-64 7.1-64 15.8 0 2.2 1.8 4.3 5.1 6.2 6.1 8.8 15.5 27.4 15.5 58.8 0 33.8-20.4 76.7-31.6 97.8-1.6 3.1-3.1 5.7-4.2 7.7-76.9 6.3-131.2 29.5-131.2 84.2v53.2h420.8v-53.2c0-61-54.2-77.9-131.2-84.2z"/>
        <path class="st1" d="M691.1 970.9l40.6 732.2h444.1l40.5-732.2H953.7z"/>
        <path class="st1" d="M1216.3 890.9l-52.2-350.3H743.3l-52.2 350.3h262.6z"/>
        <path class="st1" d="M710.1 890.9h487.3v80H710.1z"/>
    </g>
</svg>
