<svg xmlns="http://www.w3.org/2000/svg" viewBox="0 0 1920 1920">
    <style>
        .st0{fill:#fff}.st1{fill:none;stroke:#231f20;stroke-width:50;stroke-linecap:round;stroke-linejoin:round;stroke-miterlimit:10}
    </style>
    <path class="st0" d="M1161.4 562.6v102c0 13.1-10.6 23.8-23.8 23.8H782.4c-13.1 0-23.8-10.6-23.8-23.8v-102c0-13.1 10.6-23.8 23.8-23.8h355.3c13.1 0 23.7 10.7 23.7 23.8z" id="Layer_5"/>
    <path class="st0" d="M1127 756.1h-32.8v-67.7H825.8v67.7H793c-34.8 0-63 28.2-63 63v821c0 34.8 28.2 63 63 63h334c34.8 0 63-28.2 63-63v-821c0-34.8-28.2-63-63-63z" id="Layer_6"/>
    <g id="STROKES">
        <path class="st1" d="M1127 1703.1H793c-34.8 0-63-28.2-63-63v-821c0-34.8 28.2-63 63-63h334c34.8 0 63 28.2 63 63v821c0 34.7-28.2 63-63 63z"/>
        <path class="st1" d="M825.8 688.4h268.4v67.7H825.8z"/>
        <path class="st1" d="M1161.4 562.6v102c0 13.1-10.6 23.8-23.8 23.8H782.4c-13.1 0-23.8-10.6-23.8-23.8v-102c0-13.1 10.6-23.8 23.8-23.8h355.3c13.1 0 23.7 10.7 23.7 23.8z"/>
        <path class="st1" d="M1242.9 485.5v128.1h-81.5v-51c0-13.1-10.6-23.8-23.8-23.8H782.4c-13.1 0-23.8 10.7-23.8 23.8v51h-81.5V485.5c0-148.3 120.2-268.6 268.6-268.6h28.8c148.2.1 268.4 120.3 268.4 268.6z"/>
    </g>
</svg>
