<svg xmlns="http://www.w3.org/2000/svg" viewBox="0 0 1920 1920">
    <style>
        .st0{fill:#fff}.st1{fill:none;stroke:#231f20;stroke-width:50;stroke-linecap:round;stroke-linejoin:round;stroke-miterlimit:10}
    </style>
    <path class="st0" d="M267 515.3h241.9v333.3H267z" id="Layer_43"/>
    <path class="st0" d="M1428.6 515.3h241.9v333.3h-241.9z" id="Layer_44"/>
    <path class="st0" d="M1078.7 1188.7c0-32.4 24.4-93.1 24.8-94.1 0 0-15.8-140.3-37.8-183.2-22 11.1-39.7 26.3-46 32-1.6 1.4-2.4 2.3-2.4 2.3l-.8.8v36.1s-.7 76.1-47.8 76.1c-47 0-46.4-76.1-46.4-76.1V948l-2.1-2.3s-.9-.8-2.4-2.3c-5.5-5-20-17.5-38.5-27.9-13.8 30.4-47.4 111.7-45.3 179.1 0 0 5.1 12.6 10.7 29.5 6.7 20.3 14.1 46.7 14.1 64.6l39.5 36c-3 63.2-40.7 87.7-53.5 94.2 4.1 14.2 6.2 27.9 6.2 27.9s40.9 18.3 117.8 18.3h1.1c76.2-.2 116.7-18.3 116.7-18.3s6.7-10.1 15.7-21.1c-.1 0-58.4-23.2-23.6-137z" id="Layer_45"/>
    <path class="st0" d="M833.9 1094.7C793.4 1062 789.5 985 789.5 985 716.4 975.8 685 864.7 685 864.7 624.9 845.1 572.6 704 572.6 704l6.5-22 .1-.2-6.5-34 56.1-18.3 19.7 40.5-8.5 12-11.1 15.5s-3.9 37.9 53.6 67.9c57.5 30 130.6 134.7 130.6 134.7 22.5-4.7 46.6 4.2 66.2 15.4-13.9 30.5-47.4 111.7-45.4 179.2z" id="Layer_46"/>
    <path class="st0" d="M1358.3 682l6.5 22s-52.3 141.1-112.4 160.7c0 0-31.4 111.1-104.5 120.2 0 0-3.9 77.1-44.4 109.7 0 0-15.8-140.3-37.8-183.2 18.1-9.1 39-15.4 58.7-11.4 0 0 73.2-104.7 130.6-134.7 57.5-30.1 53.6-67.9 53.6-67.9l-11.1-15.5-8.5-12 19.7-40.5 56.1 18.3-6.5 34v.3z" id="Layer_47"/>
    <path class="st0" d="M1030.3 868.6c0 8.8-.2 16.6-.5 23.6-1.7 34.7-6.9 47-10.1 51.3-1.6 1.4-2.4 2.3-2.4 2.3l-.8.8v36.1s-.7 76.1-47.8 76.1c-47 0-46.4-76.1-46.4-76.1V948l-2.1-2.3s-.9-.8-2.4-2.3c-2.9-4-7.7-14.8-9.7-44-.6-8.6-1-18.7-1-30.8v-2.3c1.4-80 121.8-80 123.2 0v2.3z" id="Layer_48"/>
    <path class="st0" d="M850.9 1346.8s-2.1-13.7-6.2-27.9c12.8-6.5 50.5-31 53.5-94.2l-39.5-36s-48.4-26.1-82.3-10.4c-34 15.7-53.6 61.4-43.1 100.6 10.5 39.2 64 154.2 64 154.2s5.4 62.7-26.7 81c-32.1 18.3 0 38.9 0 38.9H826l54.9-44.1-28.8-75.8c.1-.1-7.7-61.5-1.2-86.3z" id="Layer_49"/>
    <path class="st0" d="M1204.1 1278.9c10.4-39.2-9.1-84.9-43.1-100.6-33.8-15.6-81.7 10.1-82.3 10.4-34.8 113.7 23.5 137 23.5 137-9 11-15.7 21.1-15.7 21.1 6.5 24.8-1.3 86.2-1.3 86.2l-28.8 75.8 54.9 44.1h55.4s32.1-20.6 0-38.9c-32.1-18.3-26.7-81-26.7-81s53.6-114.9 64.1-154.1z" id="Layer_50"/>
    <g id="STROKES">
        <path class="st1" d="M931.9 1255.4l-33.6-30.7"/>
        <path class="st1" d="M1030.3 868.6c0 8.8-.2 16.6-.5 23.6-1.7 34.7-7 47-10.1 51.3-1.6 1.4-2.4 2.3-2.4 2.3l-.8.8-24.5 26c-12.6 13.4-33.9 13.4-46.5 0L922.3 948l-2.1-2.3s-.9-.8-2.4-2.3c-2.9-4-7.7-14.8-9.7-44-.6-8.6-.9-18.7-.9-30.8v-2.3c1.4-80 121.8-80 123.2 0-.1.8-.1 1.6-.1 2.3z"/>
        <path class="st1" d="M833.9 1094.7C793.4 1062 789.5 985 789.5 985 716.4 975.8 685 864.7 685 864.7 624.9 845.1 572.6 704 572.6 704l6.5-22 .1-.2-6.5-34 56.1-18.3 19.7 40.5-8.5 12-11.1 15.5s-3.9 37.9 53.6 67.9c57.5 30 130.6 134.7 130.6 134.7 22.5-4.7 46.6 4.2 66.2 15.4-13.9 30.5-47.4 111.7-45.4 179.2z"/>
        <path class="st1" d="M1016.5 946.5v36.1s-.7 76.1-47.8 76.1-46.4-76.1-46.4-76.1V948l23.2 24.6c12.6 13.4 33.9 13.4 46.5 0l24.5-26.1z"/>
        <path class="st1" d="M1358.3 682l6.5 22s-52.3 141.1-112.4 160.7c0 0-31.4 111.1-104.5 120.2 0 0-3.9 77.1-44.4 109.7 0 0-15.8-140.3-37.8-183.2 18.1-9.1 39-15.4 58.7-11.4 0 0 73.2-104.7 130.6-134.7 57.5-30.1 53.6-67.9 53.6-67.9l-11.1-15.5-8.5-12 19.7-40.5 56.1 18.3-6.5 34v.3z"/>
        <path class="st1" d="M1078.7 1188.7l-73.2 66.7"/>
        <path class="st1" d="M267 515.3h80.6v333.3H267z"/>
        <path class="st1" d="M428.2 515.3h80.6v333.3h-80.6z"/>
        <path class="st1" d="M347.6 515.3h80.6v333.3h-80.6z"/>
        <path class="st1" d="M1428.6 515.3h80.6v333.3h-80.6z"/>
        <path class="st1" d="M1509.2 515.3h80.6v333.3h-80.6z"/>
        <path class="st1" d="M1589.9 515.3h80.6v333.3h-80.6z"/>
        <path class="st1" d="M1016.5 946.5v36.1s-.7 76.1-47.8 76.1-46.4-76.1-46.4-76.1V948l23.2 24.6c12.6 13.4 33.9 13.4 46.5 0l24.5-26.1z"/>
        <path class="st1" d="M1078.7 1188.7c-34.8 113.7 23.5 137 23.5 137-8.9 11-15.6 21.1-15.6 21.1s-40.5 18.1-116.7 18.3h-1.1c-76.9 0-117.8-18.3-117.8-18.3s-2.1-13.7-6.2-27.9c12.8-6.5 50.5-31 53.5-94.2l-39.5-36c0-17.8-7.4-44.3-14.1-64.6-5.6-16.9-10.7-29.5-10.7-29.5-2.1-67.5 31.5-148.7 45.3-179.1 18.4 10.5 32.9 22.9 38.5 27.9 1.6 1.4 2.4 2.3 2.4 2.3l2.1 2.3v34.6s-.6 76.1 46.4 76.1 47.8-76.1 47.8-76.1v-36.1l.8-.8s.9-.8 2.4-2.3c6.3-5.7 24-20.9 46-32 22 42.8 37.8 183.2 37.8 183.2-.4 1-24.8 61.7-24.8 94.1z"/>
        <path class="st1" d="M852.2 1433l28.8 75.8-54.9 44.1h-55.4s-32.1-20.6 0-38.9 26.7-81 26.7-81-53.6-115-64-154.2c-10.5-39.2 9.1-84.9 43.1-100.6 34-15.7 82.3 10.4 82.3 10.4l39.5 36c-3 63.2-40.7 87.7-53.5 94.2 4.1 14.2 6.2 27.9 6.2 27.9-6.6 24.9 1.2 86.3 1.2 86.3z"/>
        <path class="st1" d="M1140.1 1433s-5.4 62.7 26.7 81 0 38.9 0 38.9h-55.4l-54.9-44.1 28.8-75.8s7.8-61.4 1.3-86.2c0 0 6.7-10.1 15.6-21.1 0 0-58.3-23.3-23.5-137 0 0 48.3-26.1 82.3-10.4 34 15.7 53.6 61.4 43.1 100.6-10.4 39.2-64 154.1-64 154.1z"/>
        <path class="st1" d="M1016.5 946.5v36.1s-.7 76.1-47.8 76.1-46.4-76.1-46.4-76.1V948l23.2 24.6c12.6 13.4 33.9 13.4 46.5 0l24.5-26.1z"/>
        <path class="st1" d="M844.7 1318.9c-3.5-12.2-8.5-24.7-15-29.3"/>
        <path class="st1" d="M1102.2 1325.7c9.2-11.3 20.7-23.6 29.8-27.1"/>
        <path class="st1" d="M1702.3 682h-31.8"/>
        <path class="st1" d="M579.1 682h-70.2"/>
        <path class="st1" d="M1428.6 682h-70.3"/>
        <path class="st1" d="M1297.6 682H639.9"/>
        <path class="st1" d="M267 682h-49.4"/>
    </g>
</svg>
