<svg xmlns="http://www.w3.org/2000/svg" viewBox="0 0 1920 1920">
    <style>
        .st0{fill:#fff}.st1{fill:none;stroke:#231f20;stroke-width:50;stroke-linecap:round;stroke-linejoin:round;stroke-miterlimit:10}
    </style>
    <path class="st0" d="M1480.3 433.5v237.1c0 110.7-26.8 141.7-166 166 0 0-12.8.3-32.6 4.4-59.5 12.3-182.8 59.1-216.9 236.6 0 0-38.7 273.9 81 377-102.6 0-185.8-73.5-185.8-164.2 0 90.7-83.2 164.2-185.8 164.2 119.6-103.1 81-377 81-377C821.1 900.1 697.8 853.3 638.3 841c-19.8-4.1-32.6-4.4-32.6-4.4-139.2-24.3-166-55.2-166-166V433.5s89.9 87.8 284.9 87.8S960 632.4 960 632.4s40.4-111.1 235.4-111.1 284.9-87.8 284.9-87.8z" id="Layer_4"/>
    <g id="STROKES">
        <g id="XMLID_1_">
            <path class="st1" d="M960 1290.4c0 90.7-83.2 164.2-185.8 164.2-102.6 0-185.8-73.5-185.8-164.2"/>
            <path class="st1" d="M588.5 1290.4c0 90.7-83.2 164.2-185.8 164.2-102.6 0-185.8-73.5-185.8-164.2"/>
            <path class="st1" d="M1703.1 1290.4c0 90.7-83.2 164.2-185.8 164.2-102.6 0-185.8-73.5-185.8-164.2"/>
            <path class="st1" d="M1331.5 1290.4c0 90.7-83.2 164.2-185.8 164.2-102.6 0-185.8-73.5-185.8-164.2"/>
            <path class="st1" d="M960 632.4s40.4-111.1 235.4-111.1 284.9-87.8 284.9-87.8v237.1c0 110.7-26.8 141.7-166 166 0 0-12.8.3-32.6 4.4-59.5 12.3-182.8 59.1-216.9 236.6 0 0-38.7 273.9 81 377"/>
            <path class="st1" d="M960 632.4s-40.4-111.1-235.4-111.1-284.9-87.8-284.9-87.8v237.1c0 110.7 26.8 141.7 166 166 0 0 12.8.3 32.6 4.4 59.5 12.3 182.8 59.1 216.9 236.6 0 0 38.7 273.9-81 377"/>
        </g>
    </g>
</svg>
