<svg xmlns="http://www.w3.org/2000/svg" viewBox="0 0 1920 1920">
    <style>
        .st0{fill:#fff}.st1{fill:none;stroke:#231f20;stroke-width:50;stroke-linecap:round;stroke-linejoin:round;stroke-miterlimit:10}
    </style>
    <path class="st0" d="M361.1 1026.3c-90-31.5-138.8-42.3-138.8-42.3 59.2-38.6 322.7-188.5 659.8-49.6 291.6 120.2 415.4-51 458-140.2-21.2-43.8-32.1-91.9-32.1-140.3 0-64.9 19.6-130.4 60.4-187.1 64.8 46.6 107.1 112.8 124.5 184.7 28.2-24.4 60.6-44 96.1-57.5 35.5-13.5 73.9-20.9 114.1-20.9 0 143.5-94.1 264.9-224 306.1-32.8 45.6-94 126.9-172.2 212.8-70.2 43.2-152.8 65.7-222.9 77.2-87.4 14.4-155.3 12-155.3 12 57.7 46.8 67.6 117.9 63.7 175.6-3.7 54.1-19.5 96.6-19.5 96.6-31.4-13.4-58.8-31.3-82.8-51.3-100.3-84-138.2-206.9-138.2-206.9-38.6-19.4-75.4-37.2-110.2-53.4-50.6-23.6-97.2-43.9-139.3-61.3-54.7-22.7-101.9-40.4-141.3-54.2z" id="Layer_5"/>
    <path class="st0" d="M1306.9 1091.9c-58.6 64.3-126.7 131.3-199.6 187.8-40.4-46.8-22.9-107.8-22.9-107.8l-.5-2.8c70.1-11.5 152.7-33.9 223-77.2zm-378.3 89.3c57.7 46.8 67.6 117.9 63.7 175.6 39.2-21.8 77.7-48 115.1-77-40.4-46.8-22.9-107.8-22.9-107.8l-.5-2.8c-87.5 14.4-155.4 12-155.4 12zm-176.8 13.9c-38.6-19.4-75.4-37.2-110.2-53.4 0 0-11.1 94 61.6 276.3 28.2 2.7 56.9 3.6 85.9 2.6 33.4-1.2 67.2-7.7 101-18.5-100.4-84.2-138.3-207-138.3-207zm-249.6-114.8s-22.6 123 50 305.3c47.6 16.2 98.3 27.3 150.9 32.2-72.6-182.3-61.6-276.3-61.6-276.3-50.5-23.4-97.1-43.7-139.3-61.2zm-141.1-54c-.3 1.4-21.2 110.4 51 291.5 42 27.6 89.3 50.6 140.2 67.9-72.6-182.3-50-305.3-50-305.3-54.6-22.6-101.8-40.3-141.2-54.1zm0 0c-90-31.5-138.8-42.3-138.8-42.3-7.2 4.7-5 13-5 21.5-1.2 120.6 75.9 234.4 194.8 312.3-72.2-181.1-51.3-290.1-51-291.5z" id="Layer_3"/>
    <g id="STROKES">
        <g id="XMLID_1_">
            <path class="st1" d="M992.2 1356.8c39.2-21.8 77.7-48 115.1-77 72.9-56.6 141-123.5 199.6-187.8 78.2-85.9 139.5-167.2 172.2-212.8 129.8-41.2 224-162.6 224-306.1-40.2 0-78.7 7.4-114.1 20.9-35.4 13.5-67.9 33.1-96.1 57.5-17.5-71.9-59.7-138.2-124.5-184.7-40.8 56.7-60.4 122.2-60.4 187.1 0 48.4 10.9 96.5 32.1 140.3-42.6 89.2-166.4 260.4-458 140.2-337.1-138.9-600.7 11-659.8 49.6-7.2 4.7-5 13-5 21.5-1.2 120.6 75.9 234.4 194.8 312.3 42 27.6 89.3 50.6 140.2 67.9 47.6 16.2 98.3 27.3 150.9 32.2 28.2 2.7 56.9 3.6 85.9 2.6 33.4-1.2 67.2-7.7 101-18.5"/>
            <path class="st1" d="M222.2 983.9s48.8 10.8 138.8 42.3c39.4 13.8 86.6 31.5 141.2 54.1 42.2 17.4 88.7 37.8 139.3 61.3 34.8 16.2 71.6 34 110.2 53.4 0 0 37.9 122.9 138.2 206.9 23.9 20.1 51.4 37.9 82.8 51.3 0 0 15.8-42.5 19.5-96.6 3.9-57.8-6-128.8-63.7-175.6 0 0 67.9 2.4 155.3-12 70.1-11.6 152.7-34 222.9-77.2"/>
            <path class="st1" d="M361.1 1026.3c-.3 1.5-21.2 110.4 51 291.5"/>
            <path class="st1" d="M502.2 1080.3s-22.6 123 50 305.3"/>
            <path class="st1" d="M641.6 1141.7s-11.1 94 61.6 276.3"/>
            <path class="st1" d="M1084.4 1172s-17.5 61 22.9 107.8"/>
        </g>
    </g>
</svg>
