<svg xmlns="http://www.w3.org/2000/svg" viewBox="0 0 1920 1920">
    <style>
        .st0{fill:#fff}.st1{fill:none;stroke:#231f20;stroke-width:50;stroke-linecap:round;stroke-linejoin:round;stroke-miterlimit:10}
    </style>
    <path class="st0" d="M1695.8 1069.8c35.3 129.9-63 257.7-197.6 257.7h-488.1c-11.6 30.4-31.9 64.2-57.9 91-26 26.8-57.8 46.6-92.3 49-14.5-28.6-33-88.7-8.6-126.6-431.2-13.9-507.8-289.2-497.8-402.8-36-7.3-68.4-25.9-92.8-52.4-24.3-26.5-40.6-60.7-44.5-99.2 67.8-6.9 130.3 26.5 164 80.8 12.2-29 32.2-54.1 57.5-72.5 25.3-18.5 56-30.2 89.5-32.5 5.6 81.4-14.8 142-89.5 165.1 16.4 97.1 60.9 157 105.2 193.6 69.8 57.8 170 59.3 242.8 5.3 75.4-56 138-147.7 174.4-212.1 98.8-174.9 445.2-208.9 601.6-82.8 68.5 55.2 109.5 148 134.1 238.4z" id="Layer_2"/>
    <g id="STROKES">
        <g id="XMLID_1_">
            <path class="st1" d="M1561.6 831.3C1405.3 705.1 1058.9 739.1 960 914c-36.4 64.4-99 156.1-174.4 212.1-72.8 54-173 52.4-242.8-5.3-44.2-36.6-88.8-96.5-105.2-193.6 74.7-23.1 95.1-83.7 89.5-165.1-33.5 2.3-64.2 14.1-89.5 32.5-25.3 18.4-45.3 43.5-57.5 72.5-33.6-54.3-96.2-87.7-164-80.8 3.9 38.5 20.2 72.8 44.5 99.2 24.3 26.5 56.7 45.1 92.8 52.4-10 113.6 66.5 388.9 497.8 402.8-24.4 37.9-5.9 98 8.6 126.6 34.6-2.4 66.3-22.2 92.3-49s46.3-60.6 57.9-91h488.1c134.6 0 232.9-127.8 197.6-257.7-24.5-90.2-65.5-183-134.1-238.3z"/>
            <path class="st1" d="M1202 669.3v-405"/>
            <path class="st1" d="M883.2 636.5c0-77.8 71.4-140.9 159.4-140.9S1202 558.7 1202 636.5"/>
            <path class="st1" d="M1202 636.5c0-77.8 71.4-140.9 159.4-140.9 88.1 0 159.4 63.1 159.4 140.9"/>
            <path class="st1" d="M883.2 438c0-77.8 71.4-140.9 159.4-140.9S1202 360.2 1202 438"/>
            <path class="st1" d="M1202 438c0-77.8 71.4-140.9 159.4-140.9 88.1 0 159.4 63.1 159.4 140.9"/>
        </g>
    </g>
</svg>
