<svg xmlns="http://www.w3.org/2000/svg" viewBox="0 0 1920 1920">
    <style>
        .st0{fill:#fff}.st1{fill:none;stroke:#231f20;stroke-width:50;stroke-linecap:round;stroke-linejoin:round;stroke-miterlimit:10}
    </style>
    <path class="st0" d="M1100.4 952.8c.1 2.2.2 4.3.2 6.5 0 3.1-.1 6.2-.3 9.3l-1.7 14.7c-4 23.4-13.8 44.8-27.9 62.7-22.6 28.8-56.2 48.5-94.4 52.9-5.3.6-10.7.9-16.1.9-44.9 0-84.8-21-110.6-53.8-14.1-17.9-23.9-39.3-27.9-62.7l-1.7-14.7c-.2-3.1-.3-6.2-.3-9.3 0-2.2 0-4.4.2-6.5l2.4-20.3c3.4-17.5 10-33.9 19.3-48.5l17.6-22.4c.9-.9 1.7-1.8 2.6-2.6l24.1-19c12.5-7.8 26.4-13.8 41.2-17.3l33.1-3.9 33.1 3.9c14.8 3.6 28.7 9.5 41.2 17.3l24.1 19 2.6 2.6 17.6 22.4c9.3 14.6 15.9 31 19.3 48.5l2.3 20.3z" id="Layer_7"/>
    <path class="st0" d="M1364.2 1246.2c42.1-59.3 71.4-128.2 84-202.8 4.6-27.1 7-55 7-83.4s-2.4-56.3-7-83.4c-12.7-74.6-42-143.5-84-202.8-32.4-45.7-72.3-85.6-118-118-59.3-42.1-128.2-71.4-202.8-84-27.1-4.6-55-7-83.4-7s-56.3 2.4-83.4 7c-74.6 12.7-143.5 42-202.8 84-45.7 32.4-85.6 72.3-118 118-42.1 59.3-71.4 128.2-84 202.8-4.6 27.1-7 55-7 83.4s2.4 56.3 7 83.4c12.7 74.6 42 143.5 84 202.8 32.4 45.7 72.3 85.6 118 118 59.3 42.1 128.2 71.4 202.8 84 27.1 4.6 55 7 83.4 7s56.3-2.4 83.4-7c74.6-12.7 143.5-42 202.8-84 45.7-32.4 85.6-72.3 118-118zM960 216.9c410.4 0 743.1 332.7 743.1 743S1370.4 1703 960 1703s-743-332.7-743-743.1 332.6-743 743-743z" id="Layer_8"/>
    <g id="STROKES">
        <g id="XMLID_1_">
            <circle class="st1" cx="960" cy="960" r="743"/>
            <path class="st1" d="M1448.3 876.6c4.6 27.1 7 55 7 83.4s-2.4 56.3-7 83.4c-12.7 74.6-42 143.5-84 202.8-32.4 45.7-72.3 85.6-118 118-59.3 42.1-128.2 71.4-202.8 84-27.1 4.6-55 7-83.4 7s-56.3-2.4-83.4-7c-74.6-12.7-143.5-42-202.8-84-45.7-32.4-85.6-72.3-118-118-42.1-59.3-71.4-128.2-84-202.8-4.6-27.1-7-55-7-83.4s2.4-56.3 7-83.4c12.7-74.6 42-143.5 84-202.8 32.4-45.7 72.3-85.6 118-118 59.3-42.1 128.2-71.4 202.8-84 27.1-4.6 55-7 83.4-7s56.3 2.4 83.4 7c74.6 12.7 143.5 42 202.8 84 45.7 32.4 85.6 72.3 118 118 42 59.2 71.3 128.2 84 202.8z"/>
            <path class="st1" d="M1034.4 840c8.7 5.5 16.8 11.8 24.1 19l2.6 2.6c6.6 6.8 12.5 14.3 17.6 22.4 9.3 14.6 15.9 31 19.3 48.5 1.3 6.6 2.1 13.4 2.4 20.3.1 2.2.2 4.3.2 6.5 0 3.1-.1 6.2-.3 9.3-.3 5-.9 9.9-1.7 14.7-4 23.4-13.8 44.8-27.9 62.7-22.6 28.8-56.2 48.5-94.4 52.9-5.3.6-10.7.9-16.1.9-44.9 0-84.8-21-110.6-53.8-14.1-17.9-23.9-39.3-27.9-62.7-.8-4.8-1.4-9.8-1.7-14.7-.2-3.1-.3-6.2-.3-9.3 0-2.2 0-4.4.2-6.5.3-6.9 1.1-13.7 2.4-20.3 3.4-17.5 10-33.9 19.3-48.5 5.1-8 11-15.5 17.6-22.4.9-.9 1.7-1.8 2.6-2.6 7.3-7.2 15.4-13.6 24.1-19"/>
            <path class="st1" d="M885.7 840c12.5-7.8 26.4-13.8 41.2-17.3 10.6-2.6 21.7-3.9 33.1-3.9s22.5 1.4 33.1 3.9c14.8 3.6 28.7 9.5 41.2 17.3"/>
            <path class="st1" d="M818.7 960l.9-7.2 2.4-20.3 3.3-28.3 8.4-70.5 16.5-138.9 26.4-223.1"/>
            <path class="st1" d="M1101.3 960l-.9-7.2-2.4-20.3-3.3-28.3-8.4-70.5-16.5-138.9-26.4-223.1"/>
            <path class="st1" d="M1101.3 960l-1.1 8.6-1.7 14.7-3.8 32.5-8.4 70.5-16.5 138.9-26.4 223.1"/>
            <path class="st1" d="M818.7 960l1.1 8.6 1.7 14.7 3.8 32.5 8.4 70.5 16.5 138.9 26.4 223.1"/>
            <path class="st1" d="M960 818.7l33.1 4 22.7 2.6 70.5 8.4 138.9 16.5 223.1 26.4"/>
            <path class="st1" d="M960 1101.3l16.2-2 39.6-4.6 70.5-8.4 138.9-16.5 223.1-26.4"/>
            <path class="st1" d="M960 1101.3l-55.8-6.6-70.5-8.4-138.9-16.5-223.1-26.4"/>
            <path class="st1" d="M960 818.7l-33.1 4-22.7 2.6-70.5 8.4-138.9 16.5-223.1 26.4"/>
            <path class="st1" d="M860.1 860.1l1.4-1.1 24.1-19h.1l18.5-14.7 55.8-43.9 109.8-86.6 176.4-139h.1"/>
            <path class="st1" d="M1059.9 1059.9l10.8-13.7 24-30.4 43.9-55.8 86.6-109.8 139-176.4v-.1"/>
            <path class="st1" d="M1059.9 1059.9l-44.1 34.8-55.8 43.9-109.8 86.6-176.4 139h-.1"/>
            <path class="st1" d="M860.1 860.1l-1.2 1.5-17.6 22.4-16 20.2-43.9 55.8-86.6 109.8-139 176.4v.1"/>
            <path class="st1" d="M1059.9 860.1l1.2 1.5 17.6 22.4 16 20.2 43.9 55.8 86.6 109.8 139 176.4v.1"/>
            <path class="st1" d="M860.1 1059.9l44.1 34.8 55.8 43.9 109.8 86.6 176.4 139h.1"/>
            <path class="st1" d="M860.1 1059.9l-10.8-13.7-24-30.4-43.9-55.8-86.6-109.8-139-176.4v-.1"/>
            <path class="st1" d="M1059.9 860.1l-1.4-1.1-24.1-19h-.1l-18.5-14.7-55.8-43.9-109.8-86.6-176.4-139h-.1"/>
        </g>
    </g>
</svg>
