<svg xmlns="http://www.w3.org/2000/svg" viewBox="0 0 1920 1920">
    <style>
        .st0{fill:#fff}.st1{fill:none;stroke:#231f20;stroke-width:50;stroke-linecap:round;stroke-linejoin:round;stroke-miterlimit:10}
    </style>
    <ellipse class="st0" cx="960" cy="959.3" rx="140.6" ry="140.6" id="Layer_9"/>
    <path class="st0" d="M1580.2 832.6c8.5 41.7 12.8 84.6 12.8 127.4s-4.3 85.7-12.8 127.4c-8.3 40.7-20.8 80.8-36.9 119.1-15.9 37.6-35.5 73.8-58.4 107.6-22.6 33.5-48.6 65-77.2 93.6-28.6 28.6-60.1 54.6-93.6 77.2-33.8 22.8-70.1 42.5-107.6 58.4-38.3 16.2-78.3 28.6-119.1 36.9-41.7 8.5-84.6 12.8-127.4 12.8s-85.7-4.3-127.4-12.8c-40.7-8.3-80.8-20.8-119.1-36.9-37.6-15.9-73.8-35.5-107.6-58.4-33.5-22.6-65-48.6-93.6-77.2-28.6-28.6-54.6-60.1-77.2-93.6-22.9-33.8-42.5-70.1-58.4-107.6-16.2-38.3-28.6-78.3-36.9-119.1-8.5-41.7-12.8-84.6-12.8-127.4s4.3-85.7 12.8-127.4c8.3-40.7 20.8-80.8 36.9-119.1 15.9-37.6 35.5-73.8 58.4-107.6 22.6-33.5 48.6-65 77.2-93.6 28.6-28.6 60.1-54.6 93.6-77.2 33.8-22.9 70.1-42.5 107.6-58.4 38.3-16.2 78.3-28.6 119.1-36.9 41.7-8.5 84.6-12.8 127.4-12.8s85.7 4.3 127.4 12.8c40.7 8.3 80.8 20.8 119.1 36.9 37.6 15.9 73.8 35.5 107.6 58.4 33.5 22.6 65 48.6 93.6 77.2 28.6 28.6 54.6 60.1 77.2 93.6 22.9 33.8 42.5 70.1 58.4 107.6 16.1 38.3 28.5 78.4 36.9 119.1zM1418.3 1019c2.5-19.3 3.7-39 3.7-59 0-122.9-47.8-234.4-125.9-317.2L1098.3 915l320 104zm-52.7 162.7l-320.1-104v336.5c138.3-25.9 254.7-113.2 320.1-232.5zM960 814.5l197.8-272.3c-60-28.4-127-44.3-197.8-44.3s-137.9 15.9-197.8 44.3L960 814.5zm140.6 144.8c0-77.6-62.9-140.6-140.6-140.6s-140.6 62.9-140.6 140.6 62.9 140.5 140.6 140.5 140.6-62.9 140.6-140.5zm-226.1 454.8v-336.5l-320.1 104c65.4 119.4 181.8 206.7 320.1 232.5zM821.7 915L623.9 642.8C545.8 725.6 498 837.1 498 960c0 20 1.3 39.7 3.7 59l320-104z" id="Layer_10"/>
    <path class="st0" d="M960 216.9c410.4 0 743.1 332.7 743.1 743S1370.4 1703 960 1703s-743-332.7-743-743.1 332.6-743 743-743zM1593 960c0-42.8-4.3-85.7-12.8-127.4-8.3-40.7-20.8-80.8-36.9-119.1-15.9-37.6-35.5-73.8-58.4-107.6-22.6-33.5-48.6-65-77.2-93.6-28.6-28.6-60.1-54.6-93.6-77.2-33.8-22.9-70.1-42.5-107.6-58.4-38.3-16.2-78.3-28.6-119.1-36.9-41.7-8.5-84.6-12.8-127.4-12.8s-85.7 4.3-127.4 12.8c-40.7 8.3-80.8 20.8-119.1 36.9-37.6 15.9-73.8 35.5-107.6 58.4-33.5 22.6-65 48.6-93.6 77.2-28.6 28.6-54.6 60.1-77.2 93.6-22.9 33.8-42.5 70.1-58.4 107.6-16.2 38.3-28.6 78.3-36.9 119.1-8.5 41.7-12.8 84.6-12.8 127.4s4.3 85.7 12.8 127.4c8.3 40.7 20.8 80.8 36.9 119.1 15.9 37.6 35.5 73.8 58.4 107.6 22.6 33.5 48.6 65 77.2 93.6 28.6 28.6 60.1 54.6 93.6 77.2 33.8 22.8 70.1 42.5 107.6 58.4 38.3 16.2 78.3 28.6 119.1 36.9 41.7 8.5 84.6 12.8 127.4 12.8s85.7-4.3 127.4-12.8c40.7-8.3 80.8-20.8 119.1-36.9 37.6-15.9 73.8-35.5 107.6-58.4 33.5-22.6 65-48.6 93.6-77.2 28.6-28.6 54.6-60.1 77.2-93.6 22.9-33.8 42.5-70.1 58.4-107.6 16.2-38.3 28.6-78.3 36.9-119.1 8.5-41.7 12.8-84.6 12.8-127.4z" id="Layer_2"/>
    <g id="STROKES">
        <g id="XMLID_1_">
            <circle class="st1" cx="960" cy="960" r="743"/>
            <path class="st1" d="M1580.2 832.6c-8.3-40.7-20.8-80.8-36.9-119.1-15.9-37.6-35.5-73.8-58.4-107.6-22.6-33.5-48.6-65-77.2-93.6-28.6-28.6-60.1-54.6-93.6-77.2-33.8-22.9-70.1-42.5-107.6-58.4-38.3-16.2-78.3-28.6-119.1-36.9-41.7-8.5-84.6-12.8-127.4-12.8s-85.7 4.3-127.4 12.8c-40.7 8.3-80.8 20.8-119.1 36.9-37.6 15.9-73.8 35.5-107.6 58.4-33.5 22.6-65 48.6-93.6 77.2-28.6 28.6-54.6 60.1-77.2 93.6-22.9 33.8-42.5 70.1-58.4 107.6-16.2 38.3-28.6 78.3-36.9 119.1-8.5 41.7-12.8 84.6-12.8 127.4s4.3 85.7 12.8 127.4c8.3 40.7 20.8 80.8 36.9 119.1 15.9 37.6 35.5 73.8 58.4 107.6 22.6 33.5 48.6 65 77.2 93.6 28.6 28.6 60.1 54.6 93.6 77.2 33.8 22.8 70.1 42.5 107.6 58.4 38.3 16.2 78.3 28.6 119.1 36.9 41.7 8.5 84.6 12.8 127.4 12.8s85.7-4.3 127.4-12.8c40.7-8.3 80.8-20.8 119.1-36.9 37.6-15.9 73.8-35.5 107.6-58.4 33.5-22.6 65-48.6 93.6-77.2 28.6-28.6 54.6-60.1 77.2-93.6 22.9-33.8 42.5-70.1 58.4-107.6 16.2-38.3 28.6-78.3 36.9-119.1 8.5-41.7 12.8-84.6 12.8-127.4s-4.3-85.7-12.8-127.4z"/>
            <path class="st1" d="M501.7 1019c-2.5-19.3-3.7-39-3.7-59 0-122.9 47.8-234.4 125.9-317.2L821.7 915l-320 104z"/>
            <path class="st1" d="M874.5 1414.1c-138.3-25.8-254.7-113.1-320.1-232.5l320.1-104v336.5z"/>
            <path class="st1" d="M762.2 542.3c60-28.4 127-44.3 197.8-44.3s137.9 15.9 197.8 44.3L960 814.5 762.2 542.3z"/>
            <path class="st1" d="M1045.5 1414.1v-336.5l320.1 104c-65.4 119.4-181.8 206.7-320.1 232.5z"/>
            <path class="st1" d="M1418.3 1019l-320-104 197.8-272.2C1374.2 725.6 1422 837.1 1422 960c0 20-1.2 39.7-3.7 59z"/>
            <ellipse class="st1" cx="960" cy="959.3" rx="140.6" ry="140.6"/>
        </g>
    </g>
</svg>
