<svg xmlns="http://www.w3.org/2000/svg" viewBox="0 0 1920 1920">
    <style>
        .st0{fill:#fff}.st1{fill:none;stroke:#231f20;stroke-width:50;stroke-linecap:round;stroke-linejoin:round;stroke-miterlimit:10}
    </style>
    <path class="st0" d="M1026 1034.7c-17.6 15.5-40.7 25-66 25-55 0-99.6-44.6-99.6-99.6 0-24.9 9.2-47.7 24.3-65.2 18.3-21.1 45.3-34.4 75.3-34.4 55 0 99.6 44.6 99.6 99.6 0 29.6-13 56.3-33.6 74.6z" id="Layer_4"/>
    <path class="st0" d="M602.4 611.1c-87.8 90-142 213.1-142 348.9 0 275.9 223.7 499.6 499.6 499.6s499.6-223.7 499.6-499.6S1235.9 460.4 960 460.4c-140.2 0-266.9 57.8-357.6 150.7zM960 313.4c357.1 0 646.6 289.5 646.6 646.6s-289.5 646.6-646.6 646.6S313.4 1317.1 313.4 960 602.9 313.4 960 313.4z" id="Layer_5"/>
    <path class="st0" d="M960 216.9c410.4 0 743.1 332.7 743.1 743S1370.4 1703 960 1703s-743-332.7-743-743.1 332.6-743 743-743zM1606.6 960c0-357.1-289.5-646.6-646.6-646.6S313.4 602.9 313.4 960s289.5 646.6 646.6 646.6 646.6-289.5 646.6-646.6z" id="Layer_6"/>
    <g id="STROKES">
        <g id="XMLID_1_">
            <circle class="st1" cx="960" cy="960" r="743"/>
            <circle class="st1" cx="960" cy="960" r="646.6"/>
            <path class="st1" d="M1459.6 960c0 275.9-223.7 499.6-499.6 499.6S460.4 1235.9 460.4 960c0-135.7 54.1-258.8 142-348.9 90.7-93 217.4-150.7 357.6-150.7 275.9 0 499.6 223.7 499.6 499.6z"/>
            <path class="st1" d="M1059.6 960c0 29.7-13 56.4-33.7 74.7-17.6 15.5-40.7 25-66 25-55 0-99.6-44.6-99.6-99.6 0-24.9 9.2-47.7 24.3-65.2 18.3-21.1 45.3-34.4 75.3-34.4 55.1-.1 99.7 44.5 99.7 99.5z"/>
            <path class="st1" d="M960 860.4v-400"/>
            <path class="st1" d="M1059.6 960h400"/>
            <path class="st1" d="M460.4 960h400"/>
            <path class="st1" d="M960 1059.6v400"/>
            <path class="st1" d="M883.4 892.1l-281-281-1.8-1.8"/>
            <path class="st1" d="M1040.1 876.3l267-267"/>
            <path class="st1" d="M612.3 1304.1L883.4 1033"/>
            <path class="st1" d="M1024.3 1033l1.7 1.7 269.4 269.4"/>
        </g>
    </g>
</svg>
