<svg xmlns="http://www.w3.org/2000/svg" viewBox="0 0 1920 1920">
    <style>
        .st0{fill:#fff}.st1{fill:none;stroke:#231f20;stroke-width:50;stroke-linecap:round;stroke-linejoin:round;stroke-miterlimit:10}
    </style>
    <path class="st0" d="M1127.9 946.8H860.7c-29.1 0-52.7 23.6-52.7 52.7v278.7l55.3 427.5h261.9l55.3-427.5V999.5c0-29.1-23.5-52.7-52.6-52.7zm-5.5 272.4H866.2v-103.8h256.2v103.8z" id="Layer_12"/>
    <path class="st0" d="M866.2 1115.4h256.2v103.8H866.2z" id="Layer_13"/>
    <path class="st0" d="M1071.7 946.8H916.8l27.8-68.4 8.7-21.4c3.4-8.3 9.1-15.2 16.3-20.1 7.2-4.8 15.7-7.5 24.7-7.5s17.6 2.7 24.7 7.5c7.1 4.8 12.9 11.7 16.3 20.1l8.7 21.4 27.7 68.4z" id="Layer_14"/>
    <g id="STROKES">
        <path class="st1" d="M1127.9 946.8H860.7c-29.1 0-52.7 23.6-52.7 52.7v278.7l55.3 427.5h261.9l55.3-427.5V999.5c0-29.1-23.5-52.7-52.6-52.7z"/>
        <path class="st1" d="M866.2 1115.4h256.2v103.8H866.2z"/>
        <path class="st1" d="M866.2 1115.4h256.2v103.8H866.2z"/>
        <path class="st1" d="M921.1 1609.6h135.4"/>
        <path class="st1" d="M1071.7 946.8H916.8l27.8-68.4 8.7-21.4c3.4-8.3 9.1-15.2 16.3-20.1 7.2-4.8 15.7-7.5 24.7-7.5s17.6 2.7 24.7 7.5c7.1 4.8 12.9 11.7 16.3 20.1l8.7 21.4 27.7 68.4z"/>
        <path class="st1" d="M582.8 216.9s150.3 579 361.8 661.5"/>
        <path class="st1" d="M1044 878.4c211.5-82.5 361.8-661.5 361.8-661.5"/>
    </g>
</svg>
