<svg xmlns="http://www.w3.org/2000/svg" viewBox="0 0 1920 1920">
    <style>
        .st0{fill:#fff}.st1{fill:none;stroke:#231f20;stroke-width:50;stroke-linecap:round;stroke-linejoin:round;stroke-miterlimit:10}
    </style>
    <ellipse class="st0" cx="1304.7" cy="1014.2" rx="263.9" ry="263.9" id="Layer_9"/>
    <path class="st0" d="M1679.8 879.7c-38-106-119.7-191.2-223.3-233.9-46.8-19.3-98-29.9-151.7-29.9h-75.1c-15 14.7-53.2 43.9-119.5 43.9-66.2 0-99.4-29.3-111.9-43.9H216.9v206.8L820 908c50 7.1 87.1 50.2 86.4 100.7v3.7c-1 219.6 177.2 399.3 396.8 400.2 220.7.8 399.9-177.8 399.9-398.3 0-47.3-8.3-92.6-23.3-134.6zm-375.1 398.5c-145.8 0-263.9-118.2-263.9-263.9s118.2-263.9 263.9-263.9 263.9 118.2 263.9 263.9-118.1 263.9-263.9 263.9z" id="Layer_10"/>
    <path class="st0" d="M1695.2 724.2l-15.5 155.5c-38-106-119.7-191.2-223.3-233.9h167.9c42.2 0 75.1 36.4 70.9 78.4z" id="Layer_11"/>
    <g id="STROKES">
        <ellipse class="st1" cx="1304.7" cy="1014.2" rx="263.9" ry="263.9"/>
        <ellipse class="st1" cx="1304.7" cy="1014.2" rx="263.9" ry="263.9"/>
        <path class="st1" d="M1679.8 879.7c-38-106-119.7-191.2-223.3-233.9-46.8-19.3-98-29.9-151.7-29.9h-75.1c-15 14.7-53.2 43.9-119.5 43.9-66.2 0-99.4-29.3-111.9-43.9H216.9v206.8L820 908c50 7.1 87.1 50.2 86.4 100.7v3.7c-1 219.6 177.2 399.3 396.8 400.2 220.7.9 399.9-177.8 399.9-398.3 0-47.3-8.3-92.6-23.3-134.6zm-375.1 398.5c-145.8 0-263.9-118.2-263.9-263.9s118.2-263.9 263.9-263.9 263.9 118.2 263.9 263.9-118.1 263.9-263.9 263.9z"/>
        <path class="st1" d="M1695.2 724.2l-15.5 155.5c-38-106-119.7-191.2-223.3-233.9h167.9c42.2 0 75.1 36.4 70.9 78.4z"/>
    </g>
</svg>
