<svg xmlns="http://www.w3.org/2000/svg" viewBox="0 0 1920 1920">
    <style>
        .st0{fill:#fff}.st1{fill:none;stroke:#231f20;stroke-width:50;stroke-linecap:round;stroke-linejoin:round;stroke-miterlimit:10}
    </style>
    <path class="st0" d="M849.9 1365.5L960 1475.6l110.1-110.1c-60.8-60.8-159.4-60.8-220.2 0zm-208.7-208.7L747.4 1263c117.4-117.4 307.7-117.4 425 0l106.2-106.2c-175.9-176-461.3-176-637.4 0zM428.7 944.3L535 1050.6c234.7-234.7 615.3-234.7 850 0l106.3-106.3c-293.4-293.4-769.2-293.4-1062.6 0zM216.2 731.8l103.7 103.7C673.4 482 1246.5 482 1600 835.5l103.7-103.7C1293 321 627 321 216.2 731.8z" id="Layer_10"/>
    <g id="STROKES">
        <path class="st1" d="M641.2 1156.8l106.3 106.3c117.4-117.4 307.6-117.4 425 0l106.3-106.3c-176.1-176-461.5-176-637.6 0zm0 0l106.3 106.3c117.4-117.4 307.6-117.4 425 0l106.3-106.3c-176.1-176-461.5-176-637.6 0zm0 0l106.3 106.3c117.4-117.4 307.6-117.4 425 0l106.3-106.3c-176.1-176-461.5-176-637.6 0zM428.7 944.3L535 1050.6c234.7-234.7 615.3-234.7 850 0l106.3-106.3c-293.4-293.4-769.2-293.4-1062.6 0zm212.5 212.5l106.3 106.3c117.4-117.4 307.6-117.4 425 0l106.3-106.3c-176.1-176-461.5-176-637.6 0zm0 0l106.3 106.3c117.4-117.4 307.6-117.4 425 0l106.3-106.3c-176.1-176-461.5-176-637.6 0zm0 0l106.3 106.3c117.4-117.4 307.6-117.4 425 0l106.3-106.3c-176.1-176-461.5-176-637.6 0zM428.7 944.3L535 1050.6c234.7-234.7 615.3-234.7 850 0l106.3-106.3c-293.4-293.4-769.2-293.4-1062.6 0zm212.5 212.5l106.3 106.3c117.4-117.4 307.6-117.4 425 0l106.3-106.3c-176.1-176-461.5-176-637.6 0zm0 0l106.3 106.3c117.4-117.4 307.6-117.4 425 0l106.3-106.3c-176.1-176-461.5-176-637.6 0zm0 0l106.3 106.3c117.4-117.4 307.6-117.4 425 0l106.3-106.3c-176.1-176-461.5-176-637.6 0zM428.7 944.3L535 1050.6c234.7-234.7 615.3-234.7 850 0l106.3-106.3c-293.4-293.4-769.2-293.4-1062.6 0zM216.2 731.8l103.7 103.7C673.4 482 1246.5 482 1600 835.5l103.7-103.7C1293 321 627 321 216.2 731.8zm425 425l106.3 106.3c117.4-117.4 307.6-117.4 425 0l106.3-106.3c-176.1-176-461.5-176-637.6 0zM428.7 944.3L535 1050.6c234.7-234.7 615.3-234.7 850 0l106.3-106.3c-293.4-293.4-769.2-293.4-1062.6 0zm212.5 212.5l106.3 106.3c117.4-117.4 307.6-117.4 425 0l106.3-106.3c-176.1-176-461.5-176-637.6 0zM428.7 944.3L535 1050.6c234.7-234.7 615.3-234.7 850 0l106.3-106.3c-293.4-293.4-769.2-293.4-1062.6 0zm212.5 212.5l106.3 106.3c117.4-117.4 307.6-117.4 425 0l106.3-106.3c-176.1-176-461.5-176-637.6 0zm0 0l106.3 106.3c117.4-117.4 307.6-117.4 425 0l106.3-106.3c-176.1-176-461.5-176-637.6 0zm0 0l106.3 106.3c117.4-117.4 307.6-117.4 425 0l106.3-106.3c-176.1-176-461.5-176-637.6 0zm0 0l106.3 106.3c117.4-117.4 307.6-117.4 425 0l106.3-106.3c-176.1-176-461.5-176-637.6 0z"/>
        <path class="st1" d="M641.2 1156.8l106.3 106.3c117.4-117.4 307.6-117.4 425 0l106.3-106.3c-176.1-176-461.5-176-637.6 0zm0 0l106.3 106.3c117.4-117.4 307.6-117.4 425 0l106.3-106.3c-176.1-176-461.5-176-637.6 0zm0 0l106.3 106.3c117.4-117.4 307.6-117.4 425 0l106.3-106.3c-176.1-176-461.5-176-637.6 0zM428.7 944.3L535 1050.6c234.7-234.7 615.3-234.7 850 0l106.3-106.3c-293.4-293.4-769.2-293.4-1062.6 0zm212.5 212.5l106.3 106.3c117.4-117.4 307.6-117.4 425 0l106.3-106.3c-176.1-176-461.5-176-637.6 0zm0 0l106.3 106.3c117.4-117.4 307.6-117.4 425 0l106.3-106.3c-176.1-176-461.5-176-637.6 0zm0 0l106.3 106.3c117.4-117.4 307.6-117.4 425 0l106.3-106.3c-176.1-176-461.5-176-637.6 0zM428.7 944.3L535 1050.6c234.7-234.7 615.3-234.7 850 0l106.3-106.3c-293.4-293.4-769.2-293.4-1062.6 0zm212.5 212.5l106.3 106.3c117.4-117.4 307.6-117.4 425 0l106.3-106.3c-176.1-176-461.5-176-637.6 0zm0 0l106.3 106.3c117.4-117.4 307.6-117.4 425 0l106.3-106.3c-176.1-176-461.5-176-637.6 0zm0 0l106.3 106.3c117.4-117.4 307.6-117.4 425 0l106.3-106.3c-176.1-176-461.5-176-637.6 0zM428.7 944.3L535 1050.6c234.7-234.7 615.3-234.7 850 0l106.3-106.3c-293.4-293.4-769.2-293.4-1062.6 0zM216.2 731.8l103.7 103.7C673.4 482 1246.5 482 1600 835.5l103.7-103.7C1293 321 627 321 216.2 731.8zm425 425l106.3 106.3c117.4-117.4 307.6-117.4 425 0l106.3-106.3c-176.1-176-461.5-176-637.6 0zM428.7 944.3L535 1050.6c234.7-234.7 615.3-234.7 850 0l106.3-106.3c-293.4-293.4-769.2-293.4-1062.6 0zm212.5 212.5l106.3 106.3c117.4-117.4 307.6-117.4 425 0l106.3-106.3c-176.1-176-461.5-176-637.6 0zM428.7 944.3L535 1050.6c234.7-234.7 615.3-234.7 850 0l106.3-106.3c-293.4-293.4-769.2-293.4-1062.6 0zm212.5 212.5l106.3 106.3c117.4-117.4 307.6-117.4 425 0l106.3-106.3c-176.1-176-461.5-176-637.6 0zm0 0l106.3 106.3c117.4-117.4 307.6-117.4 425 0l106.3-106.3c-176.1-176-461.5-176-637.6 0zm0 0l106.3 106.3c117.4-117.4 307.6-117.4 425 0l106.3-106.3c-176.1-176-461.5-176-637.6 0zm0 0l106.3 106.3c117.4-117.4 307.6-117.4 425 0l106.3-106.3c-176.1-176-461.5-176-637.6 0z"/>
        <path class="st1" d="M641.2 1156.8l106.3 106.3c117.4-117.4 307.6-117.4 425 0l106.3-106.3c-176.1-176-461.5-176-637.6 0zm0 0l106.3 106.3c117.4-117.4 307.6-117.4 425 0l106.3-106.3c-176.1-176-461.5-176-637.6 0zm0 0l106.3 106.3c117.4-117.4 307.6-117.4 425 0l106.3-106.3c-176.1-176-461.5-176-637.6 0zM428.7 944.3L535 1050.6c234.7-234.7 615.3-234.7 850 0l106.3-106.3c-293.4-293.4-769.2-293.4-1062.6 0zm212.5 212.5l106.3 106.3c117.4-117.4 307.6-117.4 425 0l106.3-106.3c-176.1-176-461.5-176-637.6 0zm0 0l106.3 106.3c117.4-117.4 307.6-117.4 425 0l106.3-106.3c-176.1-176-461.5-176-637.6 0zm0 0l106.3 106.3c117.4-117.4 307.6-117.4 425 0l106.3-106.3c-176.1-176-461.5-176-637.6 0zm0 0l106.3 106.3c117.4-117.4 307.6-117.4 425 0l106.3-106.3c-176.1-176-461.5-176-637.6 0z"/>
        <path class="st1" d="M641.2 1156.8l106.3 106.3c117.4-117.4 307.6-117.4 425 0l106.3-106.3c-176.1-176-461.5-176-637.6 0zm0 0l106.3 106.3c117.4-117.4 307.6-117.4 425 0l106.3-106.3c-176.1-176-461.5-176-637.6 0zm0 0l106.3 106.3c117.4-117.4 307.6-117.4 425 0l106.3-106.3c-176.1-176-461.5-176-637.6 0zM428.7 944.3L535 1050.6c234.7-234.7 615.3-234.7 850 0l106.3-106.3c-293.4-293.4-769.2-293.4-1062.6 0zm212.5 212.5l106.3 106.3c117.4-117.4 307.6-117.4 425 0l106.3-106.3c-176.1-176-461.5-176-637.6 0zm0 0l106.3 106.3c117.4-117.4 307.6-117.4 425 0l106.3-106.3c-176.1-176-461.5-176-637.6 0zm0 0l106.3 106.3c117.4-117.4 307.6-117.4 425 0l106.3-106.3c-176.1-176-461.5-176-637.6 0zm0 0l106.3 106.3c117.4-117.4 307.6-117.4 425 0l106.3-106.3c-176.1-176-461.5-176-637.6 0z"/>
        <path class="st1" d="M641.2 1156.8l106.3 106.3c117.4-117.4 307.6-117.4 425 0l106.3-106.3c-176.1-176-461.5-176-637.6 0z"/>
        <path class="st1" d="M641.2 1156.8l106.3 106.3c117.4-117.4 307.6-117.4 425 0l106.3-106.3c-176.1-176-461.5-176-637.6 0z"/>
        <path class="st1" d="M1070.1 1365.5L960 1475.6l-110.1-110.1c60.8-60.8 159.4-60.8 220.2 0z"/>
    </g>
</svg>
