<svg xmlns="http://www.w3.org/2000/svg" viewBox="0 0 1920 1920">
    <style>
        .st0{fill:#fff}.st1{fill:none;stroke:#231f20;stroke-width:50;stroke-linecap:round;stroke-linejoin:round;stroke-miterlimit:10}
    </style>
    <path class="st0" d="M1641 879.7h-432.2l204.1-185.6.2.2L1641 879.7zm-1361.6 0h431.8L507.3 694.3 279.4 879.7zm681-553.6h-.4L712.8 527.2 960 799.1 1207.4 527l-247-200.9z" id="Layer_9"/>
    <path class="st0" d="M846 1074l-522.2 522.2L217 1489.3l362.8-329.9L799 960.1c-.1 44.5 17.9 84.7 47 113.9zm857.1 415.3l-362.4-329.5-219.6-199.7c0 88.8-71.8 160.7-160.5 161.1l419.2 460.9 109.8 120.7 109.6-109.6 103.9-103.9zM846 1074l-522.2 522.2 106.6 106.7 110.7-121.7 418.3-460c-44.3-.2-84.3-18.2-113.4-47.2zm643.5-857.2L1207.4 527 960 799.1c88.8 0 160.7 71.8 161.1 160.4l87.8-79.8L1413 694.1l290.1-263.8-106.7-106.7-106.9-106.8zM216.9 430.3l290.3 264 203.9 185.4 87.8 79.8c.3-88.7 72.3-160.4 161.1-160.4L712.8 527.2 430.5 216.8 326.6 320.6 216.9 430.3z" id="Layer_10"/>
    <path class="st0" d="M798.9 959.5v.6l-219.2 199.3 25.6-279.7h105.8l87.8 79.8zm409.9-79.8l-87.8 79.8v.6l219.6 199.7.4-.4-25.6-279.7h-106.6zm-248.2 241.5h-1.2l-418.3 460-11.1 121.6h324.4v-254.6c0-58.3 47.7-106 106-106 29.1 0 55.6 11.9 74.9 31.1 19.2 19.2 31.1 45.7 31.1 74.9v254.6h324.4l-11.1-120.7-419.1-460.9z" id="Layer_11"/>
    <path class="st0" d="M1066.4 1703.2h-212v-255c0-58.3 47.7-106 106-106 29.1 0 55.6 11.9 74.9 31.1 19.2 19.2 31.1 45.7 31.1 74.9v255z" id="Layer_12"/>
    <path class="st0" d="M960 799.1c88.8 0 160.7 71.8 161.1 160.4l-.3.3.3.3c0 88.8-71.8 160.7-160.5 161.1l-.6-.7-.6.7c-44.3-.2-84.3-18.2-113.4-47.2-29.1-29.1-47.1-69.4-47.1-113.8l.3-.3-.3-.3c.4-88.8 72.3-160.5 161.1-160.5z" id="Layer_13"/>
    <g id="STROKES">
        <g id="XMLID_1_">
            <path class="st1" d="M1066.4 1702.8v.4h-212v-255c0-58.3 47.7-106 106-106 29.1 0 55.6 11.9 74.9 31.1 19.2 19.2 31.1 45.7 31.1 74.9v254.6z"/>
            <path class="st1" d="M323.8 1596.2l106.7 106.6 110.6-121.6 418.3-460 .6-.7.6.7 419.2 460.9 109.7 120.7 109.7-109.6 103.9-103.9-362.4-329.5-219.6-199.7-.4-.3.4-.3 87.7-79.8 204.1-185.6 290.2-263.8-106.7-106.7-106.9-106.8L1207.4 527 960 799.1 712.8 527.2 430.5 216.8 326.6 320.6 216.9 430.3l290.4 264 203.9 185.4 87.7 79.8.4.3-.4.3-219.1 199.3-362.9 329.9 106.9 106.9"/>
            <path class="st1" d="M1121.1 960.1c0 88.8-71.8 160.8-160.5 161.1h-1.2c-44.3-.2-84.3-18.2-113.4-47.2-29.1-29.1-47.1-69.4-47.1-113.8v-.6c.3-88.7 72.3-160.4 161.1-160.4s160.7 71.8 161.1 160.4v.5z"/>
            <path class="st1" d="M507.3 694.3L279.4 879.7h431.8"/>
            <path class="st1" d="M712.8 527.2L960 326.1"/>
            <path class="st1" d="M1413.1 694.3L1641 879.7h-432.2"/>
            <path class="st1" d="M1207.6 527.2l-.2-.2-247-200.9"/>
            <path class="st1" d="M605.4 879.7l-25.6 279.7"/>
            <path class="st1" d="M541.1 1581.2L530 1702.8h324.4"/>
            <path class="st1" d="M1315.4 879.7l25.6 279.7"/>
            <path class="st1" d="M1379.7 1581.2l.1.9 11 120.7h-324.4"/>
            <path class="st1" d="M846 1074l-522.2 522.2"/>
            <path class="st1" d="M1596.4 323.6l-516.5 516.5"/>
            <path class="st1" d="M846 840.1L326.6 320.6"/>
            <path class="st1" d="M1599.2 1593.2L1079.9 1074"/>
        </g>
    </g>
</svg>
