<svg xmlns="http://www.w3.org/2000/svg" viewBox="0 0 1920 1920">
    <style>
        .st0{fill:#fff}.st1{fill:none;stroke:#231f20;stroke-width:50;stroke-linecap:round;stroke-linejoin:round;stroke-miterlimit:10}
    </style>
    <path class="st0" d="M1078.2 973.1l1.3 1.3-1.3 1.3 135.5 135.5 67 591.9h-160.4v-296H799.7v296H639.3l67.1-591.9 135.5-135.5-1.3-1.3 1.3-1.3h236.3zm-15.7 301.9v-176.2h-205V1275h205z" id="Layer_2"/>
    <path class="st0" d="M1062.5 1204.7v70.3h-205v-70.3h205zm-205-105.8v105.9h204.9v-105.9H857.5z" id="Layer_3"/>
    <path class="st0" d="M960 1407.1v296H799.7v-296H960zm0 0v296h160.3v-296H960z" id="Layer_4"/>
    <path class="st0" d="M783.2 563.3L724.5 622 436.8 334.2l58.6-58.6 287.8 287.7zM554.1 216.9l-58.6 58.6 287.7 287.7 58.6-58.6-287.7-287.7zm811.8 0l-287.7 287.7 58.7 58.6 287.7-287.7-58.7-58.6zm-229.1 346.4l58.6 58.6 287.7-287.7-58.6-58.6-287.7 287.7zm173.4 409.8l-114.7-114.7-58.7 58.6 287.7 287.7 58.6-58.6-172.9-173zM1136.8 917l-57.4 57.4-1.3 1.3 135.5 135.5 152.3 152.3 58.6-58.7L1136.8 917zm-296.3 57.4L783.2 917l-287.7 287.7 58.6 58.7 152.3-152.3 135.5-135.5-1.4-1.2zm-116-116L609.8 973.1l-173 173 58.6 58.6L783.2 917l-58.7-58.6z" id="Layer_5"/>
    <path class="st0" d="M1015.9 796.1l120.9 121-57.4 57.4-1.3-1.3h-67.7V897H909.5v76.1h-67.8l-1.3 1.3-57.2-57.4 121-121c30.8 30.9 80.8 30.9 111.7.1zM851.8 632L510.7 973.1h99.1l114.7-114.7 58.6 58.6 121-121c-30.9-30.9-30.9-80.9 0-111.8L851.8 632zm0 0l52.3 52.3c30.9-30.9 80.9-30.9 111.8 0l52.3-52.3L960 523.8 851.8 632zm164.1 52.3c30.9 30.9 30.9 80.9 0 111.8l120.9 121 58.7-58.6 114.7 114.7h99.1L1068.2 632l-52.3 52.3zM909.5 897v76.1h100.9V897H909.5z" id="Layer_6"/>
    <path class="st0" d="M1015.9 684.3c30.9 30.9 30.9 80.9 0 111.8-30.9 30.9-80.9 30.9-111.8 0-30.9-30.9-30.9-80.9 0-111.8 30.9-30.9 80.9-30.9 111.8 0z" id="Layer_7"/>
    <g id="STROKES">
        <g id="XMLID_1_">
            <path class="st1" d="M1424.6 275.6l58.6 58.6L1195.5 622l-58.7-58.7-58.6-58.6 287.7-287.8z"/>
            <path class="st1" d="M706.3 1111.1l-152.2 152.3-58.7-58.7-58.6-58.6 173-173 114.7-114.7 58.7 58.6 57.3 57.4 1.3 1.3z"/>
            <path class="st1" d="M1015.9 684.3l52.3-52.3 68.6-68.7 287.8-287.7"/>
            <path class="st1" d="M1015.9 796.1C985 827 935 827 904.1 796.1c-30.9-30.9-30.9-80.9 0-111.8 30.9-30.9 80.9-30.9 111.8 0 30.9 30.8 30.9 80.9 0 111.8z"/>
            <path class="st1" d="M904.1 796.1L783.2 917l-287.8 287.7"/>
            <path class="st1" d="M1213.7 1111.1l-135.5-135.4 1.3-1.3 57.3-57.4 58.7-58.6 114.7 114.7 173 173-58.6 58.6-58.7 58.7z"/>
            <path class="st1" d="M783.2 563.3L724.5 622 436.8 334.2l58.6-58.6 58.7-58.7 287.7 287.8z"/>
            <path class="st1" d="M1015.9 796.1L1136.8 917l287.8 287.7"/>
            <path class="st1" d="M904.1 684.3L851.8 632l-68.6-68.7-287.8-287.7"/>
            <path class="st1" d="M706.3 1111.1l-67 592h160.4"/>
            <path class="st1" d="M1213.7 1111.1l67 592h-160.4"/>
            <path class="st1" d="M609.8 973.1h-99.1L851.8 632 960 523.8"/>
            <path class="st1" d="M1310.2 973.1h99.1L1068.2 632 960 523.8"/>
            <path class="st1" d="M841.8 973.1h236.4"/>
            <path class="st1" d="M1062.5 1204.7v70.3h-205v-176.1h205z"/>
            <path class="st1" d="M1120.3 1703.1H799.7v-296h320.6z"/>
            <path class="st1" d="M960 1407.1v296"/>
            <path class="st1" d="M909.5 973.1V897h101v76.1"/>
            <path class="st1" d="M857.5 1204.7h205"/>
        </g>
    </g>
</svg>
