<svg xmlns="http://www.w3.org/2000/svg" viewBox="0 0 1920 1920">
    <style>
        .st0{fill:#fff}.st1{fill:none;stroke:#231f20;stroke-width:50;stroke-linecap:round;stroke-linejoin:round;stroke-miterlimit:10}
    </style>
    <g id="Layer_8">
        <path class="st0" d="M959.2 772.7l.8 1.1c-9.4 13.6-19.9 27-31.4 40.1-47.5 54.5-111.6 104.6-181.7 144.4-87 49.4-183.1 82.8-267.6 88.5l.9-1.2c48.2-69.7 126.1-135.1 213.1-184.5 86.3-49.2 181.8-82.5 265.9-88.4z"/>
        <path class="st0" d="M1439.9 1045.5l.9 1.2c-84.6-5.7-180.7-39-267.6-88.5-70.1-39.8-134.2-89.9-181.7-144.4-11.5-13.2-22-26.6-31.4-40.1l.8-1.1c84.2 6 179.6 39.2 266.1 88.3 86.8 49.5 164.7 114.9 212.9 184.6z"/>
        <path class="st0" d="M991.4 813.9l24.2 889.1H904.5l24.2-889.1c11.5-13.2 22-26.6 31.4-40.1 9.3 13.6 19.8 27 31.3 40.1z"/>
        <path class="st0" d="M960.3 218.3c36.8 76.3 55.2 176.4 55.2 276.4s-18.4 200.1-55.2 276.4l-.7-1.4c-36.8-76.3-55.2-176.4-55.2-276.4s18.4-200.1 55.2-276.4l.7 1.4z"/>
    </g>
    <g id="STROKES">
        <g id="XMLID_1_">
            <path class="st1" d="M959.7 769.8l.7 1.4c36.8-76.3 55.2-176.4 55.2-276.4s-18.4-200.1-55.2-276.4l-.7-1.4c-36.8 76.3-55.2 176.4-55.2 276.4s18.3 200 55.2 276.4z"/>
            <path class="st1" d="M959.2 772.7c-84.2 6-179.6 39.2-266.1 88.3-87 49.4-164.9 114.8-213.1 184.5l-.9 1.2c84.6-5.7 180.7-39 267.6-88.5 70.1-39.8 134.2-89.9 181.7-144.4 11.5-13.2 22-26.6 31.4-40.1l.8-1.1.1-.1-.8.1c-.1 0-.4.1-.7.1z"/>
            <path class="st1" d="M960.8 772.7c84.2 6 179.6 39.2 266.1 88.3 87 49.4 164.9 114.8 213.1 184.5l.9 1.2c-84.6-5.7-180.7-39-267.6-88.5-70.1-39.8-134.2-89.9-181.7-144.4-11.5-13.2-22-26.6-31.4-40.1l-.8-1.1-.1-.1.8.1c.1 0 .4.1.7.1z"/>
            <path class="st1" d="M928.6 813.9l-24.2 889.2h54.8"/>
            <path class="st1" d="M991.4 813.9l24.2 889.2h-56.4"/>
        </g>
    </g>
</svg>
