<svg xmlns="http://www.w3.org/2000/svg" viewBox="0 0 1920 1920">
    <style>
        .st0{fill:#fff}.st1{fill:none;stroke:#231f20;stroke-width:50;stroke-linecap:round;stroke-linejoin:round;stroke-miterlimit:10}
    </style>
    <path class="st0" d="M1272.3 782c2.5 16.1 3.9 32.7 3.9 49.5 0 160.8-120 293.6-275.4 313.6v422.8l225.3 112.6c12.9 6.5 8.3 26-6.1 26H700.1c-14.5 0-19-19.5-6.1-26l225.3-112.6V1145c-155.4-20-275.4-152.8-275.4-313.6 0-16.8 1.3-33.4 3.9-49.5l14-179.2h596.6l13.9 179.3z" id="Layer_2"/>
    <g id="STROKES">
        <g id="XMLID_1_">
            <path class="st1" d="M661.7 602.7l-14 179.2c-2.5 16.1-3.9 32.7-3.9 49.5 0 160.8 120 293.6 275.4 313.6v422.8l-225.3 112.6c-12.9 6.5-8.3 26 6.1 26h519.9c14.4 0 19-19.5 6.1-26l-225.3-112.6V1145c155.4-20 275.4-152.8 275.4-313.6 0-16.8-1.3-33.4-3.9-49.5l-14-179.2-30.1-385.8H691.8l-30.1 385.8z"/>
            <path class="st1" d="M661.7 602.7h596.6"/>
        </g>
    </g>
</svg>
