<svg xmlns="http://www.w3.org/2000/svg" viewBox="0 0 1920 1920">
    <style>
        .st0{fill:#fff}.st1{fill:none;stroke:#231f20;stroke-width:50;stroke-linecap:round;stroke-linejoin:round;stroke-miterlimit:10}
    </style>
    <path class="st0" d="M1170.2 1493.2v209.9H749.8v-209.9h420.4zM1039 650.8v-118H881v118s-131.3 5.7-131.3 234v55.7h420.5v-55.7c0-228.3-131.2-234-131.2-234z" id="Layer_5"/>
    <path class="st0" d="M1170.2 940.5v552.7H749.8V940.5h420.4z" id="Layer_6"/>
    <path class="st0" d="M881 216.9h157.9v315.9H881z" id="Layer_7"/>
    <g id="STROKES">
        <g id="XMLID_1_">
            <path class="st1" d="M1170.2 1493.2v209.9H749.8V884.8c0-228.3 131.3-234 131.3-234V216.9H1039v433.9s131.3 5.7 131.3 234v55.7c-.1 149.1-.1 383.2-.1 552.7z"/>
            <path class="st1" d="M749.8 940.5h420.4"/>
            <path class="st1" d="M749.8 1493.2h420.4"/>
            <path class="st1" d="M881 532.8h158"/>
        </g>
    </g>
</svg>
