<svg xmlns="http://www.w3.org/2000/svg" viewBox="0 0 1920 1920">
    <style>
        .st0{fill:#fff}.st1{fill:none;stroke:#000;stroke-width:50;stroke-linecap:round;stroke-linejoin:round;stroke-miterlimit:10}
    </style>
    <path class="st0" d="M681.4 1464c0 13.2-4.8 25.3-12.8 34.6-9.8 11.4-24.3 18.7-40.5 18.7h-47v185.8h100.4c102.6 0 185.8-83.2 185.8-185.8v-93.8H681.4v40.5zm611.6 53.3c-30 0-54.3-24.3-54.3-54.3v-39.5h-185.5V494.6h185.5C1238.1 341.2 1113.6 217 960 217S681.9 341.2 681.4 494.7h185.7v1c0-51.3 41.6-92.9 92.9-92.9s92.9 41.6 92.9 92.9v1021.7c0 102.6 83.2 185.8 185.8 185.8h78.6v-185.8H1293z" id="Layer_3"/>
    <path class="st0" d="M681.4 680.4h185.8V494.6H681.4v185.8zm0 371.5h185.8V866.2H681.4v185.7zm0 371.5h185.8v-185.8H681.4v185.8zm-286.2 279.7H581v-185.8H395.2v185.8zm658-651.2h185.5V866.2h-185.5v185.7zm0 371.5h185.5v-185.8h-185.5v185.8zm264 93.9v185.8H1503v-185.8h-185.8zm-264-1022.7v185.8h185.5V494.6h-185.5z" id="Layer_4"/>
    <path class="st0" d="M681.4 1237.7h185.8v-185.8H681.4v185.8zm0-371.5h185.8V680.4H681.4v185.8zm-464.5 744c0 51.3 41.6 92.9 92.9 92.9h85.4v-185.8h-85.4c-51.3 0-92.9 41.6-92.9 92.9zm836.3-372.5h185.5v-185.8h-185.5v185.8zm0-371.5h185.5V680.4h-185.5v185.8zm557 651.1H1503v185.8h107.2c51.3 0 92.9-41.6 92.9-92.9 0-51.3-41.6-92.9-92.9-92.9z" id="Layer_5"/>
    <g id="STROKES">
        <path class="st1" d="M681.4 494.6z"/>
        <path class="st1" d="M681.4 494.6v185.8h185.8V494.6H681.4z"/>
        <path class="st1" d="M1238.6 680.4h.3V494.6h-.3v185.8z"/>
        <path class="st1" d="M1238.6 680.4h.3v185.8h-.3z"/>
        <path class="st1" d="M1238.6 866.2h.3V1052h-.3z"/>
        <path class="st1" d="M1238.6 1051.9h.3v185.8h-.3z"/>
        <path class="st1" d="M1238.6 1237.7h.3v185.8h-.3z"/>
        <path class="st1" d="M1238.6 1463V495.6c0-153.9-124.8-278.6-278.6-278.6-153.9 0-278.6 124.8-278.6 278.6V1464c0 29.5-23.9 53.3-53.3 53.3H309.8c-51.3 0-92.9 41.6-92.9 92.9 0 51.3 41.6 92.9 92.9 92.9h371.5c102.6 0 185.8-83.2 185.8-185.8V495.6c0-51.3 41.6-92.9 92.9-92.9 51.3 0 92.9 41.6 92.9 92.9v1021.7c0 102.6 83.2 185.8 185.8 185.8h371.5c51.3 0 92.9-41.6 92.9-92.9 0-51.3-41.6-92.9-92.9-92.9H1293c-30 0-54.4-24.3-54.4-54.3z"/>
        <path class="st1" d="M681.4 680.4h185.8v185.8H681.4z"/>
        <path class="st1" d="M681.4 866.2h185.8V1052H681.4z"/>
        <path class="st1" d="M681.4 1051.9h185.8v185.8H681.4z"/>
        <path class="st1" d="M681.4 1237.7h185.8v185.8H681.4z"/>
        <path class="st1" d="M1053.2 494.6H1239v185.8h-185.8z"/>
        <path class="st1" d="M1053.2 680.4H1239v185.8h-185.8z"/>
        <path class="st1" d="M1053.2 866.2H1239V1052h-185.8z"/>
        <path class="st1" d="M1053.2 1051.9H1239v185.8h-185.8z"/>
        <path class="st1" d="M1053.2 1237.7H1239v185.8h-185.8z"/>
        <path class="st1" d="M1317.2 1517.3H1503v185.8h-185.8z"/>
        <path class="st1" d="M395.2 1517.3H581v185.8H395.2z"/>
        <path class="st1" d="M960 402.7V217"/>
        <path class="st1" d="M1022.8 427.2l131.3-131.3"/>
        <path class="st1" d="M897.7 426.7L766.4 295.4"/>
        <path class="st1" d="M668.6 1498.6l146.9 147"/>
        <path class="st1" d="M1252.1 1498.8L1104.9 1646"/>
        <path class="st1" d="M681.4 494.6h185.8v185.8H681.4z"/>
    </g>
</svg>
