<svg xmlns="http://www.w3.org/2000/svg" viewBox="0 0 1920 1920">
    <style>
        .st0{fill:#fff}.st1{fill:none;stroke:#000;stroke-width:50;stroke-linecap:round;stroke-linejoin:round;stroke-miterlimit:10}
    </style>
    <path class="st0" d="M1445.4 584.2c-66.8 0-127.7 25.4-173.5 67.1-30.6 27.9-54.5 63.1-68.8 102.8-9.3-8.4-19.1-16.1-29.6-23-40.9-27.3-90.1-43.3-142.9-43.3-142.3 0-257.6 115.4-257.6 257.7 0 131.3 98.2 239.7 225.2 255.6-70.9 48.6-157 76.7-249.6 75.9-118.8-1.1-226.7-50.9-304.9-130.1 6-3.7 7-12 2-16.9-49.7-49.1-80.3-122.5-91.2-151.9-2.6-6.9-10.4-10.3-17.2-7.4-13.5-43-20.5-88.7-19.8-136 .7-40.1 6.7-78.9 17.5-115.6 4.8-16.2 28.1-104.6 44.2-165.9 5.3-20.3-17.8-36-34.7-23.6-38.9 28.6-76 99.8-79.5 107-35.1 72.7-48 126.6-48 212.8 0 56.8 8 111.2 22.8 162.4-4.6 1.6-7.4 6.2-6.9 11.1 8.2 69.4 63.7 149.5 87 180.5a18.3 18.3 0 0 0 24.3 4.6c96.7 115.1 241.2 186.9 408.3 186.9 146.1 0 279-56.7 377.8-149.2 31.6 17.8 60.7 42.1 76.1 74.9 12.2 25.9 51.5 16.4 50.1-12.2-1.8-38.7-19.7-82-69.4-124.6-2-1.7-4-3.4-6.1-5 2.1 1.7 4.1 3.3 6.1 5 28-35.6 51.8-74.7 70.5-116.6 5.1-11.4 9.8-23.1 14.2-34.9.3.3.7.6 1 .9 45.7 41.2 106.1 66.2 172.5 66.2 142.3 0 257.7-115.4 257.7-257.6.1-142.3-115.3-257.6-257.6-257.6zm-446.6 616.9s0 .1 0 0zm.5.1zm.4.1s.1 0 0 0zm1 .2h.1c.2 0 .3.1.5.1s.3.1.5.1h.2c-.5-.1-.9-.2-1.3-.2zm1.9.3zm5.9 1c.1 0 .3 0 .4.1-.2 0-.3 0-.4-.1zm1.1.3c.2 0 .4.1.6.1.8.2 1.7.3 2.6.5-1.1-.2-2.2-.4-3.2-.6zm11.3 2.3zm3.8.9c.3.1.6.1.9.2.2 0 .4.1.6.1l-1.5-.3zm2.5.6c.1 0 .1 0 .2.1.5.1 1 .2 1.5.4.2 0 .4.1.5.1-.7-.3-1.4-.5-2.2-.6zm5.4 1.3c.2.1.4.1.7.2.1 0 .2.1.3.1-.3-.2-.6-.3-1-.3zm8.7 2.2c.6.2 1.2.3 1.8.5.2.1.4.1.6.2-.6-.2-1.2-.3-1.8-.5-.1-.1-.4-.1-.6-.2zm1 .3c.5.1 1 .3 1.5.4.2 0 .4.1.6.1.4.1.9.2 1.4.4.1 0 .1 0 .2.1-1.4-.4-2.6-.7-3.7-1zm2.1.6c.2 0 .4.1.5.1.2.1.4.1.6.2-.4-.1-.7-.2-1.1-.3zm2.2.6c.1 0 .1 0 .2.1l3.9 1.1h.1c-1.5-.4-2.8-.8-4.2-1.2zm4.3 1.2l.3.1c-.1 0-.2-.1-.3-.1zm18.9 6c.4.1.8.3 1.2.4-.1 0-.2-.1-.3-.1l-.9-.3zm.9.3c.1 0 .2.1.3.1.8.3 1.7.6 2.5.9.3.1.6.2 1 .3-1.3-.4-2.5-.9-3.8-1.3zm3.9 1.3c-.3-.1-.6-.2-1-.3l1.8.6c.5.2 1 .4 1.6.6l-.9-.3-1.5-.6zm1.5.6l.9.3c1.2.4 2.5.9 3.7 1.4h.1c-1.6-.6-3.1-1.2-4.7-1.7zm4.8 1.7zm5.4-101.9c.1.1.3.1.4.2-.1-.1-.2-.2-.4-.2zm6.8 3.2c.2.1.3.2.5.2-.2-.1-.4-.1-.5-.2zm1.4.7c-.5-.2-.9-.5-1.4-.7.8.4 1.5.8 2.3 1.1.1 0 .1.1.2.1h.2l.6.3c.5.2 1 .5 1.5.7.4.2.9.4 1.3.7-.4-.2-.9-.4-1.3-.6-.5-.3-1-.5-1.5-.8l-.6-.3c-.1 0-.2-.1-.3-.1-.4-.1-.7-.3-1-.4zm4.4 105.2c-.1-.1-.3-.1-.4-.2h.1c.1.1.2.2.3.2zm-3.5-1.5l.9.4-.6-.3c-.1 0-.2 0-.3-.1zm.8.3c.6.3 1.3.5 1.9.8l.3.1c.2.1.4.2.6.2-1-.3-1.9-.7-2.8-1.1zm3.8-101.3c-.1-.1-.2-.1-.4-.2l-.6-.3c.3.2.6.3 1 .5zm.5 103.2c-.5-.2-.9-.4-1.4-.6.2.1.5.2.7.3.2.1.4.2.7.3.1 0 .3.1.4.2l.2.1-.6-.3zm2.3-101.8c-.2-.1-.3-.2-.5-.2-.3-.2-.7-.3-1-.5-.2-.1-.4-.2-.7-.3-.3-.1-.5-.3-.8-.4.3.1.6.3.9.4l.6.3 1.5.7zm1.5.8c.3.2.7.3 1 .5-.4-.2-.7-.4-1-.5zm2.1 103.6c.1 0 .2.1.2.1-.5-.2-1.1-.5-1.6-.7.5.2.9.4 1.4.6zm-1.9-.9c.8.4 1.6.7 2.4 1.1.1.1.3.1.4.2.2.1.4.2.7.3-1.2-.5-2.3-1-3.5-1.6zm2.1-101.5c.1.1.3.1.4.2.7.3 1.4.7 2 1.1.3.1.5.3.8.4l.1.1c.1.1.2.1.3.2-.1-.1-.3-.2-.4-.2l-.6-.3c-.8-.6-1.7-1.1-2.6-1.5zm6.4 105.5c-1.4-.7-2.7-1.3-4.1-1.9l-.6-.3c-.2-.1-.4-.2-.5-.3.3.1.6.3.9.4.5.2 1 .4 1.5.7l2.7 1.3c-.1 0 0 .1.1.1zm.8.4c.3.1.6.3.9.4.2.1.3.1.4.2l.2.1-1.8-.9c.1.1.2.2.3.2zm-.1-102.2c.5.3 1 .5 1.5.8.1 0 .1.1.2.1l2.7 1.5s.1 0 .1.1c-.7-.4-1.4-.7-2.1-1.1-.2-.1-.5-.3-.7-.4-.3-.2-.6-.3-.9-.5-.3-.2-.5-.4-.8-.5zm-1.4-.8c.1.1.2.1.4.2.1.1.2.1.3.2.1.1.3.2.4.2.1 0 .2.1.3.2-.5-.3-.9-.5-1.4-.8zm.2.1c-.1-.1-.2-.1-.3-.2.1.1.2.2.3.2zm.9 102.7c.7.3 1.4.7 2.1 1 .3.2.6.3 1 .5.1 0 .2.1.2.1-1.1-.5-2.2-1.1-3.3-1.6zm3.6 1.8s0-.1 0 0c0 0 .1 0 0 0 .1 0 0 0 0 0zm.7.3c-.1-.1-.2-.1-.3-.2.1 0 .1.1.2.1l1.2.6c.5.3 1.1.6 1.6.8-.9-.4-1.8-.8-2.7-1.3zm.8-101.5c-.1-.1-.2-.1-.3-.2.1.1.2.1.3.2zm-.1-.1c.3.1.5.3.8.4-.1 0-.1-.1-.2-.1l-.6-.3zm10.9 6.1s-.1 0-.1-.1c-.3-.2-.7-.4-1-.6-.4-.2-.8-.4-1.2-.7.6.3 1.1.6 1.7 1 .2.2.4.3.6.4l.6.3c-.2 0-.4-.1-.6-.3 0 .1 0 .1 0 0zm.6.4s-.1-.1-.2-.1c.1 0 .1.1.2.1 0 0 .1 0 .1.1.1 0 .1.1.2.1-.1-.1-.2-.2-.3-.2zm2.8 1.6c-.3-.2-.6-.3-.8-.5-.2-.1-.4-.2-.5-.3-.1-.1-.2-.1-.3-.2-.2-.1-.4-.3-.7-.4.1 0 .2.1.2.1.2.1.5.3.8.4.2.1.4.2.5.3.2.3.5.5.8.6zm2.8 1.7c-.3-.2-.7-.4-1-.6-.4-.2-.8-.5-1.2-.7.1.1.2.1.3.2.6.3 1.2.7 1.9 1.1zm2.7 1.6c-.5-.3-1.1-.6-1.6-1-.3-.2-.6-.3-.8-.5l.6.3c.6.5 1.2.8 1.8 1.2zm2.7 1.7l-.1-.1s-.1 0-.1-.1l.2.2zm6.5 4c-.7-.5-1.5-1-2.2-1.4-.1 0-.1-.1-.2-.1-.4-.3-.8-.5-1.2-.8h-.1c-.7-.4-1.3-.8-2-1.2-.2-.1-.4-.2-.6-.4.1 0 .1.1.2.1h.1c.8.5 1.6 1 2.3 1.5h.1c.4.2.8.5 1.2.7.4.2.8.5 1.2.8.1 0 .1.1.2.1.6.4 1.1.7 1.7 1.1-.4-.1-.6-.2-.7-.4zm3.9 2.6c-.2-.1-.4-.3-.6-.4-.6-.4-1.3-.8-1.9-1.3.6.4 1.3.8 1.9 1.2.2.2.4.4.6.5zm22.7-206.2c-.5 1.9-1 3.7-1.5 5.5.5-1.9 1-3.7 1.5-5.5-.2.9-.5 1.8-.7 2.8-.2.9-.5 1.8-.7 2.8-.4 1.4-.8 2.8-1.2 4.1-.1.5-.3.9-.4 1.4-.2.9-.5 1.7-.8 2.6-.7 2.3-1.4 4.6-2.1 6.8.7-2.3 1.4-4.5 2.1-6.8-.7 2.5-1.5 5-2.3 7.5-1.9 6.2-4 12.3-6.2 18.4-.7 1.9-1.4 3.8-2.1 5.8-.2.4-.3.9-.5 1.3-.5 1.4-1 2.7-1.6 4-.5 1.3-1.1 2.7-1.6 4-.5 1.3-1.1 2.7-1.6 4-.5 1.1-.9 2.2-1.4 3.4.7-1.7 1.4-3.3 2.1-5-.7 1.7-1.4 3.4-2.2 5.1-.1.2-.1.3-.2.5 0 0 0 .1-.1.1-.6 1.5-1.3 2.9-2 4.4.6-1.4 1.3-2.8 1.9-4.3-.4.8-.7 1.7-1.1 2.5-.2.4-.3.8-.5 1.2-.7 1.5-1.3 3-2 4.4-.4 1-.9 2-1.3 2.9-.7 1.5-1.4 2.9-2.1 4.4-1 2.1-2 4.2-3.1 6.3-15.3 30.8-34.2 59.5-56.1 85.7 1 .5 2.1 1 3.1 1.4.1.1.2.1.3.1.3.2.7.3 1 .5-.3-.2-.7-.3-1-.5-.1 0-.2-.1-.3-.1-.3-.2-.7-.3-1-.5-.7-.3-1.3-.6-2-1-27.4-12.9-58.9-25.5-95-37.6-1-.3-1.9-.6-2.8-.8l-.9-.3c-.6-.2-1.3-.4-1.9-.6-.4-.1-.7-.2-1.1-.4-.5-.2-1.1-.4-1.7-.6-.4-.1-.8-.3-1.2-.4-.5-.2-1.1-.4-1.6-.6-.4-.2-.8-.3-1.2-.5l-1.5-.6c-.4-.2-.8-.4-1.2-.5-.5-.2-1-.4-1.4-.6-.4-.2-.8-.4-1.2-.5-.5-.2-1-.4-1.4-.6l-1.2-.6c-.5-.2-.9-.4-1.4-.6l-1.2-.6c-.5-.2-.9-.4-1.4-.7l-1.2-.6c-.5-.2-.9-.5-1.3-.7l-1.2-.6c-.5-.2-.9-.5-1.3-.7-.4-.2-.8-.5-1.2-.7-.4-.2-.9-.5-1.3-.7-.4-.2-.8-.5-1.2-.7-.4-.2-.9-.5-1.3-.8-.4-.2-.8-.5-1.2-.7-.4-.3-.8-.5-1.3-.8-.4-.2-.8-.5-1.2-.7-.4-.3-.8-.5-1.3-.8-.4-.2-.8-.5-1.1-.8-.4-.3-.8-.5-1.2-.8-.4-.3-.8-.5-1.1-.8l-1.2-.9c-.4-.3-.7-.5-1.1-.8l-1.2-.9c-.4-.3-.7-.6-1.1-.8l-1.2-.9c-.4-.3-.7-.6-1.1-.9l-1.2-.9c-.4-.3-.7-.6-1.1-.9-.4-.3-.8-.6-1.1-.9-.4-.3-.7-.6-1-.9-.4-.3-.8-.6-1.1-1-.3-.3-.7-.6-1-.9-.4-.3-.7-.7-1.1-1-.4-.3-.7-.6-1-1-.4-.3-.7-.7-1.1-1-.3-.3-.7-.6-1-1l-1-1c-.3-.3-.7-.6-1-1-.3-.3-.7-.7-1-1.1-.3-.3-.6-.7-1-1-.3-.3-.7-.7-1-1.1-.3-.3-.6-.7-1-1-.3-.4-.7-.7-1-1.1-.3-.3-.6-.7-.9-1-.3-.4-.6-.7-1-1.1-.3-.4-.6-.7-.9-1.1-.3-.4-.6-.7-.9-1.1-.3-.4-.6-.7-.9-1.1-.3-.4-.6-.8-.9-1.1-.3-.4-.6-.7-.9-1.1l-.9-1.2c-.3-.4-.6-.8-.8-1.1l-.9-1.2c-.3-.4-.5-.8-.8-1.1-.3-.4-.6-.8-.8-1.2-.3-.4-.5-.8-.8-1.2-.3-.4-.6-.8-.8-1.2-.3-.4-.5-.8-.8-1.2-.3-.4-.5-.8-.8-1.2-.2-.4-.5-.8-.8-1.2-.3-.4-.5-.8-.8-1.2-.2-.4-.5-.8-.7-1.2-.2-.4-.5-.8-.8-1.3-.2-.4-.5-.8-.7-1.2-.2-.4-.5-.9-.7-1.3-.2-.4-.5-.8-.7-1.2-.2-.4-.5-.9-.7-1.3-.2-.4-.4-.8-.7-1.2-.2-.4-.5-.9-.7-1.3-.2-.4-.4-.8-.6-1.3-.2-.4-.4-.9-.7-1.3-.2-.4-.4-.8-.6-1.3-.2-.5-.4-.9-.6-1.3-.2-.4-.4-.9-.6-1.3-.2-.5-.4-.9-.6-1.3-.2-.4-.4-.9-.6-1.3-.2-.4-.4-.9-.6-1.4-.2-.4-.4-.9-.5-1.3-.2-.5-.4-.9-.5-1.4-.2-.4-.3-.9-.5-1.3-.2-.5-.4-.9-.5-1.4-.2-.5-.3-.9-.5-1.3-.2-.5-.3-.9-.5-1.4-.2-.5-.3-.9-.5-1.4-.2-.5-.3-.9-.5-1.4-.1-.5-.3-.9-.4-1.4-.1-.5-.3-1-.4-1.4-.1-.5-.3-.9-.4-1.4-.1-.5-.3-1-.4-1.4-.1-.5-.2-.9-.4-1.4-.1-.5-.2-1-.4-1.5-.1-.5-.2-.9-.4-1.4l-.3-1.5c-.1-.5-.2-1-.3-1.4l-.3-1.5c-.1-.5-.2-1-.3-1.4l-.3-1.5c-.1-.5-.2-1-.3-1.4-.1-.5-.2-1-.2-1.5-.1-.5-.2-1-.2-1.5-.1-.5-.2-1-.2-1.5-.1-.5-.1-1-.2-1.5s-.1-1-.2-1.5-.1-1-.2-1.5-.1-1-.2-1.5c0-.5-.1-1-.1-1.5s-.1-1-.1-1.5-.1-1-.1-1.5-.1-1-.1-1.5-.1-1-.1-1.5 0-1-.1-1.6V941c0-.6 0-1.2.1-1.8 0-.7.1-1.3.1-2 0-.5.1-1 .1-1.5 0-.8.1-1.5.2-2.3 0-.3.1-.7.1-1 .1-.9.2-1.9.3-2.8v-.3l.3-2.7v-.3c.1-1 .3-2 .4-3 9.2-58.9 54.7-106.3 112.7-118.4.4-.1.8-.2 1.1-.2.3-.1.6-.1.9-.2.3-.1.6-.1.9-.2 1-.2 2-.4 3-.5 1-.2 2-.3 3-.5 1.1-.2 2.2-.3 3.2-.4.2 0 .5 0 .7-.1l2.7-.3c.4 0 .8-.1 1.2-.1.7-.1 1.5-.1 2.2-.2.5 0 1.1-.1 1.6-.1.6 0 1.3-.1 1.9-.1.6 0 1.2 0 1.8-.1h9.2c.6 0 1.2 0 1.8.1.6 0 1.2.1 1.9.1.6 0 1.2.1 1.8.1.6 0 1.2.1 1.9.1.6 0 1.2.1 1.8.2.6.1 1.2.1 1.9.2.6.1 1.2.1 1.8.2.6.1 1.2.1 1.8.2.6.1 1.2.2 1.8.2l1.8.3 1.8.3 1.8.3c.6.1 1.2.2 1.7.3.6.1 1.2.2 1.8.4.6.1 1.2.2 1.7.4.6.1 1.2.3 1.8.4.6.1 1.2.3 1.7.4.6.1 1.2.3 1.8.4.6.2 1.1.3 1.7.5.6.2 1.2.3 1.7.5.6.2 1.1.3 1.7.5.6.2 1.1.4 1.7.5.6.2 1.1.3 1.7.5.6.2 1.1.4 1.7.6.6.2 1.1.4 1.6.6.6.2 1.1.4 1.7.6.5.2 1.1.4 1.6.6.6.2 1.1.4 1.7.7.5.2 1.1.4 1.6.7.6.2 1.1.5 1.6.7.5.2 1.1.5 1.6.7.5.2 1.1.5 1.6.7.5.2 1 .5 1.6.7.5.2 1.1.5 1.6.8.5.2 1 .5 1.6.8.5.3 1.1.5 1.6.8.5.3 1 .5 1.5.8.5.3 1 .6 1.6.8.5.3 1 .5 1.5.8l1.5.9 1.5.9 1.5.9 1.5.9c.5.3 1 .6 1.5 1 .5.3 1 .6 1.4.9.5.3 1 .7 1.5 1 .5.3.9.7 1.4 1 .5.3 1 .7 1.4 1 .5.3.9.7 1.4 1 .5.4.9.7 1.4 1.1.5.3.9.7 1.3 1 .5.4.9.7 1.4 1.1.4.4.9.7 1.3 1.1.5.4.9.8 1.4 1.1.4.4.9.7 1.3 1.1.4.4.9.8 1.3 1.2.4.4.9.8 1.3 1.1.4.4.9.8 1.3 1.2l1.2 1.2c.4.4.8.8 1.3 1.2l1.2 1.2 1.2 1.2 1.2 1.2c.4.4.8.9 1.2 1.3l1.2 1.2c.4.4.8.9 1.2 1.3.4.4.8.8 1.1 1.3.4.4.8.9 1.1 1.3.4.4.7.9 1.1 1.3.4.5.8.9 1.1 1.4.4.4.7.9 1.1 1.3.4.5.7.9 1.1 1.4.3.5.7.9 1 1.3.3.5.7 1 1.1 1.4.3.5.7.9 1 1.4.3.5.7 1 1 1.5.3.5.7.9 1 1.4.3.5.7 1 1 1.5.3.5.6.9.9 1.4l.9 1.5c.3.5.6 1 .9 1.4l.9 1.5.9 1.5c.3.5.6 1 .9 1.6.3.5.6 1 .8 1.5.3.5.6 1 .8 1.6.3.5.5 1 .8 1.5.3.5.5 1.1.8 1.6.2.5.5 1 .8 1.5.3.5.5 1.1.8 1.6.2.5.5 1 .7 1.5.2.5.5 1.1.7 1.7.2.5.5 1 .7 1.5.2.6.5 1.1.7 1.7.2.5.4 1 .6 1.6.2.6.4 1.1.6 1.7.2.5.4 1.1.6 1.6.2.6.4 1.1.6 1.7.2.5.4 1.1.6 1.6l.6 1.8c.2.5.3 1.1.5 1.6.2.6.4 1.2.5 1.8.2.5.3 1.1.5 1.6.2.6.3 1.2.5 1.8.1.5.3 1.1.4 1.6.1.6.3 1.2.4 1.8.1.5.3 1.1.4 1.6.1.6.3 1.2.4 1.8.1.5.2 1.1.4 1.7.1.6.2 1.2.4 1.9.1.5.2 1.1.3 1.7.1.6.2 1.3.3 1.9.1.5.2 1.1.3 1.6.1.7.2 1.3.3 2 .1.5.2 1.1.2 1.6.1.7.2 1.3.2 2 .1.5.1 1.1.2 1.6.1.7.1 1.4.2 2 0 .5.1 1.1.1 1.6.1.7.1 1.5.1 2.2 0 .5.1 1 .1 1.5 0 .8.1 1.7.1 2.5v4.9c0 2.1 0 3.9-.1 5.7zm14.7-130.6v-.4.4zm-6.4 90.7c.2-1.4.4-2.7.6-4.1.1-.3.1-.6.1-.9-.2 1.7-.4 3.3-.7 5zm1.2-7.8v.3c0-.2.1-.3.1-.5-.1 0-.1.1-.1.2zm.1-1v.3c0-.2 0-.3.1-.5-.1.1-.1.2-.1.2zm.5-3.2c0 .1 0 .3-.1.4v.1c0-.1 0-.2.1-.4 0-.2.1-.5.1-.7v-.1c-.1.2-.1.4-.1.7zm.2-1.7c0 .2-.1.4-.1.7v.1c0-.3 0-.5.1-.8zm.1-.7c0 .2-.1.4-.1.5 0-.3.1-.5.1-.8v.3zm1.3-12.5v.5c0 .3 0 .6-.1.8-.2 1.7-.3 3.4-.5 5.2-.1.9-.2 1.8-.3 2.6 0 .3-.1.5-.1.8.1-.9.2-1.8.3-2.8.1-.6.1-1.1.2-1.7.1-1.4.3-2.8.4-4.1.1-.4.1-.8.1-1.3v-.2c.1.1 0 .2 0 .2zm.1-.3zm0-.1v-.3.3zm.5-5.5c-.1.7-.1 1.4-.2 2.1-.1 1.1-.2 2.3-.3 3.4 0-.3 0-.6.1-.8.1-.9.2-1.7.2-2.6.1-.7.1-1.5.2-2.2v.1zm.1-1.8V875.7v.6c0-.1 0-.1 0 0zm.1-.7v.6c-.1-.2-.1-.4 0-.6 0-.2 0-.4.1-.6-.1.2-.1.4-.1.6zm1.3-36.8v3c0 9.4-.3 18.8-.9 28 0-.5.1-1 .1-1.5.1-1.1.1-2.3.2-3.4.1-1.6.2-3.2.2-4.9v-1.5.9c.2-5.9.4-11.8.4-17.8v-3.2.4zm0-2.3v-.7.7zm.1-4.3v.5c0 .8 0 1.6-.1 2.3v-2.1c0-1.3.1-2.5.2-3.8v-.1c0 .6 0 1.2-.1 1.8.1.5.1 1 0 1.4zm.2-3.3v.2c0 .5 0 .9-.1 1.4 0-.5 0-1 .1-1.4 0-.4 0-.7.1-1.1v-.7c0 .4-.1 1-.1 1.6zm.1-2.1v.5c0-.4 0-.8.1-1.2-.1.2-.1.5-.1.7zm.1-1.3c0 .1 0 .1 0 0v-.9.9zm0 .1v-1 1zm0-1.1v-.5c.1.1 0 .3 0 .5zm.1-1.5v.7c0-.3 0-.6.1-.9-.1.1-.1.2-.1.2zm.1-1.3c0 .3 0 .6-.1 1 .1-.3.1-.6.1-1s.1-.9.1-1.3c0 .4-.1.8-.1 1.2.1 0 0 0 0 .1zm.2-1.8c0 .4-.1.8-.1 1.1v.4c0-.4.1-.8.1-1.2v-.1c0-.2 0-.4.1-.6-.1.2-.1.3-.1.4zm.1-1.7c0 .4-.1.8-.1 1.2.1-.4.1-.8.1-1.2zm0 0c0 .3-.1.6-.1.8.1-.2.1-.5.1-.8v-.1c0-.5.1-1 .1-1.5l-.1 1.6zm2.4-18.8c.1-.4.1-.8.2-1.2v-.3c0 .5-.1 1-.2 1.5zm1.4-7.4v-.2c0-.2.1-.4.1-.6 0 .2-.1.5-.1.8zm396.3 49.8v3.2c0 1.1-.1 2.2-.1 3.2-.1 1.1-.1 2.1-.2 3.2s-.2 2.1-.2 3.2c-.1.8-.1 1.5-.2 2.3v.9l-.3 2.4c-.1.4-.1.9-.2 1.3 0 .2 0 .4-.1.5-.2 1.4-.4 2.9-.7 4.3-.1.5-.2 1.1-.3 1.6-.1.4-.2.9-.2 1.3-.1.5-.2 1-.3 1.6-.2.8-.3 1.6-.5 2.4-.2 1-.4 2-.7 2.9 0 .1-.1.2-.1.3-.2.9-.5 1.9-.7 2.8-.3 1-.5 2-.8 3-.2.7-.4 1.5-.7 2.2 0 .1 0 .2-.1.3-.1.5-.3.9-.5 1.4-.5 1.6-1.1 3.3-1.7 4.9 0 .1-.1.2-.1.3-.4 1-.7 2-1.1 3-.3.8-.6 1.6-1 2.4l-.3.9c-.5 1.1-.9 2.1-1.4 3.2-.9 2-1.9 4-2.9 6 0 .1-.1.2-.1.3-.5 1-1 2-1.6 3v.1c-.8 1.5-1.7 3-2.6 4.5-.7 1.3-1.5 2.5-2.3 3.7-.3.5-.6.9-.9 1.4-.5.7-1 1.5-1.5 2.2-.4.6-.8 1.1-1.2 1.7-.4.6-.8 1.2-1.3 1.8-.5.6-.9 1.3-1.4 1.9-.4.5-.7 1-1.1 1.5-.5.7-1.1 1.4-1.6 2.1-.3.4-.7.8-1 1.2-.6.7-1.2 1.5-1.8 2.2-.3.3-.5.6-.8 1-.7.8-1.4 1.6-2 2.3-.2.2-.4.5-.6.7-.6.6-1.1 1.2-1.7 1.8-.2.2-.4.5-.6.7-26.1 27.3-62.9 44.4-103.8 44.4-30.3 0-58.4-9.4-81.6-25.4-.1-.1-.2-.1-.3-.2-29.6-20.6-51.1-52.2-58.7-88.8-.7-3.2-1.2-6.5-1.7-9.9-.1-.5-.1-1-.2-1.5l-.3-2.4.3 2.4-.3-2.4c-.4-8.6-.8-14.9-.8-15.2 0-10 1-19.7 2.9-29l.9-3.9-.9 3.9.9-3.9c.1-.4.2-.9.3-1.3.1-.3.1-.6.2-.8.1-.4.2-.9.3-1.3.2-.6.3-1.1.4-1.7 0-.1.1-.2.1-.3.2-.8.4-1.6.7-2.4.1-.5.3-.9.4-1.4.2-.5.3-1.1.5-1.6 0-.2.1-.3.1-.4.2-.6.4-1.3.6-1.9v-.2c.1-.4.3-.8.4-1.2.2-.7.5-1.4.7-2 .1-.2.2-.5.3-.7l.9-2.4c.3-.8.6-1.6.9-2.3.1-.1.1-.2.1-.3 0 0 0-.1.1-.1 0 0 0-.1.1-.1l.9-2.1c.1-.2.2-.3.2-.5 0-.1.1-.2.1-.3.3-.6.6-1.2.8-1.9.3-.7.7-1.4 1-2.1 0-.1.1-.2.1-.2 0-.1.1-.2.1-.2l.1-.1c.2-.5.5-1 .8-1.5.2-.3.3-.6.5-1 .1-.1.1-.2.2-.3.8-1.6 1.7-3.2 2.6-4.7.1-.2.2-.3.3-.5.1-.1.2-.3.2-.4.1-.2.3-.5.4-.8.2-.3.3-.6.5-.8 0-.1.1-.1.1-.2s.1-.1.1-.2c.1-.1.1-.2.2-.3.3-.6.7-1.2 1.1-1.8.4-.6.8-1.3 1.2-1.9.1-.1.2-.2.2-.4l.1-.1c0-.1.1-.1.1-.2s.1-.1.1-.2v-.1s0-.1.1-.1c.2-.4.5-.7.7-1.1.1-.2.3-.5.5-.7.1-.2.2-.3.3-.5.1-.2.2-.3.3-.5.3-.5.6-.9 1-1.4l.1-.1s0-.1.1-.1c.1-.1.1-.2.2-.3.4-.6.9-1.3 1.4-1.9.1-.1.2-.2.3-.4.3-.4.5-.7.8-1.1.1-.1.2-.3.3-.4.2-.3.5-.6.7-.9.3-.4.7-.9 1-1.3.3-.3.5-.7.8-1 .4-.6.9-1.1 1.4-1.7l.2-.2c.6-.7 1.1-1.3 1.7-2 .6-.7 1.3-1.4 1.9-2.1.6-.7 1.2-1.4 1.9-2l.1-.1.5-.5 1.5-1.5 1.5-1.5.5-.5c.7-.7 1.4-1.3 2.1-2 .4-.3.7-.7 1.1-1l.2-.2s.1 0 .1-.1c.1 0 .1-.1.1-.1l.5-.5.5-.5c.3-.3.6-.5.9-.8l.1-.1c.4-.4.8-.7 1.2-1.1.1 0 .1-.1.2-.2l.2-.2c.1-.1.2-.2.4-.3l.1-.1.1-.1c.3-.3.7-.6 1.1-.9h.1c.2-.1.3-.2.4-.4.2-.1.3-.3.5-.4l.3-.3s.1 0 .1-.1c.1-.1.2-.2.3-.2.1 0 .1-.1.2-.1l1.8-1.5.3-.3h.1c.8-.6 1.5-1.2 2.3-1.7.5-.4 1-.7 1.5-1.1.2-.1.4-.3.6-.4.1 0 .1-.1.1-.1l.1-.1c.1-.1.2-.1.2-.2.2-.1.3-.2.5-.3.3-.2.6-.5 1-.7l.1-.1c.3-.2.7-.5 1-.7.1 0 .1-.1.2-.1l.1-.1c.3-.2.7-.4 1-.7.1 0 .1-.1.2-.1s.1-.1.1-.1l.9-.6h.1c.5-.3 1-.6 1.5-1h.1c.2-.1.4-.3.6-.4.6-.4 1.2-.8 1.8-1.1.1 0 .1-.1.2-.1.2-.1.4-.2.6-.4l1.7-1c.1 0 .1-.1.2-.1l2.1-1.2c.1-.1.3-.2.4-.2.8-.5 1.7-.9 2.6-1.4.7-.4 1.4-.7 2.1-1.1h.1s.1 0 .1-.1c.1 0 .2-.1.3-.1h.1c.1-.1.2-.1.3-.2.6-.3 1.1-.5 1.7-.8h.1c.1 0 .1-.1.2-.1s.2-.1.3-.1c.2-.1.3-.2.5-.2h.1s.1 0 .1-.1c.1-.1.2-.1.4-.2.4-.2.8-.4 1.1-.5h.2c.2-.1.3-.1.5-.2.1-.1.3-.1.5-.2 1.5-.7 3.1-1.3 4.6-1.9.2-.1.3-.1.5-.2.7-.3 1.5-.6 2.2-.8 1.8-.7 3.7-1.3 5.5-1.9.1 0 .2-.1.3-.1 1.7-.5 3.5-1.1 5.3-1.6.2-.1.4-.1.6-.1.1 0 .2 0 .3-.1l1.2-.3h.1c.3-.1.5-.1.8-.2 1.9-.5 3.8-.9 5.7-1.3h.1c.1 0 .2 0 .2-.1 3.8-.8 7.7-1.4 11.6-1.9 5-.6 10-1 15.2-1.1h6.2c.9 0 1.9.1 2.8.1h.7c.9 0 1.8.1 2.8.1 2 .1 4 .3 5.9.5.3 0 .5 0 .8.1.8.1 1.7.2 2.5.3 1 .1 2 .3 3 .4.7.1 1.4.2 2 .3.2 0 .4.1.6.1h.7c.8.1 1.6.3 2.4.4.1 0 .2 0 .2.1.1 0 .2 0 .4.1.7.2 1.5.3 2.2.5.1 0 .3.1.4.1.1 0 .2 0 .4.1.9.2 1.7.4 2.6.6.4.1.7.2 1.1.3.6.1 1.2.3 1.8.5 1.9.5 3.9 1.1 5.8 1.6 1.9.6 3.8 1.2 5.7 1.9.8.3 1.6.6 2.5.9.2.1.3.1.4.2.1 0 .2.1.2.1.1 0 .2.1.4.1.7.2 1.4.5 2.1.8.9.4 1.8.7 2.7 1.1l2.7 1.2 2.7 1.2c.6.3 1.1.5 1.7.8.4.2.9.4 1.3.6.1.1.2.1.4.2.1.1.2.1.3.1.5.3 1.1.6 1.6.9.9.5 1.7.9 2.6 1.4 0 0 .1.1.2.1 0 0 .1 0 .1.1.8.4 1.5.9 2.3 1.3.8.5 1.7 1 2.5 1.5.1 0 .1.1.2.1.8.5 1.5.9 2.3 1.4-.1-.1-.3-.2-.4-.3.1.1.3.2.4.3.3.2.6.4.8.5.5.3 1.1.7 1.6 1.1 3.2 2.2 6.4 4.5 9.5 6.9.3.3.6.5 1 .8.4.4.9.7 1.3 1.1.8.6 1.5 1.3 2.3 1.9 1 .9 2 1.7 3 2.6 1 .9 1.9 1.8 2.9 2.7.4.3.7.7 1.1 1l.3.3 1.4 1.4c.6.7 1.3 1.3 1.9 2l3.3 3.6.2.2c.3.3.5.6.8.9.1 0 .1.1.1.2.3.3.5.6.8.9l.1.1.2.2c.2.2.4.4.5.6l.1.1c.4.5.8 1 1.3 1.5.8 1 1.7 2.1 2.5 3.1s1.5 2 2.2 3c0 .1.1.1.1.2.3.5.7.9 1 1.4l.1.1.1.1c.3.4.5.8.8 1.1.1.2.2.3.4.5.1.1.2.3.3.4.1.1.2.2.2.3.1.1.2.3.3.4.4.7.9 1.3 1.3 2 .3.4.6.9.8 1.3.1.2.2.3.3.5.1.1.1.2.2.3.3.5.6 1 .9 1.4.3.6.7 1.2 1 1.7.2.4.4.7.6 1.1v.1c.2.4.4.7.6 1.1.2.4.5.8.7 1.2l.9 1.8c.4.7.8 1.5 1.2 2.2.2.5.5.9.7 1.4.4.8.8 1.5 1.1 2.3 0 0 0 .1.1.1v.2s0 .1.1.1c.1.2.2.3.2.5.1.1.1.2.2.4.2.5.4.9.6 1.4.3.8.7 1.5 1 2.3 0 .1.1.2.1.3.1.2.1.3.2.5.4.9.7 1.8 1.1 2.7.5 1.3 1 2.6 1.5 4 .2.6.5 1.3.7 1.9.3.8.5 1.5.8 2.3 0 .2.1.3.1.5l.6 1.8c.1.4.2.8.4 1.2.1.4.2.7.3 1 .1.2.1.3.2.5 0 .1.1.3.1.4l.9 3.3c.1.3.2.7.3 1v.2c.1.5.2.9.3 1.4.1.6.3 1.2.4 1.9.2.7.3 1.4.5 2.2.1.2.1.4.1.7.3 1.5.6 3.1.9 4.7.1.4.1.8.2 1.2.2 1 .3 2.1.5 3.2.1.6.2 1.2.2 1.8.1.6.1 1.2.2 1.8.1.6.1 1.3.2 1.9v.1c0 .3.1.6.1.9.1.6.1 1.2.1 1.8.1.9.1 1.7.2 2.6v.1c0 .8.1 1.6.1 2.5 0 .4 0 .9.1 1.3v2.6c-.1.4-.1 1.1-.1 1.8zm-430.1 156.3c.3-.7.5-1.4.8-2 .4-.9.7-1.9 1.1-2.8-.6 1.6-1.3 3.2-1.9 4.8zm-13 155.4c.3.2.6.4.8.5-.2-.1-.4-.3-.7-.4.1 0 0-.1-.1-.1zm42.1-319.6v-1.1 1.1zm-.8 30.9c0 .1 0 .1 0 0 0 .4 0 .8-.1 1.1.1-.3.1-.7.1-1.1z" id="Layer_2"/>
    <g id="STROKES">
        <path class="st1" d="M1256.6 1308.4c1.4 28.6-37.9 38.1-50.1 12.2-15.4-32.8-44.5-57.1-76.1-74.9-61.3-34.5-132.2-44.6-132.2-44.6-127-15.9-225.2-124.3-225.2-255.6 0-142.3 115.4-257.6 257.6-257.6 52.9 0 102 15.9 142.9 43.3 10.4 6.9 20.3 14.6 29.5 23-9.9 27.4-15.3 56.9-15.3 87.7 0 37.6-4.8 74.1-13.8 109 .1-1.7.1-3.5.1-5.3 0-80-65.5-144.7-145.8-143.5-77.4 1.2-140.4 64.5-141.2 141.9-.7 66.3 43.6 122.4 104.2 139.6 36.1 12 67.6 24.6 95 37.6 43 20.3 75.9 41.4 100.9 62.7 49.9 42.5 67.7 85.8 69.5 124.5z"/>
        <path class="st1" d="M1588.9 841.8c0 79.2-64.2 143.5-143.5 143.5-69.3 0-127.1-49.1-140.5-114.4-.9-4.5-1.7-9.1-2.1-13.8-.5-5-.8-10.1-.8-15.2 0-9.9 1-19.7 2.9-29 13.4-65.3 71.2-114.5 140.5-114.5 79.3-.1 143.5 64.1 143.5 143.4z"/>
        <path class="st1" d="M1271.9 1032.3c3.7-9.9 7-20 10.1-30.2 10.1-33.4 17.1-68.1 20.7-103.8v-.2"/>
        <path class="st1" d="M1302.7 857c.5 4.7 1.2 9.3 2.1 13.8"/>
        <path class="st1" d="M1445.4 584.2c-66.8 0-127.7 25.4-173.5 67.1-30.6 27.9-54.5 63.1-68.9 102.8-9.9 27.4-15.3 56.9-15.3 87.7 0 37.6-4.8 74.1-13.8 109-7.6 29.5-18.3 57.9-31.6 84.6-15.3 30.8-34.2 59.5-56.1 85.7 43 20.3 75.9 41.4 100.9 62.7 28-35.6 51.8-74.7 70.5-116.6 5.1-11.4 9.9-23.1 14.2-34.9.3.3.7.6 1 .9 45.7 41.2 106.1 66.2 172.5 66.2 142.3 0 257.6-115.4 257.6-257.6.2-142.3-115.2-257.6-257.5-257.6zm0 401.1c-69.3 0-127.1-49.1-140.5-114.4-.5 9.1-1.2 18.2-2.1 27.2.9-11.3.5-28.6-.1-41.1-.5-5-.8-10.1-.8-15.2 0-10 1-19.7 2.9-29 13.4-65.3 71.2-114.5 140.5-114.5 79.3 0 143.5 64.3 143.5 143.5s-64.1 143.5-143.4 143.5zM334.9 719c4.8-16.2 28.1-104.6 44.2-165.9 5.3-20.3-17.8-36-34.7-23.6-38.9 28.6-76.1 99.8-79.5 107-35.1 72.7-48 126.6-48 212.8 0 56.8 7.9 111.2 22.9 162.4l97.4-41.2c-13.6-43-20.5-88.7-19.8-136 .7-40 6.7-78.7 17.5-115.5zm663.3 482.1c-70.9 48.6-157 76.7-249.6 75.9-118.8-1.1-226.7-50.9-304.9-130.1l-99.5 61.1c96.7 115.1 241.2 186.9 408.3 186.9 146.1 0 279-56.7 377.8-149.2-61.2-34.6-132.1-44.6-132.1-44.6z"/>
        <path class="st1" d="M1302.7 857c.5 4.7 1.2 9.3 2.1 13.8"/>
        <path class="st1" d="M1302.8 898.1v.2c-3.6 35.7-10.6 70.4-20.7 103.8-3.1 10.2-6.4 20.3-10.1 30.2"/>
        <path class="st1" d="M1174.1 945.4c0 1.8 0 3.6-.1 5.3-7.6 29.5-18.3 57.9-31.6 84.6-26.3 32.7-66.6 53.6-111.8 53.6-13.6 0-26.8-1.9-39.3-5.4-60.1-17.1-104.2-72.4-104.2-138.1 0-79.2 64.2-143.5 143.5-143.5 79.3.1 143.5 64.3 143.5 143.5z"/>
        <path class="st1" d="M1174.1 945.4c0 1.8 0 3.6-.1 5.3-7.6 29.5-18.3 57.9-31.6 84.6-26.3 32.7-66.6 53.6-111.8 53.6-13.6 0-26.8-1.9-39.3-5.4-60.1-17.1-104.2-72.4-104.2-138.1 0-79.2 64.2-143.5 143.5-143.5 79.3.1 143.5 64.3 143.5 143.5z"/>
        <path class="st1" d="M1302.4 901.4c.1-1 .2-2 .3-3.1v-.2"/>
        <path class="st1" d="M1302.7 857c-.4-8.8-.8-15.2-.8-15.2"/>
        <path class="st1" d="M445.7 1129.9c5 4.9 4 13.3-2 16.9l-99.5 61.1c-8.1 5-18.6 3-24.3-4.6-23.3-31-78.8-111.1-87-180.5-.6-4.8 2.3-9.4 6.9-11.1l97.4-41.2c6.8-2.9 14.7.5 17.2 7.4 10.9 29.5 41.6 102.9 91.3 152z"/>
    </g>
</svg>
