<svg xmlns="http://www.w3.org/2000/svg" viewBox="0 0 1920 1920">
    <style>
        .st0{fill:#fff}.st1{fill:none;stroke:#000;stroke-width:50;stroke-linecap:round;stroke-linejoin:round;stroke-miterlimit:10}
    </style>
    <path class="st0" d="M1394.2 224.2c-27-18.4-63.8.1-65.1 32.8-1 26.8 8.5 63.7 43.9 112 86.2 118.1 201.9 305.3 136.7 406.3 0 0-56.8 151.5-284 21-227.1-130.3-403.8 71.6-391.2 206.2 12.6 134.6 107.3 294.5-12.6 412.3-120 117.9-191.5 124.2-307.2 105.2-115.7-18.9-244 90.5-241.9 183 0 0 79.9 0 128.3-42.1 0 0 317.6 42.1 499.7-157.8 150.3-183 77.2-345.2 44.3-451.3-32.9-106.2 61.8-156.6 61.8-156.6s122-82 271.4 42.1c0 0 174.6 96.8 317.6-67.3 133.7-153.2-15.2-519.2-201.7-645.8z" id="Layer_6"/>
    <g id="STROKES">
        <path class="st1" d="M1596 870c-143.1 164.1-317.6 67.3-317.6 67.3-149.4-124.1-271.4-42-271.4-42s-94.7 50.5-61.8 156.6c32.8 106.2 106 268.3-44.3 451.3-182 199.9-499.7 157.8-499.7 157.8-48.4 42.1-128.3 42.1-128.3 42.1-2.1-92.6 126.2-202 241.9-183 115.7 18.9 187.2 12.6 307.1-105.2 119.9-117.8 25.2-277.7 12.6-412.3-12.6-134.7 164.1-336.6 391.3-206.2 227.2 130.4 284-21 284-21 65.2-101-50.5-288.2-136.7-406.3-35.3-48.4-44.9-85.3-43.9-112 1.2-32.7 38-51.1 65.1-32.8C1580.7 350.8 1729.6 716.8 1596 870z"/>
        <path class="st1" d="M1394.2 224.2c-27-18.4-63.8.1-65.1 32.8-1 26.7 8.5 63.7 43.9 112.1 86.2 118.1 201.9 305.3 136.7 406.3 0 0-56.8 151.5-284 21s-403.9 71.5-391.3 206.2c12.6 134.6 107.3 294.5-12.6 412.3S630.4 1539 514.7 1520c-115.7-18.9-244 90.5-241.9 183 0 0 79.9 0 128.3-42.1 0 0 317.7 42.1 499.7-157.8 150.3-183 77.2-345.2 44.3-451.3s61.8-156.6 61.8-156.6 122-82 271.4 42.1c0 0 174.6 96.8 317.7-67.3 133.6-153.2-15.3-519.2-201.8-645.8z"/>
        <path class="st1" d="M419.8 1554.1c15.3 6.5 26.2 21 31.9 36.7 5.7 15.7 6.9 32.5 7.8 49.2"/>
        <path class="st1" d="M587.8 1535.9c30.1 13.6 46.7 51.7 36.1 83"/>
        <path class="st1" d="M758.9 1498.5c27.6 8.6 49.5 33.1 54.9 61.5"/>
        <path class="st1" d="M855.2 1398.4c16.2 2.6 32.4 7.9 44.7 18.8 12.3 10.9 19.8 28 16 43.9"/>
        <path class="st1" d="M891.4 1268c31.9-11.9 71.4 1.5 89.4 30.4"/>
        <path class="st1" d="M869.9 1128.4c21.9-21.3 55.3-29.9 84.7-21.8 5 1.4 10.9 4.5 10.6 9.7"/>
        <path class="st1" d="M834.7 992.4c30.4-17.1 66.8-23.2 101.1-17.1"/>
        <path class="st1" d="M915.1 825.8c2.2-4.1 8.4-1.6 12.1 1.2 14.1 11 28.2 22.6 38.5 37.3 10.3 14.7 16.5 33 13.3 50.7"/>
        <path class="st1" d="M1110.6 764.3c13.9 13.6 21.6 33.3 20.7 52.8s-10.4 38.3-25.5 50.6"/>
        <path class="st1" d="M1290.3 834.8c10.3 13.2 13.2 31.8 7.4 47.4-5.8 15.7-20 28-36.3 31.4"/>
        <path class="st1" d="M1448.7 840.8c20.7 7.1 36.8 30.6 38.5 56.3s-11.1 52-30.6 62.9"/>
        <path class="st1" d="M1541.9 741.7c16.7-8.1 36.5-8 53.1.3s29.6 24.7 35 43.9c2 7.1 2.9 15.1.2 21.9"/>
        <path class="st1" d="M1528.1 632.2c8.8-33.4 44.2-57.6 78.5-53.7"/>
        <path class="st1" d="M1470.6 509.3c23.9-31.1 58.2-53.9 96.1-63.9"/>
        <path class="st1" d="M1412.9 398.8c7.4-35.5 44-62.3 80-58.6"/>
    </g>
</svg>
