<svg xmlns="http://www.w3.org/2000/svg" viewBox="0 0 1920 1920">
    <style>
        .st0{fill:#fff}.st1{fill:none;stroke:#231f20;stroke-width:50;stroke-linecap:round;stroke-linejoin:round;stroke-miterlimit:10}
    </style>
    <path class="st0" d="M1170.4 1605v98.1H749.6V1605h420.8zM960 1273.5c-81 0-154.8-30.7-210.4-81.1V1605h420.8v-412.6c-55.6 50.4-129.4 81.1-210.4 81.1zM749.6 315v412.6c55.6-50.4 129.4-81.1 210.4-81.1s154.8 30.7 210.4 81.1V315H749.6zm0-98.1V315h420.8v-98.1H749.6z" id="Layer_2"/>
    <path class="st0" d="M1270.3 914.6c2.2 14.8 3.3 30 3.3 45.4s-1.1 30.6-3.3 45.4c-10.7 73.8-47.1 139.3-99.8 187-55.6 50.4-129.4 81.1-210.4 81.1s-154.8-30.7-210.4-81.1C686.4 1135 646.6 1052.2 646.6 960s39.8-175.1 103.1-232.4c55.6-50.4 129.4-81.1 210.4-81.1s154.8 30.7 210.4 81.1c52.7 47.7 89.1 113.2 99.8 187z" id="Layer_3"/>
    <path class="st0" d="M1351 914.6v90.8h-80.7c2.2-14.8 3.3-30 3.3-45.4s-1.1-30.6-3.3-45.4h80.7z" id="Layer_4"/>
    <g id="STROKES">
        <g id="XMLID_1_">
            <path class="st1" d="M1270.3 914.6c2.2 14.8 3.3 30 3.3 45.4s-1.1 30.6-3.3 45.4c-10.7 73.8-47.1 139.3-99.8 187-55.6 50.4-129.4 81.1-210.4 81.1s-154.8-30.7-210.4-81.1C686.4 1135 646.6 1052.2 646.6 960s39.8-175.1 103.1-232.4c55.6-50.4 129.4-81.1 210.4-81.1s154.8 30.7 210.4 81.1c52.7 47.7 89.1 113.2 99.8 187z"/>
            <path class="st1" d="M1170.4 1192.4v510.7H749.6v-510.7"/>
            <path class="st1" d="M1270.3 914.6h80.7v90.8h-80.7"/>
            <path class="st1" d="M1076.2 960H960"/>
            <path class="st1" d="M960 773v187"/>
            <path class="st1" d="M749.6 1605h420.8"/>
            <path class="st1" d="M749.6 727.6V216.9h420.8v510.7"/>
            <path class="st1" d="M1170.4 315H749.6"/>
        </g>
    </g>
</svg>
