<svg xmlns="http://www.w3.org/2000/svg" viewBox="0 0 1920 1920">
    <style>
        .st0{fill:#fff}.st1{fill:none;stroke:#231f20;stroke-width:50;stroke-linecap:round;stroke-linejoin:round;stroke-miterlimit:10}
    </style>
    <path class="st0" d="M1236 1014.2v251.6c0 33.7-27.6 61.3-61.3 61.3H745.3c-33.7 0-61.3-27.6-61.3-61.3V654.3c0-33.7 27.6-61.3 61.3-61.3h429.4c33.7 0 61.3 27.6 61.3 61.3v359.9zm-90.4 206.9V698.9c0-8.6-7-15.6-15.6-15.6H789.9c-8.6 0-15.6 7-15.6 15.6V1221c0 8.6 7 15.6 15.6 15.6H1130c8.6 0 15.6-7 15.6-15.5z" id="Layer_5"/>
    <path class="st0" d="M1145.6 698.9V1221c0 8.6-7 15.6-15.6 15.6H789.9c-8.6 0-15.6-7-15.6-15.6V698.9c0-8.6 7-15.6 15.6-15.6H1130c8.6.1 15.6 7.1 15.6 15.6z" id="Layer_6"/>
    <path class="st0" d="M1236 905.8h84.1v108.3H1236z" id="Layer_7"/>
    <path class="st0" d="M1101 1327v376.1H819V1327h282zM819 216.9v376h282v-376H819z" id="Layer_8"/>
    <g id="STROKES">
        <g id="XMLID_1_">
            <path class="st1" d="M1101 593h73.7c33.7 0 61.3 27.6 61.3 61.3v611.5c0 33.7-27.6 61.3-61.3 61.3H1101"/>
            <path class="st1" d="M819 1327h-73.7c-33.7 0-61.3-27.6-61.3-61.3V654.3c0-33.7 27.6-61.3 61.3-61.3H819"/>
            <path class="st1" d="M819 216.9h282"/>
            <path class="st1" d="M1101 216.9V593H819V216.9"/>
            <path class="st1" d="M819 1327h282"/>
            <path class="st1" d="M1101 1327v376.1H819V1327"/>
            <path class="st1" d="M1130.1 1236.6H789.9c-8.6 0-15.6-7-15.6-15.6V698.9c0-8.6 7-15.6 15.6-15.6H1130c8.6 0 15.6 7 15.6 15.6V1221c0 8.6-7 15.6-15.5 15.6z"/>
            <path class="st1" d="M881.4 840.1h157.2"/>
            <path class="st1" d="M881.4 960h157.2"/>
            <path class="st1" d="M881.4 1079.9h157.2"/>
            <path class="st1" d="M1236 905.8h84.1v108.4H1236"/>
        </g>
    </g>
</svg>
