<svg xmlns="http://www.w3.org/2000/svg" viewBox="0 0 1920 1920">
    <style>
        .st0{fill:#fff}.st1{fill:none;stroke:#231f20;stroke-width:50;stroke-linecap:round;stroke-linejoin:round;stroke-miterlimit:10}
    </style>
    <g id="Layer_9">
        <path class="st0" d="M1120.8 1141.3v427c0 88.8-72 160.8-160.8 160.8-44.4 0-84.6-18-113.7-47.1-29.1-29.1-47.1-69.3-47.1-113.7v-427c45.5 31.9 101 50.6 160.8 50.6s115.2-18.7 160.8-50.6z"/>
        <path class="st0" d="M1120.8 392.7v289c-45.5-31.9-101-50.6-160.8-50.6s-115.2 18.7-160.8 50.6v-289h321.6z"/>
    </g>
    <path class="st0" d="M1120.8 681.7c72.3 50.7 119.6 134.7 119.6 229.8s-47.3 179.1-119.6 229.8c-45.5 31.9-101 50.6-160.8 50.6s-115.2-18.7-160.8-50.6c-72.3-50.7-119.6-134.7-119.6-229.8s47.3-179.1 119.6-229.8c45.5-31.9 101-50.6 160.8-50.6s115.2 18.7 160.8 50.6z" id="Layer_10"/>
    <g id="STROKES">
        <g id="XMLID_1_">
            <path class="st1" d="M1120.8 392.7H799.2V216.9h321.6z"/>
            <path class="st1" d="M960 392.7V216.9"/>
            <path class="st1" d="M799.2 681.7c45.5-31.9 101-50.6 160.8-50.6s115.2 18.7 160.8 50.6"/>
            <path class="st1" d="M799.2 1141.3c-72.3-50.7-119.6-134.7-119.6-229.8s47.3-179.1 119.6-229.8"/>
            <path class="st1" d="M1120.8 1141.3c-45.5 31.9-101 50.6-160.8 50.6s-115.2-18.7-160.8-50.6"/>
            <path class="st1" d="M1120.8 681.7c72.3 50.7 119.6 134.7 119.6 229.8s-47.3 179.1-119.6 229.8"/>
            <path class="st1" d="M799.2 392.7v289"/>
            <path class="st1" d="M1120.8 392.7v289"/>
            <path class="st1" d="M1120.8 1141.3v427c0 88.8-72 160.8-160.8 160.8-44.4 0-84.6-18-113.7-47.1-29.1-29.1-47.1-69.3-47.1-113.7v-427"/>
            <path class="st1" d="M960 1307.7v33.6"/>
            <path class="st1" d="M960 1448.5v33.7"/>
            <path class="st1" d="M960 1589.4v33.6"/>
        </g>
    </g>
</svg>
