<svg xmlns="http://www.w3.org/2000/svg" viewBox="0 0 1920 1920">
    <style>
        .st0{fill:#fff}.st1{fill:none;stroke:#231f20;stroke-width:50;stroke-linecap:round;stroke-linejoin:round;stroke-miterlimit:10}
    </style>
    <path class="st0" d="M1486.4 1614.7l31.4 53.8c0 18-14.6 32.6-32.6 32.6h-206c-11.4 0-20.6-9.2-20.6-20.6v-4c0-6.3 4.3-11.8 10.5-13.3l96.8-22.9c16.9-4 21.2-26 7.1-36.1-100.5-71.8-287.2-181.9-287.2-181.9-102.1 7.8-247.4-106-247.4-106-86.4 47.1-219.1-10.5-219.1-10.5 27.5 78.5-47.5 297.5-47.5 297.5l11.3 65c3.2 18.2-10.9 34.9-29.4 34.9H343.3c-6.4 0-12.2-2.6-16.4-6.8-4.2-4.2-6.8-10-6.8-16.4 0-9.8 6.2-18.6 15.4-21.8 53.3-18.9 145.6-63.1 145.6-63.1s3.9-231.7 3.9-361.3 257.2-70.7 257.2-70.7-5.7-11.5-25.5-125.7c-33.9-194.4 62.8-231.7 62.8-231.7s7.9-204.2 11.8-219.9c3.9-15.7-19.6-227.8-19.6-227.8-4.6-53-6.1-94.9 4.3-126.3 4.6-13.9 37.3-21.2 42.2-7.4 7.9 22.3 14.4 47.1 19.4 69.3 28.6-10.8 72.1-23.1 55.9 9.4-23.6 47.1-43.2 58.9-43.2 58.9 15.7 51.1 31.4 227.8 31.4 227.8l11.4 28.4c5.1-.7 10.2-1.1 15.5-1.3 33.8-1 64.7 9.7 87.5 27.9l29.3-32.3s56.2 72.4 47.6 130.7c-7.5 50.4-85.4 67.9-106.1 71.7 5.9 60-26.3 123.5-26.3 123.5-23.6 128.5 35.3 173.7 35.3 173.7 66.8 43.2 43.2 125.7 43.2 125.7 47.1 3.9 157.1 121.7 157.1 121.7 157.1 27.5 310.2 255.3 310.2 255.3z" id="Layer_3"/>
    <g id="STROKES">
        <path class="st1" d="M1486.4 1614.7s-153.1-227.8-310.2-255.3c0 0-109.9-117.8-157.1-121.7 0 0 23.6-82.5-43.2-125.7 0 0-58.9-45.2-35.3-173.8 0 0 32.1-63.6 26.3-123.5 20.8-3.8 98.7-21.3 106.1-71.7 8.6-58.2-47.6-130.7-47.6-130.7l-29.3 32.3c-22.7-18.2-53.7-28.9-87.5-27.9-5.3.2-10.4.6-15.5 1.3l-11.4-28.4S866 412.9 850.3 361.8c0 0 19.6-11.8 43.2-58.9 16.3-32.5-27.3-20.2-55.9-9.4-5-22.3-11.4-47-19.4-69.3-4.9-13.8-37.6-6.5-42.2 7.4-10.4 31.4-8.9 73.3-4.3 126.3 0 0 23.6 212.1 19.6 227.8-3.9 15.7-11.8 219.9-11.8 219.9s-96.7 37.3-62.8 231.7c19.9 114.2 25.5 125.7 25.5 125.7S485 1104.1 485 1233.7s-3.9 361.3-3.9 361.3-92.3 44.2-145.6 63.1c-9.2 3.3-15.4 12-15.4 21.8 0 6.4 2.6 12.2 6.8 16.4 4.2 4.2 10 6.8 16.4 6.8h210.6c18.5 0 32.6-16.7 29.4-34.9l-11.3-65s75-219 47.5-297.5c0 0 132.7 57.7 219.1 10.5 0 0 145.3 113.9 247.4 106 0 0 186.7 110.2 287.2 181.9 14.1 10.1 9.8 32.1-7.1 36.1l-96.8 22.9c-6.1 1.5-10.5 6.9-10.5 13.3v4c0 11.4 9.2 20.6 20.6 20.6h206c18 0 32.6-14.6 32.6-32.6l-31.6-53.7z" id="XMLID_1_"/>
    </g>
</svg>
