<svg xmlns="http://www.w3.org/2000/svg" viewBox="0 0 1920 1920">
    <style>
        .st0{fill:#fff}.st1{fill:none;stroke:#231f20;stroke-width:50;stroke-linecap:round;stroke-linejoin:round;stroke-miterlimit:10}
    </style>
    <path class="st0" d="M821.1 776.7c-14.7 60.9-194.9 187.6-233.9 246-39 58.5-208.6 205.7-208.6 205.7-11.9 65.4 45 87.5 80.7 89.2 8.1.4 41.2.5 41.2 28 4.8 12.9-5.3 25-19 25.7l-215.8-.2c-26.1 0-40.8-28-40.8-45.3 0-3.9 1.1-8.1 2.9-12.1 1.8-4 4.3-7.7 7-10.5 19.3-19.1 33.9-42.3 43-67.9 74.4-209.8 210.6-262 226.7-315.3 17.1-56.3 107.2-121.5 158.4-292.1 22.9-76.4 73.3-98 121.8-98.6 61.3-.7 118 32.4 148.9 85.3l260.4 446.9s148 75.5 349.4 231.9l-2.3-1 .2.1c.7.3 1.4.6 2.2.9l144.1 52.4c9 3.2 15.3 11.5 15.6 21.1.4 13-10 23.6-22.9 23.6h-139.8c-9.2 0-17.5-5.5-21.1-13.9l-5.3-12.5c-2.1-5-6-9.1-10.8-11.5L1203.6 1203l-3.7 17c-2.7 12.6-7.7 24.5-14.5 35.1s-15.6 20.1-25.9 27.8c-34.2 25.7-79.9 30-118.4 11.2-27.5-13.4-48.4-37.3-58.1-66.3-12.3-36.7-26.9-84.6-25.5-100.4 2.4-26.8 53.6-29.2 53.6-29.2S960 1056.8 882 981.3c-77.1-74.8-61.2-202-60.9-204.6z" id="Layer_2"/>
    <g id="STROKES">
        <g id="XMLID_1_">
            <path class="st1" d="M821.1 776.6c0 .1 0 .1 0 0 0 .1 0 .1 0 0-.3 2.7-16.2 129.9 60.9 204.6 78 75.5 129.1 116.9 129.1 116.9s-51.2 2.4-53.6 29.2c-1.4 15.8 13.2 63.7 25.5 100.4 9.7 29 30.6 52.9 58.1 66.3 38.4 18.8 84.2 14.4 118.4-11.2 10.3-7.7 19.1-17.2 25.9-27.8s11.8-22.6 14.5-35.1l3.7-17 299.5 149.7c4.9 2.4 8.7 6.5 10.8 11.5l5.3 12.5c3.6 8.4 11.9 13.9 21.1 13.9h139.8c12.9 0 23.3-10.6 22.9-23.6-.3-9.5-6.6-17.8-15.6-21.1l-144.1-52.4"/>
            <path class="st1" d="M1543.4 1293.5C1342 1137.1 1194 1061.6 1194 1061.6L933.5 614.8c-30.8-53-87.6-86-148.9-85.3-48.6.5-98.9 22.1-121.8 98.5-51.2 170.5-141.3 235.8-158.4 292.1-16.1 53.3-152.2 105.5-226.7 315.3-9.1 25.6-23.7 48.8-43 67.9-2.7 2.8-5.2 6.5-7 10.5-1.8 3.9-2.9 8.2-2.9 12.1 0 17.3 14.7 45.3 40.8 45.3l215.8.2c13.8-.7 23.9-12.8 19-25.7 0-27.5-33.1-27.6-41.2-28-35.7-1.7-92.6-23.8-80.7-89.2 0 0 169.7-147.2 208.6-205.7 39-58.5 219.2-185.1 233.9-246"/>
            <path class="st1" d="M1543.4 1293.5c-.7-.3-1.4-.6-2.2-.9l-.2-.1 2.4 1z"/>
        </g>
    </g>
</svg>
