<svg xmlns="http://www.w3.org/2000/svg" viewBox="0 0 1920 1920">
    <style>
        .st0{fill:#fff}.st1{fill:none;stroke:#231f20;stroke-width:50;stroke-linecap:round;stroke-linejoin:round;stroke-miterlimit:10}
    </style>
    <path class="st0" d="M1327.7 1617.9c24.4 169.4-367.7 33.8-367.7 33.8s-392.2 135.6-367.7-33.8c14.5-100.5 175-149.8 187-154.7 12-4.9 97.8-9.8 61.9-154.8-29.2-117.8-85.5-253.6-105.6-300.4-5.4-12.7-10.6-25.5-15.6-38.3L631 738c-23.6-49.4-4.6-113.8 34.9-164.1 47.5-60.4 158.7-118.4 185.6-129.8 46.2-19.5 39.1-104.9 61.7-174.3 17.7-54.6 47-52.7 47-52.7s29.3-1.9 47 52.7c22.6 69.4 15.4 154.8 61.7 174.3 26.9 11.4 138.1 69.4 185.6 129.8 39.5 50.2 58.5 114.6 34.9 164.1l-89 231.7c-4.9 12.9-10.2 25.7-15.6 38.3-20.1 46.8-76.4 182.6-105.6 300.4-36 145 49.9 149.9 61.8 154.8 11.8 4.8 172.2 54.1 186.7 154.7zm-160-920.4c13.5-24.5 6.8-55.3-15.7-72L960 476.7 768 625.5c-22.5 16.7-29.2 47.4-15.7 72 28 50.7 62.8 135.3 76.4 190.4 4.1 16.6 16.6 30.1 33.1 34.7 19.8 5.5 43-2.2 47.8-65 0 0-51.9-60-53.1-116.5-1.7-83.9 24.7-147.3 103.5-147.3s105.2 63.4 103.5 147.3c-1.2 56.5-53.1 116.5-53.1 116.5 4.8 62.8 28 70.5 47.8 65 16.5-4.6 29-18.1 33.1-34.7 13.6-55.1 48.5-139.7 76.4-190.4z" id="Layer_4"/>
    <g id="STROKES">
        <g id="XMLID_1_">
            <path class="st1" d="M960 593.7c78.8 0 105.2 63.4 103.5 147.3-1.2 56.5-53.1 116.5-53.1 116.5 4.8 62.8 28 70.5 47.8 65 16.5-4.6 29-18.1 33.1-34.7 13.6-55.1 48.5-139.7 76.4-190.4 13.5-24.5 6.8-55.3-15.7-72L960 476.7 768 625.5c-22.5 16.7-29.2 47.4-15.7 72 28 50.7 62.8 135.3 76.4 190.4 4.1 16.6 16.6 30.1 33.1 34.7 19.8 5.5 43-2.2 47.8-65 0 0-51.9-60-53.1-116.5-1.7-84 24.7-147.4 103.5-147.4z"/>
            <path class="st1" d="M960 217s29.3-1.9 47 52.7c22.6 69.4 15.4 154.8 61.7 174.3 26.9 11.4 138.1 69.4 185.6 129.8 39.5 50.2 58.5 114.6 34.9 164.1l-89 231.7c-4.9 12.9-10.2 25.7-15.6 38.3-20.1 46.8-76.4 182.6-105.6 300.4-36 145 49.9 149.9 61.8 154.8 12 4.9 172.5 54.2 187 154.7 24.4 169.4-367.7 33.8-367.7 33.8s-392.2 135.6-367.7-33.8c14.5-100.5 175-149.8 187-154.7 12-4.9 97.8-9.8 61.9-154.8-29.2-117.8-85.5-253.6-105.6-300.4-5.4-12.7-10.6-25.5-15.6-38.3l-89-231.7c-23.6-49.4-4.6-113.8 34.9-164.1 47.5-60.4 158.7-118.4 185.6-129.8 46.2-19.5 39.1-104.9 61.7-174.3C930.7 215.1 960 217 960 217z"/>
        </g>
    </g>
</svg>
