<svg xmlns="http://www.w3.org/2000/svg" viewBox="0 0 1920 1920">
    <style>
        .st0{fill:#fff}.st1{fill:#f8bbd0}.st2{fill:none;stroke:#231f20;stroke-width:50;stroke-linecap:round;stroke-linejoin:round;stroke-miterlimit:10}
    </style>
    <path class="st0" d="M272.1 1310c1.8 1.2 114.3 78.8 202.2 226.8-163.6-31.5-257.3-103.3-257.3-103.3l55.1-123.5c-.1 0 0 0 0 0zM656 654.3c-48 40.6-88.2 85-121.3 128.2 0 0 97 99.4 158.1 371.7 0 0 54.1 243.6 274.3 300.6 8.3-23.1 20-56.9 33.8-100.3C789 1126.4 656 654.3 656 654.3zm787.5 234.9s12.4 85.5-80.1 207c-54.4 71.3-82.1 63.5-95.8 44.9-10.3-14-11.2-32.8-2.9-48.1 60.8-112.7 110.2-268.5 110.2-268.5-58.3-55.5-116.2-112.1-161.4-156.7-275.1 82.4-357.3-132.2-357.3-132.2-22.7 8.5-44.5 18.1-65.3 28.6 0 0 75.7 283.8 125.9 376.7 0 0 36.6-119.2 52-119.2 0 0 86.6-43.9 24.9 203.2-8.3 33.3-10.9 67.9-6.9 102 4.7 40.2 18.7 89.2 54.6 132.1 15.7-20.6 36.9-35.5 67.3-42.2-3.1-6.2-65.2-136.1 18.1-295.9 5.1-9.8 66.9-13.5 64.5-2.8-18 77.4-38.7 218.3 22.3 301.2 37.8 7 83 20 137.2 39.7 151.8-125.5 169.6-298.4 169.7-299.9-23.8-20.9-49.9-44.7-77-69.9zm-324.7-87.7c-.6-22.6 17.2-41.4 39.9-42 22.6-.6 41.4 17.2 42 39.9.6 22.6-17.3 41.4-39.9 42-22.6.6-41.4-17.3-42-39.9zm-711.1 204.3l-80.9 181.4s213.7 281.5 229 101.4c15.3-180.1-95-394.3-95-394.3-36.7 65-53.1 111.5-53.1 111.5zm503.2-487.7l98-32.5c23.6-7.8 49.5.6 64 20.8l53.9 75.2 44.8-226.8s-128.3 0-206.3 69.1c-25.8 23-46.2 53.5-54.4 94.2zM706 1547.9c51-4.6 105.3-13.9 162.6-29.5l-110.4-69.2c-37.3-23.3-82.8 14.3-66.9 55.3l14.7 43.4z" id="Layer_2"/>
    <path class="st0" d="M474.3 1536.8c-87.9-148.1-200.5-225.6-202.2-226.8l54.8-122.8s213.7 281.5 229 101.4c15.3-180.1-95-394.3-95-394.3.6-1 1.2-2.1 1.8-3.2l2.4-4.2c3-5.2 6.2-10.6 9.4-16 .9-1.5 1.9-3.1 2.8-4.7 2.4-3.9 4.9-7.9 7.4-11.9.7-1.1 1.4-2.2 2.1-3.2 2.9-4.6 6-9.3 9.1-14 .8-1.2 1.6-2.4 2.4-3.5 6.3-9.5 13-19.2 20.1-28.9l4.8-6.6 6-8.1c.9-1.2 1.8-2.4 2.8-3.7l.1-.1c.8-1.1 1.7-2.2 2.5-3.4.1-.1.2-.2.2-.3 0 0 97 99.4 158.1 371.7 0 0 54.1 243.6 274.3 300.6-.3.8-.5 1.5-.8 2.2-.4 1.2-.8 2.3-1.2 3.4-.8 2.2-1.6 4.4-2.3 6.4-.2.7-.5 1.3-.7 2-1.7 4.5-3.1 8.4-4.3 11.6-.2.5-.3.9-.5 1.3-1.2 3.2-2.2 5.7-2.8 7.4-.1.2-.2.4-.2.6-.1.3-.2.6-.3.8-.1.2-.2.4-.2.6-.1.1-.1.3-.1.3 0 .1 0 .1-.1.2v.2c-28.9 10.5-57.1 19.4-84.6 26.8l-110.4-69.2c-37.3-23.3-82.8 14.3-66.9 55.3l14.7 43.3c-88.1 7.8-165.9 1.6-232.2-11.2zm1046.1-577.7c-.2 1.5-17.9 174.4-169.7 299.9 5.1 1.9 10.3 3.8 15.6 5.8 69.9 26.4 137.2 43.6 185.3 54.1 49 10.7 99.2-12.7 122.7-57 41.5-78.3 49-176.8-51.5-223-18.1-8.3-55.6-38.5-102.4-79.8zm-76.9-69.9c-22.4-20.8-45.6-42.7-68.7-64.7 0 0-49.4 155.8-110.2 268.5-8.2 15.3-7.3 34.1 2.9 48.1 13.6 18.6 41.4 26.4 95.8-44.9 92.6-121.5 80.2-207 80.2-207zm-370.6-382.8c-14.5-20.2-40.4-28.7-64-20.8l-98 32.5c-18.8 5.2-37 11-54.6 17.6 0 0 82.1 214.5 357.3 132.2-51.7-51-86.7-86.2-86.7-86.2l-54-75.3zm35.8 710.4c26.8-6 60.9-5.7 104.8 2.5-60.9-82.9-40.3-223.8-22.3-301.2 2.5-10.6-59.3-7-64.5 2.8-83.2 159.8-21 289.6-18 295.9zm-121.9-89.9c-4-34.1-1.4-68.7 6.9-102 61.7-247.1-24.9-203.2-24.9-203.2-15.4 0-52 119.2-52 119.2C866.7 848.1 791 564.3 791 564.3c-50.5 25.5-95.4 56.5-135 90 0 0 132.9 472.2 344.8 700.1 2.7-8.5 5.5-17.4 8.3-26.6 8.2-26.6 18-50 32.3-68.8-35.8-42.9-49.9-91.9-54.6-132.1z" id="Layer_3"/>
    <path class="st0" d="M1200.7 799.3c.6 22.6-17.3 41.4-39.9 42-22.6.6-41.4-17.3-42-39.9-.6-22.6 17.2-41.4 39.9-42 22.6-.5 41.4 17.3 42 39.9z" id="Layer_4"/>
    <path class="st0" d="M488.8 581.7l122.6-17.4-28.8-106.7L723 482.7V368.3l133.3 44.6v-89.3l109 100.3c-25.8 22.9-46.2 53.4-54.4 94.1-18.8 5.2-37 11-54.6 17.6-22.7 8.5-44.5 18.1-65.3 28.6-50.5 25.5-95.4 56.5-135 90-48 40.6-88.2 85-121.3 128.2-.1.1-.2.2-.2.3-.9 1.1-1.7 2.2-2.5 3.4l-.1.1c-.9 1.2-1.9 2.5-2.8 3.7-2 2.7-4.1 5.4-6 8.1l-4.8 6.6c-7.1 9.8-13.7 19.5-20.1 28.9-.8 1.2-1.6 2.4-2.4 3.5-3.1 4.7-6.1 9.4-9.1 14-.7 1.1-1.4 2.2-2.1 3.2-2.5 4-5 8-7.4 11.9-1 1.6-1.9 3.1-2.8 4.7-3.3 5.4-6.4 10.8-9.4 16l-2.4 4.2c-.6 1.1-1.2 2.1-1.8 3.2-36.7 65-53.1 111.5-53.1 111.5l-52.1-183.3 77.2-36.1-25.1-99.7H522l-33.2-104.9z" id="Layer_5"/>
    <g id="STROKES">
        <g id="XMLID_1_">
            <path class="st1" d="M954.1 1489.6c.1-.2.2-.4.2-.6-.1.2-.1.4-.2.6z"/>
            <path class="st2" d="M1520.4 959.1c46.7 41.2 84.3 71.5 102.3 79.8 100.6 46.2 93 144.7 51.5 223-23.5 44.3-73.6 67.7-122.7 57-48.1-10.5-115.3-27.8-185.3-54.1-5.3-2-10.5-3.9-15.6-5.8-54.2-19.8-99.4-32.7-137.2-39.7-43.9-8.2-77.9-8.5-104.8-2.5-30.4 6.8-51.5 21.6-67.3 42.2-14.3 18.7-24.1 42.2-32.3 68.8-2.8 9.2-5.6 18.1-8.3 26.6-13.8 43.4-25.5 77.2-33.8 100.3-.3.8-.5 1.5-.8 2.2-.4 1.2-.8 2.3-1.2 3.4-.8 2.2-1.6 4.4-2.3 6.4-.2.7-.5 1.3-.7 2-1.7 4.5-3.1 8.4-4.3 11.6-.2.5-.3.9-.5 1.3-1.2 3.2-2.2 5.7-2.8 7.4-.1.2-.2.4-.2.6-.1.3-.2.6-.3.8-.1.2-.2.4-.2.6-.1.1-.1.3-.1.3 0 .1 0 .1-.1.2v.2"/>
            <path class="st2" d="M407.7 1005.8s16.4-46.5 53.1-111.5c.6-1 1.2-2.1 1.8-3.2l2.4-4.2c3-5.2 6.2-10.6 9.4-16 .9-1.6 1.9-3.1 2.8-4.7 2.4-3.9 4.9-7.9 7.4-11.9.7-1.1 1.4-2.2 2.1-3.2 2.9-4.6 6-9.3 9.1-14 .8-1.2 1.6-2.4 2.4-3.5 6.3-9.5 13-19.2 20.1-28.9l4.8-6.6 6-8.1c.9-1.2 1.8-2.4 2.8-3.7l.1-.1c.8-1.1 1.7-2.2 2.5-3.4.1-.1.2-.2.2-.3 33.1-43.2 73.3-87.6 121.3-128.2 39.6-33.5 84.4-64.5 135-90 20.8-10.5 42.5-20.1 65.3-28.6 17.6-6.6 35.8-12.5 54.6-17.6 8.3-40.6 28.6-71.1 54.4-94.1 78-69.1 206.3-69.1 206.3-69.1l-44.8 226.8s35 35.2 86.7 86.2c45.2 44.5 103.1 101.1 161.4 156.7 23.1 22 46.2 43.8 68.7 64.7 27.1 25.2 53.2 49 76.9 69.9"/>
            <path class="st2" d="M1520.4 959.1c-.2 1.6-17.9 174.4-169.7 299.9"/>
            <path class="st2" d="M656 654.3s132.9 472.2 344.8 700.1"/>
            <path class="st2" d="M791 564.3S866.7 848.1 916.9 941c0 0 36.6-119.2 52-119.2 0 0 86.6-43.9 24.9 203.2-8.3 33.3-10.9 67.9-6.9 102 4.7 40.2 18.7 89.2 54.6 132.1"/>
            <path class="st2" d="M1374.9 824.5s-49.4 155.8-110.2 268.5c-8.2 15.3-7.3 34.1 2.9 48.1 13.6 18.6 41.4 26.4 95.8-44.9 92.5-121.5 80.1-206.9 80.1-206.9"/>
            <path class="st2" d="M1118.8 801.5c-.6-22.6 17.2-41.4 39.9-42 22.6-.6 41.4 17.2 42 39.9.6 22.6-17.3 41.4-39.9 42-22.6.6-41.4-17.3-42-39.9z"/>
            <path class="st2" d="M910.9 518.1l98-32.5c23.6-7.8 49.5.6 64 20.8l53.9 75.2"/>
            <path class="st2" d="M1108.8 1217s0-.1-.1-.2c-3.1-6.2-65.2-136.1 18.1-295.9 5.1-9.8 66.9-13.5 64.5-2.8-18 77.4-38.7 218.3 22.3 301.2"/>
            <path class="st2" d="M534.7 782.5s97 99.4 158.1 371.7c0 0 54.1 243.6 274.3 300.6"/>
            <path class="st2" d="M856.2 535.7s82.1 214.5 357.3 132.2"/>
            <path class="st2" d="M216.9 1433.6L272 1310l54.8-122.8 80.9-181.4-52.1-183.3 77.2-36.1-25.1-99.7H522l-33.2-105 122.5-17.4-28.8-106.7 140.4 25.1V368.3l133.3 44.6v-89.3L965.3 424"/>
            <path class="st2" d="M460.8 894.4s110.3 214.1 95 394.3c-15.3 180.1-229-101.4-229-101.4"/>
            <path class="st2" d="M272 1310s.1 0 0 0c1.7.9 107.3 60.7 195.2 208.7"/>
            <path class="st2" d="M696.8 1518.7l-5.5-14.1c-15.9-41 29.6-78.7 66.9-55.3l98 61.3"/>
        </g>
    </g>
</svg>
