<svg xmlns="http://www.w3.org/2000/svg" viewBox="0 0 1920 1920">
    <style>
        .st0{fill:#fff}.st1{fill:#f8bbd0}.st2{fill:none;stroke:#231f20;stroke-width:50;stroke-linecap:round;stroke-linejoin:round;stroke-miterlimit:10}
    </style>
    <path class="st0" d="M1186.2 900.7c-25.1 8.1-43.2 31.6-43.2 59.3 0 34.4 27.9 62.3 62.3 62.3s62.3-27.9 62.3-62.3-27.9-62.3-62.3-62.3c-6.6 0-13 1-19.1 3zm169.6-23.7c-22.4 89.7-71.7 178.1-113 243.5-5-4-124.4-98.5-215.9 69.3l-2.5.6a928.2 928.2 0 0 1-20-108.4c-9.2-75.5-7.9-144.2-1.8-203.1 0 0 51.3-120.7 202.7-145.1l93.6-160.8c.8.8 50.1 50.2 60 152.8 2.7 28.3 3.5 55 2.6 80.1l.3 26.2 26.1 65.6c.2 0-12-9.1-32.1-20.7zm-622 23.7c-5.9-1.9-12.1-2.9-18.6-3h-.5c-34.4 0-62.3 27.9-62.3 62.3s27.9 62.3 62.3 62.3S777 994.4 777 960c0-27.8-18.2-51.3-43.2-59.3zM564.2 877c-20.1 11.7-32.3 20.7-32.3 20.7l26.2-65.6.3-26.2c-.9-25.1-.1-51.8 2.6-80.1 9.9-102.6 59.2-151.9 60-152.8l93.6 160.8c151.5 24.3 202.8 145.1 202.8 145.1 6.1 58.9 7.4 127.7-1.8 203.1-4.2 34.8-10.7 71-20 108.4l-2.5-.6c-91.5-167.8-210.9-73.4-215.9-69.3-41.2-65.5-90.5-153.9-113-243.5z" id="Layer_10"/>
    <path class="st0" d="M1295.5 216.9s105.6 225.6 3.5 356.1l-93.6 160.8c-151.4 24.3-202.7 145.1-202.7 145.1-6.1 58.9-7.4 127.7 1.8 203.1 4.2 34.8 10.7 71 20 108.4 12.1 49 29 99.9 51.9 152-53.5-28.2-116.3-25.8-116.3-25.8s-62.8-2.5-116.3 25.8c22.9-52.2 39.8-103.1 51.9-152a928.2 928.2 0 0 0 20-108.4c9.2-75.5 7.9-144.2 1.8-203.1 0 0-51.3-120.7-202.8-145.1L621 573c-102.2-130.5 3.5-356.1 3.5-356.1C743.1 247 769.7 434.3 769.7 434.3l1-.1c5.9 76.6 35.4 138.8 35.4 138.8l76-40.1 27.7 69.8 50.2-58.9 50.2 58.9 27.7-69.8 76 40.1s29.5-62.1 35.4-138.8l1 .1c0 .1 26.5-187.2 145.2-217.4zm-268.6 972.9l-2.5.6c12.1 49 29 99.9 51.9 152 34 17.9 64.2 48.3 72.2 99.5-.3-9.3-4-173 64.1-275.1 9.1-13.6 19.4-29.2 30.2-46.4-5-4-124.4-98.4-215.9 69.4zm-349.7-69.4c10.8 17.2 21.1 32.8 30.2 46.4 68.1 102.1 64.3 266.2 64.1 275.1 8-51.2 38.2-81.6 72.2-99.5 22.9-52.2 39.8-103.1 51.9-152l-2.5-.6c-91.5-167.8-210.9-73.4-215.9-69.4z" id="Layer_11"/>
    <path class="st0" d="M1148.5 1441.9c.8 5.2 1.4 10.7 1.8 16.3 0 0 44.3-7.1 28.3 65.5l-17.7 115.1s-22 12.4-39.5 18c-13.9 4.4-26.8 11.4-37.9 20.8-18.7 15.9-55.4 33.7-123.5 25.3-68.1 8.4-104.8-9.4-123.5-25.3-11.1-9.4-24-16.4-37.9-20.8-17.6-5.6-39.5-18-39.5-18l-17.7-115.1c-15.9-72.6 28.3-65.5 28.3-65.5.3-5.7.9-11.1 1.8-16.3 8-51.2 38.2-81.6 72.2-99.5 53.5-28.2 116.3-25.8 116.3-25.8s62.8-2.5 116.3 25.8c34 18 64.2 48.3 72.2 99.5z" id="Layer_12"/>
    <g id="Layer_13">
        <path class="st0" d="M1205.3 897.7c34.4 0 62.3 27.9 62.3 62.3s-27.9 62.3-62.3 62.3-62.3-27.9-62.3-62.3c0-27.8 18.2-51.3 43.2-59.3 12.1-3 19.1-3 19.1-3z"/>
        <path class="st0" d="M733.8 900.7c25.1 8.1 43.2 31.6 43.2 59.3 0 34.4-27.9 62.3-62.3 62.3s-62.3-27.9-62.3-62.3 27.9-62.3 62.3-62.3h.5c1.8 0 8.4.4 18.6 3z"/>
    </g>
    <path class="st0" d="M1113.9 276.1c32.7 49.8 39.3 107.2 35.4 158.2-5.9 76.6-35.4 138.8-35.4 138.8l-76-40.1-27.7 69.8-50.2-58.9-50.2 58.9-27.7-69.8-76 40.1s-29.5-62.1-35.4-138.8c-3.9-51 2.7-108.4 35.4-158.2l30.9 96.4 40-96.4 32.8 56 50.1-56.7 50.1 56.7 32.8-56 40 96.4 31.1-96.4z" id="Layer_14"/>
    <g id="STROKES">
        <g id="XMLID_1_">
            <path class="st2" d="M771.5 1441.9v.4"/>
            <path class="st2" d="M564.2 877c22.4 89.7 71.7 178.1 113 243.5 10.8 17.2 21.1 32.8 30.2 46.4 68.1 102.1 64.3 266.2 64.1 275.1"/>
            <path class="st2" d="M820.9 1510.2s11.4-2.5 22.8 4.3c12.9 7.7 25.8 27.3 22.2 76"/>
            <path class="st2" d="M624.5 216.9S735.9 431.7 719 602.7"/>
            <path class="st2" d="M960 1703.1c-68.1 8.4-104.8-9.4-123.5-25.3-11.1-9.4-24-16.4-37.9-20.8-17.6-5.6-39.5-18-39.5-18l-17.7-115.1c-15.9-72.6 28.3-65.5 28.3-65.5.3-5.7.9-11.1 1.8-16.3 8-51.2 38.2-81.6 72.2-99.5 53.5-28.2 116.3-25.8 116.3-25.8"/>
            <path class="st2" d="M715.2 897.7c6.5 0 12.7 1.1 18.6 3 25.1 8.1 43.2 31.6 43.2 59.3 0 34.4-27.9 62.3-62.3 62.3s-62.3-27.9-62.3-62.3 27.9-62.3 62.3-62.3"/>
            <path class="st2" d="M960 275.4L909.9 332l-32.8-56-40 96.4-30.9-96.4c-32.7 49.8-39.3 107.2-35.4 158.2 5.9 76.6 35.4 138.8 35.4 138.8l76-40.1 27.7 69.8 50.2-58.9"/>
            <path class="st2" d="M714.7 733.8L621 573"/>
            <path class="st2" d="M769.7 434.4S743.1 247.1 624.5 217c0 0-105.6 225.6-3.5 356.1-.8.8-50.1 50.2-60 152.8-2.7 28.3-3.5 55-2.6 80.1l-.3 26.2-26.2 65.6s12.2-9.1 32.3-20.7c49.6-28.7 147.6-73.2 232.1-37.5"/>
            <path class="st2" d="M714.7 897.7h.5c1.8.1 8.4.5 18.6 3 35.5 8.8 114.2 43.7 181.8 181.4"/>
            <path class="st2" d="M677 1120.6s.1 0 .2-.1c5-4 124.4-98.5 215.9 69.3"/>
            <path class="st2" d="M917.4 878.9s-51.3-120.7-202.8-145.1"/>
            <path class="st2" d="M866.5 665.9s37.4 82.3 50.9 213c6.1 58.9 7.4 127.7-1.8 203.1-4.2 34.8-10.7 71-20 108.4-12.1 49-29 99.9-51.9 152"/>
            <path class="st2" d="M1355.8 877c-22.4 89.7-71.7 178.1-113 243.5-10.8 17.2-21.1 32.8-30.2 46.4-68.1 102-64.3 265.8-64.1 275.1v.4"/>
            <path class="st2" d="M1099.1 1510.2s-11.4-2.5-22.8 4.3c-12.9 7.7-25.8 27.3-22.2 76"/>
            <path class="st2" d="M1295.5 216.9s-111.4 214.8-94.5 385.8"/>
            <path class="st2" d="M960 1703.1c68.1 8.4 104.8-9.4 123.5-25.3 11.1-9.4 24-16.4 37.9-20.8 17.6-5.6 39.5-18 39.5-18l17.7-115.1c15.9-72.6-28.3-65.5-28.3-65.5-.3-5.7-.9-11.1-1.8-16.3-8-51.2-38.2-81.5-72.2-99.5-53.5-28.2-116.3-25.8-116.3-25.8"/>
            <path class="st2" d="M1186.2 900.7c-25.1 8.1-43.2 31.6-43.2 59.3 0 34.4 27.9 62.3 62.3 62.3s62.3-27.9 62.3-62.3-27.9-62.3-62.3-62.3c-6.6 0-13 1-19.1 3z"/>
            <path class="st2" d="M960 275.4l50.1 56.7 32.8-56 40 96.4 30.9-96.4c32.7 49.8 39.3 107.2 35.4 158.2-5.9 76.6-35.4 138.8-35.4 138.8l-76-40.1-27.7 69.8-50.1-58.9"/>
            <path class="st2" d="M1205.3 733.8l93.6-160.8"/>
            <path class="st2" d="M960 1408.5v199.4"/>
            <path class="st2" d="M1150.3 434.4s26.6-187.3 145.2-217.4c0 0 105.6 225.6 3.5 356.1.8.8 50.1 50.2 60 152.8 2.7 28.3 3.5 55 2.6 80.1l.3 26.2 26.1 65.6s-12.1-9.1-32.3-20.7c-49.6-28.7-147.6-73.2-232.1-37.5"/>
            <path class="st2" d="M1205.3 897.7s-7.1 0-19.1 3c-35.5 8.8-114.2 43.7-181.8 181.4"/>
            <path class="st2" d="M1243 1120.6l-.2-.1c-5-4-124.4-98.5-215.9 69.3"/>
            <path class="st2" d="M1002.6 878.9s51.3-120.7 202.7-145.1"/>
            <path class="st2" d="M1053.5 665.9s-37.4 82.3-50.9 213c-6.1 58.9-7.4 127.7 1.8 203.1 4.2 34.8 10.7 71 20 108.4 12.1 49 29 99.9 51.9 152"/>
        </g>
    </g>
</svg>
