<svg xmlns="http://www.w3.org/2000/svg" viewBox="0 0 1920 1920">
    <style>
        .st0{fill:#fff}.st1{fill:none;stroke:#231f20;stroke-width:50;stroke-linecap:round;stroke-linejoin:round;stroke-miterlimit:10}
    </style>
    <path class="st0" d="M1738.4 995.9l-165.3-165.3-.1-.1c-9.8-9.8-22.6-14.6-35.4-14.6-12.8 0-25.6 4.9-35.4 14.6l-.1.1-129.3 129.3-129.3-129.3-.1-.1c-9.2-9.2-21-14-33-14.6-13.6-.6-27.4 4.2-37.8 14.6l-.1.1-130.1 130.1-129.9-130.1-.1-.1c-9.8-9.8-22.6-14.6-35.4-14.6-12.8 0-25.6 4.9-35.4 14.6l-.1.1-129.2 129.2-129.2-129.2-.1-.1c-9.8-9.8-22.6-14.6-35.4-14.6-12.8 0-25.6 4.9-35.4 14.6l-.1.1-129.8 129.8-130-130c-19.5-19.5-51.2-19.5-70.7 0s-19.5 51.2 0 70.7l163.2 163.2c.7.7 1.3 1.5 2.1 2.2 9.8 9.8 22.6 14.6 35.4 14.6h.2c12.8 0 25.6-4.9 35.4-14.6.7-.7 1.4-1.4 2.1-2.2l127.8-127.8 122.6 122.6c1.8 2.6 3.8 5.1 6.1 7.5 9.8 9.8 22.6 14.6 35.4 14.6h1.4c12.8 0 25.6-4.9 35.4-14.6 2.3-2.3 4.4-4.8 6.1-7.5l122.6-122.6 130 130c9.8 9.8 22.6 14.6 35.4 14.6h.4c12.8 0 25.6-4.9 35.4-14.6l130-130 122.6 122.6c1.8 2.6 3.8 5.1 6.1 7.5 9.8 9.8 22.6 14.6 35.4 14.6h1.4c12.8 0 25.6-4.9 35.4-14.6 2.3-2.3 4.4-4.8 6.1-7.5l122.6-122.6 130 130c9.8 9.8 22.6 14.6 35.4 14.6s25.6-4.9 35.4-14.6c18.9-19.5 18.9-51.1-.6-70.6z" id="Layer_3"/>
    <path class="st1" d="M1738.4 995.9l-165.3-165.3-.1-.1c-9.8-9.8-22.6-14.6-35.4-14.6-12.8 0-25.6 4.9-35.4 14.6l-.1.1-129.3 129.3-129.3-129.3-.1-.1c-9.2-9.2-21-14-33-14.6-13.6-.6-27.4 4.2-37.8 14.6l-.1.1-130.1 130.1-129.9-130.1-.1-.1c-9.8-9.8-22.6-14.6-35.4-14.6-12.8 0-25.6 4.9-35.4 14.6l-.1.1-129.2 129.2-129.2-129.2-.1-.1c-9.8-9.8-22.6-14.6-35.4-14.6-12.8 0-25.6 4.9-35.4 14.6l-.1.1-129.8 129.8-130-130c-19.5-19.5-51.2-19.5-70.7 0s-19.5 51.2 0 70.7l163.2 163.2c.7.7 1.3 1.5 2.1 2.2 9.8 9.8 22.6 14.6 35.4 14.6h.2c12.8 0 25.6-4.9 35.4-14.6.7-.7 1.4-1.4 2.1-2.2l127.8-127.8 122.6 122.6c1.8 2.6 3.8 5.1 6.1 7.5 9.8 9.8 22.6 14.6 35.4 14.6h1.4c12.8 0 25.6-4.9 35.4-14.6 2.3-2.3 4.4-4.8 6.1-7.5l122.6-122.6 130 130c9.8 9.8 22.6 14.6 35.4 14.6h.4c12.8 0 25.6-4.9 35.4-14.6l130-130 122.6 122.6c1.8 2.6 3.8 5.1 6.1 7.5 9.8 9.8 22.6 14.6 35.4 14.6h1.4c12.8 0 25.6-4.9 35.4-14.6 2.3-2.3 4.4-4.8 6.1-7.5l122.6-122.6 130 130c9.8 9.8 22.6 14.6 35.4 14.6s25.6-4.9 35.4-14.6c18.9-19.5 18.9-51.1-.6-70.6z" id="STROKES"/>
</svg>
